<?xml version="1.0" encoding="UTF-8" standalone="no"?>
<!DOCTYPE svg PUBLIC "-//W3C//DTD SVG 1.1//EN"
 "http://www.w3.org/Graphics/SVG/1.1/DTD/svg11.dtd">
<!-- Generated by graphviz version 2.43.0 (0)
 -->
<!-- Title: %3 Pages: 1 -->
<svg width="403pt" height="529pt"
 viewBox="0.00 0.00 403.29 529.00" xmlns="http://www.w3.org/2000/svg" xmlns:xlink="http://www.w3.org/1999/xlink">
<g id="graph0" class="graph" transform="scale(1 1) rotate(0) translate(4 525)">
<title>%3</title>
<polygon fill="white" stroke="transparent" points="-4,4 -4,-525 399.29,-525 399.29,4 -4,4"/>
<!-- start -->
<g id="node1" class="node">
<title>start</title>
<path fill="none" stroke="black" d="M378.29,-521C378.29,-521 152.29,-521 152.29,-521 146.29,-521 140.29,-515 140.29,-509 140.29,-509 140.29,-497 140.29,-497 140.29,-491 146.29,-485 152.29,-485 152.29,-485 378.29,-485 378.29,-485 384.29,-485 390.29,-491 390.29,-497 390.29,-497 390.29,-509 390.29,-509 390.29,-515 384.29,-521 378.29,-521"/>
<text text-anchor="middle" x="265.29" y="-499.3" font-family="Arial" font-size="14.00">pub fn ArrayListAlignedUnmanaged(...)</text>
</g>
<!-- check_alignment -->
<g id="node2" class="node">
<title>check_alignment</title>
<path fill="none" stroke="black" d="M253.43,-446.13C253.43,-446.13 163.19,-431.87 163.19,-431.87 157.26,-430.94 157.26,-429.06 163.19,-428.13 163.19,-428.13 253.43,-413.87 253.43,-413.87 259.36,-412.94 271.21,-412.94 277.14,-413.87 277.14,-413.87 367.38,-428.13 367.38,-428.13 373.31,-429.06 373.31,-430.94 367.38,-431.87 367.38,-431.87 277.14,-446.13 277.14,-446.13 271.21,-447.06 259.36,-447.06 253.43,-446.13"/>
<text text-anchor="middle" x="265.29" y="-426.3" font-family="Arial" font-size="14.00">alignment != null?</text>
</g>
<!-- start&#45;&gt;check_alignment -->
<g id="edge1" class="edge">
<title>start&#45;&gt;check_alignment</title>
<path fill="none" stroke="black" d="M265.29,-484.81C265.29,-476.79 265.29,-467.05 265.29,-458.07"/>
<polygon fill="black" stroke="black" points="268.79,-458.03 265.29,-448.03 261.79,-458.03 268.79,-458.03"/>
</g>
<!-- check_alignof -->
<g id="node3" class="node">
<title>check_alignof</title>
<path fill="none" stroke="black" d="M155.36,-359.71C155.36,-359.71 12.14,-344.29 12.14,-344.29 6.18,-343.64 6.18,-342.36 12.14,-341.71 12.14,-341.71 155.36,-326.29 155.36,-326.29 161.32,-325.64 173.25,-325.64 179.22,-326.29 179.22,-326.29 322.43,-341.71 322.43,-341.71 328.39,-342.36 328.39,-343.64 322.43,-344.29 322.43,-344.29 179.22,-359.71 179.22,-359.71 173.25,-360.36 161.32,-360.36 155.36,-359.71"/>
<text text-anchor="middle" x="167.29" y="-339.3" font-family="Arial" font-size="14.00">alignment == @alignOf(T)?</text>
</g>
<!-- check_alignment&#45;&gt;check_alignof -->
<g id="edge2" class="edge">
<title>check_alignment&#45;&gt;check_alignof</title>
<path fill="none" stroke="black" d="M248.66,-414.58C233.32,-401.27 210.31,-381.32 192.67,-366.01"/>
<polygon fill="black" stroke="black" points="194.84,-363.26 184.99,-359.35 190.25,-368.55 194.84,-363.26"/>
<text text-anchor="middle" x="229.79" y="-382.8" font-family="Arial" font-size="14.00">是</text>
</g>
<!-- define_struct -->
<g id="node5" class="node">
<title>define_struct</title>
<path fill="none" stroke="black" d="M367.29,-187C367.29,-187 271.29,-187 271.29,-187 265.29,-187 259.29,-181 259.29,-175 259.29,-175 259.29,-131 259.29,-131 259.29,-125 265.29,-119 271.29,-119 271.29,-119 367.29,-119 367.29,-119 373.29,-119 379.29,-125 379.29,-131 379.29,-131 379.29,-175 379.29,-175 379.29,-181 373.29,-187 367.29,-187"/>
<text text-anchor="middle" x="319.29" y="-171.8" font-family="Arial" font-size="14.00">定义结构体类型:</text>
<text text-anchor="middle" x="319.29" y="-156.8" font-family="Arial" font-size="14.00">&#45; items</text>
<text text-anchor="middle" x="319.29" y="-141.8" font-family="Arial" font-size="14.00">&#45; capacity</text>
<text text-anchor="middle" x="319.29" y="-126.8" font-family="Arial" font-size="14.00">&#45; 方法集合</text>
</g>
<!-- check_alignment&#45;&gt;define_struct -->
<g id="edge3" class="edge">
<title>check_alignment&#45;&gt;define_struct</title>
<path fill="none" stroke="black" d="M289.72,-415.59C308.26,-403.89 332.35,-385.04 343.29,-361 367.33,-308.15 351.79,-240.2 336.85,-196.86"/>
<polygon fill="black" stroke="black" points="340.06,-195.44 333.39,-187.2 333.47,-197.8 340.06,-195.44"/>
<text text-anchor="middle" x="362.79" y="-295.8" font-family="Arial" font-size="14.00">否</text>
</g>
<!-- recursive_call -->
<g id="node4" class="node">
<title>recursive_call</title>
<path fill="none" stroke="black" d="M271.29,-274C271.29,-274 23.29,-274 23.29,-274 17.29,-274 11.29,-268 11.29,-262 11.29,-262 11.29,-250 11.29,-250 11.29,-244 17.29,-238 23.29,-238 23.29,-238 271.29,-238 271.29,-238 277.29,-238 283.29,-244 283.29,-250 283.29,-250 283.29,-262 283.29,-262 283.29,-268 277.29,-274 271.29,-274"/>
<text text-anchor="middle" x="147.29" y="-252.3" font-family="Arial" font-size="14.00">return ArrayListAlignedUnmanaged(T, null)</text>
</g>
<!-- check_alignof&#45;&gt;recursive_call -->
<g id="edge4" class="edge">
<title>check_alignof&#45;&gt;recursive_call</title>
<path fill="none" stroke="black" d="M163.34,-325.21C160.56,-313.41 156.79,-297.38 153.6,-283.82"/>
<polygon fill="black" stroke="black" points="157,-282.98 151.3,-274.05 150.18,-284.59 157,-282.98"/>
<text text-anchor="middle" x="166.79" y="-295.8" font-family="Arial" font-size="14.00">是</text>
</g>
<!-- check_alignof&#45;&gt;define_struct -->
<g id="edge5" class="edge">
<title>check_alignof&#45;&gt;define_struct</title>
<path fill="none" stroke="black" d="M209.08,-329.43C236.77,-318.97 271.66,-301.3 292.29,-274 308.84,-252.08 315.58,-221.9 318.18,-197.28"/>
<polygon fill="black" stroke="black" points="321.69,-197.38 319.06,-187.12 314.71,-196.78 321.69,-197.38"/>
<text text-anchor="middle" x="316.79" y="-252.3" font-family="Arial" font-size="14.00">否</text>
</g>
<!-- recursive_call&#45;&gt;define_struct -->
<g id="edge6" class="edge">
<title>recursive_call&#45;&gt;define_struct</title>
<path fill="none" stroke="black" stroke-dasharray="5,2" d="M176.46,-237.87C197.65,-225.43 227.16,-208.1 253.85,-192.42"/>
<polygon fill="black" stroke="black" points="255.93,-195.26 262.79,-187.18 252.39,-189.22 255.93,-195.26"/>
<text text-anchor="middle" x="264.29" y="-208.8" font-family="Arial" font-size="14.00">递归调用后</text>
</g>
<!-- methods -->
<g id="node6" class="node">
<title>methods</title>
<path fill="none" stroke="black" d="M383.29,-68C383.29,-68 255.29,-68 255.29,-68 249.29,-68 243.29,-62 243.29,-56 243.29,-56 243.29,-12 243.29,-12 243.29,-6 249.29,0 255.29,0 255.29,0 383.29,0 383.29,0 389.29,0 395.29,-6 395.29,-12 395.29,-12 395.29,-56 395.29,-56 395.29,-62 389.29,-68 383.29,-68"/>
<text text-anchor="middle" x="319.29" y="-52.8" font-family="Arial" font-size="14.00">结构体方法:</text>
<text text-anchor="middle" x="319.29" y="-37.8" font-family="Arial" font-size="14.00">initCapacity, deinit,</text>
<text text-anchor="middle" x="319.29" y="-22.8" font-family="Arial" font-size="14.00">append, insert,</text>
<text text-anchor="middle" x="319.29" y="-7.8" font-family="Arial" font-size="14.00">pop, shrinkAndFree 等</text>
</g>
<!-- define_struct&#45;&gt;methods -->
<g id="edge7" class="edge">
<title>define_struct&#45;&gt;methods</title>
<path fill="none" stroke="black" d="M319.29,-118.79C319.29,-106.31 319.29,-91.94 319.29,-78.66"/>
<polygon fill="black" stroke="black" points="322.79,-78.3 319.29,-68.3 315.79,-78.3 322.79,-78.3"/>
<text text-anchor="middle" x="333.79" y="-89.8" font-family="Arial" font-size="14.00">包含</text>
</g>
</g>
</svg>
