<?xml version="1.0" encoding="UTF-8" standalone="no"?>
<!DOCTYPE svg PUBLIC "-//W3C//DTD SVG 1.1//EN"
 "http://www.w3.org/Graphics/SVG/1.1/DTD/svg11.dtd">
<!-- Generated by graphviz version 2.43.0 (0)
 -->
<!-- Title: make_function Pages: 1 -->
<svg width="709pt" height="1547pt"
 viewBox="0.00 0.00 709.00 1547.00" xmlns="http://www.w3.org/2000/svg" xmlns:xlink="http://www.w3.org/1999/xlink">
<g id="graph0" class="graph" transform="scale(1 1) rotate(0) translate(4 1543)">
<title>make_function</title>
<polygon fill="white" stroke="transparent" points="-4,4 -4,-1543 705,-1543 705,4 -4,4"/>
<!-- start -->
<g id="node1" class="node">
<title>start</title>
<path fill="none" stroke="black" d="M404,-1539C404,-1539 374,-1539 374,-1539 368,-1539 362,-1533 362,-1527 362,-1527 362,-1515 362,-1515 362,-1509 368,-1503 374,-1503 374,-1503 404,-1503 404,-1503 410,-1503 416,-1509 416,-1515 416,-1515 416,-1527 416,-1527 416,-1533 410,-1539 404,-1539"/>
<text text-anchor="middle" x="389" y="-1517.3" font-family="Times,serif" font-size="14.00">开始</text>
</g>
<!-- init_vars -->
<g id="node2" class="node">
<title>init_vars</title>
<path fill="none" stroke="black" d="M549,-1466C549,-1466 229,-1466 229,-1466 223,-1466 217,-1460 217,-1454 217,-1454 217,-1440 217,-1440 217,-1434 223,-1428 229,-1428 229,-1428 549,-1428 549,-1428 555,-1428 561,-1434 561,-1440 561,-1440 561,-1454 561,-1454 561,-1460 555,-1466 549,-1466"/>
<text text-anchor="middle" x="389" y="-1450.8" font-family="Times,serif" font-size="14.00">初始化变量</text>
<text text-anchor="middle" x="389" y="-1435.8" font-family="Times,serif" font-size="14.00">（arena, run, argv_list, output_placeholders）</text>
</g>
<!-- start&#45;&gt;init_vars -->
<g id="edge1" class="edge">
<title>start&#45;&gt;init_vars</title>
<path fill="none" stroke="black" d="M389,-1502.94C389,-1494.99 389,-1485.31 389,-1476.31"/>
<polygon fill="black" stroke="black" points="392.5,-1476.2 389,-1466.2 385.5,-1476.2 392.5,-1476.2"/>
</g>
<!-- process_args -->
<g id="node3" class="node">
<title>process_args</title>
<path fill="none" stroke="black" d="M451.5,-1391C451.5,-1391 326.5,-1391 326.5,-1391 320.5,-1391 314.5,-1385 314.5,-1379 314.5,-1379 314.5,-1367 314.5,-1367 314.5,-1361 320.5,-1355 326.5,-1355 326.5,-1355 451.5,-1355 451.5,-1355 457.5,-1355 463.5,-1361 463.5,-1367 463.5,-1367 463.5,-1379 463.5,-1379 463.5,-1385 457.5,-1391 451.5,-1391"/>
<text text-anchor="middle" x="389" y="-1369.3" font-family="Times,serif" font-size="14.00">处理run.argv.items</text>
</g>
<!-- init_vars&#45;&gt;process_args -->
<g id="edge2" class="edge">
<title>init_vars&#45;&gt;process_args</title>
<path fill="none" stroke="black" d="M389,-1427.83C389,-1419.89 389,-1410.41 389,-1401.63"/>
<polygon fill="black" stroke="black" points="392.5,-1401.42 389,-1391.42 385.5,-1401.42 392.5,-1401.42"/>
</g>
<!-- arg_switch -->
<g id="node4" class="node">
<title>arg_switch</title>
<path fill="none" stroke="black" d="M681.5,-1318C681.5,-1318 534.5,-1318 534.5,-1318 528.5,-1318 522.5,-1312 522.5,-1306 522.5,-1306 522.5,-1232 522.5,-1232 522.5,-1226 528.5,-1220 534.5,-1220 534.5,-1220 681.5,-1220 681.5,-1220 687.5,-1220 693.5,-1226 693.5,-1232 693.5,-1232 693.5,-1306 693.5,-1306 693.5,-1312 687.5,-1318 681.5,-1318"/>
<text text-anchor="middle" x="608" y="-1302.8" font-family="Times,serif" font-size="14.00">根据参数类型处理:</text>
<text text-anchor="middle" x="608" y="-1287.8" font-family="Times,serif" font-size="14.00">&#45; bytes</text>
<text text-anchor="middle" x="608" y="-1272.8" font-family="Times,serif" font-size="14.00">&#45; lazy_path</text>
<text text-anchor="middle" x="608" y="-1257.8" font-family="Times,serif" font-size="14.00">&#45; directory_source</text>
<text text-anchor="middle" x="608" y="-1242.8" font-family="Times,serif" font-size="14.00">&#45; artifact</text>
<text text-anchor="middle" x="608" y="-1227.8" font-family="Times,serif" font-size="14.00">&#45; output_file/directory</text>
</g>
<!-- process_args&#45;&gt;arg_switch -->
<g id="edge3" class="edge">
<title>process_args&#45;&gt;arg_switch</title>
<path fill="none" stroke="black" d="M427.15,-1354.94C450.54,-1344.42 481.07,-1330.57 508,-1318 509.77,-1317.18 511.55,-1316.34 513.35,-1315.5"/>
<polygon fill="black" stroke="black" points="514.86,-1318.66 522.41,-1311.23 511.87,-1312.32 514.86,-1318.66"/>
</g>
<!-- handle_stdin -->
<g id="node6" class="node">
<title>handle_stdin</title>
<path fill="none" stroke="black" d="M327,-1287C327,-1287 241,-1287 241,-1287 235,-1287 229,-1281 229,-1275 229,-1275 229,-1263 229,-1263 229,-1257 235,-1251 241,-1251 241,-1251 327,-1251 327,-1251 333,-1251 339,-1257 339,-1263 339,-1263 339,-1275 339,-1275 339,-1281 333,-1287 327,-1287"/>
<text text-anchor="middle" x="284" y="-1265.3" font-family="Times,serif" font-size="14.00">处理stdin输入</text>
</g>
<!-- process_args&#45;&gt;handle_stdin -->
<g id="edge6" class="edge">
<title>process_args&#45;&gt;handle_stdin</title>
<path fill="none" stroke="black" d="M371.19,-1354.7C354.04,-1338.04 327.95,-1312.7 308.78,-1294.07"/>
<polygon fill="black" stroke="black" points="311.16,-1291.5 301.55,-1287.05 306.28,-1296.53 311.16,-1291.5"/>
</g>
<!-- hash_updates -->
<g id="node5" class="node">
<title>hash_updates</title>
<path fill="none" stroke="black" d="M479.5,-1169C479.5,-1169 382.5,-1169 382.5,-1169 376.5,-1169 370.5,-1163 370.5,-1157 370.5,-1157 370.5,-1143 370.5,-1143 370.5,-1137 376.5,-1131 382.5,-1131 382.5,-1131 479.5,-1131 479.5,-1131 485.5,-1131 491.5,-1137 491.5,-1143 491.5,-1143 491.5,-1157 491.5,-1157 491.5,-1163 485.5,-1169 479.5,-1169"/>
<text text-anchor="middle" x="431" y="-1153.8" font-family="Times,serif" font-size="14.00">更新哈希值</text>
<text text-anchor="middle" x="431" y="-1138.8" font-family="Times,serif" font-size="14.00">添加到argv_list</text>
</g>
<!-- arg_switch&#45;&gt;hash_updates -->
<g id="edge4" class="edge">
<title>arg_switch&#45;&gt;hash_updates</title>
<path fill="none" stroke="black" d="M535.24,-1219.91C511.65,-1204.31 486.52,-1187.7 466.85,-1174.7"/>
<polygon fill="black" stroke="black" points="468.77,-1171.77 458.49,-1169.17 464.91,-1177.61 468.77,-1171.77"/>
<text text-anchor="middle" x="546" y="-1190.8" font-family="Times,serif" font-size="14.00">处理每个参数</text>
</g>
<!-- error_handling -->
<g id="node22" class="node">
<title>error_handling</title>
<path fill="none" stroke="black" d="M268,-124C268,-124 218,-124 218,-124 212,-124 206,-118 206,-112 206,-112 206,-100 206,-100 206,-94 212,-88 218,-88 218,-88 268,-88 268,-88 274,-88 280,-94 280,-100 280,-100 280,-112 280,-112 280,-118 274,-124 268,-124"/>
<text text-anchor="middle" x="243" y="-102.3" font-family="Times,serif" font-size="14.00">错误处理</text>
</g>
<!-- arg_switch&#45;&gt;error_handling -->
<g id="edge28" class="edge">
<title>arg_switch&#45;&gt;error_handling</title>
<path fill="none" stroke="black" d="M612.17,-1219.94C613.67,-1198.81 615,-1173.69 615,-1151 615,-1151 615,-1151 615,-193 615,-127.06 390.31,-111.67 290.18,-108.08"/>
<polygon fill="black" stroke="black" points="290.14,-104.58 280.03,-107.75 289.91,-111.58 290.14,-104.58"/>
<text text-anchor="middle" x="658" y="-658.3" font-family="Times,serif" font-size="14.00">文件操作失败</text>
</g>
<!-- hash_updates&#45;&gt;process_args -->
<g id="edge5" class="edge">
<title>hash_updates&#45;&gt;process_args</title>
<path fill="none" stroke="black" d="M420.37,-1169.05C412.98,-1182.59 403.64,-1201.83 399,-1220 388.16,-1262.45 387.16,-1313.61 387.81,-1344.43"/>
<polygon fill="black" stroke="black" points="384.32,-1344.92 388.1,-1354.81 391.32,-1344.72 384.32,-1344.92"/>
<text text-anchor="middle" x="456.5" y="-1265.3" font-family="Times,serif" font-size="14.00">循环处理所有参数</text>
</g>
<!-- handle_outputs -->
<g id="node7" class="node">
<title>handle_outputs</title>
<path fill="none" stroke="black" d="M298,-1168C298,-1168 154,-1168 154,-1168 148,-1168 142,-1162 142,-1156 142,-1156 142,-1144 142,-1144 142,-1138 148,-1132 154,-1132 154,-1132 298,-1132 298,-1132 304,-1132 310,-1138 310,-1144 310,-1144 310,-1156 310,-1156 310,-1162 304,-1168 298,-1168"/>
<text text-anchor="middle" x="226" y="-1146.3" font-family="Times,serif" font-size="14.00">处理stdout/stderr捕获</text>
</g>
<!-- handle_stdin&#45;&gt;handle_outputs -->
<g id="edge7" class="edge">
<title>handle_stdin&#45;&gt;handle_outputs</title>
<path fill="none" stroke="black" d="M275.57,-1250.99C265.94,-1231.58 250.1,-1199.61 238.92,-1177.06"/>
<polygon fill="black" stroke="black" points="242.02,-1175.44 234.44,-1168.03 235.75,-1178.55 242.02,-1175.44"/>
</g>
<!-- hash_stdio -->
<g id="node8" class="node">
<title>hash_stdio</title>
<path fill="none" stroke="black" d="M258.5,-1094C258.5,-1094 163.5,-1094 163.5,-1094 157.5,-1094 151.5,-1088 151.5,-1082 151.5,-1082 151.5,-1070 151.5,-1070 151.5,-1064 157.5,-1058 163.5,-1058 163.5,-1058 258.5,-1058 258.5,-1058 264.5,-1058 270.5,-1064 270.5,-1070 270.5,-1070 270.5,-1082 270.5,-1082 270.5,-1088 264.5,-1094 258.5,-1094"/>
<text text-anchor="middle" x="211" y="-1072.3" font-family="Times,serif" font-size="14.00">哈希标准IO配置</text>
</g>
<!-- handle_outputs&#45;&gt;hash_stdio -->
<g id="edge8" class="edge">
<title>handle_outputs&#45;&gt;hash_stdio</title>
<path fill="none" stroke="black" d="M222.45,-1131.94C220.73,-1123.72 218.64,-1113.66 216.71,-1104.41"/>
<polygon fill="black" stroke="black" points="220.1,-1103.52 214.63,-1094.44 213.25,-1104.94 220.1,-1103.52"/>
</g>
<!-- process_file_inputs -->
<g id="node9" class="node">
<title>process_file_inputs</title>
<path fill="none" stroke="black" d="M247,-1021C247,-1021 169,-1021 169,-1021 163,-1021 157,-1015 157,-1009 157,-1009 157,-997 157,-997 157,-991 163,-985 169,-985 169,-985 247,-985 247,-985 253,-985 259,-991 259,-997 259,-997 259,-1009 259,-1009 259,-1015 253,-1021 247,-1021"/>
<text text-anchor="middle" x="208" y="-999.3" font-family="Times,serif" font-size="14.00">处理文件输入</text>
</g>
<!-- hash_stdio&#45;&gt;process_file_inputs -->
<g id="edge9" class="edge">
<title>hash_stdio&#45;&gt;process_file_inputs</title>
<path fill="none" stroke="black" d="M210.27,-1057.81C209.93,-1049.79 209.52,-1040.05 209.14,-1031.07"/>
<polygon fill="black" stroke="black" points="212.64,-1030.87 208.72,-1021.03 205.64,-1031.17 212.64,-1030.87"/>
</g>
<!-- check_cache -->
<g id="node10" class="node">
<title>check_cache</title>
<path fill="none" stroke="black" d="M260.5,-948C260.5,-948 153.5,-948 153.5,-948 147.5,-948 141.5,-942 141.5,-936 141.5,-936 141.5,-924 141.5,-924 141.5,-918 147.5,-912 153.5,-912 153.5,-912 260.5,-912 260.5,-912 266.5,-912 272.5,-918 272.5,-924 272.5,-924 272.5,-936 272.5,-936 272.5,-942 266.5,-948 260.5,-948"/>
<text text-anchor="middle" x="207" y="-926.3" font-family="Times,serif" font-size="14.00">检查缓存是否命中</text>
</g>
<!-- process_file_inputs&#45;&gt;check_cache -->
<g id="edge10" class="edge">
<title>process_file_inputs&#45;&gt;check_cache</title>
<path fill="none" stroke="black" d="M207.76,-984.81C207.64,-976.79 207.51,-967.05 207.38,-958.07"/>
<polygon fill="black" stroke="black" points="210.88,-957.98 207.24,-948.03 203.88,-958.08 210.88,-957.98"/>
</g>
<!-- cache_hit -->
<g id="node11" class="node">
<title>cache_hit</title>
<path fill="none" stroke="black" d="M62,-807C62,-807 12,-807 12,-807 6,-807 0,-801 0,-795 0,-795 0,-783 0,-783 0,-777 6,-771 12,-771 12,-771 62,-771 62,-771 68,-771 74,-777 74,-783 74,-783 74,-795 74,-795 74,-801 68,-807 62,-807"/>
<text text-anchor="middle" x="37" y="-785.3" font-family="Times,serif" font-size="14.00">缓存命中</text>
</g>
<!-- check_cache&#45;&gt;cache_hit -->
<g id="edge11" class="edge">
<title>check_cache&#45;&gt;cache_hit</title>
<path fill="none" stroke="black" d="M141.41,-914.47C127.83,-909.47 114.24,-902.82 103,-894 77.08,-873.68 58.46,-840.17 47.74,-816.7"/>
<polygon fill="black" stroke="black" points="50.85,-815.07 43.63,-807.32 44.44,-817.88 50.85,-815.07"/>
<text text-anchor="middle" x="153" y="-882.8" font-family="Times,serif" font-size="14.00">命中且无副作用</text>
</g>
<!-- cache_miss -->
<g id="node13" class="node">
<title>cache_miss</title>
<path fill="none" stroke="black" d="M239,-861C239,-861 175,-861 175,-861 169,-861 163,-855 163,-849 163,-849 163,-837 163,-837 163,-831 169,-825 175,-825 175,-825 239,-825 239,-825 245,-825 251,-831 251,-837 251,-837 251,-849 251,-849 251,-855 245,-861 239,-861"/>
<text text-anchor="middle" x="207" y="-839.3" font-family="Times,serif" font-size="14.00">缓存未命中</text>
</g>
<!-- check_cache&#45;&gt;cache_miss -->
<g id="edge14" class="edge">
<title>check_cache&#45;&gt;cache_miss</title>
<path fill="none" stroke="black" d="M207,-911.8C207,-900.16 207,-884.55 207,-871.24"/>
<polygon fill="black" stroke="black" points="210.5,-871.18 207,-861.18 203.5,-871.18 210.5,-871.18"/>
<text text-anchor="middle" x="264.5" y="-882.8" font-family="Times,serif" font-size="14.00">未命中或有副作用</text>
</g>
<!-- populate_cache_paths -->
<g id="node12" class="node">
<title>populate_cache_paths</title>
<path fill="none" stroke="black" d="M105,-125C105,-125 27,-125 27,-125 21,-125 15,-119 15,-113 15,-113 15,-99 15,-99 15,-93 21,-87 27,-87 27,-87 105,-87 105,-87 111,-87 117,-93 117,-99 117,-99 117,-113 117,-113 117,-119 111,-125 105,-125"/>
<text text-anchor="middle" x="66" y="-109.8" font-family="Times,serif" font-size="14.00">填充生成路径</text>
<text text-anchor="middle" x="66" y="-94.8" font-family="Times,serif" font-size="14.00">标记结果缓存</text>
</g>
<!-- cache_hit&#45;&gt;populate_cache_paths -->
<g id="edge12" class="edge">
<title>cache_hit&#45;&gt;populate_cache_paths</title>
<path fill="none" stroke="black" d="M30.78,-770.86C24.91,-753.13 17,-724.5 17,-699 17,-699 17,-699 17,-193 17,-170.76 29.53,-149.02 41.91,-132.97"/>
<polygon fill="black" stroke="black" points="44.71,-135.08 48.31,-125.12 39.28,-130.66 44.71,-135.08"/>
</g>
<!-- end -->
<g id="node23" class="node">
<title>end</title>
<path fill="none" stroke="black" d="M81,-36C81,-36 51,-36 51,-36 45,-36 39,-30 39,-24 39,-24 39,-12 39,-12 39,-6 45,0 51,0 51,0 81,0 81,0 87,0 93,-6 93,-12 93,-12 93,-24 93,-24 93,-30 87,-36 81,-36"/>
<text text-anchor="middle" x="66" y="-14.3" font-family="Times,serif" font-size="14.00">结束</text>
</g>
<!-- populate_cache_paths&#45;&gt;end -->
<g id="edge13" class="edge">
<title>populate_cache_paths&#45;&gt;end</title>
<path fill="none" stroke="black" d="M60.36,-86.76C59.16,-74.93 58.93,-59.32 59.68,-46.05"/>
<polygon fill="black" stroke="black" points="63.17,-46.29 60.49,-36.04 56.2,-45.73 63.17,-46.29"/>
</g>
<!-- populate_cache_paths&#45;&gt;end -->
<g id="edge26" class="edge">
<title>populate_cache_paths&#45;&gt;end</title>
<path fill="none" stroke="black" d="M71.64,-86.76C72.84,-74.93 73.07,-59.32 72.32,-46.05"/>
<polygon fill="black" stroke="black" points="75.8,-45.73 71.51,-36.04 68.83,-46.29 75.8,-45.73"/>
</g>
<!-- determine_output_paths -->
<g id="node14" class="node">
<title>determine_output_paths</title>
<path fill="none" stroke="black" d="M246,-753C246,-753 168,-753 168,-753 162,-753 156,-747 156,-741 156,-741 156,-729 156,-729 156,-723 162,-717 168,-717 168,-717 246,-717 246,-717 252,-717 258,-723 258,-729 258,-729 258,-741 258,-741 258,-747 252,-753 246,-753"/>
<text text-anchor="middle" x="207" y="-731.3" font-family="Times,serif" font-size="14.00">确定输出路径</text>
</g>
<!-- cache_miss&#45;&gt;determine_output_paths -->
<g id="edge15" class="edge">
<title>cache_miss&#45;&gt;determine_output_paths</title>
<path fill="none" stroke="black" d="M207,-824.97C207,-808.38 207,-782.88 207,-763.43"/>
<polygon fill="black" stroke="black" points="210.5,-763.34 207,-753.34 203.5,-763.34 210.5,-763.34"/>
</g>
<!-- has_side_effects -->
<g id="node15" class="node">
<title>has_side_effects</title>
<path fill="none" stroke="black" d="M253,-680C253,-680 161,-680 161,-680 155,-680 149,-674 149,-668 149,-668 149,-656 149,-656 149,-650 155,-644 161,-644 161,-644 253,-644 253,-644 259,-644 265,-650 265,-656 265,-656 265,-668 265,-668 265,-674 259,-680 253,-680"/>
<text text-anchor="middle" x="207" y="-658.3" font-family="Times,serif" font-size="14.00">是否有副作用？</text>
</g>
<!-- determine_output_paths&#45;&gt;has_side_effects -->
<g id="edge16" class="edge">
<title>determine_output_paths&#45;&gt;has_side_effects</title>
<path fill="none" stroke="black" d="M207,-716.81C207,-708.79 207,-699.05 207,-690.07"/>
<polygon fill="black" stroke="black" points="210.5,-690.03 207,-680.03 203.5,-690.03 210.5,-690.03"/>
</g>
<!-- use_temp_dir -->
<g id="node16" class="node">
<title>use_temp_dir</title>
<path fill="none" stroke="black" d="M313,-593C313,-593 221,-593 221,-593 215,-593 209,-587 209,-581 209,-581 209,-567 209,-567 209,-561 215,-555 221,-555 221,-555 313,-555 313,-555 319,-555 325,-561 325,-567 325,-567 325,-581 325,-581 325,-587 319,-593 313,-593"/>
<text text-anchor="middle" x="267" y="-577.8" font-family="Times,serif" font-size="14.00">使用临时目录</text>
<text text-anchor="middle" x="267" y="-562.8" font-family="Times,serif" font-size="14.00">处理输出占位符</text>
</g>
<!-- has_side_effects&#45;&gt;use_temp_dir -->
<g id="edge17" class="edge">
<title>has_side_effects&#45;&gt;use_temp_dir</title>
<path fill="none" stroke="black" d="M219.14,-643.6C227.51,-631.6 238.8,-615.42 248.31,-601.79"/>
<polygon fill="black" stroke="black" points="251.4,-603.47 254.25,-593.27 245.66,-599.47 251.4,-603.47"/>
<text text-anchor="middle" x="248.5" y="-614.8" font-family="Times,serif" font-size="14.00">是</text>
</g>
<!-- run_command -->
<g id="node17" class="node">
<title>run_command</title>
<path fill="none" stroke="black" d="M201,-518C201,-518 151,-518 151,-518 145,-518 139,-512 139,-506 139,-506 139,-494 139,-494 139,-488 145,-482 151,-482 151,-482 201,-482 201,-482 207,-482 213,-488 213,-494 213,-494 213,-506 213,-506 213,-512 207,-518 201,-518"/>
<text text-anchor="middle" x="176" y="-496.3" font-family="Times,serif" font-size="14.00">执行命令</text>
</g>
<!-- has_side_effects&#45;&gt;run_command -->
<g id="edge23" class="edge">
<title>has_side_effects&#45;&gt;run_command</title>
<path fill="none" stroke="black" d="M200.35,-643.95C195.33,-630.36 188.69,-610.74 185,-593 180.52,-571.46 178.25,-546.61 177.12,-528.17"/>
<polygon fill="black" stroke="black" points="180.61,-527.92 176.57,-518.12 173.62,-528.3 180.61,-527.92"/>
<text text-anchor="middle" x="192.5" y="-570.3" font-family="Times,serif" font-size="14.00">否</text>
</g>
<!-- use_temp_dir&#45;&gt;run_command -->
<g id="edge18" class="edge">
<title>use_temp_dir&#45;&gt;run_command</title>
<path fill="none" stroke="black" d="M244.04,-554.83C232.38,-545.6 218.07,-534.29 205.59,-524.41"/>
<polygon fill="black" stroke="black" points="207.72,-521.63 197.7,-518.17 203.37,-527.12 207.72,-521.63"/>
</g>
<!-- use_temp_dir&#45;&gt;error_handling -->
<g id="edge29" class="edge">
<title>use_temp_dir&#45;&gt;error_handling</title>
<path fill="none" stroke="black" d="M325.14,-566.76C394.45,-557.66 501,-537.71 501,-501 501,-501 501,-501 501,-193 501,-149.09 364.8,-123.59 290.32,-112.92"/>
<polygon fill="black" stroke="black" points="290.63,-109.43 280.24,-111.52 289.66,-116.37 290.63,-109.43"/>
<text text-anchor="middle" x="544" y="-350.3" font-family="Times,serif" font-size="14.00">创建目录失败</text>
</g>
<!-- handle_dep_files -->
<g id="node18" class="node">
<title>handle_dep_files</title>
<path fill="none" stroke="black" d="M284,-445C284,-445 206,-445 206,-445 200,-445 194,-439 194,-433 194,-433 194,-421 194,-421 194,-415 200,-409 206,-409 206,-409 284,-409 284,-409 290,-409 296,-415 296,-421 296,-421 296,-433 296,-433 296,-439 290,-445 284,-445"/>
<text text-anchor="middle" x="245" y="-423.3" font-family="Times,serif" font-size="14.00">处理依赖文件</text>
</g>
<!-- run_command&#45;&gt;handle_dep_files -->
<g id="edge19" class="edge">
<title>run_command&#45;&gt;handle_dep_files</title>
<path fill="none" stroke="black" d="M192.7,-481.81C201.26,-473 211.84,-462.13 221.23,-452.46"/>
<polygon fill="black" stroke="black" points="223.99,-454.64 228.45,-445.03 218.97,-449.76 223.99,-454.64"/>
</g>
<!-- write_manifest -->
<g id="node21" class="node">
<title>write_manifest</title>
<path fill="none" stroke="black" d="M149,-212C149,-212 57,-212 57,-212 51,-212 45,-206 45,-200 45,-200 45,-188 45,-188 45,-182 51,-176 57,-176 57,-176 149,-176 149,-176 155,-176 161,-182 161,-188 161,-188 161,-200 161,-200 161,-206 155,-212 149,-212"/>
<text text-anchor="middle" x="103" y="-190.3" font-family="Times,serif" font-size="14.00">写入清单和监控</text>
</g>
<!-- run_command&#45;&gt;write_manifest -->
<g id="edge24" class="edge">
<title>run_command&#45;&gt;write_manifest</title>
<path fill="none" stroke="black" d="M138.83,-482.18C118.74,-470.29 98,-452.17 98,-428 98,-428 98,-428 98,-266 98,-251.62 99.03,-235.63 100.16,-222.48"/>
<polygon fill="black" stroke="black" points="103.68,-222.47 101.11,-212.19 96.71,-221.83 103.68,-222.47"/>
</g>
<!-- run_command&#45;&gt;error_handling -->
<g id="edge32" class="edge">
<title>run_command&#45;&gt;error_handling</title>
<path fill="none" stroke="black" d="M159.73,-481.82C148.66,-468.29 136,-448.37 136,-428 136,-428 136,-428 136,-309.5 136,-281.45 142.45,-274.56 154,-249 173.57,-205.7 204.4,-159.85 224.15,-132.33"/>
<polygon fill="black" stroke="black" points="227.11,-134.22 230.14,-124.07 221.44,-130.11 227.11,-134.22"/>
<text text-anchor="middle" x="179" y="-306.8" font-family="Times,serif" font-size="14.00">执行命令失败</text>
</g>
<!-- finalize_digest -->
<g id="node19" class="node">
<title>finalize_digest</title>
<path fill="none" stroke="black" d="M284,-372C284,-372 206,-372 206,-372 200,-372 194,-366 194,-360 194,-360 194,-348 194,-348 194,-342 200,-336 206,-336 206,-336 284,-336 284,-336 290,-336 296,-342 296,-348 296,-348 296,-360 296,-360 296,-366 290,-372 284,-372"/>
<text text-anchor="middle" x="245" y="-350.3" font-family="Times,serif" font-size="14.00">生成最终摘要</text>
</g>
<!-- handle_dep_files&#45;&gt;finalize_digest -->
<g id="edge20" class="edge">
<title>handle_dep_files&#45;&gt;finalize_digest</title>
<path fill="none" stroke="black" d="M245,-408.81C245,-400.79 245,-391.05 245,-382.07"/>
<polygon fill="black" stroke="black" points="248.5,-382.03 245,-372.03 241.5,-382.03 248.5,-382.03"/>
</g>
<!-- handle_dep_files&#45;&gt;error_handling -->
<g id="edge31" class="edge">
<title>handle_dep_files&#45;&gt;error_handling</title>
<path fill="none" stroke="black" d="M296.21,-414.59C326.11,-404.58 358,-386.51 358,-355 358,-355 358,-355 358,-193 358,-157.08 321.57,-134.35 289.71,-121.34"/>
<polygon fill="black" stroke="black" points="290.61,-117.93 280.02,-117.61 288.1,-124.47 290.61,-117.93"/>
<text text-anchor="middle" x="415.5" y="-263.3" font-family="Times,serif" font-size="14.00">依赖文件处理失败</text>
</g>
<!-- rename_temp_dir -->
<g id="node20" class="node">
<title>rename_temp_dir</title>
<path fill="none" stroke="black" d="M310.5,-285C310.5,-285 175.5,-285 175.5,-285 169.5,-285 163.5,-279 163.5,-273 163.5,-273 163.5,-261 163.5,-261 163.5,-255 169.5,-249 175.5,-249 175.5,-249 310.5,-249 310.5,-249 316.5,-249 322.5,-255 322.5,-261 322.5,-261 322.5,-273 322.5,-273 322.5,-279 316.5,-285 310.5,-285"/>
<text text-anchor="middle" x="243" y="-263.3" font-family="Times,serif" font-size="14.00">重命名临时目录到缓存</text>
</g>
<!-- finalize_digest&#45;&gt;rename_temp_dir -->
<g id="edge21" class="edge">
<title>finalize_digest&#45;&gt;rename_temp_dir</title>
<path fill="none" stroke="black" d="M244.6,-335.8C244.32,-324.16 243.95,-308.55 243.64,-295.24"/>
<polygon fill="black" stroke="black" points="247.14,-295.09 243.4,-285.18 240.14,-295.26 247.14,-295.09"/>
<text text-anchor="middle" x="281" y="-306.8" font-family="Times,serif" font-size="14.00">需要重命名</text>
</g>
<!-- rename_temp_dir&#45;&gt;write_manifest -->
<g id="edge22" class="edge">
<title>rename_temp_dir&#45;&gt;write_manifest</title>
<path fill="none" stroke="black" d="M209.47,-248.99C190.39,-239.32 166.29,-227.1 145.85,-216.73"/>
<polygon fill="black" stroke="black" points="147.25,-213.52 136.75,-212.11 144.08,-219.76 147.25,-213.52"/>
</g>
<!-- rename_temp_dir&#45;&gt;error_handling -->
<g id="edge30" class="edge">
<title>rename_temp_dir&#45;&gt;error_handling</title>
<path fill="none" stroke="black" d="M243,-248.98C243,-221.63 243,-167.63 243,-134.67"/>
<polygon fill="black" stroke="black" points="246.5,-134.38 243,-124.38 239.5,-134.38 246.5,-134.38"/>
<text text-anchor="middle" x="279" y="-190.3" font-family="Times,serif" font-size="14.00">重命名失败</text>
</g>
<!-- write_manifest&#45;&gt;populate_cache_paths -->
<g id="edge25" class="edge">
<title>write_manifest&#45;&gt;populate_cache_paths</title>
<path fill="none" stroke="black" d="M90.17,-175.82C86.5,-170.33 82.76,-164.1 80,-158 76.78,-150.87 74.15,-142.83 72.07,-135.28"/>
<polygon fill="black" stroke="black" points="75.42,-134.26 69.59,-125.42 68.64,-135.97 75.42,-134.26"/>
</g>
<!-- write_manifest&#45;&gt;error_handling -->
<g id="edge33" class="edge">
<title>write_manifest&#45;&gt;error_handling</title>
<path fill="none" stroke="black" d="M96.6,-175.54C93.96,-165.06 92.94,-152.05 100,-143 111.8,-127.87 158.81,-118.11 195.75,-112.63"/>
<polygon fill="black" stroke="black" points="196.46,-116.06 205.87,-111.19 195.48,-109.13 196.46,-116.06"/>
<text text-anchor="middle" x="143" y="-146.8" font-family="Times,serif" font-size="14.00">写入清单失败</text>
</g>
<!-- error_handling&#45;&gt;end -->
<g id="edge27" class="edge">
<title>error_handling&#45;&gt;end</title>
<path fill="none" stroke="black" d="M207.61,-87.8C177.07,-72.97 133.15,-51.63 102.34,-36.66"/>
<polygon fill="black" stroke="black" points="103.75,-33.45 93.23,-32.23 100.69,-39.75 103.75,-33.45"/>
<text text-anchor="middle" x="195" y="-57.8" font-family="Times,serif" font-size="14.00">返回错误</text>
</g>
</g>
</svg>
