<?xml version="1.0" encoding="UTF-8" standalone="no"?>
<!DOCTYPE svg PUBLIC "-//W3C//DTD SVG 1.1//EN"
 "http://www.w3.org/Graphics/SVG/1.1/DTD/svg11.dtd">
<!-- Generated by graphviz version 2.43.0 (0)
 -->
<!-- Title: flowchart Pages: 1 -->
<svg width="1295pt" height="1113pt"
 viewBox="0.00 0.00 1294.66 1113.05" xmlns="http://www.w3.org/2000/svg" xmlns:xlink="http://www.w3.org/1999/xlink">
<g id="graph0" class="graph" transform="scale(1 1) rotate(0) translate(4 1109.05)">
<title>flowchart</title>
<polygon fill="white" stroke="transparent" points="-4,4 -4,-1109.05 1290.66,-1109.05 1290.66,4 -4,4"/>
<!-- start -->
<g id="node1" class="node">
<title>start</title>
<ellipse fill="none" stroke="black" cx="356.41" cy="-1087.05" rx="77.19" ry="18"/>
<text text-anchor="middle" x="356.41" y="-1083.35" font-family="Helvetica,sans-Serif" font-size="14.00">开始 make 函数</text>
</g>
<!-- init_vars -->
<g id="node2" class="node">
<title>init_vars</title>
<path fill="none" stroke="black" d="M416.91,-1032.05C416.91,-1032.05 295.91,-1032.05 295.91,-1032.05 289.91,-1032.05 283.91,-1026.05 283.91,-1020.05 283.91,-1020.05 283.91,-1006.05 283.91,-1006.05 283.91,-1000.05 289.91,-994.05 295.91,-994.05 295.91,-994.05 416.91,-994.05 416.91,-994.05 422.91,-994.05 428.91,-1000.05 428.91,-1006.05 428.91,-1006.05 428.91,-1020.05 428.91,-1020.05 428.91,-1026.05 422.91,-1032.05 416.91,-1032.05"/>
<text text-anchor="middle" x="356.41" y="-1016.85" font-family="Helvetica,sans-Serif" font-size="14.00">初始化变量：</text>
<text text-anchor="middle" x="356.41" y="-1001.85" font-family="Helvetica,sans-Serif" font-size="14.00">b, arena, write_file</text>
</g>
<!-- start&#45;&gt;init_vars -->
<g id="edge1" class="edge">
<title>start&#45;&gt;init_vars</title>
<path fill="none" stroke="black" d="M356.41,-1068.99C356.41,-1061.04 356.41,-1051.37 356.41,-1042.37"/>
<polygon fill="black" stroke="black" points="359.91,-1042.25 356.41,-1032.25 352.91,-1042.25 359.91,-1042.25"/>
</g>
<!-- clear_watch -->
<g id="node3" class="node">
<title>clear_watch</title>
<path fill="none" stroke="black" d="M395.41,-957.05C395.41,-957.05 317.41,-957.05 317.41,-957.05 311.41,-957.05 305.41,-951.05 305.41,-945.05 305.41,-945.05 305.41,-933.05 305.41,-933.05 305.41,-927.05 311.41,-921.05 317.41,-921.05 317.41,-921.05 395.41,-921.05 395.41,-921.05 401.41,-921.05 407.41,-927.05 407.41,-933.05 407.41,-933.05 407.41,-945.05 407.41,-945.05 407.41,-951.05 401.41,-957.05 395.41,-957.05"/>
<text text-anchor="middle" x="356.41" y="-935.35" font-family="Helvetica,sans-Serif" font-size="14.00">清除监视输入</text>
</g>
<!-- init_vars&#45;&gt;clear_watch -->
<g id="edge2" class="edge">
<title>init_vars&#45;&gt;clear_watch</title>
<path fill="none" stroke="black" d="M356.41,-993.89C356.41,-985.95 356.41,-976.46 356.41,-967.68"/>
<polygon fill="black" stroke="black" points="359.91,-967.47 356.41,-957.47 352.91,-967.47 359.91,-967.47"/>
</g>
<!-- init_cache -->
<g id="node4" class="node">
<title>init_cache</title>
<path fill="none" stroke="black" d="M426.41,-884.05C426.41,-884.05 286.41,-884.05 286.41,-884.05 280.41,-884.05 274.41,-878.05 274.41,-872.05 274.41,-872.05 274.41,-860.05 274.41,-860.05 274.41,-854.05 280.41,-848.05 286.41,-848.05 286.41,-848.05 426.41,-848.05 426.41,-848.05 432.41,-848.05 438.41,-854.05 438.41,-860.05 438.41,-860.05 438.41,-872.05 438.41,-872.05 438.41,-878.05 432.41,-884.05 426.41,-884.05"/>
<text text-anchor="middle" x="356.41" y="-862.35" font-family="Helvetica,sans-Serif" font-size="14.00">初始化缓存管理器 man</text>
</g>
<!-- clear_watch&#45;&gt;init_cache -->
<g id="edge3" class="edge">
<title>clear_watch&#45;&gt;init_cache</title>
<path fill="none" stroke="black" d="M356.41,-920.87C356.41,-912.84 356.41,-903.1 356.41,-894.12"/>
<polygon fill="black" stroke="black" points="359.91,-894.08 356.41,-884.08 352.91,-894.08 359.91,-894.08"/>
</g>
<!-- process_files -->
<g id="node5" class="node">
<title>process_files</title>
<path fill="none" stroke="black" d="M395.41,-811.05C395.41,-811.05 317.41,-811.05 317.41,-811.05 311.41,-811.05 305.41,-805.05 305.41,-799.05 305.41,-799.05 305.41,-787.05 305.41,-787.05 305.41,-781.05 311.41,-775.05 317.41,-775.05 317.41,-775.05 395.41,-775.05 395.41,-775.05 401.41,-775.05 407.41,-781.05 407.41,-787.05 407.41,-787.05 407.41,-799.05 407.41,-799.05 407.41,-805.05 401.41,-811.05 395.41,-811.05"/>
<text text-anchor="middle" x="356.41" y="-789.35" font-family="Helvetica,sans-Serif" font-size="14.00">遍历所有文件</text>
</g>
<!-- init_cache&#45;&gt;process_files -->
<g id="edge4" class="edge">
<title>init_cache&#45;&gt;process_files</title>
<path fill="none" stroke="black" d="M356.41,-847.87C356.41,-839.84 356.41,-830.1 356.41,-821.12"/>
<polygon fill="black" stroke="black" points="359.91,-821.08 356.41,-811.08 352.91,-821.08 359.91,-821.08"/>
</g>
<!-- hash_bytes -->
<g id="node6" class="node">
<title>hash_bytes</title>
<path fill="none" stroke="black" d="M108.54,-702.28C108.54,-702.28 11.96,-687.83 11.96,-687.83 6.02,-686.94 6.02,-685.17 11.96,-684.28 11.96,-684.28 108.54,-669.83 108.54,-669.83 114.48,-668.94 126.34,-668.94 132.28,-669.83 132.28,-669.83 228.86,-684.28 228.86,-684.28 234.79,-685.17 234.79,-686.94 228.86,-687.83 228.86,-687.83 132.28,-702.28 132.28,-702.28 126.34,-703.17 114.48,-703.17 108.54,-702.28"/>
<text text-anchor="middle" x="120.41" y="-682.35" font-family="Helvetica,sans-Serif" font-size="14.00">哈希处理字节内容</text>
</g>
<!-- process_files&#45;&gt;hash_bytes -->
<g id="edge5" class="edge">
<title>process_files&#45;&gt;hash_bytes</title>
<path fill="none" stroke="black" d="M305.36,-777.43C287.41,-771.75 267.27,-764.75 249.41,-757.05 215.02,-742.24 177.6,-721.37 151.97,-706.27"/>
<polygon fill="black" stroke="black" points="153.47,-703.1 143.08,-701 149.89,-709.11 153.47,-703.1"/>
<text text-anchor="middle" x="305.91" y="-745.85" font-family="Helvetica,sans-Serif" font-size="14.00">文件内容为 bytes</text>
</g>
<!-- hash_copy -->
<g id="node7" class="node">
<title>hash_copy</title>
<path fill="none" stroke="black" d="M377.88,-720.71C377.88,-720.71 269.93,-689.4 269.93,-689.4 264.17,-687.73 264.17,-684.38 269.93,-682.71 269.93,-682.71 377.88,-651.4 377.88,-651.4 383.65,-649.73 395.17,-649.73 400.93,-651.4 400.93,-651.4 508.88,-682.71 508.88,-682.71 514.65,-684.38 514.65,-687.73 508.88,-689.4 508.88,-689.4 400.93,-720.71 400.93,-720.71 395.17,-722.38 383.65,-722.38 377.88,-720.71"/>
<text text-anchor="middle" x="389.41" y="-689.85" font-family="Helvetica,sans-Serif" font-size="14.00">哈希处理复制路径</text>
<text text-anchor="middle" x="389.41" y="-674.85" font-family="Helvetica,sans-Serif" font-size="14.00">并添加监视输入</text>
</g>
<!-- process_files&#45;&gt;hash_copy -->
<g id="edge6" class="edge">
<title>process_files&#45;&gt;hash_copy</title>
<path fill="none" stroke="black" d="M361.86,-774.72C365.61,-762.77 370.78,-746.33 375.63,-730.91"/>
<polygon fill="black" stroke="black" points="379.09,-731.57 378.75,-720.99 372.41,-729.48 379.09,-731.57"/>
<text text-anchor="middle" x="426.41" y="-745.85" font-family="Helvetica,sans-Serif" font-size="14.00">文件内容为 copy</text>
</g>
<!-- process_dirs -->
<g id="node8" class="node">
<title>process_dirs</title>
<path fill="none" stroke="black" d="M628.41,-704.05C628.41,-704.05 550.41,-704.05 550.41,-704.05 544.41,-704.05 538.41,-698.05 538.41,-692.05 538.41,-692.05 538.41,-680.05 538.41,-680.05 538.41,-674.05 544.41,-668.05 550.41,-668.05 550.41,-668.05 628.41,-668.05 628.41,-668.05 634.41,-668.05 640.41,-674.05 640.41,-680.05 640.41,-680.05 640.41,-692.05 640.41,-692.05 640.41,-698.05 634.41,-704.05 628.41,-704.05"/>
<text text-anchor="middle" x="589.41" y="-682.35" font-family="Helvetica,sans-Serif" font-size="14.00">遍历所有目录</text>
</g>
<!-- process_files&#45;&gt;process_dirs -->
<g id="edge9" class="edge">
<title>process_files&#45;&gt;process_dirs</title>
<path fill="none" stroke="black" d="M407.56,-782.04C431.53,-776.36 460.09,-768.13 484.41,-757.05 511.62,-744.66 539.67,-725.58 559.92,-710.47"/>
<polygon fill="black" stroke="black" points="562.25,-713.1 568.1,-704.27 558.02,-707.52 562.25,-713.1"/>
<text text-anchor="middle" x="555.41" y="-745.85" font-family="Helvetica,sans-Serif" font-size="14.00">文件处理完成</text>
</g>
<!-- hash_bytes&#45;&gt;process_files -->
<g id="edge7" class="edge">
<title>hash_bytes&#45;&gt;process_files</title>
<path fill="none" stroke="black" d="M136.49,-701.83C154.61,-717.72 185.58,-742.63 216.41,-757.05 241.15,-768.63 270.21,-776.69 295.43,-782.13"/>
<polygon fill="black" stroke="black" points="294.74,-785.57 305.24,-784.17 296.16,-778.71 294.74,-785.57"/>
</g>
<!-- hash_copy&#45;&gt;process_files -->
<g id="edge8" class="edge">
<title>hash_copy&#45;&gt;process_files</title>
<path fill="none" stroke="black" d="M377.43,-720.69C375.03,-727.72 372.58,-735.11 370.41,-742.05 368.08,-749.51 365.73,-757.64 363.63,-765.14"/>
<polygon fill="black" stroke="black" points="360.23,-764.28 360.95,-774.85 366.98,-766.14 360.23,-764.28"/>
</g>
<!-- open_dir -->
<g id="node9" class="node">
<title>open_dir</title>
<path fill="none" stroke="black" d="M651.91,-325.05C651.91,-325.05 526.91,-325.05 526.91,-325.05 520.91,-325.05 514.91,-319.05 514.91,-313.05 514.91,-313.05 514.91,-299.05 514.91,-299.05 514.91,-293.05 520.91,-287.05 526.91,-287.05 526.91,-287.05 651.91,-287.05 651.91,-287.05 657.91,-287.05 663.91,-293.05 663.91,-299.05 663.91,-299.05 663.91,-313.05 663.91,-313.05 663.91,-319.05 657.91,-325.05 651.91,-325.05"/>
<text text-anchor="middle" x="589.41" y="-309.85" font-family="Helvetica,sans-Serif" font-size="14.00">打开目录</text>
<text text-anchor="middle" x="589.41" y="-294.85" font-family="Helvetica,sans-Serif" font-size="14.00">处理包含/排除扩展名</text>
</g>
<!-- process_dirs&#45;&gt;open_dir -->
<g id="edge10" class="edge">
<title>process_dirs&#45;&gt;open_dir</title>
<path fill="none" stroke="black" d="M589.41,-667.95C589.41,-649.66 589.41,-619.81 589.41,-594.05 589.41,-594.05 589.41,-594.05 589.41,-393.05 589.41,-373.82 589.41,-352.18 589.41,-335.41"/>
<polygon fill="black" stroke="black" points="592.91,-335.17 589.41,-325.17 585.91,-335.17 592.91,-335.17"/>
</g>
<!-- check_cache -->
<g id="node14" class="node">
<title>check_cache</title>
<path fill="none" stroke="black" d="M961.54,-609.28C961.54,-609.28 864.96,-594.83 864.96,-594.83 859.02,-593.94 859.02,-592.17 864.96,-591.28 864.96,-591.28 961.54,-576.83 961.54,-576.83 967.48,-575.94 979.34,-575.94 985.28,-576.83 985.28,-576.83 1081.86,-591.28 1081.86,-591.28 1087.79,-592.17 1087.79,-593.94 1081.86,-594.83 1081.86,-594.83 985.28,-609.28 985.28,-609.28 979.34,-610.17 967.48,-610.17 961.54,-609.28"/>
<text text-anchor="middle" x="973.41" y="-589.35" font-family="Helvetica,sans-Serif" font-size="14.00">检查缓存是否命中</text>
</g>
<!-- process_dirs&#45;&gt;check_cache -->
<g id="edge19" class="edge">
<title>process_dirs&#45;&gt;check_cache</title>
<path fill="none" stroke="black" d="M640.8,-672.88C713.31,-655.69 845.05,-624.47 919.11,-606.92"/>
<polygon fill="black" stroke="black" points="920.24,-610.25 929.17,-604.54 918.63,-603.44 920.24,-610.25"/>
</g>
<!-- walk_dir -->
<g id="node10" class="node">
<title>walk_dir</title>
<path fill="none" stroke="black" d="M526.41,-236.05C526.41,-236.05 448.41,-236.05 448.41,-236.05 442.41,-236.05 436.41,-230.05 436.41,-224.05 436.41,-224.05 436.41,-212.05 436.41,-212.05 436.41,-206.05 442.41,-200.05 448.41,-200.05 448.41,-200.05 526.41,-200.05 526.41,-200.05 532.41,-200.05 538.41,-206.05 538.41,-212.05 538.41,-212.05 538.41,-224.05 538.41,-224.05 538.41,-230.05 532.41,-236.05 526.41,-236.05"/>
<text text-anchor="middle" x="487.41" y="-214.35" font-family="Helvetica,sans-Serif" font-size="14.00">遍历目录条目</text>
</g>
<!-- open_dir&#45;&gt;walk_dir -->
<g id="edge11" class="edge">
<title>open_dir&#45;&gt;walk_dir</title>
<path fill="none" stroke="black" d="M567.78,-286.82C552.5,-273.93 531.89,-256.56 515.36,-242.62"/>
<polygon fill="black" stroke="black" points="517.52,-239.87 507.62,-236.1 513.01,-245.22 517.52,-239.87"/>
</g>
<!-- error -->
<g id="node25" class="node">
<title>error</title>
<path fill="none" stroke="black" d="M885.86,-38.21C885.86,-38.21 863.55,-54.89 863.55,-54.89 858.75,-58.49 847.94,-62.08 841.94,-62.08 841.94,-62.08 782.88,-62.08 782.88,-62.08 776.88,-62.08 766.07,-58.49 761.27,-54.89 761.27,-54.89 738.95,-38.21 738.95,-38.21 734.15,-34.62 734.15,-27.43 738.95,-23.84 738.95,-23.84 761.27,-7.16 761.27,-7.16 766.07,-3.57 776.88,0.03 782.88,0.03 782.88,0.03 841.94,0.03 841.94,0.03 847.94,0.03 858.75,-3.57 863.55,-7.16 863.55,-7.16 885.86,-23.84 885.86,-23.84 890.67,-27.43 890.67,-34.62 885.86,-38.21"/>
<text text-anchor="middle" x="812.41" y="-34.83" font-family="Helvetica,sans-Serif" font-size="14.00">错误处理</text>
<text text-anchor="middle" x="812.41" y="-19.83" font-family="Helvetica,sans-Serif" font-size="14.00">记录失败信息</text>
</g>
<!-- open_dir&#45;&gt;error -->
<g id="edge35" class="edge">
<title>open_dir&#45;&gt;error</title>
<path fill="none" stroke="black" d="M615.1,-287.04C651.5,-260.42 718.34,-207.4 760.41,-149.05 777.44,-125.44 790.65,-95.36 799.5,-71.61"/>
<polygon fill="black" stroke="black" points="802.8,-72.78 802.9,-62.19 796.21,-70.4 802.8,-72.78"/>
<text text-anchor="middle" x="774.41" y="-170.85" font-family="Helvetica,sans-Serif" font-size="14.00">打开失败</text>
</g>
<!-- walk_dir&#45;&gt;process_dirs -->
<g id="edge18" class="edge">
<title>walk_dir&#45;&gt;process_dirs</title>
<path fill="none" stroke="black" d="M487.41,-236.19C487.41,-253.54 487.41,-281.16 487.41,-305.05 487.41,-594.05 487.41,-594.05 487.41,-594.05 487.41,-612.41 524.67,-641.82 554.15,-662.22"/>
<polygon fill="black" stroke="black" points="552.37,-665.24 562.61,-667.97 556.31,-659.45 552.37,-665.24"/>
<text text-anchor="middle" x="516.41" y="-445.35" font-family="Helvetica,sans-Serif" font-size="14.00">遍历完成</text>
</g>
<!-- check_entry -->
<g id="node11" class="node">
<title>check_entry</title>
<path fill="none" stroke="black" d="M494.5,-147.59C494.5,-147.59 372.03,-132.52 372.03,-132.52 366.07,-131.79 366.07,-130.32 372.03,-129.59 372.03,-129.59 494.5,-114.52 494.5,-114.52 500.45,-113.79 512.36,-113.79 518.32,-114.52 518.32,-114.52 640.79,-129.59 640.79,-129.59 646.75,-130.32 646.75,-131.79 640.79,-132.52 640.79,-132.52 518.32,-147.59 518.32,-147.59 512.36,-148.32 500.45,-148.32 494.5,-147.59"/>
<text text-anchor="middle" x="506.41" y="-127.35" font-family="Helvetica,sans-Serif" font-size="14.00">检查条目是否符合条件</text>
</g>
<!-- walk_dir&#45;&gt;check_entry -->
<g id="edge12" class="edge">
<title>walk_dir&#45;&gt;check_entry</title>
<path fill="none" stroke="black" d="M486.37,-199.68C486.22,-189.95 486.74,-177.67 489.41,-167.05 490.23,-163.78 491.38,-160.45 492.7,-157.21"/>
<polygon fill="black" stroke="black" points="495.98,-158.45 497,-147.91 489.63,-155.51 495.98,-158.45"/>
</g>
<!-- walk_dir&#45;&gt;error -->
<g id="edge40" class="edge">
<title>walk_dir&#45;&gt;error</title>
<path fill="none" stroke="black" d="M538.7,-202.23C574.56,-190.65 622.76,-172.57 661.41,-149.05 682.13,-136.45 683.52,-128.26 702.41,-113.05 721.48,-97.7 743.06,-81.56 762.02,-67.75"/>
<polygon fill="black" stroke="black" points="764.2,-70.49 770.25,-61.79 760.1,-64.82 764.2,-70.49"/>
<text text-anchor="middle" x="731.41" y="-127.35" font-family="Helvetica,sans-Serif" font-size="14.00">遍历错误</text>
</g>
<!-- check_entry&#45;&gt;walk_dir -->
<g id="edge15" class="edge">
<title>check_entry&#45;&gt;walk_dir</title>
<path fill="none" stroke="black" d="M502.7,-148.65C500.07,-160.41 496.48,-176.46 493.45,-190.05"/>
<polygon fill="black" stroke="black" points="490.02,-189.33 491.25,-199.85 496.85,-190.86 490.02,-189.33"/>
<text text-anchor="middle" x="527.41" y="-170.85" font-family="Helvetica,sans-Serif" font-size="14.00">其他类型</text>
</g>
<!-- handle_dir -->
<g id="node12" class="node">
<title>handle_dir</title>
<path fill="none" stroke="black" d="M520.41,-50.03C520.41,-50.03 442.41,-50.03 442.41,-50.03 436.41,-50.03 430.41,-44.03 430.41,-38.03 430.41,-38.03 430.41,-24.03 430.41,-24.03 430.41,-18.03 436.41,-12.03 442.41,-12.03 442.41,-12.03 520.41,-12.03 520.41,-12.03 526.41,-12.03 532.41,-18.03 532.41,-24.03 532.41,-24.03 532.41,-38.03 532.41,-38.03 532.41,-44.03 526.41,-50.03 520.41,-50.03"/>
<text text-anchor="middle" x="481.41" y="-34.83" font-family="Helvetica,sans-Serif" font-size="14.00">处理目录</text>
<text text-anchor="middle" x="481.41" y="-19.83" font-family="Helvetica,sans-Serif" font-size="14.00">添加监视输入</text>
</g>
<!-- check_entry&#45;&gt;handle_dir -->
<g id="edge13" class="edge">
<title>check_entry&#45;&gt;handle_dir</title>
<path fill="none" stroke="black" d="M502.17,-113.42C498.45,-98.86 492.98,-77.39 488.58,-60.15"/>
<polygon fill="black" stroke="black" points="491.87,-58.89 486.01,-50.07 485.09,-60.62 491.87,-58.89"/>
<text text-anchor="middle" x="511.91" y="-83.85" font-family="Helvetica,sans-Serif" font-size="14.00">目录</text>
</g>
<!-- handle_file -->
<g id="node13" class="node">
<title>handle_file</title>
<path fill="none" stroke="black" d="M375.41,-50.03C375.41,-50.03 311.41,-50.03 311.41,-50.03 305.41,-50.03 299.41,-44.03 299.41,-38.03 299.41,-38.03 299.41,-24.03 299.41,-24.03 299.41,-18.03 305.41,-12.03 311.41,-12.03 311.41,-12.03 375.41,-12.03 375.41,-12.03 381.41,-12.03 387.41,-18.03 387.41,-24.03 387.41,-24.03 387.41,-38.03 387.41,-38.03 387.41,-44.03 381.41,-50.03 375.41,-50.03"/>
<text text-anchor="middle" x="343.41" y="-34.83" font-family="Helvetica,sans-Serif" font-size="14.00">处理文件</text>
<text text-anchor="middle" x="343.41" y="-19.83" font-family="Helvetica,sans-Serif" font-size="14.00">添加到哈希</text>
</g>
<!-- check_entry&#45;&gt;handle_file -->
<g id="edge14" class="edge">
<title>check_entry&#45;&gt;handle_file</title>
<path fill="none" stroke="black" d="M482.71,-115.8C456.43,-100 413.63,-74.26 382.4,-55.48"/>
<polygon fill="black" stroke="black" points="383.89,-52.29 373.52,-50.13 380.28,-58.29 383.89,-52.29"/>
<text text-anchor="middle" x="458.91" y="-83.85" font-family="Helvetica,sans-Serif" font-size="14.00">文件</text>
</g>
<!-- check_entry&#45;&gt;error -->
<g id="edge39" class="edge">
<title>check_entry&#45;&gt;error</title>
<path fill="none" stroke="black" d="M526.29,-115.29C542.31,-104.06 565.8,-89.07 588.41,-80.05 634.42,-61.71 688.68,-49.85 732.28,-42.5"/>
<polygon fill="black" stroke="black" points="732.96,-45.94 742.26,-40.86 731.83,-39.03 732.96,-45.94"/>
<text text-anchor="middle" x="631.41" y="-83.85" font-family="Helvetica,sans-Serif" font-size="14.00">路径检查失败</text>
</g>
<!-- handle_dir&#45;&gt;walk_dir -->
<g id="edge16" class="edge">
<title>handle_dir&#45;&gt;walk_dir</title>
<path fill="none" stroke="black" d="M432.96,-50.09C385.94,-70.58 325.23,-106.69 351.41,-149.05 367.92,-175.77 398.46,-192.34 426.42,-202.43"/>
<polygon fill="black" stroke="black" points="425.58,-205.84 436.18,-205.73 427.83,-199.21 425.58,-205.84"/>
</g>
<!-- handle_file&#45;&gt;walk_dir -->
<g id="edge17" class="edge">
<title>handle_file&#45;&gt;walk_dir</title>
<path fill="none" stroke="black" d="M338.83,-50.16C331.71,-83.19 322.72,-152.45 363.41,-182.05 381.68,-195.35 404.84,-203.6 426.18,-208.72"/>
<polygon fill="black" stroke="black" points="425.64,-212.18 436.16,-210.92 427.15,-205.35 425.64,-212.18"/>
</g>
<!-- cache_hit -->
<g id="node15" class="node">
<title>cache_hit</title>
<path fill="none" stroke="black" d="M1205.91,-468.05C1205.91,-468.05 1098.91,-468.05 1098.91,-468.05 1092.91,-468.05 1086.91,-462.05 1086.91,-456.05 1086.91,-456.05 1086.91,-442.05 1086.91,-442.05 1086.91,-436.05 1092.91,-430.05 1098.91,-430.05 1098.91,-430.05 1205.91,-430.05 1205.91,-430.05 1211.91,-430.05 1217.91,-436.05 1217.91,-442.05 1217.91,-442.05 1217.91,-456.05 1217.91,-456.05 1217.91,-462.05 1211.91,-468.05 1205.91,-468.05"/>
<text text-anchor="middle" x="1152.41" y="-452.85" font-family="Helvetica,sans-Serif" font-size="14.00">设置生成目录路径</text>
<text text-anchor="middle" x="1152.41" y="-437.85" font-family="Helvetica,sans-Serif" font-size="14.00">标记缓存命中</text>
</g>
<!-- check_cache&#45;&gt;cache_hit -->
<g id="edge20" class="edge">
<title>check_cache&#45;&gt;cache_hit</title>
<path fill="none" stroke="black" d="M992.75,-577.93C1001.29,-571.62 1011.41,-564.05 1020.41,-557.05 1056.08,-529.33 1096.32,-496.48 1122.89,-474.56"/>
<polygon fill="black" stroke="black" points="1125.2,-477.2 1130.68,-468.13 1120.74,-471.8 1125.2,-477.2"/>
<text text-anchor="middle" x="1052.91" y="-545.85" font-family="Helvetica,sans-Serif" font-size="14.00">命中</text>
</g>
<!-- cache_miss -->
<g id="node16" class="node">
<title>cache_miss</title>
<path fill="none" stroke="black" d="M1012.41,-524.05C1012.41,-524.05 934.41,-524.05 934.41,-524.05 928.41,-524.05 922.41,-518.05 922.41,-512.05 922.41,-512.05 922.41,-498.05 922.41,-498.05 922.41,-492.05 928.41,-486.05 934.41,-486.05 934.41,-486.05 1012.41,-486.05 1012.41,-486.05 1018.41,-486.05 1024.41,-492.05 1024.41,-498.05 1024.41,-498.05 1024.41,-512.05 1024.41,-512.05 1024.41,-518.05 1018.41,-524.05 1012.41,-524.05"/>
<text text-anchor="middle" x="973.41" y="-508.85" font-family="Helvetica,sans-Serif" font-size="14.00">生成缓存路径</text>
<text text-anchor="middle" x="973.41" y="-493.85" font-family="Helvetica,sans-Serif" font-size="14.00">创建缓存目录</text>
</g>
<!-- check_cache&#45;&gt;cache_miss -->
<g id="edge21" class="edge">
<title>check_cache&#45;&gt;cache_miss</title>
<path fill="none" stroke="black" d="M973.41,-574.65C973.41,-563.11 973.41,-547.7 973.41,-534.41"/>
<polygon fill="black" stroke="black" points="976.91,-534.32 973.41,-524.32 969.91,-534.32 976.91,-534.32"/>
<text text-anchor="middle" x="994.91" y="-545.85" font-family="Helvetica,sans-Serif" font-size="14.00">未命中</text>
</g>
<!-- end -->
<g id="node24" class="node">
<title>end</title>
<ellipse fill="none" stroke="black" cx="1257.41" cy="-131.05" rx="29.5" ry="18"/>
<text text-anchor="middle" x="1257.41" y="-127.35" font-family="Helvetica,sans-Serif" font-size="14.00">结束</text>
</g>
<!-- cache_hit&#45;&gt;end -->
<g id="edge22" class="edge">
<title>cache_hit&#45;&gt;end</title>
<path fill="none" stroke="black" d="M1190.4,-429.99C1218.32,-413.78 1251.41,-387.08 1251.41,-351.55 1251.41,-351.55 1251.41,-351.55 1251.41,-217.05 1251.41,-197.76 1252.97,-176.06 1254.5,-159.42"/>
<polygon fill="black" stroke="black" points="1258,-159.58 1255.48,-149.29 1251.03,-158.9 1258,-159.58"/>
</g>
<!-- write_files -->
<g id="node17" class="node">
<title>write_files</title>
<path fill="none" stroke="black" d="M1028.91,-412.05C1028.91,-412.05 917.91,-412.05 917.91,-412.05 911.91,-412.05 905.91,-406.05 905.91,-400.05 905.91,-400.05 905.91,-388.05 905.91,-388.05 905.91,-382.05 911.91,-376.05 917.91,-376.05 917.91,-376.05 1028.91,-376.05 1028.91,-376.05 1034.91,-376.05 1040.91,-382.05 1040.91,-388.05 1040.91,-388.05 1040.91,-400.05 1040.91,-400.05 1040.91,-406.05 1034.91,-412.05 1028.91,-412.05"/>
<text text-anchor="middle" x="973.41" y="-390.35" font-family="Helvetica,sans-Serif" font-size="14.00">处理文件写入/复制</text>
</g>
<!-- cache_miss&#45;&gt;write_files -->
<g id="edge23" class="edge">
<title>cache_miss&#45;&gt;write_files</title>
<path fill="none" stroke="black" d="M973.41,-485.56C973.41,-468.24 973.41,-442.14 973.41,-422.4"/>
<polygon fill="black" stroke="black" points="976.91,-422.2 973.41,-412.2 969.91,-422.2 976.91,-422.2"/>
</g>
<!-- write_bytes -->
<g id="node18" class="node">
<title>write_bytes</title>
<path fill="none" stroke="black" d="M994.63,-321.79C994.63,-321.79 924.68,-308.32 924.68,-308.32 918.79,-307.19 918.79,-304.92 924.68,-303.79 924.68,-303.79 994.63,-290.32 994.63,-290.32 1000.52,-289.19 1012.3,-289.19 1018.19,-290.32 1018.19,-290.32 1088.13,-303.79 1088.13,-303.79 1094.03,-304.92 1094.03,-307.19 1088.13,-308.32 1088.13,-308.32 1018.19,-321.79 1018.19,-321.79 1012.3,-322.92 1000.52,-322.92 994.63,-321.79"/>
<text text-anchor="middle" x="1006.41" y="-302.35" font-family="Helvetica,sans-Serif" font-size="14.00">写入字节内容</text>
</g>
<!-- write_files&#45;&gt;write_bytes -->
<g id="edge27" class="edge">
<title>write_files&#45;&gt;write_bytes</title>
<path fill="none" stroke="black" d="M980.09,-375.65C984.85,-363.25 991.32,-346.38 996.65,-332.48"/>
<polygon fill="black" stroke="black" points="999.98,-333.57 1000.3,-322.98 993.45,-331.06 999.98,-333.57"/>
<text text-anchor="middle" x="1027.41" y="-346.85" font-family="Helvetica,sans-Serif" font-size="14.00">bytes 类型</text>
</g>
<!-- copy_file -->
<g id="node19" class="node">
<title>copy_file</title>
<path fill="none" stroke="black" d="M776.58,-322.06C776.58,-322.06 693.5,-308.05 693.5,-308.05 687.58,-307.05 687.58,-305.06 693.5,-304.06 693.5,-304.06 776.58,-290.05 776.58,-290.05 782.49,-289.05 794.33,-289.05 800.24,-290.05 800.24,-290.05 883.32,-304.06 883.32,-304.06 889.24,-305.06 889.24,-307.05 883.32,-308.05 883.32,-308.05 800.24,-322.06 800.24,-322.06 794.33,-323.06 782.49,-323.06 776.58,-322.06"/>
<text text-anchor="middle" x="788.41" y="-302.35" font-family="Helvetica,sans-Serif" font-size="14.00">复制文件到缓存</text>
</g>
<!-- write_files&#45;&gt;copy_file -->
<g id="edge28" class="edge">
<title>write_files&#45;&gt;copy_file</title>
<path fill="none" stroke="black" d="M936.42,-375.86C903.88,-360.73 856.81,-338.85 824.54,-323.85"/>
<polygon fill="black" stroke="black" points="825.98,-320.66 815.44,-319.62 823.03,-327.01 825.98,-320.66"/>
<text text-anchor="middle" x="930.91" y="-346.85" font-family="Helvetica,sans-Serif" font-size="14.00">copy 类型</text>
</g>
<!-- copy_dirs -->
<g id="node20" class="node">
<title>copy_dirs</title>
<path fill="none" stroke="black" d="M1208.41,-324.05C1208.41,-324.05 1130.41,-324.05 1130.41,-324.05 1124.41,-324.05 1118.41,-318.05 1118.41,-312.05 1118.41,-312.05 1118.41,-300.05 1118.41,-300.05 1118.41,-294.05 1124.41,-288.05 1130.41,-288.05 1130.41,-288.05 1208.41,-288.05 1208.41,-288.05 1214.41,-288.05 1220.41,-294.05 1220.41,-300.05 1220.41,-300.05 1220.41,-312.05 1220.41,-312.05 1220.41,-318.05 1214.41,-324.05 1208.41,-324.05"/>
<text text-anchor="middle" x="1169.41" y="-302.35" font-family="Helvetica,sans-Serif" font-size="14.00">处理目录复制</text>
</g>
<!-- write_files&#45;&gt;copy_dirs -->
<g id="edge24" class="edge">
<title>write_files&#45;&gt;copy_dirs</title>
<path fill="none" stroke="black" d="M1022.11,-376.05C1036.8,-370.62 1052.88,-364.37 1067.41,-358.05 1087.76,-349.21 1109.84,-338.33 1128.23,-328.9"/>
<polygon fill="black" stroke="black" points="1129.94,-331.96 1137.22,-324.26 1126.72,-325.74 1129.94,-331.96"/>
</g>
<!-- write_bytes&#45;&gt;write_files -->
<g id="edge29" class="edge">
<title>write_bytes&#45;&gt;write_files</title>
<path fill="none" stroke="black" d="M997.34,-322.48C993.92,-328.73 990.18,-336.1 987.41,-343.05 984.52,-350.31 981.98,-358.38 979.89,-365.88"/>
<polygon fill="black" stroke="black" points="976.48,-365.07 977.32,-375.63 983.25,-366.85 976.48,-365.07"/>
</g>
<!-- write_bytes&#45;&gt;error -->
<g id="edge36" class="edge">
<title>write_bytes&#45;&gt;error</title>
<path fill="none" stroke="black" d="M995.7,-289.99C966.27,-248.56 883.42,-131.97 839.9,-70.72"/>
<polygon fill="black" stroke="black" points="842.68,-68.58 834.03,-62.46 836.97,-72.64 842.68,-68.58"/>
<text text-anchor="middle" x="946.41" y="-170.85" font-family="Helvetica,sans-Serif" font-size="14.00">写入失败</text>
</g>
<!-- copy_file&#45;&gt;write_files -->
<g id="edge30" class="edge">
<title>copy_file&#45;&gt;write_files</title>
<path fill="none" stroke="black" d="M806.55,-321.12C821.64,-332.31 844.03,-347.75 865.41,-358.05 876.69,-363.49 889.02,-368.38 901.18,-372.67"/>
<polygon fill="black" stroke="black" points="900.29,-376.06 910.88,-375.97 902.55,-369.44 900.29,-376.06"/>
</g>
<!-- copy_file&#45;&gt;error -->
<g id="edge37" class="edge">
<title>copy_file&#45;&gt;error</title>
<path fill="none" stroke="black" d="M795.9,-289.2C806.31,-266.2 824.63,-221.98 831.41,-182.05 837.71,-144.96 831,-102.39 823.88,-72.09"/>
<polygon fill="black" stroke="black" points="827.26,-71.18 821.46,-62.31 820.46,-72.86 827.26,-71.18"/>
<text text-anchor="middle" x="861.41" y="-170.85" font-family="Helvetica,sans-Serif" font-size="14.00">复制失败</text>
</g>
<!-- walk_cache_dir -->
<g id="node21" class="node">
<title>walk_cache_dir</title>
<path fill="none" stroke="black" d="M1199.41,-236.05C1199.41,-236.05 1121.41,-236.05 1121.41,-236.05 1115.41,-236.05 1109.41,-230.05 1109.41,-224.05 1109.41,-224.05 1109.41,-212.05 1109.41,-212.05 1109.41,-206.05 1115.41,-200.05 1121.41,-200.05 1121.41,-200.05 1199.41,-200.05 1199.41,-200.05 1205.41,-200.05 1211.41,-206.05 1211.41,-212.05 1211.41,-212.05 1211.41,-224.05 1211.41,-224.05 1211.41,-230.05 1205.41,-236.05 1199.41,-236.05"/>
<text text-anchor="middle" x="1160.41" y="-214.35" font-family="Helvetica,sans-Serif" font-size="14.00">遍历缓存目录</text>
</g>
<!-- copy_dirs&#45;&gt;walk_cache_dir -->
<g id="edge31" class="edge">
<title>copy_dirs&#45;&gt;walk_cache_dir</title>
<path fill="none" stroke="black" d="M1160.07,-287.97C1157.36,-282.14 1154.77,-275.48 1153.41,-269.05 1151.85,-261.71 1152.12,-253.68 1153.17,-246.26"/>
<polygon fill="black" stroke="black" points="1156.63,-246.76 1155.05,-236.28 1149.75,-245.46 1156.63,-246.76"/>
</g>
<!-- write_manifest -->
<g id="node23" class="node">
<title>write_manifest</title>
<path fill="none" stroke="black" d="M1079.41,-236.05C1079.41,-236.05 1001.41,-236.05 1001.41,-236.05 995.41,-236.05 989.41,-230.05 989.41,-224.05 989.41,-224.05 989.41,-212.05 989.41,-212.05 989.41,-206.05 995.41,-200.05 1001.41,-200.05 1001.41,-200.05 1079.41,-200.05 1079.41,-200.05 1085.41,-200.05 1091.41,-206.05 1091.41,-212.05 1091.41,-212.05 1091.41,-224.05 1091.41,-224.05 1091.41,-230.05 1085.41,-236.05 1079.41,-236.05"/>
<text text-anchor="middle" x="1040.41" y="-214.35" font-family="Helvetica,sans-Serif" font-size="14.00">写入清单文件</text>
</g>
<!-- copy_dirs&#45;&gt;write_manifest -->
<g id="edge25" class="edge">
<title>copy_dirs&#45;&gt;write_manifest</title>
<path fill="none" stroke="black" d="M1143.61,-287.86C1123.84,-274.67 1096.36,-256.36 1074.73,-241.94"/>
<polygon fill="black" stroke="black" points="1076.42,-238.86 1066.16,-236.22 1072.54,-244.68 1076.42,-238.86"/>
</g>
<!-- walk_cache_dir&#45;&gt;copy_dirs -->
<g id="edge34" class="edge">
<title>walk_cache_dir&#45;&gt;copy_dirs</title>
<path fill="none" stroke="black" d="M1162.2,-236.14C1163.43,-247.91 1165.1,-263.83 1166.52,-277.4"/>
<polygon fill="black" stroke="black" points="1163.07,-278.07 1167.59,-287.65 1170.03,-277.34 1163.07,-278.07"/>
<text text-anchor="middle" x="1194.41" y="-257.85" font-family="Helvetica,sans-Serif" font-size="14.00">遍历完成</text>
</g>
<!-- copy_entry -->
<g id="node22" class="node">
<title>copy_entry</title>
<path fill="none" stroke="black" d="M1074.53,-147.33C1074.53,-147.33 974.11,-132.78 974.11,-132.78 968.18,-131.91 968.18,-130.19 974.11,-129.33 974.11,-129.33 1074.53,-114.78 1074.53,-114.78 1080.47,-113.91 1092.35,-113.91 1098.29,-114.78 1098.29,-114.78 1198.71,-129.33 1198.71,-129.33 1204.64,-130.19 1204.64,-131.91 1198.71,-132.78 1198.71,-132.78 1098.29,-147.33 1098.29,-147.33 1092.35,-148.19 1080.47,-148.19 1074.53,-147.33"/>
<text text-anchor="middle" x="1086.41" y="-127.35" font-family="Helvetica,sans-Serif" font-size="14.00">复制文件/创建目录</text>
</g>
<!-- walk_cache_dir&#45;&gt;copy_entry -->
<g id="edge32" class="edge">
<title>walk_cache_dir&#45;&gt;copy_entry</title>
<path fill="none" stroke="black" d="M1145.43,-199.85C1134.21,-186.96 1118.73,-169.18 1106.44,-155.06"/>
<polygon fill="black" stroke="black" points="1108.83,-152.48 1099.63,-147.23 1103.55,-157.08 1108.83,-152.48"/>
</g>
<!-- copy_entry&#45;&gt;walk_cache_dir -->
<g id="edge33" class="edge">
<title>copy_entry&#45;&gt;walk_cache_dir</title>
<path fill="none" stroke="black" d="M1108.56,-146.09C1116.69,-151.92 1125.56,-159.18 1132.41,-167.05 1138.51,-174.07 1143.88,-182.63 1148.25,-190.66"/>
<polygon fill="black" stroke="black" points="1145.23,-192.43 1152.9,-199.73 1151.46,-189.24 1145.23,-192.43"/>
<text text-anchor="middle" x="1171.41" y="-170.85" font-family="Helvetica,sans-Serif" font-size="14.00">继续遍历</text>
</g>
<!-- copy_entry&#45;&gt;error -->
<g id="edge38" class="edge">
<title>copy_entry&#45;&gt;error</title>
<path fill="none" stroke="black" d="M1052.97,-117.85C1025.04,-107.68 984.16,-92.84 948.41,-80.05 925.3,-71.79 899.96,-62.81 877.47,-54.88"/>
<polygon fill="black" stroke="black" points="878.62,-51.58 868.03,-51.55 876.3,-58.18 878.62,-51.58"/>
<text text-anchor="middle" x="1014.41" y="-83.85" font-family="Helvetica,sans-Serif" font-size="14.00">复制失败</text>
</g>
<!-- write_manifest&#45;&gt;end -->
<g id="edge26" class="edge">
<title>write_manifest&#45;&gt;end</title>
<path fill="none" stroke="black" d="M1065.52,-199.88C1082.57,-188.97 1106.01,-175.38 1128.41,-167.05 1167.05,-152.69 1180.12,-161.55 1219.41,-149.05 1221.54,-148.38 1223.7,-147.62 1225.87,-146.8"/>
<polygon fill="black" stroke="black" points="1227.3,-150 1235.23,-142.98 1224.65,-143.52 1227.3,-150"/>
</g>
</g>
</svg>
