<?xml version="1.0" encoding="UTF-8" standalone="no"?>
<!DOCTYPE svg PUBLIC "-//W3C//DTD SVG 1.1//EN"
 "http://www.w3.org/Graphics/SVG/1.1/DTD/svg11.dtd">
<!-- Generated by graphviz version 2.43.0 (0)
 -->
<!-- Title: evalZigTest Pages: 1 -->
<svg width="1291pt" height="1021pt"
 viewBox="0.00 0.00 1291.00 1021.00" xmlns="http://www.w3.org/2000/svg" xmlns:xlink="http://www.w3.org/1999/xlink">
<g id="graph0" class="graph" transform="scale(1 1) rotate(0) translate(4 1017)">
<title>evalZigTest</title>
<polygon fill="white" stroke="transparent" points="-4,4 -4,-1017 1287,-1017 1287,4 -4,4"/>
<!-- start -->
<g id="node1" class="node">
<title>start</title>
<ellipse fill="none" stroke="black" cx="1078" cy="-995" rx="29.5" ry="18"/>
<text text-anchor="middle" x="1078" y="-991.3" font-family="Arial" font-size="14.00">开始</text>
</g>
<!-- init_vars -->
<g id="node2" class="node">
<title>init_vars</title>
<polygon fill="none" stroke="black" points="1181.5,-940 974.5,-940 974.5,-904 1181.5,-904 1181.5,-940"/>
<text text-anchor="middle" x="1078" y="-918.3" font-family="Arial" font-size="14.00">初始化变量：gpa, arena, poller</text>
</g>
<!-- start&#45;&gt;init_vars -->
<g id="edge1" class="edge">
<title>start&#45;&gt;init_vars</title>
<path fill="none" stroke="black" d="M1078,-976.81C1078,-968.79 1078,-959.05 1078,-950.07"/>
<polygon fill="black" stroke="black" points="1081.5,-950.03 1078,-940.03 1074.5,-950.03 1081.5,-950.03"/>
</g>
<!-- check_fuzz_context -->
<g id="node3" class="node">
<title>check_fuzz_context</title>
<polygon fill="none" stroke="black" points="1078,-867 895.18,-849 1078,-831 1260.82,-849 1078,-867"/>
<text text-anchor="middle" x="1078" y="-845.3" font-family="Arial" font-size="14.00">检查 fuzz_context 是否存在？</text>
</g>
<!-- init_vars&#45;&gt;check_fuzz_context -->
<g id="edge2" class="edge">
<title>init_vars&#45;&gt;check_fuzz_context</title>
<path fill="none" stroke="black" d="M1078,-903.81C1078,-895.79 1078,-886.05 1078,-877.07"/>
<polygon fill="black" stroke="black" points="1081.5,-877.03 1078,-867.03 1074.5,-877.03 1081.5,-877.03"/>
</g>
<!-- send_fuzz_start -->
<g id="node4" class="node">
<title>send_fuzz_start</title>
<polygon fill="none" stroke="black" points="1057,-780 899,-780 899,-744 1057,-744 1057,-780"/>
<text text-anchor="middle" x="978" y="-758.3" font-family="Arial" font-size="14.00">发送 start_fuzging 消息</text>
</g>
<!-- check_fuzz_context&#45;&gt;send_fuzz_start -->
<g id="edge3" class="edge">
<title>check_fuzz_context&#45;&gt;send_fuzz_start</title>
<path fill="none" stroke="black" d="M1059.66,-832.41C1044.73,-819.72 1023.42,-801.6 1006.31,-787.06"/>
<polygon fill="black" stroke="black" points="1008.18,-784.06 998.29,-780.25 1003.64,-789.39 1008.18,-784.06"/>
<text text-anchor="middle" x="1048.5" y="-801.8" font-family="Arial" font-size="14.00">存在</text>
</g>
<!-- send_query_metadata -->
<g id="node5" class="node">
<title>send_query_metadata</title>
<polygon fill="none" stroke="black" points="1283,-780 1075,-780 1075,-744 1283,-744 1283,-780"/>
<text text-anchor="middle" x="1179" y="-758.3" font-family="Arial" font-size="14.00">发送 query_test_metadata 消息</text>
</g>
<!-- check_fuzz_context&#45;&gt;send_query_metadata -->
<g id="edge4" class="edge">
<title>check_fuzz_context&#45;&gt;send_query_metadata</title>
<path fill="none" stroke="black" d="M1096.52,-832.41C1111.6,-819.72 1133.13,-801.6 1150.41,-787.06"/>
<polygon fill="black" stroke="black" points="1153.11,-789.36 1158.51,-780.25 1148.6,-784.01 1153.11,-789.36"/>
<text text-anchor="middle" x="1155.5" y="-801.8" font-family="Arial" font-size="14.00">不存在</text>
</g>
<!-- handle_first_write_failed -->
<g id="node6" class="node">
<title>handle_first_write_failed</title>
<polygon fill="none" stroke="black" points="1078,-707 914.28,-689 1078,-671 1241.72,-689 1078,-707"/>
<text text-anchor="middle" x="1078" y="-685.3" font-family="Arial" font-size="14.00">设置 first_write_failed 标志</text>
</g>
<!-- send_fuzz_start&#45;&gt;handle_first_write_failed -->
<g id="edge5" class="edge">
<title>send_fuzz_start&#45;&gt;handle_first_write_failed</title>
<path fill="none" stroke="black" d="M1001.95,-743.99C1015.96,-734.05 1033.75,-721.42 1048.6,-710.87"/>
<polygon fill="black" stroke="black" points="1050.83,-713.58 1056.96,-704.94 1046.78,-707.88 1050.83,-713.58"/>
</g>
<!-- send_query_metadata&#45;&gt;handle_first_write_failed -->
<g id="edge6" class="edge">
<title>send_query_metadata&#45;&gt;handle_first_write_failed</title>
<path fill="none" stroke="black" d="M1154.81,-743.99C1140.56,-733.98 1122.44,-721.24 1107.38,-710.65"/>
<polygon fill="black" stroke="black" points="1109.11,-707.59 1098.92,-704.7 1105.09,-713.32 1109.11,-707.59"/>
</g>
<!-- prepare_polling -->
<g id="node7" class="node">
<title>prepare_polling</title>
<polygon fill="none" stroke="black" points="662,-620 510,-620 510,-584 662,-584 662,-620"/>
<text text-anchor="middle" x="586" y="-598.3" font-family="Arial" font-size="14.00">准备轮询 stdout/stderr</text>
</g>
<!-- handle_first_write_failed&#45;&gt;prepare_polling -->
<g id="edge7" class="edge">
<title>handle_first_write_failed&#45;&gt;prepare_polling</title>
<path fill="none" stroke="black" d="M1017.67,-677.58C931.09,-662.62 771.15,-634.99 672.15,-617.88"/>
<polygon fill="black" stroke="black" points="672.62,-614.41 662.17,-616.16 671.42,-621.31 672.62,-614.41"/>
<text text-anchor="middle" x="929.5" y="-641.8" font-family="Arial" font-size="14.00">first_write_failed=false</text>
</g>
<!-- capture_stderr -->
<g id="node19" class="node">
<title>capture_stderr</title>
<polygon fill="none" stroke="black" points="1142.5,-286 999.5,-286 999.5,-250 1142.5,-250 1142.5,-286"/>
<text text-anchor="middle" x="1071" y="-264.3" font-family="Arial" font-size="14.00">捕获剩余 stderr 内容</text>
</g>
<!-- handle_first_write_failed&#45;&gt;capture_stderr -->
<g id="edge8" class="edge">
<title>handle_first_write_failed&#45;&gt;capture_stderr</title>
<path fill="none" stroke="black" d="M1090.97,-672.16C1102.98,-655.86 1119,-629.21 1119,-603 1119,-603 1119,-603 1119,-354 1119,-331.78 1106.4,-310.01 1094.12,-294.08"/>
<polygon fill="black" stroke="black" points="1096.81,-291.85 1087.79,-286.3 1091.39,-296.26 1096.81,-291.85"/>
<text text-anchor="middle" x="1184" y="-481.8" font-family="Arial" font-size="14.00">first_write_failed=true</text>
</g>
<!-- loop_start -->
<g id="node8" class="node">
<title>loop_start</title>
<polygon fill="none" stroke="black" points="514,-547 412,-547 412,-511 514,-511 514,-547"/>
<text text-anchor="middle" x="463" y="-525.3" font-family="Arial" font-size="14.00">轮询循环开始</text>
</g>
<!-- prepare_polling&#45;&gt;loop_start -->
<g id="edge9" class="edge">
<title>prepare_polling&#45;&gt;loop_start</title>
<path fill="none" stroke="black" d="M556.54,-583.99C540.08,-574.49 519.37,-562.54 501.62,-552.29"/>
<polygon fill="black" stroke="black" points="503.06,-549.08 492.65,-547.11 499.56,-555.14 503.06,-549.08"/>
</g>
<!-- check_header -->
<g id="node9" class="node">
<title>check_header</title>
<polygon fill="none" stroke="black" points="637,-460 490.71,-442 637,-424 783.29,-442 637,-460"/>
<text text-anchor="middle" x="637" y="-438.3" font-family="Arial" font-size="14.00">检查消息头是否完整？</text>
</g>
<!-- loop_start&#45;&gt;check_header -->
<g id="edge10" class="edge">
<title>loop_start&#45;&gt;check_header</title>
<path fill="none" stroke="black" d="M498.21,-510.8C527.69,-496.4 569.65,-475.9 599.7,-461.22"/>
<polygon fill="black" stroke="black" points="601.56,-464.21 609,-456.68 598.48,-457.92 601.56,-464.21"/>
</g>
<!-- read_header -->
<g id="node10" class="node">
<title>read_header</title>
<polygon fill="none" stroke="black" points="641,-373 553,-373 553,-337 641,-337 641,-373"/>
<text text-anchor="middle" x="597" y="-351.3" font-family="Arial" font-size="14.00">读取消息头</text>
</g>
<!-- check_header&#45;&gt;read_header -->
<g id="edge11" class="edge">
<title>check_header&#45;&gt;read_header</title>
<path fill="none" stroke="black" d="M629.29,-424.61C623.64,-412.62 615.87,-396.09 609.36,-382.27"/>
<polygon fill="black" stroke="black" points="612.53,-380.77 605.1,-373.21 606.19,-383.75 612.53,-380.77"/>
<text text-anchor="middle" x="656" y="-394.8" font-family="Arial" font-size="14.00">有足够数据</text>
</g>
<!-- check_write_failed -->
<g id="node18" class="node">
<title>check_write_failed</title>
<polygon fill="none" stroke="black" points="965,-373 839.15,-355 965,-337 1090.85,-355 965,-373"/>
<text text-anchor="middle" x="965" y="-351.3" font-family="Arial" font-size="14.00">any_write_failed = ?</text>
</g>
<!-- check_header&#45;&gt;check_write_failed -->
<g id="edge12" class="edge">
<title>check_header&#45;&gt;check_write_failed</title>
<path fill="none" stroke="black" d="M681.58,-429.45C741.76,-413.85 848.82,-386.11 912.73,-369.55"/>
<polygon fill="black" stroke="black" points="913.8,-372.88 922.6,-366.99 912.04,-366.11 913.8,-372.88"/>
<text text-anchor="middle" x="850" y="-394.8" font-family="Arial" font-size="14.00">轮询失败</text>
</g>
<!-- switch_header -->
<g id="node11" class="node">
<title>switch_header</title>
<polygon fill="none" stroke="black" points="574,-286 441.78,-268 574,-250 706.22,-268 574,-286"/>
<text text-anchor="middle" x="574" y="-264.3" font-family="Arial" font-size="14.00">根据 header.tag 分支</text>
</g>
<!-- read_header&#45;&gt;switch_header -->
<g id="edge13" class="edge">
<title>read_header&#45;&gt;switch_header</title>
<path fill="none" stroke="black" d="M592.35,-336.8C589.12,-324.89 584.78,-308.82 581.12,-295.31"/>
<polygon fill="black" stroke="black" points="584.48,-294.34 578.49,-285.6 577.72,-296.16 584.48,-294.34"/>
</g>
<!-- handle_zig_version -->
<g id="node12" class="node">
<title>handle_zig_version</title>
<polygon fill="none" stroke="black" points="282,-190.5 140,-190.5 140,-154.5 282,-154.5 282,-190.5"/>
<text text-anchor="middle" x="211" y="-168.8" font-family="Arial" font-size="14.00">验证 Zig 版本一致性</text>
</g>
<!-- switch_header&#45;&gt;handle_zig_version -->
<g id="edge14" class="edge">
<title>switch_header&#45;&gt;handle_zig_version</title>
<path fill="none" stroke="black" d="M492.49,-261.07C445.67,-256.19 386.19,-247.45 335,-232 305.23,-223.01 273.54,-207.96 249.66,-195.38"/>
<polygon fill="black" stroke="black" points="251.05,-192.15 240.58,-190.52 247.74,-198.32 251.05,-192.15"/>
<text text-anchor="middle" x="371.5" y="-220.8" font-family="Arial" font-size="14.00">.zig_version</text>
</g>
<!-- handle_test_metadata -->
<g id="node13" class="node">
<title>handle_test_metadata</title>
<polygon fill="none" stroke="black" points="593,-199 477,-199 477,-146 593,-146 593,-199"/>
<text text-anchor="middle" x="535" y="-183.8" font-family="Arial" font-size="14.00">解析测试元数据</text>
<text text-anchor="middle" x="535" y="-168.8" font-family="Arial" font-size="14.00">设置进度节点</text>
<text text-anchor="middle" x="535" y="-153.8" font-family="Arial" font-size="14.00">请求下一个测试</text>
</g>
<!-- switch_header&#45;&gt;handle_test_metadata -->
<g id="edge15" class="edge">
<title>switch_header&#45;&gt;handle_test_metadata</title>
<path fill="none" stroke="black" d="M550.81,-252.98C543.75,-247.41 536.84,-240.33 533,-232 529.77,-225.01 528.63,-217.03 528.63,-209.26"/>
<polygon fill="black" stroke="black" points="532.12,-209.45 529.19,-199.26 525.13,-209.05 532.12,-209.45"/>
<text text-anchor="middle" x="578.5" y="-220.8" font-family="Arial" font-size="14.00">.test_metadata</text>
</g>
<!-- handle_test_results -->
<g id="node14" class="node">
<title>handle_test_results</title>
<polygon fill="none" stroke="black" points="727,-199 611,-199 611,-146 727,-146 727,-199"/>
<text text-anchor="middle" x="669" y="-183.8" font-family="Arial" font-size="14.00">统计测试结果</text>
<text text-anchor="middle" x="669" y="-168.8" font-family="Arial" font-size="14.00">记录错误信息</text>
<text text-anchor="middle" x="669" y="-153.8" font-family="Arial" font-size="14.00">请求下一个测试</text>
</g>
<!-- switch_header&#45;&gt;handle_test_results -->
<g id="edge16" class="edge">
<title>switch_header&#45;&gt;handle_test_results</title>
<path fill="none" stroke="black" d="M597.02,-253.03C605.91,-247.1 615.88,-239.76 624,-232 631.79,-224.55 639.32,-215.68 645.92,-207.13"/>
<polygon fill="black" stroke="black" points="648.75,-209.19 651.94,-199.08 643.15,-204.99 648.75,-209.19"/>
<text text-anchor="middle" x="674.5" y="-220.8" font-family="Arial" font-size="14.00">.test_results</text>
</g>
<!-- handle_coverage_id -->
<g id="node15" class="node">
<title>handle_coverage_id</title>
<polygon fill="none" stroke="black" points="122,-191.5 0,-191.5 0,-153.5 122,-153.5 122,-191.5"/>
<text text-anchor="middle" x="61" y="-176.3" font-family="Arial" font-size="14.00">处理覆盖率 ID</text>
<text text-anchor="middle" x="61" y="-161.3" font-family="Arial" font-size="14.00">通知 Web 服务器</text>
</g>
<!-- switch_header&#45;&gt;handle_coverage_id -->
<g id="edge17" class="edge">
<title>switch_header&#45;&gt;handle_coverage_id</title>
<path fill="none" stroke="black" d="M469.91,-264.15C397.6,-260.4 299.45,-251.78 215,-232 178.57,-223.46 139.15,-208.37 109.31,-195.66"/>
<polygon fill="black" stroke="black" points="110.55,-192.38 99.98,-191.62 107.77,-198.8 110.55,-192.38"/>
<text text-anchor="middle" x="254" y="-220.8" font-family="Arial" font-size="14.00">.coverage_id</text>
</g>
<!-- handle_fuzz_start_addr -->
<g id="node16" class="node">
<title>handle_fuzz_start_addr</title>
<polygon fill="none" stroke="black" points="459.5,-191.5 300.5,-191.5 300.5,-153.5 459.5,-153.5 459.5,-191.5"/>
<text text-anchor="middle" x="380" y="-176.3" font-family="Arial" font-size="14.00">处理模糊测试入口地址</text>
<text text-anchor="middle" x="380" y="-161.3" font-family="Arial" font-size="14.00">通知 Web 服务器</text>
</g>
<!-- switch_header&#45;&gt;handle_fuzz_start_addr -->
<g id="edge18" class="edge">
<title>switch_header&#45;&gt;handle_fuzz_start_addr</title>
<path fill="none" stroke="black" d="M504.45,-259.43C479.3,-254.39 451.56,-245.99 429,-232 416.08,-223.99 404.9,-211.4 396.49,-199.96"/>
<polygon fill="black" stroke="black" points="399.21,-197.73 390.62,-191.52 393.46,-201.73 399.21,-197.73"/>
<text text-anchor="middle" x="477.5" y="-220.8" font-family="Arial" font-size="14.00">.fuzz_start_addr</text>
</g>
<!-- other_messages -->
<g id="node17" class="node">
<title>other_messages</title>
<polygon fill="none" stroke="black" points="876.5,-190.5 745.5,-190.5 745.5,-154.5 876.5,-154.5 876.5,-190.5"/>
<text text-anchor="middle" x="811" y="-168.8" font-family="Arial" font-size="14.00">忽略其他消息类型</text>
</g>
<!-- switch_header&#45;&gt;other_messages -->
<g id="edge19" class="edge">
<title>switch_header&#45;&gt;other_messages</title>
<path fill="none" stroke="black" d="M628.8,-257.44C655.43,-251.79 687.53,-243.46 715,-232 737.6,-222.57 761.11,-208.33 779.2,-196.26"/>
<polygon fill="black" stroke="black" points="781.32,-199.06 787.62,-190.54 777.39,-193.27 781.32,-199.06"/>
<text text-anchor="middle" x="760.5" y="-220.8" font-family="Arial" font-size="14.00">其他</text>
</g>
<!-- handle_zig_version&#45;&gt;loop_start -->
<g id="edge20" class="edge">
<title>handle_zig_version&#45;&gt;loop_start</title>
<path fill="none" stroke="black" d="M213.36,-190.7C215.72,-209.42 219,-240.28 219,-267 219,-443 219,-443 219,-443 219,-481.67 329.65,-506.8 401.92,-519.1"/>
<polygon fill="black" stroke="black" points="401.41,-522.56 411.85,-520.75 402.56,-515.65 401.41,-522.56"/>
</g>
<!-- handle_test_metadata&#45;&gt;loop_start -->
<g id="edge21" class="edge">
<title>handle_test_metadata&#45;&gt;loop_start</title>
<path fill="none" stroke="black" d="M514.25,-199.23C504.21,-210.43 491.44,-223.01 478,-232 460.09,-243.97 447.64,-234.2 433,-250 413.84,-270.67 414,-282.32 414,-310.5 414,-443 414,-443 414,-443 414,-465.34 426.86,-487.1 439.4,-503.01"/>
<polygon fill="black" stroke="black" points="436.77,-505.32 445.86,-510.76 442.15,-500.84 436.77,-505.32"/>
</g>
<!-- handle_test_results&#45;&gt;loop_start -->
<g id="edge22" class="edge">
<title>handle_test_results&#45;&gt;loop_start</title>
<path fill="none" stroke="black" d="M703.12,-199.3C707.95,-204.59 712.22,-210.54 715,-217 727.13,-245.17 733.33,-261.41 715,-286 667.61,-349.59 608.51,-290.87 544,-337 505.38,-364.62 500.49,-380.27 482,-424 471.55,-448.73 466.84,-479.16 464.72,-500.69"/>
<polygon fill="black" stroke="black" points="461.22,-500.52 463.85,-510.78 468.19,-501.12 461.22,-500.52"/>
</g>
<!-- handle_coverage_id&#45;&gt;loop_start -->
<g id="edge23" class="edge">
<title>handle_coverage_id&#45;&gt;loop_start</title>
<path fill="none" stroke="black" d="M61.93,-191.77C62.81,-210.61 64,-240.85 64,-267 64,-443 64,-443 64,-443 64,-511.17 289.59,-524.88 401.51,-527.49"/>
<polygon fill="black" stroke="black" points="401.58,-530.99 411.65,-527.7 401.73,-523.99 401.58,-530.99"/>
</g>
<!-- handle_fuzz_start_addr&#45;&gt;loop_start -->
<g id="edge24" class="edge">
<title>handle_fuzz_start_addr&#45;&gt;loop_start</title>
<path fill="none" stroke="black" d="M369.38,-191.81C359.73,-210.19 347,-239.63 347,-267 347,-443 347,-443 347,-443 347,-474.09 374.45,-495.05 402.64,-508.37"/>
<polygon fill="black" stroke="black" points="401.22,-511.57 411.78,-512.43 404.06,-505.17 401.22,-511.57"/>
</g>
<!-- other_messages&#45;&gt;loop_start -->
<g id="edge25" class="edge">
<title>other_messages&#45;&gt;loop_start</title>
<path fill="none" stroke="black" d="M811,-190.73C811,-209.49 811,-240.38 811,-267 811,-443 811,-443 811,-443 811,-501.27 624.58,-519.77 524.62,-525.51"/>
<polygon fill="black" stroke="black" points="524.14,-522.03 514.35,-526.07 524.52,-529.02 524.14,-522.03"/>
</g>
<!-- check_write_failed&#45;&gt;loop_start -->
<g id="edge27" class="edge">
<title>check_write_failed&#45;&gt;loop_start</title>
<path fill="none" stroke="black" d="M954.55,-371.78C933.86,-401.51 884.51,-465.31 825,-493 773.17,-517.12 613.54,-524.63 524.55,-526.96"/>
<polygon fill="black" stroke="black" points="524.23,-523.46 514.32,-527.21 524.4,-530.46 524.23,-523.46"/>
<text text-anchor="middle" x="927.5" y="-438.3" font-family="Arial" font-size="14.00">false</text>
</g>
<!-- check_write_failed&#45;&gt;capture_stderr -->
<g id="edge26" class="edge">
<title>check_write_failed&#45;&gt;capture_stderr</title>
<path fill="none" stroke="black" d="M983.46,-339.19C999.48,-326.35 1022.95,-307.53 1041.56,-292.61"/>
<polygon fill="black" stroke="black" points="1043.85,-295.26 1049.46,-286.27 1039.47,-289.8 1043.85,-295.26"/>
<text text-anchor="middle" x="1037" y="-307.8" font-family="Arial" font-size="14.00">true</text>
</g>
<!-- close_stdin -->
<g id="node20" class="node">
<title>close_stdin</title>
<polygon fill="none" stroke="black" points="1130.5,-190.5 1011.5,-190.5 1011.5,-154.5 1130.5,-154.5 1130.5,-190.5"/>
<text text-anchor="middle" x="1071" y="-168.8" font-family="Arial" font-size="14.00">关闭子进程 stdin</text>
</g>
<!-- capture_stderr&#45;&gt;close_stdin -->
<g id="edge28" class="edge">
<title>capture_stderr&#45;&gt;close_stdin</title>
<path fill="none" stroke="black" d="M1071,-249.85C1071,-236.14 1071,-216.67 1071,-200.82"/>
<polygon fill="black" stroke="black" points="1074.5,-200.54 1071,-190.54 1067.5,-200.54 1074.5,-200.54"/>
</g>
<!-- return_results -->
<g id="node21" class="node">
<title>return_results</title>
<polygon fill="none" stroke="black" points="1143.5,-109 998.5,-109 998.5,-73 1143.5,-73 1143.5,-109"/>
<text text-anchor="middle" x="1071" y="-87.3" font-family="Arial" font-size="14.00">返回测试结果结构体</text>
</g>
<!-- close_stdin&#45;&gt;return_results -->
<g id="edge29" class="edge">
<title>close_stdin&#45;&gt;return_results</title>
<path fill="none" stroke="black" d="M1071,-154.25C1071,-144.04 1071,-130.88 1071,-119.29"/>
<polygon fill="black" stroke="black" points="1074.5,-119.22 1071,-109.22 1067.5,-119.22 1074.5,-119.22"/>
</g>
<!-- end -->
<g id="node22" class="node">
<title>end</title>
<ellipse fill="none" stroke="black" cx="1071" cy="-18" rx="29.5" ry="18"/>
<text text-anchor="middle" x="1071" y="-14.3" font-family="Arial" font-size="14.00">结束</text>
</g>
<!-- return_results&#45;&gt;end -->
<g id="edge30" class="edge">
<title>return_results&#45;&gt;end</title>
<path fill="none" stroke="black" d="M1071,-72.81C1071,-64.79 1071,-55.05 1071,-46.07"/>
<polygon fill="black" stroke="black" points="1074.5,-46.03 1071,-36.03 1067.5,-46.03 1074.5,-46.03"/>
</g>
</g>
</svg>
