<?xml version="1.0" encoding="UTF-8" standalone="no"?>
<!DOCTYPE svg PUBLIC "-//W3C//DTD SVG 1.1//EN"
 "http://www.w3.org/Graphics/SVG/1.1/DTD/svg11.dtd">
<!-- Generated by graphviz version 2.43.0 (0)
 -->
<!-- Title: DepTokenizer Pages: 1 -->
<svg width="1812pt" height="1180pt"
 viewBox="0.00 0.00 1812.36 1180.00" xmlns="http://www.w3.org/2000/svg" xmlns:xlink="http://www.w3.org/1999/xlink">
<g id="graph0" class="graph" transform="scale(1 1) rotate(0) translate(4 1176)">
<title>DepTokenizer</title>
<polygon fill="white" stroke="transparent" points="-4,4 -4,-1176 1808.36,-1176 1808.36,4 -4,4"/>
<g id="clust1" class="cluster">
<title>cluster_main</title>
<polygon fill="none" stroke="black" points="147.29,-377 147.29,-1142 1320.21,-1142 1320.21,-377 147.29,-377"/>
<text text-anchor="middle" x="733.75" y="-1126.8" font-family="Times,serif" font-size="14.00">主循环: while (self.index &lt; self.bytes.len)</text>
</g>
<g id="clust2" class="cluster">
<title>cluster_post_loop</title>
<polygon fill="none" stroke="black" points="1077.8,-8 1077.8,-191 1796.36,-191 1796.36,-8 1077.8,-8"/>
<text text-anchor="middle" x="1437.08" y="-175.8" font-family="Times,serif" font-size="14.00">循环结束后处理</text>
</g>
<!-- Start -->
<g id="node1" class="node">
<title>Start</title>
<ellipse fill="none" stroke="black" cx="59.14" cy="-743" rx="59.29" ry="18"/>
<text text-anchor="middle" x="59.14" y="-739.3" font-family="Times,serif" font-size="14.00">开始 next()</text>
</g>
<!-- LoopStart -->
<g id="node3" class="node">
<title>LoopStart</title>
<polygon fill="none" stroke="black" points="249.04,-761 155.53,-743 249.04,-725 342.55,-743 249.04,-761"/>
<text text-anchor="middle" x="249.04" y="-739.3" font-family="Times,serif" font-size="14.00">处理当前字符</text>
</g>
<!-- Start&#45;&gt;LoopStart -->
<g id="edge24" class="edge">
<title>Start&#45;&gt;LoopStart</title>
<path fill="none" stroke="black" d="M118.31,-743C126.94,-743 136.04,-743 145.25,-743"/>
<polygon fill="black" stroke="black" points="145.28,-746.5 155.28,-743 145.28,-739.5 145.28,-746.5"/>
</g>
<!-- End -->
<g id="node2" class="node">
<title>End</title>
<ellipse fill="none" stroke="black" cx="1695.36" cy="-278" rx="100.98" ry="18"/>
<text text-anchor="middle" x="1695.36" y="-274.3" font-family="Times,serif" font-size="14.00">返回 Token/错误/null</text>
</g>
<!-- StateLHS -->
<g id="node5" class="node">
<title>StateLHS</title>
<polygon fill="none" stroke="black" points="839.3,-421 753.3,-421 753.3,-385 839.3,-385 839.3,-421"/>
<text text-anchor="middle" x="796.3" y="-399.3" font-family="Times,serif" font-size="14.00">StateLHS</text>
</g>
<!-- LoopStart&#45;&gt;StateLHS -->
<g id="edge1" class="edge">
<title>LoopStart&#45;&gt;StateLHS</title>
<path fill="none" stroke="black" d="M250.3,-725.04C252.15,-671.03 265.73,-509.39 360.8,-437 473.83,-350.93 654.79,-372.83 743.24,-390.61"/>
<polygon fill="black" stroke="black" points="742.54,-394.04 753.04,-392.65 743.96,-387.19 742.54,-394.04"/>
<text text-anchor="middle" x="505.3" y="-440.8" font-family="Times,serif" font-size="14.00">当前状态是 .lhs</text>
</g>
<!-- StateTarget -->
<g id="node6" class="node">
<title>StateTarget</title>
<polygon fill="none" stroke="black" points="846.8,-526 745.8,-526 745.8,-490 846.8,-490 846.8,-526"/>
<text text-anchor="middle" x="796.3" y="-504.3" font-family="Times,serif" font-size="14.00">StateTarget</text>
</g>
<!-- LoopStart&#45;&gt;StateTarget -->
<g id="edge2" class="edge">
<title>LoopStart&#45;&gt;StateTarget</title>
<path fill="none" stroke="black" d="M253.72,-725.76C263.3,-685.54 293.15,-585.61 360.8,-542 476.22,-467.59 646.39,-481.6 735.65,-496.06"/>
<polygon fill="black" stroke="black" points="735.17,-499.52 745.61,-497.73 736.32,-492.62 735.17,-499.52"/>
<text text-anchor="middle" x="505.3" y="-545.8" font-family="Times,serif" font-size="14.00">当前状态是 .target</text>
</g>
<!-- StateTargetReverseSolidus -->
<g id="node7" class="node">
<title>StateTargetReverseSolidus</title>
<polygon fill="none" stroke="black" points="1312.21,-437 1100.21,-437 1100.21,-401 1312.21,-401 1312.21,-437"/>
<text text-anchor="middle" x="1206.21" y="-415.3" font-family="Times,serif" font-size="14.00">StateTargetReverseSolidus</text>
</g>
<!-- LoopStart&#45;&gt;StateTargetReverseSolidus -->
<g id="edge3" class="edge">
<title>LoopStart&#45;&gt;StateTargetReverseSolidus</title>
<path fill="none" stroke="black" d="M251.48,-725.13C256.46,-676.4 277.55,-540.74 360.8,-480 373.5,-470.73 909.4,-433.2 924.8,-430 933.05,-428.28 934.49,-425.43 942.8,-424 990.6,-415.78 1044.01,-413.53 1090.11,-413.7"/>
<polygon fill="black" stroke="black" points="1090.1,-417.2 1100.13,-413.78 1090.16,-410.2 1090.1,-417.2"/>
<text text-anchor="middle" x="796.3" y="-453.8" font-family="Times,serif" font-size="14.00">当前状态是 .target_reverse_solidus</text>
</g>
<!-- StateTargetDollarSign -->
<g id="node8" class="node">
<title>StateTargetDollarSign</title>
<polygon fill="none" stroke="black" points="1294.71,-581 1117.71,-581 1117.71,-545 1294.71,-545 1294.71,-581"/>
<text text-anchor="middle" x="1206.21" y="-559.3" font-family="Times,serif" font-size="14.00">StateTargetDollarSign</text>
</g>
<!-- LoopStart&#45;&gt;StateTargetDollarSign -->
<g id="edge4" class="edge">
<title>LoopStart&#45;&gt;StateTargetDollarSign</title>
<path fill="none" stroke="black" d="M264.53,-727.85C284.27,-708.28 321.65,-674.84 360.8,-659 653.24,-540.7 755.89,-643.24 1067.8,-596 1088.23,-592.91 1110.09,-588.28 1130.22,-583.46"/>
<polygon fill="black" stroke="black" points="1131.07,-586.85 1139.96,-581.08 1129.41,-580.05 1131.07,-586.85"/>
<text text-anchor="middle" x="796.3" y="-612.8" font-family="Times,serif" font-size="14.00">当前状态是 .target_dollar_sign</text>
</g>
<!-- StateTargetColon -->
<g id="node9" class="node">
<title>StateTargetColon</title>
<polygon fill="none" stroke="black" points="1277.21,-864 1135.21,-864 1135.21,-828 1277.21,-828 1277.21,-864"/>
<text text-anchor="middle" x="1206.21" y="-842.3" font-family="Times,serif" font-size="14.00">StateTargetColon</text>
</g>
<!-- LoopStart&#45;&gt;StateTargetColon -->
<g id="edge5" class="edge">
<title>LoopStart&#45;&gt;StateTargetColon</title>
<path fill="none" stroke="black" d="M249.31,-761.2C248.04,-820.02 253.04,-1005.7 360.8,-1084 563.65,-1231.4 690.4,-1158.08 924.8,-1069 1037.15,-1026.3 1139.66,-921 1183.17,-871.94"/>
<polygon fill="black" stroke="black" points="1185.92,-874.11 1189.88,-864.29 1180.66,-869.5 1185.92,-874.11"/>
<text text-anchor="middle" x="796.3" y="-1160.8" font-family="Times,serif" font-size="14.00">当前状态是 .target_colon</text>
</g>
<!-- StateTargetColonReverseSolidus -->
<g id="node10" class="node">
<title>StateTargetColonReverseSolidus</title>
<polygon fill="none" stroke="black" points="922.3,-682 670.3,-682 670.3,-646 922.3,-646 922.3,-682"/>
<text text-anchor="middle" x="796.3" y="-660.3" font-family="Times,serif" font-size="14.00">StateTargetColonReverseSolidus</text>
</g>
<!-- LoopStart&#45;&gt;StateTargetColonReverseSolidus -->
<g id="edge6" class="edge">
<title>LoopStart&#45;&gt;StateTargetColonReverseSolidus</title>
<path fill="none" stroke="black" d="M275.22,-729.82C297.18,-719 330.22,-704.31 360.8,-697 459.17,-673.47 573.31,-665.52 659.92,-663.29"/>
<polygon fill="black" stroke="black" points="660.16,-666.79 670.07,-663.05 659.99,-659.79 660.16,-666.79"/>
<text text-anchor="middle" x="505.3" y="-700.8" font-family="Times,serif" font-size="14.00">当前状态是 .target_colon_reverse_solidus</text>
</g>
<!-- StateRHS -->
<g id="node11" class="node">
<title>StateRHS</title>
<polygon fill="none" stroke="black" points="839.8,-736 752.8,-736 752.8,-700 839.8,-700 839.8,-736"/>
<text text-anchor="middle" x="796.3" y="-714.3" font-family="Times,serif" font-size="14.00">StateRHS</text>
</g>
<!-- LoopStart&#45;&gt;StateRHS -->
<g id="edge7" class="edge">
<title>LoopStart&#45;&gt;StateRHS</title>
<path fill="none" stroke="black" d="M299.24,-734.57C318.39,-731.64 340.56,-728.66 360.8,-727 498.17,-715.7 660.75,-715.94 742.6,-717.01"/>
<polygon fill="black" stroke="black" points="742.61,-720.51 752.65,-717.15 742.7,-713.51 742.61,-720.51"/>
<text text-anchor="middle" x="505.3" y="-730.8" font-family="Times,serif" font-size="14.00">当前状态是 .rhs</text>
</g>
<!-- StateRHSContinuation -->
<g id="node12" class="node">
<title>StateRHSContinuation</title>
<polygon fill="none" stroke="black" points="885.8,-790 706.8,-790 706.8,-754 885.8,-754 885.8,-790"/>
<text text-anchor="middle" x="796.3" y="-768.3" font-family="Times,serif" font-size="14.00">StateRHSContinuation</text>
</g>
<!-- LoopStart&#45;&gt;StateRHSContinuation -->
<g id="edge8" class="edge">
<title>LoopStart&#45;&gt;StateRHSContinuation</title>
<path fill="none" stroke="black" d="M322.73,-746.87C418.79,-751.98 588.41,-761 696.16,-766.73"/>
<polygon fill="black" stroke="black" points="696.22,-770.24 706.4,-767.27 696.6,-763.25 696.22,-770.24"/>
<text text-anchor="middle" x="505.3" y="-767.8" font-family="Times,serif" font-size="14.00">当前状态是 .rhs_continuation</text>
</g>
<!-- StateRHSContinuationLinefeed -->
<g id="node13" class="node">
<title>StateRHSContinuationLinefeed</title>
<polygon fill="none" stroke="black" points="916.8,-844 675.8,-844 675.8,-808 916.8,-808 916.8,-844"/>
<text text-anchor="middle" x="796.3" y="-822.3" font-family="Times,serif" font-size="14.00">StateRHSContinuationLinefeed</text>
</g>
<!-- LoopStart&#45;&gt;StateRHSContinuationLinefeed -->
<g id="edge9" class="edge">
<title>LoopStart&#45;&gt;StateRHSContinuationLinefeed</title>
<path fill="none" stroke="black" d="M278.6,-755.54C300.63,-764.66 332.09,-776.5 360.8,-783 461.6,-805.82 578.29,-816.53 665.34,-821.56"/>
<polygon fill="black" stroke="black" points="665.36,-825.06 675.54,-822.13 665.75,-818.07 665.36,-825.06"/>
<text text-anchor="middle" x="505.3" y="-823.8" font-family="Times,serif" font-size="14.00">当前状态是 .rhs_continuation_linefeed</text>
</g>
<!-- StatePrereqQuote -->
<g id="node14" class="node">
<title>StatePrereqQuote</title>
<polygon fill="none" stroke="black" points="869.3,-898 723.3,-898 723.3,-862 869.3,-862 869.3,-898"/>
<text text-anchor="middle" x="796.3" y="-876.3" font-family="Times,serif" font-size="14.00">StatePrereqQuote</text>
</g>
<!-- LoopStart&#45;&gt;StatePrereqQuote -->
<g id="edge10" class="edge">
<title>LoopStart&#45;&gt;StatePrereqQuote</title>
<path fill="none" stroke="black" d="M262.4,-758.6C281.04,-780.85 318.68,-820.99 360.8,-839 422.21,-865.26 605.13,-874.8 713.06,-878.19"/>
<polygon fill="black" stroke="black" points="713.16,-881.69 723.26,-878.5 713.37,-874.7 713.16,-881.69"/>
<text text-anchor="middle" x="505.3" y="-878.8" font-family="Times,serif" font-size="14.00">当前状态是 .prereq_quote</text>
</g>
<!-- StatePrereq -->
<g id="node15" class="node">
<title>StatePrereq</title>
<polygon fill="none" stroke="black" points="848.3,-952 744.3,-952 744.3,-916 848.3,-916 848.3,-952"/>
<text text-anchor="middle" x="796.3" y="-930.3" font-family="Times,serif" font-size="14.00">StatePrereq</text>
</g>
<!-- LoopStart&#45;&gt;StatePrereq -->
<g id="edge11" class="edge">
<title>LoopStart&#45;&gt;StatePrereq</title>
<path fill="none" stroke="black" d="M256.73,-759.82C270.6,-792.24 305.9,-862.94 360.8,-894 423.01,-929.2 629.62,-934.24 733.92,-934.46"/>
<polygon fill="black" stroke="black" points="733.99,-937.96 743.99,-934.46 734,-930.96 733.99,-937.96"/>
<text text-anchor="middle" x="505.3" y="-936.8" font-family="Times,serif" font-size="14.00">当前状态是 .prereq</text>
</g>
<!-- StatePrereqContinuation -->
<g id="node16" class="node">
<title>StatePrereqContinuation</title>
<polygon fill="none" stroke="black" points="894.3,-1006 698.3,-1006 698.3,-970 894.3,-970 894.3,-1006"/>
<text text-anchor="middle" x="796.3" y="-984.3" font-family="Times,serif" font-size="14.00">StatePrereqContinuation</text>
</g>
<!-- LoopStart&#45;&gt;StatePrereqContinuation -->
<g id="edge12" class="edge">
<title>LoopStart&#45;&gt;StatePrereqContinuation</title>
<path fill="none" stroke="black" d="M253.41,-760.17C262.45,-801.27 291.48,-905.26 360.8,-951 387.47,-968.6 567.94,-979.08 687.75,-984.17"/>
<polygon fill="black" stroke="black" points="687.93,-987.68 698.06,-984.6 688.22,-980.69 687.93,-987.68"/>
<text text-anchor="middle" x="505.3" y="-985.8" font-family="Times,serif" font-size="14.00">当前状态是 .prereq_continuation</text>
</g>
<!-- StatePrereqContinuationLinefeed -->
<g id="node17" class="node">
<title>StatePrereqContinuationLinefeed</title>
<polygon fill="none" stroke="black" points="924.8,-1060 667.8,-1060 667.8,-1024 924.8,-1024 924.8,-1060"/>
<text text-anchor="middle" x="796.3" y="-1038.3" font-family="Times,serif" font-size="14.00">StatePrereqContinuationLinefeed</text>
</g>
<!-- LoopStart&#45;&gt;StatePrereqContinuationLinefeed -->
<g id="edge13" class="edge">
<title>LoopStart&#45;&gt;StatePrereqContinuationLinefeed</title>
<path fill="none" stroke="black" d="M251.62,-760.51C256.95,-808.29 278.85,-941.29 360.8,-1001 452.82,-1068.05 586.53,-1070.51 681.27,-1061.11"/>
<polygon fill="black" stroke="black" points="681.89,-1064.56 691.47,-1060.03 681.16,-1057.6 681.89,-1064.56"/>
<text text-anchor="middle" x="505.3" y="-1068.8" font-family="Times,serif" font-size="14.00">当前状态是 .prereq_continuation_linefeed</text>
</g>
<!-- LoopEnd -->
<g id="node4" class="node">
<title>LoopEnd</title>
<polygon fill="none" stroke="black" points="1264.71,-495 1147.71,-495 1147.71,-459 1264.71,-459 1264.71,-495"/>
<text text-anchor="middle" x="1206.21" y="-473.3" font-family="Times,serif" font-size="14.00">更新 self.index</text>
</g>
<!-- LoopEnd&#45;&gt;LoopStart -->
<g id="edge27" class="edge">
<title>LoopEnd&#45;&gt;LoopStart</title>
<path fill="none" stroke="black" d="M1147.62,-490.94C1122.62,-499.84 1095.15,-513.98 1077.8,-536 1063.77,-553.8 1085.32,-571.63 1067.8,-586 1046.32,-603.61 970.22,-590.45 942.8,-586 934.47,-584.65 933.12,-581.35 924.8,-580 801.04,-559.92 471.51,-536.15 360.8,-595 310.76,-621.6 277.06,-681.91 260.96,-716.78"/>
<polygon fill="black" stroke="black" points="257.59,-715.75 256.71,-726.3 263.98,-718.6 257.59,-715.75"/>
<text text-anchor="middle" x="796.3" y="-583.8" font-family="Times,serif" font-size="14.00">继续循环</text>
</g>
<!-- HandleLHSSpace -->
<g id="node18" class="node">
<title>HandleLHSSpace</title>
<polygon fill="none" stroke="black" points="1269.71,-293 1142.71,-293 1142.71,-255 1269.71,-255 1269.71,-293"/>
<text text-anchor="middle" x="1206.21" y="-277.8" font-family="Times,serif" font-size="14.00">忽略空格</text>
<text text-anchor="middle" x="1206.21" y="-262.8" font-family="Times,serif" font-size="14.00">self.index += 1</text>
</g>
<!-- StateLHS&#45;&gt;HandleLHSSpace -->
<g id="edge14" class="edge">
<title>StateLHS&#45;&gt;HandleLHSSpace</title>
<path fill="none" stroke="black" d="M828.12,-384.96C856.92,-368.78 901.57,-345.43 942.8,-331 1005.22,-309.15 1079.04,-294.01 1132.45,-284.86"/>
<polygon fill="black" stroke="black" points="1133.24,-288.28 1142.52,-283.16 1132.08,-281.37 1133.24,-288.28"/>
<text text-anchor="middle" x="1005.3" y="-334.8" font-family="Times,serif" font-size="14.00">字符是 \t/\n/\r/空格</text>
</g>
<!-- HandleLHSElse -->
<g id="node19" class="node">
<title>HandleLHSElse</title>
<polygon fill="none" stroke="black" points="1276.21,-237 1136.21,-237 1136.21,-199 1276.21,-199 1276.21,-237"/>
<text text-anchor="middle" x="1206.21" y="-221.8" font-family="Times,serif" font-size="14.00">start = self.index</text>
<text text-anchor="middle" x="1206.21" y="-206.8" font-family="Times,serif" font-size="14.00">状态转 .target</text>
</g>
<!-- StateLHS&#45;&gt;HandleLHSElse -->
<g id="edge15" class="edge">
<title>StateLHS&#45;&gt;HandleLHSElse</title>
<path fill="none" stroke="black" d="M813.26,-384.8C838.17,-357.58 889.02,-306.51 942.8,-279 1000.21,-249.64 1071.89,-234.21 1125.82,-226.22"/>
<polygon fill="black" stroke="black" points="1126.61,-229.65 1136.01,-224.77 1125.62,-222.72 1126.61,-229.65"/>
<text text-anchor="middle" x="1005.3" y="-282.8" font-family="Times,serif" font-size="14.00">其他字符</text>
</g>
<!-- StateTarget&#45;&gt;LoopEnd -->
<g id="edge20" class="edge">
<title>StateTarget&#45;&gt;LoopEnd</title>
<path fill="none" stroke="black" d="M846.81,-496.19C874.8,-490.09 910.55,-483.26 942.8,-480 1008.56,-473.35 1084.06,-473.27 1137.14,-474.46"/>
<polygon fill="black" stroke="black" points="1137.37,-477.96 1147.45,-474.71 1137.54,-470.96 1137.37,-477.96"/>
<text text-anchor="middle" x="1005.3" y="-498.8" font-family="Times,serif" font-size="14.00">其他字符</text>
<text text-anchor="middle" x="1005.3" y="-483.8" font-family="Times,serif" font-size="14.00">self.index += 1</text>
</g>
<!-- StateTarget&#45;&gt;StateTargetReverseSolidus -->
<g id="edge18" class="edge">
<title>StateTarget&#45;&gt;StateTargetReverseSolidus</title>
<path fill="none" stroke="black" d="M846.82,-503.03C871.72,-498.75 901.48,-490.8 924.8,-476 935.46,-469.23 931.76,-460.15 942.8,-454 968.03,-439.92 1031.77,-431.23 1090.11,-426.03"/>
<polygon fill="black" stroke="black" points="1090.51,-429.51 1100.17,-425.16 1089.91,-422.54 1090.51,-429.51"/>
<text text-anchor="middle" x="1005.3" y="-457.8" font-family="Times,serif" font-size="14.00">字符是 \</text>
</g>
<!-- StateTarget&#45;&gt;StateTargetDollarSign -->
<g id="edge17" class="edge">
<title>StateTarget&#45;&gt;StateTargetDollarSign</title>
<path fill="none" stroke="black" d="M846.88,-510.75C901.3,-514.19 991.13,-521.13 1067.8,-533 1084.94,-535.65 1103.16,-539.15 1120.53,-542.81"/>
<polygon fill="black" stroke="black" points="1120.13,-546.3 1130.64,-544.98 1121.6,-539.46 1120.13,-546.3"/>
<text text-anchor="middle" x="1005.3" y="-536.8" font-family="Times,serif" font-size="14.00">字符是 $</text>
</g>
<!-- StateTarget&#45;&gt;StateTargetColon -->
<g id="edge19" class="edge">
<title>StateTarget&#45;&gt;StateTargetColon</title>
<path fill="none" stroke="black" d="M847.1,-513.63C871.79,-518.07 901.27,-525.98 924.8,-540 1048.73,-613.86 1150.33,-759.37 1188.72,-819.27"/>
<polygon fill="black" stroke="black" points="1185.82,-821.23 1194.13,-827.8 1191.73,-817.48 1185.82,-821.23"/>
<text text-anchor="middle" x="1005.3" y="-658.8" font-family="Times,serif" font-size="14.00">字符是 :</text>
</g>
<!-- ErrorInvalidTarget -->
<g id="node20" class="node">
<title>ErrorInvalidTarget</title>
<polygon fill="none" stroke="black" points="1297.9,-327.92 1297.9,-352.08 1244.19,-369.17 1168.23,-369.17 1114.52,-352.08 1114.52,-327.92 1168.23,-310.83 1244.19,-310.83 1297.9,-327.92"/>
<text text-anchor="middle" x="1206.21" y="-343.8" font-family="Times,serif" font-size="14.00">返回错误</text>
<text text-anchor="middle" x="1206.21" y="-328.8" font-family="Times,serif" font-size="14.00">.invalid_target</text>
</g>
<!-- StateTarget&#45;&gt;ErrorInvalidTarget -->
<g id="edge16" class="edge">
<title>StateTarget&#45;&gt;ErrorInvalidTarget</title>
<path fill="none" stroke="black" d="M847,-507.19C873.34,-504.17 904.38,-496.08 924.8,-476 946.78,-454.38 920.97,-430.78 942.8,-409 985.01,-366.86 1049.66,-349.53 1104.23,-342.77"/>
<polygon fill="black" stroke="black" points="1104.75,-346.23 1114.29,-341.63 1103.96,-339.28 1104.75,-346.23"/>
<text text-anchor="middle" x="1005.3" y="-412.8" font-family="Times,serif" font-size="14.00">字符是 \t/\n/\r/空格</text>
</g>
<!-- HandleLHSSpace&#45;&gt;LoopEnd -->
<g id="edge25" class="edge">
<title>HandleLHSSpace&#45;&gt;LoopEnd</title>
<path fill="none" stroke="black" d="M1142.52,-266.13C1095.76,-264.29 1034.79,-270.92 1001.3,-311 965.39,-353.97 965.69,-393.77 1001.3,-437 1033.43,-476.02 1091.36,-484.39 1137.45,-483.94"/>
<polygon fill="black" stroke="black" points="1137.77,-487.43 1147.69,-483.69 1137.6,-480.43 1137.77,-487.43"/>
</g>
<!-- HandleLHSElse&#45;&gt;LoopEnd -->
<g id="edge26" class="edge">
<title>HandleLHSElse&#45;&gt;LoopEnd</title>
<path fill="none" stroke="black" d="M1136.12,-209.94C1090.33,-208.96 1033.29,-216.72 1001.3,-255 949.43,-317.07 949.87,-374.56 1001.3,-437 1033.43,-476.02 1091.36,-484.39 1137.45,-483.94"/>
<polygon fill="black" stroke="black" points="1137.77,-487.43 1147.69,-483.69 1137.6,-480.43 1137.77,-487.43"/>
</g>
<!-- ErrorInvalidTarget&#45;&gt;End -->
<g id="edge29" class="edge">
<title>ErrorInvalidTarget&#45;&gt;End</title>
<path fill="none" stroke="black" d="M1297.98,-328.45C1384.96,-317.38 1515.56,-300.76 1602.8,-289.65"/>
<polygon fill="black" stroke="black" points="1603.48,-293.09 1612.96,-288.36 1602.59,-286.15 1603.48,-293.09"/>
</g>
<!-- PostLoop -->
<g id="node21" class="node">
<title>PostLoop</title>
<polygon fill="none" stroke="black" points="1206.21,-133 1085.89,-115 1206.21,-97 1326.53,-115 1206.21,-133"/>
<text text-anchor="middle" x="1206.21" y="-111.3" font-family="Times,serif" font-size="14.00">根据最终状态处理</text>
</g>
<!-- PostLoop&#45;&gt;End -->
<g id="edge28" class="edge">
<title>PostLoop&#45;&gt;End</title>
<path fill="none" stroke="black" d="M1244.22,-127.39C1328.67,-155.64 1536.05,-225.03 1637.12,-258.85"/>
<polygon fill="black" stroke="black" points="1636.26,-262.25 1646.85,-262.11 1638.48,-255.61 1636.26,-262.25"/>
</g>
<!-- ReturnNull -->
<g id="node22" class="node">
<title>ReturnNull</title>
<polygon fill="none" stroke="black" points="1743.36,-52 1647.36,-52 1647.36,-16 1743.36,-16 1743.36,-52"/>
<text text-anchor="middle" x="1695.36" y="-30.3" font-family="Times,serif" font-size="14.00">ReturnNull</text>
</g>
<!-- PostLoop&#45;&gt;ReturnNull -->
<g id="edge21" class="edge">
<title>PostLoop&#45;&gt;ReturnNull</title>
<path fill="none" stroke="black" d="M1241.45,-102.24C1268.95,-92.48 1308.77,-79.48 1344.62,-72 1446.27,-50.78 1567.17,-40.99 1636.91,-36.8"/>
<polygon fill="black" stroke="black" points="1637.45,-40.27 1647.23,-36.2 1637.05,-33.29 1637.45,-40.27"/>
<text text-anchor="middle" x="1460.62" y="-75.8" font-family="Times,serif" font-size="14.00">状态是 .lhs/.rhs/...</text>
</g>
<!-- ErrorIncompleteTarget -->
<g id="node23" class="node">
<title>ErrorIncompleteTarget</title>
<polygon fill="none" stroke="black" points="1786.36,-106 1604.36,-106 1604.36,-70 1786.36,-70 1786.36,-106"/>
<text text-anchor="middle" x="1695.36" y="-84.3" font-family="Times,serif" font-size="14.00">ErrorIncompleteTarget</text>
</g>
<!-- PostLoop&#45;&gt;ErrorIncompleteTarget -->
<g id="edge22" class="edge">
<title>PostLoop&#45;&gt;ErrorIncompleteTarget</title>
<path fill="none" stroke="black" d="M1274.93,-107.23C1297.11,-104.91 1321.89,-102.58 1344.62,-101 1428.53,-95.17 1523.97,-91.85 1593.92,-90.02"/>
<polygon fill="black" stroke="black" points="1594.15,-93.51 1604.06,-89.76 1593.97,-86.52 1594.15,-93.51"/>
<text text-anchor="middle" x="1460.62" y="-104.8" font-family="Times,serif" font-size="14.00">状态是 .target</text>
</g>
<!-- ErrorIncompleteEscape -->
<g id="node24" class="node">
<title>ErrorIncompleteEscape</title>
<polygon fill="none" stroke="black" points="1788.36,-160 1602.36,-160 1602.36,-124 1788.36,-124 1788.36,-160"/>
<text text-anchor="middle" x="1695.36" y="-138.3" font-family="Times,serif" font-size="14.00">ErrorIncompleteEscape</text>
</g>
<!-- PostLoop&#45;&gt;ErrorIncompleteEscape -->
<g id="edge23" class="edge">
<title>PostLoop&#45;&gt;ErrorIncompleteEscape</title>
<path fill="none" stroke="black" d="M1294.3,-119.83C1377.84,-124.46 1503.95,-131.45 1592.19,-136.34"/>
<polygon fill="black" stroke="black" points="1592.04,-139.83 1602.22,-136.89 1592.43,-132.85 1592.04,-139.83"/>
<text text-anchor="middle" x="1460.62" y="-138.8" font-family="Times,serif" font-size="14.00">状态是 .target_reverse_solidus/...</text>
</g>
</g>
</svg>
