<?xml version="1.0" encoding="UTF-8" standalone="no"?>
<!DOCTYPE svg PUBLIC "-//W3C//DTD SVG 1.1//EN"
 "http://www.w3.org/Graphics/SVG/1.1/DTD/svg11.dtd">
<!-- Generated by graphviz version 2.43.0 (0)
 -->
<!-- Title: runCommand Pages: 1 -->
<svg width="479pt" height="1441pt"
 viewBox="0.00 0.00 479.00 1441.00" xmlns="http://www.w3.org/2000/svg" xmlns:xlink="http://www.w3.org/1999/xlink">
<g id="graph0" class="graph" transform="scale(1 1) rotate(0) translate(4 1437)">
<title>runCommand</title>
<polygon fill="white" stroke="transparent" points="-4,4 -4,-1437 475,-1437 475,4 -4,4"/>
<!-- start -->
<g id="node1" class="node">
<title>start</title>
<path fill="none" stroke="black" d="M340,-1433C340,-1433 218,-1433 218,-1433 212,-1433 206,-1427 206,-1421 206,-1421 206,-1409 206,-1409 206,-1403 212,-1397 218,-1397 218,-1397 340,-1397 340,-1397 346,-1397 352,-1403 352,-1409 352,-1409 352,-1421 352,-1421 352,-1427 346,-1433 340,-1433"/>
<text text-anchor="middle" x="279" y="-1411.3" font-family="Times,serif" font-size="14.00">开始 runCommand</text>
</g>
<!-- init_vars -->
<g id="node2" class="node">
<title>init_vars</title>
<path fill="none" stroke="black" d="M339.5,-1360C339.5,-1360 218.5,-1360 218.5,-1360 212.5,-1360 206.5,-1354 206.5,-1348 206.5,-1348 206.5,-1334 206.5,-1334 206.5,-1328 212.5,-1322 218.5,-1322 218.5,-1322 339.5,-1322 339.5,-1322 345.5,-1322 351.5,-1328 351.5,-1334 351.5,-1334 351.5,-1348 351.5,-1348 351.5,-1354 345.5,-1360 339.5,-1360"/>
<text text-anchor="middle" x="279" y="-1344.8" font-family="Times,serif" font-size="14.00">初始化变量</text>
<text text-anchor="middle" x="279" y="-1329.8" font-family="Times,serif" font-size="14.00">(cwd, arena, step)</text>
</g>
<!-- start&#45;&gt;init_vars -->
<g id="edge1" class="edge">
<title>start&#45;&gt;init_vars</title>
<path fill="none" stroke="black" d="M279,-1396.94C279,-1388.99 279,-1379.31 279,-1370.31"/>
<polygon fill="black" stroke="black" points="282.5,-1370.2 279,-1360.2 275.5,-1370.2 282.5,-1370.2"/>
</g>
<!-- handle_child_proc -->
<g id="node3" class="node">
<title>handle_child_proc</title>
<path fill="none" stroke="black" d="M386.5,-1285C386.5,-1285 171.5,-1285 171.5,-1285 165.5,-1285 159.5,-1279 159.5,-1273 159.5,-1273 159.5,-1259 159.5,-1259 159.5,-1253 165.5,-1247 171.5,-1247 171.5,-1247 386.5,-1247 386.5,-1247 392.5,-1247 398.5,-1253 398.5,-1259 398.5,-1259 398.5,-1273 398.5,-1273 398.5,-1279 392.5,-1285 386.5,-1285"/>
<text text-anchor="middle" x="279" y="-1269.8" font-family="Times,serif" font-size="14.00">处理子进程配置</text>
<text text-anchor="middle" x="279" y="-1254.8" font-family="Times,serif" font-size="14.00">(handleChildProcUnsupported)</text>
</g>
<!-- init_vars&#45;&gt;handle_child_proc -->
<g id="edge2" class="edge">
<title>init_vars&#45;&gt;handle_child_proc</title>
<path fill="none" stroke="black" d="M279,-1321.96C279,-1313.88 279,-1304.18 279,-1295.18"/>
<polygon fill="black" stroke="black" points="282.5,-1295.09 279,-1285.09 275.5,-1295.09 282.5,-1295.09"/>
</g>
<!-- verbose_logging -->
<g id="node4" class="node">
<title>verbose_logging</title>
<path fill="none" stroke="black" d="M337.5,-1210C337.5,-1210 220.5,-1210 220.5,-1210 214.5,-1210 208.5,-1204 208.5,-1198 208.5,-1198 208.5,-1184 208.5,-1184 208.5,-1178 214.5,-1172 220.5,-1172 220.5,-1172 337.5,-1172 337.5,-1172 343.5,-1172 349.5,-1178 349.5,-1184 349.5,-1184 349.5,-1198 349.5,-1198 349.5,-1204 343.5,-1210 337.5,-1210"/>
<text text-anchor="middle" x="279" y="-1194.8" font-family="Times,serif" font-size="14.00">详细日志处理</text>
<text text-anchor="middle" x="279" y="-1179.8" font-family="Times,serif" font-size="14.00">(handleVerbose2)</text>
</g>
<!-- handle_child_proc&#45;&gt;verbose_logging -->
<g id="edge3" class="edge">
<title>handle_child_proc&#45;&gt;verbose_logging</title>
<path fill="none" stroke="black" d="M279,-1246.96C279,-1238.88 279,-1229.18 279,-1220.18"/>
<polygon fill="black" stroke="black" points="282.5,-1220.09 279,-1210.09 275.5,-1220.09 282.5,-1220.09"/>
</g>
<!-- spawn_child -->
<g id="node5" class="node">
<title>spawn_child</title>
<path fill="none" stroke="black" d="M361,-1135C361,-1135 197,-1135 197,-1135 191,-1135 185,-1129 185,-1123 185,-1123 185,-1109 185,-1109 185,-1103 191,-1097 197,-1097 197,-1097 361,-1097 361,-1097 367,-1097 373,-1103 373,-1109 373,-1109 373,-1123 373,-1123 373,-1129 367,-1135 361,-1135"/>
<text text-anchor="middle" x="279" y="-1119.8" font-family="Times,serif" font-size="14.00">尝试生成子进程</text>
<text text-anchor="middle" x="279" y="-1104.8" font-family="Times,serif" font-size="14.00">(spawnChildAndCollect)</text>
</g>
<!-- verbose_logging&#45;&gt;spawn_child -->
<g id="edge4" class="edge">
<title>verbose_logging&#45;&gt;spawn_child</title>
<path fill="none" stroke="black" d="M279,-1171.96C279,-1163.88 279,-1154.18 279,-1145.18"/>
<polygon fill="black" stroke="black" points="282.5,-1145.09 279,-1135.09 275.5,-1145.09 282.5,-1145.09"/>
</g>
<!-- check_spawn_error -->
<g id="node6" class="node">
<title>check_spawn_error</title>
<path fill="none" stroke="black" d="M267.29,-1057.39C267.29,-1057.39 209.94,-1044.61 209.94,-1044.61 204.08,-1043.31 204.08,-1040.69 209.94,-1039.39 209.94,-1039.39 267.29,-1026.61 267.29,-1026.61 273.14,-1025.31 284.86,-1025.31 290.71,-1026.61 290.71,-1026.61 348.06,-1039.39 348.06,-1039.39 353.92,-1040.69 353.92,-1043.31 348.06,-1044.61 348.06,-1044.61 290.71,-1057.39 290.71,-1057.39 284.86,-1058.69 273.14,-1058.69 267.29,-1057.39"/>
<text text-anchor="middle" x="279" y="-1038.3" font-family="Times,serif" font-size="14.00">生成错误？</text>
</g>
<!-- spawn_child&#45;&gt;check_spawn_error -->
<g id="edge5" class="edge">
<title>spawn_child&#45;&gt;check_spawn_error</title>
<path fill="none" stroke="black" d="M279,-1096.83C279,-1088.89 279,-1079.41 279,-1070.63"/>
<polygon fill="black" stroke="black" points="282.5,-1070.42 279,-1060.42 275.5,-1070.42 282.5,-1070.42"/>
</g>
<!-- error_handling -->
<g id="node7" class="node">
<title>error_handling</title>
<path fill="none" stroke="black" d="M255,-973C255,-973 177,-973 177,-973 171,-973 165,-967 165,-961 165,-961 165,-949 165,-949 165,-943 171,-937 177,-937 177,-937 255,-937 255,-937 261,-937 267,-943 267,-949 267,-949 267,-961 267,-961 267,-967 261,-973 255,-973"/>
<text text-anchor="middle" x="216" y="-951.3" font-family="Times,serif" font-size="14.00">错误处理分支</text>
</g>
<!-- check_spawn_error&#45;&gt;error_handling -->
<g id="edge6" class="edge">
<title>check_spawn_error&#45;&gt;error_handling</title>
<path fill="none" stroke="black" d="M268.03,-1026.19C258.89,-1013.87 245.67,-996.04 234.85,-981.43"/>
<polygon fill="black" stroke="black" points="237.57,-979.22 228.8,-973.27 231.94,-983.39 237.57,-979.22"/>
<text text-anchor="middle" x="265.5" y="-994.8" font-family="Times,serif" font-size="14.00">错误</text>
</g>
<!-- process_results -->
<g id="node14" class="node">
<title>process_results</title>
<path fill="none" stroke="black" d="M334.5,-435C334.5,-435 231.5,-435 231.5,-435 225.5,-435 219.5,-429 219.5,-423 219.5,-423 219.5,-409 219.5,-409 219.5,-403 225.5,-397 231.5,-397 231.5,-397 334.5,-397 334.5,-397 340.5,-397 346.5,-403 346.5,-409 346.5,-409 346.5,-423 346.5,-423 346.5,-429 340.5,-435 334.5,-435"/>
<text text-anchor="middle" x="283" y="-419.8" font-family="Times,serif" font-size="14.00">处理执行结果</text>
<text text-anchor="middle" x="283" y="-404.8" font-family="Times,serif" font-size="14.00">(记录时间、内存)</text>
</g>
<!-- check_spawn_error&#45;&gt;process_results -->
<g id="edge15" class="edge">
<title>check_spawn_error&#45;&gt;process_results</title>
<path fill="none" stroke="black" d="M290.49,-1026.27C301.99,-1010.02 318,-982.63 318,-956 318,-956 318,-956 318,-503 318,-482.25 309.15,-460.62 300.35,-444.24"/>
<polygon fill="black" stroke="black" points="303.23,-442.22 295.24,-435.26 297.14,-445.68 303.23,-442.22"/>
<text text-anchor="middle" x="332.5" y="-705.8" font-family="Times,serif" font-size="14.00">成功</text>
</g>
<!-- check_exe_type -->
<g id="node8" class="node">
<title>check_exe_type</title>
<path fill="none" stroke="black" d="M133.39,-896.96C133.39,-896.96 11.61,-865.04 11.61,-865.04 5.8,-863.52 5.8,-860.48 11.61,-858.96 11.61,-858.96 133.39,-827.04 133.39,-827.04 139.2,-825.52 150.8,-825.52 156.61,-827.04 156.61,-827.04 278.39,-858.96 278.39,-858.96 284.2,-860.48 284.2,-863.52 278.39,-865.04 278.39,-865.04 156.61,-896.96 156.61,-896.96 150.8,-898.48 139.2,-898.48 133.39,-896.96"/>
<text text-anchor="middle" x="145" y="-865.8" font-family="Times,serif" font-size="14.00">检查可执行文件类型</text>
<text text-anchor="middle" x="145" y="-850.8" font-family="Times,serif" font-size="14.00">(artifact检查)</text>
</g>
<!-- error_handling&#45;&gt;check_exe_type -->
<g id="edge7" class="edge">
<title>error_handling&#45;&gt;check_exe_type</title>
<path fill="none" stroke="black" d="M202.65,-936.88C194.93,-927 184.9,-914.14 175.37,-901.93"/>
<polygon fill="black" stroke="black" points="178.13,-899.77 169.22,-894.04 172.61,-904.07 178.13,-899.77"/>
</g>
<!-- get_external_executor -->
<g id="node9" class="node">
<title>get_external_executor</title>
<path fill="none" stroke="black" d="M234,-773C234,-773 82,-773 82,-773 76,-773 70,-767 70,-761 70,-761 70,-747 70,-747 70,-741 76,-735 82,-735 82,-735 234,-735 234,-735 240,-735 246,-741 246,-747 246,-747 246,-761 246,-761 246,-767 240,-773 234,-773"/>
<text text-anchor="middle" x="158" y="-757.8" font-family="Times,serif" font-size="14.00">获取外部执行器</text>
<text text-anchor="middle" x="158" y="-742.8" font-family="Times,serif" font-size="14.00">(getExternalExecutor)</text>
</g>
<!-- check_exe_type&#45;&gt;get_external_executor -->
<g id="edge8" class="edge">
<title>check_exe_type&#45;&gt;get_external_executor</title>
<path fill="none" stroke="black" d="M149.4,-825.11C151.07,-811.51 152.95,-796.21 154.52,-783.39"/>
<polygon fill="black" stroke="black" points="158.01,-783.64 155.76,-773.29 151.07,-782.79 158.01,-783.64"/>
<text text-anchor="middle" x="201" y="-794.8" font-family="Times,serif" font-size="14.00">是有效artifact</text>
</g>
<!-- handle_foreign_error -->
<g id="node13" class="node">
<title>handle_foreign_error</title>
<path fill="none" stroke="black" d="M160.5,-435C160.5,-435 17.5,-435 17.5,-435 11.5,-435 5.5,-429 5.5,-423 5.5,-423 5.5,-409 5.5,-409 5.5,-403 11.5,-397 17.5,-397 17.5,-397 160.5,-397 160.5,-397 166.5,-397 172.5,-403 172.5,-409 172.5,-409 172.5,-423 172.5,-423 172.5,-429 166.5,-435 160.5,-435"/>
<text text-anchor="middle" x="89" y="-419.8" font-family="Times,serif" font-size="14.00">处理外部执行错误</text>
<text text-anchor="middle" x="89" y="-404.8" font-family="Times,serif" font-size="14.00">(failForeign/step.fail)</text>
</g>
<!-- check_exe_type&#45;&gt;handle_foreign_error -->
<g id="edge9" class="edge">
<title>check_exe_type&#45;&gt;handle_foreign_error</title>
<path fill="none" stroke="black" d="M89.62,-838.43C56.97,-821.06 22,-793.48 22,-755 22,-755 22,-755 22,-503 22,-478.71 38.84,-457.16 55.63,-441.71"/>
<polygon fill="black" stroke="black" points="58.04,-444.25 63.29,-435.05 53.45,-438.97 58.04,-444.25"/>
<text text-anchor="middle" x="36.5" y="-616.8" font-family="Times,serif" font-size="14.00">无效</text>
</g>
<!-- interp_argv_setup -->
<g id="node10" class="node">
<title>interp_argv_setup</title>
<path fill="none" stroke="black" d="M211,-684C211,-684 119,-684 119,-684 113,-684 107,-678 107,-672 107,-672 107,-658 107,-658 107,-652 113,-646 119,-646 119,-646 211,-646 211,-646 217,-646 223,-652 223,-658 223,-658 223,-672 223,-672 223,-678 217,-684 211,-684"/>
<text text-anchor="middle" x="165" y="-668.8" font-family="Times,serif" font-size="14.00">构建解释器参数</text>
<text text-anchor="middle" x="165" y="-653.8" font-family="Times,serif" font-size="14.00">(interp_argv)</text>
</g>
<!-- get_external_executor&#45;&gt;interp_argv_setup -->
<g id="edge10" class="edge">
<title>get_external_executor&#45;&gt;interp_argv_setup</title>
<path fill="none" stroke="black" d="M159.45,-734.97C160.4,-723.19 161.66,-707.56 162.73,-694.16"/>
<polygon fill="black" stroke="black" points="166.24,-694.25 163.55,-684 159.26,-693.69 166.24,-694.25"/>
<text text-anchor="middle" x="197" y="-705.8" font-family="Times,serif" font-size="14.00">选择解释器</text>
</g>
<!-- spawn_with_interpreter -->
<g id="node11" class="node">
<title>spawn_with_interpreter</title>
<path fill="none" stroke="black" d="M241.5,-595C241.5,-595 92.5,-595 92.5,-595 86.5,-595 80.5,-589 80.5,-583 80.5,-583 80.5,-571 80.5,-571 80.5,-565 86.5,-559 92.5,-559 92.5,-559 241.5,-559 241.5,-559 247.5,-559 253.5,-565 253.5,-571 253.5,-571 253.5,-583 253.5,-583 253.5,-589 247.5,-595 241.5,-595"/>
<text text-anchor="middle" x="167" y="-573.3" font-family="Times,serif" font-size="14.00">使用解释器再次生成进程</text>
</g>
<!-- interp_argv_setup&#45;&gt;spawn_with_interpreter -->
<g id="edge11" class="edge">
<title>interp_argv_setup&#45;&gt;spawn_with_interpreter</title>
<path fill="none" stroke="black" d="M165.42,-645.76C165.7,-633.93 166.06,-618.32 166.37,-605.05"/>
<polygon fill="black" stroke="black" points="169.87,-605.12 166.6,-595.04 162.87,-604.96 169.87,-605.12"/>
</g>
<!-- check_interpreter_error -->
<g id="node12" class="node">
<title>check_interpreter_error</title>
<path fill="none" stroke="black" d="M158.13,-520.22C158.13,-520.22 61.55,-505.78 61.55,-505.78 55.61,-504.89 55.61,-503.11 61.55,-502.22 61.55,-502.22 158.13,-487.78 158.13,-487.78 164.07,-486.89 175.93,-486.89 181.87,-487.78 181.87,-487.78 278.45,-502.22 278.45,-502.22 284.39,-503.11 284.39,-504.89 278.45,-505.78 278.45,-505.78 181.87,-520.22 181.87,-520.22 175.93,-521.11 164.07,-521.11 158.13,-520.22"/>
<text text-anchor="middle" x="170" y="-500.3" font-family="Times,serif" font-size="14.00">解释器执行错误？</text>
</g>
<!-- spawn_with_interpreter&#45;&gt;check_interpreter_error -->
<g id="edge12" class="edge">
<title>spawn_with_interpreter&#45;&gt;check_interpreter_error</title>
<path fill="none" stroke="black" d="M167.73,-558.81C168.07,-550.79 168.48,-541.05 168.86,-532.07"/>
<polygon fill="black" stroke="black" points="172.36,-532.17 169.28,-522.03 165.36,-531.87 172.36,-532.17"/>
</g>
<!-- check_interpreter_error&#45;&gt;handle_foreign_error -->
<g id="edge14" class="edge">
<title>check_interpreter_error&#45;&gt;handle_foreign_error</title>
<path fill="none" stroke="black" d="M155.89,-488.02C144.08,-475.48 126.96,-457.31 113,-442.49"/>
<polygon fill="black" stroke="black" points="115.44,-439.97 106.04,-435.09 110.34,-444.77 115.44,-439.97"/>
<text text-anchor="middle" x="150.5" y="-456.8" font-family="Times,serif" font-size="14.00">失败</text>
</g>
<!-- check_interpreter_error&#45;&gt;process_results -->
<g id="edge13" class="edge">
<title>check_interpreter_error&#45;&gt;process_results</title>
<path fill="none" stroke="black" d="M188.91,-488.61C205.92,-475.66 231.25,-456.39 251.34,-441.1"/>
<polygon fill="black" stroke="black" points="253.47,-443.87 259.31,-435.03 249.23,-438.3 253.47,-443.87"/>
<text text-anchor="middle" x="247.5" y="-456.8" font-family="Times,serif" font-size="14.00">成功</text>
</g>
<!-- end -->
<g id="node21" class="node">
<title>end</title>
<path fill="none" stroke="black" d="M295,-36C295,-36 265,-36 265,-36 259,-36 253,-30 253,-24 253,-24 253,-12 253,-12 253,-6 259,0 265,0 265,0 295,0 295,0 301,0 307,-6 307,-12 307,-12 307,-24 307,-24 307,-30 301,-36 295,-36"/>
<text text-anchor="middle" x="280" y="-14.3" font-family="Times,serif" font-size="14.00">结束</text>
</g>
<!-- handle_foreign_error&#45;&gt;end -->
<g id="edge26" class="edge">
<title>handle_foreign_error&#45;&gt;end</title>
<path fill="none" stroke="black" d="M89,-396.95C89,-382.39 89,-361.38 89,-343 89,-343 89,-343 89,-91 89,-58.47 187.21,-35.57 242.79,-25.22"/>
<polygon fill="black" stroke="black" points="243.42,-28.66 252.63,-23.43 242.17,-21.77 243.42,-28.66"/>
<text text-anchor="middle" x="118" y="-219.8" font-family="Times,serif" font-size="14.00">返回错误</text>
</g>
<!-- capture_output -->
<g id="node15" class="node">
<title>capture_output</title>
<path fill="none" stroke="black" d="M362,-360C362,-360 204,-360 204,-360 198,-360 192,-354 192,-348 192,-348 192,-336 192,-336 192,-330 198,-324 204,-324 204,-324 362,-324 362,-324 368,-324 374,-330 374,-336 374,-336 374,-348 374,-348 374,-354 368,-360 362,-360"/>
<text text-anchor="middle" x="283" y="-338.3" font-family="Times,serif" font-size="14.00">捕获stdout/stderr到文件</text>
</g>
<!-- process_results&#45;&gt;capture_output -->
<g id="edge16" class="edge">
<title>process_results&#45;&gt;capture_output</title>
<path fill="none" stroke="black" d="M283,-396.83C283,-388.89 283,-379.41 283,-370.63"/>
<polygon fill="black" stroke="black" points="286.5,-370.42 283,-360.42 279.5,-370.42 286.5,-370.42"/>
</g>
<!-- check_stdio_checks -->
<g id="node16" class="node">
<title>check_stdio_checks</title>
<path fill="none" stroke="black" d="M342.5,-287C342.5,-287 223.5,-287 223.5,-287 217.5,-287 211.5,-281 211.5,-275 211.5,-275 211.5,-261 211.5,-261 211.5,-255 217.5,-249 223.5,-249 223.5,-249 342.5,-249 342.5,-249 348.5,-249 354.5,-255 354.5,-261 354.5,-261 354.5,-275 354.5,-275 354.5,-281 348.5,-287 342.5,-287"/>
<text text-anchor="middle" x="283" y="-271.8" font-family="Times,serif" font-size="14.00">检查stdio配置</text>
<text text-anchor="middle" x="283" y="-256.8" font-family="Times,serif" font-size="14.00">(switch run.stdio)</text>
</g>
<!-- capture_output&#45;&gt;check_stdio_checks -->
<g id="edge17" class="edge">
<title>capture_output&#45;&gt;check_stdio_checks</title>
<path fill="none" stroke="black" d="M283,-323.94C283,-315.99 283,-306.31 283,-297.31"/>
<polygon fill="black" stroke="black" points="286.5,-297.2 283,-287.2 279.5,-297.2 286.5,-297.2"/>
</g>
<!-- expect_match -->
<g id="node17" class="node">
<title>expect_match</title>
<path fill="none" stroke="black" d="M453.5,-198C453.5,-198 342.5,-198 342.5,-198 336.5,-198 330.5,-192 330.5,-186 330.5,-186 330.5,-174 330.5,-174 330.5,-168 336.5,-162 342.5,-162 342.5,-162 453.5,-162 453.5,-162 459.5,-162 465.5,-168 465.5,-174 465.5,-174 465.5,-186 465.5,-186 465.5,-192 459.5,-198 453.5,-198"/>
<text text-anchor="middle" x="398" y="-176.3" font-family="Times,serif" font-size="14.00">匹配预期输出/状态</text>
</g>
<!-- check_stdio_checks&#45;&gt;expect_match -->
<g id="edge18" class="edge">
<title>check_stdio_checks&#45;&gt;expect_match</title>
<path fill="none" stroke="black" d="M307.11,-248.97C324.47,-235.99 348.05,-218.35 366.84,-204.3"/>
<polygon fill="black" stroke="black" points="369.19,-206.92 375.1,-198.13 364.99,-201.31 369.19,-206.92"/>
<text text-anchor="middle" x="373" y="-219.8" font-family="Times,serif" font-size="14.00">.check</text>
</g>
<!-- handle_zig_test -->
<g id="node19" class="node">
<title>handle_zig_test</title>
<path fill="none" stroke="black" d="M234.5,-198C234.5,-198 129.5,-198 129.5,-198 123.5,-198 117.5,-192 117.5,-186 117.5,-186 117.5,-174 117.5,-174 117.5,-168 123.5,-162 129.5,-162 129.5,-162 234.5,-162 234.5,-162 240.5,-162 246.5,-168 246.5,-174 246.5,-174 246.5,-186 246.5,-186 246.5,-192 240.5,-198 234.5,-198"/>
<text text-anchor="middle" x="182" y="-176.3" font-family="Times,serif" font-size="14.00">处理zig_test结果</text>
</g>
<!-- check_stdio_checks&#45;&gt;handle_zig_test -->
<g id="edge19" class="edge">
<title>check_stdio_checks&#45;&gt;handle_zig_test</title>
<path fill="none" stroke="black" d="M233.65,-248.95C224.42,-244.08 215.37,-238.13 208,-231 201.23,-224.44 195.88,-215.74 191.83,-207.44"/>
<polygon fill="black" stroke="black" points="194.91,-205.76 187.67,-198.03 188.51,-208.59 194.91,-205.76"/>
<text text-anchor="middle" x="238.5" y="-219.8" font-family="Times,serif" font-size="14.00">.zig_test</text>
</g>
<!-- handle_child_term -->
<g id="node20" class="node">
<title>handle_child_term</title>
<path fill="none" stroke="black" d="M259.5,-110C259.5,-110 138.5,-110 138.5,-110 132.5,-110 126.5,-104 126.5,-98 126.5,-98 126.5,-86 126.5,-86 126.5,-80 132.5,-74 138.5,-74 138.5,-74 259.5,-74 259.5,-74 265.5,-74 271.5,-80 271.5,-86 271.5,-86 271.5,-98 271.5,-98 271.5,-104 265.5,-110 259.5,-110"/>
<text text-anchor="middle" x="199" y="-88.3" font-family="Times,serif" font-size="14.00">处理子进程终止状态</text>
</g>
<!-- check_stdio_checks&#45;&gt;handle_child_term -->
<g id="edge20" class="edge">
<title>check_stdio_checks&#45;&gt;handle_child_term</title>
<path fill="none" stroke="black" d="M286.29,-248.62C290.31,-220.28 293.83,-165.41 269,-129 265.6,-124.01 261.28,-119.67 256.47,-115.9"/>
<polygon fill="black" stroke="black" points="258.21,-112.85 247.98,-110.09 254.26,-118.63 258.21,-112.85"/>
<text text-anchor="middle" x="302.5" y="-176.3" font-family="Times,serif" font-size="14.00">其他</text>
</g>
<!-- handle_mismatch -->
<g id="node18" class="node">
<title>handle_mismatch</title>
<path fill="none" stroke="black" d="M459,-111C459,-111 367,-111 367,-111 361,-111 355,-105 355,-99 355,-99 355,-85 355,-85 355,-79 361,-73 367,-73 367,-73 459,-73 459,-73 465,-73 471,-79 471,-85 471,-85 471,-99 471,-99 471,-105 465,-111 459,-111"/>
<text text-anchor="middle" x="413" y="-95.8" font-family="Times,serif" font-size="14.00">输出不匹配处理</text>
<text text-anchor="middle" x="413" y="-80.8" font-family="Times,serif" font-size="14.00">(step.fail)</text>
</g>
<!-- expect_match&#45;&gt;handle_mismatch -->
<g id="edge21" class="edge">
<title>expect_match&#45;&gt;handle_mismatch</title>
<path fill="none" stroke="black" d="M401.04,-161.6C403.05,-150.06 405.74,-134.65 408.05,-121.36"/>
<polygon fill="black" stroke="black" points="411.54,-121.72 409.81,-111.27 404.65,-120.52 411.54,-121.72"/>
<text text-anchor="middle" x="427.5" y="-132.8" font-family="Times,serif" font-size="14.00">不匹配</text>
</g>
<!-- expect_match&#45;&gt;end -->
<g id="edge22" class="edge">
<title>expect_match&#45;&gt;end</title>
<path fill="none" stroke="black" d="M371.34,-161.78C353.93,-149.41 331.77,-131.36 317,-111 302.69,-91.27 292.9,-65.23 286.99,-45.89"/>
<polygon fill="black" stroke="black" points="290.33,-44.82 284.19,-36.19 283.6,-46.77 290.33,-44.82"/>
<text text-anchor="middle" x="331.5" y="-88.3" font-family="Times,serif" font-size="14.00">匹配</text>
</g>
<!-- handle_mismatch&#45;&gt;end -->
<g id="edge23" class="edge">
<title>handle_mismatch&#45;&gt;end</title>
<path fill="none" stroke="black" d="M379.44,-72.83C360.17,-62.4 335.97,-49.3 316.27,-38.64"/>
<polygon fill="black" stroke="black" points="317.75,-35.45 307.29,-33.77 314.41,-41.61 317.75,-35.45"/>
</g>
<!-- handle_zig_test&#45;&gt;handle_child_term -->
<g id="edge24" class="edge">
<title>handle_zig_test&#45;&gt;handle_child_term</title>
<path fill="none" stroke="black" d="M180.67,-161.67C180.34,-151.96 180.62,-139.68 183,-129 183.71,-125.8 184.72,-122.53 185.89,-119.33"/>
<polygon fill="black" stroke="black" points="189.12,-120.68 189.73,-110.1 182.66,-117.98 189.12,-120.68"/>
<text text-anchor="middle" x="226" y="-132.8" font-family="Times,serif" font-size="14.00">检查测试结果</text>
</g>
<!-- handle_child_term&#45;&gt;end -->
<g id="edge25" class="edge">
<title>handle_child_term&#45;&gt;end</title>
<path fill="none" stroke="black" d="M218.2,-73.94C228.61,-64.68 241.65,-53.09 253.07,-42.94"/>
<polygon fill="black" stroke="black" points="255.51,-45.45 260.66,-36.19 250.86,-40.22 255.51,-45.45"/>
</g>
</g>
</svg>
