<?xml version="1.0" encoding="UTF-8" standalone="no"?>
<!DOCTYPE svg PUBLIC "-//W3C//DTD SVG 1.1//EN"
 "http://www.w3.org/Graphics/SVG/1.1/DTD/svg11.dtd">
<!-- Generated by graphviz version 2.43.0 (0)
 -->
<!-- Title: BitReaderFlow Pages: 1 -->
<svg width="1715pt" height="969pt"
 viewBox="0.00 0.00 1715.00 969.00" xmlns="http://www.w3.org/2000/svg" xmlns:xlink="http://www.w3.org/1999/xlink">
<g id="graph0" class="graph" transform="scale(1 1) rotate(0) translate(4 965)">
<title>BitReaderFlow</title>
<polygon fill="white" stroke="transparent" points="-4,4 -4,-965 1711,-965 1711,4 -4,4"/>
<g id="clust1" class="cluster">
<title>cluster_init</title>
<polygon fill="none" stroke="black" points="8,-610 8,-898 246,-898 246,-610 8,-610"/>
<text text-anchor="middle" x="127" y="-882.8" font-family="Courier,monospace" font-size="14.00">BitReader.init()</text>
</g>
<g id="clust2" class="cluster">
<title>cluster_fill</title>
<polygon fill="none" stroke="black" points="14,-8 14,-591 440,-591 440,-8 14,-8"/>
<text text-anchor="middle" x="227" y="-575.8" font-family="Courier,monospace" font-size="14.00">fill(nice)</text>
</g>
<g id="clust3" class="cluster">
<title>cluster_readF</title>
<polygon fill="none" stroke="black" points="890,-81 890,-373 1699,-373 1699,-81 890,-81"/>
<text text-anchor="middle" x="1294.5" y="-357.8" font-family="Courier,monospace" font-size="14.00">readF(U, how)</text>
</g>
<g id="clust4" class="cluster">
<title>cluster_readFixedCode</title>
<polygon fill="none" stroke="black" points="480,-185 480,-781 852,-781 852,-185 480,-185"/>
<text text-anchor="middle" x="666" y="-765.8" font-family="Courier,monospace" font-size="14.00">readFixedCode()</text>
</g>
<!-- start -->
<g id="node1" class="node">
<title>start</title>
<ellipse fill="none" stroke="black" cx="127" cy="-943" rx="90.98" ry="18"/>
<text text-anchor="middle" x="127" y="-939.3" font-family="Courier,monospace" font-size="14.00">Start BitReader</text>
</g>
<!-- init_start -->
<g id="node3" class="node">
<title>init_start</title>
<polygon fill="none" stroke="black" points="238.5,-844 15.5,-844 15.5,-808 238.5,-808 238.5,-844"/>
<text text-anchor="middle" x="127" y="-822.3" font-family="Courier,monospace" font-size="14.00">Initialize forward_reader</text>
</g>
<!-- start&#45;&gt;init_start -->
<g id="edge28" class="edge">
<title>start&#45;&gt;init_start</title>
<path fill="none" stroke="black" d="M127,-924.98C127,-924.98 127,-854.24 127,-854.24"/>
<polygon fill="black" stroke="black" points="130.5,-854.24 127,-844.24 123.5,-854.24 130.5,-854.24"/>
</g>
<!-- end -->
<g id="node2" class="node">
<title>end</title>
<ellipse fill="none" stroke="black" cx="405" cy="-108" rx="27" ry="18"/>
<text text-anchor="middle" x="405" y="-104.3" font-family="Courier,monospace" font-size="14.00">End</text>
</g>
<!-- init_fill -->
<g id="node4" class="node">
<title>init_fill</title>
<polygon fill="none" stroke="black" points="185,-727 69,-727 69,-691 185,-691 185,-727"/>
<text text-anchor="middle" x="127" y="-705.3" font-family="Courier,monospace" font-size="14.00">Call fill(1)</text>
</g>
<!-- init_start&#45;&gt;init_fill -->
<g id="edge1" class="edge">
<title>init_start&#45;&gt;init_fill</title>
<path fill="none" stroke="black" d="M127,-807.98C127,-807.98 127,-737.24 127,-737.24"/>
<polygon fill="black" stroke="black" points="130.5,-737.24 127,-727.24 123.5,-737.24 130.5,-737.24"/>
</g>
<!-- init_return -->
<g id="node5" class="node">
<title>init_return</title>
<polygon fill="none" stroke="black" points="180.5,-654 73.5,-654 73.5,-618 180.5,-618 180.5,-654"/>
<text text-anchor="middle" x="127" y="-632.3" font-family="Courier,monospace" font-size="14.00">Return Self</text>
</g>
<!-- init_fill&#45;&gt;init_return -->
<g id="edge2" class="edge">
<title>init_fill&#45;&gt;init_return</title>
<path fill="none" stroke="black" d="M127,-690.96C127,-690.96 127,-664.09 127,-664.09"/>
<polygon fill="black" stroke="black" points="130.5,-664.09 127,-654.09 123.5,-664.09 130.5,-664.09"/>
</g>
<!-- fill_start -->
<g id="node6" class="node">
<title>fill_start</title>
<polygon fill="none" stroke="black" points="226,-537 28,-537 28,-501 226,-501 226,-537"/>
<text text-anchor="middle" x="127" y="-515.3" font-family="Courier,monospace" font-size="14.00">Check if nbits &gt;= nice</text>
</g>
<!-- init_return&#45;&gt;fill_start -->
<g id="edge29" class="edge">
<title>init_return&#45;&gt;fill_start</title>
<path fill="none" stroke="black" d="M127,-617.98C127,-617.98 127,-547.24 127,-547.24"/>
<polygon fill="black" stroke="black" points="130.5,-547.24 127,-537.24 123.5,-547.24 130.5,-547.24"/>
</g>
<!-- fill_enough -->
<g id="node7" class="node">
<title>fill_enough</title>
<polygon fill="none" stroke="black" points="213,-52 152.17,-34 213,-16 273.83,-34 213,-52"/>
<text text-anchor="middle" x="213" y="-30.3" font-family="Courier,monospace" font-size="14.00">Return</text>
</g>
<!-- fill_start&#45;&gt;fill_enough -->
<g id="edge3" class="edge">
<title>fill_start&#45;&gt;fill_enough</title>
<path fill="none" stroke="black" d="M35,-500.87C35,-412.83 35,-34 35,-34 35,-34 142.24,-34 142.24,-34"/>
<polygon fill="black" stroke="black" points="142.24,-37.5 152.24,-34 142.24,-30.5 142.24,-37.5"/>
<text text-anchor="middle" x="52.5" y="-252.8" font-family="Courier,monospace" font-size="14.00">Yes</text>
</g>
<!-- fill_read_bytes -->
<g id="node8" class="node">
<title>fill_read_bytes</title>
<polygon fill="none" stroke="black" points="267,-450 77,-450 77,-414 267,-414 267,-450"/>
<text text-anchor="middle" x="172" y="-428.3" font-family="Courier,monospace" font-size="14.00">Calculate empty_bytes</text>
</g>
<!-- fill_start&#45;&gt;fill_read_bytes -->
<g id="edge4" class="edge">
<title>fill_start&#45;&gt;fill_read_bytes</title>
<path fill="none" stroke="black" d="M151.5,-500.97C151.5,-500.97 151.5,-460 151.5,-460"/>
<polygon fill="black" stroke="black" points="155,-460 151.5,-450 148,-460 155,-460"/>
<text text-anchor="middle" x="157.5" y="-471.8" font-family="Courier,monospace" font-size="14.00">No</text>
</g>
<!-- readF_start -->
<g id="node13" class="node">
<title>readF_start</title>
<polygon fill="none" stroke="black" points="1302,-319 1186,-319 1186,-283 1302,-283 1302,-319"/>
<text text-anchor="middle" x="1244" y="-297.3" font-family="Courier,monospace" font-size="14.00">Check U type</text>
</g>
<!-- fill_enough&#45;&gt;readF_start -->
<g id="edge30" class="edge">
<title>fill_enough&#45;&gt;readF_start</title>
<path fill="none" stroke="black" d="M273.72,-34C436.62,-34 871,-34 871,-34 871,-34 871,-307 871,-307 871,-307 1175.72,-307 1175.72,-307"/>
<polygon fill="black" stroke="black" points="1175.72,-310.5 1185.72,-307 1175.72,-303.5 1175.72,-310.5"/>
</g>
<!-- fill_read -->
<g id="node9" class="node">
<title>fill_read</title>
<polygon fill="none" stroke="black" points="323,-319 59,-319 59,-283 323,-283 323,-319"/>
<text text-anchor="middle" x="191" y="-297.3" font-family="Courier,monospace" font-size="14.00">Read bytes from forward_reader</text>
</g>
<!-- fill_read_bytes&#45;&gt;fill_read -->
<g id="edge5" class="edge">
<title>fill_read_bytes&#45;&gt;fill_read</title>
<path fill="none" stroke="black" d="M172,-413.79C172,-413.79 172,-329.06 172,-329.06"/>
<polygon fill="black" stroke="black" points="175.5,-329.06 172,-319.06 168.5,-329.06 175.5,-329.06"/>
</g>
<!-- fill_merge -->
<g id="node10" class="node">
<title>fill_merge</title>
<polygon fill="none" stroke="black" points="240,-230 42,-230 42,-194 240,-194 240,-230"/>
<text text-anchor="middle" x="141" y="-208.3" font-family="Courier,monospace" font-size="14.00">Merge into bits buffer</text>
</g>
<!-- fill_read&#45;&gt;fill_merge -->
<g id="edge6" class="edge">
<title>fill_read&#45;&gt;fill_merge</title>
<path fill="none" stroke="black" d="M149.5,-282.99C149.5,-282.99 149.5,-240.29 149.5,-240.29"/>
<polygon fill="black" stroke="black" points="153,-240.29 149.5,-230.29 146,-240.29 153,-240.29"/>
<text text-anchor="middle" x="206" y="-252.8" font-family="Courier,monospace" font-size="14.00">Bytes read &gt; 0</text>
</g>
<!-- fill_eos_check -->
<g id="node12" class="node">
<title>fill_eos_check</title>
<polygon fill="none" stroke="black" points="431.5,-230 258.5,-230 258.5,-194 431.5,-194 431.5,-230"/>
<text text-anchor="middle" x="345" y="-208.3" font-family="Courier,monospace" font-size="14.00">Check if nbits == 0</text>
</g>
<!-- fill_read&#45;&gt;fill_eos_check -->
<g id="edge9" class="edge">
<title>fill_read&#45;&gt;fill_eos_check</title>
<path fill="none" stroke="black" d="M290.75,-282.99C290.75,-282.99 290.75,-240.29 290.75,-240.29"/>
<polygon fill="black" stroke="black" points="294.25,-240.29 290.75,-230.29 287.25,-240.29 294.25,-240.29"/>
<text text-anchor="middle" x="363" y="-252.8" font-family="Courier,monospace" font-size="14.00">Bytes read == 0</text>
</g>
<!-- fill_update_nbits -->
<g id="node11" class="node">
<title>fill_update_nbits</title>
<polygon fill="none" stroke="black" points="223,-126 107,-126 107,-90 223,-90 223,-126"/>
<text text-anchor="middle" x="165" y="-104.3" font-family="Courier,monospace" font-size="14.00">Update nbits</text>
</g>
<!-- fill_merge&#45;&gt;fill_update_nbits -->
<g id="edge7" class="edge">
<title>fill_merge&#45;&gt;fill_update_nbits</title>
<path fill="none" stroke="black" d="M165,-193.88C165,-193.88 165,-136.26 165,-136.26"/>
<polygon fill="black" stroke="black" points="168.5,-136.26 165,-126.26 161.5,-136.26 168.5,-136.26"/>
</g>
<!-- fill_update_nbits&#45;&gt;fill_enough -->
<g id="edge8" class="edge">
<title>fill_update_nbits&#45;&gt;fill_enough</title>
<path fill="none" stroke="black" d="M187.67,-89.71C187.67,-89.71 187.67,-54.55 187.67,-54.55"/>
<polygon fill="black" stroke="black" points="191.17,-54.55 187.67,-44.55 184.17,-54.55 191.17,-54.55"/>
</g>
<!-- fill_eos_check&#45;&gt;end -->
<g id="edge10" class="edge">
<title>fill_eos_check&#45;&gt;end</title>
<path fill="none" stroke="black" d="M404.75,-193.88C404.75,-193.88 404.75,-136.26 404.75,-136.26"/>
<polygon fill="black" stroke="black" points="408.25,-136.26 404.75,-126.26 401.25,-136.26 408.25,-136.26"/>
<text text-anchor="middle" x="378" y="-163.8" font-family="Courier,monospace" font-size="14.00">Yes</text>
<text text-anchor="middle" x="378" y="-148.8" font-family="Courier,monospace" font-size="14.00">(EndOfStream)</text>
</g>
<!-- fill_eos_check&#45;&gt;fill_enough -->
<g id="edge11" class="edge">
<title>fill_eos_check&#45;&gt;fill_enough</title>
<path fill="none" stroke="black" d="M266.08,-193.95C266.08,-193.95 266.08,-46.42 266.08,-46.42"/>
<polygon fill="black" stroke="black" points="269.58,-46.42 266.08,-36.42 262.58,-46.42 269.58,-46.42"/>
<text text-anchor="middle" x="276.5" y="-104.3" font-family="Courier,monospace" font-size="14.00">No</text>
</g>
<!-- readF_u32u64_case -->
<g id="node14" class="node">
<title>readF_u32u64_case</title>
<polygon fill="none" stroke="black" points="1110.5,-230 945.5,-230 945.5,-194 1110.5,-194 1110.5,-230"/>
<text text-anchor="middle" x="1028" y="-208.3" font-family="Courier,monospace" font-size="14.00">Handle U == T case</text>
</g>
<!-- readF_start&#45;&gt;readF_u32u64_case -->
<g id="edge12" class="edge">
<title>readF_start&#45;&gt;readF_u32u64_case</title>
<path fill="none" stroke="black" d="M1185.83,-295C1121.86,-295 1028,-295 1028,-295 1028,-295 1028,-240.01 1028,-240.01"/>
<polygon fill="black" stroke="black" points="1031.5,-240.01 1028,-230.01 1024.5,-240.01 1031.5,-240.01"/>
<text text-anchor="middle" x="1125" y="-252.8" font-family="Courier,monospace" font-size="14.00">U == T</text>
</g>
<!-- readF_switch -->
<g id="node15" class="node">
<title>readF_switch</title>
<polygon fill="none" stroke="black" points="1314,-230 1174,-230 1174,-194 1314,-194 1314,-230"/>
<text text-anchor="middle" x="1244" y="-208.3" font-family="Courier,monospace" font-size="14.00">Switch on flags</text>
</g>
<!-- readF_start&#45;&gt;readF_switch -->
<g id="edge14" class="edge">
<title>readF_start&#45;&gt;readF_switch</title>
<path fill="none" stroke="black" d="M1244,-282.99C1244,-282.99 1244,-240.29 1244,-240.29"/>
<polygon fill="black" stroke="black" points="1247.5,-240.29 1244,-230.29 1240.5,-240.29 1247.5,-240.29"/>
<text text-anchor="middle" x="1273" y="-252.8" font-family="Courier,monospace" font-size="14.00">Other U</text>
</g>
<!-- readF_u32u64_case&#45;&gt;end -->
<g id="edge13" class="edge">
<title>readF_u32u64_case&#45;&gt;end</title>
<path fill="none" stroke="black" d="M945.36,-212C913.46,-212 884.5,-212 884.5,-212 884.5,-212 884.5,-96 884.5,-96 884.5,-96 435.3,-96 435.3,-96"/>
<polygon fill="black" stroke="black" points="435.3,-92.5 425.3,-96 435.3,-99.5 435.3,-92.5"/>
</g>
<!-- readF_normal -->
<g id="node16" class="node">
<title>readF_normal</title>
<polygon fill="none" stroke="black" points="1030,-127 898,-127 898,-89 1030,-89 1030,-127"/>
<text text-anchor="middle" x="964" y="-111.8" font-family="Courier,monospace" font-size="14.00">Normal read</text>
<text text-anchor="middle" x="964" y="-96.8" font-family="Courier,monospace" font-size="14.00">(Fill + Shift)</text>
</g>
<!-- readF_switch&#45;&gt;readF_normal -->
<g id="edge15" class="edge">
<title>readF_switch&#45;&gt;readF_normal</title>
<path fill="none" stroke="black" d="M1220.67,-193.81C1220.67,-178.82 1220.67,-160 1220.67,-160 1220.67,-160 987.75,-160 987.75,-160 987.75,-160 987.75,-137.07 987.75,-137.07"/>
<polygon fill="black" stroke="black" points="991.25,-137.07 987.75,-127.07 984.25,-137.07 991.25,-137.07"/>
<text text-anchor="middle" x="992" y="-156.3" font-family="Courier,monospace" font-size="14.00">how=0</text>
</g>
<!-- readF_peek -->
<g id="node17" class="node">
<title>readF_peek</title>
<polygon fill="none" stroke="black" points="1147.5,-127 1048.5,-127 1048.5,-89 1147.5,-89 1147.5,-127"/>
<text text-anchor="middle" x="1098" y="-111.8" font-family="Courier,monospace" font-size="14.00">Peek bits</text>
<text text-anchor="middle" x="1098" y="-96.8" font-family="Courier,monospace" font-size="14.00">(No shift)</text>
</g>
<!-- readF_switch&#45;&gt;readF_peek -->
<g id="edge16" class="edge">
<title>readF_switch&#45;&gt;readF_peek</title>
<path fill="none" stroke="black" d="M1173.79,-212C1149.85,-212 1129,-212 1129,-212 1129,-212 1129,-137.08 1129,-137.08"/>
<polygon fill="black" stroke="black" points="1132.5,-137.08 1129,-127.08 1125.5,-137.08 1132.5,-137.08"/>
<text text-anchor="middle" x="1191" y="-156.3" font-family="Courier,monospace" font-size="14.00">peek</text>
</g>
<!-- readF_buffered -->
<g id="node18" class="node">
<title>readF_buffered</title>
<polygon fill="none" stroke="black" points="1322.5,-126 1165.5,-126 1165.5,-90 1322.5,-90 1322.5,-126"/>
<text text-anchor="middle" x="1244" y="-104.3" font-family="Courier,monospace" font-size="14.00">Use buffered bits</text>
</g>
<!-- readF_switch&#45;&gt;readF_buffered -->
<g id="edge17" class="edge">
<title>readF_switch&#45;&gt;readF_buffered</title>
<path fill="none" stroke="black" d="M1267.33,-193.88C1267.33,-193.88 1267.33,-136.26 1267.33,-136.26"/>
<polygon fill="black" stroke="black" points="1270.83,-136.26 1267.33,-126.26 1263.83,-136.26 1270.83,-136.26"/>
<text text-anchor="middle" x="1277.5" y="-156.3" font-family="Courier,monospace" font-size="14.00">buffered</text>
</g>
<!-- readF_reverse -->
<g id="node19" class="node">
<title>readF_reverse</title>
<polygon fill="none" stroke="black" points="1457,-126 1341,-126 1341,-90 1457,-90 1457,-126"/>
<text text-anchor="middle" x="1399" y="-104.3" font-family="Courier,monospace" font-size="14.00">Reverse bits</text>
</g>
<!-- readF_switch&#45;&gt;readF_reverse -->
<g id="edge18" class="edge">
<title>readF_switch&#45;&gt;readF_reverse</title>
<path fill="none" stroke="black" d="M1314.24,-206C1355.25,-206 1399,-206 1399,-206 1399,-206 1399,-136.43 1399,-136.43"/>
<polygon fill="black" stroke="black" points="1402.5,-136.43 1399,-126.43 1395.5,-136.43 1402.5,-136.43"/>
<text text-anchor="middle" x="1396" y="-156.3" font-family="Courier,monospace" font-size="14.00">reverse</text>
</g>
<!-- readF_combinations -->
<g id="node20" class="node">
<title>readF_combinations</title>
<polygon fill="none" stroke="black" points="1690.5,-126 1475.5,-126 1475.5,-90 1690.5,-90 1690.5,-126"/>
<text text-anchor="middle" x="1583" y="-104.3" font-family="Courier,monospace" font-size="14.00">Handle flag combinations</text>
</g>
<!-- readF_switch&#45;&gt;readF_combinations -->
<g id="edge19" class="edge">
<title>readF_switch&#45;&gt;readF_combinations</title>
<path fill="none" stroke="black" d="M1314.24,-218C1413.54,-218 1583,-218 1583,-218 1583,-218 1583,-136.16 1583,-136.16"/>
<polygon fill="black" stroke="black" points="1586.5,-136.16 1583,-126.16 1579.5,-136.16 1586.5,-136.16"/>
<text text-anchor="middle" x="1570" y="-156.3" font-family="Courier,monospace" font-size="14.00">Combined flags</text>
</g>
<!-- readF_combinations&#45;&gt;end -->
<g id="edge31" class="edge">
<title>readF_combinations&#45;&gt;end</title>
<path fill="none" stroke="black" d="M1583,-89.89C1583,-80.1 1583,-70 1583,-70 1583,-70 405,-70 405,-70 405,-70 405,-79.89 405,-79.89"/>
<polygon fill="black" stroke="black" points="401.5,-79.89 405,-89.89 408.5,-79.89 401.5,-79.89"/>
<text text-anchor="middle" x="1075" y="-156.3" font-family="Courier,monospace" font-size="14.00">Return value</text>
</g>
<!-- fixed_fill -->
<g id="node21" class="node">
<title>fixed_fill</title>
<polygon fill="none" stroke="black" points="664,-727 540,-727 540,-691 664,-691 664,-727"/>
<text text-anchor="middle" x="602" y="-705.3" font-family="Courier,monospace" font-size="14.00">Fill 7+2 bits</text>
</g>
<!-- fixed_read7 -->
<g id="node22" class="node">
<title>fixed_read7</title>
<polygon fill="none" stroke="black" points="701,-654 503,-654 503,-618 701,-618 701,-654"/>
<text text-anchor="middle" x="602" y="-632.3" font-family="Courier,monospace" font-size="14.00">Read 7 bits (reversed)</text>
</g>
<!-- fixed_fill&#45;&gt;fixed_read7 -->
<g id="edge20" class="edge">
<title>fixed_fill&#45;&gt;fixed_read7</title>
<path fill="none" stroke="black" d="M602,-690.96C602,-690.96 602,-664.09 602,-664.09"/>
<polygon fill="black" stroke="black" points="605.5,-664.09 602,-654.09 598.5,-664.09 605.5,-664.09"/>
</g>
<!-- fixed_condition1 -->
<g id="node23" class="node">
<title>fixed_condition1</title>
<polygon fill="none" stroke="black" points="684.5,-537 519.5,-537 519.5,-501 684.5,-501 684.5,-537"/>
<text text-anchor="middle" x="602" y="-515.3" font-family="Courier,monospace" font-size="14.00">code7 &lt;= 0b0010111</text>
</g>
<!-- fixed_read7&#45;&gt;fixed_condition1 -->
<g id="edge21" class="edge">
<title>fixed_read7&#45;&gt;fixed_condition1</title>
<path fill="none" stroke="black" d="M602,-617.98C602,-617.98 602,-547.24 602,-547.24"/>
<polygon fill="black" stroke="black" points="605.5,-547.24 602,-537.24 598.5,-547.24 605.5,-547.24"/>
</g>
<!-- fixed_case1 -->
<g id="node24" class="node">
<title>fixed_case1</title>
<polygon fill="none" stroke="black" points="843.5,-450 678.5,-450 678.5,-414 843.5,-414 843.5,-450"/>
<text text-anchor="middle" x="761" y="-428.3" font-family="Courier,monospace" font-size="14.00">Return code7 + 256</text>
</g>
<!-- fixed_condition1&#45;&gt;fixed_case1 -->
<g id="edge22" class="edge">
<title>fixed_condition1&#45;&gt;fixed_case1</title>
<path fill="none" stroke="black" d="M684.7,-519C689.69,-519 692.75,-519 692.75,-519 692.75,-519 692.75,-460.03 692.75,-460.03"/>
<polygon fill="black" stroke="black" points="696.25,-460.03 692.75,-450.03 689.25,-460.03 696.25,-460.03"/>
<text text-anchor="middle" x="713.5" y="-471.8" font-family="Courier,monospace" font-size="14.00">Yes</text>
</g>
<!-- fixed_condition2 -->
<g id="node25" class="node">
<title>fixed_condition2</title>
<polygon fill="none" stroke="black" points="660.5,-450 495.5,-450 495.5,-414 660.5,-414 660.5,-450"/>
<text text-anchor="middle" x="578" y="-428.3" font-family="Courier,monospace" font-size="14.00">code7 &lt;= 0b1011111</text>
</g>
<!-- fixed_condition1&#45;&gt;fixed_condition2 -->
<g id="edge23" class="edge">
<title>fixed_condition1&#45;&gt;fixed_condition2</title>
<path fill="none" stroke="black" d="M590,-500.97C590,-500.97 590,-460 590,-460"/>
<polygon fill="black" stroke="black" points="593.5,-460 590,-450 586.5,-460 593.5,-460"/>
<text text-anchor="middle" x="598.5" y="-471.8" font-family="Courier,monospace" font-size="14.00">No</text>
</g>
<!-- fixed_case1&#45;&gt;end -->
<g id="edge32" class="edge">
<title>fixed_case1&#45;&gt;end</title>
<path fill="none" stroke="black" d="M843.67,-432C852.02,-432 857.5,-432 857.5,-432 857.5,-432 857.5,-102 857.5,-102 857.5,-102 440.62,-102 440.62,-102"/>
<polygon fill="black" stroke="black" points="440.62,-98.5 430.62,-102 440.62,-105.5 440.62,-98.5"/>
</g>
<!-- fixed_case2 -->
<g id="node26" class="node">
<title>fixed_case2</title>
<polygon fill="none" stroke="black" points="628,-320 488,-320 488,-282 628,-282 628,-320"/>
<text text-anchor="middle" x="558" y="-304.8" font-family="Courier,monospace" font-size="14.00">Read 1 more bit</text>
<text text-anchor="middle" x="558" y="-289.8" font-family="Courier,monospace" font-size="14.00">Calculate value</text>
</g>
<!-- fixed_condition2&#45;&gt;fixed_case2 -->
<g id="edge24" class="edge">
<title>fixed_condition2&#45;&gt;fixed_case2</title>
<path fill="none" stroke="black" d="M561.75,-413.79C561.75,-413.79 561.75,-330.34 561.75,-330.34"/>
<polygon fill="black" stroke="black" points="565.25,-330.34 561.75,-320.34 558.25,-330.34 565.25,-330.34"/>
<text text-anchor="middle" x="580.5" y="-384.8" font-family="Courier,monospace" font-size="14.00">Yes</text>
</g>
<!-- fixed_condition3 -->
<g id="node27" class="node">
<title>fixed_condition3</title>
<polygon fill="none" stroke="black" points="811.5,-319 646.5,-319 646.5,-283 811.5,-283 811.5,-319"/>
<text text-anchor="middle" x="729" y="-297.3" font-family="Courier,monospace" font-size="14.00">code7 &lt;= 0b1100011</text>
</g>
<!-- fixed_condition2&#45;&gt;fixed_condition3 -->
<g id="edge25" class="edge">
<title>fixed_condition2&#45;&gt;fixed_condition3</title>
<path fill="none" stroke="black" d="M653.5,-413.79C653.5,-413.79 653.5,-329.06 653.5,-329.06"/>
<polygon fill="black" stroke="black" points="657,-329.06 653.5,-319.06 650,-329.06 657,-329.06"/>
<text text-anchor="middle" x="681.5" y="-384.8" font-family="Courier,monospace" font-size="14.00">No</text>
</g>
<!-- fixed_case2&#45;&gt;end -->
<g id="edge33" class="edge">
<title>fixed_case2&#45;&gt;end</title>
<path fill="none" stroke="black" d="M487.82,-301C472.11,-301 460,-301 460,-301 460,-301 460,-120 460,-120 460,-120 435.17,-120 435.17,-120"/>
<polygon fill="black" stroke="black" points="435.17,-116.5 425.17,-120 435.17,-123.5 435.17,-116.5"/>
</g>
<!-- fixed_case3 -->
<g id="node28" class="node">
<title>fixed_case3</title>
<polygon fill="none" stroke="black" points="628,-231 488,-231 488,-193 628,-193 628,-231"/>
<text text-anchor="middle" x="558" y="-215.8" font-family="Courier,monospace" font-size="14.00">Read 1 bit</text>
<text text-anchor="middle" x="558" y="-200.8" font-family="Courier,monospace" font-size="14.00">Calculate value</text>
</g>
<!-- fixed_condition3&#45;&gt;fixed_case3 -->
<g id="edge26" class="edge">
<title>fixed_condition3&#45;&gt;fixed_case3</title>
<path fill="none" stroke="black" d="M646.5,-301C640.65,-301 637,-301 637,-301 637,-301 637,-212 637,-212 637,-212 636.12,-212 636.12,-212"/>
<polygon fill="black" stroke="black" points="638.24,-208.5 628.24,-212 638.24,-215.5 638.24,-208.5"/>
<text text-anchor="middle" x="639.5" y="-252.8" font-family="Courier,monospace" font-size="14.00">Yes</text>
</g>
<!-- fixed_case4 -->
<g id="node29" class="node">
<title>fixed_case4</title>
<polygon fill="none" stroke="black" points="844,-231 646,-231 646,-193 844,-193 844,-231"/>
<text text-anchor="middle" x="745" y="-215.8" font-family="Courier,monospace" font-size="14.00">Read 2 bits (reversed)</text>
<text text-anchor="middle" x="745" y="-200.8" font-family="Courier,monospace" font-size="14.00">Calculate value</text>
</g>
<!-- fixed_condition3&#45;&gt;fixed_case4 -->
<g id="edge27" class="edge">
<title>fixed_condition3&#45;&gt;fixed_case4</title>
<path fill="none" stroke="black" d="M729,-282.99C729,-282.99 729,-241.22 729,-241.22"/>
<polygon fill="black" stroke="black" points="732.5,-241.22 729,-231.22 725.5,-241.22 732.5,-241.22"/>
<text text-anchor="middle" x="745.5" y="-252.8" font-family="Courier,monospace" font-size="14.00">No</text>
</g>
<!-- fixed_case3&#45;&gt;end -->
<g id="edge34" class="edge">
<title>fixed_case3&#45;&gt;end</title>
<path fill="none" stroke="black" d="M558,-192.64C558,-164.08 558,-114 558,-114 558,-114 440.61,-114 440.61,-114"/>
<polygon fill="black" stroke="black" points="440.61,-110.5 430.61,-114 440.61,-117.5 440.61,-110.5"/>
</g>
<!-- fixed_case4&#45;&gt;end -->
<g id="edge35" class="edge">
<title>fixed_case4&#45;&gt;end</title>
<path fill="none" stroke="black" d="M745,-192.92C745,-162.9 745,-108 745,-108 745,-108 442.25,-108 442.25,-108"/>
<polygon fill="black" stroke="black" points="442.25,-104.5 432.25,-108 442.25,-111.5 442.25,-104.5"/>
</g>
</g>
</svg>
