<?xml version="1.0" encoding="UTF-8" standalone="no"?>
<!DOCTYPE svg PUBLIC "-//W3C//DTD SVG 1.1//EN"
 "http://www.w3.org/Graphics/SVG/1.1/DTD/svg11.dtd">
<!-- Generated by graphviz version 2.43.0 (0)
 -->
<!-- Title: DecoderFlow Pages: 1 -->
<svg width="614pt" height="2305pt"
 viewBox="0.00 0.00 614.00 2305.00" xmlns="http://www.w3.org/2000/svg" xmlns:xlink="http://www.w3.org/1999/xlink">
<g id="graph0" class="graph" transform="scale(1 1) rotate(0) translate(4 2301)">
<title>DecoderFlow</title>
<polygon fill="white" stroke="transparent" points="-4,4 -4,-2301 610,-2301 610,4 -4,4"/>
<!-- start -->
<g id="node1" class="node">
<title>start</title>
<path fill="none" stroke="black" d="M338,-2297C338,-2297 216,-2297 216,-2297 210,-2297 204,-2291 204,-2285 204,-2285 204,-2273 204,-2273 204,-2267 210,-2261 216,-2261 216,-2261 338,-2261 338,-2261 344,-2261 350,-2267 350,-2273 350,-2273 350,-2285 350,-2285 350,-2291 344,-2297 338,-2297"/>
<text text-anchor="middle" x="277" y="-2275.3" font-family="Times,serif" font-size="14.00">开始 Decoder.init()</text>
</g>
<!-- deinit -->
<g id="node2" class="node">
<title>deinit</title>
<ellipse fill="none" stroke="black" cx="218" cy="-2192" rx="105.08" ry="18"/>
<text text-anchor="middle" x="218" y="-2188.3" font-family="Times,serif" font-size="14.00">调用 deinit() 释放资源</text>
</g>
<!-- start&#45;&gt;deinit -->
<g id="edge44" class="edge">
<title>start&#45;&gt;deinit</title>
<path fill="none" stroke="black" stroke-dasharray="5,2" d="M265.06,-2260.8C256.66,-2248.7 245.28,-2232.3 235.82,-2218.67"/>
<polygon fill="black" stroke="black" points="238.5,-2216.39 229.92,-2210.18 232.75,-2220.39 238.5,-2216.39"/>
<text text-anchor="middle" x="303.5" y="-2231.8" font-family="Times,serif" font-size="14.00">调用 deinit() 时</text>
</g>
<!-- reader -->
<g id="node3" class="node">
<title>reader</title>
<path fill="none" stroke="black" d="M502.5,-2210C502.5,-2210 353.5,-2210 353.5,-2210 347.5,-2210 341.5,-2204 341.5,-2198 341.5,-2198 341.5,-2186 341.5,-2186 341.5,-2180 347.5,-2174 353.5,-2174 353.5,-2174 502.5,-2174 502.5,-2174 508.5,-2174 514.5,-2180 514.5,-2186 514.5,-2186 514.5,-2198 514.5,-2198 514.5,-2204 508.5,-2210 502.5,-2210"/>
<text text-anchor="middle" x="428" y="-2188.3" font-family="Times,serif" font-size="14.00">创建 Reader (reader())</text>
</g>
<!-- start&#45;&gt;reader -->
<g id="edge1" class="edge">
<title>start&#45;&gt;reader</title>
<path fill="none" stroke="black" d="M322.13,-2260.87C334.36,-2255.66 347.42,-2249.56 359,-2243 372.67,-2235.26 386.88,-2225.33 398.82,-2216.37"/>
<polygon fill="black" stroke="black" points="401.26,-2218.91 407.08,-2210.06 397.01,-2213.35 401.26,-2218.91"/>
</g>
<!-- read_start -->
<g id="node4" class="node">
<title>read_start</title>
<path fill="none" stroke="black" d="M478.5,-2123C478.5,-2123 377.5,-2123 377.5,-2123 371.5,-2123 365.5,-2117 365.5,-2111 365.5,-2111 365.5,-2099 365.5,-2099 365.5,-2093 371.5,-2087 377.5,-2087 377.5,-2087 478.5,-2087 478.5,-2087 484.5,-2087 490.5,-2093 490.5,-2099 490.5,-2099 490.5,-2111 490.5,-2111 490.5,-2117 484.5,-2123 478.5,-2123"/>
<text text-anchor="middle" x="428" y="-2101.3" font-family="Times,serif" font-size="14.00">进入 read() 函数</text>
</g>
<!-- reader&#45;&gt;read_start -->
<g id="edge2" class="edge">
<title>reader&#45;&gt;read_start</title>
<path fill="none" stroke="black" d="M428,-2173.8C428,-2162.16 428,-2146.55 428,-2133.24"/>
<polygon fill="black" stroke="black" points="431.5,-2133.18 428,-2123.18 424.5,-2133.18 431.5,-2133.18"/>
<text text-anchor="middle" x="473.5" y="-2144.8" font-family="Times,serif" font-size="14.00">调用 reader()</text>
</g>
<!-- check_unread -->
<g id="node5" class="node">
<title>check_unread</title>
<path fill="none" stroke="black" d="M430,-2050C430,-2050 230,-2050 230,-2050 224,-2050 218,-2044 218,-2038 218,-2038 218,-2026 218,-2026 218,-2020 224,-2014 230,-2014 230,-2014 430,-2014 430,-2014 436,-2014 442,-2020 442,-2026 442,-2026 442,-2038 442,-2038 442,-2044 436,-2050 430,-2050"/>
<text text-anchor="middle" x="330" y="-2028.3" font-family="Times,serif" font-size="14.00">检查未读数据长度 (unread_len)</text>
</g>
<!-- read_start&#45;&gt;check_unread -->
<g id="edge3" class="edge">
<title>read_start&#45;&gt;check_unread</title>
<path fill="none" stroke="black" d="M404.28,-2086.81C391.52,-2077.57 375.61,-2066.04 361.79,-2056.03"/>
<polygon fill="black" stroke="black" points="363.66,-2053.06 353.5,-2050.03 359.55,-2058.73 363.66,-2053.06"/>
</g>
<!-- copy_data -->
<g id="node6" class="node">
<title>copy_data</title>
<path fill="none" stroke="black" d="M197.5,-1909C197.5,-1909 62.5,-1909 62.5,-1909 56.5,-1909 50.5,-1903 50.5,-1897 50.5,-1897 50.5,-1885 50.5,-1885 50.5,-1879 56.5,-1873 62.5,-1873 62.5,-1873 197.5,-1873 197.5,-1873 203.5,-1873 209.5,-1879 209.5,-1885 209.5,-1885 209.5,-1897 209.5,-1897 209.5,-1903 203.5,-1909 197.5,-1909"/>
<text text-anchor="middle" x="130" y="-1887.3" font-family="Times,serif" font-size="14.00">复制数据到输出缓冲区</text>
</g>
<!-- check_unread&#45;&gt;copy_data -->
<g id="edge4" class="edge">
<title>check_unread&#45;&gt;copy_data</title>
<path fill="none" stroke="black" d="M253.71,-2013.98C240.87,-2009.29 228.11,-2003.4 217,-1996 186.24,-1975.53 160.5,-1941.07 145.18,-1917.47"/>
<polygon fill="black" stroke="black" points="148.13,-1915.59 139.83,-1909 142.22,-1919.33 148.13,-1915.59"/>
<text text-anchor="middle" x="271.5" y="-1984.8" font-family="Times,serif" font-size="14.00">unread_len &gt; 0</text>
</g>
<!-- check_err -->
<g id="node8" class="node">
<title>check_err</title>
<path fill="none" stroke="black" d="M402,-1963C402,-1963 258,-1963 258,-1963 252,-1963 246,-1957 246,-1951 246,-1951 246,-1939 246,-1939 246,-1933 252,-1927 258,-1927 258,-1927 402,-1927 402,-1927 408,-1927 414,-1933 414,-1939 414,-1939 414,-1951 414,-1951 414,-1957 408,-1963 402,-1963"/>
<text text-anchor="middle" x="330" y="-1941.3" font-family="Times,serif" font-size="14.00">检查错误状态 (self.err)</text>
</g>
<!-- check_unread&#45;&gt;check_err -->
<g id="edge6" class="edge">
<title>check_unread&#45;&gt;check_err</title>
<path fill="none" stroke="black" d="M330,-2013.8C330,-2002.16 330,-1986.55 330,-1973.24"/>
<polygon fill="black" stroke="black" points="333.5,-1973.18 330,-1963.18 326.5,-1973.18 333.5,-1973.18"/>
<text text-anchor="middle" x="390.5" y="-1984.8" font-family="Times,serif" font-size="14.00">unread_len == 0</text>
</g>
<!-- return_n -->
<g id="node7" class="node">
<title>return_n</title>
<path fill="none" stroke="black" d="M210.5,-1768C210.5,-1768 79.5,-1768 79.5,-1768 73.5,-1768 67.5,-1762 67.5,-1756 67.5,-1756 67.5,-1744 67.5,-1744 67.5,-1738 73.5,-1732 79.5,-1732 79.5,-1732 210.5,-1732 210.5,-1732 216.5,-1732 222.5,-1738 222.5,-1744 222.5,-1744 222.5,-1756 222.5,-1756 222.5,-1762 216.5,-1768 210.5,-1768"/>
<text text-anchor="middle" x="145" y="-1746.3" font-family="Times,serif" font-size="14.00">返回读取的字节数 (n)</text>
</g>
<!-- copy_data&#45;&gt;return_n -->
<g id="edge5" class="edge">
<title>copy_data&#45;&gt;return_n</title>
<path fill="none" stroke="black" d="M128.83,-1872.92C128.49,-1867.22 128.17,-1860.84 128,-1855 127.54,-1839.01 126.05,-1834.88 128,-1819 129.7,-1805.22 133.26,-1790.22 136.68,-1777.83"/>
<polygon fill="black" stroke="black" points="140.08,-1778.69 139.48,-1768.11 133.35,-1776.75 140.08,-1778.69"/>
</g>
<!-- handle_err -->
<g id="node9" class="node">
<title>handle_err</title>
<path fill="none" stroke="black" d="M288.5,-1855C288.5,-1855 149.5,-1855 149.5,-1855 143.5,-1855 137.5,-1849 137.5,-1843 137.5,-1843 137.5,-1831 137.5,-1831 137.5,-1825 143.5,-1819 149.5,-1819 149.5,-1819 288.5,-1819 288.5,-1819 294.5,-1819 300.5,-1825 300.5,-1831 300.5,-1831 300.5,-1843 300.5,-1843 300.5,-1849 294.5,-1855 288.5,-1855"/>
<text text-anchor="middle" x="219" y="-1833.3" font-family="Times,serif" font-size="14.00">处理错误: 返回错误或0</text>
</g>
<!-- check_err&#45;&gt;handle_err -->
<g id="edge7" class="edge">
<title>check_err&#45;&gt;handle_err</title>
<path fill="none" stroke="black" d="M276.88,-1926.94C267.47,-1922.2 258.34,-1916.3 251,-1909 238.96,-1897.04 231.03,-1879.73 226.08,-1865.21"/>
<polygon fill="black" stroke="black" points="229.29,-1863.74 222.98,-1855.23 222.61,-1865.82 229.29,-1863.74"/>
<text text-anchor="middle" x="304" y="-1887.3" font-family="Times,serif" font-size="14.00">self.err != null</text>
</g>
<!-- reset_buffer -->
<g id="node10" class="node">
<title>reset_buffer</title>
<path fill="none" stroke="black" d="M505,-1855C505,-1855 331,-1855 331,-1855 325,-1855 319,-1849 319,-1843 319,-1843 319,-1831 319,-1831 319,-1825 325,-1819 331,-1819 331,-1819 505,-1819 505,-1819 511,-1819 517,-1825 517,-1831 517,-1831 517,-1843 517,-1843 517,-1849 511,-1855 505,-1855"/>
<text text-anchor="middle" x="418" y="-1833.3" font-family="Times,serif" font-size="14.00">清空缓冲区并重置 read_pos</text>
</g>
<!-- check_err&#45;&gt;reset_buffer -->
<g id="edge9" class="edge">
<title>check_err&#45;&gt;reset_buffer</title>
<path fill="none" stroke="black" d="M344.14,-1926.97C358.42,-1909.76 380.66,-1882.98 397,-1863.29"/>
<polygon fill="black" stroke="black" points="399.91,-1865.27 403.6,-1855.34 394.52,-1860.8 399.91,-1865.27"/>
<text text-anchor="middle" x="444" y="-1887.3" font-family="Times,serif" font-size="14.00">self.err == null</text>
</g>
<!-- handle_err&#45;&gt;return_n -->
<g id="edge8" class="edge">
<title>handle_err&#45;&gt;return_n</title>
<path fill="none" stroke="black" d="M204.02,-1818.8C193.29,-1806.47 178.67,-1789.68 166.67,-1775.89"/>
<polygon fill="black" stroke="black" points="169.16,-1773.42 159.95,-1768.18 163.88,-1778.02 169.16,-1773.42"/>
<text text-anchor="middle" x="227.5" y="-1789.8" font-family="Times,serif" font-size="14.00">返回错误或0</text>
</g>
<!-- read_block -->
<g id="node11" class="node">
<title>read_block</title>
<path fill="none" stroke="black" d="M468.5,-1768C468.5,-1768 361.5,-1768 361.5,-1768 355.5,-1768 349.5,-1762 349.5,-1756 349.5,-1756 349.5,-1744 349.5,-1744 349.5,-1738 355.5,-1732 361.5,-1732 361.5,-1732 468.5,-1732 468.5,-1732 474.5,-1732 480.5,-1738 480.5,-1744 480.5,-1744 480.5,-1756 480.5,-1756 480.5,-1762 474.5,-1768 468.5,-1768"/>
<text text-anchor="middle" x="415" y="-1746.3" font-family="Times,serif" font-size="14.00">调用 readBlock()</text>
</g>
<!-- reset_buffer&#45;&gt;read_block -->
<g id="edge10" class="edge">
<title>reset_buffer&#45;&gt;read_block</title>
<path fill="none" stroke="black" d="M417.39,-1818.8C416.98,-1807.16 416.43,-1791.55 415.96,-1778.24"/>
<polygon fill="black" stroke="black" points="419.46,-1778.05 415.61,-1768.18 412.46,-1778.29 419.46,-1778.05"/>
</g>
<!-- read_block_start -->
<g id="node12" class="node">
<title>read_block_start</title>
<path fill="none" stroke="black" d="M458.5,-1681C458.5,-1681 351.5,-1681 351.5,-1681 345.5,-1681 339.5,-1675 339.5,-1669 339.5,-1669 339.5,-1657 339.5,-1657 339.5,-1651 345.5,-1645 351.5,-1645 351.5,-1645 458.5,-1645 458.5,-1645 464.5,-1645 470.5,-1651 470.5,-1657 470.5,-1657 470.5,-1669 470.5,-1669 470.5,-1675 464.5,-1681 458.5,-1681"/>
<text text-anchor="middle" x="405" y="-1659.3" font-family="Times,serif" font-size="14.00">进入 readBlock()</text>
</g>
<!-- read_block&#45;&gt;read_block_start -->
<g id="edge11" class="edge">
<title>read_block&#45;&gt;read_block_start</title>
<path fill="none" stroke="black" d="M412.98,-1731.8C411.61,-1720.16 409.77,-1704.55 408.2,-1691.24"/>
<polygon fill="black" stroke="black" points="411.67,-1690.7 407.02,-1681.18 404.71,-1691.52 411.67,-1690.7"/>
<text text-anchor="middle" x="468.5" y="-1702.8" font-family="Times,serif" font-size="14.00">进入 readBlock()</text>
</g>
<!-- block_counter -->
<g id="node13" class="node">
<title>block_counter</title>
<path fill="none" stroke="black" d="M508,-1608C508,-1608 256,-1608 256,-1608 250,-1608 244,-1602 244,-1596 244,-1596 244,-1584 244,-1584 244,-1578 250,-1572 256,-1572 256,-1572 508,-1572 508,-1572 514,-1572 520,-1578 520,-1584 520,-1584 520,-1596 520,-1596 520,-1602 514,-1608 508,-1608"/>
<text text-anchor="middle" x="382" y="-1586.3" font-family="Times,serif" font-size="14.00">创建 countingReader (block_counter)</text>
</g>
<!-- read_block_start&#45;&gt;block_counter -->
<g id="edge12" class="edge">
<title>read_block_start&#45;&gt;block_counter</title>
<path fill="none" stroke="black" d="M399.43,-1644.81C396.8,-1636.7 393.61,-1626.84 390.67,-1617.78"/>
<polygon fill="black" stroke="black" points="393.93,-1616.46 387.52,-1608.03 387.27,-1618.62 393.93,-1616.46"/>
</g>
<!-- header_hasher -->
<g id="node14" class="node">
<title>header_hasher</title>
<path fill="none" stroke="black" d="M469,-1535C469,-1535 295,-1535 295,-1535 289,-1535 283,-1529 283,-1523 283,-1523 283,-1511 283,-1511 283,-1505 289,-1499 295,-1499 295,-1499 469,-1499 469,-1499 475,-1499 481,-1505 481,-1511 481,-1511 481,-1523 481,-1523 481,-1529 475,-1535 469,-1535"/>
<text text-anchor="middle" x="382" y="-1513.3" font-family="Times,serif" font-size="14.00">创建 hashedReader 校验头</text>
</g>
<!-- block_counter&#45;&gt;header_hasher -->
<g id="edge13" class="edge">
<title>block_counter&#45;&gt;header_hasher</title>
<path fill="none" stroke="black" d="M382,-1571.81C382,-1563.79 382,-1554.05 382,-1545.07"/>
<polygon fill="black" stroke="black" points="385.5,-1545.03 382,-1535.03 378.5,-1545.03 385.5,-1545.03"/>
</g>
<!-- read_header_size -->
<g id="node15" class="node">
<title>read_header_size</title>
<path fill="none" stroke="black" d="M470.5,-1462C470.5,-1462 293.5,-1462 293.5,-1462 287.5,-1462 281.5,-1456 281.5,-1450 281.5,-1450 281.5,-1438 281.5,-1438 281.5,-1432 287.5,-1426 293.5,-1426 293.5,-1426 470.5,-1426 470.5,-1426 476.5,-1426 482.5,-1432 482.5,-1438 482.5,-1438 482.5,-1450 482.5,-1450 482.5,-1456 476.5,-1462 470.5,-1462"/>
<text text-anchor="middle" x="382" y="-1440.3" font-family="Times,serif" font-size="14.00">读取头部大小 (header_size)</text>
</g>
<!-- header_hasher&#45;&gt;read_header_size -->
<g id="edge14" class="edge">
<title>header_hasher&#45;&gt;read_header_size</title>
<path fill="none" stroke="black" d="M382,-1498.81C382,-1490.79 382,-1481.05 382,-1472.07"/>
<polygon fill="black" stroke="black" points="385.5,-1472.03 382,-1462.03 378.5,-1472.03 385.5,-1472.03"/>
</g>
<!-- check_header_size -->
<g id="node16" class="node">
<title>check_header_size</title>
<path fill="none" stroke="black" d="M445,-1389C445,-1389 319,-1389 319,-1389 313,-1389 307,-1383 307,-1377 307,-1377 307,-1365 307,-1365 307,-1359 313,-1353 319,-1353 319,-1353 445,-1353 445,-1353 451,-1353 457,-1359 457,-1365 457,-1365 457,-1377 457,-1377 457,-1383 451,-1389 445,-1389"/>
<text text-anchor="middle" x="382" y="-1367.3" font-family="Times,serif" font-size="14.00">header_size == 0?</text>
</g>
<!-- read_header_size&#45;&gt;check_header_size -->
<g id="edge15" class="edge">
<title>read_header_size&#45;&gt;check_header_size</title>
<path fill="none" stroke="black" d="M382,-1425.81C382,-1417.79 382,-1408.05 382,-1399.07"/>
<polygon fill="black" stroke="black" points="385.5,-1399.03 382,-1389.03 378.5,-1399.03 385.5,-1399.03"/>
</g>
<!-- end_stream -->
<g id="node17" class="node">
<title>end_stream</title>
<path fill="none" stroke="black" d="M291.5,-1302C291.5,-1302 76.5,-1302 76.5,-1302 70.5,-1302 64.5,-1296 64.5,-1290 64.5,-1290 64.5,-1278 64.5,-1278 64.5,-1272 70.5,-1266 76.5,-1266 76.5,-1266 291.5,-1266 291.5,-1266 297.5,-1266 303.5,-1272 303.5,-1278 303.5,-1278 303.5,-1290 303.5,-1290 303.5,-1296 297.5,-1302 291.5,-1302"/>
<text text-anchor="middle" x="184" y="-1280.3" font-family="Times,serif" font-size="14.00">返回 EndOfStreamWithNoError</text>
</g>
<!-- check_header_size&#45;&gt;end_stream -->
<g id="edge16" class="edge">
<title>check_header_size&#45;&gt;end_stream</title>
<path fill="none" stroke="black" d="M341.93,-1352.8C310.56,-1339.33 266.78,-1320.54 233.27,-1306.15"/>
<polygon fill="black" stroke="black" points="234.24,-1302.76 223.67,-1302.03 231.48,-1309.19 234.24,-1302.76"/>
<text text-anchor="middle" x="302.5" y="-1323.8" font-family="Times,serif" font-size="14.00">是</text>
</g>
<!-- parse_flags -->
<g id="node18" class="node">
<title>parse_flags</title>
<path fill="none" stroke="black" d="M430.5,-1302C430.5,-1302 333.5,-1302 333.5,-1302 327.5,-1302 321.5,-1296 321.5,-1290 321.5,-1290 321.5,-1278 321.5,-1278 321.5,-1272 327.5,-1266 333.5,-1266 333.5,-1266 430.5,-1266 430.5,-1266 436.5,-1266 442.5,-1272 442.5,-1278 442.5,-1278 442.5,-1290 442.5,-1290 442.5,-1296 436.5,-1302 430.5,-1302"/>
<text text-anchor="middle" x="382" y="-1280.3" font-family="Times,serif" font-size="14.00">解析 Flags 结构</text>
</g>
<!-- check_header_size&#45;&gt;parse_flags -->
<g id="edge17" class="edge">
<title>check_header_size&#45;&gt;parse_flags</title>
<path fill="none" stroke="black" d="M382,-1352.8C382,-1341.16 382,-1325.55 382,-1312.24"/>
<polygon fill="black" stroke="black" points="385.5,-1312.18 382,-1302.18 378.5,-1312.18 385.5,-1312.18"/>
<text text-anchor="middle" x="389.5" y="-1323.8" font-family="Times,serif" font-size="14.00">否</text>
</g>
<!-- check_filter_count -->
<g id="node19" class="node">
<title>check_filter_count</title>
<path fill="none" stroke="black" d="M437.5,-1229C437.5,-1229 326.5,-1229 326.5,-1229 320.5,-1229 314.5,-1223 314.5,-1217 314.5,-1217 314.5,-1205 314.5,-1205 314.5,-1199 320.5,-1193 326.5,-1193 326.5,-1193 437.5,-1193 437.5,-1193 443.5,-1193 449.5,-1199 449.5,-1205 449.5,-1205 449.5,-1217 449.5,-1217 449.5,-1223 443.5,-1229 437.5,-1229"/>
<text text-anchor="middle" x="382" y="-1207.3" font-family="Times,serif" font-size="14.00">filter_count &gt; 1?</text>
</g>
<!-- parse_flags&#45;&gt;check_filter_count -->
<g id="edge18" class="edge">
<title>parse_flags&#45;&gt;check_filter_count</title>
<path fill="none" stroke="black" d="M382,-1265.81C382,-1257.79 382,-1248.05 382,-1239.07"/>
<polygon fill="black" stroke="black" points="385.5,-1239.03 382,-1229.03 378.5,-1239.03 385.5,-1239.03"/>
</g>
<!-- unsupported_filter -->
<g id="node20" class="node">
<title>unsupported_filter</title>
<path fill="none" stroke="black" d="M249,-1142C249,-1142 97,-1142 97,-1142 91,-1142 85,-1136 85,-1130 85,-1130 85,-1118 85,-1118 85,-1112 91,-1106 97,-1106 97,-1106 249,-1106 249,-1106 255,-1106 261,-1112 261,-1118 261,-1118 261,-1130 261,-1130 261,-1136 255,-1142 249,-1142"/>
<text text-anchor="middle" x="173" y="-1120.3" font-family="Times,serif" font-size="14.00">返回 Unsupported 错误</text>
</g>
<!-- check_filter_count&#45;&gt;unsupported_filter -->
<g id="edge19" class="edge">
<title>check_filter_count&#45;&gt;unsupported_filter</title>
<path fill="none" stroke="black" d="M339.96,-1192.9C306.72,-1179.39 260.18,-1160.46 224.68,-1146.02"/>
<polygon fill="black" stroke="black" points="225.56,-1142.6 214.98,-1142.07 222.92,-1149.08 225.56,-1142.6"/>
<text text-anchor="middle" x="298.5" y="-1163.8" font-family="Times,serif" font-size="14.00">是</text>
</g>
<!-- read_packed_size -->
<g id="node21" class="node">
<title>read_packed_size</title>
<path fill="none" stroke="black" d="M473,-1142C473,-1142 291,-1142 291,-1142 285,-1142 279,-1136 279,-1130 279,-1130 279,-1118 279,-1118 279,-1112 285,-1106 291,-1106 291,-1106 473,-1106 473,-1106 479,-1106 485,-1112 485,-1118 485,-1118 485,-1130 485,-1130 485,-1136 479,-1142 473,-1142"/>
<text text-anchor="middle" x="382" y="-1120.3" font-family="Times,serif" font-size="14.00">读取 packed_size (LEB128)</text>
</g>
<!-- check_filter_count&#45;&gt;read_packed_size -->
<g id="edge20" class="edge">
<title>check_filter_count&#45;&gt;read_packed_size</title>
<path fill="none" stroke="black" d="M382,-1192.8C382,-1181.16 382,-1165.55 382,-1152.24"/>
<polygon fill="black" stroke="black" points="385.5,-1152.18 382,-1142.18 378.5,-1152.18 385.5,-1152.18"/>
<text text-anchor="middle" x="389.5" y="-1163.8" font-family="Times,serif" font-size="14.00">否</text>
</g>
<!-- read_unpacked_size -->
<g id="node22" class="node">
<title>read_unpacked_size</title>
<path fill="none" stroke="black" d="M482,-1069C482,-1069 282,-1069 282,-1069 276,-1069 270,-1063 270,-1057 270,-1057 270,-1045 270,-1045 270,-1039 276,-1033 282,-1033 282,-1033 482,-1033 482,-1033 488,-1033 494,-1039 494,-1045 494,-1045 494,-1057 494,-1057 494,-1063 488,-1069 482,-1069"/>
<text text-anchor="middle" x="382" y="-1047.3" font-family="Times,serif" font-size="14.00">读取 unpacked_size (LEB128)</text>
</g>
<!-- read_packed_size&#45;&gt;read_unpacked_size -->
<g id="edge21" class="edge">
<title>read_packed_size&#45;&gt;read_unpacked_size</title>
<path fill="none" stroke="black" d="M382,-1105.81C382,-1097.79 382,-1088.05 382,-1079.07"/>
<polygon fill="black" stroke="black" points="385.5,-1079.03 382,-1069.03 378.5,-1079.03 385.5,-1079.03"/>
</g>
<!-- check_filter_id -->
<g id="node23" class="node">
<title>check_filter_id</title>
<path fill="none" stroke="black" d="M472,-996C472,-996 290,-996 290,-996 284,-996 278,-990 278,-984 278,-984 278,-972 278,-972 278,-966 284,-960 290,-960 290,-960 472,-960 472,-960 478,-960 484,-966 484,-972 484,-972 484,-984 484,-984 484,-990 478,-996 472,-996"/>
<text text-anchor="middle" x="381" y="-974.3" font-family="Times,serif" font-size="14.00">验证 FilterId 是否为 LZMA2</text>
</g>
<!-- read_unpacked_size&#45;&gt;check_filter_id -->
<g id="edge22" class="edge">
<title>read_unpacked_size&#45;&gt;check_filter_id</title>
<path fill="none" stroke="black" d="M381.76,-1032.81C381.64,-1024.79 381.51,-1015.05 381.38,-1006.07"/>
<polygon fill="black" stroke="black" points="384.88,-1005.98 381.24,-996.03 377.88,-1006.08 384.88,-1005.98"/>
</g>
<!-- invalid_filter -->
<g id="node24" class="node">
<title>invalid_filter</title>
<path fill="none" stroke="black" d="M248,-909C248,-909 12,-909 12,-909 6,-909 0,-903 0,-897 0,-897 0,-885 0,-885 0,-879 6,-873 12,-873 12,-873 248,-873 248,-873 254,-873 260,-879 260,-885 260,-885 260,-897 260,-897 260,-903 254,-909 248,-909"/>
<text text-anchor="middle" x="130" y="-887.3" font-family="Times,serif" font-size="14.00">返回 Unsupported 或 CorruptInput</text>
</g>
<!-- check_filter_id&#45;&gt;invalid_filter -->
<g id="edge23" class="edge">
<title>check_filter_id&#45;&gt;invalid_filter</title>
<path fill="none" stroke="black" d="M330.51,-959.9C289.92,-946.15 232.79,-926.81 189.89,-912.28"/>
<polygon fill="black" stroke="black" points="191.01,-908.96 180.41,-909.07 188.76,-915.59 191.01,-908.96"/>
<text text-anchor="middle" x="307" y="-930.8" font-family="Times,serif" font-size="14.00">不符合条件</text>
</g>
<!-- read_properties -->
<g id="node25" class="node">
<title>read_properties</title>
<path fill="none" stroke="black" d="M471.5,-909C471.5,-909 290.5,-909 290.5,-909 284.5,-909 278.5,-903 278.5,-897 278.5,-897 278.5,-885 278.5,-885 278.5,-879 284.5,-873 290.5,-873 290.5,-873 471.5,-873 471.5,-873 477.5,-873 483.5,-879 483.5,-885 483.5,-885 483.5,-897 483.5,-897 483.5,-903 477.5,-909 471.5,-909"/>
<text text-anchor="middle" x="381" y="-887.3" font-family="Times,serif" font-size="14.00">读取 properties_size 并验证</text>
</g>
<!-- check_filter_id&#45;&gt;read_properties -->
<g id="edge24" class="edge">
<title>check_filter_id&#45;&gt;read_properties</title>
<path fill="none" stroke="black" d="M381,-959.8C381,-948.16 381,-932.55 381,-919.24"/>
<polygon fill="black" stroke="black" points="384.5,-919.18 381,-909.18 377.5,-919.18 384.5,-919.18"/>
<text text-anchor="middle" x="410" y="-930.8" font-family="Times,serif" font-size="14.00">符合条件</text>
</g>
<!-- check_header_padding -->
<g id="node26" class="node">
<title>check_header_padding</title>
<path fill="none" stroke="black" d="M446,-836C446,-836 316,-836 316,-836 310,-836 304,-830 304,-824 304,-824 304,-812 304,-812 304,-806 310,-800 316,-800 316,-800 446,-800 446,-800 452,-800 458,-806 458,-812 458,-812 458,-824 458,-824 458,-830 452,-836 446,-836"/>
<text text-anchor="middle" x="381" y="-814.3" font-family="Times,serif" font-size="14.00">验证头部填充字节为0</text>
</g>
<!-- read_properties&#45;&gt;check_header_padding -->
<g id="edge25" class="edge">
<title>read_properties&#45;&gt;check_header_padding</title>
<path fill="none" stroke="black" d="M381,-872.81C381,-864.79 381,-855.05 381,-846.07"/>
<polygon fill="black" stroke="black" points="384.5,-846.03 381,-836.03 377.5,-846.03 384.5,-846.03"/>
</g>
<!-- verify_header_hash -->
<g id="node27" class="node">
<title>verify_header_hash</title>
<path fill="none" stroke="black" d="M424,-763C424,-763 332,-763 332,-763 326,-763 320,-757 320,-751 320,-751 320,-739 320,-739 320,-733 326,-727 332,-727 332,-727 424,-727 424,-727 430,-727 436,-733 436,-739 436,-739 436,-751 436,-751 436,-757 430,-763 424,-763"/>
<text text-anchor="middle" x="378" y="-741.3" font-family="Times,serif" font-size="14.00">校验头部哈希值</text>
</g>
<!-- check_header_padding&#45;&gt;verify_header_hash -->
<g id="edge26" class="edge">
<title>check_header_padding&#45;&gt;verify_header_hash</title>
<path fill="none" stroke="black" d="M380.27,-799.81C379.93,-791.79 379.52,-782.05 379.14,-773.07"/>
<polygon fill="black" stroke="black" points="382.64,-772.87 378.72,-763.03 375.64,-773.17 382.64,-772.87"/>
</g>
<!-- hash_mismatch_header -->
<g id="node28" class="node">
<title>hash_mismatch_header</title>
<path fill="none" stroke="black" d="M220.5,-676C220.5,-676 75.5,-676 75.5,-676 69.5,-676 63.5,-670 63.5,-664 63.5,-664 63.5,-652 63.5,-652 63.5,-646 69.5,-640 75.5,-640 75.5,-640 220.5,-640 220.5,-640 226.5,-640 232.5,-646 232.5,-652 232.5,-652 232.5,-664 232.5,-664 232.5,-670 226.5,-676 220.5,-676"/>
<text text-anchor="middle" x="148" y="-654.3" font-family="Times,serif" font-size="14.00">返回 WrongChecksum</text>
</g>
<!-- verify_header_hash&#45;&gt;hash_mismatch_header -->
<g id="edge27" class="edge">
<title>verify_header_hash&#45;&gt;hash_mismatch_header</title>
<path fill="none" stroke="black" d="M331.73,-726.9C294.85,-713.27 243.07,-694.13 203.87,-679.65"/>
<polygon fill="black" stroke="black" points="204.79,-676.26 194.19,-676.07 202.36,-682.82 204.79,-676.26"/>
<text text-anchor="middle" x="313" y="-697.8" font-family="Times,serif" font-size="14.00">哈希不匹配</text>
</g>
<!-- decompress_data -->
<g id="node29" class="node">
<title>decompress_data</title>
<path fill="none" stroke="black" d="M493,-676C493,-676 263,-676 263,-676 257,-676 251,-670 251,-664 251,-664 251,-652 251,-652 251,-646 257,-640 263,-640 263,-640 493,-640 493,-640 499,-640 505,-646 505,-652 505,-652 505,-664 505,-664 505,-670 499,-676 493,-676"/>
<text text-anchor="middle" x="378" y="-654.3" font-family="Times,serif" font-size="14.00">调用 lzma2.decompress() 解压数据</text>
</g>
<!-- verify_header_hash&#45;&gt;decompress_data -->
<g id="edge28" class="edge">
<title>verify_header_hash&#45;&gt;decompress_data</title>
<path fill="none" stroke="black" d="M378,-726.8C378,-715.16 378,-699.55 378,-686.24"/>
<polygon fill="black" stroke="black" points="381.5,-686.18 378,-676.18 374.5,-686.18 381.5,-686.18"/>
<text text-anchor="middle" x="407" y="-697.8" font-family="Times,serif" font-size="14.00">哈希匹配</text>
</g>
<!-- verify_packed_size -->
<g id="node30" class="node">
<title>verify_packed_size</title>
<path fill="none" stroke="black" d="M446.5,-603C446.5,-603 303.5,-603 303.5,-603 297.5,-603 291.5,-597 291.5,-591 291.5,-591 291.5,-579 291.5,-579 291.5,-573 297.5,-567 303.5,-567 303.5,-567 446.5,-567 446.5,-567 452.5,-567 458.5,-573 458.5,-579 458.5,-579 458.5,-591 458.5,-591 458.5,-597 452.5,-603 446.5,-603"/>
<text text-anchor="middle" x="375" y="-581.3" font-family="Times,serif" font-size="14.00">验证 packed_size 匹配</text>
</g>
<!-- decompress_data&#45;&gt;verify_packed_size -->
<g id="edge29" class="edge">
<title>decompress_data&#45;&gt;verify_packed_size</title>
<path fill="none" stroke="black" d="M377.27,-639.81C376.93,-631.79 376.52,-622.05 376.14,-613.07"/>
<polygon fill="black" stroke="black" points="379.64,-612.87 375.72,-603.03 372.64,-613.17 379.64,-612.87"/>
</g>
<!-- size_mismatch -->
<g id="node31" class="node">
<title>size_mismatch</title>
<path fill="none" stroke="black" d="M252.5,-516C252.5,-516 133.5,-516 133.5,-516 127.5,-516 121.5,-510 121.5,-504 121.5,-504 121.5,-492 121.5,-492 121.5,-486 127.5,-480 133.5,-480 133.5,-480 252.5,-480 252.5,-480 258.5,-480 264.5,-486 264.5,-492 264.5,-492 264.5,-504 264.5,-504 264.5,-510 258.5,-516 252.5,-516"/>
<text text-anchor="middle" x="193" y="-494.3" font-family="Times,serif" font-size="14.00">返回 CorruptInput</text>
</g>
<!-- verify_packed_size&#45;&gt;size_mismatch -->
<g id="edge30" class="edge">
<title>verify_packed_size&#45;&gt;size_mismatch</title>
<path fill="none" stroke="black" d="M338.17,-566.8C309.46,-553.39 269.44,-534.7 238.69,-520.34"/>
<polygon fill="black" stroke="black" points="240.01,-517.09 229.46,-516.03 237.04,-523.43 240.01,-517.09"/>
<text text-anchor="middle" x="316.5" y="-537.8" font-family="Times,serif" font-size="14.00">不匹配</text>
</g>
<!-- verify_unpacked_size -->
<g id="node32" class="node">
<title>verify_unpacked_size</title>
<path fill="none" stroke="black" d="M455.5,-516C455.5,-516 294.5,-516 294.5,-516 288.5,-516 282.5,-510 282.5,-504 282.5,-504 282.5,-492 282.5,-492 282.5,-486 288.5,-480 294.5,-480 294.5,-480 455.5,-480 455.5,-480 461.5,-480 467.5,-486 467.5,-492 467.5,-492 467.5,-504 467.5,-504 467.5,-510 461.5,-516 455.5,-516"/>
<text text-anchor="middle" x="375" y="-494.3" font-family="Times,serif" font-size="14.00">验证 unpacked_size 匹配</text>
</g>
<!-- verify_packed_size&#45;&gt;verify_unpacked_size -->
<g id="edge31" class="edge">
<title>verify_packed_size&#45;&gt;verify_unpacked_size</title>
<path fill="none" stroke="black" d="M375,-566.8C375,-555.16 375,-539.55 375,-526.24"/>
<polygon fill="black" stroke="black" points="378.5,-526.18 375,-516.18 371.5,-526.18 378.5,-526.18"/>
<text text-anchor="middle" x="389.5" y="-537.8" font-family="Times,serif" font-size="14.00">匹配</text>
</g>
<!-- check_block_padding -->
<g id="node33" class="node">
<title>check_block_padding</title>
<path fill="none" stroke="black" d="M419,-429C419,-429 303,-429 303,-429 297,-429 291,-423 291,-417 291,-417 291,-405 291,-405 291,-399 297,-393 303,-393 303,-393 419,-393 419,-393 425,-393 431,-399 431,-405 431,-405 431,-417 431,-417 431,-423 425,-429 419,-429"/>
<text text-anchor="middle" x="361" y="-407.3" font-family="Times,serif" font-size="14.00">验证块填充字节为0</text>
</g>
<!-- verify_unpacked_size&#45;&gt;check_block_padding -->
<g id="edge32" class="edge">
<title>verify_unpacked_size&#45;&gt;check_block_padding</title>
<path fill="none" stroke="black" d="M372.17,-479.8C370.25,-468.16 367.68,-452.55 365.49,-439.24"/>
<polygon fill="black" stroke="black" points="368.91,-438.47 363.83,-429.18 362,-439.61 368.91,-438.47"/>
<text text-anchor="middle" x="383.5" y="-450.8" font-family="Times,serif" font-size="14.00">继续</text>
</g>
<!-- check_type -->
<g id="node34" class="node">
<title>check_type</title>
<path fill="none" stroke="black" d="M369.5,-356C369.5,-356 184.5,-356 184.5,-356 178.5,-356 172.5,-350 172.5,-344 172.5,-344 172.5,-332 172.5,-332 172.5,-326 178.5,-320 184.5,-320 184.5,-320 369.5,-320 369.5,-320 375.5,-320 381.5,-326 381.5,-332 381.5,-332 381.5,-344 381.5,-344 381.5,-350 375.5,-356 369.5,-356"/>
<text text-anchor="middle" x="277" y="-334.3" font-family="Times,serif" font-size="14.00">根据 self.check 选择校验方式</text>
</g>
<!-- check_block_padding&#45;&gt;check_type -->
<g id="edge33" class="edge">
<title>check_block_padding&#45;&gt;check_type</title>
<path fill="none" stroke="black" d="M340.67,-392.81C329.94,-383.74 316.61,-372.48 304.92,-362.6"/>
<polygon fill="black" stroke="black" points="307.04,-359.81 297.15,-356.03 302.52,-365.16 307.04,-359.81"/>
</g>
<!-- verify_crc32 -->
<g id="node35" class="node">
<title>verify_crc32</title>
<path fill="none" stroke="black" d="M170.5,-269C170.5,-269 53.5,-269 53.5,-269 47.5,-269 41.5,-263 41.5,-257 41.5,-257 41.5,-245 41.5,-245 41.5,-239 47.5,-233 53.5,-233 53.5,-233 170.5,-233 170.5,-233 176.5,-233 182.5,-239 182.5,-245 182.5,-245 182.5,-257 182.5,-257 182.5,-263 176.5,-269 170.5,-269"/>
<text text-anchor="middle" x="112" y="-247.3" font-family="Times,serif" font-size="14.00">计算并验证 CRC32</text>
</g>
<!-- check_type&#45;&gt;verify_crc32 -->
<g id="edge34" class="edge">
<title>check_type&#45;&gt;verify_crc32</title>
<path fill="none" stroke="black" d="M190.31,-319.91C177.22,-315.27 164.32,-309.41 153,-302 143.32,-295.66 134.79,-286.33 128.05,-277.43"/>
<polygon fill="black" stroke="black" points="130.81,-275.27 122.16,-269.15 125.1,-279.33 130.81,-275.27"/>
<text text-anchor="middle" x="210" y="-290.8" font-family="Times,serif" font-size="14.00">check == crc32</text>
</g>
<!-- verify_crc64 -->
<g id="node36" class="node">
<title>verify_crc64</title>
<path fill="none" stroke="black" d="M329.5,-269C329.5,-269 212.5,-269 212.5,-269 206.5,-269 200.5,-263 200.5,-257 200.5,-257 200.5,-245 200.5,-245 200.5,-239 206.5,-233 212.5,-233 212.5,-233 329.5,-233 329.5,-233 335.5,-233 341.5,-239 341.5,-245 341.5,-245 341.5,-257 341.5,-257 341.5,-263 335.5,-269 329.5,-269"/>
<text text-anchor="middle" x="271" y="-247.3" font-family="Times,serif" font-size="14.00">计算并验证 CRC64</text>
</g>
<!-- check_type&#45;&gt;verify_crc64 -->
<g id="edge35" class="edge">
<title>check_type&#45;&gt;verify_crc64</title>
<path fill="none" stroke="black" d="M273.49,-319.98C272.47,-314.29 271.5,-307.9 271,-302 270.38,-294.68 270.17,-286.73 270.16,-279.37"/>
<polygon fill="black" stroke="black" points="273.66,-279.2 270.28,-269.15 266.67,-279.11 273.66,-279.2"/>
<text text-anchor="middle" x="328" y="-290.8" font-family="Times,serif" font-size="14.00">check == crc64</text>
</g>
<!-- verify_sha256 -->
<g id="node37" class="node">
<title>verify_sha256</title>
<path fill="none" stroke="black" d="M498,-269C498,-269 372,-269 372,-269 366,-269 360,-263 360,-257 360,-257 360,-245 360,-245 360,-239 366,-233 372,-233 372,-233 498,-233 498,-233 504,-233 510,-239 510,-245 510,-245 510,-257 510,-257 510,-263 504,-269 498,-269"/>
<text text-anchor="middle" x="435" y="-247.3" font-family="Times,serif" font-size="14.00">计算并验证 SHA256</text>
</g>
<!-- check_type&#45;&gt;verify_sha256 -->
<g id="edge36" class="edge">
<title>check_type&#45;&gt;verify_sha256</title>
<path fill="none" stroke="black" d="M346.27,-319.93C359.64,-315.17 373.15,-309.26 385,-302 395.85,-295.36 406.11,-285.9 414.48,-276.99"/>
<polygon fill="black" stroke="black" points="417.23,-279.17 421.32,-269.39 412.03,-274.49 417.23,-279.17"/>
<text text-anchor="middle" x="467" y="-290.8" font-family="Times,serif" font-size="14.00">check == sha256</text>
</g>
<!-- check_hash_match -->
<g id="node38" class="node">
<title>check_hash_match</title>
<path fill="none" stroke="black" d="M321,-196C321,-196 221,-196 221,-196 215,-196 209,-190 209,-184 209,-184 209,-172 209,-172 209,-166 215,-160 221,-160 221,-160 321,-160 321,-160 327,-160 333,-166 333,-172 333,-172 333,-184 333,-184 333,-190 327,-196 321,-196"/>
<text text-anchor="middle" x="271" y="-174.3" font-family="Times,serif" font-size="14.00">哈希值是否匹配?</text>
</g>
<!-- verify_crc32&#45;&gt;check_hash_match -->
<g id="edge37" class="edge">
<title>verify_crc32&#45;&gt;check_hash_match</title>
<path fill="none" stroke="black" d="M150.08,-232.99C172.05,-223.19 199.86,-210.77 223.28,-200.31"/>
<polygon fill="black" stroke="black" points="224.97,-203.39 232.68,-196.11 222.12,-197 224.97,-203.39"/>
</g>
<!-- verify_crc64&#45;&gt;check_hash_match -->
<g id="edge38" class="edge">
<title>verify_crc64&#45;&gt;check_hash_match</title>
<path fill="none" stroke="black" d="M271,-232.81C271,-224.79 271,-215.05 271,-206.07"/>
<polygon fill="black" stroke="black" points="274.5,-206.03 271,-196.03 267.5,-206.03 274.5,-206.03"/>
</g>
<!-- verify_sha256&#45;&gt;check_hash_match -->
<g id="edge39" class="edge">
<title>verify_sha256&#45;&gt;check_hash_match</title>
<path fill="none" stroke="black" d="M395.72,-232.99C372.96,-223.14 344.12,-210.66 319.9,-200.17"/>
<polygon fill="black" stroke="black" points="321.1,-196.87 310.53,-196.11 318.32,-203.3 321.1,-196.87"/>
</g>
<!-- hash_mismatch -->
<g id="node39" class="node">
<title>hash_mismatch</title>
<path fill="none" stroke="black" d="M343.5,-109C343.5,-109 198.5,-109 198.5,-109 192.5,-109 186.5,-103 186.5,-97 186.5,-97 186.5,-85 186.5,-85 186.5,-79 192.5,-73 198.5,-73 198.5,-73 343.5,-73 343.5,-73 349.5,-73 355.5,-79 355.5,-85 355.5,-85 355.5,-97 355.5,-97 355.5,-103 349.5,-109 343.5,-109"/>
<text text-anchor="middle" x="271" y="-87.3" font-family="Times,serif" font-size="14.00">返回 WrongChecksum</text>
</g>
<!-- check_hash_match&#45;&gt;hash_mismatch -->
<g id="edge40" class="edge">
<title>check_hash_match&#45;&gt;hash_mismatch</title>
<path fill="none" stroke="black" d="M271,-159.8C271,-148.16 271,-132.55 271,-119.24"/>
<polygon fill="black" stroke="black" points="274.5,-119.18 271,-109.18 267.5,-119.18 274.5,-119.18"/>
<text text-anchor="middle" x="292.5" y="-130.8" font-family="Times,serif" font-size="14.00">不匹配</text>
</g>
<!-- increment_block -->
<g id="node40" class="node">
<title>increment_block</title>
<path fill="none" stroke="black" d="M506.5,-109C506.5,-109 387.5,-109 387.5,-109 381.5,-109 375.5,-103 375.5,-97 375.5,-97 375.5,-85 375.5,-85 375.5,-79 381.5,-73 387.5,-73 387.5,-73 506.5,-73 506.5,-73 512.5,-73 518.5,-79 518.5,-85 518.5,-85 518.5,-97 518.5,-97 518.5,-103 512.5,-109 506.5,-109"/>
<text text-anchor="middle" x="447" y="-87.3" font-family="Times,serif" font-size="14.00">block_count += 1</text>
</g>
<!-- check_hash_match&#45;&gt;increment_block -->
<g id="edge41" class="edge">
<title>check_hash_match&#45;&gt;increment_block</title>
<path fill="none" stroke="black" d="M306.62,-159.8C334.26,-146.45 372.75,-127.86 402.43,-113.52"/>
<polygon fill="black" stroke="black" points="404.25,-116.53 411.74,-109.03 401.21,-110.23 404.25,-116.53"/>
<text text-anchor="middle" x="384.5" y="-130.8" font-family="Times,serif" font-size="14.00">匹配</text>
</g>
<!-- return_void -->
<g id="node41" class="node">
<title>return_void</title>
<path fill="none" stroke="black" d="M522,-36C522,-36 472,-36 472,-36 466,-36 460,-30 460,-24 460,-24 460,-12 460,-12 460,-6 466,0 472,0 472,0 522,0 522,0 528,0 534,-6 534,-12 534,-12 534,-24 534,-24 534,-30 528,-36 522,-36"/>
<text text-anchor="middle" x="497" y="-14.3" font-family="Times,serif" font-size="14.00">返回成功</text>
</g>
<!-- increment_block&#45;&gt;return_void -->
<g id="edge42" class="edge">
<title>increment_block&#45;&gt;return_void</title>
<path fill="none" stroke="black" d="M459.1,-72.81C465.12,-64.27 472.51,-53.77 479.17,-44.32"/>
<polygon fill="black" stroke="black" points="482.11,-46.22 485.01,-36.03 476.39,-42.19 482.11,-46.22"/>
</g>
<!-- return_void&#45;&gt;read_start -->
<g id="edge43" class="edge">
<title>return_void&#45;&gt;read_start</title>
<path fill="none" stroke="black" d="M518.63,-36.16C532.53,-49.24 548,-68.6 548,-90 548,-2033 548,-2033 548,-2033 548,-2059.73 525.67,-2076.61 500.27,-2087.17"/>
<polygon fill="black" stroke="black" points="498.91,-2083.94 490.81,-2090.78 501.4,-2090.48 498.91,-2083.94"/>
<text text-anchor="middle" x="577" y="-1047.3" font-family="Times,serif" font-size="14.00">继续循环</text>
</g>
</g>
</svg>
