<?xml version="1.0" encoding="UTF-8" standalone="no"?>
<!DOCTYPE svg PUBLIC "-//W3C//DTD SVG 1.1//EN"
 "http://www.w3.org/Graphics/SVG/1.1/DTD/svg11.dtd">
<!-- Generated by graphviz version 2.43.0 (0)
 -->
<!-- Title: flowchart Pages: 1 -->
<svg width="377pt" height="787pt"
 viewBox="0.00 0.00 377.00 787.00" xmlns="http://www.w3.org/2000/svg" xmlns:xlink="http://www.w3.org/1999/xlink">
<g id="graph0" class="graph" transform="scale(1 1) rotate(0) translate(4 783)">
<title>flowchart</title>
<polygon fill="white" stroke="transparent" points="-4,4 -4,-783 373,-783 373,4 -4,4"/>
<g id="clust1" class="cluster">
<title>cluster_arg0</title>
<polygon fill="none" stroke="black" points="8,-436 8,-735 196,-735 196,-436 8,-436"/>
<text text-anchor="middle" x="102" y="-719.8" font-family="Times,serif" font-size="14.00">处理arg1[0]细节</text>
</g>
<!-- start -->
<g id="node1" class="node">
<title>start</title>
<path fill="none" stroke="black" d="M138,-779C138,-779 108,-779 108,-779 102,-779 96,-773 96,-767 96,-767 96,-755 96,-755 96,-749 102,-743 108,-743 108,-743 138,-743 138,-743 144,-743 150,-749 150,-755 150,-755 150,-767 150,-767 150,-773 144,-779 138,-779"/>
<text text-anchor="middle" x="123" y="-757.3" font-family="Helvetica,sans-Serif" font-size="14.00">开始</text>
</g>
<!-- process_arg0 -->
<g id="node2" class="node">
<title>process_arg0</title>
<path fill="none" stroke="black" d="M168.5,-704C168.5,-704 77.5,-704 77.5,-704 71.5,-704 65.5,-698 65.5,-692 65.5,-692 65.5,-648 65.5,-648 65.5,-642 71.5,-636 77.5,-636 77.5,-636 168.5,-636 168.5,-636 174.5,-636 180.5,-642 180.5,-648 180.5,-648 180.5,-692 180.5,-692 180.5,-698 174.5,-704 168.5,-704"/>
<text text-anchor="middle" x="123" y="-688.8" font-family="Helvetica,sans-Serif" font-size="14.00">处理arg1[0]</text>
<text text-anchor="middle" x="123" y="-673.8" font-family="Helvetica,sans-Serif" font-size="14.00">&#45; 乘法x1与常数</text>
<text text-anchor="middle" x="123" y="-658.8" font-family="Helvetica,sans-Serif" font-size="14.00">&#45; 分解高位低位</text>
<text text-anchor="middle" x="123" y="-643.8" font-family="Helvetica,sans-Serif" font-size="14.00">&#45; 处理进位</text>
</g>
<!-- start&#45;&gt;process_arg0 -->
<g id="edge1" class="edge">
<title>start&#45;&gt;process_arg0</title>
<path fill="none" stroke="black" d="M123,-742.84C123,-734.66 123,-724.46 123,-714.34"/>
<polygon fill="black" stroke="black" points="126.5,-714.33 123,-704.33 119.5,-714.33 126.5,-714.33"/>
</g>
<!-- process_arg1 -->
<g id="node3" class="node">
<title>process_arg1</title>
<path fill="none" stroke="black" d="M317,-600C317,-600 217,-600 217,-600 211,-600 205,-594 205,-588 205,-588 205,-544 205,-544 205,-538 211,-532 217,-532 217,-532 317,-532 317,-532 323,-532 329,-538 329,-544 329,-544 329,-588 329,-588 329,-594 323,-600 317,-600"/>
<text text-anchor="middle" x="267" y="-584.8" font-family="Helvetica,sans-Serif" font-size="14.00">处理arg1[1]</text>
<text text-anchor="middle" x="267" y="-569.8" font-family="Helvetica,sans-Serif" font-size="14.00">&#45; 乘法x26与常数</text>
<text text-anchor="middle" x="267" y="-554.8" font-family="Helvetica,sans-Serif" font-size="14.00">&#45; 分解高位低位</text>
<text text-anchor="middle" x="267" y="-539.8" font-family="Helvetica,sans-Serif" font-size="14.00">&#45; 处理进位</text>
</g>
<!-- process_arg0&#45;&gt;process_arg1 -->
<g id="edge2" class="edge">
<title>process_arg0&#45;&gt;process_arg1</title>
<path fill="none" stroke="black" d="M169.75,-635.88C183.08,-626.44 197.73,-616.06 211.53,-606.29"/>
<polygon fill="black" stroke="black" points="213.85,-608.94 219.99,-600.3 209.81,-603.22 213.85,-608.94"/>
</g>
<!-- mul_arg0 -->
<g id="node10" class="node">
<title>mul_arg0</title>
<path fill="none" stroke="black" d="M165.5,-584C165.5,-584 52.5,-584 52.5,-584 46.5,-584 40.5,-578 40.5,-572 40.5,-572 40.5,-560 40.5,-560 40.5,-554 46.5,-548 52.5,-548 52.5,-548 165.5,-548 165.5,-548 171.5,-548 177.5,-554 177.5,-560 177.5,-560 177.5,-572 177.5,-572 177.5,-578 171.5,-584 165.5,-584"/>
<text text-anchor="middle" x="109" y="-562.3" font-family="Helvetica,sans-Serif" font-size="14.00">mulxU64分解乘机</text>
</g>
<!-- process_arg0&#45;&gt;mul_arg0 -->
<!-- process_arg2 -->
<g id="node4" class="node">
<title>process_arg2</title>
<path fill="none" stroke="black" d="M318,-496C318,-496 218,-496 218,-496 212,-496 206,-490 206,-484 206,-484 206,-440 206,-440 206,-434 212,-428 218,-428 218,-428 318,-428 318,-428 324,-428 330,-434 330,-440 330,-440 330,-484 330,-484 330,-490 324,-496 318,-496"/>
<text text-anchor="middle" x="268" y="-480.8" font-family="Helvetica,sans-Serif" font-size="14.00">处理arg1[2]</text>
<text text-anchor="middle" x="268" y="-465.8" font-family="Helvetica,sans-Serif" font-size="14.00">&#45; 乘法x56与常数</text>
<text text-anchor="middle" x="268" y="-450.8" font-family="Helvetica,sans-Serif" font-size="14.00">&#45; 分解高位低位</text>
<text text-anchor="middle" x="268" y="-435.8" font-family="Helvetica,sans-Serif" font-size="14.00">&#45; 处理进位</text>
</g>
<!-- process_arg1&#45;&gt;process_arg2 -->
<g id="edge3" class="edge">
<title>process_arg1&#45;&gt;process_arg2</title>
<path fill="none" stroke="black" d="M267.32,-531.88C267.4,-523.78 267.49,-514.98 267.57,-506.47"/>
<polygon fill="black" stroke="black" points="271.08,-506.33 267.67,-496.3 264.08,-506.26 271.08,-506.33"/>
</g>
<!-- process_arg3 -->
<g id="node5" class="node">
<title>process_arg3</title>
<path fill="none" stroke="black" d="M318,-392C318,-392 218,-392 218,-392 212,-392 206,-386 206,-380 206,-380 206,-336 206,-336 206,-330 212,-324 218,-324 218,-324 318,-324 318,-324 324,-324 330,-330 330,-336 330,-336 330,-380 330,-380 330,-386 324,-392 318,-392"/>
<text text-anchor="middle" x="268" y="-376.8" font-family="Helvetica,sans-Serif" font-size="14.00">处理arg1[3]</text>
<text text-anchor="middle" x="268" y="-361.8" font-family="Helvetica,sans-Serif" font-size="14.00">&#45; 乘法x86与常数</text>
<text text-anchor="middle" x="268" y="-346.8" font-family="Helvetica,sans-Serif" font-size="14.00">&#45; 分解高位低位</text>
<text text-anchor="middle" x="268" y="-331.8" font-family="Helvetica,sans-Serif" font-size="14.00">&#45; 处理进位</text>
</g>
<!-- process_arg2&#45;&gt;process_arg3 -->
<g id="edge4" class="edge">
<title>process_arg2&#45;&gt;process_arg3</title>
<path fill="none" stroke="black" d="M268,-427.88C268,-419.78 268,-410.98 268,-402.47"/>
<polygon fill="black" stroke="black" points="271.5,-402.3 268,-392.3 264.5,-402.3 271.5,-402.3"/>
</g>
<!-- final_subtractions -->
<g id="node6" class="node">
<title>final_subtractions</title>
<path fill="none" stroke="black" d="M326,-288C326,-288 210,-288 210,-288 204,-288 198,-282 198,-276 198,-276 198,-247 198,-247 198,-241 204,-235 210,-235 210,-235 326,-235 326,-235 332,-235 338,-241 338,-247 338,-247 338,-276 338,-276 338,-282 332,-288 326,-288"/>
<text text-anchor="middle" x="268" y="-272.8" font-family="Helvetica,sans-Serif" font-size="14.00">最终减法调整</text>
<text text-anchor="middle" x="268" y="-257.8" font-family="Helvetica,sans-Serif" font-size="14.00">&#45; 四次带借位减法</text>
<text text-anchor="middle" x="268" y="-242.8" font-family="Helvetica,sans-Serif" font-size="14.00">&#45; 生成x117到x123</text>
</g>
<!-- process_arg3&#45;&gt;final_subtractions -->
<g id="edge5" class="edge">
<title>process_arg3&#45;&gt;final_subtractions</title>
<path fill="none" stroke="black" d="M268,-323.95C268,-315.72 268,-306.85 268,-298.48"/>
<polygon fill="black" stroke="black" points="271.5,-298.24 268,-288.24 264.5,-298.24 271.5,-298.24"/>
</g>
<!-- condition_check -->
<g id="node7" class="node">
<title>condition_check</title>
<path fill="none" stroke="black" d="M357,-199C357,-199 179,-199 179,-199 173,-199 167,-193 167,-187 167,-187 167,-158 167,-158 167,-152 173,-146 179,-146 179,-146 357,-146 357,-146 363,-146 369,-152 369,-158 369,-158 369,-187 369,-187 369,-193 363,-199 357,-199"/>
<text text-anchor="middle" x="268" y="-183.8" font-family="Helvetica,sans-Serif" font-size="14.00">条件判断</text>
<text text-anchor="middle" x="268" y="-168.8" font-family="Helvetica,sans-Serif" font-size="14.00">&#45; 检查借位x126</text>
<text text-anchor="middle" x="268" y="-153.8" font-family="Helvetica,sans-Serif" font-size="14.00">&#45; 使用cmovznzU64选择结果</text>
</g>
<!-- final_subtractions&#45;&gt;condition_check -->
<g id="edge6" class="edge">
<title>final_subtractions&#45;&gt;condition_check</title>
<path fill="none" stroke="black" d="M268,-234.87C268,-226.89 268,-217.93 268,-209.38"/>
<polygon fill="black" stroke="black" points="271.5,-209.25 268,-199.25 264.5,-209.25 271.5,-209.25"/>
</g>
<!-- store_result -->
<g id="node8" class="node">
<title>store_result</title>
<path fill="none" stroke="black" d="M327.5,-110C327.5,-110 208.5,-110 208.5,-110 202.5,-110 196.5,-104 196.5,-98 196.5,-98 196.5,-84 196.5,-84 196.5,-78 202.5,-72 208.5,-72 208.5,-72 327.5,-72 327.5,-72 333.5,-72 339.5,-78 339.5,-84 339.5,-84 339.5,-98 339.5,-98 339.5,-104 333.5,-110 327.5,-110"/>
<text text-anchor="middle" x="268" y="-94.8" font-family="Helvetica,sans-Serif" font-size="14.00">存储结果到out1</text>
<text text-anchor="middle" x="268" y="-79.8" font-family="Helvetica,sans-Serif" font-size="14.00">&#45; out1[0]到out1[3]</text>
</g>
<!-- condition_check&#45;&gt;store_result -->
<g id="edge7" class="edge">
<title>condition_check&#45;&gt;store_result</title>
<path fill="none" stroke="black" d="M268,-145.91C268,-137.74 268,-128.65 268,-120.3"/>
<polygon fill="black" stroke="black" points="271.5,-120.24 268,-110.24 264.5,-120.24 271.5,-120.24"/>
</g>
<!-- end -->
<g id="node9" class="node">
<title>end</title>
<path fill="none" stroke="black" d="M283,-36C283,-36 253,-36 253,-36 247,-36 241,-30 241,-24 241,-24 241,-12 241,-12 241,-6 247,0 253,0 253,0 283,0 283,0 289,0 295,-6 295,-12 295,-12 295,-24 295,-24 295,-30 289,-36 283,-36"/>
<text text-anchor="middle" x="268" y="-14.3" font-family="Helvetica,sans-Serif" font-size="14.00">结束</text>
</g>
<!-- store_result&#45;&gt;end -->
<g id="edge8" class="edge">
<title>store_result&#45;&gt;end</title>
<path fill="none" stroke="black" d="M268,-71.72C268,-63.97 268,-54.79 268,-46.27"/>
<polygon fill="black" stroke="black" points="271.5,-46 268,-36 264.5,-46 271.5,-46"/>
</g>
<!-- addcarry_arg0 -->
<g id="node11" class="node">
<title>addcarry_arg0</title>
<path fill="none" stroke="black" d="M176,-480C176,-480 28,-480 28,-480 22,-480 16,-474 16,-468 16,-468 16,-456 16,-456 16,-450 22,-444 28,-444 28,-444 176,-444 176,-444 182,-444 188,-450 188,-456 188,-456 188,-468 188,-468 188,-474 182,-480 176,-480"/>
<text text-anchor="middle" x="102" y="-458.3" font-family="Helvetica,sans-Serif" font-size="14.00">addcarryxU64处理进位</text>
</g>
<!-- mul_arg0&#45;&gt;addcarry_arg0 -->
</g>
</svg>
