<?xml version="1.0" encoding="UTF-8" standalone="no"?>
<!DOCTYPE svg PUBLIC "-//W3C//DTD SVG 1.1//EN"
 "http://www.w3.org/Graphics/SVG/1.1/DTD/svg11.dtd">
<!-- Generated by graphviz version 2.43.0 (0)
 -->
<!-- Title: flowchart Pages: 1 -->
<svg width="461pt" height="1647pt"
 viewBox="0.00 0.00 461.00 1647.00" xmlns="http://www.w3.org/2000/svg" xmlns:xlink="http://www.w3.org/1999/xlink">
<g id="graph0" class="graph" transform="scale(1 1) rotate(0) translate(4 1643)">
<title>flowchart</title>
<polygon fill="white" stroke="transparent" points="-4,4 -4,-1643 457,-1643 457,4 -4,4"/>
<g id="clust1" class="cluster">
<title>cluster_x6</title>
<polygon fill="none" stroke="black" stroke-dasharray="5,2" points="8,-930 8,-1377 204,-1377 204,-930 8,-930"/>
<text text-anchor="middle" x="106" y="-1361.8" font-family="Times,serif" font-size="14.00">处理x6的详细步骤</text>
</g>
<!-- start -->
<g id="node1" class="node">
<title>start</title>
<path fill="none" stroke="black" d="M208,-1639C208,-1639 178,-1639 178,-1639 172,-1639 166,-1633 166,-1627 166,-1627 166,-1615 166,-1615 166,-1609 172,-1603 178,-1603 178,-1603 208,-1603 208,-1603 214,-1603 220,-1609 220,-1615 220,-1615 220,-1627 220,-1627 220,-1633 214,-1639 208,-1639"/>
<text text-anchor="middle" x="193" y="-1617.3" font-family="Helvetica,sans-Serif" font-size="14.00">开始</text>
</g>
<!-- decompose_args -->
<g id="node2" class="node">
<title>decompose_args</title>
<path fill="none" stroke="black" d="M246.5,-1567C246.5,-1567 139.5,-1567 139.5,-1567 133.5,-1567 127.5,-1561 127.5,-1555 127.5,-1555 127.5,-1541 127.5,-1541 127.5,-1535 133.5,-1529 139.5,-1529 139.5,-1529 246.5,-1529 246.5,-1529 252.5,-1529 258.5,-1535 258.5,-1541 258.5,-1541 258.5,-1555 258.5,-1555 258.5,-1561 252.5,-1567 246.5,-1567"/>
<text text-anchor="middle" x="193" y="-1551.8" font-family="Helvetica,sans-Serif" font-size="14.00">分解参数</text>
<text text-anchor="middle" x="193" y="-1536.8" font-family="Helvetica,sans-Serif" font-size="14.00">从arg1提取x1&#45;x6</text>
</g>
<!-- start&#45;&gt;decompose_args -->
<g id="edge1" class="edge">
<title>start&#45;&gt;decompose_args</title>
<path fill="none" stroke="black" d="M193,-1602.81C193,-1595.11 193,-1585.82 193,-1577.15"/>
<polygon fill="black" stroke="black" points="196.5,-1577.02 193,-1567.02 189.5,-1577.02 196.5,-1577.02"/>
</g>
<!-- init_vars -->
<g id="node3" class="node">
<title>init_vars</title>
<path fill="none" stroke="black" d="M225,-1493C225,-1493 161,-1493 161,-1493 155,-1493 149,-1487 149,-1481 149,-1481 149,-1469 149,-1469 149,-1463 155,-1457 161,-1457 161,-1457 225,-1457 225,-1457 231,-1457 237,-1463 237,-1469 237,-1469 237,-1481 237,-1481 237,-1487 231,-1493 225,-1493"/>
<text text-anchor="middle" x="193" y="-1471.3" font-family="Helvetica,sans-Serif" font-size="14.00">初始化变量</text>
</g>
<!-- decompose_args&#45;&gt;init_vars -->
<g id="edge2" class="edge">
<title>decompose_args&#45;&gt;init_vars</title>
<path fill="none" stroke="black" d="M193,-1528.72C193,-1520.97 193,-1511.79 193,-1503.27"/>
<polygon fill="black" stroke="black" points="196.5,-1503 193,-1493 189.5,-1503 196.5,-1503"/>
</g>
<!-- process_x6 -->
<g id="node4" class="node">
<title>process_x6</title>
<path fill="none" stroke="black" d="M296,-1421C296,-1421 90,-1421 90,-1421 84,-1421 78,-1415 78,-1409 78,-1409 78,-1397 78,-1397 78,-1391 84,-1385 90,-1385 90,-1385 296,-1385 296,-1385 302,-1385 308,-1391 308,-1397 308,-1397 308,-1409 308,-1409 308,-1415 302,-1421 296,-1421"/>
<text text-anchor="middle" x="193" y="-1399.3" font-family="Helvetica,sans-Serif" font-size="14.00">处理x6（arg1[0]）与arg2的乘法</text>
</g>
<!-- init_vars&#45;&gt;process_x6 -->
<g id="edge3" class="edge">
<title>init_vars&#45;&gt;process_x6</title>
<path fill="none" stroke="black" d="M193,-1456.7C193,-1448.98 193,-1439.71 193,-1431.11"/>
<polygon fill="black" stroke="black" points="196.5,-1431.1 193,-1421.1 189.5,-1431.1 196.5,-1431.1"/>
</g>
<!-- add_carries_x6 -->
<g id="node5" class="node">
<title>add_carries_x6</title>
<path fill="none" stroke="black" d="M310,-1345C310,-1345 232,-1345 232,-1345 226,-1345 220,-1339 220,-1333 220,-1333 220,-1321 220,-1321 220,-1315 226,-1309 232,-1309 232,-1309 310,-1309 310,-1309 316,-1309 322,-1315 322,-1321 322,-1321 322,-1333 322,-1333 322,-1339 316,-1345 310,-1345"/>
<text text-anchor="middle" x="271" y="-1323.3" font-family="Helvetica,sans-Serif" font-size="14.00">累加进位处理</text>
</g>
<!-- process_x6&#45;&gt;add_carries_x6 -->
<g id="edge4" class="edge">
<title>process_x6&#45;&gt;add_carries_x6</title>
<path fill="none" stroke="black" d="M211.09,-1384.84C221.33,-1375.12 234.3,-1362.82 245.55,-1352.15"/>
<polygon fill="black" stroke="black" points="248.16,-1354.49 253.01,-1345.07 243.34,-1349.41 248.16,-1354.49"/>
</g>
<!-- mul_arg2_5 -->
<g id="node24" class="node">
<title>mul_arg2_5</title>
<path fill="none" stroke="black" d="M180,-1346C180,-1346 42,-1346 42,-1346 36,-1346 30,-1340 30,-1334 30,-1334 30,-1320 30,-1320 30,-1314 36,-1308 42,-1308 42,-1308 180,-1308 180,-1308 186,-1308 192,-1314 192,-1320 192,-1320 192,-1334 192,-1334 192,-1340 186,-1346 180,-1346"/>
<text text-anchor="middle" x="111" y="-1330.8" font-family="Helvetica,sans-Serif" font-size="14.00">x6 * arg2[5]</text>
<text text-anchor="middle" x="111" y="-1315.8" font-family="Helvetica,sans-Serif" font-size="14.00">(mulxU64生成x7, x8)</text>
</g>
<!-- process_x6&#45;&gt;mul_arg2_5 -->
<g id="edge28" class="edge">
<title>process_x6&#45;&gt;mul_arg2_5</title>
<path fill="none" stroke="black" d="M173.98,-1384.84C163.53,-1375.4 150.36,-1363.52 138.78,-1353.07"/>
<polygon fill="black" stroke="black" points="140.83,-1350.2 131.06,-1346.1 136.14,-1355.4 140.83,-1350.2"/>
</g>
<!-- montgomery_reduce_x6 -->
<g id="node6" class="node">
<title>montgomery_reduce_x6</title>
<path fill="none" stroke="black" d="M358.5,-1271C358.5,-1271 249.5,-1271 249.5,-1271 243.5,-1271 237.5,-1265 237.5,-1259 237.5,-1259 237.5,-1247 237.5,-1247 237.5,-1241 243.5,-1235 249.5,-1235 249.5,-1235 358.5,-1235 358.5,-1235 364.5,-1235 370.5,-1241 370.5,-1247 370.5,-1247 370.5,-1259 370.5,-1259 370.5,-1265 364.5,-1271 358.5,-1271"/>
<text text-anchor="middle" x="304" y="-1249.3" font-family="Helvetica,sans-Serif" font-size="14.00">Montgomery约减</text>
</g>
<!-- add_carries_x6&#45;&gt;montgomery_reduce_x6 -->
<g id="edge5" class="edge">
<title>add_carries_x6&#45;&gt;montgomery_reduce_x6</title>
<path fill="none" stroke="black" d="M278.82,-1308.94C282.67,-1300.54 287.4,-1290.23 291.71,-1280.81"/>
<polygon fill="black" stroke="black" points="295.02,-1281.99 296.01,-1271.44 288.66,-1279.07 295.02,-1281.99"/>
</g>
<!-- process_x1 -->
<g id="node7" class="node">
<title>process_x1</title>
<path fill="none" stroke="black" d="M432,-1197C432,-1197 226,-1197 226,-1197 220,-1197 214,-1191 214,-1185 214,-1185 214,-1173 214,-1173 214,-1167 220,-1161 226,-1161 226,-1161 432,-1161 432,-1161 438,-1161 444,-1167 444,-1173 444,-1173 444,-1185 444,-1185 444,-1191 438,-1197 432,-1197"/>
<text text-anchor="middle" x="329" y="-1175.3" font-family="Helvetica,sans-Serif" font-size="14.00">处理x1（arg1[1]）与arg2的乘法</text>
</g>
<!-- montgomery_reduce_x6&#45;&gt;process_x1 -->
<g id="edge6" class="edge">
<title>montgomery_reduce_x6&#45;&gt;process_x1</title>
<path fill="none" stroke="black" d="M309.92,-1234.94C312.81,-1226.63 316.35,-1216.44 319.59,-1207.11"/>
<polygon fill="black" stroke="black" points="322.97,-1208.04 322.94,-1197.44 316.36,-1205.74 322.97,-1208.04"/>
</g>
<!-- add_carries_x1 -->
<g id="node8" class="node">
<title>add_carries_x1</title>
<path fill="none" stroke="black" d="M368,-1123C368,-1123 290,-1123 290,-1123 284,-1123 278,-1117 278,-1111 278,-1111 278,-1099 278,-1099 278,-1093 284,-1087 290,-1087 290,-1087 368,-1087 368,-1087 374,-1087 380,-1093 380,-1099 380,-1099 380,-1111 380,-1111 380,-1117 374,-1123 368,-1123"/>
<text text-anchor="middle" x="329" y="-1101.3" font-family="Helvetica,sans-Serif" font-size="14.00">累加进位处理</text>
</g>
<!-- process_x1&#45;&gt;add_carries_x1 -->
<g id="edge7" class="edge">
<title>process_x1&#45;&gt;add_carries_x1</title>
<path fill="none" stroke="black" d="M329,-1160.94C329,-1152.81 329,-1142.88 329,-1133.7"/>
<polygon fill="black" stroke="black" points="332.5,-1133.44 329,-1123.44 325.5,-1133.44 332.5,-1133.44"/>
</g>
<!-- montgomery_reduce_x1 -->
<g id="node9" class="node">
<title>montgomery_reduce_x1</title>
<path fill="none" stroke="black" d="M383.5,-1049C383.5,-1049 274.5,-1049 274.5,-1049 268.5,-1049 262.5,-1043 262.5,-1037 262.5,-1037 262.5,-1025 262.5,-1025 262.5,-1019 268.5,-1013 274.5,-1013 274.5,-1013 383.5,-1013 383.5,-1013 389.5,-1013 395.5,-1019 395.5,-1025 395.5,-1025 395.5,-1037 395.5,-1037 395.5,-1043 389.5,-1049 383.5,-1049"/>
<text text-anchor="middle" x="329" y="-1027.3" font-family="Helvetica,sans-Serif" font-size="14.00">Montgomery约减</text>
</g>
<!-- add_carries_x1&#45;&gt;montgomery_reduce_x1 -->
<g id="edge8" class="edge">
<title>add_carries_x1&#45;&gt;montgomery_reduce_x1</title>
<path fill="none" stroke="black" d="M329,-1086.94C329,-1078.81 329,-1068.88 329,-1059.7"/>
<polygon fill="black" stroke="black" points="332.5,-1059.44 329,-1049.44 325.5,-1059.44 332.5,-1059.44"/>
</g>
<!-- process_x2 -->
<g id="node10" class="node">
<title>process_x2</title>
<path fill="none" stroke="black" d="M432,-975C432,-975 226,-975 226,-975 220,-975 214,-969 214,-963 214,-963 214,-951 214,-951 214,-945 220,-939 226,-939 226,-939 432,-939 432,-939 438,-939 444,-945 444,-951 444,-951 444,-963 444,-963 444,-969 438,-975 432,-975"/>
<text text-anchor="middle" x="329" y="-953.3" font-family="Helvetica,sans-Serif" font-size="14.00">处理x2（arg1[2]）与arg2的乘法</text>
</g>
<!-- montgomery_reduce_x1&#45;&gt;process_x2 -->
<g id="edge9" class="edge">
<title>montgomery_reduce_x1&#45;&gt;process_x2</title>
<path fill="none" stroke="black" d="M329,-1012.94C329,-1004.81 329,-994.88 329,-985.7"/>
<polygon fill="black" stroke="black" points="332.5,-985.44 329,-975.44 325.5,-985.44 332.5,-985.44"/>
</g>
<!-- add_carries_x2 -->
<g id="node11" class="node">
<title>add_carries_x2</title>
<path fill="none" stroke="black" d="M368,-902C368,-902 290,-902 290,-902 284,-902 278,-896 278,-890 278,-890 278,-878 278,-878 278,-872 284,-866 290,-866 290,-866 368,-866 368,-866 374,-866 380,-872 380,-878 380,-878 380,-890 380,-890 380,-896 374,-902 368,-902"/>
<text text-anchor="middle" x="329" y="-880.3" font-family="Helvetica,sans-Serif" font-size="14.00">累加进位处理</text>
</g>
<!-- process_x2&#45;&gt;add_carries_x2 -->
<g id="edge10" class="edge">
<title>process_x2&#45;&gt;add_carries_x2</title>
<path fill="none" stroke="black" d="M329,-938.81C329,-930.79 329,-921.05 329,-912.07"/>
<polygon fill="black" stroke="black" points="332.5,-912.03 329,-902.03 325.5,-912.03 332.5,-912.03"/>
</g>
<!-- montgomery_reduce_x2 -->
<g id="node12" class="node">
<title>montgomery_reduce_x2</title>
<path fill="none" stroke="black" d="M383.5,-830C383.5,-830 274.5,-830 274.5,-830 268.5,-830 262.5,-824 262.5,-818 262.5,-818 262.5,-806 262.5,-806 262.5,-800 268.5,-794 274.5,-794 274.5,-794 383.5,-794 383.5,-794 389.5,-794 395.5,-800 395.5,-806 395.5,-806 395.5,-818 395.5,-818 395.5,-824 389.5,-830 383.5,-830"/>
<text text-anchor="middle" x="329" y="-808.3" font-family="Helvetica,sans-Serif" font-size="14.00">Montgomery约减</text>
</g>
<!-- add_carries_x2&#45;&gt;montgomery_reduce_x2 -->
<g id="edge11" class="edge">
<title>add_carries_x2&#45;&gt;montgomery_reduce_x2</title>
<path fill="none" stroke="black" d="M329,-865.7C329,-857.98 329,-848.71 329,-840.11"/>
<polygon fill="black" stroke="black" points="332.5,-840.1 329,-830.1 325.5,-840.1 332.5,-840.1"/>
</g>
<!-- process_x3 -->
<g id="node13" class="node">
<title>process_x3</title>
<path fill="none" stroke="black" d="M432,-758C432,-758 226,-758 226,-758 220,-758 214,-752 214,-746 214,-746 214,-734 214,-734 214,-728 220,-722 226,-722 226,-722 432,-722 432,-722 438,-722 444,-728 444,-734 444,-734 444,-746 444,-746 444,-752 438,-758 432,-758"/>
<text text-anchor="middle" x="329" y="-736.3" font-family="Helvetica,sans-Serif" font-size="14.00">处理x3（arg1[3]）与arg2的乘法</text>
</g>
<!-- montgomery_reduce_x2&#45;&gt;process_x3 -->
<g id="edge12" class="edge">
<title>montgomery_reduce_x2&#45;&gt;process_x3</title>
<path fill="none" stroke="black" d="M329,-793.7C329,-785.98 329,-776.71 329,-768.11"/>
<polygon fill="black" stroke="black" points="332.5,-768.1 329,-758.1 325.5,-768.1 332.5,-768.1"/>
</g>
<!-- add_carries_x3 -->
<g id="node14" class="node">
<title>add_carries_x3</title>
<path fill="none" stroke="black" d="M368,-686C368,-686 290,-686 290,-686 284,-686 278,-680 278,-674 278,-674 278,-662 278,-662 278,-656 284,-650 290,-650 290,-650 368,-650 368,-650 374,-650 380,-656 380,-662 380,-662 380,-674 380,-674 380,-680 374,-686 368,-686"/>
<text text-anchor="middle" x="329" y="-664.3" font-family="Helvetica,sans-Serif" font-size="14.00">累加进位处理</text>
</g>
<!-- process_x3&#45;&gt;add_carries_x3 -->
<g id="edge13" class="edge">
<title>process_x3&#45;&gt;add_carries_x3</title>
<path fill="none" stroke="black" d="M329,-721.7C329,-713.98 329,-704.71 329,-696.11"/>
<polygon fill="black" stroke="black" points="332.5,-696.1 329,-686.1 325.5,-696.1 332.5,-696.1"/>
</g>
<!-- montgomery_reduce_x3 -->
<g id="node15" class="node">
<title>montgomery_reduce_x3</title>
<path fill="none" stroke="black" d="M383.5,-614C383.5,-614 274.5,-614 274.5,-614 268.5,-614 262.5,-608 262.5,-602 262.5,-602 262.5,-590 262.5,-590 262.5,-584 268.5,-578 274.5,-578 274.5,-578 383.5,-578 383.5,-578 389.5,-578 395.5,-584 395.5,-590 395.5,-590 395.5,-602 395.5,-602 395.5,-608 389.5,-614 383.5,-614"/>
<text text-anchor="middle" x="329" y="-592.3" font-family="Helvetica,sans-Serif" font-size="14.00">Montgomery约减</text>
</g>
<!-- add_carries_x3&#45;&gt;montgomery_reduce_x3 -->
<g id="edge14" class="edge">
<title>add_carries_x3&#45;&gt;montgomery_reduce_x3</title>
<path fill="none" stroke="black" d="M329,-649.7C329,-641.98 329,-632.71 329,-624.11"/>
<polygon fill="black" stroke="black" points="332.5,-624.1 329,-614.1 325.5,-624.1 332.5,-624.1"/>
</g>
<!-- process_x4 -->
<g id="node16" class="node">
<title>process_x4</title>
<path fill="none" stroke="black" d="M432,-542C432,-542 226,-542 226,-542 220,-542 214,-536 214,-530 214,-530 214,-518 214,-518 214,-512 220,-506 226,-506 226,-506 432,-506 432,-506 438,-506 444,-512 444,-518 444,-518 444,-530 444,-530 444,-536 438,-542 432,-542"/>
<text text-anchor="middle" x="329" y="-520.3" font-family="Helvetica,sans-Serif" font-size="14.00">处理x4（arg1[4]）与arg2的乘法</text>
</g>
<!-- montgomery_reduce_x3&#45;&gt;process_x4 -->
<g id="edge15" class="edge">
<title>montgomery_reduce_x3&#45;&gt;process_x4</title>
<path fill="none" stroke="black" d="M329,-577.7C329,-569.98 329,-560.71 329,-552.11"/>
<polygon fill="black" stroke="black" points="332.5,-552.1 329,-542.1 325.5,-552.1 332.5,-552.1"/>
</g>
<!-- add_carries_x4 -->
<g id="node17" class="node">
<title>add_carries_x4</title>
<path fill="none" stroke="black" d="M368,-470C368,-470 290,-470 290,-470 284,-470 278,-464 278,-458 278,-458 278,-446 278,-446 278,-440 284,-434 290,-434 290,-434 368,-434 368,-434 374,-434 380,-440 380,-446 380,-446 380,-458 380,-458 380,-464 374,-470 368,-470"/>
<text text-anchor="middle" x="329" y="-448.3" font-family="Helvetica,sans-Serif" font-size="14.00">累加进位处理</text>
</g>
<!-- process_x4&#45;&gt;add_carries_x4 -->
<g id="edge16" class="edge">
<title>process_x4&#45;&gt;add_carries_x4</title>
<path fill="none" stroke="black" d="M329,-505.7C329,-497.98 329,-488.71 329,-480.11"/>
<polygon fill="black" stroke="black" points="332.5,-480.1 329,-470.1 325.5,-480.1 332.5,-480.1"/>
</g>
<!-- montgomery_reduce_x4 -->
<g id="node18" class="node">
<title>montgomery_reduce_x4</title>
<path fill="none" stroke="black" d="M383.5,-398C383.5,-398 274.5,-398 274.5,-398 268.5,-398 262.5,-392 262.5,-386 262.5,-386 262.5,-374 262.5,-374 262.5,-368 268.5,-362 274.5,-362 274.5,-362 383.5,-362 383.5,-362 389.5,-362 395.5,-368 395.5,-374 395.5,-374 395.5,-386 395.5,-386 395.5,-392 389.5,-398 383.5,-398"/>
<text text-anchor="middle" x="329" y="-376.3" font-family="Helvetica,sans-Serif" font-size="14.00">Montgomery约减</text>
</g>
<!-- add_carries_x4&#45;&gt;montgomery_reduce_x4 -->
<g id="edge17" class="edge">
<title>add_carries_x4&#45;&gt;montgomery_reduce_x4</title>
<path fill="none" stroke="black" d="M329,-433.7C329,-425.98 329,-416.71 329,-408.11"/>
<polygon fill="black" stroke="black" points="332.5,-408.1 329,-398.1 325.5,-408.1 332.5,-408.1"/>
</g>
<!-- process_x5 -->
<g id="node19" class="node">
<title>process_x5</title>
<path fill="none" stroke="black" d="M432,-326C432,-326 226,-326 226,-326 220,-326 214,-320 214,-314 214,-314 214,-302 214,-302 214,-296 220,-290 226,-290 226,-290 432,-290 432,-290 438,-290 444,-296 444,-302 444,-302 444,-314 444,-314 444,-320 438,-326 432,-326"/>
<text text-anchor="middle" x="329" y="-304.3" font-family="Helvetica,sans-Serif" font-size="14.00">处理x5（arg1[5]）与arg2的乘法</text>
</g>
<!-- montgomery_reduce_x4&#45;&gt;process_x5 -->
<g id="edge18" class="edge">
<title>montgomery_reduce_x4&#45;&gt;process_x5</title>
<path fill="none" stroke="black" d="M329,-361.7C329,-353.98 329,-344.71 329,-336.11"/>
<polygon fill="black" stroke="black" points="332.5,-336.1 329,-326.1 325.5,-336.1 332.5,-336.1"/>
</g>
<!-- add_carries_x5 -->
<g id="node20" class="node">
<title>add_carries_x5</title>
<path fill="none" stroke="black" d="M368,-254C368,-254 290,-254 290,-254 284,-254 278,-248 278,-242 278,-242 278,-230 278,-230 278,-224 284,-218 290,-218 290,-218 368,-218 368,-218 374,-218 380,-224 380,-230 380,-230 380,-242 380,-242 380,-248 374,-254 368,-254"/>
<text text-anchor="middle" x="329" y="-232.3" font-family="Helvetica,sans-Serif" font-size="14.00">累加进位处理</text>
</g>
<!-- process_x5&#45;&gt;add_carries_x5 -->
<g id="edge19" class="edge">
<title>process_x5&#45;&gt;add_carries_x5</title>
<path fill="none" stroke="black" d="M329,-289.7C329,-281.98 329,-272.71 329,-264.11"/>
<polygon fill="black" stroke="black" points="332.5,-264.1 329,-254.1 325.5,-264.1 332.5,-264.1"/>
</g>
<!-- montgomery_reduce_x5 -->
<g id="node21" class="node">
<title>montgomery_reduce_x5</title>
<path fill="none" stroke="black" d="M383.5,-182C383.5,-182 274.5,-182 274.5,-182 268.5,-182 262.5,-176 262.5,-170 262.5,-170 262.5,-158 262.5,-158 262.5,-152 268.5,-146 274.5,-146 274.5,-146 383.5,-146 383.5,-146 389.5,-146 395.5,-152 395.5,-158 395.5,-158 395.5,-170 395.5,-170 395.5,-176 389.5,-182 383.5,-182"/>
<text text-anchor="middle" x="329" y="-160.3" font-family="Helvetica,sans-Serif" font-size="14.00">Montgomery约减</text>
</g>
<!-- add_carries_x5&#45;&gt;montgomery_reduce_x5 -->
<g id="edge20" class="edge">
<title>add_carries_x5&#45;&gt;montgomery_reduce_x5</title>
<path fill="none" stroke="black" d="M329,-217.7C329,-209.98 329,-200.71 329,-192.11"/>
<polygon fill="black" stroke="black" points="332.5,-192.1 329,-182.1 325.5,-192.1 332.5,-192.1"/>
</g>
<!-- final_adjust -->
<g id="node22" class="node">
<title>final_adjust</title>
<path fill="none" stroke="black" d="M441,-110C441,-110 217,-110 217,-110 211,-110 205,-104 205,-98 205,-98 205,-84 205,-84 205,-78 211,-72 217,-72 217,-72 441,-72 441,-72 447,-72 453,-78 453,-84 453,-84 453,-98 453,-98 453,-104 447,-110 441,-110"/>
<text text-anchor="middle" x="329" y="-94.8" font-family="Helvetica,sans-Serif" font-size="14.00">最终模调整</text>
<text text-anchor="middle" x="329" y="-79.8" font-family="Helvetica,sans-Serif" font-size="14.00">(subborrowxU64 + cmovznzU64)</text>
</g>
<!-- montgomery_reduce_x5&#45;&gt;final_adjust -->
<g id="edge21" class="edge">
<title>montgomery_reduce_x5&#45;&gt;final_adjust</title>
<path fill="none" stroke="black" d="M329,-145.81C329,-138.11 329,-128.82 329,-120.15"/>
<polygon fill="black" stroke="black" points="332.5,-120.02 329,-110.02 325.5,-120.02 332.5,-120.02"/>
</g>
<!-- output -->
<g id="node23" class="node">
<title>output</title>
<path fill="none" stroke="black" d="M376.5,-36C376.5,-36 281.5,-36 281.5,-36 275.5,-36 269.5,-30 269.5,-24 269.5,-24 269.5,-12 269.5,-12 269.5,-6 275.5,0 281.5,0 281.5,0 376.5,0 376.5,0 382.5,0 388.5,-6 388.5,-12 388.5,-12 388.5,-24 388.5,-24 388.5,-30 382.5,-36 376.5,-36"/>
<text text-anchor="middle" x="329" y="-14.3" font-family="Helvetica,sans-Serif" font-size="14.00">存储结果到out1</text>
</g>
<!-- final_adjust&#45;&gt;output -->
<g id="edge22" class="edge">
<title>final_adjust&#45;&gt;output</title>
<path fill="none" stroke="black" d="M329,-71.72C329,-63.97 329,-54.79 329,-46.27"/>
<polygon fill="black" stroke="black" points="332.5,-46 329,-36 325.5,-46 332.5,-46"/>
</g>
<!-- mul_arg2_4 -->
<g id="node25" class="node">
<title>mul_arg2_4</title>
<path fill="none" stroke="black" d="M181.5,-1272C181.5,-1272 34.5,-1272 34.5,-1272 28.5,-1272 22.5,-1266 22.5,-1260 22.5,-1260 22.5,-1246 22.5,-1246 22.5,-1240 28.5,-1234 34.5,-1234 34.5,-1234 181.5,-1234 181.5,-1234 187.5,-1234 193.5,-1240 193.5,-1246 193.5,-1246 193.5,-1260 193.5,-1260 193.5,-1266 187.5,-1272 181.5,-1272"/>
<text text-anchor="middle" x="108" y="-1256.8" font-family="Helvetica,sans-Serif" font-size="14.00">x6 * arg2[4]</text>
<text text-anchor="middle" x="108" y="-1241.8" font-family="Helvetica,sans-Serif" font-size="14.00">(mulxU64生成x9, x10)</text>
</g>
<!-- mul_arg2_5&#45;&gt;mul_arg2_4 -->
<g id="edge23" class="edge">
<title>mul_arg2_5&#45;&gt;mul_arg2_4</title>
<path fill="none" stroke="black" d="M110.24,-1307.83C109.92,-1300.13 109.54,-1290.97 109.18,-1282.42"/>
<polygon fill="black" stroke="black" points="112.68,-1282.26 108.77,-1272.41 105.69,-1282.55 112.68,-1282.26"/>
</g>
<!-- mul_arg2_3 -->
<g id="node26" class="node">
<title>mul_arg2_3</title>
<path fill="none" stroke="black" d="M184,-1198C184,-1198 28,-1198 28,-1198 22,-1198 16,-1192 16,-1186 16,-1186 16,-1172 16,-1172 16,-1166 22,-1160 28,-1160 28,-1160 184,-1160 184,-1160 190,-1160 196,-1166 196,-1172 196,-1172 196,-1186 196,-1186 196,-1192 190,-1198 184,-1198"/>
<text text-anchor="middle" x="106" y="-1182.8" font-family="Helvetica,sans-Serif" font-size="14.00">x6 * arg2[3]</text>
<text text-anchor="middle" x="106" y="-1167.8" font-family="Helvetica,sans-Serif" font-size="14.00">(mulxU64生成x11, x12)</text>
</g>
<!-- mul_arg2_4&#45;&gt;mul_arg2_3 -->
<g id="edge24" class="edge">
<title>mul_arg2_4&#45;&gt;mul_arg2_3</title>
<path fill="none" stroke="black" d="M107.5,-1233.83C107.28,-1226.13 107.03,-1216.97 106.79,-1208.42"/>
<polygon fill="black" stroke="black" points="110.29,-1208.31 106.51,-1198.41 103.29,-1208.51 110.29,-1208.31"/>
</g>
<!-- mul_arg2_2 -->
<g id="node27" class="node">
<title>mul_arg2_2</title>
<path fill="none" stroke="black" d="M184,-1124C184,-1124 28,-1124 28,-1124 22,-1124 16,-1118 16,-1112 16,-1112 16,-1098 16,-1098 16,-1092 22,-1086 28,-1086 28,-1086 184,-1086 184,-1086 190,-1086 196,-1092 196,-1098 196,-1098 196,-1112 196,-1112 196,-1118 190,-1124 184,-1124"/>
<text text-anchor="middle" x="106" y="-1108.8" font-family="Helvetica,sans-Serif" font-size="14.00">x6 * arg2[2]</text>
<text text-anchor="middle" x="106" y="-1093.8" font-family="Helvetica,sans-Serif" font-size="14.00">(mulxU64生成x13, x14)</text>
</g>
<!-- mul_arg2_3&#45;&gt;mul_arg2_2 -->
<g id="edge25" class="edge">
<title>mul_arg2_3&#45;&gt;mul_arg2_2</title>
<path fill="none" stroke="black" d="M106,-1159.83C106,-1152.13 106,-1142.97 106,-1134.42"/>
<polygon fill="black" stroke="black" points="109.5,-1134.41 106,-1124.41 102.5,-1134.41 109.5,-1134.41"/>
</g>
<!-- mul_arg2_1 -->
<g id="node28" class="node">
<title>mul_arg2_1</title>
<path fill="none" stroke="black" d="M184,-1050C184,-1050 28,-1050 28,-1050 22,-1050 16,-1044 16,-1038 16,-1038 16,-1024 16,-1024 16,-1018 22,-1012 28,-1012 28,-1012 184,-1012 184,-1012 190,-1012 196,-1018 196,-1024 196,-1024 196,-1038 196,-1038 196,-1044 190,-1050 184,-1050"/>
<text text-anchor="middle" x="106" y="-1034.8" font-family="Helvetica,sans-Serif" font-size="14.00">x6 * arg2[1]</text>
<text text-anchor="middle" x="106" y="-1019.8" font-family="Helvetica,sans-Serif" font-size="14.00">(mulxU64生成x15, x16)</text>
</g>
<!-- mul_arg2_2&#45;&gt;mul_arg2_1 -->
<g id="edge26" class="edge">
<title>mul_arg2_2&#45;&gt;mul_arg2_1</title>
<path fill="none" stroke="black" d="M106,-1085.83C106,-1078.13 106,-1068.97 106,-1060.42"/>
<polygon fill="black" stroke="black" points="109.5,-1060.41 106,-1050.41 102.5,-1060.41 109.5,-1060.41"/>
</g>
<!-- mul_arg2_0 -->
<g id="node29" class="node">
<title>mul_arg2_0</title>
<path fill="none" stroke="black" d="M184,-976C184,-976 28,-976 28,-976 22,-976 16,-970 16,-964 16,-964 16,-950 16,-950 16,-944 22,-938 28,-938 28,-938 184,-938 184,-938 190,-938 196,-944 196,-950 196,-950 196,-964 196,-964 196,-970 190,-976 184,-976"/>
<text text-anchor="middle" x="106" y="-960.8" font-family="Helvetica,sans-Serif" font-size="14.00">x6 * arg2[0]</text>
<text text-anchor="middle" x="106" y="-945.8" font-family="Helvetica,sans-Serif" font-size="14.00">(mulxU64生成x17, x18)</text>
</g>
<!-- mul_arg2_1&#45;&gt;mul_arg2_0 -->
<g id="edge27" class="edge">
<title>mul_arg2_1&#45;&gt;mul_arg2_0</title>
<path fill="none" stroke="black" d="M106,-1011.83C106,-1004.13 106,-994.97 106,-986.42"/>
<polygon fill="black" stroke="black" points="109.5,-986.41 106,-976.41 102.5,-986.41 109.5,-986.41"/>
</g>
</g>
</svg>
