<?xml version="1.0" encoding="UTF-8" standalone="no"?>
<!DOCTYPE svg PUBLIC "-//W3C//DTD SVG 1.1//EN"
 "http://www.w3.org/Graphics/SVG/1.1/DTD/svg11.dtd">
<!-- Generated by graphviz version 2.43.0 (0)
 -->
<!-- Title: AesOcbFlow Pages: 1 -->
<svg width="926pt" height="713pt"
 viewBox="0.00 0.00 926.00 713.00" xmlns="http://www.w3.org/2000/svg" xmlns:xlink="http://www.w3.org/1999/xlink">
<g id="graph0" class="graph" transform="scale(1 1) rotate(0) translate(4 709)">
<title>AesOcbFlow</title>
<polygon fill="white" stroke="transparent" points="-4,4 -4,-709 922,-709 922,4 -4,4"/>
<g id="clust1" class="cluster">
<title>cluster_encrypt</title>
<polygon fill="none" stroke="black" points="8,-9 8,-697 350,-697 350,-9 8,-9"/>
<text text-anchor="middle" x="179" y="-681.8" font-family="Times,serif" font-size="14.00">AES&#45;OCB Encrypt Flow</text>
</g>
<g id="clust2" class="cluster">
<title>cluster_decrypt</title>
<polygon fill="none" stroke="black" points="568,-8 568,-697 910,-697 910,-8 568,-8"/>
<text text-anchor="middle" x="739" y="-681.8" font-family="Times,serif" font-size="14.00">AES&#45;OCB Decrypt Flow</text>
</g>
<!-- encrypt_start -->
<g id="node1" class="node">
<title>encrypt_start</title>
<path fill="none" stroke="black" d="M224.5,-666C224.5,-666 133.5,-666 133.5,-666 127.5,-666 121.5,-660 121.5,-654 121.5,-654 121.5,-642 121.5,-642 121.5,-636 127.5,-630 133.5,-630 133.5,-630 224.5,-630 224.5,-630 230.5,-630 236.5,-636 236.5,-642 236.5,-642 236.5,-654 236.5,-654 236.5,-660 230.5,-666 224.5,-666"/>
<text text-anchor="middle" x="179" y="-644.3" font-family="Times,serif" font-size="14.00">Start Encrypt</text>
</g>
<!-- init_aes_ctx -->
<g id="node2" class="node">
<title>init_aes_ctx</title>
<path fill="none" stroke="black" d="M285,-593C285,-593 73,-593 73,-593 67,-593 61,-587 61,-581 61,-581 61,-569 61,-569 61,-563 67,-557 73,-557 73,-557 285,-557 285,-557 291,-557 297,-563 297,-569 297,-569 297,-581 297,-581 297,-587 291,-593 285,-593"/>
<text text-anchor="middle" x="179" y="-571.3" font-family="Times,serif" font-size="14.00">Initialize AES Encrypt Context</text>
</g>
<!-- encrypt_start&#45;&gt;init_aes_ctx -->
<g id="edge1" class="edge">
<title>encrypt_start&#45;&gt;init_aes_ctx</title>
<path fill="none" stroke="black" d="M179,-629.81C179,-621.79 179,-612.05 179,-603.07"/>
<polygon fill="black" stroke="black" points="182.5,-603.03 179,-593.03 175.5,-603.03 182.5,-603.03"/>
</g>
<!-- init_lx -->
<g id="node3" class="node">
<title>init_lx</title>
<path fill="none" stroke="black" d="M254,-520C254,-520 104,-520 104,-520 98,-520 92,-514 92,-508 92,-508 92,-496 92,-496 92,-490 98,-484 104,-484 104,-484 254,-484 254,-484 260,-484 266,-490 266,-496 266,-496 266,-508 266,-508 266,-514 260,-520 254,-520"/>
<text text-anchor="middle" x="179" y="-498.3" font-family="Times,serif" font-size="14.00">Initialize Lx Structure</text>
</g>
<!-- init_aes_ctx&#45;&gt;init_lx -->
<g id="edge2" class="edge">
<title>init_aes_ctx&#45;&gt;init_lx</title>
<path fill="none" stroke="black" d="M179,-556.81C179,-548.79 179,-539.05 179,-530.07"/>
<polygon fill="black" stroke="black" points="182.5,-530.03 179,-520.03 175.5,-530.03 182.5,-530.03"/>
</g>
<!-- compute_offset -->
<g id="node4" class="node">
<title>compute_offset</title>
<path fill="none" stroke="black" d="M295,-447C295,-447 63,-447 63,-447 57,-447 51,-441 51,-435 51,-435 51,-423 51,-423 51,-417 57,-411 63,-411 63,-411 295,-411 295,-411 301,-411 307,-417 307,-423 307,-423 307,-435 307,-435 307,-441 301,-447 295,-447"/>
<text text-anchor="middle" x="179" y="-425.3" font-family="Times,serif" font-size="14.00">Compute Initial Offset (getOffset)</text>
</g>
<!-- init_lx&#45;&gt;compute_offset -->
<g id="edge3" class="edge">
<title>init_lx&#45;&gt;compute_offset</title>
<path fill="none" stroke="black" d="M179,-483.81C179,-475.79 179,-466.05 179,-457.07"/>
<polygon fill="black" stroke="black" points="182.5,-457.03 179,-447.03 175.5,-457.03 182.5,-457.03"/>
</g>
<!-- process_full_blocks -->
<g id="node5" class="node">
<title>process_full_blocks</title>
<path fill="none" stroke="black" d="M269.5,-374C269.5,-374 88.5,-374 88.5,-374 82.5,-374 76.5,-368 76.5,-362 76.5,-362 76.5,-350 76.5,-350 76.5,-344 82.5,-338 88.5,-338 88.5,-338 269.5,-338 269.5,-338 275.5,-338 281.5,-344 281.5,-350 281.5,-350 281.5,-362 281.5,-362 281.5,-368 275.5,-374 269.5,-374"/>
<text text-anchor="middle" x="179" y="-352.3" font-family="Times,serif" font-size="14.00">Process Full Blocks (Loop)</text>
</g>
<!-- compute_offset&#45;&gt;process_full_blocks -->
<g id="edge4" class="edge">
<title>compute_offset&#45;&gt;process_full_blocks</title>
<path fill="none" stroke="black" d="M179,-410.81C179,-402.79 179,-393.05 179,-384.07"/>
<polygon fill="black" stroke="black" points="182.5,-384.03 179,-374.03 175.5,-384.03 182.5,-384.03"/>
</g>
<!-- process_leftover -->
<g id="node6" class="node">
<title>process_leftover</title>
<path fill="none" stroke="black" d="M186,-287C186,-287 28,-287 28,-287 22,-287 16,-281 16,-275 16,-275 16,-263 16,-263 16,-257 22,-251 28,-251 28,-251 186,-251 186,-251 192,-251 198,-257 198,-263 198,-263 198,-275 198,-275 198,-281 192,-287 186,-287"/>
<text text-anchor="middle" x="107" y="-265.3" font-family="Times,serif" font-size="14.00">Process Leftover Bytes</text>
</g>
<!-- process_full_blocks&#45;&gt;process_leftover -->
<g id="edge5" class="edge">
<title>process_full_blocks&#45;&gt;process_leftover</title>
<path fill="none" stroke="black" d="M133.71,-337.88C126.1,-333.15 119.05,-327.26 114,-320 109.4,-313.4 107.2,-305.1 106.27,-297.18"/>
<polygon fill="black" stroke="black" points="109.76,-296.92 105.68,-287.14 102.78,-297.33 109.76,-296.92"/>
<text text-anchor="middle" x="171.5" y="-308.8" font-family="Times,serif" font-size="14.00">If leftover bytes</text>
</g>
<!-- compute_sum -->
<g id="node7" class="node">
<title>compute_sum</title>
<path fill="none" stroke="black" d="M278,-214C278,-214 184,-214 184,-214 178,-214 172,-208 172,-202 172,-202 172,-190 172,-190 172,-184 178,-178 184,-178 184,-178 278,-178 278,-178 284,-178 290,-184 290,-190 290,-190 290,-202 290,-202 290,-208 284,-214 278,-214"/>
<text text-anchor="middle" x="231" y="-192.3" font-family="Times,serif" font-size="14.00">Compute Sum</text>
</g>
<!-- process_full_blocks&#45;&gt;compute_sum -->
<g id="edge6" class="edge">
<title>process_full_blocks&#45;&gt;compute_sum</title>
<path fill="none" stroke="black" d="M212.79,-337.97C219.28,-333.09 225.22,-327.11 229,-320 244.85,-290.16 241.87,-250.23 237.29,-224.07"/>
<polygon fill="black" stroke="black" points="240.69,-223.25 235.34,-214.11 233.82,-224.59 240.69,-223.25"/>
<text text-anchor="middle" x="295" y="-265.3" font-family="Times,serif" font-size="14.00">After all blocks</text>
</g>
<!-- process_leftover&#45;&gt;compute_sum -->
<g id="edge7" class="edge">
<title>process_leftover&#45;&gt;compute_sum</title>
<path fill="none" stroke="black" d="M136.7,-250.99C153.3,-241.49 174.18,-229.54 192.07,-219.29"/>
<polygon fill="black" stroke="black" points="194.17,-222.12 201.11,-214.11 190.69,-216.05 194.17,-222.12"/>
</g>
<!-- generate_tag -->
<g id="node8" class="node">
<title>generate_tag</title>
<path fill="none" stroke="black" d="M330,-141C330,-141 132,-141 132,-141 126,-141 120,-135 120,-129 120,-129 120,-117 120,-117 120,-111 126,-105 132,-105 132,-105 330,-105 330,-105 336,-105 342,-111 342,-117 342,-117 342,-129 342,-129 342,-135 336,-141 330,-141"/>
<text text-anchor="middle" x="231" y="-119.3" font-family="Times,serif" font-size="14.00">Generate Authentication Tag</text>
</g>
<!-- compute_sum&#45;&gt;generate_tag -->
<g id="edge8" class="edge">
<title>compute_sum&#45;&gt;generate_tag</title>
<path fill="none" stroke="black" d="M231,-177.81C231,-169.79 231,-160.05 231,-151.07"/>
<polygon fill="black" stroke="black" points="234.5,-151.03 231,-141.03 227.5,-151.03 234.5,-151.03"/>
</g>
<!-- encrypt_end -->
<g id="node9" class="node">
<title>encrypt_end</title>
<path fill="none" stroke="black" d="M272.5,-53C272.5,-53 189.5,-53 189.5,-53 183.5,-53 177.5,-47 177.5,-41 177.5,-41 177.5,-29 177.5,-29 177.5,-23 183.5,-17 189.5,-17 189.5,-17 272.5,-17 272.5,-17 278.5,-17 284.5,-23 284.5,-29 284.5,-29 284.5,-41 284.5,-41 284.5,-47 278.5,-53 272.5,-53"/>
<text text-anchor="middle" x="231" y="-31.3" font-family="Times,serif" font-size="14.00">End Encrypt</text>
</g>
<!-- generate_tag&#45;&gt;encrypt_end -->
<g id="edge9" class="edge">
<title>generate_tag&#45;&gt;encrypt_end</title>
<path fill="none" stroke="black" d="M231,-104.6C231,-92.75 231,-76.82 231,-63.29"/>
<polygon fill="black" stroke="black" points="234.5,-63.08 231,-53.08 227.5,-63.08 234.5,-63.08"/>
</g>
<!-- hash_function -->
<g id="node20" class="node">
<title>hash_function</title>
<path fill="none" stroke="black" d="M548,-54C548,-54 370,-54 370,-54 364,-54 358,-48 358,-42 358,-42 358,-28 358,-28 358,-22 364,-16 370,-16 370,-16 548,-16 548,-16 554,-16 560,-22 560,-28 560,-28 560,-42 560,-42 560,-48 554,-54 548,-54"/>
<text text-anchor="middle" x="459" y="-38.8" font-family="Times,serif" font-size="14.00">Hash Function</text>
<text text-anchor="middle" x="459" y="-23.8" font-family="Times,serif" font-size="14.00">(Process Associated Data)</text>
</g>
<!-- generate_tag&#45;&gt;hash_function -->
<g id="edge20" class="edge">
<title>generate_tag&#45;&gt;hash_function</title>
<path fill="none" stroke="blue" stroke-dasharray="5,2" d="M276.32,-104.91C312.23,-91.36 362.65,-72.34 401.42,-57.72"/>
<polygon fill="blue" stroke="blue" points="402.89,-60.9 411.01,-54.1 400.42,-54.35 402.89,-60.9"/>
</g>
<!-- decrypt_start -->
<g id="node10" class="node">
<title>decrypt_start</title>
<path fill="none" stroke="black" d="M784.5,-666C784.5,-666 693.5,-666 693.5,-666 687.5,-666 681.5,-660 681.5,-654 681.5,-654 681.5,-642 681.5,-642 681.5,-636 687.5,-630 693.5,-630 693.5,-630 784.5,-630 784.5,-630 790.5,-630 796.5,-636 796.5,-642 796.5,-642 796.5,-654 796.5,-654 796.5,-660 790.5,-666 784.5,-666"/>
<text text-anchor="middle" x="739" y="-644.3" font-family="Times,serif" font-size="14.00">Start Decrypt</text>
</g>
<!-- init_aes_dec_ctx -->
<g id="node11" class="node">
<title>init_aes_dec_ctx</title>
<path fill="none" stroke="black" d="M845,-593C845,-593 633,-593 633,-593 627,-593 621,-587 621,-581 621,-581 621,-569 621,-569 621,-563 627,-557 633,-557 633,-557 845,-557 845,-557 851,-557 857,-563 857,-569 857,-569 857,-581 857,-581 857,-587 851,-593 845,-593"/>
<text text-anchor="middle" x="739" y="-571.3" font-family="Times,serif" font-size="14.00">Initialize AES Decrypt Context</text>
</g>
<!-- decrypt_start&#45;&gt;init_aes_dec_ctx -->
<g id="edge10" class="edge">
<title>decrypt_start&#45;&gt;init_aes_dec_ctx</title>
<path fill="none" stroke="black" d="M739,-629.81C739,-621.79 739,-612.05 739,-603.07"/>
<polygon fill="black" stroke="black" points="742.5,-603.03 739,-593.03 735.5,-603.03 742.5,-603.03"/>
</g>
<!-- init_lx_dec -->
<g id="node12" class="node">
<title>init_lx_dec</title>
<path fill="none" stroke="black" d="M814,-520C814,-520 664,-520 664,-520 658,-520 652,-514 652,-508 652,-508 652,-496 652,-496 652,-490 658,-484 664,-484 664,-484 814,-484 814,-484 820,-484 826,-490 826,-496 826,-496 826,-508 826,-508 826,-514 820,-520 814,-520"/>
<text text-anchor="middle" x="739" y="-498.3" font-family="Times,serif" font-size="14.00">Initialize Lx Structure</text>
</g>
<!-- init_aes_dec_ctx&#45;&gt;init_lx_dec -->
<g id="edge11" class="edge">
<title>init_aes_dec_ctx&#45;&gt;init_lx_dec</title>
<path fill="none" stroke="black" d="M739,-556.81C739,-548.79 739,-539.05 739,-530.07"/>
<polygon fill="black" stroke="black" points="742.5,-530.03 739,-520.03 735.5,-530.03 742.5,-530.03"/>
</g>
<!-- compute_offset_dec -->
<g id="node13" class="node">
<title>compute_offset_dec</title>
<path fill="none" stroke="black" d="M855,-447C855,-447 623,-447 623,-447 617,-447 611,-441 611,-435 611,-435 611,-423 611,-423 611,-417 617,-411 623,-411 623,-411 855,-411 855,-411 861,-411 867,-417 867,-423 867,-423 867,-435 867,-435 867,-441 861,-447 855,-447"/>
<text text-anchor="middle" x="739" y="-425.3" font-family="Times,serif" font-size="14.00">Compute Initial Offset (getOffset)</text>
</g>
<!-- init_lx_dec&#45;&gt;compute_offset_dec -->
<g id="edge12" class="edge">
<title>init_lx_dec&#45;&gt;compute_offset_dec</title>
<path fill="none" stroke="black" d="M739,-483.81C739,-475.79 739,-466.05 739,-457.07"/>
<polygon fill="black" stroke="black" points="742.5,-457.03 739,-447.03 735.5,-457.03 742.5,-457.03"/>
</g>
<!-- process_full_blocks_dec -->
<g id="node14" class="node">
<title>process_full_blocks_dec</title>
<path fill="none" stroke="black" d="M829.5,-374C829.5,-374 648.5,-374 648.5,-374 642.5,-374 636.5,-368 636.5,-362 636.5,-362 636.5,-350 636.5,-350 636.5,-344 642.5,-338 648.5,-338 648.5,-338 829.5,-338 829.5,-338 835.5,-338 841.5,-344 841.5,-350 841.5,-350 841.5,-362 841.5,-362 841.5,-368 835.5,-374 829.5,-374"/>
<text text-anchor="middle" x="739" y="-352.3" font-family="Times,serif" font-size="14.00">Process Full Blocks (Loop)</text>
</g>
<!-- compute_offset_dec&#45;&gt;process_full_blocks_dec -->
<g id="edge13" class="edge">
<title>compute_offset_dec&#45;&gt;process_full_blocks_dec</title>
<path fill="none" stroke="black" d="M739,-410.81C739,-402.79 739,-393.05 739,-384.07"/>
<polygon fill="black" stroke="black" points="742.5,-384.03 739,-374.03 735.5,-384.03 742.5,-384.03"/>
</g>
<!-- process_leftover_dec -->
<g id="node15" class="node">
<title>process_leftover_dec</title>
<path fill="none" stroke="black" d="M746,-287C746,-287 588,-287 588,-287 582,-287 576,-281 576,-275 576,-275 576,-263 576,-263 576,-257 582,-251 588,-251 588,-251 746,-251 746,-251 752,-251 758,-257 758,-263 758,-263 758,-275 758,-275 758,-281 752,-287 746,-287"/>
<text text-anchor="middle" x="667" y="-265.3" font-family="Times,serif" font-size="14.00">Process Leftover Bytes</text>
</g>
<!-- process_full_blocks_dec&#45;&gt;process_leftover_dec -->
<g id="edge14" class="edge">
<title>process_full_blocks_dec&#45;&gt;process_leftover_dec</title>
<path fill="none" stroke="black" d="M693.71,-337.88C686.1,-333.15 679.05,-327.26 674,-320 669.4,-313.4 667.2,-305.1 666.27,-297.18"/>
<polygon fill="black" stroke="black" points="669.76,-296.92 665.68,-287.14 662.78,-297.33 669.76,-296.92"/>
<text text-anchor="middle" x="731.5" y="-308.8" font-family="Times,serif" font-size="14.00">If leftover bytes</text>
</g>
<!-- compute_sum_dec -->
<g id="node16" class="node">
<title>compute_sum_dec</title>
<path fill="none" stroke="black" d="M722,-214C722,-214 628,-214 628,-214 622,-214 616,-208 616,-202 616,-202 616,-190 616,-190 616,-184 622,-178 628,-178 628,-178 722,-178 722,-178 728,-178 734,-184 734,-190 734,-190 734,-202 734,-202 734,-208 728,-214 722,-214"/>
<text text-anchor="middle" x="675" y="-192.3" font-family="Times,serif" font-size="14.00">Compute Sum</text>
</g>
<!-- process_full_blocks_dec&#45;&gt;compute_sum_dec -->
<g id="edge15" class="edge">
<title>process_full_blocks_dec&#45;&gt;compute_sum_dec</title>
<path fill="none" stroke="black" d="M773.14,-337.82C779.52,-332.97 785.33,-327.05 789,-320 800.47,-297.98 779.73,-265.7 767,-251 755.76,-238.01 740.59,-227.35 725.81,-219.03"/>
<polygon fill="black" stroke="black" points="727.16,-215.78 716.69,-214.15 723.86,-221.95 727.16,-215.78"/>
<text text-anchor="middle" x="842" y="-265.3" font-family="Times,serif" font-size="14.00">After all blocks</text>
</g>
<!-- process_leftover_dec&#45;&gt;compute_sum_dec -->
<g id="edge16" class="edge">
<title>process_leftover_dec&#45;&gt;compute_sum_dec</title>
<path fill="none" stroke="black" d="M668.94,-250.81C669.84,-242.79 670.94,-233.05 671.95,-224.07"/>
<polygon fill="black" stroke="black" points="675.44,-224.36 673.08,-214.03 668.48,-223.57 675.44,-224.36"/>
</g>
<!-- verify_tag -->
<g id="node17" class="node">
<title>verify_tag</title>
<path fill="none" stroke="black" d="M762,-141C762,-141 588,-141 588,-141 582,-141 576,-135 576,-129 576,-129 576,-117 576,-117 576,-111 582,-105 588,-105 588,-105 762,-105 762,-105 768,-105 774,-111 774,-117 774,-117 774,-129 774,-129 774,-135 768,-141 762,-141"/>
<text text-anchor="middle" x="675" y="-119.3" font-family="Times,serif" font-size="14.00">Verify Authentication Tag</text>
</g>
<!-- compute_sum_dec&#45;&gt;verify_tag -->
<g id="edge17" class="edge">
<title>compute_sum_dec&#45;&gt;verify_tag</title>
<path fill="none" stroke="black" d="M675,-177.81C675,-169.79 675,-160.05 675,-151.07"/>
<polygon fill="black" stroke="black" points="678.5,-151.03 675,-141.03 671.5,-151.03 678.5,-151.03"/>
</g>
<!-- decrypt_success -->
<g id="node18" class="node">
<title>decrypt_success</title>
<path fill="none" stroke="black" d="M732.5,-53C732.5,-53 599.5,-53 599.5,-53 593.5,-53 587.5,-47 587.5,-41 587.5,-41 587.5,-29 587.5,-29 587.5,-23 593.5,-17 599.5,-17 599.5,-17 732.5,-17 732.5,-17 738.5,-17 744.5,-23 744.5,-29 744.5,-29 744.5,-41 744.5,-41 744.5,-47 738.5,-53 732.5,-53"/>
<text text-anchor="middle" x="666" y="-31.3" font-family="Times,serif" font-size="14.00">Decryption Success</text>
</g>
<!-- verify_tag&#45;&gt;decrypt_success -->
<g id="edge18" class="edge">
<title>verify_tag&#45;&gt;decrypt_success</title>
<path fill="none" stroke="black" d="M673.18,-104.6C671.94,-92.75 670.27,-76.82 668.86,-63.29"/>
<polygon fill="black" stroke="black" points="672.31,-62.67 667.79,-53.08 665.35,-63.39 672.31,-62.67"/>
<text text-anchor="middle" x="716.5" y="-75.8" font-family="Times,serif" font-size="14.00">Tag Matches</text>
</g>
<!-- decrypt_fail -->
<g id="node19" class="node">
<title>decrypt_fail</title>
<path fill="none" stroke="black" d="M861,-54C861,-54 775,-54 775,-54 769,-54 763,-48 763,-42 763,-42 763,-28 763,-28 763,-22 769,-16 775,-16 775,-16 861,-16 861,-16 867,-16 873,-22 873,-28 873,-28 873,-42 873,-42 873,-48 867,-54 861,-54"/>
<text text-anchor="middle" x="818" y="-38.8" font-family="Times,serif" font-size="14.00">Clear Data</text>
<text text-anchor="middle" x="818" y="-23.8" font-family="Times,serif" font-size="14.00">Return Error</text>
</g>
<!-- verify_tag&#45;&gt;decrypt_fail -->
<g id="edge19" class="edge">
<title>verify_tag&#45;&gt;decrypt_fail</title>
<path fill="none" stroke="black" d="M730.17,-104.93C742.44,-100.02 755.04,-94.05 766,-87 776.69,-80.12 787.01,-70.78 795.59,-61.97"/>
<polygon fill="black" stroke="black" points="798.37,-64.13 802.66,-54.44 793.26,-59.34 798.37,-64.13"/>
<text text-anchor="middle" x="834.5" y="-75.8" font-family="Times,serif" font-size="14.00">Tag Mismatch</text>
</g>
<!-- verify_tag&#45;&gt;hash_function -->
<g id="edge21" class="edge">
<title>verify_tag&#45;&gt;hash_function</title>
<path fill="none" stroke="blue" stroke-dasharray="5,2" d="M632.07,-104.91C598.19,-91.42 550.68,-72.5 514.01,-57.9"/>
<polygon fill="blue" stroke="blue" points="515.05,-54.55 504.46,-54.1 512.46,-61.05 515.05,-54.55"/>
</g>
</g>
</svg>
