<?xml version="1.0" encoding="UTF-8" standalone="no"?>
<!DOCTYPE svg PUBLIC "-//W3C//DTD SVG 1.1//EN"
 "http://www.w3.org/Graphics/SVG/1.1/DTD/svg11.dtd">
<!-- Generated by graphviz version 2.43.0 (0)
 -->
<!-- Title: ChaCha20Flow Pages: 1 -->
<svg width="1992pt" height="291pt"
 viewBox="0.00 0.00 1992.00 291.00" xmlns="http://www.w3.org/2000/svg" xmlns:xlink="http://www.w3.org/1999/xlink">
<g id="graph0" class="graph" transform="scale(1 1) rotate(0) translate(4 287)">
<title>ChaCha20Flow</title>
<polygon fill="white" stroke="transparent" points="-4,4 -4,-287 1988,-287 1988,4 -4,4"/>
<!-- ChaChaNonVecImpl -->
<g id="node1" class="node">
<title>ChaChaNonVecImpl</title>
<path fill="none" stroke="black" d="M1596,-283C1596,-283 1377,-283 1377,-283 1371,-283 1365,-277 1365,-271 1365,-271 1365,-259 1365,-259 1365,-253 1371,-247 1377,-247 1377,-247 1596,-247 1596,-247 1602,-247 1608,-253 1608,-259 1608,-259 1608,-271 1608,-271 1608,-277 1602,-283 1596,-283"/>
<text text-anchor="middle" x="1486.5" y="-261.3" font-family="Times,serif" font-size="14.00">ChaChaNonVecImpl(rounds_nb)</text>
</g>
<!-- initContext -->
<g id="node2" class="node">
<title>initContext</title>
<path fill="none" stroke="black" d="M898.5,-123C898.5,-123 774.5,-123 774.5,-123 768.5,-123 762.5,-117 762.5,-111 762.5,-111 762.5,-99 762.5,-99 762.5,-93 768.5,-87 774.5,-87 774.5,-87 898.5,-87 898.5,-87 904.5,-87 910.5,-93 910.5,-99 910.5,-99 910.5,-111 910.5,-111 910.5,-117 904.5,-123 898.5,-123"/>
<text text-anchor="middle" x="836.5" y="-101.3" font-family="Times,serif" font-size="14.00">initContext(key, d)</text>
</g>
<!-- ChaChaNonVecImpl&#45;&gt;initContext -->
<g id="edge1" class="edge">
<title>ChaChaNonVecImpl&#45;&gt;initContext</title>
<path fill="none" stroke="black" d="M1364.99,-262.38C1088.82,-258.11 435.23,-244.41 402.5,-210 377.59,-183.82 411.64,-153.61 445.5,-141 507.12,-118.06 671.29,-130.75 752.44,-122.86"/>
<polygon fill="black" stroke="black" points="752.84,-126.34 762.38,-121.73 752.05,-119.38 752.84,-126.34"/>
</g>
<!-- chacha20Core -->
<g id="node3" class="node">
<title>chacha20Core</title>
<path fill="none" stroke="black" d="M1758,-123C1758,-123 1599,-123 1599,-123 1593,-123 1587,-117 1587,-111 1587,-111 1587,-99 1587,-99 1587,-93 1593,-87 1599,-87 1599,-87 1758,-87 1758,-87 1764,-87 1770,-93 1770,-99 1770,-99 1770,-111 1770,-111 1770,-117 1764,-123 1758,-123"/>
<text text-anchor="middle" x="1678.5" y="-101.3" font-family="Times,serif" font-size="14.00">chacha20Core(x, input)</text>
</g>
<!-- ChaChaNonVecImpl&#45;&gt;chacha20Core -->
<g id="edge2" class="edge">
<title>ChaChaNonVecImpl&#45;&gt;chacha20Core</title>
<path fill="none" stroke="black" d="M1528.4,-246.89C1566.66,-229.31 1622.31,-198.5 1656.5,-156 1661.99,-149.17 1666.39,-140.76 1669.76,-132.79"/>
<polygon fill="black" stroke="black" points="1673.04,-134.02 1673.37,-123.43 1666.51,-131.5 1673.04,-134.02"/>
</g>
<!-- hashToBytes -->
<g id="node4" class="node">
<title>hashToBytes</title>
<path fill="none" stroke="black" d="M1934.5,-123C1934.5,-123 1800.5,-123 1800.5,-123 1794.5,-123 1788.5,-117 1788.5,-111 1788.5,-111 1788.5,-99 1788.5,-99 1788.5,-93 1794.5,-87 1800.5,-87 1800.5,-87 1934.5,-87 1934.5,-87 1940.5,-87 1946.5,-93 1946.5,-99 1946.5,-99 1946.5,-111 1946.5,-111 1946.5,-117 1940.5,-123 1934.5,-123"/>
<text text-anchor="middle" x="1867.5" y="-101.3" font-family="Times,serif" font-size="14.00">hashToBytes(out, x)</text>
</g>
<!-- ChaChaNonVecImpl&#45;&gt;hashToBytes -->
<g id="edge3" class="edge">
<title>ChaChaNonVecImpl&#45;&gt;hashToBytes</title>
<path fill="none" stroke="black" d="M1534.79,-246.99C1563.38,-236.72 1600.2,-223.11 1632.5,-210 1698.83,-183.09 1774.33,-149.06 1821.44,-127.4"/>
<polygon fill="black" stroke="black" points="1823.15,-130.47 1830.77,-123.11 1820.22,-124.11 1823.15,-130.47"/>
</g>
<!-- contextFeedback -->
<g id="node5" class="node">
<title>contextFeedback</title>
<path fill="none" stroke="black" d="M175,-123C175,-123 12,-123 12,-123 6,-123 0,-117 0,-111 0,-111 0,-99 0,-99 0,-93 6,-87 12,-87 12,-87 175,-87 175,-87 181,-87 187,-93 187,-99 187,-99 187,-111 187,-111 187,-117 181,-123 175,-123"/>
<text text-anchor="middle" x="93.5" y="-101.3" font-family="Times,serif" font-size="14.00">contextFeedback(x, ctx)</text>
</g>
<!-- ChaChaNonVecImpl&#45;&gt;contextFeedback -->
<g id="edge4" class="edge">
<title>ChaChaNonVecImpl&#45;&gt;contextFeedback</title>
<path fill="none" stroke="black" d="M1364.95,-262.29C1136.39,-258.67 650.57,-248.84 483.5,-229 441.61,-224.02 431.17,-221.22 390.5,-210 303.2,-185.92 204.42,-149.41 145.64,-126.68"/>
<polygon fill="black" stroke="black" points="146.79,-123.37 136.2,-123.01 144.26,-129.89 146.79,-123.37"/>
</g>
<!-- chacha20Xor -->
<g id="node6" class="node">
<title>chacha20Xor</title>
<path fill="none" stroke="black" d="M807,-210C807,-210 424,-210 424,-210 418,-210 412,-204 412,-198 412,-198 412,-186 412,-186 412,-180 418,-174 424,-174 424,-174 807,-174 807,-174 813,-174 819,-180 819,-186 819,-186 819,-198 819,-198 819,-204 813,-210 807,-210"/>
<text text-anchor="middle" x="615.5" y="-188.3" font-family="Times,serif" font-size="14.00">chacha20Xor(out, in, key, nonce_and_counter, count64)</text>
</g>
<!-- ChaChaNonVecImpl&#45;&gt;chacha20Xor -->
<g id="edge5" class="edge">
<title>ChaChaNonVecImpl&#45;&gt;chacha20Xor</title>
<path fill="none" stroke="black" d="M1364.93,-254.09C1226.41,-242.8 997.46,-224.14 829,-210.4"/>
<polygon fill="black" stroke="black" points="829.26,-206.91 819,-209.59 828.69,-213.89 829.26,-206.91"/>
</g>
<!-- chacha20Stream -->
<g id="node7" class="node">
<title>chacha20Stream</title>
<path fill="none" stroke="black" d="M1248,-210C1248,-210 859,-210 859,-210 853,-210 847,-204 847,-198 847,-198 847,-186 847,-186 847,-180 853,-174 859,-174 859,-174 1248,-174 1248,-174 1254,-174 1260,-180 1260,-186 1260,-186 1260,-198 1260,-198 1260,-204 1254,-210 1248,-210"/>
<text text-anchor="middle" x="1053.5" y="-188.3" font-family="Times,serif" font-size="14.00">chacha20Stream(out, key, nonce_and_counter, count64)</text>
</g>
<!-- ChaChaNonVecImpl&#45;&gt;chacha20Stream -->
<g id="edge6" class="edge">
<title>ChaChaNonVecImpl&#45;&gt;chacha20Stream</title>
<path fill="none" stroke="black" d="M1382.79,-246.99C1317.94,-236.36 1234.36,-222.66 1167.63,-211.71"/>
<polygon fill="black" stroke="black" points="1167.93,-208.22 1157.49,-210.05 1166.79,-215.12 1167.93,-208.22"/>
</g>
<!-- hchacha20 -->
<g id="node8" class="node">
<title>hchacha20</title>
<path fill="none" stroke="black" d="M1562,-210C1562,-210 1411,-210 1411,-210 1405,-210 1399,-204 1399,-198 1399,-198 1399,-186 1399,-186 1399,-180 1405,-174 1411,-174 1411,-174 1562,-174 1562,-174 1568,-174 1574,-180 1574,-186 1574,-186 1574,-198 1574,-198 1574,-204 1568,-210 1562,-210"/>
<text text-anchor="middle" x="1486.5" y="-188.3" font-family="Times,serif" font-size="14.00">hchacha20(input, key)</text>
</g>
<!-- ChaChaNonVecImpl&#45;&gt;hchacha20 -->
<g id="edge7" class="edge">
<title>ChaChaNonVecImpl&#45;&gt;hchacha20</title>
<path fill="none" stroke="black" d="M1486.5,-246.81C1486.5,-238.79 1486.5,-229.05 1486.5,-220.07"/>
<polygon fill="black" stroke="black" points="1490,-220.03 1486.5,-210.03 1483,-220.03 1490,-220.03"/>
</g>
<!-- QuarterRound -->
<g id="node9" class="node">
<title>QuarterRound</title>
<path fill="none" stroke="black" d="M1890.5,-210C1890.5,-210 1748.5,-210 1748.5,-210 1742.5,-210 1736.5,-204 1736.5,-198 1736.5,-198 1736.5,-186 1736.5,-186 1736.5,-180 1742.5,-174 1748.5,-174 1748.5,-174 1890.5,-174 1890.5,-174 1896.5,-174 1902.5,-180 1902.5,-186 1902.5,-186 1902.5,-198 1902.5,-198 1902.5,-204 1896.5,-210 1890.5,-210"/>
<text text-anchor="middle" x="1819.5" y="-188.3" font-family="Times,serif" font-size="14.00">QuarterRound struct</text>
</g>
<!-- ChaChaNonVecImpl&#45;&gt;QuarterRound -->
<g id="edge8" class="edge">
<title>ChaChaNonVecImpl&#45;&gt;QuarterRound</title>
<path fill="none" stroke="black" d="M1608.13,-250.89C1645.17,-245.58 1685.79,-238.42 1722.5,-229 1738.06,-225.01 1754.58,-219.41 1769.5,-213.82"/>
<polygon fill="black" stroke="black" points="1770.95,-217.01 1779.04,-210.16 1768.45,-210.47 1770.95,-217.01"/>
</g>
<!-- Rp -->
<g id="node10" class="node">
<title>Rp</title>
<path fill="none" stroke="black" d="M1972,-36C1972,-36 1889,-36 1889,-36 1883,-36 1877,-30 1877,-24 1877,-24 1877,-12 1877,-12 1877,-6 1883,0 1889,0 1889,0 1972,0 1972,0 1978,0 1984,-6 1984,-12 1984,-12 1984,-24 1984,-24 1984,-30 1978,-36 1972,-36"/>
<text text-anchor="middle" x="1930.5" y="-14.3" font-family="Times,serif" font-size="14.00">Rp(a, b, c, d)</text>
</g>
<!-- ChaChaNonVecImpl&#45;&gt;Rp -->
<g id="edge9" class="edge">
<title>ChaChaNonVecImpl&#45;&gt;Rp</title>
<path fill="none" stroke="black" d="M1608.17,-261.05C1716.18,-256.22 1864.02,-243.5 1911.5,-210 1958.94,-176.53 1965.67,-144.16 1955.5,-87 1952.98,-72.83 1947.72,-57.74 1942.67,-45.39"/>
<polygon fill="black" stroke="black" points="1945.86,-43.96 1938.72,-36.14 1939.43,-46.71 1945.86,-43.96"/>
</g>
<!-- chacha20Core&#45;&gt;Rp -->
<g id="edge27" class="edge">
<title>chacha20Core&#45;&gt;Rp</title>
<path fill="none" stroke="black" d="M1770.39,-87.55C1791.74,-82.59 1814.17,-76.43 1834.5,-69 1854.79,-61.58 1876.22,-50.74 1893.67,-41.05"/>
<polygon fill="black" stroke="black" points="1895.42,-44.08 1902.4,-36.11 1891.98,-37.99 1895.42,-44.08"/>
<text text-anchor="middle" x="1902.5" y="-57.8" font-family="Times,serif" font-size="14.00">定义轮结构</text>
</g>
<!-- math_rotl -->
<g id="node17" class="node">
<title>math_rotl</title>
<path fill="none" stroke="black" d="M1582.5,-36C1582.5,-36 1512.5,-36 1512.5,-36 1506.5,-36 1500.5,-30 1500.5,-24 1500.5,-24 1500.5,-12 1500.5,-12 1500.5,-6 1506.5,0 1512.5,0 1512.5,0 1582.5,0 1582.5,0 1588.5,0 1594.5,-6 1594.5,-12 1594.5,-12 1594.5,-24 1594.5,-24 1594.5,-30 1588.5,-36 1582.5,-36"/>
<text text-anchor="middle" x="1547.5" y="-14.3" font-family="Times,serif" font-size="14.00">math.rotl()</text>
</g>
<!-- chacha20Core&#45;&gt;math_rotl -->
<g id="edge28" class="edge">
<title>chacha20Core&#45;&gt;math_rotl</title>
<path fill="none" stroke="black" d="M1626.73,-86.9C1615.29,-81.99 1603.58,-76.03 1593.5,-69 1583.57,-62.08 1574.21,-52.68 1566.56,-43.89"/>
<polygon fill="black" stroke="black" points="1569.14,-41.52 1560.05,-36.08 1563.77,-46 1569.14,-41.52"/>
<text text-anchor="middle" x="1636.5" y="-57.8" font-family="Times,serif" font-size="14.00">循环移位操作</text>
</g>
<!-- rounds_loop -->
<g id="node18" class="node">
<title>rounds_loop</title>
<path fill="none" stroke="black" d="M1752,-36C1752,-36 1625,-36 1625,-36 1619,-36 1613,-30 1613,-24 1613,-24 1613,-12 1613,-12 1613,-6 1619,0 1625,0 1625,0 1752,0 1752,0 1758,0 1764,-6 1764,-12 1764,-12 1764,-24 1764,-24 1764,-30 1758,-36 1752,-36"/>
<text text-anchor="middle" x="1688.5" y="-14.3" font-family="Times,serif" font-size="14.00">for循环处理每轮运算</text>
</g>
<!-- chacha20Core&#45;&gt;rounds_loop -->
<g id="edge29" class="edge">
<title>chacha20Core&#45;&gt;rounds_loop</title>
<path fill="none" stroke="black" d="M1680.52,-86.8C1681.89,-75.16 1683.73,-59.55 1685.3,-46.24"/>
<polygon fill="black" stroke="black" points="1688.79,-46.52 1686.48,-36.18 1681.83,-45.7 1688.79,-46.52"/>
<text text-anchor="middle" x="1757.5" y="-57.8" font-family="Times,serif" font-size="14.00">执行rounds_nb次迭代</text>
</g>
<!-- chacha20Xor&#45;&gt;initContext -->
<g id="edge10" class="edge">
<title>chacha20Xor&#45;&gt;initContext</title>
<path fill="none" stroke="black" d="M464.68,-174C448.46,-166.62 442.32,-156.07 456.5,-141 477.74,-118.43 691.38,-126.16 752.33,-122.6"/>
<polygon fill="black" stroke="black" points="752.72,-126.08 762.38,-121.72 752.11,-119.1 752.72,-126.08"/>
</g>
<!-- chacha20Xor&#45;&gt;chacha20Core -->
<g id="edge11" class="edge">
<title>chacha20Xor&#45;&gt;chacha20Core</title>
<path fill="none" stroke="black" d="M760.15,-174C858.75,-163 992.35,-149.24 1110.5,-141 1314.47,-126.78 1369.18,-143.74 1576.9,-122.96"/>
<polygon fill="black" stroke="black" points="1577.32,-126.44 1586.91,-121.94 1576.61,-119.47 1577.32,-126.44"/>
<text text-anchor="middle" x="1169.5" y="-144.8" font-family="Times,serif" font-size="14.00">循环处理64字节块</text>
</g>
<!-- chacha20Xor&#45;&gt;hashToBytes -->
<g id="edge13" class="edge">
<title>chacha20Xor&#45;&gt;hashToBytes</title>
<path fill="none" stroke="black" d="M819.02,-175.02C825.25,-174.66 831.42,-174.32 837.5,-174 910.76,-170.2 1426.6,-174.83 1497.5,-156 1511.14,-152.38 1511.94,-144.92 1525.5,-141 1631.15,-110.47 1665.36,-136.21 1778.34,-123"/>
<polygon fill="black" stroke="black" points="1778.93,-126.45 1788.42,-121.74 1778.06,-119.51 1778.93,-126.45"/>
</g>
<!-- chacha20Xor&#45;&gt;contextFeedback -->
<g id="edge12" class="edge">
<title>chacha20Xor&#45;&gt;contextFeedback</title>
<path fill="none" stroke="black" d="M476.06,-173.99C436.09,-168.69 392.51,-162.52 352.5,-156 296.79,-146.92 234.68,-135 185.26,-125.07"/>
<polygon fill="black" stroke="black" points="185.72,-121.59 175.23,-123.05 184.34,-128.45 185.72,-121.59"/>
</g>
<!-- count64_branch -->
<g id="node11" class="node">
<title>count64_branch</title>
<path fill="none" stroke="black" d="M306.65,-121.13C306.65,-121.13 216.4,-106.87 216.4,-106.87 210.48,-105.94 210.48,-104.06 216.4,-103.13 216.4,-103.13 306.65,-88.87 306.65,-88.87 312.57,-87.94 324.43,-87.94 330.35,-88.87 330.35,-88.87 420.6,-103.13 420.6,-103.13 426.52,-104.06 426.52,-105.94 420.6,-106.87 420.6,-106.87 330.35,-121.13 330.35,-121.13 324.43,-122.06 312.57,-122.06 306.65,-121.13"/>
<text text-anchor="middle" x="318.5" y="-101.3" font-family="Times,serif" font-size="14.00">count64=true?</text>
</g>
<!-- chacha20Xor&#45;&gt;count64_branch -->
<g id="edge14" class="edge">
<title>chacha20Xor&#45;&gt;count64_branch</title>
<path fill="none" stroke="black" d="M432.3,-173.93C414.07,-169.26 396.16,-163.38 379.5,-156 364.79,-149.49 350.73,-138.42 339.83,-128.35"/>
<polygon fill="black" stroke="black" points="342.11,-125.69 332.48,-121.28 337.26,-130.73 342.11,-125.69"/>
<text text-anchor="middle" x="412.5" y="-144.8" font-family="Times,serif" font-size="14.00">count64?</text>
</g>
<!-- chacha20Stream&#45;&gt;initContext -->
<g id="edge17" class="edge">
<title>chacha20Stream&#45;&gt;initContext</title>
<path fill="none" stroke="black" d="M846.91,-175.24C840.36,-174.81 833.88,-174.4 827.5,-174 807.35,-172.74 478.42,-170.63 464.5,-156 421.81,-111.14 667.35,-129.76 752.18,-122.79"/>
<polygon fill="black" stroke="black" points="752.8,-126.24 762.38,-121.72 752.06,-119.28 752.8,-126.24"/>
</g>
<!-- chacha20Stream&#45;&gt;chacha20Core -->
<g id="edge18" class="edge">
<title>chacha20Stream&#45;&gt;chacha20Core</title>
<path fill="none" stroke="black" d="M1165.2,-173.99C1234.09,-163.77 1324.32,-150.88 1404.5,-141 1478.08,-131.94 1499.19,-133.29 1576.63,-123.06"/>
<polygon fill="black" stroke="black" points="1577.44,-126.48 1586.88,-121.68 1576.5,-119.54 1577.44,-126.48"/>
<text text-anchor="middle" x="1463.5" y="-144.8" font-family="Times,serif" font-size="14.00">循环生成64字节块</text>
</g>
<!-- chacha20Stream&#45;&gt;hashToBytes -->
<g id="edge20" class="edge">
<title>chacha20Stream&#45;&gt;hashToBytes</title>
<path fill="none" stroke="black" d="M1260.25,-181.66C1362.03,-175.84 1473.26,-167.28 1522.5,-156 1540.2,-151.95 1542.82,-145.12 1560.5,-141 1652.55,-119.55 1680.93,-135.2 1778.44,-123.01"/>
<polygon fill="black" stroke="black" points="1778.96,-126.47 1788.41,-121.7 1778.04,-119.53 1778.96,-126.47"/>
</g>
<!-- chacha20Stream&#45;&gt;contextFeedback -->
<g id="edge19" class="edge">
<title>chacha20Stream&#45;&gt;contextFeedback</title>
<path fill="none" stroke="black" d="M846.91,-175.24C840.36,-174.81 833.88,-174.39 827.5,-174 662.73,-163.81 619.71,-180.8 456.5,-156 430.18,-152 424.74,-145.52 398.5,-141 312.38,-126.15 287.11,-133.86 197.21,-123.14"/>
<polygon fill="black" stroke="black" points="197.47,-119.64 187.11,-121.89 196.61,-126.59 197.47,-119.64"/>
</g>
<!-- count64_branch_stream -->
<g id="node14" class="node">
<title>count64_branch_stream</title>
<path fill="none" stroke="black" d="M1030.65,-121.13C1030.65,-121.13 940.4,-106.87 940.4,-106.87 934.48,-105.94 934.48,-104.06 940.4,-103.13 940.4,-103.13 1030.65,-88.87 1030.65,-88.87 1036.57,-87.94 1048.43,-87.94 1054.35,-88.87 1054.35,-88.87 1144.6,-103.13 1144.6,-103.13 1150.52,-104.06 1150.52,-105.94 1144.6,-106.87 1144.6,-106.87 1054.35,-121.13 1054.35,-121.13 1048.43,-122.06 1036.57,-122.06 1030.65,-121.13"/>
<text text-anchor="middle" x="1042.5" y="-101.3" font-family="Times,serif" font-size="14.00">count64=true?</text>
</g>
<!-- chacha20Stream&#45;&gt;count64_branch_stream -->
<g id="edge21" class="edge">
<title>chacha20Stream&#45;&gt;count64_branch_stream</title>
<path fill="none" stroke="black" d="M846.91,-175.25C840.36,-174.82 833.88,-174.4 827.5,-174 807.74,-172.76 485.14,-170.35 471.5,-156 466.91,-151.17 466.88,-145.81 471.5,-141 488.76,-123.04 894.69,-125.21 919.5,-123 938.79,-121.28 959.7,-118.68 978.7,-116.02"/>
<polygon fill="black" stroke="black" points="979.34,-119.46 988.74,-114.58 978.35,-112.53 979.34,-119.46"/>
<text text-anchor="middle" x="504.5" y="-144.8" font-family="Times,serif" font-size="14.00">count64?</text>
</g>
<!-- hchacha20&#45;&gt;initContext -->
<g id="edge24" class="edge">
<title>hchacha20&#45;&gt;initContext</title>
<path fill="none" stroke="black" d="M1475.97,-173.75C1467.86,-162.2 1455.5,-147.9 1440.5,-141 1390.08,-117.83 1010.89,-128.81 920.75,-122.72"/>
<polygon fill="black" stroke="black" points="920.88,-119.22 910.61,-121.82 920.26,-126.19 920.88,-119.22"/>
</g>
<!-- hchacha20&#45;&gt;chacha20Core -->
<g id="edge25" class="edge">
<title>hchacha20&#45;&gt;chacha20Core</title>
<path fill="none" stroke="black" d="M1503.22,-173.94C1514.75,-163.08 1530.93,-149.5 1547.5,-141 1558.85,-135.18 1571.27,-130.25 1583.79,-126.11"/>
<polygon fill="black" stroke="black" points="1584.88,-129.43 1593.36,-123.09 1582.77,-122.76 1584.88,-129.43"/>
</g>
<!-- hchacha20&#45;&gt;hashToBytes -->
<g id="edge26" class="edge">
<title>hchacha20&#45;&gt;hashToBytes</title>
<path fill="none" stroke="black" d="M1520.58,-173.97C1544.57,-162.75 1577.76,-148.75 1608.5,-141 1679.56,-123.09 1702.08,-133.33 1778.32,-123.05"/>
<polygon fill="black" stroke="black" points="1778.99,-126.49 1788.4,-121.61 1778.01,-119.56 1778.99,-126.49"/>
<text text-anchor="middle" x="1651.5" y="-144.8" font-family="Times,serif" font-size="14.00">提取中间结果</text>
</g>
<!-- ctx_update_64 -->
<g id="node12" class="node">
<title>ctx_update_64</title>
<path fill="none" stroke="black" d="M732.5,-123C732.5,-123 596.5,-123 596.5,-123 590.5,-123 584.5,-117 584.5,-111 584.5,-111 584.5,-99 584.5,-99 584.5,-93 590.5,-87 596.5,-87 596.5,-87 732.5,-87 732.5,-87 738.5,-87 744.5,-93 744.5,-99 744.5,-99 744.5,-111 744.5,-111 744.5,-117 738.5,-123 732.5,-123"/>
<text text-anchor="middle" x="664.5" y="-101.3" font-family="Times,serif" font-size="14.00">更新ctx[12]和ctx[13]</text>
</g>
<!-- count64_branch&#45;&gt;ctx_update_64 -->
<g id="edge15" class="edge">
<title>count64_branch&#45;&gt;ctx_update_64</title>
<path fill="none" stroke="black" d="M349.64,-118.26C396.84,-136.62 489.26,-165.73 567,-149 586.76,-144.75 607.34,-136.16 624.48,-127.69"/>
<polygon fill="black" stroke="black" points="626.3,-130.69 633.61,-123.02 623.12,-124.45 626.3,-130.69"/>
<text text-anchor="middle" x="554.5" y="-144.8" font-family="Times,serif" font-size="14.00">Yes</text>
</g>
<!-- ctx_update_32 -->
<g id="node13" class="node">
<title>ctx_update_32</title>
<path fill="none" stroke="black" d="M554,-123C554,-123 483,-123 483,-123 477,-123 471,-117 471,-111 471,-111 471,-99 471,-99 471,-93 477,-87 483,-87 483,-87 554,-87 554,-87 560,-87 566,-93 566,-99 566,-99 566,-111 566,-111 566,-117 560,-123 554,-123"/>
<text text-anchor="middle" x="518.5" y="-101.3" font-family="Times,serif" font-size="14.00">更新ctx[12]</text>
</g>
<!-- count64_branch&#45;&gt;ctx_update_32 -->
<g id="edge16" class="edge">
<title>count64_branch&#45;&gt;ctx_update_32</title>
<path fill="none" stroke="black" d="M432.52,-105C442.23,-105 451.76,-105 460.74,-105"/>
<polygon fill="black" stroke="black" points="460.99,-108.5 470.99,-105 460.99,-101.5 460.99,-108.5"/>
<text text-anchor="middle" x="451.74" y="-111.8" font-family="Times,serif" font-size="14.00">No</text>
</g>
<!-- ctx_update_64_stream -->
<g id="node15" class="node">
<title>ctx_update_64_stream</title>
<path fill="none" stroke="black" d="M1362.5,-123C1362.5,-123 1210.5,-123 1210.5,-123 1204.5,-123 1198.5,-117 1198.5,-111 1198.5,-111 1198.5,-99 1198.5,-99 1198.5,-93 1204.5,-87 1210.5,-87 1210.5,-87 1362.5,-87 1362.5,-87 1368.5,-87 1374.5,-93 1374.5,-99 1374.5,-99 1374.5,-111 1374.5,-111 1374.5,-117 1368.5,-123 1362.5,-123"/>
<text text-anchor="middle" x="1286.5" y="-101.3" font-family="Times,serif" font-size="14.00">ctx_update_64_stream</text>
</g>
<!-- count64_branch_stream&#45;&gt;ctx_update_64_stream -->
<g id="edge22" class="edge">
<title>count64_branch_stream&#45;&gt;ctx_update_64_stream</title>
<path fill="none" stroke="black" d="M1156.64,-105C1167.15,-105 1177.74,-105 1188.1,-105"/>
<polygon fill="black" stroke="black" points="1188.36,-108.5 1198.36,-105 1188.36,-101.5 1188.36,-108.5"/>
<text text-anchor="middle" x="1177.49" y="-111.8" font-family="Times,serif" font-size="14.00">Yes</text>
</g>
<!-- ctx_update_32_stream -->
<g id="node16" class="node">
<title>ctx_update_32_stream</title>
<path fill="none" stroke="black" d="M1556.5,-123C1556.5,-123 1404.5,-123 1404.5,-123 1398.5,-123 1392.5,-117 1392.5,-111 1392.5,-111 1392.5,-99 1392.5,-99 1392.5,-93 1398.5,-87 1404.5,-87 1404.5,-87 1556.5,-87 1556.5,-87 1562.5,-87 1568.5,-93 1568.5,-99 1568.5,-99 1568.5,-111 1568.5,-111 1568.5,-117 1562.5,-123 1556.5,-123"/>
<text text-anchor="middle" x="1480.5" y="-101.3" font-family="Times,serif" font-size="14.00">ctx_update_32_stream</text>
</g>
<!-- count64_branch_stream&#45;&gt;ctx_update_32_stream -->
<g id="edge23" class="edge">
<title>count64_branch_stream&#45;&gt;ctx_update_32_stream</title>
<path fill="none" stroke="black" d="M1081.81,-116.84C1120.02,-127.69 1179.88,-142.95 1233,-149 1296.82,-156.27 1369.07,-140.64 1418.96,-126.03"/>
<polygon fill="black" stroke="black" points="1420.06,-129.36 1428.63,-123.13 1418.05,-122.65 1420.06,-129.36"/>
<text text-anchor="middle" x="1243.5" y="-144.8" font-family="Times,serif" font-size="14.00">No</text>
</g>
</g>
</svg>
