<?xml version="1.0" encoding="UTF-8" standalone="no"?>
<!DOCTYPE svg PUBLIC "-//W3C//DTD SVG 1.1//EN"
 "http://www.w3.org/Graphics/SVG/1.1/DTD/svg11.dtd">
<!-- Generated by graphviz version 2.43.0 (0)
 -->
<!-- Title: flowchart Pages: 1 -->
<svg width="229pt" height="958pt"
 viewBox="0.00 0.00 229.00 958.00" xmlns="http://www.w3.org/2000/svg" xmlns:xlink="http://www.w3.org/1999/xlink">
<g id="graph0" class="graph" transform="scale(1 1) rotate(0) translate(4 954)">
<title>flowchart</title>
<polygon fill="white" stroke="transparent" points="-4,4 -4,-954 225,-954 225,4 -4,4"/>
<!-- start -->
<g id="node1" class="node">
<title>start</title>
<polygon fill="none" stroke="black" points="157,-950 64,-950 64,-914 157,-914 157,-950"/>
<text text-anchor="middle" x="110.5" y="-929.5" font-family="Courier,monospace" font-size="10.00">开始执行mul函数</text>
</g>
<!-- decompose -->
<g id="node2" class="node">
<title>decompose</title>
<polygon fill="none" stroke="black" points="221,-878 0,-878 0,-837 221,-837 221,-878"/>
<text text-anchor="middle" x="110.5" y="-866" font-family="Courier,monospace" font-size="10.00">分解输入参数</text>
<text text-anchor="middle" x="110.5" y="-855" font-family="Courier,monospace" font-size="10.00">arg1[0], arg1[1], arg1[2], arg1[3]</text>
<text text-anchor="middle" x="110.5" y="-844" font-family="Courier,monospace" font-size="10.00">arg2[0], arg2[1], arg2[2], arg2[3]</text>
</g>
<!-- start&#45;&gt;decompose -->
<g id="edge1" class="edge">
<title>start&#45;&gt;decompose</title>
<path fill="none" stroke="black" d="M110.5,-913.82C110.5,-906.2 110.5,-897 110.5,-888.32"/>
<polygon fill="black" stroke="black" points="114,-888.12 110.5,-878.12 107,-888.12 114,-888.12"/>
</g>
<!-- process_x4 -->
<g id="node3" class="node">
<title>process_x4</title>
<polygon fill="none" stroke="black" points="174.5,-801 46.5,-801 46.5,-760 174.5,-760 174.5,-801"/>
<text text-anchor="middle" x="110.5" y="-789" font-family="Courier,monospace" font-size="10.00">计算x4 * arg2各部分</text>
<text text-anchor="middle" x="110.5" y="-778" font-family="Courier,monospace" font-size="10.00">mulxU64生成x5&#45;x12</text>
<text text-anchor="middle" x="110.5" y="-767" font-family="Courier,monospace" font-size="10.00">累加进位addcarryxU64</text>
</g>
<!-- decompose&#45;&gt;process_x4 -->
<g id="edge2" class="edge">
<title>decompose&#45;&gt;process_x4</title>
<path fill="none" stroke="black" d="M110.5,-836.79C110.5,-828.96 110.5,-819.77 110.5,-811.16"/>
<polygon fill="black" stroke="black" points="114,-811.07 110.5,-801.07 107,-811.07 114,-811.07"/>
</g>
<!-- mont_reduce_x4 -->
<g id="node4" class="node">
<title>mont_reduce_x4</title>
<polygon fill="none" stroke="black" points="187.5,-724 33.5,-724 33.5,-683 187.5,-683 187.5,-724"/>
<text text-anchor="middle" x="110.5" y="-712" font-family="Courier,monospace" font-size="10.00">Montgomery约减</text>
<text text-anchor="middle" x="110.5" y="-701" font-family="Courier,monospace" font-size="10.00">乘逆元0xccd1c8aaee00bc4f</text>
<text text-anchor="middle" x="110.5" y="-690" font-family="Courier,monospace" font-size="10.00">计算x20&#45;x36并累加</text>
</g>
<!-- process_x4&#45;&gt;mont_reduce_x4 -->
<g id="edge3" class="edge">
<title>process_x4&#45;&gt;mont_reduce_x4</title>
<path fill="none" stroke="black" d="M110.5,-759.79C110.5,-751.96 110.5,-742.77 110.5,-734.16"/>
<polygon fill="black" stroke="black" points="114,-734.07 110.5,-724.07 107,-734.07 114,-734.07"/>
</g>
<!-- process_x1 -->
<g id="node5" class="node">
<title>process_x1</title>
<polygon fill="none" stroke="black" points="174.5,-647 46.5,-647 46.5,-606 174.5,-606 174.5,-647"/>
<text text-anchor="middle" x="110.5" y="-635" font-family="Courier,monospace" font-size="10.00">计算x1 * arg2各部分</text>
<text text-anchor="middle" x="110.5" y="-624" font-family="Courier,monospace" font-size="10.00">mulxU64生成x47&#45;x54</text>
<text text-anchor="middle" x="110.5" y="-613" font-family="Courier,monospace" font-size="10.00">累加进位addcarryxU64</text>
</g>
<!-- mont_reduce_x4&#45;&gt;process_x1 -->
<g id="edge4" class="edge">
<title>mont_reduce_x4&#45;&gt;process_x1</title>
<path fill="none" stroke="black" d="M110.5,-682.79C110.5,-674.96 110.5,-665.77 110.5,-657.16"/>
<polygon fill="black" stroke="black" points="114,-657.07 110.5,-647.07 107,-657.07 114,-657.07"/>
</g>
<!-- mont_reduce_x1 -->
<g id="node6" class="node">
<title>mont_reduce_x1</title>
<polygon fill="none" stroke="black" points="187.5,-570 33.5,-570 33.5,-529 187.5,-529 187.5,-570"/>
<text text-anchor="middle" x="110.5" y="-558" font-family="Courier,monospace" font-size="10.00">Montgomery约减</text>
<text text-anchor="middle" x="110.5" y="-547" font-family="Courier,monospace" font-size="10.00">乘逆元0xccd1c8aaee00bc4f</text>
<text text-anchor="middle" x="110.5" y="-536" font-family="Courier,monospace" font-size="10.00">计算x72&#45;x88并累加</text>
</g>
<!-- process_x1&#45;&gt;mont_reduce_x1 -->
<g id="edge5" class="edge">
<title>process_x1&#45;&gt;mont_reduce_x1</title>
<path fill="none" stroke="black" d="M110.5,-605.79C110.5,-597.96 110.5,-588.77 110.5,-580.16"/>
<polygon fill="black" stroke="black" points="114,-580.07 110.5,-570.07 107,-580.07 114,-580.07"/>
</g>
<!-- process_x2 -->
<g id="node7" class="node">
<title>process_x2</title>
<polygon fill="none" stroke="black" points="176.5,-493 44.5,-493 44.5,-452 176.5,-452 176.5,-493"/>
<text text-anchor="middle" x="110.5" y="-481" font-family="Courier,monospace" font-size="10.00">计算x2 * arg2各部分</text>
<text text-anchor="middle" x="110.5" y="-470" font-family="Courier,monospace" font-size="10.00">mulxU64生成x100&#45;x107</text>
<text text-anchor="middle" x="110.5" y="-459" font-family="Courier,monospace" font-size="10.00">累加进位addcarryxU64</text>
</g>
<!-- mont_reduce_x1&#45;&gt;process_x2 -->
<g id="edge6" class="edge">
<title>mont_reduce_x1&#45;&gt;process_x2</title>
<path fill="none" stroke="black" d="M110.5,-528.79C110.5,-520.96 110.5,-511.77 110.5,-503.16"/>
<polygon fill="black" stroke="black" points="114,-503.07 110.5,-493.07 107,-503.07 114,-503.07"/>
</g>
<!-- mont_reduce_x2 -->
<g id="node8" class="node">
<title>mont_reduce_x2</title>
<polygon fill="none" stroke="black" points="187.5,-416 33.5,-416 33.5,-375 187.5,-375 187.5,-416"/>
<text text-anchor="middle" x="110.5" y="-404" font-family="Courier,monospace" font-size="10.00">Montgomery约减</text>
<text text-anchor="middle" x="110.5" y="-393" font-family="Courier,monospace" font-size="10.00">乘逆元0xccd1c8aaee00bc4f</text>
<text text-anchor="middle" x="110.5" y="-382" font-family="Courier,monospace" font-size="10.00">计算x125&#45;x141并累加</text>
</g>
<!-- process_x2&#45;&gt;mont_reduce_x2 -->
<g id="edge7" class="edge">
<title>process_x2&#45;&gt;mont_reduce_x2</title>
<path fill="none" stroke="black" d="M110.5,-451.79C110.5,-443.96 110.5,-434.77 110.5,-426.16"/>
<polygon fill="black" stroke="black" points="114,-426.07 110.5,-416.07 107,-426.07 114,-426.07"/>
</g>
<!-- process_x3 -->
<g id="node9" class="node">
<title>process_x3</title>
<polygon fill="none" stroke="black" points="176.5,-339 44.5,-339 44.5,-298 176.5,-298 176.5,-339"/>
<text text-anchor="middle" x="110.5" y="-327" font-family="Courier,monospace" font-size="10.00">计算x3 * arg2各部分</text>
<text text-anchor="middle" x="110.5" y="-316" font-family="Courier,monospace" font-size="10.00">mulxU64生成x153&#45;x160</text>
<text text-anchor="middle" x="110.5" y="-305" font-family="Courier,monospace" font-size="10.00">累加进位addcarryxU64</text>
</g>
<!-- mont_reduce_x2&#45;&gt;process_x3 -->
<g id="edge8" class="edge">
<title>mont_reduce_x2&#45;&gt;process_x3</title>
<path fill="none" stroke="black" d="M110.5,-374.79C110.5,-366.96 110.5,-357.77 110.5,-349.16"/>
<polygon fill="black" stroke="black" points="114,-349.07 110.5,-339.07 107,-349.07 114,-349.07"/>
</g>
<!-- mont_reduce_x3 -->
<g id="node10" class="node">
<title>mont_reduce_x3</title>
<polygon fill="none" stroke="black" points="187.5,-262 33.5,-262 33.5,-221 187.5,-221 187.5,-262"/>
<text text-anchor="middle" x="110.5" y="-250" font-family="Courier,monospace" font-size="10.00">Montgomery约减</text>
<text text-anchor="middle" x="110.5" y="-239" font-family="Courier,monospace" font-size="10.00">乘逆元0xccd1c8aaee00bc4f</text>
<text text-anchor="middle" x="110.5" y="-228" font-family="Courier,monospace" font-size="10.00">计算x178&#45;x194并累加</text>
</g>
<!-- process_x3&#45;&gt;mont_reduce_x3 -->
<g id="edge9" class="edge">
<title>process_x3&#45;&gt;mont_reduce_x3</title>
<path fill="none" stroke="black" d="M110.5,-297.79C110.5,-289.96 110.5,-280.77 110.5,-272.16"/>
<polygon fill="black" stroke="black" points="114,-272.07 110.5,-262.07 107,-272.07 114,-272.07"/>
</g>
<!-- final_adjust -->
<g id="node11" class="node">
<title>final_adjust</title>
<polygon fill="none" stroke="black" points="177.5,-185 43.5,-185 43.5,-144 177.5,-144 177.5,-185"/>
<text text-anchor="middle" x="110.5" y="-173" font-family="Courier,monospace" font-size="10.00">最终模约减调整</text>
<text text-anchor="middle" x="110.5" y="-162" font-family="Courier,monospace" font-size="10.00">subborrowxU64检查借位</text>
<text text-anchor="middle" x="110.5" y="-151" font-family="Courier,monospace" font-size="10.00">cmovznzU64选择结果</text>
</g>
<!-- mont_reduce_x3&#45;&gt;final_adjust -->
<g id="edge10" class="edge">
<title>mont_reduce_x3&#45;&gt;final_adjust</title>
<path fill="none" stroke="black" d="M110.5,-220.79C110.5,-212.96 110.5,-203.77 110.5,-195.16"/>
<polygon fill="black" stroke="black" points="114,-195.07 110.5,-185.07 107,-195.07 114,-195.07"/>
</g>
<!-- output -->
<g id="node12" class="node">
<title>output</title>
<polygon fill="none" stroke="black" points="188,-108 33,-108 33,-72 188,-72 188,-108"/>
<text text-anchor="middle" x="110.5" y="-87.5" font-family="Courier,monospace" font-size="10.00">存储结果到out1[0]&#45;out1[3]</text>
</g>
<!-- final_adjust&#45;&gt;output -->
<g id="edge11" class="edge">
<title>final_adjust&#45;&gt;output</title>
<path fill="none" stroke="black" d="M110.5,-143.69C110.5,-135.91 110.5,-126.84 110.5,-118.45"/>
<polygon fill="black" stroke="black" points="114,-118.32 110.5,-108.32 107,-118.32 114,-118.32"/>
</g>
<!-- end -->
<g id="node13" class="node">
<title>end</title>
<polygon fill="none" stroke="black" points="138.5,-36 82.5,-36 82.5,0 138.5,0 138.5,-36"/>
<text text-anchor="middle" x="110.5" y="-15.5" font-family="Courier,monospace" font-size="10.00">函数结束</text>
</g>
<!-- output&#45;&gt;end -->
<g id="edge12" class="edge">
<title>output&#45;&gt;end</title>
<path fill="none" stroke="black" d="M110.5,-71.7C110.5,-63.98 110.5,-54.71 110.5,-46.11"/>
<polygon fill="black" stroke="black" points="114,-46.1 110.5,-36.1 107,-46.1 114,-46.1"/>
</g>
</g>
</svg>
