<?xml version="1.0" encoding="UTF-8" standalone="no"?>
<!DOCTYPE svg PUBLIC "-//W3C//DTD SVG 1.1//EN"
 "http://www.w3.org/Graphics/SVG/1.1/DTD/svg11.dtd">
<!-- Generated by graphviz version 2.43.0 (0)
 -->
<!-- Title: flowchart Pages: 1 -->
<svg width="252pt" height="1030pt"
 viewBox="0.00 0.00 252.00 1030.00" xmlns="http://www.w3.org/2000/svg" xmlns:xlink="http://www.w3.org/1999/xlink">
<g id="graph0" class="graph" transform="scale(1 1) rotate(0) translate(4 1026)">
<title>flowchart</title>
<polygon fill="white" stroke="transparent" points="-4,4 -4,-1026 248,-1026 248,4 -4,4"/>
<!-- start -->
<g id="node1" class="node">
<title>start</title>
<path fill="none" stroke="black" d="M137,-1022C137,-1022 107,-1022 107,-1022 101,-1022 95,-1016 95,-1010 95,-1010 95,-998 95,-998 95,-992 101,-986 107,-986 107,-986 137,-986 137,-986 143,-986 149,-992 149,-998 149,-998 149,-1010 149,-1010 149,-1016 143,-1022 137,-1022"/>
<text text-anchor="middle" x="122" y="-1000.3" font-family="Helvetica,sans-Serif" font-size="14.00">开始</text>
</g>
<!-- decompose_input -->
<g id="node2" class="node">
<title>decompose_input</title>
<path fill="none" stroke="black" d="M232,-950C232,-950 12,-950 12,-950 6,-950 0,-944 0,-938 0,-938 0,-926 0,-926 0,-920 6,-914 12,-914 12,-914 232,-914 232,-914 238,-914 244,-920 244,-926 244,-926 244,-938 244,-938 244,-944 238,-950 232,-950"/>
<text text-anchor="middle" x="122" y="-928.3" font-family="Helvetica,sans-Serif" font-size="14.00">分解输入参数arg1到x1, x2, x3, x4</text>
</g>
<!-- start&#45;&gt;decompose_input -->
<g id="edge1" class="edge">
<title>start&#45;&gt;decompose_input</title>
<path fill="none" stroke="black" d="M122,-985.7C122,-977.98 122,-968.71 122,-960.11"/>
<polygon fill="black" stroke="black" points="125.5,-960.1 122,-950.1 118.5,-960.1 125.5,-960.1"/>
</g>
<!-- process_x4 -->
<g id="node3" class="node">
<title>process_x4</title>
<path fill="none" stroke="black" d="M228,-878C228,-878 16,-878 16,-878 10,-878 4,-872 4,-866 4,-866 4,-852 4,-852 4,-846 10,-840 16,-840 16,-840 228,-840 228,-840 234,-840 240,-846 240,-852 240,-852 240,-866 240,-866 240,-872 234,-878 228,-878"/>
<text text-anchor="middle" x="122" y="-862.8" font-family="Helvetica,sans-Serif" font-size="14.00">计算x4与arg1各元素的乘积及累加</text>
<text text-anchor="middle" x="122" y="-847.8" font-family="Helvetica,sans-Serif" font-size="14.00">(x5到x19生成)</text>
</g>
<!-- decompose_input&#45;&gt;process_x4 -->
<g id="edge2" class="edge">
<title>decompose_input&#45;&gt;process_x4</title>
<path fill="none" stroke="black" d="M122,-913.81C122,-906.11 122,-896.82 122,-888.15"/>
<polygon fill="black" stroke="black" points="125.5,-888.02 122,-878.02 118.5,-888.02 125.5,-888.02"/>
</g>
<!-- montgomery_reduce1 -->
<g id="node4" class="node">
<title>montgomery_reduce1</title>
<path fill="none" stroke="black" d="M221,-804C221,-804 23,-804 23,-804 17,-804 11,-798 11,-792 11,-792 11,-763 11,-763 11,-757 17,-751 23,-751 23,-751 221,-751 221,-751 227,-751 233,-757 233,-763 233,-763 233,-792 233,-792 233,-798 227,-804 221,-804"/>
<text text-anchor="middle" x="122" y="-788.8" font-family="Helvetica,sans-Serif" font-size="14.00">第一次Montgomery约简</text>
<text text-anchor="middle" x="122" y="-773.8" font-family="Helvetica,sans-Serif" font-size="14.00">使用常数0xccd1c8aaee00bc4f</text>
<text text-anchor="middle" x="122" y="-758.8" font-family="Helvetica,sans-Serif" font-size="14.00">生成x20到x36并更新中间结果</text>
</g>
<!-- process_x4&#45;&gt;montgomery_reduce1 -->
<g id="edge3" class="edge">
<title>process_x4&#45;&gt;montgomery_reduce1</title>
<path fill="none" stroke="black" d="M122,-839.96C122,-832.32 122,-823.14 122,-814.23"/>
<polygon fill="black" stroke="black" points="125.5,-814 122,-804 118.5,-814 125.5,-814"/>
</g>
<!-- process_x1 -->
<g id="node5" class="node">
<title>process_x1</title>
<path fill="none" stroke="black" d="M184,-715C184,-715 60,-715 60,-715 54,-715 48,-709 48,-703 48,-703 48,-689 48,-689 48,-683 54,-677 60,-677 60,-677 184,-677 184,-677 190,-677 196,-683 196,-689 196,-689 196,-703 196,-703 196,-709 190,-715 184,-715"/>
<text text-anchor="middle" x="122" y="-699.8" font-family="Helvetica,sans-Serif" font-size="14.00">处理x1的乘法并累加</text>
<text text-anchor="middle" x="122" y="-684.8" font-family="Helvetica,sans-Serif" font-size="14.00">生成x47到x61</text>
</g>
<!-- montgomery_reduce1&#45;&gt;process_x1 -->
<g id="edge4" class="edge">
<title>montgomery_reduce1&#45;&gt;process_x1</title>
<path fill="none" stroke="black" d="M122,-750.91C122,-742.74 122,-733.65 122,-725.3"/>
<polygon fill="black" stroke="black" points="125.5,-725.24 122,-715.24 118.5,-725.24 125.5,-725.24"/>
</g>
<!-- montgomery_reduce2 -->
<g id="node6" class="node">
<title>montgomery_reduce2</title>
<path fill="none" stroke="black" d="M201.5,-641C201.5,-641 42.5,-641 42.5,-641 36.5,-641 30.5,-635 30.5,-629 30.5,-629 30.5,-615 30.5,-615 30.5,-609 36.5,-603 42.5,-603 42.5,-603 201.5,-603 201.5,-603 207.5,-603 213.5,-609 213.5,-615 213.5,-615 213.5,-629 213.5,-629 213.5,-635 207.5,-641 201.5,-641"/>
<text text-anchor="middle" x="122" y="-625.8" font-family="Helvetica,sans-Serif" font-size="14.00">第二次Montgomery约简</text>
<text text-anchor="middle" x="122" y="-610.8" font-family="Helvetica,sans-Serif" font-size="14.00">更新中间结果到x72到x88</text>
</g>
<!-- process_x1&#45;&gt;montgomery_reduce2 -->
<g id="edge5" class="edge">
<title>process_x1&#45;&gt;montgomery_reduce2</title>
<path fill="none" stroke="black" d="M122,-676.83C122,-669.13 122,-659.97 122,-651.42"/>
<polygon fill="black" stroke="black" points="125.5,-651.41 122,-641.41 118.5,-651.41 125.5,-651.41"/>
</g>
<!-- process_x2 -->
<g id="node7" class="node">
<title>process_x2</title>
<path fill="none" stroke="black" d="M184,-567C184,-567 60,-567 60,-567 54,-567 48,-561 48,-555 48,-555 48,-541 48,-541 48,-535 54,-529 60,-529 60,-529 184,-529 184,-529 190,-529 196,-535 196,-541 196,-541 196,-555 196,-555 196,-561 190,-567 184,-567"/>
<text text-anchor="middle" x="122" y="-551.8" font-family="Helvetica,sans-Serif" font-size="14.00">处理x2的乘法并累加</text>
<text text-anchor="middle" x="122" y="-536.8" font-family="Helvetica,sans-Serif" font-size="14.00">生成x100到x114</text>
</g>
<!-- montgomery_reduce2&#45;&gt;process_x2 -->
<g id="edge6" class="edge">
<title>montgomery_reduce2&#45;&gt;process_x2</title>
<path fill="none" stroke="black" d="M122,-602.83C122,-595.13 122,-585.97 122,-577.42"/>
<polygon fill="black" stroke="black" points="125.5,-577.41 122,-567.41 118.5,-577.41 125.5,-577.41"/>
</g>
<!-- montgomery_reduce3 -->
<g id="node8" class="node">
<title>montgomery_reduce3</title>
<path fill="none" stroke="black" d="M210.5,-493C210.5,-493 33.5,-493 33.5,-493 27.5,-493 21.5,-487 21.5,-481 21.5,-481 21.5,-467 21.5,-467 21.5,-461 27.5,-455 33.5,-455 33.5,-455 210.5,-455 210.5,-455 216.5,-455 222.5,-461 222.5,-467 222.5,-467 222.5,-481 222.5,-481 222.5,-487 216.5,-493 210.5,-493"/>
<text text-anchor="middle" x="122" y="-477.8" font-family="Helvetica,sans-Serif" font-size="14.00">第三次Montgomery约简</text>
<text text-anchor="middle" x="122" y="-462.8" font-family="Helvetica,sans-Serif" font-size="14.00">更新中间结果到x125到x141</text>
</g>
<!-- process_x2&#45;&gt;montgomery_reduce3 -->
<g id="edge7" class="edge">
<title>process_x2&#45;&gt;montgomery_reduce3</title>
<path fill="none" stroke="black" d="M122,-528.83C122,-521.13 122,-511.97 122,-503.42"/>
<polygon fill="black" stroke="black" points="125.5,-503.41 122,-493.41 118.5,-503.41 125.5,-503.41"/>
</g>
<!-- process_x3 -->
<g id="node9" class="node">
<title>process_x3</title>
<path fill="none" stroke="black" d="M184,-419C184,-419 60,-419 60,-419 54,-419 48,-413 48,-407 48,-407 48,-393 48,-393 48,-387 54,-381 60,-381 60,-381 184,-381 184,-381 190,-381 196,-387 196,-393 196,-393 196,-407 196,-407 196,-413 190,-419 184,-419"/>
<text text-anchor="middle" x="122" y="-403.8" font-family="Helvetica,sans-Serif" font-size="14.00">处理x3的乘法并累加</text>
<text text-anchor="middle" x="122" y="-388.8" font-family="Helvetica,sans-Serif" font-size="14.00">生成x153到x167</text>
</g>
<!-- montgomery_reduce3&#45;&gt;process_x3 -->
<g id="edge8" class="edge">
<title>montgomery_reduce3&#45;&gt;process_x3</title>
<path fill="none" stroke="black" d="M122,-454.83C122,-447.13 122,-437.97 122,-429.42"/>
<polygon fill="black" stroke="black" points="125.5,-429.41 122,-419.41 118.5,-429.41 125.5,-429.41"/>
</g>
<!-- montgomery_reduce4 -->
<g id="node10" class="node">
<title>montgomery_reduce4</title>
<path fill="none" stroke="black" d="M210.5,-345C210.5,-345 33.5,-345 33.5,-345 27.5,-345 21.5,-339 21.5,-333 21.5,-333 21.5,-319 21.5,-319 21.5,-313 27.5,-307 33.5,-307 33.5,-307 210.5,-307 210.5,-307 216.5,-307 222.5,-313 222.5,-319 222.5,-319 222.5,-333 222.5,-333 222.5,-339 216.5,-345 210.5,-345"/>
<text text-anchor="middle" x="122" y="-329.8" font-family="Helvetica,sans-Serif" font-size="14.00">第四次Montgomery约简</text>
<text text-anchor="middle" x="122" y="-314.8" font-family="Helvetica,sans-Serif" font-size="14.00">更新中间结果到x178到x194</text>
</g>
<!-- process_x3&#45;&gt;montgomery_reduce4 -->
<g id="edge9" class="edge">
<title>process_x3&#45;&gt;montgomery_reduce4</title>
<path fill="none" stroke="black" d="M122,-380.83C122,-373.13 122,-363.97 122,-355.42"/>
<polygon fill="black" stroke="black" points="125.5,-355.41 122,-345.41 118.5,-355.41 125.5,-355.41"/>
</g>
<!-- final_sub -->
<g id="node11" class="node">
<title>final_sub</title>
<path fill="none" stroke="black" d="M201.5,-271C201.5,-271 42.5,-271 42.5,-271 36.5,-271 30.5,-265 30.5,-259 30.5,-259 30.5,-230 30.5,-230 30.5,-224 36.5,-218 42.5,-218 42.5,-218 201.5,-218 201.5,-218 207.5,-218 213.5,-224 213.5,-230 213.5,-230 213.5,-259 213.5,-259 213.5,-265 207.5,-271 201.5,-271"/>
<text text-anchor="middle" x="122" y="-255.8" font-family="Helvetica,sans-Serif" font-size="14.00">最终减法处理</text>
<text text-anchor="middle" x="122" y="-240.8" font-family="Helvetica,sans-Serif" font-size="14.00">subborrowxU64检查借位</text>
<text text-anchor="middle" x="122" y="-225.8" font-family="Helvetica,sans-Serif" font-size="14.00">生成x206到x214</text>
</g>
<!-- montgomery_reduce4&#45;&gt;final_sub -->
<g id="edge10" class="edge">
<title>montgomery_reduce4&#45;&gt;final_sub</title>
<path fill="none" stroke="black" d="M122,-306.96C122,-299.32 122,-290.14 122,-281.23"/>
<polygon fill="black" stroke="black" points="125.5,-281 122,-271 118.5,-281 125.5,-281"/>
</g>
<!-- cond_select -->
<g id="node12" class="node">
<title>cond_select</title>
<path fill="none" stroke="black" d="M227.5,-182C227.5,-182 16.5,-182 16.5,-182 10.5,-182 4.5,-176 4.5,-170 4.5,-170 4.5,-156 4.5,-156 4.5,-150 10.5,-144 16.5,-144 16.5,-144 227.5,-144 227.5,-144 233.5,-144 239.5,-150 239.5,-156 239.5,-156 239.5,-170 239.5,-170 239.5,-176 233.5,-182 227.5,-182"/>
<text text-anchor="middle" x="122" y="-166.8" font-family="Helvetica,sans-Serif" font-size="14.00">条件选择结果</text>
<text text-anchor="middle" x="122" y="-151.8" font-family="Helvetica,sans-Serif" font-size="14.00">cmovznzU64根据借位选择最终值</text>
</g>
<!-- final_sub&#45;&gt;cond_select -->
<g id="edge11" class="edge">
<title>final_sub&#45;&gt;cond_select</title>
<path fill="none" stroke="black" d="M122,-217.91C122,-209.74 122,-200.65 122,-192.3"/>
<polygon fill="black" stroke="black" points="125.5,-192.24 122,-182.24 118.5,-192.24 125.5,-192.24"/>
</g>
<!-- output -->
<g id="node13" class="node">
<title>output</title>
<path fill="none" stroke="black" d="M188.5,-108C188.5,-108 55.5,-108 55.5,-108 49.5,-108 43.5,-102 43.5,-96 43.5,-96 43.5,-84 43.5,-84 43.5,-78 49.5,-72 55.5,-72 55.5,-72 188.5,-72 188.5,-72 194.5,-72 200.5,-78 200.5,-84 200.5,-84 200.5,-96 200.5,-96 200.5,-102 194.5,-108 188.5,-108"/>
<text text-anchor="middle" x="122" y="-86.3" font-family="Helvetica,sans-Serif" font-size="14.00">输出结果到out1[0..3]</text>
</g>
<!-- cond_select&#45;&gt;output -->
<g id="edge12" class="edge">
<title>cond_select&#45;&gt;output</title>
<path fill="none" stroke="black" d="M122,-143.72C122,-135.97 122,-126.79 122,-118.27"/>
<polygon fill="black" stroke="black" points="125.5,-118 122,-108 118.5,-118 125.5,-118"/>
</g>
<!-- end -->
<g id="node14" class="node">
<title>end</title>
<path fill="none" stroke="black" d="M137,-36C137,-36 107,-36 107,-36 101,-36 95,-30 95,-24 95,-24 95,-12 95,-12 95,-6 101,0 107,0 107,0 137,0 137,0 143,0 149,-6 149,-12 149,-12 149,-24 149,-24 149,-30 143,-36 137,-36"/>
<text text-anchor="middle" x="122" y="-14.3" font-family="Helvetica,sans-Serif" font-size="14.00">结束</text>
</g>
<!-- output&#45;&gt;end -->
<g id="edge13" class="edge">
<title>output&#45;&gt;end</title>
<path fill="none" stroke="black" d="M122,-71.7C122,-63.98 122,-54.71 122,-46.11"/>
<polygon fill="black" stroke="black" points="125.5,-46.1 122,-36.1 118.5,-46.1 125.5,-46.1"/>
</g>
</g>
</svg>
