<?xml version="1.0" encoding="UTF-8" standalone="no"?>
<!DOCTYPE svg PUBLIC "-//W3C//DTD SVG 1.1//EN"
 "http://www.w3.org/Graphics/SVG/1.1/DTD/svg11.dtd">
<!-- Generated by graphviz version 2.43.0 (0)
 -->
<!-- Title: AsconState Pages: 1 -->
<svg width="1473pt" height="399pt"
 viewBox="0.00 0.00 1473.00 399.00" xmlns="http://www.w3.org/2000/svg" xmlns:xlink="http://www.w3.org/1999/xlink">
<g id="graph0" class="graph" transform="scale(1 1) rotate(0) translate(4 395)">
<title>AsconState</title>
<polygon fill="white" stroke="transparent" points="-4,4 -4,-395 1469,-395 1469,4 -4,4"/>
<g id="clust1" class="cluster">
<title>cluster_init</title>
<polygon fill="none" stroke="black" points="8,-291 8,-383 566,-383 566,-291 8,-291"/>
<text text-anchor="middle" x="287" y="-367.8" font-family="Times,serif" font-size="14.00">初始化方法</text>
</g>
<g id="clust2" class="cluster">
<title>cluster_bytes</title>
<polygon fill="none" stroke="black" points="574,-98 574,-375.5 996,-375.5 996,-98 574,-98"/>
<text text-anchor="middle" x="785" y="-360.3" font-family="Times,serif" font-size="14.00">字节操作</text>
</g>
<g id="clust3" class="cluster">
<title>cluster_permutation</title>
<polygon fill="none" stroke="black" points="1036,-8 1036,-375.5 1235,-375.5 1235,-8 1036,-8"/>
<text text-anchor="middle" x="1135.5" y="-360.3" font-family="Times,serif" font-size="14.00">置换操作</text>
</g>
<!-- init -->
<g id="node1" class="node">
<title>init</title>
<path fill="none" stroke="black" d="M546,-352C546,-352 460,-352 460,-352 454,-352 448,-346 448,-340 448,-340 448,-311 448,-311 448,-305 454,-299 460,-299 460,-299 546,-299 546,-299 552,-299 558,-305 558,-311 558,-311 558,-340 558,-340 558,-346 552,-352 546,-352"/>
<text text-anchor="middle" x="503" y="-336.8" font-family="Arial" font-size="14.00">init(initial_state)</text>
<text text-anchor="middle" x="503" y="-321.8" font-family="Arial" font-size="14.00">&#45; 复制字节</text>
<text text-anchor="middle" x="503" y="-306.8" font-family="Arial" font-size="14.00">&#45; 字节序交换</text>
</g>
<!-- endianSwap -->
<g id="node6" class="node">
<title>endianSwap</title>
<path fill="none" stroke="black" d="M709.5,-248C709.5,-248 594.5,-248 594.5,-248 588.5,-248 582.5,-242 582.5,-236 582.5,-236 582.5,-222 582.5,-222 582.5,-216 588.5,-210 594.5,-210 594.5,-210 709.5,-210 709.5,-210 715.5,-210 721.5,-216 721.5,-222 721.5,-222 721.5,-236 721.5,-236 721.5,-242 715.5,-248 709.5,-248"/>
<text text-anchor="middle" x="652" y="-232.8" font-family="Arial" font-size="14.00">endianSwap()</text>
<text text-anchor="middle" x="652" y="-217.8" font-family="Arial" font-size="14.00">&#45; 全状态字节序转换</text>
</g>
<!-- init&#45;&gt;endianSwap -->
<g id="edge1" class="edge">
<title>init&#45;&gt;endianSwap</title>
<path fill="none" stroke="black" d="M543.32,-298.93C565.59,-284.8 593.06,-267.38 614.82,-253.58"/>
<polygon fill="black" stroke="black" points="616.88,-256.42 623.45,-248.11 613.13,-250.51 616.88,-256.42"/>
</g>
<!-- initFromWords -->
<g id="node2" class="node">
<title>initFromWords</title>
<path fill="none" stroke="black" d="M418,-344.5C418,-344.5 292,-344.5 292,-344.5 286,-344.5 280,-338.5 280,-332.5 280,-332.5 280,-318.5 280,-318.5 280,-312.5 286,-306.5 292,-306.5 292,-306.5 418,-306.5 418,-306.5 424,-306.5 430,-312.5 430,-318.5 430,-318.5 430,-332.5 430,-332.5 430,-338.5 424,-344.5 418,-344.5"/>
<text text-anchor="middle" x="355" y="-329.3" font-family="Arial" font-size="14.00">initFromWords(words)</text>
<text text-anchor="middle" x="355" y="-314.3" font-family="Arial" font-size="14.00">&#45; 直接设置u64数组</text>
</g>
<!-- initXof -->
<g id="node3" class="node">
<title>initXof</title>
<path fill="none" stroke="black" d="M250,-344.5C250,-344.5 164,-344.5 164,-344.5 158,-344.5 152,-338.5 152,-332.5 152,-332.5 152,-318.5 152,-318.5 152,-312.5 158,-306.5 164,-306.5 164,-306.5 250,-306.5 250,-306.5 256,-306.5 262,-312.5 262,-318.5 262,-318.5 262,-332.5 262,-332.5 262,-338.5 256,-344.5 250,-344.5"/>
<text text-anchor="middle" x="207" y="-329.3" font-family="Arial" font-size="14.00">initXof()</text>
<text text-anchor="middle" x="207" y="-314.3" font-family="Arial" font-size="14.00">&#45; 设置XOF常量</text>
</g>
<!-- initXofa -->
<g id="node4" class="node">
<title>initXofa</title>
<path fill="none" stroke="black" d="M122,-344.5C122,-344.5 28,-344.5 28,-344.5 22,-344.5 16,-338.5 16,-332.5 16,-332.5 16,-318.5 16,-318.5 16,-312.5 22,-306.5 28,-306.5 28,-306.5 122,-306.5 122,-306.5 128,-306.5 134,-312.5 134,-318.5 134,-318.5 134,-332.5 134,-332.5 134,-338.5 128,-344.5 122,-344.5"/>
<text text-anchor="middle" x="75" y="-329.3" font-family="Arial" font-size="14.00">initXofa()</text>
<text text-anchor="middle" x="75" y="-314.3" font-family="Arial" font-size="14.00">&#45; 设置XOFa常量</text>
</g>
<!-- asBytes -->
<g id="node5" class="node">
<title>asBytes</title>
<path fill="none" stroke="black" d="M816,-344.5C816,-344.5 730,-344.5 730,-344.5 724,-344.5 718,-338.5 718,-332.5 718,-332.5 718,-318.5 718,-318.5 718,-312.5 724,-306.5 730,-306.5 730,-306.5 816,-306.5 816,-306.5 822,-306.5 828,-312.5 828,-318.5 828,-318.5 828,-332.5 828,-332.5 828,-338.5 822,-344.5 816,-344.5"/>
<text text-anchor="middle" x="773" y="-329.3" font-family="Arial" font-size="14.00">asBytes()</text>
<text text-anchor="middle" x="773" y="-314.3" font-family="Arial" font-size="14.00">&#45; 返回字节视图</text>
</g>
<!-- asBytes&#45;&gt;endianSwap -->
<g id="edge5" class="edge">
<title>asBytes&#45;&gt;endianSwap</title>
<path fill="none" stroke="black" d="M749.67,-306.28C730.75,-291.51 703.92,-270.55 683.17,-254.34"/>
<polygon fill="black" stroke="black" points="685.29,-251.56 675.26,-248.16 680.99,-257.08 685.29,-251.56"/>
</g>
<!-- setBytes -->
<g id="node7" class="node">
<title>setBytes</title>
<path fill="none" stroke="black" d="M838,-248C838,-248 752,-248 752,-248 746,-248 740,-242 740,-236 740,-236 740,-222 740,-222 740,-216 746,-210 752,-210 752,-210 838,-210 838,-210 844,-210 850,-216 850,-222 850,-222 850,-236 850,-236 850,-242 844,-248 838,-248"/>
<text text-anchor="middle" x="795" y="-232.8" font-family="Arial" font-size="14.00">setBytes(bytes)</text>
<text text-anchor="middle" x="795" y="-217.8" font-family="Arial" font-size="14.00">&#45; 分块写入状态</text>
</g>
<!-- asBytes&#45;&gt;setBytes -->
<g id="edge6" class="edge">
<title>asBytes&#45;&gt;setBytes</title>
<path fill="none" stroke="black" d="M777.24,-306.28C780.41,-292.68 784.79,-273.85 788.41,-258.3"/>
<polygon fill="black" stroke="black" points="791.91,-258.7 790.77,-248.16 785.09,-257.11 791.91,-258.7"/>
</g>
<!-- extractBytes -->
<g id="node10" class="node">
<title>extractBytes</title>
<path fill="none" stroke="black" d="M975.5,-248C975.5,-248 880.5,-248 880.5,-248 874.5,-248 868.5,-242 868.5,-236 868.5,-236 868.5,-222 868.5,-222 868.5,-216 874.5,-210 880.5,-210 880.5,-210 975.5,-210 975.5,-210 981.5,-210 987.5,-216 987.5,-222 987.5,-222 987.5,-236 987.5,-236 987.5,-242 981.5,-248 975.5,-248"/>
<text text-anchor="middle" x="928" y="-232.8" font-family="Arial" font-size="14.00">extractBytes(out)</text>
<text text-anchor="middle" x="928" y="-217.8" font-family="Arial" font-size="14.00">&#45; 分块读取状态</text>
</g>
<!-- asBytes&#45;&gt;extractBytes -->
<g id="edge7" class="edge">
<title>asBytes&#45;&gt;extractBytes</title>
<path fill="none" stroke="black" d="M802.89,-306.28C827.62,-291.2 862.93,-269.67 889.73,-253.33"/>
<polygon fill="black" stroke="black" points="891.75,-256.2 898.47,-248 888.11,-250.22 891.75,-256.2"/>
</g>
<!-- addBytes -->
<g id="node9" class="node">
<title>addBytes</title>
<path fill="none" stroke="black" d="M840,-144C840,-144 750,-144 750,-144 744,-144 738,-138 738,-132 738,-132 738,-118 738,-118 738,-112 744,-106 750,-106 750,-106 840,-106 840,-106 846,-106 852,-112 852,-118 852,-118 852,-132 852,-132 852,-138 846,-144 840,-144"/>
<text text-anchor="middle" x="795" y="-128.8" font-family="Arial" font-size="14.00">addBytes(bytes)</text>
<text text-anchor="middle" x="795" y="-113.8" font-family="Arial" font-size="14.00">&#45; 分块异或数据</text>
</g>
<!-- setBytes&#45;&gt;addBytes -->
<g id="edge8" class="edge">
<title>setBytes&#45;&gt;addBytes</title>
<path fill="none" stroke="black" d="M795,-209.76C795,-194.32 795,-171.91 795,-154.16"/>
<polygon fill="black" stroke="black" points="798.5,-154.08 795,-144.08 791.5,-154.08 798.5,-154.08"/>
</g>
<!-- addByte -->
<g id="node8" class="node">
<title>addByte</title>
<path fill="none" stroke="black" d="M975.5,-344.5C975.5,-344.5 858.5,-344.5 858.5,-344.5 852.5,-344.5 846.5,-338.5 846.5,-332.5 846.5,-332.5 846.5,-318.5 846.5,-318.5 846.5,-312.5 852.5,-306.5 858.5,-306.5 858.5,-306.5 975.5,-306.5 975.5,-306.5 981.5,-306.5 987.5,-312.5 987.5,-318.5 987.5,-318.5 987.5,-332.5 987.5,-332.5 987.5,-338.5 981.5,-344.5 975.5,-344.5"/>
<text text-anchor="middle" x="917" y="-329.3" font-family="Arial" font-size="14.00">addByte(byte, offset)</text>
<text text-anchor="middle" x="917" y="-314.3" font-family="Arial" font-size="14.00">&#45; 按位异或单字节</text>
</g>
<!-- permute -->
<g id="node13" class="node">
<title>permute</title>
<path fill="none" stroke="black" d="M1169.5,-54C1169.5,-54 1056.5,-54 1056.5,-54 1050.5,-54 1044.5,-48 1044.5,-42 1044.5,-42 1044.5,-28 1044.5,-28 1044.5,-22 1050.5,-16 1056.5,-16 1056.5,-16 1169.5,-16 1169.5,-16 1175.5,-16 1181.5,-22 1181.5,-28 1181.5,-28 1181.5,-42 1181.5,-42 1181.5,-48 1175.5,-54 1169.5,-54"/>
<text text-anchor="middle" x="1113" y="-38.8" font-family="Arial" font-size="14.00">permute()</text>
<text text-anchor="middle" x="1113" y="-23.8" font-family="Arial" font-size="14.00">&#45; 调用permuteR(12)</text>
</g>
<!-- addByte&#45;&gt;permute -->
<g id="edge10" class="edge">
<title>addByte&#45;&gt;permute</title>
<path fill="none" stroke="black" d="M942.74,-306.27C960.58,-292.3 983.48,-271.48 997,-248 1032.84,-185.79 994.64,-150.37 1035,-91 1043.48,-78.53 1055.78,-67.98 1068.13,-59.55"/>
<polygon fill="black" stroke="black" points="1070.13,-62.43 1076.63,-54.06 1066.33,-56.54 1070.13,-62.43"/>
</g>
<!-- addBytes&#45;&gt;permute -->
<g id="edge9" class="edge">
<title>addBytes&#45;&gt;permute</title>
<path fill="none" stroke="black" d="M827.71,-105.92C838.41,-100.55 850.5,-95.03 862,-91 918.23,-71.32 984.1,-57.2 1034.25,-48.2"/>
<polygon fill="black" stroke="black" points="1035.15,-51.6 1044.39,-46.42 1033.93,-44.71 1035.15,-51.6"/>
</g>
<!-- xorBytes -->
<g id="node11" class="node">
<title>xorBytes</title>
<path fill="none" stroke="black" d="M973.5,-144C973.5,-144 882.5,-144 882.5,-144 876.5,-144 870.5,-138 870.5,-132 870.5,-132 870.5,-118 870.5,-118 870.5,-112 876.5,-106 882.5,-106 882.5,-106 973.5,-106 973.5,-106 979.5,-106 985.5,-112 985.5,-118 985.5,-118 985.5,-132 985.5,-132 985.5,-138 979.5,-144 973.5,-144"/>
<text text-anchor="middle" x="928" y="-128.8" font-family="Arial" font-size="14.00">xorBytes(out, in)</text>
<text text-anchor="middle" x="928" y="-113.8" font-family="Arial" font-size="14.00">&#45; 带异或的输出</text>
</g>
<!-- extractBytes&#45;&gt;xorBytes -->
<g id="edge11" class="edge">
<title>extractBytes&#45;&gt;xorBytes</title>
<path fill="none" stroke="black" d="M928,-209.76C928,-194.32 928,-171.91 928,-154.16"/>
<polygon fill="black" stroke="black" points="931.5,-154.08 928,-144.08 924.5,-154.08 931.5,-154.08"/>
</g>
<!-- permuteR -->
<g id="node12" class="node">
<title>permuteR</title>
<path fill="none" stroke="black" d="M1208.5,-248C1208.5,-248 1105.5,-248 1105.5,-248 1099.5,-248 1093.5,-242 1093.5,-236 1093.5,-236 1093.5,-222 1093.5,-222 1093.5,-216 1099.5,-210 1105.5,-210 1105.5,-210 1208.5,-210 1208.5,-210 1214.5,-210 1220.5,-216 1220.5,-222 1220.5,-222 1220.5,-236 1220.5,-236 1220.5,-242 1214.5,-248 1208.5,-248"/>
<text text-anchor="middle" x="1157" y="-232.8" font-family="Arial" font-size="14.00">permuteR(rounds)</text>
<text text-anchor="middle" x="1157" y="-217.8" font-family="Arial" font-size="14.00">&#45; 应用轮密钥</text>
</g>
<!-- round -->
<g id="node15" class="node">
<title>round</title>
<path fill="none" stroke="black" d="M1114,-159C1114,-159 1056,-159 1056,-159 1050,-159 1044,-153 1044,-147 1044,-147 1044,-103 1044,-103 1044,-97 1050,-91 1056,-91 1056,-91 1114,-91 1114,-91 1120,-91 1126,-97 1126,-103 1126,-103 1126,-147 1126,-147 1126,-153 1120,-159 1114,-159"/>
<text text-anchor="middle" x="1085" y="-143.8" font-family="Arial" font-size="14.00">round(rk)</text>
<text text-anchor="middle" x="1085" y="-128.8" font-family="Arial" font-size="14.00">&#45; 非线性层</text>
<text text-anchor="middle" x="1085" y="-113.8" font-family="Arial" font-size="14.00">&#45; 线性变换</text>
<text text-anchor="middle" x="1085" y="-98.8" font-family="Arial" font-size="14.00">&#45; 循环移位</text>
</g>
<!-- permuteR&#45;&gt;round -->
<g id="edge2" class="edge">
<title>permuteR&#45;&gt;round</title>
<path fill="none" stroke="black" d="M1107.78,-209.97C1100.4,-205.21 1093.7,-199.3 1089,-192 1084.67,-185.28 1082.4,-177.34 1081.39,-169.33"/>
<polygon fill="black" stroke="black" points="1084.88,-168.99 1080.72,-159.24 1077.89,-169.45 1084.88,-168.99"/>
<text text-anchor="middle" x="1118" y="-180.8" font-family="Arial" font-size="14.00">循环调用</text>
</g>
<!-- permute&#45;&gt;permuteR -->
<g id="edge3" class="edge">
<title>permute&#45;&gt;permuteR</title>
<path fill="none" stroke="black" d="M1121.09,-54.07C1125.62,-64.67 1131.12,-78.42 1135,-91 1146.53,-128.41 1148.61,-138.23 1154,-177 1155.03,-184.4 1155.71,-192.46 1156.15,-199.94"/>
<polygon fill="black" stroke="black" points="1152.66,-200.17 1156.64,-209.99 1159.65,-199.84 1152.66,-200.17"/>
<text text-anchor="middle" x="1183.5" y="-121.3" font-family="Arial" font-size="14.00">rounds=12</text>
</g>
<!-- permuteRatchet -->
<g id="node14" class="node">
<title>permuteRatchet</title>
<path fill="none" stroke="black" d="M1215,-344.5C1215,-344.5 1117,-344.5 1117,-344.5 1111,-344.5 1105,-338.5 1105,-332.5 1105,-332.5 1105,-318.5 1105,-318.5 1105,-312.5 1111,-306.5 1117,-306.5 1117,-306.5 1215,-306.5 1215,-306.5 1221,-306.5 1227,-312.5 1227,-318.5 1227,-318.5 1227,-332.5 1227,-332.5 1227,-338.5 1221,-344.5 1215,-344.5"/>
<text text-anchor="middle" x="1166" y="-329.3" font-family="Arial" font-size="14.00">permuteRatchet()</text>
<text text-anchor="middle" x="1166" y="-314.3" font-family="Arial" font-size="14.00">&#45; 容量掩码处理</text>
</g>
<!-- permuteRatchet&#45;&gt;permuteR -->
<g id="edge4" class="edge">
<title>permuteRatchet&#45;&gt;permuteR</title>
<path fill="none" stroke="black" d="M1164.26,-306.28C1162.97,-292.68 1161.18,-273.85 1159.7,-258.3"/>
<polygon fill="black" stroke="black" points="1163.16,-257.79 1158.73,-248.16 1156.19,-258.45 1163.16,-257.79"/>
<text text-anchor="middle" x="1182.5" y="-269.8" font-family="Arial" font-size="14.00">先置换</text>
</g>
<!-- clear -->
<g id="node16" class="node">
<title>clear</title>
<path fill="none" stroke="black" d="M1341,-248C1341,-248 1255,-248 1255,-248 1249,-248 1243,-242 1243,-236 1243,-236 1243,-222 1243,-222 1243,-216 1249,-210 1255,-210 1255,-210 1341,-210 1341,-210 1347,-210 1353,-216 1353,-222 1353,-222 1353,-236 1353,-236 1353,-242 1347,-248 1341,-248"/>
<text text-anchor="middle" x="1298" y="-232.8" font-family="Arial" font-size="14.00">clear()</text>
<text text-anchor="middle" x="1298" y="-217.8" font-family="Arial" font-size="14.00">&#45; 清零指定区间</text>
</g>
<!-- permuteRatchet&#45;&gt;clear -->
<g id="edge12" class="edge">
<title>permuteRatchet&#45;&gt;clear</title>
<path fill="none" stroke="black" stroke-dasharray="5,2" d="M1191.45,-306.28C1212.18,-291.44 1241.61,-270.37 1264.3,-254.13"/>
<polygon fill="black" stroke="black" points="1266.53,-256.83 1272.63,-248.16 1262.46,-251.14 1266.53,-256.83"/>
</g>
<!-- secureZero -->
<g id="node17" class="node">
<title>secureZero</title>
<path fill="none" stroke="black" d="M1453,-248C1453,-248 1383,-248 1383,-248 1377,-248 1371,-242 1371,-236 1371,-236 1371,-222 1371,-222 1371,-216 1377,-210 1383,-210 1383,-210 1453,-210 1453,-210 1459,-210 1465,-216 1465,-222 1465,-222 1465,-236 1465,-236 1465,-242 1459,-248 1453,-248"/>
<text text-anchor="middle" x="1418" y="-232.8" font-family="Arial" font-size="14.00">secureZero()</text>
<text text-anchor="middle" x="1418" y="-217.8" font-family="Arial" font-size="14.00">&#45; 安全擦除</text>
</g>
<!-- permuteRatchet&#45;&gt;secureZero -->
<g id="edge13" class="edge">
<title>permuteRatchet&#45;&gt;secureZero</title>
<path fill="none" stroke="black" stroke-dasharray="5,2" d="M1214.29,-306.39C1256.23,-290.66 1317.02,-267.87 1361.27,-251.27"/>
<polygon fill="black" stroke="black" points="1362.59,-254.52 1370.73,-247.73 1360.13,-247.96 1362.59,-254.52"/>
</g>
<!-- round&#45;&gt;permuteR -->
<!-- round&#45;&gt;permute -->
</g>
</svg>
