<?xml version="1.0" encoding="UTF-8" standalone="no"?>
<!DOCTYPE svg PUBLIC "-//W3C//DTD SVG 1.1//EN"
 "http://www.w3.org/Graphics/SVG/1.1/DTD/svg11.dtd">
<!-- Generated by graphviz version 2.43.0 (0)
 -->
<!-- Title: flowchart Pages: 1 -->
<svg width="408pt" height="729pt"
 viewBox="0.00 0.00 407.50 729.00" xmlns="http://www.w3.org/2000/svg" xmlns:xlink="http://www.w3.org/1999/xlink">
<g id="graph0" class="graph" transform="scale(1 1) rotate(0) translate(4 725)">
<title>flowchart</title>
<polygon fill="white" stroke="transparent" points="-4,4 -4,-725 403.5,-725 403.5,4 -4,4"/>
<!-- start -->
<g id="node1" class="node">
<title>start</title>
<path fill="none" stroke="black" d="M152.5,-721C152.5,-721 122.5,-721 122.5,-721 116.5,-721 110.5,-715 110.5,-709 110.5,-709 110.5,-697 110.5,-697 110.5,-691 116.5,-685 122.5,-685 122.5,-685 152.5,-685 152.5,-685 158.5,-685 164.5,-691 164.5,-697 164.5,-697 164.5,-709 164.5,-709 164.5,-715 158.5,-721 152.5,-721"/>
<text text-anchor="middle" x="137.5" y="-699.3" font-family="Helvetica,sans-Serif" font-size="14.00">开始</text>
</g>
<!-- decompose_args -->
<g id="node2" class="node">
<title>decompose_args</title>
<path fill="none" stroke="black" d="M215,-648C215,-648 60,-648 60,-648 54,-648 48,-642 48,-636 48,-636 48,-624 48,-624 48,-618 54,-612 60,-612 60,-612 215,-612 215,-612 221,-612 227,-618 227,-624 227,-624 227,-636 227,-636 227,-642 221,-648 215,-648"/>
<text text-anchor="middle" x="137.5" y="-626.3" font-family="Helvetica,sans-Serif" font-size="14.00">分解输入参数arg1和arg2</text>
</g>
<!-- start&#45;&gt;decompose_args -->
<g id="edge1" class="edge">
<title>start&#45;&gt;decompose_args</title>
<path fill="none" stroke="black" d="M137.5,-684.81C137.5,-676.79 137.5,-667.05 137.5,-658.07"/>
<polygon fill="black" stroke="black" points="141,-658.03 137.5,-648.03 134,-658.03 141,-658.03"/>
</g>
<!-- initial_mult -->
<g id="node3" class="node">
<title>initial_mult</title>
<path fill="none" stroke="black" d="M222.5,-575C222.5,-575 52.5,-575 52.5,-575 46.5,-575 40.5,-569 40.5,-563 40.5,-563 40.5,-551 40.5,-551 40.5,-545 46.5,-539 52.5,-539 52.5,-539 222.5,-539 222.5,-539 228.5,-539 234.5,-545 234.5,-551 234.5,-551 234.5,-563 234.5,-563 234.5,-569 228.5,-575 222.5,-575"/>
<text text-anchor="middle" x="137.5" y="-553.3" font-family="Helvetica,sans-Serif" font-size="14.00">初始乘法步骤（mulxU64）</text>
</g>
<!-- decompose_args&#45;&gt;initial_mult -->
<g id="edge2" class="edge">
<title>decompose_args&#45;&gt;initial_mult</title>
<path fill="none" stroke="black" d="M137.5,-611.81C137.5,-603.79 137.5,-594.05 137.5,-585.07"/>
<polygon fill="black" stroke="black" points="141,-585.03 137.5,-575.03 134,-585.03 141,-585.03"/>
</g>
<!-- handle_carries -->
<g id="node4" class="node">
<title>handle_carries</title>
<path fill="none" stroke="black" d="M225.5,-502C225.5,-502 49.5,-502 49.5,-502 43.5,-502 37.5,-496 37.5,-490 37.5,-490 37.5,-478 37.5,-478 37.5,-472 43.5,-466 49.5,-466 49.5,-466 225.5,-466 225.5,-466 231.5,-466 237.5,-472 237.5,-478 237.5,-478 237.5,-490 237.5,-490 237.5,-496 231.5,-502 225.5,-502"/>
<text text-anchor="middle" x="137.5" y="-480.3" font-family="Helvetica,sans-Serif" font-size="14.00">处理进位（addcarryxU64）</text>
</g>
<!-- initial_mult&#45;&gt;handle_carries -->
<g id="edge3" class="edge">
<title>initial_mult&#45;&gt;handle_carries</title>
<path fill="none" stroke="black" d="M137.5,-538.81C137.5,-530.79 137.5,-521.05 137.5,-512.07"/>
<polygon fill="black" stroke="black" points="141,-512.03 137.5,-502.03 134,-512.03 141,-512.03"/>
</g>
<!-- modular_reduction -->
<g id="node5" class="node">
<title>modular_reduction</title>
<path fill="none" stroke="black" d="M233,-415C233,-415 12,-415 12,-415 6,-415 0,-409 0,-403 0,-403 0,-391 0,-391 0,-385 6,-379 12,-379 12,-379 233,-379 233,-379 239,-379 245,-385 245,-391 245,-391 245,-403 245,-403 245,-409 239,-415 233,-415"/>
<text text-anchor="middle" x="122.5" y="-393.3" font-family="Helvetica,sans-Serif" font-size="14.00">模约减（使用特定常数乘法和调整）</text>
</g>
<!-- handle_carries&#45;&gt;modular_reduction -->
<g id="edge4" class="edge">
<title>handle_carries&#45;&gt;modular_reduction</title>
<path fill="none" stroke="black" d="M126.03,-465.9C122.96,-460.42 120.07,-454.17 118.5,-448 116.66,-440.77 116.5,-432.78 117.1,-425.35"/>
<polygon fill="black" stroke="black" points="120.59,-425.72 118.36,-415.36 113.64,-424.84 120.59,-425.72"/>
</g>
<!-- modular_reduction&#45;&gt;handle_carries -->
<g id="edge11" class="edge">
<title>modular_reduction&#45;&gt;handle_carries</title>
<path fill="none" stroke="black" stroke-dasharray="1,5" d="M125.53,-415.18C127.58,-426.81 130.34,-442.42 132.69,-455.73"/>
<polygon fill="black" stroke="black" points="129.28,-456.56 134.46,-465.8 136.17,-455.34 129.28,-456.56"/>
<text text-anchor="middle" x="196" y="-436.8" font-family="Helvetica,sans-Serif" font-size="14.00">模约减中的进位处理</text>
</g>
<!-- intermediate_steps -->
<g id="node6" class="node">
<title>intermediate_steps</title>
<path fill="none" stroke="black" d="M248.5,-328C248.5,-328 156.5,-328 156.5,-328 150.5,-328 144.5,-322 144.5,-316 144.5,-316 144.5,-304 144.5,-304 144.5,-298 150.5,-292 156.5,-292 156.5,-292 248.5,-292 248.5,-292 254.5,-292 260.5,-298 260.5,-304 260.5,-304 260.5,-316 260.5,-316 260.5,-322 254.5,-328 248.5,-328"/>
<text text-anchor="middle" x="202.5" y="-306.3" font-family="Helvetica,sans-Serif" font-size="14.00">中间乘法与累加</text>
</g>
<!-- modular_reduction&#45;&gt;intermediate_steps -->
<g id="edge5" class="edge">
<title>modular_reduction&#45;&gt;intermediate_steps</title>
<path fill="none" stroke="black" d="M118.93,-378.86C117.75,-368.5 118.08,-355.5 124.5,-346 127.62,-341.39 131.5,-337.38 135.84,-333.89"/>
<polygon fill="black" stroke="black" points="137.89,-336.73 144.12,-328.16 133.9,-330.98 137.89,-336.73"/>
<text text-anchor="middle" x="196" y="-349.8" font-family="Helvetica,sans-Serif" font-size="14.00">重复处理每个输入部分</text>
</g>
<!-- intermediate_steps&#45;&gt;handle_carries -->
<g id="edge10" class="edge">
<title>intermediate_steps&#45;&gt;handle_carries</title>
<path fill="none" stroke="black" stroke-dasharray="1,5" d="M249.27,-328.01C256.55,-332.72 263.1,-338.63 267.5,-346 290.76,-384.94 292.6,-412.4 264.5,-448 260.1,-453.58 250.34,-458.51 238.1,-462.78"/>
<polygon fill="black" stroke="black" points="236.76,-459.54 228.3,-465.92 238.89,-466.21 236.76,-459.54"/>
<text text-anchor="middle" x="342" y="-393.3" font-family="Helvetica,sans-Serif" font-size="14.00">循环处理每个元素</text>
</g>
<!-- subtract_adjust -->
<g id="node7" class="node">
<title>subtract_adjust</title>
<path fill="none" stroke="black" d="M296.5,-255C296.5,-255 108.5,-255 108.5,-255 102.5,-255 96.5,-249 96.5,-243 96.5,-243 96.5,-231 96.5,-231 96.5,-225 102.5,-219 108.5,-219 108.5,-219 296.5,-219 296.5,-219 302.5,-219 308.5,-225 308.5,-231 308.5,-231 308.5,-243 308.5,-243 308.5,-249 302.5,-255 296.5,-255"/>
<text text-anchor="middle" x="202.5" y="-233.3" font-family="Helvetica,sans-Serif" font-size="14.00">减法调整（subborrowxU64）</text>
</g>
<!-- intermediate_steps&#45;&gt;subtract_adjust -->
<g id="edge6" class="edge">
<title>intermediate_steps&#45;&gt;subtract_adjust</title>
<path fill="none" stroke="black" d="M202.5,-291.81C202.5,-283.79 202.5,-274.05 202.5,-265.07"/>
<polygon fill="black" stroke="black" points="206,-265.03 202.5,-255.03 199,-265.03 206,-265.03"/>
</g>
<!-- cmov_select -->
<g id="node8" class="node">
<title>cmov_select</title>
<path fill="none" stroke="black" d="M301,-182C301,-182 104,-182 104,-182 98,-182 92,-176 92,-170 92,-170 92,-158 92,-158 92,-152 98,-146 104,-146 104,-146 301,-146 301,-146 307,-146 313,-152 313,-158 313,-158 313,-170 313,-170 313,-176 307,-182 301,-182"/>
<text text-anchor="middle" x="202.5" y="-160.3" font-family="Helvetica,sans-Serif" font-size="14.00">条件选择结果（cmovznzU64）</text>
</g>
<!-- subtract_adjust&#45;&gt;cmov_select -->
<g id="edge7" class="edge">
<title>subtract_adjust&#45;&gt;cmov_select</title>
<path fill="none" stroke="black" d="M202.5,-218.81C202.5,-210.79 202.5,-201.05 202.5,-192.07"/>
<polygon fill="black" stroke="black" points="206,-192.03 202.5,-182.03 199,-192.03 206,-192.03"/>
</g>
<!-- output -->
<g id="node9" class="node">
<title>output</title>
<path fill="none" stroke="black" d="M250,-109C250,-109 155,-109 155,-109 149,-109 143,-103 143,-97 143,-97 143,-85 143,-85 143,-79 149,-73 155,-73 155,-73 250,-73 250,-73 256,-73 262,-79 262,-85 262,-85 262,-97 262,-97 262,-103 256,-109 250,-109"/>
<text text-anchor="middle" x="202.5" y="-87.3" font-family="Helvetica,sans-Serif" font-size="14.00">输出结果到out1</text>
</g>
<!-- cmov_select&#45;&gt;output -->
<g id="edge8" class="edge">
<title>cmov_select&#45;&gt;output</title>
<path fill="none" stroke="black" d="M202.5,-145.81C202.5,-137.79 202.5,-128.05 202.5,-119.07"/>
<polygon fill="black" stroke="black" points="206,-119.03 202.5,-109.03 199,-119.03 206,-119.03"/>
</g>
<!-- end -->
<g id="node10" class="node">
<title>end</title>
<path fill="none" stroke="black" d="M217.5,-36C217.5,-36 187.5,-36 187.5,-36 181.5,-36 175.5,-30 175.5,-24 175.5,-24 175.5,-12 175.5,-12 175.5,-6 181.5,0 187.5,0 187.5,0 217.5,0 217.5,0 223.5,0 229.5,-6 229.5,-12 229.5,-12 229.5,-24 229.5,-24 229.5,-30 223.5,-36 217.5,-36"/>
<text text-anchor="middle" x="202.5" y="-14.3" font-family="Helvetica,sans-Serif" font-size="14.00">结束</text>
</g>
<!-- output&#45;&gt;end -->
<g id="edge9" class="edge">
<title>output&#45;&gt;end</title>
<path fill="none" stroke="black" d="M202.5,-72.81C202.5,-64.79 202.5,-55.05 202.5,-46.07"/>
<polygon fill="black" stroke="black" points="206,-46.03 202.5,-36.03 199,-46.03 206,-46.03"/>
</g>
</g>
</svg>
