<?xml version="1.0" encoding="UTF-8" standalone="no"?>
<!DOCTYPE svg PUBLIC "-//W3C//DTD SVG 1.1//EN"
 "http://www.w3.org/Graphics/SVG/1.1/DTD/svg11.dtd">
<!-- Generated by graphviz version 2.43.0 (0)
 -->
<!-- Title: KeccakF_Flowchart Pages: 1 -->
<svg width="1586pt" height="437pt"
 viewBox="0.00 0.00 1585.50 437.00" xmlns="http://www.w3.org/2000/svg" xmlns:xlink="http://www.w3.org/1999/xlink">
<g id="graph0" class="graph" transform="scale(1 1) rotate(0) translate(4 433)">
<title>KeccakF_Flowchart</title>
<polygon fill="white" stroke="transparent" points="-4,4 -4,-433 1581.5,-433 1581.5,4 -4,4"/>
<!-- KeccakF -->
<g id="node1" class="node">
<title>KeccakF</title>
<path fill="none" stroke="black" d="M776.5,-429C776.5,-429 597.5,-429 597.5,-429 591.5,-429 585.5,-423 585.5,-417 585.5,-417 585.5,-405 585.5,-405 585.5,-399 591.5,-393 597.5,-393 597.5,-393 776.5,-393 776.5,-393 782.5,-393 788.5,-399 788.5,-405 788.5,-405 788.5,-417 788.5,-417 788.5,-423 782.5,-429 776.5,-429"/>
<text text-anchor="middle" x="687" y="-407.3" font-family="Times,serif" font-size="14.00">KeccakF(comptime f: u11)</text>
</g>
<!-- Init -->
<g id="node2" class="node">
<title>Init</title>
<path fill="none" stroke="black" d="M346.5,-356C346.5,-356 159.5,-356 159.5,-356 153.5,-356 147.5,-350 147.5,-344 147.5,-344 147.5,-332 147.5,-332 147.5,-326 153.5,-320 159.5,-320 159.5,-320 346.5,-320 346.5,-320 352.5,-320 358.5,-326 358.5,-332 358.5,-332 358.5,-344 358.5,-344 358.5,-350 352.5,-356 346.5,-356"/>
<text text-anchor="middle" x="253" y="-334.3" font-family="Times,serif" font-size="14.00">init(bytes: [block_bytes]u8)</text>
</g>
<!-- KeccakF&#45;&gt;Init -->
<g id="edge1" class="edge">
<title>KeccakF&#45;&gt;Init</title>
<path fill="none" stroke="black" d="M585.25,-393.35C519.95,-382.67 435.04,-368.78 367.41,-357.72"/>
<polygon fill="black" stroke="black" points="367.56,-354.2 357.13,-356.04 366.43,-361.1 367.56,-354.2"/>
</g>
<!-- Permute -->
<g id="node3" class="node">
<title>Permute</title>
<path fill="none" stroke="black" d="M453,-356C453,-356 389,-356 389,-356 383,-356 377,-350 377,-344 377,-344 377,-332 377,-332 377,-326 383,-320 389,-320 389,-320 453,-320 453,-320 459,-320 465,-326 465,-332 465,-332 465,-344 465,-344 465,-350 459,-356 453,-356"/>
<text text-anchor="middle" x="421" y="-334.3" font-family="Times,serif" font-size="14.00">permute()</text>
</g>
<!-- KeccakF&#45;&gt;Permute -->
<g id="edge2" class="edge">
<title>KeccakF&#45;&gt;Permute</title>
<path fill="none" stroke="black" d="M585.47,-400.95C550.92,-395.78 512.57,-387.68 479,-375 469.96,-371.59 460.8,-366.7 452.51,-361.62"/>
<polygon fill="black" stroke="black" points="454.2,-358.55 443.9,-356.09 450.42,-364.44 454.2,-358.55"/>
</g>
<!-- PermuteR -->
<g id="node4" class="node">
<title>PermuteR</title>
<path fill="none" stroke="black" d="M526.5,-269C526.5,-269 375.5,-269 375.5,-269 369.5,-269 363.5,-263 363.5,-257 363.5,-257 363.5,-245 363.5,-245 363.5,-239 369.5,-233 375.5,-233 375.5,-233 526.5,-233 526.5,-233 532.5,-233 538.5,-239 538.5,-245 538.5,-245 538.5,-257 538.5,-257 538.5,-263 532.5,-269 526.5,-269"/>
<text text-anchor="middle" x="451" y="-247.3" font-family="Times,serif" font-size="14.00">permuteR(rounds: u5)</text>
</g>
<!-- KeccakF&#45;&gt;PermuteR -->
<g id="edge3" class="edge">
<title>KeccakF&#45;&gt;PermuteR</title>
<path fill="none" stroke="black" d="M585.37,-393.82C559.24,-385.82 532.7,-373.87 512,-356 486.26,-333.79 497.07,-315.79 479,-287 476.98,-283.78 474.71,-280.51 472.36,-277.33"/>
<polygon fill="black" stroke="black" points="474.96,-274.98 466.07,-269.22 469.43,-279.27 474.96,-274.98"/>
</g>
<!-- AddBytes -->
<g id="node10" class="node">
<title>AddBytes</title>
<path fill="none" stroke="black" d="M722.5,-356C722.5,-356 533.5,-356 533.5,-356 527.5,-356 521.5,-350 521.5,-344 521.5,-344 521.5,-332 521.5,-332 521.5,-326 527.5,-320 533.5,-320 533.5,-320 722.5,-320 722.5,-320 728.5,-320 734.5,-326 734.5,-332 734.5,-332 734.5,-344 734.5,-344 734.5,-350 728.5,-356 722.5,-356"/>
<text text-anchor="middle" x="628" y="-334.3" font-family="Times,serif" font-size="14.00">addBytes(bytes: []const u8)</text>
</g>
<!-- KeccakF&#45;&gt;AddBytes -->
<g id="edge4" class="edge">
<title>KeccakF&#45;&gt;AddBytes</title>
<path fill="none" stroke="black" d="M672.72,-392.81C665.47,-384.09 656.54,-373.34 648.56,-363.75"/>
<polygon fill="black" stroke="black" points="651.23,-361.48 642.15,-356.03 645.85,-365.96 651.23,-361.48"/>
</g>
<!-- ExtractBytes -->
<g id="node11" class="node">
<title>ExtractBytes</title>
<path fill="none" stroke="black" d="M919.5,-356C919.5,-356 764.5,-356 764.5,-356 758.5,-356 752.5,-350 752.5,-344 752.5,-344 752.5,-332 752.5,-332 752.5,-326 758.5,-320 764.5,-320 764.5,-320 919.5,-320 919.5,-320 925.5,-320 931.5,-326 931.5,-332 931.5,-332 931.5,-344 931.5,-344 931.5,-350 925.5,-356 919.5,-356"/>
<text text-anchor="middle" x="842" y="-334.3" font-family="Times,serif" font-size="14.00">extractBytes(out: []u8)</text>
</g>
<!-- KeccakF&#45;&gt;ExtractBytes -->
<g id="edge5" class="edge">
<title>KeccakF&#45;&gt;ExtractBytes</title>
<path fill="none" stroke="black" d="M724.13,-392.99C745.54,-383.19 772.65,-370.77 795.48,-360.31"/>
<polygon fill="black" stroke="black" points="797.01,-363.46 804.64,-356.11 794.09,-357.1 797.01,-363.46"/>
</g>
<!-- XORBytes -->
<g id="node12" class="node">
<title>XORBytes</title>
<path fill="none" stroke="black" d="M1192,-356C1192,-356 962,-356 962,-356 956,-356 950,-350 950,-344 950,-344 950,-332 950,-332 950,-326 956,-320 962,-320 962,-320 1192,-320 1192,-320 1198,-320 1204,-326 1204,-332 1204,-332 1204,-344 1204,-344 1204,-350 1198,-356 1192,-356"/>
<text text-anchor="middle" x="1077" y="-334.3" font-family="Times,serif" font-size="14.00">xorBytes(out: []u8, in: []const u8)</text>
</g>
<!-- KeccakF&#45;&gt;XORBytes -->
<g id="edge6" class="edge">
<title>KeccakF&#45;&gt;XORBytes</title>
<path fill="none" stroke="black" d="M780.41,-392.99C838.58,-382.4 913.48,-368.77 973.46,-357.85"/>
<polygon fill="black" stroke="black" points="974.12,-361.29 983.33,-356.05 972.87,-354.4 974.12,-361.29"/>
</g>
<!-- EndianSwap -->
<g id="node13" class="node">
<title>EndianSwap</title>
<path fill="none" stroke="black" d="M1324,-356C1324,-356 1234,-356 1234,-356 1228,-356 1222,-350 1222,-344 1222,-344 1222,-332 1222,-332 1222,-326 1228,-320 1234,-320 1234,-320 1324,-320 1324,-320 1330,-320 1336,-326 1336,-332 1336,-332 1336,-344 1336,-344 1336,-350 1330,-356 1324,-356"/>
<text text-anchor="middle" x="1279" y="-334.3" font-family="Times,serif" font-size="14.00">endianSwap()</text>
</g>
<!-- KeccakF&#45;&gt;EndianSwap -->
<g id="edge7" class="edge">
<title>KeccakF&#45;&gt;EndianSwap</title>
<path fill="none" stroke="black" d="M788.96,-404.07C893.1,-396.99 1059.5,-382.8 1211.86,-356.05"/>
<polygon fill="black" stroke="black" points="1212.64,-359.47 1221.88,-354.27 1211.42,-352.58 1212.64,-359.47"/>
</g>
<!-- comptime assert(f有效性检查) -->
<g id="node26" class="node">
<title>comptime assert(f有效性检查)</title>
<path fill="none" stroke="black" d="M1565.5,-356C1565.5,-356 1366.5,-356 1366.5,-356 1360.5,-356 1354.5,-350 1354.5,-344 1354.5,-344 1354.5,-332 1354.5,-332 1354.5,-326 1360.5,-320 1366.5,-320 1366.5,-320 1565.5,-320 1565.5,-320 1571.5,-320 1577.5,-326 1577.5,-332 1577.5,-332 1577.5,-344 1577.5,-344 1577.5,-350 1571.5,-356 1565.5,-356"/>
<text text-anchor="middle" x="1466" y="-334.3" font-family="Times,serif" font-size="14.00">comptime assert(f有效性检查)</text>
</g>
<!-- KeccakF&#45;&gt;comptime assert(f有效性检查) -->
<g id="edge28" class="edge">
<title>KeccakF&#45;&gt;comptime assert(f有效性检查)</title>
<path fill="none" stroke="black" d="M788.63,-403.49C915.96,-394.91 1141.09,-378.39 1344.32,-356.04"/>
<polygon fill="black" stroke="black" points="1344.73,-359.51 1354.28,-354.94 1343.96,-352.56 1344.73,-359.51"/>
</g>
<!-- 读取字节到状态数组 -->
<g id="node27" class="node">
<title>读取字节到状态数组</title>
<path fill="none" stroke="black" d="M320.5,-269C320.5,-269 199.5,-269 199.5,-269 193.5,-269 187.5,-263 187.5,-257 187.5,-257 187.5,-245 187.5,-245 187.5,-239 193.5,-233 199.5,-233 199.5,-233 320.5,-233 320.5,-233 326.5,-233 332.5,-239 332.5,-245 332.5,-245 332.5,-257 332.5,-257 332.5,-263 326.5,-269 320.5,-269"/>
<text text-anchor="middle" x="260" y="-247.3" font-family="Times,serif" font-size="14.00">读取字节到状态数组</text>
</g>
<!-- Init&#45;&gt;读取字节到状态数组 -->
<g id="edge29" class="edge">
<title>Init&#45;&gt;读取字节到状态数组</title>
<path fill="none" stroke="black" d="M254.42,-319.8C255.37,-308.16 256.66,-292.55 257.76,-279.24"/>
<polygon fill="black" stroke="black" points="261.25,-279.43 258.59,-269.18 254.28,-278.85 261.25,-279.43"/>
</g>
<!-- 处理小端序 -->
<g id="node28" class="node">
<title>处理小端序</title>
<path fill="none" stroke="black" d="M157,-269C157,-269 93,-269 93,-269 87,-269 81,-263 81,-257 81,-257 81,-245 81,-245 81,-239 87,-233 93,-233 93,-233 157,-233 157,-233 163,-233 169,-239 169,-245 169,-245 169,-257 169,-257 169,-263 163,-269 157,-269"/>
<text text-anchor="middle" x="125" y="-247.3" font-family="Times,serif" font-size="14.00">处理小端序</text>
</g>
<!-- Init&#45;&gt;处理小端序 -->
<g id="edge30" class="edge">
<title>Init&#45;&gt;处理小端序</title>
<path fill="none" stroke="black" d="M227.1,-319.8C207.58,-306.84 180.63,-288.94 159.32,-274.79"/>
<polygon fill="black" stroke="black" points="161.13,-271.79 150.86,-269.18 157.26,-277.62 161.13,-271.79"/>
</g>
<!-- Permute&#45;&gt;PermuteR -->
<g id="edge8" class="edge">
<title>Permute&#45;&gt;PermuteR</title>
<path fill="none" stroke="black" d="M377.36,-319.79C362.29,-311.19 351.16,-299.87 360,-287 363.17,-282.38 367.05,-278.37 371.39,-274.88"/>
<polygon fill="black" stroke="black" points="373.43,-277.73 379.67,-269.17 369.45,-271.97 373.43,-277.73"/>
<text text-anchor="middle" x="419.5" y="-290.8" font-family="Times,serif" font-size="14.00">调用 max_rounds</text>
</g>
<!-- Round -->
<g id="node5" class="node">
<title>Round</title>
<path fill="none" stroke="black" d="M489.5,-182C489.5,-182 412.5,-182 412.5,-182 406.5,-182 400.5,-176 400.5,-170 400.5,-170 400.5,-158 400.5,-158 400.5,-152 406.5,-146 412.5,-146 412.5,-146 489.5,-146 489.5,-146 495.5,-146 501.5,-152 501.5,-158 501.5,-158 501.5,-170 501.5,-170 501.5,-176 495.5,-182 489.5,-182"/>
<text text-anchor="middle" x="451" y="-160.3" font-family="Times,serif" font-size="14.00">round(rc: T)</text>
</g>
<!-- PermuteR&#45;&gt;Round -->
<g id="edge9" class="edge">
<title>PermuteR&#45;&gt;Round</title>
<path fill="none" stroke="black" d="M451,-232.8C451,-221.16 451,-205.55 451,-192.24"/>
<polygon fill="black" stroke="black" points="454.5,-192.18 451,-182.18 447.5,-192.18 454.5,-192.18"/>
<text text-anchor="middle" x="480" y="-203.8" font-family="Times,serif" font-size="14.00">循环调用</text>
</g>
<!-- Theta -->
<g id="node6" class="node">
<title>Theta</title>
<path fill="none" stroke="black" d="M213.5,-109C213.5,-109 142.5,-109 142.5,-109 136.5,-109 130.5,-103 130.5,-97 130.5,-97 130.5,-85 130.5,-85 130.5,-79 136.5,-73 142.5,-73 142.5,-73 213.5,-73 213.5,-73 219.5,-73 225.5,-79 225.5,-85 225.5,-85 225.5,-97 225.5,-97 225.5,-103 219.5,-109 213.5,-109"/>
<text text-anchor="middle" x="178" y="-87.3" font-family="Times,serif" font-size="14.00">Theta Step</text>
</g>
<!-- Round&#45;&gt;Theta -->
<g id="edge10" class="edge">
<title>Round&#45;&gt;Theta</title>
<path fill="none" stroke="black" d="M400.29,-149.81C353.55,-137.66 284.24,-119.63 235.47,-106.95"/>
<polygon fill="black" stroke="black" points="236.25,-103.53 225.69,-104.4 234.49,-110.31 236.25,-103.53"/>
</g>
<!-- RhoPi -->
<g id="node7" class="node">
<title>RhoPi</title>
<path fill="none" stroke="black" d="M462.5,-109C462.5,-109 369.5,-109 369.5,-109 363.5,-109 357.5,-103 357.5,-97 357.5,-97 357.5,-85 357.5,-85 357.5,-79 363.5,-73 369.5,-73 369.5,-73 462.5,-73 462.5,-73 468.5,-73 474.5,-79 474.5,-85 474.5,-85 474.5,-97 474.5,-97 474.5,-103 468.5,-109 462.5,-109"/>
<text text-anchor="middle" x="416" y="-87.3" font-family="Times,serif" font-size="14.00">Rho + Pi Step</text>
</g>
<!-- Round&#45;&gt;RhoPi -->
<g id="edge11" class="edge">
<title>Round&#45;&gt;RhoPi</title>
<path fill="none" stroke="black" d="M442.53,-145.81C438.44,-137.53 433.46,-127.41 428.91,-118.19"/>
<polygon fill="black" stroke="black" points="431.96,-116.45 424.39,-109.03 425.68,-119.55 431.96,-116.45"/>
</g>
<!-- Chi -->
<g id="node8" class="node">
<title>Chi</title>
<path fill="none" stroke="black" d="M559,-109C559,-109 505,-109 505,-109 499,-109 493,-103 493,-97 493,-97 493,-85 493,-85 493,-79 499,-73 505,-73 505,-73 559,-73 559,-73 565,-73 571,-79 571,-85 571,-85 571,-97 571,-97 571,-103 565,-109 559,-109"/>
<text text-anchor="middle" x="532" y="-87.3" font-family="Times,serif" font-size="14.00">Chi Step</text>
</g>
<!-- Round&#45;&gt;Chi -->
<g id="edge12" class="edge">
<title>Round&#45;&gt;Chi</title>
<path fill="none" stroke="black" d="M470.61,-145.81C480.86,-136.83 493.56,-125.69 504.75,-115.89"/>
<polygon fill="black" stroke="black" points="507.36,-118.25 512.57,-109.03 502.75,-112.99 507.36,-118.25"/>
</g>
<!-- Iota -->
<g id="node9" class="node">
<title>Iota</title>
<path fill="none" stroke="black" d="M721,-109C721,-109 663,-109 663,-109 657,-109 651,-103 651,-97 651,-97 651,-85 651,-85 651,-79 657,-73 663,-73 663,-73 721,-73 721,-73 727,-73 733,-79 733,-85 733,-85 733,-97 733,-97 733,-103 727,-109 721,-109"/>
<text text-anchor="middle" x="692" y="-87.3" font-family="Times,serif" font-size="14.00">Iota Step</text>
</g>
<!-- Round&#45;&gt;Iota -->
<g id="edge13" class="edge">
<title>Round&#45;&gt;Iota</title>
<path fill="none" stroke="black" d="M501.52,-148.12C542.45,-136.06 599.87,-119.14 640.94,-107.04"/>
<polygon fill="black" stroke="black" points="642.15,-110.34 650.75,-104.15 640.17,-103.62 642.15,-110.34"/>
</g>
<!-- 计算 t 数组 -->
<g id="node14" class="node">
<title>计算 t 数组</title>
<path fill="none" stroke="black" d="M210,-36C210,-36 146,-36 146,-36 140,-36 134,-30 134,-24 134,-24 134,-12 134,-12 134,-6 140,0 146,0 146,0 210,0 210,0 216,0 222,-6 222,-12 222,-12 222,-24 222,-24 222,-30 216,-36 210,-36"/>
<text text-anchor="middle" x="178" y="-14.3" font-family="Times,serif" font-size="14.00">计算 t 数组</text>
</g>
<!-- Theta&#45;&gt;计算 t 数组 -->
<g id="edge14" class="edge">
<title>Theta&#45;&gt;计算 t 数组</title>
<path fill="none" stroke="black" d="M178,-72.81C178,-64.79 178,-55.05 178,-46.07"/>
<polygon fill="black" stroke="black" points="181.5,-46.03 178,-36.03 174.5,-46.03 181.5,-46.03"/>
</g>
<!-- 异或和循环移位 -->
<g id="node15" class="node">
<title>异或和循环移位</title>
<path fill="none" stroke="black" d="M104,-36C104,-36 12,-36 12,-36 6,-36 0,-30 0,-24 0,-24 0,-12 0,-12 0,-6 6,0 12,0 12,0 104,0 104,0 110,0 116,-6 116,-12 116,-12 116,-24 116,-24 116,-30 110,-36 104,-36"/>
<text text-anchor="middle" x="58" y="-14.3" font-family="Times,serif" font-size="14.00">异或和循环移位</text>
</g>
<!-- Theta&#45;&gt;异或和循环移位 -->
<g id="edge15" class="edge">
<title>Theta&#45;&gt;异或和循环移位</title>
<path fill="none" stroke="black" d="M149.26,-72.99C133.2,-63.49 112.99,-51.54 95.68,-41.29"/>
<polygon fill="black" stroke="black" points="97.31,-38.19 86.92,-36.11 93.75,-44.22 97.31,-38.19"/>
</g>
<!-- 循环移位和置换 -->
<g id="node16" class="node">
<title>循环移位和置换</title>
<path fill="none" stroke="black" d="M464,-36C464,-36 372,-36 372,-36 366,-36 360,-30 360,-24 360,-24 360,-12 360,-12 360,-6 366,0 372,0 372,0 464,0 464,0 470,0 476,-6 476,-12 476,-12 476,-24 476,-24 476,-30 470,-36 464,-36"/>
<text text-anchor="middle" x="418" y="-14.3" font-family="Times,serif" font-size="14.00">循环移位和置换</text>
</g>
<!-- RhoPi&#45;&gt;循环移位和置换 -->
<g id="edge16" class="edge">
<title>RhoPi&#45;&gt;循环移位和置换</title>
<path fill="none" stroke="black" d="M416.48,-72.81C416.71,-64.79 416.98,-55.05 417.24,-46.07"/>
<polygon fill="black" stroke="black" points="420.74,-46.12 417.52,-36.03 413.74,-45.93 420.74,-46.12"/>
</g>
<!-- 更新状态数组 -->
<g id="node17" class="node">
<title>更新状态数组</title>
<path fill="none" stroke="black" d="M330,-36C330,-36 252,-36 252,-36 246,-36 240,-30 240,-24 240,-24 240,-12 240,-12 240,-6 246,0 252,0 252,0 330,0 330,0 336,0 342,-6 342,-12 342,-12 342,-24 342,-24 342,-30 336,-36 330,-36"/>
<text text-anchor="middle" x="291" y="-14.3" font-family="Times,serif" font-size="14.00">更新状态数组</text>
</g>
<!-- RhoPi&#45;&gt;更新状态数组 -->
<g id="edge17" class="edge">
<title>RhoPi&#45;&gt;更新状态数组</title>
<path fill="none" stroke="black" d="M386.06,-72.99C369.33,-63.49 348.28,-51.54 330.25,-41.29"/>
<polygon fill="black" stroke="black" points="331.55,-38.01 321.13,-36.11 328.1,-44.1 331.55,-38.01"/>
</g>
<!-- 非线性变换 -->
<g id="node18" class="node">
<title>非线性变换</title>
<path fill="none" stroke="black" d="M662,-36C662,-36 598,-36 598,-36 592,-36 586,-30 586,-24 586,-24 586,-12 586,-12 586,-6 592,0 598,0 598,0 662,0 662,0 668,0 674,-6 674,-12 674,-12 674,-24 674,-24 674,-30 668,-36 662,-36"/>
<text text-anchor="middle" x="630" y="-14.3" font-family="Times,serif" font-size="14.00">非线性变换</text>
</g>
<!-- Chi&#45;&gt;非线性变换 -->
<g id="edge18" class="edge">
<title>Chi&#45;&gt;非线性变换</title>
<path fill="none" stroke="black" d="M555.72,-72.81C568.48,-63.57 584.39,-52.04 598.21,-42.03"/>
<polygon fill="black" stroke="black" points="600.45,-44.73 606.5,-36.03 596.34,-39.06 600.45,-44.73"/>
</g>
<!-- 异或操作 -->
<g id="node19" class="node">
<title>异或操作</title>
<path fill="none" stroke="black" d="M556,-36C556,-36 506,-36 506,-36 500,-36 494,-30 494,-24 494,-24 494,-12 494,-12 494,-6 500,0 506,0 506,0 556,0 556,0 562,0 568,-6 568,-12 568,-12 568,-24 568,-24 568,-30 562,-36 556,-36"/>
<text text-anchor="middle" x="531" y="-14.3" font-family="Times,serif" font-size="14.00">异或操作</text>
</g>
<!-- Chi&#45;&gt;异或操作 -->
<g id="edge19" class="edge">
<title>Chi&#45;&gt;异或操作</title>
<path fill="none" stroke="black" d="M531.76,-72.81C531.64,-64.79 531.51,-55.05 531.38,-46.07"/>
<polygon fill="black" stroke="black" points="534.88,-45.98 531.24,-36.03 527.88,-46.08 534.88,-45.98"/>
</g>
<!-- 异或轮常数 (RC) -->
<g id="node20" class="node">
<title>异或轮常数 (RC)</title>
<path fill="none" stroke="black" d="M804,-36C804,-36 704,-36 704,-36 698,-36 692,-30 692,-24 692,-24 692,-12 692,-12 692,-6 698,0 704,0 704,0 804,0 804,0 810,0 816,-6 816,-12 816,-12 816,-24 816,-24 816,-30 810,-36 804,-36"/>
<text text-anchor="middle" x="754" y="-14.3" font-family="Times,serif" font-size="14.00">异或轮常数 (RC)</text>
</g>
<!-- Iota&#45;&gt;异或轮常数 (RC) -->
<g id="edge20" class="edge">
<title>Iota&#45;&gt;异或轮常数 (RC)</title>
<path fill="none" stroke="black" d="M707.01,-72.81C714.62,-64.09 724.01,-53.34 732.39,-43.75"/>
<polygon fill="black" stroke="black" points="735.19,-45.86 739.13,-36.03 729.92,-41.26 735.19,-45.86"/>
</g>
<!-- 分块处理输入数据 -->
<g id="node21" class="node">
<title>分块处理输入数据</title>
<path fill="none" stroke="black" d="M681.5,-269C681.5,-269 574.5,-269 574.5,-269 568.5,-269 562.5,-263 562.5,-257 562.5,-257 562.5,-245 562.5,-245 562.5,-239 568.5,-233 574.5,-233 574.5,-233 681.5,-233 681.5,-233 687.5,-233 693.5,-239 693.5,-245 693.5,-245 693.5,-257 693.5,-257 693.5,-263 687.5,-269 681.5,-269"/>
<text text-anchor="middle" x="628" y="-247.3" font-family="Times,serif" font-size="14.00">分块处理输入数据</text>
</g>
<!-- AddBytes&#45;&gt;分块处理输入数据 -->
<g id="edge21" class="edge">
<title>AddBytes&#45;&gt;分块处理输入数据</title>
<path fill="none" stroke="black" d="M628,-319.8C628,-308.16 628,-292.55 628,-279.24"/>
<polygon fill="black" stroke="black" points="631.5,-279.18 628,-269.18 624.5,-279.18 631.5,-279.18"/>
</g>
<!-- 处理剩余字节 -->
<g id="node22" class="node">
<title>处理剩余字节</title>
<path fill="none" stroke="black" d="M853,-269C853,-269 775,-269 775,-269 769,-269 763,-263 763,-257 763,-257 763,-245 763,-245 763,-239 769,-233 775,-233 775,-233 853,-233 853,-233 859,-233 865,-239 865,-245 865,-245 865,-257 865,-257 865,-263 859,-269 853,-269"/>
<text text-anchor="middle" x="814" y="-247.3" font-family="Times,serif" font-size="14.00">处理剩余字节</text>
</g>
<!-- AddBytes&#45;&gt;处理剩余字节 -->
<g id="edge22" class="edge">
<title>AddBytes&#45;&gt;处理剩余字节</title>
<path fill="none" stroke="black" d="M665.64,-319.8C694.98,-306.39 735.88,-287.7 767.31,-273.34"/>
<polygon fill="black" stroke="black" points="769.09,-276.37 776.73,-269.03 766.18,-270 769.09,-276.37"/>
</g>
<!-- ExtractBytes&#45;&gt;处理剩余字节 -->
<g id="edge24" class="edge">
<title>ExtractBytes&#45;&gt;处理剩余字节</title>
<path fill="none" stroke="black" d="M836.33,-319.8C832.46,-308.05 827.25,-292.24 822.84,-278.84"/>
<polygon fill="black" stroke="black" points="826.11,-277.58 819.66,-269.18 819.46,-279.77 826.11,-277.58"/>
</g>
<!-- 分块输出数据 -->
<g id="node23" class="node">
<title>分块输出数据</title>
<path fill="none" stroke="black" d="M973,-269C973,-269 895,-269 895,-269 889,-269 883,-263 883,-257 883,-257 883,-245 883,-245 883,-239 889,-233 895,-233 895,-233 973,-233 973,-233 979,-233 985,-239 985,-245 985,-245 985,-257 985,-257 985,-263 979,-269 973,-269"/>
<text text-anchor="middle" x="934" y="-247.3" font-family="Times,serif" font-size="14.00">分块输出数据</text>
</g>
<!-- ExtractBytes&#45;&gt;分块输出数据 -->
<g id="edge23" class="edge">
<title>ExtractBytes&#45;&gt;分块输出数据</title>
<path fill="none" stroke="black" d="M860.62,-319.8C874.21,-307.24 892.82,-290.05 907.89,-276.12"/>
<polygon fill="black" stroke="black" points="910.44,-278.53 915.41,-269.18 905.69,-273.39 910.44,-278.53"/>
</g>
<!-- XORBytes&#45;&gt;处理剩余字节 -->
<g id="edge26" class="edge">
<title>XORBytes&#45;&gt;处理剩余字节</title>
<path fill="none" stroke="black" d="M1024.09,-319.9C980.91,-305.95 919.87,-286.22 874.7,-271.62"/>
<polygon fill="black" stroke="black" points="875.62,-268.24 865.03,-268.49 873.47,-274.9 875.62,-268.24"/>
</g>
<!-- 分块异或操作 -->
<g id="node24" class="node">
<title>分块异或操作</title>
<path fill="none" stroke="black" d="M1116,-269C1116,-269 1038,-269 1038,-269 1032,-269 1026,-263 1026,-257 1026,-257 1026,-245 1026,-245 1026,-239 1032,-233 1038,-233 1038,-233 1116,-233 1116,-233 1122,-233 1128,-239 1128,-245 1128,-245 1128,-257 1128,-257 1128,-263 1122,-269 1116,-269"/>
<text text-anchor="middle" x="1077" y="-247.3" font-family="Times,serif" font-size="14.00">分块异或操作</text>
</g>
<!-- XORBytes&#45;&gt;分块异或操作 -->
<g id="edge25" class="edge">
<title>XORBytes&#45;&gt;分块异或操作</title>
<path fill="none" stroke="black" d="M1077,-319.8C1077,-308.16 1077,-292.55 1077,-279.24"/>
<polygon fill="black" stroke="black" points="1080.5,-279.18 1077,-269.18 1073.5,-279.18 1080.5,-279.18"/>
</g>
<!-- 字节序转换 -->
<g id="node25" class="node">
<title>字节序转换</title>
<path fill="none" stroke="black" d="M1311,-269C1311,-269 1247,-269 1247,-269 1241,-269 1235,-263 1235,-257 1235,-257 1235,-245 1235,-245 1235,-239 1241,-233 1247,-233 1247,-233 1311,-233 1311,-233 1317,-233 1323,-239 1323,-245 1323,-245 1323,-257 1323,-257 1323,-263 1317,-269 1311,-269"/>
<text text-anchor="middle" x="1279" y="-247.3" font-family="Times,serif" font-size="14.00">字节序转换</text>
</g>
<!-- EndianSwap&#45;&gt;字节序转换 -->
<g id="edge27" class="edge">
<title>EndianSwap&#45;&gt;字节序转换</title>
<path fill="none" stroke="black" d="M1279,-319.8C1279,-308.16 1279,-292.55 1279,-279.24"/>
<polygon fill="black" stroke="black" points="1282.5,-279.18 1279,-269.18 1275.5,-279.18 1282.5,-279.18"/>
</g>
<!-- mem.readInt -->
<g id="node30" class="node">
<title>mem.readInt</title>
<path fill="none" stroke="black" d="M670.5,-182C670.5,-182 585.5,-182 585.5,-182 579.5,-182 573.5,-176 573.5,-170 573.5,-170 573.5,-158 573.5,-158 573.5,-152 579.5,-146 585.5,-146 585.5,-146 670.5,-146 670.5,-146 676.5,-146 682.5,-152 682.5,-158 682.5,-158 682.5,-170 682.5,-170 682.5,-176 676.5,-182 670.5,-182"/>
<text text-anchor="middle" x="628" y="-160.3" font-family="Times,serif" font-size="14.00">mem.readInt</text>
</g>
<!-- 分块处理输入数据&#45;&gt;mem.readInt -->
<g id="edge32" class="edge">
<title>分块处理输入数据&#45;&gt;mem.readInt</title>
<path fill="none" stroke="black" d="M628,-232.8C628,-221.16 628,-205.55 628,-192.24"/>
<polygon fill="black" stroke="black" points="631.5,-192.18 628,-182.18 624.5,-192.18 631.5,-192.18"/>
</g>
<!-- 填充零字节 -->
<g id="node29" class="node">
<title>填充零字节</title>
<path fill="none" stroke="black" d="M823,-182C823,-182 759,-182 759,-182 753,-182 747,-176 747,-170 747,-170 747,-158 747,-158 747,-152 753,-146 759,-146 759,-146 823,-146 823,-146 829,-146 835,-152 835,-158 835,-158 835,-170 835,-170 835,-176 829,-182 823,-182"/>
<text text-anchor="middle" x="791" y="-160.3" font-family="Times,serif" font-size="14.00">填充零字节</text>
</g>
<!-- 处理剩余字节&#45;&gt;填充零字节 -->
<g id="edge31" class="edge">
<title>处理剩余字节&#45;&gt;填充零字节</title>
<path fill="none" stroke="black" d="M809.35,-232.8C806.17,-221.05 801.89,-205.24 798.26,-191.84"/>
<polygon fill="black" stroke="black" points="801.64,-190.91 795.65,-182.18 794.88,-192.74 801.64,-190.91"/>
</g>
<!-- @memcpy -->
<g id="node31" class="node">
<title>@memcpy</title>
<path fill="none" stroke="black" d="M932.5,-182C932.5,-182 865.5,-182 865.5,-182 859.5,-182 853.5,-176 853.5,-170 853.5,-170 853.5,-158 853.5,-158 853.5,-152 859.5,-146 865.5,-146 865.5,-146 932.5,-146 932.5,-146 938.5,-146 944.5,-152 944.5,-158 944.5,-158 944.5,-170 944.5,-170 944.5,-176 938.5,-182 932.5,-182"/>
<text text-anchor="middle" x="899" y="-160.3" font-family="Times,serif" font-size="14.00">@memcpy</text>
</g>
<!-- 处理剩余字节&#45;&gt;@memcpy -->
<g id="edge33" class="edge">
<title>处理剩余字节&#45;&gt;@memcpy</title>
<path fill="none" stroke="black" d="M831.2,-232.8C843.64,-220.36 860.64,-203.36 874.5,-189.5"/>
<polygon fill="black" stroke="black" points="877.23,-191.72 881.82,-182.18 872.28,-186.77 877.23,-191.72"/>
</g>
</g>
</svg>
