<?xml version="1.0" encoding="UTF-8" standalone="no"?>
<!DOCTYPE svg PUBLIC "-//W3C//DTD SVG 1.1//EN"
 "http://www.w3.org/Graphics/SVG/1.1/DTD/svg11.dtd">
<!-- Generated by graphviz version 2.43.0 (0)
 -->
<!-- Title: unwindFrameMachO Pages: 1 -->
<svg width="1605pt" height="1113pt"
 viewBox="0.00 0.00 1605.34 1113.00" xmlns="http://www.w3.org/2000/svg" xmlns:xlink="http://www.w3.org/1999/xlink">
<g id="graph0" class="graph" transform="scale(1 1) rotate(0) translate(4 1109)">
<title>unwindFrameMachO</title>
<polygon fill="white" stroke="transparent" points="-4,4 -4,-1109 1601.34,-1109 1601.34,4 -4,4"/>
<g id="clust1" class="cluster">
<title>cluster_error_handling</title>
<polygon fill="none" stroke="black" points="545.34,-66 545.34,-141 1394.34,-141 1394.34,-66 545.34,-66"/>
<text text-anchor="middle" x="969.84" y="-125.8" font-family="Arial" font-size="14.00">错误处理</text>
</g>
<!-- start -->
<g id="node1" class="node">
<title>start</title>
<ellipse fill="#b3e2cd" stroke="black" cx="1433.34" cy="-1087" rx="114.28" ry="18"/>
<text text-anchor="middle" x="1433.34" y="-1083.3" font-family="Arial" font-size="14.00">开始 unwindFrameMachO</text>
</g>
<!-- parse_header -->
<g id="node2" class="node">
<title>parse_header</title>
<polygon fill="#f0f0f0" stroke="black" points="1484.34,-1032 1382.34,-1032 1382.34,-996 1484.34,-996 1484.34,-1032"/>
<text text-anchor="middle" x="1433.34" y="-1010.3" font-family="Arial" font-size="14.00">解析头部信息</text>
</g>
<!-- start&#45;&gt;parse_header -->
<g id="edge1" class="edge">
<title>start&#45;&gt;parse_header</title>
<path fill="none" stroke="black" d="M1433.34,-1068.81C1433.34,-1060.18 1433.34,-1049.56 1433.34,-1040.03"/>
<polygon fill="black" stroke="black" points="1436.14,-1040.03 1433.34,-1032.03 1430.54,-1040.03 1436.14,-1040.03"/>
</g>
<!-- check_indices -->
<g id="node3" class="node">
<title>check_indices</title>
<polygon fill="#f0f0f0" stroke="black" points="1530.84,-959 1335.84,-959 1335.84,-921 1530.84,-921 1530.84,-959"/>
<text text-anchor="middle" x="1433.34" y="-943.8" font-family="Arial" font-size="14.00">检查indices长度</text>
<text text-anchor="middle" x="1433.34" y="-928.8" font-family="Arial" font-size="14.00">若为0返回MissingUnwindInfo</text>
</g>
<!-- parse_header&#45;&gt;check_indices -->
<g id="edge2" class="edge">
<title>parse_header&#45;&gt;check_indices</title>
<path fill="none" stroke="black" d="M1433.34,-995.94C1433.34,-987.38 1433.34,-976.83 1433.34,-967.27"/>
<polygon fill="black" stroke="black" points="1436.14,-967.2 1433.34,-959.2 1430.54,-967.2 1436.14,-967.2"/>
</g>
<!-- binary_search_first_level -->
<g id="node4" class="node">
<title>binary_search_first_level</title>
<polygon fill="#f0f0f0" stroke="black" points="1436.34,-870 1272.34,-870 1272.34,-832 1436.34,-832 1436.34,-870"/>
<text text-anchor="middle" x="1354.34" y="-854.8" font-family="Arial" font-size="14.00">一级索引二分查找</text>
<text text-anchor="middle" x="1354.34" y="-839.8" font-family="Arial" font-size="14.00">确定second_level_index</text>
</g>
<!-- check_indices&#45;&gt;binary_search_first_level -->
<g id="edge3" class="edge">
<title>check_indices&#45;&gt;binary_search_first_level</title>
<path fill="none" stroke="black" d="M1405.41,-920.86C1398.41,-915.58 1391.22,-909.48 1385.34,-903 1378.38,-895.33 1372.12,-885.86 1367.09,-877.18"/>
<polygon fill="black" stroke="black" points="1369.5,-875.76 1363.15,-870.13 1364.61,-878.48 1369.5,-875.76"/>
<text text-anchor="middle" x="1429.34" y="-891.8" font-family="Arial" font-size="14.00">indices.len &gt; 0</text>
</g>
<!-- error_missing -->
<g id="node19" class="node">
<title>error_missing</title>
<polygon fill="#f0f0f0" stroke="black" points="1385.84,-110 1254.84,-110 1254.84,-74 1385.84,-74 1385.84,-110"/>
<text text-anchor="middle" x="1320.34" y="-88.3" font-family="Arial" font-size="14.00">MissingUnwindInfo</text>
</g>
<!-- check_indices&#45;&gt;error_missing -->
<g id="edge4" class="edge">
<title>check_indices&#45;&gt;error_missing</title>
<path fill="none" stroke="black" d="M1460.47,-920.7C1466.88,-915.5 1473.31,-909.48 1478.34,-903 1493.58,-883.35 1501.34,-876.87 1501.34,-852 1501.34,-852 1501.34,-852 1501.34,-200 1501.34,-147.42 1444.03,-120.13 1393.91,-106.32"/>
<polygon fill="black" stroke="black" points="1394.39,-103.55 1385.94,-104.22 1392.96,-108.97 1394.39,-103.55"/>
<text text-anchor="middle" x="1549.34" y="-521.3" font-family="Arial" font-size="14.00">indices.len == 0</text>
</g>
<!-- check_second_level_offset -->
<g id="node5" class="node">
<title>check_second_level_offset</title>
<polygon fill="#f0f0f0" stroke="black" points="1445.84,-795 1204.84,-795 1204.84,-757 1445.84,-757 1445.84,-795"/>
<text text-anchor="middle" x="1325.34" y="-779.8" font-family="Arial" font-size="14.00">检查secondLevelPagesSectionOffset</text>
<text text-anchor="middle" x="1325.34" y="-764.8" font-family="Arial" font-size="14.00">若为0返回MissingUnwindInfo</text>
</g>
<!-- binary_search_first_level&#45;&gt;check_second_level_offset -->
<g id="edge5" class="edge">
<title>binary_search_first_level&#45;&gt;check_second_level_offset</title>
<path fill="none" stroke="black" d="M1347.17,-831.96C1343.65,-823.09 1339.35,-812.26 1335.49,-802.56"/>
<polygon fill="black" stroke="black" points="1338.08,-801.49 1332.52,-795.09 1332.88,-803.56 1338.08,-801.49"/>
</g>
<!-- get_common_encodings -->
<g id="node6" class="node">
<title>get_common_encodings</title>
<polygon fill="#f0f0f0" stroke="black" points="1283.34,-706 1167.34,-706 1167.34,-670 1283.34,-670 1283.34,-706"/>
<text text-anchor="middle" x="1225.34" y="-684.3" font-family="Arial" font-size="14.00">获取公共编码表</text>
</g>
<!-- check_second_level_offset&#45;&gt;get_common_encodings -->
<g id="edge6" class="edge">
<title>check_second_level_offset&#45;&gt;get_common_encodings</title>
<path fill="none" stroke="black" d="M1304.13,-756.76C1288.74,-743.53 1267.84,-725.55 1251.43,-711.44"/>
<polygon fill="black" stroke="black" points="1253.05,-709.14 1245.15,-706.04 1249.39,-713.38 1253.05,-709.14"/>
<text text-anchor="middle" x="1309.34" y="-727.8" font-family="Arial" font-size="14.00">有效偏移</text>
</g>
<!-- check_second_level_offset&#45;&gt;error_missing -->
<g id="edge7" class="edge">
<title>check_second_level_offset&#45;&gt;error_missing</title>
<path fill="none" stroke="black" d="M1349.16,-756.94C1367,-741.19 1388.34,-716.58 1388.34,-689 1388.34,-689 1388.34,-689 1388.34,-200 1388.34,-167.09 1365.14,-136.12 1345.84,-116.05"/>
<polygon fill="black" stroke="black" points="1347.63,-113.88 1340.01,-110.18 1343.66,-117.83 1347.63,-113.88"/>
<text text-anchor="middle" x="1417.34" y="-446.3" font-family="Arial" font-size="14.00">无效偏移</text>
</g>
<!-- check_second_level_kind -->
<g id="node7" class="node">
<title>check_second_level_kind</title>
<polygon fill="#f0f0f0" stroke="black" points="1170.84,-633 1039.84,-633 1039.84,-595 1170.84,-595 1170.84,-633"/>
<text text-anchor="middle" x="1105.34" y="-617.8" font-family="Arial" font-size="14.00">检查二级页面类型</text>
<text text-anchor="middle" x="1105.34" y="-602.8" font-family="Arial" font-size="14.00">(kind.*)</text>
</g>
<!-- get_common_encodings&#45;&gt;check_second_level_kind -->
<g id="edge8" class="edge">
<title>get_common_encodings&#45;&gt;check_second_level_kind</title>
<path fill="none" stroke="black" d="M1196.9,-669.94C1180.77,-660.26 1160.38,-648.03 1142.94,-637.56"/>
<polygon fill="black" stroke="black" points="1143.97,-634.91 1135.67,-633.2 1141.09,-639.72 1143.97,-634.91"/>
</g>
<!-- handle_regular -->
<g id="node8" class="node">
<title>handle_regular</title>
<polygon fill="#f0f0f0" stroke="black" points="947.84,-544 802.84,-544 802.84,-506 947.84,-506 947.84,-544"/>
<text text-anchor="middle" x="875.34" y="-528.8" font-family="Arial" font-size="14.00">处理REGULAR模式</text>
<text text-anchor="middle" x="875.34" y="-513.8" font-family="Arial" font-size="14.00">解析条目并二分查找</text>
</g>
<!-- check_second_level_kind&#45;&gt;handle_regular -->
<g id="edge9" class="edge">
<title>check_second_level_kind&#45;&gt;handle_regular</title>
<path fill="none" stroke="black" d="M1053.57,-594.93C1037.73,-589.3 1020.28,-582.99 1004.34,-577 978.91,-567.45 950.85,-556.41 927.41,-547.05"/>
<polygon fill="black" stroke="black" points="928.44,-544.45 919.97,-544.08 926.36,-549.65 928.44,-544.45"/>
<text text-anchor="middle" x="1037.84" y="-565.8" font-family="Arial" font-size="14.00">REGULAR</text>
</g>
<!-- handle_compressed -->
<g id="node9" class="node">
<title>handle_compressed</title>
<polygon fill="#f0f0f0" stroke="black" points="1156.84,-544 983.84,-544 983.84,-506 1156.84,-506 1156.84,-544"/>
<text text-anchor="middle" x="1070.34" y="-528.8" font-family="Arial" font-size="14.00">处理COMPRESSED模式</text>
<text text-anchor="middle" x="1070.34" y="-513.8" font-family="Arial" font-size="14.00">解析条目并处理编码索引</text>
</g>
<!-- check_second_level_kind&#45;&gt;handle_compressed -->
<g id="edge10" class="edge">
<title>check_second_level_kind&#45;&gt;handle_compressed</title>
<path fill="none" stroke="black" d="M1095.01,-595C1092,-589.34 1088.84,-583 1086.34,-577 1083.02,-569.03 1080,-560.12 1077.5,-552.01"/>
<polygon fill="black" stroke="black" points="1080.15,-551.09 1075.18,-544.22 1074.78,-552.69 1080.15,-551.09"/>
<text text-anchor="middle" x="1135.34" y="-565.8" font-family="Arial" font-size="14.00">COMPRESSED</text>
</g>
<!-- invalid_kind -->
<g id="node10" class="node">
<title>invalid_kind</title>
<polygon fill="#f0f0f0" stroke="black" points="1193.34,-219 1053.41,-201 1193.34,-183 1333.26,-201 1193.34,-219"/>
<text text-anchor="middle" x="1193.34" y="-197.3" font-family="Arial" font-size="14.00">返回InvalidUnwindInfo</text>
</g>
<!-- check_second_level_kind&#45;&gt;invalid_kind -->
<g id="edge11" class="edge">
<title>check_second_level_kind&#45;&gt;invalid_kind</title>
<path fill="none" stroke="black" d="M1163.55,-594.85C1172.94,-590.1 1181.98,-584.22 1189.34,-577 1207.08,-559.58 1212.34,-550.87 1212.34,-526 1212.34,-526 1212.34,-526 1212.34,-288 1212.34,-266.84 1206.79,-243.44 1201.69,-226.39"/>
<polygon fill="black" stroke="black" points="1204.3,-225.37 1199.25,-218.57 1198.96,-227.04 1204.3,-225.37"/>
<text text-anchor="middle" x="1226.84" y="-401.8" font-family="Arial" font-size="14.00">其他</text>
</g>
<!-- check_raw_encoding -->
<g id="node11" class="node">
<title>check_raw_encoding</title>
<polygon fill="#f0f0f0" stroke="black" points="962.34,-469 796.34,-469 796.34,-431 962.34,-431 962.34,-469"/>
<text text-anchor="middle" x="879.34" y="-453.8" font-family="Arial" font-size="14.00">检查raw_encoding</text>
<text text-anchor="middle" x="879.34" y="-438.8" font-family="Arial" font-size="14.00">若为0返回NoUnwindInfo</text>
</g>
<!-- handle_regular&#45;&gt;check_raw_encoding -->
<g id="edge13" class="edge">
<title>handle_regular&#45;&gt;check_raw_encoding</title>
<path fill="none" stroke="black" d="M876.33,-505.96C876.8,-497.27 877.38,-486.69 877.91,-477.14"/>
<polygon fill="black" stroke="black" points="880.7,-477.23 878.35,-469.09 875.11,-476.93 880.7,-477.23"/>
</g>
<!-- handle_compressed&#45;&gt;check_raw_encoding -->
<g id="edge14" class="edge">
<title>handle_compressed&#45;&gt;check_raw_encoding</title>
<path fill="none" stroke="black" d="M1023.12,-505.96C996.26,-495.69 962.49,-482.78 934.42,-472.05"/>
<polygon fill="black" stroke="black" points="935.14,-469.33 926.67,-469.09 933.14,-474.56 935.14,-469.33"/>
</g>
<!-- error_invalid -->
<g id="node20" class="node">
<title>error_invalid</title>
<polygon fill="#f0f0f0" stroke="black" points="1218.84,-110 1095.84,-110 1095.84,-74 1218.84,-74 1218.84,-110"/>
<text text-anchor="middle" x="1157.34" y="-88.3" font-family="Arial" font-size="14.00">InvalidUnwindInfo</text>
</g>
<!-- invalid_kind&#45;&gt;error_invalid -->
<g id="edge12" class="edge">
<title>invalid_kind&#45;&gt;error_invalid</title>
<path fill="none" stroke="black" d="M1187.71,-183.28C1181.84,-165.82 1172.55,-138.23 1165.8,-118.14"/>
<polygon fill="black" stroke="black" points="1168.37,-117 1163.16,-110.31 1163.06,-118.79 1168.37,-117"/>
</g>
<!-- setup_reg_context -->
<g id="node12" class="node">
<title>setup_reg_context</title>
<polygon fill="#f0f0f0" stroke="black" points="772.84,-380 641.84,-380 641.84,-344 772.84,-344 772.84,-380"/>
<text text-anchor="middle" x="707.34" y="-358.3" font-family="Arial" font-size="14.00">设置寄存器上下文</text>
</g>
<!-- check_raw_encoding&#45;&gt;setup_reg_context -->
<g id="edge15" class="edge">
<title>check_raw_encoding&#45;&gt;setup_reg_context</title>
<path fill="none" stroke="black" d="M843.28,-430.97C815.79,-417.23 777.88,-398.27 749.08,-383.87"/>
<polygon fill="black" stroke="black" points="750,-381.2 741.59,-380.13 747.49,-386.21 750,-381.2"/>
<text text-anchor="middle" x="859.34" y="-401.8" font-family="Arial" font-size="14.00">raw_encoding != 0</text>
</g>
<!-- error_no_unwind -->
<g id="node23" class="node">
<title>error_no_unwind</title>
<polygon fill="#f0f0f0" stroke="black" points="1059.84,-110 958.84,-110 958.84,-74 1059.84,-74 1059.84,-110"/>
<text text-anchor="middle" x="1009.34" y="-88.3" font-family="Arial" font-size="14.00">NoUnwindInfo</text>
</g>
<!-- check_raw_encoding&#45;&gt;error_no_unwind -->
<g id="edge16" class="edge">
<title>check_raw_encoding&#45;&gt;error_no_unwind</title>
<path fill="none" stroke="black" d="M937.79,-430.94C967.89,-417.63 998.34,-396.01 998.34,-363 998.34,-363 998.34,-363 998.34,-244.5 998.34,-200.1 1003.1,-148.56 1006.35,-118.49"/>
<polygon fill="black" stroke="black" points="1009.17,-118.5 1007.27,-110.24 1003.6,-117.88 1009.17,-118.5"/>
<text text-anchor="middle" x="1056.34" y="-285.3" font-family="Arial" font-size="14.00">raw_encoding == 0</text>
</g>
<!-- arch_decision -->
<g id="node13" class="node">
<title>arch_decision</title>
<polygon fill="#f0f0f0" stroke="black" points="647.34,-307 501.05,-289 647.34,-271 793.63,-289 647.34,-307"/>
<text text-anchor="middle" x="647.34" y="-285.3" font-family="Arial" font-size="14.00">根据CPU架构选择分支</text>
</g>
<!-- setup_reg_context&#45;&gt;arch_decision -->
<g id="edge17" class="edge">
<title>setup_reg_context&#45;&gt;arch_decision</title>
<path fill="none" stroke="black" d="M692.81,-343.81C684.66,-334.16 674.4,-322.02 665.69,-311.72"/>
<polygon fill="black" stroke="black" points="667.8,-309.88 660.5,-305.58 663.53,-313.49 667.8,-309.88"/>
</g>
<!-- x86_64_modes -->
<g id="node14" class="node">
<title>x86_64_modes</title>
<polygon fill="#f0f0f0" stroke="black" points="680.34,-220 346.34,-220 346.34,-182 680.34,-182 680.34,-220"/>
<text text-anchor="middle" x="513.34" y="-204.8" font-family="Arial" font-size="14.00">x86_64模式处理</text>
<text text-anchor="middle" x="513.34" y="-189.8" font-family="Arial" font-size="14.00">(RBP_FRAME/STACK_IMMD/STACK_IND/DWARF)</text>
</g>
<!-- arch_decision&#45;&gt;x86_64_modes -->
<g id="edge18" class="edge">
<title>arch_decision&#45;&gt;x86_64_modes</title>
<path fill="none" stroke="black" d="M624.91,-273.61C604.02,-260.2 572.56,-240.01 548.37,-224.48"/>
<polygon fill="black" stroke="black" points="549.68,-221.99 541.43,-220.03 546.65,-226.71 549.68,-221.99"/>
<text text-anchor="middle" x="614.84" y="-241.8" font-family="Arial" font-size="14.00">x86_64</text>
</g>
<!-- aarch64_modes -->
<g id="node15" class="node">
<title>aarch64_modes</title>
<polygon fill="#f0f0f0" stroke="black" points="928.84,-220 715.84,-220 715.84,-182 928.84,-182 928.84,-220"/>
<text text-anchor="middle" x="822.34" y="-204.8" font-family="Arial" font-size="14.00">aarch64模式处理</text>
<text text-anchor="middle" x="822.34" y="-189.8" font-family="Arial" font-size="14.00">(FRAMELESS/DWARF/FRAME)</text>
</g>
<!-- arch_decision&#45;&gt;aarch64_modes -->
<g id="edge19" class="edge">
<title>arch_decision&#45;&gt;aarch64_modes</title>
<path fill="none" stroke="black" d="M675.07,-274.37C702.73,-260.78 745.65,-239.69 778.03,-223.77"/>
<polygon fill="black" stroke="black" points="779.66,-226.09 785.61,-220.05 777.19,-221.07 779.66,-226.09"/>
<text text-anchor="middle" x="768.84" y="-241.8" font-family="Arial" font-size="14.00">aarch64</text>
</g>
<!-- unimplemented_arch -->
<g id="node16" class="node">
<title>unimplemented_arch</title>
<polygon fill="#f0f0f0" stroke="black" points="155.34,-219 0.16,-201 155.34,-183 310.51,-201 155.34,-219"/>
<text text-anchor="middle" x="155.34" y="-197.3" font-family="Arial" font-size="14.00">返回UnimplementedArch</text>
</g>
<!-- arch_decision&#45;&gt;unimplemented_arch -->
<g id="edge20" class="edge">
<title>arch_decision&#45;&gt;unimplemented_arch</title>
<path fill="none" stroke="black" d="M589.94,-277.97C498.22,-261.93 319.09,-230.62 221.9,-213.63"/>
<polygon fill="black" stroke="black" points="222.26,-210.86 213.9,-212.24 221.3,-216.37 222.26,-210.86"/>
<text text-anchor="middle" x="475.34" y="-241.8" font-family="Arial" font-size="14.00">其他架构</text>
</g>
<!-- update_context -->
<g id="node17" class="node">
<title>update_context</title>
<polygon fill="#f0f0f0" stroke="black" points="486.84,-111 379.84,-111 379.84,-73 486.84,-73 486.84,-111"/>
<text text-anchor="middle" x="433.34" y="-95.8" font-family="Arial" font-size="14.00">更新context.pc</text>
<text text-anchor="middle" x="433.34" y="-80.8" font-family="Arial" font-size="14.00">返回new_ip</text>
</g>
<!-- x86_64_modes&#45;&gt;update_context -->
<g id="edge21" class="edge">
<title>x86_64_modes&#45;&gt;update_context</title>
<path fill="none" stroke="black" d="M419.39,-181.98C411.65,-177.26 404.74,-171.37 399.34,-164 388.9,-149.76 397.66,-131.8 408.9,-117.51"/>
<polygon fill="black" stroke="black" points="411.17,-119.16 414.17,-111.23 406.88,-115.56 411.17,-119.16"/>
<text text-anchor="middle" x="428.34" y="-152.8" font-family="Arial" font-size="14.00">成功处理</text>
</g>
<!-- error_unimplemented -->
<g id="node21" class="node">
<title>error_unimplemented</title>
<polygon fill="#f0f0f0" stroke="black" points="767.34,-110 553.34,-110 553.34,-74 767.34,-74 767.34,-110"/>
<text text-anchor="middle" x="660.34" y="-88.3" font-family="Arial" font-size="14.00">UnimplementedUnwindEncoding</text>
</g>
<!-- x86_64_modes&#45;&gt;error_unimplemented -->
<g id="edge23" class="edge">
<title>x86_64_modes&#45;&gt;error_unimplemented</title>
<path fill="none" stroke="black" d="M500.7,-181.72C495.23,-171.37 491.48,-158.62 498.34,-149 510.07,-132.52 527,-120.85 545.53,-112.59"/>
<polygon fill="black" stroke="black" points="546.68,-115.14 552.99,-109.48 544.53,-109.97 546.68,-115.14"/>
<text text-anchor="middle" x="527.34" y="-152.8" font-family="Arial" font-size="14.00">OLD模式</text>
</g>
<!-- error_missing_eh -->
<g id="node22" class="node">
<title>error_missing_eh</title>
<polygon fill="#f0f0f0" stroke="black" points="922.84,-110 803.84,-110 803.84,-74 922.84,-74 922.84,-110"/>
<text text-anchor="middle" x="863.34" y="-88.3" font-family="Arial" font-size="14.00">MissingEhFrame</text>
</g>
<!-- x86_64_modes&#45;&gt;error_missing_eh -->
<g id="edge24" class="edge">
<title>x86_64_modes&#45;&gt;error_missing_eh</title>
<path fill="none" stroke="black" d="M536.06,-181.83C552.16,-170.11 574.8,-155.82 597.34,-149 637.36,-136.88 745.35,-153.24 785.34,-141 803.37,-135.48 821.43,-124.77 835.63,-114.87"/>
<polygon fill="black" stroke="black" points="837.41,-117.04 842.27,-110.1 834.14,-112.49 837.41,-117.04"/>
<text text-anchor="middle" x="658.34" y="-152.8" font-family="Arial" font-size="14.00">DWARF无eh_frame</text>
</g>
<!-- aarch64_modes&#45;&gt;update_context -->
<g id="edge22" class="edge">
<title>aarch64_modes&#45;&gt;update_context</title>
<path fill="none" stroke="black" d="M795.37,-181.84C776.39,-170.12 749.91,-155.83 724.34,-149 643.54,-127.4 617.59,-160.82 536.34,-141 513.66,-135.47 489.95,-124.8 471,-114.92"/>
<polygon fill="black" stroke="black" points="472.1,-112.33 463.72,-111.04 469.47,-117.28 472.1,-112.33"/>
<text text-anchor="middle" x="789.34" y="-152.8" font-family="Arial" font-size="14.00">成功处理</text>
</g>
<!-- aarch64_modes&#45;&gt;error_missing_eh -->
<g id="edge25" class="edge">
<title>aarch64_modes&#45;&gt;error_missing_eh</title>
<path fill="none" stroke="black" d="M829.29,-181.85C836.04,-164.24 846.33,-137.39 853.83,-117.81"/>
<polygon fill="black" stroke="black" points="856.51,-118.65 856.76,-110.18 851.28,-116.65 856.51,-118.65"/>
<text text-anchor="middle" x="902.34" y="-152.8" font-family="Arial" font-size="14.00">DWARF无eh_frame</text>
</g>
<!-- end -->
<g id="node18" class="node">
<title>end</title>
<ellipse fill="#b3e2cd" stroke="black" cx="433.34" cy="-18" rx="29.5" ry="18"/>
<text text-anchor="middle" x="433.34" y="-14.3" font-family="Arial" font-size="14.00">结束</text>
</g>
<!-- update_context&#45;&gt;end -->
<g id="edge26" class="edge">
<title>update_context&#45;&gt;end</title>
<path fill="none" stroke="black" d="M433.34,-72.83C433.34,-64.28 433.34,-53.94 433.34,-44.62"/>
<polygon fill="black" stroke="black" points="436.14,-44.42 433.34,-36.42 430.54,-44.42 436.14,-44.42"/>
</g>
</g>
</svg>
