<?xml version="1.0" encoding="UTF-8" standalone="no"?>
<!DOCTYPE svg PUBLIC "-//W3C//DTD SVG 1.1//EN"
 "http://www.w3.org/Graphics/SVG/1.1/DTD/svg11.dtd">
<!-- Generated by graphviz version 2.43.0 (0)
 -->
<!-- Title: flowchart Pages: 1 -->
<svg width="930pt" height="1894pt"
 viewBox="0.00 0.00 929.64 1894.00" xmlns="http://www.w3.org/2000/svg" xmlns:xlink="http://www.w3.org/1999/xlink">
<g id="graph0" class="graph" transform="scale(1 1) rotate(0) translate(4 1890)">
<title>flowchart</title>
<polygon fill="white" stroke="transparent" points="-4,4 -4,-1890 925.64,-1890 925.64,4 -4,4"/>
<!-- start -->
<g id="node1" class="node">
<title>start</title>
<path fill="none" stroke="black" d="M794,-1886C794,-1886 764,-1886 764,-1886 758,-1886 752,-1880 752,-1874 752,-1874 752,-1862 752,-1862 752,-1856 758,-1850 764,-1850 764,-1850 794,-1850 794,-1850 800,-1850 806,-1856 806,-1862 806,-1862 806,-1874 806,-1874 806,-1880 800,-1886 794,-1886"/>
<text text-anchor="middle" x="779" y="-1864.3" font-family="Arial" font-size="14.00">开始</text>
</g>
<!-- read_cu_cwd -->
<g id="node2" class="node">
<title>read_cu_cwd</title>
<path fill="none" stroke="black" d="M891,-1813C891,-1813 667,-1813 667,-1813 661,-1813 655,-1807 655,-1801 655,-1801 655,-1789 655,-1789 655,-1783 661,-1777 667,-1777 667,-1777 891,-1777 891,-1777 897,-1777 903,-1783 903,-1789 903,-1789 903,-1801 903,-1801 903,-1807 897,-1813 891,-1813"/>
<text text-anchor="middle" x="779" y="-1791.3" font-family="Arial" font-size="14.00">读取编译单元目录(compile_unit_cwd)</text>
</g>
<!-- start&#45;&gt;read_cu_cwd -->
<g id="edge1" class="edge">
<title>start&#45;&gt;read_cu_cwd</title>
<path fill="none" stroke="black" d="M779,-1849.81C779,-1841.79 779,-1832.05 779,-1823.07"/>
<polygon fill="black" stroke="black" points="782.5,-1823.03 779,-1813.03 775.5,-1823.03 782.5,-1823.03"/>
</g>
<!-- read_line_info_offset -->
<g id="node3" class="node">
<title>read_line_info_offset</title>
<path fill="none" stroke="black" d="M875,-1740C875,-1740 683,-1740 683,-1740 677,-1740 671,-1734 671,-1728 671,-1728 671,-1716 671,-1716 671,-1710 677,-1704 683,-1704 683,-1704 875,-1704 875,-1704 881,-1704 887,-1710 887,-1716 887,-1716 887,-1728 887,-1728 887,-1734 881,-1740 875,-1740"/>
<text text-anchor="middle" x="779" y="-1718.3" font-family="Arial" font-size="14.00">读取行信息偏移(line_info_offset)</text>
</g>
<!-- read_cu_cwd&#45;&gt;read_line_info_offset -->
<g id="edge2" class="edge">
<title>read_cu_cwd&#45;&gt;read_line_info_offset</title>
<path fill="none" stroke="black" d="M779,-1776.81C779,-1768.79 779,-1759.05 779,-1750.07"/>
<polygon fill="black" stroke="black" points="782.5,-1750.03 779,-1740.03 775.5,-1750.03 782.5,-1750.03"/>
</g>
<!-- init_fbr -->
<g id="node4" class="node">
<title>init_fbr</title>
<path fill="none" stroke="black" d="M853.5,-1667C853.5,-1667 704.5,-1667 704.5,-1667 698.5,-1667 692.5,-1661 692.5,-1655 692.5,-1655 692.5,-1643 692.5,-1643 692.5,-1637 698.5,-1631 704.5,-1631 704.5,-1631 853.5,-1631 853.5,-1631 859.5,-1631 865.5,-1637 865.5,-1643 865.5,-1643 865.5,-1655 865.5,-1655 865.5,-1661 859.5,-1667 853.5,-1667"/>
<text text-anchor="middle" x="779" y="-1645.3" font-family="Arial" font-size="14.00">初始化FixedBufferReader</text>
</g>
<!-- read_line_info_offset&#45;&gt;init_fbr -->
<g id="edge3" class="edge">
<title>read_line_info_offset&#45;&gt;init_fbr</title>
<path fill="none" stroke="black" d="M779,-1703.81C779,-1695.79 779,-1686.05 779,-1677.07"/>
<polygon fill="black" stroke="black" points="782.5,-1677.03 779,-1667.03 775.5,-1677.03 782.5,-1677.03"/>
</g>
<!-- read_unit_header -->
<g id="node5" class="node">
<title>read_unit_header</title>
<path fill="none" stroke="black" d="M851,-1594C851,-1594 707,-1594 707,-1594 701,-1594 695,-1588 695,-1582 695,-1582 695,-1570 695,-1570 695,-1564 701,-1558 707,-1558 707,-1558 851,-1558 851,-1558 857,-1558 863,-1564 863,-1570 863,-1570 863,-1582 863,-1582 863,-1588 857,-1594 851,-1594"/>
<text text-anchor="middle" x="779" y="-1572.3" font-family="Arial" font-size="14.00">读取单元头(unit_header)</text>
</g>
<!-- init_fbr&#45;&gt;read_unit_header -->
<g id="edge4" class="edge">
<title>init_fbr&#45;&gt;read_unit_header</title>
<path fill="none" stroke="black" d="M779,-1630.81C779,-1622.79 779,-1613.05 779,-1604.07"/>
<polygon fill="black" stroke="black" points="782.5,-1604.03 779,-1594.03 775.5,-1604.03 782.5,-1604.03"/>
</g>
<!-- check_unit_length -->
<g id="node6" class="node">
<title>check_unit_length</title>
<path fill="none" stroke="black" d="M879,-1521C879,-1521 679,-1521 679,-1521 673,-1521 667,-1515 667,-1509 667,-1509 667,-1497 667,-1497 667,-1491 673,-1485 679,-1485 679,-1485 879,-1485 879,-1485 885,-1485 891,-1491 891,-1497 891,-1497 891,-1509 891,-1509 891,-1515 885,-1521 879,-1521"/>
<text text-anchor="middle" x="779" y="-1499.3" font-family="Arial" font-size="14.00">检查unit_header.unit_length == 0?</text>
</g>
<!-- read_unit_header&#45;&gt;check_unit_length -->
<g id="edge5" class="edge">
<title>read_unit_header&#45;&gt;check_unit_length</title>
<path fill="none" stroke="black" d="M779,-1557.81C779,-1549.79 779,-1540.05 779,-1531.07"/>
<polygon fill="black" stroke="black" points="782.5,-1531.03 779,-1521.03 775.5,-1531.03 782.5,-1531.03"/>
</g>
<!-- read_version -->
<g id="node7" class="node">
<title>read_version</title>
<path fill="none" stroke="black" d="M760,-1434C760,-1434 644,-1434 644,-1434 638,-1434 632,-1428 632,-1422 632,-1422 632,-1410 632,-1410 632,-1404 638,-1398 644,-1398 644,-1398 760,-1398 760,-1398 766,-1398 772,-1404 772,-1410 772,-1410 772,-1422 772,-1422 772,-1428 766,-1434 760,-1434"/>
<text text-anchor="middle" x="702" y="-1412.3" font-family="Arial" font-size="14.00">读取版本号(version)</text>
</g>
<!-- check_unit_length&#45;&gt;read_version -->
<g id="edge7" class="edge">
<title>check_unit_length&#45;&gt;read_version</title>
<path fill="none" stroke="black" d="M763.42,-1484.8C752.25,-1472.47 737.04,-1455.68 724.55,-1441.89"/>
<polygon fill="black" stroke="black" points="726.87,-1439.24 717.56,-1434.18 721.68,-1443.94 726.87,-1439.24"/>
<text text-anchor="middle" x="753.5" y="-1455.8" font-family="Arial" font-size="14.00">否</text>
</g>
<!-- error_missing -->
<g id="node33" class="node">
<title>error_missing</title>
<ellipse fill="none" stroke="red" cx="856" cy="-1416" rx="65.79" ry="18"/>
<text text-anchor="middle" x="856" y="-1412.3" font-family="Arial" font-size="14.00">返回missing()</text>
</g>
<!-- check_unit_length&#45;&gt;error_missing -->
<g id="edge6" class="edge">
<title>check_unit_length&#45;&gt;error_missing</title>
<path fill="none" stroke="black" d="M794.58,-1484.8C805.9,-1472.31 821.36,-1455.24 833.94,-1441.35"/>
<polygon fill="black" stroke="black" points="836.85,-1443.36 840.97,-1433.6 831.66,-1438.66 836.85,-1443.36"/>
<text text-anchor="middle" x="830.5" y="-1455.8" font-family="Arial" font-size="14.00">是</text>
</g>
<!-- check_version_lt2 -->
<g id="node8" class="node">
<title>check_version_lt2</title>
<path fill="none" stroke="black" d="M735.5,-1361C735.5,-1361 668.5,-1361 668.5,-1361 662.5,-1361 656.5,-1355 656.5,-1349 656.5,-1349 656.5,-1337 656.5,-1337 656.5,-1331 662.5,-1325 668.5,-1325 668.5,-1325 735.5,-1325 735.5,-1325 741.5,-1325 747.5,-1331 747.5,-1337 747.5,-1337 747.5,-1349 747.5,-1349 747.5,-1355 741.5,-1361 735.5,-1361"/>
<text text-anchor="middle" x="702" y="-1339.3" font-family="Arial" font-size="14.00">version &lt; 2?</text>
</g>
<!-- read_version&#45;&gt;check_version_lt2 -->
<g id="edge8" class="edge">
<title>read_version&#45;&gt;check_version_lt2</title>
<path fill="none" stroke="black" d="M702,-1397.81C702,-1389.79 702,-1380.05 702,-1371.07"/>
<polygon fill="black" stroke="black" points="705.5,-1371.03 702,-1361.03 698.5,-1371.03 705.5,-1371.03"/>
</g>
<!-- handle_addr_seg_size -->
<g id="node9" class="node">
<title>handle_addr_seg_size</title>
<path fill="none" stroke="black" d="M740.5,-1274C740.5,-1274 505.5,-1274 505.5,-1274 499.5,-1274 493.5,-1268 493.5,-1262 493.5,-1262 493.5,-1250 493.5,-1250 493.5,-1244 499.5,-1238 505.5,-1238 505.5,-1238 740.5,-1238 740.5,-1238 746.5,-1238 752.5,-1244 752.5,-1250 752.5,-1250 752.5,-1262 752.5,-1262 752.5,-1268 746.5,-1274 740.5,-1274"/>
<text text-anchor="middle" x="623" y="-1252.3" font-family="Arial" font-size="14.00">处理地址和段大小(addr_size, seg_size)</text>
</g>
<!-- check_version_lt2&#45;&gt;handle_addr_seg_size -->
<g id="edge10" class="edge">
<title>check_version_lt2&#45;&gt;handle_addr_seg_size</title>
<path fill="none" stroke="black" d="M686.01,-1324.8C674.45,-1312.36 658.66,-1295.36 645.77,-1281.5"/>
<polygon fill="black" stroke="black" points="648.33,-1279.12 638.96,-1274.18 643.21,-1283.88 648.33,-1279.12"/>
<text text-anchor="middle" x="675.5" y="-1295.8" font-family="Arial" font-size="14.00">否</text>
</g>
<!-- error_bad -->
<g id="node32" class="node">
<title>error_bad</title>
<ellipse fill="none" stroke="red" cx="760" cy="-717" rx="50.09" ry="18"/>
<text text-anchor="middle" x="760" y="-713.3" font-family="Arial" font-size="14.00">返回bad()</text>
</g>
<!-- check_version_lt2&#45;&gt;error_bad -->
<g id="edge9" class="edge">
<title>check_version_lt2&#45;&gt;error_bad</title>
<path fill="none" stroke="black" d="M733.22,-1324.7C755.3,-1309.92 781,-1286.41 781,-1257 781,-1257 781,-1257 781,-803 781,-782.99 775.44,-761.07 770.05,-744.51"/>
<polygon fill="black" stroke="black" points="773.32,-743.27 766.76,-734.95 766.7,-745.55 773.32,-743.27"/>
<text text-anchor="middle" x="788.5" y="-1033.3" font-family="Arial" font-size="14.00">是</text>
</g>
<!-- read_prologue -->
<g id="node10" class="node">
<title>read_prologue</title>
<path fill="none" stroke="black" d="M739.5,-1201C739.5,-1201 506.5,-1201 506.5,-1201 500.5,-1201 494.5,-1195 494.5,-1189 494.5,-1189 494.5,-1177 494.5,-1177 494.5,-1171 500.5,-1165 506.5,-1165 506.5,-1165 739.5,-1165 739.5,-1165 745.5,-1165 751.5,-1171 751.5,-1177 751.5,-1177 751.5,-1189 751.5,-1189 751.5,-1195 745.5,-1201 739.5,-1201"/>
<text text-anchor="middle" x="623" y="-1179.3" font-family="Arial" font-size="14.00">读取prologue_length和prog_start_offset</text>
</g>
<!-- handle_addr_seg_size&#45;&gt;read_prologue -->
<g id="edge11" class="edge">
<title>handle_addr_seg_size&#45;&gt;read_prologue</title>
<path fill="none" stroke="black" d="M623,-1237.81C623,-1229.79 623,-1220.05 623,-1211.07"/>
<polygon fill="black" stroke="black" points="626.5,-1211.03 623,-1201.03 619.5,-1211.03 626.5,-1211.03"/>
</g>
<!-- read_min_instr_len -->
<g id="node11" class="node">
<title>read_min_instr_len</title>
<path fill="none" stroke="black" d="M718.5,-1128C718.5,-1128 527.5,-1128 527.5,-1128 521.5,-1128 515.5,-1122 515.5,-1116 515.5,-1116 515.5,-1104 515.5,-1104 515.5,-1098 521.5,-1092 527.5,-1092 527.5,-1092 718.5,-1092 718.5,-1092 724.5,-1092 730.5,-1098 730.5,-1104 730.5,-1104 730.5,-1116 730.5,-1116 730.5,-1122 724.5,-1128 718.5,-1128"/>
<text text-anchor="middle" x="623" y="-1106.3" font-family="Arial" font-size="14.00">读取minimum_instruction_length</text>
</g>
<!-- read_prologue&#45;&gt;read_min_instr_len -->
<g id="edge12" class="edge">
<title>read_prologue&#45;&gt;read_min_instr_len</title>
<path fill="none" stroke="black" d="M623,-1164.81C623,-1156.79 623,-1147.05 623,-1138.07"/>
<polygon fill="black" stroke="black" points="626.5,-1138.03 623,-1128.03 619.5,-1138.03 626.5,-1138.03"/>
</g>
<!-- check_min_instr_zero -->
<g id="node12" class="node">
<title>check_min_instr_zero</title>
<path fill="none" stroke="black" d="M724,-1055C724,-1055 522,-1055 522,-1055 516,-1055 510,-1049 510,-1043 510,-1043 510,-1031 510,-1031 510,-1025 516,-1019 522,-1019 522,-1019 724,-1019 724,-1019 730,-1019 736,-1025 736,-1031 736,-1031 736,-1043 736,-1043 736,-1049 730,-1055 724,-1055"/>
<text text-anchor="middle" x="623" y="-1033.3" font-family="Arial" font-size="14.00">minimum_instruction_length == 0?</text>
</g>
<!-- read_min_instr_len&#45;&gt;check_min_instr_zero -->
<g id="edge13" class="edge">
<title>read_min_instr_len&#45;&gt;check_min_instr_zero</title>
<path fill="none" stroke="black" d="M623,-1091.81C623,-1083.79 623,-1074.05 623,-1065.07"/>
<polygon fill="black" stroke="black" points="626.5,-1065.03 623,-1055.03 619.5,-1065.03 626.5,-1065.03"/>
</g>
<!-- read_max_ops -->
<g id="node13" class="node">
<title>read_max_ops</title>
<path fill="none" stroke="black" d="M691.5,-968C691.5,-968 478.5,-968 478.5,-968 472.5,-968 466.5,-962 466.5,-956 466.5,-956 466.5,-944 466.5,-944 466.5,-938 472.5,-932 478.5,-932 478.5,-932 691.5,-932 691.5,-932 697.5,-932 703.5,-938 703.5,-944 703.5,-944 703.5,-956 703.5,-956 703.5,-962 697.5,-968 691.5,-968"/>
<text text-anchor="middle" x="585" y="-946.3" font-family="Arial" font-size="14.00">version ≥4时读取max_ops_per_instr</text>
</g>
<!-- check_min_instr_zero&#45;&gt;read_max_ops -->
<g id="edge15" class="edge">
<title>check_min_instr_zero&#45;&gt;read_max_ops</title>
<path fill="none" stroke="black" d="M615.31,-1018.8C610,-1006.93 602.85,-990.93 596.82,-977.45"/>
<polygon fill="black" stroke="black" points="599.96,-975.88 592.68,-968.18 593.56,-978.73 599.96,-975.88"/>
<text text-anchor="middle" x="614.5" y="-989.8" font-family="Arial" font-size="14.00">否</text>
</g>
<!-- check_min_instr_zero&#45;&gt;error_bad -->
<g id="edge14" class="edge">
<title>check_min_instr_zero&#45;&gt;error_bad</title>
<path fill="none" stroke="black" d="M677.13,-1018.86C706.96,-1005.67 738,-984.02 738,-951 738,-951 738,-951 738,-803 738,-782.93 743.82,-761.02 749.47,-744.47"/>
<polygon fill="black" stroke="black" points="752.82,-745.52 752.92,-734.92 746.23,-743.14 752.82,-745.52"/>
<text text-anchor="middle" x="745.5" y="-873.3" font-family="Arial" font-size="14.00">是</text>
</g>
<!-- read_defaults -->
<g id="node14" class="node">
<title>read_defaults</title>
<path fill="none" stroke="black" d="M690,-895C690,-895 442,-895 442,-895 436,-895 430,-889 430,-883 430,-883 430,-871 430,-871 430,-865 436,-859 442,-859 442,-859 690,-859 690,-859 696,-859 702,-865 702,-871 702,-871 702,-883 702,-883 702,-889 696,-895 690,-895"/>
<text text-anchor="middle" x="566" y="-873.3" font-family="Arial" font-size="14.00">读取default_is_stmt, line_base, line_range</text>
</g>
<!-- read_max_ops&#45;&gt;read_defaults -->
<g id="edge16" class="edge">
<title>read_max_ops&#45;&gt;read_defaults</title>
<path fill="none" stroke="black" d="M580.4,-931.81C578.23,-923.7 575.59,-913.84 573.17,-904.78"/>
<polygon fill="black" stroke="black" points="576.52,-903.78 570.56,-895.03 569.76,-905.59 576.52,-903.78"/>
</g>
<!-- check_line_range_zero -->
<g id="node15" class="node">
<title>check_line_range_zero</title>
<path fill="none" stroke="black" d="M613.5,-822C613.5,-822 518.5,-822 518.5,-822 512.5,-822 506.5,-816 506.5,-810 506.5,-810 506.5,-798 506.5,-798 506.5,-792 512.5,-786 518.5,-786 518.5,-786 613.5,-786 613.5,-786 619.5,-786 625.5,-792 625.5,-798 625.5,-798 625.5,-810 625.5,-810 625.5,-816 619.5,-822 613.5,-822"/>
<text text-anchor="middle" x="566" y="-800.3" font-family="Arial" font-size="14.00">line_range == 0?</text>
</g>
<!-- read_defaults&#45;&gt;check_line_range_zero -->
<g id="edge17" class="edge">
<title>read_defaults&#45;&gt;check_line_range_zero</title>
<path fill="none" stroke="black" d="M566,-858.81C566,-850.79 566,-841.05 566,-832.07"/>
<polygon fill="black" stroke="black" points="569.5,-832.03 566,-822.03 562.5,-832.03 569.5,-832.03"/>
</g>
<!-- read_opcode_base -->
<g id="node16" class="node">
<title>read_opcode_base</title>
<path fill="none" stroke="black" d="M680,-735C680,-735 408,-735 408,-735 402,-735 396,-729 396,-723 396,-723 396,-711 396,-711 396,-705 402,-699 408,-699 408,-699 680,-699 680,-699 686,-699 692,-705 692,-711 692,-711 692,-723 692,-723 692,-729 686,-735 680,-735"/>
<text text-anchor="middle" x="544" y="-713.3" font-family="Arial" font-size="14.00">读取opcode_base和standard_opcode_lengths</text>
</g>
<!-- check_line_range_zero&#45;&gt;read_opcode_base -->
<g id="edge19" class="edge">
<title>check_line_range_zero&#45;&gt;read_opcode_base</title>
<path fill="none" stroke="black" d="M561.55,-785.8C558.54,-774.16 554.49,-758.55 551.05,-745.24"/>
<polygon fill="black" stroke="black" points="554.34,-743.98 548.45,-735.18 547.56,-745.73 554.34,-743.98"/>
<text text-anchor="middle" x="564.5" y="-756.8" font-family="Arial" font-size="14.00">否</text>
</g>
<!-- check_line_range_zero&#45;&gt;error_bad -->
<g id="edge18" class="edge">
<title>check_line_range_zero&#45;&gt;error_bad</title>
<path fill="none" stroke="black" d="M605.26,-785.8C638.61,-771.18 686.29,-750.3 719.89,-735.58"/>
<polygon fill="black" stroke="black" points="721.64,-738.63 729.4,-731.41 718.83,-732.22 721.64,-738.63"/>
<text text-anchor="middle" x="682.5" y="-756.8" font-family="Arial" font-size="14.00">是</text>
</g>
<!-- handle_directories_files -->
<g id="node17" class="node">
<title>handle_directories_files</title>
<path fill="none" stroke="black" d="M604.5,-662C604.5,-662 483.5,-662 483.5,-662 477.5,-662 471.5,-656 471.5,-650 471.5,-650 471.5,-638 471.5,-638 471.5,-632 477.5,-626 483.5,-626 483.5,-626 604.5,-626 604.5,-626 610.5,-626 616.5,-632 616.5,-638 616.5,-638 616.5,-650 616.5,-650 616.5,-656 610.5,-662 604.5,-662"/>
<text text-anchor="middle" x="544" y="-640.3" font-family="Arial" font-size="14.00">处理目录和文件条目</text>
</g>
<!-- read_opcode_base&#45;&gt;handle_directories_files -->
<g id="edge20" class="edge">
<title>read_opcode_base&#45;&gt;handle_directories_files</title>
<path fill="none" stroke="black" d="M544,-698.81C544,-690.79 544,-681.05 544,-672.07"/>
<polygon fill="black" stroke="black" points="547.5,-672.03 544,-662.03 540.5,-672.03 547.5,-672.03"/>
</g>
<!-- version_lt5 -->
<g id="node18" class="node">
<title>version_lt5</title>
<path fill="none" stroke="black" d="M577.5,-589C577.5,-589 510.5,-589 510.5,-589 504.5,-589 498.5,-583 498.5,-577 498.5,-577 498.5,-565 498.5,-565 498.5,-559 504.5,-553 510.5,-553 510.5,-553 577.5,-553 577.5,-553 583.5,-553 589.5,-559 589.5,-565 589.5,-565 589.5,-577 589.5,-577 589.5,-583 583.5,-589 577.5,-589"/>
<text text-anchor="middle" x="544" y="-567.3" font-family="Arial" font-size="14.00">version &lt; 5?</text>
</g>
<!-- handle_directories_files&#45;&gt;version_lt5 -->
<g id="edge21" class="edge">
<title>handle_directories_files&#45;&gt;version_lt5</title>
<path fill="none" stroke="black" d="M544,-625.81C544,-617.79 544,-608.05 544,-599.07"/>
<polygon fill="black" stroke="black" points="547.5,-599.03 544,-589.03 540.5,-599.03 547.5,-599.03"/>
</g>
<!-- read_legacy_dirs -->
<g id="node19" class="node">
<title>read_legacy_dirs</title>
<path fill="none" stroke="black" d="M514.5,-502C514.5,-502 407.5,-502 407.5,-502 401.5,-502 395.5,-496 395.5,-490 395.5,-490 395.5,-478 395.5,-478 395.5,-472 401.5,-466 407.5,-466 407.5,-466 514.5,-466 514.5,-466 520.5,-466 526.5,-472 526.5,-478 526.5,-478 526.5,-490 526.5,-490 526.5,-496 520.5,-502 514.5,-502"/>
<text text-anchor="middle" x="461" y="-480.3" font-family="Arial" font-size="14.00">循环读取旧版目录</text>
</g>
<!-- version_lt5&#45;&gt;read_legacy_dirs -->
<g id="edge22" class="edge">
<title>version_lt5&#45;&gt;read_legacy_dirs</title>
<path fill="none" stroke="black" d="M527.2,-552.8C515.05,-540.36 498.46,-523.36 484.93,-509.5"/>
<polygon fill="black" stroke="black" points="487.26,-506.88 477.77,-502.18 482.25,-511.78 487.26,-506.88"/>
<text text-anchor="middle" x="515.5" y="-523.8" font-family="Arial" font-size="14.00">是</text>
</g>
<!-- read_v5_dirs -->
<g id="node21" class="node">
<title>read_v5_dirs</title>
<path fill="none" stroke="black" d="M699,-502C699,-502 557,-502 557,-502 551,-502 545,-496 545,-490 545,-490 545,-478 545,-478 545,-472 551,-466 557,-466 557,-466 699,-466 699,-466 705,-466 711,-472 711,-478 711,-478 711,-490 711,-490 711,-496 705,-502 699,-502"/>
<text text-anchor="middle" x="628" y="-480.3" font-family="Arial" font-size="14.00">解析DWARFv5目录格式</text>
</g>
<!-- version_lt5&#45;&gt;read_v5_dirs -->
<g id="edge23" class="edge">
<title>version_lt5&#45;&gt;read_v5_dirs</title>
<path fill="none" stroke="black" d="M561,-552.8C573.3,-540.36 590.09,-523.36 603.78,-509.5"/>
<polygon fill="black" stroke="black" points="606.49,-511.75 611.03,-502.18 601.51,-506.83 606.49,-511.75"/>
<text text-anchor="middle" x="599.5" y="-523.8" font-family="Arial" font-size="14.00">否</text>
</g>
<!-- read_legacy_files -->
<g id="node20" class="node">
<title>read_legacy_files</title>
<path fill="none" stroke="black" d="M514.5,-429C514.5,-429 407.5,-429 407.5,-429 401.5,-429 395.5,-423 395.5,-417 395.5,-417 395.5,-405 395.5,-405 395.5,-399 401.5,-393 407.5,-393 407.5,-393 514.5,-393 514.5,-393 520.5,-393 526.5,-399 526.5,-405 526.5,-405 526.5,-417 526.5,-417 526.5,-423 520.5,-429 514.5,-429"/>
<text text-anchor="middle" x="461" y="-407.3" font-family="Arial" font-size="14.00">循环读取旧版文件</text>
</g>
<!-- read_legacy_dirs&#45;&gt;read_legacy_files -->
<g id="edge24" class="edge">
<title>read_legacy_dirs&#45;&gt;read_legacy_files</title>
<path fill="none" stroke="black" d="M461,-465.81C461,-457.79 461,-448.05 461,-439.07"/>
<polygon fill="black" stroke="black" points="464.5,-439.03 461,-429.03 457.5,-439.03 464.5,-439.03"/>
</g>
<!-- init_prog -->
<g id="node23" class="node">
<title>init_prog</title>
<path fill="none" stroke="black" d="M661,-356C661,-356 427,-356 427,-356 421,-356 415,-350 415,-344 415,-344 415,-332 415,-332 415,-326 421,-320 427,-320 427,-320 661,-320 661,-320 667,-320 673,-326 673,-332 673,-332 673,-344 673,-344 673,-350 667,-356 661,-356"/>
<text text-anchor="middle" x="544" y="-334.3" font-family="Arial" font-size="14.00">初始化LineNumberProgram和line_table</text>
</g>
<!-- read_legacy_files&#45;&gt;init_prog -->
<g id="edge26" class="edge">
<title>read_legacy_files&#45;&gt;init_prog</title>
<path fill="none" stroke="black" d="M481.09,-392.81C491.69,-383.74 504.87,-372.48 516.41,-362.6"/>
<polygon fill="black" stroke="black" points="518.77,-365.19 524.09,-356.03 514.22,-359.87 518.77,-365.19"/>
</g>
<!-- read_v5_files -->
<g id="node22" class="node">
<title>read_v5_files</title>
<path fill="none" stroke="black" d="M699,-429C699,-429 557,-429 557,-429 551,-429 545,-423 545,-417 545,-417 545,-405 545,-405 545,-399 551,-393 557,-393 557,-393 699,-393 699,-393 705,-393 711,-399 711,-405 711,-405 711,-417 711,-417 711,-423 705,-429 699,-429"/>
<text text-anchor="middle" x="628" y="-407.3" font-family="Arial" font-size="14.00">解析DWARFv5文件格式</text>
</g>
<!-- read_v5_dirs&#45;&gt;read_v5_files -->
<g id="edge25" class="edge">
<title>read_v5_dirs&#45;&gt;read_v5_files</title>
<path fill="none" stroke="black" d="M628,-465.81C628,-457.79 628,-448.05 628,-439.07"/>
<polygon fill="black" stroke="black" points="631.5,-439.03 628,-429.03 624.5,-439.03 631.5,-439.03"/>
</g>
<!-- read_v5_files&#45;&gt;init_prog -->
<g id="edge27" class="edge">
<title>read_v5_files&#45;&gt;init_prog</title>
<path fill="none" stroke="black" d="M607.67,-392.81C596.94,-383.74 583.61,-372.48 571.92,-362.6"/>
<polygon fill="black" stroke="black" points="574.04,-359.81 564.15,-356.03 569.52,-365.16 574.04,-359.81"/>
</g>
<!-- seek_prog_start -->
<g id="node24" class="node">
<title>seek_prog_start</title>
<path fill="none" stroke="black" d="M612.5,-283C612.5,-283 475.5,-283 475.5,-283 469.5,-283 463.5,-277 463.5,-271 463.5,-271 463.5,-259 463.5,-259 463.5,-253 469.5,-247 475.5,-247 475.5,-247 612.5,-247 612.5,-247 618.5,-247 624.5,-253 624.5,-259 624.5,-259 624.5,-271 624.5,-271 624.5,-277 618.5,-283 612.5,-283"/>
<text text-anchor="middle" x="544" y="-261.3" font-family="Arial" font-size="14.00">定位到prog_start_offset</text>
</g>
<!-- init_prog&#45;&gt;seek_prog_start -->
<g id="edge28" class="edge">
<title>init_prog&#45;&gt;seek_prog_start</title>
<path fill="none" stroke="black" d="M544,-319.81C544,-311.79 544,-302.05 544,-293.07"/>
<polygon fill="black" stroke="black" points="547.5,-293.03 544,-283.03 540.5,-293.03 547.5,-293.03"/>
</g>
<!-- process_opcodes -->
<g id="node25" class="node">
<title>process_opcodes</title>
<path fill="none" stroke="black" d="M590,-210C590,-210 498,-210 498,-210 492,-210 486,-204 486,-198 486,-198 486,-186 486,-186 486,-180 492,-174 498,-174 498,-174 590,-174 590,-174 596,-174 602,-180 602,-186 602,-186 602,-198 602,-198 602,-204 596,-210 590,-210"/>
<text text-anchor="middle" x="544" y="-188.3" font-family="Arial" font-size="14.00">循环处理操作码</text>
</g>
<!-- seek_prog_start&#45;&gt;process_opcodes -->
<g id="edge29" class="edge">
<title>seek_prog_start&#45;&gt;process_opcodes</title>
<path fill="none" stroke="black" d="M544,-246.81C544,-238.79 544,-229.05 544,-220.07"/>
<polygon fill="black" stroke="black" points="547.5,-220.03 544,-210.03 540.5,-220.03 547.5,-220.03"/>
</g>
<!-- opcode_type -->
<g id="node26" class="node">
<title>opcode_type</title>
<path fill="none" stroke="black" d="M316,-123C316,-123 224,-123 224,-123 218,-123 212,-117 212,-111 212,-111 212,-99 212,-99 212,-93 218,-87 224,-87 224,-87 316,-87 316,-87 322,-87 328,-93 328,-99 328,-99 328,-111 328,-111 328,-117 322,-123 316,-123"/>
<text text-anchor="middle" x="270" y="-101.3" font-family="Arial" font-size="14.00">操作码类型判断</text>
</g>
<!-- process_opcodes&#45;&gt;opcode_type -->
<g id="edge30" class="edge">
<title>process_opcodes&#45;&gt;opcode_type</title>
<path fill="none" stroke="black" d="M488.88,-173.9C444.38,-160.1 381.68,-140.65 334.79,-126.1"/>
<polygon fill="black" stroke="black" points="335.62,-122.69 325.03,-123.07 333.54,-129.38 335.62,-122.69"/>
</g>
<!-- sort_line_table -->
<g id="node30" class="node">
<title>sort_line_table</title>
<path fill="none" stroke="black" d="M715.5,-123C715.5,-123 622.5,-123 622.5,-123 616.5,-123 610.5,-117 610.5,-111 610.5,-111 610.5,-99 610.5,-99 610.5,-93 616.5,-87 622.5,-87 622.5,-87 715.5,-87 715.5,-87 721.5,-87 727.5,-93 727.5,-99 727.5,-99 727.5,-111 727.5,-111 727.5,-117 721.5,-123 715.5,-123"/>
<text text-anchor="middle" x="669" y="-101.3" font-family="Arial" font-size="14.00">对line_table排序</text>
</g>
<!-- process_opcodes&#45;&gt;sort_line_table -->
<g id="edge37" class="edge">
<title>process_opcodes&#45;&gt;sort_line_table</title>
<path fill="none" stroke="black" d="M569.42,-173.95C577.88,-168.26 587.36,-161.87 596,-156 609.01,-147.17 623.29,-137.4 635.74,-128.86"/>
<polygon fill="black" stroke="black" points="637.77,-131.72 644.03,-123.17 633.81,-125.95 637.77,-131.72"/>
<text text-anchor="middle" x="646" y="-144.8" font-family="Arial" font-size="14.00">循环结束</text>
</g>
<!-- handle_extended_op -->
<g id="node27" class="node">
<title>handle_extended_op</title>
<path fill="none" stroke="black" d="M601,-36C601,-36 473,-36 473,-36 467,-36 461,-30 461,-24 461,-24 461,-12 461,-12 461,-6 467,0 473,0 473,0 601,0 601,0 607,0 613,-6 613,-12 613,-12 613,-24 613,-24 613,-30 607,-36 601,-36"/>
<text text-anchor="middle" x="537" y="-14.3" font-family="Arial" font-size="14.00">处理扩展操作码(LNE)</text>
</g>
<!-- opcode_type&#45;&gt;handle_extended_op -->
<g id="edge31" class="edge">
<title>opcode_type&#45;&gt;handle_extended_op</title>
<path fill="none" stroke="black" d="M307.04,-86.92C330.71,-76.46 362.24,-63.32 391,-54 410.2,-47.78 431.13,-42.11 451.01,-37.25"/>
<polygon fill="black" stroke="black" points="452.07,-40.59 460.97,-34.85 450.43,-33.78 452.07,-40.59"/>
<text text-anchor="middle" x="479.5" y="-57.8" font-family="Arial" font-size="14.00">opcode == LNS.extended_op</text>
</g>
<!-- handle_special_op -->
<g id="node28" class="node">
<title>handle_special_op</title>
<path fill="none" stroke="black" d="M429,-36C429,-36 187,-36 187,-36 181,-36 175,-30 175,-24 175,-24 175,-12 175,-12 175,-6 181,0 187,0 187,0 429,0 429,0 435,0 441,-6 441,-12 441,-12 441,-24 441,-24 441,-30 435,-36 429,-36"/>
<text text-anchor="middle" x="308" y="-14.3" font-family="Arial" font-size="14.00">处理特殊操作码(opcode ≥ opcode_base)</text>
</g>
<!-- opcode_type&#45;&gt;handle_special_op -->
<g id="edge32" class="edge">
<title>opcode_type&#45;&gt;handle_special_op</title>
<path fill="none" stroke="black" d="M211.94,-88.62C192.28,-80.45 177.81,-68.95 189,-54 192.43,-49.42 196.42,-45.41 200.84,-41.91"/>
<polygon fill="black" stroke="black" points="202.96,-44.7 209.19,-36.14 198.98,-38.94 202.96,-44.7"/>
<text text-anchor="middle" x="259.5" y="-57.8" font-family="Arial" font-size="14.00">opcode ≥ opcode_base</text>
</g>
<!-- handle_standard_op -->
<g id="node29" class="node">
<title>handle_standard_op</title>
<path fill="none" stroke="black" d="M140,-36C140,-36 12,-36 12,-36 6,-36 0,-30 0,-24 0,-24 0,-12 0,-12 0,-6 6,0 12,0 12,0 140,0 140,0 146,0 152,-6 152,-12 152,-12 152,-24 152,-24 152,-30 146,-36 140,-36"/>
<text text-anchor="middle" x="76" y="-14.3" font-family="Arial" font-size="14.00">处理标准操作码(LNS)</text>
</g>
<!-- opcode_type&#45;&gt;handle_standard_op -->
<g id="edge33" class="edge">
<title>opcode_type&#45;&gt;handle_standard_op</title>
<path fill="none" stroke="black" d="M211.72,-97.79C183.79,-92.93 150.68,-84.3 124,-69 113.02,-62.7 102.96,-53.14 94.92,-44.06"/>
<polygon fill="black" stroke="black" points="97.51,-41.7 88.39,-36.29 92.15,-46.2 97.51,-41.7"/>
<text text-anchor="middle" x="153" y="-57.8" font-family="Arial" font-size="14.00">其他情况</text>
</g>
<!-- handle_extended_op&#45;&gt;process_opcodes -->
<g id="edge34" class="edge">
<title>handle_extended_op&#45;&gt;process_opcodes</title>
<path fill="none" stroke="black" d="M549.89,-36.31C553.2,-41.7 556.3,-47.85 558,-54 570.1,-97.69 566.57,-111.48 558,-156 557.47,-158.74 556.73,-161.53 555.87,-164.29"/>
<polygon fill="black" stroke="black" points="552.48,-163.35 552.33,-173.95 559.05,-165.76 552.48,-163.35"/>
</g>
<!-- handle_special_op&#45;&gt;process_opcodes -->
<g id="edge35" class="edge">
<title>handle_special_op&#45;&gt;process_opcodes</title>
<path fill="none" stroke="black" d="M436.45,-36.04C483.47,-42.87 526.25,-50.04 530,-54 557.5,-83.04 555.04,-132.62 550.03,-163.5"/>
<polygon fill="black" stroke="black" points="546.54,-163.12 548.2,-173.58 553.43,-164.37 546.54,-163.12"/>
</g>
<!-- handle_standard_op&#45;&gt;process_opcodes -->
<g id="edge36" class="edge">
<title>handle_standard_op&#45;&gt;process_opcodes</title>
<path fill="none" stroke="black" d="M81.61,-36.38C85.68,-46.83 92.05,-59.84 101,-69 136.85,-105.69 154.67,-105.8 203,-123 294.61,-155.6 405.94,-174.1 475.91,-183.33"/>
<polygon fill="black" stroke="black" points="475.55,-186.82 485.92,-184.63 476.45,-179.87 475.55,-186.82"/>
</g>
<!-- return_result -->
<g id="node31" class="node">
<title>return_result</title>
<path fill="none" stroke="black" d="M694,-36C694,-36 644,-36 644,-36 638,-36 632,-30 632,-24 632,-24 632,-12 632,-12 632,-6 638,0 644,0 644,0 694,0 694,0 700,0 706,-6 706,-12 706,-12 706,-24 706,-24 706,-30 700,-36 694,-36"/>
<text text-anchor="middle" x="669" y="-14.3" font-family="Arial" font-size="14.00">返回结果</text>
</g>
<!-- sort_line_table&#45;&gt;return_result -->
<g id="edge38" class="edge">
<title>sort_line_table&#45;&gt;return_result</title>
<path fill="none" stroke="black" d="M669,-86.8C669,-75.16 669,-59.55 669,-46.24"/>
<polygon fill="black" stroke="black" points="672.5,-46.18 669,-36.18 665.5,-46.18 672.5,-46.18"/>
</g>
</g>
</svg>
