<?xml version="1.0" encoding="UTF-8" standalone="no"?>
<!DOCTYPE svg PUBLIC "-//W3C//DTD SVG 1.1//EN"
 "http://www.w3.org/Graphics/SVG/1.1/DTD/svg11.dtd">
<!-- Generated by graphviz version 2.43.0 (0)
 -->
<!-- Title: BoundedEnumMultiset Pages: 1 -->
<svg width="1910pt" height="365pt"
 viewBox="0.00 0.00 1910.14 365.00" xmlns="http://www.w3.org/2000/svg" xmlns:xlink="http://www.w3.org/1999/xlink">
<g id="graph0" class="graph" transform="scale(1 1) rotate(0) translate(4 361)">
<title>BoundedEnumMultiset</title>
<polygon fill="white" stroke="transparent" points="-4,4 -4,-361 1906.14,-361 1906.14,4 -4,4"/>
<g id="clust1" class="cluster">
<title>cluster_init</title>
<polygon fill="none" stroke="black" points="1114.14,-274 1114.14,-349 1228.14,-349 1228.14,-274 1114.14,-274"/>
<text text-anchor="middle" x="1171.14" y="-333.8" font-family="Times,serif" font-size="14.00">初始化方法</text>
</g>
<g id="clust2" class="cluster">
<title>cluster_operations</title>
<polygon fill="none" stroke="black" points="264.14,-79 264.14,-241 918.14,-241 918.14,-79 264.14,-79"/>
<text text-anchor="middle" x="591.14" y="-225.8" font-family="Times,serif" font-size="14.00">操作方法</text>
</g>
<g id="clust3" class="cluster">
<title>cluster_query</title>
<polygon fill="none" stroke="black" points="1391.14,-166 1391.14,-241 1741.14,-241 1741.14,-166 1391.14,-166"/>
<text text-anchor="middle" x="1566.14" y="-225.8" font-family="Times,serif" font-size="14.00">查询方法</text>
</g>
<!-- init -->
<g id="node1" class="node">
<title>init</title>
<path fill="none" stroke="black" d="M1044.64,-210C1044.64,-210 939.64,-210 939.64,-210 933.64,-210 927.64,-204 927.64,-198 927.64,-198 927.64,-186 927.64,-186 927.64,-180 933.64,-174 939.64,-174 939.64,-174 1044.64,-174 1044.64,-174 1050.64,-174 1056.64,-180 1056.64,-186 1056.64,-186 1056.64,-198 1056.64,-198 1056.64,-204 1050.64,-210 1044.64,-210"/>
<text text-anchor="middle" x="992.14" y="-188.3" font-family="Times,serif" font-size="14.00">init(init_counts)</text>
</g>
<!-- initWithCount -->
<g id="node3" class="node">
<title>initWithCount</title>
<path fill="none" stroke="black" d="M1226.64,-210C1226.64,-210 1115.64,-210 1115.64,-210 1109.64,-210 1103.64,-204 1103.64,-198 1103.64,-198 1103.64,-186 1103.64,-186 1103.64,-180 1109.64,-174 1115.64,-174 1115.64,-174 1226.64,-174 1226.64,-174 1232.64,-174 1238.64,-180 1238.64,-186 1238.64,-186 1238.64,-198 1238.64,-198 1238.64,-204 1232.64,-210 1226.64,-210"/>
<text text-anchor="middle" x="1171.14" y="-188.3" font-family="Times,serif" font-size="14.00">initWithCount(c)</text>
</g>
<!-- init&#45;&gt;initWithCount -->
<g id="edge1" class="edge">
<title>init&#45;&gt;initWithCount</title>
<path fill="none" stroke="black" d="M1056.77,-192C1068.66,-192 1081.19,-192 1093.42,-192"/>
<polygon fill="black" stroke="black" points="1093.6,-195.5 1103.6,-192 1093.6,-188.5 1093.6,-195.5"/>
<text text-anchor="middle" x="1080.14" y="-198.8" font-family="Times,serif" font-size="14.00">调用</text>
</g>
<!-- addAssertSafe -->
<g id="node4" class="node">
<title>addAssertSafe</title>
<path fill="none" stroke="black" d="M842.14,-123C842.14,-123 696.14,-123 696.14,-123 690.14,-123 684.14,-117 684.14,-111 684.14,-111 684.14,-99 684.14,-99 684.14,-93 690.14,-87 696.14,-87 696.14,-87 842.14,-87 842.14,-87 848.14,-87 854.14,-93 854.14,-99 854.14,-99 854.14,-111 854.14,-111 854.14,-117 848.14,-123 842.14,-123"/>
<text text-anchor="middle" x="769.14" y="-101.3" font-family="Times,serif" font-size="14.00">addAssertSafe(key, c)</text>
</g>
<!-- init&#45;&gt;addAssertSafe -->
<!-- initEmpty -->
<g id="node2" class="node">
<title>initEmpty</title>
<path fill="none" stroke="black" d="M1208.14,-318C1208.14,-318 1134.14,-318 1134.14,-318 1128.14,-318 1122.14,-312 1122.14,-306 1122.14,-306 1122.14,-294 1122.14,-294 1122.14,-288 1128.14,-282 1134.14,-282 1134.14,-282 1208.14,-282 1208.14,-282 1214.14,-282 1220.14,-288 1220.14,-294 1220.14,-294 1220.14,-306 1220.14,-306 1220.14,-312 1214.14,-318 1208.14,-318"/>
<text text-anchor="middle" x="1171.14" y="-296.3" font-family="Times,serif" font-size="14.00">initEmpty()</text>
</g>
<!-- initEmpty&#45;&gt;initWithCount -->
<g id="edge2" class="edge">
<title>initEmpty&#45;&gt;initWithCount</title>
<path fill="none" stroke="black" d="M1171.14,-281.97C1171.14,-265.38 1171.14,-239.88 1171.14,-220.43"/>
<polygon fill="black" stroke="black" points="1174.64,-220.34 1171.14,-210.34 1167.64,-220.34 1174.64,-220.34"/>
<text text-anchor="middle" x="1185.64" y="-252.8" font-family="Times,serif" font-size="14.00">调用</text>
</g>
<!-- counts -->
<g id="node20" class="node">
<title>counts</title>
<path fill="none" stroke="black" d="M1191.14,-123C1191.14,-123 1151.14,-123 1151.14,-123 1145.14,-123 1139.14,-117 1139.14,-111 1139.14,-111 1139.14,-99 1139.14,-99 1139.14,-93 1145.14,-87 1151.14,-87 1151.14,-87 1191.14,-87 1191.14,-87 1197.14,-87 1203.14,-93 1203.14,-99 1203.14,-99 1203.14,-111 1203.14,-111 1203.14,-117 1197.14,-123 1191.14,-123"/>
<text text-anchor="middle" x="1171.14" y="-101.3" font-family="Times,serif" font-size="14.00">counts</text>
</g>
<!-- initWithCount&#45;&gt;counts -->
<g id="edge4" class="edge">
<title>initWithCount&#45;&gt;counts</title>
<path fill="none" stroke="black" d="M1171.14,-173.8C1171.14,-162.16 1171.14,-146.55 1171.14,-133.24"/>
<polygon fill="black" stroke="black" points="1174.64,-133.18 1171.14,-123.18 1167.64,-133.18 1174.64,-133.18"/>
<text text-anchor="middle" x="1226.64" y="-144.8" font-family="Times,serif" font-size="14.00">创建EnumArray</text>
</g>
<!-- add -->
<g id="node5" class="node">
<title>add</title>
<path fill="none" stroke="black" d="M106.14,-123C106.14,-123 38.14,-123 38.14,-123 32.14,-123 26.14,-117 26.14,-111 26.14,-111 26.14,-99 26.14,-99 26.14,-93 32.14,-87 38.14,-87 38.14,-87 106.14,-87 106.14,-87 112.14,-87 118.14,-93 118.14,-99 118.14,-99 118.14,-111 118.14,-111 118.14,-117 112.14,-123 106.14,-123"/>
<text text-anchor="middle" x="72.14" y="-101.3" font-family="Times,serif" font-size="14.00">add(key, c)</text>
</g>
<!-- std_math_add -->
<g id="node24" class="node">
<title>std_math_add</title>
<ellipse fill="none" stroke="black" cx="72.14" cy="-18" rx="72.29" ry="18"/>
<text text-anchor="middle" x="72.14" y="-14.3" font-family="Times,serif" font-size="14.00">std.math.add</text>
</g>
<!-- add&#45;&gt;std_math_add -->
<g id="edge14" class="edge">
<title>add&#45;&gt;std_math_add</title>
<path fill="none" stroke="black" d="M72.14,-86.8C72.14,-75.16 72.14,-59.55 72.14,-46.24"/>
<polygon fill="black" stroke="black" points="75.64,-46.18 72.14,-36.18 68.64,-46.18 75.64,-46.18"/>
<text text-anchor="middle" x="86.64" y="-57.8" font-family="Times,serif" font-size="14.00">调用</text>
</g>
<!-- remove -->
<g id="node6" class="node">
<title>remove</title>
<path fill="none" stroke="black" d="M243.64,-123C243.64,-123 148.64,-123 148.64,-123 142.64,-123 136.64,-117 136.64,-111 136.64,-111 136.64,-99 136.64,-99 136.64,-93 142.64,-87 148.64,-87 148.64,-87 243.64,-87 243.64,-87 249.64,-87 255.64,-93 255.64,-99 255.64,-99 255.64,-111 255.64,-111 255.64,-117 249.64,-123 243.64,-123"/>
<text text-anchor="middle" x="196.14" y="-101.3" font-family="Times,serif" font-size="14.00">remove(key, c)</text>
</g>
<!-- setCount -->
<g id="node7" class="node">
<title>setCount</title>
<path fill="none" stroke="black" d="M897.64,-210C897.64,-210 790.64,-210 790.64,-210 784.64,-210 778.64,-204 778.64,-198 778.64,-198 778.64,-186 778.64,-186 778.64,-180 784.64,-174 790.64,-174 790.64,-174 897.64,-174 897.64,-174 903.64,-174 909.64,-180 909.64,-186 909.64,-186 909.64,-198 909.64,-198 909.64,-204 903.64,-210 897.64,-210"/>
<text text-anchor="middle" x="844.14" y="-188.3" font-family="Times,serif" font-size="14.00">setCount(key, c)</text>
</g>
<!-- addSetAssertSafe -->
<g id="node8" class="node">
<title>addSetAssertSafe</title>
<path fill="none" stroke="black" d="M748.64,-210C748.64,-210 579.64,-210 579.64,-210 573.64,-210 567.64,-204 567.64,-198 567.64,-198 567.64,-186 567.64,-186 567.64,-180 573.64,-174 579.64,-174 579.64,-174 748.64,-174 748.64,-174 754.64,-174 760.64,-180 760.64,-186 760.64,-186 760.64,-198 760.64,-198 760.64,-204 754.64,-210 748.64,-210"/>
<text text-anchor="middle" x="664.14" y="-188.3" font-family="Times,serif" font-size="14.00">addSetAssertSafe(other)</text>
</g>
<!-- addSetAssertSafe&#45;&gt;addAssertSafe -->
<g id="edge5" class="edge">
<title>addSetAssertSafe&#45;&gt;addAssertSafe</title>
<path fill="none" stroke="black" d="M685.39,-173.8C701.05,-161.13 722.53,-143.73 739.82,-129.74"/>
<polygon fill="black" stroke="black" points="742.36,-132.19 747.93,-123.18 737.95,-126.75 742.36,-132.19"/>
<text text-anchor="middle" x="765.14" y="-144.8" font-family="Times,serif" font-size="14.00">遍历字段调用</text>
</g>
<!-- addSet -->
<g id="node9" class="node">
<title>addSet</title>
<path fill="none" stroke="black" d="M376.14,-210C376.14,-210 284.14,-210 284.14,-210 278.14,-210 272.14,-204 272.14,-198 272.14,-198 272.14,-186 272.14,-186 272.14,-180 278.14,-174 284.14,-174 284.14,-174 376.14,-174 376.14,-174 382.14,-174 388.14,-180 388.14,-186 388.14,-186 388.14,-198 388.14,-198 388.14,-204 382.14,-210 376.14,-210"/>
<text text-anchor="middle" x="330.14" y="-188.3" font-family="Times,serif" font-size="14.00">addSet(other)</text>
</g>
<!-- addSet&#45;&gt;add -->
<g id="edge6" class="edge">
<title>addSet&#45;&gt;add</title>
<path fill="none" stroke="black" d="M271.98,-189.53C209.37,-186.77 115.12,-178.83 88.14,-156 81.42,-150.31 77.49,-141.78 75.21,-133.38"/>
<polygon fill="black" stroke="black" points="78.59,-132.47 73.16,-123.38 71.74,-133.88 78.59,-132.47"/>
<text text-anchor="middle" x="131.14" y="-144.8" font-family="Times,serif" font-size="14.00">遍历字段调用</text>
</g>
<!-- removeSet -->
<g id="node10" class="node">
<title>removeSet</title>
<path fill="none" stroke="black" d="M537.64,-210C537.64,-210 418.64,-210 418.64,-210 412.64,-210 406.64,-204 406.64,-198 406.64,-198 406.64,-186 406.64,-186 406.64,-180 412.64,-174 418.64,-174 418.64,-174 537.64,-174 537.64,-174 543.64,-174 549.64,-180 549.64,-186 549.64,-186 549.64,-198 549.64,-198 549.64,-204 543.64,-210 537.64,-210"/>
<text text-anchor="middle" x="478.14" y="-188.3" font-family="Times,serif" font-size="14.00">removeSet(other)</text>
</g>
<!-- removeSet&#45;&gt;remove -->
<g id="edge7" class="edge">
<title>removeSet&#45;&gt;remove</title>
<path fill="none" stroke="black" d="M423.27,-173.99C414.53,-171.3 405.59,-168.56 397.14,-166 352.65,-152.49 302.54,-137.53 263.48,-125.93"/>
<polygon fill="black" stroke="black" points="264.39,-122.55 253.8,-123.06 262.39,-129.26 264.39,-122.55"/>
<text text-anchor="middle" x="402.14" y="-144.8" font-family="Times,serif" font-size="14.00">遍历字段调用</text>
</g>
<!-- count -->
<g id="node11" class="node">
<title>count</title>
<path fill="none" stroke="black" d="M1720.64,-210C1720.64,-210 1677.64,-210 1677.64,-210 1671.64,-210 1665.64,-204 1665.64,-198 1665.64,-198 1665.64,-186 1665.64,-186 1665.64,-180 1671.64,-174 1677.64,-174 1677.64,-174 1720.64,-174 1720.64,-174 1726.64,-174 1732.64,-180 1732.64,-186 1732.64,-186 1732.64,-198 1732.64,-198 1732.64,-204 1726.64,-210 1720.64,-210"/>
<text text-anchor="middle" x="1699.14" y="-188.3" font-family="Times,serif" font-size="14.00">count()</text>
</g>
<!-- contains -->
<g id="node12" class="node">
<title>contains</title>
<path fill="none" stroke="black" d="M1635.14,-210C1635.14,-210 1547.14,-210 1547.14,-210 1541.14,-210 1535.14,-204 1535.14,-198 1535.14,-198 1535.14,-186 1535.14,-186 1535.14,-180 1541.14,-174 1547.14,-174 1547.14,-174 1635.14,-174 1635.14,-174 1641.14,-174 1647.14,-180 1647.14,-186 1647.14,-186 1647.14,-198 1647.14,-198 1647.14,-204 1641.14,-210 1635.14,-210"/>
<text text-anchor="middle" x="1591.14" y="-188.3" font-family="Times,serif" font-size="14.00">contains(key)</text>
</g>
<!-- getCount -->
<g id="node13" class="node">
<title>getCount</title>
<path fill="none" stroke="black" d="M1505.14,-210C1505.14,-210 1411.14,-210 1411.14,-210 1405.14,-210 1399.14,-204 1399.14,-198 1399.14,-198 1399.14,-186 1399.14,-186 1399.14,-180 1405.14,-174 1411.14,-174 1411.14,-174 1505.14,-174 1505.14,-174 1511.14,-174 1517.14,-180 1517.14,-186 1517.14,-186 1517.14,-198 1517.14,-198 1517.14,-204 1511.14,-210 1505.14,-210"/>
<text text-anchor="middle" x="1458.14" y="-188.3" font-family="Times,serif" font-size="14.00">getCount(key)</text>
</g>
<!-- eql -->
<g id="node14" class="node">
<title>eql</title>
<path fill="none" stroke="black" d="M1623.64,-318C1623.64,-318 1560.64,-318 1560.64,-318 1554.64,-318 1548.64,-312 1548.64,-306 1548.64,-306 1548.64,-294 1548.64,-294 1548.64,-288 1554.64,-282 1560.64,-282 1560.64,-282 1623.64,-282 1623.64,-282 1629.64,-282 1635.64,-288 1635.64,-294 1635.64,-294 1635.64,-306 1635.64,-306 1635.64,-312 1629.64,-318 1623.64,-318"/>
<text text-anchor="middle" x="1592.14" y="-296.3" font-family="Times,serif" font-size="14.00">eql(other)</text>
</g>
<!-- eql&#45;&gt;getCount -->
<g id="edge8" class="edge">
<title>eql&#45;&gt;getCount</title>
<path fill="none" stroke="black" d="M1570.61,-281.97C1548.28,-264.3 1513.19,-236.54 1488.14,-216.73"/>
<polygon fill="black" stroke="black" points="1490.08,-213.8 1480.06,-210.34 1485.74,-219.29 1490.08,-213.8"/>
<text text-anchor="middle" x="1573.14" y="-252.8" font-family="Times,serif" font-size="14.00">遍历比较</text>
</g>
<!-- subsetOf -->
<g id="node15" class="node">
<title>subsetOf</title>
<path fill="none" stroke="black" d="M1355.64,-318C1355.64,-318 1250.64,-318 1250.64,-318 1244.64,-318 1238.64,-312 1238.64,-306 1238.64,-306 1238.64,-294 1238.64,-294 1238.64,-288 1244.64,-282 1250.64,-282 1250.64,-282 1355.64,-282 1355.64,-282 1361.64,-282 1367.64,-288 1367.64,-294 1367.64,-294 1367.64,-306 1367.64,-306 1367.64,-312 1361.64,-318 1355.64,-318"/>
<text text-anchor="middle" x="1303.14" y="-296.3" font-family="Times,serif" font-size="14.00">subsetOf(other)</text>
</g>
<!-- subsetOf&#45;&gt;getCount -->
<g id="edge9" class="edge">
<title>subsetOf&#45;&gt;getCount</title>
<path fill="none" stroke="black" d="M1328.05,-281.97C1354.18,-264.1 1395.43,-235.89 1424.46,-216.04"/>
<polygon fill="black" stroke="black" points="1426.77,-218.7 1433.04,-210.16 1422.81,-212.92 1426.77,-218.7"/>
<text text-anchor="middle" x="1404.14" y="-252.8" font-family="Times,serif" font-size="14.00">遍历比较</text>
</g>
<!-- supersetOf -->
<g id="node16" class="node">
<title>supersetOf</title>
<path fill="none" stroke="black" d="M1518.14,-318C1518.14,-318 1398.14,-318 1398.14,-318 1392.14,-318 1386.14,-312 1386.14,-306 1386.14,-306 1386.14,-294 1386.14,-294 1386.14,-288 1392.14,-282 1398.14,-282 1398.14,-282 1518.14,-282 1518.14,-282 1524.14,-282 1530.14,-288 1530.14,-294 1530.14,-294 1530.14,-306 1530.14,-306 1530.14,-312 1524.14,-318 1518.14,-318"/>
<text text-anchor="middle" x="1458.14" y="-296.3" font-family="Times,serif" font-size="14.00">supersetOf(other)</text>
</g>
<!-- supersetOf&#45;&gt;getCount -->
<g id="edge10" class="edge">
<title>supersetOf&#45;&gt;getCount</title>
<path fill="none" stroke="black" d="M1458.14,-281.97C1458.14,-265.38 1458.14,-239.88 1458.14,-220.43"/>
<polygon fill="black" stroke="black" points="1461.64,-220.34 1458.14,-210.34 1454.64,-220.34 1461.64,-220.34"/>
<text text-anchor="middle" x="1487.14" y="-252.8" font-family="Times,serif" font-size="14.00">遍历比较</text>
</g>
<!-- iterator -->
<g id="node17" class="node">
<title>iterator</title>
<path fill="none" stroke="black" d="M1724.14,-318C1724.14,-318 1666.14,-318 1666.14,-318 1660.14,-318 1654.14,-312 1654.14,-306 1654.14,-306 1654.14,-294 1654.14,-294 1654.14,-288 1660.14,-282 1666.14,-282 1666.14,-282 1724.14,-282 1724.14,-282 1730.14,-282 1736.14,-288 1736.14,-294 1736.14,-294 1736.14,-306 1736.14,-306 1736.14,-312 1730.14,-318 1724.14,-318"/>
<text text-anchor="middle" x="1695.14" y="-296.3" font-family="Times,serif" font-size="14.00">iterator()</text>
</g>
<!-- Entry -->
<g id="node18" class="node">
<title>Entry</title>
<path fill="none" stroke="black" d="M1799.64,-318C1799.64,-318 1766.64,-318 1766.64,-318 1760.64,-318 1754.64,-312 1754.64,-306 1754.64,-306 1754.64,-294 1754.64,-294 1754.64,-288 1760.64,-282 1766.64,-282 1766.64,-282 1799.64,-282 1799.64,-282 1805.64,-282 1811.64,-288 1811.64,-294 1811.64,-294 1811.64,-306 1811.64,-306 1811.64,-312 1805.64,-318 1799.64,-318"/>
<text text-anchor="middle" x="1783.14" y="-296.3" font-family="Times,serif" font-size="14.00">Entry</text>
</g>
<!-- Iterator -->
<g id="node19" class="node">
<title>Iterator</title>
<path fill="none" stroke="black" d="M1890.14,-318C1890.14,-318 1842.14,-318 1842.14,-318 1836.14,-318 1830.14,-312 1830.14,-306 1830.14,-306 1830.14,-294 1830.14,-294 1830.14,-288 1836.14,-282 1842.14,-282 1842.14,-282 1890.14,-282 1890.14,-282 1896.14,-282 1902.14,-288 1902.14,-294 1902.14,-294 1902.14,-306 1902.14,-306 1902.14,-312 1896.14,-318 1890.14,-318"/>
<text text-anchor="middle" x="1866.14" y="-296.3" font-family="Times,serif" font-size="14.00">Iterator</text>
</g>
<!-- plusAssertSafe -->
<g id="node21" class="node">
<title>plusAssertSafe</title>
<path fill="none" stroke="black" d="M714.14,-318C714.14,-318 614.14,-318 614.14,-318 608.14,-318 602.14,-312 602.14,-306 602.14,-306 602.14,-294 602.14,-294 602.14,-288 608.14,-282 614.14,-282 614.14,-282 714.14,-282 714.14,-282 720.14,-282 726.14,-288 726.14,-294 726.14,-294 726.14,-306 726.14,-306 726.14,-312 720.14,-318 714.14,-318"/>
<text text-anchor="middle" x="664.14" y="-296.3" font-family="Times,serif" font-size="14.00">plusAssertSafe</text>
</g>
<!-- plusAssertSafe&#45;&gt;addSetAssertSafe -->
<g id="edge11" class="edge">
<title>plusAssertSafe&#45;&gt;addSetAssertSafe</title>
<path fill="none" stroke="black" d="M664.14,-281.97C664.14,-265.38 664.14,-239.88 664.14,-220.43"/>
<polygon fill="black" stroke="black" points="667.64,-220.34 664.14,-210.34 660.64,-220.34 667.64,-220.34"/>
</g>
<!-- plus -->
<g id="node22" class="node">
<title>plus</title>
<path fill="none" stroke="black" d="M345.14,-318C345.14,-318 315.14,-318 315.14,-318 309.14,-318 303.14,-312 303.14,-306 303.14,-306 303.14,-294 303.14,-294 303.14,-288 309.14,-282 315.14,-282 315.14,-282 345.14,-282 345.14,-282 351.14,-282 357.14,-288 357.14,-294 357.14,-294 357.14,-306 357.14,-306 357.14,-312 351.14,-318 345.14,-318"/>
<text text-anchor="middle" x="330.14" y="-296.3" font-family="Times,serif" font-size="14.00">plus</text>
</g>
<!-- plus&#45;&gt;addSet -->
<g id="edge12" class="edge">
<title>plus&#45;&gt;addSet</title>
<path fill="none" stroke="black" d="M330.14,-281.97C330.14,-265.38 330.14,-239.88 330.14,-220.43"/>
<polygon fill="black" stroke="black" points="333.64,-220.34 330.14,-210.34 326.64,-220.34 333.64,-220.34"/>
</g>
<!-- minus -->
<g id="node23" class="node">
<title>minus</title>
<path fill="none" stroke="black" d="M496.14,-318C496.14,-318 460.14,-318 460.14,-318 454.14,-318 448.14,-312 448.14,-306 448.14,-306 448.14,-294 448.14,-294 448.14,-288 454.14,-282 460.14,-282 460.14,-282 496.14,-282 496.14,-282 502.14,-282 508.14,-288 508.14,-294 508.14,-294 508.14,-306 508.14,-306 508.14,-312 502.14,-318 496.14,-318"/>
<text text-anchor="middle" x="478.14" y="-296.3" font-family="Times,serif" font-size="14.00">minus</text>
</g>
<!-- minus&#45;&gt;removeSet -->
<g id="edge13" class="edge">
<title>minus&#45;&gt;removeSet</title>
<path fill="none" stroke="black" d="M478.14,-281.97C478.14,-265.38 478.14,-239.88 478.14,-220.43"/>
<polygon fill="black" stroke="black" points="481.64,-220.34 478.14,-210.34 474.64,-220.34 481.64,-220.34"/>
</g>
</g>
</svg>
