<?xml version="1.0" encoding="UTF-8" standalone="no"?>
<!DOCTYPE svg PUBLIC "-//W3C//DTD SVG 1.1//EN"
 "http://www.w3.org/Graphics/SVG/1.1/DTD/svg11.dtd">
<!-- Generated by graphviz version 2.43.0 (0)
 -->
<!-- Title: Decimal Pages: 1 -->
<svg width="650pt" height="490pt"
 viewBox="0.00 0.00 650.00 490.00" xmlns="http://www.w3.org/2000/svg" xmlns:xlink="http://www.w3.org/1999/xlink">
<g id="graph0" class="graph" transform="scale(1 1) rotate(0) translate(4 486)">
<title>Decimal</title>
<polygon fill="white" stroke="transparent" points="-4,4 -4,-486 646,-486 646,4 -4,4"/>
<g id="clust1" class="cluster">
<title>cluster_shift</title>
<polygon fill="none" stroke="black" points="289,-8 289,-286 634,-286 634,-8 289,-8"/>
<text text-anchor="middle" x="461.5" y="-270.8" font-family="Times,serif" font-size="14.00">移位操作流程</text>
</g>
<g id="clust2" class="cluster">
<title>cluster_core</title>
<polygon fill="none" stroke="black" points="8,-8 8,-419 156,-419 156,-8 8,-8"/>
<text text-anchor="middle" x="82" y="-403.8" font-family="Times,serif" font-size="14.00">核心操作</text>
</g>
<!-- start -->
<g id="node1" class="node">
<title>start</title>
<path fill="none" stroke="black" d="M197.5,-482C197.5,-482 90.5,-482 90.5,-482 84.5,-482 78.5,-476 78.5,-470 78.5,-470 78.5,-458 78.5,-458 78.5,-452 84.5,-446 90.5,-446 90.5,-446 197.5,-446 197.5,-446 203.5,-446 209.5,-452 209.5,-458 209.5,-458 209.5,-470 209.5,-470 209.5,-476 203.5,-482 197.5,-482"/>
<text text-anchor="middle" x="144" y="-460.3" font-family="Times,serif" font-size="14.00">开始Decimal结构</text>
</g>
<!-- new -->
<g id="node2" class="node">
<title>new</title>
<path fill="none" stroke="black" d="M120,-365C120,-365 42,-365 42,-365 36,-365 30,-359 30,-353 30,-353 30,-339 30,-339 30,-333 36,-327 42,-327 42,-327 120,-327 120,-327 126,-327 132,-333 132,-339 132,-339 132,-353 132,-353 132,-359 126,-365 120,-365"/>
<text text-anchor="middle" x="81" y="-349.8" font-family="Times,serif" font-size="14.00">new():</text>
<text text-anchor="middle" x="81" y="-334.8" font-family="Times,serif" font-size="14.00">初始化结构体</text>
</g>
<!-- start&#45;&gt;new -->
<g id="edge1" class="edge">
<title>start&#45;&gt;new</title>
<path fill="none" stroke="black" d="M134.7,-445.88C124.46,-427.02 107.85,-396.43 95.81,-374.26"/>
<polygon fill="black" stroke="black" points="98.81,-372.45 90.96,-365.34 92.66,-375.79 98.81,-372.45"/>
</g>
<!-- parse -->
<g id="node8" class="node">
<title>parse</title>
<path fill="none" stroke="black" d="M240,-365C240,-365 176,-365 176,-365 170,-365 164,-359 164,-353 164,-353 164,-339 164,-339 164,-333 170,-327 176,-327 176,-327 240,-327 240,-327 246,-327 252,-333 252,-339 252,-339 252,-353 252,-353 252,-359 246,-365 240,-365"/>
<text text-anchor="middle" x="208" y="-349.8" font-family="Times,serif" font-size="14.00">parse():</text>
<text text-anchor="middle" x="208" y="-334.8" font-family="Times,serif" font-size="14.00">解析字符串</text>
</g>
<!-- start&#45;&gt;parse -->
<g id="edge2" class="edge">
<title>start&#45;&gt;parse</title>
<path fill="none" stroke="black" d="M153.44,-445.88C163.85,-427.02 180.73,-396.43 192.96,-374.26"/>
<polygon fill="black" stroke="black" points="196.12,-375.78 197.88,-365.34 189.99,-372.4 196.12,-375.78"/>
</g>
<!-- tryAddDigit -->
<g id="node3" class="node">
<title>tryAddDigit</title>
<path fill="none" stroke="black" d="M135.5,-232C135.5,-232 28.5,-232 28.5,-232 22.5,-232 16.5,-226 16.5,-220 16.5,-220 16.5,-206 16.5,-206 16.5,-200 22.5,-194 28.5,-194 28.5,-194 135.5,-194 135.5,-194 141.5,-194 147.5,-200 147.5,-206 147.5,-206 147.5,-220 147.5,-220 147.5,-226 141.5,-232 135.5,-232"/>
<text text-anchor="middle" x="82" y="-216.8" font-family="Times,serif" font-size="14.00">tryAddDigit():</text>
<text text-anchor="middle" x="82" y="-201.8" font-family="Times,serif" font-size="14.00">添加数字到缓冲区</text>
</g>
<!-- new&#45;&gt;tryAddDigit -->
<!-- trim -->
<g id="node4" class="node">
<title>trim</title>
<path fill="none" stroke="black" d="M136,-143C136,-143 72,-143 72,-143 66,-143 60,-137 60,-131 60,-131 60,-117 60,-117 60,-111 66,-105 72,-105 72,-105 136,-105 136,-105 142,-105 148,-111 148,-117 148,-117 148,-131 148,-131 148,-137 142,-143 136,-143"/>
<text text-anchor="middle" x="104" y="-127.8" font-family="Times,serif" font-size="14.00">trim():</text>
<text text-anchor="middle" x="104" y="-112.8" font-family="Times,serif" font-size="14.00">修剪尾部零</text>
</g>
<!-- tryAddDigit&#45;&gt;trim -->
<!-- round -->
<g id="node5" class="node">
<title>round</title>
<path fill="none" stroke="black" d="M136,-54C136,-54 58,-54 58,-54 52,-54 46,-48 46,-42 46,-42 46,-28 46,-28 46,-22 52,-16 58,-16 58,-16 136,-16 136,-16 142,-16 148,-22 148,-28 148,-28 148,-42 148,-42 148,-48 142,-54 136,-54"/>
<text text-anchor="middle" x="97" y="-38.8" font-family="Times,serif" font-size="14.00">round():</text>
<text text-anchor="middle" x="97" y="-23.8" font-family="Times,serif" font-size="14.00">四舍五入处理</text>
</g>
<!-- trim&#45;&gt;round -->
<!-- leftShift -->
<g id="node6" class="node">
<title>leftShift</title>
<path fill="none" stroke="black" d="M474,-232C474,-232 408,-232 408,-232 402,-232 396,-226 396,-220 396,-220 396,-206 396,-206 396,-200 402,-194 408,-194 408,-194 474,-194 474,-194 480,-194 486,-200 486,-206 486,-206 486,-220 486,-220 486,-226 480,-232 474,-232"/>
<text text-anchor="middle" x="441" y="-216.8" font-family="Times,serif" font-size="14.00">leftShift():</text>
<text text-anchor="middle" x="441" y="-201.8" font-family="Times,serif" font-size="14.00">左移操作</text>
</g>
<!-- round&#45;&gt;leftShift -->
<!-- leftShift&#45;&gt;trim -->
<g id="edge6" class="edge">
<title>leftShift&#45;&gt;trim</title>
<path fill="none" stroke="black" d="M395.79,-197.32C391.16,-196.09 386.51,-194.95 382,-194 315.86,-180.08 296.48,-192.74 231,-176 203.69,-169.02 174.41,-157.55 150.86,-147.26"/>
<polygon fill="black" stroke="black" points="152.03,-143.95 141.47,-143.09 149.18,-150.35 152.03,-143.95"/>
<text text-anchor="middle" x="267" y="-164.8" font-family="Times,serif" font-size="14.00">移位后修剪</text>
</g>
<!-- rightShift -->
<g id="node7" class="node">
<title>rightShift</title>
<path fill="none" stroke="black" d="M613.5,-143C613.5,-143 536.5,-143 536.5,-143 530.5,-143 524.5,-137 524.5,-131 524.5,-131 524.5,-117 524.5,-117 524.5,-111 530.5,-105 536.5,-105 536.5,-105 613.5,-105 613.5,-105 619.5,-105 625.5,-111 625.5,-117 625.5,-117 625.5,-131 625.5,-131 625.5,-137 619.5,-143 613.5,-143"/>
<text text-anchor="middle" x="575" y="-127.8" font-family="Times,serif" font-size="14.00">rightShift():</text>
<text text-anchor="middle" x="575" y="-112.8" font-family="Times,serif" font-size="14.00">右移操作</text>
</g>
<!-- leftShift&#45;&gt;rightShift -->
<!-- numberOfDigitsLeftShift -->
<g id="node9" class="node">
<title>numberOfDigitsLeftShift</title>
<path fill="none" stroke="black" d="M494.5,-143C494.5,-143 309.5,-143 309.5,-143 303.5,-143 297.5,-137 297.5,-131 297.5,-131 297.5,-117 297.5,-117 297.5,-111 303.5,-105 309.5,-105 309.5,-105 494.5,-105 494.5,-105 500.5,-105 506.5,-111 506.5,-117 506.5,-117 506.5,-131 506.5,-131 506.5,-137 500.5,-143 494.5,-143"/>
<text text-anchor="middle" x="402" y="-127.8" font-family="Times,serif" font-size="14.00">numberOfDigitsLeftShift():</text>
<text text-anchor="middle" x="402" y="-112.8" font-family="Times,serif" font-size="14.00">计算左移位数</text>
</g>
<!-- leftShift&#45;&gt;numberOfDigitsLeftShift -->
<g id="edge7" class="edge">
<title>leftShift&#45;&gt;numberOfDigitsLeftShift</title>
<path fill="none" stroke="black" d="M432.92,-193.97C427.53,-181.96 420.35,-165.94 414.27,-152.36"/>
<polygon fill="black" stroke="black" points="417.35,-150.7 410.07,-143 410.97,-153.56 417.35,-150.7"/>
<text text-anchor="middle" x="466" y="-164.8" font-family="Times,serif" font-size="14.00">确定移位位数</text>
</g>
<!-- rightShift&#45;&gt;trim -->
<g id="edge8" class="edge">
<title>rightShift&#45;&gt;trim</title>
<path fill="none" stroke="black" d="M524.27,-140.78C521.48,-141.56 518.71,-142.31 516,-143 455.94,-158.31 440.7,-163.2 379,-169 301.69,-176.27 213.22,-156.73 157.97,-141.15"/>
<polygon fill="black" stroke="black" points="158.63,-137.7 148.05,-138.29 156.69,-144.42 158.63,-137.7"/>
<text text-anchor="middle" x="343" y="-164.8" font-family="Times,serif" font-size="14.00">移位后修剪</text>
</g>
<!-- parse&#45;&gt;tryAddDigit -->
<g id="edge3" class="edge">
<title>parse&#45;&gt;tryAddDigit</title>
<path fill="none" stroke="black" d="M163.87,-328.21C162.57,-327.79 161.28,-327.39 160,-327 126.79,-316.89 105.82,-336 84,-309 69.1,-290.56 70.3,-262.88 74.22,-242.15"/>
<polygon fill="black" stroke="black" points="77.65,-242.84 76.37,-232.32 70.81,-241.34 77.65,-242.84"/>
<text text-anchor="middle" x="127" y="-297.8" font-family="Times,serif" font-size="14.00">逐个添加数字</text>
</g>
<!-- parse&#45;&gt;trim -->
<g id="edge4" class="edge">
<title>parse&#45;&gt;trim</title>
<path fill="none" stroke="black" d="M203.86,-326.54C196.83,-297.27 180.98,-238.91 157,-194 148.83,-178.7 137.32,-163.24 127.12,-150.84"/>
<polygon fill="black" stroke="black" points="129.77,-148.56 120.65,-143.17 124.42,-153.07 129.77,-148.56"/>
<text text-anchor="middle" x="228" y="-209.3" font-family="Times,serif" font-size="14.00">处理尾部零</text>
</g>
<!-- parse&#45;&gt;numberOfDigitsLeftShift -->
<g id="edge5" class="edge">
<title>parse&#45;&gt;numberOfDigitsLeftShift</title>
<path fill="none" stroke="black" d="M231.33,-326.99C243.78,-316.28 258.47,-301.75 268,-286 298.08,-236.33 266.27,-203.34 306,-161 310.66,-156.03 316.08,-151.74 321.92,-148.04"/>
<polygon fill="black" stroke="black" points="323.78,-151.01 330.74,-143.03 320.32,-144.92 323.78,-151.01"/>
<text text-anchor="middle" x="329" y="-209.3" font-family="Times,serif" font-size="14.00">处理指数部分</text>
</g>
<!-- pow2_table -->
<g id="node10" class="node">
<title>pow2_table</title>
<polygon fill="none" stroke="black" points="499,-54 299,-54 299,-16 505,-16 505,-48 499,-54"/>
<polyline fill="none" stroke="black" points="499,-54 499,-48 "/>
<polyline fill="none" stroke="black" points="505,-48 499,-48 "/>
<text text-anchor="middle" x="402" y="-38.8" font-family="Times,serif" font-size="14.00">预定义pow2_to_pow5_table</text>
<text text-anchor="middle" x="402" y="-23.8" font-family="Times,serif" font-size="14.00">比较前导数字</text>
</g>
<!-- numberOfDigitsLeftShift&#45;&gt;pow2_table -->
<g id="edge9" class="edge">
<title>numberOfDigitsLeftShift&#45;&gt;pow2_table</title>
<path fill="none" stroke="black" d="M402,-104.97C402,-93.19 402,-77.56 402,-64.16"/>
<polygon fill="black" stroke="black" points="405.5,-64 402,-54 398.5,-64 405.5,-64"/>
<text text-anchor="middle" x="452" y="-75.8" font-family="Times,serif" font-size="14.00">查预定义表比较</text>
</g>
</g>
</svg>
