<?xml version="1.0" encoding="UTF-8" standalone="no"?>
<!DOCTYPE svg PUBLIC "-//W3C//DTD SVG 1.1//EN"
 "http://www.w3.org/Graphics/SVG/1.1/DTD/svg11.dtd">
<!-- Generated by graphviz version 2.43.0 (0)
 -->
<!-- Title: deleteTree Pages: 1 -->
<svg width="676pt" height="1073pt"
 viewBox="0.00 0.00 676.00 1073.00" xmlns="http://www.w3.org/2000/svg" xmlns:xlink="http://www.w3.org/1999/xlink">
<g id="graph0" class="graph" transform="scale(1 1) rotate(0) translate(4 1069)">
<title>deleteTree</title>
<polygon fill="white" stroke="transparent" points="-4,4 -4,-1069 672,-1069 672,4 -4,4"/>
<!-- start -->
<g id="node1" class="node">
<title>start</title>
<polygon fill="none" stroke="black" points="469.5,-1065 368.5,-1065 368.5,-1029 469.5,-1029 469.5,-1065"/>
<text text-anchor="middle" x="419" y="-1044.5" font-family="Courier,monospace" font-size="10.00">开始 deleteTree</text>
</g>
<!-- open_initial -->
<g id="node2" class="node">
<title>open_initial</title>
<polygon fill="none" stroke="black" points="523.5,-992 314.5,-992 314.5,-956 523.5,-956 523.5,-992"/>
<text text-anchor="middle" x="419" y="-971.5" font-family="Courier,monospace" font-size="10.00">调用 deleteTreeOpenInitialSubpath</text>
</g>
<!-- start&#45;&gt;open_initial -->
<g id="edge1" class="edge">
<title>start&#45;&gt;open_initial</title>
<path fill="none" stroke="black" d="M419,-1028.81C419,-1020.79 419,-1011.05 419,-1002.07"/>
<polygon fill="black" stroke="black" points="422.5,-1002.03 419,-992.03 415.5,-1002.03 422.5,-1002.03"/>
</g>
<!-- initial_null -->
<g id="node3" class="node">
<title>initial_null</title>
<polygon fill="none" stroke="black" points="419,-919 359.79,-901 419,-883 478.21,-901 419,-919"/>
<text text-anchor="middle" x="419" y="-898.5" font-family="Courier,monospace" font-size="10.00">返回 null?</text>
</g>
<!-- open_initial&#45;&gt;initial_null -->
<g id="edge2" class="edge">
<title>open_initial&#45;&gt;initial_null</title>
<path fill="none" stroke="black" d="M419,-955.81C419,-947.79 419,-938.05 419,-929.07"/>
<polygon fill="black" stroke="black" points="422.5,-929.03 419,-919.03 415.5,-929.03 422.5,-929.03"/>
</g>
<!-- return_early -->
<g id="node4" class="node">
<title>return_early</title>
<polygon fill="none" stroke="black" points="431,-836 375,-836 375,-800 431,-800 431,-836"/>
<text text-anchor="middle" x="403" y="-815.5" font-family="Courier,monospace" font-size="10.00">直接返回</text>
</g>
<!-- initial_null&#45;&gt;return_early -->
<g id="edge3" class="edge">
<title>initial_null&#45;&gt;return_early</title>
<path fill="none" stroke="black" d="M415.76,-883.61C413.64,-872.85 410.8,-858.51 408.35,-846.08"/>
<polygon fill="black" stroke="black" points="411.77,-845.34 406.4,-836.21 404.9,-846.69 411.77,-845.34"/>
<text text-anchor="middle" x="417" y="-857" font-family="Courier,monospace" font-size="10.00">是</text>
</g>
<!-- init_stack -->
<g id="node5" class="node">
<title>init_stack</title>
<polygon fill="none" stroke="black" points="583,-836 449,-836 449,-800 583,-800 583,-836"/>
<text text-anchor="middle" x="516" y="-815.5" font-family="Courier,monospace" font-size="10.00">初始化栈，压入初始目录项</text>
</g>
<!-- initial_null&#45;&gt;init_stack -->
<g id="edge4" class="edge">
<title>initial_null&#45;&gt;init_stack</title>
<path fill="none" stroke="black" d="M434.16,-887.34C448.48,-875.38 470.33,-857.14 487.84,-842.51"/>
<polygon fill="black" stroke="black" points="490.11,-845.18 495.55,-836.08 485.63,-839.8 490.11,-845.18"/>
<text text-anchor="middle" x="479" y="-857" font-family="Courier,monospace" font-size="10.00">否</text>
</g>
<!-- process_stack -->
<g id="node6" class="node">
<title>process_stack</title>
<polygon fill="none" stroke="black" points="516,-763 464.27,-745 516,-727 567.73,-745 516,-763"/>
<text text-anchor="middle" x="516" y="-742.5" font-family="Courier,monospace" font-size="10.00">栈不为空?</text>
</g>
<!-- init_stack&#45;&gt;process_stack -->
<g id="edge5" class="edge">
<title>init_stack&#45;&gt;process_stack</title>
<path fill="none" stroke="black" d="M516,-799.81C516,-791.79 516,-782.05 516,-773.07"/>
<polygon fill="black" stroke="black" points="519.5,-773.03 516,-763.03 512.5,-773.03 519.5,-773.03"/>
</g>
<!-- pop_stack -->
<g id="node7" class="node">
<title>pop_stack</title>
<polygon fill="none" stroke="black" points="332.5,-680 257.5,-680 257.5,-644 332.5,-644 332.5,-680"/>
<text text-anchor="middle" x="295" y="-659.5" font-family="Courier,monospace" font-size="10.00">弹出栈顶元素</text>
</g>
<!-- process_stack&#45;&gt;pop_stack -->
<g id="edge6" class="edge">
<title>process_stack&#45;&gt;pop_stack</title>
<path fill="none" stroke="black" d="M486.24,-737.34C460.4,-731.17 422.18,-721.15 390,-709 371.8,-702.13 352.36,-693.05 335.83,-684.77"/>
<polygon fill="black" stroke="black" points="336.97,-681.42 326.47,-680.01 333.8,-687.66 336.97,-681.42"/>
<text text-anchor="middle" x="395" y="-701" font-family="Courier,monospace" font-size="10.00">是</text>
</g>
<!-- end -->
<g id="node22" class="node">
<title>end</title>
<polygon fill="none" stroke="black" points="396,-36 342,-36 342,0 396,0 396,-36"/>
<text text-anchor="middle" x="369" y="-15.5" font-family="Courier,monospace" font-size="10.00">结束</text>
</g>
<!-- process_stack&#45;&gt;end -->
<g id="edge28" class="edge">
<title>process_stack&#45;&gt;end</title>
<path fill="none" stroke="black" d="M551.83,-739.33C593.9,-731.6 658,-711.82 658,-663 658,-663 658,-663 658,-100 658,-48.37 484.81,-28.13 406.57,-21.63"/>
<polygon fill="black" stroke="black" points="406.44,-18.11 396.19,-20.8 405.88,-25.08 406.44,-18.11"/>
<text text-anchor="middle" x="663" y="-389" font-family="Courier,monospace" font-size="10.00">否</text>
</g>
<!-- iterate_entry -->
<g id="node8" class="node">
<title>iterate_entry</title>
<polygon fill="none" stroke="black" points="170.5,-607 95.5,-607 95.5,-571 170.5,-571 170.5,-607"/>
<text text-anchor="middle" x="133" y="-586.5" font-family="Courier,monospace" font-size="10.00">遍历目录条目</text>
</g>
<!-- pop_stack&#45;&gt;iterate_entry -->
<g id="edge7" class="edge">
<title>pop_stack&#45;&gt;iterate_entry</title>
<path fill="none" stroke="black" d="M257.43,-644.53C234.3,-634.4 204.48,-621.33 179.82,-610.52"/>
<polygon fill="black" stroke="black" points="181.21,-607.31 170.65,-606.5 178.4,-613.72 181.21,-607.31"/>
</g>
<!-- entry_exists -->
<g id="node9" class="node">
<title>entry_exists</title>
<polygon fill="none" stroke="black" points="232,-534 161.48,-516 232,-498 302.52,-516 232,-534"/>
<text text-anchor="middle" x="232" y="-513.5" font-family="Courier,monospace" font-size="10.00">获取下一个条目</text>
</g>
<!-- iterate_entry&#45;&gt;entry_exists -->
<g id="edge8" class="edge">
<title>iterate_entry&#45;&gt;entry_exists</title>
<path fill="none" stroke="black" d="M156.71,-570.99C171.54,-560.36 190.64,-546.66 205.9,-535.72"/>
<polygon fill="black" stroke="black" points="208.28,-538.31 214.37,-529.64 204.21,-532.63 208.28,-538.31"/>
</g>
<!-- handle_entry -->
<g id="node10" class="node">
<title>handle_entry</title>
<polygon fill="none" stroke="black" points="269.5,-451 194.5,-451 194.5,-415 269.5,-415 269.5,-451"/>
<text text-anchor="middle" x="232" y="-430.5" font-family="Courier,monospace" font-size="10.00">处理当前条目</text>
</g>
<!-- entry_exists&#45;&gt;handle_entry -->
<g id="edge9" class="edge">
<title>entry_exists&#45;&gt;handle_entry</title>
<path fill="none" stroke="black" d="M232,-497.82C232,-487.19 232,-473.31 232,-461.2"/>
<polygon fill="black" stroke="black" points="235.5,-461.15 232,-451.15 228.5,-461.15 235.5,-461.15"/>
<text text-anchor="middle" x="247" y="-472" font-family="Courier,monospace" font-size="10.00">有条目</text>
</g>
<!-- close_dir -->
<g id="node18" class="node">
<title>close_dir</title>
<polygon fill="none" stroke="black" points="376.5,-451 301.5,-451 301.5,-415 376.5,-415 376.5,-451"/>
<text text-anchor="middle" x="339" y="-430.5" font-family="Courier,monospace" font-size="10.00">关闭目录句柄</text>
</g>
<!-- entry_exists&#45;&gt;close_dir -->
<g id="edge10" class="edge">
<title>entry_exists&#45;&gt;close_dir</title>
<path fill="none" stroke="black" d="M249.19,-501.99C265.04,-489.99 288.94,-471.9 308.1,-457.39"/>
<polygon fill="black" stroke="black" points="310.39,-460.04 316.25,-451.22 306.17,-454.46 310.39,-460.04"/>
<text text-anchor="middle" x="316.5" y="-472" font-family="Courier,monospace" font-size="10.00">无更多条目</text>
</g>
<!-- is_directory -->
<g id="node11" class="node">
<title>is_directory</title>
<polygon fill="none" stroke="black" points="232,-368 172.79,-350 232,-332 291.21,-350 232,-368"/>
<text text-anchor="middle" x="232" y="-347.5" font-family="Courier,monospace" font-size="10.00">条目是目录?</text>
</g>
<!-- handle_entry&#45;&gt;is_directory -->
<g id="edge11" class="edge">
<title>handle_entry&#45;&gt;is_directory</title>
<path fill="none" stroke="black" d="M232,-414.82C232,-404.19 232,-390.31 232,-378.2"/>
<polygon fill="black" stroke="black" points="235.5,-378.15 232,-368.15 228.5,-378.15 235.5,-378.15"/>
</g>
<!-- stack_capacity -->
<g id="node12" class="node">
<title>stack_capacity</title>
<polygon fill="none" stroke="black" points="306,-285 254.27,-267 306,-249 357.73,-267 306,-285"/>
<text text-anchor="middle" x="306" y="-264.5" font-family="Courier,monospace" font-size="10.00">栈有空间?</text>
</g>
<!-- is_directory&#45;&gt;stack_capacity -->
<g id="edge12" class="edge">
<title>is_directory&#45;&gt;stack_capacity</title>
<path fill="none" stroke="black" d="M244.22,-335.62C255.86,-322.89 273.55,-303.52 287.02,-288.77"/>
<polygon fill="black" stroke="black" points="289.85,-290.87 294.01,-281.13 284.68,-286.15 289.85,-290.87"/>
<text text-anchor="middle" x="279" y="-306" font-family="Courier,monospace" font-size="10.00">是</text>
</g>
<!-- delete_file -->
<g id="node15" class="node">
<title>delete_file</title>
<polygon fill="none" stroke="black" points="236.5,-285 161.5,-285 161.5,-249 236.5,-249 236.5,-285"/>
<text text-anchor="middle" x="199" y="-264.5" font-family="Courier,monospace" font-size="10.00">尝试删除文件</text>
</g>
<!-- is_directory&#45;&gt;delete_file -->
<g id="edge13" class="edge">
<title>is_directory&#45;&gt;delete_file</title>
<path fill="none" stroke="black" d="M225.79,-333.76C221.3,-322.74 215.11,-307.55 209.81,-294.54"/>
<polygon fill="black" stroke="black" points="212.99,-293.07 205.98,-285.13 206.51,-295.71 212.99,-293.07"/>
<text text-anchor="middle" x="223" y="-306" font-family="Courier,monospace" font-size="10.00">否</text>
</g>
<!-- push_stack -->
<g id="node13" class="node">
<title>push_stack</title>
<polygon fill="none" stroke="black" points="497.5,-202 412.5,-202 412.5,-166 497.5,-166 497.5,-202"/>
<text text-anchor="middle" x="455" y="-181.5" font-family="Courier,monospace" font-size="10.00">压入子目录到栈</text>
</g>
<!-- stack_capacity&#45;&gt;push_stack -->
<g id="edge14" class="edge">
<title>stack_capacity&#45;&gt;push_stack</title>
<path fill="none" stroke="black" d="M324.99,-255.55C342.01,-246.2 367.64,-232.14 390,-220 397.86,-215.73 406.26,-211.19 414.32,-206.85"/>
<polygon fill="black" stroke="black" points="416.09,-209.87 423.24,-202.04 412.77,-203.71 416.09,-209.87"/>
<text text-anchor="middle" x="395" y="-223" font-family="Courier,monospace" font-size="10.00">有</text>
</g>
<!-- delete_min_stack -->
<g id="node14" class="node">
<title>delete_min_stack</title>
<polygon fill="none" stroke="black" points="394.5,-202 149.5,-202 149.5,-166 394.5,-166 394.5,-202"/>
<text text-anchor="middle" x="272" y="-181.5" font-family="Courier,monospace" font-size="10.00">调用 deleteTreeMinStackSizeWithKindHint</text>
</g>
<!-- stack_capacity&#45;&gt;delete_min_stack -->
<g id="edge15" class="edge">
<title>stack_capacity&#45;&gt;delete_min_stack</title>
<path fill="none" stroke="black" d="M299.76,-251.14C295.12,-240.08 288.65,-224.68 283.13,-211.52"/>
<polygon fill="black" stroke="black" points="286.24,-209.87 279.14,-202 279.78,-212.58 286.24,-209.87"/>
<text text-anchor="middle" x="297" y="-223" font-family="Courier,monospace" font-size="10.00">无</text>
</g>
<!-- push_stack&#45;&gt;process_stack -->
<g id="edge16" class="edge">
<title>push_stack&#45;&gt;process_stack</title>
<path fill="none" stroke="black" d="M440.43,-202.07C428.64,-217.66 414,-241.89 414,-266 414,-663 414,-663 414,-663 414,-697.84 450.95,-720.09 480.37,-732.27"/>
<polygon fill="black" stroke="black" points="479.41,-735.66 490,-736.03 481.95,-729.13 479.41,-735.66"/>
<text text-anchor="middle" x="443.5" y="-472" font-family="Courier,monospace" font-size="10.00">继续处理栈顶</text>
</g>
<!-- delete_min_stack&#45;&gt;iterate_entry -->
<g id="edge17" class="edge">
<title>delete_min_stack&#45;&gt;iterate_entry</title>
<path fill="none" stroke="black" d="M192.76,-202.11C161.54,-213.93 133,-233.6 133,-266 133,-517 133,-517 133,-517 133,-531.35 133,-547.33 133,-560.49"/>
<polygon fill="black" stroke="black" points="129.5,-560.78 133,-570.78 136.5,-560.78 129.5,-560.78"/>
</g>
<!-- delete_success -->
<g id="node16" class="node">
<title>delete_success</title>
<polygon fill="none" stroke="black" points="80,-202 28.27,-184 80,-166 131.73,-184 80,-202"/>
<text text-anchor="middle" x="80" y="-181.5" font-family="Courier,monospace" font-size="10.00">删除成功?</text>
</g>
<!-- delete_file&#45;&gt;delete_success -->
<g id="edge18" class="edge">
<title>delete_file&#45;&gt;delete_success</title>
<path fill="none" stroke="black" d="M173.76,-248.82C153.56,-235.07 125.35,-215.87 105.17,-202.13"/>
<polygon fill="black" stroke="black" points="107.02,-199.16 96.78,-196.42 103.08,-204.94 107.02,-199.16"/>
</g>
<!-- delete_success&#45;&gt;iterate_entry -->
<g id="edge19" class="edge">
<title>delete_success&#45;&gt;iterate_entry</title>
<path fill="none" stroke="black" d="M82.25,-201.41C84.3,-217.75 87,-243.56 87,-266 87,-517 87,-517 87,-517 87,-534.23 96.66,-550.58 107.12,-563.23"/>
<polygon fill="black" stroke="black" points="104.76,-565.84 114.02,-570.99 109.99,-561.19 104.76,-565.84"/>
<text text-anchor="middle" x="97" y="-389" font-family="Courier,monospace" font-size="10.00">成功</text>
</g>
<!-- handle_errors -->
<g id="node17" class="node">
<title>handle_errors</title>
<polygon fill="none" stroke="black" points="108,-119 52,-119 52,-83 108,-83 108,-119"/>
<text text-anchor="middle" x="80" y="-98.5" font-family="Courier,monospace" font-size="10.00">处理错误</text>
</g>
<!-- delete_success&#45;&gt;handle_errors -->
<g id="edge20" class="edge">
<title>delete_success&#45;&gt;handle_errors</title>
<path fill="none" stroke="black" d="M80,-165.82C80,-155.19 80,-141.31 80,-129.2"/>
<polygon fill="black" stroke="black" points="83.5,-129.15 80,-119.15 76.5,-129.15 83.5,-129.15"/>
<text text-anchor="middle" x="90" y="-140" font-family="Courier,monospace" font-size="10.00">失败</text>
</g>
<!-- handle_errors&#45;&gt;iterate_entry -->
<g id="edge21" class="edge">
<title>handle_errors&#45;&gt;iterate_entry</title>
<path fill="none" stroke="black" d="M51.57,-116.1C28.58,-129.73 0,-152.76 0,-183 0,-517 0,-517 0,-517 0,-556.89 47.12,-574.44 85.27,-582.12"/>
<polygon fill="black" stroke="black" points="84.78,-585.59 95.24,-583.95 86.04,-578.71 84.78,-585.59"/>
<text text-anchor="middle" x="24.5" y="-347.5" font-family="Courier,monospace" font-size="10.00">可恢复错误</text>
</g>
<!-- handle_errors&#45;&gt;end -->
<g id="edge22" class="edge">
<title>handle_errors&#45;&gt;end</title>
<path fill="none" stroke="black" stroke-dasharray="5,2" d="M108.24,-92.09C160.76,-77.37 273.44,-45.78 331.98,-29.38"/>
<polygon fill="black" stroke="black" points="333.23,-32.66 341.92,-26.59 331.34,-25.92 333.23,-32.66"/>
<text text-anchor="middle" x="271.5" y="-57" font-family="Courier,monospace" font-size="10.00">不可恢复错误</text>
</g>
<!-- delete_dir -->
<g id="node19" class="node">
<title>delete_dir</title>
<polygon fill="none" stroke="black" points="385.5,-368 310.5,-368 310.5,-332 385.5,-332 385.5,-368"/>
<text text-anchor="middle" x="348" y="-347.5" font-family="Courier,monospace" font-size="10.00">尝试删除目录</text>
</g>
<!-- close_dir&#45;&gt;delete_dir -->
<g id="edge23" class="edge">
<title>close_dir&#45;&gt;delete_dir</title>
<path fill="none" stroke="black" d="M340.91,-414.82C342.09,-404.19 343.63,-390.31 344.98,-378.2"/>
<polygon fill="black" stroke="black" points="348.47,-378.48 346.09,-368.15 341.51,-377.71 348.47,-378.48"/>
</g>
<!-- dir_not_empty -->
<g id="node20" class="node">
<title>dir_not_empty</title>
<polygon fill="none" stroke="black" points="516,-285 441.82,-267 516,-249 590.18,-267 516,-285"/>
<text text-anchor="middle" x="516" y="-264.5" font-family="Courier,monospace" font-size="10.00">DirNotEmpty?</text>
</g>
<!-- delete_dir&#45;&gt;dir_not_empty -->
<g id="edge24" class="edge">
<title>delete_dir&#45;&gt;dir_not_empty</title>
<path fill="none" stroke="black" d="M383.63,-331.82C413.05,-317.64 454.48,-297.66 483.12,-283.85"/>
<polygon fill="black" stroke="black" points="484.82,-286.92 492.31,-279.42 481.78,-280.61 484.82,-286.92"/>
</g>
<!-- dir_not_empty&#45;&gt;process_stack -->
<g id="edge26" class="edge">
<title>dir_not_empty&#45;&gt;process_stack</title>
<path fill="none" stroke="black" d="M516,-285.07C516,-301.46 516,-326.92 516,-349 516,-663 516,-663 516,-663 516,-680.94 516,-701.11 516,-716.84"/>
<polygon fill="black" stroke="black" points="512.5,-716.93 516,-726.93 519.5,-716.93 512.5,-716.93"/>
<text text-anchor="middle" x="521" y="-513.5" font-family="Courier,monospace" font-size="10.00">否</text>
</g>
<!-- retry_push -->
<g id="node21" class="node">
<title>retry_push</title>
<polygon fill="none" stroke="black" points="630,-202 516,-202 516,-166 630,-166 630,-202"/>
<text text-anchor="middle" x="573" y="-181.5" font-family="Courier,monospace" font-size="10.00">重新打开目录并压入栈</text>
</g>
<!-- dir_not_empty&#45;&gt;retry_push -->
<g id="edge25" class="edge">
<title>dir_not_empty&#45;&gt;retry_push</title>
<path fill="none" stroke="black" d="M526.45,-251.14C534.47,-239.75 545.72,-223.77 555.15,-210.37"/>
<polygon fill="black" stroke="black" points="558.14,-212.2 561.03,-202 552.42,-208.17 558.14,-212.2"/>
<text text-anchor="middle" x="552" y="-223" font-family="Courier,monospace" font-size="10.00">是</text>
</g>
<!-- retry_push&#45;&gt;process_stack -->
<g id="edge27" class="edge">
<title>retry_push&#45;&gt;process_stack</title>
<path fill="none" stroke="black" d="M589.25,-202.14C602.14,-217.58 618,-241.55 618,-266 618,-663 618,-663 618,-663 618,-697.84 581.05,-720.09 551.63,-732.27"/>
<polygon fill="black" stroke="black" points="550.05,-729.13 542,-736.03 552.59,-735.66 550.05,-729.13"/>
</g>
</g>
</svg>
