<?xml version="1.0" encoding="UTF-8" standalone="no"?>
<!DOCTYPE svg PUBLIC "-//W3C//DTD SVG 1.1//EN"
 "http://www.w3.org/Graphics/SVG/1.1/DTD/svg11.dtd">
<!-- Generated by graphviz version 2.43.0 (0)
 -->
<!-- Title: flowchart Pages: 1 -->
<svg width="1406pt" height="738pt"
 viewBox="0.00 0.00 1405.74 738.00" xmlns="http://www.w3.org/2000/svg" xmlns:xlink="http://www.w3.org/1999/xlink">
<g id="graph0" class="graph" transform="scale(1 1) rotate(0) translate(4 734)">
<title>flowchart</title>
<polygon fill="white" stroke="transparent" points="-4,4 -4,-734 1401.74,-734 1401.74,4 -4,4"/>
<!-- start -->
<g id="node1" class="node">
<title>start</title>
<polygon fill="none" stroke="black" points="646.27,-730 455.27,-730 455.27,-694 646.27,-694 646.27,-730"/>
<text text-anchor="middle" x="550.77" y="-709.5" font-family="Courier,monospace" font-size="10.00">Start selfExePath(out_buffer)</text>
</g>
<!-- check_darwin -->
<g id="node2" class="node">
<title>check_darwin</title>
<polygon fill="none" stroke="black" points="550.77,-657 466.61,-639 550.77,-621 634.94,-639 550.77,-657"/>
<text text-anchor="middle" x="550.77" y="-636.5" font-family="Courier,monospace" font-size="10.00">if (is_darwin)</text>
</g>
<!-- start&#45;&gt;check_darwin -->
<g id="edge1" class="edge">
<title>start&#45;&gt;check_darwin</title>
<path fill="none" stroke="black" d="M550.77,-693.81C550.77,-685.79 550.77,-676.05 550.77,-667.07"/>
<polygon fill="black" stroke="black" points="554.27,-667.03 550.77,-657.03 547.27,-667.03 554.27,-667.03"/>
</g>
<!-- darwin_path -->
<g id="node3" class="node">
<title>darwin_path</title>
<polygon fill="none" stroke="black" points="534.27,-574 355.27,-574 355.27,-538 534.27,-538 534.27,-574"/>
<text text-anchor="middle" x="444.77" y="-553.5" font-family="Courier,monospace" font-size="10.00">Call _NSGetExecutablePath()</text>
</g>
<!-- check_darwin&#45;&gt;darwin_path -->
<g id="edge2" class="edge">
<title>check_darwin&#45;&gt;darwin_path</title>
<path fill="none" stroke="black" d="M533.27,-624.62C517.49,-612.57 493.95,-594.58 475.11,-580.18"/>
<polygon fill="black" stroke="black" points="477.17,-577.35 467.1,-574.06 472.92,-582.91 477.17,-577.35"/>
<text text-anchor="middle" x="514.27" y="-595" font-family="Courier,monospace" font-size="10.00">Yes</text>
</g>
<!-- os_switch -->
<g id="node11" class="node">
<title>os_switch</title>
<polygon fill="none" stroke="black" points="683.77,-574 579.65,-556 683.77,-538 787.9,-556 683.77,-574"/>
<text text-anchor="middle" x="683.77" y="-553.5" font-family="Courier,monospace" font-size="10.00">switch (native_os)</text>
</g>
<!-- check_darwin&#45;&gt;os_switch -->
<g id="edge10" class="edge">
<title>check_darwin&#45;&gt;os_switch</title>
<path fill="none" stroke="black" d="M571.56,-625.34C593.42,-612.03 628.06,-590.93 653.07,-575.7"/>
<polygon fill="black" stroke="black" points="655.09,-578.57 661.81,-570.38 651.45,-572.59 655.09,-578.57"/>
<text text-anchor="middle" x="632.27" y="-595" font-family="Courier,monospace" font-size="10.00">No</text>
</g>
<!-- check_rc -->
<g id="node4" class="node">
<title>check_rc</title>
<polygon fill="none" stroke="black" points="94.77,-491 40.55,-473 94.77,-455 149,-473 94.77,-491"/>
<text text-anchor="middle" x="94.77" y="-470.5" font-family="Courier,monospace" font-size="10.00">rc != 0?</text>
</g>
<!-- darwin_path&#45;&gt;check_rc -->
<g id="edge3" class="edge">
<title>darwin_path&#45;&gt;check_rc</title>
<path fill="none" stroke="black" d="M355.15,-539.19C325.63,-533.6 292.7,-526.96 262.77,-520 217.4,-509.44 165.79,-494.93 131.89,-485.05"/>
<polygon fill="black" stroke="black" points="132.54,-481.59 121.96,-482.14 130.58,-488.31 132.54,-481.59"/>
</g>
<!-- error_nametoolong1 -->
<g id="node5" class="node">
<title>error_nametoolong1</title>
<ellipse fill="none" stroke="black" cx="94.77" cy="-311" rx="94.55" ry="18"/>
<text text-anchor="middle" x="94.77" y="-308.5" font-family="Courier,monospace" font-size="10.00">return error.NameTooLong</text>
</g>
<!-- check_rc&#45;&gt;error_nametoolong1 -->
<g id="edge4" class="edge">
<title>check_rc&#45;&gt;error_nametoolong1</title>
<path fill="none" stroke="black" d="M94.77,-454.88C94.77,-427.35 94.77,-373.01 94.77,-339.85"/>
<polygon fill="black" stroke="black" points="98.27,-339.48 94.77,-329.48 91.27,-339.48 98.27,-339.48"/>
<text text-anchor="middle" x="104.27" y="-416.5" font-family="Courier,monospace" font-size="10.00">Yes</text>
</g>
<!-- darwin_realpath -->
<g id="node6" class="node">
<title>darwin_realpath</title>
<polygon fill="none" stroke="black" points="298.27,-383 185.27,-383 185.27,-347 298.27,-347 298.27,-383"/>
<text text-anchor="middle" x="241.77" y="-362.5" font-family="Courier,monospace" font-size="10.00">Call realpathZ()</text>
</g>
<!-- check_rc&#45;&gt;darwin_realpath -->
<g id="edge5" class="edge">
<title>check_rc&#45;&gt;darwin_realpath</title>
<path fill="none" stroke="black" d="M103.78,-457.97C114.5,-442.24 133.75,-416.85 155.77,-401 162.9,-395.87 170.9,-391.34 179.06,-387.38"/>
<polygon fill="black" stroke="black" points="180.67,-390.49 188.31,-383.16 177.76,-384.13 180.67,-390.49"/>
<text text-anchor="middle" x="162.27" y="-416.5" font-family="Courier,monospace" font-size="10.00">No</text>
</g>
<!-- end -->
<g id="node29" class="node">
<title>end</title>
<ellipse fill="none" stroke="black" cx="640.77" cy="-18" rx="27" ry="18"/>
<text text-anchor="middle" x="640.77" y="-15.5" font-family="Courier,monospace" font-size="10.00">End</text>
</g>
<!-- error_nametoolong1&#45;&gt;end -->
<g id="edge54" class="edge">
<title>error_nametoolong1&#45;&gt;end</title>
<path fill="none" stroke="black" d="M94.77,-292.77C94.77,-274.01 94.77,-243.12 94.77,-216.5 94.77,-216.5 94.77,-216.5 94.77,-90 94.77,-38.57 480.7,-23.43 603.64,-19.92"/>
<polygon fill="black" stroke="black" points="603.8,-23.41 613.7,-19.64 603.61,-16.41 603.8,-23.41"/>
</g>
<!-- check_realpath_error -->
<g id="node7" class="node">
<title>check_realpath_error</title>
<polygon fill="none" stroke="black" points="241.77,-275 122.68,-257 241.77,-239 360.87,-257 241.77,-275"/>
<text text-anchor="middle" x="241.77" y="-254.5" font-family="Courier,monospace" font-size="10.00">Handle realpath error</text>
</g>
<!-- darwin_realpath&#45;&gt;check_realpath_error -->
<g id="edge6" class="edge">
<title>darwin_realpath&#45;&gt;check_realpath_error</title>
<path fill="none" stroke="black" d="M236.66,-346.97C234.8,-330.08 234.53,-303.97 235.85,-284.39"/>
<polygon fill="black" stroke="black" points="239.34,-284.56 236.74,-274.29 232.37,-283.94 239.34,-284.56"/>
</g>
<!-- darwin_realpath&#45;&gt;check_realpath_error -->
<g id="edge31" class="edge">
<title>darwin_realpath&#45;&gt;check_realpath_error</title>
<path fill="none" stroke="black" d="M246.89,-346.97C248.75,-330.08 249.02,-303.97 247.7,-284.39"/>
<polygon fill="black" stroke="black" points="251.18,-283.94 246.81,-274.29 244.2,-284.56 251.18,-283.94"/>
</g>
<!-- check_buffer_len -->
<g id="node8" class="node">
<title>check_buffer_len</title>
<polygon fill="none" stroke="black" points="297.77,-192 128.78,-174 297.77,-156 466.77,-174 297.77,-192"/>
<text text-anchor="middle" x="297.77" y="-171.5" font-family="Courier,monospace" font-size="10.00">real_path.len &gt; out_buffer.len?</text>
</g>
<!-- check_realpath_error&#45;&gt;check_buffer_len -->
<g id="edge7" class="edge">
<title>check_realpath_error&#45;&gt;check_buffer_len</title>
<path fill="none" stroke="black" d="M235.94,-239.67C233.66,-230.4 232.66,-218.9 237.77,-210 241.49,-203.53 246.92,-198.14 253.01,-193.69"/>
<polygon fill="black" stroke="black" points="255.08,-196.52 261.63,-188.19 251.31,-190.62 255.08,-196.52"/>
<text text-anchor="middle" x="262.27" y="-213" font-family="Courier,monospace" font-size="10.00">No error</text>
</g>
<!-- check_realpath_error&#45;&gt;check_buffer_len -->
<g id="edge32" class="edge">
<title>check_realpath_error&#45;&gt;check_buffer_len</title>
<path fill="none" stroke="black" d="M265.1,-242.46C273.05,-236.77 281.31,-229.49 286.77,-221 290.39,-215.38 292.82,-208.69 294.45,-202.17"/>
<polygon fill="black" stroke="black" points="297.91,-202.74 296.41,-192.25 291.04,-201.38 297.91,-202.74"/>
<text text-anchor="middle" x="317.27" y="-213" font-family="Courier,monospace" font-size="10.00">No error</text>
</g>
<!-- error_nametoolong2 -->
<g id="node9" class="node">
<title>error_nametoolong2</title>
<ellipse fill="none" stroke="black" cx="217.77" cy="-91" rx="94.55" ry="18"/>
<text text-anchor="middle" x="217.77" y="-88.5" font-family="Courier,monospace" font-size="10.00">return error.NameTooLong</text>
</g>
<!-- check_buffer_len&#45;&gt;error_nametoolong2 -->
<g id="edge8" class="edge">
<title>check_buffer_len&#45;&gt;error_nametoolong2</title>
<path fill="none" stroke="black" d="M274.55,-158.41C266.24,-152.6 257.13,-145.52 249.77,-138 243.84,-131.94 238.24,-124.67 233.43,-117.72"/>
<polygon fill="black" stroke="black" points="236.23,-115.61 227.8,-109.2 230.39,-119.47 236.23,-115.61"/>
<text text-anchor="middle" x="259.27" y="-130" font-family="Courier,monospace" font-size="10.00">Yes</text>
</g>
<!-- check_buffer_len&#45;&gt;error_nametoolong2 -->
<g id="edge33" class="edge">
<title>check_buffer_len&#45;&gt;error_nametoolong2</title>
<path fill="none" stroke="black" d="M289.56,-156.53C284.4,-147.21 277.15,-135.71 268.77,-127 264.38,-122.43 259.3,-118.1 254.08,-114.15"/>
<polygon fill="black" stroke="black" points="256.02,-111.24 245.85,-108.28 251.95,-116.94 256.02,-111.24"/>
<text text-anchor="middle" x="287.27" y="-130" font-family="Courier,monospace" font-size="10.00">Yes</text>
</g>
<!-- copy_result -->
<g id="node10" class="node">
<title>copy_result</title>
<polygon fill="none" stroke="black" points="521.27,-109 330.27,-109 330.27,-73 521.27,-73 521.27,-109"/>
<text text-anchor="middle" x="425.77" y="-88.5" font-family="Courier,monospace" font-size="10.00">Copy to out_buffer and return</text>
</g>
<!-- check_buffer_len&#45;&gt;copy_result -->
<g id="edge9" class="edge">
<title>check_buffer_len&#45;&gt;copy_result</title>
<path fill="none" stroke="black" d="M314.26,-157.34C324.77,-147.84 338.96,-135.89 352.77,-127 360.16,-122.25 368.29,-117.73 376.36,-113.62"/>
<polygon fill="black" stroke="black" points="377.98,-116.72 385.4,-109.15 374.89,-110.44 377.98,-116.72"/>
<text text-anchor="middle" x="359.27" y="-130" font-family="Courier,monospace" font-size="10.00">No</text>
</g>
<!-- check_buffer_len&#45;&gt;copy_result -->
<g id="edge34" class="edge">
<title>check_buffer_len&#45;&gt;copy_result</title>
<path fill="none" stroke="black" d="M327.53,-159.13C339.67,-153.1 353.66,-145.67 365.77,-138 376.41,-131.26 387.5,-123.12 397.2,-115.56"/>
<polygon fill="black" stroke="black" points="399.67,-118.08 405.34,-109.13 395.32,-112.59 399.67,-118.08"/>
<text text-anchor="middle" x="388.27" y="-130" font-family="Courier,monospace" font-size="10.00">No</text>
</g>
<!-- error_nametoolong2&#45;&gt;end -->
<g id="edge55" class="edge">
<title>error_nametoolong2&#45;&gt;end</title>
<path fill="none" stroke="black" d="M286.21,-78.51C376.95,-63.28 533.84,-36.95 604.46,-25.09"/>
<polygon fill="black" stroke="black" points="605.36,-28.49 614.64,-23.39 604.2,-21.59 605.36,-28.49"/>
</g>
<!-- copy_result&#45;&gt;end -->
<g id="edge35" class="edge">
<title>copy_result&#45;&gt;end</title>
<path fill="none" stroke="black" d="M477.27,-72.99C517.64,-59.66 572.62,-41.51 607.41,-30.02"/>
<polygon fill="black" stroke="black" points="608.69,-33.28 617.09,-26.82 606.49,-26.63 608.69,-33.28"/>
</g>
<!-- linux_serenity -->
<g id="node12" class="node">
<title>linux_serenity</title>
<polygon fill="none" stroke="black" points="298.27,-491 167.27,-491 167.27,-455 298.27,-455 298.27,-491"/>
<text text-anchor="middle" x="232.77" y="-470.5" font-family="Courier,monospace" font-size="10.00">Read /proc/self/exe</text>
</g>
<!-- os_switch&#45;&gt;linux_serenity -->
<g id="edge11" class="edge">
<title>os_switch&#45;&gt;linux_serenity</title>
<path fill="none" stroke="black" d="M626.16,-547.92C600.62,-544.82 570.21,-541.17 542.77,-538 470.37,-529.64 451.11,-534.95 379.77,-520 349.24,-513.6 316,-503.48 288.87,-494.36"/>
<polygon fill="black" stroke="black" points="289.76,-490.96 279.17,-491.05 287.5,-497.59 289.76,-490.96"/>
<text text-anchor="middle" x="425.27" y="-512" font-family="Courier,monospace" font-size="10.00">Linux, Serenity</text>
</g>
<!-- solaris_illumos -->
<g id="node13" class="node">
<title>solaris_illumos</title>
<polygon fill="none" stroke="black" points="489.27,-491 316.27,-491 316.27,-455 489.27,-455 489.27,-491"/>
<text text-anchor="middle" x="402.77" y="-470.5" font-family="Courier,monospace" font-size="10.00">Read /proc/self/path/a.out</text>
</g>
<!-- os_switch&#45;&gt;solaris_illumos -->
<g id="edge12" class="edge">
<title>os_switch&#45;&gt;solaris_illumos</title>
<path fill="none" stroke="black" d="M627.45,-547.67C591.28,-542.1 543.6,-533.13 502.77,-520 482.97,-513.63 461.93,-504.37 444.29,-495.81"/>
<polygon fill="black" stroke="black" points="445.38,-492.45 434.86,-491.16 442.28,-498.73 445.38,-492.45"/>
<text text-anchor="middle" x="551.27" y="-512" font-family="Courier,monospace" font-size="10.00">Solaris, Illumos</text>
</g>
<!-- freebsd_dragonfly -->
<g id="node14" class="node">
<title>freebsd_dragonfly</title>
<polygon fill="none" stroke="black" points="680.27,-491 507.27,-491 507.27,-455 680.27,-455 680.27,-491"/>
<text text-anchor="middle" x="593.77" y="-470.5" font-family="Courier,monospace" font-size="10.00">sysctl(KERN_PROC_PATHNAME)</text>
</g>
<!-- os_switch&#45;&gt;freebsd_dragonfly -->
<g id="edge13" class="edge">
<title>os_switch&#45;&gt;freebsd_dragonfly</title>
<path fill="none" stroke="black" d="M647.54,-544.06C634.51,-538.61 620.62,-530.81 610.77,-520 605.92,-514.67 602.42,-507.84 599.9,-501.08"/>
<polygon fill="black" stroke="black" points="603.21,-499.91 596.88,-491.4 596.52,-501.99 603.21,-499.91"/>
<text text-anchor="middle" x="665.27" y="-512" font-family="Courier,monospace" font-size="10.00">FreeBSD, DragonFly</text>
</g>
<!-- netbsd -->
<g id="node15" class="node">
<title>netbsd</title>
<polygon fill="none" stroke="black" points="847.27,-491 698.27,-491 698.27,-455 847.27,-455 847.27,-491"/>
<text text-anchor="middle" x="772.77" y="-470.5" font-family="Courier,monospace" font-size="10.00">sysctl(KERN_PROC_ARGS)</text>
</g>
<!-- os_switch&#45;&gt;netbsd -->
<g id="edge14" class="edge">
<title>os_switch&#45;&gt;netbsd</title>
<path fill="none" stroke="black" d="M699.69,-540.52C712.63,-528.74 731.17,-511.87 746.34,-498.06"/>
<polygon fill="black" stroke="black" points="748.87,-500.49 753.91,-491.17 744.16,-495.31 748.87,-500.49"/>
<text text-anchor="middle" x="752.27" y="-512" font-family="Courier,monospace" font-size="10.00">NetBSD</text>
</g>
<!-- openbsd_haiku -->
<g id="node16" class="node">
<title>openbsd_haiku</title>
<polygon fill="none" stroke="black" points="1014.27,-491 865.27,-491 865.27,-455 1014.27,-455 1014.27,-491"/>
<text text-anchor="middle" x="939.77" y="-470.5" font-family="Courier,monospace" font-size="10.00">Check argv[0] and PATH</text>
</g>
<!-- os_switch&#45;&gt;openbsd_haiku -->
<g id="edge15" class="edge">
<title>os_switch&#45;&gt;openbsd_haiku</title>
<path fill="none" stroke="black" d="M718.57,-543.99C758.94,-531.22 826.33,-509.89 876.14,-494.13"/>
<polygon fill="black" stroke="black" points="877.38,-497.41 885.86,-491.06 875.27,-490.74 877.38,-497.41"/>
<text text-anchor="middle" x="870.27" y="-512" font-family="Courier,monospace" font-size="10.00">OpenBSD, Haiku</text>
</g>
<!-- windows_path -->
<g id="node17" class="node">
<title>windows_path</title>
<polygon fill="none" stroke="black" points="1253.27,-491 1032.27,-491 1032.27,-455 1253.27,-455 1253.27,-491"/>
<text text-anchor="middle" x="1142.77" y="-470.5" font-family="Courier,monospace" font-size="10.00">Get Windows image path and resolve</text>
</g>
<!-- os_switch&#45;&gt;windows_path -->
<g id="edge16" class="edge">
<title>os_switch&#45;&gt;windows_path</title>
<path fill="none" stroke="black" d="M738.99,-547.53C786.28,-540.93 856.15,-530.72 916.77,-520 962.31,-511.95 1012.76,-501.8 1054.42,-493.09"/>
<polygon fill="black" stroke="black" points="1055.19,-496.5 1064.26,-491.02 1053.75,-489.65 1055.19,-496.5"/>
<text text-anchor="middle" x="994.27" y="-512" font-family="Courier,monospace" font-size="10.00">Windows</text>
</g>
<!-- compile_error -->
<g id="node18" class="node">
<title>compile_error</title>
<ellipse fill="none" stroke="black" cx="1281.77" cy="-419" rx="115.93" ry="18"/>
<text text-anchor="middle" x="1281.77" y="-416.5" font-family="Courier,monospace" font-size="10.00">Compile error (unsupported OS)</text>
</g>
<!-- os_switch&#45;&gt;compile_error -->
<g id="edge17" class="edge">
<title>os_switch&#45;&gt;compile_error</title>
<path fill="none" stroke="black" d="M760.79,-551.25C909.4,-543.33 1224.43,-522.96 1261.77,-491 1274.22,-480.35 1279.23,-462.61 1281.11,-447.53"/>
<polygon fill="black" stroke="black" points="1284.64,-447.42 1282,-437.15 1277.66,-446.82 1284.64,-447.42"/>
<text text-anchor="middle" x="1231.27" y="-512" font-family="Courier,monospace" font-size="10.00">Other OS</text>
</g>
<!-- return_result -->
<g id="node19" class="node">
<title>return_result</title>
<ellipse fill="none" stroke="black" cx="549.77" cy="-365" rx="55.85" ry="18"/>
<text text-anchor="middle" x="549.77" y="-362.5" font-family="Courier,monospace" font-size="10.00">return_result</text>
</g>
<!-- linux_serenity&#45;&gt;return_result -->
<g id="edge18" class="edge">
<title>linux_serenity&#45;&gt;return_result</title>
<path fill="none" stroke="black" d="M205.73,-454.76C200.09,-449.77 194.91,-443.8 191.77,-437 185.07,-422.47 181.03,-412.85 191.77,-401 201.5,-390.28 384.87,-376.73 485.3,-370.07"/>
<polygon fill="black" stroke="black" points="485.6,-373.56 495.34,-369.41 485.14,-366.58 485.6,-373.56"/>
<text text-anchor="middle" x="258.27" y="-416.5" font-family="Courier,monospace" font-size="10.00">Return readlink result</text>
</g>
<!-- linux_serenity&#45;&gt;return_result -->
<g id="edge49" class="edge">
<title>linux_serenity&#45;&gt;return_result</title>
<path fill="none" stroke="black" d="M288.47,-454.86C300.87,-449.96 313.63,-444 324.77,-437 344.47,-424.62 342.05,-411.57 362.77,-401 400.29,-381.86 446.83,-373.11 484.09,-369.14"/>
<polygon fill="black" stroke="black" points="484.73,-372.59 494.34,-368.14 484.05,-365.62 484.73,-372.59"/>
</g>
<!-- solaris_illumos&#45;&gt;return_result -->
<g id="edge19" class="edge">
<title>solaris_illumos&#45;&gt;return_result</title>
<path fill="none" stroke="black" d="M383.82,-454.74C379.33,-449.52 375.16,-443.46 372.77,-437 367.22,-421.99 362.62,-413.36 372.77,-401 386.98,-383.71 440.46,-374.82 484.95,-370.33"/>
<polygon fill="black" stroke="black" points="485.54,-373.8 495.16,-369.37 484.88,-366.83 485.54,-373.8"/>
<text text-anchor="middle" x="439.27" y="-416.5" font-family="Courier,monospace" font-size="10.00">Return readlink result</text>
</g>
<!-- solaris_illumos&#45;&gt;return_result -->
<g id="edge51" class="edge">
<title>solaris_illumos&#45;&gt;return_result</title>
<path fill="none" stroke="black" d="M474.25,-454.94C485.49,-450.29 496.46,-444.41 505.77,-437 520.49,-425.3 531.58,-407.25 538.95,-392.28"/>
<polygon fill="black" stroke="black" points="542.23,-393.52 543.25,-382.98 535.87,-390.58 542.23,-393.52"/>
</g>
<!-- freebsd_dragonfly&#45;&gt;return_result -->
<g id="edge20" class="edge">
<title>freebsd_dragonfly&#45;&gt;return_result</title>
<path fill="none" stroke="black" d="M568.06,-454.9C562.39,-449.83 557.09,-443.8 553.77,-437 547.24,-423.61 545.98,-407.05 546.47,-393.3"/>
<polygon fill="black" stroke="black" points="549.98,-393.2 547.17,-382.99 543,-392.73 549.98,-393.2"/>
<text text-anchor="middle" x="614.27" y="-416.5" font-family="Courier,monospace" font-size="10.00">Return sysctl result</text>
</g>
<!-- freebsd_dragonfly&#45;&gt;return_result -->
<g id="edge52" class="edge">
<title>freebsd_dragonfly&#45;&gt;return_result</title>
<path fill="none" stroke="black" d="M655.43,-454.9C663.07,-450.28 669.89,-444.42 674.77,-437 683.56,-423.63 684.44,-413.75 674.77,-401 666.37,-389.92 637,-381.38 608.85,-375.52"/>
<polygon fill="black" stroke="black" points="609.47,-372.07 598.98,-373.56 608.1,-378.94 609.47,-372.07"/>
</g>
<!-- netbsd&#45;&gt;return_result -->
<g id="edge21" class="edge">
<title>netbsd&#45;&gt;return_result</title>
<path fill="none" stroke="black" d="M745.57,-454.9C737.88,-449.56 729.72,-443.38 722.77,-437 707.44,-422.9 710.44,-412.03 692.77,-401 668.84,-386.06 638.95,-377.49 612.7,-372.59"/>
<polygon fill="black" stroke="black" points="613.29,-369.14 602.84,-370.88 612.1,-376.03 613.29,-369.14"/>
<text text-anchor="middle" x="783.27" y="-416.5" font-family="Courier,monospace" font-size="10.00">Return sysctl result</text>
</g>
<!-- netbsd&#45;&gt;return_result -->
<g id="edge53" class="edge">
<title>netbsd&#45;&gt;return_result</title>
<path fill="none" stroke="black" d="M825.19,-454.85C832.58,-450.21 839.2,-444.35 843.77,-437 852.22,-423.41 854.4,-412.96 843.77,-401 828.84,-384.18 696.92,-374 614.94,-369.24"/>
<polygon fill="black" stroke="black" points="614.89,-365.73 604.71,-368.66 614.5,-372.72 614.89,-365.73"/>
</g>
<!-- argv_check -->
<g id="node20" class="node">
<title>argv_check</title>
<polygon fill="none" stroke="black" points="897.77,-383 783.67,-365 897.77,-347 1011.88,-365 897.77,-383"/>
<text text-anchor="middle" x="897.77" y="-362.5" font-family="Courier,monospace" font-size="10.00">argv[0] contains &#39;/&#39;</text>
</g>
<!-- openbsd_haiku&#45;&gt;argv_check -->
<g id="edge22" class="edge">
<title>openbsd_haiku&#45;&gt;argv_check</title>
<path fill="none" stroke="black" d="M912.08,-454.87C906.3,-449.87 901,-443.88 897.77,-437 891.36,-423.3 891.09,-406.42 892.56,-392.56"/>
<polygon fill="black" stroke="black" points="896.02,-393.03 893.94,-382.65 889.09,-392.07 896.02,-393.03"/>
<text text-anchor="middle" x="937.27" y="-416.5" font-family="Courier,monospace" font-size="10.00">Check argv[0]</text>
</g>
<!-- openbsd_haiku&#45;&gt;argv_check -->
<g id="edge36" class="edge">
<title>openbsd_haiku&#45;&gt;argv_check</title>
<path fill="none" stroke="black" d="M963.84,-454.7C969.08,-449.64 973.91,-443.66 976.77,-437 983.1,-422.3 985.5,-414.41 976.77,-401 970.82,-391.85 961.88,-385.08 952.12,-380.07"/>
<polygon fill="black" stroke="black" points="953.54,-376.87 942.99,-375.94 950.66,-383.25 953.54,-376.87"/>
</g>
<!-- resolve_symlink -->
<g id="node27" class="node">
<title>resolve_symlink</title>
<polygon fill="none" stroke="black" points="1186.27,-383 1079.27,-383 1079.27,-347 1186.27,-347 1186.27,-383"/>
<text text-anchor="middle" x="1132.77" y="-362.5" font-family="Courier,monospace" font-size="10.00">resolve_symlink</text>
</g>
<!-- windows_path&#45;&gt;resolve_symlink -->
<g id="edge29" class="edge">
<title>windows_path&#45;&gt;resolve_symlink</title>
<path fill="none" stroke="black" d="M1048.05,-454.93C1040.23,-450.25 1033.24,-444.38 1027.77,-437 1018.25,-424.14 1018.42,-413.98 1027.77,-401 1037.64,-387.32 1053.08,-378.9 1069.12,-373.75"/>
<polygon fill="black" stroke="black" points="1070.45,-377.01 1079.14,-370.95 1068.57,-370.27 1070.45,-377.01"/>
<text text-anchor="middle" x="1082.27" y="-416.5" font-family="Courier,monospace" font-size="10.00">Resolve image path</text>
</g>
<!-- windows_path&#45;&gt;resolve_symlink -->
<g id="edge46" class="edge">
<title>windows_path&#45;&gt;resolve_symlink</title>
<path fill="none" stroke="black" d="M1141.46,-454.77C1140.33,-440.38 1138.6,-419.34 1136.77,-401 1136.52,-398.44 1136.24,-395.78 1135.95,-393.12"/>
<polygon fill="black" stroke="black" points="1139.42,-392.63 1134.83,-383.08 1132.46,-393.41 1139.42,-392.63"/>
</g>
<!-- compile_error&#45;&gt;end -->
<g id="edge56" class="edge">
<title>compile_error&#45;&gt;end</title>
<path fill="none" stroke="black" d="M1281.51,-400.74C1281.22,-379.76 1280.77,-343.29 1280.77,-312 1280.77,-312 1280.77,-312 1280.77,-90 1280.77,-28.98 815.24,-20.4 678.26,-19.2"/>
<polygon fill="black" stroke="black" points="677.89,-15.69 667.87,-19.11 677.84,-22.69 677.89,-15.69"/>
</g>
<!-- return_result&#45;&gt;end -->
<g id="edge50" class="edge">
<title>return_result&#45;&gt;end</title>
<path fill="none" stroke="black" d="M549.77,-346.74C549.77,-325.76 549.77,-289.28 549.77,-258 549.77,-258 549.77,-258 549.77,-90 549.77,-59.97 580.96,-40.77 606.81,-30.01"/>
<polygon fill="black" stroke="black" points="608.33,-33.17 616.39,-26.29 605.8,-26.65 608.33,-33.17"/>
</g>
<!-- realpath_argv -->
<g id="node21" class="node">
<title>realpath_argv</title>
<polygon fill="none" stroke="black" points="891.27,-275 742.27,-275 742.27,-239 891.27,-239 891.27,-275"/>
<text text-anchor="middle" x="816.77" y="-254.5" font-family="Courier,monospace" font-size="10.00">Call realpath(argv[0])</text>
</g>
<!-- argv_check&#45;&gt;realpath_argv -->
<g id="edge23" class="edge">
<title>argv_check&#45;&gt;realpath_argv</title>
<path fill="none" stroke="black" d="M873.76,-350.53C865.05,-344.76 855.67,-337.41 848.77,-329 838.15,-316.05 830.31,-299 825.05,-284.85"/>
<polygon fill="black" stroke="black" points="828.27,-283.46 821.68,-275.17 821.66,-285.76 828.27,-283.46"/>
<text text-anchor="middle" x="858.27" y="-308.5" font-family="Courier,monospace" font-size="10.00">Yes</text>
</g>
<!-- argv_check&#45;&gt;realpath_argv -->
<g id="edge37" class="edge">
<title>argv_check&#45;&gt;realpath_argv</title>
<path fill="none" stroke="black" d="M893.66,-347.37C889.23,-332 880.97,-309.17 867.77,-293 864.29,-288.74 860.16,-284.78 855.78,-281.17"/>
<polygon fill="black" stroke="black" points="857.8,-278.31 847.71,-275.07 853.58,-283.89 857.8,-278.31"/>
<text text-anchor="middle" x="897.27" y="-308.5" font-family="Courier,monospace" font-size="10.00">Yes</text>
</g>
<!-- search_path -->
<g id="node24" class="node">
<title>search_path</title>
<polygon fill="none" stroke="black" points="1021.27,-192 920.27,-192 920.27,-156 1021.27,-156 1021.27,-192"/>
<text text-anchor="middle" x="970.77" y="-171.5" font-family="Courier,monospace" font-size="10.00">Search in PATH</text>
</g>
<!-- argv_check&#45;&gt;search_path -->
<g id="edge26" class="edge">
<title>argv_check&#45;&gt;search_path</title>
<path fill="none" stroke="black" d="M903.97,-347.66C906.17,-341.79 908.62,-335.11 910.77,-329 924.78,-289.23 925.13,-278.16 940.77,-239 945.82,-226.36 952.13,-212.65 957.66,-201.18"/>
<polygon fill="black" stroke="black" points="960.83,-202.67 962.07,-192.14 954.54,-199.59 960.83,-202.67"/>
<text text-anchor="middle" x="947.27" y="-254.5" font-family="Courier,monospace" font-size="10.00">No</text>
</g>
<!-- argv_check&#45;&gt;search_path -->
<g id="edge41" class="edge">
<title>argv_check&#45;&gt;search_path</title>
<path fill="none" stroke="black" d="M913.83,-349.32C919.68,-343.41 926.02,-336.27 930.77,-329 956.45,-289.75 965.67,-234.81 968.96,-202.27"/>
<polygon fill="black" stroke="black" points="972.46,-202.42 969.86,-192.15 965.49,-201.79 972.46,-202.42"/>
<text text-anchor="middle" x="970.27" y="-254.5" font-family="Courier,monospace" font-size="10.00">No</text>
</g>
<!-- check_realpath_error_haiku -->
<g id="node22" class="node">
<title>check_realpath_error_haiku</title>
<polygon fill="none" stroke="black" points="741.77,-192 597.73,-174 741.77,-156 885.82,-174 741.77,-192"/>
<text text-anchor="middle" x="741.77" y="-171.5" font-family="Courier,monospace" font-size="10.00">check_realpath_error_haiku</text>
</g>
<!-- realpath_argv&#45;&gt;check_realpath_error_haiku -->
<g id="edge24" class="edge">
<title>realpath_argv&#45;&gt;check_realpath_error_haiku</title>
<path fill="none" stroke="black" d="M750.13,-238.76C742.51,-234.17 735.72,-228.36 730.77,-221 726.77,-215.05 726.78,-207.8 728.53,-200.84"/>
<polygon fill="black" stroke="black" points="731.97,-201.62 732.07,-191.02 725.39,-199.24 731.97,-201.62"/>
<text text-anchor="middle" x="767.27" y="-213" font-family="Courier,monospace" font-size="10.00">Handle error</text>
</g>
<!-- realpath_argv&#45;&gt;check_realpath_error_haiku -->
<g id="edge38" class="edge">
<title>realpath_argv&#45;&gt;check_realpath_error_haiku</title>
<path fill="none" stroke="black" d="M815.12,-238.82C813.49,-229.49 810.24,-218.22 803.77,-210 798.45,-203.22 791.43,-197.54 784.02,-192.86"/>
<polygon fill="black" stroke="black" points="785.66,-189.77 775.24,-187.82 782.17,-195.84 785.66,-189.77"/>
</g>
<!-- copy_result_haiku -->
<g id="node23" class="node">
<title>copy_result_haiku</title>
<ellipse fill="none" stroke="black" cx="675.77" cy="-91" rx="98.11" ry="18"/>
<text text-anchor="middle" x="675.77" y="-88.5" font-family="Courier,monospace" font-size="10.00">Copy to buffer and return</text>
</g>
<!-- check_realpath_error_haiku&#45;&gt;copy_result_haiku -->
<g id="edge25" class="edge">
<title>check_realpath_error_haiku&#45;&gt;copy_result_haiku</title>
<path fill="none" stroke="black" d="M703.5,-160.69C693.06,-155.41 682.93,-148.06 676.77,-138 673.46,-132.59 672.11,-126.11 671.82,-119.74"/>
<polygon fill="black" stroke="black" points="675.33,-119.45 672.17,-109.34 668.33,-119.21 675.33,-119.45"/>
<text text-anchor="middle" x="698.27" y="-130" font-family="Courier,monospace" font-size="10.00">Success</text>
</g>
<!-- check_realpath_error_haiku&#45;&gt;copy_result_haiku -->
<g id="edge39" class="edge">
<title>check_realpath_error_haiku&#45;&gt;copy_result_haiku</title>
<path fill="none" stroke="black" d="M736.07,-156.65C732.33,-147.36 726.83,-135.86 719.77,-127 716.51,-122.91 712.69,-118.99 708.68,-115.36"/>
<polygon fill="black" stroke="black" points="710.74,-112.52 700.84,-108.75 706.23,-117.87 710.74,-112.52"/>
<text text-anchor="middle" x="749.27" y="-130" font-family="Courier,monospace" font-size="10.00">Success</text>
</g>
<!-- error_filenotfound -->
<g id="node26" class="node">
<title>error_filenotfound</title>
<ellipse fill="none" stroke="black" cx="890.77" cy="-91" rx="98.11" ry="18"/>
<text text-anchor="middle" x="890.77" y="-88.5" font-family="Courier,monospace" font-size="10.00">return error.FileNotFound</text>
</g>
<!-- check_realpath_error_haiku&#45;&gt;error_filenotfound -->
<g id="edge40" class="edge">
<title>check_realpath_error_haiku&#45;&gt;error_filenotfound</title>
<path fill="none" stroke="black" d="M767.39,-159.08C790.61,-146.45 825.18,-127.66 851.82,-113.18"/>
<polygon fill="black" stroke="black" points="853.77,-116.1 860.89,-108.25 850.43,-109.95 853.77,-116.1"/>
<text text-anchor="middle" x="841.27" y="-130" font-family="Courier,monospace" font-size="10.00">Error</text>
</g>
<!-- found_in_path -->
<g id="node25" class="node">
<title>found_in_path</title>
<ellipse fill="none" stroke="black" cx="1080.77" cy="-91" rx="73.67" ry="18"/>
<text text-anchor="middle" x="1080.77" y="-88.5" font-family="Courier,monospace" font-size="10.00">Resolve and return</text>
</g>
<!-- search_path&#45;&gt;found_in_path -->
<g id="edge27" class="edge">
<title>search_path&#45;&gt;found_in_path</title>
<path fill="none" stroke="black" d="M992.55,-155.95C1003.86,-147.18 1017.96,-136.39 1030.77,-127 1036.52,-122.79 1042.69,-118.38 1048.67,-114.17"/>
<polygon fill="black" stroke="black" points="1051.04,-116.78 1057.22,-108.17 1047.03,-111.04 1051.04,-116.78"/>
<text text-anchor="middle" x="1046.27" y="-130" font-family="Courier,monospace" font-size="10.00">Found</text>
</g>
<!-- search_path&#45;&gt;found_in_path -->
<g id="edge42" class="edge">
<title>search_path&#45;&gt;found_in_path</title>
<path fill="none" stroke="black" d="M1021.71,-161.53C1036.06,-156.29 1050.75,-148.76 1061.77,-138 1067.09,-132.81 1070.98,-125.92 1073.8,-119.05"/>
<polygon fill="black" stroke="black" points="1077.25,-119.8 1077.21,-109.21 1070.63,-117.51 1077.25,-119.8"/>
<text text-anchor="middle" x="1086.27" y="-130" font-family="Courier,monospace" font-size="10.00">Found</text>
</g>
<!-- search_path&#45;&gt;error_filenotfound -->
<g id="edge28" class="edge">
<title>search_path&#45;&gt;error_filenotfound</title>
<path fill="none" stroke="black" d="M920.12,-166.48C902.84,-161.56 885.25,-152.97 874.77,-138 870.74,-132.23 871.02,-125.34 873.24,-118.68"/>
<polygon fill="black" stroke="black" points="876.59,-119.77 877.61,-109.23 870.24,-116.84 876.59,-119.77"/>
<text text-anchor="middle" x="902.27" y="-130" font-family="Courier,monospace" font-size="10.00">Not found</text>
</g>
<!-- search_path&#45;&gt;error_filenotfound -->
<g id="edge43" class="edge">
<title>search_path&#45;&gt;error_filenotfound</title>
<path fill="none" stroke="black" d="M956.41,-155.98C948.73,-147.12 938.99,-136.24 929.77,-127 926.02,-123.23 921.94,-119.36 917.89,-115.62"/>
<polygon fill="black" stroke="black" points="919.97,-112.79 910.21,-108.68 915.28,-117.98 919.97,-112.79"/>
<text text-anchor="middle" x="968.27" y="-130" font-family="Courier,monospace" font-size="10.00">Not found</text>
</g>
<!-- found_in_path&#45;&gt;end -->
<g id="edge44" class="edge">
<title>found_in_path&#45;&gt;end</title>
<path fill="none" stroke="black" d="M1027.27,-78.62C1017.48,-76.65 1007.33,-74.7 997.77,-73 881.15,-52.25 742.16,-32.71 677.39,-23.9"/>
<polygon fill="black" stroke="black" points="677.65,-20.4 667.28,-22.53 676.72,-27.34 677.65,-20.4"/>
</g>
<!-- error_filenotfound&#45;&gt;end -->
<g id="edge45" class="edge">
<title>error_filenotfound&#45;&gt;end</title>
<path fill="none" stroke="black" d="M839.88,-75.55C790.69,-61.57 717.52,-40.8 674.94,-28.7"/>
<polygon fill="black" stroke="black" points="675.63,-25.26 665.06,-25.9 673.72,-32 675.63,-25.26"/>
</g>
<!-- return_result_win -->
<g id="node28" class="node">
<title>return_result_win</title>
<ellipse fill="none" stroke="black" cx="1182.77" cy="-257" rx="70.1" ry="18"/>
<text text-anchor="middle" x="1182.77" y="-254.5" font-family="Courier,monospace" font-size="10.00">return_result_win</text>
</g>
<!-- resolve_symlink&#45;&gt;return_result_win -->
<g id="edge30" class="edge">
<title>resolve_symlink&#45;&gt;return_result_win</title>
<path fill="none" stroke="black" d="M1121.46,-346.83C1113.05,-331.73 1104.64,-309.61 1114.77,-293 1118.77,-286.45 1124.42,-281.08 1130.78,-276.68"/>
<polygon fill="black" stroke="black" points="1133.02,-279.42 1139.8,-271.27 1129.42,-273.41 1133.02,-279.42"/>
<text text-anchor="middle" x="1160.27" y="-308.5" font-family="Courier,monospace" font-size="10.00">Return realpath</text>
</g>
<!-- resolve_symlink&#45;&gt;return_result_win -->
<g id="edge47" class="edge">
<title>resolve_symlink&#45;&gt;return_result_win</title>
<path fill="none" stroke="black" d="M1186.28,-347.31C1194.02,-342.61 1200.98,-336.61 1205.77,-329 1214.5,-315.15 1209.01,-297.68 1201.21,-283.53"/>
<polygon fill="black" stroke="black" points="1204.08,-281.51 1195.88,-274.79 1198.1,-285.15 1204.08,-281.51"/>
</g>
<!-- return_result_win&#45;&gt;end -->
<g id="edge48" class="edge">
<title>return_result_win&#45;&gt;end</title>
<path fill="none" stroke="black" d="M1187.18,-238.96C1195.41,-202.73 1208.51,-117.71 1163.77,-73 1129.49,-38.74 792.08,-24.16 678.14,-20.18"/>
<polygon fill="black" stroke="black" points="677.94,-16.68 667.83,-19.83 677.7,-23.67 677.94,-16.68"/>
</g>
</g>
</svg>
