<?xml version="1.0" encoding="UTF-8" standalone="no"?>
<!DOCTYPE svg PUBLIC "-//W3C//DTD SVG 1.1//EN"
 "http://www.w3.org/Graphics/SVG/1.1/DTD/svg11.dtd">
<!-- Generated by graphviz version 2.43.0 (0)
 -->
<!-- Title: MemoryPoolExtra Pages: 1 -->
<svg width="1788pt" height="218pt"
 viewBox="0.00 0.00 1788.05 218.00" xmlns="http://www.w3.org/2000/svg" xmlns:xlink="http://www.w3.org/1999/xlink">
<g id="graph0" class="graph" transform="scale(1 1) rotate(0) translate(4 214)">
<title>MemoryPoolExtra</title>
<polygon fill="white" stroke="transparent" points="-4,4 -4,-214 1784.05,-214 1784.05,4 -4,4"/>
<!-- init -->
<g id="node1" class="node">
<title>init</title>
<path fill="none" stroke="black" d="M1016.5,-210C1016.5,-210 927.5,-210 927.5,-210 921.5,-210 915.5,-204 915.5,-198 915.5,-198 915.5,-186 915.5,-186 915.5,-180 921.5,-174 927.5,-174 927.5,-174 1016.5,-174 1016.5,-174 1022.5,-174 1028.5,-180 1028.5,-186 1028.5,-186 1028.5,-198 1028.5,-198 1028.5,-204 1022.5,-210 1016.5,-210"/>
<text text-anchor="middle" x="972" y="-188.3" font-family="Times,serif" font-size="14.00">init(allocator)</text>
</g>
<!-- initPreheated -->
<g id="node2" class="node">
<title>initPreheated</title>
<path fill="none" stroke="black" d="M1337,-210C1337,-210 1091,-210 1091,-210 1085,-210 1079,-204 1079,-198 1079,-198 1079,-186 1079,-186 1079,-180 1085,-174 1091,-174 1091,-174 1337,-174 1337,-174 1343,-174 1349,-180 1349,-186 1349,-186 1349,-198 1349,-198 1349,-204 1343,-210 1337,-210"/>
<text text-anchor="middle" x="1214" y="-188.3" font-family="Times,serif" font-size="14.00">initPreheated(allocator, initial_size)</text>
</g>
<!-- init&#45;&gt;initPreheated -->
<g id="edge1" class="edge">
<title>init&#45;&gt;initPreheated</title>
<path fill="none" stroke="black" d="M1028.74,-192C1040.99,-192 1054.48,-192 1068.43,-192"/>
<polygon fill="black" stroke="black" points="1068.66,-195.5 1078.66,-192 1068.66,-188.5 1068.66,-195.5"/>
<text text-anchor="middle" x="1053.75" y="-198.8" font-family="Times,serif" font-size="14.00">calls</text>
</g>
<!-- preheat -->
<g id="node3" class="node">
<title>preheat</title>
<path fill="none" stroke="black" d="M858,-123C858,-123 772,-123 772,-123 766,-123 760,-117 760,-111 760,-111 760,-99 760,-99 760,-93 766,-87 772,-87 772,-87 858,-87 858,-87 864,-87 870,-93 870,-99 870,-99 870,-111 870,-111 870,-117 864,-123 858,-123"/>
<text text-anchor="middle" x="815" y="-101.3" font-family="Times,serif" font-size="14.00">preheat(size)</text>
</g>
<!-- initPreheated&#45;&gt;preheat -->
<g id="edge2" class="edge">
<title>initPreheated&#45;&gt;preheat</title>
<path fill="none" stroke="black" d="M1133.74,-173.9C1059.12,-158.01 949.36,-134.62 880.07,-119.86"/>
<polygon fill="black" stroke="black" points="880.66,-116.41 870.15,-117.75 879.2,-123.25 880.66,-116.41"/>
<text text-anchor="middle" x="1092.5" y="-144.8" font-family="Times,serif" font-size="14.00">calls (errdefer)</text>
</g>
<!-- deinit -->
<g id="node7" class="node">
<title>deinit</title>
<path fill="none" stroke="black" d="M1502,-123C1502,-123 1458,-123 1458,-123 1452,-123 1446,-117 1446,-111 1446,-111 1446,-99 1446,-99 1446,-93 1452,-87 1458,-87 1458,-87 1502,-87 1502,-87 1508,-87 1514,-93 1514,-99 1514,-99 1514,-111 1514,-111 1514,-117 1508,-123 1502,-123"/>
<text text-anchor="middle" x="1480" y="-101.3" font-family="Times,serif" font-size="14.00">deinit()</text>
</g>
<!-- initPreheated&#45;&gt;deinit -->
<g id="edge3" class="edge">
<title>initPreheated&#45;&gt;deinit</title>
<path fill="none" stroke="black" d="M1267.51,-173.9C1317.12,-158.05 1390.04,-134.75 1436.25,-119.98"/>
<polygon fill="black" stroke="black" points="1437.52,-123.25 1445.98,-116.87 1435.39,-116.58 1437.52,-123.25"/>
<text text-anchor="middle" x="1392.5" y="-144.8" font-family="Times,serif" font-size="14.00">on error</text>
</g>
<!-- allocNew -->
<g id="node8" class="node">
<title>allocNew</title>
<path fill="none" stroke="black" d="M368,-36C368,-36 300,-36 300,-36 294,-36 288,-30 288,-24 288,-24 288,-12 288,-12 288,-6 294,0 300,0 300,0 368,0 368,0 374,0 380,-6 380,-12 380,-12 380,-24 380,-24 380,-30 374,-36 368,-36"/>
<text text-anchor="middle" x="334" y="-14.3" font-family="Times,serif" font-size="14.00">allocNew()</text>
</g>
<!-- preheat&#45;&gt;allocNew -->
<g id="edge4" class="edge">
<title>preheat&#45;&gt;allocNew</title>
<path fill="none" stroke="black" d="M759.75,-103.21C663.02,-101.18 467.26,-94.02 404,-69 394,-65.04 393.66,-60.38 385,-54 379.54,-49.98 373.67,-45.81 367.92,-41.81"/>
<polygon fill="black" stroke="black" points="369.88,-38.91 359.66,-36.12 365.91,-44.67 369.88,-38.91"/>
<text text-anchor="middle" x="467.5" y="-57.8" font-family="Times,serif" font-size="14.00">allocates memory</text>
</g>
<!-- free_list -->
<g id="node9" class="node">
<title>free_list</title>
<ellipse fill="none" stroke="black" cx="815" cy="-18" rx="48.19" ry="18"/>
<text text-anchor="middle" x="815" y="-14.3" font-family="Times,serif" font-size="14.00">free_list</text>
</g>
<!-- preheat&#45;&gt;free_list -->
<g id="edge5" class="edge">
<title>preheat&#45;&gt;free_list</title>
<path fill="none" stroke="black" d="M815,-86.8C815,-75.16 815,-59.55 815,-46.24"/>
<polygon fill="black" stroke="black" points="818.5,-46.18 815,-36.18 811.5,-46.18 818.5,-46.18"/>
<text text-anchor="middle" x="844" y="-57.8" font-family="Times,serif" font-size="14.00">updates</text>
</g>
<!-- create -->
<g id="node4" class="node">
<title>create</title>
<path fill="none" stroke="black" d="M433,-123C433,-123 385,-123 385,-123 379,-123 373,-117 373,-111 373,-111 373,-99 373,-99 373,-93 379,-87 385,-87 385,-87 433,-87 433,-87 439,-87 445,-93 445,-99 445,-99 445,-111 445,-111 445,-117 439,-123 433,-123"/>
<text text-anchor="middle" x="409" y="-101.3" font-family="Times,serif" font-size="14.00">create()</text>
</g>
<!-- create&#45;&gt;allocNew -->
<g id="edge7" class="edge">
<title>create&#45;&gt;allocNew</title>
<path fill="none" stroke="black" d="M372.98,-100.48C334,-95.85 275.58,-86.19 262,-69 251.97,-56.3 262.69,-45.53 278.65,-37.27"/>
<polygon fill="black" stroke="black" points="280.37,-40.33 287.96,-32.94 277.42,-33.98 280.37,-40.33"/>
<text text-anchor="middle" x="323.5" y="-57.8" font-family="Times,serif" font-size="14.00">if growable=true</text>
</g>
<!-- create&#45;&gt;free_list -->
<g id="edge6" class="edge">
<title>create&#45;&gt;free_list</title>
<path fill="none" stroke="black" d="M445.05,-97.08C470.82,-91.4 505.93,-82.14 535,-69 546.12,-63.97 546.56,-58.26 558,-54 623.08,-29.76 703.01,-22.02 756.29,-19.7"/>
<polygon fill="black" stroke="black" points="756.72,-23.19 766.58,-19.31 756.45,-16.19 756.72,-23.19"/>
<text text-anchor="middle" x="614" y="-57.8" font-family="Times,serif" font-size="14.00">checks if empty</text>
</g>
<!-- create&#45;&gt;free_list -->
<g id="edge9" class="edge">
<title>create&#45;&gt;free_list</title>
<path fill="none" stroke="black" d="M445.35,-101.63C496.21,-97.75 591.22,-88.45 670,-69 688.84,-64.35 692.69,-60.43 711,-54 730.35,-47.21 751.82,-39.94 770.2,-33.79"/>
<polygon fill="black" stroke="black" points="771.4,-37.08 779.78,-30.6 769.19,-30.44 771.4,-37.08"/>
<text text-anchor="middle" x="761" y="-57.8" font-family="Times,serif" font-size="14.00">removes node</text>
</g>
<!-- error_oom -->
<g id="node10" class="node">
<title>error_oom</title>
<path fill="none" stroke="black" d="M78,-36C78,-36 12,-36 12,-36 6,-36 0,-30 0,-24 0,-24 0,-12 0,-12 0,-6 6,0 12,0 12,0 78,0 78,0 84,0 90,-6 90,-12 90,-12 90,-24 90,-24 90,-30 84,-36 78,-36"/>
<text text-anchor="middle" x="45" y="-14.3" font-family="Times,serif" font-size="14.00">error_oom</text>
</g>
<!-- create&#45;&gt;error_oom -->
<g id="edge8" class="edge">
<title>create&#45;&gt;error_oom</title>
<path fill="none" stroke="black" d="M372.7,-102.54C288.65,-98.85 85.96,-88.05 62,-69 54.88,-63.34 50.73,-54.56 48.31,-45.93"/>
<polygon fill="black" stroke="black" points="51.71,-45.1 46.19,-36.06 44.87,-46.57 51.71,-45.1"/>
<text text-anchor="middle" x="158.5" y="-57.8" font-family="Times,serif" font-size="14.00">else returns OutOfMemory</text>
</g>
<!-- destroy -->
<g id="node5" class="node">
<title>destroy</title>
<path fill="none" stroke="black" d="M1038.5,-123C1038.5,-123 959.5,-123 959.5,-123 953.5,-123 947.5,-117 947.5,-111 947.5,-111 947.5,-99 947.5,-99 947.5,-93 953.5,-87 959.5,-87 959.5,-87 1038.5,-87 1038.5,-87 1044.5,-87 1050.5,-93 1050.5,-99 1050.5,-99 1050.5,-111 1050.5,-111 1050.5,-117 1044.5,-123 1038.5,-123"/>
<text text-anchor="middle" x="999" y="-101.3" font-family="Times,serif" font-size="14.00">destroy(ptr)</text>
</g>
<!-- destroy&#45;&gt;free_list -->
<g id="edge10" class="edge">
<title>destroy&#45;&gt;free_list</title>
<path fill="none" stroke="black" d="M947.42,-89.06C930.96,-83.56 912.9,-76.76 897,-69 886.03,-63.65 884.36,-60.45 874,-54 865.91,-48.96 857.11,-43.65 848.83,-38.74"/>
<polygon fill="black" stroke="black" points="850.51,-35.66 840.12,-33.58 846.94,-41.69 850.51,-35.66"/>
<text text-anchor="middle" x="952.5" y="-57.8" font-family="Times,serif" font-size="14.00">adds node back</text>
</g>
<!-- ptr_undefined -->
<g id="node11" class="node">
<title>ptr_undefined</title>
<path fill="none" stroke="black" d="M1188,-36C1188,-36 1096,-36 1096,-36 1090,-36 1084,-30 1084,-24 1084,-24 1084,-12 1084,-12 1084,-6 1090,0 1096,0 1096,0 1188,0 1188,0 1194,0 1200,-6 1200,-12 1200,-12 1200,-24 1200,-24 1200,-30 1194,-36 1188,-36"/>
<text text-anchor="middle" x="1142" y="-14.3" font-family="Times,serif" font-size="14.00">ptr_undefined</text>
</g>
<!-- destroy&#45;&gt;ptr_undefined -->
<g id="edge11" class="edge">
<title>destroy&#45;&gt;ptr_undefined</title>
<path fill="none" stroke="black" d="M1050.73,-101.1C1076.33,-97.11 1105.95,-88.24 1126,-69 1132.36,-62.9 1136.19,-54.27 1138.51,-45.9"/>
<polygon fill="black" stroke="black" points="1141.96,-46.51 1140.64,-36 1135.11,-45.04 1141.96,-46.51"/>
<text text-anchor="middle" x="1177" y="-57.8" font-family="Times,serif" font-size="14.00">resets item</text>
</g>
<!-- reset -->
<g id="node6" class="node">
<title>reset</title>
<path fill="none" stroke="black" d="M1207.5,-123C1207.5,-123 1128.5,-123 1128.5,-123 1122.5,-123 1116.5,-117 1116.5,-111 1116.5,-111 1116.5,-99 1116.5,-99 1116.5,-93 1122.5,-87 1128.5,-87 1128.5,-87 1207.5,-87 1207.5,-87 1213.5,-87 1219.5,-93 1219.5,-99 1219.5,-99 1219.5,-111 1219.5,-111 1219.5,-117 1213.5,-123 1207.5,-123"/>
<text text-anchor="middle" x="1168" y="-101.3" font-family="Times,serif" font-size="14.00">reset(mode)</text>
</g>
<!-- reset&#45;&gt;free_list -->
<g id="edge13" class="edge">
<title>reset&#45;&gt;free_list</title>
<path fill="none" stroke="black" d="M1116.26,-96.6C1088.77,-91.34 1054.97,-82.71 1027,-69 1017.34,-64.26 1017.81,-58.42 1008,-54 965.03,-34.61 912.08,-25.96 872.53,-22.1"/>
<polygon fill="black" stroke="black" points="872.79,-18.61 862.52,-21.19 872.16,-25.58 872.79,-18.61"/>
<text text-anchor="middle" x="1074.5" y="-57.8" font-family="Times,serif" font-size="14.00">resets to null</text>
</g>
<!-- arena_reset -->
<g id="node12" class="node">
<title>arena_reset</title>
<path fill="none" stroke="black" d="M1307.5,-36C1307.5,-36 1230.5,-36 1230.5,-36 1224.5,-36 1218.5,-30 1218.5,-24 1218.5,-24 1218.5,-12 1218.5,-12 1218.5,-6 1224.5,0 1230.5,0 1230.5,0 1307.5,0 1307.5,0 1313.5,0 1319.5,-6 1319.5,-12 1319.5,-12 1319.5,-24 1319.5,-24 1319.5,-30 1313.5,-36 1307.5,-36"/>
<text text-anchor="middle" x="1269" y="-14.3" font-family="Times,serif" font-size="14.00">arena_reset</text>
</g>
<!-- reset&#45;&gt;arena_reset -->
<g id="edge12" class="edge">
<title>reset&#45;&gt;arena_reset</title>
<path fill="none" stroke="black" d="M1207.67,-86.86C1216.86,-81.87 1226.23,-75.87 1234,-69 1241.78,-62.13 1248.73,-53.19 1254.35,-44.78"/>
<polygon fill="black" stroke="black" points="1257.31,-46.63 1259.7,-36.31 1251.4,-42.89 1257.31,-46.63"/>
<text text-anchor="middle" x="1344.5" y="-57.8" font-family="Times,serif" font-size="14.00">calls ArenaAllocator.reset()</text>
</g>
<!-- arena_deinit -->
<g id="node13" class="node">
<title>arena_deinit</title>
<path fill="none" stroke="black" d="M1520.5,-36C1520.5,-36 1439.5,-36 1439.5,-36 1433.5,-36 1427.5,-30 1427.5,-24 1427.5,-24 1427.5,-12 1427.5,-12 1427.5,-6 1433.5,0 1439.5,0 1439.5,0 1520.5,0 1520.5,0 1526.5,0 1532.5,-6 1532.5,-12 1532.5,-12 1532.5,-24 1532.5,-24 1532.5,-30 1526.5,-36 1520.5,-36"/>
<text text-anchor="middle" x="1480" y="-14.3" font-family="Times,serif" font-size="14.00">arena_deinit</text>
</g>
<!-- deinit&#45;&gt;arena_deinit -->
<g id="edge14" class="edge">
<title>deinit&#45;&gt;arena_deinit</title>
<path fill="none" stroke="black" d="M1480,-86.8C1480,-75.16 1480,-59.55 1480,-46.24"/>
<polygon fill="black" stroke="black" points="1483.5,-46.18 1480,-36.18 1476.5,-46.18 1483.5,-46.18"/>
<text text-anchor="middle" x="1541.5" y="-57.8" font-family="Times,serif" font-size="14.00">releases memory</text>
</g>
<!-- pool_undefined -->
<g id="node14" class="node">
<title>pool_undefined</title>
<path fill="none" stroke="black" d="M1676,-36C1676,-36 1576,-36 1576,-36 1570,-36 1564,-30 1564,-24 1564,-24 1564,-12 1564,-12 1564,-6 1570,0 1576,0 1576,0 1676,0 1676,0 1682,0 1688,-6 1688,-12 1688,-12 1688,-24 1688,-24 1688,-30 1682,-36 1676,-36"/>
<text text-anchor="middle" x="1626" y="-14.3" font-family="Times,serif" font-size="14.00">pool_undefined</text>
</g>
<!-- deinit&#45;&gt;pool_undefined -->
<g id="edge15" class="edge">
<title>deinit&#45;&gt;pool_undefined</title>
<path fill="none" stroke="black" d="M1514.25,-102.17C1541.48,-99.03 1579.02,-90.72 1604,-69 1611,-62.92 1615.86,-54.19 1619.19,-45.72"/>
<polygon fill="black" stroke="black" points="1622.57,-46.67 1622.45,-36.08 1615.93,-44.44 1622.57,-46.67"/>
<text text-anchor="middle" x="1693" y="-57.8" font-family="Times,serif" font-size="14.00">sets pool to undefined</text>
</g>
<!-- arena -->
<g id="node15" class="node">
<title>arena</title>
<ellipse fill="none" stroke="black" cx="1743" cy="-18" rx="37.09" ry="18"/>
<text text-anchor="middle" x="1743" y="-14.3" font-family="Times,serif" font-size="14.00">arena</text>
</g>
</g>
</svg>
