<?xml version="1.0" encoding="UTF-8" standalone="no"?>
<!DOCTYPE svg PUBLIC "-//W3C//DTD SVG 1.1//EN"
 "http://www.w3.org/Graphics/SVG/1.1/DTD/svg11.dtd">
<!-- Generated by graphviz version 2.43.0 (0)
 -->
<!-- Title: DebugAllocatorFlow Pages: 1 -->
<svg width="1094pt" height="1012pt"
 viewBox="0.00 0.00 1094.00 1012.00" xmlns="http://www.w3.org/2000/svg" xmlns:xlink="http://www.w3.org/1999/xlink">
<g id="graph0" class="graph" transform="scale(1 1) rotate(0) translate(4 1008)">
<title>DebugAllocatorFlow</title>
<polygon fill="#f0f0f0" stroke="transparent" points="-4,4 -4,-1008 1090,-1008 1090,4 -4,4"/>
<g id="clust1" class="cluster">
<title>cluster_init</title>
<polygon fill="#f0f0f0" stroke="black" points="262,-714 262,-941 532,-941 532,-714 262,-714"/>
<text text-anchor="middle" x="397" y="-925.8" font-family="Arial" font-size="14.00">初始化阶段</text>
</g>
<g id="clust2" class="cluster">
<title>cluster_alloc</title>
<polygon fill="#f0f0f0" stroke="black" points="8,-264 8,-622 397,-622 397,-264 8,-264"/>
<text text-anchor="middle" x="202.5" y="-606.8" font-family="Arial" font-size="14.00">内存分配(alloc)</text>
</g>
<g id="clust3" class="cluster">
<title>cluster_free</title>
<polygon fill="#f0f0f0" stroke="black" points="840,-154 840,-526 1078,-526 1078,-154 840,-154"/>
<text text-anchor="middle" x="959" y="-510.8" font-family="Arial" font-size="14.00">内存释放(free)</text>
</g>
<g id="clust4" class="cluster">
<title>cluster_leak_check</title>
<polygon fill="#f0f0f0" stroke="black" points="405,-65 405,-341 553,-341 553,-65 405,-65"/>
<text text-anchor="middle" x="479" y="-325.8" font-family="Arial" font-size="14.00">内存泄漏检测</text>
</g>
<g id="clust5" class="cluster">
<title>cluster_resize</title>
<polygon fill="#f0f0f0" stroke="black" points="561,-65 561,-231 832,-231 832,-65 561,-65"/>
<text text-anchor="middle" x="696.5" y="-215.8" font-family="Arial" font-size="14.00">内存调整(resize/remap)</text>
</g>
<!-- start -->
<g id="node1" class="node">
<title>start</title>
<ellipse fill="#4caf50" stroke="black" cx="397" cy="-986" rx="29.5" ry="18"/>
<text text-anchor="middle" x="397" y="-982.3" font-family="Arial" font-size="14.00">开始</text>
</g>
<!-- init_config -->
<g id="node3" class="node">
<title>init_config</title>
<path fill="#e8e8e8" stroke="black" d="M475,-910C475,-910 319,-910 319,-910 313,-910 307,-904 307,-898 307,-898 307,-884 307,-884 307,-878 313,-872 319,-872 319,-872 475,-872 475,-872 481,-872 487,-878 487,-884 487,-884 487,-898 487,-898 487,-904 481,-910 475,-910"/>
<text text-anchor="middle" x="397" y="-894.8" font-family="Arial" font-size="14.00">解析Config参数</text>
<text text-anchor="middle" x="397" y="-879.8" font-family="Arial" font-size="14.00">(page_size, thread_safe等)</text>
</g>
<!-- start&#45;&gt;init_config -->
<g id="edge1" class="edge">
<title>start&#45;&gt;init_config</title>
<path fill="none" stroke="black" d="M397,-967.94C397,-954.65 397,-935.9 397,-920.36"/>
<polygon fill="black" stroke="black" points="400.5,-920.22 397,-910.22 393.5,-920.22 400.5,-920.22"/>
</g>
<!-- end -->
<g id="node2" class="node">
<title>end</title>
<ellipse fill="#ff5252" stroke="black" cx="617" cy="-18" rx="29.5" ry="18"/>
<text text-anchor="middle" x="617" y="-14.3" font-family="Arial" font-size="14.00">结束</text>
</g>
<!-- init_buckets -->
<g id="node4" class="node">
<title>init_buckets</title>
<path fill="#e8e8e8" stroke="black" d="M452,-835C452,-835 342,-835 342,-835 336,-835 330,-829 330,-823 330,-823 330,-809 330,-809 330,-803 336,-797 342,-797 342,-797 452,-797 452,-797 458,-797 464,-803 464,-809 464,-809 464,-823 464,-823 464,-829 458,-835 452,-835"/>
<text text-anchor="middle" x="397" y="-819.8" font-family="Arial" font-size="14.00">初始化buckets数组</text>
<text text-anchor="middle" x="397" y="-804.8" font-family="Arial" font-size="14.00">(size_class计算)</text>
</g>
<!-- init_config&#45;&gt;init_buckets -->
<g id="edge2" class="edge">
<title>init_config&#45;&gt;init_buckets</title>
<path fill="none" stroke="black" d="M397,-871.96C397,-863.88 397,-854.18 397,-845.18"/>
<polygon fill="black" stroke="black" points="400.5,-845.09 397,-835.09 393.5,-845.09 400.5,-845.09"/>
</g>
<!-- init_mutex -->
<g id="node5" class="node">
<title>init_mutex</title>
<path fill="#e8e8e8" stroke="black" d="M512,-760C512,-760 282,-760 282,-760 276,-760 270,-754 270,-748 270,-748 270,-734 270,-734 270,-728 276,-722 282,-722 282,-722 512,-722 512,-722 518,-722 524,-728 524,-734 524,-734 524,-748 524,-748 524,-754 518,-760 512,-760"/>
<text text-anchor="middle" x="397" y="-744.8" font-family="Arial" font-size="14.00">初始化互斥锁</text>
<text text-anchor="middle" x="397" y="-729.8" font-family="Arial" font-size="14.00">(根据配置选择真实锁或DummyMutex)</text>
</g>
<!-- init_buckets&#45;&gt;init_mutex -->
<g id="edge3" class="edge">
<title>init_buckets&#45;&gt;init_mutex</title>
<path fill="none" stroke="black" d="M397,-796.96C397,-788.88 397,-779.18 397,-770.18"/>
<polygon fill="black" stroke="black" points="400.5,-770.09 397,-760.09 393.5,-770.09 400.5,-770.09"/>
</g>
<!-- alloc -->
<g id="node21" class="node">
<title>alloc</title>
<path fill="#e8e8e8" stroke="black" d="M412,-685C412,-685 382,-685 382,-685 376,-685 370,-679 370,-673 370,-673 370,-661 370,-661 370,-655 376,-649 382,-649 382,-649 412,-649 412,-649 418,-649 424,-655 424,-661 424,-661 424,-673 424,-673 424,-679 418,-685 412,-685"/>
<text text-anchor="middle" x="397" y="-663.3" font-family="Arial" font-size="14.00">alloc</text>
</g>
<!-- init_mutex&#45;&gt;alloc -->
<g id="edge4" class="edge">
<title>init_mutex&#45;&gt;alloc</title>
<path fill="none" stroke="black" d="M397,-721.83C397,-713.89 397,-704.41 397,-695.63"/>
<polygon fill="black" stroke="black" points="400.5,-695.42 397,-685.42 393.5,-695.42 400.5,-695.42"/>
</g>
<!-- check_memory_limit -->
<g id="node6" class="node">
<title>check_memory_limit</title>
<path fill="#e8e8e8" stroke="black" d="M362.5,-591C362.5,-591 183.5,-591 183.5,-591 177.5,-591 171.5,-585 171.5,-579 171.5,-579 171.5,-565 171.5,-565 171.5,-559 177.5,-553 183.5,-553 183.5,-553 362.5,-553 362.5,-553 368.5,-553 374.5,-559 374.5,-565 374.5,-565 374.5,-579 374.5,-579 374.5,-585 368.5,-591 362.5,-591"/>
<text text-anchor="middle" x="273" y="-575.8" font-family="Arial" font-size="14.00">检查内存限制</text>
<text text-anchor="middle" x="273" y="-560.8" font-family="Arial" font-size="14.00">(config.enable_memory_limit?)</text>
</g>
<!-- determine_size_class -->
<g id="node7" class="node">
<title>determine_size_class</title>
<path fill="#e8e8e8" stroke="black" d="M294,-495C294,-495 164,-495 164,-495 158,-495 152,-489 152,-483 152,-483 152,-469 152,-469 152,-463 158,-457 164,-457 164,-457 294,-457 294,-457 300,-457 306,-463 306,-469 306,-469 306,-483 306,-483 306,-489 300,-495 294,-495"/>
<text text-anchor="middle" x="229" y="-479.8" font-family="Arial" font-size="14.00">确定size_class</text>
<text text-anchor="middle" x="229" y="-464.8" font-family="Arial" font-size="14.00">(基于请求大小和对齐)</text>
</g>
<!-- check_memory_limit&#45;&gt;determine_size_class -->
<g id="edge6" class="edge">
<title>check_memory_limit&#45;&gt;determine_size_class</title>
<path fill="none" stroke="black" d="M264.52,-552.88C258.06,-539.09 249.08,-519.9 241.76,-504.26"/>
<polygon fill="black" stroke="black" points="244.87,-502.64 237.46,-495.07 238.53,-505.61 244.87,-502.64"/>
</g>
<!-- alloc_large -->
<g id="node8" class="node">
<title>alloc_large</title>
<path fill="#e8e8e8" stroke="black" d="M162.5,-406C162.5,-406 27.5,-406 27.5,-406 21.5,-406 15.5,-400 15.5,-394 15.5,-394 15.5,-380 15.5,-380 15.5,-374 21.5,-368 27.5,-368 27.5,-368 162.5,-368 162.5,-368 168.5,-368 174.5,-374 174.5,-380 174.5,-380 174.5,-394 174.5,-394 174.5,-400 168.5,-406 162.5,-406"/>
<text text-anchor="middle" x="95" y="-390.8" font-family="Arial" font-size="14.00">大内存分配</text>
<text text-anchor="middle" x="95" y="-375.8" font-family="Arial" font-size="14.00">(使用backing_allocator)</text>
</g>
<!-- determine_size_class&#45;&gt;alloc_large -->
<g id="edge7" class="edge">
<title>determine_size_class&#45;&gt;alloc_large</title>
<path fill="none" stroke="black" d="M151.85,-465.83C119,-460.18 85.95,-451.57 76,-439 70.54,-432.11 71.56,-423.5 75.07,-415.32"/>
<polygon fill="black" stroke="black" points="78.21,-416.85 79.87,-406.39 72.05,-413.54 78.21,-416.85"/>
<text text-anchor="middle" x="162" y="-427.8" font-family="Times,serif" font-size="14.00">size_class &gt;= threshold</text>
</g>
<!-- alloc_small -->
<g id="node9" class="node">
<title>alloc_small</title>
<path fill="#e8e8e8" stroke="black" d="M359.5,-406C359.5,-406 204.5,-406 204.5,-406 198.5,-406 192.5,-400 192.5,-394 192.5,-394 192.5,-380 192.5,-380 192.5,-374 198.5,-368 204.5,-368 204.5,-368 359.5,-368 359.5,-368 365.5,-368 371.5,-374 371.5,-380 371.5,-380 371.5,-394 371.5,-394 371.5,-400 365.5,-406 359.5,-406"/>
<text text-anchor="middle" x="282" y="-390.8" font-family="Arial" font-size="14.00">小内存分配</text>
<text text-anchor="middle" x="282" y="-375.8" font-family="Arial" font-size="14.00">(从buckets中选择空闲slot)</text>
</g>
<!-- determine_size_class&#45;&gt;alloc_small -->
<g id="edge8" class="edge">
<title>determine_size_class&#45;&gt;alloc_small</title>
<path fill="none" stroke="black" d="M239.98,-456.97C247.44,-444.73 257.44,-428.32 265.81,-414.58"/>
<polygon fill="black" stroke="black" points="268.82,-416.36 271.03,-406 262.84,-412.72 268.82,-416.36"/>
<text text-anchor="middle" x="338" y="-427.8" font-family="Times,serif" font-size="14.00">size_class &lt; threshold</text>
</g>
<!-- update_metadata -->
<g id="node10" class="node">
<title>update_metadata</title>
<path fill="#e8e8e8" stroke="black" d="M349,-310C349,-310 215,-310 215,-310 209,-310 203,-304 203,-298 203,-298 203,-284 203,-284 203,-278 209,-272 215,-272 215,-272 349,-272 349,-272 355,-272 361,-278 361,-284 361,-284 361,-298 361,-298 361,-304 355,-310 349,-310"/>
<text text-anchor="middle" x="282" y="-294.8" font-family="Arial" font-size="14.00">更新元数据</text>
<text text-anchor="middle" x="282" y="-279.8" font-family="Arial" font-size="14.00">(记录栈跟踪/对齐信息)</text>
</g>
<!-- alloc_large&#45;&gt;update_metadata -->
<g id="edge9" class="edge">
<title>alloc_large&#45;&gt;update_metadata</title>
<path fill="none" stroke="black" d="M131.06,-367.88C161.19,-352.73 204.33,-331.04 236.78,-314.73"/>
<polygon fill="black" stroke="black" points="238.69,-317.69 246.06,-310.07 235.55,-311.43 238.69,-317.69"/>
</g>
<!-- alloc_small&#45;&gt;update_metadata -->
<g id="edge10" class="edge">
<title>alloc_small&#45;&gt;update_metadata</title>
<path fill="none" stroke="black" d="M282,-367.88C282,-354.35 282,-335.62 282,-320.15"/>
<polygon fill="black" stroke="black" points="285.5,-320.07 282,-310.07 278.5,-320.07 285.5,-320.07"/>
</g>
<!-- update_metadata&#45;&gt;end -->
<g id="edge11" class="edge">
<title>update_metadata&#45;&gt;end</title>
<path fill="none" stroke="black" d="M286.07,-271.7C296.7,-228.33 329.61,-118.95 401,-65 428.52,-44.21 524.03,-29.92 578.39,-23.27"/>
<polygon fill="black" stroke="black" points="578.84,-26.74 588.35,-22.07 578.01,-19.79 578.84,-26.74"/>
</g>
<!-- validate_ptr -->
<g id="node11" class="node">
<title>validate_ptr</title>
<path fill="#e8e8e8" stroke="black" d="M956,-495C956,-495 864,-495 864,-495 858,-495 852,-489 852,-483 852,-483 852,-469 852,-469 852,-463 858,-457 864,-457 864,-457 956,-457 956,-457 962,-457 968,-463 968,-469 968,-469 968,-483 968,-483 968,-489 962,-495 956,-495"/>
<text text-anchor="middle" x="910" y="-479.8" font-family="Arial" font-size="14.00">验证指针有效性</text>
<text text-anchor="middle" x="910" y="-464.8" font-family="Arial" font-size="14.00">(检查canary值)</text>
</g>
<!-- update_bitmap -->
<g id="node12" class="node">
<title>update_bitmap</title>
<path fill="#e8e8e8" stroke="black" d="M989.5,-405C989.5,-405 882.5,-405 882.5,-405 876.5,-405 870.5,-399 870.5,-393 870.5,-393 870.5,-381 870.5,-381 870.5,-375 876.5,-369 882.5,-369 882.5,-369 989.5,-369 989.5,-369 995.5,-369 1001.5,-375 1001.5,-381 1001.5,-381 1001.5,-393 1001.5,-393 1001.5,-399 995.5,-405 989.5,-405"/>
<text text-anchor="middle" x="936" y="-383.3" font-family="Arial" font-size="14.00">更新used_bits位图</text>
</g>
<!-- validate_ptr&#45;&gt;update_bitmap -->
<g id="edge13" class="edge">
<title>validate_ptr&#45;&gt;update_bitmap</title>
<path fill="none" stroke="black" d="M915.39,-456.97C919.01,-444.84 923.86,-428.62 927.94,-414.95"/>
<polygon fill="black" stroke="black" points="931.38,-415.7 930.89,-405.12 924.67,-413.69 931.38,-415.7"/>
</g>
<!-- check_bucket_reuse -->
<g id="node13" class="node">
<title>check_bucket_reuse</title>
<path fill="#e8e8e8" stroke="black" d="M1058.5,-310C1058.5,-310 859.5,-310 859.5,-310 853.5,-310 847.5,-304 847.5,-298 847.5,-298 847.5,-284 847.5,-284 847.5,-278 853.5,-272 859.5,-272 859.5,-272 1058.5,-272 1058.5,-272 1064.5,-272 1070.5,-278 1070.5,-284 1070.5,-284 1070.5,-298 1070.5,-298 1070.5,-304 1064.5,-310 1058.5,-310"/>
<text text-anchor="middle" x="959" y="-294.8" font-family="Arial" font-size="14.00">检查bucket是否可重用</text>
<text text-anchor="middle" x="959" y="-279.8" font-family="Arial" font-size="14.00">(freed_count == allocated_count?)</text>
</g>
<!-- update_bitmap&#45;&gt;check_bucket_reuse -->
<g id="edge14" class="edge">
<title>update_bitmap&#45;&gt;check_bucket_reuse</title>
<path fill="none" stroke="black" d="M940.22,-368.76C943.56,-355.11 948.29,-335.76 952.17,-319.91"/>
<polygon fill="black" stroke="black" points="955.6,-320.64 954.57,-310.09 948.8,-318.97 955.6,-320.64"/>
</g>
<!-- free_backing -->
<g id="node14" class="node">
<title>free_backing</title>
<path fill="#e8e8e8" stroke="black" d="M1008,-200C1008,-200 876,-200 876,-200 870,-200 864,-194 864,-188 864,-188 864,-174 864,-174 864,-168 870,-162 876,-162 876,-162 1008,-162 1008,-162 1014,-162 1020,-168 1020,-174 1020,-174 1020,-188 1020,-188 1020,-194 1014,-200 1008,-200"/>
<text text-anchor="middle" x="942" y="-184.8" font-family="Arial" font-size="14.00">释放物理内存</text>
<text text-anchor="middle" x="942" y="-169.8" font-family="Arial" font-size="14.00">(config.never_unmap?)</text>
</g>
<!-- check_bucket_reuse&#45;&gt;free_backing -->
<g id="edge15" class="edge">
<title>check_bucket_reuse&#45;&gt;free_backing</title>
<path fill="none" stroke="black" d="M956.12,-271.68C953.46,-254.82 949.49,-229.57 946.43,-210.15"/>
<polygon fill="black" stroke="black" points="949.85,-209.38 944.84,-200.05 942.94,-210.47 949.85,-209.38"/>
<text text-anchor="middle" x="982" y="-242.8" font-family="Times,serif" font-size="14.00">完全空闲</text>
</g>
<!-- free_backing&#45;&gt;end -->
<g id="edge16" class="edge">
<title>free_backing&#45;&gt;end</title>
<path fill="none" stroke="black" d="M930.76,-161.99C913.64,-136.19 878.5,-89.14 836,-65 779.12,-32.69 702.32,-22.98 656.41,-20.12"/>
<polygon fill="black" stroke="black" points="656.44,-16.62 646.27,-19.57 656.06,-23.61 656.44,-16.62"/>
</g>
<!-- scan_buckets -->
<g id="node15" class="node">
<title>scan_buckets</title>
<path fill="#e8e8e8" stroke="black" d="M531,-310C531,-310 435,-310 435,-310 429,-310 423,-304 423,-298 423,-298 423,-284 423,-284 423,-278 429,-272 435,-272 435,-272 531,-272 531,-272 537,-272 543,-278 543,-284 543,-284 543,-298 543,-298 543,-304 537,-310 531,-310"/>
<text text-anchor="middle" x="483" y="-294.8" font-family="Arial" font-size="14.00">扫描所有buckets</text>
<text text-anchor="middle" x="483" y="-279.8" font-family="Arial" font-size="14.00">(遍历used_bits)</text>
</g>
<!-- scan_large_allocs -->
<g id="node16" class="node">
<title>scan_large_allocs</title>
<path fill="#e8e8e8" stroke="black" d="M532.5,-200C532.5,-200 425.5,-200 425.5,-200 419.5,-200 413.5,-194 413.5,-188 413.5,-188 413.5,-174 413.5,-174 413.5,-168 419.5,-162 425.5,-162 425.5,-162 532.5,-162 532.5,-162 538.5,-162 544.5,-168 544.5,-174 544.5,-174 544.5,-188 544.5,-188 544.5,-194 538.5,-200 532.5,-200"/>
<text text-anchor="middle" x="479" y="-184.8" font-family="Arial" font-size="14.00">扫描大内存分配表</text>
<text text-anchor="middle" x="479" y="-169.8" font-family="Arial" font-size="14.00">(检查未释放条目)</text>
</g>
<!-- scan_buckets&#45;&gt;scan_large_allocs -->
<g id="edge18" class="edge">
<title>scan_buckets&#45;&gt;scan_large_allocs</title>
<path fill="none" stroke="black" d="M482.32,-271.68C481.7,-254.82 480.76,-229.57 480.04,-210.15"/>
<polygon fill="black" stroke="black" points="483.54,-209.91 479.67,-200.05 476.54,-210.17 483.54,-209.91"/>
</g>
<!-- generate_report -->
<g id="node17" class="node">
<title>generate_report</title>
<path fill="#e8e8e8" stroke="black" d="M530.5,-111C530.5,-111 443.5,-111 443.5,-111 437.5,-111 431.5,-105 431.5,-99 431.5,-99 431.5,-85 431.5,-85 431.5,-79 437.5,-73 443.5,-73 443.5,-73 530.5,-73 530.5,-73 536.5,-73 542.5,-79 542.5,-85 542.5,-85 542.5,-99 542.5,-99 542.5,-105 536.5,-111 530.5,-111"/>
<text text-anchor="middle" x="487" y="-95.8" font-family="Arial" font-size="14.00">生成泄漏报告</text>
<text text-anchor="middle" x="487" y="-80.8" font-family="Arial" font-size="14.00">(带栈跟踪信息)</text>
</g>
<!-- scan_large_allocs&#45;&gt;generate_report -->
<g id="edge19" class="edge">
<title>scan_large_allocs&#45;&gt;generate_report</title>
<path fill="none" stroke="black" d="M480.66,-161.97C481.74,-150.19 483.18,-134.56 484.41,-121.16"/>
<polygon fill="black" stroke="black" points="487.91,-121.28 485.34,-111 480.94,-120.64 487.91,-121.28"/>
</g>
<!-- generate_report&#45;&gt;end -->
<g id="edge20" class="edge">
<title>generate_report&#45;&gt;end</title>
<path fill="none" stroke="black" d="M519.8,-72.83C540.45,-61.39 566.9,-46.75 586.99,-35.62"/>
<polygon fill="black" stroke="black" points="588.96,-38.53 596.01,-30.62 585.57,-32.41 588.96,-38.53"/>
</g>
<!-- check_size_class -->
<g id="node18" class="node">
<title>check_size_class</title>
<path fill="#e8e8e8" stroke="black" d="M693,-200C693,-200 581,-200 581,-200 575,-200 569,-194 569,-188 569,-188 569,-174 569,-174 569,-168 575,-162 581,-162 581,-162 693,-162 693,-162 699,-162 705,-168 705,-174 705,-174 705,-188 705,-188 705,-194 699,-200 693,-200"/>
<text text-anchor="middle" x="637" y="-184.8" font-family="Arial" font-size="14.00">检查新旧size_class</text>
<text text-anchor="middle" x="637" y="-169.8" font-family="Arial" font-size="14.00">(是否跨大小类别)</text>
</g>
<!-- handle_inplace -->
<g id="node19" class="node">
<title>handle_inplace</title>
<path fill="#e8e8e8" stroke="black" d="M653.5,-111C653.5,-111 580.5,-111 580.5,-111 574.5,-111 568.5,-105 568.5,-99 568.5,-99 568.5,-85 568.5,-85 568.5,-79 574.5,-73 580.5,-73 580.5,-73 653.5,-73 653.5,-73 659.5,-73 665.5,-79 665.5,-85 665.5,-85 665.5,-99 665.5,-99 665.5,-105 659.5,-111 653.5,-111"/>
<text text-anchor="middle" x="617" y="-95.8" font-family="Arial" font-size="14.00">原地调整</text>
<text text-anchor="middle" x="617" y="-80.8" font-family="Arial" font-size="14.00">(更新元数据)</text>
</g>
<!-- check_size_class&#45;&gt;handle_inplace -->
<g id="edge22" class="edge">
<title>check_size_class&#45;&gt;handle_inplace</title>
<path fill="none" stroke="black" d="M625.4,-161.99C622.41,-156.44 619.59,-150.16 618,-144 616.13,-136.77 615.39,-128.78 615.23,-121.3"/>
<polygon fill="black" stroke="black" points="618.73,-121.25 615.33,-111.21 611.73,-121.18 618.73,-121.25"/>
<text text-anchor="middle" x="660.5" y="-132.8" font-family="Times,serif" font-size="14.00">同size_class</text>
</g>
<!-- handle_relocation -->
<g id="node20" class="node">
<title>handle_relocation</title>
<path fill="#e8e8e8" stroke="black" d="M812,-111C812,-111 696,-111 696,-111 690,-111 684,-105 684,-99 684,-99 684,-85 684,-85 684,-79 690,-73 696,-73 696,-73 812,-73 812,-73 818,-73 824,-79 824,-85 824,-85 824,-99 824,-99 824,-105 818,-111 812,-111"/>
<text text-anchor="middle" x="754" y="-95.8" font-family="Arial" font-size="14.00">重新分配</text>
<text text-anchor="middle" x="754" y="-80.8" font-family="Arial" font-size="14.00">(可能需要数据迁移)</text>
</g>
<!-- check_size_class&#45;&gt;handle_relocation -->
<g id="edge23" class="edge">
<title>check_size_class&#45;&gt;handle_relocation</title>
<path fill="none" stroke="black" d="M674.46,-161.98C684.1,-156.7 694.22,-150.57 703,-144 712.93,-136.57 722.8,-127.26 731.18,-118.64"/>
<polygon fill="black" stroke="black" points="733.8,-120.97 738.12,-111.3 728.71,-116.16 733.8,-120.97"/>
<text text-anchor="middle" x="768.5" y="-132.8" font-family="Times,serif" font-size="14.00">不同size_class</text>
</g>
<!-- handle_inplace&#45;&gt;end -->
<g id="edge24" class="edge">
<title>handle_inplace&#45;&gt;end</title>
<path fill="none" stroke="black" d="M617,-72.83C617,-64.89 617,-55.41 617,-46.63"/>
<polygon fill="black" stroke="black" points="620.5,-46.42 617,-36.42 613.5,-46.42 620.5,-46.42"/>
</g>
<!-- handle_relocation&#45;&gt;end -->
<g id="edge25" class="edge">
<title>handle_relocation&#45;&gt;end</title>
<path fill="none" stroke="black" d="M719.43,-72.83C697.33,-61.22 668.94,-46.29 647.65,-35.11"/>
<polygon fill="black" stroke="black" points="649.19,-31.96 638.71,-30.41 645.93,-38.16 649.19,-31.96"/>
</g>
<!-- alloc&#45;&gt;check_memory_limit -->
<g id="edge5" class="edge">
<title>alloc&#45;&gt;check_memory_limit</title>
<path fill="none" stroke="black" d="M374.26,-648.94C355,-634.5 327.16,-613.62 305.54,-597.4"/>
<polygon fill="black" stroke="black" points="307.4,-594.42 297.3,-591.22 303.2,-600.02 307.4,-594.42"/>
</g>
<!-- free -->
<g id="node22" class="node">
<title>free</title>
<path fill="#e8e8e8" stroke="black" d="M603,-590C603,-590 573,-590 573,-590 567,-590 561,-584 561,-578 561,-578 561,-566 561,-566 561,-560 567,-554 573,-554 573,-554 603,-554 603,-554 609,-554 615,-560 615,-566 615,-566 615,-578 615,-578 615,-584 609,-590 603,-590"/>
<text text-anchor="middle" x="588" y="-568.3" font-family="Arial" font-size="14.00">free</text>
</g>
<!-- alloc&#45;&gt;free -->
<!-- free&#45;&gt;validate_ptr -->
<g id="edge12" class="edge">
<title>free&#45;&gt;validate_ptr</title>
<path fill="none" stroke="black" d="M615.18,-563.07C664.85,-548.57 771.65,-517.39 842.14,-496.81"/>
<polygon fill="black" stroke="black" points="843.22,-500.14 851.84,-493.98 841.26,-493.42 843.22,-500.14"/>
</g>
<!-- resize -->
<g id="node24" class="node">
<title>resize</title>
<path fill="#e8e8e8" stroke="black" d="M603,-494C603,-494 573,-494 573,-494 567,-494 561,-488 561,-482 561,-482 561,-470 561,-470 561,-464 567,-458 573,-458 573,-458 603,-458 603,-458 609,-458 615,-464 615,-470 615,-470 615,-482 615,-482 615,-488 609,-494 603,-494"/>
<text text-anchor="middle" x="588" y="-472.3" font-family="Arial" font-size="14.00">resize</text>
</g>
<!-- free&#45;&gt;resize -->
<!-- leak_check -->
<g id="node23" class="node">
<title>leak_check</title>
<path fill="#e8e8e8" stroke="black" d="M540,-405C540,-405 480,-405 480,-405 474,-405 468,-399 468,-393 468,-393 468,-381 468,-381 468,-375 474,-369 480,-369 480,-369 540,-369 540,-369 546,-369 552,-375 552,-381 552,-381 552,-393 552,-393 552,-399 546,-405 540,-405"/>
<text text-anchor="middle" x="510" y="-383.3" font-family="Arial" font-size="14.00">leak_check</text>
</g>
<!-- leak_check&#45;&gt;scan_buckets -->
<g id="edge17" class="edge">
<title>leak_check&#45;&gt;scan_buckets</title>
<path fill="none" stroke="black" d="M505.05,-368.76C501.13,-355.11 495.57,-335.76 491.02,-319.91"/>
<polygon fill="black" stroke="black" points="494.32,-318.74 488.2,-310.09 487.59,-320.67 494.32,-318.74"/>
</g>
<!-- resize&#45;&gt;check_size_class -->
<g id="edge21" class="edge">
<title>resize&#45;&gt;check_size_class</title>
<path fill="none" stroke="black" d="M590.85,-457.98C598.96,-409.47 622.26,-270.16 632.3,-210.11"/>
<polygon fill="black" stroke="black" points="635.76,-210.62 633.96,-200.18 628.86,-209.47 635.76,-210.62"/>
</g>
<!-- resize&#45;&gt;leak_check -->
</g>
</svg>
