<?xml version="1.0" encoding="UTF-8" standalone="no"?>
<!DOCTYPE svg PUBLIC "-//W3C//DTD SVG 1.1//EN"
 "http://www.w3.org/Graphics/SVG/1.1/DTD/svg11.dtd">
<!-- Generated by graphviz version 2.43.0 (0)
 -->
<!-- Title: resMSendRc Pages: 1 -->
<svg width="458pt" height="1427pt"
 viewBox="0.00 0.00 457.50 1427.00" xmlns="http://www.w3.org/2000/svg" xmlns:xlink="http://www.w3.org/1999/xlink">
<g id="graph0" class="graph" transform="scale(1 1) rotate(0) translate(4 1423)">
<title>resMSendRc</title>
<polygon fill="white" stroke="transparent" points="-4,4 -4,-1423 453.5,-1423 453.5,4 -4,4"/>
<!-- start -->
<g id="node1" class="node">
<title>start</title>
<path fill="none" stroke="black" d="M283.5,-1419C283.5,-1419 253.5,-1419 253.5,-1419 247.5,-1419 241.5,-1413 241.5,-1407 241.5,-1407 241.5,-1395 241.5,-1395 241.5,-1389 247.5,-1383 253.5,-1383 253.5,-1383 283.5,-1383 283.5,-1383 289.5,-1383 295.5,-1389 295.5,-1395 295.5,-1395 295.5,-1407 295.5,-1407 295.5,-1413 289.5,-1419 283.5,-1419"/>
<text text-anchor="middle" x="268.5" y="-1397.3" font-family="Times,serif" font-size="14.00">Start</text>
</g>
<!-- init_params -->
<g id="node2" class="node">
<title>init_params</title>
<path fill="none" stroke="black" d="M329.5,-1346C329.5,-1346 207.5,-1346 207.5,-1346 201.5,-1346 195.5,-1340 195.5,-1334 195.5,-1334 195.5,-1320 195.5,-1320 195.5,-1314 201.5,-1308 207.5,-1308 207.5,-1308 329.5,-1308 329.5,-1308 335.5,-1308 341.5,-1314 341.5,-1320 341.5,-1320 341.5,-1334 341.5,-1334 341.5,-1340 335.5,-1346 329.5,-1346"/>
<text text-anchor="middle" x="268.5" y="-1330.8" font-family="Times,serif" font-size="14.00">初始化参数</text>
<text text-anchor="middle" x="268.5" y="-1315.8" font-family="Times,serif" font-size="14.00">timeout, attempts</text>
</g>
<!-- start&#45;&gt;init_params -->
<g id="edge1" class="edge">
<title>start&#45;&gt;init_params</title>
<path fill="none" stroke="black" d="M268.5,-1382.94C268.5,-1374.99 268.5,-1365.31 268.5,-1356.31"/>
<polygon fill="black" stroke="black" points="272,-1356.2 268.5,-1346.2 265,-1356.2 272,-1356.2"/>
</g>
<!-- init_ns_list -->
<g id="node3" class="node">
<title>init_ns_list</title>
<path fill="none" stroke="black" d="M322,-1271C322,-1271 215,-1271 215,-1271 209,-1271 203,-1265 203,-1259 203,-1259 203,-1245 203,-1245 203,-1239 209,-1233 215,-1233 215,-1233 322,-1233 322,-1233 328,-1233 334,-1239 334,-1245 334,-1245 334,-1259 334,-1259 334,-1265 328,-1271 322,-1271"/>
<text text-anchor="middle" x="268.5" y="-1255.8" font-family="Times,serif" font-size="14.00">初始化ns列表</text>
<text text-anchor="middle" x="268.5" y="-1240.8" font-family="Times,serif" font-size="14.00">填充并检查协议族</text>
</g>
<!-- init_params&#45;&gt;init_ns_list -->
<g id="edge2" class="edge">
<title>init_params&#45;&gt;init_ns_list</title>
<path fill="none" stroke="black" d="M268.5,-1307.96C268.5,-1299.88 268.5,-1290.18 268.5,-1281.18"/>
<polygon fill="black" stroke="black" points="272,-1281.09 268.5,-1271.09 265,-1281.09 272,-1281.09"/>
</g>
<!-- create_socket -->
<g id="node4" class="node">
<title>create_socket</title>
<path fill="none" stroke="black" d="M309.5,-1196C309.5,-1196 227.5,-1196 227.5,-1196 221.5,-1196 215.5,-1190 215.5,-1184 215.5,-1184 215.5,-1170 215.5,-1170 215.5,-1164 221.5,-1158 227.5,-1158 227.5,-1158 309.5,-1158 309.5,-1158 315.5,-1158 321.5,-1164 321.5,-1170 321.5,-1170 321.5,-1184 321.5,-1184 321.5,-1190 315.5,-1196 309.5,-1196"/>
<text text-anchor="middle" x="268.5" y="-1180.8" font-family="Times,serif" font-size="14.00">创建socket</text>
<text text-anchor="middle" x="268.5" y="-1165.8" font-family="Times,serif" font-size="14.00">处理IPv6回退</text>
</g>
<!-- init_ns_list&#45;&gt;create_socket -->
<g id="edge3" class="edge">
<title>init_ns_list&#45;&gt;create_socket</title>
<path fill="none" stroke="black" d="M268.5,-1232.96C268.5,-1224.88 268.5,-1215.18 268.5,-1206.18"/>
<polygon fill="black" stroke="black" points="272,-1206.09 268.5,-1196.09 265,-1206.09 272,-1206.09"/>
</g>
<!-- socket_config -->
<g id="node5" class="node">
<title>socket_config</title>
<path fill="none" stroke="black" d="M316,-1107C316,-1107 221,-1107 221,-1107 215,-1107 209,-1101 209,-1095 209,-1095 209,-1081 209,-1081 209,-1075 215,-1069 221,-1069 221,-1069 316,-1069 316,-1069 322,-1069 328,-1075 328,-1081 328,-1081 328,-1095 328,-1095 328,-1101 322,-1107 316,-1107"/>
<text text-anchor="middle" x="268.5" y="-1091.8" font-family="Times,serif" font-size="14.00">配置socket选项</text>
<text text-anchor="middle" x="268.5" y="-1076.8" font-family="Times,serif" font-size="14.00">处理IPv4映射</text>
</g>
<!-- create_socket&#45;&gt;socket_config -->
<g id="edge4" class="edge">
<title>create_socket&#45;&gt;socket_config</title>
<path fill="none" stroke="black" d="M268.5,-1157.97C268.5,-1146.19 268.5,-1130.56 268.5,-1117.16"/>
<polygon fill="black" stroke="black" points="272,-1117 268.5,-1107 265,-1117 272,-1117"/>
<text text-anchor="middle" x="299" y="-1128.8" font-family="Times,serif" font-size="14.00">IPv6环境</text>
</g>
<!-- bind_socket -->
<g id="node6" class="node">
<title>bind_socket</title>
<path fill="none" stroke="black" d="M337.5,-1032C337.5,-1032 199.5,-1032 199.5,-1032 193.5,-1032 187.5,-1026 187.5,-1020 187.5,-1020 187.5,-1008 187.5,-1008 187.5,-1002 193.5,-996 199.5,-996 199.5,-996 337.5,-996 337.5,-996 343.5,-996 349.5,-1002 349.5,-1008 349.5,-1008 349.5,-1020 349.5,-1020 349.5,-1026 343.5,-1032 337.5,-1032"/>
<text text-anchor="middle" x="268.5" y="-1010.3" font-family="Times,serif" font-size="14.00">绑定socket到本地地址</text>
</g>
<!-- socket_config&#45;&gt;bind_socket -->
<g id="edge5" class="edge">
<title>socket_config&#45;&gt;bind_socket</title>
<path fill="none" stroke="black" d="M268.5,-1068.83C268.5,-1060.89 268.5,-1051.41 268.5,-1042.63"/>
<polygon fill="black" stroke="black" points="272,-1042.42 268.5,-1032.42 265,-1042.42 272,-1042.42"/>
</g>
<!-- setup_poll -->
<g id="node7" class="node">
<title>setup_poll</title>
<path fill="none" stroke="black" d="M306.5,-959C306.5,-959 230.5,-959 230.5,-959 224.5,-959 218.5,-953 218.5,-947 218.5,-947 218.5,-935 218.5,-935 218.5,-929 224.5,-923 230.5,-923 230.5,-923 306.5,-923 306.5,-923 312.5,-923 318.5,-929 318.5,-935 318.5,-935 318.5,-947 318.5,-947 318.5,-953 312.5,-959 306.5,-959"/>
<text text-anchor="middle" x="268.5" y="-937.3" font-family="Times,serif" font-size="14.00">设置poll结构</text>
</g>
<!-- bind_socket&#45;&gt;setup_poll -->
<g id="edge6" class="edge">
<title>bind_socket&#45;&gt;setup_poll</title>
<path fill="none" stroke="black" d="M268.5,-995.81C268.5,-987.79 268.5,-978.05 268.5,-969.07"/>
<polygon fill="black" stroke="black" points="272,-969.03 268.5,-959.03 265,-969.03 272,-969.03"/>
</g>
<!-- outer_loop -->
<g id="node8" class="node">
<title>outer_loop</title>
<path fill="none" stroke="black" d="M319,-886C319,-886 218,-886 218,-886 212,-886 206,-880 206,-874 206,-874 206,-862 206,-862 206,-856 212,-850 218,-850 218,-850 319,-850 319,-850 325,-850 331,-856 331,-862 331,-862 331,-874 331,-874 331,-880 325,-886 319,-886"/>
<text text-anchor="middle" x="268.5" y="-864.3" font-family="Times,serif" font-size="14.00">主循环: 超时控制</text>
</g>
<!-- setup_poll&#45;&gt;outer_loop -->
<g id="edge7" class="edge">
<title>setup_poll&#45;&gt;outer_loop</title>
<path fill="none" stroke="black" d="M268.5,-922.81C268.5,-914.79 268.5,-905.05 268.5,-896.07"/>
<polygon fill="black" stroke="black" points="272,-896.03 268.5,-886.03 265,-896.03 272,-896.03"/>
</g>
<!-- check_retry_interval -->
<g id="node9" class="node">
<title>check_retry_interval</title>
<path fill="none" stroke="black" d="M184.5,-813C184.5,-813 98.5,-813 98.5,-813 92.5,-813 86.5,-807 86.5,-801 86.5,-801 86.5,-789 86.5,-789 86.5,-783 92.5,-777 98.5,-777 98.5,-777 184.5,-777 184.5,-777 190.5,-777 196.5,-783 196.5,-789 196.5,-789 196.5,-801 196.5,-801 196.5,-807 190.5,-813 184.5,-813"/>
<text text-anchor="middle" x="141.5" y="-791.3" font-family="Times,serif" font-size="14.00">达到重试间隔?</text>
</g>
<!-- outer_loop&#45;&gt;check_retry_interval -->
<g id="edge8" class="edge">
<title>outer_loop&#45;&gt;check_retry_interval</title>
<path fill="none" stroke="black" d="M238.08,-849.99C220.93,-840.4 199.31,-828.32 180.87,-818.01"/>
<polygon fill="black" stroke="black" points="182.55,-814.94 172.11,-813.11 179.13,-821.05 182.55,-814.94"/>
</g>
<!-- send_queries -->
<g id="node10" class="node">
<title>send_queries</title>
<path fill="none" stroke="black" d="M133,-726C133,-726 12,-726 12,-726 6,-726 0,-720 0,-714 0,-714 0,-700 0,-700 0,-694 6,-688 12,-688 12,-688 133,-688 133,-688 139,-688 145,-694 145,-700 145,-700 145,-714 145,-714 145,-720 139,-726 133,-726"/>
<text text-anchor="middle" x="72.5" y="-710.8" font-family="Times,serif" font-size="14.00">发送所有未应答查询</text>
<text text-anchor="middle" x="72.5" y="-695.8" font-family="Times,serif" font-size="14.00">到所有名称服务器</text>
</g>
<!-- check_retry_interval&#45;&gt;send_queries -->
<g id="edge9" class="edge">
<title>check_retry_interval&#45;&gt;send_queries</title>
<path fill="none" stroke="black" d="M127.54,-776.6C117.82,-764.48 104.68,-748.11 93.68,-734.4"/>
<polygon fill="black" stroke="black" points="96.14,-731.88 87.16,-726.27 90.68,-736.26 96.14,-731.88"/>
<text text-anchor="middle" x="121" y="-747.8" font-family="Times,serif" font-size="14.00">是</text>
</g>
<!-- poll_wait -->
<g id="node11" class="node">
<title>poll_wait</title>
<path fill="none" stroke="black" d="M220.5,-637C220.5,-637 142.5,-637 142.5,-637 136.5,-637 130.5,-631 130.5,-625 130.5,-625 130.5,-611 130.5,-611 130.5,-605 136.5,-599 142.5,-599 142.5,-599 220.5,-599 220.5,-599 226.5,-599 232.5,-605 232.5,-611 232.5,-611 232.5,-625 232.5,-625 232.5,-631 226.5,-637 220.5,-637"/>
<text text-anchor="middle" x="181.5" y="-621.8" font-family="Times,serif" font-size="14.00">等待poll事件</text>
<text text-anchor="middle" x="181.5" y="-606.8" font-family="Times,serif" font-size="14.00">计算等待时间</text>
</g>
<!-- check_retry_interval&#45;&gt;poll_wait -->
<g id="edge10" class="edge">
<title>check_retry_interval&#45;&gt;poll_wait</title>
<path fill="none" stroke="black" d="M145.41,-776.9C152.3,-746.76 166.66,-683.92 175.04,-647.25"/>
<polygon fill="black" stroke="black" points="178.52,-647.74 177.34,-637.21 171.7,-646.18 178.52,-647.74"/>
<text text-anchor="middle" x="173" y="-703.3" font-family="Times,serif" font-size="14.00">否</text>
</g>
<!-- send_queries&#45;&gt;poll_wait -->
<g id="edge11" class="edge">
<title>send_queries&#45;&gt;poll_wait</title>
<path fill="none" stroke="black" d="M95.08,-687.97C111.31,-675.03 133.36,-657.43 151.12,-643.25"/>
<polygon fill="black" stroke="black" points="153.31,-645.98 158.94,-637 148.94,-640.51 153.31,-645.98"/>
</g>
<!-- poll_wait&#45;&gt;outer_loop -->
<g id="edge13" class="edge">
<title>poll_wait&#45;&gt;outer_loop</title>
<path fill="none" stroke="black" d="M186.77,-637.26C194.63,-664.13 210.15,-715.79 225.5,-759 237.19,-791.9 241.57,-799.57 254.5,-832 255.59,-834.74 256.73,-837.59 257.87,-840.44"/>
<polygon fill="black" stroke="black" points="254.69,-841.93 261.66,-849.91 261.19,-839.33 254.69,-841.93"/>
<text text-anchor="middle" x="240" y="-747.8" font-family="Times,serif" font-size="14.00">超时</text>
</g>
<!-- handle_response -->
<g id="node12" class="node">
<title>handle_response</title>
<path fill="none" stroke="black" d="M209.5,-548C209.5,-548 159.5,-548 159.5,-548 153.5,-548 147.5,-542 147.5,-536 147.5,-536 147.5,-524 147.5,-524 147.5,-518 153.5,-512 159.5,-512 159.5,-512 209.5,-512 209.5,-512 215.5,-512 221.5,-518 221.5,-524 221.5,-524 221.5,-536 221.5,-536 221.5,-542 215.5,-548 209.5,-548"/>
<text text-anchor="middle" x="184.5" y="-526.3" font-family="Times,serif" font-size="14.00">接收响应</text>
</g>
<!-- poll_wait&#45;&gt;handle_response -->
<g id="edge12" class="edge">
<title>poll_wait&#45;&gt;handle_response</title>
<path fill="none" stroke="black" d="M182.14,-598.76C182.55,-586.93 183.09,-571.32 183.56,-558.05"/>
<polygon fill="black" stroke="black" points="187.05,-558.16 183.91,-548.04 180.06,-557.91 187.05,-558.16"/>
<text text-anchor="middle" x="205" y="-569.8" font-family="Times,serif" font-size="14.00">有事件</text>
</g>
<!-- validate_response -->
<g id="node13" class="node">
<title>validate_response</title>
<path fill="none" stroke="black" d="M266.5,-461C266.5,-461 174.5,-461 174.5,-461 168.5,-461 162.5,-455 162.5,-449 162.5,-449 162.5,-437 162.5,-437 162.5,-431 168.5,-425 174.5,-425 174.5,-425 266.5,-425 266.5,-425 272.5,-425 278.5,-431 278.5,-437 278.5,-437 278.5,-449 278.5,-449 278.5,-455 272.5,-461 266.5,-461"/>
<text text-anchor="middle" x="220.5" y="-439.3" font-family="Times,serif" font-size="14.00">验证响应有效性</text>
</g>
<!-- handle_response&#45;&gt;validate_response -->
<g id="edge14" class="edge">
<title>handle_response&#45;&gt;validate_response</title>
<path fill="none" stroke="black" d="M183.17,-511.67C183.05,-501.72 184.05,-489.22 188.5,-479 190,-475.55 191.98,-472.22 194.23,-469.07"/>
<polygon fill="black" stroke="black" points="197.03,-471.17 200.64,-461.21 191.61,-466.75 197.03,-471.17"/>
<text text-anchor="middle" x="217.5" y="-482.8" font-family="Times,serif" font-size="14.00">接收数据</text>
</g>
<!-- validate_response&#45;&gt;outer_loop -->
<g id="edge15" class="edge">
<title>validate_response&#45;&gt;outer_loop</title>
<path fill="none" stroke="black" d="M236.46,-461.35C240.45,-466.64 244.23,-472.74 246.5,-479 258.69,-512.62 265.78,-756.6 267.85,-839.51"/>
<polygon fill="black" stroke="black" points="264.36,-839.76 268.1,-849.67 271.36,-839.59 264.36,-839.76"/>
<text text-anchor="middle" x="276" y="-658.8" font-family="Times,serif" font-size="14.00">无效</text>
</g>
<!-- match_query -->
<g id="node14" class="node">
<title>match_query</title>
<path fill="none" stroke="black" d="M271.5,-374C271.5,-374 205.5,-374 205.5,-374 199.5,-374 193.5,-368 193.5,-362 193.5,-362 193.5,-350 193.5,-350 193.5,-344 199.5,-338 205.5,-338 205.5,-338 271.5,-338 271.5,-338 277.5,-338 283.5,-344 283.5,-350 283.5,-350 283.5,-362 283.5,-362 283.5,-368 277.5,-374 271.5,-374"/>
<text text-anchor="middle" x="238.5" y="-352.3" font-family="Times,serif" font-size="14.00">匹配查询ID</text>
</g>
<!-- validate_response&#45;&gt;match_query -->
<g id="edge16" class="edge">
<title>validate_response&#45;&gt;match_query</title>
<path fill="none" stroke="black" d="M224.14,-424.8C226.61,-413.16 229.91,-397.55 232.73,-384.24"/>
<polygon fill="black" stroke="black" points="236.22,-384.68 234.86,-374.18 229.37,-383.23 236.22,-384.68"/>
<text text-anchor="middle" x="246" y="-395.8" font-family="Times,serif" font-size="14.00">有效</text>
</g>
<!-- match_query&#45;&gt;outer_loop -->
<g id="edge17" class="edge">
<title>match_query&#45;&gt;outer_loop</title>
<path fill="none" stroke="black" d="M263.82,-374.07C283.15,-389.34 306.5,-413.65 306.5,-442 306.5,-796 306.5,-796 306.5,-796 306.5,-812.47 298.45,-828.82 289.76,-841.67"/>
<polygon fill="black" stroke="black" points="286.78,-839.82 283.74,-849.96 292.45,-843.93 286.78,-839.82"/>
<text text-anchor="middle" x="342.5" y="-614.3" font-family="Times,serif" font-size="14.00">无匹配查询</text>
</g>
<!-- process_rcode -->
<g id="node15" class="node">
<title>process_rcode</title>
<path fill="none" stroke="black" d="M292.5,-287C292.5,-287 184.5,-287 184.5,-287 178.5,-287 172.5,-281 172.5,-275 172.5,-275 172.5,-261 172.5,-261 172.5,-255 178.5,-249 184.5,-249 184.5,-249 292.5,-249 292.5,-249 298.5,-249 304.5,-255 304.5,-261 304.5,-261 304.5,-275 304.5,-275 304.5,-281 298.5,-287 292.5,-287"/>
<text text-anchor="middle" x="238.5" y="-271.8" font-family="Times,serif" font-size="14.00">处理响应码</text>
<text text-anchor="middle" x="238.5" y="-256.8" font-family="Times,serif" font-size="14.00">0/3: 接受, 2: 重试</text>
</g>
<!-- match_query&#45;&gt;process_rcode -->
<g id="edge18" class="edge">
<title>match_query&#45;&gt;process_rcode</title>
<path fill="none" stroke="black" d="M238.5,-337.6C238.5,-326.06 238.5,-310.65 238.5,-297.36"/>
<polygon fill="black" stroke="black" points="242,-297.27 238.5,-287.27 235,-297.27 242,-297.27"/>
<text text-anchor="middle" x="267.5" y="-308.8" font-family="Times,serif" font-size="14.00">找到匹配</text>
</g>
<!-- process_rcode&#45;&gt;send_queries -->
<g id="edge20" class="edge">
<title>process_rcode&#45;&gt;send_queries</title>
<path fill="none" stroke="black" d="M172.27,-280.31C131.7,-291.47 87.5,-313.22 87.5,-355 87.5,-619 87.5,-619 87.5,-619 87.5,-638.93 83.63,-661.05 79.82,-678.01"/>
<polygon fill="black" stroke="black" points="76.4,-677.29 77.49,-687.83 83.21,-678.9 76.4,-677.29"/>
<text text-anchor="middle" x="116.5" y="-482.8" font-family="Times,serif" font-size="14.00">需要重试</text>
</g>
<!-- update_answers -->
<g id="node16" class="node">
<title>update_answers</title>
<path fill="none" stroke="black" d="M341.5,-198C341.5,-198 249.5,-198 249.5,-198 243.5,-198 237.5,-192 237.5,-186 237.5,-186 237.5,-172 237.5,-172 237.5,-166 243.5,-160 249.5,-160 249.5,-160 341.5,-160 341.5,-160 347.5,-160 353.5,-166 353.5,-172 353.5,-172 353.5,-186 353.5,-186 353.5,-192 347.5,-198 341.5,-198"/>
<text text-anchor="middle" x="295.5" y="-182.8" font-family="Times,serif" font-size="14.00">更新答案缓冲区</text>
<text text-anchor="middle" x="295.5" y="-167.8" font-family="Times,serif" font-size="14.00">调整next指针</text>
</g>
<!-- process_rcode&#45;&gt;update_answers -->
<g id="edge19" class="edge">
<title>process_rcode&#45;&gt;update_answers</title>
<path fill="none" stroke="black" d="M250.31,-248.97C258.34,-236.73 269.09,-220.32 278.09,-206.58"/>
<polygon fill="black" stroke="black" points="281.15,-208.29 283.7,-198 275.3,-204.45 281.15,-208.29"/>
<text text-anchor="middle" x="298.5" y="-219.8" font-family="Times,serif" font-size="14.00">接受响应</text>
</g>
<!-- check_completion -->
<g id="node17" class="node">
<title>check_completion</title>
<path fill="none" stroke="black" d="M406.5,-123C406.5,-123 320.5,-123 320.5,-123 314.5,-123 308.5,-117 308.5,-111 308.5,-111 308.5,-99 308.5,-99 308.5,-93 314.5,-87 320.5,-87 320.5,-87 406.5,-87 406.5,-87 412.5,-87 418.5,-93 418.5,-99 418.5,-99 418.5,-111 418.5,-111 418.5,-117 412.5,-123 406.5,-123"/>
<text text-anchor="middle" x="363.5" y="-101.3" font-family="Times,serif" font-size="14.00">所有查询完成?</text>
</g>
<!-- update_answers&#45;&gt;check_completion -->
<g id="edge21" class="edge">
<title>update_answers&#45;&gt;check_completion</title>
<path fill="none" stroke="black" d="M312.66,-159.83C320.98,-151.02 331.1,-140.31 340.11,-130.76"/>
<polygon fill="black" stroke="black" points="342.73,-133.09 347.05,-123.42 337.64,-128.28 342.73,-133.09"/>
</g>
<!-- check_completion&#45;&gt;outer_loop -->
<g id="edge22" class="edge">
<title>check_completion&#45;&gt;outer_loop</title>
<path fill="none" stroke="black" d="M380.99,-123.25C392.89,-136.87 406.5,-157.03 406.5,-178 406.5,-796 406.5,-796 406.5,-796 406.5,-829.35 374.24,-847.05 340.91,-856.43"/>
<polygon fill="black" stroke="black" points="339.85,-853.09 331.04,-858.98 341.6,-859.87 339.85,-853.09"/>
<text text-anchor="middle" x="428" y="-482.8" font-family="Times,serif" font-size="14.00">未完成</text>
</g>
<!-- end -->
<g id="node18" class="node">
<title>end</title>
<path fill="none" stroke="black" d="M378.5,-36C378.5,-36 348.5,-36 348.5,-36 342.5,-36 336.5,-30 336.5,-24 336.5,-24 336.5,-12 336.5,-12 336.5,-6 342.5,0 348.5,0 348.5,0 378.5,0 378.5,0 384.5,0 390.5,-6 390.5,-12 390.5,-12 390.5,-24 390.5,-24 390.5,-30 384.5,-36 378.5,-36"/>
<text text-anchor="middle" x="363.5" y="-14.3" font-family="Times,serif" font-size="14.00">结束</text>
</g>
<!-- check_completion&#45;&gt;end -->
<g id="edge23" class="edge">
<title>check_completion&#45;&gt;end</title>
<path fill="none" stroke="black" d="M363.5,-86.8C363.5,-75.16 363.5,-59.55 363.5,-46.24"/>
<polygon fill="black" stroke="black" points="367,-46.18 363.5,-36.18 360,-46.18 367,-46.18"/>
<text text-anchor="middle" x="378" y="-57.8" font-family="Times,serif" font-size="14.00">完成</text>
</g>
</g>
</svg>
