<?xml version="1.0" encoding="UTF-8" standalone="no"?>
<!DOCTYPE svg PUBLIC "-//W3C//DTD SVG 1.1//EN"
 "http://www.w3.org/Graphics/SVG/1.1/DTD/svg11.dtd">
<!-- Generated by graphviz version 2.43.0 (0)
 -->
<!-- Title: GetFinalPathNameByHandle_Flowchart Pages: 1 -->
<svg width="1070pt" height="1036pt"
 viewBox="0.00 0.00 1070.00 1036.00" xmlns="http://www.w3.org/2000/svg" xmlns:xlink="http://www.w3.org/1999/xlink">
<g id="graph0" class="graph" transform="scale(1 1) rotate(0) translate(4 1032)">
<title>GetFinalPathNameByHandle_Flowchart</title>
<polygon fill="white" stroke="transparent" points="-4,4 -4,-1032 1066,-1032 1066,4 -4,4"/>
<!-- start -->
<g id="node1" class="node">
<title>start</title>
<path fill="none" stroke="black" d="M167.5,-1028C167.5,-1028 137.5,-1028 137.5,-1028 131.5,-1028 125.5,-1022 125.5,-1016 125.5,-1016 125.5,-1004 125.5,-1004 125.5,-998 131.5,-992 137.5,-992 137.5,-992 167.5,-992 167.5,-992 173.5,-992 179.5,-998 179.5,-1004 179.5,-1004 179.5,-1016 179.5,-1016 179.5,-1022 173.5,-1028 167.5,-1028"/>
<text text-anchor="middle" x="152.5" y="-1006.3" font-family="Times,serif" font-size="14.00">开始</text>
</g>
<!-- query_object -->
<g id="node3" class="node">
<title>query_object</title>
<path fill="none" stroke="black" d="M293,-955C293,-955 12,-955 12,-955 6,-955 0,-949 0,-943 0,-943 0,-931 0,-931 0,-925 6,-919 12,-919 12,-919 293,-919 293,-919 299,-919 305,-925 305,-931 305,-931 305,-943 305,-943 305,-949 299,-955 293,-955"/>
<text text-anchor="middle" x="152.5" y="-933.3" font-family="Times,serif" font-size="14.00">调用QueryObjectName(hFile, out_buffer)</text>
</g>
<!-- start&#45;&gt;query_object -->
<g id="edge1" class="edge">
<title>start&#45;&gt;query_object</title>
<path fill="none" stroke="black" d="M152.5,-991.81C152.5,-983.79 152.5,-974.05 152.5,-965.07"/>
<polygon fill="black" stroke="black" points="156,-965.03 152.5,-955.03 149,-965.03 156,-965.03"/>
</g>
<!-- end -->
<g id="node2" class="node">
<title>end</title>
<path fill="none" stroke="black" d="M397.5,-36C397.5,-36 305.5,-36 305.5,-36 299.5,-36 293.5,-30 293.5,-24 293.5,-24 293.5,-12 293.5,-12 293.5,-6 299.5,0 305.5,0 305.5,0 397.5,0 397.5,0 403.5,0 409.5,-6 409.5,-12 409.5,-12 409.5,-24 409.5,-24 409.5,-30 403.5,-36 397.5,-36"/>
<text text-anchor="middle" x="351.5" y="-14.3" font-family="Times,serif" font-size="14.00">返回结果或错误</text>
</g>
<!-- handle_error -->
<g id="node4" class="node">
<title>handle_error</title>
<path fill="none" stroke="black" d="M157.5,-196C157.5,-196 107.5,-196 107.5,-196 101.5,-196 95.5,-190 95.5,-184 95.5,-184 95.5,-172 95.5,-172 95.5,-166 101.5,-160 107.5,-160 107.5,-160 157.5,-160 157.5,-160 163.5,-160 169.5,-166 169.5,-172 169.5,-172 169.5,-184 169.5,-184 169.5,-190 163.5,-196 157.5,-196"/>
<text text-anchor="middle" x="132.5" y="-174.3" font-family="Times,serif" font-size="14.00">处理错误</text>
</g>
<!-- query_object&#45;&gt;handle_error -->
<g id="edge2" class="edge">
<title>query_object&#45;&gt;handle_error</title>
<path fill="none" stroke="black" d="M147.35,-918.92C142.67,-901.88 136.5,-874.88 136.5,-851 136.5,-851 136.5,-851 136.5,-264 136.5,-244.73 135.46,-223.03 134.44,-206.38"/>
<polygon fill="black" stroke="black" points="137.93,-206 133.79,-196.25 130.94,-206.45 137.93,-206"/>
<text text-anchor="middle" x="151" y="-564.3" font-family="Times,serif" font-size="14.00">错误</text>
</g>
<!-- check_fmt -->
<g id="node5" class="node">
<title>check_fmt</title>
<path fill="none" stroke="black" d="M327.5,-868C327.5,-868 179.5,-868 179.5,-868 173.5,-868 167.5,-862 167.5,-856 167.5,-856 167.5,-844 167.5,-844 167.5,-838 173.5,-832 179.5,-832 179.5,-832 327.5,-832 327.5,-832 333.5,-832 339.5,-838 339.5,-844 339.5,-844 339.5,-856 339.5,-856 339.5,-862 333.5,-868 327.5,-868"/>
<text text-anchor="middle" x="253.5" y="-846.3" font-family="Times,serif" font-size="14.00">检查fmt.volume_name</text>
</g>
<!-- query_object&#45;&gt;check_fmt -->
<g id="edge3" class="edge">
<title>query_object&#45;&gt;check_fmt</title>
<path fill="none" stroke="black" d="M172.94,-918.8C188,-906.13 208.66,-888.73 225.29,-874.74"/>
<polygon fill="black" stroke="black" points="227.69,-877.29 233.09,-868.18 223.19,-871.94 227.69,-877.29"/>
<text text-anchor="middle" x="224" y="-889.8" font-family="Times,serif" font-size="14.00">成功</text>
</g>
<!-- handle_error&#45;&gt;end -->
<g id="edge5" class="edge">
<title>handle_error&#45;&gt;end</title>
<path fill="none" stroke="black" d="M95.28,-163.95C48.68,-145.64 -21.4,-110.35 10.5,-73 44.84,-32.79 193.84,-22.36 283.13,-19.75"/>
<polygon fill="black" stroke="black" points="283.27,-23.25 293.18,-19.49 283.09,-16.25 283.27,-23.25"/>
<text text-anchor="middle" x="39.5" y="-87.3" font-family="Times,serif" font-size="14.00">其他错误</text>
</g>
<!-- error_file_not_found -->
<g id="node16" class="node">
<title>error_file_not_found</title>
<path fill="none" stroke="black" d="M247.5,-109C247.5,-109 89.5,-109 89.5,-109 83.5,-109 77.5,-103 77.5,-97 77.5,-97 77.5,-85 77.5,-85 77.5,-79 83.5,-73 89.5,-73 89.5,-73 247.5,-73 247.5,-73 253.5,-73 259.5,-79 259.5,-85 259.5,-85 259.5,-97 259.5,-97 259.5,-103 253.5,-109 247.5,-109"/>
<text text-anchor="middle" x="168.5" y="-87.3" font-family="Times,serif" font-size="14.00">返回error.FileNotFound</text>
</g>
<!-- handle_error&#45;&gt;error_file_not_found -->
<g id="edge4" class="edge">
<title>handle_error&#45;&gt;error_file_not_found</title>
<path fill="none" stroke="black" d="M129.73,-159.67C128.89,-149.72 129.14,-137.22 133.5,-127 135,-123.47 137.05,-120.11 139.39,-116.96"/>
<polygon fill="black" stroke="black" points="142.25,-119.02 146.16,-109.17 136.96,-114.43 142.25,-119.02"/>
<text text-anchor="middle" x="203.5" y="-130.8" font-family="Times,serif" font-size="14.00">error.InvalidHandle</text>
</g>
<!-- nt_case -->
<g id="node6" class="node">
<title>nt_case</title>
<path fill="none" stroke="black" d="M341,-727C341,-727 166,-727 166,-727 160,-727 154,-721 154,-715 154,-715 154,-703 154,-703 154,-697 160,-691 166,-691 166,-691 341,-691 341,-691 347,-691 353,-697 353,-703 353,-703 353,-715 353,-715 353,-721 347,-727 341,-727"/>
<text text-anchor="middle" x="253.5" y="-705.3" font-family="Times,serif" font-size="14.00">fmt.volume_name == .Nt</text>
</g>
<!-- check_fmt&#45;&gt;nt_case -->
<g id="edge6" class="edge">
<title>check_fmt&#45;&gt;nt_case</title>
<path fill="none" stroke="black" d="M253.5,-831.96C253.5,-808.4 253.5,-765.64 253.5,-737.53"/>
<polygon fill="black" stroke="black" points="257,-737.18 253.5,-727.18 250,-737.18 257,-737.18"/>
<text text-anchor="middle" x="261" y="-802.8" font-family="Times,serif" font-size="14.00">是</text>
</g>
<!-- dos_case -->
<g id="node7" class="node">
<title>dos_case</title>
<path fill="none" stroke="black" d="M565.5,-781C565.5,-781 381.5,-781 381.5,-781 375.5,-781 369.5,-775 369.5,-769 369.5,-769 369.5,-757 369.5,-757 369.5,-751 375.5,-745 381.5,-745 381.5,-745 565.5,-745 565.5,-745 571.5,-745 577.5,-751 577.5,-757 577.5,-757 577.5,-769 577.5,-769 577.5,-775 571.5,-781 565.5,-781"/>
<text text-anchor="middle" x="473.5" y="-759.3" font-family="Times,serif" font-size="14.00">fmt.volume_name == .Dos</text>
</g>
<!-- check_fmt&#45;&gt;dos_case -->
<g id="edge7" class="edge">
<title>check_fmt&#45;&gt;dos_case</title>
<path fill="none" stroke="black" d="M297.76,-831.9C332.89,-818.33 382.15,-799.29 419.58,-784.83"/>
<polygon fill="black" stroke="black" points="421.25,-787.94 429.32,-781.07 418.73,-781.41 421.25,-787.94"/>
<text text-anchor="middle" x="385" y="-802.8" font-family="Times,serif" font-size="14.00">否</text>
</g>
<!-- nt_case&#45;&gt;end -->
<g id="edge8" class="edge">
<title>nt_case&#45;&gt;end</title>
<path fill="none" stroke="black" d="M253.5,-690.75C253.5,-671.62 253.5,-639.86 253.5,-612.5 253.5,-612.5 253.5,-612.5 253.5,-405 253.5,-373.44 249.89,-365.35 253.5,-334 267.15,-215.66 266.45,-182.01 314.5,-73 318.9,-63.02 325.2,-52.93 331.36,-44.21"/>
<polygon fill="black" stroke="black" points="334.29,-46.14 337.4,-36.02 328.65,-41.99 334.29,-46.14"/>
<text text-anchor="middle" x="303" y="-348.3" font-family="Times,serif" font-size="14.00">返回final_path</text>
</g>
<!-- check_device_prefix -->
<g id="node8" class="node">
<title>check_device_prefix</title>
<path fill="none" stroke="black" d="M617.5,-673C617.5,-673 439.5,-673 439.5,-673 433.5,-673 427.5,-667 427.5,-661 427.5,-661 427.5,-649 427.5,-649 427.5,-643 433.5,-637 439.5,-637 439.5,-637 617.5,-637 617.5,-637 623.5,-637 629.5,-643 629.5,-649 629.5,-649 629.5,-661 629.5,-661 629.5,-667 623.5,-673 617.5,-673"/>
<text text-anchor="middle" x="528.5" y="-651.3" font-family="Times,serif" font-size="14.00">检查路径是否以\Device\开头</text>
</g>
<!-- dos_case&#45;&gt;check_device_prefix -->
<g id="edge9" class="edge">
<title>dos_case&#45;&gt;check_device_prefix</title>
<path fill="none" stroke="black" d="M482.34,-744.97C491.1,-728.07 504.67,-701.94 514.82,-682.36"/>
<polygon fill="black" stroke="black" points="518,-683.83 519.5,-673.34 511.79,-680.6 518,-683.83"/>
</g>
<!-- handle_mup -->
<g id="node9" class="node">
<title>handle_mup</title>
<path fill="none" stroke="black" d="M455,-532C455,-532 306,-532 306,-532 300,-532 294,-526 294,-520 294,-520 294,-508 294,-508 294,-502 300,-496 306,-496 306,-496 455,-496 455,-496 461,-496 467,-502 467,-508 467,-508 467,-520 467,-520 467,-526 461,-532 455,-532"/>
<text text-anchor="middle" x="380.5" y="-510.3" font-family="Times,serif" font-size="14.00">处理MUP（UNC路径）</text>
</g>
<!-- check_device_prefix&#45;&gt;handle_mup -->
<g id="edge11" class="edge">
<title>check_device_prefix&#45;&gt;handle_mup</title>
<path fill="none" stroke="black" d="M474.01,-636.92C447.98,-626.17 418.45,-609.75 399.5,-586 389.67,-573.68 384.9,-556.72 382.6,-542.47"/>
<polygon fill="black" stroke="black" points="386.03,-541.69 381.28,-532.22 379.09,-542.58 386.03,-541.69"/>
<text text-anchor="middle" x="464" y="-607.8" font-family="Times,serif" font-size="14.00">是MUP</text>
</g>
<!-- query_mount_manager -->
<g id="node10" class="node">
<title>query_mount_manager</title>
<path fill="none" stroke="black" d="M704.5,-586C704.5,-586 420.5,-586 420.5,-586 414.5,-586 408.5,-580 408.5,-574 408.5,-574 408.5,-562 408.5,-562 408.5,-556 414.5,-550 420.5,-550 420.5,-550 704.5,-550 704.5,-550 710.5,-550 716.5,-556 716.5,-562 716.5,-562 716.5,-574 716.5,-574 716.5,-580 710.5,-586 704.5,-586"/>
<text text-anchor="middle" x="562.5" y="-564.3" font-family="Times,serif" font-size="14.00">打开MountPointManager并发送IOCTL请求</text>
</g>
<!-- check_device_prefix&#45;&gt;query_mount_manager -->
<g id="edge12" class="edge">
<title>check_device_prefix&#45;&gt;query_mount_manager</title>
<path fill="none" stroke="black" d="M535.38,-636.8C540.08,-625.05 546.4,-609.24 551.76,-595.84"/>
<polygon fill="black" stroke="black" points="555.17,-596.76 555.63,-586.18 548.67,-594.16 555.17,-596.76"/>
<text text-anchor="middle" x="574" y="-607.8" font-family="Times,serif" font-size="14.00">非MUP</text>
</g>
<!-- error_unexpected -->
<g id="node17" class="node">
<title>error_unexpected</title>
<path fill="none" stroke="black" d="M931.5,-424C931.5,-424 785.5,-424 785.5,-424 779.5,-424 773.5,-418 773.5,-412 773.5,-412 773.5,-400 773.5,-400 773.5,-394 779.5,-388 785.5,-388 785.5,-388 931.5,-388 931.5,-388 937.5,-388 943.5,-394 943.5,-400 943.5,-400 943.5,-412 943.5,-412 943.5,-418 937.5,-424 931.5,-424"/>
<text text-anchor="middle" x="858.5" y="-402.3" font-family="Times,serif" font-size="14.00">返回error.Unexpected</text>
</g>
<!-- check_device_prefix&#45;&gt;error_unexpected -->
<g id="edge10" class="edge">
<title>check_device_prefix&#45;&gt;error_unexpected</title>
<path fill="none" stroke="black" d="M612.38,-636.94C649.52,-626.52 692.22,-610.37 725.5,-586 782.08,-544.56 825.18,-472.14 845.55,-433.33"/>
<polygon fill="black" stroke="black" points="848.77,-434.72 850.23,-424.23 842.55,-431.52 848.77,-434.72"/>
<text text-anchor="middle" x="786" y="-564.3" font-family="Times,serif" font-size="14.00">不符合</text>
</g>
<!-- handle_mup&#45;&gt;end -->
<g id="edge13" class="edge">
<title>handle_mup&#45;&gt;end</title>
<path fill="none" stroke="black" d="M379.49,-495.98C377.3,-463.89 371.1,-392.4 356.5,-334 350.63,-310.53 343.53,-306.42 337.5,-283 330.72,-256.67 328.5,-249.68 328.5,-222.5 328.5,-222.5 328.5,-222.5 328.5,-90 328.5,-74.72 333.38,-58.45 338.65,-45.34"/>
<polygon fill="black" stroke="black" points="341.93,-46.58 342.67,-36.01 335.5,-43.8 341.93,-46.58"/>
<text text-anchor="middle" x="383.5" y="-261.3" font-family="Times,serif" font-size="14.00">构造UNC路径</text>
</g>
<!-- process_mount_points -->
<g id="node11" class="node">
<title>process_mount_points</title>
<path fill="none" stroke="black" d="M577.5,-478C577.5,-478 513.5,-478 513.5,-478 507.5,-478 501.5,-472 501.5,-466 501.5,-466 501.5,-454 501.5,-454 501.5,-448 507.5,-442 513.5,-442 513.5,-442 577.5,-442 577.5,-442 583.5,-442 589.5,-448 589.5,-454 589.5,-454 589.5,-466 589.5,-466 589.5,-472 583.5,-478 577.5,-478"/>
<text text-anchor="middle" x="545.5" y="-456.3" font-family="Times,serif" font-size="14.00">遍历挂载点</text>
</g>
<!-- query_mount_manager&#45;&gt;process_mount_points -->
<g id="edge14" class="edge">
<title>query_mount_manager&#45;&gt;process_mount_points</title>
<path fill="none" stroke="black" d="M559.77,-549.97C557.11,-533.38 553.02,-507.88 549.9,-488.43"/>
<polygon fill="black" stroke="black" points="553.32,-487.66 548.28,-478.34 546.41,-488.77 553.32,-487.66"/>
</g>
<!-- check_dosdevices -->
<g id="node12" class="node">
<title>check_dosdevices</title>
<path fill="none" stroke="black" d="M610.5,-370C610.5,-370 426.5,-370 426.5,-370 420.5,-370 414.5,-364 414.5,-358 414.5,-358 414.5,-346 414.5,-346 414.5,-340 420.5,-334 426.5,-334 426.5,-334 610.5,-334 610.5,-334 616.5,-334 622.5,-340 622.5,-346 622.5,-346 622.5,-358 622.5,-358 622.5,-364 616.5,-370 610.5,-370"/>
<text text-anchor="middle" x="518.5" y="-348.3" font-family="Times,serif" font-size="14.00">检查是否以\DosDevices\开头</text>
</g>
<!-- process_mount_points&#45;&gt;check_dosdevices -->
<g id="edge15" class="edge">
<title>process_mount_points&#45;&gt;check_dosdevices</title>
<path fill="none" stroke="black" d="M535.92,-441.99C533.14,-436.41 530.35,-430.07 528.5,-424 524.2,-409.91 521.74,-393.67 520.34,-380.28"/>
<polygon fill="black" stroke="black" points="523.82,-379.89 519.42,-370.25 516.84,-380.53 523.82,-379.89"/>
<text text-anchor="middle" x="578.5" y="-402.3" font-family="Times,serif" font-size="14.00">遍历每个挂载点</text>
</g>
<!-- handle_drive_letter -->
<g id="node13" class="node">
<title>handle_drive_letter</title>
<path fill="none" stroke="black" d="M586,-283C586,-283 451,-283 451,-283 445,-283 439,-277 439,-271 439,-271 439,-259 439,-259 439,-253 445,-247 451,-247 451,-247 586,-247 586,-247 592,-247 598,-253 598,-259 598,-259 598,-271 598,-271 598,-277 592,-283 586,-283"/>
<text text-anchor="middle" x="518.5" y="-261.3" font-family="Times,serif" font-size="14.00">组合驱动器号和文件名</text>
</g>
<!-- check_dosdevices&#45;&gt;handle_drive_letter -->
<g id="edge16" class="edge">
<title>check_dosdevices&#45;&gt;handle_drive_letter</title>
<path fill="none" stroke="black" d="M518.5,-333.8C518.5,-322.16 518.5,-306.55 518.5,-293.24"/>
<polygon fill="black" stroke="black" points="522,-293.18 518.5,-283.18 515,-293.18 522,-293.18"/>
<text text-anchor="middle" x="533" y="-304.8" font-family="Times,serif" font-size="14.00">匹配</text>
</g>
<!-- handle_volume_guid -->
<g id="node14" class="node">
<title>handle_volume_guid</title>
<path fill="none" stroke="black" d="M807,-283C807,-283 628,-283 628,-283 622,-283 616,-277 616,-271 616,-271 616,-259 616,-259 616,-253 622,-247 628,-247 628,-247 807,-247 807,-247 813,-247 819,-253 819,-259 819,-259 819,-271 819,-271 819,-277 813,-283 807,-283"/>
<text text-anchor="middle" x="717.5" y="-261.3" font-family="Times,serif" font-size="14.00">处理卷GUID并查询DOS路径</text>
</g>
<!-- check_dosdevices&#45;&gt;handle_volume_guid -->
<g id="edge17" class="edge">
<title>check_dosdevices&#45;&gt;handle_volume_guid</title>
<path fill="none" stroke="black" d="M540.07,-333.97C554.5,-323.26 574.31,-309.84 593.5,-301 605.93,-295.28 619.49,-290.29 632.94,-286.02"/>
<polygon fill="black" stroke="black" points="634.16,-289.3 642.7,-283.03 632.11,-282.61 634.16,-289.3"/>
<text text-anchor="middle" x="615" y="-304.8" font-family="Times,serif" font-size="14.00">不匹配</text>
</g>
<!-- validate_path -->
<g id="node15" class="node">
<title>validate_path</title>
<path fill="none" stroke="black" d="M599,-196C599,-196 478,-196 478,-196 472,-196 466,-190 466,-184 466,-184 466,-172 466,-172 466,-166 472,-160 478,-160 478,-160 599,-160 599,-160 605,-160 611,-166 611,-172 611,-172 611,-184 611,-184 611,-190 605,-196 599,-196"/>
<text text-anchor="middle" x="538.5" y="-174.3" font-family="Times,serif" font-size="14.00">验证路径中的空字符</text>
</g>
<!-- handle_drive_letter&#45;&gt;validate_path -->
<g id="edge18" class="edge">
<title>handle_drive_letter&#45;&gt;validate_path</title>
<path fill="none" stroke="black" d="M522.55,-246.8C525.29,-235.16 528.96,-219.55 532.09,-206.24"/>
<polygon fill="black" stroke="black" points="535.58,-206.71 534.46,-196.18 528.76,-205.11 535.58,-206.71"/>
</g>
<!-- handle_volume_guid&#45;&gt;query_mount_manager -->
<g id="edge21" class="edge">
<title>handle_volume_guid&#45;&gt;query_mount_manager</title>
<path fill="none" stroke="black" d="M706.9,-283.1C692.58,-306.46 666.53,-349.8 646.5,-388 631.64,-416.35 593.86,-498.37 574.43,-540.84"/>
<polygon fill="black" stroke="black" points="571.22,-539.44 570.25,-549.99 577.59,-542.35 571.22,-539.44"/>
<text text-anchor="middle" x="705.5" y="-402.3" font-family="Times,serif" font-size="14.00">重新查询DOS路径</text>
</g>
<!-- handle_volume_guid&#45;&gt;validate_path -->
<g id="edge22" class="edge">
<title>handle_volume_guid&#45;&gt;validate_path</title>
<path fill="none" stroke="black" d="M681.28,-246.8C653.04,-233.39 613.68,-214.7 583.43,-200.34"/>
<polygon fill="black" stroke="black" points="584.9,-197.16 574.36,-196.03 581.9,-203.48 584.9,-197.16"/>
<text text-anchor="middle" x="682.5" y="-217.8" font-family="Times,serif" font-size="14.00">成功获取路径</text>
</g>
<!-- validate_path&#45;&gt;end -->
<g id="edge20" class="edge">
<title>validate_path&#45;&gt;end</title>
<path fill="none" stroke="black" d="M469.01,-159.94C439.26,-149.55 406.22,-133.42 383.5,-109 367.32,-91.61 359.22,-65.5 355.24,-45.87"/>
<polygon fill="black" stroke="black" points="358.68,-45.23 353.46,-36.01 351.79,-46.47 358.68,-45.23"/>
<text text-anchor="middle" x="426.5" y="-87.3" font-family="Times,serif" font-size="14.00">返回组合路径</text>
</g>
<!-- error_bad_path -->
<g id="node19" class="node">
<title>error_bad_path</title>
<path fill="none" stroke="black" d="M654,-109C654,-109 491,-109 491,-109 485,-109 479,-103 479,-97 479,-97 479,-85 479,-85 479,-79 485,-73 491,-73 491,-73 654,-73 654,-73 660,-73 666,-79 666,-85 666,-85 666,-97 666,-97 666,-103 660,-109 654,-109"/>
<text text-anchor="middle" x="572.5" y="-87.3" font-family="Times,serif" font-size="14.00">返回error.BadPathName</text>
</g>
<!-- validate_path&#45;&gt;error_bad_path -->
<g id="edge19" class="edge">
<title>validate_path&#45;&gt;error_bad_path</title>
<path fill="none" stroke="black" d="M545.38,-159.8C550.08,-148.05 556.4,-132.24 561.76,-118.84"/>
<polygon fill="black" stroke="black" points="565.17,-119.76 565.63,-109.18 558.67,-117.16 565.17,-119.76"/>
<text text-anchor="middle" x="594.5" y="-130.8" font-family="Times,serif" font-size="14.00">存在空字符</text>
</g>
<!-- error_file_not_found&#45;&gt;end -->
<g id="edge23" class="edge">
<title>error_file_not_found&#45;&gt;end</title>
<path fill="none" stroke="black" d="M212.33,-72.99C238.06,-63.01 270.76,-50.32 298,-39.76"/>
<polygon fill="black" stroke="black" points="299.33,-42.99 307.39,-36.11 296.8,-36.47 299.33,-42.99"/>
</g>
<!-- error_unexpected&#45;&gt;end -->
<g id="edge24" class="edge">
<title>error_unexpected&#45;&gt;end</title>
<path fill="none" stroke="black" d="M855.32,-387.82C852.07,-368.75 847.5,-337.04 847.5,-309.5 847.5,-309.5 847.5,-309.5 847.5,-90 847.5,-47.34 556.34,-28.37 420.17,-21.83"/>
<polygon fill="black" stroke="black" points="420.01,-18.32 409.86,-21.35 419.68,-25.31 420.01,-18.32"/>
</g>
<!-- error_name_too_long -->
<g id="node18" class="node">
<title>error_name_too_long</title>
<path fill="none" stroke="black" d="M1050,-109C1050,-109 887,-109 887,-109 881,-109 875,-103 875,-97 875,-97 875,-85 875,-85 875,-79 881,-73 887,-73 887,-73 1050,-73 1050,-73 1056,-73 1062,-79 1062,-85 1062,-85 1062,-97 1062,-97 1062,-103 1056,-109 1050,-109"/>
<text text-anchor="middle" x="968.5" y="-87.3" font-family="Times,serif" font-size="14.00">返回error.NameTooLong</text>
</g>
<!-- error_name_too_long&#45;&gt;end -->
<g id="edge25" class="edge">
<title>error_name_too_long&#45;&gt;end</title>
<path fill="none" stroke="black" d="M926.23,-72.99C906.82,-65.91 883.32,-58.34 861.5,-54 705.77,-22.99 518.6,-18.23 420.01,-18.18"/>
<polygon fill="black" stroke="black" points="419.88,-14.68 409.88,-18.19 419.89,-21.68 419.88,-14.68"/>
</g>
<!-- error_bad_path&#45;&gt;end -->
<g id="edge26" class="edge">
<title>error_bad_path&#45;&gt;end</title>
<path fill="none" stroke="black" d="M519.56,-72.99C487.95,-62.84 447.62,-49.88 414.39,-39.2"/>
<polygon fill="black" stroke="black" points="415.36,-35.84 404.77,-36.11 413.22,-42.5 415.36,-35.84"/>
</g>
</g>
</svg>
