<?xml version="1.0" encoding="UTF-8" standalone="no"?>
<!DOCTYPE svg PUBLIC "-//W3C//DTD SVG 1.1//EN"
 "http://www.w3.org/Graphics/SVG/1.1/DTD/svg11.dtd">
<!-- Generated by graphviz version 2.43.0 (0)
 -->
<!-- Title: PriorityDequeue Pages: 1 -->
<svg width="1302pt" height="464pt"
 viewBox="0.00 0.00 1301.50 464.00" xmlns="http://www.w3.org/2000/svg" xmlns:xlink="http://www.w3.org/1999/xlink">
<g id="graph0" class="graph" transform="scale(1 1) rotate(0) translate(4 460)">
<title>PriorityDequeue</title>
<polygon fill="white" stroke="transparent" points="-4,4 -4,-460 1297.5,-460 1297.5,4 -4,4"/>
<g id="clust1" class="cluster">
<title>cluster_add</title>
<polygon fill="none" stroke="black" points="103,-8 103,-448 497,-448 497,-8 103,-8"/>
<text text-anchor="middle" x="300" y="-432.8" font-family="Times,serif" font-size="14.00">添加操作</text>
</g>
<g id="clust2" class="cluster">
<title>cluster_remove</title>
<polygon fill="none" stroke="black" points="703,-8 703,-448 1059,-448 1059,-8 703,-8"/>
<text text-anchor="middle" x="881" y="-432.8" font-family="Times,serif" font-size="14.00">移除操作</text>
</g>
<g id="clust3" class="cluster">
<title>cluster_capacity</title>
<polygon fill="none" stroke="black" points="505,-97 505,-263 695,-263 695,-97 505,-97"/>
<text text-anchor="middle" x="600" y="-247.8" font-family="Times,serif" font-size="14.00">容量管理</text>
</g>
<!-- init -->
<g id="node1" class="node">
<title>init</title>
<path fill="none" stroke="black" d="M54.5,-417C54.5,-417 19.5,-417 19.5,-417 13.5,-417 7.5,-411 7.5,-405 7.5,-405 7.5,-391 7.5,-391 7.5,-385 13.5,-379 19.5,-379 19.5,-379 54.5,-379 54.5,-379 60.5,-379 66.5,-385 66.5,-391 66.5,-391 66.5,-405 66.5,-405 66.5,-411 60.5,-417 54.5,-417"/>
<text text-anchor="middle" x="37" y="-401.8" font-family="Times,serif" font-size="14.00">初始化</text>
<text text-anchor="middle" x="37" y="-386.8" font-family="Times,serif" font-size="14.00">init()</text>
</g>
<!-- deinit -->
<g id="node2" class="node">
<title>deinit</title>
<path fill="none" stroke="black" d="M62,-328C62,-328 12,-328 12,-328 6,-328 0,-322 0,-316 0,-316 0,-302 0,-302 0,-296 6,-290 12,-290 12,-290 62,-290 62,-290 68,-290 74,-296 74,-302 74,-302 74,-316 74,-316 74,-322 68,-328 62,-328"/>
<text text-anchor="middle" x="37" y="-312.8" font-family="Times,serif" font-size="14.00">释放内存</text>
<text text-anchor="middle" x="37" y="-297.8" font-family="Times,serif" font-size="14.00">deinit()</text>
</g>
<!-- init&#45;&gt;deinit -->
<g id="edge1" class="edge">
<title>init&#45;&gt;deinit</title>
<path fill="none" stroke="black" d="M37,-378.97C37,-367.19 37,-351.56 37,-338.16"/>
<polygon fill="black" stroke="black" points="40.5,-338 37,-328 33.5,-338 40.5,-338"/>
<text text-anchor="middle" x="66" y="-349.8" font-family="Times,serif" font-size="14.00">释放内存</text>
</g>
<!-- add -->
<g id="node3" class="node">
<title>add</title>
<path fill="none" stroke="black" d="M253,-417C253,-417 189,-417 189,-417 183,-417 177,-411 177,-405 177,-405 177,-391 177,-391 177,-385 183,-379 189,-379 189,-379 253,-379 253,-379 259,-379 265,-385 265,-391 265,-391 265,-405 265,-405 265,-411 259,-417 253,-417"/>
<text text-anchor="middle" x="221" y="-401.8" font-family="Times,serif" font-size="14.00">添加元素</text>
<text text-anchor="middle" x="221" y="-386.8" font-family="Times,serif" font-size="14.00">add(elem)</text>
</g>
<!-- ensureUnusedCapacity -->
<g id="node5" class="node">
<title>ensureUnusedCapacity</title>
<path fill="none" stroke="black" d="M476.5,-328C476.5,-328 307.5,-328 307.5,-328 301.5,-328 295.5,-322 295.5,-316 295.5,-316 295.5,-302 295.5,-302 295.5,-296 301.5,-290 307.5,-290 307.5,-290 476.5,-290 476.5,-290 482.5,-290 488.5,-296 488.5,-302 488.5,-302 488.5,-316 488.5,-316 488.5,-322 482.5,-328 476.5,-328"/>
<text text-anchor="middle" x="392" y="-312.8" font-family="Times,serif" font-size="14.00">确保容量</text>
<text text-anchor="middle" x="392" y="-297.8" font-family="Times,serif" font-size="14.00">ensureUnusedCapacity()</text>
</g>
<!-- add&#45;&gt;ensureUnusedCapacity -->
<g id="edge2" class="edge">
<title>add&#45;&gt;ensureUnusedCapacity</title>
<path fill="none" stroke="black" d="M256.43,-378.97C282.91,-365.5 319.29,-346.99 347.69,-332.54"/>
<polygon fill="black" stroke="black" points="349.29,-335.66 356.61,-328 346.11,-329.42 349.29,-335.66"/>
</g>
<!-- addUnchecked -->
<g id="node6" class="node">
<title>addUnchecked</title>
<path fill="none" stroke="black" d="M265.5,-328C265.5,-328 122.5,-328 122.5,-328 116.5,-328 110.5,-322 110.5,-316 110.5,-316 110.5,-302 110.5,-302 110.5,-296 116.5,-290 122.5,-290 122.5,-290 265.5,-290 265.5,-290 271.5,-290 277.5,-296 277.5,-302 277.5,-302 277.5,-316 277.5,-316 277.5,-322 271.5,-328 265.5,-328"/>
<text text-anchor="middle" x="194" y="-312.8" font-family="Times,serif" font-size="14.00">无检查添加</text>
<text text-anchor="middle" x="194" y="-297.8" font-family="Times,serif" font-size="14.00">addUnchecked(elem)</text>
</g>
<!-- add&#45;&gt;addUnchecked -->
<g id="edge3" class="edge">
<title>add&#45;&gt;addUnchecked</title>
<path fill="none" stroke="black" d="M215.41,-378.97C211.71,-367.08 206.8,-351.25 202.62,-337.76"/>
<polygon fill="black" stroke="black" points="205.89,-336.52 199.59,-328 199.21,-338.59 205.89,-336.52"/>
</g>
<!-- addSlice -->
<g id="node4" class="node">
<title>addSlice</title>
<path fill="none" stroke="black" d="M435,-417C435,-417 331,-417 331,-417 325,-417 319,-411 319,-405 319,-405 319,-391 319,-391 319,-385 325,-379 331,-379 331,-379 435,-379 435,-379 441,-379 447,-385 447,-391 447,-391 447,-405 447,-405 447,-411 441,-417 435,-417"/>
<text text-anchor="middle" x="383" y="-401.8" font-family="Times,serif" font-size="14.00">批量添加</text>
<text text-anchor="middle" x="383" y="-386.8" font-family="Times,serif" font-size="14.00">addSlice(items)</text>
</g>
<!-- addSlice&#45;&gt;ensureUnusedCapacity -->
<g id="edge4" class="edge">
<title>addSlice&#45;&gt;ensureUnusedCapacity</title>
<path fill="none" stroke="black" d="M384.86,-378.97C386.08,-367.19 387.7,-351.56 389.09,-338.16"/>
<polygon fill="black" stroke="black" points="392.59,-338.31 390.14,-328 385.63,-337.59 392.59,-338.31"/>
</g>
<!-- addSlice&#45;&gt;addUnchecked -->
<g id="edge5" class="edge">
<title>addSlice&#45;&gt;addUnchecked</title>
<path fill="none" stroke="black" d="M343.84,-378.97C314.44,-365.44 274.02,-346.83 242.56,-332.35"/>
<polygon fill="black" stroke="black" points="243.66,-329.01 233.11,-328 240.73,-335.36 243.66,-329.01"/>
</g>
<!-- ensureTotalCapacity -->
<g id="node19" class="node">
<title>ensureTotalCapacity</title>
<path fill="none" stroke="black" d="M674.5,-232C674.5,-232 525.5,-232 525.5,-232 519.5,-232 513.5,-226 513.5,-220 513.5,-220 513.5,-206 513.5,-206 513.5,-200 519.5,-194 525.5,-194 525.5,-194 674.5,-194 674.5,-194 680.5,-194 686.5,-200 686.5,-206 686.5,-206 686.5,-220 686.5,-220 686.5,-226 680.5,-232 674.5,-232"/>
<text text-anchor="middle" x="600" y="-216.8" font-family="Times,serif" font-size="14.00">总容量调整</text>
<text text-anchor="middle" x="600" y="-201.8" font-family="Times,serif" font-size="14.00">ensureTotalCapacity()</text>
</g>
<!-- ensureUnusedCapacity&#45;&gt;ensureTotalCapacity -->
<g id="edge17" class="edge">
<title>ensureUnusedCapacity&#45;&gt;ensureTotalCapacity</title>
<path fill="none" stroke="black" d="M437.64,-289.97C457.27,-282 480.4,-272.34 501,-263 519.13,-254.78 538.83,-245.18 555.85,-236.66"/>
<polygon fill="black" stroke="black" points="557.64,-239.67 565,-232.05 554.49,-233.42 557.64,-239.67"/>
</g>
<!-- getStartForSiftUp -->
<g id="node7" class="node">
<title>getStartForSiftUp</title>
<path fill="none" stroke="black" d="M261,-232C261,-232 127,-232 127,-232 121,-232 115,-226 115,-220 115,-220 115,-206 115,-206 115,-200 121,-194 127,-194 127,-194 261,-194 261,-194 267,-194 273,-200 273,-206 273,-206 273,-220 273,-220 273,-226 267,-232 261,-232"/>
<text text-anchor="middle" x="194" y="-216.8" font-family="Times,serif" font-size="14.00">确定调整起点</text>
<text text-anchor="middle" x="194" y="-201.8" font-family="Times,serif" font-size="14.00">getStartForSiftUp()</text>
</g>
<!-- addUnchecked&#45;&gt;getStartForSiftUp -->
<g id="edge6" class="edge">
<title>addUnchecked&#45;&gt;getStartForSiftUp</title>
<path fill="none" stroke="black" d="M194,-289.88C194,-276.35 194,-257.62 194,-242.15"/>
<polygon fill="black" stroke="black" points="197.5,-242.07 194,-232.07 190.5,-242.07 197.5,-242.07"/>
</g>
<!-- siftUp -->
<g id="node8" class="node">
<title>siftUp</title>
<path fill="none" stroke="black" d="M240,-143C240,-143 148,-143 148,-143 142,-143 136,-137 136,-131 136,-131 136,-117 136,-117 136,-111 142,-105 148,-105 148,-105 240,-105 240,-105 246,-105 252,-111 252,-117 252,-117 252,-131 252,-131 252,-137 246,-143 240,-143"/>
<text text-anchor="middle" x="194" y="-127.8" font-family="Times,serif" font-size="14.00">向上调整堆结构</text>
<text text-anchor="middle" x="194" y="-112.8" font-family="Times,serif" font-size="14.00">siftUp()</text>
</g>
<!-- getStartForSiftUp&#45;&gt;siftUp -->
<g id="edge7" class="edge">
<title>getStartForSiftUp&#45;&gt;siftUp</title>
<path fill="none" stroke="black" d="M194,-193.97C194,-182.19 194,-166.56 194,-153.16"/>
<polygon fill="black" stroke="black" points="197.5,-153 194,-143 190.5,-153 197.5,-153"/>
</g>
<!-- doSiftUp -->
<g id="node9" class="node">
<title>doSiftUp</title>
<path fill="none" stroke="black" d="M233,-54C233,-54 155,-54 155,-54 149,-54 143,-48 143,-42 143,-42 143,-28 143,-28 143,-22 149,-16 155,-16 155,-16 233,-16 233,-16 239,-16 245,-22 245,-28 245,-28 245,-42 245,-42 245,-48 239,-54 233,-54"/>
<text text-anchor="middle" x="194" y="-38.8" font-family="Times,serif" font-size="14.00">执行向上调整</text>
<text text-anchor="middle" x="194" y="-23.8" font-family="Times,serif" font-size="14.00">doSiftUp()</text>
</g>
<!-- siftUp&#45;&gt;doSiftUp -->
<g id="edge8" class="edge">
<title>siftUp&#45;&gt;doSiftUp</title>
<path fill="none" stroke="black" d="M194,-104.97C194,-93.19 194,-77.56 194,-64.16"/>
<polygon fill="black" stroke="black" points="197.5,-64 194,-54 190.5,-64 197.5,-64"/>
<text text-anchor="middle" x="230" y="-75.8" font-family="Times,serif" font-size="14.00">根据层类型</text>
</g>
<!-- removeMin -->
<g id="node10" class="node">
<title>removeMin</title>
<path fill="none" stroke="black" d="M978,-417C978,-417 894,-417 894,-417 888,-417 882,-411 882,-405 882,-405 882,-391 882,-391 882,-385 888,-379 894,-379 894,-379 978,-379 978,-379 984,-379 990,-385 990,-391 990,-391 990,-405 990,-405 990,-411 984,-417 978,-417"/>
<text text-anchor="middle" x="936" y="-401.8" font-family="Times,serif" font-size="14.00">移除最小值</text>
<text text-anchor="middle" x="936" y="-386.8" font-family="Times,serif" font-size="14.00">removeMin()</text>
</g>
<!-- removeIndex -->
<g id="node12" class="node">
<title>removeIndex</title>
<path fill="none" stroke="black" d="M908,-328C908,-328 812,-328 812,-328 806,-328 800,-322 800,-316 800,-316 800,-302 800,-302 800,-296 806,-290 812,-290 812,-290 908,-290 908,-290 914,-290 920,-296 920,-302 920,-302 920,-316 920,-316 920,-322 914,-328 908,-328"/>
<text text-anchor="middle" x="860" y="-312.8" font-family="Times,serif" font-size="14.00">按索引移除</text>
<text text-anchor="middle" x="860" y="-297.8" font-family="Times,serif" font-size="14.00">removeIndex()</text>
</g>
<!-- removeMin&#45;&gt;removeIndex -->
<g id="edge9" class="edge">
<title>removeMin&#45;&gt;removeIndex</title>
<path fill="none" stroke="black" d="M920.25,-378.97C909.35,-366.49 894.67,-349.69 882.53,-335.79"/>
<polygon fill="black" stroke="black" points="884.94,-333.23 875.73,-328 879.67,-337.84 884.94,-333.23"/>
</g>
<!-- removeMax -->
<g id="node11" class="node">
<title>removeMax</title>
<path fill="none" stroke="black" d="M851.5,-417C851.5,-417 764.5,-417 764.5,-417 758.5,-417 752.5,-411 752.5,-405 752.5,-405 752.5,-391 752.5,-391 752.5,-385 758.5,-379 764.5,-379 764.5,-379 851.5,-379 851.5,-379 857.5,-379 863.5,-385 863.5,-391 863.5,-391 863.5,-405 863.5,-405 863.5,-411 857.5,-417 851.5,-417"/>
<text text-anchor="middle" x="808" y="-401.8" font-family="Times,serif" font-size="14.00">移除最大值</text>
<text text-anchor="middle" x="808" y="-386.8" font-family="Times,serif" font-size="14.00">removeMax()</text>
</g>
<!-- removeMax&#45;&gt;removeIndex -->
<g id="edge10" class="edge">
<title>removeMax&#45;&gt;removeIndex</title>
<path fill="none" stroke="black" d="M818.77,-378.97C826.03,-366.84 835.72,-350.63 843.88,-336.97"/>
<polygon fill="black" stroke="black" points="847.11,-338.38 849.24,-328 841.1,-334.79 847.11,-338.38"/>
</g>
<!-- siftDown -->
<g id="node13" class="node">
<title>siftDown</title>
<path fill="none" stroke="black" d="M906,-232C906,-232 814,-232 814,-232 808,-232 802,-226 802,-220 802,-220 802,-206 802,-206 802,-200 808,-194 814,-194 814,-194 906,-194 906,-194 912,-194 918,-200 918,-206 918,-206 918,-220 918,-220 918,-226 912,-232 906,-232"/>
<text text-anchor="middle" x="860" y="-216.8" font-family="Times,serif" font-size="14.00">向下调整堆结构</text>
<text text-anchor="middle" x="860" y="-201.8" font-family="Times,serif" font-size="14.00">siftDown()</text>
</g>
<!-- removeIndex&#45;&gt;siftDown -->
<g id="edge11" class="edge">
<title>removeIndex&#45;&gt;siftDown</title>
<path fill="none" stroke="black" d="M860,-289.88C860,-276.35 860,-257.62 860,-242.15"/>
<polygon fill="black" stroke="black" points="863.5,-242.07 860,-232.07 856.5,-242.07 863.5,-242.07"/>
</g>
<!-- doSiftDown -->
<g id="node14" class="node">
<title>doSiftDown</title>
<path fill="none" stroke="black" d="M903,-143C903,-143 817,-143 817,-143 811,-143 805,-137 805,-131 805,-131 805,-117 805,-117 805,-111 811,-105 817,-105 817,-105 903,-105 903,-105 909,-105 915,-111 915,-117 915,-117 915,-131 915,-131 915,-137 909,-143 903,-143"/>
<text text-anchor="middle" x="860" y="-127.8" font-family="Times,serif" font-size="14.00">执行向下调整</text>
<text text-anchor="middle" x="860" y="-112.8" font-family="Times,serif" font-size="14.00">doSiftDown()</text>
</g>
<!-- siftDown&#45;&gt;doSiftDown -->
<g id="edge12" class="edge">
<title>siftDown&#45;&gt;doSiftDown</title>
<path fill="none" stroke="black" d="M860,-193.97C860,-182.19 860,-166.56 860,-153.16"/>
<polygon fill="black" stroke="black" points="863.5,-153 860,-143 856.5,-153 863.5,-153"/>
<text text-anchor="middle" x="896" y="-164.8" font-family="Times,serif" font-size="14.00">根据层类型</text>
</g>
<!-- swapIfParentIsBetter -->
<g id="node15" class="node">
<title>swapIfParentIsBetter</title>
<path fill="none" stroke="black" d="M879,-54C879,-54 723,-54 723,-54 717,-54 711,-48 711,-42 711,-42 711,-28 711,-28 711,-22 717,-16 723,-16 723,-16 879,-16 879,-16 885,-16 891,-22 891,-28 891,-28 891,-42 891,-42 891,-48 885,-54 879,-54"/>
<text text-anchor="middle" x="801" y="-38.8" font-family="Times,serif" font-size="14.00">与父节点交换</text>
<text text-anchor="middle" x="801" y="-23.8" font-family="Times,serif" font-size="14.00">swapIfParentIsBetter()</text>
</g>
<!-- doSiftDown&#45;&gt;swapIfParentIsBetter -->
<g id="edge14" class="edge">
<title>doSiftDown&#45;&gt;swapIfParentIsBetter</title>
<path fill="none" stroke="black" d="M847.78,-104.97C839.47,-92.73 828.34,-76.32 819.02,-62.58"/>
<polygon fill="black" stroke="black" points="821.72,-60.32 813.21,-54 815.93,-64.24 821.72,-60.32"/>
<text text-anchor="middle" x="863" y="-75.8" font-family="Times,serif" font-size="14.00">需要调整</text>
</g>
<!-- bestDescendent -->
<g id="node16" class="node">
<title>bestDescendent</title>
<path fill="none" stroke="black" d="M1039,-54C1039,-54 921,-54 921,-54 915,-54 909,-48 909,-42 909,-42 909,-28 909,-28 909,-22 915,-16 921,-16 921,-16 1039,-16 1039,-16 1045,-16 1051,-22 1051,-28 1051,-28 1051,-42 1051,-42 1051,-48 1045,-54 1039,-54"/>
<text text-anchor="middle" x="980" y="-38.8" font-family="Times,serif" font-size="14.00">寻找最佳后代</text>
<text text-anchor="middle" x="980" y="-23.8" font-family="Times,serif" font-size="14.00">bestDescendent()</text>
</g>
<!-- doSiftDown&#45;&gt;bestDescendent -->
<g id="edge13" class="edge">
<title>doSiftDown&#45;&gt;bestDescendent</title>
<path fill="none" stroke="black" d="M884.86,-104.97C902.8,-91.97 927.22,-74.27 946.82,-60.06"/>
<polygon fill="black" stroke="black" points="949.13,-62.71 955.17,-54 945.02,-57.04 949.13,-62.71"/>
</g>
<!-- peekMin -->
<g id="node17" class="node">
<title>peekMin</title>
<path fill="none" stroke="black" d="M1143.5,-417C1143.5,-417 1078.5,-417 1078.5,-417 1072.5,-417 1066.5,-411 1066.5,-405 1066.5,-405 1066.5,-391 1066.5,-391 1066.5,-385 1072.5,-379 1078.5,-379 1078.5,-379 1143.5,-379 1143.5,-379 1149.5,-379 1155.5,-385 1155.5,-391 1155.5,-391 1155.5,-405 1155.5,-405 1155.5,-411 1149.5,-417 1143.5,-417"/>
<text text-anchor="middle" x="1111" y="-401.8" font-family="Times,serif" font-size="14.00">查看最小值</text>
<text text-anchor="middle" x="1111" y="-386.8" font-family="Times,serif" font-size="14.00">peekMin()</text>
</g>
<!-- peekMax -->
<g id="node18" class="node">
<title>peekMax</title>
<path fill="none" stroke="black" d="M1254,-417C1254,-417 1186,-417 1186,-417 1180,-417 1174,-411 1174,-405 1174,-405 1174,-391 1174,-391 1174,-385 1180,-379 1186,-379 1186,-379 1254,-379 1254,-379 1260,-379 1266,-385 1266,-391 1266,-391 1266,-405 1266,-405 1266,-411 1260,-417 1254,-417"/>
<text text-anchor="middle" x="1220" y="-401.8" font-family="Times,serif" font-size="14.00">查看最大值</text>
<text text-anchor="middle" x="1220" y="-386.8" font-family="Times,serif" font-size="14.00">peekMax()</text>
</g>
<!-- bestItemAtIndices -->
<g id="node21" class="node">
<title>bestItemAtIndices</title>
<path fill="none" stroke="black" d="M1281.5,-327C1281.5,-327 1158.5,-327 1158.5,-327 1152.5,-327 1146.5,-321 1146.5,-315 1146.5,-315 1146.5,-303 1146.5,-303 1146.5,-297 1152.5,-291 1158.5,-291 1158.5,-291 1281.5,-291 1281.5,-291 1287.5,-291 1293.5,-297 1293.5,-303 1293.5,-303 1293.5,-315 1293.5,-315 1293.5,-321 1287.5,-327 1281.5,-327"/>
<text text-anchor="middle" x="1220" y="-305.3" font-family="Times,serif" font-size="14.00">bestItemAtIndices</text>
</g>
<!-- peekMax&#45;&gt;bestItemAtIndices -->
<g id="edge15" class="edge">
<title>peekMax&#45;&gt;bestItemAtIndices</title>
<path fill="none" stroke="black" d="M1220,-378.97C1220,-366.96 1220,-350.93 1220,-337.36"/>
<polygon fill="black" stroke="black" points="1223.5,-337.12 1220,-327.12 1216.5,-337.12 1223.5,-337.12"/>
</g>
<!-- shrinkAndFree -->
<g id="node20" class="node">
<title>shrinkAndFree</title>
<path fill="none" stroke="black" d="M654.5,-143C654.5,-143 545.5,-143 545.5,-143 539.5,-143 533.5,-137 533.5,-131 533.5,-131 533.5,-117 533.5,-117 533.5,-111 539.5,-105 545.5,-105 545.5,-105 654.5,-105 654.5,-105 660.5,-105 666.5,-111 666.5,-117 666.5,-117 666.5,-131 666.5,-131 666.5,-137 660.5,-143 654.5,-143"/>
<text text-anchor="middle" x="600" y="-127.8" font-family="Times,serif" font-size="14.00">缩减容量</text>
<text text-anchor="middle" x="600" y="-112.8" font-family="Times,serif" font-size="14.00">shrinkAndFree()</text>
</g>
<!-- ensureTotalCapacity&#45;&gt;shrinkAndFree -->
<g id="edge16" class="edge">
<title>ensureTotalCapacity&#45;&gt;shrinkAndFree</title>
<path fill="none" stroke="black" d="M600,-193.97C600,-182.19 600,-166.56 600,-153.16"/>
<polygon fill="black" stroke="black" points="603.5,-153 600,-143 596.5,-153 603.5,-153"/>
<text text-anchor="middle" x="629" y="-164.8" font-family="Times,serif" font-size="14.00">容量缩减</text>
</g>
</g>
</svg>
