<?xml version="1.0" encoding="UTF-8" standalone="no"?>
<!DOCTYPE svg PUBLIC "-//W3C//DTD SVG 1.1//EN"
 "http://www.w3.org/Graphics/SVG/1.1/DTD/svg11.dtd">
<!-- Generated by graphviz version 2.43.0 (0)
 -->
<!-- Title: ArgIteratorGeneral Pages: 1 -->
<svg width="2159pt" height="634pt"
 viewBox="0.00 0.00 2159.00 634.00" xmlns="http://www.w3.org/2000/svg" xmlns:xlink="http://www.w3.org/1999/xlink">
<g id="graph0" class="graph" transform="scale(1 1) rotate(0) translate(4 630)">
<title>ArgIteratorGeneral</title>
<polygon fill="white" stroke="transparent" points="-4,4 -4,-630 2155,-630 2155,4 -4,4"/>
<!-- ArgIteratorGeneral -->
<g id="node1" class="node">
<title>ArgIteratorGeneral</title>
<path fill="none" stroke="black" d="M940,-626C940,-626 810,-626 810,-626 804,-626 798,-620 798,-614 798,-614 798,-602 798,-602 798,-596 804,-590 810,-590 810,-590 940,-590 940,-590 946,-590 952,-596 952,-602 952,-602 952,-614 952,-614 952,-620 946,-626 940,-626"/>
<text text-anchor="middle" x="875" y="-604.3" font-family="Times,serif" font-size="14.00">ArgIteratorGeneral</text>
</g>
<!-- Struct -->
<g id="node2" class="node">
<title>Struct</title>
<path fill="none" stroke="black" d="M928.5,-553C928.5,-553 821.5,-553 821.5,-553 815.5,-553 809.5,-547 809.5,-541 809.5,-541 809.5,-529 809.5,-529 809.5,-523 815.5,-517 821.5,-517 821.5,-517 928.5,-517 928.5,-517 934.5,-517 940.5,-523 940.5,-529 940.5,-529 940.5,-541 940.5,-541 940.5,-547 934.5,-553 928.5,-553"/>
<text text-anchor="middle" x="875" y="-531.3" font-family="Times,serif" font-size="14.00">返回的结构体类型</text>
</g>
<!-- ArgIteratorGeneral&#45;&gt;Struct -->
<g id="edge1" class="edge">
<title>ArgIteratorGeneral&#45;&gt;Struct</title>
<path fill="none" stroke="black" d="M875,-589.81C875,-581.79 875,-572.05 875,-563.07"/>
<polygon fill="black" stroke="black" points="878.5,-563.03 875,-553.03 871.5,-563.03 878.5,-563.03"/>
</g>
<!-- init -->
<g id="node3" class="node">
<title>init</title>
<path fill="none" stroke="black" d="M489.5,-480C489.5,-480 402.5,-480 402.5,-480 396.5,-480 390.5,-474 390.5,-468 390.5,-468 390.5,-439 390.5,-439 390.5,-433 396.5,-427 402.5,-427 402.5,-427 489.5,-427 489.5,-427 495.5,-427 501.5,-433 501.5,-439 501.5,-439 501.5,-468 501.5,-468 501.5,-474 495.5,-480 489.5,-480"/>
<text text-anchor="middle" x="446" y="-464.8" font-family="Times,serif" font-size="14.00">init():</text>
<text text-anchor="middle" x="446" y="-449.8" font-family="Times,serif" font-size="14.00">&#45; 分配buffer</text>
<text text-anchor="middle" x="446" y="-434.8" font-family="Times,serif" font-size="14.00">&#45; 设置初始状态</text>
</g>
<!-- Struct&#45;&gt;init -->
<g id="edge2" class="edge">
<title>Struct&#45;&gt;init</title>
<path fill="none" stroke="black" d="M809.38,-521.84C728.68,-506.89 592.52,-481.65 511.76,-466.69"/>
<polygon fill="black" stroke="black" points="512.18,-463.2 501.71,-464.82 510.9,-470.09 512.18,-463.2"/>
</g>
<!-- initTakeOwnership -->
<g id="node4" class="node">
<title>initTakeOwnership</title>
<path fill="none" stroke="black" d="M787,-480C787,-480 645,-480 645,-480 639,-480 633,-474 633,-468 633,-468 633,-439 633,-439 633,-433 639,-427 645,-427 645,-427 787,-427 787,-427 793,-427 799,-433 799,-439 799,-439 799,-468 799,-468 799,-474 793,-480 787,-480"/>
<text text-anchor="middle" x="716" y="-464.8" font-family="Times,serif" font-size="14.00">initTakeOwnership():</text>
<text text-anchor="middle" x="716" y="-449.8" font-family="Times,serif" font-size="14.00">&#45; 分配buffer</text>
<text text-anchor="middle" x="716" y="-434.8" font-family="Times,serif" font-size="14.00">&#45; 设置释放标志</text>
</g>
<!-- Struct&#45;&gt;initTakeOwnership -->
<g id="edge3" class="edge">
<title>Struct&#45;&gt;initTakeOwnership</title>
<path fill="none" stroke="black" d="M840.89,-516.95C822.13,-507.56 798.29,-495.65 776.48,-484.74"/>
<polygon fill="black" stroke="black" points="777.79,-481.48 767.28,-480.14 774.66,-487.74 777.79,-481.48"/>
</g>
<!-- skipWhitespace -->
<g id="node5" class="node">
<title>skipWhitespace</title>
<path fill="none" stroke="black" d="M305.5,-376C305.5,-376 184.5,-376 184.5,-376 178.5,-376 172.5,-370 172.5,-364 172.5,-364 172.5,-350 172.5,-350 172.5,-344 178.5,-338 184.5,-338 184.5,-338 305.5,-338 305.5,-338 311.5,-338 317.5,-344 317.5,-350 317.5,-350 317.5,-364 317.5,-364 317.5,-370 311.5,-376 305.5,-376"/>
<text text-anchor="middle" x="245" y="-360.8" font-family="Times,serif" font-size="14.00">skipWhitespace():</text>
<text text-anchor="middle" x="245" y="-345.8" font-family="Times,serif" font-size="14.00">循环处理空白和注释</text>
</g>
<!-- Struct&#45;&gt;skipWhitespace -->
<g id="edge4" class="edge">
<title>Struct&#45;&gt;skipWhitespace</title>
<path fill="none" stroke="black" d="M809.27,-531.79C692.95,-527.05 456.03,-513.51 381,-480 332.76,-458.46 289.72,-413.3 265.54,-384.38"/>
<polygon fill="black" stroke="black" points="267.99,-381.85 258.94,-376.33 262.57,-386.28 267.99,-381.85"/>
</g>
<!-- skip -->
<g id="node6" class="node">
<title>skip</title>
<path fill="none" stroke="black" d="M863,-471.5C863,-471.5 833,-471.5 833,-471.5 827,-471.5 821,-465.5 821,-459.5 821,-459.5 821,-447.5 821,-447.5 821,-441.5 827,-435.5 833,-435.5 833,-435.5 863,-435.5 863,-435.5 869,-435.5 875,-441.5 875,-447.5 875,-447.5 875,-459.5 875,-459.5 875,-465.5 869,-471.5 863,-471.5"/>
<text text-anchor="middle" x="848" y="-449.8" font-family="Times,serif" font-size="14.00">skip</text>
</g>
<!-- Struct&#45;&gt;skip -->
<g id="edge5" class="edge">
<title>Struct&#45;&gt;skip</title>
<path fill="none" stroke="black" d="M869.14,-516.75C865.64,-506.44 861.11,-493.11 857.15,-481.43"/>
<polygon fill="black" stroke="black" points="860.38,-480.06 853.85,-471.72 853.75,-482.31 860.38,-480.06"/>
</g>
<!-- next -->
<g id="node7" class="node">
<title>next</title>
<path fill="none" stroke="black" d="M1162,-472.5C1162,-472.5 1070,-472.5 1070,-472.5 1064,-472.5 1058,-466.5 1058,-460.5 1058,-460.5 1058,-446.5 1058,-446.5 1058,-440.5 1064,-434.5 1070,-434.5 1070,-434.5 1162,-434.5 1162,-434.5 1168,-434.5 1174,-440.5 1174,-446.5 1174,-446.5 1174,-460.5 1174,-460.5 1174,-466.5 1168,-472.5 1162,-472.5"/>
<text text-anchor="middle" x="1116" y="-457.3" font-family="Times,serif" font-size="14.00">next():</text>
<text text-anchor="middle" x="1116" y="-442.3" font-family="Times,serif" font-size="14.00">参数解析状态机</text>
</g>
<!-- Struct&#45;&gt;next -->
<g id="edge6" class="edge">
<title>Struct&#45;&gt;next</title>
<path fill="none" stroke="black" d="M926.7,-516.95C963.17,-504.92 1012.27,-488.72 1051.33,-475.83"/>
<polygon fill="black" stroke="black" points="1052.63,-479.09 1061.03,-472.63 1050.44,-472.44 1052.63,-479.09"/>
</g>
<!-- emitBackslashes -->
<g id="node8" class="node">
<title>emitBackslashes</title>
<path fill="none" stroke="black" d="M1147.5,-287C1147.5,-287 1012.5,-287 1012.5,-287 1006.5,-287 1000.5,-281 1000.5,-275 1000.5,-275 1000.5,-261 1000.5,-261 1000.5,-255 1006.5,-249 1012.5,-249 1012.5,-249 1147.5,-249 1147.5,-249 1153.5,-249 1159.5,-255 1159.5,-261 1159.5,-261 1159.5,-275 1159.5,-275 1159.5,-281 1153.5,-287 1147.5,-287"/>
<text text-anchor="middle" x="1080" y="-271.8" font-family="Times,serif" font-size="14.00">emitBackslashes():</text>
<text text-anchor="middle" x="1080" y="-256.8" font-family="Times,serif" font-size="14.00">写入指定数量的反斜杠</text>
</g>
<!-- Struct&#45;&gt;emitBackslashes -->
<g id="edge7" class="edge">
<title>Struct&#45;&gt;emitBackslashes</title>
<path fill="none" stroke="black" d="M877.9,-516.9C885.17,-475.17 904.8,-369.28 922,-338 931.84,-320.1 936.47,-315.5 954,-305 965.28,-298.25 977.88,-292.71 990.64,-288.18"/>
<polygon fill="black" stroke="black" points="992.03,-291.41 1000.41,-284.91 989.81,-284.77 992.03,-291.41"/>
</g>
<!-- emitCharacter -->
<g id="node9" class="node">
<title>emitCharacter</title>
<path fill="none" stroke="black" d="M1629.5,-38C1629.5,-38 1494.5,-38 1494.5,-38 1488.5,-38 1482.5,-32 1482.5,-26 1482.5,-26 1482.5,-12 1482.5,-12 1482.5,-6 1488.5,0 1494.5,0 1494.5,0 1629.5,0 1629.5,0 1635.5,0 1641.5,-6 1641.5,-12 1641.5,-12 1641.5,-26 1641.5,-26 1641.5,-32 1635.5,-38 1629.5,-38"/>
<text text-anchor="middle" x="1562" y="-22.8" font-family="Times,serif" font-size="14.00">emitCharacter():</text>
<text text-anchor="middle" x="1562" y="-7.8" font-family="Times,serif" font-size="14.00">写入单个字符到缓冲区</text>
</g>
<!-- Struct&#45;&gt;emitCharacter -->
<g id="edge8" class="edge">
<title>Struct&#45;&gt;emitCharacter</title>
<path fill="none" stroke="black" d="M940.82,-534.29C1131.53,-534.25 1671,-527.67 1671,-454.5 1671,-454.5 1671,-454.5 1671,-92 1671,-69.48 1654.6,-53.6 1634.52,-42.59"/>
<polygon fill="black" stroke="black" points="1635.91,-39.37 1625.41,-38.02 1632.78,-45.63 1635.91,-39.37"/>
</g>
<!-- deinit -->
<g id="node10" class="node">
<title>deinit</title>
<path fill="none" stroke="black" d="M1852.5,-472.5C1852.5,-472.5 1711.5,-472.5 1711.5,-472.5 1705.5,-472.5 1699.5,-466.5 1699.5,-460.5 1699.5,-460.5 1699.5,-446.5 1699.5,-446.5 1699.5,-440.5 1705.5,-434.5 1711.5,-434.5 1711.5,-434.5 1852.5,-434.5 1852.5,-434.5 1858.5,-434.5 1864.5,-440.5 1864.5,-446.5 1864.5,-446.5 1864.5,-460.5 1864.5,-460.5 1864.5,-466.5 1858.5,-472.5 1852.5,-472.5"/>
<text text-anchor="middle" x="1782" y="-457.3" font-family="Times,serif" font-size="14.00">deinit():</text>
<text text-anchor="middle" x="1782" y="-442.3" font-family="Times,serif" font-size="14.00">释放buffer和cmd_line</text>
</g>
<!-- Struct&#45;&gt;deinit -->
<g id="edge9" class="edge">
<title>Struct&#45;&gt;deinit</title>
<path fill="none" stroke="black" d="M940.71,-534.41C1107.58,-534.93 1544.4,-532.91 1685,-499 1704.45,-494.31 1724.76,-485.66 1741.73,-477.22"/>
<polygon fill="black" stroke="black" points="1743.48,-480.25 1750.79,-472.58 1740.29,-474.02 1743.48,-480.25"/>
</g>
<!-- init&#45;&gt;skipWhitespace -->
<g id="edge34" class="edge">
<title>init&#45;&gt;skipWhitespace</title>
<path fill="none" stroke="gray" stroke-dasharray="5,2" d="M391.61,-426.93C360.76,-412.43 322.52,-394.45 292.83,-380.49"/>
<polygon fill="gray" stroke="gray" points="294.05,-377.19 283.51,-376.11 291.07,-383.53 294.05,-377.19"/>
</g>
<!-- buffer_alloc -->
<g id="node11" class="node">
<title>buffer_alloc</title>
<path fill="none" stroke="black" d="M422.5,-375C422.5,-375 347.5,-375 347.5,-375 341.5,-375 335.5,-369 335.5,-363 335.5,-363 335.5,-351 335.5,-351 335.5,-345 341.5,-339 347.5,-339 347.5,-339 422.5,-339 422.5,-339 428.5,-339 434.5,-345 434.5,-351 434.5,-351 434.5,-363 434.5,-363 434.5,-369 428.5,-375 422.5,-375"/>
<text text-anchor="middle" x="385" y="-353.3" font-family="Times,serif" font-size="14.00">buffer_alloc</text>
</g>
<!-- init&#45;&gt;buffer_alloc -->
<g id="edge10" class="edge">
<title>init&#45;&gt;buffer_alloc</title>
<path fill="none" stroke="black" d="M393.24,-426.94C387.14,-421.84 381.77,-415.88 378,-409 374.02,-401.72 373.84,-393.02 375.24,-384.88"/>
<polygon fill="black" stroke="black" points="378.67,-385.57 377.68,-375.02 371.88,-383.89 378.67,-385.57"/>
<text text-anchor="middle" x="432.5" y="-397.8" font-family="Times,serif" font-size="14.00">allocator.alloc()</text>
</g>
<!-- return_struct -->
<g id="node13" class="node">
<title>return_struct</title>
<path fill="none" stroke="black" d="M553,-375C553,-375 465,-375 465,-375 459,-375 453,-369 453,-363 453,-363 453,-351 453,-351 453,-345 459,-339 465,-339 465,-339 553,-339 553,-339 559,-339 565,-345 565,-351 565,-351 565,-363 565,-363 565,-369 559,-375 553,-375"/>
<text text-anchor="middle" x="509" y="-353.3" font-family="Times,serif" font-size="14.00">return_struct</text>
</g>
<!-- init&#45;&gt;return_struct -->
<g id="edge12" class="edge">
<title>init&#45;&gt;return_struct</title>
<path fill="none" stroke="black" d="M473.16,-426.59C478.14,-421.07 483.01,-415.07 487,-409 491.9,-401.55 496.12,-392.84 499.53,-384.74"/>
<polygon fill="black" stroke="black" points="502.84,-385.88 503.26,-375.29 496.33,-383.3 502.84,-385.88"/>
<text text-anchor="middle" x="567.5" y="-397.8" font-family="Times,serif" font-size="14.00">返回初始化后的结构体</text>
</g>
<!-- buffer_alloc_take -->
<g id="node14" class="node">
<title>buffer_alloc_take</title>
<path fill="none" stroke="black" d="M696.5,-375C696.5,-375 595.5,-375 595.5,-375 589.5,-375 583.5,-369 583.5,-363 583.5,-363 583.5,-351 583.5,-351 583.5,-345 589.5,-339 595.5,-339 595.5,-339 696.5,-339 696.5,-339 702.5,-339 708.5,-345 708.5,-351 708.5,-351 708.5,-363 708.5,-363 708.5,-369 702.5,-375 696.5,-375"/>
<text text-anchor="middle" x="646" y="-353.3" font-family="Times,serif" font-size="14.00">allocator.alloc()</text>
</g>
<!-- initTakeOwnership&#45;&gt;buffer_alloc_take -->
<g id="edge13" class="edge">
<title>initTakeOwnership&#45;&gt;buffer_alloc_take</title>
<path fill="none" stroke="black" d="M696.87,-426.68C686.91,-413.23 674.77,-396.84 664.85,-383.45"/>
<polygon fill="black" stroke="black" points="667.46,-381.09 658.7,-375.14 661.84,-385.26 667.46,-381.09"/>
</g>
<!-- return_struct_take -->
<g id="node16" class="node">
<title>return_struct_take</title>
<path fill="none" stroke="black" d="M863.5,-375C863.5,-375 738.5,-375 738.5,-375 732.5,-375 726.5,-369 726.5,-363 726.5,-363 726.5,-351 726.5,-351 726.5,-345 732.5,-339 738.5,-339 738.5,-339 863.5,-339 863.5,-339 869.5,-339 875.5,-345 875.5,-351 875.5,-351 875.5,-363 875.5,-363 875.5,-369 869.5,-375 863.5,-375"/>
<text text-anchor="middle" x="801" y="-353.3" font-family="Times,serif" font-size="14.00">return_struct_take</text>
</g>
<!-- initTakeOwnership&#45;&gt;return_struct_take -->
<g id="edge15" class="edge">
<title>initTakeOwnership&#45;&gt;return_struct_take</title>
<path fill="none" stroke="black" d="M710.57,-426.76C709.67,-415.82 710.66,-403.44 717,-394 720.4,-388.94 724.67,-384.58 729.48,-380.84"/>
<polygon fill="black" stroke="black" points="731.67,-383.58 738.01,-375.1 727.76,-377.78 731.67,-383.58"/>
<text text-anchor="middle" x="803" y="-397.8" font-family="Times,serif" font-size="14.00">返回带所有权标志的结构体</text>
</g>
<!-- check_character -->
<g id="node17" class="node">
<title>check_character</title>
<path fill="none" stroke="black" d="M299,-286C299,-286 191,-286 191,-286 185,-286 179,-280 179,-274 179,-274 179,-262 179,-262 179,-256 185,-250 191,-250 191,-250 299,-250 299,-250 305,-250 311,-256 311,-262 311,-262 311,-274 311,-274 311,-280 305,-286 299,-286"/>
<text text-anchor="middle" x="245" y="-264.3" font-family="Times,serif" font-size="14.00">check_character</text>
</g>
<!-- skipWhitespace&#45;&gt;check_character -->
<g id="edge16" class="edge">
<title>skipWhitespace&#45;&gt;check_character</title>
<path fill="none" stroke="black" d="M245,-337.97C245,-325.96 245,-309.93 245,-296.36"/>
<polygon fill="black" stroke="black" points="248.5,-296.12 245,-286.12 241.5,-296.12 248.5,-296.12"/>
<text text-anchor="middle" x="274" y="-308.8" font-family="Times,serif" font-size="14.00">遍历字符</text>
</g>
<!-- next&#45;&gt;emitBackslashes -->
<g id="edge35" class="edge">
<title>next&#45;&gt;emitBackslashes</title>
<path fill="none" stroke="gray" stroke-dasharray="5,2" d="M1112.42,-434.23C1106.11,-402.08 1092.99,-335.19 1085.52,-297.11"/>
<polygon fill="gray" stroke="gray" points="1088.93,-296.33 1083.57,-287.19 1082.06,-297.68 1088.93,-296.33"/>
</g>
<!-- next&#45;&gt;emitCharacter -->
<g id="edge36" class="edge">
<title>next&#45;&gt;emitCharacter</title>
<path fill="none" stroke="gray" stroke-dasharray="5,2" d="M1174.21,-448.32C1231.35,-440.68 1310,-419.07 1310,-358 1310,-358 1310,-358 1310,-92 1310,-57.23 1399.79,-38.32 1472.18,-28.72"/>
<polygon fill="gray" stroke="gray" points="1472.79,-32.17 1482.27,-27.42 1471.9,-25.23 1472.79,-32.17"/>
</g>
<!-- call_skipWhitespace -->
<g id="node23" class="node">
<title>call_skipWhitespace</title>
<path fill="none" stroke="black" d="M1486,-375C1486,-375 1350,-375 1350,-375 1344,-375 1338,-369 1338,-363 1338,-363 1338,-351 1338,-351 1338,-345 1344,-339 1350,-339 1350,-339 1486,-339 1486,-339 1492,-339 1498,-345 1498,-351 1498,-351 1498,-363 1498,-363 1498,-369 1492,-375 1486,-375"/>
<text text-anchor="middle" x="1418" y="-353.3" font-family="Times,serif" font-size="14.00">call_skipWhitespace</text>
</g>
<!-- next&#45;&gt;call_skipWhitespace -->
<g id="edge22" class="edge">
<title>next&#45;&gt;call_skipWhitespace</title>
<path fill="none" stroke="black" d="M1174.2,-444.97C1216.61,-438.37 1274.99,-426.98 1324,-409 1344.15,-401.61 1365.27,-390.49 1382.37,-380.52"/>
<polygon fill="black" stroke="black" points="1384.62,-383.26 1391.43,-375.14 1381.05,-377.24 1384.62,-383.26"/>
</g>
<!-- handle_backslash -->
<g id="node28" class="node">
<title>handle_backslash</title>
<path fill="none" stroke="black" d="M1240.5,-375C1240.5,-375 1123.5,-375 1123.5,-375 1117.5,-375 1111.5,-369 1111.5,-363 1111.5,-363 1111.5,-351 1111.5,-351 1111.5,-345 1117.5,-339 1123.5,-339 1123.5,-339 1240.5,-339 1240.5,-339 1246.5,-339 1252.5,-345 1252.5,-351 1252.5,-351 1252.5,-363 1252.5,-363 1252.5,-369 1246.5,-375 1240.5,-375"/>
<text text-anchor="middle" x="1182" y="-353.3" font-family="Times,serif" font-size="14.00">handle_backslash</text>
</g>
<!-- next&#45;&gt;handle_backslash -->
<g id="edge27" class="edge">
<title>next&#45;&gt;handle_backslash</title>
<path fill="none" stroke="black" d="M1128.73,-434.28C1138.78,-419.89 1152.92,-399.63 1164.11,-383.61"/>
<polygon fill="black" stroke="black" points="1167.12,-385.41 1169.98,-375.21 1161.39,-381.4 1167.12,-385.41"/>
<text text-anchor="middle" x="1207" y="-397.8" font-family="Times,serif" font-size="14.00">处理反斜杠计数</text>
</g>
<!-- emit_character -->
<g id="node31" class="node">
<title>emit_character</title>
<path fill="none" stroke="black" d="M1043,-375C1043,-375 943,-375 943,-375 937,-375 931,-369 931,-363 931,-363 931,-351 931,-351 931,-345 937,-339 943,-339 943,-339 1043,-339 1043,-339 1049,-339 1055,-345 1055,-351 1055,-351 1055,-363 1055,-363 1055,-369 1049,-375 1043,-375"/>
<text text-anchor="middle" x="993" y="-353.3" font-family="Times,serif" font-size="14.00">emit_character</text>
</g>
<!-- next&#45;&gt;emit_character -->
<g id="edge30" class="edge">
<title>next&#45;&gt;emit_character</title>
<path fill="none" stroke="black" d="M1057.76,-448.7C1030.41,-443.63 1000.11,-432.6 983,-409 977.9,-401.96 978.05,-393 980.23,-384.56"/>
<polygon fill="black" stroke="black" points="983.56,-385.63 983.52,-375.04 976.94,-383.35 983.56,-385.63"/>
<text text-anchor="middle" x="1026" y="-397.8" font-family="Times,serif" font-size="14.00">普通字符处理</text>
</g>
<!-- free_buffer -->
<g id="node33" class="node">
<title>free_buffer</title>
<path fill="none" stroke="black" d="M1799.5,-375C1799.5,-375 1728.5,-375 1728.5,-375 1722.5,-375 1716.5,-369 1716.5,-363 1716.5,-363 1716.5,-351 1716.5,-351 1716.5,-345 1722.5,-339 1728.5,-339 1728.5,-339 1799.5,-339 1799.5,-339 1805.5,-339 1811.5,-345 1811.5,-351 1811.5,-351 1811.5,-363 1811.5,-363 1811.5,-369 1805.5,-375 1799.5,-375"/>
<text text-anchor="middle" x="1764" y="-353.3" font-family="Times,serif" font-size="14.00">free_buffer</text>
</g>
<!-- deinit&#45;&gt;free_buffer -->
<g id="edge32" class="edge">
<title>deinit&#45;&gt;free_buffer</title>
<path fill="none" stroke="black" d="M1773.23,-434.31C1770,-426.67 1766.71,-417.59 1765,-409 1763.48,-401.36 1762.89,-392.94 1762.77,-385.19"/>
<polygon fill="black" stroke="black" points="1766.27,-385.19 1762.84,-375.16 1759.27,-385.13 1766.27,-385.19"/>
<text text-anchor="middle" x="1839" y="-397.8" font-family="Times,serif" font-size="14.00">allocator.free(buffer)</text>
</g>
<!-- conditional_free_cmd -->
<g id="node34" class="node">
<title>conditional_free_cmd</title>
<path fill="none" stroke="black" d="M2006.5,-375C2006.5,-375 1863.5,-375 1863.5,-375 1857.5,-375 1851.5,-369 1851.5,-363 1851.5,-363 1851.5,-351 1851.5,-351 1851.5,-345 1857.5,-339 1863.5,-339 1863.5,-339 2006.5,-339 2006.5,-339 2012.5,-339 2018.5,-345 2018.5,-351 2018.5,-351 2018.5,-363 2018.5,-363 2018.5,-369 2012.5,-375 2006.5,-375"/>
<text text-anchor="middle" x="1935" y="-353.3" font-family="Times,serif" font-size="14.00">conditional_free_cmd</text>
</g>
<!-- deinit&#45;&gt;conditional_free_cmd -->
<g id="edge33" class="edge">
<title>deinit&#45;&gt;conditional_free_cmd</title>
<path fill="none" stroke="black" d="M1864.63,-436.73C1882.13,-430.37 1899.4,-421.47 1913,-409 1920.02,-402.56 1924.9,-393.49 1928.25,-384.79"/>
<polygon fill="black" stroke="black" points="1931.58,-385.86 1931.4,-375.27 1924.93,-383.66 1931.58,-385.86"/>
<text text-anchor="middle" x="2037" y="-397.8" font-family="Times,serif" font-size="14.00">如果free_cmd_line_on_deinit为真</text>
</g>
<!-- errdefer -->
<g id="node12" class="node">
<title>errdefer</title>
<path fill="none" stroke="black" d="M411,-286C411,-286 359,-286 359,-286 353,-286 347,-280 347,-274 347,-274 347,-262 347,-262 347,-256 353,-250 359,-250 359,-250 411,-250 411,-250 417,-250 423,-256 423,-262 423,-262 423,-274 423,-274 423,-280 417,-286 411,-286"/>
<text text-anchor="middle" x="385" y="-264.3" font-family="Times,serif" font-size="14.00">errdefer</text>
</g>
<!-- buffer_alloc&#45;&gt;errdefer -->
<g id="edge11" class="edge">
<title>buffer_alloc&#45;&gt;errdefer</title>
<path fill="none" stroke="black" d="M385,-338.81C385,-326.66 385,-310.11 385,-296.18"/>
<polygon fill="black" stroke="black" points="388.5,-296.15 385,-286.15 381.5,-296.15 388.5,-296.15"/>
<text text-anchor="middle" x="442.5" y="-308.8" font-family="Times,serif" font-size="14.00">错误时释放buffer</text>
</g>
<!-- errdefer_take -->
<g id="node15" class="node">
<title>errdefer_take</title>
<path fill="none" stroke="black" d="M690.5,-286C690.5,-286 601.5,-286 601.5,-286 595.5,-286 589.5,-280 589.5,-274 589.5,-274 589.5,-262 589.5,-262 589.5,-256 595.5,-250 601.5,-250 601.5,-250 690.5,-250 690.5,-250 696.5,-250 702.5,-256 702.5,-262 702.5,-262 702.5,-274 702.5,-274 702.5,-280 696.5,-286 690.5,-286"/>
<text text-anchor="middle" x="646" y="-264.3" font-family="Times,serif" font-size="14.00">errdefer_take</text>
</g>
<!-- buffer_alloc_take&#45;&gt;errdefer_take -->
<g id="edge14" class="edge">
<title>buffer_alloc_take&#45;&gt;errdefer_take</title>
<path fill="none" stroke="black" d="M646,-338.81C646,-326.66 646,-310.11 646,-296.18"/>
<polygon fill="black" stroke="black" points="649.5,-296.15 646,-286.15 642.5,-296.15 649.5,-296.15"/>
<text text-anchor="middle" x="703.5" y="-308.8" font-family="Times,serif" font-size="14.00">错误时释放buffer</text>
</g>
<!-- is_whitespace -->
<g id="node18" class="node">
<title>is_whitespace</title>
<path fill="none" stroke="black" d="M104,-198C104,-198 12,-198 12,-198 6,-198 0,-192 0,-186 0,-186 0,-174 0,-174 0,-168 6,-162 12,-162 12,-162 104,-162 104,-162 110,-162 116,-168 116,-174 116,-174 116,-186 116,-186 116,-192 110,-198 104,-198"/>
<text text-anchor="middle" x="58" y="-176.3" font-family="Times,serif" font-size="14.00">is_whitespace</text>
</g>
<!-- check_character&#45;&gt;is_whitespace -->
<g id="edge17" class="edge">
<title>check_character&#45;&gt;is_whitespace</title>
<path fill="none" stroke="black" d="M178.93,-258.61C153.86,-253.34 125.86,-244.8 103,-231 92.59,-224.72 83.2,-215.27 75.73,-206.28"/>
<polygon fill="black" stroke="black" points="78.36,-203.96 69.43,-198.25 72.85,-208.28 78.36,-203.96"/>
<text text-anchor="middle" x="141" y="-219.8" font-family="Times,serif" font-size="14.00">空格/制表符</text>
</g>
<!-- is_comment -->
<g id="node19" class="node">
<title>is_comment</title>
<path fill="none" stroke="black" d="M223.5,-198C223.5,-198 146.5,-198 146.5,-198 140.5,-198 134.5,-192 134.5,-186 134.5,-186 134.5,-174 134.5,-174 134.5,-168 140.5,-162 146.5,-162 146.5,-162 223.5,-162 223.5,-162 229.5,-162 235.5,-168 235.5,-174 235.5,-174 235.5,-186 235.5,-186 235.5,-192 229.5,-198 223.5,-198"/>
<text text-anchor="middle" x="185" y="-176.3" font-family="Times,serif" font-size="14.00">is_comment</text>
</g>
<!-- check_character&#45;&gt;is_comment -->
<g id="edge18" class="edge">
<title>check_character&#45;&gt;is_comment</title>
<path fill="none" stroke="black" d="M205.73,-249.98C198.31,-244.95 191.48,-238.68 187,-231 183.09,-224.29 181.67,-216.17 181.47,-208.45"/>
<polygon fill="black" stroke="black" points="184.97,-208.45 181.84,-198.32 177.98,-208.19 184.97,-208.45"/>
<text text-anchor="middle" x="235" y="-219.8" font-family="Times,serif" font-size="14.00">&#39;#&#39; 且支持注释</text>
</g>
<!-- return_false -->
<g id="node21" class="node">
<title>return_false</title>
<path fill="none" stroke="black" d="M344.5,-198C344.5,-198 265.5,-198 265.5,-198 259.5,-198 253.5,-192 253.5,-186 253.5,-186 253.5,-174 253.5,-174 253.5,-168 259.5,-162 265.5,-162 265.5,-162 344.5,-162 344.5,-162 350.5,-162 356.5,-168 356.5,-174 356.5,-174 356.5,-186 356.5,-186 356.5,-192 350.5,-198 344.5,-198"/>
<text text-anchor="middle" x="305" y="-176.3" font-family="Times,serif" font-size="14.00">return_false</text>
</g>
<!-- check_character&#45;&gt;return_false -->
<g id="edge20" class="edge">
<title>check_character&#45;&gt;return_false</title>
<path fill="none" stroke="black" d="M266.27,-249.66C272.2,-244.12 278.29,-237.69 283,-231 287.99,-223.91 292.22,-215.51 295.6,-207.64"/>
<polygon fill="black" stroke="black" points="298.96,-208.67 299.42,-198.09 292.46,-206.08 298.96,-208.67"/>
<text text-anchor="middle" x="328" y="-219.8" font-family="Times,serif" font-size="14.00">遇到终止符</text>
</g>
<!-- break_loop -->
<g id="node22" class="node">
<title>break_loop</title>
<path fill="none" stroke="black" d="M457,-198C457,-198 387,-198 387,-198 381,-198 375,-192 375,-186 375,-186 375,-174 375,-174 375,-168 381,-162 387,-162 387,-162 457,-162 457,-162 463,-162 469,-168 469,-174 469,-174 469,-186 469,-186 469,-192 463,-198 457,-198"/>
<text text-anchor="middle" x="422" y="-176.3" font-family="Times,serif" font-size="14.00">break_loop</text>
</g>
<!-- check_character&#45;&gt;break_loop -->
<g id="edge21" class="edge">
<title>check_character&#45;&gt;break_loop</title>
<path fill="none" stroke="black" d="M311.11,-253.68C330.21,-248.26 350.58,-240.88 368,-231 379.81,-224.3 391.12,-214.55 400.31,-205.44"/>
<polygon fill="black" stroke="black" points="403.05,-207.63 407.49,-198.01 398.02,-202.76 403.05,-207.63"/>
<text text-anchor="middle" x="424" y="-219.8" font-family="Times,serif" font-size="14.00">非空白字符</text>
</g>
<!-- skip_comment_line -->
<g id="node20" class="node">
<title>skip_comment_line</title>
<path fill="none" stroke="black" d="M249,-111C249,-111 121,-111 121,-111 115,-111 109,-105 109,-99 109,-99 109,-87 109,-87 109,-81 115,-75 121,-75 121,-75 249,-75 249,-75 255,-75 261,-81 261,-87 261,-87 261,-99 261,-99 261,-105 255,-111 249,-111"/>
<text text-anchor="middle" x="185" y="-89.3" font-family="Times,serif" font-size="14.00">skip_comment_line</text>
</g>
<!-- is_comment&#45;&gt;skip_comment_line -->
<g id="edge19" class="edge">
<title>is_comment&#45;&gt;skip_comment_line</title>
<path fill="none" stroke="black" d="M185,-161.8C185,-150.16 185,-134.55 185,-121.24"/>
<polygon fill="black" stroke="black" points="188.5,-121.18 185,-111.18 181.5,-121.18 188.5,-121.18"/>
<text text-anchor="middle" x="235" y="-132.8" font-family="Times,serif" font-size="14.00">跳过直到换行符</text>
</g>
<!-- has_content -->
<g id="node24" class="node">
<title>has_content</title>
<path fill="none" stroke="black" d="M1457,-286C1457,-286 1379,-286 1379,-286 1373,-286 1367,-280 1367,-274 1367,-274 1367,-262 1367,-262 1367,-256 1373,-250 1379,-250 1379,-250 1457,-250 1457,-250 1463,-250 1469,-256 1469,-262 1469,-262 1469,-274 1469,-274 1469,-280 1463,-286 1457,-286"/>
<text text-anchor="middle" x="1418" y="-264.3" font-family="Times,serif" font-size="14.00">has_content</text>
</g>
<!-- call_skipWhitespace&#45;&gt;has_content -->
<g id="edge23" class="edge">
<title>call_skipWhitespace&#45;&gt;has_content</title>
<path fill="none" stroke="black" d="M1418,-338.81C1418,-326.66 1418,-310.11 1418,-296.18"/>
<polygon fill="black" stroke="black" points="1421.5,-296.15 1418,-286.15 1414.5,-296.15 1421.5,-296.15"/>
<text text-anchor="middle" x="1454" y="-308.8" font-family="Times,serif" font-size="14.00">有内容继续</text>
</g>
<!-- handle_quotes -->
<g id="node25" class="node">
<title>handle_quotes</title>
<path fill="none" stroke="black" d="M1465.5,-198C1465.5,-198 1370.5,-198 1370.5,-198 1364.5,-198 1358.5,-192 1358.5,-186 1358.5,-186 1358.5,-174 1358.5,-174 1358.5,-168 1364.5,-162 1370.5,-162 1370.5,-162 1465.5,-162 1465.5,-162 1471.5,-162 1477.5,-168 1477.5,-174 1477.5,-174 1477.5,-186 1477.5,-186 1477.5,-192 1471.5,-198 1465.5,-198"/>
<text text-anchor="middle" x="1418" y="-176.3" font-family="Times,serif" font-size="14.00">handle_quotes</text>
</g>
<!-- has_content&#45;&gt;handle_quotes -->
<g id="edge24" class="edge">
<title>has_content&#45;&gt;handle_quotes</title>
<path fill="none" stroke="black" d="M1418,-249.6C1418,-237.75 1418,-221.82 1418,-208.29"/>
<polygon fill="black" stroke="black" points="1421.5,-208.08 1418,-198.08 1414.5,-208.08 1421.5,-208.08"/>
<text text-anchor="middle" x="1447" y="-219.8" font-family="Times,serif" font-size="14.00">处理引号</text>
</g>
<!-- in_quote_check -->
<g id="node26" class="node">
<title>in_quote_check</title>
<path fill="none" stroke="black" d="M1451.5,-111C1451.5,-111 1350.5,-111 1350.5,-111 1344.5,-111 1338.5,-105 1338.5,-99 1338.5,-99 1338.5,-87 1338.5,-87 1338.5,-81 1344.5,-75 1350.5,-75 1350.5,-75 1451.5,-75 1451.5,-75 1457.5,-75 1463.5,-81 1463.5,-87 1463.5,-87 1463.5,-99 1463.5,-99 1463.5,-105 1457.5,-111 1451.5,-111"/>
<text text-anchor="middle" x="1401" y="-89.3" font-family="Times,serif" font-size="14.00">in_quote_check</text>
</g>
<!-- handle_quotes&#45;&gt;in_quote_check -->
<g id="edge25" class="edge">
<title>handle_quotes&#45;&gt;in_quote_check</title>
<path fill="none" stroke="black" d="M1414.56,-161.8C1412.23,-150.16 1409.11,-134.55 1406.45,-121.24"/>
<polygon fill="black" stroke="black" points="1409.83,-120.29 1404.44,-111.18 1402.96,-121.67 1409.83,-120.29"/>
<text text-anchor="middle" x="1454" y="-132.8" font-family="Times,serif" font-size="14.00">切换引号状态</text>
</g>
<!-- emit_escaped_quote -->
<g id="node27" class="node">
<title>emit_escaped_quote</title>
<path fill="none" stroke="black" d="M1630.5,-111C1630.5,-111 1493.5,-111 1493.5,-111 1487.5,-111 1481.5,-105 1481.5,-99 1481.5,-99 1481.5,-87 1481.5,-87 1481.5,-81 1487.5,-75 1493.5,-75 1493.5,-75 1630.5,-75 1630.5,-75 1636.5,-75 1642.5,-81 1642.5,-87 1642.5,-87 1642.5,-99 1642.5,-99 1642.5,-105 1636.5,-111 1630.5,-111"/>
<text text-anchor="middle" x="1562" y="-89.3" font-family="Times,serif" font-size="14.00">emit_escaped_quote</text>
</g>
<!-- handle_quotes&#45;&gt;emit_escaped_quote -->
<g id="edge26" class="edge">
<title>handle_quotes&#45;&gt;emit_escaped_quote</title>
<path fill="none" stroke="black" d="M1465.26,-161.84C1477.25,-156.74 1489.89,-150.71 1501,-144 1513.43,-136.5 1526.02,-126.64 1536.51,-117.66"/>
<polygon fill="black" stroke="black" points="1538.87,-120.25 1544.09,-111.02 1534.26,-114.98 1538.87,-120.25"/>
<text text-anchor="middle" x="1552" y="-132.8" font-family="Times,serif" font-size="14.00">转义引号</text>
</g>
<!-- emit_escaped_quote&#45;&gt;emitCharacter -->
<g id="edge38" class="edge">
<title>emit_escaped_quote&#45;&gt;emitCharacter</title>
<path fill="none" stroke="gray" stroke-dasharray="5,2" d="M1562,-74.94C1562,-66.99 1562,-57.31 1562,-48.31"/>
<polygon fill="gray" stroke="gray" points="1565.5,-48.2 1562,-38.2 1558.5,-48.2 1565.5,-48.2"/>
</g>
<!-- handle_backslash&#45;&gt;emitBackslashes -->
<g id="edge37" class="edge">
<title>handle_backslash&#45;&gt;emitBackslashes</title>
<path fill="none" stroke="gray" stroke-dasharray="5,2" d="M1161.85,-338.81C1146.78,-325.96 1125.96,-308.2 1109.09,-293.81"/>
<polygon fill="gray" stroke="gray" points="1111.04,-290.88 1101.16,-287.05 1106.5,-296.2 1111.04,-290.88"/>
</g>
<!-- check_space -->
<g id="node29" class="node">
<title>check_space</title>
<path fill="none" stroke="black" d="M1270,-286C1270,-286 1190,-286 1190,-286 1184,-286 1178,-280 1178,-274 1178,-274 1178,-262 1178,-262 1178,-256 1184,-250 1190,-250 1190,-250 1270,-250 1270,-250 1276,-250 1282,-256 1282,-262 1282,-262 1282,-274 1282,-274 1282,-280 1276,-286 1270,-286"/>
<text text-anchor="middle" x="1230" y="-264.3" font-family="Times,serif" font-size="14.00">check_space</text>
</g>
<!-- handle_backslash&#45;&gt;check_space -->
<g id="edge28" class="edge">
<title>handle_backslash&#45;&gt;check_space</title>
<path fill="none" stroke="black" d="M1162.25,-338.75C1153.25,-328.75 1146,-316 1153,-305 1157.09,-298.58 1162.65,-293.29 1168.93,-288.93"/>
<polygon fill="black" stroke="black" points="1171.11,-291.7 1177.87,-283.54 1167.49,-285.7 1171.11,-291.7"/>
<text text-anchor="middle" x="1224.5" y="-308.8" font-family="Times,serif" font-size="14.00">遇到空格且不在引号内</text>
</g>
<!-- return_token -->
<g id="node30" class="node">
<title>return_token</title>
<path fill="none" stroke="black" d="M1268.5,-198C1268.5,-198 1183.5,-198 1183.5,-198 1177.5,-198 1171.5,-192 1171.5,-186 1171.5,-186 1171.5,-174 1171.5,-174 1171.5,-168 1177.5,-162 1183.5,-162 1183.5,-162 1268.5,-162 1268.5,-162 1274.5,-162 1280.5,-168 1280.5,-174 1280.5,-174 1280.5,-186 1280.5,-186 1280.5,-192 1274.5,-198 1268.5,-198"/>
<text text-anchor="middle" x="1226" y="-176.3" font-family="Times,serif" font-size="14.00">return_token</text>
</g>
<!-- check_space&#45;&gt;return_token -->
<g id="edge29" class="edge">
<title>check_space&#45;&gt;return_token</title>
<path fill="none" stroke="black" d="M1228.34,-249.8C1227.83,-243.85 1227.32,-237.14 1227,-231 1226.62,-223.66 1226.38,-215.71 1226.24,-208.35"/>
<polygon fill="black" stroke="black" points="1229.73,-208.08 1226.08,-198.13 1222.73,-208.19 1229.73,-208.08"/>
<text text-anchor="middle" x="1261.5" y="-219.8" font-family="Times,serif" font-size="14.00">生成token</text>
</g>
<!-- buffer_write -->
<g id="node32" class="node">
<title>buffer_write</title>
<path fill="none" stroke="black" d="M970,-286C970,-286 890,-286 890,-286 884,-286 878,-280 878,-274 878,-274 878,-262 878,-262 878,-256 884,-250 890,-250 890,-250 970,-250 970,-250 976,-250 982,-256 982,-262 982,-262 982,-274 982,-274 982,-280 976,-286 970,-286"/>
<text text-anchor="middle" x="930" y="-264.3" font-family="Times,serif" font-size="14.00">buffer_write</text>
</g>
<!-- emit_character&#45;&gt;buffer_write -->
<g id="edge31" class="edge">
<title>emit_character&#45;&gt;buffer_write</title>
<path fill="none" stroke="black" d="M980.55,-338.81C971.41,-326.18 958.83,-308.81 948.51,-294.55"/>
<polygon fill="black" stroke="black" points="951.12,-292.2 942.42,-286.15 945.45,-296.3 951.12,-292.2"/>
<text text-anchor="middle" x="1002" y="-308.8" font-family="Times,serif" font-size="14.00">写入缓冲区</text>
</g>
</g>
</svg>
