<?xml version="1.0" encoding="UTF-8" standalone="no"?>
<!DOCTYPE svg PUBLIC "-//W3C//DTD SVG 1.1//EN"
 "http://www.w3.org/Graphics/SVG/1.1/DTD/svg11.dtd">
<!-- Generated by graphviz version 2.43.0 (0)
 -->
<!-- Title: flowchart Pages: 1 -->
<svg width="867pt" height="1254pt"
 viewBox="0.00 0.00 866.55 1254.00" xmlns="http://www.w3.org/2000/svg" xmlns:xlink="http://www.w3.org/1999/xlink">
<g id="graph0" class="graph" transform="scale(1 1) rotate(0) translate(4 1250)">
<title>flowchart</title>
<polygon fill="white" stroke="transparent" points="-4,4 -4,-1250 862.55,-1250 862.55,4 -4,4"/>
<!-- start -->
<g id="node1" class="node">
<title>start</title>
<path fill="none" stroke="black" d="M330.05,-1246C330.05,-1246 199.05,-1246 199.05,-1246 193.05,-1246 187.05,-1240 187.05,-1234 187.05,-1234 187.05,-1222 187.05,-1222 187.05,-1216 193.05,-1210 199.05,-1210 199.05,-1210 330.05,-1210 330.05,-1210 336.05,-1210 342.05,-1216 342.05,-1222 342.05,-1222 342.05,-1234 342.05,-1234 342.05,-1240 336.05,-1246 330.05,-1246"/>
<text text-anchor="middle" x="264.55" y="-1224.3" font-family="Arial" font-size="14.00">开始处理 continueExpr</text>
</g>
<!-- get_data -->
<g id="node2" class="node">
<title>get_data</title>
<path fill="none" stroke="black" d="M386.05,-1173C386.05,-1173 143.05,-1173 143.05,-1173 137.05,-1173 131.05,-1167 131.05,-1161 131.05,-1161 131.05,-1149 131.05,-1149 131.05,-1143 137.05,-1137 143.05,-1137 143.05,-1137 386.05,-1137 386.05,-1137 392.05,-1137 398.05,-1143 398.05,-1149 398.05,-1149 398.05,-1161 398.05,-1161 398.05,-1167 392.05,-1173 386.05,-1173"/>
<text text-anchor="middle" x="264.55" y="-1151.3" font-family="Arial" font-size="14.00">获取节点数据 opt_break_label 和 opt_rhs</text>
</g>
<!-- start&#45;&gt;get_data -->
<g id="edge1" class="edge">
<title>start&#45;&gt;get_data</title>
<path fill="none" stroke="black" d="M264.55,-1209.81C264.55,-1201.79 264.55,-1192.05 264.55,-1183.07"/>
<polygon fill="black" stroke="black" points="268.05,-1183.03 264.55,-1173.03 261.05,-1183.03 268.05,-1183.03"/>
</g>
<!-- check_invalid_combination -->
<g id="node3" class="node">
<title>check_invalid_combination</title>
<path fill="none" stroke="black" d="M252.97,-1096.86C252.97,-1096.86 136.13,-1065.14 136.13,-1065.14 130.34,-1063.57 130.34,-1060.43 136.13,-1058.86 136.13,-1058.86 252.97,-1027.14 252.97,-1027.14 258.76,-1025.57 270.34,-1025.57 276.13,-1027.14 276.13,-1027.14 392.97,-1058.86 392.97,-1058.86 398.76,-1060.43 398.76,-1063.57 392.97,-1065.14 392.97,-1065.14 276.13,-1096.86 276.13,-1096.86 270.34,-1098.43 258.76,-1098.43 252.97,-1096.86"/>
<text text-anchor="middle" x="264.55" y="-1065.8" font-family="Arial" font-size="14.00">检查无效组合</text>
<text text-anchor="middle" x="264.55" y="-1050.8" font-family="Arial" font-size="14.00">(无标签但有操作数)</text>
</g>
<!-- get_data&#45;&gt;check_invalid_combination -->
<g id="edge2" class="edge">
<title>get_data&#45;&gt;check_invalid_combination</title>
<path fill="none" stroke="black" d="M264.55,-1136.88C264.55,-1129.25 264.55,-1119.83 264.55,-1110.31"/>
<polygon fill="black" stroke="black" points="268.05,-1110.02 264.55,-1100.02 261.05,-1110.02 268.05,-1110.02"/>
</g>
<!-- error1 -->
<g id="node4" class="node">
<title>error1</title>
<path fill="none" stroke="black" d="M338.55,-973C338.55,-973 152.55,-973 152.55,-973 146.55,-973 140.55,-967 140.55,-961 140.55,-961 140.55,-947 140.55,-947 140.55,-941 146.55,-935 152.55,-935 152.55,-935 338.55,-935 338.55,-935 344.55,-935 350.55,-941 350.55,-947 350.55,-947 350.55,-961 350.55,-961 350.55,-967 344.55,-973 338.55,-973"/>
<text text-anchor="middle" x="245.55" y="-957.8" font-family="Arial" font-size="14.00">返回错误</text>
<text text-anchor="middle" x="245.55" y="-942.8" font-family="Arial" font-size="14.00">&#39;cannot continue with operand...&#39;</text>
</g>
<!-- check_invalid_combination&#45;&gt;error1 -->
<g id="edge3" class="edge">
<title>check_invalid_combination&#45;&gt;error1</title>
<path fill="none" stroke="black" d="M258.22,-1025.7C255.76,-1011.96 252.98,-996.43 250.65,-983.43"/>
<polygon fill="black" stroke="black" points="254.02,-982.43 248.81,-973.2 247.13,-983.66 254.02,-982.43"/>
<text text-anchor="middle" x="262.05" y="-994.8" font-family="Arial" font-size="14.00">是</text>
</g>
<!-- init_scope_loop -->
<g id="node5" class="node">
<title>init_scope_loop</title>
<path fill="none" stroke="black" d="M506.55,-973C506.55,-973 380.55,-973 380.55,-973 374.55,-973 368.55,-967 368.55,-961 368.55,-961 368.55,-947 368.55,-947 368.55,-941 374.55,-935 380.55,-935 380.55,-935 506.55,-935 506.55,-935 512.55,-935 518.55,-941 518.55,-947 518.55,-947 518.55,-961 518.55,-961 518.55,-967 512.55,-973 506.55,-973"/>
<text text-anchor="middle" x="443.55" y="-957.8" font-family="Arial" font-size="14.00">初始化作用域循环</text>
<text text-anchor="middle" x="443.55" y="-942.8" font-family="Arial" font-size="14.00">scope = parent_scope</text>
</g>
<!-- check_invalid_combination&#45;&gt;init_scope_loop -->
<g id="edge4" class="edge">
<title>check_invalid_combination&#45;&gt;init_scope_loop</title>
<path fill="none" stroke="black" d="M307.43,-1035.61C336.82,-1018.2 375.53,-995.28 404.16,-978.33"/>
<polygon fill="black" stroke="black" points="406.25,-981.16 413.07,-973.05 402.68,-975.13 406.25,-981.16"/>
<text text-anchor="middle" x="388.05" y="-994.8" font-family="Arial" font-size="14.00">否</text>
</g>
<!-- while_scope_loop -->
<g id="node6" class="node">
<title>while_scope_loop</title>
<path fill="none" stroke="black" d="M431.72,-896C431.72,-896 348.64,-882 348.64,-882 342.72,-881 342.72,-879 348.64,-878 348.64,-878 431.72,-864 431.72,-864 437.63,-863 449.47,-863 455.38,-864 455.38,-864 538.46,-878 538.46,-878 544.38,-879 544.38,-881 538.46,-882 538.46,-882 455.38,-896 455.38,-896 449.47,-897 437.63,-897 431.72,-896"/>
<text text-anchor="middle" x="443.55" y="-876.3" font-family="Arial" font-size="14.00">循环遍历作用域</text>
</g>
<!-- init_scope_loop&#45;&gt;while_scope_loop -->
<g id="edge5" class="edge">
<title>init_scope_loop&#45;&gt;while_scope_loop</title>
<path fill="none" stroke="black" d="M443.55,-934.83C443.55,-926.89 443.55,-917.41 443.55,-908.63"/>
<polygon fill="black" stroke="black" points="447.05,-908.42 443.55,-898.42 440.05,-908.42 447.05,-908.42"/>
</g>
<!-- switch_scope_tag -->
<g id="node7" class="node">
<title>switch_scope_tag</title>
<path fill="none" stroke="black" d="M275.67,-809.32C275.67,-809.32 171.91,-794.68 171.91,-794.68 165.97,-793.84 165.97,-792.16 171.91,-791.32 171.91,-791.32 275.67,-776.68 275.67,-776.68 281.61,-775.84 293.49,-775.84 299.43,-776.68 299.43,-776.68 403.19,-791.32 403.19,-791.32 409.14,-792.16 409.14,-793.84 403.19,-794.68 403.19,-794.68 299.43,-809.32 299.43,-809.32 293.49,-810.16 281.61,-810.16 275.67,-809.32"/>
<text text-anchor="middle" x="287.55" y="-789.3" font-family="Arial" font-size="14.00">根据 scope.tag 分支</text>
</g>
<!-- while_scope_loop&#45;&gt;switch_scope_tag -->
<g id="edge6" class="edge">
<title>while_scope_loop&#45;&gt;switch_scope_tag</title>
<path fill="none" stroke="black" d="M416.27,-866.4C402.69,-859.97 386.11,-851.85 371.55,-844 353.7,-834.37 334.2,-822.83 318.49,-813.26"/>
<polygon fill="black" stroke="black" points="320.07,-810.13 309.72,-807.89 316.41,-816.1 320.07,-810.13"/>
<text text-anchor="middle" x="400.55" y="-832.8" font-family="Arial" font-size="14.00">循环继续</text>
</g>
<!-- exit_loop -->
<g id="node22" class="node">
<title>exit_loop</title>
<path fill="none" stroke="black" d="M606.55,-811C606.55,-811 514.55,-811 514.55,-811 508.55,-811 502.55,-805 502.55,-799 502.55,-799 502.55,-787 502.55,-787 502.55,-781 508.55,-775 514.55,-775 514.55,-775 606.55,-775 606.55,-775 612.55,-775 618.55,-781 618.55,-787 618.55,-787 618.55,-799 618.55,-799 618.55,-805 612.55,-811 606.55,-811"/>
<text text-anchor="middle" x="560.55" y="-789.3" font-family="Arial" font-size="14.00">退出作用域循环</text>
</g>
<!-- while_scope_loop&#45;&gt;exit_loop -->
<g id="edge22" class="edge">
<title>while_scope_loop&#45;&gt;exit_loop</title>
<path fill="none" stroke="black" d="M462.61,-865.15C480.48,-852.17 507.54,-832.51 528.69,-817.14"/>
<polygon fill="black" stroke="black" points="531.03,-819.78 537.06,-811.07 526.91,-814.11 531.03,-819.78"/>
<text text-anchor="middle" x="538.55" y="-832.8" font-family="Arial" font-size="14.00">循环结束</text>
</g>
<!-- case_gen_zir -->
<g id="node8" class="node">
<title>case_gen_zir</title>
<path fill="none" stroke="black" d="M203.05,-723C203.05,-723 80.05,-723 80.05,-723 74.05,-723 68.05,-717 68.05,-711 68.05,-711 68.05,-699 68.05,-699 68.05,-693 74.05,-687 80.05,-687 80.05,-687 203.05,-687 203.05,-687 209.05,-687 215.05,-693 215.05,-699 215.05,-699 215.05,-711 215.05,-711 215.05,-717 209.05,-723 203.05,-723"/>
<text text-anchor="middle" x="141.55" y="-701.3" font-family="Arial" font-size="14.00">scope.tag == .gen_zir</text>
</g>
<!-- switch_scope_tag&#45;&gt;case_gen_zir -->
<g id="edge7" class="edge">
<title>switch_scope_tag&#45;&gt;case_gen_zir</title>
<path fill="none" stroke="black" d="M264.09,-778.18C241.21,-764.7 206.02,-743.98 179.22,-728.19"/>
<polygon fill="black" stroke="black" points="180.87,-725.1 170.48,-723.04 177.32,-731.13 180.87,-725.1"/>
<text text-anchor="middle" x="253.05" y="-745.8" font-family="Arial" font-size="14.00">.gen_zir</text>
</g>
<!-- case_other_scopes -->
<g id="node20" class="node">
<title>case_other_scopes</title>
<path fill="none" stroke="black" d="M403.55,-724C403.55,-724 245.55,-724 245.55,-724 239.55,-724 233.55,-718 233.55,-712 233.55,-712 233.55,-698 233.55,-698 233.55,-692 239.55,-686 245.55,-686 245.55,-686 403.55,-686 403.55,-686 409.55,-686 415.55,-692 415.55,-698 415.55,-698 415.55,-712 415.55,-712 415.55,-718 409.55,-724 403.55,-724"/>
<text text-anchor="middle" x="324.55" y="-708.8" font-family="Arial" font-size="14.00">其他 scope 类型</text>
<text text-anchor="middle" x="324.55" y="-693.8" font-family="Arial" font-size="14.00">.local_val/.local_ptr/.defer_*</text>
</g>
<!-- switch_scope_tag&#45;&gt;case_other_scopes -->
<g id="edge19" class="edge">
<title>switch_scope_tag&#45;&gt;case_other_scopes</title>
<path fill="none" stroke="black" d="M294.51,-775.82C299.6,-764 306.62,-747.67 312.6,-733.78"/>
<polygon fill="black" stroke="black" points="315.99,-734.76 316.73,-724.19 309.56,-731.99 315.99,-734.76"/>
<text text-anchor="middle" x="337.55" y="-745.8" font-family="Arial" font-size="14.00">其他类型</text>
</g>
<!-- check_defer -->
<g id="node9" class="node">
<title>check_defer</title>
<path fill="none" stroke="black" d="M129.65,-632.49C129.65,-632.49 11.85,-617.51 11.85,-617.51 5.9,-616.76 5.9,-615.24 11.85,-614.49 11.85,-614.49 129.65,-599.51 129.65,-599.51 135.6,-598.76 147.5,-598.76 153.45,-599.51 153.45,-599.51 271.25,-614.49 271.25,-614.49 277.2,-615.24 277.2,-616.76 271.25,-617.51 271.25,-617.51 153.45,-632.49 153.45,-632.49 147.5,-633.24 135.6,-633.24 129.65,-632.49"/>
<text text-anchor="middle" x="141.55" y="-612.3" font-family="Arial" font-size="14.00">检查当前 defer 表达式</text>
</g>
<!-- case_gen_zir&#45;&gt;check_defer -->
<g id="edge8" class="edge">
<title>case_gen_zir&#45;&gt;check_defer</title>
<path fill="none" stroke="black" d="M141.55,-686.81C141.55,-674.66 141.55,-658.11 141.55,-644.18"/>
<polygon fill="black" stroke="black" points="145.05,-644.15 141.55,-634.15 138.05,-644.15 145.05,-644.15"/>
</g>
<!-- error_defer -->
<g id="node10" class="node">
<title>error_defer</title>
<path fill="none" stroke="black" d="M163.55,-546C163.55,-546 33.55,-546 33.55,-546 27.55,-546 21.55,-540 21.55,-534 21.55,-534 21.55,-520 21.55,-520 21.55,-514 27.55,-508 33.55,-508 33.55,-508 163.55,-508 163.55,-508 169.55,-508 175.55,-514 175.55,-520 175.55,-520 175.55,-534 175.55,-534 175.55,-540 169.55,-546 163.55,-546"/>
<text text-anchor="middle" x="98.55" y="-530.8" font-family="Arial" font-size="14.00">返回 defer 表达式错误</text>
<text text-anchor="middle" x="98.55" y="-515.8" font-family="Arial" font-size="14.00">附加 note</text>
</g>
<!-- check_defer&#45;&gt;error_defer -->
<g id="edge9" class="edge">
<title>check_defer&#45;&gt;error_defer</title>
<path fill="none" stroke="black" d="M133.46,-598.64C127.45,-586.48 119.12,-569.61 112.1,-555.41"/>
<polygon fill="black" stroke="black" points="115.06,-553.51 107.49,-546.09 108.79,-556.61 115.06,-553.51"/>
<text text-anchor="middle" x="155.05" y="-567.8" font-family="Arial" font-size="14.00">存在 defer</text>
</g>
<!-- check_continue_block -->
<g id="node11" class="node">
<title>check_continue_block</title>
<path fill="none" stroke="black" d="M364.61,-543.82C364.61,-543.82 205.67,-528.18 205.67,-528.18 199.7,-527.59 199.7,-526.41 205.67,-525.82 205.67,-525.82 364.61,-510.18 364.61,-510.18 370.58,-509.59 382.52,-509.59 388.49,-510.18 388.49,-510.18 547.43,-525.82 547.43,-525.82 553.4,-526.41 553.4,-527.59 547.43,-528.18 547.43,-528.18 388.49,-543.82 388.49,-543.82 382.52,-544.41 370.58,-544.41 364.61,-543.82"/>
<text text-anchor="middle" x="376.55" y="-523.3" font-family="Arial" font-size="14.00">检查 continue_block 是否存在</text>
</g>
<!-- check_defer&#45;&gt;check_continue_block -->
<g id="edge10" class="edge">
<title>check_defer&#45;&gt;check_continue_block</title>
<path fill="none" stroke="black" d="M175.97,-602.26C216.83,-587.13 285.13,-561.85 330.5,-545.05"/>
<polygon fill="black" stroke="black" points="331.94,-548.25 340.1,-541.49 329.51,-541.68 331.94,-548.25"/>
<text text-anchor="middle" x="298.05" y="-567.8" font-family="Arial" font-size="14.00">无 defer</text>
</g>
<!-- parent_scope_upd -->
<g id="node12" class="node">
<title>parent_scope_upd</title>
<path fill="none" stroke="black" d="M388.55,-457C388.55,-457 258.55,-457 258.55,-457 252.55,-457 246.55,-451 246.55,-445 246.55,-445 246.55,-431 246.55,-431 246.55,-425 252.55,-419 258.55,-419 258.55,-419 388.55,-419 388.55,-419 394.55,-419 400.55,-425 400.55,-431 400.55,-431 400.55,-445 400.55,-445 400.55,-451 394.55,-457 388.55,-457"/>
<text text-anchor="middle" x="323.55" y="-441.8" font-family="Arial" font-size="14.00">scope = gen_zir.parent</text>
<text text-anchor="middle" x="323.55" y="-426.8" font-family="Arial" font-size="14.00">继续循环</text>
</g>
<!-- check_continue_block&#45;&gt;parent_scope_upd -->
<g id="edge11" class="edge">
<title>check_continue_block&#45;&gt;parent_scope_upd</title>
<path fill="none" stroke="black" d="M366.58,-509.64C359.1,-497.36 348.7,-480.29 340,-466"/>
<polygon fill="black" stroke="black" points="342.76,-463.81 334.57,-457.09 336.79,-467.45 342.76,-463.81"/>
<text text-anchor="middle" x="375.05" y="-478.8" font-family="Arial" font-size="14.00">不存在</text>
</g>
<!-- handle_label_match -->
<g id="node13" class="node">
<title>handle_label_match</title>
<path fill="none" stroke="black" d="M508.55,-456C508.55,-456 430.55,-456 430.55,-456 424.55,-456 418.55,-450 418.55,-444 418.55,-444 418.55,-432 418.55,-432 418.55,-426 424.55,-420 430.55,-420 430.55,-420 508.55,-420 508.55,-420 514.55,-420 520.55,-426 520.55,-432 520.55,-432 520.55,-444 520.55,-444 520.55,-450 514.55,-456 508.55,-456"/>
<text text-anchor="middle" x="469.55" y="-434.3" font-family="Arial" font-size="14.00">处理标签匹配</text>
</g>
<!-- check_continue_block&#45;&gt;handle_label_match -->
<g id="edge12" class="edge">
<title>check_continue_block&#45;&gt;handle_label_match</title>
<path fill="none" stroke="black" d="M393.18,-510.45C407.19,-497.34 427.47,-478.37 443.61,-463.27"/>
<polygon fill="black" stroke="black" points="446.24,-465.6 451.16,-456.21 441.46,-460.48 446.24,-465.6"/>
<text text-anchor="middle" x="444.05" y="-478.8" font-family="Arial" font-size="14.00">存在</text>
</g>
<!-- validate_operand -->
<g id="node14" class="node">
<title>validate_operand</title>
<path fill="none" stroke="black" d="M457.94,-378.96C457.94,-378.96 336.16,-347.04 336.16,-347.04 330.35,-345.52 330.35,-342.48 336.16,-340.96 336.16,-340.96 457.94,-309.04 457.94,-309.04 463.75,-307.52 475.35,-307.52 481.16,-309.04 481.16,-309.04 602.94,-340.96 602.94,-340.96 608.75,-342.48 608.75,-345.52 602.94,-347.04 602.94,-347.04 481.16,-378.96 481.16,-378.96 475.35,-380.48 463.75,-380.48 457.94,-378.96"/>
<text text-anchor="middle" x="469.55" y="-347.8" font-family="Arial" font-size="14.00">验证操作数与块类型</text>
<text text-anchor="middle" x="469.55" y="-332.8" font-family="Arial" font-size="14.00">(switch_block 检查)</text>
</g>
<!-- handle_label_match&#45;&gt;validate_operand -->
<g id="edge13" class="edge">
<title>handle_label_match&#45;&gt;validate_operand</title>
<path fill="none" stroke="black" d="M469.55,-419.7C469.55,-411.81 469.55,-402.06 469.55,-392.24"/>
<polygon fill="black" stroke="black" points="473.05,-392.04 469.55,-382.04 466.05,-392.04 473.05,-392.04"/>
</g>
<!-- error_operand -->
<g id="node15" class="node">
<title>error_operand</title>
<path fill="none" stroke="black" d="M483.05,-255C483.05,-255 362.05,-255 362.05,-255 356.05,-255 350.05,-249 350.05,-243 350.05,-243 350.05,-231 350.05,-231 350.05,-225 356.05,-219 362.05,-219 362.05,-219 483.05,-219 483.05,-219 489.05,-219 495.05,-225 495.05,-231 495.05,-231 495.05,-243 495.05,-243 495.05,-249 489.05,-255 483.05,-255"/>
<text text-anchor="middle" x="422.55" y="-233.3" font-family="Arial" font-size="14.00">返回操作数类型错误</text>
</g>
<!-- validate_operand&#45;&gt;error_operand -->
<g id="edge14" class="edge">
<title>validate_operand&#45;&gt;error_operand</title>
<path fill="none" stroke="black" d="M454.68,-309.78C448.14,-295.18 440.57,-278.27 434.42,-264.53"/>
<polygon fill="black" stroke="black" points="437.51,-262.86 430.23,-255.16 431.12,-265.72 437.51,-262.86"/>
<text text-anchor="middle" x="481.55" y="-276.8" font-family="Arial" font-size="14.00">类型不匹配</text>
</g>
<!-- gen_defers -->
<g id="node16" class="node">
<title>gen_defers</title>
<path fill="none" stroke="black" d="M626.05,-255C626.05,-255 525.05,-255 525.05,-255 519.05,-255 513.05,-249 513.05,-243 513.05,-243 513.05,-231 513.05,-231 513.05,-225 519.05,-219 525.05,-219 525.05,-219 626.05,-219 626.05,-219 632.05,-219 638.05,-225 638.05,-231 638.05,-231 638.05,-243 638.05,-243 638.05,-249 632.05,-255 626.05,-255"/>
<text text-anchor="middle" x="575.55" y="-233.3" font-family="Arial" font-size="14.00">生成 defer 表达式</text>
</g>
<!-- validate_operand&#45;&gt;gen_defers -->
<g id="edge15" class="edge">
<title>validate_operand&#45;&gt;gen_defers</title>
<path fill="none" stroke="black" d="M499.36,-313.47C515.67,-297.31 535.64,-277.54 551.04,-262.28"/>
<polygon fill="black" stroke="black" points="553.55,-264.72 558.19,-255.19 548.63,-259.74 553.55,-264.72"/>
<text text-anchor="middle" x="553.05" y="-276.8" font-family="Arial" font-size="14.00">匹配</text>
</g>
<!-- handle_err_ret -->
<g id="node17" class="node">
<title>handle_err_ret</title>
<path fill="none" stroke="black" d="M629.05,-182C629.05,-182 522.05,-182 522.05,-182 516.05,-182 510.05,-176 510.05,-170 510.05,-170 510.05,-158 510.05,-158 510.05,-152 516.05,-146 522.05,-146 522.05,-146 629.05,-146 629.05,-146 635.05,-146 641.05,-152 641.05,-158 641.05,-158 641.05,-170 641.05,-170 641.05,-176 635.05,-182 629.05,-182"/>
<text text-anchor="middle" x="575.55" y="-160.3" font-family="Arial" font-size="14.00">处理错误跟踪恢复</text>
</g>
<!-- gen_defers&#45;&gt;handle_err_ret -->
<g id="edge16" class="edge">
<title>gen_defers&#45;&gt;handle_err_ret</title>
<path fill="none" stroke="black" d="M575.55,-218.81C575.55,-210.79 575.55,-201.05 575.55,-192.07"/>
<polygon fill="black" stroke="black" points="579.05,-192.03 575.55,-182.03 572.05,-192.03 579.05,-192.03"/>
</g>
<!-- add_break -->
<g id="node18" class="node">
<title>add_break</title>
<path fill="none" stroke="black" d="M648.05,-109C648.05,-109 503.05,-109 503.05,-109 497.05,-109 491.05,-103 491.05,-97 491.05,-97 491.05,-85 491.05,-85 491.05,-79 497.05,-73 503.05,-73 503.05,-73 648.05,-73 648.05,-73 654.05,-73 660.05,-79 660.05,-85 660.05,-85 660.05,-97 660.05,-97 660.05,-103 654.05,-109 648.05,-109"/>
<text text-anchor="middle" x="575.55" y="-87.3" font-family="Arial" font-size="14.00">添加 break/continue 指令</text>
</g>
<!-- handle_err_ret&#45;&gt;add_break -->
<g id="edge17" class="edge">
<title>handle_err_ret&#45;&gt;add_break</title>
<path fill="none" stroke="black" d="M575.55,-145.81C575.55,-137.79 575.55,-128.05 575.55,-119.07"/>
<polygon fill="black" stroke="black" points="579.05,-119.03 575.55,-109.03 572.05,-119.03 579.05,-119.03"/>
</g>
<!-- return_unreachable -->
<g id="node19" class="node">
<title>return_unreachable</title>
<path fill="none" stroke="black" d="M644.55,-36C644.55,-36 506.55,-36 506.55,-36 500.55,-36 494.55,-30 494.55,-24 494.55,-24 494.55,-12 494.55,-12 494.55,-6 500.55,0 506.55,0 506.55,0 644.55,0 644.55,0 650.55,0 656.55,-6 656.55,-12 656.55,-12 656.55,-24 656.55,-24 656.55,-30 650.55,-36 644.55,-36"/>
<text text-anchor="middle" x="575.55" y="-14.3" font-family="Arial" font-size="14.00">返回 unreachable_value</text>
</g>
<!-- add_break&#45;&gt;return_unreachable -->
<g id="edge18" class="edge">
<title>add_break&#45;&gt;return_unreachable</title>
<path fill="none" stroke="black" d="M575.55,-72.81C575.55,-64.79 575.55,-55.05 575.55,-46.07"/>
<polygon fill="black" stroke="black" points="579.05,-46.03 575.55,-36.03 572.05,-46.03 579.05,-46.03"/>
</g>
<!-- upd_scope_other -->
<g id="node21" class="node">
<title>upd_scope_other</title>
<path fill="none" stroke="black" d="M465.55,-635C465.55,-635 335.55,-635 335.55,-635 329.55,-635 323.55,-629 323.55,-623 323.55,-623 323.55,-609 323.55,-609 323.55,-603 329.55,-597 335.55,-597 335.55,-597 465.55,-597 465.55,-597 471.55,-597 477.55,-603 477.55,-609 477.55,-609 477.55,-623 477.55,-623 477.55,-629 471.55,-635 465.55,-635"/>
<text text-anchor="middle" x="400.55" y="-619.8" font-family="Arial" font-size="14.00">scope = 对应父作用域</text>
<text text-anchor="middle" x="400.55" y="-604.8" font-family="Arial" font-size="14.00">继续循环</text>
</g>
<!-- case_other_scopes&#45;&gt;upd_scope_other -->
<g id="edge20" class="edge">
<title>case_other_scopes&#45;&gt;upd_scope_other</title>
<path fill="none" stroke="black" d="M340.3,-685.97C351.2,-673.49 365.88,-656.69 378.02,-642.79"/>
<polygon fill="black" stroke="black" points="380.88,-644.84 384.82,-635 375.61,-640.23 380.88,-644.84"/>
</g>
<!-- upd_scope_other&#45;&gt;while_scope_loop -->
<g id="edge21" class="edge">
<title>upd_scope_other&#45;&gt;while_scope_loop</title>
<path fill="none" stroke="black" d="M408.17,-635.11C413.62,-648.83 420.66,-668.29 424.55,-686 437.35,-744.21 441.53,-814.2 442.9,-851.85"/>
<polygon fill="black" stroke="black" points="439.4,-852.13 443.22,-862.01 446.4,-851.9 439.4,-852.13"/>
</g>
<!-- check_label_found -->
<g id="node23" class="node">
<title>check_label_found</title>
<path fill="none" stroke="black" d="M579.68,-721.22C579.68,-721.22 483.1,-706.78 483.1,-706.78 477.16,-705.89 477.16,-704.11 483.1,-703.22 483.1,-703.22 579.68,-688.78 579.68,-688.78 585.62,-687.89 597.48,-687.89 603.42,-688.78 603.42,-688.78 700,-703.22 700,-703.22 705.94,-704.11 705.94,-705.89 700,-706.78 700,-706.78 603.42,-721.22 603.42,-721.22 597.48,-722.11 585.62,-722.11 579.68,-721.22"/>
<text text-anchor="middle" x="591.55" y="-701.3" font-family="Arial" font-size="14.00">检查是否找到标签</text>
</g>
<!-- exit_loop&#45;&gt;check_label_found -->
<g id="edge23" class="edge">
<title>exit_loop&#45;&gt;check_label_found</title>
<path fill="none" stroke="black" d="M566.82,-774.6C571.27,-762.27 577.3,-745.54 582.29,-731.69"/>
<polygon fill="black" stroke="black" points="585.61,-732.81 585.71,-722.21 579.02,-730.43 585.61,-732.81"/>
</g>
<!-- error_label -->
<g id="node24" class="node">
<title>error_label</title>
<path fill="none" stroke="black" d="M640.05,-634C640.05,-634 519.05,-634 519.05,-634 513.05,-634 507.05,-628 507.05,-622 507.05,-622 507.05,-610 507.05,-610 507.05,-604 513.05,-598 519.05,-598 519.05,-598 640.05,-598 640.05,-598 646.05,-598 652.05,-604 652.05,-610 652.05,-610 652.05,-622 652.05,-622 652.05,-628 646.05,-634 640.05,-634"/>
<text text-anchor="middle" x="579.55" y="-612.3" font-family="Arial" font-size="14.00">返回标签未找到错误</text>
</g>
<!-- check_label_found&#45;&gt;error_label -->
<g id="edge24" class="edge">
<title>check_label_found&#45;&gt;error_label</title>
<path fill="none" stroke="black" d="M589.24,-687.23C587.55,-675.03 585.24,-658.25 583.3,-644.16"/>
<polygon fill="black" stroke="black" points="586.73,-643.45 581.9,-634.02 579.8,-644.4 586.73,-643.45"/>
<text text-anchor="middle" x="608.05" y="-656.8" font-family="Arial" font-size="14.00">有标签</text>
</g>
<!-- error_continue_outside -->
<g id="node25" class="node">
<title>error_continue_outside</title>
<path fill="none" stroke="black" d="M846.55,-634C846.55,-634 682.55,-634 682.55,-634 676.55,-634 670.55,-628 670.55,-622 670.55,-622 670.55,-610 670.55,-610 670.55,-604 676.55,-598 682.55,-598 682.55,-598 846.55,-598 846.55,-598 852.55,-598 858.55,-604 858.55,-610 858.55,-610 858.55,-622 858.55,-622 858.55,-628 852.55,-634 846.55,-634"/>
<text text-anchor="middle" x="764.55" y="-612.3" font-family="Arial" font-size="14.00">返回 continue 不在循环错误</text>
</g>
<!-- check_label_found&#45;&gt;error_continue_outside -->
<g id="edge25" class="edge">
<title>check_label_found&#45;&gt;error_continue_outside</title>
<path fill="none" stroke="black" d="M617.83,-690.79C645.27,-676.99 688.77,-655.11 721.29,-638.75"/>
<polygon fill="black" stroke="black" points="723.21,-641.71 730.58,-634.09 720.07,-635.45 723.21,-641.71"/>
<text text-anchor="middle" x="710.05" y="-656.8" font-family="Arial" font-size="14.00">无标签</text>
</g>
</g>
</svg>
