<?xml version="1.0" encoding="UTF-8" standalone="no"?>
<!DOCTYPE svg PUBLIC "-//W3C//DTD SVG 1.1//EN"
 "http://www.w3.org/Graphics/SVG/1.1/DTD/svg11.dtd">
<!-- Generated by graphviz version 2.43.0 (0)
 -->
<!-- Title: printUnbuffered_flowchart Pages: 1 -->
<svg width="1119pt" height="1223pt"
 viewBox="0.00 0.00 1119.00 1223.00" xmlns="http://www.w3.org/2000/svg" xmlns:xlink="http://www.w3.org/1999/xlink">
<g id="graph0" class="graph" transform="scale(1 1) rotate(0) translate(4 1219)">
<title>printUnbuffered_flowchart</title>
<polygon fill="white" stroke="transparent" points="-4,4 -4,-1219 1115,-1219 1115,4 -4,4"/>
<g id="clust1" class="cluster">
<title>cluster_functions</title>
<polygon fill="none" stroke="black" points="49,-8 49,-548 287,-548 287,-8 49,-8"/>
<text text-anchor="middle" x="168" y="-532.8" font-family="Courier New" font-size="14.00">Process Functions</text>
</g>
<g id="clust2" class="cluster">
<title>cluster_metadata</title>
<polygon fill="none" stroke="black" points="411,-156 411,-304 1103,-304 1103,-156 411,-156"/>
<text text-anchor="middle" x="757" y="-288.8" font-family="Courier New" font-size="14.00">Process Metadata</text>
</g>
<!-- start -->
<g id="node1" class="node">
<title>start</title>
<ellipse fill="#b3e2cd" stroke="black" cx="287" cy="-1197" rx="123.48" ry="18"/>
<text text-anchor="middle" x="287" y="-1193.3" font-family="Courier New" font-size="14.00">Start printUnbuffered</text>
</g>
<!-- init_writer -->
<g id="node2" class="node">
<title>init_writer</title>
<polygon fill="#f0f0f0" stroke="black" points="415,-1142 159,-1142 159,-1104 415,-1104 415,-1142"/>
<text text-anchor="middle" x="287" y="-1126.8" font-family="Courier New" font-size="14.00">Initialize writer_with_errors</text>
<text text-anchor="middle" x="287" y="-1111.8" font-family="Courier New" font-size="14.00">and writer</text>
</g>
<!-- start&#45;&gt;init_writer -->
<g id="edge1" class="edge">
<title>start&#45;&gt;init_writer</title>
<path fill="none" stroke="black" d="M287,-1178.71C287,-1178.71 287,-1152.11 287,-1152.11"/>
<polygon fill="black" stroke="black" points="290.5,-1152.11 287,-1142.11 283.5,-1152.11 290.5,-1152.11"/>
</g>
<!-- check_metadata -->
<g id="node3" class="node">
<title>check_metadata</title>
<polygon fill="#f0f0f0" stroke="black" points="402.5,-1067 171.5,-1067 171.5,-1029 402.5,-1029 402.5,-1067"/>
<text text-anchor="middle" x="287" y="-1051.8" font-family="Courier New" font-size="14.00">Check source_filename,</text>
<text text-anchor="middle" x="287" y="-1036.8" font-family="Courier New" font-size="14.00">data_layout, target_triple</text>
</g>
<!-- init_writer&#45;&gt;check_metadata -->
<g id="edge2" class="edge">
<title>init_writer&#45;&gt;check_metadata</title>
<path fill="none" stroke="black" d="M287,-1103.69C287,-1103.69 287,-1077.25 287,-1077.25"/>
<polygon fill="black" stroke="black" points="290.5,-1077.25 287,-1067.25 283.5,-1077.25 290.5,-1077.25"/>
</g>
<!-- write_header -->
<g id="node4" class="node">
<title>write_header</title>
<polygon fill="#f0f0f0" stroke="black" points="264,-978 0,-978 0,-940 264,-940 264,-978"/>
<text text-anchor="middle" x="132" y="-962.8" font-family="Courier New" font-size="14.00">Write module header</text>
<text text-anchor="middle" x="132" y="-947.8" font-family="Courier New" font-size="14.00">(ModuleID, datalayout, triple)</text>
</g>
<!-- check_metadata&#45;&gt;write_header -->
<g id="edge3" class="edge">
<title>check_metadata&#45;&gt;write_header</title>
<path fill="none" stroke="black" d="M202.33,-1028.69C202.33,-1028.69 202.33,-988.27 202.33,-988.27"/>
<polygon fill="black" stroke="black" points="205.83,-988.27 202.33,-978.27 198.83,-988.27 205.83,-988.27"/>
<text text-anchor="middle" x="181.5" y="-999.8" font-family="Courier New" font-size="14.00">Any metadata exists</text>
</g>
<!-- check_metadata&#45;&gt;write_header -->
<g id="edge27" class="edge">
<title>check_metadata&#45;&gt;write_header</title>
<path fill="none" stroke="black" d="M233.17,-1028.69C233.17,-1028.69 233.17,-988.27 233.17,-988.27"/>
<polygon fill="black" stroke="black" points="236.67,-988.27 233.17,-978.27 229.67,-988.27 236.67,-988.27"/>
<text text-anchor="middle" x="281.67" y="-1000.48" font-family="Courier New" font-size="10.00">source_filename</text>
<text text-anchor="middle" x="281.67" y="-989.48" font-family="Courier New" font-size="10.00">|| data_layout</text>
<text text-anchor="middle" x="281.67" y="-978.48" font-family="Courier New" font-size="10.00">|| target_triple</text>
</g>
<!-- module_asm -->
<g id="node5" class="node">
<title>module_asm</title>
<polygon fill="#f0f0f0" stroke="black" points="407.5,-903 192.5,-903 192.5,-867 407.5,-867 407.5,-903"/>
<text text-anchor="middle" x="300" y="-881.3" font-family="Courier New" font-size="14.00">Process module_asm items</text>
</g>
<!-- check_metadata&#45;&gt;module_asm -->
<g id="edge4" class="edge">
<title>check_metadata&#45;&gt;module_asm</title>
<path fill="none" stroke="black" d="M310.17,-1028.98C310.17,-1028.98 310.17,-913.4 310.17,-913.4"/>
<polygon fill="black" stroke="black" points="313.67,-913.4 310.17,-903.4 306.67,-913.4 313.67,-913.4"/>
<text text-anchor="middle" x="345.5" y="-955.3" font-family="Courier New" font-size="14.00">No metadata</text>
</g>
<!-- check_metadata&#45;&gt;module_asm -->
<g id="edge28" class="edge">
<title>check_metadata&#45;&gt;module_asm</title>
<path fill="none" stroke="black" d="M356.33,-1028.98C356.33,-1028.98 356.33,-913.4 356.33,-913.4"/>
<polygon fill="black" stroke="black" points="359.83,-913.4 356.33,-903.4 352.83,-913.4 359.83,-913.4"/>
<text text-anchor="middle" x="343.83" y="-974.19" font-family="Courier New" font-size="10.00">else</text>
</g>
<!-- write_header&#45;&gt;module_asm -->
<g id="edge5" class="edge">
<title>write_header&#45;&gt;module_asm</title>
<path fill="none" stroke="black" d="M228.25,-939.94C228.25,-939.94 228.25,-913.23 228.25,-913.23"/>
<polygon fill="black" stroke="black" points="231.75,-913.23 228.25,-903.23 224.75,-913.23 231.75,-913.23"/>
</g>
<!-- process_types -->
<g id="node6" class="node">
<title>process_types</title>
<polygon fill="#f0f0f0" stroke="black" points="407.5,-830 192.5,-830 192.5,-794 407.5,-794 407.5,-830"/>
<text text-anchor="middle" x="300" y="-808.3" font-family="Courier New" font-size="14.00">Process type definitions</text>
</g>
<!-- module_asm&#45;&gt;process_types -->
<g id="edge6" class="edge">
<title>module_asm&#45;&gt;process_types</title>
<path fill="none" stroke="black" d="M300,-866.96C300,-866.96 300,-840.09 300,-840.09"/>
<polygon fill="black" stroke="black" points="303.5,-840.09 300,-830.09 296.5,-840.09 303.5,-840.09"/>
</g>
<!-- process_vars -->
<g id="node7" class="node">
<title>process_vars</title>
<polygon fill="#f0f0f0" stroke="black" points="407.5,-757 192.5,-757 192.5,-721 407.5,-721 407.5,-757"/>
<text text-anchor="middle" x="300" y="-735.3" font-family="Courier New" font-size="14.00">Process global variables</text>
</g>
<!-- process_types&#45;&gt;process_vars -->
<g id="edge7" class="edge">
<title>process_types&#45;&gt;process_vars</title>
<path fill="none" stroke="black" d="M300,-793.96C300,-793.96 300,-767.09 300,-767.09"/>
<polygon fill="black" stroke="black" points="303.5,-767.09 300,-757.09 296.5,-767.09 303.5,-767.09"/>
</g>
<!-- process_aliases -->
<g id="node8" class="node">
<title>process_aliases</title>
<polygon fill="#f0f0f0" stroke="black" points="370,-684 230,-684 230,-648 370,-648 370,-684"/>
<text text-anchor="middle" x="300" y="-662.3" font-family="Courier New" font-size="14.00">Process aliases</text>
</g>
<!-- process_vars&#45;&gt;process_aliases -->
<g id="edge8" class="edge">
<title>process_vars&#45;&gt;process_aliases</title>
<path fill="none" stroke="black" d="M300,-720.96C300,-720.96 300,-694.09 300,-694.09"/>
<polygon fill="black" stroke="black" points="303.5,-694.09 300,-684.09 296.5,-694.09 303.5,-694.09"/>
</g>
<!-- process_funcs -->
<g id="node9" class="node">
<title>process_funcs</title>
<polygon fill="#f0f0f0" stroke="black" points="378.5,-611 221.5,-611 221.5,-575 378.5,-575 378.5,-611"/>
<text text-anchor="middle" x="300" y="-589.3" font-family="Courier New" font-size="14.00">Process functions</text>
</g>
<!-- process_aliases&#45;&gt;process_funcs -->
<g id="edge9" class="edge">
<title>process_aliases&#45;&gt;process_funcs</title>
<path fill="none" stroke="black" d="M300,-647.96C300,-647.96 300,-621.09 300,-621.09"/>
<polygon fill="black" stroke="black" points="303.5,-621.09 300,-611.09 296.5,-621.09 303.5,-621.09"/>
</g>
<!-- attribute_groups -->
<g id="node10" class="node">
<title>attribute_groups</title>
<polygon fill="#f0f0f0" stroke="black" points="510.5,-517 295.5,-517 295.5,-481 510.5,-481 510.5,-517"/>
<text text-anchor="middle" x="403" y="-495.3" font-family="Courier New" font-size="14.00">Process attribute groups</text>
</g>
<!-- process_funcs&#45;&gt;attribute_groups -->
<g id="edge10" class="edge">
<title>process_funcs&#45;&gt;attribute_groups</title>
<path fill="none" stroke="black" d="M337,-574.88C337,-574.88 337,-527.07 337,-527.07"/>
<polygon fill="black" stroke="black" points="340.5,-527.07 337,-517.07 333.5,-527.07 340.5,-527.07"/>
</g>
<!-- func_start -->
<g id="node14" class="node">
<title>func_start</title>
<polygon fill="#f0f0f0" stroke="black" points="269.5,-517 112.5,-517 112.5,-481 269.5,-481 269.5,-517"/>
<text text-anchor="middle" x="191" y="-495.3" font-family="Courier New" font-size="14.00">For each function</text>
</g>
<!-- process_funcs&#45;&gt;func_start -->
<g id="edge20" class="edge">
<title>process_funcs&#45;&gt;func_start</title>
<path fill="none" stroke="black" d="M245.5,-574.88C245.5,-574.88 245.5,-527.07 245.5,-527.07"/>
<polygon fill="black" stroke="black" points="249,-527.07 245.5,-517.07 242,-527.07 249,-527.07"/>
</g>
<!-- metadata_named -->
<g id="node11" class="node">
<title>metadata_named</title>
<polygon fill="#f0f0f0" stroke="black" points="502,-443 304,-443 304,-407 502,-407 502,-443"/>
<text text-anchor="middle" x="403" y="-421.3" font-family="Courier New" font-size="14.00">Process named metadata</text>
</g>
<!-- attribute_groups&#45;&gt;metadata_named -->
<g id="edge11" class="edge">
<title>attribute_groups&#45;&gt;metadata_named</title>
<path fill="none" stroke="black" d="M403,-480.71C403,-480.71 403,-453.08 403,-453.08"/>
<polygon fill="black" stroke="black" points="406.5,-453.08 403,-443.08 399.5,-453.08 406.5,-453.08"/>
</g>
<!-- metadata_map -->
<g id="node12" class="node">
<title>metadata_map</title>
<polygon fill="#f0f0f0" stroke="black" points="494,-368 312,-368 312,-332 494,-332 494,-368"/>
<text text-anchor="middle" x="403" y="-346.3" font-family="Courier New" font-size="14.00">Process metadata map</text>
</g>
<!-- metadata_named&#45;&gt;metadata_map -->
<g id="edge12" class="edge">
<title>metadata_named&#45;&gt;metadata_map</title>
<path fill="none" stroke="black" d="M403,-406.84C403,-406.84 403,-378.25 403,-378.25"/>
<polygon fill="black" stroke="black" points="406.5,-378.25 403,-368.25 399.5,-378.25 406.5,-378.25"/>
</g>
<!-- end -->
<g id="node13" class="node">
<title>end</title>
<ellipse fill="#b3e2cd" stroke="black" cx="376" cy="-255" rx="27" ry="18"/>
<text text-anchor="middle" x="376" y="-251.3" font-family="Courier New" font-size="14.00">End</text>
</g>
<!-- metadata_map&#45;&gt;end -->
<g id="edge13" class="edge">
<title>metadata_map&#45;&gt;end</title>
<path fill="none" stroke="black" d="M376,-331.68C376,-331.68 376,-283.26 376,-283.26"/>
<polygon fill="black" stroke="black" points="379.5,-283.26 376,-273.26 372.5,-283.26 379.5,-283.26"/>
</g>
<!-- md_start -->
<g id="node21" class="node">
<title>md_start</title>
<polygon fill="#f0f0f0" stroke="black" points="807,-273 609,-273 609,-237 807,-237 807,-273"/>
<text text-anchor="middle" x="708" y="-251.3" font-family="Courier New" font-size="14.00">For each metadata item</text>
</g>
<!-- metadata_map&#45;&gt;md_start -->
<g id="edge26" class="edge">
<title>metadata_map&#45;&gt;md_start</title>
<path fill="none" stroke="black" d="M456.5,-331.99C456.5,-305.98 456.5,-261 456.5,-261 456.5,-261 598.96,-261 598.96,-261"/>
<polygon fill="black" stroke="black" points="598.96,-264.5 608.96,-261 598.96,-257.5 598.96,-264.5"/>
</g>
<!-- func_metadata -->
<g id="node15" class="node">
<title>func_metadata</title>
<polygon fill="#f0f0f0" stroke="black" points="279.5,-444 56.5,-444 56.5,-406 279.5,-406 279.5,-444"/>
<text text-anchor="middle" x="168" y="-428.8" font-family="Courier New" font-size="14.00">Write function attributes</text>
<text text-anchor="middle" x="168" y="-413.8" font-family="Courier New" font-size="14.00">and metadata</text>
</g>
<!-- func_start&#45;&gt;func_metadata -->
<g id="edge14" class="edge">
<title>func_start&#45;&gt;func_metadata</title>
<path fill="none" stroke="black" d="M191,-480.71C191,-480.71 191,-454.11 191,-454.11"/>
<polygon fill="black" stroke="black" points="194.5,-454.11 191,-444.11 187.5,-454.11 194.5,-454.11"/>
</g>
<!-- write_prototype -->
<g id="node16" class="node">
<title>write_prototype</title>
<polygon fill="#f0f0f0" stroke="black" points="275.5,-369 60.5,-369 60.5,-331 275.5,-331 275.5,-369"/>
<text text-anchor="middle" x="168" y="-353.8" font-family="Courier New" font-size="14.00">Write function prototype</text>
<text text-anchor="middle" x="168" y="-338.8" font-family="Courier New" font-size="14.00">(define/declare)</text>
</g>
<!-- func_metadata&#45;&gt;write_prototype -->
<g id="edge15" class="edge">
<title>func_metadata&#45;&gt;write_prototype</title>
<path fill="none" stroke="black" d="M168,-405.69C168,-405.69 168,-379.25 168,-379.25"/>
<polygon fill="black" stroke="black" points="171.5,-379.25 168,-369.25 164.5,-379.25 171.5,-379.25"/>
</g>
<!-- process_params -->
<g id="node17" class="node">
<title>process_params</title>
<polygon fill="#f0f0f0" stroke="black" points="250.5,-273 85.5,-273 85.5,-237 250.5,-237 250.5,-273"/>
<text text-anchor="middle" x="168" y="-251.3" font-family="Courier New" font-size="14.00">Process parameters</text>
</g>
<!-- write_prototype&#45;&gt;process_params -->
<g id="edge16" class="edge">
<title>write_prototype&#45;&gt;process_params</title>
<path fill="none" stroke="black" d="M168,-330.78C168,-330.78 168,-283.23 168,-283.23"/>
<polygon fill="black" stroke="black" points="171.5,-283.23 168,-273.23 164.5,-283.23 171.5,-283.23"/>
</g>
<!-- write_body -->
<g id="node18" class="node">
<title>write_body</title>
<polygon fill="#f0f0f0" stroke="black" points="254.5,-200 81.5,-200 81.5,-164 254.5,-164 254.5,-200"/>
<text text-anchor="middle" x="168" y="-178.3" font-family="Courier New" font-size="14.00">Write function body</text>
</g>
<!-- process_params&#45;&gt;write_body -->
<g id="edge17" class="edge">
<title>process_params&#45;&gt;write_body</title>
<path fill="none" stroke="black" d="M168,-236.96C168,-236.96 168,-210.09 168,-210.09"/>
<polygon fill="black" stroke="black" points="171.5,-210.09 168,-200.09 164.5,-210.09 171.5,-210.09"/>
</g>
<!-- process_instructions -->
<g id="node19" class="node">
<title>process_instructions</title>
<polygon fill="#f0f0f0" stroke="black" points="275.5,-127 60.5,-127 60.5,-89 275.5,-89 275.5,-127"/>
<text text-anchor="middle" x="168" y="-111.8" font-family="Courier New" font-size="14.00">Process instructions</text>
<text text-anchor="middle" x="168" y="-96.8" font-family="Courier New" font-size="14.00">(binary ops, calls, etc)</text>
</g>
<!-- write_body&#45;&gt;process_instructions -->
<g id="edge18" class="edge">
<title>write_body&#45;&gt;process_instructions</title>
<path fill="none" stroke="black" d="M168,-163.71C168,-163.71 168,-137.11 168,-137.11"/>
<polygon fill="black" stroke="black" points="171.5,-137.11 168,-127.11 164.5,-137.11 171.5,-137.11"/>
</g>
<!-- write_metadata -->
<g id="node20" class="node">
<title>write_metadata</title>
<polygon fill="#f0f0f0" stroke="black" points="263,-52 73,-52 73,-16 263,-16 263,-52"/>
<text text-anchor="middle" x="168" y="-30.3" font-family="Courier New" font-size="14.00">Attach debug metadata</text>
</g>
<!-- process_instructions&#45;&gt;write_metadata -->
<g id="edge19" class="edge">
<title>process_instructions&#45;&gt;write_metadata</title>
<path fill="none" stroke="black" d="M136.33,-88.94C136.33,-88.94 136.33,-62.23 136.33,-62.23"/>
<polygon fill="black" stroke="black" points="139.83,-62.23 136.33,-52.23 132.83,-62.23 139.83,-62.23"/>
</g>
<!-- process_instructions&#45;&gt;write_metadata -->
<g id="edge29" class="edge">
<title>process_instructions&#45;&gt;write_metadata</title>
<path fill="none" stroke="black" d="M199.67,-88.94C199.67,-88.94 199.67,-62.23 199.67,-62.23"/>
<polygon fill="black" stroke="black" points="203.17,-62.23 199.67,-52.23 196.17,-62.23 203.17,-62.23"/>
<text text-anchor="middle" x="169.17" y="-67.59" font-family="Courier New" font-size="10.00">if has</text>
<text text-anchor="middle" x="169.17" y="-56.59" font-family="Courier New" font-size="10.00">debug info</text>
</g>
<!-- md_file -->
<g id="node22" class="node">
<title>md_file</title>
<polygon fill="#f0f0f0" stroke="black" points="559,-200 419,-200 419,-164 559,-164 559,-200"/>
<text text-anchor="middle" x="489" y="-178.3" font-family="Courier New" font-size="14.00">DIFile metadata</text>
</g>
<!-- md_start&#45;&gt;md_file -->
<g id="edge21" class="edge">
<title>md_start&#45;&gt;md_file</title>
<path fill="none" stroke="black" d="M608.98,-249C570.17,-249 534.75,-249 534.75,-249 534.75,-249 534.75,-210.31 534.75,-210.31"/>
<polygon fill="black" stroke="black" points="538.25,-210.31 534.75,-200.31 531.25,-210.31 538.25,-210.31"/>
</g>
<!-- md_compile_unit -->
<g id="node23" class="node">
<title>md_compile_unit</title>
<polygon fill="#f0f0f0" stroke="black" points="701,-200 577,-200 577,-164 701,-164 701,-200"/>
<text text-anchor="middle" x="639" y="-178.3" font-family="Courier New" font-size="14.00">DICompileUnit</text>
</g>
<!-- md_start&#45;&gt;md_compile_unit -->
<g id="edge22" class="edge">
<title>md_start&#45;&gt;md_compile_unit</title>
<path fill="none" stroke="black" d="M655,-236.96C655,-236.96 655,-210.09 655,-210.09"/>
<polygon fill="black" stroke="black" points="658.5,-210.09 655,-200.09 651.5,-210.09 658.5,-210.09"/>
</g>
<!-- md_subprogram -->
<g id="node24" class="node">
<title>md_subprogram</title>
<polygon fill="#f0f0f0" stroke="black" points="835,-200 719,-200 719,-164 835,-164 835,-200"/>
<text text-anchor="middle" x="777" y="-178.3" font-family="Courier New" font-size="14.00">DISubprogram</text>
</g>
<!-- md_start&#45;&gt;md_subprogram -->
<g id="edge23" class="edge">
<title>md_start&#45;&gt;md_subprogram</title>
<path fill="none" stroke="black" d="M763,-236.96C763,-236.96 763,-210.09 763,-210.09"/>
<polygon fill="black" stroke="black" points="766.5,-210.09 763,-200.09 759.5,-210.09 766.5,-210.09"/>
</g>
<!-- md_location -->
<g id="node25" class="node">
<title>md_location</title>
<polygon fill="#f0f0f0" stroke="black" points="952.5,-200 853.5,-200 853.5,-164 952.5,-164 952.5,-200"/>
<text text-anchor="middle" x="903" y="-178.3" font-family="Courier New" font-size="14.00">DILocation</text>
</g>
<!-- md_start&#45;&gt;md_location -->
<g id="edge24" class="edge">
<title>md_start&#45;&gt;md_location</title>
<path fill="none" stroke="black" d="M807.21,-249C855.39,-249 903,-249 903,-249 903,-249 903,-210.31 903,-210.31"/>
<polygon fill="black" stroke="black" points="906.5,-210.31 903,-200.31 899.5,-210.31 906.5,-210.31"/>
</g>
<!-- md_types -->
<g id="node26" class="node">
<title>md_types</title>
<polygon fill="#f0f0f0" stroke="black" points="1095,-200 971,-200 971,-164 1095,-164 1095,-200"/>
<text text-anchor="middle" x="1033" y="-178.3" font-family="Courier New" font-size="14.00">Type metadata</text>
</g>
<!-- md_start&#45;&gt;md_types -->
<g id="edge25" class="edge">
<title>md_start&#45;&gt;md_types</title>
<path fill="none" stroke="black" d="M807.28,-261C902.85,-261 1033,-261 1033,-261 1033,-261 1033,-210.32 1033,-210.32"/>
<polygon fill="black" stroke="black" points="1036.5,-210.32 1033,-200.32 1029.5,-210.32 1036.5,-210.32"/>
</g>
</g>
</svg>
