<?xml version="1.0" encoding="UTF-8" standalone="no"?>
<!DOCTYPE svg PUBLIC "-//W3C//DTD SVG 1.1//EN"
 "http://www.w3.org/Graphics/SVG/1.1/DTD/svg11.dtd">
<!-- Generated by graphviz version 2.43.0 (0)
 -->
<!-- Title: flowchart Pages: 1 -->
<svg width="627pt" height="656pt"
 viewBox="0.00 0.00 626.50 656.00" xmlns="http://www.w3.org/2000/svg" xmlns:xlink="http://www.w3.org/1999/xlink">
<g id="graph0" class="graph" transform="scale(1 1) rotate(0) translate(4 652)">
<title>flowchart</title>
<polygon fill="white" stroke="transparent" points="-4,4 -4,-652 622.5,-652 622.5,4 -4,4"/>
<!-- start -->
<g id="node1" class="node">
<title>start</title>
<path fill="none" stroke="black" d="M424.5,-648C424.5,-648 188.5,-648 188.5,-648 182.5,-648 176.5,-642 176.5,-636 176.5,-636 176.5,-624 176.5,-624 176.5,-618 182.5,-612 188.5,-612 188.5,-612 424.5,-612 424.5,-612 430.5,-612 436.5,-618 436.5,-624 436.5,-624 436.5,-636 436.5,-636 436.5,-642 430.5,-648 424.5,-648"/>
<text text-anchor="middle" x="306.5" y="-626.3" font-family="Arial" font-size="14.00">开始处理 assignDestructureMaybeDecls</text>
</g>
<!-- emit_dbg -->
<g id="node2" class="node">
<title>emit_dbg</title>
<path fill="none" stroke="black" d="M393.5,-575C393.5,-575 219.5,-575 219.5,-575 213.5,-575 207.5,-569 207.5,-563 207.5,-563 207.5,-551 207.5,-551 207.5,-545 213.5,-539 219.5,-539 219.5,-539 393.5,-539 393.5,-539 399.5,-539 405.5,-545 405.5,-551 405.5,-551 405.5,-563 405.5,-563 405.5,-569 399.5,-575 393.5,-575"/>
<text text-anchor="middle" x="306.5" y="-553.3" font-family="Arial" font-size="14.00">发出调试信息 (emitDbgNode)</text>
</g>
<!-- start&#45;&gt;emit_dbg -->
<g id="edge1" class="edge">
<title>start&#45;&gt;emit_dbg</title>
<path fill="none" stroke="black" d="M306.5,-611.81C306.5,-603.79 306.5,-594.05 306.5,-585.07"/>
<polygon fill="black" stroke="black" points="310,-585.03 306.5,-575.03 303,-585.03 310,-585.03"/>
</g>
<!-- check_redundant_comptime -->
<g id="node3" class="node">
<title>check_redundant_comptime</title>
<path fill="none" stroke="black" d="M393,-502C393,-502 220,-502 220,-502 214,-502 208,-496 208,-490 208,-490 208,-478 208,-478 208,-472 214,-466 220,-466 220,-466 393,-466 393,-466 399,-466 405,-472 405,-478 405,-478 405,-490 405,-490 405,-496 399,-502 393,-502"/>
<text text-anchor="middle" x="306.5" y="-480.3" font-family="Arial" font-size="14.00">检查冗余的 comptime 关键字</text>
</g>
<!-- emit_dbg&#45;&gt;check_redundant_comptime -->
<g id="edge2" class="edge">
<title>emit_dbg&#45;&gt;check_redundant_comptime</title>
<path fill="none" stroke="black" d="M306.5,-538.81C306.5,-530.79 306.5,-521.05 306.5,-512.07"/>
<polygon fill="black" stroke="black" points="310,-512.03 306.5,-502.03 303,-512.03 310,-512.03"/>
</g>
<!-- determine_scope -->
<g id="node4" class="node">
<title>determine_scope</title>
<path fill="none" stroke="black" d="M426,-429C426,-429 187,-429 187,-429 181,-429 175,-423 175,-417 175,-417 175,-405 175,-405 175,-399 181,-393 187,-393 187,-393 426,-393 426,-393 432,-393 438,-399 438,-405 438,-405 438,-417 438,-417 438,-423 432,-429 426,-429"/>
<text text-anchor="middle" x="306.5" y="-407.3" font-family="Arial" font-size="14.00">确定是否为编译时作用域 (is_comptime)</text>
</g>
<!-- check_redundant_comptime&#45;&gt;determine_scope -->
<g id="edge3" class="edge">
<title>check_redundant_comptime&#45;&gt;determine_scope</title>
<path fill="none" stroke="black" d="M306.5,-465.81C306.5,-457.79 306.5,-448.05 306.5,-439.07"/>
<polygon fill="black" stroke="black" points="310,-439.03 306.5,-429.03 303,-439.03 310,-439.03"/>
</g>
<!-- process_vars -->
<g id="node5" class="node">
<title>process_vars</title>
<path fill="none" stroke="black" d="M360,-356C360,-356 253,-356 253,-356 247,-356 241,-350 241,-344 241,-344 241,-332 241,-332 241,-326 247,-320 253,-320 253,-320 360,-320 360,-320 366,-320 372,-326 372,-332 372,-332 372,-344 372,-344 372,-350 366,-356 360,-356"/>
<text text-anchor="middle" x="306.5" y="-334.3" font-family="Arial" font-size="14.00">遍历变量解构组件</text>
</g>
<!-- determine_scope&#45;&gt;process_vars -->
<g id="edge4" class="edge">
<title>determine_scope&#45;&gt;process_vars</title>
<path fill="none" stroke="black" d="M306.5,-392.81C306.5,-384.79 306.5,-375.05 306.5,-366.07"/>
<polygon fill="black" stroke="black" points="310,-366.03 306.5,-356.03 303,-366.03 310,-366.03"/>
</g>
<!-- handle_identifier -->
<g id="node6" class="node">
<title>handle_identifier</title>
<path fill="none" stroke="black" d="M175,-269C175,-269 12,-269 12,-269 6,-269 0,-263 0,-257 0,-257 0,-245 0,-245 0,-239 6,-233 12,-233 12,-233 175,-233 175,-233 181,-233 187,-239 187,-245 187,-245 187,-257 187,-257 187,-263 181,-269 175,-269"/>
<text text-anchor="middle" x="93.5" y="-247.3" font-family="Arial" font-size="14.00">处理标识符 (如 _ 或变量名)</text>
</g>
<!-- process_vars&#45;&gt;handle_identifier -->
<g id="edge5" class="edge">
<title>process_vars&#45;&gt;handle_identifier</title>
<path fill="none" stroke="black" d="M240.78,-335.47C184.18,-332.6 108.68,-324.52 89.5,-302 84.18,-295.75 83.32,-287.33 84.35,-279.18"/>
<polygon fill="black" stroke="black" points="87.82,-279.7 86.49,-269.19 80.98,-278.24 87.82,-279.7"/>
<text text-anchor="middle" x="125.5" y="-290.8" font-family="Arial" font-size="14.00">标识符分支</text>
</g>
<!-- handle_var_decl -->
<g id="node7" class="node">
<title>handle_var_decl</title>
<path fill="none" stroke="black" d="M438.5,-269C438.5,-269 226.5,-269 226.5,-269 220.5,-269 214.5,-263 214.5,-257 214.5,-257 214.5,-245 214.5,-245 214.5,-239 220.5,-233 226.5,-233 226.5,-233 438.5,-233 438.5,-233 444.5,-233 450.5,-239 450.5,-245 450.5,-245 450.5,-257 450.5,-257 450.5,-263 444.5,-269 438.5,-269"/>
<text text-anchor="middle" x="332.5" y="-247.3" font-family="Arial" font-size="14.00">处理变量声明 (类型/对齐/地址空间)</text>
</g>
<!-- process_vars&#45;&gt;handle_var_decl -->
<g id="edge6" class="edge">
<title>process_vars&#45;&gt;handle_var_decl</title>
<path fill="none" stroke="black" d="M304.38,-319.91C303.75,-310.05 304,-297.55 307.5,-287 308.56,-283.81 310.02,-280.66 311.7,-277.64"/>
<polygon fill="black" stroke="black" points="314.78,-279.32 317.26,-269.02 308.9,-275.52 314.78,-279.32"/>
<text text-anchor="middle" x="350.5" y="-290.8" font-family="Arial" font-size="14.00">变量声明分支</text>
</g>
<!-- check_lvalue -->
<g id="node8" class="node">
<title>check_lvalue</title>
<path fill="none" stroke="black" d="M592,-269C592,-269 485,-269 485,-269 479,-269 473,-263 473,-257 473,-257 473,-245 473,-245 473,-239 479,-233 485,-233 485,-233 592,-233 592,-233 598,-233 604,-239 604,-245 604,-245 604,-257 604,-257 604,-263 598,-269 592,-269"/>
<text text-anchor="middle" x="538.5" y="-247.3" font-family="Arial" font-size="14.00">存在左值表达式？</text>
</g>
<!-- process_vars&#45;&gt;check_lvalue -->
<g id="edge7" class="edge">
<title>process_vars&#45;&gt;check_lvalue</title>
<path fill="none" stroke="black" d="M372.25,-330.44C420.16,-324.7 480.24,-315.2 501.5,-302 511,-296.1 518.86,-286.8 524.86,-277.81"/>
<polygon fill="black" stroke="black" points="527.98,-279.42 530.23,-269.07 522.02,-275.76 527.98,-279.42"/>
<text text-anchor="middle" x="568.5" y="-290.8" font-family="Arial" font-size="14.00">其他表达式分支</text>
</g>
<!-- handle_identifier&#45;&gt;process_vars -->
<g id="edge8" class="edge">
<title>handle_identifier&#45;&gt;process_vars</title>
<path fill="none" stroke="black" d="M128.09,-269.22C149.07,-279.36 176.53,-292.1 201.5,-302 214.44,-307.13 228.46,-312.16 241.91,-316.73"/>
<polygon fill="black" stroke="black" points="240.99,-320.12 251.59,-319.98 243.22,-313.48 240.99,-320.12"/>
<text text-anchor="middle" x="251.5" y="-290.8" font-family="Arial" font-size="14.00">继续下一个变量</text>
</g>
<!-- handle_var_decl&#45;&gt;process_vars -->
<g id="edge9" class="edge">
<title>handle_var_decl&#45;&gt;process_vars</title>
<path fill="none" stroke="black" d="M376.05,-269.15C391.1,-277.73 402.24,-289.06 393.5,-302 390.06,-307.1 385.73,-311.46 380.86,-315.18"/>
<polygon fill="black" stroke="black" points="378.65,-312.44 372.21,-320.86 382.49,-318.29 378.65,-312.44"/>
<text text-anchor="middle" x="447.5" y="-290.8" font-family="Arial" font-size="14.00">继续下一个变量</text>
</g>
<!-- enter_comptime_block -->
<g id="node9" class="node">
<title>enter_comptime_block</title>
<path fill="none" stroke="black" d="M533.5,-182C533.5,-182 343.5,-182 343.5,-182 337.5,-182 331.5,-176 331.5,-170 331.5,-170 331.5,-158 331.5,-158 331.5,-152 337.5,-146 343.5,-146 343.5,-146 533.5,-146 533.5,-146 539.5,-146 545.5,-152 545.5,-158 545.5,-158 545.5,-170 545.5,-170 545.5,-176 539.5,-182 533.5,-182"/>
<text text-anchor="middle" x="438.5" y="-160.3" font-family="Arial" font-size="14.00">进入编译时块 (block_comptime)</text>
</g>
<!-- check_lvalue&#45;&gt;enter_comptime_block -->
<g id="edge10" class="edge">
<title>check_lvalue&#45;&gt;enter_comptime_block</title>
<path fill="none" stroke="black" d="M518.26,-232.8C503.35,-220.13 482.89,-202.73 466.43,-188.74"/>
<polygon fill="black" stroke="black" points="468.59,-185.99 458.71,-182.18 464.06,-191.32 468.59,-185.99"/>
<text text-anchor="middle" x="502" y="-203.8" font-family="Arial" font-size="14.00">是</text>
</g>
<!-- resolve_inferred_allocs -->
<g id="node10" class="node">
<title>resolve_inferred_allocs</title>
<path fill="none" stroke="black" d="M591.5,-109C591.5,-109 427.5,-109 427.5,-109 421.5,-109 415.5,-103 415.5,-97 415.5,-97 415.5,-85 415.5,-85 415.5,-79 421.5,-73 427.5,-73 427.5,-73 591.5,-73 591.5,-73 597.5,-73 603.5,-79 603.5,-85 603.5,-85 603.5,-97 603.5,-97 603.5,-103 597.5,-109 591.5,-109"/>
<text text-anchor="middle" x="509.5" y="-87.3" font-family="Arial" font-size="14.00">解析推断分配和创建作用域</text>
</g>
<!-- check_lvalue&#45;&gt;resolve_inferred_allocs -->
<g id="edge11" class="edge">
<title>check_lvalue&#45;&gt;resolve_inferred_allocs</title>
<path fill="none" stroke="black" d="M546.14,-232.93C554.42,-211.91 565.13,-175.37 554.5,-146 550.66,-135.39 543.72,-125.4 536.43,-116.97"/>
<polygon fill="black" stroke="black" points="538.78,-114.35 529.41,-109.39 533.64,-119.11 538.78,-114.35"/>
<text text-anchor="middle" x="567" y="-160.3" font-family="Arial" font-size="14.00">否</text>
</g>
<!-- enter_comptime_block&#45;&gt;resolve_inferred_allocs -->
<g id="edge12" class="edge">
<title>enter_comptime_block&#45;&gt;resolve_inferred_allocs</title>
<path fill="none" stroke="black" d="M455.69,-145.81C464.58,-136.92 475.59,-125.91 485.33,-116.17"/>
<polygon fill="black" stroke="black" points="487.87,-118.57 492.47,-109.03 482.93,-113.63 487.87,-118.57"/>
</g>
<!-- end -->
<g id="node11" class="node">
<title>end</title>
<path fill="none" stroke="black" d="M555.5,-36C555.5,-36 463.5,-36 463.5,-36 457.5,-36 451.5,-30 451.5,-24 451.5,-24 451.5,-12 451.5,-12 451.5,-6 457.5,0 463.5,0 463.5,0 555.5,0 555.5,0 561.5,0 567.5,-6 567.5,-12 567.5,-12 567.5,-24 567.5,-24 567.5,-30 561.5,-36 555.5,-36"/>
<text text-anchor="middle" x="509.5" y="-14.3" font-family="Arial" font-size="14.00">返回当前作用域</text>
</g>
<!-- resolve_inferred_allocs&#45;&gt;end -->
<g id="edge13" class="edge">
<title>resolve_inferred_allocs&#45;&gt;end</title>
<path fill="none" stroke="black" d="M509.5,-72.81C509.5,-64.79 509.5,-55.05 509.5,-46.07"/>
<polygon fill="black" stroke="black" points="513,-46.03 509.5,-36.03 506,-46.03 513,-46.03"/>
</g>
</g>
</svg>
