<?xml version="1.0" encoding="UTF-8" standalone="no"?>
<!DOCTYPE svg PUBLIC "-//W3C//DTD SVG 1.1//EN"
 "http://www.w3.org/Graphics/SVG/1.1/DTD/svg11.dtd">
<!-- Generated by graphviz version 2.43.0 (0)
 -->
<!-- Title: flowchart Pages: 1 -->
<svg width="1015pt" height="889pt"
 viewBox="0.00 0.00 1014.50 889.00" xmlns="http://www.w3.org/2000/svg" xmlns:xlink="http://www.w3.org/1999/xlink">
<g id="graph0" class="graph" transform="scale(1 1) rotate(0) translate(4 885)">
<title>flowchart</title>
<polygon fill="white" stroke="transparent" points="-4,4 -4,-885 1010.5,-885 1010.5,4 -4,4"/>
<!-- start -->
<g id="node1" class="node">
<title>start</title>
<polygon fill="lightblue" stroke="black" points="275.5,-881 102.5,-881 102.5,-845 275.5,-845 275.5,-881"/>
<text text-anchor="middle" x="189" y="-859.3" font-family="Courier,monospace" font-size="14.00">Start comptimeExpr2</text>
</g>
<!-- check_comptime -->
<g id="node2" class="node">
<title>check_comptime</title>
<polygon fill="lightblue" stroke="black" points="259,-808 119,-808 119,-772 259,-772 259,-808"/>
<text text-anchor="middle" x="189" y="-786.3" font-family="Courier,monospace" font-size="14.00">gz.is_comptime?</text>
</g>
<!-- start&#45;&gt;check_comptime -->
<g id="edge1" class="edge">
<title>start&#45;&gt;check_comptime</title>
<path fill="none" stroke="black" d="M189,-844.81C189,-836.79 189,-827.05 189,-818.07"/>
<polygon fill="black" stroke="black" points="192.5,-818.03 189,-808.03 185.5,-818.03 192.5,-818.03"/>
</g>
<!-- return_expr -->
<g id="node3" class="node">
<title>return_expr</title>
<polygon fill="lightblue" stroke="black" points="305.5,-721 24.5,-721 24.5,-685 305.5,-685 305.5,-721"/>
<text text-anchor="middle" x="165" y="-699.3" font-family="Courier,monospace" font-size="14.00">Return expr(gz, scope, ri, node)</text>
</g>
<!-- check_comptime&#45;&gt;return_expr -->
<g id="edge2" class="edge">
<title>check_comptime&#45;&gt;return_expr</title>
<path fill="none" stroke="black" d="M184.14,-771.8C180.83,-760.05 176.36,-744.24 172.58,-730.84"/>
<polygon fill="black" stroke="black" points="175.94,-729.85 169.85,-721.18 169.2,-731.75 175.94,-729.85"/>
<text text-anchor="middle" x="191.5" y="-742.8" font-family="Courier,monospace" font-size="14.00">Yes</text>
</g>
<!-- analyze_node -->
<g id="node4" class="node">
<title>analyze_node</title>
<polygon fill="lightblue" stroke="black" points="546.5,-721 323.5,-721 323.5,-685 546.5,-685 546.5,-721"/>
<text text-anchor="middle" x="435" y="-699.3" font-family="Courier,monospace" font-size="14.00">Switch tree.nodeTag(node)</text>
</g>
<!-- check_comptime&#45;&gt;analyze_node -->
<g id="edge3" class="edge">
<title>check_comptime&#45;&gt;analyze_node</title>
<path fill="none" stroke="black" d="M238.49,-771.9C278.19,-758.18 334.03,-738.89 376.04,-724.37"/>
<polygon fill="black" stroke="black" points="377.28,-727.65 385.59,-721.07 375,-721.03 377.28,-727.65"/>
<text text-anchor="middle" x="335.5" y="-742.8" font-family="Courier,monospace" font-size="14.00">No</text>
</g>
<!-- handle_identifier -->
<g id="node5" class="node">
<title>handle_identifier</title>
<polygon fill="lightblue" stroke="black" points="182,-634 0,-634 0,-598 182,-598 182,-634"/>
<text text-anchor="middle" x="91" y="-612.3" font-family="Courier,monospace" font-size="14.00">Call identifier(...)</text>
</g>
<!-- analyze_node&#45;&gt;handle_identifier -->
<g id="edge4" class="edge">
<title>analyze_node&#45;&gt;handle_identifier</title>
<path fill="none" stroke="black" d="M362.42,-684.94C338.68,-679.31 312.2,-672.95 288,-667 248.07,-657.18 203.66,-645.94 167.14,-636.6"/>
<polygon fill="black" stroke="black" points="167.61,-633.11 157.05,-634.03 165.88,-639.89 167.61,-633.11"/>
<text text-anchor="middle" x="333.5" y="-655.8" font-family="Courier,monospace" font-size="14.00">.identifier</text>
</g>
<!-- handle_trivial -->
<g id="node6" class="node">
<title>handle_trivial</title>
<polygon fill="lightblue" stroke="black" points="481.5,-634 200.5,-634 200.5,-598 481.5,-598 481.5,-634"/>
<text text-anchor="middle" x="341" y="-612.3" font-family="Courier,monospace" font-size="14.00">Return expr(gz, scope, ri, node)</text>
</g>
<!-- analyze_node&#45;&gt;handle_trivial -->
<g id="edge5" class="edge">
<title>analyze_node&#45;&gt;handle_trivial</title>
<path fill="none" stroke="black" d="M415.98,-684.8C402.09,-672.24 383.08,-655.05 367.67,-641.12"/>
<polygon fill="black" stroke="black" points="369.76,-638.29 359.99,-634.18 365.06,-643.48 369.76,-638.29"/>
<text text-anchor="middle" x="448" y="-655.8" font-family="Courier,monospace" font-size="14.00">Trivial types</text>
</g>
<!-- handle_blocks -->
<g id="node7" class="node">
<title>handle_blocks</title>
<polygon fill="lightblue" stroke="black" points="672.5,-634 499.5,-634 499.5,-598 672.5,-598 672.5,-634"/>
<text text-anchor="middle" x="586" y="-612.3" font-family="Courier,monospace" font-size="14.00">Process block nodes</text>
</g>
<!-- analyze_node&#45;&gt;handle_blocks -->
<g id="edge6" class="edge">
<title>analyze_node&#45;&gt;handle_blocks</title>
<path fill="none" stroke="black" d="M471.48,-684.89C482.68,-679.4 494.96,-673.15 506,-667 521.14,-658.56 537.43,-648.56 551.34,-639.72"/>
<polygon fill="black" stroke="black" points="553.56,-642.46 560.1,-634.11 549.79,-636.56 553.56,-642.46"/>
<text text-anchor="middle" x="576.5" y="-655.8" font-family="Courier,monospace" font-size="14.00">Block types</text>
</g>
<!-- default_case -->
<g id="node11" class="node">
<title>default_case</title>
<polygon fill="lightblue" stroke="black" points="898,-634 708,-634 708,-598 898,-598 898,-634"/>
<text text-anchor="middle" x="803" y="-612.3" font-family="Courier,monospace" font-size="14.00">Create block_comptime</text>
</g>
<!-- analyze_node&#45;&gt;default_case -->
<g id="edge7" class="edge">
<title>analyze_node&#45;&gt;default_case</title>
<path fill="none" stroke="black" d="M537.96,-684.97C566.58,-679.73 597.6,-673.6 626,-667 663.37,-658.32 704.64,-646.77 737.93,-636.96"/>
<polygon fill="black" stroke="black" points="738.95,-640.31 747.54,-634.11 736.96,-633.6 738.95,-640.31"/>
<text text-anchor="middle" x="701" y="-655.8" font-family="Courier,monospace" font-size="14.00">Else</text>
</g>
<!-- create_ty_only_ri -->
<g id="node8" class="node">
<title>create_ty_only_ri</title>
<polygon fill="lightblue" stroke="black" points="628.5,-561 471.5,-561 471.5,-525 628.5,-525 628.5,-561"/>
<text text-anchor="middle" x="550" y="-539.3" font-family="Courier,monospace" font-size="14.00">Create ty_only_ri</text>
</g>
<!-- handle_blocks&#45;&gt;create_ty_only_ri -->
<g id="edge8" class="edge">
<title>handle_blocks&#45;&gt;create_ty_only_ri</title>
<path fill="none" stroke="black" d="M577.29,-597.81C573.08,-589.53 567.95,-579.41 563.28,-570.19"/>
<polygon fill="black" stroke="black" points="566.28,-568.37 558.63,-561.03 560.04,-571.53 566.28,-568.37"/>
</g>
<!-- labeled_block -->
<g id="node9" class="node">
<title>labeled_block</title>
<polygon fill="lightblue" stroke="black" points="617.5,-488 386.5,-488 386.5,-452 617.5,-452 617.5,-488"/>
<text text-anchor="middle" x="502" y="-466.3" font-family="Courier,monospace" font-size="14.00">Call labeledBlockExpr(...)</text>
</g>
<!-- create_ty_only_ri&#45;&gt;labeled_block -->
<g id="edge9" class="edge">
<title>create_ty_only_ri&#45;&gt;labeled_block</title>
<path fill="none" stroke="black" d="M538.38,-524.81C532.6,-516.27 525.51,-505.77 519.12,-496.32"/>
<polygon fill="black" stroke="black" points="522.01,-494.35 513.51,-488.03 516.21,-498.27 522.01,-494.35"/>
</g>
<!-- rvalue_block -->
<g id="node10" class="node">
<title>rvalue_block</title>
<polygon fill="lightblue" stroke="black" points="642.5,-415 361.5,-415 361.5,-379 642.5,-379 642.5,-415"/>
<text text-anchor="middle" x="502" y="-393.3" font-family="Courier,monospace" font-size="14.00">Return rvalue(gz, ri, block_ref)</text>
</g>
<!-- labeled_block&#45;&gt;rvalue_block -->
<g id="edge10" class="edge">
<title>labeled_block&#45;&gt;rvalue_block</title>
<path fill="none" stroke="black" d="M502,-451.81C502,-443.79 502,-434.05 502,-425.07"/>
<polygon fill="black" stroke="black" points="505.5,-425.03 502,-415.03 498.5,-425.03 505.5,-425.03"/>
</g>
<!-- make_subblock -->
<g id="node12" class="node">
<title>make_subblock</title>
<polygon fill="lightblue" stroke="black" points="969,-561 655,-561 655,-525 969,-525 969,-561"/>
<text text-anchor="middle" x="812" y="-539.3" font-family="Courier,monospace" font-size="14.00">block_scope = gz.makeSubBlock(scope)</text>
</g>
<!-- default_case&#45;&gt;make_subblock -->
<g id="edge11" class="edge">
<title>default_case&#45;&gt;make_subblock</title>
<path fill="none" stroke="black" d="M805.18,-597.81C806.2,-589.79 807.43,-580.05 808.57,-571.07"/>
<polygon fill="black" stroke="black" points="812.06,-571.39 809.84,-561.03 805.11,-570.51 812.06,-571.39"/>
</g>
<!-- block_inst -->
<g id="node13" class="node">
<title>block_inst</title>
<polygon fill="lightblue" stroke="black" points="1006.5,-488 635.5,-488 635.5,-452 1006.5,-452 1006.5,-488"/>
<text text-anchor="middle" x="821" y="-466.3" font-family="Courier,monospace" font-size="14.00">block_inst = makeBlockInst(.block_comptime)</text>
</g>
<!-- make_subblock&#45;&gt;block_inst -->
<g id="edge12" class="edge">
<title>make_subblock&#45;&gt;block_inst</title>
<path fill="none" stroke="black" d="M814.18,-524.81C815.2,-516.79 816.43,-507.05 817.57,-498.07"/>
<polygon fill="black" stroke="black" points="821.06,-498.39 818.84,-488.03 814.11,-497.51 821.06,-498.39"/>
</g>
<!-- set_ty_ri -->
<g id="node14" class="node">
<title>set_ty_ri</title>
<polygon fill="lightblue" stroke="black" points="940.5,-415 701.5,-415 701.5,-379 940.5,-379 940.5,-415"/>
<text text-anchor="middle" x="821" y="-393.3" font-family="Courier,monospace" font-size="14.00">Create ty_only_ri for block</text>
</g>
<!-- block_inst&#45;&gt;set_ty_ri -->
<g id="edge13" class="edge">
<title>block_inst&#45;&gt;set_ty_ri</title>
<path fill="none" stroke="black" d="M821,-451.81C821,-443.79 821,-434.05 821,-425.07"/>
<polygon fill="black" stroke="black" points="824.5,-425.03 821,-415.03 817.5,-425.03 824.5,-425.03"/>
</g>
<!-- full_body -->
<g id="node15" class="node">
<title>full_body</title>
<polygon fill="lightblue" stroke="black" points="961.5,-342 680.5,-342 680.5,-306 961.5,-306 961.5,-342"/>
<text text-anchor="middle" x="821" y="-320.3" font-family="Courier,monospace" font-size="14.00">block_result = fullBodyExpr(...)</text>
</g>
<!-- set_ty_ri&#45;&gt;full_body -->
<g id="edge14" class="edge">
<title>set_ty_ri&#45;&gt;full_body</title>
<path fill="none" stroke="black" d="M821,-378.81C821,-370.79 821,-361.05 821,-352.07"/>
<polygon fill="black" stroke="black" points="824.5,-352.03 821,-342.03 817.5,-352.03 824.5,-352.03"/>
</g>
<!-- add_break -->
<g id="node16" class="node">
<title>add_break</title>
<polygon fill="lightblue" stroke="black" points="916,-255 726,-255 726,-219 916,-219 916,-255"/>
<text text-anchor="middle" x="821" y="-233.3" font-family="Courier,monospace" font-size="14.00">Add break instruction</text>
</g>
<!-- full_body&#45;&gt;add_break -->
<g id="edge15" class="edge">
<title>full_body&#45;&gt;add_break</title>
<path fill="none" stroke="black" d="M821,-305.8C821,-294.16 821,-278.55 821,-265.24"/>
<polygon fill="black" stroke="black" points="824.5,-265.18 821,-255.18 817.5,-265.18 824.5,-265.18"/>
<text text-anchor="middle" x="883" y="-276.8" font-family="Courier,monospace" font-size="14.00">If not noreturn</text>
</g>
<!-- set_body -->
<g id="node17" class="node">
<title>set_body</title>
<polygon fill="lightblue" stroke="black" points="961.5,-182 680.5,-182 680.5,-146 961.5,-146 961.5,-182"/>
<text text-anchor="middle" x="821" y="-160.3" font-family="Courier,monospace" font-size="14.00">setBlockComptimeBody(block_inst)</text>
</g>
<!-- add_break&#45;&gt;set_body -->
<g id="edge16" class="edge">
<title>add_break&#45;&gt;set_body</title>
<path fill="none" stroke="black" d="M821,-218.81C821,-210.79 821,-201.05 821,-192.07"/>
<polygon fill="black" stroke="black" points="824.5,-192.03 821,-182.03 817.5,-192.03 824.5,-192.03"/>
</g>
<!-- append_inst -->
<g id="node18" class="node">
<title>append_inst</title>
<polygon fill="lightblue" stroke="black" points="965.5,-109 676.5,-109 676.5,-73 965.5,-73 965.5,-109"/>
<text text-anchor="middle" x="821" y="-87.3" font-family="Courier,monospace" font-size="14.00">Append block_inst to instructions</text>
</g>
<!-- set_body&#45;&gt;append_inst -->
<g id="edge17" class="edge">
<title>set_body&#45;&gt;append_inst</title>
<path fill="none" stroke="black" d="M821,-145.81C821,-137.79 821,-128.05 821,-119.07"/>
<polygon fill="black" stroke="black" points="824.5,-119.03 821,-109.03 817.5,-119.03 824.5,-119.03"/>
</g>
<!-- return_rvalue -->
<g id="node19" class="node">
<title>return_rvalue</title>
<polygon fill="lightblue" stroke="black" points="965.5,-36 676.5,-36 676.5,0 965.5,0 965.5,-36"/>
<text text-anchor="middle" x="821" y="-14.3" font-family="Courier,monospace" font-size="14.00">Return rvalue(gz, ri, block_inst)</text>
</g>
<!-- append_inst&#45;&gt;return_rvalue -->
<g id="edge18" class="edge">
<title>append_inst&#45;&gt;return_rvalue</title>
<path fill="none" stroke="black" d="M821,-72.81C821,-64.79 821,-55.05 821,-46.07"/>
<polygon fill="black" stroke="black" points="824.5,-46.03 821,-36.03 817.5,-46.03 824.5,-46.03"/>
</g>
</g>
</svg>
