<?xml version="1.0" encoding="UTF-8" standalone="no"?>
<!DOCTYPE svg PUBLIC "-//W3C//DTD SVG 1.1//EN"
 "http://www.w3.org/Graphics/SVG/1.1/DTD/svg11.dtd">
<!-- Generated by graphviz version 2.43.0 (0)
 -->
<!-- Title: flowchart Pages: 1 -->
<svg width="884pt" height="674pt"
 viewBox="0.00 0.00 883.50 674.00" xmlns="http://www.w3.org/2000/svg" xmlns:xlink="http://www.w3.org/1999/xlink">
<g id="graph0" class="graph" transform="scale(1 1) rotate(0) translate(4 670)">
<title>flowchart</title>
<polygon fill="white" stroke="transparent" points="-4,4 -4,-670 879.5,-670 879.5,4 -4,4"/>
<!-- start -->
<g id="node1" class="node">
<title>start</title>
<path fill="none" stroke="black" d="M165,-666C165,-666 82,-666 82,-666 76,-666 70,-660 70,-654 70,-654 70,-642 70,-642 70,-636 76,-630 82,-630 82,-630 165,-630 165,-630 171,-630 177,-636 177,-642 177,-642 177,-654 177,-654 177,-660 171,-666 165,-666"/>
<text text-anchor="middle" x="123.5" y="-644.3" font-family="Arial" font-size="14.00">开始 builtinCall</text>
</g>
<!-- check_builtin_exists -->
<g id="node2" class="node">
<title>check_builtin_exists</title>
<path fill="none" stroke="black" d="M191,-593C191,-593 56,-593 56,-593 50,-593 44,-587 44,-581 44,-581 44,-569 44,-569 44,-563 50,-557 56,-557 56,-557 191,-557 191,-557 197,-557 203,-563 203,-569 203,-569 203,-581 203,-581 203,-587 197,-593 191,-593"/>
<text text-anchor="middle" x="123.5" y="-571.3" font-family="Arial" font-size="14.00">检查内置函数是否存在</text>
</g>
<!-- start&#45;&gt;check_builtin_exists -->
<g id="edge1" class="edge">
<title>start&#45;&gt;check_builtin_exists</title>
<path fill="none" stroke="black" d="M123.5,-629.81C123.5,-621.79 123.5,-612.05 123.5,-603.07"/>
<polygon fill="black" stroke="black" points="127,-603.03 123.5,-593.03 120,-603.03 127,-603.03"/>
</g>
<!-- error_invalid_builtin -->
<g id="node3" class="node">
<title>error_invalid_builtin</title>
<path fill="none" stroke="black" d="M169,-452C169,-452 12,-452 12,-452 6,-452 0,-446 0,-440 0,-440 0,-428 0,-428 0,-422 6,-416 12,-416 12,-416 169,-416 169,-416 175,-416 181,-422 181,-428 181,-428 181,-440 181,-440 181,-446 175,-452 169,-452"/>
<text text-anchor="middle" x="90.5" y="-430.3" font-family="Arial" font-size="14.00">返回错误: 无效的内置函数</text>
</g>
<!-- check_builtin_exists&#45;&gt;error_invalid_builtin -->
<g id="edge2" class="edge">
<title>check_builtin_exists&#45;&gt;error_invalid_builtin</title>
<path fill="none" stroke="black" d="M119.45,-556.96C113.84,-533.3 103.62,-490.26 96.95,-462.15"/>
<polygon fill="black" stroke="black" points="100.29,-461.1 94.58,-452.18 93.48,-462.72 100.29,-461.1"/>
<text text-anchor="middle" x="137" y="-527.8" font-family="Arial" font-size="14.00">不存在</text>
</g>
<!-- check_param_count -->
<g id="node4" class="node">
<title>check_param_count</title>
<path fill="none" stroke="black" d="M294.5,-506C294.5,-506 130.5,-506 130.5,-506 124.5,-506 118.5,-500 118.5,-494 118.5,-494 118.5,-482 118.5,-482 118.5,-476 124.5,-470 130.5,-470 130.5,-470 294.5,-470 294.5,-470 300.5,-470 306.5,-476 306.5,-482 306.5,-482 306.5,-494 306.5,-494 306.5,-500 300.5,-506 294.5,-506"/>
<text text-anchor="middle" x="212.5" y="-484.3" font-family="Arial" font-size="14.00">检查参数数量是否符合要求</text>
</g>
<!-- check_builtin_exists&#45;&gt;check_param_count -->
<g id="edge3" class="edge">
<title>check_builtin_exists&#45;&gt;check_param_count</title>
<path fill="none" stroke="black" d="M141.51,-556.8C154.66,-544.24 172.66,-527.05 187.24,-513.12"/>
<polygon fill="black" stroke="black" points="189.7,-515.61 194.52,-506.18 184.87,-510.55 189.7,-515.61"/>
<text text-anchor="middle" x="188" y="-527.8" font-family="Arial" font-size="14.00">存在</text>
</g>
<!-- end -->
<g id="node15" class="node">
<title>end</title>
<path fill="none" stroke="black" d="M178.5,-36C178.5,-36 148.5,-36 148.5,-36 142.5,-36 136.5,-30 136.5,-24 136.5,-24 136.5,-12 136.5,-12 136.5,-6 142.5,0 148.5,0 148.5,0 178.5,0 178.5,0 184.5,0 190.5,-6 190.5,-12 190.5,-12 190.5,-24 190.5,-24 190.5,-30 184.5,-36 178.5,-36"/>
<text text-anchor="middle" x="163.5" y="-14.3" font-family="Arial" font-size="14.00">结束</text>
</g>
<!-- error_invalid_builtin&#45;&gt;end -->
<g id="edge19" class="edge">
<title>error_invalid_builtin&#45;&gt;end</title>
<path fill="none" stroke="black" d="M92.86,-415.78C95.53,-394.84 99.5,-358.4 99.5,-327 99.5,-327 99.5,-327 99.5,-90 99.5,-70.26 113.32,-53.53 128.12,-41.28"/>
<polygon fill="black" stroke="black" points="130.56,-43.82 136.36,-34.94 126.3,-38.27 130.56,-43.82"/>
</g>
<!-- error_param_count -->
<g id="node5" class="node">
<title>error_param_count</title>
<path fill="none" stroke="black" d="M250,-344C250,-344 143,-344 143,-344 137,-344 131,-338 131,-332 131,-332 131,-320 131,-320 131,-314 137,-308 143,-308 143,-308 250,-308 250,-308 256,-308 262,-314 262,-320 262,-320 262,-332 262,-332 262,-338 256,-344 250,-344"/>
<text text-anchor="middle" x="196.5" y="-322.3" font-family="Arial" font-size="14.00">返回参数数量错误</text>
</g>
<!-- check_param_count&#45;&gt;error_param_count -->
<g id="edge4" class="edge">
<title>check_param_count&#45;&gt;error_param_count</title>
<path fill="none" stroke="black" d="M206.09,-469.78C204.28,-464.18 202.53,-457.9 201.5,-452 195.7,-418.67 195.11,-379.63 195.53,-354.16"/>
<polygon fill="black" stroke="black" points="199.03,-354.21 195.76,-344.13 192.03,-354.05 199.03,-354.21"/>
<text text-anchor="middle" x="251.5" y="-430.3" font-family="Arial" font-size="14.00">参数数量不匹配</text>
</g>
<!-- check_scope -->
<g id="node6" class="node">
<title>check_scope</title>
<path fill="none" stroke="black" d="M402,-398C402,-398 253,-398 253,-398 247,-398 241,-392 241,-386 241,-386 241,-374 241,-374 241,-368 247,-362 253,-362 253,-362 402,-362 402,-362 408,-362 414,-368 414,-374 414,-374 414,-386 414,-386 414,-392 408,-398 402,-398"/>
<text text-anchor="middle" x="327.5" y="-376.3" font-family="Arial" font-size="14.00">检查是否在合法作用域内</text>
</g>
<!-- check_param_count&#45;&gt;check_scope -->
<g id="edge5" class="edge">
<title>check_param_count&#45;&gt;check_scope</title>
<path fill="none" stroke="black" d="M280.56,-469.88C289.82,-465.26 298.52,-459.41 305.5,-452 316.68,-440.13 322.18,-422.69 324.89,-408.06"/>
<polygon fill="black" stroke="black" points="328.37,-408.44 326.41,-398.03 321.45,-407.39 328.37,-408.44"/>
<text text-anchor="middle" x="352.5" y="-430.3" font-family="Arial" font-size="14.00">参数正确</text>
</g>
<!-- error_param_count&#45;&gt;end -->
<g id="edge20" class="edge">
<title>error_param_count&#45;&gt;end</title>
<path fill="none" stroke="black" d="M182.02,-307.89C166.63,-287.91 144.5,-253.23 144.5,-219 144.5,-219 144.5,-219 144.5,-90 144.5,-75.1 148.45,-59.02 152.75,-45.93"/>
<polygon fill="black" stroke="black" points="156.17,-46.76 156.21,-36.16 149.58,-44.43 156.17,-46.76"/>
</g>
<!-- error_scope -->
<g id="node7" class="node">
<title>error_scope</title>
<path fill="none" stroke="black" d="M273.5,-236C273.5,-236 181.5,-236 181.5,-236 175.5,-236 169.5,-230 169.5,-224 169.5,-224 169.5,-212 169.5,-212 169.5,-206 175.5,-200 181.5,-200 181.5,-200 273.5,-200 273.5,-200 279.5,-200 285.5,-206 285.5,-212 285.5,-212 285.5,-224 285.5,-224 285.5,-230 279.5,-236 273.5,-236"/>
<text text-anchor="middle" x="227.5" y="-214.3" font-family="Arial" font-size="14.00">返回作用域错误</text>
</g>
<!-- check_scope&#45;&gt;error_scope -->
<g id="edge6" class="edge">
<title>check_scope&#45;&gt;error_scope</title>
<path fill="none" stroke="black" d="M316.8,-361.88C299.3,-333.88 264.44,-278.11 243.84,-245.14"/>
<polygon fill="black" stroke="black" points="246.7,-243.11 238.43,-236.48 240.76,-246.82 246.7,-243.11"/>
<text text-anchor="middle" x="340.5" y="-322.3" font-family="Arial" font-size="14.00">非法作用域</text>
</g>
<!-- switch_tag -->
<g id="node8" class="node">
<title>switch_tag</title>
<path fill="none" stroke="black" d="M493,-290C493,-290 364,-290 364,-290 358,-290 352,-284 352,-278 352,-278 352,-266 352,-266 352,-260 358,-254 364,-254 364,-254 493,-254 493,-254 499,-254 505,-260 505,-266 505,-266 505,-278 505,-278 505,-284 499,-290 493,-290"/>
<text text-anchor="middle" x="428.5" y="-268.3" font-family="Arial" font-size="14.00">根据 info.tag 分发处理</text>
</g>
<!-- check_scope&#45;&gt;switch_tag -->
<g id="edge7" class="edge">
<title>check_scope&#45;&gt;switch_tag</title>
<path fill="none" stroke="black" d="M359.48,-361.9C367.51,-356.76 375.75,-350.7 382.5,-344 395.67,-330.93 407.05,-313.47 415.19,-299.14"/>
<polygon fill="black" stroke="black" points="418.33,-300.7 420.06,-290.25 412.19,-297.34 418.33,-300.7"/>
<text text-anchor="middle" x="445.5" y="-322.3" font-family="Arial" font-size="14.00">作用域合法</text>
</g>
<!-- error_scope&#45;&gt;end -->
<g id="edge21" class="edge">
<title>error_scope&#45;&gt;end</title>
<path fill="none" stroke="black" d="M212.49,-199.73C208.43,-194.34 204.36,-188.18 201.5,-182 180.75,-137.23 170.81,-80.14 166.47,-46.77"/>
<polygon fill="black" stroke="black" points="169.89,-45.91 165.2,-36.41 162.94,-46.76 169.89,-45.91"/>
</g>
<!-- handle_branch_hint -->
<g id="node9" class="node">
<title>handle_branch_hint</title>
<path fill="none" stroke="black" d="M326.5,-182C326.5,-182 222.5,-182 222.5,-182 216.5,-182 210.5,-176 210.5,-170 210.5,-170 210.5,-158 210.5,-158 210.5,-152 216.5,-146 222.5,-146 222.5,-146 326.5,-146 326.5,-146 332.5,-146 338.5,-152 338.5,-158 338.5,-158 338.5,-170 338.5,-170 338.5,-176 332.5,-182 326.5,-182"/>
<text text-anchor="middle" x="274.5" y="-160.3" font-family="Arial" font-size="14.00">处理 @branchHint</text>
</g>
<!-- switch_tag&#45;&gt;handle_branch_hint -->
<g id="edge8" class="edge">
<title>switch_tag&#45;&gt;handle_branch_hint</title>
<path fill="none" stroke="black" d="M370.37,-253.84C358.62,-249.04 346.74,-243.13 336.5,-236 318.87,-223.73 303.03,-205.38 291.76,-190.41"/>
<polygon fill="black" stroke="black" points="294.4,-188.08 285.69,-182.06 288.74,-192.2 294.4,-188.08"/>
<text text-anchor="middle" x="374" y="-214.3" font-family="Arial" font-size="14.00">.branch_hint</text>
</g>
<!-- handle_import -->
<g id="node10" class="node">
<title>handle_import</title>
<path fill="none" stroke="black" d="M446,-182C446,-182 369,-182 369,-182 363,-182 357,-176 357,-170 357,-170 357,-158 357,-158 357,-152 363,-146 369,-146 369,-146 446,-146 446,-146 452,-146 458,-152 458,-158 458,-158 458,-170 458,-170 458,-176 452,-182 446,-182"/>
<text text-anchor="middle" x="407.5" y="-160.3" font-family="Arial" font-size="14.00">处理 @import</text>
</g>
<!-- switch_tag&#45;&gt;handle_import -->
<g id="edge9" class="edge">
<title>switch_tag&#45;&gt;handle_import</title>
<path fill="none" stroke="black" d="M425.13,-253.97C421.82,-237.3 416.74,-211.65 412.88,-192.16"/>
<polygon fill="black" stroke="black" points="416.31,-191.47 410.94,-182.34 409.45,-192.83 416.31,-191.47"/>
<text text-anchor="middle" x="443" y="-214.3" font-family="Arial" font-size="14.00">.import</text>
</g>
<!-- handle_compile_log -->
<g id="node11" class="node">
<title>handle_compile_log</title>
<path fill="none" stroke="black" d="M597,-182C597,-182 488,-182 488,-182 482,-182 476,-176 476,-170 476,-170 476,-158 476,-158 476,-152 482,-146 488,-146 488,-146 597,-146 597,-146 603,-146 609,-152 609,-158 609,-158 609,-170 609,-170 609,-176 603,-182 597,-182"/>
<text text-anchor="middle" x="542.5" y="-160.3" font-family="Arial" font-size="14.00">处理 @compileLog</text>
</g>
<!-- switch_tag&#45;&gt;handle_compile_log -->
<g id="edge10" class="edge">
<title>switch_tag&#45;&gt;handle_compile_log</title>
<path fill="none" stroke="black" d="M448.6,-253.73C455.01,-248.14 462.1,-241.86 468.5,-236 485.11,-220.78 503.39,-203.25 517.62,-189.42"/>
<polygon fill="black" stroke="black" points="520.35,-191.64 525.07,-182.16 515.47,-186.63 520.35,-191.64"/>
<text text-anchor="middle" x="544" y="-214.3" font-family="Arial" font-size="14.00">.compile_log</text>
</g>
<!-- handle_field -->
<g id="node12" class="node">
<title>handle_field</title>
<path fill="none" stroke="black" d="M703.5,-182C703.5,-182 639.5,-182 639.5,-182 633.5,-182 627.5,-176 627.5,-170 627.5,-170 627.5,-158 627.5,-158 627.5,-152 633.5,-146 639.5,-146 639.5,-146 703.5,-146 703.5,-146 709.5,-146 715.5,-152 715.5,-158 715.5,-158 715.5,-170 715.5,-170 715.5,-176 709.5,-182 703.5,-182"/>
<text text-anchor="middle" x="671.5" y="-160.3" font-family="Arial" font-size="14.00">处理 @field</text>
</g>
<!-- switch_tag&#45;&gt;handle_field -->
<g id="edge11" class="edge">
<title>switch_tag&#45;&gt;handle_field</title>
<path fill="none" stroke="black" d="M505.32,-261.58C531.96,-256.37 561.41,-248.33 586.5,-236 610.08,-224.41 632.7,-204.96 648.67,-189.35"/>
<polygon fill="black" stroke="black" points="651.37,-191.6 655.95,-182.05 646.42,-186.66 651.37,-191.6"/>
<text text-anchor="middle" x="650" y="-214.3" font-family="Arial" font-size="14.00">.field</text>
</g>
<!-- handle_other_cases -->
<g id="node13" class="node">
<title>handle_other_cases</title>
<path fill="none" stroke="black" d="M863.5,-182C863.5,-182 745.5,-182 745.5,-182 739.5,-182 733.5,-176 733.5,-170 733.5,-170 733.5,-158 733.5,-158 733.5,-152 739.5,-146 745.5,-146 745.5,-146 863.5,-146 863.5,-146 869.5,-146 875.5,-152 875.5,-158 875.5,-158 875.5,-170 875.5,-170 875.5,-176 869.5,-182 863.5,-182"/>
<text text-anchor="middle" x="804.5" y="-160.3" font-family="Arial" font-size="14.00">处理其他内置函数...</text>
</g>
<!-- switch_tag&#45;&gt;handle_other_cases -->
<g id="edge12" class="edge">
<title>switch_tag&#45;&gt;handle_other_cases</title>
<path fill="none" stroke="black" d="M505.11,-266.42C552.99,-261.95 615.42,-253.18 668.5,-236 704.81,-224.25 743.09,-203.41 769.75,-187.33"/>
<polygon fill="black" stroke="black" points="771.62,-190.29 778.32,-182.08 767.97,-184.32 771.62,-190.29"/>
<text text-anchor="middle" x="776.5" y="-214.3" font-family="Arial" font-size="14.00">其他标签</text>
</g>
<!-- return_result -->
<g id="node14" class="node">
<title>return_result</title>
<path fill="none" stroke="black" d="M499.5,-109C499.5,-109 449.5,-109 449.5,-109 443.5,-109 437.5,-103 437.5,-97 437.5,-97 437.5,-85 437.5,-85 437.5,-79 443.5,-73 449.5,-73 449.5,-73 499.5,-73 499.5,-73 505.5,-73 511.5,-79 511.5,-85 511.5,-85 511.5,-97 511.5,-97 511.5,-103 505.5,-109 499.5,-109"/>
<text text-anchor="middle" x="474.5" y="-87.3" font-family="Arial" font-size="14.00">返回结果</text>
</g>
<!-- handle_branch_hint&#45;&gt;return_result -->
<g id="edge13" class="edge">
<title>handle_branch_hint&#45;&gt;return_result</title>
<path fill="none" stroke="black" d="M322.4,-145.99C354.35,-134.65 396.13,-119.82 427.82,-108.57"/>
<polygon fill="black" stroke="black" points="429.05,-111.85 437.3,-105.2 426.71,-105.25 429.05,-111.85"/>
</g>
<!-- handle_import&#45;&gt;return_result -->
<g id="edge14" class="edge">
<title>handle_import&#45;&gt;return_result</title>
<path fill="none" stroke="black" d="M423.72,-145.81C432.03,-137 442.3,-126.13 451.42,-116.46"/>
<polygon fill="black" stroke="black" points="454.11,-118.7 458.43,-109.03 449.02,-113.9 454.11,-118.7"/>
</g>
<!-- handle_compile_log&#45;&gt;return_result -->
<g id="edge15" class="edge">
<title>handle_compile_log&#45;&gt;return_result</title>
<path fill="none" stroke="black" d="M526.04,-145.81C517.6,-137 507.18,-126.13 497.92,-116.46"/>
<polygon fill="black" stroke="black" points="500.25,-113.83 490.81,-109.03 495.2,-118.67 500.25,-113.83"/>
</g>
<!-- handle_field&#45;&gt;return_result -->
<g id="edge16" class="edge">
<title>handle_field&#45;&gt;return_result</title>
<path fill="none" stroke="black" d="M627.29,-147.07C595.73,-135.69 553.35,-120.42 521.23,-108.84"/>
<polygon fill="black" stroke="black" points="522.21,-105.48 511.62,-105.38 519.84,-112.06 522.21,-105.48"/>
</g>
<!-- handle_other_cases&#45;&gt;return_result -->
<g id="edge17" class="edge">
<title>handle_other_cases&#45;&gt;return_result</title>
<path fill="none" stroke="black" d="M733.3,-147.68C669.27,-133.9 577,-114.05 521.68,-102.15"/>
<polygon fill="black" stroke="black" points="522.31,-98.71 511.8,-100.02 520.84,-105.55 522.31,-98.71"/>
</g>
<!-- return_result&#45;&gt;end -->
<g id="edge18" class="edge">
<title>return_result&#45;&gt;end</title>
<path fill="none" stroke="black" d="M437.3,-81.51C377.4,-67.83 260.27,-41.09 200.5,-27.45"/>
<polygon fill="black" stroke="black" points="201.26,-24.03 190.73,-25.22 199.7,-30.85 201.26,-24.03"/>
</g>
</g>
</svg>
