<?xml version="1.0" encoding="UTF-8" standalone="no"?>
<!DOCTYPE svg PUBLIC "-//W3C//DTD SVG 1.1//EN"
 "http://www.w3.org/Graphics/SVG/1.1/DTD/svg11.dtd">
<!-- Generated by graphviz version 2.43.0 (0)
 -->
<!-- Title: firstToken Pages: 1 -->
<svg width="2066pt" height="350pt"
 viewBox="0.00 0.00 2065.50 350.00" xmlns="http://www.w3.org/2000/svg" xmlns:xlink="http://www.w3.org/1999/xlink">
<g id="graph0" class="graph" transform="scale(1 1) rotate(0) translate(4 346)">
<title>firstToken</title>
<!-- start -->
<g id="node1" class="node">
<title>start</title>
<polygon fill="none" stroke="black" points="781,-342 662,-342 662,-306 781,-306 781,-342"/>
<text text-anchor="middle" x="721.5" y="-321.5" font-family="Courier,monospace" font-size="10.00">start(firstToken)</text>
</g>
<!-- loop -->
<g id="node2" class="node">
<title>loop</title>
<polygon fill="none" stroke="black" points="766,-269 677,-269 677,-233 766,-233 766,-269"/>
<text text-anchor="middle" x="721.5" y="-248.5" font-family="Courier,monospace" font-size="10.00">while (true)</text>
</g>
<!-- start&#45;&gt;loop -->
<g id="edge1" class="edge">
<title>start&#45;&gt;loop</title>
<path fill="none" stroke="black" d="M721.5,-305.81C721.5,-297.79 721.5,-288.05 721.5,-279.07"/>
<polygon fill="black" stroke="black" points="725,-279.03 721.5,-269.03 718,-279.03 725,-279.03"/>
</g>
<!-- switch_node -->
<g id="node3" class="node">
<title>switch_node</title>
<polygon fill="none" stroke="black" points="1127,-196 972,-196 972,-160 1127,-160 1127,-196"/>
<text text-anchor="middle" x="1049.5" y="-175.5" font-family="Courier,monospace" font-size="10.00">switch(tree.nodeTag(n))</text>
</g>
<!-- loop&#45;&gt;switch_node -->
<g id="edge2" class="edge">
<title>loop&#45;&gt;switch_node</title>
<path fill="none" stroke="black" d="M766.08,-240.35C816.21,-229.5 898.85,-211.61 961.99,-197.94"/>
<polygon fill="black" stroke="black" points="962.92,-201.32 971.95,-195.79 961.44,-194.48 962.92,-201.32"/>
</g>
<!-- return_root -->
<g id="node4" class="node">
<title>return_root</title>
<polygon fill="none" stroke="black" points="1304,-109 1239,-109 1239,-73 1304,-73 1304,-109"/>
<text text-anchor="middle" x="1271.5" y="-88.5" font-family="Courier,monospace" font-size="10.00">return 0</text>
</g>
<!-- switch_node&#45;&gt;return_root -->
<g id="edge3" class="edge">
<title>switch_node&#45;&gt;return_root</title>
<path fill="none" stroke="black" d="M1127.03,-170.57C1174.09,-165.3 1228.63,-156.32 1247.5,-142 1255.08,-136.25 1260.38,-127.49 1264.04,-118.9"/>
<polygon fill="black" stroke="black" points="1267.35,-120.04 1267.5,-109.44 1260.78,-117.63 1267.35,-120.04"/>
<text text-anchor="middle" x="1277.5" y="-130.8" font-family="Times,serif" font-size="14.00">.root</text>
</g>
<!-- return_main -->
<g id="node5" class="node">
<title>return_main</title>
<polygon fill="none" stroke="black" points="1585,-109 1322,-109 1322,-73 1585,-73 1585,-109"/>
<text text-anchor="middle" x="1453.5" y="-88.5" font-family="Courier,monospace" font-size="10.00">return tree.nodeMainToken(n) &#45; end_offset</text>
</g>
<!-- switch_node&#45;&gt;return_main -->
<g id="edge4" class="edge">
<title>switch_node&#45;&gt;return_main</title>
<path fill="none" stroke="black" d="M1127.26,-169.62C1176.69,-164.06 1241.83,-155.12 1298.5,-142 1319.45,-137.15 1324.04,-133.62 1344.5,-127 1359.39,-122.18 1375.44,-117.02 1390.51,-112.17"/>
<polygon fill="black" stroke="black" points="1391.81,-115.43 1400.26,-109.04 1389.67,-108.77 1391.81,-115.43"/>
<text text-anchor="middle" x="1380.5" y="-130.8" font-family="Times,serif" font-size="14.00">第一组标签</text>
</g>
<!-- return_main_adj -->
<g id="node6" class="node">
<title>return_main_adj</title>
<polygon fill="none" stroke="black" points="1128,-109 865,-109 865,-73 1128,-73 1128,-109"/>
<text text-anchor="middle" x="996.5" y="-88.5" font-family="Courier,monospace" font-size="10.00">return tree.nodeMainToken(n)&#45;1&#45;end_offset</text>
</g>
<!-- switch_node&#45;&gt;return_main_adj -->
<g id="edge5" class="edge">
<title>switch_node&#45;&gt;return_main_adj</title>
<path fill="none" stroke="black" d="M1059.15,-159.81C1063.46,-149.68 1066.39,-136.94 1060.5,-127 1057.86,-122.55 1054.44,-118.63 1050.55,-115.19"/>
<polygon fill="black" stroke="black" points="1052.65,-112.39 1042.57,-109.13 1048.42,-117.96 1052.65,-112.39"/>
<text text-anchor="middle" x="1100.5" y="-130.8" font-family="Times,serif" font-size="14.00">第二组标签</text>
</g>
<!-- update_n -->
<g id="node7" class="node">
<title>update_n</title>
<polygon fill="none" stroke="black" points="143,-109 0,-109 0,-73 143,-73 143,-109"/>
<text text-anchor="middle" x="71.5" y="-88.5" font-family="Courier,monospace" font-size="10.00">n = ... (update node)</text>
</g>
<!-- switch_node&#45;&gt;update_n -->
<g id="edge6" class="edge">
<title>switch_node&#45;&gt;update_n</title>
<path fill="none" stroke="black" d="M971.96,-165.14C956.28,-163.11 939.89,-161.26 924.5,-160 636.9,-136.52 561.47,-180.56 275.5,-142 228.53,-135.67 176.66,-122.87 136.98,-111.81"/>
<polygon fill="black" stroke="black" points="137.74,-108.39 127.17,-109.04 135.84,-115.13 137.74,-108.39"/>
<text text-anchor="middle" x="311.5" y="-130.8" font-family="Times,serif" font-size="14.00">第三组标签</text>
</g>
<!-- handle_fn_decl -->
<g id="node8" class="node">
<title>handle_fn_decl</title>
<polygon fill="none" stroke="black" points="847,-109 752,-109 752,-73 847,-73 847,-109"/>
<text text-anchor="middle" x="799.5" y="-88.5" font-family="Courier,monospace" font-size="10.00">处理函数声明逻辑</text>
</g>
<!-- switch_node&#45;&gt;handle_fn_decl -->
<g id="edge7" class="edge">
<title>switch_node&#45;&gt;handle_fn_decl</title>
<path fill="none" stroke="black" d="M1007,-159.89C995.51,-154.68 983.28,-148.57 972.5,-142 963.31,-136.4 963.3,-131.44 953.5,-127 915.83,-109.95 900.59,-118.15 856.84,-109.06"/>
<polygon fill="black" stroke="black" points="857.58,-105.64 847.06,-106.84 856.04,-112.46 857.58,-105.64"/>
<text text-anchor="middle" x="1014.5" y="-130.8" font-family="Times,serif" font-size="14.00">.fn_decl相关</text>
</g>
<!-- handle_usingnamespace -->
<g id="node9" class="node">
<title>handle_usingnamespace</title>
<polygon fill="none" stroke="black" points="1979.5,-109 1859.5,-109 1859.5,-73 1979.5,-73 1979.5,-109"/>
<text text-anchor="middle" x="1919.5" y="-88.5" font-family="Courier,monospace" font-size="10.00">处理usingnamespace</text>
</g>
<!-- switch_node&#45;&gt;handle_usingnamespace -->
<g id="edge8" class="edge">
<title>switch_node&#45;&gt;handle_usingnamespace</title>
<path fill="none" stroke="black" d="M1127.05,-175.49C1241.19,-172.57 1460.96,-164.34 1646.5,-142 1715.97,-133.63 1794.47,-118.67 1849.4,-107.29"/>
<polygon fill="black" stroke="black" points="1850.3,-110.67 1859.37,-105.21 1848.87,-103.82 1850.3,-110.67"/>
<text text-anchor="middle" x="1807.5" y="-130.8" font-family="Times,serif" font-size="14.00">.usingnamespace</text>
</g>
<!-- handle_container_field -->
<g id="node10" class="node">
<title>handle_container_field</title>
<polygon fill="none" stroke="black" points="359.5,-109 233.5,-109 233.5,-73 359.5,-73 359.5,-109"/>
<text text-anchor="middle" x="296.5" y="-88.5" font-family="Courier,monospace" font-size="10.00">处理container_field</text>
</g>
<!-- switch_node&#45;&gt;handle_container_field -->
<g id="edge9" class="edge">
<title>switch_node&#45;&gt;handle_container_field</title>
<path fill="none" stroke="black" d="M971.95,-165.21C956.28,-163.17 939.89,-161.3 924.5,-160 805.75,-149.96 503.5,-173.29 388.5,-142 367.63,-136.32 346.29,-125.12 329.42,-114.76"/>
<polygon fill="black" stroke="black" points="330.86,-111.53 320.54,-109.13 327.11,-117.44 330.86,-111.53"/>
<text text-anchor="middle" x="441.5" y="-130.8" font-family="Times,serif" font-size="14.00">container_field</text>
</g>
<!-- handle_global_var -->
<g id="node11" class="node">
<title>handle_global_var</title>
<polygon fill="none" stroke="black" points="489,-109 414,-109 414,-73 489,-73 489,-109"/>
<text text-anchor="middle" x="451.5" y="-88.5" font-family="Courier,monospace" font-size="10.00">处理变量声明</text>
</g>
<!-- switch_node&#45;&gt;handle_global_var -->
<g id="edge10" class="edge">
<title>switch_node&#45;&gt;handle_global_var</title>
<path fill="none" stroke="black" d="M971.94,-165.35C956.27,-163.31 939.88,-161.39 924.5,-160 837.21,-152.09 614.1,-168.32 530.5,-142 512.42,-136.31 494.4,-125.41 480.14,-115.23"/>
<polygon fill="black" stroke="black" points="481.91,-112.18 471.79,-109.04 477.74,-117.81 481.91,-112.18"/>
<text text-anchor="middle" x="574.5" y="-130.8" font-family="Times,serif" font-size="14.00">var_decl相关</text>
</g>
<!-- handle_block -->
<g id="node12" class="node">
<title>handle_block</title>
<polygon fill="none" stroke="black" points="1816,-109 1751,-109 1751,-73 1816,-73 1816,-109"/>
<text text-anchor="middle" x="1783.5" y="-88.5" font-family="Courier,monospace" font-size="10.00">处理块结构</text>
</g>
<!-- switch_node&#45;&gt;handle_block -->
<g id="edge11" class="edge">
<title>switch_node&#45;&gt;handle_block</title>
<path fill="none" stroke="black" d="M1127.01,-176.84C1222.84,-175.39 1390.55,-168.77 1531.5,-142 1553.46,-137.83 1557.66,-131.75 1579.5,-127 1642.1,-113.39 1659.7,-121.63 1722.5,-109 1728.44,-107.81 1734.65,-106.34 1740.73,-104.77"/>
<polygon fill="black" stroke="black" points="1742.04,-108.04 1750.79,-102.07 1740.22,-101.28 1742.04,-108.04"/>
<text text-anchor="middle" x="1613" y="-130.8" font-family="Times,serif" font-size="14.00">block相关</text>
</g>
<!-- handle_container_decl -->
<g id="node13" class="node">
<title>handle_container_decl</title>
<polygon fill="none" stroke="black" points="600,-109 525,-109 525,-73 600,-73 600,-109"/>
<text text-anchor="middle" x="562.5" y="-88.5" font-family="Courier,monospace" font-size="10.00">处理容器声明</text>
</g>
<!-- switch_node&#45;&gt;handle_container_decl -->
<g id="edge12" class="edge">
<title>switch_node&#45;&gt;handle_container_decl</title>
<path fill="none" stroke="black" d="M971.92,-165.62C956.24,-163.55 939.86,-161.56 924.5,-160 806.17,-147.98 771.94,-174.4 657.5,-142 636.12,-135.95 614.05,-124.69 596.57,-114.38"/>
<polygon fill="black" stroke="black" points="598.24,-111.31 587.88,-109.12 594.61,-117.29 598.24,-111.31"/>
<text text-anchor="middle" x="724" y="-130.8" font-family="Times,serif" font-size="14.00">container_decl相关</text>
</g>
<!-- handle_switch_case -->
<g id="node14" class="node">
<title>handle_switch_case</title>
<polygon fill="none" stroke="black" points="728.5,-109 626.5,-109 626.5,-73 728.5,-73 728.5,-109"/>
<text text-anchor="middle" x="677.5" y="-88.5" font-family="Courier,monospace" font-size="10.00">处理switch case</text>
</g>
<!-- switch_node&#45;&gt;handle_switch_case -->
<g id="edge13" class="edge">
<title>switch_node&#45;&gt;handle_switch_case</title>
<path fill="none" stroke="black" d="M971.85,-165.87C921.51,-158.35 860.76,-148.62 835.5,-142 816.73,-137.08 812.91,-133.12 794.5,-127 776.34,-120.97 756.43,-114.84 738.28,-109.43"/>
<polygon fill="black" stroke="black" points="739.26,-106.07 728.68,-106.59 737.27,-112.78 739.26,-106.07"/>
<text text-anchor="middle" x="892.5" y="-130.8" font-family="Times,serif" font-size="14.00">switch_case相关</text>
</g>
<!-- handle_while_for -->
<g id="node15" class="node">
<title>handle_while_for</title>
<polygon fill="none" stroke="black" points="1713.5,-109 1603.5,-109 1603.5,-73 1713.5,-73 1713.5,-109"/>
<text text-anchor="middle" x="1658.5" y="-88.5" font-family="Courier,monospace" font-size="10.00">处理while/for循环</text>
</g>
<!-- switch_node&#45;&gt;handle_while_for -->
<g id="edge14" class="edge">
<title>switch_node&#45;&gt;handle_while_for</title>
<path fill="none" stroke="black" d="M1127.33,-173.94C1218.88,-169.59 1364.92,-160.04 1416.5,-142 1428.02,-137.97 1428.02,-131.15 1439.5,-127 1504.3,-103.56 1525.78,-121.75 1593.5,-109 1593.6,-108.98 1593.7,-108.96 1593.8,-108.94"/>
<polygon fill="black" stroke="black" points="1594.21,-112.43 1603.3,-107 1592.8,-105.58 1594.21,-112.43"/>
<text text-anchor="middle" x="1485.5" y="-130.8" font-family="Times,serif" font-size="14.00">while/for循环</text>
</g>
<!-- return_other -->
<g id="node16" class="node">
<title>return_other</title>
<polygon fill="none" stroke="black" points="1221,-109 1146,-109 1146,-73 1221,-73 1221,-109"/>
<text text-anchor="middle" x="1183.5" y="-88.5" font-family="Courier,monospace" font-size="10.00">其他返回情况</text>
</g>
<!-- switch_node&#45;&gt;return_other -->
<g id="edge15" class="edge">
<title>switch_node&#45;&gt;return_other</title>
<path fill="none" stroke="black" d="M1107.04,-159.83C1118.66,-155.02 1130.4,-149.12 1140.5,-142 1150,-135.3 1158.73,-126.05 1165.81,-117.33"/>
<polygon fill="black" stroke="black" points="1168.72,-119.28 1172.06,-109.22 1163.18,-115.01 1168.72,-119.28"/>
<text text-anchor="middle" x="1200.5" y="-130.8" font-family="Times,serif" font-size="14.00">其他返回分支</text>
</g>
<!-- end -->
<g id="node17" class="node">
<title>end</title>
<polygon fill="none" stroke="black" points="1259.5,-36 1163.5,-36 1163.5,0 1259.5,0 1259.5,-36"/>
<text text-anchor="middle" x="1211.5" y="-15.5" font-family="Courier,monospace" font-size="10.00">返回TokenIndex</text>
</g>
<!-- return_root&#45;&gt;end -->
<g id="edge25" class="edge">
<title>return_root&#45;&gt;end</title>
<path fill="none" stroke="black" d="M1256.98,-72.81C1249.61,-64.09 1240.52,-53.34 1232.41,-43.75"/>
<polygon fill="black" stroke="black" points="1235.02,-41.41 1225.89,-36.03 1229.67,-45.93 1235.02,-41.41"/>
</g>
<!-- return_main&#45;&gt;end -->
<g id="edge26" class="edge">
<title>return_main&#45;&gt;end</title>
<path fill="none" stroke="black" d="M1395.53,-72.99C1357.41,-61.81 1307.71,-47.23 1269.56,-36.04"/>
<polygon fill="black" stroke="black" points="1270.21,-32.58 1259.63,-33.12 1268.24,-39.29 1270.21,-32.58"/>
</g>
<!-- return_main_adj&#45;&gt;end -->
<g id="edge27" class="edge">
<title>return_main_adj&#45;&gt;end</title>
<path fill="none" stroke="black" d="M1048,-72.99C1079.88,-62.46 1120.89,-48.92 1153.86,-38.04"/>
<polygon fill="black" stroke="black" points="1154.97,-41.35 1163.37,-34.89 1152.78,-34.71 1154.97,-41.35"/>
</g>
<!-- update_n&#45;&gt;loop -->
<g id="edge16" class="edge">
<title>update_n&#45;&gt;loop</title>
<path fill="none" stroke="black" d="M73.93,-109.15C78.23,-132.74 89.55,-174.69 117.5,-196 160.64,-228.89 525.77,-243.82 666.5,-248.39"/>
<polygon fill="black" stroke="black" points="666.53,-251.9 676.64,-248.72 666.75,-244.9 666.53,-251.9"/>
<text text-anchor="middle" x="146.5" y="-174.3" font-family="Times,serif" font-size="14.00">继续循环</text>
</g>
<!-- handle_fn_decl&#45;&gt;loop -->
<g id="edge17" class="edge">
<title>handle_fn_decl&#45;&gt;loop</title>
<path fill="none" stroke="black" d="M800.36,-109.35C800.67,-130.99 798.66,-168.48 783.5,-196 777.03,-207.74 766.97,-218.13 756.82,-226.59"/>
<polygon fill="black" stroke="black" points="754.43,-224.01 748.72,-232.94 758.75,-229.52 754.43,-224.01"/>
<text text-anchor="middle" x="854" y="-174.3" font-family="Times,serif" font-size="14.00">回溯关键字后返回</text>
</g>
<!-- handle_usingnamespace&#45;&gt;loop -->
<g id="edge18" class="edge">
<title>handle_usingnamespace&#45;&gt;loop</title>
<path fill="none" stroke="black" d="M1919.88,-109.2C1919.37,-132.86 1914.56,-174.89 1888.5,-196 1806.73,-262.23 1757.55,-208.8 1652.5,-215 1320.13,-234.62 920.32,-245.32 776.42,-248.76"/>
<polygon fill="black" stroke="black" points="776.02,-245.26 766.11,-249 776.19,-252.26 776.02,-245.26"/>
<text text-anchor="middle" x="1985" y="-174.3" font-family="Times,serif" font-size="14.00">调整end_offset后返回</text>
</g>
<!-- handle_container_field&#45;&gt;loop -->
<g id="edge19" class="edge">
<title>handle_container_field&#45;&gt;loop</title>
<path fill="none" stroke="black" d="M233.29,-99.93C217.45,-105.09 202.23,-113.46 192.5,-127 174.6,-151.91 173.52,-173.61 194.5,-196 226.38,-230.02 538.35,-244.03 666.73,-248.38"/>
<polygon fill="black" stroke="black" points="666.64,-251.88 676.75,-248.71 666.87,-244.88 666.64,-251.88"/>
<text text-anchor="middle" x="267" y="-174.3" font-family="Times,serif" font-size="14.00">调整end_offset后返回</text>
</g>
<!-- handle_global_var&#45;&gt;loop -->
<g id="edge20" class="edge">
<title>handle_global_var&#45;&gt;loop</title>
<path fill="none" stroke="black" d="M413.92,-94.21C390.97,-97.74 363.29,-106.35 348.5,-127 329.32,-153.77 348.91,-176.57 375.5,-196 420.9,-229.17 581.35,-242.6 666.87,-247.5"/>
<polygon fill="black" stroke="black" points="666.74,-251 676.92,-248.05 667.13,-244.01 666.74,-251"/>
<text text-anchor="middle" x="433" y="-174.3" font-family="Times,serif" font-size="14.00">回溯关键字后返回</text>
</g>
<!-- handle_block&#45;&gt;loop -->
<g id="edge21" class="edge">
<title>handle_block&#45;&gt;loop</title>
<path fill="none" stroke="black" d="M1791.79,-109.16C1795.38,-119.05 1797.88,-131.55 1793.5,-142 1780.25,-173.59 1769.85,-182.2 1738.5,-196 1650.31,-234.82 974.99,-246.68 776.31,-249.35"/>
<polygon fill="black" stroke="black" points="776.06,-245.85 766.11,-249.48 776.16,-252.85 776.06,-245.85"/>
<text text-anchor="middle" x="1834.5" y="-174.3" font-family="Times,serif" font-size="14.00">处理标签后返回</text>
</g>
<!-- handle_container_decl&#45;&gt;loop -->
<g id="edge22" class="edge">
<title>handle_container_decl&#45;&gt;loop</title>
<path fill="none" stroke="black" d="M524.79,-106.09C515.94,-111.27 507.61,-118.11 502.5,-127 487,-153.99 492.9,-173.59 514.5,-196 535.39,-217.66 612.78,-233.54 666.77,-242.27"/>
<polygon fill="black" stroke="black" points="666.47,-245.77 676.9,-243.87 667.56,-238.86 666.47,-245.77"/>
<text text-anchor="middle" x="572" y="-174.3" font-family="Times,serif" font-size="14.00">处理修饰符后返回</text>
</g>
<!-- handle_switch_case&#45;&gt;loop -->
<g id="edge23" class="edge">
<title>handle_switch_case&#45;&gt;loop</title>
<path fill="none" stroke="black" d="M652.15,-109.09C646.63,-114.15 641.54,-120.19 638.5,-127 625.78,-155.5 634.53,-169.81 651.5,-196 659.36,-208.13 670.9,-218.64 682.36,-227.08"/>
<polygon fill="black" stroke="black" points="680.43,-230 690.64,-232.86 684.44,-224.26 680.43,-230"/>
<text text-anchor="middle" x="717.5" y="-174.3" font-family="Times,serif" font-size="14.00">处理case后可能返回</text>
</g>
<!-- handle_while_for&#45;&gt;loop -->
<g id="edge24" class="edge">
<title>handle_while_for&#45;&gt;loop</title>
<path fill="none" stroke="black" d="M1650.38,-109.3C1644.13,-120.57 1634.38,-134.51 1621.5,-142 1476.42,-226.34 948.45,-245.11 776.23,-249.03"/>
<polygon fill="black" stroke="black" points="776.05,-245.53 766.13,-249.25 776.2,-252.53 776.05,-245.53"/>
<text text-anchor="middle" x="1657.5" y="-174.3" font-family="Times,serif" font-size="14.00">处理inline和标签后返回</text>
</g>
<!-- return_other&#45;&gt;end -->
<g id="edge28" class="edge">
<title>return_other&#45;&gt;end</title>
<path fill="none" stroke="black" d="M1190.28,-72.81C1193.51,-64.62 1197.45,-54.62 1201.06,-45.48"/>
<polygon fill="black" stroke="black" points="1204.37,-46.62 1204.78,-36.03 1197.86,-44.05 1204.37,-46.62"/>
</g>
</g>
</svg>
