<?xml version="1.0" encoding="UTF-8" standalone="no"?>
<!DOCTYPE svg PUBLIC "-//W3C//DTD SVG 1.1//EN"
 "http://www.w3.org/Graphics/SVG/1.1/DTD/svg11.dtd">
<!-- Generated by graphviz version 2.43.0 (0)
 -->
<!-- Title: flowchart Pages: 1 -->
<svg width="934pt" height="1247pt"
 viewBox="0.00 0.00 934.00 1247.00" xmlns="http://www.w3.org/2000/svg" xmlns:xlink="http://www.w3.org/1999/xlink">
<g id="graph0" class="graph" transform="scale(1 1) rotate(0) translate(4 1243)">
<title>flowchart</title>
<polygon fill="white" stroke="transparent" points="-4,4 -4,-1243 930,-1243 930,4 -4,4"/>
<!-- start -->
<g id="node1" class="node">
<title>start</title>
<ellipse fill="none" stroke="black" cx="122.5" cy="-1221" rx="48.72" ry="18"/>
<text text-anchor="middle" x="122.5" y="-1218.5" font-family="Courier,monospace" font-size="10.00">Start ret()</text>
</g>
<!-- check_fn_block -->
<g id="node2" class="node">
<title>check_fn_block</title>
<polygon fill="none" stroke="black" points="203,-1166 42,-1166 42,-1130 203,-1130 203,-1166"/>
<text text-anchor="middle" x="122.5" y="-1145.5" font-family="Courier,monospace" font-size="10.00">astgen.fn_block == null?</text>
</g>
<!-- start&#45;&gt;check_fn_block -->
<g id="edge1" class="edge">
<title>start&#45;&gt;check_fn_block</title>
<path fill="none" stroke="black" d="M122.5,-1202.81C122.5,-1194.79 122.5,-1185.05 122.5,-1176.07"/>
<polygon fill="black" stroke="black" points="126,-1176.03 122.5,-1166.03 119,-1176.03 126,-1176.03"/>
</g>
<!-- error_outside_func -->
<g id="node3" class="node">
<title>error_outside_func</title>
<polygon fill="none" stroke="black" points="203,-1083 0,-1083 0,-1047 203,-1047 203,-1083"/>
<text text-anchor="middle" x="101.5" y="-1068" font-family="Courier,monospace" font-size="10.00">Return error:</text>
<text text-anchor="middle" x="101.5" y="-1057" font-family="Courier,monospace" font-size="10.00">&#39;return&#39; outside function scope</text>
</g>
<!-- check_fn_block&#45;&gt;error_outside_func -->
<g id="edge2" class="edge">
<title>check_fn_block&#45;&gt;error_outside_func</title>
<path fill="none" stroke="black" d="M118.05,-1129.82C115.26,-1119.08 111.62,-1105.03 108.46,-1092.84"/>
<polygon fill="black" stroke="black" points="111.84,-1091.95 105.95,-1083.15 105.07,-1093.71 111.84,-1091.95"/>
<text text-anchor="middle" x="123" y="-1104" font-family="Courier,monospace" font-size="10.00">Yes</text>
</g>
<!-- check_any_defer -->
<g id="node4" class="node">
<title>check_any_defer</title>
<polygon fill="none" stroke="black" points="388,-1083 221,-1083 221,-1047 388,-1047 388,-1083"/>
<text text-anchor="middle" x="304.5" y="-1062.5" font-family="Courier,monospace" font-size="10.00">gz.any_defer_node exists?</text>
</g>
<!-- check_fn_block&#45;&gt;check_any_defer -->
<g id="edge3" class="edge">
<title>check_fn_block&#45;&gt;check_any_defer</title>
<path fill="none" stroke="black" d="M161.1,-1129.82C189.06,-1117.38 227.04,-1100.47 256.89,-1087.19"/>
<polygon fill="black" stroke="black" points="258.56,-1090.28 266.27,-1083.01 255.71,-1083.88 258.56,-1090.28"/>
<text text-anchor="middle" x="231" y="-1104" font-family="Courier,monospace" font-size="10.00">No</text>
</g>
<!-- error_defer_return -->
<g id="node5" class="node">
<title>error_defer_return</title>
<polygon fill="none" stroke="black" points="332,-1000 171,-1000 171,-964 332,-964 332,-1000"/>
<text text-anchor="middle" x="251.5" y="-985" font-family="Courier,monospace" font-size="10.00">Return error:</text>
<text text-anchor="middle" x="251.5" y="-974" font-family="Courier,monospace" font-size="10.00">cannot return from defer</text>
</g>
<!-- check_any_defer&#45;&gt;error_defer_return -->
<g id="edge4" class="edge">
<title>check_any_defer&#45;&gt;error_defer_return</title>
<path fill="none" stroke="black" d="M293.26,-1046.82C286.02,-1035.76 276.48,-1021.18 268.35,-1008.75"/>
<polygon fill="black" stroke="black" points="271.13,-1006.6 262.72,-1000.15 265.27,-1010.44 271.13,-1006.6"/>
<text text-anchor="middle" x="291" y="-1021" font-family="Courier,monospace" font-size="10.00">Yes</text>
</g>
<!-- emit_debug_info -->
<g id="node6" class="node">
<title>emit_debug_info</title>
<polygon fill="none" stroke="black" points="499,-1000 350,-1000 350,-964 499,-964 499,-1000"/>
<text text-anchor="middle" x="424.5" y="-979.5" font-family="Courier,monospace" font-size="10.00">Emit debug line/column</text>
</g>
<!-- check_any_defer&#45;&gt;emit_debug_info -->
<g id="edge5" class="edge">
<title>check_any_defer&#45;&gt;emit_debug_info</title>
<path fill="none" stroke="black" d="M329.95,-1046.82C347.61,-1034.9 371.33,-1018.89 390.59,-1005.89"/>
<polygon fill="black" stroke="black" points="392.76,-1008.65 399.09,-1000.15 388.84,-1002.85 392.76,-1008.65"/>
<text text-anchor="middle" x="379" y="-1021" font-family="Courier,monospace" font-size="10.00">No</text>
</g>
<!-- save_ret_lc -->
<g id="node7" class="node">
<title>save_ret_lc</title>
<polygon fill="none" stroke="black" points="508,-927 341,-927 341,-891 508,-891 508,-927"/>
<text text-anchor="middle" x="424.5" y="-906.5" font-family="Courier,monospace" font-size="10.00">Save ret_lc (line/column)</text>
</g>
<!-- emit_debug_info&#45;&gt;save_ret_lc -->
<g id="edge6" class="edge">
<title>emit_debug_info&#45;&gt;save_ret_lc</title>
<path fill="none" stroke="black" d="M424.5,-963.81C424.5,-955.79 424.5,-946.05 424.5,-937.07"/>
<polygon fill="black" stroke="black" points="428,-937.03 424.5,-927.03 421,-937.03 428,-937.03"/>
</g>
<!-- check_operand_node -->
<g id="node8" class="node">
<title>check_operand_node</title>
<polygon fill="none" stroke="black" points="493,-854 356,-854 356,-818 493,-818 493,-854"/>
<text text-anchor="middle" x="424.5" y="-833.5" font-family="Courier,monospace" font-size="10.00">operand_node exists?</text>
</g>
<!-- save_ret_lc&#45;&gt;check_operand_node -->
<g id="edge7" class="edge">
<title>save_ret_lc&#45;&gt;check_operand_node</title>
<path fill="none" stroke="black" d="M424.5,-890.81C424.5,-882.79 424.5,-873.05 424.5,-864.07"/>
<polygon fill="black" stroke="black" points="428,-864.03 424.5,-854.03 421,-864.03 428,-864.03"/>
</g>
<!-- handle_void_return -->
<g id="node9" class="node">
<title>handle_void_return</title>
<polygon fill="none" stroke="black" points="481,-717 332,-717 332,-665 481,-665 481,-717"/>
<text text-anchor="middle" x="406.5" y="-705" font-family="Courier,monospace" font-size="10.00">Generate void return:</text>
<text text-anchor="middle" x="406.5" y="-694" font-family="Courier,monospace" font-size="10.00">genDefers(normal_only)</text>
<text text-anchor="middle" x="406.5" y="-683" font-family="Courier,monospace" font-size="10.00">addRestoreErrRetIndex</text>
<text text-anchor="middle" x="406.5" y="-672" font-family="Courier,monospace" font-size="10.00">addUnNode(.ret_node)</text>
</g>
<!-- check_operand_node&#45;&gt;handle_void_return -->
<g id="edge8" class="edge">
<title>check_operand_node&#45;&gt;handle_void_return</title>
<path fill="none" stroke="black" d="M422.33,-817.75C419.52,-795.46 414.57,-756.09 410.95,-727.32"/>
<polygon fill="black" stroke="black" points="414.4,-726.74 409.68,-717.26 407.46,-727.62 414.4,-726.74"/>
<text text-anchor="middle" x="427" y="-792" font-family="Courier,monospace" font-size="10.00">No</text>
</g>
<!-- check_error_value -->
<g id="node10" class="node">
<title>check_error_value</title>
<polygon fill="none" stroke="black" points="626,-771 435,-771 435,-735 626,-735 626,-771"/>
<text text-anchor="middle" x="530.5" y="-750.5" font-family="Courier,monospace" font-size="10.00">operand_node is .error_value?</text>
</g>
<!-- check_operand_node&#45;&gt;check_error_value -->
<g id="edge9" class="edge">
<title>check_operand_node&#45;&gt;check_error_value</title>
<path fill="none" stroke="black" d="M446.98,-817.82C462.44,-806.01 483.15,-790.18 500.08,-777.24"/>
<polygon fill="black" stroke="black" points="502.23,-780.01 508.05,-771.15 497.98,-774.44 502.23,-780.01"/>
<text text-anchor="middle" x="494" y="-792" font-family="Courier,monospace" font-size="10.00">Yes</text>
</g>
<!-- end -->
<g id="node21" class="node">
<title>end</title>
<ellipse fill="none" stroke="black" cx="535.5" cy="-18" rx="94.55" ry="18"/>
<text text-anchor="middle" x="535.5" y="-15.5" font-family="Courier,monospace" font-size="10.00">Return unreachable_value</text>
</g>
<!-- handle_void_return&#45;&gt;end -->
<g id="edge10" class="edge">
<title>handle_void_return&#45;&gt;end</title>
<path fill="none" stroke="black" d="M406.5,-664.77C406.5,-640.09 406.5,-601.47 406.5,-568 406.5,-568 406.5,-568 406.5,-90 406.5,-61.41 431.13,-44.24 458.86,-33.98"/>
<polygon fill="black" stroke="black" points="460.01,-37.29 468.36,-30.76 457.76,-30.66 460.01,-37.29"/>
</g>
<!-- handle_error_return -->
<g id="node11" class="node">
<title>handle_error_return</title>
<polygon fill="none" stroke="black" points="613,-593 422,-593 422,-541 613,-541 613,-593"/>
<text text-anchor="middle" x="517.5" y="-581" font-family="Courier,monospace" font-size="10.00">Handle error return:</text>
<text text-anchor="middle" x="517.5" y="-570" font-family="Courier,monospace" font-size="10.00">genDefers(both_sans_err/both)</text>
<text text-anchor="middle" x="517.5" y="-559" font-family="Courier,monospace" font-size="10.00">emitDbgStmt</text>
<text text-anchor="middle" x="517.5" y="-548" font-family="Courier,monospace" font-size="10.00">addStrTok/ret_err_value</text>
</g>
<!-- check_error_value&#45;&gt;handle_error_return -->
<g id="edge11" class="edge">
<title>check_error_value&#45;&gt;handle_error_return</title>
<path fill="none" stroke="black" d="M529.28,-734.69C527.16,-704.78 522.79,-642.85 520.01,-603.48"/>
<polygon fill="black" stroke="black" points="523.48,-602.98 519.28,-593.26 516.5,-603.48 523.48,-602.98"/>
<text text-anchor="middle" x="538" y="-688.5" font-family="Courier,monospace" font-size="10.00">Yes</text>
</g>
<!-- setup_ri -->
<g id="node12" class="node">
<title>setup_ri</title>
<polygon fill="none" stroke="black" points="689,-647 558,-647 558,-611 689,-611 689,-647"/>
<text text-anchor="middle" x="623.5" y="-632" font-family="Courier,monospace" font-size="10.00">Setup ResultInfo</text>
<text text-anchor="middle" x="623.5" y="-621" font-family="Courier,monospace" font-size="10.00">(ptr or coerced_ty)</text>
</g>
<!-- check_error_value&#45;&gt;setup_ri -->
<g id="edge12" class="edge">
<title>check_error_value&#45;&gt;setup_ri</title>
<path fill="none" stroke="black" d="M543.63,-734.78C559.41,-714.07 586.04,-679.13 604.18,-655.35"/>
<polygon fill="black" stroke="black" points="607.16,-657.21 610.44,-647.13 601.59,-652.96 607.16,-657.21"/>
<text text-anchor="middle" x="603" y="-688.5" font-family="Courier,monospace" font-size="10.00">No</text>
</g>
<!-- handle_error_return&#45;&gt;end -->
<g id="edge13" class="edge">
<title>handle_error_return&#45;&gt;end</title>
<path fill="none" stroke="black" d="M485.32,-540.75C466.54,-522.98 446.5,-497.38 446.5,-469 446.5,-469 446.5,-469 446.5,-90 446.5,-67.1 464.73,-50.39 484.69,-38.95"/>
<polygon fill="black" stroke="black" points="486.41,-41.99 493.61,-34.21 483.13,-35.81 486.41,-41.99"/>
</g>
<!-- eval_operand -->
<g id="node13" class="node">
<title>eval_operand</title>
<polygon fill="none" stroke="black" points="685,-523 572,-523 572,-487 685,-487 685,-523"/>
<text text-anchor="middle" x="628.5" y="-508" font-family="Courier,monospace" font-size="10.00">Evaluate operand</text>
<text text-anchor="middle" x="628.5" y="-497" font-family="Courier,monospace" font-size="10.00">reachableExpr()</text>
</g>
<!-- setup_ri&#45;&gt;eval_operand -->
<g id="edge14" class="edge">
<title>setup_ri&#45;&gt;eval_operand</title>
<path fill="none" stroke="black" d="M624.21,-610.78C625.03,-590.62 626.41,-556.96 627.38,-533.25"/>
<polygon fill="black" stroke="black" points="630.89,-533.27 627.8,-523.13 623.89,-532.98 630.89,-533.27"/>
</g>
<!-- check_error_behavior -->
<g id="node14" class="node">
<title>check_error_behavior</title>
<polygon fill="none" stroke="black" points="628.5,-450 474.48,-432 628.5,-414 782.52,-432 628.5,-450"/>
<text text-anchor="middle" x="628.5" y="-429.5" font-family="Courier,monospace" font-size="10.00">nodeMayEvalToError() result?</text>
</g>
<!-- eval_operand&#45;&gt;check_error_behavior -->
<g id="edge15" class="edge">
<title>eval_operand&#45;&gt;check_error_behavior</title>
<path fill="none" stroke="black" d="M628.5,-486.81C628.5,-478.79 628.5,-469.05 628.5,-460.07"/>
<polygon fill="black" stroke="black" points="632,-460.03 628.5,-450.03 625,-460.03 632,-460.03"/>
</g>
<!-- handle_never_error -->
<g id="node15" class="node">
<title>handle_never_error</title>
<polygon fill="none" stroke="black" points="610,-308 461,-308 461,-256 610,-256 610,-308"/>
<text text-anchor="middle" x="535.5" y="-296" font-family="Courier,monospace" font-size="10.00">Never error:</text>
<text text-anchor="middle" x="535.5" y="-285" font-family="Courier,monospace" font-size="10.00">genDefers(normal_only)</text>
<text text-anchor="middle" x="535.5" y="-274" font-family="Courier,monospace" font-size="10.00">addRestoreErrRetIndex</text>
<text text-anchor="middle" x="535.5" y="-263" font-family="Courier,monospace" font-size="10.00">addRet</text>
</g>
<!-- check_error_behavior&#45;&gt;handle_never_error -->
<g id="edge16" class="edge">
<title>check_error_behavior&#45;&gt;handle_never_error</title>
<path fill="none" stroke="black" d="M599.04,-417.27C589.8,-411.76 580.27,-404.64 573.5,-396 555.83,-373.43 546.16,-342.2 541,-318.3"/>
<polygon fill="black" stroke="black" points="544.38,-317.34 538.99,-308.22 537.51,-318.71 544.38,-317.34"/>
<text text-anchor="middle" x="592" y="-388" font-family="Courier,monospace" font-size="10.00">.never</text>
</g>
<!-- handle_always_error -->
<g id="node16" class="node">
<title>handle_always_error</title>
<polygon fill="none" stroke="black" points="668,-168 561,-168 561,-127 668,-127 668,-168"/>
<text text-anchor="middle" x="614.5" y="-156" font-family="Courier,monospace" font-size="10.00">Always error:</text>
<text text-anchor="middle" x="614.5" y="-145" font-family="Courier,monospace" font-size="10.00">genDefers(both)</text>
<text text-anchor="middle" x="614.5" y="-134" font-family="Courier,monospace" font-size="10.00">addRet</text>
</g>
<!-- check_error_behavior&#45;&gt;handle_always_error -->
<g id="edge17" class="edge">
<title>check_error_behavior&#45;&gt;handle_always_error</title>
<path fill="none" stroke="black" d="M627.65,-413.75C625.33,-366.95 618.89,-237.13 615.97,-178.24"/>
<polygon fill="black" stroke="black" points="619.46,-177.92 615.47,-168.1 612.47,-178.26 619.46,-177.92"/>
<text text-anchor="middle" x="647" y="-344" font-family="Courier,monospace" font-size="10.00">.always</text>
</g>
<!-- handle_maybe_error -->
<g id="node17" class="node">
<title>handle_maybe_error</title>
<polygon fill="none" stroke="black" points="811,-367 686,-367 686,-326 811,-326 811,-367"/>
<text text-anchor="middle" x="748.5" y="-355" font-family="Courier,monospace" font-size="10.00">Maybe error:</text>
<text text-anchor="middle" x="748.5" y="-344" font-family="Courier,monospace" font-size="10.00">Check defer_counts</text>
<text text-anchor="middle" x="748.5" y="-333" font-family="Courier,monospace" font-size="10.00">Create condbr</text>
</g>
<!-- check_error_behavior&#45;&gt;handle_maybe_error -->
<g id="edge18" class="edge">
<title>check_error_behavior&#45;&gt;handle_maybe_error</title>
<path fill="none" stroke="black" d="M649.68,-416.26C666.87,-404.3 691.51,-387.15 711.89,-372.98"/>
<polygon fill="black" stroke="black" points="714.12,-375.69 720.33,-367.11 710.12,-369.94 714.12,-375.69"/>
<text text-anchor="middle" x="711" y="-388" font-family="Courier,monospace" font-size="10.00">.maybe</text>
</g>
<!-- handle_never_error&#45;&gt;end -->
<g id="edge19" class="edge">
<title>handle_never_error&#45;&gt;end</title>
<path fill="none" stroke="black" d="M535.5,-255.88C535.5,-206.6 535.5,-97.61 535.5,-46.48"/>
<polygon fill="black" stroke="black" points="539,-46.21 535.5,-36.21 532,-46.21 539,-46.21"/>
</g>
<!-- handle_always_error&#45;&gt;end -->
<g id="edge20" class="edge">
<title>handle_always_error&#45;&gt;end</title>
<path fill="none" stroke="black" d="M602.33,-126.86C588.67,-104.81 566.45,-68.95 551.42,-44.69"/>
<polygon fill="black" stroke="black" points="554.28,-42.67 546.04,-36.01 548.33,-46.36 554.28,-42.67"/>
</g>
<!-- condbr_then -->
<g id="node18" class="node">
<title>condbr_then</title>
<polygon fill="none" stroke="black" points="801,-238 652,-238 652,-186 801,-186 801,-238"/>
<text text-anchor="middle" x="726.5" y="-226" font-family="Courier,monospace" font-size="10.00">then_scope:</text>
<text text-anchor="middle" x="726.5" y="-215" font-family="Courier,monospace" font-size="10.00">genDefers(normal_only)</text>
<text text-anchor="middle" x="726.5" y="-204" font-family="Courier,monospace" font-size="10.00">addRestoreErrRetIndex</text>
<text text-anchor="middle" x="726.5" y="-193" font-family="Courier,monospace" font-size="10.00">addRet</text>
</g>
<!-- handle_maybe_error&#45;&gt;condbr_then -->
<g id="edge21" class="edge">
<title>handle_maybe_error&#45;&gt;condbr_then</title>
<path fill="none" stroke="black" d="M745.25,-325.95C741.87,-305.54 736.48,-273.1 732.35,-248.22"/>
<polygon fill="black" stroke="black" points="735.75,-247.36 730.66,-238.07 728.85,-248.51 735.75,-247.36"/>
</g>
<!-- condbr_else -->
<g id="node19" class="node">
<title>condbr_else</title>
<polygon fill="none" stroke="black" points="926,-232.5 819,-232.5 819,-191.5 926,-191.5 926,-232.5"/>
<text text-anchor="middle" x="872.5" y="-220.5" font-family="Courier,monospace" font-size="10.00">else_scope:</text>
<text text-anchor="middle" x="872.5" y="-209.5" font-family="Courier,monospace" font-size="10.00">genDefers(both)</text>
<text text-anchor="middle" x="872.5" y="-198.5" font-family="Courier,monospace" font-size="10.00">addRet</text>
</g>
<!-- handle_maybe_error&#45;&gt;condbr_else -->
<g id="edge22" class="edge">
<title>handle_maybe_error&#45;&gt;condbr_else</title>
<path fill="none" stroke="black" d="M766.8,-325.95C788.04,-303.25 823.22,-265.66 847.11,-240.13"/>
<polygon fill="black" stroke="black" points="849.85,-242.32 854.13,-232.63 844.74,-237.54 849.85,-242.32"/>
</g>
<!-- merge_condbr -->
<g id="node20" class="node">
<title>merge_condbr</title>
<polygon fill="none" stroke="black" points="789,-109 664,-109 664,-73 789,-73 789,-109"/>
<text text-anchor="middle" x="726.5" y="-88.5" font-family="Courier,monospace" font-size="10.00">Merge condbr paths</text>
</g>
<!-- condbr_then&#45;&gt;merge_condbr -->
<g id="edge23" class="edge">
<title>condbr_then&#45;&gt;merge_condbr</title>
<path fill="none" stroke="black" d="M726.5,-185.76C726.5,-166.22 726.5,-139.18 726.5,-119.17"/>
<polygon fill="black" stroke="black" points="730,-119.14 726.5,-109.14 723,-119.14 730,-119.14"/>
</g>
<!-- condbr_else&#45;&gt;merge_condbr -->
<g id="edge24" class="edge">
<title>condbr_else&#45;&gt;merge_condbr</title>
<path fill="none" stroke="black" d="M848.39,-191.35C822.99,-170.65 782.99,-138.04 755.79,-115.87"/>
<polygon fill="black" stroke="black" points="757.76,-112.96 747.79,-109.36 753.33,-118.39 757.76,-112.96"/>
</g>
<!-- merge_condbr&#45;&gt;end -->
<g id="edge25" class="edge">
<title>merge_condbr&#45;&gt;end</title>
<path fill="none" stroke="black" d="M680.75,-72.99C652.29,-62.42 615.66,-48.8 586.3,-37.88"/>
<polygon fill="black" stroke="black" points="587.24,-34.5 576.65,-34.3 584.8,-41.06 587.24,-34.5"/>
</g>
</g>
</svg>
