<?xml version="1.0" encoding="UTF-8" standalone="no"?>
<!DOCTYPE svg PUBLIC "-//W3C//DTD SVG 1.1//EN"
 "http://www.w3.org/Graphics/SVG/1.1/DTD/svg11.dtd">
<!-- Generated by graphviz version 2.43.0 (0)
 -->
<!-- Title: renderExpression Pages: 1 -->
<svg width="1902pt" height="753pt"
 viewBox="0.00 0.00 1902.00 753.00" xmlns="http://www.w3.org/2000/svg" xmlns:xlink="http://www.w3.org/1999/xlink">
<g id="graph0" class="graph" transform="scale(1 1) rotate(0) translate(4 749)">
<title>renderExpression</title>
<polygon fill="white" stroke="transparent" points="-4,4 -4,-749 1898,-749 1898,4 -4,4"/>
<g id="clust1" class="cluster">
<title>cluster_note</title>
<polygon fill="none" stroke="black" stroke-dasharray="5,2" points="1616,-660 1616,-737 1886,-737 1886,-660 1616,-660"/>
<text text-anchor="middle" x="1751" y="-721.8" font-family="Times,serif" font-size="14.00">注：实际包含 60+ 分支</text>
</g>
<!-- start -->
<g id="node1" class="node">
<title>start</title>
<path fill="none" stroke="black" d="M1594,-705C1594,-705 1442,-705 1442,-705 1436,-705 1430,-699 1430,-693 1430,-693 1430,-681 1430,-681 1430,-675 1436,-669 1442,-669 1442,-669 1594,-669 1594,-669 1600,-669 1606,-675 1606,-681 1606,-681 1606,-693 1606,-693 1606,-699 1600,-705 1594,-705"/>
<text text-anchor="middle" x="1518" y="-683.3" font-family="Times,serif" font-size="14.00">开始 renderExpression</text>
</g>
<!-- check_replace_string -->
<g id="node2" class="node">
<title>check_replace_string</title>
<path fill="none" stroke="black" d="M1625,-631C1625,-631 1411,-631 1411,-631 1405,-631 1399,-625 1399,-619 1399,-619 1399,-607 1399,-607 1399,-601 1405,-595 1411,-595 1411,-595 1625,-595 1625,-595 1631,-595 1637,-601 1637,-607 1637,-607 1637,-619 1637,-619 1637,-625 1631,-631 1625,-631"/>
<text text-anchor="middle" x="1518" y="-609.3" font-family="Times,serif" font-size="14.00">检查 replace_nodes_with_string</text>
</g>
<!-- start&#45;&gt;check_replace_string -->
<g id="edge1" class="edge">
<title>start&#45;&gt;check_replace_string</title>
<path fill="none" stroke="black" d="M1518,-668.94C1518,-660.81 1518,-650.88 1518,-641.7"/>
<polygon fill="black" stroke="black" points="1521.5,-641.44 1518,-631.44 1514.5,-641.44 1521.5,-641.44"/>
</g>
<!-- check_replace_node -->
<g id="node3" class="node">
<title>check_replace_node</title>
<path fill="none" stroke="black" d="M1518,-544C1518,-544 1312,-544 1312,-544 1306,-544 1300,-538 1300,-532 1300,-532 1300,-520 1300,-520 1300,-514 1306,-508 1312,-508 1312,-508 1518,-508 1518,-508 1524,-508 1530,-514 1530,-520 1530,-520 1530,-532 1530,-532 1530,-538 1524,-544 1518,-544"/>
<text text-anchor="middle" x="1415" y="-522.3" font-family="Times,serif" font-size="14.00">检查 replace_nodes_with_node</text>
</g>
<!-- check_replace_string&#45;&gt;check_replace_node -->
<g id="edge2" class="edge">
<title>check_replace_string&#45;&gt;check_replace_node</title>
<path fill="none" stroke="black" d="M1497.16,-594.8C1481.8,-582.13 1460.72,-564.73 1443.76,-550.74"/>
<polygon fill="black" stroke="black" points="1445.75,-547.84 1435.81,-544.18 1441.3,-553.24 1445.75,-547.84"/>
<text text-anchor="middle" x="1509" y="-565.8" font-family="Times,serif" font-size="14.00">未找到替换</text>
</g>
<!-- write_replacement -->
<g id="node6" class="node">
<title>write_replacement</title>
<path fill="none" stroke="black" d="M1686,-544C1686,-544 1560,-544 1560,-544 1554,-544 1548,-538 1548,-532 1548,-532 1548,-520 1548,-520 1548,-514 1554,-508 1560,-508 1560,-508 1686,-508 1686,-508 1692,-508 1698,-514 1698,-520 1698,-520 1698,-532 1698,-532 1698,-538 1692,-544 1686,-544"/>
<text text-anchor="middle" x="1623" y="-522.3" font-family="Times,serif" font-size="14.00">write_replacement</text>
</g>
<!-- check_replace_string&#45;&gt;write_replacement -->
<g id="edge3" class="edge">
<title>check_replace_string&#45;&gt;write_replacement</title>
<path fill="none" stroke="black" d="M1539.25,-594.8C1554.9,-582.13 1576.39,-564.73 1593.68,-550.74"/>
<polygon fill="black" stroke="black" points="1596.21,-553.19 1601.78,-544.18 1591.81,-547.75 1596.21,-553.19"/>
<text text-anchor="middle" x="1627" y="-565.8" font-family="Times,serif" font-size="14.00">找到字符串替换</text>
</g>
<!-- switch_node_tag -->
<g id="node4" class="node">
<title>switch_node_tag</title>
<path fill="none" stroke="black" d="M849,-457C849,-457 731,-457 731,-457 725,-457 719,-451 719,-445 719,-445 719,-433 719,-433 719,-427 725,-421 731,-421 731,-421 849,-421 849,-421 855,-421 861,-427 861,-433 861,-433 861,-445 861,-445 861,-451 855,-457 849,-457"/>
<text text-anchor="middle" x="790" y="-435.3" font-family="Times,serif" font-size="14.00">根据 nodeTag 分支</text>
</g>
<!-- check_replace_node&#45;&gt;switch_node_tag -->
<g id="edge6" class="edge">
<title>check_replace_node&#45;&gt;switch_node_tag</title>
<path fill="none" stroke="black" d="M1299.64,-509.31C1175.31,-492.4 980.61,-465.92 871.37,-451.07"/>
<polygon fill="black" stroke="black" points="871.77,-447.59 861.39,-449.71 870.83,-454.52 871.77,-447.59"/>
<text text-anchor="middle" x="1176" y="-478.8" font-family="Times,serif" font-size="14.00">未找到替换</text>
</g>
<!-- recursive_call -->
<g id="node8" class="node">
<title>recursive_call</title>
<path fill="none" stroke="black" d="M1463.5,-457C1463.5,-457 1372.5,-457 1372.5,-457 1366.5,-457 1360.5,-451 1360.5,-445 1360.5,-445 1360.5,-433 1360.5,-433 1360.5,-427 1366.5,-421 1372.5,-421 1372.5,-421 1463.5,-421 1463.5,-421 1469.5,-421 1475.5,-427 1475.5,-433 1475.5,-433 1475.5,-445 1475.5,-445 1475.5,-451 1469.5,-457 1463.5,-457"/>
<text text-anchor="middle" x="1418" y="-435.3" font-family="Times,serif" font-size="14.00">recursive_call</text>
</g>
<!-- check_replace_node&#45;&gt;recursive_call -->
<g id="edge7" class="edge">
<title>check_replace_node&#45;&gt;recursive_call</title>
<path fill="none" stroke="black" d="M1415.61,-507.8C1416.02,-496.16 1416.57,-480.55 1417.04,-467.24"/>
<polygon fill="black" stroke="black" points="1420.54,-467.29 1417.39,-457.18 1413.54,-467.05 1420.54,-467.29"/>
<text text-anchor="middle" x="1460" y="-478.8" font-family="Times,serif" font-size="14.00">找到节点替换</text>
</g>
<!-- identifier -->
<g id="node9" class="node">
<title>identifier</title>
<path fill="none" stroke="black" d="M70,-370C70,-370 12,-370 12,-370 6,-370 0,-364 0,-358 0,-358 0,-346 0,-346 0,-340 6,-334 12,-334 12,-334 70,-334 70,-334 76,-334 82,-340 82,-346 82,-346 82,-358 82,-358 82,-364 76,-370 70,-370"/>
<text text-anchor="middle" x="41" y="-348.3" font-family="Times,serif" font-size="14.00">identifier</text>
</g>
<!-- switch_node_tag&#45;&gt;identifier -->
<g id="edge9" class="edge">
<title>switch_node_tag&#45;&gt;identifier</title>
<path fill="none" stroke="black" d="M718.82,-437.69C550.69,-436.49 138.86,-430.73 83,-403 72.12,-397.6 62.98,-387.95 56.04,-378.57"/>
<polygon fill="black" stroke="black" points="58.83,-376.44 50.3,-370.15 53.04,-380.38 58.83,-376.44"/>
<text text-anchor="middle" x="118" y="-391.8" font-family="Times,serif" font-size="14.00">.identifier</text>
</g>
<!-- literals -->
<g id="node10" class="node">
<title>literals</title>
<path fill="none" stroke="black" d="M162.5,-370C162.5,-370 119.5,-370 119.5,-370 113.5,-370 107.5,-364 107.5,-358 107.5,-358 107.5,-346 107.5,-346 107.5,-340 113.5,-334 119.5,-334 119.5,-334 162.5,-334 162.5,-334 168.5,-334 174.5,-340 174.5,-346 174.5,-346 174.5,-358 174.5,-358 174.5,-364 168.5,-370 162.5,-370"/>
<text text-anchor="middle" x="141" y="-348.3" font-family="Times,serif" font-size="14.00">literals</text>
</g>
<!-- switch_node_tag&#45;&gt;literals -->
<g id="edge10" class="edge">
<title>switch_node_tag&#45;&gt;literals</title>
<path fill="none" stroke="black" d="M719,-437.69C566.33,-436.49 216.89,-430.72 171,-403 162.13,-397.64 155.55,-388.56 150.85,-379.61"/>
<polygon fill="black" stroke="black" points="154,-378.08 146.62,-370.47 147.65,-381.02 154,-378.08"/>
<text text-anchor="middle" x="254" y="-391.8" font-family="Times,serif" font-size="14.00">数字/字符/字符串等字面量</text>
</g>
<!-- multiline_string -->
<g id="node11" class="node">
<title>multiline_string</title>
<path fill="none" stroke="black" d="M377,-370C377,-370 271,-370 271,-370 265,-370 259,-364 259,-358 259,-358 259,-346 259,-346 259,-340 265,-334 271,-334 271,-334 377,-334 377,-334 383,-334 389,-340 389,-346 389,-346 389,-358 389,-358 389,-364 383,-370 377,-370"/>
<text text-anchor="middle" x="324" y="-348.3" font-family="Times,serif" font-size="14.00">multiline_string</text>
</g>
<!-- switch_node_tag&#45;&gt;multiline_string -->
<g id="edge11" class="edge">
<title>switch_node_tag&#45;&gt;multiline_string</title>
<path fill="none" stroke="black" d="M718.55,-435.69C603.32,-431.46 386.25,-421.17 356,-403 346.95,-397.56 340.02,-388.47 334.96,-379.52"/>
<polygon fill="black" stroke="black" points="337.99,-377.76 330.36,-370.41 331.74,-380.91 337.99,-377.76"/>
<text text-anchor="middle" x="440" y="-391.8" font-family="Times,serif" font-size="14.00">.multiline_string_literal</text>
</g>
<!-- error_value -->
<g id="node12" class="node">
<title>error_value</title>
<path fill="none" stroke="black" d="M551,-370C551,-370 477,-370 477,-370 471,-370 465,-364 465,-358 465,-358 465,-346 465,-346 465,-340 471,-334 477,-334 477,-334 551,-334 551,-334 557,-334 563,-340 563,-346 563,-346 563,-358 563,-358 563,-364 557,-370 551,-370"/>
<text text-anchor="middle" x="514" y="-348.3" font-family="Times,serif" font-size="14.00">error_value</text>
</g>
<!-- switch_node_tag&#45;&gt;error_value -->
<g id="edge12" class="edge">
<title>switch_node_tag&#45;&gt;error_value</title>
<path fill="none" stroke="black" d="M718.8,-435.07C655.58,-431.21 569,-422.47 541,-403 532.79,-397.29 526.85,-388.27 522.67,-379.45"/>
<polygon fill="black" stroke="black" points="525.86,-378.02 518.8,-370.12 519.4,-380.7 525.86,-378.02"/>
<text text-anchor="middle" x="584.5" y="-391.8" font-family="Times,serif" font-size="14.00">.error_value</text>
</g>
<!-- block -->
<g id="node13" class="node">
<title>block</title>
<path fill="none" stroke="black" d="M623,-370C623,-370 593,-370 593,-370 587,-370 581,-364 581,-358 581,-358 581,-346 581,-346 581,-340 587,-334 593,-334 593,-334 623,-334 623,-334 629,-334 635,-340 635,-346 635,-346 635,-358 635,-358 635,-364 629,-370 623,-370"/>
<text text-anchor="middle" x="608" y="-348.3" font-family="Times,serif" font-size="14.00">block</text>
</g>
<!-- switch_node_tag&#45;&gt;block -->
<g id="edge13" class="edge">
<title>switch_node_tag&#45;&gt;block</title>
<path fill="none" stroke="black" d="M718.68,-429.47C695.19,-424.35 669.79,-416.14 649,-403 639.22,-396.82 630.67,-387.51 623.94,-378.6"/>
<polygon fill="black" stroke="black" points="626.7,-376.43 618.07,-370.28 620.98,-380.47 626.7,-376.43"/>
<text text-anchor="middle" x="677" y="-391.8" font-family="Times,serif" font-size="14.00">.block_*</text>
</g>
<!-- errdefer -->
<g id="node14" class="node">
<title>errdefer</title>
<path fill="none" stroke="black" d="M717,-370C717,-370 665,-370 665,-370 659,-370 653,-364 653,-358 653,-358 653,-346 653,-346 653,-340 659,-334 665,-334 665,-334 717,-334 717,-334 723,-334 729,-340 729,-346 729,-346 729,-358 729,-358 729,-364 723,-370 717,-370"/>
<text text-anchor="middle" x="691" y="-348.3" font-family="Times,serif" font-size="14.00">errdefer</text>
</g>
<!-- switch_node_tag&#45;&gt;errdefer -->
<g id="edge14" class="edge">
<title>switch_node_tag&#45;&gt;errdefer</title>
<path fill="none" stroke="black" d="M746.01,-420.91C736.75,-416.03 727.52,-410.07 720,-403 712.99,-396.41 707.16,-387.74 702.61,-379.47"/>
<polygon fill="black" stroke="black" points="705.68,-377.78 698.03,-370.44 699.43,-380.94 705.68,-377.78"/>
<text text-anchor="middle" x="752" y="-391.8" font-family="Times,serif" font-size="14.00">.errdefer</text>
</g>
<!-- control_keywords -->
<g id="node15" class="node">
<title>control_keywords</title>
<path fill="none" stroke="black" d="M877,-370C877,-370 759,-370 759,-370 753,-370 747,-364 747,-358 747,-358 747,-346 747,-346 747,-340 753,-334 759,-334 759,-334 877,-334 877,-334 883,-334 889,-340 889,-346 889,-346 889,-358 889,-358 889,-364 883,-370 877,-370"/>
<text text-anchor="middle" x="818" y="-348.3" font-family="Times,serif" font-size="14.00">control_keywords</text>
</g>
<!-- switch_node_tag&#45;&gt;control_keywords -->
<g id="edge15" class="edge">
<title>switch_node_tag&#45;&gt;control_keywords</title>
<path fill="none" stroke="black" d="M787.73,-420.86C787.06,-410.98 787.31,-398.48 791,-388 792.12,-384.81 793.65,-381.69 795.43,-378.7"/>
<polygon fill="black" stroke="black" points="798.49,-380.43 801.28,-370.21 792.72,-376.46 798.49,-380.43"/>
<text text-anchor="middle" x="854.5" y="-391.8" font-family="Times,serif" font-size="14.00">defer/comptime等</text>
</g>
<!-- catch -->
<g id="node16" class="node">
<title>catch</title>
<path fill="none" stroke="black" d="M950.5,-370C950.5,-370 919.5,-370 919.5,-370 913.5,-370 907.5,-364 907.5,-358 907.5,-358 907.5,-346 907.5,-346 907.5,-340 913.5,-334 919.5,-334 919.5,-334 950.5,-334 950.5,-334 956.5,-334 962.5,-340 962.5,-346 962.5,-346 962.5,-358 962.5,-358 962.5,-364 956.5,-370 950.5,-370"/>
<text text-anchor="middle" x="935" y="-348.3" font-family="Times,serif" font-size="14.00">catch</text>
</g>
<!-- switch_node_tag&#45;&gt;catch -->
<g id="edge16" class="edge">
<title>switch_node_tag&#45;&gt;catch</title>
<path fill="none" stroke="black" d="M861.28,-431.19C881.69,-426.13 902.56,-417.52 918,-403 924.46,-396.93 928.46,-388.31 930.94,-379.93"/>
<polygon fill="black" stroke="black" points="934.39,-380.56 933.28,-370.03 927.58,-378.96 934.39,-380.56"/>
<text text-anchor="middle" x="949.5" y="-391.8" font-family="Times,serif" font-size="14.00">.catch</text>
</g>
<!-- field_access -->
<g id="node17" class="node">
<title>field_access</title>
<path fill="none" stroke="black" d="M1069.5,-370C1069.5,-370 992.5,-370 992.5,-370 986.5,-370 980.5,-364 980.5,-358 980.5,-358 980.5,-346 980.5,-346 980.5,-340 986.5,-334 992.5,-334 992.5,-334 1069.5,-334 1069.5,-334 1075.5,-334 1081.5,-340 1081.5,-346 1081.5,-346 1081.5,-358 1081.5,-358 1081.5,-364 1075.5,-370 1069.5,-370"/>
<text text-anchor="middle" x="1031" y="-348.3" font-family="Times,serif" font-size="14.00">field_access</text>
</g>
<!-- switch_node_tag&#45;&gt;field_access -->
<g id="edge17" class="edge">
<title>switch_node_tag&#45;&gt;field_access</title>
<path fill="none" stroke="black" d="M861.37,-433.54C896.97,-429.11 939.82,-420.34 975,-403 987.73,-396.73 999.76,-386.74 1009.39,-377.34"/>
<polygon fill="black" stroke="black" points="1012.07,-379.61 1016.56,-370.01 1007.06,-374.71 1012.07,-379.61"/>
<text text-anchor="middle" x="1042.5" y="-391.8" font-family="Times,serif" font-size="14.00">.field_access</text>
</g>
<!-- binops -->
<g id="node18" class="node">
<title>binops</title>
<path fill="none" stroke="black" d="M1152,-370C1152,-370 1112,-370 1112,-370 1106,-370 1100,-364 1100,-358 1100,-358 1100,-346 1100,-346 1100,-340 1106,-334 1112,-334 1112,-334 1152,-334 1152,-334 1158,-334 1164,-340 1164,-346 1164,-346 1164,-358 1164,-358 1164,-364 1158,-370 1152,-370"/>
<text text-anchor="middle" x="1132" y="-348.3" font-family="Times,serif" font-size="14.00">binops</text>
</g>
<!-- switch_node_tag&#45;&gt;binops -->
<g id="edge18" class="edge">
<title>switch_node_tag&#45;&gt;binops</title>
<path fill="none" stroke="black" d="M861.24,-435.82C937.49,-432.43 1052.68,-423.93 1091,-403 1101.3,-397.37 1110.03,-388 1116.75,-378.88"/>
<polygon fill="black" stroke="black" points="1119.83,-380.58 1122.56,-370.34 1114.04,-376.64 1119.83,-380.58"/>
<text text-anchor="middle" x="1145" y="-391.8" font-family="Times,serif" font-size="14.00">二元操作符</text>
</g>
<!-- assign -->
<g id="node19" class="node">
<title>assign</title>
<path fill="none" stroke="black" d="M1232,-370C1232,-370 1194,-370 1194,-370 1188,-370 1182,-364 1182,-358 1182,-358 1182,-346 1182,-346 1182,-340 1188,-334 1194,-334 1194,-334 1232,-334 1232,-334 1238,-334 1244,-340 1244,-346 1244,-346 1244,-358 1244,-358 1244,-364 1238,-370 1232,-370"/>
<text text-anchor="middle" x="1213" y="-348.3" font-family="Times,serif" font-size="14.00">assign</text>
</g>
<!-- switch_node_tag&#45;&gt;assign -->
<g id="edge19" class="edge">
<title>switch_node_tag&#45;&gt;assign</title>
<path fill="none" stroke="black" d="M861.15,-435.28C967.55,-430.67 1158.52,-420.13 1185,-403 1193.46,-397.52 1199.62,-388.55 1203.96,-379.7"/>
<polygon fill="black" stroke="black" points="1207.26,-380.89 1207.98,-370.32 1200.82,-378.13 1207.26,-380.89"/>
<text text-anchor="middle" x="1228" y="-391.8" font-family="Times,serif" font-size="14.00">赋值操作</text>
</g>
<!-- other_cases -->
<g id="node20" class="node">
<title>other_cases</title>
<path fill="none" stroke="black" d="M1351.5,-370C1351.5,-370 1274.5,-370 1274.5,-370 1268.5,-370 1262.5,-364 1262.5,-358 1262.5,-358 1262.5,-346 1262.5,-346 1262.5,-340 1268.5,-334 1274.5,-334 1274.5,-334 1351.5,-334 1351.5,-334 1357.5,-334 1363.5,-340 1363.5,-346 1363.5,-346 1363.5,-358 1363.5,-358 1363.5,-364 1357.5,-370 1351.5,-370"/>
<text text-anchor="middle" x="1313" y="-348.3" font-family="Times,serif" font-size="14.00">other_cases</text>
</g>
<!-- switch_node_tag&#45;&gt;other_cases -->
<g id="edge20" class="edge">
<title>switch_node_tag&#45;&gt;other_cases</title>
<path fill="none" stroke="black" d="M861.23,-438.55C974.87,-438.47 1191.46,-434.05 1261,-403 1273.63,-397.36 1285.05,-387.28 1293.94,-377.63"/>
<polygon fill="black" stroke="black" points="1296.58,-379.93 1300.51,-370.09 1291.3,-375.34 1296.58,-379.93"/>
<text text-anchor="middle" x="1338" y="-391.8" font-family="Times,serif" font-size="14.00">其他 50+ 分支...</text>
</g>
<!-- end -->
<g id="node5" class="node">
<title>end</title>
<path fill="none" stroke="black" d="M1159,-36C1159,-36 1105,-36 1105,-36 1099,-36 1093,-30 1093,-24 1093,-24 1093,-12 1093,-12 1093,-6 1099,0 1105,0 1105,0 1159,0 1159,0 1165,0 1171,-6 1171,-12 1171,-12 1171,-24 1171,-24 1171,-30 1165,-36 1159,-36"/>
<text text-anchor="middle" x="1132" y="-14.3" font-family="Times,serif" font-size="14.00">返回/结束</text>
</g>
<!-- render_space -->
<g id="node7" class="node">
<title>render_space</title>
<path fill="none" stroke="black" d="M1667,-457C1667,-457 1579,-457 1579,-457 1573,-457 1567,-451 1567,-445 1567,-445 1567,-433 1567,-433 1567,-427 1573,-421 1579,-421 1579,-421 1667,-421 1667,-421 1673,-421 1679,-427 1679,-433 1679,-433 1679,-445 1679,-445 1679,-451 1673,-457 1667,-457"/>
<text text-anchor="middle" x="1623" y="-435.3" font-family="Times,serif" font-size="14.00">render_space</text>
</g>
<!-- write_replacement&#45;&gt;render_space -->
<g id="edge4" class="edge">
<title>write_replacement&#45;&gt;render_space</title>
<path fill="none" stroke="black" d="M1623,-507.8C1623,-496.16 1623,-480.55 1623,-467.24"/>
<polygon fill="black" stroke="black" points="1626.5,-467.18 1623,-457.18 1619.5,-467.18 1626.5,-467.18"/>
<text text-anchor="middle" x="1666" y="-478.8" font-family="Times,serif" font-size="14.00">写入替换内容</text>
</g>
<!-- render_space&#45;&gt;end -->
<g id="edge5" class="edge">
<title>render_space&#45;&gt;end</title>
<path fill="none" stroke="black" d="M1623,-420.74C1623,-403.57 1623,-376.46 1623,-353 1623,-353 1623,-353 1623,-90 1623,-45.7 1305.94,-26.75 1181.39,-21.01"/>
<polygon fill="black" stroke="black" points="1181.5,-17.52 1171.35,-20.56 1181.18,-24.51 1181.5,-17.52"/>
</g>
<!-- recursive_call&#45;&gt;end -->
<g id="edge8" class="edge">
<title>recursive_call&#45;&gt;end</title>
<path fill="none" stroke="black" d="M1418.32,-420.74C1418.61,-403.57 1419,-376.47 1419,-353 1419,-353 1419,-353 1419,-90 1419,-41.58 1263.1,-25.96 1181.1,-21.1"/>
<polygon fill="black" stroke="black" points="1181.19,-17.6 1171,-20.53 1180.79,-24.59 1181.19,-17.6"/>
<text text-anchor="middle" x="1513.5" y="-217.8" font-family="Times,serif" font-size="14.00">递归调用 renderExpression</text>
</g>
<!-- identifier&#45;&gt;end -->
<g id="edge28" class="edge">
<title>identifier&#45;&gt;end</title>
<path fill="none" stroke="black" d="M41,-333.74C41,-316.57 41,-289.46 41,-266 41,-266 41,-266 41,-90 41,-37.06 869.66,-22.47 1082.6,-19.59"/>
<polygon fill="black" stroke="black" points="1082.9,-23.09 1092.85,-19.46 1082.8,-16.09 1082.9,-23.09"/>
<text text-anchor="middle" x="77" y="-174.3" font-family="Times,serif" font-size="14.00">渲染标识符</text>
</g>
<!-- literals&#45;&gt;end -->
<g id="edge29" class="edge">
<title>literals&#45;&gt;end</title>
<path fill="none" stroke="black" d="M143.58,-333.79C145.91,-316.65 149,-289.57 149,-266 149,-266 149,-266 149,-90 149,-42.67 883.51,-24.11 1082.69,-19.95"/>
<polygon fill="black" stroke="black" points="1082.93,-23.45 1092.86,-19.74 1082.79,-16.45 1082.93,-23.45"/>
<text text-anchor="middle" x="200.5" y="-174.3" font-family="Times,serif" font-size="14.00">直接渲染 Token</text>
</g>
<!-- handle_tokens -->
<g id="node21" class="node">
<title>handle_tokens</title>
<path fill="none" stroke="black" d="M374.5,-283C374.5,-283 279.5,-283 279.5,-283 273.5,-283 267.5,-277 267.5,-271 267.5,-271 267.5,-259 267.5,-259 267.5,-253 273.5,-247 279.5,-247 279.5,-247 374.5,-247 374.5,-247 380.5,-247 386.5,-253 386.5,-259 386.5,-259 386.5,-271 386.5,-271 386.5,-277 380.5,-283 374.5,-283"/>
<text text-anchor="middle" x="327" y="-261.3" font-family="Times,serif" font-size="14.00">handle_tokens</text>
</g>
<!-- multiline_string&#45;&gt;handle_tokens -->
<g id="edge21" class="edge">
<title>multiline_string&#45;&gt;handle_tokens</title>
<path fill="none" stroke="black" d="M324.61,-333.8C325.02,-322.16 325.57,-306.55 326.04,-293.24"/>
<polygon fill="black" stroke="black" points="329.54,-293.29 326.39,-283.18 322.54,-293.05 329.54,-293.29"/>
<text text-anchor="middle" x="376" y="-304.8" font-family="Times,serif" font-size="14.00">处理多行字符串</text>
</g>
<!-- block&#45;&gt;end -->
<g id="edge30" class="edge">
<title>block&#45;&gt;end</title>
<path fill="none" stroke="black" d="M635.12,-338.17C638.11,-336.76 641.12,-335.35 644,-334 709.21,-303.52 791,-337.98 791,-266 791,-266 791,-266 791,-90 791,-31.13 988.25,-20.74 1082.71,-19.14"/>
<polygon fill="black" stroke="black" points="1082.93,-22.63 1092.88,-18.99 1082.83,-15.64 1082.93,-22.63"/>
<text text-anchor="middle" x="827" y="-174.3" font-family="Times,serif" font-size="14.00">渲染代码块</text>
</g>
<!-- render_lhs -->
<g id="node24" class="node">
<title>render_lhs</title>
<path fill="none" stroke="black" d="M1166,-283C1166,-283 1098,-283 1098,-283 1092,-283 1086,-277 1086,-271 1086,-271 1086,-259 1086,-259 1086,-253 1092,-247 1098,-247 1098,-247 1166,-247 1166,-247 1172,-247 1178,-253 1178,-259 1178,-259 1178,-271 1178,-271 1178,-277 1172,-283 1166,-283"/>
<text text-anchor="middle" x="1132" y="-261.3" font-family="Times,serif" font-size="14.00">render_lhs</text>
</g>
<!-- binops&#45;&gt;render_lhs -->
<g id="edge24" class="edge">
<title>binops&#45;&gt;render_lhs</title>
<path fill="none" stroke="black" d="M1132,-333.8C1132,-322.16 1132,-306.55 1132,-293.24"/>
<polygon fill="black" stroke="black" points="1135.5,-293.18 1132,-283.18 1128.5,-293.18 1135.5,-293.18"/>
<text text-anchor="middle" x="1175" y="-304.8" font-family="Times,serif" font-size="14.00">渲染左操作数</text>
</g>
<!-- other_cases&#45;&gt;end -->
<g id="edge31" class="edge">
<title>other_cases&#45;&gt;end</title>
<path fill="none" stroke="black" d="M1295.86,-333.76C1281.73,-317.66 1264,-292.23 1264,-266 1264,-266 1264,-266 1264,-90 1264,-50.95 1218.63,-33.28 1181.09,-25.35"/>
<polygon fill="black" stroke="black" points="1181.73,-21.91 1171.25,-23.45 1180.4,-28.78 1181.73,-21.91"/>
<text text-anchor="middle" x="1314" y="-174.3" font-family="Times,serif" font-size="14.00">各自的具体逻辑</text>
</g>
<!-- dedent_check -->
<g id="node22" class="node">
<title>dedent_check</title>
<path fill="none" stroke="black" d="M371.5,-196C371.5,-196 282.5,-196 282.5,-196 276.5,-196 270.5,-190 270.5,-184 270.5,-184 270.5,-172 270.5,-172 270.5,-166 276.5,-160 282.5,-160 282.5,-160 371.5,-160 371.5,-160 377.5,-160 383.5,-166 383.5,-172 383.5,-172 383.5,-184 383.5,-184 383.5,-190 377.5,-196 371.5,-196"/>
<text text-anchor="middle" x="327" y="-174.3" font-family="Times,serif" font-size="14.00">dedent_check</text>
</g>
<!-- handle_tokens&#45;&gt;dedent_check -->
<g id="edge22" class="edge">
<title>handle_tokens&#45;&gt;dedent_check</title>
<path fill="none" stroke="black" d="M327,-246.8C327,-235.16 327,-219.55 327,-206.24"/>
<polygon fill="black" stroke="black" points="330.5,-206.18 327,-196.18 323.5,-206.18 330.5,-206.18"/>
<text text-anchor="middle" x="356" y="-217.8" font-family="Times,serif" font-size="14.00">处理缩进</text>
</g>
<!-- space_handling -->
<g id="node23" class="node">
<title>space_handling</title>
<path fill="none" stroke="black" d="M378,-109C378,-109 276,-109 276,-109 270,-109 264,-103 264,-97 264,-97 264,-85 264,-85 264,-79 270,-73 276,-73 276,-73 378,-73 378,-73 384,-73 390,-79 390,-85 390,-85 390,-97 390,-97 390,-103 384,-109 378,-109"/>
<text text-anchor="middle" x="327" y="-87.3" font-family="Times,serif" font-size="14.00">space_handling</text>
</g>
<!-- dedent_check&#45;&gt;space_handling -->
<g id="edge23" class="edge">
<title>dedent_check&#45;&gt;space_handling</title>
<path fill="none" stroke="black" d="M327,-159.8C327,-148.16 327,-132.55 327,-119.24"/>
<polygon fill="black" stroke="black" points="330.5,-119.18 327,-109.18 323.5,-119.18 330.5,-119.18"/>
<text text-anchor="middle" x="423" y="-130.8" font-family="Times,serif" font-size="14.00">根据 space 参数处理后续符号</text>
</g>
<!-- handle_op_token -->
<g id="node25" class="node">
<title>handle_op_token</title>
<path fill="none" stroke="black" d="M1187.5,-196C1187.5,-196 1076.5,-196 1076.5,-196 1070.5,-196 1064.5,-190 1064.5,-184 1064.5,-184 1064.5,-172 1064.5,-172 1064.5,-166 1070.5,-160 1076.5,-160 1076.5,-160 1187.5,-160 1187.5,-160 1193.5,-160 1199.5,-166 1199.5,-172 1199.5,-172 1199.5,-184 1199.5,-184 1199.5,-190 1193.5,-196 1187.5,-196"/>
<text text-anchor="middle" x="1132" y="-174.3" font-family="Times,serif" font-size="14.00">handle_op_token</text>
</g>
<!-- render_lhs&#45;&gt;handle_op_token -->
<g id="edge25" class="edge">
<title>render_lhs&#45;&gt;handle_op_token</title>
<path fill="none" stroke="black" d="M1132,-246.8C1132,-235.16 1132,-219.55 1132,-206.24"/>
<polygon fill="black" stroke="black" points="1135.5,-206.18 1132,-196.18 1128.5,-206.18 1135.5,-206.18"/>
<text text-anchor="middle" x="1168" y="-217.8" font-family="Times,serif" font-size="14.00">处理操作符</text>
</g>
<!-- render_rhs -->
<g id="node26" class="node">
<title>render_rhs</title>
<path fill="none" stroke="black" d="M1167.5,-109C1167.5,-109 1096.5,-109 1096.5,-109 1090.5,-109 1084.5,-103 1084.5,-97 1084.5,-97 1084.5,-85 1084.5,-85 1084.5,-79 1090.5,-73 1096.5,-73 1096.5,-73 1167.5,-73 1167.5,-73 1173.5,-73 1179.5,-79 1179.5,-85 1179.5,-85 1179.5,-97 1179.5,-97 1179.5,-103 1173.5,-109 1167.5,-109"/>
<text text-anchor="middle" x="1132" y="-87.3" font-family="Times,serif" font-size="14.00">render_rhs</text>
</g>
<!-- handle_op_token&#45;&gt;render_rhs -->
<g id="edge26" class="edge">
<title>handle_op_token&#45;&gt;render_rhs</title>
<path fill="none" stroke="black" d="M1132,-159.8C1132,-148.16 1132,-132.55 1132,-119.24"/>
<polygon fill="black" stroke="black" points="1135.5,-119.18 1132,-109.18 1128.5,-119.18 1135.5,-119.18"/>
<text text-anchor="middle" x="1175" y="-130.8" font-family="Times,serif" font-size="14.00">渲染右操作数</text>
</g>
<!-- render_rhs&#45;&gt;end -->
<g id="edge27" class="edge">
<title>render_rhs&#45;&gt;end</title>
<path fill="none" stroke="black" d="M1132,-72.81C1132,-64.79 1132,-55.05 1132,-46.07"/>
<polygon fill="black" stroke="black" points="1135.5,-46.03 1132,-36.03 1128.5,-46.03 1135.5,-46.03"/>
</g>
<!-- note -->
<g id="node27" class="node">
<title>note</title>
<polygon fill="none" stroke="black" points="1871.5,-706 1624.5,-706 1624.5,-668 1877.5,-668 1877.5,-700 1871.5,-706"/>
<polyline fill="none" stroke="black" points="1871.5,-706 1871.5,-700 "/>
<polyline fill="none" stroke="black" points="1877.5,-700 1871.5,-700 "/>
<text text-anchor="middle" x="1751" y="-690.8" font-family="Times,serif" font-size="14.00">完整流程图需覆盖所有 AST 节点类型</text>
<text text-anchor="middle" x="1751" y="-675.8" font-family="Times,serif" font-size="14.00">包括 if/while/for/switch 等控制流</text>
</g>
</g>
</svg>
