<?xml version="1.0" encoding="UTF-8" standalone="no"?>
<!DOCTYPE svg PUBLIC "-//W3C//DTD SVG 1.1//EN"
 "http://www.w3.org/Graphics/SVG/1.1/DTD/svg11.dtd">
<!-- Generated by graphviz version 2.43.0 (0)
 -->
<!-- Title: flowchart Pages: 1 -->
<svg width="417pt" height="1554pt"
 viewBox="0.00 0.00 417.30 1554.00" xmlns="http://www.w3.org/2000/svg" xmlns:xlink="http://www.w3.org/1999/xlink">
<g id="graph0" class="graph" transform="scale(1 1) rotate(0) translate(4 1550)">
<title>flowchart</title>
<polygon fill="white" stroke="transparent" points="-4,4 -4,-1550 413.3,-1550 413.3,4 -4,4"/>
<!-- start -->
<g id="node1" class="node">
<title>start</title>
<polygon fill="none" stroke="black" points="176.3,-1546 99.3,-1546 99.3,-1510 176.3,-1510 176.3,-1546"/>
<text text-anchor="middle" x="137.8" y="-1525.5" font-family="Courier,monospace" font-size="10.00">开始 ifExpr</text>
</g>
<!-- check_do_err_trace -->
<g id="node2" class="node">
<title>check_do_err_trace</title>
<polygon fill="none" stroke="black" points="194.3,-1473 81.3,-1473 81.3,-1437 194.3,-1437 194.3,-1473"/>
<text text-anchor="middle" x="137.8" y="-1452.5" font-family="Courier,monospace" font-size="10.00">检查 do_err_trace</text>
</g>
<!-- start&#45;&gt;check_do_err_trace -->
<g id="edge1" class="edge">
<title>start&#45;&gt;check_do_err_trace</title>
<path fill="none" stroke="black" d="M137.8,-1509.81C137.8,-1501.79 137.8,-1492.05 137.8,-1483.07"/>
<polygon fill="black" stroke="black" points="141.3,-1483.03 137.8,-1473.03 134.3,-1483.03 141.3,-1483.03"/>
</g>
<!-- setup_block_ri -->
<g id="node3" class="node">
<title>setup_block_ri</title>
<polygon fill="none" stroke="black" points="182.3,-1400 93.3,-1400 93.3,-1364 182.3,-1364 182.3,-1400"/>
<text text-anchor="middle" x="137.8" y="-1379.5" font-family="Courier,monospace" font-size="10.00">设置 block_ri</text>
</g>
<!-- check_do_err_trace&#45;&gt;setup_block_ri -->
<g id="edge2" class="edge">
<title>check_do_err_trace&#45;&gt;setup_block_ri</title>
<path fill="none" stroke="black" d="M137.8,-1436.81C137.8,-1428.79 137.8,-1419.05 137.8,-1410.07"/>
<polygon fill="black" stroke="black" points="141.3,-1410.03 137.8,-1400.03 134.3,-1410.03 141.3,-1410.03"/>
</g>
<!-- create_block_scope -->
<g id="node4" class="node">
<title>create_block_scope</title>
<polygon fill="none" stroke="black" points="191.3,-1327 84.3,-1327 84.3,-1291 191.3,-1291 191.3,-1327"/>
<text text-anchor="middle" x="137.8" y="-1306.5" font-family="Courier,monospace" font-size="10.00">创建 block_scope</text>
</g>
<!-- setup_block_ri&#45;&gt;create_block_scope -->
<g id="edge3" class="edge">
<title>setup_block_ri&#45;&gt;create_block_scope</title>
<path fill="none" stroke="black" d="M137.8,-1363.81C137.8,-1355.79 137.8,-1346.05 137.8,-1337.07"/>
<polygon fill="black" stroke="black" points="141.3,-1337.03 137.8,-1327.03 134.3,-1337.03 141.3,-1337.03"/>
</g>
<!-- process_cond -->
<g id="node5" class="node">
<title>process_cond</title>
<polygon fill="none" stroke="black" points="180.3,-1254 95.3,-1254 95.3,-1218 180.3,-1218 180.3,-1254"/>
<text text-anchor="middle" x="137.8" y="-1233.5" font-family="Courier,monospace" font-size="10.00">处理条件表达式</text>
</g>
<!-- create_block_scope&#45;&gt;process_cond -->
<g id="edge4" class="edge">
<title>create_block_scope&#45;&gt;process_cond</title>
<path fill="none" stroke="black" d="M137.8,-1290.81C137.8,-1282.79 137.8,-1273.05 137.8,-1264.07"/>
<polygon fill="black" stroke="black" points="141.3,-1264.03 137.8,-1254.03 134.3,-1264.03 141.3,-1264.03"/>
</g>
<!-- create_condbr -->
<g id="node6" class="node">
<title>create_condbr</title>
<polygon fill="none" stroke="black" points="196.3,-1098 93.3,-1098 93.3,-1062 196.3,-1062 196.3,-1098"/>
<text text-anchor="middle" x="144.8" y="-1077.5" font-family="Courier,monospace" font-size="10.00">创建 condbr 指令</text>
</g>
<!-- process_cond&#45;&gt;create_condbr -->
<g id="edge5" class="edge">
<title>process_cond&#45;&gt;create_condbr</title>
<path fill="none" stroke="black" d="M94.94,-1222.61C46.93,-1206.45 -20.79,-1175.41 6.8,-1135 24.05,-1109.72 55.07,-1096.27 83.34,-1089.12"/>
<polygon fill="black" stroke="black" points="84.24,-1092.51 93.19,-1086.85 82.66,-1085.69 84.24,-1092.51"/>
</g>
<!-- handle_error_union -->
<g id="node19" class="node">
<title>handle_error_union</title>
<polygon fill="none" stroke="black" points="141.3,-1171 16.3,-1171 16.3,-1135 141.3,-1135 141.3,-1171"/>
<text text-anchor="middle" x="78.8" y="-1150.5" font-family="Courier,monospace" font-size="10.00">handle_error_union</text>
</g>
<!-- process_cond&#45;&gt;handle_error_union -->
<g id="edge18" class="edge">
<title>process_cond&#45;&gt;handle_error_union</title>
<path fill="none" stroke="black" d="M116.83,-1217.69C111.18,-1212.39 105.38,-1206.29 100.8,-1200 96.45,-1194.04 92.61,-1187.09 89.39,-1180.42"/>
<polygon fill="black" stroke="black" points="92.45,-1178.68 85.15,-1171 86.07,-1181.56 92.45,-1178.68"/>
<text text-anchor="middle" x="141.8" y="-1192" font-family="Courier,monospace" font-size="10.00">有 error_token</text>
</g>
<!-- handle_optional -->
<g id="node20" class="node">
<title>handle_optional</title>
<polygon fill="none" stroke="black" points="266.3,-1171 159.3,-1171 159.3,-1135 266.3,-1135 266.3,-1171"/>
<text text-anchor="middle" x="212.8" y="-1150.5" font-family="Courier,monospace" font-size="10.00">handle_optional</text>
</g>
<!-- process_cond&#45;&gt;handle_optional -->
<g id="edge19" class="edge">
<title>process_cond&#45;&gt;handle_optional</title>
<path fill="none" stroke="black" d="M162.88,-1217.84C169.74,-1212.55 176.9,-1206.41 182.8,-1200 188.42,-1193.88 193.7,-1186.6 198.21,-1179.65"/>
<polygon fill="black" stroke="black" points="201.19,-1181.48 203.48,-1171.14 195.24,-1177.8 201.19,-1181.48"/>
<text text-anchor="middle" x="237.8" y="-1192" font-family="Courier,monospace" font-size="10.00">有 payload_token</text>
</g>
<!-- handle_normal_cond -->
<g id="node21" class="node">
<title>handle_normal_cond</title>
<polygon fill="none" stroke="black" points="409.3,-1171 284.3,-1171 284.3,-1135 409.3,-1135 409.3,-1171"/>
<text text-anchor="middle" x="346.8" y="-1150.5" font-family="Courier,monospace" font-size="10.00">handle_normal_cond</text>
</g>
<!-- process_cond&#45;&gt;handle_normal_cond -->
<g id="edge20" class="edge">
<title>process_cond&#45;&gt;handle_normal_cond</title>
<path fill="none" stroke="black" d="M180.48,-1230.23C211.68,-1225.55 254.37,-1216.59 288.8,-1200 300.55,-1194.33 312.11,-1185.92 321.78,-1177.84"/>
<polygon fill="black" stroke="black" points="324.17,-1180.39 329.41,-1171.19 319.57,-1175.11 324.17,-1180.39"/>
<text text-anchor="middle" x="325.8" y="-1192" font-family="Courier,monospace" font-size="10.00">普通条件</text>
</g>
<!-- create_block_inst -->
<g id="node7" class="node">
<title>create_block_inst</title>
<polygon fill="none" stroke="black" points="193.3,-1025 96.3,-1025 96.3,-989 193.3,-989 193.3,-1025"/>
<text text-anchor="middle" x="144.8" y="-1004.5" font-family="Courier,monospace" font-size="10.00">创建 block 指令</text>
</g>
<!-- create_condbr&#45;&gt;create_block_inst -->
<g id="edge6" class="edge">
<title>create_condbr&#45;&gt;create_block_inst</title>
<path fill="none" stroke="black" d="M144.8,-1061.81C144.8,-1053.79 144.8,-1044.05 144.8,-1035.07"/>
<polygon fill="black" stroke="black" points="148.3,-1035.03 144.8,-1025.03 141.3,-1035.03 148.3,-1035.03"/>
</g>
<!-- setup_then_scope -->
<g id="node8" class="node">
<title>setup_then_scope</title>
<polygon fill="none" stroke="black" points="200.3,-952 89.3,-952 89.3,-916 200.3,-916 200.3,-952"/>
<text text-anchor="middle" x="144.8" y="-931.5" font-family="Courier,monospace" font-size="10.00">初始化 then_scope</text>
</g>
<!-- create_block_inst&#45;&gt;setup_then_scope -->
<g id="edge7" class="edge">
<title>create_block_inst&#45;&gt;setup_then_scope</title>
<path fill="none" stroke="black" d="M144.8,-988.81C144.8,-980.79 144.8,-971.05 144.8,-962.07"/>
<polygon fill="black" stroke="black" points="148.3,-962.03 144.8,-952.03 141.3,-962.03 148.3,-962.03"/>
</g>
<!-- handle_then_payload -->
<g id="node9" class="node">
<title>handle_then_payload</title>
<polygon fill="none" stroke="black" points="236.3,-879 53.3,-879 53.3,-843 236.3,-843 236.3,-879"/>
<text text-anchor="middle" x="144.8" y="-858.5" font-family="Courier,monospace" font-size="10.00">处理 then 分支 payload/错误令牌</text>
</g>
<!-- setup_then_scope&#45;&gt;handle_then_payload -->
<g id="edge8" class="edge">
<title>setup_then_scope&#45;&gt;handle_then_payload</title>
<path fill="none" stroke="black" d="M144.8,-915.81C144.8,-907.79 144.8,-898.05 144.8,-889.07"/>
<polygon fill="black" stroke="black" points="148.3,-889.03 144.8,-879.03 141.3,-889.03 148.3,-889.03"/>
</g>
<!-- process_then_expr -->
<g id="node10" class="node">
<title>process_then_expr</title>
<polygon fill="none" stroke="black" points="191.3,-723 90.3,-723 90.3,-687 191.3,-687 191.3,-723"/>
<text text-anchor="middle" x="140.8" y="-702.5" font-family="Courier,monospace" font-size="10.00">处理 then 表达式</text>
</g>
<!-- handle_then_payload&#45;&gt;process_then_expr -->
<g id="edge9" class="edge">
<title>handle_then_payload&#45;&gt;process_then_expr</title>
<path fill="none" stroke="black" d="M144.35,-842.93C143.66,-816.45 142.33,-765.22 141.51,-733.49"/>
<polygon fill="black" stroke="black" points="145,-733.05 141.24,-723.15 138,-733.23 145,-733.05"/>
</g>
<!-- skip_then_payload -->
<g id="node22" class="node">
<title>skip_then_payload</title>
<polygon fill="none" stroke="black" points="276.3,-796 157.3,-796 157.3,-760 276.3,-760 276.3,-796"/>
<text text-anchor="middle" x="216.8" y="-775.5" font-family="Courier,monospace" font-size="10.00">skip_then_payload</text>
</g>
<!-- handle_then_payload&#45;&gt;skip_then_payload -->
<g id="edge24" class="edge">
<title>handle_then_payload&#45;&gt;skip_then_payload</title>
<path fill="none" stroke="black" d="M160.06,-842.82C170.18,-831.44 183.62,-816.33 194.87,-803.66"/>
<polygon fill="black" stroke="black" points="197.52,-805.95 201.55,-796.15 192.29,-801.3 197.52,-805.95"/>
<text text-anchor="middle" x="219.8" y="-817" font-family="Courier,monospace" font-size="10.00">payload 是 _</text>
</g>
<!-- check_then_termination -->
<g id="node11" class="node">
<title>check_then_termination</title>
<polygon fill="none" stroke="black" points="195.8,-650 85.8,-650 85.8,-614 195.8,-614 195.8,-650"/>
<text text-anchor="middle" x="140.8" y="-629.5" font-family="Courier,monospace" font-size="10.00">检查 then 是否终止</text>
</g>
<!-- process_then_expr&#45;&gt;check_then_termination -->
<g id="edge10" class="edge">
<title>process_then_expr&#45;&gt;check_then_termination</title>
<path fill="none" stroke="black" d="M140.8,-686.81C140.8,-678.79 140.8,-669.05 140.8,-660.07"/>
<polygon fill="black" stroke="black" points="144.3,-660.03 140.8,-650.03 137.3,-660.03 144.3,-660.03"/>
</g>
<!-- setup_else_scope -->
<g id="node12" class="node">
<title>setup_else_scope</title>
<polygon fill="none" stroke="black" points="151.3,-567 40.3,-567 40.3,-531 151.3,-531 151.3,-567"/>
<text text-anchor="middle" x="95.8" y="-546.5" font-family="Courier,monospace" font-size="10.00">初始化 else_scope</text>
</g>
<!-- check_then_termination&#45;&gt;setup_else_scope -->
<g id="edge11" class="edge">
<title>check_then_termination&#45;&gt;setup_else_scope</title>
<path fill="none" stroke="black" d="M124.43,-613.74C119.9,-608.35 115.28,-602.19 111.8,-596 108.47,-590.1 105.66,-583.4 103.37,-576.96"/>
<polygon fill="black" stroke="black" points="106.62,-575.65 100.19,-567.23 99.97,-577.82 106.62,-575.65"/>
<text text-anchor="middle" x="141.8" y="-588" font-family="Courier,monospace" font-size="10.00">then 未终止</text>
</g>
<!-- set_condbr_payload -->
<g id="node16" class="node">
<title>set_condbr_payload</title>
<polygon fill="none" stroke="black" points="190.8,-182 50.8,-182 50.8,-146 190.8,-146 190.8,-182"/>
<text text-anchor="middle" x="120.8" y="-161.5" font-family="Courier,monospace" font-size="10.00">设置 condbr 的 payload</text>
</g>
<!-- check_then_termination&#45;&gt;set_condbr_payload -->
<g id="edge28" class="edge">
<title>check_then_termination&#45;&gt;set_condbr_payload</title>
<path fill="none" stroke="black" d="M158.49,-613.98C163.34,-608.59 168.23,-602.38 171.8,-596 182.23,-577.35 185.8,-571.37 185.8,-550 185.8,-550 185.8,-550 185.8,-246 185.8,-223.22 169.97,-203.2 153.93,-188.76"/>
<polygon fill="black" stroke="black" points="156,-185.93 146.11,-182.13 151.48,-191.27 156,-185.93"/>
<text text-anchor="middle" x="210.8" y="-390.5" font-family="Courier,monospace" font-size="10.00">then 终止</text>
</g>
<!-- handle_else_payload -->
<g id="node13" class="node">
<title>handle_else_payload</title>
<polygon fill="none" stroke="black" points="141.8,-494 11.8,-494 11.8,-458 141.8,-458 141.8,-494"/>
<text text-anchor="middle" x="76.8" y="-473.5" font-family="Courier,monospace" font-size="10.00">处理 else 分支错误令牌</text>
</g>
<!-- setup_else_scope&#45;&gt;handle_else_payload -->
<g id="edge12" class="edge">
<title>setup_else_scope&#45;&gt;handle_else_payload</title>
<path fill="none" stroke="black" d="M91.2,-530.81C89.03,-522.7 86.38,-512.84 83.96,-503.78"/>
<polygon fill="black" stroke="black" points="87.32,-502.78 81.35,-494.03 80.56,-504.59 87.32,-502.78"/>
</g>
<!-- process_else_expr -->
<g id="node14" class="node">
<title>process_else_expr</title>
<polygon fill="none" stroke="black" points="157.8,-338 17.8,-338 17.8,-302 157.8,-302 157.8,-338"/>
<text text-anchor="middle" x="87.8" y="-317.5" font-family="Courier,monospace" font-size="10.00">处理 else 表达式或默认值</text>
</g>
<!-- handle_else_payload&#45;&gt;process_else_expr -->
<g id="edge13" class="edge">
<title>handle_else_payload&#45;&gt;process_else_expr</title>
<path fill="none" stroke="black" d="M55.61,-457.66C34.32,-438 6.54,-404.8 20.8,-375 26.65,-362.76 36.79,-352.4 47.43,-344.14"/>
<polygon fill="black" stroke="black" points="49.55,-346.93 55.61,-338.23 45.45,-341.25 49.55,-346.93"/>
</g>
<!-- skip_else_payload -->
<g id="node23" class="node">
<title>skip_else_payload</title>
<polygon fill="none" stroke="black" points="149.3,-411 30.3,-411 30.3,-375 149.3,-375 149.3,-411"/>
<text text-anchor="middle" x="89.8" y="-390.5" font-family="Courier,monospace" font-size="10.00">skip_else_payload</text>
</g>
<!-- handle_else_payload&#45;&gt;skip_else_payload -->
<g id="edge26" class="edge">
<title>handle_else_payload&#45;&gt;skip_else_payload</title>
<path fill="none" stroke="black" d="M75.92,-457.84C75.79,-449.13 76.12,-438.44 77.8,-429 78.27,-426.31 78.93,-423.54 79.68,-420.8"/>
<polygon fill="black" stroke="black" points="83.05,-421.76 82.73,-411.17 76.37,-419.64 83.05,-421.76"/>
<text text-anchor="middle" x="124.8" y="-432" font-family="Courier,monospace" font-size="10.00">error_token 是 _</text>
</g>
<!-- check_else_termination -->
<g id="node15" class="node">
<title>check_else_termination</title>
<polygon fill="none" stroke="black" points="142.8,-265 32.8,-265 32.8,-229 142.8,-229 142.8,-265"/>
<text text-anchor="middle" x="87.8" y="-244.5" font-family="Courier,monospace" font-size="10.00">检查 else 是否终止</text>
</g>
<!-- process_else_expr&#45;&gt;check_else_termination -->
<g id="edge14" class="edge">
<title>process_else_expr&#45;&gt;check_else_termination</title>
<path fill="none" stroke="black" d="M87.8,-301.81C87.8,-293.79 87.8,-284.05 87.8,-275.07"/>
<polygon fill="black" stroke="black" points="91.3,-275.03 87.8,-265.03 84.3,-275.03 91.3,-275.03"/>
</g>
<!-- check_else_termination&#45;&gt;set_condbr_payload -->
<g id="edge15" class="edge">
<title>check_else_termination&#45;&gt;set_condbr_payload</title>
<path fill="none" stroke="black" d="M92.18,-228.67C94.61,-219.93 97.93,-209.24 101.8,-200 103.01,-197.1 104.39,-194.12 105.85,-191.18"/>
<polygon fill="black" stroke="black" points="109.07,-192.59 110.61,-182.11 102.87,-189.33 109.07,-192.59"/>
</g>
<!-- check_else_termination&#45;&gt;set_condbr_payload -->
<g id="edge29" class="edge">
<title>check_else_termination&#45;&gt;set_condbr_payload</title>
<path fill="none" stroke="black" d="M94.79,-228.82C99.21,-217.98 105.01,-203.74 110.01,-191.47"/>
<polygon fill="black" stroke="black" points="113.27,-192.73 113.81,-182.15 106.79,-190.09 113.27,-192.73"/>
<text text-anchor="middle" x="131.8" y="-203" font-family="Courier,monospace" font-size="10.00">else 终止</text>
</g>
<!-- decide_return -->
<g id="node17" class="node">
<title>decide_return</title>
<polygon fill="none" stroke="black" points="194.8,-109 46.8,-109 46.8,-73 194.8,-73 194.8,-109"/>
<text text-anchor="middle" x="120.8" y="-88.5" font-family="Courier,monospace" font-size="10.00">决定返回 block 或 rvalue</text>
</g>
<!-- set_condbr_payload&#45;&gt;decide_return -->
<g id="edge16" class="edge">
<title>set_condbr_payload&#45;&gt;decide_return</title>
<path fill="none" stroke="black" d="M120.8,-145.81C120.8,-137.79 120.8,-128.05 120.8,-119.07"/>
<polygon fill="black" stroke="black" points="124.3,-119.03 120.8,-109.03 117.3,-119.03 124.3,-119.03"/>
</g>
<!-- end -->
<g id="node18" class="node">
<title>end</title>
<polygon fill="none" stroke="black" points="148.8,-36 92.8,-36 92.8,0 148.8,0 148.8,-36"/>
<text text-anchor="middle" x="120.8" y="-15.5" font-family="Courier,monospace" font-size="10.00">返回结果</text>
</g>
<!-- decide_return&#45;&gt;end -->
<g id="edge17" class="edge">
<title>decide_return&#45;&gt;end</title>
<path fill="none" stroke="black" d="M120.8,-72.81C120.8,-64.79 120.8,-55.05 120.8,-46.07"/>
<polygon fill="black" stroke="black" points="124.3,-46.03 120.8,-36.03 117.3,-46.03 124.3,-46.03"/>
</g>
<!-- handle_error_union&#45;&gt;create_condbr -->
<g id="edge21" class="edge">
<title>handle_error_union&#45;&gt;create_condbr</title>
<path fill="none" stroke="black" d="M94.77,-1134.81C102.96,-1126 113.07,-1115.13 122.06,-1105.46"/>
<polygon fill="black" stroke="black" points="124.72,-1107.74 128.97,-1098.03 119.59,-1102.97 124.72,-1107.74"/>
</g>
<!-- handle_optional&#45;&gt;create_condbr -->
<g id="edge22" class="edge">
<title>handle_optional&#45;&gt;create_condbr</title>
<path fill="none" stroke="black" d="M196.33,-1134.81C187.9,-1126 177.48,-1115.13 168.22,-1105.46"/>
<polygon fill="black" stroke="black" points="170.55,-1102.83 161.1,-1098.03 165.49,-1107.67 170.55,-1102.83"/>
</g>
<!-- handle_normal_cond&#45;&gt;create_condbr -->
<g id="edge23" class="edge">
<title>handle_normal_cond&#45;&gt;create_condbr</title>
<path fill="none" stroke="black" d="M298.41,-1134.99C269.76,-1124.92 233.28,-1112.1 203.06,-1101.48"/>
<polygon fill="black" stroke="black" points="204.08,-1098.13 193.48,-1098.11 201.76,-1104.73 204.08,-1098.13"/>
</g>
<!-- skip_then_payload&#45;&gt;process_then_expr -->
<g id="edge25" class="edge">
<title>skip_then_payload&#45;&gt;process_then_expr</title>
<path fill="none" stroke="black" d="M198.4,-759.81C188.78,-750.83 176.86,-739.69 166.36,-729.89"/>
<polygon fill="black" stroke="black" points="168.72,-727.3 159.02,-723.03 163.94,-732.41 168.72,-727.3"/>
</g>
<!-- skip_else_payload&#45;&gt;process_else_expr -->
<g id="edge27" class="edge">
<title>skip_else_payload&#45;&gt;process_else_expr</title>
<path fill="none" stroke="black" d="M89.31,-374.81C89.08,-366.79 88.81,-357.05 88.56,-348.07"/>
<polygon fill="black" stroke="black" points="92.06,-347.93 88.27,-338.03 85.06,-348.12 92.06,-347.93"/>
</g>
</g>
</svg>
