<?xml version="1.0" encoding="UTF-8" standalone="no"?>
<!DOCTYPE svg PUBLIC "-//W3C//DTD SVG 1.1//EN"
 "http://www.w3.org/Graphics/SVG/1.1/DTD/svg11.dtd">
<!-- Generated by graphviz version 2.43.0 (0)
 -->
<!-- Title: flowchart Pages: 1 -->
<svg width="632pt" height="1155pt"
 viewBox="0.00 0.00 632.00 1155.00" xmlns="http://www.w3.org/2000/svg" xmlns:xlink="http://www.w3.org/1999/xlink">
<g id="graph0" class="graph" transform="scale(1 1) rotate(0) translate(4 1151)">
<title>flowchart</title>
<polygon fill="white" stroke="transparent" points="-4,4 -4,-1151 628,-1151 628,4 -4,4"/>
<!-- start -->
<g id="node1" class="node">
<title>start</title>
<path fill="none" stroke="black" d="M312,-1147C312,-1147 86,-1147 86,-1147 80,-1147 74,-1141 74,-1135 74,-1135 74,-1123 74,-1123 74,-1117 80,-1111 86,-1111 86,-1111 312,-1111 312,-1111 318,-1111 324,-1117 324,-1123 324,-1123 324,-1135 324,-1135 324,-1141 318,-1147 312,-1147"/>
<text text-anchor="middle" x="199" y="-1125.3" font-family="Helvetica,sans-Serif" font-size="14.00">开始 isLibCLibName(target, name)</text>
</g>
<!-- ignore_case -->
<g id="node2" class="node">
<title>ignore_case</title>
<path fill="none" stroke="black" d="M386,-1074C386,-1074 12,-1074 12,-1074 6,-1074 0,-1068 0,-1062 0,-1062 0,-1050 0,-1050 0,-1044 6,-1038 12,-1038 12,-1038 386,-1038 386,-1038 392,-1038 398,-1044 398,-1050 398,-1050 398,-1062 398,-1062 398,-1068 392,-1074 386,-1074"/>
<text text-anchor="middle" x="199" y="-1052.3" font-family="Helvetica,sans-Serif" font-size="14.00">设置 ignore_case = target.os.tag.isDarwin() 或 Windows</text>
</g>
<!-- start&#45;&gt;ignore_case -->
<g id="edge1" class="edge">
<title>start&#45;&gt;ignore_case</title>
<path fill="none" stroke="black" d="M199,-1110.81C199,-1102.79 199,-1093.05 199,-1084.07"/>
<polygon fill="black" stroke="black" points="202.5,-1084.03 199,-1074.03 195.5,-1084.03 202.5,-1084.03"/>
</g>
<!-- check_c -->
<g id="node3" class="node">
<title>check_c</title>
<path fill="none" stroke="black" d="M307,-1001C307,-1001 91,-1001 91,-1001 85,-1001 79,-995 79,-989 79,-989 79,-977 79,-977 79,-971 85,-965 91,-965 91,-965 307,-965 307,-965 313,-965 319,-971 319,-977 319,-977 319,-989 319,-989 319,-995 313,-1001 307,-1001"/>
<text text-anchor="middle" x="199" y="-979.3" font-family="Helvetica,sans-Serif" font-size="14.00">检查 name 是否为 &#39;c&#39; (忽略大小写)</text>
</g>
<!-- ignore_case&#45;&gt;check_c -->
<g id="edge2" class="edge">
<title>ignore_case&#45;&gt;check_c</title>
<path fill="none" stroke="black" d="M199,-1037.81C199,-1029.79 199,-1020.05 199,-1011.07"/>
<polygon fill="black" stroke="black" points="202.5,-1011.03 199,-1001.03 195.5,-1011.03 202.5,-1011.03"/>
</g>
<!-- return_true_c -->
<g id="node4" class="node">
<title>return_true_c</title>
<ellipse fill="none" stroke="black" cx="180" cy="-896" rx="50.09" ry="18"/>
<text text-anchor="middle" x="180" y="-892.3" font-family="Helvetica,sans-Serif" font-size="14.00">返回 true</text>
</g>
<!-- check_c&#45;&gt;return_true_c -->
<g id="edge3" class="edge">
<title>check_c&#45;&gt;return_true_c</title>
<path fill="none" stroke="black" d="M195.16,-964.8C192.55,-953.16 189.06,-937.55 186.09,-924.24"/>
<polygon fill="black" stroke="black" points="189.44,-923.17 183.84,-914.18 182.61,-924.7 189.44,-923.17"/>
<text text-anchor="middle" x="198.5" y="-935.8" font-family="Helvetica,sans-Serif" font-size="14.00">是</text>
</g>
<!-- check_mingw -->
<g id="node5" class="node">
<title>check_mingw</title>
<path fill="none" stroke="black" d="M372,-914C372,-914 260,-914 260,-914 254,-914 248,-908 248,-902 248,-902 248,-890 248,-890 248,-884 254,-878 260,-878 260,-878 372,-878 372,-878 378,-878 384,-884 384,-890 384,-890 384,-902 384,-902 384,-908 378,-914 372,-914"/>
<text text-anchor="middle" x="316" y="-892.3" font-family="Helvetica,sans-Serif" font-size="14.00">target 是 MinGW?</text>
</g>
<!-- check_c&#45;&gt;check_mingw -->
<g id="edge4" class="edge">
<title>check_c&#45;&gt;check_mingw</title>
<path fill="none" stroke="black" d="M222.68,-964.8C240.36,-951.95 264.72,-934.26 284.11,-920.17"/>
<polygon fill="black" stroke="black" points="286.33,-922.88 292.36,-914.18 282.21,-917.22 286.33,-922.88"/>
<text text-anchor="middle" x="272.5" y="-935.8" font-family="Helvetica,sans-Serif" font-size="14.00">否</text>
</g>
<!-- check_mingw_libs -->
<g id="node6" class="node">
<title>check_mingw_libs</title>
<path fill="none" stroke="black" d="M289.5,-827C289.5,-827 26.5,-827 26.5,-827 20.5,-827 14.5,-821 14.5,-815 14.5,-815 14.5,-803 14.5,-803 14.5,-797 20.5,-791 26.5,-791 26.5,-791 289.5,-791 289.5,-791 295.5,-791 301.5,-797 301.5,-803 301.5,-803 301.5,-815 301.5,-815 301.5,-821 295.5,-827 289.5,-827"/>
<text text-anchor="middle" x="158" y="-805.3" font-family="Helvetica,sans-Serif" font-size="14.00">检查是否匹配 MinGW 库列表中的任意一个</text>
</g>
<!-- check_mingw&#45;&gt;check_mingw_libs -->
<g id="edge5" class="edge">
<title>check_mingw&#45;&gt;check_mingw_libs</title>
<path fill="none" stroke="black" d="M284.03,-877.8C259.42,-864.56 225.26,-846.18 198.7,-831.9"/>
<polygon fill="black" stroke="black" points="200.12,-828.69 189.66,-827.03 196.8,-834.85 200.12,-828.69"/>
<text text-anchor="middle" x="254.5" y="-848.8" font-family="Helvetica,sans-Serif" font-size="14.00">是</text>
</g>
<!-- check_gnu_musl -->
<g id="node9" class="node">
<title>check_gnu_musl</title>
<path fill="none" stroke="black" d="M506,-827C506,-827 332,-827 332,-827 326,-827 320,-821 320,-815 320,-815 320,-803 320,-803 320,-797 326,-791 332,-791 332,-791 506,-791 506,-791 512,-791 518,-797 518,-803 518,-803 518,-815 518,-815 518,-821 512,-827 506,-827"/>
<text text-anchor="middle" x="419" y="-805.3" font-family="Helvetica,sans-Serif" font-size="14.00">target.abi 是 GNU 或 Musl?</text>
</g>
<!-- check_mingw&#45;&gt;check_gnu_musl -->
<g id="edge6" class="edge">
<title>check_mingw&#45;&gt;check_gnu_musl</title>
<path fill="none" stroke="black" d="M336.84,-877.8C352.2,-865.13 373.28,-847.73 390.24,-833.74"/>
<polygon fill="black" stroke="black" points="392.7,-836.24 398.19,-827.18 388.25,-830.84 392.7,-836.24"/>
<text text-anchor="middle" x="381.5" y="-848.8" font-family="Helvetica,sans-Serif" font-size="14.00">否</text>
</g>
<!-- return_true_mingw -->
<g id="node7" class="node">
<title>return_true_mingw</title>
<ellipse fill="none" stroke="black" cx="55" cy="-722" rx="50.09" ry="18"/>
<text text-anchor="middle" x="55" y="-718.3" font-family="Helvetica,sans-Serif" font-size="14.00">返回 true</text>
</g>
<!-- check_mingw_libs&#45;&gt;return_true_mingw -->
<g id="edge7" class="edge">
<title>check_mingw_libs&#45;&gt;return_true_mingw</title>
<path fill="none" stroke="black" d="M137.16,-790.8C121.29,-777.71 99.33,-759.58 82.1,-745.37"/>
<polygon fill="black" stroke="black" points="84.02,-742.41 74.08,-738.74 79.56,-747.81 84.02,-742.41"/>
<text text-anchor="middle" x="127.5" y="-761.8" font-family="Helvetica,sans-Serif" font-size="14.00">匹配</text>
</g>
<!-- return_false_mingw -->
<g id="node8" class="node">
<title>return_false_mingw</title>
<ellipse fill="none" stroke="black" cx="176" cy="-722" rx="52.79" ry="18"/>
<text text-anchor="middle" x="176" y="-718.3" font-family="Helvetica,sans-Serif" font-size="14.00">返回 false</text>
</g>
<!-- check_mingw_libs&#45;&gt;return_false_mingw -->
<g id="edge8" class="edge">
<title>check_mingw_libs&#45;&gt;return_false_mingw</title>
<path fill="none" stroke="black" d="M161.64,-790.8C164.11,-779.16 167.41,-763.55 170.23,-750.24"/>
<polygon fill="black" stroke="black" points="173.72,-750.68 172.36,-740.18 166.87,-749.23 173.72,-750.68"/>
<text text-anchor="middle" x="190.5" y="-761.8" font-family="Helvetica,sans-Serif" font-size="14.00">不匹配</text>
</g>
<!-- check_gnu_musl_libs -->
<g id="node10" class="node">
<title>check_gnu_musl_libs</title>
<path fill="none" stroke="black" d="M550,-740C550,-740 268,-740 268,-740 262,-740 256,-734 256,-728 256,-728 256,-716 256,-716 256,-710 262,-704 268,-704 268,-704 550,-704 550,-704 556,-704 562,-710 562,-716 562,-716 562,-728 562,-728 562,-734 556,-740 550,-740"/>
<text text-anchor="middle" x="409" y="-718.3" font-family="Helvetica,sans-Serif" font-size="14.00">检查是否匹配 GNU/Musl 库列表中的任意一个</text>
</g>
<!-- check_gnu_musl&#45;&gt;check_gnu_musl_libs -->
<g id="edge9" class="edge">
<title>check_gnu_musl&#45;&gt;check_gnu_musl_libs</title>
<path fill="none" stroke="black" d="M416.98,-790.8C415.61,-779.16 413.77,-763.55 412.2,-750.24"/>
<polygon fill="black" stroke="black" points="415.67,-749.7 411.02,-740.18 408.71,-750.52 415.67,-749.7"/>
<text text-anchor="middle" x="422.5" y="-761.8" font-family="Helvetica,sans-Serif" font-size="14.00">是</text>
</g>
<!-- check_darwin -->
<g id="node13" class="node">
<title>check_darwin</title>
<path fill="none" stroke="black" d="M607.5,-477C607.5,-477 448.5,-477 448.5,-477 442.5,-477 436.5,-471 436.5,-465 436.5,-465 436.5,-453 436.5,-453 436.5,-447 442.5,-441 448.5,-441 448.5,-441 607.5,-441 607.5,-441 613.5,-441 619.5,-447 619.5,-453 619.5,-453 619.5,-465 619.5,-465 619.5,-471 613.5,-477 607.5,-477"/>
<text text-anchor="middle" x="528" y="-455.3" font-family="Helvetica,sans-Serif" font-size="14.00">target.os.tag 是 Darwin?</text>
</g>
<!-- check_gnu_musl&#45;&gt;check_darwin -->
<g id="edge10" class="edge">
<title>check_gnu_musl&#45;&gt;check_darwin</title>
<path fill="none" stroke="black" d="M518.47,-793.44C556.09,-781.78 590,-760.79 590,-723 590,-723 590,-723 590,-546 590,-521.96 573.86,-500.06 558.05,-484.38"/>
<polygon fill="black" stroke="black" points="560.07,-481.48 550.38,-477.2 555.29,-486.59 560.07,-481.48"/>
<text text-anchor="middle" x="597.5" y="-631.3" font-family="Helvetica,sans-Serif" font-size="14.00">否</text>
</g>
<!-- check_musl_specific -->
<g id="node11" class="node">
<title>check_musl_specific</title>
<path fill="none" stroke="black" d="M461,-653C461,-653 357,-653 357,-653 351,-653 345,-647 345,-641 345,-641 345,-629 345,-629 345,-623 351,-617 357,-617 357,-617 461,-617 461,-617 467,-617 473,-623 473,-629 473,-629 473,-641 473,-641 473,-647 467,-653 461,-653"/>
<text text-anchor="middle" x="409" y="-631.3" font-family="Helvetica,sans-Serif" font-size="14.00">检查 Musl 特定库</text>
</g>
<!-- check_gnu_musl_libs&#45;&gt;check_musl_specific -->
<g id="edge11" class="edge">
<title>check_gnu_musl_libs&#45;&gt;check_musl_specific</title>
<path fill="none" stroke="black" d="M409,-703.8C409,-692.16 409,-676.55 409,-663.24"/>
<polygon fill="black" stroke="black" points="412.5,-663.18 409,-653.18 405.5,-663.18 412.5,-663.18"/>
<text text-anchor="middle" x="423.5" y="-674.8" font-family="Helvetica,sans-Serif" font-size="14.00">继续</text>
</g>
<!-- check_gnu_musl_libs&#45;&gt;check_darwin -->
<g id="edge19" class="edge">
<title>check_gnu_musl_libs&#45;&gt;check_darwin</title>
<path fill="none" stroke="black" d="M433.13,-703.88C449.07,-691.42 469.29,-673.24 482,-653 514.91,-600.61 524.28,-526.73 526.95,-487.3"/>
<polygon fill="black" stroke="black" points="530.45,-487.33 527.54,-477.14 523.46,-486.92 530.45,-487.33"/>
<text text-anchor="middle" x="533.5" y="-587.8" font-family="Helvetica,sans-Serif" font-size="14.00">未匹配</text>
</g>
<!-- check_musl_wasi -->
<g id="node12" class="node">
<title>check_musl_wasi</title>
<path fill="none" stroke="black" d="M488,-566C488,-566 330,-566 330,-566 324,-566 318,-560 318,-554 318,-554 318,-540 318,-540 318,-534 324,-528 330,-528 330,-528 488,-528 488,-528 494,-528 500,-534 500,-540 500,-540 500,-554 500,-554 500,-560 494,-566 488,-566"/>
<text text-anchor="middle" x="409" y="-550.8" font-family="Helvetica,sans-Serif" font-size="14.00">target.os.tag == WASI?</text>
<text text-anchor="middle" x="409" y="-535.8" font-family="Helvetica,sans-Serif" font-size="14.00">检查 WASI 相关库</text>
</g>
<!-- check_musl_specific&#45;&gt;check_musl_wasi -->
<g id="edge12" class="edge">
<title>check_musl_specific&#45;&gt;check_musl_wasi</title>
<path fill="none" stroke="black" d="M409,-616.6C409,-605.06 409,-589.65 409,-576.36"/>
<polygon fill="black" stroke="black" points="412.5,-576.27 409,-566.27 405.5,-576.27 412.5,-576.27"/>
<text text-anchor="middle" x="448.5" y="-587.8" font-family="Helvetica,sans-Serif" font-size="14.00">如果是 Musl</text>
</g>
<!-- check_musl_wasi&#45;&gt;check_darwin -->
<g id="edge13" class="edge">
<title>check_musl_wasi&#45;&gt;check_darwin</title>
<path fill="none" stroke="black" d="M433.95,-527.97C451.99,-514.93 476.53,-497.19 496.02,-483.11"/>
<polygon fill="black" stroke="black" points="498.25,-485.82 504.3,-477.13 494.15,-480.15 498.25,-485.82"/>
<text text-anchor="middle" x="494.5" y="-498.8" font-family="Helvetica,sans-Serif" font-size="14.00">继续</text>
</g>
<!-- check_darwin_libs -->
<g id="node14" class="node">
<title>check_darwin_libs</title>
<path fill="none" stroke="black" d="M569.5,-390C569.5,-390 306.5,-390 306.5,-390 300.5,-390 294.5,-384 294.5,-378 294.5,-378 294.5,-366 294.5,-366 294.5,-360 300.5,-354 306.5,-354 306.5,-354 569.5,-354 569.5,-354 575.5,-354 581.5,-360 581.5,-366 581.5,-366 581.5,-378 581.5,-378 581.5,-384 575.5,-390 569.5,-390"/>
<text text-anchor="middle" x="438" y="-368.3" font-family="Helvetica,sans-Serif" font-size="14.00">检查是否匹配 Darwin 库列表中的任意一个</text>
</g>
<!-- check_darwin&#45;&gt;check_darwin_libs -->
<g id="edge14" class="edge">
<title>check_darwin&#45;&gt;check_darwin_libs</title>
<path fill="none" stroke="black" d="M509.79,-440.8C496.49,-428.24 478.29,-411.05 463.54,-397.12"/>
<polygon fill="black" stroke="black" points="465.86,-394.5 456.19,-390.18 461.05,-399.59 465.86,-394.5"/>
<text text-anchor="middle" x="496.5" y="-411.8" font-family="Helvetica,sans-Serif" font-size="14.00">是</text>
</g>
<!-- check_macos_10_8 -->
<g id="node15" class="node">
<title>check_macos_10_8</title>
<path fill="none" stroke="black" d="M585,-303C585,-303 471,-303 471,-303 465,-303 459,-297 459,-291 459,-291 459,-277 459,-277 459,-271 465,-265 471,-265 471,-265 585,-265 585,-265 591,-265 597,-271 597,-277 597,-277 597,-291 597,-291 597,-297 591,-303 585,-303"/>
<text text-anchor="middle" x="528" y="-287.8" font-family="Helvetica,sans-Serif" font-size="14.00">macOS &gt;= 10.8?</text>
<text text-anchor="middle" x="528" y="-272.8" font-family="Helvetica,sans-Serif" font-size="14.00">检查是否匹配 &#39;mx&#39;</text>
</g>
<!-- check_darwin&#45;&gt;check_macos_10_8 -->
<g id="edge15" class="edge">
<title>check_darwin&#45;&gt;check_macos_10_8</title>
<path fill="none" stroke="black" d="M550.97,-440.89C565.48,-428.56 582.95,-410.53 591,-390 596.84,-375.1 596.79,-368.92 591,-354 584.49,-337.22 571.79,-322.02 559.48,-310.19"/>
<polygon fill="black" stroke="black" points="561.67,-307.44 551.93,-303.27 556.94,-312.6 561.67,-307.44"/>
<text text-anchor="middle" x="609.5" y="-368.3" font-family="Helvetica,sans-Serif" font-size="14.00">继续</text>
</g>
<!-- check_darwin_libs&#45;&gt;check_macos_10_8 -->
<g id="edge20" class="edge">
<title>check_darwin_libs&#45;&gt;check_macos_10_8</title>
<path fill="none" stroke="black" d="M456.21,-353.6C469.25,-341.14 487,-324.18 501.58,-310.24"/>
<polygon fill="black" stroke="black" points="504.07,-312.71 508.88,-303.27 499.23,-307.65 504.07,-312.71"/>
<text text-anchor="middle" x="510.5" y="-324.8" font-family="Helvetica,sans-Serif" font-size="14.00">未匹配</text>
</g>
<!-- check_haiku -->
<g id="node16" class="node">
<title>check_haiku</title>
<path fill="none" stroke="black" d="M602.5,-214C602.5,-214 453.5,-214 453.5,-214 447.5,-214 441.5,-208 441.5,-202 441.5,-202 441.5,-188 441.5,-188 441.5,-182 447.5,-176 453.5,-176 453.5,-176 602.5,-176 602.5,-176 608.5,-176 614.5,-182 614.5,-188 614.5,-188 614.5,-202 614.5,-202 614.5,-208 608.5,-214 602.5,-214"/>
<text text-anchor="middle" x="528" y="-198.8" font-family="Helvetica,sans-Serif" font-size="14.00">target.os.tag 是 Haiku?</text>
<text text-anchor="middle" x="528" y="-183.8" font-family="Helvetica,sans-Serif" font-size="14.00">检查 &#39;root&#39; 或 &#39;network&#39;</text>
</g>
<!-- check_macos_10_8&#45;&gt;check_haiku -->
<g id="edge16" class="edge">
<title>check_macos_10_8&#45;&gt;check_haiku</title>
<path fill="none" stroke="black" d="M512.16,-264.72C508.42,-259.36 504.96,-253.24 503,-247 500.51,-239.06 502.38,-230.81 506,-223.33"/>
<polygon fill="black" stroke="black" points="509.25,-224.71 511.34,-214.33 503.23,-221.15 509.25,-224.71"/>
<text text-anchor="middle" x="517.5" y="-235.8" font-family="Helvetica,sans-Serif" font-size="14.00">继续</text>
</g>
<!-- check_macos_10_8&#45;&gt;check_haiku -->
<g id="edge21" class="edge">
<title>check_macos_10_8&#45;&gt;check_haiku</title>
<path fill="none" stroke="black" d="M530.43,-264.72C531.07,-259.05 531.68,-252.78 532,-247 532.4,-239.73 532.14,-231.89 531.59,-224.58"/>
<polygon fill="black" stroke="black" points="535.05,-224.03 530.63,-214.4 528.08,-224.68 535.05,-224.03"/>
<text text-anchor="middle" x="554.5" y="-235.8" font-family="Helvetica,sans-Serif" font-size="14.00">未匹配</text>
</g>
<!-- check_serenity -->
<g id="node17" class="node">
<title>check_serenity</title>
<path fill="none" stroke="black" d="M611.5,-125C611.5,-125 444.5,-125 444.5,-125 438.5,-125 432.5,-119 432.5,-113 432.5,-113 432.5,-99 432.5,-99 432.5,-93 438.5,-87 444.5,-87 444.5,-87 611.5,-87 611.5,-87 617.5,-87 623.5,-93 623.5,-99 623.5,-99 623.5,-113 623.5,-113 623.5,-119 617.5,-125 611.5,-125"/>
<text text-anchor="middle" x="528" y="-109.8" font-family="Helvetica,sans-Serif" font-size="14.00">target.os.tag 是 Serenity?</text>
<text text-anchor="middle" x="528" y="-94.8" font-family="Helvetica,sans-Serif" font-size="14.00">检查相关库</text>
</g>
<!-- check_haiku&#45;&gt;check_serenity -->
<g id="edge17" class="edge">
<title>check_haiku&#45;&gt;check_serenity</title>
<path fill="none" stroke="black" d="M516.93,-175.94C514.1,-170.39 511.44,-164.12 510,-158 508.17,-150.25 509.53,-142.03 512.16,-134.51"/>
<polygon fill="black" stroke="black" points="515.47,-135.7 516.2,-125.13 509.04,-132.93 515.47,-135.7"/>
<text text-anchor="middle" x="517.5" y="-146.8" font-family="Helvetica,sans-Serif" font-size="14.00">否</text>
</g>
<!-- check_haiku&#45;&gt;check_serenity -->
<g id="edge22" class="edge">
<title>check_haiku&#45;&gt;check_serenity</title>
<path fill="none" stroke="black" d="M528,-175.97C528,-164.19 528,-148.56 528,-135.16"/>
<polygon fill="black" stroke="black" points="531.5,-135 528,-125 524.5,-135 531.5,-135"/>
<text text-anchor="middle" x="549.5" y="-146.8" font-family="Helvetica,sans-Serif" font-size="14.00">未匹配</text>
</g>
<!-- return_false -->
<g id="node18" class="node">
<title>return_false</title>
<ellipse fill="none" stroke="black" cx="528" cy="-18" rx="52.79" ry="18"/>
<text text-anchor="middle" x="528" y="-14.3" font-family="Helvetica,sans-Serif" font-size="14.00">返回 false</text>
</g>
<!-- check_serenity&#45;&gt;return_false -->
<g id="edge18" class="edge">
<title>check_serenity&#45;&gt;return_false</title>
<path fill="none" stroke="black" d="M484.41,-86.88C470.53,-78.29 460.51,-67.04 468,-54 471.97,-47.09 477.89,-41.41 484.49,-36.8"/>
<polygon fill="black" stroke="black" points="486.42,-39.72 493.11,-31.5 482.76,-33.75 486.42,-39.72"/>
<text text-anchor="middle" x="518" y="-57.8" font-family="Helvetica,sans-Serif" font-size="14.00">所有条件不满足</text>
</g>
<!-- check_serenity&#45;&gt;return_false -->
<g id="edge23" class="edge">
<title>check_serenity&#45;&gt;return_false</title>
<path fill="none" stroke="black" d="M554.82,-86.64C560.16,-81.6 565.04,-75.66 568,-69 572.47,-58.97 567.53,-49.24 559.79,-41.07"/>
<polygon fill="black" stroke="black" points="561.82,-38.18 552.07,-34.04 557.11,-43.36 561.82,-38.18"/>
<text text-anchor="middle" x="591.5" y="-57.8" font-family="Helvetica,sans-Serif" font-size="14.00">未匹配</text>
</g>
</g>
</svg>
