<?xml version="1.0" encoding="UTF-8" standalone="no"?>
<!DOCTYPE svg PUBLIC "-//W3C//DTD SVG 1.1//EN"
 "http://www.w3.org/Graphics/SVG/1.1/DTD/svg11.dtd">
<!-- Generated by graphviz version 2.43.0 (0)
 -->
<!-- Title: flowchart Pages: 1 -->
<svg width="1123pt" height="426pt"
 viewBox="0.00 0.00 1123.45 426.00" xmlns="http://www.w3.org/2000/svg" xmlns:xlink="http://www.w3.org/1999/xlink">
<g id="graph0" class="graph" transform="scale(1 1) rotate(0) translate(4 422)">
<title>flowchart</title>
<polygon fill="white" stroke="transparent" points="-4,4 -4,-422 1119.45,-422 1119.45,4 -4,4"/>
<!-- start -->
<g id="node1" class="node">
<title>start</title>
<polygon fill="none" stroke="black" points="444.95,-418 283.95,-418 283.95,-382 444.95,-382 444.95,-418"/>
<text text-anchor="middle" x="364.45" y="-397.5" font-family="Courier,monospace" font-size="10.00">Start: node = start_node</text>
</g>
<!-- loop -->
<g id="node2" class="node">
<title>loop</title>
<polygon fill="none" stroke="black" points="391.45,-345 337.45,-345 337.45,-309 391.45,-309 391.45,-345"/>
<text text-anchor="middle" x="364.45" y="-324.5" font-family="Courier,monospace" font-size="10.00">Loop</text>
</g>
<!-- start&#45;&gt;loop -->
<g id="edge1" class="edge">
<title>start&#45;&gt;loop</title>
<path fill="none" stroke="black" d="M364.45,-381.81C364.45,-373.79 364.45,-364.05 364.45,-355.07"/>
<polygon fill="black" stroke="black" points="367.96,-355.03 364.45,-345.03 360.96,-355.03 367.96,-355.03"/>
</g>
<!-- switch -->
<g id="node3" class="node">
<title>switch</title>
<polygon fill="none" stroke="black" points="447.95,-229 280.95,-229 280.95,-193 447.95,-193 447.95,-229"/>
<text text-anchor="middle" x="364.45" y="-208.5" font-family="Courier,monospace" font-size="10.00">Switch tree.nodeTag(node)</text>
</g>
<!-- loop&#45;&gt;switch -->
<g id="edge2" class="edge">
<title>loop&#45;&gt;switch</title>
<path fill="none" stroke="black" d="M363.28,-308.92C362.94,-303.22 362.62,-296.84 362.45,-291 361.9,-271.45 361.9,-266.55 362.45,-247 362.53,-244.44 362.63,-241.79 362.75,-239.13"/>
<polygon fill="black" stroke="black" points="366.25,-239.25 363.28,-229.08 359.26,-238.88 366.25,-239.25"/>
</g>
<!-- switch&#45;&gt;loop -->
<g id="edge7" class="edge">
<title>switch&#45;&gt;loop</title>
<path fill="none" stroke="black" d="M364.45,-229.1C364.45,-247.46 364.45,-276.88 364.45,-298.49"/>
<polygon fill="black" stroke="black" points="360.96,-298.69 364.45,-308.69 367.96,-298.69 360.96,-298.69"/>
<text text-anchor="middle" x="430.95" y="-283" font-family="Courier,monospace" font-size="10.00">.try, .await,</text>
<text text-anchor="middle" x="430.95" y="-272" font-family="Courier,monospace" font-size="10.00">.comptime, .nosuspend,</text>
<text text-anchor="middle" x="430.95" y="-261" font-family="Courier,monospace" font-size="10.00">.grouped_expression,</text>
<text text-anchor="middle" x="430.95" y="-250" font-family="Courier,monospace" font-size="10.00">.unwrap_optional</text>
</g>
<!-- return_always -->
<g id="node4" class="node">
<title>return_always</title>
<ellipse fill="none" stroke="black" cx="59.45" cy="-103.5" rx="59.41" ry="18"/>
<text text-anchor="middle" x="59.45" y="-101" font-family="Courier,monospace" font-size="10.00">Return .always</text>
</g>
<!-- switch&#45;&gt;return_always -->
<g id="edge3" class="edge">
<title>switch&#45;&gt;return_always</title>
<path fill="none" stroke="black" d="M280.88,-205.41C198.35,-200.05 82.36,-189.97 67.45,-175 56.4,-163.9 54.36,-146.44 55.1,-131.67"/>
<polygon fill="black" stroke="black" points="58.6,-131.8 56.04,-121.52 51.63,-131.15 58.6,-131.8"/>
<text text-anchor="middle" x="103.95" y="-156" font-family="Courier,monospace" font-size="10.00">.error_value</text>
</g>
<!-- return_maybe -->
<g id="node5" class="node">
<title>return_maybe</title>
<ellipse fill="none" stroke="black" cx="357.45" cy="-18" rx="55.85" ry="18"/>
<text text-anchor="middle" x="357.45" y="-15.5" font-family="Courier,monospace" font-size="10.00">Return .maybe</text>
</g>
<!-- switch&#45;&gt;return_maybe -->
<g id="edge4" class="edge">
<title>switch&#45;&gt;return_maybe</title>
<path fill="none" stroke="black" d="M280.7,-195.39C239.49,-183.53 193.4,-162.19 168.45,-124 133.31,-70.2 229.71,-41.4 297.42,-28.22"/>
<polygon fill="black" stroke="black" points="298.42,-31.59 307.6,-26.31 297.13,-24.71 298.42,-31.59"/>
<text text-anchor="middle" x="222.95" y="-106.5" font-family="Courier,monospace" font-size="10.00">.asm, .identifier,</text>
<text text-anchor="middle" x="222.95" y="-95.5" font-family="Courier,monospace" font-size="10.00">.field_access, ...</text>
</g>
<!-- switch&#45;&gt;return_maybe -->
<g id="edge6" class="edge">
<title>switch&#45;&gt;return_maybe</title>
<path fill="none" stroke="black" d="M348.85,-192.77C335.19,-176.42 316.31,-150.47 308.45,-124 303.27,-106.53 302.61,-100.26 308.45,-83 313.48,-68.18 323.47,-54.09 333.12,-42.92"/>
<polygon fill="black" stroke="black" points="335.88,-45.09 340.02,-35.34 330.7,-40.38 335.88,-45.09"/>
<text text-anchor="middle" x="353.95" y="-101" font-family="Courier,monospace" font-size="10.00">.catch, .orelse</text>
</g>
<!-- return_never -->
<g id="node6" class="node">
<title>return_never</title>
<ellipse fill="none" stroke="black" cx="944.45" cy="-18" rx="55.85" ry="18"/>
<text text-anchor="middle" x="944.45" y="-15.5" font-family="Courier,monospace" font-size="10.00">Return .never</text>
</g>
<!-- switch&#45;&gt;return_never -->
<g id="edge5" class="edge">
<title>switch&#45;&gt;return_never</title>
<path fill="none" stroke="black" d="M448.19,-210.71C598.54,-210.05 905.09,-199.24 974.45,-124 995.9,-100.74 1001.04,-82.58 987.45,-54 985.19,-49.23 981.92,-44.9 978.18,-41.04"/>
<polygon fill="black" stroke="black" points="980.34,-38.27 970.56,-34.19 975.66,-43.48 980.34,-38.27"/>
<text text-anchor="middle" x="1054.95" y="-106.5" font-family="Courier,monospace" font-size="10.00">.number_literal,</text>
<text text-anchor="middle" x="1054.95" y="-95.5" font-family="Courier,monospace" font-size="10.00">.string_literal, ...</text>
</g>
<!-- check_labeled_block -->
<g id="node7" class="node">
<title>check_labeled_block</title>
<polygon fill="none" stroke="black" points="647.95,-121.5 408.95,-121.5 408.95,-85.5 647.95,-85.5 647.95,-121.5"/>
<text text-anchor="middle" x="528.45" y="-106.5" font-family="Courier,monospace" font-size="10.00">lbrace = tree.nodeMainToken(node)</text>
<text text-anchor="middle" x="528.45" y="-95.5" font-family="Courier,monospace" font-size="10.00">Is tree.tokenTag(lbrace&#45;1) == .colon?</text>
</g>
<!-- switch&#45;&gt;check_labeled_block -->
<g id="edge8" class="edge">
<title>switch&#45;&gt;check_labeled_block</title>
<path fill="none" stroke="black" d="M391.17,-192.81C419.01,-174.91 462.76,-146.76 493.37,-127.07"/>
<polygon fill="black" stroke="black" points="495.51,-129.86 502.02,-121.5 491.72,-123.97 495.51,-129.86"/>
<text text-anchor="middle" x="538.95" y="-167" font-family="Courier,monospace" font-size="10.00">.block_two,</text>
<text text-anchor="middle" x="538.95" y="-156" font-family="Courier,monospace" font-size="10.00">.block_two_semicolon,</text>
<text text-anchor="middle" x="538.95" y="-145" font-family="Courier,monospace" font-size="10.00">.block, .block_semicolon</text>
</g>
<!-- check_builtin -->
<g id="node8" class="node">
<title>check_builtin</title>
<polygon fill="none" stroke="black" points="964.95,-124 665.95,-124 665.95,-83 964.95,-83 964.95,-124"/>
<text text-anchor="middle" x="815.45" y="-112" font-family="Courier,monospace" font-size="10.00">builtin_token = tree.nodeMainToken(node)</text>
<text text-anchor="middle" x="815.45" y="-101" font-family="Courier,monospace" font-size="10.00">builtin_name = tokenSlice(builtin_token)</text>
<text text-anchor="middle" x="815.45" y="-90" font-family="Courier,monospace" font-size="10.00">builtin_info = BuiltinFn.list.get(builtin_name)</text>
</g>
<!-- switch&#45;&gt;check_builtin -->
<g id="edge11" class="edge">
<title>switch&#45;&gt;check_builtin</title>
<path fill="none" stroke="black" d="M448.05,-202.58C497.25,-197.17 560.41,-188.4 615.45,-175 665.03,-162.94 719.53,-143.28 759.11,-127.78"/>
<polygon fill="black" stroke="black" points="760.57,-130.96 768.58,-124.04 757.99,-124.45 760.57,-130.96"/>
<text text-anchor="middle" x="761.95" y="-156" font-family="Courier,monospace" font-size="10.00">.builtin_call*</text>
</g>
<!-- check_labeled_block&#45;&gt;return_maybe -->
<g id="edge9" class="edge">
<title>check_labeled_block&#45;&gt;return_maybe</title>
<path fill="none" stroke="black" d="M493.44,-85.4C465.14,-71.58 425.34,-52.15 396.1,-37.87"/>
<polygon fill="black" stroke="black" points="397.53,-34.68 387.01,-33.43 394.46,-40.97 397.53,-34.68"/>
<text text-anchor="middle" x="457.95" y="-57" font-family="Courier,monospace" font-size="10.00">Yes</text>
</g>
<!-- check_labeled_block&#45;&gt;return_never -->
<g id="edge10" class="edge">
<title>check_labeled_block&#45;&gt;return_never</title>
<path fill="none" stroke="black" d="M547.42,-85.46C560.92,-74.42 580.03,-60.86 599.45,-54 693.62,-20.72 724.18,-46.95 823.45,-36 843.57,-33.78 865.49,-30.86 885.08,-28.06"/>
<polygon fill="black" stroke="black" points="885.69,-31.51 895.09,-26.61 884.69,-24.58 885.69,-31.51"/>
<text text-anchor="middle" x="605.95" y="-57" font-family="Courier,monospace" font-size="10.00">No</text>
</g>
<!-- check_builtin&#45;&gt;return_maybe -->
<g id="edge12" class="edge">
<title>check_builtin&#45;&gt;return_maybe</title>
<path fill="none" stroke="black" d="M734.59,-82.99C680.76,-70.03 618.79,-55.19 612.45,-54 546.99,-41.72 471.3,-31.87 419.5,-25.79"/>
<polygon fill="black" stroke="black" points="419.8,-22.3 409.46,-24.62 418.99,-29.25 419.8,-22.3"/>
<text text-anchor="middle" x="716.95" y="-57" font-family="Courier,monospace" font-size="10.00">builtin_info == null</text>
</g>
<!-- return -->
<g id="node9" class="node">
<title>return</title>
<polygon fill="none" stroke="black" points="814.45,-36 760.45,-36 760.45,0 814.45,0 814.45,-36"/>
<text text-anchor="middle" x="787.45" y="-15.5" font-family="Courier,monospace" font-size="10.00">return</text>
</g>
<!-- check_builtin&#45;&gt;return -->
<g id="edge13" class="edge">
<title>check_builtin&#45;&gt;return</title>
<path fill="none" stroke="black" d="M797.88,-82.72C794.06,-77.33 790.54,-71.24 788.45,-65 786.47,-59.08 785.61,-52.49 785.36,-46.18"/>
<polygon fill="black" stroke="black" points="788.87,-46.05 785.45,-36.02 781.87,-45.99 788.87,-46.05"/>
<text text-anchor="middle" x="887.95" y="-57" font-family="Courier,monospace" font-size="10.00">Return builtin_info.eval_to_error</text>
</g>
</g>
</svg>
