<?xml version="1.0" encoding="UTF-8" standalone="no"?>
<!DOCTYPE svg PUBLIC "-//W3C//DTD SVG 1.1//EN"
 "http://www.w3.org/Graphics/SVG/1.1/DTD/svg11.dtd">
<!-- Generated by graphviz version 2.43.0 (0)
 -->
<!-- Title: ParseTypeExprFlowchart Pages: 1 -->
<svg width="2383pt" height="343pt"
 viewBox="0.00 0.00 2382.57 343.00" xmlns="http://www.w3.org/2000/svg" xmlns:xlink="http://www.w3.org/1999/xlink">
<g id="graph0" class="graph" transform="scale(1 1) rotate(0) translate(4 339)">
<title>ParseTypeExprFlowchart</title>
<polygon fill="white" stroke="transparent" points="-4,4 -4,-339 2378.57,-339 2378.57,4 -4,4"/>
<g id="clust1" class="cluster">
<title>cluster_main_switch</title>
<polygon fill="none" stroke="black" points="276.5,-8 276.5,-262 1211.5,-262 1211.5,-8 276.5,-8"/>
<text text-anchor="middle" x="744" y="-246.8" font-family="Times,serif" font-size="14.00">Main Token Switch</text>
</g>
<!-- start -->
<g id="node1" class="node">
<title>start</title>
<ellipse fill="none" stroke="black" cx="1054.5" cy="-317" rx="84.36" ry="18"/>
<text text-anchor="middle" x="1054.5" y="-314.5" font-family="Courier,monospace" font-size="10.00">Start parseTypeExpr()</text>
</g>
<!-- switch_token -->
<g id="node3" class="node">
<title>switch_token</title>
<polygon fill="none" stroke="black" points="1054.5,-208 905.47,-190 1054.5,-172 1203.53,-190 1054.5,-208"/>
<text text-anchor="middle" x="1054.5" y="-187.5" font-family="Courier,monospace" font-size="10.00">switch(p.tokenTag(p.tok_i))</text>
</g>
<!-- start&#45;&gt;switch_token -->
<g id="edge1" class="edge">
<title>start&#45;&gt;switch_token</title>
<path fill="none" stroke="black" d="M1054.5,-298.88C1054.5,-278.15 1054.5,-242.95 1054.5,-218.42"/>
<polygon fill="black" stroke="black" points="1058,-218.31 1054.5,-208.31 1051,-218.31 1058,-218.31"/>
<text text-anchor="middle" x="1112" y="-273" font-family="Courier,monospace" font-size="10.00">Check current token</text>
</g>
<!-- end -->
<g id="node2" class="node">
<title>end</title>
<ellipse fill="none" stroke="black" cx="788.5" cy="-34" rx="70.1" ry="18"/>
<text text-anchor="middle" x="788.5" y="-31.5" font-family="Courier,monospace" font-size="10.00">Return Node.Index</text>
</g>
<!-- case_question_mark -->
<g id="node4" class="node">
<title>case_question_mark</title>
<polygon fill="none" stroke="black" points="1473,-208 1306,-208 1306,-172 1473,-172 1473,-208"/>
<text text-anchor="middle" x="1389.5" y="-193" font-family="Courier,monospace" font-size="10.00">Create optional_type node</text>
<text text-anchor="middle" x="1389.5" y="-182" font-family="Courier,monospace" font-size="10.00">Call expectTypeExpr()</text>
</g>
<!-- switch_token&#45;&gt;case_question_mark -->
<g id="edge2" class="edge">
<title>switch_token&#45;&gt;case_question_mark</title>
<path fill="none" stroke="black" d="M1203.87,-190C1234.95,-190 1266.88,-190 1295.29,-190"/>
<polygon fill="black" stroke="black" points="1295.59,-193.5 1305.59,-190 1295.59,-186.5 1295.59,-193.5"/>
<text text-anchor="middle" x="1254.76" y="-196" font-family="Courier,monospace" font-size="10.00">.question_mark</text>
</g>
<!-- case_anyframe -->
<g id="node6" class="node">
<title>case_anyframe</title>
<polygon fill="none" stroke="black" points="1585.5,-208 1491.36,-190 1585.5,-172 1679.64,-190 1585.5,-208"/>
<text text-anchor="middle" x="1585.5" y="-187.5" font-family="Courier,monospace" font-size="10.00">Check next token</text>
</g>
<!-- switch_token&#45;&gt;case_anyframe -->
<g id="edge5" class="edge">
<title>switch_token&#45;&gt;case_anyframe</title>
<path fill="none" stroke="black" d="M1085.76,-204.32C1157.32,-235.1 1338.02,-301.39 1482.5,-258 1512.49,-248.99 1541.8,-228.11 1561.44,-211.85"/>
<polygon fill="black" stroke="black" points="1563.89,-214.36 1569.24,-205.21 1559.35,-209.03 1563.89,-214.36"/>
<text text-anchor="middle" x="1272.5" y="-273" font-family="Courier,monospace" font-size="10.00">.keyword_anyframe</text>
</g>
<!-- case_asterisk -->
<g id="node10" class="node">
<title>case_asterisk</title>
<polygon fill="none" stroke="black" points="1989,-208 1822,-208 1822,-172 1989,-172 1989,-208"/>
<text text-anchor="middle" x="1905.5" y="-193" font-family="Courier,monospace" font-size="10.00">Parse pointer modifiers</text>
<text text-anchor="middle" x="1905.5" y="-182" font-family="Courier,monospace" font-size="10.00">Check bit_range/addrspace</text>
</g>
<!-- switch_token&#45;&gt;case_asterisk -->
<g id="edge10" class="edge">
<title>switch_token&#45;&gt;case_asterisk</title>
<path fill="none" stroke="black" d="M1091.3,-203.7C1138.33,-220.42 1222.63,-247.72 1297.5,-258 1469.66,-281.63 1516.72,-284.28 1688.5,-258 1745.83,-249.23 1808.81,-228.13 1852.08,-211.75"/>
<polygon fill="black" stroke="black" points="1853.47,-214.97 1861.55,-208.12 1850.96,-208.43 1853.47,-214.97"/>
<text text-anchor="middle" x="1776.5" y="-273" font-family="Courier,monospace" font-size="10.00">.asterisk</text>
</g>
<!-- case_double_asterisk -->
<g id="node14" class="node">
<title>case_double_asterisk</title>
<polygon fill="none" stroke="black" points="2168,-208 2007,-208 2007,-172 2168,-172 2168,-208"/>
<text text-anchor="middle" x="2087.5" y="-193" font-family="Courier,monospace" font-size="10.00">Parse pointer modifiers</text>
<text text-anchor="middle" x="2087.5" y="-182" font-family="Courier,monospace" font-size="10.00">Build inner pointer type</text>
</g>
<!-- switch_token&#45;&gt;case_double_asterisk -->
<g id="edge17" class="edge">
<title>switch_token&#45;&gt;case_double_asterisk</title>
<path fill="none" stroke="black" d="M1091.3,-203.7C1138.33,-220.42 1222.63,-247.72 1297.5,-258 1374.67,-268.59 1924.72,-282.96 1998.5,-258 2023.35,-249.59 2046.73,-231.16 2063.28,-215.6"/>
<polygon fill="black" stroke="black" points="2066.11,-217.74 2070.84,-208.25 2061.23,-212.72 2066.11,-217.74"/>
<text text-anchor="middle" x="1623.5" y="-273" font-family="Courier,monospace" font-size="10.00">.asterisk_asterisk</text>
</g>
<!-- case_lbracket -->
<g id="node17" class="node">
<title>case_lbracket</title>
<polygon fill="none" stroke="black" points="2280.5,-208 2186.36,-190 2280.5,-172 2374.64,-190 2280.5,-208"/>
<text text-anchor="middle" x="2280.5" y="-187.5" font-family="Courier,monospace" font-size="10.00">Check next token</text>
</g>
<!-- switch_token&#45;&gt;case_lbracket -->
<g id="edge21" class="edge">
<title>switch_token&#45;&gt;case_lbracket</title>
<path fill="none" stroke="black" d="M1091.3,-203.7C1138.33,-220.42 1222.63,-247.72 1297.5,-258 1394.37,-271.3 2083.85,-286.12 2177.5,-258 2207.49,-248.99 2236.8,-228.11 2256.44,-211.85"/>
<polygon fill="black" stroke="black" points="2258.89,-214.36 2264.24,-205.21 2254.35,-209.03 2258.89,-214.36"/>
<text text-anchor="middle" x="1713.5" y="-273" font-family="Courier,monospace" font-size="10.00">.l_bracket</text>
</g>
<!-- parse_error_union_2 -->
<g id="node23" class="node">
<title>parse_error_union_2</title>
<polygon fill="none" stroke="black" points="875,-125 702,-125 702,-89 875,-89 875,-125"/>
<text text-anchor="middle" x="788.5" y="-104.5" font-family="Courier,monospace" font-size="10.00">Call parseErrorUnionExpr()</text>
</g>
<!-- switch_token&#45;&gt;parse_error_union_2 -->
<g id="edge30" class="edge">
<title>switch_token&#45;&gt;parse_error_union_2</title>
<path fill="none" stroke="black" d="M1014.39,-176.79C972.07,-163.9 904.7,-143.38 854.53,-128.11"/>
<polygon fill="black" stroke="black" points="855.32,-124.69 844.74,-125.12 853.28,-131.39 855.32,-124.69"/>
<text text-anchor="middle" x="949" y="-146" font-family="Courier,monospace" font-size="10.00">else</text>
</g>
<!-- add_optional_node -->
<g id="node5" class="node">
<title>add_optional_node</title>
<polygon fill="none" stroke="black" points="1012,-125 893,-125 893,-89 1012,-89 1012,-125"/>
<text text-anchor="middle" x="952.5" y="-104.5" font-family="Courier,monospace" font-size="10.00">add_optional_node</text>
</g>
<!-- case_question_mark&#45;&gt;add_optional_node -->
<g id="edge3" class="edge">
<title>case_question_mark&#45;&gt;add_optional_node</title>
<path fill="none" stroke="black" d="M1305.88,-176.15C1233.42,-164.63 1125.59,-146.55 1022.27,-125.09"/>
<polygon fill="black" stroke="black" points="1022.79,-121.62 1012.28,-123 1021.35,-128.47 1022.79,-121.62"/>
<text text-anchor="middle" x="1197" y="-146" font-family="Courier,monospace" font-size="10.00">Add node</text>
</g>
<!-- add_optional_node&#45;&gt;end -->
<g id="edge4" class="edge">
<title>add_optional_node&#45;&gt;end</title>
<path fill="none" stroke="black" d="M913.22,-88.99C888.77,-78.41 857.28,-64.78 832.07,-53.86"/>
<polygon fill="black" stroke="black" points="833.3,-50.58 822.74,-49.82 830.52,-57.01 833.3,-50.58"/>
</g>
<!-- anyframe_arrow -->
<g id="node7" class="node">
<title>anyframe_arrow</title>
<polygon fill="none" stroke="black" points="887,-208 720,-208 720,-172 887,-172 887,-208"/>
<text text-anchor="middle" x="803.5" y="-193" font-family="Courier,monospace" font-size="10.00">Create anyframe_type node</text>
<text text-anchor="middle" x="803.5" y="-182" font-family="Courier,monospace" font-size="10.00">Call expectTypeExpr()</text>
</g>
<!-- case_anyframe&#45;&gt;anyframe_arrow -->
<g id="edge6" class="edge">
<title>case_anyframe&#45;&gt;anyframe_arrow</title>
<path fill="none" stroke="black" d="M1569.24,-205.21C1550.16,-221.91 1516.77,-247.71 1482.5,-258 1420.14,-276.73 958.39,-278.21 896.5,-258 870.61,-249.55 845.96,-230.85 828.54,-215.2"/>
<polygon fill="black" stroke="black" points="830.79,-212.5 821.08,-208.27 826.03,-217.64 830.79,-212.5"/>
<text text-anchor="middle" x="1347.5" y="-273" font-family="Courier,monospace" font-size="10.00">.arrow</text>
</g>
<!-- parse_error_union_1 -->
<g id="node9" class="node">
<title>parse_error_union_1</title>
<polygon fill="none" stroke="black" points="1203,-125 1030,-125 1030,-89 1203,-89 1203,-125"/>
<text text-anchor="middle" x="1116.5" y="-104.5" font-family="Courier,monospace" font-size="10.00">Call parseErrorUnionExpr()</text>
</g>
<!-- case_anyframe&#45;&gt;parse_error_union_1 -->
<g id="edge9" class="edge">
<title>case_anyframe&#45;&gt;parse_error_union_1</title>
<path fill="none" stroke="black" d="M1538.38,-180.86C1462.7,-167.79 1312.5,-141.85 1213.27,-124.71"/>
<polygon fill="black" stroke="black" points="1213.68,-121.23 1203.23,-122.98 1212.49,-128.13 1213.68,-121.23"/>
<text text-anchor="middle" x="1391" y="-146" font-family="Courier,monospace" font-size="10.00">else</text>
</g>
<!-- add_anyframe_node -->
<g id="node8" class="node">
<title>add_anyframe_node</title>
<polygon fill="none" stroke="black" points="684,-125 565,-125 565,-89 684,-89 684,-125"/>
<text text-anchor="middle" x="624.5" y="-104.5" font-family="Courier,monospace" font-size="10.00">add_anyframe_node</text>
</g>
<!-- anyframe_arrow&#45;&gt;add_anyframe_node -->
<g id="edge7" class="edge">
<title>anyframe_arrow&#45;&gt;add_anyframe_node</title>
<path fill="none" stroke="black" d="M777.49,-171.89C762.66,-162.59 743.48,-151.32 725.5,-143 714.14,-137.74 701.75,-132.83 689.66,-128.44"/>
<polygon fill="black" stroke="black" points="690.66,-125.08 680.06,-125.03 688.32,-131.67 690.66,-125.08"/>
<text text-anchor="middle" x="769" y="-146" font-family="Courier,monospace" font-size="10.00">Add node</text>
</g>
<!-- add_anyframe_node&#45;&gt;end -->
<g id="edge8" class="edge">
<title>add_anyframe_node&#45;&gt;end</title>
<path fill="none" stroke="black" d="M663.78,-88.99C688.23,-78.41 719.72,-64.78 744.93,-53.86"/>
<polygon fill="black" stroke="black" points="746.48,-57.01 754.26,-49.82 743.7,-50.58 746.48,-57.01"/>
</g>
<!-- parse_error_union_1&#45;&gt;end -->
<g id="edge31" class="edge">
<title>parse_error_union_1&#45;&gt;end</title>
<path fill="none" stroke="black" d="M1037.94,-88.99C980.43,-76.55 903.47,-59.89 850.32,-48.38"/>
<polygon fill="black" stroke="black" points="850.86,-44.92 840.35,-46.22 849.38,-51.76 850.86,-44.92"/>
</g>
<!-- ptr_bit_range -->
<g id="node11" class="node">
<title>ptr_bit_range</title>
<polygon fill="none" stroke="black" points="1765,-125 1598,-125 1598,-89 1765,-89 1765,-125"/>
<text text-anchor="middle" x="1681.5" y="-104.5" font-family="Courier,monospace" font-size="10.00">Create ptr_type_bit_range</text>
</g>
<!-- case_asterisk&#45;&gt;ptr_bit_range -->
<g id="edge11" class="edge">
<title>case_asterisk&#45;&gt;ptr_bit_range</title>
<path fill="none" stroke="black" d="M1840.28,-171.93C1822.06,-166.67 1802.37,-160.54 1784.5,-154 1764.92,-146.84 1743.82,-137.68 1725.84,-129.42"/>
<polygon fill="black" stroke="black" points="1727.29,-126.24 1716.75,-125.2 1724.35,-132.59 1727.29,-126.24"/>
<text text-anchor="middle" x="1833" y="-146" font-family="Courier,monospace" font-size="10.00">bit_range exists</text>
</g>
<!-- ptr_addrspace -->
<g id="node12" class="node">
<title>ptr_addrspace</title>
<polygon fill="none" stroke="black" points="1924,-125 1817,-125 1817,-89 1924,-89 1924,-125"/>
<text text-anchor="middle" x="1870.5" y="-104.5" font-family="Courier,monospace" font-size="10.00">Create ptr_type</text>
</g>
<!-- case_asterisk&#45;&gt;ptr_addrspace -->
<g id="edge13" class="edge">
<title>case_asterisk&#45;&gt;ptr_addrspace</title>
<path fill="none" stroke="black" d="M1898.08,-171.82C1893.39,-160.98 1887.24,-146.74 1881.94,-134.47"/>
<polygon fill="black" stroke="black" points="1885.09,-132.94 1877.91,-125.15 1878.67,-135.72 1885.09,-132.94"/>
<text text-anchor="middle" x="1938" y="-146" font-family="Courier,monospace" font-size="10.00">addrspace exists</text>
</g>
<!-- ptr_aligned -->
<g id="node13" class="node">
<title>ptr_aligned</title>
<polygon fill="none" stroke="black" points="1512,-125 1357,-125 1357,-89 1512,-89 1512,-125"/>
<text text-anchor="middle" x="1434.5" y="-104.5" font-family="Courier,monospace" font-size="10.00">Create ptr_type_aligned</text>
</g>
<!-- case_asterisk&#45;&gt;ptr_aligned -->
<g id="edge15" class="edge">
<title>case_asterisk&#45;&gt;ptr_aligned</title>
<path fill="none" stroke="black" d="M1821.84,-174.61C1737.54,-160.12 1608,-137.84 1522.27,-123.1"/>
<polygon fill="black" stroke="black" points="1522.75,-119.63 1512.3,-121.38 1521.57,-126.52 1522.75,-119.63"/>
<text text-anchor="middle" x="1719" y="-146" font-family="Courier,monospace" font-size="10.00">default</text>
</g>
<!-- ptr_bit_range&#45;&gt;end -->
<g id="edge12" class="edge">
<title>ptr_bit_range&#45;&gt;end</title>
<path fill="none" stroke="black" d="M1597.68,-96.58C1573.14,-93.96 1546.26,-91.23 1521.5,-89 1282.76,-67.53 999.69,-48.49 865.91,-39.88"/>
<polygon fill="black" stroke="black" points="865.97,-36.37 855.76,-39.23 865.52,-43.36 865.97,-36.37"/>
</g>
<!-- ptr_addrspace&#45;&gt;end -->
<g id="edge14" class="edge">
<title>ptr_addrspace&#45;&gt;end</title>
<path fill="none" stroke="black" d="M1816.85,-95.32C1803.09,-92.91 1788.29,-90.59 1774.5,-89 1439.25,-50.28 1036.57,-39.18 868.39,-36.11"/>
<polygon fill="black" stroke="black" points="868.44,-32.62 858.38,-35.94 868.32,-39.61 868.44,-32.62"/>
</g>
<!-- ptr_aligned&#45;&gt;end -->
<g id="edge16" class="edge">
<title>ptr_aligned&#45;&gt;end</title>
<path fill="none" stroke="black" d="M1356.9,-97.47C1231.2,-83.66 984.76,-56.57 861.85,-43.06"/>
<polygon fill="black" stroke="black" points="862.1,-39.57 851.78,-41.95 861.34,-46.53 862.1,-39.57"/>
</g>
<!-- create_inner_ptr -->
<g id="node15" class="node">
<title>create_inner_ptr</title>
<polygon fill="none" stroke="black" points="702,-208 589,-208 589,-172 702,-172 702,-208"/>
<text text-anchor="middle" x="645.5" y="-187.5" font-family="Courier,monospace" font-size="10.00">create_inner_ptr</text>
</g>
<!-- case_double_asterisk&#45;&gt;create_inner_ptr -->
<g id="edge18" class="edge">
<title>case_double_asterisk&#45;&gt;create_inner_ptr</title>
<path fill="none" stroke="black" d="M2070.84,-208.25C2054.34,-224.86 2027.42,-248.22 1998.5,-258 1930.77,-280.91 777.35,-285.85 711.5,-258 691.43,-249.51 674.46,-231.6 662.75,-216.29"/>
<polygon fill="black" stroke="black" points="665.52,-214.15 656.8,-208.13 659.87,-218.27 665.52,-214.15"/>
<text text-anchor="middle" x="1512.5" y="-273" font-family="Courier,monospace" font-size="10.00">Create inner node</text>
</g>
<!-- wrap_ptr_aligned -->
<g id="node16" class="node">
<title>wrap_ptr_aligned</title>
<polygon fill="none" stroke="black" points="547,-125 434,-125 434,-89 547,-89 547,-125"/>
<text text-anchor="middle" x="490.5" y="-104.5" font-family="Courier,monospace" font-size="10.00">wrap_ptr_aligned</text>
</g>
<!-- create_inner_ptr&#45;&gt;wrap_ptr_aligned -->
<g id="edge19" class="edge">
<title>create_inner_ptr&#45;&gt;wrap_ptr_aligned</title>
<path fill="none" stroke="black" d="M612.63,-171.82C589.12,-159.54 557.31,-142.91 532.04,-129.71"/>
<polygon fill="black" stroke="black" points="533.54,-126.54 523.06,-125.01 530.3,-132.75 533.54,-126.54"/>
<text text-anchor="middle" x="649" y="-146" font-family="Courier,monospace" font-size="10.00">Wrap in ptr_type_aligned</text>
</g>
<!-- wrap_ptr_aligned&#45;&gt;end -->
<g id="edge20" class="edge">
<title>wrap_ptr_aligned&#45;&gt;end</title>
<path fill="none" stroke="black" d="M547,-91.35C550.21,-90.55 553.4,-89.76 556.5,-89 614.5,-74.78 680.89,-59.42 727.74,-48.73"/>
<polygon fill="black" stroke="black" points="728.76,-52.09 737.73,-46.46 727.2,-45.27 728.76,-52.09"/>
</g>
<!-- lbracket_asterisk -->
<g id="node18" class="node">
<title>lbracket_asterisk</title>
<polygon fill="none" stroke="black" points="571,-208 428,-208 428,-172 571,-172 571,-208"/>
<text text-anchor="middle" x="499.5" y="-193" font-family="Courier,monospace" font-size="10.00">Handle sentinel/align</text>
<text text-anchor="middle" x="499.5" y="-182" font-family="Courier,monospace" font-size="10.00">Check modifiers</text>
</g>
<!-- case_lbracket&#45;&gt;lbracket_asterisk -->
<g id="edge22" class="edge">
<title>case_lbracket&#45;&gt;lbracket_asterisk</title>
<path fill="none" stroke="black" d="M2264.24,-205.21C2245.16,-221.91 2211.77,-247.71 2177.5,-258 2092.53,-283.52 663.87,-288.35 580.5,-258 557.43,-249.6 536.37,-231.43 521.5,-215.98"/>
<polygon fill="black" stroke="black" points="523.68,-213.18 514.32,-208.22 518.54,-217.93 523.68,-213.18"/>
<text text-anchor="middle" x="1398.5" y="-273" font-family="Courier,monospace" font-size="10.00">.asterisk</text>
</g>
<!-- lbracket_general -->
<g id="node20" class="node">
<title>lbracket_general</title>
<polygon fill="none" stroke="black" points="410,-208 285,-208 285,-172 410,-172 410,-208"/>
<text text-anchor="middle" x="347.5" y="-193" font-family="Courier,monospace" font-size="10.00">Parse len/sentinel</text>
<text text-anchor="middle" x="347.5" y="-182" font-family="Courier,monospace" font-size="10.00">Check modifiers</text>
</g>
<!-- case_lbracket&#45;&gt;lbracket_general -->
<g id="edge25" class="edge">
<title>case_lbracket&#45;&gt;lbracket_general</title>
<path fill="none" stroke="black" d="M2264.24,-205.21C2245.16,-221.91 2211.77,-247.71 2177.5,-258 2130.73,-272.05 464.88,-276.04 419.5,-258 398.34,-249.59 379.8,-231.67 366.83,-216.34"/>
<polygon fill="black" stroke="black" points="369.23,-213.74 360.22,-208.17 363.79,-218.15 369.23,-213.74"/>
<text text-anchor="middle" x="1443.5" y="-273" font-family="Courier,monospace" font-size="10.00">else</text>
</g>
<!-- ptr_sentinel -->
<g id="node19" class="node">
<title>ptr_sentinel</title>
<polygon fill="none" stroke="black" points="416,-125 327,-125 327,-89 416,-89 416,-125"/>
<text text-anchor="middle" x="371.5" y="-104.5" font-family="Courier,monospace" font-size="10.00">ptr_sentinel</text>
</g>
<!-- lbracket_asterisk&#45;&gt;ptr_sentinel -->
<g id="edge23" class="edge">
<title>lbracket_asterisk&#45;&gt;ptr_sentinel</title>
<path fill="none" stroke="black" d="M467.94,-171.94C458.07,-166.41 447.23,-160.12 437.5,-154 426.12,-146.84 413.96,-138.56 403.23,-131.02"/>
<polygon fill="black" stroke="black" points="405.14,-128.09 394.96,-125.16 401.1,-133.8 405.14,-128.09"/>
<text text-anchor="middle" x="486" y="-146" font-family="Courier,monospace" font-size="10.00">Create ptr_type*</text>
</g>
<!-- ptr_sentinel&#45;&gt;end -->
<g id="edge24" class="edge">
<title>ptr_sentinel&#45;&gt;end</title>
<path fill="none" stroke="black" d="M416.14,-91.35C419.29,-90.5 422.44,-89.71 425.5,-89 524.38,-66.23 640.72,-50.89 714.53,-42.55"/>
<polygon fill="black" stroke="black" points="715.1,-46.01 724.65,-41.42 714.33,-39.05 715.1,-46.01"/>
</g>
<!-- array_type -->
<g id="node21" class="node">
<title>array_type</title>
<polygon fill="none" stroke="black" points="77,-125 0,-125 0,-89 77,-89 77,-125"/>
<text text-anchor="middle" x="38.5" y="-104.5" font-family="Courier,monospace" font-size="10.00">array_type</text>
</g>
<!-- lbracket_general&#45;&gt;array_type -->
<g id="edge26" class="edge">
<title>lbracket_general&#45;&gt;array_type</title>
<path fill="none" stroke="black" d="M284.83,-181.61C245.24,-176.06 193.27,-167.12 148.5,-154 126.48,-147.55 102.9,-138.06 83.25,-129.37"/>
<polygon fill="black" stroke="black" points="84.49,-126.09 73.94,-125.19 81.62,-132.48 84.49,-126.09"/>
<text text-anchor="middle" x="200" y="-146" font-family="Courier,monospace" font-size="10.00">Create array_type</text>
</g>
<!-- array_sentinel -->
<g id="node22" class="node">
<title>array_sentinel</title>
<polygon fill="none" stroke="black" points="268,-125 95,-125 95,-89 268,-89 268,-125"/>
<text text-anchor="middle" x="181.5" y="-104.5" font-family="Courier,monospace" font-size="10.00">Create array_type_sentinel</text>
</g>
<!-- lbracket_general&#45;&gt;array_sentinel -->
<g id="edge28" class="edge">
<title>lbracket_general&#45;&gt;array_sentinel</title>
<path fill="none" stroke="black" d="M312.3,-171.82C287.01,-159.48 252.75,-142.77 225.63,-129.54"/>
<polygon fill="black" stroke="black" points="226.89,-126.25 216.37,-125.01 223.82,-132.55 226.89,-126.25"/>
<text text-anchor="middle" x="313" y="-146" font-family="Courier,monospace" font-size="10.00">With sentinel</text>
</g>
<!-- array_type&#45;&gt;end -->
<g id="edge27" class="edge">
<title>array_type&#45;&gt;end</title>
<path fill="none" stroke="black" d="M77.25,-91.07C80.02,-90.29 82.79,-89.58 85.5,-89 307.39,-41.27 576.65,-34.35 708.25,-34.17"/>
<polygon fill="black" stroke="black" points="708.26,-37.67 718.26,-34.17 708.26,-30.67 708.26,-37.67"/>
</g>
<!-- array_sentinel&#45;&gt;end -->
<g id="edge29" class="edge">
<title>array_sentinel&#45;&gt;end</title>
<path fill="none" stroke="black" d="M268.17,-89.64C269.63,-89.42 271.07,-89.21 272.5,-89 428.05,-66.37 611.3,-49.5 712.21,-41.05"/>
<polygon fill="black" stroke="black" points="712.64,-44.53 722.31,-40.21 712.06,-37.55 712.64,-44.53"/>
</g>
<!-- parse_error_union_2&#45;&gt;end -->
<g id="edge32" class="edge">
<title>parse_error_union_2&#45;&gt;end</title>
<path fill="none" stroke="black" d="M788.5,-88.81C788.5,-80.79 788.5,-71.05 788.5,-62.07"/>
<polygon fill="black" stroke="black" points="792,-62.03 788.5,-52.03 785,-62.03 792,-62.03"/>
</g>
</g>
</svg>
