<?xml version="1.0" encoding="UTF-8" standalone="no"?>
<!DOCTYPE svg PUBLIC "-//W3C//DTD SVG 1.1//EN"
 "http://www.w3.org/Graphics/SVG/1.1/DTD/svg11.dtd">
<!-- Generated by graphviz version 2.43.0 (0)
 -->
<!-- Title: flowchart Pages: 1 -->
<svg width="1193pt" height="1477pt"
 viewBox="0.00 0.00 1193.00 1477.00" xmlns="http://www.w3.org/2000/svg" xmlns:xlink="http://www.w3.org/1999/xlink">
<g id="graph0" class="graph" transform="scale(1 1) rotate(0) translate(4 1473)">
<title>flowchart</title>
<polygon fill="white" stroke="transparent" points="-4,4 -4,-1473 1189,-1473 1189,4 -4,4"/>
<!-- start -->
<g id="node1" class="node">
<title>start</title>
<ellipse fill="#f0f0f0" stroke="black" cx="157" cy="-1451" rx="112.38" ry="18"/>
<text text-anchor="middle" x="157" y="-1447.3" font-family="Courier New" font-size="14.00">Start globalVarDecl</text>
</g>
<!-- init_hasher -->
<g id="node3" class="node">
<title>init_hasher</title>
<polygon fill="#f0f0f0" stroke="black" points="252,-1396 62,-1396 62,-1358 252,-1358 252,-1396"/>
<text text-anchor="middle" x="157" y="-1380.8" font-family="Courier New" font-size="14.00">Initialize src_hasher</text>
<text text-anchor="middle" x="157" y="-1365.8" font-family="Courier New" font-size="14.00">Save old_hasher</text>
</g>
<!-- start&#45;&gt;init_hasher -->
<g id="edge1" class="edge">
<title>start&#45;&gt;init_hasher</title>
<path fill="none" stroke="black" d="M157,-1432.94C157,-1424.99 157,-1415.31 157,-1406.31"/>
<polygon fill="black" stroke="black" points="160.5,-1406.2 157,-1396.2 153.5,-1406.2 160.5,-1406.2"/>
</g>
<!-- end -->
<g id="node2" class="node">
<title>end</title>
<ellipse fill="#f0f0f0" stroke="black" cx="1086" cy="-18" rx="27" ry="18"/>
<text text-anchor="middle" x="1086" y="-14.3" font-family="Courier New" font-size="14.00">End</text>
</g>
<!-- check_mutable -->
<g id="node4" class="node">
<title>check_mutable</title>
<polygon fill="#f0f0f0" stroke="black" points="157,-1321 8,-1283 157,-1245 306,-1283 157,-1321"/>
<text text-anchor="middle" x="157" y="-1286.8" font-family="Courier New" font-size="14.00">Check is_mutable</text>
<text text-anchor="middle" x="157" y="-1271.8" font-family="Courier New" font-size="14.00">(var/const)</text>
</g>
<!-- init_hasher&#45;&gt;check_mutable -->
<g id="edge2" class="edge">
<title>init_hasher&#45;&gt;check_mutable</title>
<path fill="none" stroke="black" d="M157,-1357.82C157,-1350.13 157,-1340.78 157,-1331.35"/>
<polygon fill="black" stroke="black" points="160.5,-1331.16 157,-1321.16 153.5,-1331.16 160.5,-1331.16"/>
</g>
<!-- handle_attributes -->
<g id="node5" class="node">
<title>handle_attributes</title>
<polygon fill="#f0f0f0" stroke="black" points="248,-1208 66,-1208 66,-1155 248,-1155 248,-1208"/>
<text text-anchor="middle" x="157" y="-1192.8" font-family="Courier New" font-size="14.00">Process attributes:</text>
<text text-anchor="middle" x="157" y="-1177.8" font-family="Courier New" font-size="14.00">name_token, is_pub,</text>
<text text-anchor="middle" x="157" y="-1162.8" font-family="Courier New" font-size="14.00">is_export, is_extern</text>
</g>
<!-- check_mutable&#45;&gt;handle_attributes -->
<g id="edge3" class="edge">
<title>check_mutable&#45;&gt;handle_attributes</title>
<path fill="none" stroke="black" d="M157,-1244.95C157,-1236.23 157,-1226.95 157,-1218.29"/>
<polygon fill="black" stroke="black" points="160.5,-1218.1 157,-1208.1 153.5,-1218.1 160.5,-1218.1"/>
</g>
<!-- check_threadlocal -->
<g id="node6" class="node">
<title>check_threadlocal</title>
<polygon fill="#f0f0f0" stroke="black" points="157,-1118 0,-1080 157,-1042 314,-1080 157,-1118"/>
<text text-anchor="middle" x="157" y="-1083.8" font-family="Courier New" font-size="14.00">Check threadlocal</text>
<text text-anchor="middle" x="157" y="-1068.8" font-family="Courier New" font-size="14.00">with is_mutable</text>
</g>
<!-- handle_attributes&#45;&gt;check_threadlocal -->
<g id="edge4" class="edge">
<title>handle_attributes&#45;&gt;check_threadlocal</title>
<path fill="none" stroke="black" d="M157,-1154.88C157,-1146.76 157,-1137.51 157,-1128.37"/>
<polygon fill="black" stroke="black" points="160.5,-1128.17 157,-1118.17 153.5,-1128.17 160.5,-1128.17"/>
</g>
<!-- error_threadlocal -->
<g id="node7" class="node">
<title>error_threadlocal</title>
<ellipse fill="#ffdddd" stroke="black" cx="141" cy="-467" rx="75.29" ry="18"/>
<text text-anchor="middle" x="141" y="-463.3" font-family="Courier New" font-size="14.00">Return error</text>
</g>
<!-- check_threadlocal&#45;&gt;error_threadlocal -->
<g id="edge5" class="edge">
<title>check_threadlocal&#45;&gt;error_threadlocal</title>
<path fill="none" stroke="black" d="M149,-1043.87C145,-1023.32 141,-996.82 141,-973 141,-973 141,-973 141,-574 141,-547.24 141,-516.67 141,-495.26"/>
<polygon fill="black" stroke="black" points="144.5,-495.26 141,-485.26 137.5,-495.26 144.5,-495.26"/>
<text text-anchor="middle" x="248.5" y="-806.3" font-family="Courier New" font-size="14.00">threadlocal &amp;&amp; !is_mutable</text>
</g>
<!-- handle_libname -->
<g id="node8" class="node">
<title>handle_libname</title>
<polygon fill="#f0f0f0" stroke="black" points="466.5,-991 301.5,-991 301.5,-953 466.5,-953 466.5,-991"/>
<text text-anchor="middle" x="384" y="-975.8" font-family="Courier New" font-size="14.00">Process lib_name</text>
<text text-anchor="middle" x="384" y="-960.8" font-family="Courier New" font-size="14.00">(check null/empty)</text>
</g>
<!-- check_threadlocal&#45;&gt;handle_libname -->
<g id="edge6" class="edge">
<title>check_threadlocal&#45;&gt;handle_libname</title>
<path fill="none" stroke="black" d="M209.36,-1054.55C247.63,-1036.68 299.1,-1012.64 336.25,-995.3"/>
<polygon fill="black" stroke="black" points="337.78,-998.44 345.36,-991.04 334.82,-992.1 337.78,-998.44"/>
<text text-anchor="middle" x="326" y="-1012.8" font-family="Courier New" font-size="14.00">Valid</text>
</g>
<!-- error_libname -->
<g id="node9" class="node">
<title>error_libname</title>
<ellipse fill="#ffdddd" stroke="black" cx="384" cy="-467" rx="75.29" ry="18"/>
<text text-anchor="middle" x="384" y="-463.3" font-family="Courier New" font-size="14.00">Return error</text>
</g>
<!-- handle_libname&#45;&gt;error_libname -->
<g id="edge7" class="edge">
<title>handle_libname&#45;&gt;error_libname</title>
<path fill="none" stroke="black" d="M384,-952.88C384,-935.48 384,-908.44 384,-885 384,-885 384,-885 384,-574 384,-547.24 384,-516.67 384,-495.26"/>
<polygon fill="black" stroke="black" points="387.5,-495.26 384,-485.26 380.5,-495.26 387.5,-495.26"/>
<text text-anchor="middle" x="450.5" y="-761.8" font-family="Courier New" font-size="14.00">Invalid lib_name</text>
</g>
<!-- advance_cursor -->
<g id="node10" class="node">
<title>advance_cursor</title>
<polygon fill="#f0f0f0" stroke="black" points="639.5,-902 416.5,-902 416.5,-866 639.5,-866 639.5,-902"/>
<text text-anchor="middle" x="528" y="-880.3" font-family="Courier New" font-size="14.00">advanceSourceCursorToNode</text>
</g>
<!-- handle_libname&#45;&gt;advance_cursor -->
<g id="edge8" class="edge">
<title>handle_libname&#45;&gt;advance_cursor</title>
<path fill="none" stroke="black" d="M414.19,-952.97C436.42,-939.69 466.79,-921.56 490.57,-907.36"/>
<polygon fill="black" stroke="black" points="492.53,-910.26 499.32,-902.13 488.94,-904.25 492.53,-910.26"/>
<text text-anchor="middle" x="490" y="-923.8" font-family="Courier New" font-size="14.00">Valid</text>
</g>
<!-- create_decl -->
<g id="node11" class="node">
<title>create_decl</title>
<polygon fill="#f0f0f0" stroke="black" points="642,-829 460,-829 460,-791 642,-791 642,-829"/>
<text text-anchor="middle" x="551" y="-813.8" font-family="Courier New" font-size="14.00">Create decl_inst</text>
<text text-anchor="middle" x="551" y="-798.8" font-family="Courier New" font-size="14.00">wip_members.nextDecl</text>
</g>
<!-- advance_cursor&#45;&gt;create_decl -->
<g id="edge9" class="edge">
<title>advance_cursor&#45;&gt;create_decl</title>
<path fill="none" stroke="black" d="M533.45,-865.94C536.05,-857.81 539.22,-847.89 542.14,-838.73"/>
<polygon fill="black" stroke="black" points="545.48,-839.79 545.19,-829.2 538.81,-837.66 545.48,-839.79"/>
</g>
<!-- check_init_extern -->
<g id="node12" class="node">
<title>check_init_extern</title>
<polygon fill="#f0f0f0" stroke="black" points="590,-740 450,-702 590,-664 730,-702 590,-740"/>
<text text-anchor="middle" x="590" y="-705.8" font-family="Courier New" font-size="14.00">Check init_node</text>
<text text-anchor="middle" x="590" y="-690.8" font-family="Courier New" font-size="14.00">and is_extern</text>
</g>
<!-- create_decl&#45;&gt;check_init_extern -->
<g id="edge10" class="edge">
<title>create_decl&#45;&gt;check_init_extern</title>
<path fill="none" stroke="black" d="M557.79,-790.54C562.31,-778.26 568.44,-761.59 574.14,-746.1"/>
<polygon fill="black" stroke="black" points="577.45,-747.25 577.62,-736.66 570.88,-744.83 577.45,-747.25"/>
</g>
<!-- error_init_extern -->
<g id="node13" class="node">
<title>error_init_extern</title>
<ellipse fill="#ffdddd" stroke="black" cx="553" cy="-467" rx="75.29" ry="18"/>
<text text-anchor="middle" x="553" y="-463.3" font-family="Courier New" font-size="14.00">Return error</text>
</g>
<!-- check_init_extern&#45;&gt;error_init_extern -->
<g id="edge11" class="edge">
<title>check_init_extern&#45;&gt;error_init_extern</title>
<path fill="none" stroke="black" d="M577.11,-667.23C571.49,-651.06 565.42,-631.28 562,-613 554.43,-572.55 552.85,-524.76 552.71,-495.42"/>
<polygon fill="black" stroke="black" points="556.21,-495.13 552.71,-485.13 549.21,-495.13 556.21,-495.13"/>
<text text-anchor="middle" x="653" y="-571.3" font-family="Courier New" font-size="14.00">init_node &amp;&amp; is_extern</text>
</g>
<!-- check_extern_type -->
<g id="node14" class="node">
<title>check_extern_type</title>
<polygon fill="#f0f0f0" stroke="black" points="893,-613 753,-575 893,-537 1033,-575 893,-613"/>
<text text-anchor="middle" x="893" y="-578.8" font-family="Courier New" font-size="14.00">Check is_extern</text>
<text text-anchor="middle" x="893" y="-563.8" font-family="Courier New" font-size="14.00">and type_node</text>
</g>
<!-- check_init_extern&#45;&gt;check_extern_type -->
<g id="edge12" class="edge">
<title>check_init_extern&#45;&gt;check_extern_type</title>
<path fill="none" stroke="black" d="M605.31,-667.97C613.21,-654.47 624.13,-639.95 638,-631 676.31,-606.28 694.37,-622.33 739,-613 762.9,-608 788.76,-602.02 812.33,-596.34"/>
<polygon fill="black" stroke="black" points="813.39,-599.68 822.28,-593.92 811.74,-592.88 813.39,-599.68"/>
<text text-anchor="middle" x="745.5" y="-634.8" font-family="Courier New" font-size="14.00">No init_node &amp;&amp; !is_extern</text>
</g>
<!-- check_init_extern&#45;&gt;check_extern_type -->
<g id="edge13" class="edge">
<title>check_init_extern&#45;&gt;check_extern_type</title>
<path fill="none" stroke="black" d="M684.42,-689.54C748.5,-680.22 826.26,-665.45 853,-646 862.54,-639.06 870.14,-629.1 876.03,-618.86"/>
<polygon fill="black" stroke="black" points="879.21,-620.34 880.78,-609.86 873.02,-617.07 879.21,-620.34"/>
<text text-anchor="middle" x="888" y="-634.8" font-family="Courier New" font-size="14.00">Valid</text>
</g>
<!-- error_extern_type -->
<g id="node15" class="node">
<title>error_extern_type</title>
<ellipse fill="#ffdddd" stroke="black" cx="807" cy="-467" rx="75.29" ry="18"/>
<text text-anchor="middle" x="807" y="-463.3" font-family="Courier New" font-size="14.00">Return error</text>
</g>
<!-- check_extern_type&#45;&gt;error_extern_type -->
<g id="edge14" class="edge">
<title>check_extern_type&#45;&gt;error_extern_type</title>
<path fill="none" stroke="black" d="M840.5,-551.21C827.64,-542.99 815.44,-532.36 808,-519 804.05,-511.9 802.8,-503.33 802.83,-495.27"/>
<polygon fill="black" stroke="black" points="806.33,-495.32 803.47,-485.12 799.34,-494.87 806.33,-495.32"/>
<text text-anchor="middle" x="936" y="-507.8" font-family="Courier New" font-size="14.00">is_extern &amp;&amp; type_node == .none</text>
</g>
<!-- handle_type -->
<g id="node16" class="node">
<title>handle_type</title>
<polygon fill="#f0f0f0" stroke="black" points="1164.5,-486 1007.5,-486 1007.5,-448 1164.5,-448 1164.5,-486"/>
<text text-anchor="middle" x="1086" y="-470.8" font-family="Courier New" font-size="14.00">Process type_node</text>
<text text-anchor="middle" x="1086" y="-455.8" font-family="Courier New" font-size="14.00">create type_gz</text>
</g>
<!-- check_extern_type&#45;&gt;handle_type -->
<g id="edge15" class="edge">
<title>check_extern_type&#45;&gt;handle_type</title>
<path fill="none" stroke="black" d="M981.27,-560.74C1010.4,-552.69 1041.15,-539.76 1064,-519 1070.77,-512.85 1075.55,-504.25 1078.87,-495.87"/>
<polygon fill="black" stroke="black" points="1082.23,-496.88 1082.15,-486.28 1075.6,-494.61 1082.23,-496.88"/>
<text text-anchor="middle" x="1096" y="-507.8" font-family="Courier New" font-size="14.00">Valid</text>
</g>
<!-- handle_align -->
<g id="node17" class="node">
<title>handle_align</title>
<polygon fill="#f0f0f0" stroke="black" points="1168.5,-411 1003.5,-411 1003.5,-373 1168.5,-373 1168.5,-411"/>
<text text-anchor="middle" x="1086" y="-395.8" font-family="Courier New" font-size="14.00">Process align_node</text>
<text text-anchor="middle" x="1086" y="-380.8" font-family="Courier New" font-size="14.00">create align_gz</text>
</g>
<!-- handle_type&#45;&gt;handle_align -->
<g id="edge16" class="edge">
<title>handle_type&#45;&gt;handle_align</title>
<path fill="none" stroke="black" d="M1086,-447.96C1086,-439.88 1086,-430.18 1086,-421.18"/>
<polygon fill="black" stroke="black" points="1089.5,-421.09 1086,-411.09 1082.5,-421.09 1089.5,-421.09"/>
</g>
<!-- handle_linksection -->
<g id="node18" class="node">
<title>handle_linksection</title>
<polygon fill="#f0f0f0" stroke="black" points="1181,-336 991,-336 991,-298 1181,-298 1181,-336"/>
<text text-anchor="middle" x="1086" y="-320.8" font-family="Courier New" font-size="14.00">Process section_node</text>
<text text-anchor="middle" x="1086" y="-305.8" font-family="Courier New" font-size="14.00">create linksection_gz</text>
</g>
<!-- handle_align&#45;&gt;handle_linksection -->
<g id="edge17" class="edge">
<title>handle_align&#45;&gt;handle_linksection</title>
<path fill="none" stroke="black" d="M1086,-372.96C1086,-364.88 1086,-355.18 1086,-346.18"/>
<polygon fill="black" stroke="black" points="1089.5,-346.09 1086,-336.09 1082.5,-346.09 1089.5,-346.09"/>
</g>
<!-- handle_addrspace -->
<g id="node19" class="node">
<title>handle_addrspace</title>
<polygon fill="#f0f0f0" stroke="black" points="1185,-261 987,-261 987,-223 1185,-223 1185,-261"/>
<text text-anchor="middle" x="1086" y="-245.8" font-family="Courier New" font-size="14.00">Process addrspace_node</text>
<text text-anchor="middle" x="1086" y="-230.8" font-family="Courier New" font-size="14.00">create addrspace_gz</text>
</g>
<!-- handle_linksection&#45;&gt;handle_addrspace -->
<g id="edge18" class="edge">
<title>handle_linksection&#45;&gt;handle_addrspace</title>
<path fill="none" stroke="black" d="M1086,-297.96C1086,-289.88 1086,-280.18 1086,-271.18"/>
<polygon fill="black" stroke="black" points="1089.5,-271.09 1086,-261.09 1082.5,-271.09 1089.5,-271.09"/>
</g>
<!-- handle_init -->
<g id="node20" class="node">
<title>handle_init</title>
<polygon fill="#f0f0f0" stroke="black" points="1164.5,-186 1007.5,-186 1007.5,-148 1164.5,-148 1164.5,-186"/>
<text text-anchor="middle" x="1086" y="-170.8" font-family="Courier New" font-size="14.00">Process init_node</text>
<text text-anchor="middle" x="1086" y="-155.8" font-family="Courier New" font-size="14.00">create init_gz</text>
</g>
<!-- handle_addrspace&#45;&gt;handle_init -->
<g id="edge19" class="edge">
<title>handle_addrspace&#45;&gt;handle_init</title>
<path fill="none" stroke="black" d="M1086,-222.96C1086,-214.88 1086,-205.18 1086,-196.18"/>
<polygon fill="black" stroke="black" points="1089.5,-196.09 1086,-186.09 1082.5,-196.09 1089.5,-196.09"/>
</g>
<!-- set_declaration -->
<g id="node21" class="node">
<title>set_declaration</title>
<polygon fill="#f0f0f0" stroke="black" points="1185,-111 987,-111 987,-73 1185,-73 1185,-111"/>
<text text-anchor="middle" x="1086" y="-95.8" font-family="Courier New" font-size="14.00">Set declaration info</text>
<text text-anchor="middle" x="1086" y="-80.8" font-family="Courier New" font-size="14.00">with hash and metadata</text>
</g>
<!-- handle_init&#45;&gt;set_declaration -->
<g id="edge20" class="edge">
<title>handle_init&#45;&gt;set_declaration</title>
<path fill="none" stroke="black" d="M1086,-147.96C1086,-139.88 1086,-130.18 1086,-121.18"/>
<polygon fill="black" stroke="black" points="1089.5,-121.09 1086,-111.09 1082.5,-121.09 1089.5,-121.09"/>
</g>
<!-- set_declaration&#45;&gt;end -->
<g id="edge21" class="edge">
<title>set_declaration&#45;&gt;end</title>
<path fill="none" stroke="black" d="M1086,-72.83C1086,-64.89 1086,-55.41 1086,-46.63"/>
<polygon fill="black" stroke="black" points="1089.5,-46.42 1086,-36.42 1082.5,-46.42 1089.5,-46.42"/>
</g>
</g>
</svg>
