<?xml version="1.0" encoding="UTF-8" standalone="no"?>
<!DOCTYPE svg PUBLIC "-//W3C//DTD SVG 1.1//EN"
 "http://www.w3.org/Graphics/SVG/1.1/DTD/svg11.dtd">
<!-- Generated by graphviz version 2.43.0 (0)
 -->
<!-- Title: flowchart Pages: 1 -->
<svg width="900pt" height="1202pt"
 viewBox="0.00 0.00 900.08 1202.00" xmlns="http://www.w3.org/2000/svg" xmlns:xlink="http://www.w3.org/1999/xlink">
<g id="graph0" class="graph" transform="scale(1 1) rotate(0) translate(4 1198)">
<title>flowchart</title>
<polygon fill="white" stroke="transparent" points="-4,4 -4,-1198 896.08,-1198 896.08,4 -4,4"/>
<!-- start -->
<g id="node1" class="node">
<title>start</title>
<polygon fill="none" stroke="black" points="632.5,-1194 441.5,-1194 441.5,-1158 632.5,-1158 632.5,-1194"/>
<text text-anchor="middle" x="537" y="-1172.9" font-family="Courier,monospace" font-size="12.00">renderContainerField开始</text>
</g>
<!-- check_container -->
<g id="node2" class="node">
<title>check_container</title>
<polygon fill="none" stroke="black" points="537,-1121 405,-1087 537,-1053 669,-1087 537,-1121"/>
<text text-anchor="middle" x="537" y="-1090.4" font-family="Courier,monospace" font-size="12.00">检查container类型</text>
<text text-anchor="middle" x="537" y="-1077.4" font-family="Courier,monospace" font-size="12.00">转换非元组字段</text>
</g>
<!-- start&#45;&gt;check_container -->
<g id="edge1" class="edge">
<title>start&#45;&gt;check_container</title>
<path fill="none" stroke="black" d="M537,-1157.81C537,-1150.1 537,-1140.63 537,-1131.17"/>
<polygon fill="black" stroke="black" points="540.5,-1131 537,-1121 533.5,-1131 540.5,-1131"/>
</g>
<!-- set_quote -->
<g id="node3" class="node">
<title>set_quote</title>
<polygon fill="none" stroke="black" points="588,-1016 486,-1016 486,-980 588,-980 588,-1016"/>
<text text-anchor="middle" x="537" y="-994.9" font-family="Courier,monospace" font-size="12.00">设置quote行为</text>
</g>
<!-- check_container&#45;&gt;set_quote -->
<g id="edge2" class="edge">
<title>check_container&#45;&gt;set_quote</title>
<path fill="none" stroke="black" d="M537,-1052.61C537,-1043.85 537,-1034.51 537,-1026.12"/>
<polygon fill="black" stroke="black" points="540.5,-1026.12 537,-1016.12 533.5,-1026.12 540.5,-1026.12"/>
</g>
<!-- check_comptime_token -->
<g id="node4" class="node">
<title>check_comptime_token</title>
<polygon fill="none" stroke="black" points="537,-943 364.75,-925 537,-907 709.25,-925 537,-943"/>
<text text-anchor="middle" x="537" y="-921.9" font-family="Courier,monospace" font-size="12.00">field.comptime_token存在?</text>
</g>
<!-- set_quote&#45;&gt;check_comptime_token -->
<g id="edge3" class="edge">
<title>set_quote&#45;&gt;check_comptime_token</title>
<path fill="none" stroke="black" d="M537,-979.81C537,-971.79 537,-962.05 537,-953.07"/>
<polygon fill="black" stroke="black" points="540.5,-953.03 537,-943.03 533.5,-953.03 540.5,-953.03"/>
</g>
<!-- render_comptime -->
<g id="node5" class="node">
<title>render_comptime</title>
<polygon fill="none" stroke="black" points="556,-860 410,-860 410,-824 556,-824 556,-860"/>
<text text-anchor="middle" x="483" y="-838.9" font-family="Courier,monospace" font-size="12.00">渲染comptime token</text>
</g>
<!-- check_comptime_token&#45;&gt;render_comptime -->
<g id="edge4" class="edge">
<title>check_comptime_token&#45;&gt;render_comptime</title>
<path fill="none" stroke="black" d="M526.33,-908C518.84,-896.76 508.66,-881.49 500.05,-868.57"/>
<polygon fill="black" stroke="black" points="502.85,-866.47 494.39,-860.09 497.03,-870.35 502.85,-866.47"/>
<text text-anchor="middle" x="519" y="-881" font-family="Courier,monospace" font-size="10.00">是</text>
</g>
<!-- check_type_value -->
<g id="node6" class="node">
<title>check_type_value</title>
<polygon fill="none" stroke="black" points="537,-787 306,-753 537,-719 768,-753 537,-787"/>
<text text-anchor="middle" x="537" y="-756.4" font-family="Courier,monospace" font-size="12.00">ast.type_expr和ast.value_expr</text>
<text text-anchor="middle" x="537" y="-743.4" font-family="Courier,monospace" font-size="12.00">状态检查</text>
</g>
<!-- check_comptime_token&#45;&gt;check_type_value -->
<g id="edge5" class="edge">
<title>check_comptime_token&#45;&gt;check_type_value</title>
<path fill="none" stroke="black" d="M546.34,-907.78C553.01,-895.21 561.42,-877.09 565,-860 568.28,-844.34 568.03,-839.71 565,-824 563.09,-814.07 559.78,-803.76 556.09,-794.2"/>
<polygon fill="black" stroke="black" points="559.33,-792.88 552.32,-784.94 552.85,-795.52 559.33,-792.88"/>
<text text-anchor="middle" x="573" y="-839.5" font-family="Courier,monospace" font-size="10.00">否</text>
</g>
<!-- render_comptime&#45;&gt;check_type_value -->
<g id="edge6" class="edge">
<title>render_comptime&#45;&gt;check_type_value</title>
<path fill="none" stroke="black" d="M493.67,-823.81C499.15,-814.98 506.07,-803.83 512.76,-793.05"/>
<polygon fill="black" stroke="black" points="515.75,-794.88 518.05,-784.54 509.8,-791.19 515.75,-794.88"/>
</g>
<!-- case1 -->
<g id="node7" class="node">
<title>case1</title>
<polygon fill="none" stroke="black" points="404.5,-510 179.5,-510 179.5,-474 404.5,-474 404.5,-510"/>
<text text-anchor="middle" x="292" y="-488.9" font-family="Courier,monospace" font-size="12.00">type_expr和value_expr都为none</text>
</g>
<!-- check_type_value&#45;&gt;case1 -->
<g id="edge7" class="edge">
<title>check_type_value&#45;&gt;case1</title>
<path fill="none" stroke="black" d="M478.95,-727.4C451.8,-713.88 420.39,-695.13 397,-672 351.14,-626.66 318.08,-557.21 302.34,-519.53"/>
<polygon fill="black" stroke="black" points="305.56,-518.16 298.53,-510.23 299.08,-520.81 305.56,-518.16"/>
<text text-anchor="middle" x="437" y="-651.5" font-family="Courier,monospace" font-size="10.00">type/value均无</text>
</g>
<!-- case2 -->
<g id="node11" class="node">
<title>case2</title>
<polygon fill="none" stroke="black" points="570.5,-618 387.5,-618 387.5,-582 570.5,-582 570.5,-618"/>
<text text-anchor="middle" x="479" y="-596.9" font-family="Courier,monospace" font-size="12.00">有type_expr无value_expr</text>
</g>
<!-- check_type_value&#45;&gt;case2 -->
<g id="edge8" class="edge">
<title>check_type_value&#45;&gt;case2</title>
<path fill="none" stroke="black" d="M508.79,-723.05C503.47,-716.26 498.49,-708.74 495,-701 484.53,-677.8 480.79,-648.86 479.51,-628.09"/>
<polygon fill="black" stroke="black" points="483,-627.88 479.04,-618.05 476.01,-628.2 483,-627.88"/>
<text text-anchor="middle" x="532" y="-693" font-family="Courier,monospace" font-size="10.00">有type无value</text>
</g>
<!-- case3 -->
<g id="node16" class="node">
<title>case3</title>
<polygon fill="none" stroke="black" points="695.5,-672 512.5,-672 512.5,-636 695.5,-636 695.5,-672"/>
<text text-anchor="middle" x="604" y="-650.9" font-family="Courier,monospace" font-size="12.00">无type_expr有value_expr</text>
</g>
<!-- check_type_value&#45;&gt;case3 -->
<g id="edge9" class="edge">
<title>check_type_value&#45;&gt;case3</title>
<path fill="none" stroke="black" d="M557.83,-721.84C567.01,-708.56 577.67,-693.12 586.44,-680.43"/>
<polygon fill="black" stroke="black" points="589.36,-682.36 592.16,-672.14 583.6,-678.38 589.36,-682.36"/>
<text text-anchor="middle" x="616" y="-693" font-family="Courier,monospace" font-size="10.00">无type有value</text>
</g>
<!-- case4 -->
<g id="node21" class="node">
<title>case4</title>
<polygon fill="none" stroke="black" points="848,-672 716,-672 716,-636 848,-636 848,-672"/>
<text text-anchor="middle" x="782" y="-650.9" font-family="Courier,monospace" font-size="12.00">同时有type和value</text>
</g>
<!-- check_type_value&#45;&gt;case4 -->
<g id="edge10" class="edge">
<title>check_type_value&#45;&gt;case4</title>
<path fill="none" stroke="black" d="M597.88,-727.9C638.25,-711.91 690.69,-691.15 729.28,-675.87"/>
<polygon fill="black" stroke="black" points="730.76,-679.05 738.77,-672.12 728.18,-672.54 730.76,-679.05"/>
<text text-anchor="middle" x="728" y="-693" font-family="Courier,monospace" font-size="10.00">type/value都有</text>
</g>
<!-- case1_align_check -->
<g id="node8" class="node">
<title>case1_align_check</title>
<polygon fill="none" stroke="black" points="247,-192 139.84,-174 247,-156 354.16,-174 247,-192"/>
<text text-anchor="middle" x="247" y="-170.9" font-family="Courier,monospace" font-size="12.00">align_expr存在?</text>
</g>
<!-- case1&#45;&gt;case1_align_check -->
<g id="edge11" class="edge">
<title>case1&#45;&gt;case1_align_check</title>
<path fill="none" stroke="black" d="M283.96,-473.79C275.07,-453.16 262,-417.32 262,-385 262,-385 262,-385 262,-246 262,-230.89 258.71,-214.35 255.21,-201.04"/>
<polygon fill="black" stroke="black" points="258.5,-199.82 252.42,-191.15 251.76,-201.73 258.5,-199.82"/>
</g>
<!-- case1_render_align -->
<g id="node9" class="node">
<title>case1_render_align</title>
<polygon fill="none" stroke="black" points="186,-109 0,-109 0,-73 186,-73 186,-109"/>
<text text-anchor="middle" x="93" y="-87.9" font-family="Courier,monospace" font-size="12.00">渲染名称、align表达式和括号</text>
</g>
<!-- case1_align_check&#45;&gt;case1_render_align -->
<g id="edge12" class="edge">
<title>case1_align_check&#45;&gt;case1_render_align</title>
<path fill="none" stroke="black" d="M222.26,-159.99C198.65,-147.57 162.64,-128.63 134.62,-113.89"/>
<polygon fill="black" stroke="black" points="135.93,-110.63 125.46,-109.07 132.68,-116.82 135.93,-110.63"/>
<text text-anchor="middle" x="185" y="-130" font-family="Courier,monospace" font-size="10.00">是</text>
</g>
<!-- case1_render_name -->
<g id="node10" class="node">
<title>case1_render_name</title>
<polygon fill="none" stroke="black" points="305.5,-109 204.5,-109 204.5,-73 305.5,-73 305.5,-109"/>
<text text-anchor="middle" x="255" y="-87.9" font-family="Courier,monospace" font-size="12.00">渲染名称并返回</text>
</g>
<!-- case1_align_check&#45;&gt;case1_render_name -->
<g id="edge13" class="edge">
<title>case1_align_check&#45;&gt;case1_render_name</title>
<path fill="none" stroke="black" d="M248.66,-156.22C249.71,-145.54 251.1,-131.46 252.31,-119.21"/>
<polygon fill="black" stroke="black" points="255.82,-119.34 253.32,-109.04 248.85,-118.65 255.82,-119.34"/>
<text text-anchor="middle" x="257" y="-130" font-family="Courier,monospace" font-size="10.00">否</text>
</g>
<!-- end -->
<g id="node28" class="node">
<title>end</title>
<ellipse fill="none" stroke="black" cx="474" cy="-18" rx="40.03" ry="18"/>
<text text-anchor="middle" x="474" y="-14.9" font-family="Courier,monospace" font-size="12.00">函数返回</text>
</g>
<!-- case1_render_align&#45;&gt;end -->
<g id="edge30" class="edge">
<title>case1_render_align&#45;&gt;end</title>
<path fill="none" stroke="black" d="M184.26,-72.99C261.05,-58.68 367.69,-38.81 427.87,-27.6"/>
<polygon fill="black" stroke="black" points="428.64,-31.01 437.83,-25.74 427.36,-24.13 428.64,-31.01"/>
</g>
<!-- case1_render_name&#45;&gt;end -->
<g id="edge31" class="edge">
<title>case1_render_name&#45;&gt;end</title>
<path fill="none" stroke="black" d="M305.52,-73.62C344.08,-61.12 396.56,-44.11 432.65,-32.41"/>
<polygon fill="black" stroke="black" points="433.93,-35.67 442.37,-29.26 431.77,-29.01 433.93,-35.67"/>
</g>
<!-- case2_render_name_colon -->
<g id="node12" class="node">
<title>case2_render_name_colon</title>
<polygon fill="none" stroke="black" points="522.5,-402 421.5,-402 421.5,-366 522.5,-366 522.5,-402"/>
<text text-anchor="middle" x="472" y="-380.9" font-family="Courier,monospace" font-size="12.00">渲染名称和冒号</text>
</g>
<!-- case2&#45;&gt;case2_render_name_colon -->
<g id="edge14" class="edge">
<title>case2&#45;&gt;case2_render_name_colon</title>
<path fill="none" stroke="black" d="M478.44,-581.85C477.23,-544.83 474.36,-457.18 472.9,-412.39"/>
<polygon fill="black" stroke="black" points="476.39,-412.11 472.56,-402.23 469.39,-412.34 476.39,-412.11"/>
</g>
<!-- case2_align_check -->
<g id="node13" class="node">
<title>case2_align_check</title>
<polygon fill="none" stroke="black" points="479,-192 371.84,-174 479,-156 586.16,-174 479,-192"/>
<text text-anchor="middle" x="479" y="-170.9" font-family="Courier,monospace" font-size="12.00">align_expr存在?</text>
</g>
<!-- case2_render_name_colon&#45;&gt;case2_align_check -->
<g id="edge15" class="edge">
<title>case2_render_name_colon&#45;&gt;case2_align_check</title>
<path fill="none" stroke="black" d="M472.57,-365.98C473.79,-329.93 476.62,-245.64 478.09,-202.1"/>
<polygon fill="black" stroke="black" points="481.59,-202.08 478.43,-191.96 474.59,-201.84 481.59,-202.08"/>
</g>
<!-- case2_render_align -->
<g id="node14" class="node">
<title>case2_render_align</title>
<polygon fill="none" stroke="black" points="474,-109 324,-109 324,-73 474,-73 474,-109"/>
<text text-anchor="middle" x="399" y="-87.9" font-family="Courier,monospace" font-size="12.00">渲染align表达式并返回</text>
</g>
<!-- case2_align_check&#45;&gt;case2_render_align -->
<g id="edge16" class="edge">
<title>case2_align_check&#45;&gt;case2_render_align</title>
<path fill="none" stroke="black" d="M464.33,-158.14C452.76,-146.43 436.38,-129.85 422.92,-116.22"/>
<polygon fill="black" stroke="black" points="425.31,-113.66 415.79,-109 420.33,-118.58 425.31,-113.66"/>
<text text-anchor="middle" x="449" y="-130" font-family="Courier,monospace" font-size="10.00">是</text>
</g>
<!-- case2_render_type -->
<g id="node15" class="node">
<title>case2_render_type</title>
<polygon fill="none" stroke="black" points="629.5,-109 492.5,-109 492.5,-73 629.5,-73 629.5,-109"/>
<text text-anchor="middle" x="561" y="-87.9" font-family="Courier,monospace" font-size="12.00">渲染类型表达式并返回</text>
</g>
<!-- case2_align_check&#45;&gt;case2_render_type -->
<g id="edge17" class="edge">
<title>case2_align_check&#45;&gt;case2_render_type</title>
<path fill="none" stroke="black" d="M494.04,-158.14C505.9,-146.43 522.68,-129.85 536.48,-116.22"/>
<polygon fill="black" stroke="black" points="539.13,-118.52 543.79,-109 534.21,-113.54 539.13,-118.52"/>
<text text-anchor="middle" x="530" y="-130" font-family="Courier,monospace" font-size="10.00">否</text>
</g>
<!-- case2_render_align&#45;&gt;end -->
<g id="edge32" class="edge">
<title>case2_render_align&#45;&gt;end</title>
<path fill="none" stroke="black" d="M417.16,-72.81C427.06,-63.43 439.45,-51.71 450.13,-41.6"/>
<polygon fill="black" stroke="black" points="452.69,-43.99 457.55,-34.58 447.88,-38.91 452.69,-43.99"/>
</g>
<!-- case2_render_type&#45;&gt;end -->
<g id="edge33" class="edge">
<title>case2_render_type&#45;&gt;end</title>
<path fill="none" stroke="black" d="M539.94,-72.81C528.06,-63.12 513.1,-50.91 500.44,-40.58"/>
<polygon fill="black" stroke="black" points="502.46,-37.71 492.5,-34.1 498.04,-43.14 502.46,-37.71"/>
</g>
<!-- case3_render_name -->
<g id="node17" class="node">
<title>case3_render_name</title>
<polygon fill="none" stroke="black" points="636.5,-564 571.5,-564 571.5,-528 636.5,-528 636.5,-564"/>
<text text-anchor="middle" x="604" y="-542.9" font-family="Courier,monospace" font-size="12.00">渲染名称</text>
</g>
<!-- case3&#45;&gt;case3_render_name -->
<g id="edge18" class="edge">
<title>case3&#45;&gt;case3_render_name</title>
<path fill="none" stroke="black" d="M604,-635.97C604,-619.38 604,-593.88 604,-574.43"/>
<polygon fill="black" stroke="black" points="607.5,-574.34 604,-564.34 600.5,-574.34 607.5,-574.34"/>
</g>
<!-- case3_align_check -->
<g id="node18" class="node">
<title>case3_align_check</title>
<polygon fill="none" stroke="black" points="607,-456 499.84,-438 607,-420 714.16,-438 607,-456"/>
<text text-anchor="middle" x="607" y="-434.9" font-family="Courier,monospace" font-size="12.00">align_expr存在?</text>
</g>
<!-- case3_render_name&#45;&gt;case3_align_check -->
<g id="edge19" class="edge">
<title>case3_render_name&#45;&gt;case3_align_check</title>
<path fill="none" stroke="black" d="M604.48,-527.97C604.95,-511.28 605.68,-485.58 606.23,-466.08"/>
<polygon fill="black" stroke="black" points="609.73,-466.08 606.52,-455.99 602.74,-465.89 609.73,-466.08"/>
</g>
<!-- case3_render_align -->
<g id="node19" class="node">
<title>case3_render_align</title>
<polygon fill="none" stroke="black" points="614,-348 500,-348 500,-312 614,-312 614,-348"/>
<text text-anchor="middle" x="557" y="-326.9" font-family="Courier,monospace" font-size="12.00">渲染align表达式</text>
</g>
<!-- case3_align_check&#45;&gt;case3_render_align -->
<g id="edge20" class="edge">
<title>case3_align_check&#45;&gt;case3_render_align</title>
<path fill="none" stroke="black" d="M599.41,-420.9C591.47,-404.08 578.89,-377.41 569.49,-357.48"/>
<polygon fill="black" stroke="black" points="572.6,-355.86 565.16,-348.31 566.27,-358.85 572.6,-355.86"/>
<text text-anchor="middle" x="595" y="-381.5" font-family="Courier,monospace" font-size="10.00">是</text>
</g>
<!-- case3_render_value -->
<g id="node20" class="node">
<title>case3_render_value</title>
<polygon fill="none" stroke="black" points="674.5,-265 513.5,-265 513.5,-229 674.5,-229 674.5,-265"/>
<text text-anchor="middle" x="594" y="-243.9" font-family="Courier,monospace" font-size="12.00">渲染等号和值表达式并返回</text>
</g>
<!-- case3_align_check&#45;&gt;case3_render_value -->
<g id="edge21" class="edge">
<title>case3_align_check&#45;&gt;case3_render_value</title>
<path fill="none" stroke="black" d="M612.59,-420.67C620.03,-396.65 631.31,-350.49 623,-312 620.18,-298.96 614.48,-285.38 608.87,-274.1"/>
<polygon fill="black" stroke="black" points="611.97,-272.48 604.25,-265.23 605.77,-275.72 611.97,-272.48"/>
<text text-anchor="middle" x="630" y="-327.5" font-family="Courier,monospace" font-size="10.00">否</text>
</g>
<!-- case3_render_align&#45;&gt;case3_render_value -->
<g id="edge22" class="edge">
<title>case3_render_align&#45;&gt;case3_render_value</title>
<path fill="none" stroke="black" d="M564.85,-311.82C569.8,-300.98 576.3,-286.74 581.91,-274.47"/>
<polygon fill="black" stroke="black" points="585.19,-275.7 586.16,-265.15 578.83,-272.79 585.19,-275.7"/>
</g>
<!-- case3_render_value&#45;&gt;end -->
<g id="edge34" class="edge">
<title>case3_render_value&#45;&gt;end</title>
<path fill="none" stroke="black" d="M607.04,-228.79C630.5,-195.58 674.25,-121.62 639,-73 612.94,-37.05 562.22,-24.59 523.86,-20.49"/>
<polygon fill="black" stroke="black" points="524.18,-17.01 513.9,-19.59 523.54,-23.98 524.18,-17.01"/>
</g>
<!-- case4_render_name_colon -->
<g id="node22" class="node">
<title>case4_render_name_colon</title>
<polygon fill="none" stroke="black" points="832.5,-564 731.5,-564 731.5,-528 832.5,-528 832.5,-564"/>
<text text-anchor="middle" x="782" y="-542.9" font-family="Courier,monospace" font-size="12.00">渲染名称和冒号</text>
</g>
<!-- case4&#45;&gt;case4_render_name_colon -->
<g id="edge23" class="edge">
<title>case4&#45;&gt;case4_render_name_colon</title>
<path fill="none" stroke="black" d="M782,-635.97C782,-619.38 782,-593.88 782,-574.43"/>
<polygon fill="black" stroke="black" points="785.5,-574.34 782,-564.34 778.5,-574.34 785.5,-574.34"/>
</g>
<!-- case4_render_type -->
<g id="node23" class="node">
<title>case4_render_type</title>
<polygon fill="none" stroke="black" points="834.5,-456 733.5,-456 733.5,-420 834.5,-420 834.5,-456"/>
<text text-anchor="middle" x="784" y="-434.9" font-family="Courier,monospace" font-size="12.00">渲染类型表达式</text>
</g>
<!-- case4_render_name_colon&#45;&gt;case4_render_type -->
<g id="edge24" class="edge">
<title>case4_render_name_colon&#45;&gt;case4_render_type</title>
<path fill="none" stroke="black" d="M782.32,-527.97C782.63,-511.38 783.12,-485.88 783.48,-466.43"/>
<polygon fill="black" stroke="black" points="786.98,-466.4 783.67,-456.34 779.98,-466.27 786.98,-466.4"/>
</g>
<!-- case4_align_check -->
<g id="node24" class="node">
<title>case4_align_check</title>
<polygon fill="none" stroke="black" points="785,-348 677.84,-330 785,-312 892.16,-330 785,-348"/>
<text text-anchor="middle" x="785" y="-326.9" font-family="Courier,monospace" font-size="12.00">align_expr存在?</text>
</g>
<!-- case4_render_type&#45;&gt;case4_align_check -->
<g id="edge25" class="edge">
<title>case4_render_type&#45;&gt;case4_align_check</title>
<path fill="none" stroke="black" d="M784.16,-419.97C784.32,-403.28 784.56,-377.58 784.74,-358.08"/>
<polygon fill="black" stroke="black" points="788.25,-358.02 784.84,-347.99 781.25,-357.95 788.25,-358.02"/>
</g>
<!-- case4_render_align -->
<g id="node25" class="node">
<title>case4_render_align</title>
<polygon fill="none" stroke="black" points="807,-265 693,-265 693,-229 807,-229 807,-265"/>
<text text-anchor="middle" x="750" y="-243.9" font-family="Courier,monospace" font-size="12.00">渲染align表达式</text>
</g>
<!-- case4_align_check&#45;&gt;case4_render_align -->
<g id="edge26" class="edge">
<title>case4_align_check&#45;&gt;case4_render_align</title>
<path fill="none" stroke="black" d="M778.09,-313C773.32,-301.97 766.88,-287.08 761.37,-274.32"/>
<polygon fill="black" stroke="black" points="764.56,-272.88 757.38,-265.09 758.14,-275.66 764.56,-272.88"/>
<text text-anchor="middle" x="774" y="-286" font-family="Courier,monospace" font-size="10.00">是</text>
</g>
<!-- case4_handle_equals -->
<g id="node26" class="node">
<title>case4_handle_equals</title>
<polygon fill="none" stroke="black" points="812.5,-192 687.5,-192 687.5,-156 812.5,-156 812.5,-192"/>
<text text-anchor="middle" x="750" y="-170.9" font-family="Courier,monospace" font-size="12.00">处理等号缩进和换行</text>
</g>
<!-- case4_align_check&#45;&gt;case4_handle_equals -->
<g id="edge27" class="edge">
<title>case4_align_check&#45;&gt;case4_handle_equals</title>
<path fill="none" stroke="black" d="M796.67,-313.59C810.36,-293.51 829.54,-257.58 816,-229 810.19,-216.74 800.08,-206.34 789.5,-198.03"/>
<polygon fill="black" stroke="black" points="791.51,-195.17 781.37,-192.1 787.38,-200.82 791.51,-195.17"/>
<text text-anchor="middle" x="825" y="-244.5" font-family="Courier,monospace" font-size="10.00">否</text>
</g>
<!-- case4_render_align&#45;&gt;case4_handle_equals -->
<g id="edge28" class="edge">
<title>case4_render_align&#45;&gt;case4_handle_equals</title>
<path fill="none" stroke="black" d="M750,-228.81C750,-220.79 750,-211.05 750,-202.07"/>
<polygon fill="black" stroke="black" points="753.5,-202.03 750,-192.03 746.5,-202.03 753.5,-202.03"/>
</g>
<!-- case4_render_value -->
<g id="node27" class="node">
<title>case4_render_value</title>
<polygon fill="none" stroke="black" points="811.5,-109 686.5,-109 686.5,-73 811.5,-73 811.5,-109"/>
<text text-anchor="middle" x="749" y="-87.9" font-family="Courier,monospace" font-size="12.00">渲染值表达式并返回</text>
</g>
<!-- case4_handle_equals&#45;&gt;case4_render_value -->
<g id="edge29" class="edge">
<title>case4_handle_equals&#45;&gt;case4_render_value</title>
<path fill="none" stroke="black" d="M749.79,-155.82C749.66,-145.19 749.49,-131.31 749.34,-119.2"/>
<polygon fill="black" stroke="black" points="752.84,-119.11 749.21,-109.15 745.84,-119.2 752.84,-119.11"/>
</g>
<!-- case4_render_value&#45;&gt;end -->
<g id="edge35" class="edge">
<title>case4_render_value&#45;&gt;end</title>
<path fill="none" stroke="black" d="M717.16,-72.82C703.57,-66.09 687.34,-58.85 672,-54 622.4,-38.32 563.45,-29.04 522.84,-24.01"/>
<polygon fill="black" stroke="black" points="523.02,-20.51 512.67,-22.8 522.19,-27.46 523.02,-20.51"/>
</g>
</g>
</svg>
