<?xml version="1.0" encoding="UTF-8" standalone="no"?>
<!DOCTYPE svg PUBLIC "-//W3C//DTD SVG 1.1//EN"
 "http://www.w3.org/Graphics/SVG/1.1/DTD/svg11.dtd">
<!-- Generated by graphviz version 2.43.0 (0)
 -->
<!-- Title: flowchart Pages: 1 -->
<svg width="608pt" height="1771pt"
 viewBox="0.00 0.00 608.00 1771.00" xmlns="http://www.w3.org/2000/svg" xmlns:xlink="http://www.w3.org/1999/xlink">
<g id="graph0" class="graph" transform="scale(1 1) rotate(0) translate(4 1767)">
<title>flowchart</title>
<polygon fill="white" stroke="transparent" points="-4,4 -4,-1767 604,-1767 604,4 -4,4"/>
<g id="clust1" class="cluster">
<title>cluster_const</title>
<polygon fill="none" stroke="black" stroke-dasharray="5,2" points="8,-8 8,-681 378,-681 378,-8 8,-8"/>
<text text-anchor="middle" x="193" y="-665.8" font-family="Times,serif" font-size="14.00">处理const分支</text>
</g>
<g id="clust2" class="cluster">
<title>cluster_var</title>
<polygon fill="none" stroke="black" stroke-dasharray="5,2" points="386,-154 386,-681 592,-681 592,-154 386,-154"/>
<text text-anchor="middle" x="489" y="-665.8" font-family="Times,serif" font-size="14.00">处理var分支</text>
</g>
<!-- start -->
<g id="node1" class="node">
<title>start</title>
<path fill="none" stroke="black" d="M406.5,-1763C406.5,-1763 299.5,-1763 299.5,-1763 293.5,-1763 287.5,-1757 287.5,-1751 287.5,-1751 287.5,-1739 287.5,-1739 287.5,-1733 293.5,-1727 299.5,-1727 299.5,-1727 406.5,-1727 406.5,-1727 412.5,-1727 418.5,-1733 418.5,-1739 418.5,-1739 418.5,-1751 418.5,-1751 418.5,-1757 412.5,-1763 406.5,-1763"/>
<text text-anchor="middle" x="353" y="-1741.3" font-family="Courier,monospace" font-size="14.00">开始varDecl函数</text>
</g>
<!-- emit_dbg -->
<g id="node2" class="node">
<title>emit_dbg</title>
<path fill="none" stroke="black" d="M451.5,-1690C451.5,-1690 254.5,-1690 254.5,-1690 248.5,-1690 242.5,-1684 242.5,-1678 242.5,-1678 242.5,-1666 242.5,-1666 242.5,-1660 248.5,-1654 254.5,-1654 254.5,-1654 451.5,-1654 451.5,-1654 457.5,-1654 463.5,-1660 463.5,-1666 463.5,-1666 463.5,-1678 463.5,-1678 463.5,-1684 457.5,-1690 451.5,-1690"/>
<text text-anchor="middle" x="353" y="-1668.3" font-family="Courier,monospace" font-size="14.00">调用emitDbgNode生成调试信息</text>
</g>
<!-- start&#45;&gt;emit_dbg -->
<g id="edge1" class="edge">
<title>start&#45;&gt;emit_dbg</title>
<path fill="none" stroke="black" d="M353,-1726.81C353,-1718.79 353,-1709.05 353,-1700.07"/>
<polygon fill="black" stroke="black" points="356.5,-1700.03 353,-1690.03 349.5,-1700.03 356.5,-1700.03"/>
</g>
<!-- get_astgen_tree -->
<g id="node3" class="node">
<title>get_astgen_tree</title>
<path fill="none" stroke="black" d="M412,-1617C412,-1617 294,-1617 294,-1617 288,-1617 282,-1611 282,-1605 282,-1605 282,-1593 282,-1593 282,-1587 288,-1581 294,-1581 294,-1581 412,-1581 412,-1581 418,-1581 424,-1587 424,-1593 424,-1593 424,-1605 424,-1605 424,-1611 418,-1617 412,-1617"/>
<text text-anchor="middle" x="353" y="-1595.3" font-family="Courier,monospace" font-size="14.00">获取astgen和tree</text>
</g>
<!-- emit_dbg&#45;&gt;get_astgen_tree -->
<g id="edge2" class="edge">
<title>emit_dbg&#45;&gt;get_astgen_tree</title>
<path fill="none" stroke="black" d="M353,-1653.81C353,-1645.79 353,-1636.05 353,-1627.07"/>
<polygon fill="black" stroke="black" points="356.5,-1627.03 353,-1617.03 349.5,-1627.03 356.5,-1627.03"/>
</g>
<!-- check_underscore -->
<g id="node4" class="node">
<title>check_underscore</title>
<path fill="none" stroke="black" d="M418.5,-1544C418.5,-1544 287.5,-1544 287.5,-1544 281.5,-1544 275.5,-1538 275.5,-1532 275.5,-1532 275.5,-1520 275.5,-1520 275.5,-1514 281.5,-1508 287.5,-1508 287.5,-1508 418.5,-1508 418.5,-1508 424.5,-1508 430.5,-1514 430.5,-1520 430.5,-1520 430.5,-1532 430.5,-1532 430.5,-1538 424.5,-1544 418.5,-1544"/>
<text text-anchor="middle" x="353" y="-1522.3" font-family="Courier,monospace" font-size="14.00">检查变量名是否为&#39;_&#39;</text>
</g>
<!-- get_astgen_tree&#45;&gt;check_underscore -->
<g id="edge3" class="edge">
<title>get_astgen_tree&#45;&gt;check_underscore</title>
<path fill="none" stroke="black" d="M353,-1580.81C353,-1572.79 353,-1563.05 353,-1554.07"/>
<polygon fill="black" stroke="black" points="356.5,-1554.03 353,-1544.03 349.5,-1554.03 356.5,-1554.03"/>
</g>
<!-- error_underscore -->
<g id="node5" class="node">
<title>error_underscore</title>
<path fill="none" stroke="red" d="M366,-1457C366,-1457 216,-1457 216,-1457 210,-1457 204,-1451 204,-1445 204,-1445 204,-1433 204,-1433 204,-1427 210,-1421 216,-1421 216,-1421 366,-1421 366,-1421 372,-1421 378,-1427 378,-1433 378,-1433 378,-1445 378,-1445 378,-1451 372,-1457 366,-1457"/>
<text text-anchor="middle" x="291" y="-1435.3" font-family="Courier,monospace" font-size="14.00">报错：&#39;_&#39;需要@&quot;_&quot;语法</text>
</g>
<!-- check_underscore&#45;&gt;error_underscore -->
<g id="edge4" class="edge">
<title>check_underscore&#45;&gt;error_underscore</title>
<path fill="none" stroke="black" d="M340.45,-1507.8C331.55,-1495.59 319.44,-1478.99 309.44,-1465.28"/>
<polygon fill="black" stroke="black" points="312.25,-1463.19 303.53,-1457.18 306.59,-1467.32 312.25,-1463.19"/>
<text text-anchor="middle" x="332.5" y="-1478.8" font-family="Courier,monospace" font-size="14.00">是</text>
</g>
<!-- detect_shadow -->
<g id="node6" class="node">
<title>detect_shadow</title>
<path fill="none" stroke="black" d="M436.5,-1384C436.5,-1384 329.5,-1384 329.5,-1384 323.5,-1384 317.5,-1378 317.5,-1372 317.5,-1372 317.5,-1360 317.5,-1360 317.5,-1354 323.5,-1348 329.5,-1348 329.5,-1348 436.5,-1348 436.5,-1348 442.5,-1348 448.5,-1354 448.5,-1360 448.5,-1360 448.5,-1372 448.5,-1372 448.5,-1378 442.5,-1384 436.5,-1384"/>
<text text-anchor="middle" x="383" y="-1362.3" font-family="Courier,monospace" font-size="14.00">检测局部变量阴影</text>
</g>
<!-- check_underscore&#45;&gt;detect_shadow -->
<g id="edge5" class="edge">
<title>check_underscore&#45;&gt;detect_shadow</title>
<path fill="none" stroke="black" d="M364.32,-1507.96C372.42,-1494.7 382.63,-1475.5 387,-1457 391.87,-1436.36 390.46,-1412.33 388.05,-1394.29"/>
<polygon fill="black" stroke="black" points="391.48,-1393.54 386.52,-1384.18 384.56,-1394.59 391.48,-1393.54"/>
<text text-anchor="middle" x="397.5" y="-1435.3" font-family="Courier,monospace" font-size="14.00">否</text>
</g>
<!-- error_underscore&#45;&gt;detect_shadow -->
<!-- check_init_node -->
<g id="node7" class="node">
<title>check_init_node</title>
<path fill="none" stroke="black" d="M450.5,-1311C450.5,-1311 315.5,-1311 315.5,-1311 309.5,-1311 303.5,-1305 303.5,-1299 303.5,-1299 303.5,-1287 303.5,-1287 303.5,-1281 309.5,-1275 315.5,-1275 315.5,-1275 450.5,-1275 450.5,-1275 456.5,-1275 462.5,-1281 462.5,-1287 462.5,-1287 462.5,-1299 462.5,-1299 462.5,-1305 456.5,-1311 450.5,-1311"/>
<text text-anchor="middle" x="383" y="-1289.3" font-family="Courier,monospace" font-size="14.00">检查是否有初始化节点</text>
</g>
<!-- detect_shadow&#45;&gt;check_init_node -->
<g id="edge7" class="edge">
<title>detect_shadow&#45;&gt;check_init_node</title>
<path fill="none" stroke="black" d="M383,-1347.81C383,-1339.79 383,-1330.05 383,-1321.07"/>
<polygon fill="black" stroke="black" points="386.5,-1321.03 383,-1311.03 379.5,-1321.03 386.5,-1321.03"/>
</g>
<!-- error_no_init -->
<g id="node8" class="node">
<title>error_no_init</title>
<path fill="none" stroke="red" d="M393.5,-1224C393.5,-1224 258.5,-1224 258.5,-1224 252.5,-1224 246.5,-1218 246.5,-1212 246.5,-1212 246.5,-1200 246.5,-1200 246.5,-1194 252.5,-1188 258.5,-1188 258.5,-1188 393.5,-1188 393.5,-1188 399.5,-1188 405.5,-1194 405.5,-1200 405.5,-1200 405.5,-1212 405.5,-1212 405.5,-1218 399.5,-1224 393.5,-1224"/>
<text text-anchor="middle" x="326" y="-1202.3" font-family="Courier,monospace" font-size="14.00">报错：变量必须初始化</text>
</g>
<!-- check_init_node&#45;&gt;error_no_init -->
<g id="edge8" class="edge">
<title>check_init_node&#45;&gt;error_no_init</title>
<path fill="none" stroke="black" d="M371.47,-1274.8C363.35,-1262.7 352.36,-1246.3 343.21,-1232.67"/>
<polygon fill="black" stroke="black" points="345.99,-1230.53 337.52,-1224.18 340.18,-1234.43 345.99,-1230.53"/>
<text text-anchor="middle" x="386" y="-1245.8" font-family="Courier,monospace" font-size="14.00">无初始化</text>
</g>
<!-- check_addrspace -->
<g id="node9" class="node">
<title>check_addrspace</title>
<path fill="none" stroke="black" d="M480,-1151C480,-1151 286,-1151 286,-1151 280,-1151 274,-1145 274,-1139 274,-1139 274,-1127 274,-1127 274,-1121 280,-1115 286,-1115 286,-1115 480,-1115 480,-1115 486,-1115 492,-1121 492,-1127 492,-1127 492,-1139 492,-1139 492,-1145 486,-1151 480,-1151"/>
<text text-anchor="middle" x="383" y="-1129.3" font-family="Courier,monospace" font-size="14.00">检查addrspace_node是否存在</text>
</g>
<!-- check_init_node&#45;&gt;check_addrspace -->
<g id="edge9" class="edge">
<title>check_init_node&#45;&gt;check_addrspace</title>
<path fill="none" stroke="black" d="M406.06,-1274.97C411.29,-1269.83 416.15,-1263.74 419,-1257 423.94,-1245.31 427.01,-1226.21 415,-1188 411.9,-1178.12 406.69,-1168.14 401.37,-1159.49"/>
<polygon fill="black" stroke="black" points="404.25,-1157.5 395.86,-1151.02 398.38,-1161.31 404.25,-1157.5"/>
<text text-anchor="middle" x="451" y="-1202.3" font-family="Courier,monospace" font-size="14.00">有初始化</text>
</g>
<!-- error_no_init&#45;&gt;check_addrspace -->
<!-- error_addrspace -->
<g id="node10" class="node">
<title>error_addrspace</title>
<path fill="none" stroke="red" d="M413.5,-1064C413.5,-1064 192.5,-1064 192.5,-1064 186.5,-1064 180.5,-1058 180.5,-1052 180.5,-1052 180.5,-1040 180.5,-1040 180.5,-1034 186.5,-1028 192.5,-1028 192.5,-1028 413.5,-1028 413.5,-1028 419.5,-1028 425.5,-1034 425.5,-1040 425.5,-1040 425.5,-1052 425.5,-1052 425.5,-1058 419.5,-1064 413.5,-1064"/>
<text text-anchor="middle" x="303" y="-1042.3" font-family="Courier,monospace" font-size="14.00">报错：不能设置局部变量的地址空间</text>
</g>
<!-- check_addrspace&#45;&gt;error_addrspace -->
<g id="edge11" class="edge">
<title>check_addrspace&#45;&gt;error_addrspace</title>
<path fill="none" stroke="black" d="M366.81,-1114.8C355.1,-1102.36 339.11,-1085.36 326.06,-1071.5"/>
<polygon fill="black" stroke="black" points="328.57,-1069.06 319.17,-1064.18 323.47,-1073.86 328.57,-1069.06"/>
<text text-anchor="middle" x="361.5" y="-1085.8" font-family="Courier,monospace" font-size="14.00">存在</text>
</g>
<!-- check_section -->
<g id="node11" class="node">
<title>check_section</title>
<path fill="none" stroke="black" d="M470.5,-991C470.5,-991 293.5,-991 293.5,-991 287.5,-991 281.5,-985 281.5,-979 281.5,-979 281.5,-967 281.5,-967 281.5,-961 287.5,-955 293.5,-955 293.5,-955 470.5,-955 470.5,-955 476.5,-955 482.5,-961 482.5,-967 482.5,-967 482.5,-979 482.5,-979 482.5,-985 476.5,-991 470.5,-991"/>
<text text-anchor="middle" x="382" y="-969.3" font-family="Courier,monospace" font-size="14.00">检查section_node是否存在</text>
</g>
<!-- check_addrspace&#45;&gt;check_section -->
<g id="edge12" class="edge">
<title>check_addrspace&#45;&gt;check_section</title>
<path fill="none" stroke="black" d="M401.76,-1114.71C421.43,-1094.37 447.83,-1059.39 435,-1028 430.39,-1016.71 422.15,-1006.51 413.53,-998.1"/>
<polygon fill="black" stroke="black" points="415.68,-995.32 405.93,-991.17 410.97,-1000.5 415.68,-995.32"/>
<text text-anchor="middle" x="459.5" y="-1042.3" font-family="Courier,monospace" font-size="14.00">不存在</text>
</g>
<!-- error_addrspace&#45;&gt;check_section -->
<!-- error_section -->
<g id="node12" class="node">
<title>error_section</title>
<path fill="none" stroke="red" d="M402,-904C402,-904 224,-904 224,-904 218,-904 212,-898 212,-892 212,-892 212,-880 212,-880 212,-874 218,-868 224,-868 224,-868 402,-868 402,-868 408,-868 414,-874 414,-880 414,-880 414,-892 414,-892 414,-898 408,-904 402,-904"/>
<text text-anchor="middle" x="313" y="-882.3" font-family="Courier,monospace" font-size="14.00">报错：不能设置局部变量的段</text>
</g>
<!-- check_section&#45;&gt;error_section -->
<g id="edge14" class="edge">
<title>check_section&#45;&gt;error_section</title>
<path fill="none" stroke="black" d="M368.04,-954.8C358.12,-942.59 344.65,-925.99 333.52,-912.28"/>
<polygon fill="black" stroke="black" points="335.96,-909.73 326.94,-904.18 330.53,-914.15 335.96,-909.73"/>
<text text-anchor="middle" x="365.5" y="-925.8" font-family="Courier,monospace" font-size="14.00">存在</text>
</g>
<!-- handle_align -->
<g id="node13" class="node">
<title>handle_align</title>
<path fill="none" stroke="black" d="M447,-831C447,-831 315,-831 315,-831 309,-831 303,-825 303,-819 303,-819 303,-807 303,-807 303,-801 309,-795 315,-795 315,-795 447,-795 447,-795 453,-795 459,-801 459,-807 459,-807 459,-819 459,-819 459,-825 453,-831 447,-831"/>
<text text-anchor="middle" x="381" y="-809.3" font-family="Courier,monospace" font-size="14.00">处理对齐align_node</text>
</g>
<!-- check_section&#45;&gt;handle_align -->
<g id="edge15" class="edge">
<title>check_section&#45;&gt;handle_align</title>
<path fill="none" stroke="black" d="M396.68,-954.88C412.37,-934.41 433.64,-899.02 423,-868 419.38,-857.44 412.76,-847.36 405.82,-838.83"/>
<polygon fill="black" stroke="black" points="408.37,-836.42 399.17,-831.15 403.08,-841 408.37,-836.42"/>
<text text-anchor="middle" x="446.5" y="-882.3" font-family="Courier,monospace" font-size="14.00">不存在</text>
</g>
<!-- error_section&#45;&gt;handle_align -->
<!-- switch_mut_token -->
<g id="node14" class="node">
<title>switch_mut_token</title>
<path fill="none" stroke="black" d="M369.07,-756.67C369.07,-756.67 231.38,-741.33 231.38,-741.33 225.42,-740.66 225.42,-739.34 231.38,-738.67 231.38,-738.67 369.07,-723.33 369.07,-723.33 375.04,-722.66 386.96,-722.66 392.93,-723.33 392.93,-723.33 530.62,-738.67 530.62,-738.67 536.58,-739.34 536.58,-740.66 530.62,-741.33 530.62,-741.33 392.93,-756.67 392.93,-756.67 386.96,-757.34 375.04,-757.34 369.07,-756.67"/>
<text text-anchor="middle" x="381" y="-736.3" font-family="Courier,monospace" font-size="14.00">根据mut_token类型分支</text>
</g>
<!-- handle_align&#45;&gt;switch_mut_token -->
<g id="edge17" class="edge">
<title>handle_align&#45;&gt;switch_mut_token</title>
<path fill="none" stroke="black" d="M381,-794.81C381,-786.79 381,-777.05 381,-768.07"/>
<polygon fill="black" stroke="black" points="384.5,-768.03 381,-758.03 377.5,-768.03 384.5,-768.03"/>
</g>
<!-- handle_const -->
<g id="node15" class="node">
<title>handle_const</title>
<path fill="none" stroke="black" d="M337.5,-650C337.5,-650 246.5,-650 246.5,-650 240.5,-650 234.5,-644 234.5,-638 234.5,-638 234.5,-626 234.5,-626 234.5,-620 240.5,-614 246.5,-614 246.5,-614 337.5,-614 337.5,-614 343.5,-614 349.5,-620 349.5,-626 349.5,-626 349.5,-638 349.5,-638 349.5,-644 343.5,-650 337.5,-650"/>
<text text-anchor="middle" x="292" y="-628.3" font-family="Courier,monospace" font-size="14.00">处理const声明</text>
</g>
<!-- switch_mut_token&#45;&gt;handle_const -->
<g id="edge18" class="edge">
<title>switch_mut_token&#45;&gt;handle_const</title>
<path fill="none" stroke="black" d="M345.53,-725.92C334.83,-720.52 323.86,-713.3 316,-704 305.53,-691.6 299.56,-674.43 296.2,-660.08"/>
<polygon fill="black" stroke="black" points="299.62,-659.33 294.18,-650.24 292.76,-660.74 299.62,-659.33"/>
<text text-anchor="middle" x="370" y="-692.8" font-family="Courier,monospace" font-size="14.00">keyword_const</text>
</g>
<!-- handle_var -->
<g id="node16" class="node">
<title>handle_var</title>
<path fill="none" stroke="black" d="M503,-650C503,-650 429,-650 429,-650 423,-650 417,-644 417,-638 417,-638 417,-626 417,-626 417,-620 423,-614 429,-614 429,-614 503,-614 503,-614 509,-614 515,-620 515,-626 515,-626 515,-638 515,-638 515,-644 509,-650 503,-650"/>
<text text-anchor="middle" x="466" y="-628.3" font-family="Courier,monospace" font-size="14.00">处理var声明</text>
</g>
<!-- switch_mut_token&#45;&gt;handle_var -->
<g id="edge19" class="edge">
<title>switch_mut_token&#45;&gt;handle_var</title>
<path fill="none" stroke="black" d="M404.69,-724.44C412.74,-718.74 421.36,-711.71 428,-704 439.42,-690.75 448.75,-673.49 455.31,-659.3"/>
<polygon fill="black" stroke="black" points="458.55,-660.62 459.4,-650.06 452.15,-657.79 458.55,-660.62"/>
<text text-anchor="middle" x="483.5" y="-692.8" font-family="Courier,monospace" font-size="14.00">keyword_var</text>
</g>
<!-- const_check_comptime -->
<g id="node18" class="node">
<title>const_check_comptime</title>
<path fill="none" stroke="black" d="M358,-577C358,-577 164,-577 164,-577 158,-577 152,-571 152,-565 152,-565 152,-553 152,-553 152,-547 158,-541 164,-541 164,-541 358,-541 358,-541 364,-541 370,-547 370,-553 370,-553 370,-565 370,-565 370,-571 364,-577 358,-577"/>
<text text-anchor="middle" x="261" y="-555.3" font-family="Courier,monospace" font-size="14.00">检查comptime_token是否冗余</text>
</g>
<!-- handle_const&#45;&gt;const_check_comptime -->
<g id="edge20" class="edge">
<title>handle_const&#45;&gt;const_check_comptime</title>
<path fill="none" stroke="black" d="M284.5,-613.81C280.92,-605.62 276.55,-595.62 272.56,-586.48"/>
<polygon fill="black" stroke="black" points="275.64,-584.79 268.44,-577.03 269.23,-587.59 275.64,-584.79"/>
</g>
<!-- var_check_comptime -->
<g id="node29" class="node">
<title>var_check_comptime</title>
<path fill="none" stroke="black" d="M571.5,-577C571.5,-577 406.5,-577 406.5,-577 400.5,-577 394.5,-571 394.5,-565 394.5,-565 394.5,-553 394.5,-553 394.5,-547 400.5,-541 406.5,-541 406.5,-541 571.5,-541 571.5,-541 577.5,-541 583.5,-547 583.5,-553 583.5,-553 583.5,-565 583.5,-565 583.5,-571 577.5,-577 571.5,-577"/>
<text text-anchor="middle" x="489" y="-555.3" font-family="Courier,monospace" font-size="14.00">检查comptime_token冗余</text>
</g>
<!-- handle_var&#45;&gt;var_check_comptime -->
<g id="edge33" class="edge">
<title>handle_var&#45;&gt;var_check_comptime</title>
<path fill="none" stroke="black" d="M471.57,-613.81C474.2,-605.7 477.39,-595.84 480.33,-586.78"/>
<polygon fill="black" stroke="black" points="483.73,-587.62 483.48,-577.03 477.07,-585.46 483.73,-587.62"/>
</g>
<!-- return_scope -->
<g id="node17" class="node">
<title>return_scope</title>
<ellipse fill="none" stroke="black" cx="286" cy="-34" rx="66.09" ry="18"/>
<text text-anchor="middle" x="286" y="-30.3" font-family="Courier,monospace" font-size="14.00">返回子作用域</text>
</g>
<!-- const_force_comptime -->
<g id="node19" class="node">
<title>const_force_comptime</title>
<path fill="none" stroke="black" d="M319,-504C319,-504 203,-504 203,-504 197,-504 191,-498 191,-492 191,-492 191,-480 191,-480 191,-474 197,-468 203,-468 203,-468 319,-468 319,-468 325,-468 331,-474 331,-480 331,-480 331,-492 331,-492 331,-498 325,-504 319,-504"/>
<text text-anchor="middle" x="261" y="-482.3" font-family="Courier,monospace" font-size="14.00">标记强制comptime</text>
</g>
<!-- const_check_comptime&#45;&gt;const_force_comptime -->
<g id="edge21" class="edge">
<title>const_check_comptime&#45;&gt;const_force_comptime</title>
<path fill="none" stroke="black" d="M261,-540.81C261,-532.79 261,-523.05 261,-514.07"/>
<polygon fill="black" stroke="black" points="264.5,-514.03 261,-504.03 257.5,-514.03 264.5,-514.03"/>
</g>
<!-- const_check_align -->
<g id="node20" class="node">
<title>const_check_align</title>
<path fill="none" stroke="black" d="M355,-431C355,-431 167,-431 167,-431 161,-431 155,-425 155,-419 155,-419 155,-407 155,-407 155,-401 161,-395 167,-395 167,-395 355,-395 355,-395 361,-395 367,-401 367,-407 367,-407 367,-419 367,-419 367,-425 361,-431 355,-431"/>
<text text-anchor="middle" x="261" y="-409.3" font-family="Courier,monospace" font-size="14.00">检查align_inst是否为.none</text>
</g>
<!-- const_force_comptime&#45;&gt;const_check_align -->
<g id="edge22" class="edge">
<title>const_force_comptime&#45;&gt;const_check_align</title>
<path fill="none" stroke="black" d="M261,-467.81C261,-459.79 261,-450.05 261,-441.07"/>
<polygon fill="black" stroke="black" points="264.5,-441.03 261,-431.03 257.5,-441.03 264.5,-441.03"/>
</g>
<!-- const_handle_init -->
<g id="node21" class="node">
<title>const_handle_init</title>
<path fill="none" stroke="black" d="M184.5,-344C184.5,-344 77.5,-344 77.5,-344 71.5,-344 65.5,-338 65.5,-332 65.5,-332 65.5,-320 65.5,-320 65.5,-314 71.5,-308 77.5,-308 77.5,-308 184.5,-308 184.5,-308 190.5,-308 196.5,-314 196.5,-320 196.5,-320 196.5,-332 196.5,-332 196.5,-338 190.5,-344 184.5,-344"/>
<text text-anchor="middle" x="131" y="-322.3" font-family="Courier,monospace" font-size="14.00">处理初始化表达式</text>
</g>
<!-- const_check_align&#45;&gt;const_handle_init -->
<g id="edge23" class="edge">
<title>const_check_align&#45;&gt;const_handle_init</title>
<path fill="none" stroke="black" d="M231.86,-394.91C222.56,-389.33 212.28,-383.01 203,-377 189.72,-368.39 175.34,-358.53 162.96,-349.85"/>
<polygon fill="black" stroke="black" points="164.93,-346.95 154.74,-344.06 160.9,-352.68 164.93,-346.95"/>
<text text-anchor="middle" x="232" y="-365.8" font-family="Courier,monospace" font-size="14.00">条件满足</text>
</g>
<!-- const_handle_ptr -->
<g id="node25" class="node">
<title>const_handle_ptr</title>
<path fill="none" stroke="black" d="M310,-344C310,-344 232,-344 232,-344 226,-344 220,-338 220,-332 220,-332 220,-320 220,-320 220,-314 226,-308 232,-308 232,-308 310,-308 310,-308 316,-308 322,-314 322,-320 322,-320 322,-332 322,-332 322,-338 316,-344 310,-344"/>
<text text-anchor="middle" x="271" y="-322.3" font-family="Courier,monospace" font-size="14.00">处理指针分配</text>
</g>
<!-- const_check_align&#45;&gt;const_handle_ptr -->
<g id="edge28" class="edge">
<title>const_check_align&#45;&gt;const_handle_ptr</title>
<path fill="none" stroke="black" d="M263.02,-394.8C264.39,-383.16 266.23,-367.55 267.8,-354.24"/>
<polygon fill="black" stroke="black" points="271.29,-354.52 268.98,-344.18 264.33,-353.7 271.29,-354.52"/>
<text text-anchor="middle" x="302" y="-365.8" font-family="Courier,monospace" font-size="14.00">条件不满足</text>
</g>
<!-- const_add_validate -->
<g id="node22" class="node">
<title>const_add_validate</title>
<path fill="none" stroke="black" d="M196.5,-271C196.5,-271 31.5,-271 31.5,-271 25.5,-271 19.5,-265 19.5,-259 19.5,-259 19.5,-247 19.5,-247 19.5,-241 25.5,-235 31.5,-235 31.5,-235 196.5,-235 196.5,-235 202.5,-235 208.5,-241 208.5,-247 208.5,-247 208.5,-259 208.5,-259 208.5,-265 202.5,-271 196.5,-271"/>
<text text-anchor="middle" x="114" y="-249.3" font-family="Courier,monospace" font-size="14.00">添加validate_const指令</text>
</g>
<!-- const_handle_init&#45;&gt;const_add_validate -->
<g id="edge24" class="edge">
<title>const_handle_init&#45;&gt;const_add_validate</title>
<path fill="none" stroke="black" d="M126.88,-307.81C124.94,-299.7 122.58,-289.84 120.41,-280.78"/>
<polygon fill="black" stroke="black" points="123.81,-279.94 118.08,-271.03 117,-281.57 123.81,-279.94"/>
</g>
<!-- const_add_dbg_val -->
<g id="node23" class="node">
<title>const_add_dbg_val</title>
<path fill="none" stroke="black" d="M171,-198C171,-198 31,-198 31,-198 25,-198 19,-192 19,-186 19,-186 19,-174 19,-174 19,-168 25,-162 31,-162 31,-162 171,-162 171,-162 177,-162 183,-168 183,-174 183,-174 183,-186 183,-186 183,-192 177,-198 171,-198"/>
<text text-anchor="middle" x="101" y="-176.3" font-family="Courier,monospace" font-size="14.00">添加dbg_var_val调试</text>
</g>
<!-- const_add_validate&#45;&gt;const_add_dbg_val -->
<g id="edge25" class="edge">
<title>const_add_validate&#45;&gt;const_add_dbg_val</title>
<path fill="none" stroke="black" d="M110.85,-234.81C109.38,-226.79 107.6,-217.05 105.96,-208.07"/>
<polygon fill="black" stroke="black" points="109.36,-207.23 104.12,-198.03 102.48,-208.5 109.36,-207.23"/>
</g>
<!-- const_create_scope_val -->
<g id="node24" class="node">
<title>const_create_scope_val</title>
<path fill="none" stroke="black" d="M172,-125C172,-125 28,-125 28,-125 22,-125 16,-119 16,-113 16,-113 16,-101 16,-101 16,-95 22,-89 28,-89 28,-89 172,-89 172,-89 178,-89 184,-95 184,-101 184,-101 184,-113 184,-113 184,-119 178,-125 172,-125"/>
<text text-anchor="middle" x="100" y="-103.3" font-family="Courier,monospace" font-size="14.00">创建LocalVal子作用域</text>
</g>
<!-- const_add_dbg_val&#45;&gt;const_create_scope_val -->
<g id="edge26" class="edge">
<title>const_add_dbg_val&#45;&gt;const_create_scope_val</title>
<path fill="none" stroke="black" d="M100.76,-161.81C100.64,-153.79 100.51,-144.05 100.38,-135.07"/>
<polygon fill="black" stroke="black" points="103.88,-134.98 100.24,-125.03 96.88,-135.08 103.88,-134.98"/>
</g>
<!-- const_create_scope_val&#45;&gt;return_scope -->
<g id="edge27" class="edge">
<title>const_create_scope_val&#45;&gt;return_scope</title>
<path fill="none" stroke="black" d="M144.55,-88.99C173.33,-78.01 210.69,-63.75 239.78,-52.64"/>
<polygon fill="black" stroke="black" points="241.22,-55.84 249.31,-49.01 238.72,-49.3 241.22,-55.84"/>
</g>
<!-- const_resolve_inferred -->
<g id="node26" class="node">
<title>const_resolve_inferred</title>
<path fill="none" stroke="black" d="M319,-271C319,-271 241,-271 241,-271 235,-271 229,-265 229,-259 229,-259 229,-247 229,-247 229,-241 235,-235 241,-235 241,-235 319,-235 319,-235 325,-235 331,-241 331,-247 331,-247 331,-259 331,-259 331,-265 325,-271 319,-271"/>
<text text-anchor="middle" x="280" y="-249.3" font-family="Courier,monospace" font-size="14.00">解析推断指针</text>
</g>
<!-- const_handle_ptr&#45;&gt;const_resolve_inferred -->
<g id="edge29" class="edge">
<title>const_handle_ptr&#45;&gt;const_resolve_inferred</title>
<path fill="none" stroke="black" d="M273.18,-307.81C274.2,-299.79 275.43,-290.05 276.57,-281.07"/>
<polygon fill="black" stroke="black" points="280.06,-281.39 277.84,-271.03 273.11,-280.51 280.06,-281.39"/>
</g>
<!-- const_add_dbg_ptr -->
<g id="node27" class="node">
<title>const_add_dbg_ptr</title>
<path fill="none" stroke="black" d="M355,-198C355,-198 215,-198 215,-198 209,-198 203,-192 203,-186 203,-186 203,-174 203,-174 203,-168 209,-162 215,-162 215,-162 355,-162 355,-162 361,-162 367,-168 367,-174 367,-174 367,-186 367,-186 367,-192 361,-198 355,-198"/>
<text text-anchor="middle" x="285" y="-176.3" font-family="Courier,monospace" font-size="14.00">添加dbg_var_ptr调试</text>
</g>
<!-- const_resolve_inferred&#45;&gt;const_add_dbg_ptr -->
<g id="edge30" class="edge">
<title>const_resolve_inferred&#45;&gt;const_add_dbg_ptr</title>
<path fill="none" stroke="black" d="M281.21,-234.81C281.78,-226.79 282.46,-217.05 283.09,-208.07"/>
<polygon fill="black" stroke="black" points="286.59,-208.25 283.8,-198.03 279.61,-207.76 286.59,-208.25"/>
</g>
<!-- const_create_scope_ptr -->
<g id="node28" class="node">
<title>const_create_scope_ptr</title>
<path fill="none" stroke="black" d="M358,-125C358,-125 214,-125 214,-125 208,-125 202,-119 202,-113 202,-113 202,-101 202,-101 202,-95 208,-89 214,-89 214,-89 358,-89 358,-89 364,-89 370,-95 370,-101 370,-101 370,-113 370,-113 370,-119 364,-125 358,-125"/>
<text text-anchor="middle" x="286" y="-103.3" font-family="Courier,monospace" font-size="14.00">创建LocalPtr子作用域</text>
</g>
<!-- const_add_dbg_ptr&#45;&gt;const_create_scope_ptr -->
<g id="edge31" class="edge">
<title>const_add_dbg_ptr&#45;&gt;const_create_scope_ptr</title>
<path fill="none" stroke="black" d="M285.24,-161.81C285.36,-153.79 285.49,-144.05 285.62,-135.07"/>
<polygon fill="black" stroke="black" points="289.12,-135.08 285.76,-125.03 282.12,-134.98 289.12,-135.08"/>
</g>
<!-- const_create_scope_ptr&#45;&gt;return_scope -->
<g id="edge32" class="edge">
<title>const_create_scope_ptr&#45;&gt;return_scope</title>
<path fill="none" stroke="black" d="M286,-88.81C286,-80.79 286,-71.05 286,-62.07"/>
<polygon fill="black" stroke="black" points="289.5,-62.03 286,-52.03 282.5,-62.03 289.5,-62.03"/>
</g>
<!-- var_handle_alloc -->
<g id="node30" class="node">
<title>var_handle_alloc</title>
<path fill="none" stroke="black" d="M527,-504C527,-504 449,-504 449,-504 443,-504 437,-498 437,-492 437,-492 437,-480 437,-480 437,-474 443,-468 449,-468 449,-468 527,-468 527,-468 533,-468 539,-474 539,-480 539,-480 539,-492 539,-492 539,-498 533,-504 527,-504"/>
<text text-anchor="middle" x="488" y="-482.3" font-family="Courier,monospace" font-size="14.00">处理内存分配</text>
</g>
<!-- var_check_comptime&#45;&gt;var_handle_alloc -->
<g id="edge34" class="edge">
<title>var_check_comptime&#45;&gt;var_handle_alloc</title>
<path fill="none" stroke="black" d="M488.76,-540.81C488.64,-532.79 488.51,-523.05 488.38,-514.07"/>
<polygon fill="black" stroke="black" points="491.88,-513.98 488.24,-504.03 484.88,-514.08 491.88,-513.98"/>
</g>
<!-- var_handle_init -->
<g id="node31" class="node">
<title>var_handle_init</title>
<path fill="none" stroke="black" d="M536.5,-431C536.5,-431 429.5,-431 429.5,-431 423.5,-431 417.5,-425 417.5,-419 417.5,-419 417.5,-407 417.5,-407 417.5,-401 423.5,-395 429.5,-395 429.5,-395 536.5,-395 536.5,-395 542.5,-395 548.5,-401 548.5,-407 548.5,-407 548.5,-419 548.5,-419 548.5,-425 542.5,-431 536.5,-431"/>
<text text-anchor="middle" x="483" y="-409.3" font-family="Courier,monospace" font-size="14.00">处理初始化表达式</text>
</g>
<!-- var_handle_alloc&#45;&gt;var_handle_init -->
<g id="edge35" class="edge">
<title>var_handle_alloc&#45;&gt;var_handle_init</title>
<path fill="none" stroke="black" d="M486.79,-467.81C486.22,-459.79 485.54,-450.05 484.91,-441.07"/>
<polygon fill="black" stroke="black" points="488.39,-440.76 484.2,-431.03 481.41,-441.25 488.39,-440.76"/>
</g>
<!-- var_resolve_inferred -->
<g id="node32" class="node">
<title>var_resolve_inferred</title>
<path fill="none" stroke="black" d="M519,-344C519,-344 441,-344 441,-344 435,-344 429,-338 429,-332 429,-332 429,-320 429,-320 429,-314 435,-308 441,-308 441,-308 519,-308 519,-308 525,-308 531,-314 531,-320 531,-320 531,-332 531,-332 531,-338 525,-344 519,-344"/>
<text text-anchor="middle" x="480" y="-322.3" font-family="Courier,monospace" font-size="14.00">解析推断指针</text>
</g>
<!-- var_handle_init&#45;&gt;var_resolve_inferred -->
<g id="edge36" class="edge">
<title>var_handle_init&#45;&gt;var_resolve_inferred</title>
<path fill="none" stroke="black" d="M482.39,-394.8C481.98,-383.16 481.43,-367.55 480.96,-354.24"/>
<polygon fill="black" stroke="black" points="484.46,-354.05 480.61,-344.18 477.46,-354.29 484.46,-354.05"/>
</g>
<!-- var_add_dbg_ptr -->
<g id="node33" class="node">
<title>var_add_dbg_ptr</title>
<path fill="none" stroke="black" d="M549,-271C549,-271 409,-271 409,-271 403,-271 397,-265 397,-259 397,-259 397,-247 397,-247 397,-241 403,-235 409,-235 409,-235 549,-235 549,-235 555,-235 561,-241 561,-247 561,-247 561,-259 561,-259 561,-265 555,-271 549,-271"/>
<text text-anchor="middle" x="479" y="-249.3" font-family="Courier,monospace" font-size="14.00">添加dbg_var_ptr调试</text>
</g>
<!-- var_resolve_inferred&#45;&gt;var_add_dbg_ptr -->
<g id="edge37" class="edge">
<title>var_resolve_inferred&#45;&gt;var_add_dbg_ptr</title>
<path fill="none" stroke="black" d="M479.76,-307.81C479.64,-299.79 479.51,-290.05 479.38,-281.07"/>
<polygon fill="black" stroke="black" points="482.88,-280.98 479.24,-271.03 475.88,-281.08 482.88,-280.98"/>
</g>
<!-- var_create_scope_ptr -->
<g id="node34" class="node">
<title>var_create_scope_ptr</title>
<path fill="none" stroke="black" d="M550,-198C550,-198 406,-198 406,-198 400,-198 394,-192 394,-186 394,-186 394,-174 394,-174 394,-168 400,-162 406,-162 406,-162 550,-162 550,-162 556,-162 562,-168 562,-174 562,-174 562,-186 562,-186 562,-192 556,-198 550,-198"/>
<text text-anchor="middle" x="478" y="-176.3" font-family="Courier,monospace" font-size="14.00">创建LocalPtr子作用域</text>
</g>
<!-- var_add_dbg_ptr&#45;&gt;var_create_scope_ptr -->
<g id="edge38" class="edge">
<title>var_add_dbg_ptr&#45;&gt;var_create_scope_ptr</title>
<path fill="none" stroke="black" d="M478.76,-234.81C478.64,-226.79 478.51,-217.05 478.38,-208.07"/>
<polygon fill="black" stroke="black" points="481.88,-207.98 478.24,-198.03 474.88,-208.08 481.88,-207.98"/>
</g>
<!-- var_create_scope_ptr&#45;&gt;return_scope -->
<g id="edge39" class="edge">
<title>var_create_scope_ptr&#45;&gt;return_scope</title>
<path fill="none" stroke="black" d="M461.43,-161.9C442.5,-142.86 410.11,-111.78 379,-89 362.09,-76.62 342.14,-64.72 325.06,-55.26"/>
<polygon fill="black" stroke="black" points="326.36,-51.98 315.9,-50.26 323,-58.12 326.36,-51.98"/>
</g>
</g>
</svg>
