<?xml version="1.0" encoding="UTF-8" standalone="no"?>
<!DOCTYPE svg PUBLIC "-//W3C//DTD SVG 1.1//EN"
 "http://www.w3.org/Graphics/SVG/1.1/DTD/svg11.dtd">
<!-- Generated by graphviz version 2.43.0 (0)
 -->
<!-- Title: flowchart Pages: 1 -->
<svg width="796pt" height="534pt"
 viewBox="0.00 0.00 795.59 534.00" xmlns="http://www.w3.org/2000/svg" xmlns:xlink="http://www.w3.org/1999/xlink">
<g id="graph0" class="graph" transform="scale(1 1) rotate(0) translate(4 530)">
<title>flowchart</title>
<polygon fill="white" stroke="transparent" points="-4,4 -4,-530 791.59,-530 791.59,4 -4,4"/>
<!-- start -->
<g id="node1" class="node">
<title>start</title>
<ellipse fill="none" stroke="black" cx="306.59" cy="-508" rx="75.2" ry="18"/>
<text text-anchor="middle" x="306.59" y="-504.9" font-family="Courier,monospace" font-size="12.00">Start lvalExpr</text>
</g>
<!-- get_astgen_tree -->
<g id="node2" class="node">
<title>get_astgen_tree</title>
<polygon fill="none" stroke="black" points="382.59,-453 230.59,-453 230.59,-417 382.59,-417 382.59,-453"/>
<text text-anchor="middle" x="306.59" y="-438.4" font-family="Courier,monospace" font-size="12.00">astgen = gz.astgen</text>
<text text-anchor="middle" x="306.59" y="-425.4" font-family="Courier,monospace" font-size="12.00">tree = astgen.tree</text>
</g>
<!-- start&#45;&gt;get_astgen_tree -->
<g id="edge1" class="edge">
<title>start&#45;&gt;get_astgen_tree</title>
<path fill="none" stroke="black" d="M306.59,-489.81C306.59,-481.79 306.59,-472.05 306.59,-463.07"/>
<polygon fill="black" stroke="black" points="310.09,-463.03 306.59,-453.03 303.09,-463.03 310.09,-463.03"/>
</g>
<!-- switch_node -->
<g id="node3" class="node">
<title>switch_node</title>
<polygon fill="none" stroke="black" points="306.59,-380 115.78,-362 306.59,-344 497.4,-362 306.59,-380"/>
<text text-anchor="middle" x="306.59" y="-358.9" font-family="Courier,monospace" font-size="12.00">switch (tree.nodeTag(node))</text>
</g>
<!-- get_astgen_tree&#45;&gt;switch_node -->
<g id="edge2" class="edge">
<title>get_astgen_tree&#45;&gt;switch_node</title>
<path fill="none" stroke="black" d="M306.59,-416.81C306.59,-408.79 306.59,-399.05 306.59,-390.07"/>
<polygon fill="black" stroke="black" points="310.09,-390.03 306.59,-380.03 303.09,-390.03 310.09,-390.03"/>
</g>
<!-- return_error -->
<g id="node4" class="node">
<title>return_error</title>
<polygon fill="none" stroke="black" points="316.09,-109 97.09,-109 97.09,-73 316.09,-73 316.09,-109"/>
<text text-anchor="middle" x="206.59" y="-87.9" font-family="Courier,monospace" font-size="12.00">return astgen.failNode(...)</text>
</g>
<!-- switch_node&#45;&gt;return_error -->
<g id="edge3" class="edge">
<title>switch_node&#45;&gt;return_error</title>
<path fill="none" stroke="black" d="M216.01,-352.51C146.08,-340.58 54,-311.91 9.59,-243 -29.26,-182.72 65.66,-137 136.84,-112.38"/>
<polygon fill="black" stroke="black" points="138.35,-115.57 146.71,-109.05 136.11,-108.93 138.35,-115.57"/>
<text text-anchor="middle" x="97.09" y="-235" font-family="Courier,monospace" font-size="10.00">.root, .usingnamespace,</text>
<text text-anchor="middle" x="97.09" y="-224" font-family="Courier,monospace" font-size="10.00">.test_decl, .global_var_decl,</text>
<text text-anchor="middle" x="97.09" y="-213" font-family="Courier,monospace" font-size="10.00">... (其他无效标签)</text>
</g>
<!-- switch_node&#45;&gt;return_error -->
<g id="edge4" class="edge">
<title>switch_node&#45;&gt;return_error</title>
<path fill="none" stroke="black" d="M278.35,-346.6C260,-335.64 237.39,-318.74 225.59,-297 194.6,-239.9 198.04,-160.54 202.64,-119.32"/>
<polygon fill="black" stroke="black" points="206.13,-119.57 203.88,-109.22 199.18,-118.72 206.13,-119.57"/>
<text text-anchor="middle" x="267.09" y="-235" font-family="Courier,monospace" font-size="10.00">操作符类标签:</text>
<text text-anchor="middle" x="267.09" y="-224" font-family="Courier,monospace" font-size="10.00">.assign, .add, .sub,</text>
<text text-anchor="middle" x="267.09" y="-213" font-family="Courier,monospace" font-size="10.00">.bang_equal, ...</text>
</g>
<!-- check_builtin -->
<g id="node5" class="node">
<title>check_builtin</title>
<polygon fill="none" stroke="black" points="406.59,-297 235.08,-279 406.59,-261 578.1,-279 406.59,-297"/>
<text text-anchor="middle" x="406.59" y="-275.9" font-family="Courier,monospace" font-size="12.00">Check builtin_call cases</text>
</g>
<!-- switch_node&#45;&gt;check_builtin -->
<g id="edge5" class="edge">
<title>switch_node&#45;&gt;check_builtin</title>
<path fill="none" stroke="black" d="M325.4,-345.76C340.76,-333.32 362.67,-315.58 379.86,-301.65"/>
<polygon fill="black" stroke="black" points="382.3,-304.18 387.87,-295.17 377.89,-298.74 382.3,-304.18"/>
<text text-anchor="middle" x="404.09" y="-318" font-family="Courier,monospace" font-size="10.00">.builtin_call*</text>
</g>
<!-- call_expr -->
<g id="node7" class="node">
<title>call_expr</title>
<polygon fill="none" stroke="black" points="688.59,-109 334.59,-109 334.59,-73 688.59,-73 688.59,-109"/>
<text text-anchor="middle" x="511.59" y="-87.9" font-family="Courier,monospace" font-size="12.00">return expr(gz, scope, .{ .rl = .ref }, node)</text>
</g>
<!-- switch_node&#45;&gt;call_expr -->
<g id="edge9" class="edge">
<title>switch_node&#45;&gt;call_expr</title>
<path fill="none" stroke="black" d="M397.02,-352.52C469.88,-343.6 563.95,-326.63 587.59,-297 631.75,-241.65 571.19,-158.1 535.08,-116.85"/>
<polygon fill="black" stroke="black" points="537.5,-114.3 528.22,-109.18 532.28,-118.97 537.5,-114.3"/>
<text text-anchor="middle" x="695.09" y="-229.5" font-family="Courier,monospace" font-size="10.00">.identifier, .field_access,</text>
<text text-anchor="middle" x="695.09" y="-218.5" font-family="Courier,monospace" font-size="10.00">.array_access, ... (有效左值标签)</text>
</g>
<!-- end -->
<g id="node8" class="node">
<title>end</title>
<ellipse fill="none" stroke="black" cx="358.59" cy="-18" rx="27" ry="18"/>
<text text-anchor="middle" x="358.59" y="-14.9" font-family="Courier,monospace" font-size="12.00">End</text>
</g>
<!-- return_error&#45;&gt;end -->
<g id="edge10" class="edge">
<title>return_error&#45;&gt;end</title>
<path fill="none" stroke="black" d="M243,-72.99C268.89,-60.9 303.3,-44.83 327.83,-33.37"/>
<polygon fill="black" stroke="black" points="329.45,-36.48 337.03,-29.07 326.49,-30.13 329.45,-36.48"/>
</g>
<!-- builtin_valid -->
<g id="node6" class="node">
<title>builtin_valid</title>
<polygon fill="none" stroke="black" points="406.59,-192 268.25,-174 406.59,-156 544.93,-174 406.59,-192"/>
<text text-anchor="middle" x="406.59" y="-170.9" font-family="Courier,monospace" font-size="12.00">info.allows_lvalue?</text>
</g>
<!-- check_builtin&#45;&gt;builtin_valid -->
<g id="edge6" class="edge">
<title>check_builtin&#45;&gt;builtin_valid</title>
<path fill="none" stroke="black" d="M406.59,-260.99C406.59,-245.04 406.59,-220.91 406.59,-202.27"/>
<polygon fill="black" stroke="black" points="410.09,-202.03 406.59,-192.03 403.09,-202.03 410.09,-202.03"/>
<text text-anchor="middle" x="455.09" y="-224" font-family="Courier,monospace" font-size="10.00">获取 builtin_name</text>
</g>
<!-- builtin_valid&#45;&gt;return_error -->
<g id="edge7" class="edge">
<title>builtin_valid&#45;&gt;return_error</title>
<path fill="none" stroke="black" d="M374.46,-159.99C343.14,-147.3 295,-127.8 258.29,-112.94"/>
<polygon fill="black" stroke="black" points="259.32,-109.58 248.74,-109.07 256.69,-116.07 259.32,-109.58"/>
<text text-anchor="middle" x="342.09" y="-130" font-family="Courier,monospace" font-size="10.00">不允许左值</text>
</g>
<!-- builtin_valid&#45;&gt;call_expr -->
<g id="edge8" class="edge">
<title>builtin_valid&#45;&gt;call_expr</title>
<path fill="none" stroke="black" d="M425.85,-158.14C441.32,-146.21 463.32,-129.24 481.17,-115.47"/>
<polygon fill="black" stroke="black" points="483.77,-117.88 489.55,-109 479.49,-112.34 483.77,-117.88"/>
<text text-anchor="middle" x="484.59" y="-130" font-family="Courier,monospace" font-size="10.00">允许左值</text>
</g>
<!-- call_expr&#45;&gt;end -->
<g id="edge11" class="edge">
<title>call_expr&#45;&gt;end</title>
<path fill="none" stroke="black" d="M474.94,-72.99C448.88,-60.9 414.24,-44.83 389.56,-33.37"/>
<polygon fill="black" stroke="black" points="390.84,-30.11 380.29,-29.07 387.89,-36.46 390.84,-30.11"/>
</g>
</g>
</svg>
