<?xml version="1.0" encoding="UTF-8" standalone="no"?>
<!DOCTYPE svg PUBLIC "-//W3C//DTD SVG 1.1//EN"
 "http://www.w3.org/Graphics/SVG/1.1/DTD/svg11.dtd">
<!-- Generated by graphviz version 2.43.0 (0)
 -->
<!-- Title: zip_iterator Pages: 1 -->
<svg width="811pt" height="2203pt"
 viewBox="0.00 0.00 811.00 2203.00" xmlns="http://www.w3.org/2000/svg" xmlns:xlink="http://www.w3.org/1999/xlink">
<g id="graph0" class="graph" transform="scale(1 1) rotate(0) translate(4 2199)">
<title>zip_iterator</title>
<polygon fill="white" stroke="transparent" points="-4,4 -4,-2199 807,-2199 807,4 -4,4"/>
<g id="clust1" class="cluster">
<title>cluster_init</title>
<polygon fill="none" stroke="black" points="8,-1295 8,-2187 287,-2187 287,-1295 8,-1295"/>
<text text-anchor="middle" x="147.5" y="-2171.8" font-family="Times,serif" font-size="14.00">Iterator.init</text>
</g>
<g id="clust2" class="cluster">
<title>cluster_next</title>
<polygon fill="none" stroke="black" points="50,-735 50,-1276 795,-1276 795,-735 50,-735"/>
<text text-anchor="middle" x="422.5" y="-1260.8" font-family="Times,serif" font-size="14.00">Iterator.next</text>
</g>
<g id="clust3" class="cluster">
<title>cluster_extract</title>
<polygon fill="none" stroke="black" points="10,-8 10,-716 232,-716 232,-8 10,-8"/>
<text text-anchor="middle" x="121" y="-700.8" font-family="Times,serif" font-size="14.00">Entry.extract</text>
</g>
<!-- init_start -->
<g id="node1" class="node">
<title>init_start</title>
<path fill="none" stroke="black" d="M224,-2156C224,-2156 160,-2156 160,-2156 154,-2156 148,-2150 148,-2144 148,-2144 148,-2132 148,-2132 148,-2126 154,-2120 160,-2120 160,-2120 224,-2120 224,-2120 230,-2120 236,-2126 236,-2132 236,-2132 236,-2144 236,-2144 236,-2150 230,-2156 224,-2156"/>
<text text-anchor="middle" x="192" y="-2134.3" font-family="Times,serif" font-size="14.00">开始初始化</text>
</g>
<!-- init_find_end -->
<g id="node2" class="node">
<title>init_find_end</title>
<path fill="none" stroke="black" d="M242,-2083C242,-2083 142,-2083 142,-2083 136,-2083 130,-2077 130,-2071 130,-2071 130,-2059 130,-2059 130,-2053 136,-2047 142,-2047 142,-2047 242,-2047 242,-2047 248,-2047 254,-2053 254,-2059 254,-2059 254,-2071 254,-2071 254,-2077 248,-2083 242,-2083"/>
<text text-anchor="middle" x="192" y="-2061.3" font-family="Times,serif" font-size="14.00">查找EndRecord</text>
</g>
<!-- init_start&#45;&gt;init_find_end -->
<g id="edge1" class="edge">
<title>init_start&#45;&gt;init_find_end</title>
<path fill="none" stroke="black" d="M192,-2119.81C192,-2111.79 192,-2102.05 192,-2093.07"/>
<polygon fill="black" stroke="black" points="195.5,-2093.03 192,-2083.03 188.5,-2093.03 195.5,-2093.03"/>
</g>
<!-- init_validate_counts -->
<g id="node3" class="node">
<title>init_validate_counts</title>
<path fill="none" stroke="black" d="M231,-2010C231,-2010 153,-2010 153,-2010 147,-2010 141,-2004 141,-1998 141,-1998 141,-1986 141,-1986 141,-1980 147,-1974 153,-1974 153,-1974 231,-1974 231,-1974 237,-1974 243,-1980 243,-1986 243,-1986 243,-1998 243,-1998 243,-2004 237,-2010 231,-2010"/>
<text text-anchor="middle" x="192" y="-1988.3" font-family="Times,serif" font-size="14.00">验证记录计数</text>
</g>
<!-- init_find_end&#45;&gt;init_validate_counts -->
<g id="edge2" class="edge">
<title>init_find_end&#45;&gt;init_validate_counts</title>
<path fill="none" stroke="black" d="M192,-2046.81C192,-2038.79 192,-2029.05 192,-2020.07"/>
<polygon fill="black" stroke="black" points="195.5,-2020.03 192,-2010.03 188.5,-2020.03 195.5,-2020.03"/>
</g>
<!-- init_check_disk_numbers -->
<g id="node4" class="node">
<title>init_check_disk_numbers</title>
<path fill="none" stroke="black" d="M250,-1937C250,-1937 134,-1937 134,-1937 128,-1937 122,-1931 122,-1925 122,-1925 122,-1913 122,-1913 122,-1907 128,-1901 134,-1901 134,-1901 250,-1901 250,-1901 256,-1901 262,-1907 262,-1913 262,-1913 262,-1925 262,-1925 262,-1931 256,-1937 250,-1937"/>
<text text-anchor="middle" x="192" y="-1915.3" font-family="Times,serif" font-size="14.00">检查磁盘号是否为0</text>
</g>
<!-- init_validate_counts&#45;&gt;init_check_disk_numbers -->
<g id="edge3" class="edge">
<title>init_validate_counts&#45;&gt;init_check_disk_numbers</title>
<path fill="none" stroke="black" d="M192,-1973.81C192,-1965.79 192,-1956.05 192,-1947.07"/>
<polygon fill="black" stroke="black" points="195.5,-1947.03 192,-1937.03 188.5,-1947.03 195.5,-1947.03"/>
</g>
<!-- init_validate_counts_zip64 -->
<g id="node5" class="node">
<title>init_validate_counts_zip64</title>
<path fill="none" stroke="black" d="M251.5,-1864C251.5,-1864 132.5,-1864 132.5,-1864 126.5,-1864 120.5,-1858 120.5,-1852 120.5,-1852 120.5,-1840 120.5,-1840 120.5,-1834 126.5,-1828 132.5,-1828 132.5,-1828 251.5,-1828 251.5,-1828 257.5,-1828 263.5,-1834 263.5,-1840 263.5,-1840 263.5,-1852 263.5,-1852 263.5,-1858 257.5,-1864 251.5,-1864"/>
<text text-anchor="middle" x="192" y="-1842.3" font-family="Times,serif" font-size="14.00">验证Zip64记录计数</text>
</g>
<!-- init_check_disk_numbers&#45;&gt;init_validate_counts_zip64 -->
<g id="edge4" class="edge">
<title>init_check_disk_numbers&#45;&gt;init_validate_counts_zip64</title>
<path fill="none" stroke="black" d="M192,-1900.81C192,-1892.79 192,-1883.05 192,-1874.07"/>
<polygon fill="black" stroke="black" points="195.5,-1874.03 192,-1864.03 188.5,-1874.03 195.5,-1874.03"/>
</g>
<!-- init_check_zip64_need -->
<g id="node6" class="node">
<title>init_check_zip64_need</title>
<path fill="none" stroke="black" d="M251.5,-1791C251.5,-1791 132.5,-1791 132.5,-1791 126.5,-1791 120.5,-1785 120.5,-1779 120.5,-1779 120.5,-1767 120.5,-1767 120.5,-1761 126.5,-1755 132.5,-1755 132.5,-1755 251.5,-1755 251.5,-1755 257.5,-1755 263.5,-1761 263.5,-1767 263.5,-1767 263.5,-1779 263.5,-1779 263.5,-1785 257.5,-1791 251.5,-1791"/>
<text text-anchor="middle" x="192" y="-1769.3" font-family="Times,serif" font-size="14.00">是否需要处理Zip64</text>
</g>
<!-- init_validate_counts_zip64&#45;&gt;init_check_zip64_need -->
<g id="edge5" class="edge">
<title>init_validate_counts_zip64&#45;&gt;init_check_zip64_need</title>
<path fill="none" stroke="black" d="M192,-1827.81C192,-1819.79 192,-1810.05 192,-1801.07"/>
<polygon fill="black" stroke="black" points="195.5,-1801.03 192,-1791.03 188.5,-1801.03 195.5,-1801.03"/>
</g>
<!-- init_read_locator -->
<g id="node7" class="node">
<title>init_read_locator</title>
<path fill="none" stroke="black" d="M197,-1704C197,-1704 75,-1704 75,-1704 69,-1704 63,-1698 63,-1692 63,-1692 63,-1680 63,-1680 63,-1674 69,-1668 75,-1668 75,-1668 197,-1668 197,-1668 203,-1668 209,-1674 209,-1680 209,-1680 209,-1692 209,-1692 209,-1698 203,-1704 197,-1704"/>
<text text-anchor="middle" x="136" y="-1682.3" font-family="Times,serif" font-size="14.00">读取EndLocator64</text>
</g>
<!-- init_check_zip64_need&#45;&gt;init_read_locator -->
<g id="edge7" class="edge">
<title>init_check_zip64_need&#45;&gt;init_read_locator</title>
<path fill="none" stroke="black" d="M174.32,-1754.68C169.33,-1749.29 164.15,-1743.14 160,-1737 155.1,-1729.74 150.65,-1721.32 146.95,-1713.49"/>
<polygon fill="black" stroke="black" points="150.12,-1712.02 142.83,-1704.34 143.74,-1714.9 150.12,-1712.02"/>
<text text-anchor="middle" x="195" y="-1725.8" font-family="Times,serif" font-size="14.00">需要Zip64</text>
</g>
<!-- init_return -->
<g id="node12" class="node">
<title>init_return</title>
<path fill="none" stroke="black" d="M260,-1339C260,-1339 168,-1339 168,-1339 162,-1339 156,-1333 156,-1327 156,-1327 156,-1315 156,-1315 156,-1309 162,-1303 168,-1303 168,-1303 260,-1303 260,-1303 266,-1303 272,-1309 272,-1315 272,-1315 272,-1327 272,-1327 272,-1333 266,-1339 260,-1339"/>
<text text-anchor="middle" x="214" y="-1317.3" font-family="Times,serif" font-size="14.00">返回初始化结果</text>
</g>
<!-- init_check_zip64_need&#45;&gt;init_return -->
<g id="edge6" class="edge">
<title>init_check_zip64_need&#45;&gt;init_return</title>
<path fill="none" stroke="black" d="M216.71,-1754.81C222.09,-1749.75 227.05,-1743.74 230,-1737 232.68,-1730.89 230.13,-1728.67 230,-1722 227.24,-1581.76 218.89,-1414.03 215.48,-1349.32"/>
<polygon fill="black" stroke="black" points="218.96,-1348.95 214.94,-1339.15 211.97,-1349.32 218.96,-1348.95"/>
<text text-anchor="middle" x="267.5" y="-1536.3" font-family="Times,serif" font-size="14.00">不需要Zip64</text>
</g>
<!-- init_validate_locator -->
<g id="node8" class="node">
<title>init_validate_locator</title>
<path fill="none" stroke="black" d="M203.5,-1631C203.5,-1631 28.5,-1631 28.5,-1631 22.5,-1631 16.5,-1625 16.5,-1619 16.5,-1619 16.5,-1607 16.5,-1607 16.5,-1601 22.5,-1595 28.5,-1595 28.5,-1595 203.5,-1595 203.5,-1595 209.5,-1595 215.5,-1601 215.5,-1607 215.5,-1607 215.5,-1619 215.5,-1619 215.5,-1625 209.5,-1631 203.5,-1631"/>
<text text-anchor="middle" x="116" y="-1609.3" font-family="Times,serif" font-size="14.00">验证Locator签名和磁盘计数</text>
</g>
<!-- init_read_locator&#45;&gt;init_validate_locator -->
<g id="edge8" class="edge">
<title>init_read_locator&#45;&gt;init_validate_locator</title>
<path fill="none" stroke="black" d="M131.16,-1667.81C128.87,-1659.7 126.09,-1649.84 123.54,-1640.78"/>
<polygon fill="black" stroke="black" points="126.88,-1639.71 120.8,-1631.03 120.14,-1641.6 126.88,-1639.71"/>
</g>
<!-- init_read_record64 -->
<g id="node9" class="node">
<title>init_read_record64</title>
<path fill="none" stroke="black" d="M146,-1558C146,-1558 28,-1558 28,-1558 22,-1558 16,-1552 16,-1546 16,-1546 16,-1534 16,-1534 16,-1528 22,-1522 28,-1522 28,-1522 146,-1522 146,-1522 152,-1522 158,-1528 158,-1534 158,-1534 158,-1546 158,-1546 158,-1552 152,-1558 146,-1558"/>
<text text-anchor="middle" x="87" y="-1536.3" font-family="Times,serif" font-size="14.00">读取EndRecord64</text>
</g>
<!-- init_validate_locator&#45;&gt;init_read_record64 -->
<g id="edge9" class="edge">
<title>init_validate_locator&#45;&gt;init_read_record64</title>
<path fill="none" stroke="black" d="M108.98,-1594.81C105.63,-1586.62 101.55,-1576.62 97.82,-1567.48"/>
<polygon fill="black" stroke="black" points="100.98,-1565.96 93.96,-1558.03 94.5,-1568.61 100.98,-1565.96"/>
</g>
<!-- init_validate_record64 -->
<g id="node10" class="node">
<title>init_validate_record64</title>
<path fill="none" stroke="black" d="M188.5,-1485C188.5,-1485 27.5,-1485 27.5,-1485 21.5,-1485 15.5,-1479 15.5,-1473 15.5,-1473 15.5,-1461 15.5,-1461 15.5,-1455 21.5,-1449 27.5,-1449 27.5,-1449 188.5,-1449 188.5,-1449 194.5,-1449 200.5,-1455 200.5,-1461 200.5,-1461 200.5,-1473 200.5,-1473 200.5,-1479 194.5,-1485 188.5,-1485"/>
<text text-anchor="middle" x="108" y="-1463.3" font-family="Times,serif" font-size="14.00">验证Record64签名和大小</text>
</g>
<!-- init_read_record64&#45;&gt;init_validate_record64 -->
<g id="edge10" class="edge">
<title>init_read_record64&#45;&gt;init_validate_record64</title>
<path fill="none" stroke="black" d="M92.08,-1521.81C94.48,-1513.7 97.4,-1503.84 100.08,-1494.78"/>
<polygon fill="black" stroke="black" points="103.48,-1495.61 102.96,-1485.03 96.77,-1493.63 103.48,-1495.61"/>
</g>
<!-- init_update_result -->
<g id="node11" class="node">
<title>init_update_result</title>
<path fill="none" stroke="black" d="M179,-1412C179,-1412 87,-1412 87,-1412 81,-1412 75,-1406 75,-1400 75,-1400 75,-1388 75,-1388 75,-1382 81,-1376 87,-1376 87,-1376 179,-1376 179,-1376 185,-1376 191,-1382 191,-1388 191,-1388 191,-1400 191,-1400 191,-1406 185,-1412 179,-1412"/>
<text text-anchor="middle" x="133" y="-1390.3" font-family="Times,serif" font-size="14.00">更新结果结构体</text>
</g>
<!-- init_validate_record64&#45;&gt;init_update_result -->
<g id="edge11" class="edge">
<title>init_validate_record64&#45;&gt;init_update_result</title>
<path fill="none" stroke="black" d="M114.05,-1448.81C116.94,-1440.62 120.46,-1430.62 123.67,-1421.48"/>
<polygon fill="black" stroke="black" points="126.98,-1422.62 127,-1412.03 120.38,-1420.3 126.98,-1422.62"/>
</g>
<!-- init_update_result&#45;&gt;init_return -->
<g id="edge12" class="edge">
<title>init_update_result&#45;&gt;init_return</title>
<path fill="none" stroke="black" d="M152.61,-1375.81C162.86,-1366.83 175.56,-1355.69 186.75,-1345.89"/>
<polygon fill="black" stroke="black" points="189.36,-1348.25 194.57,-1339.03 184.75,-1342.99 189.36,-1348.25"/>
</g>
<!-- next_start -->
<g id="node13" class="node">
<title>next_start</title>
<path fill="none" stroke="black" d="M274.5,-1245C274.5,-1245 153.5,-1245 153.5,-1245 147.5,-1245 141.5,-1239 141.5,-1233 141.5,-1233 141.5,-1221 141.5,-1221 141.5,-1215 147.5,-1209 153.5,-1209 153.5,-1209 274.5,-1209 274.5,-1209 280.5,-1209 286.5,-1215 286.5,-1221 286.5,-1221 286.5,-1233 286.5,-1233 286.5,-1239 280.5,-1245 274.5,-1245"/>
<text text-anchor="middle" x="214" y="-1223.3" font-family="Times,serif" font-size="14.00">开始获取下一个条目</text>
</g>
<!-- init_return&#45;&gt;next_start -->
<g id="edge33" class="edge">
<title>init_return&#45;&gt;next_start</title>
<path fill="none" stroke="black" d="M214,-1302.7C214,-1289.46 214,-1270.95 214,-1255.66"/>
<polygon fill="black" stroke="black" points="217.5,-1255.23 214,-1245.23 210.5,-1255.23 217.5,-1255.23"/>
</g>
<!-- next_check_index -->
<g id="node14" class="node">
<title>next_check_index</title>
<path fill="none" stroke="black" d="M288.5,-1172C288.5,-1172 139.5,-1172 139.5,-1172 133.5,-1172 127.5,-1166 127.5,-1160 127.5,-1160 127.5,-1148 127.5,-1148 127.5,-1142 133.5,-1136 139.5,-1136 139.5,-1136 288.5,-1136 288.5,-1136 294.5,-1136 300.5,-1142 300.5,-1148 300.5,-1148 300.5,-1160 300.5,-1160 300.5,-1166 294.5,-1172 288.5,-1172"/>
<text text-anchor="middle" x="214" y="-1150.3" font-family="Times,serif" font-size="14.00">检查是否遍历完所有记录</text>
</g>
<!-- next_start&#45;&gt;next_check_index -->
<g id="edge13" class="edge">
<title>next_start&#45;&gt;next_check_index</title>
<path fill="none" stroke="black" d="M214,-1208.81C214,-1200.79 214,-1191.05 214,-1182.07"/>
<polygon fill="black" stroke="black" points="217.5,-1182.03 214,-1172.03 210.5,-1182.03 217.5,-1182.03"/>
</g>
<!-- next_read_header -->
<g id="node15" class="node">
<title>next_read_header</title>
<path fill="none" stroke="black" d="M310.5,-1085C310.5,-1085 89.5,-1085 89.5,-1085 83.5,-1085 77.5,-1079 77.5,-1073 77.5,-1073 77.5,-1061 77.5,-1061 77.5,-1055 83.5,-1049 89.5,-1049 89.5,-1049 310.5,-1049 310.5,-1049 316.5,-1049 322.5,-1055 322.5,-1061 322.5,-1061 322.5,-1073 322.5,-1073 322.5,-1079 316.5,-1085 310.5,-1085"/>
<text text-anchor="middle" x="200" y="-1063.3" font-family="Times,serif" font-size="14.00">读取CentralDirectoryFileHeader</text>
</g>
<!-- next_check_index&#45;&gt;next_read_header -->
<g id="edge14" class="edge">
<title>next_check_index&#45;&gt;next_read_header</title>
<path fill="none" stroke="black" d="M211.17,-1135.8C209.25,-1124.16 206.68,-1108.55 204.49,-1095.24"/>
<polygon fill="black" stroke="black" points="207.91,-1094.47 202.83,-1085.18 201,-1095.61 207.91,-1094.47"/>
<text text-anchor="middle" x="228.5" y="-1106.8" font-family="Times,serif" font-size="14.00">未完成</text>
</g>
<!-- next_check_cd_size -->
<g id="node20" class="node">
<title>next_check_cd_size</title>
<path fill="none" stroke="black" d="M547.5,-1085C547.5,-1085 404.5,-1085 404.5,-1085 398.5,-1085 392.5,-1079 392.5,-1073 392.5,-1073 392.5,-1061 392.5,-1061 392.5,-1055 398.5,-1049 404.5,-1049 404.5,-1049 547.5,-1049 547.5,-1049 553.5,-1049 559.5,-1055 559.5,-1061 559.5,-1061 559.5,-1073 559.5,-1073 559.5,-1079 553.5,-1085 547.5,-1085"/>
<text text-anchor="middle" x="476" y="-1063.3" font-family="Times,serif" font-size="14.00">检查CD偏移量是否匹配</text>
</g>
<!-- next_check_index&#45;&gt;next_check_cd_size -->
<g id="edge15" class="edge">
<title>next_check_index&#45;&gt;next_check_cd_size</title>
<path fill="none" stroke="black" d="M266.7,-1135.9C309.17,-1122.13 368.96,-1102.73 413.77,-1088.19"/>
<polygon fill="black" stroke="black" points="414.95,-1091.49 423.38,-1085.07 412.79,-1084.83 414.95,-1091.49"/>
<text text-anchor="middle" x="381.5" y="-1106.8" font-family="Times,serif" font-size="14.00">已完成</text>
</g>
<!-- next_validate_header -->
<g id="node16" class="node">
<title>next_validate_header</title>
<path fill="none" stroke="black" d="M172,-998C172,-998 70,-998 70,-998 64,-998 58,-992 58,-986 58,-986 58,-974 58,-974 58,-968 64,-962 70,-962 70,-962 172,-962 172,-962 178,-962 184,-968 184,-974 184,-974 184,-986 184,-986 184,-992 178,-998 172,-998"/>
<text text-anchor="middle" x="121" y="-976.3" font-family="Times,serif" font-size="14.00">验证Header签名</text>
</g>
<!-- next_read_header&#45;&gt;next_validate_header -->
<g id="edge19" class="edge">
<title>next_read_header&#45;&gt;next_validate_header</title>
<path fill="none" stroke="black" d="M184.01,-1048.8C172.45,-1036.36 156.66,-1019.36 143.77,-1005.5"/>
<polygon fill="black" stroke="black" points="146.33,-1003.12 136.96,-998.18 141.21,-1007.88 146.33,-1003.12"/>
</g>
<!-- next_update_offset -->
<g id="node17" class="node">
<title>next_update_offset</title>
<path fill="none" stroke="black" d="M167,-925C167,-925 75,-925 75,-925 69,-925 63,-919 63,-913 63,-913 63,-901 63,-901 63,-895 69,-889 75,-889 75,-889 167,-889 167,-889 173,-889 179,-895 179,-901 179,-901 179,-913 179,-913 179,-919 173,-925 167,-925"/>
<text text-anchor="middle" x="121" y="-903.3" font-family="Times,serif" font-size="14.00">更新记录偏移量</text>
</g>
<!-- next_validate_header&#45;&gt;next_update_offset -->
<g id="edge20" class="edge">
<title>next_validate_header&#45;&gt;next_update_offset</title>
<path fill="none" stroke="black" d="M121,-961.81C121,-953.79 121,-944.05 121,-935.07"/>
<polygon fill="black" stroke="black" points="124.5,-935.03 121,-925.03 117.5,-935.03 124.5,-935.03"/>
</g>
<!-- next_handle_extra -->
<g id="node18" class="node">
<title>next_handle_extra</title>
<path fill="none" stroke="black" d="M165.5,-852C165.5,-852 76.5,-852 76.5,-852 70.5,-852 64.5,-846 64.5,-840 64.5,-840 64.5,-828 64.5,-828 64.5,-822 70.5,-816 76.5,-816 76.5,-816 165.5,-816 165.5,-816 171.5,-816 177.5,-822 177.5,-828 177.5,-828 177.5,-840 177.5,-840 177.5,-846 171.5,-852 165.5,-852"/>
<text text-anchor="middle" x="121" y="-830.3" font-family="Times,serif" font-size="14.00">处理Extra字段</text>
</g>
<!-- next_update_offset&#45;&gt;next_handle_extra -->
<g id="edge21" class="edge">
<title>next_update_offset&#45;&gt;next_handle_extra</title>
<path fill="none" stroke="black" d="M121,-888.81C121,-880.79 121,-871.05 121,-862.07"/>
<polygon fill="black" stroke="black" points="124.5,-862.03 121,-852.03 117.5,-862.03 124.5,-862.03"/>
</g>
<!-- next_return_entry -->
<g id="node19" class="node">
<title>next_return_entry</title>
<path fill="none" stroke="black" d="M166,-779C166,-779 76,-779 76,-779 70,-779 64,-773 64,-767 64,-767 64,-755 64,-755 64,-749 70,-743 76,-743 76,-743 166,-743 166,-743 172,-743 178,-749 178,-755 178,-755 178,-767 178,-767 178,-773 172,-779 166,-779"/>
<text text-anchor="middle" x="121" y="-757.3" font-family="Times,serif" font-size="14.00">返回Entry结构</text>
</g>
<!-- next_handle_extra&#45;&gt;next_return_entry -->
<g id="edge22" class="edge">
<title>next_handle_extra&#45;&gt;next_return_entry</title>
<path fill="none" stroke="black" d="M121,-815.81C121,-807.79 121,-798.05 121,-789.07"/>
<polygon fill="black" stroke="black" points="124.5,-789.03 121,-779.03 117.5,-789.03 124.5,-789.03"/>
</g>
<!-- extract_start -->
<g id="node24" class="node">
<title>extract_start</title>
<path fill="none" stroke="black" d="M160,-685C160,-685 82,-685 82,-685 76,-685 70,-679 70,-673 70,-673 70,-661 70,-661 70,-655 76,-649 82,-649 82,-649 160,-649 160,-649 166,-649 172,-655 172,-661 172,-661 172,-673 172,-673 172,-679 166,-685 160,-685"/>
<text text-anchor="middle" x="121" y="-663.3" font-family="Times,serif" font-size="14.00">开始解压文件</text>
</g>
<!-- next_return_entry&#45;&gt;extract_start -->
<g id="edge34" class="edge">
<title>next_return_entry&#45;&gt;extract_start</title>
<path fill="none" stroke="black" d="M121,-742.7C121,-729.46 121,-710.95 121,-695.66"/>
<polygon fill="black" stroke="black" points="124.5,-695.23 121,-685.23 117.5,-695.23 124.5,-695.23"/>
</g>
<!-- error_oversized -->
<g id="node21" class="node">
<title>error_oversized</title>
<ellipse fill="none" stroke="red" cx="312" cy="-980" rx="110.48" ry="18"/>
<text text-anchor="middle" x="312" y="-976.3" font-family="Times,serif" font-size="14.00">error.ZipCdOversized</text>
</g>
<!-- next_check_cd_size&#45;&gt;error_oversized -->
<g id="edge16" class="edge">
<title>next_check_cd_size&#45;&gt;error_oversized</title>
<path fill="none" stroke="black" d="M434.43,-1048.98C421.93,-1043.55 408.27,-1037.31 396,-1031 379.5,-1022.52 361.77,-1012.17 346.88,-1003.08"/>
<polygon fill="black" stroke="black" points="348.36,-999.88 338.01,-997.62 344.69,-1005.85 348.36,-999.88"/>
<text text-anchor="middle" x="452" y="-1019.8" font-family="Times,serif" font-size="14.00">cd_size &gt; offset</text>
</g>
<!-- error_undersized -->
<g id="node22" class="node">
<title>error_undersized</title>
<ellipse fill="none" stroke="red" cx="558" cy="-980" rx="117.78" ry="18"/>
<text text-anchor="middle" x="558" y="-976.3" font-family="Times,serif" font-size="14.00">error.ZipCdUndersized</text>
</g>
<!-- next_check_cd_size&#45;&gt;error_undersized -->
<g id="edge17" class="edge">
<title>next_check_cd_size&#45;&gt;error_undersized</title>
<path fill="none" stroke="black" d="M492.59,-1048.8C504.68,-1036.27 521.21,-1019.14 534.62,-1005.23"/>
<polygon fill="black" stroke="black" points="537.29,-1007.51 541.71,-997.89 532.25,-1002.65 537.29,-1007.51"/>
<text text-anchor="middle" x="577" y="-1019.8" font-family="Times,serif" font-size="14.00">cd_size &lt; offset</text>
</g>
<!-- return_null -->
<g id="node23" class="node">
<title>return_null</title>
<ellipse fill="none" stroke="black" cx="740" cy="-980" rx="46.59" ry="18"/>
<text text-anchor="middle" x="740" y="-976.3" font-family="Times,serif" font-size="14.00">返回null</text>
</g>
<!-- next_check_cd_size&#45;&gt;return_null -->
<g id="edge18" class="edge">
<title>next_check_cd_size&#45;&gt;return_null</title>
<path fill="none" stroke="black" d="M559.77,-1051.73C584.95,-1046.39 612.4,-1039.51 637,-1031 660.84,-1022.75 686.35,-1010.4 706.03,-1000.03"/>
<polygon fill="black" stroke="black" points="707.74,-1003.08 714.9,-995.28 704.43,-996.91 707.74,-1003.08"/>
<text text-anchor="middle" x="685.5" y="-1019.8" font-family="Times,serif" font-size="14.00">匹配</text>
</g>
<!-- extract_read_filename -->
<g id="node25" class="node">
<title>extract_read_filename</title>
<path fill="none" stroke="black" d="M153,-612C153,-612 89,-612 89,-612 83,-612 77,-606 77,-600 77,-600 77,-588 77,-588 77,-582 83,-576 89,-576 89,-576 153,-576 153,-576 159,-576 165,-582 165,-588 165,-588 165,-600 165,-600 165,-606 159,-612 153,-612"/>
<text text-anchor="middle" x="121" y="-590.3" font-family="Times,serif" font-size="14.00">读取文件名</text>
</g>
<!-- extract_start&#45;&gt;extract_read_filename -->
<g id="edge23" class="edge">
<title>extract_start&#45;&gt;extract_read_filename</title>
<path fill="none" stroke="black" d="M121,-648.81C121,-640.79 121,-631.05 121,-622.07"/>
<polygon fill="black" stroke="black" points="124.5,-622.03 121,-612.03 117.5,-622.03 124.5,-622.03"/>
</g>
<!-- extract_read_local_header -->
<g id="node26" class="node">
<title>extract_read_local_header</title>
<path fill="none" stroke="black" d="M190,-539C190,-539 52,-539 52,-539 46,-539 40,-533 40,-527 40,-527 40,-515 40,-515 40,-509 46,-503 52,-503 52,-503 190,-503 190,-503 196,-503 202,-509 202,-515 202,-515 202,-527 202,-527 202,-533 196,-539 190,-539"/>
<text text-anchor="middle" x="121" y="-517.3" font-family="Times,serif" font-size="14.00">读取LocalFileHeader</text>
</g>
<!-- extract_read_filename&#45;&gt;extract_read_local_header -->
<g id="edge24" class="edge">
<title>extract_read_filename&#45;&gt;extract_read_local_header</title>
<path fill="none" stroke="black" d="M121,-575.81C121,-567.79 121,-558.05 121,-549.07"/>
<polygon fill="black" stroke="black" points="124.5,-549.03 121,-539.03 117.5,-549.03 124.5,-549.03"/>
</g>
<!-- extract_validate_local -->
<g id="node27" class="node">
<title>extract_validate_local</title>
<path fill="none" stroke="black" d="M212,-466C212,-466 30,-466 30,-466 24,-466 18,-460 18,-454 18,-454 18,-442 18,-442 18,-436 24,-430 30,-430 30,-430 212,-430 212,-430 218,-430 224,-436 224,-442 224,-442 224,-454 224,-454 224,-460 218,-466 212,-466"/>
<text text-anchor="middle" x="121" y="-444.3" font-family="Times,serif" font-size="14.00">验证LocalHeader签名和字段</text>
</g>
<!-- extract_read_local_header&#45;&gt;extract_validate_local -->
<g id="edge25" class="edge">
<title>extract_read_local_header&#45;&gt;extract_validate_local</title>
<path fill="none" stroke="black" d="M121,-502.81C121,-494.79 121,-485.05 121,-476.07"/>
<polygon fill="black" stroke="black" points="124.5,-476.03 121,-466.03 117.5,-476.03 124.5,-476.03"/>
</g>
<!-- extract_handle_extra -->
<g id="node28" class="node">
<title>extract_handle_extra</title>
<path fill="none" stroke="black" d="M165.5,-393C165.5,-393 76.5,-393 76.5,-393 70.5,-393 64.5,-387 64.5,-381 64.5,-381 64.5,-369 64.5,-369 64.5,-363 70.5,-357 76.5,-357 76.5,-357 165.5,-357 165.5,-357 171.5,-357 177.5,-363 177.5,-369 177.5,-369 177.5,-381 177.5,-381 177.5,-387 171.5,-393 165.5,-393"/>
<text text-anchor="middle" x="121" y="-371.3" font-family="Times,serif" font-size="14.00">处理Extra字段</text>
</g>
<!-- extract_validate_local&#45;&gt;extract_handle_extra -->
<g id="edge26" class="edge">
<title>extract_validate_local&#45;&gt;extract_handle_extra</title>
<path fill="none" stroke="black" d="M121,-429.81C121,-421.79 121,-412.05 121,-403.07"/>
<polygon fill="black" stroke="black" points="124.5,-403.03 121,-393.03 117.5,-403.03 124.5,-403.03"/>
</g>
<!-- extract_check_filename -->
<g id="node29" class="node">
<title>extract_check_filename</title>
<path fill="none" stroke="black" d="M174.5,-320C174.5,-320 67.5,-320 67.5,-320 61.5,-320 55.5,-314 55.5,-308 55.5,-308 55.5,-296 55.5,-296 55.5,-290 61.5,-284 67.5,-284 67.5,-284 174.5,-284 174.5,-284 180.5,-284 186.5,-290 186.5,-296 186.5,-296 186.5,-308 186.5,-308 186.5,-314 180.5,-320 174.5,-320"/>
<text text-anchor="middle" x="121" y="-298.3" font-family="Times,serif" font-size="14.00">检查文件名合法性</text>
</g>
<!-- extract_handle_extra&#45;&gt;extract_check_filename -->
<g id="edge27" class="edge">
<title>extract_handle_extra&#45;&gt;extract_check_filename</title>
<path fill="none" stroke="black" d="M121,-356.81C121,-348.79 121,-339.05 121,-330.07"/>
<polygon fill="black" stroke="black" points="124.5,-330.03 121,-320.03 117.5,-330.03 124.5,-330.03"/>
</g>
<!-- extract_handle_directory -->
<g id="node30" class="node">
<title>extract_handle_directory</title>
<path fill="none" stroke="black" d="M131,-179C131,-179 53,-179 53,-179 47,-179 41,-173 41,-167 41,-167 41,-155 41,-155 41,-149 47,-143 53,-143 53,-143 131,-143 131,-143 137,-143 143,-149 143,-155 143,-155 143,-167 143,-167 143,-173 137,-179 131,-179"/>
<text text-anchor="middle" x="92" y="-157.3" font-family="Times,serif" font-size="14.00">处理目录创建</text>
</g>
<!-- extract_check_filename&#45;&gt;extract_handle_directory -->
<g id="edge28" class="edge">
<title>extract_check_filename&#45;&gt;extract_handle_directory</title>
<path fill="none" stroke="black" d="M101.42,-283.83C96.79,-278.62 92.48,-272.53 90,-266 80.63,-241.3 82.62,-210.87 86.05,-189.32"/>
<polygon fill="black" stroke="black" points="89.54,-189.69 87.86,-179.23 82.65,-188.46 89.54,-189.69"/>
<text text-anchor="middle" x="111.5" y="-254.8" font-family="Times,serif" font-size="14.00">是目录</text>
</g>
<!-- extract_create_file -->
<g id="node31" class="node">
<title>extract_create_file</title>
<path fill="none" stroke="black" d="M197,-233C197,-233 119,-233 119,-233 113,-233 107,-227 107,-221 107,-221 107,-209 107,-209 107,-203 113,-197 119,-197 119,-197 197,-197 197,-197 203,-197 209,-203 209,-209 209,-209 209,-221 209,-221 209,-227 203,-233 197,-233"/>
<text text-anchor="middle" x="158" y="-211.3" font-family="Times,serif" font-size="14.00">创建目标文件</text>
</g>
<!-- extract_check_filename&#45;&gt;extract_create_file -->
<g id="edge29" class="edge">
<title>extract_check_filename&#45;&gt;extract_create_file</title>
<path fill="none" stroke="black" d="M128.49,-283.8C133.65,-271.93 140.62,-255.93 146.49,-242.45"/>
<polygon fill="black" stroke="black" points="149.74,-243.74 150.52,-233.18 143.32,-240.95 149.74,-243.74"/>
<text text-anchor="middle" x="162.5" y="-254.8" font-family="Times,serif" font-size="14.00">是文件</text>
</g>
<!-- extract_return_crc -->
<g id="node33" class="node">
<title>extract_return_crc</title>
<path fill="none" stroke="black" d="M146.5,-52C146.5,-52 75.5,-52 75.5,-52 69.5,-52 63.5,-46 63.5,-40 63.5,-40 63.5,-28 63.5,-28 63.5,-22 69.5,-16 75.5,-16 75.5,-16 146.5,-16 146.5,-16 152.5,-16 158.5,-22 158.5,-28 158.5,-28 158.5,-40 158.5,-40 158.5,-46 152.5,-52 146.5,-52"/>
<text text-anchor="middle" x="111" y="-30.3" font-family="Times,serif" font-size="14.00">返回CRC32</text>
</g>
<!-- extract_handle_directory&#45;&gt;extract_return_crc -->
<g id="edge30" class="edge">
<title>extract_handle_directory&#45;&gt;extract_return_crc</title>
<path fill="none" stroke="black" d="M94.6,-142.88C97.75,-122.15 103.1,-86.95 106.83,-62.42"/>
<polygon fill="black" stroke="black" points="110.33,-62.73 108.37,-52.31 103.41,-61.67 110.33,-62.73"/>
</g>
<!-- extract_decompress -->
<g id="node32" class="node">
<title>extract_decompress</title>
<path fill="none" stroke="black" d="M178,-125C178,-125 128,-125 128,-125 122,-125 116,-119 116,-113 116,-113 116,-101 116,-101 116,-95 122,-89 128,-89 128,-89 178,-89 178,-89 184,-89 190,-95 190,-101 190,-101 190,-113 190,-113 190,-119 184,-125 178,-125"/>
<text text-anchor="middle" x="153" y="-103.3" font-family="Times,serif" font-size="14.00">解压数据</text>
</g>
<!-- extract_create_file&#45;&gt;extract_decompress -->
<g id="edge31" class="edge">
<title>extract_create_file&#45;&gt;extract_decompress</title>
<path fill="none" stroke="black" d="M157.2,-196.97C156.41,-180.38 155.21,-154.88 154.29,-135.43"/>
<polygon fill="black" stroke="black" points="157.79,-135.16 153.82,-125.34 150.79,-135.49 157.79,-135.16"/>
</g>
<!-- extract_decompress&#45;&gt;extract_return_crc -->
<g id="edge32" class="edge">
<title>extract_decompress&#45;&gt;extract_return_crc</title>
<path fill="none" stroke="black" d="M142.83,-88.81C137.88,-80.44 131.82,-70.2 126.32,-60.9"/>
<polygon fill="black" stroke="black" points="129.18,-58.85 121.07,-52.03 123.15,-62.42 129.18,-58.85"/>
</g>
</g>
</svg>
