<?xml version="1.0" encoding="UTF-8" standalone="no"?>
<!DOCTYPE svg PUBLIC "-//W3C//DTD SVG 1.1//EN"
 "http://www.w3.org/Graphics/SVG/1.1/DTD/svg11.dtd">
<!-- Generated by graphviz version 2.43.0 (0)
 -->
<!-- Title: flowchart Pages: 1 -->
<svg width="4012pt" height="308pt"
 viewBox="0.00 0.00 4011.50 308.00" xmlns="http://www.w3.org/2000/svg" xmlns:xlink="http://www.w3.org/1999/xlink">
<g id="graph0" class="graph" transform="scale(1 1) rotate(0) translate(4 304)">
<title>flowchart</title>
<polygon fill="white" stroke="transparent" points="-4,4 -4,-304 4007.5,-304 4007.5,4 -4,4"/>
<!-- start -->
<g id="node1" class="node">
<title>start</title>
<ellipse fill="#f0f0f0" stroke="black" cx="2018.5" cy="-282" rx="150.27" ry="18"/>
<text text-anchor="middle" x="2018.5" y="-278.3" font-family="Courier New" font-size="14.00">typeOfIndex(air, inst, ip)</text>
</g>
<!-- switch -->
<g id="node2" class="node">
<title>switch</title>
<polygon fill="#f0f0f0" stroke="black" points="2018.5,-227 1669.44,-209 2018.5,-191 2367.56,-209 2018.5,-227"/>
<text text-anchor="middle" x="2018.5" y="-205.3" font-family="Courier New" font-size="14.00">Switch on air.instructions.items(.tag)[inst]</text>
</g>
<!-- start&#45;&gt;switch -->
<g id="edge1" class="edge">
<title>start&#45;&gt;switch</title>
<path fill="none" stroke="black" d="M2018.5,-263.81C2018.5,-255.79 2018.5,-246.05 2018.5,-237.07"/>
<polygon fill="black" stroke="black" points="2022,-237.03 2018.5,-227.03 2015,-237.03 2022,-237.03"/>
</g>
<!-- bin_ops -->
<g id="node3" class="node">
<title>bin_ops</title>
<polygon fill="#f0f0f0" stroke="black" points="223,-140 0,-140 0,-87 223,-87 223,-140"/>
<text text-anchor="middle" x="111.5" y="-124.8" font-family="Courier New" font-size="14.00">Binary Operations</text>
<text text-anchor="middle" x="111.5" y="-109.8" font-family="Courier New" font-size="14.00">(add/sub/mul/div etc)</text>
<text text-anchor="middle" x="111.5" y="-94.8" font-family="Courier New" font-size="14.00">Return typeOf(bin_op.lhs)</text>
</g>
<!-- switch&#45;&gt;bin_ops -->
<g id="edge2" class="edge">
<title>switch&#45;&gt;bin_ops</title>
<path fill="none" stroke="black" d="M1709.12,-206.94C1247.62,-204.58 418.36,-197.01 282.5,-173 248.21,-166.94 211.51,-155.14 180.93,-143.71"/>
<polygon fill="black" stroke="black" points="181.82,-140.31 171.23,-140.03 179.34,-146.85 181.82,-140.31"/>
<text text-anchor="middle" x="357" y="-161.8" font-family="Courier New" font-size="14.00">.add/.sub/.mul etc</text>
</g>
<!-- un_ops -->
<g id="node4" class="node">
<title>un_ops</title>
<polygon fill="#f0f0f0" stroke="black" points="423.5,-140 241.5,-140 241.5,-87 423.5,-87 423.5,-140"/>
<text text-anchor="middle" x="332.5" y="-124.8" font-family="Courier New" font-size="14.00">Unary Operations</text>
<text text-anchor="middle" x="332.5" y="-109.8" font-family="Courier New" font-size="14.00">(sqrt/sin/cos etc)</text>
<text text-anchor="middle" x="332.5" y="-94.8" font-family="Courier New" font-size="14.00">Return typeOf(un_op)</text>
</g>
<!-- switch&#45;&gt;un_ops -->
<g id="edge3" class="edge">
<title>switch&#45;&gt;un_ops</title>
<path fill="none" stroke="black" d="M1716.7,-206.55C1304.8,-203.74 604.17,-195.66 487.5,-173 456.43,-166.97 423.44,-155.31 395.91,-143.98"/>
<polygon fill="black" stroke="black" points="396.99,-140.64 386.42,-140 394.29,-147.1 396.99,-140.64"/>
<text text-anchor="middle" x="566" y="-161.8" font-family="Courier New" font-size="14.00">.sqrt/.sin/.neg etc</text>
</g>
<!-- cmp_ops -->
<g id="node5" class="node">
<title>cmp_ops</title>
<polygon fill="#f0f0f0" stroke="black" points="631.5,-132.5 441.5,-132.5 441.5,-94.5 631.5,-94.5 631.5,-132.5"/>
<text text-anchor="middle" x="536.5" y="-117.3" font-family="Courier New" font-size="14.00">Comparison Operations</text>
<text text-anchor="middle" x="536.5" y="-102.3" font-family="Courier New" font-size="14.00">Return Type.bool</text>
</g>
<!-- switch&#45;&gt;cmp_ops -->
<g id="edge4" class="edge">
<title>switch&#45;&gt;cmp_ops</title>
<path fill="none" stroke="black" d="M1743.65,-205.15C1388.62,-200.78 804.28,-190.97 705.5,-173 664.35,-165.51 619.72,-149.71 586.66,-136.41"/>
<polygon fill="black" stroke="black" points="587.8,-133.1 577.22,-132.56 585.15,-139.58 587.8,-133.1"/>
<text text-anchor="middle" x="788.5" y="-161.8" font-family="Courier New" font-size="14.00">.cmp_lt/.is_null etc</text>
</g>
<!-- alloc_ops -->
<g id="node6" class="node">
<title>alloc_ops</title>
<polygon fill="#f0f0f0" stroke="black" points="839.5,-132.5 649.5,-132.5 649.5,-94.5 839.5,-94.5 839.5,-132.5"/>
<text text-anchor="middle" x="744.5" y="-117.3" font-family="Courier New" font-size="14.00">Allocation/ReturnPtr</text>
<text text-anchor="middle" x="744.5" y="-102.3" font-family="Courier New" font-size="14.00">Return datas[inst].ty</text>
</g>
<!-- switch&#45;&gt;alloc_ops -->
<g id="edge5" class="edge">
<title>switch&#45;&gt;alloc_ops</title>
<path fill="none" stroke="black" d="M1712.76,-206.76C1447.49,-204.08 1084.27,-196.12 941.5,-173 893.61,-165.24 841.02,-149.22 802.22,-135.9"/>
<polygon fill="black" stroke="black" points="803.27,-132.56 792.67,-132.58 800.97,-139.17 803.27,-132.56"/>
<text text-anchor="middle" x="1020" y="-161.8" font-family="Courier New" font-size="14.00">.alloc/.ret_ptr etc</text>
</g>
<!-- arg_op -->
<g id="node7" class="node">
<title>arg_op</title>
<polygon fill="#f0f0f0" stroke="black" points="1055.5,-132.5 857.5,-132.5 857.5,-94.5 1055.5,-94.5 1055.5,-132.5"/>
<text text-anchor="middle" x="956.5" y="-117.3" font-family="Courier New" font-size="14.00">.arg</text>
<text text-anchor="middle" x="956.5" y="-102.3" font-family="Courier New" font-size="14.00">Return arg.ty.toType()</text>
</g>
<!-- switch&#45;&gt;arg_op -->
<g id="edge6" class="edge">
<title>switch&#45;&gt;arg_op</title>
<path fill="none" stroke="black" d="M1771.45,-203.73C1564.61,-199.05 1286.05,-189.85 1175.5,-173 1122.44,-164.91 1063.76,-148.84 1020.51,-135.59"/>
<polygon fill="black" stroke="black" points="1021.28,-132.16 1010.69,-132.54 1019.21,-138.85 1021.28,-132.16"/>
<text text-anchor="middle" x="1192.5" y="-161.8" font-family="Courier New" font-size="14.00">.arg</text>
</g>
<!-- ty_pl_ops -->
<g id="node8" class="node">
<title>ty_pl_ops</title>
<polygon fill="#f0f0f0" stroke="black" points="1305,-132.5 1074,-132.5 1074,-94.5 1305,-94.5 1305,-132.5"/>
<text text-anchor="middle" x="1189.5" y="-117.3" font-family="Courier New" font-size="14.00">Struct/Slice/Aggregate Ops</text>
<text text-anchor="middle" x="1189.5" y="-102.3" font-family="Courier New" font-size="14.00">Return ty_pl.ty.toType()</text>
</g>
<!-- switch&#45;&gt;ty_pl_ops -->
<g id="edge7" class="edge">
<title>switch&#45;&gt;ty_pl_ops</title>
<path fill="none" stroke="black" d="M1705.09,-207.15C1503.83,-204.35 1272.48,-196.04 1230.5,-173 1217.89,-166.08 1208.29,-153.42 1201.56,-141.64"/>
<polygon fill="black" stroke="black" points="1204.52,-139.75 1196.78,-132.51 1198.32,-143 1204.52,-139.75"/>
<text text-anchor="middle" x="1346.5" y="-161.8" font-family="Courier New" font-size="14.00">.struct_field_ptr/.slice etc</text>
</g>
<!-- ty_op_ops -->
<g id="node9" class="node">
<title>ty_op_ops</title>
<polygon fill="#f0f0f0" stroke="black" points="1538,-132.5 1323,-132.5 1323,-94.5 1538,-94.5 1538,-132.5"/>
<text text-anchor="middle" x="1430.5" y="-117.3" font-family="Courier New" font-size="14.00">Bitcast/Load/IntCast etc</text>
<text text-anchor="middle" x="1430.5" y="-102.3" font-family="Courier New" font-size="14.00">Return ty_op.ty.toType()</text>
</g>
<!-- switch&#45;&gt;ty_op_ops -->
<g id="edge8" class="edge">
<title>switch&#45;&gt;ty_op_ops</title>
<path fill="none" stroke="black" d="M1814.1,-201.53C1677.4,-196 1517.28,-186.73 1487.5,-173 1472.12,-165.91 1458.68,-152.7 1448.73,-140.63"/>
<polygon fill="black" stroke="black" points="1451.32,-138.26 1442.41,-132.54 1445.81,-142.57 1451.32,-138.26"/>
<text text-anchor="middle" x="1582.5" y="-161.8" font-family="Courier New" font-size="14.00">.not/.bitcast/.load etc</text>
</g>
<!-- noreturn_ops -->
<g id="node10" class="node">
<title>noreturn_ops</title>
<polygon fill="#f0f0f0" stroke="black" points="1738.5,-140 1556.5,-140 1556.5,-87 1738.5,-87 1738.5,-140"/>
<text text-anchor="middle" x="1647.5" y="-124.8" font-family="Courier New" font-size="14.00">Control Flow Ops</text>
<text text-anchor="middle" x="1647.5" y="-109.8" font-family="Courier New" font-size="14.00">(loop/br/ret etc)</text>
<text text-anchor="middle" x="1647.5" y="-94.8" font-family="Courier New" font-size="14.00">Return Type.noreturn</text>
</g>
<!-- switch&#45;&gt;noreturn_ops -->
<g id="edge9" class="edge">
<title>switch&#45;&gt;noreturn_ops</title>
<path fill="none" stroke="black" d="M1846.34,-199.86C1786.02,-194.73 1726.78,-186.42 1700.5,-173 1689.06,-167.16 1678.89,-157.75 1670.59,-148.17"/>
<polygon fill="black" stroke="black" points="1673.1,-145.71 1664.08,-140.16 1667.67,-150.12 1673.1,-145.71"/>
<text text-anchor="middle" x="1775" y="-161.8" font-family="Courier New" font-size="14.00">.loop/.br/.ret etc</text>
</g>
<!-- void_ops -->
<g id="node11" class="node">
<title>void_ops</title>
<polygon fill="#f0f0f0" stroke="black" points="1922,-132.5 1757,-132.5 1757,-94.5 1922,-94.5 1922,-132.5"/>
<text text-anchor="middle" x="1839.5" y="-117.3" font-family="Courier New" font-size="14.00">Store/Prefetch etc</text>
<text text-anchor="middle" x="1839.5" y="-102.3" font-family="Courier New" font-size="14.00">Return Type.void</text>
</g>
<!-- switch&#45;&gt;void_ops -->
<g id="edge10" class="edge">
<title>switch&#45;&gt;void_ops</title>
<path fill="none" stroke="black" d="M1910.15,-196.53C1893.99,-191.2 1878.44,-183.65 1865.5,-173 1856.11,-165.27 1849.99,-153.45 1846.07,-142.45"/>
<polygon fill="black" stroke="black" points="1849.36,-141.24 1843.05,-132.73 1842.67,-143.32 1849.36,-141.24"/>
<text text-anchor="middle" x="1940" y="-161.8" font-family="Courier New" font-size="14.00">.store/.memset etc</text>
</g>
<!-- usize_ops -->
<g id="node12" class="node">
<title>usize_ops</title>
<polygon fill="#f0f0f0" stroke="black" points="2097,-132.5 1940,-132.5 1940,-94.5 2097,-94.5 2097,-132.5"/>
<text text-anchor="middle" x="2018.5" y="-117.3" font-family="Courier New" font-size="14.00">SliceLen/RetAddr</text>
<text text-anchor="middle" x="2018.5" y="-102.3" font-family="Courier New" font-size="14.00">Return Type.usize</text>
</g>
<!-- switch&#45;&gt;usize_ops -->
<g id="edge11" class="edge">
<title>switch&#45;&gt;usize_ops</title>
<path fill="none" stroke="black" d="M2018.5,-190.85C2018.5,-177.49 2018.5,-158.64 2018.5,-143.01"/>
<polygon fill="black" stroke="black" points="2022,-142.82 2018.5,-132.82 2015,-142.82 2022,-142.82"/>
<text text-anchor="middle" x="2109.5" y="-161.8" font-family="Courier New" font-size="14.00">.slice_len/.frame_addr</text>
</g>
<!-- call_ops -->
<g id="node13" class="node">
<title>call_ops</title>
<polygon fill="#f0f0f0" stroke="black" points="2363.5,-132.5 2115.5,-132.5 2115.5,-94.5 2363.5,-94.5 2363.5,-132.5"/>
<text text-anchor="middle" x="2239.5" y="-117.3" font-family="Courier New" font-size="14.00">Call Operations</text>
<text text-anchor="middle" x="2239.5" y="-102.3" font-family="Courier New" font-size="14.00">Resolve function return type</text>
</g>
<!-- switch&#45;&gt;call_ops -->
<g id="edge12" class="edge">
<title>switch&#45;&gt;call_ops</title>
<path fill="none" stroke="black" d="M2117.72,-196.04C2152.81,-190.35 2187.14,-182.65 2201.5,-173 2212.81,-165.4 2221.52,-153.18 2227.72,-141.87"/>
<polygon fill="black" stroke="black" points="2230.97,-143.21 2232.35,-132.71 2224.72,-140.05 2230.97,-143.21"/>
<text text-anchor="middle" x="2312.5" y="-161.8" font-family="Courier New" font-size="14.00">.call/.call_always_tail</text>
</g>
<!-- elem_val_ops -->
<g id="node14" class="node">
<title>elem_val_ops</title>
<polygon fill="#f0f0f0" stroke="black" points="2605,-132.5 2382,-132.5 2382,-94.5 2605,-94.5 2605,-132.5"/>
<text text-anchor="middle" x="2493.5" y="-117.3" font-family="Courier New" font-size="14.00">Slice/Array Elem Val</text>
<text text-anchor="middle" x="2493.5" y="-102.3" font-family="Courier New" font-size="14.00">Return ptr_ty.childType()</text>
</g>
<!-- switch&#45;&gt;elem_val_ops -->
<g id="edge13" class="edge">
<title>switch&#45;&gt;elem_val_ops</title>
<path fill="none" stroke="black" d="M2205.72,-200.63C2287.68,-195.5 2373.72,-186.97 2411.5,-173 2422.45,-168.95 2444.29,-153.2 2462.68,-139.07"/>
<polygon fill="black" stroke="black" points="2465.08,-141.63 2470.84,-132.74 2460.79,-136.11 2465.08,-141.63"/>
<text text-anchor="middle" x="2564.5" y="-161.8" font-family="Courier New" font-size="14.00">.slice_elem_val/.array_elem_val</text>
</g>
<!-- atomic_ops -->
<g id="node15" class="node">
<title>atomic_ops</title>
<polygon fill="#f0f0f0" stroke="black" points="2846,-132.5 2623,-132.5 2623,-94.5 2846,-94.5 2846,-132.5"/>
<text text-anchor="middle" x="2734.5" y="-117.3" font-family="Courier New" font-size="14.00">Atomic Operations</text>
<text text-anchor="middle" x="2734.5" y="-102.3" font-family="Courier New" font-size="14.00">Return ptr_ty.childType()</text>
</g>
<!-- switch&#45;&gt;atomic_ops -->
<g id="edge14" class="edge">
<title>switch&#45;&gt;atomic_ops</title>
<path fill="none" stroke="black" d="M2292.1,-205.09C2463.3,-201.31 2657.95,-192.68 2693.5,-173 2706,-166.08 2715.55,-153.54 2722.28,-141.84"/>
<polygon fill="black" stroke="black" points="2725.5,-143.24 2727.07,-132.76 2719.31,-139.97 2725.5,-143.24"/>
<text text-anchor="middle" x="2811" y="-161.8" font-family="Courier New" font-size="14.00">.atomic_load/.atomic_rmw</text>
</g>
<!-- reduce_ops -->
<g id="node16" class="node">
<title>reduce_ops</title>
<polygon fill="#f0f0f0" stroke="black" points="3079,-132.5 2864,-132.5 2864,-94.5 3079,-94.5 3079,-132.5"/>
<text text-anchor="middle" x="2971.5" y="-117.3" font-family="Courier New" font-size="14.00">Reduce Operations</text>
<text text-anchor="middle" x="2971.5" y="-102.3" font-family="Courier New" font-size="14.00">Return vector child type</text>
</g>
<!-- switch&#45;&gt;reduce_ops -->
<g id="edge15" class="edge">
<title>switch&#45;&gt;reduce_ops</title>
<path fill="none" stroke="black" d="M2330.97,-207.11C2567.92,-204.53 2861.63,-196.53 2914.5,-173 2929.97,-166.11 2943.42,-152.92 2953.35,-140.8"/>
<polygon fill="black" stroke="black" points="2956.29,-142.72 2959.66,-132.68 2950.76,-138.43 2956.29,-142.72"/>
<text text-anchor="middle" x="3041" y="-161.8" font-family="Courier New" font-size="14.00">.reduce/.reduce_optimized</text>
</g>
<!-- select_op -->
<g id="node17" class="node">
<title>select_op</title>
<polygon fill="#f0f0f0" stroke="black" points="3237.5,-132.5 3097.5,-132.5 3097.5,-94.5 3237.5,-94.5 3237.5,-132.5"/>
<text text-anchor="middle" x="3167.5" y="-117.3" font-family="Courier New" font-size="14.00">Select</text>
<text text-anchor="middle" x="3167.5" y="-102.3" font-family="Courier New" font-size="14.00">Return lhs type</text>
</g>
<!-- switch&#45;&gt;select_op -->
<g id="edge16" class="edge">
<title>switch&#45;&gt;select_op</title>
<path fill="none" stroke="black" d="M2325.83,-206.83C2648.05,-204.34 3112.45,-196.65 3145.5,-173 3155.36,-165.94 3160.81,-153.89 3163.81,-142.56"/>
<polygon fill="black" stroke="black" points="3167.29,-143.02 3165.94,-132.51 3160.44,-141.57 3167.29,-143.02"/>
<text text-anchor="middle" x="3186.5" y="-161.8" font-family="Courier New" font-size="14.00">.select</text>
</g>
<!-- try_op -->
<g id="node18" class="node">
<title>try_op</title>
<polygon fill="#f0f0f0" stroke="black" points="3487,-132.5 3256,-132.5 3256,-94.5 3487,-94.5 3487,-132.5"/>
<text text-anchor="middle" x="3371.5" y="-117.3" font-family="Courier New" font-size="14.00">Try Operations</text>
<text text-anchor="middle" x="3371.5" y="-102.3" font-family="Courier New" font-size="14.00">Return error union payload</text>
</g>
<!-- switch&#45;&gt;try_op -->
<g id="edge17" class="edge">
<title>switch&#45;&gt;try_op</title>
<path fill="none" stroke="black" d="M2288.9,-204.93C2615.17,-200.48 3131.18,-190.74 3219.5,-173 3256.52,-165.56 3296.28,-149.96 3325.85,-136.74"/>
<polygon fill="black" stroke="black" points="3327.42,-139.88 3335.07,-132.55 3324.52,-133.5 3327.42,-139.88"/>
<text text-anchor="middle" x="3329.5" y="-161.8" font-family="Courier New" font-size="14.00">.try/.try_cold</text>
</g>
<!-- workgroup_ops -->
<g id="node19" class="node">
<title>workgroup_ops</title>
<polygon fill="#f0f0f0" stroke="black" points="3645.5,-132.5 3505.5,-132.5 3505.5,-94.5 3645.5,-94.5 3645.5,-132.5"/>
<text text-anchor="middle" x="3575.5" y="-117.3" font-family="Courier New" font-size="14.00">Workgroup IDs</text>
<text text-anchor="middle" x="3575.5" y="-102.3" font-family="Courier New" font-size="14.00">Return Type.u32</text>
</g>
<!-- switch&#45;&gt;workgroup_ops -->
<g id="edge18" class="edge">
<title>switch&#45;&gt;workgroup_ops</title>
<path fill="none" stroke="black" d="M2292.9,-205.14C2662.63,-200.65 3286.75,-190.59 3391.5,-173 3436.41,-165.46 3485.48,-149.45 3521.64,-136.08"/>
<polygon fill="black" stroke="black" points="3522.87,-139.35 3531.01,-132.56 3520.42,-132.8 3522.87,-139.35"/>
<text text-anchor="middle" x="3524" y="-161.8" font-family="Courier New" font-size="14.00">.work_item_id etc</text>
</g>
<!-- unreachable_ops -->
<g id="node20" class="node">
<title>unreachable_ops</title>
<polygon fill="#f0f0f0" stroke="black" points="3795.5,-132.5 3663.5,-132.5 3663.5,-94.5 3795.5,-94.5 3795.5,-132.5"/>
<text text-anchor="middle" x="3729.5" y="-117.3" font-family="Courier New" font-size="14.00">Inferred Alloc</text>
<text text-anchor="middle" x="3729.5" y="-102.3" font-family="Courier New" font-size="14.00">Unreachable</text>
</g>
<!-- switch&#45;&gt;unreachable_ops -->
<g id="edge19" class="edge">
<title>switch&#45;&gt;unreachable_ops</title>
<path fill="none" stroke="black" d="M2341.83,-207.67C2768.58,-206.18 3479.92,-199.65 3598.5,-173 3630.53,-165.8 3664.31,-150.51 3689.54,-137.36"/>
<polygon fill="black" stroke="black" points="3691.24,-140.42 3698.43,-132.63 3687.96,-134.24 3691.24,-140.42"/>
<text text-anchor="middle" x="3705.5" y="-161.8" font-family="Courier New" font-size="14.00">.inferred_alloc</text>
</g>
<!-- misc_ops -->
<g id="node21" class="node">
<title>misc_ops</title>
<polygon fill="#f0f0f0" stroke="black" points="4003.5,-132.5 3813.5,-132.5 3813.5,-94.5 4003.5,-94.5 4003.5,-132.5"/>
<text text-anchor="middle" x="3908.5" y="-117.3" font-family="Courier New" font-size="14.00">TagName/ErrorName</text>
<text text-anchor="middle" x="3908.5" y="-102.3" font-family="Courier New" font-size="14.00">Return slice_const_u8</text>
</g>
<!-- switch&#45;&gt;misc_ops -->
<g id="edge20" class="edge">
<title>switch&#45;&gt;misc_ops</title>
<path fill="none" stroke="black" d="M2352.41,-208.19C2822.51,-207.42 3637.35,-201.84 3771.5,-173 3805.09,-165.78 3840.71,-150.3 3867.2,-137.08"/>
<polygon fill="black" stroke="black" points="3868.85,-140.17 3876.18,-132.51 3865.68,-133.93 3868.85,-140.17"/>
<text text-anchor="middle" x="3905.5" y="-161.8" font-family="Courier New" font-size="14.00">.tag_name/.error_name</text>
</g>
<!-- end -->
<g id="node22" class="node">
<title>end</title>
<ellipse fill="#f0f0f0" stroke="black" cx="1928.5" cy="-18" rx="69.59" ry="18"/>
<text text-anchor="middle" x="1928.5" y="-14.3" font-family="Courier New" font-size="14.00">Return Type</text>
</g>
<!-- bin_ops&#45;&gt;end -->
<g id="edge21" class="edge">
<title>bin_ops&#45;&gt;end</title>
<path fill="none" stroke="black" d="M223.17,-88.53C226.31,-87.99 229.42,-87.48 232.5,-87 372.44,-65.03 408.14,-63.14 549.5,-54 1042.7,-22.12 1636.88,-18.89 1848.72,-18.84"/>
<polygon fill="black" stroke="black" points="1848.82,-22.34 1858.82,-18.84 1848.82,-15.34 1848.82,-22.34"/>
</g>
<!-- un_ops&#45;&gt;end -->
<g id="edge22" class="edge">
<title>un_ops&#45;&gt;end</title>
<path fill="none" stroke="black" d="M423.67,-88.67C426.64,-88.08 429.59,-87.52 432.5,-87 572.38,-62.04 608.72,-63.45 750.5,-54 1163.2,-26.49 1658.68,-20.6 1848.85,-19.34"/>
<polygon fill="black" stroke="black" points="1849.06,-22.84 1859.04,-19.28 1849.02,-15.84 1849.06,-22.84"/>
</g>
<!-- cmp_ops&#45;&gt;end -->
<g id="edge23" class="edge">
<title>cmp_ops&#45;&gt;end</title>
<path fill="none" stroke="black" d="M605.06,-94.45C616.83,-91.7 628.98,-89.1 640.5,-87 761.61,-64.97 792.77,-63.47 915.5,-54 1262.39,-27.24 1677.68,-20.94 1848.82,-19.46"/>
<polygon fill="black" stroke="black" points="1849.02,-22.95 1858.99,-19.37 1848.97,-15.95 1849.02,-22.95"/>
<text text-anchor="middle" x="953" y="-57.8" font-family="Courier New" font-size="14.00">Type.bool</text>
</g>
<!-- alloc_ops&#45;&gt;end -->
<g id="edge24" class="edge">
<title>alloc_ops&#45;&gt;end</title>
<path fill="none" stroke="black" d="M811.89,-94.45C824.01,-91.64 836.58,-89.01 848.5,-87 1218.56,-24.68 1668.65,-18.21 1848.58,-18.38"/>
<polygon fill="black" stroke="black" points="1848.75,-21.88 1858.75,-18.4 1848.76,-14.88 1848.75,-21.88"/>
</g>
<!-- arg_op&#45;&gt;end -->
<g id="edge25" class="edge">
<title>arg_op&#45;&gt;end</title>
<path fill="none" stroke="black" d="M1026.21,-94.48C1038.89,-91.65 1052.04,-89 1064.5,-87 1351.13,-40.97 1696.49,-25.7 1849.23,-20.97"/>
<polygon fill="black" stroke="black" points="1849.56,-24.46 1859.45,-20.66 1849.35,-17.46 1849.56,-24.46"/>
</g>
<!-- ty_pl_ops&#45;&gt;end -->
<g id="edge26" class="edge">
<title>ty_pl_ops&#45;&gt;end</title>
<path fill="none" stroke="black" d="M1271.68,-94.49C1285.6,-91.76 1299.93,-89.14 1313.5,-87 1506.88,-56.49 1736.62,-34.96 1852.93,-25.08"/>
<polygon fill="black" stroke="black" points="1853.48,-28.55 1863.15,-24.22 1852.89,-21.57 1853.48,-28.55"/>
</g>
<!-- ty_op_ops&#45;&gt;end -->
<g id="edge27" class="edge">
<title>ty_op_ops&#45;&gt;end</title>
<path fill="none" stroke="black" d="M1511.3,-94.48C1523.41,-91.9 1535.78,-89.33 1547.5,-87 1657.25,-65.21 1785.43,-42.99 1861.62,-30.13"/>
<polygon fill="black" stroke="black" points="1862.29,-33.57 1871.57,-28.45 1861.12,-26.66 1862.29,-33.57"/>
</g>
<!-- noreturn_ops&#45;&gt;end -->
<g id="edge28" class="edge">
<title>noreturn_ops&#45;&gt;end</title>
<path fill="none" stroke="black" d="M1694.23,-86.97C1716.51,-75.61 1743.85,-62.84 1769.5,-54 1799.02,-43.83 1832.67,-35.91 1861.39,-30.21"/>
<polygon fill="black" stroke="black" points="1862.18,-33.62 1871.33,-28.28 1860.85,-26.75 1862.18,-33.62"/>
<text text-anchor="middle" x="1823.5" y="-57.8" font-family="Courier New" font-size="14.00">Type.noreturn</text>
</g>
<!-- void_ops&#45;&gt;end -->
<g id="edge29" class="edge">
<title>void_ops&#45;&gt;end</title>
<path fill="none" stroke="black" d="M1856.66,-94.47C1870.55,-79.88 1890.24,-59.19 1905.5,-43.16"/>
<polygon fill="black" stroke="black" points="1908.23,-45.37 1912.59,-35.72 1903.16,-40.55 1908.23,-45.37"/>
<text text-anchor="middle" x="1933" y="-57.8" font-family="Courier New" font-size="14.00">Type.void</text>
</g>
<!-- usize_ops&#45;&gt;end -->
<g id="edge30" class="edge">
<title>usize_ops&#45;&gt;end</title>
<path fill="none" stroke="black" d="M2006.77,-94.33C1998.51,-82.23 1986.78,-66.35 1974.5,-54 1970.24,-49.72 1965.44,-45.51 1960.58,-41.58"/>
<polygon fill="black" stroke="black" points="1962.5,-38.64 1952.46,-35.27 1958.21,-44.17 1962.5,-38.64"/>
<text text-anchor="middle" x="2030" y="-57.8" font-family="Courier New" font-size="14.00">Type.usize</text>
</g>
<!-- call_ops&#45;&gt;end -->
<g id="edge31" class="edge">
<title>call_ops&#45;&gt;end</title>
<path fill="none" stroke="black" d="M2193.29,-94.49C2160.67,-82.16 2115.79,-65.94 2075.5,-54 2047.84,-45.8 2016.83,-38.19 1990.44,-32.17"/>
<polygon fill="black" stroke="black" points="1991.09,-28.73 1980.57,-29.95 1989.55,-35.56 1991.09,-28.73"/>
<text text-anchor="middle" x="2188" y="-57.8" font-family="Courier New" font-size="14.00">func return type</text>
</g>
<!-- elem_val_ops&#45;&gt;end -->
<g id="edge32" class="edge">
<title>elem_val_ops&#45;&gt;end</title>
<path fill="none" stroke="black" d="M2431.17,-94.48C2384.09,-81.49 2317.71,-64.46 2258.5,-54 2172.29,-38.77 2072.16,-29.29 2005.01,-24.1"/>
<polygon fill="black" stroke="black" points="2005.17,-20.6 1994.93,-23.33 2004.64,-27.58 2005.17,-20.6"/>
</g>
<!-- atomic_ops&#45;&gt;end -->
<g id="edge33" class="edge">
<title>atomic_ops&#45;&gt;end</title>
<path fill="none" stroke="black" d="M2654.65,-94.5C2640.97,-91.75 2626.86,-89.12 2613.5,-87 2394.3,-52.13 2132.63,-32.07 2005.47,-23.68"/>
<polygon fill="black" stroke="black" points="2005.65,-20.18 1995.44,-23.02 2005.19,-27.17 2005.65,-20.18"/>
</g>
<!-- reduce_ops&#45;&gt;end -->
<g id="edge34" class="edge">
<title>reduce_ops&#45;&gt;end</title>
<path fill="none" stroke="black" d="M2895.94,-94.47C2882.21,-91.64 2867.97,-89 2854.5,-87 2543.22,-40.89 2168.22,-25.56 2007.68,-20.88"/>
<polygon fill="black" stroke="black" points="2007.52,-17.38 1997.42,-20.59 2007.32,-24.37 2007.52,-17.38"/>
</g>
<!-- select_op&#45;&gt;end -->
<g id="edge35" class="edge">
<title>select_op&#45;&gt;end</title>
<path fill="none" stroke="black" d="M3116.75,-94.38C3107.14,-91.5 3097.09,-88.87 3087.5,-87 2879.86,-46.57 2233.56,-26.72 2007.52,-20.89"/>
<polygon fill="black" stroke="black" points="2007.48,-17.39 1997.4,-20.63 2007.31,-24.38 2007.48,-17.39"/>
</g>
<!-- try_op&#45;&gt;end -->
<g id="edge36" class="edge">
<title>try_op&#45;&gt;end</title>
<path fill="none" stroke="black" d="M3289.7,-94.45C3275.35,-91.68 3260.53,-89.06 3246.5,-87 3084.9,-63.31 3043.5,-64.34 2880.5,-54 2557.27,-33.5 2171.5,-23.88 2007.99,-20.49"/>
<polygon fill="black" stroke="black" points="2007.62,-16.99 1997.55,-20.28 2007.48,-23.98 2007.62,-16.99"/>
</g>
<!-- workgroup_ops&#45;&gt;end -->
<g id="edge37" class="edge">
<title>workgroup_ops&#45;&gt;end</title>
<path fill="none" stroke="black" d="M3525.19,-94.44C3515.45,-91.52 3505.24,-88.85 3495.5,-87 3281.07,-46.23 3223.5,-64.88 3005.5,-54 2632.28,-35.37 2185.79,-24.51 2007.59,-20.63"/>
<polygon fill="black" stroke="black" points="2007.59,-17.13 1997.52,-20.41 2007.44,-24.13 2007.59,-17.13"/>
<text text-anchor="middle" x="3417" y="-57.8" font-family="Courier New" font-size="14.00">Type.u32</text>
</g>
<!-- misc_ops&#45;&gt;end -->
<g id="edge38" class="edge">
<title>misc_ops&#45;&gt;end</title>
<path fill="none" stroke="black" d="M3841.11,-94.46C3828.98,-91.65 3816.42,-89.01 3804.5,-87 3650.43,-60.99 3610.48,-63.13 3454.5,-54 2901.82,-21.65 2234.92,-18.79 2008.29,-18.83"/>
<polygon fill="black" stroke="black" points="2008.16,-15.33 1998.16,-18.84 2008.16,-22.33 2008.16,-15.33"/>
<text text-anchor="middle" x="3736.5" y="-57.8" font-family="Courier New" font-size="14.00">slice_const_u8</text>
</g>
</g>
</svg>
