<?xml version="1.0" encoding="UTF-8" standalone="no"?>
<!DOCTYPE svg PUBLIC "-//W3C//DTD SVG 1.1//EN"
 "http://www.w3.org/Graphics/SVG/1.1/DTD/svg11.dtd">
<!-- Generated by graphviz version 2.43.0 (0)
 -->
<!-- Title: flowchart Pages: 1 -->
<svg width="1829pt" height="743pt"
 viewBox="0.00 0.00 1829.00 743.00" xmlns="http://www.w3.org/2000/svg" xmlns:xlink="http://www.w3.org/1999/xlink">
<g id="graph0" class="graph" transform="scale(1 1) rotate(0) translate(4 739)">
<title>flowchart</title>
<polygon fill="white" stroke="transparent" points="-4,4 -4,-739 1825,-739 1825,4 -4,4"/>
<!-- start -->
<g id="node1" class="node">
<title>start</title>
<path fill="none" stroke="black" d="M880,-735C880,-735 700,-735 700,-735 694,-735 688,-729 688,-723 688,-723 688,-711 688,-711 688,-705 694,-699 700,-699 700,-699 880,-699 880,-699 886,-699 892,-705 892,-711 892,-711 892,-723 892,-723 892,-729 886,-735 880,-735"/>
<text text-anchor="middle" x="790" y="-713.3" font-family="Helvetica,sans-Serif" font-size="14.00">开始 genSetStackArgument</text>
</g>
<!-- check_mcv -->
<g id="node3" class="node">
<title>check_mcv</title>
<path fill="none" stroke="black" d="M833,-662C833,-662 747,-662 747,-662 741,-662 735,-656 735,-650 735,-650 735,-638 735,-638 735,-632 741,-626 747,-626 747,-626 833,-626 833,-626 839,-626 845,-632 845,-638 845,-638 845,-650 845,-650 845,-656 839,-662 833,-662"/>
<text text-anchor="middle" x="790" y="-640.3" font-family="Helvetica,sans-Serif" font-size="14.00">检查 mcv 类型</text>
</g>
<!-- start&#45;&gt;check_mcv -->
<g id="edge1" class="edge">
<title>start&#45;&gt;check_mcv</title>
<path fill="none" stroke="black" d="M790,-698.81C790,-690.79 790,-681.05 790,-672.07"/>
<polygon fill="black" stroke="black" points="793.5,-672.03 790,-662.03 786.5,-672.03 793.5,-672.03"/>
</g>
<!-- end -->
<g id="node2" class="node">
<title>end</title>
<path fill="none" stroke="black" d="M794,-36C794,-36 740,-36 740,-36 734,-36 728,-30 728,-24 728,-24 728,-12 728,-12 728,-6 734,0 740,0 740,0 794,0 794,0 800,0 806,-6 806,-12 806,-12 806,-24 806,-24 806,-30 800,-36 794,-36"/>
<text text-anchor="middle" x="767" y="-14.3" font-family="Helvetica,sans-Serif" font-size="14.00">返回/结束</text>
</g>
<!-- case_dead -->
<g id="node4" class="node">
<title>case_dead</title>
<path fill="none" stroke="black" d="M101,-491C101,-491 23,-491 23,-491 17,-491 11,-485 11,-479 11,-479 11,-467 11,-467 11,-461 17,-455 23,-455 23,-455 101,-455 101,-455 107,-455 113,-461 113,-467 113,-467 113,-479 113,-479 113,-485 107,-491 101,-491"/>
<text text-anchor="middle" x="62" y="-469.3" font-family="Helvetica,sans-Serif" font-size="14.00">unreachable</text>
</g>
<!-- check_mcv&#45;&gt;case_dead -->
<g id="edge2" class="edge">
<title>check_mcv&#45;&gt;case_dead</title>
<path fill="none" stroke="black" d="M734.77,-641.96C596.92,-639.05 245.28,-629.58 197,-608 144.64,-584.6 101.19,-531.28 78.66,-499.4"/>
<polygon fill="black" stroke="black" points="81.43,-497.26 72.87,-491.02 75.68,-501.24 81.43,-497.26"/>
<text text-anchor="middle" x="217" y="-581.8" font-family="Helvetica,sans-Serif" font-size="14.00">.dead</text>
</g>
<!-- case_none_unreach -->
<g id="node5" class="node">
<title>case_none_unreach</title>
<path fill="none" stroke="black" d="M146,-383C146,-383 96,-383 96,-383 90,-383 84,-377 84,-371 84,-371 84,-359 84,-359 84,-353 90,-347 96,-347 96,-347 146,-347 146,-347 152,-347 158,-353 158,-359 158,-359 158,-371 158,-371 158,-377 152,-383 146,-383"/>
<text text-anchor="middle" x="121" y="-361.3" font-family="Helvetica,sans-Serif" font-size="14.00">直接返回</text>
</g>
<!-- check_mcv&#45;&gt;case_none_unreach -->
<g id="edge3" class="edge">
<title>check_mcv&#45;&gt;case_none_unreach</title>
<path fill="none" stroke="black" d="M734.98,-635.63C700.26,-630.08 654.82,-621.15 616,-608 436.51,-547.2 238.37,-435.57 157.95,-388.2"/>
<polygon fill="black" stroke="black" points="159.57,-385.09 149.18,-383.01 156.01,-391.12 159.57,-385.09"/>
<text text-anchor="middle" x="509.5" y="-523.3" font-family="Helvetica,sans-Serif" font-size="14.00">.none/.unreach</text>
</g>
<!-- case_undef -->
<g id="node6" class="node">
<title>case_undef</title>
<path fill="none" stroke="black" d="M397,-219C397,-219 311,-219 311,-219 305,-219 299,-213 299,-207 299,-207 299,-193 299,-193 299,-187 305,-181 311,-181 311,-181 397,-181 397,-181 403,-181 409,-187 409,-193 409,-193 409,-207 409,-207 409,-213 403,-219 397,-219"/>
<text text-anchor="middle" x="354" y="-203.8" font-family="Helvetica,sans-Serif" font-size="14.00">安全检查通过?</text>
<text text-anchor="middle" x="354" y="-188.8" font-family="Helvetica,sans-Serif" font-size="14.00">(wantSafety)</text>
</g>
<!-- check_mcv&#45;&gt;case_undef -->
<g id="edge4" class="edge">
<title>check_mcv&#45;&gt;case_undef</title>
<path fill="none" stroke="black" d="M734.94,-628.18C688.65,-612 630,-581.02 630,-528 630,-528 630,-528 630,-309 630,-286.44 500.48,-244.11 418.89,-219.68"/>
<polygon fill="black" stroke="black" points="419.77,-216.29 409.19,-216.79 417.77,-223 419.77,-216.29"/>
<text text-anchor="middle" x="653" y="-415.3" font-family="Helvetica,sans-Serif" font-size="14.00">.undef</text>
</g>
<!-- case_register -->
<g id="node7" class="node">
<title>case_register</title>
<path fill="none" stroke="black" d="M836,-491C836,-491 744,-491 744,-491 738,-491 732,-485 732,-479 732,-479 732,-467 732,-467 732,-461 738,-455 744,-455 744,-455 836,-455 836,-455 842,-455 848,-461 848,-467 848,-467 848,-479 848,-479 848,-485 842,-491 836,-491"/>
<text text-anchor="middle" x="790" y="-469.3" font-family="Helvetica,sans-Serif" font-size="14.00">处理寄存器存储</text>
</g>
<!-- check_mcv&#45;&gt;case_register -->
<g id="edge5" class="edge">
<title>check_mcv&#45;&gt;case_register</title>
<path fill="none" stroke="black" d="M790,-625.87C790,-596.51 790,-536.38 790,-501.23"/>
<polygon fill="black" stroke="black" points="793.5,-501.18 790,-491.18 786.5,-501.18 793.5,-501.18"/>
<text text-anchor="middle" x="819" y="-581.8" font-family="Helvetica,sans-Serif" font-size="14.00">.register</text>
</g>
<!-- case_register_overflow -->
<g id="node8" class="node">
<title>case_register_overflow</title>
<path fill="none" stroke="black" d="M1134.5,-273C1134.5,-273 1043.5,-273 1043.5,-273 1037.5,-273 1031.5,-267 1031.5,-261 1031.5,-261 1031.5,-249 1031.5,-249 1031.5,-243 1037.5,-237 1043.5,-237 1043.5,-237 1134.5,-237 1134.5,-237 1140.5,-237 1146.5,-243 1146.5,-249 1146.5,-249 1146.5,-261 1146.5,-261 1146.5,-267 1140.5,-273 1134.5,-273"/>
<text text-anchor="middle" x="1089" y="-251.3" font-family="Helvetica,sans-Serif" font-size="14.00">触发TODO错误</text>
</g>
<!-- check_mcv&#45;&gt;case_register_overflow -->
<g id="edge6" class="edge">
<title>check_mcv&#45;&gt;case_register_overflow</title>
<path fill="none" stroke="black" d="M845.03,-639.8C914.77,-632.42 1026,-608.1 1026,-528 1026,-528 1026,-528 1026,-364 1026,-332.19 1046.64,-301.41 1064.3,-280.9"/>
<polygon fill="black" stroke="black" points="1067.04,-283.08 1071.12,-273.3 1061.83,-278.41 1067.04,-283.08"/>
<text text-anchor="middle" x="1106" y="-469.3" font-family="Helvetica,sans-Serif" font-size="14.00">.register_with_overflow</text>
</g>
<!-- case_memory_group -->
<g id="node9" class="node">
<title>case_memory_group</title>
<path fill="none" stroke="black" d="M1173.5,-545C1173.5,-545 1066.5,-545 1066.5,-545 1060.5,-545 1054.5,-539 1054.5,-533 1054.5,-533 1054.5,-521 1054.5,-521 1054.5,-515 1060.5,-509 1066.5,-509 1066.5,-509 1173.5,-509 1173.5,-509 1179.5,-509 1185.5,-515 1185.5,-521 1185.5,-521 1185.5,-533 1185.5,-533 1185.5,-539 1179.5,-545 1173.5,-545"/>
<text text-anchor="middle" x="1120" y="-523.3" font-family="Helvetica,sans-Serif" font-size="14.00">处理内存复制逻辑</text>
</g>
<!-- check_mcv&#45;&gt;case_memory_group -->
<g id="edge7" class="edge">
<title>check_mcv&#45;&gt;case_memory_group</title>
<path fill="none" stroke="black" d="M845.23,-639.36C908.23,-634.51 1006.8,-624.54 1040,-608 1065.31,-595.39 1087.45,-571.67 1101.98,-553.31"/>
<polygon fill="black" stroke="black" points="1104.81,-555.39 1108.11,-545.32 1099.25,-551.13 1104.81,-555.39"/>
<text text-anchor="middle" x="1177" y="-596.8" font-family="Helvetica,sans-Serif" font-size="14.00">.linker_load/.memory/</text>
<text text-anchor="middle" x="1177" y="-581.8" font-family="Helvetica,sans-Serif" font-size="14.00">.stack_argument_offset/</text>
<text text-anchor="middle" x="1177" y="-566.8" font-family="Helvetica,sans-Serif" font-size="14.00">.stack_offset</text>
</g>
<!-- case_compare_immediate -->
<g id="node10" class="node">
<title>case_compare_immediate</title>
<path fill="none" stroke="black" d="M1569.5,-545C1569.5,-545 1462.5,-545 1462.5,-545 1456.5,-545 1450.5,-539 1450.5,-533 1450.5,-533 1450.5,-521 1450.5,-521 1450.5,-515 1456.5,-509 1462.5,-509 1462.5,-509 1569.5,-509 1569.5,-509 1575.5,-509 1581.5,-515 1581.5,-521 1581.5,-521 1581.5,-533 1581.5,-533 1581.5,-539 1575.5,-545 1569.5,-545"/>
<text text-anchor="middle" x="1516" y="-523.3" font-family="Helvetica,sans-Serif" font-size="14.00">复制到临时寄存器</text>
</g>
<!-- check_mcv&#45;&gt;case_compare_immediate -->
<g id="edge8" class="edge">
<title>check_mcv&#45;&gt;case_compare_immediate</title>
<path fill="none" stroke="black" d="M845.29,-643.08C934.3,-642.29 1114.51,-636.83 1264,-608 1334.71,-594.36 1413.4,-567.39 1463.73,-548.56"/>
<polygon fill="black" stroke="black" points="1464.98,-551.83 1473.1,-545.02 1462.5,-545.28 1464.98,-551.83"/>
<text text-anchor="middle" x="1479.5" y="-596.8" font-family="Helvetica,sans-Serif" font-size="14.00">.compare_flags/</text>
<text text-anchor="middle" x="1479.5" y="-581.8" font-family="Helvetica,sans-Serif" font-size="14.00">.immediate/</text>
<text text-anchor="middle" x="1479.5" y="-566.8" font-family="Helvetica,sans-Serif" font-size="14.00">.ptr_stack_offset</text>
</g>
<!-- case_dead&#45;&gt;end -->
<g id="edge9" class="edge">
<title>case_dead&#45;&gt;end</title>
<path fill="none" stroke="black" d="M44.07,-454.68C25.76,-435.04 0,-401.18 0,-366 0,-366 0,-366 0,-90 0,-17.63 548.41,-16.88 717.78,-18.38"/>
<polygon fill="black" stroke="black" points="717.88,-21.88 727.91,-18.48 717.94,-14.88 717.88,-21.88"/>
</g>
<!-- case_none_unreach&#45;&gt;end -->
<g id="edge10" class="edge">
<title>case_none_unreach&#45;&gt;end</title>
<path fill="none" stroke="black" d="M96.1,-346.86C71.65,-327.79 38,-294.55 38,-256 38,-256 38,-256 38,-90 38,-21.56 553.5,-18.02 717.52,-18.62"/>
<polygon fill="black" stroke="black" points="717.79,-22.12 727.81,-18.67 717.82,-15.12 717.79,-22.12"/>
</g>
<!-- case_undef&#45;&gt;end -->
<g id="edge12" class="edge">
<title>case_undef&#45;&gt;end</title>
<path fill="none" stroke="black" d="M298.72,-192.31C204.26,-178.81 27.98,-143.43 93,-73 135.18,-27.3 569.38,-20.26 717.67,-19.19"/>
<polygon fill="black" stroke="black" points="717.87,-22.69 727.85,-19.12 717.82,-15.69 717.87,-22.69"/>
<text text-anchor="middle" x="100.5" y="-87.3" font-family="Helvetica,sans-Serif" font-size="14.00">否</text>
</g>
<!-- undef_safe -->
<g id="node11" class="node">
<title>undef_safe</title>
<path fill="none" stroke="black" d="M589.5,-218C589.5,-218 456.5,-218 456.5,-218 450.5,-218 444.5,-212 444.5,-206 444.5,-206 444.5,-194 444.5,-194 444.5,-188 450.5,-182 456.5,-182 456.5,-182 589.5,-182 589.5,-182 595.5,-182 601.5,-188 601.5,-194 601.5,-194 601.5,-206 601.5,-206 601.5,-212 595.5,-218 589.5,-218"/>
<text text-anchor="middle" x="523" y="-196.3" font-family="Helvetica,sans-Serif" font-size="14.00">根据abi_size选择模式</text>
</g>
<!-- case_undef&#45;&gt;undef_safe -->
<g id="edge11" class="edge">
<title>case_undef&#45;&gt;undef_safe</title>
<path fill="none" stroke="black" d="M409.34,-200C417.28,-200 425.61,-200 434,-200"/>
<polygon fill="black" stroke="black" points="434.24,-203.5 444.24,-200 434.24,-196.5 434.24,-203.5"/>
<text text-anchor="middle" x="426.75" y="-206.8" font-family="Helvetica,sans-Serif" font-size="14.00">是</text>
</g>
<!-- check_abi_size -->
<g id="node17" class="node">
<title>check_abi_size</title>
<path fill="none" stroke="black" d="M848,-329C848,-329 732,-329 732,-329 726,-329 720,-323 720,-317 720,-317 720,-303 720,-303 720,-297 726,-291 732,-291 732,-291 848,-291 848,-291 854,-291 860,-297 860,-303 860,-303 860,-317 860,-317 860,-323 854,-329 848,-329"/>
<text text-anchor="middle" x="790" y="-313.8" font-family="Helvetica,sans-Serif" font-size="14.00">abi_size 是否合法?</text>
<text text-anchor="middle" x="790" y="-298.8" font-family="Helvetica,sans-Serif" font-size="14.00">(1/2/4/8)</text>
</g>
<!-- case_register&#45;&gt;check_abi_size -->
<g id="edge23" class="edge">
<title>case_register&#45;&gt;check_abi_size</title>
<path fill="none" stroke="black" d="M790,-454.77C790,-427.1 790,-372.49 790,-339.12"/>
<polygon fill="black" stroke="black" points="793.5,-339.09 790,-329.09 786.5,-339.09 793.5,-339.09"/>
</g>
<!-- case_register_overflow&#45;&gt;end -->
<g id="edge32" class="edge">
<title>case_register_overflow&#45;&gt;end</title>
<path fill="none" stroke="black" d="M1101.61,-237C1125.94,-201.98 1173.46,-121.05 1132,-73 1091.79,-26.41 906.32,-19.34 816.3,-18.71"/>
<polygon fill="black" stroke="black" points="816.08,-15.21 806.07,-18.66 816.05,-22.21 816.08,-15.21"/>
</g>
<!-- check_abi_size_le4 -->
<g id="node23" class="node">
<title>check_abi_size_le4</title>
<path fill="none" stroke="black" d="M1383,-545C1383,-545 1303,-545 1303,-545 1297,-545 1291,-539 1291,-533 1291,-533 1291,-521 1291,-521 1291,-515 1297,-509 1303,-509 1303,-509 1383,-509 1383,-509 1389,-509 1395,-515 1395,-521 1395,-521 1395,-533 1395,-533 1395,-539 1389,-545 1383,-545"/>
<text text-anchor="middle" x="1343" y="-523.3" font-family="Helvetica,sans-Serif" font-size="14.00">abi_size ≤4?</text>
</g>
<!-- case_memory_group&#45;&gt;check_abi_size_le4 -->
<g id="edge33" class="edge">
<title>case_memory_group&#45;&gt;check_abi_size_le4</title>
<path fill="none" stroke="black" d="M1185.7,-527C1215.7,-527 1251.04,-527 1280.63,-527"/>
<polygon fill="black" stroke="black" points="1280.83,-530.5 1290.83,-527 1280.83,-523.5 1280.83,-530.5"/>
<text text-anchor="middle" x="1238.25" y="-533.8" font-family="Helvetica,sans-Serif" font-size="14.00">abi_size ≤4?</text>
</g>
<!-- copy_to_tmp_reg_imm -->
<g id="node30" class="node">
<title>copy_to_tmp_reg_imm</title>
<path fill="none" stroke="black" d="M1661.5,-437C1661.5,-437 1514.5,-437 1514.5,-437 1508.5,-437 1502.5,-431 1502.5,-425 1502.5,-425 1502.5,-413 1502.5,-413 1502.5,-407 1508.5,-401 1514.5,-401 1514.5,-401 1661.5,-401 1661.5,-401 1667.5,-401 1673.5,-407 1673.5,-413 1673.5,-413 1673.5,-425 1673.5,-425 1673.5,-431 1667.5,-437 1661.5,-437"/>
<text text-anchor="middle" x="1588" y="-415.3" font-family="Helvetica,sans-Serif" font-size="14.00">copy_to_tmp_reg_imm</text>
</g>
<!-- case_compare_immediate&#45;&gt;copy_to_tmp_reg_imm -->
<g id="edge42" class="edge">
<title>case_compare_immediate&#45;&gt;copy_to_tmp_reg_imm</title>
<path fill="none" stroke="black" d="M1527.57,-508.97C1539.15,-491.92 1557.12,-465.46 1570.46,-445.82"/>
<polygon fill="black" stroke="black" points="1573.5,-447.58 1576.22,-437.34 1567.71,-443.65 1573.5,-447.58"/>
<text text-anchor="middle" x="1644" y="-469.3" font-family="Helvetica,sans-Serif" font-size="14.00">调用copyToTmpRegister</text>
</g>
<!-- gen_imm_1 -->
<g id="node12" class="node">
<title>gen_imm_1</title>
<path fill="none" stroke="black" d="M671,-109C671,-109 563,-109 563,-109 557,-109 551,-103 551,-97 551,-97 551,-85 551,-85 551,-79 557,-73 563,-73 563,-73 671,-73 671,-73 677,-73 683,-79 683,-85 683,-85 683,-97 683,-97 683,-103 677,-109 671,-109"/>
<text text-anchor="middle" x="617" y="-87.3" font-family="Helvetica,sans-Serif" font-size="14.00">调用genSetStack</text>
</g>
<!-- undef_safe&#45;&gt;gen_imm_1 -->
<g id="edge13" class="edge">
<title>undef_safe&#45;&gt;gen_imm_1</title>
<path fill="none" stroke="black" d="M574.02,-181.93C583.01,-177 591.55,-170.78 598,-163 608.13,-150.79 612.9,-133.7 615.13,-119.34"/>
<polygon fill="black" stroke="black" points="618.65,-119.37 616.38,-109.02 611.7,-118.53 618.65,-119.37"/>
<text text-anchor="middle" x="646" y="-141.3" font-family="Helvetica,sans-Serif" font-size="14.00">1 → 0xaa</text>
</g>
<!-- gen_imm_2 -->
<g id="node13" class="node">
<title>gen_imm_2</title>
<path fill="none" stroke="black" d="M821,-109C821,-109 713,-109 713,-109 707,-109 701,-103 701,-97 701,-97 701,-85 701,-85 701,-79 707,-73 713,-73 713,-73 821,-73 821,-73 827,-73 833,-79 833,-85 833,-85 833,-97 833,-97 833,-103 827,-109 821,-109"/>
<text text-anchor="middle" x="767" y="-87.3" font-family="Helvetica,sans-Serif" font-size="14.00">调用genSetStack</text>
</g>
<!-- undef_safe&#45;&gt;gen_imm_2 -->
<g id="edge14" class="edge">
<title>undef_safe&#45;&gt;gen_imm_2</title>
<path fill="none" stroke="black" d="M601.82,-191.8C628.77,-186.66 658.11,-177.9 682,-163 699.43,-152.13 695.63,-140.63 711,-127 715.84,-122.71 721.27,-118.6 726.79,-114.82"/>
<polygon fill="black" stroke="black" points="729.01,-117.55 735.47,-109.15 725.18,-111.69 729.01,-117.55"/>
<text text-anchor="middle" x="751.5" y="-141.3" font-family="Helvetica,sans-Serif" font-size="14.00">2 → 0xaaaa</text>
</g>
<!-- gen_imm_4 -->
<g id="node14" class="node">
<title>gen_imm_4</title>
<path fill="none" stroke="black" d="M237,-109C237,-109 129,-109 129,-109 123,-109 117,-103 117,-97 117,-97 117,-85 117,-85 117,-79 123,-73 129,-73 129,-73 237,-73 237,-73 243,-73 249,-79 249,-85 249,-85 249,-97 249,-97 249,-103 243,-109 237,-109"/>
<text text-anchor="middle" x="183" y="-87.3" font-family="Helvetica,sans-Serif" font-size="14.00">调用genSetStack</text>
</g>
<!-- undef_safe&#45;&gt;gen_imm_4 -->
<g id="edge15" class="edge">
<title>undef_safe&#45;&gt;gen_imm_4</title>
<path fill="none" stroke="black" d="M444.28,-184.72C435.43,-183.35 426.53,-182.07 418,-181 393.12,-177.88 211.26,-180.19 193,-163 181.4,-152.08 178.9,-134.34 179.3,-119.33"/>
<polygon fill="black" stroke="black" points="182.81,-119.23 180.01,-109.01 175.83,-118.75 182.81,-119.23"/>
<text text-anchor="middle" x="250" y="-141.3" font-family="Helvetica,sans-Serif" font-size="14.00">4 → 0xaaaaaaaa</text>
</g>
<!-- gen_imm_8 -->
<g id="node15" class="node">
<title>gen_imm_8</title>
<path fill="none" stroke="black" d="M387,-109C387,-109 279,-109 279,-109 273,-109 267,-103 267,-97 267,-97 267,-85 267,-85 267,-79 273,-73 279,-73 279,-73 387,-73 387,-73 393,-73 399,-79 399,-85 399,-85 399,-97 399,-97 399,-103 393,-109 387,-109"/>
<text text-anchor="middle" x="333" y="-87.3" font-family="Helvetica,sans-Serif" font-size="14.00">调用genSetStack</text>
</g>
<!-- undef_safe&#45;&gt;gen_imm_8 -->
<g id="edge16" class="edge">
<title>undef_safe&#45;&gt;gen_imm_8</title>
<path fill="none" stroke="black" d="M444.38,-185.41C386.31,-175.34 317.27,-163.32 317,-163 306.6,-150.62 310.59,-132.88 317.19,-118.22"/>
<polygon fill="black" stroke="black" points="320.4,-119.63 321.78,-109.13 314.15,-116.48 320.4,-119.63"/>
<text text-anchor="middle" x="407" y="-141.3" font-family="Helvetica,sans-Serif" font-size="14.00">8 → 0xaaaaaaaaaaaaaaaa</text>
</g>
<!-- fail_memset -->
<g id="node16" class="node">
<title>fail_memset</title>
<path fill="none" stroke="black" d="M520.5,-109C520.5,-109 429.5,-109 429.5,-109 423.5,-109 417.5,-103 417.5,-97 417.5,-97 417.5,-85 417.5,-85 417.5,-79 423.5,-73 429.5,-73 429.5,-73 520.5,-73 520.5,-73 526.5,-73 532.5,-79 532.5,-85 532.5,-85 532.5,-97 532.5,-97 532.5,-103 526.5,-109 520.5,-109"/>
<text text-anchor="middle" x="475" y="-87.3" font-family="Helvetica,sans-Serif" font-size="14.00">触发TODO错误</text>
</g>
<!-- undef_safe&#45;&gt;fail_memset -->
<g id="edge17" class="edge">
<title>undef_safe&#45;&gt;fail_memset</title>
<path fill="none" stroke="black" d="M519.49,-181.79C516.03,-166.79 509.96,-144.73 501,-127 499.38,-123.79 497.47,-120.58 495.43,-117.46"/>
<polygon fill="black" stroke="black" points="498.1,-115.18 489.47,-109.04 492.39,-119.22 498.1,-115.18"/>
<text text-anchor="middle" x="554.5" y="-141.3" font-family="Helvetica,sans-Serif" font-size="14.00">其他 → 失败</text>
</g>
<!-- gen_imm_1&#45;&gt;end -->
<g id="edge18" class="edge">
<title>gen_imm_1&#45;&gt;end</title>
<path fill="none" stroke="black" d="M652.93,-72.99C673.56,-63.23 699.66,-50.88 721.68,-40.45"/>
<polygon fill="black" stroke="black" points="723.3,-43.56 730.84,-36.11 720.31,-37.23 723.3,-43.56"/>
</g>
<!-- gen_imm_2&#45;&gt;end -->
<g id="edge19" class="edge">
<title>gen_imm_2&#45;&gt;end</title>
<path fill="none" stroke="black" d="M767,-72.81C767,-64.79 767,-55.05 767,-46.07"/>
<polygon fill="black" stroke="black" points="770.5,-46.03 767,-36.03 763.5,-46.03 770.5,-46.03"/>
</g>
<!-- gen_imm_4&#45;&gt;end -->
<g id="edge20" class="edge">
<title>gen_imm_4&#45;&gt;end</title>
<path fill="none" stroke="black" d="M249.17,-74.56C252.15,-74 255.1,-73.48 258,-73 425.56,-45.22 626.65,-28.82 717.8,-22.29"/>
<polygon fill="black" stroke="black" points="718.11,-25.78 727.84,-21.58 717.61,-18.8 718.11,-25.78"/>
</g>
<!-- gen_imm_8&#45;&gt;end -->
<g id="edge21" class="edge">
<title>gen_imm_8&#45;&gt;end</title>
<path fill="none" stroke="black" d="M399.2,-74.72C402.17,-74.12 405.11,-73.54 408,-73 518.02,-52.28 648.21,-34.32 717.6,-25.26"/>
<polygon fill="black" stroke="black" points="718.33,-28.69 727.8,-23.94 717.43,-21.75 718.33,-28.69"/>
</g>
<!-- fail_memset&#45;&gt;end -->
<g id="edge22" class="edge">
<title>fail_memset&#45;&gt;end</title>
<path fill="none" stroke="black" d="M532.73,-75.3C535.87,-74.52 538.97,-73.75 542,-73 602.55,-58.05 672.42,-41.37 718.02,-30.56"/>
<polygon fill="black" stroke="black" points="719.02,-33.92 727.94,-28.21 717.4,-27.11 719.02,-33.92"/>
</g>
<!-- calc_offset -->
<g id="node18" class="node">
<title>calc_offset</title>
<path fill="none" stroke="black" d="M986,-328C986,-328 908,-328 908,-328 902,-328 896,-322 896,-316 896,-316 896,-304 896,-304 896,-298 902,-292 908,-292 908,-292 986,-292 986,-292 992,-292 998,-298 998,-304 998,-304 998,-316 998,-316 998,-322 992,-328 986,-328"/>
<text text-anchor="middle" x="947" y="-306.3" font-family="Helvetica,sans-Serif" font-size="14.00">计算栈偏移量</text>
</g>
<!-- check_abi_size&#45;&gt;calc_offset -->
<g id="edge24" class="edge">
<title>check_abi_size&#45;&gt;calc_offset</title>
<path fill="none" stroke="black" d="M860.23,-310C868.71,-310 877.31,-310 885.65,-310"/>
<polygon fill="black" stroke="black" points="885.65,-313.5 895.65,-310 885.65,-306.5 885.65,-313.5"/>
<text text-anchor="middle" x="878" y="-316.8" font-family="Helvetica,sans-Serif" font-size="14.00">是</text>
</g>
<!-- fail_abi_size -->
<g id="node19" class="node">
<title>fail_abi_size</title>
<path fill="none" stroke="black" d="M904.5,-163C904.5,-163 813.5,-163 813.5,-163 807.5,-163 801.5,-157 801.5,-151 801.5,-151 801.5,-139 801.5,-139 801.5,-133 807.5,-127 813.5,-127 813.5,-127 904.5,-127 904.5,-127 910.5,-127 916.5,-133 916.5,-139 916.5,-139 916.5,-151 916.5,-151 916.5,-157 910.5,-163 904.5,-163"/>
<text text-anchor="middle" x="859" y="-141.3" font-family="Helvetica,sans-Serif" font-size="14.00">触发TODO错误</text>
</g>
<!-- check_abi_size&#45;&gt;fail_abi_size -->
<g id="edge25" class="edge">
<title>check_abi_size&#45;&gt;fail_abi_size</title>
<path fill="none" stroke="black" d="M797.65,-290.93C809.79,-262.24 833.56,-206.09 847.69,-172.73"/>
<polygon fill="black" stroke="black" points="851.06,-173.74 851.74,-163.16 844.61,-171.01 851.06,-173.74"/>
<text text-anchor="middle" x="828.5" y="-251.3" font-family="Helvetica,sans-Serif" font-size="14.00">否</text>
</g>
<!-- check_offset_valid -->
<g id="node20" class="node">
<title>check_offset_valid</title>
<path fill="none" stroke="black" d="M1004,-218C1004,-218 890,-218 890,-218 884,-218 878,-212 878,-206 878,-206 878,-194 878,-194 878,-188 884,-182 890,-182 890,-182 1004,-182 1004,-182 1010,-182 1016,-188 1016,-194 1016,-194 1016,-206 1016,-206 1016,-212 1010,-218 1004,-218"/>
<text text-anchor="middle" x="947" y="-196.3" font-family="Helvetica,sans-Serif" font-size="14.00">偏移量是否可编码?</text>
</g>
<!-- calc_offset&#45;&gt;check_offset_valid -->
<g id="edge26" class="edge">
<title>calc_offset&#45;&gt;check_offset_valid</title>
<path fill="none" stroke="black" d="M947,-291.65C947,-274.56 947,-248.22 947,-228.32"/>
<polygon fill="black" stroke="black" points="950.5,-228.31 947,-218.31 943.5,-228.31 950.5,-228.31"/>
</g>
<!-- fail_abi_size&#45;&gt;end -->
<g id="edge30" class="edge">
<title>fail_abi_size&#45;&gt;end</title>
<path fill="none" stroke="black" d="M858.23,-126.89C856.82,-111.61 852.87,-89.21 842,-73 833.73,-60.67 821.64,-50.2 809.57,-41.85"/>
<polygon fill="black" stroke="black" points="811.13,-38.69 800.84,-36.15 807.3,-44.55 811.13,-38.69"/>
</g>
<!-- gen_store -->
<g id="node21" class="node">
<title>gen_store</title>
<path fill="none" stroke="black" d="M1111.5,-109C1111.5,-109 1034.5,-109 1034.5,-109 1028.5,-109 1022.5,-103 1022.5,-97 1022.5,-97 1022.5,-85 1022.5,-85 1022.5,-79 1028.5,-73 1034.5,-73 1034.5,-73 1111.5,-73 1111.5,-73 1117.5,-73 1123.5,-79 1123.5,-85 1123.5,-85 1123.5,-97 1123.5,-97 1123.5,-103 1117.5,-109 1111.5,-109"/>
<text text-anchor="middle" x="1073" y="-87.3" font-family="Helvetica,sans-Serif" font-size="14.00">生成STR指令</text>
</g>
<!-- check_offset_valid&#45;&gt;gen_store -->
<g id="edge27" class="edge">
<title>check_offset_valid&#45;&gt;gen_store</title>
<path fill="none" stroke="black" d="M967.24,-181.81C988.28,-163.95 1021.35,-135.86 1044.91,-115.86"/>
<polygon fill="black" stroke="black" points="1047.45,-118.29 1052.81,-109.15 1042.92,-112.95 1047.45,-118.29"/>
<text text-anchor="middle" x="1036.5" y="-141.3" font-family="Helvetica,sans-Serif" font-size="14.00">是</text>
</g>
<!-- fail_offset -->
<g id="node22" class="node">
<title>fail_offset</title>
<path fill="none" stroke="black" d="M992.5,-109C992.5,-109 901.5,-109 901.5,-109 895.5,-109 889.5,-103 889.5,-97 889.5,-97 889.5,-85 889.5,-85 889.5,-79 895.5,-73 901.5,-73 901.5,-73 992.5,-73 992.5,-73 998.5,-73 1004.5,-79 1004.5,-85 1004.5,-85 1004.5,-97 1004.5,-97 1004.5,-103 998.5,-109 992.5,-109"/>
<text text-anchor="middle" x="947" y="-87.3" font-family="Helvetica,sans-Serif" font-size="14.00">触发TODO错误</text>
</g>
<!-- check_offset_valid&#45;&gt;fail_offset -->
<g id="edge28" class="edge">
<title>check_offset_valid&#45;&gt;fail_offset</title>
<path fill="none" stroke="black" d="M947,-181.81C947,-164.96 947,-139.02 947,-119.34"/>
<polygon fill="black" stroke="black" points="950.5,-119.15 947,-109.15 943.5,-119.15 950.5,-119.15"/>
<text text-anchor="middle" x="954.5" y="-141.3" font-family="Helvetica,sans-Serif" font-size="14.00">否</text>
</g>
<!-- gen_store&#45;&gt;end -->
<g id="edge29" class="edge">
<title>gen_store&#45;&gt;end</title>
<path fill="none" stroke="black" d="M1022.32,-75.41C1019.17,-74.57 1016.05,-73.76 1013,-73 945.16,-55.96 866.04,-39.13 816.23,-28.9"/>
<polygon fill="black" stroke="black" points="816.87,-25.46 806.37,-26.88 815.46,-32.32 816.87,-25.46"/>
</g>
<!-- fail_offset&#45;&gt;end -->
<g id="edge31" class="edge">
<title>fail_offset&#45;&gt;end</title>
<path fill="none" stroke="black" d="M915.22,-72.82C902.86,-66.48 888.45,-59.51 875,-54 856.06,-46.25 834.71,-39.02 816.03,-33.18"/>
<polygon fill="black" stroke="black" points="816.84,-29.76 806.25,-30.17 814.77,-36.45 816.84,-29.76"/>
</g>
<!-- copy_to_tmp_reg -->
<g id="node24" class="node">
<title>copy_to_tmp_reg</title>
<path fill="none" stroke="black" d="M1437.5,-437C1437.5,-437 1330.5,-437 1330.5,-437 1324.5,-437 1318.5,-431 1318.5,-425 1318.5,-425 1318.5,-413 1318.5,-413 1318.5,-407 1324.5,-401 1330.5,-401 1330.5,-401 1437.5,-401 1437.5,-401 1443.5,-401 1449.5,-407 1449.5,-413 1449.5,-413 1449.5,-425 1449.5,-425 1449.5,-431 1443.5,-437 1437.5,-437"/>
<text text-anchor="middle" x="1384" y="-415.3" font-family="Helvetica,sans-Serif" font-size="14.00">复制到临时寄存器</text>
</g>
<!-- check_abi_size_le4&#45;&gt;copy_to_tmp_reg -->
<g id="edge34" class="edge">
<title>check_abi_size_le4&#45;&gt;copy_to_tmp_reg</title>
<path fill="none" stroke="black" d="M1349.59,-508.97C1356.06,-492.22 1366.05,-466.41 1373.6,-446.89"/>
<polygon fill="black" stroke="black" points="1376.95,-447.93 1377.29,-437.34 1370.42,-445.4 1376.95,-447.93"/>
<text text-anchor="middle" x="1377.5" y="-469.3" font-family="Helvetica,sans-Serif" font-size="14.00">是</text>
</g>
<!-- memcpy_logic -->
<g id="node25" class="node">
<title>memcpy_logic</title>
<path fill="none" stroke="black" d="M1288,-437C1288,-437 1178,-437 1178,-437 1172,-437 1166,-431 1166,-425 1166,-425 1166,-413 1166,-413 1166,-407 1172,-401 1178,-401 1178,-401 1288,-401 1288,-401 1294,-401 1300,-407 1300,-413 1300,-413 1300,-425 1300,-425 1300,-431 1294,-437 1288,-437"/>
<text text-anchor="middle" x="1233" y="-415.3" font-family="Helvetica,sans-Serif" font-size="14.00">准备memcpy参数</text>
</g>
<!-- check_abi_size_le4&#45;&gt;memcpy_logic -->
<g id="edge35" class="edge">
<title>check_abi_size_le4&#45;&gt;memcpy_logic</title>
<path fill="none" stroke="black" d="M1325.33,-508.97C1307.23,-491.53 1278.93,-464.26 1258.43,-444.51"/>
<polygon fill="black" stroke="black" points="1260.62,-441.76 1250.99,-437.34 1255.77,-446.8 1260.62,-441.76"/>
<text text-anchor="middle" x="1312.5" y="-469.3" font-family="Helvetica,sans-Serif" font-size="14.00">否</text>
</g>
<!-- recursive_call -->
<g id="node26" class="node">
<title>recursive_call</title>
<path fill="none" stroke="black" d="M1464,-163C1464,-163 1378,-163 1378,-163 1372,-163 1366,-157 1366,-151 1366,-151 1366,-139 1366,-139 1366,-133 1372,-127 1378,-127 1378,-127 1464,-127 1464,-127 1470,-127 1476,-133 1476,-139 1476,-139 1476,-151 1476,-151 1476,-157 1470,-163 1464,-163"/>
<text text-anchor="middle" x="1421" y="-141.3" font-family="Helvetica,sans-Serif" font-size="14.00">recursive_call</text>
</g>
<!-- copy_to_tmp_reg&#45;&gt;recursive_call -->
<g id="edge36" class="edge">
<title>copy_to_tmp_reg&#45;&gt;recursive_call</title>
<path fill="none" stroke="black" d="M1383.25,-400.94C1382.51,-383.03 1381.42,-354.04 1381,-329 1380.72,-312.11 1378.73,-307.74 1381,-291 1386.71,-248.82 1401.36,-201.58 1411.26,-172.81"/>
<polygon fill="black" stroke="black" points="1414.66,-173.69 1414.66,-163.1 1408.05,-171.38 1414.66,-173.69"/>
<text text-anchor="middle" x="1488" y="-306.3" font-family="Helvetica,sans-Serif" font-size="14.00">递归调用genSetStackArgument</text>
</g>
<!-- setup_src_dst -->
<g id="node27" class="node">
<title>setup_src_dst</title>
<path fill="none" stroke="black" d="M1276.5,-328C1276.5,-328 1189.5,-328 1189.5,-328 1183.5,-328 1177.5,-322 1177.5,-316 1177.5,-316 1177.5,-304 1177.5,-304 1177.5,-298 1183.5,-292 1189.5,-292 1189.5,-292 1276.5,-292 1276.5,-292 1282.5,-292 1288.5,-298 1288.5,-304 1288.5,-304 1288.5,-316 1288.5,-316 1288.5,-322 1282.5,-328 1276.5,-328"/>
<text text-anchor="middle" x="1233" y="-306.3" font-family="Helvetica,sans-Serif" font-size="14.00">setup_src_dst</text>
</g>
<!-- memcpy_logic&#45;&gt;setup_src_dst -->
<g id="edge38" class="edge">
<title>memcpy_logic&#45;&gt;setup_src_dst</title>
<path fill="none" stroke="black" d="M1233,-400.81C1233,-383.96 1233,-358.02 1233,-338.34"/>
<polygon fill="black" stroke="black" points="1236.5,-338.15 1233,-328.15 1229.5,-338.15 1236.5,-338.15"/>
<text text-anchor="middle" x="1292.5" y="-361.3" font-family="Helvetica,sans-Serif" font-size="14.00">设置源/目标寄存器</text>
</g>
<!-- recursive_call&#45;&gt;end -->
<g id="edge37" class="edge">
<title>recursive_call&#45;&gt;end</title>
<path fill="none" stroke="black" d="M1407.83,-126.98C1393.76,-110.16 1369.82,-85.24 1343,-73 1249.55,-30.37 937.73,-21.39 816.14,-19.5"/>
<polygon fill="black" stroke="black" points="816.05,-16 806,-19.35 815.95,-23 816.05,-16"/>
</g>
<!-- gen_add_inst -->
<g id="node28" class="node">
<title>gen_add_inst</title>
<path fill="none" stroke="black" d="M1276,-218C1276,-218 1192,-218 1192,-218 1186,-218 1180,-212 1180,-206 1180,-206 1180,-194 1180,-194 1180,-188 1186,-182 1192,-182 1192,-182 1276,-182 1276,-182 1282,-182 1288,-188 1288,-194 1288,-194 1288,-206 1288,-206 1288,-212 1282,-218 1276,-218"/>
<text text-anchor="middle" x="1234" y="-196.3" font-family="Helvetica,sans-Serif" font-size="14.00">gen_add_inst</text>
</g>
<!-- setup_src_dst&#45;&gt;gen_add_inst -->
<g id="edge39" class="edge">
<title>setup_src_dst&#45;&gt;gen_add_inst</title>
<path fill="none" stroke="black" d="M1233.16,-291.65C1233.32,-274.56 1233.56,-248.22 1233.75,-228.32"/>
<polygon fill="black" stroke="black" points="1237.25,-228.34 1233.84,-218.31 1230.25,-228.28 1237.25,-228.34"/>
<text text-anchor="middle" x="1277" y="-251.3" font-family="Helvetica,sans-Serif" font-size="14.00">生成地址指令</text>
</g>
<!-- gen_inline_memcpy -->
<g id="node29" class="node">
<title>gen_inline_memcpy</title>
<path fill="none" stroke="black" d="M1322,-109C1322,-109 1192,-109 1192,-109 1186,-109 1180,-103 1180,-97 1180,-97 1180,-85 1180,-85 1180,-79 1186,-73 1192,-73 1192,-73 1322,-73 1322,-73 1328,-73 1334,-79 1334,-85 1334,-85 1334,-97 1334,-97 1334,-103 1328,-109 1322,-109"/>
<text text-anchor="middle" x="1257" y="-87.3" font-family="Helvetica,sans-Serif" font-size="14.00">gen_inline_memcpy</text>
</g>
<!-- gen_add_inst&#45;&gt;gen_inline_memcpy -->
<g id="edge40" class="edge">
<title>gen_add_inst&#45;&gt;gen_inline_memcpy</title>
<path fill="none" stroke="black" d="M1216.26,-181.81C1211.7,-176.28 1207.4,-169.81 1205,-163 1199.68,-147.91 1197.48,-141.12 1205,-127 1207.19,-122.89 1210.1,-119.18 1213.42,-115.84"/>
<polygon fill="black" stroke="black" points="1215.94,-118.3 1221.26,-109.14 1211.39,-112.98 1215.94,-118.3"/>
<text text-anchor="middle" x="1281" y="-141.3" font-family="Helvetica,sans-Serif" font-size="14.00">调用genInlineMemcpy</text>
</g>
<!-- gen_inline_memcpy&#45;&gt;end -->
<g id="edge41" class="edge">
<title>gen_inline_memcpy&#45;&gt;end</title>
<path fill="none" stroke="black" d="M1221.03,-72.98C1204.6,-65.95 1184.68,-58.42 1166,-54 1042.55,-24.82 892.44,-19.46 816.34,-18.78"/>
<polygon fill="black" stroke="black" points="816.13,-15.28 806.11,-18.71 816.09,-22.28 816.13,-15.28"/>
</g>
<!-- recursive_call_imm -->
<g id="node31" class="node">
<title>recursive_call_imm</title>
<path fill="none" stroke="black" d="M1608,-273C1608,-273 1484,-273 1484,-273 1478,-273 1472,-267 1472,-261 1472,-261 1472,-249 1472,-249 1472,-243 1478,-237 1484,-237 1484,-237 1608,-237 1608,-237 1614,-237 1620,-243 1620,-249 1620,-249 1620,-261 1620,-261 1620,-267 1614,-273 1608,-273"/>
<text text-anchor="middle" x="1546" y="-251.3" font-family="Helvetica,sans-Serif" font-size="14.00">recursive_call_imm</text>
</g>
<!-- copy_to_tmp_reg_imm&#45;&gt;recursive_call_imm -->
<g id="edge43" class="edge">
<title>copy_to_tmp_reg_imm&#45;&gt;recursive_call_imm</title>
<path fill="none" stroke="black" d="M1595.17,-400.77C1604.62,-375.16 1617.98,-326.28 1599,-291 1596.7,-286.73 1593.64,-282.9 1590.13,-279.48"/>
<polygon fill="black" stroke="black" points="1592.33,-276.76 1582.41,-273.02 1587.83,-282.12 1592.33,-276.76"/>
<text text-anchor="middle" x="1714" y="-361.3" font-family="Helvetica,sans-Serif" font-size="14.00">递归调用genSetStackArgument</text>
</g>
<!-- recursive_call_imm&#45;&gt;end -->
<g id="edge44" class="edge">
<title>recursive_call_imm&#45;&gt;end</title>
<path fill="none" stroke="black" d="M1541.55,-236.75C1533.94,-210.23 1516.15,-159.14 1485,-127 1448.75,-89.6 1429.91,-90.89 1381,-73 1277.51,-35.14 943.12,-23.25 816.35,-20.04"/>
<polygon fill="black" stroke="black" points="816.24,-16.54 806.16,-19.79 816.07,-23.54 816.24,-16.54"/>
</g>
</g>
</svg>
