<?xml version="1.0" encoding="UTF-8" standalone="no"?>
<!DOCTYPE svg PUBLIC "-//W3C//DTD SVG 1.1//EN"
 "http://www.w3.org/Graphics/SVG/1.1/DTD/svg11.dtd">
<!-- Generated by graphviz version 2.43.0 (0)
 -->
<!-- Title: airCondBr_flowchart Pages: 1 -->
<svg width="457pt" height="936pt"
 viewBox="0.00 0.00 457.00 936.00" xmlns="http://www.w3.org/2000/svg" xmlns:xlink="http://www.w3.org/1999/xlink">
<g id="graph0" class="graph" transform="scale(1 1) rotate(0) translate(4 932)">
<title>airCondBr_flowchart</title>
<polygon fill="white" stroke="transparent" points="-4,4 -4,-932 453,-932 453,4 -4,4"/>
<!-- start -->
<g id="node1" class="node">
<title>start</title>
<path fill="none" stroke="black" d="M383.5,-928C383.5,-928 126.5,-928 126.5,-928 120.5,-928 114.5,-922 114.5,-916 114.5,-916 114.5,-904 114.5,-904 114.5,-898 120.5,-892 126.5,-892 126.5,-892 383.5,-892 383.5,-892 389.5,-892 395.5,-898 395.5,-904 395.5,-904 395.5,-916 395.5,-916 395.5,-922 389.5,-928 383.5,-928"/>
<text text-anchor="middle" x="255" y="-906.3" font-family="Times,serif" font-size="14.00">开始: 解析pl_op、condition、extra数据</text>
</g>
<!-- handle_liveness -->
<g id="node2" class="node">
<title>handle_liveness</title>
<path fill="none" stroke="black" d="M377.5,-855C377.5,-855 132.5,-855 132.5,-855 126.5,-855 120.5,-849 120.5,-843 120.5,-843 120.5,-831 120.5,-831 120.5,-825 126.5,-819 132.5,-819 132.5,-819 377.5,-819 377.5,-819 383.5,-819 389.5,-825 389.5,-831 389.5,-831 389.5,-843 389.5,-843 389.5,-849 383.5,-855 377.5,-855"/>
<text text-anchor="middle" x="255" y="-833.3" font-family="Times,serif" font-size="14.00">处理条件分支活跃性(liveness_condbr)</text>
</g>
<!-- start&#45;&gt;handle_liveness -->
<g id="edge1" class="edge">
<title>start&#45;&gt;handle_liveness</title>
<path fill="none" stroke="black" d="M255,-891.81C255,-883.79 255,-874.05 255,-865.07"/>
<polygon fill="black" stroke="black" points="258.5,-865.03 255,-855.03 251.5,-865.03 258.5,-865.03"/>
</g>
<!-- emit_condBr -->
<g id="node3" class="node">
<title>emit_condBr</title>
<path fill="none" stroke="black" d="M339,-782C339,-782 171,-782 171,-782 165,-782 159,-776 159,-770 159,-770 159,-758 159,-758 159,-752 165,-746 171,-746 171,-746 339,-746 339,-746 345,-746 351,-752 351,-758 351,-758 351,-770 351,-770 351,-776 345,-782 339,-782"/>
<text text-anchor="middle" x="255" y="-760.3" font-family="Times,serif" font-size="14.00">发出条件分支指令(condBr)</text>
</g>
<!-- handle_liveness&#45;&gt;emit_condBr -->
<g id="edge2" class="edge">
<title>handle_liveness&#45;&gt;emit_condBr</title>
<path fill="none" stroke="black" d="M255,-818.81C255,-810.79 255,-801.05 255,-792.07"/>
<polygon fill="black" stroke="black" points="258.5,-792.03 255,-782.03 251.5,-792.03 258.5,-792.03"/>
</g>
<!-- check_operand_death -->
<g id="node4" class="node">
<title>check_operand_death</title>
<path fill="none" stroke="black" d="M315.5,-709C315.5,-709 194.5,-709 194.5,-709 188.5,-709 182.5,-703 182.5,-697 182.5,-697 182.5,-685 182.5,-685 182.5,-679 188.5,-673 194.5,-673 194.5,-673 315.5,-673 315.5,-673 321.5,-673 327.5,-679 327.5,-685 327.5,-685 327.5,-697 327.5,-697 327.5,-703 321.5,-709 315.5,-709"/>
<text text-anchor="middle" x="255" y="-687.3" font-family="Times,serif" font-size="14.00">检查操作数是否消亡</text>
</g>
<!-- emit_condBr&#45;&gt;check_operand_death -->
<g id="edge3" class="edge">
<title>emit_condBr&#45;&gt;check_operand_death</title>
<path fill="none" stroke="black" d="M255,-745.81C255,-737.79 255,-728.05 255,-719.07"/>
<polygon fill="black" stroke="black" points="258.5,-719.03 255,-709.03 251.5,-719.03 258.5,-719.03"/>
</g>
<!-- process_death -->
<g id="node5" class="node">
<title>process_death</title>
<path fill="none" stroke="black" d="M281,-622C281,-622 81,-622 81,-622 75,-622 69,-616 69,-610 69,-610 69,-598 69,-598 69,-592 75,-586 81,-586 81,-586 281,-586 281,-586 287,-586 293,-592 293,-598 293,-598 293,-610 293,-610 293,-616 287,-622 281,-622"/>
<text text-anchor="middle" x="181" y="-600.3" font-family="Times,serif" font-size="14.00">处理死亡操作数(processDeath)</text>
</g>
<!-- check_operand_death&#45;&gt;process_death -->
<g id="edge4" class="edge">
<title>check_operand_death&#45;&gt;process_death</title>
<path fill="none" stroke="black" d="M240.02,-672.8C229.29,-660.47 214.67,-643.68 202.67,-629.89"/>
<polygon fill="black" stroke="black" points="205.16,-627.42 195.95,-622.18 199.88,-632.02 205.16,-627.42"/>
<text text-anchor="middle" x="259" y="-643.8" font-family="Times,serif" font-size="14.00">操作数消亡</text>
</g>
<!-- save_parent_state -->
<g id="node6" class="node">
<title>save_parent_state</title>
<path fill="none" stroke="black" d="M335,-549C335,-549 175,-549 175,-549 169,-549 163,-543 163,-537 163,-537 163,-525 163,-525 163,-519 169,-513 175,-513 175,-513 335,-513 335,-513 341,-513 347,-519 347,-525 347,-525 347,-537 347,-537 347,-543 341,-549 335,-549"/>
<text text-anchor="middle" x="255" y="-527.3" font-family="Times,serif" font-size="14.00">保存父级状态(栈、寄存器)</text>
</g>
<!-- check_operand_death&#45;&gt;save_parent_state -->
<g id="edge5" class="edge">
<title>check_operand_death&#45;&gt;save_parent_state</title>
<path fill="none" stroke="black" d="M283.54,-672.86C289.61,-667.87 295.29,-661.87 299,-655 313.57,-627.99 312.76,-614.75 302,-586 297.93,-575.13 290.57,-565 282.87,-556.52"/>
<polygon fill="black" stroke="black" points="285.26,-553.96 275.78,-549.22 280.24,-558.84 285.26,-553.96"/>
<text text-anchor="middle" x="331.5" y="-600.3" font-family="Times,serif" font-size="14.00">未消亡</text>
</g>
<!-- process_death&#45;&gt;save_parent_state -->
<g id="edge6" class="edge">
<title>process_death&#45;&gt;save_parent_state</title>
<path fill="none" stroke="black" d="M198.91,-585.81C208.18,-576.92 219.66,-565.91 229.81,-556.17"/>
<polygon fill="black" stroke="black" points="232.46,-558.48 237.25,-549.03 227.61,-553.43 232.46,-558.48"/>
</g>
<!-- then_branch -->
<g id="node7" class="node">
<title>then_branch</title>
<path fill="none" stroke="black" d="M304,-476C304,-476 12,-476 12,-476 6,-476 0,-470 0,-464 0,-464 0,-452 0,-452 0,-446 6,-440 12,-440 12,-440 304,-440 304,-440 310,-440 316,-446 316,-452 316,-452 316,-464 316,-464 316,-470 310,-476 304,-476"/>
<text text-anchor="middle" x="158" y="-454.3" font-family="Times,serif" font-size="14.00">处理then分支: 处理死亡、生成代码(genBody)</text>
</g>
<!-- save_parent_state&#45;&gt;then_branch -->
<g id="edge7" class="edge">
<title>save_parent_state&#45;&gt;then_branch</title>
<path fill="none" stroke="black" d="M231.52,-512.81C218.89,-503.57 203.14,-492.04 189.47,-482.03"/>
<polygon fill="black" stroke="black" points="191.4,-479.11 181.26,-476.03 187.27,-484.76 191.4,-479.11"/>
</g>
<!-- then_branch_error -->
<g id="node14" class="node">
<title>then_branch_error</title>
<polygon fill="none" stroke="black" stroke-dasharray="1,5" points="388.5,-403 255.5,-403 255.5,-365 394.5,-365 394.5,-397 388.5,-403"/>
<polyline fill="none" stroke="black" stroke-dasharray="1,5" points="388.5,-403 388.5,-397 "/>
<polyline fill="none" stroke="black" stroke-dasharray="1,5" points="394.5,-397 388.5,-397 "/>
<text text-anchor="middle" x="325" y="-387.8" font-family="Times,serif" font-size="14.00">弹出branch_stack</text>
<text text-anchor="middle" x="325" y="-372.8" font-family="Times,serif" font-size="14.00">恢复状态</text>
</g>
<!-- save_parent_state&#45;&gt;then_branch_error -->
<g id="edge14" class="edge">
<title>save_parent_state&#45;&gt;then_branch_error</title>
<path fill="none" stroke="black" stroke-dasharray="1,5" d="M288.96,-512.85C302.81,-503.91 317.35,-491.57 325,-476 334.54,-456.59 333.88,-431.92 331.2,-413.16"/>
<polygon fill="black" stroke="black" points="334.62,-412.43 329.5,-403.15 327.72,-413.6 334.62,-412.43"/>
<text text-anchor="middle" x="390.5" y="-454.3" font-family="Times,serif" font-size="14.00">errdefer分支回滚</text>
</g>
<!-- restore_parent_state -->
<g id="node8" class="node">
<title>restore_parent_state</title>
<path fill="none" stroke="black" d="M197,-402C197,-402 119,-402 119,-402 113,-402 107,-396 107,-390 107,-390 107,-378 107,-378 107,-372 113,-366 119,-366 119,-366 197,-366 197,-366 203,-366 209,-372 209,-378 209,-378 209,-390 209,-390 209,-396 203,-402 197,-402"/>
<text text-anchor="middle" x="158" y="-380.3" font-family="Times,serif" font-size="14.00">恢复父级状态</text>
</g>
<!-- then_branch&#45;&gt;restore_parent_state -->
<g id="edge8" class="edge">
<title>then_branch&#45;&gt;restore_parent_state</title>
<path fill="none" stroke="black" d="M158,-439.94C158,-431.81 158,-421.88 158,-412.7"/>
<polygon fill="black" stroke="black" points="161.5,-412.44 158,-402.44 154.5,-412.44 161.5,-412.44"/>
</g>
<!-- then_branch&#45;&gt;then_branch_error -->
<!-- perform_reloc -->
<g id="node9" class="node">
<title>perform_reloc</title>
<path fill="none" stroke="black" d="M243.5,-328C243.5,-328 72.5,-328 72.5,-328 66.5,-328 60.5,-322 60.5,-316 60.5,-316 60.5,-304 60.5,-304 60.5,-298 66.5,-292 72.5,-292 72.5,-292 243.5,-292 243.5,-292 249.5,-292 255.5,-298 255.5,-304 255.5,-304 255.5,-316 255.5,-316 255.5,-322 249.5,-328 243.5,-328"/>
<text text-anchor="middle" x="158" y="-306.3" font-family="Times,serif" font-size="14.00">执行重定位(performReloc)</text>
</g>
<!-- restore_parent_state&#45;&gt;perform_reloc -->
<g id="edge9" class="edge">
<title>restore_parent_state&#45;&gt;perform_reloc</title>
<path fill="none" stroke="black" d="M158,-365.94C158,-357.81 158,-347.88 158,-338.7"/>
<polygon fill="black" stroke="black" points="161.5,-338.44 158,-328.44 154.5,-338.44 161.5,-338.44"/>
</g>
<!-- else_branch -->
<g id="node10" class="node">
<title>else_branch</title>
<path fill="none" stroke="black" d="M302,-255C302,-255 14,-255 14,-255 8,-255 2,-249 2,-243 2,-243 2,-231 2,-231 2,-225 8,-219 14,-219 14,-219 302,-219 302,-219 308,-219 314,-225 314,-231 314,-231 314,-243 314,-243 314,-249 308,-255 302,-255"/>
<text text-anchor="middle" x="158" y="-233.3" font-family="Times,serif" font-size="14.00">处理else分支: 处理死亡、生成代码(genBody)</text>
</g>
<!-- perform_reloc&#45;&gt;else_branch -->
<g id="edge10" class="edge">
<title>perform_reloc&#45;&gt;else_branch</title>
<path fill="none" stroke="black" d="M158,-291.81C158,-283.79 158,-274.05 158,-265.07"/>
<polygon fill="black" stroke="black" points="161.5,-265.03 158,-255.03 154.5,-265.03 161.5,-265.03"/>
</g>
<!-- merge_tables -->
<g id="node11" class="node">
<title>merge_tables</title>
<path fill="none" stroke="black" d="M249,-182C249,-182 67,-182 67,-182 61,-182 55,-176 55,-170 55,-170 55,-158 55,-158 55,-152 61,-146 67,-146 67,-146 249,-146 249,-146 255,-146 261,-152 261,-158 261,-158 261,-170 261,-170 261,-176 255,-182 249,-182"/>
<text text-anchor="middle" x="158" y="-160.3" font-family="Times,serif" font-size="14.00">合并then和else分支的指令表</text>
</g>
<!-- else_branch&#45;&gt;merge_tables -->
<g id="edge11" class="edge">
<title>else_branch&#45;&gt;merge_tables</title>
<path fill="none" stroke="black" d="M158,-218.81C158,-210.79 158,-201.05 158,-192.07"/>
<polygon fill="black" stroke="black" points="161.5,-192.03 158,-182.03 154.5,-192.03 161.5,-192.03"/>
</g>
<!-- finish_air -->
<g id="node12" class="node">
<title>finish_air</title>
<path fill="none" stroke="black" d="M228.5,-109C228.5,-109 87.5,-109 87.5,-109 81.5,-109 75.5,-103 75.5,-97 75.5,-97 75.5,-85 75.5,-85 75.5,-79 81.5,-73 87.5,-73 87.5,-73 228.5,-73 228.5,-73 234.5,-73 240.5,-79 240.5,-85 240.5,-85 240.5,-97 240.5,-97 240.5,-103 234.5,-109 228.5,-109"/>
<text text-anchor="middle" x="158" y="-87.3" font-family="Times,serif" font-size="14.00">完成Air指令(finishAir)</text>
</g>
<!-- merge_tables&#45;&gt;finish_air -->
<g id="edge12" class="edge">
<title>merge_tables&#45;&gt;finish_air</title>
<path fill="none" stroke="black" d="M158,-145.81C158,-137.79 158,-128.05 158,-119.07"/>
<polygon fill="black" stroke="black" points="161.5,-119.03 158,-109.03 154.5,-119.03 161.5,-119.03"/>
</g>
<!-- end -->
<g id="node13" class="node">
<title>end</title>
<path fill="none" stroke="black" d="M173,-36C173,-36 143,-36 143,-36 137,-36 131,-30 131,-24 131,-24 131,-12 131,-12 131,-6 137,0 143,0 143,0 173,0 173,0 179,0 185,-6 185,-12 185,-12 185,-24 185,-24 185,-30 179,-36 173,-36"/>
<text text-anchor="middle" x="158" y="-14.3" font-family="Times,serif" font-size="14.00">结束</text>
</g>
<!-- finish_air&#45;&gt;end -->
<g id="edge13" class="edge">
<title>finish_air&#45;&gt;end</title>
<path fill="none" stroke="black" d="M158,-72.81C158,-64.79 158,-55.05 158,-46.07"/>
<polygon fill="black" stroke="black" points="161.5,-46.03 158,-36.03 154.5,-46.03 161.5,-46.03"/>
</g>
</g>
</svg>
