<?xml version="1.0" encoding="UTF-8" standalone="no"?>
<!DOCTYPE svg PUBLIC "-//W3C//DTD SVG 1.1//EN"
 "http://www.w3.org/Graphics/SVG/1.1/DTD/svg11.dtd">
<!-- Generated by graphviz version 2.43.0 (0)
 -->
<!-- Title: flowchart Pages: 1 -->
<svg width="428pt" height="1079pt"
 viewBox="0.00 0.00 428.00 1079.00" xmlns="http://www.w3.org/2000/svg" xmlns:xlink="http://www.w3.org/1999/xlink">
<g id="graph0" class="graph" transform="scale(1 1) rotate(0) translate(4 1075)">
<title>flowchart</title>
<polygon fill="white" stroke="transparent" points="-4,4 -4,-1075 424,-1075 424,4 -4,4"/>
<g id="clust1" class="cluster">
<title>cluster_non_naked</title>
<polygon fill="none" stroke="black" points="8,-65 8,-925 256,-925 256,-65 8,-65"/>
<text text-anchor="middle" x="132" y="-909.8" font-family="Times,serif" font-size="14.00">Non&#45;naked调用约定处理</text>
</g>
<g id="clust2" class="cluster">
<title>cluster_naked</title>
<polygon fill="none" stroke="black" points="264,-704 264,-925 412,-925 412,-704 264,-704"/>
<text text-anchor="middle" x="338" y="-909.8" font-family="Times,serif" font-size="14.00">Naked调用约定处理</text>
</g>
<!-- start -->
<g id="node1" class="node">
<title>start</title>
<polygon fill="none" stroke="black" points="294.5,-1071 211.5,-1071 211.5,-1035 294.5,-1035 294.5,-1071"/>
<text text-anchor="middle" x="253" y="-1050.5" font-family="Courier,monospace" font-size="10.00">Start gen()</text>
</g>
<!-- check_naked -->
<g id="node2" class="node">
<title>check_naked</title>
<polygon fill="none" stroke="black" points="253,-998 133.91,-980 253,-962 372.09,-980 253,-998"/>
<text text-anchor="middle" x="253" y="-977.5" font-family="Courier,monospace" font-size="10.00">fn_info.cc != .naked?</text>
</g>
<!-- start&#45;&gt;check_naked -->
<g id="edge1" class="edge">
<title>start&#45;&gt;check_naked</title>
<path fill="none" stroke="black" d="M253,-1034.81C253,-1026.79 253,-1017.05 253,-1008.07"/>
<polygon fill="black" stroke="black" points="256.5,-1008.03 253,-998.03 249.5,-1008.03 256.5,-1008.03"/>
</g>
<!-- push_rbp -->
<g id="node3" class="node">
<title>push_rbp</title>
<polygon fill="none" stroke="black" points="246.5,-894 101.5,-894 101.5,-858 246.5,-858 246.5,-894"/>
<text text-anchor="middle" x="174" y="-873.5" font-family="Courier,monospace" font-size="10.00">生成 push rbp / CFI指令</text>
</g>
<!-- check_naked&#45;&gt;push_rbp -->
<g id="edge16" class="edge">
<title>check_naked&#45;&gt;push_rbp</title>
<path fill="none" stroke="black" d="M241,-963.51C228.37,-947.2 208.28,-921.26 193.39,-902.04"/>
<polygon fill="black" stroke="black" points="196.06,-899.76 187.17,-894 190.52,-904.05 196.06,-899.76"/>
<text text-anchor="middle" x="230" y="-936" font-family="Courier,monospace" font-size="10.00">是</text>
</g>
<!-- naked_debug -->
<g id="node15" class="node">
<title>naked_debug</title>
<polygon fill="none" stroke="black" points="381,-894 277,-894 277,-858 381,-858 381,-894"/>
<text text-anchor="middle" x="329" y="-873.5" font-family="Courier,monospace" font-size="10.00">生成调试信息伪指令</text>
</g>
<!-- check_naked&#45;&gt;naked_debug -->
<g id="edge17" class="edge">
<title>check_naked&#45;&gt;naked_debug</title>
<path fill="none" stroke="black" d="M264.54,-963.51C276.7,-947.2 296.02,-921.26 310.34,-902.04"/>
<polygon fill="black" stroke="black" points="313.16,-904.11 316.33,-894 307.55,-899.93 313.16,-904.11"/>
<text text-anchor="middle" x="291" y="-936" font-family="Courier,monospace" font-size="10.00">否</text>
</g>
<!-- setup_placeholders -->
<g id="node4" class="node">
<title>setup_placeholders</title>
<polygon fill="none" stroke="black" points="237.5,-821 64.5,-821 64.5,-785 237.5,-785 237.5,-821"/>
<text text-anchor="middle" x="151" y="-806" font-family="Courier,monospace" font-size="10.00">创建占位符指令</text>
<text text-anchor="middle" x="151" y="-795" font-family="Courier,monospace" font-size="10.00">(backpatch_push_callee...)</text>
</g>
<!-- push_rbp&#45;&gt;setup_placeholders -->
<g id="edge2" class="edge">
<title>push_rbp&#45;&gt;setup_placeholders</title>
<path fill="none" stroke="black" d="M168.43,-857.81C165.8,-849.7 162.61,-839.84 159.67,-830.78"/>
<polygon fill="black" stroke="black" points="162.93,-829.46 156.52,-821.03 156.27,-831.62 162.93,-829.46"/>
</g>
<!-- handle_ret_mcv -->
<g id="node5" class="node">
<title>handle_ret_mcv</title>
<polygon fill="none" stroke="black" points="187.5,-748 92.5,-748 92.5,-712 187.5,-712 187.5,-748"/>
<text text-anchor="middle" x="140" y="-733" font-family="Courier,monospace" font-size="10.00">处理返回值的存储</text>
<text text-anchor="middle" x="140" y="-722" font-family="Courier,monospace" font-size="10.00">(spill到栈帧)</text>
</g>
<!-- setup_placeholders&#45;&gt;handle_ret_mcv -->
<g id="edge3" class="edge">
<title>setup_placeholders&#45;&gt;handle_ret_mcv</title>
<path fill="none" stroke="black" d="M148.34,-784.81C147.09,-776.79 145.58,-767.05 144.19,-758.07"/>
<polygon fill="black" stroke="black" points="147.63,-757.38 142.64,-748.03 140.71,-758.45 147.63,-757.38"/>
</g>
<!-- check_var_args -->
<g id="node6" class="node">
<title>check_var_args</title>
<polygon fill="none" stroke="black" points="134,-675 19.9,-657 134,-639 248.1,-657 134,-675"/>
<text text-anchor="middle" x="134" y="-654.5" font-family="Courier,monospace" font-size="10.00">fn_info.is_var_args?</text>
</g>
<!-- handle_ret_mcv&#45;&gt;check_var_args -->
<g id="edge4" class="edge">
<title>handle_ret_mcv&#45;&gt;check_var_args</title>
<path fill="none" stroke="black" d="M138.55,-711.81C137.87,-703.79 137.05,-694.05 136.29,-685.07"/>
<polygon fill="black" stroke="black" points="139.77,-684.7 135.44,-675.03 132.79,-685.29 139.77,-684.7"/>
</g>
<!-- handle_sysv_varargs -->
<g id="node7" class="node">
<title>handle_sysv_varargs</title>
<polygon fill="none" stroke="black" points="155,-592 27,-592 27,-556 155,-556 155,-592"/>
<text text-anchor="middle" x="91" y="-577" font-family="Courier,monospace" font-size="10.00">生成SysV varargs处理</text>
<text text-anchor="middle" x="91" y="-566" font-family="Courier,monospace" font-size="10.00">保存寄存器到栈</text>
</g>
<!-- check_var_args&#45;&gt;handle_sysv_varargs -->
<g id="edge5" class="edge">
<title>check_var_args&#45;&gt;handle_sysv_varargs</title>
<path fill="none" stroke="black" d="M125.5,-640C119.6,-628.87 111.59,-613.78 104.77,-600.95"/>
<polygon fill="black" stroke="black" points="107.85,-599.28 100.07,-592.09 101.67,-602.56 107.85,-599.28"/>
<text text-anchor="middle" x="128.5" y="-613" font-family="Courier,monospace" font-size="10.00">SysV</text>
</g>
<!-- handle_win_varargs -->
<g id="node8" class="node">
<title>handle_win_varargs</title>
<polygon fill="none" stroke="black" points="248,-538 98,-538 98,-502 248,-502 248,-538"/>
<text text-anchor="middle" x="173" y="-517.5" font-family="Courier,monospace" font-size="10.00">TODO: Win64 varargs错误</text>
</g>
<!-- check_var_args&#45;&gt;handle_win_varargs -->
<g id="edge6" class="edge">
<title>check_var_args&#45;&gt;handle_win_varargs</title>
<path fill="none" stroke="black" d="M143.09,-640.24C149.95,-627.6 159.01,-609.21 164,-592 168.1,-577.88 170.33,-561.63 171.54,-548.25"/>
<polygon fill="black" stroke="black" points="175.04,-548.47 172.32,-538.23 168.06,-547.93 175.04,-548.47"/>
<text text-anchor="middle" x="172.5" y="-613" font-family="Courier,monospace" font-size="10.00">Win64</text>
</g>
<!-- debug_prologue -->
<g id="node9" class="node">
<title>debug_prologue</title>
<polygon fill="none" stroke="black" points="171.5,-484 16.5,-484 16.5,-448 171.5,-448 171.5,-484"/>
<text text-anchor="middle" x="94" y="-469" font-family="Courier,monospace" font-size="10.00">生成调试信息伪指令</text>
<text text-anchor="middle" x="94" y="-458" font-family="Courier,monospace" font-size="10.00">pseudo_dbg_prologue_end</text>
</g>
<!-- handle_sysv_varargs&#45;&gt;debug_prologue -->
<g id="edge7" class="edge">
<title>handle_sysv_varargs&#45;&gt;debug_prologue</title>
<path fill="none" stroke="black" d="M91.48,-555.97C91.95,-539.38 92.67,-513.88 93.22,-494.43"/>
<polygon fill="black" stroke="black" points="96.72,-494.44 93.51,-484.34 89.73,-494.24 96.72,-494.44"/>
</g>
<!-- gen_body -->
<g id="node10" class="node">
<title>gen_body</title>
<polygon fill="none" stroke="black" points="191.5,-411 66.5,-411 66.5,-375 191.5,-375 191.5,-411"/>
<text text-anchor="middle" x="129" y="-390.5" font-family="Courier,monospace" font-size="10.00">生成函数体 (genBody)</text>
</g>
<!-- handle_win_varargs&#45;&gt;gen_body -->
<g id="edge20" class="edge">
<title>handle_win_varargs&#45;&gt;gen_body</title>
<path fill="none" stroke="black" d="M179.47,-501.73C183.96,-486.95 188,-465.37 181,-448 176.45,-436.7 168.27,-426.45 159.73,-417.99"/>
<polygon fill="black" stroke="black" points="161.93,-415.25 152.22,-411.03 157.18,-420.39 161.93,-415.25"/>
<text text-anchor="middle" x="204" y="-463.5" font-family="Courier,monospace" font-size="10.00">直接失败</text>
</g>
<!-- debug_prologue&#45;&gt;gen_body -->
<g id="edge8" class="edge">
<title>debug_prologue&#45;&gt;gen_body</title>
<path fill="none" stroke="black" d="M102.47,-447.81C106.56,-439.53 111.54,-429.41 116.09,-420.19"/>
<polygon fill="black" stroke="black" points="119.32,-421.55 120.61,-411.03 113.04,-418.45 119.32,-421.55"/>
</g>
<!-- check_epilogue -->
<g id="node11" class="node">
<title>check_epilogue</title>
<polygon fill="none" stroke="black" points="129,-338 19.22,-320 129,-302 238.78,-320 129,-338"/>
<text text-anchor="middle" x="129" y="-317.5" font-family="Courier,monospace" font-size="10.00">epilogue_relocs存在?</text>
</g>
<!-- gen_body&#45;&gt;check_epilogue -->
<g id="edge9" class="edge">
<title>gen_body&#45;&gt;check_epilogue</title>
<path fill="none" stroke="black" d="M129,-374.81C129,-366.79 129,-357.05 129,-348.07"/>
<polygon fill="black" stroke="black" points="132.5,-348.03 129,-338.03 125.5,-348.03 132.5,-348.03"/>
</g>
<!-- gen_epilogue -->
<g id="node12" class="node">
<title>gen_epilogue</title>
<polygon fill="none" stroke="black" points="169.5,-255 32.5,-255 32.5,-219 169.5,-219 169.5,-255"/>
<text text-anchor="middle" x="101" y="-240" font-family="Courier,monospace" font-size="10.00">生成epilogue代码</text>
<text text-anchor="middle" x="101" y="-229" font-family="Courier,monospace" font-size="10.00">恢复寄存器/pop rbp/ret</text>
</g>
<!-- check_epilogue&#45;&gt;gen_epilogue -->
<g id="edge10" class="edge">
<title>check_epilogue&#45;&gt;gen_epilogue</title>
<path fill="none" stroke="black" d="M123.33,-302.61C119.58,-291.74 114.56,-277.23 110.23,-264.71"/>
<polygon fill="black" stroke="black" points="113.52,-263.51 106.95,-255.21 106.91,-265.8 113.52,-263.51"/>
<text text-anchor="middle" x="122" y="-276" font-family="Courier,monospace" font-size="10.00">是</text>
</g>
<!-- frame_layout -->
<g id="node13" class="node">
<title>frame_layout</title>
<polygon fill="none" stroke="black" points="243.5,-182 148.5,-182 148.5,-146 243.5,-146 243.5,-182"/>
<text text-anchor="middle" x="196" y="-167" font-family="Courier,monospace" font-size="10.00">计算栈帧布局</text>
<text text-anchor="middle" x="196" y="-156" font-family="Courier,monospace" font-size="10.00">处理栈对齐和调整</text>
</g>
<!-- check_epilogue&#45;&gt;frame_layout -->
<g id="edge11" class="edge">
<title>check_epilogue&#45;&gt;frame_layout</title>
<path fill="none" stroke="black" d="M144.06,-304.09C155.44,-291.93 170.51,-273.76 179,-255 187.99,-235.14 192.22,-210.74 194.22,-192.36"/>
<polygon fill="black" stroke="black" points="197.71,-192.59 195.16,-182.31 190.74,-191.94 197.71,-192.59"/>
<text text-anchor="middle" x="195" y="-234.5" font-family="Courier,monospace" font-size="10.00">否</text>
</g>
<!-- gen_epilogue&#45;&gt;frame_layout -->
<g id="edge12" class="edge">
<title>gen_epilogue&#45;&gt;frame_layout</title>
<path fill="none" stroke="black" d="M124,-218.81C136.37,-209.57 151.79,-198.04 165.18,-188.03"/>
<polygon fill="black" stroke="black" points="167.3,-190.82 173.21,-182.03 163.11,-185.21 167.3,-190.82"/>
</g>
<!-- save_regs -->
<g id="node14" class="node">
<title>save_regs</title>
<polygon fill="none" stroke="black" points="248,-109 144,-109 144,-73 248,-73 248,-109"/>
<text text-anchor="middle" x="196" y="-88.5" font-family="Courier,monospace" font-size="10.00">生成保存寄存器指令</text>
</g>
<!-- frame_layout&#45;&gt;save_regs -->
<g id="edge13" class="edge">
<title>frame_layout&#45;&gt;save_regs</title>
<path fill="none" stroke="black" d="M196,-145.81C196,-137.79 196,-128.05 196,-119.07"/>
<polygon fill="black" stroke="black" points="199.5,-119.03 196,-109.03 192.5,-119.03 199.5,-119.03"/>
</g>
<!-- debug_end -->
<g id="node18" class="node">
<title>debug_end</title>
<polygon fill="none" stroke="black" points="309.5,-36 190.5,-36 190.5,0 309.5,0 309.5,-36"/>
<text text-anchor="middle" x="250" y="-21" font-family="Courier,monospace" font-size="10.00">生成结尾调试信息</text>
<text text-anchor="middle" x="250" y="-10" font-family="Courier,monospace" font-size="10.00">(pseudo_dbg_line)</text>
</g>
<!-- save_regs&#45;&gt;debug_end -->
<g id="edge18" class="edge">
<title>save_regs&#45;&gt;debug_end</title>
<path fill="none" stroke="black" d="M209.07,-72.81C215.64,-64.18 223.72,-53.56 230.96,-44.03"/>
<polygon fill="black" stroke="black" points="233.78,-46.11 237.05,-36.03 228.21,-41.87 233.78,-46.11"/>
</g>
<!-- naked_gen_body -->
<g id="node16" class="node">
<title>naked_gen_body</title>
<polygon fill="none" stroke="black" points="397.5,-821 272.5,-821 272.5,-785 397.5,-785 397.5,-821"/>
<text text-anchor="middle" x="335" y="-800.5" font-family="Courier,monospace" font-size="10.00">生成函数体 (genBody)</text>
</g>
<!-- naked_debug&#45;&gt;naked_gen_body -->
<g id="edge14" class="edge">
<title>naked_debug&#45;&gt;naked_gen_body</title>
<path fill="none" stroke="black" d="M330.45,-857.81C331.13,-849.79 331.95,-840.05 332.71,-831.07"/>
<polygon fill="black" stroke="black" points="336.21,-831.29 333.56,-821.03 329.23,-830.7 336.21,-831.29"/>
</g>
<!-- naked_epilogue_debug -->
<g id="node17" class="node">
<title>naked_epilogue_debug</title>
<polygon fill="none" stroke="black" points="395.5,-748 272.5,-748 272.5,-712 395.5,-712 395.5,-748"/>
<text text-anchor="middle" x="334" y="-727.5" font-family="Courier,monospace" font-size="10.00">生成epilogue调试信息</text>
</g>
<!-- naked_gen_body&#45;&gt;naked_epilogue_debug -->
<g id="edge15" class="edge">
<title>naked_gen_body&#45;&gt;naked_epilogue_debug</title>
<path fill="none" stroke="black" d="M334.76,-784.81C334.64,-776.79 334.51,-767.05 334.38,-758.07"/>
<polygon fill="black" stroke="black" points="337.88,-757.98 334.24,-748.03 330.88,-758.08 337.88,-757.98"/>
</g>
<!-- naked_epilogue_debug&#45;&gt;debug_end -->
<g id="edge19" class="edge">
<title>naked_epilogue_debug&#45;&gt;debug_end</title>
<path fill="none" stroke="black" d="M322.7,-711.99C314.56,-698.08 305,-677.57 305,-658 305,-658 305,-658 305,-90 305,-71.75 293.51,-55.35 281.03,-42.92"/>
<polygon fill="black" stroke="black" points="283.36,-40.31 273.64,-36.08 278.6,-45.44 283.36,-40.31"/>
</g>
</g>
</svg>
