<?xml version="1.0" encoding="UTF-8" standalone="no"?>
<!DOCTYPE svg PUBLIC "-//W3C//DTD SVG 1.1//EN"
 "http://www.w3.org/Graphics/SVG/1.1/DTD/svg11.dtd">
<!-- Generated by graphviz version 2.43.0 (0)
 -->
<!-- Title: flowchart Pages: 1 -->
<svg width="1003pt" height="1055pt"
 viewBox="0.00 0.00 1003.00 1055.00" xmlns="http://www.w3.org/2000/svg" xmlns:xlink="http://www.w3.org/1999/xlink">
<g id="graph0" class="graph" transform="scale(1 1) rotate(0) translate(4 1051)">
<title>flowchart</title>
<polygon fill="white" stroke="transparent" points="-4,4 -4,-1051 999,-1051 999,4 -4,4"/>
<!-- start -->
<g id="node1" class="node">
<title>start</title>
<path fill="none" stroke="black" d="M354,-1047C354,-1047 291,-1047 291,-1047 285,-1047 279,-1041 279,-1035 279,-1035 279,-1023 279,-1023 279,-1017 285,-1011 291,-1011 291,-1011 354,-1011 354,-1011 360,-1011 366,-1017 366,-1023 366,-1023 366,-1035 366,-1035 366,-1041 360,-1047 354,-1047"/>
<text text-anchor="middle" x="322.5" y="-1025.3" font-family="Arial" font-size="14.00">Start airCall</text>
</g>
<!-- check_modifier -->
<g id="node2" class="node">
<title>check_modifier</title>
<path fill="none" stroke="black" d="M415,-974C415,-974 230,-974 230,-974 224,-974 218,-968 218,-962 218,-962 218,-950 218,-950 218,-944 224,-938 230,-938 230,-938 415,-938 415,-938 421,-938 427,-944 427,-950 427,-950 427,-962 427,-962 427,-968 421,-974 415,-974"/>
<text text-anchor="middle" x="322.5" y="-952.3" font-family="Arial" font-size="14.00">Check modifier == .always_tail?</text>
</g>
<!-- start&#45;&gt;check_modifier -->
<g id="edge1" class="edge">
<title>start&#45;&gt;check_modifier</title>
<path fill="none" stroke="black" d="M322.5,-1010.81C322.5,-1002.79 322.5,-993.05 322.5,-984.07"/>
<polygon fill="black" stroke="black" points="326,-984.03 322.5,-974.03 319,-984.03 326,-984.03"/>
</g>
<!-- fail_tail_call -->
<g id="node3" class="node">
<title>fail_tail_call</title>
<path fill="none" stroke="black" d="M376.5,-887C376.5,-887 222.5,-887 222.5,-887 216.5,-887 210.5,-881 210.5,-875 210.5,-875 210.5,-863 210.5,-863 210.5,-857 216.5,-851 222.5,-851 222.5,-851 376.5,-851 376.5,-851 382.5,-851 388.5,-857 388.5,-863 388.5,-863 388.5,-875 388.5,-875 388.5,-881 382.5,-887 376.5,-887"/>
<text text-anchor="middle" x="299.5" y="-865.3" font-family="Arial" font-size="14.00">Return fail: TODO tail calls</text>
</g>
<!-- check_modifier&#45;&gt;fail_tail_call -->
<g id="edge2" class="edge">
<title>check_modifier&#45;&gt;fail_tail_call</title>
<path fill="none" stroke="black" d="M317.85,-937.8C314.67,-926.05 310.39,-910.24 306.76,-896.84"/>
<polygon fill="black" stroke="black" points="310.14,-895.91 304.15,-887.18 303.38,-897.74 310.14,-895.91"/>
<text text-anchor="middle" x="324" y="-908.8" font-family="Arial" font-size="14.00">Yes</text>
</g>
<!-- get_pl_op -->
<g id="node4" class="node">
<title>get_pl_op</title>
<path fill="none" stroke="black" d="M584.5,-887C584.5,-887 418.5,-887 418.5,-887 412.5,-887 406.5,-881 406.5,-875 406.5,-875 406.5,-863 406.5,-863 406.5,-857 412.5,-851 418.5,-851 418.5,-851 584.5,-851 584.5,-851 590.5,-851 596.5,-857 596.5,-863 596.5,-863 596.5,-875 596.5,-875 596.5,-881 590.5,-887 584.5,-887"/>
<text text-anchor="middle" x="501.5" y="-865.3" font-family="Arial" font-size="14.00">Get pl_op, callee, extra, args</text>
</g>
<!-- check_modifier&#45;&gt;get_pl_op -->
<g id="edge3" class="edge">
<title>check_modifier&#45;&gt;get_pl_op</title>
<path fill="none" stroke="black" d="M358.72,-937.8C386.96,-924.39 426.32,-905.7 456.57,-891.34"/>
<polygon fill="black" stroke="black" points="458.1,-894.48 465.64,-887.03 455.1,-888.16 458.1,-894.48"/>
<text text-anchor="middle" x="432.5" y="-908.8" font-family="Arial" font-size="14.00">No</text>
</g>
<!-- resolve_ty -->
<g id="node5" class="node">
<title>resolve_ty</title>
<path fill="none" stroke="black" d="M583.5,-814C583.5,-814 419.5,-814 419.5,-814 413.5,-814 407.5,-808 407.5,-802 407.5,-802 407.5,-790 407.5,-790 407.5,-784 413.5,-778 419.5,-778 419.5,-778 583.5,-778 583.5,-778 589.5,-778 595.5,-784 595.5,-790 595.5,-790 595.5,-802 595.5,-802 595.5,-808 589.5,-814 583.5,-814"/>
<text text-anchor="middle" x="501.5" y="-792.3" font-family="Arial" font-size="14.00">Resolve function type (fn_ty)</text>
</g>
<!-- get_pl_op&#45;&gt;resolve_ty -->
<g id="edge4" class="edge">
<title>get_pl_op&#45;&gt;resolve_ty</title>
<path fill="none" stroke="black" d="M501.5,-850.81C501.5,-842.79 501.5,-833.05 501.5,-824.07"/>
<polygon fill="black" stroke="black" points="505,-824.03 501.5,-814.03 498,-824.03 505,-824.03"/>
</g>
<!-- resolve_convention -->
<g id="node6" class="node">
<title>resolve_convention</title>
<path fill="none" stroke="black" d="M595,-741C595,-741 408,-741 408,-741 402,-741 396,-735 396,-729 396,-729 396,-717 396,-717 396,-711 402,-705 408,-705 408,-705 595,-705 595,-705 601,-705 607,-711 607,-717 607,-717 607,-729 607,-729 607,-735 601,-741 595,-741"/>
<text text-anchor="middle" x="501.5" y="-719.3" font-family="Arial" font-size="14.00">Resolve calling convention (info)</text>
</g>
<!-- resolve_ty&#45;&gt;resolve_convention -->
<g id="edge5" class="edge">
<title>resolve_ty&#45;&gt;resolve_convention</title>
<path fill="none" stroke="black" d="M501.5,-777.81C501.5,-769.79 501.5,-760.05 501.5,-751.07"/>
<polygon fill="black" stroke="black" points="505,-751.03 501.5,-741.03 498,-751.03 505,-751.03"/>
</g>
<!-- spill_flags -->
<g id="node7" class="node">
<title>spill_flags</title>
<path fill="none" stroke="black" d="M589.5,-668C589.5,-668 413.5,-668 413.5,-668 407.5,-668 401.5,-662 401.5,-656 401.5,-656 401.5,-644 401.5,-644 401.5,-638 407.5,-632 413.5,-632 413.5,-632 589.5,-632 589.5,-632 595.5,-632 601.5,-638 601.5,-644 601.5,-644 601.5,-656 601.5,-656 601.5,-662 595.5,-668 589.5,-668"/>
<text text-anchor="middle" x="501.5" y="-646.3" font-family="Arial" font-size="14.00">Spill compare flags if occupied</text>
</g>
<!-- resolve_convention&#45;&gt;spill_flags -->
<g id="edge6" class="edge">
<title>resolve_convention&#45;&gt;spill_flags</title>
<path fill="none" stroke="black" d="M501.5,-704.81C501.5,-696.79 501.5,-687.05 501.5,-678.07"/>
<polygon fill="black" stroke="black" points="505,-678.03 501.5,-668.03 498,-678.03 505,-678.03"/>
</g>
<!-- check_return_stack -->
<g id="node8" class="node">
<title>check_return_stack</title>
<path fill="none" stroke="black" d="M585,-595C585,-595 418,-595 418,-595 412,-595 406,-589 406,-583 406,-583 406,-571 406,-571 406,-565 412,-559 418,-559 418,-559 585,-559 585,-559 591,-559 597,-565 597,-571 597,-571 597,-583 597,-583 597,-589 591,-595 585,-595"/>
<text text-anchor="middle" x="501.5" y="-573.3" font-family="Arial" font-size="14.00">Check return value on stack?</text>
</g>
<!-- spill_flags&#45;&gt;check_return_stack -->
<g id="edge7" class="edge">
<title>spill_flags&#45;&gt;check_return_stack</title>
<path fill="none" stroke="black" d="M501.5,-631.81C501.5,-623.79 501.5,-614.05 501.5,-605.07"/>
<polygon fill="black" stroke="black" points="505,-605.03 501.5,-595.03 498,-605.03 505,-605.03"/>
</g>
<!-- alloc_mem -->
<g id="node9" class="node">
<title>alloc_mem</title>
<path fill="none" stroke="black" d="M509.5,-508C509.5,-508 379.5,-508 379.5,-508 373.5,-508 367.5,-502 367.5,-496 367.5,-496 367.5,-482 367.5,-482 367.5,-476 373.5,-470 379.5,-470 379.5,-470 509.5,-470 509.5,-470 515.5,-470 521.5,-476 521.5,-482 521.5,-482 521.5,-496 521.5,-496 521.5,-502 515.5,-508 509.5,-508"/>
<text text-anchor="middle" x="444.5" y="-492.8" font-family="Arial" font-size="14.00">Allocate stack memory</text>
<text text-anchor="middle" x="444.5" y="-477.8" font-family="Arial" font-size="14.00">Set ret_ptr_reg</text>
</g>
<!-- check_return_stack&#45;&gt;alloc_mem -->
<g id="edge8" class="edge">
<title>check_return_stack&#45;&gt;alloc_mem</title>
<path fill="none" stroke="black" d="M489.97,-558.6C482.01,-546.6 471.29,-530.42 462.26,-516.79"/>
<polygon fill="black" stroke="black" points="465.05,-514.67 456.61,-508.27 459.22,-518.54 465.05,-514.67"/>
<text text-anchor="middle" x="490" y="-529.8" font-family="Arial" font-size="14.00">Yes</text>
</g>
<!-- setup_args -->
<g id="node10" class="node">
<title>setup_args</title>
<path fill="none" stroke="black" d="M609,-433C609,-433 392,-433 392,-433 386,-433 380,-427 380,-421 380,-421 380,-409 380,-409 380,-403 386,-397 392,-397 392,-397 609,-397 609,-397 615,-397 621,-403 621,-409 621,-409 621,-421 621,-421 621,-427 615,-433 609,-433"/>
<text text-anchor="middle" x="500.5" y="-411.3" font-family="Arial" font-size="14.00">Adjust max_end_stack for arguments</text>
</g>
<!-- check_return_stack&#45;&gt;setup_args -->
<g id="edge10" class="edge">
<title>check_return_stack&#45;&gt;setup_args</title>
<path fill="none" stroke="black" d="M511.87,-558.78C523.18,-537.84 538.64,-501.4 530.5,-470 527.97,-460.24 523.25,-450.37 518.3,-441.78"/>
<polygon fill="black" stroke="black" points="521.14,-439.72 512.92,-433.03 515.18,-443.38 521.14,-439.72"/>
<text text-anchor="middle" x="542.5" y="-485.3" font-family="Arial" font-size="14.00">No</text>
</g>
<!-- alloc_mem&#45;&gt;setup_args -->
<g id="edge9" class="edge">
<title>alloc_mem&#45;&gt;setup_args</title>
<path fill="none" stroke="black" d="M458.63,-469.83C465.35,-461.2 473.49,-450.73 480.8,-441.33"/>
<polygon fill="black" stroke="black" points="483.58,-443.46 486.95,-433.42 478.05,-439.16 483.58,-443.46"/>
</g>
<!-- process_args -->
<g id="node11" class="node">
<title>process_args</title>
<path fill="none" stroke="black" d="M568.5,-360C568.5,-360 432.5,-360 432.5,-360 426.5,-360 420.5,-354 420.5,-348 420.5,-348 420.5,-334 420.5,-334 420.5,-328 426.5,-322 432.5,-322 432.5,-322 568.5,-322 568.5,-322 574.5,-322 580.5,-328 580.5,-334 580.5,-334 580.5,-348 580.5,-348 580.5,-354 574.5,-360 568.5,-360"/>
<text text-anchor="middle" x="500.5" y="-344.8" font-family="Arial" font-size="14.00">Process each argument</text>
<text text-anchor="middle" x="500.5" y="-329.8" font-family="Arial" font-size="14.00">Register/Stack handling</text>
</g>
<!-- setup_args&#45;&gt;process_args -->
<g id="edge11" class="edge">
<title>setup_args&#45;&gt;process_args</title>
<path fill="none" stroke="black" d="M500.5,-396.94C500.5,-388.99 500.5,-379.31 500.5,-370.31"/>
<polygon fill="black" stroke="black" points="504,-370.2 500.5,-360.2 497,-370.2 504,-370.2"/>
</g>
<!-- check_callee_value -->
<g id="node12" class="node">
<title>check_callee_value</title>
<path fill="none" stroke="black" d="M570.5,-285C570.5,-285 430.5,-285 430.5,-285 424.5,-285 418.5,-279 418.5,-273 418.5,-273 418.5,-261 418.5,-261 418.5,-255 424.5,-249 430.5,-249 430.5,-249 570.5,-249 570.5,-249 576.5,-249 582.5,-255 582.5,-261 582.5,-261 582.5,-273 582.5,-273 582.5,-279 576.5,-285 570.5,-285"/>
<text text-anchor="middle" x="500.5" y="-263.3" font-family="Arial" font-size="14.00">Is callee a known value?</text>
</g>
<!-- process_args&#45;&gt;check_callee_value -->
<g id="edge12" class="edge">
<title>process_args&#45;&gt;check_callee_value</title>
<path fill="none" stroke="black" d="M500.5,-321.83C500.5,-313.89 500.5,-304.41 500.5,-295.63"/>
<polygon fill="black" stroke="black" points="504,-295.42 500.5,-285.42 497,-295.42 504,-295.42"/>
</g>
<!-- handle_elf -->
<g id="node13" class="node">
<title>handle_elf</title>
<path fill="none" stroke="black" d="M125,-197C125,-197 12,-197 12,-197 6,-197 0,-191 0,-185 0,-185 0,-173 0,-173 0,-167 6,-161 12,-161 12,-161 125,-161 125,-161 131,-161 137,-167 137,-173 137,-173 137,-185 137,-185 137,-191 131,-197 125,-197"/>
<text text-anchor="middle" x="68.5" y="-175.3" font-family="Arial" font-size="14.00">Fail: TODO Elf calls</text>
</g>
<!-- check_callee_value&#45;&gt;handle_elf -->
<g id="edge13" class="edge">
<title>check_callee_value&#45;&gt;handle_elf</title>
<path fill="none" stroke="black" d="M418.42,-251.12C348.88,-238.31 246.28,-218.94 147.25,-198.12"/>
<polygon fill="black" stroke="black" points="147.88,-194.68 137.37,-196.04 146.44,-201.53 147.88,-194.68"/>
<text text-anchor="middle" x="324" y="-219.8" font-family="Arial" font-size="14.00">ELF</text>
</g>
<!-- handle_macho -->
<g id="node14" class="node">
<title>handle_macho</title>
<path fill="none" stroke="black" d="M313.5,-197C313.5,-197 167.5,-197 167.5,-197 161.5,-197 155.5,-191 155.5,-185 155.5,-185 155.5,-173 155.5,-173 155.5,-167 161.5,-161 167.5,-161 167.5,-161 313.5,-161 313.5,-161 319.5,-161 325.5,-167 325.5,-173 325.5,-173 325.5,-185 325.5,-185 325.5,-191 319.5,-197 313.5,-197"/>
<text text-anchor="middle" x="240.5" y="-175.3" font-family="Arial" font-size="14.00">Fail: TODO Mach&#45;O calls</text>
</g>
<!-- check_callee_value&#45;&gt;handle_macho -->
<g id="edge14" class="edge">
<title>check_callee_value&#45;&gt;handle_macho</title>
<path fill="none" stroke="black" d="M448.82,-248.91C406.46,-234.9 346.42,-215.04 301.67,-200.23"/>
<polygon fill="black" stroke="black" points="302.67,-196.88 292.08,-197.06 300.48,-203.52 302.67,-196.88"/>
<text text-anchor="middle" x="419.5" y="-219.8" font-family="Arial" font-size="14.00">Mach&#45;O</text>
</g>
<!-- handle_coff -->
<g id="node15" class="node">
<title>handle_coff</title>
<path fill="none" stroke="black" d="M483.5,-198C483.5,-198 355.5,-198 355.5,-198 349.5,-198 343.5,-192 343.5,-186 343.5,-186 343.5,-172 343.5,-172 343.5,-166 349.5,-160 355.5,-160 355.5,-160 483.5,-160 483.5,-160 489.5,-160 495.5,-166 495.5,-172 495.5,-172 495.5,-186 495.5,-186 495.5,-192 489.5,-198 483.5,-198"/>
<text text-anchor="middle" x="419.5" y="-182.8" font-family="Arial" font-size="14.00">Generate COFF call</text>
<text text-anchor="middle" x="419.5" y="-167.8" font-family="Arial" font-size="14.00">Set x30 via linker_load</text>
</g>
<!-- check_callee_value&#45;&gt;handle_coff -->
<g id="edge15" class="edge">
<title>check_callee_value&#45;&gt;handle_coff</title>
<path fill="none" stroke="black" d="M484.11,-248.6C472.49,-236.26 456.7,-219.49 443.64,-205.63"/>
<polygon fill="black" stroke="black" points="446.11,-203.15 436.71,-198.27 441.01,-207.95 446.11,-203.15"/>
<text text-anchor="middle" x="486.5" y="-219.8" font-family="Arial" font-size="14.00">COFF</text>
</g>
<!-- handle_plan9 -->
<g id="node16" class="node">
<title>handle_plan9</title>
<path fill="none" stroke="black" d="M639,-198C639,-198 526,-198 526,-198 520,-198 514,-192 514,-186 514,-186 514,-172 514,-172 514,-166 520,-160 526,-160 526,-160 639,-160 639,-160 645,-160 651,-166 651,-172 651,-172 651,-186 651,-186 651,-192 645,-198 639,-198"/>
<text text-anchor="middle" x="582.5" y="-182.8" font-family="Arial" font-size="14.00">Generate Plan9 call</text>
<text text-anchor="middle" x="582.5" y="-167.8" font-family="Arial" font-size="14.00">Set x30 via memory</text>
</g>
<!-- check_callee_value&#45;&gt;handle_plan9 -->
<g id="edge16" class="edge">
<title>check_callee_value&#45;&gt;handle_plan9</title>
<path fill="none" stroke="black" d="M517.09,-248.6C528.86,-236.26 544.84,-219.49 558.07,-205.63"/>
<polygon fill="black" stroke="black" points="560.71,-207.92 565.08,-198.27 555.65,-203.09 560.71,-207.92"/>
<text text-anchor="middle" x="563" y="-219.8" font-family="Arial" font-size="14.00">Plan9</text>
</g>
<!-- handle_extern -->
<g id="node17" class="node">
<title>handle_extern</title>
<path fill="none" stroke="black" d="M809.5,-198C809.5,-198 681.5,-198 681.5,-198 675.5,-198 669.5,-192 669.5,-186 669.5,-186 669.5,-172 669.5,-172 669.5,-166 675.5,-160 681.5,-160 681.5,-160 809.5,-160 809.5,-160 815.5,-160 821.5,-166 821.5,-172 821.5,-172 821.5,-186 821.5,-186 821.5,-192 815.5,-198 809.5,-198"/>
<text text-anchor="middle" x="745.5" y="-182.8" font-family="Arial" font-size="14.00">Handle extern function</text>
<text text-anchor="middle" x="745.5" y="-167.8" font-family="Arial" font-size="14.00">Load symbol and BLR</text>
</g>
<!-- check_callee_value&#45;&gt;handle_extern -->
<g id="edge17" class="edge">
<title>check_callee_value&#45;&gt;handle_extern</title>
<path fill="none" stroke="black" d="M549.2,-248.91C588.04,-235.27 642.66,-216.1 684.42,-201.44"/>
<polygon fill="black" stroke="black" points="685.66,-204.71 693.94,-198.1 683.34,-198.11 685.66,-204.71"/>
<text text-anchor="middle" x="657.5" y="-219.8" font-family="Arial" font-size="14.00">Extern</text>
</g>
<!-- handle_pointer -->
<g id="node18" class="node">
<title>handle_pointer</title>
<path fill="none" stroke="black" d="M983,-198C983,-198 852,-198 852,-198 846,-198 840,-192 840,-186 840,-186 840,-172 840,-172 840,-166 846,-160 852,-160 852,-160 983,-160 983,-160 989,-160 995,-166 995,-172 995,-172 995,-186 995,-186 995,-192 989,-198 983,-198"/>
<text text-anchor="middle" x="917.5" y="-182.8" font-family="Arial" font-size="14.00">Handle function pointer</text>
<text text-anchor="middle" x="917.5" y="-167.8" font-family="Arial" font-size="14.00">Set x30 and BLR</text>
</g>
<!-- check_callee_value&#45;&gt;handle_pointer -->
<g id="edge18" class="edge">
<title>check_callee_value&#45;&gt;handle_pointer</title>
<path fill="none" stroke="black" d="M582.57,-250.52C613.6,-244.57 649.2,-237.61 681.5,-231 730.75,-220.92 785.65,-209.09 830.1,-199.36"/>
<polygon fill="black" stroke="black" points="830.98,-202.75 840,-197.19 829.48,-195.92 830.98,-202.75"/>
<text text-anchor="middle" x="774" y="-219.8" font-family="Arial" font-size="14.00">Pointer</text>
</g>
<!-- determine_result -->
<g id="node19" class="node">
<title>determine_result</title>
<path fill="none" stroke="black" d="M758.5,-123C758.5,-123 568.5,-123 568.5,-123 562.5,-123 556.5,-117 556.5,-111 556.5,-111 556.5,-99 556.5,-99 556.5,-93 562.5,-87 568.5,-87 568.5,-87 758.5,-87 758.5,-87 764.5,-87 770.5,-93 770.5,-99 770.5,-99 770.5,-111 770.5,-111 770.5,-117 764.5,-123 758.5,-123"/>
<text text-anchor="middle" x="663.5" y="-101.3" font-family="Arial" font-size="14.00">Determine return value MCValue</text>
</g>
<!-- handle_coff&#45;&gt;determine_result -->
<g id="edge19" class="edge">
<title>handle_coff&#45;&gt;determine_result</title>
<path fill="none" stroke="black" d="M480.76,-159.92C515.73,-149.61 559.63,-136.65 595.64,-126.02"/>
<polygon fill="black" stroke="black" points="596.98,-129.28 605.58,-123.09 595,-122.57 596.98,-129.28"/>
</g>
<!-- handle_plan9&#45;&gt;determine_result -->
<g id="edge20" class="edge">
<title>handle_plan9&#45;&gt;determine_result</title>
<path fill="none" stroke="black" d="M602.94,-159.83C613.12,-150.78 625.57,-139.72 636.52,-129.98"/>
<polygon fill="black" stroke="black" points="639.03,-132.43 644.18,-123.17 634.38,-127.2 639.03,-132.43"/>
</g>
<!-- handle_extern&#45;&gt;determine_result -->
<g id="edge21" class="edge">
<title>handle_extern&#45;&gt;determine_result</title>
<path fill="none" stroke="black" d="M724.81,-159.83C714.5,-150.78 701.9,-139.72 690.81,-129.98"/>
<polygon fill="black" stroke="black" points="692.88,-127.14 683.06,-123.17 688.26,-132.4 692.88,-127.14"/>
</g>
<!-- handle_pointer&#45;&gt;determine_result -->
<g id="edge22" class="edge">
<title>handle_pointer&#45;&gt;determine_result</title>
<path fill="none" stroke="black" d="M853.73,-159.92C817.18,-149.56 771.23,-136.54 733.66,-125.89"/>
<polygon fill="black" stroke="black" points="734.37,-122.45 723.8,-123.09 732.46,-129.19 734.37,-122.45"/>
</g>
<!-- finish_air -->
<g id="node20" class="node">
<title>finish_air</title>
<path fill="none" stroke="black" d="M626,-36C626,-36 523,-36 523,-36 517,-36 511,-30 511,-24 511,-24 511,-12 511,-12 511,-6 517,0 523,0 523,0 626,0 626,0 632,0 638,-6 638,-12 638,-12 638,-24 638,-24 638,-30 632,-36 626,-36"/>
<text text-anchor="middle" x="574.5" y="-14.3" font-family="Arial" font-size="14.00">FinishAir with args</text>
</g>
<!-- determine_result&#45;&gt;finish_air -->
<g id="edge23" class="edge">
<title>determine_result&#45;&gt;finish_air</title>
<path fill="none" stroke="black" d="M595.47,-86.9C587.65,-82.29 580.65,-76.43 575.5,-69 570.96,-62.45 569.55,-54.17 569.6,-46.24"/>
<polygon fill="black" stroke="black" points="573.1,-46.44 570.38,-36.2 566.12,-45.9 573.1,-46.44"/>
<text text-anchor="middle" x="653" y="-57.8" font-family="Arial" font-size="14.00">Args+1 &lt;= Liveness.bpi&#45;1</text>
</g>
<!-- iterate_bigtomb -->
<g id="node21" class="node">
<title>iterate_bigtomb</title>
<path fill="none" stroke="black" d="M823.5,-36C823.5,-36 681.5,-36 681.5,-36 675.5,-36 669.5,-30 669.5,-24 669.5,-24 669.5,-12 669.5,-12 669.5,-6 675.5,0 681.5,0 681.5,0 823.5,0 823.5,0 829.5,0 835.5,-6 835.5,-12 835.5,-12 835.5,-24 835.5,-24 835.5,-30 829.5,-36 823.5,-36"/>
<text text-anchor="middle" x="752.5" y="-14.3" font-family="Arial" font-size="14.00">IterateBigTomb with args</text>
</g>
<!-- determine_result&#45;&gt;iterate_bigtomb -->
<g id="edge24" class="edge">
<title>determine_result&#45;&gt;iterate_bigtomb</title>
<path fill="none" stroke="black" d="M706.88,-86.84C715.47,-82.01 723.87,-76.09 730.5,-69 736.58,-62.5 741.16,-54.05 744.52,-45.95"/>
<polygon fill="black" stroke="black" points="747.87,-46.99 748.03,-36.39 741.3,-44.57 747.87,-46.99"/>
<text text-anchor="middle" x="814" y="-57.8" font-family="Arial" font-size="14.00">Args+1 &gt; Liveness.bpi&#45;1</text>
</g>
</g>
</svg>
