<?xml version="1.0" encoding="UTF-8" standalone="no"?>
<!DOCTYPE svg PUBLIC "-//W3C//DTD SVG 1.1//EN"
 "http://www.w3.org/Graphics/SVG/1.1/DTD/svg11.dtd">
<!-- Generated by graphviz version 2.43.0 (0)
 -->
<!-- Title: flowchart Pages: 1 -->
<svg width="865pt" height="858pt"
 viewBox="0.00 0.00 865.00 858.00" xmlns="http://www.w3.org/2000/svg" xmlns:xlink="http://www.w3.org/1999/xlink">
<g id="graph0" class="graph" transform="scale(1 1) rotate(0) translate(4 854)">
<title>flowchart</title>
<polygon fill="white" stroke="transparent" points="-4,4 -4,-854 861,-854 861,4 -4,4"/>
<g id="clust1" class="cluster">
<title>cluster_128plus</title>
<polygon fill="none" stroke="black" points="8,-8 8,-366 232,-366 232,-8 8,-8"/>
<text text-anchor="middle" x="120" y="-350.8" font-family="Times,serif" font-size="14.00">处理 &gt;128位流程</text>
</g>
<g id="clust2" class="cluster">
<title>cluster_lzcnt</title>
<polygon fill="none" stroke="black" points="505,-185 505,-365 849,-365 849,-185 505,-185"/>
<text text-anchor="middle" x="677" y="-349.8" font-family="Times,serif" font-size="14.00">lzcnt 分支细节</text>
</g>
<!-- start -->
<g id="node1" class="node">
<title>start</title>
<path fill="none" stroke="black" d="M384.5,-850C384.5,-850 325.5,-850 325.5,-850 319.5,-850 313.5,-844 313.5,-838 313.5,-838 313.5,-826 313.5,-826 313.5,-820 319.5,-814 325.5,-814 325.5,-814 384.5,-814 384.5,-814 390.5,-814 396.5,-820 396.5,-826 396.5,-826 396.5,-838 396.5,-838 396.5,-844 390.5,-850 384.5,-850"/>
<text text-anchor="middle" x="355" y="-828.3" font-family="Arial" font-size="14.00">开始 airClz</text>
</g>
<!-- check_vector -->
<g id="node2" class="node">
<title>check_vector</title>
<path fill="none" stroke="black" d="M437,-777C437,-777 273,-777 273,-777 267,-777 261,-771 261,-765 261,-765 261,-753 261,-753 261,-747 267,-741 273,-741 273,-741 437,-741 437,-741 443,-741 449,-747 449,-753 449,-753 449,-765 449,-765 449,-771 443,-777 437,-777"/>
<text text-anchor="middle" x="355" y="-755.3" font-family="Arial" font-size="14.00">检查 src_ty 是否为向量类型</text>
</g>
<!-- start&#45;&gt;check_vector -->
<g id="edge1" class="edge">
<title>start&#45;&gt;check_vector</title>
<path fill="none" stroke="black" d="M355,-813.81C355,-805.79 355,-796.05 355,-787.07"/>
<polygon fill="black" stroke="black" points="358.5,-787.03 355,-777.03 351.5,-787.03 358.5,-787.03"/>
</g>
<!-- handle_vector_error -->
<g id="node3" class="node">
<title>handle_vector_error</title>
<path fill="none" stroke="black" d="M346,-690C346,-690 182,-690 182,-690 176,-690 170,-684 170,-678 170,-678 170,-666 170,-666 170,-660 176,-654 182,-654 182,-654 346,-654 346,-654 352,-654 358,-660 358,-666 358,-666 358,-678 358,-678 358,-684 352,-690 346,-690"/>
<text text-anchor="middle" x="264" y="-668.3" font-family="Arial" font-size="14.00">返回错误：未实现向量处理</text>
</g>
<!-- check_vector&#45;&gt;handle_vector_error -->
<g id="edge2" class="edge">
<title>check_vector&#45;&gt;handle_vector_error</title>
<path fill="none" stroke="black" d="M336.58,-740.8C323.14,-728.24 304.74,-711.05 289.82,-697.12"/>
<polygon fill="black" stroke="black" points="292.08,-694.44 282.39,-690.18 287.31,-699.56 292.08,-694.44"/>
<text text-anchor="middle" x="350" y="-711.8" font-family="Arial" font-size="14.00">是向量类型</text>
</g>
<!-- resolve_operand -->
<g id="node4" class="node">
<title>resolve_operand</title>
<path fill="none" stroke="black" d="M506,-690C506,-690 388,-690 388,-690 382,-690 376,-684 376,-678 376,-678 376,-666 376,-666 376,-660 382,-654 388,-654 388,-654 506,-654 506,-654 512,-654 518,-660 518,-666 518,-666 518,-678 518,-678 518,-684 512,-690 506,-690"/>
<text text-anchor="middle" x="447" y="-668.3" font-family="Arial" font-size="14.00">解析操作数 src_mcv</text>
</g>
<!-- check_vector&#45;&gt;resolve_operand -->
<g id="edge3" class="edge">
<title>check_vector&#45;&gt;resolve_operand</title>
<path fill="none" stroke="black" d="M373.62,-740.8C387.21,-728.24 405.82,-711.05 420.89,-697.12"/>
<polygon fill="black" stroke="black" points="423.44,-699.53 428.41,-690.18 418.69,-694.39 423.44,-699.53"/>
<text text-anchor="middle" x="442" y="-711.8" font-family="Arial" font-size="14.00">非向量类型</text>
</g>
<!-- finish -->
<g id="node11" class="node">
<title>finish</title>
<ellipse fill="none" stroke="black" cx="321" cy="-212" rx="81.49" ry="18"/>
<text text-anchor="middle" x="321" y="-208.3" font-family="Arial" font-size="14.00">finishAir 返回结果</text>
</g>
<!-- handle_vector_error&#45;&gt;finish -->
<g id="edge14" class="edge">
<title>handle_vector_error&#45;&gt;finish</title>
<path fill="none" stroke="black" d="M264,-653.74C264,-636.57 264,-609.46 264,-586 264,-586 264,-586 264,-315 264,-285.71 282.13,-257.02 297.94,-237.56"/>
<polygon fill="black" stroke="black" points="300.71,-239.7 304.51,-229.81 295.37,-235.17 300.71,-239.7"/>
<text text-anchor="middle" x="307" y="-464.8" font-family="Arial" font-size="14.00">直接返回错误</text>
</g>
<!-- materialize_src -->
<g id="node5" class="node">
<title>materialize_src</title>
<path fill="none" stroke="black" d="M656.5,-603C656.5,-603 463.5,-603 463.5,-603 457.5,-603 451.5,-597 451.5,-591 451.5,-591 451.5,-579 451.5,-579 451.5,-573 457.5,-567 463.5,-567 463.5,-567 656.5,-567 656.5,-567 662.5,-567 668.5,-573 668.5,-579 668.5,-579 668.5,-591 668.5,-591 668.5,-597 662.5,-603 656.5,-603"/>
<text text-anchor="middle" x="560" y="-581.3" font-family="Arial" font-size="14.00">将立即数 src_mcv 复制到寄存器</text>
</g>
<!-- resolve_operand&#45;&gt;materialize_src -->
<g id="edge4" class="edge">
<title>resolve_operand&#45;&gt;materialize_src</title>
<path fill="none" stroke="black" d="M469.87,-653.8C486.87,-641.01 510.26,-623.42 528.95,-609.36"/>
<polygon fill="black" stroke="black" points="531.28,-611.98 537.17,-603.18 527.07,-606.39 531.28,-611.98"/>
<text text-anchor="middle" x="566" y="-624.8" font-family="Arial" font-size="14.00">src_mcv 是立即数</text>
</g>
<!-- alloc_dst_reg -->
<g id="node6" class="node">
<title>alloc_dst_reg</title>
<path fill="none" stroke="black" d="M475,-530C475,-530 335,-530 335,-530 329,-530 323,-524 323,-518 323,-518 323,-506 323,-506 323,-500 329,-494 335,-494 335,-494 475,-494 475,-494 481,-494 487,-500 487,-506 487,-506 487,-518 487,-518 487,-524 481,-530 475,-530"/>
<text text-anchor="middle" x="405" y="-508.3" font-family="Arial" font-size="14.00">分配目标寄存器 dst_reg</text>
</g>
<!-- resolve_operand&#45;&gt;alloc_dst_reg -->
<g id="edge5" class="edge">
<title>resolve_operand&#45;&gt;alloc_dst_reg</title>
<path fill="none" stroke="black" d="M424.39,-653.81C410.11,-641.45 392.91,-623.41 385,-603 376.96,-582.25 383.55,-557.5 391.25,-539.21"/>
<polygon fill="black" stroke="black" points="394.47,-540.58 395.43,-530.03 388.1,-537.68 394.47,-540.58"/>
<text text-anchor="middle" x="414" y="-581.3" font-family="Arial" font-size="14.00">其他情况</text>
</g>
<!-- materialize_src&#45;&gt;alloc_dst_reg -->
<g id="edge6" class="edge">
<title>materialize_src&#45;&gt;alloc_dst_reg</title>
<path fill="none" stroke="black" d="M522.87,-566.99C501.46,-557.19 474.35,-544.77 451.52,-534.31"/>
<polygon fill="black" stroke="black" points="452.91,-531.1 442.36,-530.11 449.99,-537.46 452.91,-531.1"/>
</g>
<!-- check_src_bits_size -->
<g id="node7" class="node">
<title>check_src_bits_size</title>
<path fill="none" stroke="black" d="M456.5,-443C456.5,-443 353.5,-443 353.5,-443 347.5,-443 341.5,-437 341.5,-431 341.5,-431 341.5,-419 341.5,-419 341.5,-413 347.5,-407 353.5,-407 353.5,-407 456.5,-407 456.5,-407 462.5,-407 468.5,-413 468.5,-419 468.5,-419 468.5,-431 468.5,-431 468.5,-437 462.5,-443 456.5,-443"/>
<text text-anchor="middle" x="405" y="-421.3" font-family="Arial" font-size="14.00">检查 src_bits 大小</text>
</g>
<!-- alloc_dst_reg&#45;&gt;check_src_bits_size -->
<g id="edge7" class="edge">
<title>alloc_dst_reg&#45;&gt;check_src_bits_size</title>
<path fill="none" stroke="black" d="M405,-493.8C405,-482.16 405,-466.55 405,-453.24"/>
<polygon fill="black" stroke="black" points="408.5,-453.18 405,-443.18 401.5,-453.18 408.5,-453.18"/>
</g>
<!-- handle_128plus_bits -->
<g id="node8" class="node">
<title>handle_128plus_bits</title>
<path fill="none" stroke="black" d="M211.5,-335C211.5,-335 90.5,-335 90.5,-335 84.5,-335 78.5,-329 78.5,-323 78.5,-323 78.5,-309 78.5,-309 78.5,-303 84.5,-297 90.5,-297 90.5,-297 211.5,-297 211.5,-297 217.5,-297 223.5,-303 223.5,-309 223.5,-309 223.5,-323 223.5,-323 223.5,-329 217.5,-335 211.5,-335"/>
<text text-anchor="middle" x="151" y="-319.8" font-family="Arial" font-size="14.00">处理 &gt;128位情况</text>
<text text-anchor="middle" x="151" y="-304.8" font-family="Arial" font-size="14.00">生成循环查找前导零</text>
</g>
<!-- check_src_bits_size&#45;&gt;handle_128plus_bits -->
<g id="edge8" class="edge">
<title>check_src_bits_size&#45;&gt;handle_128plus_bits</title>
<path fill="none" stroke="black" d="M357.42,-406.98C342.48,-401.45 325.98,-395.15 311,-389 272.82,-373.32 230.24,-354.07 198.61,-339.42"/>
<polygon fill="black" stroke="black" points="199.71,-336.07 189.16,-335.03 196.76,-342.42 199.71,-336.07"/>
<text text-anchor="middle" x="353.5" y="-377.8" font-family="Arial" font-size="14.00">src_bits &gt; 128</text>
</g>
<!-- handle_lzcnt -->
<g id="node9" class="node">
<title>handle_lzcnt</title>
<path fill="none" stroke="black" d="M679.5,-334C679.5,-334 552.5,-334 552.5,-334 546.5,-334 540.5,-328 540.5,-322 540.5,-322 540.5,-310 540.5,-310 540.5,-304 546.5,-298 552.5,-298 552.5,-298 679.5,-298 679.5,-298 685.5,-298 691.5,-304 691.5,-310 691.5,-310 691.5,-322 691.5,-322 691.5,-328 685.5,-334 679.5,-334"/>
<text text-anchor="middle" x="616" y="-312.3" font-family="Arial" font-size="14.00">支持 lzcnt 指令的分支</text>
</g>
<!-- check_src_bits_size&#45;&gt;handle_lzcnt -->
<g id="edge9" class="edge">
<title>check_src_bits_size&#45;&gt;handle_lzcnt</title>
<path fill="none" stroke="black" d="M468.63,-413.87C491.44,-408.56 516.75,-400.65 538,-389 559.88,-377.01 580.44,-357.56 594.95,-341.9"/>
<polygon fill="black" stroke="black" points="597.87,-343.88 601.96,-334.11 592.67,-339.2 597.87,-343.88"/>
<text text-anchor="middle" x="631.5" y="-377.8" font-family="Arial" font-size="14.00">支持 lzcnt 且 ≤64/128位</text>
</g>
<!-- handle_bsr -->
<g id="node10" class="node">
<title>handle_bsr</title>
<path fill="none" stroke="black" d="M469.5,-334C469.5,-334 320.5,-334 320.5,-334 314.5,-334 308.5,-328 308.5,-322 308.5,-322 308.5,-310 308.5,-310 308.5,-304 314.5,-298 320.5,-298 320.5,-298 469.5,-298 469.5,-298 475.5,-298 481.5,-304 481.5,-310 481.5,-310 481.5,-322 481.5,-322 481.5,-328 475.5,-334 469.5,-334"/>
<text text-anchor="middle" x="395" y="-312.3" font-family="Arial" font-size="14.00">使用 BSR+CMOV 的分支</text>
</g>
<!-- check_src_bits_size&#45;&gt;handle_bsr -->
<g id="edge10" class="edge">
<title>check_src_bits_size&#45;&gt;handle_bsr</title>
<path fill="none" stroke="black" d="M403.39,-406.81C401.82,-389.96 399.39,-364.02 397.56,-344.34"/>
<polygon fill="black" stroke="black" points="401.02,-343.78 396.6,-334.15 394.05,-344.43 401.02,-343.78"/>
<text text-anchor="middle" x="467.5" y="-377.8" font-family="Arial" font-size="14.00">不支持 lzcnt 且 ≤64位</text>
</g>
<!-- handle_128plus_bits&#45;&gt;finish -->
<g id="edge11" class="edge">
<title>handle_128plus_bits&#45;&gt;finish</title>
<path fill="none" stroke="black" d="M149.57,-296.89C149.44,-282.07 151.81,-261.58 164,-249 165.71,-247.24 212.67,-236.6 254.79,-227.34"/>
<polygon fill="black" stroke="black" points="255.78,-230.71 264.8,-225.15 254.28,-223.87 255.78,-230.71"/>
<text text-anchor="middle" x="207" y="-267.8" font-family="Arial" font-size="14.00">生成循环代码</text>
<text text-anchor="middle" x="207" y="-252.8" font-family="Arial" font-size="14.00">计算前导零</text>
</g>
<!-- loop_start -->
<g id="node12" class="node">
<title>loop_start</title>
<path fill="none" stroke="black" d="M177.5,-231C177.5,-231 70.5,-231 70.5,-231 64.5,-231 58.5,-225 58.5,-219 58.5,-219 58.5,-205 58.5,-205 58.5,-199 64.5,-193 70.5,-193 70.5,-193 177.5,-193 177.5,-193 183.5,-193 189.5,-199 189.5,-205 189.5,-205 189.5,-219 189.5,-219 189.5,-225 183.5,-231 177.5,-231"/>
<text text-anchor="middle" x="124" y="-215.8" font-family="Arial" font-size="14.00">初始化索引寄存器</text>
<text text-anchor="middle" x="124" y="-200.8" font-family="Arial" font-size="14.00">设置初始计数</text>
</g>
<!-- handle_128plus_bits&#45;&gt;loop_start -->
<g id="edge15" class="edge">
<title>handle_128plus_bits&#45;&gt;loop_start</title>
<path fill="none" stroke="black" d="M140.45,-296.8C137.63,-291.24 134.86,-285.01 133,-279 129.29,-266.99 127.11,-253.27 125.82,-241.47"/>
<polygon fill="black" stroke="black" points="129.29,-240.91 124.88,-231.27 122.32,-241.55 129.29,-240.91"/>
</g>
<!-- handle_lzcnt&#45;&gt;finish -->
<g id="edge12" class="edge">
<title>handle_lzcnt&#45;&gt;finish</title>
<path fill="none" stroke="black" d="M540.42,-304.52C520.72,-299.18 500.43,-291.14 484,-279 471.31,-269.62 477.79,-258.24 465,-249 447.07,-236.04 424.97,-227.73 403.51,-222.4"/>
<polygon fill="black" stroke="black" points="404.25,-218.98 393.72,-220.16 402.68,-225.8 404.25,-218.98"/>
<text text-anchor="middle" x="537" y="-260.3" font-family="Arial" font-size="14.00">生成 lzcnt 指令链</text>
</g>
<!-- lzcnt_small -->
<g id="node16" class="node">
<title>lzcnt_small</title>
<path fill="none" stroke="black" d="M829,-231C829,-231 765,-231 765,-231 759,-231 753,-225 753,-219 753,-219 753,-205 753,-205 753,-199 759,-193 765,-193 765,-193 829,-193 829,-193 835,-193 841,-199 841,-205 841,-205 841,-219 841,-219 841,-225 835,-231 829,-231"/>
<text text-anchor="middle" x="797" y="-215.8" font-family="Arial" font-size="14.00">处理 ≤8位</text>
<text text-anchor="middle" x="797" y="-200.8" font-family="Arial" font-size="14.00">扩展寄存器</text>
</g>
<!-- handle_lzcnt&#45;&gt;lzcnt_small -->
<g id="edge20" class="edge">
<title>handle_lzcnt&#45;&gt;lzcnt_small</title>
<path fill="none" stroke="black" d="M670.1,-297.96C684.12,-292.68 698.95,-286.29 712,-279 732.56,-267.52 753.47,-251.34 769.41,-237.88"/>
<polygon fill="black" stroke="black" points="771.97,-240.3 777.27,-231.13 767.4,-234.99 771.97,-240.3"/>
<text text-anchor="middle" x="770" y="-260.3" font-family="Arial" font-size="14.00">≤8位</text>
</g>
<!-- lzcnt_medium -->
<g id="node17" class="node">
<title>lzcnt_medium</title>
<path fill="none" stroke="black" d="M587,-231C587,-231 525,-231 525,-231 519,-231 513,-225 513,-219 513,-219 513,-205 513,-205 513,-199 519,-193 525,-193 525,-193 587,-193 587,-193 593,-193 599,-199 599,-205 599,-205 599,-219 599,-219 599,-225 593,-231 587,-231"/>
<text text-anchor="middle" x="556" y="-215.8" font-family="Arial" font-size="14.00">处理 ≤64位</text>
<text text-anchor="middle" x="556" y="-200.8" font-family="Arial" font-size="14.00">直接 lzcnt</text>
</g>
<!-- handle_lzcnt&#45;&gt;lzcnt_medium -->
<g id="edge21" class="edge">
<title>handle_lzcnt&#45;&gt;lzcnt_medium</title>
<path fill="none" stroke="black" d="M612.68,-297.72C609.46,-283.78 603.6,-264.08 594,-249 591.69,-245.38 588.94,-241.87 585.99,-238.55"/>
<polygon fill="black" stroke="black" points="588.33,-235.93 578.86,-231.2 583.31,-240.81 588.33,-235.93"/>
<text text-anchor="middle" x="625.5" y="-260.3" font-family="Arial" font-size="14.00">≤64位</text>
</g>
<!-- lzcnt_large -->
<g id="node18" class="node">
<title>lzcnt_large</title>
<path fill="none" stroke="black" d="M722.5,-231C722.5,-231 629.5,-231 629.5,-231 623.5,-231 617.5,-225 617.5,-219 617.5,-219 617.5,-205 617.5,-205 617.5,-199 623.5,-193 629.5,-193 629.5,-193 722.5,-193 722.5,-193 728.5,-193 734.5,-199 734.5,-205 734.5,-205 734.5,-219 734.5,-219 734.5,-225 728.5,-231 722.5,-231"/>
<text text-anchor="middle" x="676" y="-215.8" font-family="Arial" font-size="14.00">处理 128位</text>
<text text-anchor="middle" x="676" y="-200.8" font-family="Arial" font-size="14.00">分高低64位计算</text>
</g>
<!-- handle_lzcnt&#45;&gt;lzcnt_large -->
<g id="edge22" class="edge">
<title>handle_lzcnt&#45;&gt;lzcnt_large</title>
<path fill="none" stroke="black" d="M633.18,-297.98C638.37,-292.26 643.8,-285.64 648,-279 655.48,-267.17 661.8,-252.99 666.52,-240.81"/>
<polygon fill="black" stroke="black" points="669.91,-241.74 670.11,-231.15 663.35,-239.3 669.91,-241.74"/>
<text text-anchor="middle" x="685.5" y="-260.3" font-family="Arial" font-size="14.00">≤128位</text>
</g>
<!-- handle_bsr&#45;&gt;finish -->
<g id="edge13" class="edge">
<title>handle_bsr&#45;&gt;finish</title>
<path fill="none" stroke="black" d="M328.83,-297.85C320.62,-293.04 313.27,-286.88 308,-279 300.24,-267.39 302.56,-252.24 307.24,-239.38"/>
<polygon fill="black" stroke="black" points="310.5,-240.66 311.15,-230.09 304.05,-237.94 310.5,-240.66"/>
<text text-anchor="middle" x="386.5" y="-260.3" font-family="Arial" font-size="14.00">生成 BSR+CMOV 指令链</text>
</g>
<!-- loop_test -->
<g id="node13" class="node">
<title>loop_test</title>
<path fill="none" stroke="black" d="M154,-156C154,-156 62,-156 62,-156 56,-156 50,-150 50,-144 50,-144 50,-132 50,-132 50,-126 56,-120 62,-120 62,-120 154,-120 154,-120 160,-120 166,-126 166,-132 166,-132 166,-144 166,-144 166,-150 160,-156 154,-156"/>
<text text-anchor="middle" x="108" y="-134.3" font-family="Arial" font-size="14.00">测试索引寄存器</text>
</g>
<!-- loop_start&#45;&gt;loop_test -->
<g id="edge16" class="edge">
<title>loop_start&#45;&gt;loop_test</title>
<path fill="none" stroke="black" d="M119.96,-192.83C118.18,-184.81 116.04,-175.2 114.08,-166.34"/>
<polygon fill="black" stroke="black" points="117.46,-165.42 111.87,-156.42 110.62,-166.94 117.46,-165.42"/>
</g>
<!-- loop_body -->
<g id="node14" class="node">
<title>loop_body</title>
<path fill="none" stroke="black" d="M92,-69C92,-69 28,-69 28,-69 22,-69 16,-63 16,-57 16,-57 16,-28 16,-28 16,-22 22,-16 28,-16 28,-16 92,-16 92,-16 98,-16 104,-22 104,-28 104,-28 104,-57 104,-57 104,-63 98,-69 92,-69"/>
<text text-anchor="middle" x="60" y="-53.8" font-family="Arial" font-size="14.00">递减索引</text>
<text text-anchor="middle" x="60" y="-38.8" font-family="Arial" font-size="14.00">比较内存值</text>
<text text-anchor="middle" x="60" y="-23.8" font-family="Arial" font-size="14.00">跳转循环</text>
</g>
<!-- loop_test&#45;&gt;loop_body -->
<g id="edge17" class="edge">
<title>loop_test&#45;&gt;loop_body</title>
<path fill="none" stroke="black" d="M81.24,-119.99C75.28,-114.93 69.66,-108.87 66,-102 62.33,-95.11 60.32,-87.11 59.3,-79.29"/>
<polygon fill="black" stroke="black" points="62.78,-78.89 58.48,-69.21 55.8,-79.46 62.78,-78.89"/>
<text text-anchor="middle" x="80.5" y="-90.8" font-family="Arial" font-size="14.00">非零</text>
</g>
<!-- loop_end -->
<g id="node15" class="node">
<title>loop_end</title>
<path fill="none" stroke="black" d="M212,-61.5C212,-61.5 134,-61.5 134,-61.5 128,-61.5 122,-55.5 122,-49.5 122,-49.5 122,-35.5 122,-35.5 122,-29.5 128,-23.5 134,-23.5 134,-23.5 212,-23.5 212,-23.5 218,-23.5 224,-29.5 224,-35.5 224,-35.5 224,-49.5 224,-49.5 224,-55.5 218,-61.5 212,-61.5"/>
<text text-anchor="middle" x="173" y="-46.3" font-family="Arial" font-size="14.00">找到非零值</text>
<text text-anchor="middle" x="173" y="-31.3" font-family="Arial" font-size="14.00">计算最终结果</text>
</g>
<!-- loop_test&#45;&gt;loop_end -->
<g id="edge19" class="edge">
<title>loop_test&#45;&gt;loop_end</title>
<path fill="none" stroke="black" d="M119.92,-119.85C129.57,-105.97 143.33,-86.18 154.42,-70.23"/>
<polygon fill="black" stroke="black" points="157.43,-72.03 160.26,-61.82 151.68,-68.03 157.43,-72.03"/>
<text text-anchor="middle" x="157.5" y="-90.8" font-family="Arial" font-size="14.00">为零</text>
</g>
<!-- loop_body&#45;&gt;loop_test -->
<g id="edge18" class="edge">
<title>loop_body&#45;&gt;loop_test</title>
<path fill="none" stroke="black" d="M83.75,-69.42C87.95,-74.94 91.95,-80.94 95,-87 98.55,-94.05 101.19,-102.16 103.13,-109.77"/>
<polygon fill="black" stroke="black" points="99.76,-110.71 105.37,-119.69 106.59,-109.17 99.76,-110.71"/>
</g>
</g>
</svg>
