<?xml version="1.0" encoding="UTF-8" standalone="no"?>
<!DOCTYPE svg PUBLIC "-//W3C//DTD SVG 1.1//EN"
 "http://www.w3.org/Graphics/SVG/1.1/DTD/svg11.dtd">
<!-- Generated by graphviz version 2.43.0 (0)
 -->
<!-- Title: flowchart Pages: 1 -->
<svg width="557pt" height="667pt"
 viewBox="0.00 0.00 557.00 667.00" xmlns="http://www.w3.org/2000/svg" xmlns:xlink="http://www.w3.org/1999/xlink">
<g id="graph0" class="graph" transform="scale(1 1) rotate(0) translate(4 663)">
<title>flowchart</title>
<polygon fill="white" stroke="transparent" points="-4,4 -4,-663 553,-663 553,4 -4,4"/>
<!-- start -->
<g id="node1" class="node">
<title>start</title>
<path fill="none" stroke="black" d="M211,-659C211,-659 74,-659 74,-659 68,-659 62,-653 62,-647 62,-647 62,-635 62,-635 62,-629 68,-623 74,-623 74,-623 211,-623 211,-623 217,-623 223,-629 223,-635 223,-635 223,-647 223,-647 223,-653 217,-659 211,-659"/>
<text text-anchor="middle" x="142.5" y="-637.3" font-family="Arial" font-size="14.00">开始 generic(lower, inst)</text>
</g>
<!-- set_eval -->
<g id="node2" class="node">
<title>set_eval</title>
<path fill="none" stroke="black" d="M227.5,-586C227.5,-586 57.5,-586 57.5,-586 51.5,-586 45.5,-580 45.5,-574 45.5,-574 45.5,-562 45.5,-562 45.5,-556 51.5,-550 57.5,-550 57.5,-550 227.5,-550 227.5,-550 233.5,-550 239.5,-556 239.5,-562 239.5,-562 239.5,-574 239.5,-574 239.5,-580 233.5,-586 227.5,-586"/>
<text text-anchor="middle" x="142.5" y="-564.3" font-family="Arial" font-size="14.00">@setEvalBranchQuota(2500)</text>
</g>
<!-- start&#45;&gt;set_eval -->
<g id="edge1" class="edge">
<title>start&#45;&gt;set_eval</title>
<path fill="none" stroke="black" d="M142.5,-622.81C142.5,-614.79 142.5,-605.05 142.5,-596.07"/>
<polygon fill="black" stroke="black" points="146,-596.03 142.5,-586.03 139,-596.03 146,-596.03"/>
</g>
<!-- switch_ops_fixes -->
<g id="node3" class="node">
<title>switch_ops_fixes</title>
<path fill="none" stroke="black" d="M217,-513C217,-513 68,-513 68,-513 62,-513 56,-507 56,-501 56,-501 56,-489 56,-489 56,-483 62,-477 68,-477 68,-477 217,-477 217,-477 223,-477 229,-483 229,-489 229,-489 229,-501 229,-501 229,-507 223,-513 217,-513"/>
<text text-anchor="middle" x="142.5" y="-491.3" font-family="Arial" font-size="14.00">switch(inst.ops) 获取 fixes</text>
</g>
<!-- set_eval&#45;&gt;switch_ops_fixes -->
<g id="edge2" class="edge">
<title>set_eval&#45;&gt;switch_ops_fixes</title>
<path fill="none" stroke="black" d="M142.5,-549.81C142.5,-541.79 142.5,-532.05 142.5,-523.07"/>
<polygon fill="black" stroke="black" points="146,-523.03 142.5,-513.03 139,-523.03 146,-523.03"/>
</g>
<!-- handle_else_fixes -->
<g id="node4" class="node">
<title>handle_else_fixes</title>
<path fill="none" stroke="black" d="M169,-372C169,-372 12,-372 12,-372 6,-372 0,-366 0,-360 0,-360 0,-348 0,-348 0,-342 6,-336 12,-336 12,-336 169,-336 169,-336 175,-336 181,-342 181,-348 181,-348 181,-360 181,-360 181,-366 175,-372 169,-372"/>
<text text-anchor="middle" x="90.5" y="-350.3" font-family="Arial" font-size="14.00">返回错误: TODO lower .{s}</text>
</g>
<!-- switch_ops_fixes&#45;&gt;handle_else_fixes -->
<g id="edge3" class="edge">
<title>switch_ops_fixes&#45;&gt;handle_else_fixes</title>
<path fill="none" stroke="black" d="M104.18,-476.82C97.49,-472.04 91.42,-466.14 87.5,-459 74.52,-435.35 77.7,-403.9 82.61,-381.8"/>
<polygon fill="black" stroke="black" points="86.02,-382.62 85.02,-372.07 79.22,-380.94 86.02,-382.62"/>
<text text-anchor="middle" x="128.5" y="-447.8" font-family="Arial" font-size="14.00">else/未知 ops</text>
</g>
<!-- handle_fixes_prefix -->
<g id="node5" class="node">
<title>handle_fixes_prefix</title>
<path fill="none" stroke="black" d="M252,-426C252,-426 139,-426 139,-426 133,-426 127,-420 127,-414 127,-414 127,-402 127,-402 127,-396 133,-390 139,-390 139,-390 252,-390 252,-390 258,-390 264,-396 264,-402 264,-402 264,-414 264,-414 264,-420 258,-426 252,-426"/>
<text text-anchor="middle" x="195.5" y="-404.3" font-family="Arial" font-size="14.00">处理 fixes 生成前缀</text>
</g>
<!-- switch_ops_fixes&#45;&gt;handle_fixes_prefix -->
<g id="edge4" class="edge">
<title>switch_ops_fixes&#45;&gt;handle_fixes_prefix</title>
<path fill="none" stroke="black" d="M159.73,-476.7C164.56,-471.3 169.56,-465.15 173.5,-459 178.1,-451.81 182.19,-443.5 185.55,-435.74"/>
<polygon fill="black" stroke="black" points="188.85,-436.91 189.41,-426.33 182.38,-434.26 188.85,-436.91"/>
<text text-anchor="middle" x="208.5" y="-447.8" font-family="Arial" font-size="14.00">有效 ops</text>
</g>
<!-- end -->
<g id="node11" class="node">
<title>end</title>
<path fill="none" stroke="black" d="M205.5,-36C205.5,-36 175.5,-36 175.5,-36 169.5,-36 163.5,-30 163.5,-24 163.5,-24 163.5,-12 163.5,-12 163.5,-6 169.5,0 175.5,0 175.5,0 205.5,0 205.5,0 211.5,0 217.5,-6 217.5,-12 217.5,-12 217.5,-24 217.5,-24 217.5,-30 211.5,-36 205.5,-36"/>
<text text-anchor="middle" x="190.5" y="-14.3" font-family="Arial" font-size="14.00">结束</text>
</g>
<!-- handle_else_fixes&#45;&gt;end -->
<g id="edge11" class="edge">
<title>handle_else_fixes&#45;&gt;end</title>
<path fill="none" stroke="black" d="M90.5,-335.75C90.5,-316.62 90.5,-284.86 90.5,-257.5 90.5,-257.5 90.5,-257.5 90.5,-104 90.5,-69.51 125.47,-46.08 154.05,-32.7"/>
<polygon fill="black" stroke="black" points="155.71,-35.79 163.44,-28.55 152.88,-29.39 155.71,-35.79"/>
<text text-anchor="middle" x="119.5" y="-209.3" font-family="Arial" font-size="14.00">错误返回</text>
</g>
<!-- generate_mnemonic -->
<g id="node6" class="node">
<title>generate_mnemonic</title>
<path fill="none" stroke="black" d="M228.5,-318C228.5,-318 164.5,-318 164.5,-318 158.5,-318 152.5,-312 152.5,-306 152.5,-306 152.5,-294 152.5,-294 152.5,-288 158.5,-282 164.5,-282 164.5,-282 228.5,-282 228.5,-282 234.5,-282 240.5,-288 240.5,-294 240.5,-294 240.5,-306 240.5,-306 240.5,-312 234.5,-318 228.5,-318"/>
<text text-anchor="middle" x="196.5" y="-296.3" font-family="Arial" font-size="14.00">生成助记符</text>
</g>
<!-- handle_fixes_prefix&#45;&gt;generate_mnemonic -->
<g id="edge5" class="edge">
<title>handle_fixes_prefix&#45;&gt;generate_mnemonic</title>
<path fill="none" stroke="black" d="M195.66,-389.97C195.82,-373.38 196.06,-347.88 196.24,-328.43"/>
<polygon fill="black" stroke="black" points="199.74,-328.37 196.34,-318.34 192.74,-328.31 199.74,-328.37"/>
</g>
<!-- mnemonic_error -->
<g id="node7" class="node">
<title>mnemonic_error</title>
<path fill="none" stroke="black" d="M275,-177C275,-177 118,-177 118,-177 112,-177 106,-171 106,-165 106,-165 106,-153 106,-153 106,-147 112,-141 118,-141 118,-141 275,-141 275,-141 281,-141 287,-147 287,-153 287,-153 287,-165 287,-165 287,-171 281,-177 275,-177"/>
<text text-anchor="middle" x="196.5" y="-155.3" font-family="Arial" font-size="14.00">返回错误: 不支持的助记符</text>
</g>
<!-- generate_mnemonic&#45;&gt;mnemonic_error -->
<g id="edge6" class="edge">
<title>generate_mnemonic&#45;&gt;mnemonic_error</title>
<path fill="none" stroke="black" d="M194.74,-281.93C194.23,-276.23 193.75,-269.85 193.5,-264 192.39,-238.03 193.48,-208.39 194.64,-187.42"/>
<polygon fill="black" stroke="black" points="198.14,-187.49 195.24,-177.3 191.15,-187.08 198.14,-187.49"/>
<text text-anchor="middle" x="243.5" y="-252.8" font-family="Arial" font-size="14.00">无法解析助记符</text>
</g>
<!-- switch_ops_operands -->
<g id="node8" class="node">
<title>switch_ops_operands</title>
<path fill="none" stroke="black" d="M400,-231C400,-231 239,-231 239,-231 233,-231 227,-225 227,-219 227,-219 227,-207 227,-207 227,-201 233,-195 239,-195 239,-195 400,-195 400,-195 406,-195 412,-201 412,-207 412,-207 412,-219 412,-219 412,-225 406,-231 400,-231"/>
<text text-anchor="middle" x="319.5" y="-209.3" font-family="Arial" font-size="14.00">switch(inst.ops) 生成操作数</text>
</g>
<!-- generate_mnemonic&#45;&gt;switch_ops_operands -->
<g id="edge7" class="edge">
<title>generate_mnemonic&#45;&gt;switch_ops_operands</title>
<path fill="none" stroke="black" d="M240.64,-291.94C260.03,-286.93 281.88,-278.4 297.5,-264 304.21,-257.81 308.99,-249.2 312.34,-240.87"/>
<polygon fill="black" stroke="black" points="315.66,-241.97 315.64,-231.37 309.05,-239.67 315.66,-241.97"/>
<text text-anchor="middle" x="336.5" y="-252.8" font-family="Arial" font-size="14.00">成功生成</text>
</g>
<!-- mnemonic_error&#45;&gt;end -->
<g id="edge12" class="edge">
<title>mnemonic_error&#45;&gt;end</title>
<path fill="none" stroke="black" d="M163.95,-140.79C157.73,-135.91 152.05,-129.99 148.5,-123 135.26,-96.95 151.97,-65.7 168.08,-44.3"/>
<polygon fill="black" stroke="black" points="170.92,-46.35 174.39,-36.33 165.43,-42 170.92,-46.35"/>
<text text-anchor="middle" x="177.5" y="-101.3" font-family="Arial" font-size="14.00">错误返回</text>
</g>
<!-- handle_else_operands -->
<g id="node9" class="node">
<title>handle_else_operands</title>
<path fill="none" stroke="black" d="M400,-123C400,-123 227,-123 227,-123 221,-123 215,-117 215,-111 215,-111 215,-99 215,-99 215,-93 221,-87 227,-87 227,-87 400,-87 400,-87 406,-87 412,-93 412,-99 412,-99 412,-111 412,-111 412,-117 406,-123 400,-123"/>
<text text-anchor="middle" x="313.5" y="-101.3" font-family="Arial" font-size="14.00">返回错误: TODO lower {s} {s}</text>
</g>
<!-- switch_ops_operands&#45;&gt;handle_else_operands -->
<g id="edge8" class="edge">
<title>switch_ops_operands&#45;&gt;handle_else_operands</title>
<path fill="none" stroke="black" d="M318.54,-194.97C317.6,-178.38 316.15,-152.88 315.05,-133.43"/>
<polygon fill="black" stroke="black" points="318.54,-133.13 314.48,-123.34 311.55,-133.52 318.54,-133.13"/>
<text text-anchor="middle" x="357.5" y="-155.3" font-family="Arial" font-size="14.00">else/未知 ops</text>
</g>
<!-- emit -->
<g id="node10" class="node">
<title>emit</title>
<path fill="none" stroke="black" d="M537,-123C537,-123 442,-123 442,-123 436,-123 430,-117 430,-111 430,-111 430,-99 430,-99 430,-93 436,-87 442,-87 442,-87 537,-87 537,-87 543,-87 549,-93 549,-99 549,-99 549,-111 549,-111 549,-117 543,-123 537,-123"/>
<text text-anchor="middle" x="489.5" y="-101.3" font-family="Arial" font-size="14.00">调用 lower.emit()</text>
</g>
<!-- switch_ops_operands&#45;&gt;emit -->
<g id="edge9" class="edge">
<title>switch_ops_operands&#45;&gt;emit</title>
<path fill="none" stroke="black" d="M366.75,-194.82C378.74,-189.73 391.38,-183.69 402.5,-177 424.75,-163.61 447.4,-144.93 464.01,-130.09"/>
<polygon fill="black" stroke="black" points="466.6,-132.47 471.65,-123.16 461.89,-127.29 466.6,-132.47"/>
<text text-anchor="middle" x="475.5" y="-155.3" font-family="Arial" font-size="14.00">有效 ops</text>
</g>
<!-- handle_else_operands&#45;&gt;end -->
<g id="edge13" class="edge">
<title>handle_else_operands&#45;&gt;end</title>
<path fill="none" stroke="black" d="M288.61,-86.8C269.94,-73.9 244.19,-56.1 223.75,-41.98"/>
<polygon fill="black" stroke="black" points="225.57,-38.98 215.35,-36.18 221.59,-44.74 225.57,-38.98"/>
<text text-anchor="middle" x="287.5" y="-57.8" font-family="Arial" font-size="14.00">错误返回</text>
</g>
<!-- emit&#45;&gt;end -->
<g id="edge10" class="edge">
<title>emit&#45;&gt;end</title>
<path fill="none" stroke="black" d="M433.27,-86.99C400.44,-77.15 358.19,-64.65 320.5,-54 289.23,-45.16 253.57,-35.6 227.53,-28.71"/>
<polygon fill="black" stroke="black" points="228.26,-25.28 217.69,-26.11 226.47,-32.05 228.26,-25.28"/>
</g>
</g>
</svg>
