<?xml version="1.0" encoding="UTF-8" standalone="no"?>
<!DOCTYPE svg PUBLIC "-//W3C//DTD SVG 1.1//EN"
 "http://www.w3.org/Graphics/SVG/1.1/DTD/svg11.dtd">
<!-- Generated by graphviz version 2.43.0 (0)
 -->
<!-- Title: flowchart Pages: 1 -->
<svg width="1029pt" height="1491pt"
 viewBox="0.00 0.00 1028.50 1491.48" xmlns="http://www.w3.org/2000/svg" xmlns:xlink="http://www.w3.org/1999/xlink">
<g id="graph0" class="graph" transform="scale(1 1) rotate(0) translate(4 1487.48)">
<title>flowchart</title>
<polygon fill="white" stroke="transparent" points="-4,4 -4,-1487.48 1024.5,-1487.48 1024.5,4 -4,4"/>
<g id="clust1" class="cluster">
<title>cluster_16bit</title>
<polygon fill="lightgrey" stroke="lightgrey" points="355.5,-155.74 355.5,-668.74 677.5,-668.74 677.5,-155.74 355.5,-155.74"/>
<text text-anchor="middle" x="516.5" y="-653.54" font-family="Times,serif" font-size="14.00">16 位处理逻辑</text>
</g>
<g id="clust2" class="cluster">
<title>cluster_32bit</title>
<polygon fill="lightgrey" stroke="lightgrey" points="690.5,-155.74 690.5,-835.74 1012.5,-835.74 1012.5,-155.74 690.5,-155.74"/>
<text text-anchor="middle" x="851.5" y="-820.54" font-family="Times,serif" font-size="14.00">32 位处理逻辑</text>
</g>
<!-- start -->
<g id="node1" class="node">
<title>start</title>
<ellipse fill="none" stroke="black" cx="149.5" cy="-1465.48" rx="120.48" ry="18"/>
<text text-anchor="middle" x="149.5" y="-1461.78" font-family="Helvetica,sans-Serif" font-size="14.00">开始 airMulWithOverflow</text>
</g>
<!-- check_unused -->
<g id="node2" class="node">
<title>check_unused</title>
<path fill="none" stroke="black" d="M287,-1410.48C287,-1410.48 12,-1410.48 12,-1410.48 6,-1410.48 0,-1404.48 0,-1398.48 0,-1398.48 0,-1386.48 0,-1386.48 0,-1380.48 6,-1374.48 12,-1374.48 12,-1374.48 287,-1374.48 287,-1374.48 293,-1374.48 299,-1380.48 299,-1386.48 299,-1386.48 299,-1398.48 299,-1398.48 299,-1404.48 293,-1410.48 287,-1410.48"/>
<text text-anchor="middle" x="149.5" y="-1388.78" font-family="Helvetica,sans-Serif" font-size="14.00">检查指令是否未被使用 (liveness.isUnused)</text>
</g>
<!-- start&#45;&gt;check_unused -->
<g id="edge1" class="edge">
<title>start&#45;&gt;check_unused</title>
<path fill="none" stroke="black" d="M149.5,-1447.29C149.5,-1439.27 149.5,-1429.53 149.5,-1420.55"/>
<polygon fill="black" stroke="black" points="153,-1420.51 149.5,-1410.51 146,-1420.51 153,-1420.51"/>
</g>
<!-- return_dead -->
<g id="node3" class="node">
<title>return_dead</title>
<ellipse fill="none" stroke="black" cx="130.5" cy="-1296.61" rx="127.97" ry="26.74"/>
<text text-anchor="middle" x="130.5" y="-1300.41" font-family="Helvetica,sans-Serif" font-size="14.00">返回 .dead</text>
<text text-anchor="middle" x="130.5" y="-1285.41" font-family="Helvetica,sans-Serif" font-size="14.00">finishAir(inst, .dead, ...)</text>
</g>
<!-- check_unused&#45;&gt;return_dead -->
<g id="edge2" class="edge">
<title>check_unused&#45;&gt;return_dead</title>
<path fill="none" stroke="black" d="M146.02,-1374.26C143.7,-1362.85 140.59,-1347.45 137.75,-1333.45"/>
<polygon fill="black" stroke="black" points="141.17,-1332.69 135.76,-1323.58 134.31,-1334.07 141.17,-1332.69"/>
<text text-anchor="middle" x="150" y="-1345.28" font-family="Helvetica,sans-Serif" font-size="14.00">是</text>
</g>
<!-- get_ty_pl -->
<g id="node4" class="node">
<title>get_ty_pl</title>
<path fill="none" stroke="black" d="M436.5,-1314.61C436.5,-1314.61 288.5,-1314.61 288.5,-1314.61 282.5,-1314.61 276.5,-1308.61 276.5,-1302.61 276.5,-1302.61 276.5,-1290.61 276.5,-1290.61 276.5,-1284.61 282.5,-1278.61 288.5,-1278.61 288.5,-1278.61 436.5,-1278.61 436.5,-1278.61 442.5,-1278.61 448.5,-1284.61 448.5,-1290.61 448.5,-1290.61 448.5,-1302.61 448.5,-1302.61 448.5,-1308.61 442.5,-1314.61 436.5,-1314.61"/>
<text text-anchor="middle" x="362.5" y="-1292.91" font-family="Helvetica,sans-Serif" font-size="14.00">获取 ty_pl 和 extra 数据</text>
</g>
<!-- check_unused&#45;&gt;get_ty_pl -->
<g id="edge3" class="edge">
<title>check_unused&#45;&gt;get_ty_pl</title>
<path fill="none" stroke="black" d="M188.57,-1374.26C224,-1358.65 276.34,-1335.58 314.35,-1318.83"/>
<polygon fill="black" stroke="black" points="315.94,-1321.95 323.68,-1314.72 313.12,-1315.55 315.94,-1321.95"/>
<text text-anchor="middle" x="270" y="-1345.28" font-family="Helvetica,sans-Serif" font-size="14.00">否</text>
</g>
<!-- check_vector -->
<g id="node5" class="node">
<title>check_vector</title>
<path fill="none" stroke="black" d="M468,-1232.74C468,-1232.74 257,-1232.74 257,-1232.74 251,-1232.74 245,-1226.74 245,-1220.74 245,-1220.74 245,-1208.74 245,-1208.74 245,-1202.74 251,-1196.74 257,-1196.74 257,-1196.74 468,-1196.74 468,-1196.74 474,-1196.74 480,-1202.74 480,-1208.74 480,-1208.74 480,-1220.74 480,-1220.74 480,-1226.74 474,-1232.74 468,-1232.74"/>
<text text-anchor="middle" x="362.5" y="-1211.04" font-family="Helvetica,sans-Serif" font-size="14.00">检查类型是否为向量 (zigTypeTag)</text>
</g>
<!-- get_ty_pl&#45;&gt;check_vector -->
<g id="edge4" class="edge">
<title>get_ty_pl&#45;&gt;check_vector</title>
<path fill="none" stroke="black" d="M362.5,-1278.28C362.5,-1267.95 362.5,-1254.62 362.5,-1242.92"/>
<polygon fill="black" stroke="black" points="366,-1242.76 362.5,-1232.76 359,-1242.76 366,-1242.76"/>
</g>
<!-- return_vector_error -->
<g id="node6" class="node">
<title>return_vector_error</title>
<ellipse fill="none" stroke="black" cx="326.5" cy="-1127.74" rx="133.48" ry="18"/>
<text text-anchor="middle" x="326.5" y="-1124.04" font-family="Helvetica,sans-Serif" font-size="14.00">返回错误：TODO 向量未实现</text>
</g>
<!-- check_vector&#45;&gt;return_vector_error -->
<g id="edge5" class="edge">
<title>check_vector&#45;&gt;return_vector_error</title>
<path fill="none" stroke="black" d="M355.21,-1196.54C350.19,-1184.67 343.41,-1168.67 337.7,-1155.19"/>
<polygon fill="black" stroke="black" points="340.9,-1153.76 333.77,-1145.92 334.45,-1156.49 340.9,-1153.76"/>
<text text-anchor="middle" x="372" y="-1167.54" font-family="Helvetica,sans-Serif" font-size="14.00">.vector</text>
</g>
<!-- handle_int -->
<g id="node7" class="node">
<title>handle_int</title>
<path fill="none" stroke="black" d="M567.5,-1145.74C567.5,-1145.74 489.5,-1145.74 489.5,-1145.74 483.5,-1145.74 477.5,-1139.74 477.5,-1133.74 477.5,-1133.74 477.5,-1121.74 477.5,-1121.74 477.5,-1115.74 483.5,-1109.74 489.5,-1109.74 489.5,-1109.74 567.5,-1109.74 567.5,-1109.74 573.5,-1109.74 579.5,-1115.74 579.5,-1121.74 579.5,-1121.74 579.5,-1133.74 579.5,-1133.74 579.5,-1139.74 573.5,-1145.74 567.5,-1145.74"/>
<text text-anchor="middle" x="528.5" y="-1124.04" font-family="Helvetica,sans-Serif" font-size="14.00">处理整数类型</text>
</g>
<!-- check_vector&#45;&gt;handle_int -->
<g id="edge6" class="edge">
<title>check_vector&#45;&gt;handle_int</title>
<path fill="none" stroke="black" d="M396.09,-1196.54C422.05,-1183.25 458.15,-1164.76 486.1,-1150.45"/>
<polygon fill="black" stroke="black" points="487.94,-1153.44 495.24,-1145.77 484.74,-1147.21 487.94,-1153.44"/>
<text text-anchor="middle" x="467" y="-1167.54" font-family="Helvetica,sans-Serif" font-size="14.00">.int</text>
</g>
<!-- check_bits_16 -->
<g id="node8" class="node">
<title>check_bits_16</title>
<path fill="none" stroke="black" d="M588.5,-1072.74C588.5,-1072.74 468.5,-1072.74 468.5,-1072.74 462.5,-1072.74 456.5,-1066.74 456.5,-1060.74 456.5,-1060.74 456.5,-1048.74 456.5,-1048.74 456.5,-1042.74 462.5,-1036.74 468.5,-1036.74 468.5,-1036.74 588.5,-1036.74 588.5,-1036.74 594.5,-1036.74 600.5,-1042.74 600.5,-1048.74 600.5,-1048.74 600.5,-1060.74 600.5,-1060.74 600.5,-1066.74 594.5,-1072.74 588.5,-1072.74"/>
<text text-anchor="middle" x="528.5" y="-1051.04" font-family="Helvetica,sans-Serif" font-size="14.00">int_info.bits ≤ 16?</text>
</g>
<!-- handle_int&#45;&gt;check_bits_16 -->
<g id="edge7" class="edge">
<title>handle_int&#45;&gt;check_bits_16</title>
<path fill="none" stroke="black" d="M528.5,-1109.55C528.5,-1101.53 528.5,-1091.79 528.5,-1082.81"/>
<polygon fill="black" stroke="black" points="532,-1082.77 528.5,-1072.77 525,-1082.77 532,-1082.77"/>
</g>
<!-- handle_16bit -->
<g id="node9" class="node">
<title>handle_16bit</title>
<path fill="none" stroke="black" d="M579.5,-731.74C579.5,-731.74 445.5,-731.74 445.5,-731.74 439.5,-731.74 433.5,-725.74 433.5,-719.74 433.5,-719.74 433.5,-707.74 433.5,-707.74 433.5,-701.74 439.5,-695.74 445.5,-695.74 445.5,-695.74 579.5,-695.74 579.5,-695.74 585.5,-695.74 591.5,-701.74 591.5,-707.74 591.5,-707.74 591.5,-719.74 591.5,-719.74 591.5,-725.74 585.5,-731.74 579.5,-731.74"/>
<text text-anchor="middle" x="512.5" y="-710.04" font-family="Helvetica,sans-Serif" font-size="14.00">处理 16 位及以下整数</text>
</g>
<!-- check_bits_16&#45;&gt;handle_16bit -->
<g id="edge8" class="edge">
<title>check_bits_16&#45;&gt;handle_16bit</title>
<path fill="none" stroke="black" d="M523.35,-1036.66C518.67,-1019.62 512.5,-992.62 512.5,-968.74 512.5,-968.74 512.5,-968.74 512.5,-785.74 512.5,-771.39 512.5,-755.41 512.5,-742.25"/>
<polygon fill="black" stroke="black" points="516,-741.96 512.5,-731.96 509,-741.96 516,-741.96"/>
<text text-anchor="middle" x="520" y="-877.04" font-family="Helvetica,sans-Serif" font-size="14.00">是</text>
</g>
<!-- check_bits_32 -->
<g id="node10" class="node">
<title>check_bits_32</title>
<path fill="none" stroke="black" d="M721.5,-985.74C721.5,-985.74 601.5,-985.74 601.5,-985.74 595.5,-985.74 589.5,-979.74 589.5,-973.74 589.5,-973.74 589.5,-961.74 589.5,-961.74 589.5,-955.74 595.5,-949.74 601.5,-949.74 601.5,-949.74 721.5,-949.74 721.5,-949.74 727.5,-949.74 733.5,-955.74 733.5,-961.74 733.5,-961.74 733.5,-973.74 733.5,-973.74 733.5,-979.74 727.5,-985.74 721.5,-985.74"/>
<text text-anchor="middle" x="661.5" y="-964.04" font-family="Helvetica,sans-Serif" font-size="14.00">int_info.bits ≤ 32?</text>
</g>
<!-- check_bits_16&#45;&gt;check_bits_32 -->
<g id="edge9" class="edge">
<title>check_bits_16&#45;&gt;check_bits_32</title>
<path fill="none" stroke="black" d="M555.41,-1036.54C575.79,-1023.52 603.95,-1005.52 626.14,-991.34"/>
<polygon fill="black" stroke="black" points="628.08,-994.25 634.63,-985.92 624.31,-988.35 628.08,-994.25"/>
<text text-anchor="middle" x="610" y="-1007.54" font-family="Helvetica,sans-Serif" font-size="14.00">否</text>
</g>
<!-- alloc_stack_16 -->
<g id="node15" class="node">
<title>alloc_stack_16</title>
<path fill="none" stroke="black" d="M579.5,-637.74C579.5,-637.74 447.5,-637.74 447.5,-637.74 441.5,-637.74 435.5,-631.74 435.5,-625.74 435.5,-625.74 435.5,-613.74 435.5,-613.74 435.5,-607.74 441.5,-601.74 447.5,-601.74 447.5,-601.74 579.5,-601.74 579.5,-601.74 585.5,-601.74 591.5,-607.74 591.5,-613.74 591.5,-613.74 591.5,-625.74 591.5,-625.74 591.5,-631.74 585.5,-637.74 579.5,-637.74"/>
<text text-anchor="middle" x="513.5" y="-616.04" font-family="Helvetica,sans-Serif" font-size="14.00">分配栈空间 allocMem</text>
</g>
<!-- handle_16bit&#45;&gt;alloc_stack_16 -->
<g id="edge12" class="edge">
<title>handle_16bit&#45;&gt;alloc_stack_16</title>
<path fill="none" stroke="black" d="M512.69,-695.44C512.83,-682.2 513.03,-663.69 513.2,-648.4"/>
<polygon fill="black" stroke="black" points="516.7,-648 513.31,-637.97 509.7,-647.93 516.7,-648"/>
</g>
<!-- handle_32bit -->
<g id="node11" class="node">
<title>handle_32bit</title>
<path fill="none" stroke="black" d="M899,-898.74C899,-898.74 808,-898.74 808,-898.74 802,-898.74 796,-892.74 796,-886.74 796,-886.74 796,-874.74 796,-874.74 796,-868.74 802,-862.74 808,-862.74 808,-862.74 899,-862.74 899,-862.74 905,-862.74 911,-868.74 911,-874.74 911,-874.74 911,-886.74 911,-886.74 911,-892.74 905,-898.74 899,-898.74"/>
<text text-anchor="middle" x="853.5" y="-877.04" font-family="Helvetica,sans-Serif" font-size="14.00">处理 32 位整数</text>
</g>
<!-- check_bits_32&#45;&gt;handle_32bit -->
<g id="edge10" class="edge">
<title>check_bits_32&#45;&gt;handle_32bit</title>
<path fill="none" stroke="black" d="M700.35,-949.54C730.77,-936.07 773.23,-917.28 805.72,-902.89"/>
<polygon fill="black" stroke="black" points="807.3,-906.02 815.03,-898.77 804.47,-899.62 807.3,-906.02"/>
<text text-anchor="middle" x="776" y="-920.54" font-family="Helvetica,sans-Serif" font-size="14.00">是</text>
</g>
<!-- return_overflow_error -->
<g id="node12" class="node">
<title>return_overflow_error</title>
<ellipse fill="none" stroke="black" cx="661.5" cy="-880.74" rx="116.18" ry="18"/>
<text text-anchor="middle" x="661.5" y="-877.04" font-family="Helvetica,sans-Serif" font-size="14.00">返回错误：&gt;32 位未实现</text>
</g>
<!-- check_bits_32&#45;&gt;return_overflow_error -->
<g id="edge11" class="edge">
<title>check_bits_32&#45;&gt;return_overflow_error</title>
<path fill="none" stroke="black" d="M661.5,-949.54C661.5,-937.9 661.5,-922.29 661.5,-908.98"/>
<polygon fill="black" stroke="black" points="665,-908.92 661.5,-898.92 658,-908.92 665,-908.92"/>
<text text-anchor="middle" x="669" y="-920.54" font-family="Helvetica,sans-Serif" font-size="14.00">否</text>
</g>
<!-- alloc_stack_32 -->
<g id="node22" class="node">
<title>alloc_stack_32</title>
<path fill="none" stroke="black" d="M918.5,-804.74C918.5,-804.74 786.5,-804.74 786.5,-804.74 780.5,-804.74 774.5,-798.74 774.5,-792.74 774.5,-792.74 774.5,-780.74 774.5,-780.74 774.5,-774.74 780.5,-768.74 786.5,-768.74 786.5,-768.74 918.5,-768.74 918.5,-768.74 924.5,-768.74 930.5,-774.74 930.5,-780.74 930.5,-780.74 930.5,-792.74 930.5,-792.74 930.5,-798.74 924.5,-804.74 918.5,-804.74"/>
<text text-anchor="middle" x="852.5" y="-783.04" font-family="Helvetica,sans-Serif" font-size="14.00">分配栈空间 allocMem</text>
</g>
<!-- handle_32bit&#45;&gt;alloc_stack_32 -->
<g id="edge20" class="edge">
<title>handle_32bit&#45;&gt;alloc_stack_32</title>
<path fill="none" stroke="black" d="M853.31,-862.44C853.17,-849.2 852.97,-830.69 852.8,-815.4"/>
<polygon fill="black" stroke="black" points="856.3,-814.93 852.69,-804.97 849.3,-815 856.3,-814.93"/>
</g>
<!-- gen_result -->
<g id="node13" class="node">
<title>gen_result</title>
<path fill="none" stroke="black" d="M729.5,-126.74C729.5,-126.74 617.5,-126.74 617.5,-126.74 611.5,-126.74 605.5,-120.74 605.5,-114.74 605.5,-114.74 605.5,-102.74 605.5,-102.74 605.5,-96.74 611.5,-90.74 617.5,-90.74 617.5,-90.74 729.5,-90.74 729.5,-90.74 735.5,-90.74 741.5,-96.74 741.5,-102.74 741.5,-102.74 741.5,-114.74 741.5,-114.74 741.5,-120.74 735.5,-126.74 729.5,-126.74"/>
<text text-anchor="middle" x="673.5" y="-105.04" font-family="Helvetica,sans-Serif" font-size="14.00">生成结果 MCValue</text>
</g>
<!-- finish_air -->
<g id="node14" class="node">
<title>finish_air</title>
<ellipse fill="none" stroke="black" cx="673.5" cy="-26.87" rx="127.97" ry="26.74"/>
<text text-anchor="middle" x="673.5" y="-30.67" font-family="Helvetica,sans-Serif" font-size="14.00">完成并返回结果</text>
<text text-anchor="middle" x="673.5" y="-15.67" font-family="Helvetica,sans-Serif" font-size="14.00">finishAir(inst, result, ...)</text>
</g>
<!-- gen_result&#45;&gt;finish_air -->
<g id="edge30" class="edge">
<title>gen_result&#45;&gt;finish_air</title>
<path fill="none" stroke="black" d="M673.5,-90.41C673.5,-82.68 673.5,-73.26 673.5,-64.1"/>
<polygon fill="black" stroke="black" points="677,-63.97 673.5,-53.97 670,-63.97 677,-63.97"/>
</g>
<!-- spill_flags -->
<g id="node16" class="node">
<title>spill_flags</title>
<path fill="none" stroke="black" d="M658,-564.74C658,-564.74 375,-564.74 375,-564.74 369,-564.74 363,-558.74 363,-552.74 363,-552.74 363,-540.74 363,-540.74 363,-534.74 369,-528.74 375,-528.74 375,-528.74 658,-528.74 658,-528.74 664,-528.74 670,-534.74 670,-540.74 670,-540.74 670,-552.74 670,-552.74 670,-558.74 664,-564.74 658,-564.74"/>
<text text-anchor="middle" x="516.5" y="-543.04" font-family="Helvetica,sans-Serif" font-size="14.00">溢出比较标志 spillCompareFlagsIfOccupied</text>
</g>
<!-- alloc_stack_16&#45;&gt;spill_flags -->
<g id="edge13" class="edge">
<title>alloc_stack_16&#45;&gt;spill_flags</title>
<path fill="none" stroke="black" d="M514.23,-601.55C514.57,-593.53 514.98,-583.79 515.36,-574.81"/>
<polygon fill="black" stroke="black" points="518.86,-574.91 515.78,-564.77 511.86,-574.61 518.86,-574.91"/>
</g>
<!-- bin_op -->
<g id="node17" class="node">
<title>bin_op</title>
<path fill="none" stroke="black" d="M631.5,-491.74C631.5,-491.74 451.5,-491.74 451.5,-491.74 445.5,-491.74 439.5,-485.74 439.5,-479.74 439.5,-479.74 439.5,-467.74 439.5,-467.74 439.5,-461.74 445.5,-455.74 451.5,-455.74 451.5,-455.74 631.5,-455.74 631.5,-455.74 637.5,-455.74 643.5,-461.74 643.5,-467.74 643.5,-467.74 643.5,-479.74 643.5,-479.74 643.5,-485.74 637.5,-491.74 631.5,-491.74"/>
<text text-anchor="middle" x="541.5" y="-470.04" font-family="Helvetica,sans-Serif" font-size="14.00">生成乘法指令 binOpRegister</text>
</g>
<!-- spill_flags&#45;&gt;bin_op -->
<g id="edge14" class="edge">
<title>spill_flags&#45;&gt;bin_op</title>
<path fill="none" stroke="black" d="M522.55,-528.55C525.44,-520.36 528.96,-510.36 532.17,-501.22"/>
<polygon fill="black" stroke="black" points="535.48,-502.36 535.5,-491.77 528.88,-500.04 535.48,-502.36"/>
</g>
<!-- trunc_reg -->
<g id="node18" class="node">
<title>trunc_reg</title>
<path fill="none" stroke="black" d="M640,-418.74C640,-418.74 479,-418.74 479,-418.74 473,-418.74 467,-412.74 467,-406.74 467,-406.74 467,-394.74 467,-394.74 467,-388.74 473,-382.74 479,-382.74 479,-382.74 640,-382.74 640,-382.74 646,-382.74 652,-388.74 652,-394.74 652,-394.74 652,-406.74 652,-406.74 652,-412.74 646,-418.74 640,-418.74"/>
<text text-anchor="middle" x="559.5" y="-397.04" font-family="Helvetica,sans-Serif" font-size="14.00">截断寄存器 truncRegister</text>
</g>
<!-- bin_op&#45;&gt;trunc_reg -->
<g id="edge15" class="edge">
<title>bin_op&#45;&gt;trunc_reg</title>
<path fill="none" stroke="black" d="M545.86,-455.55C547.91,-447.44 550.41,-437.58 552.71,-428.52"/>
<polygon fill="black" stroke="black" points="556.12,-429.32 555.18,-418.77 549.33,-427.6 556.12,-429.32"/>
</g>
<!-- gen_cmp -->
<g id="node19" class="node">
<title>gen_cmp</title>
<path fill="none" stroke="black" d="M631,-345.74C631,-345.74 508,-345.74 508,-345.74 502,-345.74 496,-339.74 496,-333.74 496,-333.74 496,-321.74 496,-321.74 496,-315.74 502,-309.74 508,-309.74 508,-309.74 631,-309.74 631,-309.74 637,-309.74 643,-315.74 643,-321.74 643,-321.74 643,-333.74 643,-333.74 643,-339.74 637,-345.74 631,-345.74"/>
<text text-anchor="middle" x="569.5" y="-324.04" font-family="Helvetica,sans-Serif" font-size="14.00">生成比较指令 (cmp)</text>
</g>
<!-- trunc_reg&#45;&gt;gen_cmp -->
<g id="edge16" class="edge">
<title>trunc_reg&#45;&gt;gen_cmp</title>
<path fill="none" stroke="black" d="M561.92,-382.55C563.05,-374.53 564.42,-364.79 565.69,-355.81"/>
<polygon fill="black" stroke="black" points="569.17,-356.16 567.1,-345.77 562.24,-355.18 569.17,-356.16"/>
</g>
<!-- set_stack -->
<g id="node20" class="node">
<title>set_stack</title>
<path fill="none" stroke="black" d="M652.5,-272.74C652.5,-272.74 498.5,-272.74 498.5,-272.74 492.5,-272.74 486.5,-266.74 486.5,-260.74 486.5,-260.74 486.5,-248.74 486.5,-248.74 486.5,-242.74 492.5,-236.74 498.5,-236.74 498.5,-236.74 652.5,-236.74 652.5,-236.74 658.5,-236.74 664.5,-242.74 664.5,-248.74 664.5,-248.74 664.5,-260.74 664.5,-260.74 664.5,-266.74 658.5,-272.74 652.5,-272.74"/>
<text text-anchor="middle" x="575.5" y="-251.04" font-family="Helvetica,sans-Serif" font-size="14.00">设置栈数据 genSetStack</text>
</g>
<!-- gen_cmp&#45;&gt;set_stack -->
<g id="edge17" class="edge">
<title>gen_cmp&#45;&gt;set_stack</title>
<path fill="none" stroke="black" d="M570.95,-309.55C571.63,-301.53 572.45,-291.79 573.21,-282.81"/>
<polygon fill="black" stroke="black" points="576.71,-283.03 574.06,-272.77 569.73,-282.44 576.71,-283.03"/>
</g>
<!-- set_overflow -->
<g id="node21" class="node">
<title>set_overflow</title>
<path fill="none" stroke="black" d="M656.5,-199.74C656.5,-199.74 502.5,-199.74 502.5,-199.74 496.5,-199.74 490.5,-193.74 490.5,-187.74 490.5,-187.74 490.5,-175.74 490.5,-175.74 490.5,-169.74 496.5,-163.74 502.5,-163.74 502.5,-163.74 656.5,-163.74 656.5,-163.74 662.5,-163.74 668.5,-169.74 668.5,-175.74 668.5,-175.74 668.5,-187.74 668.5,-187.74 668.5,-193.74 662.5,-199.74 656.5,-199.74"/>
<text text-anchor="middle" x="579.5" y="-178.04" font-family="Helvetica,sans-Serif" font-size="14.00">设置溢出位 genSetStack</text>
</g>
<!-- set_stack&#45;&gt;set_overflow -->
<g id="edge18" class="edge">
<title>set_stack&#45;&gt;set_overflow</title>
<path fill="none" stroke="black" d="M576.47,-236.55C576.92,-228.53 577.47,-218.79 577.97,-209.81"/>
<polygon fill="black" stroke="black" points="581.47,-209.95 578.54,-199.77 574.48,-209.56 581.47,-209.95"/>
</g>
<!-- set_overflow&#45;&gt;gen_result -->
<g id="edge19" class="edge">
<title>set_overflow&#45;&gt;gen_result</title>
<path fill="none" stroke="black" d="M602.25,-163.55C614.38,-154.4 629.47,-143 642.63,-133.06"/>
<polygon fill="black" stroke="black" points="645.08,-135.59 650.95,-126.77 640.87,-130 645.08,-135.59"/>
</g>
<!-- spill_flags_32 -->
<g id="node23" class="node">
<title>spill_flags_32</title>
<path fill="none" stroke="black" d="M993,-731.74C993,-731.74 710,-731.74 710,-731.74 704,-731.74 698,-725.74 698,-719.74 698,-719.74 698,-707.74 698,-707.74 698,-701.74 704,-695.74 710,-695.74 710,-695.74 993,-695.74 993,-695.74 999,-695.74 1005,-701.74 1005,-707.74 1005,-707.74 1005,-719.74 1005,-719.74 1005,-725.74 999,-731.74 993,-731.74"/>
<text text-anchor="middle" x="851.5" y="-710.04" font-family="Helvetica,sans-Serif" font-size="14.00">溢出比较标志 spillCompareFlagsIfOccupied</text>
</g>
<!-- alloc_stack_32&#45;&gt;spill_flags_32 -->
<g id="edge21" class="edge">
<title>alloc_stack_32&#45;&gt;spill_flags_32</title>
<path fill="none" stroke="black" d="M852.26,-768.55C852.14,-760.53 852.01,-750.79 851.88,-741.81"/>
<polygon fill="black" stroke="black" points="855.38,-741.72 851.74,-731.77 848.38,-741.82 855.38,-741.72"/>
</g>
<!-- alloc_regs -->
<g id="node24" class="node">
<title>alloc_regs</title>
<path fill="none" stroke="black" d="M916.5,-637.74C916.5,-637.74 784.5,-637.74 784.5,-637.74 778.5,-637.74 772.5,-631.74 772.5,-625.74 772.5,-625.74 772.5,-613.74 772.5,-613.74 772.5,-607.74 778.5,-601.74 784.5,-601.74 784.5,-601.74 916.5,-601.74 916.5,-601.74 922.5,-601.74 928.5,-607.74 928.5,-613.74 928.5,-613.74 928.5,-625.74 928.5,-625.74 928.5,-631.74 922.5,-637.74 916.5,-637.74"/>
<text text-anchor="middle" x="850.5" y="-616.04" font-family="Helvetica,sans-Serif" font-size="14.00">分配寄存器 allocRegs</text>
</g>
<!-- spill_flags_32&#45;&gt;alloc_regs -->
<g id="edge22" class="edge">
<title>spill_flags_32&#45;&gt;alloc_regs</title>
<path fill="none" stroke="black" d="M851.31,-695.44C851.17,-682.2 850.97,-663.69 850.8,-648.4"/>
<polygon fill="black" stroke="black" points="854.3,-647.93 850.69,-637.97 847.3,-648 854.3,-647.93"/>
</g>
<!-- gen_smull -->
<g id="node25" class="node">
<title>gen_smull</title>
<path fill="none" stroke="black" d="M891.5,-564.74C891.5,-564.74 753.5,-564.74 753.5,-564.74 747.5,-564.74 741.5,-558.74 741.5,-552.74 741.5,-552.74 741.5,-540.74 741.5,-540.74 741.5,-534.74 747.5,-528.74 753.5,-528.74 753.5,-528.74 891.5,-528.74 891.5,-528.74 897.5,-528.74 903.5,-534.74 903.5,-540.74 903.5,-540.74 903.5,-552.74 903.5,-552.74 903.5,-558.74 897.5,-564.74 891.5,-564.74"/>
<text text-anchor="middle" x="822.5" y="-543.04" font-family="Helvetica,sans-Serif" font-size="14.00">生成 smull/umull 指令</text>
</g>
<!-- alloc_regs&#45;&gt;gen_smull -->
<g id="edge23" class="edge">
<title>alloc_regs&#45;&gt;gen_smull</title>
<path fill="none" stroke="black" d="M843.72,-601.55C840.49,-593.36 836.55,-583.36 832.94,-574.22"/>
<polygon fill="black" stroke="black" points="836.14,-572.79 829.22,-564.77 829.63,-575.36 836.14,-572.79"/>
</g>
<!-- trunc_reg_32 -->
<g id="node26" class="node">
<title>trunc_reg_32</title>
<path fill="none" stroke="black" d="M889,-491.74C889,-491.74 728,-491.74 728,-491.74 722,-491.74 716,-485.74 716,-479.74 716,-479.74 716,-467.74 716,-467.74 716,-461.74 722,-455.74 728,-455.74 728,-455.74 889,-455.74 889,-455.74 895,-455.74 901,-461.74 901,-467.74 901,-467.74 901,-479.74 901,-479.74 901,-485.74 895,-491.74 889,-491.74"/>
<text text-anchor="middle" x="808.5" y="-470.04" font-family="Helvetica,sans-Serif" font-size="14.00">截断寄存器 truncRegister</text>
</g>
<!-- gen_smull&#45;&gt;trunc_reg_32 -->
<g id="edge24" class="edge">
<title>gen_smull&#45;&gt;trunc_reg_32</title>
<path fill="none" stroke="black" d="M819.11,-528.55C817.53,-520.53 815.61,-510.79 813.84,-501.81"/>
<polygon fill="black" stroke="black" points="817.23,-500.9 811.86,-491.77 810.36,-502.26 817.23,-500.9"/>
</g>
<!-- cmp_trunc -->
<g id="node27" class="node">
<title>cmp_trunc</title>
<path fill="none" stroke="black" d="M855,-418.74C855,-418.74 748,-418.74 748,-418.74 742,-418.74 736,-412.74 736,-406.74 736,-406.74 736,-394.74 736,-394.74 736,-388.74 742,-382.74 748,-382.74 748,-382.74 855,-382.74 855,-382.74 861,-382.74 867,-388.74 867,-394.74 867,-394.74 867,-406.74 867,-406.74 867,-412.74 861,-418.74 855,-418.74"/>
<text text-anchor="middle" x="801.5" y="-397.04" font-family="Helvetica,sans-Serif" font-size="14.00">比较截断值与 rdlo</text>
</g>
<!-- trunc_reg_32&#45;&gt;cmp_trunc -->
<g id="edge25" class="edge">
<title>trunc_reg_32&#45;&gt;cmp_trunc</title>
<path fill="none" stroke="black" d="M806.81,-455.55C806.01,-447.53 805.05,-437.79 804.17,-428.81"/>
<polygon fill="black" stroke="black" points="807.64,-428.38 803.18,-418.77 800.68,-429.06 807.64,-428.38"/>
</g>
<!-- mov_ne -->
<g id="node28" class="node">
<title>mov_ne</title>
<path fill="none" stroke="black" d="M882,-345.74C882,-345.74 713,-345.74 713,-345.74 707,-345.74 701,-339.74 701,-333.74 701,-333.74 701,-321.74 701,-321.74 701,-315.74 707,-309.74 713,-309.74 713,-309.74 882,-309.74 882,-309.74 888,-309.74 894,-315.74 894,-321.74 894,-321.74 894,-333.74 894,-333.74 894,-339.74 888,-345.74 882,-345.74"/>
<text text-anchor="middle" x="797.5" y="-324.04" font-family="Helvetica,sans-Serif" font-size="14.00">条件设置溢出标志 (movne)</text>
</g>
<!-- cmp_trunc&#45;&gt;mov_ne -->
<g id="edge26" class="edge">
<title>cmp_trunc&#45;&gt;mov_ne</title>
<path fill="none" stroke="black" d="M800.53,-382.55C800.08,-374.53 799.53,-364.79 799.03,-355.81"/>
<polygon fill="black" stroke="black" points="802.52,-355.56 798.46,-345.77 795.53,-355.95 802.52,-355.56"/>
</g>
<!-- cmp_rdhi -->
<g id="node29" class="node">
<title>cmp_rdhi</title>
<path fill="none" stroke="black" d="M833,-272.74C833,-272.74 750,-272.74 750,-272.74 744,-272.74 738,-266.74 738,-260.74 738,-260.74 738,-248.74 738,-248.74 738,-242.74 744,-236.74 750,-236.74 750,-236.74 833,-236.74 833,-236.74 839,-236.74 845,-242.74 845,-248.74 845,-248.74 845,-260.74 845,-260.74 845,-266.74 839,-272.74 833,-272.74"/>
<text text-anchor="middle" x="791.5" y="-251.04" font-family="Helvetica,sans-Serif" font-size="14.00">比较 rdhi 与 0</text>
</g>
<!-- mov_ne&#45;&gt;cmp_rdhi -->
<g id="edge27" class="edge">
<title>mov_ne&#45;&gt;cmp_rdhi</title>
<path fill="none" stroke="black" d="M796.05,-309.55C795.37,-301.53 794.55,-291.79 793.79,-282.81"/>
<polygon fill="black" stroke="black" points="797.27,-282.44 792.94,-272.77 790.29,-283.03 797.27,-282.44"/>
</g>
<!-- set_overflow_32 -->
<g id="node30" class="node">
<title>set_overflow_32</title>
<path fill="none" stroke="black" d="M812.5,-199.74C812.5,-199.74 720.5,-199.74 720.5,-199.74 714.5,-199.74 708.5,-193.74 708.5,-187.74 708.5,-187.74 708.5,-175.74 708.5,-175.74 708.5,-169.74 714.5,-163.74 720.5,-163.74 720.5,-163.74 812.5,-163.74 812.5,-163.74 818.5,-163.74 824.5,-169.74 824.5,-175.74 824.5,-175.74 824.5,-187.74 824.5,-187.74 824.5,-193.74 818.5,-199.74 812.5,-199.74"/>
<text text-anchor="middle" x="766.5" y="-178.04" font-family="Helvetica,sans-Serif" font-size="14.00">设置溢出位到栈</text>
</g>
<!-- cmp_rdhi&#45;&gt;set_overflow_32 -->
<g id="edge28" class="edge">
<title>cmp_rdhi&#45;&gt;set_overflow_32</title>
<path fill="none" stroke="black" d="M785.45,-236.55C782.56,-228.36 779.04,-218.36 775.83,-209.22"/>
<polygon fill="black" stroke="black" points="779.12,-208.04 772.5,-199.77 772.52,-210.36 779.12,-208.04"/>
</g>
<!-- set_overflow_32&#45;&gt;gen_result -->
<g id="edge29" class="edge">
<title>set_overflow_32&#45;&gt;gen_result</title>
<path fill="none" stroke="black" d="M743.99,-163.55C731.99,-154.4 717.07,-143 704.04,-133.06"/>
<polygon fill="black" stroke="black" points="705.88,-130.06 695.81,-126.77 701.63,-135.62 705.88,-130.06"/>
</g>
</g>
</svg>
