<?xml version="1.0" encoding="UTF-8" standalone="no"?>
<!DOCTYPE svg PUBLIC "-//W3C//DTD SVG 1.1//EN"
 "http://www.w3.org/Graphics/SVG/1.1/DTD/svg11.dtd">
<!-- Generated by graphviz version 2.43.0 (0)
 -->
<!-- Title: flowchart Pages: 1 -->
<svg width="504pt" height="891pt"
 viewBox="0.00 0.00 504.00 891.49" xmlns="http://www.w3.org/2000/svg" xmlns:xlink="http://www.w3.org/1999/xlink">
<g id="graph0" class="graph" transform="scale(1 1) rotate(0) translate(4 887.49)">
<title>flowchart</title>
<polygon fill="white" stroke="transparent" points="-4,4 -4,-887.49 500,-887.49 500,4 -4,4"/>
<g id="clust1" class="cluster">
<title>cluster_vector</title>
<polygon fill="none" stroke="black" points="8,-199.49 8,-493.49 240,-493.49 240,-199.49 8,-199.49"/>
<text text-anchor="middle" x="124" y="-478.29" font-family="Times,serif" font-size="14.00">向量和1位元素处理</text>
</g>
<g id="clust2" class="cluster">
<title>cluster_general</title>
<polygon fill="none" stroke="black" points="248,-199.49 248,-587.49 488,-587.49 488,-199.49 248,-199.49"/>
<text text-anchor="middle" x="368" y="-572.29" font-family="Times,serif" font-size="14.00">常规数组元素访问</text>
</g>
<!-- start -->
<g id="node1" class="node">
<title>start</title>
<path fill="none" stroke="black" d="M275,-883.49C275,-883.49 153,-883.49 153,-883.49 147,-883.49 141,-877.49 141,-871.49 141,-871.49 141,-859.49 141,-859.49 141,-853.49 147,-847.49 153,-847.49 153,-847.49 275,-847.49 275,-847.49 281,-847.49 287,-853.49 287,-859.49 287,-859.49 287,-871.49 287,-871.49 287,-877.49 281,-883.49 275,-883.49"/>
<text text-anchor="middle" x="214" y="-861.79" font-family="Arial" font-size="14.00">开始 airArrayElemVal</text>
</g>
<!-- resolve_operands -->
<g id="node2" class="node">
<title>resolve_operands</title>
<path fill="none" stroke="black" d="M299,-810.49C299,-810.49 129,-810.49 129,-810.49 123,-810.49 117,-804.49 117,-798.49 117,-798.49 117,-786.49 117,-786.49 117,-780.49 123,-774.49 129,-774.49 129,-774.49 299,-774.49 299,-774.49 305,-774.49 311,-780.49 311,-786.49 311,-786.49 311,-798.49 311,-798.49 311,-804.49 305,-810.49 299,-810.49"/>
<text text-anchor="middle" x="214" y="-788.79" font-family="Arial" font-size="14.00">解析 bin_op.lhs 和 bin_op.rhs</text>
</g>
<!-- start&#45;&gt;resolve_operands -->
<g id="edge1" class="edge">
<title>start&#45;&gt;resolve_operands</title>
<path fill="none" stroke="black" d="M214,-847.3C214,-839.28 214,-829.53 214,-820.55"/>
<polygon fill="black" stroke="black" points="217.5,-820.51 214,-810.51 210.5,-820.51 217.5,-820.51"/>
</g>
<!-- check_vector_1bit -->
<g id="node3" class="node">
<title>check_vector_1bit</title>
<path fill="none" stroke="black" d="M332,-737.49C332,-737.49 96,-737.49 96,-737.49 90,-737.49 84,-731.49 84,-725.49 84,-725.49 84,-713.49 84,-713.49 84,-707.49 90,-701.49 96,-701.49 96,-701.49 332,-701.49 332,-701.49 338,-701.49 344,-707.49 344,-713.49 344,-713.49 344,-725.49 344,-725.49 344,-731.49 338,-737.49 332,-737.49"/>
<text text-anchor="middle" x="214" y="-715.79" font-family="Arial" font-size="14.00">array_ty 是向量且 elem_ty.bitSize == 1?</text>
</g>
<!-- resolve_operands&#45;&gt;check_vector_1bit -->
<g id="edge2" class="edge">
<title>resolve_operands&#45;&gt;check_vector_1bit</title>
<path fill="none" stroke="black" d="M214,-774.3C214,-766.28 214,-756.53 214,-747.55"/>
<polygon fill="black" stroke="black" points="217.5,-747.51 214,-737.51 210.5,-747.51 217.5,-747.51"/>
</g>
<!-- handle_vector_1bit -->
<g id="node4" class="node">
<title>handle_vector_1bit</title>
<path fill="none" stroke="black" d="M215,-556.49C215,-556.49 101,-556.49 101,-556.49 95,-556.49 89,-550.49 89,-544.49 89,-544.49 89,-532.49 89,-532.49 89,-526.49 95,-520.49 101,-520.49 101,-520.49 215,-520.49 215,-520.49 221,-520.49 227,-526.49 227,-532.49 227,-532.49 227,-544.49 227,-544.49 227,-550.49 221,-556.49 215,-556.49"/>
<text text-anchor="middle" x="158" y="-534.79" font-family="Arial" font-size="14.00">处理向量和1位元素</text>
</g>
<!-- check_vector_1bit&#45;&gt;handle_vector_1bit -->
<g id="edge3" class="edge">
<title>check_vector_1bit&#45;&gt;handle_vector_1bit</title>
<path fill="none" stroke="black" d="M208.63,-701.32C198.85,-670.05 178.05,-603.58 166.38,-566.29"/>
<polygon fill="black" stroke="black" points="169.68,-565.1 163.35,-556.6 163,-567.19 169.68,-565.1"/>
<text text-anchor="middle" x="199.5" y="-628.79" font-family="Arial" font-size="14.00">是</text>
</g>
<!-- handle_general_case -->
<g id="node5" class="node">
<title>handle_general_case</title>
<path fill="none" stroke="black" d="M397.5,-650.49C397.5,-650.49 262.5,-650.49 262.5,-650.49 256.5,-650.49 250.5,-644.49 250.5,-638.49 250.5,-638.49 250.5,-626.49 250.5,-626.49 250.5,-620.49 256.5,-614.49 262.5,-614.49 262.5,-614.49 397.5,-614.49 397.5,-614.49 403.5,-614.49 409.5,-620.49 409.5,-626.49 409.5,-626.49 409.5,-638.49 409.5,-638.49 409.5,-644.49 403.5,-650.49 397.5,-650.49"/>
<text text-anchor="middle" x="330" y="-628.79" font-family="Arial" font-size="14.00">处理常规数组元素访问</text>
</g>
<!-- check_vector_1bit&#45;&gt;handle_general_case -->
<g id="edge4" class="edge">
<title>check_vector_1bit&#45;&gt;handle_general_case</title>
<path fill="none" stroke="black" d="M237.47,-701.28C255.01,-688.44 279.15,-670.74 298.38,-656.65"/>
<polygon fill="black" stroke="black" points="300.56,-659.39 306.56,-650.66 296.43,-653.75 300.56,-659.39"/>
<text text-anchor="middle" x="285.5" y="-672.29" font-family="Arial" font-size="14.00">否</text>
</g>
<!-- vec_copy_to_reg -->
<g id="node7" class="node">
<title>vec_copy_to_reg</title>
<path fill="none" stroke="black" d="M219.5,-462.49C219.5,-462.49 28.5,-462.49 28.5,-462.49 22.5,-462.49 16.5,-456.49 16.5,-450.49 16.5,-450.49 16.5,-438.49 16.5,-438.49 16.5,-432.49 22.5,-426.49 28.5,-426.49 28.5,-426.49 219.5,-426.49 219.5,-426.49 225.5,-426.49 231.5,-432.49 231.5,-438.49 231.5,-438.49 231.5,-450.49 231.5,-450.49 231.5,-456.49 225.5,-462.49 219.5,-462.49"/>
<text text-anchor="middle" x="124" y="-440.79" font-family="Arial" font-size="14.00">将 array_mcv 复制到临时寄存器</text>
</g>
<!-- handle_vector_1bit&#45;&gt;vec_copy_to_reg -->
<g id="edge5" class="edge">
<title>handle_vector_1bit&#45;&gt;vec_copy_to_reg</title>
<path fill="none" stroke="black" d="M151.6,-520.18C146.62,-506.69 139.61,-487.71 133.9,-472.26"/>
<polygon fill="black" stroke="black" points="137.12,-470.88 130.37,-462.71 130.55,-473.31 137.12,-470.88"/>
</g>
<!-- gen_address -->
<g id="node11" class="node">
<title>gen_address</title>
<path fill="none" stroke="black" d="M433,-556.49C433,-556.49 269,-556.49 269,-556.49 263,-556.49 257,-550.49 257,-544.49 257,-544.49 257,-532.49 257,-532.49 257,-526.49 263,-520.49 269,-520.49 269,-520.49 433,-520.49 433,-520.49 439,-520.49 445,-526.49 445,-532.49 445,-532.49 445,-544.49 445,-544.49 445,-550.49 439,-556.49 433,-556.49"/>
<text text-anchor="middle" x="351" y="-534.79" font-family="Arial" font-size="14.00">生成数组基地址到 addr_reg</text>
</g>
<!-- handle_general_case&#45;&gt;gen_address -->
<g id="edge10" class="edge">
<title>handle_general_case&#45;&gt;gen_address</title>
<path fill="none" stroke="black" d="M333.95,-614.18C337,-600.82 341.28,-582.07 344.79,-566.7"/>
<polygon fill="black" stroke="black" points="348.25,-567.24 347.07,-556.71 341.43,-565.68 348.25,-567.24"/>
</g>
<!-- finish_air -->
<g id="node6" class="node">
<title>finish_air</title>
<ellipse fill="none" stroke="black" cx="259" cy="-85.24" rx="81.47" ry="81.47"/>
<ellipse fill="none" stroke="black" cx="259" cy="-85.24" rx="85.49" ry="85.49"/>
<text text-anchor="middle" x="259" y="-81.54" font-family="Arial" font-size="14.00">finishAir 返回结果</text>
</g>
<!-- vec_bt_instruction -->
<g id="node8" class="node">
<title>vec_bt_instruction</title>
<path fill="none" stroke="black" d="M185,-389.49C185,-389.49 69,-389.49 69,-389.49 63,-389.49 57,-383.49 57,-377.49 57,-377.49 57,-365.49 57,-365.49 57,-359.49 63,-353.49 69,-353.49 69,-353.49 185,-353.49 185,-353.49 191,-353.49 197,-359.49 197,-365.49 197,-365.49 197,-377.49 197,-377.49 197,-383.49 191,-389.49 185,-389.49"/>
<text text-anchor="middle" x="127" y="-367.79" font-family="Arial" font-size="14.00">生成 BT 指令测试位</text>
</g>
<!-- vec_copy_to_reg&#45;&gt;vec_bt_instruction -->
<g id="edge6" class="edge">
<title>vec_copy_to_reg&#45;&gt;vec_bt_instruction</title>
<path fill="none" stroke="black" d="M124.73,-426.3C125.07,-418.28 125.48,-408.53 125.86,-399.55"/>
<polygon fill="black" stroke="black" points="129.36,-399.65 126.28,-389.51 122.36,-399.36 129.36,-399.65"/>
</g>
<!-- setcc_result -->
<g id="node9" class="node">
<title>setcc_result</title>
<path fill="none" stroke="black" d="M219,-316.49C219,-316.49 39,-316.49 39,-316.49 33,-316.49 27,-310.49 27,-304.49 27,-304.49 27,-292.49 27,-292.49 27,-286.49 33,-280.49 39,-280.49 39,-280.49 219,-280.49 219,-280.49 225,-280.49 231,-286.49 231,-292.49 231,-292.49 231,-304.49 231,-304.49 231,-310.49 225,-316.49 219,-316.49"/>
<text text-anchor="middle" x="129" y="-294.79" font-family="Arial" font-size="14.00">用 SETcc 保存标志位到寄存器</text>
</g>
<!-- vec_bt_instruction&#45;&gt;setcc_result -->
<g id="edge7" class="edge">
<title>vec_bt_instruction&#45;&gt;setcc_result</title>
<path fill="none" stroke="black" d="M127.48,-353.3C127.71,-345.28 127.98,-335.53 128.24,-326.55"/>
<polygon fill="black" stroke="black" points="131.74,-326.61 128.52,-316.51 124.74,-326.41 131.74,-326.61"/>
</g>
<!-- vec_end -->
<g id="node10" class="node">
<title>vec_end</title>
<path fill="none" stroke="black" d="M209,-243.49C209,-243.49 117,-243.49 117,-243.49 111,-243.49 105,-237.49 105,-231.49 105,-231.49 105,-219.49 105,-219.49 105,-213.49 111,-207.49 117,-207.49 117,-207.49 209,-207.49 209,-207.49 215,-207.49 221,-213.49 221,-219.49 221,-219.49 221,-231.49 221,-231.49 221,-237.49 215,-243.49 209,-243.49"/>
<text text-anchor="middle" x="163" y="-221.79" font-family="Arial" font-size="14.00">结果存入寄存器</text>
</g>
<!-- setcc_result&#45;&gt;vec_end -->
<g id="edge8" class="edge">
<title>setcc_result&#45;&gt;vec_end</title>
<path fill="none" stroke="black" d="M137.23,-280.3C141.2,-272.01 146.04,-261.9 150.46,-252.68"/>
<polygon fill="black" stroke="black" points="153.68,-254.05 154.85,-243.51 147.37,-251.02 153.68,-254.05"/>
</g>
<!-- vec_end&#45;&gt;finish_air -->
<g id="edge9" class="edge">
<title>vec_end&#45;&gt;finish_air</title>
<path fill="none" stroke="black" d="M174.96,-207.26C182.75,-196.04 193.53,-180.52 204.77,-164.34"/>
<polygon fill="black" stroke="black" points="207.84,-166.05 210.67,-155.84 202.09,-162.05 207.84,-166.05"/>
</g>
<!-- calc_offset -->
<g id="node12" class="node">
<title>calc_offset</title>
<path fill="none" stroke="black" d="M445,-462.49C445,-462.49 275,-462.49 275,-462.49 269,-462.49 263,-456.49 263,-450.49 263,-450.49 263,-438.49 263,-438.49 263,-432.49 269,-426.49 275,-426.49 275,-426.49 445,-426.49 445,-426.49 451,-426.49 457,-432.49 457,-438.49 457,-438.49 457,-450.49 457,-450.49 457,-456.49 451,-462.49 445,-462.49"/>
<text text-anchor="middle" x="360" y="-440.79" font-family="Arial" font-size="14.00">计算元素偏移量到 offset_reg</text>
</g>
<!-- gen_address&#45;&gt;calc_offset -->
<g id="edge11" class="edge">
<title>gen_address&#45;&gt;calc_offset</title>
<path fill="none" stroke="black" d="M352.69,-520.18C354,-506.82 355.83,-488.07 357.34,-472.7"/>
<polygon fill="black" stroke="black" points="360.82,-473.01 358.31,-462.71 353.86,-472.32 360.82,-473.01"/>
</g>
<!-- gen_lea_add -->
<g id="node13" class="node">
<title>gen_lea_add</title>
<path fill="none" stroke="black" d="M468,-389.49C468,-389.49 268,-389.49 268,-389.49 262,-389.49 256,-383.49 256,-377.49 256,-377.49 256,-365.49 256,-365.49 256,-359.49 262,-353.49 268,-353.49 268,-353.49 468,-353.49 468,-353.49 474,-353.49 480,-359.49 480,-365.49 480,-365.49 480,-377.49 480,-377.49 480,-383.49 474,-389.49 468,-389.49"/>
<text text-anchor="middle" x="368" y="-367.79" font-family="Arial" font-size="14.00">生成 LEA/ADD 指令计算最终地址</text>
</g>
<!-- calc_offset&#45;&gt;gen_lea_add -->
<g id="edge12" class="edge">
<title>calc_offset&#45;&gt;gen_lea_add</title>
<path fill="none" stroke="black" d="M361.94,-426.3C362.84,-418.28 363.94,-408.53 364.95,-399.55"/>
<polygon fill="black" stroke="black" points="368.44,-399.84 366.08,-389.51 361.48,-399.06 368.44,-399.84"/>
</g>
<!-- copy_element -->
<g id="node14" class="node">
<title>copy_element</title>
<path fill="none" stroke="black" d="M424.5,-316.49C424.5,-316.49 303.5,-316.49 303.5,-316.49 297.5,-316.49 291.5,-310.49 291.5,-304.49 291.5,-304.49 291.5,-292.49 291.5,-292.49 291.5,-286.49 297.5,-280.49 303.5,-280.49 303.5,-280.49 424.5,-280.49 424.5,-280.49 430.5,-280.49 436.5,-286.49 436.5,-292.49 436.5,-292.49 436.5,-304.49 436.5,-304.49 436.5,-310.49 430.5,-316.49 424.5,-316.49"/>
<text text-anchor="middle" x="364" y="-294.79" font-family="Arial" font-size="14.00">复制元素到目标位置</text>
</g>
<!-- gen_lea_add&#45;&gt;copy_element -->
<g id="edge13" class="edge">
<title>gen_lea_add&#45;&gt;copy_element</title>
<path fill="none" stroke="black" d="M367.03,-353.3C366.58,-345.28 366.03,-335.53 365.53,-326.55"/>
<polygon fill="black" stroke="black" points="369.02,-326.3 364.96,-316.51 362.03,-326.7 369.02,-326.3"/>
</g>
<!-- gen_end -->
<g id="node15" class="node">
<title>gen_end</title>
<path fill="none" stroke="black" d="M413.5,-243.49C413.5,-243.49 276.5,-243.49 276.5,-243.49 270.5,-243.49 264.5,-237.49 264.5,-231.49 264.5,-231.49 264.5,-219.49 264.5,-219.49 264.5,-213.49 270.5,-207.49 276.5,-207.49 276.5,-207.49 413.5,-207.49 413.5,-207.49 419.5,-207.49 425.5,-213.49 425.5,-219.49 425.5,-219.49 425.5,-231.49 425.5,-231.49 425.5,-237.49 419.5,-243.49 413.5,-243.49"/>
<text text-anchor="middle" x="345" y="-221.79" font-family="Arial" font-size="14.00">结果存入目标 MCValue</text>
</g>
<!-- copy_element&#45;&gt;gen_end -->
<g id="edge14" class="edge">
<title>copy_element&#45;&gt;gen_end</title>
<path fill="none" stroke="black" d="M359.4,-280.3C357.23,-272.19 354.59,-262.32 352.17,-253.26"/>
<polygon fill="black" stroke="black" points="355.52,-252.27 349.56,-243.51 348.76,-254.08 355.52,-252.27"/>
</g>
<!-- gen_end&#45;&gt;finish_air -->
<g id="edge15" class="edge">
<title>gen_end&#45;&gt;finish_air</title>
<path fill="none" stroke="black" d="M334.28,-207.26C327.63,-196.57 318.56,-181.98 309.01,-166.63"/>
<polygon fill="black" stroke="black" points="311.92,-164.69 303.67,-158.05 305.98,-168.39 311.92,-164.69"/>
</g>
</g>
</svg>
