<?xml version="1.0" encoding="UTF-8" standalone="no"?>
<!DOCTYPE svg PUBLIC "-//W3C//DTD SVG 1.1//EN"
 "http://www.w3.org/Graphics/SVG/1.1/DTD/svg11.dtd">
<!-- Generated by graphviz version 2.43.0 (0)
 -->
<!-- Title: genSetReg Pages: 1 -->
<svg width="1596pt" height="830pt"
 viewBox="0.00 0.00 1596.00 830.00" xmlns="http://www.w3.org/2000/svg" xmlns:xlink="http://www.w3.org/1999/xlink">
<g id="graph0" class="graph" transform="scale(1 1) rotate(0) translate(4 826)">
<title>genSetReg</title>
<polygon fill="white" stroke="transparent" points="-4,4 -4,-826 1592,-826 1592,4 -4,4"/>
<g id="clust1" class="cluster">
<title>cluster_main</title>
<polygon fill="none" stroke="black" points="74,-611 74,-759 1573,-759 1573,-611 74,-611"/>
<text text-anchor="middle" x="823.5" y="-743.8" font-family="Times,serif" font-size="14.00">MCV 类型处理</text>
</g>
<g id="clust2" class="cluster">
<title>cluster_undef</title>
<polygon fill="none" stroke="black" points="526,-8 526,-249 761,-249 761,-8 526,-8"/>
<text text-anchor="middle" x="643.5" y="-233.8" font-family="Times,serif" font-size="14.00">.undef处理逻辑</text>
</g>
<g id="clust3" class="cluster">
<title>cluster_immediate</title>
<polygon fill="none" stroke="black" points="8,-8 8,-592 248,-592 248,-8 8,-8"/>
<text text-anchor="middle" x="128" y="-576.8" font-family="Times,serif" font-size="14.00">.immediate处理逻辑</text>
</g>
<g id="clust4" class="cluster">
<title>cluster_register</title>
<polygon fill="none" stroke="black" points="922,-91 922,-249 1104,-249 1104,-91 922,-91"/>
<text text-anchor="middle" x="1013" y="-233.8" font-family="Times,serif" font-size="14.00">.register处理逻辑</text>
</g>
<g id="clust5" class="cluster">
<title>cluster_memory</title>
<polygon fill="none" stroke="black" points="256,-444 256,-592 448,-592 448,-444 256,-444"/>
<text text-anchor="middle" x="352" y="-576.8" font-family="Times,serif" font-size="14.00">.memory处理逻辑</text>
</g>
<!-- start -->
<g id="node1" class="node">
<title>start</title>
<polygon fill="none" stroke="black" points="790,-822 700,-822 700,-786 790,-786 790,-822"/>
<text text-anchor="middle" x="745" y="-801.5" font-family="Courier,monospace" font-size="10.00">genSetReg开始</text>
</g>
<!-- switch_mcv -->
<g id="node3" class="node">
<title>switch_mcv</title>
<polygon fill="none" stroke="black" points="789.5,-728 700.5,-728 700.5,-692 789.5,-692 789.5,-728"/>
<text text-anchor="middle" x="745" y="-707.5" font-family="Courier,monospace" font-size="10.00">switch (mcv)</text>
</g>
<!-- start&#45;&gt;switch_mcv -->
<g id="edge1" class="edge">
<title>start&#45;&gt;switch_mcv</title>
<path fill="none" stroke="black" d="M745,-785.7C745,-772.46 745,-753.95 745,-738.66"/>
<polygon fill="black" stroke="black" points="748.5,-738.23 745,-728.23 741.5,-738.23 748.5,-738.23"/>
</g>
<!-- end -->
<g id="node2" class="node">
<title>end</title>
<polygon fill="none" stroke="black" points="728,-52 638,-52 638,-16 728,-16 728,-52"/>
<text text-anchor="middle" x="683" y="-31.5" font-family="Courier,monospace" font-size="10.00">genSetReg结束</text>
</g>
<!-- case_dead -->
<g id="node4" class="node">
<title>case_dead</title>
<polygon fill="none" stroke="black" points="396.5,-655 313.5,-655 313.5,-619 396.5,-619 396.5,-655"/>
<text text-anchor="middle" x="355" y="-640" font-family="Courier,monospace" font-size="10.00">case .dead</text>
<text text-anchor="middle" x="355" y="-629" font-family="Courier,monospace" font-size="10.00">unreachable</text>
</g>
<!-- switch_mcv&#45;&gt;case_dead -->
<g id="edge2" class="edge">
<title>switch_mcv&#45;&gt;case_dead</title>
<path fill="none" stroke="black" d="M700.39,-704.26C637.03,-697 517.33,-681.4 406.59,-654.91"/>
<polygon fill="black" stroke="black" points="407.13,-651.44 396.59,-652.48 405.48,-658.24 407.13,-651.44"/>
</g>
<!-- case_unreach_none -->
<g id="node5" class="node">
<title>case_unreach_none</title>
<polygon fill="none" stroke="black" points="551.5,-655 414.5,-655 414.5,-619 551.5,-619 551.5,-655"/>
<text text-anchor="middle" x="483" y="-640" font-family="Courier,monospace" font-size="10.00">case .unreach, .none</text>
<text text-anchor="middle" x="483" y="-629" font-family="Courier,monospace" font-size="10.00">return</text>
</g>
<!-- switch_mcv&#45;&gt;case_unreach_none -->
<g id="edge3" class="edge">
<title>switch_mcv&#45;&gt;case_unreach_none</title>
<path fill="none" stroke="black" d="M700.26,-696.88C660.69,-686.15 602.22,-670.31 555.9,-657.75"/>
<polygon fill="black" stroke="black" points="556.78,-654.37 546.21,-655.13 554.95,-661.12 556.78,-654.37"/>
</g>
<!-- case_undef -->
<g id="node6" class="node">
<title>case_undef</title>
<polygon fill="none" stroke="black" points="652.5,-655 569.5,-655 569.5,-619 652.5,-619 652.5,-655"/>
<text text-anchor="middle" x="611" y="-634.5" font-family="Courier,monospace" font-size="10.00">case .undef</text>
</g>
<!-- switch_mcv&#45;&gt;case_undef -->
<g id="edge4" class="edge">
<title>switch_mcv&#45;&gt;case_undef</title>
<path fill="none" stroke="black" d="M712.9,-691.99C694.72,-682.36 671.78,-670.21 652.28,-659.87"/>
<polygon fill="black" stroke="black" points="653.77,-656.7 643.3,-655.11 650.5,-662.89 653.77,-656.7"/>
</g>
<!-- case_ptr_stack_offset -->
<g id="node7" class="node">
<title>case_ptr_stack_offset</title>
<polygon fill="none" stroke="black" points="819.5,-655 670.5,-655 670.5,-619 819.5,-619 819.5,-655"/>
<text text-anchor="middle" x="745" y="-634.5" font-family="Courier,monospace" font-size="10.00">case .ptr_stack_offset</text>
</g>
<!-- switch_mcv&#45;&gt;case_ptr_stack_offset -->
<g id="edge5" class="edge">
<title>switch_mcv&#45;&gt;case_ptr_stack_offset</title>
<path fill="none" stroke="black" d="M745,-691.81C745,-683.79 745,-674.05 745,-665.07"/>
<polygon fill="black" stroke="black" points="748.5,-665.03 745,-655.03 741.5,-665.03 748.5,-665.03"/>
</g>
<!-- case_compare_flags -->
<g id="node8" class="node">
<title>case_compare_flags</title>
<polygon fill="none" stroke="black" points="968.5,-655 837.5,-655 837.5,-619 968.5,-619 968.5,-655"/>
<text text-anchor="middle" x="903" y="-634.5" font-family="Courier,monospace" font-size="10.00">case .compare_flags</text>
</g>
<!-- switch_mcv&#45;&gt;case_compare_flags -->
<g id="edge6" class="edge">
<title>switch_mcv&#45;&gt;case_compare_flags</title>
<path fill="none" stroke="black" d="M782.84,-691.99C804.67,-682.19 832.31,-669.77 855.58,-659.31"/>
<polygon fill="black" stroke="black" points="857.23,-662.4 864.92,-655.11 854.36,-656.02 857.23,-662.4"/>
</g>
<!-- case_immediate -->
<g id="node9" class="node">
<title>case_immediate</title>
<polygon fill="none" stroke="black" points="188.5,-655 81.5,-655 81.5,-619 188.5,-619 188.5,-655"/>
<text text-anchor="middle" x="135" y="-634.5" font-family="Courier,monospace" font-size="10.00">case .immediate</text>
</g>
<!-- switch_mcv&#45;&gt;case_immediate -->
<g id="edge7" class="edge">
<title>switch_mcv&#45;&gt;case_immediate</title>
<path fill="none" stroke="black" d="M700.34,-707.09C608.19,-702.62 390.3,-689.26 198.79,-654.96"/>
<polygon fill="black" stroke="black" points="199.29,-651.49 188.82,-653.15 198.04,-658.38 199.29,-651.49"/>
</g>
<!-- case_register -->
<g id="node10" class="node">
<title>case_register</title>
<polygon fill="none" stroke="black" points="1087.5,-655 986.5,-655 986.5,-619 1087.5,-619 1087.5,-655"/>
<text text-anchor="middle" x="1037" y="-634.5" font-family="Courier,monospace" font-size="10.00">case .register</text>
</g>
<!-- switch_mcv&#45;&gt;case_register -->
<g id="edge8" class="edge">
<title>switch_mcv&#45;&gt;case_register</title>
<path fill="none" stroke="black" d="M789.84,-699.35C834.77,-689.51 906.12,-673.44 976.31,-655.38"/>
<polygon fill="black" stroke="black" points="977.39,-658.72 986.2,-652.82 975.64,-651.94 977.39,-658.72"/>
</g>
<!-- case_linker_load -->
<g id="node11" class="node">
<title>case_linker_load</title>
<polygon fill="none" stroke="black" points="1224.5,-655 1105.5,-655 1105.5,-619 1224.5,-619 1224.5,-655"/>
<text text-anchor="middle" x="1165" y="-634.5" font-family="Courier,monospace" font-size="10.00">case .linker_load</text>
</g>
<!-- switch_mcv&#45;&gt;case_linker_load -->
<g id="edge9" class="edge">
<title>switch_mcv&#45;&gt;case_linker_load</title>
<path fill="none" stroke="black" d="M789.69,-703.5C854.86,-695.17 979.95,-678.08 1095.31,-655.25"/>
<polygon fill="black" stroke="black" points="1096.25,-658.63 1105.37,-653.24 1094.87,-651.77 1096.25,-658.63"/>
</g>
<!-- case_memory -->
<g id="node12" class="node">
<title>case_memory</title>
<polygon fill="none" stroke="black" points="295.5,-655 206.5,-655 206.5,-619 295.5,-619 295.5,-655"/>
<text text-anchor="middle" x="251" y="-634.5" font-family="Courier,monospace" font-size="10.00">case .memory</text>
</g>
<!-- switch_mcv&#45;&gt;case_memory -->
<g id="edge10" class="edge">
<title>switch_mcv&#45;&gt;case_memory</title>
<path fill="none" stroke="black" d="M700.21,-706.22C621.87,-700.77 454.9,-686.54 305.44,-654.85"/>
<polygon fill="black" stroke="black" points="306.13,-651.42 295.62,-652.74 304.66,-658.26 306.13,-651.42"/>
</g>
<!-- case_stack_offset -->
<g id="node13" class="node">
<title>case_stack_offset</title>
<polygon fill="none" stroke="black" points="1367.5,-655 1242.5,-655 1242.5,-619 1367.5,-619 1367.5,-655"/>
<text text-anchor="middle" x="1305" y="-634.5" font-family="Courier,monospace" font-size="10.00">case .stack_offset</text>
</g>
<!-- switch_mcv&#45;&gt;case_stack_offset -->
<g id="edge11" class="edge">
<title>switch_mcv&#45;&gt;case_stack_offset</title>
<path fill="none" stroke="black" d="M789.76,-705.94C874.45,-699.74 1064.01,-683.93 1232.34,-655.18"/>
<polygon fill="black" stroke="black" points="1233.11,-658.6 1242.37,-653.45 1231.92,-651.7 1233.11,-658.6"/>
</g>
<!-- case_stack_argument_offset -->
<g id="node14" class="node">
<title>case_stack_argument_offset</title>
<polygon fill="none" stroke="black" points="1564.5,-655 1385.5,-655 1385.5,-619 1564.5,-619 1564.5,-655"/>
<text text-anchor="middle" x="1475" y="-634.5" font-family="Courier,monospace" font-size="10.00">case .stack_argument_offset</text>
</g>
<!-- switch_mcv&#45;&gt;case_stack_argument_offset -->
<g id="edge12" class="edge">
<title>switch_mcv&#45;&gt;case_stack_argument_offset</title>
<path fill="none" stroke="black" d="M789.58,-706.52C891.55,-700.57 1149.77,-683.86 1375.29,-655.16"/>
<polygon fill="black" stroke="black" points="1375.85,-658.62 1385.33,-653.88 1374.96,-651.68 1375.85,-658.62"/>
</g>
<!-- case_dead&#45;&gt;end -->
<g id="edge35" class="edge">
<title>case_dead&#45;&gt;end</title>
<path fill="none" stroke="black" d="M389.15,-618.89C394.75,-616.19 400.52,-613.47 406,-611 426.16,-601.91 436.92,-608.18 452,-592 467.34,-575.55 468,-566.49 468,-544 468,-544 468,-544 468,-116 468,-86.13 490.15,-83.08 517,-70 551.68,-53.11 594.31,-44.34 627.69,-39.81"/>
<polygon fill="black" stroke="black" points="628.26,-43.26 637.74,-38.53 627.37,-36.32 628.26,-43.26"/>
<text text-anchor="middle" x="478" y="-343" font-family="Courier,monospace" font-size="10.00">终止</text>
</g>
<!-- case_unreach_none&#45;&gt;end -->
<g id="edge36" class="edge">
<title>case_unreach_none&#45;&gt;end</title>
<path fill="none" stroke="black" d="M490.03,-618.69C496.79,-600.43 506,-570.67 506,-544 506,-544 506,-544 506,-116 506,-61.67 575.82,-43.63 627.75,-37.73"/>
<polygon fill="black" stroke="black" points="628.28,-41.2 637.88,-36.71 627.58,-34.23 628.28,-41.2"/>
</g>
<!-- undef_check_safety -->
<g id="node15" class="node">
<title>undef_check_safety</title>
<polygon fill="none" stroke="black" points="689.5,-218 534.5,-218 534.5,-182 689.5,-182 689.5,-218"/>
<text text-anchor="middle" x="612" y="-203" font-family="Courier,monospace" font-size="10.00">if (!self.wantSafety())</text>
<text text-anchor="middle" x="612" y="-192" font-family="Courier,monospace" font-size="10.00">return</text>
</g>
<!-- case_undef&#45;&gt;undef_check_safety -->
<g id="edge13" class="edge">
<title>case_undef&#45;&gt;undef_check_safety</title>
<path fill="none" stroke="black" d="M611.3,-618.71C611.59,-600.21 612,-570.04 612,-544 612,-544 612,-544 612,-303 612,-277.78 612,-249.06 612,-228.53"/>
<polygon fill="black" stroke="black" points="615.5,-228.33 612,-218.33 608.5,-228.33 615.5,-228.33"/>
</g>
<!-- case_ptr_stack_offset&#45;&gt;end -->
<g id="edge37" class="edge">
<title>case_ptr_stack_offset&#45;&gt;end</title>
<path fill="none" stroke="black" d="M756.19,-618.8C766.76,-600.88 781,-571.61 781,-544 781,-544 781,-544 781,-116 781,-94.63 781.34,-85.84 767,-70 758.97,-61.12 748.33,-54.44 737.33,-49.42"/>
<polygon fill="black" stroke="black" points="738.64,-46.17 728.06,-45.59 735.96,-52.64 738.64,-46.17"/>
<text text-anchor="middle" x="830" y="-343" font-family="Courier,monospace" font-size="10.00">生成ldr_ptr_stack</text>
</g>
<!-- case_compare_flags&#45;&gt;end -->
<g id="edge38" class="edge">
<title>case_compare_flags&#45;&gt;end</title>
<path fill="none" stroke="black" d="M902.7,-618.71C902.41,-600.21 902,-570.04 902,-544 902,-544 902,-544 902,-116 902,-81.13 803.09,-56.54 738.21,-44.17"/>
<polygon fill="black" stroke="black" points="738.58,-40.68 728.11,-42.29 737.3,-47.56 738.58,-40.68"/>
<text text-anchor="middle" x="924" y="-343" font-family="Courier,monospace" font-size="10.00">生成cset</text>
</g>
<!-- imm_movz -->
<g id="node17" class="node">
<title>imm_movz</title>
<polygon fill="none" stroke="black" points="175,-561 95,-561 95,-525 175,-525 175,-561"/>
<text text-anchor="middle" x="135" y="-540.5" font-family="Courier,monospace" font-size="10.00">生成movz指令</text>
</g>
<!-- case_immediate&#45;&gt;imm_movz -->
<g id="edge17" class="edge">
<title>case_immediate&#45;&gt;imm_movz</title>
<path fill="none" stroke="black" d="M135,-618.7C135,-605.46 135,-586.95 135,-571.66"/>
<polygon fill="black" stroke="black" points="138.5,-571.23 135,-561.23 131.5,-571.23 138.5,-571.23"/>
</g>
<!-- reg_check_id -->
<g id="node24" class="node">
<title>reg_check_id</title>
<polygon fill="none" stroke="black" points="1096.5,-218 929.5,-218 929.5,-182 1096.5,-182 1096.5,-218"/>
<text text-anchor="middle" x="1013" y="-197.5" font-family="Courier,monospace" font-size="10.00">src_reg.id() == reg.id()?</text>
</g>
<!-- case_register&#45;&gt;reg_check_id -->
<g id="edge28" class="edge">
<title>case_register&#45;&gt;reg_check_id</title>
<path fill="none" stroke="black" d="M1033.4,-618.79C1029.86,-600.37 1025,-570.26 1025,-544 1025,-544 1025,-544 1025,-303 1025,-277.49 1021.25,-248.64 1017.95,-228.15"/>
<polygon fill="black" stroke="black" points="1021.39,-227.53 1016.28,-218.25 1014.49,-228.7 1021.39,-227.53"/>
</g>
<!-- case_linker_load&#45;&gt;end -->
<g id="edge39" class="edge">
<title>case_linker_load&#45;&gt;end</title>
<path fill="none" stroke="black" d="M1161.4,-618.79C1157.86,-600.37 1153,-570.26 1153,-544 1153,-544 1153,-544 1153,-116 1153,-69.49 1104.08,-81.46 1059,-70 947.49,-41.66 812.16,-35.73 738.08,-34.8"/>
<polygon fill="black" stroke="black" points="738.08,-31.3 728.04,-34.7 738.01,-38.3 738.08,-31.3"/>
<text text-anchor="middle" x="1193" y="-343" font-family="Courier,monospace" font-size="10.00">TODO处理/panic</text>
</g>
<!-- mem_gen_reg -->
<g id="node26" class="node">
<title>mem_gen_reg</title>
<polygon fill="none" stroke="black" points="440,-561 264,-561 264,-525 440,-525 440,-561"/>
<text text-anchor="middle" x="352" y="-540.5" font-family="Courier,monospace" font-size="10.00">递归调用genSetReg(reg.toX())</text>
</g>
<!-- case_memory&#45;&gt;mem_gen_reg -->
<g id="edge32" class="edge">
<title>case_memory&#45;&gt;mem_gen_reg</title>
<path fill="none" stroke="black" d="M270,-618.7C285.66,-604.43 308.04,-584.04 325.47,-568.16"/>
<polygon fill="black" stroke="black" points="328.05,-570.55 333.09,-561.23 323.34,-565.37 328.05,-570.55"/>
</g>
<!-- case_stack_offset&#45;&gt;end -->
<g id="edge40" class="edge">
<title>case_stack_offset&#45;&gt;end</title>
<path fill="none" stroke="black" d="M1299.3,-618.92C1293.7,-600.61 1286,-570.58 1286,-544 1286,-544 1286,-544 1286,-116 1286,-61.07 887.9,-41.93 738.63,-36.68"/>
<polygon fill="black" stroke="black" points="738.44,-33.17 728.32,-36.33 738.2,-40.17 738.44,-33.17"/>
<text text-anchor="middle" x="1349.5" y="-343" font-family="Courier,monospace" font-size="10.00">根据abi_size生成对应指令</text>
</g>
<!-- case_stack_argument_offset&#45;&gt;end -->
<g id="edge41" class="edge">
<title>case_stack_argument_offset&#45;&gt;end</title>
<path fill="none" stroke="black" d="M1470.8,-618.82C1466.68,-600.43 1461,-570.33 1461,-544 1461,-544 1461,-544 1461,-116 1461,-43.27 916.16,-35.54 738.37,-34.96"/>
<polygon fill="black" stroke="black" points="738.2,-31.46 728.19,-34.93 738.18,-38.46 738.2,-31.46"/>
<text text-anchor="middle" x="1524.5" y="-343" font-family="Courier,monospace" font-size="10.00">根据abi_size生成对应指令</text>
</g>
<!-- undef_check_safety&#45;&gt;end -->
<g id="edge14" class="edge">
<title>undef_check_safety&#45;&gt;end</title>
<path fill="none" stroke="black" d="M593.29,-181.83C571.73,-159.9 541.64,-121.2 561,-91 575.88,-67.79 603.06,-54.08 628,-46.03"/>
<polygon fill="black" stroke="black" points="629.19,-49.33 637.77,-43.12 627.19,-42.62 629.19,-49.33"/>
<text text-anchor="middle" x="590.5" y="-114.5" font-family="Courier,monospace" font-size="10.00">安全检查通过</text>
</g>
<!-- undef_write_debug -->
<g id="node16" class="node">
<title>undef_write_debug</title>
<polygon fill="none" stroke="black" points="753,-135 629,-135 629,-99 753,-99 753,-135"/>
<text text-anchor="middle" x="691" y="-114.5" font-family="Courier,monospace" font-size="10.00">根据寄存器大小写立即数</text>
</g>
<!-- undef_check_safety&#45;&gt;undef_write_debug -->
<g id="edge15" class="edge">
<title>undef_check_safety&#45;&gt;undef_write_debug</title>
<path fill="none" stroke="black" d="M628.75,-181.82C639.86,-170.44 654.6,-155.33 666.94,-142.66"/>
<polygon fill="black" stroke="black" points="669.79,-144.76 674.27,-135.15 664.78,-139.87 669.79,-144.76"/>
<text text-anchor="middle" x="680.5" y="-156" font-family="Courier,monospace" font-size="10.00">需要调试值</text>
</g>
<!-- undef_write_debug&#45;&gt;end -->
<g id="edge16" class="edge">
<title>undef_write_debug&#45;&gt;end</title>
<path fill="none" stroke="black" d="M680.12,-98.83C677.22,-93.35 674.48,-87.11 673,-81 671.52,-74.89 671.83,-68.31 672.99,-62.08"/>
<polygon fill="black" stroke="black" points="676.46,-62.64 675.58,-52.08 669.69,-60.89 676.46,-62.64"/>
<text text-anchor="middle" x="720" y="-73" font-family="Courier,monospace" font-size="10.00">递归调用genSetReg</text>
</g>
<!-- imm_check_16bit -->
<g id="node18" class="node">
<title>imm_check_16bit</title>
<polygon fill="none" stroke="black" points="228,-488 42,-488 42,-452 228,-452 228,-488"/>
<text text-anchor="middle" x="135" y="-467.5" font-family="Courier,monospace" font-size="10.00">检查x &amp; 0x0000_0000_ffff_0000</text>
</g>
<!-- imm_movz&#45;&gt;imm_check_16bit -->
<g id="edge18" class="edge">
<title>imm_movz&#45;&gt;imm_check_16bit</title>
<path fill="none" stroke="black" d="M135,-524.81C135,-516.79 135,-507.05 135,-498.07"/>
<polygon fill="black" stroke="black" points="138.5,-498.03 135,-488.03 131.5,-498.03 138.5,-498.03"/>
</g>
<!-- imm_movk_16 -->
<g id="node19" class="node">
<title>imm_movk_16</title>
<polygon fill="none" stroke="black" points="152,-405 50,-405 50,-369 152,-369 152,-405"/>
<text text-anchor="middle" x="101" y="-384.5" font-family="Courier,monospace" font-size="10.00">生成movk (hw=1)</text>
</g>
<!-- imm_check_16bit&#45;&gt;imm_movk_16 -->
<g id="edge19" class="edge">
<title>imm_check_16bit&#45;&gt;imm_movk_16</title>
<path fill="none" stroke="black" d="M127.79,-451.82C123.24,-440.98 117.26,-426.74 112.11,-414.47"/>
<polygon fill="black" stroke="black" points="115.3,-413.02 108.2,-405.15 108.84,-415.73 115.3,-413.02"/>
<text text-anchor="middle" x="131" y="-426" font-family="Courier,monospace" font-size="10.00">非零</text>
</g>
<!-- imm_check_32bit -->
<g id="node20" class="node">
<title>imm_check_32bit</title>
<polygon fill="none" stroke="black" points="221,-322 35,-322 35,-286 221,-286 221,-322"/>
<text text-anchor="middle" x="128" y="-301.5" font-family="Courier,monospace" font-size="10.00">检查x &amp; 0x0000_ffff_0000_0000</text>
</g>
<!-- imm_check_16bit&#45;&gt;imm_check_32bit -->
<g id="edge20" class="edge">
<title>imm_check_16bit&#45;&gt;imm_check_32bit</title>
<path fill="none" stroke="black" d="M144.8,-451.7C154.85,-431.8 168.06,-398.11 161,-369 157.78,-355.71 151.28,-342.1 144.9,-330.86"/>
<polygon fill="black" stroke="black" points="147.77,-328.83 139.64,-322.04 141.76,-332.42 147.77,-328.83"/>
<text text-anchor="middle" x="167" y="-384.5" font-family="Courier,monospace" font-size="10.00">零</text>
</g>
<!-- imm_movk_16&#45;&gt;imm_check_32bit -->
<g id="edge21" class="edge">
<title>imm_movk_16&#45;&gt;imm_check_32bit</title>
<path fill="none" stroke="black" d="M106.73,-368.82C110.31,-358.08 114.99,-344.03 119.05,-331.84"/>
<polygon fill="black" stroke="black" points="122.44,-332.75 122.28,-322.15 115.8,-330.53 122.44,-332.75"/>
</g>
<!-- imm_movk_32 -->
<g id="node21" class="node">
<title>imm_movk_32</title>
<polygon fill="none" stroke="black" points="118,-218 16,-218 16,-182 118,-182 118,-218"/>
<text text-anchor="middle" x="67" y="-197.5" font-family="Courier,monospace" font-size="10.00">生成movk (hw=2)</text>
</g>
<!-- imm_check_32bit&#45;&gt;imm_movk_32 -->
<g id="edge22" class="edge">
<title>imm_check_32bit&#45;&gt;imm_movk_32</title>
<path fill="none" stroke="black" d="M71.94,-285.88C64.43,-281.25 57.71,-275.39 53,-268 45.37,-256.02 47.92,-240.62 52.8,-227.61"/>
<polygon fill="black" stroke="black" points="56.11,-228.78 56.86,-218.22 49.68,-226 56.11,-228.78"/>
<text text-anchor="middle" x="101" y="-260" font-family="Courier,monospace" font-size="10.00">非零且reg.size=64</text>
</g>
<!-- imm_check_48bit -->
<g id="node22" class="node">
<title>imm_check_48bit</title>
<polygon fill="none" stroke="black" points="239,-135 53,-135 53,-99 239,-99 239,-135"/>
<text text-anchor="middle" x="146" y="-114.5" font-family="Courier,monospace" font-size="10.00">检查x &amp; 0xffff_0000_0000_0000</text>
</g>
<!-- imm_check_32bit&#45;&gt;imm_check_48bit -->
<g id="edge23" class="edge">
<title>imm_check_32bit&#45;&gt;imm_check_48bit</title>
<path fill="none" stroke="black" d="M140.89,-285.69C144.2,-280.3 147.3,-274.15 149,-268 160.57,-226.23 155.83,-175.4 151.1,-144.92"/>
<polygon fill="black" stroke="black" points="154.55,-144.33 149.45,-135.04 147.64,-145.48 154.55,-144.33"/>
<text text-anchor="middle" x="199" y="-197.5" font-family="Courier,monospace" font-size="10.00">零或reg.size≠64</text>
</g>
<!-- imm_movk_32&#45;&gt;imm_check_48bit -->
<g id="edge24" class="edge">
<title>imm_movk_32&#45;&gt;imm_check_48bit</title>
<path fill="none" stroke="black" d="M83.75,-181.82C94.86,-170.44 109.6,-155.33 121.94,-142.66"/>
<polygon fill="black" stroke="black" points="124.79,-144.76 129.27,-135.15 119.78,-139.87 124.79,-144.76"/>
</g>
<!-- imm_check_48bit&#45;&gt;end -->
<g id="edge26" class="edge">
<title>imm_check_48bit&#45;&gt;end</title>
<path fill="none" stroke="black" d="M199.88,-98.99C240.83,-86.09 290.55,-70.49 293,-70 410.65,-46.59 551.4,-38.83 627.51,-36.26"/>
<polygon fill="black" stroke="black" points="627.93,-39.75 637.81,-35.93 627.7,-32.75 627.93,-39.75"/>
<text text-anchor="middle" x="336" y="-73" font-family="Courier,monospace" font-size="10.00">零或reg.size≠64</text>
</g>
<!-- imm_movk_48 -->
<g id="node23" class="node">
<title>imm_movk_48</title>
<polygon fill="none" stroke="black" points="217,-52 115,-52 115,-16 217,-16 217,-52"/>
<text text-anchor="middle" x="166" y="-31.5" font-family="Courier,monospace" font-size="10.00">生成movk (hw=3)</text>
</g>
<!-- imm_check_48bit&#45;&gt;imm_movk_48 -->
<g id="edge25" class="edge">
<title>imm_check_48bit&#45;&gt;imm_movk_48</title>
<path fill="none" stroke="black" d="M150.24,-98.82C152.87,-88.19 156.29,-74.31 159.28,-62.2"/>
<polygon fill="black" stroke="black" points="162.77,-62.7 161.76,-52.15 155.97,-61.02 162.77,-62.7"/>
<text text-anchor="middle" x="205" y="-73" font-family="Courier,monospace" font-size="10.00">非零且reg.size=64</text>
</g>
<!-- imm_movk_48&#45;&gt;end -->
<g id="edge27" class="edge">
<title>imm_movk_48&#45;&gt;end</title>
<path fill="none" stroke="black" d="M217.25,-34C354.06,-34 490.88,-34 627.7,-34"/>
<polygon fill="black" stroke="black" points="627.97,-37.5 637.97,-34 627.97,-30.5 627.97,-37.5"/>
</g>
<!-- reg_check_id&#45;&gt;end -->
<g id="edge29" class="edge">
<title>reg_check_id&#45;&gt;end</title>
<path fill="none" stroke="black" d="M1032.92,-181.81C1056.77,-159.18 1090.71,-118.99 1067,-91 1025.67,-42.21 834.48,-34.98 738.41,-34.51"/>
<polygon fill="black" stroke="black" points="738.31,-31.01 728.3,-34.48 738.29,-38.01 738.31,-31.01"/>
<text text-anchor="middle" x="1085" y="-114.5" font-family="Courier,monospace" font-size="10.00">相等</text>
</g>
<!-- reg_mov -->
<g id="node25" class="node">
<title>reg_mov</title>
<polygon fill="none" stroke="black" points="1058,-135 930,-135 930,-99 1058,-99 1058,-135"/>
<text text-anchor="middle" x="994" y="-114.5" font-family="Courier,monospace" font-size="10.00">生成mov_register指令</text>
</g>
<!-- reg_check_id&#45;&gt;reg_mov -->
<g id="edge30" class="edge">
<title>reg_check_id&#45;&gt;reg_mov</title>
<path fill="none" stroke="black" d="M1008.97,-181.82C1006.48,-171.19 1003.22,-157.31 1000.38,-145.2"/>
<polygon fill="black" stroke="black" points="1003.71,-144.09 998.02,-135.15 996.9,-145.69 1003.71,-144.09"/>
<text text-anchor="middle" x="1014" y="-156" font-family="Courier,monospace" font-size="10.00">不等</text>
</g>
<!-- reg_mov&#45;&gt;end -->
<g id="edge31" class="edge">
<title>reg_mov&#45;&gt;end</title>
<path fill="none" stroke="black" d="M970.59,-98.96C955.68,-88.95 935.56,-76.94 916,-70 857.46,-49.23 786.38,-40.78 738.24,-37.35"/>
<polygon fill="black" stroke="black" points="738.24,-33.84 728.03,-36.67 737.78,-40.83 738.24,-33.84"/>
</g>
<!-- mem_gen_ldr -->
<g id="node27" class="node">
<title>mem_gen_ldr</title>
<polygon fill="none" stroke="black" points="410,-488 336,-488 336,-452 410,-452 410,-488"/>
<text text-anchor="middle" x="373" y="-467.5" font-family="Courier,monospace" font-size="10.00">生成ldr指令</text>
</g>
<!-- mem_gen_reg&#45;&gt;mem_gen_ldr -->
<g id="edge33" class="edge">
<title>mem_gen_reg&#45;&gt;mem_gen_ldr</title>
<path fill="none" stroke="black" d="M357.08,-524.81C359.48,-516.7 362.4,-506.84 365.08,-497.78"/>
<polygon fill="black" stroke="black" points="368.48,-498.61 367.96,-488.03 361.77,-496.63 368.48,-498.61"/>
</g>
<!-- mem_gen_ldr&#45;&gt;end -->
<g id="edge34" class="edge">
<title>mem_gen_ldr&#45;&gt;end</title>
<path fill="none" stroke="black" d="M379.77,-451.92C385.57,-435.73 393,-410.6 393,-388 393,-388 393,-388 393,-116 393,-67.83 543.32,-47.03 627.51,-39.16"/>
<polygon fill="black" stroke="black" points="628.04,-42.63 637.69,-38.25 627.41,-35.66 628.04,-42.63"/>
</g>
</g>
</svg>
