<?xml version="1.0" encoding="UTF-8" standalone="no"?>
<!DOCTYPE svg PUBLIC "-//W3C//DTD SVG 1.1//EN"
 "http://www.w3.org/Graphics/SVG/1.1/DTD/svg11.dtd">
<!-- Generated by graphviz version 2.43.0 (0)
 -->
<!-- Title: flowchart Pages: 1 -->
<svg width="770pt" height="1031pt"
 viewBox="0.00 0.00 770.00 1031.00" xmlns="http://www.w3.org/2000/svg" xmlns:xlink="http://www.w3.org/1999/xlink">
<g id="graph0" class="graph" transform="scale(1 1) rotate(0) translate(4 1027)">
<title>flowchart</title>
<polygon fill="white" stroke="transparent" points="-4,4 -4,-1027 766,-1027 766,4 -4,4"/>
<!-- start -->
<g id="node1" class="node">
<title>start</title>
<polygon fill="none" stroke="black" points="737,-1023 626,-1023 626,-987 737,-987 737,-1023"/>
<text text-anchor="middle" x="681.5" y="-1002.5" font-family="Courier,monospace" font-size="10.00">开始: emit函数入口</text>
</g>
<!-- init_vars -->
<g id="node2" class="node">
<title>init_vars</title>
<polygon fill="none" stroke="black" points="762,-950 601,-950 601,-898 762,-898 762,-950"/>
<text text-anchor="middle" x="681.5" y="-938" font-family="Courier,monospace" font-size="10.00">初始化变量</text>
<text text-anchor="middle" x="681.5" y="-927" font-family="Courier,monospace" font-size="10.00">emit_prefix = prefix</text>
<text text-anchor="middle" x="681.5" y="-916" font-family="Courier,monospace" font-size="10.00">emit_mnemonic = mnemonic</text>
<text text-anchor="middle" x="681.5" y="-905" font-family="Courier,monospace" font-size="10.00">emit_ops_storage分配</text>
</g>
<!-- start&#45;&gt;init_vars -->
<g id="edge1" class="edge">
<title>start&#45;&gt;init_vars</title>
<path fill="none" stroke="black" d="M681.5,-986.86C681.5,-979.08 681.5,-969.57 681.5,-960.37"/>
<polygon fill="black" stroke="black" points="685,-960.21 681.5,-950.21 678,-960.21 685,-960.21"/>
</g>
<!-- loop_start -->
<g id="node3" class="node">
<title>loop_start</title>
<polygon fill="none" stroke="black" points="751.5,-861 611.5,-861 611.5,-825 751.5,-825 751.5,-861"/>
<text text-anchor="middle" x="681.5" y="-840.5" font-family="Courier,monospace" font-size="10.00">循环遍历每个操作数 (ops)</text>
</g>
<!-- init_vars&#45;&gt;loop_start -->
<g id="edge2" class="edge">
<title>init_vars&#45;&gt;loop_start</title>
<path fill="none" stroke="black" d="M681.5,-897.57C681.5,-889.2 681.5,-879.85 681.5,-871.34"/>
<polygon fill="black" stroke="black" points="685,-871.15 681.5,-861.15 678,-871.15 685,-871.15"/>
</g>
<!-- check_op_type -->
<g id="node4" class="node">
<title>check_op_type</title>
<polygon fill="none" stroke="black" points="689,-788 604,-788 604,-752 689,-752 689,-788"/>
<text text-anchor="middle" x="646.5" y="-773" font-family="Courier,monospace" font-size="10.00">检查操作数类型</text>
<text text-anchor="middle" x="646.5" y="-762" font-family="Courier,monospace" font-size="10.00">switch(op)</text>
</g>
<!-- loop_start&#45;&gt;check_op_type -->
<g id="edge3" class="edge">
<title>loop_start&#45;&gt;check_op_type</title>
<path fill="none" stroke="black" d="M673.03,-824.81C668.94,-816.53 663.96,-806.41 659.41,-797.19"/>
<polygon fill="black" stroke="black" points="662.46,-795.45 654.89,-788.03 656.18,-798.55 662.46,-795.45"/>
</g>
<!-- handle_mem_op -->
<g id="node5" class="node">
<title>handle_mem_op</title>
<polygon fill="none" stroke="black" points="618,-705 515,-705 515,-669 618,-669 618,-705"/>
<text text-anchor="middle" x="566.5" y="-690" font-family="Courier,monospace" font-size="10.00">处理 .mem 操作数</text>
<text text-anchor="middle" x="566.5" y="-679" font-family="Courier,monospace" font-size="10.00">检查 base() 类型</text>
</g>
<!-- check_op_type&#45;&gt;handle_mem_op -->
<g id="edge4" class="edge">
<title>check_op_type&#45;&gt;handle_mem_op</title>
<path fill="none" stroke="black" d="M629.53,-751.82C618.19,-740.33 603.08,-725.04 590.51,-712.31"/>
<polygon fill="black" stroke="black" points="592.96,-709.81 583.44,-705.15 587.98,-714.73 592.96,-709.81"/>
<text text-anchor="middle" x="623" y="-726" font-family="Courier,monospace" font-size="10.00">.mem</text>
</g>
<!-- gen_inst -->
<g id="node17" class="node">
<title>gen_inst</title>
<polygon fill="none" stroke="black" points="571.5,-192 457.5,-192 457.5,-156 571.5,-156 571.5,-192"/>
<text text-anchor="middle" x="514.5" y="-177" font-family="Courier,monospace" font-size="10.00">生成指令并添加到</text>
<text text-anchor="middle" x="514.5" y="-166" font-family="Courier,monospace" font-size="10.00">result_insts 数组</text>
</g>
<!-- check_op_type&#45;&gt;gen_inst -->
<g id="edge5" class="edge">
<title>check_op_type&#45;&gt;gen_inst</title>
<path fill="none" stroke="black" d="M649.16,-751.98C651.49,-735.62 654.5,-710.19 654.5,-688 654.5,-688 654.5,-688 654.5,-256 654.5,-219.17 617.75,-198.81 581.9,-187.72"/>
<polygon fill="black" stroke="black" points="582.42,-184.23 571.85,-184.83 580.49,-190.96 582.42,-184.23"/>
<text text-anchor="middle" x="674.5" y="-487" font-family="Courier,monospace" font-size="10.00">其他类型</text>
</g>
<!-- handle_reloc -->
<g id="node6" class="node">
<title>handle_reloc</title>
<polygon fill="none" stroke="black" points="623,-622 458,-622 458,-586 623,-586 623,-622"/>
<text text-anchor="middle" x="540.5" y="-601.5" font-family="Courier,monospace" font-size="10.00">base 是 .reloc (重定位符号)</text>
</g>
<!-- handle_mem_op&#45;&gt;handle_reloc -->
<g id="edge6" class="edge">
<title>handle_mem_op&#45;&gt;handle_reloc</title>
<path fill="none" stroke="black" d="M560.99,-668.82C557.54,-658.08 553.03,-644.03 549.11,-631.84"/>
<polygon fill="black" stroke="black" points="552.39,-630.61 546.01,-622.15 545.73,-632.74 552.39,-630.61"/>
<text text-anchor="middle" x="574" y="-643" font-family="Courier,monospace" font-size="10.00">.reloc</text>
</g>
<!-- check_bin_format -->
<g id="node7" class="node">
<title>check_bin_format</title>
<polygon fill="none" stroke="black" points="599,-549 450,-549 450,-513 599,-513 599,-549"/>
<text text-anchor="middle" x="524.5" y="-534" font-family="Courier,monospace" font-size="10.00">检查二进制文件格式</text>
<text text-anchor="middle" x="524.5" y="-523" font-family="Courier,monospace" font-size="10.00">switch(lower.bin_file)</text>
</g>
<!-- handle_reloc&#45;&gt;check_bin_format -->
<g id="edge7" class="edge">
<title>handle_reloc&#45;&gt;check_bin_format</title>
<path fill="none" stroke="black" d="M536.63,-585.81C534.82,-577.79 532.62,-568.05 530.6,-559.07"/>
<polygon fill="black" stroke="black" points="533.95,-558.01 528.34,-549.03 527.12,-559.55 533.95,-558.01"/>
</g>
<!-- elf_case -->
<g id="node8" class="node">
<title>elf_case</title>
<polygon fill="none" stroke="black" points="436.5,-466 356.5,-466 356.5,-430 436.5,-430 436.5,-466"/>
<text text-anchor="middle" x="396.5" y="-445.5" font-family="Courier,monospace" font-size="10.00">ELF 文件处理</text>
</g>
<!-- check_bin_format&#45;&gt;elf_case -->
<g id="edge8" class="edge">
<title>check_bin_format&#45;&gt;elf_case</title>
<path fill="none" stroke="black" d="M497.35,-512.82C478.35,-500.79 452.76,-484.6 432.12,-471.54"/>
<polygon fill="black" stroke="black" points="433.93,-468.54 423.61,-466.15 430.18,-474.46 433.93,-468.54"/>
<text text-anchor="middle" x="481" y="-487" font-family="Courier,monospace" font-size="10.00">.elf</text>
</g>
<!-- macho_case -->
<g id="node13" class="node">
<title>macho_case</title>
<polygon fill="none" stroke="black" points="563.5,-466 465.5,-466 465.5,-430 563.5,-430 563.5,-466"/>
<text text-anchor="middle" x="514.5" y="-445.5" font-family="Courier,monospace" font-size="10.00">Mach&#45;O 文件处理</text>
</g>
<!-- check_bin_format&#45;&gt;macho_case -->
<g id="edge9" class="edge">
<title>check_bin_format&#45;&gt;macho_case</title>
<path fill="none" stroke="black" d="M522.38,-512.82C521.07,-502.19 519.35,-488.31 517.86,-476.2"/>
<polygon fill="black" stroke="black" points="521.32,-475.65 516.62,-466.15 514.37,-476.51 521.32,-475.65"/>
<text text-anchor="middle" x="539" y="-487" font-family="Courier,monospace" font-size="10.00">.macho</text>
</g>
<!-- other_format -->
<g id="node16" class="node">
<title>other_format</title>
<polygon fill="none" stroke="black" points="639,-412 544,-412 544,-376 639,-376 639,-412"/>
<text text-anchor="middle" x="591.5" y="-397" font-family="Courier,monospace" font-size="10.00">返回错误</text>
<text text-anchor="middle" x="591.5" y="-386" font-family="Courier,monospace" font-size="10.00">不支持的文件格式</text>
</g>
<!-- check_bin_format&#45;&gt;other_format -->
<g id="edge10" class="edge">
<title>check_bin_format&#45;&gt;other_format</title>
<path fill="none" stroke="black" d="M545.81,-512.93C551.46,-507.63 557.18,-501.47 561.5,-495 576.2,-472.94 583.9,-443.44 587.79,-422.2"/>
<polygon fill="black" stroke="black" points="591.27,-422.66 589.46,-412.22 584.36,-421.51 591.27,-422.66"/>
<text text-anchor="middle" x="578.5" y="-487" font-family="Courier,monospace" font-size="10.00">其他</text>
</g>
<!-- check_tls -->
<g id="node9" class="node">
<title>check_tls</title>
<polygon fill="none" stroke="black" points="321.5,-358 207.5,-358 207.5,-322 321.5,-322 321.5,-358"/>
<text text-anchor="middle" x="264.5" y="-337.5" font-family="Courier,monospace" font-size="10.00">检查是否是 TLS 符号</text>
</g>
<!-- elf_case&#45;&gt;check_tls -->
<g id="edge11" class="edge">
<title>elf_case&#45;&gt;check_tls</title>
<path fill="none" stroke="black" d="M375.29,-429.97C353.29,-412.3 318.72,-384.54 294.05,-364.73"/>
<polygon fill="black" stroke="black" points="296.08,-361.87 286.09,-358.34 291.7,-367.33 296.08,-361.87"/>
</g>
<!-- handle_tls_ld -->
<g id="node10" class="node">
<title>handle_tls_ld</title>
<polygon fill="none" stroke="black" points="139,-275 0,-275 0,-239 139,-239 139,-275"/>
<text text-anchor="middle" x="69.5" y="-254.5" font-family="Courier,monospace" font-size="10.00">处理 TLS LD 模型 (PIC)</text>
</g>
<!-- check_tls&#45;&gt;handle_tls_ld -->
<g id="edge12" class="edge">
<title>check_tls&#45;&gt;handle_tls_ld</title>
<path fill="none" stroke="black" d="M215.89,-321.92C200.92,-316.44 184.44,-310.18 169.5,-304 151.17,-296.42 131.27,-287.43 114.08,-279.41"/>
<polygon fill="black" stroke="black" points="115.38,-276.15 104.84,-275.07 112.41,-282.49 115.38,-276.15"/>
<text text-anchor="middle" x="206" y="-296" font-family="Courier,monospace" font-size="10.00">是 TLS 且 PIC</text>
</g>
<!-- handle_tls_le -->
<g id="node11" class="node">
<title>handle_tls_le</title>
<polygon fill="none" stroke="black" points="306,-275 157,-275 157,-239 306,-239 306,-275"/>
<text text-anchor="middle" x="231.5" y="-254.5" font-family="Courier,monospace" font-size="10.00">处理 TLS LE 模型 (非PIC)</text>
</g>
<!-- check_tls&#45;&gt;handle_tls_le -->
<g id="edge13" class="edge">
<title>check_tls&#45;&gt;handle_tls_le</title>
<path fill="none" stroke="black" d="M257.5,-321.82C253.08,-310.98 247.28,-296.74 242.29,-284.47"/>
<polygon fill="black" stroke="black" points="245.5,-283.09 238.49,-275.15 239.02,-285.73 245.5,-283.09"/>
<text text-anchor="middle" x="291.5" y="-296" font-family="Courier,monospace" font-size="10.00">是 TLS 且非 PIC</text>
</g>
<!-- check_mnemonic_elf -->
<g id="node12" class="node">
<title>check_mnemonic_elf</title>
<polygon fill="none" stroke="black" points="439,-275 324,-275 324,-239 439,-239 439,-275"/>
<text text-anchor="middle" x="381.5" y="-260" font-family="Courier,monospace" font-size="10.00">根据 mnemonic 处理</text>
<text text-anchor="middle" x="381.5" y="-249" font-family="Courier,monospace" font-size="10.00">lea/mov/call</text>
</g>
<!-- check_tls&#45;&gt;check_mnemonic_elf -->
<g id="edge14" class="edge">
<title>check_tls&#45;&gt;check_mnemonic_elf</title>
<path fill="none" stroke="black" d="M305.88,-321.89C316.28,-316.79 327.14,-310.74 336.5,-304 344.89,-297.96 353.09,-290.27 360.15,-282.92"/>
<polygon fill="black" stroke="black" points="363.09,-284.89 367.31,-275.17 357.95,-280.14 363.09,-284.89"/>
<text text-anchor="middle" x="366.5" y="-296" font-family="Courier,monospace" font-size="10.00">非 TLS</text>
</g>
<!-- handle_tls_ld&#45;&gt;gen_inst -->
<g id="edge15" class="edge">
<title>handle_tls_ld&#45;&gt;gen_inst</title>
<path fill="none" stroke="black" d="M139.21,-240.65C142.01,-240.09 144.78,-239.53 147.5,-239 251.91,-218.53 373.69,-197.94 447.39,-185.84"/>
<polygon fill="black" stroke="black" points="448.16,-189.26 457.47,-184.18 447.03,-182.35 448.16,-189.26"/>
</g>
<!-- handle_tls_le&#45;&gt;gen_inst -->
<g id="edge16" class="edge">
<title>handle_tls_le&#45;&gt;gen_inst</title>
<path fill="none" stroke="black" d="M291.17,-238.92C336.89,-225.83 399.98,-207.78 447.45,-194.19"/>
<polygon fill="black" stroke="black" points="448.67,-197.48 457.33,-191.36 446.75,-190.75 448.67,-197.48"/>
</g>
<!-- check_mnemonic_elf&#45;&gt;gen_inst -->
<g id="edge17" class="edge">
<title>check_mnemonic_elf&#45;&gt;gen_inst</title>
<path fill="none" stroke="black" d="M390.06,-238.64C395.57,-229.02 403.57,-217.52 413.5,-210 423.65,-202.31 435.63,-196.22 447.71,-191.44"/>
<polygon fill="black" stroke="black" points="449.22,-194.61 457.39,-187.87 446.8,-188.05 449.22,-194.61"/>
<text text-anchor="middle" x="462" y="-213" font-family="Courier,monospace" font-size="10.00">处理 lea/mov/call</text>
</g>
<!-- check_tlv -->
<g id="node14" class="node">
<title>check_tlv</title>
<polygon fill="none" stroke="black" points="557,-358 472,-358 472,-322 557,-322 557,-358"/>
<text text-anchor="middle" x="514.5" y="-337.5" font-family="Courier,monospace" font-size="10.00">处理 TLV 符号</text>
</g>
<!-- macho_case&#45;&gt;check_tlv -->
<g id="edge18" class="edge">
<title>macho_case&#45;&gt;check_tlv</title>
<path fill="none" stroke="black" d="M514.5,-429.97C514.5,-413.38 514.5,-387.88 514.5,-368.43"/>
<polygon fill="black" stroke="black" points="518,-368.34 514.5,-358.34 511,-368.34 518,-368.34"/>
</g>
<!-- check_mnemonic_macho -->
<g id="node15" class="node">
<title>check_mnemonic_macho</title>
<polygon fill="none" stroke="black" points="572,-275 457,-275 457,-239 572,-239 572,-275"/>
<text text-anchor="middle" x="514.5" y="-254.5" font-family="Courier,monospace" font-size="10.00">根据 mnemonic 处理</text>
</g>
<!-- check_tlv&#45;&gt;check_mnemonic_macho -->
<g id="edge19" class="edge">
<title>check_tlv&#45;&gt;check_mnemonic_macho</title>
<path fill="none" stroke="black" d="M514.5,-321.82C514.5,-311.19 514.5,-297.31 514.5,-285.2"/>
<polygon fill="black" stroke="black" points="518,-285.15 514.5,-275.15 511,-285.15 518,-285.15"/>
<text text-anchor="middle" x="536" y="-296" font-family="Courier,monospace" font-size="10.00">处理 TLV</text>
</g>
<!-- check_mnemonic_macho&#45;&gt;gen_inst -->
<g id="edge20" class="edge">
<title>check_mnemonic_macho&#45;&gt;gen_inst</title>
<path fill="none" stroke="black" d="M514.5,-238.82C514.5,-228.19 514.5,-214.31 514.5,-202.2"/>
<polygon fill="black" stroke="black" points="518,-202.15 514.5,-192.15 511,-202.15 518,-202.15"/>
</g>
<!-- other_format&#45;&gt;gen_inst -->
<g id="edge21" class="edge">
<title>other_format&#45;&gt;gen_inst</title>
<path fill="none" stroke="black" d="M594.09,-375.84C597.74,-346.32 601.78,-284.68 580.5,-239 573.2,-223.33 560.27,-209.47 547.77,-198.69"/>
<polygon fill="black" stroke="black" points="549.64,-195.69 539.69,-192.06 545.2,-201.11 549.64,-195.69"/>
<text text-anchor="middle" x="615.5" y="-296" font-family="Courier,monospace" font-size="10.00">返回错误</text>
</g>
<!-- loop_end -->
<g id="node18" class="node">
<title>loop_end</title>
<polygon fill="none" stroke="black" points="643.5,-119 587.5,-119 587.5,-83 643.5,-83 643.5,-119"/>
<text text-anchor="middle" x="615.5" y="-98.5" font-family="Courier,monospace" font-size="10.00">循环结束</text>
</g>
<!-- gen_inst&#45;&gt;loop_end -->
<g id="edge22" class="edge">
<title>gen_inst&#45;&gt;loop_end</title>
<path fill="none" stroke="black" d="M538.69,-155.99C551.84,-146.75 568.28,-135.19 582.58,-125.14"/>
<polygon fill="black" stroke="black" points="584.99,-127.73 591.16,-119.11 580.96,-122 584.99,-127.73"/>
</g>
<!-- loop_end&#45;&gt;loop_start -->
<g id="edge23" class="edge">
<title>loop_end&#45;&gt;loop_start</title>
<path fill="none" stroke="black" d="M643.64,-108.63C673.83,-117.62 717.5,-136.86 717.5,-173 717.5,-771 717.5,-771 717.5,-771 717.5,-787.28 709.88,-803.62 701.64,-816.5"/>
<polygon fill="black" stroke="black" points="698.7,-814.61 695.94,-824.83 704.48,-818.56 698.7,-814.61"/>
<text text-anchor="middle" x="737.5" y="-487" font-family="Courier,monospace" font-size="10.00">继续循环</text>
</g>
<!-- end -->
<g id="node19" class="node">
<title>end</title>
<polygon fill="none" stroke="black" points="643.5,-36 587.5,-36 587.5,0 643.5,0 643.5,-36"/>
<text text-anchor="middle" x="615.5" y="-15.5" font-family="Courier,monospace" font-size="10.00">函数结束</text>
</g>
<!-- loop_end&#45;&gt;end -->
<g id="edge24" class="edge">
<title>loop_end&#45;&gt;end</title>
<path fill="none" stroke="black" d="M615.5,-82.82C615.5,-72.19 615.5,-58.31 615.5,-46.2"/>
<polygon fill="black" stroke="black" points="619,-46.15 615.5,-36.15 612,-46.15 619,-46.15"/>
<text text-anchor="middle" x="659.5" y="-57" font-family="Courier,monospace" font-size="10.00">所有操作数处理完毕</text>
</g>
</g>
</svg>
