<?xml version="1.0" encoding="UTF-8" standalone="no"?>
<!DOCTYPE svg PUBLIC "-//W3C//DTD SVG 1.1//EN"
 "http://www.w3.org/Graphics/SVG/1.1/DTD/svg11.dtd">
<!-- Generated by graphviz version 2.43.0 (0)
 -->
<!-- Title: flowchart Pages: 1 -->
<svg width="465pt" height="977pt"
 viewBox="0.00 0.00 464.50 977.00" xmlns="http://www.w3.org/2000/svg" xmlns:xlink="http://www.w3.org/1999/xlink">
<g id="graph0" class="graph" transform="scale(1 1) rotate(0) translate(4 973)">
<title>flowchart</title>
<polygon fill="white" stroke="transparent" points="-4,4 -4,-973 460.5,-973 460.5,4 -4,4"/>
<!-- start -->
<g id="node1" class="node">
<title>start</title>
<polygon fill="none" stroke="black" points="286.5,-969 167.5,-969 167.5,-933 286.5,-933 286.5,-969"/>
<text text-anchor="middle" x="227" y="-948.5" font-family="Courier,monospace" font-size="10.00">开始 lowerSwitchBr</text>
</g>
<!-- init -->
<g id="node2" class="node">
<title>init</title>
<polygon fill="none" stroke="black" points="264.5,-896 189.5,-896 189.5,-855 264.5,-855 264.5,-896"/>
<text text-anchor="middle" x="227" y="-884" font-family="Courier,monospace" font-size="10.00">初始化变量</text>
<text text-anchor="middle" x="227" y="-873" font-family="Courier,monospace" font-size="10.00">获取类型信息</text>
<text text-anchor="middle" x="227" y="-862" font-family="Courier,monospace" font-size="10.00">准备分配器</text>
</g>
<!-- start&#45;&gt;init -->
<g id="edge1" class="edge">
<title>start&#45;&gt;init</title>
<path fill="none" stroke="black" d="M227,-932.95C227,-925.03 227,-915.37 227,-906.29"/>
<polygon fill="black" stroke="black" points="230.5,-906.05 227,-896.05 223.5,-906.05 230.5,-906.05"/>
</g>
<!-- check_table_cond -->
<g id="node3" class="node">
<title>check_table_cond</title>
<polygon fill="none" stroke="black" points="227,-818 0,-788 227,-758 454,-788 227,-818"/>
<text text-anchor="middle" x="227" y="-791" font-family="Courier,monospace" font-size="10.00">检查是否生成跳转表条件</text>
<text text-anchor="middle" x="227" y="-780" font-family="Courier,monospace" font-size="10.00">(非PIC &amp;&amp; ELF格式 &amp;&amp; prong_items范围)</text>
</g>
<!-- init&#45;&gt;check_table_cond -->
<g id="edge2" class="edge">
<title>init&#45;&gt;check_table_cond</title>
<path fill="none" stroke="black" d="M227,-854.67C227,-846.78 227,-837.42 227,-828.27"/>
<polygon fill="black" stroke="black" points="230.5,-828.13 227,-818.13 223.5,-828.13 230.5,-828.13"/>
</g>
<!-- gen_jump_table -->
<g id="node4" class="node">
<title>gen_jump_table</title>
<polygon fill="none" stroke="black" points="221,-711 133,-711 133,-659 221,-659 221,-711"/>
<text text-anchor="middle" x="177" y="-699" font-family="Courier,monospace" font-size="10.00">生成跳转表:</text>
<text text-anchor="middle" x="177" y="-688" font-family="Courier,monospace" font-size="10.00">计算min/max值</text>
<text text-anchor="middle" x="177" y="-677" font-family="Courier,monospace" font-size="10.00">填充跳转表项</text>
<text text-anchor="middle" x="177" y="-666" font-family="Courier,monospace" font-size="10.00">处理条件索引</text>
</g>
<!-- check_table_cond&#45;&gt;gen_jump_table -->
<g id="edge3" class="edge">
<title>check_table_cond&#45;&gt;gen_jump_table</title>
<path fill="none" stroke="black" d="M213.47,-759.67C207.46,-747.54 200.33,-733.13 193.98,-720.29"/>
<polygon fill="black" stroke="black" points="197.09,-718.68 189.51,-711.27 190.81,-721.79 197.09,-718.68"/>
<text text-anchor="middle" x="224" y="-732" font-family="Courier,monospace" font-size="10.00">条件满足</text>
</g>
<!-- no_table -->
<g id="node12" class="node">
<title>no_table</title>
<polygon fill="none" stroke="black" points="321,-703 241,-703 241,-667 321,-667 321,-703"/>
<text text-anchor="middle" x="281" y="-682.5" font-family="Courier,monospace" font-size="10.00">逐个处理case</text>
</g>
<!-- check_table_cond&#45;&gt;no_table -->
<g id="edge4" class="edge">
<title>check_table_cond&#45;&gt;no_table</title>
<path fill="none" stroke="black" d="M241.61,-759.67C249.5,-744.91 259.2,-726.78 267,-712.19"/>
<polygon fill="black" stroke="black" points="270.18,-713.66 271.81,-703.2 264,-710.36 270.18,-713.66"/>
<text text-anchor="middle" x="281.5" y="-732" font-family="Courier,monospace" font-size="10.00">条件不满足</text>
</g>
<!-- handle_else_jump -->
<g id="node5" class="node">
<title>handle_else_jump</title>
<polygon fill="none" stroke="black" points="215.5,-622 116.5,-622 116.5,-586 215.5,-586 215.5,-622"/>
<text text-anchor="middle" x="166" y="-607" font-family="Courier,monospace" font-size="10.00">处理else分支跳转</text>
<text text-anchor="middle" x="166" y="-596" font-family="Courier,monospace" font-size="10.00">生成条件判断</text>
</g>
<!-- gen_jump_table&#45;&gt;handle_else_jump -->
<g id="edge5" class="edge">
<title>gen_jump_table&#45;&gt;handle_else_jump</title>
<path fill="none" stroke="black" d="M173.46,-658.57C172.28,-650.1 170.96,-640.65 169.77,-632.06"/>
<polygon fill="black" stroke="black" points="173.23,-631.57 168.39,-622.15 166.3,-632.54 173.23,-631.57"/>
</g>
<!-- fill_table -->
<g id="node6" class="node">
<title>fill_table</title>
<polygon fill="none" stroke="black" points="155.5,-539 36.5,-539 36.5,-503 155.5,-503 155.5,-539"/>
<text text-anchor="middle" x="96" y="-524" font-family="Courier,monospace" font-size="10.00">填充跳转表</text>
<text text-anchor="middle" x="96" y="-513" font-family="Courier,monospace" font-size="10.00">处理每个case项和范围</text>
</g>
<!-- handle_else_jump&#45;&gt;fill_table -->
<g id="edge6" class="edge">
<title>handle_else_jump&#45;&gt;fill_table</title>
<path fill="none" stroke="black" d="M151.15,-585.82C141.41,-574.55 128.5,-559.61 117.63,-547.02"/>
<polygon fill="black" stroke="black" points="120.01,-544.43 110.82,-539.15 114.71,-549.01 120.01,-544.43"/>
</g>
<!-- fill_table&#45;&gt;fill_table -->
<g id="edge19" class="edge">
<title>fill_table&#45;&gt;fill_table</title>
<path fill="none" stroke="black" stroke-dasharray="5,2" d="M155.79,-528.03C166.23,-527.09 173.5,-524.75 173.5,-521 173.5,-518.66 170.66,-516.86 165.98,-515.62"/>
<polygon fill="black" stroke="black" points="166.22,-512.11 155.79,-513.97 165.1,-519.02 166.22,-512.11"/>
<text text-anchor="middle" x="225" y="-518.5" font-family="Courier,monospace" font-size="10.00">遍历所有case项和范围</text>
</g>
<!-- process_cases_table -->
<g id="node7" class="node">
<title>process_cases_table</title>
<polygon fill="none" stroke="black" points="152.5,-456 63.5,-456 63.5,-420 152.5,-420 152.5,-456"/>
<text text-anchor="middle" x="108" y="-441" font-family="Courier,monospace" font-size="10.00">生成case代码块</text>
<text text-anchor="middle" x="108" y="-430" font-family="Courier,monospace" font-size="10.00">恢复状态</text>
</g>
<!-- fill_table&#45;&gt;process_cases_table -->
<g id="edge7" class="edge">
<title>fill_table&#45;&gt;process_cases_table</title>
<path fill="none" stroke="black" d="M98.54,-502.82C100.12,-492.19 102.18,-478.31 103.97,-466.2"/>
<polygon fill="black" stroke="black" points="107.46,-466.56 105.46,-456.15 100.53,-465.53 107.46,-466.56"/>
</g>
<!-- loop_switch_check -->
<g id="node8" class="node">
<title>loop_switch_check</title>
<polygon fill="none" stroke="black" points="155,-348 81.98,-330 155,-312 228.02,-330 155,-348"/>
<text text-anchor="middle" x="155" y="-327.5" font-family="Courier,monospace" font-size="10.00">是循环switch?</text>
</g>
<!-- process_cases_table&#45;&gt;loop_switch_check -->
<g id="edge8" class="edge">
<title>process_cases_table&#45;&gt;loop_switch_check</title>
<path fill="none" stroke="black" d="M115.55,-419.97C123.23,-402.65 135.22,-375.62 143.96,-355.9"/>
<polygon fill="black" stroke="black" points="147.23,-357.17 148.08,-346.61 140.83,-354.33 147.23,-357.17"/>
</g>
<!-- loop_switch_handling -->
<g id="node9" class="node">
<title>loop_switch_handling</title>
<polygon fill="none" stroke="black" points="210.5,-265 99.5,-265 99.5,-229 210.5,-229 210.5,-265"/>
<text text-anchor="middle" x="155" y="-244.5" font-family="Courier,monospace" font-size="10.00">记录循环switch信息</text>
</g>
<!-- loop_switch_check&#45;&gt;loop_switch_handling -->
<g id="edge9" class="edge">
<title>loop_switch_check&#45;&gt;loop_switch_handling</title>
<path fill="none" stroke="black" d="M155,-311.82C155,-301.19 155,-287.31 155,-275.2"/>
<polygon fill="black" stroke="black" points="158.5,-275.15 155,-265.15 151.5,-275.15 158.5,-275.15"/>
<text text-anchor="middle" x="160" y="-286" font-family="Courier,monospace" font-size="10.00">是</text>
</g>
<!-- handle_else_table -->
<g id="node10" class="node">
<title>handle_else_table</title>
<polygon fill="none" stroke="black" points="306.5,-192 187.5,-192 187.5,-156 306.5,-156 306.5,-192"/>
<text text-anchor="middle" x="247" y="-171.5" font-family="Courier,monospace" font-size="10.00">处理跳转表中的else项</text>
</g>
<!-- loop_switch_check&#45;&gt;handle_else_table -->
<g id="edge10" class="edge">
<title>loop_switch_check&#45;&gt;handle_else_table</title>
<path fill="none" stroke="black" d="M171.99,-316.02C186.4,-304.17 206.65,-285.44 219,-265 230.73,-245.59 237.96,-220.82 242.13,-202.19"/>
<polygon fill="black" stroke="black" points="245.59,-202.77 244.19,-192.27 238.73,-201.35 245.59,-202.77"/>
<text text-anchor="middle" x="240" y="-244.5" font-family="Courier,monospace" font-size="10.00">否</text>
</g>
<!-- loop_switch_handling&#45;&gt;handle_else_table -->
<g id="edge11" class="edge">
<title>loop_switch_handling&#45;&gt;handle_else_table</title>
<path fill="none" stroke="black" d="M177.27,-228.81C189.14,-219.66 203.9,-208.26 216.79,-198.32"/>
<polygon fill="black" stroke="black" points="219.16,-200.91 224.93,-192.03 214.88,-195.37 219.16,-200.91"/>
</g>
<!-- process_else_table -->
<g id="node11" class="node">
<title>process_else_table</title>
<polygon fill="none" stroke="black" points="304.5,-109 215.5,-109 215.5,-73 304.5,-73 304.5,-109"/>
<text text-anchor="middle" x="260" y="-94" font-family="Courier,monospace" font-size="10.00">生成else代码块</text>
<text text-anchor="middle" x="260" y="-83" font-family="Courier,monospace" font-size="10.00">恢复状态</text>
</g>
<!-- handle_else_table&#45;&gt;process_else_table -->
<g id="edge12" class="edge">
<title>handle_else_table&#45;&gt;process_else_table</title>
<path fill="none" stroke="black" d="M249.76,-155.82C251.46,-145.19 253.69,-131.31 255.63,-119.2"/>
<polygon fill="black" stroke="black" points="259.12,-119.58 257.25,-109.15 252.21,-118.47 259.12,-119.58"/>
<text text-anchor="middle" x="286" y="-130" font-family="Courier,monospace" font-size="10.00">存在else分支</text>
</g>
<!-- end -->
<g id="node16" class="node">
<title>end</title>
<polygon fill="none" stroke="black" points="327,-36 271,-36 271,0 327,0 327,-36"/>
<text text-anchor="middle" x="299" y="-15.5" font-family="Courier,monospace" font-size="10.00">函数返回</text>
</g>
<!-- process_else_table&#45;&gt;end -->
<g id="edge13" class="edge">
<title>process_else_table&#45;&gt;end</title>
<path fill="none" stroke="black" d="M269.44,-72.81C274.04,-64.44 279.67,-54.2 284.77,-44.9"/>
<polygon fill="black" stroke="black" points="287.9,-46.48 289.65,-36.03 281.76,-43.11 287.9,-46.48"/>
</g>
<!-- handle_case -->
<g id="node13" class="node">
<title>handle_case</title>
<polygon fill="none" stroke="black" points="355.5,-622 256.5,-622 256.5,-586 355.5,-586 355.5,-622"/>
<text text-anchor="middle" x="306" y="-607" font-family="Courier,monospace" font-size="10.00">生成case条件比较</text>
<text text-anchor="middle" x="306" y="-596" font-family="Courier,monospace" font-size="10.00">创建跳转指令</text>
</g>
<!-- no_table&#45;&gt;handle_case -->
<g id="edge14" class="edge">
<title>no_table&#45;&gt;handle_case</title>
<path fill="none" stroke="black" d="M286.42,-666.86C289.67,-656.61 293.86,-643.37 297.53,-631.76"/>
<polygon fill="black" stroke="black" points="300.91,-632.7 300.59,-622.11 294.23,-630.59 300.91,-632.7"/>
</g>
<!-- handle_case&#45;&gt;handle_case -->
<g id="edge20" class="edge">
<title>handle_case&#45;&gt;handle_case</title>
<path fill="none" stroke="black" stroke-dasharray="5,2" d="M355.75,-610.51C366.07,-609.83 373.5,-607.66 373.5,-604 373.5,-601.71 370.6,-600.01 365.9,-598.89"/>
<polygon fill="black" stroke="black" points="366.13,-595.38 355.75,-597.49 365.17,-602.32 366.13,-595.38"/>
<text text-anchor="middle" x="415" y="-601.5" font-family="Courier,monospace" font-size="10.00">遍历case项和范围</text>
</g>
<!-- process_cases -->
<g id="node14" class="node">
<title>process_cases</title>
<polygon fill="none" stroke="black" points="383.5,-539 294.5,-539 294.5,-503 383.5,-503 383.5,-539"/>
<text text-anchor="middle" x="339" y="-524" font-family="Courier,monospace" font-size="10.00">生成case代码块</text>
<text text-anchor="middle" x="339" y="-513" font-family="Courier,monospace" font-size="10.00">恢复状态</text>
</g>
<!-- handle_case&#45;&gt;process_cases -->
<g id="edge15" class="edge">
<title>handle_case&#45;&gt;process_cases</title>
<path fill="none" stroke="black" d="M310.38,-585.67C312.81,-576.93 316.13,-566.24 320,-557 321.22,-554.1 322.6,-551.12 324.05,-548.18"/>
<polygon fill="black" stroke="black" points="327.27,-549.59 328.82,-539.11 321.07,-546.33 327.27,-549.59"/>
</g>
<!-- process_cases&#45;&gt;handle_case -->
<g id="edge16" class="edge">
<title>process_cases&#45;&gt;handle_case</title>
<path fill="none" stroke="black" d="M332.01,-539.15C327.59,-549.99 321.8,-564.23 316.8,-576.5"/>
<polygon fill="black" stroke="black" points="313.53,-575.24 313,-585.82 320.01,-577.88 313.53,-575.24"/>
<text text-anchor="middle" x="351" y="-560" font-family="Courier,monospace" font-size="10.00">下一个case</text>
</g>
<!-- handle_else -->
<g id="node15" class="node">
<title>handle_else</title>
<polygon fill="none" stroke="black" points="380.5,-402 291.5,-402 291.5,-366 380.5,-366 380.5,-402"/>
<text text-anchor="middle" x="336" y="-387" font-family="Courier,monospace" font-size="10.00">生成else代码块</text>
<text text-anchor="middle" x="336" y="-376" font-family="Courier,monospace" font-size="10.00">恢复状态</text>
</g>
<!-- process_cases&#45;&gt;handle_else -->
<g id="edge17" class="edge">
<title>process_cases&#45;&gt;handle_else</title>
<path fill="none" stroke="black" d="M338.62,-502.9C338.11,-480.1 337.21,-439.48 336.61,-412.39"/>
<polygon fill="black" stroke="black" points="340.11,-412.31 336.39,-402.39 333.11,-412.46 340.11,-412.31"/>
<text text-anchor="middle" x="379.5" y="-477" font-family="Courier,monospace" font-size="10.00">所有case处理完成</text>
</g>
<!-- handle_else&#45;&gt;end -->
<g id="edge18" class="edge">
<title>handle_else&#45;&gt;end</title>
<path fill="none" stroke="black" d="M336,-365.77C336,-347.01 336,-316.12 336,-289.5 336,-289.5 336,-289.5 336,-90 336,-73.62 328.16,-57.28 319.7,-44.41"/>
<polygon fill="black" stroke="black" points="322.46,-42.25 313.84,-36.1 316.74,-46.29 322.46,-42.25"/>
</g>
</g>
</svg>
