<?xml version="1.0" encoding="UTF-8" standalone="no"?>
<!DOCTYPE svg PUBLIC "-//W3C//DTD SVG 1.1//EN"
 "http://www.w3.org/Graphics/SVG/1.1/DTD/svg11.dtd">
<!-- Generated by graphviz version 2.43.0 (0)
 -->
<!-- Title: flowchart Pages: 1 -->
<svg width="481pt" height="1471pt"
 viewBox="0.00 0.00 481.00 1471.00" xmlns="http://www.w3.org/2000/svg" xmlns:xlink="http://www.w3.org/1999/xlink">
<g id="graph0" class="graph" transform="scale(1 1) rotate(0) translate(4 1467)">
<title>flowchart</title>
<polygon fill="white" stroke="transparent" points="-4,4 -4,-1467 477,-1467 477,4 -4,4"/>
<g id="clust1" class="cluster">
<title>cluster_non_naked</title>
<path fill="none" stroke="black" d="M32,-138C32,-138 247,-138 247,-138 253,-138 259,-144 259,-150 259,-150 259,-1301 259,-1301 259,-1307 253,-1313 247,-1313 247,-1313 32,-1313 32,-1313 26,-1313 20,-1307 20,-1301 20,-1301 20,-150 20,-150 20,-144 26,-138 32,-138"/>
<text text-anchor="middle" x="139.5" y="-1297.8" font-family="Times,serif" font-size="14.00">非naked路径</text>
</g>
<g id="clust2" class="cluster">
<title>cluster_naked</title>
<path fill="none" stroke="black" d="M279,-146.5C279,-146.5 441,-146.5 441,-146.5 447,-146.5 453,-152.5 453,-158.5 453,-158.5 453,-438 453,-438 453,-444 447,-450 441,-450 441,-450 279,-450 279,-450 273,-450 267,-444 267,-438 267,-438 267,-158.5 267,-158.5 267,-152.5 273,-146.5 279,-146.5"/>
<text text-anchor="middle" x="360" y="-434.8" font-family="Times,serif" font-size="14.00">naked路径</text>
</g>
<!-- start -->
<g id="node1" class="node">
<title>start</title>
<path fill="none" stroke="black" d="M253,-1463C253,-1463 197,-1463 197,-1463 191,-1463 185,-1457 185,-1451 185,-1451 185,-1439 185,-1439 185,-1433 191,-1427 197,-1427 197,-1427 253,-1427 253,-1427 259,-1427 265,-1433 265,-1439 265,-1439 265,-1451 265,-1451 265,-1457 259,-1463 253,-1463"/>
<text text-anchor="middle" x="225" y="-1441.3" font-family="Arial" font-size="14.00">开始 gen()</text>
</g>
<!-- check_naked -->
<g id="node2" class="node">
<title>check_naked</title>
<path fill="none" stroke="black" d="M336.5,-1390C336.5,-1390 113.5,-1390 113.5,-1390 107.5,-1390 101.5,-1384 101.5,-1378 101.5,-1378 101.5,-1366 101.5,-1366 101.5,-1360 107.5,-1354 113.5,-1354 113.5,-1354 336.5,-1354 336.5,-1354 342.5,-1354 348.5,-1360 348.5,-1366 348.5,-1366 348.5,-1378 348.5,-1378 348.5,-1384 342.5,-1390 336.5,-1390"/>
<text text-anchor="middle" x="225" y="-1368.3" font-family="Arial" font-size="14.00">调用约定是否是naked? (cc != .naked)</text>
</g>
<!-- start&#45;&gt;check_naked -->
<g id="edge1" class="edge">
<title>start&#45;&gt;check_naked</title>
<path fill="none" stroke="black" d="M225,-1426.81C225,-1418.79 225,-1409.05 225,-1400.07"/>
<polygon fill="black" stroke="black" points="228.5,-1400.03 225,-1390.03 221.5,-1400.03 228.5,-1400.03"/>
</g>
<!-- non_naked_block -->
<g id="node3" class="node">
<title>non_naked_block</title>
<path fill="none" stroke="black" d="M175,-1282C175,-1282 103,-1282 103,-1282 97,-1282 91,-1276 91,-1270 91,-1270 91,-1258 91,-1258 91,-1252 97,-1246 103,-1246 103,-1246 175,-1246 175,-1246 181,-1246 187,-1252 187,-1258 187,-1258 187,-1270 187,-1270 187,-1276 181,-1282 175,-1282"/>
<text text-anchor="middle" x="139" y="-1260.3" font-family="Arial" font-size="14.00">非naked处理</text>
</g>
<!-- check_naked&#45;&gt;non_naked_block -->
<g id="edge2" class="edge">
<title>check_naked&#45;&gt;non_naked_block</title>
<path fill="none" stroke="black" d="M211.18,-1353.97C197.22,-1336.76 175.49,-1309.98 159.52,-1290.29"/>
<polygon fill="black" stroke="black" points="162.09,-1287.9 153.07,-1282.34 156.65,-1292.31 162.09,-1287.9"/>
<text text-anchor="middle" x="201.5" y="-1324.8" font-family="Arial" font-size="14.00">是</text>
</g>
<!-- naked_block -->
<g id="node4" class="node">
<title>naked_block</title>
<path fill="none" stroke="black" d="M389,-419C389,-419 331,-419 331,-419 325,-419 319,-413 319,-407 319,-407 319,-395 319,-395 319,-389 325,-383 331,-383 331,-383 389,-383 389,-383 395,-383 401,-389 401,-395 401,-395 401,-407 401,-407 401,-413 395,-419 389,-419"/>
<text text-anchor="middle" x="360" y="-397.3" font-family="Arial" font-size="14.00">naked处理</text>
</g>
<!-- check_naked&#45;&gt;naked_block -->
<g id="edge3" class="edge">
<title>check_naked&#45;&gt;naked_block</title>
<path fill="none" stroke="black" d="M256.23,-1353.96C284.58,-1335.95 322,-1304.66 322,-1265 322,-1265 322,-1265 322,-495 322,-471.09 332.9,-446.11 343.02,-428.07"/>
<polygon fill="black" stroke="black" points="346.12,-429.71 348.18,-419.31 340.09,-426.15 346.12,-429.71"/>
<text text-anchor="middle" x="329.5" y="-890.3" font-family="Arial" font-size="14.00">否</text>
</g>
<!-- end -->
<g id="node5" class="node">
<title>end</title>
<path fill="none" stroke="black" d="M321,-109C321,-109 291,-109 291,-109 285,-109 279,-103 279,-97 279,-97 279,-85 279,-85 279,-79 285,-73 291,-73 291,-73 321,-73 321,-73 327,-73 333,-79 333,-85 333,-85 333,-97 333,-97 333,-103 327,-109 321,-109"/>
<text text-anchor="middle" x="306" y="-87.3" font-family="Arial" font-size="14.00">结束</text>
</g>
<!-- non_naked_block&#45;&gt;end -->
<!-- push_ops -->
<g id="node6" class="node">
<title>push_ops</title>
<path fill="none" stroke="black" d="M185,-1209C185,-1209 93,-1209 93,-1209 87,-1209 81,-1203 81,-1197 81,-1197 81,-1183 81,-1183 81,-1177 87,-1171 93,-1171 93,-1171 185,-1171 185,-1171 191,-1171 197,-1177 197,-1183 197,-1183 197,-1197 197,-1197 197,-1203 191,-1209 185,-1209"/>
<text text-anchor="middle" x="139" y="-1193.8" font-family="Arial" font-size="14.00">生成 push {fp, lr}</text>
<text text-anchor="middle" x="139" y="-1178.8" font-family="Arial" font-size="14.00">记录push_reloc</text>
</g>
<!-- non_naked_block&#45;&gt;push_ops -->
<g id="edge4" class="edge">
<title>non_naked_block&#45;&gt;push_ops</title>
<path fill="none" stroke="black" d="M139,-1245.94C139,-1237.99 139,-1228.31 139,-1219.31"/>
<polygon fill="black" stroke="black" points="142.5,-1219.2 139,-1209.2 135.5,-1219.2 142.5,-1219.2"/>
</g>
<!-- naked_block&#45;&gt;end -->
<!-- naked_dbg_prologue -->
<g id="node20" class="node">
<title>naked_dbg_prologue</title>
<path fill="none" stroke="black" d="M428.5,-345C428.5,-345 291.5,-345 291.5,-345 285.5,-345 279.5,-339 279.5,-333 279.5,-333 279.5,-321 279.5,-321 279.5,-315 285.5,-309 291.5,-309 291.5,-309 428.5,-309 428.5,-309 434.5,-309 440.5,-315 440.5,-321 440.5,-321 440.5,-333 440.5,-333 440.5,-339 434.5,-345 428.5,-345"/>
<text text-anchor="middle" x="360" y="-323.3" font-family="Arial" font-size="14.00">插入 dbg_prologue_end</text>
</g>
<!-- naked_block&#45;&gt;naked_dbg_prologue -->
<g id="edge19" class="edge">
<title>naked_block&#45;&gt;naked_dbg_prologue</title>
<path fill="none" stroke="black" d="M360,-382.94C360,-374.81 360,-364.88 360,-355.7"/>
<polygon fill="black" stroke="black" points="363.5,-355.44 360,-345.44 356.5,-355.44 363.5,-355.44"/>
</g>
<!-- add_dbg_line -->
<g id="node23" class="node">
<title>add_dbg_line</title>
<path fill="none" stroke="black" d="M359.5,-36C359.5,-36 252.5,-36 252.5,-36 246.5,-36 240.5,-30 240.5,-24 240.5,-24 240.5,-12 240.5,-12 240.5,-6 246.5,0 252.5,0 252.5,0 359.5,0 359.5,0 365.5,0 371.5,-6 371.5,-12 371.5,-12 371.5,-24 371.5,-24 371.5,-30 365.5,-36 359.5,-36"/>
<text text-anchor="middle" x="306" y="-14.3" font-family="Arial" font-size="14.00">插入 dbg_line 指令</text>
</g>
<!-- end&#45;&gt;add_dbg_line -->
<!-- mov_fp_sp -->
<g id="node7" class="node">
<title>mov_fp_sp</title>
<path fill="none" stroke="black" d="M182.5,-1134C182.5,-1134 95.5,-1134 95.5,-1134 89.5,-1134 83.5,-1128 83.5,-1122 83.5,-1122 83.5,-1110 83.5,-1110 83.5,-1104 89.5,-1098 95.5,-1098 95.5,-1098 182.5,-1098 182.5,-1098 188.5,-1098 194.5,-1104 194.5,-1110 194.5,-1110 194.5,-1122 194.5,-1122 194.5,-1128 188.5,-1134 182.5,-1134"/>
<text text-anchor="middle" x="139" y="-1112.3" font-family="Arial" font-size="14.00">生成 mov fp, sp</text>
</g>
<!-- push_ops&#45;&gt;mov_fp_sp -->
<g id="edge5" class="edge">
<title>push_ops&#45;&gt;mov_fp_sp</title>
<path fill="none" stroke="black" d="M139,-1170.83C139,-1162.89 139,-1153.41 139,-1144.63"/>
<polygon fill="black" stroke="black" points="142.5,-1144.42 139,-1134.42 135.5,-1144.42 142.5,-1144.42"/>
</g>
<!-- sub_sp_reloc -->
<g id="node8" class="node">
<title>sub_sp_reloc</title>
<path fill="none" stroke="black" d="M187,-1061C187,-1061 91,-1061 91,-1061 85,-1061 79,-1055 79,-1049 79,-1049 79,-1035 79,-1035 79,-1029 85,-1023 91,-1023 91,-1023 187,-1023 187,-1023 193,-1023 199,-1029 199,-1035 199,-1035 199,-1049 199,-1049 199,-1055 193,-1061 187,-1061"/>
<text text-anchor="middle" x="139" y="-1045.8" font-family="Arial" font-size="14.00">生成 sub sp 指令</text>
<text text-anchor="middle" x="139" y="-1030.8" font-family="Arial" font-size="14.00">记录sub_reloc</text>
</g>
<!-- mov_fp_sp&#45;&gt;sub_sp_reloc -->
<g id="edge6" class="edge">
<title>mov_fp_sp&#45;&gt;sub_sp_reloc</title>
<path fill="none" stroke="black" d="M139,-1097.94C139,-1089.99 139,-1080.31 139,-1071.31"/>
<polygon fill="black" stroke="black" points="142.5,-1071.2 139,-1061.2 135.5,-1071.2 142.5,-1071.2"/>
</g>
<!-- handle_r4 -->
<g id="node9" class="node">
<title>handle_r4</title>
<path fill="none" stroke="black" d="M184,-986C184,-986 94,-986 94,-986 88,-986 82,-980 82,-974 82,-974 82,-962 82,-962 82,-956 88,-950 94,-950 94,-950 184,-950 184,-950 190,-950 196,-956 196,-962 196,-962 196,-974 196,-974 196,-980 190,-986 184,-986"/>
<text text-anchor="middle" x="139" y="-964.3" font-family="Arial" font-size="14.00">标记r4为已分配</text>
</g>
<!-- sub_sp_reloc&#45;&gt;handle_r4 -->
<g id="edge7" class="edge">
<title>sub_sp_reloc&#45;&gt;handle_r4</title>
<path fill="none" stroke="black" d="M139,-1022.83C139,-1014.89 139,-1005.41 139,-996.63"/>
<polygon fill="black" stroke="black" points="142.5,-996.42 139,-986.42 135.5,-996.42 142.5,-996.42"/>
</g>
<!-- check_ret_mcv -->
<g id="node10" class="node">
<title>check_ret_mcv</title>
<path fill="none" stroke="black" d="M226.5,-913C226.5,-913 51.5,-913 51.5,-913 45.5,-913 39.5,-907 39.5,-901 39.5,-901 39.5,-887 39.5,-887 39.5,-881 45.5,-875 51.5,-875 51.5,-875 226.5,-875 226.5,-875 232.5,-875 238.5,-881 238.5,-887 238.5,-887 238.5,-901 238.5,-901 238.5,-907 232.5,-913 226.5,-913"/>
<text text-anchor="middle" x="139" y="-897.8" font-family="Arial" font-size="14.00">返回值在栈上?</text>
<text text-anchor="middle" x="139" y="-882.8" font-family="Arial" font-size="14.00">(self.ret_mcv == .stack_offset)</text>
</g>
<!-- handle_r4&#45;&gt;check_ret_mcv -->
<g id="edge8" class="edge">
<title>handle_r4&#45;&gt;check_ret_mcv</title>
<path fill="none" stroke="black" d="M139,-949.94C139,-941.99 139,-932.31 139,-923.31"/>
<polygon fill="black" stroke="black" points="142.5,-923.2 139,-913.2 135.5,-923.2 142.5,-923.2"/>
</g>
<!-- save_ret_addr -->
<g id="node11" class="node">
<title>save_ret_addr</title>
<path fill="none" stroke="black" d="M187.5,-824C187.5,-824 40.5,-824 40.5,-824 34.5,-824 28.5,-818 28.5,-812 28.5,-812 28.5,-800 28.5,-800 28.5,-794 34.5,-788 40.5,-788 40.5,-788 187.5,-788 187.5,-788 193.5,-788 199.5,-794 199.5,-800 199.5,-800 199.5,-812 199.5,-812 199.5,-818 193.5,-824 187.5,-824"/>
<text text-anchor="middle" x="114" y="-802.3" font-family="Arial" font-size="14.00">分配栈空间并保存r0到栈</text>
</g>
<!-- check_ret_mcv&#45;&gt;save_ret_addr -->
<g id="edge9" class="edge">
<title>check_ret_mcv&#45;&gt;save_ret_addr</title>
<path fill="none" stroke="black" d="M133.7,-874.76C130.23,-862.82 125.63,-847.01 121.75,-833.66"/>
<polygon fill="black" stroke="black" points="125.11,-832.67 118.95,-824.04 118.38,-834.62 125.11,-832.67"/>
<text text-anchor="middle" x="134.5" y="-845.8" font-family="Arial" font-size="14.00">是</text>
</g>
<!-- process_args -->
<g id="node12" class="node">
<title>process_args</title>
<path fill="none" stroke="black" d="M230.5,-751C230.5,-751 101.5,-751 101.5,-751 95.5,-751 89.5,-745 89.5,-739 89.5,-739 89.5,-710 89.5,-710 89.5,-704 95.5,-698 101.5,-698 101.5,-698 230.5,-698 230.5,-698 236.5,-698 242.5,-704 242.5,-710 242.5,-710 242.5,-739 242.5,-739 242.5,-745 236.5,-751 230.5,-751"/>
<text text-anchor="middle" x="166" y="-735.8" font-family="Arial" font-size="14.00">循环处理参数:</text>
<text text-anchor="middle" x="166" y="-720.8" font-family="Arial" font-size="14.00">&#45; 复制寄存器参数到栈</text>
<text text-anchor="middle" x="166" y="-705.8" font-family="Arial" font-size="14.00">&#45; 更新arg为栈偏移</text>
</g>
<!-- check_ret_mcv&#45;&gt;process_args -->
<g id="edge10" class="edge">
<title>check_ret_mcv&#45;&gt;process_args</title>
<path fill="none" stroke="black" d="M166.24,-874.74C181.97,-862.47 200.31,-844.78 209,-824 217.99,-802.51 207.98,-778.54 195.37,-759.64"/>
<polygon fill="black" stroke="black" points="198.1,-757.44 189.45,-751.33 192.4,-761.51 198.1,-757.44"/>
<text text-anchor="middle" x="219.5" y="-802.3" font-family="Arial" font-size="14.00">否</text>
</g>
<!-- save_ret_addr&#45;&gt;process_args -->
<g id="edge11" class="edge">
<title>save_ret_addr&#45;&gt;process_args</title>
<path fill="none" stroke="black" d="M125.28,-787.75C130.69,-779.48 137.36,-769.28 143.73,-759.55"/>
<polygon fill="black" stroke="black" points="146.66,-761.46 149.21,-751.18 140.8,-757.63 146.66,-761.46"/>
</g>
<!-- dbg_prologue -->
<g id="node13" class="node">
<title>dbg_prologue</title>
<path fill="none" stroke="black" d="M234.5,-661C234.5,-661 97.5,-661 97.5,-661 91.5,-661 85.5,-655 85.5,-649 85.5,-649 85.5,-637 85.5,-637 85.5,-631 91.5,-625 97.5,-625 97.5,-625 234.5,-625 234.5,-625 240.5,-625 246.5,-631 246.5,-637 246.5,-637 246.5,-649 246.5,-649 246.5,-655 240.5,-661 234.5,-661"/>
<text text-anchor="middle" x="166" y="-639.3" font-family="Arial" font-size="14.00">插入 dbg_prologue_end</text>
</g>
<!-- process_args&#45;&gt;dbg_prologue -->
<g id="edge12" class="edge">
<title>process_args&#45;&gt;dbg_prologue</title>
<path fill="none" stroke="black" d="M166,-697.91C166,-689.48 166,-680.08 166,-671.52"/>
<polygon fill="black" stroke="black" points="169.5,-671.26 166,-661.26 162.5,-671.26 169.5,-671.26"/>
</g>
<!-- gen_body -->
<g id="node14" class="node">
<title>gen_body</title>
<path fill="none" stroke="black" d="M231,-588C231,-588 101,-588 101,-588 95,-588 89,-582 89,-576 89,-576 89,-564 89,-564 89,-558 95,-552 101,-552 101,-552 231,-552 231,-552 237,-552 243,-558 243,-564 243,-564 243,-576 243,-576 243,-582 237,-588 231,-588"/>
<text text-anchor="middle" x="166" y="-566.3" font-family="Arial" font-size="14.00">生成函数体 (genBody)</text>
</g>
<!-- dbg_prologue&#45;&gt;gen_body -->
<g id="edge13" class="edge">
<title>dbg_prologue&#45;&gt;gen_body</title>
<path fill="none" stroke="black" d="M166,-624.81C166,-616.79 166,-607.05 166,-598.07"/>
<polygon fill="black" stroke="black" points="169.5,-598.03 166,-588.03 162.5,-598.03 169.5,-598.03"/>
</g>
<!-- backpatch_push -->
<g id="node15" class="node">
<title>backpatch_push</title>
<path fill="none" stroke="black" d="M233.5,-515C233.5,-515 98.5,-515 98.5,-515 92.5,-515 86.5,-509 86.5,-503 86.5,-503 86.5,-489 86.5,-489 86.5,-483 92.5,-477 98.5,-477 98.5,-477 233.5,-477 233.5,-477 239.5,-477 245.5,-483 245.5,-489 245.5,-489 245.5,-503 245.5,-503 245.5,-509 239.5,-515 233.5,-515"/>
<text text-anchor="middle" x="166" y="-499.8" font-family="Arial" font-size="14.00">后补丁push指令</text>
<text text-anchor="middle" x="166" y="-484.8" font-family="Arial" font-size="14.00">计算保存的寄存器列表</text>
</g>
<!-- gen_body&#45;&gt;backpatch_push -->
<g id="edge14" class="edge">
<title>gen_body&#45;&gt;backpatch_push</title>
<path fill="none" stroke="black" d="M166,-551.94C166,-543.99 166,-534.31 166,-525.31"/>
<polygon fill="black" stroke="black" points="169.5,-525.2 166,-515.2 162.5,-525.2 169.5,-525.2"/>
</g>
<!-- backpatch_sub -->
<g id="node16" class="node">
<title>backpatch_sub</title>
<path fill="none" stroke="black" d="M209,-420C209,-420 123,-420 123,-420 117,-420 111,-414 111,-408 111,-408 111,-394 111,-394 111,-388 117,-382 123,-382 123,-382 209,-382 209,-382 215,-382 221,-388 221,-394 221,-394 221,-408 221,-408 221,-414 215,-420 209,-420"/>
<text text-anchor="middle" x="166" y="-404.8" font-family="Arial" font-size="14.00">后补丁sub指令</text>
<text text-anchor="middle" x="166" y="-389.8" font-family="Arial" font-size="14.00">计算总栈空间</text>
</g>
<!-- backpatch_push&#45;&gt;backpatch_sub -->
<g id="edge15" class="edge">
<title>backpatch_push&#45;&gt;backpatch_sub</title>
<path fill="none" stroke="black" d="M166,-476.63C166,-463.42 166,-445.37 166,-430.33"/>
<polygon fill="black" stroke="black" points="169.5,-430.02 166,-420.02 162.5,-430.02 169.5,-430.02"/>
</g>
<!-- dbg_epilogue -->
<g id="node17" class="node">
<title>dbg_epilogue</title>
<path fill="none" stroke="black" d="M239,-345C239,-345 93,-345 93,-345 87,-345 81,-339 81,-333 81,-333 81,-321 81,-321 81,-315 87,-309 93,-309 93,-309 239,-309 239,-309 245,-309 251,-315 251,-321 251,-321 251,-333 251,-333 251,-339 245,-345 239,-345"/>
<text text-anchor="middle" x="166" y="-323.3" font-family="Arial" font-size="14.00">插入 dbg_epilogue_begin</text>
</g>
<!-- backpatch_sub&#45;&gt;dbg_epilogue -->
<g id="edge16" class="edge">
<title>backpatch_sub&#45;&gt;dbg_epilogue</title>
<path fill="none" stroke="black" d="M166,-381.83C166,-373.89 166,-364.41 166,-355.63"/>
<polygon fill="black" stroke="black" points="169.5,-355.42 166,-345.42 162.5,-355.42 169.5,-355.42"/>
</g>
<!-- handle_exit_jumps -->
<g id="node18" class="node">
<title>handle_exit_jumps</title>
<path fill="none" stroke="black" d="M230.5,-272C230.5,-272 123.5,-272 123.5,-272 117.5,-272 111.5,-266 111.5,-260 111.5,-260 111.5,-248 111.5,-248 111.5,-242 117.5,-236 123.5,-236 123.5,-236 230.5,-236 230.5,-236 236.5,-236 242.5,-242 242.5,-248 242.5,-248 242.5,-260 242.5,-260 242.5,-266 236.5,-272 230.5,-272"/>
<text text-anchor="middle" x="177" y="-250.3" font-family="Arial" font-size="14.00">处理退出跳转回填</text>
</g>
<!-- dbg_epilogue&#45;&gt;handle_exit_jumps -->
<g id="edge17" class="edge">
<title>dbg_epilogue&#45;&gt;handle_exit_jumps</title>
<path fill="none" stroke="black" d="M168.66,-308.81C169.91,-300.79 171.42,-291.05 172.81,-282.07"/>
<polygon fill="black" stroke="black" points="176.29,-282.45 174.36,-272.03 169.37,-281.38 176.29,-282.45"/>
</g>
<!-- epilogue_ops -->
<g id="node19" class="node">
<title>epilogue_ops</title>
<path fill="none" stroke="black" d="M236,-199C236,-199 160,-199 160,-199 154,-199 148,-193 148,-187 148,-187 148,-158 148,-158 148,-152 154,-146 160,-146 160,-146 236,-146 236,-146 242,-146 248,-152 248,-158 248,-158 248,-187 248,-187 248,-193 242,-199 236,-199"/>
<text text-anchor="middle" x="198" y="-183.8" font-family="Arial" font-size="14.00">生成epilogue:</text>
<text text-anchor="middle" x="198" y="-168.8" font-family="Arial" font-size="14.00">&#45; mov sp, fp</text>
<text text-anchor="middle" x="198" y="-153.8" font-family="Arial" font-size="14.00">&#45; pop {fp, pc}</text>
</g>
<!-- handle_exit_jumps&#45;&gt;epilogue_ops -->
<g id="edge18" class="edge">
<title>handle_exit_jumps&#45;&gt;epilogue_ops</title>
<path fill="none" stroke="black" d="M181.56,-235.75C183.63,-227.9 186.16,-218.31 188.62,-209.03"/>
<polygon fill="black" stroke="black" points="192.05,-209.74 191.22,-199.18 185.28,-207.95 192.05,-209.74"/>
</g>
<!-- epilogue_ops&#45;&gt;end -->
<g id="edge24" class="edge">
<title>epilogue_ops&#45;&gt;end</title>
<path fill="none" stroke="black" d="M232.77,-145.91C246.22,-136 261.51,-124.75 274.62,-115.1"/>
<polygon fill="black" stroke="black" points="276.91,-117.76 282.89,-109.01 272.76,-112.12 276.91,-117.76"/>
</g>
<!-- naked_gen_body -->
<g id="node21" class="node">
<title>naked_gen_body</title>
<path fill="none" stroke="black" d="M425,-272C425,-272 295,-272 295,-272 289,-272 283,-266 283,-260 283,-260 283,-248 283,-248 283,-242 289,-236 295,-236 295,-236 425,-236 425,-236 431,-236 437,-242 437,-248 437,-248 437,-260 437,-260 437,-266 431,-272 425,-272"/>
<text text-anchor="middle" x="360" y="-250.3" font-family="Arial" font-size="14.00">生成函数体 (genBody)</text>
</g>
<!-- naked_dbg_prologue&#45;&gt;naked_gen_body -->
<g id="edge20" class="edge">
<title>naked_dbg_prologue&#45;&gt;naked_gen_body</title>
<path fill="none" stroke="black" d="M360,-308.81C360,-300.79 360,-291.05 360,-282.07"/>
<polygon fill="black" stroke="black" points="363.5,-282.03 360,-272.03 356.5,-282.03 363.5,-282.03"/>
</g>
<!-- naked_dbg_epilogue -->
<g id="node22" class="node">
<title>naked_dbg_epilogue</title>
<path fill="none" stroke="black" d="M433,-190.5C433,-190.5 287,-190.5 287,-190.5 281,-190.5 275,-184.5 275,-178.5 275,-178.5 275,-166.5 275,-166.5 275,-160.5 281,-154.5 287,-154.5 287,-154.5 433,-154.5 433,-154.5 439,-154.5 445,-160.5 445,-166.5 445,-166.5 445,-178.5 445,-178.5 445,-184.5 439,-190.5 433,-190.5"/>
<text text-anchor="middle" x="360" y="-168.8" font-family="Arial" font-size="14.00">插入 dbg_epilogue_begin</text>
</g>
<!-- naked_gen_body&#45;&gt;naked_dbg_epilogue -->
<g id="edge21" class="edge">
<title>naked_gen_body&#45;&gt;naked_dbg_epilogue</title>
<path fill="none" stroke="black" d="M360,-235.75C360,-225.54 360,-212.38 360,-200.79"/>
<polygon fill="black" stroke="black" points="363.5,-200.72 360,-190.72 356.5,-200.72 363.5,-200.72"/>
</g>
<!-- naked_dbg_epilogue&#45;&gt;end -->
<g id="edge25" class="edge">
<title>naked_dbg_epilogue&#45;&gt;end</title>
<path fill="none" stroke="black" d="M348.28,-154.25C340.99,-143.52 331.49,-129.53 323.34,-117.53"/>
<polygon fill="black" stroke="black" points="326.21,-115.52 317.69,-109.22 320.42,-119.46 326.21,-115.52"/>
</g>
<!-- add_dbg_line&#45;&gt;end -->
</g>
</svg>
