<?xml version="1.0" encoding="UTF-8" standalone="no"?>
<!DOCTYPE svg PUBLIC "-//W3C//DTD SVG 1.1//EN"
 "http://www.w3.org/Graphics/SVG/1.1/DTD/svg11.dtd">
<!-- Generated by graphviz version 2.43.0 (0)
 -->
<!-- Title: flowchart Pages: 1 -->
<svg width="941pt" height="739pt"
 viewBox="0.00 0.00 941.17 739.00" xmlns="http://www.w3.org/2000/svg" xmlns:xlink="http://www.w3.org/1999/xlink">
<g id="graph0" class="graph" transform="scale(1 1) rotate(0) translate(4 735)">
<title>flowchart</title>
<polygon fill="white" stroke="transparent" points="-4,4 -4,-735 937.17,-735 937.17,4 -4,4"/>
<!-- start -->
<g id="node1" class="node">
<title>start</title>
<polygon fill="none" stroke="black" points="220.67,-731 95.67,-731 95.67,-695 220.67,-695 220.67,-731"/>
<text text-anchor="middle" x="158.17" y="-710.5" font-family="Courier,monospace" font-size="10.00">开始 genMulDivBinOp</text>
</g>
<!-- check_vector_float -->
<g id="node2" class="node">
<title>check_vector_float</title>
<polygon fill="none" stroke="black" points="158.17,-658 -0.17,-640 158.17,-622 316.52,-640 158.17,-658"/>
<text text-anchor="middle" x="158.17" y="-637.5" font-family="Courier,monospace" font-size="10.00">检查 dst_ty 是否为 vector/float</text>
</g>
<!-- start&#45;&gt;check_vector_float -->
<g id="edge1" class="edge">
<title>start&#45;&gt;check_vector_float</title>
<path fill="none" stroke="black" d="M158.17,-694.81C158.17,-686.79 158.17,-677.05 158.17,-668.07"/>
<polygon fill="black" stroke="black" points="161.67,-668.03 158.17,-658.03 154.67,-668.03 161.67,-668.03"/>
</g>
<!-- fail_todo -->
<g id="node3" class="node">
<title>fail_todo</title>
<polygon fill="none" stroke="black" points="199.67,-521 72.67,-521 72.67,-485 199.67,-485 199.67,-521"/>
<text text-anchor="middle" x="136.17" y="-500.5" font-family="Courier,monospace" font-size="10.00">返回 fail: TODO 实现</text>
</g>
<!-- check_vector_float&#45;&gt;fail_todo -->
<g id="edge2" class="edge">
<title>check_vector_float&#45;&gt;fail_todo</title>
<path fill="none" stroke="black" d="M155.43,-622.18C151.71,-599.34 145.02,-558.26 140.58,-531.06"/>
<polygon fill="black" stroke="black" points="144.01,-530.34 138.95,-521.04 137.1,-531.47 144.01,-530.34"/>
<text text-anchor="middle" x="158.17" y="-596" font-family="Courier,monospace" font-size="10.00">是</text>
</g>
<!-- get_abi_sizes -->
<g id="node4" class="node">
<title>get_abi_sizes</title>
<polygon fill="none" stroke="black" points="379.17,-575 173.17,-575 173.17,-539 379.17,-539 379.17,-575"/>
<text text-anchor="middle" x="276.17" y="-554.5" font-family="Courier,monospace" font-size="10.00">获取 dst_abi_size 和 src_abi_size</text>
</g>
<!-- check_vector_float&#45;&gt;get_abi_sizes -->
<g id="edge3" class="edge">
<title>check_vector_float&#45;&gt;get_abi_sizes</title>
<path fill="none" stroke="black" d="M179.54,-624.33C197.21,-612.2 222.6,-594.77 242.92,-580.82"/>
<polygon fill="black" stroke="black" points="245.02,-583.63 251.28,-575.09 241.06,-577.86 245.02,-583.63"/>
<text text-anchor="middle" x="230.17" y="-596" font-family="Courier,monospace" font-size="10.00">否</text>
</g>
<!-- end -->
<g id="node14" class="node">
<title>end</title>
<polygon fill="none" stroke="black" points="163.17,-36 109.17,-36 109.17,0 163.17,0 163.17,-36"/>
<text text-anchor="middle" x="136.17" y="-15.5" font-family="Courier,monospace" font-size="10.00">结束</text>
</g>
<!-- fail_todo&#45;&gt;end -->
<g id="edge20" class="edge">
<title>fail_todo&#45;&gt;end</title>
<path fill="none" stroke="black" d="M132.83,-484.91C129.28,-465.23 124.17,-431.91 124.17,-403 124.17,-403 124.17,-403 124.17,-90 124.17,-75.3 126.71,-59.13 129.44,-45.94"/>
<polygon fill="black" stroke="black" points="132.88,-46.6 131.64,-36.08 126.05,-45.08 132.88,-46.6"/>
</g>
<!-- assert_registers -->
<g id="node5" class="node">
<title>assert_registers</title>
<polygon fill="none" stroke="black" points="361.17,-467 199.17,-467 199.17,-431 361.17,-431 361.17,-467"/>
<text text-anchor="middle" x="280.17" y="-446.5" font-family="Courier,monospace" font-size="10.00">断言寄存器 rax/rcx/rdx 空闲</text>
</g>
<!-- get_abi_sizes&#45;&gt;assert_registers -->
<g id="edge4" class="edge">
<title>get_abi_sizes&#45;&gt;assert_registers</title>
<path fill="none" stroke="black" d="M276.82,-538.97C277.44,-522.38 278.4,-496.88 279.14,-477.43"/>
<polygon fill="black" stroke="black" points="282.64,-477.47 279.52,-467.34 275.65,-477.2 282.64,-477.47"/>
</g>
<!-- handle_16bit_case -->
<g id="node6" class="node">
<title>handle_16bit_case</title>
<polygon fill="none" stroke="black" points="420.67,-319 139.67,-319 139.67,-283 420.67,-283 420.67,-319"/>
<text text-anchor="middle" x="280.17" y="-298.5" font-family="Courier,monospace" font-size="10.00">处理 dst_abi_size=16 &amp;&amp; src_abi_size=16 的情况</text>
</g>
<!-- assert_registers&#45;&gt;handle_16bit_case -->
<g id="edge5" class="edge">
<title>assert_registers&#45;&gt;handle_16bit_case</title>
<path fill="none" stroke="black" d="M280.17,-430.97C280.17,-406.04 280.17,-359.37 280.17,-329.54"/>
<polygon fill="black" stroke="black" points="283.67,-329.38 280.17,-319.38 276.67,-329.38 283.67,-329.38"/>
<text text-anchor="middle" x="334.67" y="-405" font-family="Courier,monospace" font-size="10.00">dst_abi_size=16</text>
<text text-anchor="middle" x="334.67" y="-394" font-family="Courier,monospace" font-size="10.00">&amp;&amp; src_abi_size=16</text>
</g>
<!-- check_tag_conditions -->
<g id="node7" class="node">
<title>check_tag_conditions</title>
<polygon fill="none" stroke="black" points="540.17,-373 436.71,-355 540.17,-337 643.63,-355 540.17,-373"/>
<text text-anchor="middle" x="540.17" y="-352.5" font-family="Courier,monospace" font-size="10.00">检查 tag 类型是否合法</text>
</g>
<!-- assert_registers&#45;&gt;check_tag_conditions -->
<g id="edge7" class="edge">
<title>assert_registers&#45;&gt;check_tag_conditions</title>
<path fill="none" stroke="black" d="M337.91,-430.96C355.72,-425.48 375.33,-419.21 393.17,-413 430.33,-400.06 472.11,-383.68 501.6,-371.8"/>
<polygon fill="black" stroke="black" points="503.15,-374.95 511.11,-367.96 500.53,-368.46 503.15,-374.95"/>
<text text-anchor="middle" x="469.17" y="-399.5" font-family="Courier,monospace" font-size="10.00">其他情况</text>
</g>
<!-- return_result -->
<g id="node13" class="node">
<title>return_result</title>
<polygon fill="none" stroke="black" points="331.67,-109 228.67,-109 228.67,-73 331.67,-73 331.67,-109"/>
<text text-anchor="middle" x="280.17" y="-88.5" font-family="Courier,monospace" font-size="10.00">返回结果 MCValue</text>
</g>
<!-- handle_16bit_case&#45;&gt;return_result -->
<g id="edge6" class="edge">
<title>handle_16bit_case&#45;&gt;return_result</title>
<path fill="none" stroke="black" d="M280.17,-282.98C280.17,-247.02 280.17,-163.06 280.17,-119.43"/>
<polygon fill="black" stroke="black" points="283.67,-119.26 280.17,-109.26 276.67,-119.26 283.67,-119.26"/>
</g>
<!-- handle_mul_case -->
<g id="node8" class="node">
<title>handle_mul_case</title>
<polygon fill="none" stroke="black" points="448.67,-265 309.67,-265 309.67,-229 448.67,-229 448.67,-265"/>
<text text-anchor="middle" x="379.17" y="-244.5" font-family="Courier,monospace" font-size="10.00">处理 mul/mul_wrap 分支</text>
</g>
<!-- check_tag_conditions&#45;&gt;handle_mul_case -->
<g id="edge8" class="edge">
<title>check_tag_conditions&#45;&gt;handle_mul_case</title>
<path fill="none" stroke="black" d="M505.97,-342.76C490.65,-336.9 472.79,-328.88 458.17,-319 439.43,-306.33 438.97,-298.16 422.17,-283 417.98,-279.21 413.44,-275.32 408.94,-271.57"/>
<polygon fill="black" stroke="black" points="410.92,-268.66 400.97,-265.03 406.48,-274.07 410.92,-268.66"/>
<text text-anchor="middle" x="494.67" y="-298.5" font-family="Courier,monospace" font-size="10.00">mul/mul_wrap</text>
</g>
<!-- handle_div_rem_case -->
<g id="node9" class="node">
<title>handle_div_rem_case</title>
<polygon fill="none" stroke="black" points="599.67,-265 466.67,-265 466.67,-229 599.67,-229 599.67,-265"/>
<text text-anchor="middle" x="533.17" y="-244.5" font-family="Courier,monospace" font-size="10.00">处理 div/rem/mod 分支</text>
</g>
<!-- check_tag_conditions&#45;&gt;handle_div_rem_case -->
<g id="edge9" class="edge">
<title>check_tag_conditions&#45;&gt;handle_div_rem_case</title>
<path fill="none" stroke="black" d="M539.05,-336.97C537.95,-320.38 536.27,-294.88 534.99,-275.43"/>
<polygon fill="black" stroke="black" points="538.47,-275.09 534.32,-265.34 531.49,-275.55 538.47,-275.09"/>
<text text-anchor="middle" x="606.67" y="-298.5" font-family="Courier,monospace" font-size="10.00">div_trunc/div_exact/rem</text>
</g>
<!-- handle_mod_case -->
<g id="node10" class="node">
<title>handle_mod_case</title>
<polygon fill="none" stroke="black" points="786.67,-265 617.67,-265 617.67,-229 786.67,-229 786.67,-265"/>
<text text-anchor="middle" x="702.17" y="-244.5" font-family="Courier,monospace" font-size="10.00">处理 mod 分支（有符号/无符号）</text>
</g>
<!-- check_tag_conditions&#45;&gt;handle_mod_case -->
<g id="edge10" class="edge">
<title>check_tag_conditions&#45;&gt;handle_mod_case</title>
<path fill="none" stroke="black" d="M613.95,-349.74C637.64,-344.96 662.34,-335.87 680.17,-319 692.09,-307.72 697.6,-290.14 700.12,-275.29"/>
<polygon fill="black" stroke="black" points="703.63,-275.46 701.48,-265.09 696.69,-274.54 703.63,-275.46"/>
<text text-anchor="middle" x="707.67" y="-298.5" font-family="Courier,monospace" font-size="10.00">mod</text>
</g>
<!-- handle_div_floor_case -->
<g id="node11" class="node">
<title>handle_div_floor_case</title>
<polygon fill="none" stroke="black" points="925.67,-265 804.67,-265 804.67,-229 925.67,-229 925.67,-265"/>
<text text-anchor="middle" x="865.17" y="-244.5" font-family="Courier,monospace" font-size="10.00">处理 div_floor 分支</text>
</g>
<!-- check_tag_conditions&#45;&gt;handle_div_floor_case -->
<g id="edge11" class="edge">
<title>check_tag_conditions&#45;&gt;handle_div_floor_case</title>
<path fill="none" stroke="black" d="M597.43,-346.93C633.55,-341.49 680.83,-332.57 721.17,-319 758.84,-306.33 799.21,-285.75 827.6,-270"/>
<polygon fill="black" stroke="black" points="829.37,-273.02 836.37,-265.07 825.94,-266.92 829.37,-273.02"/>
<text text-anchor="middle" x="827.67" y="-298.5" font-family="Courier,monospace" font-size="10.00">div_floor</text>
</g>
<!-- gen_common_ops -->
<g id="node12" class="node">
<title>gen_common_ops</title>
<polygon fill="none" stroke="black" points="708.17,-182 588.17,-182 588.17,-146 708.17,-146 708.17,-182"/>
<text text-anchor="middle" x="648.17" y="-161.5" font-family="Courier,monospace" font-size="10.00">生成通用乘法/除法指令</text>
</g>
<!-- handle_mul_case&#45;&gt;gen_common_ops -->
<g id="edge12" class="edge">
<title>handle_mul_case&#45;&gt;gen_common_ops</title>
<path fill="none" stroke="black" d="M435.89,-228.92C478.54,-216.08 537.09,-198.45 581.9,-184.96"/>
<polygon fill="black" stroke="black" points="582.97,-188.29 591.53,-182.06 580.95,-181.59 582.97,-188.29"/>
</g>
<!-- handle_div_rem_case&#45;&gt;gen_common_ops -->
<g id="edge13" class="edge">
<title>handle_div_rem_case&#45;&gt;gen_common_ops</title>
<path fill="none" stroke="black" d="M557.56,-228.82C574.33,-217.01 596.81,-201.18 615.18,-188.24"/>
<polygon fill="black" stroke="black" points="617.66,-190.77 623.82,-182.15 613.63,-185.05 617.66,-190.77"/>
</g>
<!-- handle_mod_case&#45;&gt;gen_common_ops -->
<g id="edge14" class="edge">
<title>handle_mod_case&#45;&gt;gen_common_ops</title>
<path fill="none" stroke="black" d="M665.88,-228.91C659.21,-224.08 653.12,-218.14 649.17,-211 646.11,-205.44 644.85,-198.91 644.57,-192.53"/>
<polygon fill="black" stroke="black" points="648.08,-192.26 644.88,-182.16 641.08,-192.05 648.08,-192.26"/>
<text text-anchor="middle" x="664.17" y="-203" font-family="Courier,monospace" font-size="10.00">无符号</text>
</g>
<!-- handle_mod_case&#45;&gt;gen_common_ops -->
<g id="edge15" class="edge">
<title>handle_mod_case&#45;&gt;gen_common_ops</title>
<path fill="none" stroke="black" d="M694.88,-228.8C690.78,-219.9 685.27,-209.03 679.17,-200 676.89,-196.62 674.3,-193.21 671.62,-189.92"/>
<polygon fill="black" stroke="black" points="674.06,-187.38 664.89,-182.07 668.74,-191.94 674.06,-187.38"/>
<text text-anchor="middle" x="729.17" y="-203" font-family="Courier,monospace" font-size="10.00">有符号（特殊处理）</text>
</g>
<!-- handle_div_floor_case&#45;&gt;gen_common_ops -->
<g id="edge16" class="edge">
<title>handle_div_floor_case&#45;&gt;gen_common_ops</title>
<path fill="none" stroke="black" d="M836.19,-228.81C819.38,-219.37 797.56,-207.98 777.17,-200 758.41,-192.65 737.54,-186.26 718.14,-181.03"/>
<polygon fill="black" stroke="black" points="719.02,-177.64 708.45,-178.47 717.23,-184.41 719.02,-177.64"/>
<text text-anchor="middle" x="816.17" y="-203" font-family="Courier,monospace" font-size="10.00">无符号</text>
</g>
<!-- handle_div_floor_case&#45;&gt;gen_common_ops -->
<g id="edge17" class="edge">
<title>handle_div_floor_case&#45;&gt;gen_common_ops</title>
<path fill="none" stroke="black" d="M858.24,-229C853.29,-219 845.64,-206.99 835.17,-200 816.22,-187.33 763.32,-178.15 718.6,-172.38"/>
<polygon fill="black" stroke="black" points="718.97,-168.9 708.62,-171.13 718.1,-175.84 718.97,-168.9"/>
<text text-anchor="middle" x="889.17" y="-203" font-family="Courier,monospace" font-size="10.00">有符号（特殊处理）</text>
</g>
<!-- gen_common_ops&#45;&gt;return_result -->
<g id="edge18" class="edge">
<title>gen_common_ops&#45;&gt;return_result</title>
<path fill="none" stroke="black" d="M587.82,-151.36C520.03,-138.28 410.58,-117.16 342.14,-103.96"/>
<polygon fill="black" stroke="black" points="342.42,-100.44 331.94,-101.99 341.09,-107.32 342.42,-100.44"/>
</g>
<!-- return_result&#45;&gt;end -->
<g id="edge19" class="edge">
<title>return_result&#45;&gt;end</title>
<path fill="none" stroke="black" d="M245.68,-72.99C223.55,-62.08 194.86,-47.93 172.39,-36.86"/>
<polygon fill="black" stroke="black" points="173.7,-33.6 163.19,-32.32 170.61,-39.88 173.7,-33.6"/>
</g>
</g>
</svg>
