<?xml version="1.0" encoding="UTF-8" standalone="no"?>
<!DOCTYPE svg PUBLIC "-//W3C//DTD SVG 1.1//EN"
 "http://www.w3.org/Graphics/SVG/1.1/DTD/svg11.dtd">
<!-- Generated by graphviz version 2.43.0 (0)
 -->
<!-- Title: flowchart Pages: 1 -->
<svg width="4055pt" height="476pt"
 viewBox="0.00 0.00 4055.00 476.00" xmlns="http://www.w3.org/2000/svg" xmlns:xlink="http://www.w3.org/1999/xlink">
<g id="graph0" class="graph" transform="scale(1 1) rotate(0) translate(4 472)">
<title>flowchart</title>
<polygon fill="white" stroke="transparent" points="-4,4 -4,-472 4051,-472 4051,4 -4,4"/>
<!-- start -->
<g id="node1" class="node">
<title>start</title>
<path fill="none" stroke="black" d="M3004,-468C3004,-468 2904,-468 2904,-468 2898,-468 2892,-462 2892,-456 2892,-456 2892,-444 2892,-444 2892,-438 2898,-432 2904,-432 2904,-432 3004,-432 3004,-432 3010,-432 3016,-438 3016,-444 3016,-444 3016,-456 3016,-456 3016,-462 3010,-468 3004,-468"/>
<text text-anchor="middle" x="2954" y="-446.3" font-family="Arial" font-size="14.00">开始lowerToCode</text>
</g>
<!-- loop_start -->
<g id="node2" class="node">
<title>loop_start</title>
<path fill="none" stroke="black" d="M3014.5,-395C3014.5,-395 2893.5,-395 2893.5,-395 2887.5,-395 2881.5,-389 2881.5,-383 2881.5,-383 2881.5,-371 2881.5,-371 2881.5,-365 2887.5,-359 2893.5,-359 2893.5,-359 3014.5,-359 3014.5,-359 3020.5,-359 3026.5,-365 3026.5,-371 3026.5,-371 3026.5,-383 3026.5,-383 3026.5,-389 3020.5,-395 3014.5,-395"/>
<text text-anchor="middle" x="2954" y="-373.3" font-family="Arial" font-size="14.00">循环开始: inst初始化</text>
</g>
<!-- start&#45;&gt;loop_start -->
<g id="edge1" class="edge">
<title>start&#45;&gt;loop_start</title>
<path fill="none" stroke="black" d="M2954,-431.81C2954,-423.79 2954,-414.05 2954,-405.07"/>
<polygon fill="black" stroke="black" points="2957.5,-405.03 2954,-395.03 2950.5,-405.03 2957.5,-405.03"/>
</g>
<!-- switch_node -->
<g id="node3" class="node">
<title>switch_node</title>
<path fill="none" stroke="black" d="M1947.5,-322C1947.5,-322 1854.5,-322 1854.5,-322 1848.5,-322 1842.5,-316 1842.5,-310 1842.5,-310 1842.5,-298 1842.5,-298 1842.5,-292 1848.5,-286 1854.5,-286 1854.5,-286 1947.5,-286 1947.5,-286 1953.5,-286 1959.5,-292 1959.5,-298 1959.5,-298 1959.5,-310 1959.5,-310 1959.5,-316 1953.5,-322 1947.5,-322"/>
<text text-anchor="middle" x="1901" y="-300.3" font-family="Arial" font-size="14.00">switch(tags[inst])</text>
</g>
<!-- loop_start&#45;&gt;switch_node -->
<g id="edge2" class="edge">
<title>loop_start&#45;&gt;switch_node</title>
<path fill="none" stroke="black" d="M2881.21,-371.09C2687.16,-358.01 2159.39,-322.42 1969.9,-309.65"/>
<polygon fill="black" stroke="black" points="1970,-306.14 1959.78,-308.96 1969.53,-313.13 1970,-306.14"/>
</g>
<!-- return_node -->
<g id="node4" class="node">
<title>return_node</title>
<path fill="none" stroke="black" d="M42,-179C42,-179 12,-179 12,-179 6,-179 0,-173 0,-167 0,-167 0,-155 0,-155 0,-149 6,-143 12,-143 12,-143 42,-143 42,-143 48,-143 54,-149 54,-155 54,-155 54,-167 54,-167 54,-173 48,-179 42,-179"/>
<text text-anchor="middle" x="27" y="-157.3" font-family="Arial" font-size="14.00">返回</text>
</g>
<!-- switch_node&#45;&gt;return_node -->
<g id="edge3" class="edge">
<title>switch_node&#45;&gt;return_node</title>
<path fill="none" stroke="black" d="M1842.06,-302.64C1554.93,-300.76 309.58,-291.33 138,-268 79.36,-260.03 45.29,-281.74 9,-235 -1.41,-221.59 3.4,-202.98 10.65,-187.9"/>
<polygon fill="black" stroke="black" points="13.75,-189.52 15.37,-179.05 7.58,-186.22 13.75,-189.52"/>
<text text-anchor="middle" x="201" y="-256.8" font-family="Arial" font-size="14.00">.dbg_epilogue_begin</text>
</g>
<!-- block_loop -->
<g id="node5" class="node">
<title>block_loop</title>
<path fill="none" stroke="black" d="M687.5,-235C687.5,-235 566.5,-235 566.5,-235 560.5,-235 554.5,-229 554.5,-223 554.5,-223 554.5,-209 554.5,-209 554.5,-203 560.5,-197 566.5,-197 566.5,-197 687.5,-197 687.5,-197 693.5,-197 699.5,-203 699.5,-209 699.5,-209 699.5,-223 699.5,-223 699.5,-229 693.5,-235 687.5,-235"/>
<text text-anchor="middle" x="627" y="-219.8" font-family="Arial" font-size="14.00">处理block/loop类型</text>
<text text-anchor="middle" x="627" y="-204.8" font-family="Arial" font-size="14.00">写入操作码和块类型</text>
</g>
<!-- switch_node&#45;&gt;block_loop -->
<g id="edge4" class="edge">
<title>switch_node&#45;&gt;block_loop</title>
<path fill="none" stroke="black" d="M1842.48,-302.03C1656.8,-298.78 1082.17,-287.38 897,-268 833.6,-261.36 762.81,-247.76 709.63,-236.27"/>
<polygon fill="black" stroke="black" points="710.09,-232.79 699.57,-234.07 708.6,-239.62 710.09,-232.79"/>
<text text-anchor="middle" x="931.5" y="-256.8" font-family="Arial" font-size="14.00">.block/.loop</text>
</g>
<!-- uav_ref -->
<g id="node6" class="node">
<title>uav_ref</title>
<path fill="none" stroke="black" d="M872,-235C872,-235 730,-235 730,-235 724,-235 718,-229 718,-223 718,-223 718,-209 718,-209 718,-203 724,-197 730,-197 730,-197 872,-197 872,-197 878,-197 884,-203 884,-209 884,-209 884,-223 884,-223 884,-229 878,-235 872,-235"/>
<text text-anchor="middle" x="801" y="-219.8" font-family="Arial" font-size="14.00">处理uav_ref</text>
<text text-anchor="middle" x="801" y="-204.8" font-family="Arial" font-size="14.00">根据is_obj调用不同函数</text>
</g>
<!-- switch_node&#45;&gt;uav_ref -->
<g id="edge5" class="edge">
<title>switch_node&#45;&gt;uav_ref</title>
<path fill="none" stroke="black" d="M1842.31,-303.49C1705.67,-303.98 1355.88,-301.54 1066,-268 1006.22,-261.08 939.72,-248.27 888.29,-237.22"/>
<polygon fill="black" stroke="black" points="888.73,-233.73 878.22,-235.03 887.25,-240.57 888.73,-233.73"/>
<text text-anchor="middle" x="1090.5" y="-256.8" font-family="Arial" font-size="14.00">.uav_ref</text>
</g>
<!-- uav_ref_off -->
<g id="node7" class="node">
<title>uav_ref_off</title>
<path fill="none" stroke="black" d="M1056,-235C1056,-235 914,-235 914,-235 908,-235 902,-229 902,-223 902,-223 902,-209 902,-209 902,-203 908,-197 914,-197 914,-197 1056,-197 1056,-197 1062,-197 1068,-203 1068,-209 1068,-209 1068,-223 1068,-223 1068,-229 1062,-235 1056,-235"/>
<text text-anchor="middle" x="985" y="-219.8" font-family="Arial" font-size="14.00">处理uav_ref_off</text>
<text text-anchor="middle" x="985" y="-204.8" font-family="Arial" font-size="14.00">根据is_obj调用不同函数</text>
</g>
<!-- switch_node&#45;&gt;uav_ref_off -->
<g id="edge6" class="edge">
<title>switch_node&#45;&gt;uav_ref_off</title>
<path fill="none" stroke="black" d="M1842.06,-303.82C1720.43,-304.68 1433.05,-302.49 1195,-268 1148.01,-261.19 1096.15,-248.65 1055.73,-237.71"/>
<polygon fill="black" stroke="black" points="1056.54,-234.3 1045.97,-235.04 1054.69,-241.05 1056.54,-234.3"/>
<text text-anchor="middle" x="1231" y="-256.8" font-family="Arial" font-size="14.00">.uav_ref_off</text>
</g>
<!-- nav_ref -->
<g id="node8" class="node">
<title>nav_ref</title>
<path fill="none" stroke="black" d="M1181.5,-235C1181.5,-235 1098.5,-235 1098.5,-235 1092.5,-235 1086.5,-229 1086.5,-223 1086.5,-223 1086.5,-209 1086.5,-209 1086.5,-203 1092.5,-197 1098.5,-197 1098.5,-197 1181.5,-197 1181.5,-197 1187.5,-197 1193.5,-203 1193.5,-209 1193.5,-209 1193.5,-223 1193.5,-223 1193.5,-229 1187.5,-235 1181.5,-235"/>
<text text-anchor="middle" x="1140" y="-219.8" font-family="Arial" font-size="14.00">处理nav_ref</text>
<text text-anchor="middle" x="1140" y="-204.8" font-family="Arial" font-size="14.00">调用navRefOff</text>
</g>
<!-- switch_node&#45;&gt;nav_ref -->
<g id="edge7" class="edge">
<title>switch_node&#45;&gt;nav_ref</title>
<path fill="none" stroke="black" d="M1842.34,-302.45C1740.73,-300.8 1525.6,-294.21 1346,-268 1297.5,-260.92 1243.78,-247.43 1203.36,-236.1"/>
<polygon fill="black" stroke="black" points="1204.22,-232.7 1193.64,-233.35 1202.31,-239.44 1204.22,-232.7"/>
<text text-anchor="middle" x="1370.5" y="-256.8" font-family="Arial" font-size="14.00">.nav_ref</text>
</g>
<!-- nav_ref_off -->
<g id="node9" class="node">
<title>nav_ref_off</title>
<path fill="none" stroke="black" d="M1312.5,-235C1312.5,-235 1223.5,-235 1223.5,-235 1217.5,-235 1211.5,-229 1211.5,-223 1211.5,-223 1211.5,-209 1211.5,-209 1211.5,-203 1217.5,-197 1223.5,-197 1223.5,-197 1312.5,-197 1312.5,-197 1318.5,-197 1324.5,-203 1324.5,-209 1324.5,-209 1324.5,-223 1324.5,-223 1324.5,-229 1318.5,-235 1312.5,-235"/>
<text text-anchor="middle" x="1268" y="-219.8" font-family="Arial" font-size="14.00">处理nav_ref_off</text>
<text text-anchor="middle" x="1268" y="-204.8" font-family="Arial" font-size="14.00">调用navRefOff</text>
</g>
<!-- switch_node&#45;&gt;nav_ref_off -->
<g id="edge8" class="edge">
<title>switch_node&#45;&gt;nav_ref_off</title>
<path fill="none" stroke="black" d="M1842.31,-300.97C1759.69,-297.48 1604.59,-288.62 1474,-268 1426.76,-260.54 1374.47,-247.53 1334.39,-236.52"/>
<polygon fill="black" stroke="black" points="1335.31,-233.15 1324.74,-233.85 1333.44,-239.89 1335.31,-233.15"/>
<text text-anchor="middle" x="1510" y="-256.8" font-family="Arial" font-size="14.00">.nav_ref_off</text>
</g>
<!-- func_ref -->
<g id="node10" class="node">
<title>func_ref</title>
<path fill="none" stroke="black" d="M1477,-235C1477,-235 1355,-235 1355,-235 1349,-235 1343,-229 1343,-223 1343,-223 1343,-209 1343,-209 1343,-203 1349,-197 1355,-197 1355,-197 1477,-197 1477,-197 1483,-197 1489,-203 1489,-209 1489,-209 1489,-223 1489,-223 1489,-229 1483,-235 1477,-235"/>
<text text-anchor="middle" x="1416" y="-219.8" font-family="Arial" font-size="14.00">处理func_ref</text>
<text text-anchor="middle" x="1416" y="-204.8" font-family="Arial" font-size="14.00">写入i32_const操作码</text>
</g>
<!-- switch_node&#45;&gt;func_ref -->
<g id="edge9" class="edge">
<title>switch_node&#45;&gt;func_ref</title>
<path fill="none" stroke="black" d="M1842.47,-297.96C1784.82,-292.48 1694.39,-282.53 1617,-268 1573.96,-259.92 1526.45,-248.01 1488.42,-237.72"/>
<polygon fill="black" stroke="black" points="1489.04,-234.26 1478.47,-235.01 1487.2,-241.02 1489.04,-234.26"/>
<text text-anchor="middle" x="1643.5" y="-256.8" font-family="Arial" font-size="14.00">.func_ref</text>
</g>
<!-- dbg_line -->
<g id="node11" class="node">
<title>dbg_line</title>
<path fill="none" stroke="black" d="M1591,-234C1591,-234 1519,-234 1519,-234 1513,-234 1507,-228 1507,-222 1507,-222 1507,-210 1507,-210 1507,-204 1513,-198 1519,-198 1519,-198 1591,-198 1591,-198 1597,-198 1603,-204 1603,-210 1603,-210 1603,-222 1603,-222 1603,-228 1597,-234 1591,-234"/>
<text text-anchor="middle" x="1555" y="-212.3" font-family="Arial" font-size="14.00">跳过dbg_line</text>
</g>
<!-- switch_node&#45;&gt;dbg_line -->
<g id="edge10" class="edge">
<title>switch_node&#45;&gt;dbg_line</title>
<path fill="none" stroke="black" d="M1842.49,-291.72C1810.11,-285.25 1769.21,-276.7 1733,-268 1681.76,-255.69 1667.06,-251.22 1612.96,-235.25"/>
<polygon fill="black" stroke="black" points="1613.74,-231.83 1603.16,-232.36 1611.76,-238.54 1613.74,-231.83"/>
<text text-anchor="middle" x="1760.5" y="-256.8" font-family="Arial" font-size="14.00">.dbg_line</text>
</g>
<!-- errors_len -->
<g id="node12" class="node">
<title>errors_len</title>
<path fill="none" stroke="black" d="M1783,-235C1783,-235 1633,-235 1633,-235 1627,-235 1621,-229 1621,-223 1621,-223 1621,-209 1621,-209 1621,-203 1627,-197 1633,-197 1633,-197 1783,-197 1783,-197 1789,-197 1795,-203 1795,-209 1795,-209 1795,-223 1795,-223 1795,-229 1789,-235 1783,-235"/>
<text text-anchor="middle" x="1708" y="-219.8" font-family="Arial" font-size="14.00">处理errors_len</text>
<text text-anchor="middle" x="1708" y="-204.8" font-family="Arial" font-size="14.00">写入i32_const和错误长度</text>
</g>
<!-- switch_node&#45;&gt;errors_len -->
<g id="edge11" class="edge">
<title>switch_node&#45;&gt;errors_len</title>
<path fill="none" stroke="black" d="M1862.41,-285.8C1832.37,-272.42 1790.46,-253.74 1757.88,-239.22"/>
<polygon fill="black" stroke="black" points="1759.08,-235.93 1748.52,-235.06 1756.23,-242.32 1759.08,-235.93"/>
<text text-anchor="middle" x="1853.5" y="-256.8" font-family="Arial" font-size="14.00">.errors_len</text>
</g>
<!-- error_name_table_ref -->
<g id="node13" class="node">
<title>error_name_table_ref</title>
<path fill="none" stroke="black" d="M1977,-235C1977,-235 1825,-235 1825,-235 1819,-235 1813,-229 1813,-223 1813,-223 1813,-209 1813,-209 1813,-203 1819,-197 1825,-197 1825,-197 1977,-197 1977,-197 1983,-197 1989,-203 1989,-209 1989,-209 1989,-223 1989,-223 1989,-229 1983,-235 1977,-235"/>
<text text-anchor="middle" x="1901" y="-219.8" font-family="Arial" font-size="14.00">处理error_name_table_ref</text>
<text text-anchor="middle" x="1901" y="-204.8" font-family="Arial" font-size="14.00">根据is_obj处理重定位</text>
</g>
<!-- switch_node&#45;&gt;error_name_table_ref -->
<g id="edge12" class="edge">
<title>switch_node&#45;&gt;error_name_table_ref</title>
<path fill="none" stroke="black" d="M1901,-285.6C1901,-274.06 1901,-258.65 1901,-245.36"/>
<polygon fill="black" stroke="black" points="1904.5,-245.27 1901,-235.27 1897.5,-245.27 1904.5,-245.27"/>
<text text-anchor="middle" x="1968.5" y="-256.8" font-family="Arial" font-size="14.00">.error_name_table_ref</text>
</g>
<!-- br_ops -->
<g id="node14" class="node">
<title>br_ops</title>
<path fill="none" stroke="black" d="M2258.5,-235C2258.5,-235 2019.5,-235 2019.5,-235 2013.5,-235 2007.5,-229 2007.5,-223 2007.5,-223 2007.5,-209 2007.5,-209 2007.5,-203 2013.5,-197 2019.5,-197 2019.5,-197 2258.5,-197 2258.5,-197 2264.5,-197 2270.5,-203 2270.5,-209 2270.5,-209 2270.5,-223 2270.5,-223 2270.5,-229 2264.5,-235 2258.5,-235"/>
<text text-anchor="middle" x="2139" y="-219.8" font-family="Arial" font-size="14.00">处理br_if/br/memory_grow/memory_size</text>
<text text-anchor="middle" x="2139" y="-204.8" font-family="Arial" font-size="14.00">写入操作码和标签</text>
</g>
<!-- switch_node&#45;&gt;br_ops -->
<g id="edge13" class="edge">
<title>switch_node&#45;&gt;br_ops</title>
<path fill="none" stroke="black" d="M1959.74,-291.35C1984.86,-285.57 2014.28,-277.72 2040,-268 2060.18,-260.38 2081.57,-249.71 2099.28,-240.11"/>
<polygon fill="black" stroke="black" points="2101.12,-243.09 2108.19,-235.2 2097.74,-236.96 2101.12,-243.09"/>
<text text-anchor="middle" x="2190" y="-256.8" font-family="Arial" font-size="14.00">.br_if/.br/.memory_grow/.memory_size</text>
</g>
<!-- local_ops -->
<g id="node15" class="node">
<title>local_ops</title>
<path fill="none" stroke="black" d="M2491,-235C2491,-235 2301,-235 2301,-235 2295,-235 2289,-229 2289,-223 2289,-223 2289,-209 2289,-209 2289,-203 2295,-197 2301,-197 2301,-197 2491,-197 2491,-197 2497,-197 2503,-203 2503,-209 2503,-209 2503,-223 2503,-223 2503,-229 2497,-235 2491,-235"/>
<text text-anchor="middle" x="2396" y="-219.8" font-family="Arial" font-size="14.00">处理local_get/local_set/local_tee</text>
<text text-anchor="middle" x="2396" y="-204.8" font-family="Arial" font-size="14.00">写入操作码和局部索引</text>
</g>
<!-- switch_node&#45;&gt;local_ops -->
<g id="edge14" class="edge">
<title>switch_node&#45;&gt;local_ops</title>
<path fill="none" stroke="black" d="M1959.67,-301.25C2056.96,-297.8 2247.28,-288.61 2311,-268 2321.32,-264.66 2342.08,-252.25 2360.5,-240.51"/>
<polygon fill="black" stroke="black" points="2362.51,-243.37 2369.03,-235.02 2358.72,-237.49 2362.51,-243.37"/>
<text text-anchor="middle" x="2428.5" y="-256.8" font-family="Arial" font-size="14.00">.local_get/.local_set/.local_tee</text>
</g>
<!-- br_table -->
<g id="node16" class="node">
<title>br_table</title>
<path fill="none" stroke="black" d="M2603,-235C2603,-235 2533,-235 2533,-235 2527,-235 2521,-229 2521,-223 2521,-223 2521,-209 2521,-209 2521,-203 2527,-197 2533,-197 2533,-197 2603,-197 2603,-197 2609,-197 2615,-203 2615,-209 2615,-209 2615,-223 2615,-223 2615,-229 2609,-235 2603,-235"/>
<text text-anchor="middle" x="2568" y="-219.8" font-family="Arial" font-size="14.00">处理br_table</text>
<text text-anchor="middle" x="2568" y="-204.8" font-family="Arial" font-size="14.00">写入跳转表</text>
</g>
<!-- switch_node&#45;&gt;br_table -->
<g id="edge15" class="edge">
<title>switch_node&#45;&gt;br_table</title>
<path fill="none" stroke="black" d="M1959.71,-302.22C2104.79,-299.95 2472.15,-291.87 2522,-268 2533.4,-262.54 2543.24,-252.87 2550.86,-243.4"/>
<polygon fill="black" stroke="black" points="2553.78,-245.34 2556.97,-235.24 2548.18,-241.15 2553.78,-245.34"/>
<text text-anchor="middle" x="2567.5" y="-256.8" font-family="Arial" font-size="14.00">.br_table</text>
</g>
<!-- call_nav -->
<g id="node17" class="node">
<title>call_nav</title>
<path fill="none" stroke="black" d="M2729,-235C2729,-235 2645,-235 2645,-235 2639,-235 2633,-229 2633,-223 2633,-223 2633,-209 2633,-209 2633,-203 2639,-197 2645,-197 2645,-197 2729,-197 2729,-197 2735,-197 2741,-203 2741,-209 2741,-209 2741,-223 2741,-223 2741,-229 2735,-235 2729,-235"/>
<text text-anchor="middle" x="2687" y="-219.8" font-family="Arial" font-size="14.00">处理call_nav</text>
<text text-anchor="middle" x="2687" y="-204.8" font-family="Arial" font-size="14.00">写入call操作码</text>
</g>
<!-- switch_node&#45;&gt;call_nav -->
<g id="edge16" class="edge">
<title>switch_node&#45;&gt;call_nav</title>
<path fill="none" stroke="black" d="M1959.57,-303.55C2104.94,-304.36 2479.05,-302.88 2598,-268 2617.9,-262.16 2638.11,-251.09 2654.23,-240.74"/>
<polygon fill="black" stroke="black" points="2656.33,-243.55 2662.74,-235.11 2652.47,-237.71 2656.33,-243.55"/>
<text text-anchor="middle" x="2658" y="-256.8" font-family="Arial" font-size="14.00">.call_nav</text>
</g>
<!-- call_indirect -->
<g id="node18" class="node">
<title>call_indirect</title>
<path fill="none" stroke="black" d="M2906.5,-235C2906.5,-235 2771.5,-235 2771.5,-235 2765.5,-235 2759.5,-229 2759.5,-223 2759.5,-223 2759.5,-209 2759.5,-209 2759.5,-203 2765.5,-197 2771.5,-197 2771.5,-197 2906.5,-197 2906.5,-197 2912.5,-197 2918.5,-203 2918.5,-209 2918.5,-209 2918.5,-223 2918.5,-223 2918.5,-229 2912.5,-235 2906.5,-235"/>
<text text-anchor="middle" x="2839" y="-219.8" font-family="Arial" font-size="14.00">处理call_indirect</text>
<text text-anchor="middle" x="2839" y="-204.8" font-family="Arial" font-size="14.00">写入call_indirect操作码</text>
</g>
<!-- switch_node&#45;&gt;call_indirect -->
<g id="edge17" class="edge">
<title>switch_node&#45;&gt;call_indirect</title>
<path fill="none" stroke="black" d="M1959.53,-302.54C2117.35,-300.97 2549.21,-294.31 2689,-268 2722.51,-261.69 2758.75,-249.53 2787.21,-238.67"/>
<polygon fill="black" stroke="black" points="2788.49,-241.92 2796.55,-235.04 2785.96,-235.4 2788.49,-241.92"/>
<text text-anchor="middle" x="2781" y="-256.8" font-family="Arial" font-size="14.00">.call_indirect</text>
</g>
<!-- call_tag_name -->
<g id="node19" class="node">
<title>call_tag_name</title>
<path fill="none" stroke="black" d="M3059,-235C3059,-235 2949,-235 2949,-235 2943,-235 2937,-229 2937,-223 2937,-223 2937,-209 2937,-209 2937,-203 2943,-197 2949,-197 2949,-197 3059,-197 3059,-197 3065,-197 3071,-203 3071,-209 3071,-209 3071,-223 3071,-223 3071,-229 3065,-235 3059,-235"/>
<text text-anchor="middle" x="3004" y="-219.8" font-family="Arial" font-size="14.00">处理call_tag_name</text>
<text text-anchor="middle" x="3004" y="-204.8" font-family="Arial" font-size="14.00">写入call操作码</text>
</g>
<!-- switch_node&#45;&gt;call_tag_name -->
<g id="edge18" class="edge">
<title>switch_node&#45;&gt;call_tag_name</title>
<path fill="none" stroke="black" d="M1959.72,-302.59C2135.51,-301.06 2655.67,-294.37 2823,-268 2863.51,-261.62 2907.83,-249.22 2942.48,-238.25"/>
<polygon fill="black" stroke="black" points="2944,-241.44 2952.45,-235.05 2941.86,-234.77 2944,-241.44"/>
<text text-anchor="middle" x="2934.5" y="-256.8" font-family="Arial" font-size="14.00">.call_tag_name</text>
</g>
<!-- call_intrinsic -->
<g id="node20" class="node">
<title>call_intrinsic</title>
<path fill="none" stroke="black" d="M3196.5,-235C3196.5,-235 3101.5,-235 3101.5,-235 3095.5,-235 3089.5,-229 3089.5,-223 3089.5,-223 3089.5,-209 3089.5,-209 3089.5,-203 3095.5,-197 3101.5,-197 3101.5,-197 3196.5,-197 3196.5,-197 3202.5,-197 3208.5,-203 3208.5,-209 3208.5,-209 3208.5,-223 3208.5,-223 3208.5,-229 3202.5,-235 3196.5,-235"/>
<text text-anchor="middle" x="3149" y="-219.8" font-family="Arial" font-size="14.00">处理call_intrinsic</text>
<text text-anchor="middle" x="3149" y="-204.8" font-family="Arial" font-size="14.00">写入call操作码</text>
</g>
<!-- switch_node&#45;&gt;call_intrinsic -->
<g id="edge19" class="edge">
<title>switch_node&#45;&gt;call_intrinsic</title>
<path fill="none" stroke="black" d="M1959.81,-303.18C2155.75,-303.46 2785.28,-301.64 2985,-268 3021.91,-261.78 3062.05,-249.4 3093.38,-238.4"/>
<polygon fill="black" stroke="black" points="3094.56,-241.69 3102.8,-235.03 3092.21,-235.1 3094.56,-241.69"/>
<text text-anchor="middle" x="3083" y="-256.8" font-family="Arial" font-size="14.00">.call_intrinsic</text>
</g>
<!-- global_set_sp -->
<g id="node21" class="node">
<title>global_set_sp</title>
<path fill="none" stroke="black" d="M3363.5,-235C3363.5,-235 3238.5,-235 3238.5,-235 3232.5,-235 3226.5,-229 3226.5,-223 3226.5,-223 3226.5,-209 3226.5,-209 3226.5,-203 3232.5,-197 3238.5,-197 3238.5,-197 3363.5,-197 3363.5,-197 3369.5,-197 3375.5,-203 3375.5,-209 3375.5,-209 3375.5,-223 3375.5,-223 3375.5,-229 3369.5,-235 3363.5,-235"/>
<text text-anchor="middle" x="3301" y="-219.8" font-family="Arial" font-size="14.00">处理global_set_sp</text>
<text text-anchor="middle" x="3301" y="-204.8" font-family="Arial" font-size="14.00">写入global_set操作码</text>
</g>
<!-- switch_node&#45;&gt;global_set_sp -->
<g id="edge20" class="edge">
<title>switch_node&#45;&gt;global_set_sp</title>
<path fill="none" stroke="black" d="M1959.55,-303.3C2171.34,-304.08 2897.17,-304.01 3126,-268 3165.41,-261.8 3208.44,-249.34 3241.97,-238.29"/>
<polygon fill="black" stroke="black" points="3243.23,-241.56 3251.61,-235.06 3241.01,-234.92 3243.23,-241.56"/>
<text text-anchor="middle" x="3233" y="-256.8" font-family="Arial" font-size="14.00">.global_set_sp</text>
</g>
<!-- const_ops -->
<g id="node22" class="node">
<title>const_ops</title>
<path fill="none" stroke="black" d="M3570,-235C3570,-235 3406,-235 3406,-235 3400,-235 3394,-229 3394,-223 3394,-223 3394,-209 3394,-209 3394,-203 3400,-197 3406,-197 3406,-197 3570,-197 3570,-197 3576,-197 3582,-203 3582,-209 3582,-209 3582,-223 3582,-223 3582,-229 3576,-235 3570,-235"/>
<text text-anchor="middle" x="3488" y="-219.8" font-family="Arial" font-size="14.00">处理常量操作(f32/i32/i64等)</text>
<text text-anchor="middle" x="3488" y="-204.8" font-family="Arial" font-size="14.00">写入对应操作码和值</text>
</g>
<!-- switch_node&#45;&gt;const_ops -->
<g id="edge21" class="edge">
<title>switch_node&#45;&gt;const_ops</title>
<path fill="none" stroke="black" d="M1959.69,-303.2C2188.35,-303.71 3019.72,-303.08 3281,-268 3327.94,-261.7 3379.66,-248.96 3419.67,-237.79"/>
<polygon fill="black" stroke="black" points="3420.65,-241.15 3429.32,-235.06 3418.74,-234.41 3420.65,-241.15"/>
<text text-anchor="middle" x="3426" y="-256.8" font-family="Arial" font-size="14.00">.f32_const/.i32_const等</text>
</g>
<!-- load_store -->
<g id="node23" class="node">
<title>load_store</title>
<path fill="none" stroke="black" d="M3747.5,-235C3747.5,-235 3612.5,-235 3612.5,-235 3606.5,-235 3600.5,-229 3600.5,-223 3600.5,-223 3600.5,-209 3600.5,-209 3600.5,-203 3606.5,-197 3612.5,-197 3612.5,-197 3747.5,-197 3747.5,-197 3753.5,-197 3759.5,-203 3759.5,-209 3759.5,-209 3759.5,-223 3759.5,-223 3759.5,-229 3753.5,-235 3747.5,-235"/>
<text text-anchor="middle" x="3680" y="-219.8" font-family="Arial" font-size="14.00">处理load/store指令</text>
<text text-anchor="middle" x="3680" y="-204.8" font-family="Arial" font-size="14.00">写入操作码和内存参数</text>
</g>
<!-- switch_node&#45;&gt;load_store -->
<g id="edge22" class="edge">
<title>switch_node&#45;&gt;load_store</title>
<path fill="none" stroke="black" d="M1959.8,-302.6C2230.1,-300.66 3346.63,-291.29 3501,-268 3541.42,-261.9 3585.61,-249.38 3619.97,-238.26"/>
<polygon fill="black" stroke="black" points="3621.43,-241.47 3629.84,-235.02 3619.25,-234.82 3621.43,-241.47"/>
<text text-anchor="middle" x="3631.5" y="-256.8" font-family="Arial" font-size="14.00">.i32_load/.i64_store等</text>
</g>
<!-- simple_ops -->
<g id="node24" class="node">
<title>simple_ops</title>
<path fill="none" stroke="black" d="M3966.5,-235C3966.5,-235 3789.5,-235 3789.5,-235 3783.5,-235 3777.5,-229 3777.5,-223 3777.5,-223 3777.5,-209 3777.5,-209 3777.5,-203 3783.5,-197 3789.5,-197 3789.5,-197 3966.5,-197 3966.5,-197 3972.5,-197 3978.5,-203 3978.5,-209 3978.5,-209 3978.5,-223 3978.5,-223 3978.5,-229 3972.5,-235 3966.5,-235"/>
<text text-anchor="middle" x="3878" y="-219.8" font-family="Arial" font-size="14.00">处理单字节操作(end/return等)</text>
<text text-anchor="middle" x="3878" y="-204.8" font-family="Arial" font-size="14.00">直接写入操作码</text>
</g>
<!-- switch_node&#45;&gt;simple_ops -->
<g id="edge23" class="edge">
<title>switch_node&#45;&gt;simple_ops</title>
<path fill="none" stroke="black" d="M1959.78,-302.77C2250.4,-301.53 3526.83,-294.61 3702,-268 3741.79,-261.96 3785.24,-249.43 3819.01,-238.31"/>
<polygon fill="black" stroke="black" points="3820.34,-241.55 3828.71,-235.06 3818.12,-234.91 3820.34,-241.55"/>
<text text-anchor="middle" x="3842.5" y="-256.8" font-family="Arial" font-size="14.00">.end/.return等单字节指令</text>
</g>
<!-- misc_prefix -->
<g id="node25" class="node">
<title>misc_prefix</title>
<path fill="none" stroke="black" d="M164.5,-235C164.5,-235 29.5,-235 29.5,-235 23.5,-235 17.5,-229 17.5,-223 17.5,-223 17.5,-209 17.5,-209 17.5,-203 23.5,-197 29.5,-197 29.5,-197 164.5,-197 164.5,-197 170.5,-197 176.5,-203 176.5,-209 176.5,-209 176.5,-223 176.5,-223 176.5,-229 170.5,-235 164.5,-235"/>
<text text-anchor="middle" x="97" y="-219.8" font-family="Arial" font-size="14.00">处理misc_prefix</text>
<text text-anchor="middle" x="97" y="-204.8" font-family="Arial" font-size="14.00">写入前缀和扩展操作码</text>
</g>
<!-- switch_node&#45;&gt;misc_prefix -->
<g id="edge24" class="edge">
<title>switch_node&#45;&gt;misc_prefix</title>
<path fill="none" stroke="black" d="M1842.09,-302.91C1597.27,-302.37 659.36,-298.29 365,-268 303.59,-261.68 235.23,-248.57 182.93,-237.23"/>
<polygon fill="black" stroke="black" points="183.54,-233.78 173.02,-235.06 182.04,-240.62 183.54,-233.78"/>
<text text-anchor="middle" x="401.5" y="-256.8" font-family="Arial" font-size="14.00">.misc_prefix</text>
</g>
<!-- simd_prefix -->
<g id="node26" class="node">
<title>simd_prefix</title>
<path fill="none" stroke="black" d="M347.5,-235C347.5,-235 206.5,-235 206.5,-235 200.5,-235 194.5,-229 194.5,-223 194.5,-223 194.5,-209 194.5,-209 194.5,-203 200.5,-197 206.5,-197 206.5,-197 347.5,-197 347.5,-197 353.5,-197 359.5,-203 359.5,-209 359.5,-209 359.5,-223 359.5,-223 359.5,-229 353.5,-235 347.5,-235"/>
<text text-anchor="middle" x="277" y="-219.8" font-family="Arial" font-size="14.00">处理simd_prefix</text>
<text text-anchor="middle" x="277" y="-204.8" font-family="Arial" font-size="14.00">写入前缀和SIMD操作码</text>
</g>
<!-- switch_node&#45;&gt;simd_prefix -->
<g id="edge25" class="edge">
<title>switch_node&#45;&gt;simd_prefix</title>
<path fill="none" stroke="black" d="M1842.22,-302.81C1615.12,-301.89 794.89,-296.6 536,-268 476.96,-261.48 411.31,-248.49 360.88,-237.25"/>
<polygon fill="black" stroke="black" points="361.53,-233.81 351.01,-235.03 360,-240.64 361.53,-233.81"/>
<text text-anchor="middle" x="573" y="-256.8" font-family="Arial" font-size="14.00">.simd_prefix</text>
</g>
<!-- atomics_prefix -->
<g id="node27" class="node">
<title>atomics_prefix</title>
<path fill="none" stroke="black" d="M524.5,-235C524.5,-235 389.5,-235 389.5,-235 383.5,-235 377.5,-229 377.5,-223 377.5,-223 377.5,-209 377.5,-209 377.5,-203 383.5,-197 389.5,-197 389.5,-197 524.5,-197 524.5,-197 530.5,-197 536.5,-203 536.5,-209 536.5,-209 536.5,-223 536.5,-223 536.5,-229 530.5,-235 524.5,-235"/>
<text text-anchor="middle" x="457" y="-219.8" font-family="Arial" font-size="14.00">处理atomics_prefix</text>
<text text-anchor="middle" x="457" y="-204.8" font-family="Arial" font-size="14.00">写入前缀和原子操作码</text>
</g>
<!-- switch_node&#45;&gt;atomics_prefix -->
<g id="edge26" class="edge">
<title>switch_node&#45;&gt;atomics_prefix</title>
<path fill="none" stroke="black" d="M1842.39,-302.65C1633.73,-301.18 927.48,-294.34 703,-268 647.19,-261.45 585.25,-248.58 537.48,-237.4"/>
<polygon fill="black" stroke="black" points="538.05,-233.94 527.51,-235.05 536.44,-240.75 538.05,-233.94"/>
<text text-anchor="middle" x="749" y="-256.8" font-family="Arial" font-size="14.00">.atomics_prefix</text>
</g>
<!-- loop_end -->
<g id="node30" class="node">
<title>loop_end</title>
<path fill="none" stroke="black" d="M100,-36C100,-36 50,-36 50,-36 44,-36 38,-30 38,-24 38,-24 38,-12 38,-12 38,-6 44,0 50,0 50,0 100,0 100,0 106,0 112,-6 112,-12 112,-12 112,-24 112,-24 112,-30 106,-36 100,-36"/>
<text text-anchor="middle" x="75" y="-14.3" font-family="Arial" font-size="14.00">循环结束</text>
</g>
<!-- return_node&#45;&gt;loop_end -->
<g id="edge27" class="edge">
<title>return_node&#45;&gt;loop_end</title>
<path fill="none" stroke="black" d="M32.79,-142.99C41.01,-118.86 56.13,-74.43 65.87,-45.82"/>
<polygon fill="black" stroke="black" points="69.28,-46.66 69.19,-36.07 62.65,-44.41 69.28,-46.66"/>
</g>
<!-- inst_inc -->
<g id="node29" class="node">
<title>inst_inc</title>
<path fill="none" stroke="black" d="M2046,-125C2046,-125 1954,-125 1954,-125 1948,-125 1942,-119 1942,-113 1942,-113 1942,-99 1942,-99 1942,-93 1948,-87 1954,-87 1954,-87 2046,-87 2046,-87 2052,-87 2058,-93 2058,-99 2058,-99 2058,-113 2058,-113 2058,-119 2052,-125 2046,-125"/>
<text text-anchor="middle" x="2000" y="-109.8" font-family="Arial" font-size="14.00">inst += 1</text>
<text text-anchor="middle" x="2000" y="-94.8" font-family="Arial" font-size="14.00">继续下一个指令</text>
</g>
<!-- block_loop&#45;&gt;inst_inc -->
<g id="edge28" class="edge">
<title>block_loop&#45;&gt;inst_inc</title>
<path fill="none" stroke="black" d="M699.75,-198.27C702.87,-197.79 705.96,-197.37 709,-197 1053.72,-155.59 1145.99,-225.96 1490,-179 1554.51,-170.19 1567.86,-154.2 1632,-143 1735.73,-124.88 1857.62,-115.2 1931.81,-110.59"/>
<polygon fill="black" stroke="black" points="1932.18,-114.07 1941.95,-109.97 1931.76,-107.08 1932.18,-114.07"/>
</g>
<!-- uav_ref&#45;&gt;inst_inc -->
<g id="edge29" class="edge">
<title>uav_ref&#45;&gt;inst_inc</title>
<path fill="none" stroke="black" d="M884.15,-198.08C887.13,-197.68 890.09,-197.32 893,-197 1056.3,-179.17 1471.57,-214.34 1632,-179 1671.27,-170.35 1676.22,-153.63 1715,-143 1787.37,-123.17 1873.13,-114.21 1931.53,-110.2"/>
<polygon fill="black" stroke="black" points="1932,-113.68 1941.74,-109.53 1931.54,-106.69 1932,-113.68"/>
</g>
<!-- uav_ref_off&#45;&gt;inst_inc -->
<g id="edge30" class="edge">
<title>uav_ref_off&#45;&gt;inst_inc</title>
<path fill="none" stroke="black" d="M1068.05,-198.23C1071.4,-197.77 1074.73,-197.36 1078,-197 1148.38,-189.25 1647.53,-200.47 1715,-179 1742.49,-170.25 1742.12,-153.47 1769,-143 1821.33,-122.63 1884.56,-113.76 1931.63,-109.91"/>
<polygon fill="black" stroke="black" points="1932.02,-113.39 1941.72,-109.14 1931.49,-106.41 1932.02,-113.39"/>
</g>
<!-- nav_ref&#45;&gt;inst_inc -->
<g id="edge31" class="edge">
<title>nav_ref&#45;&gt;inst_inc</title>
<path fill="none" stroke="black" d="M1193.76,-198.7C1196.87,-198.05 1199.97,-197.47 1203,-197 1265.17,-187.28 1710.62,-202.47 1769,-179 1791.19,-170.08 1787.56,-153.61 1809,-143 1847.01,-124.19 1893.74,-115.17 1931.46,-110.87"/>
<polygon fill="black" stroke="black" points="1932.26,-114.3 1941.84,-109.77 1931.53,-107.34 1932.26,-114.3"/>
</g>
<!-- nav_ref_off&#45;&gt;inst_inc -->
<g id="edge32" class="edge">
<title>nav_ref_off&#45;&gt;inst_inc</title>
<path fill="none" stroke="black" d="M1324.7,-198.65C1327.83,-198.03 1330.95,-197.47 1334,-197 1386.21,-189 1761.24,-201.54 1809,-179 1828.36,-169.86 1822.57,-153.88 1841,-143 1868.25,-126.91 1902.03,-118.01 1931.44,-113.08"/>
<polygon fill="black" stroke="black" points="1932.29,-116.49 1941.64,-111.5 1931.22,-109.57 1932.29,-116.49"/>
</g>
<!-- func_ref&#45;&gt;inst_inc -->
<g id="edge33" class="edge">
<title>func_ref&#45;&gt;inst_inc</title>
<path fill="none" stroke="black" d="M1489.21,-198.31C1492.17,-197.83 1495.11,-197.39 1498,-197 1535.82,-191.89 1807.02,-196.37 1841,-179 1859.29,-169.65 1852.83,-154.28 1870,-143 1888.42,-130.9 1910.86,-122.83 1931.88,-117.46"/>
<polygon fill="black" stroke="black" points="1932.82,-120.84 1941.74,-115.11 1931.2,-114.03 1932.82,-120.84"/>
</g>
<!-- dbg_line&#45;&gt;inst_inc -->
<g id="edge34" class="edge">
<title>dbg_line&#45;&gt;inst_inc</title>
<path fill="none" stroke="black" d="M1603.31,-198.89C1606.23,-198.18 1609.15,-197.54 1612,-197 1668.24,-186.31 1818.48,-205.94 1869,-179 1886.89,-169.46 1880.54,-154.83 1897,-143 1907.6,-135.38 1919.97,-129.26 1932.37,-124.37"/>
<polygon fill="black" stroke="black" points="1933.67,-127.62 1941.83,-120.87 1931.24,-121.06 1933.67,-127.62"/>
</g>
<!-- errors_len&#45;&gt;inst_inc -->
<g id="edge35" class="edge">
<title>errors_len&#45;&gt;inst_inc</title>
<path fill="none" stroke="black" d="M1795.18,-198.5C1843.36,-189.34 1893.79,-179.64 1895,-179 1914.99,-168.4 1912.76,-156.39 1931,-143 1937.36,-138.33 1944.4,-133.93 1951.49,-129.9"/>
<polygon fill="black" stroke="black" points="1953.34,-132.87 1960.44,-125.01 1949.99,-126.73 1953.34,-132.87"/>
</g>
<!-- error_name_table_ref&#45;&gt;inst_inc -->
<g id="edge36" class="edge">
<title>error_name_table_ref&#45;&gt;inst_inc</title>
<path fill="none" stroke="black" d="M1917.79,-196.68C1933.96,-179.04 1958.56,-152.21 1976.64,-132.49"/>
<polygon fill="black" stroke="black" points="1979.28,-134.79 1983.45,-125.05 1974.12,-130.06 1979.28,-134.79"/>
</g>
<!-- br_ops&#45;&gt;inst_inc -->
<g id="edge37" class="edge">
<title>br_ops&#45;&gt;inst_inc</title>
<path fill="none" stroke="black" d="M2115.73,-196.92C2092.58,-178.93 2056.9,-151.21 2031.28,-131.3"/>
<polygon fill="black" stroke="black" points="2033.39,-128.51 2023.34,-125.14 2029.09,-134.04 2033.39,-128.51"/>
</g>
<!-- local_ops&#45;&gt;inst_inc -->
<g id="edge38" class="edge">
<title>local_ops&#45;&gt;inst_inc</title>
<path fill="none" stroke="black" d="M2329.72,-196.92C2257.17,-177.14 2141.44,-145.57 2068.16,-125.59"/>
<polygon fill="black" stroke="black" points="2068.68,-122.1 2058.11,-122.85 2066.83,-128.86 2068.68,-122.1"/>
</g>
<!-- br_table&#45;&gt;inst_inc -->
<g id="edge39" class="edge">
<title>br_table&#45;&gt;inst_inc</title>
<path fill="none" stroke="black" d="M2520.77,-199.33C2517.81,-198.5 2514.87,-197.72 2512,-197 2355.12,-157.85 2167.05,-129.42 2068.29,-115.88"/>
<polygon fill="black" stroke="black" points="2068.53,-112.38 2058.15,-114.5 2067.58,-119.31 2068.53,-112.38"/>
</g>
<!-- call_nav&#45;&gt;inst_inc -->
<g id="edge40" class="edge">
<title>call_nav&#45;&gt;inst_inc</title>
<path fill="none" stroke="black" d="M2632.78,-199.2C2629.82,-198.43 2626.87,-197.69 2624,-197 2504.2,-168.05 2473.88,-161.29 2352,-143 2253.86,-128.27 2139.4,-117.8 2068.3,-112.07"/>
<polygon fill="black" stroke="black" points="2068.38,-108.57 2058.14,-111.26 2067.83,-115.54 2068.38,-108.57"/>
</g>
<!-- call_indirect&#45;&gt;inst_inc -->
<g id="edge41" class="edge">
<title>call_indirect&#45;&gt;inst_inc</title>
<path fill="none" stroke="black" d="M2759.43,-198.85C2756.25,-198.22 2753.09,-197.6 2750,-197 2622.17,-172.09 2591.11,-160.08 2462,-143 2322.81,-124.58 2158.68,-114.54 2068.31,-110.02"/>
<polygon fill="black" stroke="black" points="2068.35,-106.52 2058.19,-109.52 2068.01,-113.51 2068.35,-106.52"/>
</g>
<!-- call_tag_name&#45;&gt;inst_inc -->
<g id="edge42" class="edge">
<title>call_tag_name&#45;&gt;inst_inc</title>
<path fill="none" stroke="black" d="M2936.93,-198.8C2933.91,-198.17 2930.93,-197.57 2928,-197 2772.21,-166.69 2732.8,-159.98 2575,-143 2392.44,-123.36 2176.02,-113.38 2068.18,-109.3"/>
<polygon fill="black" stroke="black" points="2068.22,-105.8 2058.09,-108.92 2067.96,-112.79 2068.22,-105.8"/>
</g>
<!-- call_intrinsic&#45;&gt;inst_inc -->
<g id="edge43" class="edge">
<title>call_intrinsic&#45;&gt;inst_inc</title>
<path fill="none" stroke="black" d="M3089.25,-198.99C3086.13,-198.29 3083.03,-197.62 3080,-197 2920.19,-164.37 2879.31,-159.11 2717,-143 2479.41,-119.42 2195.92,-110.97 2068.25,-108.21"/>
<polygon fill="black" stroke="black" points="2068.3,-104.71 2058.23,-108 2068.15,-111.71 2068.3,-104.71"/>
</g>
<!-- global_set_sp&#45;&gt;inst_inc -->
<g id="edge44" class="edge">
<title>global_set_sp&#45;&gt;inst_inc</title>
<path fill="none" stroke="black" d="M3226.39,-198.59C3223.56,-198.04 3220.76,-197.51 3218,-197 3061.05,-168.07 3021.85,-158.35 2863,-143 2568.19,-114.52 2214.59,-108.55 2068.4,-107.32"/>
<polygon fill="black" stroke="black" points="2068.26,-103.82 2058.23,-107.24 2068.2,-110.82 2068.26,-103.82"/>
</g>
<!-- const_ops&#45;&gt;inst_inc -->
<g id="edge45" class="edge">
<title>const_ops&#45;&gt;inst_inc</title>
<path fill="none" stroke="black" d="M3393.6,-197.6C3296.15,-180.43 3139.52,-155.07 3003,-143 2652.5,-112.02 2230.85,-107.52 2068.4,-106.99"/>
<polygon fill="black" stroke="black" points="2068.09,-103.49 2058.08,-106.96 2068.07,-110.49 2068.09,-103.49"/>
</g>
<!-- load_store&#45;&gt;inst_inc -->
<g id="edge46" class="edge">
<title>load_store&#45;&gt;inst_inc</title>
<path fill="none" stroke="black" d="M3600.48,-198.6C3597.28,-198.04 3594.11,-197.51 3591,-197 3398.28,-165.62 3349.68,-158.06 3155,-143 2743.2,-111.15 2246.74,-107.24 2068.13,-106.94"/>
<polygon fill="black" stroke="black" points="2068.1,-103.44 2058.09,-106.92 2068.09,-110.44 2068.1,-103.44"/>
</g>
<!-- simple_ops&#45;&gt;inst_inc -->
<g id="edge47" class="edge">
<title>simple_ops&#45;&gt;inst_inc</title>
<path fill="none" stroke="black" d="M3777.36,-198.22C3774.54,-197.8 3771.75,-197.4 3769,-197 3573.54,-168.91 3524.92,-157.69 3328,-143 2846.43,-107.07 2264.25,-105.83 2068.17,-106.57"/>
<polygon fill="black" stroke="black" points="2068.01,-103.07 2058.02,-106.61 2068.04,-110.07 2068.01,-103.07"/>
</g>
<!-- panic_node -->
<g id="node28" class="node">
<title>panic_node</title>
<path fill="none" stroke="black" d="M260,-124C260,-124 152,-124 152,-124 146,-124 140,-118 140,-112 140,-112 140,-100 140,-100 140,-94 146,-88 152,-88 152,-88 260,-88 260,-88 266,-88 272,-94 272,-100 272,-100 272,-112 272,-112 272,-118 266,-124 260,-124"/>
<text text-anchor="middle" x="206" y="-102.3" font-family="Arial" font-size="14.00">触发panic或TODO</text>
</g>
<!-- misc_prefix&#45;&gt;panic_node -->
<g id="edge49" class="edge">
<title>misc_prefix&#45;&gt;panic_node</title>
<path fill="none" stroke="black" d="M104.48,-196.91C111.72,-181.14 123.94,-158.44 140,-143 145.3,-137.9 151.47,-133.3 157.87,-129.23"/>
<polygon fill="black" stroke="black" points="159.86,-132.12 166.67,-124 156.28,-126.1 159.86,-132.12"/>
<text text-anchor="middle" x="183" y="-157.3" font-family="Arial" font-size="14.00">未实现的操作</text>
</g>
<!-- misc_prefix&#45;&gt;inst_inc -->
<g id="edge48" class="edge">
<title>misc_prefix&#45;&gt;inst_inc</title>
<path fill="none" stroke="black" d="M176.96,-198.27C180.01,-197.81 183.03,-197.38 186,-197 322.87,-179.28 363.08,-216.14 496,-179 528.93,-169.8 530.92,-151.66 564,-143 696.8,-108.24 1663.45,-106.64 1931.34,-106.88"/>
<polygon fill="black" stroke="black" points="1931.69,-110.38 1941.7,-106.89 1931.7,-103.38 1931.69,-110.38"/>
<text text-anchor="middle" x="593" y="-157.3" font-family="Arial" font-size="14.00">成功处理</text>
</g>
<!-- simd_prefix&#45;&gt;panic_node -->
<g id="edge51" class="edge">
<title>simd_prefix&#45;&gt;panic_node</title>
<path fill="none" stroke="black" d="M264.96,-196.68C253.43,-179.14 235.93,-152.52 222.99,-132.84"/>
<polygon fill="black" stroke="black" points="225.82,-130.77 217.4,-124.34 219.97,-134.62 225.82,-130.77"/>
<text text-anchor="middle" x="295" y="-157.3" font-family="Arial" font-size="14.00">未实现的操作</text>
</g>
<!-- simd_prefix&#45;&gt;inst_inc -->
<g id="edge50" class="edge">
<title>simd_prefix&#45;&gt;inst_inc</title>
<path fill="none" stroke="black" d="M359.67,-198.33C362.82,-197.85 365.93,-197.41 369,-197 482.51,-181.98 511.79,-187.22 626,-179 842.47,-163.42 896.32,-155.4 1113,-143 1418.03,-125.54 1782.55,-113.53 1931.5,-109"/>
<polygon fill="black" stroke="black" points="1931.96,-112.49 1941.85,-108.69 1931.75,-105.5 1931.96,-112.49"/>
<text text-anchor="middle" x="1142" y="-157.3" font-family="Arial" font-size="14.00">成功处理</text>
</g>
<!-- atomics_prefix&#45;&gt;panic_node -->
<g id="edge53" class="edge">
<title>atomics_prefix&#45;&gt;panic_node</title>
<path fill="none" stroke="black" d="M432.63,-196.69C410.14,-180.55 375.28,-157.43 342,-143 323.03,-134.78 301.74,-128.06 281.73,-122.74"/>
<polygon fill="black" stroke="black" points="282.58,-119.35 272.03,-120.25 280.84,-126.13 282.58,-119.35"/>
<text text-anchor="middle" x="449" y="-157.3" font-family="Arial" font-size="14.00">未实现的操作</text>
</g>
<!-- atomics_prefix&#45;&gt;inst_inc -->
<g id="edge52" class="edge">
<title>atomics_prefix&#45;&gt;inst_inc</title>
<path fill="none" stroke="black" d="M536.95,-198.16C540,-197.73 543.02,-197.34 546,-197 823.85,-165.16 896.34,-202.74 1175,-179 1288.17,-169.36 1315.01,-154.58 1428,-143 1609.47,-124.41 1824.39,-113.98 1931.77,-109.56"/>
<polygon fill="black" stroke="black" points="1931.97,-113.06 1941.82,-109.15 1931.69,-106.06 1931.97,-113.06"/>
<text text-anchor="middle" x="1457" y="-157.3" font-family="Arial" font-size="14.00">成功处理</text>
</g>
<!-- panic_node&#45;&gt;loop_end -->
<g id="edge55" class="edge">
<title>panic_node&#45;&gt;loop_end</title>
<path fill="none" stroke="black" d="M179.81,-87.8C159.63,-74.56 131.57,-56.14 109.56,-41.69"/>
<polygon fill="black" stroke="black" points="111.43,-38.73 101.15,-36.17 107.59,-44.58 111.43,-38.73"/>
<text text-anchor="middle" x="177" y="-57.8" font-family="Arial" font-size="14.00">终止流程</text>
</g>
<!-- inst_inc&#45;&gt;loop_start -->
<g id="edge54" class="edge">
<title>inst_inc&#45;&gt;loop_start</title>
<path fill="none" stroke="black" d="M2058.16,-107.33C2379.11,-109.41 3921.92,-123.24 3988,-197 4118.45,-342.61 3303.46,-369.88 3036.56,-374.89"/>
<polygon fill="black" stroke="black" points="3036.47,-371.4 3026.54,-375.08 3036.6,-378.39 3036.47,-371.4"/>
<text text-anchor="middle" x="4018" y="-256.8" font-family="Arial" font-size="14.00">继续循环</text>
</g>
</g>
</svg>
