<?xml version="1.0" encoding="UTF-8" standalone="no"?>
<!DOCTYPE svg PUBLIC "-//W3C//DTD SVG 1.1//EN"
 "http://www.w3.org/Graphics/SVG/1.1/DTD/svg11.dtd">
<!-- Generated by graphviz version 2.43.0 (0)
 -->
<!-- Title: classifySystemV Pages: 1 -->
<svg width="3585pt" height="631pt"
 viewBox="0.00 0.00 3585.00 631.00" xmlns="http://www.w3.org/2000/svg" xmlns:xlink="http://www.w3.org/1999/xlink">
<g id="graph0" class="graph" transform="scale(1 1) rotate(0) translate(4 627)">
<title>classifySystemV</title>
<polygon fill="white" stroke="transparent" points="-4,4 -4,-627 3581,-627 3581,4 -4,4"/>
<!-- start -->
<g id="node1" class="node">
<title>start</title>
<ellipse fill="#ffdddd" stroke="black" cx="2557.5" cy="-605" rx="96.38" ry="18"/>
<text text-anchor="middle" x="2557.5" y="-601.3" font-family="Arial" font-size="14.00">Start classifySystemV</text>
</g>
<!-- init_memory_class -->
<g id="node2" class="node">
<title>init_memory_class</title>
<polygon fill="#f0f0f0" stroke="black" points="2653.5,-564 2461.5,-564 2461.5,-528 2653.5,-528 2653.5,-564"/>
<text text-anchor="middle" x="2557.5" y="-542.3" font-family="Arial" font-size="14.00">Initialize memory_class array</text>
</g>
<!-- start&#45;&gt;init_memory_class -->
<g id="edge1" class="edge">
<title>start&#45;&gt;init_memory_class</title>
<path fill="none" stroke="black" d="M2557.5,-586.9C2557.5,-582.95 2557.5,-578.66 2557.5,-574.4"/>
<polygon fill="black" stroke="black" points="2561,-574.09 2557.5,-564.09 2554,-574.09 2561,-574.09"/>
</g>
<!-- init_result -->
<g id="node3" class="node">
<title>init_result</title>
<polygon fill="#f0f0f0" stroke="black" points="2652,-505 2463,-505 2463,-469 2652,-469 2652,-505"/>
<text text-anchor="middle" x="2557.5" y="-483.3" font-family="Arial" font-size="14.00">Initialize result array to .none</text>
</g>
<!-- init_memory_class&#45;&gt;init_result -->
<g id="edge2" class="edge">
<title>init_memory_class&#45;&gt;init_result</title>
<path fill="none" stroke="black" d="M2557.5,-527.9C2557.5,-523.95 2557.5,-519.66 2557.5,-515.4"/>
<polygon fill="black" stroke="black" points="2561,-515.09 2557.5,-505.09 2554,-515.09 2561,-515.09"/>
</g>
<!-- switch_ty_tag -->
<g id="node4" class="node">
<title>switch_ty_tag</title>
<polygon fill="#f0f0f0" stroke="black" points="2557.5,-446 2399.31,-428 2557.5,-410 2715.69,-428 2557.5,-446"/>
<text text-anchor="middle" x="2557.5" y="-424.3" font-family="Arial" font-size="14.00">Switch ty.zigTypeTag(zcu)</text>
</g>
<!-- init_result&#45;&gt;switch_ty_tag -->
<g id="edge3" class="edge">
<title>init_result&#45;&gt;switch_ty_tag</title>
<path fill="none" stroke="black" d="M2557.5,-468.9C2557.5,-464.95 2557.5,-460.66 2557.5,-456.4"/>
<polygon fill="black" stroke="black" points="2561,-456.09 2557.5,-446.09 2554,-456.09 2561,-456.09"/>
</g>
<!-- pointer_case -->
<g id="node5" class="node">
<title>pointer_case</title>
<polygon fill="#f0f0f0" stroke="black" points="1114,-387 1013,-387 1013,-351 1114,-351 1114,-387"/>
<text text-anchor="middle" x="1063.5" y="-365.3" font-family="Arial" font-size="14.00">Case: .pointer</text>
</g>
<!-- switch_ty_tag&#45;&gt;pointer_case -->
<g id="edge4" class="edge">
<title>switch_ty_tag&#45;&gt;pointer_case</title>
<path fill="none" stroke="black" d="M2445.51,-422.73C2149.03,-411.42 1350.91,-380.97 1124.27,-372.32"/>
<polygon fill="black" stroke="black" points="1124.35,-368.82 1114.23,-371.94 1124.09,-375.81 1124.35,-368.82"/>
</g>
<!-- int_case -->
<g id="node9" class="node">
<title>int_case</title>
<polygon fill="#f0f0f0" stroke="black" points="1343,-339 1158,-339 1158,-303 1343,-303 1343,-339"/>
<text text-anchor="middle" x="1250.5" y="-317.3" font-family="Arial" font-size="14.00">Case: .int, .enum, .error_set</text>
</g>
<!-- switch_ty_tag&#45;&gt;int_case -->
<g id="edge10" class="edge">
<title>switch_ty_tag&#45;&gt;int_case</title>
<path fill="none" stroke="black" d="M2469.71,-419.95C2236.56,-401.22 1602.65,-350.29 1353.26,-330.26"/>
<polygon fill="black" stroke="black" points="1353.36,-326.75 1343.11,-329.44 1352.8,-333.73 1353.36,-326.75"/>
</g>
<!-- float_case -->
<g id="node16" class="node">
<title>float_case</title>
<polygon fill="#f0f0f0" stroke="black" points="2342,-387 2257,-387 2257,-351 2342,-351 2342,-387"/>
<text text-anchor="middle" x="2299.5" y="-365.3" font-family="Arial" font-size="14.00">Case: .float</text>
</g>
<!-- switch_ty_tag&#45;&gt;float_case -->
<g id="edge22" class="edge">
<title>switch_ty_tag&#45;&gt;float_case</title>
<path fill="none" stroke="black" d="M2490.47,-417.58C2460.61,-412.86 2425.11,-406.54 2393.5,-399 2379.86,-395.75 2365.31,-391.6 2351.83,-387.46"/>
<polygon fill="black" stroke="black" points="2352.82,-384.11 2342.23,-384.47 2350.73,-390.79 2352.82,-384.11"/>
</g>
<!-- vector_case -->
<g id="node23" class="node">
<title>vector_case</title>
<polygon fill="#f0f0f0" stroke="black" points="2416.5,-339 2320.5,-339 2320.5,-303 2416.5,-303 2416.5,-339"/>
<text text-anchor="middle" x="2368.5" y="-317.3" font-family="Arial" font-size="14.00">Case: .vector</text>
</g>
<!-- switch_ty_tag&#45;&gt;vector_case -->
<g id="edge34" class="edge">
<title>switch_ty_tag&#45;&gt;vector_case</title>
<path fill="none" stroke="black" d="M2525.58,-413.57C2508.9,-406.25 2488.31,-396.71 2470.5,-387 2446.84,-374.1 2421.26,-357.8 2401.64,-344.75"/>
<polygon fill="black" stroke="black" points="2403.33,-341.66 2393.08,-339 2399.43,-347.48 2403.33,-341.66"/>
</g>
<!-- struct_case -->
<g id="node27" class="node">
<title>struct_case</title>
<polygon fill="#f0f0f0" stroke="black" points="2626,-387 2489,-387 2489,-351 2626,-351 2626,-387"/>
<text text-anchor="middle" x="2557.5" y="-365.3" font-family="Arial" font-size="14.00">Case: .struct, .union</text>
</g>
<!-- switch_ty_tag&#45;&gt;struct_case -->
<g id="edge40" class="edge">
<title>switch_ty_tag&#45;&gt;struct_case</title>
<path fill="none" stroke="black" d="M2557.5,-409.9C2557.5,-405.95 2557.5,-401.66 2557.5,-397.4"/>
<polygon fill="black" stroke="black" points="2561,-397.09 2557.5,-387.09 2554,-397.09 2561,-397.09"/>
</g>
<!-- array_case -->
<g id="node32" class="node">
<title>array_case</title>
<polygon fill="#f0f0f0" stroke="black" points="2894.5,-291 2804.5,-291 2804.5,-255 2894.5,-255 2894.5,-291"/>
<text text-anchor="middle" x="2849.5" y="-269.3" font-family="Arial" font-size="14.00">Case: .array</text>
</g>
<!-- switch_ty_tag&#45;&gt;array_case -->
<g id="edge48" class="edge">
<title>switch_ty_tag&#45;&gt;array_case</title>
<path fill="none" stroke="black" d="M2587.98,-413.42C2604.54,-405.89 2625.28,-396.22 2643.5,-387 2702.71,-357.03 2769.87,-319.51 2810.95,-296.15"/>
<polygon fill="black" stroke="black" points="2812.85,-299.09 2819.81,-291.1 2809.39,-293.01 2812.85,-299.09"/>
</g>
<!-- bool_void_case -->
<g id="node37" class="node">
<title>bool_void_case</title>
<polygon fill="#f0f0f0" stroke="black" points="3350.5,-340 3168.5,-340 3168.5,-302 3350.5,-302 3350.5,-340"/>
<text text-anchor="middle" x="3259.5" y="-324.8" font-family="Arial" font-size="14.00">Case: .bool, .void, .noreturn</text>
<text text-anchor="middle" x="3259.5" y="-309.8" font-family="Arial" font-size="14.00">result[0] = .integer</text>
</g>
<!-- switch_ty_tag&#45;&gt;bool_void_case -->
<g id="edge56" class="edge">
<title>switch_ty_tag&#45;&gt;bool_void_case</title>
<path fill="none" stroke="black" d="M2627.7,-417.98C2668.28,-412.67 2720.31,-405.7 2766.5,-399 2902.22,-379.31 3058.62,-354.53 3158.22,-338.48"/>
<polygon fill="black" stroke="black" points="3158.96,-341.9 3168.27,-336.86 3157.84,-334.99 3158.96,-341.9"/>
</g>
<!-- optional_case -->
<g id="node38" class="node">
<title>optional_case</title>
<polygon fill="#f0f0f0" stroke="black" points="3508.5,-244 3392.5,-244 3392.5,-206 3508.5,-206 3508.5,-244"/>
<text text-anchor="middle" x="3450.5" y="-228.8" font-family="Arial" font-size="14.00">Case: .optional</text>
<text text-anchor="middle" x="3450.5" y="-213.8" font-family="Arial" font-size="14.00">Recursive check</text>
</g>
<!-- switch_ty_tag&#45;&gt;optional_case -->
<g id="edge58" class="edge">
<title>switch_ty_tag&#45;&gt;optional_case</title>
<path fill="none" stroke="black" d="M2696.75,-425.84C2898.03,-421.87 3258.25,-405.51 3368.5,-340 3402.1,-320.04 3425.77,-280.37 3438.78,-253.51"/>
<polygon fill="black" stroke="black" points="3442.04,-254.79 3443.08,-244.25 3435.69,-251.84 3442.04,-254.79"/>
</g>
<!-- default_case -->
<g id="node39" class="node">
<title>default_case</title>
<polygon fill="#f0f0f0" stroke="black" points="3577,-146 3484,-146 3484,-108 3577,-108 3577,-146"/>
<text text-anchor="middle" x="3530.5" y="-130.8" font-family="Arial" font-size="14.00">Default</text>
<text text-anchor="middle" x="3530.5" y="-115.8" font-family="Arial" font-size="14.00">Unreachable</text>
</g>
<!-- switch_ty_tag&#45;&gt;default_case -->
<g id="edge60" class="edge">
<title>switch_ty_tag&#45;&gt;default_case</title>
<path fill="none" stroke="black" d="M2697.19,-425.87C2966.79,-422.77 3532.5,-411.33 3532.5,-370 3532.5,-370 3532.5,-370 3532.5,-224 3532.5,-201.18 3531.93,-175.31 3531.4,-156.19"/>
<polygon fill="black" stroke="black" points="3534.89,-155.94 3531.1,-146.05 3527.89,-156.14 3534.89,-155.94"/>
</g>
<!-- ptr_size_switch -->
<g id="node6" class="node">
<title>ptr_size_switch</title>
<polygon fill="#f0f0f0" stroke="black" points="235.5,-194 101.11,-176 235.5,-158 369.89,-176 235.5,-194"/>
<text text-anchor="middle" x="235.5" y="-172.3" font-family="Arial" font-size="14.00">Switch ty.ptrSize(zcu)</text>
</g>
<!-- pointer_case&#45;&gt;ptr_size_switch -->
<g id="edge5" class="edge">
<title>pointer_case&#45;&gt;ptr_size_switch</title>
<path fill="none" stroke="black" d="M1012.95,-356.34C867.08,-322.69 446.04,-225.57 292.45,-190.14"/>
<polygon fill="black" stroke="black" points="292.82,-186.63 282.29,-187.79 291.25,-193.45 292.82,-186.63"/>
</g>
<!-- slice_case -->
<g id="node7" class="node">
<title>slice_case</title>
<polygon fill="#f0f0f0" stroke="black" points="137,-97 0,-97 0,-59 137,-59 137,-97"/>
<text text-anchor="middle" x="68.5" y="-81.8" font-family="Arial" font-size="14.00">Case: .slice</text>
<text text-anchor="middle" x="68.5" y="-66.8" font-family="Arial" font-size="14.00">result[0&#45;1] = .integer</text>
</g>
<!-- ptr_size_switch&#45;&gt;slice_case -->
<g id="edge6" class="edge">
<title>ptr_size_switch&#45;&gt;slice_case</title>
<path fill="none" stroke="black" d="M211.22,-161.04C184.34,-145.59 140.61,-120.45 108.63,-102.07"/>
<polygon fill="black" stroke="black" points="110.36,-99.02 99.94,-97.07 106.87,-105.09 110.36,-99.02"/>
<text text-anchor="middle" x="197" y="-123.3" font-family="Arial" font-size="14.00">.slice</text>
</g>
<!-- other_ptr_case -->
<g id="node8" class="node">
<title>other_ptr_case</title>
<polygon fill="#f0f0f0" stroke="black" points="298,-97 173,-97 173,-59 298,-59 298,-97"/>
<text text-anchor="middle" x="235.5" y="-81.8" font-family="Arial" font-size="14.00">Default</text>
<text text-anchor="middle" x="235.5" y="-66.8" font-family="Arial" font-size="14.00">result[0] = .integer</text>
</g>
<!-- ptr_size_switch&#45;&gt;other_ptr_case -->
<g id="edge7" class="edge">
<title>ptr_size_switch&#45;&gt;other_ptr_case</title>
<path fill="none" stroke="black" d="M235.5,-157.84C235.5,-143.86 235.5,-123.82 235.5,-107.45"/>
<polygon fill="black" stroke="black" points="239,-107.32 235.5,-97.32 232,-107.32 239,-107.32"/>
<text text-anchor="middle" x="248" y="-123.3" font-family="Arial" font-size="14.00">else</text>
</g>
<!-- end -->
<g id="node40" class="node">
<title>end</title>
<ellipse fill="#ddffdd" stroke="black" cx="1902.5" cy="-18" rx="61.19" ry="18"/>
<text text-anchor="middle" x="1902.5" y="-14.3" font-family="Arial" font-size="14.00">Return result</text>
</g>
<!-- slice_case&#45;&gt;end -->
<g id="edge8" class="edge">
<title>slice_case&#45;&gt;end</title>
<path fill="none" stroke="black" d="M137.33,-61.56C143.12,-60.57 148.9,-59.7 154.5,-59 278.98,-43.43 311.11,-50.86 436.5,-47 972.54,-30.48 1619.15,-22.19 1831.32,-19.77"/>
<polygon fill="black" stroke="black" points="1831.43,-23.27 1841.39,-19.65 1831.35,-16.27 1831.43,-23.27"/>
</g>
<!-- other_ptr_case&#45;&gt;end -->
<g id="edge9" class="edge">
<title>other_ptr_case&#45;&gt;end</title>
<path fill="none" stroke="black" d="M298.18,-61.68C304.01,-60.62 309.85,-59.7 315.5,-59 614.91,-21.91 1562.92,-19 1831.16,-18.94"/>
<polygon fill="black" stroke="black" points="1831.17,-22.44 1841.17,-18.94 1831.17,-15.44 1831.17,-22.44"/>
</g>
<!-- check_bits -->
<g id="node10" class="node">
<title>check_bits</title>
<polygon fill="#f0f0f0" stroke="black" points="823.5,-194 581.52,-176 823.5,-158 1065.48,-176 823.5,-194"/>
<text text-anchor="middle" x="823.5" y="-172.3" font-family="Arial" font-size="14.00">Check bits (&lt;=64, &lt;=128, &lt;=192, &lt;=256)</text>
</g>
<!-- int_case&#45;&gt;check_bits -->
<g id="edge11" class="edge">
<title>int_case&#45;&gt;check_bits</title>
<path fill="none" stroke="black" d="M1199.42,-302.89C1117.31,-275.39 956.87,-221.67 874.69,-194.14"/>
<polygon fill="black" stroke="black" points="875.66,-190.78 865.07,-190.92 873.44,-197.42 875.66,-190.78"/>
</g>
<!-- bits_64 -->
<g id="node11" class="node">
<title>bits_64</title>
<polygon fill="#f0f0f0" stroke="black" points="459,-97 334,-97 334,-59 459,-59 459,-97"/>
<text text-anchor="middle" x="396.5" y="-81.8" font-family="Arial" font-size="14.00">bits &lt;=64</text>
<text text-anchor="middle" x="396.5" y="-66.8" font-family="Arial" font-size="14.00">result[0] = .integer</text>
</g>
<!-- check_bits&#45;&gt;bits_64 -->
<g id="edge12" class="edge">
<title>check_bits&#45;&gt;bits_64</title>
<path fill="none" stroke="black" d="M709.83,-166.4C669.87,-162.02 624.88,-155.52 584.5,-146 537.29,-134.87 485.49,-115.88 448.24,-100.95"/>
<polygon fill="black" stroke="black" points="449.2,-97.56 438.62,-97.05 446.58,-104.05 449.2,-97.56"/>
<text text-anchor="middle" x="600.5" y="-123.3" font-family="Arial" font-size="14.00">&lt;=64</text>
</g>
<!-- bits_128 -->
<g id="node12" class="node">
<title>bits_128</title>
<polygon fill="#f0f0f0" stroke="black" points="632,-97 495,-97 495,-59 632,-59 632,-97"/>
<text text-anchor="middle" x="563.5" y="-81.8" font-family="Arial" font-size="14.00">bits &lt;=128</text>
<text text-anchor="middle" x="563.5" y="-66.8" font-family="Arial" font-size="14.00">result[0&#45;1] = .integer</text>
</g>
<!-- check_bits&#45;&gt;bits_128 -->
<g id="edge13" class="edge">
<title>check_bits&#45;&gt;bits_128</title>
<path fill="none" stroke="black" d="M769.41,-162.01C752.32,-157.46 733.47,-151.98 716.5,-146 679.97,-133.13 639.92,-115.46 609.96,-101.49"/>
<polygon fill="black" stroke="black" points="611.14,-98.18 600.6,-97.1 608.17,-104.52 611.14,-98.18"/>
<text text-anchor="middle" x="736.5" y="-123.3" font-family="Arial" font-size="14.00">&lt;=128</text>
</g>
<!-- bits_192 -->
<g id="node13" class="node">
<title>bits_192</title>
<polygon fill="#f0f0f0" stroke="black" points="805,-97 668,-97 668,-59 805,-59 805,-97"/>
<text text-anchor="middle" x="736.5" y="-81.8" font-family="Arial" font-size="14.00">bits &lt;=192</text>
<text text-anchor="middle" x="736.5" y="-66.8" font-family="Arial" font-size="14.00">result[0&#45;2] = .integer</text>
</g>
<!-- check_bits&#45;&gt;bits_192 -->
<g id="edge14" class="edge">
<title>check_bits&#45;&gt;bits_192</title>
<path fill="none" stroke="black" d="M808.74,-158.71C795.29,-143.87 775.2,-121.7 759.61,-104.51"/>
<polygon fill="black" stroke="black" points="762.12,-102.06 752.81,-97 756.93,-106.76 762.12,-102.06"/>
<text text-anchor="middle" x="815.5" y="-123.3" font-family="Arial" font-size="14.00">&lt;=192</text>
</g>
<!-- bits_256 -->
<g id="node14" class="node">
<title>bits_256</title>
<polygon fill="#f0f0f0" stroke="black" points="978,-97 841,-97 841,-59 978,-59 978,-97"/>
<text text-anchor="middle" x="909.5" y="-81.8" font-family="Arial" font-size="14.00">bits &lt;=256</text>
<text text-anchor="middle" x="909.5" y="-66.8" font-family="Arial" font-size="14.00">result[0&#45;3] = .integer</text>
</g>
<!-- check_bits&#45;&gt;bits_256 -->
<g id="edge15" class="edge">
<title>check_bits&#45;&gt;bits_256</title>
<path fill="none" stroke="black" d="M838.09,-158.71C851.39,-143.87 871.25,-121.7 886.65,-104.51"/>
<polygon fill="black" stroke="black" points="889.31,-106.78 893.37,-97 884.1,-102.11 889.31,-106.78"/>
<text text-anchor="middle" x="902.5" y="-123.3" font-family="Arial" font-size="14.00">&lt;=256</text>
</g>
<!-- bits_overflow -->
<g id="node15" class="node">
<title>bits_overflow</title>
<polygon fill="#f0f0f0" stroke="black" points="1163,-97 1014,-97 1014,-59 1163,-59 1163,-97"/>
<text text-anchor="middle" x="1088.5" y="-81.8" font-family="Arial" font-size="14.00">Else</text>
<text text-anchor="middle" x="1088.5" y="-66.8" font-family="Arial" font-size="14.00">Return memory_class</text>
</g>
<!-- check_bits&#45;&gt;bits_overflow -->
<g id="edge16" class="edge">
<title>check_bits&#45;&gt;bits_overflow</title>
<path fill="none" stroke="black" d="M877.79,-162.02C895.11,-157.46 914.25,-151.96 931.5,-146 969.07,-133.01 1010.37,-115.24 1041.17,-101.27"/>
<polygon fill="black" stroke="black" points="1042.74,-104.4 1050.38,-97.06 1039.83,-98.03 1042.74,-104.4"/>
<text text-anchor="middle" x="1042" y="-123.3" font-family="Arial" font-size="14.00">&gt;256</text>
</g>
<!-- bits_64&#45;&gt;end -->
<g id="edge17" class="edge">
<title>bits_64&#45;&gt;end</title>
<path fill="none" stroke="black" d="M459.18,-61.69C465.01,-60.63 470.85,-59.71 476.5,-59 493.49,-56.87 1546.4,-28.54 1831.81,-20.89"/>
<polygon fill="black" stroke="black" points="1832.13,-24.38 1842.03,-20.62 1831.94,-17.39 1832.13,-24.38"/>
</g>
<!-- bits_128&#45;&gt;end -->
<g id="edge18" class="edge">
<title>bits_128&#45;&gt;end</title>
<path fill="none" stroke="black" d="M632.32,-61.42C638.11,-60.47 643.89,-59.64 649.5,-59 771.85,-45.1 1080.42,-51.77 1203.5,-48 1433.76,-40.94 1706.52,-28.42 1832.41,-22.41"/>
<polygon fill="black" stroke="black" points="1832.85,-25.89 1842.67,-21.92 1832.52,-18.9 1832.85,-25.89"/>
</g>
<!-- bits_192&#45;&gt;end -->
<g id="edge19" class="edge">
<title>bits_192&#45;&gt;end</title>
<path fill="none" stroke="black" d="M805.32,-61.41C811.11,-60.46 816.89,-59.63 822.5,-59 953.69,-44.19 1284.58,-53.16 1416.5,-48 1565.27,-42.19 1739.41,-30.64 1833.57,-24.01"/>
<polygon fill="black" stroke="black" points="1834.08,-27.48 1843.81,-23.28 1833.59,-20.5 1834.08,-27.48"/>
</g>
<!-- bits_256&#45;&gt;end -->
<g id="edge20" class="edge">
<title>bits_256&#45;&gt;end</title>
<path fill="none" stroke="black" d="M978.32,-61.42C984.11,-60.47 989.89,-59.64 995.5,-59 1116.74,-45.22 1422.63,-54.15 1544.5,-48 1646,-42.88 1763.37,-32.52 1835.26,-25.67"/>
<polygon fill="black" stroke="black" points="1835.91,-29.13 1845.53,-24.69 1835.24,-22.16 1835.91,-29.13"/>
</g>
<!-- bits_overflow&#45;&gt;end -->
<g id="edge21" class="edge">
<title>bits_overflow&#45;&gt;end</title>
<path fill="none" stroke="black" d="M1163.15,-61.3C1169,-60.4 1174.84,-59.62 1180.5,-59 1379.38,-37.27 1430.87,-61.06 1630.5,-48 1701.66,-43.34 1782.92,-34.17 1837.95,-27.39"/>
<polygon fill="black" stroke="black" points="1838.42,-30.85 1847.91,-26.15 1837.55,-23.91 1838.42,-30.85"/>
</g>
<!-- float_bits_switch -->
<g id="node17" class="node">
<title>float_bits_switch</title>
<polygon fill="#f0f0f0" stroke="black" points="1592.5,-194 1440.68,-176 1592.5,-158 1744.32,-176 1592.5,-194"/>
<text text-anchor="middle" x="1592.5" y="-172.3" font-family="Arial" font-size="14.00">Switch ty.floatBits(target)</text>
</g>
<!-- float_case&#45;&gt;float_bits_switch -->
<g id="edge23" class="edge">
<title>float_case&#45;&gt;float_bits_switch</title>
<path fill="none" stroke="black" d="M2256.87,-356.48C2134.39,-323.4 1781.67,-228.11 1646.29,-191.53"/>
<polygon fill="black" stroke="black" points="1647.11,-188.13 1636.54,-188.9 1645.28,-194.89 1647.11,-188.13"/>
</g>
<!-- float_16 -->
<g id="node18" class="node">
<title>float_16</title>
<polygon fill="#f0f0f0" stroke="black" points="1300.5,-97 1198.5,-97 1198.5,-59 1300.5,-59 1300.5,-97"/>
<text text-anchor="middle" x="1249.5" y="-81.8" font-family="Arial" font-size="14.00">16&#45;bit</text>
<text text-anchor="middle" x="1249.5" y="-66.8" font-family="Arial" font-size="14.00">Check context</text>
</g>
<!-- float_bits_switch&#45;&gt;float_16 -->
<g id="edge24" class="edge">
<title>float_bits_switch&#45;&gt;float_16</title>
<path fill="none" stroke="black" d="M1524.02,-166.01C1493.83,-161.29 1458.1,-154.66 1426.5,-146 1382.91,-134.06 1335.05,-115.6 1300.11,-101.08"/>
<polygon fill="black" stroke="black" points="1301.18,-97.74 1290.61,-97.1 1298.48,-104.19 1301.18,-97.74"/>
<text text-anchor="middle" x="1434.5" y="-123.3" font-family="Arial" font-size="14.00">16</text>
</g>
<!-- float_32 -->
<g id="node19" class="node">
<title>float_32</title>
<polygon fill="#f0f0f0" stroke="black" points="1446.5,-97 1336.5,-97 1336.5,-59 1446.5,-59 1446.5,-97"/>
<text text-anchor="middle" x="1391.5" y="-81.8" font-family="Arial" font-size="14.00">32&#45;bit</text>
<text text-anchor="middle" x="1391.5" y="-66.8" font-family="Arial" font-size="14.00">result[0] = .float</text>
</g>
<!-- float_bits_switch&#45;&gt;float_32 -->
<g id="edge25" class="edge">
<title>float_bits_switch&#45;&gt;float_32</title>
<path fill="none" stroke="black" d="M1562.64,-161.41C1552.14,-156.59 1540.28,-151.1 1529.5,-146 1498.7,-131.44 1464.23,-114.7 1437.44,-101.6"/>
<polygon fill="black" stroke="black" points="1438.82,-98.38 1428.3,-97.12 1435.74,-104.66 1438.82,-98.38"/>
<text text-anchor="middle" x="1537.5" y="-123.3" font-family="Arial" font-size="14.00">32</text>
</g>
<!-- float_64 -->
<g id="node20" class="node">
<title>float_64</title>
<polygon fill="#f0f0f0" stroke="black" points="1588,-97 1483,-97 1483,-59 1588,-59 1588,-97"/>
<text text-anchor="middle" x="1535.5" y="-81.8" font-family="Arial" font-size="14.00">64&#45;bit</text>
<text text-anchor="middle" x="1535.5" y="-66.8" font-family="Arial" font-size="14.00">result[0] = .sse</text>
</g>
<!-- float_bits_switch&#45;&gt;float_64 -->
<g id="edge26" class="edge">
<title>float_bits_switch&#45;&gt;float_64</title>
<path fill="none" stroke="black" d="M1582.83,-158.71C1574.25,-144.27 1561.56,-122.89 1551.48,-105.91"/>
<polygon fill="black" stroke="black" points="1554.3,-103.81 1546.19,-97 1548.28,-107.39 1554.3,-103.81"/>
<text text-anchor="middle" x="1582.5" y="-123.3" font-family="Arial" font-size="14.00">64</text>
</g>
<!-- float_128 -->
<g id="node21" class="node">
<title>float_128</title>
<polygon fill="#f0f0f0" stroke="black" points="1785,-97 1624,-97 1624,-59 1785,-59 1785,-97"/>
<text text-anchor="middle" x="1704.5" y="-81.8" font-family="Arial" font-size="14.00">128&#45;bit</text>
<text text-anchor="middle" x="1704.5" y="-66.8" font-family="Arial" font-size="14.00">result[0&#45;1] = .sse/.sseup</text>
</g>
<!-- float_bits_switch&#45;&gt;float_128 -->
<g id="edge27" class="edge">
<title>float_bits_switch&#45;&gt;float_128</title>
<path fill="none" stroke="black" d="M1610,-160C1627.57,-144.94 1654.93,-121.49 1675.7,-103.69"/>
<polygon fill="black" stroke="black" points="1677.99,-106.34 1683.3,-97.17 1673.43,-101.02 1677.99,-106.34"/>
<text text-anchor="middle" x="1680" y="-123.3" font-family="Arial" font-size="14.00">128</text>
</g>
<!-- float_80 -->
<g id="node22" class="node">
<title>float_80</title>
<polygon fill="#f0f0f0" stroke="black" points="1983.5,-97 1821.5,-97 1821.5,-59 1983.5,-59 1983.5,-97"/>
<text text-anchor="middle" x="1902.5" y="-81.8" font-family="Arial" font-size="14.00">80&#45;bit</text>
<text text-anchor="middle" x="1902.5" y="-66.8" font-family="Arial" font-size="14.00">result[0&#45;1] = .x87/.x87up</text>
</g>
<!-- float_bits_switch&#45;&gt;float_80 -->
<g id="edge28" class="edge">
<title>float_bits_switch&#45;&gt;float_80</title>
<path fill="none" stroke="black" d="M1638.12,-163.38C1657.43,-158.29 1680.14,-152.11 1700.5,-146 1748.07,-131.74 1801.38,-113.98 1841.28,-100.33"/>
<polygon fill="black" stroke="black" points="1842.54,-103.6 1850.87,-97.04 1840.27,-96.98 1842.54,-103.6"/>
<text text-anchor="middle" x="1824.5" y="-123.3" font-family="Arial" font-size="14.00">80</text>
</g>
<!-- float_16&#45;&gt;end -->
<g id="edge29" class="edge">
<title>float_16&#45;&gt;end</title>
<path fill="none" stroke="black" d="M1300.86,-62.25C1306.77,-60.95 1312.74,-59.82 1318.5,-59 1483.99,-35.3 1527.91,-62.01 1694.5,-48 1744.01,-43.84 1799.74,-35.89 1841.05,-29.37"/>
<polygon fill="black" stroke="black" points="1841.64,-32.82 1850.96,-27.78 1840.53,-25.9 1841.64,-32.82"/>
</g>
<!-- float_32&#45;&gt;end -->
<g id="edge30" class="edge">
<title>float_32&#45;&gt;end</title>
<path fill="none" stroke="black" d="M1446.67,-62.15C1452.66,-60.91 1458.68,-59.82 1464.5,-59 1588.25,-41.5 1621.28,-61.83 1745.5,-48 1778.77,-44.3 1815.58,-37.63 1845.2,-31.63"/>
<polygon fill="black" stroke="black" points="1846.27,-34.98 1855.36,-29.54 1844.86,-28.12 1846.27,-34.98"/>
</g>
<!-- float_64&#45;&gt;end -->
<g id="edge31" class="edge">
<title>float_64&#45;&gt;end</title>
<path fill="none" stroke="black" d="M1588.02,-62.34C1593.88,-61.05 1599.8,-59.89 1605.5,-59 1687.31,-46.18 1709.71,-60.97 1791.5,-48 1811.59,-44.81 1833.32,-39.55 1852.18,-34.38"/>
<polygon fill="black" stroke="black" points="1853.37,-37.68 1862.05,-31.61 1851.48,-30.94 1853.37,-37.68"/>
</g>
<!-- float_128&#45;&gt;end -->
<g id="edge32" class="edge">
<title>float_128&#45;&gt;end</title>
<path fill="none" stroke="black" d="M1785.17,-61.68C1801.96,-57.78 1819.43,-53.2 1835.5,-48 1844.44,-45.1 1853.83,-41.45 1862.65,-37.72"/>
<polygon fill="black" stroke="black" points="1864.17,-40.88 1871.95,-33.68 1861.39,-34.46 1864.17,-40.88"/>
</g>
<!-- float_80&#45;&gt;end -->
<g id="edge33" class="edge">
<title>float_80&#45;&gt;end</title>
<path fill="none" stroke="black" d="M1902.5,-58.97C1902.5,-54.97 1902.5,-50.64 1902.5,-46.36"/>
<polygon fill="black" stroke="black" points="1906,-46.03 1902.5,-36.03 1899,-46.03 1906,-46.03"/>
</g>
<!-- check_elem_bits -->
<g id="node24" class="node">
<title>check_elem_bits</title>
<polygon fill="#f0f0f0" stroke="black" points="2281.5,-194 2136.05,-176 2281.5,-158 2426.95,-176 2281.5,-194"/>
<text text-anchor="middle" x="2281.5" y="-172.3" font-family="Arial" font-size="14.00">Check elem_ty and bits</text>
</g>
<!-- vector_case&#45;&gt;check_elem_bits -->
<g id="edge35" class="edge">
<title>vector_case&#45;&gt;check_elem_bits</title>
<path fill="none" stroke="black" d="M2358.01,-302.75C2342.67,-277.55 2314.07,-230.53 2296.51,-201.67"/>
<polygon fill="black" stroke="black" points="2299.42,-199.72 2291.23,-192.99 2293.44,-203.35 2299.42,-199.72"/>
</g>
<!-- vector_bool_logic -->
<g id="node25" class="node">
<title>vector_bool_logic</title>
<polygon fill="#f0f0f0" stroke="black" points="2177.5,-97 2019.5,-97 2019.5,-59 2177.5,-59 2177.5,-97"/>
<text text-anchor="middle" x="2098.5" y="-81.8" font-family="Arial" font-size="14.00">Bool vector logic</text>
<text text-anchor="middle" x="2098.5" y="-66.8" font-family="Arial" font-size="14.00">Check bits and features</text>
</g>
<!-- check_elem_bits&#45;&gt;vector_bool_logic -->
<g id="edge36" class="edge">
<title>check_elem_bits&#45;&gt;vector_bool_logic</title>
<path fill="none" stroke="black" d="M2235.93,-163.61C2221.05,-159.07 2204.7,-153.19 2190.5,-146 2167.78,-134.49 2144.61,-117.58 2127.21,-103.63"/>
<polygon fill="black" stroke="black" points="2129.12,-100.67 2119.16,-97.06 2124.69,-106.09 2129.12,-100.67"/>
<text text-anchor="middle" x="2236" y="-123.3" font-family="Arial" font-size="14.00">elem_ty is bool</text>
</g>
<!-- vector_general_logic -->
<g id="node26" class="node">
<title>vector_general_logic</title>
<polygon fill="#f0f0f0" stroke="black" points="2401.5,-97 2213.5,-97 2213.5,-59 2401.5,-59 2401.5,-97"/>
<text text-anchor="middle" x="2307.5" y="-81.8" font-family="Arial" font-size="14.00">General vector logic</text>
<text text-anchor="middle" x="2307.5" y="-66.8" font-family="Arial" font-size="14.00">Check bits and AVX/AVX512</text>
</g>
<!-- check_elem_bits&#45;&gt;vector_general_logic -->
<g id="edge37" class="edge">
<title>check_elem_bits&#45;&gt;vector_general_logic</title>
<path fill="none" stroke="black" d="M2286.03,-158.28C2289.86,-144.13 2295.43,-123.56 2299.94,-106.92"/>
<polygon fill="black" stroke="black" points="2303.35,-107.73 2302.58,-97.16 2296.59,-105.9 2303.35,-107.73"/>
<text text-anchor="middle" x="2312" y="-123.3" font-family="Arial" font-size="14.00">else</text>
</g>
<!-- vector_bool_logic&#45;&gt;end -->
<g id="edge38" class="edge">
<title>vector_bool_logic&#45;&gt;end</title>
<path fill="none" stroke="black" d="M2037.56,-58.97C2010.77,-51.04 1979.66,-41.83 1954.05,-34.25"/>
<polygon fill="black" stroke="black" points="1954.74,-30.81 1944.16,-31.33 1952.76,-37.52 1954.74,-30.81"/>
</g>
<!-- vector_general_logic&#45;&gt;end -->
<g id="edge39" class="edge">
<title>vector_general_logic&#45;&gt;end</title>
<path fill="none" stroke="black" d="M2213.42,-61.71C2207.36,-60.78 2201.34,-59.87 2195.5,-59 2117.13,-47.35 2026.77,-35.21 1967.36,-27.41"/>
<polygon fill="black" stroke="black" points="1967.74,-23.93 1957.37,-26.1 1966.83,-30.87 1967.74,-23.93"/>
</g>
<!-- check_container_layout -->
<g id="node28" class="node">
<title>check_container_layout</title>
<polygon fill="#f0f0f0" stroke="black" points="2557.5,-291 2415.9,-273 2557.5,-255 2699.1,-273 2557.5,-291"/>
<text text-anchor="middle" x="2557.5" y="-269.3" font-family="Arial" font-size="14.00">Check container layout</text>
</g>
<!-- struct_case&#45;&gt;check_container_layout -->
<g id="edge41" class="edge">
<title>struct_case&#45;&gt;check_container_layout</title>
<path fill="none" stroke="black" d="M2557.5,-350.76C2557.5,-336.98 2557.5,-317.4 2557.5,-301.47"/>
<polygon fill="black" stroke="black" points="2561,-301.13 2557.5,-291.13 2554,-301.13 2561,-301.13"/>
</g>
<!-- packed_layout -->
<g id="node29" class="node">
<title>packed_layout</title>
<polygon fill="#f0f0f0" stroke="black" points="2537,-146 2406,-146 2406,-108 2537,-108 2537,-146"/>
<text text-anchor="middle" x="2471.5" y="-130.8" font-family="Arial" font-size="14.00">.packed</text>
<text text-anchor="middle" x="2471.5" y="-115.8" font-family="Arial" font-size="14.00">Set integer classes</text>
</g>
<!-- check_container_layout&#45;&gt;packed_layout -->
<g id="edge42" class="edge">
<title>check_container_layout&#45;&gt;packed_layout</title>
<path fill="none" stroke="black" d="M2532.09,-258.15C2526.4,-254.16 2520.79,-249.4 2516.5,-244 2495.82,-217.94 2483.74,-181.26 2477.39,-156.16"/>
<polygon fill="black" stroke="black" points="2480.73,-155.1 2475.01,-146.18 2473.92,-156.72 2480.73,-155.1"/>
<text text-anchor="middle" x="2540.5" y="-221.3" font-family="Arial" font-size="14.00">.packed</text>
</g>
<!-- size_check -->
<g id="node30" class="node">
<title>size_check</title>
<polygon fill="#f0f0f0" stroke="black" points="2686,-195 2537,-195 2537,-157 2686,-157 2686,-195"/>
<text text-anchor="middle" x="2611.5" y="-179.8" font-family="Arial" font-size="14.00">Check size &gt;64</text>
<text text-anchor="middle" x="2611.5" y="-164.8" font-family="Arial" font-size="14.00">Return memory_class</text>
</g>
<!-- check_container_layout&#45;&gt;size_check -->
<g id="edge43" class="edge">
<title>check_container_layout&#45;&gt;size_check</title>
<path fill="none" stroke="black" d="M2566.66,-255.88C2574.73,-241.68 2586.66,-220.7 2596.18,-203.95"/>
<polygon fill="black" stroke="black" points="2599.29,-205.57 2601.19,-195.14 2593.2,-202.11 2599.29,-205.57"/>
<text text-anchor="middle" x="2632.5" y="-221.3" font-family="Arial" font-size="14.00">.auto/.extern</text>
</g>
<!-- packed_layout&#45;&gt;end -->
<g id="edge44" class="edge">
<title>packed_layout&#45;&gt;end</title>
<path fill="none" stroke="black" d="M2462.99,-108C2454.42,-92.1 2439.59,-69.82 2419.5,-59 2381.16,-38.36 2105.52,-26.07 1973.13,-21.3"/>
<polygon fill="black" stroke="black" points="1973.2,-17.8 1963.08,-20.94 1972.95,-24.79 1973.2,-17.8"/>
</g>
<!-- struct_union_logic -->
<g id="node31" class="node">
<title>struct_union_logic</title>
<polygon fill="#f0f0f0" stroke="black" points="2677,-97 2512,-97 2512,-59 2677,-59 2677,-97"/>
<text text-anchor="middle" x="2594.5" y="-81.8" font-family="Arial" font-size="14.00">Recursive classification</text>
<text text-anchor="middle" x="2594.5" y="-66.8" font-family="Arial" font-size="14.00">Check post&#45;merger rules</text>
</g>
<!-- size_check&#45;&gt;struct_union_logic -->
<g id="edge45" class="edge">
<title>size_check&#45;&gt;struct_union_logic</title>
<path fill="none" stroke="black" d="M2608.3,-156.94C2605.83,-142.95 2602.35,-123.31 2599.5,-107.25"/>
<polygon fill="black" stroke="black" points="2602.93,-106.54 2597.74,-97.3 2596.04,-107.76 2602.93,-106.54"/>
<text text-anchor="middle" x="2636.5" y="-123.3" font-family="Arial" font-size="14.00">size &lt;=64</text>
</g>
<!-- size_check&#45;&gt;end -->
<g id="edge46" class="edge">
<title>size_check&#45;&gt;end</title>
<path fill="none" stroke="black" d="M2661.94,-156.9C2666.91,-153.78 2671.56,-150.17 2675.5,-146 2702.7,-117.25 2721.54,-87.9 2694.5,-59 2670.07,-32.89 2163.45,-22.81 1973.55,-19.94"/>
<polygon fill="black" stroke="black" points="1973.45,-16.44 1963.4,-19.79 1973.35,-23.44 1973.45,-16.44"/>
<text text-anchor="middle" x="2734.5" y="-74.3" font-family="Arial" font-size="14.00">size &gt;64</text>
</g>
<!-- struct_union_logic&#45;&gt;end -->
<g id="edge47" class="edge">
<title>struct_union_logic&#45;&gt;end</title>
<path fill="none" stroke="black" d="M2537.64,-58.96C2520.71,-54.27 2502,-49.77 2484.5,-47 2388.1,-31.72 2106.33,-23.57 1973.43,-20.48"/>
<polygon fill="black" stroke="black" points="1973.43,-16.98 1963.35,-20.25 1973.27,-23.98 1973.43,-16.98"/>
</g>
<!-- array_size_check -->
<g id="node33" class="node">
<title>array_size_check</title>
<polygon fill="#f0f0f0" stroke="black" points="3019.5,-194 2845.56,-176 3019.5,-158 3193.44,-176 3019.5,-194"/>
<text text-anchor="middle" x="3019.5" y="-172.3" font-family="Arial" font-size="14.00">Check size (&lt;=8, &lt;=16, &gt;16)</text>
</g>
<!-- array_case&#45;&gt;array_size_check -->
<g id="edge49" class="edge">
<title>array_case&#45;&gt;array_size_check</title>
<path fill="none" stroke="black" d="M2880.29,-254.8C2909.68,-238.37 2953.92,-213.65 2984.61,-196.5"/>
<polygon fill="black" stroke="black" points="2986.65,-199.37 2993.67,-191.44 2983.23,-193.26 2986.65,-199.37"/>
</g>
<!-- array_8 -->
<g id="node34" class="node">
<title>array_8</title>
<polygon fill="#f0f0f0" stroke="black" points="2963,-97 2838,-97 2838,-59 2963,-59 2963,-97"/>
<text text-anchor="middle" x="2900.5" y="-81.8" font-family="Arial" font-size="14.00">size &lt;=8</text>
<text text-anchor="middle" x="2900.5" y="-66.8" font-family="Arial" font-size="14.00">result[0] = .integer</text>
</g>
<!-- array_size_check&#45;&gt;array_8 -->
<g id="edge50" class="edge">
<title>array_size_check&#45;&gt;array_8</title>
<path fill="none" stroke="black" d="M3000.64,-159.79C2981.93,-144.69 2952.95,-121.31 2930.96,-103.58"/>
<polygon fill="black" stroke="black" points="2932.9,-100.64 2922.92,-97.09 2928.5,-106.09 2932.9,-100.64"/>
<text text-anchor="middle" x="2994" y="-123.3" font-family="Arial" font-size="14.00">&lt;=8</text>
</g>
<!-- array_16 -->
<g id="node35" class="node">
<title>array_16</title>
<polygon fill="#f0f0f0" stroke="black" points="3136,-97 2999,-97 2999,-59 3136,-59 3136,-97"/>
<text text-anchor="middle" x="3067.5" y="-81.8" font-family="Arial" font-size="14.00">size &lt;=16</text>
<text text-anchor="middle" x="3067.5" y="-66.8" font-family="Arial" font-size="14.00">result[0&#45;1] = .integer</text>
</g>
<!-- array_size_check&#45;&gt;array_16 -->
<g id="edge51" class="edge">
<title>array_size_check&#45;&gt;array_16</title>
<path fill="none" stroke="black" d="M3027.64,-158.71C3034.8,-144.41 3045.36,-123.29 3053.81,-106.38"/>
<polygon fill="black" stroke="black" points="3057.16,-107.51 3058.5,-97 3050.9,-104.38 3057.16,-107.51"/>
<text text-anchor="middle" x="3068.5" y="-123.3" font-family="Arial" font-size="14.00">&lt;=16</text>
</g>
<!-- array_overflow -->
<g id="node36" class="node">
<title>array_overflow</title>
<polygon fill="#f0f0f0" stroke="black" points="3321,-97 3172,-97 3172,-59 3321,-59 3321,-97"/>
<text text-anchor="middle" x="3246.5" y="-81.8" font-family="Arial" font-size="14.00">size &gt;16</text>
<text text-anchor="middle" x="3246.5" y="-66.8" font-family="Arial" font-size="14.00">Return memory_class</text>
</g>
<!-- array_size_check&#45;&gt;array_overflow -->
<g id="edge52" class="edge">
<title>array_size_check&#45;&gt;array_overflow</title>
<path fill="none" stroke="black" d="M3054.62,-161.56C3066.96,-156.76 3080.88,-151.23 3093.5,-146 3128.3,-131.57 3167.19,-114.52 3197.06,-101.24"/>
<polygon fill="black" stroke="black" points="3198.71,-104.33 3206.42,-97.07 3195.86,-97.94 3198.71,-104.33"/>
<text text-anchor="middle" x="3193.5" y="-123.3" font-family="Arial" font-size="14.00">&gt;16</text>
</g>
<!-- array_8&#45;&gt;end -->
<g id="edge53" class="edge">
<title>array_8&#45;&gt;end</title>
<path fill="none" stroke="black" d="M2837.78,-59.05C2818.59,-54.28 2797.32,-49.7 2777.5,-47 2622.94,-25.91 2153.69,-20.64 1973.77,-19.38"/>
<polygon fill="black" stroke="black" points="1973.64,-15.88 1963.62,-19.31 1973.6,-22.88 1973.64,-15.88"/>
</g>
<!-- array_16&#45;&gt;end -->
<g id="edge54" class="edge">
<title>array_16&#45;&gt;end</title>
<path fill="none" stroke="black" d="M2998.79,-61.9C2992.62,-60.81 2986.46,-59.82 2980.5,-59 2905.03,-48.59 2885.59,-50.84 2809.5,-47 2498.24,-31.28 2126.41,-23.14 1973.5,-20.25"/>
<polygon fill="black" stroke="black" points="1973.37,-16.74 1963.31,-20.05 1973.24,-23.74 1973.37,-16.74"/>
</g>
<!-- array_overflow&#45;&gt;end -->
<g id="edge55" class="edge">
<title>array_overflow&#45;&gt;end</title>
<path fill="none" stroke="black" d="M3171.78,-61.52C3165.62,-60.55 3159.46,-59.69 3153.5,-59 3018.74,-43.4 2984.08,-51.67 2848.5,-47 2521.31,-35.72 2130.37,-25.04 1973.12,-20.86"/>
<polygon fill="black" stroke="black" points="1973.19,-17.36 1963.1,-20.59 1973,-24.35 1973.19,-17.36"/>
</g>
<!-- bool_void_case&#45;&gt;end -->
<g id="edge57" class="edge">
<title>bool_void_case&#45;&gt;end</title>
<path fill="none" stroke="black" d="M3275.43,-301.68C3314.35,-254.7 3406.33,-128.75 3338.5,-59 3314.47,-34.29 2260.39,-22.42 1973.79,-19.65"/>
<polygon fill="black" stroke="black" points="1973.55,-16.15 1963.51,-19.55 1973.48,-23.15 1973.55,-16.15"/>
</g>
<!-- optional_case&#45;&gt;end -->
<g id="edge59" class="edge">
<title>optional_case&#45;&gt;end</title>
<path fill="none" stroke="black" d="M3452.16,-205.74C3454.37,-168.81 3453.37,-85.53 3404.5,-47 3376.1,-24.61 2268.73,-20 1973.96,-19.17"/>
<polygon fill="black" stroke="black" points="1973.83,-15.67 1963.82,-19.14 1973.81,-22.67 1973.83,-15.67"/>
</g>
<!-- default_case&#45;&gt;end -->
<g id="edge61" class="edge">
<title>default_case&#45;&gt;end</title>
<path fill="none" stroke="black" d="M3524.32,-107.76C3516.8,-88.76 3502.09,-59.99 3478.5,-47 3445.15,-28.64 2278.1,-21.04 1974.23,-19.37"/>
<polygon fill="black" stroke="black" points="1973.81,-15.87 1963.79,-19.31 1973.77,-22.87 1973.81,-15.87"/>
</g>
</g>
</svg>
