<?xml version="1.0" encoding="UTF-8" standalone="no"?>
<!DOCTYPE svg PUBLIC "-//W3C//DTD SVG 1.1//EN"
 "http://www.w3.org/Graphics/SVG/1.1/DTD/svg11.dtd">
<!-- Generated by graphviz version 2.43.0 (0)
 -->
<!-- Title: EncoderFlow Pages: 1 -->
<svg width="4592pt" height="593pt"
 viewBox="0.00 0.00 4592.00 593.00" xmlns="http://www.w3.org/2000/svg" xmlns:xlink="http://www.w3.org/1999/xlink">
<g id="graph0" class="graph" transform="scale(1 1) rotate(0) translate(4 589)">
<title>EncoderFlow</title>
<polygon fill="white" stroke="transparent" points="-4,4 -4,-589 4588,-589 4588,4 -4,4"/>
<g id="clust1" class="cluster">
<title>cluster_legacy_prefixes</title>
<polygon fill="none" stroke="black" points="406,-341 406,-577 830,-577 830,-341 406,-341"/>
<text text-anchor="middle" x="618" y="-561.8" font-family="Times,serif" font-size="14.00">Legacy 前缀处理</text>
</g>
<g id="clust2" class="cluster">
<title>cluster_rex</title>
<polygon fill="none" stroke="black" points="838,-253 838,-577 1162,-577 1162,-253 838,-253"/>
<text text-anchor="middle" x="1000" y="-561.8" font-family="Times,serif" font-size="14.00">REX 前缀处理</text>
</g>
<g id="clust3" class="cluster">
<title>cluster_vex</title>
<polygon fill="none" stroke="black" points="1170,-253 1170,-577 1467,-577 1467,-253 1170,-253"/>
<text text-anchor="middle" x="1318.5" y="-561.8" font-family="Times,serif" font-size="14.00">VEX 前缀处理</text>
</g>
<g id="clust4" class="cluster">
<title>cluster_opcode</title>
<polygon fill="none" stroke="black" points="1475,-502 1475,-577 2405,-577 2405,-502 1475,-502"/>
<text text-anchor="middle" x="1940" y="-561.8" font-family="Times,serif" font-size="14.00">操作码处理</text>
</g>
<g id="clust5" class="cluster">
<title>cluster_modrm</title>
<polygon fill="none" stroke="black" points="2413,-502 2413,-577 3479,-577 3479,-502 2413,-502"/>
<text text-anchor="middle" x="2946" y="-561.8" font-family="Times,serif" font-size="14.00">ModR/M 处理</text>
</g>
<g id="clust6" class="cluster">
<title>cluster_sib</title>
<polygon fill="none" stroke="black" points="3487,-502 3487,-577 4130,-577 4130,-502 3487,-502"/>
<text text-anchor="middle" x="3808.5" y="-561.8" font-family="Times,serif" font-size="14.00">SIB 处理</text>
</g>
<g id="clust7" class="cluster">
<title>cluster_data</title>
<polygon fill="none" stroke="black" points="4138,-502 4138,-577 4576,-577 4576,-502 4138,-502"/>
<text text-anchor="middle" x="4357" y="-561.8" font-family="Times,serif" font-size="14.00">数据编码</text>
</g>
<!-- start -->
<g id="node1" class="node">
<title>start</title>
<path fill="none" stroke="black" d="M378,-546C378,-546 150,-546 150,-546 144,-546 138,-540 138,-534 138,-534 138,-522 138,-522 138,-516 144,-510 150,-510 150,-510 378,-510 378,-510 384,-510 390,-516 390,-522 390,-522 390,-534 390,-534 390,-540 384,-546 378,-546"/>
<text text-anchor="middle" x="264" y="-524.3" font-family="Times,serif" font-size="14.00">Encoder 函数入口 (泛型结构体构造)</text>
</g>
<!-- legacy_prefixes -->
<g id="node33" class="node">
<title>legacy_prefixes</title>
<path fill="none" stroke="black" d="M114,-473C114,-473 12,-473 12,-473 6,-473 0,-467 0,-461 0,-461 0,-449 0,-449 0,-443 6,-437 12,-437 12,-437 114,-437 114,-437 120,-437 126,-443 126,-449 126,-449 126,-461 126,-461 126,-467 120,-473 114,-473"/>
<text text-anchor="middle" x="63" y="-451.3" font-family="Times,serif" font-size="14.00">legacy_prefixes</text>
</g>
<!-- start&#45;&gt;legacy_prefixes -->
<g id="edge13" class="edge">
<title>start&#45;&gt;legacy_prefixes</title>
<path fill="none" stroke="black" d="M196.11,-509.98C177.71,-504.79 157.92,-498.67 140,-492 128.77,-487.82 116.91,-482.67 105.96,-477.59"/>
<polygon fill="black" stroke="black" points="107.14,-474.27 96.61,-473.16 104.15,-480.6 107.14,-474.27"/>
</g>
<!-- rex -->
<g id="node34" class="node">
<title>rex</title>
<path fill="none" stroke="black" d="M169,-385C169,-385 139,-385 139,-385 133,-385 127,-379 127,-373 127,-373 127,-361 127,-361 127,-355 133,-349 139,-349 139,-349 169,-349 169,-349 175,-349 181,-355 181,-361 181,-361 181,-373 181,-373 181,-379 175,-385 169,-385"/>
<text text-anchor="middle" x="154" y="-363.3" font-family="Times,serif" font-size="14.00">rex</text>
</g>
<!-- start&#45;&gt;rex -->
<g id="edge14" class="edge">
<title>start&#45;&gt;rex</title>
<path fill="none" stroke="black" d="M218.8,-509.82C201.95,-501.23 184.21,-489.14 173,-473 157.2,-450.25 153.37,-418.25 152.93,-395.57"/>
<polygon fill="black" stroke="black" points="156.43,-395.27 152.94,-385.27 149.43,-395.26 156.43,-395.27"/>
</g>
<!-- vex -->
<g id="node35" class="node">
<title>vex</title>
<path fill="none" stroke="black" d="M224,-473C224,-473 194,-473 194,-473 188,-473 182,-467 182,-461 182,-461 182,-449 182,-449 182,-443 188,-437 194,-437 194,-437 224,-437 224,-437 230,-437 236,-443 236,-449 236,-449 236,-461 236,-461 236,-467 230,-473 224,-473"/>
<text text-anchor="middle" x="209" y="-451.3" font-family="Times,serif" font-size="14.00">vex</text>
</g>
<!-- start&#45;&gt;vex -->
<g id="edge15" class="edge">
<title>start&#45;&gt;vex</title>
<path fill="none" stroke="black" d="M250.69,-509.81C244,-501.18 235.77,-490.56 228.39,-481.03"/>
<polygon fill="black" stroke="black" points="231.08,-478.79 222.19,-473.03 225.55,-483.08 231.08,-478.79"/>
</g>
<!-- opcode -->
<g id="node36" class="node">
<title>opcode</title>
<path fill="none" stroke="black" d="M214.5,-297C214.5,-297 171.5,-297 171.5,-297 165.5,-297 159.5,-291 159.5,-285 159.5,-285 159.5,-273 159.5,-273 159.5,-267 165.5,-261 171.5,-261 171.5,-261 214.5,-261 214.5,-261 220.5,-261 226.5,-267 226.5,-273 226.5,-273 226.5,-285 226.5,-285 226.5,-291 220.5,-297 214.5,-297"/>
<text text-anchor="middle" x="193" y="-275.3" font-family="Times,serif" font-size="14.00">opcode</text>
</g>
<!-- start&#45;&gt;opcode -->
<g id="edge16" class="edge">
<title>start&#45;&gt;opcode</title>
<path fill="none" stroke="black" d="M267.81,-509.79C275.29,-471.56 288.02,-378 250,-315 246.33,-308.92 241.16,-303.75 235.42,-299.4"/>
<polygon fill="black" stroke="black" points="236.97,-296.23 226.71,-293.6 233.1,-302.05 236.97,-296.23"/>
</g>
<!-- modrm -->
<g id="node37" class="node">
<title>modrm</title>
<path fill="none" stroke="black" d="M216,-210C216,-210 172,-210 172,-210 166,-210 160,-204 160,-198 160,-198 160,-186 160,-186 160,-180 166,-174 172,-174 172,-174 216,-174 216,-174 222,-174 228,-180 228,-186 228,-186 228,-198 228,-198 228,-204 222,-210 216,-210"/>
<text text-anchor="middle" x="194" y="-188.3" font-family="Times,serif" font-size="14.00">modrm</text>
</g>
<!-- start&#45;&gt;modrm -->
<g id="edge17" class="edge">
<title>start&#45;&gt;modrm</title>
<path fill="none" stroke="black" d="M279.24,-509.96C289.81,-496.36 302,-476.27 302,-456 302,-456 302,-456 302,-278 302,-254.92 303.62,-244.98 288,-228 275.09,-213.97 256.02,-205.53 238.43,-200.48"/>
<polygon fill="black" stroke="black" points="238.86,-196.97 228.3,-197.88 237.12,-203.75 238.86,-196.97"/>
</g>
<!-- sib -->
<g id="node38" class="node">
<title>sib</title>
<path fill="none" stroke="black" d="M346,-123C346,-123 316,-123 316,-123 310,-123 304,-117 304,-111 304,-111 304,-99 304,-99 304,-93 310,-87 316,-87 316,-87 346,-87 346,-87 352,-87 358,-93 358,-99 358,-99 358,-111 358,-111 358,-117 352,-123 346,-123"/>
<text text-anchor="middle" x="331" y="-101.3" font-family="Times,serif" font-size="14.00">sib</text>
</g>
<!-- start&#45;&gt;sib -->
<g id="edge18" class="edge">
<title>start&#45;&gt;sib</title>
<path fill="none" stroke="black" d="M300.22,-509.94C319.79,-497.97 340,-479.83 340,-456 340,-456 340,-456 340,-191 340,-171.64 337.66,-149.95 335.37,-133.32"/>
<polygon fill="black" stroke="black" points="338.8,-132.59 333.9,-123.2 331.88,-133.6 338.8,-132.59"/>
</g>
<!-- data -->
<g id="node39" class="node">
<title>data</title>
<path fill="none" stroke="black" d="M287,-36C287,-36 257,-36 257,-36 251,-36 245,-30 245,-24 245,-24 245,-12 245,-12 245,-6 251,0 257,0 257,0 287,0 287,0 293,0 299,-6 299,-12 299,-12 299,-24 299,-24 299,-30 293,-36 287,-36"/>
<text text-anchor="middle" x="272" y="-14.3" font-family="Times,serif" font-size="14.00">data</text>
</g>
<!-- start&#45;&gt;data -->
<g id="edge19" class="edge">
<title>start&#45;&gt;data</title>
<path fill="none" stroke="black" d="M338.83,-509.93C364.09,-499.39 386,-482.59 386,-456 386,-456 386,-456 386,-104 386,-80.92 387.79,-70.83 372,-54 355.67,-36.59 330.2,-27.84 309.05,-23.44"/>
<polygon fill="black" stroke="black" points="309.54,-19.97 299.08,-21.61 308.28,-26.86 309.54,-19.97"/>
</g>
<!-- legacy_start -->
<g id="node2" class="node">
<title>legacy_start</title>
<path fill="none" stroke="black" d="M759,-546C759,-546 595,-546 595,-546 589,-546 583,-540 583,-534 583,-534 583,-522 583,-522 583,-516 589,-510 595,-510 595,-510 759,-510 759,-510 765,-510 771,-516 771,-522 771,-522 771,-534 771,-534 771,-540 765,-546 759,-546"/>
<text text-anchor="middle" x="677" y="-524.3" font-family="Times,serif" font-size="14.00">legacyPrefixes(prefixes)</text>
</g>
<!-- check_prefixes -->
<g id="node3" class="node">
<title>check_prefixes</title>
<path fill="none" stroke="black" d="M756,-473C756,-473 598,-473 598,-473 592,-473 586,-467 586,-461 586,-461 586,-449 586,-449 586,-443 592,-437 598,-437 598,-437 756,-437 756,-437 762,-437 768,-443 768,-449 768,-449 768,-461 768,-461 768,-467 762,-473 756,-473"/>
<text text-anchor="middle" x="677" y="-451.3" font-family="Times,serif" font-size="14.00">检查 prefixes 是否为非零</text>
</g>
<!-- legacy_start&#45;&gt;check_prefixes -->
<g id="edge1" class="edge">
<title>legacy_start&#45;&gt;check_prefixes</title>
<path fill="none" stroke="black" d="M677,-509.81C677,-501.79 677,-492.05 677,-483.07"/>
<polygon fill="black" stroke="black" points="680.5,-483.03 677,-473.03 673.5,-483.03 680.5,-483.03"/>
</g>
<!-- write_prefixes -->
<g id="node4" class="node">
<title>write_prefixes</title>
<path fill="none" stroke="black" d="M737.5,-385C737.5,-385 426.5,-385 426.5,-385 420.5,-385 414.5,-379 414.5,-373 414.5,-373 414.5,-361 414.5,-361 414.5,-355 420.5,-349 426.5,-349 426.5,-349 737.5,-349 737.5,-349 743.5,-349 749.5,-355 749.5,-361 749.5,-361 749.5,-373 749.5,-373 749.5,-379 743.5,-385 737.5,-385"/>
<text text-anchor="middle" x="582" y="-363.3" font-family="Times,serif" font-size="14.00">依次写入 F0/F2/F3, 2E/36/26/64/65, 3E/66/67</text>
</g>
<!-- check_prefixes&#45;&gt;write_prefixes -->
<g id="edge2" class="edge">
<title>check_prefixes&#45;&gt;write_prefixes</title>
<path fill="none" stroke="black" d="M657.78,-436.6C643.65,-423.81 624.27,-406.27 608.65,-392.13"/>
<polygon fill="black" stroke="black" points="610.63,-389.2 600.87,-385.08 605.94,-394.39 610.63,-389.2"/>
<text text-anchor="middle" x="645.5" y="-407.8" font-family="Times,serif" font-size="14.00">是</text>
</g>
<!-- legacy_end -->
<g id="node5" class="node">
<title>legacy_end</title>
<path fill="none" stroke="black" d="M810,-385C810,-385 780,-385 780,-385 774,-385 768,-379 768,-373 768,-373 768,-361 768,-361 768,-355 774,-349 780,-349 780,-349 810,-349 810,-349 816,-349 822,-355 822,-361 822,-361 822,-373 822,-373 822,-379 816,-385 810,-385"/>
<text text-anchor="middle" x="795" y="-363.3" font-family="Times,serif" font-size="14.00">返回</text>
</g>
<!-- check_prefixes&#45;&gt;legacy_end -->
<g id="edge3" class="edge">
<title>check_prefixes&#45;&gt;legacy_end</title>
<path fill="none" stroke="black" d="M700.6,-436.8C718.6,-423.68 743.59,-405.47 763.34,-391.07"/>
<polygon fill="black" stroke="black" points="765.43,-393.89 771.45,-385.17 761.3,-388.23 765.43,-393.89"/>
<text text-anchor="middle" x="750.5" y="-407.8" font-family="Times,serif" font-size="14.00">否</text>
</g>
<!-- rex_start -->
<g id="node6" class="node">
<title>rex_start</title>
<path fill="none" stroke="black" d="M1069.5,-546C1069.5,-546 1004.5,-546 1004.5,-546 998.5,-546 992.5,-540 992.5,-534 992.5,-534 992.5,-522 992.5,-522 992.5,-516 998.5,-510 1004.5,-510 1004.5,-510 1069.5,-510 1069.5,-510 1075.5,-510 1081.5,-516 1081.5,-522 1081.5,-522 1081.5,-534 1081.5,-534 1081.5,-540 1075.5,-546 1069.5,-546"/>
<text text-anchor="middle" x="1037" y="-524.3" font-family="Times,serif" font-size="14.00">rex(fields)</text>
</g>
<!-- check_rex_fields -->
<g id="node7" class="node">
<title>check_rex_fields</title>
<path fill="none" stroke="black" d="M1099.5,-473C1099.5,-473 974.5,-473 974.5,-473 968.5,-473 962.5,-467 962.5,-461 962.5,-461 962.5,-449 962.5,-449 962.5,-443 968.5,-437 974.5,-437 974.5,-437 1099.5,-437 1099.5,-437 1105.5,-437 1111.5,-443 1111.5,-449 1111.5,-449 1111.5,-461 1111.5,-461 1111.5,-467 1105.5,-473 1099.5,-473"/>
<text text-anchor="middle" x="1037" y="-451.3" font-family="Times,serif" font-size="14.00">检查 fields 是否设置</text>
</g>
<!-- rex_start&#45;&gt;check_rex_fields -->
<g id="edge4" class="edge">
<title>rex_start&#45;&gt;check_rex_fields</title>
<path fill="none" stroke="black" d="M1037,-509.81C1037,-501.79 1037,-492.05 1037,-483.07"/>
<polygon fill="black" stroke="black" points="1040.5,-483.03 1037,-473.03 1033.5,-483.03 1040.5,-483.03"/>
</g>
<!-- build_rex_byte -->
<g id="node8" class="node">
<title>build_rex_byte</title>
<path fill="none" stroke="black" d="M1069.5,-385C1069.5,-385 858.5,-385 858.5,-385 852.5,-385 846.5,-379 846.5,-373 846.5,-373 846.5,-361 846.5,-361 846.5,-355 852.5,-349 858.5,-349 858.5,-349 1069.5,-349 1069.5,-349 1075.5,-349 1081.5,-355 1081.5,-361 1081.5,-361 1081.5,-373 1081.5,-373 1081.5,-379 1075.5,-385 1069.5,-385"/>
<text text-anchor="middle" x="964" y="-363.3" font-family="Times,serif" font-size="14.00">构造 REX 字节 (0x40 | W|R|X|B)</text>
</g>
<!-- check_rex_fields&#45;&gt;build_rex_byte -->
<g id="edge5" class="edge">
<title>check_rex_fields&#45;&gt;build_rex_byte</title>
<path fill="none" stroke="black" d="M1022.23,-436.6C1011.57,-424.04 997.03,-406.91 985.14,-392.91"/>
<polygon fill="black" stroke="black" points="987.64,-390.44 978.5,-385.08 982.3,-394.97 987.64,-390.44"/>
<text text-anchor="middle" x="1014.5" y="-407.8" font-family="Times,serif" font-size="14.00">是</text>
</g>
<!-- rex_end -->
<g id="node10" class="node">
<title>rex_end</title>
<path fill="none" stroke="black" d="M1142,-385C1142,-385 1112,-385 1112,-385 1106,-385 1100,-379 1100,-373 1100,-373 1100,-361 1100,-361 1100,-355 1106,-349 1112,-349 1112,-349 1142,-349 1142,-349 1148,-349 1154,-355 1154,-361 1154,-361 1154,-373 1154,-373 1154,-379 1148,-385 1142,-385"/>
<text text-anchor="middle" x="1127" y="-363.3" font-family="Times,serif" font-size="14.00">返回</text>
</g>
<!-- check_rex_fields&#45;&gt;rex_end -->
<g id="edge7" class="edge">
<title>check_rex_fields&#45;&gt;rex_end</title>
<path fill="none" stroke="black" d="M1055.21,-436.6C1068.6,-423.81 1086.95,-406.27 1101.75,-392.13"/>
<polygon fill="black" stroke="black" points="1104.31,-394.52 1109.12,-385.08 1099.47,-389.46 1104.31,-394.52"/>
<text text-anchor="middle" x="1094.5" y="-407.8" font-family="Times,serif" font-size="14.00">否</text>
</g>
<!-- write_rex -->
<g id="node9" class="node">
<title>write_rex</title>
<path fill="none" stroke="black" d="M994,-297C994,-297 934,-297 934,-297 928,-297 922,-291 922,-285 922,-285 922,-273 922,-273 922,-267 928,-261 934,-261 934,-261 994,-261 994,-261 1000,-261 1006,-267 1006,-273 1006,-273 1006,-285 1006,-285 1006,-291 1000,-297 994,-297"/>
<text text-anchor="middle" x="964" y="-275.3" font-family="Times,serif" font-size="14.00">write_rex</text>
</g>
<!-- build_rex_byte&#45;&gt;write_rex -->
<g id="edge6" class="edge">
<title>build_rex_byte&#45;&gt;write_rex</title>
<path fill="none" stroke="black" d="M964,-348.6C964,-336.75 964,-320.82 964,-307.29"/>
<polygon fill="black" stroke="black" points="967.5,-307.08 964,-297.08 960.5,-307.08 967.5,-307.08"/>
<text text-anchor="middle" x="993" y="-318.8" font-family="Times,serif" font-size="14.00">写入字节</text>
</g>
<!-- vex_start -->
<g id="node11" class="node">
<title>vex_start</title>
<path fill="none" stroke="black" d="M1305,-546C1305,-546 1239,-546 1239,-546 1233,-546 1227,-540 1227,-534 1227,-534 1227,-522 1227,-522 1227,-516 1233,-510 1239,-510 1239,-510 1305,-510 1305,-510 1311,-510 1317,-516 1317,-522 1317,-522 1317,-534 1317,-534 1317,-540 1311,-546 1305,-546"/>
<text text-anchor="middle" x="1272" y="-524.3" font-family="Times,serif" font-size="14.00">vex(fields)</text>
</g>
<!-- check_3byte -->
<g id="node12" class="node">
<title>check_3byte</title>
<path fill="none" stroke="black" d="M1344,-473C1344,-473 1200,-473 1200,-473 1194,-473 1188,-467 1188,-461 1188,-461 1188,-449 1188,-449 1188,-443 1194,-437 1200,-437 1200,-437 1344,-437 1344,-437 1350,-437 1356,-443 1356,-449 1356,-449 1356,-461 1356,-461 1356,-467 1350,-473 1344,-473"/>
<text text-anchor="middle" x="1272" y="-451.3" font-family="Times,serif" font-size="14.00">检查是否是 3 字节 VEX</text>
</g>
<!-- vex_start&#45;&gt;check_3byte -->
<g id="edge8" class="edge">
<title>vex_start&#45;&gt;check_3byte</title>
<path fill="none" stroke="black" d="M1272,-509.81C1272,-501.79 1272,-492.05 1272,-483.07"/>
<polygon fill="black" stroke="black" points="1275.5,-483.03 1272,-473.03 1268.5,-483.03 1275.5,-483.03"/>
</g>
<!-- write_3byte -->
<g id="node13" class="node">
<title>write_3byte</title>
<path fill="none" stroke="black" d="M1297.5,-386C1297.5,-386 1190.5,-386 1190.5,-386 1184.5,-386 1178.5,-380 1178.5,-374 1178.5,-374 1178.5,-360 1178.5,-360 1178.5,-354 1184.5,-348 1190.5,-348 1190.5,-348 1297.5,-348 1297.5,-348 1303.5,-348 1309.5,-354 1309.5,-360 1309.5,-360 1309.5,-374 1309.5,-374 1309.5,-380 1303.5,-386 1297.5,-386"/>
<text text-anchor="middle" x="1244" y="-370.8" font-family="Times,serif" font-size="14.00">写入 0xC4</text>
<text text-anchor="middle" x="1244" y="-355.8" font-family="Times,serif" font-size="14.00">构造后续两个字节</text>
</g>
<!-- check_3byte&#45;&gt;write_3byte -->
<g id="edge9" class="edge">
<title>check_3byte&#45;&gt;write_3byte</title>
<path fill="none" stroke="black" d="M1266.33,-436.6C1262.54,-424.94 1257.46,-409.34 1253.1,-395.96"/>
<polygon fill="black" stroke="black" points="1256.37,-394.69 1249.95,-386.27 1249.72,-396.86 1256.37,-394.69"/>
<text text-anchor="middle" x="1267.5" y="-407.8" font-family="Times,serif" font-size="14.00">是</text>
</g>
<!-- write_2byte -->
<g id="node14" class="node">
<title>write_2byte</title>
<path fill="none" stroke="black" d="M1446.5,-386C1446.5,-386 1339.5,-386 1339.5,-386 1333.5,-386 1327.5,-380 1327.5,-374 1327.5,-374 1327.5,-360 1327.5,-360 1327.5,-354 1333.5,-348 1339.5,-348 1339.5,-348 1446.5,-348 1446.5,-348 1452.5,-348 1458.5,-354 1458.5,-360 1458.5,-360 1458.5,-374 1458.5,-374 1458.5,-380 1452.5,-386 1446.5,-386"/>
<text text-anchor="middle" x="1393" y="-370.8" font-family="Times,serif" font-size="14.00">写入 0xC5</text>
<text text-anchor="middle" x="1393" y="-355.8" font-family="Times,serif" font-size="14.00">构造后续一个字节</text>
</g>
<!-- check_3byte&#45;&gt;write_2byte -->
<g id="edge10" class="edge">
<title>check_3byte&#45;&gt;write_2byte</title>
<path fill="none" stroke="black" d="M1296.2,-436.8C1314.3,-423.94 1339.29,-406.18 1359.34,-391.93"/>
<polygon fill="black" stroke="black" points="1361.47,-394.7 1367.6,-386.06 1357.42,-389 1361.47,-394.7"/>
<text text-anchor="middle" x="1346.5" y="-407.8" font-family="Times,serif" font-size="14.00">否</text>
</g>
<!-- vex_end -->
<g id="node15" class="node">
<title>vex_end</title>
<path fill="none" stroke="black" d="M1333,-297C1333,-297 1303,-297 1303,-297 1297,-297 1291,-291 1291,-285 1291,-285 1291,-273 1291,-273 1291,-267 1297,-261 1303,-261 1303,-261 1333,-261 1333,-261 1339,-261 1345,-267 1345,-273 1345,-273 1345,-285 1345,-285 1345,-291 1339,-297 1333,-297"/>
<text text-anchor="middle" x="1318" y="-275.3" font-family="Times,serif" font-size="14.00">返回</text>
</g>
<!-- write_3byte&#45;&gt;vex_end -->
<g id="edge11" class="edge">
<title>write_3byte&#45;&gt;vex_end</title>
<path fill="none" stroke="black" d="M1259.69,-347.76C1270.47,-335.23 1284.92,-318.45 1296.73,-304.72"/>
<polygon fill="black" stroke="black" points="1299.47,-306.91 1303.34,-297.04 1294.16,-302.34 1299.47,-306.91"/>
</g>
<!-- write_2byte&#45;&gt;vex_end -->
<g id="edge12" class="edge">
<title>write_2byte&#45;&gt;vex_end</title>
<path fill="none" stroke="black" d="M1377.09,-347.76C1366.17,-335.23 1351.53,-318.45 1339.56,-304.72"/>
<polygon fill="black" stroke="black" points="1342.07,-302.28 1332.86,-297.04 1336.8,-306.88 1342.07,-302.28"/>
</g>
<!-- opcode_1byte -->
<g id="node16" class="node">
<title>opcode_1byte</title>
<path fill="none" stroke="black" d="M2384.5,-546C2384.5,-546 2233.5,-546 2233.5,-546 2227.5,-546 2221.5,-540 2221.5,-534 2221.5,-534 2221.5,-522 2221.5,-522 2221.5,-516 2227.5,-510 2233.5,-510 2233.5,-510 2384.5,-510 2384.5,-510 2390.5,-510 2396.5,-516 2396.5,-522 2396.5,-522 2396.5,-534 2396.5,-534 2396.5,-540 2390.5,-546 2384.5,-546"/>
<text text-anchor="middle" x="2309" y="-524.3" font-family="Times,serif" font-size="14.00">opcode_1byte(opcode)</text>
</g>
<!-- opcode_2byte -->
<g id="node17" class="node">
<title>opcode_2byte</title>
<path fill="none" stroke="black" d="M2191.5,-546C2191.5,-546 1990.5,-546 1990.5,-546 1984.5,-546 1978.5,-540 1978.5,-534 1978.5,-534 1978.5,-522 1978.5,-522 1978.5,-516 1984.5,-510 1990.5,-510 1990.5,-510 2191.5,-510 2191.5,-510 2197.5,-510 2203.5,-516 2203.5,-522 2203.5,-522 2203.5,-534 2203.5,-534 2203.5,-540 2197.5,-546 2191.5,-546"/>
<text text-anchor="middle" x="2091" y="-524.3" font-family="Times,serif" font-size="14.00">opcode_2byte(prefix, opcode)</text>
</g>
<!-- opcode_3byte -->
<g id="node18" class="node">
<title>opcode_3byte</title>
<path fill="none" stroke="black" d="M1948.5,-546C1948.5,-546 1743.5,-546 1743.5,-546 1737.5,-546 1731.5,-540 1731.5,-534 1731.5,-534 1731.5,-522 1731.5,-522 1731.5,-516 1737.5,-510 1743.5,-510 1743.5,-510 1948.5,-510 1948.5,-510 1954.5,-510 1960.5,-516 1960.5,-522 1960.5,-522 1960.5,-534 1960.5,-534 1960.5,-540 1954.5,-546 1948.5,-546"/>
<text text-anchor="middle" x="1846" y="-524.3" font-family="Times,serif" font-size="14.00">opcode_3byte(p1, p2, opcode)</text>
</g>
<!-- opcode_withreg -->
<g id="node19" class="node">
<title>opcode_withreg</title>
<path fill="none" stroke="black" d="M1701.5,-546C1701.5,-546 1494.5,-546 1494.5,-546 1488.5,-546 1482.5,-540 1482.5,-534 1482.5,-534 1482.5,-522 1482.5,-522 1482.5,-516 1488.5,-510 1494.5,-510 1494.5,-510 1701.5,-510 1701.5,-510 1707.5,-510 1713.5,-516 1713.5,-522 1713.5,-522 1713.5,-534 1713.5,-534 1713.5,-540 1707.5,-546 1701.5,-546"/>
<text text-anchor="middle" x="1598" y="-524.3" font-family="Times,serif" font-size="14.00">opcode_withReg(opcode | reg)</text>
</g>
<!-- modrm_general -->
<g id="node20" class="node">
<title>modrm_general</title>
<path fill="none" stroke="black" d="M3458.5,-546C3458.5,-546 3307.5,-546 3307.5,-546 3301.5,-546 3295.5,-540 3295.5,-534 3295.5,-534 3295.5,-522 3295.5,-522 3295.5,-516 3301.5,-510 3307.5,-510 3307.5,-510 3458.5,-510 3458.5,-510 3464.5,-510 3470.5,-516 3470.5,-522 3470.5,-522 3470.5,-534 3470.5,-534 3470.5,-540 3464.5,-546 3458.5,-546"/>
<text text-anchor="middle" x="3383" y="-524.3" font-family="Times,serif" font-size="14.00">modRm(mod, reg, rm)</text>
</g>
<!-- modrm_direct -->
<g id="node21" class="node">
<title>modrm_direct</title>
<path fill="none" stroke="black" d="M3265,-546C3265,-546 3105,-546 3105,-546 3099,-546 3093,-540 3093,-534 3093,-534 3093,-522 3093,-522 3093,-516 3099,-510 3105,-510 3105,-510 3265,-510 3265,-510 3271,-510 3277,-516 3277,-522 3277,-522 3277,-534 3277,-534 3277,-540 3271,-546 3265,-546"/>
<text text-anchor="middle" x="3185" y="-524.3" font-family="Times,serif" font-size="14.00">modRm_direct(reg, rm)</text>
</g>
<!-- modrm_indirect -->
<g id="node22" class="node">
<title>modrm_indirect</title>
<path fill="none" stroke="black" d="M3062.5,-546C3062.5,-546 2851.5,-546 2851.5,-546 2845.5,-546 2839.5,-540 2839.5,-534 2839.5,-534 2839.5,-522 2839.5,-522 2839.5,-516 2845.5,-510 2851.5,-510 2851.5,-510 3062.5,-510 3062.5,-510 3068.5,-510 3074.5,-516 3074.5,-522 3074.5,-522 3074.5,-534 3074.5,-534 3074.5,-540 3068.5,-546 3062.5,-546"/>
<text text-anchor="middle" x="2957" y="-524.3" font-family="Times,serif" font-size="14.00">modRm_indirectDisp0/8/32(...)</text>
</g>
<!-- modrm_sib -->
<g id="node23" class="node">
<title>modrm_sib</title>
<path fill="none" stroke="black" d="M2809.5,-546C2809.5,-546 2628.5,-546 2628.5,-546 2622.5,-546 2616.5,-540 2616.5,-534 2616.5,-534 2616.5,-522 2616.5,-522 2616.5,-516 2622.5,-510 2628.5,-510 2628.5,-510 2809.5,-510 2809.5,-510 2815.5,-510 2821.5,-516 2821.5,-522 2821.5,-522 2821.5,-534 2821.5,-534 2821.5,-540 2815.5,-546 2809.5,-546"/>
<text text-anchor="middle" x="2719" y="-524.3" font-family="Times,serif" font-size="14.00">modRm_SIBDisp0/8/32(...)</text>
</g>
<!-- modrm_rip -->
<g id="node24" class="node">
<title>modrm_rip</title>
<path fill="none" stroke="black" d="M2587,-546C2587,-546 2433,-546 2433,-546 2427,-546 2421,-540 2421,-534 2421,-534 2421,-522 2421,-522 2421,-516 2427,-510 2433,-510 2433,-510 2587,-510 2587,-510 2593,-510 2599,-516 2599,-522 2599,-522 2599,-534 2599,-534 2599,-540 2593,-546 2587,-546"/>
<text text-anchor="middle" x="2510" y="-524.3" font-family="Times,serif" font-size="14.00">modRm_RIPDisp32(...)</text>
</g>
<!-- sib_general -->
<g id="node25" class="node">
<title>sib_general</title>
<path fill="none" stroke="black" d="M4110,-546C4110,-546 3960,-546 3960,-546 3954,-546 3948,-540 3948,-534 3948,-534 3948,-522 3948,-522 3948,-516 3954,-510 3960,-510 3960,-510 4110,-510 4110,-510 4116,-510 4122,-516 4122,-522 4122,-522 4122,-534 4122,-534 4122,-540 4116,-546 4110,-546"/>
<text text-anchor="middle" x="4035" y="-524.3" font-family="Times,serif" font-size="14.00">sib(scale, index, base)</text>
</g>
<!-- sib_scale_index -->
<g id="node26" class="node">
<title>sib_scale_index</title>
<path fill="none" stroke="black" d="M3918,-546C3918,-546 3748,-546 3748,-546 3742,-546 3736,-540 3736,-534 3736,-534 3736,-522 3736,-522 3736,-516 3742,-510 3748,-510 3748,-510 3918,-510 3918,-510 3924,-510 3930,-516 3930,-522 3930,-522 3930,-534 3930,-534 3930,-540 3924,-546 3918,-546"/>
<text text-anchor="middle" x="3833" y="-524.3" font-family="Times,serif" font-size="14.00">sib_scaleIndexDisp32(...)</text>
</g>
<!-- sib_base_only -->
<g id="node27" class="node">
<title>sib_base_only</title>
<path fill="none" stroke="black" d="M3705.5,-546C3705.5,-546 3628.5,-546 3628.5,-546 3622.5,-546 3616.5,-540 3616.5,-534 3616.5,-534 3616.5,-522 3616.5,-522 3616.5,-516 3622.5,-510 3628.5,-510 3628.5,-510 3705.5,-510 3705.5,-510 3711.5,-510 3717.5,-516 3717.5,-522 3717.5,-522 3717.5,-534 3717.5,-534 3717.5,-540 3711.5,-546 3705.5,-546"/>
<text text-anchor="middle" x="3667" y="-524.3" font-family="Times,serif" font-size="14.00">sib_base(...)</text>
</g>
<!-- sib_disp32 -->
<g id="node28" class="node">
<title>sib_disp32</title>
<path fill="none" stroke="black" d="M3586.5,-546C3586.5,-546 3507.5,-546 3507.5,-546 3501.5,-546 3495.5,-540 3495.5,-534 3495.5,-534 3495.5,-522 3495.5,-522 3495.5,-516 3501.5,-510 3507.5,-510 3507.5,-510 3586.5,-510 3586.5,-510 3592.5,-510 3598.5,-516 3598.5,-522 3598.5,-522 3598.5,-534 3598.5,-534 3598.5,-540 3592.5,-546 3586.5,-546"/>
<text text-anchor="middle" x="3547" y="-524.3" font-family="Times,serif" font-size="14.00">sib_disp32()</text>
</g>
<!-- disp8 -->
<g id="node29" class="node">
<title>disp8</title>
<path fill="none" stroke="black" d="M4556,-546C4556,-546 4500,-546 4500,-546 4494,-546 4488,-540 4488,-534 4488,-534 4488,-522 4488,-522 4488,-516 4494,-510 4500,-510 4500,-510 4556,-510 4556,-510 4562,-510 4568,-516 4568,-522 4568,-522 4568,-534 4568,-534 4568,-540 4562,-546 4556,-546"/>
<text text-anchor="middle" x="4528" y="-524.3" font-family="Times,serif" font-size="14.00">disp8(i8)</text>
</g>
<!-- disp32 -->
<g id="node30" class="node">
<title>disp32</title>
<path fill="none" stroke="black" d="M4458,-546C4458,-546 4384,-546 4384,-546 4378,-546 4372,-540 4372,-534 4372,-534 4372,-522 4372,-522 4372,-516 4378,-510 4384,-510 4384,-510 4458,-510 4458,-510 4464,-510 4470,-516 4470,-522 4470,-522 4470,-534 4470,-534 4470,-540 4464,-546 4458,-546"/>
<text text-anchor="middle" x="4421" y="-524.3" font-family="Times,serif" font-size="14.00">disp32(i32)</text>
</g>
<!-- imm8 -->
<g id="node31" class="node">
<title>imm8</title>
<path fill="none" stroke="black" d="M4342,-546C4342,-546 4280,-546 4280,-546 4274,-546 4268,-540 4268,-534 4268,-534 4268,-522 4268,-522 4268,-516 4274,-510 4280,-510 4280,-510 4342,-510 4342,-510 4348,-510 4354,-516 4354,-522 4354,-522 4354,-534 4354,-534 4354,-540 4348,-546 4342,-546"/>
<text text-anchor="middle" x="4311" y="-524.3" font-family="Times,serif" font-size="14.00">imm8(u8)</text>
</g>
<!-- imm64 -->
<g id="node32" class="node">
<title>imm64</title>
<path fill="none" stroke="black" d="M4238,-546C4238,-546 4158,-546 4158,-546 4152,-546 4146,-540 4146,-534 4146,-534 4146,-522 4146,-522 4146,-516 4152,-510 4158,-510 4158,-510 4238,-510 4238,-510 4244,-510 4250,-516 4250,-522 4250,-522 4250,-534 4250,-534 4250,-540 4244,-546 4238,-546"/>
<text text-anchor="middle" x="4198" y="-524.3" font-family="Times,serif" font-size="14.00">imm64(u64)</text>
</g>
<!-- legacy_prefixes&#45;&gt;rex -->
<g id="edge20" class="edge">
<title>legacy_prefixes&#45;&gt;rex</title>
<path fill="none" stroke="black" d="M66.27,-436.57C68.98,-426.1 73.78,-413.09 82,-404 91.56,-393.43 104.93,-385.56 117.56,-379.93"/>
<polygon fill="black" stroke="black" points="119.08,-383.09 127,-376.05 116.42,-376.62 119.08,-383.09"/>
<text text-anchor="middle" x="111" y="-407.8" font-family="Times,serif" font-size="14.00">可选步骤</text>
</g>
<!-- rex&#45;&gt;opcode -->
<g id="edge21" class="edge">
<title>rex&#45;&gt;opcode</title>
<path fill="none" stroke="black" d="M161.89,-348.6C167.37,-336.51 174.78,-320.18 180.99,-306.49"/>
<polygon fill="black" stroke="black" points="184.31,-307.64 185.25,-297.08 177.93,-304.75 184.31,-307.64"/>
<text text-anchor="middle" x="213" y="-318.8" font-family="Times,serif" font-size="14.00">设置操作码</text>
</g>
<!-- opcode&#45;&gt;modrm -->
<g id="edge22" class="edge">
<title>opcode&#45;&gt;modrm</title>
<path fill="none" stroke="black" d="M193.2,-260.8C193.34,-249.16 193.52,-233.55 193.68,-220.24"/>
<polygon fill="black" stroke="black" points="197.18,-220.22 193.8,-210.18 190.18,-220.13 197.18,-220.22"/>
<text text-anchor="middle" x="241" y="-231.8" font-family="Times,serif" font-size="14.00">添加 ModR/M</text>
</g>
<!-- modrm&#45;&gt;sib -->
<g id="edge23" class="edge">
<title>modrm&#45;&gt;sib</title>
<path fill="none" stroke="black" d="M210.12,-173.65C220.49,-163.21 234.66,-150.2 249,-141 251.19,-139.6 273.68,-130.02 294.56,-121.24"/>
<polygon fill="black" stroke="black" points="296.09,-124.39 303.96,-117.29 293.38,-117.93 296.09,-124.39"/>
<text text-anchor="middle" x="287.5" y="-144.8" font-family="Times,serif" font-size="14.00">需要 SIB 时</text>
</g>
<!-- modrm&#45;&gt;data -->
<g id="edge24" class="edge">
<title>modrm&#45;&gt;data</title>
<path fill="none" stroke="black" d="M190.32,-173.88C186.6,-152.48 183.05,-115.23 196,-87 204.6,-68.26 221.09,-52.5 236.53,-40.89"/>
<polygon fill="black" stroke="black" points="238.84,-43.54 244.94,-34.87 234.77,-37.84 238.84,-43.54"/>
<text text-anchor="middle" x="245.5" y="-101.3" font-family="Times,serif" font-size="14.00">添加 disp/imm</text>
</g>
<!-- sib&#45;&gt;data -->
<g id="edge25" class="edge">
<title>sib&#45;&gt;data</title>
<path fill="none" stroke="black" d="M303.76,-94.5C292.16,-88.96 279.77,-80.71 273,-69 269.12,-62.28 267.82,-54.16 267.79,-46.43"/>
<polygon fill="black" stroke="black" points="271.29,-46.5 268.38,-36.31 264.3,-46.09 271.29,-46.5"/>
<text text-anchor="middle" x="322.5" y="-57.8" font-family="Times,serif" font-size="14.00">添加 disp/imm</text>
</g>
</g>
</svg>
