<?xml version="1.0" encoding="UTF-8" standalone="no"?>
<!DOCTYPE svg PUBLIC "-//W3C//DTD SVG 1.1//EN"
 "http://www.w3.org/Graphics/SVG/1.1/DTD/svg11.dtd">
<!-- Generated by graphviz version 2.43.0 (0)
 -->
<!-- Title: flowchart Pages: 1 -->
<svg width="1333pt" height="706pt"
 viewBox="0.00 0.00 1332.69 705.85" xmlns="http://www.w3.org/2000/svg" xmlns:xlink="http://www.w3.org/1999/xlink">
<g id="graph0" class="graph" transform="scale(1 1) rotate(0) translate(4 701.85)">
<title>flowchart</title>
<polygon fill="white" stroke="transparent" points="-4,4 -4,-701.85 1328.69,-701.85 1328.69,4 -4,4"/>
<g id="clust1" class="cluster">
<title>cluster_main</title>
<polygon fill="none" stroke="black" points="8,-71.43 8,-634.85 1199,-634.85 1199,-71.43 8,-71.43"/>
<text text-anchor="middle" x="603.5" y="-619.65" font-family="Times,serif" font-size="14.00">Main Logic Flow</text>
</g>
<!-- start -->
<g id="node1" class="node">
<title>start</title>
<ellipse fill="none" stroke="black" cx="865" cy="-679.85" rx="66.54" ry="18"/>
<text text-anchor="middle" x="865" y="-677.35" font-family="Courier,monospace" font-size="10.00">Start airSplat()</text>
</g>
<!-- check_scalar_type -->
<g id="node4" class="node">
<title>check_scalar_type</title>
<polygon fill="none" stroke="black" points="865,-603.85 710.98,-585.85 865,-567.85 1019.02,-585.85 865,-603.85"/>
<text text-anchor="middle" x="865" y="-583.35" font-family="Courier,monospace" font-size="10.00">Check scalar_ty.zigTypeTag()</text>
</g>
<!-- start&#45;&gt;check_scalar_type -->
<g id="edge1" class="edge">
<title>start&#45;&gt;check_scalar_type</title>
<path fill="none" stroke="black" d="M865,-661.55C865,-648.31 865,-629.8 865,-614.52"/>
<polygon fill="black" stroke="black" points="868.5,-614.08 865,-604.08 861.5,-614.08 868.5,-614.08"/>
</g>
<!-- end -->
<g id="node2" class="node">
<title>end</title>
<ellipse fill="none" stroke="black" cx="832" cy="-21.21" rx="67.35" ry="21.43"/>
<text text-anchor="middle" x="832" y="-24.21" font-family="Courier,monospace" font-size="10.00">Return result</text>
<text text-anchor="middle" x="832" y="-13.21" font-family="Courier,monospace" font-size="10.00">(finishAir)</text>
</g>
<!-- fail -->
<g id="node3" class="node">
<title>fail</title>
<ellipse fill="none" stroke="black" cx="1266" cy="-426.64" rx="58.88" ry="21.43"/>
<text text-anchor="middle" x="1266" y="-429.64" font-family="Courier,monospace" font-size="10.00">Return fail</text>
<text text-anchor="middle" x="1266" y="-418.64" font-family="Courier,monospace" font-size="10.00">(TODO)</text>
</g>
<!-- fail&#45;&gt;end -->
<!-- handle_bool -->
<g id="node5" class="node">
<title>handle_bool</title>
<polygon fill="none" stroke="black" points="996.5,-520.85 883.5,-520.85 883.5,-484.85 996.5,-484.85 996.5,-520.85"/>
<text text-anchor="middle" x="940" y="-500.35" font-family="Courier,monospace" font-size="10.00">Handle bool type</text>
</g>
<!-- check_scalar_type&#45;&gt;handle_bool -->
<g id="edge2" class="edge">
<title>check_scalar_type&#45;&gt;handle_bool</title>
<path fill="none" stroke="black" d="M879.46,-569.24C890.14,-557.71 904.88,-541.79 917.14,-528.54"/>
<polygon fill="black" stroke="black" points="919.8,-530.82 924.03,-521.11 914.66,-526.06 919.8,-530.82"/>
<text text-anchor="middle" x="921.5" y="-541.85" font-family="Courier,monospace" font-size="10.00">.bool</text>
</g>
<!-- handle_int -->
<g id="node6" class="node">
<title>handle_int</title>
<polygon fill="none" stroke="black" points="844.5,-520.85 737.5,-520.85 737.5,-484.85 844.5,-484.85 844.5,-520.85"/>
<text text-anchor="middle" x="791" y="-500.35" font-family="Courier,monospace" font-size="10.00">Handle int type</text>
</g>
<!-- check_scalar_type&#45;&gt;handle_int -->
<g id="edge3" class="edge">
<title>check_scalar_type&#45;&gt;handle_int</title>
<path fill="none" stroke="black" d="M850.73,-569.24C840.2,-557.71 825.65,-541.79 813.55,-528.54"/>
<polygon fill="black" stroke="black" points="816.09,-526.13 806.76,-521.11 810.92,-530.85 816.09,-526.13"/>
<text text-anchor="middle" x="844.5" y="-541.85" font-family="Courier,monospace" font-size="10.00">.int</text>
</g>
<!-- handle_float -->
<g id="node7" class="node">
<title>handle_float</title>
<polygon fill="none" stroke="black" points="582.5,-520.85 463.5,-520.85 463.5,-484.85 582.5,-484.85 582.5,-520.85"/>
<text text-anchor="middle" x="523" y="-500.35" font-family="Courier,monospace" font-size="10.00">Handle float type</text>
</g>
<!-- check_scalar_type&#45;&gt;handle_float -->
<g id="edge4" class="edge">
<title>check_scalar_type&#45;&gt;handle_float</title>
<path fill="none" stroke="black" d="M816.73,-573.42C758.23,-559.57 659.24,-536.12 592.53,-520.32"/>
<polygon fill="black" stroke="black" points="593.06,-516.85 582.52,-517.95 591.44,-523.66 593.06,-516.85"/>
<text text-anchor="middle" x="732.5" y="-541.85" font-family="Courier,monospace" font-size="10.00">.float</text>
</g>
<!-- default_case -->
<g id="node8" class="node">
<title>default_case</title>
<polygon fill="none" stroke="black" points="1111,-520.85 1036.82,-502.85 1111,-484.85 1185.18,-502.85 1111,-520.85"/>
<text text-anchor="middle" x="1111" y="-500.35" font-family="Courier,monospace" font-size="10.00">Default case</text>
</g>
<!-- check_scalar_type&#45;&gt;default_case -->
<g id="edge5" class="edge">
<title>check_scalar_type&#45;&gt;default_case</title>
<path fill="none" stroke="black" d="M903.17,-572.29C948.93,-557.22 1025.25,-532.09 1071.57,-516.84"/>
<polygon fill="black" stroke="black" points="1072.85,-520.1 1081.26,-513.65 1070.66,-513.45 1072.85,-520.1"/>
<text text-anchor="middle" x="1014.5" y="-541.85" font-family="Courier,monospace" font-size="10.00">else</text>
</g>
<!-- gen_cmovcc -->
<g id="node9" class="node">
<title>gen_cmovcc</title>
<polygon fill="none" stroke="black" points="1056.5,-444.64 871.5,-444.64 871.5,-408.64 1056.5,-408.64 1056.5,-444.64"/>
<text text-anchor="middle" x="964" y="-424.14" font-family="Courier,monospace" font-size="10.00">Generate CMOVcc instructions</text>
</g>
<!-- handle_bool&#45;&gt;gen_cmovcc -->
<g id="edge6" class="edge">
<title>handle_bool&#45;&gt;gen_cmovcc</title>
<path fill="none" stroke="black" d="M945.57,-484.64C948.47,-475.65 952.1,-464.44 955.36,-454.35"/>
<polygon fill="black" stroke="black" points="958.72,-455.35 958.46,-444.76 952.06,-453.2 958.72,-455.35"/>
</g>
<!-- check_avx2 -->
<g id="node11" class="node">
<title>check_avx2</title>
<polygon fill="none" stroke="black" points="774,-444.64 714.79,-426.64 774,-408.64 833.21,-426.64 774,-444.64"/>
<text text-anchor="middle" x="774" y="-424.14" font-family="Courier,monospace" font-size="10.00">Has AVX2?</text>
</g>
<!-- handle_int&#45;&gt;check_avx2 -->
<g id="edge8" class="edge">
<title>handle_int&#45;&gt;check_avx2</title>
<path fill="none" stroke="black" d="M787.06,-484.64C784.94,-475.39 782.28,-463.8 779.92,-453.49"/>
<polygon fill="black" stroke="black" points="783.33,-452.71 777.69,-443.74 776.51,-454.27 783.33,-452.71"/>
</g>
<!-- check_float_bits -->
<g id="node15" class="node">
<title>check_float_bits</title>
<polygon fill="none" stroke="black" points="368,-444.64 268.87,-426.64 368,-408.64 467.13,-426.64 368,-444.64"/>
<text text-anchor="middle" x="368" y="-424.14" font-family="Courier,monospace" font-size="10.00">Switch float bits</text>
</g>
<!-- handle_float&#45;&gt;check_float_bits -->
<g id="edge13" class="edge">
<title>handle_float&#45;&gt;check_float_bits</title>
<path fill="none" stroke="black" d="M487.44,-484.83C462.24,-472.76 428.57,-456.64 403.4,-444.59"/>
<polygon fill="black" stroke="black" points="404.74,-441.35 394.21,-440.19 401.72,-447.66 404.74,-441.35"/>
</g>
<!-- default_case&#45;&gt;fail -->
<g id="edge32" class="edge">
<title>default_case&#45;&gt;fail</title>
<path fill="none" stroke="black" d="M1134.88,-490.42C1158.15,-479.28 1194.07,-462.08 1222.43,-448.5"/>
<polygon fill="black" stroke="black" points="1224.23,-451.52 1231.73,-444.05 1221.2,-445.21 1224.23,-451.52"/>
</g>
<!-- break_result_1 -->
<g id="node10" class="node">
<title>break_result_1</title>
<polygon fill="none" stroke="black" points="1191.5,-358.43 1006.5,-358.43 1006.5,-322.43 1191.5,-322.43 1191.5,-358.43"/>
<text text-anchor="middle" x="1099" y="-337.93" font-family="Courier,monospace" font-size="10.00">Break to result: register[0]</text>
</g>
<!-- gen_cmovcc&#45;&gt;break_result_1 -->
<g id="edge7" class="edge">
<title>gen_cmovcc&#45;&gt;break_result_1</title>
<path fill="none" stroke="black" d="M991.32,-408.6C1012,-395.7 1040.58,-377.87 1063.11,-363.82"/>
<polygon fill="black" stroke="black" points="1065.09,-366.71 1071.72,-358.44 1061.38,-360.77 1065.09,-366.71"/>
</g>
<!-- break_result_1&#45;&gt;end -->
<g id="edge27" class="edge">
<title>break_result_1&#45;&gt;end</title>
<path fill="none" stroke="black" d="M1077.73,-322.39C1061.18,-307.08 1041,-282.97 1041,-256.43 1041,-256.43 1041,-256.43 1041,-96.43 1041,-66.11 961.91,-45.01 901.03,-33.26"/>
<polygon fill="black" stroke="black" points="901.53,-29.79 891.05,-31.38 900.23,-36.67 901.53,-29.79"/>
</g>
<!-- avx2_case -->
<g id="node12" class="node">
<title>avx2_case</title>
<polygon fill="none" stroke="black" points="642.5,-358.43 451.5,-358.43 451.5,-322.43 642.5,-322.43 642.5,-358.43"/>
<text text-anchor="middle" x="547" y="-337.93" font-family="Courier,monospace" font-size="10.00">Use VPBROADCAST* instructions</text>
</g>
<!-- check_avx2&#45;&gt;avx2_case -->
<g id="edge9" class="edge">
<title>check_avx2&#45;&gt;avx2_case</title>
<path fill="none" stroke="black" d="M748.4,-416.14C713.22,-403.09 649.01,-379.27 602.53,-362.03"/>
<polygon fill="black" stroke="black" points="603.49,-358.65 592.89,-358.45 601.05,-365.21 603.49,-358.65"/>
<text text-anchor="middle" x="676.5" y="-379.43" font-family="Courier,monospace" font-size="10.00">Yes</text>
</g>
<!-- no_avx2_case -->
<g id="node13" class="node">
<title>no_avx2_case</title>
<polygon fill="none" stroke="black" points="887.5,-358.43 660.5,-358.43 660.5,-322.43 887.5,-322.43 887.5,-358.43"/>
<text text-anchor="middle" x="774" y="-337.93" font-family="Courier,monospace" font-size="10.00">Use SSE shuffle/unpack instructions</text>
</g>
<!-- check_avx2&#45;&gt;no_avx2_case -->
<g id="edge10" class="edge">
<title>check_avx2&#45;&gt;no_avx2_case</title>
<path fill="none" stroke="black" d="M774,-408.6C774,-397.18 774,-381.9 774,-368.8"/>
<polygon fill="black" stroke="black" points="777.5,-368.44 774,-358.44 770.5,-368.44 777.5,-368.44"/>
<text text-anchor="middle" x="780.5" y="-379.43" font-family="Courier,monospace" font-size="10.00">No</text>
</g>
<!-- break_result_2 -->
<g id="node14" class="node">
<title>break_result_2</title>
<polygon fill="none" stroke="black" points="915.5,-273.43 748.5,-273.43 748.5,-237.43 915.5,-237.43 915.5,-273.43"/>
<text text-anchor="middle" x="832" y="-252.93" font-family="Courier,monospace" font-size="10.00">Break to result: register</text>
</g>
<!-- avx2_case&#45;&gt;break_result_2 -->
<g id="edge11" class="edge">
<title>avx2_case&#45;&gt;break_result_2</title>
<path fill="none" stroke="black" d="M609.39,-322.36C647,-311.95 695.84,-298.22 739,-285.43 748.49,-282.61 758.49,-279.57 768.29,-276.55"/>
<polygon fill="black" stroke="black" points="769.47,-279.85 777.98,-273.55 767.4,-273.17 769.47,-279.85"/>
</g>
<!-- no_avx2_case&#45;&gt;break_result_2 -->
<g id="edge12" class="edge">
<title>no_avx2_case&#45;&gt;break_result_2</title>
<path fill="none" stroke="black" d="M786.02,-322.23C794.11,-310.65 804.91,-295.19 814.02,-282.16"/>
<polygon fill="black" stroke="black" points="817.14,-283.8 820,-273.6 811.4,-279.79 817.14,-283.8"/>
</g>
<!-- break_result_2&#45;&gt;end -->
<g id="edge28" class="edge">
<title>break_result_2&#45;&gt;end</title>
<path fill="none" stroke="black" d="M832,-237.35C832,-198.32 832,-102.13 832,-52.67"/>
<polygon fill="black" stroke="black" points="835.5,-52.58 832,-42.58 828.5,-52.58 835.5,-52.58"/>
</g>
<!-- handle_32bit_float -->
<g id="node16" class="node">
<title>handle_32bit_float</title>
<polygon fill="none" stroke="black" points="141.5,-358.43 16.5,-358.43 16.5,-322.43 141.5,-322.43 141.5,-358.43"/>
<text text-anchor="middle" x="79" y="-337.93" font-family="Courier,monospace" font-size="10.00">handle_32bit_float</text>
</g>
<!-- check_float_bits&#45;&gt;handle_32bit_float -->
<g id="edge14" class="edge">
<title>check_float_bits&#45;&gt;handle_32bit_float</title>
<path fill="none" stroke="black" d="M331.98,-415.14C285.92,-401.72 205.22,-378.2 147.33,-361.34"/>
<polygon fill="black" stroke="black" points="148.11,-357.92 137.53,-358.48 146.15,-364.64 148.11,-357.92"/>
<text text-anchor="middle" x="238.5" y="-379.43" font-family="Courier,monospace" font-size="10.00">32</text>
</g>
<!-- handle_64bit_float -->
<g id="node17" class="node">
<title>handle_64bit_float</title>
<polygon fill="none" stroke="black" points="284.5,-358.43 159.5,-358.43 159.5,-322.43 284.5,-322.43 284.5,-358.43"/>
<text text-anchor="middle" x="222" y="-337.93" font-family="Courier,monospace" font-size="10.00">handle_64bit_float</text>
</g>
<!-- check_float_bits&#45;&gt;handle_64bit_float -->
<g id="edge15" class="edge">
<title>check_float_bits&#45;&gt;handle_64bit_float</title>
<path fill="none" stroke="black" d="M345.51,-412.67C322.87,-399.61 287.52,-379.22 260.43,-363.59"/>
<polygon fill="black" stroke="black" points="262,-360.46 251.59,-358.5 258.51,-366.52 262,-360.46"/>
<text text-anchor="middle" x="305.5" y="-379.43" font-family="Courier,monospace" font-size="10.00">64</text>
</g>
<!-- handle_128bit_float -->
<g id="node18" class="node">
<title>handle_128bit_float</title>
<polygon fill="none" stroke="black" points="433.5,-358.43 302.5,-358.43 302.5,-322.43 433.5,-322.43 433.5,-358.43"/>
<text text-anchor="middle" x="368" y="-337.93" font-family="Courier,monospace" font-size="10.00">handle_128bit_float</text>
</g>
<!-- check_float_bits&#45;&gt;handle_128bit_float -->
<g id="edge16" class="edge">
<title>check_float_bits&#45;&gt;handle_128bit_float</title>
<path fill="none" stroke="black" d="M368,-408.6C368,-397.18 368,-381.9 368,-368.8"/>
<polygon fill="black" stroke="black" points="371.5,-368.44 368,-358.44 364.5,-368.44 371.5,-368.44"/>
<text text-anchor="middle" x="377.5" y="-379.43" font-family="Courier,monospace" font-size="10.00">128</text>
</g>
<!-- others -->
<g id="node19" class="node">
<title>others</title>
<polygon fill="none" stroke="black" points="988.5,-358.43 905.5,-358.43 905.5,-322.43 988.5,-322.43 988.5,-358.43"/>
<text text-anchor="middle" x="947" y="-337.93" font-family="Courier,monospace" font-size="10.00">Unreachable</text>
</g>
<!-- check_float_bits&#45;&gt;others -->
<g id="edge17" class="edge">
<title>check_float_bits&#45;&gt;others</title>
<path fill="none" stroke="black" d="M445.74,-422.74C531.01,-418.61 671.63,-408.97 791,-387.43 826.45,-381.03 865.31,-369.58 895.38,-359.71"/>
<polygon fill="black" stroke="black" points="896.84,-362.91 905.22,-356.43 894.63,-356.27 896.84,-362.91"/>
<text text-anchor="middle" x="853.5" y="-379.43" font-family="Courier,monospace" font-size="10.00">16/80</text>
</g>
<!-- vector_len_check_32 -->
<g id="node20" class="node">
<title>vector_len_check_32</title>
<polygon fill="none" stroke="black" points="129,-285.43 16,-255.43 129,-225.43 242,-255.43 129,-285.43"/>
<text text-anchor="middle" x="129" y="-258.43" font-family="Courier,monospace" font-size="10.00">Check vector_len</text>
<text text-anchor="middle" x="129" y="-247.43" font-family="Courier,monospace" font-size="10.00">(1/2&#45;4/5&#45;8)</text>
</g>
<!-- handle_32bit_float&#45;&gt;vector_len_check_32 -->
<g id="edge18" class="edge">
<title>handle_32bit_float&#45;&gt;vector_len_check_32</title>
<path fill="none" stroke="black" d="M89.36,-322.23C94.96,-312.94 102.07,-301.14 108.71,-290.1"/>
<polygon fill="black" stroke="black" points="111.75,-291.85 113.91,-281.48 105.75,-288.24 111.75,-291.85"/>
</g>
<!-- vector_len_check_64 -->
<g id="node23" class="node">
<title>vector_len_check_64</title>
<polygon fill="none" stroke="black" points="373,-285.43 260,-255.43 373,-225.43 486,-255.43 373,-285.43"/>
<text text-anchor="middle" x="373" y="-258.43" font-family="Courier,monospace" font-size="10.00">Check vector_len</text>
<text text-anchor="middle" x="373" y="-247.43" font-family="Courier,monospace" font-size="10.00">(1/2/3&#45;4)</text>
</g>
<!-- handle_64bit_float&#45;&gt;vector_len_check_64 -->
<g id="edge21" class="edge">
<title>handle_64bit_float&#45;&gt;vector_len_check_64</title>
<path fill="none" stroke="black" d="M253.29,-322.23C274.96,-310.31 304.15,-294.27 328.28,-281.01"/>
<polygon fill="black" stroke="black" points="330.17,-283.96 337.25,-276.08 326.8,-277.83 330.17,-283.96"/>
</g>
<!-- vector_len_check_128 -->
<g id="node26" class="node">
<title>vector_len_check_128</title>
<polygon fill="none" stroke="black" points="617,-285.43 504,-255.43 617,-225.43 730,-255.43 617,-285.43"/>
<text text-anchor="middle" x="617" y="-258.43" font-family="Courier,monospace" font-size="10.00">Check vector_len</text>
<text text-anchor="middle" x="617" y="-247.43" font-family="Courier,monospace" font-size="10.00">(1/2)</text>
</g>
<!-- handle_128bit_float&#45;&gt;vector_len_check_128 -->
<g id="edge24" class="edge">
<title>handle_128bit_float&#45;&gt;vector_len_check_128</title>
<path fill="none" stroke="black" d="M419.29,-322.33C459.84,-308.81 516.46,-289.94 558.72,-275.85"/>
<polygon fill="black" stroke="black" points="559.94,-279.14 568.32,-272.65 557.72,-272.5 559.94,-279.14"/>
</g>
<!-- others&#45;&gt;end -->
<!-- broadcast_32bit -->
<g id="node21" class="node">
<title>broadcast_32bit</title>
<polygon fill="none" stroke="black" points="322.5,-188.43 149.5,-188.43 149.5,-152.43 322.5,-152.43 322.5,-188.43"/>
<text text-anchor="middle" x="236" y="-167.93" font-family="Courier,monospace" font-size="10.00">Generate broadcast/shuffle</text>
</g>
<!-- vector_len_check_32&#45;&gt;broadcast_32bit -->
<g id="edge19" class="edge">
<title>vector_len_check_32&#45;&gt;broadcast_32bit</title>
<path fill="none" stroke="black" d="M157.11,-232.62C172.05,-221.03 190.44,-206.77 205.69,-194.93"/>
<polygon fill="black" stroke="black" points="208.05,-197.53 213.81,-188.64 203.76,-192 208.05,-197.53"/>
</g>
<!-- break_result_3 -->
<g id="node22" class="node">
<title>break_result_3</title>
<polygon fill="none" stroke="black" points="318.5,-115.43 211.5,-115.43 211.5,-79.43 318.5,-79.43 318.5,-115.43"/>
<text text-anchor="middle" x="265" y="-94.93" font-family="Courier,monospace" font-size="10.00">Break to result</text>
</g>
<!-- broadcast_32bit&#45;&gt;break_result_3 -->
<g id="edge20" class="edge">
<title>broadcast_32bit&#45;&gt;break_result_3</title>
<path fill="none" stroke="black" d="M243.02,-152.24C246.37,-144.04 250.45,-134.05 254.18,-124.91"/>
<polygon fill="black" stroke="black" points="257.5,-126.04 258.04,-115.46 251.02,-123.39 257.5,-126.04"/>
</g>
<!-- break_result_3&#45;&gt;end -->
<g id="edge29" class="edge">
<title>break_result_3&#45;&gt;end</title>
<path fill="none" stroke="black" d="M318.6,-89.41C421.23,-75.98 645.51,-46.62 760.66,-31.55"/>
<polygon fill="black" stroke="black" points="761.32,-34.99 770.78,-30.23 760.42,-28.05 761.32,-34.99"/>
</g>
<!-- movddup_or_shuf -->
<g id="node24" class="node">
<title>movddup_or_shuf</title>
<polygon fill="none" stroke="black" points="562.5,-188.43 407.5,-188.43 407.5,-152.43 562.5,-152.43 562.5,-188.43"/>
<text text-anchor="middle" x="485" y="-167.93" font-family="Courier,monospace" font-size="10.00">Generate MOVDDUP/SHUFPD</text>
</g>
<!-- vector_len_check_64&#45;&gt;movddup_or_shuf -->
<g id="edge22" class="edge">
<title>vector_len_check_64&#45;&gt;movddup_or_shuf</title>
<path fill="none" stroke="black" d="M401.84,-233.05C417.74,-221.27 437.49,-206.64 453.75,-194.59"/>
<polygon fill="black" stroke="black" points="455.94,-197.31 461.9,-188.55 451.78,-191.69 455.94,-197.31"/>
</g>
<!-- break_result_4 -->
<g id="node25" class="node">
<title>break_result_4</title>
<polygon fill="none" stroke="black" points="579.5,-115.43 472.5,-115.43 472.5,-79.43 579.5,-79.43 579.5,-115.43"/>
<text text-anchor="middle" x="526" y="-94.93" font-family="Courier,monospace" font-size="10.00">Break to result</text>
</g>
<!-- movddup_or_shuf&#45;&gt;break_result_4 -->
<g id="edge23" class="edge">
<title>movddup_or_shuf&#45;&gt;break_result_4</title>
<path fill="none" stroke="black" d="M494.92,-152.24C499.76,-143.87 505.67,-133.62 511.04,-124.33"/>
<polygon fill="black" stroke="black" points="514.2,-125.87 516.17,-115.46 508.13,-122.36 514.2,-125.87"/>
</g>
<!-- break_result_4&#45;&gt;end -->
<g id="edge30" class="edge">
<title>break_result_4&#45;&gt;end</title>
<path fill="none" stroke="black" d="M579.65,-83.41C632.93,-70.49 714.53,-50.7 770.42,-37.15"/>
<polygon fill="black" stroke="black" points="771.31,-40.53 780.2,-34.78 769.66,-33.73 771.31,-40.53"/>
</g>
<!-- broadcast_128bit -->
<g id="node27" class="node">
<title>broadcast_128bit</title>
<polygon fill="none" stroke="black" points="750.5,-188.43 625.5,-188.43 625.5,-152.43 750.5,-152.43 750.5,-188.43"/>
<text text-anchor="middle" x="688" y="-167.93" font-family="Courier,monospace" font-size="10.00">Generate broadcast</text>
</g>
<!-- vector_len_check_128&#45;&gt;broadcast_128bit -->
<g id="edge25" class="edge">
<title>vector_len_check_128&#45;&gt;broadcast_128bit</title>
<path fill="none" stroke="black" d="M637.54,-230.42C646.67,-219.74 657.43,-207.16 666.66,-196.37"/>
<polygon fill="black" stroke="black" points="669.53,-198.4 673.37,-188.53 664.21,-193.85 669.53,-198.4"/>
</g>
<!-- break_result_5 -->
<g id="node28" class="node">
<title>break_result_5</title>
<polygon fill="none" stroke="black" points="772.5,-115.43 665.5,-115.43 665.5,-79.43 772.5,-79.43 772.5,-115.43"/>
<text text-anchor="middle" x="719" y="-94.93" font-family="Courier,monospace" font-size="10.00">Break to result</text>
</g>
<!-- broadcast_128bit&#45;&gt;break_result_5 -->
<g id="edge26" class="edge">
<title>broadcast_128bit&#45;&gt;break_result_5</title>
<path fill="none" stroke="black" d="M695.5,-152.24C699.08,-144.04 703.45,-134.05 707.44,-124.91"/>
<polygon fill="black" stroke="black" points="710.77,-126.02 711.56,-115.46 704.36,-123.22 710.77,-126.02"/>
</g>
<!-- break_result_5&#45;&gt;end -->
<g id="edge31" class="edge">
<title>break_result_5&#45;&gt;end</title>
<path fill="none" stroke="black" d="M744.92,-79.4C759.77,-69.65 778.64,-57.26 795.02,-46.5"/>
<polygon fill="black" stroke="black" points="797.38,-49.13 803.82,-40.72 793.54,-43.28 797.38,-49.13"/>
</g>
</g>
</svg>
