<?xml version="1.0" encoding="UTF-8" standalone="no"?>
<!DOCTYPE svg PUBLIC "-//W3C//DTD SVG 1.1//EN"
 "http://www.w3.org/Graphics/SVG/1.1/DTD/svg11.dtd">
<!-- Generated by graphviz version 2.43.0 (0)
 -->
<!-- Title: flowchart Pages: 1 -->
<svg width="670pt" height="1519pt"
 viewBox="0.00 0.00 669.50 1519.00" xmlns="http://www.w3.org/2000/svg" xmlns:xlink="http://www.w3.org/1999/xlink">
<g id="graph0" class="graph" transform="scale(1 1) rotate(0) translate(4 1515)">
<title>flowchart</title>
<polygon fill="white" stroke="transparent" points="-4,4 -4,-1515 665.5,-1515 665.5,4 -4,4"/>
<!-- start -->
<g id="node1" class="node">
<title>start</title>
<path fill="none" stroke="black" d="M158.5,-1511C158.5,-1511 96.5,-1511 96.5,-1511 90.5,-1511 84.5,-1505 84.5,-1499 84.5,-1499 84.5,-1487 84.5,-1487 84.5,-1481 90.5,-1475 96.5,-1475 96.5,-1475 158.5,-1475 158.5,-1475 164.5,-1475 170.5,-1481 170.5,-1487 170.5,-1487 170.5,-1499 170.5,-1499 170.5,-1505 164.5,-1511 158.5,-1511"/>
<text text-anchor="middle" x="127.5" y="-1489.3" font-family="Arial" font-size="14.00">开始 airCall</text>
</g>
<!-- check_tail_call -->
<g id="node2" class="node">
<title>check_tail_call</title>
<path fill="none" stroke="black" d="M214.5,-1438C214.5,-1438 40.5,-1438 40.5,-1438 34.5,-1438 28.5,-1432 28.5,-1426 28.5,-1426 28.5,-1414 28.5,-1414 28.5,-1408 34.5,-1402 40.5,-1402 40.5,-1402 214.5,-1402 214.5,-1402 220.5,-1402 226.5,-1408 226.5,-1414 226.5,-1414 226.5,-1426 226.5,-1426 226.5,-1432 220.5,-1438 214.5,-1438"/>
<text text-anchor="middle" x="127.5" y="-1416.3" font-family="Arial" font-size="14.00">检查 modifier == .always_tail?</text>
</g>
<!-- start&#45;&gt;check_tail_call -->
<g id="edge1" class="edge">
<title>start&#45;&gt;check_tail_call</title>
<path fill="none" stroke="black" d="M127.5,-1474.81C127.5,-1466.79 127.5,-1457.05 127.5,-1448.07"/>
<polygon fill="black" stroke="black" points="131,-1448.03 127.5,-1438.03 124,-1448.03 131,-1448.03"/>
</g>
<!-- fail_tail_call -->
<g id="node3" class="node">
<title>fail_tail_call</title>
<path fill="none" stroke="black" d="M195,-1297C195,-1297 12,-1297 12,-1297 6,-1297 0,-1291 0,-1285 0,-1285 0,-1273 0,-1273 0,-1267 6,-1261 12,-1261 12,-1261 195,-1261 195,-1261 201,-1261 207,-1267 207,-1273 207,-1273 207,-1285 207,-1285 207,-1291 201,-1297 195,-1297"/>
<text text-anchor="middle" x="103.5" y="-1275.3" font-family="Arial" font-size="14.00">返回错误: TODO实现尾部调用</text>
</g>
<!-- check_tail_call&#45;&gt;fail_tail_call -->
<g id="edge2" class="edge">
<title>check_tail_call&#45;&gt;fail_tail_call</title>
<path fill="none" stroke="black" d="M124.56,-1401.96C120.47,-1378.3 113.04,-1335.26 108.19,-1307.15"/>
<polygon fill="black" stroke="black" points="111.62,-1306.44 106.47,-1297.18 104.72,-1307.63 111.62,-1306.44"/>
<text text-anchor="middle" x="129" y="-1372.8" font-family="Arial" font-size="14.00">是</text>
</g>
<!-- get_pl_op -->
<g id="node4" class="node">
<title>get_pl_op</title>
<path fill="none" stroke="black" d="M288,-1351C288,-1351 151,-1351 151,-1351 145,-1351 139,-1345 139,-1339 139,-1339 139,-1327 139,-1327 139,-1321 145,-1315 151,-1315 151,-1315 288,-1315 288,-1315 294,-1315 300,-1321 300,-1327 300,-1327 300,-1339 300,-1339 300,-1345 294,-1351 288,-1351"/>
<text text-anchor="middle" x="219.5" y="-1329.3" font-family="Arial" font-size="14.00">获取 pl_op, callee, extra</text>
</g>
<!-- check_tail_call&#45;&gt;get_pl_op -->
<g id="edge3" class="edge">
<title>check_tail_call&#45;&gt;get_pl_op</title>
<path fill="none" stroke="black" d="M146.12,-1401.8C159.71,-1389.24 178.32,-1372.05 193.39,-1358.12"/>
<polygon fill="black" stroke="black" points="195.94,-1360.53 200.91,-1351.18 191.19,-1355.39 195.94,-1360.53"/>
<text text-anchor="middle" x="187" y="-1372.8" font-family="Arial" font-size="14.00">否</text>
</g>
<!-- end -->
<g id="node23" class="node">
<title>end</title>
<ellipse fill="none" stroke="black" cx="264.5" cy="-18" rx="29.5" ry="18"/>
<text text-anchor="middle" x="264.5" y="-14.3" font-family="Arial" font-size="14.00">结束</text>
</g>
<!-- fail_tail_call&#45;&gt;end -->
<g id="edge25" class="edge">
<title>fail_tail_call&#45;&gt;end</title>
<path fill="none" stroke="black" d="M102.28,-1260.95C101.1,-1243.04 99.5,-1214.06 99.5,-1189 99.5,-1189 99.5,-1189 99.5,-90 99.5,-35.67 175.92,-22.4 224.74,-19.47"/>
<polygon fill="black" stroke="black" points="225.18,-22.96 235,-18.98 224.85,-15.97 225.18,-22.96"/>
</g>
<!-- resolve_ty -->
<g id="node5" class="node">
<title>resolve_ty</title>
<path fill="none" stroke="black" d="M322,-1243C322,-1243 149,-1243 149,-1243 143,-1243 137,-1237 137,-1231 137,-1231 137,-1219 137,-1219 137,-1213 143,-1207 149,-1207 149,-1207 322,-1207 322,-1207 328,-1207 334,-1213 334,-1219 334,-1219 334,-1231 334,-1231 334,-1237 328,-1243 322,-1243"/>
<text text-anchor="middle" x="235.5" y="-1221.3" font-family="Arial" font-size="14.00">解析函数类型（fn或pointer）</text>
</g>
<!-- get_pl_op&#45;&gt;resolve_ty -->
<g id="edge4" class="edge">
<title>get_pl_op&#45;&gt;resolve_ty</title>
<path fill="none" stroke="black" d="M222.07,-1314.97C224.58,-1298.38 228.42,-1272.88 231.36,-1253.43"/>
<polygon fill="black" stroke="black" points="234.85,-1253.75 232.88,-1243.34 227.93,-1252.71 234.85,-1253.75"/>
</g>
<!-- resolve_conv -->
<g id="node6" class="node">
<title>resolve_conv</title>
<path fill="none" stroke="black" d="M294,-1170C294,-1170 187,-1170 187,-1170 181,-1170 175,-1164 175,-1158 175,-1158 175,-1146 175,-1146 175,-1140 181,-1134 187,-1134 187,-1134 294,-1134 294,-1134 300,-1134 306,-1140 306,-1146 306,-1146 306,-1158 306,-1158 306,-1164 300,-1170 294,-1170"/>
<text text-anchor="middle" x="240.5" y="-1148.3" font-family="Arial" font-size="14.00">解析调用约定信息</text>
</g>
<!-- resolve_ty&#45;&gt;resolve_conv -->
<g id="edge5" class="edge">
<title>resolve_ty&#45;&gt;resolve_conv</title>
<path fill="none" stroke="black" d="M236.71,-1206.81C237.28,-1198.79 237.96,-1189.05 238.59,-1180.07"/>
<polygon fill="black" stroke="black" points="242.09,-1180.25 239.3,-1170.03 235.11,-1179.76 242.09,-1180.25"/>
</g>
<!-- spill_flags -->
<g id="node7" class="node">
<title>spill_flags</title>
<path fill="none" stroke="black" d="M280.5,-1097C280.5,-1097 202.5,-1097 202.5,-1097 196.5,-1097 190.5,-1091 190.5,-1085 190.5,-1085 190.5,-1073 190.5,-1073 190.5,-1067 196.5,-1061 202.5,-1061 202.5,-1061 280.5,-1061 280.5,-1061 286.5,-1061 292.5,-1067 292.5,-1073 292.5,-1073 292.5,-1085 292.5,-1085 292.5,-1091 286.5,-1097 280.5,-1097"/>
<text text-anchor="middle" x="241.5" y="-1075.3" font-family="Arial" font-size="14.00">保存比较标志</text>
</g>
<!-- resolve_conv&#45;&gt;spill_flags -->
<g id="edge6" class="edge">
<title>resolve_conv&#45;&gt;spill_flags</title>
<path fill="none" stroke="black" d="M240.74,-1133.81C240.86,-1125.79 240.99,-1116.05 241.12,-1107.07"/>
<polygon fill="black" stroke="black" points="244.62,-1107.08 241.26,-1097.03 237.62,-1106.98 244.62,-1107.08"/>
</g>
<!-- save_regs -->
<g id="node8" class="node">
<title>save_regs</title>
<path fill="none" stroke="black" d="M318,-1024C318,-1024 169,-1024 169,-1024 163,-1024 157,-1018 157,-1012 157,-1012 157,-1000 157,-1000 157,-994 163,-988 169,-988 169,-988 318,-988 318,-988 324,-988 330,-994 330,-1000 330,-1000 330,-1012 330,-1012 330,-1018 324,-1024 318,-1024"/>
<text text-anchor="middle" x="243.5" y="-1002.3" font-family="Arial" font-size="14.00">保存调用者保存的寄存器</text>
</g>
<!-- spill_flags&#45;&gt;save_regs -->
<g id="edge7" class="edge">
<title>spill_flags&#45;&gt;save_regs</title>
<path fill="none" stroke="black" d="M241.98,-1060.81C242.21,-1052.79 242.48,-1043.05 242.74,-1034.07"/>
<polygon fill="black" stroke="black" points="246.24,-1034.12 243.02,-1024.03 239.24,-1033.93 246.24,-1034.12"/>
</g>
<!-- check_return_ref -->
<g id="node9" class="node">
<title>check_return_ref</title>
<path fill="none" stroke="black" d="M298,-951C298,-951 191,-951 191,-951 185,-951 179,-945 179,-939 179,-939 179,-927 179,-927 179,-921 185,-915 191,-915 191,-915 298,-915 298,-915 304,-915 310,-921 310,-927 310,-927 310,-939 310,-939 310,-945 304,-951 298,-951"/>
<text text-anchor="middle" x="244.5" y="-929.3" font-family="Arial" font-size="14.00">返回类型是引用？</text>
</g>
<!-- save_regs&#45;&gt;check_return_ref -->
<g id="edge8" class="edge">
<title>save_regs&#45;&gt;check_return_ref</title>
<path fill="none" stroke="black" d="M243.74,-987.81C243.86,-979.79 243.99,-970.05 244.12,-961.07"/>
<polygon fill="black" stroke="black" points="247.62,-961.08 244.26,-951.03 240.62,-960.98 247.62,-961.08"/>
</g>
<!-- alloc_stack -->
<g id="node10" class="node">
<title>alloc_stack</title>
<path fill="none" stroke="black" d="M304,-864C304,-864 185,-864 185,-864 179,-864 173,-858 173,-852 173,-852 173,-840 173,-840 173,-834 179,-828 185,-828 185,-828 304,-828 304,-828 310,-828 316,-834 316,-840 316,-840 316,-852 316,-852 316,-858 310,-864 304,-864"/>
<text text-anchor="middle" x="244.5" y="-842.3" font-family="Arial" font-size="14.00">分配栈空间并设置r0</text>
</g>
<!-- check_return_ref&#45;&gt;alloc_stack -->
<g id="edge9" class="edge">
<title>check_return_ref&#45;&gt;alloc_stack</title>
<path fill="none" stroke="black" d="M244.5,-914.8C244.5,-903.16 244.5,-887.55 244.5,-874.24"/>
<polygon fill="black" stroke="black" points="248,-874.18 244.5,-864.18 241,-874.18 248,-874.18"/>
<text text-anchor="middle" x="252" y="-885.8" font-family="Arial" font-size="14.00">是</text>
</g>
<!-- stack_space -->
<g id="node12" class="node">
<title>stack_space</title>
<path fill="none" stroke="black" d="M390.5,-704C390.5,-704 298.5,-704 298.5,-704 292.5,-704 286.5,-698 286.5,-692 286.5,-692 286.5,-680 286.5,-680 286.5,-674 292.5,-668 298.5,-668 298.5,-668 390.5,-668 390.5,-668 396.5,-668 402.5,-674 402.5,-680 402.5,-680 402.5,-692 402.5,-692 402.5,-698 396.5,-704 390.5,-704"/>
<text text-anchor="middle" x="344.5" y="-682.3" font-family="Arial" font-size="14.00">分配栈参数空间</text>
</g>
<!-- check_return_ref&#45;&gt;stack_space -->
<g id="edge10" class="edge">
<title>check_return_ref&#45;&gt;stack_space</title>
<path fill="none" stroke="black" d="M274.67,-914.92C292.6,-903.06 314.01,-885.55 325.5,-864 350.99,-816.17 350.47,-750.82 347.62,-714.39"/>
<polygon fill="black" stroke="black" points="351.07,-713.71 346.69,-704.06 344.1,-714.34 351.07,-713.71"/>
<text text-anchor="middle" x="353" y="-798.8" font-family="Arial" font-size="14.00">否</text>
</g>
<!-- lock_r0 -->
<g id="node11" class="node">
<title>lock_r0</title>
<path fill="none" stroke="black" d="M298.5,-777C298.5,-777 222.5,-777 222.5,-777 216.5,-777 210.5,-771 210.5,-765 210.5,-765 210.5,-753 210.5,-753 210.5,-747 216.5,-741 222.5,-741 222.5,-741 298.5,-741 298.5,-741 304.5,-741 310.5,-747 310.5,-753 310.5,-753 310.5,-765 310.5,-765 310.5,-771 304.5,-777 298.5,-777"/>
<text text-anchor="middle" x="260.5" y="-755.3" font-family="Arial" font-size="14.00">锁定r0寄存器</text>
</g>
<!-- alloc_stack&#45;&gt;lock_r0 -->
<g id="edge11" class="edge">
<title>alloc_stack&#45;&gt;lock_r0</title>
<path fill="none" stroke="black" d="M247.74,-827.8C249.93,-816.16 252.87,-800.55 255.37,-787.24"/>
<polygon fill="black" stroke="black" points="258.86,-787.65 257.27,-777.18 251.98,-786.36 258.86,-787.65"/>
</g>
<!-- lock_r0&#45;&gt;stack_space -->
<g id="edge12" class="edge">
<title>lock_r0&#45;&gt;stack_space</title>
<path fill="none" stroke="black" d="M280.83,-740.81C291.56,-731.74 304.89,-720.48 316.58,-710.6"/>
<polygon fill="black" stroke="black" points="318.98,-713.16 324.35,-704.03 314.46,-707.81 318.98,-713.16"/>
</g>
<!-- process_args -->
<g id="node13" class="node">
<title>process_args</title>
<path fill="none" stroke="black" d="M383.5,-631C383.5,-631 305.5,-631 305.5,-631 299.5,-631 293.5,-625 293.5,-619 293.5,-619 293.5,-607 293.5,-607 293.5,-601 299.5,-595 305.5,-595 305.5,-595 383.5,-595 383.5,-595 389.5,-595 395.5,-601 395.5,-607 395.5,-607 395.5,-619 395.5,-619 395.5,-625 389.5,-631 383.5,-631"/>
<text text-anchor="middle" x="344.5" y="-609.3" font-family="Arial" font-size="14.00">处理参数传递</text>
</g>
<!-- stack_space&#45;&gt;process_args -->
<g id="edge13" class="edge">
<title>stack_space&#45;&gt;process_args</title>
<path fill="none" stroke="black" d="M344.5,-667.81C344.5,-659.79 344.5,-650.05 344.5,-641.07"/>
<polygon fill="black" stroke="black" points="348,-641.03 344.5,-631.03 341,-641.03 348,-641.03"/>
</g>
<!-- check_callee -->
<g id="node14" class="node">
<title>check_callee</title>
<path fill="none" stroke="black" d="M405,-558C405,-558 284,-558 284,-558 278,-558 272,-552 272,-546 272,-546 272,-534 272,-534 272,-528 278,-522 284,-522 284,-522 405,-522 405,-522 411,-522 417,-528 417,-534 417,-534 417,-546 417,-546 417,-552 411,-558 405,-558"/>
<text text-anchor="middle" x="344.5" y="-536.3" font-family="Arial" font-size="14.00">被调用函数是常量？</text>
</g>
<!-- process_args&#45;&gt;check_callee -->
<g id="edge14" class="edge">
<title>process_args&#45;&gt;check_callee</title>
<path fill="none" stroke="black" d="M344.5,-594.81C344.5,-586.79 344.5,-577.05 344.5,-568.07"/>
<polygon fill="black" stroke="black" points="348,-568.03 344.5,-558.03 341,-568.03 348,-568.03"/>
</g>
<!-- handle_extern -->
<g id="node15" class="node">
<title>handle_extern</title>
<path fill="none" stroke="black" d="M318.5,-417C318.5,-417 126.5,-417 126.5,-417 120.5,-417 114.5,-411 114.5,-405 114.5,-405 114.5,-393 114.5,-393 114.5,-387 120.5,-381 126.5,-381 126.5,-381 318.5,-381 318.5,-381 324.5,-381 330.5,-387 330.5,-393 330.5,-393 330.5,-405 330.5,-405 330.5,-411 324.5,-417 318.5,-417"/>
<text text-anchor="middle" x="222.5" y="-395.3" font-family="Arial" font-size="14.00">返回错误: TODO实现extern调用</text>
</g>
<!-- check_callee&#45;&gt;handle_extern -->
<g id="edge15" class="edge">
<title>check_callee&#45;&gt;handle_extern</title>
<path fill="none" stroke="black" d="M289.65,-521.85C280.43,-517.15 271.58,-511.28 264.5,-504 243.91,-482.81 232.97,-450.19 227.48,-427.15"/>
<polygon fill="black" stroke="black" points="230.88,-426.33 225.32,-417.31 224.04,-427.82 230.88,-426.33"/>
<text text-anchor="middle" x="298" y="-492.8" font-family="Arial" font-size="14.00">extern函数</text>
</g>
<!-- handle_bitcast -->
<g id="node16" class="node">
<title>handle_bitcast</title>
<path fill="none" stroke="black" d="M444,-309C444,-309 247,-309 247,-309 241,-309 235,-303 235,-297 235,-297 235,-285 235,-285 235,-279 241,-273 247,-273 247,-273 444,-273 444,-273 450,-273 456,-279 456,-285 456,-285 456,-297 456,-297 456,-303 450,-309 444,-309"/>
<text text-anchor="middle" x="345.5" y="-287.3" font-family="Arial" font-size="14.00">返回错误: TODO实现位转换调用</text>
</g>
<!-- check_callee&#45;&gt;handle_bitcast -->
<g id="edge16" class="edge">
<title>check_callee&#45;&gt;handle_bitcast</title>
<path fill="none" stroke="black" d="M344.57,-521.63C344.74,-479.28 345.18,-370.42 345.39,-319.29"/>
<polygon fill="black" stroke="black" points="348.89,-319.04 345.43,-309.02 341.89,-319.01 348.89,-319.04"/>
<text text-anchor="middle" x="366" y="-449.3" font-family="Arial" font-size="14.00">位转换</text>
</g>
<!-- handle_ptr -->
<g id="node17" class="node">
<title>handle_ptr</title>
<path fill="none" stroke="black" d="M570.5,-471C570.5,-471 418.5,-471 418.5,-471 412.5,-471 406.5,-465 406.5,-459 406.5,-459 406.5,-447 406.5,-447 406.5,-441 412.5,-435 418.5,-435 418.5,-435 570.5,-435 570.5,-435 576.5,-435 582.5,-441 582.5,-447 582.5,-447 582.5,-459 582.5,-459 582.5,-465 576.5,-471 570.5,-471"/>
<text text-anchor="middle" x="494.5" y="-449.3" font-family="Arial" font-size="14.00">生成函数地址到LR寄存器</text>
</g>
<!-- check_callee&#45;&gt;handle_ptr -->
<g id="edge17" class="edge">
<title>check_callee&#45;&gt;handle_ptr</title>
<path fill="none" stroke="black" d="M374.85,-521.8C398.11,-508.62 430.37,-490.34 455.53,-476.08"/>
<polygon fill="black" stroke="black" points="457.47,-479.01 464.45,-471.03 454.02,-472.92 457.47,-479.01"/>
<text text-anchor="middle" x="456.5" y="-492.8" font-family="Arial" font-size="14.00">函数指针</text>
</g>
<!-- handle_extern&#45;&gt;end -->
<g id="edge26" class="edge">
<title>handle_extern&#45;&gt;end</title>
<path fill="none" stroke="black" d="M221.97,-380.74C221.38,-359.77 220.5,-323.29 220.5,-292 220.5,-292 220.5,-292 220.5,-90 220.5,-71.63 231.28,-54.05 242.17,-40.98"/>
<polygon fill="black" stroke="black" points="244.83,-43.25 248.86,-33.46 239.6,-38.6 244.83,-43.25"/>
</g>
<!-- handle_bitcast&#45;&gt;end -->
<g id="edge27" class="edge">
<title>handle_bitcast&#45;&gt;end</title>
<path fill="none" stroke="black" d="M312.07,-272.9C304.33,-267.87 296.59,-261.85 290.5,-255 272.81,-235.09 264.5,-227.64 264.5,-201 264.5,-201 264.5,-201 264.5,-90 264.5,-75.65 264.5,-59.67 264.5,-46.51"/>
<polygon fill="black" stroke="black" points="268,-46.22 264.5,-36.22 261,-46.22 268,-46.22"/>
</g>
<!-- check_cpu_feature -->
<g id="node18" class="node">
<title>check_cpu_feature</title>
<path fill="none" stroke="black" d="M567.5,-363C567.5,-363 421.5,-363 421.5,-363 415.5,-363 409.5,-357 409.5,-351 409.5,-351 409.5,-339 409.5,-339 409.5,-333 415.5,-327 421.5,-327 421.5,-327 567.5,-327 567.5,-327 573.5,-327 579.5,-333 579.5,-339 579.5,-339 579.5,-351 579.5,-351 579.5,-357 573.5,-363 567.5,-363"/>
<text text-anchor="middle" x="494.5" y="-341.3" font-family="Arial" font-size="14.00">检查CPU支持BLX指令？</text>
</g>
<!-- handle_ptr&#45;&gt;check_cpu_feature -->
<g id="edge18" class="edge">
<title>handle_ptr&#45;&gt;check_cpu_feature</title>
<path fill="none" stroke="black" d="M494.5,-434.97C494.5,-418.38 494.5,-392.88 494.5,-373.43"/>
<polygon fill="black" stroke="black" points="498,-373.34 494.5,-363.34 491,-373.34 498,-373.34"/>
</g>
<!-- gen_blx -->
<g id="node19" class="node">
<title>gen_blx</title>
<path fill="none" stroke="black" d="M407.5,-255C407.5,-255 311.5,-255 311.5,-255 305.5,-255 299.5,-249 299.5,-243 299.5,-243 299.5,-231 299.5,-231 299.5,-225 305.5,-219 311.5,-219 311.5,-219 407.5,-219 407.5,-219 413.5,-219 419.5,-225 419.5,-231 419.5,-231 419.5,-243 419.5,-243 419.5,-249 413.5,-255 407.5,-255"/>
<text text-anchor="middle" x="359.5" y="-233.3" font-family="Arial" font-size="14.00">生成BLX LR指令</text>
</g>
<!-- check_cpu_feature&#45;&gt;gen_blx -->
<g id="edge19" class="edge">
<title>check_cpu_feature&#45;&gt;gen_blx</title>
<path fill="none" stroke="black" d="M485.72,-326.97C474.96,-306.12 458.07,-273.5 457.5,-273 449.21,-265.78 439.32,-260.01 429.06,-255.41"/>
<polygon fill="black" stroke="black" points="430.15,-252.08 419.57,-251.52 427.49,-258.55 430.15,-252.08"/>
<text text-anchor="middle" x="499" y="-287.3" font-family="Arial" font-size="14.00">支持v5t</text>
</g>
<!-- gen_bx -->
<g id="node20" class="node">
<title>gen_bx</title>
<path fill="none" stroke="black" d="M649.5,-255C649.5,-255 449.5,-255 449.5,-255 443.5,-255 437.5,-249 437.5,-243 437.5,-243 437.5,-231 437.5,-231 437.5,-225 443.5,-219 449.5,-219 449.5,-219 649.5,-219 649.5,-219 655.5,-219 661.5,-225 661.5,-231 661.5,-231 661.5,-243 661.5,-243 661.5,-249 655.5,-255 649.5,-255"/>
<text text-anchor="middle" x="549.5" y="-233.3" font-family="Arial" font-size="14.00">返回错误: TODO实现旧ARM调用</text>
</g>
<!-- check_cpu_feature&#45;&gt;gen_bx -->
<g id="edge20" class="edge">
<title>check_cpu_feature&#45;&gt;gen_bx</title>
<path fill="none" stroke="black" d="M513.7,-326.76C518.74,-321.47 523.8,-315.35 527.5,-309 535.38,-295.5 540.73,-278.88 544.17,-265.12"/>
<polygon fill="black" stroke="black" points="547.61,-265.78 546.45,-255.24 540.79,-264.2 547.61,-265.78"/>
<text text-anchor="middle" x="563" y="-287.3" font-family="Arial" font-size="14.00">不支持</text>
</g>
<!-- handle_return -->
<g id="node21" class="node">
<title>handle_return</title>
<path fill="none" stroke="black" d="M405.5,-182C405.5,-182 341.5,-182 341.5,-182 335.5,-182 329.5,-176 329.5,-170 329.5,-170 329.5,-158 329.5,-158 329.5,-152 335.5,-146 341.5,-146 341.5,-146 405.5,-146 405.5,-146 411.5,-146 417.5,-152 417.5,-158 417.5,-158 417.5,-170 417.5,-170 417.5,-176 411.5,-182 405.5,-182"/>
<text text-anchor="middle" x="373.5" y="-160.3" font-family="Arial" font-size="14.00">处理返回值</text>
</g>
<!-- gen_blx&#45;&gt;handle_return -->
<g id="edge21" class="edge">
<title>gen_blx&#45;&gt;handle_return</title>
<path fill="none" stroke="black" d="M362.89,-218.81C364.47,-210.79 366.39,-201.05 368.16,-192.07"/>
<polygon fill="black" stroke="black" points="371.64,-192.52 370.14,-182.03 364.77,-191.16 371.64,-192.52"/>
</g>
<!-- gen_bx&#45;&gt;handle_return -->
<g id="edge22" class="edge">
<title>gen_bx&#45;&gt;handle_return</title>
<path fill="none" stroke="black" d="M507.34,-218.99C482.71,-209.06 451.42,-196.43 425.29,-185.89"/>
<polygon fill="black" stroke="black" points="426.51,-182.61 415.92,-182.11 423.89,-189.1 426.51,-182.61"/>
</g>
<!-- gen_bx&#45;&gt;end -->
<g id="edge28" class="edge">
<title>gen_bx&#45;&gt;end</title>
<path fill="none" stroke="black" d="M545.34,-218.78C536.36,-185.4 511.95,-111.8 463.5,-73 417.16,-35.9 347.36,-24.2 303.93,-20.57"/>
<polygon fill="black" stroke="black" points="303.98,-17.06 293.75,-19.83 303.47,-24.05 303.98,-17.06"/>
</g>
<!-- finish_air -->
<g id="node22" class="node">
<title>finish_air</title>
<path fill="none" stroke="black" d="M442,-109C442,-109 305,-109 305,-109 299,-109 293,-103 293,-97 293,-97 293,-85 293,-85 293,-79 299,-73 305,-73 305,-73 442,-73 442,-73 448,-73 454,-79 454,-85 454,-85 454,-97 454,-97 454,-103 448,-109 442,-109"/>
<text text-anchor="middle" x="373.5" y="-87.3" font-family="Arial" font-size="14.00">完成Air指令并返回结果</text>
</g>
<!-- handle_return&#45;&gt;finish_air -->
<g id="edge23" class="edge">
<title>handle_return&#45;&gt;finish_air</title>
<path fill="none" stroke="black" d="M373.5,-145.81C373.5,-137.79 373.5,-128.05 373.5,-119.07"/>
<polygon fill="black" stroke="black" points="377,-119.03 373.5,-109.03 370,-119.03 377,-119.03"/>
</g>
<!-- finish_air&#45;&gt;end -->
<g id="edge24" class="edge">
<title>finish_air&#45;&gt;end</title>
<path fill="none" stroke="black" d="M347.39,-72.99C330.77,-62.16 309.25,-48.15 292.3,-37.11"/>
<polygon fill="black" stroke="black" points="294.2,-34.17 283.91,-31.64 290.38,-40.03 294.2,-34.17"/>
</g>
</g>
</svg>
