<?xml version="1.0" encoding="UTF-8" standalone="no"?>
<!DOCTYPE svg PUBLIC "-//W3C//DTD SVG 1.1//EN"
 "http://www.w3.org/Graphics/SVG/1.1/DTD/svg11.dtd">
<!-- Generated by graphviz version 2.43.0 (0)
 -->
<!-- Title: flowchart Pages: 1 -->
<svg width="988pt" height="1187pt"
 viewBox="0.00 0.00 988.00 1187.00" xmlns="http://www.w3.org/2000/svg" xmlns:xlink="http://www.w3.org/1999/xlink">
<g id="graph0" class="graph" transform="scale(1 1) rotate(0) translate(4 1183)">
<title>flowchart</title>
<polygon fill="white" stroke="transparent" points="-4,4 -4,-1183 984,-1183 984,4 -4,4"/>
<g id="clust1" class="cluster">
<title>cluster_callgen</title>
<polygon fill="none" stroke="black" points="8,-8 8,-257 647,-257 647,-8 8,-8"/>
<text text-anchor="middle" x="327.5" y="-241.8" font-family="Times,serif" font-size="14.00">生成调用指令细节</text>
</g>
<!-- start -->
<g id="node1" class="node">
<title>start</title>
<path fill="none" stroke="black" d="M894,-1179C894,-1179 818,-1179 818,-1179 812,-1179 806,-1173 806,-1167 806,-1167 806,-1155 806,-1155 806,-1149 812,-1143 818,-1143 818,-1143 894,-1143 894,-1143 900,-1143 906,-1149 906,-1155 906,-1155 906,-1167 906,-1167 906,-1173 900,-1179 894,-1179"/>
<text text-anchor="middle" x="856" y="-1157.3" font-family="Helvetica,sans-Serif" font-size="14.00">开始 genCall</text>
</g>
<!-- get_fn_ty -->
<g id="node2" class="node">
<title>get_fn_ty</title>
<path fill="none" stroke="black" d="M914,-1106C914,-1106 798,-1106 798,-1106 792,-1106 786,-1100 786,-1094 786,-1094 786,-1082 786,-1082 786,-1076 792,-1070 798,-1070 798,-1070 914,-1070 914,-1070 920,-1070 926,-1076 926,-1082 926,-1082 926,-1094 926,-1094 926,-1100 920,-1106 914,-1106"/>
<text text-anchor="middle" x="856" y="-1084.3" font-family="Helvetica,sans-Serif" font-size="14.00">获取函数类型 fn_ty</text>
</g>
<!-- start&#45;&gt;get_fn_ty -->
<g id="edge1" class="edge">
<title>start&#45;&gt;get_fn_ty</title>
<path fill="none" stroke="black" d="M856,-1142.81C856,-1134.79 856,-1125.05 856,-1116.07"/>
<polygon fill="black" stroke="black" points="859.5,-1116.03 856,-1106.03 852.5,-1116.03 859.5,-1116.03"/>
</g>
<!-- prepare_alloc -->
<g id="node3" class="node">
<title>prepare_alloc</title>
<path fill="none" stroke="black" d="M902,-1033C902,-1033 810,-1033 810,-1033 804,-1033 798,-1027 798,-1021 798,-1021 798,-1007 798,-1007 798,-1001 804,-995 810,-995 810,-995 902,-995 902,-995 908,-995 914,-1001 914,-1007 914,-1007 914,-1021 914,-1021 914,-1027 908,-1033 902,-1033"/>
<text text-anchor="middle" x="856" y="-1017.8" font-family="Helvetica,sans-Serif" font-size="14.00">准备内存分配器</text>
<text text-anchor="middle" x="856" y="-1002.8" font-family="Helvetica,sans-Serif" font-size="14.00">(栈回退分配器)</text>
</g>
<!-- get_fn_ty&#45;&gt;prepare_alloc -->
<g id="edge2" class="edge">
<title>get_fn_ty&#45;&gt;prepare_alloc</title>
<path fill="none" stroke="black" d="M856,-1069.94C856,-1061.99 856,-1052.31 856,-1043.31"/>
<polygon fill="black" stroke="black" points="859.5,-1043.2 856,-1033.2 852.5,-1043.2 859.5,-1043.2"/>
</g>
<!-- handle_var_args -->
<g id="node4" class="node">
<title>handle_var_args</title>
<path fill="none" stroke="black" d="M895,-958C895,-958 817,-958 817,-958 811,-958 805,-952 805,-946 805,-946 805,-932 805,-932 805,-926 811,-920 817,-920 817,-920 895,-920 895,-920 901,-920 907,-926 907,-932 907,-932 907,-946 907,-946 907,-952 901,-958 895,-958"/>
<text text-anchor="middle" x="856" y="-942.8" font-family="Helvetica,sans-Serif" font-size="14.00">处理可变参数</text>
<text text-anchor="middle" x="856" y="-927.8" font-family="Helvetica,sans-Serif" font-size="14.00">(var_args)</text>
</g>
<!-- prepare_alloc&#45;&gt;handle_var_args -->
<g id="edge3" class="edge">
<title>prepare_alloc&#45;&gt;handle_var_args</title>
<path fill="none" stroke="black" d="M856,-994.96C856,-986.88 856,-977.18 856,-968.18"/>
<polygon fill="black" stroke="black" points="859.5,-968.09 856,-958.09 852.5,-968.09 859.5,-968.09"/>
</g>
<!-- resolve_call_conv -->
<g id="node5" class="node">
<title>resolve_call_conv</title>
<path fill="none" stroke="black" d="M968,-883C968,-883 744,-883 744,-883 738,-883 732,-877 732,-871 732,-871 732,-857 732,-857 732,-851 738,-845 744,-845 744,-845 968,-845 968,-845 974,-845 980,-851 980,-857 980,-857 980,-871 980,-871 980,-877 974,-883 968,-883"/>
<text text-anchor="middle" x="856" y="-867.8" font-family="Helvetica,sans-Serif" font-size="14.00">解析调用约定</text>
<text text-anchor="middle" x="856" y="-852.8" font-family="Helvetica,sans-Serif" font-size="14.00">(resolveCallingConventionValues)</text>
</g>
<!-- handle_var_args&#45;&gt;resolve_call_conv -->
<g id="edge4" class="edge">
<title>handle_var_args&#45;&gt;resolve_call_conv</title>
<path fill="none" stroke="black" d="M856,-919.96C856,-911.88 856,-902.18 856,-893.18"/>
<polygon fill="black" stroke="black" points="859.5,-893.09 856,-883.09 852.5,-893.09 859.5,-893.09"/>
</g>
<!-- setup_call_frame -->
<g id="node6" class="node">
<title>setup_call_frame</title>
<path fill="none" stroke="black" d="M907.5,-808C907.5,-808 804.5,-808 804.5,-808 798.5,-808 792.5,-802 792.5,-796 792.5,-796 792.5,-782 792.5,-782 792.5,-776 798.5,-770 804.5,-770 804.5,-770 907.5,-770 907.5,-770 913.5,-770 919.5,-776 919.5,-782 919.5,-782 919.5,-796 919.5,-796 919.5,-802 913.5,-808 907.5,-808"/>
<text text-anchor="middle" x="856" y="-792.8" font-family="Helvetica,sans-Serif" font-size="14.00">设置调用帧</text>
<text text-anchor="middle" x="856" y="-777.8" font-family="Helvetica,sans-Serif" font-size="14.00">(对齐和大小调整)</text>
</g>
<!-- resolve_call_conv&#45;&gt;setup_call_frame -->
<g id="edge5" class="edge">
<title>resolve_call_conv&#45;&gt;setup_call_frame</title>
<path fill="none" stroke="black" d="M856,-844.96C856,-836.88 856,-827.18 856,-818.18"/>
<polygon fill="black" stroke="black" points="859.5,-818.09 856,-808.09 852.5,-818.09 859.5,-818.09"/>
</g>
<!-- spill_ops -->
<g id="node7" class="node">
<title>spill_ops</title>
<path fill="none" stroke="black" d="M951.5,-733C951.5,-733 760.5,-733 760.5,-733 754.5,-733 748.5,-727 748.5,-721 748.5,-721 748.5,-709 748.5,-709 748.5,-703 754.5,-697 760.5,-697 760.5,-697 951.5,-697 951.5,-697 957.5,-697 963.5,-703 963.5,-709 963.5,-709 963.5,-721 963.5,-721 963.5,-727 957.5,-733 951.5,-733"/>
<text text-anchor="middle" x="856" y="-711.3" font-family="Helvetica,sans-Serif" font-size="14.00">保存eflags和调用者保留寄存器</text>
</g>
<!-- setup_call_frame&#45;&gt;spill_ops -->
<g id="edge6" class="edge">
<title>setup_call_frame&#45;&gt;spill_ops</title>
<path fill="none" stroke="black" d="M856,-769.83C856,-761.89 856,-752.41 856,-743.63"/>
<polygon fill="black" stroke="black" points="859.5,-743.42 856,-733.42 852.5,-743.42 859.5,-743.42"/>
</g>
<!-- setup_stack_args -->
<g id="node8" class="node">
<title>setup_stack_args</title>
<path fill="none" stroke="black" d="M907.5,-660C907.5,-660 804.5,-660 804.5,-660 798.5,-660 792.5,-654 792.5,-648 792.5,-648 792.5,-634 792.5,-634 792.5,-628 798.5,-622 804.5,-622 804.5,-622 907.5,-622 907.5,-622 913.5,-622 919.5,-628 919.5,-634 919.5,-634 919.5,-648 919.5,-648 919.5,-654 913.5,-660 907.5,-660"/>
<text text-anchor="middle" x="856" y="-644.8" font-family="Helvetica,sans-Serif" font-size="14.00">设置栈参数</text>
<text text-anchor="middle" x="856" y="-629.8" font-family="Helvetica,sans-Serif" font-size="14.00">(可能破坏寄存器)</text>
</g>
<!-- spill_ops&#45;&gt;setup_stack_args -->
<g id="edge7" class="edge">
<title>spill_ops&#45;&gt;setup_stack_args</title>
<path fill="none" stroke="black" d="M856,-696.94C856,-688.99 856,-679.31 856,-670.31"/>
<polygon fill="black" stroke="black" points="859.5,-670.2 856,-660.2 852.5,-670.2 859.5,-670.2"/>
</g>
<!-- handle_return_value -->
<g id="node9" class="node">
<title>handle_return_value</title>
<path fill="none" stroke="black" d="M859,-585C859,-585 767,-585 767,-585 761,-585 755,-579 755,-573 755,-573 755,-561 755,-561 755,-555 761,-549 767,-549 767,-549 859,-549 859,-549 865,-549 871,-555 871,-561 871,-561 871,-573 871,-573 871,-579 865,-585 859,-585"/>
<text text-anchor="middle" x="813" y="-563.3" font-family="Helvetica,sans-Serif" font-size="14.00">处理返回值位置</text>
</g>
<!-- setup_stack_args&#45;&gt;handle_return_value -->
<g id="edge8" class="edge">
<title>setup_stack_args&#45;&gt;handle_return_value</title>
<path fill="none" stroke="black" d="M845.15,-621.83C840.15,-613.46 834.12,-603.36 828.64,-594.19"/>
<polygon fill="black" stroke="black" points="831.53,-592.21 823.4,-585.42 825.52,-595.8 831.53,-592.21"/>
</g>
<!-- error_handling -->
<g id="node14" class="node">
<title>error_handling</title>
<path fill="none" stroke="black" d="M761.4,-222.93C761.4,-222.93 716.57,-211.07 716.57,-211.07 710.77,-209.53 710.77,-206.47 716.57,-204.93 716.57,-204.93 761.4,-193.07 761.4,-193.07 767.2,-191.53 778.8,-191.53 784.6,-193.07 784.6,-193.07 829.43,-204.93 829.43,-204.93 835.23,-206.47 835.23,-209.53 829.43,-211.07 829.43,-211.07 784.6,-222.93 784.6,-222.93 778.8,-224.47 767.2,-224.47 761.4,-222.93"/>
<text text-anchor="middle" x="773" y="-204.3" font-family="Helvetica,sans-Serif" font-size="14.00">错误处理</text>
</g>
<!-- setup_stack_args&#45;&gt;error_handling -->
<g id="edge13" class="edge">
<title>setup_stack_args&#45;&gt;error_handling</title>
<path fill="none" stroke="black" d="M874.24,-621.89C885.96,-608.29 899,-588.53 899,-568 899,-568 899,-568 899,-316 899,-269.24 847.96,-238.66 810.85,-222.6"/>
<polygon fill="black" stroke="black" points="811.86,-219.23 801.28,-218.64 809.18,-225.7 811.86,-219.23"/>
<text text-anchor="middle" x="920.5" y="-446.8" font-family="Helvetica,sans-Serif" font-size="14.00">失败时</text>
</g>
<!-- setup_reg_args -->
<g id="node10" class="node">
<title>setup_reg_args</title>
<path fill="none" stroke="black" d="M788,-512C788,-512 696,-512 696,-512 690,-512 684,-506 684,-500 684,-500 684,-488 684,-488 684,-482 690,-476 696,-476 696,-476 788,-476 788,-476 794,-476 800,-482 800,-488 800,-488 800,-500 800,-500 800,-506 794,-512 788,-512"/>
<text text-anchor="middle" x="742" y="-490.3" font-family="Helvetica,sans-Serif" font-size="14.00">设置寄存器参数</text>
</g>
<!-- handle_return_value&#45;&gt;setup_reg_args -->
<g id="edge9" class="edge">
<title>handle_return_value&#45;&gt;setup_reg_args</title>
<path fill="none" stroke="black" d="M795.81,-548.81C786.92,-539.92 775.91,-528.91 766.17,-519.17"/>
<polygon fill="black" stroke="black" points="768.57,-516.63 759.03,-512.03 763.63,-521.57 768.57,-516.63"/>
</g>
<!-- handle_return_value&#45;&gt;error_handling -->
<g id="edge14" class="edge">
<title>handle_return_value&#45;&gt;error_handling</title>
<path fill="none" stroke="black" d="M818.67,-549C822.92,-534.74 828,-513.77 828,-495 828,-495 828,-495 828,-316 828,-283.65 807.87,-251.28 791.97,-230.76"/>
<polygon fill="black" stroke="black" points="794.48,-228.3 785.48,-222.72 789.04,-232.7 794.48,-228.3"/>
<text text-anchor="middle" x="849.5" y="-402.3" font-family="Helvetica,sans-Serif" font-size="14.00">失败时</text>
</g>
<!-- handle_varargs_flag -->
<g id="node11" class="node">
<title>handle_varargs_flag</title>
<path fill="none" stroke="black" d="M722.5,-425C722.5,-425 603.5,-425 603.5,-425 597.5,-425 591.5,-419 591.5,-413 591.5,-413 591.5,-399 591.5,-399 591.5,-393 597.5,-387 603.5,-387 603.5,-387 722.5,-387 722.5,-387 728.5,-387 734.5,-393 734.5,-399 734.5,-399 734.5,-413 734.5,-413 734.5,-419 728.5,-425 722.5,-425"/>
<text text-anchor="middle" x="663" y="-409.8" font-family="Helvetica,sans-Serif" font-size="14.00">设置可变参数标记</text>
<text text-anchor="middle" x="663" y="-394.8" font-family="Helvetica,sans-Serif" font-size="14.00">(mov al, fp_count)</text>
</g>
<!-- setup_reg_args&#45;&gt;handle_varargs_flag -->
<g id="edge10" class="edge">
<title>setup_reg_args&#45;&gt;handle_varargs_flag</title>
<path fill="none" stroke="black" d="M726.01,-475.6C714.78,-463.37 699.56,-446.8 686.9,-433.01"/>
<polygon fill="black" stroke="black" points="689.12,-430.26 679.78,-425.27 683.97,-435 689.12,-430.26"/>
</g>
<!-- setup_reg_args&#45;&gt;error_handling -->
<g id="edge15" class="edge">
<title>setup_reg_args&#45;&gt;error_handling</title>
<path fill="none" stroke="black" d="M743.89,-475.66C749.12,-427.8 763.77,-293.6 770.06,-235.91"/>
<polygon fill="black" stroke="black" points="773.57,-236.07 771.17,-225.75 766.61,-235.31 773.57,-236.07"/>
<text text-anchor="middle" x="778.5" y="-357.8" font-family="Helvetica,sans-Serif" font-size="14.00">失败时</text>
</g>
<!-- gen_call_inst -->
<g id="node12" class="node">
<title>gen_call_inst</title>
<path fill="none" stroke="black" d="M730,-336C730,-336 556,-336 556,-336 550,-336 544,-330 544,-324 544,-324 544,-310 544,-310 544,-304 550,-298 556,-298 556,-298 730,-298 730,-298 736,-298 742,-304 742,-310 742,-310 742,-324 742,-324 742,-330 736,-336 730,-336"/>
<text text-anchor="middle" x="643" y="-320.8" font-family="Helvetica,sans-Serif" font-size="14.00">生成调用指令</text>
<text text-anchor="middle" x="643" y="-305.8" font-family="Helvetica,sans-Serif" font-size="14.00">(根据链接目标处理不同格式)</text>
</g>
<!-- handle_varargs_flag&#45;&gt;gen_call_inst -->
<g id="edge11" class="edge">
<title>handle_varargs_flag&#45;&gt;gen_call_inst</title>
<path fill="none" stroke="black" d="M658.86,-386.97C656.12,-375.08 652.48,-359.25 649.38,-345.76"/>
<polygon fill="black" stroke="black" points="652.79,-344.96 647.14,-336 645.97,-346.53 652.79,-344.96"/>
</g>
<!-- return_result -->
<g id="node13" class="node">
<title>return_result</title>
<path fill="none" stroke="black" d="M879,-139C879,-139 667,-139 667,-139 661,-139 655,-133 655,-127 655,-127 655,-115 655,-115 655,-109 661,-103 667,-103 667,-103 879,-103 879,-103 885,-103 891,-109 891,-115 891,-115 891,-127 891,-127 891,-133 885,-139 879,-139"/>
<text text-anchor="middle" x="773" y="-117.3" font-family="Helvetica,sans-Serif" font-size="14.00">返回 call_info.return_value.short</text>
</g>
<!-- gen_call_inst&#45;&gt;return_result -->
<g id="edge12" class="edge">
<title>gen_call_inst&#45;&gt;return_result</title>
<path fill="none" stroke="black" d="M647.9,-297.59C655.36,-271.82 671.36,-224.31 696,-190 708.2,-173.01 725.38,-157.32 740.42,-145.29"/>
<polygon fill="black" stroke="black" points="742.76,-147.91 748.51,-139.01 738.47,-142.38 742.76,-147.91"/>
</g>
<!-- gen_call_inst&#45;&gt;error_handling -->
<g id="edge16" class="edge">
<title>gen_call_inst&#45;&gt;error_handling</title>
<path fill="none" stroke="black" d="M665.05,-297.85C688.38,-278.65 725.07,-248.45 749.08,-228.69"/>
<polygon fill="black" stroke="black" points="751.51,-231.22 757,-222.17 747.06,-225.82 751.51,-231.22"/>
<text text-anchor="middle" x="725.5" y="-268.8" font-family="Helvetica,sans-Serif" font-size="14.00">失败时</text>
</g>
<!-- check_info_type -->
<g id="node15" class="node">
<title>check_info_type</title>
<path fill="none" stroke="black" d="M463.22,-223.69C463.22,-223.69 394.94,-210.31 394.94,-210.31 389.06,-209.15 389.06,-206.85 394.94,-205.69 394.94,-205.69 463.22,-192.31 463.22,-192.31 469.11,-191.15 480.89,-191.15 486.78,-192.31 486.78,-192.31 555.06,-205.69 555.06,-205.69 560.94,-206.85 560.94,-209.15 555.06,-210.31 555.06,-210.31 486.78,-223.69 486.78,-223.69 480.89,-224.85 469.11,-224.85 463.22,-223.69"/>
<text text-anchor="middle" x="475" y="-204.3" font-family="Helvetica,sans-Serif" font-size="14.00">检查info类型</text>
</g>
<!-- gen_call_inst&#45;&gt;check_info_type -->
<g id="edge27" class="edge">
<title>gen_call_inst&#45;&gt;check_info_type</title>
<path fill="none" stroke="black" d="M614.5,-297.85C583.83,-278.31 535.28,-247.39 504.3,-227.66"/>
<polygon fill="black" stroke="black" points="505.99,-224.59 495.67,-222.17 502.23,-230.49 505.99,-224.59"/>
</g>
<!-- error_handling&#45;&gt;return_result -->
<g id="edge17" class="edge">
<title>error_handling&#45;&gt;return_result</title>
<path fill="none" stroke="black" d="M773,-189.8C773,-178.16 773,-162.55 773,-149.24"/>
<polygon fill="black" stroke="black" points="776.5,-149.18 773,-139.18 769.5,-149.18 776.5,-149.18"/>
<text text-anchor="middle" x="816" y="-160.8" font-family="Helvetica,sans-Serif" font-size="14.00">向上传播错误</text>
</g>
<!-- air_case -->
<g id="node16" class="node">
<title>air_case</title>
<path fill="none" stroke="black" d="M387,-139C387,-139 285,-139 285,-139 279,-139 273,-133 273,-127 273,-127 273,-115 273,-115 273,-109 279,-103 285,-103 285,-103 387,-103 387,-103 393,-103 399,-109 399,-115 399,-115 399,-127 399,-127 399,-133 393,-139 387,-139"/>
<text text-anchor="middle" x="336" y="-117.3" font-family="Helvetica,sans-Serif" font-size="14.00">处理AIR函数调用</text>
</g>
<!-- check_info_type&#45;&gt;air_case -->
<g id="edge18" class="edge">
<title>check_info_type&#45;&gt;air_case</title>
<path fill="none" stroke="black" d="M453.89,-194.09C432.42,-180.96 398.72,-160.36 372.85,-144.53"/>
<polygon fill="black" stroke="black" points="374.41,-141.38 364.05,-139.15 370.76,-147.36 374.41,-141.38"/>
<text text-anchor="middle" x="424.5" y="-160.8" font-family="Helvetica,sans-Serif" font-size="14.00">.air</text>
</g>
<!-- lib_case -->
<g id="node17" class="node">
<title>lib_case</title>
<path fill="none" stroke="black" d="M521,-139C521,-139 429,-139 429,-139 423,-139 417,-133 417,-127 417,-127 417,-115 417,-115 417,-109 423,-103 429,-103 429,-103 521,-103 521,-103 527,-103 533,-109 533,-115 533,-115 533,-127 533,-127 533,-133 527,-139 521,-139"/>
<text text-anchor="middle" x="475" y="-117.3" font-family="Helvetica,sans-Serif" font-size="14.00">处理库函数调用</text>
</g>
<!-- check_info_type&#45;&gt;lib_case -->
<g id="edge19" class="edge">
<title>check_info_type&#45;&gt;lib_case</title>
<path fill="none" stroke="black" d="M475,-189.8C475,-178.16 475,-162.55 475,-149.24"/>
<polygon fill="black" stroke="black" points="478.5,-149.18 475,-139.18 471.5,-149.18 478.5,-149.18"/>
<text text-anchor="middle" x="486" y="-160.8" font-family="Helvetica,sans-Serif" font-size="14.00">.lib</text>
</g>
<!-- elf_case -->
<g id="node18" class="node">
<title>elf_case</title>
<path fill="none" stroke="black" d="M507,-52C507,-52 433,-52 433,-52 427,-52 421,-46 421,-40 421,-40 421,-28 421,-28 421,-22 427,-16 433,-16 433,-16 507,-16 507,-16 513,-16 519,-22 519,-28 519,-28 519,-40 519,-40 519,-46 513,-52 507,-52"/>
<text text-anchor="middle" x="470" y="-30.3" font-family="Helvetica,sans-Serif" font-size="14.00">ELF格式处理</text>
</g>
<!-- air_case&#45;&gt;elf_case -->
<g id="edge20" class="edge">
<title>air_case&#45;&gt;elf_case</title>
<path fill="none" stroke="black" d="M365.59,-102.85C375.05,-97.27 385.53,-90.96 395,-85 408.67,-76.4 423.5,-66.61 436.34,-57.98"/>
<polygon fill="black" stroke="black" points="438.54,-60.72 444.87,-52.23 434.63,-54.92 438.54,-60.72"/>
<text text-anchor="middle" x="429.5" y="-73.8" font-family="Helvetica,sans-Serif" font-size="14.00">ELF</text>
</g>
<!-- coff_case -->
<g id="node19" class="node">
<title>coff_case</title>
<path fill="none" stroke="black" d="M245.5,-52C245.5,-52 158.5,-52 158.5,-52 152.5,-52 146.5,-46 146.5,-40 146.5,-40 146.5,-28 146.5,-28 146.5,-22 152.5,-16 158.5,-16 158.5,-16 245.5,-16 245.5,-16 251.5,-16 257.5,-22 257.5,-28 257.5,-28 257.5,-40 257.5,-40 257.5,-46 251.5,-52 245.5,-52"/>
<text text-anchor="middle" x="202" y="-30.3" font-family="Helvetica,sans-Serif" font-size="14.00">COFF格式处理</text>
</g>
<!-- air_case&#45;&gt;coff_case -->
<g id="edge21" class="edge">
<title>air_case&#45;&gt;coff_case</title>
<path fill="none" stroke="black" d="M308.88,-102.8C288.36,-89.78 259.98,-71.78 237.63,-57.6"/>
<polygon fill="black" stroke="black" points="239.4,-54.58 229.08,-52.18 235.65,-60.49 239.4,-54.58"/>
<text text-anchor="middle" x="296" y="-73.8" font-family="Helvetica,sans-Serif" font-size="14.00">COFF</text>
</g>
<!-- macho_case -->
<g id="node20" class="node">
<title>macho_case</title>
<path fill="none" stroke="black" d="M390.5,-52C390.5,-52 287.5,-52 287.5,-52 281.5,-52 275.5,-46 275.5,-40 275.5,-40 275.5,-28 275.5,-28 275.5,-22 281.5,-16 287.5,-16 287.5,-16 390.5,-16 390.5,-16 396.5,-16 402.5,-22 402.5,-28 402.5,-28 402.5,-40 402.5,-40 402.5,-46 396.5,-52 390.5,-52"/>
<text text-anchor="middle" x="339" y="-30.3" font-family="Helvetica,sans-Serif" font-size="14.00">Mach&#45;O格式处理</text>
</g>
<!-- air_case&#45;&gt;macho_case -->
<g id="edge22" class="edge">
<title>air_case&#45;&gt;macho_case</title>
<path fill="none" stroke="black" d="M336.61,-102.8C337.02,-91.16 337.57,-75.55 338.04,-62.24"/>
<polygon fill="black" stroke="black" points="341.54,-62.29 338.39,-52.18 334.54,-62.05 341.54,-62.29"/>
<text text-anchor="middle" x="364" y="-73.8" font-family="Helvetica,sans-Serif" font-size="14.00">Mach&#45;O</text>
</g>
<!-- plan9_case -->
<g id="node21" class="node">
<title>plan9_case</title>
<path fill="none" stroke="black" d="M116,-52C116,-52 28,-52 28,-52 22,-52 16,-46 16,-40 16,-40 16,-28 16,-28 16,-22 22,-16 28,-16 28,-16 116,-16 116,-16 122,-16 128,-22 128,-28 128,-28 128,-40 128,-40 128,-46 122,-52 116,-52"/>
<text text-anchor="middle" x="72" y="-30.3" font-family="Helvetica,sans-Serif" font-size="14.00">Plan9格式处理</text>
</g>
<!-- air_case&#45;&gt;plan9_case -->
<g id="edge23" class="edge">
<title>air_case&#45;&gt;plan9_case</title>
<path fill="none" stroke="black" d="M276.21,-103C257.23,-97.44 236.18,-91.12 217,-85 187.97,-75.73 155.92,-64.76 129.34,-55.45"/>
<polygon fill="black" stroke="black" points="130.41,-52.12 119.82,-52.11 128.09,-58.72 130.41,-52.12"/>
<text text-anchor="middle" x="236.5" y="-73.8" font-family="Helvetica,sans-Serif" font-size="14.00">Plan9</text>
</g>
<!-- lib_case&#45;&gt;elf_case -->
<g id="edge24" class="edge">
<title>lib_case&#45;&gt;elf_case</title>
<path fill="none" stroke="black" d="M473.99,-102.8C473.3,-91.16 472.39,-75.55 471.6,-62.24"/>
<polygon fill="black" stroke="black" points="475.09,-61.95 471.01,-52.18 468.1,-62.36 475.09,-61.95"/>
</g>
<!-- lib_case&#45;&gt;macho_case -->
<g id="edge25" class="edge">
<title>lib_case&#45;&gt;macho_case</title>
<path fill="none" stroke="black" d="M468.64,-102.52C463.91,-91.76 456.45,-78.46 446,-70 439.93,-65.08 427.2,-59.82 412.58,-54.91"/>
<polygon fill="black" stroke="black" points="413.34,-51.48 402.74,-51.74 411.19,-58.14 413.34,-51.48"/>
</g>
<!-- extern_case -->
<g id="node22" class="node">
<title>extern_case</title>
<path fill="none" stroke="black" d="M627,-52C627,-52 549,-52 549,-52 543,-52 537,-46 537,-40 537,-40 537,-28 537,-28 537,-22 543,-16 549,-16 549,-16 627,-16 627,-16 633,-16 639,-22 639,-28 639,-28 639,-40 639,-40 639,-46 633,-52 627,-52"/>
<text text-anchor="middle" x="588" y="-30.3" font-family="Helvetica,sans-Serif" font-size="14.00">外部符号处理</text>
</g>
<!-- lib_case&#45;&gt;extern_case -->
<g id="edge26" class="edge">
<title>lib_case&#45;&gt;extern_case</title>
<path fill="none" stroke="black" d="M497.87,-102.8C514.87,-90.01 538.26,-72.42 556.95,-58.36"/>
<polygon fill="black" stroke="black" points="559.28,-60.98 565.17,-52.18 555.07,-55.39 559.28,-60.98"/>
</g>
</g>
</svg>
