<?xml version="1.0" encoding="UTF-8" standalone="no"?>
<!DOCTYPE svg PUBLIC "-//W3C//DTD SVG 1.1//EN"
 "http://www.w3.org/Graphics/SVG/1.1/DTD/svg11.dtd">
<!-- Generated by graphviz version 2.43.0 (0)
 -->
<!-- Title: flowchart Pages: 1 -->
<svg width="623pt" height="982pt"
 viewBox="0.00 0.00 623.00 982.00" xmlns="http://www.w3.org/2000/svg" xmlns:xlink="http://www.w3.org/1999/xlink">
<g id="graph0" class="graph" transform="scale(1 1) rotate(0) translate(4 978)">
<title>flowchart</title>
<polygon fill="white" stroke="transparent" points="-4,4 -4,-978 619,-978 619,4 -4,4"/>
<!-- start -->
<g id="node1" class="node">
<title>start</title>
<ellipse fill="none" stroke="black" cx="409.5" cy="-956" rx="137.32" ry="18"/>
<text text-anchor="middle" x="409.5" y="-953.5" font-family="Courier,monospace" font-size="10.00">Start resolveCallingConventionValues</text>
</g>
<!-- alloc_param_types -->
<g id="node2" class="node">
<title>alloc_param_types</title>
<polygon fill="none" stroke="black" points="496,-901 323,-901 323,-865 496,-865 496,-901"/>
<text text-anchor="middle" x="409.5" y="-880.5" font-family="Courier,monospace" font-size="10.00">Allocate param_types array</text>
</g>
<!-- start&#45;&gt;alloc_param_types -->
<g id="edge1" class="edge">
<title>start&#45;&gt;alloc_param_types</title>
<path fill="none" stroke="black" d="M409.5,-937.81C409.5,-929.79 409.5,-920.05 409.5,-911.07"/>
<polygon fill="black" stroke="black" points="413,-911.03 409.5,-901.03 406,-911.03 413,-911.03"/>
</g>
<!-- fill_params -->
<g id="node3" class="node">
<title>fill_params</title>
<polygon fill="none" stroke="black" points="559,-828 260,-828 260,-792 559,-792 559,-828"/>
<text text-anchor="middle" x="409.5" y="-807.5" font-family="Courier,monospace" font-size="10.00">Fill fixed params and var_args into param_types</text>
</g>
<!-- alloc_param_types&#45;&gt;fill_params -->
<g id="edge2" class="edge">
<title>alloc_param_types&#45;&gt;fill_params</title>
<path fill="none" stroke="black" d="M409.5,-864.81C409.5,-856.79 409.5,-847.05 409.5,-838.07"/>
<polygon fill="black" stroke="black" points="413,-838.03 409.5,-828.03 406,-838.03 413,-838.03"/>
</g>
<!-- init_result -->
<g id="node4" class="node">
<title>init_result</title>
<polygon fill="none" stroke="black" points="490,-755 329,-755 329,-719 490,-719 490,-755"/>
<text text-anchor="middle" x="409.5" y="-734.5" font-family="Courier,monospace" font-size="10.00">Initialize result struct</text>
</g>
<!-- fill_params&#45;&gt;init_result -->
<g id="edge3" class="edge">
<title>fill_params&#45;&gt;init_result</title>
<path fill="none" stroke="black" d="M409.5,-791.81C409.5,-783.79 409.5,-774.05 409.5,-765.07"/>
<polygon fill="black" stroke="black" points="413,-765.03 409.5,-755.03 406,-765.03 413,-765.03"/>
</g>
<!-- check_cc -->
<g id="node5" class="node">
<title>check_cc</title>
<polygon fill="none" stroke="black" points="409.5,-682 340.31,-664 409.5,-646 478.69,-664 409.5,-682"/>
<text text-anchor="middle" x="409.5" y="-661.5" font-family="Courier,monospace" font-size="10.00">Switch (cc)</text>
</g>
<!-- init_result&#45;&gt;check_cc -->
<g id="edge4" class="edge">
<title>init_result&#45;&gt;check_cc</title>
<path fill="none" stroke="black" d="M409.5,-718.81C409.5,-710.79 409.5,-701.05 409.5,-692.07"/>
<polygon fill="black" stroke="black" points="413,-692.03 409.5,-682.03 406,-692.03 413,-692.03"/>
</g>
<!-- case_naked -->
<g id="node6" class="node">
<title>case_naked</title>
<polygon fill="none" stroke="black" points="451,-599 368,-599 368,-563 451,-563 451,-599"/>
<text text-anchor="middle" x="409.5" y="-578.5" font-family="Courier,monospace" font-size="10.00">Case .naked</text>
</g>
<!-- check_cc&#45;&gt;case_naked -->
<g id="edge5" class="edge">
<title>check_cc&#45;&gt;case_naked</title>
<path fill="none" stroke="black" d="M409.5,-645.82C409.5,-635.19 409.5,-621.31 409.5,-609.2"/>
<polygon fill="black" stroke="black" points="413,-609.15 409.5,-599.15 406,-609.15 413,-609.15"/>
<text text-anchor="middle" x="428" y="-620" font-family="Courier,monospace" font-size="10.00">.naked</text>
</g>
<!-- case_riscv64 -->
<g id="node8" class="node">
<title>case_riscv64</title>
<polygon fill="none" stroke="black" points="350,-599 177,-599 177,-563 350,-563 350,-599"/>
<text text-anchor="middle" x="263.5" y="-578.5" font-family="Courier,monospace" font-size="10.00">Case .riscv64_lp64 / .auto</text>
</g>
<!-- check_cc&#45;&gt;case_riscv64 -->
<g id="edge8" class="edge">
<title>check_cc&#45;&gt;case_riscv64</title>
<path fill="none" stroke="black" d="M364,-657.79C340.12,-653.16 311.55,-644.44 290.5,-628 283.83,-622.79 278.48,-615.44 274.36,-608.13"/>
<polygon fill="black" stroke="black" points="277.42,-606.43 269.79,-599.08 271.17,-609.58 277.42,-606.43"/>
<text text-anchor="middle" x="348" y="-620" font-family="Courier,monospace" font-size="10.00">.riscv64_lp64/.auto</text>
</g>
<!-- error_cc -->
<g id="node16" class="node">
<title>error_cc</title>
<polygon fill="none" stroke="black" points="615,-545 430,-545 430,-509 615,-509 615,-545"/>
<text text-anchor="middle" x="522.5" y="-524.5" font-family="Courier,monospace" font-size="10.00">Return error: unsupported cc</text>
</g>
<!-- check_cc&#45;&gt;error_cc -->
<g id="edge19" class="edge">
<title>check_cc&#45;&gt;error_cc</title>
<path fill="none" stroke="black" d="M426.28,-650.21C434.04,-643.92 443.15,-635.99 450.5,-628 471.96,-604.69 492.68,-574.89 506.34,-553.9"/>
<polygon fill="black" stroke="black" points="509.46,-555.52 511.92,-545.22 503.57,-551.74 509.46,-555.52"/>
<text text-anchor="middle" x="493" y="-620" font-family="Courier,monospace" font-size="10.00">Other cases</text>
</g>
<!-- set_naked -->
<g id="node7" class="node">
<title>set_naked</title>
<polygon fill="none" stroke="black" points="511,-437 302,-437 302,-401 511,-401 511,-437"/>
<text text-anchor="middle" x="406.5" y="-416.5" font-family="Courier,monospace" font-size="10.00">Set return_value and stack_align</text>
</g>
<!-- case_naked&#45;&gt;set_naked -->
<g id="edge6" class="edge">
<title>case_naked&#45;&gt;set_naked</title>
<path fill="none" stroke="black" d="M409.18,-562.88C408.66,-535.35 407.64,-481.01 407.02,-447.85"/>
<polygon fill="black" stroke="black" points="410.51,-447.42 406.83,-437.48 403.52,-447.55 410.51,-447.42"/>
</g>
<!-- calc_stack -->
<g id="node17" class="node">
<title>calc_stack</title>
<polygon fill="none" stroke="black" points="496,-119 323,-119 323,-83 496,-83 496,-119"/>
<text text-anchor="middle" x="409.5" y="-98.5" font-family="Courier,monospace" font-size="10.00">Calculate stack_byte_count</text>
</g>
<!-- set_naked&#45;&gt;calc_stack -->
<g id="edge7" class="edge">
<title>set_naked&#45;&gt;calc_stack</title>
<path fill="none" stroke="black" d="M406.76,-400.74C407.06,-379.76 407.5,-343.29 407.5,-312 407.5,-312 407.5,-312 407.5,-183 407.5,-165.06 408,-144.88 408.49,-129.16"/>
<polygon fill="black" stroke="black" points="412,-129.18 408.83,-119.06 405,-128.94 412,-129.18"/>
</g>
<!-- check_arg_count -->
<g id="node9" class="node">
<title>check_arg_count</title>
<polygon fill="none" stroke="black" points="262.5,-491 143.41,-473 262.5,-455 381.59,-473 262.5,-491"/>
<text text-anchor="middle" x="262.5" y="-470.5" font-family="Courier,monospace" font-size="10.00">Check if args.len &gt; 8</text>
</g>
<!-- case_riscv64&#45;&gt;check_arg_count -->
<g id="edge9" class="edge">
<title>case_riscv64&#45;&gt;check_arg_count</title>
<path fill="none" stroke="black" d="M263.34,-562.97C263.18,-546.28 262.94,-520.58 262.76,-501.08"/>
<polygon fill="black" stroke="black" points="266.25,-500.95 262.66,-490.99 259.25,-501.02 266.25,-500.95"/>
</g>
<!-- error_arg_count -->
<g id="node10" class="node">
<title>error_arg_count</title>
<polygon fill="none" stroke="black" points="376,-329 197,-329 197,-293 376,-293 376,-329"/>
<text text-anchor="middle" x="286.5" y="-308.5" font-family="Courier,monospace" font-size="10.00">Return error: too many args</text>
</g>
<!-- check_arg_count&#45;&gt;error_arg_count -->
<g id="edge10" class="edge">
<title>check_arg_count&#45;&gt;error_arg_count</title>
<path fill="none" stroke="black" d="M265.02,-455.18C269.17,-427.52 277.47,-372.21 282.45,-339.01"/>
<polygon fill="black" stroke="black" points="285.92,-339.49 283.94,-329.08 278.99,-338.45 285.92,-339.49"/>
<text text-anchor="middle" x="283" y="-416.5" font-family="Courier,monospace" font-size="10.00">Yes</text>
</g>
<!-- handle_return -->
<g id="node11" class="node">
<title>handle_return</title>
<polygon fill="none" stroke="black" points="245,-383 114,-383 114,-347 245,-347 245,-383"/>
<text text-anchor="middle" x="179.5" y="-362.5" font-family="Courier,monospace" font-size="10.00">Handle return value</text>
</g>
<!-- check_arg_count&#45;&gt;handle_return -->
<g id="edge11" class="edge">
<title>check_arg_count&#45;&gt;handle_return</title>
<path fill="none" stroke="black" d="M250.25,-456.36C236.78,-439.15 214.93,-411.25 199.07,-391"/>
<polygon fill="black" stroke="black" points="201.82,-388.83 192.9,-383.11 196.31,-393.14 201.82,-388.83"/>
<text text-anchor="middle" x="240" y="-416.5" font-family="Courier,monospace" font-size="10.00">No</text>
</g>
<!-- return_result -->
<g id="node18" class="node">
<title>return_result</title>
<ellipse fill="none" stroke="black" cx="409.5" cy="-18" rx="55.85" ry="18"/>
<text text-anchor="middle" x="409.5" y="-15.5" font-family="Courier,monospace" font-size="10.00">Return result</text>
</g>
<!-- error_arg_count&#45;&gt;return_result -->
<g id="edge12" class="edge">
<title>error_arg_count&#45;&gt;return_result</title>
<path fill="none" stroke="black" d="M288.94,-292.98C291.3,-275.1 294.5,-246.13 294.5,-221 294.5,-221 294.5,-221 294.5,-100 294.5,-66.47 327.58,-45.61 358.25,-33.47"/>
<polygon fill="black" stroke="black" points="359.5,-36.74 367.66,-29.98 357.06,-30.18 359.5,-36.74"/>
<text text-anchor="middle" x="325" y="-181.5" font-family="Courier,monospace" font-size="10.00">Error path</text>
</g>
<!-- process_params -->
<g id="node12" class="node">
<title>process_params</title>
<polygon fill="none" stroke="black" points="255,-275 76,-275 76,-239 255,-239 255,-275"/>
<text text-anchor="middle" x="165.5" y="-254.5" font-family="Courier,monospace" font-size="10.00">Process each parameter type</text>
</g>
<!-- handle_return&#45;&gt;process_params -->
<g id="edge13" class="edge">
<title>handle_return&#45;&gt;process_params</title>
<path fill="none" stroke="black" d="M177.25,-346.97C175.06,-330.38 171.69,-304.88 169.12,-285.43"/>
<polygon fill="black" stroke="black" points="172.57,-284.8 167.79,-275.34 165.63,-285.71 172.57,-284.8"/>
</g>
<!-- param_loop -->
<g id="node13" class="node">
<title>param_loop</title>
<polygon fill="none" stroke="black" points="258,-202 67,-202 67,-166 258,-166 258,-202"/>
<text text-anchor="middle" x="162.5" y="-181.5" font-family="Courier,monospace" font-size="10.00">For each param in param_types</text>
</g>
<!-- process_params&#45;&gt;param_loop -->
<g id="edge14" class="edge">
<title>process_params&#45;&gt;param_loop</title>
<path fill="none" stroke="black" d="M164.77,-238.81C164.43,-230.79 164.02,-221.05 163.64,-212.07"/>
<polygon fill="black" stroke="black" points="167.14,-211.87 163.22,-202.03 160.14,-212.17 167.14,-211.87"/>
</g>
<!-- handle_arg -->
<g id="node14" class="node">
<title>handle_arg</title>
<polygon fill="none" stroke="black" points="227,-119 0,-119 0,-83 227,-83 227,-119"/>
<text text-anchor="middle" x="113.5" y="-98.5" font-family="Courier,monospace" font-size="10.00">Classify and assign register/memory</text>
</g>
<!-- param_loop&#45;&gt;handle_arg -->
<g id="edge15" class="edge">
<title>param_loop&#45;&gt;handle_arg</title>
<path fill="none" stroke="black" d="M80.74,-166C72.86,-161.36 65.83,-155.47 60.5,-148 54.66,-139.82 58.09,-132.13 65.42,-125.48"/>
<polygon fill="black" stroke="black" points="67.93,-127.97 73.85,-119.18 63.74,-122.36 67.93,-127.97"/>
<text text-anchor="middle" x="103" y="-140" font-family="Courier,monospace" font-size="10.00">For each param</text>
</g>
<!-- param_loop&#45;&gt;calc_stack -->
<g id="edge18" class="edge">
<title>param_loop&#45;&gt;calc_stack</title>
<path fill="none" stroke="black" d="M214.58,-165.92C253.5,-153.16 306.83,-135.67 347.87,-122.21"/>
<polygon fill="black" stroke="black" points="349.08,-125.5 357.49,-119.06 346.9,-118.85 349.08,-125.5"/>
<text text-anchor="middle" x="314" y="-140" font-family="Courier,monospace" font-size="10.00">Done</text>
</g>
<!-- handle_arg&#45;&gt;param_loop -->
<g id="edge17" class="edge">
<title>handle_arg&#45;&gt;param_loop</title>
<path fill="none" stroke="black" d="M131.55,-119.08C136.54,-124.47 141.64,-130.67 145.5,-137 149.05,-142.82 152.04,-149.5 154.47,-155.93"/>
<polygon fill="black" stroke="black" points="151.27,-157.37 157.85,-165.67 157.88,-155.08 151.27,-157.37"/>
<text text-anchor="middle" x="176" y="-140" font-family="Courier,monospace" font-size="10.00">Continue</text>
</g>
<!-- error_arg_class -->
<g id="node15" class="node">
<title>error_arg_class</title>
<polygon fill="none" stroke="black" points="215,-36 12,-36 12,0 215,0 215,-36"/>
<text text-anchor="middle" x="113.5" y="-15.5" font-family="Courier,monospace" font-size="10.00">Return error: unknown arg class</text>
</g>
<!-- handle_arg&#45;&gt;error_arg_class -->
<g id="edge16" class="edge">
<title>handle_arg&#45;&gt;error_arg_class</title>
<path fill="none" stroke="black" d="M113.5,-82.82C113.5,-72.19 113.5,-58.31 113.5,-46.2"/>
<polygon fill="black" stroke="black" points="117,-46.15 113.5,-36.15 110,-46.15 117,-46.15"/>
<text text-anchor="middle" x="153" y="-57" font-family="Courier,monospace" font-size="10.00">Unknown class</text>
</g>
<!-- error_cc&#45;&gt;return_result -->
<g id="edge20" class="edge">
<title>error_cc&#45;&gt;return_result</title>
<path fill="none" stroke="black" d="M523.55,-508.75C524.74,-487.78 526.5,-451.31 526.5,-420 526.5,-420 526.5,-420 526.5,-100 526.5,-66.08 492.85,-45.25 461.64,-33.22"/>
<polygon fill="black" stroke="black" points="462.66,-29.87 452.07,-29.76 460.29,-36.45 462.66,-29.87"/>
<text text-anchor="middle" x="557" y="-254.5" font-family="Courier,monospace" font-size="10.00">Error path</text>
</g>
<!-- calc_stack&#45;&gt;return_result -->
<g id="edge21" class="edge">
<title>calc_stack&#45;&gt;return_result</title>
<path fill="none" stroke="black" d="M409.5,-82.82C409.5,-72.19 409.5,-58.31 409.5,-46.2"/>
<polygon fill="black" stroke="black" points="413,-46.15 409.5,-36.15 406,-46.15 413,-46.15"/>
</g>
</g>
</svg>
