<?xml version="1.0" encoding="UTF-8" standalone="no"?>
<!DOCTYPE svg PUBLIC "-//W3C//DTD SVG 1.1//EN"
 "http://www.w3.org/Graphics/SVG/1.1/DTD/svg11.dtd">
<!-- Generated by graphviz version 2.43.0 (0)
 -->
<!-- Title: flowchart Pages: 1 -->
<svg width="463pt" height="1439pt"
 viewBox="0.00 0.00 462.50 1439.00" xmlns="http://www.w3.org/2000/svg" xmlns:xlink="http://www.w3.org/1999/xlink">
<g id="graph0" class="graph" transform="scale(1 1) rotate(0) translate(4 1435)">
<title>flowchart</title>
<polygon fill="white" stroke="transparent" points="-4,4 -4,-1435 458.5,-1435 458.5,4 -4,4"/>
<!-- start -->
<g id="node1" class="node">
<title>start</title>
<polygon fill="none" stroke="black" points="413,-1431 287,-1431 287,-1395 413,-1395 413,-1431"/>
<text text-anchor="middle" x="350" y="-1409.3" font-family="Courier New" font-size="14.00">开始 airShlSat</text>
</g>
<!-- get_zcu_binop -->
<g id="node2" class="node">
<title>get_zcu_binop</title>
<polygon fill="none" stroke="black" points="427.5,-1358 272.5,-1358 272.5,-1322 427.5,-1322 427.5,-1358"/>
<text text-anchor="middle" x="350" y="-1336.3" font-family="Courier New" font-size="14.00">获取 zcu 和 bin_op</text>
</g>
<!-- start&#45;&gt;get_zcu_binop -->
<g id="edge1" class="edge">
<title>start&#45;&gt;get_zcu_binop</title>
<path fill="none" stroke="black" d="M350,-1394.81C350,-1386.79 350,-1377.05 350,-1368.07"/>
<polygon fill="black" stroke="black" points="353.5,-1368.03 350,-1358.03 346.5,-1368.03 353.5,-1368.03"/>
</g>
<!-- get_types -->
<g id="node3" class="node">
<title>get_types</title>
<polygon fill="none" stroke="black" points="440,-1285 260,-1285 260,-1249 440,-1249 440,-1285"/>
<text text-anchor="middle" x="350" y="-1263.3" font-family="Courier New" font-size="14.00">获取 lhs_ty 和 rhs_ty</text>
</g>
<!-- get_zcu_binop&#45;&gt;get_types -->
<g id="edge2" class="edge">
<title>get_zcu_binop&#45;&gt;get_types</title>
<path fill="none" stroke="black" d="M350,-1321.81C350,-1313.79 350,-1304.05 350,-1295.07"/>
<polygon fill="black" stroke="black" points="353.5,-1295.03 350,-1285.03 346.5,-1295.03 353.5,-1295.03"/>
</g>
<!-- check_int_type -->
<g id="node4" class="node">
<title>check_int_type</title>
<polygon fill="none" stroke="black" points="454.5,-1212 245.5,-1212 245.5,-1176 454.5,-1176 454.5,-1212"/>
<text text-anchor="middle" x="350" y="-1190.3" font-family="Courier New" font-size="14.00">检查 lhs_ty 是否为整数类型</text>
</g>
<!-- get_types&#45;&gt;check_int_type -->
<g id="edge3" class="edge">
<title>get_types&#45;&gt;check_int_type</title>
<path fill="none" stroke="black" d="M350,-1248.81C350,-1240.79 350,-1231.05 350,-1222.07"/>
<polygon fill="black" stroke="black" points="353.5,-1222.03 350,-1212.03 346.5,-1222.03 353.5,-1222.03"/>
</g>
<!-- int_type -->
<g id="node5" class="node">
<title>int_type</title>
<polygon fill="none" stroke="black" points="351,-1125 249,-1125 249,-1089 351,-1089 351,-1125"/>
<text text-anchor="middle" x="300" y="-1103.3" font-family="Courier New" font-size="14.00">整数类型分支</text>
</g>
<!-- check_int_type&#45;&gt;int_type -->
<g id="edge4" class="edge">
<title>check_int_type&#45;&gt;int_type</title>
<path fill="none" stroke="black" d="M339.88,-1175.8C332.83,-1163.82 323.3,-1147.62 315.33,-1134.06"/>
<polygon fill="black" stroke="black" points="318.19,-1132.02 310.1,-1125.18 312.16,-1135.57 318.19,-1132.02"/>
<text text-anchor="middle" x="345" y="-1146.8" font-family="Courier New" font-size="14.00">.int</text>
</g>
<!-- other_types -->
<g id="node22" class="node">
<title>other_types</title>
<polygon fill="none" stroke="black" points="446,-1071 344,-1071 344,-1033 446,-1033 446,-1071"/>
<text text-anchor="middle" x="395" y="-1055.8" font-family="Courier New" font-size="14.00">其他类型分支</text>
<text text-anchor="middle" x="395" y="-1040.8" font-family="Courier New" font-size="14.00">返回错误</text>
</g>
<!-- check_int_type&#45;&gt;other_types -->
<g id="edge5" class="edge">
<title>check_int_type&#45;&gt;other_types</title>
<path fill="none" stroke="black" d="M358.53,-1175.78C361.12,-1170.19 363.85,-1163.9 366,-1158 375.34,-1132.34 383.37,-1102.23 388.59,-1080.85"/>
<polygon fill="black" stroke="black" points="392,-1081.65 390.93,-1071.11 385.19,-1080.02 392,-1081.65"/>
<text text-anchor="middle" x="385.5" y="-1146.8" font-family="Courier New" font-size="14.00">其他</text>
</g>
<!-- check_bits -->
<g id="node6" class="node">
<title>check_bits</title>
<polygon fill="none" stroke="black" points="373,-1015 101,-1015 101,-962 373,-962 373,-1015"/>
<text text-anchor="middle" x="237" y="-999.8" font-family="Courier New" font-size="14.00">检查位宽条件</text>
<text text-anchor="middle" x="237" y="-984.8" font-family="Courier New" font-size="14.00">(lhs_bits &lt;=32 &amp;&amp; rhs_bits &lt;=5)</text>
<text text-anchor="middle" x="237" y="-969.8" font-family="Courier New" font-size="14.00">|| ...</text>
</g>
<!-- int_type&#45;&gt;check_bits -->
<g id="edge7" class="edge">
<title>int_type&#45;&gt;check_bits</title>
<path fill="none" stroke="black" d="M290.7,-1088.81C281.58,-1071.94 267.4,-1045.72 255.9,-1024.45"/>
<polygon fill="black" stroke="black" points="258.83,-1022.52 251,-1015.39 252.68,-1025.85 258.83,-1022.52"/>
</g>
<!-- bits_fail -->
<g id="node7" class="node">
<title>bits_fail</title>
<polygon fill="none" stroke="black" points="198,-857 0,-857 0,-819 198,-819 198,-857"/>
<text text-anchor="middle" x="99" y="-841.8" font-family="Courier New" font-size="14.00">返回错误</text>
<text text-anchor="middle" x="99" y="-826.8" font-family="Courier New" font-size="14.00">TODO implement shl_sat</text>
</g>
<!-- check_bits&#45;&gt;bits_fail -->
<g id="edge8" class="edge">
<title>check_bits&#45;&gt;bits_fail</title>
<path fill="none" stroke="black" d="M183.77,-961.82C175.63,-956.58 167.71,-950.62 161,-944 138.32,-921.62 120.88,-889.27 110.35,-866.4"/>
<polygon fill="black" stroke="black" points="113.54,-864.95 106.27,-857.24 107.14,-867.79 113.54,-864.95"/>
<text text-anchor="middle" x="197" y="-932.8" font-family="Courier New" font-size="14.00">条件不满足</text>
</g>
<!-- spill_registers -->
<g id="node8" class="node">
<title>spill_registers</title>
<polygon fill="none" stroke="black" points="305.5,-911 168.5,-911 168.5,-875 305.5,-875 305.5,-911"/>
<text text-anchor="middle" x="237" y="-889.3" font-family="Courier New" font-size="14.00">溢出寄存器 (RCX)</text>
</g>
<!-- check_bits&#45;&gt;spill_registers -->
<g id="edge9" class="edge">
<title>check_bits&#45;&gt;spill_registers</title>
<path fill="none" stroke="black" d="M237,-961.95C237,-949.36 237,-934.17 237,-921.35"/>
<polygon fill="black" stroke="black" points="240.5,-921.24 237,-911.24 233.5,-921.24 240.5,-921.24"/>
<text text-anchor="middle" x="266" y="-932.8" font-family="Courier New" font-size="14.00">条件满足</text>
</g>
<!-- finish -->
<g id="node21" class="node">
<title>finish</title>
<polygon fill="none" stroke="black" points="292,-36 176,-36 176,0 292,0 292,-36"/>
<text text-anchor="middle" x="234" y="-14.3" font-family="Courier New" font-size="14.00">返回结果并结束</text>
</g>
<!-- bits_fail&#45;&gt;finish -->
<g id="edge10" class="edge">
<title>bits_fail&#45;&gt;finish</title>
<path fill="none" stroke="black" d="M91.14,-818.76C84.14,-800.84 75,-772.55 75,-747 75,-747 75,-747 75,-91 75,-48.55 122.61,-31 165.73,-23.81"/>
<polygon fill="black" stroke="black" points="166.33,-27.26 175.7,-22.31 165.29,-20.33 166.33,-27.26"/>
</g>
<!-- resolve_operands -->
<g id="node9" class="node">
<title>resolve_operands</title>
<polygon fill="none" stroke="black" points="328,-801 146,-801 146,-765 328,-765 328,-801"/>
<text text-anchor="middle" x="237" y="-779.3" font-family="Courier New" font-size="14.00">解析 lhs 和 rhs 操作数</text>
</g>
<!-- spill_registers&#45;&gt;resolve_operands -->
<g id="edge11" class="edge">
<title>spill_registers&#45;&gt;resolve_operands</title>
<path fill="none" stroke="black" d="M237,-874.65C237,-857.56 237,-831.22 237,-811.32"/>
<polygon fill="black" stroke="black" points="240.5,-811.31 237,-801.31 233.5,-811.31 240.5,-811.31"/>
</g>
<!-- gen_shift_left -->
<g id="node10" class="node">
<title>gen_shift_left</title>
<polygon fill="none" stroke="black" points="313,-728 161,-728 161,-692 313,-692 313,-728"/>
<text text-anchor="middle" x="237" y="-706.3" font-family="Courier New" font-size="14.00">生成左移操作 (SHL)</text>
</g>
<!-- resolve_operands&#45;&gt;gen_shift_left -->
<g id="edge12" class="edge">
<title>resolve_operands&#45;&gt;gen_shift_left</title>
<path fill="none" stroke="black" d="M237,-764.81C237,-756.79 237,-747.05 237,-738.07"/>
<polygon fill="black" stroke="black" points="240.5,-738.03 237,-728.03 233.5,-738.03 240.5,-738.03"/>
</g>
<!-- handle_dst_mcv -->
<g id="node11" class="node">
<title>handle_dst_mcv</title>
<polygon fill="none" stroke="black" points="325,-655 149,-655 149,-617 325,-617 325,-655"/>
<text text-anchor="middle" x="237" y="-639.8" font-family="Courier New" font-size="14.00">处理目标位置:</text>
<text text-anchor="middle" x="237" y="-624.8" font-family="Courier New" font-size="14.00">寄存器/寄存器对/帧加载</text>
</g>
<!-- gen_shift_left&#45;&gt;handle_dst_mcv -->
<g id="edge13" class="edge">
<title>gen_shift_left&#45;&gt;handle_dst_mcv</title>
<path fill="none" stroke="black" d="M237,-691.94C237,-683.99 237,-674.31 237,-665.31"/>
<polygon fill="black" stroke="black" points="240.5,-665.2 237,-655.2 233.5,-665.2 240.5,-665.2"/>
</g>
<!-- gen_shift_right -->
<g id="node12" class="node">
<title>gen_shift_right</title>
<polygon fill="none" stroke="black" points="313,-580 161,-580 161,-544 313,-544 313,-580"/>
<text text-anchor="middle" x="237" y="-558.3" font-family="Courier New" font-size="14.00">生成右移操作 (SHR)</text>
</g>
<!-- handle_dst_mcv&#45;&gt;gen_shift_right -->
<g id="edge14" class="edge">
<title>handle_dst_mcv&#45;&gt;gen_shift_right</title>
<path fill="none" stroke="black" d="M237,-616.83C237,-608.89 237,-599.41 237,-590.63"/>
<polygon fill="black" stroke="black" points="240.5,-590.42 237,-580.42 233.5,-590.42 240.5,-590.42"/>
</g>
<!-- check_overflow -->
<g id="node13" class="node">
<title>check_overflow</title>
<polygon fill="none" stroke="black" points="316.5,-507 157.5,-507 157.5,-469 316.5,-469 316.5,-507"/>
<text text-anchor="middle" x="237" y="-491.8" font-family="Courier New" font-size="14.00">比较原始值和移位后值</text>
<text text-anchor="middle" x="237" y="-476.8" font-family="Courier New" font-size="14.00">是否不等</text>
</g>
<!-- gen_shift_right&#45;&gt;check_overflow -->
<g id="edge15" class="edge">
<title>gen_shift_right&#45;&gt;check_overflow</title>
<path fill="none" stroke="black" d="M237,-543.94C237,-535.99 237,-526.31 237,-517.31"/>
<polygon fill="black" stroke="black" points="240.5,-517.2 237,-507.2 233.5,-517.2 240.5,-517.2"/>
</g>
<!-- handle_overflow -->
<g id="node14" class="node">
<title>handle_overflow</title>
<polygon fill="none" stroke="black" points="288,-418 186,-418 186,-382 288,-382 288,-418"/>
<text text-anchor="middle" x="237" y="-396.3" font-family="Courier New" font-size="14.00">溢出处理分支</text>
</g>
<!-- check_overflow&#45;&gt;handle_overflow -->
<g id="edge16" class="edge">
<title>check_overflow&#45;&gt;handle_overflow</title>
<path fill="none" stroke="black" d="M237,-468.76C237,-456.93 237,-441.32 237,-428.05"/>
<polygon fill="black" stroke="black" points="240.5,-428.04 237,-418.04 233.5,-428.04 240.5,-428.04"/>
<text text-anchor="middle" x="258.5" y="-439.8" font-family="Courier New" font-size="14.00">不相等</text>
</g>
<!-- no_overflow -->
<g id="node15" class="node">
<title>no_overflow</title>
<polygon fill="none" stroke="black" points="375.5,-364 316.5,-364 316.5,-328 375.5,-328 375.5,-364"/>
<text text-anchor="middle" x="346" y="-342.3" font-family="Courier New" font-size="14.00">无溢出</text>
</g>
<!-- check_overflow&#45;&gt;no_overflow -->
<g id="edge17" class="edge">
<title>check_overflow&#45;&gt;no_overflow</title>
<path fill="none" stroke="black" d="M264.37,-468.82C271.23,-463.54 278.26,-457.45 284,-451 305.06,-427.34 322.81,-395.5 333.85,-373.3"/>
<polygon fill="black" stroke="black" points="337.08,-374.67 338.3,-364.14 330.78,-371.61 337.08,-374.67"/>
<text text-anchor="middle" x="310.5" y="-439.8" font-family="Courier New" font-size="14.00">相等</text>
</g>
<!-- unsigned_case -->
<g id="node16" class="node">
<title>unsigned_case</title>
<polygon fill="none" stroke="black" points="221.5,-254 90.5,-254 90.5,-216 221.5,-216 221.5,-254"/>
<text text-anchor="middle" x="156" y="-238.8" font-family="Courier New" font-size="14.00">无符号类型:</text>
<text text-anchor="middle" x="156" y="-223.8" font-family="Courier New" font-size="14.00">设置最大值为边界</text>
</g>
<!-- handle_overflow&#45;&gt;unsigned_case -->
<g id="edge18" class="edge">
<title>handle_overflow&#45;&gt;unsigned_case</title>
<path fill="none" stroke="black" d="M207.37,-381.67C200.86,-376.68 194.56,-370.74 190,-364 169.52,-333.75 161.36,-291.73 158.12,-264.21"/>
<polygon fill="black" stroke="black" points="161.59,-263.67 157.08,-254.08 154.62,-264.39 161.59,-263.67"/>
<text text-anchor="middle" x="211.5" y="-342.3" font-family="Courier New" font-size="14.00">无符号</text>
</g>
<!-- signed_case -->
<g id="node17" class="node">
<title>signed_case</title>
<polygon fill="none" stroke="black" points="285,-310 189,-310 189,-272 285,-272 285,-310"/>
<text text-anchor="middle" x="237" y="-294.8" font-family="Courier New" font-size="14.00">有符号类型:</text>
<text text-anchor="middle" x="237" y="-279.8" font-family="Courier New" font-size="14.00">检查符号</text>
</g>
<!-- handle_overflow&#45;&gt;signed_case -->
<g id="edge19" class="edge">
<title>handle_overflow&#45;&gt;signed_case</title>
<path fill="none" stroke="black" d="M237,-381.81C237,-365.26 237,-339.94 237,-320.39"/>
<polygon fill="black" stroke="black" points="240.5,-320.22 237,-310.22 233.5,-320.22 240.5,-320.22"/>
<text text-anchor="middle" x="258.5" y="-342.3" font-family="Courier New" font-size="14.00">有符号</text>
</g>
<!-- no_overflow&#45;&gt;finish -->
<g id="edge26" class="edge">
<title>no_overflow&#45;&gt;finish</title>
<path fill="none" stroke="black" d="M350.38,-327.76C355.41,-306.38 363,-268.75 363,-236 363,-236 363,-236 363,-91 363,-59.27 332.88,-41.4 301.75,-31.39"/>
<polygon fill="black" stroke="black" points="302.67,-28.01 292.08,-28.53 300.68,-34.73 302.67,-28.01"/>
</g>
<!-- unsigned_case&#45;&gt;finish -->
<g id="edge20" class="edge">
<title>unsigned_case&#45;&gt;finish</title>
<path fill="none" stroke="black" d="M146.02,-215.59C130.38,-184.01 104.6,-118.52 132,-73 140.39,-59.07 153.71,-48.54 167.99,-40.66"/>
<polygon fill="black" stroke="black" points="169.65,-43.75 176.97,-36.09 166.47,-37.51 169.65,-43.75"/>
</g>
<!-- check_sign -->
<g id="node18" class="node">
<title>check_sign</title>
<polygon fill="none" stroke="black" points="293.5,-198 180.5,-198 180.5,-162 293.5,-162 293.5,-198"/>
<text text-anchor="middle" x="237" y="-176.3" font-family="Courier New" font-size="14.00">检查 lhs 符号</text>
</g>
<!-- signed_case&#45;&gt;check_sign -->
<g id="edge21" class="edge">
<title>signed_case&#45;&gt;check_sign</title>
<path fill="none" stroke="black" d="M237,-271.51C237,-254.19 237,-228.08 237,-208.35"/>
<polygon fill="black" stroke="black" points="240.5,-208.14 237,-198.14 233.5,-208.14 240.5,-208.14"/>
</g>
<!-- negative_case -->
<g id="node19" class="node">
<title>negative_case</title>
<polygon fill="none" stroke="black" points="229,-111 141,-111 141,-73 229,-73 229,-111"/>
<text text-anchor="middle" x="185" y="-95.8" font-family="Courier New" font-size="14.00">负数:</text>
<text text-anchor="middle" x="185" y="-80.8" font-family="Courier New" font-size="14.00">设置最小值</text>
</g>
<!-- check_sign&#45;&gt;negative_case -->
<g id="edge22" class="edge">
<title>check_sign&#45;&gt;negative_case</title>
<path fill="none" stroke="black" d="M226.48,-161.6C219.29,-149.71 209.63,-133.73 201.43,-120.18"/>
<polygon fill="black" stroke="black" points="204.22,-118.01 196.05,-111.27 198.22,-121.64 204.22,-118.01"/>
<text text-anchor="middle" x="224.5" y="-132.8" font-family="Courier New" font-size="14.00">&lt;0</text>
</g>
<!-- positive_case -->
<g id="node20" class="node">
<title>positive_case</title>
<polygon fill="none" stroke="black" points="335,-111 247,-111 247,-73 335,-73 335,-111"/>
<text text-anchor="middle" x="291" y="-95.8" font-family="Courier New" font-size="14.00">正数:</text>
<text text-anchor="middle" x="291" y="-80.8" font-family="Courier New" font-size="14.00">设置最大值</text>
</g>
<!-- check_sign&#45;&gt;positive_case -->
<g id="edge23" class="edge">
<title>check_sign&#45;&gt;positive_case</title>
<path fill="none" stroke="black" d="M247.93,-161.6C255.46,-149.6 265.62,-133.42 274.18,-119.79"/>
<polygon fill="black" stroke="black" points="277.18,-121.6 279.53,-111.27 271.25,-117.88 277.18,-121.6"/>
<text text-anchor="middle" x="280.5" y="-132.8" font-family="Courier New" font-size="14.00">&gt;=0</text>
</g>
<!-- negative_case&#45;&gt;finish -->
<g id="edge24" class="edge">
<title>negative_case&#45;&gt;finish</title>
<path fill="none" stroke="black" d="M197.36,-72.83C203.12,-64.37 210.08,-54.15 216.37,-44.9"/>
<polygon fill="black" stroke="black" points="219.41,-46.65 222.15,-36.42 213.63,-42.72 219.41,-46.65"/>
</g>
<!-- positive_case&#45;&gt;finish -->
<g id="edge25" class="edge">
<title>positive_case&#45;&gt;finish</title>
<path fill="none" stroke="black" d="M276.62,-72.83C269.78,-64.2 261.49,-53.73 254.05,-44.33"/>
<polygon fill="black" stroke="black" points="256.74,-42.09 247.79,-36.42 251.25,-46.43 256.74,-42.09"/>
</g>
<!-- other_types&#45;&gt;finish -->
<g id="edge6" class="edge">
<title>other_types&#45;&gt;finish</title>
<path fill="none" stroke="black" d="M396.55,-1032.93C398.32,-1010.55 401,-971.24 401,-937.5 401,-937.5 401,-937.5 401,-91 401,-45.7 348.55,-28.56 302.43,-22.25"/>
<polygon fill="black" stroke="black" points="302.76,-18.76 292.41,-21.03 301.91,-25.71 302.76,-18.76"/>
</g>
</g>
</svg>
