<?xml version="1.0" encoding="UTF-8" standalone="no"?>
<!DOCTYPE svg PUBLIC "-//W3C//DTD SVG 1.1//EN"
 "http://www.w3.org/Graphics/SVG/1.1/DTD/svg11.dtd">
<!-- Generated by graphviz version 2.43.0 (0)
 -->
<!-- Title: flowchart Pages: 1 -->
<svg width="1100pt" height="916pt"
 viewBox="0.00 0.00 1100.00 916.00" xmlns="http://www.w3.org/2000/svg" xmlns:xlink="http://www.w3.org/1999/xlink">
<g id="graph0" class="graph" transform="scale(1 1) rotate(0) translate(4 912)">
<title>flowchart</title>
<polygon fill="white" stroke="transparent" points="-4,4 -4,-912 1096,-912 1096,4 -4,4"/>
<g id="clust1" class="cluster">
<title>cluster_int</title>
<polygon fill="none" stroke="black" points="8,-81 8,-417 398,-417 398,-81 8,-81"/>
<text text-anchor="middle" x="203" y="-401.8" font-family="Times,serif" font-size="14.00">处理整数类型</text>
</g>
<g id="clust2" class="cluster">
<title>cluster_vector_int</title>
<polygon fill="none" stroke="black" points="586,-8 586,-525 854,-525 854,-8 586,-8"/>
<text text-anchor="middle" x="720" y="-509.8" font-family="Times,serif" font-size="14.00">处理vector&lt;int&gt;</text>
</g>
<!-- start -->
<g id="node1" class="node">
<title>start</title>
<path fill="none" stroke="black" d="M575,-908C575,-908 513,-908 513,-908 507,-908 501,-902 501,-896 501,-896 501,-884 501,-884 501,-878 507,-872 513,-872 513,-872 575,-872 575,-872 581,-872 587,-878 587,-884 587,-884 587,-896 587,-896 587,-902 581,-908 575,-908"/>
<text text-anchor="middle" x="544" y="-886.3" font-family="Arial" font-size="14.00">开始 airAbs</text>
</g>
<!-- get_pt_zcu -->
<g id="node2" class="node">
<title>get_pt_zcu</title>
<path fill="none" stroke="black" d="M598,-835C598,-835 490,-835 490,-835 484,-835 478,-829 478,-823 478,-823 478,-811 478,-811 478,-805 484,-799 490,-799 490,-799 598,-799 598,-799 604,-799 610,-805 610,-811 610,-811 610,-823 610,-823 610,-829 604,-835 598,-835"/>
<text text-anchor="middle" x="544" y="-813.3" font-family="Arial" font-size="14.00">获取pt/zcu/ty_op/ty</text>
</g>
<!-- start&#45;&gt;get_pt_zcu -->
<g id="edge1" class="edge">
<title>start&#45;&gt;get_pt_zcu</title>
<path fill="none" stroke="black" d="M544,-871.81C544,-863.79 544,-854.05 544,-845.07"/>
<polygon fill="black" stroke="black" points="547.5,-845.03 544,-835.03 540.5,-845.03 547.5,-845.03"/>
</g>
<!-- check_ty_tag -->
<g id="node3" class="node">
<title>check_ty_tag</title>
<path fill="none" stroke="black" d="M601,-762C601,-762 487,-762 487,-762 481,-762 475,-756 475,-750 475,-750 475,-738 475,-738 475,-732 481,-726 487,-726 487,-726 601,-726 601,-726 607,-726 613,-732 613,-738 613,-738 613,-750 613,-750 613,-756 607,-762 601,-762"/>
<text text-anchor="middle" x="544" y="-740.3" font-family="Arial" font-size="14.00">检查ty的zigTypeTag</text>
</g>
<!-- get_pt_zcu&#45;&gt;check_ty_tag -->
<g id="edge2" class="edge">
<title>get_pt_zcu&#45;&gt;check_ty_tag</title>
<path fill="none" stroke="black" d="M544,-798.81C544,-790.79 544,-781.05 544,-772.07"/>
<polygon fill="black" stroke="black" points="547.5,-772.03 544,-762.03 540.5,-772.03 547.5,-772.03"/>
</g>
<!-- branch_int -->
<g id="node4" class="node">
<title>branch_int</title>
<path fill="none" stroke="black" d="M291.5,-386C291.5,-386 238.5,-386 238.5,-386 232.5,-386 226.5,-380 226.5,-374 226.5,-374 226.5,-362 226.5,-362 226.5,-356 232.5,-350 238.5,-350 238.5,-350 291.5,-350 291.5,-350 297.5,-350 303.5,-356 303.5,-362 303.5,-362 303.5,-374 303.5,-374 303.5,-380 297.5,-386 291.5,-386"/>
<text text-anchor="middle" x="265" y="-364.3" font-family="Arial" font-size="14.00">类型为.int</text>
</g>
<!-- check_ty_tag&#45;&gt;branch_int -->
<g id="edge3" class="edge">
<title>check_ty_tag&#45;&gt;branch_int</title>
<path fill="none" stroke="black" d="M474.97,-730.3C409.81,-716.28 322,-691.22 322,-658 322,-658 322,-658 322,-475 322,-444.51 303.49,-414.35 287.56,-394.04"/>
<polygon fill="black" stroke="black" points="290.22,-391.76 281.18,-386.23 284.8,-396.19 290.22,-391.76"/>
<text text-anchor="middle" x="331.5" y="-580.3" font-family="Arial" font-size="14.00">.int</text>
</g>
<!-- branch_float -->
<g id="node5" class="node">
<title>branch_float</title>
<path fill="none" stroke="black" d="M497.5,-675C497.5,-675 432.5,-675 432.5,-675 426.5,-675 420.5,-669 420.5,-663 420.5,-663 420.5,-651 420.5,-651 420.5,-645 426.5,-639 432.5,-639 432.5,-639 497.5,-639 497.5,-639 503.5,-639 509.5,-645 509.5,-651 509.5,-651 509.5,-663 509.5,-663 509.5,-669 503.5,-675 497.5,-675"/>
<text text-anchor="middle" x="465" y="-653.3" font-family="Arial" font-size="14.00">类型为.float</text>
</g>
<!-- check_ty_tag&#45;&gt;branch_float -->
<g id="edge4" class="edge">
<title>check_ty_tag&#45;&gt;branch_float</title>
<path fill="none" stroke="black" d="M528.01,-725.8C516.45,-713.36 500.66,-696.36 487.77,-682.5"/>
<polygon fill="black" stroke="black" points="490.33,-680.12 480.96,-675.18 485.21,-684.88 490.33,-680.12"/>
<text text-anchor="middle" x="524" y="-696.8" font-family="Arial" font-size="14.00">.float</text>
</g>
<!-- branch_vector -->
<g id="node6" class="node">
<title>branch_vector</title>
<path fill="none" stroke="black" d="M625,-675C625,-675 549,-675 549,-675 543,-675 537,-669 537,-663 537,-663 537,-651 537,-651 537,-645 543,-639 549,-639 549,-639 625,-639 625,-639 631,-639 637,-645 637,-651 637,-651 637,-663 637,-663 637,-669 631,-675 625,-675"/>
<text text-anchor="middle" x="587" y="-653.3" font-family="Arial" font-size="14.00">类型为.vector</text>
</g>
<!-- check_ty_tag&#45;&gt;branch_vector -->
<g id="edge5" class="edge">
<title>check_ty_tag&#45;&gt;branch_vector</title>
<path fill="none" stroke="black" d="M552.7,-725.8C558.7,-713.93 566.8,-697.93 573.62,-684.45"/>
<polygon fill="black" stroke="black" points="576.92,-685.68 578.31,-675.18 570.67,-682.52 576.92,-685.68"/>
<text text-anchor="middle" x="588.5" y="-696.8" font-family="Arial" font-size="14.00">.vector</text>
</g>
<!-- error -->
<g id="node25" class="node">
<title>error</title>
<path fill="none" stroke="black" d="M977.5,-125C977.5,-125 888.5,-125 888.5,-125 882.5,-125 876.5,-119 876.5,-113 876.5,-113 876.5,-101 876.5,-101 876.5,-95 882.5,-89 888.5,-89 888.5,-89 977.5,-89 977.5,-89 983.5,-89 989.5,-95 989.5,-101 989.5,-101 989.5,-113 989.5,-113 989.5,-119 983.5,-125 977.5,-125"/>
<text text-anchor="middle" x="933" y="-103.3" font-family="Arial" font-size="14.00">fail: 未实现类型</text>
</g>
<!-- check_ty_tag&#45;&gt;error -->
<g id="edge29" class="edge">
<title>check_ty_tag&#45;&gt;error</title>
<path fill="none" stroke="black" d="M613.17,-738.07C748.23,-727.52 1034,-700.2 1034,-658 1034,-658 1034,-658 1034,-193 1034,-164.63 1010.38,-143.82 985.99,-129.89"/>
<polygon fill="black" stroke="black" points="987.47,-126.72 977.01,-125.07 984.16,-132.89 987.47,-126.72"/>
<text text-anchor="middle" x="1063" y="-428.8" font-family="Arial" font-size="14.00">其他类型</text>
</g>
<!-- int_check_size -->
<g id="node12" class="node">
<title>int_check_size</title>
<path fill="none" stroke="black" d="M264.5,-299C264.5,-299 199.5,-299 199.5,-299 193.5,-299 187.5,-293 187.5,-287 187.5,-287 187.5,-275 187.5,-275 187.5,-269 193.5,-263 199.5,-263 199.5,-263 264.5,-263 264.5,-263 270.5,-263 276.5,-269 276.5,-275 276.5,-275 276.5,-287 276.5,-287 276.5,-293 270.5,-299 264.5,-299"/>
<text text-anchor="middle" x="232" y="-277.3" font-family="Arial" font-size="14.00">检查abiSize</text>
</g>
<!-- branch_int&#45;&gt;int_check_size -->
<g id="edge12" class="edge">
<title>branch_int&#45;&gt;int_check_size</title>
<path fill="none" stroke="black" d="M258.32,-349.8C253.76,-338.05 247.62,-322.24 242.42,-308.84"/>
<polygon fill="black" stroke="black" points="245.55,-307.23 238.67,-299.18 239.02,-309.76 245.55,-307.23"/>
</g>
<!-- handle_float -->
<g id="node7" class="node">
<title>handle_float</title>
<path fill="none" stroke="black" d="M502,-602C502,-602 392,-602 392,-602 386,-602 380,-596 380,-590 380,-590 380,-578 380,-578 380,-572 386,-566 392,-566 392,-566 502,-566 502,-566 508,-566 514,-572 514,-578 514,-578 514,-590 514,-590 514,-596 508,-602 502,-602"/>
<text text-anchor="middle" x="447" y="-580.3" font-family="Arial" font-size="14.00">调用floatSign(ABS)</text>
</g>
<!-- branch_float&#45;&gt;handle_float -->
<g id="edge6" class="edge">
<title>branch_float&#45;&gt;handle_float</title>
<path fill="none" stroke="black" d="M460.64,-638.81C458.59,-630.7 456.09,-620.84 453.79,-611.78"/>
<polygon fill="black" stroke="black" points="457.17,-610.86 451.32,-602.03 450.38,-612.58 457.17,-610.86"/>
</g>
<!-- handle_vector_child -->
<g id="node8" class="node">
<title>handle_vector_child</title>
<path fill="none" stroke="black" d="M672.5,-602C672.5,-602 571.5,-602 571.5,-602 565.5,-602 559.5,-596 559.5,-590 559.5,-590 559.5,-578 559.5,-578 559.5,-572 565.5,-566 571.5,-566 571.5,-566 672.5,-566 672.5,-566 678.5,-566 684.5,-572 684.5,-578 684.5,-578 684.5,-590 684.5,-590 684.5,-596 678.5,-602 672.5,-602"/>
<text text-anchor="middle" x="622" y="-580.3" font-family="Arial" font-size="14.00">检查vector子类型</text>
</g>
<!-- branch_vector&#45;&gt;handle_vector_child -->
<g id="edge8" class="edge">
<title>branch_vector&#45;&gt;handle_vector_child</title>
<path fill="none" stroke="black" d="M595.47,-638.81C599.56,-630.53 604.54,-620.41 609.09,-611.19"/>
<polygon fill="black" stroke="black" points="612.32,-612.55 613.61,-602.03 606.04,-609.45 612.32,-612.55"/>
</g>
<!-- finish -->
<g id="node11" class="node">
<title>finish</title>
<path fill="none" stroke="black" d="M703.5,-52C703.5,-52 606.5,-52 606.5,-52 600.5,-52 594.5,-46 594.5,-40 594.5,-40 594.5,-28 594.5,-28 594.5,-22 600.5,-16 606.5,-16 606.5,-16 703.5,-16 703.5,-16 709.5,-16 715.5,-22 715.5,-28 715.5,-28 715.5,-40 715.5,-40 715.5,-46 709.5,-52 703.5,-52"/>
<text text-anchor="middle" x="655" y="-30.3" font-family="Arial" font-size="14.00">返回result并结束</text>
</g>
<!-- handle_float&#45;&gt;finish -->
<g id="edge7" class="edge">
<title>handle_float&#45;&gt;finish</title>
<path fill="none" stroke="black" d="M438.69,-565.82C429.51,-545.22 416,-509.4 416,-477 416,-477 416,-477 416,-106 416,-70.57 513.73,-51.42 584.2,-42.22"/>
<polygon fill="black" stroke="black" points="584.9,-45.66 594.38,-40.93 584.02,-38.71 584.9,-45.66"/>
</g>
<!-- handle_vector_int -->
<g id="node9" class="node">
<title>handle_vector_int</title>
<path fill="none" stroke="black" d="M728.5,-494C728.5,-494 639.5,-494 639.5,-494 633.5,-494 627.5,-488 627.5,-482 627.5,-482 627.5,-470 627.5,-470 627.5,-464 633.5,-458 639.5,-458 639.5,-458 728.5,-458 728.5,-458 734.5,-458 740.5,-464 740.5,-470 740.5,-470 740.5,-482 740.5,-482 740.5,-488 734.5,-494 728.5,-494"/>
<text text-anchor="middle" x="684" y="-472.3" font-family="Arial" font-size="14.00">处理vector&lt;int&gt;</text>
</g>
<!-- handle_vector_child&#45;&gt;handle_vector_int -->
<g id="edge9" class="edge">
<title>handle_vector_child&#45;&gt;handle_vector_int</title>
<path fill="none" stroke="black" d="M631.96,-565.97C641.89,-548.99 657.27,-522.7 668.74,-503.09"/>
<polygon fill="black" stroke="black" points="671.83,-504.74 673.86,-494.34 665.79,-501.21 671.83,-504.74"/>
<text text-anchor="middle" x="689" y="-536.8" font-family="Arial" font-size="14.00">子类型为.int</text>
</g>
<!-- handle_vector_float -->
<g id="node10" class="node">
<title>handle_vector_float</title>
<path fill="none" stroke="black" d="M566,-125C566,-125 456,-125 456,-125 450,-125 444,-119 444,-113 444,-113 444,-101 444,-101 444,-95 450,-89 456,-89 456,-89 566,-89 566,-89 572,-89 578,-95 578,-101 578,-101 578,-113 578,-113 578,-119 572,-125 566,-125"/>
<text text-anchor="middle" x="511" y="-103.3" font-family="Arial" font-size="14.00">调用floatSign(ABS)</text>
</g>
<!-- handle_vector_child&#45;&gt;handle_vector_float -->
<g id="edge10" class="edge">
<title>handle_vector_child&#45;&gt;handle_vector_float</title>
<path fill="none" stroke="black" d="M572.85,-565.94C535.68,-549.54 491,-520.74 491,-477 491,-477 491,-477 491,-193 491,-173.16 496.22,-151.4 501.33,-134.86"/>
<polygon fill="black" stroke="black" points="504.68,-135.89 504.45,-125.3 498.02,-133.72 504.68,-135.89"/>
<text text-anchor="middle" x="534.5" y="-320.8" font-family="Arial" font-size="14.00">子类型为.float</text>
</g>
<!-- handle_vector_child&#45;&gt;error -->
<g id="edge30" class="edge">
<title>handle_vector_child&#45;&gt;error</title>
<path fill="none" stroke="black" d="M684.66,-575.52C779.1,-562.47 947,-531.6 947,-477 947,-477 947,-477 947,-193 947,-173.49 943.37,-151.8 939.8,-135.21"/>
<polygon fill="black" stroke="black" points="943.14,-134.1 937.51,-125.12 936.31,-135.65 943.14,-134.1"/>
<text text-anchor="middle" x="983" y="-320.8" font-family="Arial" font-size="14.00">其他子类型</text>
</g>
<!-- check_child_bits -->
<g id="node19" class="node">
<title>check_child_bits</title>
<path fill="none" stroke="black" d="M763,-386C763,-386 671,-386 671,-386 665,-386 659,-380 659,-374 659,-374 659,-362 659,-362 659,-356 665,-350 671,-350 671,-350 763,-350 763,-350 769,-350 775,-356 775,-362 775,-362 775,-374 775,-374 775,-380 769,-386 763,-386"/>
<text text-anchor="middle" x="717" y="-364.3" font-family="Arial" font-size="14.00">检查子元素位数</text>
</g>
<!-- handle_vector_int&#45;&gt;check_child_bits -->
<g id="edge19" class="edge">
<title>handle_vector_int&#45;&gt;check_child_bits</title>
<path fill="none" stroke="black" d="M689.3,-457.97C694.52,-441.22 702.55,-415.41 708.63,-395.89"/>
<polygon fill="black" stroke="black" points="711.97,-396.93 711.6,-386.34 705.29,-394.85 711.97,-396.93"/>
</g>
<!-- handle_vector_float&#45;&gt;finish -->
<g id="edge11" class="edge">
<title>handle_vector_float&#45;&gt;finish</title>
<path fill="none" stroke="black" d="M545.49,-88.99C565.21,-79.27 590.13,-66.99 611.21,-56.59"/>
<polygon fill="black" stroke="black" points="612.87,-59.68 620.29,-52.11 609.77,-53.4 612.87,-59.68"/>
</g>
<!-- size_1_8 -->
<g id="node13" class="node">
<title>size_1_8</title>
<path fill="none" stroke="black" d="M214.5,-212C214.5,-212 145.5,-212 145.5,-212 139.5,-212 133.5,-206 133.5,-200 133.5,-200 133.5,-188 133.5,-188 133.5,-182 139.5,-176 145.5,-176 145.5,-176 214.5,-176 214.5,-176 220.5,-176 226.5,-182 226.5,-188 226.5,-188 226.5,-200 226.5,-200 226.5,-206 220.5,-212 214.5,-212"/>
<text text-anchor="middle" x="180" y="-190.3" font-family="Arial" font-size="14.00">大小1&#45;8字节</text>
</g>
<!-- int_check_size&#45;&gt;size_1_8 -->
<g id="edge13" class="edge">
<title>int_check_size&#45;&gt;size_1_8</title>
<path fill="none" stroke="black" d="M221.48,-262.8C214.15,-250.82 204.24,-234.62 195.94,-221.06"/>
<polygon fill="black" stroke="black" points="198.71,-218.88 190.51,-212.18 192.74,-222.53 198.71,-218.88"/>
<text text-anchor="middle" x="219" y="-233.8" font-family="Arial" font-size="14.00">1&#45;8</text>
</g>
<!-- size_9_16 -->
<g id="node14" class="node">
<title>size_9_16</title>
<path fill="none" stroke="black" d="M337.5,-212C337.5,-212 260.5,-212 260.5,-212 254.5,-212 248.5,-206 248.5,-200 248.5,-200 248.5,-188 248.5,-188 248.5,-182 254.5,-176 260.5,-176 260.5,-176 337.5,-176 337.5,-176 343.5,-176 349.5,-182 349.5,-188 349.5,-188 349.5,-200 349.5,-200 349.5,-206 343.5,-212 337.5,-212"/>
<text text-anchor="middle" x="299" y="-190.3" font-family="Arial" font-size="14.00">大小9&#45;16字节</text>
</g>
<!-- int_check_size&#45;&gt;size_9_16 -->
<g id="edge14" class="edge">
<title>int_check_size&#45;&gt;size_9_16</title>
<path fill="none" stroke="black" d="M245.56,-262.8C255.18,-250.59 268.27,-233.99 279.08,-220.28"/>
<polygon fill="black" stroke="black" points="282.02,-222.2 285.46,-212.18 276.52,-217.86 282.02,-222.2"/>
<text text-anchor="middle" x="283" y="-233.8" font-family="Arial" font-size="14.00">9&#45;16</text>
</g>
<!-- size_large -->
<g id="node15" class="node">
<title>size_large</title>
<path fill="none" stroke="black" d="M95,-212C95,-212 45,-212 45,-212 39,-212 33,-206 33,-200 33,-200 33,-188 33,-188 33,-182 39,-176 45,-176 45,-176 95,-176 95,-176 101,-176 107,-182 107,-188 107,-188 107,-200 107,-200 107,-206 101,-212 95,-212"/>
<text text-anchor="middle" x="70" y="-190.3" font-family="Arial" font-size="14.00">更大尺寸</text>
</g>
<!-- int_check_size&#45;&gt;size_large -->
<g id="edge15" class="edge">
<title>int_check_size&#45;&gt;size_large</title>
<path fill="none" stroke="black" d="M199.22,-262.8C173.88,-249.51 138.65,-231.02 111.38,-216.71"/>
<polygon fill="black" stroke="black" points="112.94,-213.58 102.46,-212.03 109.69,-219.78 112.94,-213.58"/>
<text text-anchor="middle" x="172" y="-233.8" font-family="Arial" font-size="14.00">&gt;16</text>
</g>
<!-- gen_cmov -->
<g id="node16" class="node">
<title>gen_cmov</title>
<path fill="none" stroke="black" d="M223,-125C223,-125 167,-125 167,-125 161,-125 155,-119 155,-113 155,-113 155,-101 155,-101 155,-95 161,-89 167,-89 167,-89 223,-89 223,-89 229,-89 235,-95 235,-101 235,-101 235,-113 235,-113 235,-119 229,-125 223,-125"/>
<text text-anchor="middle" x="195" y="-103.3" font-family="Arial" font-size="14.00">gen_cmov</text>
</g>
<!-- size_1_8&#45;&gt;gen_cmov -->
<g id="edge16" class="edge">
<title>size_1_8&#45;&gt;gen_cmov</title>
<path fill="none" stroke="black" d="M155.74,-175.73C145.81,-166.44 137.92,-154.55 144,-143 146.17,-138.88 149.07,-135.15 152.38,-131.8"/>
<polygon fill="black" stroke="black" points="154.91,-134.24 160.19,-125.06 150.34,-128.94 154.91,-134.24"/>
<text text-anchor="middle" x="213" y="-146.8" font-family="Arial" font-size="14.00">生成NEG+CMOV指令</text>
</g>
<!-- gen_register_pair -->
<g id="node17" class="node">
<title>gen_register_pair</title>
<path fill="none" stroke="black" d="M364,-125C364,-125 266,-125 266,-125 260,-125 254,-119 254,-113 254,-113 254,-101 254,-101 254,-95 260,-89 266,-89 266,-89 364,-89 364,-89 370,-89 376,-95 376,-101 376,-101 376,-113 376,-113 376,-119 370,-125 364,-125"/>
<text text-anchor="middle" x="315" y="-103.3" font-family="Arial" font-size="14.00">gen_register_pair</text>
</g>
<!-- size_9_16&#45;&gt;gen_register_pair -->
<g id="edge17" class="edge">
<title>size_9_16&#45;&gt;gen_register_pair</title>
<path fill="none" stroke="black" d="M302.24,-175.8C304.43,-164.16 307.37,-148.55 309.87,-135.24"/>
<polygon fill="black" stroke="black" points="313.36,-135.65 311.77,-125.18 306.48,-134.36 313.36,-135.65"/>
<text text-anchor="middle" x="350" y="-146.8" font-family="Arial" font-size="14.00">处理寄存器对</text>
</g>
<!-- gen_limb_loop -->
<g id="node18" class="node">
<title>gen_limb_loop</title>
<path fill="none" stroke="black" d="M122.5,-125C122.5,-125 41.5,-125 41.5,-125 35.5,-125 29.5,-119 29.5,-113 29.5,-113 29.5,-101 29.5,-101 29.5,-95 35.5,-89 41.5,-89 41.5,-89 122.5,-89 122.5,-89 128.5,-89 134.5,-95 134.5,-101 134.5,-101 134.5,-113 134.5,-113 134.5,-119 128.5,-125 122.5,-125"/>
<text text-anchor="middle" x="82" y="-103.3" font-family="Arial" font-size="14.00">gen_limb_loop</text>
</g>
<!-- size_large&#45;&gt;gen_limb_loop -->
<g id="edge18" class="edge">
<title>size_large&#45;&gt;gen_limb_loop</title>
<path fill="none" stroke="black" d="M46.5,-175.74C36.88,-166.45 29.2,-154.55 35,-143 36.95,-139.11 39.56,-135.55 42.56,-132.31"/>
<polygon fill="black" stroke="black" points="45.14,-134.68 50.11,-125.33 40.39,-129.54 45.14,-134.68"/>
<text text-anchor="middle" x="78" y="-146.8" font-family="Arial" font-size="14.00">分块循环取反</text>
</g>
<!-- gen_cmov&#45;&gt;finish -->
<g id="edge26" class="edge">
<title>gen_cmov&#45;&gt;finish</title>
<path fill="none" stroke="black" d="M224.97,-88.89C231.41,-85.83 238.3,-82.98 245,-81 360.55,-46.81 501.29,-37.69 584.22,-35.46"/>
<polygon fill="black" stroke="black" points="584.37,-38.95 594.28,-35.21 584.2,-31.96 584.37,-38.95"/>
</g>
<!-- gen_register_pair&#45;&gt;finish -->
<g id="edge27" class="edge">
<title>gen_register_pair&#45;&gt;finish</title>
<path fill="none" stroke="black" d="M350.68,-88.82C366.14,-82.02 384.65,-74.71 402,-70 462.38,-53.62 533.06,-44.66 584.34,-39.92"/>
<polygon fill="black" stroke="black" points="584.68,-43.41 594.33,-39.03 584.05,-36.44 584.68,-43.41"/>
</g>
<!-- gen_limb_loop&#45;&gt;finish -->
<g id="edge28" class="edge">
<title>gen_limb_loop&#45;&gt;finish</title>
<path fill="none" stroke="black" d="M120.36,-89C128.68,-85.89 137.52,-83 146,-81 299.27,-44.91 484.65,-36.75 583.96,-35.14"/>
<polygon fill="black" stroke="black" points="584.23,-38.64 594.18,-34.99 584.13,-31.64 584.23,-38.64"/>
</g>
<!-- bits_8 -->
<g id="node20" class="node">
<title>bits_8</title>
<path fill="none" stroke="black" d="M649.5,-299C649.5,-299 606.5,-299 606.5,-299 600.5,-299 594.5,-293 594.5,-287 594.5,-287 594.5,-275 594.5,-275 594.5,-269 600.5,-263 606.5,-263 606.5,-263 649.5,-263 649.5,-263 655.5,-263 661.5,-269 661.5,-275 661.5,-275 661.5,-287 661.5,-287 661.5,-293 655.5,-299 649.5,-299"/>
<text text-anchor="middle" x="628" y="-277.3" font-family="Arial" font-size="14.00">8位向量</text>
</g>
<!-- check_child_bits&#45;&gt;bits_8 -->
<g id="edge20" class="edge">
<title>check_child_bits&#45;&gt;bits_8</title>
<path fill="none" stroke="black" d="M698.99,-349.8C685.84,-337.24 667.84,-320.05 653.26,-306.12"/>
<polygon fill="black" stroke="black" points="655.63,-303.55 645.98,-299.18 650.8,-308.61 655.63,-303.55"/>
<text text-anchor="middle" x="681" y="-320.8" font-family="Arial" font-size="14.00">8</text>
</g>
<!-- bits_16 -->
<g id="node21" class="node">
<title>bits_16</title>
<path fill="none" stroke="black" d="M742,-299C742,-299 692,-299 692,-299 686,-299 680,-293 680,-287 680,-287 680,-275 680,-275 680,-269 686,-263 692,-263 692,-263 742,-263 742,-263 748,-263 754,-269 754,-275 754,-275 754,-287 754,-287 754,-293 748,-299 742,-299"/>
<text text-anchor="middle" x="717" y="-277.3" font-family="Arial" font-size="14.00">16位向量</text>
</g>
<!-- check_child_bits&#45;&gt;bits_16 -->
<g id="edge21" class="edge">
<title>check_child_bits&#45;&gt;bits_16</title>
<path fill="none" stroke="black" d="M717,-349.8C717,-338.16 717,-322.55 717,-309.24"/>
<polygon fill="black" stroke="black" points="720.5,-309.18 717,-299.18 713.5,-309.18 720.5,-309.18"/>
<text text-anchor="middle" x="725" y="-320.8" font-family="Arial" font-size="14.00">16</text>
</g>
<!-- bits_32 -->
<g id="node22" class="node">
<title>bits_32</title>
<path fill="none" stroke="black" d="M834,-299C834,-299 784,-299 784,-299 778,-299 772,-293 772,-287 772,-287 772,-275 772,-275 772,-269 778,-263 784,-263 784,-263 834,-263 834,-263 840,-263 846,-269 846,-275 846,-275 846,-287 846,-287 846,-293 840,-299 834,-299"/>
<text text-anchor="middle" x="809" y="-277.3" font-family="Arial" font-size="14.00">32位向量</text>
</g>
<!-- check_child_bits&#45;&gt;bits_32 -->
<g id="edge22" class="edge">
<title>check_child_bits&#45;&gt;bits_32</title>
<path fill="none" stroke="black" d="M735.62,-349.8C749.21,-337.24 767.82,-320.05 782.89,-306.12"/>
<polygon fill="black" stroke="black" points="785.44,-308.53 790.41,-299.18 780.69,-303.39 785.44,-308.53"/>
<text text-anchor="middle" x="776" y="-320.8" font-family="Arial" font-size="14.00">32</text>
</g>
<!-- check_child_bits&#45;&gt;error -->
<g id="edge31" class="edge">
<title>check_child_bits&#45;&gt;error</title>
<path fill="none" stroke="black" d="M775.03,-350.61C802.8,-340.04 834.41,-323.56 855,-299 875.51,-274.53 863.66,-259.85 875,-230 887.86,-196.13 906.32,-158.71 918.94,-134.36"/>
<polygon fill="black" stroke="black" points="922.1,-135.87 923.63,-125.39 915.9,-132.63 922.1,-135.87"/>
<text text-anchor="middle" x="904" y="-233.8" font-family="Arial" font-size="14.00">其他位数</text>
</g>
<!-- check_avx_feature -->
<g id="node23" class="node">
<title>check_avx_feature</title>
<path fill="none" stroke="black" d="M729.5,-212C729.5,-212 606.5,-212 606.5,-212 600.5,-212 594.5,-206 594.5,-200 594.5,-200 594.5,-188 594.5,-188 594.5,-182 600.5,-176 606.5,-176 606.5,-176 729.5,-176 729.5,-176 735.5,-176 741.5,-182 741.5,-188 741.5,-188 741.5,-200 741.5,-200 741.5,-206 735.5,-212 729.5,-212"/>
<text text-anchor="middle" x="668" y="-190.3" font-family="Arial" font-size="14.00">检查AVX/SSSE3支持</text>
</g>
<!-- bits_8&#45;&gt;check_avx_feature -->
<g id="edge23" class="edge">
<title>bits_8&#45;&gt;check_avx_feature</title>
<path fill="none" stroke="black" d="M636.09,-262.8C641.68,-250.93 649.21,-234.93 655.55,-221.45"/>
<polygon fill="black" stroke="black" points="658.83,-222.71 659.92,-212.18 652.49,-219.73 658.83,-222.71"/>
</g>
<!-- gen_vector_abs -->
<g id="node24" class="node">
<title>gen_vector_abs</title>
<path fill="none" stroke="black" d="M713.5,-125C713.5,-125 608.5,-125 608.5,-125 602.5,-125 596.5,-119 596.5,-113 596.5,-113 596.5,-101 596.5,-101 596.5,-95 602.5,-89 608.5,-89 608.5,-89 713.5,-89 713.5,-89 719.5,-89 725.5,-95 725.5,-101 725.5,-101 725.5,-113 725.5,-113 725.5,-119 719.5,-125 713.5,-125"/>
<text text-anchor="middle" x="661" y="-103.3" font-family="Arial" font-size="14.00">生成向量ABS指令</text>
</g>
<!-- check_avx_feature&#45;&gt;gen_vector_abs -->
<g id="edge24" class="edge">
<title>check_avx_feature&#45;&gt;gen_vector_abs</title>
<path fill="none" stroke="black" d="M647.8,-175.93C643.01,-170.72 638.56,-164.6 636,-158 632.87,-149.94 634.95,-141.43 638.99,-133.76"/>
<polygon fill="black" stroke="black" points="642.01,-135.54 644.44,-125.22 636.11,-131.77 642.01,-135.54"/>
<text text-anchor="middle" x="693.5" y="-146.8" font-family="Arial" font-size="14.00">根据特性选择指令</text>
</g>
<!-- check_avx_feature&#45;&gt;error -->
<g id="edge32" class="edge">
<title>check_avx_feature&#45;&gt;error</title>
<path fill="none" stroke="black" d="M712.62,-175.91C725.24,-170.61 738.85,-164.46 751,-158 761.78,-152.27 762.73,-147.69 774,-143 809.25,-128.33 820.71,-133.22 858,-125 860.66,-124.41 863.37,-123.81 866.11,-123.2"/>
<polygon fill="black" stroke="black" points="867.1,-126.57 876.09,-120.97 865.57,-119.74 867.1,-126.57"/>
<text text-anchor="middle" x="817" y="-146.8" font-family="Arial" font-size="14.00">无支持指令集</text>
</g>
<!-- gen_vector_abs&#45;&gt;finish -->
<g id="edge25" class="edge">
<title>gen_vector_abs&#45;&gt;finish</title>
<path fill="none" stroke="black" d="M659.55,-88.81C658.87,-80.79 658.05,-71.05 657.29,-62.07"/>
<polygon fill="black" stroke="black" points="660.77,-61.7 656.44,-52.03 653.79,-62.29 660.77,-61.7"/>
</g>
</g>
</svg>
