<?xml version="1.0" encoding="UTF-8" standalone="no"?>
<!DOCTYPE svg PUBLIC "-//W3C//DTD SVG 1.1//EN"
 "http://www.w3.org/Graphics/SVG/1.1/DTD/svg11.dtd">
<!-- Generated by graphviz version 2.43.0 (0)
 -->
<!-- Title: moveStrategy Pages: 1 -->
<svg width="1050pt" height="1223pt"
 viewBox="0.00 0.00 1049.50 1223.00" xmlns="http://www.w3.org/2000/svg" xmlns:xlink="http://www.w3.org/1999/xlink">
<g id="graph0" class="graph" transform="scale(1 1) rotate(0) translate(4 1219)">
<title>moveStrategy</title>
<polygon fill="white" stroke="transparent" points="-4,4 -4,-1219 1045.5,-1219 1045.5,4 -4,4"/>
<!-- start -->
<g id="node1" class="node">
<title>start</title>
<path fill="none" stroke="black" d="M802.5,-1215C802.5,-1215 772.5,-1215 772.5,-1215 766.5,-1215 760.5,-1209 760.5,-1203 760.5,-1203 760.5,-1191 760.5,-1191 760.5,-1185 766.5,-1179 772.5,-1179 772.5,-1179 802.5,-1179 802.5,-1179 808.5,-1179 814.5,-1185 814.5,-1191 814.5,-1191 814.5,-1203 814.5,-1203 814.5,-1209 808.5,-1215 802.5,-1215"/>
<text text-anchor="middle" x="787.5" y="-1193.3" font-family="Times,serif" font-size="14.00">开始</text>
</g>
<!-- class_switch -->
<g id="node3" class="node">
<title>class_switch</title>
<path fill="none" stroke="black" d="M775.69,-1139.88C775.69,-1139.88 698.93,-1126.12 698.93,-1126.12 693.03,-1125.06 693.03,-1122.94 698.93,-1121.88 698.93,-1121.88 775.69,-1108.12 775.69,-1108.12 781.59,-1107.06 793.41,-1107.06 799.31,-1108.12 799.31,-1108.12 876.07,-1121.88 876.07,-1121.88 881.97,-1122.94 881.97,-1125.06 876.07,-1126.12 876.07,-1126.12 799.31,-1139.88 799.31,-1139.88 793.41,-1140.94 781.59,-1140.94 775.69,-1139.88"/>
<text text-anchor="middle" x="787.5" y="-1120.3" font-family="Times,serif" font-size="14.00">switch(class)</text>
</g>
<!-- start&#45;&gt;class_switch -->
<g id="edge1" class="edge">
<title>start&#45;&gt;class_switch</title>
<path fill="none" stroke="black" d="M787.5,-1178.81C787.5,-1170.79 787.5,-1161.05 787.5,-1152.07"/>
<polygon fill="black" stroke="black" points="791,-1152.03 787.5,-1142.03 784,-1152.03 791,-1152.03"/>
</g>
<!-- end -->
<g id="node2" class="node">
<title>end</title>
<path fill="none" stroke="black" d="M755.5,-36C755.5,-36 663.5,-36 663.5,-36 657.5,-36 651.5,-30 651.5,-24 651.5,-24 651.5,-12 651.5,-12 651.5,-6 657.5,0 663.5,0 663.5,0 755.5,0 755.5,0 761.5,0 767.5,-6 767.5,-12 767.5,-12 767.5,-24 767.5,-24 767.5,-30 761.5,-36 755.5,-36"/>
<text text-anchor="middle" x="709.5" y="-14.3" font-family="Times,serif" font-size="14.00">返回错误或策略</text>
</g>
<!-- sse_case -->
<g id="node4" class="node">
<title>sse_case</title>
<path fill="none" stroke="black" d="M670.5,-1059C670.5,-1059 614.5,-1059 614.5,-1059 608.5,-1059 602.5,-1053 602.5,-1047 602.5,-1047 602.5,-1035 602.5,-1035 602.5,-1029 608.5,-1023 614.5,-1023 614.5,-1023 670.5,-1023 670.5,-1023 676.5,-1023 682.5,-1029 682.5,-1035 682.5,-1035 682.5,-1047 682.5,-1047 682.5,-1053 676.5,-1059 670.5,-1059"/>
<text text-anchor="middle" x="642.5" y="-1037.3" font-family="Times,serif" font-size="14.00">case .sse</text>
</g>
<!-- class_switch&#45;&gt;sse_case -->
<g id="edge4" class="edge">
<title>class_switch&#45;&gt;sse_case</title>
<path fill="none" stroke="black" d="M745.2,-1113.5C725.99,-1107.96 703.57,-1099.71 685.5,-1088 676.88,-1082.41 668.79,-1074.73 662,-1067.24"/>
<polygon fill="black" stroke="black" points="664.36,-1064.61 655.19,-1059.29 659.05,-1069.16 664.36,-1064.61"/>
<text text-anchor="middle" x="695.5" y="-1080" font-family="Times,serif" font-size="10.00">.sse</text>
</g>
<!-- error_todo -->
<g id="node18" class="node">
<title>error_todo</title>
<path fill="none" stroke="black" d="M797.5,-1005C797.5,-1005 705.5,-1005 705.5,-1005 699.5,-1005 693.5,-999 693.5,-993 693.5,-993 693.5,-981 693.5,-981 693.5,-975 699.5,-969 705.5,-969 705.5,-969 797.5,-969 797.5,-969 803.5,-969 809.5,-975 809.5,-981 809.5,-981 809.5,-993 809.5,-993 809.5,-999 803.5,-1005 797.5,-1005"/>
<text text-anchor="middle" x="751.5" y="-983.3" font-family="Times,serif" font-size="14.00">返回TODO错误</text>
</g>
<!-- class_switch&#45;&gt;error_todo -->
<g id="edge5" class="edge">
<title>class_switch&#45;&gt;error_todo</title>
<path fill="none" stroke="black" d="M755.66,-1111.7C745.1,-1106.26 734.51,-1098.56 728.5,-1088 715.5,-1065.18 725.1,-1035.48 735.58,-1014.39"/>
<polygon fill="black" stroke="black" points="738.78,-1015.84 740.38,-1005.36 732.6,-1012.55 738.78,-1015.84"/>
<text text-anchor="middle" x="781" y="-1080" font-family="Times,serif" font-size="10.00">其他(.mmx/.ip/.cr/.dr)</text>
</g>
<!-- 返回.load_store(.mov) -->
<g id="node19" class="node">
<title>返回.load_store(.mov)</title>
<path fill="none" stroke="black" d="M951.5,-897C951.5,-897 807.5,-897 807.5,-897 801.5,-897 795.5,-891 795.5,-885 795.5,-885 795.5,-873 795.5,-873 795.5,-867 801.5,-861 807.5,-861 807.5,-861 951.5,-861 951.5,-861 957.5,-861 963.5,-867 963.5,-873 963.5,-873 963.5,-885 963.5,-885 963.5,-891 957.5,-897 951.5,-897"/>
<text text-anchor="middle" x="879.5" y="-875.3" font-family="Times,serif" font-size="14.00">返回.load_store(.mov)</text>
</g>
<!-- class_switch&#45;&gt;返回.load_store(.mov) -->
<g id="edge2" class="edge">
<title>class_switch&#45;&gt;返回.load_store(.mov)</title>
<path fill="none" stroke="black" d="M810.95,-1109.93C819.23,-1104.22 827.88,-1096.79 833.5,-1088 852.62,-1058.1 868.93,-956.13 875.89,-906.95"/>
<polygon fill="black" stroke="black" points="879.36,-907.42 877.27,-897.03 872.43,-906.45 879.36,-907.42"/>
<text text-anchor="middle" x="924.5" y="-1038.5" font-family="Times,serif" font-size="10.00">.general_purpose/.segment</text>
</g>
<!-- 返回.load_store_x87 -->
<g id="node20" class="node">
<title>返回.load_store_x87</title>
<path fill="none" stroke="black" d="M1029.5,-789C1029.5,-789 897.5,-789 897.5,-789 891.5,-789 885.5,-783 885.5,-777 885.5,-777 885.5,-765 885.5,-765 885.5,-759 891.5,-753 897.5,-753 897.5,-753 1029.5,-753 1029.5,-753 1035.5,-753 1041.5,-759 1041.5,-765 1041.5,-765 1041.5,-777 1041.5,-777 1041.5,-783 1035.5,-789 1029.5,-789"/>
<text text-anchor="middle" x="963.5" y="-767.3" font-family="Times,serif" font-size="14.00">返回.load_store_x87</text>
</g>
<!-- class_switch&#45;&gt;返回.load_store_x87 -->
<g id="edge3" class="edge">
<title>class_switch&#45;&gt;返回.load_store_x87</title>
<path fill="none" stroke="black" d="M839.24,-1115.24C906.51,-1103.67 1015.5,-1079.18 1015.5,-1042 1015.5,-1042 1015.5,-1042 1015.5,-878 1015.5,-848.05 998.56,-817.75 984.01,-797.27"/>
<polygon fill="black" stroke="black" points="986.75,-795.07 977.98,-789.11 981.12,-799.24 986.75,-795.07"/>
<text text-anchor="middle" x="1026.5" y="-984.5" font-family="Times,serif" font-size="10.00">.x87</text>
</g>
<!-- type_switch -->
<g id="node5" class="node">
<title>type_switch</title>
<path fill="none" stroke="black" d="M543.55,-949.86C543.55,-949.86 378.25,-934.14 378.25,-934.14 372.28,-933.57 372.28,-932.43 378.25,-931.86 378.25,-931.86 543.55,-916.14 543.55,-916.14 549.53,-915.57 561.47,-915.57 567.45,-916.14 567.45,-916.14 732.75,-931.86 732.75,-931.86 738.72,-932.43 738.72,-933.57 732.75,-934.14 732.75,-934.14 567.45,-949.86 567.45,-949.86 561.47,-950.43 549.53,-950.43 543.55,-949.86"/>
<text text-anchor="middle" x="555.5" y="-929.3" font-family="Times,serif" font-size="14.00">switch(ty.zigTypeTag(zcu))</text>
</g>
<!-- sse_case&#45;&gt;type_switch -->
<g id="edge6" class="edge">
<title>sse_case&#45;&gt;type_switch</title>
<path fill="none" stroke="black" d="M628.52,-1022.97C614.06,-1005.35 591.37,-977.7 575.12,-957.9"/>
<polygon fill="black" stroke="black" points="577.64,-955.46 568.59,-949.95 572.23,-959.9 577.64,-955.46"/>
</g>
<!-- float_case -->
<g id="node6" class="node">
<title>float_case</title>
<path fill="none" stroke="black" d="M667,-843C667,-843 602,-843 602,-843 596,-843 590,-837 590,-831 590,-831 590,-819 590,-819 590,-813 596,-807 602,-807 602,-807 667,-807 667,-807 673,-807 679,-813 679,-819 679,-819 679,-831 679,-831 679,-837 673,-843 667,-843"/>
<text text-anchor="middle" x="634.5" y="-821.3" font-family="Times,serif" font-size="14.00">case .float</text>
</g>
<!-- type_switch&#45;&gt;float_case -->
<g id="edge7" class="edge">
<title>type_switch&#45;&gt;float_case</title>
<path fill="none" stroke="black" d="M567.5,-915.9C580.26,-898.77 600.64,-871.44 615.57,-851.4"/>
<polygon fill="black" stroke="black" points="618.43,-853.42 621.6,-843.31 612.82,-849.24 618.43,-853.42"/>
<text text-anchor="middle" x="619.5" y="-876.5" font-family="Times,serif" font-size="10.00">.float</text>
</g>
<!-- vector_case -->
<g id="node7" class="node">
<title>vector_case</title>
<path fill="none" stroke="black" d="M553.5,-843C553.5,-843 475.5,-843 475.5,-843 469.5,-843 463.5,-837 463.5,-831 463.5,-831 463.5,-819 463.5,-819 463.5,-813 469.5,-807 475.5,-807 475.5,-807 553.5,-807 553.5,-807 559.5,-807 565.5,-813 565.5,-819 565.5,-819 565.5,-831 565.5,-831 565.5,-837 559.5,-843 553.5,-843"/>
<text text-anchor="middle" x="514.5" y="-821.3" font-family="Times,serif" font-size="14.00">case .vector</text>
</g>
<!-- type_switch&#45;&gt;vector_case -->
<g id="edge8" class="edge">
<title>type_switch&#45;&gt;vector_case</title>
<path fill="none" stroke="black" d="M549.09,-915.44C542.58,-898.6 532.39,-872.26 524.75,-852.51"/>
<polygon fill="black" stroke="black" points="528,-851.21 521.13,-843.15 521.48,-853.74 528,-851.21"/>
<text text-anchor="middle" x="558" y="-876.5" font-family="Times,serif" font-size="10.00">.vector</text>
</g>
<!-- abi_size_check -->
<g id="node9" class="node">
<title>abi_size_check</title>
<path fill="none" stroke="black" d="M309.72,-551.71C309.72,-551.71 240.61,-538.29 240.61,-538.29 234.72,-537.14 234.72,-534.86 240.61,-533.71 240.61,-533.71 309.72,-520.29 309.72,-520.29 315.61,-519.14 327.39,-519.14 333.28,-520.29 333.28,-520.29 402.39,-533.71 402.39,-533.71 408.28,-534.86 408.28,-537.14 402.39,-538.29 402.39,-538.29 333.28,-551.71 333.28,-551.71 327.39,-552.86 315.61,-552.86 309.72,-551.71"/>
<text text-anchor="middle" x="321.5" y="-532.3" font-family="Times,serif" font-size="14.00">检查abi_size</text>
</g>
<!-- type_switch&#45;&gt;abi_size_check -->
<g id="edge9" class="edge">
<title>type_switch&#45;&gt;abi_size_check</title>
<path fill="none" stroke="black" d="M433.3,-926.59C366.61,-916.3 297.5,-890.16 297.5,-826 297.5,-826 297.5,-826 297.5,-608 297.5,-592.14 302.94,-575.28 308.65,-561.97"/>
<polygon fill="black" stroke="black" points="311.97,-563.11 312.97,-552.56 305.61,-560.19 311.97,-563.11"/>
<text text-anchor="middle" x="317.5" y="-714.5" font-family="Times,serif" font-size="10.00">其他类型</text>
</g>
<!-- 根据floatBits检查 -->
<g id="node21" class="node">
<title>根据floatBits检查</title>
<path fill="none" stroke="black" d="M655.5,-681C655.5,-681 545.5,-681 545.5,-681 539.5,-681 533.5,-675 533.5,-669 533.5,-669 533.5,-657 533.5,-657 533.5,-651 539.5,-645 545.5,-645 545.5,-645 655.5,-645 655.5,-645 661.5,-645 667.5,-651 667.5,-657 667.5,-657 667.5,-669 667.5,-669 667.5,-675 661.5,-681 655.5,-681"/>
<text text-anchor="middle" x="600.5" y="-659.3" font-family="Times,serif" font-size="14.00">根据floatBits检查</text>
</g>
<!-- float_case&#45;&gt;根据floatBits检查 -->
<g id="edge10" class="edge">
<title>float_case&#45;&gt;根据floatBits检查</title>
<path fill="none" stroke="black" d="M636.4,-806.8C638.47,-782.1 639.9,-735.55 626.5,-699 625.35,-695.87 623.83,-692.79 622.1,-689.82"/>
<polygon fill="black" stroke="black" points="624.91,-687.72 616.43,-681.36 619.09,-691.61 624.91,-687.72"/>
</g>
<!-- child_type_switch -->
<g id="node8" class="node">
<title>child_type_switch</title>
<path fill="none" stroke="black" d="M474.61,-733.37C474.61,-733.37 367.01,-718.63 367.01,-718.63 361.07,-717.81 361.07,-716.19 367.01,-715.37 367.01,-715.37 474.61,-700.63 474.61,-700.63 480.56,-699.81 492.44,-699.81 498.39,-700.63 498.39,-700.63 605.99,-715.37 605.99,-715.37 611.93,-716.19 611.93,-717.81 605.99,-718.63 605.99,-718.63 498.39,-733.37 498.39,-733.37 492.44,-734.19 480.56,-734.19 474.61,-733.37"/>
<text text-anchor="middle" x="486.5" y="-713.3" font-family="Times,serif" font-size="14.00">switch(childType)</text>
</g>
<!-- vector_case&#45;&gt;child_type_switch -->
<g id="edge18" class="edge">
<title>vector_case&#45;&gt;child_type_switch</title>
<path fill="none" stroke="black" d="M510,-806.97C505.55,-790.1 498.66,-764.03 493.49,-744.47"/>
<polygon fill="black" stroke="black" points="496.83,-743.41 490.9,-734.64 490.07,-745.2 496.83,-743.41"/>
</g>
<!-- 根据child类型处理 -->
<g id="node22" class="node">
<title>根据child类型处理</title>
<path fill="none" stroke="black" d="M497,-627C497,-627 384,-627 384,-627 378,-627 372,-621 372,-615 372,-615 372,-603 372,-603 372,-597 378,-591 384,-591 384,-591 497,-591 497,-591 503,-591 509,-597 509,-603 509,-603 509,-615 509,-615 509,-621 503,-627 497,-627"/>
<text text-anchor="middle" x="440.5" y="-605.3" font-family="Times,serif" font-size="14.00">根据child类型处理</text>
</g>
<!-- child_type_switch&#45;&gt;根据child类型处理 -->
<g id="edge19" class="edge">
<title>child_type_switch&#45;&gt;根据child类型处理</title>
<path fill="none" stroke="black" d="M479.51,-699.9C472.25,-683.15 460.74,-656.65 452.11,-636.75"/>
<polygon fill="black" stroke="black" points="455.2,-635.09 448.01,-627.31 448.78,-637.88 455.2,-635.09"/>
</g>
<!-- feature_check_sse41 -->
<g id="node11" class="node">
<title>feature_check_sse41</title>
<path fill="none" stroke="black" d="M309.56,-323.76C309.56,-323.76 160.83,-308.24 160.83,-308.24 154.86,-307.62 154.86,-306.38 160.83,-305.76 160.83,-305.76 309.56,-290.24 309.56,-290.24 315.53,-289.62 327.47,-289.62 333.44,-290.24 333.44,-290.24 482.17,-305.76 482.17,-305.76 488.14,-306.38 488.14,-307.62 482.17,-308.24 482.17,-308.24 333.44,-323.76 333.44,-323.76 327.47,-324.38 315.53,-324.38 309.56,-323.76"/>
<text text-anchor="middle" x="321.5" y="-303.3" font-family="Times,serif" font-size="14.00">cg.hasFeature(.sse4_1)?</text>
</g>
<!-- abi_size_check&#45;&gt;feature_check_sse41 -->
<g id="edge23" class="edge">
<title>abi_size_check&#45;&gt;feature_check_sse41</title>
<path fill="none" stroke="black" d="M321.5,-517.94C321.5,-478.91 321.5,-382.85 321.5,-335.41"/>
<polygon fill="black" stroke="black" points="325,-335.26 321.5,-325.26 318,-335.26 325,-335.26"/>
</g>
<!-- feature_check_sse2 -->
<g id="node12" class="node">
<title>feature_check_sse2</title>
<path fill="none" stroke="black" d="M369.58,-215.65C369.58,-215.65 234.4,-200.35 234.4,-200.35 228.43,-199.67 228.43,-198.33 234.4,-197.65 234.4,-197.65 369.58,-182.35 369.58,-182.35 375.54,-181.67 387.46,-181.67 393.42,-182.35 393.42,-182.35 528.6,-197.65 528.6,-197.65 534.57,-198.33 534.57,-199.67 528.6,-200.35 528.6,-200.35 393.42,-215.65 393.42,-215.65 387.46,-216.33 375.54,-216.33 369.58,-215.65"/>
<text text-anchor="middle" x="381.5" y="-195.3" font-family="Times,serif" font-size="14.00">cg.hasFeature(.sse2)?</text>
</g>
<!-- abi_size_check&#45;&gt;feature_check_sse2 -->
<g id="edge24" class="edge">
<title>abi_size_check&#45;&gt;feature_check_sse2</title>
<path fill="none" stroke="black" d="M272.07,-527.59C212.56,-517.24 120.5,-496.06 120.5,-464 120.5,-464 120.5,-464 120.5,-306 120.5,-263.82 239.01,-230.35 316.32,-213.01"/>
<polygon fill="black" stroke="black" points="317.46,-216.34 326.47,-210.77 315.95,-209.51 317.46,-216.34"/>
</g>
<!-- 根据abi_size范围 -->
<g id="node23" class="node">
<title>根据abi_size范围</title>
<path fill="none" stroke="black" d="M530.5,-481C530.5,-481 424.5,-481 424.5,-481 418.5,-481 412.5,-475 412.5,-469 412.5,-469 412.5,-457 412.5,-457 412.5,-451 418.5,-445 424.5,-445 424.5,-445 530.5,-445 530.5,-445 536.5,-445 542.5,-451 542.5,-457 542.5,-457 542.5,-469 542.5,-469 542.5,-475 536.5,-481 530.5,-481"/>
<text text-anchor="middle" x="477.5" y="-459.3" font-family="Times,serif" font-size="14.00">根据abi_size范围</text>
</g>
<!-- abi_size_check&#45;&gt;根据abi_size范围 -->
<g id="edge21" class="edge">
<title>abi_size_check&#45;&gt;根据abi_size范围</title>
<path fill="none" stroke="black" d="M347.96,-522.96C370.59,-512.66 403.69,-497.59 430.77,-485.27"/>
<polygon fill="black" stroke="black" points="432.42,-488.36 440.07,-481.04 429.52,-481.99 432.42,-488.36"/>
</g>
<!-- feature_check_avx -->
<g id="node10" class="node">
<title>feature_check_avx</title>
<path fill="none" stroke="black" d="M537.58,-406.59C537.58,-406.59 409.59,-391.41 409.59,-391.41 403.64,-390.71 403.64,-389.29 409.59,-388.59 409.59,-388.59 537.58,-373.41 537.58,-373.41 543.54,-372.71 555.46,-372.71 561.42,-373.41 561.42,-373.41 689.41,-388.59 689.41,-388.59 695.36,-389.29 695.36,-390.71 689.41,-391.41 689.41,-391.41 561.42,-406.59 561.42,-406.59 555.46,-407.29 543.54,-407.29 537.58,-406.59"/>
<text text-anchor="middle" x="549.5" y="-386.3" font-family="Times,serif" font-size="14.00">cg.hasFeature(.avx)?</text>
</g>
<!-- feature_check_avx&#45;&gt;feature_check_sse41 -->
<g id="edge13" class="edge">
<title>feature_check_avx&#45;&gt;feature_check_sse41</title>
<path fill="none" stroke="black" d="M513.37,-376.17C474.11,-362.22 411.26,-339.89 368.26,-324.61"/>
<polygon fill="black" stroke="black" points="369.19,-321.23 358.59,-321.18 366.84,-327.82 369.19,-321.23"/>
<text text-anchor="middle" x="454.5" y="-346" font-family="Times,serif" font-size="10.00">否</text>
</g>
<!-- feature_check_avx&#45;&gt;feature_check_sse2 -->
<g id="edge26" class="edge">
<title>feature_check_avx&#45;&gt;feature_check_sse2</title>
<path fill="none" stroke="black" d="M544.73,-372.35C538.08,-351.26 524.44,-314.58 503.5,-289 479.41,-259.56 443.43,-234.9 416.79,-219.06"/>
<polygon fill="black" stroke="black" points="418.54,-216.03 408.14,-214.03 415.02,-222.09 418.54,-216.03"/>
<text text-anchor="middle" x="530.5" y="-304.5" font-family="Times,serif" font-size="10.00">否</text>
</g>
<!-- return_load_store -->
<g id="node13" class="node">
<title>return_load_store</title>
<path fill="none" stroke="black" d="M669,-109C669,-109 570,-109 570,-109 564,-109 558,-103 558,-97 558,-97 558,-85 558,-85 558,-79 564,-73 570,-73 570,-73 669,-73 669,-73 675,-73 681,-79 681,-85 681,-85 681,-97 681,-97 681,-103 675,-109 669,-109"/>
<text text-anchor="middle" x="619.5" y="-87.3" font-family="Times,serif" font-size="14.00">返回.load_store</text>
</g>
<!-- feature_check_avx&#45;&gt;return_load_store -->
<g id="edge25" class="edge">
<title>feature_check_avx&#45;&gt;return_load_store</title>
<path fill="none" stroke="black" d="M550.39,-371.69C552.15,-342.96 556.95,-283.76 568.5,-235 578.35,-193.43 596.17,-147.17 607.92,-118.83"/>
<polygon fill="black" stroke="black" points="611.31,-119.81 611.95,-109.24 604.85,-117.1 611.31,-119.81"/>
<text text-anchor="middle" x="573.5" y="-250.5" font-family="Times,serif" font-size="10.00">是</text>
</g>
<!-- return_vex -->
<g id="node15" class="node">
<title>return_vex</title>
<path fill="none" stroke="black" d="M753,-271C753,-271 596,-271 596,-271 590,-271 584,-265 584,-259 584,-259 584,-247 584,-247 584,-241 590,-235 596,-235 596,-235 753,-235 753,-235 759,-235 765,-241 765,-247 765,-247 765,-259 765,-259 765,-265 759,-271 753,-271"/>
<text text-anchor="middle" x="674.5" y="-249.3" font-family="Times,serif" font-size="14.00">返回.vex_insert_extract</text>
</g>
<!-- feature_check_avx&#45;&gt;return_vex -->
<g id="edge12" class="edge">
<title>feature_check_avx&#45;&gt;return_vex</title>
<path fill="none" stroke="black" d="M564,-373.7C569.77,-367.59 576.47,-360.48 582.5,-354 606.35,-328.4 633.44,-298.9 652.02,-278.61"/>
<polygon fill="black" stroke="black" points="654.77,-280.78 658.94,-271.04 649.6,-276.06 654.77,-280.78"/>
<text text-anchor="middle" x="595.5" y="-346" font-family="Times,serif" font-size="10.00">是</text>
</g>
<!-- feature_check_sse41&#45;&gt;feature_check_sse2 -->
<g id="edge15" class="edge">
<title>feature_check_sse41&#45;&gt;feature_check_sse2</title>
<path fill="none" stroke="black" d="M330.61,-289.9C340.35,-272.7 355.91,-245.21 367.26,-225.15"/>
<polygon fill="black" stroke="black" points="370.42,-226.68 372.3,-216.25 364.33,-223.23 370.42,-226.68"/>
<text text-anchor="middle" x="365.5" y="-250.5" font-family="Times,serif" font-size="10.00">否</text>
</g>
<!-- return_insert_extract -->
<g id="node14" class="node">
<title>return_insert_extract</title>
<path fill="none" stroke="black" d="M137,-163C137,-163 12,-163 12,-163 6,-163 0,-157 0,-151 0,-151 0,-139 0,-139 0,-133 6,-127 12,-127 12,-127 137,-127 137,-127 143,-127 149,-133 149,-139 149,-139 149,-151 149,-151 149,-157 143,-163 137,-163"/>
<text text-anchor="middle" x="74.5" y="-141.3" font-family="Times,serif" font-size="14.00">返回.insert_extract</text>
</g>
<!-- feature_check_sse41&#45;&gt;return_insert_extract -->
<g id="edge14" class="edge">
<title>feature_check_sse41&#45;&gt;return_insert_extract</title>
<path fill="none" stroke="black" d="M298.71,-291.23C255.35,-263.15 160.77,-201.89 109.4,-168.61"/>
<polygon fill="black" stroke="black" points="111.23,-165.62 100.93,-163.12 107.42,-171.5 111.23,-165.62"/>
<text text-anchor="middle" x="269.5" y="-250.5" font-family="Times,serif" font-size="10.00">是</text>
</g>
<!-- feature_check_sse2&#45;&gt;return_load_store -->
<g id="edge27" class="edge">
<title>feature_check_sse2&#45;&gt;return_load_store</title>
<path fill="none" stroke="black" d="M412.13,-184.36C452.62,-166.33 524.37,-134.37 571.95,-113.18"/>
<polygon fill="black" stroke="black" points="573.41,-116.36 581.12,-109.09 570.56,-109.96 573.41,-116.36"/>
<text text-anchor="middle" x="540.5" y="-142.5" font-family="Times,serif" font-size="10.00">是</text>
</g>
<!-- return_move_through_gpr -->
<g id="node16" class="node">
<title>return_move_through_gpr</title>
<path fill="none" stroke="black" d="M273,-109C273,-109 114,-109 114,-109 108,-109 102,-103 102,-97 102,-97 102,-85 102,-85 102,-79 108,-73 114,-73 114,-73 273,-73 273,-73 279,-73 285,-79 285,-85 285,-85 285,-97 285,-97 285,-103 279,-109 273,-109"/>
<text text-anchor="middle" x="193.5" y="-87.3" font-family="Times,serif" font-size="14.00">返回.move_through_gpr</text>
</g>
<!-- feature_check_sse2&#45;&gt;return_move_through_gpr -->
<g id="edge16" class="edge">
<title>feature_check_sse2&#45;&gt;return_move_through_gpr</title>
<path fill="none" stroke="black" d="M356.15,-183.7C324.45,-165.84 269.87,-135.06 232.76,-114.14"/>
<polygon fill="black" stroke="black" points="234.16,-110.91 223.73,-109.04 230.72,-117 234.16,-110.91"/>
<text text-anchor="middle" x="320.5" y="-142.5" font-family="Times,serif" font-size="10.00">是</text>
</g>
<!-- return_frame -->
<g id="node17" class="node">
<title>return_frame</title>
<path fill="none" stroke="black" d="M527.5,-109C527.5,-109 315.5,-109 315.5,-109 309.5,-109 303.5,-103 303.5,-97 303.5,-97 303.5,-85 303.5,-85 303.5,-79 309.5,-73 315.5,-73 315.5,-73 527.5,-73 527.5,-73 533.5,-73 539.5,-79 539.5,-85 539.5,-85 539.5,-97 539.5,-97 539.5,-103 533.5,-109 527.5,-109"/>
<text text-anchor="middle" x="421.5" y="-87.3" font-family="Times,serif" font-size="14.00">返回.load_store_through_frame</text>
</g>
<!-- feature_check_sse2&#45;&gt;return_frame -->
<g id="edge17" class="edge">
<title>feature_check_sse2&#45;&gt;return_frame</title>
<path fill="none" stroke="black" d="M388.15,-181.66C390.51,-175.79 393.16,-169.11 395.5,-163 401.07,-148.44 407.07,-132.12 411.9,-118.79"/>
<polygon fill="black" stroke="black" points="415.23,-119.86 415.34,-109.27 408.65,-117.49 415.23,-119.86"/>
<text text-anchor="middle" x="413.5" y="-142.5" font-family="Times,serif" font-size="10.00">否</text>
</g>
<!-- feature_check_sse2&#45;&gt;return_frame -->
<g id="edge28" class="edge">
<title>feature_check_sse2&#45;&gt;return_frame</title>
<path fill="none" stroke="black" d="M378.41,-181.11C376.49,-166.18 375.68,-144.17 383.5,-127 385.17,-123.34 387.42,-119.89 389.99,-116.68"/>
<polygon fill="black" stroke="black" points="392.66,-118.95 396.92,-109.25 387.54,-114.18 392.66,-118.95"/>
<text text-anchor="middle" x="388.5" y="-142.5" font-family="Times,serif" font-size="10.00">否</text>
</g>
<!-- return_insert_extract&#45;&gt;end -->
<g id="edge32" class="edge">
<title>return_insert_extract&#45;&gt;end</title>
<path fill="none" stroke="black" d="M73.66,-126.79C73.89,-110.32 77.1,-86.1 92.5,-73 133.58,-38.05 489.27,-24.71 641.18,-20.58"/>
<polygon fill="black" stroke="black" points="641.42,-24.08 651.32,-20.31 641.23,-17.08 641.42,-24.08"/>
</g>
<!-- return_vex&#45;&gt;end -->
<g id="edge31" class="edge">
<title>return_vex&#45;&gt;end</title>
<path fill="none" stroke="black" d="M677.07,-234.87C683.09,-194.81 698.12,-94.75 705.41,-46.23"/>
<polygon fill="black" stroke="black" points="708.9,-46.57 706.92,-36.16 701.98,-45.53 708.9,-46.57"/>
</g>
<!-- return_move_through_gpr&#45;&gt;end -->
<g id="edge33" class="edge">
<title>return_move_through_gpr&#45;&gt;end</title>
<path fill="none" stroke="black" d="M285.13,-74.42C288.29,-73.93 291.42,-73.46 294.5,-73 416.43,-54.81 559.04,-37.01 641.35,-27.08"/>
<polygon fill="black" stroke="black" points="641.82,-30.54 651.33,-25.87 640.98,-23.59 641.82,-30.54"/>
</g>
<!-- return_frame&#45;&gt;end -->
<g id="edge34" class="edge">
<title>return_frame&#45;&gt;end</title>
<path fill="none" stroke="black" d="M490.48,-72.99C536.22,-61.72 595.96,-46.99 641.49,-35.77"/>
<polygon fill="black" stroke="black" points="642.41,-39.15 651.28,-33.35 640.73,-32.35 642.41,-39.15"/>
</g>
<!-- error_todo&#45;&gt;end -->
<g id="edge35" class="edge">
<title>error_todo&#45;&gt;end</title>
<path fill="none" stroke="black" d="M759.27,-968.77C767.86,-948.11 780.5,-912.24 780.5,-880 780.5,-880 780.5,-880 780.5,-90 780.5,-70.11 766.39,-53.84 750.76,-41.92"/>
<polygon fill="black" stroke="black" points="752.69,-39.01 742.51,-36.09 748.65,-44.72 752.69,-39.01"/>
</g>
<!-- 返回.load_store(.mov)&#45;&gt;end -->
<g id="edge29" class="edge">
<title>返回.load_store(.mov)&#45;&gt;end</title>
<path fill="none" stroke="black" d="M871.46,-860.79C862.57,-840.16 849.5,-804.32 849.5,-772 849.5,-772 849.5,-772 849.5,-90 849.5,-54.5 813.26,-36.75 777.65,-27.87"/>
<polygon fill="black" stroke="black" points="778.18,-24.4 767.66,-25.59 776.63,-31.23 778.18,-24.4"/>
</g>
<!-- 返回.load_store_x87&#45;&gt;end -->
<g id="edge30" class="edge">
<title>返回.load_store_x87&#45;&gt;end</title>
<path fill="none" stroke="black" d="M953.12,-752.68C941.87,-732.23 925.5,-696.84 925.5,-664 925.5,-664 925.5,-664 925.5,-90 925.5,-58.39 840.93,-38.54 777.63,-28.11"/>
<polygon fill="black" stroke="black" points="778.1,-24.64 767.67,-26.51 776.99,-31.55 778.1,-24.64"/>
</g>
<!-- 根据floatBits检查&#45;&gt;feature_check_avx -->
<g id="edge11" class="edge">
<title>根据floatBits检查&#45;&gt;feature_check_avx</title>
<path fill="none" stroke="black" d="M592.27,-644.71C584.66,-627.08 574.5,-598.76 574.5,-573 574.5,-573 574.5,-573 574.5,-462 574.5,-446.28 568.98,-429.65 563.12,-416.44"/>
<polygon fill="black" stroke="black" points="566.12,-414.6 558.67,-407.08 559.8,-417.61 566.12,-414.6"/>
</g>
<!-- 根据child类型处理&#45;&gt;abi_size_check -->
<g id="edge20" class="edge">
<title>根据child类型处理&#45;&gt;abi_size_check</title>
<path fill="none" stroke="black" d="M412,-590.99C393.8,-580.13 370.23,-566.07 351.71,-555.02"/>
<polygon fill="black" stroke="black" points="353.45,-551.98 343.07,-549.87 349.86,-558 353.45,-551.98"/>
</g>
<!-- 根据abi_size范围&#45;&gt;feature_check_avx -->
<g id="edge22" class="edge">
<title>根据abi_size范围&#45;&gt;feature_check_avx</title>
<path fill="none" stroke="black" d="M494.93,-444.81C504.35,-435.52 516.1,-423.93 526.29,-413.89"/>
<polygon fill="black" stroke="black" points="529.04,-416.09 533.7,-406.58 524.13,-411.11 529.04,-416.09"/>
</g>
</g>
</svg>
