<?xml version="1.0" encoding="UTF-8" standalone="no"?>
<!DOCTYPE svg PUBLIC "-//W3C//DTD SVG 1.1//EN"
 "http://www.w3.org/Graphics/SVG/1.1/DTD/svg11.dtd">
<!-- Generated by graphviz version 2.43.0 (0)
 -->
<!-- Title: flowchart Pages: 1 -->
<svg width="1177pt" height="693pt"
 viewBox="0.00 0.00 1176.50 693.00" xmlns="http://www.w3.org/2000/svg" xmlns:xlink="http://www.w3.org/1999/xlink">
<g id="graph0" class="graph" transform="scale(1 1) rotate(0) translate(4 689)">
<title>flowchart</title>
<polygon fill="white" stroke="transparent" points="-4,4 -4,-689 1172.5,-689 1172.5,4 -4,4"/>
<!-- start -->
<g id="node1" class="node">
<title>start</title>
<polygon fill="#f0f0f0" stroke="black" points="328.5,-685 185.5,-685 185.5,-649 328.5,-649 328.5,-685"/>
<text text-anchor="middle" x="257" y="-663.3" font-family="Courier New" font-size="14.00">开始 genByteSwap</text>
</g>
<!-- check_vector -->
<g id="node2" class="node">
<title>check_vector</title>
<polygon fill="#f0f0f0" stroke="black" points="257,-612 64.79,-594 257,-576 449.21,-594 257,-612"/>
<text text-anchor="middle" x="257" y="-590.3" font-family="Courier New" font-size="14.00">检查 src_ty 是否为向量类型</text>
</g>
<!-- start&#45;&gt;check_vector -->
<g id="edge1" class="edge">
<title>start&#45;&gt;check_vector</title>
<path fill="none" stroke="black" d="M257,-648.81C257,-640.79 257,-631.05 257,-622.07"/>
<polygon fill="black" stroke="black" points="260.5,-622.03 257,-612.03 253.5,-622.03 260.5,-622.03"/>
</g>
<!-- vector_error -->
<g id="node3" class="node">
<title>vector_error</title>
<polygon fill="#f0f0f0" stroke="black" points="231,-471 115,-471 115,-435 231,-435 231,-471"/>
<text text-anchor="middle" x="173" y="-449.3" font-family="Courier New" font-size="14.00">返回未实现错误</text>
</g>
<!-- check_vector&#45;&gt;vector_error -->
<g id="edge2" class="edge">
<title>check_vector&#45;&gt;vector_error</title>
<path fill="none" stroke="black" d="M247.2,-576.78C232.83,-553 205.89,-508.42 188.73,-480.02"/>
<polygon fill="black" stroke="black" points="191.69,-478.17 183.53,-471.42 185.7,-481.79 191.69,-478.17"/>
<text text-anchor="middle" x="243.5" y="-546.8" font-family="Courier New" font-size="14.00">是</text>
</g>
<!-- get_abi_size -->
<g id="node4" class="node">
<title>get_abi_size</title>
<polygon fill="#f0f0f0" stroke="black" points="597.5,-525 298.5,-525 298.5,-489 597.5,-489 597.5,-525"/>
<text text-anchor="middle" x="448" y="-503.3" font-family="Courier New" font-size="14.00">获取 abi_size = src_ty.abiSize(zcu)</text>
</g>
<!-- check_vector&#45;&gt;get_abi_size -->
<g id="edge3" class="edge">
<title>check_vector&#45;&gt;get_abi_size</title>
<path fill="none" stroke="black" d="M288.97,-578.77C319.35,-565.25 365.44,-544.74 400.19,-529.28"/>
<polygon fill="black" stroke="black" points="401.95,-532.32 409.67,-525.06 399.11,-525.93 401.95,-532.32"/>
<text text-anchor="middle" x="371.5" y="-546.8" font-family="Courier New" font-size="14.00">否</text>
</g>
<!-- return -->
<g id="node18" class="node">
<title>return</title>
<polygon fill="#f0f0f0" stroke="black" points="110,-36 0,-36 0,0 110,0 110,-36"/>
<text text-anchor="middle" x="55" y="-14.3" font-family="Courier New" font-size="14.00">返回 dst_mcv</text>
</g>
<!-- vector_error&#45;&gt;return -->
<!-- switch_abi_size -->
<g id="node5" class="node">
<title>switch_abi_size</title>
<polygon fill="#f0f0f0" stroke="black" points="534,-417 391.56,-399 534,-381 676.44,-399 534,-417"/>
<text text-anchor="middle" x="534" y="-395.3" font-family="Courier New" font-size="14.00">根据 abi_size 分支</text>
</g>
<!-- get_abi_size&#45;&gt;switch_abi_size -->
<g id="edge4" class="edge">
<title>get_abi_size&#45;&gt;switch_abi_size</title>
<path fill="none" stroke="black" d="M461.82,-488.97C476.19,-471.25 498.81,-443.38 514.89,-423.56"/>
<polygon fill="black" stroke="black" points="517.76,-425.58 521.34,-415.61 512.32,-421.17 517.76,-425.58"/>
</g>
<!-- size_1 -->
<g id="node6" class="node">
<title>size_1</title>
<polygon fill="#f0f0f0" stroke="black" points="346,-330 222,-330 222,-294 346,-294 346,-330"/>
<text text-anchor="middle" x="284" y="-308.3" font-family="Courier New" font-size="14.00">abi_size == 1</text>
</g>
<!-- switch_abi_size&#45;&gt;size_1 -->
<g id="edge5" class="edge">
<title>switch_abi_size&#45;&gt;size_1</title>
<path fill="none" stroke="black" d="M497.38,-385.55C457.03,-371.83 391.53,-349.56 343.73,-333.31"/>
<polygon fill="black" stroke="black" points="344.71,-329.94 334.11,-330.04 342.45,-336.57 344.71,-329.94"/>
<text text-anchor="middle" x="427.5" y="-351.8" font-family="Courier New" font-size="14.00">1</text>
</g>
<!-- size_2 -->
<g id="node7" class="node">
<title>size_2</title>
<polygon fill="#f0f0f0" stroke="black" points="515,-330 391,-330 391,-294 515,-294 515,-330"/>
<text text-anchor="middle" x="453" y="-308.3" font-family="Courier New" font-size="14.00">abi_size == 2</text>
</g>
<!-- switch_abi_size&#45;&gt;size_2 -->
<g id="edge6" class="edge">
<title>switch_abi_size&#45;&gt;size_2</title>
<path fill="none" stroke="black" d="M519.52,-382.8C507.51,-370.2 490.2,-352.03 476.25,-337.4"/>
<polygon fill="black" stroke="black" points="478.74,-334.93 469.3,-330.11 473.67,-339.76 478.74,-334.93"/>
<text text-anchor="middle" x="502.5" y="-351.8" font-family="Courier New" font-size="14.00">2</text>
</g>
<!-- size_3_8 -->
<g id="node8" class="node">
<title>size_3_8</title>
<polygon fill="#f0f0f0" stroke="black" points="688.5,-330 539.5,-330 539.5,-294 688.5,-294 688.5,-330"/>
<text text-anchor="middle" x="614" y="-308.3" font-family="Courier New" font-size="14.00">3 ≤ abi_size ≤ 8</text>
</g>
<!-- switch_abi_size&#45;&gt;size_3_8 -->
<g id="edge7" class="edge">
<title>switch_abi_size&#45;&gt;size_3_8</title>
<path fill="none" stroke="black" d="M548.3,-382.8C560.17,-370.2 577.26,-352.03 591.04,-337.4"/>
<polygon fill="black" stroke="black" points="593.59,-339.79 597.9,-330.11 588.49,-334.99 593.59,-339.79"/>
<text text-anchor="middle" x="590.5" y="-351.8" font-family="Courier New" font-size="14.00">3&#45;8</text>
</g>
<!-- size_9_16 -->
<g id="node9" class="node">
<title>size_9_16</title>
<polygon fill="#f0f0f0" stroke="black" points="895.5,-330 738.5,-330 738.5,-294 895.5,-294 895.5,-330"/>
<text text-anchor="middle" x="817" y="-308.3" font-family="Courier New" font-size="14.00">9 ≤ abi_size ≤ 16</text>
</g>
<!-- switch_abi_size&#45;&gt;size_9_16 -->
<g id="edge8" class="edge">
<title>switch_abi_size&#45;&gt;size_9_16</title>
<path fill="none" stroke="black" d="M573.95,-386C619.8,-372.23 695.71,-349.43 750.52,-332.97"/>
<polygon fill="black" stroke="black" points="751.58,-336.3 760.15,-330.08 749.56,-329.6 751.58,-336.3"/>
<text text-anchor="middle" x="709" y="-351.8" font-family="Courier New" font-size="14.00">9&#45;16</text>
</g>
<!-- size_other -->
<g id="node10" class="node">
<title>size_other</title>
<polygon fill="#f0f0f0" stroke="black" points="1096,-330 972,-330 972,-294 1096,-294 1096,-330"/>
<text text-anchor="middle" x="1034" y="-308.3" font-family="Courier New" font-size="14.00">abi_size &gt; 16</text>
</g>
<!-- switch_abi_size&#45;&gt;size_other -->
<g id="edge9" class="edge">
<title>switch_abi_size&#45;&gt;size_other</title>
<path fill="none" stroke="black" d="M591.84,-388.17C683.55,-372.58 862.12,-342.22 961.99,-325.24"/>
<polygon fill="black" stroke="black" points="962.72,-328.67 971.99,-323.54 961.55,-321.77 962.72,-328.67"/>
<text text-anchor="middle" x="827.5" y="-351.8" font-family="Courier New" font-size="14.00">其他</text>
</g>
<!-- handle_size1 -->
<g id="node11" class="node">
<title>handle_size1</title>
<polygon fill="#f0f0f0" stroke="black" points="346.5,-257 71.5,-257 71.5,-219 346.5,-219 346.5,-257"/>
<text text-anchor="middle" x="209" y="-241.8" font-family="Courier New" font-size="14.00">检查 mem_ok/src_mcv.isRegister()</text>
<text text-anchor="middle" x="209" y="-226.8" font-family="Courier New" font-size="14.00">尝试重用操作数或复制到寄存器</text>
</g>
<!-- size_1&#45;&gt;handle_size1 -->
<g id="edge10" class="edge">
<title>size_1&#45;&gt;handle_size1</title>
<path fill="none" stroke="black" d="M266.23,-293.94C257.04,-285.12 245.66,-274.19 235.46,-264.4"/>
<polygon fill="black" stroke="black" points="237.6,-261.6 227.96,-257.2 232.75,-266.65 237.6,-261.6"/>
</g>
<!-- handle_size2 -->
<g id="node12" class="node">
<title>handle_size2</title>
<polygon fill="#f0f0f0" stroke="black" points="533,-256 365,-256 365,-220 533,-220 533,-256"/>
<text text-anchor="middle" x="449" y="-234.3" font-family="Courier New" font-size="14.00">生成移位指令 (rol 8)</text>
</g>
<!-- size_2&#45;&gt;handle_size2 -->
<g id="edge12" class="edge">
<title>size_2&#45;&gt;handle_size2</title>
<path fill="none" stroke="black" d="M452.05,-293.94C451.6,-285.81 451.05,-275.88 450.54,-266.7"/>
<polygon fill="black" stroke="black" points="454.02,-266.23 449.97,-256.44 447.03,-266.62 454.02,-266.23"/>
</g>
<!-- handle_size3_8 -->
<g id="node13" class="node">
<title>handle_size3_8</title>
<polygon fill="#f0f0f0" stroke="black" points="681,-256 551,-256 551,-220 681,-220 681,-256"/>
<text text-anchor="middle" x="616" y="-234.3" font-family="Courier New" font-size="14.00">生成 bswap 指令</text>
</g>
<!-- size_3_8&#45;&gt;handle_size3_8 -->
<g id="edge14" class="edge">
<title>size_3_8&#45;&gt;handle_size3_8</title>
<path fill="none" stroke="black" d="M614.47,-293.94C614.7,-285.81 614.98,-275.88 615.23,-266.7"/>
<polygon fill="black" stroke="black" points="618.74,-266.53 615.52,-256.44 611.74,-266.34 618.74,-266.53"/>
</g>
<!-- handle_size9_16 -->
<g id="node14" class="node">
<title>handle_size9_16</title>
<polygon fill="#f0f0f0" stroke="black" points="991,-257 699,-257 699,-219 991,-219 991,-257"/>
<text text-anchor="middle" x="845" y="-241.8" font-family="Courier New" font-size="14.00">处理寄存器对或内存加载</text>
<text text-anchor="middle" x="845" y="-226.8" font-family="Courier New" font-size="14.00">交换寄存器对或生成 movbe/mov + bswap</text>
</g>
<!-- size_9_16&#45;&gt;handle_size9_16 -->
<g id="edge16" class="edge">
<title>size_9_16&#45;&gt;handle_size9_16</title>
<path fill="none" stroke="black" d="M823.64,-293.94C826.79,-285.81 830.65,-275.89 834.22,-266.73"/>
<polygon fill="black" stroke="black" points="837.56,-267.79 837.92,-257.2 831.04,-265.25 837.56,-267.79"/>
</g>
<!-- handle_large -->
<g id="node15" class="node">
<title>handle_large</title>
<polygon fill="#f0f0f0" stroke="black" points="1168.5,-257 1009.5,-257 1009.5,-219 1168.5,-219 1168.5,-257"/>
<text text-anchor="middle" x="1089" y="-241.8" font-family="Courier New" font-size="14.00">分配临时寄存器</text>
<text text-anchor="middle" x="1089" y="-226.8" font-family="Courier New" font-size="14.00">循环交换内存中的字节</text>
</g>
<!-- size_other&#45;&gt;handle_large -->
<g id="edge18" class="edge">
<title>size_other&#45;&gt;handle_large</title>
<path fill="none" stroke="black" d="M1047.03,-293.94C1053.57,-285.38 1061.63,-274.83 1068.93,-265.27"/>
<polygon fill="black" stroke="black" points="1071.81,-267.27 1075.1,-257.2 1066.25,-263.02 1071.81,-267.27"/>
</g>
<!-- allocate_dst -->
<g id="node16" class="node">
<title>allocate_dst</title>
<polygon fill="#f0f0f0" stroke="black" points="650,-182 414,-182 414,-146 650,-146 650,-182"/>
<text text-anchor="middle" x="532" y="-160.3" font-family="Courier New" font-size="14.00">分配目标寄存器/内存 (dst_mcv)</text>
</g>
<!-- handle_size1&#45;&gt;allocate_dst -->
<g id="edge11" class="edge">
<title>handle_size1&#45;&gt;allocate_dst</title>
<path fill="none" stroke="black" d="M290.09,-218.92C337.56,-208.34 397.46,-194.99 445.79,-184.22"/>
<polygon fill="black" stroke="black" points="446.6,-187.62 455.6,-182.03 445.08,-180.79 446.6,-187.62"/>
</g>
<!-- handle_size2&#45;&gt;allocate_dst -->
<g id="edge13" class="edge">
<title>handle_size2&#45;&gt;allocate_dst</title>
<path fill="none" stroke="black" d="M468.67,-219.94C479.34,-210.68 492.71,-199.09 504.4,-188.94"/>
<polygon fill="black" stroke="black" points="506.92,-191.39 512.18,-182.19 502.34,-186.1 506.92,-191.39"/>
</g>
<!-- handle_size3_8&#45;&gt;allocate_dst -->
<g id="edge15" class="edge">
<title>handle_size3_8&#45;&gt;allocate_dst</title>
<path fill="none" stroke="black" d="M596.09,-219.94C585.29,-210.68 571.77,-199.09 559.93,-188.94"/>
<polygon fill="black" stroke="black" points="561.93,-186.04 552.06,-182.19 557.37,-191.36 561.93,-186.04"/>
</g>
<!-- handle_size9_16&#45;&gt;allocate_dst -->
<g id="edge17" class="edge">
<title>handle_size9_16&#45;&gt;allocate_dst</title>
<path fill="none" stroke="black" d="M766.42,-218.92C720.52,-208.37 662.61,-195.05 615.84,-184.29"/>
<polygon fill="black" stroke="black" points="616.56,-180.86 606.03,-182.03 615,-187.68 616.56,-180.86"/>
</g>
<!-- handle_large&#45;&gt;allocate_dst -->
<g id="edge19" class="edge">
<title>handle_large&#45;&gt;allocate_dst</title>
<path fill="none" stroke="black" d="M1009.48,-220.57C1006.28,-220.02 1003.11,-219.49 1000,-219 885.62,-200.87 754.6,-186.27 660.34,-176.85"/>
<polygon fill="black" stroke="black" points="660.48,-173.35 650.18,-175.84 659.79,-180.31 660.48,-173.35"/>
</g>
<!-- gen_movbe_or_bswap -->
<g id="node17" class="node">
<title>gen_movbe_or_bswap</title>
<polygon fill="#f0f0f0" stroke="black" points="458,-109 258,-109 258,-73 458,-73 458,-109"/>
<text text-anchor="middle" x="358" y="-87.3" font-family="Courier New" font-size="14.00">生成 movbe 或 bswap 指令</text>
</g>
<!-- allocate_dst&#45;&gt;gen_movbe_or_bswap -->
<g id="edge20" class="edge">
<title>allocate_dst&#45;&gt;gen_movbe_or_bswap</title>
<path fill="none" stroke="black" d="M490.32,-145.99C465.97,-136.06 435.04,-123.43 409.2,-112.89"/>
<polygon fill="black" stroke="black" points="410.52,-109.65 399.94,-109.11 407.88,-116.13 410.52,-109.65"/>
</g>
<!-- gen_movbe_or_bswap&#45;&gt;return -->
<g id="edge21" class="edge">
<title>gen_movbe_or_bswap&#45;&gt;return</title>
<path fill="none" stroke="black" d="M285.42,-72.99C235.14,-61.21 168.76,-45.66 120.17,-34.27"/>
<polygon fill="black" stroke="black" points="120.92,-30.85 110.39,-31.98 119.33,-37.67 120.92,-30.85"/>
</g>
</g>
</svg>
