<?xml version="1.0" encoding="UTF-8" standalone="no"?>
<!DOCTYPE svg PUBLIC "-//W3C//DTD SVG 1.1//EN"
 "http://www.w3.org/Graphics/SVG/1.1/DTD/svg11.dtd">
<!-- Generated by graphviz version 2.43.0 (0)
 -->
<!-- Title: airMulWithOverflow Pages: 1 -->
<svg width="491pt" height="922pt"
 viewBox="0.00 0.00 490.50 922.00" xmlns="http://www.w3.org/2000/svg" xmlns:xlink="http://www.w3.org/1999/xlink">
<g id="graph0" class="graph" transform="scale(1 1) rotate(0) translate(4 918)">
<title>airMulWithOverflow</title>
<polygon fill="white" stroke="transparent" points="-4,4 -4,-918 486.5,-918 486.5,4 -4,4"/>
<!-- start -->
<g id="node1" class="node">
<title>start</title>
<ellipse fill="none" stroke="black" cx="109" cy="-896" rx="87.92" ry="18"/>
<text text-anchor="middle" x="109" y="-893.5" font-family="Courier,monospace" font-size="10.00">开始 airMulWithOverflow</text>
</g>
<!-- check_type -->
<g id="node2" class="node">
<title>check_type</title>
<polygon fill="none" stroke="black" points="200,-841 18,-841 18,-805 200,-805 200,-841"/>
<text text-anchor="middle" x="109" y="-820.5" font-family="Courier,monospace" font-size="10.00">检查目标类型 dst_ty.zigTypeTag</text>
</g>
<!-- start&#45;&gt;check_type -->
<g id="edge1" class="edge">
<title>start&#45;&gt;check_type</title>
<path fill="none" stroke="black" d="M109,-877.81C109,-869.79 109,-860.05 109,-851.07"/>
<polygon fill="black" stroke="black" points="112.5,-851.03 109,-841.03 105.5,-851.03 112.5,-851.03"/>
</g>
<!-- vector_case -->
<g id="node3" class="node">
<title>vector_case</title>
<polygon fill="none" stroke="black" points="136,-704 0,-704 0,-668 136,-668 136,-704"/>
<text text-anchor="middle" x="68" y="-683.5" font-family="Courier,monospace" font-size="10.00">返回错误: 未实现向量类型</text>
</g>
<!-- check_type&#45;&gt;vector_case -->
<g id="edge2" class="edge">
<title>check_type&#45;&gt;vector_case</title>
<path fill="none" stroke="black" d="M90.82,-804.91C86.22,-799.62 81.8,-793.46 79,-787 68.94,-763.8 66.74,-734.86 66.73,-714.09"/>
<polygon fill="black" stroke="black" points="70.23,-714.11 66.89,-704.05 63.23,-713.99 70.23,-714.11"/>
<text text-anchor="middle" x="100.5" y="-779" font-family="Courier,monospace" font-size="10.00">.vector</text>
</g>
<!-- int_case -->
<g id="node4" class="node">
<title>int_case</title>
<polygon fill="none" stroke="black" points="183.5,-758 108.5,-758 108.5,-722 183.5,-722 183.5,-758"/>
<text text-anchor="middle" x="146" y="-737.5" font-family="Courier,monospace" font-size="10.00">处理整数类型</text>
</g>
<!-- check_type&#45;&gt;int_case -->
<g id="edge3" class="edge">
<title>check_type&#45;&gt;int_case</title>
<path fill="none" stroke="black" d="M116.85,-804.82C121.8,-793.98 128.3,-779.74 133.91,-767.47"/>
<polygon fill="black" stroke="black" points="137.19,-768.7 138.16,-758.15 130.83,-765.79 137.19,-768.7"/>
<text text-anchor="middle" x="142.5" y="-779" font-family="Courier,monospace" font-size="10.00">.int</text>
</g>
<!-- finish -->
<g id="node18" class="node">
<title>finish</title>
<ellipse fill="none" stroke="black" cx="146" cy="-18" rx="61.44" ry="18"/>
<text text-anchor="middle" x="146" y="-15.5" font-family="Courier,monospace" font-size="10.00">返回结果并清理资源</text>
</g>
<!-- vector_case&#45;&gt;finish -->
<g id="edge20" class="edge">
<title>vector_case&#45;&gt;finish</title>
<path fill="none" stroke="black" d="M65.05,-667.83C62.1,-649.12 58,-618.27 58,-591.5 58,-591.5 58,-591.5 58,-90 58,-65.78 78.44,-48.42 99.62,-36.92"/>
<polygon fill="black" stroke="black" points="101.33,-39.98 108.68,-32.35 98.17,-33.73 101.33,-39.98"/>
<text text-anchor="middle" x="87.5" y="-349" font-family="Courier,monospace" font-size="10.00">立即返回错误</text>
</g>
<!-- check_bits -->
<g id="node5" class="node">
<title>check_bits</title>
<polygon fill="none" stroke="black" points="236,-650 86,-650 86,-614 236,-614 236,-650"/>
<text text-anchor="middle" x="161" y="-629.5" font-family="Courier,monospace" font-size="10.00">检查整数位数 &gt;128 且无符号</text>
</g>
<!-- int_case&#45;&gt;check_bits -->
<g id="edge4" class="edge">
<title>int_case&#45;&gt;check_bits</title>
<path fill="none" stroke="black" d="M148.41,-721.97C150.76,-705.38 154.37,-679.88 157.12,-660.43"/>
<polygon fill="black" stroke="black" points="160.61,-660.73 158.55,-650.34 153.68,-659.75 160.61,-660.73"/>
</g>
<!-- large_uint -->
<g id="node6" class="node">
<title>large_uint</title>
<polygon fill="none" stroke="black" points="207,-567 93,-567 93,-531 207,-531 207,-567"/>
<text text-anchor="middle" x="150" y="-546.5" font-family="Courier,monospace" font-size="10.00">处理大无符号整数乘法</text>
</g>
<!-- check_bits&#45;&gt;large_uint -->
<g id="edge5" class="edge">
<title>check_bits&#45;&gt;large_uint</title>
<path fill="none" stroke="black" d="M158.67,-613.82C157.22,-603.19 155.34,-589.31 153.69,-577.2"/>
<polygon fill="black" stroke="black" points="157.14,-576.59 152.33,-567.15 150.21,-577.53 157.14,-576.59"/>
<text text-anchor="middle" x="161" y="-588" font-family="Courier,monospace" font-size="10.00">是</text>
</g>
<!-- other_int -->
<g id="node7" class="node">
<title>other_int</title>
<polygon fill="none" stroke="black" points="327.5,-567 232.5,-567 232.5,-531 327.5,-531 327.5,-567"/>
<text text-anchor="middle" x="280" y="-546.5" font-family="Courier,monospace" font-size="10.00">处理其他整数类型</text>
</g>
<!-- check_bits&#45;&gt;other_int -->
<g id="edge6" class="edge">
<title>check_bits&#45;&gt;other_int</title>
<path fill="none" stroke="black" d="M186.24,-613.82C203.75,-601.9 227.27,-585.89 246.37,-572.89"/>
<polygon fill="black" stroke="black" points="248.5,-575.67 254.8,-567.15 244.56,-569.89 248.5,-575.67"/>
<text text-anchor="middle" x="232" y="-588" font-family="Courier,monospace" font-size="10.00">否</text>
</g>
<!-- spill_regs -->
<g id="node12" class="node">
<title>spill_regs</title>
<polygon fill="none" stroke="black" points="181.5,-494 96.5,-494 96.5,-458 181.5,-458 181.5,-494"/>
<text text-anchor="middle" x="139" y="-473.5" font-family="Courier,monospace" font-size="10.00">保存寄存器状态</text>
</g>
<!-- large_uint&#45;&gt;spill_regs -->
<g id="edge7" class="edge">
<title>large_uint&#45;&gt;spill_regs</title>
<path fill="none" stroke="black" d="M147.34,-530.81C146.09,-522.79 144.58,-513.05 143.19,-504.07"/>
<polygon fill="black" stroke="black" points="146.63,-503.38 141.64,-494.03 139.71,-504.45 146.63,-503.38"/>
</g>
<!-- signed_check -->
<g id="node8" class="node">
<title>signed_check</title>
<polygon fill="none" stroke="black" points="327.5,-494 252.5,-494 252.5,-458 327.5,-458 327.5,-494"/>
<text text-anchor="middle" x="290" y="-473.5" font-family="Courier,monospace" font-size="10.00">检查有符号性</text>
</g>
<!-- other_int&#45;&gt;signed_check -->
<g id="edge14" class="edge">
<title>other_int&#45;&gt;signed_check</title>
<path fill="none" stroke="black" d="M282.42,-530.81C283.55,-522.79 284.92,-513.05 286.19,-504.07"/>
<polygon fill="black" stroke="black" points="289.67,-504.42 287.6,-494.03 282.74,-503.44 289.67,-504.42"/>
</g>
<!-- signed_case -->
<g id="node9" class="node">
<title>signed_case</title>
<polygon fill="none" stroke="black" points="379,-411 201,-411 201,-375 379,-375 379,-411"/>
<text text-anchor="middle" x="290" y="-390.5" font-family="Courier,monospace" font-size="10.00">处理有符号乘法（调用__muloti4）</text>
</g>
<!-- signed_check&#45;&gt;signed_case -->
<g id="edge15" class="edge">
<title>signed_check&#45;&gt;signed_case</title>
<path fill="none" stroke="black" d="M290,-457.82C290,-447.19 290,-433.31 290,-421.2"/>
<polygon fill="black" stroke="black" points="293.5,-421.15 290,-411.15 286.5,-421.15 293.5,-421.15"/>
<text text-anchor="middle" x="305" y="-432" font-family="Courier,monospace" font-size="10.00">有符号</text>
</g>
<!-- unsigned_case -->
<g id="node10" class="node">
<title>unsigned_case</title>
<polygon fill="none" stroke="black" points="482.5,-411 397.5,-411 397.5,-375 482.5,-375 482.5,-411"/>
<text text-anchor="middle" x="440" y="-390.5" font-family="Courier,monospace" font-size="10.00">处理无符号乘法</text>
</g>
<!-- signed_check&#45;&gt;unsigned_case -->
<g id="edge16" class="edge">
<title>signed_check&#45;&gt;unsigned_case</title>
<path fill="none" stroke="black" d="M321.81,-457.82C344.46,-445.59 375.08,-429.06 399.48,-415.88"/>
<polygon fill="black" stroke="black" points="401.36,-418.85 408.49,-411.01 398.03,-412.69 401.36,-418.85"/>
<text text-anchor="middle" x="388" y="-432" font-family="Courier,monospace" font-size="10.00">无符号</text>
</g>
<!-- gen_result -->
<g id="node11" class="node">
<title>gen_result</title>
<polygon fill="none" stroke="black" points="342,-328 238,-328 238,-292 342,-292 342,-328"/>
<text text-anchor="middle" x="290" y="-307.5" font-family="Courier,monospace" font-size="10.00">生成结果和溢出标志</text>
</g>
<!-- signed_case&#45;&gt;gen_result -->
<g id="edge17" class="edge">
<title>signed_case&#45;&gt;gen_result</title>
<path fill="none" stroke="black" d="M290,-374.82C290,-364.19 290,-350.31 290,-338.2"/>
<polygon fill="black" stroke="black" points="293.5,-338.15 290,-328.15 286.5,-338.15 293.5,-338.15"/>
</g>
<!-- unsigned_case&#45;&gt;gen_result -->
<g id="edge18" class="edge">
<title>unsigned_case&#45;&gt;gen_result</title>
<path fill="none" stroke="black" d="M408.19,-374.82C385.54,-362.59 354.92,-346.06 330.52,-332.88"/>
<polygon fill="black" stroke="black" points="331.97,-329.69 321.51,-328.01 328.64,-335.85 331.97,-329.69"/>
</g>
<!-- gen_result&#45;&gt;finish -->
<g id="edge19" class="edge">
<title>gen_result&#45;&gt;finish</title>
<path fill="none" stroke="black" d="M279.09,-291.94C271.23,-278 262,-257.48 262,-238 262,-238 262,-238 262,-90 262,-59.98 233.39,-42.27 204.59,-32.04"/>
<polygon fill="black" stroke="black" points="205.45,-28.64 194.86,-28.85 203.27,-35.29 205.45,-28.64"/>
</g>
<!-- alloc_mem -->
<g id="node13" class="node">
<title>alloc_mem</title>
<polygon fill="none" stroke="black" points="182.5,-411 91.5,-411 91.5,-375 182.5,-375 182.5,-411"/>
<text text-anchor="middle" x="137" y="-390.5" font-family="Courier,monospace" font-size="10.00">分配内存/寄存器</text>
</g>
<!-- spill_regs&#45;&gt;alloc_mem -->
<g id="edge8" class="edge">
<title>spill_regs&#45;&gt;alloc_mem</title>
<path fill="none" stroke="black" d="M138.58,-457.82C138.31,-447.19 137.97,-433.31 137.67,-421.2"/>
<polygon fill="black" stroke="black" points="141.17,-421.06 137.42,-411.15 134.17,-421.24 141.17,-421.06"/>
</g>
<!-- inline_memset -->
<g id="node14" class="node">
<title>inline_memset</title>
<polygon fill="none" stroke="black" points="198.5,-328 87.5,-328 87.5,-292 198.5,-292 198.5,-328"/>
<text text-anchor="middle" x="143" y="-307.5" font-family="Courier,monospace" font-size="10.00">生成内联memset清零</text>
</g>
<!-- alloc_mem&#45;&gt;inline_memset -->
<g id="edge9" class="edge">
<title>alloc_mem&#45;&gt;inline_memset</title>
<path fill="none" stroke="black" d="M138.27,-374.82C139.06,-364.19 140.09,-350.31 140.98,-338.2"/>
<polygon fill="black" stroke="black" points="144.48,-338.38 141.73,-328.15 137.5,-337.87 144.48,-338.38"/>
</g>
<!-- resolve_operands -->
<g id="node15" class="node">
<title>resolve_operands</title>
<polygon fill="none" stroke="black" points="187.5,-255 102.5,-255 102.5,-219 187.5,-219 187.5,-255"/>
<text text-anchor="middle" x="145" y="-234.5" font-family="Courier,monospace" font-size="10.00">解析左右操作数</text>
</g>
<!-- inline_memset&#45;&gt;resolve_operands -->
<g id="edge10" class="edge">
<title>inline_memset&#45;&gt;resolve_operands</title>
<path fill="none" stroke="black" d="M143.48,-291.81C143.71,-283.79 143.98,-274.05 144.24,-265.07"/>
<polygon fill="black" stroke="black" points="147.74,-265.12 144.52,-255.03 140.74,-264.93 147.74,-265.12"/>
</g>
<!-- gen_loops -->
<g id="node16" class="node">
<title>gen_loops</title>
<polygon fill="none" stroke="black" points="206,-182 86,-182 86,-146 206,-146 206,-182"/>
<text text-anchor="middle" x="146" y="-161.5" font-family="Courier,monospace" font-size="10.00">生成外层/内层循环结构</text>
</g>
<!-- resolve_operands&#45;&gt;gen_loops -->
<g id="edge11" class="edge">
<title>resolve_operands&#45;&gt;gen_loops</title>
<path fill="none" stroke="black" d="M145.24,-218.81C145.36,-210.79 145.49,-201.05 145.62,-192.07"/>
<polygon fill="black" stroke="black" points="149.12,-192.08 145.76,-182.03 142.12,-191.98 149.12,-192.08"/>
</g>
<!-- set_flags -->
<g id="node17" class="node">
<title>set_flags</title>
<polygon fill="none" stroke="black" points="188.5,-109 103.5,-109 103.5,-73 188.5,-73 188.5,-109"/>
<text text-anchor="middle" x="146" y="-88.5" font-family="Courier,monospace" font-size="10.00">设置溢出标志位</text>
</g>
<!-- gen_loops&#45;&gt;set_flags -->
<g id="edge12" class="edge">
<title>gen_loops&#45;&gt;set_flags</title>
<path fill="none" stroke="black" d="M146,-145.81C146,-137.79 146,-128.05 146,-119.07"/>
<polygon fill="black" stroke="black" points="149.5,-119.03 146,-109.03 142.5,-119.03 149.5,-119.03"/>
</g>
<!-- set_flags&#45;&gt;finish -->
<g id="edge13" class="edge">
<title>set_flags&#45;&gt;finish</title>
<path fill="none" stroke="black" d="M146,-72.81C146,-64.79 146,-55.05 146,-46.07"/>
<polygon fill="black" stroke="black" points="149.5,-46.03 146,-36.03 142.5,-46.03 149.5,-46.03"/>
</g>
</g>
</svg>
