<?xml version="1.0" encoding="UTF-8" standalone="no"?>
<!DOCTYPE svg PUBLIC "-//W3C//DTD SVG 1.1//EN"
 "http://www.w3.org/Graphics/SVG/1.1/DTD/svg11.dtd">
<!-- Generated by graphviz version 2.43.0 (0)
 -->
<!-- Title: flowchart Pages: 1 -->
<svg width="604pt" height="763pt"
 viewBox="0.00 0.00 604.00 763.00" xmlns="http://www.w3.org/2000/svg" xmlns:xlink="http://www.w3.org/1999/xlink">
<g id="graph0" class="graph" transform="scale(1 1) rotate(0) translate(4 759)">
<title>flowchart</title>
<polygon fill="white" stroke="transparent" points="-4,4 -4,-759 600,-759 600,4 -4,4"/>
<g id="clust1" class="cluster">
<title>cluster_then</title>
<polygon fill="none" stroke="black" stroke-dasharray="5,2" points="8,-243.5 8,-400 178,-400 178,-243.5 8,-243.5"/>
<text text-anchor="middle" x="93" y="-384.8" font-family="Times,serif" font-size="14.00">Then 分支</text>
</g>
<g id="clust2" class="cluster">
<title>cluster_else</title>
<polygon fill="none" stroke="black" stroke-dasharray="5,2" points="109,-83 109,-235 275,-235 275,-83 109,-83"/>
<text text-anchor="middle" x="192" y="-219.8" font-family="Times,serif" font-size="14.00">Else 分支</text>
</g>
<g id="clust3" class="cluster">
<title>cluster_merge</title>
<polygon fill="none" stroke="black" stroke-dasharray="5,2" points="416,-8 416,-159 588,-159 588,-8 416,-8"/>
<text text-anchor="middle" x="502" y="-143.8" font-family="Times,serif" font-size="14.00">合并状态</text>
</g>
<!-- start -->
<g id="node1" class="node">
<title>start</title>
<path fill="none" stroke="black" d="M236,-755C236,-755 142,-755 142,-755 136,-755 130,-749 130,-743 130,-743 130,-731 130,-731 130,-725 136,-719 142,-719 142,-719 236,-719 236,-719 242,-719 248,-725 248,-731 248,-731 248,-743 248,-743 248,-749 242,-755 236,-755"/>
<text text-anchor="middle" x="189" y="-733.3" font-family="Helvetica,sans-Serif" font-size="14.00">开始 airCondBr</text>
</g>
<!-- parse_inst -->
<g id="node2" class="node">
<title>parse_inst</title>
<path fill="none" stroke="black" d="M269,-683C269,-683 109,-683 109,-683 103,-683 97,-677 97,-671 97,-671 97,-657 97,-657 97,-651 103,-645 109,-645 109,-645 269,-645 269,-645 275,-645 281,-651 281,-657 281,-657 281,-671 281,-671 281,-677 275,-683 269,-683"/>
<text text-anchor="middle" x="189" y="-667.8" font-family="Helvetica,sans-Serif" font-size="14.00">解析指令数据</text>
<text text-anchor="middle" x="189" y="-652.8" font-family="Helvetica,sans-Serif" font-size="14.00">(pl_op, cond_inst, extra)</text>
</g>
<!-- start&#45;&gt;parse_inst -->
<g id="edge1" class="edge">
<title>start&#45;&gt;parse_inst</title>
<path fill="none" stroke="black" d="M189,-718.81C189,-711.11 189,-701.82 189,-693.15"/>
<polygon fill="black" stroke="black" points="192.5,-693.02 189,-683.02 185.5,-693.02 192.5,-693.02"/>
</g>
<!-- check_operand_death -->
<g id="node3" class="node">
<title>check_operand_death</title>
<path fill="none" stroke="black" d="M263.5,-609C263.5,-609 114.5,-609 114.5,-609 108.5,-609 102.5,-603 102.5,-597 102.5,-597 102.5,-583 102.5,-583 102.5,-577 108.5,-571 114.5,-571 114.5,-571 263.5,-571 263.5,-571 269.5,-571 275.5,-577 275.5,-583 275.5,-583 275.5,-597 275.5,-597 275.5,-603 269.5,-609 263.5,-609"/>
<text text-anchor="middle" x="189" y="-593.8" font-family="Helvetica,sans-Serif" font-size="14.00">检查条件操作数是否死亡</text>
<text text-anchor="middle" x="189" y="-578.8" font-family="Helvetica,sans-Serif" font-size="14.00">并处理</text>
</g>
<!-- parse_inst&#45;&gt;check_operand_death -->
<g id="edge2" class="edge">
<title>parse_inst&#45;&gt;check_operand_death</title>
<path fill="none" stroke="black" d="M189,-644.83C189,-637.13 189,-627.97 189,-619.42"/>
<polygon fill="black" stroke="black" points="192.5,-619.41 189,-609.41 185.5,-619.41 192.5,-619.41"/>
</g>
<!-- save_parent_state -->
<g id="node4" class="node">
<title>save_parent_state</title>
<path fill="none" stroke="black" d="M259,-535C259,-535 119,-535 119,-535 113,-535 107,-529 107,-523 107,-523 107,-509 107,-509 107,-503 113,-497 119,-497 119,-497 259,-497 259,-497 265,-497 271,-503 271,-509 271,-509 271,-523 271,-523 271,-529 265,-535 259,-535"/>
<text text-anchor="middle" x="189" y="-519.8" font-family="Helvetica,sans-Serif" font-size="14.00">保存父状态</text>
<text text-anchor="middle" x="189" y="-504.8" font-family="Helvetica,sans-Serif" font-size="14.00">(寄存器、堆栈、CPSR)</text>
</g>
<!-- check_operand_death&#45;&gt;save_parent_state -->
<g id="edge3" class="edge">
<title>check_operand_death&#45;&gt;save_parent_state</title>
<path fill="none" stroke="black" d="M189,-570.83C189,-563.13 189,-553.97 189,-545.42"/>
<polygon fill="black" stroke="black" points="192.5,-545.41 189,-535.41 185.5,-545.41 192.5,-545.41"/>
</g>
<!-- gen_then -->
<g id="node5" class="node">
<title>gen_then</title>
<path fill="none" stroke="black" d="M273.5,-461C273.5,-461 104.5,-461 104.5,-461 98.5,-461 92.5,-455 92.5,-449 92.5,-449 92.5,-420 92.5,-420 92.5,-414 98.5,-408 104.5,-408 104.5,-408 273.5,-408 273.5,-408 279.5,-408 285.5,-414 285.5,-420 285.5,-420 285.5,-449 285.5,-449 285.5,-455 279.5,-461 273.5,-461"/>
<text text-anchor="middle" x="189" y="-445.8" font-family="Helvetica,sans-Serif" font-size="14.00">生成 then 分支代码</text>
<text text-anchor="middle" x="189" y="-430.8" font-family="Helvetica,sans-Serif" font-size="14.00">处理 then_deaths</text>
<text text-anchor="middle" x="189" y="-415.8" font-family="Helvetica,sans-Serif" font-size="14.00">调用 genBody(then_body)</text>
</g>
<!-- save_parent_state&#45;&gt;gen_then -->
<g id="edge4" class="edge">
<title>save_parent_state&#45;&gt;gen_then</title>
<path fill="none" stroke="black" d="M189,-496.96C189,-489.32 189,-480.14 189,-471.23"/>
<polygon fill="black" stroke="black" points="192.5,-471 189,-461 185.5,-471 192.5,-471"/>
</g>
<!-- restore_state -->
<g id="node6" class="node">
<title>restore_state</title>
<path fill="none" stroke="black" d="M345,-370C345,-370 205,-370 205,-370 199,-370 193,-364 193,-358 193,-358 193,-344 193,-344 193,-338 199,-332 205,-332 205,-332 345,-332 345,-332 351,-332 357,-338 357,-344 357,-344 357,-358 357,-358 357,-364 351,-370 345,-370"/>
<text text-anchor="middle" x="275" y="-354.8" font-family="Helvetica,sans-Serif" font-size="14.00">恢复父状态</text>
<text text-anchor="middle" x="275" y="-339.8" font-family="Helvetica,sans-Serif" font-size="14.00">(寄存器、堆栈、CPSR)</text>
</g>
<!-- gen_then&#45;&gt;restore_state -->
<g id="edge5" class="edge">
<title>gen_then&#45;&gt;restore_state</title>
<path fill="none" stroke="black" d="M216.21,-407.71C226.48,-397.98 238.16,-386.92 248.38,-377.23"/>
<polygon fill="black" stroke="black" points="251.01,-379.56 255.86,-370.14 246.19,-374.48 251.01,-379.56"/>
</g>
<!-- process_then_deaths -->
<g id="node10" class="node">
<title>process_then_deaths</title>
<path fill="none" stroke="black" d="M153,-369C153,-369 43,-369 43,-369 37,-369 31,-363 31,-357 31,-357 31,-345 31,-345 31,-339 37,-333 43,-333 43,-333 153,-333 153,-333 159,-333 165,-339 165,-345 165,-345 165,-357 165,-357 165,-363 159,-369 153,-369"/>
<text text-anchor="middle" x="98" y="-347.3" font-family="Helvetica,sans-Serif" font-size="14.00">处理 then_deaths</text>
</g>
<!-- gen_then&#45;&gt;process_then_deaths -->
<!-- gen_else -->
<g id="node7" class="node">
<title>gen_else</title>
<path fill="none" stroke="black" d="M365.5,-296C365.5,-296 200.5,-296 200.5,-296 194.5,-296 188.5,-290 188.5,-284 188.5,-284 188.5,-255 188.5,-255 188.5,-249 194.5,-243 200.5,-243 200.5,-243 365.5,-243 365.5,-243 371.5,-243 377.5,-249 377.5,-255 377.5,-255 377.5,-284 377.5,-284 377.5,-290 371.5,-296 365.5,-296"/>
<text text-anchor="middle" x="283" y="-280.8" font-family="Helvetica,sans-Serif" font-size="14.00">生成 else 分支代码</text>
<text text-anchor="middle" x="283" y="-265.8" font-family="Helvetica,sans-Serif" font-size="14.00">处理 else_deaths</text>
<text text-anchor="middle" x="283" y="-250.8" font-family="Helvetica,sans-Serif" font-size="14.00">调用 genBody(else_body)</text>
</g>
<!-- restore_state&#45;&gt;gen_else -->
<g id="edge6" class="edge">
<title>restore_state&#45;&gt;gen_else</title>
<path fill="none" stroke="black" d="M276.82,-331.96C277.58,-324.32 278.51,-315.14 279.4,-306.23"/>
<polygon fill="black" stroke="black" points="282.91,-306.3 280.43,-296 275.95,-305.6 282.91,-306.3"/>
</g>
<!-- merge_states -->
<g id="node8" class="node">
<title>merge_states</title>
<path fill="none" stroke="black" d="M444.5,-205C444.5,-205 295.5,-205 295.5,-205 289.5,-205 283.5,-199 283.5,-193 283.5,-193 283.5,-179 283.5,-179 283.5,-173 289.5,-167 295.5,-167 295.5,-167 444.5,-167 444.5,-167 450.5,-167 456.5,-173 456.5,-179 456.5,-179 456.5,-193 456.5,-193 456.5,-199 450.5,-205 444.5,-205"/>
<text text-anchor="middle" x="370" y="-189.8" font-family="Helvetica,sans-Serif" font-size="14.00">合并分支状态</text>
<text text-anchor="middle" x="370" y="-174.8" font-family="Helvetica,sans-Serif" font-size="14.00">同步指令表和寄存器分配</text>
</g>
<!-- gen_else&#45;&gt;merge_states -->
<g id="edge7" class="edge">
<title>gen_else&#45;&gt;merge_states</title>
<path fill="none" stroke="black" d="M310.53,-242.71C320.92,-232.98 332.73,-221.92 343.07,-212.23"/>
<polygon fill="black" stroke="black" points="345.73,-214.53 350.64,-205.14 340.95,-209.42 345.73,-214.53"/>
</g>
<!-- process_else_deaths -->
<g id="node12" class="node">
<title>process_else_deaths</title>
<path fill="none" stroke="black" d="M249,-204C249,-204 143,-204 143,-204 137,-204 131,-198 131,-192 131,-192 131,-180 131,-180 131,-174 137,-168 143,-168 143,-168 249,-168 249,-168 255,-168 261,-174 261,-180 261,-180 261,-192 261,-192 261,-198 255,-204 249,-204"/>
<text text-anchor="middle" x="196" y="-182.3" font-family="Helvetica,sans-Serif" font-size="14.00">处理 else_deaths</text>
</g>
<!-- gen_else&#45;&gt;process_else_deaths -->
<!-- finish -->
<g id="node9" class="node">
<title>finish</title>
<path fill="none" stroke="black" d="M395.5,-128C395.5,-128 312.5,-128 312.5,-128 306.5,-128 300.5,-122 300.5,-116 300.5,-116 300.5,-102 300.5,-102 300.5,-96 306.5,-90 312.5,-90 312.5,-90 395.5,-90 395.5,-90 401.5,-90 407.5,-96 407.5,-102 407.5,-102 407.5,-116 407.5,-116 407.5,-122 401.5,-128 395.5,-128"/>
<text text-anchor="middle" x="354" y="-112.8" font-family="Helvetica,sans-Serif" font-size="14.00">结束指令</text>
<text text-anchor="middle" x="354" y="-97.8" font-family="Helvetica,sans-Serif" font-size="14.00">finishAir 返回</text>
</g>
<!-- merge_states&#45;&gt;finish -->
<g id="edge8" class="edge">
<title>merge_states&#45;&gt;finish</title>
<path fill="none" stroke="black" d="M366.13,-166.84C364.29,-158.25 362.06,-147.79 360.01,-138.19"/>
<polygon fill="black" stroke="black" points="363.4,-137.3 357.89,-128.25 356.56,-138.76 363.4,-137.3"/>
</g>
<!-- merge_else -->
<g id="node14" class="node">
<title>merge_else</title>
<path fill="none" stroke="black" d="M566,-128C566,-128 438,-128 438,-128 432,-128 426,-122 426,-116 426,-116 426,-102 426,-102 426,-96 432,-90 438,-90 438,-90 566,-90 566,-90 572,-90 578,-96 578,-102 578,-102 578,-116 578,-116 578,-122 572,-128 566,-128"/>
<text text-anchor="middle" x="502" y="-112.8" font-family="Helvetica,sans-Serif" font-size="14.00">遍历 else 分支指令表</text>
<text text-anchor="middle" x="502" y="-97.8" font-family="Helvetica,sans-Serif" font-size="14.00">同步到父分支</text>
</g>
<!-- merge_states&#45;&gt;merge_else -->
<!-- gen_then_body -->
<g id="node11" class="node">
<title>gen_then_body</title>
<path fill="none" stroke="black" d="M158,-287.5C158,-287.5 28,-287.5 28,-287.5 22,-287.5 16,-281.5 16,-275.5 16,-275.5 16,-263.5 16,-263.5 16,-257.5 22,-251.5 28,-251.5 28,-251.5 158,-251.5 158,-251.5 164,-251.5 170,-257.5 170,-263.5 170,-263.5 170,-275.5 170,-275.5 170,-281.5 164,-287.5 158,-287.5"/>
<text text-anchor="middle" x="93" y="-265.8" font-family="Helvetica,sans-Serif" font-size="14.00">生成 then_body 代码</text>
</g>
<!-- process_then_deaths&#45;&gt;gen_then_body -->
<g id="edge9" class="edge">
<title>process_then_deaths&#45;&gt;gen_then_body</title>
<path fill="none" stroke="black" d="M96.92,-332.75C96.27,-322.54 95.45,-309.38 94.72,-297.79"/>
<polygon fill="black" stroke="black" points="98.2,-297.48 94.08,-287.72 91.22,-297.92 98.2,-297.48"/>
</g>
<!-- gen_else_body -->
<g id="node13" class="node">
<title>gen_else_body</title>
<path fill="none" stroke="black" d="M255,-127C255,-127 129,-127 129,-127 123,-127 117,-121 117,-115 117,-115 117,-103 117,-103 117,-97 123,-91 129,-91 129,-91 255,-91 255,-91 261,-91 267,-97 267,-103 267,-103 267,-115 267,-115 267,-121 261,-127 255,-127"/>
<text text-anchor="middle" x="192" y="-105.3" font-family="Helvetica,sans-Serif" font-size="14.00">生成 else_body 代码</text>
</g>
<!-- process_else_deaths&#45;&gt;gen_else_body -->
<g id="edge10" class="edge">
<title>process_else_deaths&#45;&gt;gen_else_body</title>
<path fill="none" stroke="black" d="M195.09,-167.98C194.61,-158.94 194.01,-147.6 193.46,-137.35"/>
<polygon fill="black" stroke="black" points="196.95,-137.01 192.92,-127.21 189.96,-137.38 196.95,-137.01"/>
</g>
<!-- merge_then -->
<g id="node15" class="node">
<title>merge_then</title>
<path fill="none" stroke="black" d="M567.5,-54C567.5,-54 436.5,-54 436.5,-54 430.5,-54 424.5,-48 424.5,-42 424.5,-42 424.5,-28 424.5,-28 424.5,-22 430.5,-16 436.5,-16 436.5,-16 567.5,-16 567.5,-16 573.5,-16 579.5,-22 579.5,-28 579.5,-28 579.5,-42 579.5,-42 579.5,-48 573.5,-54 567.5,-54"/>
<text text-anchor="middle" x="502" y="-38.8" font-family="Helvetica,sans-Serif" font-size="14.00">遍历 then 分支指令表</text>
<text text-anchor="middle" x="502" y="-23.8" font-family="Helvetica,sans-Serif" font-size="14.00">同步到父分支</text>
</g>
<!-- merge_else&#45;&gt;merge_then -->
<g id="edge11" class="edge">
<title>merge_else&#45;&gt;merge_then</title>
<path fill="none" stroke="black" d="M502,-89.83C502,-82.13 502,-72.97 502,-64.42"/>
<polygon fill="black" stroke="black" points="505.5,-64.41 502,-54.41 498.5,-64.41 505.5,-64.41"/>
</g>
</g>
</svg>
