<?xml version="1.0" encoding="UTF-8" standalone="no"?>
<!DOCTYPE svg PUBLIC "-//W3C//DTD SVG 1.1//EN"
 "http://www.w3.org/Graphics/SVG/1.1/DTD/svg11.dtd">
<!-- Generated by graphviz version 2.43.0 (0)
 -->
<!-- Title: flowchart Pages: 1 -->
<svg width="716pt" height="620pt"
 viewBox="0.00 0.00 716.04 620.00" xmlns="http://www.w3.org/2000/svg" xmlns:xlink="http://www.w3.org/1999/xlink">
<g id="graph0" class="graph" transform="scale(1 1) rotate(0) translate(4 616)">
<title>flowchart</title>
<polygon fill="white" stroke="transparent" points="-4,4 -4,-616 712.04,-616 712.04,4 -4,4"/>
<!-- start -->
<g id="node1" class="node">
<title>start</title>
<polygon fill="none" stroke="black" points="375.5,-612 232.5,-612 232.5,-576 375.5,-576 375.5,-612"/>
<text text-anchor="middle" x="304" y="-591.5" font-family="Courier,monospace" font-size="10.00">开始 airStructFieldVal</text>
</g>
<!-- get_info -->
<g id="node2" class="node">
<title>get_info</title>
<polygon fill="none" stroke="black" points="384.5,-539 223.5,-539 223.5,-503 384.5,-503 384.5,-539"/>
<text text-anchor="middle" x="304" y="-524" font-family="Courier,monospace" font-size="10.00">获取类型信息</text>
<text text-anchor="middle" x="304" y="-513" font-family="Courier,monospace" font-size="10.00">(container_ty, field_ty)</text>
</g>
<!-- start&#45;&gt;get_info -->
<g id="edge1" class="edge">
<title>start&#45;&gt;get_info</title>
<path fill="none" stroke="black" d="M304,-575.81C304,-567.79 304,-558.05 304,-549.07"/>
<polygon fill="black" stroke="black" points="307.5,-549.03 304,-539.03 300.5,-549.03 307.5,-549.03"/>
</g>
<!-- check_runtime_bits -->
<g id="node3" class="node">
<title>check_runtime_bits</title>
<polygon fill="none" stroke="black" points="366,-466 242,-466 242,-430 366,-430 366,-466"/>
<text text-anchor="middle" x="304" y="-445.5" font-family="Courier,monospace" font-size="10.00">检查字段是否有运行时位</text>
</g>
<!-- get_info&#45;&gt;check_runtime_bits -->
<g id="edge2" class="edge">
<title>get_info&#45;&gt;check_runtime_bits</title>
<path fill="none" stroke="black" d="M304,-502.81C304,-494.79 304,-485.05 304,-476.07"/>
<polygon fill="black" stroke="black" points="307.5,-476.03 304,-466.03 300.5,-476.03 307.5,-476.03"/>
</g>
<!-- return_none -->
<g id="node4" class="node">
<title>return_none</title>
<ellipse fill="none" stroke="black" cx="268" cy="-365" rx="42.27" ry="18"/>
<text text-anchor="middle" x="268" y="-362.5" font-family="Courier,monospace" font-size="10.00">返回 .none</text>
</g>
<!-- check_runtime_bits&#45;&gt;return_none -->
<g id="edge3" class="edge">
<title>check_runtime_bits&#45;&gt;return_none</title>
<path fill="none" stroke="black" d="M296.37,-429.82C291.51,-418.9 285.13,-404.55 279.66,-392.22"/>
<polygon fill="black" stroke="black" points="282.76,-390.59 275.5,-382.88 276.36,-393.44 282.76,-390.59"/>
<text text-anchor="middle" x="313.5" y="-404" font-family="Courier,monospace" font-size="10.00">无运行时位</text>
</g>
<!-- switch_src_mcv -->
<g id="node5" class="node">
<title>switch_src_mcv</title>
<polygon fill="none" stroke="black" points="417,-383 327.85,-365 417,-347 506.15,-365 417,-383"/>
<text text-anchor="middle" x="417" y="-362.5" font-family="Courier,monospace" font-size="10.00">switch(src_mcv)</text>
</g>
<!-- check_runtime_bits&#45;&gt;switch_src_mcv -->
<g id="edge4" class="edge">
<title>check_runtime_bits&#45;&gt;switch_src_mcv</title>
<path fill="none" stroke="black" d="M327.96,-429.82C346.17,-416.77 371.2,-398.83 390.09,-385.29"/>
<polygon fill="black" stroke="black" points="392.2,-388.08 398.29,-379.41 388.13,-382.39 392.2,-388.08"/>
<text text-anchor="middle" x="392.5" y="-404" font-family="Courier,monospace" font-size="10.00">有运行时位</text>
</g>
<!-- handle_register -->
<g id="node6" class="node">
<title>handle_register</title>
<polygon fill="none" stroke="black" points="229.5,-300 144.5,-300 144.5,-264 229.5,-264 229.5,-300"/>
<text text-anchor="middle" x="187" y="-279.5" font-family="Courier,monospace" font-size="10.00">处理寄存器情况</text>
</g>
<!-- switch_src_mcv&#45;&gt;handle_register -->
<g id="edge5" class="edge">
<title>switch_src_mcv&#45;&gt;handle_register</title>
<path fill="none" stroke="black" d="M370.62,-356.22C329.81,-348.99 273.76,-338.01 253,-329 239.73,-323.24 226.39,-314.61 215.21,-306.37"/>
<polygon fill="black" stroke="black" points="217.2,-303.49 207.12,-300.21 212.95,-309.05 217.2,-303.49"/>
<text text-anchor="middle" x="280.5" y="-321" font-family="Courier,monospace" font-size="10.00">.register</text>
</g>
<!-- handle_register_pair -->
<g id="node9" class="node">
<title>handle_register_pair</title>
<polygon fill="none" stroke="black" points="355.5,-300 260.5,-300 260.5,-264 355.5,-264 355.5,-300"/>
<text text-anchor="middle" x="308" y="-279.5" font-family="Courier,monospace" font-size="10.00">处理寄存器对情况</text>
</g>
<!-- switch_src_mcv&#45;&gt;handle_register_pair -->
<g id="edge6" class="edge">
<title>switch_src_mcv&#45;&gt;handle_register_pair</title>
<path fill="none" stroke="black" d="M367.77,-356.89C349.77,-351.91 330.72,-343.43 318,-329 313.46,-323.85 310.82,-317.13 309.33,-310.42"/>
<polygon fill="black" stroke="black" points="312.73,-309.5 307.81,-300.11 305.81,-310.52 312.73,-309.5"/>
<text text-anchor="middle" x="360.5" y="-321" font-family="Courier,monospace" font-size="10.00">.register_pair</text>
</g>
<!-- handle_overflow -->
<g id="node12" class="node">
<title>handle_overflow</title>
<polygon fill="none" stroke="black" points="491,-192 387,-192 387,-156 491,-156 491,-192"/>
<text text-anchor="middle" x="439" y="-171.5" font-family="Courier,monospace" font-size="10.00">处理溢出寄存器情况</text>
</g>
<!-- switch_src_mcv&#45;&gt;handle_overflow -->
<g id="edge7" class="edge">
<title>switch_src_mcv&#45;&gt;handle_overflow</title>
<path fill="none" stroke="black" d="M418.52,-346.99C420.34,-327.08 423.58,-293.11 427,-264 429.44,-243.23 432.62,-219.78 435.09,-202.17"/>
<polygon fill="black" stroke="black" points="438.59,-202.43 436.53,-192.04 431.66,-201.45 438.59,-202.43"/>
<text text-anchor="middle" x="481.5" y="-279.5" font-family="Courier,monospace" font-size="10.00">.register_overflow</text>
</g>
<!-- handle_load_frame -->
<g id="node15" class="node">
<title>handle_load_frame</title>
<polygon fill="none" stroke="black" points="629.5,-300 544.5,-300 544.5,-264 629.5,-264 629.5,-300"/>
<text text-anchor="middle" x="587" y="-279.5" font-family="Courier,monospace" font-size="10.00">处理加载帧地址</text>
</g>
<!-- switch_src_mcv&#45;&gt;handle_load_frame -->
<g id="edge8" class="edge">
<title>switch_src_mcv&#45;&gt;handle_load_frame</title>
<path fill="none" stroke="black" d="M442.08,-352.05C468.31,-339.55 510.02,-319.68 541.98,-304.45"/>
<polygon fill="black" stroke="black" points="543.61,-307.55 551.13,-300.09 540.6,-301.23 543.61,-307.55"/>
<text text-anchor="middle" x="545.5" y="-321" font-family="Courier,monospace" font-size="10.00">.load_frame</text>
</g>
<!-- handle_else -->
<g id="node18" class="node">
<title>handle_else</title>
<ellipse fill="none" stroke="black" cx="658" cy="-228" rx="50.07" ry="18"/>
<text text-anchor="middle" x="658" y="-225.5" font-family="Courier,monospace" font-size="10.00">返回未实现错误</text>
</g>
<!-- switch_src_mcv&#45;&gt;handle_else -->
<g id="edge9" class="edge">
<title>switch_src_mcv&#45;&gt;handle_else</title>
<path fill="none" stroke="black" d="M465.27,-356.66C523.79,-346.7 617.29,-327 639,-300 648.88,-287.72 653.65,-270.76 655.94,-256.5"/>
<polygon fill="black" stroke="black" points="659.45,-256.6 657.25,-246.24 652.51,-255.71 659.45,-256.6"/>
<text text-anchor="middle" x="620" y="-321" font-family="Courier,monospace" font-size="10.00">其他</text>
</g>
<!-- reg_reuse_or_copy -->
<g id="node8" class="node">
<title>reg_reuse_or_copy</title>
<polygon fill="none" stroke="black" points="214.5,-192 71.5,-192 71.5,-156 214.5,-156 214.5,-192"/>
<text text-anchor="middle" x="143" y="-171.5" font-family="Courier,monospace" font-size="10.00">复用寄存器或复制到新寄存器</text>
</g>
<!-- handle_register&#45;&gt;reg_reuse_or_copy -->
<g id="edge10" class="edge">
<title>handle_register&#45;&gt;reg_reuse_or_copy</title>
<path fill="none" stroke="black" d="M179.93,-263.97C172.95,-247.15 162.17,-221.17 154.05,-201.62"/>
<polygon fill="black" stroke="black" points="157.26,-200.23 150.2,-192.34 150.8,-202.92 157.26,-200.23"/>
</g>
<!-- reg_shift_truncate -->
<g id="node7" class="node">
<title>reg_shift_truncate</title>
<polygon fill="none" stroke="black" points="104,-109 0,-109 0,-73 104,-73 104,-109"/>
<text text-anchor="middle" x="52" y="-88.5" font-family="Courier,monospace" font-size="10.00">处理移位和截断操作</text>
</g>
<!-- finish -->
<g id="node19" class="node">
<title>finish</title>
<ellipse fill="none" stroke="black" cx="411" cy="-18" rx="61.44" ry="18"/>
<text text-anchor="middle" x="411" y="-15.5" font-family="Courier,monospace" font-size="10.00">返回结果并清理资源</text>
</g>
<!-- reg_shift_truncate&#45;&gt;finish -->
<g id="edge12" class="edge">
<title>reg_shift_truncate&#45;&gt;finish</title>
<path fill="none" stroke="black" d="M82.61,-72.98C96.39,-66.04 113.12,-58.57 129,-54 199.21,-33.78 282.57,-25.24 340.37,-21.63"/>
<polygon fill="black" stroke="black" points="340.71,-25.12 350.49,-21.04 340.3,-18.13 340.71,-25.12"/>
</g>
<!-- reg_reuse_or_copy&#45;&gt;reg_shift_truncate -->
<g id="edge11" class="edge">
<title>reg_reuse_or_copy&#45;&gt;reg_shift_truncate</title>
<path fill="none" stroke="black" d="M71.47,-156.84C63.04,-152.09 55.5,-145.94 50,-138 46.24,-132.57 45.12,-125.84 45.32,-119.23"/>
<polygon fill="black" stroke="black" points="48.81,-119.48 46.54,-109.13 41.86,-118.64 48.81,-119.48"/>
<text text-anchor="middle" x="89.5" y="-130" font-family="Courier,monospace" font-size="10.00">field_off &gt; 0</text>
</g>
<!-- reg_reuse_or_copy&#45;&gt;finish -->
<g id="edge13" class="edge">
<title>reg_reuse_or_copy&#45;&gt;finish</title>
<path fill="none" stroke="black" d="M138.97,-155.77C134.92,-133.71 131.83,-95.65 152,-73 176.77,-45.18 274.1,-30.94 342.11,-24.23"/>
<polygon fill="black" stroke="black" points="342.72,-27.69 352.34,-23.26 342.05,-20.72 342.72,-27.69"/>
<text text-anchor="middle" x="194.5" y="-88.5" font-family="Courier,monospace" font-size="10.00">field_off == 0</text>
</g>
<!-- regpair_shift_split -->
<g id="node10" class="node">
<title>regpair_shift_split</title>
<polygon fill="none" stroke="black" points="368.5,-192 237.5,-192 237.5,-156 368.5,-156 368.5,-192"/>
<text text-anchor="middle" x="303" y="-171.5" font-family="Courier,monospace" font-size="10.00">处理64/128位分割与移位</text>
</g>
<!-- handle_register_pair&#45;&gt;regpair_shift_split -->
<g id="edge14" class="edge">
<title>handle_register_pair&#45;&gt;regpair_shift_split</title>
<path fill="none" stroke="black" d="M307.2,-263.97C306.41,-247.38 305.21,-221.88 304.29,-202.43"/>
<polygon fill="black" stroke="black" points="307.79,-202.16 303.82,-192.34 300.79,-202.49 307.79,-202.16"/>
</g>
<!-- regpair_reuse_or_alloc -->
<g id="node11" class="node">
<title>regpair_reuse_or_alloc</title>
<polygon fill="none" stroke="black" points="360,-109 246,-109 246,-73 360,-73 360,-109"/>
<text text-anchor="middle" x="303" y="-88.5" font-family="Courier,monospace" font-size="10.00">复用或分配新寄存器对</text>
</g>
<!-- regpair_shift_split&#45;&gt;regpair_reuse_or_alloc -->
<g id="edge15" class="edge">
<title>regpair_shift_split&#45;&gt;regpair_reuse_or_alloc</title>
<path fill="none" stroke="black" d="M303,-155.82C303,-145.19 303,-131.31 303,-119.2"/>
<polygon fill="black" stroke="black" points="306.5,-119.15 303,-109.15 299.5,-119.15 306.5,-119.15"/>
</g>
<!-- regpair_reuse_or_alloc&#45;&gt;finish -->
<g id="edge16" class="edge">
<title>regpair_reuse_or_alloc&#45;&gt;finish</title>
<path fill="none" stroke="black" d="M328.87,-72.99C343.82,-63.16 362.77,-50.71 378.7,-40.24"/>
<polygon fill="black" stroke="black" points="380.75,-43.07 387.19,-34.65 376.91,-37.22 380.75,-43.07"/>
</g>
<!-- overflow_get_value -->
<g id="node13" class="node">
<title>overflow_get_value</title>
<polygon fill="none" stroke="black" points="443.5,-109 378.5,-109 378.5,-73 443.5,-73 443.5,-109"/>
<text text-anchor="middle" x="411" y="-88.5" font-family="Courier,monospace" font-size="10.00">获取溢出值</text>
</g>
<!-- handle_overflow&#45;&gt;overflow_get_value -->
<g id="edge17" class="edge">
<title>handle_overflow&#45;&gt;overflow_get_value</title>
<path fill="none" stroke="black" d="M421.58,-155.91C417.28,-150.62 413.27,-144.46 411,-138 408.93,-132.11 408.13,-125.53 408.01,-119.23"/>
<polygon fill="black" stroke="black" points="411.51,-119.17 408.35,-109.06 404.52,-118.94 411.51,-119.17"/>
<text text-anchor="middle" x="441.5" y="-130" font-family="Courier,monospace" font-size="10.00">index == 0</text>
</g>
<!-- overflow_get_bit -->
<g id="node14" class="node">
<title>overflow_get_bit</title>
<polygon fill="none" stroke="black" points="526.5,-109 461.5,-109 461.5,-73 526.5,-73 526.5,-109"/>
<text text-anchor="middle" x="494" y="-88.5" font-family="Courier,monospace" font-size="10.00">获取溢出位</text>
</g>
<!-- handle_overflow&#45;&gt;overflow_get_bit -->
<g id="edge18" class="edge">
<title>handle_overflow&#45;&gt;overflow_get_bit</title>
<path fill="none" stroke="black" d="M457.27,-155.76C462.41,-150.37 467.75,-144.2 472,-138 476.1,-132.02 479.83,-125.15 483.01,-118.57"/>
<polygon fill="black" stroke="black" points="486.28,-119.85 487.25,-109.29 479.91,-116.94 486.28,-119.85"/>
<text text-anchor="middle" x="509.5" y="-130" font-family="Courier,monospace" font-size="10.00">index == 1</text>
</g>
<!-- overflow_get_value&#45;&gt;finish -->
<g id="edge19" class="edge">
<title>overflow_get_value&#45;&gt;finish</title>
<path fill="none" stroke="black" d="M411,-72.81C411,-64.79 411,-55.05 411,-46.07"/>
<polygon fill="black" stroke="black" points="414.5,-46.03 411,-36.03 407.5,-46.03 414.5,-46.03"/>
</g>
<!-- overflow_get_bit&#45;&gt;finish -->
<g id="edge20" class="edge">
<title>overflow_get_bit&#45;&gt;finish</title>
<path fill="none" stroke="black" d="M473.91,-72.81C463.07,-63.54 449.55,-51.98 437.83,-41.95"/>
<polygon fill="black" stroke="black" points="439.93,-39.14 430.05,-35.3 435.38,-44.46 439.93,-39.14"/>
</g>
<!-- frame_offset_calc -->
<g id="node16" class="node">
<title>frame_offset_calc</title>
<polygon fill="none" stroke="black" points="624.5,-192 549.5,-192 549.5,-156 624.5,-156 624.5,-192"/>
<text text-anchor="middle" x="587" y="-171.5" font-family="Courier,monospace" font-size="10.00">计算字段偏移</text>
</g>
<!-- handle_load_frame&#45;&gt;frame_offset_calc -->
<g id="edge21" class="edge">
<title>handle_load_frame&#45;&gt;frame_offset_calc</title>
<path fill="none" stroke="black" d="M587,-263.97C587,-247.38 587,-221.88 587,-202.43"/>
<polygon fill="black" stroke="black" points="590.5,-202.34 587,-192.34 583.5,-202.34 590.5,-202.34"/>
</g>
<!-- frame_load_ops -->
<g id="node17" class="node">
<title>frame_load_ops</title>
<polygon fill="none" stroke="black" points="629.5,-109 544.5,-109 544.5,-73 629.5,-73 629.5,-109"/>
<text text-anchor="middle" x="587" y="-88.5" font-family="Courier,monospace" font-size="10.00">加载并移位操作</text>
</g>
<!-- frame_offset_calc&#45;&gt;frame_load_ops -->
<g id="edge22" class="edge">
<title>frame_offset_calc&#45;&gt;frame_load_ops</title>
<path fill="none" stroke="black" d="M587,-155.82C587,-145.19 587,-131.31 587,-119.2"/>
<polygon fill="black" stroke="black" points="590.5,-119.15 587,-109.15 583.5,-119.15 590.5,-119.15"/>
</g>
<!-- frame_load_ops&#45;&gt;finish -->
<g id="edge23" class="edge">
<title>frame_load_ops&#45;&gt;finish</title>
<path fill="none" stroke="black" d="M544.84,-72.99C517.64,-62.02 482.34,-47.78 454.82,-36.68"/>
<polygon fill="black" stroke="black" points="456.01,-33.39 445.43,-32.89 453.4,-39.88 456.01,-33.39"/>
</g>
<!-- handle_else&#45;&gt;finish -->
<g id="edge24" class="edge">
<title>handle_else&#45;&gt;finish</title>
<path fill="none" stroke="black" d="M661.59,-209.67C667.01,-178.19 673.33,-111.32 639,-73 617.74,-49.26 537.09,-34.35 477.72,-26.36"/>
<polygon fill="black" stroke="black" points="478.01,-22.87 467.64,-25.04 477.1,-29.81 478.01,-22.87"/>
</g>
</g>
</svg>
