<?xml version="1.0" encoding="UTF-8" standalone="no"?>
<!DOCTYPE svg PUBLIC "-//W3C//DTD SVG 1.1//EN"
 "http://www.w3.org/Graphics/SVG/1.1/DTD/svg11.dtd">
<!-- Generated by graphviz version 2.43.0 (0)
 -->
<!-- Title: flowchart Pages: 1 -->
<svg width="457pt" height="875pt"
 viewBox="0.00 0.00 457.00 875.00" xmlns="http://www.w3.org/2000/svg" xmlns:xlink="http://www.w3.org/1999/xlink">
<g id="graph0" class="graph" transform="scale(1 1) rotate(0) translate(4 871)">
<title>flowchart</title>
<polygon fill="white" stroke="transparent" points="-4,4 -4,-871 453,-871 453,4 -4,4"/>
<g id="clust1" class="cluster">
<title>cluster_single</title>
<path fill="none" stroke="blue" d="M20,-81C20,-81 237,-81 237,-81 243,-81 249,-87 249,-93 249,-93 249,-395 249,-395 249,-401 243,-407 237,-407 237,-407 20,-407 20,-407 14,-407 8,-401 8,-395 8,-395 8,-93 8,-93 8,-87 14,-81 20,-81"/>
<text text-anchor="middle" x="128.5" y="-391.8" font-family="Times,serif" font-size="14.00">单 limb 处理</text>
</g>
<g id="clust2" class="cluster">
<title>cluster_multi</title>
<path fill="none" stroke="green" d="M269,-81C269,-81 429,-81 429,-81 435,-81 441,-87 441,-93 441,-93 441,-395 441,-395 441,-401 435,-407 429,-407 429,-407 269,-407 269,-407 263,-407 257,-401 257,-395 257,-395 257,-93 257,-93 257,-87 263,-81 269,-81"/>
<text text-anchor="middle" x="349" y="-391.8" font-family="Times,serif" font-size="14.00">多 limb 处理</text>
</g>
<!-- start -->
<g id="node1" class="node">
<title>start</title>
<path fill="none" stroke="black" d="M327,-867C327,-867 211,-867 211,-867 205,-867 199,-861 199,-855 199,-855 199,-843 199,-843 199,-837 205,-831 211,-831 211,-831 327,-831 327,-831 333,-831 339,-837 339,-843 339,-843 339,-855 339,-855 339,-861 333,-867 327,-867"/>
<text text-anchor="middle" x="269" y="-845.3" font-family="Arial" font-size="14.00">Start formatIntLiteral</text>
</g>
<!-- check_undef -->
<g id="node2" class="node">
<title>check_undef</title>
<path fill="none" stroke="black" d="M360.5,-794C360.5,-794 177.5,-794 177.5,-794 171.5,-794 165.5,-788 165.5,-782 165.5,-782 165.5,-770 165.5,-770 165.5,-764 171.5,-758 177.5,-758 177.5,-758 360.5,-758 360.5,-758 366.5,-758 372.5,-764 372.5,-770 372.5,-770 372.5,-782 372.5,-782 372.5,-788 366.5,-794 360.5,-794"/>
<text text-anchor="middle" x="269" y="-772.3" font-family="Arial" font-size="14.00">检查 data.val.isUndefDeep(zcu)</text>
</g>
<!-- start&#45;&gt;check_undef -->
<g id="edge1" class="edge">
<title>start&#45;&gt;check_undef</title>
<path fill="none" stroke="black" d="M269,-830.81C269,-822.79 269,-813.05 269,-804.07"/>
<polygon fill="black" stroke="black" points="272.5,-804.03 269,-794.03 265.5,-804.03 272.5,-804.03"/>
</g>
<!-- handle_undef -->
<g id="node3" class="node">
<title>handle_undef</title>
<path fill="none" stroke="black" d="M274.5,-707C274.5,-707 153.5,-707 153.5,-707 147.5,-707 141.5,-701 141.5,-695 141.5,-695 141.5,-681 141.5,-681 141.5,-675 147.5,-669 153.5,-669 153.5,-669 274.5,-669 274.5,-669 280.5,-669 286.5,-675 286.5,-681 286.5,-681 286.5,-695 286.5,-695 286.5,-701 280.5,-707 274.5,-707"/>
<text text-anchor="middle" x="214" y="-691.8" font-family="Arial" font-size="14.00">分配 undef_limbs</text>
<text text-anchor="middle" x="214" y="-676.8" font-family="Arial" font-size="14.00">初始化未定义大整数</text>
</g>
<!-- check_undef&#45;&gt;handle_undef -->
<g id="edge2" class="edge">
<title>check_undef&#45;&gt;handle_undef</title>
<path fill="none" stroke="black" d="M257.87,-757.6C250.2,-745.6 239.85,-729.42 231.13,-715.79"/>
<polygon fill="black" stroke="black" points="234.02,-713.81 225.68,-707.27 228.12,-717.58 234.02,-713.81"/>
<text text-anchor="middle" x="253.5" y="-728.8" font-family="Arial" font-size="14.00">是</text>
</g>
<!-- get_int -->
<g id="node4" class="node">
<title>get_int</title>
<path fill="none" stroke="black" d="M327.5,-632C327.5,-632 208.5,-632 208.5,-632 202.5,-632 196.5,-626 196.5,-620 196.5,-620 196.5,-606 196.5,-606 196.5,-600 202.5,-594 208.5,-594 208.5,-594 327.5,-594 327.5,-594 333.5,-594 339.5,-600 339.5,-606 339.5,-606 339.5,-620 339.5,-620 339.5,-626 333.5,-632 327.5,-632"/>
<text text-anchor="middle" x="268" y="-616.8" font-family="Arial" font-size="14.00">获取 int 值</text>
<text text-anchor="middle" x="268" y="-601.8" font-family="Arial" font-size="14.00">(int_buf 或 undef_int)</text>
</g>
<!-- check_undef&#45;&gt;get_int -->
<g id="edge3" class="edge">
<title>check_undef&#45;&gt;get_int</title>
<path fill="none" stroke="black" d="M278.64,-757.78C289.15,-736.84 303.53,-700.39 296,-669 293.72,-659.51 289.52,-649.81 285.06,-641.26"/>
<polygon fill="black" stroke="black" points="288.1,-639.53 280.18,-632.48 281.98,-642.93 288.1,-639.53"/>
<text text-anchor="middle" x="305.5" y="-684.3" font-family="Arial" font-size="14.00">否</text>
</g>
<!-- handle_undef&#45;&gt;get_int -->
<g id="edge4" class="edge">
<title>handle_undef&#45;&gt;get_int</title>
<path fill="none" stroke="black" d="M227.35,-668.96C233.77,-660.27 241.6,-649.69 248.66,-640.14"/>
<polygon fill="black" stroke="black" points="251.48,-642.21 254.62,-632.09 245.86,-638.05 251.48,-642.21"/>
</g>
<!-- check_c_limb_count -->
<g id="node5" class="node">
<title>check_c_limb_count</title>
<path fill="none" stroke="black" d="M336.5,-557C336.5,-557 199.5,-557 199.5,-557 193.5,-557 187.5,-551 187.5,-545 187.5,-545 187.5,-533 187.5,-533 187.5,-527 193.5,-521 199.5,-521 199.5,-521 336.5,-521 336.5,-521 342.5,-521 348.5,-527 348.5,-533 348.5,-533 348.5,-545 348.5,-545 348.5,-551 342.5,-557 336.5,-557"/>
<text text-anchor="middle" x="268" y="-535.3" font-family="Arial" font-size="14.00">c_limb_info.count == 1?</text>
</g>
<!-- get_int&#45;&gt;check_c_limb_count -->
<g id="edge5" class="edge">
<title>get_int&#45;&gt;check_c_limb_count</title>
<path fill="none" stroke="black" d="M268,-593.83C268,-585.89 268,-576.41 268,-567.63"/>
<polygon fill="black" stroke="black" points="271.5,-567.42 268,-557.42 264.5,-567.42 271.5,-567.42"/>
</g>
<!-- handle_single_limb -->
<g id="node6" class="node">
<title>handle_single_limb</title>
<path fill="none" stroke="black" d="M245,-470C245,-470 167,-470 167,-470 161,-470 155,-464 155,-458 155,-458 155,-446 155,-446 155,-440 161,-434 167,-434 167,-434 245,-434 245,-434 251,-434 257,-440 257,-446 257,-446 257,-458 257,-458 257,-464 251,-470 245,-470"/>
<text text-anchor="middle" x="206" y="-448.3" font-family="Arial" font-size="14.00">处理单个 limb</text>
</g>
<!-- check_c_limb_count&#45;&gt;handle_single_limb -->
<g id="edge6" class="edge">
<title>check_c_limb_count&#45;&gt;handle_single_limb</title>
<path fill="none" stroke="black" d="M255.45,-520.8C246.55,-508.59 234.44,-491.99 224.44,-478.28"/>
<polygon fill="black" stroke="black" points="227.25,-476.19 218.53,-470.18 221.59,-480.32 227.25,-476.19"/>
<text text-anchor="middle" x="247.5" y="-491.8" font-family="Arial" font-size="14.00">是</text>
</g>
<!-- handle_multi_limb -->
<g id="node7" class="node">
<title>handle_multi_limb</title>
<path fill="none" stroke="black" d="M375.5,-470C375.5,-470 290.5,-470 290.5,-470 284.5,-470 278.5,-464 278.5,-458 278.5,-458 278.5,-446 278.5,-446 278.5,-440 284.5,-434 290.5,-434 290.5,-434 375.5,-434 375.5,-434 381.5,-434 387.5,-440 387.5,-446 387.5,-446 387.5,-458 387.5,-458 387.5,-464 381.5,-470 375.5,-470"/>
<text text-anchor="middle" x="333" y="-448.3" font-family="Arial" font-size="14.00">处理多个 limbs</text>
</g>
<!-- check_c_limb_count&#45;&gt;handle_multi_limb -->
<g id="edge12" class="edge">
<title>check_c_limb_count&#45;&gt;handle_multi_limb</title>
<path fill="none" stroke="black" d="M281.15,-520.8C290.49,-508.59 303.18,-491.99 313.67,-478.28"/>
<polygon fill="black" stroke="black" points="316.57,-480.25 319.87,-470.18 311.01,-475.99 316.57,-480.25"/>
<text text-anchor="middle" x="311.5" y="-491.8" font-family="Arial" font-size="14.00">否</text>
</g>
<!-- check_overflow -->
<g id="node9" class="node">
<title>check_overflow</title>
<path fill="none" stroke="black" d="M227,-376C227,-376 149,-376 149,-376 143,-376 137,-370 137,-364 137,-364 137,-352 137,-352 137,-346 143,-340 149,-340 149,-340 227,-340 227,-340 233,-340 239,-346 239,-352 239,-352 239,-364 239,-364 239,-370 233,-376 227,-376"/>
<text text-anchor="middle" x="188" y="-354.3" font-family="Arial" font-size="14.00">检查加减溢出</text>
</g>
<!-- handle_single_limb&#45;&gt;check_overflow -->
<g id="edge7" class="edge">
<title>handle_single_limb&#45;&gt;check_overflow</title>
<path fill="none" stroke="black" d="M202.61,-433.7C200,-420.33 196.33,-401.59 193.33,-386.22"/>
<polygon fill="black" stroke="black" points="196.73,-385.37 191.37,-376.23 189.86,-386.71 196.73,-385.37"/>
</g>
<!-- convert_twoscomp -->
<g id="node14" class="node">
<title>convert_twoscomp</title>
<path fill="none" stroke="black" d="M382,-376C382,-376 290,-376 290,-376 284,-376 278,-370 278,-364 278,-364 278,-352 278,-352 278,-346 284,-340 290,-340 290,-340 382,-340 382,-340 388,-340 394,-346 394,-352 394,-352 394,-364 394,-364 394,-370 388,-376 382,-376"/>
<text text-anchor="middle" x="336" y="-354.3" font-family="Arial" font-size="14.00">转换为补码形式</text>
</g>
<!-- handle_multi_limb&#45;&gt;convert_twoscomp -->
<g id="edge13" class="edge">
<title>handle_multi_limb&#45;&gt;convert_twoscomp</title>
<path fill="none" stroke="black" d="M333.56,-433.7C334,-420.46 334.6,-401.95 335.1,-386.66"/>
<polygon fill="black" stroke="black" points="338.61,-386.34 335.44,-376.23 331.61,-386.11 338.61,-386.34"/>
</g>
<!-- end -->
<g id="node8" class="node">
<title>end</title>
<path fill="none" stroke="black" d="M213,-38C213,-38 163,-38 163,-38 157,-38 151,-32 151,-26 151,-26 151,-12 151,-12 151,-6 157,0 163,0 163,0 213,0 213,0 219,0 225,-6 225,-12 225,-12 225,-26 225,-26 225,-32 219,-38 213,-38"/>
<text text-anchor="middle" x="188" y="-22.8" font-family="Arial" font-size="14.00">渲染后缀</text>
<text text-anchor="middle" x="188" y="-7.8" font-family="Arial" font-size="14.00">结束</text>
</g>
<!-- write_minmax -->
<g id="node10" class="node">
<title>write_minmax</title>
<path fill="none" stroke="black" d="M229.5,-289C229.5,-289 146.5,-289 146.5,-289 140.5,-289 134.5,-283 134.5,-277 134.5,-277 134.5,-263 134.5,-263 134.5,-257 140.5,-251 146.5,-251 146.5,-251 229.5,-251 229.5,-251 235.5,-251 241.5,-257 241.5,-263 241.5,-263 241.5,-277 241.5,-277 241.5,-283 235.5,-289 229.5,-289"/>
<text text-anchor="middle" x="188" y="-273.8" font-family="Arial" font-size="14.00">输出 MAX/MIN</text>
<text text-anchor="middle" x="188" y="-258.8" font-family="Arial" font-size="14.00">或符号</text>
</g>
<!-- check_overflow&#45;&gt;write_minmax -->
<g id="edge8" class="edge">
<title>check_overflow&#45;&gt;write_minmax</title>
<path fill="none" stroke="black" d="M188,-339.6C188,-328.06 188,-312.65 188,-299.36"/>
<polygon fill="black" stroke="black" points="191.5,-299.27 188,-289.27 184.5,-299.27 191.5,-299.27"/>
<text text-anchor="middle" x="202.5" y="-310.8" font-family="Arial" font-size="14.00">溢出</text>
</g>
<!-- check_fmt -->
<g id="node11" class="node">
<title>check_fmt</title>
<path fill="none" stroke="black" d="M104,-288C104,-288 28,-288 28,-288 22,-288 16,-282 16,-276 16,-276 16,-264 16,-264 16,-258 22,-252 28,-252 28,-252 104,-252 104,-252 110,-252 116,-258 116,-264 116,-264 116,-276 116,-276 116,-282 110,-288 104,-288"/>
<text text-anchor="middle" x="66" y="-266.3" font-family="Arial" font-size="14.00">解析 fmt 参数</text>
</g>
<!-- check_overflow&#45;&gt;check_fmt -->
<g id="edge9" class="edge">
<title>check_overflow&#45;&gt;check_fmt</title>
<path fill="none" stroke="black" d="M163.6,-339.8C144.99,-326.68 119.15,-308.47 98.73,-294.07"/>
<polygon fill="black" stroke="black" points="100.54,-291.07 90.35,-288.17 96.51,-296.79 100.54,-291.07"/>
<text text-anchor="middle" x="158.5" y="-310.8" font-family="Arial" font-size="14.00">未溢出</text>
</g>
<!-- write_minmax&#45;&gt;end -->
<g id="edge17" class="edge">
<title>write_minmax&#45;&gt;end</title>
<path fill="none" stroke="black" d="M188,-250.69C188,-207.6 188,-99.53 188,-48.08"/>
<polygon fill="black" stroke="black" points="191.5,-48 188,-38 184.5,-48 191.5,-48"/>
</g>
<!-- handle_base -->
<g id="node12" class="node">
<title>handle_base</title>
<path fill="none" stroke="black" d="M111,-214C111,-214 33,-214 33,-214 27,-214 21,-208 21,-202 21,-202 21,-188 21,-188 21,-182 27,-176 33,-176 33,-176 111,-176 111,-176 117,-176 123,-182 123,-188 123,-188 123,-202 123,-202 123,-208 117,-214 111,-214"/>
<text text-anchor="middle" x="72" y="-198.8" font-family="Arial" font-size="14.00">添加进制前缀</text>
<text text-anchor="middle" x="72" y="-183.8" font-family="Arial" font-size="14.00">(0x, 0b)</text>
</g>
<!-- check_fmt&#45;&gt;handle_base -->
<g id="edge10" class="edge">
<title>check_fmt&#45;&gt;handle_base</title>
<path fill="none" stroke="black" d="M67.42,-251.7C68.1,-243.49 68.92,-233.47 69.68,-224.2"/>
<polygon fill="black" stroke="black" points="73.17,-224.45 70.5,-214.19 66.2,-223.87 73.17,-224.45"/>
</g>
<!-- write_number -->
<g id="node13" class="node">
<title>write_number</title>
<path fill="none" stroke="black" d="M139,-125C139,-125 47,-125 47,-125 41,-125 35,-119 35,-113 35,-113 35,-101 35,-101 35,-95 41,-89 47,-89 47,-89 139,-89 139,-89 145,-89 151,-95 151,-101 151,-101 151,-113 151,-113 151,-119 145,-125 139,-125"/>
<text text-anchor="middle" x="93" y="-103.3" font-family="Arial" font-size="14.00">写入数值字符串</text>
</g>
<!-- handle_base&#45;&gt;write_number -->
<g id="edge11" class="edge">
<title>handle_base&#45;&gt;write_number</title>
<path fill="none" stroke="black" d="M76.45,-175.76C79.34,-163.93 83.16,-148.32 86.39,-135.05"/>
<polygon fill="black" stroke="black" points="89.87,-135.59 88.84,-125.04 83.07,-133.93 89.87,-135.59"/>
</g>
<!-- write_number&#45;&gt;end -->
<g id="edge18" class="edge">
<title>write_number&#45;&gt;end</title>
<path fill="none" stroke="black" d="M112.22,-88.6C125.98,-76.14 144.72,-59.18 160.12,-45.24"/>
<polygon fill="black" stroke="black" points="162.76,-47.57 167.82,-38.27 158.06,-42.38 162.76,-47.57"/>
</g>
<!-- init_limbs -->
<g id="node15" class="node">
<title>init_limbs</title>
<path fill="none" stroke="black" d="M421.5,-288C421.5,-288 276.5,-288 276.5,-288 270.5,-288 264.5,-282 264.5,-276 264.5,-276 264.5,-264 264.5,-264 264.5,-258 270.5,-252 276.5,-252 276.5,-252 421.5,-252 421.5,-252 427.5,-252 433.5,-258 433.5,-264 433.5,-264 433.5,-276 433.5,-276 433.5,-282 427.5,-288 421.5,-288"/>
<text text-anchor="middle" x="349" y="-266.3" font-family="Arial" font-size="14.00">初始化 limbs_per_c_limb</text>
</g>
<!-- convert_twoscomp&#45;&gt;init_limbs -->
<g id="edge14" class="edge">
<title>convert_twoscomp&#45;&gt;init_limbs</title>
<path fill="none" stroke="black" d="M338.63,-339.6C340.42,-327.75 342.83,-311.82 344.87,-298.29"/>
<polygon fill="black" stroke="black" points="348.38,-298.49 346.42,-288.08 341.46,-297.45 348.38,-298.49"/>
</g>
<!-- loop_limbs -->
<g id="node16" class="node">
<title>loop_limbs</title>
<path fill="none" stroke="black" d="M401.5,-213C401.5,-213 294.5,-213 294.5,-213 288.5,-213 282.5,-207 282.5,-201 282.5,-201 282.5,-189 282.5,-189 282.5,-183 288.5,-177 294.5,-177 294.5,-177 401.5,-177 401.5,-177 407.5,-177 413.5,-183 413.5,-189 413.5,-189 413.5,-201 413.5,-201 413.5,-207 407.5,-213 401.5,-213"/>
<text text-anchor="middle" x="348" y="-191.3" font-family="Arial" font-size="14.00">循环处理每个 limb</text>
</g>
<!-- init_limbs&#45;&gt;loop_limbs -->
<g id="edge15" class="edge">
<title>init_limbs&#45;&gt;loop_limbs</title>
<path fill="none" stroke="black" d="M348.76,-251.7C348.65,-243.25 348.51,-232.87 348.37,-223.37"/>
<polygon fill="black" stroke="black" points="351.87,-223.13 348.24,-213.18 344.87,-223.22 351.87,-223.13"/>
</g>
<!-- recursive_call -->
<g id="node17" class="node">
<title>recursive_call</title>
<path fill="none" stroke="black" d="M419.5,-125C419.5,-125 276.5,-125 276.5,-125 270.5,-125 264.5,-119 264.5,-113 264.5,-113 264.5,-101 264.5,-101 264.5,-95 270.5,-89 276.5,-89 276.5,-89 419.5,-89 419.5,-89 425.5,-89 431.5,-95 431.5,-101 431.5,-101 431.5,-113 431.5,-113 431.5,-119 425.5,-125 419.5,-125"/>
<text text-anchor="middle" x="348" y="-103.3" font-family="Arial" font-size="14.00">递归调用 formatIntLiteral</text>
</g>
<!-- loop_limbs&#45;&gt;recursive_call -->
<g id="edge16" class="edge">
<title>loop_limbs&#45;&gt;recursive_call</title>
<path fill="none" stroke="black" d="M348,-176.6C348,-164.75 348,-148.82 348,-135.29"/>
<polygon fill="black" stroke="black" points="351.5,-135.08 348,-125.08 344.5,-135.08 351.5,-135.08"/>
<text text-anchor="middle" x="391" y="-146.8" font-family="Arial" font-size="14.00">处理每个 limb</text>
</g>
<!-- recursive_call&#45;&gt;end -->
<g id="edge19" class="edge">
<title>recursive_call&#45;&gt;end</title>
<path fill="none" stroke="black" d="M316.01,-88.8C291.53,-75.65 257.55,-57.38 230.75,-42.98"/>
<polygon fill="black" stroke="black" points="232.06,-39.71 221.59,-38.06 228.74,-45.87 232.06,-39.71"/>
<text text-anchor="middle" x="325" y="-59.8" font-family="Arial" font-size="14.00">完成所有 limb</text>
</g>
</g>
</svg>
