<?xml version="1.0" encoding="UTF-8" standalone="no"?>
<!DOCTYPE svg PUBLIC "-//W3C//DTD SVG 1.1//EN"
 "http://www.w3.org/Graphics/SVG/1.1/DTD/svg11.dtd">
<!-- Generated by graphviz version 2.43.0 (0)
 -->
<!-- Title: flowchart Pages: 1 -->
<svg width="375pt" height="533pt"
 viewBox="0.00 0.00 375.00 533.00" xmlns="http://www.w3.org/2000/svg" xmlns:xlink="http://www.w3.org/1999/xlink">
<g id="graph0" class="graph" transform="scale(1 1) rotate(0) translate(4 529)">
<title>flowchart</title>
<polygon fill="white" stroke="transparent" points="-4,4 -4,-529 371,-529 371,4 -4,4"/>
<!-- start -->
<g id="node1" class="node">
<title>start</title>
<path fill="none" stroke="black" d="M110,-525C110,-525 32,-525 32,-525 26,-525 20,-519 20,-513 20,-513 20,-501 20,-501 20,-495 26,-489 32,-489 32,-489 110,-489 110,-489 116,-489 122,-495 122,-501 122,-501 122,-513 122,-513 122,-519 116,-525 110,-525"/>
<text text-anchor="middle" x="71" y="-503.3" font-family="Helvetica,sans-Serif" font-size="14.00">开始 airStore</text>
</g>
<!-- check_val_undef -->
<g id="node2" class="node">
<title>check_val_undef</title>
<path fill="none" stroke="black" d="M126,-452C126,-452 16,-452 16,-452 10,-452 4,-446 4,-440 4,-440 4,-428 4,-428 4,-422 10,-416 16,-416 16,-416 126,-416 126,-416 132,-416 138,-422 138,-428 138,-428 138,-440 138,-440 138,-446 132,-452 126,-452"/>
<text text-anchor="middle" x="71" y="-430.3" font-family="Helvetica,sans-Serif" font-size="14.00">检查 val_is_undef</text>
</g>
<!-- start&#45;&gt;check_val_undef -->
<g id="edge1" class="edge">
<title>start&#45;&gt;check_val_undef</title>
<path fill="none" stroke="black" d="M71,-488.81C71,-480.79 71,-471.05 71,-462.07"/>
<polygon fill="black" stroke="black" points="74.5,-462.03 71,-452.03 67.5,-462.03 74.5,-462.03"/>
</g>
<!-- handle_undef -->
<g id="node3" class="node">
<title>handle_undef</title>
<path fill="none" stroke="black" d="M92,-309C92,-309 12,-309 12,-309 6,-309 0,-303 0,-297 0,-297 0,-283 0,-283 0,-277 6,-271 12,-271 12,-271 92,-271 92,-271 98,-271 104,-277 104,-283 104,-283 104,-297 104,-297 104,-303 98,-309 92,-309"/>
<text text-anchor="middle" x="52" y="-293.8" font-family="Helvetica,sans-Serif" font-size="14.00">调用 memset</text>
<text text-anchor="middle" x="52" y="-278.8" font-family="Helvetica,sans-Serif" font-size="14.00">释放操作数</text>
</g>
<!-- check_val_undef&#45;&gt;handle_undef -->
<g id="edge2" class="edge">
<title>check_val_undef&#45;&gt;handle_undef</title>
<path fill="none" stroke="black" d="M68.71,-415.87C65.5,-391.93 59.65,-348.17 55.79,-319.33"/>
<polygon fill="black" stroke="black" points="59.22,-318.53 54.42,-309.08 52.28,-319.46 59.22,-318.53"/>
<text text-anchor="middle" x="74.5" y="-386.8" font-family="Helvetica,sans-Serif" font-size="14.00">是</text>
</g>
<!-- check_need_memcpy -->
<g id="node4" class="node">
<title>check_need_memcpy</title>
<path fill="none" stroke="black" d="M216.5,-365C216.5,-365 91.5,-365 91.5,-365 85.5,-365 79.5,-359 79.5,-353 79.5,-353 79.5,-339 79.5,-339 79.5,-333 85.5,-327 91.5,-327 91.5,-327 216.5,-327 216.5,-327 222.5,-327 228.5,-333 228.5,-339 228.5,-339 228.5,-353 228.5,-353 228.5,-359 222.5,-365 216.5,-365"/>
<text text-anchor="middle" x="154" y="-349.8" font-family="Helvetica,sans-Serif" font-size="14.00">判断 need_memcpy</text>
<text text-anchor="middle" x="154" y="-334.8" font-family="Helvetica,sans-Serif" font-size="14.00">(对齐/数组类型)</text>
</g>
<!-- check_val_undef&#45;&gt;check_need_memcpy -->
<g id="edge3" class="edge">
<title>check_val_undef&#45;&gt;check_need_memcpy</title>
<path fill="none" stroke="black" d="M87.8,-415.6C99.71,-403.26 115.89,-386.49 129.27,-372.63"/>
<polygon fill="black" stroke="black" points="131.94,-374.89 136.37,-365.27 126.91,-370.03 131.94,-374.89"/>
<text text-anchor="middle" x="124.5" y="-386.8" font-family="Helvetica,sans-Serif" font-size="14.00">否</text>
</g>
<!-- end -->
<g id="node9" class="node">
<title>end</title>
<path fill="none" stroke="black" d="M182.5,-36C182.5,-36 117.5,-36 117.5,-36 111.5,-36 105.5,-30 105.5,-24 105.5,-24 105.5,-12 105.5,-12 105.5,-6 111.5,0 117.5,0 117.5,0 182.5,0 182.5,0 188.5,0 194.5,-6 194.5,-12 194.5,-12 194.5,-24 194.5,-24 194.5,-30 188.5,-36 182.5,-36"/>
<text text-anchor="middle" x="150" y="-14.3" font-family="Helvetica,sans-Serif" font-size="14.00">返回 .none</text>
</g>
<!-- handle_undef&#45;&gt;end -->
<g id="edge4" class="edge">
<title>handle_undef&#45;&gt;end</title>
<path fill="none" stroke="black" d="M51.33,-270.99C50.88,-242.97 52.31,-187.61 68,-144 81.67,-105.99 109.03,-67.99 128.38,-44.04"/>
<polygon fill="black" stroke="black" points="131.2,-46.12 134.85,-36.18 125.8,-41.67 131.2,-46.12"/>
</g>
<!-- handle_memcpy -->
<g id="node5" class="node">
<title>handle_memcpy</title>
<path fill="none" stroke="black" d="M168,-197C168,-197 84,-197 84,-197 78,-197 72,-191 72,-185 72,-185 72,-156 72,-156 72,-150 78,-144 84,-144 84,-144 168,-144 168,-144 174,-144 180,-150 180,-156 180,-156 180,-185 180,-185 180,-191 174,-197 168,-197"/>
<text text-anchor="middle" x="126" y="-181.8" font-family="Helvetica,sans-Serif" font-size="14.00">处理 memcpy</text>
<text text-anchor="middle" x="126" y="-166.8" font-family="Helvetica,sans-Serif" font-size="14.00">处理常量源</text>
<text text-anchor="middle" x="126" y="-151.8" font-family="Helvetica,sans-Serif" font-size="14.00">向量化操作</text>
</g>
<!-- check_need_memcpy&#45;&gt;handle_memcpy -->
<g id="edge5" class="edge">
<title>check_need_memcpy&#45;&gt;handle_memcpy</title>
<path fill="none" stroke="black" d="M149.67,-326.74C148.4,-321.07 147.06,-314.79 146,-309 139.69,-274.6 134.11,-235.07 130.46,-207.24"/>
<polygon fill="black" stroke="black" points="133.91,-206.66 129.16,-197.19 126.97,-207.55 133.91,-206.66"/>
<text text-anchor="middle" x="160.5" y="-286.3" font-family="Helvetica,sans-Serif" font-size="14.00">需要</text>
</g>
<!-- check_packed_offset -->
<g id="node6" class="node">
<title>check_packed_offset</title>
<path fill="none" stroke="black" d="M286.5,-253C286.5,-253 167.5,-253 167.5,-253 161.5,-253 155.5,-247 155.5,-241 155.5,-241 155.5,-227 155.5,-227 155.5,-221 161.5,-215 167.5,-215 167.5,-215 286.5,-215 286.5,-215 292.5,-215 298.5,-221 298.5,-227 298.5,-227 298.5,-241 298.5,-241 298.5,-247 292.5,-253 286.5,-253"/>
<text text-anchor="middle" x="227" y="-237.8" font-family="Helvetica,sans-Serif" font-size="14.00">检查 packed_offset</text>
<text text-anchor="middle" x="227" y="-222.8" font-family="Helvetica,sans-Serif" font-size="14.00">和 host_size</text>
</g>
<!-- check_need_memcpy&#45;&gt;check_packed_offset -->
<g id="edge6" class="edge">
<title>check_need_memcpy&#45;&gt;check_packed_offset</title>
<path fill="none" stroke="black" d="M166.05,-326.84C177.84,-309.08 195.91,-281.85 209.32,-261.65"/>
<polygon fill="black" stroke="black" points="212.31,-263.46 214.93,-253.19 206.48,-259.59 212.31,-263.46"/>
<text text-anchor="middle" x="222.5" y="-286.3" font-family="Helvetica,sans-Serif" font-size="14.00">不需要</text>
</g>
<!-- handle_memcpy&#45;&gt;end -->
<g id="edge9" class="edge">
<title>handle_memcpy&#45;&gt;end</title>
<path fill="none" stroke="black" d="M130.07,-143.97C134.39,-116.87 141.2,-74.21 145.63,-46.41"/>
<polygon fill="black" stroke="black" points="149.14,-46.63 147.26,-36.2 142.23,-45.53 149.14,-46.63"/>
</g>
<!-- handle_bitops -->
<g id="node7" class="node">
<title>handle_bitops</title>
<path fill="none" stroke="black" d="M231.5,-126C231.5,-126 166.5,-126 166.5,-126 160.5,-126 154.5,-120 154.5,-114 154.5,-114 154.5,-85 154.5,-85 154.5,-79 160.5,-73 166.5,-73 166.5,-73 231.5,-73 231.5,-73 237.5,-73 243.5,-79 243.5,-85 243.5,-85 243.5,-114 243.5,-114 243.5,-120 237.5,-126 231.5,-126"/>
<text text-anchor="middle" x="199" y="-110.8" font-family="Helvetica,sans-Serif" font-size="14.00">处理位操作</text>
<text text-anchor="middle" x="199" y="-95.8" font-family="Helvetica,sans-Serif" font-size="14.00">(掩码/位移)</text>
<text text-anchor="middle" x="199" y="-80.8" font-family="Helvetica,sans-Serif" font-size="14.00">向量化操作</text>
</g>
<!-- check_packed_offset&#45;&gt;handle_bitops -->
<g id="edge7" class="edge">
<title>check_packed_offset&#45;&gt;handle_bitops</title>
<path fill="none" stroke="black" d="M212.86,-214.87C209.33,-209.41 205.99,-203.22 204,-197 197.77,-177.55 196.33,-154.76 196.54,-136.22"/>
<polygon fill="black" stroke="black" points="200.04,-136.22 196.82,-126.13 193.04,-136.03 200.04,-136.22"/>
<text text-anchor="middle" x="247" y="-174.3" font-family="Helvetica,sans-Serif" font-size="14.00">host_size&gt;0</text>
<text text-anchor="middle" x="247" y="-159.3" font-family="Helvetica,sans-Serif" font-size="14.00">且非向量索引</text>
</g>
<!-- default_assign -->
<g id="node8" class="node">
<title>default_assign</title>
<path fill="none" stroke="black" d="M351,-118.5C351,-118.5 273,-118.5 273,-118.5 267,-118.5 261,-112.5 261,-106.5 261,-106.5 261,-92.5 261,-92.5 261,-86.5 267,-80.5 273,-80.5 273,-80.5 351,-80.5 351,-80.5 357,-80.5 363,-86.5 363,-92.5 363,-92.5 363,-106.5 363,-106.5 363,-112.5 357,-118.5 351,-118.5"/>
<text text-anchor="middle" x="312" y="-103.3" font-family="Helvetica,sans-Serif" font-size="14.00">普通赋值操作</text>
<text text-anchor="middle" x="312" y="-88.3" font-family="Helvetica,sans-Serif" font-size="14.00">向量化操作</text>
</g>
<!-- check_packed_offset&#45;&gt;default_assign -->
<g id="edge8" class="edge">
<title>check_packed_offset&#45;&gt;default_assign</title>
<path fill="none" stroke="black" d="M270.13,-214.82C277.66,-209.99 284.75,-204.08 290,-197 304.64,-177.25 309.79,-149.44 311.48,-128.74"/>
<polygon fill="black" stroke="black" points="314.98,-128.84 312.08,-118.65 307.99,-128.42 314.98,-128.84"/>
<text text-anchor="middle" x="338" y="-166.8" font-family="Helvetica,sans-Serif" font-size="14.00">其他情况</text>
</g>
<!-- handle_bitops&#45;&gt;end -->
<g id="edge10" class="edge">
<title>handle_bitops&#45;&gt;end</title>
<path fill="none" stroke="black" d="M183.23,-72.91C177.69,-63.92 171.46,-53.82 165.91,-44.82"/>
<polygon fill="black" stroke="black" points="168.86,-42.93 160.64,-36.26 162.9,-46.61 168.86,-42.93"/>
</g>
<!-- default_assign&#45;&gt;end -->
<g id="edge11" class="edge">
<title>default_assign&#45;&gt;end</title>
<path fill="none" stroke="black" d="M275.24,-80.46C251.05,-68.59 219.25,-52.99 193.76,-40.47"/>
<polygon fill="black" stroke="black" points="195.19,-37.28 184.67,-36.02 192.11,-43.56 195.19,-37.28"/>
</g>
</g>
</svg>
