<?xml version="1.0" encoding="UTF-8" standalone="no"?>
<!DOCTYPE svg PUBLIC "-//W3C//DTD SVG 1.1//EN"
 "http://www.w3.org/Graphics/SVG/1.1/DTD/svg11.dtd">
<!-- Generated by graphviz version 2.43.0 (0)
 -->
<!-- Title: flowchart Pages: 1 -->
<svg width="858pt" height="1302pt"
 viewBox="0.00 0.00 857.50 1302.00" xmlns="http://www.w3.org/2000/svg" xmlns:xlink="http://www.w3.org/1999/xlink">
<g id="graph0" class="graph" transform="scale(1 1) rotate(0) translate(4 1298)">
<title>flowchart</title>
<polygon fill="white" stroke="transparent" points="-4,4 -4,-1298 853.5,-1298 853.5,4 -4,4"/>
<!-- start -->
<g id="node1" class="node">
<title>start</title>
<path fill="none" stroke="black" d="M173,-1294C173,-1294 74,-1294 74,-1294 68,-1294 62,-1288 62,-1282 62,-1282 62,-1270 62,-1270 62,-1264 68,-1258 74,-1258 74,-1258 173,-1258 173,-1258 179,-1258 185,-1264 185,-1270 185,-1270 185,-1282 185,-1282 185,-1288 179,-1294 173,-1294"/>
<text text-anchor="middle" x="123.5" y="-1272.3" font-family="Arial" font-size="14.00">开始 airAsm 函数</text>
</g>
<!-- parse_extra -->
<g id="node2" class="node">
<title>parse_extra</title>
<path fill="none" stroke="black" d="M214,-1221C214,-1221 33,-1221 33,-1221 27,-1221 21,-1215 21,-1209 21,-1209 21,-1195 21,-1195 21,-1189 27,-1183 33,-1183 33,-1183 214,-1183 214,-1183 220,-1183 226,-1189 226,-1195 226,-1195 226,-1209 226,-1209 226,-1215 220,-1221 214,-1221"/>
<text text-anchor="middle" x="123.5" y="-1205.8" font-family="Arial" font-size="14.00">解析 extra 数据</text>
<text text-anchor="middle" x="123.5" y="-1190.8" font-family="Arial" font-size="14.00">获取 is_volatile 和 clobbers_len</text>
</g>
<!-- start&#45;&gt;parse_extra -->
<g id="edge1" class="edge">
<title>start&#45;&gt;parse_extra</title>
<path fill="none" stroke="black" d="M123.5,-1257.94C123.5,-1249.99 123.5,-1240.31 123.5,-1231.31"/>
<polygon fill="black" stroke="black" points="127,-1231.2 123.5,-1221.2 120,-1231.2 127,-1231.2"/>
</g>
<!-- get_outputs_inputs -->
<g id="node3" class="node">
<title>get_outputs_inputs</title>
<path fill="none" stroke="black" d="M235,-1146C235,-1146 12,-1146 12,-1146 6,-1146 0,-1140 0,-1134 0,-1134 0,-1122 0,-1122 0,-1116 6,-1110 12,-1110 12,-1110 235,-1110 235,-1110 241,-1110 247,-1116 247,-1122 247,-1122 247,-1134 247,-1134 247,-1140 241,-1146 235,-1146"/>
<text text-anchor="middle" x="123.5" y="-1124.3" font-family="Arial" font-size="14.00">从 extra 中提取 outputs 和 inputs 数组</text>
</g>
<!-- parse_extra&#45;&gt;get_outputs_inputs -->
<g id="edge2" class="edge">
<title>parse_extra&#45;&gt;get_outputs_inputs</title>
<path fill="none" stroke="black" d="M123.5,-1182.83C123.5,-1174.89 123.5,-1165.41 123.5,-1156.63"/>
<polygon fill="black" stroke="black" points="127,-1156.42 123.5,-1146.42 120,-1156.42 127,-1156.42"/>
</g>
<!-- handle_result_block -->
<g id="node4" class="node">
<title>handle_result_block</title>
<path fill="none" stroke="black" d="M175.5,-1073C175.5,-1073 71.5,-1073 71.5,-1073 65.5,-1073 59.5,-1067 59.5,-1061 59.5,-1061 59.5,-1049 59.5,-1049 59.5,-1043 65.5,-1037 71.5,-1037 71.5,-1037 175.5,-1037 175.5,-1037 181.5,-1037 187.5,-1043 187.5,-1049 187.5,-1049 187.5,-1061 187.5,-1061 187.5,-1067 181.5,-1073 175.5,-1073"/>
<text text-anchor="middle" x="123.5" y="-1051.3" font-family="Arial" font-size="14.00">处理 result 代码块</text>
</g>
<!-- get_outputs_inputs&#45;&gt;handle_result_block -->
<g id="edge3" class="edge">
<title>get_outputs_inputs&#45;&gt;handle_result_block</title>
<path fill="none" stroke="black" d="M123.5,-1109.81C123.5,-1101.79 123.5,-1092.05 123.5,-1083.07"/>
<polygon fill="black" stroke="black" points="127,-1083.03 123.5,-1073.03 120,-1083.03 127,-1083.03"/>
</g>
<!-- check_inst_ty -->
<g id="node5" class="node">
<title>check_inst_ty</title>
<path fill="none" stroke="black" d="M214,-1000C214,-1000 33,-1000 33,-1000 27,-1000 21,-994 21,-988 21,-988 21,-976 21,-976 21,-970 27,-964 33,-964 33,-964 214,-964 214,-964 220,-964 226,-970 226,-976 226,-976 226,-988 226,-988 226,-994 220,-1000 214,-1000"/>
<text text-anchor="middle" x="123.5" y="-978.3" font-family="Arial" font-size="14.00">检查 inst_ty 是否有运行时类型</text>
</g>
<!-- handle_result_block&#45;&gt;check_inst_ty -->
<g id="edge4" class="edge">
<title>handle_result_block&#45;&gt;check_inst_ty</title>
<path fill="none" stroke="black" d="M123.5,-1036.81C123.5,-1028.79 123.5,-1019.05 123.5,-1010.07"/>
<polygon fill="black" stroke="black" points="127,-1010.03 123.5,-1000.03 120,-1010.03 127,-1010.03"/>
</g>
<!-- alloc_inst_local -->
<g id="node6" class="node">
<title>alloc_inst_local</title>
<path fill="none" stroke="black" d="M365,-913C365,-913 224,-913 224,-913 218,-913 212,-907 212,-901 212,-901 212,-889 212,-889 212,-883 218,-877 224,-877 224,-877 365,-877 365,-877 371,-877 377,-883 377,-889 377,-889 377,-901 377,-901 377,-907 371,-913 365,-913"/>
<text text-anchor="middle" x="294.5" y="-891.3" font-family="Arial" font-size="14.00">分配 inst_local 并初始化</text>
</g>
<!-- check_inst_ty&#45;&gt;alloc_inst_local -->
<g id="edge5" class="edge">
<title>check_inst_ty&#45;&gt;alloc_inst_local</title>
<path fill="none" stroke="black" d="M158.1,-963.8C184.96,-950.45 222.36,-931.86 251.2,-917.52"/>
<polygon fill="black" stroke="black" points="252.84,-920.62 260.24,-913.03 249.73,-914.35 252.84,-920.62"/>
<text text-anchor="middle" x="262.5" y="-934.8" font-family="Arial" font-size="14.00">有运行时类型</text>
</g>
<!-- handle_outputs -->
<g id="node7" class="node">
<title>handle_outputs</title>
<path fill="none" stroke="black" d="M153.5,-826C153.5,-826 85.5,-826 85.5,-826 79.5,-826 73.5,-820 73.5,-814 73.5,-814 73.5,-802 73.5,-802 73.5,-796 79.5,-790 85.5,-790 85.5,-790 153.5,-790 153.5,-790 159.5,-790 165.5,-796 165.5,-802 165.5,-802 165.5,-814 165.5,-814 165.5,-820 159.5,-826 153.5,-826"/>
<text text-anchor="middle" x="119.5" y="-804.3" font-family="Arial" font-size="14.00">遍历 outputs</text>
</g>
<!-- check_inst_ty&#45;&gt;handle_outputs -->
<g id="edge6" class="edge">
<title>check_inst_ty&#45;&gt;handle_outputs</title>
<path fill="none" stroke="black" d="M121.26,-963.99C119.57,-950.26 117.39,-930.42 116.5,-913 115.17,-887.04 116.28,-857.4 117.51,-836.42"/>
<polygon fill="black" stroke="black" points="121.01,-836.51 118.15,-826.31 114.03,-836.07 121.01,-836.51"/>
<text text-anchor="middle" x="159.5" y="-891.3" font-family="Arial" font-size="14.00">无运行时类型</text>
</g>
<!-- alloc_inst_local&#45;&gt;handle_outputs -->
<g id="edge7" class="edge">
<title>alloc_inst_local&#45;&gt;handle_outputs</title>
<path fill="none" stroke="black" d="M251.92,-876.99C238.83,-871.51 224.46,-865.24 211.5,-859 193.84,-850.5 174.73,-840.29 158.53,-831.32"/>
<polygon fill="black" stroke="black" points="159.8,-828.02 149.36,-826.2 156.39,-834.13 159.8,-828.02"/>
</g>
<!-- check_output_constraint -->
<g id="node8" class="node">
<title>check_output_constraint</title>
<path fill="none" stroke="black" d="M289,-739C289,-739 170,-739 170,-739 164,-739 158,-733 158,-727 158,-727 158,-713 158,-713 158,-707 164,-701 170,-701 170,-701 289,-701 289,-701 295,-701 301,-707 301,-713 301,-713 301,-727 301,-727 301,-733 295,-739 289,-739"/>
<text text-anchor="middle" x="229.5" y="-723.8" font-family="Arial" font-size="14.00">检查约束格式</text>
<text text-anchor="middle" x="229.5" y="-708.8" font-family="Arial" font-size="14.00">约束是否以 &#39;={&#39; 开头</text>
</g>
<!-- handle_outputs&#45;&gt;check_output_constraint -->
<g id="edge8" class="edge">
<title>handle_outputs&#45;&gt;check_output_constraint</title>
<path fill="none" stroke="black" d="M103.32,-789.71C95.81,-779.54 90.02,-766.8 97.5,-757 101.21,-752.15 123.25,-745.38 148.29,-739.02"/>
<polygon fill="black" stroke="black" points="149.14,-742.42 158,-736.61 147.45,-735.63 149.14,-742.42"/>
<text text-anchor="middle" x="161" y="-760.8" font-family="Arial" font-size="14.00">循环处理每个 output</text>
</g>
<!-- handle_inputs -->
<g id="node10" class="node">
<title>handle_inputs</title>
<path fill="none" stroke="black" d="M449.5,-826C449.5,-826 389.5,-826 389.5,-826 383.5,-826 377.5,-820 377.5,-814 377.5,-814 377.5,-802 377.5,-802 377.5,-796 383.5,-790 389.5,-790 389.5,-790 449.5,-790 449.5,-790 455.5,-790 461.5,-796 461.5,-802 461.5,-802 461.5,-814 461.5,-814 461.5,-820 455.5,-826 449.5,-826"/>
<text text-anchor="middle" x="419.5" y="-804.3" font-family="Arial" font-size="14.00">遍历 inputs</text>
</g>
<!-- handle_outputs&#45;&gt;handle_inputs -->
<g id="edge12" class="edge">
<title>handle_outputs&#45;&gt;handle_inputs</title>
<path fill="none" stroke="black" d="M149.88,-826.02C168.2,-835.82 192.39,-846.96 215.5,-852 238.51,-857.02 298.47,-856.93 321.5,-852 341.35,-847.75 362.04,-839.16 379.26,-830.69"/>
<polygon fill="black" stroke="black" points="381.11,-833.67 388.44,-826.02 377.94,-827.43 381.11,-833.67"/>
<text text-anchor="middle" x="268.5" y="-847.8" font-family="Arial" font-size="14.00">outputs 处理完成</text>
</g>
<!-- alloc_output_local -->
<g id="node9" class="node">
<title>alloc_output_local</title>
<path fill="none" stroke="black" d="M135.5,-650C135.5,-650 37.5,-650 37.5,-650 31.5,-650 25.5,-644 25.5,-638 25.5,-638 25.5,-624 25.5,-624 25.5,-618 31.5,-612 37.5,-612 37.5,-612 135.5,-612 135.5,-612 141.5,-612 147.5,-618 147.5,-624 147.5,-624 147.5,-638 147.5,-638 147.5,-644 141.5,-650 135.5,-650"/>
<text text-anchor="middle" x="86.5" y="-634.8" font-family="Arial" font-size="14.00">分配寄存器变量</text>
<text text-anchor="middle" x="86.5" y="-619.8" font-family="Arial" font-size="14.00">生成 __asm 声明</text>
</g>
<!-- check_output_constraint&#45;&gt;alloc_output_local -->
<g id="edge9" class="edge">
<title>check_output_constraint&#45;&gt;alloc_output_local</title>
<path fill="none" stroke="black" d="M199.87,-700.97C178.11,-687.73 148.36,-669.63 124.79,-655.3"/>
<polygon fill="black" stroke="black" points="126.45,-652.21 116.09,-650 122.82,-658.19 126.45,-652.21"/>
<text text-anchor="middle" x="210.5" y="-671.8" font-family="Arial" font-size="14.00">是寄存器约束</text>
</g>
<!-- error -->
<g id="node23" class="node">
<title>error</title>
<path fill="none" stroke="red" d="M304.62,-805.51C304.62,-805.51 304.62,-810.49 304.62,-810.49 304.62,-812.97 302.27,-816.27 299.92,-817.08 299.92,-817.08 278.79,-824.38 278.79,-824.38 276.44,-825.19 271.6,-826 269.12,-826 269.12,-826 235.88,-826 235.88,-826 233.4,-826 228.56,-825.19 226.21,-824.38 226.21,-824.38 205.08,-817.08 205.08,-817.08 202.73,-816.27 200.38,-812.97 200.38,-810.49 200.38,-810.49 200.38,-805.51 200.38,-805.51 200.38,-803.03 202.73,-799.73 205.08,-798.92 205.08,-798.92 226.21,-791.62 226.21,-791.62 228.56,-790.81 233.4,-790 235.88,-790 235.88,-790 269.12,-790 269.12,-790 271.6,-790 276.44,-790.81 278.79,-791.62 278.79,-791.62 299.92,-798.92 299.92,-798.92 302.27,-799.73 304.62,-803.03 304.62,-805.51"/>
<text text-anchor="middle" x="252.5" y="-804.3" font-family="Arial" font-size="14.00">返回错误</text>
</g>
<!-- check_output_constraint&#45;&gt;error -->
<g id="edge10" class="edge">
<title>check_output_constraint&#45;&gt;error</title>
<path fill="none" stroke="black" d="M227.52,-739.3C227.02,-749.18 227.36,-761.48 230.5,-772 231.4,-775 232.62,-777.99 234.05,-780.89"/>
<polygon fill="black" stroke="black" points="231.09,-782.78 239.08,-789.74 237.18,-779.32 231.09,-782.78"/>
<text text-anchor="middle" x="266.5" y="-760.8" font-family="Arial" font-size="14.00">约束不合法</text>
</g>
<!-- alloc_output_local&#45;&gt;handle_outputs -->
<g id="edge11" class="edge">
<title>alloc_output_local&#45;&gt;handle_outputs</title>
<path fill="none" stroke="black" d="M67.61,-650.2C47.9,-671.51 21.76,-707.87 36.5,-739 45.39,-757.78 62.3,-773.11 78.54,-784.42"/>
<polygon fill="black" stroke="black" points="76.66,-787.37 86.93,-789.97 80.52,-781.53 76.66,-787.37"/>
<text text-anchor="middle" x="92.5" y="-716.3" font-family="Arial" font-size="14.00">继续下一个 output</text>
</g>
<!-- check_input_constraint -->
<g id="node11" class="node">
<title>check_input_constraint</title>
<path fill="none" stroke="black" d="M473,-739C473,-739 366,-739 366,-739 360,-739 354,-733 354,-727 354,-727 354,-713 354,-713 354,-707 360,-701 366,-701 366,-701 473,-701 473,-701 479,-701 485,-707 485,-713 485,-713 485,-727 485,-727 485,-733 479,-739 473,-739"/>
<text text-anchor="middle" x="419.5" y="-723.8" font-family="Arial" font-size="14.00">检查输入约束</text>
<text text-anchor="middle" x="419.5" y="-708.8" font-family="Arial" font-size="14.00">是否包含非法字符</text>
</g>
<!-- handle_inputs&#45;&gt;check_input_constraint -->
<g id="edge13" class="edge">
<title>handle_inputs&#45;&gt;check_input_constraint</title>
<path fill="none" stroke="black" d="M419.5,-789.6C419.5,-778.06 419.5,-762.65 419.5,-749.36"/>
<polygon fill="black" stroke="black" points="423,-749.27 419.5,-739.27 416,-749.27 423,-749.27"/>
<text text-anchor="middle" x="478.5" y="-760.8" font-family="Arial" font-size="14.00">循环处理每个 input</text>
</g>
<!-- process_clobbers -->
<g id="node13" class="node">
<title>process_clobbers</title>
<path fill="none" stroke="black" d="M794,-738C794,-738 687,-738 687,-738 681,-738 675,-732 675,-726 675,-726 675,-714 675,-714 675,-708 681,-702 687,-702 687,-702 794,-702 794,-702 800,-702 806,-708 806,-714 806,-714 806,-726 806,-726 806,-732 800,-738 794,-738"/>
<text text-anchor="middle" x="740.5" y="-716.3" font-family="Arial" font-size="14.00">处理 clobbers 列表</text>
</g>
<!-- handle_inputs&#45;&gt;process_clobbers -->
<g id="edge17" class="edge">
<title>handle_inputs&#45;&gt;process_clobbers</title>
<path fill="none" stroke="black" d="M461.78,-797.54C491.24,-790.8 531.38,-781.32 566.5,-772 602.62,-762.41 642.66,-750.75 675.22,-741"/>
<polygon fill="black" stroke="black" points="676.5,-744.27 685.07,-738.04 674.48,-737.56 676.5,-744.27"/>
<text text-anchor="middle" x="667" y="-760.8" font-family="Arial" font-size="14.00">inputs 处理完成</text>
</g>
<!-- alloc_input_local -->
<g id="node12" class="node">
<title>alloc_input_local</title>
<path fill="none" stroke="black" d="M532.5,-650C532.5,-650 440.5,-650 440.5,-650 434.5,-650 428.5,-644 428.5,-638 428.5,-638 428.5,-624 428.5,-624 428.5,-618 434.5,-612 440.5,-612 440.5,-612 532.5,-612 532.5,-612 538.5,-612 544.5,-618 544.5,-624 544.5,-624 544.5,-638 544.5,-638 544.5,-644 538.5,-650 532.5,-650"/>
<text text-anchor="middle" x="486.5" y="-634.8" font-family="Arial" font-size="14.00">分配输入变量</text>
<text text-anchor="middle" x="486.5" y="-619.8" font-family="Arial" font-size="14.00">处理寄存器约束</text>
</g>
<!-- check_input_constraint&#45;&gt;alloc_input_local -->
<g id="edge14" class="edge">
<title>check_input_constraint&#45;&gt;alloc_input_local</title>
<path fill="none" stroke="black" d="M416.94,-700.7C416.41,-690.35 417.41,-677.6 423.5,-668 426.29,-663.59 429.84,-659.67 433.81,-656.18"/>
<polygon fill="black" stroke="black" points="436.06,-658.87 441.89,-650.02 431.82,-653.3 436.06,-658.87"/>
<text text-anchor="middle" x="481" y="-671.8" font-family="Arial" font-size="14.00">需要分配本地变量</text>
</g>
<!-- check_input_constraint&#45;&gt;error -->
<g id="edge15" class="edge">
<title>check_input_constraint&#45;&gt;error</title>
<path fill="none" stroke="black" d="M380.23,-739.05C368.35,-744.66 355.33,-750.95 343.5,-757 325.08,-766.41 304.89,-777.43 288.22,-786.73"/>
<polygon fill="black" stroke="black" points="286.36,-783.75 279.35,-791.69 289.78,-789.86 286.36,-783.75"/>
<text text-anchor="middle" x="379.5" y="-760.8" font-family="Arial" font-size="14.00">约束不合法</text>
</g>
<!-- alloc_input_local&#45;&gt;handle_inputs -->
<g id="edge16" class="edge">
<title>alloc_input_local&#45;&gt;handle_inputs</title>
<path fill="none" stroke="black" d="M522.52,-650C528.95,-654.92 534.78,-660.9 538.5,-668 559.95,-708.94 566.19,-734.99 538.5,-772 523.09,-792.59 496.16,-801.59 471.81,-805.33"/>
<polygon fill="black" stroke="black" points="471.05,-801.9 461.57,-806.63 471.93,-808.84 471.05,-801.9"/>
<text text-anchor="middle" x="608.5" y="-716.3" font-family="Arial" font-size="14.00">继续下一个 input</text>
</g>
<!-- fix_asm_source -->
<g id="node14" class="node">
<title>fix_asm_source</title>
<path fill="none" stroke="black" d="M796.5,-650C796.5,-650 684.5,-650 684.5,-650 678.5,-650 672.5,-644 672.5,-638 672.5,-638 672.5,-624 672.5,-624 672.5,-618 678.5,-612 684.5,-612 684.5,-612 796.5,-612 796.5,-612 802.5,-612 808.5,-618 808.5,-624 808.5,-624 808.5,-638 808.5,-638 808.5,-644 802.5,-650 796.5,-650"/>
<text text-anchor="middle" x="740.5" y="-634.8" font-family="Arial" font-size="14.00">处理汇编模板</text>
<text text-anchor="middle" x="740.5" y="-619.8" font-family="Arial" font-size="14.00">替换 %[name] 语法</text>
</g>
<!-- process_clobbers&#45;&gt;fix_asm_source -->
<g id="edge18" class="edge">
<title>process_clobbers&#45;&gt;fix_asm_source</title>
<path fill="none" stroke="black" d="M740.5,-701.81C740.5,-690.01 740.5,-674.07 740.5,-660.4"/>
<polygon fill="black" stroke="black" points="744,-660.05 740.5,-650.05 737,-660.05 744,-660.05"/>
</g>
<!-- write_asm_volatile -->
<g id="node15" class="node">
<title>write_asm_volatile</title>
<path fill="none" stroke="black" d="M812.5,-575C812.5,-575 668.5,-575 668.5,-575 662.5,-575 656.5,-569 656.5,-563 656.5,-563 656.5,-551 656.5,-551 656.5,-545 662.5,-539 668.5,-539 668.5,-539 812.5,-539 812.5,-539 818.5,-539 824.5,-545 824.5,-551 824.5,-551 824.5,-563 824.5,-563 824.5,-569 818.5,-575 812.5,-575"/>
<text text-anchor="middle" x="740.5" y="-553.3" font-family="Arial" font-size="14.00">生成 __asm volatile 语句</text>
</g>
<!-- fix_asm_source&#45;&gt;write_asm_volatile -->
<g id="edge19" class="edge">
<title>fix_asm_source&#45;&gt;write_asm_volatile</title>
<path fill="none" stroke="black" d="M740.5,-611.83C740.5,-603.89 740.5,-594.41 740.5,-585.63"/>
<polygon fill="black" stroke="black" points="744,-585.42 740.5,-575.42 737,-585.42 744,-585.42"/>
</g>
<!-- build_constraints -->
<g id="node16" class="node">
<title>build_constraints</title>
<path fill="none" stroke="black" d="M810,-502C810,-502 671,-502 671,-502 665,-502 659,-496 659,-490 659,-490 659,-478 659,-478 659,-472 665,-466 671,-466 671,-466 810,-466 810,-466 816,-466 822,-472 822,-478 822,-478 822,-490 822,-490 822,-496 816,-502 810,-502"/>
<text text-anchor="middle" x="740.5" y="-480.3" font-family="Arial" font-size="14.00">构建输出/输入约束条件</text>
</g>
<!-- write_asm_volatile&#45;&gt;build_constraints -->
<g id="edge20" class="edge">
<title>write_asm_volatile&#45;&gt;build_constraints</title>
<path fill="none" stroke="black" d="M740.5,-538.81C740.5,-530.79 740.5,-521.05 740.5,-512.07"/>
<polygon fill="black" stroke="black" points="744,-512.03 740.5,-502.03 737,-512.03 744,-512.03"/>
</g>
<!-- write_asm_outputs -->
<g id="node17" class="node">
<title>write_asm_outputs</title>
<path fill="none" stroke="black" d="M805,-415C805,-415 676,-415 676,-415 670,-415 664,-409 664,-403 664,-403 664,-391 664,-391 664,-385 670,-379 676,-379 676,-379 805,-379 805,-379 811,-379 817,-385 817,-391 817,-391 817,-403 817,-403 817,-409 811,-415 805,-415"/>
<text text-anchor="middle" x="740.5" y="-393.3" font-family="Arial" font-size="14.00">生成 outputs 约束代码</text>
</g>
<!-- build_constraints&#45;&gt;write_asm_outputs -->
<g id="edge21" class="edge">
<title>build_constraints&#45;&gt;write_asm_outputs</title>
<path fill="none" stroke="black" d="M740.5,-465.8C740.5,-454.16 740.5,-438.55 740.5,-425.24"/>
<polygon fill="black" stroke="black" points="744,-425.18 740.5,-415.18 737,-425.18 744,-425.18"/>
<text text-anchor="middle" x="795" y="-436.8" font-family="Arial" font-size="14.00">生成 outputs 约束</text>
</g>
<!-- write_asm_inputs -->
<g id="node18" class="node">
<title>write_asm_inputs</title>
<path fill="none" stroke="black" d="M801,-328C801,-328 680,-328 680,-328 674,-328 668,-322 668,-316 668,-316 668,-304 668,-304 668,-298 674,-292 680,-292 680,-292 801,-292 801,-292 807,-292 813,-298 813,-304 813,-304 813,-316 813,-316 813,-322 807,-328 801,-328"/>
<text text-anchor="middle" x="740.5" y="-306.3" font-family="Arial" font-size="14.00">生成 inputs 约束代码</text>
</g>
<!-- write_asm_outputs&#45;&gt;write_asm_inputs -->
<g id="edge22" class="edge">
<title>write_asm_outputs&#45;&gt;write_asm_inputs</title>
<path fill="none" stroke="black" d="M740.5,-378.8C740.5,-367.16 740.5,-351.55 740.5,-338.24"/>
<polygon fill="black" stroke="black" points="744,-338.18 740.5,-328.18 737,-338.18 744,-338.18"/>
<text text-anchor="middle" x="790.5" y="-349.8" font-family="Arial" font-size="14.00">生成 inputs 约束</text>
</g>
<!-- write_clobbers -->
<g id="node19" class="node">
<title>write_clobbers</title>
<path fill="none" stroke="black" d="M794,-255C794,-255 687,-255 687,-255 681,-255 675,-249 675,-243 675,-243 675,-231 675,-231 675,-225 681,-219 687,-219 687,-219 794,-219 794,-219 800,-219 806,-225 806,-231 806,-231 806,-243 806,-243 806,-249 800,-255 794,-255"/>
<text text-anchor="middle" x="740.5" y="-233.3" font-family="Arial" font-size="14.00">生成 clobbers 列表</text>
</g>
<!-- write_asm_inputs&#45;&gt;write_clobbers -->
<g id="edge23" class="edge">
<title>write_asm_inputs&#45;&gt;write_clobbers</title>
<path fill="none" stroke="black" d="M740.5,-291.81C740.5,-283.79 740.5,-274.05 740.5,-265.07"/>
<polygon fill="black" stroke="black" points="744,-265.03 740.5,-255.03 737,-265.03 744,-265.03"/>
</g>
<!-- post_assignments -->
<g id="node20" class="node">
<title>post_assignments</title>
<path fill="none" stroke="black" d="M815,-182C815,-182 666,-182 666,-182 660,-182 654,-176 654,-170 654,-170 654,-158 654,-158 654,-152 660,-146 666,-146 666,-146 815,-146 815,-146 821,-146 827,-152 827,-158 827,-158 827,-170 827,-170 827,-176 821,-182 815,-182"/>
<text text-anchor="middle" x="740.5" y="-160.3" font-family="Arial" font-size="14.00">将寄存器值写回输出变量</text>
</g>
<!-- write_clobbers&#45;&gt;post_assignments -->
<g id="edge24" class="edge">
<title>write_clobbers&#45;&gt;post_assignments</title>
<path fill="none" stroke="black" d="M740.5,-218.81C740.5,-210.79 740.5,-201.05 740.5,-192.07"/>
<polygon fill="black" stroke="black" points="744,-192.03 740.5,-182.03 737,-192.03 744,-192.03"/>
</g>
<!-- handle_unused -->
<g id="node21" class="node">
<title>handle_unused</title>
<path fill="none" stroke="black" d="M794,-109C794,-109 687,-109 687,-109 681,-109 675,-103 675,-97 675,-97 675,-85 675,-85 675,-79 681,-73 687,-73 687,-73 794,-73 794,-73 800,-73 806,-79 806,-85 806,-85 806,-97 806,-97 806,-103 800,-109 794,-109"/>
<text text-anchor="middle" x="740.5" y="-87.3" font-family="Arial" font-size="14.00">处理未使用的指令</text>
</g>
<!-- post_assignments&#45;&gt;handle_unused -->
<g id="edge25" class="edge">
<title>post_assignments&#45;&gt;handle_unused</title>
<path fill="none" stroke="black" d="M740.5,-145.81C740.5,-137.79 740.5,-128.05 740.5,-119.07"/>
<polygon fill="black" stroke="black" points="744,-119.03 740.5,-109.03 737,-119.03 744,-119.03"/>
</g>
<!-- end -->
<g id="node22" class="node">
<title>end</title>
<path fill="none" stroke="black" d="M769,-36C769,-36 712,-36 712,-36 706,-36 700,-30 700,-24 700,-24 700,-12 700,-12 700,-6 706,0 712,0 712,0 769,0 769,0 775,0 781,-6 781,-12 781,-12 781,-24 781,-24 781,-30 775,-36 769,-36"/>
<text text-anchor="middle" x="740.5" y="-14.3" font-family="Arial" font-size="14.00">返回 result</text>
</g>
<!-- handle_unused&#45;&gt;end -->
<g id="edge26" class="edge">
<title>handle_unused&#45;&gt;end</title>
<path fill="none" stroke="black" d="M740.5,-72.81C740.5,-64.79 740.5,-55.05 740.5,-46.07"/>
<polygon fill="black" stroke="black" points="744,-46.03 740.5,-36.03 737,-46.03 744,-46.03"/>
</g>
</g>
</svg>
