<?xml version="1.0" encoding="UTF-8" standalone="no"?>
<!DOCTYPE svg PUBLIC "-//W3C//DTD SVG 1.1//EN"
 "http://www.w3.org/Graphics/SVG/1.1/DTD/svg11.dtd">
<!-- Generated by graphviz version 2.43.0 (0)
 -->
<!-- Title: flowchart Pages: 1 -->
<svg width="1876pt" height="921pt"
 viewBox="0.00 0.00 1876.50 921.00" xmlns="http://www.w3.org/2000/svg" xmlns:xlink="http://www.w3.org/1999/xlink">
<g id="graph0" class="graph" transform="scale(1 1) rotate(0) translate(4 917)">
<title>flowchart</title>
<polygon fill="white" stroke="transparent" points="-4,4 -4,-917 1872.5,-917 1872.5,4 -4,4"/>
<!-- start -->
<g id="node1" class="node">
<title>start</title>
<ellipse fill="none" stroke="black" cx="920.57" cy="-895" rx="29.5" ry="18"/>
<text text-anchor="middle" x="920.57" y="-891.3" font-family="Helvetica,sans-Serif" font-size="14.00">开始</text>
</g>
<!-- resolve_inst -->
<g id="node2" class="node">
<title>resolve_inst</title>
<path fill="none" stroke="black" d="M1038.57,-840C1038.57,-840 802.57,-840 802.57,-840 796.57,-840 790.57,-834 790.57,-828 790.57,-828 790.57,-814 790.57,-814 790.57,-808 796.57,-802 802.57,-802 802.57,-802 1038.57,-802 1038.57,-802 1044.57,-802 1050.57,-808 1050.57,-814 1050.57,-814 1050.57,-828 1050.57,-828 1050.57,-834 1044.57,-840 1038.57,-840"/>
<text text-anchor="middle" x="920.57" y="-824.8" font-family="Helvetica,sans-Serif" font-size="14.00">解析指令和操作数</text>
<text text-anchor="middle" x="920.57" y="-809.8" font-family="Helvetica,sans-Serif" font-size="14.00">获取scalar_ty, operand, operand_ty</text>
</g>
<!-- start&#45;&gt;resolve_inst -->
<g id="edge1" class="edge">
<title>start&#45;&gt;resolve_inst</title>
<path fill="none" stroke="black" d="M920.57,-876.94C920.57,-868.99 920.57,-859.31 920.57,-850.31"/>
<polygon fill="black" stroke="black" points="924.07,-850.2 920.57,-840.2 917.07,-850.2 924.07,-850.2"/>
</g>
<!-- determine_use_op -->
<g id="node3" class="node">
<title>determine_use_op</title>
<path fill="none" stroke="black" d="M908.87,-762.34C908.87,-762.34 765.27,-729.66 765.27,-729.66 759.42,-728.33 759.42,-725.67 765.27,-724.34 765.27,-724.34 908.87,-691.66 908.87,-691.66 914.72,-690.33 926.42,-690.33 932.27,-691.66 932.27,-691.66 1075.87,-724.34 1075.87,-724.34 1081.72,-725.67 1081.72,-728.33 1075.87,-729.66 1075.87,-729.66 932.27,-762.34 932.27,-762.34 926.42,-763.67 914.72,-763.67 908.87,-762.34"/>
<text text-anchor="middle" x="920.57" y="-730.8" font-family="Helvetica,sans-Serif" font-size="14.00">判断use_operator</text>
<text text-anchor="middle" x="920.57" y="-715.8" font-family="Helvetica,sans-Serif" font-size="14.00">(scalar_ty位宽&lt;=64?)</text>
</g>
<!-- resolve_inst&#45;&gt;determine_use_op -->
<g id="edge2" class="edge">
<title>resolve_inst&#45;&gt;determine_use_op</title>
<path fill="none" stroke="black" d="M920.57,-801.82C920.57,-794.13 920.57,-784.78 920.57,-775.35"/>
<polygon fill="black" stroke="black" points="924.07,-775.16 920.57,-765.16 917.07,-775.16 924.07,-775.16"/>
</g>
<!-- select_op -->
<g id="node4" class="node">
<title>select_op</title>
<path fill="none" stroke="black" d="M908.88,-635.28C908.88,-635.28 769.26,-602.72 769.26,-602.72 763.41,-601.36 763.41,-598.64 769.26,-597.28 769.26,-597.28 908.88,-564.72 908.88,-564.72 914.73,-563.36 926.41,-563.36 932.26,-564.72 932.26,-564.72 1071.88,-597.28 1071.88,-597.28 1077.73,-598.64 1077.73,-601.36 1071.88,-602.72 1071.88,-602.72 932.26,-635.28 932.26,-635.28 926.41,-636.64 914.73,-636.64 908.88,-635.28"/>
<text text-anchor="middle" x="920.57" y="-603.8" font-family="Helvetica,sans-Serif" font-size="14.00">根据reduce.operation</text>
<text text-anchor="middle" x="920.57" y="-588.8" font-family="Helvetica,sans-Serif" font-size="14.00">和类型选择操作符类型</text>
</g>
<!-- determine_use_op&#45;&gt;select_op -->
<g id="edge3" class="edge">
<title>determine_use_op&#45;&gt;select_op</title>
<path fill="none" stroke="black" d="M906.04,-692.09C902.73,-680.71 900.67,-667.9 902.57,-656 903.15,-652.36 903.93,-648.64 904.85,-644.93"/>
<polygon fill="black" stroke="black" points="908.25,-645.78 907.54,-635.21 901.5,-643.91 908.25,-645.78"/>
<text text-anchor="middle" x="910.07" y="-659.8" font-family="Times,serif" font-size="14.00">是</text>
</g>
<!-- determine_use_op&#45;&gt;select_op -->
<g id="edge4" class="edge">
<title>determine_use_op&#45;&gt;select_op</title>
<path fill="none" stroke="black" d="M920.57,-688.83C920.57,-676.1 920.57,-661.68 920.57,-648.26"/>
<polygon fill="black" stroke="black" points="924.07,-648.24 920.57,-638.24 917.07,-648.24 924.07,-648.24"/>
<text text-anchor="middle" x="928.07" y="-659.8" font-family="Times,serif" font-size="14.00">否</text>
</g>
<!-- op_and -->
<g id="node10" class="node">
<title>op_and</title>
<path fill="none" stroke="black" d="M1457.69,-523.34C1457.69,-523.34 1352.59,-508.66 1352.59,-508.66 1346.65,-507.83 1346.65,-506.17 1352.59,-505.34 1352.59,-505.34 1457.69,-490.66 1457.69,-490.66 1463.63,-489.83 1475.51,-489.83 1481.46,-490.66 1481.46,-490.66 1586.55,-505.34 1586.55,-505.34 1592.49,-506.17 1592.49,-507.83 1586.55,-508.66 1586.55,-508.66 1481.46,-523.34 1481.46,-523.34 1475.51,-524.17 1463.63,-524.17 1457.69,-523.34"/>
<text text-anchor="middle" x="1469.57" y="-503.3" font-family="Helvetica,sans-Serif" font-size="14.00">operation 是 And?</text>
</g>
<!-- select_op&#45;&gt;op_and -->
<g id="edge5" class="edge">
<title>select_op&#45;&gt;op_and</title>
<path fill="none" stroke="black" d="M1013.39,-583.61C1124.13,-565.26 1306.47,-535.04 1403.7,-518.92"/>
<polygon fill="black" stroke="black" points="1404.4,-522.35 1413.69,-517.26 1403.26,-515.44 1404.4,-522.35"/>
</g>
<!-- op_or -->
<g id="node11" class="node">
<title>op_or</title>
<path fill="none" stroke="black" d="M106.71,-523.2C106.71,-523.2 11.79,-508.8 11.79,-508.8 5.86,-507.9 5.86,-506.1 11.79,-505.2 11.79,-505.2 106.71,-490.8 106.71,-490.8 112.64,-489.9 124.5,-489.9 130.44,-490.8 130.44,-490.8 225.35,-505.2 225.35,-505.2 231.28,-506.1 231.28,-507.9 225.35,-508.8 225.35,-508.8 130.44,-523.2 130.44,-523.2 124.5,-524.1 112.64,-524.1 106.71,-523.2"/>
<text text-anchor="middle" x="118.57" y="-503.3" font-family="Helvetica,sans-Serif" font-size="14.00">operation 是 Or?</text>
</g>
<!-- select_op&#45;&gt;op_or -->
<g id="edge6" class="edge">
<title>select_op&#45;&gt;op_or</title>
<path fill="none" stroke="black" d="M809.99,-587.7C676.21,-573.83 444.22,-549.18 245.57,-525 226.67,-522.7 206.2,-520.04 187.34,-517.51"/>
<polygon fill="black" stroke="black" points="187.71,-514.03 177.34,-516.16 186.78,-520.97 187.71,-514.03"/>
</g>
<!-- op_xor -->
<g id="node12" class="node">
<title>op_xor</title>
<path fill="none" stroke="black" d="M637.69,-523.29C637.69,-523.29 536.44,-508.71 536.44,-508.71 530.5,-507.86 530.5,-506.14 536.44,-505.29 536.44,-505.29 637.69,-490.71 637.69,-490.71 643.63,-489.86 655.51,-489.86 661.45,-490.71 661.45,-490.71 762.7,-505.29 762.7,-505.29 768.64,-506.14 768.64,-507.86 762.7,-508.71 762.7,-508.71 661.45,-523.29 661.45,-523.29 655.51,-524.14 643.63,-524.14 637.69,-523.29"/>
<text text-anchor="middle" x="649.57" y="-503.3" font-family="Helvetica,sans-Serif" font-size="14.00">operation 是 Xor?</text>
</g>
<!-- select_op&#45;&gt;op_xor -->
<g id="edge7" class="edge">
<title>select_op&#45;&gt;op_xor</title>
<path fill="none" stroke="black" d="M855.32,-577.09C805.66,-560.41 738.62,-537.9 694.76,-523.17"/>
<polygon fill="black" stroke="black" points="695.81,-519.84 685.22,-519.97 693.58,-526.47 695.81,-519.84"/>
</g>
<!-- op_min -->
<g id="node13" class="node">
<title>op_min</title>
<path fill="none" stroke="black" d="M368.69,-523.3C368.69,-523.3 266.6,-508.7 266.6,-508.7 260.66,-507.85 260.66,-506.15 266.6,-505.3 266.6,-505.3 368.69,-490.7 368.69,-490.7 374.63,-489.85 386.51,-489.85 392.45,-490.7 392.45,-490.7 494.54,-505.3 494.54,-505.3 500.48,-506.15 500.48,-507.85 494.54,-508.7 494.54,-508.7 392.45,-523.3 392.45,-523.3 386.51,-524.15 374.63,-524.15 368.69,-523.3"/>
<text text-anchor="middle" x="380.57" y="-503.3" font-family="Helvetica,sans-Serif" font-size="14.00">operation 是 Min?</text>
</g>
<!-- select_op&#45;&gt;op_min -->
<g id="edge8" class="edge">
<title>select_op&#45;&gt;op_min</title>
<path fill="none" stroke="black" d="M828.36,-583.46C719.37,-565.09 540.8,-535 445.42,-518.93"/>
<polygon fill="black" stroke="black" points="445.77,-515.44 435.33,-517.23 444.61,-522.34 445.77,-515.44"/>
</g>
<!-- op_max -->
<g id="node14" class="node">
<title>op_max</title>
<path fill="none" stroke="black" d="M1182.69,-523.34C1182.69,-523.34 1077.59,-508.66 1077.59,-508.66 1071.65,-507.83 1071.65,-506.17 1077.59,-505.34 1077.59,-505.34 1182.69,-490.66 1182.69,-490.66 1188.63,-489.83 1200.51,-489.83 1206.46,-490.66 1206.46,-490.66 1311.55,-505.34 1311.55,-505.34 1317.49,-506.17 1317.49,-507.83 1311.55,-508.66 1311.55,-508.66 1206.46,-523.34 1206.46,-523.34 1200.51,-524.17 1188.63,-524.17 1182.69,-523.34"/>
<text text-anchor="middle" x="1194.57" y="-503.3" font-family="Helvetica,sans-Serif" font-size="14.00">operation 是 Max?</text>
</g>
<!-- select_op&#45;&gt;op_max -->
<g id="edge9" class="edge">
<title>select_op&#45;&gt;op_max</title>
<path fill="none" stroke="black" d="M986.2,-577.2C1036.39,-560.53 1104.32,-537.98 1148.77,-523.21"/>
<polygon fill="black" stroke="black" points="1150.05,-526.48 1158.43,-520 1147.84,-519.83 1150.05,-526.48"/>
</g>
<!-- op_add -->
<g id="node15" class="node">
<title>op_add</title>
<path fill="none" stroke="black" d="M908.69,-523.32C908.69,-523.32 804.93,-508.68 804.93,-508.68 798.99,-507.84 798.99,-506.16 804.93,-505.32 804.93,-505.32 908.69,-490.68 908.69,-490.68 914.63,-489.84 926.51,-489.84 932.45,-490.68 932.45,-490.68 1036.22,-505.32 1036.22,-505.32 1042.16,-506.16 1042.16,-507.84 1036.22,-508.68 1036.22,-508.68 932.45,-523.32 932.45,-523.32 926.51,-524.16 914.63,-524.16 908.69,-523.32"/>
<text text-anchor="middle" x="920.57" y="-503.3" font-family="Helvetica,sans-Serif" font-size="14.00">operation 是 Add?</text>
</g>
<!-- select_op&#45;&gt;op_add -->
<g id="edge10" class="edge">
<title>select_op&#45;&gt;op_add</title>
<path fill="none" stroke="black" d="M920.57,-561.99C920.57,-552.99 920.57,-543.54 920.57,-535.1"/>
<polygon fill="black" stroke="black" points="924.07,-535.06 920.57,-525.06 917.07,-535.06 924.07,-535.06"/>
</g>
<!-- op_mul -->
<g id="node16" class="node">
<title>op_mul</title>
<path fill="none" stroke="black" d="M1730.69,-523.3C1730.69,-523.3 1628.6,-508.7 1628.6,-508.7 1622.66,-507.85 1622.66,-506.15 1628.6,-505.3 1628.6,-505.3 1730.69,-490.7 1730.69,-490.7 1736.63,-489.85 1748.51,-489.85 1754.45,-490.7 1754.45,-490.7 1856.54,-505.3 1856.54,-505.3 1862.48,-506.15 1862.48,-507.85 1856.54,-508.7 1856.54,-508.7 1754.45,-523.3 1754.45,-523.3 1748.51,-524.15 1736.63,-524.15 1730.69,-523.3"/>
<text text-anchor="middle" x="1742.57" y="-503.3" font-family="Helvetica,sans-Serif" font-size="14.00">operation 是 Mul?</text>
</g>
<!-- select_op&#45;&gt;op_mul -->
<g id="edge11" class="edge">
<title>select_op&#45;&gt;op_mul</title>
<path fill="none" stroke="black" d="M1031,-587.72C1166.79,-573.71 1404.27,-548.75 1607.57,-525 1627.84,-522.63 1649.81,-519.93 1670.02,-517.38"/>
<polygon fill="black" stroke="black" points="1670.61,-520.83 1680.09,-516.11 1669.73,-513.89 1670.61,-520.83"/>
</g>
<!-- init_accum -->
<g id="node5" class="node">
<title>init_accum</title>
<path fill="none" stroke="black" d="M579.07,-336C579.07,-336 484.07,-336 484.07,-336 478.07,-336 472.07,-330 472.07,-324 472.07,-324 472.07,-310 472.07,-310 472.07,-304 478.07,-298 484.07,-298 484.07,-298 579.07,-298 579.07,-298 585.07,-298 591.07,-304 591.07,-310 591.07,-310 591.07,-324 591.07,-324 591.07,-330 585.07,-336 579.07,-336"/>
<text text-anchor="middle" x="531.57" y="-320.8" font-family="Helvetica,sans-Serif" font-size="14.00">分配accum变量</text>
<text text-anchor="middle" x="531.57" y="-305.8" font-family="Helvetica,sans-Serif" font-size="14.00">设置初始值</text>
</g>
<!-- vectorize_start -->
<g id="node6" class="node">
<title>vectorize_start</title>
<path fill="none" stroke="black" d="M597.57,-261C597.57,-261 465.57,-261 465.57,-261 459.57,-261 453.57,-255 453.57,-249 453.57,-249 453.57,-235 453.57,-235 453.57,-229 459.57,-223 465.57,-223 465.57,-223 597.57,-223 597.57,-223 603.57,-223 609.57,-229 609.57,-235 609.57,-235 609.57,-249 609.57,-249 609.57,-255 603.57,-261 597.57,-261"/>
<text text-anchor="middle" x="531.57" y="-245.8" font-family="Helvetica,sans-Serif" font-size="14.00">开始向量化处理</text>
<text text-anchor="middle" x="531.57" y="-230.8" font-family="Helvetica,sans-Serif" font-size="14.00">(v = Vectorize.start)</text>
</g>
<!-- init_accum&#45;&gt;vectorize_start -->
<g id="edge20" class="edge">
<title>init_accum&#45;&gt;vectorize_start</title>
<path fill="none" stroke="black" d="M531.57,-297.96C531.57,-289.88 531.57,-280.18 531.57,-271.18"/>
<polygon fill="black" stroke="black" points="535.07,-271.09 531.57,-261.09 528.07,-271.09 535.07,-271.09"/>
</g>
<!-- generate_code -->
<g id="node7" class="node">
<title>generate_code</title>
<path fill="none" stroke="black" d="M599.57,-186C599.57,-186 463.57,-186 463.57,-186 457.57,-186 451.57,-180 451.57,-174 451.57,-174 451.57,-160 451.57,-160 451.57,-154 457.57,-148 463.57,-148 463.57,-148 599.57,-148 599.57,-148 605.57,-148 611.57,-154 611.57,-160 611.57,-160 611.57,-174 611.57,-174 611.57,-180 605.57,-186 599.57,-186"/>
<text text-anchor="middle" x="531.57" y="-170.8" font-family="Helvetica,sans-Serif" font-size="14.00">根据op类型生成代码</text>
<text text-anchor="middle" x="531.57" y="-155.8" font-family="Helvetica,sans-Serif" font-size="14.00">(builtin/infix/ternary)</text>
</g>
<!-- vectorize_start&#45;&gt;generate_code -->
<g id="edge21" class="edge">
<title>vectorize_start&#45;&gt;generate_code</title>
<path fill="none" stroke="black" d="M531.57,-222.96C531.57,-214.88 531.57,-205.18 531.57,-196.18"/>
<polygon fill="black" stroke="black" points="535.07,-196.09 531.57,-186.09 528.07,-196.09 535.07,-196.09"/>
</g>
<!-- vectorize_end -->
<g id="node8" class="node">
<title>vectorize_end</title>
<path fill="none" stroke="black" d="M577.57,-111C577.57,-111 485.57,-111 485.57,-111 479.57,-111 473.57,-105 473.57,-99 473.57,-99 473.57,-85 473.57,-85 473.57,-79 479.57,-73 485.57,-73 485.57,-73 577.57,-73 577.57,-73 583.57,-73 589.57,-79 589.57,-85 589.57,-85 589.57,-99 589.57,-99 589.57,-105 583.57,-111 577.57,-111"/>
<text text-anchor="middle" x="531.57" y="-95.8" font-family="Helvetica,sans-Serif" font-size="14.00">结束向量化处理</text>
<text text-anchor="middle" x="531.57" y="-80.8" font-family="Helvetica,sans-Serif" font-size="14.00">(v.end)</text>
</g>
<!-- generate_code&#45;&gt;vectorize_end -->
<g id="edge22" class="edge">
<title>generate_code&#45;&gt;vectorize_end</title>
<path fill="none" stroke="black" d="M531.57,-147.96C531.57,-139.88 531.57,-130.18 531.57,-121.18"/>
<polygon fill="black" stroke="black" points="535.07,-121.09 531.57,-111.09 528.07,-121.09 535.07,-121.09"/>
</g>
<!-- return_accum -->
<g id="node9" class="node">
<title>return_accum</title>
<ellipse fill="none" stroke="black" cx="531.57" cy="-18" rx="59.29" ry="18"/>
<text text-anchor="middle" x="531.57" y="-14.3" font-family="Helvetica,sans-Serif" font-size="14.00">返回accum</text>
</g>
<!-- vectorize_end&#45;&gt;return_accum -->
<g id="edge23" class="edge">
<title>vectorize_end&#45;&gt;return_accum</title>
<path fill="none" stroke="black" d="M531.57,-72.83C531.57,-64.89 531.57,-55.41 531.57,-46.63"/>
<polygon fill="black" stroke="black" points="535.07,-46.42 531.57,-36.42 528.07,-46.42 535.07,-46.42"/>
</g>
<!-- tag_int -->
<g id="node17" class="node">
<title>tag_int</title>
<path fill="none" stroke="black" d="M638.86,-435.39C638.86,-435.39 581.51,-422.61 581.51,-422.61 575.66,-421.31 575.66,-418.69 581.51,-417.39 581.51,-417.39 638.86,-404.61 638.86,-404.61 644.71,-403.31 656.43,-403.31 662.28,-404.61 662.28,-404.61 719.63,-417.39 719.63,-417.39 725.49,-418.69 725.49,-421.31 719.63,-422.61 719.63,-422.61 662.28,-435.39 662.28,-435.39 656.43,-436.69 644.71,-436.69 638.86,-435.39"/>
<text text-anchor="middle" x="650.57" y="-416.3" font-family="Helvetica,sans-Serif" font-size="14.00">类型是 int?</text>
</g>
<!-- op_and&#45;&gt;tag_int -->
<g id="edge12" class="edge">
<title>op_and&#45;&gt;tag_int</title>
<path fill="none" stroke="black" d="M1406.18,-497.81C1383.03,-494.91 1356.63,-491.69 1332.57,-489 1105.92,-463.64 836.37,-438.14 715.2,-426.92"/>
<polygon fill="black" stroke="black" points="715.27,-423.41 704.99,-425.98 714.62,-430.38 715.27,-423.41"/>
<text text-anchor="middle" x="1171.07" y="-459.8" font-family="Times,serif" font-size="14.00">是</text>
</g>
<!-- tag_bool -->
<g id="node19" class="node">
<title>tag_bool</title>
<path fill="none" stroke="black" d="M338.8,-435.67C338.8,-435.67 271.35,-422.33 271.35,-422.33 265.46,-421.16 265.46,-418.84 271.35,-417.67 271.35,-417.67 338.8,-404.33 338.8,-404.33 344.69,-403.16 356.46,-403.16 362.34,-404.33 362.34,-404.33 429.79,-417.67 429.79,-417.67 435.68,-418.84 435.68,-421.16 429.79,-422.33 429.79,-422.33 362.34,-435.67 362.34,-435.67 356.46,-436.84 344.69,-436.84 338.8,-435.67"/>
<text text-anchor="middle" x="350.57" y="-416.3" font-family="Helvetica,sans-Serif" font-size="14.00">类型是 bool?</text>
</g>
<!-- op_or&#45;&gt;tag_bool -->
<g id="edge14" class="edge">
<title>op_or&#45;&gt;tag_bool</title>
<path fill="none" stroke="black" d="M151.81,-493.82C193.83,-478.43 266.09,-451.95 310.94,-435.52"/>
<polygon fill="black" stroke="black" points="312.16,-438.8 320.35,-432.07 309.75,-432.23 312.16,-438.8"/>
</g>
<!-- op_min&#45;&gt;tag_int -->
<g id="edge16" class="edge">
<title>op_min&#45;&gt;tag_int</title>
<path fill="none" stroke="black" d="M417.83,-494.27C467.98,-478.48 556.91,-450.49 609.12,-434.05"/>
<polygon fill="black" stroke="black" points="610.25,-437.36 618.74,-431.02 608.15,-430.69 610.25,-437.36"/>
</g>
<!-- op_add&#45;&gt;tag_int -->
<g id="edge18" class="edge">
<title>op_add&#45;&gt;tag_int</title>
<path fill="none" stroke="black" d="M883.03,-494.18C832.8,-478.37 744.02,-450.42 691.93,-434.02"/>
<polygon fill="black" stroke="black" points="692.92,-430.66 682.33,-431 690.82,-437.34 692.92,-430.66"/>
</g>
<!-- tag_int&#45;&gt;init_accum -->
<g id="edge13" class="edge">
<title>tag_int&#45;&gt;init_accum</title>
<path fill="none" stroke="black" d="M676.58,-407.72C686.25,-402.09 696.17,-394.26 701.57,-384 707.78,-372.2 709.97,-364.36 701.57,-354 688.76,-338.19 642.26,-329.05 601.12,-323.94"/>
<polygon fill="black" stroke="black" points="601.42,-320.45 591.08,-322.75 600.6,-327.4 601.42,-320.45"/>
<text text-anchor="middle" x="768.07" y="-372.8" font-family="Times,serif" font-size="14.00">int类型</text>
<text text-anchor="middle" x="768.07" y="-357.8" font-family="Times,serif" font-size="14.00">选择infix或builtin</text>
</g>
<!-- tag_int&#45;&gt;init_accum -->
<g id="edge17" class="edge">
<title>tag_int&#45;&gt;init_accum</title>
<path fill="none" stroke="black" d="M591.29,-415.13C546.12,-410.79 489.25,-401.88 474.57,-384 466.11,-373.69 468.14,-365.68 474.57,-354 476.92,-349.74 480.01,-345.91 483.53,-342.49"/>
<polygon fill="black" stroke="black" points="485.85,-345.12 491.29,-336.03 481.37,-339.74 485.85,-345.12"/>
<text text-anchor="middle" x="521.07" y="-372.8" font-family="Times,serif" font-size="14.00">int用三元操作</text>
<text text-anchor="middle" x="521.07" y="-357.8" font-family="Times,serif" font-size="14.00">float用builtin</text>
</g>
<!-- tag_int&#45;&gt;init_accum -->
<g id="edge19" class="edge">
<title>tag_int&#45;&gt;init_accum</title>
<path fill="none" stroke="black" d="M623.38,-407.91C611.19,-402.04 597.19,-393.96 586.57,-384 575.06,-373.2 577.43,-366.32 567.57,-354 564.76,-350.49 561.65,-346.95 558.46,-343.54"/>
<polygon fill="black" stroke="black" points="560.93,-341.06 551.45,-336.32 555.9,-345.93 560.93,-341.06"/>
<text text-anchor="middle" x="642.07" y="-372.8" font-family="Times,serif" font-size="14.00">int用+=或addw</text>
<text text-anchor="middle" x="642.07" y="-357.8" font-family="Times,serif" font-size="14.00">float用builtin</text>
</g>
<!-- tag_float -->
<g id="node18" class="node">
<title>tag_float</title>
<path fill="none" stroke="black" d="M1048.79,-910.71C1048.79,-910.71 979.68,-897.29 979.68,-897.29 973.79,-896.14 973.79,-893.86 979.68,-892.71 979.68,-892.71 1048.79,-879.29 1048.79,-879.29 1054.68,-878.14 1066.46,-878.14 1072.35,-879.29 1072.35,-879.29 1141.46,-892.71 1141.46,-892.71 1147.35,-893.86 1147.35,-896.14 1141.46,-897.29 1141.46,-897.29 1072.35,-910.71 1072.35,-910.71 1066.46,-911.86 1054.68,-911.86 1048.79,-910.71"/>
<text text-anchor="middle" x="1060.57" y="-891.3" font-family="Helvetica,sans-Serif" font-size="14.00">类型是 float?</text>
</g>
<!-- tag_bool&#45;&gt;init_accum -->
<g id="edge15" class="edge">
<title>tag_bool&#45;&gt;init_accum</title>
<path fill="none" stroke="black" d="M357.01,-403.18C363.88,-388.28 376.18,-366.43 393.57,-354 413.49,-339.76 438.6,-331.15 461.93,-325.94"/>
<polygon fill="black" stroke="black" points="462.71,-329.36 471.8,-323.92 461.3,-322.5 462.71,-329.36"/>
<text text-anchor="middle" x="429.57" y="-365.3" font-family="Times,serif" font-size="14.00">设置初始值</text>
</g>
</g>
</svg>
