<?xml version="1.0" encoding="UTF-8" standalone="no"?>
<!DOCTYPE svg PUBLIC "-//W3C//DTD SVG 1.1//EN"
 "http://www.w3.org/Graphics/SVG/1.1/DTD/svg11.dtd">
<!-- Generated by graphviz version 2.43.0 (0)
 -->
<!-- Title: flowchart Pages: 1 -->
<svg width="3206pt" height="460pt"
 viewBox="0.00 0.00 3206.00 460.00" xmlns="http://www.w3.org/2000/svg" xmlns:xlink="http://www.w3.org/1999/xlink">
<g id="graph0" class="graph" transform="scale(1 1) rotate(0) translate(4 456)">
<title>flowchart</title>
<polygon fill="white" stroke="transparent" points="-4,4 -4,-456 3202,-456 3202,4 -4,4"/>
<g id="clust1" class="cluster">
<title>cluster_switches</title>
<polygon fill="none" stroke="black" points="202,-63 202,-138 3144,-138 3144,-63 202,-63"/>
<text text-anchor="middle" x="1673" y="-70.8" font-family="Times,serif" font-size="14.00">处理 item.tag 分支</text>
</g>
<!-- start -->
<g id="node1" class="node">
<title>start</title>
<polygon fill="none" stroke="black" points="289,-452 139,-452 139,-416 289,-416 289,-452"/>
<text text-anchor="middle" x="214" y="-431.5" font-family="Courier,monospace" font-size="10.00">开始: info(ctype, pool)</text>
</g>
<!-- check_pool_index -->
<g id="node2" class="node">
<title>check_pool_index</title>
<polygon fill="none" stroke="black" points="291.5,-379 136.5,-379 136.5,-343 291.5,-343 291.5,-379"/>
<text text-anchor="middle" x="214" y="-358.5" font-family="Courier,monospace" font-size="10.00">检查 ctype.toPoolIndex()</text>
</g>
<!-- start&#45;&gt;check_pool_index -->
<g id="edge1" class="edge">
<title>start&#45;&gt;check_pool_index</title>
<path fill="none" stroke="black" d="M214,-415.81C214,-407.79 214,-398.05 214,-389.07"/>
<polygon fill="black" stroke="black" points="217.5,-389.03 214,-379.03 210.5,-389.03 217.5,-389.03"/>
</g>
<!-- return_basic -->
<g id="node3" class="node">
<title>return_basic</title>
<polygon fill="none" stroke="black" points="192,-130 0,-130 0,-94 192,-94 192,-130"/>
<text text-anchor="middle" x="96" y="-109.5" font-family="Courier,monospace" font-size="10.00">返回 .{ .basic = ctype.index }</text>
</g>
<!-- check_pool_index&#45;&gt;return_basic -->
<g id="edge2" class="edge">
<title>check_pool_index&#45;&gt;return_basic</title>
<path fill="none" stroke="black" d="M205.7,-342.63C185.34,-300.01 132.81,-190.05 108.58,-139.34"/>
<polygon fill="black" stroke="black" points="111.6,-137.54 104.13,-130.02 105.28,-140.55 111.6,-137.54"/>
<text text-anchor="middle" x="177" y="-234" font-family="Courier,monospace" font-size="10.00">为 null</text>
</g>
<!-- get_item -->
<g id="node4" class="node">
<title>get_item</title>
<polygon fill="none" stroke="black" points="975,-296 829,-296 829,-260 975,-260 975,-296"/>
<text text-anchor="middle" x="902" y="-275.5" font-family="Courier,monospace" font-size="10.00">从 pool.items 获取 item</text>
</g>
<!-- check_pool_index&#45;&gt;get_item -->
<g id="edge3" class="edge">
<title>check_pool_index&#45;&gt;get_item</title>
<path fill="none" stroke="black" d="M291.58,-350.87C422.08,-335.5 684.36,-304.62 818.63,-288.81"/>
<polygon fill="black" stroke="black" points="819.34,-292.26 828.86,-287.61 818.52,-285.3 819.34,-292.26"/>
<text text-anchor="middle" x="609" y="-317" font-family="Courier,monospace" font-size="10.00">有值</text>
</g>
<!-- return -->
<g id="node28" class="node">
<title>return</title>
<ellipse fill="none" stroke="black" cx="1841" cy="-18" rx="70.78" ry="18"/>
<text text-anchor="middle" x="1841" y="-15.5" font-family="Courier,monospace" font-size="10.00">返回构造的 Info 结构</text>
</g>
<!-- return_basic&#45;&gt;return -->
<g id="edge49" class="edge">
<title>return_basic&#45;&gt;return</title>
<path fill="none" stroke="black" d="M124.79,-93.84C144.64,-82.93 172.03,-69.65 198,-63 260.98,-46.87 279.05,-56.76 344,-54 884.7,-31.02 1535.94,-22.27 1760.4,-19.8"/>
<polygon fill="black" stroke="black" points="1760.48,-23.3 1770.44,-19.69 1760.4,-16.3 1760.48,-23.3"/>
</g>
<!-- switch_tag -->
<g id="node5" class="node">
<title>switch_tag</title>
<polygon fill="none" stroke="black" points="1609,-213 1513.03,-195 1609,-177 1704.97,-195 1609,-213"/>
<text text-anchor="middle" x="1609" y="-192.5" font-family="Courier,monospace" font-size="10.00">根据 item.tag 分支</text>
</g>
<!-- get_item&#45;&gt;switch_tag -->
<g id="edge4" class="edge">
<title>get_item&#45;&gt;switch_tag</title>
<path fill="none" stroke="black" d="M975.33,-268.6C1113.38,-252.78 1409.89,-218.81 1542.51,-203.62"/>
<polygon fill="black" stroke="black" points="1543,-207.08 1552.54,-202.47 1542.2,-200.13 1543,-207.08"/>
</g>
<!-- pointer -->
<g id="node6" class="node">
<title>pointer</title>
<polygon fill="none" stroke="black" points="311.5,-130 210.5,-130 210.5,-94 311.5,-94 311.5,-130"/>
<text text-anchor="middle" x="261" y="-115" font-family="Courier,monospace" font-size="10.00">构造指针类型</text>
<text text-anchor="middle" x="261" y="-104" font-family="Courier,monospace" font-size="10.00">设置 elem_ctype</text>
</g>
<!-- switch_tag&#45;&gt;pointer -->
<g id="edge5" class="edge">
<title>switch_tag&#45;&gt;pointer</title>
<path fill="none" stroke="black" d="M1517.16,-194.21C1324.81,-193.98 865.66,-189.9 482,-159 410.07,-153.21 390.69,-156.71 321,-138 316.41,-136.77 311.7,-135.26 307.04,-133.61"/>
<polygon fill="black" stroke="black" points="308.18,-130.3 297.59,-130.04 305.71,-136.85 308.18,-130.3"/>
<text text-anchor="middle" x="506.5" y="-151" font-family="Courier,monospace" font-size="10.00">.pointer</text>
</g>
<!-- pointer_const -->
<g id="node7" class="node">
<title>pointer_const</title>
<polygon fill="none" stroke="black" points="482,-130 330,-130 330,-94 482,-94 482,-130"/>
<text text-anchor="middle" x="406" y="-115" font-family="Courier,monospace" font-size="10.00">构造常量指针</text>
<text text-anchor="middle" x="406" y="-104" font-family="Courier,monospace" font-size="10.00">设置 elem_ctype 和 const</text>
</g>
<!-- switch_tag&#45;&gt;pointer_const -->
<g id="edge6" class="edge">
<title>switch_tag&#45;&gt;pointer_const</title>
<path fill="none" stroke="black" d="M1525.61,-192.62C1318.55,-188.94 784.91,-177.87 608,-159 555.47,-153.4 542.42,-150.14 491,-138 484.36,-136.43 477.47,-134.66 470.62,-132.8"/>
<polygon fill="black" stroke="black" points="471.21,-129.33 460.64,-130.02 469.33,-136.07 471.21,-129.33"/>
<text text-anchor="middle" x="650.5" y="-151" font-family="Courier,monospace" font-size="10.00">.pointer_const</text>
</g>
<!-- pointer_volatile -->
<g id="node8" class="node">
<title>pointer_volatile</title>
<polygon fill="none" stroke="black" points="670,-130 500,-130 500,-94 670,-94 670,-130"/>
<text text-anchor="middle" x="585" y="-115" font-family="Courier,monospace" font-size="10.00">构造易变指针</text>
<text text-anchor="middle" x="585" y="-104" font-family="Courier,monospace" font-size="10.00">设置 elem_ctype 和 volatile</text>
</g>
<!-- switch_tag&#45;&gt;pointer_volatile -->
<g id="edge7" class="edge">
<title>switch_tag&#45;&gt;pointer_volatile</title>
<path fill="none" stroke="black" d="M1523.23,-193.07C1335.94,-190.61 895.37,-182.46 748,-159 712.76,-153.39 674.3,-142.76 643.59,-133.13"/>
<polygon fill="black" stroke="black" points="644.49,-129.75 633.9,-130.05 642.37,-136.42 644.49,-129.75"/>
<text text-anchor="middle" x="799.5" y="-151" font-family="Courier,monospace" font-size="10.00">.pointer_volatile</text>
</g>
<!-- pointer_const_volatile -->
<g id="node9" class="node">
<title>pointer_const_volatile</title>
<polygon fill="none" stroke="black" points="898,-130 688,-130 688,-94 898,-94 898,-130"/>
<text text-anchor="middle" x="793" y="-115" font-family="Courier,monospace" font-size="10.00">构造常量易变指针</text>
<text text-anchor="middle" x="793" y="-104" font-family="Courier,monospace" font-size="10.00">设置 elem_ctype、const 和 volatile</text>
</g>
<!-- switch_tag&#45;&gt;pointer_const_volatile -->
<g id="edge8" class="edge">
<title>switch_tag&#45;&gt;pointer_const_volatile</title>
<path fill="none" stroke="black" d="M1516.34,-194.32C1348.48,-194.11 1000.66,-189.8 884,-159 864.5,-153.85 844.34,-144.18 827.97,-135.03"/>
<polygon fill="black" stroke="black" points="829.7,-131.98 819.29,-130.03 826.2,-138.05 829.7,-131.98"/>
<text text-anchor="middle" x="953.5" y="-151" font-family="Courier,monospace" font-size="10.00">.pointer_const_volatile</text>
</g>
<!-- array_small -->
<g id="node10" class="node">
<title>array_small</title>
<polygon fill="none" stroke="black" points="1053.5,-130 916.5,-130 916.5,-94 1053.5,-94 1053.5,-130"/>
<text text-anchor="middle" x="985" y="-115" font-family="Courier,monospace" font-size="10.00">解析小数组</text>
<text text-anchor="middle" x="985" y="-104" font-family="Courier,monospace" font-size="10.00">设置 elem_ctype 和长度</text>
</g>
<!-- switch_tag&#45;&gt;array_small -->
<g id="edge10" class="edge">
<title>switch_tag&#45;&gt;array_small</title>
<path fill="none" stroke="black" d="M1515.56,-194.47C1378.81,-194.1 1131.35,-189.1 1048,-159 1034.4,-154.09 1021.18,-145.27 1010.4,-136.66"/>
<polygon fill="black" stroke="black" points="1012.57,-133.92 1002.66,-130.19 1008.08,-139.29 1012.57,-133.92"/>
<text text-anchor="middle" x="1084.5" y="-151" font-family="Courier,monospace" font-size="10.00">.array_small</text>
</g>
<!-- array_large -->
<g id="node11" class="node">
<title>array_large</title>
<polygon fill="none" stroke="black" points="1228,-130 1072,-130 1072,-94 1228,-94 1228,-130"/>
<text text-anchor="middle" x="1150" y="-115" font-family="Courier,monospace" font-size="10.00">解析大数组</text>
<text text-anchor="middle" x="1150" y="-104" font-family="Courier,monospace" font-size="10.00">设置 elem_ctype 和动态长度</text>
</g>
<!-- switch_tag&#45;&gt;array_large -->
<g id="edge11" class="edge">
<title>switch_tag&#45;&gt;array_large</title>
<path fill="none" stroke="black" d="M1518.63,-193.9C1386.89,-192.79 1154.9,-186.86 1129,-159 1123.7,-153.3 1124.59,-146.04 1128.01,-138.98"/>
<polygon fill="black" stroke="black" points="1131.12,-140.61 1133.43,-130.27 1125.17,-136.91 1131.12,-140.61"/>
<text text-anchor="middle" x="1165.5" y="-151" font-family="Courier,monospace" font-size="10.00">.array_large</text>
</g>
<!-- vector -->
<g id="node12" class="node">
<title>vector</title>
<polygon fill="none" stroke="black" points="1383.5,-130 1246.5,-130 1246.5,-94 1383.5,-94 1383.5,-130"/>
<text text-anchor="middle" x="1315" y="-115" font-family="Courier,monospace" font-size="10.00">解析向量</text>
<text text-anchor="middle" x="1315" y="-104" font-family="Courier,monospace" font-size="10.00">设置 elem_ctype 和长度</text>
</g>
<!-- switch_tag&#45;&gt;vector -->
<g id="edge12" class="edge">
<title>switch_tag&#45;&gt;vector</title>
<path fill="none" stroke="black" d="M1525.6,-192.59C1414.63,-189.84 1229.93,-181.84 1209,-159 1205.7,-155.4 1206.14,-151.96 1209,-148 1209.4,-147.45 1229.92,-140.62 1252.8,-133.14"/>
<polygon fill="black" stroke="black" points="1253.92,-136.46 1262.34,-130.03 1251.75,-129.8 1253.92,-136.46"/>
<text text-anchor="middle" x="1230.5" y="-151" font-family="Courier,monospace" font-size="10.00">.vector</text>
</g>
<!-- aligned -->
<g id="node13" class="node">
<title>aligned</title>
<polygon fill="none" stroke="black" points="1536,-130 1402,-130 1402,-94 1536,-94 1536,-130"/>
<text text-anchor="middle" x="1469" y="-115" font-family="Courier,monospace" font-size="10.00">解析对齐类型</text>
<text text-anchor="middle" x="1469" y="-104" font-family="Courier,monospace" font-size="10.00">设置 ctype 和 alignas</text>
</g>
<!-- switch_tag&#45;&gt;aligned -->
<g id="edge9" class="edge">
<title>switch_tag&#45;&gt;aligned</title>
<path fill="none" stroke="black" d="M1530.6,-191.62C1433,-187.84 1276.88,-178.75 1259,-159 1255.72,-155.38 1255.67,-151.58 1259,-148 1269.16,-137.06 1378.36,-140.91 1393,-138 1399.68,-136.67 1406.59,-134.94 1413.4,-133"/>
<polygon fill="black" stroke="black" points="1414.69,-136.26 1423.26,-130.03 1412.68,-129.56 1414.69,-136.26"/>
<text text-anchor="middle" x="1283.5" y="-151" font-family="Courier,monospace" font-size="10.00">.aligned</text>
</g>
<!-- fwd_decl_struct_anon -->
<g id="node14" class="node">
<title>fwd_decl_struct_anon</title>
<polygon fill="none" stroke="black" points="1658,-130 1554,-130 1554,-94 1658,-94 1658,-130"/>
<text text-anchor="middle" x="1606" y="-115" font-family="Courier,monospace" font-size="10.00">匿名结构体前向声明</text>
<text text-anchor="middle" x="1606" y="-104" font-family="Courier,monospace" font-size="10.00">设置名称和字段信息</text>
</g>
<!-- switch_tag&#45;&gt;fwd_decl_struct_anon -->
<g id="edge13" class="edge">
<title>switch_tag&#45;&gt;fwd_decl_struct_anon</title>
<path fill="none" stroke="black" d="M1537.63,-190.36C1455.65,-185.43 1330.5,-175.33 1316,-159 1282.08,-120.78 1495.09,-148.97 1545,-138 1550.11,-136.88 1555.34,-135.36 1560.48,-133.62"/>
<polygon fill="black" stroke="black" points="1562.03,-136.78 1570.21,-130.06 1559.62,-130.21 1562.03,-136.78"/>
<text text-anchor="middle" x="1379.5" y="-151" font-family="Courier,monospace" font-size="10.00">.fwd_decl_struct_anon</text>
</g>
<!-- fwd_decl_union_anon -->
<g id="node15" class="node">
<title>fwd_decl_union_anon</title>
<polygon fill="none" stroke="black" points="1780,-130 1676,-130 1676,-94 1780,-94 1780,-130"/>
<text text-anchor="middle" x="1728" y="-115" font-family="Courier,monospace" font-size="10.00">匿名联合体前向声明</text>
<text text-anchor="middle" x="1728" y="-104" font-family="Courier,monospace" font-size="10.00">设置名称和字段信息</text>
</g>
<!-- switch_tag&#45;&gt;fwd_decl_union_anon -->
<g id="edge14" class="edge">
<title>switch_tag&#45;&gt;fwd_decl_union_anon</title>
<path fill="none" stroke="black" d="M1534.98,-190.82C1487.93,-186.2 1440.29,-175.02 1466,-148 1481.41,-131.8 1645.17,-142.87 1667,-138 1672.11,-136.86 1677.33,-135.33 1682.47,-133.59"/>
<polygon fill="black" stroke="black" points="1684.02,-136.75 1692.2,-130.02 1681.61,-130.18 1684.02,-136.75"/>
<text text-anchor="middle" x="1526.5" y="-151" font-family="Courier,monospace" font-size="10.00">.fwd_decl_union_anon</text>
</g>
<!-- fwd_decl_struct -->
<g id="node16" class="node">
<title>fwd_decl_struct</title>
<polygon fill="none" stroke="black" points="1883.5,-130 1798.5,-130 1798.5,-94 1883.5,-94 1883.5,-130"/>
<text text-anchor="middle" x="1841" y="-115" font-family="Courier,monospace" font-size="10.00">结构体前向声明</text>
<text text-anchor="middle" x="1841" y="-104" font-family="Courier,monospace" font-size="10.00">设置名称索引</text>
</g>
<!-- switch_tag&#45;&gt;fwd_decl_struct -->
<g id="edge15" class="edge">
<title>switch_tag&#45;&gt;fwd_decl_struct</title>
<path fill="none" stroke="black" d="M1604.4,-177.86C1602.64,-167.94 1602.56,-155.7 1610,-148 1623.84,-133.68 1769.71,-142.97 1789,-138 1793.09,-136.95 1797.25,-135.56 1801.34,-133.98"/>
<polygon fill="black" stroke="black" points="1802.85,-137.14 1810.69,-130.01 1800.11,-130.7 1802.85,-137.14"/>
<text text-anchor="middle" x="1658.5" y="-151" font-family="Courier,monospace" font-size="10.00">.fwd_decl_struct</text>
</g>
<!-- fwd_decl_union -->
<g id="node17" class="node">
<title>fwd_decl_union</title>
<polygon fill="none" stroke="black" points="1986.5,-130 1901.5,-130 1901.5,-94 1986.5,-94 1986.5,-130"/>
<text text-anchor="middle" x="1944" y="-115" font-family="Courier,monospace" font-size="10.00">联合体前向声明</text>
<text text-anchor="middle" x="1944" y="-104" font-family="Courier,monospace" font-size="10.00">设置名称索引</text>
</g>
<!-- switch_tag&#45;&gt;fwd_decl_union -->
<g id="edge16" class="edge">
<title>switch_tag&#45;&gt;fwd_decl_union</title>
<path fill="none" stroke="black" d="M1641.99,-183.17C1661.15,-176.64 1685.65,-167.89 1707,-159 1717.46,-154.64 1719.03,-150.84 1730,-148 1800.26,-129.78 1822.83,-156.56 1893,-138 1896.86,-136.98 1900.77,-135.66 1904.62,-134.15"/>
<polygon fill="black" stroke="black" points="1906.21,-137.28 1914.02,-130.11 1903.45,-130.85 1906.21,-137.28"/>
<text text-anchor="middle" x="1775.5" y="-151" font-family="Courier,monospace" font-size="10.00">.fwd_decl_union</text>
</g>
<!-- aggregate_struct_anon -->
<g id="node18" class="node">
<title>aggregate_struct_anon</title>
<polygon fill="none" stroke="black" points="2089.5,-130 2004.5,-130 2004.5,-94 2089.5,-94 2089.5,-130"/>
<text text-anchor="middle" x="2047" y="-115" font-family="Courier,monospace" font-size="10.00">匿名结构体聚合</text>
<text text-anchor="middle" x="2047" y="-104" font-family="Courier,monospace" font-size="10.00">设置名称和字段</text>
</g>
<!-- switch_tag&#45;&gt;aggregate_struct_anon -->
<g id="edge17" class="edge">
<title>switch_tag&#45;&gt;aggregate_struct_anon</title>
<path fill="none" stroke="black" d="M1670.38,-188.5C1713.29,-183.55 1771.54,-174.56 1821,-159 1831.81,-155.6 1833.04,-150.87 1844,-148 1909.5,-130.86 1930.59,-155.45 1996,-138 1999.86,-136.97 2003.77,-135.64 2007.62,-134.14"/>
<polygon fill="black" stroke="black" points="2009.21,-137.26 2017.01,-130.09 2006.44,-130.83 2009.21,-137.26"/>
<text text-anchor="middle" x="1910.5" y="-151" font-family="Courier,monospace" font-size="10.00">.aggregate_struct_anon</text>
</g>
<!-- aggregate_union_anon -->
<g id="node19" class="node">
<title>aggregate_union_anon</title>
<polygon fill="none" stroke="black" points="2192.5,-130 2107.5,-130 2107.5,-94 2192.5,-94 2192.5,-130"/>
<text text-anchor="middle" x="2150" y="-115" font-family="Courier,monospace" font-size="10.00">匿名联合体聚合</text>
<text text-anchor="middle" x="2150" y="-104" font-family="Courier,monospace" font-size="10.00">设置名称和字段</text>
</g>
<!-- switch_tag&#45;&gt;aggregate_union_anon -->
<g id="edge18" class="edge">
<title>switch_tag&#45;&gt;aggregate_union_anon</title>
<path fill="none" stroke="black" d="M1700.59,-194.14C1776.04,-192.16 1885.16,-184.46 1977,-159 1987.92,-155.97 1989.09,-151.06 2000,-148 2042.58,-136.06 2056.48,-150.15 2099,-138 2102.79,-136.92 2106.63,-135.57 2110.42,-134.05"/>
<polygon fill="black" stroke="black" points="2111.91,-137.23 2119.69,-130.03 2109.12,-130.81 2111.91,-137.23"/>
<text text-anchor="middle" x="2063.5" y="-151" font-family="Courier,monospace" font-size="10.00">.aggregate_union_anon</text>
</g>
<!-- aggregate_struct_packed_anon -->
<g id="node20" class="node">
<title>aggregate_struct_packed_anon</title>
<polygon fill="none" stroke="black" points="2315,-130 2211,-130 2211,-94 2315,-94 2315,-130"/>
<text text-anchor="middle" x="2263" y="-115" font-family="Courier,monospace" font-size="10.00">紧凑匿名结构体聚合</text>
<text text-anchor="middle" x="2263" y="-104" font-family="Courier,monospace" font-size="10.00">设置 packed 标志</text>
</g>
<!-- switch_tag&#45;&gt;aggregate_struct_packed_anon -->
<g id="edge19" class="edge">
<title>switch_tag&#45;&gt;aggregate_struct_packed_anon</title>
<path fill="none" stroke="black" d="M1690.35,-192.24C1814.92,-188.9 2046.9,-180.03 2127,-159 2137.96,-156.12 2139.24,-151.54 2150,-148 2172.35,-140.64 2179.44,-144.72 2202,-138 2206.31,-136.72 2210.74,-135.24 2215.14,-133.65"/>
<polygon fill="black" stroke="black" points="2216.57,-136.85 2224.69,-130.05 2214.1,-130.3 2216.57,-136.85"/>
<text text-anchor="middle" x="2237.5" y="-151" font-family="Courier,monospace" font-size="10.00">.aggregate_struct_packed_anon</text>
</g>
<!-- aggregate_union_packed_anon -->
<g id="node21" class="node">
<title>aggregate_union_packed_anon</title>
<polygon fill="none" stroke="black" points="2437,-130 2333,-130 2333,-94 2437,-94 2437,-130"/>
<text text-anchor="middle" x="2385" y="-115" font-family="Courier,monospace" font-size="10.00">紧凑匿名联合体聚合</text>
<text text-anchor="middle" x="2385" y="-104" font-family="Courier,monospace" font-size="10.00">设置 packed 标志</text>
</g>
<!-- switch_tag&#45;&gt;aggregate_union_packed_anon -->
<g id="edge20" class="edge">
<title>switch_tag&#45;&gt;aggregate_union_packed_anon</title>
<path fill="none" stroke="black" d="M1693.03,-192.7C1869.47,-189.57 2267.09,-180.24 2325,-159 2338.13,-154.19 2350.72,-145.41 2360.95,-136.81"/>
<polygon fill="black" stroke="black" points="2363.44,-139.28 2368.61,-130.03 2358.8,-134.04 2363.44,-139.28"/>
<text text-anchor="middle" x="2429.5" y="-151" font-family="Courier,monospace" font-size="10.00">.aggregate_union_packed_anon</text>
</g>
<!-- aggregate_struct -->
<g id="node22" class="node">
<title>aggregate_struct</title>
<polygon fill="none" stroke="black" points="2540.5,-130 2455.5,-130 2455.5,-94 2540.5,-94 2540.5,-130"/>
<text text-anchor="middle" x="2498" y="-115" font-family="Courier,monospace" font-size="10.00">结构体聚合</text>
<text text-anchor="middle" x="2498" y="-104" font-family="Courier,monospace" font-size="10.00">设置名称和字段</text>
</g>
<!-- switch_tag&#45;&gt;aggregate_struct -->
<g id="edge21" class="edge">
<title>switch_tag&#45;&gt;aggregate_struct</title>
<path fill="none" stroke="black" d="M1699.01,-193.86C1922.89,-193.06 2488.95,-188.15 2517,-159 2522.39,-153.4 2521.64,-146.05 2518.41,-138.87"/>
<polygon fill="black" stroke="black" points="2521.31,-136.9 2513.25,-130.02 2515.26,-140.43 2521.31,-136.9"/>
<text text-anchor="middle" x="2571.5" y="-151" font-family="Courier,monospace" font-size="10.00">.aggregate_struct</text>
</g>
<!-- aggregate_union -->
<g id="node23" class="node">
<title>aggregate_union</title>
<polygon fill="none" stroke="black" points="2643.5,-130 2558.5,-130 2558.5,-94 2643.5,-94 2643.5,-130"/>
<text text-anchor="middle" x="2601" y="-115" font-family="Courier,monospace" font-size="10.00">联合体聚合</text>
<text text-anchor="middle" x="2601" y="-104" font-family="Courier,monospace" font-size="10.00">设置名称和字段</text>
</g>
<!-- switch_tag&#45;&gt;aggregate_union -->
<g id="edge22" class="edge">
<title>switch_tag&#45;&gt;aggregate_union</title>
<path fill="none" stroke="black" d="M1701.34,-194.26C1946.11,-194.49 2595.13,-191.99 2627,-159 2632.77,-153.03 2631.21,-145.52 2626.77,-138.32"/>
<polygon fill="black" stroke="black" points="2629.36,-135.94 2620.52,-130.11 2623.79,-140.18 2629.36,-135.94"/>
<text text-anchor="middle" x="2678.5" y="-151" font-family="Courier,monospace" font-size="10.00">.aggregate_union</text>
</g>
<!-- aggregate_struct_packed -->
<g id="node24" class="node">
<title>aggregate_struct_packed</title>
<polygon fill="none" stroke="black" points="2764.5,-130 2661.5,-130 2661.5,-94 2764.5,-94 2764.5,-130"/>
<text text-anchor="middle" x="2713" y="-115" font-family="Courier,monospace" font-size="10.00">紧凑结构体聚合</text>
<text text-anchor="middle" x="2713" y="-104" font-family="Courier,monospace" font-size="10.00">设置 packed 标志</text>
</g>
<!-- switch_tag&#45;&gt;aggregate_struct_packed -->
<g id="edge23" class="edge">
<title>switch_tag&#45;&gt;aggregate_struct_packed</title>
<path fill="none" stroke="black" d="M1703.09,-194.58C1966.68,-195.75 2695.48,-195.65 2731,-159 2736.37,-153.46 2735.74,-146.13 2732.67,-138.95"/>
<polygon fill="black" stroke="black" points="2735.65,-137.12 2727.73,-130.09 2729.54,-140.53 2735.65,-137.12"/>
<text text-anchor="middle" x="2807.5" y="-151" font-family="Courier,monospace" font-size="10.00">.aggregate_struct_packed</text>
</g>
<!-- aggregate_union_packed -->
<g id="node25" class="node">
<title>aggregate_union_packed</title>
<polygon fill="none" stroke="black" points="2885.5,-130 2782.5,-130 2782.5,-94 2885.5,-94 2885.5,-130"/>
<text text-anchor="middle" x="2834" y="-115" font-family="Courier,monospace" font-size="10.00">紧凑联合体聚合</text>
<text text-anchor="middle" x="2834" y="-104" font-family="Courier,monospace" font-size="10.00">设置 packed 标志</text>
</g>
<!-- switch_tag&#45;&gt;aggregate_union_packed -->
<g id="edge24" class="edge">
<title>switch_tag&#45;&gt;aggregate_union_packed</title>
<path fill="none" stroke="black" d="M1696.03,-193.23C1980.11,-190.49 2863.27,-180.3 2884,-159 2891.44,-151.35 2887.38,-143.36 2879.01,-136.23"/>
<polygon fill="black" stroke="black" points="2880.87,-133.26 2870.73,-130.21 2876.76,-138.92 2880.87,-133.26"/>
<text text-anchor="middle" x="2956.5" y="-151" font-family="Courier,monospace" font-size="10.00">.aggregate_union_packed</text>
</g>
<!-- function -->
<g id="node26" class="node">
<title>function</title>
<polygon fill="none" stroke="black" points="3008,-130 2904,-130 2904,-94 3008,-94 3008,-130"/>
<text text-anchor="middle" x="2956" y="-115" font-family="Courier,monospace" font-size="10.00">解析函数</text>
<text text-anchor="middle" x="2956" y="-104" font-family="Courier,monospace" font-size="10.00">设置返回类型和参数</text>
</g>
<!-- switch_tag&#45;&gt;function -->
<g id="edge25" class="edge">
<title>switch_tag&#45;&gt;function</title>
<path fill="none" stroke="black" d="M1697.06,-193.47C2003.6,-191.43 3006.65,-182.94 3030,-159 3033.41,-155.5 3032.62,-152.13 3030,-148 3027.26,-143.68 3020.21,-139.02 3011.49,-134.55"/>
<polygon fill="black" stroke="black" points="3012.84,-131.32 3002.31,-130.17 3009.83,-137.64 3012.84,-131.32"/>
<text text-anchor="middle" x="3059.5" y="-151" font-family="Courier,monospace" font-size="10.00">.function</text>
</g>
<!-- function_varargs -->
<g id="node27" class="node">
<title>function_varargs</title>
<polygon fill="none" stroke="black" points="3135.5,-130 3026.5,-130 3026.5,-94 3135.5,-94 3135.5,-130"/>
<text text-anchor="middle" x="3081" y="-115" font-family="Courier,monospace" font-size="10.00">解析可变参数函数</text>
<text text-anchor="middle" x="3081" y="-104" font-family="Courier,monospace" font-size="10.00">设置 varargs 标志</text>
</g>
<!-- switch_tag&#45;&gt;function_varargs -->
<g id="edge26" class="edge">
<title>switch_tag&#45;&gt;function_varargs</title>
<path fill="none" stroke="black" d="M1697.54,-193.56C2013.28,-191.8 3066.55,-184.04 3091,-159 3095.91,-153.97 3096.39,-147.13 3094.87,-140.26"/>
<polygon fill="black" stroke="black" points="3098.04,-138.71 3091.48,-130.39 3091.42,-140.98 3098.04,-138.71"/>
<text text-anchor="middle" x="3146.5" y="-151" font-family="Courier,monospace" font-size="10.00">.function_varargs</text>
</g>
<!-- pointer&#45;&gt;return -->
<g id="edge27" class="edge">
<title>pointer&#45;&gt;return</title>
<path fill="none" stroke="black" d="M276.51,-93.94C287.68,-82.93 303.77,-69.48 321,-63 403.86,-31.81 431.52,-57.17 520,-54 990.1,-37.14 1554.57,-24.84 1760.68,-20.6"/>
<polygon fill="black" stroke="black" points="1760.89,-24.1 1770.81,-20.4 1760.74,-17.1 1760.89,-24.1"/>
</g>
<!-- pointer_const&#45;&gt;return -->
<g id="edge28" class="edge">
<title>pointer_const&#45;&gt;return</title>
<path fill="none" stroke="black" d="M429.19,-93.87C445.56,-82.82 468.5,-69.37 491,-63 592.85,-34.16 623.21,-57.67 729,-54 1115.72,-40.6 1578.17,-26.74 1761,-21.34"/>
<polygon fill="black" stroke="black" points="1761.17,-24.84 1771.06,-21.05 1760.96,-17.84 1761.17,-24.84"/>
</g>
<!-- pointer_volatile&#45;&gt;return -->
<g id="edge29" class="edge">
<title>pointer_volatile&#45;&gt;return</title>
<path fill="none" stroke="black" d="M610.91,-93.87C629.13,-82.83 654.53,-69.38 679,-63 782.7,-35.97 1513.72,-23.51 1760.13,-20.04"/>
<polygon fill="black" stroke="black" points="1760.5,-23.54 1770.45,-19.9 1760.4,-16.54 1760.5,-23.54"/>
</g>
<!-- pointer_const_volatile&#45;&gt;return -->
<g id="edge30" class="edge">
<title>pointer_const_volatile&#45;&gt;return</title>
<path fill="none" stroke="black" d="M825.21,-94C847.73,-83.01 878.88,-69.57 908,-63 988.3,-44.87 1010.77,-57.92 1093,-54 1336.78,-42.37 1625.28,-28.97 1761.8,-22.66"/>
<polygon fill="black" stroke="black" points="1762.33,-26.14 1772.16,-22.18 1762.01,-19.14 1762.33,-26.14"/>
</g>
<!-- array_small&#45;&gt;return -->
<g id="edge32" class="edge">
<title>array_small&#45;&gt;return</title>
<path fill="none" stroke="black" d="M1006.09,-93.99C1021.03,-83 1042.06,-69.57 1063,-63 1191.14,-22.79 1588.49,-18.48 1760.39,-18.58"/>
<polygon fill="black" stroke="black" points="1760.39,-22.08 1770.39,-18.59 1760.39,-15.08 1760.39,-22.08"/>
</g>
<!-- array_large&#45;&gt;return -->
<g id="edge33" class="edge">
<title>array_large&#45;&gt;return</title>
<path fill="none" stroke="black" d="M1174.54,-93.89C1191.53,-83 1215.13,-69.73 1238,-63 1333.66,-34.86 1619.47,-24.25 1760.49,-20.65"/>
<polygon fill="black" stroke="black" points="1760.89,-24.15 1770.8,-20.4 1760.72,-17.15 1760.89,-24.15"/>
</g>
<!-- vector&#45;&gt;return -->
<g id="edge34" class="edge">
<title>vector&#45;&gt;return</title>
<path fill="none" stroke="black" d="M1336.84,-93.8C1351.77,-83.02 1372.51,-69.9 1393,-63 1459.26,-40.69 1651.72,-28.07 1761.62,-22.5"/>
<polygon fill="black" stroke="black" points="1761.86,-25.99 1771.67,-22 1761.51,-19 1761.86,-25.99"/>
</g>
<!-- aligned&#45;&gt;return -->
<g id="edge31" class="edge">
<title>aligned&#45;&gt;return</title>
<path fill="none" stroke="black" d="M1490.65,-93.88C1505.19,-83.28 1525.25,-70.33 1545,-63 1615.21,-36.94 1700.21,-26.27 1761.08,-21.93"/>
<polygon fill="black" stroke="black" points="1761.65,-25.4 1771.4,-21.24 1761.18,-18.42 1761.65,-25.4"/>
</g>
<!-- fwd_decl_struct_anon&#45;&gt;return -->
<g id="edge35" class="edge">
<title>fwd_decl_struct_anon&#45;&gt;return</title>
<path fill="none" stroke="black" d="M1623.58,-93.88C1635.08,-83.56 1650.92,-70.91 1667,-63 1699.56,-46.98 1738.5,-36.43 1771.28,-29.69"/>
<polygon fill="black" stroke="black" points="1772.12,-33.09 1781.25,-27.72 1770.76,-26.23 1772.12,-33.09"/>
</g>
<!-- fwd_decl_union_anon&#45;&gt;return -->
<g id="edge36" class="edge">
<title>fwd_decl_union_anon&#45;&gt;return</title>
<path fill="none" stroke="black" d="M1748.99,-93.91C1767.05,-79.2 1793.26,-57.87 1813.09,-41.73"/>
<polygon fill="black" stroke="black" points="1815.34,-44.41 1820.88,-35.38 1810.92,-38.98 1815.34,-44.41"/>
</g>
<!-- fwd_decl_struct&#45;&gt;return -->
<g id="edge37" class="edge">
<title>fwd_decl_struct&#45;&gt;return</title>
<path fill="none" stroke="black" d="M1841,-93.7C1841,-80.46 1841,-61.95 1841,-46.66"/>
<polygon fill="black" stroke="black" points="1844.5,-46.23 1841,-36.23 1837.5,-46.23 1844.5,-46.23"/>
</g>
<!-- fwd_decl_union&#45;&gt;return -->
<g id="edge38" class="edge">
<title>fwd_decl_union&#45;&gt;return</title>
<path fill="none" stroke="black" d="M1926.28,-93.88C1916.57,-84.62 1904.25,-73.04 1893,-63 1885.19,-56.03 1876.57,-48.62 1868.62,-41.91"/>
<polygon fill="black" stroke="black" points="1870.87,-39.23 1860.96,-35.47 1866.37,-44.59 1870.87,-39.23"/>
</g>
<!-- aggregate_struct_anon&#45;&gt;return -->
<g id="edge39" class="edge">
<title>aggregate_struct_anon&#45;&gt;return</title>
<path fill="none" stroke="black" d="M2032.52,-93.7C2023.08,-83.43 2009.96,-70.92 1996,-63 1969.23,-47.82 1936.84,-37.56 1908.6,-30.79"/>
<polygon fill="black" stroke="black" points="1909.33,-27.37 1898.8,-28.55 1907.77,-34.19 1909.33,-27.37"/>
</g>
<!-- aggregate_union_anon&#45;&gt;return -->
<g id="edge40" class="edge">
<title>aggregate_union_anon&#45;&gt;return</title>
<path fill="none" stroke="black" d="M2136.23,-93.63C2126.87,-83.07 2113.58,-70.26 2099,-63 2043.59,-35.41 1974.1,-24.72 1921.2,-20.76"/>
<polygon fill="black" stroke="black" points="1921.4,-17.27 1911.19,-20.08 1920.93,-24.25 1921.4,-17.27"/>
</g>
<!-- aggregate_struct_packed_anon&#45;&gt;return -->
<g id="edge41" class="edge">
<title>aggregate_struct_packed_anon&#45;&gt;return</title>
<path fill="none" stroke="black" d="M2246.51,-93.88C2235.08,-83.14 2218.92,-70.04 2202,-63 2152.53,-42.43 2010,-29.8 1919.54,-23.62"/>
<polygon fill="black" stroke="black" points="1919.53,-20.11 1909.32,-22.93 1919.06,-27.09 1919.53,-20.11"/>
</g>
<!-- aggregate_union_packed_anon&#45;&gt;return -->
<g id="edge42" class="edge">
<title>aggregate_union_packed_anon&#45;&gt;return</title>
<path fill="none" stroke="black" d="M2368.58,-93.71C2357.18,-82.9 2341.03,-69.78 2324,-63 2252.92,-34.71 2039.41,-24.41 1921.47,-20.82"/>
<polygon fill="black" stroke="black" points="1921.51,-17.32 1911.41,-20.52 1921.3,-24.32 1921.51,-17.32"/>
</g>
<!-- aggregate_struct&#45;&gt;return -->
<g id="edge43" class="edge">
<title>aggregate_struct&#45;&gt;return</title>
<path fill="none" stroke="black" d="M2484.54,-93.63C2475.05,-82.78 2461.33,-69.65 2446,-63 2354.09,-23.16 2064.68,-18.23 1922.06,-18.33"/>
<polygon fill="black" stroke="black" points="1921.63,-14.83 1911.63,-18.35 1921.64,-21.83 1921.63,-14.83"/>
</g>
<!-- aggregate_union&#45;&gt;return -->
<g id="edge44" class="edge">
<title>aggregate_union&#45;&gt;return</title>
<path fill="none" stroke="black" d="M2587.86,-93.65C2578.57,-82.82 2565.12,-69.69 2550,-63 2502.71,-42.09 2485.59,-57.52 2434,-54 2249.73,-41.41 2033.06,-29.31 1919.51,-23.17"/>
<polygon fill="black" stroke="black" points="1919.68,-19.68 1909.51,-22.63 1919.31,-26.67 1919.68,-19.68"/>
</g>
<!-- aggregate_struct_packed&#45;&gt;return -->
<g id="edge45" class="edge">
<title>aggregate_struct_packed&#45;&gt;return</title>
<path fill="none" stroke="black" d="M2696.98,-93.52C2685.82,-82.63 2669.94,-69.49 2653,-63 2586.9,-37.69 2564.67,-57.89 2494,-54 2286.71,-42.58 2042.38,-29.62 1919.69,-23.14"/>
<polygon fill="black" stroke="black" points="1919.8,-19.64 1909.63,-22.61 1919.44,-26.63 1919.8,-19.64"/>
</g>
<!-- aggregate_union_packed&#45;&gt;return -->
<g id="edge46" class="edge">
<title>aggregate_union_packed&#45;&gt;return</title>
<path fill="none" stroke="black" d="M2818.49,-93.95C2807.31,-82.94 2791.22,-69.5 2774,-63 2695.45,-33.35 2133.34,-22.88 1921.5,-19.96"/>
<polygon fill="black" stroke="black" points="1921.42,-16.46 1911.38,-19.82 1921.33,-23.46 1921.42,-16.46"/>
</g>
<!-- function&#45;&gt;return -->
<g id="edge47" class="edge">
<title>function&#45;&gt;return</title>
<path fill="none" stroke="black" d="M2939.64,-93.55C2928.27,-82.67 2912.12,-69.53 2895,-63 2835.09,-40.14 2815.04,-57.23 2751,-54 2444.3,-38.52 2079.14,-26.38 1920.79,-21.43"/>
<polygon fill="black" stroke="black" points="1920.77,-17.92 1910.67,-21.11 1920.55,-24.92 1920.77,-17.92"/>
</g>
<!-- function_varargs&#45;&gt;return -->
<g id="edge48" class="edge">
<title>function_varargs&#45;&gt;return</title>
<path fill="none" stroke="black" d="M3064.24,-93.94C3052.23,-82.92 3035.04,-69.48 3017,-63 2935.77,-33.81 2909.24,-57.54 2823,-54 2487.84,-40.25 2088.2,-26.98 1920.86,-21.56"/>
<polygon fill="black" stroke="black" points="1920.77,-18.05 1910.66,-21.23 1920.54,-25.05 1920.77,-18.05"/>
</g>
</g>
</svg>
