<?xml version="1.0" encoding="UTF-8" standalone="no"?>
<!DOCTYPE svg PUBLIC "-//W3C//DTD SVG 1.1//EN"
 "http://www.w3.org/Graphics/SVG/1.1/DTD/svg11.dtd">
<!-- Generated by graphviz version 2.43.0 (0)
 -->
<!-- Title: flowchart Pages: 1 -->
<svg width="671pt" height="1592pt"
 viewBox="0.00 0.00 671.00 1592.00" xmlns="http://www.w3.org/2000/svg" xmlns:xlink="http://www.w3.org/1999/xlink">
<g id="graph0" class="graph" transform="scale(1 1) rotate(0) translate(4 1588)">
<title>flowchart</title>
<polygon fill="white" stroke="transparent" points="-4,4 -4,-1588 667,-1588 667,4 -4,4"/>
<!-- start -->
<g id="node1" class="node">
<title>start</title>
<path fill="none" stroke="black" d="M517,-1584C517,-1584 447,-1584 447,-1584 441,-1584 435,-1578 435,-1572 435,-1572 435,-1560 435,-1560 435,-1554 441,-1548 447,-1548 447,-1548 517,-1548 517,-1548 523,-1548 529,-1554 529,-1560 529,-1560 529,-1572 529,-1572 529,-1578 523,-1584 517,-1584"/>
<text text-anchor="middle" x="482" y="-1562.3" font-family="Arial" font-size="14.00">开始 cImport</text>
</g>
<!-- check_dev_mode -->
<g id="node2" class="node">
<title>check_dev_mode</title>
<path fill="none" stroke="black" d="M626,-1511C626,-1511 338,-1511 338,-1511 332,-1511 326,-1505 326,-1499 326,-1499 326,-1487 326,-1487 326,-1481 332,-1475 338,-1475 338,-1475 626,-1475 626,-1475 632,-1475 638,-1481 638,-1487 638,-1487 638,-1499 638,-1499 638,-1505 632,-1511 626,-1511"/>
<text text-anchor="middle" x="482" y="-1489.3" font-family="Arial" font-size="14.00">检查开发模式 dev.check(.translate_c_command)</text>
</g>
<!-- start&#45;&gt;check_dev_mode -->
<g id="edge1" class="edge">
<title>start&#45;&gt;check_dev_mode</title>
<path fill="none" stroke="black" d="M482,-1547.81C482,-1539.79 482,-1530.05 482,-1521.07"/>
<polygon fill="black" stroke="black" points="485.5,-1521.03 482,-1511.03 478.5,-1521.03 485.5,-1521.03"/>
</g>
<!-- init_tracy_trace -->
<g id="node3" class="node">
<title>init_tracy_trace</title>
<path fill="none" stroke="black" d="M563,-1438C563,-1438 401,-1438 401,-1438 395,-1438 389,-1432 389,-1426 389,-1426 389,-1414 389,-1414 389,-1408 395,-1402 401,-1402 401,-1402 563,-1402 563,-1402 569,-1402 575,-1408 575,-1414 575,-1414 575,-1426 575,-1426 575,-1432 569,-1438 563,-1438"/>
<text text-anchor="middle" x="482" y="-1416.3" font-family="Arial" font-size="14.00">初始化性能追踪 tracy_trace</text>
</g>
<!-- check_dev_mode&#45;&gt;init_tracy_trace -->
<g id="edge2" class="edge">
<title>check_dev_mode&#45;&gt;init_tracy_trace</title>
<path fill="none" stroke="black" d="M482,-1474.81C482,-1466.79 482,-1457.05 482,-1448.07"/>
<polygon fill="black" stroke="black" points="485.5,-1448.03 482,-1438.03 478.5,-1448.03 485.5,-1448.03"/>
</g>
<!-- obtain_cache_manifest -->
<g id="node4" class="node">
<title>obtain_cache_manifest</title>
<path fill="none" stroke="black" d="M651,-1351C651,-1351 313,-1351 313,-1351 307,-1351 301,-1345 301,-1339 301,-1339 301,-1327 301,-1327 301,-1321 307,-1315 313,-1315 313,-1315 651,-1315 651,-1315 657,-1315 663,-1321 663,-1327 663,-1327 663,-1339 663,-1339 663,-1345 657,-1351 651,-1351"/>
<text text-anchor="middle" x="482" y="-1329.3" font-family="Arial" font-size="14.00">获取缓存清单 man = comp.obtainCObjectCacheManifest</text>
</g>
<!-- init_tracy_trace&#45;&gt;obtain_cache_manifest -->
<g id="edge3" class="edge">
<title>init_tracy_trace&#45;&gt;obtain_cache_manifest</title>
<path fill="none" stroke="black" d="M480.73,-1401.88C480.17,-1392.23 479.69,-1379.94 480,-1369 480.07,-1366.44 480.18,-1363.79 480.3,-1361.13"/>
<polygon fill="black" stroke="black" points="483.79,-1361.25 480.83,-1351.08 476.8,-1360.88 483.79,-1361.25"/>
</g>
<!-- init_tracy_trace&#45;&gt;obtain_cache_manifest -->
<g id="edge25" class="edge">
<title>init_tracy_trace&#45;&gt;obtain_cache_manifest</title>
<path fill="none" stroke="black" stroke-dasharray="5,2" d="M482,-1401.8C482,-1390.16 482,-1374.55 482,-1361.24"/>
<polygon fill="black" stroke="black" points="485.5,-1361.18 482,-1351.18 478.5,-1361.18 485.5,-1361.18"/>
<text text-anchor="middle" x="550.5" y="-1372.8" font-family="Arial" font-size="14.00">defer tracy_trace.end()</text>
</g>
<!-- hash_inputs -->
<g id="node5" class="node">
<title>hash_inputs</title>
<path fill="none" stroke="black" d="M604.5,-1264C604.5,-1264 359.5,-1264 359.5,-1264 353.5,-1264 347.5,-1258 347.5,-1252 347.5,-1252 347.5,-1240 347.5,-1240 347.5,-1234 353.5,-1228 359.5,-1228 359.5,-1228 604.5,-1228 604.5,-1228 610.5,-1228 616.5,-1234 616.5,-1240 616.5,-1240 616.5,-1252 616.5,-1252 616.5,-1258 610.5,-1264 604.5,-1264"/>
<text text-anchor="middle" x="482" y="-1242.3" font-family="Arial" font-size="14.00">添加哈希项：随机数、C源码、前端配置</text>
</g>
<!-- obtain_cache_manifest&#45;&gt;hash_inputs -->
<g id="edge4" class="edge">
<title>obtain_cache_manifest&#45;&gt;hash_inputs</title>
<path fill="none" stroke="black" d="M480.73,-1314.88C480.17,-1305.23 479.69,-1292.94 480,-1282 480.07,-1279.44 480.18,-1276.79 480.3,-1274.13"/>
<polygon fill="black" stroke="black" points="483.79,-1274.25 480.83,-1264.08 476.8,-1273.88 483.79,-1274.25"/>
</g>
<!-- obtain_cache_manifest&#45;&gt;hash_inputs -->
<g id="edge26" class="edge">
<title>obtain_cache_manifest&#45;&gt;hash_inputs</title>
<path fill="none" stroke="black" stroke-dasharray="5,2" d="M482,-1314.8C482,-1303.16 482,-1287.55 482,-1274.24"/>
<polygon fill="black" stroke="black" points="485.5,-1274.18 482,-1264.18 478.5,-1274.18 485.5,-1274.18"/>
<text text-anchor="middle" x="535.5" y="-1285.8" font-family="Arial" font-size="14.00">defer man.deinit()</text>
</g>
<!-- check_cache_hit -->
<g id="node6" class="node">
<title>check_cache_hit</title>
<path fill="none" stroke="black" d="M549.5,-1191C549.5,-1191 414.5,-1191 414.5,-1191 408.5,-1191 402.5,-1185 402.5,-1179 402.5,-1179 402.5,-1167 402.5,-1167 402.5,-1161 408.5,-1155 414.5,-1155 414.5,-1155 549.5,-1155 549.5,-1155 555.5,-1155 561.5,-1161 561.5,-1167 561.5,-1167 561.5,-1179 561.5,-1179 561.5,-1185 555.5,-1191 549.5,-1191"/>
<text text-anchor="middle" x="482" y="-1169.3" font-family="Arial" font-size="14.00">检查缓存命中 man.hit()</text>
</g>
<!-- hash_inputs&#45;&gt;check_cache_hit -->
<g id="edge5" class="edge">
<title>hash_inputs&#45;&gt;check_cache_hit</title>
<path fill="none" stroke="black" d="M482,-1227.81C482,-1219.79 482,-1210.05 482,-1201.07"/>
<polygon fill="black" stroke="black" points="485.5,-1201.03 482,-1191.03 478.5,-1201.03 485.5,-1201.03"/>
</g>
<!-- unhit_if_empty -->
<g id="node7" class="node">
<title>unhit_if_empty</title>
<path fill="none" stroke="black" d="M485,-1104C485,-1104 279,-1104 279,-1104 273,-1104 267,-1098 267,-1092 267,-1092 267,-1080 267,-1080 267,-1074 273,-1068 279,-1068 279,-1068 485,-1068 485,-1068 491,-1068 497,-1074 497,-1080 497,-1080 497,-1092 497,-1092 497,-1098 491,-1104 485,-1104"/>
<text text-anchor="middle" x="382" y="-1082.3" font-family="Arial" font-size="14.00">如果文件列表为空，撤销缓存命中</text>
</g>
<!-- check_cache_hit&#45;&gt;unhit_if_empty -->
<g id="edge6" class="edge">
<title>check_cache_hit&#45;&gt;unhit_if_empty</title>
<path fill="none" stroke="black" d="M456.51,-1154.92C448.77,-1149.44 440.37,-1143.18 433,-1137 423.69,-1129.19 414.03,-1120.03 405.66,-1111.7"/>
<polygon fill="black" stroke="black" points="407.9,-1108.99 398.38,-1104.35 402.93,-1113.92 407.9,-1108.99"/>
<text text-anchor="middle" x="476" y="-1125.8" font-family="Arial" font-size="14.00">文件列表为空</text>
</g>
<!-- determine_actual_hit -->
<g id="node8" class="node">
<title>determine_actual_hit</title>
<path fill="none" stroke="black" d="M572.5,-1031C572.5,-1031 405.5,-1031 405.5,-1031 399.5,-1031 393.5,-1025 393.5,-1019 393.5,-1019 393.5,-1007 393.5,-1007 393.5,-1001 399.5,-995 405.5,-995 405.5,-995 572.5,-995 572.5,-995 578.5,-995 584.5,-1001 584.5,-1007 584.5,-1007 584.5,-1019 584.5,-1019 584.5,-1025 578.5,-1031 572.5,-1031"/>
<text text-anchor="middle" x="489" y="-1009.3" font-family="Arial" font-size="14.00">确定实际命中状态 actual_hit</text>
</g>
<!-- check_cache_hit&#45;&gt;determine_actual_hit -->
<g id="edge8" class="edge">
<title>check_cache_hit&#45;&gt;determine_actual_hit</title>
<path fill="none" stroke="black" d="M506.07,-1154.7C511.31,-1149.64 516.13,-1143.66 519,-1137 532.72,-1105.14 518.12,-1065.81 504.9,-1040.33"/>
<polygon fill="black" stroke="black" points="507.83,-1038.39 499.97,-1031.29 501.69,-1041.74 507.83,-1038.39"/>
<text text-anchor="middle" x="568" y="-1082.3" font-family="Arial" font-size="14.00">文件列表非空</text>
</g>
<!-- unhit_if_empty&#45;&gt;determine_actual_hit -->
<g id="edge7" class="edge">
<title>unhit_if_empty&#45;&gt;determine_actual_hit</title>
<path fill="none" stroke="black" d="M407.63,-1067.99C421.69,-1058.67 439.31,-1046.97 454.55,-1036.86"/>
<polygon fill="black" stroke="black" points="456.81,-1039.56 463.21,-1031.11 452.94,-1033.73 456.81,-1039.56"/>
</g>
<!-- cache_miss -->
<g id="node9" class="node">
<title>cache_miss</title>
<path fill="none" stroke="black" d="M477.22,-955.73C477.22,-955.73 407.27,-942.27 407.27,-942.27 401.38,-941.13 401.38,-938.87 407.27,-937.73 407.27,-937.73 477.22,-924.27 477.22,-924.27 483.11,-923.13 494.89,-923.13 500.78,-924.27 500.78,-924.27 570.73,-937.73 570.73,-937.73 576.62,-938.87 576.62,-941.13 570.73,-942.27 570.73,-942.27 500.78,-955.73 500.78,-955.73 494.89,-956.87 483.11,-956.87 477.22,-955.73"/>
<text text-anchor="middle" x="489" y="-936.3" font-family="Arial" font-size="14.00">缓存未命中？</text>
</g>
<!-- determine_actual_hit&#45;&gt;cache_miss -->
<g id="edge9" class="edge">
<title>determine_actual_hit&#45;&gt;cache_miss</title>
<path fill="none" stroke="black" d="M489,-994.81C489,-986.79 489,-977.05 489,-968.07"/>
<polygon fill="black" stroke="black" points="492.5,-968.03 489,-958.03 485.5,-968.03 492.5,-968.03"/>
</g>
<!-- arena_init -->
<g id="node10" class="node">
<title>arena_init</title>
<path fill="none" stroke="black" d="M464.5,-871C464.5,-871 233.5,-871 233.5,-871 227.5,-871 221.5,-865 221.5,-859 221.5,-859 221.5,-847 221.5,-847 221.5,-841 227.5,-835 233.5,-835 233.5,-835 464.5,-835 464.5,-835 470.5,-835 476.5,-841 476.5,-847 476.5,-847 476.5,-859 476.5,-859 476.5,-865 470.5,-871 464.5,-871"/>
<text text-anchor="middle" x="349" y="-849.3" font-family="Arial" font-size="14.00">初始化临时内存分配器 arena_allocator</text>
</g>
<!-- cache_miss&#45;&gt;arena_init -->
<g id="edge10" class="edge">
<title>cache_miss&#45;&gt;arena_init</title>
<path fill="none" stroke="black" d="M467.74,-926.09C446.11,-912.96 412.18,-892.36 386.11,-876.53"/>
<polygon fill="black" stroke="black" points="387.62,-873.35 377.25,-871.15 383.98,-879.33 387.62,-873.35"/>
<text text-anchor="middle" x="435.5" y="-892.8" font-family="Arial" font-size="14.00">否</text>
</g>
<!-- update_manifest -->
<g id="node21" class="node">
<title>update_manifest</title>
<path fill="none" stroke="black" d="M382,-109C382,-109 204,-109 204,-109 198,-109 192,-103 192,-97 192,-97 192,-85 192,-85 192,-79 198,-73 204,-73 204,-73 382,-73 382,-73 388,-73 394,-79 394,-85 394,-85 394,-97 394,-97 394,-103 388,-109 382,-109"/>
<text text-anchor="middle" x="293" y="-87.3" font-family="Arial" font-size="14.00">更新缓存清单（如果持有锁）</text>
</g>
<!-- cache_miss&#45;&gt;update_manifest -->
<g id="edge23" class="edge">
<title>cache_miss&#45;&gt;update_manifest</title>
<path fill="none" stroke="black" d="M503.1,-924.38C516.95,-908.43 536,-881.49 536,-854 536,-854 536,-854 536,-177 536,-146.76 468.12,-124.74 404.11,-110.7"/>
<polygon fill="black" stroke="black" points="404.81,-107.27 394.29,-108.6 403.34,-114.12 404.81,-107.27"/>
<text text-anchor="middle" x="543.5" y="-529.3" font-family="Arial" font-size="14.00">是</text>
</g>
<!-- create_tmp_dir -->
<g id="node11" class="node">
<title>create_tmp_dir</title>
<path fill="none" stroke="black" d="M419.5,-784C419.5,-784 224.5,-784 224.5,-784 218.5,-784 212.5,-778 212.5,-772 212.5,-772 212.5,-760 212.5,-760 212.5,-754 218.5,-748 224.5,-748 224.5,-748 419.5,-748 419.5,-748 425.5,-748 431.5,-754 431.5,-760 431.5,-760 431.5,-772 431.5,-772 431.5,-778 425.5,-784 419.5,-784"/>
<text text-anchor="middle" x="322" y="-762.3" font-family="Arial" font-size="14.00">创建临时目录 zig_cache_tmp_dir</text>
</g>
<!-- arena_init&#45;&gt;create_tmp_dir -->
<g id="edge11" class="edge">
<title>arena_init&#45;&gt;create_tmp_dir</title>
<path fill="none" stroke="black" d="M338.12,-834.73C335.08,-829.24 332.05,-823.02 330,-817 327.54,-809.76 325.82,-801.67 324.63,-794.13"/>
<polygon fill="black" stroke="black" points="328.08,-793.46 323.28,-784.01 321.14,-794.39 328.08,-793.46"/>
</g>
<!-- arena_init&#45;&gt;create_tmp_dir -->
<g id="edge27" class="edge">
<title>arena_init&#45;&gt;create_tmp_dir</title>
<path fill="none" stroke="black" stroke-dasharray="5,2" d="M343.54,-834.8C339.8,-823.05 334.78,-807.24 330.53,-793.84"/>
<polygon fill="black" stroke="black" points="333.82,-792.65 327.46,-784.18 327.15,-794.77 333.82,-792.65"/>
<text text-anchor="middle" x="424" y="-805.8" font-family="Arial" font-size="14.00">defer arena_allocator.deinit()</text>
</g>
<!-- write_c_src -->
<g id="node12" class="node">
<title>write_c_src</title>
<path fill="none" stroke="black" d="M373.5,-697C373.5,-697 242.5,-697 242.5,-697 236.5,-697 230.5,-691 230.5,-685 230.5,-685 230.5,-673 230.5,-673 230.5,-667 236.5,-661 242.5,-661 242.5,-661 373.5,-661 373.5,-661 379.5,-661 385.5,-667 385.5,-673 385.5,-673 385.5,-685 385.5,-685 385.5,-691 379.5,-697 373.5,-697"/>
<text text-anchor="middle" x="308" y="-675.3" font-family="Arial" font-size="14.00">写入C源码到临时文件</text>
</g>
<!-- create_tmp_dir&#45;&gt;write_c_src -->
<g id="edge12" class="edge">
<title>create_tmp_dir&#45;&gt;write_c_src</title>
<path fill="none" stroke="black" d="M312.32,-747.71C309.74,-742.22 307.31,-736.01 306,-730 304.42,-722.73 304.12,-714.73 304.42,-707.3"/>
<polygon fill="black" stroke="black" points="307.91,-707.55 305.17,-697.31 300.93,-707.02 307.91,-707.55"/>
</g>
<!-- create_tmp_dir&#45;&gt;write_c_src -->
<g id="edge28" class="edge">
<title>create_tmp_dir&#45;&gt;write_c_src</title>
<path fill="none" stroke="black" stroke-dasharray="5,2" d="M319.17,-747.8C317.25,-736.16 314.68,-720.55 312.49,-707.24"/>
<polygon fill="black" stroke="black" points="315.91,-706.47 310.83,-697.18 309,-707.61 315.91,-706.47"/>
<text text-anchor="middle" x="412.5" y="-718.8" font-family="Arial" font-size="14.00">defer zig_cache_tmp_dir.close()</text>
</g>
<!-- build_argv -->
<g id="node13" class="node">
<title>build_argv</title>
<path fill="none" stroke="black" d="M369,-624C369,-624 247,-624 247,-624 241,-624 235,-618 235,-612 235,-612 235,-600 235,-600 235,-594 241,-588 247,-588 247,-588 369,-588 369,-588 375,-588 381,-594 381,-600 381,-600 381,-612 381,-612 381,-618 375,-624 369,-624"/>
<text text-anchor="middle" x="308" y="-602.3" font-family="Arial" font-size="14.00">构建命令行参数 argv</text>
</g>
<!-- write_c_src&#45;&gt;build_argv -->
<g id="edge13" class="edge">
<title>write_c_src&#45;&gt;build_argv</title>
<path fill="none" stroke="black" d="M308,-660.81C308,-652.79 308,-643.05 308,-634.07"/>
<polygon fill="black" stroke="black" points="311.5,-634.03 308,-624.03 304.5,-634.03 311.5,-634.03"/>
</g>
<!-- handle_c_frontend -->
<g id="node14" class="node">
<title>handle_c_frontend</title>
<path fill="none" stroke="black" d="M296.18,-548.93C296.18,-548.93 216.93,-535.07 216.93,-535.07 211.02,-534.03 211.02,-531.97 216.93,-530.93 216.93,-530.93 296.18,-517.07 296.18,-517.07 302.09,-516.03 313.91,-516.03 319.82,-517.07 319.82,-517.07 399.07,-530.93 399.07,-530.93 404.98,-531.97 404.98,-534.03 399.07,-535.07 399.07,-535.07 319.82,-548.93 319.82,-548.93 313.91,-549.97 302.09,-549.97 296.18,-548.93"/>
<text text-anchor="middle" x="308" y="-529.3" font-family="Arial" font-size="14.00">处理C前端配置</text>
</g>
<!-- build_argv&#45;&gt;handle_c_frontend -->
<g id="edge14" class="edge">
<title>build_argv&#45;&gt;handle_c_frontend</title>
<path fill="none" stroke="black" d="M308,-587.81C308,-579.79 308,-570.05 308,-561.07"/>
<polygon fill="black" stroke="black" points="311.5,-561.03 308,-551.03 304.5,-561.03 311.5,-561.03"/>
</g>
<!-- clang_translate -->
<g id="node15" class="node">
<title>clang_translate</title>
<path fill="none" stroke="black" d="M230,-464C230,-464 12,-464 12,-464 6,-464 0,-458 0,-452 0,-452 0,-440 0,-440 0,-434 6,-428 12,-428 12,-428 230,-428 230,-428 236,-428 242,-434 242,-440 242,-440 242,-452 242,-452 242,-458 236,-464 230,-464"/>
<text text-anchor="middle" x="121" y="-442.3" font-family="Arial" font-size="14.00">调用Clang翻译 translate_c.translate()</text>
</g>
<!-- handle_c_frontend&#45;&gt;clang_translate -->
<g id="edge15" class="edge">
<title>handle_c_frontend&#45;&gt;clang_translate</title>
<path fill="none" stroke="black" d="M274.49,-520.78C256.34,-514.39 233.67,-505.9 214,-497 195.54,-488.65 175.68,-478.19 159.08,-469"/>
<polygon fill="black" stroke="black" points="160.65,-465.87 150.22,-464.04 157.24,-471.98 160.65,-465.87"/>
<text text-anchor="middle" x="276" y="-485.8" font-family="Arial" font-size="14.00">c_frontend == .clang</text>
</g>
<!-- aro_panic -->
<g id="node16" class="node">
<title>aro_panic</title>
<path fill="none" stroke="black" d="M496,-464C496,-464 272,-464 272,-464 266,-464 260,-458 260,-452 260,-452 260,-440 260,-440 260,-434 266,-428 272,-428 272,-428 496,-428 496,-428 502,-428 508,-434 508,-440 508,-440 508,-452 508,-452 508,-458 502,-464 496,-464"/>
<text text-anchor="middle" x="384" y="-442.3" font-family="Arial" font-size="14.00">触发Aro未实现错误 @panic(&quot;TODO&quot;)</text>
</g>
<!-- handle_c_frontend&#45;&gt;aro_panic -->
<g id="edge16" class="edge">
<title>handle_c_frontend&#45;&gt;aro_panic</title>
<path fill="none" stroke="black" d="M321.24,-517.19C332.36,-504.75 348.5,-486.7 361.63,-472.02"/>
<polygon fill="black" stroke="black" points="364.5,-474.06 368.56,-464.27 359.28,-469.39 364.5,-474.06"/>
<text text-anchor="middle" x="407" y="-485.8" font-family="Arial" font-size="14.00">c_frontend == .aro</text>
</g>
<!-- handle_errors -->
<g id="node17" class="node">
<title>handle_errors</title>
<path fill="none" stroke="black" d="M225,-323C225,-323 17,-323 17,-323 11,-323 5,-317 5,-311 5,-311 5,-299 5,-299 5,-293 11,-287 17,-287 17,-287 225,-287 225,-287 231,-287 237,-293 237,-299 237,-299 237,-311 237,-311 237,-317 231,-323 225,-323"/>
<text text-anchor="middle" x="121" y="-301.3" font-family="Arial" font-size="14.00">处理翻译错误 SemanticAnalyzeFail</text>
</g>
<!-- clang_translate&#45;&gt;handle_errors -->
<g id="edge17" class="edge">
<title>clang_translate&#45;&gt;handle_errors</title>
<path fill="none" stroke="black" d="M121,-427.96C121,-404.4 121,-361.64 121,-333.53"/>
<polygon fill="black" stroke="black" points="124.5,-333.18 121,-323.18 117.5,-333.18 124.5,-333.18"/>
<text text-anchor="middle" x="150" y="-398.8" font-family="Arial" font-size="14.00">翻译失败</text>
</g>
<!-- add_dep_files -->
<g id="node18" class="node">
<title>add_dep_files</title>
<path fill="none" stroke="black" d="M422,-377C422,-377 162,-377 162,-377 156,-377 150,-371 150,-365 150,-365 150,-353 150,-353 150,-347 156,-341 162,-341 162,-341 422,-341 422,-341 428,-341 434,-347 434,-353 434,-353 434,-365 434,-365 434,-371 428,-377 422,-377"/>
<text text-anchor="middle" x="292" y="-355.3" font-family="Arial" font-size="14.00">添加依赖文件到清单 man.addDepFilePost()</text>
</g>
<!-- clang_translate&#45;&gt;add_dep_files -->
<g id="edge19" class="edge">
<title>clang_translate&#45;&gt;add_dep_files</title>
<path fill="none" stroke="black" d="M155.6,-427.8C182.46,-414.45 219.86,-395.86 248.7,-381.52"/>
<polygon fill="black" stroke="black" points="250.34,-384.62 257.74,-377.03 247.23,-378.35 250.34,-384.62"/>
<text text-anchor="middle" x="246" y="-398.8" font-family="Arial" font-size="14.00">翻译成功</text>
</g>
<!-- return_result -->
<g id="node22" class="node">
<title>return_result</title>
<path fill="none" stroke="black" d="M187,-36C187,-36 79,-36 79,-36 73,-36 67,-30 67,-24 67,-24 67,-12 67,-12 67,-6 73,0 79,0 79,0 187,0 187,0 193,0 199,-6 199,-12 199,-12 199,-24 199,-24 199,-30 193,-36 187,-36"/>
<text text-anchor="middle" x="133" y="-14.3" font-family="Arial" font-size="14.00">返回CImportResult</text>
</g>
<!-- handle_errors&#45;&gt;return_result -->
<g id="edge18" class="edge">
<title>handle_errors&#45;&gt;return_result</title>
<path fill="none" stroke="black" d="M121,-286.94C121,-269.02 121,-240.03 121,-215 121,-215 121,-215 121,-90 121,-75.3 123.53,-59.13 126.27,-45.94"/>
<polygon fill="black" stroke="black" points="129.71,-46.6 128.46,-36.08 122.87,-45.08 129.71,-46.6"/>
<text text-anchor="middle" x="150" y="-174.3" font-family="Arial" font-size="14.00">返回错误</text>
</g>
<!-- finalize_digest -->
<g id="node19" class="node">
<title>finalize_digest</title>
<path fill="none" stroke="black" d="M363.5,-269C363.5,-269 220.5,-269 220.5,-269 214.5,-269 208.5,-263 208.5,-257 208.5,-257 208.5,-245 208.5,-245 208.5,-239 214.5,-233 220.5,-233 220.5,-233 363.5,-233 363.5,-233 369.5,-233 375.5,-239 375.5,-245 375.5,-245 375.5,-257 375.5,-257 375.5,-263 369.5,-269 363.5,-269"/>
<text text-anchor="middle" x="292" y="-247.3" font-family="Arial" font-size="14.00">生成最终摘要 bin_digest</text>
</g>
<!-- add_dep_files&#45;&gt;finalize_digest -->
<g id="edge20" class="edge">
<title>add_dep_files&#45;&gt;finalize_digest</title>
<path fill="none" stroke="black" d="M292,-340.97C292,-324.38 292,-298.88 292,-279.43"/>
<polygon fill="black" stroke="black" points="295.5,-279.34 292,-269.34 288.5,-279.34 295.5,-279.34"/>
</g>
<!-- write_output -->
<g id="node20" class="node">
<title>write_output</title>
<path fill="none" stroke="black" d="M377,-196C377,-196 209,-196 209,-196 203,-196 197,-190 197,-184 197,-184 197,-172 197,-172 197,-166 203,-160 209,-160 209,-160 377,-160 377,-160 383,-160 389,-166 389,-172 389,-172 389,-184 389,-184 389,-190 383,-196 377,-196"/>
<text text-anchor="middle" x="293" y="-174.3" font-family="Arial" font-size="14.00">写入翻译后的Zig文件到缓存</text>
</g>
<!-- finalize_digest&#45;&gt;write_output -->
<g id="edge21" class="edge">
<title>finalize_digest&#45;&gt;write_output</title>
<path fill="none" stroke="black" d="M292.24,-232.81C292.36,-224.79 292.49,-215.05 292.62,-206.07"/>
<polygon fill="black" stroke="black" points="296.12,-206.08 292.76,-196.03 289.12,-205.98 296.12,-206.08"/>
</g>
<!-- write_output&#45;&gt;update_manifest -->
<g id="edge22" class="edge">
<title>write_output&#45;&gt;update_manifest</title>
<path fill="none" stroke="black" d="M291.83,-159.92C291.49,-154.22 291.17,-147.84 291,-142 290.79,-134.65 290.94,-126.69 291.23,-119.33"/>
<polygon fill="black" stroke="black" points="294.74,-119.28 291.73,-109.12 287.74,-118.94 294.74,-119.28"/>
</g>
<!-- write_output&#45;&gt;update_manifest -->
<g id="edge29" class="edge">
<title>write_output&#45;&gt;update_manifest</title>
<path fill="none" stroke="black" stroke-dasharray="5,2" d="M293,-159.8C293,-148.16 293,-132.55 293,-119.24"/>
<polygon fill="black" stroke="black" points="296.5,-119.18 293,-109.18 289.5,-119.18 296.5,-119.18"/>
<text text-anchor="middle" x="367" y="-130.8" font-family="Arial" font-size="14.00">defer out_zig_file.close()</text>
</g>
<!-- update_manifest&#45;&gt;return_result -->
<g id="edge24" class="edge">
<title>update_manifest&#45;&gt;return_result</title>
<path fill="none" stroke="black" d="M254.68,-72.99C232.48,-63.14 204.34,-50.66 180.71,-40.17"/>
<polygon fill="black" stroke="black" points="182.13,-36.97 171.57,-36.11 179.29,-43.37 182.13,-36.97"/>
</g>
</g>
</svg>
