<?xml version="1.0" encoding="UTF-8" standalone="no"?>
<!DOCTYPE svg PUBLIC "-//W3C//DTD SVG 1.1//EN"
 "http://www.w3.org/Graphics/SVG/1.1/DTD/svg11.dtd">
<!-- Generated by graphviz version 2.43.0 (0)
 -->
<!-- Title: addCCArgs Pages: 1 -->
<svg width="488pt" height="2297pt"
 viewBox="0.00 0.00 488.00 2297.00" xmlns="http://www.w3.org/2000/svg" xmlns:xlink="http://www.w3.org/1999/xlink">
<g id="graph0" class="graph" transform="scale(1 1) rotate(0) translate(4 2293)">
<title>addCCArgs</title>
<polygon fill="white" stroke="transparent" points="-4,4 -4,-2293 484,-2293 484,4 -4,4"/>
<g id="clust1" class="cluster">
<title>cluster_main</title>
<polygon fill="none" stroke="black" points="8,-65 8,-2281 460,-2281 460,-65 8,-65"/>
<text text-anchor="middle" x="234" y="-2265.8" font-family="Times,serif" font-size="14.00">addCCArgs 主要流程</text>
</g>
<!-- start -->
<g id="node1" class="node">
<title>start</title>
<path fill="none" stroke="black" d="M397.5,-2250C397.5,-2250 292.5,-2250 292.5,-2250 286.5,-2250 280.5,-2244 280.5,-2238 280.5,-2238 280.5,-2226 280.5,-2226 280.5,-2220 286.5,-2214 292.5,-2214 292.5,-2214 397.5,-2214 397.5,-2214 403.5,-2214 409.5,-2220 409.5,-2226 409.5,-2226 409.5,-2238 409.5,-2238 409.5,-2244 403.5,-2250 397.5,-2250"/>
<text text-anchor="middle" x="345" y="-2228.3" font-family="Times,serif" font-size="14.00">开始 addCCArgs</text>
</g>
<!-- end -->
<g id="node2" class="node">
<title>end</title>
<path fill="none" stroke="black" d="M434,-36C434,-36 404,-36 404,-36 398,-36 392,-30 392,-24 392,-24 392,-12 392,-12 392,-6 398,0 404,0 404,0 434,0 434,0 440,0 446,-6 446,-12 446,-12 446,-24 446,-24 446,-30 440,-36 434,-36"/>
<text text-anchor="middle" x="419" y="-14.3" font-family="Times,serif" font-size="14.00">结束</text>
</g>
<!-- start&#45;&gt;end -->
<!-- add_no_default_config -->
<g id="node3" class="node">
<title>add_no_default_config</title>
<path fill="none" stroke="black" d="M380,-2177C380,-2177 226,-2177 226,-2177 220,-2177 214,-2171 214,-2165 214,-2165 214,-2153 214,-2153 214,-2147 220,-2141 226,-2141 226,-2141 380,-2141 380,-2141 386,-2141 392,-2147 392,-2153 392,-2153 392,-2165 392,-2165 392,-2171 386,-2177 380,-2177"/>
<text text-anchor="middle" x="303" y="-2155.3" font-family="Times,serif" font-size="14.00">添加 &#45;&#45;no&#45;default&#45;config</text>
</g>
<!-- start&#45;&gt;add_no_default_config -->
<g id="edge1" class="edge">
<title>start&#45;&gt;add_no_default_config</title>
<path fill="none" stroke="black" d="M334.83,-2213.81C329.88,-2205.44 323.82,-2195.2 318.32,-2185.9"/>
<polygon fill="black" stroke="black" points="321.18,-2183.85 313.07,-2177.03 315.15,-2187.42 321.18,-2183.85"/>
</g>
<!-- check_passthrough -->
<g id="node4" class="node">
<title>check_passthrough</title>
<path fill="none" stroke="black" d="M230.04,-2102.98C230.04,-2102.98 43.48,-2087.02 43.48,-2087.02 37.5,-2086.51 37.5,-2085.49 43.48,-2084.98 43.48,-2084.98 230.04,-2069.02 230.04,-2069.02 236.02,-2068.51 247.98,-2068.51 253.96,-2069.02 253.96,-2069.02 440.52,-2084.98 440.52,-2084.98 446.5,-2085.49 446.5,-2086.51 440.52,-2087.02 440.52,-2087.02 253.96,-2102.98 253.96,-2102.98 247.98,-2103.49 236.02,-2103.49 230.04,-2102.98"/>
<text text-anchor="middle" x="242" y="-2082.3" font-family="Times,serif" font-size="14.00">检查 clang_passthrough_mode</text>
</g>
<!-- add_no_default_config&#45;&gt;check_passthrough -->
<g id="edge2" class="edge">
<title>add_no_default_config&#45;&gt;check_passthrough</title>
<path fill="none" stroke="black" d="M288.23,-2140.81C280.52,-2131.84 270.96,-2120.71 262.54,-2110.9"/>
<polygon fill="black" stroke="black" points="264.97,-2108.36 255.79,-2103.06 259.66,-2112.92 264.97,-2108.36"/>
</g>
<!-- add_fno_caret_diag -->
<g id="node5" class="node">
<title>add_fno_caret_diag</title>
<path fill="none" stroke="black" d="M292.5,-2017C292.5,-2017 113.5,-2017 113.5,-2017 107.5,-2017 101.5,-2011 101.5,-2005 101.5,-2005 101.5,-1993 101.5,-1993 101.5,-1987 107.5,-1981 113.5,-1981 113.5,-1981 292.5,-1981 292.5,-1981 298.5,-1981 304.5,-1987 304.5,-1993 304.5,-1993 304.5,-2005 304.5,-2005 304.5,-2011 298.5,-2017 292.5,-2017"/>
<text text-anchor="middle" x="203" y="-1995.3" font-family="Times,serif" font-size="14.00">添加 &#45;fno&#45;caret&#45;diagnostics</text>
</g>
<!-- check_passthrough&#45;&gt;add_fno_caret_diag -->
<g id="edge3" class="edge">
<title>check_passthrough&#45;&gt;add_fno_caret_diag</title>
<path fill="none" stroke="black" d="M234.48,-2068.61C229.03,-2056.73 221.54,-2040.41 215.23,-2026.67"/>
<polygon fill="black" stroke="black" points="218.25,-2024.84 210.9,-2017.21 211.89,-2027.76 218.25,-2024.84"/>
<text text-anchor="middle" x="231.5" y="-2038.8" font-family="Times,serif" font-size="14.00">否</text>
</g>
<!-- skip_caret_diag -->
<g id="node6" class="node">
<title>skip_caret_diag</title>
<path fill="none" stroke="black" d="M365,-2017C365,-2017 335,-2017 335,-2017 329,-2017 323,-2011 323,-2005 323,-2005 323,-1993 323,-1993 323,-1987 329,-1981 335,-1981 335,-1981 365,-1981 365,-1981 371,-1981 377,-1987 377,-1993 377,-1993 377,-2005 377,-2005 377,-2011 371,-2017 365,-2017"/>
<text text-anchor="middle" x="350" y="-1995.3" font-family="Times,serif" font-size="14.00">跳过</text>
</g>
<!-- check_passthrough&#45;&gt;skip_caret_diag -->
<g id="edge4" class="edge">
<title>check_passthrough&#45;&gt;skip_caret_diag</title>
<path fill="none" stroke="black" d="M261.56,-2069.61C277.97,-2056.69 301.67,-2038.03 320.41,-2023.29"/>
<polygon fill="black" stroke="black" points="322.67,-2025.96 328.36,-2017.03 318.34,-2020.46 322.67,-2025.96"/>
<text text-anchor="middle" x="309.5" y="-2038.8" font-family="Times,serif" font-size="14.00">是</text>
</g>
<!-- check_integrated_as -->
<g id="node7" class="node">
<title>check_integrated_as</title>
<path fill="none" stroke="black" d="M265.06,-1942.76C265.06,-1942.76 116.33,-1927.24 116.33,-1927.24 110.36,-1926.62 110.36,-1925.38 116.33,-1924.76 116.33,-1924.76 265.06,-1909.24 265.06,-1909.24 271.03,-1908.62 282.97,-1908.62 288.94,-1909.24 288.94,-1909.24 437.67,-1924.76 437.67,-1924.76 443.64,-1925.38 443.64,-1926.62 437.67,-1927.24 437.67,-1927.24 288.94,-1942.76 288.94,-1942.76 282.97,-1943.38 271.03,-1943.38 265.06,-1942.76"/>
<text text-anchor="middle" x="277" y="-1922.3" font-family="Times,serif" font-size="14.00">目标是否需要集成汇编器？</text>
</g>
<!-- add_fno_caret_diag&#45;&gt;check_integrated_as -->
<g id="edge5" class="edge">
<title>add_fno_caret_diag&#45;&gt;check_integrated_as</title>
<path fill="none" stroke="black" d="M220.91,-1980.81C230.76,-1971.37 243.08,-1959.54 253.67,-1949.38"/>
<polygon fill="black" stroke="black" points="256.22,-1951.79 261.01,-1942.34 251.38,-1946.74 256.22,-1951.79"/>
</g>
<!-- skip_caret_diag&#45;&gt;check_integrated_as -->
<g id="edge6" class="edge">
<title>skip_caret_diag&#45;&gt;check_integrated_as</title>
<path fill="none" stroke="black" d="M332.33,-1980.81C322.69,-1971.43 310.63,-1959.71 300.23,-1949.6"/>
<polygon fill="black" stroke="black" points="302.62,-1947.04 293.01,-1942.58 297.74,-1952.06 302.62,-1947.04"/>
</g>
<!-- add_integrated_as -->
<g id="node8" class="node">
<title>add_integrated_as</title>
<path fill="none" stroke="black" d="M253.5,-1857C253.5,-1857 128.5,-1857 128.5,-1857 122.5,-1857 116.5,-1851 116.5,-1845 116.5,-1845 116.5,-1833 116.5,-1833 116.5,-1827 122.5,-1821 128.5,-1821 128.5,-1821 253.5,-1821 253.5,-1821 259.5,-1821 265.5,-1827 265.5,-1833 265.5,-1833 265.5,-1845 265.5,-1845 265.5,-1851 259.5,-1857 253.5,-1857"/>
<text text-anchor="middle" x="191" y="-1835.3" font-family="Times,serif" font-size="14.00">添加 &#45;integrated&#45;as</text>
</g>
<!-- check_integrated_as&#45;&gt;add_integrated_as -->
<g id="edge7" class="edge">
<title>check_integrated_as&#45;&gt;add_integrated_as</title>
<path fill="none" stroke="black" d="M261.23,-1909.41C248.51,-1896.84 230.39,-1878.93 215.74,-1864.46"/>
<polygon fill="black" stroke="black" points="218.02,-1861.79 208.45,-1857.25 213.1,-1866.76 218.02,-1861.79"/>
<text text-anchor="middle" x="246.5" y="-1878.8" font-family="Times,serif" font-size="14.00">是</text>
</g>
<!-- skip_integrated_as -->
<g id="node9" class="node">
<title>skip_integrated_as</title>
<path fill="none" stroke="black" d="M325,-1857C325,-1857 295,-1857 295,-1857 289,-1857 283,-1851 283,-1845 283,-1845 283,-1833 283,-1833 283,-1827 289,-1821 295,-1821 295,-1821 325,-1821 325,-1821 331,-1821 337,-1827 337,-1833 337,-1833 337,-1845 337,-1845 337,-1851 331,-1857 325,-1857"/>
<text text-anchor="middle" x="310" y="-1835.3" font-family="Times,serif" font-size="14.00">跳过</text>
</g>
<!-- check_integrated_as&#45;&gt;skip_integrated_as -->
<g id="edge8" class="edge">
<title>check_integrated_as&#45;&gt;skip_integrated_as</title>
<path fill="none" stroke="black" d="M283.36,-1908.61C287.97,-1896.73 294.31,-1880.41 299.65,-1866.67"/>
<polygon fill="black" stroke="black" points="302.96,-1867.8 303.32,-1857.21 296.44,-1865.27 302.96,-1867.8"/>
<text text-anchor="middle" x="302.5" y="-1878.8" font-family="Times,serif" font-size="14.00">否</text>
</g>
<!-- add_target_triple -->
<g id="node10" class="node">
<title>add_target_triple</title>
<path fill="none" stroke="black" d="M310,-1784C310,-1784 160,-1784 160,-1784 154,-1784 148,-1778 148,-1772 148,-1772 148,-1760 148,-1760 148,-1754 154,-1748 160,-1748 160,-1748 310,-1748 310,-1748 316,-1748 322,-1754 322,-1760 322,-1760 322,-1772 322,-1772 322,-1778 316,-1784 310,-1784"/>
<text text-anchor="middle" x="235" y="-1762.3" font-family="Times,serif" font-size="14.00">添加 &#45;target 和三重目标</text>
</g>
<!-- add_integrated_as&#45;&gt;add_target_triple -->
<g id="edge9" class="edge">
<title>add_integrated_as&#45;&gt;add_target_triple</title>
<path fill="none" stroke="black" d="M201.65,-1820.81C206.89,-1812.35 213.32,-1801.98 219.13,-1792.61"/>
<polygon fill="black" stroke="black" points="222.15,-1794.37 224.45,-1784.03 216.2,-1790.69 222.15,-1794.37"/>
</g>
<!-- skip_integrated_as&#45;&gt;add_target_triple -->
<g id="edge10" class="edge">
<title>skip_integrated_as&#45;&gt;add_target_triple</title>
<path fill="none" stroke="black" d="M291.84,-1820.81C282.45,-1811.92 270.82,-1800.91 260.53,-1791.17"/>
<polygon fill="black" stroke="black" points="262.66,-1788.36 252.99,-1784.03 257.84,-1793.45 262.66,-1788.36"/>
</g>
<!-- check_arm_thumb -->
<g id="node11" class="node">
<title>check_arm_thumb</title>
<path fill="none" stroke="black" d="M223.06,-1709.79C223.06,-1709.79 68.81,-1694.21 68.81,-1694.21 62.84,-1693.6 62.84,-1692.4 68.81,-1691.79 68.81,-1691.79 223.06,-1676.21 223.06,-1676.21 229.03,-1675.6 240.97,-1675.6 246.94,-1676.21 246.94,-1676.21 401.19,-1691.79 401.19,-1691.79 407.16,-1692.4 407.16,-1693.6 401.19,-1694.21 401.19,-1694.21 246.94,-1709.79 246.94,-1709.79 240.97,-1710.4 229.03,-1710.4 223.06,-1709.79"/>
<text text-anchor="middle" x="235" y="-1689.3" font-family="Times,serif" font-size="14.00">目标是否为 ARM Thumb？</text>
</g>
<!-- add_target_triple&#45;&gt;check_arm_thumb -->
<g id="edge11" class="edge">
<title>add_target_triple&#45;&gt;check_arm_thumb</title>
<path fill="none" stroke="black" d="M235,-1747.81C235,-1739.79 235,-1730.05 235,-1721.07"/>
<polygon fill="black" stroke="black" points="238.5,-1721.03 235,-1711.03 231.5,-1721.03 238.5,-1721.03"/>
</g>
<!-- add_mthumb -->
<g id="node12" class="node">
<title>add_mthumb</title>
<path fill="none" stroke="black" d="M156,-1624C156,-1624 66,-1624 66,-1624 60,-1624 54,-1618 54,-1612 54,-1612 54,-1600 54,-1600 54,-1594 60,-1588 66,-1588 66,-1588 156,-1588 156,-1588 162,-1588 168,-1594 168,-1600 168,-1600 168,-1612 168,-1612 168,-1618 162,-1624 156,-1624"/>
<text text-anchor="middle" x="111" y="-1602.3" font-family="Times,serif" font-size="14.00">添加 &#45;mthumb</text>
</g>
<!-- check_arm_thumb&#45;&gt;add_mthumb -->
<g id="edge12" class="edge">
<title>check_arm_thumb&#45;&gt;add_mthumb</title>
<path fill="none" stroke="black" d="M213.12,-1677C194.09,-1663.96 166.23,-1644.86 144.41,-1629.9"/>
<polygon fill="black" stroke="black" points="146.31,-1626.96 136.08,-1624.19 142.35,-1632.73 146.31,-1626.96"/>
<text text-anchor="middle" x="187.5" y="-1645.8" font-family="Times,serif" font-size="14.00">是</text>
</g>
<!-- add_mno_thumb -->
<g id="node13" class="node">
<title>add_mno_thumb</title>
<path fill="none" stroke="black" d="M310,-1624C310,-1624 198,-1624 198,-1624 192,-1624 186,-1618 186,-1612 186,-1612 186,-1600 186,-1600 186,-1594 192,-1588 198,-1588 198,-1588 310,-1588 310,-1588 316,-1588 322,-1594 322,-1600 322,-1600 322,-1612 322,-1612 322,-1618 316,-1624 310,-1624"/>
<text text-anchor="middle" x="254" y="-1602.3" font-family="Times,serif" font-size="14.00">添加 &#45;mno&#45;thumb</text>
</g>
<!-- check_arm_thumb&#45;&gt;add_mno_thumb -->
<g id="edge13" class="edge">
<title>check_arm_thumb&#45;&gt;add_mno_thumb</title>
<path fill="none" stroke="black" d="M238.75,-1675.21C241.39,-1663.41 244.97,-1647.38 248,-1633.82"/>
<polygon fill="black" stroke="black" points="251.42,-1634.57 250.19,-1624.05 244.59,-1633.04 251.42,-1634.57"/>
<text text-anchor="middle" x="252.5" y="-1645.8" font-family="Times,serif" font-size="14.00">否</text>
</g>
<!-- check_mabi -->
<g id="node14" class="node">
<title>check_mabi</title>
<path fill="none" stroke="black" d="M154.11,-1549.41C154.11,-1549.41 43.5,-1534.59 43.5,-1534.59 37.55,-1533.8 37.55,-1532.2 43.5,-1531.41 43.5,-1531.41 154.11,-1516.59 154.11,-1516.59 160.05,-1515.8 171.95,-1515.8 177.89,-1516.59 177.89,-1516.59 288.5,-1531.41 288.5,-1531.41 294.45,-1532.2 294.45,-1533.8 288.5,-1534.59 288.5,-1534.59 177.89,-1549.41 177.89,-1549.41 171.95,-1550.2 160.05,-1550.2 154.11,-1549.41"/>
<text text-anchor="middle" x="166" y="-1529.3" font-family="Times,serif" font-size="14.00">是否需要设置 ABI？</text>
</g>
<!-- add_mthumb&#45;&gt;check_mabi -->
<g id="edge14" class="edge">
<title>add_mthumb&#45;&gt;check_mabi</title>
<path fill="none" stroke="black" d="M124.31,-1587.81C131.37,-1578.71 140.14,-1567.39 147.81,-1557.48"/>
<polygon fill="black" stroke="black" points="150.58,-1559.62 153.93,-1549.58 145.04,-1555.34 150.58,-1559.62"/>
</g>
<!-- add_mno_thumb&#45;&gt;check_mabi -->
<g id="edge15" class="edge">
<title>add_mno_thumb&#45;&gt;check_mabi</title>
<path fill="none" stroke="black" d="M232.7,-1587.81C220.51,-1577.98 205.13,-1565.57 192.21,-1555.15"/>
<polygon fill="black" stroke="black" points="194.11,-1552.19 184.13,-1548.63 189.72,-1557.63 194.11,-1552.19"/>
</g>
<!-- add_mabi -->
<g id="node15" class="node">
<title>add_mabi</title>
<path fill="none" stroke="black" d="M149.5,-1464C149.5,-1464 58.5,-1464 58.5,-1464 52.5,-1464 46.5,-1458 46.5,-1452 46.5,-1452 46.5,-1440 46.5,-1440 46.5,-1434 52.5,-1428 58.5,-1428 58.5,-1428 149.5,-1428 149.5,-1428 155.5,-1428 161.5,-1434 161.5,-1440 161.5,-1440 161.5,-1452 161.5,-1452 161.5,-1458 155.5,-1464 149.5,-1464"/>
<text text-anchor="middle" x="104" y="-1442.3" font-family="Times,serif" font-size="14.00">添加 &#45;mabi=...</text>
</g>
<!-- check_mabi&#45;&gt;add_mabi -->
<g id="edge16" class="edge">
<title>check_mabi&#45;&gt;add_mabi</title>
<path fill="none" stroke="black" d="M154.63,-1516.41C145.71,-1504.19 133.11,-1486.91 122.72,-1472.66"/>
<polygon fill="black" stroke="black" points="125.3,-1470.26 116.58,-1464.25 119.64,-1474.39 125.3,-1470.26"/>
<text text-anchor="middle" x="145.5" y="-1485.8" font-family="Times,serif" font-size="14.00">是</text>
</g>
<!-- skip_mabi -->
<g id="node16" class="node">
<title>skip_mabi</title>
<path fill="none" stroke="black" d="M222,-1464C222,-1464 192,-1464 192,-1464 186,-1464 180,-1458 180,-1452 180,-1452 180,-1440 180,-1440 180,-1434 186,-1428 192,-1428 192,-1428 222,-1428 222,-1428 228,-1428 234,-1434 234,-1440 234,-1440 234,-1452 234,-1452 234,-1458 228,-1464 222,-1464"/>
<text text-anchor="middle" x="207" y="-1442.3" font-family="Times,serif" font-size="14.00">跳过</text>
</g>
<!-- check_mabi&#45;&gt;skip_mabi -->
<g id="edge17" class="edge">
<title>check_mabi&#45;&gt;skip_mabi</title>
<path fill="none" stroke="black" d="M173.71,-1516.01C179.52,-1503.98 187.6,-1487.22 194.35,-1473.23"/>
<polygon fill="black" stroke="black" points="197.57,-1474.61 198.76,-1464.08 191.26,-1471.57 197.57,-1474.61"/>
<text text-anchor="middle" x="195.5" y="-1485.8" font-family="Times,serif" font-size="14.00">否</text>
</g>
<!-- check_float_abi -->
<g id="node17" class="node">
<title>check_float_abi</title>
<path fill="none" stroke="black" d="M174.08,-1389.66C174.08,-1389.66 38.06,-1374.34 38.06,-1374.34 32.1,-1373.67 32.1,-1372.33 38.06,-1371.66 38.06,-1371.66 174.08,-1356.34 174.08,-1356.34 180.04,-1355.67 191.96,-1355.67 197.92,-1356.34 197.92,-1356.34 333.94,-1371.66 333.94,-1371.66 339.9,-1372.33 339.9,-1373.67 333.94,-1374.34 333.94,-1374.34 197.92,-1389.66 197.92,-1389.66 191.96,-1390.33 180.04,-1390.33 174.08,-1389.66"/>
<text text-anchor="middle" x="186" y="-1369.3" font-family="Times,serif" font-size="14.00">是否需要设置浮点 ABI？</text>
</g>
<!-- add_mabi&#45;&gt;check_float_abi -->
<g id="edge18" class="edge">
<title>add_mabi&#45;&gt;check_float_abi</title>
<path fill="none" stroke="black" d="M123.85,-1427.81C134.94,-1418.21 148.88,-1406.14 160.74,-1395.87"/>
<polygon fill="black" stroke="black" points="163.29,-1398.29 168.56,-1389.1 158.71,-1393 163.29,-1398.29"/>
</g>
<!-- skip_mabi&#45;&gt;check_float_abi -->
<g id="edge19" class="edge">
<title>skip_mabi&#45;&gt;check_float_abi</title>
<path fill="none" stroke="black" d="M201.92,-1427.81C199.48,-1419.58 196.51,-1409.54 193.8,-1400.38"/>
<polygon fill="black" stroke="black" points="197.08,-1399.14 190.89,-1390.54 190.37,-1401.12 197.08,-1399.14"/>
</g>
<!-- add_float_abi -->
<g id="node18" class="node">
<title>add_float_abi</title>
<path fill="none" stroke="black" d="M192.5,-1304C192.5,-1304 65.5,-1304 65.5,-1304 59.5,-1304 53.5,-1298 53.5,-1292 53.5,-1292 53.5,-1280 53.5,-1280 53.5,-1274 59.5,-1268 65.5,-1268 65.5,-1268 192.5,-1268 192.5,-1268 198.5,-1268 204.5,-1274 204.5,-1280 204.5,-1280 204.5,-1292 204.5,-1292 204.5,-1298 198.5,-1304 192.5,-1304"/>
<text text-anchor="middle" x="129" y="-1282.3" font-family="Times,serif" font-size="14.00">添加 &#45;mfloat&#45;abi=...</text>
</g>
<!-- check_float_abi&#45;&gt;add_float_abi -->
<g id="edge20" class="edge">
<title>check_float_abi&#45;&gt;add_float_abi</title>
<path fill="none" stroke="black" d="M175.28,-1356.01C167.05,-1343.75 155.54,-1326.57 146.05,-1312.43"/>
<polygon fill="black" stroke="black" points="148.93,-1310.44 140.46,-1304.08 143.12,-1314.34 148.93,-1310.44"/>
<text text-anchor="middle" x="167.5" y="-1325.8" font-family="Times,serif" font-size="14.00">是</text>
</g>
<!-- skip_float_abi -->
<g id="node19" class="node">
<title>skip_float_abi</title>
<path fill="none" stroke="black" d="M265,-1304C265,-1304 235,-1304 235,-1304 229,-1304 223,-1298 223,-1292 223,-1292 223,-1280 223,-1280 223,-1274 229,-1268 235,-1268 235,-1268 265,-1268 265,-1268 271,-1268 277,-1274 277,-1280 277,-1280 277,-1292 277,-1292 277,-1298 271,-1304 265,-1304"/>
<text text-anchor="middle" x="250" y="-1282.3" font-family="Times,serif" font-size="14.00">跳过</text>
</g>
<!-- check_float_abi&#45;&gt;skip_float_abi -->
<g id="edge21" class="edge">
<title>check_float_abi&#45;&gt;skip_float_abi</title>
<path fill="none" stroke="black" d="M198.04,-1356.01C207.27,-1343.75 220.2,-1326.57 230.85,-1312.43"/>
<polygon fill="black" stroke="black" points="233.92,-1314.18 237.14,-1304.08 228.33,-1309.97 233.92,-1314.18"/>
<text text-anchor="middle" x="228.5" y="-1325.8" font-family="Times,serif" font-size="14.00">否</text>
</g>
<!-- check_pic -->
<g id="node20" class="node">
<title>check_pic</title>
<path fill="none" stroke="black" d="M207.16,-1229.02C207.16,-1229.02 123.25,-1214.98 123.25,-1214.98 117.33,-1213.99 117.33,-1212.01 123.25,-1211.02 123.25,-1211.02 207.16,-1196.98 207.16,-1196.98 213.08,-1195.99 224.92,-1195.99 230.84,-1196.98 230.84,-1196.98 314.75,-1211.02 314.75,-1211.02 320.67,-1212.01 320.67,-1213.99 314.75,-1214.98 314.75,-1214.98 230.84,-1229.02 230.84,-1229.02 224.92,-1230.01 213.08,-1230.01 207.16,-1229.02"/>
<text text-anchor="middle" x="219" y="-1209.3" font-family="Times,serif" font-size="14.00">是否支持 PIC？</text>
</g>
<!-- add_float_abi&#45;&gt;check_pic -->
<g id="edge22" class="edge">
<title>add_float_abi&#45;&gt;check_pic</title>
<path fill="none" stroke="black" d="M150.79,-1267.81C163.54,-1257.75 179.72,-1244.99 193.12,-1234.42"/>
<polygon fill="black" stroke="black" points="195.36,-1237.11 201.04,-1228.17 191.03,-1231.61 195.36,-1237.11"/>
</g>
<!-- skip_float_abi&#45;&gt;check_pic -->
<g id="edge23" class="edge">
<title>skip_float_abi&#45;&gt;check_pic</title>
<path fill="none" stroke="black" d="M242.5,-1267.81C238.77,-1259.28 234.2,-1248.81 230.08,-1239.38"/>
<polygon fill="black" stroke="black" points="233.22,-1237.82 226.01,-1230.06 226.8,-1240.62 233.22,-1237.82"/>
</g>
<!-- add_pic -->
<g id="node21" class="node">
<title>add_pic</title>
<path fill="none" stroke="black" d="M202,-1144C202,-1144 80,-1144 80,-1144 74,-1144 68,-1138 68,-1132 68,-1132 68,-1120 68,-1120 68,-1114 74,-1108 80,-1108 80,-1108 202,-1108 202,-1108 208,-1108 214,-1114 214,-1120 214,-1120 214,-1132 214,-1132 214,-1138 208,-1144 202,-1144"/>
<text text-anchor="middle" x="141" y="-1122.3" font-family="Times,serif" font-size="14.00">添加 &#45;fPIC/&#45;fno&#45;PIC</text>
</g>
<!-- check_pic&#45;&gt;add_pic -->
<g id="edge24" class="edge">
<title>check_pic&#45;&gt;add_pic</title>
<path fill="none" stroke="black" d="M205.41,-1197.19C194,-1184.75 177.43,-1166.7 163.96,-1152.02"/>
<polygon fill="black" stroke="black" points="166.19,-1149.27 156.85,-1144.27 161.03,-1154.01 166.19,-1149.27"/>
<text text-anchor="middle" x="191.5" y="-1165.8" font-family="Times,serif" font-size="14.00">是</text>
</g>
<!-- skip_pic -->
<g id="node22" class="node">
<title>skip_pic</title>
<path fill="none" stroke="black" d="M274,-1144C274,-1144 244,-1144 244,-1144 238,-1144 232,-1138 232,-1132 232,-1132 232,-1120 232,-1120 232,-1114 238,-1108 244,-1108 244,-1108 274,-1108 274,-1108 280,-1108 286,-1114 286,-1120 286,-1120 286,-1132 286,-1132 286,-1138 280,-1144 274,-1144"/>
<text text-anchor="middle" x="259" y="-1122.3" font-family="Times,serif" font-size="14.00">跳过</text>
</g>
<!-- check_pic&#45;&gt;skip_pic -->
<g id="edge25" class="edge">
<title>check_pic&#45;&gt;skip_pic</title>
<path fill="none" stroke="black" d="M226.52,-1196.01C232.19,-1183.98 240.07,-1167.22 246.66,-1153.23"/>
<polygon fill="black" stroke="black" points="249.87,-1154.62 250.96,-1144.08 243.54,-1151.64 249.87,-1154.62"/>
<text text-anchor="middle" x="248.5" y="-1165.8" font-family="Times,serif" font-size="14.00">否</text>
</g>
<!-- check_mingw_unicode -->
<g id="node23" class="node">
<title>check_mingw_unicode</title>
<path fill="none" stroke="black" d="M191.06,-1069.79C191.06,-1069.79 36.81,-1054.21 36.81,-1054.21 30.84,-1053.6 30.84,-1052.4 36.81,-1051.79 36.81,-1051.79 191.06,-1036.21 191.06,-1036.21 197.03,-1035.6 208.97,-1035.6 214.94,-1036.21 214.94,-1036.21 369.19,-1051.79 369.19,-1051.79 375.16,-1052.4 375.16,-1053.6 369.19,-1054.21 369.19,-1054.21 214.94,-1069.79 214.94,-1069.79 208.97,-1070.4 197.03,-1070.4 191.06,-1069.79"/>
<text text-anchor="middle" x="203" y="-1049.3" font-family="Times,serif" font-size="14.00">是否为 MinGW Unicode？</text>
</g>
<!-- add_pic&#45;&gt;check_mingw_unicode -->
<g id="edge26" class="edge">
<title>add_pic&#45;&gt;check_mingw_unicode</title>
<path fill="none" stroke="black" d="M156.01,-1107.81C163.93,-1098.75 173.76,-1087.48 182.38,-1077.61"/>
<polygon fill="black" stroke="black" points="185.04,-1079.89 188.98,-1070.06 179.77,-1075.29 185.04,-1079.89"/>
</g>
<!-- skip_pic&#45;&gt;check_mingw_unicode -->
<g id="edge27" class="edge">
<title>skip_pic&#45;&gt;check_mingw_unicode</title>
<path fill="none" stroke="black" d="M245.44,-1107.81C238.43,-1098.93 229.76,-1087.93 222.08,-1078.2"/>
<polygon fill="black" stroke="black" points="224.6,-1075.74 215.66,-1070.06 219.11,-1080.07 224.6,-1075.74"/>
</g>
<!-- add_unicode -->
<g id="node24" class="node">
<title>add_unicode</title>
<path fill="none" stroke="black" d="M203.5,-984C203.5,-984 104.5,-984 104.5,-984 98.5,-984 92.5,-978 92.5,-972 92.5,-972 92.5,-960 92.5,-960 92.5,-954 98.5,-948 104.5,-948 104.5,-948 203.5,-948 203.5,-948 209.5,-948 215.5,-954 215.5,-960 215.5,-960 215.5,-972 215.5,-972 215.5,-978 209.5,-984 203.5,-984"/>
<text text-anchor="middle" x="154" y="-962.3" font-family="Times,serif" font-size="14.00">添加 &#45;municode</text>
</g>
<!-- check_mingw_unicode&#45;&gt;add_unicode -->
<g id="edge28" class="edge">
<title>check_mingw_unicode&#45;&gt;add_unicode</title>
<path fill="none" stroke="black" d="M186.17,-1036.4C180.76,-1030.7 175.11,-1023.94 171,-1017 166.85,-1009.98 163.52,-1001.79 160.96,-994.11"/>
<polygon fill="black" stroke="black" points="164.27,-992.97 158.02,-984.42 157.58,-995.01 164.27,-992.97"/>
<text text-anchor="middle" x="178.5" y="-1005.8" font-family="Times,serif" font-size="14.00">是</text>
</g>
<!-- skip_unicode -->
<g id="node25" class="node">
<title>skip_unicode</title>
<path fill="none" stroke="black" d="M276,-984C276,-984 246,-984 246,-984 240,-984 234,-978 234,-972 234,-972 234,-960 234,-960 234,-954 240,-948 246,-948 246,-948 276,-948 276,-948 282,-948 288,-954 288,-960 288,-960 288,-972 288,-972 288,-978 282,-984 276,-984"/>
<text text-anchor="middle" x="261" y="-962.3" font-family="Times,serif" font-size="14.00">跳过</text>
</g>
<!-- check_mingw_unicode&#45;&gt;skip_unicode -->
<g id="edge29" class="edge">
<title>check_mingw_unicode&#45;&gt;skip_unicode</title>
<path fill="none" stroke="black" d="M213.91,-1036.01C222.28,-1023.75 234,-1006.57 243.65,-992.43"/>
<polygon fill="black" stroke="black" points="246.6,-994.32 249.34,-984.08 240.82,-990.37 246.6,-994.32"/>
<text text-anchor="middle" x="242.5" y="-1005.8" font-family="Times,serif" font-size="14.00">否</text>
</g>
<!-- check_code_model -->
<g id="node26" class="node">
<title>check_code_model</title>
<path fill="none" stroke="black" d="M160.09,-909.53C160.09,-909.53 37.62,-894.47 37.62,-894.47 31.66,-893.73 31.66,-892.27 37.62,-891.53 37.62,-891.53 160.09,-876.47 160.09,-876.47 166.04,-875.73 177.96,-875.73 183.91,-876.47 183.91,-876.47 306.38,-891.53 306.38,-891.53 312.34,-892.27 312.34,-893.73 306.38,-894.47 306.38,-894.47 183.91,-909.53 183.91,-909.53 177.96,-910.27 166.04,-910.27 160.09,-909.53"/>
<text text-anchor="middle" x="172" y="-889.3" font-family="Times,serif" font-size="14.00">代码模型是否为默认？</text>
</g>
<!-- add_unicode&#45;&gt;check_code_model -->
<g id="edge30" class="edge">
<title>add_unicode&#45;&gt;check_code_model</title>
<path fill="none" stroke="black" d="M158.36,-947.81C160.44,-939.58 162.99,-929.54 165.31,-920.38"/>
<polygon fill="black" stroke="black" points="168.74,-921.09 167.81,-910.54 161.96,-919.37 168.74,-921.09"/>
</g>
<!-- skip_unicode&#45;&gt;check_code_model -->
<g id="edge31" class="edge">
<title>skip_unicode&#45;&gt;check_code_model</title>
<path fill="none" stroke="black" d="M239.46,-947.81C227.22,-938.05 211.79,-925.74 198.78,-915.36"/>
<polygon fill="black" stroke="black" points="200.63,-912.37 190.63,-908.87 196.27,-917.84 200.63,-912.37"/>
</g>
<!-- add_code_model -->
<g id="node27" class="node">
<title>add_code_model</title>
<path fill="none" stroke="black" d="M221,-824C221,-824 101,-824 101,-824 95,-824 89,-818 89,-812 89,-812 89,-800 89,-800 89,-794 95,-788 101,-788 101,-788 221,-788 221,-788 227,-788 233,-794 233,-800 233,-800 233,-812 233,-812 233,-818 227,-824 221,-824"/>
<text text-anchor="middle" x="161" y="-802.3" font-family="Times,serif" font-size="14.00">添加 &#45;mcmodel=...</text>
</g>
<!-- check_code_model&#45;&gt;add_code_model -->
<g id="edge32" class="edge">
<title>check_code_model&#45;&gt;add_code_model</title>
<path fill="none" stroke="black" d="M169.83,-875.21C168.31,-863.52 166.27,-847.69 164.52,-834.22"/>
<polygon fill="black" stroke="black" points="167.96,-833.52 163.21,-824.05 161.02,-834.42 167.96,-833.52"/>
<text text-anchor="middle" x="174.5" y="-845.8" font-family="Times,serif" font-size="14.00">否</text>
</g>
<!-- skip_code_model -->
<g id="node28" class="node">
<title>skip_code_model</title>
<path fill="none" stroke="black" d="M293,-824C293,-824 263,-824 263,-824 257,-824 251,-818 251,-812 251,-812 251,-800 251,-800 251,-794 257,-788 263,-788 263,-788 293,-788 293,-788 299,-788 305,-794 305,-800 305,-800 305,-812 305,-812 305,-818 299,-824 293,-824"/>
<text text-anchor="middle" x="278" y="-802.3" font-family="Times,serif" font-size="14.00">跳过</text>
</g>
<!-- check_code_model&#45;&gt;skip_code_model -->
<g id="edge33" class="edge">
<title>check_code_model&#45;&gt;skip_code_model</title>
<path fill="none" stroke="black" d="M190.46,-877.19C206.48,-864.35 229.95,-845.53 248.56,-830.61"/>
<polygon fill="black" stroke="black" points="250.85,-833.26 256.46,-824.27 246.47,-827.8 250.85,-833.26"/>
<text text-anchor="middle" x="238.5" y="-845.8" font-family="Times,serif" font-size="14.00">是</text>
</g>
<!-- check_debug_format -->
<g id="node29" class="node">
<title>check_debug_format</title>
<path fill="none" stroke="black" d="M206,-751C206,-751 128,-751 128,-751 122,-751 116,-745 116,-739 116,-739 116,-727 116,-727 116,-721 122,-715 128,-715 128,-715 206,-715 206,-715 212,-715 218,-721 218,-727 218,-727 218,-739 218,-739 218,-745 212,-751 206,-751"/>
<text text-anchor="middle" x="167" y="-729.3" font-family="Times,serif" font-size="14.00">调试格式选择</text>
</g>
<!-- add_code_model&#45;&gt;check_debug_format -->
<g id="edge34" class="edge">
<title>add_code_model&#45;&gt;check_debug_format</title>
<path fill="none" stroke="black" d="M162.45,-787.81C163.13,-779.79 163.95,-770.05 164.71,-761.07"/>
<polygon fill="black" stroke="black" points="168.21,-761.29 165.56,-751.03 161.23,-760.7 168.21,-761.29"/>
</g>
<!-- skip_code_model&#45;&gt;check_debug_format -->
<g id="edge35" class="edge">
<title>skip_code_model&#45;&gt;check_debug_format</title>
<path fill="none" stroke="black" d="M251.41,-787.99C236.69,-778.58 218.21,-766.76 202.29,-756.57"/>
<polygon fill="black" stroke="black" points="204.07,-753.55 193.76,-751.11 200.29,-759.45 204.07,-753.55"/>
</g>
<!-- debug_strip -->
<g id="node30" class="node">
<title>debug_strip</title>
<path fill="none" stroke="black" d="M63.5,-664C63.5,-664 28.5,-664 28.5,-664 22.5,-664 16.5,-658 16.5,-652 16.5,-652 16.5,-640 16.5,-640 16.5,-634 22.5,-628 28.5,-628 28.5,-628 63.5,-628 63.5,-628 69.5,-628 75.5,-634 75.5,-640 75.5,-640 75.5,-652 75.5,-652 75.5,-658 69.5,-664 63.5,-664"/>
<text text-anchor="middle" x="46" y="-642.3" font-family="Times,serif" font-size="14.00">无操作</text>
</g>
<!-- check_debug_format&#45;&gt;debug_strip -->
<g id="edge36" class="edge">
<title>check_debug_format&#45;&gt;debug_strip</title>
<path fill="none" stroke="black" d="M142.51,-714.8C124.15,-701.9 98.81,-684.1 78.71,-669.98"/>
<polygon fill="black" stroke="black" points="80.64,-667.06 70.45,-664.18 76.62,-672.79 80.64,-667.06"/>
<text text-anchor="middle" x="130" y="-685.8" font-family="Times,serif" font-size="14.00">strip</text>
</g>
<!-- debug_codeview -->
<g id="node31" class="node">
<title>debug_codeview</title>
<path fill="none" stroke="black" d="M228.5,-664C228.5,-664 105.5,-664 105.5,-664 99.5,-664 93.5,-658 93.5,-652 93.5,-652 93.5,-640 93.5,-640 93.5,-634 99.5,-628 105.5,-628 105.5,-628 228.5,-628 228.5,-628 234.5,-628 240.5,-634 240.5,-640 240.5,-640 240.5,-652 240.5,-652 240.5,-658 234.5,-664 228.5,-664"/>
<text text-anchor="middle" x="167" y="-642.3" font-family="Times,serif" font-size="14.00">添加 &#45;g &#45;gcodeview</text>
</g>
<!-- check_debug_format&#45;&gt;debug_codeview -->
<g id="edge37" class="edge">
<title>check_debug_format&#45;&gt;debug_codeview</title>
<path fill="none" stroke="black" d="M167,-714.8C167,-703.16 167,-687.55 167,-674.24"/>
<polygon fill="black" stroke="black" points="170.5,-674.18 167,-664.18 163.5,-674.18 170.5,-674.18"/>
<text text-anchor="middle" x="203.5" y="-685.8" font-family="Times,serif" font-size="14.00">code_view</text>
</g>
<!-- debug_dwarf -->
<g id="node32" class="node">
<title>debug_dwarf</title>
<path fill="none" stroke="black" d="M439.5,-664C439.5,-664 270.5,-664 270.5,-664 264.5,-664 258.5,-658 258.5,-652 258.5,-652 258.5,-640 258.5,-640 258.5,-634 264.5,-628 270.5,-628 270.5,-628 439.5,-628 439.5,-628 445.5,-628 451.5,-634 451.5,-640 451.5,-640 451.5,-652 451.5,-652 451.5,-658 445.5,-664 439.5,-664"/>
<text text-anchor="middle" x="355" y="-642.3" font-family="Times,serif" font-size="14.00">添加 &#45;gdwarf&#45;4 和其他选项</text>
</g>
<!-- check_debug_format&#45;&gt;debug_dwarf -->
<g id="edge38" class="edge">
<title>check_debug_format&#45;&gt;debug_dwarf</title>
<path fill="none" stroke="black" d="M205.04,-714.8C234.83,-701.33 276.4,-682.54 308.22,-668.15"/>
<polygon fill="black" stroke="black" points="309.66,-671.34 317.33,-664.03 306.78,-664.96 309.66,-671.34"/>
<text text-anchor="middle" x="293" y="-685.8" font-family="Times,serif" font-size="14.00">dwarf</text>
</g>
<!-- check_lto -->
<g id="node33" class="node">
<title>check_lto</title>
<path fill="none" stroke="black" d="M194,-591C194,-591 140,-591 140,-591 134,-591 128,-585 128,-579 128,-579 128,-567 128,-567 128,-561 134,-555 140,-555 140,-555 194,-555 194,-555 200,-555 206,-561 206,-567 206,-567 206,-579 206,-579 206,-585 200,-591 194,-591"/>
<text text-anchor="middle" x="167" y="-569.3" font-family="Times,serif" font-size="14.00">LTO 设置</text>
</g>
<!-- debug_strip&#45;&gt;check_lto -->
<g id="edge39" class="edge">
<title>debug_strip&#45;&gt;check_lto</title>
<path fill="none" stroke="black" d="M74.98,-627.99C91.18,-618.49 111.55,-606.54 129.01,-596.29"/>
<polygon fill="black" stroke="black" points="130.98,-599.19 137.83,-591.11 127.44,-593.16 130.98,-599.19"/>
</g>
<!-- debug_codeview&#45;&gt;check_lto -->
<g id="edge40" class="edge">
<title>debug_codeview&#45;&gt;check_lto</title>
<path fill="none" stroke="black" d="M167,-627.81C167,-619.79 167,-610.05 167,-601.07"/>
<polygon fill="black" stroke="black" points="170.5,-601.03 167,-591.03 163.5,-601.03 170.5,-601.03"/>
</g>
<!-- debug_dwarf&#45;&gt;check_lto -->
<g id="edge41" class="edge">
<title>debug_dwarf&#45;&gt;check_lto</title>
<path fill="none" stroke="black" d="M309.97,-627.99C281.57,-617.27 244.89,-603.42 215.8,-592.43"/>
<polygon fill="black" stroke="black" points="216.84,-589.08 206.25,-588.82 214.37,-595.63 216.84,-589.08"/>
</g>
<!-- add_lto -->
<g id="node34" class="node">
<title>add_lto</title>
<path fill="none" stroke="black" d="M230.5,-504C230.5,-504 103.5,-504 103.5,-504 97.5,-504 91.5,-498 91.5,-492 91.5,-492 91.5,-480 91.5,-480 91.5,-474 97.5,-468 103.5,-468 103.5,-468 230.5,-468 230.5,-468 236.5,-468 242.5,-474 242.5,-480 242.5,-480 242.5,-492 242.5,-492 242.5,-498 236.5,-504 230.5,-504"/>
<text text-anchor="middle" x="167" y="-482.3" font-family="Times,serif" font-size="14.00">添加 &#45;flto 或 &#45;fno&#45;lto</text>
</g>
<!-- check_lto&#45;&gt;add_lto -->
<g id="edge42" class="edge">
<title>check_lto&#45;&gt;add_lto</title>
<path fill="none" stroke="black" d="M167,-554.8C167,-543.16 167,-527.55 167,-514.24"/>
<polygon fill="black" stroke="black" points="170.5,-514.18 167,-504.18 163.5,-514.18 170.5,-514.18"/>
<text text-anchor="middle" x="215" y="-525.8" font-family="Times,serif" font-size="14.00">none/full/thin</text>
</g>
<!-- check_dep_file -->
<g id="node35" class="node">
<title>check_dep_file</title>
<path fill="none" stroke="black" d="M155.09,-429.53C155.09,-429.53 32.62,-414.47 32.62,-414.47 26.66,-413.73 26.66,-412.27 32.62,-411.53 32.62,-411.53 155.09,-396.47 155.09,-396.47 161.04,-395.73 172.96,-395.73 178.91,-396.47 178.91,-396.47 301.38,-411.53 301.38,-411.53 307.34,-412.27 307.34,-413.73 301.38,-414.47 301.38,-414.47 178.91,-429.53 178.91,-429.53 172.96,-430.27 161.04,-430.27 155.09,-429.53"/>
<text text-anchor="middle" x="167" y="-409.3" font-family="Times,serif" font-size="14.00">是否有依赖文件路径？</text>
</g>
<!-- add_lto&#45;&gt;check_dep_file -->
<g id="edge43" class="edge">
<title>add_lto&#45;&gt;check_dep_file</title>
<path fill="none" stroke="black" d="M167,-467.81C167,-459.79 167,-450.05 167,-441.07"/>
<polygon fill="black" stroke="black" points="170.5,-441.03 167,-431.03 163.5,-441.03 170.5,-441.03"/>
</g>
<!-- add_dep_flags -->
<g id="node36" class="node">
<title>add_dep_flags</title>
<path fill="none" stroke="black" d="M211,-344C211,-344 71,-344 71,-344 65,-344 59,-338 59,-332 59,-332 59,-320 59,-320 59,-314 65,-308 71,-308 71,-308 211,-308 211,-308 217,-308 223,-314 223,-320 223,-320 223,-332 223,-332 223,-338 217,-344 211,-344"/>
<text text-anchor="middle" x="141" y="-322.3" font-family="Times,serif" font-size="14.00">添加 &#45;MD &#45;MV &#45;MF ...</text>
</g>
<!-- check_dep_file&#45;&gt;add_dep_flags -->
<g id="edge44" class="edge">
<title>check_dep_file&#45;&gt;add_dep_flags</title>
<path fill="none" stroke="black" d="M161.99,-395.61C158.39,-383.85 153.46,-367.73 149.28,-354.07"/>
<polygon fill="black" stroke="black" points="152.54,-352.75 146.27,-344.21 145.84,-354.8 152.54,-352.75"/>
<text text-anchor="middle" x="162.5" y="-365.8" font-family="Times,serif" font-size="14.00">是</text>
</g>
<!-- skip_dep_flags -->
<g id="node37" class="node">
<title>skip_dep_flags</title>
<path fill="none" stroke="black" d="M283,-344C283,-344 253,-344 253,-344 247,-344 241,-338 241,-332 241,-332 241,-320 241,-320 241,-314 247,-308 253,-308 253,-308 283,-308 283,-308 289,-308 295,-314 295,-320 295,-320 295,-332 295,-332 295,-338 289,-344 283,-344"/>
<text text-anchor="middle" x="268" y="-322.3" font-family="Times,serif" font-size="14.00">跳过</text>
</g>
<!-- check_dep_file&#45;&gt;skip_dep_flags -->
<g id="edge45" class="edge">
<title>check_dep_file&#45;&gt;skip_dep_flags</title>
<path fill="none" stroke="black" d="M185.06,-396.8C200.31,-383.97 222.41,-365.37 239.97,-350.59"/>
<polygon fill="black" stroke="black" points="242.27,-353.23 247.67,-344.11 237.76,-347.87 242.27,-353.23"/>
<text text-anchor="middle" x="230.5" y="-365.8" font-family="Times,serif" font-size="14.00">否</text>
</g>
<!-- check_ext_type -->
<g id="node38" class="node">
<title>check_ext_type</title>
<path fill="none" stroke="black" d="M251.5,-271C251.5,-271 144.5,-271 144.5,-271 138.5,-271 132.5,-265 132.5,-259 132.5,-259 132.5,-247 132.5,-247 132.5,-241 138.5,-235 144.5,-235 144.5,-235 251.5,-235 251.5,-235 257.5,-235 263.5,-241 263.5,-247 263.5,-247 263.5,-259 263.5,-259 263.5,-265 257.5,-271 251.5,-271"/>
<text text-anchor="middle" x="198" y="-249.3" font-family="Times,serif" font-size="14.00">文件扩展类型检查</text>
</g>
<!-- add_dep_flags&#45;&gt;check_ext_type -->
<g id="edge46" class="edge">
<title>add_dep_flags&#45;&gt;check_ext_type</title>
<path fill="none" stroke="black" d="M154.8,-307.81C161.73,-299.18 170.26,-288.56 177.9,-279.03"/>
<polygon fill="black" stroke="black" points="180.8,-281.02 184.33,-271.03 175.34,-276.64 180.8,-281.02"/>
</g>
<!-- skip_dep_flags&#45;&gt;check_ext_type -->
<g id="edge47" class="edge">
<title>skip_dep_flags&#45;&gt;check_ext_type</title>
<path fill="none" stroke="black" d="M251.05,-307.81C242.28,-298.92 231.43,-287.91 221.83,-278.17"/>
<polygon fill="black" stroke="black" points="224.3,-275.69 214.79,-271.03 219.32,-280.61 224.3,-275.69"/>
</g>
<!-- handle_non_assembly -->
<g id="node39" class="node">
<title>handle_non_assembly</title>
<path fill="none" stroke="black" d="M260.5,-184C260.5,-184 57.5,-184 57.5,-184 51.5,-184 45.5,-178 45.5,-172 45.5,-172 45.5,-158 45.5,-158 45.5,-152 51.5,-146 57.5,-146 57.5,-146 260.5,-146 260.5,-146 266.5,-146 272.5,-152 272.5,-158 272.5,-158 272.5,-172 272.5,-172 272.5,-178 266.5,-184 260.5,-184"/>
<text text-anchor="middle" x="159" y="-168.8" font-family="Times,serif" font-size="14.00">添加非汇编特有参数</text>
<text text-anchor="middle" x="159" y="-153.8" font-family="Times,serif" font-size="14.00">(&#45;ffreestanding、栈保护选项等)</text>
</g>
<!-- check_ext_type&#45;&gt;handle_non_assembly -->
<g id="edge48" class="edge">
<title>check_ext_type&#45;&gt;handle_non_assembly</title>
<path fill="none" stroke="black" d="M184,-234.95C180.01,-229.47 175.95,-223.2 173,-217 169.54,-209.74 166.81,-201.47 164.72,-193.74"/>
<polygon fill="black" stroke="black" points="168.11,-192.89 162.32,-184.02 161.32,-194.56 168.11,-192.89"/>
<text text-anchor="middle" x="194.5" y="-205.8" font-family="Times,serif" font-size="14.00">非汇编</text>
</g>
<!-- handle_assembly -->
<g id="node40" class="node">
<title>handle_assembly</title>
<path fill="none" stroke="black" d="M431.5,-184C431.5,-184 302.5,-184 302.5,-184 296.5,-184 290.5,-178 290.5,-172 290.5,-172 290.5,-158 290.5,-158 290.5,-152 296.5,-146 302.5,-146 302.5,-146 431.5,-146 431.5,-146 437.5,-146 443.5,-152 443.5,-158 443.5,-158 443.5,-172 443.5,-172 443.5,-178 437.5,-184 431.5,-184"/>
<text text-anchor="middle" x="367" y="-168.8" font-family="Times,serif" font-size="14.00">添加汇编特有参数</text>
<text text-anchor="middle" x="367" y="-153.8" font-family="Times,serif" font-size="14.00">(&#45;march、&#45;mcpu 等)</text>
</g>
<!-- check_ext_type&#45;&gt;handle_assembly -->
<g id="edge49" class="edge">
<title>check_ext_type&#45;&gt;handle_assembly</title>
<path fill="none" stroke="black" d="M231.79,-234.8C257.87,-221.53 294.17,-203.06 322.59,-188.6"/>
<polygon fill="black" stroke="black" points="324.19,-191.71 331.52,-184.06 321.02,-185.47 324.19,-191.71"/>
<text text-anchor="middle" x="306.5" y="-205.8" font-family="Times,serif" font-size="14.00">汇编</text>
</g>
<!-- add_global_cc_args -->
<g id="node41" class="node">
<title>add_global_cc_args</title>
<path fill="none" stroke="black" d="M440,-109C440,-109 276,-109 276,-109 270,-109 264,-103 264,-97 264,-97 264,-85 264,-85 264,-79 270,-73 276,-73 276,-73 440,-73 440,-73 446,-73 452,-79 452,-85 452,-85 452,-97 452,-97 452,-103 446,-109 440,-109"/>
<text text-anchor="middle" x="358" y="-87.3" font-family="Times,serif" font-size="14.00">添加全局和模块级 CC 参数</text>
</g>
<!-- handle_non_assembly&#45;&gt;add_global_cc_args -->
<g id="edge50" class="edge">
<title>handle_non_assembly&#45;&gt;add_global_cc_args</title>
<path fill="none" stroke="black" d="M208.96,-145.92C236.99,-135.78 272.07,-123.09 301.15,-112.57"/>
<polygon fill="black" stroke="black" points="302.55,-115.79 310.76,-109.09 300.17,-109.2 302.55,-115.79"/>
</g>
<!-- handle_assembly&#45;&gt;add_global_cc_args -->
<g id="edge51" class="edge">
<title>handle_assembly&#45;&gt;add_global_cc_args</title>
<path fill="none" stroke="black" d="M364.73,-145.83C363.74,-137.89 362.55,-128.41 361.45,-119.63"/>
<polygon fill="black" stroke="black" points="364.89,-118.91 360.18,-109.42 357.94,-119.77 364.89,-118.91"/>
</g>
<!-- add_global_cc_args&#45;&gt;end -->
<g id="edge52" class="edge">
<title>add_global_cc_args&#45;&gt;end</title>
<path fill="none" stroke="black" d="M372.77,-72.81C380.26,-64.09 389.5,-53.34 397.74,-43.75"/>
<polygon fill="black" stroke="black" points="400.51,-45.89 404.37,-36.03 395.2,-41.33 400.51,-45.89"/>
</g>
</g>
</svg>
