<?xml version="1.0" encoding="UTF-8" standalone="no"?>
<!DOCTYPE svg PUBLIC "-//W3C//DTD SVG 1.1//EN"
 "http://www.w3.org/Graphics/SVG/1.1/DTD/svg11.dtd">
<!-- Generated by graphviz version 2.43.0 (0)
 -->
<!-- Title: flowchart Pages: 1 -->
<svg width="1932pt" height="415pt"
 viewBox="0.00 0.00 1932.00 415.00" xmlns="http://www.w3.org/2000/svg" xmlns:xlink="http://www.w3.org/1999/xlink">
<g id="graph0" class="graph" transform="scale(1 1) rotate(0) translate(4 411)">
<title>flowchart</title>
<polygon fill="white" stroke="transparent" points="-4,4 -4,-411 1928,-411 1928,4 -4,4"/>
<g id="clust1" class="cluster">
<title>cluster_x86</title>
<polygon fill="none" stroke="black" points="8,-8 8,-257 625,-257 625,-8 8,-8"/>
<text text-anchor="middle" x="316.5" y="-241.8" font-family="Times,serif" font-size="14.00">x86处理逻辑</text>
</g>
<!-- start -->
<g id="node1" class="node">
<title>start</title>
<ellipse fill="none" stroke="black" cx="1136" cy="-389" rx="130.78" ry="18"/>
<text text-anchor="middle" x="1136" y="-385.3" font-family="Helvetica,sans-Serif" font-size="14.00">开始 add_include_dirs_arch</text>
</g>
<!-- check_arch -->
<g id="node2" class="node">
<title>check_arch</title>
<path fill="none" stroke="black" d="M1124.21,-331.78C1124.21,-331.78 1052.11,-318.22 1052.11,-318.22 1046.21,-317.11 1046.21,-314.89 1052.11,-313.78 1052.11,-313.78 1124.21,-300.22 1124.21,-300.22 1130.1,-299.11 1141.9,-299.11 1147.79,-300.22 1147.79,-300.22 1219.89,-313.78 1219.89,-313.78 1225.79,-314.89 1225.79,-317.11 1219.89,-318.22 1219.89,-318.22 1147.79,-331.78 1147.79,-331.78 1141.9,-332.89 1130.1,-332.89 1124.21,-331.78"/>
<text text-anchor="middle" x="1136" y="-312.3" font-family="Helvetica,sans-Serif" font-size="14.00">检查arch类型</text>
</g>
<!-- start&#45;&gt;check_arch -->
<g id="edge1" class="edge">
<title>start&#45;&gt;check_arch</title>
<path fill="none" stroke="black" d="M1136,-370.81C1136,-362.79 1136,-353.05 1136,-344.07"/>
<polygon fill="black" stroke="black" points="1139.5,-344.03 1136,-334.03 1132.5,-344.03 1139.5,-344.03"/>
</g>
<!-- x86_branch -->
<g id="node3" class="node">
<title>x86_branch</title>
<path fill="none" stroke="black" d="M502.5,-226C502.5,-226 455.5,-226 455.5,-226 449.5,-226 443.5,-220 443.5,-214 443.5,-214 443.5,-202 443.5,-202 443.5,-196 449.5,-190 455.5,-190 455.5,-190 502.5,-190 502.5,-190 508.5,-190 514.5,-196 514.5,-202 514.5,-202 514.5,-214 514.5,-214 514.5,-220 508.5,-226 502.5,-226"/>
<text text-anchor="middle" x="479" y="-204.3" font-family="Helvetica,sans-Serif" font-size="14.00">x86分支</text>
</g>
<!-- check_arch&#45;&gt;x86_branch -->
<g id="edge2" class="edge">
<title>check_arch&#45;&gt;x86_branch</title>
<path fill="none" stroke="black" d="M1057.53,-312.68C938.61,-308.61 718.51,-298.78 642,-280 597.94,-269.18 550.74,-247.38 518.53,-230.77"/>
<polygon fill="black" stroke="black" points="519.93,-227.56 509.44,-226.02 516.68,-233.76 519.93,-227.56"/>
<text text-anchor="middle" x="664.5" y="-268.8" font-family="Helvetica,sans-Serif" font-size="14.00">is_x86</text>
</g>
<!-- arm_branch -->
<g id="node4" class="node">
<title>arm_branch</title>
<path fill="none" stroke="black" d="M695,-226C695,-226 645,-226 645,-226 639,-226 633,-220 633,-214 633,-214 633,-202 633,-202 633,-196 639,-190 645,-190 645,-190 695,-190 695,-190 701,-190 707,-196 707,-202 707,-202 707,-214 707,-214 707,-220 701,-226 695,-226"/>
<text text-anchor="middle" x="670" y="-204.3" font-family="Helvetica,sans-Serif" font-size="14.00">Arm分支</text>
</g>
<!-- check_arch&#45;&gt;arm_branch -->
<g id="edge3" class="edge">
<title>check_arch&#45;&gt;arm_branch</title>
<path fill="none" stroke="black" d="M1057.3,-312.78C940.87,-308.87 733.37,-299.28 705,-280 690.08,-269.86 681.26,-251.46 676.21,-235.93"/>
<polygon fill="black" stroke="black" points="679.55,-234.88 673.4,-226.25 672.82,-236.83 679.55,-234.88"/>
<text text-anchor="middle" x="747.5" y="-268.8" font-family="Helvetica,sans-Serif" font-size="14.00">arch.isArm()</text>
</g>
<!-- mips_branch -->
<g id="node5" class="node">
<title>mips_branch</title>
<path fill="none" stroke="black" d="M792.5,-226C792.5,-226 737.5,-226 737.5,-226 731.5,-226 725.5,-220 725.5,-214 725.5,-214 725.5,-202 725.5,-202 725.5,-196 731.5,-190 737.5,-190 737.5,-190 792.5,-190 792.5,-190 798.5,-190 804.5,-196 804.5,-202 804.5,-202 804.5,-214 804.5,-214 804.5,-220 798.5,-226 792.5,-226"/>
<text text-anchor="middle" x="765" y="-204.3" font-family="Helvetica,sans-Serif" font-size="14.00">MIPS分支</text>
</g>
<!-- check_arch&#45;&gt;mips_branch -->
<g id="edge4" class="edge">
<title>check_arch&#45;&gt;mips_branch</title>
<path fill="none" stroke="black" d="M1050.33,-314.11C967.45,-311.78 848.85,-304.16 810,-280 793.58,-269.79 782.1,-251.13 774.85,-235.5"/>
<polygon fill="black" stroke="black" points="778.04,-234.06 770.87,-226.26 771.61,-236.83 778.04,-234.06"/>
<text text-anchor="middle" x="855.5" y="-268.8" font-family="Helvetica,sans-Serif" font-size="14.00">arch.isMIPS()</text>
</g>
<!-- sparc_branch -->
<g id="node6" class="node">
<title>sparc_branch</title>
<path fill="none" stroke="black" d="M901,-226C901,-226 835,-226 835,-226 829,-226 823,-220 823,-214 823,-214 823,-202 823,-202 823,-196 829,-190 835,-190 835,-190 901,-190 901,-190 907,-190 913,-196 913,-202 913,-202 913,-214 913,-214 913,-220 907,-226 901,-226"/>
<text text-anchor="middle" x="868" y="-204.3" font-family="Helvetica,sans-Serif" font-size="14.00">SPARC分支</text>
</g>
<!-- check_arch&#45;&gt;sparc_branch -->
<g id="edge5" class="edge">
<title>check_arch&#45;&gt;sparc_branch</title>
<path fill="none" stroke="black" d="M1072.4,-309.93C1018.41,-304.67 945.85,-295.08 921,-280 903.58,-269.43 889.99,-250.78 880.94,-235.25"/>
<polygon fill="black" stroke="black" points="883.78,-233.15 875.89,-226.08 877.65,-236.53 883.78,-233.15"/>
<text text-anchor="middle" x="949" y="-268.8" font-family="Helvetica,sans-Serif" font-size="14.00">is_sparc</text>
</g>
<!-- aarch64_branch -->
<g id="node7" class="node">
<title>aarch64_branch</title>
<path fill="none" stroke="black" d="M1023,-226C1023,-226 943,-226 943,-226 937,-226 931,-220 931,-214 931,-214 931,-202 931,-202 931,-196 937,-190 943,-190 943,-190 1023,-190 1023,-190 1029,-190 1035,-196 1035,-202 1035,-202 1035,-214 1035,-214 1035,-220 1029,-226 1023,-226"/>
<text text-anchor="middle" x="983" y="-204.3" font-family="Helvetica,sans-Serif" font-size="14.00">AArch64分支</text>
</g>
<!-- check_arch&#45;&gt;aarch64_branch -->
<g id="edge6" class="edge">
<title>check_arch&#45;&gt;aarch64_branch</title>
<path fill="none" stroke="black" d="M1079.36,-308.57C1042.8,-303.16 999.93,-294.03 988,-280 977.89,-268.1 976.54,-250.66 977.77,-236.04"/>
<polygon fill="black" stroke="black" points="981.25,-236.37 979.03,-226.01 974.31,-235.5 981.25,-236.37"/>
<text text-anchor="middle" x="1025.5" y="-268.8" font-family="Helvetica,sans-Serif" font-size="14.00">is_aarch64</text>
</g>
<!-- ppc_branch -->
<g id="node8" class="node">
<title>ppc_branch</title>
<path fill="none" stroke="black" d="M1146.5,-226C1146.5,-226 1065.5,-226 1065.5,-226 1059.5,-226 1053.5,-220 1053.5,-214 1053.5,-214 1053.5,-202 1053.5,-202 1053.5,-196 1059.5,-190 1065.5,-190 1065.5,-190 1146.5,-190 1146.5,-190 1152.5,-190 1158.5,-196 1158.5,-202 1158.5,-202 1158.5,-214 1158.5,-214 1158.5,-220 1152.5,-226 1146.5,-226"/>
<text text-anchor="middle" x="1106" y="-204.3" font-family="Helvetica,sans-Serif" font-size="14.00">PowerPC分支</text>
</g>
<!-- check_arch&#45;&gt;ppc_branch -->
<g id="edge7" class="edge">
<title>check_arch&#45;&gt;ppc_branch</title>
<path fill="none" stroke="black" d="M1100.49,-304.55C1088.68,-299.19 1076.82,-291.34 1070,-280 1061.01,-265.05 1069.63,-247.58 1080.69,-233.71"/>
<polygon fill="black" stroke="black" points="1083.47,-235.86 1087.37,-226.01 1078.18,-231.27 1083.47,-235.86"/>
<text text-anchor="middle" x="1092" y="-268.8" font-family="Helvetica,sans-Serif" font-size="14.00">is_ppc</text>
</g>
<!-- riscv_branch -->
<g id="node9" class="node">
<title>riscv_branch</title>
<path fill="none" stroke="black" d="M1257,-226C1257,-226 1189,-226 1189,-226 1183,-226 1177,-220 1177,-214 1177,-214 1177,-202 1177,-202 1177,-196 1183,-190 1189,-190 1189,-190 1257,-190 1257,-190 1263,-190 1269,-196 1269,-202 1269,-202 1269,-214 1269,-214 1269,-220 1263,-226 1257,-226"/>
<text text-anchor="middle" x="1223" y="-204.3" font-family="Helvetica,sans-Serif" font-size="14.00">RISC&#45;V分支</text>
</g>
<!-- check_arch&#45;&gt;riscv_branch -->
<g id="edge8" class="edge">
<title>check_arch&#45;&gt;riscv_branch</title>
<path fill="none" stroke="black" d="M1131.65,-298.47C1129.89,-287.82 1129.71,-274.29 1137,-265 1145.52,-254.14 1154.79,-263.43 1167,-257 1178.68,-250.85 1190.04,-241.86 1199.44,-233.33"/>
<polygon fill="black" stroke="black" points="1201.98,-235.75 1206.84,-226.33 1197.17,-230.66 1201.98,-235.75"/>
<text text-anchor="middle" x="1187" y="-268.8" font-family="Helvetica,sans-Serif" font-size="14.00">arch.isRISCV()</text>
</g>
<!-- s390x_branch -->
<g id="node10" class="node">
<title>s390x_branch</title>
<path fill="none" stroke="black" d="M1363,-226C1363,-226 1299,-226 1299,-226 1293,-226 1287,-220 1287,-214 1287,-214 1287,-202 1287,-202 1287,-196 1293,-190 1299,-190 1299,-190 1363,-190 1363,-190 1369,-190 1375,-196 1375,-202 1375,-202 1375,-214 1375,-214 1375,-220 1369,-226 1363,-226"/>
<text text-anchor="middle" x="1331" y="-204.3" font-family="Helvetica,sans-Serif" font-size="14.00">s390x分支</text>
</g>
<!-- check_arch&#45;&gt;s390x_branch -->
<g id="edge9" class="edge">
<title>check_arch&#45;&gt;s390x_branch</title>
<path fill="none" stroke="black" d="M1172.39,-304.76C1191.99,-298.66 1216.34,-290.13 1237,-280 1247.96,-274.63 1249.28,-270.83 1260,-265 1267.69,-260.82 1270.66,-261.78 1278,-257 1288.46,-250.19 1298.88,-241.32 1307.68,-233.07"/>
<polygon fill="black" stroke="black" points="1310.19,-235.51 1314.95,-226.04 1305.33,-230.47 1310.19,-235.51"/>
<text text-anchor="middle" x="1315.5" y="-268.8" font-family="Helvetica,sans-Serif" font-size="14.00">arch == .s390x</text>
</g>
<!-- loongarch_branch -->
<g id="node11" class="node">
<title>loongarch_branch</title>
<path fill="none" stroke="black" d="M1500.5,-226C1500.5,-226 1405.5,-226 1405.5,-226 1399.5,-226 1393.5,-220 1393.5,-214 1393.5,-214 1393.5,-202 1393.5,-202 1393.5,-196 1399.5,-190 1405.5,-190 1405.5,-190 1500.5,-190 1500.5,-190 1506.5,-190 1512.5,-196 1512.5,-202 1512.5,-202 1512.5,-214 1512.5,-214 1512.5,-220 1506.5,-226 1500.5,-226"/>
<text text-anchor="middle" x="1453" y="-204.3" font-family="Helvetica,sans-Serif" font-size="14.00">LoongArch分支</text>
</g>
<!-- check_arch&#45;&gt;loongarch_branch -->
<g id="edge10" class="edge">
<title>check_arch&#45;&gt;loongarch_branch</title>
<path fill="none" stroke="black" d="M1220.27,-313.84C1266.57,-310.45 1323.96,-301.61 1371,-280 1383.69,-274.17 1409.2,-251.26 1428.41,-233.03"/>
<polygon fill="black" stroke="black" points="1430.89,-235.5 1435.69,-226.06 1426.04,-230.45 1430.89,-235.5"/>
<text text-anchor="middle" x="1457" y="-268.8" font-family="Helvetica,sans-Serif" font-size="14.00">arch.isLoongArch()</text>
</g>
<!-- m68k_branch -->
<g id="node12" class="node">
<title>m68k_branch</title>
<path fill="none" stroke="black" d="M1603.5,-226C1603.5,-226 1542.5,-226 1542.5,-226 1536.5,-226 1530.5,-220 1530.5,-214 1530.5,-214 1530.5,-202 1530.5,-202 1530.5,-196 1536.5,-190 1542.5,-190 1542.5,-190 1603.5,-190 1603.5,-190 1609.5,-190 1615.5,-196 1615.5,-202 1615.5,-202 1615.5,-214 1615.5,-214 1615.5,-220 1609.5,-226 1603.5,-226"/>
<text text-anchor="middle" x="1573" y="-204.3" font-family="Helvetica,sans-Serif" font-size="14.00">m68k分支</text>
</g>
<!-- check_arch&#45;&gt;m68k_branch -->
<g id="edge11" class="edge">
<title>check_arch&#45;&gt;m68k_branch</title>
<path fill="none" stroke="black" d="M1229.51,-315.54C1328.11,-314.56 1475.74,-308.17 1524,-280 1541.25,-269.93 1553.82,-251.09 1561.91,-235.35"/>
<polygon fill="black" stroke="black" points="1565.2,-236.58 1566.37,-226.05 1558.89,-233.56 1565.2,-236.58"/>
<text text-anchor="middle" x="1595" y="-268.8" font-family="Helvetica,sans-Serif" font-size="14.00">arch == .m68k</text>
</g>
<!-- arc_branch -->
<g id="node13" class="node">
<title>arc_branch</title>
<path fill="none" stroke="black" d="M1699,-226C1699,-226 1649,-226 1649,-226 1643,-226 1637,-220 1637,-214 1637,-214 1637,-202 1637,-202 1637,-196 1643,-190 1649,-190 1649,-190 1699,-190 1699,-190 1705,-190 1711,-196 1711,-202 1711,-202 1711,-214 1711,-214 1711,-220 1705,-226 1699,-226"/>
<text text-anchor="middle" x="1674" y="-204.3" font-family="Helvetica,sans-Serif" font-size="14.00">ARC分支</text>
</g>
<!-- check_arch&#45;&gt;arc_branch -->
<g id="edge12" class="edge">
<title>check_arch&#45;&gt;arc_branch</title>
<path fill="none" stroke="black" d="M1223.5,-314.45C1362.22,-312.78 1620.35,-306.15 1653,-280 1666.04,-269.55 1671.25,-251.41 1673.22,-236.08"/>
<polygon fill="black" stroke="black" points="1676.72,-236.31 1674.13,-226.04 1669.74,-235.69 1676.72,-236.31"/>
<text text-anchor="middle" x="1708.5" y="-268.8" font-family="Helvetica,sans-Serif" font-size="14.00">arch == .arc</text>
</g>
<!-- csky_branch -->
<g id="node14" class="node">
<title>csky_branch</title>
<path fill="none" stroke="black" d="M1813,-226C1813,-226 1751,-226 1751,-226 1745,-226 1739,-220 1739,-214 1739,-214 1739,-202 1739,-202 1739,-196 1745,-190 1751,-190 1751,-190 1813,-190 1813,-190 1819,-190 1825,-196 1825,-202 1825,-202 1825,-214 1825,-214 1825,-220 1819,-226 1813,-226"/>
<text text-anchor="middle" x="1782" y="-204.3" font-family="Helvetica,sans-Serif" font-size="14.00">C&#45;SKY分支</text>
</g>
<!-- check_arch&#45;&gt;csky_branch -->
<g id="edge13" class="edge">
<title>check_arch&#45;&gt;csky_branch</title>
<path fill="none" stroke="black" d="M1228.44,-315.37C1391.23,-315.2 1715.83,-310.93 1757,-280 1770.58,-269.8 1776.82,-251.65 1779.66,-236.25"/>
<polygon fill="black" stroke="black" points="1783.16,-236.57 1781.14,-226.17 1776.23,-235.55 1783.16,-236.57"/>
<text text-anchor="middle" x="1817.5" y="-268.8" font-family="Helvetica,sans-Serif" font-size="14.00">arch == .csky</text>
</g>
<!-- end -->
<g id="node15" class="node">
<title>end</title>
<ellipse fill="none" stroke="black" cx="1223" cy="-121" rx="29.5" ry="18"/>
<text text-anchor="middle" x="1223" y="-117.3" font-family="Helvetica,sans-Serif" font-size="14.00">结束</text>
</g>
<!-- check_arch&#45;&gt;end -->
<g id="edge14" class="edge">
<title>check_arch&#45;&gt;end</title>
<path fill="none" stroke="black" d="M1221.54,-314.05C1410.57,-311.52 1848.91,-303.17 1871,-280 1896.37,-253.39 1923.16,-254.42 1834,-190 1742.26,-123.71 1383.13,-120.59 1262.65,-121.46"/>
<polygon fill="black" stroke="black" points="1262.38,-117.97 1252.41,-121.55 1262.44,-124.97 1262.38,-117.97"/>
<text text-anchor="middle" x="1909.5" y="-204.3" font-family="Helvetica,sans-Serif" font-size="14.00">其他</text>
</g>
<!-- x86_64_check -->
<g id="node16" class="node">
<title>x86_64_check</title>
<path fill="none" stroke="black" d="M198.19,-136.9C198.19,-136.9 120.6,-123.1 120.6,-123.1 114.69,-122.05 114.69,-119.95 120.6,-118.9 120.6,-118.9 198.19,-105.1 198.19,-105.1 204.09,-104.05 215.91,-104.05 221.81,-105.1 221.81,-105.1 299.4,-118.9 299.4,-118.9 305.31,-119.95 305.31,-122.05 299.4,-123.1 299.4,-123.1 221.81,-136.9 221.81,-136.9 215.91,-137.95 204.09,-137.95 198.19,-136.9"/>
<text text-anchor="middle" x="210" y="-117.3" font-family="Helvetica,sans-Serif" font-size="14.00">检查ABI和nptl</text>
</g>
<!-- x86_branch&#45;&gt;x86_64_check -->
<g id="edge15" class="edge">
<title>x86_branch&#45;&gt;x86_64_check</title>
<path fill="none" stroke="black" d="M443.17,-203.65C405.76,-199.35 345.86,-190.16 297,-172 276.19,-164.27 254.55,-151.85 238.05,-141.32"/>
<polygon fill="black" stroke="black" points="239.74,-138.25 229.46,-135.71 235.92,-144.11 239.74,-138.25"/>
<text text-anchor="middle" x="356.5" y="-160.8" font-family="Helvetica,sans-Serif" font-size="14.00">arch == .x86_64</text>
</g>
<!-- x86_check -->
<g id="node17" class="node">
<title>x86_check</title>
<path fill="none" stroke="black" d="M393.42,-135.86C393.42,-135.86 350.22,-124.14 350.22,-124.14 344.43,-122.57 344.43,-119.43 350.22,-117.86 350.22,-117.86 393.42,-106.14 393.42,-106.14 399.21,-104.57 410.79,-104.57 416.58,-106.14 416.58,-106.14 459.78,-117.86 459.78,-117.86 465.57,-119.43 465.57,-122.57 459.78,-124.14 459.78,-124.14 416.58,-135.86 416.58,-135.86 410.79,-137.43 399.21,-137.43 393.42,-135.86"/>
<text text-anchor="middle" x="405" y="-117.3" font-family="Helvetica,sans-Serif" font-size="14.00">检查nptl</text>
</g>
<!-- x86_branch&#45;&gt;x86_check -->
<g id="edge16" class="edge">
<title>x86_branch&#45;&gt;x86_check</title>
<path fill="none" stroke="black" d="M449.16,-189.84C441.95,-184.74 434.69,-178.7 429,-172 422.82,-164.72 417.83,-155.57 414.03,-147.1"/>
<polygon fill="black" stroke="black" points="417.16,-145.53 410.12,-137.62 410.69,-148.2 417.16,-145.53"/>
<text text-anchor="middle" x="476" y="-160.8" font-family="Helvetica,sans-Serif" font-size="14.00">arch == .x86</text>
</g>
<!-- x86_common -->
<g id="node18" class="node">
<title>x86_common</title>
<path fill="none" stroke="black" d="M605,-139C605,-139 501,-139 501,-139 495,-139 489,-133 489,-127 489,-127 489,-115 489,-115 489,-109 495,-103 501,-103 501,-103 605,-103 605,-103 611,-103 617,-109 617,-115 617,-115 617,-127 617,-127 617,-133 611,-139 605,-139"/>
<text text-anchor="middle" x="553" y="-117.3" font-family="Helvetica,sans-Serif" font-size="14.00">添加x86公共路径</text>
</g>
<!-- x86_branch&#45;&gt;x86_common -->
<g id="edge17" class="edge">
<title>x86_branch&#45;&gt;x86_common</title>
<path fill="none" stroke="black" d="M503.66,-189.91C510.37,-184.61 517.34,-178.46 523,-172 529.3,-164.81 535.04,-156.12 539.77,-148.01"/>
<polygon fill="black" stroke="black" points="542.85,-149.66 544.66,-139.22 536.74,-146.26 542.85,-149.66"/>
<text text-anchor="middle" x="563" y="-160.8" font-family="Helvetica,sans-Serif" font-size="14.00">公共路径</text>
</g>
<!-- arm_branch&#45;&gt;end -->
<g id="edge24" class="edge">
<title>arm_branch&#45;&gt;end</title>
<path fill="none" stroke="black" d="M707.24,-192.65C710.18,-191.7 713.13,-190.8 716,-190 886,-142.63 1097.56,-127.83 1183.73,-123.57"/>
<polygon fill="black" stroke="black" points="1184.03,-127.06 1193.85,-123.1 1183.7,-120.07 1184.03,-127.06"/>
</g>
<!-- mips_branch&#45;&gt;end -->
<g id="edge25" class="edge">
<title>mips_branch&#45;&gt;end</title>
<path fill="none" stroke="black" d="M804.69,-192.67C807.82,-191.71 810.95,-190.81 814,-190 947.65,-154.64 1110.96,-134.07 1184.21,-125.99"/>
<polygon fill="black" stroke="black" points="1184.78,-129.45 1194.35,-124.89 1184.03,-122.49 1184.78,-129.45"/>
</g>
<!-- sparc_branch&#45;&gt;end -->
<g id="edge26" class="edge">
<title>sparc_branch&#45;&gt;end</title>
<path fill="none" stroke="black" d="M913.29,-192.44C916.23,-191.59 919.15,-190.77 922,-190 1015.98,-164.64 1128.18,-141.02 1185.39,-129.45"/>
<polygon fill="black" stroke="black" points="1186.31,-132.84 1195.42,-127.43 1184.93,-125.98 1186.31,-132.84"/>
</g>
<!-- aarch64_branch&#45;&gt;end -->
<g id="edge27" class="edge">
<title>aarch64_branch&#45;&gt;end</title>
<path fill="none" stroke="black" d="M1031.28,-189.9C1077.94,-173.38 1147.46,-148.75 1188.71,-134.14"/>
<polygon fill="black" stroke="black" points="1190.05,-137.38 1198.31,-130.75 1187.71,-130.78 1190.05,-137.38"/>
</g>
<!-- ppc_branch&#45;&gt;end -->
<g id="edge28" class="edge">
<title>ppc_branch&#45;&gt;end</title>
<path fill="none" stroke="black" d="M1129.68,-189.8C1149.07,-175.71 1176.5,-155.78 1196.61,-141.18"/>
<polygon fill="black" stroke="black" points="1198.69,-143.98 1204.73,-135.28 1194.58,-138.32 1198.69,-143.98"/>
</g>
<!-- riscv_branch&#45;&gt;end -->
<g id="edge29" class="edge">
<title>riscv_branch&#45;&gt;end</title>
<path fill="none" stroke="black" d="M1223,-189.8C1223,-178.16 1223,-162.55 1223,-149.24"/>
<polygon fill="black" stroke="black" points="1226.5,-149.18 1223,-139.18 1219.5,-149.18 1226.5,-149.18"/>
</g>
<!-- s390x_branch&#45;&gt;end -->
<g id="edge30" class="edge">
<title>s390x_branch&#45;&gt;end</title>
<path fill="none" stroke="black" d="M1309.14,-189.8C1291.61,-176 1266.97,-156.61 1248.54,-142.1"/>
<polygon fill="black" stroke="black" points="1250.57,-139.24 1240.55,-135.81 1246.24,-144.75 1250.57,-139.24"/>
</g>
<!-- loongarch_branch&#45;&gt;end -->
<g id="edge31" class="edge">
<title>loongarch_branch&#45;&gt;end</title>
<path fill="none" stroke="black" d="M1406.73,-189.9C1362.47,-173.54 1296.76,-149.26 1257.08,-134.6"/>
<polygon fill="black" stroke="black" points="1258.18,-131.27 1247.59,-131.09 1255.75,-137.84 1258.18,-131.27"/>
</g>
<!-- m68k_branch&#45;&gt;end -->
<g id="edge32" class="edge">
<title>m68k_branch&#45;&gt;end</title>
<path fill="none" stroke="black" d="M1530.24,-192.41C1527.46,-191.56 1524.7,-190.75 1522,-190 1428.85,-163.95 1317.31,-140.62 1260.41,-129.28"/>
<polygon fill="black" stroke="black" points="1260.92,-125.81 1250.43,-127.3 1259.56,-132.68 1260.92,-125.81"/>
</g>
<!-- arc_branch&#45;&gt;end -->
<g id="edge33" class="edge">
<title>arc_branch&#45;&gt;end</title>
<path fill="none" stroke="black" d="M1636.74,-193.37C1632.8,-192.14 1628.84,-190.99 1625,-190 1493.7,-156.12 1333.78,-134.87 1261.61,-126.31"/>
<polygon fill="black" stroke="black" points="1261.96,-122.83 1251.62,-125.15 1261.14,-129.78 1261.96,-122.83"/>
</g>
<!-- csky_branch&#45;&gt;end -->
<g id="edge34" class="edge">
<title>csky_branch&#45;&gt;end</title>
<path fill="none" stroke="black" d="M1738.78,-194.52C1732.51,-192.89 1726.11,-191.33 1720,-190 1551.5,-153.24 1346.29,-132.66 1261.99,-125.23"/>
<polygon fill="black" stroke="black" points="1262.12,-121.72 1251.85,-124.34 1261.51,-128.7 1262.12,-121.72"/>
</g>
<!-- x86_64_nptl -->
<g id="node19" class="node">
<title>x86_64_nptl</title>
<path fill="none" stroke="black" d="M105.5,-52C105.5,-52 28.5,-52 28.5,-52 22.5,-52 16.5,-46 16.5,-40 16.5,-40 16.5,-28 16.5,-28 16.5,-22 22.5,-16 28.5,-16 28.5,-16 105.5,-16 105.5,-16 111.5,-16 117.5,-22 117.5,-28 117.5,-28 117.5,-40 117.5,-40 117.5,-46 111.5,-52 105.5,-52"/>
<text text-anchor="middle" x="67" y="-30.3" font-family="Helvetica,sans-Serif" font-size="14.00">x86_64_nptl</text>
</g>
<!-- x86_64_check&#45;&gt;x86_64_nptl -->
<g id="edge18" class="edge">
<title>x86_64_check&#45;&gt;x86_64_nptl</title>
<path fill="none" stroke="black" d="M164.06,-111.06C144.58,-105.72 122.42,-97.47 105,-85 96.09,-78.62 88.32,-69.55 82.17,-60.87"/>
<polygon fill="black" stroke="black" points="85.02,-58.84 76.57,-52.45 79.19,-62.72 85.02,-58.84"/>
<text text-anchor="middle" x="147.5" y="-73.8" font-family="Helvetica,sans-Serif" font-size="14.00">opt_nptl存在</text>
</g>
<!-- x86_64_gnux32 -->
<g id="node20" class="node">
<title>x86_64_gnux32</title>
<path fill="none" stroke="black" d="M252,-52C252,-52 148,-52 148,-52 142,-52 136,-46 136,-40 136,-40 136,-28 136,-28 136,-22 142,-16 148,-16 148,-16 252,-16 252,-16 258,-16 264,-22 264,-28 264,-28 264,-40 264,-40 264,-46 258,-52 252,-52"/>
<text text-anchor="middle" x="200" y="-30.3" font-family="Helvetica,sans-Serif" font-size="14.00">x86_64_gnux32</text>
</g>
<!-- x86_64_check&#45;&gt;x86_64_gnux32 -->
<g id="edge19" class="edge">
<title>x86_64_check&#45;&gt;x86_64_gnux32</title>
<path fill="none" stroke="black" d="M201.72,-104.41C199.01,-98.5 196.36,-91.61 195,-85 193.5,-77.68 193.56,-69.66 194.31,-62.23"/>
<polygon fill="black" stroke="black" points="197.78,-62.65 195.73,-52.26 190.85,-61.66 197.78,-62.65"/>
<text text-anchor="middle" x="274" y="-73.8" font-family="Helvetica,sans-Serif" font-size="14.00">target.abi == .gnux32</text>
</g>
<!-- x86_64_default -->
<g id="node21" class="node">
<title>x86_64_default</title>
<path fill="none" stroke="black" d="M393.5,-52C393.5,-52 294.5,-52 294.5,-52 288.5,-52 282.5,-46 282.5,-40 282.5,-40 282.5,-28 282.5,-28 282.5,-22 288.5,-16 294.5,-16 294.5,-16 393.5,-16 393.5,-16 399.5,-16 405.5,-22 405.5,-28 405.5,-28 405.5,-40 405.5,-40 405.5,-46 399.5,-52 393.5,-52"/>
<text text-anchor="middle" x="344" y="-30.3" font-family="Helvetica,sans-Serif" font-size="14.00">x86_64_default</text>
</g>
<!-- x86_64_check&#45;&gt;x86_64_default -->
<g id="edge20" class="edge">
<title>x86_64_check&#45;&gt;x86_64_default</title>
<path fill="none" stroke="black" d="M267.73,-113.15C302.58,-107.7 342.27,-98.67 353,-85 358.11,-78.49 358.26,-70.03 356.41,-61.93"/>
<polygon fill="black" stroke="black" points="359.73,-60.84 353.35,-52.38 353.07,-62.97 359.73,-60.84"/>
<text text-anchor="middle" x="372.5" y="-73.8" font-family="Helvetica,sans-Serif" font-size="14.00">默认</text>
</g>
<!-- x86_nptl -->
<g id="node22" class="node">
<title>x86_nptl</title>
<path fill="none" stroke="black" d="M488.5,-52C488.5,-52 435.5,-52 435.5,-52 429.5,-52 423.5,-46 423.5,-40 423.5,-40 423.5,-28 423.5,-28 423.5,-22 429.5,-16 435.5,-16 435.5,-16 488.5,-16 488.5,-16 494.5,-16 500.5,-22 500.5,-28 500.5,-28 500.5,-40 500.5,-40 500.5,-46 494.5,-52 488.5,-52"/>
<text text-anchor="middle" x="462" y="-30.3" font-family="Helvetica,sans-Serif" font-size="14.00">x86_nptl</text>
</g>
<!-- x86_check&#45;&gt;x86_nptl -->
<g id="edge21" class="edge">
<title>x86_check&#45;&gt;x86_nptl</title>
<path fill="none" stroke="black" d="M414.67,-105.58C422.88,-93.34 434.85,-75.48 444.71,-60.79"/>
<polygon fill="black" stroke="black" points="447.85,-62.39 450.51,-52.13 442.04,-58.49 447.85,-62.39"/>
<text text-anchor="middle" x="479.5" y="-73.8" font-family="Helvetica,sans-Serif" font-size="14.00">opt_nptl存在</text>
</g>
<!-- x86_default -->
<g id="node23" class="node">
<title>x86_default</title>
<path fill="none" stroke="black" d="M605,-52C605,-52 531,-52 531,-52 525,-52 519,-46 519,-40 519,-40 519,-28 519,-28 519,-22 525,-16 531,-16 531,-16 605,-16 605,-16 611,-16 617,-22 617,-28 617,-28 617,-40 617,-40 617,-46 611,-52 605,-52"/>
<text text-anchor="middle" x="568" y="-30.3" font-family="Helvetica,sans-Serif" font-size="14.00">x86_default</text>
</g>
<!-- x86_check&#45;&gt;x86_default -->
<g id="edge22" class="edge">
<title>x86_check&#45;&gt;x86_default</title>
<path fill="none" stroke="black" d="M439.71,-112.34C470.17,-105.19 511.75,-94.27 526,-85 535.79,-78.63 544.51,-69.28 551.43,-60.39"/>
<polygon fill="black" stroke="black" points="554.4,-62.25 557.48,-52.12 548.75,-58.12 554.4,-62.25"/>
<text text-anchor="middle" x="557.5" y="-73.8" font-family="Helvetica,sans-Serif" font-size="14.00">默认</text>
</g>
<!-- x86_common&#45;&gt;end -->
<g id="edge23" class="edge">
<title>x86_common&#45;&gt;end</title>
<path fill="none" stroke="black" d="M617.12,-121C805.94,-121 994.76,-121 1183.58,-121"/>
<polygon fill="black" stroke="black" points="1183.71,-124.5 1193.71,-121 1183.71,-117.5 1183.71,-124.5"/>
</g>
</g>
</svg>
