<?xml version="1.0" encoding="UTF-8" standalone="no"?>
<!DOCTYPE svg PUBLIC "-//W3C//DTD SVG 1.1//EN"
 "http://www.w3.org/Graphics/SVG/1.1/DTD/svg11.dtd">
<!-- Generated by graphviz version 2.43.0 (0)
 -->
<!-- Title: buildCrtFile Pages: 1 -->
<svg width="767pt" height="1046pt"
 viewBox="0.00 0.00 767.00 1046.00" xmlns="http://www.w3.org/2000/svg" xmlns:xlink="http://www.w3.org/1999/xlink">
<g id="graph0" class="graph" transform="scale(1 1) rotate(0) translate(4 1042)">
<title>buildCrtFile</title>
<polygon fill="white" stroke="transparent" points="-4,4 -4,-1042 763,-1042 763,4 -4,4"/>
<g id="clust1" class="cluster">
<title>cluster_scrt1</title>
<polygon fill="none" stroke="black" points="503,-65 503,-387 751,-387 751,-65 503,-65"/>
<text text-anchor="middle" x="627" y="-371.8" font-family="Times,serif" font-size="14.00">处理 .scrt1_o</text>
</g>
<g id="clust2" class="cluster">
<title>cluster_nonshared</title>
<polygon fill="none" stroke="black" points="177,-65 177,-582 495,-582 495,-65 177,-65"/>
<text text-anchor="middle" x="336" y="-566.8" font-family="Times,serif" font-size="14.00">处理 .libc_nonshared_a</text>
</g>
<!-- start -->
<g id="node1" class="node">
<title>start</title>
<path fill="none" stroke="black" d="M260,-1038C260,-1038 230,-1038 230,-1038 224,-1038 218,-1032 218,-1026 218,-1026 218,-1014 218,-1014 218,-1008 224,-1002 230,-1002 230,-1002 260,-1002 260,-1002 266,-1002 272,-1008 272,-1014 272,-1014 272,-1026 272,-1026 272,-1032 266,-1038 260,-1038"/>
<text text-anchor="middle" x="245" y="-1016.3" font-family="Times,serif" font-size="14.00">开始</text>
</g>
<!-- check_llvm -->
<g id="node2" class="node">
<title>check_llvm</title>
<path fill="none" stroke="black" d="M343,-965C343,-965 147,-965 147,-965 141,-965 135,-959 135,-953 135,-953 135,-941 135,-941 135,-935 141,-929 147,-929 147,-929 343,-929 343,-929 349,-929 355,-935 355,-941 355,-941 355,-953 355,-953 355,-959 349,-965 343,-965"/>
<text text-anchor="middle" x="245" y="-943.3" font-family="Times,serif" font-size="14.00">检查 build_options.have_llvm</text>
</g>
<!-- start&#45;&gt;check_llvm -->
<g id="edge11" class="edge">
<title>start&#45;&gt;check_llvm</title>
<path fill="none" stroke="black" d="M245,-1001.81C245,-993.79 245,-984.05 245,-975.07"/>
<polygon fill="black" stroke="black" points="248.5,-975.03 245,-965.03 241.5,-975.03 248.5,-975.03"/>
</g>
<!-- error_llvm -->
<g id="node3" class="node">
<title>error_llvm</title>
<path fill="none" stroke="black" d="M368,-878C368,-878 12,-878 12,-878 6,-878 0,-872 0,-866 0,-866 0,-854 0,-854 0,-848 6,-842 12,-842 12,-842 368,-842 368,-842 374,-842 380,-848 380,-854 380,-854 380,-866 380,-866 380,-872 374,-878 368,-878"/>
<text text-anchor="middle" x="190" y="-856.3" font-family="Times,serif" font-size="14.00">返回错误 ZigCompilerNotBuiltWithLLVMExtensions</text>
</g>
<!-- check_llvm&#45;&gt;error_llvm -->
<g id="edge12" class="edge">
<title>check_llvm&#45;&gt;error_llvm</title>
<path fill="none" stroke="black" d="M233.87,-928.8C226.04,-916.7 215.43,-900.3 206.61,-886.67"/>
<polygon fill="black" stroke="black" points="209.48,-884.67 201.11,-878.18 203.61,-888.47 209.48,-884.67"/>
<text text-anchor="middle" x="265" y="-899.8" font-family="Times,serif" font-size="14.00">未启用 LLVM</text>
</g>
<!-- init_allocator -->
<g id="node4" class="node">
<title>init_allocator</title>
<path fill="none" stroke="black" d="M555.5,-878C555.5,-878 410.5,-878 410.5,-878 404.5,-878 398.5,-872 398.5,-866 398.5,-866 398.5,-854 398.5,-854 398.5,-848 404.5,-842 410.5,-842 410.5,-842 555.5,-842 555.5,-842 561.5,-842 567.5,-848 567.5,-854 567.5,-854 567.5,-866 567.5,-866 567.5,-872 561.5,-878 555.5,-878"/>
<text text-anchor="middle" x="483" y="-856.3" font-family="Times,serif" font-size="14.00">初始化 ArenaAllocator</text>
</g>
<!-- check_llvm&#45;&gt;init_allocator -->
<g id="edge13" class="edge">
<title>check_llvm&#45;&gt;init_allocator</title>
<path fill="none" stroke="black" d="M292.88,-928.9C331.21,-915.21 385.08,-895.97 425.7,-881.46"/>
<polygon fill="black" stroke="black" points="426.96,-884.73 435.2,-878.07 424.61,-878.14 426.96,-884.73"/>
<text text-anchor="middle" x="399.5" y="-899.8" font-family="Times,serif" font-size="14.00">已启用</text>
</g>
<!-- get_target -->
<g id="node5" class="node">
<title>get_target</title>
<path fill="none" stroke="black" d="M536.5,-805C536.5,-805 429.5,-805 429.5,-805 423.5,-805 417.5,-799 417.5,-793 417.5,-793 417.5,-781 417.5,-781 417.5,-775 423.5,-769 429.5,-769 429.5,-769 536.5,-769 536.5,-769 542.5,-769 548.5,-775 548.5,-781 548.5,-781 548.5,-793 548.5,-793 548.5,-799 542.5,-805 536.5,-805"/>
<text text-anchor="middle" x="483" y="-783.3" font-family="Times,serif" font-size="14.00">获取目标系统信息</text>
</g>
<!-- init_allocator&#45;&gt;get_target -->
<g id="edge14" class="edge">
<title>init_allocator&#45;&gt;get_target</title>
<path fill="none" stroke="black" d="M483,-841.81C483,-833.79 483,-824.05 483,-815.07"/>
<polygon fill="black" stroke="black" points="486.5,-815.03 483,-805.03 479.5,-815.03 486.5,-815.03"/>
</g>
<!-- set_flags -->
<g id="node6" class="node">
<title>set_flags</title>
<path fill="none" stroke="black" d="M623,-732C623,-732 343,-732 343,-732 337,-732 331,-726 331,-720 331,-720 331,-708 331,-708 331,-702 337,-696 343,-696 343,-696 623,-696 623,-696 629,-696 635,-702 635,-708 635,-708 635,-720 635,-720 635,-726 629,-732 623,-732"/>
<text text-anchor="middle" x="483" y="-710.3" font-family="Times,serif" font-size="14.00">设置 nonshared_stat 和 start_old_init_fini</text>
</g>
<!-- get_target&#45;&gt;set_flags -->
<g id="edge15" class="edge">
<title>get_target&#45;&gt;set_flags</title>
<path fill="none" stroke="black" d="M483,-768.81C483,-760.79 483,-751.05 483,-742.07"/>
<polygon fill="black" stroke="black" points="486.5,-742.03 483,-732.03 479.5,-742.03 486.5,-742.03"/>
</g>
<!-- switch_crt_file -->
<g id="node7" class="node">
<title>switch_crt_file</title>
<path fill="none" stroke="black" d="M471.14,-657.17C471.14,-657.17 377.89,-642.83 377.89,-642.83 371.96,-641.91 371.96,-640.09 377.89,-639.17 377.89,-639.17 471.14,-624.83 471.14,-624.83 477.07,-623.91 488.93,-623.91 494.86,-624.83 494.86,-624.83 588.11,-639.17 588.11,-639.17 594.04,-640.09 594.04,-641.91 588.11,-642.83 588.11,-642.83 494.86,-657.17 494.86,-657.17 488.93,-658.09 477.07,-658.09 471.14,-657.17"/>
<text text-anchor="middle" x="483" y="-637.3" font-family="Times,serif" font-size="14.00">switch (crt_file)</text>
</g>
<!-- set_flags&#45;&gt;switch_crt_file -->
<g id="edge16" class="edge">
<title>set_flags&#45;&gt;switch_crt_file</title>
<path fill="none" stroke="black" d="M483,-695.81C483,-687.79 483,-678.05 483,-669.07"/>
<polygon fill="black" stroke="black" points="486.5,-669.03 483,-659.03 479.5,-669.03 486.5,-669.03"/>
</g>
<!-- scrt1_start -->
<g id="node8" class="node">
<title>scrt1_start</title>
<path fill="none" stroke="black" d="M603,-356C603,-356 529,-356 529,-356 523,-356 517,-350 517,-344 517,-344 517,-332 517,-332 517,-326 523,-320 529,-320 529,-320 603,-320 603,-320 609,-320 615,-326 615,-332 615,-332 615,-344 615,-344 615,-350 609,-356 603,-356"/>
<text text-anchor="middle" x="566" y="-334.3" font-family="Times,serif" font-size="14.00">构建 start_o</text>
</g>
<!-- switch_crt_file&#45;&gt;scrt1_start -->
<g id="edge17" class="edge">
<title>switch_crt_file&#45;&gt;scrt1_start</title>
<path fill="none" stroke="black" d="M517.82,-628.26C528.61,-622.88 539.39,-615.33 546,-605 594.02,-529.99 581.18,-417.56 571.82,-366.26"/>
<polygon fill="black" stroke="black" points="575.22,-365.44 569.89,-356.28 568.35,-366.76 575.22,-365.44"/>
<text text-anchor="middle" x="608.5" y="-485.8" font-family="Times,serif" font-size="14.00">.scrt1_o</text>
</g>
<!-- nonshared_loop_start -->
<g id="node12" class="node">
<title>nonshared_loop_start</title>
<path fill="none" stroke="black" d="M476.02,-537.58C476.02,-537.58 454.65,-546.42 454.65,-546.42 449.1,-548.71 437.56,-551 431.56,-551 431.56,-551 368.44,-551 368.44,-551 362.44,-551 350.9,-548.71 345.35,-546.42 345.35,-546.42 323.98,-537.58 323.98,-537.58 318.43,-535.29 318.43,-530.71 323.98,-528.42 323.98,-528.42 345.35,-519.58 345.35,-519.58 350.9,-517.29 362.44,-515 368.44,-515 368.44,-515 431.56,-515 431.56,-515 437.56,-515 449.1,-517.29 454.65,-519.58 454.65,-519.58 476.02,-528.42 476.02,-528.42 481.57,-530.71 481.57,-535.29 476.02,-537.58"/>
<text text-anchor="middle" x="400" y="-529.3" font-family="Times,serif" font-size="14.00">遍历 deps 数组</text>
</g>
<!-- switch_crt_file&#45;&gt;nonshared_loop_start -->
<g id="edge18" class="edge">
<title>switch_crt_file&#45;&gt;nonshared_loop_start</title>
<path fill="none" stroke="black" d="M449.72,-628.11C438.53,-622.63 426.9,-615.06 419,-605 409.26,-592.61 404.5,-575.64 402.18,-561.41"/>
<polygon fill="black" stroke="black" points="405.6,-560.63 400.83,-551.17 398.66,-561.54 405.6,-560.63"/>
<text text-anchor="middle" x="482.5" y="-593.8" font-family="Times,serif" font-size="14.00">.libc_nonshared_a</text>
</g>
<!-- scrt1_abi_note -->
<g id="node9" class="node">
<title>scrt1_abi_note</title>
<path fill="none" stroke="black" d="M650,-269C650,-269 550,-269 550,-269 544,-269 538,-263 538,-257 538,-257 538,-245 538,-245 538,-239 544,-233 550,-233 550,-233 650,-233 650,-233 656,-233 662,-239 662,-245 662,-245 662,-257 662,-257 662,-263 656,-269 650,-269"/>
<text text-anchor="middle" x="600" y="-247.3" font-family="Times,serif" font-size="14.00">构建 abi_note_o</text>
</g>
<!-- scrt1_start&#45;&gt;scrt1_abi_note -->
<g id="edge1" class="edge">
<title>scrt1_start&#45;&gt;scrt1_abi_note</title>
<path fill="none" stroke="black" d="M572.88,-319.8C577.58,-308.05 583.9,-292.24 589.26,-278.84"/>
<polygon fill="black" stroke="black" points="592.67,-279.76 593.13,-269.18 586.17,-277.16 592.67,-279.76"/>
</g>
<!-- scrt1_init -->
<g id="node10" class="node">
<title>scrt1_init</title>
<path fill="none" stroke="black" d="M648,-196C648,-196 584,-196 584,-196 578,-196 572,-190 572,-184 572,-184 572,-172 572,-172 572,-166 578,-160 584,-160 584,-160 648,-160 648,-160 654,-160 660,-166 660,-172 660,-172 660,-184 660,-184 660,-190 654,-196 648,-196"/>
<text text-anchor="middle" x="616" y="-174.3" font-family="Times,serif" font-size="14.00">构建 init_o</text>
</g>
<!-- scrt1_abi_note&#45;&gt;scrt1_init -->
<g id="edge2" class="edge">
<title>scrt1_abi_note&#45;&gt;scrt1_init</title>
<path fill="none" stroke="black" d="M603.87,-232.81C605.68,-224.79 607.88,-215.05 609.9,-206.07"/>
<polygon fill="black" stroke="black" points="613.38,-206.55 612.16,-196.03 606.55,-205.01 613.38,-206.55"/>
</g>
<!-- scrt1_build -->
<g id="node11" class="node">
<title>scrt1_build</title>
<path fill="none" stroke="black" d="M731.5,-109C731.5,-109 522.5,-109 522.5,-109 516.5,-109 510.5,-103 510.5,-97 510.5,-97 510.5,-85 510.5,-85 510.5,-79 516.5,-73 522.5,-73 522.5,-73 731.5,-73 731.5,-73 737.5,-73 743.5,-79 743.5,-85 743.5,-85 743.5,-97 743.5,-97 743.5,-103 737.5,-109 731.5,-109"/>
<text text-anchor="middle" x="627" y="-87.3" font-family="Times,serif" font-size="14.00">调用 comp.build_crt_file(Scrt1)</text>
</g>
<!-- scrt1_init&#45;&gt;scrt1_build -->
<g id="edge3" class="edge">
<title>scrt1_init&#45;&gt;scrt1_build</title>
<path fill="none" stroke="black" d="M618.23,-159.8C619.73,-148.16 621.75,-132.55 623.48,-119.24"/>
<polygon fill="black" stroke="black" points="626.96,-119.54 624.78,-109.18 620.02,-118.64 626.96,-119.54"/>
</g>
<!-- end -->
<g id="node18" class="node">
<title>end</title>
<path fill="none" stroke="black" d="M529,-36C529,-36 499,-36 499,-36 493,-36 487,-30 487,-24 487,-24 487,-12 487,-12 487,-6 493,0 499,0 499,0 529,0 529,0 535,0 541,-6 541,-12 541,-12 541,-24 541,-24 541,-30 535,-36 529,-36"/>
<text text-anchor="middle" x="514" y="-14.3" font-family="Times,serif" font-size="14.00">结束</text>
</g>
<!-- scrt1_build&#45;&gt;end -->
<g id="edge19" class="edge">
<title>scrt1_build&#45;&gt;end</title>
<path fill="none" stroke="black" d="M599.93,-72.99C584.95,-63.58 566.13,-51.76 549.93,-41.57"/>
<polygon fill="black" stroke="black" points="551.57,-38.47 541.24,-36.11 547.84,-44.4 551.57,-38.47"/>
</g>
<!-- check_include -->
<g id="node13" class="node">
<title>check_include</title>
<path fill="none" stroke="black" d="M307.11,-462.41C307.11,-462.41 196.5,-447.59 196.5,-447.59 190.55,-446.8 190.55,-445.2 196.5,-444.41 196.5,-444.41 307.11,-429.59 307.11,-429.59 313.05,-428.8 324.95,-428.8 330.89,-429.59 330.89,-429.59 441.5,-444.41 441.5,-444.41 447.45,-445.2 447.45,-446.8 441.5,-447.59 441.5,-447.59 330.89,-462.41 330.89,-462.41 324.95,-463.2 313.05,-463.2 307.11,-462.41"/>
<text text-anchor="middle" x="319" y="-442.3" font-family="Times,serif" font-size="14.00">dep.include 为真？</text>
</g>
<!-- nonshared_loop_start&#45;&gt;check_include -->
<g id="edge4" class="edge">
<title>nonshared_loop_start&#45;&gt;check_include</title>
<path fill="none" stroke="black" d="M383.61,-514.8C371.21,-501.78 354.06,-483.79 340.55,-469.61"/>
<polygon fill="black" stroke="black" points="342.9,-467.01 333.47,-462.18 337.83,-471.83 342.9,-467.01"/>
</g>
<!-- build_args -->
<g id="node14" class="node">
<title>build_args</title>
<path fill="none" stroke="black" d="M354,-356C354,-356 276,-356 276,-356 270,-356 264,-350 264,-344 264,-344 264,-332 264,-332 264,-326 270,-320 276,-320 276,-320 354,-320 354,-320 360,-320 366,-326 366,-332 366,-332 366,-344 366,-344 366,-350 360,-356 354,-356"/>
<text text-anchor="middle" x="315" y="-334.3" font-family="Times,serif" font-size="14.00">生成编译参数</text>
</g>
<!-- check_include&#45;&gt;build_args -->
<g id="edge5" class="edge">
<title>check_include&#45;&gt;build_args</title>
<path fill="none" stroke="black" d="M318.36,-427.97C317.73,-411.38 316.77,-385.88 316.04,-366.43"/>
<polygon fill="black" stroke="black" points="319.53,-366.2 315.65,-356.34 312.53,-366.47 319.53,-366.2"/>
<text text-anchor="middle" x="324.5" y="-398.8" font-family="Times,serif" font-size="14.00">是</text>
</g>
<!-- loop_end -->
<g id="node16" class="node">
<title>loop_end</title>
<path fill="none" stroke="black" d="M472,-196C472,-196 378,-196 378,-196 372,-196 366,-190 366,-184 366,-184 366,-172 366,-172 366,-166 372,-160 378,-160 378,-160 472,-160 472,-160 478,-160 484,-166 484,-172 484,-172 484,-184 484,-184 484,-190 478,-196 472,-196"/>
<text text-anchor="middle" x="425" y="-174.3" font-family="Times,serif" font-size="14.00">继续下一个 dep</text>
</g>
<!-- check_include&#45;&gt;loop_end -->
<g id="edge6" class="edge">
<title>check_include&#45;&gt;loop_end</title>
<path fill="none" stroke="black" d="M336.56,-430.23C348.67,-419.3 364.43,-403.5 375,-387 405.36,-339.6 409.37,-324.07 421,-269 425.38,-248.25 426.24,-224.22 426.08,-206.22"/>
<polygon fill="black" stroke="black" points="429.58,-206.06 425.88,-196.13 422.58,-206.19 429.58,-206.06"/>
<text text-anchor="middle" x="423.5" y="-290.8" font-family="Times,serif" font-size="14.00">否</text>
</g>
<!-- add_file -->
<g id="node15" class="node">
<title>add_file</title>
<path fill="none" stroke="black" d="M400,-269C400,-269 206,-269 206,-269 200,-269 194,-263 194,-257 194,-257 194,-245 194,-245 194,-239 200,-233 206,-233 206,-233 400,-233 400,-233 406,-233 412,-239 412,-245 412,-245 412,-257 412,-257 412,-263 406,-269 400,-269"/>
<text text-anchor="middle" x="303" y="-247.3" font-family="Times,serif" font-size="14.00">添加 CSourceFile 到 files_buf</text>
</g>
<!-- build_args&#45;&gt;add_file -->
<g id="edge7" class="edge">
<title>build_args&#45;&gt;add_file</title>
<path fill="none" stroke="black" d="M312.57,-319.8C310.93,-308.16 308.72,-292.55 306.85,-279.24"/>
<polygon fill="black" stroke="black" points="310.29,-278.59 305.42,-269.18 303.36,-279.57 310.29,-278.59"/>
</g>
<!-- add_file&#45;&gt;loop_end -->
<g id="edge8" class="edge">
<title>add_file&#45;&gt;loop_end</title>
<path fill="none" stroke="black" d="M332.22,-232.99C348.55,-223.49 369.09,-211.54 386.69,-201.29"/>
<polygon fill="black" stroke="black" points="388.71,-204.17 395.59,-196.11 385.19,-198.12 388.71,-204.17"/>
</g>
<!-- loop_end&#45;&gt;nonshared_loop_start -->
<g id="edge9" class="edge">
<title>loop_end&#45;&gt;nonshared_loop_start</title>
<path fill="none" stroke="black" stroke-dasharray="1,5" d="M444.66,-196.21C457.54,-209.46 472,-229.01 472,-250 472,-447 472,-447 472,-447 472,-471.99 453.66,-493.41 435.49,-508.49"/>
<polygon fill="black" stroke="black" points="432.94,-506.05 427.22,-514.97 437.25,-511.56 432.94,-506.05"/>
</g>
<!-- nonshared_build -->
<g id="node17" class="node">
<title>nonshared_build</title>
<path fill="none" stroke="black" d="M474.5,-109C474.5,-109 197.5,-109 197.5,-109 191.5,-109 185.5,-103 185.5,-97 185.5,-97 185.5,-85 185.5,-85 185.5,-79 191.5,-73 197.5,-73 197.5,-73 474.5,-73 474.5,-73 480.5,-73 486.5,-79 486.5,-85 486.5,-85 486.5,-97 486.5,-97 486.5,-103 480.5,-109 474.5,-109"/>
<text text-anchor="middle" x="336" y="-87.3" font-family="Times,serif" font-size="14.00">调用 comp.build_crt_file(libc_nonshared)</text>
</g>
<!-- loop_end&#45;&gt;nonshared_build -->
<g id="edge10" class="edge">
<title>loop_end&#45;&gt;nonshared_build</title>
<path fill="none" stroke="black" d="M399.75,-159.86C392.45,-154.47 384.66,-148.28 378,-142 369.96,-134.42 361.95,-125.36 355.12,-117.05"/>
<polygon fill="black" stroke="black" points="357.7,-114.68 348.72,-109.07 352.24,-119.06 357.7,-114.68"/>
<text text-anchor="middle" x="438.5" y="-130.8" font-family="Times,serif" font-size="14.00">所有 dep 处理完成</text>
</g>
<!-- nonshared_build&#45;&gt;end -->
<g id="edge20" class="edge">
<title>nonshared_build&#45;&gt;end</title>
<path fill="none" stroke="black" d="M378.64,-72.99C408.72,-60.99 448.61,-45.08 477.29,-33.64"/>
<polygon fill="black" stroke="black" points="478.93,-36.76 486.93,-29.8 476.34,-30.25 478.93,-36.76"/>
</g>
</g>
</svg>
