<?xml version="1.0" encoding="UTF-8" standalone="no"?>
<!DOCTYPE svg PUBLIC "-//W3C//DTD SVG 1.1//EN"
 "http://www.w3.org/Graphics/SVG/1.1/DTD/svg11.dtd">
<!-- Generated by graphviz version 2.43.0 (0)
 -->
<!-- Title: flowchart Pages: 1 -->
<svg width="859pt" height="1033pt"
 viewBox="0.00 0.00 859.00 1033.00" xmlns="http://www.w3.org/2000/svg" xmlns:xlink="http://www.w3.org/1999/xlink">
<g id="graph0" class="graph" transform="scale(1 1) rotate(0) translate(4 1029)">
<title>flowchart</title>
<polygon fill="white" stroke="transparent" points="-4,4 -4,-1029 855,-1029 855,4 -4,4"/>
<!-- start -->
<g id="node1" class="node">
<title>start</title>
<polygon fill="none" stroke="black" points="252,-1025 133,-1025 133,-989 252,-989 252,-1025"/>
<text text-anchor="middle" x="192.5" y="-1004.5" font-family="Courier,monospace" font-size="10.00">Start getEnumType</text>
</g>
<!-- construct_key -->
<g id="node2" class="node">
<title>construct_key</title>
<polygon fill="none" stroke="black" points="291,-952 94,-952 94,-916 291,-916 291,-952"/>
<text text-anchor="middle" x="192.5" y="-931.5" font-family="Courier,monospace" font-size="10.00">Construct key based on ini.key</text>
</g>
<!-- start&#45;&gt;construct_key -->
<g id="edge1" class="edge">
<title>start&#45;&gt;construct_key</title>
<path fill="none" stroke="black" d="M192.5,-988.81C192.5,-980.79 192.5,-971.05 192.5,-962.07"/>
<polygon fill="black" stroke="black" points="196,-962.03 192.5,-952.03 189,-962.03 196,-962.03"/>
</g>
<!-- check_replace -->
<g id="node3" class="node">
<title>check_replace</title>
<polygon fill="none" stroke="black" points="192.5,-879 93.37,-861 192.5,-843 291.63,-861 192.5,-879"/>
<text text-anchor="middle" x="192.5" y="-858.5" font-family="Courier,monospace" font-size="10.00">replace_existing?</text>
</g>
<!-- construct_key&#45;&gt;check_replace -->
<g id="edge2" class="edge">
<title>construct_key&#45;&gt;check_replace</title>
<path fill="none" stroke="black" d="M192.5,-915.81C192.5,-907.79 192.5,-898.05 192.5,-889.07"/>
<polygon fill="black" stroke="black" points="196,-889.03 192.5,-879.03 189,-889.03 196,-889.03"/>
</g>
<!-- put_replace -->
<g id="node4" class="node">
<title>put_replace</title>
<polygon fill="none" stroke="black" points="173,-796 0,-796 0,-760 173,-760 173,-796"/>
<text text-anchor="middle" x="86.5" y="-775.5" font-family="Courier,monospace" font-size="10.00">ip.putKeyReplace(tid, key)</text>
</g>
<!-- check_replace&#45;&gt;put_replace -->
<g id="edge3" class="edge">
<title>check_replace&#45;&gt;put_replace</title>
<path fill="none" stroke="black" d="M174.52,-846.26C158.84,-834.28 135.77,-816.65 117.19,-802.45"/>
<polygon fill="black" stroke="black" points="119.07,-799.49 109,-796.2 114.82,-805.05 119.07,-799.49"/>
<text text-anchor="middle" x="156" y="-817" font-family="Courier,monospace" font-size="10.00">Yes</text>
</g>
<!-- get_or_put -->
<g id="node5" class="node">
<title>get_or_put</title>
<polygon fill="none" stroke="black" points="406,-796 191,-796 191,-760 406,-760 406,-796"/>
<text text-anchor="middle" x="298.5" y="-775.5" font-family="Courier,monospace" font-size="10.00">try ip.getOrPutKey(gpa, tid, key)</text>
</g>
<!-- check_replace&#45;&gt;get_or_put -->
<g id="edge4" class="edge">
<title>check_replace&#45;&gt;get_or_put</title>
<path fill="none" stroke="black" d="M210.48,-846.26C226.16,-834.28 249.23,-816.65 267.81,-802.45"/>
<polygon fill="black" stroke="black" points="270.18,-805.05 276,-796.2 265.93,-799.49 270.18,-805.05"/>
<text text-anchor="middle" x="258" y="-817" font-family="Courier,monospace" font-size="10.00">No</text>
</g>
<!-- check_gop -->
<g id="node6" class="node">
<title>check_gop</title>
<polygon fill="none" stroke="black" points="191.5,-723 92.37,-705 191.5,-687 290.63,-705 191.5,-723"/>
<text text-anchor="middle" x="191.5" y="-702.5" font-family="Courier,monospace" font-size="10.00">gop == .existing?</text>
</g>
<!-- put_replace&#45;&gt;check_gop -->
<g id="edge5" class="edge">
<title>put_replace&#45;&gt;check_gop</title>
<path fill="none" stroke="black" d="M111.65,-759.99C127.11,-749.54 146.96,-736.12 163,-725.27"/>
<polygon fill="black" stroke="black" points="165.14,-728.05 171.47,-719.55 161.22,-722.25 165.14,-728.05"/>
</g>
<!-- get_or_put&#45;&gt;check_gop -->
<g id="edge6" class="edge">
<title>get_or_put&#45;&gt;check_gop</title>
<path fill="none" stroke="black" d="M272.87,-759.99C257.12,-749.54 236.89,-736.12 220.54,-725.27"/>
<polygon fill="black" stroke="black" points="222.18,-722.16 211.91,-719.55 218.31,-727.99 222.18,-722.16"/>
</g>
<!-- return_existing -->
<g id="node7" class="node">
<title>return_existing</title>
<polygon fill="none" stroke="black" points="227,-640 114,-640 114,-604 227,-604 227,-640"/>
<text text-anchor="middle" x="170.5" y="-619.5" font-family="Courier,monospace" font-size="10.00">Return .existing</text>
</g>
<!-- check_gop&#45;&gt;return_existing -->
<g id="edge7" class="edge">
<title>check_gop&#45;&gt;return_existing</title>
<path fill="none" stroke="black" d="M187.25,-687.61C184.46,-676.85 180.74,-662.51 177.52,-650.08"/>
<polygon fill="black" stroke="black" points="180.86,-649.01 174.96,-640.21 174.08,-650.76 180.86,-649.01"/>
<text text-anchor="middle" x="192" y="-661" font-family="Courier,monospace" font-size="10.00">Yes</text>
</g>
<!-- get_local -->
<g id="node8" class="node">
<title>get_local</title>
<polygon fill="none" stroke="black" points="358,-640 245,-640 245,-604 358,-604 358,-640"/>
<text text-anchor="middle" x="301.5" y="-619.5" font-family="Courier,monospace" font-size="10.00">ip.getLocal(tid)</text>
</g>
<!-- check_gop&#45;&gt;get_local -->
<g id="edge8" class="edge">
<title>check_gop&#45;&gt;get_local</title>
<path fill="none" stroke="black" d="M210.16,-690.26C226.5,-678.23 250.58,-660.49 269.92,-646.26"/>
<polygon fill="black" stroke="black" points="272.17,-648.94 278.15,-640.2 268.02,-643.31 272.17,-648.94"/>
<text text-anchor="middle" x="259" y="-661" font-family="Courier,monospace" font-size="10.00">No</text>
</g>
<!-- ensure_capacity -->
<g id="node9" class="node">
<title>ensure_capacity</title>
<polygon fill="none" stroke="black" points="397,-567 206,-567 206,-531 397,-531 397,-567"/>
<text text-anchor="middle" x="301.5" y="-546.5" font-family="Courier,monospace" font-size="10.00">items.ensureUnusedCapacity(1)</text>
</g>
<!-- get_local&#45;&gt;ensure_capacity -->
<g id="edge9" class="edge">
<title>get_local&#45;&gt;ensure_capacity</title>
<path fill="none" stroke="black" d="M301.5,-603.81C301.5,-595.79 301.5,-586.05 301.5,-577.07"/>
<polygon fill="black" stroke="black" points="305,-577.03 301.5,-567.03 298,-577.03 305,-577.03"/>
</g>
<!-- add_names_map -->
<g id="node10" class="node">
<title>add_names_map</title>
<polygon fill="none" stroke="black" points="415,-494 188,-494 188,-458 415,-458 415,-494"/>
<text text-anchor="middle" x="301.5" y="-473.5" font-family="Courier,monospace" font-size="10.00">ip.addMap(gpa, tid, ini.fields_len)</text>
</g>
<!-- ensure_capacity&#45;&gt;add_names_map -->
<g id="edge10" class="edge">
<title>ensure_capacity&#45;&gt;add_names_map</title>
<path fill="none" stroke="black" d="M301.5,-530.81C301.5,-522.79 301.5,-513.05 301.5,-504.07"/>
<polygon fill="black" stroke="black" points="305,-504.03 301.5,-494.03 298,-504.03 305,-504.03"/>
</g>
<!-- add_names_map&#45;&gt;add_names_map -->
<g id="edge23" class="edge">
<title>add_names_map&#45;&gt;add_names_map</title>
<path fill="none" stroke="red" stroke-dasharray="5,2" d="M415.12,-481.46C426.07,-480.35 433,-478.53 433,-476 433,-474.38 430.15,-473.05 425.23,-472.01"/>
<polygon fill="red" stroke="red" points="425.52,-468.52 415.12,-470.54 424.51,-475.44 425.52,-468.52"/>
<text text-anchor="middle" x="499.5" y="-473.5" font-family="Courier,monospace" font-size="10.00">errdefer maps.len &#45;= 1</text>
</g>
<!-- check_tag_mode -->
<g id="node11" class="node">
<title>check_tag_mode</title>
<polygon fill="none" stroke="black" points="301.5,-421 222.33,-403 301.5,-385 380.67,-403 301.5,-421"/>
<text text-anchor="middle" x="301.5" y="-400.5" font-family="Courier,monospace" font-size="10.00">ini.tag_mode?</text>
</g>
<!-- add_names_map&#45;&gt;check_tag_mode -->
<g id="edge11" class="edge">
<title>add_names_map&#45;&gt;check_tag_mode</title>
<path fill="none" stroke="black" d="M301.5,-457.81C301.5,-449.79 301.5,-440.05 301.5,-431.07"/>
<polygon fill="black" stroke="black" points="305,-431.03 301.5,-421.03 298,-431.03 305,-431.03"/>
</g>
<!-- handle_auto -->
<g id="node12" class="node">
<title>handle_auto</title>
<polygon fill="none" stroke="black" points="264,-338 187,-338 187,-302 264,-302 264,-338"/>
<text text-anchor="middle" x="225.5" y="-317.5" font-family="Courier,monospace" font-size="10.00">Case .auto</text>
</g>
<!-- check_tag_mode&#45;&gt;handle_auto -->
<g id="edge12" class="edge">
<title>check_tag_mode&#45;&gt;handle_auto</title>
<path fill="none" stroke="black" d="M288.26,-387.89C277.28,-376.19 261.42,-359.28 248.38,-345.39"/>
<polygon fill="black" stroke="black" points="250.88,-342.93 241.48,-338.04 245.77,-347.72 250.88,-342.93"/>
<text text-anchor="middle" x="283" y="-359" font-family="Courier,monospace" font-size="10.00">.auto</text>
</g>
<!-- handle_explicit -->
<g id="node13" class="node">
<title>handle_explicit</title>
<polygon fill="none" stroke="black" points="476,-338 285,-338 285,-302 476,-302 476,-338"/>
<text text-anchor="middle" x="380.5" y="-317.5" font-family="Courier,monospace" font-size="10.00">Case .explicit/.nonexhaustive</text>
</g>
<!-- check_tag_mode&#45;&gt;handle_explicit -->
<g id="edge13" class="edge">
<title>check_tag_mode&#45;&gt;handle_explicit</title>
<path fill="none" stroke="black" d="M315.26,-387.89C326.67,-376.19 343.17,-359.28 356.71,-345.39"/>
<polygon fill="black" stroke="black" points="359.41,-347.64 363.88,-338.04 354.4,-342.75 359.41,-347.64"/>
<text text-anchor="middle" x="418" y="-359" font-family="Courier,monospace" font-size="10.00">.explicit/.nonexhaustive</text>
</g>
<!-- add_enum_auto -->
<g id="node14" class="node">
<title>add_enum_auto</title>
<polygon fill="none" stroke="black" points="282,-265 139,-265 139,-229 282,-229 282,-265"/>
<text text-anchor="middle" x="210.5" y="-244.5" font-family="Courier,monospace" font-size="10.00">Add EnumAuto to extra</text>
</g>
<!-- handle_auto&#45;&gt;add_enum_auto -->
<g id="edge14" class="edge">
<title>handle_auto&#45;&gt;add_enum_auto</title>
<path fill="none" stroke="black" d="M221.87,-301.81C220.17,-293.79 218.12,-284.05 216.22,-275.07"/>
<polygon fill="black" stroke="black" points="219.59,-274.09 214.1,-265.03 212.74,-275.54 219.59,-274.09"/>
</g>
<!-- add_enum_explicit -->
<g id="node18" class="node">
<title>add_enum_explicit</title>
<polygon fill="none" stroke="black" points="479,-265 312,-265 312,-229 479,-229 479,-265"/>
<text text-anchor="middle" x="395.5" y="-244.5" font-family="Courier,monospace" font-size="10.00">Add EnumExplicit to extra</text>
</g>
<!-- handle_explicit&#45;&gt;add_enum_explicit -->
<g id="edge18" class="edge">
<title>handle_explicit&#45;&gt;add_enum_explicit</title>
<path fill="none" stroke="black" d="M384.13,-301.81C385.83,-293.79 387.88,-284.05 389.78,-275.07"/>
<polygon fill="black" stroke="black" points="393.26,-275.54 391.9,-265.03 386.41,-274.09 393.26,-275.54"/>
</g>
<!-- process_captures_auto -->
<g id="node15" class="node">
<title>process_captures_auto</title>
<polygon fill="none" stroke="black" points="272,-182 69,-182 69,-146 272,-146 272,-182"/>
<text text-anchor="middle" x="170.5" y="-161.5" font-family="Courier,monospace" font-size="10.00">Add captures/type_hash to extra</text>
</g>
<!-- add_enum_auto&#45;&gt;process_captures_auto -->
<g id="edge15" class="edge">
<title>add_enum_auto&#45;&gt;process_captures_auto</title>
<path fill="none" stroke="black" d="M202.02,-228.82C196.66,-217.98 189.63,-203.74 183.57,-191.47"/>
<polygon fill="black" stroke="black" points="186.54,-189.57 178.97,-182.15 180.26,-192.67 186.54,-189.57"/>
</g>
<!-- set_names_auto -->
<g id="node16" class="node">
<title>set_names_auto</title>
<polygon fill="none" stroke="black" points="229,-109 68,-109 68,-73 229,-73 229,-109"/>
<text text-anchor="middle" x="148.5" y="-88.5" font-family="Courier,monospace" font-size="10.00">Set names_start in extra</text>
</g>
<!-- process_captures_auto&#45;&gt;set_names_auto -->
<g id="edge16" class="edge">
<title>process_captures_auto&#45;&gt;set_names_auto</title>
<path fill="none" stroke="black" d="M165.17,-145.81C162.66,-137.7 159.6,-127.84 156.8,-118.78"/>
<polygon fill="black" stroke="black" points="160.08,-117.54 153.78,-109.03 153.39,-119.62 160.08,-117.54"/>
</g>
<!-- return_auto -->
<g id="node17" class="node">
<title>return_auto</title>
<polygon fill="none" stroke="black" points="258,-36 37,-36 37,0 258,0 258,-36"/>
<text text-anchor="middle" x="147.5" y="-15.5" font-family="Courier,monospace" font-size="10.00">Return WipEnumType.Result for auto</text>
</g>
<!-- set_names_auto&#45;&gt;return_auto -->
<g id="edge17" class="edge">
<title>set_names_auto&#45;&gt;return_auto</title>
<path fill="none" stroke="black" d="M148.26,-72.81C148.14,-64.79 148.01,-55.05 147.88,-46.07"/>
<polygon fill="black" stroke="black" points="151.38,-45.98 147.74,-36.03 144.38,-46.08 151.38,-45.98"/>
</g>
<!-- process_captures_explicit -->
<g id="node19" class="node">
<title>process_captures_explicit</title>
<polygon fill="none" stroke="black" points="497,-182 294,-182 294,-146 497,-146 497,-182"/>
<text text-anchor="middle" x="395.5" y="-161.5" font-family="Courier,monospace" font-size="10.00">Add captures/type_hash to extra</text>
</g>
<!-- add_enum_explicit&#45;&gt;process_captures_explicit -->
<g id="edge20" class="edge">
<title>add_enum_explicit&#45;&gt;process_captures_explicit</title>
<path fill="none" stroke="black" d="M395.5,-228.82C395.5,-218.19 395.5,-204.31 395.5,-192.2"/>
<polygon fill="black" stroke="black" points="399,-192.15 395.5,-182.15 392,-192.15 399,-192.15"/>
</g>
<!-- add_values_map -->
<g id="node20" class="node">
<title>add_values_map</title>
<polygon fill="none" stroke="black" points="700,-182 515,-182 515,-146 700,-146 700,-182"/>
<text text-anchor="middle" x="607.5" y="-161.5" font-family="Courier,monospace" font-size="10.00">Add values_map if has_values</text>
</g>
<!-- add_enum_explicit&#45;&gt;add_values_map -->
<g id="edge19" class="edge">
<title>add_enum_explicit&#45;&gt;add_values_map</title>
<path fill="none" stroke="black" d="M440.2,-228.92C473.18,-216.32 518.22,-199.11 553.26,-185.72"/>
<polygon fill="black" stroke="black" points="554.77,-188.89 562.86,-182.06 552.27,-182.36 554.77,-188.89"/>
<text text-anchor="middle" x="553" y="-203" font-family="Courier,monospace" font-size="10.00">if has_values</text>
</g>
<!-- set_names_values_explicit -->
<g id="node21" class="node">
<title>set_names_values_explicit</title>
<polygon fill="none" stroke="black" points="502,-109 293,-109 293,-73 502,-73 502,-109"/>
<text text-anchor="middle" x="397.5" y="-88.5" font-family="Courier,monospace" font-size="10.00">Set names_start and values_start</text>
</g>
<!-- process_captures_explicit&#45;&gt;set_names_values_explicit -->
<g id="edge21" class="edge">
<title>process_captures_explicit&#45;&gt;set_names_values_explicit</title>
<path fill="none" stroke="black" d="M395.98,-145.81C396.21,-137.79 396.48,-128.05 396.74,-119.07"/>
<polygon fill="black" stroke="black" points="400.24,-119.12 397.02,-109.03 393.24,-118.93 400.24,-119.12"/>
</g>
<!-- add_values_map&#45;&gt;add_values_map -->
<g id="edge24" class="edge">
<title>add_values_map&#45;&gt;add_values_map</title>
<path fill="none" stroke="red" stroke-dasharray="5,2" d="M700.2,-169.76C710.98,-168.7 718,-166.78 718,-164 718,-162.22 715.12,-160.79 710.22,-159.72"/>
<polygon fill="red" stroke="red" points="710.61,-156.24 700.2,-158.24 709.58,-163.16 710.61,-156.24"/>
<text text-anchor="middle" x="784.5" y="-161.5" font-family="Courier,monospace" font-size="10.00">errdefer maps.len &#45;= 1</text>
</g>
<!-- return_explicit -->
<g id="node22" class="node">
<title>return_explicit</title>
<polygon fill="none" stroke="black" points="521,-36 276,-36 276,0 521,0 521,-36"/>
<text text-anchor="middle" x="398.5" y="-15.5" font-family="Courier,monospace" font-size="10.00">Return WipEnumType.Result for explicit</text>
</g>
<!-- set_names_values_explicit&#45;&gt;return_explicit -->
<g id="edge22" class="edge">
<title>set_names_values_explicit&#45;&gt;return_explicit</title>
<path fill="none" stroke="black" d="M397.74,-72.81C397.86,-64.79 397.99,-55.05 398.12,-46.07"/>
<polygon fill="black" stroke="black" points="401.62,-46.08 398.26,-36.03 394.62,-45.98 401.62,-46.08"/>
</g>
</g>
</svg>
