<?xml version="1.0" encoding="UTF-8" standalone="no"?>
<!DOCTYPE svg PUBLIC "-//W3C//DTD SVG 1.1//EN"
 "http://www.w3.org/Graphics/SVG/1.1/DTD/svg11.dtd">
<!-- Generated by graphviz version 2.43.0 (0)
 -->
<!-- Title: flowchart Pages: 1 -->
<svg width="854pt" height="1280pt"
 viewBox="0.00 0.00 854.00 1280.00" xmlns="http://www.w3.org/2000/svg" xmlns:xlink="http://www.w3.org/1999/xlink">
<g id="graph0" class="graph" transform="scale(1 1) rotate(0) translate(4 1276)">
<title>flowchart</title>
<polygon fill="white" stroke="transparent" points="-4,4 -4,-1276 850,-1276 850,4 -4,4"/>
<!-- start -->
<g id="node1" class="node">
<title>start</title>
<path fill="none" stroke="black" d="M216.5,-1272C216.5,-1272 98.5,-1272 98.5,-1272 92.5,-1272 86.5,-1266 86.5,-1260 86.5,-1260 86.5,-1248 86.5,-1248 86.5,-1242 92.5,-1236 98.5,-1236 98.5,-1236 216.5,-1236 216.5,-1236 222.5,-1236 228.5,-1242 228.5,-1248 228.5,-1248 228.5,-1260 228.5,-1260 228.5,-1266 222.5,-1272 216.5,-1272"/>
<text text-anchor="middle" x="157.5" y="-1250.3" font-family="Arial" font-size="14.00">开始 getFuncDeclIes</text>
</g>
<!-- validate_input -->
<g id="node2" class="node">
<title>validate_input</title>
<path fill="none" stroke="black" d="M303,-1199C303,-1199 12,-1199 12,-1199 6,-1199 0,-1193 0,-1187 0,-1187 0,-1173 0,-1173 0,-1167 6,-1161 12,-1161 12,-1161 303,-1161 303,-1161 309,-1161 315,-1167 315,-1173 315,-1173 315,-1187 315,-1187 315,-1193 309,-1199 303,-1199"/>
<text text-anchor="middle" x="157.5" y="-1183.8" font-family="Arial" font-size="14.00">验证输入参数</text>
<text text-anchor="middle" x="157.5" y="-1168.8" font-family="Arial" font-size="14.00">assert(bare_return_type和所有param_types非空)</text>
</g>
<!-- start&#45;&gt;validate_input -->
<g id="edge1" class="edge">
<title>start&#45;&gt;validate_input</title>
<path fill="none" stroke="black" d="M157.5,-1235.94C157.5,-1227.99 157.5,-1218.31 157.5,-1209.31"/>
<polygon fill="black" stroke="black" points="161,-1209.2 157.5,-1199.2 154,-1209.2 161,-1209.2"/>
</g>
<!-- get_local -->
<g id="node3" class="node">
<title>get_local</title>
<path fill="none" stroke="black" d="M220,-1124C220,-1124 95,-1124 95,-1124 89,-1124 83,-1118 83,-1112 83,-1112 83,-1098 83,-1098 83,-1092 89,-1086 95,-1086 95,-1086 220,-1086 220,-1086 226,-1086 232,-1092 232,-1098 232,-1098 232,-1112 232,-1112 232,-1118 226,-1124 220,-1124"/>
<text text-anchor="middle" x="157.5" y="-1108.8" font-family="Arial" font-size="14.00">获取本地线程数据</text>
<text text-anchor="middle" x="157.5" y="-1093.8" font-family="Arial" font-size="14.00">local = ip.getLocal(tid)</text>
</g>
<!-- validate_input&#45;&gt;get_local -->
<g id="edge2" class="edge">
<title>validate_input&#45;&gt;get_local</title>
<path fill="none" stroke="black" d="M157.5,-1160.96C157.5,-1152.88 157.5,-1143.18 157.5,-1134.18"/>
<polygon fill="black" stroke="black" points="161,-1134.09 157.5,-1124.09 154,-1134.09 161,-1134.09"/>
</g>
<!-- ensure_capacity -->
<g id="node4" class="node">
<title>ensure_capacity</title>
<path fill="none" stroke="black" d="M260,-1049C260,-1049 55,-1049 55,-1049 49,-1049 43,-1043 43,-1037 43,-1037 43,-1008 43,-1008 43,-1002 49,-996 55,-996 55,-996 260,-996 260,-996 266,-996 272,-1002 272,-1008 272,-1008 272,-1037 272,-1037 272,-1043 266,-1049 260,-1049"/>
<text text-anchor="middle" x="157.5" y="-1033.8" font-family="Arial" font-size="14.00">确保items和extra容量</text>
<text text-anchor="middle" x="157.5" y="-1018.8" font-family="Arial" font-size="14.00">try items.ensureUnusedCapacity(4)</text>
<text text-anchor="middle" x="157.5" y="-1003.8" font-family="Arial" font-size="14.00">确保extra容量</text>
</g>
<!-- get_local&#45;&gt;ensure_capacity -->
<g id="edge3" class="edge">
<title>get_local&#45;&gt;ensure_capacity</title>
<path fill="none" stroke="black" d="M157.5,-1085.73C157.5,-1077.85 157.5,-1068.34 157.5,-1059.15"/>
<polygon fill="black" stroke="black" points="161,-1059.02 157.5,-1049.02 154,-1059.02 161,-1059.02"/>
</g>
<!-- prepare_indices -->
<g id="node5" class="node">
<title>prepare_indices</title>
<path fill="none" stroke="black" d="M356,-959C356,-959 185,-959 185,-959 179,-959 173,-953 173,-947 173,-947 173,-918 173,-918 173,-912 179,-906 185,-906 185,-906 356,-906 356,-906 362,-906 368,-912 368,-918 368,-918 368,-947 368,-947 368,-953 362,-959 356,-959"/>
<text text-anchor="middle" x="270.5" y="-943.8" font-family="Arial" font-size="14.00">准备索引</text>
<text text-anchor="middle" x="270.5" y="-928.8" font-family="Arial" font-size="14.00">func_index, error_union_type,</text>
<text text-anchor="middle" x="270.5" y="-913.8" font-family="Arial" font-size="14.00">error_set_type, func_ty</text>
</g>
<!-- ensure_capacity&#45;&gt;prepare_indices -->
<g id="edge4" class="edge">
<title>ensure_capacity&#45;&gt;prepare_indices</title>
<path fill="none" stroke="black" d="M190.49,-995.81C202.67,-986.32 216.63,-975.45 229.44,-965.47"/>
<polygon fill="black" stroke="black" points="231.93,-967.98 237.67,-959.07 227.63,-962.45 231.93,-967.98"/>
</g>
<!-- errdefer_block -->
<g id="node9" class="node">
<title>errdefer_block</title>
<path fill="none" stroke="black" d="M479,-111C479,-111 352,-111 352,-111 346,-111 340,-105 340,-99 340,-99 340,-85 340,-85 340,-79 346,-73 352,-73 352,-73 479,-73 479,-73 485,-73 491,-79 491,-85 491,-85 491,-99 491,-99 491,-105 485,-111 479,-111"/>
<text text-anchor="middle" x="415.5" y="-95.8" font-family="Arial" font-size="14.00">errdefer回滚操作</text>
<text text-anchor="middle" x="415.5" y="-80.8" font-family="Arial" font-size="14.00">items和extra长度复原</text>
</g>
<!-- ensure_capacity&#45;&gt;errdefer_block -->
<g id="edge19" class="edge">
<title>ensure_capacity&#45;&gt;errdefer_block</title>
<path fill="none" stroke="red" stroke-dasharray="5,2" d="M152.13,-995.83C148.94,-978.34 145.5,-954.62 145.5,-933.5 145.5,-933.5 145.5,-933.5 145.5,-180 145.5,-140.62 250.85,-116.49 329.94,-103.93"/>
<polygon fill="red" stroke="red" points="330.59,-107.37 339.93,-102.38 329.51,-100.45 330.59,-107.37"/>
<text text-anchor="middle" x="174.5" y="-561.8" font-family="Arial" font-size="14.00">分配失败</text>
</g>
<!-- add_func_decl -->
<g id="node6" class="node">
<title>add_func_decl</title>
<path fill="none" stroke="black" d="M346,-869C346,-869 195,-869 195,-869 189,-869 183,-863 183,-857 183,-857 183,-843 183,-843 183,-837 189,-831 195,-831 195,-831 346,-831 346,-831 352,-831 358,-837 358,-843 358,-843 358,-857 358,-857 358,-863 352,-869 346,-869"/>
<text text-anchor="middle" x="270.5" y="-853.8" font-family="Arial" font-size="14.00">向extra添加FuncDecl信息</text>
<text text-anchor="middle" x="270.5" y="-838.8" font-family="Arial" font-size="14.00">func_decl_extra_index</text>
</g>
<!-- prepare_indices&#45;&gt;add_func_decl -->
<g id="edge5" class="edge">
<title>prepare_indices&#45;&gt;add_func_decl</title>
<path fill="none" stroke="black" d="M270.5,-905.59C270.5,-897.31 270.5,-888.11 270.5,-879.65"/>
<polygon fill="black" stroke="black" points="274,-879.47 270.5,-869.47 267,-879.47 274,-879.47"/>
</g>
<!-- add_func_type -->
<g id="node7" class="node">
<title>add_func_type</title>
<path fill="none" stroke="black" d="M434,-794C434,-794 259,-794 259,-794 253,-794 247,-788 247,-782 247,-782 247,-768 247,-768 247,-762 253,-756 259,-756 259,-756 434,-756 434,-756 440,-756 446,-762 446,-768 446,-768 446,-782 446,-782 446,-788 440,-794 434,-794"/>
<text text-anchor="middle" x="346.5" y="-778.8" font-family="Arial" font-size="14.00">向extra添加TypeFunction信息</text>
<text text-anchor="middle" x="346.5" y="-763.8" font-family="Arial" font-size="14.00">func_type_extra_index</text>
</g>
<!-- add_func_decl&#45;&gt;add_func_type -->
<g id="edge6" class="edge">
<title>add_func_decl&#45;&gt;add_func_type</title>
<path fill="none" stroke="black" d="M289.29,-830.96C298.6,-822.01 310.01,-811.05 320.18,-801.28"/>
<polygon fill="black" stroke="black" points="322.88,-803.54 327.67,-794.09 318.03,-798.49 322.88,-803.54"/>
</g>
<!-- add_func_decl&#45;&gt;errdefer_block -->
<g id="edge20" class="edge">
<title>add_func_decl&#45;&gt;errdefer_block</title>
<path fill="none" stroke="red" stroke-dasharray="5,2" d="M247.84,-830.75C233.83,-817.29 218.5,-797.63 218.5,-776 218.5,-776 218.5,-776 218.5,-180 218.5,-128.02 276.61,-106.84 329.71,-98.33"/>
<polygon fill="red" stroke="red" points="330.51,-101.75 339.9,-96.84 329.5,-94.83 330.51,-101.75"/>
<text text-anchor="middle" x="247.5" y="-474.8" font-family="Arial" font-size="14.00">添加失败</text>
</g>
<!-- append_items -->
<g id="node8" class="node">
<title>append_items</title>
<path fill="none" stroke="black" d="M553,-719C553,-719 332,-719 332,-719 326,-719 320,-713 320,-707 320,-707 320,-678 320,-678 320,-672 326,-666 332,-666 332,-666 553,-666 553,-666 559,-666 565,-672 565,-678 565,-678 565,-707 565,-707 565,-713 559,-719 553,-719"/>
<text text-anchor="middle" x="442.5" y="-703.8" font-family="Arial" font-size="14.00">向items追加4个元素</text>
<text text-anchor="middle" x="442.5" y="-688.8" font-family="Arial" font-size="14.00">func_decl, type_error_union,</text>
<text text-anchor="middle" x="442.5" y="-673.8" font-family="Arial" font-size="14.00">type_inferred_error_set, type_function</text>
</g>
<!-- add_func_type&#45;&gt;append_items -->
<g id="edge7" class="edge">
<title>add_func_type&#45;&gt;append_items</title>
<path fill="none" stroke="black" d="M368.28,-755.73C378.9,-746.83 391.99,-735.85 404.2,-725.61"/>
<polygon fill="black" stroke="black" points="406.66,-728.12 412.07,-719.02 402.16,-722.76 406.66,-728.12"/>
</g>
<!-- add_func_type&#45;&gt;errdefer_block -->
<g id="edge21" class="edge">
<title>add_func_type&#45;&gt;errdefer_block</title>
<path fill="none" stroke="red" stroke-dasharray="5,2" d="M324.76,-755.87C309.39,-740.92 291.5,-718.21 291.5,-693.5 291.5,-693.5 291.5,-693.5 291.5,-180 291.5,-149.64 316.72,-128.97 344.41,-115.42"/>
<polygon fill="red" stroke="red" points="346.23,-118.44 353.86,-111.1 343.31,-112.08 346.23,-118.44"/>
<text text-anchor="middle" x="320.5" y="-430.3" font-family="Arial" font-size="14.00">添加失败</text>
</g>
<!-- append_items&#45;&gt;errdefer_block -->
<g id="edge8" class="edge">
<title>append_items&#45;&gt;errdefer_block</title>
<path fill="none" stroke="black" stroke-dasharray="1,5" d="M406.96,-665.73C391.78,-651.59 377.5,-632.56 377.5,-611 377.5,-611 377.5,-611 377.5,-180 377.5,-158.44 387.42,-136.21 397.12,-119.61"/>
<polygon fill="black" stroke="black" points="400.15,-121.36 402.42,-111.01 394.19,-117.69 400.15,-121.36"/>
</g>
<!-- append_items&#45;&gt;errdefer_block -->
<g id="edge22" class="edge">
<title>append_items&#45;&gt;errdefer_block</title>
<path fill="none" stroke="red" stroke-dasharray="5,2" d="M429.16,-665.76C422.36,-650.31 415.5,-630.02 415.5,-611 415.5,-611 415.5,-611 415.5,-180 415.5,-160.55 415.5,-138.65 415.5,-121.69"/>
<polygon fill="red" stroke="red" points="419,-121.33 415.5,-111.33 412,-121.33 419,-121.33"/>
<text text-anchor="middle" x="444.5" y="-385.8" font-family="Arial" font-size="14.00">追加失败</text>
</g>
<!-- get_or_put_func -->
<g id="node10" class="node">
<title>get_or_put_func</title>
<path fill="none" stroke="black" d="M605,-629C605,-629 456,-629 456,-629 450,-629 444,-623 444,-617 444,-617 444,-603 444,-603 444,-597 450,-591 456,-591 456,-591 605,-591 605,-591 611,-591 617,-597 617,-603 617,-603 617,-617 617,-617 617,-623 611,-629 605,-629"/>
<text text-anchor="middle" x="530.5" y="-613.8" font-family="Arial" font-size="14.00">尝试获取或插入func条目</text>
<text text-anchor="middle" x="530.5" y="-598.8" font-family="Arial" font-size="14.00">ip.getOrPutKeyEnsuring...</text>
</g>
<!-- append_items&#45;&gt;get_or_put_func -->
<g id="edge9" class="edge">
<title>append_items&#45;&gt;get_or_put_func</title>
<path fill="none" stroke="black" d="M470.83,-665.59C481.16,-656.14 492.81,-645.47 503.06,-636.1"/>
<polygon fill="black" stroke="black" points="505.57,-638.55 510.58,-629.22 500.84,-633.39 505.57,-638.55"/>
</g>
<!-- get_or_put_func&#45;&gt;errdefer_block -->
<g id="edge23" class="edge">
<title>get_or_put_func&#45;&gt;errdefer_block</title>
<path fill="none" stroke="red" stroke-dasharray="5,2" d="M527.1,-590.9C512.74,-514.7 456.48,-219.7 429.5,-129 428.68,-126.23 427.73,-123.37 426.73,-120.53"/>
<polygon fill="red" stroke="red" points="429.99,-119.25 423.21,-111.11 423.43,-121.71 429.99,-119.25"/>
<text text-anchor="middle" x="498" y="-341.3" font-family="Arial" font-size="14.00">失败</text>
</g>
<!-- check_existing -->
<g id="node11" class="node">
<title>check_existing</title>
<path fill="none" stroke="black" d="M650,-540C650,-540 543,-540 543,-540 537,-540 531,-534 531,-528 531,-528 531,-516 531,-516 531,-510 537,-504 543,-504 543,-504 650,-504 650,-504 656,-504 662,-510 662,-516 662,-516 662,-528 662,-528 662,-534 656,-540 650,-540"/>
<text text-anchor="middle" x="596.5" y="-518.3" font-family="Arial" font-size="14.00">检查是否已存在？</text>
</g>
<!-- get_or_put_func&#45;&gt;check_existing -->
<g id="edge10" class="edge">
<title>get_or_put_func&#45;&gt;check_existing</title>
<path fill="none" stroke="black" d="M544.5,-590.76C554.02,-578.35 566.75,-561.76 577.23,-548.1"/>
<polygon fill="black" stroke="black" points="580.11,-550.11 583.42,-540.04 574.56,-545.84 580.11,-550.11"/>
</g>
<!-- rollback_existing -->
<g id="node12" class="node">
<title>rollback_existing</title>
<path fill="none" stroke="black" d="M834,-453C834,-453 707,-453 707,-453 701,-453 695,-447 695,-441 695,-441 695,-427 695,-427 695,-421 701,-415 707,-415 707,-415 834,-415 834,-415 840,-415 846,-421 846,-427 846,-427 846,-441 846,-441 846,-447 840,-453 834,-453"/>
<text text-anchor="middle" x="770.5" y="-437.8" font-family="Arial" font-size="14.00">回滚items和extra长度</text>
<text text-anchor="middle" x="770.5" y="-422.8" font-family="Arial" font-size="14.00">更新zir_body_inst</text>
</g>
<!-- check_existing&#45;&gt;rollback_existing -->
<g id="edge11" class="edge">
<title>check_existing&#45;&gt;rollback_existing</title>
<path fill="none" stroke="black" d="M631.29,-503.8C658.14,-490.53 695.51,-472.06 724.78,-457.6"/>
<polygon fill="black" stroke="black" points="726.55,-460.62 733.97,-453.06 723.45,-454.35 726.55,-460.62"/>
<text text-anchor="middle" x="708" y="-474.8" font-family="Arial" font-size="14.00">存在</text>
</g>
<!-- put_tentative -->
<g id="node14" class="node">
<title>put_tentative</title>
<path fill="none" stroke="black" d="M664.5,-453C664.5,-453 528.5,-453 528.5,-453 522.5,-453 516.5,-447 516.5,-441 516.5,-441 516.5,-427 516.5,-427 516.5,-421 522.5,-415 528.5,-415 528.5,-415 664.5,-415 664.5,-415 670.5,-415 676.5,-421 676.5,-427 676.5,-427 676.5,-441 676.5,-441 676.5,-447 670.5,-453 664.5,-453"/>
<text text-anchor="middle" x="596.5" y="-437.8" font-family="Arial" font-size="14.00">暂存新索引</text>
<text text-anchor="middle" x="596.5" y="-422.8" font-family="Arial" font-size="14.00">func_gop.putTentative...</text>
</g>
<!-- check_existing&#45;&gt;put_tentative -->
<g id="edge13" class="edge">
<title>check_existing&#45;&gt;put_tentative</title>
<path fill="none" stroke="black" d="M596.5,-503.6C596.5,-492.06 596.5,-476.65 596.5,-463.36"/>
<polygon fill="black" stroke="black" points="600,-463.27 596.5,-453.27 593,-463.27 600,-463.27"/>
<text text-anchor="middle" x="618" y="-474.8" font-family="Arial" font-size="14.00">不存在</text>
</g>
<!-- return_existing -->
<g id="node13" class="node">
<title>return_existing</title>
<path fill="none" stroke="black" d="M818,-363C818,-363 723,-363 723,-363 717,-363 711,-357 711,-351 711,-351 711,-339 711,-339 711,-333 717,-327 723,-327 723,-327 818,-327 818,-327 824,-327 830,-333 830,-339 830,-339 830,-351 830,-351 830,-357 824,-363 818,-363"/>
<text text-anchor="middle" x="770.5" y="-341.3" font-family="Arial" font-size="14.00">返回existing索引</text>
</g>
<!-- rollback_existing&#45;&gt;return_existing -->
<g id="edge12" class="edge">
<title>rollback_existing&#45;&gt;return_existing</title>
<path fill="none" stroke="black" d="M770.5,-414.97C770.5,-402.96 770.5,-386.93 770.5,-373.36"/>
<polygon fill="black" stroke="black" points="774,-373.12 770.5,-363.12 767,-373.12 774,-373.12"/>
</g>
<!-- handle_error_union -->
<g id="node15" class="node">
<title>handle_error_union</title>
<path fill="none" stroke="black" d="M658,-364C658,-364 535,-364 535,-364 529,-364 523,-358 523,-352 523,-352 523,-338 523,-338 523,-332 529,-326 535,-326 535,-326 658,-326 658,-326 664,-326 670,-332 670,-338 670,-338 670,-352 670,-352 670,-358 664,-364 658,-364"/>
<text text-anchor="middle" x="596.5" y="-348.8" font-family="Arial" font-size="14.00">处理error_union_type</text>
<text text-anchor="middle" x="596.5" y="-333.8" font-family="Arial" font-size="14.00">获取或插入条目</text>
</g>
<!-- put_tentative&#45;&gt;handle_error_union -->
<g id="edge14" class="edge">
<title>put_tentative&#45;&gt;handle_error_union</title>
<path fill="none" stroke="black" d="M596.5,-414.97C596.5,-403.19 596.5,-387.56 596.5,-374.16"/>
<polygon fill="black" stroke="black" points="600,-374 596.5,-364 593,-374 600,-374"/>
</g>
<!-- handle_error_union&#45;&gt;errdefer_block -->
<g id="edge24" class="edge">
<title>handle_error_union&#45;&gt;errdefer_block</title>
<path fill="none" stroke="red" stroke-dasharray="5,2" d="M565.9,-325.98C552.32,-316.55 537.24,-303.86 527.5,-289 487.14,-227.42 530.58,-186.43 484.5,-129 480.82,-124.41 476.39,-120.34 471.58,-116.74"/>
<polygon fill="red" stroke="red" points="473.44,-113.78 463.18,-111.14 469.55,-119.6 473.44,-113.78"/>
<text text-anchor="middle" x="524" y="-221.8" font-family="Arial" font-size="14.00">失败</text>
</g>
<!-- handle_error_set -->
<g id="node16" class="node">
<title>handle_error_set</title>
<path fill="none" stroke="black" d="M656.5,-289C656.5,-289 548.5,-289 548.5,-289 542.5,-289 536.5,-283 536.5,-277 536.5,-277 536.5,-263 536.5,-263 536.5,-257 542.5,-251 548.5,-251 548.5,-251 656.5,-251 656.5,-251 662.5,-251 668.5,-257 668.5,-263 668.5,-263 668.5,-277 668.5,-277 668.5,-283 662.5,-289 656.5,-289"/>
<text text-anchor="middle" x="602.5" y="-273.8" font-family="Arial" font-size="14.00">处理error_set_type</text>
<text text-anchor="middle" x="602.5" y="-258.8" font-family="Arial" font-size="14.00">获取或插入条目</text>
</g>
<!-- handle_error_union&#45;&gt;handle_error_set -->
<g id="edge15" class="edge">
<title>handle_error_union&#45;&gt;handle_error_set</title>
<path fill="none" stroke="black" d="M597.98,-325.96C598.65,-317.88 599.44,-308.18 600.18,-299.18"/>
<polygon fill="black" stroke="black" points="603.68,-299.34 601.01,-289.09 596.71,-298.77 603.68,-299.34"/>
</g>
<!-- handle_error_set&#45;&gt;errdefer_block -->
<g id="edge25" class="edge">
<title>handle_error_set&#45;&gt;errdefer_block</title>
<path fill="none" stroke="red" stroke-dasharray="5,2" d="M592.25,-250.87C570.96,-213.25 523.84,-130.1 522.5,-129 515.79,-123.48 508.2,-118.8 500.23,-114.82"/>
<polygon fill="red" stroke="red" points="501.64,-111.62 491.09,-110.63 498.72,-117.98 501.64,-111.62"/>
<text text-anchor="middle" x="578" y="-177.3" font-family="Arial" font-size="14.00">失败</text>
</g>
<!-- handle_func_ty -->
<g id="node17" class="node">
<title>handle_func_ty</title>
<path fill="none" stroke="black" d="M705.5,-200C705.5,-200 613.5,-200 613.5,-200 607.5,-200 601.5,-194 601.5,-188 601.5,-188 601.5,-174 601.5,-174 601.5,-168 607.5,-162 613.5,-162 613.5,-162 705.5,-162 705.5,-162 711.5,-162 717.5,-168 717.5,-174 717.5,-174 717.5,-188 717.5,-188 717.5,-194 711.5,-200 705.5,-200"/>
<text text-anchor="middle" x="659.5" y="-184.8" font-family="Arial" font-size="14.00">处理func_ty</text>
<text text-anchor="middle" x="659.5" y="-169.8" font-family="Arial" font-size="14.00">获取或插入条目</text>
</g>
<!-- handle_error_set&#45;&gt;handle_func_ty -->
<g id="edge16" class="edge">
<title>handle_error_set&#45;&gt;handle_func_ty</title>
<path fill="none" stroke="black" d="M614.31,-250.97C622.34,-238.73 633.09,-222.32 642.09,-208.58"/>
<polygon fill="black" stroke="black" points="645.15,-210.29 647.7,-200 639.3,-206.45 645.15,-210.29"/>
</g>
<!-- handle_func_ty&#45;&gt;errdefer_block -->
<g id="edge26" class="edge">
<title>handle_func_ty&#45;&gt;errdefer_block</title>
<path fill="none" stroke="red" stroke-dasharray="5,2" d="M631.81,-161.79C614.28,-150.95 590.78,-137.67 568.5,-129 547.12,-120.68 523.29,-113.95 500.91,-108.65"/>
<polygon fill="red" stroke="red" points="501.62,-105.22 491.09,-106.39 500.05,-112.04 501.62,-105.22"/>
<text text-anchor="middle" x="615" y="-132.8" font-family="Arial" font-size="14.00">失败</text>
</g>
<!-- finalize_entries -->
<g id="node18" class="node">
<title>finalize_entries</title>
<path fill="none" stroke="black" d="M715,-111C715,-111 604,-111 604,-111 598,-111 592,-105 592,-99 592,-99 592,-85 592,-85 592,-79 598,-73 604,-73 604,-73 715,-73 715,-73 721,-73 727,-79 727,-85 727,-85 727,-99 727,-99 727,-105 721,-111 715,-111"/>
<text text-anchor="middle" x="659.5" y="-95.8" font-family="Arial" font-size="14.00">确认所有新条目</text>
<text text-anchor="middle" x="659.5" y="-80.8" font-family="Arial" font-size="14.00">func_gop.putFinal...</text>
</g>
<!-- handle_func_ty&#45;&gt;finalize_entries -->
<g id="edge17" class="edge">
<title>handle_func_ty&#45;&gt;finalize_entries</title>
<path fill="none" stroke="black" d="M659.5,-161.97C659.5,-150.19 659.5,-134.56 659.5,-121.16"/>
<polygon fill="black" stroke="black" points="663,-121 659.5,-111 656,-121 663,-121"/>
</g>
<!-- return_new -->
<g id="node19" class="node">
<title>return_new</title>
<path fill="none" stroke="black" d="M710,-36C710,-36 609,-36 609,-36 603,-36 597,-30 597,-24 597,-24 597,-12 597,-12 597,-6 603,0 609,0 609,0 710,0 710,0 716,0 722,-6 722,-12 722,-12 722,-24 722,-24 722,-30 716,-36 710,-36"/>
<text text-anchor="middle" x="659.5" y="-14.3" font-family="Arial" font-size="14.00">返回新func_index</text>
</g>
<!-- finalize_entries&#45;&gt;return_new -->
<g id="edge18" class="edge">
<title>finalize_entries&#45;&gt;return_new</title>
<path fill="none" stroke="black" d="M659.5,-72.83C659.5,-64.89 659.5,-55.41 659.5,-46.63"/>
<polygon fill="black" stroke="black" points="663,-46.42 659.5,-36.42 656,-46.42 663,-46.42"/>
</g>
</g>
</svg>
