<?xml version="1.0" encoding="UTF-8" standalone="no"?>
<!DOCTYPE svg PUBLIC "-//W3C//DTD SVG 1.1//EN"
 "http://www.w3.org/Graphics/SVG/1.1/DTD/svg11.dtd">
<!-- Generated by graphviz version 2.43.0 (0)
 -->
<!-- Title: buildLibCxxAbi Pages: 1 -->
<svg width="1000pt" height="1310pt"
 viewBox="0.00 0.00 1000.00 1309.71" xmlns="http://www.w3.org/2000/svg" xmlns:xlink="http://www.w3.org/1999/xlink">
<g id="graph0" class="graph" transform="scale(1 1) rotate(0) translate(4 1305.71)">
<title>buildLibCxxAbi</title>
<polygon fill="white" stroke="transparent" points="-4,4 -4,-1305.71 996,-1305.71 996,4 -4,4"/>
<!-- start -->
<g id="node1" class="node">
<title>start</title>
<polygon fill="none" stroke="black" points="269.5,-1301.71 144.5,-1301.71 144.5,-1265.71 269.5,-1265.71 269.5,-1301.71"/>
<text text-anchor="middle" x="207" y="-1281.21" font-family="Courier,monospace" font-size="10.00">开始 buildLibCxxAbi</text>
</g>
<!-- check_llvm -->
<g id="node2" class="node">
<title>check_llvm</title>
<polygon fill="none" stroke="black" points="271,-1228.71 143,-1228.71 143,-1192.71 271,-1192.71 271,-1228.71"/>
<text text-anchor="middle" x="207" y="-1208.21" font-family="Courier,monospace" font-size="10.00">检查是否启用了LLVM扩展</text>
</g>
<!-- start&#45;&gt;check_llvm -->
<g id="edge1" class="edge">
<title>start&#45;&gt;check_llvm</title>
<path fill="none" stroke="black" d="M207,-1265.52C207,-1257.5 207,-1247.75 207,-1238.77"/>
<polygon fill="black" stroke="black" points="210.5,-1238.73 207,-1228.73 203.5,-1238.73 210.5,-1238.73"/>
</g>
<!-- error_llvm -->
<g id="node3" class="node">
<title>error_llvm</title>
<ellipse fill="none" stroke="black" cx="169" cy="-1124.49" rx="169" ry="21.43"/>
<text text-anchor="middle" x="169" y="-1127.49" font-family="Courier,monospace" font-size="10.00">返回错误</text>
<text text-anchor="middle" x="169" y="-1116.49" font-family="Courier,monospace" font-size="10.00">ZigCompilerNotBuiltWithLLVMExtensions</text>
</g>
<!-- check_llvm&#45;&gt;error_llvm -->
<g id="edge2" class="edge">
<title>check_llvm&#45;&gt;error_llvm</title>
<path fill="none" stroke="black" d="M199.31,-1192.66C194.44,-1181.86 188,-1167.6 182.31,-1155"/>
<polygon fill="black" stroke="black" points="185.45,-1153.45 178.15,-1145.77 179.07,-1156.33 185.45,-1153.45"/>
<text text-anchor="middle" x="218" y="-1166.71" font-family="Courier,monospace" font-size="10.00">未启用LLVM</text>
</g>
<!-- init_tracing -->
<g id="node4" class="node">
<title>init_tracing</title>
<polygon fill="none" stroke="black" points="440.5,-1142.49 355.5,-1142.49 355.5,-1106.49 440.5,-1106.49 440.5,-1142.49"/>
<text text-anchor="middle" x="398" y="-1121.99" font-family="Courier,monospace" font-size="10.00">初始化性能追踪</text>
</g>
<!-- check_llvm&#45;&gt;init_tracing -->
<g id="edge3" class="edge">
<title>check_llvm&#45;&gt;init_tracing</title>
<path fill="none" stroke="black" d="M245.65,-1192.66C275.81,-1179.37 317.86,-1160.82 350.15,-1146.59"/>
<polygon fill="black" stroke="black" points="351.67,-1149.75 359.4,-1142.51 348.84,-1143.34 351.67,-1149.75"/>
<text text-anchor="middle" x="336" y="-1166.71" font-family="Courier,monospace" font-size="10.00">已启用LLVM</text>
</g>
<!-- init_arena -->
<g id="node5" class="node">
<title>init_arena</title>
<polygon fill="none" stroke="black" points="445.5,-1066.28 350.5,-1066.28 350.5,-1030.28 445.5,-1030.28 445.5,-1066.28"/>
<text text-anchor="middle" x="398" y="-1045.78" font-family="Courier,monospace" font-size="10.00">初始化内存分配器</text>
</g>
<!-- init_tracing&#45;&gt;init_arena -->
<g id="edge4" class="edge">
<title>init_tracing&#45;&gt;init_arena</title>
<path fill="none" stroke="black" d="M398,-1106.28C398,-1097.48 398,-1086.55 398,-1076.63"/>
<polygon fill="black" stroke="black" points="401.5,-1076.4 398,-1066.4 394.5,-1076.4 401.5,-1076.4"/>
</g>
<!-- setup_basename -->
<g id="node6" class="node">
<title>setup_basename</title>
<polygon fill="none" stroke="black" points="455,-993.28 341,-993.28 341,-957.28 455,-957.28 455,-993.28"/>
<text text-anchor="middle" x="398" y="-972.78" font-family="Courier,monospace" font-size="10.00">设置输出文件名和路径</text>
</g>
<!-- init_arena&#45;&gt;setup_basename -->
<g id="edge5" class="edge">
<title>init_arena&#45;&gt;setup_basename</title>
<path fill="none" stroke="black" d="M398,-1030.09C398,-1022.07 398,-1012.33 398,-1003.35"/>
<polygon fill="black" stroke="black" points="401.5,-1003.31 398,-993.31 394.5,-1003.31 401.5,-1003.31"/>
</g>
<!-- handle_includes -->
<g id="node7" class="node">
<title>handle_includes</title>
<polygon fill="none" stroke="black" points="444.5,-920.28 351.5,-920.28 351.5,-884.28 444.5,-884.28 444.5,-920.28"/>
<text text-anchor="middle" x="398" y="-905.28" font-family="Courier,monospace" font-size="10.00">处理头文件路径</text>
<text text-anchor="middle" x="398" y="-894.28" font-family="Courier,monospace" font-size="10.00">设置ABI版本参数</text>
</g>
<!-- setup_basename&#45;&gt;handle_includes -->
<g id="edge6" class="edge">
<title>setup_basename&#45;&gt;handle_includes</title>
<path fill="none" stroke="black" d="M398,-957.09C398,-949.07 398,-939.33 398,-930.35"/>
<polygon fill="black" stroke="black" points="401.5,-930.31 398,-920.31 394.5,-930.31 401.5,-930.31"/>
</g>
<!-- config_setup -->
<g id="node8" class="node">
<title>config_setup</title>
<polygon fill="none" stroke="black" points="479.5,-847.28 316.5,-847.28 316.5,-811.28 479.5,-811.28 479.5,-847.28"/>
<text text-anchor="middle" x="398" y="-832.28" font-family="Courier,monospace" font-size="10.00">解析编译配置</text>
<text text-anchor="middle" x="398" y="-821.28" font-family="Courier,monospace" font-size="10.00">设置优化模式/Strip/Unwind等</text>
</g>
<!-- handle_includes&#45;&gt;config_setup -->
<g id="edge7" class="edge">
<title>handle_includes&#45;&gt;config_setup</title>
<path fill="none" stroke="black" d="M398,-884.09C398,-876.07 398,-866.33 398,-857.35"/>
<polygon fill="black" stroke="black" points="401.5,-857.31 398,-847.31 394.5,-857.31 401.5,-857.31"/>
</g>
<!-- config_error -->
<g id="node9" class="node">
<title>config_error</title>
<ellipse fill="none" stroke="black" cx="344" cy="-689.07" rx="110.12" ry="21.43"/>
<text text-anchor="middle" x="344" y="-692.07" font-family="Courier,monospace" font-size="10.00">设置错误信息</text>
<text text-anchor="middle" x="344" y="-681.07" font-family="Courier,monospace" font-size="10.00">返回SubCompilationFailed</text>
</g>
<!-- config_setup&#45;&gt;config_error -->
<g id="edge8" class="edge">
<title>config_setup&#45;&gt;config_error</title>
<path fill="none" stroke="black" d="M381.25,-811.22C376.71,-805.84 372.18,-799.63 369,-793.28 357.48,-770.3 351.09,-741.73 347.66,-720.48"/>
<polygon fill="black" stroke="black" points="351.09,-719.78 346.17,-710.4 344.17,-720.8 351.09,-719.78"/>
<text text-anchor="middle" x="398.5" y="-785.28" font-family="Courier,monospace" font-size="10.00">配置解析失败</text>
</g>
<!-- create_root_module -->
<g id="node10" class="node">
<title>create_root_module</title>
<polygon fill="none" stroke="black" points="519.5,-764.28 434.5,-764.28 434.5,-728.28 519.5,-728.28 519.5,-764.28"/>
<text text-anchor="middle" x="477" y="-749.28" font-family="Courier,monospace" font-size="10.00">创建根模块</text>
<text text-anchor="middle" x="477" y="-738.28" font-family="Courier,monospace" font-size="10.00">配置编译器参数</text>
</g>
<!-- config_setup&#45;&gt;create_root_module -->
<g id="edge9" class="edge">
<title>config_setup&#45;&gt;create_root_module</title>
<path fill="none" stroke="black" d="M414.75,-811.1C425.85,-799.72 440.59,-784.61 452.94,-771.94"/>
<polygon fill="black" stroke="black" points="455.79,-774.04 460.27,-764.43 450.78,-769.15 455.79,-774.04"/>
<text text-anchor="middle" x="462" y="-785.28" font-family="Courier,monospace" font-size="10.00">配置成功</text>
</g>
<!-- end -->
<g id="node24" class="node">
<title>end</title>
<polygon fill="none" stroke="black" points="451,-255 395,-255 395,-219 451,-219 451,-255"/>
<text text-anchor="middle" x="423" y="-234.5" font-family="Courier,monospace" font-size="10.00">返回成功</text>
</g>
<!-- config_error&#45;&gt;end -->
<g id="edge27" class="edge">
<title>config_error&#45;&gt;end</title>
<path fill="none" stroke="black" stroke-dasharray="5,2" d="M344,-667.76C344,-645.24 344,-607.85 344,-575.64 344,-575.64 344,-575.64 344,-319 344,-292.59 365.8,-271.57 386.49,-257.57"/>
<polygon fill="black" stroke="black" points="388.38,-260.52 394.92,-252.19 384.61,-254.62 388.38,-260.52"/>
</g>
<!-- module_error -->
<g id="node11" class="node">
<title>module_error</title>
<ellipse fill="none" stroke="black" cx="473" cy="-574.64" rx="110.12" ry="21.43"/>
<text text-anchor="middle" x="473" y="-577.64" font-family="Courier,monospace" font-size="10.00">设置错误信息</text>
<text text-anchor="middle" x="473" y="-566.64" font-family="Courier,monospace" font-size="10.00">返回SubCompilationFailed</text>
</g>
<!-- create_root_module&#45;&gt;module_error -->
<g id="edge10" class="edge">
<title>create_root_module&#45;&gt;module_error</title>
<path fill="none" stroke="black" d="M476.59,-728.08C475.92,-699.53 474.56,-641.98 473.72,-606.33"/>
<polygon fill="black" stroke="black" points="477.21,-605.94 473.48,-596.03 470.22,-606.11 477.21,-605.94"/>
<text text-anchor="middle" x="505.5" y="-686.57" font-family="Courier,monospace" font-size="10.00">模块创建失败</text>
</g>
<!-- loop_start -->
<g id="node12" class="node">
<title>loop_start</title>
<polygon fill="none" stroke="black" points="726,-649.85 600,-649.85 600,-613.85 726,-613.85 726,-649.85"/>
<text text-anchor="middle" x="663" y="-629.35" font-family="Courier,monospace" font-size="10.00">遍历libcxxabi_files</text>
</g>
<!-- create_root_module&#45;&gt;loop_start -->
<g id="edge11" class="edge">
<title>create_root_module&#45;&gt;loop_start</title>
<path fill="none" stroke="black" d="M508.6,-728.17C518.69,-722.58 529.88,-716.27 540,-710.28 570.17,-692.42 603.82,-671.14 628.29,-655.41"/>
<polygon fill="black" stroke="black" points="630.35,-658.25 636.86,-649.89 626.56,-652.36 630.35,-658.25"/>
<text text-anchor="middle" x="636.5" y="-686.57" font-family="Courier,monospace" font-size="10.00">模块创建成功</text>
</g>
<!-- module_error&#45;&gt;end -->
<g id="edge28" class="edge">
<title>module_error&#45;&gt;end</title>
<path fill="none" stroke="black" stroke-dasharray="5,2" d="M437.55,-554.4C412,-537.68 382,-510.82 382,-476.93 382,-476.93 382,-476.93 382,-319 382,-298.84 392.23,-278.61 402.47,-263.41"/>
<polygon fill="black" stroke="black" points="405.46,-265.25 408.43,-255.07 399.77,-261.18 405.46,-265.25"/>
</g>
<!-- check_wasi -->
<g id="node13" class="node">
<title>check_wasi</title>
<polygon fill="none" stroke="black" points="832.5,-535.43 723.5,-535.43 723.5,-499.43 832.5,-499.43 832.5,-535.43"/>
<text text-anchor="middle" x="778" y="-514.93" font-family="Courier,monospace" font-size="10.00">目标平台是WASI吗？</text>
</g>
<!-- loop_start&#45;&gt;check_wasi -->
<g id="edge12" class="edge">
<title>loop_start&#45;&gt;check_wasi</title>
<path fill="none" stroke="black" d="M687.58,-613.53C694.72,-608.13 702.37,-601.99 709,-595.85 726.67,-579.5 744.7,-559.11 757.9,-543.36"/>
<polygon fill="black" stroke="black" points="760.65,-545.53 764.33,-535.59 755.26,-541.06 760.65,-545.53"/>
<text text-anchor="middle" x="781.5" y="-572.14" font-family="Courier,monospace" font-size="10.00">处理每个源文件</text>
</g>
<!-- create_sub_compilation -->
<g id="node20" class="node">
<title>create_sub_compilation</title>
<polygon fill="none" stroke="black" points="666.5,-535.43 581.5,-535.43 581.5,-499.43 666.5,-499.43 666.5,-535.43"/>
<text text-anchor="middle" x="624" y="-514.93" font-family="Courier,monospace" font-size="10.00">创建子编译实例</text>
</g>
<!-- loop_start&#45;&gt;create_sub_compilation -->
<g id="edge22" class="edge">
<title>loop_start&#45;&gt;create_sub_compilation</title>
<path fill="none" stroke="black" d="M650.56,-613.69C647.05,-608.2 643.5,-601.96 641,-595.85 634.45,-579.87 630.24,-560.94 627.64,-545.8"/>
<polygon fill="black" stroke="black" points="631.04,-544.88 626.03,-535.54 624.13,-545.97 631.04,-544.88"/>
<text text-anchor="middle" x="661" y="-572.14" font-family="Courier,monospace" font-size="10.00">循环结束</text>
</g>
<!-- skip_exceptions -->
<g id="node14" class="node">
<title>skip_exceptions</title>
<polygon fill="none" stroke="black" points="958,-452.43 832,-452.43 832,-416.43 958,-416.43 958,-452.43"/>
<text text-anchor="middle" x="895" y="-437.43" font-family="Courier,monospace" font-size="10.00">跳过异常相关源文件</text>
<text text-anchor="middle" x="895" y="-426.43" font-family="Courier,monospace" font-size="10.00">添加&#45;fno&#45;exceptions</text>
</g>
<!-- check_wasi&#45;&gt;skip_exceptions -->
<g id="edge13" class="edge">
<title>check_wasi&#45;&gt;skip_exceptions</title>
<path fill="none" stroke="black" d="M802.81,-499.25C820.03,-487.33 843.15,-471.32 861.93,-458.32"/>
<polygon fill="black" stroke="black" points="863.99,-461.15 870.22,-452.58 860.01,-455.39 863.99,-461.15"/>
<text text-anchor="middle" x="860" y="-473.43" font-family="Courier,monospace" font-size="10.00">是WASI</text>
</g>
<!-- check_threads -->
<g id="node15" class="node">
<title>check_threads</title>
<polygon fill="none" stroke="black" points="829.5,-338 754.5,-338 754.5,-302 829.5,-302 829.5,-338"/>
<text text-anchor="middle" x="792" y="-317.5" font-family="Courier,monospace" font-size="10.00">单线程配置？</text>
</g>
<!-- check_wasi&#45;&gt;check_threads -->
<g id="edge14" class="edge">
<title>check_wasi&#45;&gt;check_threads</title>
<path fill="none" stroke="black" d="M777.52,-499.41C777.11,-479.49 776.88,-445.52 779,-416.43 780.68,-393.32 784.35,-367.27 787.36,-348.23"/>
<polygon fill="black" stroke="black" points="790.85,-348.6 789,-338.17 783.94,-347.48 790.85,-348.6"/>
<text text-anchor="middle" x="801" y="-431.93" font-family="Courier,monospace" font-size="10.00">不是WASI</text>
</g>
<!-- skip_exceptions&#45;&gt;check_threads -->
<g id="edge15" class="edge">
<title>skip_exceptions&#45;&gt;check_threads</title>
<path fill="none" stroke="black" d="M879.36,-416.35C862.11,-397.53 834.23,-367.09 814.61,-345.68"/>
<polygon fill="black" stroke="black" points="817.13,-343.24 807.79,-338.24 811.96,-347.97 817.13,-343.24"/>
</g>
<!-- handle_thread_atexit -->
<g id="node16" class="node">
<title>handle_thread_atexit</title>
<polygon fill="none" stroke="black" points="992,-255 830,-255 830,-219 992,-219 992,-255"/>
<text text-anchor="middle" x="911" y="-240" font-family="Courier,monospace" font-size="10.00">跳过cxa_thread_atexit.cpp</text>
<text text-anchor="middle" x="911" y="-229" font-family="Courier,monospace" font-size="10.00">添加线程宏</text>
</g>
<!-- check_threads&#45;&gt;handle_thread_atexit -->
<g id="edge16" class="edge">
<title>check_threads&#45;&gt;handle_thread_atexit</title>
<path fill="none" stroke="black" d="M817.24,-301.82C834.75,-289.9 858.27,-273.89 877.37,-260.89"/>
<polygon fill="black" stroke="black" points="879.5,-263.67 885.8,-255.15 875.56,-257.89 879.5,-263.67"/>
<text text-anchor="middle" x="873" y="-276" font-family="Courier,monospace" font-size="10.00">单线程</text>
</g>
<!-- add_flags -->
<g id="node17" class="node">
<title>add_flags</title>
<polygon fill="none" stroke="black" points="885,-182 723,-182 723,-146 885,-146 885,-182"/>
<text text-anchor="middle" x="804" y="-167" font-family="Courier,monospace" font-size="10.00">添加NDEBUG/visibility/PIC</text>
<text text-anchor="middle" x="804" y="-156" font-family="Courier,monospace" font-size="10.00">C++23等编译标志</text>
</g>
<!-- check_threads&#45;&gt;add_flags -->
<g id="edge17" class="edge">
<title>check_threads&#45;&gt;add_flags</title>
<path fill="none" stroke="black" d="M790.51,-301.94C789.07,-281.98 787.56,-247.96 791,-219 792.05,-210.15 794.04,-200.65 796.14,-192.13"/>
<polygon fill="black" stroke="black" points="799.57,-192.88 798.72,-182.32 792.8,-191.1 799.57,-192.88"/>
<text text-anchor="middle" x="806" y="-234.5" font-family="Courier,monospace" font-size="10.00">多线程</text>
</g>
<!-- handle_thread_atexit&#45;&gt;add_flags -->
<g id="edge18" class="edge">
<title>handle_thread_atexit&#45;&gt;add_flags</title>
<path fill="none" stroke="black" d="M885.37,-218.99C871.31,-209.67 853.69,-197.97 838.45,-187.86"/>
<polygon fill="black" stroke="black" points="840.06,-184.73 829.79,-182.11 836.19,-190.56 840.06,-184.73"/>
</g>
<!-- handle_musl_glibc -->
<g id="node18" class="node">
<title>handle_musl_glibc</title>
<polygon fill="none" stroke="black" points="864.5,-109 729.5,-109 729.5,-73 864.5,-73 864.5,-109"/>
<text text-anchor="middle" x="797" y="-88.5" font-family="Courier,monospace" font-size="10.00">处理musl/glibc特殊标志</text>
</g>
<!-- add_flags&#45;&gt;handle_musl_glibc -->
<g id="edge19" class="edge">
<title>add_flags&#45;&gt;handle_musl_glibc</title>
<path fill="none" stroke="black" d="M802.3,-145.81C801.51,-137.79 800.55,-128.05 799.67,-119.07"/>
<polygon fill="black" stroke="black" points="803.14,-118.64 798.68,-109.03 796.18,-119.32 803.14,-118.64"/>
</g>
<!-- append_source -->
<g id="node19" class="node">
<title>append_source</title>
<polygon fill="none" stroke="black" points="774,-36 640,-36 640,0 774,0 774,-36"/>
<text text-anchor="middle" x="707" y="-15.5" font-family="Courier,monospace" font-size="10.00">将处理后的源文件加入列表</text>
</g>
<!-- handle_musl_glibc&#45;&gt;append_source -->
<g id="edge20" class="edge">
<title>handle_musl_glibc&#45;&gt;append_source</title>
<path fill="none" stroke="black" d="M775.21,-72.81C763.6,-63.66 749.16,-52.26 736.55,-42.32"/>
<polygon fill="black" stroke="black" points="738.6,-39.47 728.58,-36.03 734.27,-44.97 738.6,-39.47"/>
</g>
<!-- append_source&#45;&gt;loop_start -->
<g id="edge21" class="edge">
<title>append_source&#45;&gt;loop_start</title>
<path fill="none" stroke="black" d="M702.46,-36.08C699.06,-50.38 695,-71.37 695,-90 695,-518.43 695,-518.43 695,-518.43 695,-553.4 692.23,-562.74 681,-595.85 680,-598.8 678.79,-601.8 677.47,-604.75"/>
<polygon fill="black" stroke="black" points="674.27,-603.33 673.02,-613.85 680.56,-606.4 674.27,-603.33"/>
<text text-anchor="middle" x="715" y="-276" font-family="Courier,monospace" font-size="10.00">继续循环</text>
</g>
<!-- comp_error -->
<g id="node21" class="node">
<title>comp_error</title>
<ellipse fill="none" stroke="black" cx="507" cy="-377.21" rx="110.12" ry="21.43"/>
<text text-anchor="middle" x="507" y="-380.21" font-family="Courier,monospace" font-size="10.00">设置错误信息</text>
<text text-anchor="middle" x="507" y="-369.21" font-family="Courier,monospace" font-size="10.00">返回SubCompilationFailed</text>
</g>
<!-- create_sub_compilation&#45;&gt;comp_error -->
<g id="edge23" class="edge">
<title>create_sub_compilation&#45;&gt;comp_error</title>
<path fill="none" stroke="black" d="M600.1,-499.42C593.26,-494.03 586.03,-487.81 580,-481.43 558.36,-458.54 538.05,-428.88 524.37,-407.23"/>
<polygon fill="black" stroke="black" points="527.18,-405.13 518.93,-398.49 521.24,-408.83 527.18,-405.13"/>
<text text-anchor="middle" x="600" y="-473.43" font-family="Courier,monospace" font-size="10.00">创建失败</text>
</g>
<!-- update_sub_comp -->
<g id="node22" class="node">
<title>update_sub_comp</title>
<polygon fill="none" stroke="black" points="666.5,-452.43 581.5,-452.43 581.5,-416.43 666.5,-416.43 666.5,-452.43"/>
<text text-anchor="middle" x="624" y="-431.93" font-family="Courier,monospace" font-size="10.00">更新子编译状态</text>
</g>
<!-- create_sub_compilation&#45;&gt;update_sub_comp -->
<g id="edge24" class="edge">
<title>create_sub_compilation&#45;&gt;update_sub_comp</title>
<path fill="none" stroke="black" d="M624,-499.25C624,-488.62 624,-474.73 624,-462.63"/>
<polygon fill="black" stroke="black" points="627.5,-462.58 624,-452.58 620.5,-462.58 627.5,-462.58"/>
<text text-anchor="middle" x="644" y="-473.43" font-family="Courier,monospace" font-size="10.00">创建成功</text>
</g>
<!-- comp_error&#45;&gt;end -->
<g id="edge29" class="edge">
<title>comp_error&#45;&gt;end</title>
<path fill="none" stroke="black" stroke-dasharray="5,2" d="M494.78,-356.12C479.97,-331.74 454.96,-290.6 438.72,-263.87"/>
<polygon fill="black" stroke="black" points="441.56,-261.8 433.37,-255.07 435.58,-265.43 441.56,-261.8"/>
</g>
<!-- handle_comp_result -->
<g id="node23" class="node">
<title>handle_comp_result</title>
<polygon fill="none" stroke="black" points="622.5,-338 537.5,-338 537.5,-302 622.5,-302 622.5,-338"/>
<text text-anchor="middle" x="580" y="-323" font-family="Courier,monospace" font-size="10.00">处理编译结果</text>
<text text-anchor="middle" x="580" y="-312" font-family="Courier,monospace" font-size="10.00">生成静态库文件</text>
</g>
<!-- update_sub_comp&#45;&gt;handle_comp_result -->
<g id="edge25" class="edge">
<title>update_sub_comp&#45;&gt;handle_comp_result</title>
<path fill="none" stroke="black" d="M626.15,-416.19C627.4,-399.85 627.24,-375.04 618,-356 616.24,-352.38 613.94,-348.96 611.32,-345.77"/>
<polygon fill="black" stroke="black" points="613.75,-343.24 604.35,-338.36 608.65,-348.04 613.75,-343.24"/>
<text text-anchor="middle" x="646" y="-374.71" font-family="Courier,monospace" font-size="10.00">更新成功</text>
</g>
<!-- handle_comp_result&#45;&gt;end -->
<g id="edge26" class="edge">
<title>handle_comp_result&#45;&gt;end</title>
<path fill="none" stroke="black" d="M546.7,-301.82C521.26,-288.69 486.2,-270.61 459.91,-257.04"/>
<polygon fill="black" stroke="black" points="461.49,-253.92 451,-252.45 458.28,-260.14 461.49,-253.92"/>
</g>
</g>
</svg>
