<?xml version="1.0" encoding="UTF-8" standalone="no"?>
<!DOCTYPE svg PUBLIC "-//W3C//DTD SVG 1.1//EN"
 "http://www.w3.org/Graphics/SVG/1.1/DTD/svg11.dtd">
<!-- Generated by graphviz version 2.43.0 (0)
 -->
<!-- Title: updateContainerType Pages: 1 -->
<svg width="755pt" height="1150pt"
 viewBox="0.00 0.00 754.73 1150.00" xmlns="http://www.w3.org/2000/svg" xmlns:xlink="http://www.w3.org/1999/xlink">
<g id="graph0" class="graph" transform="scale(1 1) rotate(0) translate(4 1146)">
<title>updateContainerType</title>
<polygon fill="white" stroke="transparent" points="-4,4 -4,-1146 750.73,-1146 750.73,4 -4,4"/>
<!-- start -->
<g id="node1" class="node">
<title>start</title>
<path fill="none" stroke="black" d="M284.23,-1142C284.23,-1142 131.23,-1142 131.23,-1142 125.23,-1142 119.23,-1136 119.23,-1130 119.23,-1130 119.23,-1118 119.23,-1118 119.23,-1112 125.23,-1106 131.23,-1106 131.23,-1106 284.23,-1106 284.23,-1106 290.23,-1106 296.23,-1112 296.23,-1118 296.23,-1118 296.23,-1130 296.23,-1130 296.23,-1136 290.23,-1142 284.23,-1142"/>
<text text-anchor="middle" x="207.73" y="-1120.3" font-family="Arial" font-size="14.00">开始 updateContainerType</text>
</g>
<!-- get_zcu -->
<g id="node2" class="node">
<title>get_zcu</title>
<path fill="none" stroke="black" d="M274.23,-1069C274.23,-1069 141.23,-1069 141.23,-1069 135.23,-1069 129.23,-1063 129.23,-1057 129.23,-1057 129.23,-1045 129.23,-1045 129.23,-1039 135.23,-1033 141.23,-1033 141.23,-1033 274.23,-1033 274.23,-1033 280.23,-1033 286.23,-1039 286.23,-1045 286.23,-1045 286.23,-1057 286.23,-1057 286.23,-1063 280.23,-1069 274.23,-1069"/>
<text text-anchor="middle" x="207.73" y="-1047.3" font-family="Arial" font-size="14.00">获取 zcu 和 intern_pool</text>
</g>
<!-- start&#45;&gt;get_zcu -->
<g id="edge1" class="edge">
<title>start&#45;&gt;get_zcu</title>
<path fill="none" stroke="black" d="M207.73,-1105.81C207.73,-1097.79 207.73,-1088.05 207.73,-1079.07"/>
<polygon fill="black" stroke="black" points="211.23,-1079.03 207.73,-1069.03 204.23,-1079.03 211.23,-1079.03"/>
</g>
<!-- log_debug -->
<g id="node3" class="node">
<title>log_debug</title>
<path fill="none" stroke="black" d="M246.73,-996C246.73,-996 168.73,-996 168.73,-996 162.73,-996 156.73,-990 156.73,-984 156.73,-984 156.73,-972 156.73,-972 156.73,-966 162.73,-960 168.73,-960 168.73,-960 246.73,-960 246.73,-960 252.73,-960 258.73,-966 258.73,-972 258.73,-972 258.73,-984 258.73,-984 258.73,-990 252.73,-996 246.73,-996"/>
<text text-anchor="middle" x="207.73" y="-974.3" font-family="Arial" font-size="14.00">记录调试日志</text>
</g>
<!-- get_zcu&#45;&gt;log_debug -->
<g id="edge2" class="edge">
<title>get_zcu&#45;&gt;log_debug</title>
<path fill="none" stroke="black" d="M207.73,-1032.81C207.73,-1024.79 207.73,-1015.05 207.73,-1006.07"/>
<polygon fill="black" stroke="black" points="211.23,-1006.03 207.73,-996.03 204.23,-1006.03 211.23,-1006.03"/>
</g>
<!-- check_main_struct_inst -->
<g id="node4" class="node">
<title>check_main_struct_inst</title>
<path fill="none" stroke="black" d="M195.77,-921.97C195.77,-921.97 11.73,-906.03 11.73,-906.03 5.75,-905.52 5.75,-904.48 11.73,-903.97 11.73,-903.97 195.77,-888.03 195.77,-888.03 201.75,-887.52 213.71,-887.52 219.68,-888.03 219.68,-888.03 403.73,-903.97 403.73,-903.97 409.71,-904.48 409.71,-905.52 403.73,-906.03 403.73,-906.03 219.68,-921.97 219.68,-921.97 213.71,-922.48 201.75,-922.48 195.77,-921.97"/>
<text text-anchor="middle" x="207.73" y="-901.3" font-family="Arial" font-size="14.00">inst_info.inst == .main_struct_inst?</text>
</g>
<!-- log_debug&#45;&gt;check_main_struct_inst -->
<g id="edge3" class="edge">
<title>log_debug&#45;&gt;check_main_struct_inst</title>
<path fill="none" stroke="black" d="M207.73,-959.81C207.73,-951.79 207.73,-942.05 207.73,-933.07"/>
<polygon fill="black" stroke="black" points="211.23,-933.03 207.73,-923.03 204.23,-933.03 211.23,-933.03"/>
</g>
<!-- main_struct_true -->
<g id="node5" class="node">
<title>main_struct_true</title>
<path fill="none" stroke="black" d="M187.23,-836C187.23,-836 80.23,-836 80.23,-836 74.23,-836 68.23,-830 68.23,-824 68.23,-824 68.23,-812 68.23,-812 68.23,-806 74.23,-800 80.23,-800 80.23,-800 187.23,-800 187.23,-800 193.23,-800 199.23,-806 199.23,-812 199.23,-812 199.23,-824 199.23,-824 199.23,-830 193.23,-836 187.23,-836"/>
<text text-anchor="middle" x="133.73" y="-814.3" font-family="Arial" font-size="14.00">处理主结构体实例</text>
</g>
<!-- check_main_struct_inst&#45;&gt;main_struct_true -->
<g id="edge4" class="edge">
<title>check_main_struct_inst&#45;&gt;main_struct_true</title>
<path fill="none" stroke="black" d="M193.81,-888.01C182.93,-875.51 167.62,-857.92 155.17,-843.63"/>
<polygon fill="black" stroke="black" points="157.81,-841.33 148.6,-836.08 152.53,-845.92 157.81,-841.33"/>
<text text-anchor="middle" x="183.23" y="-857.8" font-family="Arial" font-size="14.00">是</text>
</g>
<!-- other_types_false -->
<g id="node14" class="node">
<title>other_types_false</title>
<path fill="none" stroke="black" d="M338.23,-836C338.23,-836 231.23,-836 231.23,-836 225.23,-836 219.23,-830 219.23,-824 219.23,-824 219.23,-812 219.23,-812 219.23,-806 225.23,-800 231.23,-800 231.23,-800 338.23,-800 338.23,-800 344.23,-800 350.23,-806 350.23,-812 350.23,-812 350.23,-824 350.23,-824 350.23,-830 344.23,-836 338.23,-836"/>
<text text-anchor="middle" x="284.73" y="-814.3" font-family="Arial" font-size="14.00">处理其他容器类型</text>
</g>
<!-- check_main_struct_inst&#45;&gt;other_types_false -->
<g id="edge14" class="edge">
<title>check_main_struct_inst&#45;&gt;other_types_false</title>
<path fill="none" stroke="black" d="M222.21,-888.01C233.53,-875.51 249.47,-857.92 262.42,-843.63"/>
<polygon fill="black" stroke="black" points="265.13,-845.84 269.25,-836.08 259.95,-841.14 265.13,-845.84"/>
<text text-anchor="middle" x="258.23" y="-857.8" font-family="Arial" font-size="14.00">否</text>
</g>
<!-- get_or_create_type_entry -->
<g id="node6" class="node">
<title>get_or_create_type_entry</title>
<path fill="none" stroke="black" d="M176.73,-763C176.73,-763 66.73,-763 66.73,-763 60.73,-763 54.73,-757 54.73,-751 54.73,-751 54.73,-739 54.73,-739 54.73,-733 60.73,-727 66.73,-727 66.73,-727 176.73,-727 176.73,-727 182.73,-727 188.73,-733 188.73,-739 188.73,-739 188.73,-751 188.73,-751 188.73,-757 182.73,-763 176.73,-763"/>
<text text-anchor="middle" x="121.73" y="-741.3" font-family="Arial" font-size="14.00">创建/获取类型条目</text>
</g>
<!-- main_struct_true&#45;&gt;get_or_create_type_entry -->
<g id="edge5" class="edge">
<title>main_struct_true&#45;&gt;get_or_create_type_entry</title>
<path fill="none" stroke="black" d="M130.82,-799.81C129.47,-791.79 127.82,-782.05 126.3,-773.07"/>
<polygon fill="black" stroke="black" points="129.73,-772.31 124.61,-763.03 122.82,-773.47 129.73,-772.31"/>
</g>
<!-- init_wip_nav -->
<g id="node7" class="node">
<title>init_wip_nav</title>
<path fill="none" stroke="black" d="M116.73,-690C116.73,-690 30.73,-690 30.73,-690 24.73,-690 18.73,-684 18.73,-678 18.73,-678 18.73,-666 18.73,-666 18.73,-660 24.73,-654 30.73,-654 30.73,-654 116.73,-654 116.73,-654 122.73,-654 128.73,-660 128.73,-666 128.73,-666 128.73,-678 128.73,-678 128.73,-684 122.73,-690 116.73,-690"/>
<text text-anchor="middle" x="73.73" y="-668.3" font-family="Arial" font-size="14.00">初始化 WipNav</text>
</g>
<!-- get_or_create_type_entry&#45;&gt;init_wip_nav -->
<g id="edge6" class="edge">
<title>get_or_create_type_entry&#45;&gt;init_wip_nav</title>
<path fill="none" stroke="black" d="M110.11,-726.81C104.33,-718.27 97.24,-707.77 90.85,-698.32"/>
<polygon fill="black" stroke="black" points="93.74,-696.35 85.24,-690.03 87.94,-700.27 93.74,-696.35"/>
</g>
<!-- handle_loaded_struct -->
<g id="node9" class="node">
<title>handle_loaded_struct</title>
<path fill="none" stroke="black" d="M119.73,-603C119.73,-603 27.73,-603 27.73,-603 21.73,-603 15.73,-597 15.73,-591 15.73,-591 15.73,-579 15.73,-579 15.73,-573 21.73,-567 27.73,-567 27.73,-567 119.73,-567 119.73,-567 125.73,-567 131.73,-573 131.73,-579 131.73,-579 131.73,-591 131.73,-591 131.73,-597 125.73,-603 119.73,-603"/>
<text text-anchor="middle" x="73.73" y="-581.3" font-family="Arial" font-size="14.00">加载结构体类型</text>
</g>
<!-- init_wip_nav&#45;&gt;handle_loaded_struct -->
<g id="edge7" class="edge">
<title>init_wip_nav&#45;&gt;handle_loaded_struct</title>
<path fill="none" stroke="black" d="M73.73,-653.8C73.73,-642.16 73.73,-626.55 73.73,-613.24"/>
<polygon fill="black" stroke="black" points="77.23,-613.18 73.73,-603.18 70.23,-613.18 77.23,-613.18"/>
</g>
<!-- process_struct_fields -->
<g id="node8" class="node">
<title>process_struct_fields</title>
<path fill="none" stroke="black" d="M291.73,-515C291.73,-515 199.73,-515 199.73,-515 193.73,-515 187.73,-509 187.73,-503 187.73,-503 187.73,-491 187.73,-491 187.73,-485 193.73,-479 199.73,-479 199.73,-479 291.73,-479 291.73,-479 297.73,-479 303.73,-485 303.73,-491 303.73,-491 303.73,-503 303.73,-503 303.73,-509 297.73,-515 291.73,-515"/>
<text text-anchor="middle" x="245.73" y="-493.3" font-family="Arial" font-size="14.00">处理结构体字段</text>
</g>
<!-- process_field -->
<g id="node10" class="node">
<title>process_field</title>
<path fill="none" stroke="black" d="M420.23,-406C420.23,-406 313.23,-406 313.23,-406 307.23,-406 301.23,-400 301.23,-394 301.23,-394 301.23,-382 301.23,-382 301.23,-376 307.23,-370 313.23,-370 313.23,-370 420.23,-370 420.23,-370 426.23,-370 432.23,-376 432.23,-382 432.23,-382 432.23,-394 432.23,-394 432.23,-400 426.23,-406 420.23,-406"/>
<text text-anchor="middle" x="366.73" y="-384.3" font-family="Arial" font-size="14.00">循环处理每个字段</text>
</g>
<!-- process_struct_fields&#45;&gt;process_field -->
<g id="edge9" class="edge">
<title>process_struct_fields&#45;&gt;process_field</title>
<path fill="none" stroke="black" d="M253.41,-478.84C262.03,-460.2 275.95,-431.99 284.73,-424 290.24,-418.98 296.57,-414.62 303.23,-410.83"/>
<polygon fill="black" stroke="black" points="305.2,-413.75 312.45,-406.02 301.97,-407.54 305.2,-413.75"/>
<text text-anchor="middle" x="327.73" y="-438.3" font-family="Arial" font-size="14.00">循环每个字段</text>
</g>
<!-- finalize_main_struct -->
<g id="node13" class="node">
<title>finalize_main_struct</title>
<path fill="none" stroke="black" d="M335.23,-111C335.23,-111 228.23,-111 228.23,-111 222.23,-111 216.23,-105 216.23,-99 216.23,-99 216.23,-85 216.23,-85 216.23,-79 222.23,-73 228.23,-73 228.23,-73 335.23,-73 335.23,-73 341.23,-73 347.23,-79 347.23,-85 347.23,-85 347.23,-99 347.23,-99 347.23,-105 341.23,-111 335.23,-111"/>
<text text-anchor="middle" x="281.73" y="-95.8" font-family="Arial" font-size="14.00">更新调试信息条目</text>
<text text-anchor="middle" x="281.73" y="-80.8" font-family="Arial" font-size="14.00">替换 DWARF 条目</text>
</g>
<!-- process_struct_fields&#45;&gt;finalize_main_struct -->
<g id="edge12" class="edge">
<title>process_struct_fields&#45;&gt;finalize_main_struct</title>
<path fill="none" stroke="black" d="M245.99,-478.95C246.28,-457.84 246.73,-420.77 246.73,-389 246.73,-389 246.73,-389 246.73,-166 246.73,-149.56 254.04,-132.89 261.98,-119.65"/>
<polygon fill="black" stroke="black" points="265.03,-121.37 267.49,-111.07 259.14,-117.59 265.03,-121.37"/>
</g>
<!-- handle_loaded_struct&#45;&gt;process_struct_fields -->
<g id="edge8" class="edge">
<title>handle_loaded_struct&#45;&gt;process_struct_fields</title>
<path fill="none" stroke="black" d="M108.12,-566.8C135.28,-553.22 173.33,-534.2 202.54,-519.59"/>
<polygon fill="black" stroke="black" points="204.31,-522.62 211.69,-515.02 201.18,-516.36 204.31,-522.62"/>
</g>
<!-- field_conditions -->
<g id="node11" class="node">
<title>field_conditions</title>
<path fill="none" stroke="black" d="M444.23,-296C444.23,-296 289.23,-296 289.23,-296 283.23,-296 277.23,-290 277.23,-284 277.23,-284 277.23,-270 277.23,-270 277.23,-264 283.23,-258 289.23,-258 289.23,-258 444.23,-258 444.23,-258 450.23,-258 456.23,-264 456.23,-270 456.23,-270 456.23,-284 456.23,-284 456.23,-290 450.23,-296 444.23,-296"/>
<text text-anchor="middle" x="366.73" y="-280.8" font-family="Arial" font-size="14.00">检查字段属性</text>
<text text-anchor="middle" x="366.73" y="-265.8" font-family="Arial" font-size="14.00">（comptime/runtime bits）</text>
</g>
<!-- process_field&#45;&gt;field_conditions -->
<g id="edge10" class="edge">
<title>process_field&#45;&gt;field_conditions</title>
<path fill="none" stroke="black" d="M366.73,-369.97C366.73,-353.02 366.73,-326.69 366.73,-306.54"/>
<polygon fill="black" stroke="black" points="370.23,-306.37 366.73,-296.37 363.23,-306.37 370.23,-306.37"/>
</g>
<!-- write_field_info -->
<g id="node12" class="node">
<title>write_field_info</title>
<path fill="none" stroke="black" d="M508.73,-186C508.73,-186 380.73,-186 380.73,-186 374.73,-186 368.73,-180 368.73,-174 368.73,-174 368.73,-160 368.73,-160 368.73,-154 374.73,-148 380.73,-148 380.73,-148 508.73,-148 508.73,-148 514.73,-148 520.73,-154 520.73,-160 520.73,-160 520.73,-174 520.73,-174 520.73,-180 514.73,-186 508.73,-186"/>
<text text-anchor="middle" x="444.73" y="-170.8" font-family="Arial" font-size="14.00">写入字段信息</text>
<text text-anchor="middle" x="444.73" y="-155.8" font-family="Arial" font-size="14.00">（名称/类型/偏移等）</text>
</g>
<!-- field_conditions&#45;&gt;write_field_info -->
<g id="edge11" class="edge">
<title>field_conditions&#45;&gt;write_field_info</title>
<path fill="none" stroke="black" d="M379.96,-257.68C392.53,-240.27 411.57,-213.92 425.75,-194.28"/>
<polygon fill="black" stroke="black" points="428.68,-196.21 431.69,-186.05 423,-192.11 428.68,-196.21"/>
</g>
<!-- write_field_info&#45;&gt;finalize_main_struct -->
<!-- finalize_other_types -->
<g id="node22" class="node">
<title>finalize_other_types</title>
<path fill="none" stroke="black" d="M497.73,-111C497.73,-111 391.73,-111 391.73,-111 385.73,-111 379.73,-105 379.73,-99 379.73,-99 379.73,-85 379.73,-85 379.73,-79 385.73,-73 391.73,-73 391.73,-73 497.73,-73 497.73,-73 503.73,-73 509.73,-79 509.73,-85 509.73,-85 509.73,-99 509.73,-99 509.73,-105 503.73,-111 497.73,-111"/>
<text text-anchor="middle" x="444.73" y="-95.8" font-family="Arial" font-size="14.00">更新调试信息</text>
<text text-anchor="middle" x="444.73" y="-80.8" font-family="Arial" font-size="14.00">替换 DWARF 条目</text>
</g>
<!-- write_field_info&#45;&gt;finalize_other_types -->
<!-- end -->
<g id="node23" class="node">
<title>end</title>
<path fill="none" stroke="black" d="M296.73,-36C296.73,-36 266.73,-36 266.73,-36 260.73,-36 254.73,-30 254.73,-24 254.73,-24 254.73,-12 254.73,-12 254.73,-6 260.73,0 266.73,0 266.73,0 296.73,0 296.73,0 302.73,0 308.73,-6 308.73,-12 308.73,-12 308.73,-24 308.73,-24 308.73,-30 302.73,-36 296.73,-36"/>
<text text-anchor="middle" x="281.73" y="-14.3" font-family="Arial" font-size="14.00">结束</text>
</g>
<!-- finalize_main_struct&#45;&gt;end -->
<g id="edge13" class="edge">
<title>finalize_main_struct&#45;&gt;end</title>
<path fill="none" stroke="black" d="M281.73,-72.83C281.73,-64.89 281.73,-55.41 281.73,-46.63"/>
<polygon fill="black" stroke="black" points="285.23,-46.42 281.73,-36.42 278.23,-46.42 285.23,-46.42"/>
</g>
<!-- check_zir_instruction -->
<g id="node15" class="node">
<title>check_zir_instruction</title>
<path fill="none" stroke="black" d="M362.23,-763C362.23,-763 227.23,-763 227.23,-763 221.23,-763 215.23,-757 215.23,-751 215.23,-751 215.23,-739 215.23,-739 215.23,-733 221.23,-727 227.23,-727 227.23,-727 362.23,-727 362.23,-727 368.23,-727 374.23,-733 374.23,-739 374.23,-739 374.23,-751 374.23,-751 374.23,-757 368.23,-763 362.23,-763"/>
<text text-anchor="middle" x="294.73" y="-741.3" font-family="Arial" font-size="14.00">检查 ZIR 指令跟踪版本</text>
</g>
<!-- other_types_false&#45;&gt;check_zir_instruction -->
<g id="edge15" class="edge">
<title>other_types_false&#45;&gt;check_zir_instruction</title>
<path fill="none" stroke="black" d="M287.15,-799.81C288.28,-791.79 289.65,-782.05 290.92,-773.07"/>
<polygon fill="black" stroke="black" points="294.4,-773.42 292.33,-763.03 287.47,-772.44 294.4,-773.42"/>
</g>
<!-- name_strategy_check -->
<g id="node16" class="node">
<title>name_strategy_check</title>
<path fill="none" stroke="black" d="M290.81,-688.62C290.81,-688.62 158.64,-673.38 158.64,-673.38 152.68,-672.69 152.68,-671.31 158.64,-670.62 158.64,-670.62 290.81,-655.38 290.81,-655.38 296.77,-654.69 308.69,-654.69 314.65,-655.38 314.65,-655.38 446.82,-670.62 446.82,-670.62 452.78,-671.31 452.78,-672.69 446.82,-673.38 446.82,-673.38 314.65,-688.62 314.65,-688.62 308.69,-689.31 296.77,-689.31 290.81,-688.62"/>
<text text-anchor="middle" x="302.73" y="-668.3" font-family="Arial" font-size="14.00">名称策略是否为 .parent?</text>
</g>
<!-- check_zir_instruction&#45;&gt;name_strategy_check -->
<g id="edge16" class="edge">
<title>check_zir_instruction&#45;&gt;name_strategy_check</title>
<path fill="none" stroke="black" d="M296.67,-726.81C297.57,-718.79 298.67,-709.05 299.68,-700.07"/>
<polygon fill="black" stroke="black" points="303.17,-700.36 300.81,-690.03 296.21,-699.57 303.17,-700.36"/>
</g>
<!-- handle_container_types -->
<g id="node17" class="node">
<title>handle_container_types</title>
<path fill="none" stroke="black" d="M591.23,-603C591.23,-603 388.23,-603 388.23,-603 382.23,-603 376.23,-597 376.23,-591 376.23,-591 376.23,-579 376.23,-579 376.23,-573 382.23,-567 388.23,-567 388.23,-567 591.23,-567 591.23,-567 597.23,-567 603.23,-573 603.23,-579 603.23,-579 603.23,-591 603.23,-591 603.23,-597 597.23,-603 591.23,-603"/>
<text text-anchor="middle" x="489.73" y="-581.3" font-family="Arial" font-size="14.00">处理结构体/枚举/联合/不透明类型</text>
</g>
<!-- name_strategy_check&#45;&gt;handle_container_types -->
<g id="edge18" class="edge">
<title>name_strategy_check&#45;&gt;handle_container_types</title>
<path fill="none" stroke="black" d="M332.77,-657.34C362.41,-643.87 408.14,-623.09 442.61,-607.42"/>
<polygon fill="black" stroke="black" points="444.36,-610.47 452.01,-603.15 441.46,-604.1 444.36,-610.47"/>
<text text-anchor="middle" x="414.23" y="-624.8" font-family="Arial" font-size="14.00">否</text>
</g>
<!-- name_strategy_check&#45;&gt;end -->
<g id="edge17" class="edge">
<title>name_strategy_check&#45;&gt;end</title>
<path fill="none" stroke="black" d="M245.39,-660.54C205.61,-649.59 159.73,-627.88 159.73,-586 159.73,-586 159.73,-586 159.73,-91 159.73,-51.16 208.59,-32.91 244.47,-24.88"/>
<polygon fill="black" stroke="black" points="245.56,-28.23 254.65,-22.79 244.15,-21.37 245.56,-28.23"/>
<text text-anchor="middle" x="167.23" y="-329.3" font-family="Arial" font-size="14.00">是</text>
</g>
<!-- struct_layout -->
<g id="node18" class="node">
<title>struct_layout</title>
<path fill="none" stroke="black" d="M449.73,-516C449.73,-516 333.73,-516 333.73,-516 327.73,-516 321.73,-510 321.73,-504 321.73,-504 321.73,-490 321.73,-490 321.73,-484 327.73,-478 333.73,-478 333.73,-478 449.73,-478 449.73,-478 455.73,-478 461.73,-484 461.73,-490 461.73,-490 461.73,-504 461.73,-504 461.73,-510 455.73,-516 449.73,-516"/>
<text text-anchor="middle" x="391.73" y="-500.8" font-family="Arial" font-size="14.00">结构体布局判断</text>
<text text-anchor="middle" x="391.73" y="-485.8" font-family="Arial" font-size="14.00">(auto/extern/packed)</text>
</g>
<!-- handle_container_types&#45;&gt;struct_layout -->
<g id="edge19" class="edge">
<title>handle_container_types&#45;&gt;struct_layout</title>
<path fill="none" stroke="black" d="M423.3,-566.95C414.73,-562.33 406.83,-556.46 400.73,-549 395.59,-542.71 392.95,-534.5 391.7,-526.52"/>
<polygon fill="black" stroke="black" points="395.16,-525.96 390.75,-516.33 388.19,-526.61 395.16,-525.96"/>
<text text-anchor="middle" x="434.23" y="-537.8" font-family="Arial" font-size="14.00">struct_type</text>
</g>
<!-- enum_processing -->
<g id="node19" class="node">
<title>enum_processing</title>
<path fill="none" stroke="black" d="M540.23,-460C540.23,-460 433.23,-460 433.23,-460 427.23,-460 421.23,-454 421.23,-448 421.23,-448 421.23,-436 421.23,-436 421.23,-430 427.23,-424 433.23,-424 433.23,-424 540.23,-424 540.23,-424 546.23,-424 552.23,-430 552.23,-436 552.23,-436 552.23,-448 552.23,-448 552.23,-454 546.23,-460 540.23,-460"/>
<text text-anchor="middle" x="486.73" y="-438.3" font-family="Arial" font-size="14.00">处理枚举类型字段</text>
</g>
<!-- handle_container_types&#45;&gt;enum_processing -->
<g id="edge20" class="edge">
<title>handle_container_types&#45;&gt;enum_processing</title>
<path fill="none" stroke="black" d="M489.37,-566.99C488.86,-542.96 487.92,-498.81 487.31,-470.2"/>
<polygon fill="black" stroke="black" points="490.8,-469.99 487.09,-460.07 483.81,-470.14 490.8,-469.99"/>
<text text-anchor="middle" x="522.73" y="-537.8" font-family="Arial" font-size="14.00">enum_type</text>
</g>
<!-- union_processing -->
<g id="node20" class="node">
<title>union_processing</title>
<path fill="none" stroke="black" d="M633.73,-352C633.73,-352 511.73,-352 511.73,-352 505.73,-352 499.73,-346 499.73,-340 499.73,-340 499.73,-326 499.73,-326 499.73,-320 505.73,-314 511.73,-314 511.73,-314 633.73,-314 633.73,-314 639.73,-314 645.73,-320 645.73,-326 645.73,-326 645.73,-340 645.73,-340 645.73,-346 639.73,-352 633.73,-352"/>
<text text-anchor="middle" x="572.73" y="-336.8" font-family="Arial" font-size="14.00">处理联合类型</text>
<text text-anchor="middle" x="572.73" y="-321.8" font-family="Arial" font-size="14.00">（tagged/untagged）</text>
</g>
<!-- handle_container_types&#45;&gt;union_processing -->
<g id="edge21" class="edge">
<title>handle_container_types&#45;&gt;union_processing</title>
<path fill="none" stroke="black" d="M539.61,-566.79C547.11,-562.13 553.92,-556.29 558.73,-549 596.5,-491.74 587.34,-406.19 579.11,-362.27"/>
<polygon fill="black" stroke="black" points="582.51,-361.41 577.12,-352.29 575.64,-362.78 582.51,-361.41"/>
<text text-anchor="middle" x="616.23" y="-493.3" font-family="Arial" font-size="14.00">union_type</text>
</g>
<!-- opaque_processing -->
<g id="node21" class="node">
<title>opaque_processing</title>
<path fill="none" stroke="black" d="M701.23,-240C701.23,-240 594.23,-240 594.23,-240 588.23,-240 582.23,-234 582.23,-228 582.23,-228 582.23,-216 582.23,-216 582.23,-210 588.23,-204 594.23,-204 594.23,-204 701.23,-204 701.23,-204 707.23,-204 713.23,-210 713.23,-216 713.23,-216 713.23,-228 713.23,-228 713.23,-234 707.23,-240 701.23,-240"/>
<text text-anchor="middle" x="647.73" y="-218.3" font-family="Arial" font-size="14.00">生成空结构体条目</text>
</g>
<!-- handle_container_types&#45;&gt;opaque_processing -->
<g id="edge22" class="edge">
<title>handle_container_types&#45;&gt;opaque_processing</title>
<path fill="none" stroke="black" d="M602.96,-566.97C638.07,-554.78 667.73,-533.87 667.73,-498 667.73,-498 667.73,-498 667.73,-332 667.73,-303.73 661.14,-272 655.52,-250.09"/>
<polygon fill="black" stroke="black" points="658.84,-248.95 652.88,-240.19 652.08,-250.75 658.84,-248.95"/>
<text text-anchor="middle" x="707.23" y="-438.3" font-family="Arial" font-size="14.00">opaque_type</text>
</g>
<!-- struct_layout&#45;&gt;process_field -->
<g id="edge23" class="edge">
<title>struct_layout&#45;&gt;process_field</title>
<path fill="none" stroke="black" d="M387.49,-477.85C383.52,-460.87 377.54,-435.28 373.02,-415.93"/>
<polygon fill="black" stroke="black" points="376.43,-415.12 370.74,-406.18 369.61,-416.71 376.43,-415.12"/>
</g>
<!-- enum_processing&#45;&gt;write_field_info -->
<g id="edge24" class="edge">
<title>enum_processing&#45;&gt;write_field_info</title>
<path fill="none" stroke="black" d="M485.42,-423.75C482.79,-391.19 476.22,-318.5 465.73,-258 462.08,-236.99 456.56,-213.53 452.1,-195.84"/>
<polygon fill="black" stroke="black" points="455.49,-194.96 449.61,-186.15 448.71,-196.7 455.49,-194.96"/>
</g>
<!-- union_processing&#45;&gt;write_field_info -->
<g id="edge25" class="edge">
<title>union_processing&#45;&gt;write_field_info</title>
<path fill="none" stroke="black" d="M565.39,-313.76C554.08,-287.29 530.34,-237.7 498.73,-204 494.73,-199.74 490.13,-195.72 485.34,-192.03"/>
<polygon fill="black" stroke="black" points="487.34,-189.15 477.18,-186.14 483.24,-194.83 487.34,-189.15"/>
</g>
<!-- opaque_processing&#45;&gt;finalize_other_types -->
<g id="edge26" class="edge">
<title>opaque_processing&#45;&gt;finalize_other_types</title>
<path fill="none" stroke="black" d="M620.35,-203.74C584.63,-181.22 521.99,-141.72 481.97,-116.48"/>
<polygon fill="black" stroke="black" points="483.63,-113.39 473.31,-111.02 479.9,-119.31 483.63,-113.39"/>
</g>
<!-- finalize_other_types&#45;&gt;end -->
<g id="edge27" class="edge">
<title>finalize_other_types&#45;&gt;end</title>
<path fill="none" stroke="black" d="M403.6,-72.83C377.34,-61.23 343.6,-46.33 318.28,-35.15"/>
<polygon fill="black" stroke="black" points="319.59,-31.9 309.02,-31.06 316.76,-38.3 319.59,-31.9"/>
</g>
</g>
</svg>
