<?xml version="1.0" encoding="UTF-8" standalone="no"?>
<!DOCTYPE svg PUBLIC "-//W3C//DTD SVG 1.1//EN"
 "http://www.w3.org/Graphics/SVG/1.1/DTD/svg11.dtd">
<!-- Generated by graphviz version 2.43.0 (0)
 -->
<!-- Title: flowchart Pages: 1 -->
<svg width="481pt" height="2717pt"
 viewBox="0.00 0.00 481.00 2717.00" xmlns="http://www.w3.org/2000/svg" xmlns:xlink="http://www.w3.org/1999/xlink">
<g id="graph0" class="graph" transform="scale(1 1) rotate(0) translate(4 2713)">
<title>flowchart</title>
<polygon fill="white" stroke="transparent" points="-4,4 -4,-2713 477,-2713 477,4 -4,4"/>
<g id="clust1" class="cluster">
<title>cluster_init</title>
<polygon fill="none" stroke="black" points="8,-1959 8,-2646 402,-2646 402,-1959 8,-1959"/>
<text text-anchor="middle" x="205" y="-2630.8" font-family="Times,serif" font-size="14.00">初始化</text>
</g>
<g id="clust2" class="cluster">
<title>cluster_inputs</title>
<polygon fill="none" stroke="black" points="107,-1340 107,-1940 465,-1940 465,-1340 107,-1340"/>
<text text-anchor="middle" x="286" y="-1924.8" font-family="Times,serif" font-size="14.00">处理输入文件</text>
</g>
<g id="clust3" class="cluster">
<title>cluster_symbols</title>
<polygon fill="none" stroke="black" points="133,-1027 133,-1321 317,-1321 317,-1027 133,-1027"/>
<text text-anchor="middle" x="225" y="-1305.8" font-family="Times,serif" font-size="14.00">符号处理</text>
</g>
<g id="clust4" class="cluster">
<title>cluster_sections</title>
<polygon fill="none" stroke="black" points="165,-627 165,-1008 339,-1008 339,-627 165,-627"/>
<text text-anchor="middle" x="252" y="-992.8" font-family="Times,serif" font-size="14.00">段与节处理</text>
</g>
<g id="clust5" class="cluster">
<title>cluster_write</title>
<polygon fill="none" stroke="black" points="138,-8 138,-608 368,-608 368,-8 138,-8"/>
<text text-anchor="middle" x="253" y="-592.8" font-family="Times,serif" font-size="14.00">写入文件</text>
</g>
<!-- start -->
<g id="node1" class="node">
<title>start</title>
<path fill="none" stroke="black" d="M259.5,-2709C259.5,-2709 150.5,-2709 150.5,-2709 144.5,-2709 138.5,-2703 138.5,-2697 138.5,-2697 138.5,-2685 138.5,-2685 138.5,-2679 144.5,-2673 150.5,-2673 150.5,-2673 259.5,-2673 259.5,-2673 265.5,-2673 271.5,-2679 271.5,-2685 271.5,-2685 271.5,-2697 271.5,-2697 271.5,-2703 265.5,-2709 259.5,-2709"/>
<text text-anchor="middle" x="205" y="-2687.3" font-family="Helvetica,sans-Serif" font-size="14.00">开始 flushModule</text>
</g>
<!-- init_tracy -->
<g id="node4" class="node">
<title>init_tracy</title>
<path fill="none" stroke="black" d="M269,-2615C269,-2615 141,-2615 141,-2615 135,-2615 129,-2609 129,-2603 129,-2603 129,-2591 129,-2591 129,-2585 135,-2579 141,-2579 141,-2579 269,-2579 269,-2579 275,-2579 281,-2585 281,-2591 281,-2591 281,-2603 281,-2603 281,-2609 275,-2615 269,-2615"/>
<text text-anchor="middle" x="205" y="-2593.3" font-family="Helvetica,sans-Serif" font-size="14.00">启动性能跟踪 (trace)</text>
</g>
<!-- start&#45;&gt;init_tracy -->
<g id="edge39" class="edge">
<title>start&#45;&gt;init_tracy</title>
<path fill="none" stroke="black" d="M205,-2672.7C205,-2659.46 205,-2640.95 205,-2625.66"/>
<polygon fill="black" stroke="black" points="208.5,-2625.23 205,-2615.23 201.5,-2625.23 208.5,-2625.23"/>
</g>
<!-- end -->
<g id="node2" class="node">
<title>end</title>
<path fill="none" stroke="black" d="M315,-52C315,-52 285,-52 285,-52 279,-52 273,-46 273,-40 273,-40 273,-28 273,-28 273,-22 279,-16 285,-16 285,-16 315,-16 315,-16 321,-16 327,-22 327,-28 327,-28 327,-40 327,-40 327,-46 321,-52 315,-52"/>
<text text-anchor="middle" x="300" y="-30.3" font-family="Helvetica,sans-Serif" font-size="14.00">结束</text>
</g>
<!-- error -->
<g id="node3" class="node">
<title>error</title>
<path fill="none" stroke="black" d="M377.4,-1380.93C377.4,-1380.93 332.57,-1369.07 332.57,-1369.07 326.77,-1367.53 326.77,-1364.47 332.57,-1362.93 332.57,-1362.93 377.4,-1351.07 377.4,-1351.07 383.2,-1349.53 394.8,-1349.53 400.6,-1351.07 400.6,-1351.07 445.43,-1362.93 445.43,-1362.93 451.23,-1364.47 451.23,-1367.53 445.43,-1369.07 445.43,-1369.07 400.6,-1380.93 400.6,-1380.93 394.8,-1382.47 383.2,-1382.47 377.4,-1380.93"/>
<text text-anchor="middle" x="389" y="-1362.3" font-family="Helvetica,sans-Serif" font-size="14.00">错误处理</text>
</g>
<!-- error&#45;&gt;end -->
<g id="edge38" class="edge">
<title>error&#45;&gt;end</title>
<path fill="none" stroke="black" d="M388.71,-1348.04C388.41,-1329.59 388,-1299.2 388,-1273 388,-1273 388,-1273 388,-106 388,-78.1 360.87,-59.29 336.74,-48.08"/>
<polygon fill="black" stroke="black" points="337.93,-44.78 327.36,-44.02 335.14,-51.21 337.93,-44.78"/>
<text text-anchor="middle" x="417" y="-692.8" font-family="Helvetica,sans-Serif" font-size="14.00">返回错误</text>
</g>
<!-- init_comp -->
<g id="node5" class="node">
<title>init_comp</title>
<path fill="none" stroke="black" d="M277,-2542C277,-2542 133,-2542 133,-2542 127,-2542 121,-2536 121,-2530 121,-2530 121,-2518 121,-2518 121,-2512 127,-2506 133,-2506 133,-2506 277,-2506 277,-2506 283,-2506 289,-2512 289,-2518 289,-2518 289,-2530 289,-2530 289,-2536 283,-2542 277,-2542"/>
<text text-anchor="middle" x="205" y="-2520.3" font-family="Helvetica,sans-Serif" font-size="14.00">获取 comp, gpa, diags</text>
</g>
<!-- init_tracy&#45;&gt;init_comp -->
<g id="edge1" class="edge">
<title>init_tracy&#45;&gt;init_comp</title>
<path fill="none" stroke="black" d="M205,-2578.81C205,-2570.79 205,-2561.05 205,-2552.07"/>
<polygon fill="black" stroke="black" points="208.5,-2552.03 205,-2542.03 201.5,-2552.03 208.5,-2552.03"/>
</g>
<!-- check_llvm -->
<g id="node6" class="node">
<title>check_llvm</title>
<path fill="none" stroke="black" d="M193.06,-2467.84C193.06,-2467.84 31.1,-2452.16 31.1,-2452.16 25.13,-2451.58 25.13,-2450.42 31.1,-2449.84 31.1,-2449.84 193.06,-2434.16 193.06,-2434.16 199.03,-2433.58 210.97,-2433.58 216.94,-2434.16 216.94,-2434.16 378.9,-2449.84 378.9,-2449.84 384.87,-2450.42 384.87,-2451.58 378.9,-2452.16 378.9,-2452.16 216.94,-2467.84 216.94,-2467.84 210.97,-2468.42 199.03,-2468.42 193.06,-2467.84"/>
<text text-anchor="middle" x="205" y="-2447.3" font-family="Helvetica,sans-Serif" font-size="14.00">检查 llvm_object 是否存在？</text>
</g>
<!-- init_comp&#45;&gt;check_llvm -->
<g id="edge2" class="edge">
<title>init_comp&#45;&gt;check_llvm</title>
<path fill="none" stroke="black" d="M205,-2505.81C205,-2497.79 205,-2488.05 205,-2479.07"/>
<polygon fill="black" stroke="black" points="208.5,-2479.03 205,-2469.03 201.5,-2479.03 208.5,-2479.03"/>
</g>
<!-- emit_llvm -->
<g id="node7" class="node">
<title>emit_llvm</title>
<path fill="none" stroke="black" d="M192.5,-2382C192.5,-2382 59.5,-2382 59.5,-2382 53.5,-2382 47.5,-2376 47.5,-2370 47.5,-2370 47.5,-2358 47.5,-2358 47.5,-2352 53.5,-2346 59.5,-2346 59.5,-2346 192.5,-2346 192.5,-2346 198.5,-2346 204.5,-2352 204.5,-2358 204.5,-2358 204.5,-2370 204.5,-2370 204.5,-2376 198.5,-2382 192.5,-2382"/>
<text text-anchor="middle" x="126" y="-2360.3" font-family="Helvetica,sans-Serif" font-size="14.00">调用 emitLlvmObject</text>
</g>
<!-- check_llvm&#45;&gt;emit_llvm -->
<g id="edge3" class="edge">
<title>check_llvm&#45;&gt;emit_llvm</title>
<path fill="none" stroke="black" d="M190.14,-2434.01C178.53,-2421.51 162.18,-2403.92 148.89,-2389.63"/>
<polygon fill="black" stroke="black" points="151.25,-2387.02 141.88,-2382.08 146.12,-2391.79 151.25,-2387.02"/>
<text text-anchor="middle" x="177.5" y="-2403.8" font-family="Helvetica,sans-Serif" font-size="14.00">是</text>
</g>
<!-- sub_prog -->
<g id="node8" class="node">
<title>sub_prog</title>
<path fill="none" stroke="black" d="M305,-2309C305,-2309 105,-2309 105,-2309 99,-2309 93,-2303 93,-2297 93,-2297 93,-2285 93,-2285 93,-2279 99,-2273 105,-2273 105,-2273 305,-2273 305,-2273 311,-2273 317,-2279 317,-2285 317,-2285 317,-2297 317,-2297 317,-2303 311,-2309 305,-2309"/>
<text text-anchor="middle" x="205" y="-2287.3" font-family="Helvetica,sans-Serif" font-size="14.00">创建子进度节点 sub_prog_node</text>
</g>
<!-- check_llvm&#45;&gt;sub_prog -->
<g id="edge4" class="edge">
<title>check_llvm&#45;&gt;sub_prog</title>
<path fill="none" stroke="black" d="M208.22,-2433.07C211.74,-2412.49 216.54,-2376.7 214,-2346 213.28,-2337.34 211.93,-2327.98 210.49,-2319.53"/>
<polygon fill="black" stroke="black" points="213.88,-2318.63 208.65,-2309.42 207,-2319.88 213.88,-2318.63"/>
<text text-anchor="middle" x="221.5" y="-2360.3" font-family="Helvetica,sans-Serif" font-size="14.00">否</text>
</g>
<!-- emit_llvm&#45;&gt;sub_prog -->
<g id="edge5" class="edge">
<title>emit_llvm&#45;&gt;sub_prog</title>
<path fill="none" stroke="black" d="M145.12,-2345.81C155.12,-2336.83 167.51,-2325.69 178.42,-2315.89"/>
<polygon fill="black" stroke="black" points="180.95,-2318.32 186.05,-2309.03 176.28,-2313.11 180.95,-2318.32"/>
</g>
<!-- handle_module_path -->
<g id="node9" class="node">
<title>handle_module_path</title>
<path fill="none" stroke="black" d="M276,-2236C276,-2236 134,-2236 134,-2236 128,-2236 122,-2230 122,-2224 122,-2224 122,-2212 122,-2212 122,-2206 128,-2200 134,-2200 134,-2200 276,-2200 276,-2200 282,-2200 288,-2206 288,-2212 288,-2212 288,-2224 288,-2224 288,-2230 282,-2236 276,-2236"/>
<text text-anchor="middle" x="205" y="-2214.3" font-family="Helvetica,sans-Serif" font-size="14.00">处理 module_obj_path</text>
</g>
<!-- sub_prog&#45;&gt;handle_module_path -->
<g id="edge6" class="edge">
<title>sub_prog&#45;&gt;handle_module_path</title>
<path fill="none" stroke="black" d="M205,-2272.81C205,-2264.79 205,-2255.05 205,-2246.07"/>
<polygon fill="black" stroke="black" points="208.5,-2246.03 205,-2236.03 201.5,-2246.03 208.5,-2246.03"/>
</g>
<!-- verbose_link -->
<g id="node10" class="node">
<title>verbose_link</title>
<path fill="none" stroke="black" d="M303.5,-2163C303.5,-2163 106.5,-2163 106.5,-2163 100.5,-2163 94.5,-2157 94.5,-2151 94.5,-2151 94.5,-2139 94.5,-2139 94.5,-2133 100.5,-2127 106.5,-2127 106.5,-2127 303.5,-2127 303.5,-2127 309.5,-2127 315.5,-2133 315.5,-2139 315.5,-2139 315.5,-2151 315.5,-2151 315.5,-2157 309.5,-2163 303.5,-2163"/>
<text text-anchor="middle" x="205" y="-2141.3" font-family="Helvetica,sans-Serif" font-size="14.00">若开启 verbose_link，打印参数</text>
</g>
<!-- handle_module_path&#45;&gt;verbose_link -->
<g id="edge7" class="edge">
<title>handle_module_path&#45;&gt;verbose_link</title>
<path fill="none" stroke="black" d="M205,-2199.81C205,-2191.79 205,-2182.05 205,-2173.07"/>
<polygon fill="black" stroke="black" points="208.5,-2173.03 205,-2163.03 201.5,-2173.03 208.5,-2173.03"/>
</g>
<!-- handle_static_or_object -->
<g id="node11" class="node">
<title>handle_static_or_object</title>
<path fill="none" stroke="black" d="M193.05,-2088.86C193.05,-2088.86 27.75,-2073.14 27.75,-2073.14 21.78,-2072.57 21.78,-2071.43 27.75,-2070.86 27.75,-2070.86 193.05,-2055.14 193.05,-2055.14 199.03,-2054.57 210.97,-2054.57 216.95,-2055.14 216.95,-2055.14 382.25,-2070.86 382.25,-2070.86 388.22,-2071.43 388.22,-2072.57 382.25,-2073.14 382.25,-2073.14 216.95,-2088.86 216.95,-2088.86 210.97,-2089.43 199.03,-2089.43 193.05,-2088.86"/>
<text text-anchor="middle" x="205" y="-2068.3" font-family="Helvetica,sans-Serif" font-size="14.00">检查是否为静态库/对象文件？</text>
</g>
<!-- verbose_link&#45;&gt;handle_static_or_object -->
<g id="edge8" class="edge">
<title>verbose_link&#45;&gt;handle_static_or_object</title>
<path fill="none" stroke="black" d="M205,-2126.81C205,-2118.79 205,-2109.05 205,-2100.07"/>
<polygon fill="black" stroke="black" points="208.5,-2100.03 205,-2090.03 201.5,-2100.03 208.5,-2100.03"/>
</g>
<!-- flush_static_or_object -->
<g id="node12" class="node">
<title>flush_static_or_object</title>
<path fill="none" stroke="black" d="M171,-2003C171,-2003 51,-2003 51,-2003 45,-2003 39,-1997 39,-1991 39,-1991 39,-1979 39,-1979 39,-1973 45,-1967 51,-1967 51,-1967 171,-1967 171,-1967 177,-1967 183,-1973 183,-1979 183,-1979 183,-1991 183,-1991 183,-1997 177,-2003 171,-2003"/>
<text text-anchor="middle" x="111" y="-1981.3" font-family="Helvetica,sans-Serif" font-size="14.00">调用对应 flush 方法</text>
</g>
<!-- handle_static_or_object&#45;&gt;flush_static_or_object -->
<g id="edge9" class="edge">
<title>handle_static_or_object&#45;&gt;flush_static_or_object</title>
<path fill="none" stroke="black" d="M187.76,-2055.41C173.73,-2042.72 153.69,-2024.6 137.61,-2010.06"/>
<polygon fill="black" stroke="black" points="139.84,-2007.36 130.07,-2003.25 135.14,-2012.55 139.84,-2007.36"/>
<text text-anchor="middle" x="170.5" y="-2024.8" font-family="Helvetica,sans-Serif" font-size="14.00">是</text>
</g>
<!-- init_positionals -->
<g id="node13" class="node">
<title>init_positionals</title>
<path fill="none" stroke="black" d="M359,-2003C359,-2003 213,-2003 213,-2003 207,-2003 201,-1997 201,-1991 201,-1991 201,-1979 201,-1979 201,-1973 207,-1967 213,-1967 213,-1967 359,-1967 359,-1967 365,-1967 371,-1973 371,-1979 371,-1979 371,-1991 371,-1991 371,-1997 365,-2003 359,-2003"/>
<text text-anchor="middle" x="286" y="-1981.3" font-family="Helvetica,sans-Serif" font-size="14.00">初始化 positionals 数组</text>
</g>
<!-- handle_static_or_object&#45;&gt;init_positionals -->
<g id="edge10" class="edge">
<title>handle_static_or_object&#45;&gt;init_positionals</title>
<path fill="none" stroke="black" d="M219.86,-2055.41C231.73,-2042.95 248.59,-2025.26 262.31,-2010.86"/>
<polygon fill="black" stroke="black" points="265.2,-2012.9 269.57,-2003.25 260.13,-2008.07 265.2,-2012.9"/>
<text text-anchor="middle" x="257.5" y="-2024.8" font-family="Helvetica,sans-Serif" font-size="14.00">否</text>
</g>
<!-- collect_c_objects -->
<g id="node14" class="node">
<title>collect_c_objects</title>
<path fill="none" stroke="black" d="M379.5,-1909C379.5,-1909 192.5,-1909 192.5,-1909 186.5,-1909 180.5,-1903 180.5,-1897 180.5,-1897 180.5,-1885 180.5,-1885 180.5,-1879 186.5,-1873 192.5,-1873 192.5,-1873 379.5,-1873 379.5,-1873 385.5,-1873 391.5,-1879 391.5,-1885 391.5,-1885 391.5,-1897 391.5,-1897 391.5,-1903 385.5,-1909 379.5,-1909"/>
<text text-anchor="middle" x="286" y="-1887.3" font-family="Helvetica,sans-Serif" font-size="14.00">收集 C 对象文件到 positionals</text>
</g>
<!-- init_positionals&#45;&gt;collect_c_objects -->
<g id="edge11" class="edge">
<title>init_positionals&#45;&gt;collect_c_objects</title>
<path fill="none" stroke="black" d="M286,-1966.7C286,-1953.46 286,-1934.95 286,-1919.66"/>
<polygon fill="black" stroke="black" points="289.5,-1919.23 286,-1909.23 282.5,-1919.23 289.5,-1919.23"/>
</g>
<!-- add_module_obj -->
<g id="node15" class="node">
<title>add_module_obj</title>
<path fill="none" stroke="black" d="M405,-1836C405,-1836 167,-1836 167,-1836 161,-1836 155,-1830 155,-1824 155,-1824 155,-1812 155,-1812 155,-1806 161,-1800 167,-1800 167,-1800 405,-1800 405,-1800 411,-1800 417,-1806 417,-1812 417,-1812 417,-1824 417,-1824 417,-1830 411,-1836 405,-1836"/>
<text text-anchor="middle" x="286" y="-1814.3" font-family="Helvetica,sans-Serif" font-size="14.00">添加 module_obj_path 到 positionals</text>
</g>
<!-- collect_c_objects&#45;&gt;add_module_obj -->
<g id="edge12" class="edge">
<title>collect_c_objects&#45;&gt;add_module_obj</title>
<path fill="none" stroke="black" d="M286,-1872.81C286,-1864.79 286,-1855.05 286,-1846.07"/>
<polygon fill="black" stroke="black" points="289.5,-1846.03 286,-1836.03 282.5,-1846.03 289.5,-1846.03"/>
</g>
<!-- handle_sanitizers -->
<g id="node16" class="node">
<title>handle_sanitizers</title>
<path fill="none" stroke="black" d="M368.5,-1763C368.5,-1763 203.5,-1763 203.5,-1763 197.5,-1763 191.5,-1757 191.5,-1751 191.5,-1751 191.5,-1739 191.5,-1739 191.5,-1733 197.5,-1727 203.5,-1727 203.5,-1727 368.5,-1727 368.5,-1727 374.5,-1727 380.5,-1733 380.5,-1739 380.5,-1739 380.5,-1751 380.5,-1751 380.5,-1757 374.5,-1763 368.5,-1763"/>
<text text-anchor="middle" x="286" y="-1741.3" font-family="Helvetica,sans-Serif" font-size="14.00">处理 sanitizers/fuzzers 库</text>
</g>
<!-- add_module_obj&#45;&gt;handle_sanitizers -->
<g id="edge13" class="edge">
<title>add_module_obj&#45;&gt;handle_sanitizers</title>
<path fill="none" stroke="black" d="M286,-1799.81C286,-1791.79 286,-1782.05 286,-1773.07"/>
<polygon fill="black" stroke="black" points="289.5,-1773.03 286,-1763.03 282.5,-1773.03 289.5,-1773.03"/>
</g>
<!-- classify_inputs -->
<g id="node17" class="node">
<title>classify_inputs</title>
<path fill="none" stroke="black" d="M373,-1690C373,-1690 199,-1690 199,-1690 193,-1690 187,-1684 187,-1678 187,-1678 187,-1666 187,-1666 187,-1660 193,-1654 199,-1654 199,-1654 373,-1654 373,-1654 379,-1654 385,-1660 385,-1666 385,-1666 385,-1678 385,-1678 385,-1684 379,-1690 373,-1690"/>
<text text-anchor="middle" x="286" y="-1668.3" font-family="Helvetica,sans-Serif" font-size="14.00">对 positionals 分类输入文件</text>
</g>
<!-- handle_sanitizers&#45;&gt;classify_inputs -->
<g id="edge14" class="edge">
<title>handle_sanitizers&#45;&gt;classify_inputs</title>
<path fill="none" stroke="black" d="M286,-1726.81C286,-1718.79 286,-1709.05 286,-1700.07"/>
<polygon fill="black" stroke="black" points="289.5,-1700.03 286,-1690.03 282.5,-1700.03 289.5,-1700.03"/>
</g>
<!-- handle_system_libs -->
<g id="node18" class="node">
<title>handle_system_libs</title>
<path fill="none" stroke="black" d="M419,-1617C419,-1617 153,-1617 153,-1617 147,-1617 141,-1611 141,-1605 141,-1605 141,-1593 141,-1593 141,-1587 147,-1581 153,-1581 153,-1581 419,-1581 419,-1581 425,-1581 431,-1587 431,-1593 431,-1593 431,-1605 431,-1605 431,-1611 425,-1617 419,-1617"/>
<text text-anchor="middle" x="286" y="-1595.3" font-family="Helvetica,sans-Serif" font-size="14.00">处理系统库（框架、libc++、libSystem）</text>
</g>
<!-- classify_inputs&#45;&gt;handle_system_libs -->
<g id="edge15" class="edge">
<title>classify_inputs&#45;&gt;handle_system_libs</title>
<path fill="none" stroke="black" d="M286,-1653.81C286,-1645.79 286,-1636.05 286,-1627.07"/>
<polygon fill="black" stroke="black" points="289.5,-1627.03 286,-1617.03 282.5,-1627.03 289.5,-1627.03"/>
</g>
<!-- parse_inputs -->
<g id="node19" class="node">
<title>parse_inputs</title>
<path fill="none" stroke="black" d="M325,-1544C325,-1544 247,-1544 247,-1544 241,-1544 235,-1538 235,-1532 235,-1532 235,-1520 235,-1520 235,-1514 241,-1508 247,-1508 247,-1508 325,-1508 325,-1508 331,-1508 337,-1514 337,-1520 337,-1520 337,-1532 337,-1532 337,-1538 331,-1544 325,-1544"/>
<text text-anchor="middle" x="286" y="-1522.3" font-family="Helvetica,sans-Serif" font-size="14.00">解析输入文件</text>
</g>
<!-- handle_system_libs&#45;&gt;parse_inputs -->
<g id="edge16" class="edge">
<title>handle_system_libs&#45;&gt;parse_inputs</title>
<path fill="none" stroke="black" d="M286,-1580.81C286,-1572.79 286,-1563.05 286,-1554.07"/>
<polygon fill="black" stroke="black" points="289.5,-1554.03 286,-1544.03 282.5,-1554.03 289.5,-1554.03"/>
</g>
<!-- check_errors -->
<g id="node20" class="node">
<title>check_errors</title>
<path fill="none" stroke="black" d="M274.13,-1469.22C274.13,-1469.22 177.55,-1454.78 177.55,-1454.78 171.61,-1453.89 171.61,-1452.11 177.55,-1451.22 177.55,-1451.22 274.13,-1436.78 274.13,-1436.78 280.07,-1435.89 291.93,-1435.89 297.87,-1436.78 297.87,-1436.78 394.45,-1451.22 394.45,-1451.22 400.39,-1452.11 400.39,-1453.89 394.45,-1454.78 394.45,-1454.78 297.87,-1469.22 297.87,-1469.22 291.93,-1470.11 280.07,-1470.11 274.13,-1469.22"/>
<text text-anchor="middle" x="286" y="-1449.3" font-family="Helvetica,sans-Serif" font-size="14.00">检查是否有错误？</text>
</g>
<!-- parse_inputs&#45;&gt;check_errors -->
<g id="edge17" class="edge">
<title>parse_inputs&#45;&gt;check_errors</title>
<path fill="none" stroke="black" d="M286,-1507.81C286,-1499.79 286,-1490.05 286,-1481.07"/>
<polygon fill="black" stroke="black" points="289.5,-1481.03 286,-1471.03 282.5,-1481.03 289.5,-1481.03"/>
</g>
<!-- check_errors&#45;&gt;error -->
<g id="edge18" class="edge">
<title>check_errors&#45;&gt;error</title>
<path fill="none" stroke="black" d="M303.47,-1437.58C320.47,-1423.55 346.42,-1402.14 365.28,-1386.57"/>
<polygon fill="black" stroke="black" points="367.65,-1389.16 373.14,-1380.09 363.19,-1383.76 367.65,-1389.16"/>
<text text-anchor="middle" x="364.5" y="-1405.8" font-family="Helvetica,sans-Serif" font-size="14.00">有错误</text>
</g>
<!-- create_internal_obj -->
<g id="node21" class="node">
<title>create_internal_obj</title>
<path fill="none" stroke="black" d="M291,-1384C291,-1384 127,-1384 127,-1384 121,-1384 115,-1378 115,-1372 115,-1372 115,-1360 115,-1360 115,-1354 121,-1348 127,-1348 127,-1348 291,-1348 291,-1348 297,-1348 303,-1354 303,-1360 303,-1360 303,-1372 303,-1372 303,-1378 297,-1384 291,-1384"/>
<text text-anchor="middle" x="209" y="-1362.3" font-family="Helvetica,sans-Serif" font-size="14.00">创建内部对象并初始化符号</text>
</g>
<!-- check_errors&#45;&gt;create_internal_obj -->
<g id="edge19" class="edge">
<title>check_errors&#45;&gt;create_internal_obj</title>
<path fill="none" stroke="black" d="M272.23,-1436.8C260.92,-1424.31 244.66,-1406.37 231.47,-1391.8"/>
<polygon fill="black" stroke="black" points="233.81,-1389.17 224.5,-1384.11 228.62,-1393.87 233.81,-1389.17"/>
<text text-anchor="middle" x="273.5" y="-1405.8" font-family="Helvetica,sans-Serif" font-size="14.00">无错误</text>
</g>
<!-- resolve_symbols -->
<g id="node22" class="node">
<title>resolve_symbols</title>
<path fill="none" stroke="black" d="M234,-1290C234,-1290 184,-1290 184,-1290 178,-1290 172,-1284 172,-1278 172,-1278 172,-1266 172,-1266 172,-1260 178,-1254 184,-1254 184,-1254 234,-1254 234,-1254 240,-1254 246,-1260 246,-1266 246,-1266 246,-1278 246,-1278 246,-1284 240,-1290 234,-1290"/>
<text text-anchor="middle" x="209" y="-1268.3" font-family="Helvetica,sans-Serif" font-size="14.00">解析符号</text>
</g>
<!-- create_internal_obj&#45;&gt;resolve_symbols -->
<g id="edge20" class="edge">
<title>create_internal_obj&#45;&gt;resolve_symbols</title>
<path fill="none" stroke="black" d="M209,-1347.7C209,-1334.46 209,-1315.95 209,-1300.66"/>
<polygon fill="black" stroke="black" points="212.5,-1300.23 209,-1290.23 205.5,-1300.23 212.5,-1300.23"/>
</g>
<!-- dedup_literals -->
<g id="node23" class="node">
<title>dedup_literals</title>
<path fill="none" stroke="black" d="M255,-1217C255,-1217 191,-1217 191,-1217 185,-1217 179,-1211 179,-1205 179,-1205 179,-1193 179,-1193 179,-1187 185,-1181 191,-1181 191,-1181 255,-1181 255,-1181 261,-1181 267,-1187 267,-1193 267,-1193 267,-1205 267,-1205 267,-1211 261,-1217 255,-1217"/>
<text text-anchor="middle" x="223" y="-1195.3" font-family="Helvetica,sans-Serif" font-size="14.00">去重字面量</text>
</g>
<!-- resolve_symbols&#45;&gt;dedup_literals -->
<g id="edge21" class="edge">
<title>resolve_symbols&#45;&gt;dedup_literals</title>
<path fill="none" stroke="black" d="M212.39,-1253.81C213.97,-1245.79 215.89,-1236.05 217.66,-1227.07"/>
<polygon fill="black" stroke="black" points="221.14,-1227.52 219.64,-1217.03 214.27,-1226.16 221.14,-1227.52"/>
</g>
<!-- gc_sections -->
<g id="node24" class="node">
<title>gc_sections</title>
<path fill="none" stroke="black" d="M297,-1144C297,-1144 153,-1144 153,-1144 147,-1144 141,-1138 141,-1132 141,-1132 141,-1120 141,-1120 141,-1114 147,-1108 153,-1108 153,-1108 297,-1108 297,-1108 303,-1108 309,-1114 309,-1120 309,-1120 309,-1132 309,-1132 309,-1138 303,-1144 297,-1144"/>
<text text-anchor="middle" x="225" y="-1122.3" font-family="Helvetica,sans-Serif" font-size="14.00">若启用 GC，清理无用节</text>
</g>
<!-- dedup_literals&#45;&gt;gc_sections -->
<g id="edge22" class="edge">
<title>dedup_literals&#45;&gt;gc_sections</title>
<path fill="none" stroke="black" d="M223.48,-1180.81C223.71,-1172.79 223.98,-1163.05 224.24,-1154.07"/>
<polygon fill="black" stroke="black" points="227.74,-1154.12 224.52,-1144.03 220.74,-1153.93 227.74,-1154.12"/>
</g>
<!-- check_duplicates -->
<g id="node25" class="node">
<title>check_duplicates</title>
<path fill="none" stroke="black" d="M271,-1071C271,-1071 193,-1071 193,-1071 187,-1071 181,-1065 181,-1059 181,-1059 181,-1047 181,-1047 181,-1041 187,-1035 193,-1035 193,-1035 271,-1035 271,-1035 277,-1035 283,-1041 283,-1047 283,-1047 283,-1059 283,-1059 283,-1065 277,-1071 271,-1071"/>
<text text-anchor="middle" x="232" y="-1049.3" font-family="Helvetica,sans-Serif" font-size="14.00">检查重复符号</text>
</g>
<!-- gc_sections&#45;&gt;check_duplicates -->
<g id="edge23" class="edge">
<title>gc_sections&#45;&gt;check_duplicates</title>
<path fill="none" stroke="black" d="M226.69,-1107.81C227.49,-1099.79 228.45,-1090.05 229.33,-1081.07"/>
<polygon fill="black" stroke="black" points="232.82,-1081.32 230.32,-1071.03 225.86,-1080.64 232.82,-1081.32"/>
</g>
<!-- scan_relocs -->
<g id="node26" class="node">
<title>scan_relocs</title>
<path fill="none" stroke="black" d="M267,-977C267,-977 203,-977 203,-977 197,-977 191,-971 191,-965 191,-965 191,-953 191,-953 191,-947 197,-941 203,-941 203,-941 267,-941 267,-941 273,-941 279,-947 279,-953 279,-953 279,-965 279,-965 279,-971 273,-977 267,-977"/>
<text text-anchor="middle" x="235" y="-955.3" font-family="Helvetica,sans-Serif" font-size="14.00">扫描重定位</text>
</g>
<!-- check_duplicates&#45;&gt;scan_relocs -->
<g id="edge24" class="edge">
<title>check_duplicates&#45;&gt;scan_relocs</title>
<path fill="none" stroke="black" d="M232.56,-1034.7C233,-1021.46 233.6,-1002.95 234.1,-987.66"/>
<polygon fill="black" stroke="black" points="237.61,-987.34 234.44,-977.23 230.61,-987.11 237.61,-987.34"/>
</g>
<!-- init_sections -->
<g id="node27" class="node">
<title>init_sections</title>
<path fill="none" stroke="black" d="M319.5,-904C319.5,-904 184.5,-904 184.5,-904 178.5,-904 172.5,-898 172.5,-892 172.5,-892 172.5,-880 172.5,-880 172.5,-874 178.5,-868 184.5,-868 184.5,-868 319.5,-868 319.5,-868 325.5,-868 331.5,-874 331.5,-880 331.5,-880 331.5,-892 331.5,-892 331.5,-898 325.5,-904 319.5,-904"/>
<text text-anchor="middle" x="252" y="-882.3" font-family="Helvetica,sans-Serif" font-size="14.00">初始化输出节和合成节</text>
</g>
<!-- scan_relocs&#45;&gt;init_sections -->
<g id="edge25" class="edge">
<title>scan_relocs&#45;&gt;init_sections</title>
<path fill="none" stroke="black" d="M239.12,-940.81C241.06,-932.7 243.42,-922.84 245.59,-913.78"/>
<polygon fill="black" stroke="black" points="249,-914.57 247.92,-904.03 242.19,-912.94 249,-914.57"/>
</g>
<!-- allocate_sections -->
<g id="node28" class="node">
<title>allocate_sections</title>
<path fill="none" stroke="black" d="M285,-831C285,-831 221,-831 221,-831 215,-831 209,-825 209,-819 209,-819 209,-807 209,-807 209,-801 215,-795 221,-795 221,-795 285,-795 285,-795 291,-795 297,-801 297,-807 297,-807 297,-819 297,-819 297,-825 291,-831 285,-831"/>
<text text-anchor="middle" x="253" y="-809.3" font-family="Helvetica,sans-Serif" font-size="14.00">分配节和段</text>
</g>
<!-- init_sections&#45;&gt;allocate_sections -->
<g id="edge26" class="edge">
<title>init_sections&#45;&gt;allocate_sections</title>
<path fill="none" stroke="black" d="M252.24,-867.81C252.36,-859.79 252.49,-850.05 252.62,-841.07"/>
<polygon fill="black" stroke="black" points="256.12,-841.08 252.76,-831.03 249.12,-840.98 256.12,-841.08"/>
</g>
<!-- calc_sizes -->
<g id="node29" class="node">
<title>calc_sizes</title>
<path fill="none" stroke="black" d="M285,-758C285,-758 221,-758 221,-758 215,-758 209,-752 209,-746 209,-746 209,-734 209,-734 209,-728 215,-722 221,-722 221,-722 285,-722 285,-722 291,-722 297,-728 297,-734 297,-734 297,-746 297,-746 297,-752 291,-758 285,-758"/>
<text text-anchor="middle" x="253" y="-736.3" font-family="Helvetica,sans-Serif" font-size="14.00">计算节大小</text>
</g>
<!-- allocate_sections&#45;&gt;calc_sizes -->
<g id="edge27" class="edge">
<title>allocate_sections&#45;&gt;calc_sizes</title>
<path fill="none" stroke="black" d="M253,-794.81C253,-786.79 253,-777.05 253,-768.07"/>
<polygon fill="black" stroke="black" points="256.5,-768.03 253,-758.03 249.5,-768.03 256.5,-768.03"/>
</g>
<!-- generate_unwind -->
<g id="node30" class="node">
<title>generate_unwind</title>
<path fill="none" stroke="black" d="M292,-671C292,-671 214,-671 214,-671 208,-671 202,-665 202,-659 202,-659 202,-647 202,-647 202,-641 208,-635 214,-635 214,-635 292,-635 292,-635 298,-635 304,-641 304,-647 304,-647 304,-659 304,-659 304,-665 298,-671 292,-671"/>
<text text-anchor="middle" x="253" y="-649.3" font-family="Helvetica,sans-Serif" font-size="14.00">生成展开信息</text>
</g>
<!-- calc_sizes&#45;&gt;generate_unwind -->
<g id="edge28" class="edge">
<title>calc_sizes&#45;&gt;generate_unwind</title>
<path fill="none" stroke="black" d="M253,-721.8C253,-710.16 253,-694.55 253,-681.24"/>
<polygon fill="black" stroke="black" points="256.5,-681.18 253,-671.18 249.5,-681.18 256.5,-681.18"/>
</g>
<!-- write_sections -->
<g id="node31" class="node">
<title>write_sections</title>
<path fill="none" stroke="black" d="M335,-577C335,-577 171,-577 171,-577 165,-577 159,-571 159,-565 159,-565 159,-553 159,-553 159,-547 165,-541 171,-541 171,-541 335,-541 335,-541 341,-541 347,-547 347,-553 347,-553 347,-565 347,-565 347,-571 341,-577 335,-577"/>
<text text-anchor="middle" x="253" y="-555.3" font-family="Helvetica,sans-Serif" font-size="14.00">写入节并更新 linkedit 大小</text>
</g>
<!-- generate_unwind&#45;&gt;write_sections -->
<g id="edge29" class="edge">
<title>generate_unwind&#45;&gt;write_sections</title>
<path fill="none" stroke="black" d="M253,-634.7C253,-621.46 253,-602.95 253,-587.66"/>
<polygon fill="black" stroke="black" points="256.5,-587.23 253,-577.23 249.5,-587.23 256.5,-587.23"/>
</g>
<!-- write_linkedit -->
<g id="node32" class="node">
<title>write_linkedit</title>
<path fill="none" stroke="black" d="M299.5,-504C299.5,-504 206.5,-504 206.5,-504 200.5,-504 194.5,-498 194.5,-492 194.5,-492 194.5,-480 194.5,-480 194.5,-474 200.5,-468 206.5,-468 206.5,-468 299.5,-468 299.5,-468 305.5,-468 311.5,-474 311.5,-480 311.5,-480 311.5,-492 311.5,-492 311.5,-498 305.5,-504 299.5,-504"/>
<text text-anchor="middle" x="253" y="-482.3" font-family="Helvetica,sans-Serif" font-size="14.00">写入 linkedit 段</text>
</g>
<!-- write_sections&#45;&gt;write_linkedit -->
<g id="edge30" class="edge">
<title>write_sections&#45;&gt;write_linkedit</title>
<path fill="none" stroke="black" d="M253,-540.81C253,-532.79 253,-523.05 253,-514.07"/>
<polygon fill="black" stroke="black" points="256.5,-514.03 253,-504.03 249.5,-514.03 256.5,-514.03"/>
</g>
<!-- handle_codesig -->
<g id="node33" class="node">
<title>handle_codesig</title>
<path fill="none" stroke="black" d="M241.17,-429C241.17,-429 158.09,-415 158.09,-415 152.17,-414 152.17,-412 158.09,-411 158.09,-411 241.17,-397 241.17,-397 247.08,-396 258.92,-396 264.83,-397 264.83,-397 347.91,-411 347.91,-411 353.83,-412 353.83,-414 347.91,-415 347.91,-415 264.83,-429 264.83,-429 258.92,-430 247.08,-430 241.17,-429"/>
<text text-anchor="middle" x="253" y="-409.3" font-family="Helvetica,sans-Serif" font-size="14.00">处理代码签名？</text>
</g>
<!-- write_linkedit&#45;&gt;handle_codesig -->
<g id="edge31" class="edge">
<title>write_linkedit&#45;&gt;handle_codesig</title>
<path fill="none" stroke="black" d="M253,-467.81C253,-459.79 253,-450.05 253,-441.07"/>
<polygon fill="black" stroke="black" points="256.5,-441.03 253,-431.03 249.5,-441.03 256.5,-441.03"/>
</g>
<!-- write_loadcmds -->
<g id="node34" class="node">
<title>write_loadcmds</title>
<path fill="none" stroke="black" d="M326.5,-344C326.5,-344 205.5,-344 205.5,-344 199.5,-344 193.5,-338 193.5,-332 193.5,-332 193.5,-320 193.5,-320 193.5,-314 199.5,-308 205.5,-308 205.5,-308 326.5,-308 326.5,-308 332.5,-308 338.5,-314 338.5,-320 338.5,-320 338.5,-332 338.5,-332 338.5,-338 332.5,-344 326.5,-344"/>
<text text-anchor="middle" x="266" y="-322.3" font-family="Helvetica,sans-Serif" font-size="14.00">写入加载命令和头部</text>
</g>
<!-- handle_codesig&#45;&gt;write_loadcmds -->
<g id="edge32" class="edge">
<title>handle_codesig&#45;&gt;write_loadcmds</title>
<path fill="none" stroke="black" d="M245.31,-396.06C241.56,-386.15 238.53,-373.21 242,-362 242.98,-358.83 244.36,-355.7 245.96,-352.68"/>
<polygon fill="black" stroke="black" points="249,-354.42 251.29,-344.07 243.05,-350.74 249,-354.42"/>
<text text-anchor="middle" x="249.5" y="-365.8" font-family="Helvetica,sans-Serif" font-size="14.00">是</text>
</g>
<!-- handle_codesig&#45;&gt;write_loadcmds -->
<g id="edge33" class="edge">
<title>handle_codesig&#45;&gt;write_loadcmds</title>
<path fill="none" stroke="black" d="M255.57,-395.21C257.36,-383.52 259.78,-367.69 261.84,-354.22"/>
<polygon fill="black" stroke="black" points="265.34,-354.46 263.39,-344.05 258.42,-353.41 265.34,-354.46"/>
<text text-anchor="middle" x="267.5" y="-365.8" font-family="Helvetica,sans-Serif" font-size="14.00">否</text>
</g>
<!-- write_uuid -->
<g id="node35" class="node">
<title>write_uuid</title>
<path fill="none" stroke="black" d="M296,-271C296,-271 236,-271 236,-271 230,-271 224,-265 224,-259 224,-259 224,-247 224,-247 224,-241 230,-235 236,-235 236,-235 296,-235 296,-235 302,-235 308,-241 308,-247 308,-247 308,-259 308,-259 308,-265 302,-271 296,-271"/>
<text text-anchor="middle" x="266" y="-249.3" font-family="Helvetica,sans-Serif" font-size="14.00">写入 UUID</text>
</g>
<!-- write_loadcmds&#45;&gt;write_uuid -->
<g id="edge34" class="edge">
<title>write_loadcmds&#45;&gt;write_uuid</title>
<path fill="none" stroke="black" d="M266,-307.81C266,-299.79 266,-290.05 266,-281.07"/>
<polygon fill="black" stroke="black" points="269.5,-281.03 266,-271.03 262.5,-281.03 269.5,-281.03"/>
</g>
<!-- handle_dsyms -->
<g id="node36" class="node">
<title>handle_dsyms</title>
<path fill="none" stroke="black" d="M305,-198C305,-198 227,-198 227,-198 221,-198 215,-192 215,-186 215,-186 215,-174 215,-174 215,-168 221,-162 227,-162 227,-162 305,-162 305,-162 311,-162 317,-168 317,-174 317,-174 317,-186 317,-186 317,-192 311,-198 305,-198"/>
<text text-anchor="middle" x="266" y="-176.3" font-family="Helvetica,sans-Serif" font-size="14.00">处理调试符号</text>
</g>
<!-- write_uuid&#45;&gt;handle_dsyms -->
<g id="edge35" class="edge">
<title>write_uuid&#45;&gt;handle_dsyms</title>
<path fill="none" stroke="black" d="M266,-234.81C266,-226.79 266,-217.05 266,-208.07"/>
<polygon fill="black" stroke="black" points="269.5,-208.03 266,-198.03 262.5,-208.03 269.5,-208.03"/>
</g>
<!-- finalize -->
<g id="node37" class="node">
<title>finalize</title>
<path fill="none" stroke="black" d="M348,-125C348,-125 184,-125 184,-125 178,-125 172,-119 172,-113 172,-113 172,-101 172,-101 172,-95 178,-89 184,-89 184,-89 348,-89 348,-89 354,-89 360,-95 360,-101 360,-101 360,-113 360,-113 360,-119 354,-125 348,-125"/>
<text text-anchor="middle" x="266" y="-103.3" font-family="Helvetica,sans-Serif" font-size="14.00">最终代码签名和缓存无效化</text>
</g>
<!-- handle_dsyms&#45;&gt;finalize -->
<g id="edge36" class="edge">
<title>handle_dsyms&#45;&gt;finalize</title>
<path fill="none" stroke="black" d="M266,-161.81C266,-153.79 266,-144.05 266,-135.07"/>
<polygon fill="black" stroke="black" points="269.5,-135.03 266,-125.03 262.5,-135.03 269.5,-135.03"/>
</g>
<!-- finalize&#45;&gt;end -->
<g id="edge37" class="edge">
<title>finalize&#45;&gt;end</title>
<path fill="none" stroke="black" d="M274.23,-88.81C278.2,-80.53 283.04,-70.41 287.46,-61.19"/>
<polygon fill="black" stroke="black" points="290.68,-62.56 291.85,-52.03 284.37,-59.54 290.68,-62.56"/>
</g>
</g>
</svg>
