<?xml version="1.0" encoding="UTF-8" standalone="no"?>
<!DOCTYPE svg PUBLIC "-//W3C//DTD SVG 1.1//EN"
 "http://www.w3.org/Graphics/SVG/1.1/DTD/svg11.dtd">
<!-- Generated by graphviz version 2.43.0 (0)
 -->
<!-- Title: updateLazyValue Pages: 1 -->
<svg width="1863pt" height="623pt"
 viewBox="0.00 0.00 1862.50 623.00" xmlns="http://www.w3.org/2000/svg" xmlns:xlink="http://www.w3.org/1999/xlink">
<g id="graph0" class="graph" transform="scale(1 1) rotate(0) translate(4 619)">
<title>updateLazyValue</title>
<polygon fill="white" stroke="transparent" points="-4,4 -4,-619 1858.5,-619 1858.5,4 -4,4"/>
<g id="clust1" class="cluster">
<title>cluster_error_union</title>
<polygon fill="none" stroke="black" points="8,-8 8,-317 290,-317 290,-8 8,-8"/>
<text text-anchor="middle" x="149" y="-301.8" font-family="Arial" font-size="14.00">error_union 处理细节</text>
</g>
<!-- start -->
<g id="node1" class="node">
<title>start</title>
<path fill="none" stroke="black" d="M1026,-615C1026,-615 898,-615 898,-615 892,-615 886,-609 886,-603 886,-603 886,-591 886,-591 886,-585 892,-579 898,-579 898,-579 1026,-579 1026,-579 1032,-579 1038,-585 1038,-591 1038,-591 1038,-603 1038,-603 1038,-609 1032,-615 1026,-615"/>
<text text-anchor="middle" x="962" y="-593.3" font-family="Arial" font-size="14.00">开始 updateLazyValue</text>
</g>
<!-- init_wip_nav -->
<g id="node2" class="node">
<title>init_wip_nav</title>
<path fill="none" stroke="black" d="M1029,-542C1029,-542 895,-542 895,-542 889,-542 883,-536 883,-530 883,-530 883,-518 883,-518 883,-512 889,-506 895,-506 895,-506 1029,-506 1029,-506 1035,-506 1041,-512 1041,-518 1041,-518 1041,-530 1041,-530 1041,-536 1035,-542 1029,-542"/>
<text text-anchor="middle" x="962" y="-520.3" font-family="Arial" font-size="14.00">初始化 wip_nav 结构体</text>
</g>
<!-- start&#45;&gt;init_wip_nav -->
<g id="edge1" class="edge">
<title>start&#45;&gt;init_wip_nav</title>
<path fill="none" stroke="black" d="M962,-578.81C962,-570.79 962,-561.05 962,-552.07"/>
<polygon fill="black" stroke="black" points="965.5,-552.03 962,-542.03 958.5,-552.03 965.5,-552.03"/>
</g>
<!-- switch_value_index -->
<g id="node3" class="node">
<title>switch_value_index</title>
<path fill="none" stroke="black" d="M950.07,-467.71C950.07,-467.71 807.7,-452.29 807.7,-452.29 801.73,-451.65 801.73,-450.35 807.7,-449.71 807.7,-449.71 950.07,-434.29 950.07,-434.29 956.03,-433.65 967.97,-433.65 973.93,-434.29 973.93,-434.29 1116.3,-449.71 1116.3,-449.71 1122.27,-450.35 1122.27,-451.65 1116.3,-452.29 1116.3,-452.29 973.93,-467.71 973.93,-467.71 967.97,-468.35 956.03,-468.35 950.07,-467.71"/>
<text text-anchor="middle" x="962" y="-447.3" font-family="Arial" font-size="14.00">根据 value_index 类型分支</text>
</g>
<!-- init_wip_nav&#45;&gt;switch_value_index -->
<g id="edge2" class="edge">
<title>init_wip_nav&#45;&gt;switch_value_index</title>
<path fill="none" stroke="black" d="M962,-505.81C962,-497.79 962,-488.05 962,-479.07"/>
<polygon fill="black" stroke="black" points="965.5,-479.03 962,-469.03 958.5,-479.03 965.5,-479.03"/>
</g>
<!-- handle_undef -->
<g id="node4" class="node">
<title>handle_undef</title>
<path fill="none" stroke="black" d="M1693.5,-382C1693.5,-382 1586.5,-382 1586.5,-382 1580.5,-382 1574.5,-376 1574.5,-370 1574.5,-370 1574.5,-356 1574.5,-356 1574.5,-350 1580.5,-344 1586.5,-344 1586.5,-344 1693.5,-344 1693.5,-344 1699.5,-344 1705.5,-350 1705.5,-356 1705.5,-356 1705.5,-370 1705.5,-370 1705.5,-376 1699.5,-382 1693.5,-382"/>
<text text-anchor="middle" x="1640" y="-366.8" font-family="Arial" font-size="14.00">处理 undef 类型</text>
<text text-anchor="middle" x="1640" y="-351.8" font-family="Arial" font-size="14.00">写类型引用和空值</text>
</g>
<!-- switch_value_index&#45;&gt;handle_undef -->
<g id="edge3" class="edge">
<title>switch_value_index&#45;&gt;handle_undef</title>
<path fill="none" stroke="black" d="M1061.62,-443.75C1179.8,-435.22 1382.71,-417.04 1564.3,-382.25"/>
<polygon fill="black" stroke="black" points="1565.15,-385.65 1574.3,-380.31 1563.82,-378.78 1565.15,-385.65"/>
<text text-anchor="middle" x="1468" y="-403.8" font-family="Arial" font-size="14.00">undef</text>
</g>
<!-- handle_int -->
<g id="node5" class="node">
<title>handle_int</title>
<path fill="none" stroke="black" d="M1842.5,-382C1842.5,-382 1735.5,-382 1735.5,-382 1729.5,-382 1723.5,-376 1723.5,-370 1723.5,-370 1723.5,-356 1723.5,-356 1723.5,-350 1729.5,-344 1735.5,-344 1735.5,-344 1842.5,-344 1842.5,-344 1848.5,-344 1854.5,-350 1854.5,-356 1854.5,-356 1854.5,-370 1854.5,-370 1854.5,-376 1848.5,-382 1842.5,-382"/>
<text text-anchor="middle" x="1789" y="-366.8" font-family="Arial" font-size="14.00">处理 int 类型</text>
<text text-anchor="middle" x="1789" y="-351.8" font-family="Arial" font-size="14.00">写入大整数常量值</text>
</g>
<!-- switch_value_index&#45;&gt;handle_int -->
<g id="edge4" class="edge">
<title>switch_value_index&#45;&gt;handle_int</title>
<path fill="none" stroke="black" d="M1086.67,-446.5C1234.71,-440.58 1488.85,-424.91 1713.31,-382.24"/>
<polygon fill="black" stroke="black" points="1714.14,-385.64 1723.3,-380.32 1712.82,-378.77 1714.14,-385.64"/>
<text text-anchor="middle" x="1600.5" y="-403.8" font-family="Arial" font-size="14.00">int</text>
</g>
<!-- handle_err -->
<g id="node6" class="node">
<title>handle_err</title>
<path fill="none" stroke="black" d="M338,-382C338,-382 246,-382 246,-382 240,-382 234,-376 234,-370 234,-370 234,-356 234,-356 234,-350 240,-344 246,-344 246,-344 338,-344 338,-344 344,-344 350,-350 350,-356 350,-356 350,-370 350,-370 350,-376 344,-382 338,-382"/>
<text text-anchor="middle" x="292" y="-366.8" font-family="Arial" font-size="14.00">处理 err 类型</text>
<text text-anchor="middle" x="292" y="-351.8" font-family="Arial" font-size="14.00">写错误值和类型</text>
</g>
<!-- switch_value_index&#45;&gt;handle_err -->
<g id="edge5" class="edge">
<title>switch_value_index&#45;&gt;handle_err</title>
<path fill="none" stroke="black" d="M859.78,-444.04C741.32,-435.87 540.36,-418.15 359.94,-382.06"/>
<polygon fill="black" stroke="black" points="360.5,-378.6 350,-380.05 359.11,-385.46 360.5,-378.6"/>
<text text-anchor="middle" x="565.5" y="-403.8" font-family="Arial" font-size="14.00">err</text>
</g>
<!-- handle_error_union -->
<g id="node7" class="node">
<title>handle_error_union</title>
<path fill="none" stroke="black" d="M203.5,-382C203.5,-382 54.5,-382 54.5,-382 48.5,-382 42.5,-376 42.5,-370 42.5,-370 42.5,-356 42.5,-356 42.5,-350 48.5,-344 54.5,-344 54.5,-344 203.5,-344 203.5,-344 209.5,-344 215.5,-350 215.5,-356 215.5,-356 215.5,-370 215.5,-370 215.5,-376 209.5,-382 203.5,-382"/>
<text text-anchor="middle" x="129" y="-366.8" font-family="Arial" font-size="14.00">处理 error_union 类型</text>
<text text-anchor="middle" x="129" y="-351.8" font-family="Arial" font-size="14.00">处理错误和有效负载字段</text>
</g>
<!-- switch_value_index&#45;&gt;handle_error_union -->
<g id="edge6" class="edge">
<title>switch_value_index&#45;&gt;handle_error_union</title>
<path fill="none" stroke="black" d="M836.03,-446.61C721.86,-442.49 549.15,-433.61 400,-415 339.75,-407.48 272.68,-394.9 220.34,-384.11"/>
<polygon fill="black" stroke="black" points="220.92,-380.65 210.41,-382.05 219.49,-387.51 220.92,-380.65"/>
<text text-anchor="middle" x="435" y="-403.8" font-family="Arial" font-size="14.00">error_union</text>
</g>
<!-- handle_enum_literal -->
<g id="node8" class="node">
<title>handle_enum_literal</title>
<path fill="none" stroke="black" d="M511.5,-382C511.5,-382 380.5,-382 380.5,-382 374.5,-382 368.5,-376 368.5,-370 368.5,-370 368.5,-356 368.5,-356 368.5,-350 374.5,-344 380.5,-344 380.5,-344 511.5,-344 511.5,-344 517.5,-344 523.5,-350 523.5,-356 523.5,-356 523.5,-370 523.5,-370 523.5,-376 517.5,-382 511.5,-382"/>
<text text-anchor="middle" x="446" y="-366.8" font-family="Arial" font-size="14.00">处理 enum_literal 类型</text>
<text text-anchor="middle" x="446" y="-351.8" font-family="Arial" font-size="14.00">写入字符串常量</text>
</g>
<!-- switch_value_index&#45;&gt;handle_enum_literal -->
<g id="edge7" class="edge">
<title>switch_value_index&#45;&gt;handle_enum_literal</title>
<path fill="none" stroke="black" d="M882.61,-441.57C827.78,-435.33 753.25,-426.03 688,-415 636.53,-406.3 579.36,-394.36 533.52,-384.22"/>
<polygon fill="black" stroke="black" points="534.14,-380.78 523.62,-382.02 532.62,-387.61 534.14,-380.78"/>
<text text-anchor="middle" x="725.5" y="-403.8" font-family="Arial" font-size="14.00">enum_literal</text>
</g>
<!-- handle_ptr -->
<g id="node9" class="node">
<title>handle_ptr</title>
<path fill="none" stroke="black" d="M674.5,-382C674.5,-382 553.5,-382 553.5,-382 547.5,-382 541.5,-376 541.5,-370 541.5,-370 541.5,-356 541.5,-356 541.5,-350 547.5,-344 553.5,-344 553.5,-344 674.5,-344 674.5,-344 680.5,-344 686.5,-350 686.5,-356 686.5,-356 686.5,-370 686.5,-370 686.5,-376 680.5,-382 674.5,-382"/>
<text text-anchor="middle" x="614" y="-366.8" font-family="Arial" font-size="14.00">处理 ptr 类型</text>
<text text-anchor="middle" x="614" y="-351.8" font-family="Arial" font-size="14.00">计算基地址和偏移量</text>
</g>
<!-- switch_value_index&#45;&gt;handle_ptr -->
<g id="edge8" class="edge">
<title>switch_value_index&#45;&gt;handle_ptr</title>
<path fill="none" stroke="black" d="M913.98,-438.13C857.91,-424.28 764.22,-401.12 696.45,-384.38"/>
<polygon fill="black" stroke="black" points="697.19,-380.95 686.64,-381.95 695.51,-387.75 697.19,-380.95"/>
<text text-anchor="middle" x="827" y="-403.8" font-family="Arial" font-size="14.00">ptr</text>
</g>
<!-- handle_slice -->
<g id="node10" class="node">
<title>handle_slice</title>
<path fill="none" stroke="black" d="M837.5,-382C837.5,-382 716.5,-382 716.5,-382 710.5,-382 704.5,-376 704.5,-370 704.5,-370 704.5,-356 704.5,-356 704.5,-350 710.5,-344 716.5,-344 716.5,-344 837.5,-344 837.5,-344 843.5,-344 849.5,-350 849.5,-356 849.5,-356 849.5,-370 849.5,-370 849.5,-376 843.5,-382 837.5,-382"/>
<text text-anchor="middle" x="777" y="-366.8" font-family="Arial" font-size="14.00">处理 slice 类型</text>
<text text-anchor="middle" x="777" y="-351.8" font-family="Arial" font-size="14.00">写入指针和长度字段</text>
</g>
<!-- switch_value_index&#45;&gt;handle_slice -->
<g id="edge9" class="edge">
<title>switch_value_index&#45;&gt;handle_slice</title>
<path fill="none" stroke="black" d="M932.28,-436.18C903.43,-422.77 859.15,-402.19 825.25,-386.43"/>
<polygon fill="black" stroke="black" points="826.53,-383.17 815.99,-382.12 823.58,-389.51 826.53,-383.17"/>
<text text-anchor="middle" x="900" y="-403.8" font-family="Arial" font-size="14.00">slice</text>
</g>
<!-- handle_opt -->
<g id="node11" class="node">
<title>handle_opt</title>
<path fill="none" stroke="black" d="M1044,-382C1044,-382 880,-382 880,-382 874,-382 868,-376 868,-370 868,-370 868,-356 868,-356 868,-350 874,-344 880,-344 880,-344 1044,-344 1044,-344 1050,-344 1056,-350 1056,-356 1056,-356 1056,-370 1056,-370 1056,-376 1050,-382 1044,-382"/>
<text text-anchor="middle" x="962" y="-366.8" font-family="Arial" font-size="14.00">处理 opt 类型</text>
<text text-anchor="middle" x="962" y="-351.8" font-family="Arial" font-size="14.00">处理可选值状态和有效负载</text>
</g>
<!-- switch_value_index&#45;&gt;handle_opt -->
<g id="edge10" class="edge">
<title>switch_value_index&#45;&gt;handle_opt</title>
<path fill="none" stroke="black" d="M962,-432.6C962,-421.06 962,-405.65 962,-392.36"/>
<polygon fill="black" stroke="black" points="965.5,-392.27 962,-382.27 958.5,-392.27 965.5,-392.27"/>
<text text-anchor="middle" x="971.5" y="-403.8" font-family="Arial" font-size="14.00">opt</text>
</g>
<!-- handle_aggregate -->
<g id="node12" class="node">
<title>handle_aggregate</title>
<path fill="none" stroke="black" d="M1211.5,-382C1211.5,-382 1086.5,-382 1086.5,-382 1080.5,-382 1074.5,-376 1074.5,-370 1074.5,-370 1074.5,-356 1074.5,-356 1074.5,-350 1080.5,-344 1086.5,-344 1086.5,-344 1211.5,-344 1211.5,-344 1217.5,-344 1223.5,-350 1223.5,-356 1223.5,-356 1223.5,-370 1223.5,-370 1223.5,-376 1217.5,-382 1211.5,-382"/>
<text text-anchor="middle" x="1149" y="-366.8" font-family="Arial" font-size="14.00">处理 aggregate 类型</text>
<text text-anchor="middle" x="1149" y="-351.8" font-family="Arial" font-size="14.00">遍历结构体/数组字段</text>
</g>
<!-- switch_value_index&#45;&gt;handle_aggregate -->
<g id="edge11" class="edge">
<title>switch_value_index&#45;&gt;handle_aggregate</title>
<path fill="none" stroke="black" d="M992.04,-436.18C1021.21,-422.77 1065.96,-402.19 1100.22,-386.43"/>
<polygon fill="black" stroke="black" points="1101.97,-389.48 1109.59,-382.12 1099.04,-383.12 1101.97,-389.48"/>
<text text-anchor="middle" x="1096.5" y="-403.8" font-family="Arial" font-size="14.00">aggregate</text>
</g>
<!-- handle_un -->
<g id="node13" class="node">
<title>handle_un</title>
<path fill="none" stroke="black" d="M1345,-382C1345,-382 1253,-382 1253,-382 1247,-382 1241,-376 1241,-370 1241,-370 1241,-356 1241,-356 1241,-350 1247,-344 1253,-344 1253,-344 1345,-344 1345,-344 1351,-344 1357,-350 1357,-356 1357,-356 1357,-370 1357,-370 1357,-376 1351,-382 1345,-382"/>
<text text-anchor="middle" x="1299" y="-366.8" font-family="Arial" font-size="14.00">处理 un 类型</text>
<text text-anchor="middle" x="1299" y="-351.8" font-family="Arial" font-size="14.00">处理联合体字段</text>
</g>
<!-- switch_value_index&#45;&gt;handle_un -->
<g id="edge12" class="edge">
<title>switch_value_index&#45;&gt;handle_un</title>
<path fill="none" stroke="black" d="M1020.57,-439.23C1053.23,-432.88 1094.56,-424.28 1131,-415 1165.38,-406.24 1203.23,-394.9 1234.29,-385.14"/>
<polygon fill="black" stroke="black" points="1235.64,-388.39 1244.12,-382.03 1233.53,-381.71 1235.64,-388.39"/>
<text text-anchor="middle" x="1190" y="-403.8" font-family="Arial" font-size="14.00">un</text>
</g>
<!-- other_cases -->
<g id="node14" class="node">
<title>other_cases</title>
<path fill="none" stroke="black" d="M1544.5,-382C1544.5,-382 1387.5,-382 1387.5,-382 1381.5,-382 1375.5,-376 1375.5,-370 1375.5,-370 1375.5,-356 1375.5,-356 1375.5,-350 1381.5,-344 1387.5,-344 1387.5,-344 1544.5,-344 1544.5,-344 1550.5,-344 1556.5,-350 1556.5,-356 1556.5,-356 1556.5,-370 1556.5,-370 1556.5,-376 1550.5,-382 1544.5,-382"/>
<text text-anchor="middle" x="1466" y="-366.8" font-family="Arial" font-size="14.00">其他类型处理</text>
<text text-anchor="middle" x="1466" y="-351.8" font-family="Arial" font-size="14.00">（如 float、enum_tag 等）</text>
</g>
<!-- switch_value_index&#45;&gt;other_cases -->
<g id="edge13" class="edge">
<title>switch_value_index&#45;&gt;other_cases</title>
<path fill="none" stroke="black" d="M1032.49,-440.59C1080.39,-433.98 1145.12,-424.64 1202,-415 1257.11,-405.66 1318.43,-393.9 1368.09,-384.03"/>
<polygon fill="black" stroke="black" points="1369.06,-387.4 1378.18,-382.01 1367.69,-380.54 1369.06,-387.4"/>
<text text-anchor="middle" x="1311" y="-403.8" font-family="Arial" font-size="14.00">其他类型</text>
</g>
<!-- defer_cleanup -->
<g id="node15" class="node">
<title>defer_cleanup</title>
<path fill="none" stroke="black" d="M1014,-287C1014,-287 910,-287 910,-287 904,-287 898,-281 898,-275 898,-275 898,-261 898,-261 898,-255 904,-249 910,-249 910,-249 1014,-249 1014,-249 1020,-249 1026,-255 1026,-261 1026,-261 1026,-275 1026,-275 1026,-281 1020,-287 1014,-287"/>
<text text-anchor="middle" x="962" y="-271.8" font-family="Arial" font-size="14.00">清理资源</text>
<text text-anchor="middle" x="962" y="-256.8" font-family="Arial" font-size="14.00">恢复 pending_lazy</text>
</g>
<!-- handle_undef&#45;&gt;defer_cleanup -->
<g id="edge14" class="edge">
<title>handle_undef&#45;&gt;defer_cleanup</title>
<path fill="none" stroke="black" d="M1574.32,-345.61C1571.51,-345.04 1568.73,-344.5 1566,-344 1376.57,-309.32 1150.74,-286.01 1036.34,-275.45"/>
<polygon fill="black" stroke="black" points="1036.57,-271.96 1026.29,-274.53 1035.93,-278.93 1036.57,-271.96"/>
</g>
<!-- handle_int&#45;&gt;defer_cleanup -->
<g id="edge15" class="edge">
<title>handle_int&#45;&gt;defer_cleanup</title>
<path fill="none" stroke="black" d="M1723.33,-345.52C1720.52,-344.98 1717.74,-344.47 1715,-344 1468.4,-301.94 1172.05,-280.95 1036.39,-272.96"/>
<polygon fill="black" stroke="black" points="1036.3,-269.45 1026.12,-272.37 1035.9,-276.44 1036.3,-269.45"/>
</g>
<!-- handle_err&#45;&gt;defer_cleanup -->
<g id="edge16" class="edge">
<title>handle_err&#45;&gt;defer_cleanup</title>
<path fill="none" stroke="black" d="M350.35,-345.81C353.27,-345.16 356.16,-344.55 359,-344 547.69,-307.1 773.33,-284.73 887.68,-274.9"/>
<polygon fill="black" stroke="black" points="888.06,-278.38 897.72,-274.05 887.46,-271.41 888.06,-278.38"/>
</g>
<!-- handle_error_union&#45;&gt;defer_cleanup -->
<g id="edge17" class="edge">
<title>handle_error_union&#45;&gt;defer_cleanup</title>
<path fill="none" stroke="black" d="M215.55,-345.43C218.74,-344.93 221.9,-344.45 225,-344 466.3,-309.16 754.34,-284.8 887.6,-274.49"/>
<polygon fill="black" stroke="black" points="888,-277.97 897.7,-273.72 887.46,-270.99 888,-277.97"/>
</g>
<!-- eu_start -->
<g id="node18" class="node">
<title>eu_start</title>
<path fill="none" stroke="black" d="M190,-286C190,-286 68,-286 68,-286 62,-286 56,-280 56,-274 56,-274 56,-262 56,-262 56,-256 62,-250 68,-250 68,-250 190,-250 190,-250 196,-250 202,-256 202,-262 202,-262 202,-274 202,-274 202,-280 196,-286 190,-286"/>
<text text-anchor="middle" x="129" y="-264.3" font-family="Arial" font-size="14.00">开始处理 error_union</text>
</g>
<!-- handle_error_union&#45;&gt;eu_start -->
<g id="edge32" class="edge">
<title>handle_error_union&#45;&gt;eu_start</title>
<path fill="none" stroke="black" d="M129,-343.63C129,-330.17 129,-311.67 129,-296.46"/>
<polygon fill="black" stroke="black" points="132.5,-296.08 129,-286.08 125.5,-296.08 132.5,-296.08"/>
</g>
<!-- handle_enum_literal&#45;&gt;defer_cleanup -->
<g id="edge18" class="edge">
<title>handle_enum_literal&#45;&gt;defer_cleanup</title>
<path fill="none" stroke="black" d="M523.79,-345.6C526.56,-345.05 529.3,-344.52 532,-344 656.56,-320.11 802.05,-295.4 887.86,-281.15"/>
<polygon fill="black" stroke="black" points="888.48,-284.6 897.77,-279.51 887.33,-277.69 888.48,-284.6"/>
</g>
<!-- handle_ptr&#45;&gt;defer_cleanup -->
<g id="edge19" class="edge">
<title>handle_ptr&#45;&gt;defer_cleanup</title>
<path fill="none" stroke="black" d="M681.51,-343.96C740.77,-328.12 826.81,-305.13 887.94,-288.79"/>
<polygon fill="black" stroke="black" points="889.15,-292.09 897.91,-286.13 887.34,-285.33 889.15,-292.09"/>
</g>
<!-- handle_slice&#45;&gt;defer_cleanup -->
<g id="edge20" class="edge">
<title>handle_slice&#45;&gt;defer_cleanup</title>
<path fill="none" stroke="black" d="M813.11,-343.85C842.78,-328.93 884.96,-307.73 916.86,-291.69"/>
<polygon fill="black" stroke="black" points="918.62,-294.72 925.98,-287.11 915.48,-288.47 918.62,-294.72"/>
</g>
<!-- handle_opt&#45;&gt;defer_cleanup -->
<g id="edge21" class="edge">
<title>handle_opt&#45;&gt;defer_cleanup</title>
<path fill="none" stroke="black" d="M962,-343.63C962,-330.42 962,-312.37 962,-297.33"/>
<polygon fill="black" stroke="black" points="965.5,-297.02 962,-287.02 958.5,-297.02 965.5,-297.02"/>
</g>
<!-- handle_aggregate&#45;&gt;defer_cleanup -->
<g id="edge22" class="edge">
<title>handle_aggregate&#45;&gt;defer_cleanup</title>
<path fill="none" stroke="black" d="M1112.5,-343.85C1082.51,-328.93 1039.87,-307.73 1007.63,-291.69"/>
<polygon fill="black" stroke="black" points="1008.92,-288.43 998.41,-287.11 1005.8,-294.69 1008.92,-288.43"/>
</g>
<!-- handle_un&#45;&gt;defer_cleanup -->
<g id="edge23" class="edge">
<title>handle_un&#45;&gt;defer_cleanup</title>
<path fill="none" stroke="black" d="M1240.68,-345.91C1183.91,-330.24 1097.41,-306.37 1035.86,-289.38"/>
<polygon fill="black" stroke="black" points="1036.77,-286 1026.2,-286.72 1034.91,-292.75 1036.77,-286"/>
</g>
<!-- other_cases&#45;&gt;defer_cleanup -->
<g id="edge24" class="edge">
<title>other_cases&#45;&gt;defer_cleanup</title>
<path fill="none" stroke="black" d="M1375.31,-345.27C1278.2,-327.35 1125.95,-299.25 1035.86,-282.63"/>
<polygon fill="black" stroke="black" points="1036.47,-279.18 1026,-280.81 1035.2,-286.07 1036.47,-279.18"/>
</g>
<!-- replace_entry -->
<g id="node16" class="node">
<title>replace_entry</title>
<path fill="none" stroke="black" d="M1015.5,-212C1015.5,-212 908.5,-212 908.5,-212 902.5,-212 896.5,-206 896.5,-200 896.5,-200 896.5,-188 896.5,-188 896.5,-182 902.5,-176 908.5,-176 908.5,-176 1015.5,-176 1015.5,-176 1021.5,-176 1027.5,-182 1027.5,-188 1027.5,-188 1027.5,-200 1027.5,-200 1027.5,-206 1021.5,-212 1015.5,-212"/>
<text text-anchor="middle" x="962" y="-190.3" font-family="Arial" font-size="14.00">替换调试信息条目</text>
</g>
<!-- defer_cleanup&#45;&gt;replace_entry -->
<g id="edge25" class="edge">
<title>defer_cleanup&#45;&gt;replace_entry</title>
<path fill="none" stroke="black" d="M962,-248.83C962,-240.89 962,-231.41 962,-222.63"/>
<polygon fill="black" stroke="black" points="965.5,-222.42 962,-212.42 958.5,-222.42 965.5,-222.42"/>
</g>
<!-- end -->
<g id="node17" class="node">
<title>end</title>
<path fill="none" stroke="black" d="M987,-125C987,-125 937,-125 937,-125 931,-125 925,-119 925,-113 925,-113 925,-101 925,-101 925,-95 931,-89 937,-89 937,-89 987,-89 987,-89 993,-89 999,-95 999,-101 999,-101 999,-113 999,-113 999,-119 993,-125 987,-125"/>
<text text-anchor="middle" x="962" y="-103.3" font-family="Arial" font-size="14.00">函数结束</text>
</g>
<!-- replace_entry&#45;&gt;end -->
<g id="edge26" class="edge">
<title>replace_entry&#45;&gt;end</title>
<path fill="none" stroke="black" d="M962,-175.8C962,-164.16 962,-148.55 962,-135.24"/>
<polygon fill="black" stroke="black" points="965.5,-135.18 962,-125.18 958.5,-135.18 965.5,-135.18"/>
</g>
<!-- eu_start&#45;&gt;eu_start -->
<!-- check_val -->
<g id="node19" class="node">
<title>check_val</title>
<path fill="none" stroke="black" d="M117.25,-209.57C117.25,-209.57 53.61,-196.43 53.61,-196.43 47.74,-195.21 47.74,-192.79 53.61,-191.57 53.61,-191.57 117.25,-178.43 117.25,-178.43 123.12,-177.21 134.88,-177.21 140.75,-178.43 140.75,-178.43 204.39,-191.57 204.39,-191.57 210.26,-192.79 210.26,-195.21 204.39,-196.43 204.39,-196.43 140.75,-209.57 140.75,-209.57 134.88,-210.79 123.12,-210.79 117.25,-209.57"/>
<text text-anchor="middle" x="129" y="-190.3" font-family="Arial" font-size="14.00">val 类型判断</text>
</g>
<!-- eu_start&#45;&gt;check_val -->
<g id="edge27" class="edge">
<title>eu_start&#45;&gt;check_val</title>
<path fill="none" stroke="black" d="M129,-249.94C129,-241.81 129,-231.88 129,-222.7"/>
<polygon fill="black" stroke="black" points="132.5,-222.44 129,-212.44 125.5,-222.44 132.5,-222.44"/>
</g>
<!-- handle_err_name -->
<g id="node20" class="node">
<title>handle_err_name</title>
<path fill="none" stroke="black" d="M120,-125C120,-125 28,-125 28,-125 22,-125 16,-119 16,-113 16,-113 16,-101 16,-101 16,-95 22,-89 28,-89 28,-89 120,-89 120,-89 126,-89 132,-95 132,-101 132,-101 132,-113 132,-113 132,-119 126,-125 120,-125"/>
<text text-anchor="middle" x="74" y="-103.3" font-family="Arial" font-size="14.00">写入错误值字段</text>
</g>
<!-- check_val&#45;&gt;handle_err_name -->
<g id="edge28" class="edge">
<title>check_val&#45;&gt;handle_err_name</title>
<path fill="none" stroke="black" d="M119.17,-177.8C111.23,-165.54 99.9,-148.03 90.57,-133.61"/>
<polygon fill="black" stroke="black" points="93.44,-131.6 85.07,-125.11 87.57,-135.41 93.44,-131.6"/>
<text text-anchor="middle" x="134.5" y="-146.8" font-family="Arial" font-size="14.00">err_name</text>
</g>
<!-- handle_payload -->
<g id="node21" class="node">
<title>handle_payload</title>
<path fill="none" stroke="black" d="M269.5,-125C269.5,-125 162.5,-125 162.5,-125 156.5,-125 150.5,-119 150.5,-113 150.5,-113 150.5,-101 150.5,-101 150.5,-95 156.5,-89 162.5,-89 162.5,-89 269.5,-89 269.5,-89 275.5,-89 281.5,-95 281.5,-101 281.5,-101 281.5,-113 281.5,-113 281.5,-119 275.5,-125 269.5,-125"/>
<text text-anchor="middle" x="216" y="-103.3" font-family="Arial" font-size="14.00">处理有效负载字段</text>
</g>
<!-- check_val&#45;&gt;handle_payload -->
<g id="edge29" class="edge">
<title>check_val&#45;&gt;handle_payload</title>
<path fill="none" stroke="black" d="M145.18,-178.96C152.29,-172.67 160.68,-165.08 168,-158 176.26,-150.01 185.04,-141.03 192.79,-132.9"/>
<polygon fill="black" stroke="black" points="195.53,-135.1 199.87,-125.43 190.45,-130.28 195.53,-135.1"/>
<text text-anchor="middle" x="207" y="-146.8" font-family="Arial" font-size="14.00">payload</text>
</g>
<!-- write_error_field -->
<g id="node22" class="node">
<title>write_error_field</title>
<path fill="none" stroke="black" d="M187.5,-52C187.5,-52 102.5,-52 102.5,-52 96.5,-52 90.5,-46 90.5,-40 90.5,-40 90.5,-28 90.5,-28 90.5,-22 96.5,-16 102.5,-16 102.5,-16 187.5,-16 187.5,-16 193.5,-16 199.5,-22 199.5,-28 199.5,-28 199.5,-40 199.5,-40 199.5,-46 193.5,-52 187.5,-52"/>
<text text-anchor="middle" x="145" y="-30.3" font-family="Arial" font-size="14.00">写入 error 字段</text>
</g>
<!-- handle_err_name&#45;&gt;write_error_field -->
<g id="edge30" class="edge">
<title>handle_err_name&#45;&gt;write_error_field</title>
<path fill="none" stroke="black" d="M91.19,-88.81C100.08,-79.92 111.09,-68.91 120.83,-59.17"/>
<polygon fill="black" stroke="black" points="123.37,-61.57 127.97,-52.03 118.43,-56.63 123.37,-61.57"/>
</g>
<!-- handle_payload&#45;&gt;write_error_field -->
<g id="edge31" class="edge">
<title>handle_payload&#45;&gt;write_error_field</title>
<path fill="none" stroke="black" d="M198.81,-88.81C189.92,-79.92 178.91,-68.91 169.17,-59.17"/>
<polygon fill="black" stroke="black" points="171.57,-56.63 162.03,-52.03 166.63,-61.57 171.57,-56.63"/>
</g>
</g>
</svg>
