<?xml version="1.0" encoding="UTF-8" standalone="no"?>
<!DOCTYPE svg PUBLIC "-//W3C//DTD SVG 1.1//EN"
 "http://www.w3.org/Graphics/SVG/1.1/DTD/svg11.dtd">
<!-- Generated by graphviz version 2.43.0 (0)
 -->
<!-- Title: flowchart Pages: 1 -->
<svg width="688pt" height="902pt"
 viewBox="0.00 0.00 687.50 902.00" xmlns="http://www.w3.org/2000/svg" xmlns:xlink="http://www.w3.org/1999/xlink">
<g id="graph0" class="graph" transform="scale(1 1) rotate(0) translate(4 898)">
<title>flowchart</title>
<polygon fill="white" stroke="transparent" points="-4,4 -4,-898 683.5,-898 683.5,4 -4,4"/>
<g id="clust1" class="cluster">
<title>cluster_collect</title>
<polygon fill="none" stroke="black" stroke-dasharray="5,2" points="8,-497 8,-756 150,-756 150,-497 8,-497"/>
<text text-anchor="middle" x="79" y="-740.8" font-family="Times,serif" font-size="14.00">收集记录</text>
</g>
<g id="clust2" class="cluster">
<title>cluster_encode</title>
<polygon fill="none" stroke="black" stroke-dasharray="5,2" points="158,-424 158,-661 458,-661 458,-424 158,-424"/>
<text text-anchor="middle" x="308" y="-645.8" font-family="Times,serif" font-size="14.00">编码记录</text>
</g>
<g id="clust3" class="cluster">
<title>cluster_pages</title>
<polygon fill="none" stroke="black" stroke-dasharray="5,2" points="294,-8 294,-257 558,-257 558,-8 294,-8"/>
<text text-anchor="middle" x="426" y="-241.8" font-family="Times,serif" font-size="14.00">页分配</text>
</g>
<!-- start -->
<g id="node1" class="node">
<title>start</title>
<path fill="none" stroke="black" d="M213,-894C213,-894 183,-894 183,-894 177,-894 171,-888 171,-882 171,-882 171,-870 171,-870 171,-864 177,-858 183,-858 183,-858 213,-858 213,-858 219,-858 225,-864 225,-870 225,-870 225,-882 225,-882 225,-888 219,-894 213,-894"/>
<text text-anchor="middle" x="198" y="-872.3" font-family="Times,serif" font-size="14.00">开始</text>
</g>
<!-- collect_records -->
<g id="node3" class="node">
<title>collect_records</title>
<path fill="none" stroke="black" d="M266.5,-821C266.5,-821 129.5,-821 129.5,-821 123.5,-821 117.5,-815 117.5,-809 117.5,-809 117.5,-795 117.5,-795 117.5,-789 123.5,-783 129.5,-783 129.5,-783 266.5,-783 266.5,-783 272.5,-783 278.5,-789 278.5,-795 278.5,-795 278.5,-809 278.5,-809 278.5,-815 272.5,-821 266.5,-821"/>
<text text-anchor="middle" x="198" y="-805.8" font-family="Times,serif" font-size="14.00">收集所有unwind记录</text>
<text text-anchor="middle" x="198" y="-790.8" font-family="Times,serif" font-size="14.00">遍历sections和atoms</text>
</g>
<!-- start&#45;&gt;collect_records -->
<g id="edge1" class="edge">
<title>start&#45;&gt;collect_records</title>
<path fill="none" stroke="black" d="M198,-857.94C198,-849.99 198,-840.31 198,-831.31"/>
<polygon fill="black" stroke="black" points="198,-821.2 202.5,-831.2 198,-826.2 198,-831.2 198,-831.2 198,-831.2 198,-826.2 193.5,-831.2 198,-821.2 198,-821.2"/>
</g>
<!-- end -->
<g id="node2" class="node">
<title>end</title>
<path fill="none" stroke="black" d="M638,-139C638,-139 608,-139 608,-139 602,-139 596,-133 596,-127 596,-127 596,-115 596,-115 596,-109 602,-103 608,-103 608,-103 638,-103 638,-103 644,-103 650,-109 650,-115 650,-115 650,-127 650,-127 650,-133 644,-139 638,-139"/>
<text text-anchor="middle" x="623" y="-117.3" font-family="Times,serif" font-size="14.00">结束</text>
</g>
<!-- encode_records -->
<g id="node4" class="node">
<title>encode_records</title>
<path fill="none" stroke="black" d="M398,-726C398,-726 216,-726 216,-726 210,-726 204,-720 204,-714 204,-714 204,-700 204,-700 204,-694 210,-688 216,-688 216,-688 398,-688 398,-688 404,-688 410,-694 410,-700 410,-700 410,-714 410,-714 410,-720 404,-726 398,-726"/>
<text text-anchor="middle" x="307" y="-710.8" font-family="Times,serif" font-size="14.00">编码记录</text>
<text text-anchor="middle" x="307" y="-695.8" font-family="Times,serif" font-size="14.00">处理FDE/LSDA/personality</text>
</g>
<!-- collect_records&#45;&gt;encode_records -->
<g id="edge2" class="edge">
<title>collect_records&#45;&gt;encode_records</title>
<path fill="none" stroke="black" d="M219.28,-782.85C235.93,-768.64 259.28,-748.72 277.7,-733"/>
<polygon fill="black" stroke="black" points="285.78,-726.11 281.09,-736.02 281.97,-729.35 278.17,-732.6 278.17,-732.6 278.17,-732.6 281.97,-729.35 275.25,-729.17 285.78,-726.11 285.78,-726.11"/>
</g>
<!-- collect_sections -->
<g id="node11" class="node">
<title>collect_sections</title>
<path fill="none" stroke="black" d="M129,-725C129,-725 49,-725 49,-725 43,-725 37,-719 37,-713 37,-713 37,-701 37,-701 37,-695 43,-689 49,-689 49,-689 129,-689 129,-689 135,-689 141,-695 141,-701 141,-701 141,-713 141,-713 141,-719 135,-725 129,-725"/>
<text text-anchor="middle" x="89" y="-703.3" font-family="Times,serif" font-size="14.00">遍历sections</text>
</g>
<!-- collect_records&#45;&gt;collect_sections -->
<!-- sort_records -->
<g id="node5" class="node">
<title>sort_records</title>
<path fill="none" stroke="black" d="M570,-630C570,-630 478,-630 478,-630 472,-630 466,-624 466,-618 466,-618 466,-606 466,-606 466,-600 472,-594 478,-594 478,-594 570,-594 570,-594 576,-594 582,-600 582,-606 582,-606 582,-618 582,-618 582,-624 576,-630 570,-630"/>
<text text-anchor="middle" x="524" y="-608.3" font-family="Times,serif" font-size="14.00">按地址排序记录</text>
</g>
<!-- encode_records&#45;&gt;sort_records -->
<g id="edge3" class="edge">
<title>encode_records&#45;&gt;sort_records</title>
<path fill="none" stroke="black" d="M390.45,-687.97C414.27,-681.19 439.77,-672.31 462,-661 474.64,-654.57 487.25,-645.43 497.78,-636.84"/>
<polygon fill="black" stroke="black" points="505.72,-630.14 500.98,-640.03 501.9,-633.36 498.08,-636.59 498.08,-636.59 498.08,-636.59 501.9,-633.36 495.18,-633.15 505.72,-630.14 505.72,-630.14"/>
</g>
<!-- check_fde -->
<g id="node14" class="node">
<title>check_fde</title>
<path fill="none" stroke="black" d="M295.16,-628.05C295.16,-628.05 209.58,-613.95 209.58,-613.95 203.66,-612.98 203.66,-611.02 209.58,-610.05 209.58,-610.05 295.16,-595.95 295.16,-595.95 301.08,-594.98 312.92,-594.98 318.84,-595.95 318.84,-595.95 404.42,-610.05 404.42,-610.05 410.34,-611.02 410.34,-612.98 404.42,-613.95 404.42,-613.95 318.84,-628.05 318.84,-628.05 312.92,-629.02 301.08,-629.02 295.16,-628.05"/>
<text text-anchor="middle" x="307" y="-608.3" font-family="Times,serif" font-size="14.00">检查是否有FDE</text>
</g>
<!-- encode_records&#45;&gt;check_fde -->
<!-- fold_records -->
<g id="node6" class="node">
<title>fold_records</title>
<path fill="none" stroke="black" d="M563,-542C563,-542 485,-542 485,-542 479,-542 473,-536 473,-530 473,-530 473,-518 473,-518 473,-512 479,-506 485,-506 485,-506 563,-506 563,-506 569,-506 575,-512 575,-518 575,-518 575,-530 575,-530 575,-536 569,-542 563,-542"/>
<text text-anchor="middle" x="524" y="-520.3" font-family="Times,serif" font-size="14.00">折叠相邻记录</text>
</g>
<!-- sort_records&#45;&gt;fold_records -->
<g id="edge4" class="edge">
<title>sort_records&#45;&gt;fold_records</title>
<path fill="none" stroke="black" d="M524,-593.6C524,-581.75 524,-565.82 524,-552.29"/>
<polygon fill="black" stroke="black" points="524,-542.08 528.5,-552.08 524,-547.08 524,-552.08 524,-552.08 524,-552.08 524,-547.08 519.5,-552.08 524,-542.08 524,-542.08"/>
</g>
<!-- log_records -->
<g id="node7" class="node">
<title>log_records</title>
<path fill="none" stroke="black" d="M549,-468C549,-468 499,-468 499,-468 493,-468 487,-462 487,-456 487,-456 487,-444 487,-444 487,-438 493,-432 499,-432 499,-432 549,-432 549,-432 555,-432 561,-438 561,-444 561,-444 561,-456 561,-456 561,-462 555,-468 549,-468"/>
<text text-anchor="middle" x="524" y="-446.3" font-family="Times,serif" font-size="14.00">记录日志</text>
</g>
<!-- fold_records&#45;&gt;log_records -->
<g id="edge5" class="edge">
<title>fold_records&#45;&gt;log_records</title>
<path fill="none" stroke="black" d="M524,-505.94C524,-497.81 524,-487.88 524,-478.7"/>
<polygon fill="black" stroke="black" points="524,-468.44 528.5,-478.44 524,-473.44 524,-478.44 524,-478.44 524,-478.44 524,-473.44 519.5,-478.44 524,-468.44 524,-468.44"/>
</g>
<!-- compute_common_enc -->
<g id="node8" class="node">
<title>compute_common_enc</title>
<path fill="none" stroke="black" d="M563,-395C563,-395 485,-395 485,-395 479,-395 473,-389 473,-383 473,-383 473,-371 473,-371 473,-365 479,-359 485,-359 485,-359 563,-359 563,-359 569,-359 575,-365 575,-371 575,-371 575,-383 575,-383 575,-389 569,-395 563,-395"/>
<text text-anchor="middle" x="524" y="-373.3" font-family="Times,serif" font-size="14.00">计算公共编码</text>
</g>
<!-- log_records&#45;&gt;compute_common_enc -->
<g id="edge6" class="edge">
<title>log_records&#45;&gt;compute_common_enc</title>
<path fill="none" stroke="black" d="M524,-431.81C524,-423.79 524,-414.05 524,-405.07"/>
<polygon fill="black" stroke="black" points="524,-395.03 528.5,-405.03 524,-400.03 524,-405.03 524,-405.03 524,-405.03 524,-400.03 519.5,-405.03 524,-395.03 524,-395.03"/>
</g>
<!-- allocate_pages -->
<g id="node9" class="node">
<title>allocate_pages</title>
<path fill="none" stroke="black" d="M606,-322C606,-322 442,-322 442,-322 436,-322 430,-316 430,-310 430,-310 430,-296 430,-296 430,-290 436,-284 442,-284 442,-284 606,-284 606,-284 612,-284 618,-290 618,-296 618,-296 618,-310 618,-310 618,-316 612,-322 606,-322"/>
<text text-anchor="middle" x="524" y="-306.8" font-family="Times,serif" font-size="14.00">分配页</text>
<text text-anchor="middle" x="524" y="-291.8" font-family="Times,serif" font-size="14.00">（regular/compressed）</text>
</g>
<!-- compute_common_enc&#45;&gt;allocate_pages -->
<g id="edge7" class="edge">
<title>compute_common_enc&#45;&gt;allocate_pages</title>
<path fill="none" stroke="black" d="M524,-358.94C524,-350.99 524,-341.31 524,-332.31"/>
<polygon fill="black" stroke="black" points="524,-322.2 528.5,-332.2 524,-327.2 524,-332.2 524,-332.2 524,-332.2 524,-327.2 519.5,-332.2 524,-322.2 524,-322.2"/>
</g>
<!-- save_lsda -->
<g id="node10" class="node">
<title>save_lsda</title>
<path fill="none" stroke="black" d="M667.5,-226C667.5,-226 578.5,-226 578.5,-226 572.5,-226 566.5,-220 566.5,-214 566.5,-214 566.5,-202 566.5,-202 566.5,-196 572.5,-190 578.5,-190 578.5,-190 667.5,-190 667.5,-190 673.5,-190 679.5,-196 679.5,-202 679.5,-202 679.5,-214 679.5,-214 679.5,-220 673.5,-226 667.5,-226"/>
<text text-anchor="middle" x="623" y="-204.3" font-family="Times,serif" font-size="14.00">保存LSDA指针</text>
</g>
<!-- allocate_pages&#45;&gt;save_lsda -->
<g id="edge8" class="edge">
<title>allocate_pages&#45;&gt;save_lsda</title>
<path fill="none" stroke="black" d="M543.56,-283.63C559,-269.12 580.67,-248.76 597.48,-232.98"/>
<polygon fill="black" stroke="black" points="604.82,-226.08 600.61,-236.21 601.17,-229.5 597.53,-232.93 597.53,-232.93 597.53,-232.93 601.17,-229.5 594.45,-229.65 604.82,-226.08 604.82,-226.08"/>
</g>
<!-- check_range -->
<g id="node17" class="node">
<title>check_range</title>
<path fill="none" stroke="black" d="M415.13,-224.22C415.13,-224.22 318.55,-209.78 318.55,-209.78 312.61,-208.89 312.61,-207.11 318.55,-206.22 318.55,-206.22 415.13,-191.78 415.13,-191.78 421.07,-190.89 432.93,-190.89 438.87,-191.78 438.87,-191.78 535.45,-206.22 535.45,-206.22 541.39,-207.11 541.39,-208.89 535.45,-209.78 535.45,-209.78 438.87,-224.22 438.87,-224.22 432.93,-225.11 421.07,-225.11 415.13,-224.22"/>
<text text-anchor="middle" x="427" y="-204.3" font-family="Times,serif" font-size="14.00">地址是否超过范围</text>
</g>
<!-- allocate_pages&#45;&gt;check_range -->
<!-- save_lsda&#45;&gt;end -->
<g id="edge9" class="edge">
<title>save_lsda&#45;&gt;end</title>
<path fill="none" stroke="black" d="M623,-189.8C623,-178.16 623,-162.55 623,-149.24"/>
<polygon fill="black" stroke="black" points="623,-139.18 627.5,-149.18 623,-144.18 623,-149.18 623,-149.18 623,-149.18 623,-144.18 618.5,-149.18 623,-139.18 623,-139.18"/>
</g>
<!-- collect_atoms -->
<g id="node12" class="node">
<title>collect_atoms</title>
<path fill="none" stroke="black" d="M115.5,-630C115.5,-630 50.5,-630 50.5,-630 44.5,-630 38.5,-624 38.5,-618 38.5,-618 38.5,-606 38.5,-606 38.5,-600 44.5,-594 50.5,-594 50.5,-594 115.5,-594 115.5,-594 121.5,-594 127.5,-600 127.5,-606 127.5,-606 127.5,-618 127.5,-618 127.5,-624 121.5,-630 115.5,-630"/>
<text text-anchor="middle" x="83" y="-608.3" font-family="Times,serif" font-size="14.00">遍历atoms</text>
</g>
<!-- collect_sections&#45;&gt;collect_atoms -->
<g id="edge10" class="edge">
<title>collect_sections&#45;&gt;collect_atoms</title>
<path fill="none" stroke="black" d="M87.9,-688.94C87.03,-675.39 85.79,-656.18 84.77,-640.47"/>
<polygon fill="black" stroke="black" points="84.11,-630.26 89.25,-639.95 84.44,-635.25 84.76,-640.24 84.76,-640.24 84.76,-640.24 84.44,-635.25 80.27,-640.53 84.11,-630.26 84.11,-630.26"/>
</g>
<!-- collect_unwind -->
<g id="node13" class="node">
<title>collect_unwind</title>
<path fill="none" stroke="black" d="M130,-543C130,-543 28,-543 28,-543 22,-543 16,-537 16,-531 16,-531 16,-517 16,-517 16,-511 22,-505 28,-505 28,-505 130,-505 130,-505 136,-505 142,-511 142,-517 142,-517 142,-531 142,-531 142,-537 136,-543 130,-543"/>
<text text-anchor="middle" x="79" y="-527.8" font-family="Times,serif" font-size="14.00">获取unwind记录</text>
<text text-anchor="middle" x="79" y="-512.8" font-family="Times,serif" font-size="14.00">筛选存活记录</text>
</g>
<!-- collect_atoms&#45;&gt;collect_unwind -->
<g id="edge11" class="edge">
<title>collect_atoms&#45;&gt;collect_unwind</title>
<path fill="none" stroke="black" d="M82.19,-593.6C81.65,-582.06 80.94,-566.65 80.32,-553.36"/>
<polygon fill="black" stroke="black" points="79.85,-543.27 84.81,-553.05 80.08,-548.26 80.31,-553.26 80.31,-553.26 80.31,-553.26 80.08,-548.26 75.82,-553.47 79.85,-543.27 79.85,-543.27"/>
</g>
<!-- handle_fde -->
<g id="node15" class="node">
<title>handle_fde</title>
<path fill="none" stroke="black" d="M352,-543C352,-543 206,-543 206,-543 200,-543 194,-537 194,-531 194,-531 194,-517 194,-517 194,-511 200,-505 206,-505 206,-505 352,-505 352,-505 358,-505 364,-511 364,-517 364,-517 364,-531 364,-531 364,-537 358,-543 352,-543"/>
<text text-anchor="middle" x="279" y="-527.8" font-family="Times,serif" font-size="14.00">设置DWARF偏移</text>
<text text-anchor="middle" x="279" y="-512.8" font-family="Times,serif" font-size="14.00">处理LSDA/personality</text>
</g>
<!-- check_fde&#45;&gt;handle_fde -->
<g id="edge12" class="edge">
<title>check_fde&#45;&gt;handle_fde</title>
<path fill="none" stroke="black" d="M301.73,-594.82C297.88,-583 292.57,-566.67 288.04,-552.78"/>
<polygon fill="black" stroke="black" points="284.92,-543.19 292.3,-551.3 286.47,-547.94 288.02,-552.7 288.02,-552.7 288.02,-552.7 286.47,-547.94 283.74,-554.09 284.92,-543.19 284.92,-543.19"/>
<text text-anchor="middle" x="303.5" y="-564.8" font-family="Times,serif" font-size="14.00">是</text>
</g>
<!-- check_personality -->
<g id="node16" class="node">
<title>check_personality</title>
<path fill="none" stroke="black" d="M296.1,-466.49C296.1,-466.49 178.3,-451.51 178.3,-451.51 172.35,-450.76 172.35,-449.24 178.3,-448.49 178.3,-448.49 296.1,-433.51 296.1,-433.51 302.05,-432.76 313.95,-432.76 319.9,-433.51 319.9,-433.51 437.7,-448.49 437.7,-448.49 443.65,-449.24 443.65,-450.76 437.7,-451.51 437.7,-451.51 319.9,-466.49 319.9,-466.49 313.95,-467.24 302.05,-467.24 296.1,-466.49"/>
<text text-anchor="middle" x="308" y="-446.3" font-family="Times,serif" font-size="14.00">处理personality函数</text>
</g>
<!-- check_fde&#45;&gt;check_personality -->
<g id="edge13" class="edge">
<title>check_fde&#45;&gt;check_personality</title>
<path fill="none" stroke="black" d="M327.12,-597.2C342.94,-585.03 363.79,-565.72 373,-543 380.68,-524.05 382.39,-515.16 373,-497 367.19,-485.78 357.25,-476.7 346.86,-469.68"/>
<polygon fill="black" stroke="black" points="338.11,-464.25 348.98,-465.7 342.36,-466.89 346.6,-469.52 346.6,-469.52 346.6,-469.52 342.36,-466.89 344.23,-473.35 338.11,-464.25 338.11,-464.25"/>
<text text-anchor="middle" x="387.5" y="-520.3" font-family="Times,serif" font-size="14.00">否</text>
</g>
<!-- handle_fde&#45;&gt;check_personality -->
<g id="edge14" class="edge">
<title>handle_fde&#45;&gt;check_personality</title>
<path fill="none" stroke="black" d="M286.32,-504.83C289.72,-496.39 293.83,-486.19 297.55,-476.96"/>
<polygon fill="black" stroke="black" points="301.38,-467.44 301.82,-478.4 299.51,-472.08 297.64,-476.72 297.64,-476.72 297.64,-476.72 299.51,-472.08 293.47,-475.03 301.38,-467.44 301.38,-467.44"/>
</g>
<!-- check_encoding -->
<g id="node18" class="node">
<title>check_encoding</title>
<path fill="none" stroke="black" d="M414.12,-137.28C414.12,-137.28 313.7,-122.72 313.7,-122.72 307.77,-121.86 307.77,-120.14 313.7,-119.28 313.7,-119.28 414.12,-104.72 414.12,-104.72 420.06,-103.86 431.94,-103.86 437.88,-104.72 437.88,-104.72 538.3,-119.28 538.3,-119.28 544.23,-120.14 544.23,-121.86 538.3,-122.72 538.3,-122.72 437.88,-137.28 437.88,-137.28 431.94,-138.14 420.06,-138.14 414.12,-137.28"/>
<text text-anchor="middle" x="426" y="-117.3" font-family="Times,serif" font-size="14.00">是否为公共/页编码</text>
</g>
<!-- check_range&#45;&gt;check_encoding -->
<g id="edge15" class="edge">
<title>check_range&#45;&gt;check_encoding</title>
<path fill="none" stroke="black" d="M426.8,-189.8C426.66,-178.16 426.48,-162.55 426.32,-149.24"/>
<polygon fill="black" stroke="black" points="426.2,-139.18 430.82,-149.12 426.26,-144.18 426.32,-149.17 426.32,-149.17 426.32,-149.17 426.26,-144.18 421.82,-149.23 426.2,-139.18 426.2,-139.18"/>
<text text-anchor="middle" x="433.5" y="-160.8" font-family="Times,serif" font-size="14.00">否</text>
</g>
<!-- add_page -->
<g id="node19" class="node">
<title>add_page</title>
<path fill="none" stroke="black" d="M409,-52C409,-52 331,-52 331,-52 325,-52 319,-46 319,-40 319,-40 319,-28 319,-28 319,-22 325,-16 331,-16 331,-16 409,-16 409,-16 415,-16 421,-22 421,-28 421,-28 421,-40 421,-40 421,-46 415,-52 409,-52"/>
<text text-anchor="middle" x="370" y="-30.3" font-family="Times,serif" font-size="14.00">添加到当前页</text>
</g>
<!-- check_encoding&#45;&gt;add_page -->
<g id="edge16" class="edge">
<title>check_encoding&#45;&gt;add_page</title>
<path fill="none" stroke="black" d="M415.73,-104.41C407.67,-92.19 396.3,-74.91 386.91,-60.66"/>
<polygon fill="black" stroke="black" points="381.36,-52.25 390.62,-58.12 384.11,-56.42 386.86,-60.6 386.86,-60.6 386.86,-60.6 384.11,-56.42 383.11,-63.07 381.36,-52.25 381.36,-52.25"/>
<text text-anchor="middle" x="408.5" y="-73.8" font-family="Times,serif" font-size="14.00">是</text>
</g>
<!-- new_page -->
<g id="node20" class="node">
<title>new_page</title>
<path fill="none" stroke="black" d="M501,-52C501,-52 451,-52 451,-52 445,-52 439,-46 439,-40 439,-40 439,-28 439,-28 439,-22 445,-16 451,-16 451,-16 501,-16 501,-16 507,-16 513,-22 513,-28 513,-28 513,-40 513,-40 513,-46 507,-52 501,-52"/>
<text text-anchor="middle" x="476" y="-30.3" font-family="Times,serif" font-size="14.00">创建新页</text>
</g>
<!-- check_encoding&#45;&gt;new_page -->
<g id="edge17" class="edge">
<title>check_encoding&#45;&gt;new_page</title>
<path fill="none" stroke="black" d="M435.4,-104.01C442.55,-91.86 452.53,-74.9 460.81,-60.83"/>
<polygon fill="black" stroke="black" points="465.95,-52.08 464.76,-62.98 463.42,-56.39 460.88,-60.7 460.88,-60.7 460.88,-60.7 463.42,-56.39 457,-58.42 465.95,-52.08 465.95,-52.08"/>
<text text-anchor="middle" x="460.5" y="-73.8" font-family="Times,serif" font-size="14.00">否</text>
</g>
</g>
</svg>
