<?xml version="1.0" encoding="UTF-8" standalone="no"?>
<!DOCTYPE svg PUBLIC "-//W3C//DTD SVG 1.1//EN"
 "http://www.w3.org/Graphics/SVG/1.1/DTD/svg11.dtd">
<!-- Generated by graphviz version 2.43.0 (0)
 -->
<!-- Title: flushStaticLib Pages: 1 -->
<svg width="533pt" height="2233pt"
 viewBox="0.00 0.00 533.00 2233.00" xmlns="http://www.w3.org/2000/svg" xmlns:xlink="http://www.w3.org/1999/xlink">
<g id="graph0" class="graph" transform="scale(1 1) rotate(0) translate(4 2229)">
<title>flushStaticLib</title>
<polygon fill="white" stroke="transparent" points="-4,4 -4,-2229 529,-2229 529,4 -4,4"/>
<!-- start -->
<g id="node1" class="node">
<title>start</title>
<ellipse fill="none" stroke="black" cx="359.5" cy="-2207" rx="29.5" ry="18"/>
<text text-anchor="middle" x="359.5" y="-2203.3" font-family="Times,serif" font-size="14.00">开始</text>
</g>
<!-- init_vars -->
<g id="node3" class="node">
<title>init_vars</title>
<polygon fill="none" stroke="black" points="491,-2152 228,-2152 228,-2116 491,-2116 491,-2152"/>
<text text-anchor="middle" x="359.5" y="-2130.3" font-family="Times,serif" font-size="14.00">初始化变量 (gpa, diags, positionals)</text>
</g>
<!-- start&#45;&gt;init_vars -->
<g id="edge1" class="edge">
<title>start&#45;&gt;init_vars</title>
<path fill="none" stroke="black" d="M359.5,-2188.81C359.5,-2180.79 359.5,-2171.05 359.5,-2162.07"/>
<polygon fill="black" stroke="black" points="363,-2162.03 359.5,-2152.03 356,-2162.03 363,-2162.03"/>
</g>
<!-- end -->
<g id="node2" class="node">
<title>end</title>
<ellipse fill="none" stroke="black" cx="212.5" cy="-18" rx="29.5" ry="18"/>
<text text-anchor="middle" x="212.5" y="-14.3" font-family="Times,serif" font-size="14.00">结束</text>
</g>
<!-- collect_inputs -->
<g id="node4" class="node">
<title>collect_inputs</title>
<polygon fill="none" stroke="black" points="525,-2079 194,-2079 194,-2041 525,-2041 525,-2079"/>
<text text-anchor="middle" x="359.5" y="-2063.8" font-family="Times,serif" font-size="14.00">收集输入文件到 positionals</text>
<text text-anchor="middle" x="359.5" y="-2048.8" font-family="Times,serif" font-size="14.00">（包括 c_object_table、module_obj_path 等）</text>
</g>
<!-- init_vars&#45;&gt;collect_inputs -->
<g id="edge2" class="edge">
<title>init_vars&#45;&gt;collect_inputs</title>
<path fill="none" stroke="black" d="M359.5,-2115.94C359.5,-2107.99 359.5,-2098.31 359.5,-2089.31"/>
<polygon fill="black" stroke="black" points="363,-2089.2 359.5,-2079.2 356,-2089.2 363,-2089.2"/>
</g>
<!-- classify_inputs -->
<g id="node5" class="node">
<title>classify_inputs</title>
<polygon fill="none" stroke="black" points="446,-2004 273,-2004 273,-1968 446,-1968 446,-2004"/>
<text text-anchor="middle" x="359.5" y="-1982.3" font-family="Times,serif" font-size="14.00">对每个输入文件进行分类</text>
</g>
<!-- collect_inputs&#45;&gt;classify_inputs -->
<g id="edge3" class="edge">
<title>collect_inputs&#45;&gt;classify_inputs</title>
<path fill="none" stroke="black" d="M359.5,-2040.83C359.5,-2032.89 359.5,-2023.41 359.5,-2014.63"/>
<polygon fill="black" stroke="black" points="363,-2014.42 359.5,-2004.42 356,-2014.42 363,-2014.42"/>
</g>
<!-- error_check1 -->
<g id="node26" class="node">
<title>error_check1</title>
<polygon fill="none" stroke="black" points="359.5,-1931 291.46,-1913 359.5,-1895 427.54,-1913 359.5,-1931"/>
<text text-anchor="middle" x="359.5" y="-1909.3" font-family="Times,serif" font-size="14.00">检查错误</text>
</g>
<!-- classify_inputs&#45;&gt;error_check1 -->
<g id="edge4" class="edge">
<title>classify_inputs&#45;&gt;error_check1</title>
<path fill="none" stroke="black" d="M359.5,-1967.81C359.5,-1959.79 359.5,-1950.05 359.5,-1941.07"/>
<polygon fill="black" stroke="black" points="363,-1941.03 359.5,-1931.03 356,-1941.03 363,-1941.03"/>
</g>
<!-- parse_files -->
<g id="node6" class="node">
<title>parse_files</title>
<polygon fill="none" stroke="black" points="406.5,-1844 160.5,-1844 160.5,-1808 406.5,-1808 406.5,-1844"/>
<text text-anchor="middle" x="283.5" y="-1822.3" font-family="Times,serif" font-size="14.00">解析输入文件 (parseInputFilesAr)</text>
</g>
<!-- error_check2 -->
<g id="node27" class="node">
<title>error_check2</title>
<polygon fill="none" stroke="black" points="283.5,-1771 215.46,-1753 283.5,-1735 351.54,-1753 283.5,-1771"/>
<text text-anchor="middle" x="283.5" y="-1749.3" font-family="Times,serif" font-size="14.00">检查错误</text>
</g>
<!-- parse_files&#45;&gt;error_check2 -->
<g id="edge7" class="edge">
<title>parse_files&#45;&gt;error_check2</title>
<path fill="none" stroke="black" d="M283.5,-1807.81C283.5,-1799.79 283.5,-1790.05 283.5,-1781.07"/>
<polygon fill="black" stroke="black" points="287,-1781.03 283.5,-1771.03 280,-1781.03 287,-1781.03"/>
</g>
<!-- handle_zig_object -->
<g id="node7" class="node">
<title>handle_zig_object</title>
<polygon fill="none" stroke="black" points="323.5,-1684 189.5,-1684 189.5,-1648 323.5,-1648 323.5,-1684"/>
<text text-anchor="middle" x="256.5" y="-1662.3" font-family="Times,serif" font-size="14.00">处理 Zig 对象文件</text>
</g>
<!-- resolve_symbols -->
<g id="node8" class="node">
<title>resolve_symbols</title>
<polygon fill="none" stroke="black" points="327,-1611 126,-1611 126,-1575 327,-1575 327,-1611"/>
<text text-anchor="middle" x="226.5" y="-1589.3" font-family="Times,serif" font-size="14.00">解析符号 (resolveSymbols)</text>
</g>
<!-- handle_zig_object&#45;&gt;resolve_symbols -->
<g id="edge10" class="edge">
<title>handle_zig_object&#45;&gt;resolve_symbols</title>
<path fill="none" stroke="black" d="M249.24,-1647.81C245.77,-1639.62 241.55,-1629.62 237.69,-1620.48"/>
<polygon fill="black" stroke="black" points="240.81,-1618.88 233.7,-1611.03 234.36,-1621.6 240.81,-1618.88"/>
</g>
<!-- mark_exports -->
<g id="node9" class="node">
<title>mark_exports</title>
<polygon fill="none" stroke="black" points="326,-1538 61,-1538 61,-1502 326,-1502 326,-1538"/>
<text text-anchor="middle" x="193.5" y="-1516.3" font-family="Times,serif" font-size="14.00">标记导出 (markExportsRelocatable)</text>
</g>
<!-- resolve_symbols&#45;&gt;mark_exports -->
<g id="edge11" class="edge">
<title>resolve_symbols&#45;&gt;mark_exports</title>
<path fill="none" stroke="black" d="M218.51,-1574.81C214.66,-1566.53 209.96,-1556.41 205.67,-1547.19"/>
<polygon fill="black" stroke="black" points="208.8,-1545.62 201.41,-1538.03 202.46,-1548.57 208.8,-1545.62"/>
</g>
<!-- claim_unresolved -->
<g id="node10" class="node">
<title>claim_unresolved</title>
<polygon fill="none" stroke="black" points="335,-1465 0,-1465 0,-1429 335,-1429 335,-1465"/>
<text text-anchor="middle" x="167.5" y="-1443.3" font-family="Times,serif" font-size="14.00">处理未解析符号 (claimUnresolvedRelocatable)</text>
</g>
<!-- mark_exports&#45;&gt;claim_unresolved -->
<g id="edge12" class="edge">
<title>mark_exports&#45;&gt;claim_unresolved</title>
<path fill="none" stroke="black" d="M187.21,-1501.81C184.2,-1493.62 180.55,-1483.62 177.2,-1474.48"/>
<polygon fill="black" stroke="black" points="180.46,-1473.22 173.74,-1465.03 173.89,-1475.62 180.46,-1473.22"/>
</g>
<!-- sort_sections -->
<g id="node11" class="node">
<title>sort_sections</title>
<polygon fill="none" stroke="black" points="249.5,-1392 85.5,-1392 85.5,-1356 249.5,-1356 249.5,-1392"/>
<text text-anchor="middle" x="167.5" y="-1370.3" font-family="Times,serif" font-size="14.00">排序节 (sortSections)</text>
</g>
<!-- claim_unresolved&#45;&gt;sort_sections -->
<g id="edge13" class="edge">
<title>claim_unresolved&#45;&gt;sort_sections</title>
<path fill="none" stroke="black" d="M167.5,-1428.81C167.5,-1420.79 167.5,-1411.05 167.5,-1402.07"/>
<polygon fill="black" stroke="black" points="171,-1402.03 167.5,-1392.03 164,-1402.03 171,-1402.03"/>
</g>
<!-- add_atoms -->
<g id="node12" class="node">
<title>add_atoms</title>
<polygon fill="none" stroke="black" points="300.5,-1319 34.5,-1319 34.5,-1283 300.5,-1283 300.5,-1319"/>
<text text-anchor="middle" x="167.5" y="-1297.3" font-family="Times,serif" font-size="14.00">添加原子到节 (addAtomsToSections)</text>
</g>
<!-- sort_sections&#45;&gt;add_atoms -->
<g id="edge14" class="edge">
<title>sort_sections&#45;&gt;add_atoms</title>
<path fill="none" stroke="black" d="M167.5,-1355.81C167.5,-1347.79 167.5,-1338.05 167.5,-1329.07"/>
<polygon fill="black" stroke="black" points="171,-1329.03 167.5,-1319.03 164,-1329.03 171,-1329.03"/>
</g>
<!-- calc_sizes -->
<g id="node13" class="node">
<title>calc_sizes</title>
<polygon fill="none" stroke="black" points="278,-1246 57,-1246 57,-1210 278,-1210 278,-1246"/>
<text text-anchor="middle" x="167.5" y="-1224.3" font-family="Times,serif" font-size="14.00">计算节大小 (calcSectionSizes)</text>
</g>
<!-- add_atoms&#45;&gt;calc_sizes -->
<g id="edge15" class="edge">
<title>add_atoms&#45;&gt;calc_sizes</title>
<path fill="none" stroke="black" d="M167.5,-1282.81C167.5,-1274.79 167.5,-1265.05 167.5,-1256.07"/>
<polygon fill="black" stroke="black" points="171,-1256.03 167.5,-1246.03 164,-1256.03 171,-1256.03"/>
</g>
<!-- create_segment -->
<g id="node14" class="node">
<title>create_segment</title>
<polygon fill="none" stroke="black" points="259,-1173 76,-1173 76,-1137 259,-1137 259,-1173"/>
<text text-anchor="middle" x="167.5" y="-1151.3" font-family="Times,serif" font-size="14.00">创建段 (createSegment)</text>
</g>
<!-- calc_sizes&#45;&gt;create_segment -->
<g id="edge16" class="edge">
<title>calc_sizes&#45;&gt;create_segment</title>
<path fill="none" stroke="black" d="M167.5,-1209.81C167.5,-1201.79 167.5,-1192.05 167.5,-1183.07"/>
<polygon fill="black" stroke="black" points="171,-1183.03 167.5,-1173.03 164,-1183.03 171,-1183.03"/>
</g>
<!-- allocate_sections -->
<g id="node15" class="node">
<title>allocate_sections</title>
<polygon fill="none" stroke="black" points="277,-1100 58,-1100 58,-1064 277,-1064 277,-1100"/>
<text text-anchor="middle" x="167.5" y="-1078.3" font-family="Times,serif" font-size="14.00">分配节内存 (allocateSections)</text>
</g>
<!-- create_segment&#45;&gt;allocate_sections -->
<g id="edge17" class="edge">
<title>create_segment&#45;&gt;allocate_sections</title>
<path fill="none" stroke="black" d="M167.5,-1136.81C167.5,-1128.79 167.5,-1119.05 167.5,-1110.07"/>
<polygon fill="black" stroke="black" points="171,-1110.03 167.5,-1100.03 164,-1110.03 171,-1110.03"/>
</g>
<!-- allocate_segment -->
<g id="node16" class="node">
<title>allocate_segment</title>
<polygon fill="none" stroke="black" points="264.5,-1027 70.5,-1027 70.5,-991 264.5,-991 264.5,-1027"/>
<text text-anchor="middle" x="167.5" y="-1005.3" font-family="Times,serif" font-size="14.00">分配段 (allocateSegment)</text>
</g>
<!-- allocate_sections&#45;&gt;allocate_segment -->
<g id="edge18" class="edge">
<title>allocate_sections&#45;&gt;allocate_segment</title>
<path fill="none" stroke="black" d="M167.5,-1063.81C167.5,-1055.79 167.5,-1046.05 167.5,-1037.07"/>
<polygon fill="black" stroke="black" points="171,-1037.03 167.5,-1027.03 164,-1037.03 171,-1037.03"/>
</g>
<!-- write_sections -->
<g id="node17" class="node">
<title>write_sections</title>
<polygon fill="none" stroke="black" points="268,-954 67,-954 67,-918 268,-918 268,-954"/>
<text text-anchor="middle" x="167.5" y="-932.3" font-family="Times,serif" font-size="14.00">写入节内容 (writeSections)</text>
</g>
<!-- allocate_segment&#45;&gt;write_sections -->
<g id="edge19" class="edge">
<title>allocate_segment&#45;&gt;write_sections</title>
<path fill="none" stroke="black" d="M167.5,-990.81C167.5,-982.79 167.5,-973.05 167.5,-964.07"/>
<polygon fill="black" stroke="black" points="171,-964.03 167.5,-954.03 164,-964.03 171,-964.03"/>
</g>
<!-- sanitize_sections -->
<g id="node18" class="node">
<title>sanitize_sections</title>
<polygon fill="none" stroke="black" points="281.5,-881 53.5,-881 53.5,-845 281.5,-845 281.5,-881"/>
<text text-anchor="middle" x="167.5" y="-859.3" font-family="Times,serif" font-size="14.00">清理段名 (sanitizeZigSections)</text>
</g>
<!-- write_sections&#45;&gt;sanitize_sections -->
<g id="edge20" class="edge">
<title>write_sections&#45;&gt;sanitize_sections</title>
<path fill="none" stroke="black" d="M167.5,-917.81C167.5,-909.79 167.5,-900.05 167.5,-891.07"/>
<polygon fill="black" stroke="black" points="171,-891.03 167.5,-881.03 164,-891.03 171,-891.03"/>
</g>
<!-- write_load_commands -->
<g id="node19" class="node">
<title>write_load_commands</title>
<polygon fill="none" stroke="black" points="303,-808 34,-808 34,-772 303,-772 303,-808"/>
<text text-anchor="middle" x="168.5" y="-786.3" font-family="Times,serif" font-size="14.00">写入加载命令 (writeLoadCommands)</text>
</g>
<!-- sanitize_sections&#45;&gt;write_load_commands -->
<g id="edge21" class="edge">
<title>sanitize_sections&#45;&gt;write_load_commands</title>
<path fill="none" stroke="black" d="M167.74,-844.81C167.86,-836.79 167.99,-827.05 168.12,-818.07"/>
<polygon fill="black" stroke="black" points="171.62,-818.08 168.26,-808.03 164.62,-817.98 171.62,-818.08"/>
</g>
<!-- write_header -->
<g id="node20" class="node">
<title>write_header</title>
<polygon fill="none" stroke="black" points="250.5,-735 86.5,-735 86.5,-699 250.5,-699 250.5,-735"/>
<text text-anchor="middle" x="168.5" y="-713.3" font-family="Times,serif" font-size="14.00">写入头 (writeHeader)</text>
</g>
<!-- write_load_commands&#45;&gt;write_header -->
<g id="edge22" class="edge">
<title>write_load_commands&#45;&gt;write_header</title>
<path fill="none" stroke="black" d="M168.5,-771.81C168.5,-763.79 168.5,-754.05 168.5,-745.07"/>
<polygon fill="black" stroke="black" points="172,-745.03 168.5,-735.03 165,-745.03 172,-745.03"/>
</g>
<!-- collect_files -->
<g id="node21" class="node">
<title>collect_files</title>
<polygon fill="none" stroke="black" points="234,-662 103,-662 103,-626 234,-626 234,-662"/>
<text text-anchor="middle" x="168.5" y="-640.3" font-family="Times,serif" font-size="14.00">收集所有文件索引</text>
</g>
<!-- write_header&#45;&gt;collect_files -->
<g id="edge23" class="edge">
<title>write_header&#45;&gt;collect_files</title>
<path fill="none" stroke="black" d="M168.5,-698.81C168.5,-690.79 168.5,-681.05 168.5,-672.07"/>
<polygon fill="black" stroke="black" points="172,-672.03 168.5,-662.03 165,-672.03 172,-672.03"/>
</g>
<!-- update_symtab -->
<g id="node22" class="node">
<title>update_symtab</title>
<polygon fill="none" stroke="black" points="271.5,-589 65.5,-589 65.5,-553 271.5,-553 271.5,-589"/>
<text text-anchor="middle" x="168.5" y="-567.3" font-family="Times,serif" font-size="14.00">更新归档符号表 (ar_symtab)</text>
</g>
<!-- collect_files&#45;&gt;update_symtab -->
<g id="edge24" class="edge">
<title>collect_files&#45;&gt;update_symtab</title>
<path fill="none" stroke="black" d="M168.5,-625.81C168.5,-617.79 168.5,-608.05 168.5,-599.07"/>
<polygon fill="black" stroke="black" points="172,-599.03 168.5,-589.03 165,-599.03 172,-599.03"/>
</g>
<!-- calculate_size -->
<g id="node23" class="node">
<title>calculate_size</title>
<polygon fill="none" stroke="black" points="248,-516 89,-516 89,-480 248,-480 248,-516"/>
<text text-anchor="middle" x="168.5" y="-494.3" font-family="Times,serif" font-size="14.00">计算总大小和文件偏移</text>
</g>
<!-- update_symtab&#45;&gt;calculate_size -->
<g id="edge25" class="edge">
<title>update_symtab&#45;&gt;calculate_size</title>
<path fill="none" stroke="black" d="M168.5,-552.81C168.5,-544.79 168.5,-535.05 168.5,-526.07"/>
<polygon fill="black" stroke="black" points="172,-526.03 168.5,-516.03 165,-526.03 172,-526.03"/>
</g>
<!-- write_archive -->
<g id="node24" class="node">
<title>write_archive</title>
<polygon fill="none" stroke="black" points="248,-443 89,-443 89,-407 248,-407 248,-443"/>
<text text-anchor="middle" x="168.5" y="-421.3" font-family="Times,serif" font-size="14.00">写入归档内容到缓冲区</text>
</g>
<!-- calculate_size&#45;&gt;write_archive -->
<g id="edge26" class="edge">
<title>calculate_size&#45;&gt;write_archive</title>
<path fill="none" stroke="black" d="M168.5,-479.81C168.5,-471.79 168.5,-462.05 168.5,-453.07"/>
<polygon fill="black" stroke="black" points="172,-453.03 168.5,-443.03 165,-453.03 172,-453.03"/>
</g>
<!-- error_check3 -->
<g id="node28" class="node">
<title>error_check3</title>
<polygon fill="none" stroke="black" points="171.5,-370 103.46,-352 171.5,-334 239.54,-352 171.5,-370"/>
<text text-anchor="middle" x="171.5" y="-348.3" font-family="Times,serif" font-size="14.00">检查错误</text>
</g>
<!-- write_archive&#45;&gt;error_check3 -->
<g id="edge27" class="edge">
<title>write_archive&#45;&gt;error_check3</title>
<path fill="none" stroke="black" d="M169.23,-406.81C169.57,-398.79 169.98,-389.05 170.36,-380.07"/>
<polygon fill="black" stroke="black" points="173.86,-380.17 170.78,-370.03 166.86,-379.87 173.86,-380.17"/>
</g>
<!-- write_to_file -->
<g id="node25" class="node">
<title>write_to_file</title>
<polygon fill="none" stroke="black" points="277,-283 66,-283 66,-247 277,-247 277,-283"/>
<text text-anchor="middle" x="171.5" y="-261.3" font-family="Times,serif" font-size="14.00">将缓冲区写入文件 (pwriteAll)</text>
</g>
<!-- error_check4 -->
<g id="node29" class="node">
<title>error_check4</title>
<polygon fill="none" stroke="black" points="200.5,-196 132.46,-178 200.5,-160 268.54,-178 200.5,-196"/>
<text text-anchor="middle" x="200.5" y="-174.3" font-family="Times,serif" font-size="14.00">检查错误</text>
</g>
<!-- write_to_file&#45;&gt;error_check4 -->
<g id="edge30" class="edge">
<title>write_to_file&#45;&gt;error_check4</title>
<path fill="none" stroke="black" d="M177.37,-246.8C181.51,-234.66 187.13,-218.19 191.79,-204.53"/>
<polygon fill="black" stroke="black" points="195.21,-205.34 195.13,-194.74 188.59,-203.08 195.21,-205.34"/>
</g>
<!-- error_check1&#45;&gt;parse_files -->
<g id="edge5" class="edge">
<title>error_check1&#45;&gt;parse_files</title>
<path fill="none" stroke="black" d="M346.95,-1897.96C335.75,-1885.44 319.09,-1866.8 305.65,-1851.77"/>
<polygon fill="black" stroke="black" points="308.23,-1849.41 298.96,-1844.29 303.02,-1854.08 308.23,-1849.41"/>
<text text-anchor="middle" x="347" y="-1865.8" font-family="Times,serif" font-size="14.00">无错误</text>
</g>
<!-- error_link_failure -->
<g id="node30" class="node">
<title>error_link_failure</title>
<ellipse fill="none" stroke="black" cx="345.5" cy="-91" rx="84.49" ry="18"/>
<text text-anchor="middle" x="345.5" y="-87.3" font-family="Times,serif" font-size="14.00">返回 LinkFailure</text>
</g>
<!-- error_check1&#45;&gt;error_link_failure -->
<g id="edge6" class="edge">
<title>error_check1&#45;&gt;error_link_failure</title>
<path fill="none" stroke="black" d="M380.39,-1900.24C402.58,-1886.02 434.5,-1859.87 434.5,-1827 434.5,-1827 434.5,-1827 434.5,-177 434.5,-148.87 410.95,-127.19 388.08,-112.76"/>
<polygon fill="black" stroke="black" points="389.78,-109.7 379.4,-107.59 386.2,-115.72 389.78,-109.7"/>
<text text-anchor="middle" x="456" y="-1005.3" font-family="Times,serif" font-size="14.00">有错误</text>
</g>
<!-- error_check2&#45;&gt;handle_zig_object -->
<g id="edge8" class="edge">
<title>error_check2&#45;&gt;handle_zig_object</title>
<path fill="none" stroke="black" d="M278.42,-1736.01C274.64,-1724.09 269.38,-1707.54 264.96,-1693.64"/>
<polygon fill="black" stroke="black" points="268.29,-1692.55 261.93,-1684.08 261.62,-1694.67 268.29,-1692.55"/>
<text text-anchor="middle" x="293" y="-1705.8" font-family="Times,serif" font-size="14.00">无错误</text>
</g>
<!-- error_check2&#45;&gt;error_link_failure -->
<g id="edge9" class="edge">
<title>error_check2&#45;&gt;error_link_failure</title>
<path fill="none" stroke="black" d="M305.78,-1740.59C329.46,-1726.7 363.5,-1700.84 363.5,-1667 363.5,-1667 363.5,-1667 363.5,-177 363.5,-157.33 358.83,-135.63 354.24,-119.09"/>
<polygon fill="black" stroke="black" points="357.47,-117.64 351.29,-109.03 350.75,-119.61 357.47,-117.64"/>
<text text-anchor="middle" x="385" y="-932.3" font-family="Times,serif" font-size="14.00">有错误</text>
</g>
<!-- error_check3&#45;&gt;write_to_file -->
<g id="edge28" class="edge">
<title>error_check3&#45;&gt;write_to_file</title>
<path fill="none" stroke="black" d="M171.5,-333.8C171.5,-322.16 171.5,-306.55 171.5,-293.24"/>
<polygon fill="black" stroke="black" points="175,-293.18 171.5,-283.18 168,-293.18 175,-293.18"/>
<text text-anchor="middle" x="193" y="-304.8" font-family="Times,serif" font-size="14.00">无错误</text>
</g>
<!-- error_check3&#45;&gt;error_link_failure -->
<g id="edge29" class="edge">
<title>error_check3&#45;&gt;error_link_failure</title>
<path fill="none" stroke="black" d="M199.78,-341.27C225.99,-330.84 264.19,-311.78 286.5,-283 306.06,-257.77 297.19,-244.54 306.5,-214 316.48,-181.24 328.57,-143.75 336.61,-119.07"/>
<polygon fill="black" stroke="black" points="340.02,-119.92 339.8,-109.33 333.36,-117.75 340.02,-119.92"/>
<text text-anchor="middle" x="328" y="-217.8" font-family="Times,serif" font-size="14.00">有错误</text>
</g>
<!-- error_check4&#45;&gt;end -->
<g id="edge31" class="edge">
<title>error_check4&#45;&gt;end</title>
<path fill="none" stroke="black" d="M201.78,-160.09C203.85,-132.91 207.92,-79.25 210.41,-46.5"/>
<polygon fill="black" stroke="black" points="213.92,-46.5 211.19,-36.27 206.94,-45.97 213.92,-46.5"/>
<text text-anchor="middle" x="230" y="-87.3" font-family="Times,serif" font-size="14.00">无错误</text>
</g>
<!-- error_check4&#45;&gt;error_link_failure -->
<g id="edge32" class="edge">
<title>error_check4&#45;&gt;error_link_failure</title>
<path fill="none" stroke="black" d="M211.31,-162.54C220.23,-151.49 233.77,-136.57 248.5,-127 259.63,-119.77 272.44,-113.8 285.03,-108.95"/>
<polygon fill="black" stroke="black" points="286.39,-112.18 294.59,-105.47 283.99,-105.61 286.39,-112.18"/>
<text text-anchor="middle" x="270" y="-130.8" font-family="Times,serif" font-size="14.00">有错误</text>
</g>
<!-- error_link_failure&#45;&gt;end -->
<g id="edge33" class="edge">
<title>error_link_failure&#45;&gt;end</title>
<path fill="none" stroke="black" stroke-dasharray="1,5" d="M315.65,-74.07C293.94,-62.48 264.65,-46.84 242.82,-35.19"/>
<polygon fill="black" stroke="black" points="244.44,-32.08 233.97,-30.46 241.15,-38.26 244.44,-32.08"/>
</g>
</g>
</svg>
