<?xml version="1.0" encoding="UTF-8" standalone="no"?>
<!DOCTYPE svg PUBLIC "-//W3C//DTD SVG 1.1//EN"
 "http://www.w3.org/Graphics/SVG/1.1/DTD/svg11.dtd">
<!-- Generated by graphviz version 2.43.0 (0)
 -->
<!-- Title: next_token_flowchart Pages: 1 -->
<svg width="1649pt" height="719pt"
 viewBox="0.00 0.00 1649.00 718.50" xmlns="http://www.w3.org/2000/svg" xmlns:xlink="http://www.w3.org/1999/xlink">
<g id="graph0" class="graph" transform="scale(1 1) rotate(0) translate(4 714.5)">
<title>next_token_flowchart</title>
<polygon fill="white" stroke="transparent" points="-4,4 -4,-714.5 1645,-714.5 1645,4 -4,4"/>
<g id="clust1" class="cluster">
<title>cluster_states</title>
<polygon fill="none" stroke="black" points="8,-540 8,-638 1056,-638 1056,-540 8,-540"/>
<text text-anchor="middle" x="532" y="-622.8" font-family="Times,serif" font-size="14.00">状态处理</text>
</g>
<!-- start -->
<g id="node1" class="node">
<title>start</title>
<path fill="none" stroke="black" d="M501.5,-363C501.5,-363 378.5,-363 378.5,-363 372.5,-363 366.5,-357 366.5,-351 366.5,-351 366.5,-337 366.5,-337 366.5,-331 372.5,-325 378.5,-325 378.5,-325 501.5,-325 501.5,-325 507.5,-325 513.5,-331 513.5,-337 513.5,-337 513.5,-351 513.5,-351 513.5,-357 507.5,-363 501.5,-363"/>
<text text-anchor="middle" x="440" y="-347.8" font-family="Times,serif" font-size="14.00">开始</text>
<text text-anchor="middle" x="440" y="-332.8" font-family="Times,serif" font-size="14.00">初始化Token为EOF</text>
</g>
<!-- loop -->
<g id="node2" class="node">
<title>loop</title>
<path fill="none" stroke="black" d="M397.5,-288C397.5,-288 262.5,-288 262.5,-288 256.5,-288 250.5,-282 250.5,-276 250.5,-276 250.5,-264 250.5,-264 250.5,-258 256.5,-252 262.5,-252 262.5,-252 397.5,-252 397.5,-252 403.5,-252 409.5,-258 409.5,-264 409.5,-264 409.5,-276 409.5,-276 409.5,-282 403.5,-288 397.5,-288"/>
<text text-anchor="middle" x="330" y="-266.3" font-family="Times,serif" font-size="14.00">循环：遍历缓冲区字符</text>
</g>
<!-- start&#45;&gt;loop -->
<g id="edge1" class="edge">
<title>start&#45;&gt;loop</title>
<path fill="none" stroke="black" d="M412.24,-324.83C397.88,-315.43 380.2,-303.86 364.91,-293.85"/>
<polygon fill="black" stroke="black" points="366.52,-290.72 356.23,-288.17 362.68,-296.58 366.52,-290.72"/>
</g>
<!-- check_index -->
<g id="node3" class="node">
<title>check_index</title>
<path fill="none" stroke="black" d="M397.5,-215C397.5,-215 262.5,-215 262.5,-215 256.5,-215 250.5,-209 250.5,-203 250.5,-203 250.5,-191 250.5,-191 250.5,-185 256.5,-179 262.5,-179 262.5,-179 397.5,-179 397.5,-179 403.5,-179 409.5,-185 409.5,-191 409.5,-191 409.5,-203 409.5,-203 409.5,-209 403.5,-215 397.5,-215"/>
<text text-anchor="middle" x="330" y="-193.3" font-family="Times,serif" font-size="14.00">索引是否在缓冲区内？</text>
</g>
<!-- loop&#45;&gt;check_index -->
<g id="edge2" class="edge">
<title>loop&#45;&gt;check_index</title>
<path fill="none" stroke="black" d="M330,-251.81C330,-243.79 330,-234.05 330,-225.07"/>
<polygon fill="black" stroke="black" points="333.5,-225.03 330,-215.03 326.5,-225.03 333.5,-225.03"/>
</g>
<!-- process_char -->
<g id="node5" class="node">
<title>process_char</title>
<path fill="none" stroke="black" d="M216,-119.5C216,-119.5 130,-119.5 130,-119.5 124,-119.5 118,-113.5 118,-107.5 118,-107.5 118,-95.5 118,-95.5 118,-89.5 124,-83.5 130,-83.5 130,-83.5 216,-83.5 216,-83.5 222,-83.5 228,-89.5 228,-95.5 228,-95.5 228,-107.5 228,-107.5 228,-113.5 222,-119.5 216,-119.5"/>
<text text-anchor="middle" x="173" y="-97.8" font-family="Times,serif" font-size="14.00">获取当前字符c</text>
</g>
<!-- check_index&#45;&gt;process_char -->
<g id="edge3" class="edge">
<title>check_index&#45;&gt;process_char</title>
<path fill="none" stroke="black" d="M301.2,-178.85C275.64,-163.63 238.14,-141.29 210.29,-124.71"/>
<polygon fill="black" stroke="black" points="212,-121.65 201.61,-119.54 208.41,-127.66 212,-121.65"/>
<text text-anchor="middle" x="277.5" y="-149.8" font-family="Arial" font-size="14.00">是</text>
</g>
<!-- finalize -->
<g id="node6" class="node">
<title>finalize</title>
<path fill="none" stroke="black" d="M433,-128C433,-128 289,-128 289,-128 283,-128 277,-122 277,-116 277,-116 277,-87 277,-87 277,-81 283,-75 289,-75 289,-75 433,-75 433,-75 439,-75 445,-81 445,-87 445,-87 445,-116 445,-116 445,-122 439,-128 433,-128"/>
<text text-anchor="middle" x="361" y="-112.8" font-family="Times,serif" font-size="14.00">处理结束状态：</text>
<text text-anchor="middle" x="361" y="-97.8" font-family="Times,serif" font-size="14.00">&#45; 若在literal状态则标记</text>
<text text-anchor="middle" x="361" y="-82.8" font-family="Times,serif" font-size="14.00">&#45; 设置end位置</text>
</g>
<!-- check_index&#45;&gt;finalize -->
<g id="edge4" class="edge">
<title>check_index&#45;&gt;finalize</title>
<path fill="none" stroke="black" d="M335.69,-178.85C339.48,-167.4 344.62,-151.91 349.27,-137.89"/>
<polygon fill="black" stroke="black" points="352.72,-138.6 352.54,-128.01 346.07,-136.4 352.72,-138.6"/>
<text text-anchor="middle" x="353.5" y="-149.8" font-family="Arial" font-size="14.00">否</text>
</g>
<!-- end -->
<g id="node4" class="node">
<title>end</title>
<path fill="none" stroke="black" d="M521,-38C521,-38 387,-38 387,-38 381,-38 375,-32 375,-26 375,-26 375,-12 375,-12 375,-6 381,0 387,0 387,0 521,0 521,0 527,0 533,-6 533,-12 533,-12 533,-26 533,-26 533,-32 527,-38 521,-38"/>
<text text-anchor="middle" x="454" y="-22.8" font-family="Times,serif" font-size="14.00">设置Token结束位置</text>
<text text-anchor="middle" x="454" y="-7.8" font-family="Times,serif" font-size="14.00">记录日志并返回Token</text>
</g>
<!-- state_machine -->
<g id="node7" class="node">
<title>state_machine</title>
<path fill="none" stroke="black" d="M122.5,-37C122.5,-37 27.5,-37 27.5,-37 21.5,-37 15.5,-31 15.5,-25 15.5,-25 15.5,-13 15.5,-13 15.5,-7 21.5,-1 27.5,-1 27.5,-1 122.5,-1 122.5,-1 128.5,-1 134.5,-7 134.5,-13 134.5,-13 134.5,-25 134.5,-25 134.5,-31 128.5,-37 122.5,-37"/>
<text text-anchor="middle" x="75" y="-15.3" font-family="Times,serif" font-size="14.00">state_machine</text>
</g>
<!-- process_char&#45;&gt;state_machine -->
<g id="edge5" class="edge">
<title>process_char&#45;&gt;state_machine</title>
<path fill="none" stroke="black" d="M152.22,-83.43C138.05,-71.79 119.12,-56.24 103.55,-43.45"/>
<polygon fill="black" stroke="black" points="105.7,-40.69 95.75,-37.05 101.26,-46.1 105.7,-40.69"/>
</g>
<!-- finalize&#45;&gt;end -->
<g id="edge35" class="edge">
<title>finalize&#45;&gt;end</title>
<path fill="none" stroke="black" d="M390.68,-74.81C401.8,-65.18 414.41,-54.27 425.43,-44.73"/>
<polygon fill="black" stroke="black" points="427.86,-47.26 433.13,-38.07 423.28,-41.97 427.86,-47.26"/>
</g>
<!-- state_start -->
<g id="node8" class="node">
<title>state_start</title>
<path fill="none" stroke="black" d="M92.5,-584C92.5,-584 27.5,-584 27.5,-584 21.5,-584 15.5,-578 15.5,-572 15.5,-572 15.5,-560 15.5,-560 15.5,-554 21.5,-548 27.5,-548 27.5,-548 92.5,-548 92.5,-548 98.5,-548 104.5,-554 104.5,-560 104.5,-560 104.5,-572 104.5,-572 104.5,-578 98.5,-584 92.5,-584"/>
<text text-anchor="middle" x="60" y="-562.3" font-family="Times,serif" font-size="14.00">状态: start</text>
</g>
<!-- state_machine&#45;&gt;state_start -->
<g id="edge6" class="edge">
<title>state_machine&#45;&gt;state_start</title>
<path fill="none" stroke="black" d="M62.21,-37.23C51.86,-52.9 39,-77.08 39,-100.5 39,-456.5 39,-456.5 39,-456.5 39,-484.69 45.92,-516.27 51.82,-538.06"/>
<polygon fill="black" stroke="black" points="48.51,-539.23 54.59,-547.91 55.25,-537.33 48.51,-539.23"/>
<text text-anchor="middle" x="68" y="-266.3" font-family="Arial" font-size="14.00">初始状态</text>
</g>
<!-- handle_start -->
<g id="node16" class="node">
<title>handle_start</title>
<path fill="none" stroke="black" d="M1419,-584C1419,-584 1333,-584 1333,-584 1327,-584 1321,-578 1321,-572 1321,-572 1321,-560 1321,-560 1321,-554 1327,-548 1333,-548 1333,-548 1419,-548 1419,-548 1425,-548 1431,-554 1431,-560 1431,-560 1431,-572 1431,-572 1431,-578 1425,-584 1419,-584"/>
<text text-anchor="middle" x="1376" y="-562.3" font-family="Times,serif" font-size="14.00">根据c选择分支</text>
</g>
<!-- state_start&#45;&gt;handle_start -->
<g id="edge7" class="edge">
<title>state_start&#45;&gt;handle_start</title>
<path fill="none" stroke="black" d="M67.41,-584.07C76.86,-604.24 95.35,-635.55 123,-647 138.14,-653.27 1287.86,-653.27 1303,-647 1328.21,-636.56 1348.18,-612.19 1360.81,-592.89"/>
<polygon fill="black" stroke="black" points="1363.93,-594.51 1366.26,-584.18 1357.99,-590.8 1363.93,-594.51"/>
</g>
<!-- state_comment -->
<g id="node9" class="node">
<title>state_comment</title>
<path fill="none" stroke="black" d="M515,-584C515,-584 419,-584 419,-584 413,-584 407,-578 407,-572 407,-572 407,-560 407,-560 407,-554 413,-548 419,-548 419,-548 515,-548 515,-548 521,-548 527,-554 527,-560 527,-560 527,-572 527,-572 527,-578 521,-584 515,-584"/>
<text text-anchor="middle" x="467" y="-562.3" font-family="Times,serif" font-size="14.00">状态: comment</text>
</g>
<!-- check_comment_end -->
<g id="node19" class="node">
<title>check_comment_end</title>
<path fill="none" stroke="black" d="M578.5,-473.5C578.5,-473.5 439.5,-473.5 439.5,-473.5 433.5,-473.5 427.5,-467.5 427.5,-461.5 427.5,-461.5 427.5,-449.5 427.5,-449.5 427.5,-443.5 433.5,-437.5 439.5,-437.5 439.5,-437.5 578.5,-437.5 578.5,-437.5 584.5,-437.5 590.5,-443.5 590.5,-449.5 590.5,-449.5 590.5,-461.5 590.5,-461.5 590.5,-467.5 584.5,-473.5 578.5,-473.5"/>
<text text-anchor="middle" x="509" y="-451.8" font-family="Times,serif" font-size="14.00">check_comment_end</text>
</g>
<!-- state_comment&#45;&gt;check_comment_end -->
<g id="edge12" class="edge">
<title>state_comment&#45;&gt;check_comment_end</title>
<path fill="none" stroke="black" d="M473.75,-547.57C480.49,-530.14 490.95,-503.13 498.73,-483.04"/>
<polygon fill="black" stroke="black" points="502.06,-484.12 502.41,-473.53 495.53,-481.59 502.06,-484.12"/>
<text text-anchor="middle" x="549.5" y="-518.8" font-family="Arial" font-size="14.00">检查是否遇到换行符</text>
</g>
<!-- state_space -->
<g id="node10" class="node">
<title>state_space</title>
<path fill="none" stroke="black" d="M205.5,-584C205.5,-584 134.5,-584 134.5,-584 128.5,-584 122.5,-578 122.5,-572 122.5,-572 122.5,-560 122.5,-560 122.5,-554 128.5,-548 134.5,-548 134.5,-548 205.5,-548 205.5,-548 211.5,-548 217.5,-554 217.5,-560 217.5,-560 217.5,-572 217.5,-572 217.5,-578 211.5,-584 205.5,-584"/>
<text text-anchor="middle" x="170" y="-562.3" font-family="Times,serif" font-size="14.00">状态: space</text>
</g>
<!-- check_space_end -->
<g id="node21" class="node">
<title>check_space_end</title>
<path fill="none" stroke="black" d="M192.5,-473.5C192.5,-473.5 79.5,-473.5 79.5,-473.5 73.5,-473.5 67.5,-467.5 67.5,-461.5 67.5,-461.5 67.5,-449.5 67.5,-449.5 67.5,-443.5 73.5,-437.5 79.5,-437.5 79.5,-437.5 192.5,-437.5 192.5,-437.5 198.5,-437.5 204.5,-443.5 204.5,-449.5 204.5,-449.5 204.5,-461.5 204.5,-461.5 204.5,-467.5 198.5,-473.5 192.5,-473.5"/>
<text text-anchor="middle" x="136" y="-451.8" font-family="Times,serif" font-size="14.00">check_space_end</text>
</g>
<!-- state_space&#45;&gt;check_space_end -->
<g id="edge15" class="edge">
<title>state_space&#45;&gt;check_space_end</title>
<path fill="none" stroke="black" d="M164.54,-547.57C159.1,-530.22 150.69,-503.37 144.4,-483.32"/>
<polygon fill="black" stroke="black" points="147.67,-482.03 141.34,-473.53 140.99,-484.12 147.67,-482.03"/>
<text text-anchor="middle" x="209" y="-518.8" font-family="Arial" font-size="14.00">检查是否非空格</text>
</g>
<!-- state_tab -->
<g id="node11" class="node">
<title>state_tab</title>
<path fill="none" stroke="black" d="M1035.5,-584C1035.5,-584 982.5,-584 982.5,-584 976.5,-584 970.5,-578 970.5,-572 970.5,-572 970.5,-560 970.5,-560 970.5,-554 976.5,-548 982.5,-548 982.5,-548 1035.5,-548 1035.5,-548 1041.5,-548 1047.5,-554 1047.5,-560 1047.5,-560 1047.5,-572 1047.5,-572 1047.5,-578 1041.5,-584 1035.5,-584"/>
<text text-anchor="middle" x="1009" y="-562.3" font-family="Times,serif" font-size="14.00">状态: tab</text>
</g>
<!-- check_tab_end -->
<g id="node22" class="node">
<title>check_tab_end</title>
<path fill="none" stroke="black" d="M1090,-473.5C1090,-473.5 994,-473.5 994,-473.5 988,-473.5 982,-467.5 982,-461.5 982,-461.5 982,-449.5 982,-449.5 982,-443.5 988,-437.5 994,-437.5 994,-437.5 1090,-437.5 1090,-437.5 1096,-437.5 1102,-443.5 1102,-449.5 1102,-449.5 1102,-461.5 1102,-461.5 1102,-467.5 1096,-473.5 1090,-473.5"/>
<text text-anchor="middle" x="1042" y="-451.8" font-family="Times,serif" font-size="14.00">check_tab_end</text>
</g>
<!-- state_tab&#45;&gt;check_tab_end -->
<g id="edge18" class="edge">
<title>state_tab&#45;&gt;check_tab_end</title>
<path fill="none" stroke="black" d="M1005.72,-547.58C1004.52,-537.83 1004.08,-525.55 1007,-515 1010.21,-503.38 1016.4,-491.75 1022.7,-481.96"/>
<polygon fill="black" stroke="black" points="1025.7,-483.77 1028.43,-473.53 1019.91,-479.83 1025.7,-483.77"/>
<text text-anchor="middle" x="1064.5" y="-518.8" font-family="Arial" font-size="14.00">检查是否非制表符</text>
</g>
<!-- state_new_line -->
<g id="node12" class="node">
<title>state_new_line</title>
<path fill="none" stroke="black" d="M825,-584C825,-584 733,-584 733,-584 727,-584 721,-578 721,-572 721,-572 721,-560 721,-560 721,-554 727,-548 733,-548 733,-548 825,-548 825,-548 831,-548 837,-554 837,-560 837,-560 837,-572 837,-572 837,-578 831,-584 825,-584"/>
<text text-anchor="middle" x="779" y="-562.3" font-family="Times,serif" font-size="14.00">状态: new_line</text>
</g>
<!-- check_newline_end -->
<g id="node23" class="node">
<title>check_newline_end</title>
<path fill="none" stroke="black" d="M1291,-584C1291,-584 1163,-584 1163,-584 1157,-584 1151,-578 1151,-572 1151,-572 1151,-560 1151,-560 1151,-554 1157,-548 1163,-548 1163,-548 1291,-548 1291,-548 1297,-548 1303,-554 1303,-560 1303,-560 1303,-572 1303,-572 1303,-578 1297,-584 1291,-584"/>
<text text-anchor="middle" x="1227" y="-562.3" font-family="Times,serif" font-size="14.00">check_newline_end</text>
</g>
<!-- state_new_line&#45;&gt;check_newline_end -->
<g id="edge21" class="edge">
<title>state_new_line&#45;&gt;check_newline_end</title>
<path fill="none" stroke="black" d="M789.87,-584.16C801.51,-601.66 821.77,-627.04 847,-638 905.3,-663.31 1072.88,-659.6 1133,-639 1160.29,-629.65 1185.77,-608.78 1203.3,-591.75"/>
<polygon fill="black" stroke="black" points="1206.2,-593.8 1210.77,-584.24 1201.24,-588.86 1206.2,-593.8"/>
<text text-anchor="middle" x="1083" y="-649.8" font-family="Arial" font-size="14.00">检查是否换行符</text>
</g>
<!-- state_single_quoted -->
<g id="node13" class="node">
<title>state_single_quoted</title>
<path fill="none" stroke="black" d="M376.5,-584C376.5,-584 247.5,-584 247.5,-584 241.5,-584 235.5,-578 235.5,-572 235.5,-572 235.5,-560 235.5,-560 235.5,-554 241.5,-548 247.5,-548 247.5,-548 376.5,-548 376.5,-548 382.5,-548 388.5,-554 388.5,-560 388.5,-560 388.5,-572 388.5,-572 388.5,-578 382.5,-584 376.5,-584"/>
<text text-anchor="middle" x="312" y="-562.3" font-family="Times,serif" font-size="14.00">状态: single_quoted</text>
</g>
<!-- check_single_quote_end -->
<g id="node25" class="node">
<title>check_single_quote_end</title>
<path fill="none" stroke="black" d="M397.5,-473.5C397.5,-473.5 234.5,-473.5 234.5,-473.5 228.5,-473.5 222.5,-467.5 222.5,-461.5 222.5,-461.5 222.5,-449.5 222.5,-449.5 222.5,-443.5 228.5,-437.5 234.5,-437.5 234.5,-437.5 397.5,-437.5 397.5,-437.5 403.5,-437.5 409.5,-443.5 409.5,-449.5 409.5,-449.5 409.5,-461.5 409.5,-461.5 409.5,-467.5 403.5,-473.5 397.5,-473.5"/>
<text text-anchor="middle" x="316" y="-451.8" font-family="Times,serif" font-size="14.00">check_single_quote_end</text>
</g>
<!-- state_single_quoted&#45;&gt;check_single_quote_end -->
<g id="edge24" class="edge">
<title>state_single_quoted&#45;&gt;check_single_quote_end</title>
<path fill="none" stroke="black" d="M312.64,-547.57C313.28,-530.3 314.26,-503.62 315,-483.59"/>
<polygon fill="black" stroke="black" points="318.5,-483.65 315.37,-473.53 311.51,-483.4 318.5,-483.65"/>
<text text-anchor="middle" x="377.5" y="-518.8" font-family="Arial" font-size="14.00">检查是否结束单引号</text>
</g>
<!-- state_double_quoted -->
<g id="node14" class="node">
<title>state_double_quoted</title>
<path fill="none" stroke="black" d="M691,-584C691,-584 557,-584 557,-584 551,-584 545,-578 545,-572 545,-572 545,-560 545,-560 545,-554 551,-548 557,-548 557,-548 691,-548 691,-548 697,-548 703,-554 703,-560 703,-560 703,-572 703,-572 703,-578 697,-584 691,-584"/>
<text text-anchor="middle" x="624" y="-562.3" font-family="Times,serif" font-size="14.00">状态: double_quoted</text>
</g>
<!-- check_double_quote_end -->
<g id="node26" class="node">
<title>check_double_quote_end</title>
<path fill="none" stroke="black" d="M789,-473.5C789,-473.5 621,-473.5 621,-473.5 615,-473.5 609,-467.5 609,-461.5 609,-461.5 609,-449.5 609,-449.5 609,-443.5 615,-437.5 621,-437.5 621,-437.5 789,-437.5 789,-437.5 795,-437.5 801,-443.5 801,-449.5 801,-449.5 801,-461.5 801,-461.5 801,-467.5 795,-473.5 789,-473.5"/>
<text text-anchor="middle" x="705" y="-451.8" font-family="Times,serif" font-size="14.00">check_double_quote_end</text>
</g>
<!-- state_double_quoted&#45;&gt;check_double_quote_end -->
<g id="edge27" class="edge">
<title>state_double_quoted&#45;&gt;check_double_quote_end</title>
<path fill="none" stroke="black" d="M637.01,-547.57C650.32,-529.75 671.12,-501.89 686.21,-481.67"/>
<polygon fill="black" stroke="black" points="689.11,-483.64 692.29,-473.53 683.5,-479.45 689.11,-483.64"/>
<text text-anchor="middle" x="723.5" y="-518.8" font-family="Arial" font-size="14.00">检查是否结束双引号</text>
</g>
<!-- state_literal -->
<g id="node15" class="node">
<title>state_literal</title>
<path fill="none" stroke="black" d="M940.5,-584C940.5,-584 867.5,-584 867.5,-584 861.5,-584 855.5,-578 855.5,-572 855.5,-572 855.5,-560 855.5,-560 855.5,-554 861.5,-548 867.5,-548 867.5,-548 940.5,-548 940.5,-548 946.5,-548 952.5,-554 952.5,-560 952.5,-560 952.5,-572 952.5,-572 952.5,-578 946.5,-584 940.5,-584"/>
<text text-anchor="middle" x="904" y="-562.3" font-family="Times,serif" font-size="14.00">状态: literal</text>
</g>
<!-- check_literal_end -->
<g id="node27" class="node">
<title>check_literal_end</title>
<path fill="none" stroke="black" d="M952,-473.5C952,-473.5 836,-473.5 836,-473.5 830,-473.5 824,-467.5 824,-461.5 824,-461.5 824,-449.5 824,-449.5 824,-443.5 830,-437.5 836,-437.5 836,-437.5 952,-437.5 952,-437.5 958,-437.5 964,-443.5 964,-449.5 964,-449.5 964,-461.5 964,-461.5 964,-467.5 958,-473.5 952,-473.5"/>
<text text-anchor="middle" x="894" y="-451.8" font-family="Times,serif" font-size="14.00">check_literal_end</text>
</g>
<!-- state_literal&#45;&gt;check_literal_end -->
<g id="edge30" class="edge">
<title>state_literal&#45;&gt;check_literal_end</title>
<path fill="none" stroke="black" d="M902.39,-547.57C900.8,-530.3 898.34,-503.62 896.5,-483.59"/>
<polygon fill="black" stroke="black" points="899.97,-483.17 895.57,-473.53 893,-483.81 899.97,-483.17"/>
<text text-anchor="middle" x="936" y="-518.8" font-family="Arial" font-size="14.00">检查分隔符</text>
</g>
<!-- handle_start&#45;&gt;state_literal -->
<g id="edge9" class="edge">
<title>handle_start&#45;&gt;state_literal</title>
<path fill="none" stroke="black" d="M1366.04,-584.14C1355.29,-601.62 1336.39,-627 1312,-638 1254.47,-663.96 1091.11,-638.89 1028,-639 907.02,-639.21 970.18,-642.56 962,-638 943.48,-627.68 928.63,-608.84 918.6,-593.02"/>
<polygon fill="black" stroke="black" points="921.41,-590.91 913.25,-584.15 915.41,-594.52 921.41,-590.91"/>
<text text-anchor="middle" x="999" y="-649.8" font-family="Arial" font-size="14.00">其他字符</text>
</g>
<!-- handle_special_cases -->
<g id="node17" class="node">
<title>handle_special_cases</title>
<path fill="none" stroke="black" d="M1629,-497C1629,-497 1495,-497 1495,-497 1489,-497 1483,-491 1483,-485 1483,-485 1483,-426 1483,-426 1483,-420 1489,-414 1495,-414 1495,-414 1629,-414 1629,-414 1635,-414 1641,-420 1641,-426 1641,-426 1641,-485 1641,-485 1641,-491 1635,-497 1629,-497"/>
<text text-anchor="middle" x="1562" y="-481.8" font-family="Times,serif" font-size="14.00">处理符号：</text>
<text text-anchor="middle" x="1562" y="-466.8" font-family="Times,serif" font-size="14.00">&#45; 空格/制表符切换状态</text>
<text text-anchor="middle" x="1562" y="-451.8" font-family="Times,serif" font-size="14.00">&#45; 换行符立即返回</text>
<text text-anchor="middle" x="1562" y="-436.8" font-family="Times,serif" font-size="14.00">&#45; 匹配&#45;&#45;&#45;/...等模式</text>
<text text-anchor="middle" x="1562" y="-421.8" font-family="Times,serif" font-size="14.00">&#45; 引号进入对应状态</text>
</g>
<!-- handle_start&#45;&gt;handle_special_cases -->
<g id="edge8" class="edge">
<title>handle_start&#45;&gt;handle_special_cases</title>
<path fill="none" stroke="black" d="M1405.47,-547.81C1426.55,-535.51 1455.96,-518.36 1483.6,-502.23"/>
<polygon fill="black" stroke="black" points="1485.63,-505.1 1492.5,-497.04 1482.1,-499.05 1485.63,-505.1"/>
<text text-anchor="middle" x="1500" y="-518.8" font-family="Arial" font-size="14.00">匹配特殊符号</text>
</g>
<!-- break_loop -->
<g id="node18" class="node">
<title>break_loop</title>
<path fill="none" stroke="black" d="M847.5,-362C847.5,-362 726.5,-362 726.5,-362 720.5,-362 714.5,-356 714.5,-350 714.5,-350 714.5,-338 714.5,-338 714.5,-332 720.5,-326 726.5,-326 726.5,-326 847.5,-326 847.5,-326 853.5,-326 859.5,-332 859.5,-338 859.5,-338 859.5,-350 859.5,-350 859.5,-356 853.5,-362 847.5,-362"/>
<text text-anchor="middle" x="787" y="-340.3" font-family="Times,serif" font-size="14.00">更新索引并退出循环</text>
</g>
<!-- handle_special_cases&#45;&gt;break_loop -->
<g id="edge10" class="edge">
<title>handle_special_cases&#45;&gt;break_loop</title>
<path fill="none" stroke="black" d="M1482.91,-419.05C1445.53,-404.16 1399.82,-388.56 1357,-381 1185.61,-350.73 981.29,-345.05 869.77,-344.46"/>
<polygon fill="black" stroke="black" points="869.61,-340.96 859.6,-344.42 869.58,-347.96 869.61,-340.96"/>
<text text-anchor="middle" x="1470.5" y="-384.8" font-family="Arial" font-size="14.00">生成Token后break</text>
</g>
<!-- break_loop&#45;&gt;end -->
<g id="edge11" class="edge">
<title>break_loop&#45;&gt;end</title>
<path fill="none" stroke="black" d="M714.24,-339.84C625.73,-333.97 488,-317.39 488,-271 488,-271 488,-271 488,-100.5 488,-81.65 479.99,-62.14 471.75,-47.05"/>
<polygon fill="black" stroke="black" points="474.71,-45.16 466.66,-38.27 468.65,-48.68 474.71,-45.16"/>
</g>
<!-- check_comment_end&#45;&gt;break_loop -->
<g id="edge13" class="edge">
<title>check_comment_end&#45;&gt;break_loop</title>
<path fill="none" stroke="black" d="M541.45,-437.41C558.46,-429.14 579.89,-419.78 600,-414 654.79,-398.26 675.01,-419.38 727,-396 729.06,-395.07 744.94,-381.55 759.85,-368.66"/>
<polygon fill="black" stroke="black" points="762.22,-371.24 767.48,-362.04 757.63,-365.95 762.22,-371.24"/>
<text text-anchor="middle" x="751.5" y="-384.8" font-family="Arial" font-size="14.00">是</text>
</g>
<!-- continue_loop -->
<g id="node20" class="node">
<title>continue_loop</title>
<path fill="none" stroke="black" d="M336.5,-362C336.5,-362 223.5,-362 223.5,-362 217.5,-362 211.5,-356 211.5,-350 211.5,-350 211.5,-338 211.5,-338 211.5,-332 217.5,-326 223.5,-326 223.5,-326 336.5,-326 336.5,-326 342.5,-326 348.5,-332 348.5,-338 348.5,-338 348.5,-350 348.5,-350 348.5,-356 342.5,-362 336.5,-362"/>
<text text-anchor="middle" x="280" y="-340.3" font-family="Times,serif" font-size="14.00">索引+1，继续循环</text>
</g>
<!-- check_comment_end&#45;&gt;continue_loop -->
<g id="edge14" class="edge">
<title>check_comment_end&#45;&gt;continue_loop</title>
<path fill="none" stroke="black" d="M477.85,-437.49C460.93,-429.03 439.35,-419.47 419,-414 381.03,-403.8 269.35,-425.18 243,-396 235.55,-387.75 239.84,-378.02 247.72,-369.29"/>
<polygon fill="black" stroke="black" points="250.26,-371.7 255.01,-362.23 245.39,-366.67 250.26,-371.7"/>
<text text-anchor="middle" x="250.5" y="-384.8" font-family="Arial" font-size="14.00">否</text>
</g>
<!-- continue_loop&#45;&gt;loop -->
<g id="edge34" class="edge">
<title>continue_loop&#45;&gt;loop</title>
<path fill="none" stroke="black" d="M291.85,-325.94C297.86,-317.28 305.3,-306.57 312,-296.92"/>
<polygon fill="black" stroke="black" points="315.06,-298.65 317.89,-288.44 309.31,-294.66 315.06,-298.65"/>
</g>
<!-- check_space_end&#45;&gt;break_loop -->
<g id="edge16" class="edge">
<title>check_space_end&#45;&gt;break_loop</title>
<path fill="none" stroke="black" d="M162.69,-437.3C177.27,-428.78 195.98,-419.23 214,-414 303.54,-388.02 336.32,-430.33 423,-396 433,-392.04 432.03,-385.05 442,-381 487.95,-362.32 617.61,-352.77 704.23,-348.34"/>
<polygon fill="black" stroke="black" points="704.49,-351.83 714.31,-347.84 704.15,-344.84 704.49,-351.83"/>
<text text-anchor="middle" x="494.5" y="-384.8" font-family="Arial" font-size="14.00">生成space Token</text>
</g>
<!-- check_space_end&#45;&gt;continue_loop -->
<g id="edge17" class="edge">
<title>check_space_end&#45;&gt;continue_loop</title>
<path fill="none" stroke="black" d="M115.16,-437.37C98.66,-421.74 80.6,-398.48 95,-381 108.71,-364.37 157.3,-355.32 201.24,-350.46"/>
<polygon fill="black" stroke="black" points="201.82,-353.91 211.41,-349.39 201.1,-346.95 201.82,-353.91"/>
<text text-anchor="middle" x="124" y="-384.8" font-family="Arial" font-size="14.00">继续空格</text>
</g>
<!-- check_tab_end&#45;&gt;break_loop -->
<g id="edge19" class="edge">
<title>check_tab_end&#45;&gt;break_loop</title>
<path fill="none" stroke="black" d="M1068.55,-437.34C1081.35,-429.54 1097.11,-420.61 1112,-414 1135.89,-403.39 1152.6,-417.13 1168,-396 1171.93,-390.61 1172.49,-385.93 1168,-381 1148.34,-359.4 975.96,-350.49 869.91,-347.03"/>
<polygon fill="black" stroke="black" points="869.97,-343.53 859.87,-346.71 869.75,-350.52 869.97,-343.53"/>
<text text-anchor="middle" x="1215" y="-384.8" font-family="Arial" font-size="14.00">生成tab Token</text>
</g>
<!-- check_tab_end&#45;&gt;continue_loop -->
<g id="edge20" class="edge">
<title>check_tab_end&#45;&gt;continue_loop</title>
<path fill="none" stroke="black" d="M1048.65,-437.42C1053.91,-420.68 1058.25,-395.63 1044,-381 1018.62,-354.94 451.63,-366.6 358.77,-362.38"/>
<polygon fill="black" stroke="black" points="359,-358.89 348.77,-361.66 358.49,-365.87 359,-358.89"/>
<text text-anchor="middle" x="1088" y="-384.8" font-family="Arial" font-size="14.00">继续制表符</text>
</g>
<!-- check_newline_end&#45;&gt;break_loop -->
<g id="edge22" class="edge">
<title>check_newline_end&#45;&gt;break_loop</title>
<path fill="none" stroke="black" d="M1285.77,-547.92C1306.75,-541.24 1326.01,-534.19 1329,-530 1337.91,-517.52 1329.02,-425.62 1263,-381 1231.29,-359.57 997.44,-350.32 869.73,-346.83"/>
<polygon fill="black" stroke="black" points="869.68,-343.33 859.59,-346.56 869.49,-350.33 869.68,-343.33"/>
<text text-anchor="middle" x="1391" y="-451.8" font-family="Arial" font-size="14.00">生成new_line Token</text>
</g>
<!-- error_handling -->
<g id="node24" class="node">
<title>error_handling</title>
<path fill="none" stroke="red" d="M1253.5,-473.5C1253.5,-473.5 1132.5,-473.5 1132.5,-473.5 1126.5,-473.5 1120.5,-467.5 1120.5,-461.5 1120.5,-461.5 1120.5,-449.5 1120.5,-449.5 1120.5,-443.5 1126.5,-437.5 1132.5,-437.5 1132.5,-437.5 1253.5,-437.5 1253.5,-437.5 1259.5,-437.5 1265.5,-443.5 1265.5,-449.5 1265.5,-449.5 1265.5,-461.5 1265.5,-461.5 1265.5,-467.5 1259.5,-473.5 1253.5,-473.5"/>
<text text-anchor="middle" x="1193" y="-451.8" font-family="Times,serif" font-size="14.00">错误处理（TODO）</text>
</g>
<!-- check_newline_end&#45;&gt;error_handling -->
<g id="edge23" class="edge">
<title>check_newline_end&#45;&gt;error_handling</title>
<path fill="none" stroke="black" d="M1164.2,-547.78C1156.62,-543.18 1149.86,-537.36 1145,-530 1134.1,-513.5 1146.58,-494.84 1161.55,-480.45"/>
<polygon fill="black" stroke="black" points="1163.9,-483.05 1169,-473.76 1159.22,-477.84 1163.9,-483.05"/>
<text text-anchor="middle" x="1237" y="-518.8" font-family="Arial" font-size="14.00">其他字符（TODO错误处理）</text>
</g>
<!-- error_handling&#45;&gt;continue_loop -->
<g id="edge33" class="edge">
<title>error_handling&#45;&gt;continue_loop</title>
<path fill="none" stroke="black" d="M1183.67,-437.41C1172.89,-419.63 1153.33,-392.77 1128,-381 1090.86,-363.74 458.44,-367.92 358.86,-362.46"/>
<polygon fill="black" stroke="black" points="359.01,-358.97 348.77,-361.67 358.46,-365.94 359.01,-358.97"/>
</g>
<!-- check_single_quote_end&#45;&gt;break_loop -->
<g id="edge25" class="edge">
<title>check_single_quote_end&#45;&gt;break_loop</title>
<path fill="none" stroke="black" d="M352.95,-437.48C372.26,-429.24 396.5,-419.87 419,-414 476.29,-399.06 496.51,-419.16 551,-396 560.9,-391.79 560.16,-385.35 570,-381 611.95,-362.45 662.29,-353.38 703.93,-348.98"/>
<polygon fill="black" stroke="black" points="704.43,-352.45 714.04,-347.99 703.74,-345.48 704.43,-352.45"/>
<text text-anchor="middle" x="646.5" y="-384.8" font-family="Arial" font-size="14.00">生成single_quoted Token</text>
</g>
<!-- check_single_quote_end&#45;&gt;continue_loop -->
<g id="edge26" class="edge">
<title>check_single_quote_end&#45;&gt;continue_loop</title>
<path fill="none" stroke="black" d="M273.98,-437.33C255.64,-429.96 233.83,-421.36 214,-414 191.07,-405.49 176.19,-415.92 162,-396 146.64,-374.43 170.87,-361.9 201.29,-354.66"/>
<polygon fill="black" stroke="black" points="202.3,-358.02 211.34,-352.49 200.83,-351.18 202.3,-358.02"/>
<text text-anchor="middle" x="191" y="-384.8" font-family="Arial" font-size="14.00">继续处理</text>
</g>
<!-- check_double_quote_end&#45;&gt;break_loop -->
<g id="edge28" class="edge">
<title>check_double_quote_end&#45;&gt;break_loop</title>
<path fill="none" stroke="black" d="M726.51,-437.26C738.97,-426.42 754.28,-411.58 765,-396 770.05,-388.66 774.32,-379.97 777.72,-371.86"/>
<polygon fill="black" stroke="black" points="781.04,-372.98 781.42,-362.4 774.52,-370.44 781.04,-372.98"/>
<text text-anchor="middle" x="852" y="-384.8" font-family="Arial" font-size="14.00">生成double_quoted Token</text>
</g>
<!-- check_double_quote_end&#45;&gt;continue_loop -->
<g id="edge29" class="edge">
<title>check_double_quote_end&#45;&gt;continue_loop</title>
<path fill="none" stroke="black" d="M668.93,-437.37C649.06,-428.77 623.68,-419.1 600,-414 565.3,-406.52 305.64,-421.56 281,-396 275.06,-389.84 273.46,-381.05 273.78,-372.51"/>
<polygon fill="black" stroke="black" points="277.27,-372.73 274.94,-362.4 270.32,-371.93 277.27,-372.73"/>
<text text-anchor="middle" x="310" y="-384.8" font-family="Arial" font-size="14.00">继续处理</text>
</g>
<!-- check_literal_end&#45;&gt;break_loop -->
<g id="edge31" class="edge">
<title>check_literal_end&#45;&gt;break_loop</title>
<path fill="none" stroke="black" d="M914.96,-437.22C931.24,-421.7 948.9,-398.69 935,-381 926.19,-369.79 898.55,-361.64 869.51,-355.96"/>
<polygon fill="black" stroke="black" points="870.1,-352.51 859.63,-354.12 868.82,-359.39 870.1,-352.51"/>
<text text-anchor="middle" x="989.5" y="-384.8" font-family="Arial" font-size="14.00">生成literal Token</text>
</g>
<!-- check_literal_end&#45;&gt;continue_loop -->
<g id="edge32" class="edge">
<title>check_literal_end&#45;&gt;continue_loop</title>
<path fill="none" stroke="black" d="M865.95,-437.39C850.12,-428.67 829.63,-418.9 810,-414 713.33,-389.86 456.92,-426.3 362,-396 350.37,-392.29 349.32,-387.51 339,-381 332.01,-376.59 324.5,-371.94 317.27,-367.51"/>
<polygon fill="black" stroke="black" points="318.68,-364.27 308.32,-362.04 315.03,-370.24 318.68,-364.27"/>
<text text-anchor="middle" x="392.5" y="-384.8" font-family="Arial" font-size="14.00">继续literal</text>
</g>
</g>
</svg>
