<?xml version="1.0" encoding="UTF-8" standalone="no"?>
<!DOCTYPE svg PUBLIC "-//W3C//DTD SVG 1.1//EN"
 "http://www.w3.org/Graphics/SVG/1.1/DTD/svg11.dtd">
<!-- Generated by graphviz version 2.43.0 (0)
 -->
<!-- Title: initSyntheticSections Pages: 1 -->
<svg width="298pt" height="1961pt"
 viewBox="0.00 0.00 298.00 1961.00" xmlns="http://www.w3.org/2000/svg" xmlns:xlink="http://www.w3.org/1999/xlink">
<g id="graph0" class="graph" transform="scale(1 1) rotate(0) translate(4 1957)">
<title>initSyntheticSections</title>
<polygon fill="white" stroke="transparent" points="-4,4 -4,-1957 294,-1957 294,4 -4,4"/>
<g id="clust1" class="cluster">
<title>cluster_main</title>
<polygon fill="none" stroke="black" points="8,-8 8,-1945 282,-1945 282,-8 8,-8"/>
<text text-anchor="middle" x="145" y="-1929.8" font-family="Times,serif" font-size="14.00">initSyntheticSections 流程</text>
</g>
<!-- start -->
<g id="node1" class="node">
<title>start</title>
<polygon fill="none" stroke="black" points="201.5,-1914 34.5,-1914 34.5,-1878 201.5,-1878 201.5,-1914"/>
<text text-anchor="middle" x="118" y="-1893.5" font-family="Courier,monospace" font-size="10.00">开始 initSyntheticSections</text>
</g>
<!-- check_eh_frame -->
<g id="node3" class="node">
<title>check_eh_frame</title>
<polygon fill="none" stroke="black" points="185.5,-1841 50.5,-1841 50.5,-1805 185.5,-1805 185.5,-1841"/>
<text text-anchor="middle" x="118" y="-1820.5" font-family="Courier,monospace" font-size="10.00">检查是否需要 .eh_frame</text>
</g>
<!-- start&#45;&gt;check_eh_frame -->
<g id="edge1" class="edge">
<title>start&#45;&gt;check_eh_frame</title>
<path fill="none" stroke="black" d="M118,-1877.81C118,-1869.79 118,-1860.05 118,-1851.07"/>
<polygon fill="black" stroke="black" points="121.5,-1851.03 118,-1841.03 114.5,-1851.03 121.5,-1851.03"/>
</g>
<!-- end -->
<g id="node2" class="node">
<title>end</title>
<polygon fill="none" stroke="black" points="228.5,-52 61.5,-52 61.5,-16 228.5,-16 228.5,-52"/>
<text text-anchor="middle" x="145" y="-31.5" font-family="Courier,monospace" font-size="10.00">结束 initSyntheticSections</text>
</g>
<!-- add_eh_frame -->
<g id="node4" class="node">
<title>add_eh_frame</title>
<polygon fill="none" stroke="black" points="143,-1758 31,-1758 31,-1722 143,-1722 143,-1758"/>
<text text-anchor="middle" x="87" y="-1737.5" font-family="Courier,monospace" font-size="10.00">添加 .eh_frame 节</text>
</g>
<!-- check_eh_frame&#45;&gt;add_eh_frame -->
<g id="edge2" class="edge">
<title>check_eh_frame&#45;&gt;add_eh_frame</title>
<path fill="none" stroke="black" d="M111.43,-1804.82C107.32,-1794.08 101.94,-1780.03 97.27,-1767.84"/>
<polygon fill="black" stroke="black" points="100.41,-1766.24 93.56,-1758.15 93.87,-1768.74 100.41,-1766.24"/>
<text text-anchor="middle" x="114" y="-1779" font-family="Courier,monospace" font-size="10.00">需要</text>
</g>
<!-- check_eh_frame_hdr -->
<g id="node5" class="node">
<title>check_eh_frame_hdr</title>
<polygon fill="none" stroke="black" points="242.5,-1685 83.5,-1685 83.5,-1649 242.5,-1649 242.5,-1685"/>
<text text-anchor="middle" x="163" y="-1664.5" font-family="Courier,monospace" font-size="10.00">检查是否需要 .eh_frame_hdr</text>
</g>
<!-- check_eh_frame&#45;&gt;check_eh_frame_hdr -->
<g id="edge3" class="edge">
<title>check_eh_frame&#45;&gt;check_eh_frame_hdr</title>
<path fill="none" stroke="black" d="M129.36,-1804.84C137.04,-1792.37 146.71,-1774.8 152,-1758 158.41,-1737.64 161.12,-1713.59 162.24,-1695.48"/>
<polygon fill="black" stroke="black" points="165.75,-1695.48 162.75,-1685.31 158.76,-1695.13 165.75,-1695.48"/>
<text text-anchor="middle" x="174" y="-1737.5" font-family="Courier,monospace" font-size="10.00">不需要</text>
</g>
<!-- add_eh_frame&#45;&gt;check_eh_frame_hdr -->
<g id="edge4" class="edge">
<title>add_eh_frame&#45;&gt;check_eh_frame_hdr</title>
<path fill="none" stroke="black" d="M105.4,-1721.81C115.01,-1712.83 126.93,-1701.69 137.43,-1691.89"/>
<polygon fill="black" stroke="black" points="139.85,-1694.41 144.77,-1685.03 135.08,-1689.3 139.85,-1694.41"/>
</g>
<!-- add_eh_frame_hdr -->
<g id="node6" class="node">
<title>add_eh_frame_hdr</title>
<polygon fill="none" stroke="black" points="184,-1602 48,-1602 48,-1566 184,-1566 184,-1602"/>
<text text-anchor="middle" x="116" y="-1581.5" font-family="Courier,monospace" font-size="10.00">添加 .eh_frame_hdr 节</text>
</g>
<!-- check_eh_frame_hdr&#45;&gt;add_eh_frame_hdr -->
<g id="edge5" class="edge">
<title>check_eh_frame_hdr&#45;&gt;add_eh_frame_hdr</title>
<path fill="none" stroke="black" d="M153.03,-1648.82C146.68,-1637.87 138.32,-1623.46 131.15,-1611.11"/>
<polygon fill="black" stroke="black" points="134,-1609.05 125.95,-1602.15 127.94,-1612.56 134,-1609.05"/>
<text text-anchor="middle" x="152" y="-1623" font-family="Courier,monospace" font-size="10.00">需要</text>
</g>
<!-- check_got -->
<g id="node7" class="node">
<title>check_got</title>
<polygon fill="none" stroke="black" points="256.5,-1529 135.5,-1529 135.5,-1493 256.5,-1493 256.5,-1529"/>
<text text-anchor="middle" x="196" y="-1508.5" font-family="Courier,monospace" font-size="10.00">检查是否需要 .got 节</text>
</g>
<!-- check_eh_frame_hdr&#45;&gt;check_got -->
<g id="edge6" class="edge">
<title>check_eh_frame_hdr&#45;&gt;check_got</title>
<path fill="none" stroke="black" d="M173.42,-1648.78C180.39,-1636.28 188.99,-1618.7 193,-1602 197.95,-1581.38 198.5,-1557.35 197.92,-1539.31"/>
<polygon fill="black" stroke="black" points="201.41,-1539.02 197.46,-1529.19 194.42,-1539.34 201.41,-1539.02"/>
<text text-anchor="middle" x="212" y="-1581.5" font-family="Courier,monospace" font-size="10.00">不需要</text>
</g>
<!-- add_eh_frame_hdr&#45;&gt;check_got -->
<g id="edge7" class="edge">
<title>add_eh_frame_hdr&#45;&gt;check_got</title>
<path fill="none" stroke="black" d="M135.37,-1565.81C145.49,-1556.83 158.04,-1545.69 169.09,-1535.89"/>
<polygon fill="black" stroke="black" points="171.66,-1538.28 176.81,-1529.03 167.01,-1533.05 171.66,-1538.28"/>
</g>
<!-- add_got -->
<g id="node8" class="node">
<title>add_got</title>
<polygon fill="none" stroke="black" points="167,-1446 85,-1446 85,-1410 167,-1410 167,-1446"/>
<text text-anchor="middle" x="126" y="-1425.5" font-family="Courier,monospace" font-size="10.00">添加 .got 节</text>
</g>
<!-- check_got&#45;&gt;add_got -->
<g id="edge8" class="edge">
<title>check_got&#45;&gt;add_got</title>
<path fill="none" stroke="black" d="M181.15,-1492.82C171.41,-1481.55 158.5,-1466.61 147.63,-1454.02"/>
<polygon fill="black" stroke="black" points="150.01,-1451.43 140.82,-1446.15 144.71,-1456.01 150.01,-1451.43"/>
<text text-anchor="middle" x="175" y="-1467" font-family="Courier,monospace" font-size="10.00">需要</text>
</g>
<!-- check_got_plt -->
<g id="node9" class="node">
<title>check_got_plt</title>
<polygon fill="none" stroke="black" points="265.5,-1373 120.5,-1373 120.5,-1337 265.5,-1337 265.5,-1373"/>
<text text-anchor="middle" x="193" y="-1352.5" font-family="Courier,monospace" font-size="10.00">检查是否需要 .got.plt 节</text>
</g>
<!-- check_got&#45;&gt;check_got_plt -->
<g id="edge9" class="edge">
<title>check_got&#45;&gt;check_got_plt</title>
<path fill="none" stroke="black" d="M195.67,-1492.93C195.15,-1466.45 194.15,-1415.22 193.54,-1383.49"/>
<polygon fill="black" stroke="black" points="197.03,-1383.08 193.33,-1373.15 190.03,-1383.21 197.03,-1383.08"/>
<text text-anchor="middle" x="209" y="-1425.5" font-family="Courier,monospace" font-size="10.00">不需要</text>
</g>
<!-- add_got&#45;&gt;check_got_plt -->
<g id="edge10" class="edge">
<title>add_got&#45;&gt;check_got_plt</title>
<path fill="none" stroke="black" d="M142.22,-1409.81C150.53,-1401 160.8,-1390.13 169.92,-1380.46"/>
<polygon fill="black" stroke="black" points="172.61,-1382.7 176.93,-1373.03 167.52,-1377.9 172.61,-1382.7"/>
</g>
<!-- add_got_plt -->
<g id="node10" class="node">
<title>add_got_plt</title>
<polygon fill="none" stroke="black" points="161,-1290 55,-1290 55,-1254 161,-1254 161,-1290"/>
<text text-anchor="middle" x="108" y="-1269.5" font-family="Courier,monospace" font-size="10.00">添加 .got.plt 节</text>
</g>
<!-- check_got_plt&#45;&gt;add_got_plt -->
<g id="edge11" class="edge">
<title>check_got_plt&#45;&gt;add_got_plt</title>
<path fill="none" stroke="black" d="M174.97,-1336.82C162.92,-1325.33 146.87,-1310.04 133.51,-1297.31"/>
<polygon fill="black" stroke="black" points="135.65,-1294.52 126,-1290.15 130.83,-1299.59 135.65,-1294.52"/>
<text text-anchor="middle" x="165" y="-1311" font-family="Courier,monospace" font-size="10.00">需要</text>
</g>
<!-- check_rela_dyn -->
<g id="node11" class="node">
<title>check_rela_dyn</title>
<polygon fill="none" stroke="black" points="268.5,-1217 117.5,-1217 117.5,-1181 268.5,-1181 268.5,-1217"/>
<text text-anchor="middle" x="193" y="-1196.5" font-family="Courier,monospace" font-size="10.00">检查是否需要 .rela.dyn 节</text>
</g>
<!-- check_got_plt&#45;&gt;check_rela_dyn -->
<g id="edge12" class="edge">
<title>check_got_plt&#45;&gt;check_rela_dyn</title>
<path fill="none" stroke="black" d="M193,-1336.93C193,-1310.45 193,-1259.22 193,-1227.49"/>
<polygon fill="black" stroke="black" points="196.5,-1227.15 193,-1217.15 189.5,-1227.15 196.5,-1227.15"/>
<text text-anchor="middle" x="208" y="-1269.5" font-family="Courier,monospace" font-size="10.00">不需要</text>
</g>
<!-- add_got_plt&#45;&gt;check_rela_dyn -->
<g id="edge13" class="edge">
<title>add_got_plt&#45;&gt;check_rela_dyn</title>
<path fill="none" stroke="black" d="M128.58,-1253.81C139.43,-1244.74 152.92,-1233.48 164.75,-1223.6"/>
<polygon fill="black" stroke="black" points="167.18,-1226.13 172.61,-1217.03 162.69,-1220.75 167.18,-1226.13"/>
</g>
<!-- add_rela_dyn -->
<g id="node12" class="node">
<title>add_rela_dyn</title>
<polygon fill="none" stroke="black" points="185,-1134 73,-1134 73,-1098 185,-1098 185,-1134"/>
<text text-anchor="middle" x="129" y="-1113.5" font-family="Courier,monospace" font-size="10.00">添加 .rela.dyn 节</text>
</g>
<!-- check_rela_dyn&#45;&gt;add_rela_dyn -->
<g id="edge14" class="edge">
<title>check_rela_dyn&#45;&gt;add_rela_dyn</title>
<path fill="none" stroke="black" d="M179.43,-1180.82C170.52,-1169.55 158.72,-1154.61 148.77,-1142.02"/>
<polygon fill="black" stroke="black" points="151.5,-1139.83 142.55,-1134.15 146.01,-1144.17 151.5,-1139.83"/>
<text text-anchor="middle" x="174" y="-1155" font-family="Courier,monospace" font-size="10.00">需要</text>
</g>
<!-- check_plt -->
<g id="node13" class="node">
<title>check_plt</title>
<polygon fill="none" stroke="black" points="259.5,-1061 138.5,-1061 138.5,-1025 259.5,-1025 259.5,-1061"/>
<text text-anchor="middle" x="199" y="-1040.5" font-family="Courier,monospace" font-size="10.00">检查是否需要 .plt 节</text>
</g>
<!-- check_rela_dyn&#45;&gt;check_plt -->
<g id="edge15" class="edge">
<title>check_rela_dyn&#45;&gt;check_plt</title>
<path fill="none" stroke="black" d="M193.67,-1180.93C194.7,-1154.45 196.69,-1103.22 197.93,-1071.49"/>
<polygon fill="black" stroke="black" points="201.44,-1071.27 198.33,-1061.15 194.45,-1071 201.44,-1071.27"/>
<text text-anchor="middle" x="211" y="-1113.5" font-family="Courier,monospace" font-size="10.00">不需要</text>
</g>
<!-- add_rela_dyn&#45;&gt;check_plt -->
<g id="edge16" class="edge">
<title>add_rela_dyn&#45;&gt;check_plt</title>
<path fill="none" stroke="black" d="M145.95,-1097.81C154.72,-1088.92 165.57,-1077.91 175.17,-1068.17"/>
<polygon fill="black" stroke="black" points="177.68,-1070.61 182.21,-1061.03 172.7,-1065.69 177.68,-1070.61"/>
</g>
<!-- add_plt -->
<g id="node14" class="node">
<title>add_plt</title>
<polygon fill="none" stroke="black" points="169,-978 87,-978 87,-942 169,-942 169,-978"/>
<text text-anchor="middle" x="128" y="-957.5" font-family="Courier,monospace" font-size="10.00">添加 .plt 节</text>
</g>
<!-- check_plt&#45;&gt;add_plt -->
<g id="edge17" class="edge">
<title>check_plt&#45;&gt;add_plt</title>
<path fill="none" stroke="black" d="M183.94,-1024.82C174.06,-1013.55 160.97,-998.61 149.93,-986.02"/>
<polygon fill="black" stroke="black" points="152.26,-983.37 143.04,-978.15 147,-987.98 152.26,-983.37"/>
<text text-anchor="middle" x="177" y="-999" font-family="Courier,monospace" font-size="10.00">需要</text>
</g>
<!-- check_plt_got -->
<g id="node15" class="node">
<title>check_plt_got</title>
<polygon fill="none" stroke="black" points="269.5,-905 124.5,-905 124.5,-869 269.5,-869 269.5,-905"/>
<text text-anchor="middle" x="197" y="-884.5" font-family="Courier,monospace" font-size="10.00">检查是否需要 .plt.got 节</text>
</g>
<!-- check_plt&#45;&gt;check_plt_got -->
<g id="edge18" class="edge">
<title>check_plt&#45;&gt;check_plt_got</title>
<path fill="none" stroke="black" d="M198.78,-1024.93C198.43,-998.45 197.77,-947.22 197.36,-915.49"/>
<polygon fill="black" stroke="black" points="200.85,-915.1 197.22,-905.15 193.85,-915.19 200.85,-915.1"/>
<text text-anchor="middle" x="213" y="-957.5" font-family="Courier,monospace" font-size="10.00">不需要</text>
</g>
<!-- add_plt&#45;&gt;check_plt_got -->
<g id="edge19" class="edge">
<title>add_plt&#45;&gt;check_plt_got</title>
<path fill="none" stroke="black" d="M144.7,-941.81C153.26,-933 163.84,-922.13 173.23,-912.46"/>
<polygon fill="black" stroke="black" points="175.99,-914.64 180.45,-905.03 170.97,-909.76 175.99,-914.64"/>
</g>
<!-- add_plt_got -->
<g id="node16" class="node">
<title>add_plt_got</title>
<polygon fill="none" stroke="black" points="175,-822 69,-822 69,-786 175,-786 175,-822"/>
<text text-anchor="middle" x="122" y="-801.5" font-family="Courier,monospace" font-size="10.00">添加 .plt.got 节</text>
</g>
<!-- check_plt_got&#45;&gt;add_plt_got -->
<g id="edge20" class="edge">
<title>check_plt_got&#45;&gt;add_plt_got</title>
<path fill="none" stroke="black" d="M181.09,-868.82C170.55,-857.44 156.56,-842.33 144.84,-829.66"/>
<polygon fill="black" stroke="black" points="147.24,-827.11 137.88,-822.15 142.11,-831.87 147.24,-827.11"/>
<text text-anchor="middle" x="173" y="-843" font-family="Courier,monospace" font-size="10.00">需要</text>
</g>
<!-- check_copy_rel -->
<g id="node17" class="node">
<title>check_copy_rel</title>
<polygon fill="none" stroke="black" points="259.5,-749 114.5,-749 114.5,-713 259.5,-713 259.5,-749"/>
<text text-anchor="middle" x="187" y="-728.5" font-family="Courier,monospace" font-size="10.00">检查是否需要 .copyrel 节</text>
</g>
<!-- check_plt_got&#45;&gt;check_copy_rel -->
<g id="edge21" class="edge">
<title>check_plt_got&#45;&gt;check_copy_rel</title>
<path fill="none" stroke="black" d="M195.89,-868.93C194.17,-842.45 190.85,-791.22 188.78,-759.49"/>
<polygon fill="black" stroke="black" points="192.25,-758.9 188.11,-749.15 185.27,-759.35 192.25,-758.9"/>
<text text-anchor="middle" x="207" y="-801.5" font-family="Courier,monospace" font-size="10.00">不需要</text>
</g>
<!-- add_plt_got&#45;&gt;check_copy_rel -->
<g id="edge22" class="edge">
<title>add_plt_got&#45;&gt;check_copy_rel</title>
<path fill="none" stroke="black" d="M137.73,-785.81C145.8,-777 155.76,-766.13 164.61,-756.46"/>
<polygon fill="black" stroke="black" points="167.24,-758.77 171.41,-749.03 162.08,-754.04 167.24,-758.77"/>
</g>
<!-- add_copy_rel -->
<g id="node18" class="node">
<title>add_copy_rel</title>
<polygon fill="none" stroke="black" points="181,-666 75,-666 75,-630 181,-630 181,-666"/>
<text text-anchor="middle" x="128" y="-645.5" font-family="Courier,monospace" font-size="10.00">添加 .copyrel 节</text>
</g>
<!-- check_copy_rel&#45;&gt;add_copy_rel -->
<g id="edge23" class="edge">
<title>check_copy_rel&#45;&gt;add_copy_rel</title>
<path fill="none" stroke="black" d="M174.49,-712.82C166.35,-701.65 155.6,-686.9 146.49,-674.38"/>
<polygon fill="black" stroke="black" points="149.21,-672.18 140.49,-666.15 143.55,-676.3 149.21,-672.18"/>
<text text-anchor="middle" x="171" y="-687" font-family="Courier,monospace" font-size="10.00">需要</text>
</g>
<!-- check_interp -->
<g id="node19" class="node">
<title>check_interp</title>
<polygon fill="none" stroke="black" points="266.5,-593 127.5,-593 127.5,-557 266.5,-557 266.5,-593"/>
<text text-anchor="middle" x="197" y="-572.5" font-family="Courier,monospace" font-size="10.00">检查是否需要 .interp 节</text>
</g>
<!-- check_copy_rel&#45;&gt;check_interp -->
<g id="edge24" class="edge">
<title>check_copy_rel&#45;&gt;check_interp</title>
<path fill="none" stroke="black" d="M188.11,-712.93C189.83,-686.45 193.15,-635.22 195.22,-603.49"/>
<polygon fill="black" stroke="black" points="198.73,-603.35 195.89,-593.15 191.75,-602.9 198.73,-603.35"/>
<text text-anchor="middle" x="208" y="-645.5" font-family="Courier,monospace" font-size="10.00">不需要</text>
</g>
<!-- add_copy_rel&#45;&gt;check_interp -->
<g id="edge25" class="edge">
<title>add_copy_rel&#45;&gt;check_interp</title>
<path fill="none" stroke="black" d="M144.7,-629.81C153.26,-621 163.84,-610.13 173.23,-600.46"/>
<polygon fill="black" stroke="black" points="175.99,-602.64 180.45,-593.03 170.97,-597.76 175.99,-602.64"/>
</g>
<!-- add_interp -->
<g id="node20" class="node">
<title>add_interp</title>
<polygon fill="none" stroke="black" points="179,-510 79,-510 79,-474 179,-474 179,-510"/>
<text text-anchor="middle" x="129" y="-489.5" font-family="Courier,monospace" font-size="10.00">添加 .interp 节</text>
</g>
<!-- check_interp&#45;&gt;add_interp -->
<g id="edge26" class="edge">
<title>check_interp&#45;&gt;add_interp</title>
<path fill="none" stroke="black" d="M182.58,-556.82C173.11,-545.55 160.57,-530.61 150.01,-518.02"/>
<polygon fill="black" stroke="black" points="152.51,-515.56 143.4,-510.15 147.15,-520.06 152.51,-515.56"/>
<text text-anchor="middle" x="177" y="-531" font-family="Courier,monospace" font-size="10.00">需要</text>
</g>
<!-- check_dynamic_sections -->
<g id="node21" class="node">
<title>check_dynamic_sections</title>
<polygon fill="none" stroke="black" points="255.5,-437 136.5,-437 136.5,-401 255.5,-401 255.5,-437"/>
<text text-anchor="middle" x="196" y="-416.5" font-family="Courier,monospace" font-size="10.00">检查是否是动态库/PIE</text>
</g>
<!-- check_interp&#45;&gt;check_dynamic_sections -->
<g id="edge27" class="edge">
<title>check_interp&#45;&gt;check_dynamic_sections</title>
<path fill="none" stroke="black" d="M196.89,-556.93C196.72,-530.45 196.38,-479.22 196.18,-447.49"/>
<polygon fill="black" stroke="black" points="199.68,-447.12 196.11,-437.15 192.68,-447.17 199.68,-447.12"/>
<text text-anchor="middle" x="211" y="-489.5" font-family="Courier,monospace" font-size="10.00">不需要</text>
</g>
<!-- add_interp&#45;&gt;check_dynamic_sections -->
<g id="edge28" class="edge">
<title>add_interp&#45;&gt;check_dynamic_sections</title>
<path fill="none" stroke="black" d="M145.22,-473.81C153.53,-465 163.8,-454.13 172.92,-444.46"/>
<polygon fill="black" stroke="black" points="175.61,-446.7 179.93,-437.03 170.52,-441.9 175.61,-446.7"/>
</g>
<!-- add_dynstrtab -->
<g id="node22" class="node">
<title>add_dynstrtab</title>
<polygon fill="none" stroke="black" points="228,-354 16,-354 16,-318 228,-318 228,-354"/>
<text text-anchor="middle" x="122" y="-333.5" font-family="Courier,monospace" font-size="10.00">添加 .dynstr/.dynamic/.dynsym 等节</text>
</g>
<!-- check_dynamic_sections&#45;&gt;add_dynstrtab -->
<g id="edge29" class="edge">
<title>check_dynamic_sections&#45;&gt;add_dynstrtab</title>
<path fill="none" stroke="black" d="M180.31,-400.82C169.91,-389.44 156.1,-374.33 144.53,-361.66"/>
<polygon fill="black" stroke="black" points="147,-359.18 137.67,-354.15 141.83,-363.9 147,-359.18"/>
<text text-anchor="middle" x="168" y="-375" font-family="Courier,monospace" font-size="10.00">是</text>
</g>
<!-- check_versions -->
<g id="node23" class="node">
<title>check_versions</title>
<polygon fill="none" stroke="black" points="224,-281 120,-281 120,-245 224,-245 224,-281"/>
<text text-anchor="middle" x="172" y="-260.5" font-family="Courier,monospace" font-size="10.00">检查是否需要版本节</text>
</g>
<!-- check_dynamic_sections&#45;&gt;check_versions -->
<g id="edge30" class="edge">
<title>check_dynamic_sections&#45;&gt;check_versions</title>
<path fill="none" stroke="black" d="M211.95,-400.79C228.55,-380.69 250.39,-346.54 237,-318 231.34,-305.95 221.53,-295.66 211.22,-287.39"/>
<polygon fill="black" stroke="black" points="213.02,-284.37 202.91,-281.2 208.84,-289.98 213.02,-284.37"/>
<text text-anchor="middle" x="246" y="-333.5" font-family="Courier,monospace" font-size="10.00">否</text>
</g>
<!-- add_dynstrtab&#45;&gt;check_versions -->
<g id="edge31" class="edge">
<title>add_dynstrtab&#45;&gt;check_versions</title>
<path fill="none" stroke="black" d="M134.1,-317.81C140.12,-309.27 147.51,-298.77 154.17,-289.32"/>
<polygon fill="black" stroke="black" points="157.11,-291.22 160.01,-281.03 151.39,-287.19 157.11,-291.22"/>
</g>
<!-- add_versions -->
<g id="node24" class="node">
<title>add_versions</title>
<polygon fill="none" stroke="black" points="169,-198 29,-198 29,-162 169,-162 169,-198"/>
<text text-anchor="middle" x="99" y="-177.5" font-family="Courier,monospace" font-size="10.00">添加 .gnu.version 等节</text>
</g>
<!-- check_versions&#45;&gt;add_versions -->
<g id="edge32" class="edge">
<title>check_versions&#45;&gt;add_versions</title>
<path fill="none" stroke="black" d="M156.52,-244.82C146.26,-233.44 132.64,-218.33 121.23,-205.66"/>
<polygon fill="black" stroke="black" points="123.75,-203.24 114.46,-198.15 118.55,-207.92 123.75,-203.24"/>
<text text-anchor="middle" x="149" y="-219" font-family="Courier,monospace" font-size="10.00">需要</text>
</g>
<!-- final_steps -->
<g id="node25" class="node">
<title>final_steps</title>
<polygon fill="none" stroke="black" points="242,-125 48,-125 48,-89 242,-89 242,-125"/>
<text text-anchor="middle" x="145" y="-104.5" font-family="Courier,monospace" font-size="10.00">执行 initSymtab 和 initShStrtab</text>
</g>
<!-- check_versions&#45;&gt;final_steps -->
<g id="edge33" class="edge">
<title>check_versions&#45;&gt;final_steps</title>
<path fill="none" stroke="black" d="M176.44,-244.65C180.86,-224.4 185.91,-190.13 178,-162 175.22,-152.11 170.06,-142.24 164.64,-133.69"/>
<polygon fill="black" stroke="black" points="167.49,-131.65 158.99,-125.32 161.69,-135.57 167.49,-131.65"/>
<text text-anchor="middle" x="197" y="-177.5" font-family="Courier,monospace" font-size="10.00">不需要</text>
</g>
<!-- add_versions&#45;&gt;final_steps -->
<g id="edge34" class="edge">
<title>add_versions&#45;&gt;final_steps</title>
<path fill="none" stroke="black" d="M110.14,-161.81C115.62,-153.35 122.33,-142.98 128.41,-133.61"/>
<polygon fill="black" stroke="black" points="131.47,-135.32 133.97,-125.03 125.59,-131.52 131.47,-135.32"/>
</g>
<!-- final_steps&#45;&gt;end -->
<g id="edge35" class="edge">
<title>final_steps&#45;&gt;end</title>
<path fill="none" stroke="black" d="M145,-88.81C145,-80.79 145,-71.05 145,-62.07"/>
<polygon fill="black" stroke="black" points="148.5,-62.03 145,-52.03 141.5,-62.03 148.5,-62.03"/>
</g>
</g>
</svg>
