<?xml version="1.0" encoding="UTF-8" standalone="no"?>
<!DOCTYPE svg PUBLIC "-//W3C//DTD SVG 1.1//EN"
 "http://www.w3.org/Graphics/SVG/1.1/DTD/svg11.dtd">
<!-- Generated by graphviz version 2.43.0 (0)
 -->
<!-- Title: resolveInputs Pages: 1 -->
<svg width="1236pt" height="982pt"
 viewBox="0.00 0.00 1236.00 982.00" xmlns="http://www.w3.org/2000/svg" xmlns:xlink="http://www.w3.org/1999/xlink">
<g id="graph0" class="graph" transform="scale(1 1) rotate(0) translate(4 978)">
<title>resolveInputs</title>
<polygon fill="white" stroke="transparent" points="-4,4 -4,-978 1232,-978 1232,4 -4,4"/>
<!-- start -->
<g id="node1" class="node">
<title>start</title>
<path fill="none" stroke="black" d="M551,-974C551,-974 429,-974 429,-974 423,-974 417,-968 417,-962 417,-962 417,-950 417,-950 417,-944 423,-938 429,-938 429,-938 551,-938 551,-938 557,-938 563,-944 563,-950 563,-950 563,-962 563,-962 563,-968 557,-974 551,-974"/>
<text text-anchor="middle" x="490" y="-952.3" font-family="Times,serif" font-size="14.00">开始 resolveInputs</text>
</g>
<!-- init_vars -->
<g id="node2" class="node">
<title>init_vars</title>
<path fill="none" stroke="black" d="M637,-901C637,-901 343,-901 343,-901 337,-901 331,-895 331,-889 331,-889 331,-875 331,-875 331,-869 337,-863 343,-863 343,-863 637,-863 637,-863 643,-863 649,-869 649,-875 649,-875 649,-889 649,-889 649,-895 643,-901 637,-901"/>
<text text-anchor="middle" x="490" y="-885.8" font-family="Times,serif" font-size="14.00">初始化变量:</text>
<text text-anchor="middle" x="490" y="-870.8" font-family="Times,serif" font-size="14.00">checked_paths, ld_script_bytes, failed_libs</text>
</g>
<!-- start&#45;&gt;init_vars -->
<g id="edge1" class="edge">
<title>start&#45;&gt;init_vars</title>
<path fill="none" stroke="black" d="M490,-937.94C490,-929.99 490,-920.31 490,-911.31"/>
<polygon fill="black" stroke="black" points="493.5,-911.2 490,-901.2 486.5,-911.2 493.5,-911.2"/>
</g>
<!-- reverse_inputs -->
<g id="node3" class="node">
<title>reverse_inputs</title>
<path fill="none" stroke="black" d="M590,-826C590,-826 390,-826 390,-826 384,-826 378,-820 378,-814 378,-814 378,-802 378,-802 378,-796 384,-790 390,-790 390,-790 590,-790 590,-790 596,-790 602,-796 602,-802 602,-802 602,-814 602,-814 602,-820 596,-826 590,-826"/>
<text text-anchor="middle" x="490" y="-804.3" font-family="Times,serif" font-size="14.00">反转 unresolved_inputs.items</text>
</g>
<!-- init_vars&#45;&gt;reverse_inputs -->
<g id="edge2" class="edge">
<title>init_vars&#45;&gt;reverse_inputs</title>
<path fill="none" stroke="black" d="M490,-862.83C490,-854.89 490,-845.41 490,-836.63"/>
<polygon fill="black" stroke="black" points="493.5,-836.42 490,-826.42 486.5,-836.42 493.5,-836.42"/>
</g>
<!-- syslib_loop -->
<g id="node4" class="node">
<title>syslib_loop</title>
<path fill="none" stroke="black" d="M533,-753C533,-753 447,-753 447,-753 441,-753 435,-747 435,-741 435,-741 435,-729 435,-729 435,-723 441,-717 447,-717 447,-717 533,-717 533,-717 539,-717 545,-723 545,-729 545,-729 545,-741 545,-741 545,-747 539,-753 533,-753"/>
<text text-anchor="middle" x="490" y="-731.3" font-family="Times,serif" font-size="14.00">主循环: syslib</text>
</g>
<!-- reverse_inputs&#45;&gt;syslib_loop -->
<g id="edge3" class="edge">
<title>reverse_inputs&#45;&gt;syslib_loop</title>
<path fill="none" stroke="black" d="M490,-789.81C490,-781.79 490,-772.05 490,-763.07"/>
<polygon fill="black" stroke="black" points="493.5,-763.03 490,-753.03 486.5,-763.03 493.5,-763.03"/>
</g>
<!-- unresolved_input_pop -->
<g id="node5" class="node">
<title>unresolved_input_pop</title>
<path fill="none" stroke="black" d="M755.5,-666C755.5,-666 558.5,-666 558.5,-666 552.5,-666 546.5,-660 546.5,-654 546.5,-654 546.5,-642 546.5,-642 546.5,-636 552.5,-630 558.5,-630 558.5,-630 755.5,-630 755.5,-630 761.5,-630 767.5,-636 767.5,-642 767.5,-642 767.5,-654 767.5,-654 767.5,-660 761.5,-666 755.5,-666"/>
<text text-anchor="middle" x="657" y="-644.3" font-family="Times,serif" font-size="14.00">弹出 unresolved_inputs.pop()</text>
</g>
<!-- syslib_loop&#45;&gt;unresolved_input_pop -->
<g id="edge4" class="edge">
<title>syslib_loop&#45;&gt;unresolved_input_pop</title>
<path fill="none" stroke="black" d="M523.79,-716.8C549.91,-703.51 586.23,-685.02 614.35,-670.71"/>
<polygon fill="black" stroke="black" points="616.22,-673.69 623.54,-666.03 613.04,-667.45 616.22,-673.69"/>
<text text-anchor="middle" x="613" y="-687.8" font-family="Times,serif" font-size="14.00">循环处理</text>
</g>
<!-- check_failed_libs -->
<g id="node26" class="node">
<title>check_failed_libs</title>
<path fill="none" stroke="black" d="M405.5,-666C405.5,-666 264.5,-666 264.5,-666 258.5,-666 252.5,-660 252.5,-654 252.5,-654 252.5,-642 252.5,-642 252.5,-636 258.5,-630 264.5,-630 264.5,-630 405.5,-630 405.5,-630 411.5,-630 417.5,-636 417.5,-642 417.5,-642 417.5,-654 417.5,-654 417.5,-660 411.5,-666 405.5,-666"/>
<text text-anchor="middle" x="335" y="-644.3" font-family="Times,serif" font-size="14.00">检查 failed_libs.items</text>
</g>
<!-- syslib_loop&#45;&gt;check_failed_libs -->
<g id="edge34" class="edge">
<title>syslib_loop&#45;&gt;check_failed_libs</title>
<path fill="none" stroke="black" d="M434.97,-724.71C414.58,-719.46 392.05,-711.37 374,-699 364.74,-692.65 356.66,-683.43 350.3,-674.62"/>
<polygon fill="black" stroke="black" points="353.03,-672.41 344.53,-666.08 347.23,-676.33 353.03,-672.41"/>
<text text-anchor="middle" x="403" y="-687.8" font-family="Times,serif" font-size="14.00">循环结束</text>
</g>
<!-- switch_unresolved_input -->
<g id="node6" class="node">
<title>switch_unresolved_input</title>
<path fill="none" stroke="black" d="M826.5,-579C826.5,-579 649.5,-579 649.5,-579 643.5,-579 637.5,-573 637.5,-567 637.5,-567 637.5,-555 637.5,-555 637.5,-549 643.5,-543 649.5,-543 649.5,-543 826.5,-543 826.5,-543 832.5,-543 838.5,-549 838.5,-555 838.5,-555 838.5,-567 838.5,-567 838.5,-573 832.5,-579 826.5,-579"/>
<text text-anchor="middle" x="738" y="-557.3" font-family="Times,serif" font-size="14.00">switch (unresolved_input)</text>
</g>
<!-- unresolved_input_pop&#45;&gt;switch_unresolved_input -->
<g id="edge5" class="edge">
<title>unresolved_input_pop&#45;&gt;switch_unresolved_input</title>
<path fill="none" stroke="black" d="M673.39,-629.8C685.25,-617.36 701.44,-600.36 714.65,-586.5"/>
<polygon fill="black" stroke="black" points="717.27,-588.83 721.63,-579.18 712.2,-584 717.27,-588.83"/>
</g>
<!-- case_name_query -->
<g id="node7" class="node">
<title>case_name_query</title>
<path fill="none" stroke="black" d="M644,-471C644,-471 524,-471 524,-471 518,-471 512,-465 512,-459 512,-459 512,-447 512,-447 512,-441 518,-435 524,-435 524,-435 644,-435 644,-435 650,-435 656,-441 656,-447 656,-447 656,-459 656,-459 656,-465 650,-471 644,-471"/>
<text text-anchor="middle" x="584" y="-449.3" font-family="Times,serif" font-size="14.00">case .name_query</text>
</g>
<!-- switch_unresolved_input&#45;&gt;case_name_query -->
<g id="edge6" class="edge">
<title>switch_unresolved_input&#45;&gt;case_name_query</title>
<path fill="none" stroke="black" d="M713.26,-542.97C687.29,-525.1 646.31,-496.89 617.47,-477.04"/>
<polygon fill="black" stroke="black" points="619.16,-473.95 608.94,-471.16 615.19,-479.72 619.16,-473.95"/>
</g>
<!-- case_ambiguous_name -->
<g id="node14" class="node">
<title>case_ambiguous_name</title>
<path fill="none" stroke="black" d="M1143.5,-471C1143.5,-471 986.5,-471 986.5,-471 980.5,-471 974.5,-465 974.5,-459 974.5,-459 974.5,-447 974.5,-447 974.5,-441 980.5,-435 986.5,-435 986.5,-435 1143.5,-435 1143.5,-435 1149.5,-435 1155.5,-441 1155.5,-447 1155.5,-447 1155.5,-459 1155.5,-459 1155.5,-465 1149.5,-471 1143.5,-471"/>
<text text-anchor="middle" x="1065" y="-449.3" font-family="Times,serif" font-size="14.00">case .ambiguous_name</text>
</g>
<!-- switch_unresolved_input&#45;&gt;case_ambiguous_name -->
<g id="edge17" class="edge">
<title>switch_unresolved_input&#45;&gt;case_ambiguous_name</title>
<path fill="none" stroke="black" d="M790.54,-542.97C848.38,-524.22 941.29,-494.1 1002.74,-474.18"/>
<polygon fill="black" stroke="black" points="1003.89,-477.49 1012.32,-471.08 1001.73,-470.83 1003.89,-477.49"/>
</g>
<!-- case_path_query -->
<g id="node20" class="node">
<title>case_path_query</title>
<path fill="none" stroke="black" d="M944.5,-471C944.5,-471 831.5,-471 831.5,-471 825.5,-471 819.5,-465 819.5,-459 819.5,-459 819.5,-447 819.5,-447 819.5,-441 825.5,-435 831.5,-435 831.5,-435 944.5,-435 944.5,-435 950.5,-435 956.5,-441 956.5,-447 956.5,-447 956.5,-459 956.5,-459 956.5,-465 950.5,-471 944.5,-471"/>
<text text-anchor="middle" x="888" y="-449.3" font-family="Times,serif" font-size="14.00">case .path_query</text>
</g>
<!-- switch_unresolved_input&#45;&gt;case_path_query -->
<g id="edge25" class="edge">
<title>switch_unresolved_input&#45;&gt;case_path_query</title>
<path fill="none" stroke="black" d="M762.1,-542.97C787.32,-525.15 827.07,-497.06 855.15,-477.21"/>
<polygon fill="black" stroke="black" points="857.31,-479.97 863.46,-471.34 853.27,-474.25 857.31,-479.97"/>
</g>
<!-- case_dso_exact -->
<g id="node24" class="node">
<title>case_dso_exact</title>
<path fill="none" stroke="black" d="M789.5,-471C789.5,-471 686.5,-471 686.5,-471 680.5,-471 674.5,-465 674.5,-459 674.5,-459 674.5,-447 674.5,-447 674.5,-441 680.5,-435 686.5,-435 686.5,-435 789.5,-435 789.5,-435 795.5,-435 801.5,-441 801.5,-447 801.5,-447 801.5,-459 801.5,-459 801.5,-465 795.5,-471 789.5,-471"/>
<text text-anchor="middle" x="738" y="-449.3" font-family="Times,serif" font-size="14.00">case .dso_exact</text>
</g>
<!-- switch_unresolved_input&#45;&gt;case_dso_exact -->
<g id="edge31" class="edge">
<title>switch_unresolved_input&#45;&gt;case_dso_exact</title>
<path fill="none" stroke="black" d="M738,-542.97C738,-526.38 738,-500.88 738,-481.43"/>
<polygon fill="black" stroke="black" points="741.5,-481.34 738,-471.34 734.5,-481.34 741.5,-481.34"/>
</g>
<!-- check_search_strategy -->
<g id="node8" class="node">
<title>check_search_strategy</title>
<path fill="none" stroke="black" d="M368,-384C368,-384 186,-384 186,-384 180,-384 174,-378 174,-372 174,-372 174,-360 174,-360 174,-354 180,-348 186,-348 186,-348 368,-348 368,-348 374,-348 380,-354 380,-360 380,-360 380,-372 380,-372 380,-378 374,-384 368,-384"/>
<text text-anchor="middle" x="277" y="-362.3" font-family="Times,serif" font-size="14.00">检查 query.search_strategy</text>
</g>
<!-- case_name_query&#45;&gt;check_search_strategy -->
<g id="edge7" class="edge">
<title>case_name_query&#45;&gt;check_search_strategy</title>
<path fill="none" stroke="black" d="M522.24,-434.9C472.07,-421.01 401.25,-401.4 348.6,-386.82"/>
<polygon fill="black" stroke="black" points="349.23,-383.37 338.66,-384.07 347.36,-390.11 349.23,-383.37"/>
</g>
<!-- mode_first_no_fallback -->
<g id="node9" class="node">
<title>mode_first_no_fallback</title>
<path fill="none" stroke="black" d="M224,-297C224,-297 40,-297 40,-297 34,-297 28,-291 28,-285 28,-285 28,-273 28,-273 28,-267 34,-261 40,-261 40,-261 224,-261 224,-261 230,-261 236,-267 236,-273 236,-273 236,-285 236,-285 236,-291 230,-297 224,-297"/>
<text text-anchor="middle" x="132" y="-275.3" font-family="Times,serif" font-size="14.00">处理 mode_first/no_fallback</text>
</g>
<!-- check_search_strategy&#45;&gt;mode_first_no_fallback -->
<g id="edge8" class="edge">
<title>check_search_strategy&#45;&gt;mode_first_no_fallback</title>
<path fill="none" stroke="black" d="M173.64,-349.63C153.93,-344.59 137.42,-338.14 131,-330 125.93,-323.58 124.73,-315.11 125.24,-306.97"/>
<polygon fill="black" stroke="black" points="128.71,-307.41 126.63,-297.02 121.78,-306.44 128.71,-307.41"/>
<text text-anchor="middle" x="211" y="-318.8" font-family="Times,serif" font-size="14.00">mode_first/no_fallback</text>
</g>
<!-- paths_first -->
<g id="node10" class="node">
<title>paths_first</title>
<path fill="none" stroke="black" d="M367.5,-297C367.5,-297 266.5,-297 266.5,-297 260.5,-297 254.5,-291 254.5,-285 254.5,-285 254.5,-273 254.5,-273 254.5,-267 260.5,-261 266.5,-261 266.5,-261 367.5,-261 367.5,-261 373.5,-261 379.5,-267 379.5,-273 379.5,-273 379.5,-285 379.5,-285 379.5,-291 373.5,-297 367.5,-297"/>
<text text-anchor="middle" x="317" y="-275.3" font-family="Times,serif" font-size="14.00">处理 paths_first</text>
</g>
<!-- check_search_strategy&#45;&gt;paths_first -->
<g id="edge9" class="edge">
<title>check_search_strategy&#45;&gt;paths_first</title>
<path fill="none" stroke="black" d="M286.18,-347.66C289.08,-342.06 292.24,-335.8 295,-330 298.61,-322.42 302.36,-314.09 305.72,-306.45"/>
<polygon fill="black" stroke="black" points="308.94,-307.81 309.72,-297.24 302.52,-305.02 308.94,-307.81"/>
<text text-anchor="middle" x="340" y="-318.8" font-family="Times,serif" font-size="14.00">paths_first</text>
</g>
<!-- resolveLibInput_call -->
<g id="node11" class="node">
<title>resolveLibInput_call</title>
<path fill="none" stroke="black" d="M258,-210C258,-210 110,-210 110,-210 104,-210 98,-204 98,-198 98,-198 98,-186 98,-186 98,-180 104,-174 110,-174 110,-174 258,-174 258,-174 264,-174 270,-180 270,-186 270,-186 270,-198 270,-198 270,-204 264,-210 258,-210"/>
<text text-anchor="middle" x="184" y="-188.3" font-family="Times,serif" font-size="14.00">调用 resolveLibInput()</text>
</g>
<!-- mode_first_no_fallback&#45;&gt;resolveLibInput_call -->
<g id="edge10" class="edge">
<title>mode_first_no_fallback&#45;&gt;resolveLibInput_call</title>
<path fill="none" stroke="black" d="M142.52,-260.8C149.85,-248.82 159.76,-232.62 168.06,-219.06"/>
<polygon fill="black" stroke="black" points="171.26,-220.53 173.49,-210.18 165.29,-216.88 171.26,-220.53"/>
</g>
<!-- paths_first&#45;&gt;resolveLibInput_call -->
<g id="edge15" class="edge">
<title>paths_first&#45;&gt;resolveLibInput_call</title>
<path fill="none" stroke="black" d="M288.23,-260.99C278.85,-255.35 268.43,-248.99 259,-243 245.37,-234.35 230.54,-224.55 217.69,-215.93"/>
<polygon fill="black" stroke="black" points="219.41,-212.86 209.16,-210.18 215.5,-218.67 219.41,-212.86"/>
<text text-anchor="middle" x="326.5" y="-231.8" font-family="Times,serif" font-size="14.00">遍历 lib_directories</text>
</g>
<!-- check_result -->
<g id="node12" class="node">
<title>check_result</title>
<path fill="none" stroke="black" d="M269,-123C269,-123 99,-123 99,-123 93,-123 87,-117 87,-111 87,-111 87,-99 87,-99 87,-93 93,-87 99,-87 99,-87 269,-87 269,-87 275,-87 281,-93 281,-99 281,-99 281,-111 281,-111 281,-117 275,-123 269,-123"/>
<text text-anchor="middle" x="184" y="-101.3" font-family="Times,serif" font-size="14.00">检查 resolveLibInput 结果</text>
</g>
<!-- resolveLibInput_call&#45;&gt;check_result -->
<g id="edge11" class="edge">
<title>resolveLibInput_call&#45;&gt;check_result</title>
<path fill="none" stroke="black" d="M178.45,-173.8C177.19,-162.16 176.92,-146.55 177.65,-133.24"/>
<polygon fill="black" stroke="black" points="181.15,-133.42 178.45,-123.18 174.17,-132.87 181.15,-133.42"/>
</g>
<!-- resolveLibInput_call&#45;&gt;check_result -->
<g id="edge16" class="edge">
<title>resolveLibInput_call&#45;&gt;check_result</title>
<path fill="none" stroke="black" d="M189.55,-173.8C190.81,-162.16 191.08,-146.55 190.35,-133.24"/>
<polygon fill="black" stroke="black" points="193.83,-132.87 189.55,-123.18 186.85,-133.42 193.83,-132.87"/>
</g>
<!-- check_result&#45;&gt;syslib_loop -->
<g id="edge12" class="edge">
<title>check_result&#45;&gt;syslib_loop</title>
<path fill="none" stroke="black" d="M86.88,-115.88C42.65,-126.32 0,-147.63 0,-191 0,-649 0,-649 0,-649 0,-691.6 291.22,-719.04 424.64,-729.37"/>
<polygon fill="black" stroke="black" points="424.51,-732.87 434.74,-730.14 425.04,-725.89 424.51,-732.87"/>
<text text-anchor="middle" x="14.5" y="-405.8" font-family="Times,serif" font-size="14.00">成功</text>
</g>
<!-- append_failed_libs -->
<g id="node13" class="node">
<title>append_failed_libs</title>
<path fill="none" stroke="black" d="M798.5,-36C798.5,-36 687.5,-36 687.5,-36 681.5,-36 675.5,-30 675.5,-24 675.5,-24 675.5,-12 675.5,-12 675.5,-6 681.5,0 687.5,0 687.5,0 798.5,0 798.5,0 804.5,0 810.5,-6 810.5,-12 810.5,-12 810.5,-24 810.5,-24 810.5,-30 804.5,-36 798.5,-36"/>
<text text-anchor="middle" x="743" y="-14.3" font-family="Times,serif" font-size="14.00">添加到 failed_libs</text>
</g>
<!-- check_result&#45;&gt;append_failed_libs -->
<g id="edge13" class="edge">
<title>check_result&#45;&gt;append_failed_libs</title>
<path fill="none" stroke="black" d="M281.05,-89.24C390.02,-72.67 564.69,-46.11 665.12,-30.84"/>
<polygon fill="black" stroke="black" points="665.84,-34.27 675.2,-29.31 664.79,-27.35 665.84,-34.27"/>
<text text-anchor="middle" x="511.5" y="-57.8" font-family="Times,serif" font-size="14.00">失败</text>
</g>
<!-- append_failed_libs&#45;&gt;syslib_loop -->
<g id="edge14" class="edge">
<title>append_failed_libs&#45;&gt;syslib_loop</title>
<path fill="none" stroke="black" d="M810.69,-23.94C944.06,-34.57 1228,-62.14 1228,-104 1228,-649 1228,-649 1228,-649 1228,-705.96 1165.64,-686.83 1110,-699 1005.94,-721.76 693.13,-730.24 555.83,-732.92"/>
<polygon fill="black" stroke="black" points="555.39,-729.43 545.46,-733.12 555.52,-736.43 555.39,-729.43"/>
</g>
<!-- resolvePathInput_call1 -->
<g id="node15" class="node">
<title>resolvePathInput_call1</title>
<path fill="none" stroke="black" d="M1144,-384C1144,-384 946,-384 946,-384 940,-384 934,-378 934,-372 934,-372 934,-360 934,-360 934,-354 940,-348 946,-348 946,-348 1144,-348 1144,-348 1150,-348 1156,-354 1156,-360 1156,-360 1156,-372 1156,-372 1156,-378 1150,-384 1144,-384"/>
<text text-anchor="middle" x="1045" y="-362.3" font-family="Times,serif" font-size="14.00">调用 resolvePathInput (CWD)</text>
</g>
<!-- case_ambiguous_name&#45;&gt;resolvePathInput_call1 -->
<g id="edge18" class="edge">
<title>case_ambiguous_name&#45;&gt;resolvePathInput_call1</title>
<path fill="none" stroke="black" d="M1060.95,-434.8C1058.21,-423.16 1054.54,-407.55 1051.41,-394.24"/>
<polygon fill="black" stroke="black" points="1054.74,-393.11 1049.04,-384.18 1047.92,-394.71 1054.74,-393.11"/>
</g>
<!-- check_path_result -->
<g id="node16" class="node">
<title>check_path_result</title>
<path fill="none" stroke="black" d="M1070,-297C1070,-297 1020,-297 1020,-297 1014,-297 1008,-291 1008,-285 1008,-285 1008,-273 1008,-273 1008,-267 1014,-261 1020,-261 1020,-261 1070,-261 1070,-261 1076,-261 1082,-267 1082,-273 1082,-273 1082,-285 1082,-285 1082,-291 1076,-297 1070,-297"/>
<text text-anchor="middle" x="1045" y="-275.3" font-family="Times,serif" font-size="14.00">检查结果</text>
</g>
<!-- resolvePathInput_call1&#45;&gt;check_path_result -->
<g id="edge19" class="edge">
<title>resolvePathInput_call1&#45;&gt;check_path_result</title>
<path fill="none" stroke="black" d="M1045,-347.8C1045,-336.16 1045,-320.55 1045,-307.24"/>
<polygon fill="black" stroke="black" points="1048.5,-307.18 1045,-297.18 1041.5,-307.18 1048.5,-307.18"/>
</g>
<!-- check_path_result&#45;&gt;syslib_loop -->
<g id="edge20" class="edge">
<title>check_path_result&#45;&gt;syslib_loop</title>
<path fill="none" stroke="black" d="M1082.25,-286.22C1123.42,-295.46 1184,-317.2 1184,-365 1184,-649 1184,-649 1184,-649 1184,-711.97 728,-728.71 555.26,-732.78"/>
<polygon fill="black" stroke="black" points="554.95,-729.29 545.04,-733.02 555.11,-736.29 554.95,-729.29"/>
<text text-anchor="middle" x="1198.5" y="-503.3" font-family="Times,serif" font-size="14.00">成功</text>
</g>
<!-- resolvePathInput_call2 -->
<g id="node17" class="node">
<title>resolvePathInput_call2</title>
<path fill="none" stroke="black" d="M1183,-210C1183,-210 919,-210 919,-210 913,-210 907,-204 907,-198 907,-198 907,-186 907,-186 907,-180 913,-174 919,-174 919,-174 1183,-174 1183,-174 1189,-174 1195,-180 1195,-186 1195,-186 1195,-198 1195,-198 1195,-204 1189,-210 1183,-210"/>
<text text-anchor="middle" x="1051" y="-188.3" font-family="Times,serif" font-size="14.00">调用 resolvePathInput (lib_directories)</text>
</g>
<!-- check_path_result&#45;&gt;resolvePathInput_call2 -->
<g id="edge21" class="edge">
<title>check_path_result&#45;&gt;resolvePathInput_call2</title>
<path fill="none" stroke="black" d="M1046.21,-260.8C1047.04,-249.16 1048.14,-233.55 1049.08,-220.24"/>
<polygon fill="black" stroke="black" points="1052.57,-220.4 1049.79,-210.18 1045.59,-219.9 1052.57,-220.4"/>
<text text-anchor="middle" x="1062.5" y="-231.8" font-family="Times,serif" font-size="14.00">失败</text>
</g>
<!-- fatal_error1 -->
<g id="node18" class="node">
<title>fatal_error1</title>
<path fill="none" stroke="black" d="M839.5,-210C839.5,-210 732.5,-210 732.5,-210 726.5,-210 720.5,-204 720.5,-198 720.5,-198 720.5,-186 720.5,-186 720.5,-180 726.5,-174 732.5,-174 732.5,-174 839.5,-174 839.5,-174 845.5,-174 851.5,-180 851.5,-186 851.5,-186 851.5,-198 851.5,-198 851.5,-204 845.5,-210 839.5,-210"/>
<text text-anchor="middle" x="786" y="-188.3" font-family="Times,serif" font-size="14.00">fatal(文件未找到)</text>
</g>
<!-- check_path_result&#45;&gt;fatal_error1 -->
<g id="edge23" class="edge">
<title>check_path_result&#45;&gt;fatal_error1</title>
<path fill="none" stroke="black" d="M1007.89,-265.82C966.19,-252.14 897.82,-229.7 847.98,-213.34"/>
<polygon fill="black" stroke="black" points="848.86,-209.95 838.27,-210.15 846.68,-216.6 848.86,-209.95"/>
<text text-anchor="middle" x="960" y="-231.8" font-family="Times,serif" font-size="14.00">完全失败</text>
</g>
<!-- resolvePathInput_call2&#45;&gt;check_path_result -->
<g id="edge22" class="edge">
<title>resolvePathInput_call2&#45;&gt;check_path_result</title>
<path fill="none" stroke="black" d="M1048.14,-210.04C1047.3,-215.74 1046.48,-222.13 1046,-228 1045.41,-235.33 1045.1,-243.27 1044.95,-250.63"/>
<polygon fill="black" stroke="black" points="1041.44,-250.81 1044.83,-260.85 1048.44,-250.89 1041.44,-250.81"/>
</g>
<!-- exit -->
<g id="node19" class="node">
<title>exit</title>
<path fill="none" stroke="black" d="M600,-123C600,-123 550,-123 550,-123 544,-123 538,-117 538,-111 538,-111 538,-99 538,-99 538,-93 544,-87 550,-87 550,-87 600,-87 600,-87 606,-87 612,-93 612,-99 612,-99 612,-111 612,-111 612,-117 606,-123 600,-123"/>
<text text-anchor="middle" x="575" y="-101.3" font-family="Times,serif" font-size="14.00">进程退出</text>
</g>
<!-- fatal_error1&#45;&gt;exit -->
<g id="edge24" class="edge">
<title>fatal_error1&#45;&gt;exit</title>
<path fill="none" stroke="black" d="M743.55,-173.9C708.2,-159.66 657.93,-139.41 621.5,-124.73"/>
<polygon fill="black" stroke="black" points="622.67,-121.43 612.09,-120.94 620.05,-127.92 622.67,-121.43"/>
<text text-anchor="middle" x="707.5" y="-144.8" font-family="Times,serif" font-size="14.00">终止</text>
</g>
<!-- resolvePathInput_call3 -->
<g id="node21" class="node">
<title>resolvePathInput_call3</title>
<path fill="none" stroke="black" d="M877.5,-384C877.5,-384 730.5,-384 730.5,-384 724.5,-384 718.5,-378 718.5,-372 718.5,-372 718.5,-360 718.5,-360 718.5,-354 724.5,-348 730.5,-348 730.5,-348 877.5,-348 877.5,-348 883.5,-348 889.5,-354 889.5,-360 889.5,-360 889.5,-372 889.5,-372 889.5,-378 883.5,-384 877.5,-384"/>
<text text-anchor="middle" x="804" y="-362.3" font-family="Times,serif" font-size="14.00">调用 resolvePathInput</text>
</g>
<!-- case_path_query&#45;&gt;resolvePathInput_call3 -->
<g id="edge26" class="edge">
<title>case_path_query&#45;&gt;resolvePathInput_call3</title>
<path fill="none" stroke="black" d="M871,-434.8C858.7,-422.36 841.91,-405.36 828.22,-391.5"/>
<polygon fill="black" stroke="black" points="830.49,-388.83 820.97,-384.18 825.51,-393.75 830.49,-388.83"/>
</g>
<!-- check_path_result2 -->
<g id="node22" class="node">
<title>check_path_result2</title>
<path fill="none" stroke="black" d="M600,-297C600,-297 550,-297 550,-297 544,-297 538,-291 538,-285 538,-285 538,-273 538,-273 538,-267 544,-261 550,-261 550,-261 600,-261 600,-261 606,-261 612,-267 612,-273 612,-273 612,-285 612,-285 612,-291 606,-297 600,-297"/>
<text text-anchor="middle" x="575" y="-275.3" font-family="Times,serif" font-size="14.00">检查结果</text>
</g>
<!-- resolvePathInput_call3&#45;&gt;check_path_result2 -->
<g id="edge27" class="edge">
<title>resolvePathInput_call3&#45;&gt;check_path_result2</title>
<path fill="none" stroke="black" d="M757.93,-347.9C718.36,-333.21 661.55,-312.13 621.77,-297.36"/>
<polygon fill="black" stroke="black" points="622.89,-294.04 612.3,-293.84 620.46,-300.61 622.89,-294.04"/>
</g>
<!-- check_path_result2&#45;&gt;syslib_loop -->
<g id="edge28" class="edge">
<title>check_path_result2&#45;&gt;syslib_loop</title>
<path fill="none" stroke="black" d="M537.69,-287.81C499.59,-298.23 446,-320.75 446,-365 446,-649 446,-649 446,-649 446,-670.73 457.48,-692.44 468.72,-708.48"/>
<polygon fill="black" stroke="black" points="466.09,-710.82 474.86,-716.78 471.72,-706.66 466.09,-710.82"/>
<text text-anchor="middle" x="460.5" y="-503.3" font-family="Times,serif" font-size="14.00">成功</text>
</g>
<!-- fatal_error2 -->
<g id="node23" class="node">
<title>fatal_error2</title>
<path fill="none" stroke="black" d="M628.5,-210C628.5,-210 521.5,-210 521.5,-210 515.5,-210 509.5,-204 509.5,-198 509.5,-198 509.5,-186 509.5,-186 509.5,-180 515.5,-174 521.5,-174 521.5,-174 628.5,-174 628.5,-174 634.5,-174 640.5,-180 640.5,-186 640.5,-186 640.5,-198 640.5,-198 640.5,-204 634.5,-210 628.5,-210"/>
<text text-anchor="middle" x="575" y="-188.3" font-family="Times,serif" font-size="14.00">fatal(文件未找到)</text>
</g>
<!-- check_path_result2&#45;&gt;fatal_error2 -->
<g id="edge29" class="edge">
<title>check_path_result2&#45;&gt;fatal_error2</title>
<path fill="none" stroke="black" d="M575,-260.8C575,-249.16 575,-233.55 575,-220.24"/>
<polygon fill="black" stroke="black" points="578.5,-220.18 575,-210.18 571.5,-220.18 578.5,-220.18"/>
<text text-anchor="middle" x="589.5" y="-231.8" font-family="Times,serif" font-size="14.00">失败</text>
</g>
<!-- fatal_error2&#45;&gt;exit -->
<g id="edge30" class="edge">
<title>fatal_error2&#45;&gt;exit</title>
<path fill="none" stroke="black" d="M575,-173.8C575,-162.16 575,-146.55 575,-133.24"/>
<polygon fill="black" stroke="black" points="578.5,-133.18 575,-123.18 571.5,-133.18 578.5,-133.18"/>
</g>
<!-- append_resolved -->
<g id="node25" class="node">
<title>append_resolved</title>
<path fill="none" stroke="black" d="M661,-384C661,-384 509,-384 509,-384 503,-384 497,-378 497,-372 497,-372 497,-360 497,-360 497,-354 503,-348 509,-348 509,-348 661,-348 661,-348 667,-348 673,-354 673,-360 673,-360 673,-372 673,-372 673,-378 667,-384 661,-384"/>
<text text-anchor="middle" x="585" y="-362.3" font-family="Times,serif" font-size="14.00">添加到 resolved_inputs</text>
</g>
<!-- case_dso_exact&#45;&gt;append_resolved -->
<g id="edge32" class="edge">
<title>case_dso_exact&#45;&gt;append_resolved</title>
<path fill="none" stroke="black" d="M707.04,-434.8C683.21,-421.56 650.13,-403.18 624.41,-388.9"/>
<polygon fill="black" stroke="black" points="626.1,-385.83 615.65,-384.03 622.7,-391.95 626.1,-385.83"/>
</g>
<!-- append_resolved&#45;&gt;syslib_loop -->
<g id="edge33" class="edge">
<title>append_resolved&#45;&gt;syslib_loop</title>
<path fill="none" stroke="black" d="M553.56,-384.02C535.32,-395.74 513.86,-413.14 503,-435 457.82,-525.96 474.06,-652.34 484.26,-707.01"/>
<polygon fill="black" stroke="black" points="480.85,-707.81 486.2,-716.96 487.72,-706.47 480.85,-707.81"/>
</g>
<!-- log_errors -->
<g id="node27" class="node">
<title>log_errors</title>
<path fill="none" stroke="black" d="M405,-525C405,-525 327,-525 327,-525 321,-525 315,-519 315,-513 315,-513 315,-501 315,-501 315,-495 321,-489 327,-489 327,-489 405,-489 405,-489 411,-489 417,-495 417,-501 417,-501 417,-513 417,-513 417,-519 411,-525 405,-525"/>
<text text-anchor="middle" x="366" y="-503.3" font-family="Times,serif" font-size="14.00">记录错误日志</text>
</g>
<!-- check_failed_libs&#45;&gt;log_errors -->
<g id="edge35" class="edge">
<title>check_failed_libs&#45;&gt;log_errors</title>
<path fill="none" stroke="black" d="M338.8,-629.96C344.08,-606.3 353.68,-563.26 359.94,-535.15"/>
<polygon fill="black" stroke="black" points="363.41,-535.71 362.17,-525.18 356.57,-534.18 363.41,-535.71"/>
<text text-anchor="middle" x="382" y="-600.8" font-family="Times,serif" font-size="14.00">存在失败项</text>
</g>
<!-- end -->
<g id="node28" class="node">
<title>end</title>
<path fill="none" stroke="black" d="M303,-579C303,-579 253,-579 253,-579 247,-579 241,-573 241,-567 241,-567 241,-555 241,-555 241,-549 247,-543 253,-543 253,-543 303,-543 303,-543 309,-543 315,-549 315,-555 315,-555 315,-567 315,-567 315,-573 309,-579 303,-579"/>
<text text-anchor="middle" x="278" y="-557.3" font-family="Times,serif" font-size="14.00">函数结束</text>
</g>
<!-- check_failed_libs&#45;&gt;end -->
<g id="edge37" class="edge">
<title>check_failed_libs&#45;&gt;end</title>
<path fill="none" stroke="black" d="M296.11,-629.88C289.29,-625.09 283.07,-619.18 279,-612 275.17,-605.25 273.89,-597.12 273.85,-589.39"/>
<polygon fill="black" stroke="black" points="277.35,-589.47 274.44,-579.28 270.37,-589.06 277.35,-589.47"/>
<text text-anchor="middle" x="308" y="-600.8" font-family="Times,serif" font-size="14.00">无失败项</text>
</g>
<!-- log_errors&#45;&gt;exit -->
<g id="edge36" class="edge">
<title>log_errors&#45;&gt;exit</title>
<path fill="none" stroke="black" d="M378.83,-488.7C391.18,-470.29 408,-439.84 408,-410.5 408,-410.5 408,-410.5 408,-191 408,-136.94 478.37,-117.25 527.75,-110.08"/>
<polygon fill="black" stroke="black" points="528.48,-113.52 537.94,-108.74 527.56,-106.58 528.48,-113.52"/>
</g>
</g>
</svg>
