<?xml version="1.0" encoding="UTF-8" standalone="no"?>
<!DOCTYPE svg PUBLIC "-//W3C//DTD SVG 1.1//EN"
 "http://www.w3.org/Graphics/SVG/1.1/DTD/svg11.dtd">
<!-- Generated by graphviz version 2.43.0 (0)
 -->
<!-- Title: flowchart Pages: 1 -->
<svg width="831pt" height="955pt"
 viewBox="0.00 0.00 831.38 954.60" xmlns="http://www.w3.org/2000/svg" xmlns:xlink="http://www.w3.org/1999/xlink">
<g id="graph0" class="graph" transform="scale(1 1) rotate(0) translate(4 950.6)">
<title>flowchart</title>
<polygon fill="white" stroke="transparent" points="-4,4 -4,-950.6 827.38,-950.6 827.38,4 -4,4"/>
<!-- start -->
<g id="node1" class="node">
<title>start</title>
<path fill="none" stroke="black" d="M672.88,-946.6C672.88,-946.6 503.88,-946.6 503.88,-946.6 497.88,-946.6 491.88,-940.6 491.88,-934.6 491.88,-934.6 491.88,-922.6 491.88,-922.6 491.88,-916.6 497.88,-910.6 503.88,-910.6 503.88,-910.6 672.88,-910.6 672.88,-910.6 678.88,-910.6 684.88,-916.6 684.88,-922.6 684.88,-922.6 684.88,-934.6 684.88,-934.6 684.88,-940.6 678.88,-946.6 672.88,-946.6"/>
<text text-anchor="middle" x="588.38" y="-924.9" font-family="Helvetica,sans-Serif" font-size="14.00">开始 allocateAllocSections</text>
</g>
<!-- init_align -->
<g id="node2" class="node">
<title>init_align</title>
<path fill="none" stroke="black" d="M650.88,-873.6C650.88,-873.6 525.88,-873.6 525.88,-873.6 519.88,-873.6 513.88,-867.6 513.88,-861.6 513.88,-861.6 513.88,-847.6 513.88,-847.6 513.88,-841.6 519.88,-835.6 525.88,-835.6 525.88,-835.6 650.88,-835.6 650.88,-835.6 656.88,-835.6 662.88,-841.6 662.88,-847.6 662.88,-847.6 662.88,-861.6 662.88,-861.6 662.88,-867.6 656.88,-873.6 650.88,-873.6"/>
<text text-anchor="middle" x="588.38" y="-858.4" font-family="Helvetica,sans-Serif" font-size="14.00">初始化 Align 结构体</text>
<text text-anchor="middle" x="588.38" y="-843.4" font-family="Helvetica,sans-Serif" font-size="14.00">记录 TLS 段最大对齐</text>
</g>
<!-- start&#45;&gt;init_align -->
<g id="edge1" class="edge">
<title>start&#45;&gt;init_align</title>
<path fill="none" stroke="black" d="M588.38,-910.54C588.38,-902.59 588.38,-892.91 588.38,-883.91"/>
<polygon fill="black" stroke="black" points="591.88,-883.8 588.38,-873.8 584.88,-883.8 591.88,-883.8"/>
</g>
<!-- find_tls_sections -->
<g id="node3" class="node">
<title>find_tls_sections</title>
<path fill="none" stroke="black" d="M643.38,-798.6C643.38,-798.6 533.38,-798.6 533.38,-798.6 527.38,-798.6 521.38,-792.6 521.38,-786.6 521.38,-786.6 521.38,-757.6 521.38,-757.6 521.38,-751.6 527.38,-745.6 533.38,-745.6 533.38,-745.6 643.38,-745.6 643.38,-745.6 649.38,-745.6 655.38,-751.6 655.38,-757.6 655.38,-757.6 655.38,-786.6 655.38,-786.6 655.38,-792.6 649.38,-798.6 643.38,-798.6"/>
<text text-anchor="middle" x="588.38" y="-783.4" font-family="Helvetica,sans-Serif" font-size="14.00">遍历所有节</text>
<text text-anchor="middle" x="588.38" y="-768.4" font-family="Helvetica,sans-Serif" font-size="14.00">标记第一个 TLS 节</text>
<text text-anchor="middle" x="588.38" y="-753.4" font-family="Helvetica,sans-Serif" font-size="14.00">更新最大对齐</text>
</g>
<!-- init_align&#45;&gt;find_tls_sections -->
<g id="edge2" class="edge">
<title>init_align&#45;&gt;find_tls_sections</title>
<path fill="none" stroke="black" d="M588.38,-835.33C588.38,-827.45 588.38,-817.94 588.38,-808.75"/>
<polygon fill="black" stroke="black" points="591.88,-808.62 588.38,-798.62 584.88,-808.62 591.88,-808.62"/>
</g>
<!-- init_covers -->
<g id="node4" class="node">
<title>init_covers</title>
<path fill="none" stroke="black" d="M671.88,-708.6C671.88,-708.6 504.88,-708.6 504.88,-708.6 498.88,-708.6 492.88,-702.6 492.88,-696.6 492.88,-696.6 492.88,-684.6 492.88,-684.6 492.88,-678.6 498.88,-672.6 504.88,-672.6 504.88,-672.6 671.88,-672.6 671.88,-672.6 677.88,-672.6 683.88,-678.6 683.88,-684.6 683.88,-684.6 683.88,-696.6 683.88,-696.6 683.88,-702.6 677.88,-708.6 671.88,-708.6"/>
<text text-anchor="middle" x="588.38" y="-686.9" font-family="Helvetica,sans-Serif" font-size="14.00">初始化段覆盖数组 (covers)</text>
</g>
<!-- find_tls_sections&#45;&gt;init_covers -->
<g id="edge3" class="edge">
<title>find_tls_sections&#45;&gt;init_covers</title>
<path fill="none" stroke="black" d="M588.38,-745.51C588.38,-737.08 588.38,-727.68 588.38,-719.12"/>
<polygon fill="black" stroke="black" points="591.88,-718.86 588.38,-708.86 584.88,-718.86 591.88,-718.86"/>
</g>
<!-- distribute_sections -->
<g id="node5" class="node">
<title>distribute_sections</title>
<path fill="none" stroke="black" d="M670.38,-635.6C670.38,-635.6 506.38,-635.6 506.38,-635.6 500.38,-635.6 494.38,-629.6 494.38,-623.6 494.38,-623.6 494.38,-611.6 494.38,-611.6 494.38,-605.6 500.38,-599.6 506.38,-599.6 506.38,-599.6 670.38,-599.6 670.38,-599.6 676.38,-599.6 682.38,-605.6 682.38,-611.6 682.38,-611.6 682.38,-623.6 682.38,-623.6 682.38,-629.6 676.38,-635.6 670.38,-635.6"/>
<text text-anchor="middle" x="588.38" y="-613.9" font-family="Helvetica,sans-Serif" font-size="14.00">根据节标志分配节到对应段</text>
</g>
<!-- init_covers&#45;&gt;distribute_sections -->
<g id="edge4" class="edge">
<title>init_covers&#45;&gt;distribute_sections</title>
<path fill="none" stroke="black" d="M588.38,-672.41C588.38,-664.39 588.38,-654.65 588.38,-645.67"/>
<polygon fill="black" stroke="black" points="591.88,-645.63 588.38,-635.63 584.88,-645.63 591.88,-645.63"/>
</g>
<!-- get_base_addr -->
<g id="node6" class="node">
<title>get_base_addr</title>
<path fill="none" stroke="black" d="M685.38,-562.6C685.38,-562.6 491.38,-562.6 491.38,-562.6 485.38,-562.6 479.38,-556.6 479.38,-550.6 479.38,-550.6 479.38,-538.6 479.38,-538.6 479.38,-532.6 485.38,-526.6 491.38,-526.6 491.38,-526.6 685.38,-526.6 685.38,-526.6 691.38,-526.6 697.38,-532.6 697.38,-538.6 697.38,-538.6 697.38,-550.6 697.38,-550.6 697.38,-556.6 691.38,-562.6 685.38,-562.6"/>
<text text-anchor="middle" x="588.38" y="-540.9" font-family="Helvetica,sans-Serif" font-size="14.00">获取基地址 (PHDR 表结束地址)</text>
</g>
<!-- distribute_sections&#45;&gt;get_base_addr -->
<g id="edge5" class="edge">
<title>distribute_sections&#45;&gt;get_base_addr</title>
<path fill="none" stroke="black" d="M588.38,-599.41C588.38,-591.39 588.38,-581.65 588.38,-572.67"/>
<polygon fill="black" stroke="black" points="591.88,-572.63 588.38,-562.63 584.88,-572.63 591.88,-572.63"/>
</g>
<!-- process_covers -->
<g id="node7" class="node">
<title>process_covers</title>
<path fill="none" stroke="black" d="M634.38,-489.6C634.38,-489.6 542.38,-489.6 542.38,-489.6 536.38,-489.6 530.38,-483.6 530.38,-477.6 530.38,-477.6 530.38,-465.6 530.38,-465.6 530.38,-459.6 536.38,-453.6 542.38,-453.6 542.38,-453.6 634.38,-453.6 634.38,-453.6 640.38,-453.6 646.38,-459.6 646.38,-465.6 646.38,-465.6 646.38,-477.6 646.38,-477.6 646.38,-483.6 640.38,-489.6 634.38,-489.6"/>
<text text-anchor="middle" x="588.38" y="-467.9" font-family="Helvetica,sans-Serif" font-size="14.00">遍历每个段覆盖</text>
</g>
<!-- get_base_addr&#45;&gt;process_covers -->
<g id="edge6" class="edge">
<title>get_base_addr&#45;&gt;process_covers</title>
<path fill="none" stroke="black" d="M588.38,-526.41C588.38,-518.39 588.38,-508.65 588.38,-499.67"/>
<polygon fill="black" stroke="black" points="591.88,-499.63 588.38,-489.63 584.88,-499.63 591.88,-499.63"/>
</g>
<!-- calc_max_align -->
<g id="node8" class="node">
<title>calc_max_align</title>
<path fill="none" stroke="black" d="M367.88,-402.6C367.88,-402.6 260.88,-402.6 260.88,-402.6 254.88,-402.6 248.88,-396.6 248.88,-390.6 248.88,-390.6 248.88,-378.6 248.88,-378.6 248.88,-372.6 254.88,-366.6 260.88,-366.6 260.88,-366.6 367.88,-366.6 367.88,-366.6 373.88,-366.6 379.88,-372.6 379.88,-378.6 379.88,-378.6 379.88,-390.6 379.88,-390.6 379.88,-396.6 373.88,-402.6 367.88,-402.6"/>
<text text-anchor="middle" x="314.38" y="-380.9" font-family="Helvetica,sans-Serif" font-size="14.00">计算段内最大对齐</text>
</g>
<!-- process_covers&#45;&gt;calc_max_align -->
<g id="edge7" class="edge">
<title>process_covers&#45;&gt;calc_max_align</title>
<path fill="none" stroke="black" d="M533.26,-453.5C488.76,-439.7 426.06,-420.25 379.16,-405.7"/>
<polygon fill="black" stroke="black" points="379.99,-402.29 369.41,-402.67 377.92,-408.98 379.99,-402.29"/>
<text text-anchor="middle" x="489.88" y="-424.4" font-family="Helvetica,sans-Serif" font-size="14.00">段非空</text>
</g>
<!-- check_space -->
<g id="node14" class="node">
<title>check_space</title>
<path fill="none" stroke="black" d="M512.5,-400.91C512.5,-400.91 409.57,-386.29 409.57,-386.29 403.63,-385.44 403.63,-383.76 409.57,-382.91 409.57,-382.91 512.5,-368.29 512.5,-368.29 518.44,-367.44 530.32,-367.44 536.26,-368.29 536.26,-368.29 639.18,-382.91 639.18,-382.91 645.12,-383.76 645.12,-385.44 639.18,-386.29 639.18,-386.29 536.26,-400.91 536.26,-400.91 530.32,-401.76 518.44,-401.76 512.5,-400.91"/>
<text text-anchor="middle" x="524.38" y="-380.9" font-family="Helvetica,sans-Serif" font-size="14.00">文件空间是否足够?</text>
</g>
<!-- process_covers&#45;&gt;check_space -->
<g id="edge16" class="edge">
<title>process_covers&#45;&gt;check_space</title>
<path fill="none" stroke="black" d="M560.26,-453.27C553.71,-448.21 547.24,-442.23 542.38,-435.6 537.31,-428.7 533.55,-420.23 530.82,-412.23"/>
<polygon fill="black" stroke="black" points="534.13,-411.08 527.88,-402.52 527.43,-413.1 534.13,-411.08"/>
<text text-anchor="middle" x="578.38" y="-424.4" font-family="Helvetica,sans-Serif" font-size="14.00">段处理完成</text>
</g>
<!-- end -->
<g id="node17" class="node">
<title>end</title>
<path fill="none" stroke="black" d="M711.38,-402.6C711.38,-402.6 681.38,-402.6 681.38,-402.6 675.38,-402.6 669.38,-396.6 669.38,-390.6 669.38,-390.6 669.38,-378.6 669.38,-378.6 669.38,-372.6 675.38,-366.6 681.38,-366.6 681.38,-366.6 711.38,-366.6 711.38,-366.6 717.38,-366.6 723.38,-372.6 723.38,-378.6 723.38,-378.6 723.38,-390.6 723.38,-390.6 723.38,-396.6 717.38,-402.6 711.38,-402.6"/>
<text text-anchor="middle" x="696.38" y="-380.9" font-family="Helvetica,sans-Serif" font-size="14.00">结束</text>
</g>
<!-- process_covers&#45;&gt;end -->
<g id="edge21" class="edge">
<title>process_covers&#45;&gt;end</title>
<path fill="none" stroke="black" d="M603.27,-453.28C612.51,-443.1 624.95,-430.36 637.38,-420.6 644.52,-414.99 652.65,-409.62 660.54,-404.83"/>
<polygon fill="black" stroke="black" points="662.42,-407.79 669.28,-399.71 658.88,-401.75 662.42,-407.79"/>
<text text-anchor="middle" x="687.38" y="-424.4" font-family="Helvetica,sans-Serif" font-size="14.00">所有段处理完毕</text>
</g>
<!-- align_addr -->
<g id="node9" class="node">
<title>align_addr</title>
<path fill="none" stroke="black" d="M360.38,-314.6C360.38,-314.6 268.38,-314.6 268.38,-314.6 262.38,-314.6 256.38,-308.6 256.38,-302.6 256.38,-302.6 256.38,-290.6 256.38,-290.6 256.38,-284.6 262.38,-278.6 268.38,-278.6 268.38,-278.6 360.38,-278.6 360.38,-278.6 366.38,-278.6 372.38,-284.6 372.38,-290.6 372.38,-290.6 372.38,-302.6 372.38,-302.6 372.38,-308.6 366.38,-314.6 360.38,-314.6"/>
<text text-anchor="middle" x="314.38" y="-292.9" font-family="Helvetica,sans-Serif" font-size="14.00">对齐段起始地址</text>
</g>
<!-- calc_max_align&#45;&gt;align_addr -->
<g id="edge8" class="edge">
<title>calc_max_align&#45;&gt;align_addr</title>
<path fill="none" stroke="black" d="M314.38,-366.2C314.38,-354.35 314.38,-338.42 314.38,-324.89"/>
<polygon fill="black" stroke="black" points="317.88,-324.68 314.38,-314.68 310.88,-324.68 317.88,-324.68"/>
</g>
<!-- process_sections -->
<g id="node10" class="node">
<title>process_sections</title>
<path fill="none" stroke="black" d="M360.38,-239.6C360.38,-239.6 268.38,-239.6 268.38,-239.6 262.38,-239.6 256.38,-233.6 256.38,-227.6 256.38,-227.6 256.38,-215.6 256.38,-215.6 256.38,-209.6 262.38,-203.6 268.38,-203.6 268.38,-203.6 360.38,-203.6 360.38,-203.6 366.38,-203.6 372.38,-209.6 372.38,-215.6 372.38,-215.6 372.38,-227.6 372.38,-227.6 372.38,-233.6 366.38,-239.6 360.38,-239.6"/>
<text text-anchor="middle" x="314.38" y="-217.9" font-family="Helvetica,sans-Serif" font-size="14.00">处理段内每个节</text>
</g>
<!-- align_addr&#45;&gt;process_sections -->
<g id="edge9" class="edge">
<title>align_addr&#45;&gt;process_sections</title>
<path fill="none" stroke="black" d="M314.38,-278.3C314.38,-269.85 314.38,-259.47 314.38,-249.97"/>
<polygon fill="black" stroke="black" points="317.88,-249.78 314.38,-239.78 310.88,-249.78 317.88,-249.78"/>
</g>
<!-- check_tbss -->
<g id="node11" class="node">
<title>check_tbss</title>
<path fill="none" stroke="black" d="M188.42,-164.53C188.42,-164.53 12.08,-148.67 12.08,-148.67 6.1,-148.14 6.1,-147.06 12.08,-146.53 12.08,-146.53 188.42,-130.67 188.42,-130.67 194.4,-130.14 206.35,-130.14 212.33,-130.67 212.33,-130.67 388.68,-146.53 388.68,-146.53 394.65,-147.06 394.65,-148.14 388.68,-148.67 388.68,-148.67 212.33,-164.53 212.33,-164.53 206.35,-165.06 194.4,-165.06 188.42,-164.53"/>
<text text-anchor="middle" x="200.38" y="-143.9" font-family="Helvetica,sans-Serif" font-size="14.00">节类型是 SHT_NOBITS 且 TLS?</text>
</g>
<!-- process_sections&#45;&gt;check_tbss -->
<g id="edge10" class="edge">
<title>process_sections&#45;&gt;check_tbss</title>
<path fill="none" stroke="black" d="M287.36,-203.54C270.99,-193.2 250,-179.94 232.75,-169.04"/>
<polygon fill="black" stroke="black" points="234.43,-165.97 224.11,-163.59 230.69,-171.89 234.43,-165.97"/>
</g>
<!-- handle_tbss -->
<g id="node12" class="node">
<title>handle_tbss</title>
<path fill="none" stroke="black" d="M246.38,-78.6C246.38,-78.6 154.38,-78.6 154.38,-78.6 148.38,-78.6 142.38,-72.6 142.38,-66.6 142.38,-66.6 142.38,-52.6 142.38,-52.6 142.38,-46.6 148.38,-40.6 154.38,-40.6 154.38,-40.6 246.38,-40.6 246.38,-40.6 252.38,-40.6 258.38,-46.6 258.38,-52.6 258.38,-52.6 258.38,-66.6 258.38,-66.6 258.38,-72.6 252.38,-78.6 246.38,-78.6"/>
<text text-anchor="middle" x="200.38" y="-63.4" font-family="Helvetica,sans-Serif" font-size="14.00">调整 .tbss 地址</text>
<text text-anchor="middle" x="200.38" y="-48.4" font-family="Helvetica,sans-Serif" font-size="14.00">不占用文件空间</text>
</g>
<!-- check_tbss&#45;&gt;handle_tbss -->
<g id="edge11" class="edge">
<title>check_tbss&#45;&gt;handle_tbss</title>
<path fill="none" stroke="black" d="M200.38,-129.2C200.38,-117.66 200.38,-102.25 200.38,-88.96"/>
<polygon fill="black" stroke="black" points="203.88,-88.87 200.38,-78.87 196.88,-88.87 203.88,-88.87"/>
<text text-anchor="middle" x="207.88" y="-100.4" font-family="Helvetica,sans-Serif" font-size="14.00">是</text>
</g>
<!-- handle_normal -->
<g id="node13" class="node">
<title>handle_normal</title>
<path fill="none" stroke="black" d="M380.38,-78.6C380.38,-78.6 288.38,-78.6 288.38,-78.6 282.38,-78.6 276.38,-72.6 276.38,-66.6 276.38,-66.6 276.38,-52.6 276.38,-52.6 276.38,-46.6 282.38,-40.6 288.38,-40.6 288.38,-40.6 380.38,-40.6 380.38,-40.6 386.38,-40.6 392.38,-46.6 392.38,-52.6 392.38,-52.6 392.38,-66.6 392.38,-66.6 392.38,-72.6 386.38,-78.6 380.38,-78.6"/>
<text text-anchor="middle" x="334.38" y="-63.4" font-family="Helvetica,sans-Serif" font-size="14.00">计算对齐和填充</text>
<text text-anchor="middle" x="334.38" y="-48.4" font-family="Helvetica,sans-Serif" font-size="14.00">更新地址和大小</text>
</g>
<!-- check_tbss&#45;&gt;handle_normal -->
<g id="edge12" class="edge">
<title>check_tbss&#45;&gt;handle_normal</title>
<path fill="none" stroke="black" d="M223.72,-131.62C244.06,-118.56 273.92,-99.4 297.5,-84.27"/>
<polygon fill="black" stroke="black" points="299.67,-87.03 306.19,-78.69 295.89,-81.14 299.67,-87.03"/>
<text text-anchor="middle" x="283.88" y="-100.4" font-family="Helvetica,sans-Serif" font-size="14.00">否</text>
</g>
<!-- process_sections_end -->
<g id="node18" class="node">
<title>process_sections_end</title>
<ellipse fill="black" stroke="black" cx="334.38" cy="-1.8" rx="1.8" ry="1.8"/>
</g>
<!-- handle_tbss&#45;&gt;process_sections_end -->
<g id="edge13" class="edge">
<title>handle_tbss&#45;&gt;process_sections_end</title>
<path fill="none" stroke="black" d="M243.88,-40.48C272,-28.77 306.44,-14.43 323.59,-7.29"/>
<polygon fill="black" stroke="black" points="325.19,-10.42 333.07,-3.34 322.5,-3.96 325.19,-10.42"/>
</g>
<!-- handle_normal&#45;&gt;process_sections_end -->
<g id="edge14" class="edge">
<title>handle_normal&#45;&gt;process_sections_end</title>
<path fill="none" stroke="black" d="M334.38,-40.33C334.38,-31.65 334.38,-21.56 334.38,-14.03"/>
<polygon fill="black" stroke="black" points="337.88,-13.75 334.38,-3.75 330.88,-13.75 337.88,-13.75"/>
</g>
<!-- move_segment -->
<g id="node15" class="node">
<title>move_segment</title>
<path fill="none" stroke="black" d="M556.38,-315.6C556.38,-315.6 492.38,-315.6 492.38,-315.6 486.38,-315.6 480.38,-309.6 480.38,-303.6 480.38,-303.6 480.38,-289.6 480.38,-289.6 480.38,-283.6 486.38,-277.6 492.38,-277.6 492.38,-277.6 556.38,-277.6 556.38,-277.6 562.38,-277.6 568.38,-283.6 568.38,-289.6 568.38,-289.6 568.38,-303.6 568.38,-303.6 568.38,-309.6 562.38,-315.6 556.38,-315.6"/>
<text text-anchor="middle" x="524.38" y="-300.4" font-family="Helvetica,sans-Serif" font-size="14.00">寻找新空间</text>
<text text-anchor="middle" x="524.38" y="-285.4" font-family="Helvetica,sans-Serif" font-size="14.00">移动节数据</text>
</g>
<!-- check_space&#45;&gt;move_segment -->
<g id="edge17" class="edge">
<title>check_space&#45;&gt;move_segment</title>
<path fill="none" stroke="black" d="M524.38,-366.2C524.38,-354.66 524.38,-339.25 524.38,-325.96"/>
<polygon fill="black" stroke="black" points="527.88,-325.87 524.38,-315.87 520.88,-325.87 527.88,-325.87"/>
<text text-anchor="middle" x="538.88" y="-337.4" font-family="Helvetica,sans-Serif" font-size="14.00">不足</text>
</g>
<!-- update_phdr -->
<g id="node16" class="node">
<title>update_phdr</title>
<path fill="none" stroke="black" d="M662.88,-240.6C662.88,-240.6 545.88,-240.6 545.88,-240.6 539.88,-240.6 533.88,-234.6 533.88,-228.6 533.88,-228.6 533.88,-214.6 533.88,-214.6 533.88,-208.6 539.88,-202.6 545.88,-202.6 545.88,-202.6 662.88,-202.6 662.88,-202.6 668.88,-202.6 674.88,-208.6 674.88,-214.6 674.88,-214.6 674.88,-228.6 674.88,-228.6 674.88,-234.6 668.88,-240.6 662.88,-240.6"/>
<text text-anchor="middle" x="604.38" y="-225.4" font-family="Helvetica,sans-Serif" font-size="14.00">更新程序头信息</text>
<text text-anchor="middle" x="604.38" y="-210.4" font-family="Helvetica,sans-Serif" font-size="14.00">(地址、大小、对齐)</text>
</g>
<!-- check_space&#45;&gt;update_phdr -->
<g id="edge18" class="edge">
<title>check_space&#45;&gt;update_phdr</title>
<path fill="none" stroke="black" d="M539.9,-368.55C545.68,-362.58 552.12,-355.51 557.38,-348.6 567.76,-334.95 570.48,-331.3 577.38,-315.6 586.61,-294.56 593.69,-269.47 598.27,-250.66"/>
<polygon fill="black" stroke="black" points="601.68,-251.46 600.56,-240.92 594.86,-249.86 601.68,-251.46"/>
<text text-anchor="middle" x="605.88" y="-292.9" font-family="Helvetica,sans-Serif" font-size="14.00">足够</text>
</g>
<!-- move_segment&#45;&gt;update_phdr -->
<g id="edge19" class="edge">
<title>move_segment&#45;&gt;update_phdr</title>
<path fill="none" stroke="black" d="M544.15,-277.56C554.06,-268.52 566.2,-257.43 576.99,-247.59"/>
<polygon fill="black" stroke="black" points="579.52,-250.02 584.55,-240.69 574.81,-244.85 579.52,-250.02"/>
</g>
<!-- update_phdr&#45;&gt;process_covers -->
<g id="edge20" class="edge">
<title>update_phdr&#45;&gt;process_covers</title>
<path fill="none" stroke="black" d="M631.21,-240.89C683.75,-278.89 790.58,-368.45 737.38,-435.6 726.98,-448.73 690.69,-457.41 656.53,-462.85"/>
<polygon fill="black" stroke="black" points="655.87,-459.41 646.51,-464.36 656.92,-466.33 655.87,-459.41"/>
<text text-anchor="middle" x="780.38" y="-337.4" font-family="Helvetica,sans-Serif" font-size="14.00">继续下一个段</text>
</g>
<!-- process_sections_end&#45;&gt;process_sections -->
<g id="edge15" class="edge">
<title>process_sections_end&#45;&gt;process_sections</title>
<path fill="none" stroke="black" d="M336.01,-3.14C344.62,-5.02 384.86,-15.02 401.38,-40.6 420.3,-69.91 421.88,-143.92 409.38,-165.6 401.22,-179.75 387.87,-190.59 373.73,-198.75"/>
<polygon fill="black" stroke="black" points="372.03,-195.69 364.86,-203.49 375.33,-201.87 372.03,-195.69"/>
<text text-anchor="middle" x="431.88" y="-100.4" font-family="Helvetica,sans-Serif" font-size="14.00">循环</text>
</g>
</g>
</svg>
