<?xml version="1.0" encoding="UTF-8" standalone="no"?>
<!DOCTYPE svg PUBLIC "-//W3C//DTD SVG 1.1//EN"
 "http://www.w3.org/Graphics/SVG/1.1/DTD/svg11.dtd">
<!-- Generated by graphviz version 2.43.0 (0)
 -->
<!-- Title: flowchart Pages: 1 -->
<svg width="338pt" height="2304pt"
 viewBox="0.00 0.00 338.00 2304.00" xmlns="http://www.w3.org/2000/svg" xmlns:xlink="http://www.w3.org/1999/xlink">
<g id="graph0" class="graph" transform="scale(1 1) rotate(0) translate(4 2300)">
<title>flowchart</title>
<polygon fill="white" stroke="transparent" points="-4,4 -4,-2300 334,-2300 334,4 -4,4"/>
<!-- start -->
<g id="node1" class="node">
<title>start</title>
<path fill="none" stroke="black" d="M186.5,-2296C186.5,-2296 156.5,-2296 156.5,-2296 150.5,-2296 144.5,-2290 144.5,-2284 144.5,-2284 144.5,-2272 144.5,-2272 144.5,-2266 150.5,-2260 156.5,-2260 156.5,-2260 186.5,-2260 186.5,-2260 192.5,-2260 198.5,-2266 198.5,-2272 198.5,-2272 198.5,-2284 198.5,-2284 198.5,-2290 192.5,-2296 186.5,-2296"/>
<text text-anchor="middle" x="171.5" y="-2274.3" font-family="Arial" font-size="14.00">开始</text>
</g>
<!-- init_alloc -->
<g id="node2" class="node">
<title>init_alloc</title>
<path fill="none" stroke="black" d="M219,-2223C219,-2223 124,-2223 124,-2223 118,-2223 112,-2217 112,-2211 112,-2211 112,-2197 112,-2197 112,-2191 118,-2185 124,-2185 124,-2185 219,-2185 219,-2185 225,-2185 231,-2191 231,-2197 231,-2197 231,-2211 231,-2211 231,-2217 225,-2223 219,-2223"/>
<text text-anchor="middle" x="171.5" y="-2207.8" font-family="Arial" font-size="14.00">初始化分配器</text>
<text text-anchor="middle" x="171.5" y="-2192.8" font-family="Arial" font-size="14.00">(arena_allocator)</text>
</g>
<!-- start&#45;&gt;init_alloc -->
<g id="edge1" class="edge">
<title>start&#45;&gt;init_alloc</title>
<path fill="none" stroke="black" d="M171.5,-2259.94C171.5,-2251.99 171.5,-2242.31 171.5,-2233.31"/>
<polygon fill="black" stroke="black" points="175,-2233.2 171.5,-2223.2 168,-2233.2 175,-2233.2"/>
</g>
<!-- get_paths -->
<g id="node3" class="node">
<title>get_paths</title>
<path fill="none" stroke="black" d="M224.5,-2148C224.5,-2148 118.5,-2148 118.5,-2148 112.5,-2148 106.5,-2142 106.5,-2136 106.5,-2136 106.5,-2092 106.5,-2092 106.5,-2086 112.5,-2080 118.5,-2080 118.5,-2080 224.5,-2080 224.5,-2080 230.5,-2080 236.5,-2086 236.5,-2092 236.5,-2092 236.5,-2136 236.5,-2136 236.5,-2142 230.5,-2148 224.5,-2148"/>
<text text-anchor="middle" x="171.5" y="-2132.8" font-family="Arial" font-size="14.00">获取输出路径</text>
<text text-anchor="middle" x="171.5" y="-2117.8" font-family="Arial" font-size="14.00">(full_out_path)</text>
<text text-anchor="middle" x="171.5" y="-2102.8" font-family="Arial" font-size="14.00">和模块对象路径</text>
<text text-anchor="middle" x="171.5" y="-2087.8" font-family="Arial" font-size="14.00">(module_obj_path)</text>
</g>
<!-- init_alloc&#45;&gt;get_paths -->
<g id="edge2" class="edge">
<title>init_alloc&#45;&gt;get_paths</title>
<path fill="none" stroke="black" d="M171.5,-2184.77C171.5,-2177 171.5,-2167.59 171.5,-2158.22"/>
<polygon fill="black" stroke="black" points="175,-2158.15 171.5,-2148.15 168,-2158.15 175,-2158.15"/>
</g>
<!-- create_argv -->
<g id="node4" class="node">
<title>create_argv</title>
<path fill="none" stroke="black" d="M215,-2043C215,-2043 128,-2043 128,-2043 122,-2043 116,-2037 116,-2031 116,-2031 116,-2017 116,-2017 116,-2011 122,-2005 128,-2005 128,-2005 215,-2005 215,-2005 221,-2005 227,-2011 227,-2017 227,-2017 227,-2031 227,-2031 227,-2037 221,-2043 215,-2043"/>
<text text-anchor="middle" x="171.5" y="-2027.8" font-family="Arial" font-size="14.00">创建argv列表</text>
<text text-anchor="middle" x="171.5" y="-2012.8" font-family="Arial" font-size="14.00">并添加&#39;zig&#39;命令</text>
</g>
<!-- get_paths&#45;&gt;create_argv -->
<g id="edge3" class="edge">
<title>get_paths&#45;&gt;create_argv</title>
<path fill="none" stroke="black" d="M171.5,-2079.98C171.5,-2071.2 171.5,-2061.8 171.5,-2053.3"/>
<polygon fill="black" stroke="black" points="175,-2053.13 171.5,-2043.13 168,-2053.13 175,-2053.13"/>
</g>
<!-- check_static_lib -->
<g id="node5" class="node">
<title>check_static_lib</title>
<path fill="none" stroke="black" d="M232,-1968C232,-1968 111,-1968 111,-1968 105,-1968 99,-1962 99,-1956 99,-1956 99,-1944 99,-1944 99,-1938 105,-1932 111,-1932 111,-1932 232,-1932 232,-1932 238,-1932 244,-1938 244,-1944 244,-1944 244,-1956 244,-1956 244,-1962 238,-1968 232,-1968"/>
<text text-anchor="middle" x="171.5" y="-1946.3" font-family="Arial" font-size="14.00">检查是否是静态库？</text>
</g>
<!-- create_argv&#45;&gt;check_static_lib -->
<g id="edge4" class="edge">
<title>create_argv&#45;&gt;check_static_lib</title>
<path fill="none" stroke="black" d="M171.5,-2004.83C171.5,-1996.89 171.5,-1987.41 171.5,-1978.63"/>
<polygon fill="black" stroke="black" points="175,-1978.42 171.5,-1968.42 168,-1978.42 175,-1978.42"/>
</g>
<!-- add_ar -->
<g id="node6" class="node">
<title>add_ar</title>
<path fill="none" stroke="black" d="M151.5,-1881C151.5,-1881 71.5,-1881 71.5,-1881 65.5,-1881 59.5,-1875 59.5,-1869 59.5,-1869 59.5,-1857 59.5,-1857 59.5,-1851 65.5,-1845 71.5,-1845 71.5,-1845 151.5,-1845 151.5,-1845 157.5,-1845 163.5,-1851 163.5,-1857 163.5,-1857 163.5,-1869 163.5,-1869 163.5,-1875 157.5,-1881 151.5,-1881"/>
<text text-anchor="middle" x="111.5" y="-1859.3" font-family="Arial" font-size="14.00">添加&#39;ar&#39;到argv</text>
</g>
<!-- check_static_lib&#45;&gt;add_ar -->
<g id="edge5" class="edge">
<title>check_static_lib&#45;&gt;add_ar</title>
<path fill="none" stroke="black" d="M159.36,-1931.8C150.82,-1919.7 139.24,-1903.3 129.62,-1889.67"/>
<polygon fill="black" stroke="black" points="132.25,-1887.33 123.62,-1881.18 126.53,-1891.36 132.25,-1887.33"/>
<text text-anchor="middle" x="153" y="-1902.8" font-family="Arial" font-size="14.00">是</text>
</g>
<!-- add_ld -->
<g id="node7" class="node">
<title>add_ld</title>
<path fill="none" stroke="black" d="M271.5,-1881C271.5,-1881 193.5,-1881 193.5,-1881 187.5,-1881 181.5,-1875 181.5,-1869 181.5,-1869 181.5,-1857 181.5,-1857 181.5,-1851 187.5,-1845 193.5,-1845 193.5,-1845 271.5,-1845 271.5,-1845 277.5,-1845 283.5,-1851 283.5,-1857 283.5,-1857 283.5,-1869 283.5,-1869 283.5,-1875 277.5,-1881 271.5,-1881"/>
<text text-anchor="middle" x="232.5" y="-1859.3" font-family="Arial" font-size="14.00">添加&#39;ld&#39;到argv</text>
</g>
<!-- check_static_lib&#45;&gt;add_ld -->
<g id="edge6" class="edge">
<title>check_static_lib&#45;&gt;add_ld</title>
<path fill="none" stroke="black" d="M183.84,-1931.8C192.53,-1919.7 204.29,-1903.3 214.08,-1889.67"/>
<polygon fill="black" stroke="black" points="217.19,-1891.34 220.17,-1881.18 211.5,-1887.26 217.19,-1891.34"/>
<text text-anchor="middle" x="213" y="-1902.8" font-family="Arial" font-size="14.00">否</text>
</g>
<!-- check_object -->
<g id="node8" class="node">
<title>check_object</title>
<path fill="none" stroke="black" d="M239,-1808C239,-1808 104,-1808 104,-1808 98,-1808 92,-1802 92,-1796 92,-1796 92,-1784 92,-1784 92,-1778 98,-1772 104,-1772 104,-1772 239,-1772 239,-1772 245,-1772 251,-1778 251,-1784 251,-1784 251,-1796 251,-1796 251,-1802 245,-1808 239,-1808"/>
<text text-anchor="middle" x="171.5" y="-1786.3" font-family="Arial" font-size="14.00">检查是否是对象文件？</text>
</g>
<!-- add_ar&#45;&gt;check_object -->
<g id="edge7" class="edge">
<title>add_ar&#45;&gt;check_object</title>
<path fill="none" stroke="black" d="M126.02,-1844.81C133.39,-1836.09 142.48,-1825.34 150.59,-1815.75"/>
<polygon fill="black" stroke="black" points="153.33,-1817.93 157.11,-1808.03 147.98,-1813.41 153.33,-1817.93"/>
</g>
<!-- add_ld&#45;&gt;check_object -->
<g id="edge8" class="edge">
<title>add_ld&#45;&gt;check_object</title>
<path fill="none" stroke="black" d="M217.73,-1844.81C210.24,-1836.09 201,-1825.34 192.76,-1815.75"/>
<polygon fill="black" stroke="black" points="195.3,-1813.33 186.13,-1808.03 189.99,-1817.89 195.3,-1813.33"/>
</g>
<!-- add_r_flag -->
<g id="node9" class="node">
<title>add_r_flag</title>
<path fill="none" stroke="black" d="M166,-1721C166,-1721 89,-1721 89,-1721 83,-1721 77,-1715 77,-1709 77,-1709 77,-1697 77,-1697 77,-1691 83,-1685 89,-1685 89,-1685 166,-1685 166,-1685 172,-1685 178,-1691 178,-1697 178,-1697 178,-1709 178,-1709 178,-1715 172,-1721 166,-1721"/>
<text text-anchor="middle" x="127.5" y="-1699.3" font-family="Arial" font-size="14.00">添加&#39;&#45;r&#39;到argv</text>
</g>
<!-- check_object&#45;&gt;add_r_flag -->
<g id="edge9" class="edge">
<title>check_object&#45;&gt;add_r_flag</title>
<path fill="none" stroke="black" d="M162.6,-1771.8C156.39,-1759.82 148.01,-1743.62 140.99,-1730.06"/>
<polygon fill="black" stroke="black" points="144.1,-1728.45 136.39,-1721.18 137.88,-1731.67 144.1,-1728.45"/>
<text text-anchor="middle" x="160" y="-1742.8" font-family="Arial" font-size="14.00">是</text>
</g>
<!-- check_relocatable -->
<g id="node10" class="node">
<title>check_relocatable</title>
<path fill="none" stroke="black" d="M231,-1648C231,-1648 110,-1648 110,-1648 104,-1648 98,-1642 98,-1636 98,-1636 98,-1624 98,-1624 98,-1618 104,-1612 110,-1612 110,-1612 231,-1612 231,-1612 237,-1612 243,-1618 243,-1624 243,-1624 243,-1636 243,-1636 243,-1642 237,-1648 231,-1648"/>
<text text-anchor="middle" x="170.5" y="-1626.3" font-family="Arial" font-size="14.00">检查是否可重定位？</text>
</g>
<!-- check_object&#45;&gt;check_relocatable -->
<g id="edge10" class="edge">
<title>check_object&#45;&gt;check_relocatable</title>
<path fill="none" stroke="black" d="M177.05,-1771.7C182.97,-1751.06 190.92,-1715.51 186.5,-1685 185.2,-1676.06 182.76,-1666.53 180.16,-1658.01"/>
<polygon fill="black" stroke="black" points="183.4,-1656.66 176.99,-1648.23 176.74,-1658.82 183.4,-1656.66"/>
<text text-anchor="middle" x="196" y="-1699.3" font-family="Arial" font-size="14.00">否</text>
</g>
<!-- add_r_flag&#45;&gt;check_relocatable -->
<g id="edge11" class="edge">
<title>add_r_flag&#45;&gt;check_relocatable</title>
<path fill="none" stroke="black" d="M137.91,-1684.81C143.03,-1676.35 149.31,-1665.98 154.99,-1656.61"/>
<polygon fill="black" stroke="black" points="158,-1658.4 160.19,-1648.03 152.01,-1654.77 158,-1658.4"/>
</g>
<!-- handle_reloc_inputs -->
<g id="node11" class="node">
<title>handle_reloc_inputs</title>
<path fill="none" stroke="black" d="M155,-1561C155,-1561 12,-1561 12,-1561 6,-1561 0,-1555 0,-1549 0,-1549 0,-1535 0,-1535 0,-1529 6,-1523 12,-1523 12,-1523 155,-1523 155,-1523 161,-1523 167,-1529 167,-1535 167,-1535 167,-1549 167,-1549 167,-1555 161,-1561 155,-1561"/>
<text text-anchor="middle" x="83.5" y="-1545.8" font-family="Arial" font-size="14.00">遍历comp.link_inputs</text>
<text text-anchor="middle" x="83.5" y="-1530.8" font-family="Arial" font-size="14.00">添加对象/归档/资源路径</text>
</g>
<!-- check_relocatable&#45;&gt;handle_reloc_inputs -->
<g id="edge12" class="edge">
<title>check_relocatable&#45;&gt;handle_reloc_inputs</title>
<path fill="none" stroke="black" d="M152.89,-1611.6C140.41,-1599.26 123.45,-1582.49 109.42,-1568.63"/>
<polygon fill="black" stroke="black" points="111.55,-1565.81 101.98,-1561.27 106.63,-1570.79 111.55,-1565.81"/>
<text text-anchor="middle" x="143" y="-1582.8" font-family="Arial" font-size="14.00">是</text>
</g>
<!-- handle_non_reloc -->
<g id="node14" class="node">
<title>handle_non_reloc</title>
<path fill="none" stroke="black" d="M318,-1560C318,-1560 197,-1560 197,-1560 191,-1560 185,-1554 185,-1548 185,-1548 185,-1536 185,-1536 185,-1530 191,-1524 197,-1524 197,-1524 318,-1524 318,-1524 324,-1524 330,-1530 330,-1536 330,-1536 330,-1548 330,-1548 330,-1554 324,-1560 318,-1560"/>
<text text-anchor="middle" x="257.5" y="-1538.3" font-family="Arial" font-size="14.00">处理非可重定位链接</text>
</g>
<!-- check_relocatable&#45;&gt;handle_non_reloc -->
<g id="edge13" class="edge">
<title>check_relocatable&#45;&gt;handle_non_reloc</title>
<path fill="none" stroke="black" d="M188.11,-1611.6C201.04,-1598.81 218.79,-1581.27 233.09,-1567.13"/>
<polygon fill="black" stroke="black" points="235.57,-1569.6 240.22,-1560.08 230.64,-1564.62 235.57,-1569.6"/>
<text text-anchor="middle" x="226" y="-1582.8" font-family="Arial" font-size="14.00">否</text>
</g>
<!-- add_c_objects -->
<g id="node12" class="node">
<title>add_c_objects</title>
<path fill="none" stroke="black" d="M141.5,-1472C141.5,-1472 25.5,-1472 25.5,-1472 19.5,-1472 13.5,-1466 13.5,-1460 13.5,-1460 13.5,-1448 13.5,-1448 13.5,-1442 19.5,-1436 25.5,-1436 25.5,-1436 141.5,-1436 141.5,-1436 147.5,-1436 153.5,-1442 153.5,-1448 153.5,-1448 153.5,-1460 153.5,-1460 153.5,-1466 147.5,-1472 141.5,-1472"/>
<text text-anchor="middle" x="83.5" y="-1450.3" font-family="Arial" font-size="14.00">添加C对象文件路径</text>
</g>
<!-- handle_reloc_inputs&#45;&gt;add_c_objects -->
<g id="edge14" class="edge">
<title>handle_reloc_inputs&#45;&gt;add_c_objects</title>
<path fill="none" stroke="black" d="M83.5,-1522.76C83.5,-1510.93 83.5,-1495.32 83.5,-1482.05"/>
<polygon fill="black" stroke="black" points="87,-1482.04 83.5,-1472.04 80,-1482.04 87,-1482.04"/>
</g>
<!-- add_module_obj -->
<g id="node13" class="node">
<title>add_module_obj</title>
<path fill="none" stroke="black" d="M137,-1345C137,-1345 30,-1345 30,-1345 24,-1345 18,-1339 18,-1333 18,-1333 18,-1319 18,-1319 18,-1313 24,-1307 30,-1307 30,-1307 137,-1307 137,-1307 143,-1307 149,-1313 149,-1319 149,-1319 149,-1333 149,-1333 149,-1339 143,-1345 137,-1345"/>
<text text-anchor="middle" x="83.5" y="-1329.8" font-family="Arial" font-size="14.00">添加模块对象路径</text>
<text text-anchor="middle" x="83.5" y="-1314.8" font-family="Arial" font-size="14.00">(如果存在)</text>
</g>
<!-- add_c_objects&#45;&gt;add_module_obj -->
<g id="edge15" class="edge">
<title>add_c_objects&#45;&gt;add_module_obj</title>
<path fill="none" stroke="black" d="M83.5,-1435.74C83.5,-1415.08 83.5,-1380.16 83.5,-1355.48"/>
<polygon fill="black" stroke="black" points="87,-1355.27 83.5,-1345.27 80,-1355.27 87,-1355.27"/>
</g>
<!-- dump_argv -->
<g id="node33" class="node">
<title>dump_argv</title>
<path fill="none" stroke="black" d="M168.5,-109C168.5,-109 22.5,-109 22.5,-109 16.5,-109 10.5,-103 10.5,-97 10.5,-97 10.5,-85 10.5,-85 10.5,-79 16.5,-73 22.5,-73 22.5,-73 168.5,-73 168.5,-73 174.5,-73 180.5,-79 180.5,-85 180.5,-85 180.5,-97 180.5,-97 180.5,-103 174.5,-109 168.5,-109"/>
<text text-anchor="middle" x="95.5" y="-87.3" font-family="Arial" font-size="14.00">调用dump_argv输出参数</text>
</g>
<!-- add_module_obj&#45;&gt;dump_argv -->
<g id="edge16" class="edge">
<title>add_module_obj&#45;&gt;dump_argv</title>
<path fill="none" stroke="black" d="M83.5,-1306.67C83.5,-1288.1 83.5,-1258.56 83.5,-1233 83.5,-1233 83.5,-1233 83.5,-163 83.5,-148.3 86.03,-132.13 88.77,-118.94"/>
<polygon fill="black" stroke="black" points="92.21,-119.6 90.96,-109.08 85.37,-118.08 92.21,-119.6"/>
</g>
<!-- add_dynamic -->
<g id="node15" class="node">
<title>add_dynamic</title>
<path fill="none" stroke="black" d="M299,-1472C299,-1472 216,-1472 216,-1472 210,-1472 204,-1466 204,-1460 204,-1460 204,-1448 204,-1448 204,-1442 210,-1436 216,-1436 216,-1436 299,-1436 299,-1436 305,-1436 311,-1442 311,-1448 311,-1448 311,-1460 311,-1460 311,-1466 305,-1472 299,-1472"/>
<text text-anchor="middle" x="257.5" y="-1450.3" font-family="Arial" font-size="14.00">添加&#39;&#45;dynamic&#39;</text>
</g>
<!-- handle_non_reloc&#45;&gt;add_dynamic -->
<g id="edge17" class="edge">
<title>handle_non_reloc&#45;&gt;add_dynamic</title>
<path fill="none" stroke="black" d="M257.5,-1523.6C257.5,-1511.75 257.5,-1495.82 257.5,-1482.29"/>
<polygon fill="black" stroke="black" points="261,-1482.08 257.5,-1472.08 254,-1482.08 261,-1482.08"/>
<text text-anchor="middle" x="279" y="-1493.8" font-family="Arial" font-size="14.00">非静态</text>
</g>
<!-- check_dynlib -->
<g id="node16" class="node">
<title>check_dynlib</title>
<path fill="none" stroke="black" d="M318,-1399C318,-1399 197,-1399 197,-1399 191,-1399 185,-1393 185,-1387 185,-1387 185,-1375 185,-1375 185,-1369 191,-1363 197,-1363 197,-1363 318,-1363 318,-1363 324,-1363 330,-1369 330,-1375 330,-1375 330,-1387 330,-1387 330,-1393 324,-1399 318,-1399"/>
<text text-anchor="middle" x="257.5" y="-1377.3" font-family="Arial" font-size="14.00">检查是否是动态库？</text>
</g>
<!-- add_dynamic&#45;&gt;check_dynlib -->
<g id="edge18" class="edge">
<title>add_dynamic&#45;&gt;check_dynlib</title>
<path fill="none" stroke="black" d="M257.5,-1435.81C257.5,-1427.79 257.5,-1418.05 257.5,-1409.07"/>
<polygon fill="black" stroke="black" points="261,-1409.03 257.5,-1399.03 254,-1409.03 261,-1409.03"/>
</g>
<!-- add_dylib -->
<g id="node17" class="node">
<title>add_dylib</title>
<path fill="none" stroke="black" d="M236.5,-1289C236.5,-1289 138.5,-1289 138.5,-1289 132.5,-1289 126.5,-1283 126.5,-1277 126.5,-1277 126.5,-1263 126.5,-1263 126.5,-1257 132.5,-1251 138.5,-1251 138.5,-1251 236.5,-1251 236.5,-1251 242.5,-1251 248.5,-1257 248.5,-1263 248.5,-1263 248.5,-1277 248.5,-1277 248.5,-1283 242.5,-1289 236.5,-1289"/>
<text text-anchor="middle" x="187.5" y="-1273.8" font-family="Arial" font-size="14.00">添加&#39;&#45;dylib&#39;</text>
<text text-anchor="middle" x="187.5" y="-1258.8" font-family="Arial" font-size="14.00">处理install_name</text>
</g>
<!-- check_dynlib&#45;&gt;add_dylib -->
<g id="edge19" class="edge">
<title>check_dynlib&#45;&gt;add_dylib</title>
<path fill="none" stroke="black" d="M246.56,-1362.97C235.38,-1345.55 217.83,-1318.23 204.77,-1297.89"/>
<polygon fill="black" stroke="black" points="207.64,-1295.89 199.3,-1289.37 201.75,-1299.67 207.64,-1295.89"/>
<text text-anchor="middle" x="242" y="-1322.3" font-family="Arial" font-size="14.00">是</text>
</g>
<!-- platform_version -->
<g id="node18" class="node">
<title>platform_version</title>
<path fill="none" stroke="black" d="M266.5,-1214C266.5,-1214 140.5,-1214 140.5,-1214 134.5,-1214 128.5,-1208 128.5,-1202 128.5,-1202 128.5,-1188 128.5,-1188 128.5,-1182 134.5,-1176 140.5,-1176 140.5,-1176 266.5,-1176 266.5,-1176 272.5,-1176 278.5,-1182 278.5,-1188 278.5,-1188 278.5,-1202 278.5,-1202 278.5,-1208 272.5,-1214 266.5,-1214"/>
<text text-anchor="middle" x="203.5" y="-1198.8" font-family="Arial" font-size="14.00">添加&#45;platform_version</text>
<text text-anchor="middle" x="203.5" y="-1183.8" font-family="Arial" font-size="14.00">和系统版本号</text>
</g>
<!-- check_dynlib&#45;&gt;platform_version -->
<g id="edge20" class="edge">
<title>check_dynlib&#45;&gt;platform_version</title>
<path fill="none" stroke="black" d="M261.45,-1362.93C266.49,-1337.47 272.84,-1288.52 257.5,-1251 252.92,-1239.79 244.83,-1229.63 236.28,-1221.19"/>
<polygon fill="black" stroke="black" points="238.45,-1218.43 228.73,-1214.22 233.71,-1223.57 238.45,-1218.43"/>
<text text-anchor="middle" x="273" y="-1266.3" font-family="Arial" font-size="14.00">否</text>
</g>
<!-- add_dylib&#45;&gt;platform_version -->
<g id="edge21" class="edge">
<title>add_dylib&#45;&gt;platform_version</title>
<path fill="none" stroke="black" d="M191.46,-1250.96C193.24,-1242.8 195.4,-1232.97 197.39,-1223.89"/>
<polygon fill="black" stroke="black" points="200.81,-1224.61 199.53,-1214.09 193.98,-1223.11 200.81,-1224.61"/>
</g>
<!-- handle_sysroot -->
<g id="node19" class="node">
<title>handle_sysroot</title>
<path fill="none" stroke="black" d="M245,-1139C245,-1139 162,-1139 162,-1139 156,-1139 150,-1133 150,-1127 150,-1127 150,-1115 150,-1115 150,-1109 156,-1103 162,-1103 162,-1103 245,-1103 245,-1103 251,-1103 257,-1109 257,-1115 257,-1115 257,-1127 257,-1127 257,-1133 251,-1139 245,-1139"/>
<text text-anchor="middle" x="203.5" y="-1117.3" font-family="Arial" font-size="14.00">添加&#45;syslibroot</text>
</g>
<!-- platform_version&#45;&gt;handle_sysroot -->
<g id="edge22" class="edge">
<title>platform_version&#45;&gt;handle_sysroot</title>
<path fill="none" stroke="black" d="M203.5,-1175.83C203.5,-1167.89 203.5,-1158.41 203.5,-1149.63"/>
<polygon fill="black" stroke="black" points="207,-1149.42 203.5,-1139.42 200,-1149.42 207,-1149.42"/>
</g>
<!-- handle_rpath -->
<g id="node20" class="node">
<title>handle_rpath</title>
<path fill="none" stroke="black" d="M243.5,-1066C243.5,-1066 163.5,-1066 163.5,-1066 157.5,-1066 151.5,-1060 151.5,-1054 151.5,-1054 151.5,-1040 151.5,-1040 151.5,-1034 157.5,-1028 163.5,-1028 163.5,-1028 243.5,-1028 243.5,-1028 249.5,-1028 255.5,-1034 255.5,-1040 255.5,-1040 255.5,-1054 255.5,-1054 255.5,-1060 249.5,-1066 243.5,-1066"/>
<text text-anchor="middle" x="203.5" y="-1050.8" font-family="Arial" font-size="14.00">遍历rpath列表</text>
<text text-anchor="middle" x="203.5" y="-1035.8" font-family="Arial" font-size="14.00">添加&#39;&#45;rpath&#39;</text>
</g>
<!-- handle_sysroot&#45;&gt;handle_rpath -->
<g id="edge23" class="edge">
<title>handle_sysroot&#45;&gt;handle_rpath</title>
<path fill="none" stroke="black" d="M203.5,-1102.94C203.5,-1094.99 203.5,-1085.31 203.5,-1076.31"/>
<polygon fill="black" stroke="black" points="207,-1076.2 203.5,-1066.2 200,-1076.2 207,-1076.2"/>
</g>
<!-- handle_pagezero -->
<g id="node21" class="node">
<title>handle_pagezero</title>
<path fill="none" stroke="black" d="M258,-991C258,-991 149,-991 149,-991 143,-991 137,-985 137,-979 137,-979 137,-967 137,-967 137,-961 143,-955 149,-955 149,-955 258,-955 258,-955 264,-955 270,-961 270,-967 270,-967 270,-979 270,-979 270,-985 264,-991 258,-991"/>
<text text-anchor="middle" x="203.5" y="-969.3" font-family="Arial" font-size="14.00">处理pagezero_size</text>
</g>
<!-- handle_rpath&#45;&gt;handle_pagezero -->
<g id="edge24" class="edge">
<title>handle_rpath&#45;&gt;handle_pagezero</title>
<path fill="none" stroke="black" d="M203.5,-1027.83C203.5,-1019.89 203.5,-1010.41 203.5,-1001.63"/>
<polygon fill="black" stroke="black" points="207,-1001.42 203.5,-991.42 200,-1001.42 207,-1001.42"/>
</g>
<!-- handle_headerpad -->
<g id="node22" class="node">
<title>handle_headerpad</title>
<path fill="none" stroke="black" d="M260.5,-918C260.5,-918 146.5,-918 146.5,-918 140.5,-918 134.5,-912 134.5,-906 134.5,-906 134.5,-894 134.5,-894 134.5,-888 140.5,-882 146.5,-882 146.5,-882 260.5,-882 260.5,-882 266.5,-882 272.5,-888 272.5,-894 272.5,-894 272.5,-906 272.5,-906 272.5,-912 266.5,-918 260.5,-918"/>
<text text-anchor="middle" x="203.5" y="-896.3" font-family="Arial" font-size="14.00">处理headerpad参数</text>
</g>
<!-- handle_pagezero&#45;&gt;handle_headerpad -->
<g id="edge25" class="edge">
<title>handle_pagezero&#45;&gt;handle_headerpad</title>
<path fill="none" stroke="black" d="M203.5,-954.81C203.5,-946.79 203.5,-937.05 203.5,-928.07"/>
<polygon fill="black" stroke="black" points="207,-928.03 203.5,-918.03 200,-928.03 207,-928.03"/>
</g>
<!-- handle_gc_sections -->
<g id="node23" class="node">
<title>handle_gc_sections</title>
<path fill="none" stroke="black" d="M248,-845C248,-845 159,-845 159,-845 153,-845 147,-839 147,-833 147,-833 147,-821 147,-821 147,-815 153,-809 159,-809 159,-809 248,-809 248,-809 254,-809 260,-815 260,-821 260,-821 260,-833 260,-833 260,-839 254,-845 248,-845"/>
<text text-anchor="middle" x="203.5" y="-823.3" font-family="Arial" font-size="14.00">添加&#45;dead_strip</text>
</g>
<!-- handle_headerpad&#45;&gt;handle_gc_sections -->
<g id="edge26" class="edge">
<title>handle_headerpad&#45;&gt;handle_gc_sections</title>
<path fill="none" stroke="black" d="M203.5,-881.81C203.5,-873.79 203.5,-864.05 203.5,-855.07"/>
<polygon fill="black" stroke="black" points="207,-855.03 203.5,-845.03 200,-855.03 207,-855.03"/>
</g>
<!-- handle_entry -->
<g id="node24" class="node">
<title>handle_entry</title>
<path fill="none" stroke="black" d="M245.5,-772C245.5,-772 161.5,-772 161.5,-772 155.5,-772 149.5,-766 149.5,-760 149.5,-760 149.5,-748 149.5,-748 149.5,-742 155.5,-736 161.5,-736 161.5,-736 245.5,-736 245.5,-736 251.5,-736 257.5,-742 257.5,-748 257.5,-748 257.5,-760 257.5,-760 257.5,-766 251.5,-772 245.5,-772"/>
<text text-anchor="middle" x="203.5" y="-750.3" font-family="Arial" font-size="14.00">处理&#45;entry参数</text>
</g>
<!-- handle_gc_sections&#45;&gt;handle_entry -->
<g id="edge27" class="edge">
<title>handle_gc_sections&#45;&gt;handle_entry</title>
<path fill="none" stroke="black" d="M203.5,-808.81C203.5,-800.79 203.5,-791.05 203.5,-782.07"/>
<polygon fill="black" stroke="black" points="207,-782.03 203.5,-772.03 200,-782.03 207,-782.03"/>
</g>
<!-- add_output -->
<g id="node25" class="node">
<title>add_output</title>
<path fill="none" stroke="black" d="M258.5,-699C258.5,-699 148.5,-699 148.5,-699 142.5,-699 136.5,-693 136.5,-687 136.5,-687 136.5,-675 136.5,-675 136.5,-669 142.5,-663 148.5,-663 148.5,-663 258.5,-663 258.5,-663 264.5,-663 270.5,-669 270.5,-675 270.5,-675 270.5,-687 270.5,-687 270.5,-693 264.5,-699 258.5,-699"/>
<text text-anchor="middle" x="203.5" y="-677.3" font-family="Arial" font-size="14.00">添加&#39;&#45;o&#39;和输出路径</text>
</g>
<!-- handle_entry&#45;&gt;add_output -->
<g id="edge28" class="edge">
<title>handle_entry&#45;&gt;add_output</title>
<path fill="none" stroke="black" d="M203.5,-735.81C203.5,-727.79 203.5,-718.05 203.5,-709.07"/>
<polygon fill="black" stroke="black" points="207,-709.03 203.5,-699.03 200,-709.03 207,-709.03"/>
</g>
<!-- handle_undefined -->
<g id="node26" class="node">
<title>handle_undefined</title>
<path fill="none" stroke="black" d="M271,-626C271,-626 136,-626 136,-626 130,-626 124,-620 124,-614 124,-614 124,-602 124,-602 124,-596 130,-590 136,-590 136,-590 271,-590 271,-590 277,-590 283,-596 283,-602 283,-602 283,-614 283,-614 283,-620 277,-626 271,-626"/>
<text text-anchor="middle" x="203.5" y="-604.3" font-family="Arial" font-size="14.00">处理动态库未定义符号</text>
</g>
<!-- add_output&#45;&gt;handle_undefined -->
<g id="edge29" class="edge">
<title>add_output&#45;&gt;handle_undefined</title>
<path fill="none" stroke="black" d="M203.5,-662.81C203.5,-654.79 203.5,-645.05 203.5,-636.07"/>
<polygon fill="black" stroke="black" points="207,-636.03 203.5,-626.03 200,-636.03 207,-636.03"/>
</g>
<!-- process_link_inputs -->
<g id="node27" class="node">
<title>process_link_inputs</title>
<path fill="none" stroke="black" d="M284,-553C284,-553 123,-553 123,-553 117,-553 111,-547 111,-541 111,-541 111,-527 111,-527 111,-521 117,-515 123,-515 123,-515 284,-515 284,-515 290,-515 296,-521 296,-527 296,-527 296,-541 296,-541 296,-547 290,-553 284,-553"/>
<text text-anchor="middle" x="203.5" y="-537.8" font-family="Arial" font-size="14.00">再次处理link_inputs</text>
<text text-anchor="middle" x="203.5" y="-522.8" font-family="Arial" font-size="14.00">排除DSO，添加&#45;force_load</text>
</g>
<!-- handle_undefined&#45;&gt;process_link_inputs -->
<g id="edge30" class="edge">
<title>handle_undefined&#45;&gt;process_link_inputs</title>
<path fill="none" stroke="black" d="M203.5,-589.94C203.5,-581.99 203.5,-572.31 203.5,-563.31"/>
<polygon fill="black" stroke="black" points="207,-563.2 203.5,-553.2 200,-563.2 207,-563.2"/>
</g>
<!-- add_compiler_rt -->
<g id="node28" class="node">
<title>add_compiler_rt</title>
<path fill="none" stroke="black" d="M263,-478C263,-478 142,-478 142,-478 136,-478 130,-472 130,-466 130,-466 130,-454 130,-454 130,-448 136,-442 142,-442 142,-442 263,-442 263,-442 269,-442 275,-448 275,-454 275,-454 275,-466 275,-466 275,-472 269,-478 263,-478"/>
<text text-anchor="middle" x="202.5" y="-456.3" font-family="Arial" font-size="14.00">添加编译器运行时库</text>
</g>
<!-- process_link_inputs&#45;&gt;add_compiler_rt -->
<g id="edge31" class="edge">
<title>process_link_inputs&#45;&gt;add_compiler_rt</title>
<path fill="none" stroke="black" d="M203.25,-514.83C203.14,-506.89 203.01,-497.41 202.88,-488.63"/>
<polygon fill="black" stroke="black" points="206.38,-488.37 202.74,-478.42 199.38,-488.47 206.38,-488.37"/>
</g>
<!-- lib_dirs -->
<g id="node29" class="node">
<title>lib_dirs</title>
<path fill="none" stroke="black" d="M253.5,-405C253.5,-405 149.5,-405 149.5,-405 143.5,-405 137.5,-399 137.5,-393 137.5,-393 137.5,-379 137.5,-379 137.5,-373 143.5,-367 149.5,-367 149.5,-367 253.5,-367 253.5,-367 259.5,-367 265.5,-373 265.5,-379 265.5,-379 265.5,-393 265.5,-393 265.5,-399 259.5,-405 253.5,-405"/>
<text text-anchor="middle" x="201.5" y="-389.8" font-family="Arial" font-size="14.00">遍历lib_directories</text>
<text text-anchor="middle" x="201.5" y="-374.8" font-family="Arial" font-size="14.00">添加&#39;&#45;L&#39;参数</text>
</g>
<!-- add_compiler_rt&#45;&gt;lib_dirs -->
<g id="edge32" class="edge">
<title>add_compiler_rt&#45;&gt;lib_dirs</title>
<path fill="none" stroke="black" d="M202.26,-441.94C202.15,-433.99 202.02,-424.31 201.89,-415.31"/>
<polygon fill="black" stroke="black" points="205.39,-415.15 201.75,-405.2 198.39,-415.25 205.39,-415.15"/>
</g>
<!-- handle_dso -->
<g id="node30" class="node">
<title>handle_dso</title>
<path fill="none" stroke="black" d="M255.5,-330C255.5,-330 147.5,-330 147.5,-330 141.5,-330 135.5,-324 135.5,-318 135.5,-318 135.5,-304 135.5,-304 135.5,-298 141.5,-292 147.5,-292 147.5,-292 255.5,-292 255.5,-292 261.5,-292 267.5,-298 267.5,-304 267.5,-304 267.5,-318 267.5,-318 267.5,-324 261.5,-330 255.5,-330"/>
<text text-anchor="middle" x="201.5" y="-314.8" font-family="Arial" font-size="14.00">处理DSO链接参数</text>
<text text-anchor="middle" x="201.5" y="-299.8" font-family="Arial" font-size="14.00">(&#45;needed&#45;l/&#45;weak&#45;l)</text>
</g>
<!-- lib_dirs&#45;&gt;handle_dso -->
<g id="edge33" class="edge">
<title>lib_dirs&#45;&gt;handle_dso</title>
<path fill="none" stroke="black" d="M201.5,-366.96C201.5,-358.88 201.5,-349.18 201.5,-340.18"/>
<polygon fill="black" stroke="black" points="205,-340.09 201.5,-330.09 198,-340.09 205,-340.09"/>
</g>
<!-- framework_handling -->
<g id="node31" class="node">
<title>framework_handling</title>
<path fill="none" stroke="black" d="M275,-255C275,-255 126,-255 126,-255 120,-255 114,-249 114,-243 114,-243 114,-231 114,-231 114,-225 120,-219 126,-219 126,-219 275,-219 275,-219 281,-219 287,-225 287,-231 287,-231 287,-243 287,-243 287,-249 281,-255 275,-255"/>
<text text-anchor="middle" x="200.5" y="-233.3" font-family="Arial" font-size="14.00">处理框架目录和框架参数</text>
</g>
<!-- handle_dso&#45;&gt;framework_handling -->
<g id="edge34" class="edge">
<title>handle_dso&#45;&gt;framework_handling</title>
<path fill="none" stroke="black" d="M201.25,-291.83C201.14,-283.89 201.01,-274.41 200.88,-265.63"/>
<polygon fill="black" stroke="black" points="204.38,-265.37 200.74,-255.42 197.38,-265.47 204.38,-265.37"/>
</g>
<!-- add_system_lib -->
<g id="node32" class="node">
<title>add_system_lib</title>
<path fill="none" stroke="black" d="M216.5,-182C216.5,-182 142.5,-182 142.5,-182 136.5,-182 130.5,-176 130.5,-170 130.5,-170 130.5,-158 130.5,-158 130.5,-152 136.5,-146 142.5,-146 142.5,-146 216.5,-146 216.5,-146 222.5,-146 228.5,-152 228.5,-158 228.5,-158 228.5,-170 228.5,-170 228.5,-176 222.5,-182 216.5,-182"/>
<text text-anchor="middle" x="179.5" y="-160.3" font-family="Arial" font-size="14.00">添加&#45;lSystem</text>
</g>
<!-- framework_handling&#45;&gt;add_system_lib -->
<g id="edge35" class="edge">
<title>framework_handling&#45;&gt;add_system_lib</title>
<path fill="none" stroke="black" d="M195.42,-218.81C193.02,-210.7 190.1,-200.84 187.42,-191.78"/>
<polygon fill="black" stroke="black" points="190.73,-190.63 184.54,-182.03 184.02,-192.61 190.73,-190.63"/>
</g>
<!-- add_system_lib&#45;&gt;dump_argv -->
<g id="edge36" class="edge">
<title>add_system_lib&#45;&gt;dump_argv</title>
<path fill="none" stroke="black" d="M159.17,-145.81C148.44,-136.74 135.11,-125.48 123.42,-115.6"/>
<polygon fill="black" stroke="black" points="125.54,-112.81 115.65,-109.03 121.02,-118.16 125.54,-112.81"/>
</g>
<!-- end -->
<g id="node34" class="node">
<title>end</title>
<path fill="none" stroke="black" d="M110.5,-36C110.5,-36 80.5,-36 80.5,-36 74.5,-36 68.5,-30 68.5,-24 68.5,-24 68.5,-12 68.5,-12 68.5,-6 74.5,0 80.5,0 80.5,0 110.5,0 110.5,0 116.5,0 122.5,-6 122.5,-12 122.5,-12 122.5,-24 122.5,-24 122.5,-30 116.5,-36 110.5,-36"/>
<text text-anchor="middle" x="95.5" y="-14.3" font-family="Arial" font-size="14.00">结束</text>
</g>
<!-- dump_argv&#45;&gt;end -->
<g id="edge37" class="edge">
<title>dump_argv&#45;&gt;end</title>
<path fill="none" stroke="black" d="M95.5,-72.81C95.5,-64.79 95.5,-55.05 95.5,-46.07"/>
<polygon fill="black" stroke="black" points="99,-46.03 95.5,-36.03 92,-46.03 99,-46.03"/>
</g>
</g>
</svg>
