<?xml version="1.0" encoding="UTF-8" standalone="no"?>
<!DOCTYPE svg PUBLIC "-//W3C//DTD SVG 1.1//EN"
 "http://www.w3.org/Graphics/SVG/1.1/DTD/svg11.dtd">
<!-- Generated by graphviz version 2.43.0 (0)
 -->
<!-- Title: flowchart Pages: 1 -->
<svg width="983pt" height="1074pt"
 viewBox="0.00 0.00 983.14 1074.00" xmlns="http://www.w3.org/2000/svg" xmlns:xlink="http://www.w3.org/1999/xlink">
<g id="graph0" class="graph" transform="scale(1 1) rotate(0) translate(4 1070)">
<title>flowchart</title>
<polygon fill="white" stroke="transparent" points="-4,4 -4,-1070 979.14,-1070 979.14,4 -4,4"/>
<g id="clust1" class="cluster">
<title>cluster_init</title>
<polygon fill="none" stroke="black" points="384,-709 384,-1003 660,-1003 660,-709 384,-709"/>
<text text-anchor="middle" x="522" y="-987.8" font-family="Times,serif" font-size="14.00">Initialization</text>
</g>
<g id="clust2" class="cluster">
<title>cluster_symbol</title>
<polygon fill="none" stroke="black" points="407,-467 407,-690 637,-690 637,-467 407,-467"/>
<text text-anchor="middle" x="522" y="-674.8" font-family="Times,serif" font-size="14.00">File Symbol Setup</text>
</g>
<g id="clust3" class="cluster">
<title>cluster_debug</title>
<polygon fill="none" stroke="black" points="8,-8 8,-448 797,-448 797,-8 8,-8"/>
<text text-anchor="middle" x="402.5" y="-432.8" font-family="Times,serif" font-size="14.00">Debug Format Handling</text>
</g>
<g id="clust4" class="cluster">
<title>cluster_dwarf_sections</title>
<polygon fill="none" stroke="black" points="16,-16 16,-267 587,-267 587,-16 16,-16"/>
<text text-anchor="middle" x="301.5" y="-251.8" font-family="Times,serif" font-size="14.00">Create DWARF Sections</text>
</g>
<!-- start -->
<g id="node1" class="node">
<title>start</title>
<ellipse fill="none" stroke="black" cx="522" cy="-1048" rx="89.88" ry="18"/>
<text text-anchor="middle" x="522" y="-1044.3" font-family="Helvetica,sans-Serif" font-size="14.00">Start init function</text>
</g>
<!-- init1 -->
<g id="node3" class="node">
<title>init1</title>
<path fill="none" stroke="black" d="M601,-972C601,-972 443,-972 443,-972 437,-972 431,-966 431,-960 431,-960 431,-948 431,-948 431,-942 437,-936 443,-936 443,-936 601,-936 601,-936 607,-936 613,-942 613,-948 613,-948 613,-960 613,-960 613,-966 607,-972 601,-972"/>
<text text-anchor="middle" x="522" y="-950.3" font-family="Helvetica,sans-Serif" font-size="14.00">Get comp, gpa, ptr_size</text>
</g>
<!-- start&#45;&gt;init1 -->
<g id="edge1" class="edge">
<title>start&#45;&gt;init1</title>
<path fill="none" stroke="black" d="M522,-1029.7C522,-1016.46 522,-997.95 522,-982.66"/>
<polygon fill="black" stroke="black" points="525.5,-982.23 522,-972.23 518.5,-982.23 525.5,-982.23"/>
</g>
<!-- end -->
<g id="node2" class="node">
<title>end</title>
<ellipse fill="none" stroke="black" cx="890" cy="-43" rx="85.29" ry="18"/>
<text text-anchor="middle" x="890" y="-39.3" font-family="Helvetica,sans-Serif" font-size="14.00">End init function</text>
</g>
<!-- init2 -->
<g id="node4" class="node">
<title>init2</title>
<path fill="none" stroke="black" d="M640,-899C640,-899 404,-899 404,-899 398,-899 392,-893 392,-887 392,-887 392,-875 392,-875 392,-869 398,-863 404,-863 404,-863 640,-863 640,-863 646,-863 652,-869 652,-875 652,-875 652,-887 652,-887 652,-893 646,-899 640,-899"/>
<text text-anchor="middle" x="522" y="-877.3" font-family="Helvetica,sans-Serif" font-size="14.00">Append null input section to atoms</text>
</g>
<!-- init1&#45;&gt;init2 -->
<g id="edge2" class="edge">
<title>init1&#45;&gt;init2</title>
<path fill="none" stroke="black" d="M522,-935.81C522,-927.79 522,-918.05 522,-909.07"/>
<polygon fill="black" stroke="black" points="525.5,-909.03 522,-899.03 518.5,-909.03 525.5,-909.03"/>
</g>
<!-- init3 -->
<g id="node5" class="node">
<title>init3</title>
<path fill="none" stroke="black" d="M610,-826C610,-826 434,-826 434,-826 428,-826 422,-820 422,-814 422,-814 422,-802 422,-802 422,-796 428,-790 434,-790 434,-790 610,-790 610,-790 616,-790 622,-796 622,-802 622,-802 622,-814 622,-814 622,-820 616,-826 610,-826"/>
<text text-anchor="middle" x="522" y="-804.3" font-family="Helvetica,sans-Serif" font-size="14.00">Append null relocs section</text>
</g>
<!-- init2&#45;&gt;init3 -->
<g id="edge3" class="edge">
<title>init2&#45;&gt;init3</title>
<path fill="none" stroke="black" d="M522,-862.81C522,-854.79 522,-845.05 522,-836.07"/>
<polygon fill="black" stroke="black" points="525.5,-836.03 522,-826.03 518.5,-836.03 525.5,-836.03"/>
</g>
<!-- init4 -->
<g id="node6" class="node">
<title>init4</title>
<path fill="none" stroke="black" d="M607,-753C607,-753 437,-753 437,-753 431,-753 425,-747 425,-741 425,-741 425,-729 425,-729 425,-723 431,-717 437,-717 437,-717 607,-717 607,-717 613,-717 619,-723 619,-729 619,-729 619,-741 619,-741 619,-747 613,-753 607,-753"/>
<text text-anchor="middle" x="522" y="-731.3" font-family="Helvetica,sans-Serif" font-size="14.00">Append 0 to strtab.buffer</text>
</g>
<!-- init3&#45;&gt;init4 -->
<g id="edge4" class="edge">
<title>init3&#45;&gt;init4</title>
<path fill="none" stroke="black" d="M522,-789.81C522,-781.79 522,-772.05 522,-763.07"/>
<polygon fill="black" stroke="black" points="525.5,-763.03 522,-753.03 518.5,-763.03 525.5,-763.03"/>
</g>
<!-- symbol1 -->
<g id="node7" class="node">
<title>symbol1</title>
<path fill="none" stroke="black" d="M615,-659C615,-659 429,-659 429,-659 423,-659 417,-653 417,-647 417,-647 417,-635 417,-635 417,-629 423,-623 429,-623 429,-623 615,-623 615,-623 621,-623 627,-629 627,-635 627,-635 627,-647 627,-647 627,-653 621,-659 615,-659"/>
<text text-anchor="middle" x="522" y="-637.3" font-family="Helvetica,sans-Serif" font-size="14.00">Insert basename into strtab</text>
</g>
<!-- init4&#45;&gt;symbol1 -->
<g id="edge5" class="edge">
<title>init4&#45;&gt;symbol1</title>
<path fill="none" stroke="black" d="M522,-716.7C522,-703.46 522,-684.95 522,-669.66"/>
<polygon fill="black" stroke="black" points="525.5,-669.23 522,-659.23 518.5,-669.23 525.5,-669.23"/>
</g>
<!-- symbol2 -->
<g id="node8" class="node">
<title>symbol2</title>
<path fill="none" stroke="black" d="M602.5,-586C602.5,-586 441.5,-586 441.5,-586 435.5,-586 429.5,-580 429.5,-574 429.5,-574 429.5,-562 429.5,-562 429.5,-556 435.5,-550 441.5,-550 441.5,-550 602.5,-550 602.5,-550 608.5,-550 614.5,-556 614.5,-562 614.5,-562 614.5,-574 614.5,-574 614.5,-580 608.5,-586 602.5,-586"/>
<text text-anchor="middle" x="522" y="-564.3" font-family="Helvetica,sans-Serif" font-size="14.00">Create new local symbol</text>
</g>
<!-- symbol1&#45;&gt;symbol2 -->
<g id="edge6" class="edge">
<title>symbol1&#45;&gt;symbol2</title>
<path fill="none" stroke="black" d="M522,-622.81C522,-614.79 522,-605.05 522,-596.07"/>
<polygon fill="black" stroke="black" points="525.5,-596.03 522,-586.03 518.5,-596.03 525.5,-596.03"/>
</g>
<!-- symbol3 -->
<g id="node9" class="node">
<title>symbol3</title>
<path fill="none" stroke="black" d="M617,-513C617,-513 427,-513 427,-513 421,-513 415,-507 415,-501 415,-501 415,-487 415,-487 415,-481 421,-475 427,-475 427,-475 617,-475 617,-475 623,-475 629,-481 629,-487 629,-487 629,-501 629,-501 629,-507 623,-513 617,-513"/>
<text text-anchor="middle" x="522" y="-497.8" font-family="Helvetica,sans-Serif" font-size="14.00">Set esym.st_info = STT_FILE</text>
<text text-anchor="middle" x="522" y="-482.8" font-family="Helvetica,sans-Serif" font-size="14.00">esym.st_shndx = SHN_ABS</text>
</g>
<!-- symbol2&#45;&gt;symbol3 -->
<g id="edge7" class="edge">
<title>symbol2&#45;&gt;symbol3</title>
<path fill="none" stroke="black" d="M522,-549.94C522,-541.99 522,-532.31 522,-523.31"/>
<polygon fill="black" stroke="black" points="525.5,-523.2 522,-513.2 518.5,-523.2 525.5,-523.2"/>
</g>
<!-- debug_switch -->
<g id="node10" class="node">
<title>debug_switch</title>
<path fill="none" stroke="black" d="M510.04,-416.07C510.04,-416.07 303.05,-399.93 303.05,-399.93 297.06,-399.47 297.06,-398.53 303.05,-398.07 303.05,-398.07 510.04,-381.93 510.04,-381.93 516.02,-381.47 527.98,-381.47 533.96,-381.93 533.96,-381.93 740.95,-398.07 740.95,-398.07 746.94,-398.53 746.94,-399.47 740.95,-399.93 740.95,-399.93 533.96,-416.07 533.96,-416.07 527.98,-416.53 516.02,-416.53 510.04,-416.07"/>
<text text-anchor="middle" x="522" y="-395.3" font-family="Helvetica,sans-Serif" font-size="14.00">Check comp.config.debug_format</text>
</g>
<!-- symbol3&#45;&gt;debug_switch -->
<g id="edge8" class="edge">
<title>symbol3&#45;&gt;debug_switch</title>
<path fill="none" stroke="black" d="M522,-474.63C522,-461.17 522,-442.67 522,-427.46"/>
<polygon fill="black" stroke="black" points="525.5,-427.08 522,-417.08 518.5,-427.08 525.5,-427.08"/>
</g>
<!-- strip -->
<g id="node11" class="node">
<title>strip</title>
<path fill="none" stroke="black" d="M577,-330C577,-330 467,-330 467,-330 461,-330 455,-324 455,-318 455,-318 455,-306 455,-306 455,-300 461,-294 467,-294 467,-294 577,-294 577,-294 583,-294 589,-300 589,-306 589,-306 589,-318 589,-318 589,-324 583,-330 577,-330"/>
<text text-anchor="middle" x="522" y="-308.3" font-family="Helvetica,sans-Serif" font-size="14.00">strip: Do nothing</text>
</g>
<!-- debug_switch&#45;&gt;strip -->
<g id="edge9" class="edge">
<title>debug_switch&#45;&gt;strip</title>
<path fill="none" stroke="black" d="M522,-380.8C522,-369.16 522,-353.55 522,-340.24"/>
<polygon fill="black" stroke="black" points="525.5,-340.18 522,-330.18 518.5,-340.18 525.5,-340.18"/>
<text text-anchor="middle" x="538" y="-351.8" font-family="Helvetica,sans-Serif" font-size="14.00">strip</text>
</g>
<!-- dwarf -->
<g id="node12" class="node">
<title>dwarf</title>
<path fill="none" stroke="black" d="M425,-330C425,-330 281,-330 281,-330 275,-330 269,-324 269,-318 269,-318 269,-306 269,-306 269,-300 275,-294 281,-294 281,-294 425,-294 425,-294 431,-294 437,-300 437,-306 437,-306 437,-318 437,-318 437,-324 431,-330 425,-330"/>
<text text-anchor="middle" x="353" y="-308.3" font-family="Helvetica,sans-Serif" font-size="14.00">dwarf: Initialize Dwarf</text>
</g>
<!-- debug_switch&#45;&gt;dwarf -->
<g id="edge10" class="edge">
<title>debug_switch&#45;&gt;dwarf</title>
<path fill="none" stroke="black" d="M492.56,-383.19C465.91,-369.79 426.31,-349.87 396.09,-334.67"/>
<polygon fill="black" stroke="black" points="397.55,-331.49 387.04,-330.12 394.4,-337.74 397.55,-331.49"/>
<text text-anchor="middle" x="467" y="-351.8" font-family="Helvetica,sans-Serif" font-size="14.00">dwarf</text>
</g>
<!-- codeview -->
<g id="node13" class="node">
<title>codeview</title>
<path fill="none" stroke="black" d="M777,-330C777,-330 619,-330 619,-330 613,-330 607,-324 607,-318 607,-318 607,-306 607,-306 607,-300 613,-294 619,-294 619,-294 777,-294 777,-294 783,-294 789,-300 789,-306 789,-306 789,-318 789,-318 789,-324 783,-330 777,-330"/>
<text text-anchor="middle" x="698" y="-308.3" font-family="Helvetica,sans-Serif" font-size="14.00">code_view: unreachable</text>
</g>
<!-- debug_switch&#45;&gt;codeview -->
<g id="edge11" class="edge">
<title>debug_switch&#45;&gt;codeview</title>
<path fill="none" stroke="black" d="M552.66,-383.19C580.53,-369.73 622.01,-349.7 653.53,-334.48"/>
<polygon fill="black" stroke="black" points="655.07,-337.62 662.55,-330.12 652.02,-331.32 655.07,-337.62"/>
<text text-anchor="middle" x="656" y="-351.8" font-family="Helvetica,sans-Serif" font-size="14.00">code_view</text>
</g>
<!-- strip&#45;&gt;end -->
<g id="edge19" class="edge">
<title>strip&#45;&gt;end</title>
<path fill="none" stroke="black" d="M559.23,-293.94C614.62,-267.54 720.51,-213.09 798,-149 826.82,-125.17 854.32,-91.92 871.62,-69.27"/>
<polygon fill="black" stroke="black" points="874.51,-71.24 877.73,-61.14 868.92,-67.03 874.51,-71.24"/>
</g>
<!-- dwarf_section -->
<g id="node14" class="node">
<title>dwarf_section</title>
<path fill="none" stroke="black" d="M537.5,-236C537.5,-236 168.5,-236 168.5,-236 162.5,-236 156.5,-230 156.5,-224 156.5,-224 156.5,-212 156.5,-212 156.5,-206 162.5,-200 168.5,-200 168.5,-200 537.5,-200 537.5,-200 543.5,-200 549.5,-206 549.5,-212 549.5,-212 549.5,-224 549.5,-224 549.5,-230 543.5,-236 537.5,-236"/>
<text text-anchor="middle" x="353" y="-214.3" font-family="Helvetica,sans-Serif" font-size="14.00">For each debug section (.debug_str, .debug_info, etc.)</text>
</g>
<!-- dwarf&#45;&gt;dwarf_section -->
<g id="edge12" class="edge">
<title>dwarf&#45;&gt;dwarf_section</title>
<path fill="none" stroke="black" d="M353,-293.7C353,-280.46 353,-261.95 353,-246.66"/>
<polygon fill="black" stroke="black" points="356.5,-246.23 353,-236.23 349.5,-246.23 356.5,-246.23"/>
</g>
<!-- check_null -->
<g id="node15" class="node">
<title>check_null</title>
<path fill="none" stroke="black" d="M210.05,-147.91C210.05,-147.91 36.21,-132.09 36.21,-132.09 30.24,-131.54 30.24,-130.46 36.21,-129.91 36.21,-129.91 210.05,-114.09 210.05,-114.09 216.02,-113.54 227.98,-113.54 233.95,-114.09 233.95,-114.09 407.79,-129.91 407.79,-129.91 413.76,-130.46 413.76,-131.54 407.79,-132.09 407.79,-132.09 233.95,-147.91 233.95,-147.91 227.98,-148.46 216.02,-148.46 210.05,-147.91"/>
<text text-anchor="middle" x="222" y="-127.3" font-family="Helvetica,sans-Serif" font-size="14.00">Check if section index is null</text>
</g>
<!-- dwarf_section&#45;&gt;check_null -->
<g id="edge13" class="edge">
<title>dwarf_section&#45;&gt;check_null</title>
<path fill="none" stroke="black" d="M326.49,-199.8C305.5,-186.18 276.12,-167.11 253.85,-152.67"/>
<polygon fill="black" stroke="black" points="255.69,-149.69 245.4,-147.18 251.88,-155.56 255.69,-149.69"/>
</g>
<!-- dwarf_final -->
<g id="node17" class="node">
<title>dwarf_final</title>
<path fill="none" stroke="black" d="M776.5,-149C776.5,-149 609.5,-149 609.5,-149 603.5,-149 597.5,-143 597.5,-137 597.5,-137 597.5,-125 597.5,-125 597.5,-119 603.5,-113 609.5,-113 609.5,-113 776.5,-113 776.5,-113 782.5,-113 788.5,-119 788.5,-125 788.5,-125 788.5,-137 788.5,-137 788.5,-143 782.5,-149 776.5,-149"/>
<text text-anchor="middle" x="693" y="-127.3" font-family="Helvetica,sans-Serif" font-size="14.00">Initialize Dwarf metadata</text>
</g>
<!-- dwarf_section&#45;&gt;dwarf_final -->
<g id="edge17" class="edge">
<title>dwarf_section&#45;&gt;dwarf_final</title>
<path fill="none" stroke="black" d="M421.4,-199.9C477.31,-185.92 556.38,-166.16 614.79,-151.55"/>
<polygon fill="black" stroke="black" points="615.86,-154.89 624.71,-149.07 614.16,-148.1 615.86,-154.89"/>
</g>
<!-- check_null&#45;&gt;dwarf_section -->
<g id="edge15" class="edge">
<title>check_null&#45;&gt;dwarf_section</title>
<path fill="none" stroke="black" d="M254.19,-146.23C266.37,-152.1 280.14,-159.31 292,-167 303.88,-174.7 316.11,-184.33 326.47,-193.08"/>
<polygon fill="black" stroke="black" points="324.48,-195.98 334.34,-199.86 329.04,-190.68 324.48,-195.98"/>
<text text-anchor="middle" x="320.5" y="-170.8" font-family="Helvetica,sans-Serif" font-size="14.00">No</text>
</g>
<!-- create_section -->
<g id="node16" class="node">
<title>create_section</title>
<path fill="none" stroke="black" d="M447.5,-62C447.5,-62 230.5,-62 230.5,-62 224.5,-62 218.5,-56 218.5,-50 218.5,-50 218.5,-36 218.5,-36 218.5,-30 224.5,-24 230.5,-24 230.5,-24 447.5,-24 447.5,-24 453.5,-24 459.5,-30 459.5,-36 459.5,-36 459.5,-50 459.5,-50 459.5,-56 453.5,-62 447.5,-62"/>
<text text-anchor="middle" x="339" y="-46.8" font-family="Helvetica,sans-Serif" font-size="14.00">Add new section to elf_file</text>
<text text-anchor="middle" x="339" y="-31.8" font-family="Helvetica,sans-Serif" font-size="14.00">Create section symbol and atom</text>
</g>
<!-- check_null&#45;&gt;create_section -->
<g id="edge14" class="edge">
<title>check_null&#45;&gt;create_section</title>
<path fill="none" stroke="black" d="M242.65,-114.82C260.29,-101.85 285.98,-82.97 306.4,-67.96"/>
<polygon fill="black" stroke="black" points="308.52,-70.75 314.51,-62 304.38,-65.11 308.52,-70.75"/>
<text text-anchor="middle" x="298.5" y="-83.8" font-family="Helvetica,sans-Serif" font-size="14.00">Yes</text>
</g>
<!-- create_section&#45;&gt;dwarf_section -->
<g id="edge16" class="edge">
<title>create_section&#45;&gt;dwarf_section</title>
<path fill="none" stroke="black" d="M376.56,-62.1C396.05,-73.69 418.02,-90.75 429,-113 436.08,-127.35 435.53,-134.39 429,-149 420.89,-167.14 405.29,-182.44 390.32,-193.91"/>
<polygon fill="black" stroke="black" points="388.14,-191.16 382.12,-199.88 392.26,-196.82 388.14,-191.16"/>
<text text-anchor="middle" x="495.5" y="-127.3" font-family="Helvetica,sans-Serif" font-size="14.00">Loop next section</text>
</g>
<!-- dwarf_final&#45;&gt;end -->
<g id="edge18" class="edge">
<title>dwarf_final&#45;&gt;end</title>
<path fill="none" stroke="black" d="M732.39,-112.8C765.03,-98.56 811.41,-78.31 845.4,-63.47"/>
<polygon fill="black" stroke="black" points="846.88,-66.64 854.64,-59.43 844.08,-60.23 846.88,-66.64"/>
</g>
</g>
</svg>
