<?xml version="1.0" encoding="UTF-8" standalone="no"?>
<!DOCTYPE svg PUBLIC "-//W3C//DTD SVG 1.1//EN"
 "http://www.w3.org/Graphics/SVG/1.1/DTD/svg11.dtd">
<!-- Generated by graphviz version 2.43.0 (0)
 -->
<!-- Title: flushModule Pages: 1 -->
<svg width="382pt" height="1724pt"
 viewBox="0.00 0.00 382.00 1724.00" xmlns="http://www.w3.org/2000/svg" xmlns:xlink="http://www.w3.org/1999/xlink">
<g id="graph0" class="graph" transform="scale(1 1) rotate(0) translate(4 1720)">
<title>flushModule</title>
<polygon fill="white" stroke="transparent" points="-4,4 -4,-1720 378,-1720 378,4 -4,4"/>
<!-- start -->
<g id="node1" class="node">
<title>start</title>
<path fill="none" stroke="black" d="M279.5,-1716C279.5,-1716 166.5,-1716 166.5,-1716 160.5,-1716 154.5,-1710 154.5,-1704 154.5,-1704 154.5,-1692 154.5,-1692 154.5,-1686 160.5,-1680 166.5,-1680 166.5,-1680 279.5,-1680 279.5,-1680 285.5,-1680 291.5,-1686 291.5,-1692 291.5,-1692 291.5,-1704 291.5,-1704 291.5,-1710 285.5,-1716 279.5,-1716"/>
<text text-anchor="middle" x="223" y="-1694.3" font-family="Times,serif" font-size="14.00">开始 flushModule</text>
</g>
<!-- handle_anyerror_type -->
<g id="node2" class="node">
<title>handle_anyerror_type</title>
<path fill="none" stroke="black" d="M287,-1643C287,-1643 159,-1643 159,-1643 153,-1643 147,-1637 147,-1631 147,-1631 147,-1602 147,-1602 147,-1596 153,-1590 159,-1590 159,-1590 287,-1590 287,-1590 293,-1590 299,-1596 299,-1602 299,-1602 299,-1631 299,-1631 299,-1637 293,-1643 287,-1643"/>
<text text-anchor="middle" x="223" y="-1627.8" font-family="Times,serif" font-size="14.00">处理 anyerror 类型</text>
<text text-anchor="middle" x="223" y="-1612.8" font-family="Times,serif" font-size="14.00">创建 WipNav 结构体</text>
<text text-anchor="middle" x="223" y="-1597.8" font-family="Times,serif" font-size="14.00">生成调试信息</text>
</g>
<!-- start&#45;&gt;handle_anyerror_type -->
<g id="edge1" class="edge">
<title>start&#45;&gt;handle_anyerror_type</title>
<path fill="none" stroke="black" d="M223,-1679.75C223,-1671.99 223,-1662.51 223,-1653.32"/>
<polygon fill="black" stroke="black" points="226.5,-1653.18 223,-1643.18 219.5,-1653.18 226.5,-1653.18"/>
</g>
<!-- process_mod_paths -->
<g id="node3" class="node">
<title>process_mod_paths</title>
<path fill="none" stroke="black" d="M330.5,-1553C330.5,-1553 115.5,-1553 115.5,-1553 109.5,-1553 103.5,-1547 103.5,-1541 103.5,-1541 103.5,-1527 103.5,-1527 103.5,-1521 109.5,-1515 115.5,-1515 115.5,-1515 330.5,-1515 330.5,-1515 336.5,-1515 342.5,-1521 342.5,-1527 342.5,-1527 342.5,-1541 342.5,-1541 342.5,-1547 336.5,-1553 330.5,-1553"/>
<text text-anchor="middle" x="223" y="-1537.8" font-family="Times,serif" font-size="14.00">处理模块路径</text>
<text text-anchor="middle" x="223" y="-1522.8" font-family="Times,serif" font-size="14.00">解析根目录并更新 debug_line_str</text>
</g>
<!-- handle_anyerror_type&#45;&gt;process_mod_paths -->
<g id="edge2" class="edge">
<title>handle_anyerror_type&#45;&gt;process_mod_paths</title>
<path fill="none" stroke="black" d="M223,-1589.59C223,-1581.31 223,-1572.11 223,-1563.65"/>
<polygon fill="black" stroke="black" points="226.5,-1563.47 223,-1553.47 219.5,-1563.47 226.5,-1563.47"/>
</g>
<!-- check_aranges -->
<g id="node4" class="node">
<title>check_aranges</title>
<path fill="none" stroke="black" d="M313,-1478C313,-1478 133,-1478 133,-1478 127,-1478 121,-1472 121,-1466 121,-1466 121,-1454 121,-1454 121,-1448 127,-1442 133,-1442 133,-1442 313,-1442 313,-1442 319,-1442 325,-1448 325,-1454 325,-1454 325,-1466 325,-1466 325,-1472 319,-1478 313,-1478"/>
<text text-anchor="middle" x="223" y="-1456.3" font-family="Times,serif" font-size="14.00">检查 debug_aranges 是否脏</text>
</g>
<!-- process_mod_paths&#45;&gt;check_aranges -->
<g id="edge3" class="edge">
<title>process_mod_paths&#45;&gt;check_aranges</title>
<path fill="none" stroke="black" d="M223,-1514.83C223,-1506.89 223,-1497.41 223,-1488.63"/>
<polygon fill="black" stroke="black" points="226.5,-1488.42 223,-1478.42 219.5,-1488.42 226.5,-1488.42"/>
</g>
<!-- update_aranges -->
<g id="node5" class="node">
<title>update_aranges</title>
<path fill="none" stroke="black" d="M250.5,-1391C250.5,-1391 41.5,-1391 41.5,-1391 35.5,-1391 29.5,-1385 29.5,-1379 29.5,-1379 29.5,-1367 29.5,-1367 29.5,-1361 35.5,-1355 41.5,-1355 41.5,-1355 250.5,-1355 250.5,-1355 256.5,-1355 262.5,-1361 262.5,-1367 262.5,-1367 262.5,-1379 262.5,-1379 262.5,-1385 256.5,-1391 250.5,-1391"/>
<text text-anchor="middle" x="146" y="-1369.3" font-family="Times,serif" font-size="14.00">更新 debug_aranges 头部和尾部</text>
</g>
<!-- check_aranges&#45;&gt;update_aranges -->
<g id="edge4" class="edge">
<title>check_aranges&#45;&gt;update_aranges</title>
<path fill="none" stroke="black" d="M207.42,-1441.8C196.25,-1429.47 181.04,-1412.68 168.55,-1398.89"/>
<polygon fill="black" stroke="black" points="170.87,-1396.24 161.56,-1391.18 165.68,-1400.94 170.87,-1396.24"/>
<text text-anchor="middle" x="197.5" y="-1412.8" font-family="Times,serif" font-size="14.00">是</text>
</g>
<!-- check_frame -->
<g id="node6" class="node">
<title>check_frame</title>
<path fill="none" stroke="black" d="M304.5,-1318C304.5,-1318 139.5,-1318 139.5,-1318 133.5,-1318 127.5,-1312 127.5,-1306 127.5,-1306 127.5,-1294 127.5,-1294 127.5,-1288 133.5,-1282 139.5,-1282 139.5,-1282 304.5,-1282 304.5,-1282 310.5,-1282 316.5,-1288 316.5,-1294 316.5,-1294 316.5,-1306 316.5,-1306 316.5,-1312 310.5,-1318 304.5,-1318"/>
<text text-anchor="middle" x="222" y="-1296.3" font-family="Times,serif" font-size="14.00">检查 debug_frame 是否脏</text>
</g>
<!-- check_aranges&#45;&gt;check_frame -->
<g id="edge5" class="edge">
<title>check_aranges&#45;&gt;check_frame</title>
<path fill="none" stroke="black" d="M240.06,-1441.99C258.31,-1421.63 283.1,-1386.35 271,-1355 266.7,-1343.86 258.91,-1333.59 250.79,-1325.07"/>
<polygon fill="black" stroke="black" points="253.24,-1322.57 243.65,-1318.05 248.33,-1327.56 253.24,-1322.57"/>
<text text-anchor="middle" x="282.5" y="-1369.3" font-family="Times,serif" font-size="14.00">否</text>
</g>
<!-- update_aranges&#45;&gt;check_frame -->
<g id="edge6" class="edge">
<title>update_aranges&#45;&gt;check_frame</title>
<path fill="none" stroke="black" d="M164.4,-1354.81C174.01,-1345.83 185.93,-1334.69 196.43,-1324.89"/>
<polygon fill="black" stroke="black" points="198.85,-1327.41 203.77,-1318.03 194.08,-1322.3 198.85,-1327.41"/>
</g>
<!-- update_frame_x86_64 -->
<g id="node7" class="node">
<title>update_frame_x86_64</title>
<path fill="none" stroke="black" d="M246,-1231C246,-1231 12,-1231 12,-1231 6,-1231 0,-1225 0,-1219 0,-1219 0,-1207 0,-1207 0,-1201 6,-1195 12,-1195 12,-1195 246,-1195 246,-1195 252,-1195 258,-1201 258,-1207 258,-1207 258,-1219 258,-1219 258,-1225 252,-1231 246,-1231"/>
<text text-anchor="middle" x="129" y="-1209.3" font-family="Times,serif" font-size="14.00">针对 x86_64 架构更新 debug_frame</text>
</g>
<!-- check_frame&#45;&gt;update_frame_x86_64 -->
<g id="edge7" class="edge">
<title>check_frame&#45;&gt;update_frame_x86_64</title>
<path fill="none" stroke="black" d="M177.5,-1281.86C168.65,-1277.03 159.95,-1271.11 153,-1264 146.61,-1257.47 141.66,-1248.91 137.96,-1240.73"/>
<polygon fill="black" stroke="black" points="141.19,-1239.38 134.18,-1231.43 134.71,-1242.02 141.19,-1239.38"/>
<text text-anchor="middle" x="216.5" y="-1252.8" font-family="Times,serif" font-size="14.00">是且架构为 x86_64</text>
</g>
<!-- check_info -->
<g id="node8" class="node">
<title>check_info</title>
<path fill="none" stroke="black" d="M321,-1158C321,-1158 171,-1158 171,-1158 165,-1158 159,-1152 159,-1146 159,-1146 159,-1134 159,-1134 159,-1128 165,-1122 171,-1122 171,-1122 321,-1122 321,-1122 327,-1122 333,-1128 333,-1134 333,-1134 333,-1146 333,-1146 333,-1152 327,-1158 321,-1158"/>
<text text-anchor="middle" x="246" y="-1136.3" font-family="Times,serif" font-size="14.00">检查 debug_info 是否脏</text>
</g>
<!-- check_frame&#45;&gt;check_info -->
<g id="edge8" class="edge">
<title>check_frame&#45;&gt;check_info</title>
<path fill="none" stroke="black" d="M262.66,-1281.98C269.61,-1277.2 275.9,-1271.27 280,-1264 297.44,-1233.11 279.76,-1192.74 264.07,-1166.84"/>
<polygon fill="black" stroke="black" points="266.98,-1164.89 258.67,-1158.32 261.07,-1168.64 266.98,-1164.89"/>
<text text-anchor="middle" x="331" y="-1209.3" font-family="Times,serif" font-size="14.00">否或其他架构</text>
</g>
<!-- update_frame_x86_64&#45;&gt;check_info -->
<g id="edge9" class="edge">
<title>update_frame_x86_64&#45;&gt;check_info</title>
<path fill="none" stroke="black" d="M157.02,-1194.99C172.54,-1185.58 192.02,-1173.76 208.8,-1163.57"/>
<polygon fill="black" stroke="black" points="211.07,-1166.29 217.8,-1158.11 207.43,-1160.31 211.07,-1166.29"/>
</g>
<!-- update_info -->
<g id="node9" class="node">
<title>update_info</title>
<path fill="none" stroke="black" d="M231,-1071C231,-1071 67,-1071 67,-1071 61,-1071 55,-1065 55,-1059 55,-1059 55,-1045 55,-1045 55,-1039 61,-1033 67,-1033 67,-1033 231,-1033 231,-1033 237,-1033 243,-1039 243,-1045 243,-1045 243,-1059 243,-1059 243,-1065 237,-1071 231,-1071"/>
<text text-anchor="middle" x="149" y="-1055.8" font-family="Times,serif" font-size="14.00">填充 debug_info 单元数据</text>
<text text-anchor="middle" x="149" y="-1040.8" font-family="Times,serif" font-size="14.00">处理模块和交叉引用</text>
</g>
<!-- check_info&#45;&gt;update_info -->
<g id="edge10" class="edge">
<title>check_info&#45;&gt;update_info</title>
<path fill="none" stroke="black" d="M226.37,-1121.6C212.32,-1109.14 193.19,-1092.18 177.47,-1078.24"/>
<polygon fill="black" stroke="black" points="179.41,-1075.28 169.6,-1071.27 174.77,-1080.52 179.41,-1075.28"/>
<text text-anchor="middle" x="214.5" y="-1092.8" font-family="Times,serif" font-size="14.00">是</text>
</g>
<!-- check_abbrev -->
<g id="node10" class="node">
<title>check_abbrev</title>
<path fill="none" stroke="black" d="M326.5,-996C326.5,-996 153.5,-996 153.5,-996 147.5,-996 141.5,-990 141.5,-984 141.5,-984 141.5,-972 141.5,-972 141.5,-966 147.5,-960 153.5,-960 153.5,-960 326.5,-960 326.5,-960 332.5,-960 338.5,-966 338.5,-972 338.5,-972 338.5,-984 338.5,-984 338.5,-990 332.5,-996 326.5,-996"/>
<text text-anchor="middle" x="240" y="-974.3" font-family="Times,serif" font-size="14.00">检查 debug_abbrev 是否脏</text>
</g>
<!-- check_info&#45;&gt;check_abbrev -->
<g id="edge11" class="edge">
<title>check_info&#45;&gt;check_abbrev</title>
<path fill="none" stroke="black" d="M248.73,-1121.7C251.65,-1100.67 255.42,-1064.15 252,-1033 251.03,-1024.18 249.2,-1014.69 247.25,-1006.16"/>
<polygon fill="black" stroke="black" points="250.63,-1005.24 244.87,-996.35 243.83,-1006.89 250.63,-1005.24"/>
<text text-anchor="middle" x="261.5" y="-1048.3" font-family="Times,serif" font-size="14.00">否</text>
</g>
<!-- update_info&#45;&gt;check_abbrev -->
<g id="edge12" class="edge">
<title>update_info&#45;&gt;check_abbrev</title>
<path fill="none" stroke="black" d="M171.96,-1032.83C183.62,-1023.6 197.93,-1012.29 210.41,-1002.41"/>
<polygon fill="black" stroke="black" points="212.63,-1005.12 218.3,-996.17 208.28,-999.63 212.63,-1005.12"/>
</g>
<!-- update_abbrev -->
<g id="node11" class="node">
<title>update_abbrev</title>
<path fill="none" stroke="black" d="M255,-909C255,-909 97,-909 97,-909 91,-909 85,-903 85,-897 85,-897 85,-885 85,-885 85,-879 91,-873 97,-873 97,-873 255,-873 255,-873 261,-873 267,-879 267,-885 267,-885 267,-897 267,-897 267,-903 261,-909 255,-909"/>
<text text-anchor="middle" x="176" y="-887.3" font-family="Times,serif" font-size="14.00">写入 debug_abbrev 尾部</text>
</g>
<!-- check_abbrev&#45;&gt;update_abbrev -->
<g id="edge13" class="edge">
<title>check_abbrev&#45;&gt;update_abbrev</title>
<path fill="none" stroke="black" d="M227.05,-959.8C217.85,-947.59 205.36,-930.99 195.03,-917.28"/>
<polygon fill="black" stroke="black" points="197.74,-915.06 188.93,-909.18 192.15,-919.27 197.74,-915.06"/>
<text text-anchor="middle" x="219.5" y="-930.8" font-family="Times,serif" font-size="14.00">是</text>
</g>
<!-- check_str -->
<g id="node12" class="node">
<title>check_str</title>
<path fill="none" stroke="black" d="M310.5,-836C310.5,-836 167.5,-836 167.5,-836 161.5,-836 155.5,-830 155.5,-824 155.5,-824 155.5,-812 155.5,-812 155.5,-806 161.5,-800 167.5,-800 167.5,-800 310.5,-800 310.5,-800 316.5,-800 322.5,-806 322.5,-812 322.5,-812 322.5,-824 322.5,-824 322.5,-830 316.5,-836 310.5,-836"/>
<text text-anchor="middle" x="239" y="-814.3" font-family="Times,serif" font-size="14.00">检查 debug_str 是否脏</text>
</g>
<!-- check_abbrev&#45;&gt;check_str -->
<g id="edge14" class="edge">
<title>check_abbrev&#45;&gt;check_str</title>
<path fill="none" stroke="black" d="M252.96,-959.82C266.8,-939.29 285.55,-903.84 276,-873 272.82,-862.74 266.95,-852.7 260.8,-844.11"/>
<polygon fill="black" stroke="black" points="263.5,-841.88 254.66,-836.05 257.94,-846.12 263.5,-841.88"/>
<text text-anchor="middle" x="286.5" y="-887.3" font-family="Times,serif" font-size="14.00">否</text>
</g>
<!-- update_abbrev&#45;&gt;check_str -->
<g id="edge15" class="edge">
<title>update_abbrev&#45;&gt;check_str</title>
<path fill="none" stroke="black" d="M191.25,-872.81C198.99,-864.09 208.53,-853.34 217.04,-843.75"/>
<polygon fill="black" stroke="black" points="219.87,-845.83 223.89,-836.03 214.63,-841.19 219.87,-845.83"/>
</g>
<!-- update_str -->
<g id="node13" class="node">
<title>update_str</title>
<path fill="none" stroke="black" d="M246.5,-749C246.5,-749 117.5,-749 117.5,-749 111.5,-749 105.5,-743 105.5,-737 105.5,-737 105.5,-725 105.5,-725 105.5,-719 111.5,-713 117.5,-713 117.5,-713 246.5,-713 246.5,-713 252.5,-713 258.5,-719 258.5,-725 258.5,-725 258.5,-737 258.5,-737 258.5,-743 252.5,-749 246.5,-749"/>
<text text-anchor="middle" x="182" y="-727.3" font-family="Times,serif" font-size="14.00">写入 debug_str 内容</text>
</g>
<!-- check_str&#45;&gt;update_str -->
<g id="edge16" class="edge">
<title>check_str&#45;&gt;update_str</title>
<path fill="none" stroke="black" d="M227.47,-799.8C219.35,-787.7 208.36,-771.3 199.21,-757.67"/>
<polygon fill="black" stroke="black" points="201.99,-755.53 193.52,-749.18 196.18,-759.43 201.99,-755.53"/>
<text text-anchor="middle" x="221.5" y="-770.8" font-family="Times,serif" font-size="14.00">是</text>
</g>
<!-- check_line -->
<g id="node14" class="node">
<title>check_line</title>
<path fill="none" stroke="black" d="M312.5,-676C312.5,-676 163.5,-676 163.5,-676 157.5,-676 151.5,-670 151.5,-664 151.5,-664 151.5,-652 151.5,-652 151.5,-646 157.5,-640 163.5,-640 163.5,-640 312.5,-640 312.5,-640 318.5,-640 324.5,-646 324.5,-652 324.5,-652 324.5,-664 324.5,-664 324.5,-670 318.5,-676 312.5,-676"/>
<text text-anchor="middle" x="238" y="-654.3" font-family="Times,serif" font-size="14.00">检查 debug_line 是否脏</text>
</g>
<!-- check_str&#45;&gt;check_line -->
<g id="edge17" class="edge">
<title>check_str&#45;&gt;check_line</title>
<path fill="none" stroke="black" d="M249.17,-799.75C260.04,-779.15 274.71,-743.65 267,-713 264.56,-703.3 260,-693.44 255.21,-684.85"/>
<polygon fill="black" stroke="black" points="258.12,-682.9 250.01,-676.09 252.11,-686.48 258.12,-682.9"/>
<text text-anchor="middle" x="277.5" y="-727.3" font-family="Times,serif" font-size="14.00">否</text>
</g>
<!-- update_str&#45;&gt;check_line -->
<g id="edge18" class="edge">
<title>update_str&#45;&gt;check_line</title>
<path fill="none" stroke="black" d="M195.56,-712.81C202.37,-704.18 210.75,-693.56 218.25,-684.03"/>
<polygon fill="black" stroke="black" points="221.12,-686.05 224.57,-676.03 215.63,-681.71 221.12,-686.05"/>
</g>
<!-- update_line -->
<g id="node15" class="node">
<title>update_line</title>
<path fill="none" stroke="black" d="M265,-589C265,-589 59,-589 59,-589 53,-589 47,-583 47,-577 47,-577 47,-565 47,-565 47,-559 53,-553 59,-553 59,-553 265,-553 265,-553 271,-553 277,-559 277,-565 277,-565 277,-577 277,-577 277,-583 271,-589 265,-589"/>
<text text-anchor="middle" x="162" y="-567.3" font-family="Times,serif" font-size="14.00">更新 debug_line 头部和文件信息</text>
</g>
<!-- check_line&#45;&gt;update_line -->
<g id="edge19" class="edge">
<title>check_line&#45;&gt;update_line</title>
<path fill="none" stroke="black" d="M222.62,-639.8C211.6,-627.47 196.58,-610.68 184.25,-596.89"/>
<polygon fill="black" stroke="black" points="186.63,-594.3 177.36,-589.18 181.41,-598.96 186.63,-594.3"/>
<text text-anchor="middle" x="212.5" y="-610.8" font-family="Times,serif" font-size="14.00">是</text>
</g>
<!-- check_line_str -->
<g id="node16" class="node">
<title>check_line_str</title>
<path fill="none" stroke="black" d="M325,-516C325,-516 149,-516 149,-516 143,-516 137,-510 137,-504 137,-504 137,-492 137,-492 137,-486 143,-480 149,-480 149,-480 325,-480 325,-480 331,-480 337,-486 337,-492 337,-492 337,-504 337,-504 337,-510 331,-516 325,-516"/>
<text text-anchor="middle" x="237" y="-494.3" font-family="Times,serif" font-size="14.00">检查 debug_line_str 是否脏</text>
</g>
<!-- check_line&#45;&gt;check_line_str -->
<g id="edge20" class="edge">
<title>check_line&#45;&gt;check_line_str</title>
<path fill="none" stroke="black" d="M255.06,-639.99C273.31,-619.63 298.1,-584.35 286,-553 281.7,-541.86 273.91,-531.59 265.79,-523.07"/>
<polygon fill="black" stroke="black" points="268.24,-520.57 258.65,-516.05 263.33,-525.56 268.24,-520.57"/>
<text text-anchor="middle" x="297.5" y="-567.3" font-family="Times,serif" font-size="14.00">否</text>
</g>
<!-- update_line&#45;&gt;check_line_str -->
<g id="edge21" class="edge">
<title>update_line&#45;&gt;check_line_str</title>
<path fill="none" stroke="black" d="M180.16,-552.81C189.55,-543.92 201.18,-532.91 211.47,-523.17"/>
<polygon fill="black" stroke="black" points="214.16,-525.45 219.01,-516.03 209.34,-520.36 214.16,-525.45"/>
</g>
<!-- update_line_str -->
<g id="node17" class="node">
<title>update_line_str</title>
<path fill="none" stroke="black" d="M253,-429C253,-429 91,-429 91,-429 85,-429 79,-423 79,-417 79,-417 79,-405 79,-405 79,-399 85,-393 91,-393 91,-393 253,-393 253,-393 259,-393 265,-399 265,-405 265,-405 265,-417 265,-417 265,-423 259,-429 253,-429"/>
<text text-anchor="middle" x="172" y="-407.3" font-family="Times,serif" font-size="14.00">写入 debug_line_str 内容</text>
</g>
<!-- check_line_str&#45;&gt;update_line_str -->
<g id="edge22" class="edge">
<title>check_line_str&#45;&gt;update_line_str</title>
<path fill="none" stroke="black" d="M223.85,-479.8C214.51,-467.59 201.82,-450.99 191.33,-437.28"/>
<polygon fill="black" stroke="black" points="193.99,-434.99 185.13,-429.18 188.43,-439.25 193.99,-434.99"/>
<text text-anchor="middle" x="216.5" y="-450.8" font-family="Times,serif" font-size="14.00">是</text>
</g>
<!-- check_loclists -->
<g id="node18" class="node">
<title>check_loclists</title>
<path fill="none" stroke="black" d="M322.5,-356C322.5,-356 149.5,-356 149.5,-356 143.5,-356 137.5,-350 137.5,-344 137.5,-344 137.5,-332 137.5,-332 137.5,-326 143.5,-320 149.5,-320 149.5,-320 322.5,-320 322.5,-320 328.5,-320 334.5,-326 334.5,-332 334.5,-332 334.5,-344 334.5,-344 334.5,-350 328.5,-356 322.5,-356"/>
<text text-anchor="middle" x="236" y="-334.3" font-family="Times,serif" font-size="14.00">检查 debug_loclists 是否脏</text>
</g>
<!-- check_line_str&#45;&gt;check_loclists -->
<g id="edge23" class="edge">
<title>check_line_str&#45;&gt;check_loclists</title>
<path fill="none" stroke="black" d="M250.3,-479.83C264.52,-459.31 283.78,-423.88 274,-393 270.78,-382.84 264.89,-372.93 258.69,-364.44"/>
<polygon fill="black" stroke="black" points="261.37,-362.19 252.47,-356.46 255.85,-366.5 261.37,-362.19"/>
<text text-anchor="middle" x="284.5" y="-407.3" font-family="Times,serif" font-size="14.00">否</text>
</g>
<!-- update_line_str&#45;&gt;check_loclists -->
<g id="edge24" class="edge">
<title>update_line_str&#45;&gt;check_loclists</title>
<path fill="none" stroke="black" d="M187.49,-392.81C195.43,-384 205.24,-373.13 213.95,-363.46"/>
<polygon fill="black" stroke="black" points="216.55,-365.8 220.65,-356.03 211.35,-361.11 216.55,-365.8"/>
</g>
<!-- check_rnglists -->
<g id="node19" class="node">
<title>check_rnglists</title>
<path fill="none" stroke="black" d="M325,-269C325,-269 147,-269 147,-269 141,-269 135,-263 135,-257 135,-257 135,-245 135,-245 135,-239 141,-233 147,-233 147,-233 325,-233 325,-233 331,-233 337,-239 337,-245 337,-245 337,-257 337,-257 337,-263 331,-269 325,-269"/>
<text text-anchor="middle" x="236" y="-247.3" font-family="Times,serif" font-size="14.00">检查 debug_rnglists 是否脏</text>
</g>
<!-- check_loclists&#45;&gt;check_rnglists -->
<g id="edge25" class="edge">
<title>check_loclists&#45;&gt;check_rnglists</title>
<path fill="none" stroke="black" d="M225.12,-319.83C222.22,-314.35 219.48,-308.11 218,-302 216.13,-294.27 217.56,-286.07 220.28,-278.6"/>
<polygon fill="black" stroke="black" points="223.55,-279.86 224.43,-269.3 217.16,-277.01 223.55,-279.86"/>
<text text-anchor="middle" x="225.5" y="-290.8" font-family="Times,serif" font-size="14.00">否</text>
</g>
<!-- check_loclists&#45;&gt;check_rnglists -->
<g id="edge26" class="edge">
<title>check_loclists&#45;&gt;check_rnglists</title>
<path fill="none" stroke="black" d="M236,-319.8C236,-308.16 236,-292.55 236,-279.24"/>
<polygon fill="black" stroke="black" points="239.5,-279.18 236,-269.18 232.5,-279.18 239.5,-279.18"/>
<text text-anchor="middle" x="293.5" y="-290.8" font-family="Times,serif" font-size="14.00">是（标记为不脏）</text>
</g>
<!-- update_rnglists -->
<g id="node20" class="node">
<title>update_rnglists</title>
<path fill="none" stroke="black" d="M253,-182C253,-182 89,-182 89,-182 83,-182 77,-176 77,-170 77,-170 77,-158 77,-158 77,-152 83,-146 89,-146 89,-146 253,-146 253,-146 259,-146 265,-152 265,-158 265,-158 265,-170 265,-170 265,-176 259,-182 253,-182"/>
<text text-anchor="middle" x="171" y="-160.3" font-family="Times,serif" font-size="14.00">更新 debug_rnglists 头部</text>
</g>
<!-- check_rnglists&#45;&gt;update_rnglists -->
<g id="edge27" class="edge">
<title>check_rnglists&#45;&gt;update_rnglists</title>
<path fill="none" stroke="black" d="M222.85,-232.8C213.51,-220.59 200.82,-203.99 190.33,-190.28"/>
<polygon fill="black" stroke="black" points="192.99,-187.99 184.13,-182.18 187.43,-192.25 192.99,-187.99"/>
<text text-anchor="middle" x="215.5" y="-203.8" font-family="Times,serif" font-size="14.00">是</text>
</g>
<!-- final_assert -->
<g id="node21" class="node">
<title>final_assert</title>
<path fill="none" stroke="black" d="M289.5,-109C289.5,-109 182.5,-109 182.5,-109 176.5,-109 170.5,-103 170.5,-97 170.5,-97 170.5,-85 170.5,-85 170.5,-79 176.5,-73 182.5,-73 182.5,-73 289.5,-73 289.5,-73 295.5,-73 301.5,-79 301.5,-85 301.5,-85 301.5,-97 301.5,-97 301.5,-103 295.5,-109 289.5,-109"/>
<text text-anchor="middle" x="236" y="-87.3" font-family="Times,serif" font-size="14.00">验证所有段已清理</text>
</g>
<!-- check_rnglists&#45;&gt;final_assert -->
<g id="edge28" class="edge">
<title>check_rnglists&#45;&gt;final_assert</title>
<path fill="none" stroke="black" d="M249.58,-232.86C264.1,-212.38 283.81,-176.97 274,-146 270.78,-135.84 264.89,-125.93 258.69,-117.44"/>
<polygon fill="black" stroke="black" points="261.37,-115.19 252.47,-109.46 255.85,-119.5 261.37,-115.19"/>
<text text-anchor="middle" x="284.5" y="-160.3" font-family="Times,serif" font-size="14.00">否</text>
</g>
<!-- update_rnglists&#45;&gt;final_assert -->
<g id="edge29" class="edge">
<title>update_rnglists&#45;&gt;final_assert</title>
<path fill="none" stroke="black" d="M186.73,-145.81C194.8,-137 204.76,-126.13 213.61,-116.46"/>
<polygon fill="black" stroke="black" points="216.24,-118.77 220.41,-109.03 211.08,-114.04 216.24,-118.77"/>
</g>
<!-- end -->
<g id="node22" class="node">
<title>end</title>
<path fill="none" stroke="black" d="M251,-36C251,-36 221,-36 221,-36 215,-36 209,-30 209,-24 209,-24 209,-12 209,-12 209,-6 215,0 221,0 221,0 251,0 251,0 257,0 263,-6 263,-12 263,-12 263,-24 263,-24 263,-30 257,-36 251,-36"/>
<text text-anchor="middle" x="236" y="-14.3" font-family="Times,serif" font-size="14.00">结束</text>
</g>
<!-- final_assert&#45;&gt;end -->
<g id="edge30" class="edge">
<title>final_assert&#45;&gt;end</title>
<path fill="none" stroke="black" d="M236,-72.81C236,-64.79 236,-55.05 236,-46.07"/>
<polygon fill="black" stroke="black" points="239.5,-46.03 236,-36.03 232.5,-46.03 239.5,-46.03"/>
</g>
</g>
</svg>
