<?xml version="1.0" encoding="UTF-8" standalone="no"?>
<!DOCTYPE svg PUBLIC "-//W3C//DTD SVG 1.1//EN"
 "http://www.w3.org/Graphics/SVG/1.1/DTD/svg11.dtd">
<!-- Generated by graphviz version 2.43.0 (0)
 -->
<!-- Title: flushModuleInner Pages: 1 -->
<svg width="562pt" height="2989pt"
 viewBox="0.00 0.00 561.50 2989.00" xmlns="http://www.w3.org/2000/svg" xmlns:xlink="http://www.w3.org/1999/xlink">
<g id="graph0" class="graph" transform="scale(1 1) rotate(0) translate(4 2985)">
<title>flushModuleInner</title>
<polygon fill="white" stroke="transparent" points="-4,4 -4,-2985 557.5,-2985 557.5,4 -4,4"/>
<!-- start -->
<g id="node1" class="node">
<title>start</title>
<path fill="none" stroke="black" d="M453.5,-2981C453.5,-2981 423.5,-2981 423.5,-2981 417.5,-2981 411.5,-2975 411.5,-2969 411.5,-2969 411.5,-2957 411.5,-2957 411.5,-2951 417.5,-2945 423.5,-2945 423.5,-2945 453.5,-2945 453.5,-2945 459.5,-2945 465.5,-2951 465.5,-2957 465.5,-2957 465.5,-2969 465.5,-2969 465.5,-2975 459.5,-2981 453.5,-2981"/>
<text text-anchor="middle" x="438.5" y="-2959.3" font-family="Times,serif" font-size="14.00">开始</text>
</g>
<!-- handle_module_obj_path -->
<g id="node2" class="node">
<title>handle_module_obj_path</title>
<path fill="none" stroke="black" d="M492,-2908C492,-2908 385,-2908 385,-2908 379,-2908 373,-2902 373,-2896 373,-2896 373,-2884 373,-2884 373,-2878 379,-2872 385,-2872 385,-2872 492,-2872 492,-2872 498,-2872 504,-2878 504,-2884 504,-2884 504,-2896 504,-2896 504,-2902 498,-2908 492,-2908"/>
<text text-anchor="middle" x="438.5" y="-2886.3" font-family="Times,serif" font-size="14.00">处理模块对象路径</text>
</g>
<!-- start&#45;&gt;handle_module_obj_path -->
<g id="edge1" class="edge">
<title>start&#45;&gt;handle_module_obj_path</title>
<path fill="none" stroke="black" d="M438.5,-2944.81C438.5,-2936.79 438.5,-2927.05 438.5,-2918.07"/>
<polygon fill="black" stroke="black" points="442,-2918.03 438.5,-2908.03 435,-2918.03 442,-2918.03"/>
</g>
<!-- flush_zig_object -->
<g id="node3" class="node">
<title>flush_zig_object</title>
<path fill="none" stroke="black" d="M475,-2821C475,-2821 402,-2821 402,-2821 396,-2821 390,-2815 390,-2809 390,-2809 390,-2797 390,-2797 390,-2791 396,-2785 402,-2785 402,-2785 475,-2785 475,-2785 481,-2785 487,-2791 487,-2797 487,-2797 487,-2809 487,-2809 487,-2815 481,-2821 475,-2821"/>
<text text-anchor="middle" x="438.5" y="-2799.3" font-family="Times,serif" font-size="14.00">刷新Zig对象</text>
</g>
<!-- handle_module_obj_path&#45;&gt;flush_zig_object -->
<g id="edge2" class="edge">
<title>handle_module_obj_path&#45;&gt;flush_zig_object</title>
<path fill="none" stroke="black" d="M438.5,-2871.8C438.5,-2860.16 438.5,-2844.55 438.5,-2831.24"/>
<polygon fill="black" stroke="black" points="442,-2831.18 438.5,-2821.18 435,-2831.18 442,-2831.18"/>
<text text-anchor="middle" x="488.5" y="-2842.8" font-family="Times,serif" font-size="14.00">存在zig_object</text>
</g>
<!-- open_parse_object -->
<g id="node4" class="node">
<title>open_parse_object</title>
<path fill="none" stroke="black" d="M499,-2734C499,-2734 378,-2734 378,-2734 372,-2734 366,-2728 366,-2722 366,-2722 366,-2710 366,-2710 366,-2704 372,-2698 378,-2698 378,-2698 499,-2698 499,-2698 505,-2698 511,-2704 511,-2710 511,-2710 511,-2722 511,-2722 511,-2728 505,-2734 499,-2734"/>
<text text-anchor="middle" x="438.5" y="-2712.3" font-family="Times,serif" font-size="14.00">打开并解析对象文件</text>
</g>
<!-- flush_zig_object&#45;&gt;open_parse_object -->
<g id="edge3" class="edge">
<title>flush_zig_object&#45;&gt;open_parse_object</title>
<path fill="none" stroke="black" d="M438.5,-2784.8C438.5,-2773.16 438.5,-2757.55 438.5,-2744.24"/>
<polygon fill="black" stroke="black" points="442,-2744.18 438.5,-2734.18 435,-2744.18 442,-2744.18"/>
<text text-anchor="middle" x="496" y="-2755.8" font-family="Times,serif" font-size="14.00">模块对象路径存在</text>
</g>
<!-- output_mode_switch -->
<g id="node5" class="node">
<title>output_mode_switch</title>
<path fill="none" stroke="black" d="M524,-2661C524,-2661 353,-2661 353,-2661 347,-2661 341,-2655 341,-2649 341,-2649 341,-2637 341,-2637 341,-2631 347,-2625 353,-2625 353,-2625 524,-2625 524,-2625 530,-2625 536,-2631 536,-2637 536,-2637 536,-2649 536,-2649 536,-2655 530,-2661 524,-2661"/>
<text text-anchor="middle" x="438.5" y="-2639.3" font-family="Times,serif" font-size="14.00">根据output_mode处理输出</text>
</g>
<!-- open_parse_object&#45;&gt;output_mode_switch -->
<g id="edge4" class="edge">
<title>open_parse_object&#45;&gt;output_mode_switch</title>
<path fill="none" stroke="black" d="M438.5,-2697.81C438.5,-2689.79 438.5,-2680.05 438.5,-2671.07"/>
<polygon fill="black" stroke="black" points="442,-2671.03 438.5,-2661.03 435,-2671.03 442,-2671.03"/>
</g>
<!-- check_diag_errors -->
<g id="node6" class="node">
<title>check_diag_errors</title>
<path fill="none" stroke="black" d="M477.5,-2588C477.5,-2588 399.5,-2588 399.5,-2588 393.5,-2588 387.5,-2582 387.5,-2576 387.5,-2576 387.5,-2564 387.5,-2564 387.5,-2558 393.5,-2552 399.5,-2552 399.5,-2552 477.5,-2552 477.5,-2552 483.5,-2552 489.5,-2558 489.5,-2564 489.5,-2564 489.5,-2576 489.5,-2576 489.5,-2582 483.5,-2588 477.5,-2588"/>
<text text-anchor="middle" x="438.5" y="-2566.3" font-family="Times,serif" font-size="14.00">检查诊断错误</text>
</g>
<!-- output_mode_switch&#45;&gt;check_diag_errors -->
<g id="edge5" class="edge">
<title>output_mode_switch&#45;&gt;check_diag_errors</title>
<path fill="none" stroke="black" d="M438.5,-2624.81C438.5,-2616.79 438.5,-2607.05 438.5,-2598.07"/>
<polygon fill="black" stroke="black" points="442,-2598.03 438.5,-2588.03 435,-2598.03 442,-2598.03"/>
</g>
<!-- create_linker_defined -->
<g id="node7" class="node">
<title>create_linker_defined</title>
<path fill="none" stroke="black" d="M452,-2501C452,-2501 317,-2501 317,-2501 311,-2501 305,-2495 305,-2489 305,-2489 305,-2477 305,-2477 305,-2471 311,-2465 317,-2465 317,-2465 452,-2465 452,-2465 458,-2465 464,-2471 464,-2477 464,-2477 464,-2489 464,-2489 464,-2495 458,-2501 452,-2501"/>
<text text-anchor="middle" x="384.5" y="-2479.3" font-family="Times,serif" font-size="14.00">创建链接器定义的文件</text>
</g>
<!-- check_diag_errors&#45;&gt;create_linker_defined -->
<g id="edge6" class="edge">
<title>check_diag_errors&#45;&gt;create_linker_defined</title>
<path fill="none" stroke="black" d="M427.57,-2551.8C419.89,-2539.7 409.47,-2523.3 400.81,-2509.67"/>
<polygon fill="black" stroke="black" points="403.73,-2507.74 395.41,-2501.18 397.82,-2511.49 403.73,-2507.74"/>
<text text-anchor="middle" x="436" y="-2522.8" font-family="Times,serif" font-size="14.00">无错误</text>
</g>
<!-- end -->
<g id="node40" class="node">
<title>end</title>
<path fill="none" stroke="black" d="M280.5,-36C280.5,-36 250.5,-36 250.5,-36 244.5,-36 238.5,-30 238.5,-24 238.5,-24 238.5,-12 238.5,-12 238.5,-6 244.5,0 250.5,0 250.5,0 280.5,0 280.5,0 286.5,0 292.5,-6 292.5,-12 292.5,-12 292.5,-24 292.5,-24 292.5,-30 286.5,-36 280.5,-36"/>
<text text-anchor="middle" x="265.5" y="-14.3" font-family="Times,serif" font-size="14.00">结束</text>
</g>
<!-- check_diag_errors&#45;&gt;end -->
<g id="edge41" class="edge">
<title>check_diag_errors&#45;&gt;end</title>
<path fill="none" stroke="red" d="M457.34,-2551.71C472.57,-2535.77 491.5,-2510.61 491.5,-2484 491.5,-2484 491.5,-2484 491.5,-90 491.5,-50.94 367.11,-30.76 302.89,-22.94"/>
<polygon fill="red" stroke="red" points="303.1,-19.44 292.76,-21.75 302.28,-26.39 303.1,-19.44"/>
<text text-anchor="middle" x="520.5" y="-1283.3" font-family="Times,serif" font-size="14.00">存在错误</text>
</g>
<!-- resolve_symbols -->
<g id="node8" class="node">
<title>resolve_symbols</title>
<path fill="none" stroke="black" d="M409.5,-2428C409.5,-2428 359.5,-2428 359.5,-2428 353.5,-2428 347.5,-2422 347.5,-2416 347.5,-2416 347.5,-2404 347.5,-2404 347.5,-2398 353.5,-2392 359.5,-2392 359.5,-2392 409.5,-2392 409.5,-2392 415.5,-2392 421.5,-2398 421.5,-2404 421.5,-2404 421.5,-2416 421.5,-2416 421.5,-2422 415.5,-2428 409.5,-2428"/>
<text text-anchor="middle" x="384.5" y="-2406.3" font-family="Times,serif" font-size="14.00">解析符号</text>
</g>
<!-- create_linker_defined&#45;&gt;resolve_symbols -->
<g id="edge7" class="edge">
<title>create_linker_defined&#45;&gt;resolve_symbols</title>
<path fill="none" stroke="black" d="M384.5,-2464.81C384.5,-2456.79 384.5,-2447.05 384.5,-2438.07"/>
<polygon fill="black" stroke="black" points="388,-2438.03 384.5,-2428.03 381,-2438.03 388,-2438.03"/>
</g>
<!-- mark_eh_frame -->
<g id="node9" class="node">
<title>mark_eh_frame</title>
<path fill="none" stroke="black" d="M449,-2355C449,-2355 320,-2355 320,-2355 314,-2355 308,-2349 308,-2343 308,-2343 308,-2331 308,-2331 308,-2325 314,-2319 320,-2319 320,-2319 449,-2319 449,-2319 455,-2319 461,-2325 461,-2331 461,-2331 461,-2343 461,-2343 461,-2349 455,-2355 449,-2355"/>
<text text-anchor="middle" x="384.5" y="-2333.3" font-family="Times,serif" font-size="14.00">标记EH帧原子为死亡</text>
</g>
<!-- resolve_symbols&#45;&gt;mark_eh_frame -->
<g id="edge8" class="edge">
<title>resolve_symbols&#45;&gt;mark_eh_frame</title>
<path fill="none" stroke="black" d="M384.5,-2391.81C384.5,-2383.79 384.5,-2374.05 384.5,-2365.07"/>
<polygon fill="black" stroke="black" points="388,-2365.03 384.5,-2355.03 381,-2365.03 388,-2365.03"/>
</g>
<!-- resolve_merge_sections -->
<g id="node10" class="node">
<title>resolve_merge_sections</title>
<path fill="none" stroke="black" d="M416.5,-2282C416.5,-2282 352.5,-2282 352.5,-2282 346.5,-2282 340.5,-2276 340.5,-2270 340.5,-2270 340.5,-2258 340.5,-2258 340.5,-2252 346.5,-2246 352.5,-2246 352.5,-2246 416.5,-2246 416.5,-2246 422.5,-2246 428.5,-2252 428.5,-2258 428.5,-2258 428.5,-2270 428.5,-2270 428.5,-2276 422.5,-2282 416.5,-2282"/>
<text text-anchor="middle" x="384.5" y="-2260.3" font-family="Times,serif" font-size="14.00">解析合并段</text>
</g>
<!-- mark_eh_frame&#45;&gt;resolve_merge_sections -->
<g id="edge9" class="edge">
<title>mark_eh_frame&#45;&gt;resolve_merge_sections</title>
<path fill="none" stroke="black" d="M384.5,-2318.81C384.5,-2310.79 384.5,-2301.05 384.5,-2292.07"/>
<polygon fill="black" stroke="black" points="388,-2292.03 384.5,-2282.03 381,-2292.03 388,-2292.03"/>
</g>
<!-- convert_common_symbols -->
<g id="node11" class="node">
<title>convert_common_symbols</title>
<path fill="none" stroke="black" d="M423.5,-2209C423.5,-2209 345.5,-2209 345.5,-2209 339.5,-2209 333.5,-2203 333.5,-2197 333.5,-2197 333.5,-2185 333.5,-2185 333.5,-2179 339.5,-2173 345.5,-2173 345.5,-2173 423.5,-2173 423.5,-2173 429.5,-2173 435.5,-2179 435.5,-2185 435.5,-2185 435.5,-2197 435.5,-2197 435.5,-2203 429.5,-2209 423.5,-2209"/>
<text text-anchor="middle" x="384.5" y="-2187.3" font-family="Times,serif" font-size="14.00">转换通用符号</text>
</g>
<!-- resolve_merge_sections&#45;&gt;convert_common_symbols -->
<g id="edge10" class="edge">
<title>resolve_merge_sections&#45;&gt;convert_common_symbols</title>
<path fill="none" stroke="black" d="M384.5,-2245.81C384.5,-2237.79 384.5,-2228.05 384.5,-2219.07"/>
<polygon fill="black" stroke="black" points="388,-2219.03 384.5,-2209.03 381,-2219.03 388,-2219.03"/>
</g>
<!-- mark_imports_exports -->
<g id="node12" class="node">
<title>mark_imports_exports</title>
<path fill="none" stroke="black" d="M426,-2136C426,-2136 343,-2136 343,-2136 337,-2136 331,-2130 331,-2124 331,-2124 331,-2112 331,-2112 331,-2106 337,-2100 343,-2100 343,-2100 426,-2100 426,-2100 432,-2100 438,-2106 438,-2112 438,-2112 438,-2124 438,-2124 438,-2130 432,-2136 426,-2136"/>
<text text-anchor="middle" x="384.5" y="-2114.3" font-family="Times,serif" font-size="14.00">标记导入/导出</text>
</g>
<!-- convert_common_symbols&#45;&gt;mark_imports_exports -->
<g id="edge11" class="edge">
<title>convert_common_symbols&#45;&gt;mark_imports_exports</title>
<path fill="none" stroke="black" d="M384.5,-2172.81C384.5,-2164.79 384.5,-2155.05 384.5,-2146.07"/>
<polygon fill="black" stroke="black" points="388,-2146.03 384.5,-2136.03 381,-2146.03 388,-2146.03"/>
</g>
<!-- gc_sections -->
<g id="node13" class="node">
<title>gc_sections</title>
<path fill="none" stroke="black" d="M413,-2049C413,-2049 356,-2049 356,-2049 350,-2049 344,-2043 344,-2037 344,-2037 344,-2025 344,-2025 344,-2019 350,-2013 356,-2013 356,-2013 413,-2013 413,-2013 419,-2013 425,-2019 425,-2025 425,-2025 425,-2037 425,-2037 425,-2043 419,-2049 413,-2049"/>
<text text-anchor="middle" x="384.5" y="-2027.3" font-family="Times,serif" font-size="14.00">GC段处理</text>
</g>
<!-- mark_imports_exports&#45;&gt;gc_sections -->
<g id="edge12" class="edge">
<title>mark_imports_exports&#45;&gt;gc_sections</title>
<path fill="none" stroke="black" d="M384.5,-2099.8C384.5,-2088.16 384.5,-2072.55 384.5,-2059.24"/>
<polygon fill="black" stroke="black" points="388,-2059.18 384.5,-2049.18 381,-2059.18 388,-2059.18"/>
<text text-anchor="middle" x="410" y="-2070.8" font-family="Times,serif" font-size="14.00">启用GC</text>
</g>
<!-- check_duplicates -->
<g id="node14" class="node">
<title>check_duplicates</title>
<path fill="none" stroke="black" d="M416.5,-1976C416.5,-1976 352.5,-1976 352.5,-1976 346.5,-1976 340.5,-1970 340.5,-1964 340.5,-1964 340.5,-1952 340.5,-1952 340.5,-1946 346.5,-1940 352.5,-1940 352.5,-1940 416.5,-1940 416.5,-1940 422.5,-1940 428.5,-1946 428.5,-1952 428.5,-1952 428.5,-1964 428.5,-1964 428.5,-1970 422.5,-1976 416.5,-1976"/>
<text text-anchor="middle" x="384.5" y="-1954.3" font-family="Times,serif" font-size="14.00">检查重复项</text>
</g>
<!-- gc_sections&#45;&gt;check_duplicates -->
<g id="edge13" class="edge">
<title>gc_sections&#45;&gt;check_duplicates</title>
<path fill="none" stroke="black" d="M384.5,-2012.81C384.5,-2004.79 384.5,-1995.05 384.5,-1986.07"/>
<polygon fill="black" stroke="black" points="388,-1986.03 384.5,-1976.03 381,-1986.03 388,-1986.03"/>
</g>
<!-- add_comment -->
<g id="node15" class="node">
<title>add_comment</title>
<path fill="none" stroke="black" d="M363.5,-1903C363.5,-1903 271.5,-1903 271.5,-1903 265.5,-1903 259.5,-1897 259.5,-1891 259.5,-1891 259.5,-1879 259.5,-1879 259.5,-1873 265.5,-1867 271.5,-1867 271.5,-1867 363.5,-1867 363.5,-1867 369.5,-1867 375.5,-1873 375.5,-1879 375.5,-1879 375.5,-1891 375.5,-1891 375.5,-1897 369.5,-1903 363.5,-1903"/>
<text text-anchor="middle" x="317.5" y="-1881.3" font-family="Times,serif" font-size="14.00">添加注释字符串</text>
</g>
<!-- check_duplicates&#45;&gt;add_comment -->
<g id="edge14" class="edge">
<title>check_duplicates&#45;&gt;add_comment</title>
<path fill="none" stroke="black" d="M368.28,-1939.81C359.97,-1931 349.7,-1920.13 340.58,-1910.46"/>
<polygon fill="black" stroke="black" points="342.98,-1907.9 333.57,-1903.03 337.89,-1912.7 342.98,-1907.9"/>
</g>
<!-- check_duplicates&#45;&gt;end -->
<g id="edge42" class="edge">
<title>check_duplicates&#45;&gt;end</title>
<path fill="none" stroke="red" d="M392.56,-1939.91C398.48,-1925.78 405.5,-1905.02 405.5,-1886 405.5,-1886 405.5,-1886 405.5,-90 405.5,-43.9 344.37,-27.72 302.9,-22.05"/>
<polygon fill="red" stroke="red" points="303.18,-18.56 292.83,-20.83 302.33,-25.51 303.18,-18.56"/>
<text text-anchor="middle" x="434.5" y="-991.3" font-family="Times,serif" font-size="14.00">重复错误</text>
</g>
<!-- finalize_merge -->
<g id="node16" class="node">
<title>finalize_merge</title>
<path fill="none" stroke="black" d="M338.5,-1830C338.5,-1830 274.5,-1830 274.5,-1830 268.5,-1830 262.5,-1824 262.5,-1818 262.5,-1818 262.5,-1806 262.5,-1806 262.5,-1800 268.5,-1794 274.5,-1794 274.5,-1794 338.5,-1794 338.5,-1794 344.5,-1794 350.5,-1800 350.5,-1806 350.5,-1806 350.5,-1818 350.5,-1818 350.5,-1824 344.5,-1830 338.5,-1830"/>
<text text-anchor="middle" x="306.5" y="-1808.3" font-family="Times,serif" font-size="14.00">完成合并段</text>
</g>
<!-- add_comment&#45;&gt;finalize_merge -->
<g id="edge15" class="edge">
<title>add_comment&#45;&gt;finalize_merge</title>
<path fill="none" stroke="black" d="M314.84,-1866.81C313.59,-1858.79 312.08,-1849.05 310.69,-1840.07"/>
<polygon fill="black" stroke="black" points="314.13,-1839.38 309.14,-1830.03 307.21,-1840.45 314.13,-1839.38"/>
</g>
<!-- init_output_sections -->
<g id="node17" class="node">
<title>init_output_sections</title>
<path fill="none" stroke="black" d="M302.5,-1757C302.5,-1757 224.5,-1757 224.5,-1757 218.5,-1757 212.5,-1751 212.5,-1745 212.5,-1745 212.5,-1733 212.5,-1733 212.5,-1727 218.5,-1721 224.5,-1721 224.5,-1721 302.5,-1721 302.5,-1721 308.5,-1721 314.5,-1727 314.5,-1733 314.5,-1733 314.5,-1745 314.5,-1745 314.5,-1751 308.5,-1757 302.5,-1757"/>
<text text-anchor="middle" x="263.5" y="-1735.3" font-family="Times,serif" font-size="14.00">初始化输出段</text>
</g>
<!-- finalize_merge&#45;&gt;init_output_sections -->
<g id="edge16" class="edge">
<title>finalize_merge&#45;&gt;init_output_sections</title>
<path fill="none" stroke="black" d="M296.09,-1793.81C290.97,-1785.35 284.69,-1774.98 279.01,-1765.61"/>
<polygon fill="black" stroke="black" points="281.99,-1763.77 273.81,-1757.03 276,-1767.4 281.99,-1763.77"/>
</g>
<!-- init_start_stop -->
<g id="node18" class="node">
<title>init_start_stop</title>
<path fill="none" stroke="black" d="M324,-1670C324,-1670 199,-1670 199,-1670 193,-1670 187,-1664 187,-1658 187,-1658 187,-1646 187,-1646 187,-1640 193,-1634 199,-1634 199,-1634 324,-1634 324,-1634 330,-1634 336,-1640 336,-1646 336,-1646 336,-1658 336,-1658 336,-1664 330,-1670 324,-1670"/>
<text text-anchor="middle" x="261.5" y="-1648.3" font-family="Times,serif" font-size="14.00">初始化起始/终止符号</text>
</g>
<!-- init_output_sections&#45;&gt;init_start_stop -->
<g id="edge17" class="edge">
<title>init_output_sections&#45;&gt;init_start_stop</title>
<path fill="none" stroke="black" d="M262.98,-1720.91C262.82,-1715.21 262.64,-1708.83 262.5,-1703 262.32,-1695.65 262.15,-1687.7 262,-1680.34"/>
<polygon fill="black" stroke="black" points="265.5,-1680.06 261.81,-1670.13 258.5,-1680.19 265.5,-1680.06"/>
<text text-anchor="middle" x="327" y="-1691.8" font-family="Times,serif" font-size="14.00">存在链接器定义对象</text>
</g>
<!-- claim_unresolved -->
<g id="node19" class="node">
<title>claim_unresolved</title>
<path fill="none" stroke="black" d="M307.5,-1597C307.5,-1597 215.5,-1597 215.5,-1597 209.5,-1597 203.5,-1591 203.5,-1585 203.5,-1585 203.5,-1573 203.5,-1573 203.5,-1567 209.5,-1561 215.5,-1561 215.5,-1561 307.5,-1561 307.5,-1561 313.5,-1561 319.5,-1567 319.5,-1573 319.5,-1573 319.5,-1585 319.5,-1585 319.5,-1591 313.5,-1597 307.5,-1597"/>
<text text-anchor="middle" x="261.5" y="-1575.3" font-family="Times,serif" font-size="14.00">声明未解析符号</text>
</g>
<!-- init_start_stop&#45;&gt;claim_unresolved -->
<g id="edge18" class="edge">
<title>init_start_stop&#45;&gt;claim_unresolved</title>
<path fill="none" stroke="black" d="M261.5,-1633.81C261.5,-1625.79 261.5,-1616.05 261.5,-1607.07"/>
<polygon fill="black" stroke="black" points="265,-1607.03 261.5,-1597.03 258,-1607.03 265,-1607.03"/>
</g>
<!-- scan_relocs -->
<g id="node20" class="node">
<title>scan_relocs</title>
<path fill="none" stroke="black" d="M293.5,-1524C293.5,-1524 229.5,-1524 229.5,-1524 223.5,-1524 217.5,-1518 217.5,-1512 217.5,-1512 217.5,-1500 217.5,-1500 217.5,-1494 223.5,-1488 229.5,-1488 229.5,-1488 293.5,-1488 293.5,-1488 299.5,-1488 305.5,-1494 305.5,-1500 305.5,-1500 305.5,-1512 305.5,-1512 305.5,-1518 299.5,-1524 293.5,-1524"/>
<text text-anchor="middle" x="261.5" y="-1502.3" font-family="Times,serif" font-size="14.00">扫描重定位</text>
</g>
<!-- claim_unresolved&#45;&gt;scan_relocs -->
<g id="edge19" class="edge">
<title>claim_unresolved&#45;&gt;scan_relocs</title>
<path fill="none" stroke="black" d="M261.5,-1560.81C261.5,-1552.79 261.5,-1543.05 261.5,-1534.07"/>
<polygon fill="black" stroke="black" points="265,-1534.03 261.5,-1524.03 258,-1534.03 265,-1534.03"/>
</g>
<!-- init_synthetic -->
<g id="node21" class="node">
<title>init_synthetic</title>
<path fill="none" stroke="black" d="M300.5,-1451C300.5,-1451 222.5,-1451 222.5,-1451 216.5,-1451 210.5,-1445 210.5,-1439 210.5,-1439 210.5,-1427 210.5,-1427 210.5,-1421 216.5,-1415 222.5,-1415 222.5,-1415 300.5,-1415 300.5,-1415 306.5,-1415 312.5,-1421 312.5,-1427 312.5,-1427 312.5,-1439 312.5,-1439 312.5,-1445 306.5,-1451 300.5,-1451"/>
<text text-anchor="middle" x="261.5" y="-1429.3" font-family="Times,serif" font-size="14.00">初始化合成段</text>
</g>
<!-- scan_relocs&#45;&gt;init_synthetic -->
<g id="edge20" class="edge">
<title>scan_relocs&#45;&gt;init_synthetic</title>
<path fill="none" stroke="black" d="M261.5,-1487.81C261.5,-1479.79 261.5,-1470.05 261.5,-1461.07"/>
<polygon fill="black" stroke="black" points="265,-1461.03 261.5,-1451.03 258,-1461.03 265,-1461.03"/>
</g>
<!-- sort_shdrs -->
<g id="node22" class="node">
<title>sort_shdrs</title>
<path fill="none" stroke="black" d="M286.5,-1378C286.5,-1378 236.5,-1378 236.5,-1378 230.5,-1378 224.5,-1372 224.5,-1366 224.5,-1366 224.5,-1354 224.5,-1354 224.5,-1348 230.5,-1342 236.5,-1342 236.5,-1342 286.5,-1342 286.5,-1342 292.5,-1342 298.5,-1348 298.5,-1354 298.5,-1354 298.5,-1366 298.5,-1366 298.5,-1372 292.5,-1378 286.5,-1378"/>
<text text-anchor="middle" x="261.5" y="-1356.3" font-family="Times,serif" font-size="14.00">排序节头</text>
</g>
<!-- init_synthetic&#45;&gt;sort_shdrs -->
<g id="edge21" class="edge">
<title>init_synthetic&#45;&gt;sort_shdrs</title>
<path fill="none" stroke="black" d="M261.5,-1414.81C261.5,-1406.79 261.5,-1397.05 261.5,-1388.07"/>
<polygon fill="black" stroke="black" points="265,-1388.03 261.5,-1378.03 258,-1388.03 265,-1388.03"/>
</g>
<!-- dynamic_section -->
<g id="node23" class="node">
<title>dynamic_section</title>
<path fill="none" stroke="black" d="M293.5,-1305C293.5,-1305 229.5,-1305 229.5,-1305 223.5,-1305 217.5,-1299 217.5,-1293 217.5,-1293 217.5,-1281 217.5,-1281 217.5,-1275 223.5,-1269 229.5,-1269 229.5,-1269 293.5,-1269 293.5,-1269 299.5,-1269 305.5,-1275 305.5,-1281 305.5,-1281 305.5,-1293 305.5,-1293 305.5,-1299 299.5,-1305 293.5,-1305"/>
<text text-anchor="middle" x="261.5" y="-1283.3" font-family="Times,serif" font-size="14.00">设置动态段</text>
</g>
<!-- sort_shdrs&#45;&gt;dynamic_section -->
<g id="edge22" class="edge">
<title>sort_shdrs&#45;&gt;dynamic_section</title>
<path fill="none" stroke="black" d="M261.5,-1341.81C261.5,-1333.79 261.5,-1324.05 261.5,-1315.07"/>
<polygon fill="black" stroke="black" points="265,-1315.03 261.5,-1305.03 258,-1315.03 265,-1315.03"/>
</g>
<!-- sort_dynamic_symtab -->
<g id="node24" class="node">
<title>sort_dynamic_symtab</title>
<path fill="none" stroke="black" d="M307.5,-1232C307.5,-1232 215.5,-1232 215.5,-1232 209.5,-1232 203.5,-1226 203.5,-1220 203.5,-1220 203.5,-1208 203.5,-1208 203.5,-1202 209.5,-1196 215.5,-1196 215.5,-1196 307.5,-1196 307.5,-1196 313.5,-1196 319.5,-1202 319.5,-1208 319.5,-1208 319.5,-1220 319.5,-1220 319.5,-1226 313.5,-1232 307.5,-1232"/>
<text text-anchor="middle" x="261.5" y="-1210.3" font-family="Times,serif" font-size="14.00">排序动态符号表</text>
</g>
<!-- dynamic_section&#45;&gt;sort_dynamic_symtab -->
<g id="edge23" class="edge">
<title>dynamic_section&#45;&gt;sort_dynamic_symtab</title>
<path fill="none" stroke="black" d="M261.5,-1268.81C261.5,-1260.79 261.5,-1251.05 261.5,-1242.07"/>
<polygon fill="black" stroke="black" points="265,-1242.03 261.5,-1232.03 258,-1242.03 265,-1242.03"/>
</g>
<!-- set_hash_version -->
<g id="node25" class="node">
<title>set_hash_version</title>
<path fill="none" stroke="black" d="M315,-1159C315,-1159 208,-1159 208,-1159 202,-1159 196,-1153 196,-1147 196,-1147 196,-1135 196,-1135 196,-1129 202,-1123 208,-1123 208,-1123 315,-1123 315,-1123 321,-1123 327,-1129 327,-1135 327,-1135 327,-1147 327,-1147 327,-1153 321,-1159 315,-1159"/>
<text text-anchor="middle" x="261.5" y="-1137.3" font-family="Times,serif" font-size="14.00">设置哈希和版本段</text>
</g>
<!-- sort_dynamic_symtab&#45;&gt;set_hash_version -->
<g id="edge24" class="edge">
<title>sort_dynamic_symtab&#45;&gt;set_hash_version</title>
<path fill="none" stroke="black" d="M261.5,-1195.81C261.5,-1187.79 261.5,-1178.05 261.5,-1169.07"/>
<polygon fill="black" stroke="black" points="265,-1169.03 261.5,-1159.03 258,-1169.03 265,-1169.03"/>
</g>
<!-- sort_init_fini -->
<g id="node26" class="node">
<title>sort_init_fini</title>
<path fill="none" stroke="black" d="M302,-1086C302,-1086 221,-1086 221,-1086 215,-1086 209,-1080 209,-1074 209,-1074 209,-1062 209,-1062 209,-1056 215,-1050 221,-1050 221,-1050 302,-1050 302,-1050 308,-1050 314,-1056 314,-1062 314,-1062 314,-1074 314,-1074 314,-1080 308,-1086 302,-1086"/>
<text text-anchor="middle" x="261.5" y="-1064.3" font-family="Times,serif" font-size="14.00">排序.init/.fini</text>
</g>
<!-- set_hash_version&#45;&gt;sort_init_fini -->
<g id="edge25" class="edge">
<title>set_hash_version&#45;&gt;sort_init_fini</title>
<path fill="none" stroke="black" d="M261.5,-1122.81C261.5,-1114.79 261.5,-1105.05 261.5,-1096.07"/>
<polygon fill="black" stroke="black" points="265,-1096.03 261.5,-1086.03 258,-1096.03 265,-1096.03"/>
</g>
<!-- update_sections -->
<g id="node27" class="node">
<title>update_sections</title>
<path fill="none" stroke="black" d="M293.5,-1013C293.5,-1013 229.5,-1013 229.5,-1013 223.5,-1013 217.5,-1007 217.5,-1001 217.5,-1001 217.5,-989 217.5,-989 217.5,-983 223.5,-977 229.5,-977 229.5,-977 293.5,-977 293.5,-977 299.5,-977 305.5,-983 305.5,-989 305.5,-989 305.5,-1001 305.5,-1001 305.5,-1007 299.5,-1013 293.5,-1013"/>
<text text-anchor="middle" x="261.5" y="-991.3" font-family="Times,serif" font-size="14.00">更新段大小</text>
</g>
<!-- sort_init_fini&#45;&gt;update_sections -->
<g id="edge26" class="edge">
<title>sort_init_fini&#45;&gt;update_sections</title>
<path fill="none" stroke="black" d="M261.5,-1049.81C261.5,-1041.79 261.5,-1032.05 261.5,-1023.07"/>
<polygon fill="black" stroke="black" points="265,-1023.03 261.5,-1013.03 258,-1023.03 265,-1023.03"/>
</g>
<!-- allocate_phdrs -->
<g id="node28" class="node">
<title>allocate_phdrs</title>
<path fill="none" stroke="black" d="M293.5,-940C293.5,-940 229.5,-940 229.5,-940 223.5,-940 217.5,-934 217.5,-928 217.5,-928 217.5,-916 217.5,-916 217.5,-910 223.5,-904 229.5,-904 229.5,-904 293.5,-904 293.5,-904 299.5,-904 305.5,-910 305.5,-916 305.5,-916 305.5,-928 305.5,-928 305.5,-934 299.5,-940 293.5,-940"/>
<text text-anchor="middle" x="261.5" y="-918.3" font-family="Times,serif" font-size="14.00">分配程序头</text>
</g>
<!-- update_sections&#45;&gt;allocate_phdrs -->
<g id="edge27" class="edge">
<title>update_sections&#45;&gt;allocate_phdrs</title>
<path fill="none" stroke="black" d="M261.5,-976.81C261.5,-968.79 261.5,-959.05 261.5,-950.07"/>
<polygon fill="black" stroke="black" points="265,-950.03 261.5,-940.03 258,-950.03 265,-950.03"/>
</g>
<!-- allocate_sections -->
<g id="node29" class="node">
<title>allocate_sections</title>
<path fill="none" stroke="black" d="M279,-867C279,-867 244,-867 244,-867 238,-867 232,-861 232,-855 232,-855 232,-843 232,-843 232,-837 238,-831 244,-831 244,-831 279,-831 279,-831 285,-831 291,-837 291,-843 291,-843 291,-855 291,-855 291,-861 285,-867 279,-867"/>
<text text-anchor="middle" x="261.5" y="-845.3" font-family="Times,serif" font-size="14.00">分配段</text>
</g>
<!-- allocate_phdrs&#45;&gt;allocate_sections -->
<g id="edge28" class="edge">
<title>allocate_phdrs&#45;&gt;allocate_sections</title>
<path fill="none" stroke="black" d="M261.5,-903.81C261.5,-895.79 261.5,-886.05 261.5,-877.07"/>
<polygon fill="black" stroke="black" points="265,-877.03 261.5,-867.03 258,-877.03 265,-877.03"/>
</g>
<!-- sort_phdrs -->
<g id="node30" class="node">
<title>sort_phdrs</title>
<path fill="none" stroke="black" d="M293.5,-794C293.5,-794 229.5,-794 229.5,-794 223.5,-794 217.5,-788 217.5,-782 217.5,-782 217.5,-770 217.5,-770 217.5,-764 223.5,-758 229.5,-758 229.5,-758 293.5,-758 293.5,-758 299.5,-758 305.5,-764 305.5,-770 305.5,-770 305.5,-782 305.5,-782 305.5,-788 299.5,-794 293.5,-794"/>
<text text-anchor="middle" x="261.5" y="-772.3" font-family="Times,serif" font-size="14.00">排序程序头</text>
</g>
<!-- allocate_sections&#45;&gt;sort_phdrs -->
<g id="edge29" class="edge">
<title>allocate_sections&#45;&gt;sort_phdrs</title>
<path fill="none" stroke="black" d="M261.5,-830.81C261.5,-822.79 261.5,-813.05 261.5,-804.07"/>
<polygon fill="black" stroke="black" points="265,-804.03 261.5,-794.03 258,-804.03 265,-804.03"/>
</g>
<!-- allocate_special -->
<g id="node31" class="node">
<title>allocate_special</title>
<path fill="none" stroke="black" d="M307.5,-721C307.5,-721 215.5,-721 215.5,-721 209.5,-721 203.5,-715 203.5,-709 203.5,-709 203.5,-697 203.5,-697 203.5,-691 209.5,-685 215.5,-685 215.5,-685 307.5,-685 307.5,-685 313.5,-685 319.5,-691 319.5,-697 319.5,-697 319.5,-709 319.5,-709 319.5,-715 313.5,-721 307.5,-721"/>
<text text-anchor="middle" x="261.5" y="-699.3" font-family="Times,serif" font-size="14.00">分配特殊程序头</text>
</g>
<!-- sort_phdrs&#45;&gt;allocate_special -->
<g id="edge30" class="edge">
<title>sort_phdrs&#45;&gt;allocate_special</title>
<path fill="none" stroke="black" d="M261.5,-757.81C261.5,-749.79 261.5,-740.05 261.5,-731.07"/>
<polygon fill="black" stroke="black" points="265,-731.03 261.5,-721.03 258,-731.03 265,-731.03"/>
</g>
<!-- dump_state -->
<g id="node32" class="node">
<title>dump_state</title>
<path fill="none" stroke="black" d="M315,-634C315,-634 208,-634 208,-634 202,-634 196,-628 196,-622 196,-622 196,-610 196,-610 196,-604 202,-598 208,-598 208,-598 315,-598 315,-598 321,-598 327,-604 327,-610 327,-610 327,-622 327,-622 327,-628 321,-634 315,-634"/>
<text text-anchor="middle" x="261.5" y="-612.3" font-family="Times,serif" font-size="14.00">转储状态（调试）</text>
</g>
<!-- allocate_special&#45;&gt;dump_state -->
<g id="edge31" class="edge">
<title>allocate_special&#45;&gt;dump_state</title>
<path fill="none" stroke="black" d="M261.5,-684.8C261.5,-673.16 261.5,-657.55 261.5,-644.24"/>
<polygon fill="black" stroke="black" points="265,-644.18 261.5,-634.18 258,-644.18 265,-644.18"/>
<text text-anchor="middle" x="290.5" y="-655.8" font-family="Times,serif" font-size="14.00">调试模式</text>
</g>
<!-- prepare_relocs -->
<g id="node33" class="node">
<title>prepare_relocs</title>
<path fill="none" stroke="black" d="M293.5,-561C293.5,-561 229.5,-561 229.5,-561 223.5,-561 217.5,-555 217.5,-549 217.5,-549 217.5,-537 217.5,-537 217.5,-531 223.5,-525 229.5,-525 229.5,-525 293.5,-525 293.5,-525 299.5,-525 305.5,-531 305.5,-537 305.5,-537 305.5,-549 305.5,-549 305.5,-555 299.5,-561 293.5,-561"/>
<text text-anchor="middle" x="261.5" y="-539.3" font-family="Times,serif" font-size="14.00">准备重定位</text>
</g>
<!-- dump_state&#45;&gt;prepare_relocs -->
<g id="edge32" class="edge">
<title>dump_state&#45;&gt;prepare_relocs</title>
<path fill="none" stroke="black" d="M261.5,-597.81C261.5,-589.79 261.5,-580.05 261.5,-571.07"/>
<polygon fill="black" stroke="black" points="265,-571.03 261.5,-561.03 258,-571.03 265,-571.03"/>
</g>
<!-- resolve_write_code -->
<g id="node34" class="node">
<title>resolve_write_code</title>
<path fill="none" stroke="black" d="M307.5,-488C307.5,-488 215.5,-488 215.5,-488 209.5,-488 203.5,-482 203.5,-476 203.5,-476 203.5,-464 203.5,-464 203.5,-458 209.5,-452 215.5,-452 215.5,-452 307.5,-452 307.5,-452 313.5,-452 319.5,-458 319.5,-464 319.5,-464 319.5,-476 319.5,-476 319.5,-482 313.5,-488 307.5,-488"/>
<text text-anchor="middle" x="261.5" y="-466.3" font-family="Times,serif" font-size="14.00">解析并写入代码</text>
</g>
<!-- prepare_relocs&#45;&gt;resolve_write_code -->
<g id="edge33" class="edge">
<title>prepare_relocs&#45;&gt;resolve_write_code</title>
<path fill="none" stroke="black" d="M261.5,-524.81C261.5,-516.79 261.5,-507.05 261.5,-498.07"/>
<polygon fill="black" stroke="black" points="265,-498.03 261.5,-488.03 258,-498.03 265,-498.03"/>
</g>
<!-- write_phdr_shdr -->
<g id="node35" class="node">
<title>write_phdr_shdr</title>
<path fill="none" stroke="black" d="M265,-415C265,-415 144,-415 144,-415 138,-415 132,-409 132,-403 132,-403 132,-391 132,-391 132,-385 138,-379 144,-379 144,-379 265,-379 265,-379 271,-379 277,-385 277,-391 277,-391 277,-403 277,-403 277,-409 271,-415 265,-415"/>
<text text-anchor="middle" x="204.5" y="-393.3" font-family="Times,serif" font-size="14.00">写入程序头和节头表</text>
</g>
<!-- resolve_write_code&#45;&gt;write_phdr_shdr -->
<g id="edge34" class="edge">
<title>resolve_write_code&#45;&gt;write_phdr_shdr</title>
<path fill="none" stroke="black" d="M247.7,-451.81C240.77,-443.18 232.24,-432.56 224.6,-423.03"/>
<polygon fill="black" stroke="black" points="227.16,-420.64 218.17,-415.03 221.7,-425.02 227.16,-420.64"/>
</g>
<!-- resolve_write_code&#45;&gt;end -->
<g id="edge43" class="edge">
<title>resolve_write_code&#45;&gt;end</title>
<path fill="none" stroke="red" d="M279.65,-451.83C291.77,-438.46 305.5,-418.74 305.5,-398 305.5,-398 305.5,-398 305.5,-90 305.5,-73.45 297.14,-57.19 288.07,-44.42"/>
<polygon fill="red" stroke="red" points="290.62,-42 281.77,-36.18 285.06,-46.25 290.62,-42"/>
<text text-anchor="middle" x="341.5" y="-247.3" font-family="Times,serif" font-size="14.00">重定位错误</text>
</g>
<!-- write_atoms_merge -->
<g id="node36" class="node">
<title>write_atoms_merge</title>
<path fill="none" stroke="black" d="M258,-342C258,-342 151,-342 151,-342 145,-342 139,-336 139,-330 139,-330 139,-318 139,-318 139,-312 145,-306 151,-306 151,-306 258,-306 258,-306 264,-306 270,-312 270,-318 270,-318 270,-330 270,-330 270,-336 264,-342 258,-342"/>
<text text-anchor="middle" x="204.5" y="-320.3" font-family="Times,serif" font-size="14.00">写入原子和合并段</text>
</g>
<!-- write_phdr_shdr&#45;&gt;write_atoms_merge -->
<g id="edge35" class="edge">
<title>write_phdr_shdr&#45;&gt;write_atoms_merge</title>
<path fill="none" stroke="black" d="M204.5,-378.81C204.5,-370.79 204.5,-361.05 204.5,-352.07"/>
<polygon fill="black" stroke="black" points="208,-352.03 204.5,-342.03 201,-352.03 208,-352.03"/>
</g>
<!-- write_synthetic -->
<g id="node37" class="node">
<title>write_synthetic</title>
<path fill="none" stroke="black" d="M236.5,-269C236.5,-269 172.5,-269 172.5,-269 166.5,-269 160.5,-263 160.5,-257 160.5,-257 160.5,-245 160.5,-245 160.5,-239 166.5,-233 172.5,-233 172.5,-233 236.5,-233 236.5,-233 242.5,-233 248.5,-239 248.5,-245 248.5,-245 248.5,-257 248.5,-257 248.5,-263 242.5,-269 236.5,-269"/>
<text text-anchor="middle" x="204.5" y="-247.3" font-family="Times,serif" font-size="14.00">写入合成段</text>
</g>
<!-- write_atoms_merge&#45;&gt;write_synthetic -->
<g id="edge36" class="edge">
<title>write_atoms_merge&#45;&gt;write_synthetic</title>
<path fill="none" stroke="black" d="M204.5,-305.81C204.5,-297.79 204.5,-288.05 204.5,-279.07"/>
<polygon fill="black" stroke="black" points="208,-279.03 204.5,-269.03 201,-279.03 208,-279.03"/>
</g>
<!-- check_entry_point -->
<g id="node38" class="node">
<title>check_entry_point</title>
<path fill="none" stroke="black" d="M171.5,-196C171.5,-196 107.5,-196 107.5,-196 101.5,-196 95.5,-190 95.5,-184 95.5,-184 95.5,-172 95.5,-172 95.5,-166 101.5,-160 107.5,-160 107.5,-160 171.5,-160 171.5,-160 177.5,-160 183.5,-166 183.5,-172 183.5,-172 183.5,-184 183.5,-184 183.5,-190 177.5,-196 171.5,-196"/>
<text text-anchor="middle" x="139.5" y="-174.3" font-family="Times,serif" font-size="14.00">检查入口点</text>
</g>
<!-- write_synthetic&#45;&gt;check_entry_point -->
<g id="edge37" class="edge">
<title>write_synthetic&#45;&gt;check_entry_point</title>
<path fill="none" stroke="black" d="M188.77,-232.81C180.7,-224 170.74,-213.13 161.89,-203.46"/>
<polygon fill="black" stroke="black" points="164.42,-201.04 155.09,-196.03 159.26,-205.77 164.42,-201.04"/>
</g>
<!-- write_synthetic&#45;&gt;end -->
<g id="edge44" class="edge">
<title>write_synthetic&#45;&gt;end</title>
<path fill="none" stroke="red" d="M205.09,-232.6C206.24,-208.5 209.64,-163.78 219.5,-127 227.28,-97.98 241.36,-66.57 251.89,-45.14"/>
<polygon fill="red" stroke="red" points="255.1,-46.55 256.45,-36.05 248.84,-43.42 255.1,-46.55"/>
<text text-anchor="middle" x="255.5" y="-130.8" font-family="Times,serif" font-size="14.00">合成段错误</text>
</g>
<!-- write_elf_header -->
<g id="node39" class="node">
<title>write_elf_header</title>
<path fill="none" stroke="black" d="M91,-109C91,-109 12,-109 12,-109 6,-109 0,-103 0,-97 0,-97 0,-85 0,-85 0,-79 6,-73 12,-73 12,-73 91,-73 91,-73 97,-73 103,-79 103,-85 103,-85 103,-97 103,-97 103,-103 97,-109 91,-109"/>
<text text-anchor="middle" x="51.5" y="-87.3" font-family="Times,serif" font-size="14.00">写入ELF头部</text>
</g>
<!-- check_entry_point&#45;&gt;write_elf_header -->
<g id="edge38" class="edge">
<title>check_entry_point&#45;&gt;write_elf_header</title>
<path fill="none" stroke="black" d="M95.19,-169.29C79.44,-164.23 63.23,-155.85 53.5,-142 48.92,-135.47 47.36,-127.2 47.26,-119.27"/>
<polygon fill="black" stroke="black" points="50.76,-119.4 47.82,-109.22 43.77,-119.01 50.76,-119.4"/>
<text text-anchor="middle" x="89.5" y="-130.8" font-family="Times,serif" font-size="14.00">存在入口点</text>
</g>
<!-- check_entry_point&#45;&gt;end -->
<g id="edge39" class="edge">
<title>check_entry_point&#45;&gt;end</title>
<path fill="none" stroke="black" d="M137.16,-159.72C135.11,-137.48 134.88,-98.66 153.5,-73 171.29,-48.48 203.25,-34.61 228.48,-27.09"/>
<polygon fill="black" stroke="black" points="229.42,-30.46 238.13,-24.42 227.56,-23.71 229.42,-30.46"/>
<text text-anchor="middle" x="182.5" y="-87.3" font-family="Times,serif" font-size="14.00">无入口点</text>
</g>
<!-- write_elf_header&#45;&gt;end -->
<g id="edge40" class="edge">
<title>write_elf_header&#45;&gt;end</title>
<path fill="none" stroke="black" d="M82.92,-72.92C95.85,-66.37 111.13,-59.23 125.5,-54 159.57,-41.61 199.87,-32.04 228.46,-26.06"/>
<polygon fill="black" stroke="black" points="229.33,-29.46 238.43,-24.03 227.93,-22.6 229.33,-29.46"/>
</g>
</g>
</svg>
