<?xml version="1.0" encoding="UTF-8" standalone="no"?>
<!DOCTYPE svg PUBLIC "-//W3C//DTD SVG 1.1//EN"
 "http://www.w3.org/Graphics/SVG/1.1/DTD/svg11.dtd">
<!-- Generated by graphviz version 2.43.0 (0)
 -->
<!-- Title: flowchart Pages: 1 -->
<svg width="1256pt" height="698pt"
 viewBox="0.00 0.00 1255.50 698.00" xmlns="http://www.w3.org/2000/svg" xmlns:xlink="http://www.w3.org/1999/xlink">
<g id="graph0" class="graph" transform="scale(1 1) rotate(0) translate(4 694)">
<title>flowchart</title>
<polygon fill="white" stroke="transparent" points="-4,4 -4,-694 1251.5,-694 1251.5,4 -4,4"/>
<!-- start -->
<g id="node1" class="node">
<title>start</title>
<path fill="none" stroke="black" d="M562,-690C562,-690 369,-690 369,-690 363,-690 357,-684 357,-678 357,-678 357,-666 357,-666 357,-660 363,-654 369,-654 369,-654 562,-654 562,-654 568,-654 574,-660 574,-666 574,-666 574,-678 574,-678 574,-684 568,-690 562,-690"/>
<text text-anchor="middle" x="465.5" y="-668.3" font-family="Helvetica,sans-Serif" font-size="14.00">开始 emitInitMemoryFunction</text>
</g>
<!-- check_passive_inits -->
<g id="node2" class="node">
<title>check_passive_inits</title>
<path fill="none" stroke="black" d="M625.5,-617C625.5,-617 305.5,-617 305.5,-617 299.5,-617 293.5,-611 293.5,-605 293.5,-605 293.5,-593 293.5,-593 293.5,-587 299.5,-581 305.5,-581 305.5,-581 625.5,-581 625.5,-581 631.5,-581 637.5,-587 637.5,-593 637.5,-593 637.5,-605 637.5,-605 637.5,-611 631.5,-617 625.5,-617"/>
<text text-anchor="middle" x="465.5" y="-595.3" font-family="Helvetica,sans-Serif" font-size="14.00">检查存在被动段 (assert wasm.any_passive_inits)</text>
</g>
<!-- start&#45;&gt;check_passive_inits -->
<g id="edge1" class="edge">
<title>start&#45;&gt;check_passive_inits</title>
<path fill="none" stroke="black" d="M465.5,-653.81C465.5,-645.79 465.5,-636.05 465.5,-627.07"/>
<polygon fill="black" stroke="black" points="469,-627.03 465.5,-617.03 462,-627.03 469,-627.03"/>
</g>
<!-- handle_flag -->
<g id="node3" class="node">
<title>handle_flag</title>
<path fill="none" stroke="black" d="M251,-530C251,-530 12,-530 12,-530 6,-530 0,-524 0,-518 0,-518 0,-506 0,-506 0,-500 6,-494 12,-494 12,-494 251,-494 251,-494 257,-494 263,-500 263,-506 263,-506 263,-518 263,-518 263,-524 257,-530 251,-530"/>
<text text-anchor="middle" x="131.5" y="-508.3" font-family="Helvetica,sans-Serif" font-size="14.00">处理 virtual_addrs.init_memory_flag</text>
</g>
<!-- check_passive_inits&#45;&gt;handle_flag -->
<g id="edge2" class="edge">
<title>check_passive_inits&#45;&gt;handle_flag</title>
<path fill="none" stroke="black" d="M398.31,-580.9C343.39,-566.92 265.71,-547.16 208.33,-532.55"/>
<polygon fill="black" stroke="black" points="209.14,-529.15 198.58,-530.07 207.41,-535.93 209.14,-529.15"/>
<text text-anchor="middle" x="392.5" y="-551.8" font-family="Helvetica,sans-Serif" font-size="14.00">存在init_memory_flag</text>
</g>
<!-- process_segments -->
<g id="node7" class="node">
<title>process_segments</title>
<path fill="none" stroke="black" d="M906,-530C906,-530 697,-530 697,-530 691,-530 685,-524 685,-518 685,-518 685,-506 685,-506 685,-500 691,-494 697,-494 697,-494 906,-494 906,-494 912,-494 918,-500 918,-506 918,-506 918,-518 918,-518 918,-524 912,-530 906,-530"/>
<text text-anchor="middle" x="801.5" y="-508.3" font-family="Helvetica,sans-Serif" font-size="14.00">遍历数据段组 (segment_groups)</text>
</g>
<!-- check_passive_inits&#45;&gt;process_segments -->
<g id="edge3" class="edge">
<title>check_passive_inits&#45;&gt;process_segments</title>
<path fill="none" stroke="black" d="M533.09,-580.9C588.34,-566.92 666.48,-547.16 724.21,-532.55"/>
<polygon fill="black" stroke="black" points="725.18,-535.92 734.02,-530.07 723.46,-529.13 725.18,-535.92"/>
<text text-anchor="middle" x="696.5" y="-551.8" font-family="Helvetica,sans-Serif" font-size="14.00">跳过flag处理</text>
</g>
<!-- append_blocks -->
<g id="node4" class="node">
<title>append_blocks</title>
<path fill="none" stroke="black" d="M558,-530C558,-530 311,-530 311,-530 305,-530 299,-524 299,-518 299,-518 299,-506 299,-506 299,-500 305,-494 311,-494 311,-494 558,-494 558,-494 564,-494 570,-500 570,-506 570,-506 570,-518 570,-518 570,-524 564,-530 558,-530"/>
<text text-anchor="middle" x="434.5" y="-508.3" font-family="Helvetica,sans-Serif" font-size="14.00">追加块指令 (block $drop, $wait, $init)</text>
</g>
<!-- handle_flag&#45;&gt;append_blocks -->
<g id="edge4" class="edge">
<title>handle_flag&#45;&gt;append_blocks</title>
<path fill="none" stroke="black" d="M263.17,-512C271.75,-512 280.33,-512 288.91,-512"/>
<polygon fill="black" stroke="black" points="288.98,-515.5 298.98,-512 288.98,-508.5 288.98,-515.5"/>
</g>
<!-- drop_segments -->
<g id="node16" class="node">
<title>drop_segments</title>
<path fill="none" stroke="black" d="M471.5,-109C471.5,-109 323.5,-109 323.5,-109 317.5,-109 311.5,-103 311.5,-97 311.5,-97 311.5,-85 311.5,-85 311.5,-79 317.5,-73 323.5,-73 323.5,-73 471.5,-73 471.5,-73 477.5,-73 483.5,-79 483.5,-85 483.5,-85 483.5,-97 483.5,-97 483.5,-103 477.5,-109 471.5,-109"/>
<text text-anchor="middle" x="397.5" y="-87.3" font-family="Helvetica,sans-Serif" font-size="14.00">丢弃被动段 (data_drop)</text>
</g>
<!-- handle_flag&#45;&gt;drop_segments -->
<g id="edge22" class="edge">
<title>handle_flag&#45;&gt;drop_segments</title>
<path fill="none" stroke="black" d="M131.5,-493.74C131.5,-476.57 131.5,-449.46 131.5,-426 131.5,-426 131.5,-426 131.5,-163 131.5,-126.75 224.89,-108.53 301,-99.7"/>
<polygon fill="black" stroke="black" points="301.59,-103.16 311.14,-98.57 300.81,-96.2 301.59,-103.16"/>
<text text-anchor="middle" x="198.5" y="-290.8" font-family="Helvetica,sans-Serif" font-size="14.00">无init_memory_flag</text>
</g>
<!-- atomic_cmpxchg -->
<g id="node5" class="node">
<title>atomic_cmpxchg</title>
<path fill="none" stroke="black" d="M538.5,-443C538.5,-443 206.5,-443 206.5,-443 200.5,-443 194.5,-437 194.5,-431 194.5,-431 194.5,-419 194.5,-419 194.5,-413 200.5,-407 206.5,-407 206.5,-407 538.5,-407 538.5,-407 544.5,-407 550.5,-413 550.5,-419 550.5,-419 550.5,-431 550.5,-431 550.5,-437 544.5,-443 538.5,-443"/>
<text text-anchor="middle" x="372.5" y="-421.3" font-family="Helvetica,sans-Serif" font-size="14.00">生成原子比较交换指令 (i32_atomic_rmw_cmpxchg)</text>
</g>
<!-- append_blocks&#45;&gt;atomic_cmpxchg -->
<g id="edge5" class="edge">
<title>append_blocks&#45;&gt;atomic_cmpxchg</title>
<path fill="none" stroke="black" d="M421.95,-493.8C413.05,-481.59 400.94,-464.99 390.94,-451.28"/>
<polygon fill="black" stroke="black" points="393.75,-449.19 385.03,-443.18 388.09,-453.32 393.75,-449.19"/>
</g>
<!-- br_table -->
<g id="node6" class="node">
<title>br_table</title>
<path fill="none" stroke="black" d="M533.5,-356C533.5,-356 171.5,-356 171.5,-356 165.5,-356 159.5,-350 159.5,-344 159.5,-344 159.5,-332 159.5,-332 159.5,-326 165.5,-320 171.5,-320 171.5,-320 533.5,-320 533.5,-320 539.5,-320 545.5,-326 545.5,-332 545.5,-332 545.5,-344 545.5,-344 545.5,-350 539.5,-356 533.5,-356"/>
<text text-anchor="middle" x="352.5" y="-334.3" font-family="Helvetica,sans-Serif" font-size="14.00">生成分支表 (br_table 根据结果跳转到 $init/$wait/$drop)</text>
</g>
<!-- atomic_cmpxchg&#45;&gt;br_table -->
<g id="edge6" class="edge">
<title>atomic_cmpxchg&#45;&gt;br_table</title>
<path fill="none" stroke="black" d="M368.45,-406.8C365.71,-395.16 362.04,-379.55 358.91,-366.24"/>
<polygon fill="black" stroke="black" points="362.24,-365.11 356.54,-356.18 355.42,-366.71 362.24,-365.11"/>
</g>
<!-- br_table&#45;&gt;process_segments -->
<g id="edge7" class="edge">
<title>br_table&#45;&gt;process_segments</title>
<path fill="none" stroke="black" d="M518.58,-356.02C631.26,-369.12 763.17,-388.12 782.5,-407 802.66,-426.68 805.47,-460.15 804.5,-483.8"/>
<polygon fill="black" stroke="black" points="801,-483.68 803.83,-493.88 807.98,-484.14 801,-483.68"/>
</g>
<!-- segment_condition -->
<g id="node8" class="node">
<title>segment_condition</title>
<path fill="none" stroke="black" d="M1007,-443C1007,-443 880,-443 880,-443 874,-443 868,-437 868,-431 868,-431 868,-419 868,-419 868,-413 874,-407 880,-407 880,-407 1007,-407 1007,-407 1013,-407 1019,-413 1019,-419 1019,-419 1019,-431 1019,-431 1019,-437 1013,-443 1007,-443"/>
<text text-anchor="middle" x="943.5" y="-421.3" font-family="Helvetica,sans-Serif" font-size="14.00">段是被动段且非BSS?</text>
</g>
<!-- process_segments&#45;&gt;segment_condition -->
<g id="edge8" class="edge">
<title>process_segments&#45;&gt;segment_condition</title>
<path fill="none" stroke="black" d="M830.24,-493.8C852.08,-480.72 882.32,-462.62 906.06,-448.41"/>
<polygon fill="black" stroke="black" points="908.02,-451.31 914.81,-443.18 904.43,-445.31 908.02,-451.31"/>
</g>
<!-- post_flag_handling -->
<g id="node12" class="node">
<title>post_flag_handling</title>
<path fill="none" stroke="black" d="M761,-443C761,-443 588,-443 588,-443 582,-443 576,-437 576,-431 576,-431 576,-419 576,-419 576,-413 582,-407 588,-407 588,-407 761,-407 761,-407 767,-407 773,-413 773,-419 773,-419 773,-431 773,-431 773,-437 767,-443 761,-443"/>
<text text-anchor="middle" x="674.5" y="-421.3" font-family="Helvetica,sans-Serif" font-size="14.00">设置标志为2并通知等待线程</text>
</g>
<!-- process_segments&#45;&gt;post_flag_handling -->
<g id="edge17" class="edge">
<title>process_segments&#45;&gt;post_flag_handling</title>
<path fill="none" stroke="black" d="M761.14,-493.88C750.51,-488.71 739.28,-482.62 729.5,-476 718.48,-468.54 707.41,-458.98 698.13,-450.21"/>
<polygon fill="black" stroke="black" points="700.4,-447.55 690.78,-443.11 695.53,-452.58 700.4,-447.55"/>
<text text-anchor="middle" x="758.5" y="-464.8" font-family="Helvetica,sans-Serif" font-size="14.00">循环结束</text>
</g>
<!-- handle_bss -->
<g id="node9" class="node">
<title>handle_bss</title>
<path fill="none" stroke="black" d="M1000.5,-356C1000.5,-356 880.5,-356 880.5,-356 874.5,-356 868.5,-350 868.5,-344 868.5,-344 868.5,-332 868.5,-332 868.5,-326 874.5,-320 880.5,-320 880.5,-320 1000.5,-320 1000.5,-320 1006.5,-320 1012.5,-326 1012.5,-332 1012.5,-332 1012.5,-344 1012.5,-344 1012.5,-350 1006.5,-356 1000.5,-356"/>
<text text-anchor="middle" x="940.5" y="-334.3" font-family="Helvetica,sans-Serif" font-size="14.00">生成 memory.fill(0)</text>
</g>
<!-- segment_condition&#45;&gt;handle_bss -->
<g id="edge9" class="edge">
<title>segment_condition&#45;&gt;handle_bss</title>
<path fill="none" stroke="black" d="M942.89,-406.8C942.48,-395.16 941.93,-379.55 941.46,-366.24"/>
<polygon fill="black" stroke="black" points="944.96,-366.05 941.11,-356.18 937.96,-366.29 944.96,-366.05"/>
<text text-anchor="middle" x="969.5" y="-377.8" font-family="Helvetica,sans-Serif" font-size="14.00">是BSS段</text>
</g>
<!-- handle_nonbss -->
<g id="node10" class="node">
<title>handle_nonbss</title>
<path fill="none" stroke="black" d="M1154.5,-356C1154.5,-356 1048.5,-356 1048.5,-356 1042.5,-356 1036.5,-350 1036.5,-344 1036.5,-344 1036.5,-332 1036.5,-332 1036.5,-326 1042.5,-320 1048.5,-320 1048.5,-320 1154.5,-320 1154.5,-320 1160.5,-320 1166.5,-326 1166.5,-332 1166.5,-332 1166.5,-344 1166.5,-344 1166.5,-350 1160.5,-356 1154.5,-356"/>
<text text-anchor="middle" x="1101.5" y="-334.3" font-family="Helvetica,sans-Serif" font-size="14.00">生成 memory.init</text>
</g>
<!-- segment_condition&#45;&gt;handle_nonbss -->
<g id="edge10" class="edge">
<title>segment_condition&#45;&gt;handle_nonbss</title>
<path fill="none" stroke="black" d="M975.47,-406.8C1000.08,-393.56 1034.24,-375.18 1060.8,-360.9"/>
<polygon fill="black" stroke="black" points="1062.7,-363.85 1069.84,-356.03 1059.38,-357.69 1062.7,-363.85"/>
<text text-anchor="middle" x="1059.5" y="-377.8" font-family="Helvetica,sans-Serif" font-size="14.00">非BSS段</text>
</g>
<!-- check_tls -->
<g id="node18" class="node">
<title>check_tls</title>
<path fill="none" stroke="black" d="M1050.5,-269C1050.5,-269 994.5,-269 994.5,-269 988.5,-269 982.5,-263 982.5,-257 982.5,-257 982.5,-245 982.5,-245 982.5,-239 988.5,-233 994.5,-233 994.5,-233 1050.5,-233 1050.5,-233 1056.5,-233 1062.5,-239 1062.5,-245 1062.5,-245 1062.5,-257 1062.5,-257 1062.5,-263 1056.5,-269 1050.5,-269"/>
<text text-anchor="middle" x="1022.5" y="-247.3" font-family="Helvetica,sans-Serif" font-size="14.00">check_tls</text>
</g>
<!-- handle_bss&#45;&gt;check_tls -->
<g id="edge11" class="edge">
<title>handle_bss&#45;&gt;check_tls</title>
<path fill="none" stroke="black" d="M929.31,-319.54C924.29,-309.31 920.83,-296.56 927.5,-287 937.84,-272.18 955.2,-263.61 972.27,-258.67"/>
<polygon fill="black" stroke="black" points="973.39,-262 982.23,-256.17 971.68,-255.21 973.39,-262"/>
<text text-anchor="middle" x="1004.5" y="-290.8" font-family="Helvetica,sans-Serif" font-size="14.00">如果是共享内存且TLS段</text>
</g>
<!-- handle_nonbss&#45;&gt;check_tls -->
<g id="edge12" class="edge">
<title>handle_nonbss&#45;&gt;check_tls</title>
<path fill="none" stroke="black" d="M1099.24,-319.72C1097.14,-309.31 1093.13,-296.3 1085.5,-287 1081.44,-282.05 1076.48,-277.68 1071.15,-273.85"/>
<polygon fill="black" stroke="black" points="1072.84,-270.77 1062.54,-268.29 1069.04,-276.65 1072.84,-270.77"/>
<text text-anchor="middle" x="1170.5" y="-290.8" font-family="Helvetica,sans-Serif" font-size="14.00">如果是共享内存且TLS段</text>
</g>
<!-- set_tls_base -->
<g id="node11" class="node">
<title>set_tls_base</title>
<path fill="none" stroke="black" d="M1037,-182C1037,-182 880,-182 880,-182 874,-182 868,-176 868,-170 868,-170 868,-158 868,-158 868,-152 874,-146 880,-146 880,-146 1037,-146 1037,-146 1043,-146 1049,-152 1049,-158 1049,-158 1049,-170 1049,-170 1049,-176 1043,-182 1037,-182"/>
<text text-anchor="middle" x="958.5" y="-160.3" font-family="Helvetica,sans-Serif" font-size="14.00">设置 __tls_base 全局变量</text>
</g>
<!-- next_segment -->
<g id="node19" class="node">
<title>next_segment</title>
<ellipse fill="black" stroke="black" cx="958.5" cy="-91" rx="7.2" ry="7.2"/>
</g>
<!-- set_tls_base&#45;&gt;next_segment -->
<g id="edge15" class="edge">
<title>set_tls_base&#45;&gt;next_segment</title>
<path fill="none" stroke="black" d="M958.5,-145.81C958.5,-134.48 958.5,-119.72 958.5,-108.53"/>
<polygon fill="black" stroke="black" points="962,-108.45 958.5,-98.45 955,-108.45 962,-108.45"/>
</g>
<!-- atomic_store -->
<g id="node13" class="node">
<title>atomic_store</title>
<path fill="none" stroke="black" d="M799.5,-356C799.5,-356 575.5,-356 575.5,-356 569.5,-356 563.5,-350 563.5,-344 563.5,-344 563.5,-332 563.5,-332 563.5,-326 569.5,-320 575.5,-320 575.5,-320 799.5,-320 799.5,-320 805.5,-320 811.5,-326 811.5,-332 811.5,-332 811.5,-344 811.5,-344 811.5,-350 805.5,-356 799.5,-356"/>
<text text-anchor="middle" x="687.5" y="-334.3" font-family="Helvetica,sans-Serif" font-size="14.00">原子存储标志值 (i32_atomic_store)</text>
</g>
<!-- post_flag_handling&#45;&gt;atomic_store -->
<g id="edge18" class="edge">
<title>post_flag_handling&#45;&gt;atomic_store</title>
<path fill="none" stroke="black" d="M677.13,-406.8C678.91,-395.16 681.3,-379.55 683.33,-366.24"/>
<polygon fill="black" stroke="black" points="686.82,-366.59 684.87,-356.18 679.9,-365.53 686.82,-366.59"/>
</g>
<!-- notify_waiters -->
<g id="node14" class="node">
<title>notify_waiters</title>
<path fill="none" stroke="black" d="M750,-269C750,-269 529,-269 529,-269 523,-269 517,-263 517,-257 517,-257 517,-245 517,-245 517,-239 523,-233 529,-233 529,-233 750,-233 750,-233 756,-233 762,-239 762,-245 762,-245 762,-257 762,-257 762,-263 756,-269 750,-269"/>
<text text-anchor="middle" x="639.5" y="-247.3" font-family="Helvetica,sans-Serif" font-size="14.00">发送通知 (memory_atomic_notify)</text>
</g>
<!-- atomic_store&#45;&gt;notify_waiters -->
<g id="edge19" class="edge">
<title>atomic_store&#45;&gt;notify_waiters</title>
<path fill="none" stroke="black" d="M677.79,-319.8C671.02,-307.82 661.87,-291.62 654.21,-278.06"/>
<polygon fill="black" stroke="black" points="657.16,-276.16 649.2,-269.18 651.07,-279.6 657.16,-276.16"/>
</g>
<!-- wait_loop -->
<g id="node15" class="node">
<title>wait_loop</title>
<path fill="none" stroke="black" d="M666.5,-182C666.5,-182 394.5,-182 394.5,-182 388.5,-182 382.5,-176 382.5,-170 382.5,-170 382.5,-158 382.5,-158 382.5,-152 388.5,-146 394.5,-146 394.5,-146 666.5,-146 666.5,-146 672.5,-146 678.5,-152 678.5,-158 678.5,-158 678.5,-170 678.5,-170 678.5,-176 672.5,-182 666.5,-182"/>
<text text-anchor="middle" x="530.5" y="-160.3" font-family="Helvetica,sans-Serif" font-size="14.00">等待初始化完成 (memory_atomic_wait32)</text>
</g>
<!-- notify_waiters&#45;&gt;wait_loop -->
<g id="edge20" class="edge">
<title>notify_waiters&#45;&gt;wait_loop</title>
<path fill="none" stroke="black" d="M617.44,-232.8C601.04,-220.01 578.48,-202.42 560.45,-188.36"/>
<polygon fill="black" stroke="black" points="562.56,-185.56 552.52,-182.18 558.26,-191.08 562.56,-185.56"/>
</g>
<!-- wait_loop&#45;&gt;drop_segments -->
<g id="edge21" class="edge">
<title>wait_loop&#45;&gt;drop_segments</title>
<path fill="none" stroke="black" d="M498.64,-145.99C480.6,-136.36 457.83,-124.21 438.47,-113.87"/>
<polygon fill="black" stroke="black" points="440.03,-110.74 429.56,-109.11 436.73,-116.91 440.03,-110.74"/>
</g>
<!-- end_function -->
<g id="node17" class="node">
<title>end_function</title>
<path fill="none" stroke="black" d="M450,-36C450,-36 345,-36 345,-36 339,-36 333,-30 333,-24 333,-24 333,-12 333,-12 333,-6 339,0 345,0 345,0 450,0 450,0 456,0 462,-6 462,-12 462,-12 462,-24 462,-24 462,-30 456,-36 450,-36"/>
<text text-anchor="middle" x="397.5" y="-14.3" font-family="Helvetica,sans-Serif" font-size="14.00">结束函数体 (end)</text>
</g>
<!-- drop_segments&#45;&gt;end_function -->
<g id="edge23" class="edge">
<title>drop_segments&#45;&gt;end_function</title>
<path fill="none" stroke="black" d="M397.5,-72.81C397.5,-64.79 397.5,-55.05 397.5,-46.07"/>
<polygon fill="black" stroke="black" points="401,-46.03 397.5,-36.03 394,-46.03 401,-46.03"/>
</g>
<!-- check_tls&#45;&gt;set_tls_base -->
<g id="edge13" class="edge">
<title>check_tls&#45;&gt;set_tls_base</title>
<path fill="none" stroke="black" d="M1009.55,-232.8C1000.35,-220.59 987.86,-203.99 977.53,-190.28"/>
<polygon fill="black" stroke="black" points="980.24,-188.06 971.43,-182.18 974.65,-192.27 980.24,-188.06"/>
<text text-anchor="middle" x="1020.5" y="-203.8" font-family="Helvetica,sans-Serif" font-size="14.00">是TLS段</text>
</g>
<!-- check_tls&#45;&gt;next_segment -->
<g id="edge14" class="edge">
<title>check_tls&#45;&gt;next_segment</title>
<path fill="none" stroke="black" d="M1039.67,-232.64C1044.1,-227.34 1048.48,-221.25 1051.5,-215 1064.92,-187.25 1074.29,-172.47 1058.5,-146 1040.43,-115.71 998.84,-101.39 975.39,-95.51"/>
<polygon fill="black" stroke="black" points="976.04,-92.07 965.51,-93.27 974.49,-98.89 976.04,-92.07"/>
<text text-anchor="middle" x="1093.5" y="-160.3" font-family="Helvetica,sans-Serif" font-size="14.00">非TLS段</text>
</g>
<!-- next_segment&#45;&gt;process_segments -->
<g id="edge16" class="edge">
<title>next_segment&#45;&gt;process_segments</title>
<path fill="none" stroke="black" d="M951.41,-92.76C925.79,-95.94 839.5,-110.55 839.5,-163 839.5,-426 839.5,-426 839.5,-426 839.5,-447.08 829.64,-468.74 819.96,-484.92"/>
<polygon fill="black" stroke="black" points="816.76,-483.44 814.37,-493.77 822.67,-487.19 816.76,-483.44"/>
<text text-anchor="middle" x="868.5" y="-290.8" font-family="Helvetica,sans-Serif" font-size="14.00">继续循环</text>
</g>
</g>
</svg>
