<?xml version="1.0" encoding="UTF-8" standalone="no"?>
<!DOCTYPE svg PUBLIC "-//W3C//DTD SVG 1.1//EN"
 "http://www.w3.org/Graphics/SVG/1.1/DTD/svg11.dtd">
<!-- Generated by graphviz version 2.43.0 (0)
 -->
<!-- Title: parse_flowchart Pages: 1 -->
<svg width="1130pt" height="1234pt"
 viewBox="0.00 0.00 1130.00 1234.00" xmlns="http://www.w3.org/2000/svg" xmlns:xlink="http://www.w3.org/1999/xlink">
<g id="graph0" class="graph" transform="scale(1 1) rotate(0) translate(4 1230)">
<title>parse_flowchart</title>
<polygon fill="white" stroke="transparent" points="-4,4 -4,-1230 1126,-1230 1126,4 -4,4"/>
<!-- start -->
<g id="node1" class="node">
<title>start</title>
<path fill="none" stroke="black" d="M866,-1226C866,-1226 770,-1226 770,-1226 764,-1226 758,-1220 758,-1214 758,-1214 758,-1202 758,-1202 758,-1196 764,-1190 770,-1190 770,-1190 866,-1190 866,-1190 872,-1190 878,-1196 878,-1202 878,-1202 878,-1214 878,-1214 878,-1220 872,-1226 866,-1226"/>
<text text-anchor="middle" x="818" y="-1204.3" font-family="Times,serif" font-size="14.00">开始解析Object</text>
</g>
<!-- init_log -->
<g id="node2" class="node">
<title>init_log</title>
<path fill="none" stroke="black" d="M877.5,-1153C877.5,-1153 758.5,-1153 758.5,-1153 752.5,-1153 746.5,-1147 746.5,-1141 746.5,-1141 746.5,-1112 746.5,-1112 746.5,-1106 752.5,-1100 758.5,-1100 758.5,-1100 877.5,-1100 877.5,-1100 883.5,-1100 889.5,-1106 889.5,-1112 889.5,-1112 889.5,-1141 889.5,-1141 889.5,-1147 883.5,-1153 877.5,-1153"/>
<text text-anchor="middle" x="818" y="-1137.8" font-family="Times,serif" font-size="14.00">初始化日志记录</text>
<text text-anchor="middle" x="818" y="-1122.8" font-family="Times,serif" font-size="14.00">分配内存</text>
<text text-anchor="middle" x="818" y="-1107.8" font-family="Times,serif" font-size="14.00">读取Mach&#45;O文件头</text>
</g>
<!-- start&#45;&gt;init_log -->
<g id="edge1" class="edge">
<title>start&#45;&gt;init_log</title>
<path fill="none" stroke="black" d="M818,-1189.75C818,-1181.99 818,-1172.51 818,-1163.32"/>
<polygon fill="black" stroke="black" points="818,-1153.18 822.5,-1163.18 818,-1158.18 818,-1163.18 818,-1163.18 818,-1163.18 818,-1158.18 813.5,-1163.18 818,-1153.18 818,-1153.18"/>
</g>
<!-- check_cpu -->
<g id="node3" class="node">
<title>check_cpu</title>
<path fill="none" stroke="black" d="M873,-1063C873,-1063 763,-1063 763,-1063 757,-1063 751,-1057 751,-1051 751,-1051 751,-1039 751,-1039 751,-1033 757,-1027 763,-1027 763,-1027 873,-1027 873,-1027 879,-1027 885,-1033 885,-1039 885,-1039 885,-1051 885,-1051 885,-1057 879,-1063 873,-1063"/>
<text text-anchor="middle" x="818" y="-1041.3" font-family="Times,serif" font-size="14.00">验证CPU架构匹配</text>
</g>
<!-- init_log&#45;&gt;check_cpu -->
<g id="edge2" class="edge">
<title>init_log&#45;&gt;check_cpu</title>
<path fill="none" stroke="black" d="M818,-1099.91C818,-1091.48 818,-1082.08 818,-1073.52"/>
<polygon fill="black" stroke="black" points="818,-1063.26 822.5,-1073.26 818,-1068.26 818,-1073.26 818,-1073.26 818,-1073.26 818,-1068.26 813.5,-1073.26 818,-1063.26 818,-1063.26"/>
</g>
<!-- process_lc -->
<g id="node4" class="node">
<title>process_lc</title>
<path fill="none" stroke="black" d="M621.5,-976C621.5,-976 514.5,-976 514.5,-976 508.5,-976 502.5,-970 502.5,-964 502.5,-964 502.5,-952 502.5,-952 502.5,-946 508.5,-940 514.5,-940 514.5,-940 621.5,-940 621.5,-940 627.5,-940 633.5,-946 633.5,-952 633.5,-952 633.5,-964 633.5,-964 633.5,-970 627.5,-976 621.5,-976"/>
<text text-anchor="middle" x="568" y="-954.3" font-family="Times,serif" font-size="14.00">遍历处理加载命令</text>
</g>
<!-- check_cpu&#45;&gt;process_lc -->
<g id="edge3" class="edge">
<title>check_cpu&#45;&gt;process_lc</title>
<path fill="none" stroke="black" d="M767.71,-1026.9C727.36,-1013.18 670.62,-993.89 627.92,-979.37"/>
<polygon fill="black" stroke="black" points="618.21,-976.07 629.13,-975.03 622.94,-977.68 627.68,-979.29 627.68,-979.29 627.68,-979.29 622.94,-977.68 626.23,-983.55 618.21,-976.07 618.21,-976.07"/>
<text text-anchor="middle" x="751" y="-997.8" font-family="Times,serif" font-size="14.00">架构验证通过</text>
</g>
<!-- end -->
<g id="node20" class="node">
<title>end</title>
<path fill="none" stroke="black" d="M911,-36C911,-36 861,-36 861,-36 855,-36 849,-30 849,-24 849,-24 849,-12 849,-12 849,-6 855,0 861,0 861,0 911,0 911,0 917,0 923,-6 923,-12 923,-12 923,-24 923,-24 923,-30 917,-36 911,-36"/>
<text text-anchor="middle" x="886" y="-14.3" font-family="Times,serif" font-size="14.00">结束解析</text>
</g>
<!-- check_cpu&#45;&gt;end -->
<g id="edge25" class="edge">
<title>check_cpu&#45;&gt;end</title>
<path fill="none" stroke="red" d="M885.1,-1032.83C953.62,-1019.47 1050,-994.39 1050,-959 1050,-959 1050,-959 1050,-90 1050,-38.73 981.67,-24.07 933.22,-20.11"/>
<polygon fill="red" stroke="red" points="923.21,-19.42 933.5,-15.62 928.2,-19.77 933.19,-20.11 933.19,-20.11 933.19,-20.11 928.2,-19.77 932.88,-24.6 923.21,-19.42 923.21,-19.42"/>
<text text-anchor="middle" x="1086" y="-511.8" font-family="Times,serif" font-size="14.00">架构不匹配</text>
</g>
<!-- handle_segment -->
<g id="node5" class="node">
<title>handle_segment</title>
<path fill="none" stroke="black" d="M164,-889C164,-889 12,-889 12,-889 6,-889 0,-883 0,-877 0,-877 0,-863 0,-863 0,-857 6,-851 12,-851 12,-851 164,-851 164,-851 170,-851 176,-857 176,-863 176,-863 176,-877 176,-877 176,-883 170,-889 164,-889"/>
<text text-anchor="middle" x="88" y="-873.8" font-family="Times,serif" font-size="14.00">处理SEGMENT_64命令</text>
<text text-anchor="middle" x="88" y="-858.8" font-family="Times,serif" font-size="14.00">初始化sections</text>
</g>
<!-- process_lc&#45;&gt;handle_segment -->
<g id="edge4" class="edge">
<title>process_lc&#45;&gt;handle_segment</title>
<path fill="none" stroke="black" d="M502.18,-957.12C376,-956.67 110.02,-952.11 82,-922 76.3,-915.88 75.59,-907.39 76.97,-899.09"/>
<polygon fill="black" stroke="black" points="79.5,-889.24 81.37,-900.05 78.25,-894.08 77.01,-898.93 77.01,-898.93 77.01,-898.93 78.25,-894.08 72.65,-897.81 79.5,-889.24 79.5,-889.24"/>
<text text-anchor="middle" x="133.5" y="-910.8" font-family="Times,serif" font-size="14.00">SEGMENT_64</text>
</g>
<!-- handle_symtab -->
<g id="node6" class="node">
<title>handle_symtab</title>
<path fill="none" stroke="black" d="M348.5,-889C348.5,-889 213.5,-889 213.5,-889 207.5,-889 201.5,-883 201.5,-877 201.5,-877 201.5,-863 201.5,-863 201.5,-857 207.5,-851 213.5,-851 213.5,-851 348.5,-851 348.5,-851 354.5,-851 360.5,-857 360.5,-863 360.5,-863 360.5,-877 360.5,-877 360.5,-883 354.5,-889 348.5,-889"/>
<text text-anchor="middle" x="281" y="-873.8" font-family="Times,serif" font-size="14.00">处理SYMTAB命令</text>
<text text-anchor="middle" x="281" y="-858.8" font-family="Times,serif" font-size="14.00">加载符号表和字符串表</text>
</g>
<!-- process_lc&#45;&gt;handle_symtab -->
<g id="edge5" class="edge">
<title>process_lc&#45;&gt;handle_symtab</title>
<path fill="none" stroke="black" d="M502.42,-952.02C442.91,-946.65 360.14,-936.84 331,-922 319.26,-916.02 308.65,-906.22 300.26,-896.8"/>
<polygon fill="black" stroke="black" points="293.75,-889.07 303.63,-893.82 296.97,-892.89 300.19,-896.72 300.19,-896.72 300.19,-896.72 296.97,-892.89 296.75,-899.62 293.75,-889.07 293.75,-889.07"/>
<text text-anchor="middle" x="362" y="-910.8" font-family="Times,serif" font-size="14.00">SYMTAB</text>
</g>
<!-- handle_data -->
<g id="node7" class="node">
<title>handle_data</title>
<path fill="none" stroke="black" d="M524,-889C524,-889 390,-889 390,-889 384,-889 378,-883 378,-877 378,-877 378,-863 378,-863 378,-857 384,-851 390,-851 390,-851 524,-851 524,-851 530,-851 536,-857 536,-863 536,-863 536,-877 536,-877 536,-883 530,-889 524,-889"/>
<text text-anchor="middle" x="457" y="-873.8" font-family="Times,serif" font-size="14.00">处理DATA_IN_CODE</text>
<text text-anchor="middle" x="457" y="-858.8" font-family="Times,serif" font-size="14.00">记录数据编码</text>
</g>
<!-- process_lc&#45;&gt;handle_data -->
<g id="edge6" class="edge">
<title>process_lc&#45;&gt;handle_data</title>
<path fill="none" stroke="black" d="M502.46,-946.44C475.64,-940.66 449,-932.51 441,-922 435.83,-915.21 436.44,-906.71 439.34,-898.61"/>
<polygon fill="black" stroke="black" points="443.6,-889.41 443.49,-900.38 441.5,-893.95 439.4,-898.49 439.4,-898.49 439.4,-898.49 441.5,-893.95 435.32,-896.6 443.6,-889.41 443.6,-889.41"/>
<text text-anchor="middle" x="497.5" y="-910.8" font-family="Times,serif" font-size="14.00">DATA_IN_CODE</text>
</g>
<!-- handle_platform -->
<g id="node8" class="node">
<title>handle_platform</title>
<path fill="none" stroke="black" d="M673.5,-888C673.5,-888 566.5,-888 566.5,-888 560.5,-888 554.5,-882 554.5,-876 554.5,-876 554.5,-864 554.5,-864 554.5,-858 560.5,-852 566.5,-852 566.5,-852 673.5,-852 673.5,-852 679.5,-852 685.5,-858 685.5,-864 685.5,-864 685.5,-876 685.5,-876 685.5,-882 679.5,-888 673.5,-888"/>
<text text-anchor="middle" x="620" y="-866.3" font-family="Times,serif" font-size="14.00">处理平台版本命令</text>
</g>
<!-- process_lc&#45;&gt;handle_platform -->
<g id="edge7" class="edge">
<title>process_lc&#45;&gt;handle_platform</title>
<path fill="none" stroke="black" d="M578.52,-939.6C585.97,-927.28 596.09,-910.55 604.46,-896.7"/>
<polygon fill="black" stroke="black" points="609.67,-888.08 608.35,-898.97 607.08,-892.36 604.5,-896.64 604.5,-896.64 604.5,-896.64 607.08,-892.36 600.65,-894.31 609.67,-888.08 609.67,-888.08"/>
<text text-anchor="middle" x="667.5" y="-910.8" font-family="Times,serif" font-size="14.00">BUILD_VERSION等</text>
</g>
<!-- sort_symbols -->
<g id="node9" class="node">
<title>sort_symbols</title>
<path fill="none" stroke="black" d="M860,-889C860,-889 716,-889 716,-889 710,-889 704,-883 704,-877 704,-877 704,-863 704,-863 704,-857 710,-851 716,-851 716,-851 860,-851 860,-851 866,-851 872,-857 872,-863 872,-863 872,-877 872,-877 872,-883 866,-889 860,-889"/>
<text text-anchor="middle" x="788" y="-873.8" font-family="Times,serif" font-size="14.00">符号表排序</text>
<text text-anchor="middle" x="788" y="-858.8" font-family="Times,serif" font-size="14.00">按sect/value/rank排序</text>
</g>
<!-- process_lc&#45;&gt;sort_symbols -->
<g id="edge8" class="edge">
<title>process_lc&#45;&gt;sort_symbols</title>
<path fill="none" stroke="black" d="M633.52,-950.6C679.89,-945.01 737.22,-935.64 757,-922 765.55,-916.1 772.15,-907.01 777.03,-898.13"/>
<polygon fill="black" stroke="black" points="781.49,-889.09 781.1,-900.05 779.27,-893.57 777.06,-898.05 777.06,-898.05 777.06,-898.05 779.27,-893.57 773.03,-896.06 781.49,-889.09 781.49,-889.09"/>
<text text-anchor="middle" x="829.5" y="-910.8" font-family="Times,serif" font-size="14.00">加载命令处理完成</text>
</g>
<!-- process_lc&#45;&gt;end -->
<g id="edge26" class="edge">
<title>process_lc&#45;&gt;end</title>
<path fill="none" stroke="red" d="M633.83,-955.44C715.02,-952.56 847.61,-944.47 891,-922 917.84,-908.1 936,-901.23 936,-871 936,-871 936,-871 936,-90 936,-72.4 925.6,-56.08 914.28,-43.54"/>
<polygon fill="red" stroke="red" points="907.2,-36.24 917.4,-40.29 910.69,-39.83 914.17,-43.42 914.17,-43.42 914.17,-43.42 910.69,-39.83 910.94,-46.55 907.2,-36.24 907.2,-36.24"/>
<text text-anchor="middle" x="979" y="-468.3" font-family="Times,serif" font-size="14.00">加载命令错误</text>
</g>
<!-- handle_segment&#45;&gt;process_lc -->
<g id="edge9" class="edge">
<title>handle_segment&#45;&gt;process_lc</title>
<path fill="none" stroke="black" d="M143.64,-889.01C157.44,-894.19 171.99,-900.28 185,-907 195.51,-912.43 195.87,-917.97 207,-922 257.66,-940.35 401.94,-949.81 492.02,-954.06"/>
<polygon fill="black" stroke="black" points="502.18,-954.53 491.99,-958.57 497.19,-954.3 492.19,-954.07 492.19,-954.07 492.19,-954.07 497.19,-954.3 492.4,-949.58 502.18,-954.53 502.18,-954.53"/>
<text text-anchor="middle" x="257" y="-910.8" font-family="Times,serif" font-size="14.00">继续下一条命令</text>
</g>
<!-- handle_symtab&#45;&gt;process_lc -->
<g id="edge10" class="edge">
<title>handle_symtab&#45;&gt;process_lc</title>
<path fill="none" stroke="black" d="M338.7,-889.06C356.19,-894.67 375.42,-900.96 393,-907 411.35,-913.3 415.48,-916.21 434,-922 452.76,-927.87 473.2,-933.56 492.34,-938.58"/>
<polygon fill="black" stroke="black" points="502.22,-941.15 491.4,-942.99 497.38,-939.89 492.54,-938.63 492.54,-938.63 492.54,-938.63 497.38,-939.89 493.67,-934.28 502.22,-941.15 502.22,-941.15"/>
</g>
<!-- handle_data&#45;&gt;process_lc -->
<g id="edge11" class="edge">
<title>handle_data&#45;&gt;process_lc</title>
<path fill="none" stroke="black" d="M529.63,-889.04C538.71,-893.72 547.19,-899.6 554,-907 559.75,-913.25 563.17,-921.67 565.19,-929.82"/>
<polygon fill="black" stroke="black" points="567.07,-939.81 560.79,-930.82 566.14,-934.9 565.22,-929.98 565.22,-929.98 565.22,-929.98 566.14,-934.9 569.64,-929.15 567.07,-939.81 567.07,-939.81"/>
</g>
<!-- handle_platform&#45;&gt;process_lc -->
<g id="edge12" class="edge">
<title>handle_platform&#45;&gt;process_lc</title>
<path fill="none" stroke="black" d="M685.57,-886.95C712,-894.04 737.2,-901.91 741,-907 744.99,-912.34 745.22,-916.84 741,-922 728.41,-937.39 684.11,-946.17 643.5,-951.09"/>
<polygon fill="black" stroke="black" points="633.55,-952.23 642.97,-946.62 638.51,-951.66 643.48,-951.09 643.48,-951.09 643.48,-951.09 638.51,-951.66 643.99,-955.56 633.55,-952.23 633.55,-952.23"/>
</g>
<!-- init_subsections -->
<g id="node10" class="node">
<title>init_subsections</title>
<path fill="none" stroke="black" d="M860,-800C860,-800 668,-800 668,-800 662,-800 656,-794 656,-788 656,-788 656,-776 656,-776 656,-770 662,-764 668,-764 668,-764 860,-764 860,-764 866,-764 872,-770 872,-776 872,-776 872,-788 872,-788 872,-794 866,-800 860,-800"/>
<text text-anchor="middle" x="764" y="-778.3" font-family="Times,serif" font-size="14.00">初始化subsections或sections</text>
</g>
<!-- sort_symbols&#45;&gt;init_subsections -->
<g id="edge13" class="edge">
<title>sort_symbols&#45;&gt;init_subsections</title>
<path fill="none" stroke="black" d="M703.96,-852.85C700.6,-852.22 697.27,-851.6 694,-851 671.58,-846.86 607.64,-850.48 593,-833 569.97,-805.5 602.89,-792.66 645.81,-786.83"/>
<polygon fill="black" stroke="black" points="655.99,-785.59 646.61,-791.27 651.03,-786.2 646.07,-786.8 646.07,-786.8 646.07,-786.8 651.03,-786.2 645.52,-782.33 655.99,-785.59 655.99,-785.59"/>
<text text-anchor="middle" x="670.5" y="-821.8" font-family="Times,serif" font-size="14.00">hasSubsections?=Yes</text>
</g>
<!-- sort_symbols&#45;&gt;init_subsections -->
<g id="edge14" class="edge">
<title>sort_symbols&#45;&gt;init_subsections</title>
<path fill="none" stroke="black" d="M778.07,-850.74C775.41,-845.18 772.78,-838.96 771,-833 768.85,-825.81 767.36,-817.83 766.32,-810.4"/>
<polygon fill="black" stroke="black" points="765.14,-800.4 770.78,-809.8 765.73,-805.36 766.31,-810.33 766.31,-810.33 766.31,-810.33 765.73,-805.36 761.84,-810.86 765.14,-800.4 765.14,-800.4"/>
<text text-anchor="middle" x="846.5" y="-821.8" font-family="Times,serif" font-size="14.00">hasSubsections?=No</text>
</g>
<!-- init_literals -->
<g id="node11" class="node">
<title>init_literals</title>
<path fill="none" stroke="black" d="M838,-727C838,-727 690,-727 690,-727 684,-727 678,-721 678,-715 678,-715 678,-701 678,-701 678,-695 684,-689 690,-689 690,-689 838,-689 838,-689 844,-689 850,-695 850,-701 850,-701 850,-715 850,-715 850,-721 844,-727 838,-727"/>
<text text-anchor="middle" x="764" y="-711.8" font-family="Times,serif" font-size="14.00">初始化各类字面量</text>
<text text-anchor="middle" x="764" y="-696.8" font-family="Times,serif" font-size="14.00">(cstring/固定大小/指针)</text>
</g>
<!-- init_subsections&#45;&gt;init_literals -->
<g id="edge15" class="edge">
<title>init_subsections&#45;&gt;init_literals</title>
<path fill="none" stroke="black" d="M764,-763.94C764,-755.99 764,-746.31 764,-737.31"/>
<polygon fill="black" stroke="black" points="764,-727.2 768.5,-737.2 764,-732.2 764,-737.2 764,-737.2 764,-737.2 764,-732.2 759.5,-737.2 764,-727.2 764,-727.2"/>
</g>
<!-- link_atoms -->
<g id="node12" class="node">
<title>link_atoms</title>
<path fill="none" stroke="black" d="M814.5,-652C814.5,-652 713.5,-652 713.5,-652 707.5,-652 701.5,-646 701.5,-640 701.5,-640 701.5,-628 701.5,-628 701.5,-622 707.5,-616 713.5,-616 713.5,-616 814.5,-616 814.5,-616 820.5,-616 826.5,-622 826.5,-628 826.5,-628 826.5,-640 826.5,-640 826.5,-646 820.5,-652 814.5,-652"/>
<text text-anchor="middle" x="764" y="-630.3" font-family="Times,serif" font-size="14.00">符号与Atom关联</text>
</g>
<!-- init_literals&#45;&gt;link_atoms -->
<g id="edge16" class="edge">
<title>init_literals&#45;&gt;link_atoms</title>
<path fill="none" stroke="black" d="M764,-688.83C764,-680.89 764,-671.41 764,-662.63"/>
<polygon fill="black" stroke="black" points="764,-652.42 768.5,-662.42 764,-657.42 764,-662.42 764,-662.42 764,-662.42 764,-657.42 759.5,-662.42 764,-652.42 764,-652.42"/>
</g>
<!-- sort_atoms -->
<g id="node13" class="node">
<title>sort_atoms</title>
<path fill="none" stroke="black" d="M810,-579C810,-579 718,-579 718,-579 712,-579 706,-573 706,-567 706,-567 706,-553 706,-553 706,-547 712,-541 718,-541 718,-541 810,-541 810,-541 816,-541 822,-547 822,-553 822,-553 822,-567 822,-567 822,-573 816,-579 810,-579"/>
<text text-anchor="middle" x="764" y="-563.8" font-family="Times,serif" font-size="14.00">Atom排序</text>
<text text-anchor="middle" x="764" y="-548.8" font-family="Times,serif" font-size="14.00">初始化符号信息</text>
</g>
<!-- link_atoms&#45;&gt;sort_atoms -->
<g id="edge17" class="edge">
<title>link_atoms&#45;&gt;sort_atoms</title>
<path fill="none" stroke="black" d="M764,-615.94C764,-607.99 764,-598.31 764,-589.31"/>
<polygon fill="black" stroke="black" points="764,-579.2 768.5,-589.2 764,-584.2 764,-589.2 764,-589.2 764,-589.2 764,-584.2 759.5,-589.2 764,-579.2 764,-579.2"/>
</g>
<!-- init_relocs -->
<g id="node14" class="node">
<title>init_relocs</title>
<path fill="none" stroke="black" d="M817.5,-490C817.5,-490 710.5,-490 710.5,-490 704.5,-490 698.5,-484 698.5,-478 698.5,-478 698.5,-466 698.5,-466 698.5,-460 704.5,-454 710.5,-454 710.5,-454 817.5,-454 817.5,-454 823.5,-454 829.5,-460 829.5,-466 829.5,-466 829.5,-478 829.5,-478 829.5,-484 823.5,-490 817.5,-490"/>
<text text-anchor="middle" x="764" y="-468.3" font-family="Times,serif" font-size="14.00">初始化重定位信息</text>
</g>
<!-- sort_atoms&#45;&gt;init_relocs -->
<g id="edge18" class="edge">
<title>sort_atoms&#45;&gt;init_relocs</title>
<path fill="none" stroke="black" d="M764,-540.76C764,-528.93 764,-513.32 764,-500.05"/>
<polygon fill="black" stroke="black" points="764,-490.04 768.5,-500.04 764,-495.04 764,-500.04 764,-500.04 764,-500.04 764,-495.04 759.5,-500.04 764,-490.04 764,-490.04"/>
</g>
<!-- eh_compact -->
<g id="node15" class="node">
<title>eh_compact</title>
<path fill="none" stroke="black" d="M834,-403C834,-403 694,-403 694,-403 688,-403 682,-397 682,-391 682,-391 682,-377 682,-377 682,-371 688,-365 694,-365 694,-365 834,-365 834,-365 840,-365 846,-371 846,-377 846,-377 846,-391 846,-391 846,-397 840,-403 834,-403"/>
<text text-anchor="middle" x="764" y="-387.8" font-family="Times,serif" font-size="14.00">处理__eh_frame</text>
<text text-anchor="middle" x="764" y="-372.8" font-family="Times,serif" font-size="14.00">和__compact_unwind</text>
</g>
<!-- init_relocs&#45;&gt;eh_compact -->
<g id="edge19" class="edge">
<title>init_relocs&#45;&gt;eh_compact</title>
<path fill="none" stroke="black" d="M764,-453.6C764,-442.06 764,-426.65 764,-413.36"/>
<polygon fill="black" stroke="black" points="764,-403.27 768.5,-413.27 764,-408.27 764,-413.27 764,-413.27 764,-413.27 764,-408.27 759.5,-413.27 764,-403.27 764,-403.27"/>
<text text-anchor="middle" x="818.5" y="-424.8" font-family="Times,serif" font-size="14.00">存在对应section</text>
</g>
<!-- check_platform -->
<g id="node16" class="node">
<title>check_platform</title>
<path fill="none" stroke="black" d="M824.5,-328C824.5,-328 703.5,-328 703.5,-328 697.5,-328 691.5,-322 691.5,-316 691.5,-316 691.5,-304 691.5,-304 691.5,-298 697.5,-292 703.5,-292 703.5,-292 824.5,-292 824.5,-292 830.5,-292 836.5,-298 836.5,-304 836.5,-304 836.5,-316 836.5,-316 836.5,-322 830.5,-328 824.5,-328"/>
<text text-anchor="middle" x="764" y="-306.3" font-family="Times,serif" font-size="14.00">平台版本兼容性验证</text>
</g>
<!-- eh_compact&#45;&gt;check_platform -->
<g id="edge20" class="edge">
<title>eh_compact&#45;&gt;check_platform</title>
<path fill="none" stroke="black" d="M764,-364.83C764,-356.89 764,-347.41 764,-338.63"/>
<polygon fill="black" stroke="black" points="764,-328.42 768.5,-338.42 764,-333.42 764,-338.42 764,-338.42 764,-338.42 764,-333.42 759.5,-338.42 764,-328.42 764,-328.42"/>
</g>
<!-- parse_debug -->
<g id="node17" class="node">
<title>parse_debug</title>
<path fill="none" stroke="black" d="M780,-255C780,-255 702,-255 702,-255 696,-255 690,-249 690,-243 690,-243 690,-231 690,-231 690,-225 696,-219 702,-219 702,-219 780,-219 780,-219 786,-219 792,-225 792,-231 792,-231 792,-243 792,-243 792,-249 786,-255 780,-255"/>
<text text-anchor="middle" x="741" y="-233.3" font-family="Times,serif" font-size="14.00">解析调试信息</text>
</g>
<!-- check_platform&#45;&gt;parse_debug -->
<g id="edge21" class="edge">
<title>check_platform&#45;&gt;parse_debug</title>
<path fill="none" stroke="black" d="M758.43,-291.81C755.8,-283.7 752.61,-273.84 749.67,-264.78"/>
<polygon fill="black" stroke="black" points="746.52,-255.03 753.88,-263.16 748.06,-259.79 749.6,-264.54 749.6,-264.54 749.6,-264.54 748.06,-259.79 745.32,-265.93 746.52,-255.03 746.52,-255.03"/>
</g>
<!-- check_platform&#45;&gt;end -->
<g id="edge27" class="edge">
<title>check_platform&#45;&gt;end</title>
<path fill="none" stroke="red" d="M797.89,-291.75C816.57,-279.6 836,-261.35 836,-238 836,-238 836,-238 836,-90 836,-72.4 846.4,-56.08 857.72,-43.54"/>
<polygon fill="red" stroke="red" points="864.8,-36.24 861.06,-46.55 861.31,-39.83 857.83,-43.42 857.83,-43.42 857.83,-43.42 861.31,-39.83 854.6,-40.29 864.8,-36.24 864.8,-36.24"/>
<text text-anchor="middle" x="872" y="-160.3" font-family="Times,serif" font-size="14.00">平台不兼容</text>
</g>
<!-- set_atom_alive -->
<g id="node18" class="node">
<title>set_atom_alive</title>
<path fill="none" stroke="black" d="M787.5,-182C787.5,-182 600.5,-182 600.5,-182 594.5,-182 588.5,-176 588.5,-170 588.5,-170 588.5,-158 588.5,-158 588.5,-152 594.5,-146 600.5,-146 600.5,-146 787.5,-146 787.5,-146 793.5,-146 799.5,-152 799.5,-158 799.5,-158 799.5,-170 799.5,-170 799.5,-176 793.5,-182 787.5,-182"/>
<text text-anchor="middle" x="694" y="-160.3" font-family="Times,serif" font-size="14.00">根据段属性设置Atom存活状态</text>
</g>
<!-- parse_debug&#45;&gt;set_atom_alive -->
<g id="edge22" class="edge">
<title>parse_debug&#45;&gt;set_atom_alive</title>
<path fill="none" stroke="black" d="M729.62,-218.81C724.02,-210.35 717.16,-199.98 710.95,-190.61"/>
<polygon fill="black" stroke="black" points="705.27,-182.03 714.54,-187.88 708.03,-186.2 710.79,-190.37 710.79,-190.37 710.79,-190.37 708.03,-186.2 707.04,-192.85 705.27,-182.03 705.27,-182.03"/>
</g>
<!-- check_objc -->
<g id="node19" class="node">
<title>check_objc</title>
<path fill="none" stroke="black" d="M789,-109C789,-109 643,-109 643,-109 637,-109 631,-103 631,-97 631,-97 631,-85 631,-85 631,-79 637,-73 643,-73 643,-73 789,-73 789,-73 795,-73 801,-79 801,-85 801,-85 801,-97 801,-97 801,-103 795,-109 789,-109"/>
<text text-anchor="middle" x="716" y="-87.3" font-family="Times,serif" font-size="14.00">检查&#45;ObjC强制加载标志</text>
</g>
<!-- set_atom_alive&#45;&gt;check_objc -->
<g id="edge23" class="edge">
<title>set_atom_alive&#45;&gt;check_objc</title>
<path fill="none" stroke="black" d="M699.33,-145.81C701.84,-137.7 704.9,-127.84 707.7,-118.78"/>
<polygon fill="black" stroke="black" points="710.72,-109.03 712.06,-119.91 709.24,-113.8 707.76,-118.58 707.76,-118.58 707.76,-118.58 709.24,-113.8 703.47,-117.25 710.72,-109.03 710.72,-109.03"/>
</g>
<!-- check_objc&#45;&gt;end -->
<g id="edge24" class="edge">
<title>check_objc&#45;&gt;end</title>
<path fill="none" stroke="black" d="M756.72,-72.99C781.65,-62.58 813.64,-49.22 839.56,-38.4"/>
<polygon fill="black" stroke="black" points="848.81,-34.53 841.31,-42.54 844.19,-36.46 839.58,-38.39 839.58,-38.39 839.58,-38.39 844.19,-36.46 837.84,-34.24 848.81,-34.53 848.81,-34.53"/>
</g>
</g>
</svg>
