<?xml version="1.0" encoding="UTF-8" standalone="no"?>
<!DOCTYPE svg PUBLIC "-//W3C//DTD SVG 1.1//EN"
 "http://www.w3.org/Graphics/SVG/1.1/DTD/svg11.dtd">
<!-- Generated by graphviz version 2.43.0 (0)
 -->
<!-- Title: updateLazyType Pages: 1 -->
<svg width="1215pt" height="683pt"
 viewBox="0.00 0.00 1214.50 683.00" xmlns="http://www.w3.org/2000/svg" xmlns:xlink="http://www.w3.org/1999/xlink">
<g id="graph0" class="graph" transform="scale(1 1) rotate(0) translate(4 679)">
<title>updateLazyType</title>
<polygon fill="white" stroke="transparent" points="-4,4 -4,-679 1210.5,-679 1210.5,4 -4,4"/>
<!-- start -->
<g id="node1" class="node">
<title>start</title>
<path fill="none" stroke="black" d="M686,-675C686,-675 563,-675 563,-675 557,-675 551,-669 551,-663 551,-663 551,-651 551,-651 551,-645 557,-639 563,-639 563,-639 686,-639 686,-639 692,-639 698,-645 698,-651 698,-651 698,-663 698,-663 698,-669 692,-675 686,-675"/>
<text text-anchor="middle" x="624.5" y="-653.3" font-family="Arial" font-size="14.00">开始 updateLazyType</text>
</g>
<!-- init_wip_nav -->
<g id="node2" class="node">
<title>init_wip_nav</title>
<path fill="none" stroke="black" d="M684.5,-602C684.5,-602 564.5,-602 564.5,-602 558.5,-602 552.5,-596 552.5,-590 552.5,-590 552.5,-578 552.5,-578 552.5,-572 558.5,-566 564.5,-566 564.5,-566 684.5,-566 684.5,-566 690.5,-566 696.5,-572 696.5,-578 696.5,-578 696.5,-590 696.5,-590 696.5,-596 690.5,-602 684.5,-602"/>
<text text-anchor="middle" x="624.5" y="-580.3" font-family="Arial" font-size="14.00">初始化 wip_nav 结构</text>
</g>
<!-- start&#45;&gt;init_wip_nav -->
<g id="edge1" class="edge">
<title>start&#45;&gt;init_wip_nav</title>
<path fill="none" stroke="black" d="M624.5,-638.81C624.5,-630.79 624.5,-621.05 624.5,-612.07"/>
<polygon fill="black" stroke="black" points="628,-612.03 624.5,-602.03 621,-612.03 628,-612.03"/>
</g>
<!-- type_switch -->
<g id="node3" class="node">
<title>type_switch</title>
<path fill="none" stroke="black" d="M612.61,-527.37C612.61,-527.37 505.01,-512.63 505.01,-512.63 499.07,-511.81 499.07,-510.19 505.01,-509.37 505.01,-509.37 612.61,-494.63 612.61,-494.63 618.56,-493.81 630.44,-493.81 636.39,-494.63 636.39,-494.63 743.99,-509.37 743.99,-509.37 749.93,-510.19 749.93,-511.81 743.99,-512.63 743.99,-512.63 636.39,-527.37 636.39,-527.37 630.44,-528.19 618.56,-528.19 612.61,-527.37"/>
<text text-anchor="middle" x="624.5" y="-507.3" font-family="Arial" font-size="14.00">type_index 类型判断</text>
</g>
<!-- init_wip_nav&#45;&gt;type_switch -->
<g id="edge2" class="edge">
<title>init_wip_nav&#45;&gt;type_switch</title>
<path fill="none" stroke="black" d="M624.5,-565.81C624.5,-557.79 624.5,-548.05 624.5,-539.07"/>
<polygon fill="black" stroke="black" points="628,-539.03 624.5,-529.03 621,-539.03 628,-539.03"/>
</g>
<!-- handle_int -->
<g id="node4" class="node">
<title>handle_int</title>
<path fill="none" stroke="black" d="M83,-347C83,-347 12,-347 12,-347 6,-347 0,-341 0,-335 0,-335 0,-323 0,-323 0,-317 6,-311 12,-311 12,-311 83,-311 83,-311 89,-311 95,-317 95,-323 95,-323 95,-335 95,-335 95,-341 89,-347 83,-347"/>
<text text-anchor="middle" x="47.5" y="-325.3" font-family="Arial" font-size="14.00">处理 int_type</text>
</g>
<!-- type_switch&#45;&gt;handle_int -->
<g id="edge3" class="edge">
<title>type_switch&#45;&gt;handle_int</title>
<path fill="none" stroke="black" d="M532.5,-505.6C380.3,-497.37 89.79,-477.19 59.5,-442 39.52,-418.79 39.5,-382.05 42.49,-357.03"/>
<polygon fill="black" stroke="black" points="45.96,-357.5 43.91,-347.1 39.03,-356.51 45.96,-357.5"/>
<text text-anchor="middle" x="193.5" y="-463.8" font-family="Arial" font-size="14.00">int_type</text>
</g>
<!-- handle_ptr -->
<g id="node5" class="node">
<title>handle_ptr</title>
<path fill="none" stroke="black" d="M168.15,-438.11C168.15,-438.11 79.85,-407.89 79.85,-407.89 74.18,-405.94 74.18,-402.06 79.85,-400.11 79.85,-400.11 168.15,-369.89 168.15,-369.89 173.82,-367.94 185.18,-367.94 190.85,-369.89 190.85,-369.89 279.15,-400.11 279.15,-400.11 284.82,-402.06 284.82,-405.94 279.15,-407.89 279.15,-407.89 190.85,-438.11 190.85,-438.11 185.18,-440.06 173.82,-440.06 168.15,-438.11"/>
<text text-anchor="middle" x="179.5" y="-407.8" font-family="Arial" font-size="14.00">处理 ptr_type</text>
<text text-anchor="middle" x="179.5" y="-392.8" font-family="Arial" font-size="14.00">(判断指针大小)</text>
</g>
<!-- type_switch&#45;&gt;handle_ptr -->
<g id="edge4" class="edge">
<title>type_switch&#45;&gt;handle_ptr</title>
<path fill="none" stroke="black" d="M523.46,-506.84C433.36,-502.82 308.89,-493.96 263.5,-475 244.73,-467.16 226.96,-453.62 212.63,-440.52"/>
<polygon fill="black" stroke="black" points="214.71,-437.67 205.05,-433.33 209.9,-442.75 214.71,-437.67"/>
<text text-anchor="middle" x="288" y="-463.8" font-family="Arial" font-size="14.00">ptr_type</text>
</g>
<!-- handle_array -->
<g id="node7" class="node">
<title>handle_array</title>
<path fill="none" stroke="black" d="M371.5,-238C371.5,-238 283.5,-238 283.5,-238 277.5,-238 271.5,-232 271.5,-226 271.5,-226 271.5,-214 271.5,-214 271.5,-208 277.5,-202 283.5,-202 283.5,-202 371.5,-202 371.5,-202 377.5,-202 383.5,-208 383.5,-214 383.5,-214 383.5,-226 383.5,-226 383.5,-232 377.5,-238 371.5,-238"/>
<text text-anchor="middle" x="327.5" y="-216.3" font-family="Arial" font-size="14.00">处理 array_type</text>
</g>
<!-- type_switch&#45;&gt;handle_array -->
<g id="edge5" class="edge">
<title>type_switch&#45;&gt;handle_array</title>
<path fill="none" stroke="black" d="M546.32,-503.64C467.82,-495.32 355.2,-477.43 331.5,-442 291.7,-382.5 307.78,-292.37 319.43,-247.84"/>
<polygon fill="black" stroke="black" points="322.85,-248.62 322.12,-238.05 316.1,-246.76 322.85,-248.62"/>
<text text-anchor="middle" x="363.5" y="-400.3" font-family="Arial" font-size="14.00">array_type</text>
</g>
<!-- handle_vector -->
<g id="node8" class="node">
<title>handle_vector</title>
<path fill="none" stroke="black" d="M447.5,-347C447.5,-347 353.5,-347 353.5,-347 347.5,-347 341.5,-341 341.5,-335 341.5,-335 341.5,-323 341.5,-323 341.5,-317 347.5,-311 353.5,-311 353.5,-311 447.5,-311 447.5,-311 453.5,-311 459.5,-317 459.5,-323 459.5,-323 459.5,-335 459.5,-335 459.5,-341 453.5,-347 447.5,-347"/>
<text text-anchor="middle" x="400.5" y="-325.3" font-family="Arial" font-size="14.00">处理 vector_type</text>
</g>
<!-- type_switch&#45;&gt;handle_vector -->
<g id="edge6" class="edge">
<title>type_switch&#45;&gt;handle_vector</title>
<path fill="none" stroke="black" d="M535.67,-505.15C487.98,-500.61 435.71,-491.85 419.5,-475 403.8,-458.68 400.76,-394.69 400.35,-357.4"/>
<polygon fill="black" stroke="black" points="403.85,-357.19 400.3,-347.21 396.85,-357.22 403.85,-357.19"/>
<text text-anchor="middle" x="454.5" y="-463.8" font-family="Arial" font-size="14.00">vector_type</text>
</g>
<!-- handle_opt -->
<g id="node9" class="node">
<title>handle_opt</title>
<path fill="none" stroke="black" d="M515.5,-292C515.5,-292 439.5,-292 439.5,-292 433.5,-292 427.5,-286 427.5,-280 427.5,-280 427.5,-268 427.5,-268 427.5,-262 433.5,-256 439.5,-256 439.5,-256 515.5,-256 515.5,-256 521.5,-256 527.5,-262 527.5,-268 527.5,-268 527.5,-280 527.5,-280 527.5,-286 521.5,-292 515.5,-292"/>
<text text-anchor="middle" x="477.5" y="-270.3" font-family="Arial" font-size="14.00">处理 opt_type</text>
</g>
<!-- type_switch&#45;&gt;handle_opt -->
<g id="edge7" class="edge">
<title>type_switch&#45;&gt;handle_opt</title>
<path fill="none" stroke="black" d="M574.6,-499.72C543.14,-490.38 504.91,-473.11 485.5,-442 458.76,-399.15 464.67,-337.4 471.21,-302.24"/>
<polygon fill="black" stroke="black" points="474.68,-302.72 473.22,-292.23 467.82,-301.34 474.68,-302.72"/>
<text text-anchor="middle" x="511.5" y="-400.3" font-family="Arial" font-size="14.00">opt_type</text>
</g>
<!-- handle_error_union -->
<g id="node10" class="node">
<title>handle_error_union</title>
<path fill="none" stroke="black" d="M592.5,-238C592.5,-238 466.5,-238 466.5,-238 460.5,-238 454.5,-232 454.5,-226 454.5,-226 454.5,-214 454.5,-214 454.5,-208 460.5,-202 466.5,-202 466.5,-202 592.5,-202 592.5,-202 598.5,-202 604.5,-208 604.5,-214 604.5,-214 604.5,-226 604.5,-226 604.5,-232 598.5,-238 592.5,-238"/>
<text text-anchor="middle" x="529.5" y="-216.3" font-family="Arial" font-size="14.00">处理 error_union_type</text>
</g>
<!-- type_switch&#45;&gt;handle_error_union -->
<g id="edge8" class="edge">
<title>type_switch&#45;&gt;handle_error_union</title>
<path fill="none" stroke="black" d="M609.92,-494.81C598.27,-481.82 582.46,-462.08 573.5,-442 539.14,-365.04 552.99,-338.66 536.5,-256 535.99,-253.45 535.46,-250.79 534.93,-248.13"/>
<polygon fill="black" stroke="black" points="538.31,-247.21 532.92,-238.09 531.45,-248.58 538.31,-247.21"/>
<text text-anchor="middle" x="625" y="-400.3" font-family="Arial" font-size="14.00">error_union_type</text>
</g>
<!-- handle_simple -->
<g id="node11" class="node">
<title>handle_simple</title>
<path fill="none" stroke="black" d="M667,-183C667,-183 570,-183 570,-183 564,-183 558,-177 558,-171 558,-171 558,-159 558,-159 558,-153 564,-147 570,-147 570,-147 667,-147 667,-147 673,-147 679,-153 679,-159 679,-159 679,-171 679,-171 679,-177 673,-183 667,-183"/>
<text text-anchor="middle" x="618.5" y="-161.3" font-family="Arial" font-size="14.00">处理 simple_type</text>
</g>
<!-- type_switch&#45;&gt;handle_simple -->
<g id="edge9" class="edge">
<title>type_switch&#45;&gt;handle_simple</title>
<path fill="none" stroke="black" d="M640.69,-495.03C653.17,-482.31 669.45,-462.83 676.5,-442 687.33,-410.01 696.66,-393.1 676.5,-366 659.88,-343.66 633.12,-370.34 616.5,-348 598.86,-324.29 608.07,-238.04 614.31,-193.32"/>
<polygon fill="black" stroke="black" points="617.81,-193.56 615.77,-183.16 610.88,-192.56 617.81,-193.56"/>
<text text-anchor="middle" x="653" y="-325.3" font-family="Arial" font-size="14.00">simple_type</text>
</g>
<!-- handle_tuple -->
<g id="node12" class="node">
<title>handle_tuple</title>
<path fill="none" stroke="black" d="M797,-348C797,-348 710,-348 710,-348 704,-348 698,-342 698,-336 698,-336 698,-322 698,-322 698,-316 704,-310 710,-310 710,-310 797,-310 797,-310 803,-310 809,-316 809,-322 809,-322 809,-336 809,-336 809,-342 803,-348 797,-348"/>
<text text-anchor="middle" x="753.5" y="-332.8" font-family="Arial" font-size="14.00">处理 tuple_type</text>
<text text-anchor="middle" x="753.5" y="-317.8" font-family="Arial" font-size="14.00">(循环处理字段)</text>
</g>
<!-- type_switch&#45;&gt;handle_tuple -->
<g id="edge10" class="edge">
<title>type_switch&#45;&gt;handle_tuple</title>
<path fill="none" stroke="black" d="M666.68,-498.67C679.93,-493.34 693.66,-485.72 703.5,-475 733.6,-442.23 745.71,-390.45 750.49,-358.45"/>
<polygon fill="black" stroke="black" points="753.97,-358.79 751.84,-348.41 747.04,-357.85 753.97,-358.79"/>
<text text-anchor="middle" x="745" y="-463.8" font-family="Arial" font-size="14.00">tuple_type</text>
</g>
<!-- handle_enum -->
<g id="node13" class="node">
<title>handle_enum</title>
<path fill="none" stroke="black" d="M866.5,-292C866.5,-292 774.5,-292 774.5,-292 768.5,-292 762.5,-286 762.5,-280 762.5,-280 762.5,-268 762.5,-268 762.5,-262 768.5,-256 774.5,-256 774.5,-256 866.5,-256 866.5,-256 872.5,-256 878.5,-262 878.5,-268 878.5,-268 878.5,-280 878.5,-280 878.5,-286 872.5,-292 866.5,-292"/>
<text text-anchor="middle" x="820.5" y="-270.3" font-family="Arial" font-size="14.00">处理 enum_type</text>
</g>
<!-- type_switch&#45;&gt;handle_enum -->
<g id="edge11" class="edge">
<title>type_switch&#45;&gt;handle_enum</title>
<path fill="none" stroke="black" d="M691.35,-502.13C727.64,-496.51 767.67,-487.69 780.5,-475 804.55,-451.22 814.98,-351.54 818.73,-302.5"/>
<polygon fill="black" stroke="black" points="822.23,-302.52 819.46,-292.29 815.25,-302.01 822.23,-302.52"/>
<text text-anchor="middle" x="845.5" y="-400.3" font-family="Arial" font-size="14.00">enum_type</text>
</g>
<!-- handle_func -->
<g id="node14" class="node">
<title>handle_func</title>
<path fill="none" stroke="black" d="M935,-238C935,-238 852,-238 852,-238 846,-238 840,-232 840,-226 840,-226 840,-214 840,-214 840,-208 846,-202 852,-202 852,-202 935,-202 935,-202 941,-202 947,-208 947,-214 947,-214 947,-226 947,-226 947,-232 941,-238 935,-238"/>
<text text-anchor="middle" x="893.5" y="-216.3" font-family="Arial" font-size="14.00">处理 func_type</text>
</g>
<!-- type_switch&#45;&gt;handle_func -->
<g id="edge12" class="edge">
<title>type_switch&#45;&gt;handle_func</title>
<path fill="none" stroke="black" d="M691.25,-502.1C760.31,-492.34 861.16,-473.1 883.5,-442 925.3,-383.81 911.49,-293.07 900.92,-248.12"/>
<polygon fill="black" stroke="black" points="904.27,-247.1 898.47,-238.24 897.48,-248.79 904.27,-247.1"/>
<text text-anchor="middle" x="939" y="-400.3" font-family="Arial" font-size="14.00">func_type</text>
</g>
<!-- handle_error_set -->
<g id="node15" class="node">
<title>handle_error_set</title>
<path fill="none" stroke="black" d="M1108,-422C1108,-422 997,-422 997,-422 991,-422 985,-416 985,-410 985,-410 985,-398 985,-398 985,-392 991,-386 997,-386 997,-386 1108,-386 1108,-386 1114,-386 1120,-392 1120,-398 1120,-398 1120,-410 1120,-410 1120,-416 1114,-422 1108,-422"/>
<text text-anchor="middle" x="1052.5" y="-400.3" font-family="Arial" font-size="14.00">处理 error_set_type</text>
</g>
<!-- type_switch&#45;&gt;handle_error_set -->
<g id="edge13" class="edge">
<title>type_switch&#45;&gt;handle_error_set</title>
<path fill="none" stroke="black" d="M728.54,-507.22C786.45,-503.33 859.21,-494.55 921.5,-475 956.49,-464.02 993.04,-443.63 1018.61,-427.68"/>
<polygon fill="black" stroke="black" points="1020.61,-430.56 1027.18,-422.25 1016.86,-424.65 1020.61,-430.56"/>
<text text-anchor="middle" x="1002.5" y="-463.8" font-family="Arial" font-size="14.00">error_set_type</text>
</g>
<!-- cleanup -->
<g id="node16" class="node">
<title>cleanup</title>
<path fill="none" stroke="black" d="M611,-109C611,-109 504,-109 504,-109 498,-109 492,-103 492,-97 492,-97 492,-85 492,-85 492,-79 498,-73 504,-73 504,-73 611,-73 611,-73 617,-73 623,-79 623,-85 623,-85 623,-97 623,-97 623,-103 617,-109 611,-109"/>
<text text-anchor="middle" x="557.5" y="-87.3" font-family="Arial" font-size="14.00">清理资源 (defer块)</text>
</g>
<!-- type_switch&#45;&gt;cleanup -->
<g id="edge14" class="edge">
<title>type_switch&#45;&gt;cleanup</title>
<path fill="none" stroke="black" d="M748.7,-510C834.56,-507.53 950.82,-499.27 1050.5,-475 1102.51,-462.34 1148.5,-458.53 1148.5,-405 1148.5,-405 1148.5,-405 1148.5,-164 1148.5,-112.67 792.68,-97.65 633.22,-93.49"/>
<polygon fill="black" stroke="black" points="633.09,-89.99 623.01,-93.24 632.91,-96.99 633.09,-89.99"/>
<text text-anchor="middle" x="1177.5" y="-270.3" font-family="Arial" font-size="14.00">其他类型</text>
</g>
<!-- handle_int&#45;&gt;cleanup -->
<g id="edge28" class="edge">
<title>handle_int&#45;&gt;cleanup</title>
<path fill="none" stroke="black" d="M52.37,-310.99C64.18,-273.26 98.32,-182.98 163.5,-146 216.35,-116.01 382.79,-101.73 481.63,-95.74"/>
<polygon fill="black" stroke="black" points="482.09,-99.22 491.87,-95.13 481.68,-92.23 482.09,-99.22"/>
</g>
<!-- handle_slice -->
<g id="node6" class="node">
<title>handle_slice</title>
<path fill="none" stroke="black" d="M179,-292C179,-292 96,-292 96,-292 90,-292 84,-286 84,-280 84,-280 84,-268 84,-268 84,-262 90,-256 96,-256 96,-256 179,-256 179,-256 185,-256 191,-262 191,-268 191,-268 191,-280 191,-280 191,-286 185,-292 179,-292"/>
<text text-anchor="middle" x="137.5" y="-270.3" font-family="Arial" font-size="14.00">处理 slice 指针</text>
</g>
<!-- handle_ptr&#45;&gt;handle_slice -->
<g id="edge15" class="edge">
<title>handle_ptr&#45;&gt;handle_slice</title>
<path fill="none" stroke="black" d="M152.69,-375.11C146.5,-366.99 140.77,-357.67 137.5,-348 132.55,-333.36 132.32,-316.11 133.43,-302.05"/>
<polygon fill="black" stroke="black" points="136.92,-302.33 134.48,-292.02 129.95,-301.6 136.92,-302.33"/>
<text text-anchor="middle" x="175.5" y="-325.3" font-family="Arial" font-size="14.00">size == slice</text>
</g>
<!-- ptr_common -->
<g id="node18" class="node">
<title>ptr_common</title>
<path fill="none" stroke="black" d="M271,-184C271,-184 184,-184 184,-184 178,-184 172,-178 172,-172 172,-172 172,-158 172,-158 172,-152 178,-146 184,-146 184,-146 271,-146 271,-146 277,-146 283,-152 283,-158 283,-158 283,-172 283,-172 283,-178 277,-184 271,-184"/>
<text text-anchor="middle" x="227.5" y="-168.8" font-family="Arial" font-size="14.00">处理普通指针</text>
<text text-anchor="middle" x="227.5" y="-153.8" font-family="Arial" font-size="14.00">(写入指针属性)</text>
</g>
<!-- handle_ptr&#45;&gt;ptr_common -->
<g id="edge16" class="edge">
<title>handle_ptr&#45;&gt;ptr_common</title>
<path fill="none" stroke="black" d="M201.31,-373.44C206.13,-365.54 210.65,-356.75 213.5,-348 230.51,-295.85 230.92,-231.02 229.4,-194.49"/>
<polygon fill="black" stroke="black" points="232.87,-193.93 228.88,-184.11 225.88,-194.27 232.87,-193.93"/>
<text text-anchor="middle" x="264" y="-270.3" font-family="Arial" font-size="14.00">one/many/c</text>
</g>
<!-- handle_slice&#45;&gt;ptr_common -->
<g id="edge17" class="edge">
<title>handle_slice&#45;&gt;ptr_common</title>
<path fill="none" stroke="black" d="M151.96,-255.81C166.46,-238.57 188.97,-211.81 205.65,-191.98"/>
<polygon fill="black" stroke="black" points="208.41,-194.13 212.17,-184.22 203.06,-189.62 208.41,-194.13"/>
</g>
<!-- handle_array&#45;&gt;cleanup -->
<g id="edge18" class="edge">
<title>handle_array&#45;&gt;cleanup</title>
<path fill="none" stroke="black" d="M333.51,-201.75C341.78,-180.64 358.78,-145.46 385.5,-127 413.44,-107.7 449.65,-98.57 481.63,-94.41"/>
<polygon fill="black" stroke="black" points="482.32,-97.86 491.85,-93.23 481.52,-90.9 482.32,-97.86"/>
</g>
<!-- handle_vector&#45;&gt;cleanup -->
<g id="edge19" class="edge">
<title>handle_vector&#45;&gt;cleanup</title>
<path fill="none" stroke="black" d="M401.47,-310.82C404.3,-275.79 415.29,-195.29 457.5,-146 469.09,-132.47 484.94,-121.77 500.61,-113.58"/>
<polygon fill="black" stroke="black" points="502.36,-116.62 509.77,-109.05 499.26,-110.34 502.36,-116.62"/>
</g>
<!-- handle_opt&#45;&gt;cleanup -->
<g id="edge20" class="edge">
<title>handle_opt&#45;&gt;cleanup</title>
<path fill="none" stroke="black" d="M462.79,-255.93C459.01,-250.54 455.46,-244.33 453.5,-238 448.76,-222.72 447.58,-216.87 453.5,-202 467.73,-166.24 499.71,-135.4 524.48,-115.55"/>
<polygon fill="black" stroke="black" points="526.83,-118.15 532.57,-109.24 522.53,-112.63 526.83,-118.15"/>
</g>
<!-- handle_error_union&#45;&gt;cleanup -->
<g id="edge21" class="edge">
<title>handle_error_union&#45;&gt;cleanup</title>
<path fill="none" stroke="black" d="M533.28,-201.87C537.95,-180.66 545.97,-144.28 551.5,-119.23"/>
<polygon fill="black" stroke="black" points="554.96,-119.78 553.69,-109.26 548.12,-118.27 554.96,-119.78"/>
</g>
<!-- handle_simple&#45;&gt;cleanup -->
<g id="edge22" class="edge">
<title>handle_simple&#45;&gt;cleanup</title>
<path fill="none" stroke="black" d="M604.04,-146.94C596.56,-138.1 587.27,-127.14 578.96,-117.33"/>
<polygon fill="black" stroke="black" points="581.41,-114.81 572.28,-109.44 576.07,-119.33 581.41,-114.81"/>
</g>
<!-- handle_tuple&#45;&gt;cleanup -->
<g id="edge23" class="edge">
<title>handle_tuple&#45;&gt;cleanup</title>
<path fill="none" stroke="black" d="M742.8,-309.98C732.67,-292.21 717.67,-264.03 708.5,-238 694.59,-198.54 715.36,-178.09 688.5,-146 674.12,-128.82 653.4,-117.03 632.66,-108.97"/>
<polygon fill="black" stroke="black" points="633.75,-105.65 623.16,-105.53 631.37,-112.23 633.75,-105.65"/>
<text text-anchor="middle" x="751.5" y="-216.3" font-family="Arial" font-size="14.00">完成字段处理</text>
</g>
<!-- handle_enum&#45;&gt;cleanup -->
<g id="edge24" class="edge">
<title>handle_enum&#45;&gt;cleanup</title>
<path fill="none" stroke="black" d="M817.66,-255.96C814.61,-240.94 808.76,-218.87 798.5,-202 773.85,-161.45 764.28,-149.5 722.5,-127 695.28,-112.35 662.46,-103.83 633.28,-98.87"/>
<polygon fill="black" stroke="black" points="633.55,-95.37 623.13,-97.27 632.45,-102.29 633.55,-95.37"/>
</g>
<!-- handle_func&#45;&gt;cleanup -->
<g id="edge25" class="edge">
<title>handle_func&#45;&gt;cleanup</title>
<path fill="none" stroke="black" d="M886.39,-201.76C876.57,-180.33 856.69,-144.45 827.5,-127 795.71,-108 701.67,-99.15 633.5,-95.14"/>
<polygon fill="black" stroke="black" points="633.4,-91.63 623.22,-94.56 633.01,-98.61 633.4,-91.63"/>
</g>
<!-- handle_error_set&#45;&gt;cleanup -->
<g id="edge26" class="edge">
<title>handle_error_set&#45;&gt;cleanup</title>
<path fill="none" stroke="black" d="M1047.54,-385.74C1036.28,-348.78 1005.82,-260.57 956.5,-202 928.78,-169.08 914.17,-168.54 877.5,-146 862.09,-136.53 858.76,-132.42 841.5,-127 773.09,-105.53 691.54,-97.14 633.42,-93.91"/>
<polygon fill="black" stroke="black" points="633.38,-90.41 623.21,-93.38 633.01,-97.4 633.38,-90.41"/>
</g>
<!-- end -->
<g id="node17" class="node">
<title>end</title>
<path fill="none" stroke="black" d="M582.5,-36C582.5,-36 532.5,-36 532.5,-36 526.5,-36 520.5,-30 520.5,-24 520.5,-24 520.5,-12 520.5,-12 520.5,-6 526.5,0 532.5,0 532.5,0 582.5,0 582.5,0 588.5,0 594.5,-6 594.5,-12 594.5,-12 594.5,-24 594.5,-24 594.5,-30 588.5,-36 582.5,-36"/>
<text text-anchor="middle" x="557.5" y="-14.3" font-family="Arial" font-size="14.00">结束函数</text>
</g>
<!-- cleanup&#45;&gt;end -->
<g id="edge27" class="edge">
<title>cleanup&#45;&gt;end</title>
<path fill="none" stroke="black" d="M557.5,-72.81C557.5,-64.79 557.5,-55.05 557.5,-46.07"/>
<polygon fill="black" stroke="black" points="561,-46.03 557.5,-36.03 554,-46.03 561,-46.03"/>
</g>
<!-- ptr_common&#45;&gt;cleanup -->
<g id="edge29" class="edge">
<title>ptr_common&#45;&gt;cleanup</title>
<path fill="none" stroke="black" d="M271.34,-145.96C289.14,-139.2 310.06,-131.97 329.5,-127 379.64,-114.19 437.26,-105.39 482.03,-99.82"/>
<polygon fill="black" stroke="black" points="482.45,-103.3 491.96,-98.61 481.61,-96.35 482.45,-103.3"/>
</g>
</g>
</svg>
