<?xml version="1.0" encoding="UTF-8" standalone="no"?>
<!DOCTYPE svg PUBLIC "-//W3C//DTD SVG 1.1//EN"
 "http://www.w3.org/Graphics/SVG/1.1/DTD/svg11.dtd">
<!-- Generated by graphviz version 2.43.0 (0)
 -->
<!-- Title: parseTbd Pages: 1 -->
<svg width="804pt" height="980pt"
 viewBox="0.00 0.00 803.50 980.00" xmlns="http://www.w3.org/2000/svg" xmlns:xlink="http://www.w3.org/1999/xlink">
<g id="graph0" class="graph" transform="scale(1 1) rotate(0) translate(4 976)">
<title>parseTbd</title>
<polygon fill="white" stroke="transparent" points="-4,4 -4,-976 799.5,-976 799.5,4 -4,4"/>
<!-- start -->
<g id="node1" class="node">
<title>start</title>
<path fill="none" stroke="black" d="M258,-972C258,-972 157,-972 157,-972 151,-972 145,-966 145,-960 145,-960 145,-948 145,-948 145,-942 151,-936 157,-936 157,-936 258,-936 258,-936 264,-936 270,-942 270,-948 270,-948 270,-960 270,-960 270,-966 264,-972 258,-972"/>
<text text-anchor="middle" x="207.5" y="-950.3" font-family="Times,serif" font-size="14.00">Start parseTbd</text>
</g>
<!-- init_trace -->
<g id="node3" class="node">
<title>init_trace</title>
<path fill="none" stroke="black" d="M277.5,-899C277.5,-899 137.5,-899 137.5,-899 131.5,-899 125.5,-893 125.5,-887 125.5,-887 125.5,-875 125.5,-875 125.5,-869 131.5,-863 137.5,-863 137.5,-863 277.5,-863 277.5,-863 283.5,-863 289.5,-869 289.5,-875 289.5,-875 289.5,-887 289.5,-887 289.5,-893 283.5,-899 277.5,-899"/>
<text text-anchor="middle" x="207.5" y="-877.3" font-family="Times,serif" font-size="14.00">Initialize Tracy trace</text>
</g>
<!-- start&#45;&gt;init_trace -->
<g id="edge1" class="edge">
<title>start&#45;&gt;init_trace</title>
<path fill="none" stroke="black" d="M207.5,-935.81C207.5,-927.79 207.5,-918.05 207.5,-909.07"/>
<polygon fill="black" stroke="black" points="211,-909.03 207.5,-899.03 204,-909.03 211,-909.03"/>
</g>
<!-- end -->
<g id="node2" class="node">
<title>end</title>
<path fill="none" stroke="black" d="M124.5,-232C124.5,-232 32.5,-232 32.5,-232 26.5,-232 20.5,-226 20.5,-220 20.5,-220 20.5,-208 20.5,-208 20.5,-202 26.5,-196 32.5,-196 32.5,-196 124.5,-196 124.5,-196 130.5,-196 136.5,-202 136.5,-208 136.5,-208 136.5,-220 136.5,-220 136.5,-226 130.5,-232 124.5,-232"/>
<text text-anchor="middle" x="78.5" y="-210.3" font-family="Times,serif" font-size="14.00">End parseTbd</text>
</g>
<!-- load_libstub -->
<g id="node4" class="node">
<title>load_libstub</title>
<path fill="none" stroke="black" d="M283.5,-826C283.5,-826 131.5,-826 131.5,-826 125.5,-826 119.5,-820 119.5,-814 119.5,-814 119.5,-802 119.5,-802 119.5,-796 125.5,-790 131.5,-790 131.5,-790 283.5,-790 283.5,-790 289.5,-790 295.5,-796 295.5,-802 295.5,-802 295.5,-814 295.5,-814 295.5,-820 289.5,-826 283.5,-826"/>
<text text-anchor="middle" x="207.5" y="-804.3" font-family="Times,serif" font-size="14.00">Load LibStub from file</text>
</g>
<!-- init_trace&#45;&gt;load_libstub -->
<g id="edge2" class="edge">
<title>init_trace&#45;&gt;load_libstub</title>
<path fill="none" stroke="black" d="M207.5,-862.81C207.5,-854.79 207.5,-845.05 207.5,-836.07"/>
<polygon fill="black" stroke="black" points="211,-836.03 207.5,-826.03 204,-836.03 211,-836.03"/>
</g>
<!-- handle_error -->
<g id="node5" class="node">
<title>handle_error</title>
<path fill="none" stroke="black" d="M285,-683C285,-683 12,-683 12,-683 6,-683 0,-677 0,-671 0,-671 0,-659 0,-659 0,-653 6,-647 12,-647 12,-647 285,-647 285,-647 291,-647 297,-653 297,-659 297,-659 297,-671 297,-671 297,-677 291,-683 285,-683"/>
<text text-anchor="middle" x="148.5" y="-661.3" font-family="Times,serif" font-size="14.00">Report error and return MalformedTbd</text>
</g>
<!-- load_libstub&#45;&gt;handle_error -->
<g id="edge3" class="edge">
<title>load_libstub&#45;&gt;handle_error</title>
<path fill="none" stroke="black" d="M194.28,-789.79C190.46,-784.3 186.51,-778.07 183.5,-772 170.78,-746.33 161.08,-714.97 155.16,-693.04"/>
<polygon fill="black" stroke="black" points="158.47,-691.89 152.55,-683.1 151.7,-693.66 158.47,-691.89"/>
<text text-anchor="middle" x="213" y="-760.8" font-family="Times,serif" font-size="14.00">on error</text>
</g>
<!-- process_umbrella -->
<g id="node6" class="node">
<title>process_umbrella</title>
<path fill="none" stroke="black" d="M389,-739C389,-739 216,-739 216,-739 210,-739 204,-733 204,-727 204,-727 204,-713 204,-713 204,-707 210,-701 216,-701 216,-701 389,-701 389,-701 395,-701 401,-707 401,-713 401,-713 401,-727 401,-727 401,-733 395,-739 389,-739"/>
<text text-anchor="middle" x="302.5" y="-723.8" font-family="Times,serif" font-size="14.00">Process umbrella library</text>
<text text-anchor="middle" x="302.5" y="-708.8" font-family="Times,serif" font-size="14.00">(install name &amp; versions)</text>
</g>
<!-- load_libstub&#45;&gt;process_umbrella -->
<g id="edge4" class="edge">
<title>load_libstub&#45;&gt;process_umbrella</title>
<path fill="none" stroke="black" d="M226.72,-789.6C240.48,-777.14 259.22,-760.18 274.62,-746.24"/>
<polygon fill="black" stroke="black" points="277.26,-748.57 282.32,-739.27 272.56,-743.38 277.26,-748.57"/>
<text text-anchor="middle" x="289" y="-760.8" font-family="Times,serif" font-size="14.00">success</text>
</g>
<!-- handle_error&#45;&gt;end -->
<g id="edge19" class="edge">
<title>handle_error&#45;&gt;end</title>
<path fill="none" stroke="black" d="M110.01,-646.9C83.3,-632.13 52.5,-607.95 52.5,-575 52.5,-575 52.5,-575 52.5,-339.5 52.5,-305.3 62.02,-266.92 69.53,-241.92"/>
<polygon fill="black" stroke="black" points="72.97,-242.67 72.6,-232.09 66.28,-240.59 72.97,-242.67"/>
<text text-anchor="middle" x="96.5" y="-490.8" font-family="Times,serif" font-size="14.00">return error</text>
</g>
<!-- init_matcher -->
<g id="node7" class="node">
<title>init_matcher</title>
<path fill="none" stroke="black" d="M460.5,-629C460.5,-629 294.5,-629 294.5,-629 288.5,-629 282.5,-623 282.5,-617 282.5,-617 282.5,-605 282.5,-605 282.5,-599 288.5,-593 294.5,-593 294.5,-593 460.5,-593 460.5,-593 466.5,-593 472.5,-599 472.5,-605 472.5,-605 472.5,-617 472.5,-617 472.5,-623 466.5,-629 460.5,-629"/>
<text text-anchor="middle" x="377.5" y="-607.3" font-family="Times,serif" font-size="14.00">Initialize TargetMatcher</text>
</g>
<!-- process_umbrella&#45;&gt;init_matcher -->
<g id="edge5" class="edge">
<title>process_umbrella&#45;&gt;init_matcher</title>
<path fill="none" stroke="black" d="M315.22,-700.85C327.4,-683.48 345.89,-657.1 359.56,-637.6"/>
<polygon fill="black" stroke="black" points="362.59,-639.37 365.46,-629.18 356.85,-635.36 362.59,-639.37"/>
</g>
<!-- iterate_libs -->
<g id="node8" class="node">
<title>iterate_libs</title>
<path fill="none" stroke="black" d="M517.5,-556C517.5,-556 337.5,-556 337.5,-556 331.5,-556 325.5,-550 325.5,-544 325.5,-544 325.5,-532 325.5,-532 325.5,-526 331.5,-520 337.5,-520 337.5,-520 517.5,-520 517.5,-520 523.5,-520 529.5,-526 529.5,-532 529.5,-532 529.5,-544 529.5,-544 529.5,-550 523.5,-556 517.5,-556"/>
<text text-anchor="middle" x="427.5" y="-534.3" font-family="Times,serif" font-size="14.00">Iterate over lib_stub.inner</text>
</g>
<!-- init_matcher&#45;&gt;iterate_libs -->
<g id="edge6" class="edge">
<title>init_matcher&#45;&gt;iterate_libs</title>
<path fill="none" stroke="black" d="M389.6,-592.81C395.62,-584.27 403.01,-573.77 409.67,-564.32"/>
<polygon fill="black" stroke="black" points="412.61,-566.22 415.51,-556.03 406.89,-562.19 412.61,-566.22"/>
</g>
<!-- check_v3 -->
<g id="node9" class="node">
<title>check_v3</title>
<path fill="none" stroke="black" d="M584,-469C584,-469 487,-469 487,-469 481,-469 475,-463 475,-457 475,-457 475,-445 475,-445 475,-439 481,-433 487,-433 487,-433 584,-433 584,-433 590,-433 596,-439 596,-445 596,-445 596,-457 596,-457 596,-463 590,-469 584,-469"/>
<text text-anchor="middle" x="535.5" y="-447.3" font-family="Times,serif" font-size="14.00">Is element v3?</text>
</g>
<!-- iterate_libs&#45;&gt;check_v3 -->
<g id="edge7" class="edge">
<title>iterate_libs&#45;&gt;check_v3</title>
<path fill="none" stroke="black" d="M449.36,-519.8C465.46,-507.13 487.56,-489.73 505.34,-475.74"/>
<polygon fill="black" stroke="black" points="507.98,-478.11 513.68,-469.18 503.65,-472.61 507.98,-478.11"/>
<text text-anchor="middle" x="548" y="-490.8" font-family="Times,serif" font-size="14.00">for each element</text>
</g>
<!-- collect_reexports -->
<g id="node15" class="node">
<title>collect_reexports</title>
<path fill="none" stroke="black" d="M368,-469C368,-469 93,-469 93,-469 87,-469 81,-463 81,-457 81,-457 81,-445 81,-445 81,-439 87,-433 93,-433 93,-433 368,-433 368,-433 374,-433 380,-439 380,-445 380,-445 380,-457 380,-457 380,-463 374,-469 368,-469"/>
<text text-anchor="middle" x="230.5" y="-447.3" font-family="Times,serif" font-size="14.00">Second pass for v4 reexported libraries</text>
</g>
<!-- iterate_libs&#45;&gt;collect_reexports -->
<g id="edge16" class="edge">
<title>iterate_libs&#45;&gt;collect_reexports</title>
<path fill="none" stroke="black" d="M325.4,-526.1C305.14,-520.87 284.81,-513.2 267.5,-502 258.25,-496.01 250.5,-486.86 244.52,-478.01"/>
<polygon fill="black" stroke="black" points="247.41,-476.03 239.14,-469.4 241.47,-479.73 247.41,-476.03"/>
<text text-anchor="middle" x="331" y="-490.8" font-family="Times,serif" font-size="14.00">after all elements</text>
</g>
<!-- process_v3_exports -->
<g id="node10" class="node">
<title>process_v3_exports</title>
<path fill="none" stroke="black" d="M608,-382C608,-382 449,-382 449,-382 443,-382 437,-376 437,-370 437,-370 437,-311 437,-311 437,-305 443,-299 449,-299 449,-299 608,-299 608,-299 614,-299 620,-305 620,-311 620,-311 620,-370 620,-370 620,-376 614,-382 608,-382"/>
<text text-anchor="middle" x="528.5" y="-366.8" font-family="Times,serif" font-size="14.00">Process v3 exports:</text>
<text text-anchor="middle" x="528.5" y="-351.8" font-family="Times,serif" font-size="14.00">&#45; Symbols</text>
<text text-anchor="middle" x="528.5" y="-336.8" font-family="Times,serif" font-size="14.00">&#45; Weak symbols</text>
<text text-anchor="middle" x="528.5" y="-321.8" font-family="Times,serif" font-size="14.00">&#45; ObjC classes/ivars/EH</text>
<text text-anchor="middle" x="528.5" y="-306.8" font-family="Times,serif" font-size="14.00">&#45; Re&#45;exports</text>
</g>
<!-- check_v3&#45;&gt;process_v3_exports -->
<g id="edge8" class="edge">
<title>check_v3&#45;&gt;process_v3_exports</title>
<path fill="none" stroke="black" d="M534.38,-432.57C533.67,-421.67 532.73,-407.03 531.8,-392.67"/>
<polygon fill="black" stroke="black" points="535.27,-392.08 531.13,-382.33 528.29,-392.53 535.27,-392.08"/>
<text text-anchor="middle" x="545" y="-403.8" font-family="Times,serif" font-size="14.00">Yes</text>
</g>
<!-- check_v4 -->
<g id="node11" class="node">
<title>check_v4</title>
<path fill="none" stroke="black" d="M747,-358.5C747,-358.5 650,-358.5 650,-358.5 644,-358.5 638,-352.5 638,-346.5 638,-346.5 638,-334.5 638,-334.5 638,-328.5 644,-322.5 650,-322.5 650,-322.5 747,-322.5 747,-322.5 753,-322.5 759,-328.5 759,-334.5 759,-334.5 759,-346.5 759,-346.5 759,-352.5 753,-358.5 747,-358.5"/>
<text text-anchor="middle" x="698.5" y="-336.8" font-family="Times,serif" font-size="14.00">Is element v4?</text>
</g>
<!-- check_v3&#45;&gt;check_v4 -->
<g id="edge9" class="edge">
<title>check_v3&#45;&gt;check_v4</title>
<path fill="none" stroke="black" d="M561.33,-432.81C589.11,-414.32 633.42,-384.82 664.13,-364.38"/>
<polygon fill="black" stroke="black" points="666.41,-367.07 672.79,-358.61 662.53,-361.24 666.41,-367.07"/>
<text text-anchor="middle" x="617" y="-403.8" font-family="Times,serif" font-size="14.00">No</text>
</g>
<!-- process_v3_exports&#45;&gt;iterate_libs -->
<g id="edge12" class="edge">
<title>process_v3_exports&#45;&gt;iterate_libs</title>
<path fill="none" stroke="black" d="M497.94,-382.12C487.16,-397.56 475.49,-415.61 466.5,-433 453.49,-458.17 442.56,-488.71 435.62,-510.17"/>
<polygon fill="black" stroke="black" points="432.22,-509.32 432.53,-519.91 438.89,-511.43 432.22,-509.32"/>
</g>
<!-- check_v4&#45;&gt;iterate_libs -->
<g id="edge11" class="edge">
<title>check_v4&#45;&gt;iterate_libs</title>
<path fill="none" stroke="black" d="M694.58,-358.54C685.96,-391.88 662.08,-465.63 612.5,-502 599.95,-511.2 571.16,-518.4 539.93,-523.81"/>
<polygon fill="black" stroke="black" points="539.02,-520.42 529.72,-525.51 540.16,-527.32 539.02,-520.42"/>
<text text-anchor="middle" x="730.5" y="-447.3" font-family="Times,serif" font-size="14.00">No (next element)</text>
</g>
<!-- process_v4_exports -->
<g id="node12" class="node">
<title>process_v4_exports</title>
<path fill="none" stroke="black" d="M746,-248C746,-248 587,-248 587,-248 581,-248 575,-242 575,-236 575,-236 575,-192 575,-192 575,-186 581,-180 587,-180 587,-180 746,-180 746,-180 752,-180 758,-186 758,-192 758,-192 758,-236 758,-236 758,-242 752,-248 746,-248"/>
<text text-anchor="middle" x="666.5" y="-232.8" font-family="Times,serif" font-size="14.00">Process v4 exports:</text>
<text text-anchor="middle" x="666.5" y="-217.8" font-family="Times,serif" font-size="14.00">&#45; Symbols</text>
<text text-anchor="middle" x="666.5" y="-202.8" font-family="Times,serif" font-size="14.00">&#45; Weak symbols</text>
<text text-anchor="middle" x="666.5" y="-187.8" font-family="Times,serif" font-size="14.00">&#45; ObjC classes/ivars/EH</text>
</g>
<!-- check_v4&#45;&gt;process_v4_exports -->
<g id="edge10" class="edge">
<title>check_v4&#45;&gt;process_v4_exports</title>
<path fill="none" stroke="black" d="M694.12,-322.45C689.87,-305.93 683.26,-280.2 677.57,-258.07"/>
<polygon fill="black" stroke="black" points="680.91,-257.01 675.03,-248.19 674.13,-258.75 680.91,-257.01"/>
<text text-anchor="middle" x="695" y="-269.8" font-family="Times,serif" font-size="14.00">Yes</text>
</g>
<!-- process_v4_reexports -->
<g id="node13" class="node">
<title>process_v4_reexports</title>
<path fill="none" stroke="black" d="M693,-143C693,-143 534,-143 534,-143 528,-143 522,-137 522,-131 522,-131 522,-87 522,-87 522,-81 528,-75 534,-75 534,-75 693,-75 693,-75 699,-75 705,-81 705,-87 705,-87 705,-131 705,-131 705,-137 699,-143 693,-143"/>
<text text-anchor="middle" x="613.5" y="-127.8" font-family="Times,serif" font-size="14.00">Process v4 reexports:</text>
<text text-anchor="middle" x="613.5" y="-112.8" font-family="Times,serif" font-size="14.00">&#45; Symbols</text>
<text text-anchor="middle" x="613.5" y="-97.8" font-family="Times,serif" font-size="14.00">&#45; Weak symbols</text>
<text text-anchor="middle" x="613.5" y="-82.8" font-family="Times,serif" font-size="14.00">&#45; ObjC classes/ivars/EH</text>
</g>
<!-- process_v4_exports&#45;&gt;process_v4_reexports -->
<g id="edge13" class="edge">
<title>process_v4_exports&#45;&gt;process_v4_reexports</title>
<path fill="none" stroke="black" d="M649.44,-179.84C644.9,-171.02 639.94,-161.37 635.18,-152.14"/>
<polygon fill="black" stroke="black" points="638.22,-150.39 630.53,-143.09 631.99,-153.59 638.22,-150.39"/>
</g>
<!-- process_v4_globals -->
<g id="node14" class="node">
<title>process_v4_globals</title>
<path fill="none" stroke="black" d="M500,-38C500,-38 341,-38 341,-38 335,-38 329,-32 329,-26 329,-26 329,-12 329,-12 329,-6 335,0 341,0 341,0 500,0 500,0 506,0 512,-6 512,-12 512,-12 512,-26 512,-26 512,-32 506,-38 500,-38"/>
<text text-anchor="middle" x="420.5" y="-22.8" font-family="Times,serif" font-size="14.00">Process v4 global:</text>
<text text-anchor="middle" x="420.5" y="-7.8" font-family="Times,serif" font-size="14.00">&#45; ObjC classes/ivars/EH</text>
</g>
<!-- process_v4_reexports&#45;&gt;process_v4_globals -->
<g id="edge14" class="edge">
<title>process_v4_reexports&#45;&gt;process_v4_globals</title>
<path fill="none" stroke="black" d="M541.08,-74.98C517.14,-64.06 491.08,-52.18 469.33,-42.27"/>
<polygon fill="black" stroke="black" points="470.53,-38.97 459.98,-38 467.63,-45.34 470.53,-38.97"/>
</g>
<!-- process_v4_globals&#45;&gt;iterate_libs -->
<g id="edge15" class="edge">
<title>process_v4_globals&#45;&gt;iterate_libs</title>
<path fill="none" stroke="black" d="M416.57,-38.1C413.07,-55.83 408.5,-83.64 408.5,-108 408.5,-452 408.5,-452 408.5,-452 408.5,-471.91 413.53,-493.83 418.41,-510.42"/>
<polygon fill="black" stroke="black" points="415.07,-511.48 421.38,-519.99 421.76,-509.4 415.07,-511.48"/>
</g>
<!-- update_dependents -->
<g id="node16" class="node">
<title>update_dependents</title>
<path fill="none" stroke="black" d="M271,-358.5C271,-358.5 106,-358.5 106,-358.5 100,-358.5 94,-352.5 94,-346.5 94,-346.5 94,-334.5 94,-334.5 94,-328.5 100,-322.5 106,-322.5 106,-322.5 271,-322.5 271,-322.5 277,-322.5 283,-328.5 283,-334.5 283,-334.5 283,-346.5 283,-346.5 283,-352.5 277,-358.5 271,-358.5"/>
<text text-anchor="middle" x="188.5" y="-336.8" font-family="Times,serif" font-size="14.00">Add dependent libraries</text>
</g>
<!-- collect_reexports&#45;&gt;update_dependents -->
<g id="edge17" class="edge">
<title>collect_reexports&#45;&gt;update_dependents</title>
<path fill="none" stroke="black" d="M223.75,-432.57C217.01,-415.14 206.55,-388.13 198.77,-368.04"/>
<polygon fill="black" stroke="black" points="201.97,-366.59 195.09,-358.53 195.44,-369.12 201.97,-366.59"/>
<text text-anchor="middle" x="302" y="-403.8" font-family="Times,serif" font-size="14.00">process reexported libs</text>
</g>
<!-- update_dependents&#45;&gt;end -->
<g id="edge18" class="edge">
<title>update_dependents&#45;&gt;end</title>
<path fill="none" stroke="black" d="M173.44,-322.45C154.62,-301.15 122.26,-264.53 100.63,-240.04"/>
<polygon fill="black" stroke="black" points="102.98,-237.42 93.74,-232.24 97.73,-242.06 102.98,-237.42"/>
</g>
</g>
</svg>
