<?xml version="1.0" encoding="UTF-8" standalone="no"?>
<!DOCTYPE svg PUBLIC "-//W3C//DTD SVG 1.1//EN"
 "http://www.w3.org/Graphics/SVG/1.1/DTD/svg11.dtd">
<!-- Generated by graphviz version 2.43.0 (0)
 -->
<!-- Title: writeImportTables_flowchart Pages: 1 -->
<svg width="817pt" height="996pt"
 viewBox="0.00 0.00 816.50 996.00" xmlns="http://www.w3.org/2000/svg" xmlns:xlink="http://www.w3.org/1999/xlink">
<g id="graph0" class="graph" transform="scale(1 1) rotate(0) translate(4 992)">
<title>writeImportTables_flowchart</title>
<polygon fill="white" stroke="transparent" points="-4,4 -4,-992 812.5,-992 812.5,4 -4,4"/>
<!-- start -->
<g id="node1" class="node">
<title>start</title>
<path fill="none" stroke="black" d="M696,-988C696,-988 666,-988 666,-988 660,-988 654,-982 654,-976 654,-976 654,-964 654,-964 654,-958 660,-952 666,-952 666,-952 696,-952 696,-952 702,-952 708,-958 708,-964 708,-964 708,-976 708,-976 708,-982 702,-988 696,-988"/>
<text text-anchor="middle" x="681" y="-966.3" font-family="Times,serif" font-size="14.00">开始</text>
</g>
<!-- check_idata_section -->
<g id="node2" class="node">
<title>check_idata_section</title>
<path fill="none" stroke="black" d="M796.5,-915C796.5,-915 565.5,-915 565.5,-915 559.5,-915 553.5,-909 553.5,-903 553.5,-903 553.5,-891 553.5,-891 553.5,-885 559.5,-879 565.5,-879 565.5,-879 796.5,-879 796.5,-879 802.5,-879 808.5,-885 808.5,-891 808.5,-891 808.5,-903 808.5,-903 808.5,-909 802.5,-915 796.5,-915"/>
<text text-anchor="middle" x="681" y="-893.3" font-family="Times,serif" font-size="14.00">coff.idata_section_index 是否存在?</text>
</g>
<!-- start&#45;&gt;check_idata_section -->
<g id="edge1" class="edge">
<title>start&#45;&gt;check_idata_section</title>
<path fill="none" stroke="black" d="M681,-951.81C681,-943.79 681,-934.05 681,-925.07"/>
<polygon fill="black" stroke="black" points="684.5,-925.03 681,-915.03 677.5,-925.03 684.5,-925.03"/>
</g>
<!-- check_imports_dirty -->
<g id="node3" class="node">
<title>check_imports_dirty</title>
<path fill="none" stroke="black" d="M719.5,-828C719.5,-828 484.5,-828 484.5,-828 478.5,-828 472.5,-822 472.5,-816 472.5,-816 472.5,-804 472.5,-804 472.5,-798 478.5,-792 484.5,-792 484.5,-792 719.5,-792 719.5,-792 725.5,-792 731.5,-798 731.5,-804 731.5,-804 731.5,-816 731.5,-816 731.5,-822 725.5,-828 719.5,-828"/>
<text text-anchor="middle" x="602" y="-806.3" font-family="Times,serif" font-size="14.00">coff.imports_count_dirty 是否为真?</text>
</g>
<!-- check_idata_section&#45;&gt;check_imports_dirty -->
<g id="edge2" class="edge">
<title>check_idata_section&#45;&gt;check_imports_dirty</title>
<path fill="none" stroke="black" d="M665.01,-878.8C653.45,-866.36 637.66,-849.36 624.77,-835.5"/>
<polygon fill="black" stroke="black" points="627.33,-833.12 617.96,-828.18 622.21,-837.88 627.33,-833.12"/>
<text text-anchor="middle" x="654.5" y="-849.8" font-family="Times,serif" font-size="14.00">是</text>
</g>
<!-- end -->
<g id="node20" class="node">
<title>end</title>
<path fill="none" stroke="black" d="M732,-36C732,-36 702,-36 702,-36 696,-36 690,-30 690,-24 690,-24 690,-12 690,-12 690,-6 696,0 702,0 702,0 732,0 732,0 738,0 744,-6 744,-12 744,-12 744,-24 744,-24 744,-30 738,-36 732,-36"/>
<text text-anchor="middle" x="717" y="-14.3" font-family="Times,serif" font-size="14.00">结束</text>
</g>
<!-- check_idata_section&#45;&gt;end -->
<g id="edge3" class="edge">
<title>check_idata_section&#45;&gt;end</title>
<path fill="none" stroke="black" d="M712.22,-878.7C734.3,-863.92 760,-840.41 760,-811 760,-811 760,-811 760,-91 760,-73.8 750.84,-57.14 740.98,-44.19"/>
<polygon fill="black" stroke="black" points="743.53,-41.77 734.49,-36.25 738.11,-46.2 743.53,-41.77"/>
<text text-anchor="middle" x="767.5" y="-452.8" font-family="Times,serif" font-size="14.00">否</text>
</g>
<!-- calculate_sizes -->
<g id="node4" class="node">
<title>calculate_sizes</title>
<path fill="none" stroke="black" d="M676.5,-741C676.5,-741 407.5,-741 407.5,-741 401.5,-741 395.5,-735 395.5,-729 395.5,-729 395.5,-715 395.5,-715 395.5,-709 401.5,-703 407.5,-703 407.5,-703 676.5,-703 676.5,-703 682.5,-703 688.5,-709 688.5,-715 688.5,-715 688.5,-729 688.5,-729 688.5,-735 682.5,-741 676.5,-741"/>
<text text-anchor="middle" x="542" y="-725.8" font-family="Times,serif" font-size="14.00">计算各部分所需大小</text>
<text text-anchor="middle" x="542" y="-710.8" font-family="Times,serif" font-size="14.00">(IAT、目录表、查找表、名称表、DLL名称)</text>
</g>
<!-- check_imports_dirty&#45;&gt;calculate_sizes -->
<g id="edge4" class="edge">
<title>check_imports_dirty&#45;&gt;calculate_sizes</title>
<path fill="none" stroke="black" d="M589.86,-791.6C581.49,-779.6 570.2,-763.42 560.69,-749.79"/>
<polygon fill="black" stroke="black" points="563.34,-747.47 554.75,-741.27 557.6,-751.47 563.34,-747.47"/>
<text text-anchor="middle" x="585.5" y="-762.8" font-family="Times,serif" font-size="14.00">是</text>
</g>
<!-- check_imports_dirty&#45;&gt;end -->
<g id="edge5" class="edge">
<title>check_imports_dirty&#45;&gt;end</title>
<path fill="none" stroke="black" d="M655.12,-791.93C685.26,-778.57 717,-756.53 717,-723 717,-723 717,-723 717,-91 717,-76.21 717,-59.7 717,-46.23"/>
<polygon fill="black" stroke="black" points="720.5,-46.17 717,-36.17 713.5,-46.17 720.5,-46.17"/>
<text text-anchor="middle" x="724.5" y="-409.3" font-family="Times,serif" font-size="14.00">否</text>
</g>
<!-- grow_section -->
<g id="node5" class="node">
<title>grow_section</title>
<path fill="none" stroke="black" d="M591,-666C591,-666 487,-666 487,-666 481,-666 475,-660 475,-654 475,-654 475,-642 475,-642 475,-636 481,-630 487,-630 487,-630 591,-630 591,-630 597,-630 603,-636 603,-642 603,-642 603,-654 603,-654 603,-660 597,-666 591,-666"/>
<text text-anchor="middle" x="539" y="-644.3" font-family="Times,serif" font-size="14.00">扩展.idata节大小</text>
</g>
<!-- calculate_sizes&#45;&gt;grow_section -->
<g id="edge6" class="edge">
<title>calculate_sizes&#45;&gt;grow_section</title>
<path fill="none" stroke="black" d="M541.24,-702.83C540.91,-694.89 540.52,-685.41 540.15,-676.63"/>
<polygon fill="black" stroke="black" points="543.64,-676.26 539.73,-666.42 536.65,-676.55 543.64,-676.26"/>
</g>
<!-- init_buffer -->
<g id="node6" class="node">
<title>init_buffer</title>
<path fill="none" stroke="black" d="M602.5,-593C602.5,-593 453.5,-593 453.5,-593 447.5,-593 441.5,-587 441.5,-581 441.5,-581 441.5,-569 441.5,-569 441.5,-563 447.5,-557 453.5,-557 453.5,-557 602.5,-557 602.5,-557 608.5,-557 614.5,-563 614.5,-569 614.5,-569 614.5,-581 614.5,-581 614.5,-587 608.5,-593 602.5,-593"/>
<text text-anchor="middle" x="528" y="-571.3" font-family="Times,serif" font-size="14.00">初始化缓冲区并分配空间</text>
</g>
<!-- grow_section&#45;&gt;init_buffer -->
<g id="edge7" class="edge">
<title>grow_section&#45;&gt;init_buffer</title>
<path fill="none" stroke="black" d="M536.34,-629.81C535.09,-621.79 533.58,-612.05 532.19,-603.07"/>
<polygon fill="black" stroke="black" points="535.63,-602.38 530.64,-593.03 528.71,-603.45 535.63,-602.38"/>
</g>
<!-- setup_offsets -->
<g id="node7" class="node">
<title>setup_offsets</title>
<path fill="none" stroke="black" d="M584.5,-520C584.5,-520 383.5,-520 383.5,-520 377.5,-520 371.5,-514 371.5,-508 371.5,-508 371.5,-494 371.5,-494 371.5,-488 377.5,-482 383.5,-482 383.5,-482 584.5,-482 584.5,-482 590.5,-482 596.5,-488 596.5,-494 596.5,-494 596.5,-508 596.5,-508 596.5,-514 590.5,-520 584.5,-520"/>
<text text-anchor="middle" x="484" y="-504.8" font-family="Times,serif" font-size="14.00">设置各部分偏移量</text>
<text text-anchor="middle" x="484" y="-489.8" font-family="Times,serif" font-size="14.00">(iat_offset, dir_table_offset等)</text>
</g>
<!-- init_buffer&#45;&gt;setup_offsets -->
<g id="edge8" class="edge">
<title>init_buffer&#45;&gt;setup_offsets</title>
<path fill="none" stroke="black" d="M517.57,-556.94C512.45,-548.55 506.16,-538.26 500.41,-528.85"/>
<polygon fill="black" stroke="black" points="503.32,-526.91 495.12,-520.2 497.35,-530.56 503.32,-526.91"/>
</g>
<!-- loop_libraries -->
<g id="node8" class="node">
<title>loop_libraries</title>
<path fill="none" stroke="black" d="M485.5,-431C485.5,-431 364.5,-431 364.5,-431 358.5,-431 352.5,-425 352.5,-419 352.5,-419 352.5,-407 352.5,-407 352.5,-401 358.5,-395 364.5,-395 364.5,-395 485.5,-395 485.5,-395 491.5,-395 497.5,-401 497.5,-407 497.5,-407 497.5,-419 497.5,-419 497.5,-425 491.5,-431 485.5,-431"/>
<text text-anchor="middle" x="425" y="-409.3" font-family="Times,serif" font-size="14.00">循环处理每个导入库</text>
</g>
<!-- setup_offsets&#45;&gt;loop_libraries -->
<g id="edge9" class="edge">
<title>setup_offsets&#45;&gt;loop_libraries</title>
<path fill="none" stroke="black" d="M471.49,-481.76C463.05,-469.47 451.81,-453.07 442.49,-439.49"/>
<polygon fill="black" stroke="black" points="445.24,-437.31 436.69,-431.04 439.46,-441.27 445.24,-437.31"/>
</g>
<!-- fill_directory_entry -->
<g id="node9" class="node">
<title>fill_directory_entry</title>
<path fill="none" stroke="black" d="M372,-344C372,-344 280,-344 280,-344 274,-344 268,-338 268,-332 268,-332 268,-320 268,-320 268,-314 274,-308 280,-308 280,-308 372,-308 372,-308 378,-308 384,-314 384,-320 384,-320 384,-332 384,-332 384,-338 378,-344 372,-344"/>
<text text-anchor="middle" x="326" y="-322.3" font-family="Times,serif" font-size="14.00">填充目录表条目</text>
</g>
<!-- loop_libraries&#45;&gt;fill_directory_entry -->
<g id="edge10" class="edge">
<title>loop_libraries&#45;&gt;fill_directory_entry</title>
<path fill="none" stroke="black" d="M404.97,-394.8C390.21,-382.13 369.95,-364.73 353.65,-350.74"/>
<polygon fill="black" stroke="black" points="355.87,-348.03 346,-344.18 351.31,-353.35 355.87,-348.03"/>
</g>
<!-- add_directory_sentinel -->
<g id="node16" class="node">
<title>add_directory_sentinel</title>
<path fill="none" stroke="black" d="M608.5,-344C608.5,-344 487.5,-344 487.5,-344 481.5,-344 475.5,-338 475.5,-332 475.5,-332 475.5,-320 475.5,-320 475.5,-314 481.5,-308 487.5,-308 487.5,-308 608.5,-308 608.5,-308 614.5,-308 620.5,-314 620.5,-320 620.5,-320 620.5,-332 620.5,-332 620.5,-338 614.5,-344 608.5,-344"/>
<text text-anchor="middle" x="548" y="-322.3" font-family="Times,serif" font-size="14.00">添加目录表哨兵条目</text>
</g>
<!-- loop_libraries&#45;&gt;add_directory_sentinel -->
<g id="edge19" class="edge">
<title>loop_libraries&#45;&gt;add_directory_sentinel</title>
<path fill="none" stroke="black" d="M449.89,-394.8C468.56,-381.9 494.31,-364.1 514.75,-349.98"/>
<polygon fill="black" stroke="black" points="516.91,-352.74 523.15,-344.18 512.93,-346.98 516.91,-352.74"/>
<text text-anchor="middle" x="544" y="-365.8" font-family="Times,serif" font-size="14.00">所有库处理完毕</text>
</g>
<!-- loop_entries -->
<g id="node10" class="node">
<title>loop_entries</title>
<path fill="none" stroke="black" d="M294,-271C294,-271 130,-271 130,-271 124,-271 118,-265 118,-259 118,-259 118,-247 118,-247 118,-241 124,-235 130,-235 130,-235 294,-235 294,-235 300,-235 306,-241 306,-247 306,-247 306,-259 306,-259 306,-265 300,-271 294,-271"/>
<text text-anchor="middle" x="212" y="-249.3" font-family="Times,serif" font-size="14.00">循环处理库中的每个导入项</text>
</g>
<!-- fill_directory_entry&#45;&gt;loop_entries -->
<g id="edge11" class="edge">
<title>fill_directory_entry&#45;&gt;loop_entries</title>
<path fill="none" stroke="black" d="M298.69,-307.99C283.58,-298.58 264.59,-286.76 248.25,-276.57"/>
<polygon fill="black" stroke="black" points="249.82,-273.43 239.48,-271.11 246.12,-279.37 249.82,-273.43"/>
</g>
<!-- fill_iat_and_lookup -->
<g id="node11" class="node">
<title>fill_iat_and_lookup</title>
<path fill="none" stroke="black" d="M236,-184C236,-184 106,-184 106,-184 100,-184 94,-178 94,-172 94,-172 94,-160 94,-160 94,-154 100,-148 106,-148 106,-148 236,-148 236,-148 242,-148 248,-154 248,-160 248,-160 248,-172 248,-172 248,-178 242,-184 236,-184"/>
<text text-anchor="middle" x="171" y="-162.3" font-family="Times,serif" font-size="14.00">填充IAT和查找表条目</text>
</g>
<!-- loop_entries&#45;&gt;fill_iat_and_lookup -->
<g id="edge12" class="edge">
<title>loop_entries&#45;&gt;fill_iat_and_lookup</title>
<path fill="none" stroke="black" d="M203.7,-234.8C197.98,-222.93 190.26,-206.93 183.76,-193.45"/>
<polygon fill="black" stroke="black" points="186.78,-191.66 179.28,-184.18 180.48,-194.7 186.78,-191.66"/>
</g>
<!-- add_iat_sentinel -->
<g id="node13" class="node">
<title>add_iat_sentinel</title>
<path fill="none" stroke="black" d="M379.5,-184C379.5,-184 278.5,-184 278.5,-184 272.5,-184 266.5,-178 266.5,-172 266.5,-172 266.5,-160 266.5,-160 266.5,-154 272.5,-148 278.5,-148 278.5,-148 379.5,-148 379.5,-148 385.5,-148 391.5,-154 391.5,-160 391.5,-160 391.5,-172 391.5,-172 391.5,-178 385.5,-184 379.5,-184"/>
<text text-anchor="middle" x="329" y="-162.3" font-family="Times,serif" font-size="14.00">添加IAT哨兵条目</text>
</g>
<!-- loop_entries&#45;&gt;add_iat_sentinel -->
<g id="edge15" class="edge">
<title>loop_entries&#45;&gt;add_iat_sentinel</title>
<path fill="none" stroke="black" d="M235.68,-234.8C253.36,-221.95 277.72,-204.26 297.11,-190.17"/>
<polygon fill="black" stroke="black" points="299.33,-192.88 305.36,-184.18 295.21,-187.22 299.33,-192.88"/>
<text text-anchor="middle" x="335.5" y="-205.8" font-family="Times,serif" font-size="14.00">所有条目处理完毕</text>
</g>
<!-- fill_names_table -->
<g id="node12" class="node">
<title>fill_names_table</title>
<path fill="none" stroke="black" d="M150,-111C150,-111 12,-111 12,-111 6,-111 0,-105 0,-99 0,-99 0,-85 0,-85 0,-79 6,-73 12,-73 12,-73 150,-73 150,-73 156,-73 162,-79 162,-85 162,-85 162,-99 162,-99 162,-105 156,-111 150,-111"/>
<text text-anchor="middle" x="81" y="-95.8" font-family="Times,serif" font-size="14.00">填充名称表条目</text>
<text text-anchor="middle" x="81" y="-80.8" font-family="Times,serif" font-size="14.00">（包含Hint和符号名）</text>
</g>
<!-- fill_iat_and_lookup&#45;&gt;fill_names_table -->
<g id="edge13" class="edge">
<title>fill_iat_and_lookup&#45;&gt;fill_names_table</title>
<path fill="none" stroke="black" d="M149.67,-147.94C138.33,-138.86 124.18,-127.55 111.68,-117.54"/>
<polygon fill="black" stroke="black" points="113.74,-114.71 103.75,-111.2 109.37,-120.18 113.74,-114.71"/>
</g>
<!-- fill_names_table&#45;&gt;loop_entries -->
<g id="edge14" class="edge">
<title>fill_names_table&#45;&gt;loop_entries</title>
<path fill="none" stroke="black" d="M47.61,-111.06C34.26,-120.21 20.33,-132.65 13,-148 6.11,-162.44 3.69,-170.99 13,-184 34.98,-214.74 71.73,-231.74 107.7,-241.09"/>
<polygon fill="black" stroke="black" points="107.27,-244.58 117.81,-243.52 108.91,-237.78 107.27,-244.58"/>
<text text-anchor="middle" x="49" y="-162.3" font-family="Times,serif" font-size="14.00">下一个条目</text>
</g>
<!-- add_lookup_sentinel -->
<g id="node14" class="node">
<title>add_lookup_sentinel</title>
<path fill="none" stroke="black" d="M384.5,-110C384.5,-110 263.5,-110 263.5,-110 257.5,-110 251.5,-104 251.5,-98 251.5,-98 251.5,-86 251.5,-86 251.5,-80 257.5,-74 263.5,-74 263.5,-74 384.5,-74 384.5,-74 390.5,-74 396.5,-80 396.5,-86 396.5,-86 396.5,-98 396.5,-98 396.5,-104 390.5,-110 384.5,-110"/>
<text text-anchor="middle" x="324" y="-88.3" font-family="Times,serif" font-size="14.00">添加查找表哨兵条目</text>
</g>
<!-- add_iat_sentinel&#45;&gt;add_lookup_sentinel -->
<g id="edge16" class="edge">
<title>add_iat_sentinel&#45;&gt;add_lookup_sentinel</title>
<path fill="none" stroke="black" d="M327.82,-147.94C327.25,-139.81 326.56,-129.88 325.92,-120.7"/>
<polygon fill="black" stroke="black" points="329.4,-120.17 325.21,-110.44 322.41,-120.66 329.4,-120.17"/>
</g>
<!-- fill_dll_name -->
<g id="node15" class="node">
<title>fill_dll_name</title>
<path fill="none" stroke="black" d="M433.5,-36C433.5,-36 354.5,-36 354.5,-36 348.5,-36 342.5,-30 342.5,-24 342.5,-24 342.5,-12 342.5,-12 342.5,-6 348.5,0 354.5,0 354.5,0 433.5,0 433.5,0 439.5,0 445.5,-6 445.5,-12 445.5,-12 445.5,-24 445.5,-24 445.5,-30 439.5,-36 433.5,-36"/>
<text text-anchor="middle" x="394" y="-14.3" font-family="Times,serif" font-size="14.00">填充DLL名称</text>
</g>
<!-- add_lookup_sentinel&#45;&gt;fill_dll_name -->
<g id="edge17" class="edge">
<title>add_lookup_sentinel&#45;&gt;fill_dll_name</title>
<path fill="none" stroke="black" d="M340.59,-73.94C349.35,-64.92 360.27,-53.7 369.94,-43.74"/>
<polygon fill="black" stroke="black" points="372.58,-46.05 377.04,-36.44 367.56,-41.17 372.58,-46.05"/>
</g>
<!-- fill_dll_name&#45;&gt;loop_libraries -->
<g id="edge18" class="edge">
<title>fill_dll_name&#45;&gt;loop_libraries</title>
<path fill="none" stroke="black" d="M406.07,-36.16C414.78,-50.22 425,-70.99 425,-91 425,-327 425,-327 425,-327 425,-346.25 425,-367.95 425,-384.6"/>
<polygon fill="black" stroke="black" points="421.5,-384.74 425,-394.74 428.5,-384.74 421.5,-384.74"/>
<text text-anchor="middle" x="454" y="-205.8" font-family="Times,serif" font-size="14.00">下一个库</text>
</g>
<!-- pwrite_data -->
<g id="node17" class="node">
<title>pwrite_data</title>
<path fill="none" stroke="black" d="M603.5,-271C603.5,-271 496.5,-271 496.5,-271 490.5,-271 484.5,-265 484.5,-259 484.5,-259 484.5,-247 484.5,-247 484.5,-241 490.5,-235 496.5,-235 496.5,-235 603.5,-235 603.5,-235 609.5,-235 615.5,-241 615.5,-247 615.5,-247 615.5,-259 615.5,-259 615.5,-265 609.5,-271 603.5,-271"/>
<text text-anchor="middle" x="550" y="-249.3" font-family="Times,serif" font-size="14.00">将缓冲区写入文件</text>
</g>
<!-- add_directory_sentinel&#45;&gt;pwrite_data -->
<g id="edge20" class="edge">
<title>add_directory_sentinel&#45;&gt;pwrite_data</title>
<path fill="none" stroke="black" d="M548.48,-307.81C548.71,-299.79 548.98,-290.05 549.24,-281.07"/>
<polygon fill="black" stroke="black" points="552.74,-281.12 549.52,-271.03 545.74,-280.93 552.74,-281.12"/>
</g>
<!-- update_data_directories -->
<g id="node18" class="node">
<title>update_data_directories</title>
<path fill="none" stroke="black" d="M620.5,-184C620.5,-184 513.5,-184 513.5,-184 507.5,-184 501.5,-178 501.5,-172 501.5,-172 501.5,-160 501.5,-160 501.5,-154 507.5,-148 513.5,-148 513.5,-148 620.5,-148 620.5,-148 626.5,-148 632.5,-154 632.5,-160 632.5,-160 632.5,-172 632.5,-172 632.5,-178 626.5,-184 620.5,-184"/>
<text text-anchor="middle" x="567" y="-162.3" font-family="Times,serif" font-size="14.00">更新数据目录信息</text>
</g>
<!-- pwrite_data&#45;&gt;update_data_directories -->
<g id="edge21" class="edge">
<title>pwrite_data&#45;&gt;update_data_directories</title>
<path fill="none" stroke="black" d="M553.44,-234.8C555.77,-223.16 558.89,-207.55 561.55,-194.24"/>
<polygon fill="black" stroke="black" points="565.04,-194.67 563.56,-184.18 558.17,-193.29 565.04,-194.67"/>
</g>
<!-- set_imports_clean -->
<g id="node19" class="node">
<title>set_imports_clean</title>
<path fill="none" stroke="black" d="M677,-110C677,-110 465,-110 465,-110 459,-110 453,-104 453,-98 453,-98 453,-86 453,-86 453,-80 459,-74 465,-74 465,-74 677,-74 677,-74 683,-74 689,-80 689,-86 689,-86 689,-98 689,-98 689,-104 683,-110 677,-110"/>
<text text-anchor="middle" x="571" y="-88.3" font-family="Times,serif" font-size="14.00">标记imports_count_dirty为false</text>
</g>
<!-- update_data_directories&#45;&gt;set_imports_clean -->
<g id="edge22" class="edge">
<title>update_data_directories&#45;&gt;set_imports_clean</title>
<path fill="none" stroke="black" d="M567.95,-147.94C568.4,-139.81 568.95,-129.88 569.46,-120.7"/>
<polygon fill="black" stroke="black" points="572.97,-120.62 570.03,-110.44 565.98,-120.23 572.97,-120.62"/>
</g>
<!-- set_imports_clean&#45;&gt;end -->
<g id="edge23" class="edge">
<title>set_imports_clean&#45;&gt;end</title>
<path fill="none" stroke="black" d="M605.6,-73.94C628.28,-62.75 657.87,-48.16 680.85,-36.83"/>
<polygon fill="black" stroke="black" points="682.52,-39.91 689.94,-32.34 679.43,-33.63 682.52,-39.91"/>
</g>
</g>
</svg>
