<?xml version="1.0" encoding="UTF-8" standalone="no"?>
<!DOCTYPE svg PUBLIC "-//W3C//DTD SVG 1.1//EN"
 "http://www.w3.org/Graphics/SVG/1.1/DTD/svg11.dtd">
<!-- Generated by graphviz version 2.43.0 (0)
 -->
<!-- Title: updateExports Pages: 1 -->
<svg width="961pt" height="1176pt"
 viewBox="0.00 0.00 961.00 1176.00" xmlns="http://www.w3.org/2000/svg" xmlns:xlink="http://www.w3.org/1999/xlink">
<g id="graph0" class="graph" transform="scale(1 1) rotate(0) translate(4 1172)">
<title>updateExports</title>
<polygon fill="white" stroke="transparent" points="-4,4 -4,-1172 957,-1172 957,4 -4,4"/>
<!-- start -->
<g id="node1" class="node">
<title>start</title>
<path fill="none" stroke="black" d="M232,-1168C232,-1168 202,-1168 202,-1168 196,-1168 190,-1162 190,-1156 190,-1156 190,-1144 190,-1144 190,-1138 196,-1132 202,-1132 202,-1132 232,-1132 232,-1132 238,-1132 244,-1138 244,-1144 244,-1144 244,-1156 244,-1156 244,-1162 238,-1168 232,-1168"/>
<text text-anchor="middle" x="217" y="-1146.3" font-family="Times,serif" font-size="14.00">开始</text>
</g>
<!-- check_panic -->
<g id="node2" class="node">
<title>check_panic</title>
<path fill="none" stroke="black" d="M422,-1095C422,-1095 12,-1095 12,-1095 6,-1095 0,-1089 0,-1083 0,-1083 0,-1071 0,-1071 0,-1065 6,-1059 12,-1059 12,-1059 422,-1059 422,-1059 428,-1059 434,-1065 434,-1071 434,-1071 434,-1083 434,-1083 434,-1089 428,-1095 422,-1095"/>
<text text-anchor="middle" x="217" y="-1073.3" font-family="Times,serif" font-size="14.00">检查 build_options.skip_non_native 和 builtin.object_format</text>
</g>
<!-- start&#45;&gt;check_panic -->
<g id="edge1" class="edge">
<title>start&#45;&gt;check_panic</title>
<path fill="none" stroke="black" d="M217,-1131.81C217,-1123.79 217,-1114.05 217,-1105.07"/>
<polygon fill="black" stroke="black" points="220.5,-1105.03 217,-1095.03 213.5,-1105.03 220.5,-1105.03"/>
</g>
<!-- panic -->
<g id="node3" class="node">
<title>panic</title>
<path fill="none" stroke="black" d="M199.5,-1008C199.5,-1008 154.5,-1008 154.5,-1008 148.5,-1008 142.5,-1002 142.5,-996 142.5,-996 142.5,-984 142.5,-984 142.5,-978 148.5,-972 154.5,-972 154.5,-972 199.5,-972 199.5,-972 205.5,-972 211.5,-978 211.5,-984 211.5,-984 211.5,-996 211.5,-996 211.5,-1002 205.5,-1008 199.5,-1008"/>
<text text-anchor="middle" x="177" y="-986.3" font-family="Times,serif" font-size="14.00">@panic</text>
</g>
<!-- check_panic&#45;&gt;panic -->
<g id="edge2" class="edge">
<title>check_panic&#45;&gt;panic</title>
<path fill="none" stroke="black" d="M208.91,-1058.8C203.32,-1046.93 195.79,-1030.93 189.45,-1017.45"/>
<polygon fill="black" stroke="black" points="192.51,-1015.73 185.08,-1008.18 186.17,-1018.71 192.51,-1015.73"/>
<text text-anchor="middle" x="229" y="-1029.8" font-family="Times,serif" font-size="14.00">条件成立</text>
</g>
<!-- init_vars -->
<g id="node4" class="node">
<title>init_vars</title>
<path fill="none" stroke="black" d="M468,-1008C468,-1008 242,-1008 242,-1008 236,-1008 230,-1002 230,-996 230,-996 230,-984 230,-984 230,-978 236,-972 242,-972 242,-972 468,-972 468,-972 474,-972 480,-978 480,-984 480,-984 480,-996 480,-996 480,-1002 474,-1008 468,-1008"/>
<text text-anchor="middle" x="355" y="-986.3" font-family="Times,serif" font-size="14.00">初始化变量 (zcu, ip, comp, target)</text>
</g>
<!-- check_panic&#45;&gt;init_vars -->
<g id="edge3" class="edge">
<title>check_panic&#45;&gt;init_vars</title>
<path fill="none" stroke="black" d="M244.93,-1058.8C266.06,-1045.78 295.28,-1027.78 318.31,-1013.6"/>
<polygon fill="black" stroke="black" points="320.44,-1016.4 327.12,-1008.18 316.77,-1010.44 320.44,-1016.4"/>
<text text-anchor="middle" x="331" y="-1029.8" font-family="Times,serif" font-size="14.00">条件不成立</text>
</g>
<!-- check_use_llvm -->
<g id="node5" class="node">
<title>check_use_llvm</title>
<path fill="none" stroke="black" d="M447.5,-935C447.5,-935 262.5,-935 262.5,-935 256.5,-935 250.5,-929 250.5,-923 250.5,-923 250.5,-911 250.5,-911 250.5,-905 256.5,-899 262.5,-899 262.5,-899 447.5,-899 447.5,-899 453.5,-899 459.5,-905 459.5,-911 459.5,-911 459.5,-923 459.5,-923 459.5,-929 453.5,-935 447.5,-935"/>
<text text-anchor="middle" x="355" y="-913.3" font-family="Times,serif" font-size="14.00">comp.config.use_llvm 为真?</text>
</g>
<!-- init_vars&#45;&gt;check_use_llvm -->
<g id="edge4" class="edge">
<title>init_vars&#45;&gt;check_use_llvm</title>
<path fill="none" stroke="black" d="M355,-971.81C355,-963.79 355,-954.05 355,-945.07"/>
<polygon fill="black" stroke="black" points="358.5,-945.03 355,-935.03 351.5,-945.03 358.5,-945.03"/>
</g>
<!-- process_exports_llvm -->
<g id="node6" class="node">
<title>process_exports_llvm</title>
<path fill="none" stroke="black" d="M597.5,-848C597.5,-848 384.5,-848 384.5,-848 378.5,-848 372.5,-842 372.5,-836 372.5,-836 372.5,-822 372.5,-822 372.5,-816 378.5,-810 384.5,-810 384.5,-810 597.5,-810 597.5,-810 603.5,-810 609.5,-816 609.5,-822 609.5,-822 609.5,-836 609.5,-836 609.5,-842 603.5,-848 597.5,-848"/>
<text text-anchor="middle" x="491" y="-832.8" font-family="Times,serif" font-size="14.00">遍历 export_indices:</text>
<text text-anchor="middle" x="491" y="-817.8" font-family="Times,serif" font-size="14.00">检查符号名称并设置 stage1_flags</text>
</g>
<!-- check_use_llvm&#45;&gt;process_exports_llvm -->
<g id="edge5" class="edge">
<title>check_use_llvm&#45;&gt;process_exports_llvm</title>
<path fill="none" stroke="black" d="M382.19,-898.8C402.72,-885.82 431.13,-867.86 453.77,-853.54"/>
<polygon fill="black" stroke="black" points="455.86,-856.36 462.45,-848.06 452.12,-850.44 455.86,-856.36"/>
<text text-anchor="middle" x="438.5" y="-869.8" font-family="Times,serif" font-size="14.00">是</text>
</g>
<!-- check_llvm_object -->
<g id="node7" class="node">
<title>check_llvm_object</title>
<path fill="none" stroke="black" d="M423,-773C423,-773 279,-773 279,-773 273,-773 267,-767 267,-761 267,-761 267,-749 267,-749 267,-743 273,-737 279,-737 279,-737 423,-737 423,-737 429,-737 435,-743 435,-749 435,-749 435,-761 435,-761 435,-767 429,-773 423,-773"/>
<text text-anchor="middle" x="351" y="-751.3" font-family="Times,serif" font-size="14.00">coff.llvm_object 存在?</text>
</g>
<!-- check_use_llvm&#45;&gt;check_llvm_object -->
<g id="edge7" class="edge">
<title>check_use_llvm&#45;&gt;check_llvm_object</title>
<path fill="none" stroke="black" d="M352.76,-898.99C351.07,-885.26 348.89,-865.42 348,-848 347.13,-831.13 347.53,-826.88 348,-810 348.24,-801.29 348.7,-791.8 349.19,-783.23"/>
<polygon fill="black" stroke="black" points="352.7,-783.21 349.81,-773.01 345.71,-782.78 352.7,-783.21"/>
<text text-anchor="middle" x="355.5" y="-825.3" font-family="Times,serif" font-size="14.00">否</text>
</g>
<!-- process_exports_llvm&#45;&gt;check_llvm_object -->
<g id="edge6" class="edge">
<title>process_exports_llvm&#45;&gt;check_llvm_object</title>
<path fill="none" stroke="black" d="M455.67,-809.83C436.79,-800.12 413.41,-788.1 393.53,-777.88"/>
<polygon fill="black" stroke="black" points="394.88,-774.63 384.39,-773.17 391.68,-780.86 394.88,-774.63"/>
</g>
<!-- call_llvm_update -->
<g id="node8" class="node">
<title>call_llvm_update</title>
<path fill="none" stroke="black" d="M405,-632C405,-632 189,-632 189,-632 183,-632 177,-626 177,-620 177,-620 177,-606 177,-606 177,-600 183,-594 189,-594 189,-594 405,-594 405,-594 411,-594 417,-600 417,-606 417,-606 417,-620 417,-620 417,-626 411,-632 405,-632"/>
<text text-anchor="middle" x="297" y="-616.8" font-family="Times,serif" font-size="14.00">调用 llvm_object.updateExports</text>
<text text-anchor="middle" x="297" y="-601.8" font-family="Times,serif" font-size="14.00">并返回</text>
</g>
<!-- check_llvm_object&#45;&gt;call_llvm_update -->
<g id="edge8" class="edge">
<title>check_llvm_object&#45;&gt;call_llvm_update</title>
<path fill="none" stroke="black" d="M344.38,-736.83C335.21,-713.06 318.54,-669.84 307.62,-641.53"/>
<polygon fill="black" stroke="black" points="310.88,-640.27 304.02,-632.19 304.35,-642.78 310.88,-640.27"/>
<text text-anchor="middle" x="352.5" y="-707.8" font-family="Times,serif" font-size="14.00">存在</text>
</g>
<!-- handle_metadata -->
<g id="node9" class="node">
<title>handle_metadata</title>
<path fill="none" stroke="black" d="M486,-686C486,-686 394,-686 394,-686 388,-686 382,-680 382,-674 382,-674 382,-662 382,-662 382,-656 388,-650 394,-650 394,-650 486,-650 486,-650 492,-650 498,-656 498,-662 498,-662 498,-674 498,-674 498,-680 492,-686 486,-686"/>
<text text-anchor="middle" x="440" y="-664.3" font-family="Times,serif" font-size="14.00">处理 metadata</text>
</g>
<!-- check_llvm_object&#45;&gt;handle_metadata -->
<g id="edge10" class="edge">
<title>check_llvm_object&#45;&gt;handle_metadata</title>
<path fill="none" stroke="black" d="M369.01,-736.8C382.16,-724.24 400.16,-707.05 414.74,-693.12"/>
<polygon fill="black" stroke="black" points="417.2,-695.61 422.02,-686.18 412.37,-690.55 417.2,-695.61"/>
<text text-anchor="middle" x="421.5" y="-707.8" font-family="Times,serif" font-size="14.00">不存在</text>
</g>
<!-- end -->
<g id="node21" class="node">
<title>end</title>
<path fill="none" stroke="black" d="M406,-36C406,-36 376,-36 376,-36 370,-36 364,-30 364,-24 364,-24 364,-12 364,-12 364,-6 370,0 376,0 376,0 406,0 406,0 412,0 418,-6 418,-12 418,-12 418,-24 418,-24 418,-30 412,-36 406,-36"/>
<text text-anchor="middle" x="391" y="-14.3" font-family="Times,serif" font-size="14.00">结束</text>
</g>
<!-- call_llvm_update&#45;&gt;end -->
<g id="edge9" class="edge">
<title>call_llvm_update&#45;&gt;end</title>
<path fill="none" stroke="black" d="M297,-593.85C297,-574.08 297,-541.55 297,-513.5 297,-513.5 297,-513.5 297,-91 297,-60.79 327.97,-41.54 354.36,-30.62"/>
<polygon fill="black" stroke="black" points="355.75,-33.84 363.81,-26.97 353.22,-27.31 355.75,-33.84"/>
</g>
<!-- nav_block -->
<g id="node10" class="node">
<title>nav_block</title>
<path fill="none" stroke="black" d="M678,-576C678,-576 506,-576 506,-576 500,-576 494,-570 494,-564 494,-564 494,-550 494,-550 494,-544 500,-538 506,-538 506,-538 678,-538 678,-538 684,-538 690,-544 690,-550 690,-550 690,-564 690,-564 690,-570 684,-576 678,-576"/>
<text text-anchor="middle" x="592" y="-560.8" font-family="Times,serif" font-size="14.00">metadata = nav:</text>
<text text-anchor="middle" x="592" y="-545.8" font-family="Times,serif" font-size="14.00">getOrCreateAtomForNav</text>
</g>
<!-- handle_metadata&#45;&gt;nav_block -->
<g id="edge11" class="edge">
<title>handle_metadata&#45;&gt;nav_block</title>
<path fill="none" stroke="black" d="M498.28,-657.46C516.62,-652.27 535.98,-644.27 551,-632 565.65,-620.03 575.93,-601.38 582.54,-585.79"/>
<polygon fill="black" stroke="black" points="585.95,-586.68 586.36,-576.09 579.44,-584.12 585.95,-586.68"/>
<text text-anchor="middle" x="637" y="-609.3" font-family="Times,serif" font-size="14.00">exported 是 .nav</text>
</g>
<!-- uav_block -->
<g id="node11" class="node">
<title>uav_block</title>
<path fill="none" stroke="black" d="M463.5,-576C463.5,-576 352.5,-576 352.5,-576 346.5,-576 340.5,-570 340.5,-564 340.5,-564 340.5,-550 340.5,-550 340.5,-544 346.5,-538 352.5,-538 352.5,-538 463.5,-538 463.5,-538 469.5,-538 475.5,-544 475.5,-550 475.5,-550 475.5,-564 475.5,-564 475.5,-570 469.5,-576 463.5,-576"/>
<text text-anchor="middle" x="408" y="-560.8" font-family="Times,serif" font-size="14.00">metadata = uav:</text>
<text text-anchor="middle" x="408" y="-545.8" font-family="Times,serif" font-size="14.00">lowerUav 处理</text>
</g>
<!-- handle_metadata&#45;&gt;uav_block -->
<g id="edge12" class="edge">
<title>handle_metadata&#45;&gt;uav_block</title>
<path fill="none" stroke="black" d="M435,-649.97C429.98,-632.86 422.15,-606.21 416.22,-585.99"/>
<polygon fill="black" stroke="black" points="419.57,-584.98 413.39,-576.37 412.85,-586.95 419.57,-584.98"/>
<text text-anchor="middle" x="488" y="-609.3" font-family="Times,serif" font-size="14.00">exported 是 .uav</text>
</g>
<!-- get_atom -->
<g id="node13" class="node">
<title>get_atom</title>
<path fill="none" stroke="black" d="M649.5,-487C649.5,-487 484.5,-487 484.5,-487 478.5,-487 472.5,-481 472.5,-475 472.5,-475 472.5,-463 472.5,-463 472.5,-457 478.5,-451 484.5,-451 484.5,-451 649.5,-451 649.5,-451 655.5,-451 661.5,-457 661.5,-463 661.5,-463 661.5,-475 661.5,-475 661.5,-481 655.5,-487 649.5,-487"/>
<text text-anchor="middle" x="567" y="-465.3" font-family="Times,serif" font-size="14.00">获取 atom_index 和 atom</text>
</g>
<!-- nav_block&#45;&gt;get_atom -->
<g id="edge16" class="edge">
<title>nav_block&#45;&gt;get_atom</title>
<path fill="none" stroke="black" d="M586.7,-537.76C583.23,-525.82 578.63,-510.01 574.75,-496.66"/>
<polygon fill="black" stroke="black" points="578.11,-495.67 571.95,-487.04 571.38,-497.62 578.11,-495.67"/>
</g>
<!-- handle_lowerUav_fail -->
<g id="node12" class="node">
<title>handle_lowerUav_fail</title>
<path fill="none" stroke="black" d="M492,-433C492,-433 324,-433 324,-433 318,-433 312,-427 312,-421 312,-421 312,-409 312,-409 312,-403 318,-397 324,-397 324,-397 492,-397 492,-397 498,-397 504,-403 504,-409 504,-409 504,-421 504,-421 504,-427 498,-433 492,-433"/>
<text text-anchor="middle" x="408" y="-411.3" font-family="Times,serif" font-size="14.00">记录失败到 failed_exports</text>
</g>
<!-- uav_block&#45;&gt;handle_lowerUav_fail -->
<g id="edge13" class="edge">
<title>uav_block&#45;&gt;handle_lowerUav_fail</title>
<path fill="none" stroke="black" d="M408,-537.98C408,-513.99 408,-471.33 408,-443.36"/>
<polygon fill="black" stroke="black" points="411.5,-443.07 408,-433.07 404.5,-443.07 411.5,-443.07"/>
<text text-anchor="middle" x="459" y="-508.8" font-family="Times,serif" font-size="14.00">lowerUav 失败</text>
</g>
<!-- uav_block&#45;&gt;get_atom -->
<g id="edge15" class="edge">
<title>uav_block&#45;&gt;get_atom</title>
<path fill="none" stroke="black" d="M475.54,-537.92C488.76,-533.05 502.18,-527.12 514,-520 525.35,-513.17 536.28,-503.57 545.23,-494.6"/>
<polygon fill="black" stroke="black" points="547.85,-496.92 552.26,-487.29 542.8,-492.07 547.85,-496.92"/>
<text text-anchor="middle" x="547.5" y="-508.8" font-family="Times,serif" font-size="14.00">成功</text>
</g>
<!-- handle_lowerUav_fail&#45;&gt;end -->
<g id="edge14" class="edge">
<title>handle_lowerUav_fail&#45;&gt;end</title>
<path fill="none" stroke="black" d="M385.97,-396.76C367.8,-380.44 345,-354.15 345,-325 345,-325 345,-325 345,-91 345,-73.31 354.98,-56.48 365.65,-43.54"/>
<polygon fill="black" stroke="black" points="368.29,-45.83 372.29,-36.02 363.05,-41.2 368.29,-45.83"/>
</g>
<!-- loop_exports -->
<g id="node14" class="node">
<title>loop_exports</title>
<path fill="none" stroke="black" d="M631,-379C631,-379 503,-379 503,-379 497,-379 491,-373 491,-367 491,-367 491,-355 491,-355 491,-349 497,-343 503,-343 503,-343 631,-343 631,-343 637,-343 643,-349 643,-355 643,-355 643,-367 643,-367 643,-373 637,-379 631,-379"/>
<text text-anchor="middle" x="567" y="-357.3" font-family="Times,serif" font-size="14.00">遍历 export_indices</text>
</g>
<!-- get_atom&#45;&gt;loop_exports -->
<g id="edge17" class="edge">
<title>get_atom&#45;&gt;loop_exports</title>
<path fill="none" stroke="black" d="M567,-450.97C567,-434.38 567,-408.88 567,-389.43"/>
<polygon fill="black" stroke="black" points="570.5,-389.34 567,-379.34 563.5,-389.34 570.5,-389.34"/>
</g>
<!-- check_section -->
<g id="node15" class="node">
<title>check_section</title>
<path fill="none" stroke="black" d="M683.5,-306C683.5,-306 450.5,-306 450.5,-306 444.5,-306 438.5,-300 438.5,-294 438.5,-294 438.5,-282 438.5,-282 438.5,-276 444.5,-270 450.5,-270 450.5,-270 683.5,-270 683.5,-270 689.5,-270 695.5,-276 695.5,-282 695.5,-282 695.5,-294 695.5,-294 695.5,-300 689.5,-306 683.5,-306"/>
<text text-anchor="middle" x="567" y="-284.3" font-family="Times,serif" font-size="14.00">检查 exp.opts.section 是否为 .text?</text>
</g>
<!-- loop_exports&#45;&gt;check_section -->
<g id="edge18" class="edge">
<title>loop_exports&#45;&gt;check_section</title>
<path fill="none" stroke="black" d="M567,-342.81C567,-334.79 567,-325.05 567,-316.07"/>
<polygon fill="black" stroke="black" points="570.5,-316.03 567,-306.03 563.5,-316.03 570.5,-316.03"/>
</g>
<!-- loop_exports&#45;&gt;end -->
<g id="edge27" class="edge">
<title>loop_exports&#45;&gt;end</title>
<path fill="none" stroke="black" d="M490.83,-357.83C443.26,-351.92 391,-334.96 391,-289 391,-289 391,-289 391,-91 391,-76.21 391,-59.7 391,-46.23"/>
<polygon fill="black" stroke="black" points="394.5,-46.17 391,-36.17 387.5,-46.17 394.5,-46.17"/>
<text text-anchor="middle" x="420" y="-197.3" font-family="Times,serif" font-size="14.00">遍历完成</text>
</g>
<!-- section_error -->
<g id="node16" class="node">
<title>section_error</title>
<path fill="none" stroke="black" d="M588,-165C588,-165 418,-165 418,-165 412,-165 406,-159 406,-153 406,-153 406,-141 406,-141 406,-135 412,-129 418,-129 418,-129 588,-129 588,-129 594,-129 600,-135 600,-141 600,-141 600,-153 600,-153 600,-159 594,-165 588,-165"/>
<text text-anchor="middle" x="503" y="-143.3" font-family="Times,serif" font-size="14.00">记录错误: 未实现的 section</text>
</g>
<!-- check_section&#45;&gt;section_error -->
<g id="edge19" class="edge">
<title>check_section&#45;&gt;section_error</title>
<path fill="none" stroke="black" d="M553.89,-269.94C544.22,-256.66 531.34,-237.45 523,-219 516.72,-205.1 511.95,-188.75 508.65,-175.26"/>
<polygon fill="black" stroke="black" points="511.97,-174.1 506.31,-165.14 505.15,-175.67 511.97,-174.1"/>
<text text-anchor="middle" x="566" y="-240.8" font-family="Times,serif" font-size="14.00">非 .text</text>
</g>
<!-- check_linkage -->
<g id="node17" class="node">
<title>check_linkage</title>
<path fill="none" stroke="black" d="M796.5,-219C796.5,-219 543.5,-219 543.5,-219 537.5,-219 531.5,-213 531.5,-207 531.5,-207 531.5,-195 531.5,-195 531.5,-189 537.5,-183 543.5,-183 543.5,-183 796.5,-183 796.5,-183 802.5,-183 808.5,-189 808.5,-195 808.5,-195 808.5,-207 808.5,-207 808.5,-213 802.5,-219 796.5,-219"/>
<text text-anchor="middle" x="670" y="-197.3" font-family="Times,serif" font-size="14.00">检查 exp.opts.linkage == .link_once?</text>
</g>
<!-- check_section&#45;&gt;check_linkage -->
<g id="edge21" class="edge">
<title>check_section&#45;&gt;check_linkage</title>
<path fill="none" stroke="black" d="M587.84,-269.8C603.2,-257.13 624.28,-239.73 641.24,-225.74"/>
<polygon fill="black" stroke="black" points="643.7,-228.24 649.19,-219.18 639.25,-222.84 643.7,-228.24"/>
<text text-anchor="middle" x="650" y="-240.8" font-family="Times,serif" font-size="14.00">是 .text</text>
</g>
<!-- section_error&#45;&gt;end -->
<g id="edge20" class="edge">
<title>section_error&#45;&gt;end</title>
<path fill="none" stroke="black" d="M471.56,-128.87C463.67,-123.74 455.59,-117.68 449,-111 429.85,-91.6 413.85,-64.82 403.54,-45.16"/>
<polygon fill="black" stroke="black" points="406.6,-43.46 398.95,-36.14 400.37,-46.64 406.6,-43.46"/>
</g>
<!-- linkage_error -->
<g id="node18" class="node">
<title>linkage_error</title>
<path fill="none" stroke="black" d="M654.5,-110C654.5,-110 469.5,-110 469.5,-110 463.5,-110 457.5,-104 457.5,-98 457.5,-98 457.5,-86 457.5,-86 457.5,-80 463.5,-74 469.5,-74 469.5,-74 654.5,-74 654.5,-74 660.5,-74 666.5,-80 666.5,-86 666.5,-86 666.5,-98 666.5,-98 666.5,-104 660.5,-110 654.5,-110"/>
<text text-anchor="middle" x="562" y="-88.3" font-family="Times,serif" font-size="14.00">记录错误: 未实现的 link_once</text>
</g>
<!-- check_linkage&#45;&gt;linkage_error -->
<g id="edge22" class="edge">
<title>check_linkage&#45;&gt;linkage_error</title>
<path fill="none" stroke="black" d="M651.62,-182.72C646.09,-177.23 640.13,-171.02 635,-165 622.2,-149.97 622.76,-143.15 609,-129 604.78,-124.66 600.01,-120.41 595.17,-116.43"/>
<polygon fill="black" stroke="black" points="597.06,-113.47 587.04,-110.05 592.74,-118.98 597.06,-113.47"/>
<text text-anchor="middle" x="677.5" y="-143.3" font-family="Times,serif" font-size="14.00">是 link_once</text>
</g>
<!-- process_symbol -->
<g id="node19" class="node">
<title>process_symbol</title>
<path fill="none" stroke="black" d="M855,-111C855,-111 697,-111 697,-111 691,-111 685,-105 685,-99 685,-99 685,-85 685,-85 685,-79 691,-73 697,-73 697,-73 855,-73 855,-73 861,-73 867,-79 867,-85 867,-85 867,-99 867,-99 867,-105 861,-111 855,-111"/>
<text text-anchor="middle" x="776" y="-95.8" font-family="Times,serif" font-size="14.00">处理符号名称和属性</text>
<text text-anchor="middle" x="776" y="-80.8" font-family="Times,serif" font-size="14.00">设置 sym 的值、段、类型</text>
</g>
<!-- check_linkage&#45;&gt;process_symbol -->
<g id="edge24" class="edge">
<title>check_linkage&#45;&gt;process_symbol</title>
<path fill="none" stroke="black" d="M700.6,-182.95C708.66,-177.74 717.04,-171.62 724,-165 737.97,-151.71 750.7,-134.23 760.07,-119.82"/>
<polygon fill="black" stroke="black" points="763.06,-121.63 765.45,-111.3 757.15,-117.89 763.06,-121.63"/>
<text text-anchor="middle" x="760.5" y="-143.3" font-family="Times,serif" font-size="14.00">否</text>
</g>
<!-- linkage_error&#45;&gt;end -->
<g id="edge23" class="edge">
<title>linkage_error&#45;&gt;end</title>
<path fill="none" stroke="black" d="M521.48,-73.94C492.94,-61.92 455.06,-45.97 427.47,-34.36"/>
<polygon fill="black" stroke="black" points="428.75,-31.1 418.17,-30.44 426.03,-37.55 428.75,-31.1"/>
</g>
<!-- resolve_global -->
<g id="node20" class="node">
<title>resolve_global</title>
<path fill="none" stroke="black" d="M898,-36C898,-36 820,-36 820,-36 814,-36 808,-30 808,-24 808,-24 808,-12 808,-12 808,-6 814,0 820,0 820,0 898,0 898,0 904,0 910,-6 910,-12 910,-12 910,-24 910,-24 910,-30 904,-36 898,-36"/>
<text text-anchor="middle" x="859" y="-14.3" font-family="Times,serif" font-size="14.00">解析全局符号</text>
</g>
<!-- process_symbol&#45;&gt;resolve_global -->
<g id="edge25" class="edge">
<title>process_symbol&#45;&gt;resolve_global</title>
<path fill="none" stroke="black" d="M796.94,-72.83C807.38,-63.78 820.13,-52.72 831.36,-42.98"/>
<polygon fill="black" stroke="black" points="833.94,-45.37 839.21,-36.17 829.36,-40.08 833.94,-45.37"/>
</g>
<!-- resolve_global&#45;&gt;loop_exports -->
<g id="edge26" class="edge">
<title>resolve_global&#45;&gt;loop_exports</title>
<path fill="none" stroke="black" d="M873.23,-36.15C883.29,-50.05 895,-70.6 895,-91 895,-289 895,-289 895,-289 895,-338.52 750.39,-353.58 653.2,-358.11"/>
<polygon fill="black" stroke="black" points="652.91,-354.62 643.07,-358.55 653.22,-361.61 652.91,-354.62"/>
<text text-anchor="middle" x="924" y="-197.3" font-family="Times,serif" font-size="14.00">继续遍历</text>
</g>
</g>
</svg>
