<?xml version="1.0" encoding="UTF-8" standalone="no"?>
<!DOCTYPE svg PUBLIC "-//W3C//DTD SVG 1.1//EN"
 "http://www.w3.org/Graphics/SVG/1.1/DTD/svg11.dtd">
<!-- Generated by graphviz version 2.43.0 (0)
 -->
<!-- Title: flowchart Pages: 1 -->
<svg width="1183pt" height="604pt"
 viewBox="0.00 0.00 1183.00 604.00" xmlns="http://www.w3.org/2000/svg" xmlns:xlink="http://www.w3.org/1999/xlink">
<g id="graph0" class="graph" transform="scale(1 1) rotate(0) translate(4 600)">
<title>flowchart</title>
<polygon fill="white" stroke="transparent" points="-4,4 -4,-600 1179,-600 1179,4 -4,4"/>
<g id="clust1" class="cluster">
<title>cluster_main</title>
<polygon fill="none" stroke="black" points="8,-65 8,-588 1131,-588 1131,-65 8,-65"/>
<text text-anchor="middle" x="569.5" y="-572.8" font-family="Times,serif" font-size="14.00">主处理流程</text>
</g>
<!-- start -->
<g id="node1" class="node">
<title>start</title>
<polygon fill="none" stroke="black" points="579.5,-557 472.5,-557 472.5,-521 579.5,-521 579.5,-557"/>
<text text-anchor="middle" x="526" y="-536.5" font-family="Courier,monospace" font-size="10.00">开始 analyzeInst</text>
</g>
<!-- switch_inst -->
<g id="node3" class="node">
<title>switch_inst</title>
<polygon fill="none" stroke="black" points="585.5,-474 466.5,-474 466.5,-438 585.5,-438 585.5,-474"/>
<text text-anchor="middle" x="526" y="-453.5" font-family="Courier,monospace" font-size="10.00">switch(inst_tags)</text>
</g>
<!-- start&#45;&gt;switch_inst -->
<g id="edge1" class="edge">
<title>start&#45;&gt;switch_inst</title>
<path fill="none" stroke="black" d="M526,-520.82C526,-510.19 526,-496.31 526,-484.2"/>
<polygon fill="black" stroke="black" points="529.5,-484.15 526,-474.15 522.5,-484.15 529.5,-484.15"/>
<text text-anchor="middle" x="563" y="-495" font-family="Courier,monospace" font-size="10.00">读取inst_tags</text>
</g>
<!-- end -->
<g id="node2" class="node">
<title>end</title>
<polygon fill="none" stroke="black" points="541,-36 487,-36 487,0 541,0 541,-36"/>
<text text-anchor="middle" x="514" y="-15.5" font-family="Courier,monospace" font-size="10.00">结束</text>
</g>
<!-- bin_ops -->
<g id="node4" class="node">
<title>bin_ops</title>
<polygon fill="none" stroke="black" points="439,-391 313,-391 313,-355 439,-355 439,-391"/>
<text text-anchor="middle" x="376" y="-376" font-family="Courier,monospace" font-size="10.00">提取二元操作数</text>
<text text-anchor="middle" x="376" y="-365" font-family="Courier,monospace" font-size="10.00">调用analyzeOperands</text>
</g>
<!-- switch_inst&#45;&gt;bin_ops -->
<g id="edge2" class="edge">
<title>switch_inst&#45;&gt;bin_ops</title>
<path fill="none" stroke="black" d="M469.79,-437.92C456.66,-432.95 443.02,-426.96 431,-420 420.33,-413.83 409.69,-405.55 400.65,-397.72"/>
<polygon fill="black" stroke="black" points="402.94,-395.07 393.16,-391.01 398.28,-400.29 402.94,-395.07"/>
<text text-anchor="middle" x="476.5" y="-412" font-family="Courier,monospace" font-size="10.00">算术/逻辑/存储指令</text>
</g>
<!-- vector_store -->
<g id="node5" class="node">
<title>vector_store</title>
<polygon fill="none" stroke="black" points="595,-391 457,-391 457,-355 595,-355 595,-391"/>
<text text-anchor="middle" x="526" y="-376" font-family="Courier,monospace" font-size="10.00">解析vector_store_elem</text>
<text text-anchor="middle" x="526" y="-365" font-family="Courier,monospace" font-size="10.00">提取额外数据</text>
</g>
<!-- switch_inst&#45;&gt;vector_store -->
<g id="edge3" class="edge">
<title>switch_inst&#45;&gt;vector_store</title>
<path fill="none" stroke="black" d="M526,-437.82C526,-427.19 526,-413.31 526,-401.2"/>
<polygon fill="black" stroke="black" points="529.5,-401.15 526,-391.15 522.5,-401.15 529.5,-401.15"/>
<text text-anchor="middle" x="580.5" y="-412" font-family="Courier,monospace" font-size="10.00">.vector_store_elem</text>
</g>
<!-- no_operands -->
<g id="node6" class="node">
<title>no_operands</title>
<polygon fill="none" stroke="black" points="739,-391 613,-391 613,-355 739,-355 739,-391"/>
<text text-anchor="middle" x="676" y="-376" font-family="Courier,monospace" font-size="10.00">调用analyzeOperands</text>
<text text-anchor="middle" x="676" y="-365" font-family="Courier,monospace" font-size="10.00">无操作数</text>
</g>
<!-- switch_inst&#45;&gt;no_operands -->
<g id="edge4" class="edge">
<title>switch_inst&#45;&gt;no_operands</title>
<path fill="none" stroke="black" d="M585.59,-443.64C603.76,-438.37 623.12,-430.79 639,-420 646.92,-414.62 653.99,-407.04 659.77,-399.58"/>
<polygon fill="black" stroke="black" points="662.93,-401.18 665.94,-391.02 657.25,-397.08 662.93,-401.18"/>
<text text-anchor="middle" x="707" y="-412" font-family="Courier,monospace" font-size="10.00">arg/alloc/ret_ptr等</text>
</g>
<!-- unary_ops -->
<g id="node7" class="node">
<title>unary_ops</title>
<polygon fill="none" stroke="black" points="883,-391 757,-391 757,-355 883,-355 883,-391"/>
<text text-anchor="middle" x="820" y="-376" font-family="Courier,monospace" font-size="10.00">提取一元操作数</text>
<text text-anchor="middle" x="820" y="-365" font-family="Courier,monospace" font-size="10.00">调用analyzeOperands</text>
</g>
<!-- switch_inst&#45;&gt;unary_ops -->
<g id="edge5" class="edge">
<title>switch_inst&#45;&gt;unary_ops</title>
<path fill="none" stroke="black" d="M585.58,-455.57C636.03,-453.94 709.15,-446.5 767,-420 778.31,-414.82 789.03,-406.46 797.83,-398.27"/>
<polygon fill="black" stroke="black" points="800.34,-400.71 805.03,-391.21 795.44,-395.71 800.34,-400.71"/>
<text text-anchor="middle" x="837" y="-412" font-family="Courier,monospace" font-size="10.00">not/bitcast/load等</text>
</g>
<!-- func_end -->
<g id="node8" class="node">
<title>func_end</title>
<polygon fill="none" stroke="black" points="1021,-391 901,-391 901,-355 1021,-355 1021,-391"/>
<text text-anchor="middle" x="961" y="-370.5" font-family="Courier,monospace" font-size="10.00">调用analyzeFuncEnd</text>
</g>
<!-- switch_inst&#45;&gt;func_end -->
<g id="edge6" class="edge">
<title>switch_inst&#45;&gt;func_end</title>
<path fill="none" stroke="black" d="M585.61,-452.96C674.92,-449.29 838.88,-440.01 894,-420 908.19,-414.85 922.23,-405.96 933.76,-397.37"/>
<polygon fill="black" stroke="black" points="935.93,-400.12 941.68,-391.22 931.63,-394.59 935.93,-400.12"/>
<text text-anchor="middle" x="957.5" y="-412" font-family="Courier,monospace" font-size="10.00">.trap/.unreach</text>
</g>
<!-- call_ops -->
<g id="node9" class="node">
<title>call_ops</title>
<polygon fill="none" stroke="black" points="187.5,-391 122.5,-391 122.5,-355 187.5,-355 187.5,-391"/>
<text text-anchor="middle" x="155" y="-370.5" font-family="Courier,monospace" font-size="10.00">call_ops</text>
</g>
<!-- switch_inst&#45;&gt;call_ops -->
<g id="edge7" class="edge">
<title>switch_inst&#45;&gt;call_ops</title>
<path fill="none" stroke="black" d="M466.43,-455.27C405.66,-453.86 309.4,-446.96 231,-420 215.09,-414.53 198.93,-405.37 185.64,-396.65"/>
<polygon fill="black" stroke="black" points="187.58,-393.74 177.34,-391.03 183.66,-399.54 187.58,-393.74"/>
<text text-anchor="middle" x="256" y="-412" font-family="Courier,monospace" font-size="10.00">.call系列</text>
</g>
<!-- assembly_ops -->
<g id="node10" class="node">
<title>assembly_ops</title>
<polygon fill="none" stroke="black" points="104.5,-391 15.5,-391 15.5,-355 104.5,-355 104.5,-391"/>
<text text-anchor="middle" x="60" y="-370.5" font-family="Courier,monospace" font-size="10.00">assembly_ops</text>
</g>
<!-- switch_inst&#45;&gt;assembly_ops -->
<g id="edge8" class="edge">
<title>switch_inst&#45;&gt;assembly_ops</title>
<path fill="none" stroke="black" d="M466.17,-452.29C375.06,-447.68 206,-437.12 148,-420 129.62,-414.57 110.6,-405.19 94.97,-396.3"/>
<polygon fill="black" stroke="black" points="96.59,-393.19 86.19,-391.16 93.06,-399.23 96.59,-393.19"/>
<text text-anchor="middle" x="175.5" y="-412" font-family="Courier,monospace" font-size="10.00">.assembly</text>
</g>
<!-- control_flow -->
<g id="node11" class="node">
<title>control_flow</title>
<polygon fill="none" stroke="black" points="294.5,-391 205.5,-391 205.5,-355 294.5,-355 294.5,-391"/>
<text text-anchor="middle" x="250" y="-370.5" font-family="Courier,monospace" font-size="10.00">control_flow</text>
</g>
<!-- switch_inst&#45;&gt;control_flow -->
<g id="edge9" class="edge">
<title>switch_inst&#45;&gt;control_flow</title>
<path fill="none" stroke="black" d="M466.45,-454.32C420.24,-451.78 355.58,-443.72 304,-420 292.58,-414.75 281.68,-406.37 272.7,-398.19"/>
<polygon fill="black" stroke="black" points="274.98,-395.53 265.34,-391.14 270.14,-400.59 274.98,-395.53"/>
<text text-anchor="middle" x="357" y="-412" font-family="Courier,monospace" font-size="10.00">br/repeat/switch等</text>
</g>
<!-- other_cases -->
<g id="node12" class="node">
<title>other_cases</title>
<polygon fill="none" stroke="black" points="1122.5,-391 1039.5,-391 1039.5,-355 1122.5,-355 1122.5,-391"/>
<text text-anchor="middle" x="1081" y="-370.5" font-family="Courier,monospace" font-size="10.00">other_cases</text>
</g>
<!-- switch_inst&#45;&gt;other_cases -->
<g id="edge10" class="edge">
<title>switch_inst&#45;&gt;other_cases</title>
<path fill="none" stroke="black" d="M585.54,-454.06C695.83,-451.75 927.63,-444.11 1004,-420 1020.32,-414.85 1036.82,-405.64 1050.34,-396.81"/>
<polygon fill="black" stroke="black" points="1052.45,-399.61 1058.76,-391.1 1048.52,-393.81 1052.45,-399.61"/>
<text text-anchor="middle" x="1057.5" y="-412" font-family="Courier,monospace" font-size="10.00">其他指令分支</text>
</g>
<!-- bin_ops&#45;&gt;end -->
<g id="edge19" class="edge">
<title>bin_ops&#45;&gt;end</title>
<path fill="none" stroke="black" d="M439.35,-355.82C475.62,-342.33 514,-318.87 514,-280 514,-280 514,-280 514,-90 514,-75.65 514,-59.67 514,-46.51"/>
<polygon fill="black" stroke="black" points="517.5,-46.22 514,-36.22 510.5,-46.22 517.5,-46.22"/>
</g>
<!-- vector_store&#45;&gt;end -->
<g id="edge20" class="edge">
<title>vector_store&#45;&gt;end</title>
<path fill="none" stroke="black" d="M533.94,-354.77C541.59,-336.59 552,-306.89 552,-280 552,-280 552,-280 552,-90 552,-73.53 543.95,-57.18 535.26,-44.33"/>
<polygon fill="black" stroke="black" points="537.95,-42.07 529.24,-36.04 532.28,-46.18 537.95,-42.07"/>
</g>
<!-- no_operands&#45;&gt;end -->
<g id="edge21" class="edge">
<title>no_operands&#45;&gt;end</title>
<path fill="none" stroke="black" d="M662.39,-354.79C649.8,-337.09 633,-308.21 633,-280 633,-280 633,-280 633,-90 633,-51.24 585.88,-33.15 550.94,-25.06"/>
<polygon fill="black" stroke="black" points="551.51,-21.6 541,-22.95 550.06,-28.45 551.51,-21.6"/>
</g>
<!-- unary_ops&#45;&gt;end -->
<g id="edge22" class="edge">
<title>unary_ops&#45;&gt;end</title>
<path fill="none" stroke="black" d="M778.6,-354.98C749.6,-340 716,-315.07 716,-280 716,-280 716,-280 716,-90 716,-55.46 609.55,-33.65 551.2,-24.29"/>
<polygon fill="black" stroke="black" points="551.66,-20.82 541.24,-22.74 550.58,-27.74 551.66,-20.82"/>
</g>
<!-- func_end&#45;&gt;end -->
<g id="edge23" class="edge">
<title>func_end&#45;&gt;end</title>
<path fill="none" stroke="black" d="M941.02,-354.8C923.57,-337.76 901,-309.94 901,-280 901,-280 901,-280 901,-90 901,-54.69 648.58,-30.11 551.46,-21.95"/>
<polygon fill="black" stroke="black" points="551.47,-18.44 541.21,-21.1 550.89,-25.42 551.47,-18.44"/>
</g>
<!-- call_check -->
<g id="node13" class="node">
<title>call_check</title>
<polygon fill="none" stroke="black" points="291.5,-297 154.5,-297 154.5,-261 291.5,-261 291.5,-297"/>
<text text-anchor="middle" x="223" y="-276.5" font-family="Courier,monospace" font-size="10.00">args.len+1 &lt;= bpi&#45;1?</text>
</g>
<!-- call_ops&#45;&gt;call_check -->
<g id="edge11" class="edge">
<title>call_ops&#45;&gt;call_check</title>
<path fill="none" stroke="black" d="M167.79,-354.7C178.05,-340.82 192.59,-321.14 204.18,-305.46"/>
<polygon fill="black" stroke="black" points="207.14,-307.35 210.27,-297.23 201.51,-303.19 207.14,-307.35"/>
<text text-anchor="middle" x="227.5" y="-323.5" font-family="Courier,monospace" font-size="10.00">检查参数数量</text>
</g>
<!-- asm_parse -->
<g id="node16" class="node">
<title>asm_parse</title>
<polygon fill="none" stroke="black" points="107.5,-297 36.5,-297 36.5,-261 107.5,-261 107.5,-297"/>
<text text-anchor="middle" x="72" y="-276.5" font-family="Courier,monospace" font-size="10.00">asm_parse</text>
</g>
<!-- assembly_ops&#45;&gt;asm_parse -->
<g id="edge14" class="edge">
<title>assembly_ops&#45;&gt;asm_parse</title>
<path fill="none" stroke="black" d="M62.26,-354.7C64,-341.33 66.45,-322.59 68.45,-307.22"/>
<polygon fill="black" stroke="black" points="71.93,-307.6 69.75,-297.23 64.99,-306.69 71.93,-307.6"/>
<text text-anchor="middle" x="120" y="-323.5" font-family="Courier,monospace" font-size="10.00">解析outputs/inputs</text>
</g>
<!-- specific_handlers -->
<g id="node20" class="node">
<title>specific_handlers</title>
<polygon fill="none" stroke="black" points="457.5,-297 338.5,-297 338.5,-261 457.5,-261 457.5,-297"/>
<text text-anchor="middle" x="398" y="-276.5" font-family="Courier,monospace" font-size="10.00">specific_handlers</text>
</g>
<!-- control_flow&#45;&gt;specific_handlers -->
<g id="edge18" class="edge">
<title>control_flow&#45;&gt;specific_handlers</title>
<path fill="none" stroke="black" d="M277.49,-354.91C301.2,-340.18 335.61,-318.78 361.6,-302.63"/>
<polygon fill="black" stroke="black" points="363.76,-305.41 370.41,-297.15 360.07,-299.46 363.76,-305.41"/>
<text text-anchor="middle" x="390" y="-329" font-family="Courier,monospace" font-size="10.00">调用对应分析函数</text>
<text text-anchor="middle" x="390" y="-318" font-family="Courier,monospace" font-size="10.00">如analyzeInstBr等</text>
</g>
<!-- other_cases&#45;&gt;end -->
<g id="edge29" class="edge">
<title>other_cases&#45;&gt;end</title>
<path fill="none" stroke="black" d="M1066.76,-354.89C1053.58,-337.27 1036,-308.45 1036,-280 1036,-280 1036,-280 1036,-90 1036,-41.06 671.09,-24.32 551.47,-20.15"/>
<polygon fill="black" stroke="black" points="551.44,-16.65 541.33,-19.81 551.21,-23.65 551.44,-16.65"/>
<text text-anchor="middle" x="1105.5" y="-188" font-family="Courier,monospace" font-size="10.00">各分支最终调用</text>
<text text-anchor="middle" x="1105.5" y="-177" font-family="Courier,monospace" font-size="10.00">analyzeOperands或特定函数</text>
</g>
<!-- call_small -->
<g id="node14" class="node">
<title>call_small</title>
<polygon fill="none" stroke="black" points="286,-203 160,-203 160,-167 286,-167 286,-203"/>
<text text-anchor="middle" x="223" y="-188" font-family="Courier,monospace" font-size="10.00">填充缓冲区</text>
<text text-anchor="middle" x="223" y="-177" font-family="Courier,monospace" font-size="10.00">调用analyzeOperands</text>
</g>
<!-- call_check&#45;&gt;call_small -->
<g id="edge12" class="edge">
<title>call_check&#45;&gt;call_small</title>
<path fill="none" stroke="black" d="M223,-260.7C223,-247.46 223,-228.95 223,-213.66"/>
<polygon fill="black" stroke="black" points="226.5,-213.23 223,-203.23 219.5,-213.23 226.5,-213.23"/>
<text text-anchor="middle" x="247.5" y="-235" font-family="Courier,monospace" font-size="10.00">是</text>
<text text-anchor="middle" x="247.5" y="-224" font-family="Courier,monospace" font-size="10.00">使用缓冲区</text>
</g>
<!-- call_big -->
<g id="node15" class="node">
<title>call_big</title>
<polygon fill="none" stroke="black" points="448,-203 304,-203 304,-167 448,-167 448,-203"/>
<text text-anchor="middle" x="376" y="-188" font-family="Courier,monospace" font-size="10.00">反向填充操作数</text>
<text text-anchor="middle" x="376" y="-177" font-family="Courier,monospace" font-size="10.00">调用AnalyzeBigOperands</text>
</g>
<!-- call_check&#45;&gt;call_big -->
<g id="edge13" class="edge">
<title>call_check&#45;&gt;call_big</title>
<path fill="none" stroke="black" d="M251.42,-260.91C276.03,-246.11 311.81,-224.6 338.72,-208.42"/>
<polygon fill="black" stroke="black" points="340.71,-211.31 347.47,-203.15 337.1,-205.31 340.71,-211.31"/>
<text text-anchor="middle" x="351.5" y="-235" font-family="Courier,monospace" font-size="10.00">否</text>
<text text-anchor="middle" x="351.5" y="-224" font-family="Courier,monospace" font-size="10.00">初始化大操作数</text>
</g>
<!-- call_small&#45;&gt;end -->
<g id="edge24" class="edge">
<title>call_small&#45;&gt;end</title>
<path fill="none" stroke="black" d="M257.48,-166.91C268.05,-161.43 279.62,-155.17 290,-149 347.53,-114.79 356.69,-97.87 415,-65 435.2,-53.61 458.7,-42.61 477.73,-34.21"/>
<polygon fill="black" stroke="black" points="479.19,-37.4 486.96,-30.2 476.4,-30.98 479.19,-37.4"/>
</g>
<!-- call_big&#45;&gt;end -->
<g id="edge25" class="edge">
<title>call_big&#45;&gt;end</title>
<path fill="none" stroke="black" d="M384.48,-166.89C398.16,-140.48 427.12,-89.16 462,-54 466.89,-49.07 472.58,-44.42 478.36,-40.22"/>
<polygon fill="black" stroke="black" points="480.55,-42.96 486.81,-34.41 476.58,-37.19 480.55,-42.96"/>
</g>
<!-- asm_check -->
<g id="node17" class="node">
<title>asm_check</title>
<polygon fill="none" stroke="black" points="141.5,-203 16.5,-203 16.5,-167 141.5,-167 141.5,-203"/>
<text text-anchor="middle" x="79" y="-182.5" font-family="Courier,monospace" font-size="10.00">操作数数量 &lt;= bpi&#45;1?</text>
</g>
<!-- asm_parse&#45;&gt;asm_check -->
<g id="edge15" class="edge">
<title>asm_parse&#45;&gt;asm_check</title>
<path fill="none" stroke="black" d="M73.32,-260.7C74.33,-247.33 75.76,-228.59 76.93,-213.22"/>
<polygon fill="black" stroke="black" points="80.42,-213.46 77.69,-203.23 73.44,-212.93 80.42,-213.46"/>
<text text-anchor="middle" x="111.5" y="-229.5" font-family="Courier,monospace" font-size="10.00">计算操作数数量</text>
</g>
<!-- asm_small -->
<g id="node18" class="node">
<title>asm_small</title>
<polygon fill="none" stroke="black" points="160.5,-109 89.5,-109 89.5,-73 160.5,-73 160.5,-109"/>
<text text-anchor="middle" x="125" y="-88.5" font-family="Courier,monospace" font-size="10.00">asm_small</text>
</g>
<!-- asm_check&#45;&gt;asm_small -->
<g id="edge16" class="edge">
<title>asm_check&#45;&gt;asm_small</title>
<path fill="none" stroke="black" d="M87.65,-166.7C94.46,-153.07 104.07,-133.86 111.83,-118.34"/>
<polygon fill="black" stroke="black" points="115.04,-119.74 116.39,-109.23 108.78,-116.61 115.04,-119.74"/>
<text text-anchor="middle" x="132.5" y="-141" font-family="Courier,monospace" font-size="10.00">是</text>
<text text-anchor="middle" x="132.5" y="-130" font-family="Courier,monospace" font-size="10.00">填充缓冲区</text>
</g>
<!-- asm_big -->
<g id="node19" class="node">
<title>asm_big</title>
<polygon fill="none" stroke="black" points="307.5,-109 248.5,-109 248.5,-73 307.5,-73 307.5,-109"/>
<text text-anchor="middle" x="278" y="-88.5" font-family="Courier,monospace" font-size="10.00">asm_big</text>
</g>
<!-- asm_check&#45;&gt;asm_big -->
<g id="edge17" class="edge">
<title>asm_check&#45;&gt;asm_big</title>
<path fill="none" stroke="black" d="M120.05,-166.95C133.19,-161.37 147.76,-155.04 161,-149 187.37,-136.96 216.7,-122.66 239.4,-111.41"/>
<polygon fill="black" stroke="black" points="240.99,-114.53 248.38,-106.94 237.87,-108.26 240.99,-114.53"/>
<text text-anchor="middle" x="246.5" y="-141" font-family="Courier,monospace" font-size="10.00">否</text>
<text text-anchor="middle" x="246.5" y="-130" font-family="Courier,monospace" font-size="10.00">反向填充大操作数</text>
</g>
<!-- asm_small&#45;&gt;end -->
<g id="edge26" class="edge">
<title>asm_small&#45;&gt;end</title>
<path fill="none" stroke="black" d="M160.59,-81.71C183.03,-76.61 212.64,-70.09 239,-65 323.88,-48.6 424.17,-32.7 477.06,-24.58"/>
<polygon fill="black" stroke="black" points="477.63,-28.03 486.99,-23.06 476.57,-21.11 477.63,-28.03"/>
</g>
<!-- asm_big&#45;&gt;end -->
<g id="edge27" class="edge">
<title>asm_big&#45;&gt;end</title>
<path fill="none" stroke="black" d="M307.79,-74.64C322.34,-67.61 340.28,-59.61 357,-54 397.14,-40.54 444.79,-30.75 476.99,-25"/>
<polygon fill="black" stroke="black" points="477.62,-28.44 486.87,-23.28 476.41,-21.55 477.62,-28.44"/>
</g>
<!-- specific_handlers&#45;&gt;end -->
<g id="edge28" class="edge">
<title>specific_handlers&#45;&gt;end</title>
<path fill="none" stroke="black" d="M414.67,-260.87C427.84,-246.48 445.81,-224.82 457,-203 488.45,-141.67 477.62,-119.19 500,-54 500.94,-51.27 501.97,-48.45 503.03,-45.64"/>
<polygon fill="black" stroke="black" points="506.29,-46.91 506.68,-36.32 499.77,-44.35 506.29,-46.91"/>
</g>
</g>
</svg>
