<?xml version="1.0" encoding="UTF-8" standalone="no"?>
<!DOCTYPE svg PUBLIC "-//W3C//DTD SVG 1.1//EN"
 "http://www.w3.org/Graphics/SVG/1.1/DTD/svg11.dtd">
<!-- Generated by graphviz version 2.43.0 (0)
 -->
<!-- Title: buildImportLib Pages: 1 -->
<svg width="776pt" height="1080pt"
 viewBox="0.00 0.00 776.00 1080.00" xmlns="http://www.w3.org/2000/svg" xmlns:xlink="http://www.w3.org/1999/xlink">
<g id="graph0" class="graph" transform="scale(1 1) rotate(0) translate(4 1076)">
<title>buildImportLib</title>
<g id="clust1" class="cluster">
<title>cluster_resources</title>
<polygon fill="transparent" stroke="black" points="266,-225 266,-302 760,-302 760,-225 266,-225"/>
<text text-anchor="middle" x="513" y="-286.8" font-family="Arial" font-size="14.00">资源管理</text>
</g>
<!-- start -->
<g id="node1" class="node">
<title>start</title>
<polygon fill="lightgray" stroke="black" points="530,-1072 396,-1072 396,-1036 530,-1036 530,-1072"/>
<text text-anchor="middle" x="463" y="-1050.3" font-family="Arial" font-size="14.00">开始 buildImportLib</text>
</g>
<!-- check_def -->
<g id="node2" class="node">
<title>check_def</title>
<polygon fill="lightgray" stroke="black" points="515,-999 411,-999 411,-963 515,-963 515,-999"/>
<text text-anchor="middle" x="463" y="-977.3" font-family="Arial" font-size="14.00">查找 .def 文件</text>
</g>
<!-- start&#45;&gt;check_def -->
<g id="edge1" class="edge">
<title>start&#45;&gt;check_def</title>
<path fill="none" stroke="black" d="M463,-1035.81C463,-1027.79 463,-1018.05 463,-1009.07"/>
<polygon fill="black" stroke="black" points="466.5,-1009.03 463,-999.03 459.5,-1009.03 466.5,-1009.03"/>
</g>
<!-- def_found -->
<g id="node3" class="node">
<title>def_found</title>
<polygon fill="lightgray" stroke="black" points="396,-926 291.43,-908 396,-890 500.57,-908 396,-926"/>
<text text-anchor="middle" x="396" y="-904.3" font-family="Arial" font-size="14.00">.def 文件找到？</text>
</g>
<!-- check_def&#45;&gt;def_found -->
<g id="edge2" class="edge">
<title>check_def&#45;&gt;def_found</title>
<path fill="none" stroke="black" d="M446.78,-962.81C437.77,-953.26 426.46,-941.28 416.8,-931.05"/>
<polygon fill="black" stroke="black" points="419.22,-928.5 409.81,-923.63 414.12,-933.31 419.22,-928.5"/>
</g>
<!-- arena -->
<g id="node17" class="node">
<title>arena</title>
<polygon fill="lightgray" stroke="black" points="751.5,-271 606.5,-271 606.5,-233 751.5,-233 751.5,-271"/>
<text text-anchor="middle" x="679" y="-255.8" font-family="Arial" font-size="14.00">初始化竞技场分配器</text>
<text text-anchor="middle" x="679" y="-240.8" font-family="Arial" font-size="14.00">(自动释放)</text>
</g>
<!-- check_def&#45;&gt;arena -->
<g id="edge19" class="edge">
<title>check_def&#45;&gt;arena</title>
<path fill="none" stroke="black" stroke-dasharray="1,5" d="M493.75,-962.74C511.37,-950.37 530,-931.88 530,-909 530,-909 530,-909 530,-347 530,-343.75 595.91,-303.24 640.06,-276.47"/>
<polygon fill="black" stroke="black" points="642.11,-279.32 648.85,-271.15 638.48,-273.34 642.11,-279.32"/>
</g>
<!-- log_missing -->
<g id="node4" class="node">
<title>log_missing</title>
<polygon fill="lightgray" stroke="black" points="207,-839 105,-839 105,-801 207,-801 207,-839"/>
<text text-anchor="middle" x="156" y="-823.8" font-family="Arial" font-size="14.00">记录调试日志</text>
<text text-anchor="middle" x="156" y="-808.8" font-family="Arial" font-size="14.00">返回空</text>
</g>
<!-- def_found&#45;&gt;log_missing -->
<g id="edge3" class="edge">
<title>def_found&#45;&gt;log_missing</title>
<path fill="none" stroke="black" d="M363.63,-895.4C325.93,-881.89 262.84,-859.28 216.08,-842.53"/>
<polygon fill="black" stroke="black" points="217.26,-839.23 206.66,-839.15 214.89,-845.82 217.26,-839.23"/>
<text text-anchor="middle" x="318.5" y="-860.8" font-family="Arial" font-size="14.00">未找到</text>
</g>
<!-- init_cache -->
<g id="node5" class="node">
<title>init_cache</title>
<polygon fill="lightgray" stroke="black" points="468.5,-838 323.5,-838 323.5,-802 468.5,-802 468.5,-838"/>
<text text-anchor="middle" x="396" y="-816.3" font-family="Arial" font-size="14.00">初始化全局缓存目录</text>
</g>
<!-- def_found&#45;&gt;init_cache -->
<g id="edge4" class="edge">
<title>def_found&#45;&gt;init_cache</title>
<path fill="none" stroke="black" d="M396,-889.6C396,-877.75 396,-861.82 396,-848.29"/>
<polygon fill="black" stroke="black" points="399.5,-848.08 396,-838.08 392.5,-848.08 399.5,-848.08"/>
<text text-anchor="middle" x="410.5" y="-860.8" font-family="Arial" font-size="14.00">找到</text>
</g>
<!-- end -->
<g id="node16" class="node">
<title>end</title>
<polygon fill="lightgray" stroke="black" points="84,-36 30,-36 30,0 84,0 84,-36"/>
<text text-anchor="middle" x="57" y="-14.3" font-family="Arial" font-size="14.00">返回</text>
</g>
<!-- log_missing&#45;&gt;end -->
<g id="edge5" class="edge">
<title>log_missing&#45;&gt;end</title>
<path fill="none" stroke="black" d="M104.92,-815.87C59.42,-809.98 0,-793.25 0,-746 0,-746 0,-746 0,-90 0,-71.63 11.74,-55.31 24.57,-42.96"/>
<polygon fill="black" stroke="black" points="27.05,-45.44 32.16,-36.17 22.38,-40.23 27.05,-45.44"/>
</g>
<!-- hash_setup -->
<g id="node6" class="node">
<title>hash_setup</title>
<polygon fill="lightgray" stroke="black" points="407,-764 269,-764 269,-726 407,-726 407,-764"/>
<text text-anchor="middle" x="338" y="-748.8" font-family="Arial" font-size="14.00">添加版本/路径/架构</text>
<text text-anchor="middle" x="338" y="-733.8" font-family="Arial" font-size="14.00">到哈希</text>
</g>
<!-- init_cache&#45;&gt;hash_setup -->
<g id="edge6" class="edge">
<title>init_cache&#45;&gt;hash_setup</title>
<path fill="none" stroke="black" d="M382.25,-801.7C375.24,-792.87 366.56,-781.95 358.75,-772.12"/>
<polygon fill="black" stroke="black" points="361.42,-769.85 352.46,-764.19 355.94,-774.2 361.42,-769.85"/>
</g>
<!-- cache_handle -->
<g id="node18" class="node">
<title>cache_handle</title>
<polygon fill="lightgray" stroke="black" points="588.5,-270 425.5,-270 425.5,-234 588.5,-234 588.5,-270"/>
<text text-anchor="middle" x="507" y="-248.3" font-family="Arial" font-size="14.00">打开/关闭缓存目录句柄</text>
</g>
<!-- init_cache&#45;&gt;cache_handle -->
<g id="edge20" class="edge">
<title>init_cache&#45;&gt;cache_handle</title>
<path fill="none" stroke="black" stroke-dasharray="1,5" d="M415.52,-801.85C428.81,-788.21 444,-767.84 444,-746 444,-746 444,-746 444,-347 444,-320.08 462.05,-295.05 478.82,-277.6"/>
<polygon fill="black" stroke="black" points="481.72,-279.65 486.37,-270.13 476.8,-274.68 481.72,-279.65"/>
</g>
<!-- obtain_cache -->
<g id="node7" class="node">
<title>obtain_cache</title>
<polygon fill="lightgray" stroke="black" points="378,-689 276,-689 276,-653 378,-653 378,-689"/>
<text text-anchor="middle" x="327" y="-667.3" font-family="Arial" font-size="14.00">获取缓存清单</text>
</g>
<!-- hash_setup&#45;&gt;obtain_cache -->
<g id="edge7" class="edge">
<title>hash_setup&#45;&gt;obtain_cache</title>
<path fill="none" stroke="black" d="M335.22,-725.83C334,-717.81 332.53,-708.2 331.18,-699.34"/>
<polygon fill="black" stroke="black" points="334.63,-698.77 329.66,-689.42 327.71,-699.83 334.63,-698.77"/>
</g>
<!-- cache_hit -->
<g id="node8" class="node">
<title>cache_hit</title>
<polygon fill="lightgray" stroke="black" points="319,-616 238.23,-598 319,-580 399.77,-598 319,-616"/>
<text text-anchor="middle" x="319" y="-594.3" font-family="Arial" font-size="14.00">缓存命中？</text>
</g>
<!-- obtain_cache&#45;&gt;cache_hit -->
<g id="edge8" class="edge">
<title>obtain_cache&#45;&gt;cache_hit</title>
<path fill="none" stroke="black" d="M325.06,-652.81C324.16,-644.79 323.06,-635.05 322.05,-626.07"/>
<polygon fill="black" stroke="black" points="325.52,-625.57 320.92,-616.03 318.56,-626.36 325.52,-625.57"/>
</g>
<!-- use_existing -->
<g id="node9" class="node">
<title>use_existing</title>
<polygon fill="lightgray" stroke="black" points="214.5,-528 27.5,-528 27.5,-492 214.5,-492 214.5,-528"/>
<text text-anchor="middle" x="121" y="-506.3" font-family="Arial" font-size="14.00">添加现有库到CRT文件列表</text>
</g>
<!-- cache_hit&#45;&gt;use_existing -->
<g id="edge9" class="edge">
<title>cache_hit&#45;&gt;use_existing</title>
<path fill="none" stroke="black" d="M293.11,-585.76C261.9,-572.2 208.78,-549.13 169.79,-532.19"/>
<polygon fill="black" stroke="black" points="170.77,-528.8 160.2,-528.03 167.98,-535.22 170.77,-528.8"/>
<text text-anchor="middle" x="245.5" y="-550.8" font-family="Arial" font-size="14.00">是</text>
</g>
<!-- preprocess -->
<g id="node10" class="node">
<title>preprocess</title>
<polygon fill="lightgray" stroke="black" points="405.5,-529 232.5,-529 232.5,-491 405.5,-491 405.5,-529"/>
<text text-anchor="middle" x="319" y="-513.8" font-family="Arial" font-size="14.00">预处理：添加头文件目录</text>
<text text-anchor="middle" x="319" y="-498.8" font-family="Arial" font-size="14.00">处理宏定义/展开</text>
</g>
<!-- cache_hit&#45;&gt;preprocess -->
<g id="edge11" class="edge">
<title>cache_hit&#45;&gt;preprocess</title>
<path fill="none" stroke="black" d="M319,-579.6C319,-568.06 319,-552.65 319,-539.36"/>
<polygon fill="black" stroke="black" points="322.5,-539.27 319,-529.27 315.5,-539.27 322.5,-539.27"/>
<text text-anchor="middle" x="326.5" y="-550.8" font-family="Arial" font-size="14.00">否</text>
</g>
<!-- use_existing&#45;&gt;end -->
<g id="edge10" class="edge">
<title>use_existing&#45;&gt;end</title>
<path fill="none" stroke="black" d="M80.47,-491.87C59.4,-479.98 38,-461.8 38,-437 38,-437 38,-437 38,-90 38,-75.1 41.95,-59.02 46.25,-45.93"/>
<polygon fill="black" stroke="black" points="49.67,-46.76 49.71,-36.16 43.08,-44.43 49.67,-46.76"/>
</g>
<!-- handle_errors -->
<g id="node11" class="node">
<title>handle_errors</title>
<polygon fill="lightgray" stroke="black" points="257,-454 150.26,-436 257,-418 363.74,-436 257,-454"/>
<text text-anchor="middle" x="257" y="-432.3" font-family="Arial" font-size="14.00">检查预处理错误</text>
</g>
<!-- preprocess&#45;&gt;handle_errors -->
<g id="edge12" class="edge">
<title>preprocess&#45;&gt;handle_errors</title>
<path fill="none" stroke="black" d="M303.35,-490.83C295.2,-481.36 285.16,-469.7 276.5,-459.65"/>
<polygon fill="black" stroke="black" points="279.1,-457.3 269.92,-452.01 273.79,-461.87 279.1,-457.3"/>
</g>
<!-- write_def -->
<g id="node12" class="node">
<title>write_def</title>
<polygon fill="lightgray" stroke="black" points="324.5,-367 189.5,-367 189.5,-329 324.5,-329 324.5,-367"/>
<text text-anchor="middle" x="257" y="-351.8" font-family="Arial" font-size="14.00">将处理后的def文件</text>
<text text-anchor="middle" x="257" y="-336.8" font-family="Arial" font-size="14.00">写入缓存目录</text>
</g>
<!-- handle_errors&#45;&gt;write_def -->
<g id="edge13" class="edge">
<title>handle_errors&#45;&gt;write_def</title>
<path fill="none" stroke="black" d="M257,-417.6C257,-406.06 257,-390.65 257,-377.36"/>
<polygon fill="black" stroke="black" points="260.5,-377.27 257,-367.27 253.5,-377.27 260.5,-377.27"/>
<text text-anchor="middle" x="278.5" y="-388.8" font-family="Arial" font-size="14.00">无错误</text>
</g>
<!-- handle_errors&#45;&gt;end -->
<g id="edge14" class="edge">
<title>handle_errors&#45;&gt;end</title>
<path fill="none" stroke="black" d="M188.06,-429.57C136.9,-421.33 76,-400.66 76,-349 76,-349 76,-349 76,-90 76,-75.1 72.05,-59.02 67.75,-45.93"/>
<polygon fill="black" stroke="black" points="70.92,-44.43 64.29,-36.16 64.33,-46.76 70.92,-44.43"/>
<text text-anchor="middle" x="97.5" y="-203.8" font-family="Arial" font-size="14.00">有错误</text>
</g>
<!-- gen_lib -->
<g id="node13" class="node">
<title>gen_lib</title>
<polygon fill="lightgray" stroke="black" points="256,-270 104,-270 104,-234 256,-234 256,-270"/>
<text text-anchor="middle" x="180" y="-248.3" font-family="Arial" font-size="14.00">调用LLVM生成导入库</text>
</g>
<!-- write_def&#45;&gt;gen_lib -->
<g id="edge15" class="edge">
<title>write_def&#45;&gt;gen_lib</title>
<path fill="none" stroke="black" d="M242.15,-328.88C230.32,-314.43 213.62,-294.04 200.51,-278.03"/>
<polygon fill="black" stroke="black" points="203.07,-275.64 194.02,-270.12 197.65,-280.07 203.07,-275.64"/>
</g>
<!-- file_handles -->
<g id="node19" class="node">
<title>file_handles</title>
<polygon fill="lightgray" stroke="black" points="407.5,-270 274.5,-270 274.5,-234 407.5,-234 407.5,-270"/>
<text text-anchor="middle" x="341" y="-248.3" font-family="Arial" font-size="14.00">DEF文件创建/关闭</text>
</g>
<!-- write_def&#45;&gt;file_handles -->
<g id="edge21" class="edge">
<title>write_def&#45;&gt;file_handles</title>
<path fill="none" stroke="black" stroke-dasharray="1,5" d="M273.2,-328.88C286.22,-314.3 304.66,-293.66 319.02,-277.59"/>
<polygon fill="black" stroke="black" points="321.65,-279.91 325.7,-270.12 316.43,-275.24 321.65,-279.91"/>
</g>
<!-- update_cache -->
<g id="node14" class="node">
<title>update_cache</title>
<polygon fill="lightgray" stroke="black" points="239,-182 137,-182 137,-146 239,-146 239,-182"/>
<text text-anchor="middle" x="188" y="-160.3" font-family="Arial" font-size="14.00">更新缓存清单</text>
</g>
<!-- gen_lib&#45;&gt;update_cache -->
<g id="edge16" class="edge">
<title>gen_lib&#45;&gt;update_cache</title>
<path fill="none" stroke="black" d="M181.62,-233.6C182.72,-221.75 184.2,-205.82 185.46,-192.29"/>
<polygon fill="black" stroke="black" points="188.97,-192.37 186.41,-182.08 182,-191.72 188.97,-192.37"/>
</g>
<!-- add_new_lib -->
<g id="node15" class="node">
<title>add_new_lib</title>
<polygon fill="lightgray" stroke="black" points="277.5,-109 104.5,-109 104.5,-73 277.5,-73 277.5,-109"/>
<text text-anchor="middle" x="191" y="-87.3" font-family="Arial" font-size="14.00">添加新库到CRT文件列表</text>
</g>
<!-- update_cache&#45;&gt;add_new_lib -->
<g id="edge17" class="edge">
<title>update_cache&#45;&gt;add_new_lib</title>
<path fill="none" stroke="black" d="M188.73,-145.81C189.07,-137.79 189.48,-128.05 189.86,-119.07"/>
<polygon fill="black" stroke="black" points="193.36,-119.17 190.28,-109.03 186.36,-118.87 193.36,-119.17"/>
</g>
<!-- add_new_lib&#45;&gt;end -->
<g id="edge18" class="edge">
<title>add_new_lib&#45;&gt;end</title>
<path fill="none" stroke="black" d="M158.9,-72.99C139.16,-62.53 113.81,-49.1 93.34,-38.25"/>
<polygon fill="black" stroke="black" points="94.78,-35.06 84.31,-33.47 91.51,-41.24 94.78,-35.06"/>
</g>
</g>
</svg>
