<?xml version="1.0" encoding="UTF-8" standalone="no"?>
<!DOCTYPE svg PUBLIC "-//W3C//DTD SVG 1.1//EN"
 "http://www.w3.org/Graphics/SVG/1.1/DTD/svg11.dtd">
<!-- Generated by graphviz version 2.43.0 (0)
 -->
<!-- Title: computeHash Pages: 1 -->
<svg width="1456pt" height="1148pt"
 viewBox="0.00 0.00 1456.00 1148.00" xmlns="http://www.w3.org/2000/svg" xmlns:xlink="http://www.w3.org/1999/xlink">
<g id="graph0" class="graph" transform="scale(1 1) rotate(0) translate(4 1144)">
<title>computeHash</title>
<polygon fill="white" stroke="transparent" points="-4,4 -4,-1144 1452,-1144 1452,4 -4,4"/>
<g id="clust1" class="cluster">
<title>cluster_init</title>
<polygon fill="none" stroke="black" points="382,-765 382,-1077 676,-1077 676,-765 382,-765"/>
<text text-anchor="middle" x="529" y="-1061.8" font-family="Times,serif" font-size="14.00">初始化</text>
</g>
<g id="clust2" class="cluster">
<title>cluster_walk</title>
<polygon fill="none" stroke="black" points="167,-253 167,-746 631,-746 631,-253 167,-253"/>
<text text-anchor="middle" x="399" y="-730.8" font-family="Times,serif" font-size="14.00">遍历目录</text>
</g>
<g id="clust3" class="cluster">
<title>cluster_post_walk</title>
<polygon fill="none" stroke="black" points="896,-79 896,-638 1120,-638 1120,-79 896,-79"/>
<text text-anchor="middle" x="1008" y="-622.8" font-family="Times,serif" font-size="14.00">后处理</text>
</g>
<!-- start -->
<g id="node1" class="node">
<title>start</title>
<ellipse fill="none" stroke="black" cx="529" cy="-1122" rx="29.5" ry="18"/>
<text text-anchor="middle" x="529" y="-1118.3" font-family="Times,serif" font-size="14.00">开始</text>
</g>
<!-- init_vars -->
<g id="node3" class="node">
<title>init_vars</title>
<path fill="none" stroke="black" d="M655.5,-1046C655.5,-1046 402.5,-1046 402.5,-1046 396.5,-1046 390.5,-1040 390.5,-1034 390.5,-1034 390.5,-1020 390.5,-1020 390.5,-1014 396.5,-1008 402.5,-1008 402.5,-1008 655.5,-1008 655.5,-1008 661.5,-1008 667.5,-1014 667.5,-1020 667.5,-1020 667.5,-1034 667.5,-1034 667.5,-1040 661.5,-1046 655.5,-1046"/>
<text text-anchor="middle" x="529" y="-1030.8" font-family="Times,serif" font-size="14.00">初始化变量:</text>
<text text-anchor="middle" x="529" y="-1015.8" font-family="Times,serif" font-size="14.00">arena, gpa, eb, thread_pool, root_dir</text>
</g>
<!-- start&#45;&gt;init_vars -->
<g id="edge1" class="edge">
<title>start&#45;&gt;init_vars</title>
<path fill="none" stroke="black" d="M529,-1103.94C529,-1090.65 529,-1071.9 529,-1056.36"/>
<polygon fill="black" stroke="black" points="532.5,-1056.22 529,-1046.22 525.5,-1056.22 532.5,-1056.22"/>
</g>
<!-- end -->
<g id="node2" class="node">
<title>end</title>
<ellipse fill="none" stroke="black" cx="1069" cy="-18" rx="75.29" ry="18"/>
<text text-anchor="middle" x="1069" y="-14.3" font-family="Times,serif" font-size="14.00">返回结果或错误</text>
</g>
<!-- create_lists -->
<g id="node4" class="node">
<title>create_lists</title>
<path fill="none" stroke="black" d="M635,-971C635,-971 423,-971 423,-971 417,-971 411,-965 411,-959 411,-959 411,-945 411,-945 411,-939 417,-933 423,-933 423,-933 635,-933 635,-933 641,-933 647,-939 647,-945 647,-945 647,-959 647,-959 647,-965 641,-971 635,-971"/>
<text text-anchor="middle" x="529" y="-955.8" font-family="Times,serif" font-size="14.00">创建动态数组:</text>
<text text-anchor="middle" x="529" y="-940.8" font-family="Times,serif" font-size="14.00">all_files, deleted_files, sus_dirs</text>
</g>
<!-- init_vars&#45;&gt;create_lists -->
<g id="edge2" class="edge">
<title>init_vars&#45;&gt;create_lists</title>
<path fill="none" stroke="black" d="M529,-1007.96C529,-999.88 529,-990.18 529,-981.18"/>
<polygon fill="black" stroke="black" points="532.5,-981.09 529,-971.09 525.5,-981.09 532.5,-981.09"/>
</g>
<!-- init_walker -->
<g id="node5" class="node">
<title>init_walker</title>
<path fill="none" stroke="black" d="M608,-896C608,-896 450,-896 450,-896 444,-896 438,-890 438,-884 438,-884 438,-872 438,-872 438,-866 444,-860 450,-860 450,-860 608,-860 608,-860 614,-860 620,-866 620,-872 620,-872 620,-884 620,-884 620,-890 614,-896 608,-896"/>
<text text-anchor="middle" x="529" y="-874.3" font-family="Times,serif" font-size="14.00">初始化目录遍历器 walker</text>
</g>
<!-- create_lists&#45;&gt;init_walker -->
<g id="edge3" class="edge">
<title>create_lists&#45;&gt;init_walker</title>
<path fill="none" stroke="black" d="M529,-932.83C529,-924.89 529,-915.41 529,-906.63"/>
<polygon fill="black" stroke="black" points="532.5,-906.42 529,-896.42 525.5,-906.42 532.5,-906.42"/>
</g>
<!-- total_size_init -->
<g id="node6" class="node">
<title>total_size_init</title>
<path fill="none" stroke="black" d="M597.5,-809C597.5,-809 460.5,-809 460.5,-809 454.5,-809 448.5,-803 448.5,-797 448.5,-797 448.5,-785 448.5,-785 448.5,-779 454.5,-773 460.5,-773 460.5,-773 597.5,-773 597.5,-773 603.5,-773 609.5,-779 609.5,-785 609.5,-785 609.5,-797 609.5,-797 609.5,-803 603.5,-809 597.5,-809"/>
<text text-anchor="middle" x="529" y="-787.3" font-family="Times,serif" font-size="14.00">初始化 total_size = 0</text>
</g>
<!-- init_walker&#45;&gt;total_size_init -->
<g id="edge4" class="edge">
<title>init_walker&#45;&gt;total_size_init</title>
<path fill="none" stroke="black" d="M529,-859.8C529,-848.16 529,-832.55 529,-819.24"/>
<polygon fill="black" stroke="black" points="532.5,-819.18 529,-809.18 525.5,-819.18 532.5,-819.18"/>
</g>
<!-- walk_loop -->
<g id="node7" class="node">
<title>walk_loop</title>
<path fill="none" stroke="black" d="M599,-715C599,-715 459,-715 459,-715 453,-715 447,-709 447,-703 447,-703 447,-691 447,-691 447,-685 453,-679 459,-679 459,-679 599,-679 599,-679 605,-679 611,-685 611,-691 611,-691 611,-703 611,-703 611,-709 605,-715 599,-715"/>
<text text-anchor="middle" x="529" y="-693.3" font-family="Times,serif" font-size="14.00">循环遍历每个文件/目录</text>
</g>
<!-- total_size_init&#45;&gt;walk_loop -->
<g id="edge5" class="edge">
<title>total_size_init&#45;&gt;walk_loop</title>
<path fill="none" stroke="black" d="M529,-772.7C529,-759.46 529,-740.95 529,-725.66"/>
<polygon fill="black" stroke="black" points="532.5,-725.23 529,-715.23 525.5,-725.23 532.5,-725.23"/>
</g>
<!-- check_entry -->
<g id="node8" class="node">
<title>check_entry</title>
<path fill="none" stroke="black" d="M447.22,-604.73C447.22,-604.73 377.27,-591.27 377.27,-591.27 371.38,-590.13 371.38,-587.87 377.27,-586.73 377.27,-586.73 447.22,-573.27 447.22,-573.27 453.11,-572.13 464.89,-572.13 470.78,-573.27 470.78,-573.27 540.73,-586.73 540.73,-586.73 546.62,-587.87 546.62,-590.13 540.73,-591.27 540.73,-591.27 470.78,-604.73 470.78,-604.73 464.89,-605.87 453.11,-605.87 447.22,-604.73"/>
<text text-anchor="middle" x="459" y="-585.3" font-family="Times,serif" font-size="14.00">条目类型判断</text>
</g>
<!-- walk_loop&#45;&gt;check_entry -->
<g id="edge6" class="edge">
<title>walk_loop&#45;&gt;check_entry</title>
<path fill="none" stroke="black" d="M517.75,-678.97C506.09,-661.31 487.76,-633.56 474.68,-613.75"/>
<polygon fill="black" stroke="black" points="477.51,-611.68 469.08,-605.27 471.67,-615.54 477.51,-611.68"/>
</g>
<!-- sort_sus_dirs -->
<g id="node14" class="node">
<title>sort_sus_dirs</title>
<path fill="none" stroke="black" d="M1099.5,-607C1099.5,-607 916.5,-607 916.5,-607 910.5,-607 904.5,-601 904.5,-595 904.5,-595 904.5,-583 904.5,-583 904.5,-577 910.5,-571 916.5,-571 916.5,-571 1099.5,-571 1099.5,-571 1105.5,-571 1111.5,-577 1111.5,-583 1111.5,-583 1111.5,-595 1111.5,-595 1111.5,-601 1105.5,-607 1099.5,-607"/>
<text text-anchor="middle" x="1008" y="-585.3" font-family="Times,serif" font-size="14.00">按路径长度降序排序 sus_dirs</text>
</g>
<!-- walk_loop&#45;&gt;sort_sus_dirs -->
<g id="edge21" class="edge">
<title>walk_loop&#45;&gt;sort_sus_dirs</title>
<path fill="none" stroke="black" d="M611.29,-688.77C686.3,-680.81 799.61,-665.37 895,-638 918.63,-631.22 943.9,-620.81 964.55,-611.41"/>
<polygon fill="black" stroke="black" points="966.08,-614.56 973.68,-607.18 963.14,-608.21 966.08,-614.56"/>
<text text-anchor="middle" x="885" y="-649.8" font-family="Times,serif" font-size="14.00">遍历完成</text>
</g>
<!-- walk_error -->
<g id="node27" class="node">
<title>walk_error</title>
<path fill="none" stroke="black" d="M719.5,-607C719.5,-607 650.5,-607 650.5,-607 644.5,-607 638.5,-601 638.5,-595 638.5,-595 638.5,-583 638.5,-583 638.5,-577 644.5,-571 650.5,-571 650.5,-571 719.5,-571 719.5,-571 725.5,-571 731.5,-577 731.5,-583 731.5,-583 731.5,-595 731.5,-595 731.5,-601 725.5,-607 719.5,-607"/>
<text text-anchor="middle" x="685" y="-585.3" font-family="Times,serif" font-size="14.00">walk_error</text>
</g>
<!-- walk_loop&#45;&gt;walk_error -->
<g id="edge34" class="edge">
<title>walk_loop&#45;&gt;walk_error</title>
<path fill="none" stroke="red" d="M565.76,-678.91C586.85,-668.38 613.35,-653.88 635,-638 644.51,-631.03 654.06,-622.36 662.24,-614.31"/>
<polygon fill="red" stroke="red" points="664.76,-616.74 669.31,-607.17 659.79,-611.81 664.76,-616.74"/>
<text text-anchor="middle" x="650" y="-649.8" font-family="Times,serif" font-size="14.00">遍历出错</text>
</g>
<!-- entry_directory -->
<g id="node11" class="node">
<title>entry_directory</title>
<path fill="none" stroke="black" d="M611,-505C611,-505 533,-505 533,-505 527,-505 521,-499 521,-493 521,-493 521,-481 521,-481 521,-475 527,-469 533,-469 533,-469 611,-469 611,-469 617,-469 623,-475 623,-481 623,-481 623,-493 623,-493 623,-499 617,-505 611,-505"/>
<text text-anchor="middle" x="572" y="-483.3" font-family="Times,serif" font-size="14.00">目录? → 跳过</text>
</g>
<!-- check_entry&#45;&gt;entry_directory -->
<g id="edge7" class="edge">
<title>check_entry&#45;&gt;entry_directory</title>
<path fill="none" stroke="black" d="M472.35,-573.4C485.08,-559.78 505.08,-539.18 524,-523 528.62,-519.05 533.65,-515.06 538.67,-511.26"/>
<polygon fill="black" stroke="black" points="541.06,-513.85 547.02,-505.09 536.9,-508.22 541.06,-513.85"/>
<text text-anchor="middle" x="545.5" y="-534.3" font-family="Times,serif" font-size="14.00">是目录</text>
</g>
<!-- entry_filter -->
<g id="node12" class="node">
<title>entry_filter</title>
<path fill="none" stroke="black" d="M351.1,-503.47C351.1,-503.47 234.98,-488.53 234.98,-488.53 229.03,-487.77 229.03,-486.23 234.98,-485.47 234.98,-485.47 351.1,-470.53 351.1,-470.53 357.05,-469.77 368.95,-469.77 374.9,-470.53 374.9,-470.53 491.02,-485.47 491.02,-485.47 496.97,-486.23 496.97,-487.77 491.02,-488.53 491.02,-488.53 374.9,-503.47 374.9,-503.47 368.95,-504.23 357.05,-504.23 351.1,-503.47"/>
<text text-anchor="middle" x="363" y="-483.3" font-family="Times,serif" font-size="14.00">是否包含在过滤器中?</text>
</g>
<!-- check_entry&#45;&gt;entry_filter -->
<g id="edge9" class="edge">
<title>check_entry&#45;&gt;entry_filter</title>
<path fill="none" stroke="black" d="M444.83,-573.24C428.97,-556.72 403.08,-529.76 384.68,-510.58"/>
<polygon fill="black" stroke="black" points="386.99,-507.93 377.54,-503.14 381.94,-512.78 386.99,-507.93"/>
<text text-anchor="middle" x="446.5" y="-534.3" font-family="Times,serif" font-size="14.00">非目录</text>
</g>
<!-- handle_deleted -->
<g id="node9" class="node">
<title>handle_deleted</title>
<path fill="none" stroke="black" d="M327,-418C327,-418 187,-418 187,-418 181,-418 175,-412 175,-406 175,-406 175,-377 175,-377 175,-371 181,-365 187,-365 187,-365 327,-365 327,-365 333,-365 339,-371 339,-377 339,-377 339,-406 339,-406 339,-412 333,-418 327,-418"/>
<text text-anchor="middle" x="257" y="-402.8" font-family="Times,serif" font-size="14.00">标记为删除</text>
<text text-anchor="middle" x="257" y="-387.8" font-family="Times,serif" font-size="14.00">记录父目录到 sus_dirs</text>
<text text-anchor="middle" x="257" y="-372.8" font-family="Times,serif" font-size="14.00">启动删除线程</text>
</g>
<!-- sus_dirs_put -->
<g id="node20" class="node">
<title>sus_dirs_put</title>
<path fill="none" stroke="black" d="M252,-896C252,-896 170,-896 170,-896 164,-896 158,-890 158,-884 158,-884 158,-872 158,-872 158,-866 164,-860 170,-860 170,-860 252,-860 252,-860 258,-860 264,-866 264,-872 264,-872 264,-884 264,-884 264,-890 258,-896 252,-896"/>
<text text-anchor="middle" x="211" y="-874.3" font-family="Times,serif" font-size="14.00">sus_dirs_put</text>
</g>
<!-- handle_deleted&#45;&gt;sus_dirs_put -->
<g id="edge12" class="edge">
<title>handle_deleted&#45;&gt;sus_dirs_put</title>
<path fill="none" stroke="black" d="M228.18,-418.18C211.99,-435.51 195,-459.9 195,-486 195,-792 195,-792 195,-792 195,-811.59 199.15,-833.28 203.23,-849.85"/>
<polygon fill="black" stroke="black" points="199.94,-851.12 205.85,-859.92 206.72,-849.36 199.94,-851.12"/>
<text text-anchor="middle" x="231" y="-649.8" font-family="Times,serif" font-size="14.00">记录父目录</text>
</g>
<!-- handle_included -->
<g id="node10" class="node">
<title>handle_included</title>
<path fill="none" stroke="black" d="M592,-314C592,-314 486,-314 486,-314 480,-314 474,-308 474,-302 474,-302 474,-273 474,-273 474,-267 480,-261 486,-261 486,-261 592,-261 592,-261 598,-261 604,-267 604,-273 604,-273 604,-302 604,-302 604,-308 598,-314 592,-314"/>
<text text-anchor="middle" x="539" y="-298.8" font-family="Times,serif" font-size="14.00">检查文件类型</text>
<text text-anchor="middle" x="539" y="-283.8" font-family="Times,serif" font-size="14.00">创建 HashedFile</text>
<text text-anchor="middle" x="539" y="-268.8" font-family="Times,serif" font-size="14.00">启动哈希线程</text>
</g>
<!-- check_build_zig -->
<g id="node23" class="node">
<title>check_build_zig</title>
<path fill="none" stroke="black" d="M116,-896C116,-896 12,-896 12,-896 6,-896 0,-890 0,-884 0,-884 0,-872 0,-872 0,-866 6,-860 12,-860 12,-860 116,-860 116,-860 122,-860 128,-866 128,-872 128,-872 128,-884 128,-884 128,-890 122,-896 116,-896"/>
<text text-anchor="middle" x="64" y="-874.3" font-family="Times,serif" font-size="14.00">check_build_zig</text>
</g>
<!-- handle_included&#45;&gt;check_build_zig -->
<g id="edge18" class="edge">
<title>handle_included&#45;&gt;check_build_zig</title>
<path fill="none" stroke="black" d="M473.89,-288.22C337.64,-289.39 35,-301.95 35,-390.5 35,-792 35,-792 35,-792 35,-812.4 42.58,-834.15 49.98,-850.54"/>
<polygon fill="black" stroke="black" points="47.03,-852.49 54.5,-860 53.35,-849.47 47.03,-852.49"/>
<text text-anchor="middle" x="82" y="-585.3" font-family="Times,serif" font-size="14.00">标记 build.zig</text>
</g>
<!-- entry_directory&#45;&gt;walk_loop -->
<g id="edge8" class="edge">
<title>entry_directory&#45;&gt;walk_loop</title>
<path fill="none" stroke="black" d="M573.3,-505.08C574.92,-533.39 575.97,-591.51 562,-638 558.66,-649.1 552.9,-660.38 547.11,-670.01"/>
<polygon fill="black" stroke="black" points="544.02,-668.34 541.63,-678.67 549.93,-672.09 544.02,-668.34"/>
</g>
<!-- entry_filter&#45;&gt;handle_deleted -->
<g id="edge10" class="edge">
<title>entry_filter&#45;&gt;handle_deleted</title>
<path fill="none" stroke="black" d="M345.97,-470.98C331.96,-458.62 311.61,-440.67 293.9,-425.05"/>
<polygon fill="black" stroke="black" points="295.8,-422.06 285.99,-418.07 291.17,-427.31 295.8,-422.06"/>
<text text-anchor="middle" x="343.5" y="-439.8" font-family="Times,serif" font-size="14.00">不包含</text>
</g>
<!-- entry_type_check -->
<g id="node13" class="node">
<title>entry_type_check</title>
<path fill="none" stroke="black" d="M478.11,-407.89C478.11,-407.89 368.84,-393.11 368.84,-393.11 362.89,-392.3 362.89,-390.7 368.84,-389.89 368.84,-389.89 478.11,-375.11 478.11,-375.11 484.05,-374.3 495.95,-374.3 501.89,-375.11 501.89,-375.11 611.16,-389.89 611.16,-389.89 617.11,-390.7 617.11,-392.3 611.16,-393.11 611.16,-393.11 501.89,-407.89 501.89,-407.89 495.95,-408.7 484.05,-408.7 478.11,-407.89"/>
<text text-anchor="middle" x="490" y="-387.8" font-family="Times,serif" font-size="14.00">检查文件类型合法性</text>
</g>
<!-- entry_filter&#45;&gt;entry_type_check -->
<g id="edge11" class="edge">
<title>entry_filter&#45;&gt;entry_type_check</title>
<path fill="none" stroke="black" d="M382.84,-471.39C404.09,-455.75 437.98,-430.8 461.95,-413.15"/>
<polygon fill="black" stroke="black" points="464.32,-415.75 470.3,-407.01 460.17,-410.12 464.32,-415.75"/>
<text text-anchor="middle" x="444.5" y="-439.8" font-family="Times,serif" font-size="14.00">包含</text>
</g>
<!-- entry_type_check&#45;&gt;handle_included -->
<g id="edge15" class="edge">
<title>entry_type_check&#45;&gt;handle_included</title>
<path fill="none" stroke="black" d="M497.87,-374.11C504.45,-360.43 514.04,-340.45 522.32,-323.23"/>
<polygon fill="black" stroke="black" points="525.57,-324.54 526.75,-314.01 519.26,-321.51 525.57,-324.54"/>
<text text-anchor="middle" x="531.5" y="-335.8" font-family="Times,serif" font-size="14.00">合法</text>
</g>
<!-- add_error -->
<g id="node22" class="node">
<title>add_error</title>
<path fill="none" stroke="black" d="M588,-123C588,-123 526,-123 526,-123 520,-123 514,-117 514,-111 514,-111 514,-99 514,-99 514,-93 520,-87 526,-87 526,-87 588,-87 588,-87 594,-87 600,-93 600,-99 600,-99 600,-111 600,-111 600,-117 594,-123 588,-123"/>
<text text-anchor="middle" x="557" y="-101.3" font-family="Times,serif" font-size="14.00">add_error</text>
</g>
<!-- entry_type_check&#45;&gt;add_error -->
<g id="edge16" class="edge">
<title>entry_type_check&#45;&gt;add_error</title>
<path fill="none" stroke="black" d="M482.26,-374.17C470.98,-348.17 452.68,-295.91 465,-253 478.55,-205.8 512.19,-159.06 534.81,-131.37"/>
<polygon fill="black" stroke="black" points="537.73,-133.33 541.44,-123.4 532.35,-128.85 537.73,-133.33"/>
<text text-anchor="middle" x="516" y="-231.8" font-family="Times,serif" font-size="14.00">非法文件类型</text>
</g>
<!-- delete_dirs_loop -->
<g id="node15" class="node">
<title>delete_dirs_loop</title>
<path fill="none" stroke="black" d="M1075.5,-505C1075.5,-505 940.5,-505 940.5,-505 934.5,-505 928.5,-499 928.5,-493 928.5,-493 928.5,-481 928.5,-481 928.5,-475 934.5,-469 940.5,-469 940.5,-469 1075.5,-469 1075.5,-469 1081.5,-469 1087.5,-475 1087.5,-481 1087.5,-481 1087.5,-493 1087.5,-493 1087.5,-499 1081.5,-505 1075.5,-505"/>
<text text-anchor="middle" x="1008" y="-483.3" font-family="Times,serif" font-size="14.00">循环尝试删除可疑目录</text>
</g>
<!-- sort_sus_dirs&#45;&gt;delete_dirs_loop -->
<g id="edge22" class="edge">
<title>sort_sus_dirs&#45;&gt;delete_dirs_loop</title>
<path fill="none" stroke="black" d="M1055.81,-570.9C1063.06,-566.21 1069.59,-560.33 1074,-553 1080.87,-541.57 1080.87,-534.43 1074,-523 1071.31,-518.53 1067.84,-514.6 1063.89,-511.15"/>
<polygon fill="black" stroke="black" points="1065.91,-508.29 1055.81,-505.1 1061.72,-513.89 1065.91,-508.29"/>
</g>
<!-- sort_files -->
<g id="node16" class="node">
<title>sort_files</title>
<path fill="none" stroke="black" d="M1072.5,-409.5C1072.5,-409.5 947.5,-409.5 947.5,-409.5 941.5,-409.5 935.5,-403.5 935.5,-397.5 935.5,-397.5 935.5,-385.5 935.5,-385.5 935.5,-379.5 941.5,-373.5 947.5,-373.5 947.5,-373.5 1072.5,-373.5 1072.5,-373.5 1078.5,-373.5 1084.5,-379.5 1084.5,-385.5 1084.5,-385.5 1084.5,-397.5 1084.5,-397.5 1084.5,-403.5 1078.5,-409.5 1072.5,-409.5"/>
<text text-anchor="middle" x="1010" y="-387.8" font-family="Times,serif" font-size="14.00">对 all_files 进行排序</text>
</g>
<!-- delete_dirs_loop&#45;&gt;sort_files -->
<g id="edge27" class="edge">
<title>delete_dirs_loop&#45;&gt;sort_files</title>
<path fill="none" stroke="black" d="M1008.37,-468.85C1008.66,-455.14 1009.08,-435.67 1009.42,-419.82"/>
<polygon fill="black" stroke="black" points="1012.92,-419.61 1009.64,-409.54 1005.92,-419.46 1012.92,-419.61"/>
</g>
<!-- check_dir_empty -->
<g id="node25" class="node">
<title>check_dir_empty</title>
<path fill="none" stroke="black" d="M874,-607C874,-607 762,-607 762,-607 756,-607 750,-601 750,-595 750,-595 750,-583 750,-583 750,-577 756,-571 762,-571 762,-571 874,-571 874,-571 880,-571 886,-577 886,-583 886,-583 886,-595 886,-595 886,-601 880,-607 874,-607"/>
<text text-anchor="middle" x="818" y="-585.3" font-family="Times,serif" font-size="14.00">check_dir_empty</text>
</g>
<!-- delete_dirs_loop&#45;&gt;check_dir_empty -->
<g id="edge23" class="edge">
<title>delete_dirs_loop&#45;&gt;check_dir_empty</title>
<path fill="none" stroke="black" d="M928.11,-491.82C901.04,-496.51 872.1,-505.65 850,-523 837.86,-532.53 830.01,-547.86 825.12,-561.24"/>
<polygon fill="black" stroke="black" points="821.72,-560.37 821.94,-570.96 828.37,-562.55 821.72,-560.37"/>
<text text-anchor="middle" x="893" y="-534.3" font-family="Times,serif" font-size="14.00">尝试删除目录</text>
</g>
<!-- delete_error -->
<g id="node29" class="node">
<title>delete_error</title>
<path fill="none" stroke="black" d="M1306,-409.5C1306,-409.5 1226,-409.5 1226,-409.5 1220,-409.5 1214,-403.5 1214,-397.5 1214,-397.5 1214,-385.5 1214,-385.5 1214,-379.5 1220,-373.5 1226,-373.5 1226,-373.5 1306,-373.5 1306,-373.5 1312,-373.5 1318,-379.5 1318,-385.5 1318,-385.5 1318,-397.5 1318,-397.5 1318,-403.5 1312,-409.5 1306,-409.5"/>
<text text-anchor="middle" x="1266" y="-387.8" font-family="Times,serif" font-size="14.00">delete_error</text>
</g>
<!-- delete_dirs_loop&#45;&gt;delete_error -->
<g id="edge37" class="edge">
<title>delete_dirs_loop&#45;&gt;delete_error</title>
<path fill="none" stroke="red" d="M1055.02,-468.96C1098.44,-453.22 1163.02,-429.82 1209.29,-413.05"/>
<polygon fill="red" stroke="red" points="1210.66,-416.28 1218.87,-409.58 1208.27,-409.7 1210.66,-416.28"/>
<text text-anchor="middle" x="1173" y="-439.8" font-family="Times,serif" font-size="14.00">删除出错</text>
</g>
<!-- hash_processing -->
<g id="node17" class="node">
<title>hash_processing</title>
<path fill="none" stroke="black" d="M1076,-306.5C1076,-306.5 984,-306.5 984,-306.5 978,-306.5 972,-300.5 972,-294.5 972,-294.5 972,-280.5 972,-280.5 972,-274.5 978,-268.5 984,-268.5 984,-268.5 1076,-268.5 1076,-268.5 1082,-268.5 1088,-274.5 1088,-280.5 1088,-280.5 1088,-294.5 1088,-294.5 1088,-300.5 1082,-306.5 1076,-306.5"/>
<text text-anchor="middle" x="1030" y="-291.3" font-family="Times,serif" font-size="14.00">收集哈希结果</text>
<text text-anchor="middle" x="1030" y="-276.3" font-family="Times,serif" font-size="14.00">累加 total_size</text>
</g>
<!-- sort_files&#45;&gt;hash_processing -->
<g id="edge28" class="edge">
<title>sort_files&#45;&gt;hash_processing</title>
<path fill="none" stroke="black" d="M1013.39,-373.2C1016.43,-357.71 1020.94,-334.71 1024.49,-316.59"/>
<polygon fill="black" stroke="black" points="1027.97,-317.06 1026.46,-306.58 1021.1,-315.72 1027.97,-317.06"/>
</g>
<!-- check_errors -->
<g id="node18" class="node">
<title>check_errors</title>
<path fill="none" stroke="black" d="M1031.4,-206.93C1031.4,-206.93 986.57,-195.07 986.57,-195.07 980.77,-193.53 980.77,-190.47 986.57,-188.93 986.57,-188.93 1031.4,-177.07 1031.4,-177.07 1037.2,-175.53 1048.8,-175.53 1054.6,-177.07 1054.6,-177.07 1099.43,-188.93 1099.43,-188.93 1105.23,-190.47 1105.23,-193.53 1099.43,-195.07 1099.43,-195.07 1054.6,-206.93 1054.6,-206.93 1048.8,-208.47 1037.2,-208.47 1031.4,-206.93"/>
<text text-anchor="middle" x="1043" y="-188.3" font-family="Times,serif" font-size="14.00">检查错误</text>
</g>
<!-- hash_processing&#45;&gt;check_errors -->
<g id="edge29" class="edge">
<title>hash_processing&#45;&gt;check_errors</title>
<path fill="none" stroke="black" d="M1032.51,-268.47C1034.44,-254.59 1037.13,-235.19 1039.31,-219.53"/>
<polygon fill="black" stroke="black" points="1042.81,-219.79 1040.72,-209.41 1035.87,-218.83 1042.81,-219.79"/>
</g>
<!-- check_errors&#45;&gt;end -->
<g id="edge31" class="edge">
<title>check_errors&#45;&gt;end</title>
<path fill="none" stroke="black" d="M1063.16,-179.27C1071.21,-173.41 1079.61,-165.52 1084,-156 1100.42,-120.39 1089.67,-74.23 1079.81,-45.62"/>
<polygon fill="black" stroke="black" points="1082.99,-44.12 1076.27,-35.93 1076.41,-46.52 1082.99,-44.12"/>
<text text-anchor="middle" x="1113.5" y="-101.3" font-family="Times,serif" font-size="14.00">无错误</text>
</g>
<!-- check_errors&#45;&gt;end -->
<g id="edge32" class="edge">
<title>check_errors&#45;&gt;end</title>
<path fill="none" stroke="black" d="M1069.82,-181.01C1093.3,-170.59 1125.68,-151.72 1139,-123 1147.23,-105.26 1147.17,-96.77 1139,-79 1131.92,-63.61 1118.74,-50.69 1105.7,-40.83"/>
<polygon fill="black" stroke="black" points="1107.4,-37.74 1097.22,-34.8 1103.34,-43.45 1107.4,-37.74"/>
<text text-anchor="middle" x="1219" y="-101.3" font-family="Times,serif" font-size="14.00">有错误 → FetchFailed</text>
</g>
<!-- dump_debug -->
<g id="node19" class="node">
<title>dump_debug</title>
<path fill="none" stroke="black" d="M1050.5,-123C1050.5,-123 915.5,-123 915.5,-123 909.5,-123 903.5,-117 903.5,-111 903.5,-111 903.5,-99 903.5,-99 903.5,-93 909.5,-87 915.5,-87 915.5,-87 1050.5,-87 1050.5,-87 1056.5,-87 1062.5,-93 1062.5,-99 1062.5,-99 1062.5,-111 1062.5,-111 1062.5,-117 1056.5,-123 1050.5,-123"/>
<text text-anchor="middle" x="983" y="-101.3" font-family="Times,serif" font-size="14.00">调试模式输出哈希信息</text>
</g>
<!-- check_errors&#45;&gt;dump_debug -->
<g id="edge30" class="edge">
<title>check_errors&#45;&gt;dump_debug</title>
<path fill="none" stroke="black" d="M1007.57,-183.14C993.02,-177.98 977.59,-169.57 969,-156 964.54,-148.96 965.13,-140.49 967.7,-132.53"/>
<polygon fill="black" stroke="black" points="970.96,-133.79 971.61,-123.22 964.51,-131.08 970.96,-133.79"/>
<text text-anchor="middle" x="1026.5" y="-144.8" font-family="Times,serif" font-size="14.00">无错误且调试模式</text>
</g>
<!-- dump_debug&#45;&gt;end -->
<g id="edge33" class="edge">
<title>dump_debug&#45;&gt;end</title>
<path fill="none" stroke="black" d="M1000.4,-86.8C1013.16,-74.19 1030.64,-56.92 1044.76,-42.96"/>
<polygon fill="black" stroke="black" points="1047.56,-45.12 1052.21,-35.6 1042.64,-40.14 1047.56,-45.12"/>
</g>
<!-- spawn_delete -->
<g id="node21" class="node">
<title>spawn_delete</title>
<path fill="none" stroke="black" d="M337.5,-809C337.5,-809 248.5,-809 248.5,-809 242.5,-809 236.5,-803 236.5,-797 236.5,-797 236.5,-785 236.5,-785 236.5,-779 242.5,-773 248.5,-773 248.5,-773 337.5,-773 337.5,-773 343.5,-773 349.5,-779 349.5,-785 349.5,-785 349.5,-797 349.5,-797 349.5,-803 343.5,-809 337.5,-809"/>
<text text-anchor="middle" x="293" y="-787.3" font-family="Times,serif" font-size="14.00">spawn_delete</text>
</g>
<!-- sus_dirs_put&#45;&gt;spawn_delete -->
<g id="edge13" class="edge">
<title>sus_dirs_put&#45;&gt;spawn_delete</title>
<path fill="none" stroke="black" d="M227.59,-859.8C239.6,-847.36 255.99,-830.36 269.36,-816.5"/>
<polygon fill="black" stroke="black" points="272.01,-818.8 276.43,-809.18 266.97,-813.94 272.01,-818.8"/>
<text text-anchor="middle" x="299" y="-830.8" font-family="Times,serif" font-size="14.00">启动删除线程</text>
</g>
<!-- spawn_delete&#45;&gt;walk_loop -->
<g id="edge14" class="edge">
<title>spawn_delete&#45;&gt;walk_loop</title>
<path fill="none" stroke="black" d="M336.84,-772.91C376.04,-757.63 433.61,-735.19 475.51,-718.85"/>
<polygon fill="black" stroke="black" points="476.95,-722.05 485,-715.15 474.41,-715.52 476.95,-722.05"/>
</g>
<!-- add_error&#45;&gt;end -->
<g id="edge17" class="edge">
<title>add_error&#45;&gt;end</title>
<path fill="none" stroke="black" d="M600.17,-89.83C636.34,-78.49 689.53,-63.03 737,-54 821.21,-37.98 918.94,-28.79 986.46,-23.88"/>
<polygon fill="black" stroke="black" points="986.88,-27.36 996.61,-23.16 986.39,-20.38 986.88,-27.36"/>
<text text-anchor="middle" x="795" y="-57.8" font-family="Times,serif" font-size="14.00">返回 FetchFailed</text>
</g>
<!-- spawn_hash -->
<g id="node24" class="node">
<title>spawn_hash</title>
<path fill="none" stroke="black" d="M154.5,-809C154.5,-809 75.5,-809 75.5,-809 69.5,-809 63.5,-803 63.5,-797 63.5,-797 63.5,-785 63.5,-785 63.5,-779 69.5,-773 75.5,-773 75.5,-773 154.5,-773 154.5,-773 160.5,-773 166.5,-779 166.5,-785 166.5,-785 166.5,-797 166.5,-797 166.5,-803 160.5,-809 154.5,-809"/>
<text text-anchor="middle" x="115" y="-787.3" font-family="Times,serif" font-size="14.00">spawn_hash</text>
</g>
<!-- check_build_zig&#45;&gt;spawn_hash -->
<g id="edge19" class="edge">
<title>check_build_zig&#45;&gt;spawn_hash</title>
<path fill="none" stroke="black" d="M74.32,-859.8C81.51,-847.82 91.23,-831.62 99.37,-818.06"/>
<polygon fill="black" stroke="black" points="102.55,-819.55 104.69,-809.18 96.55,-815.95 102.55,-819.55"/>
<text text-anchor="middle" x="136" y="-830.8" font-family="Times,serif" font-size="14.00">启动哈希线程</text>
</g>
<!-- spawn_hash&#45;&gt;walk_loop -->
<g id="edge20" class="edge">
<title>spawn_hash&#45;&gt;walk_loop</title>
<path fill="none" stroke="black" d="M166.6,-778.53C235.64,-763.19 359.06,-735.76 442.46,-717.23"/>
<polygon fill="black" stroke="black" points="443.42,-720.6 452.43,-715.02 441.9,-713.77 443.42,-720.6"/>
</g>
<!-- check_dir_empty&#45;&gt;delete_dirs_loop -->
<g id="edge26" class="edge">
<title>check_dir_empty&#45;&gt;delete_dirs_loop</title>
<path fill="none" stroke="black" d="M886.24,-572.11C907.41,-566.26 927.43,-559.47 936,-553 948.59,-543.48 943.95,-534.27 955,-523 959.21,-518.71 964.02,-514.67 968.99,-510.95"/>
<polygon fill="black" stroke="black" points="971.26,-513.64 977.44,-505.03 967.24,-507.91 971.26,-513.64"/>
<text text-anchor="middle" x="1012.5" y="-534.3" font-family="Times,serif" font-size="14.00">目录非空或不存在</text>
</g>
<!-- add_parent -->
<g id="node26" class="node">
<title>add_parent</title>
<path fill="none" stroke="black" d="M845.5,-505C845.5,-505 772.5,-505 772.5,-505 766.5,-505 760.5,-499 760.5,-493 760.5,-493 760.5,-481 760.5,-481 760.5,-475 766.5,-469 772.5,-469 772.5,-469 845.5,-469 845.5,-469 851.5,-469 857.5,-475 857.5,-481 857.5,-481 857.5,-493 857.5,-493 857.5,-499 851.5,-505 845.5,-505"/>
<text text-anchor="middle" x="809" y="-483.3" font-family="Times,serif" font-size="14.00">add_parent</text>
</g>
<!-- check_dir_empty&#45;&gt;add_parent -->
<g id="edge24" class="edge">
<title>check_dir_empty&#45;&gt;add_parent</title>
<path fill="none" stroke="black" d="M772.95,-570.96C765.78,-566.24 759.31,-560.33 755,-553 748.24,-541.51 748.63,-534.71 755,-523 757.31,-518.75 760.39,-514.93 763.91,-511.52"/>
<polygon fill="black" stroke="black" points="766.18,-514.18 771.64,-505.1 761.71,-508.8 766.18,-514.18"/>
<text text-anchor="middle" x="791" y="-541.8" font-family="Times,serif" font-size="14.00">删除成功</text>
<text text-anchor="middle" x="791" y="-526.8" font-family="Times,serif" font-size="14.00">记录父目录</text>
</g>
<!-- add_parent&#45;&gt;delete_dirs_loop -->
<g id="edge25" class="edge">
<title>add_parent&#45;&gt;delete_dirs_loop</title>
<path fill="none" stroke="black" d="M857.58,-487C877.77,-487 897.96,-487 918.15,-487"/>
<polygon fill="black" stroke="black" points="918.39,-490.5 928.39,-487 918.39,-483.5 918.39,-490.5"/>
</g>
<!-- add_error_msg -->
<g id="node28" class="node">
<title>add_error_msg</title>
<path fill="none" stroke="black" d="M821.5,-123C821.5,-123 722.5,-123 722.5,-123 716.5,-123 710.5,-117 710.5,-111 710.5,-111 710.5,-99 710.5,-99 710.5,-93 716.5,-87 722.5,-87 722.5,-87 821.5,-87 821.5,-87 827.5,-87 833.5,-93 833.5,-99 833.5,-99 833.5,-111 833.5,-111 833.5,-117 827.5,-123 821.5,-123"/>
<text text-anchor="middle" x="772" y="-101.3" font-family="Times,serif" font-size="14.00">add_error_msg</text>
</g>
<!-- walk_error&#45;&gt;add_error_msg -->
<g id="edge35" class="edge">
<title>walk_error&#45;&gt;add_error_msg</title>
<path fill="none" stroke="red" d="M690.01,-570.83C695.34,-551.04 703,-517.46 703,-488 703,-488 703,-488 703,-191 703,-166.44 720.58,-145.02 737.99,-129.82"/>
<polygon fill="red" stroke="red" points="740.42,-132.35 745.91,-123.29 735.97,-126.95 740.42,-132.35"/>
<text text-anchor="middle" x="746" y="-335.8" font-family="Times,serif" font-size="14.00">记录错误信息</text>
</g>
<!-- add_error_msg&#45;&gt;end -->
<g id="edge36" class="edge">
<title>add_error_msg&#45;&gt;end</title>
<path fill="none" stroke="red" d="M810.62,-86.95C835.72,-76.36 869.35,-63.09 900,-54 932,-44.51 968.16,-36.65 998.79,-30.8"/>
<polygon fill="red" stroke="red" points="999.77,-34.18 1008.95,-28.89 998.48,-27.3 999.77,-34.18"/>
<text text-anchor="middle" x="958" y="-57.8" font-family="Times,serif" font-size="14.00">返回 FetchFailed</text>
</g>
<!-- add_dir_error -->
<g id="node30" class="node">
<title>add_dir_error</title>
<path fill="none" stroke="black" d="M1375.5,-305.5C1375.5,-305.5 1286.5,-305.5 1286.5,-305.5 1280.5,-305.5 1274.5,-299.5 1274.5,-293.5 1274.5,-293.5 1274.5,-281.5 1274.5,-281.5 1274.5,-275.5 1280.5,-269.5 1286.5,-269.5 1286.5,-269.5 1375.5,-269.5 1375.5,-269.5 1381.5,-269.5 1387.5,-275.5 1387.5,-281.5 1387.5,-281.5 1387.5,-293.5 1387.5,-293.5 1387.5,-299.5 1381.5,-305.5 1375.5,-305.5"/>
<text text-anchor="middle" x="1331" y="-283.8" font-family="Times,serif" font-size="14.00">add_dir_error</text>
</g>
<!-- delete_error&#45;&gt;add_dir_error -->
<g id="edge38" class="edge">
<title>delete_error&#45;&gt;add_dir_error</title>
<path fill="none" stroke="red" d="M1277.03,-373.2C1287.36,-356.98 1302.94,-332.54 1314.71,-314.07"/>
<polygon fill="red" stroke="red" points="1317.71,-315.86 1320.14,-305.55 1311.81,-312.1 1317.71,-315.86"/>
<text text-anchor="middle" x="1345" y="-335.8" font-family="Times,serif" font-size="14.00">记录错误信息</text>
</g>
<!-- add_dir_error&#45;&gt;end -->
<g id="edge39" class="edge">
<title>add_dir_error&#45;&gt;end</title>
<path fill="none" stroke="red" d="M1333.8,-269.4C1339.17,-230.24 1346.36,-133.29 1297,-79 1276.24,-56.17 1200.84,-39.42 1142.37,-29.51"/>
<polygon fill="red" stroke="red" points="1142.84,-26.04 1132.41,-27.85 1141.7,-32.94 1142.84,-26.04"/>
<text text-anchor="middle" x="1390" y="-144.8" font-family="Times,serif" font-size="14.00">返回 FetchFailed</text>
</g>
</g>
</svg>
