<?xml version="1.0" encoding="UTF-8" standalone="no"?>
<!DOCTYPE svg PUBLIC "-//W3C//DTD SVG 1.1//EN"
 "http://www.w3.org/Graphics/SVG/1.1/DTD/svg11.dtd">
<!-- Generated by graphviz version 2.43.0 (0)
 -->
<!-- Title: runResource Pages: 1 -->
<svg width="617pt" height="1157pt"
 viewBox="0.00 0.00 616.78 1157.00" xmlns="http://www.w3.org/2000/svg" xmlns:xlink="http://www.w3.org/1999/xlink">
<g id="graph0" class="graph" transform="scale(1 1) rotate(0) translate(4 1153)">
<title>runResource</title>
<polygon fill="white" stroke="transparent" points="-4,4 -4,-1153 612.78,-1153 612.78,4 -4,4"/>
<!-- start -->
<g id="node1" class="node">
<title>start</title>
<path fill="none" stroke="black" d="M490.5,-1149C490.5,-1149 460.5,-1149 460.5,-1149 454.5,-1149 448.5,-1143 448.5,-1137 448.5,-1137 448.5,-1125 448.5,-1125 448.5,-1119 454.5,-1113 460.5,-1113 460.5,-1113 490.5,-1113 490.5,-1113 496.5,-1113 502.5,-1119 502.5,-1125 502.5,-1125 502.5,-1137 502.5,-1137 502.5,-1143 496.5,-1149 490.5,-1149"/>
<text text-anchor="middle" x="475.5" y="-1127.3" font-family="Times,serif" font-size="14.00">开始</text>
</g>
<!-- create_temp_dir -->
<g id="node2" class="node">
<title>create_temp_dir</title>
<path fill="none" stroke="black" d="M580,-1076C580,-1076 371,-1076 371,-1076 365,-1076 359,-1070 359,-1064 359,-1064 359,-1052 359,-1052 359,-1046 365,-1040 371,-1040 371,-1040 580,-1040 580,-1040 586,-1040 592,-1046 592,-1052 592,-1052 592,-1064 592,-1064 592,-1070 586,-1076 580,-1076"/>
<text text-anchor="middle" x="475.5" y="-1054.3" font-family="Times,serif" font-size="14.00">创建临时目录 tmp_dir_sub_path</text>
</g>
<!-- start&#45;&gt;create_temp_dir -->
<g id="edge1" class="edge">
<title>start&#45;&gt;create_temp_dir</title>
<path fill="none" stroke="black" d="M475.5,-1112.81C475.5,-1104.79 475.5,-1095.05 475.5,-1086.07"/>
<polygon fill="black" stroke="black" points="479,-1086.03 475.5,-1076.03 472,-1086.03 479,-1086.03"/>
</g>
<!-- check_temp_dir_creation -->
<g id="node3" class="node">
<title>check_temp_dir_creation</title>
<path fill="none" stroke="black" d="M463.61,-1001.39C463.61,-1001.39 354.34,-986.61 354.34,-986.61 348.39,-985.8 348.39,-984.2 354.34,-983.39 354.34,-983.39 463.61,-968.61 463.61,-968.61 469.55,-967.8 481.45,-967.8 487.39,-968.61 487.39,-968.61 596.66,-983.39 596.66,-983.39 602.61,-984.2 602.61,-985.8 596.66,-986.61 596.66,-986.61 487.39,-1001.39 487.39,-1001.39 481.45,-1002.2 469.55,-1002.2 463.61,-1001.39"/>
<text text-anchor="middle" x="475.5" y="-981.3" font-family="Times,serif" font-size="14.00">临时目录创建成功？</text>
</g>
<!-- create_temp_dir&#45;&gt;check_temp_dir_creation -->
<g id="edge2" class="edge">
<title>create_temp_dir&#45;&gt;check_temp_dir_creation</title>
<path fill="none" stroke="black" d="M475.5,-1039.81C475.5,-1031.79 475.5,-1022.05 475.5,-1013.07"/>
<polygon fill="black" stroke="black" points="479,-1013.03 475.5,-1003.03 472,-1013.03 479,-1013.03"/>
</g>
<!-- unpack_resource -->
<g id="node4" class="node">
<title>unpack_resource</title>
<path fill="none" stroke="black" d="M478,-916C478,-916 357,-916 357,-916 351,-916 345,-910 345,-904 345,-904 345,-892 345,-892 345,-886 351,-880 357,-880 357,-880 478,-880 478,-880 484,-880 490,-886 490,-892 490,-892 490,-904 490,-904 490,-910 484,-916 478,-916"/>
<text text-anchor="middle" x="417.5" y="-894.3" font-family="Times,serif" font-size="14.00">解包资源到临时目录</text>
</g>
<!-- check_temp_dir_creation&#45;&gt;unpack_resource -->
<g id="edge3" class="edge">
<title>check_temp_dir_creation&#45;&gt;unpack_resource</title>
<path fill="none" stroke="black" d="M464.86,-968.41C456.52,-956.19 444.74,-938.91 435.01,-924.66"/>
<polygon fill="black" stroke="black" points="437.8,-922.53 429.27,-916.25 432.01,-926.48 437.8,-922.53"/>
<text text-anchor="middle" x="458" y="-937.8" font-family="Times,serif" font-size="14.00">是</text>
</g>
<!-- error_fetch_failed -->
<g id="node17" class="node">
<title>error_fetch_failed</title>
<path fill="none" stroke="black" d="M592,-391C592,-391 459,-391 459,-391 453,-391 447,-385 447,-379 447,-379 447,-367 447,-367 447,-361 453,-355 459,-355 459,-355 592,-355 592,-355 598,-355 604,-361 604,-367 604,-367 604,-379 604,-379 604,-385 598,-391 592,-391"/>
<text text-anchor="middle" x="525.5" y="-369.3" font-family="Times,serif" font-size="14.00">返回FetchFailed错误</text>
</g>
<!-- check_temp_dir_creation&#45;&gt;error_fetch_failed -->
<g id="edge4" class="edge">
<title>check_temp_dir_creation&#45;&gt;error_fetch_failed</title>
<path fill="none" stroke="black" d="M491.05,-968.96C505.72,-953.08 525.5,-926.56 525.5,-899 525.5,-899 525.5,-899 525.5,-459 525.5,-439.75 525.5,-418.05 525.5,-401.4"/>
<polygon fill="black" stroke="black" points="529,-401.26 525.5,-391.26 522,-401.26 529,-401.26"/>
<text text-anchor="middle" x="533" y="-675.3" font-family="Times,serif" font-size="14.00">否</text>
</g>
<!-- handle_btrfs_workaround -->
<g id="node5" class="node">
<title>handle_btrfs_workaround</title>
<path fill="none" stroke="black" d="M485.5,-843C485.5,-843 303.5,-843 303.5,-843 297.5,-843 291.5,-837 291.5,-831 291.5,-831 291.5,-819 291.5,-819 291.5,-813 297.5,-807 303.5,-807 303.5,-807 485.5,-807 485.5,-807 491.5,-807 497.5,-813 497.5,-819 497.5,-819 497.5,-831 497.5,-831 497.5,-837 491.5,-843 485.5,-843"/>
<text text-anchor="middle" x="394.5" y="-821.3" font-family="Times,serif" font-size="14.00">处理Btrfs问题（Linux特定）</text>
</g>
<!-- unpack_resource&#45;&gt;handle_btrfs_workaround -->
<g id="edge5" class="edge">
<title>unpack_resource&#45;&gt;handle_btrfs_workaround</title>
<path fill="none" stroke="black" d="M411.93,-879.81C409.3,-871.7 406.11,-861.84 403.17,-852.78"/>
<polygon fill="black" stroke="black" points="406.43,-851.46 400.02,-843.03 399.77,-853.62 406.43,-851.46"/>
</g>
<!-- load_manifest -->
<g id="node6" class="node">
<title>load_manifest</title>
<path fill="none" stroke="black" d="M485,-770C485,-770 302,-770 302,-770 296,-770 290,-764 290,-758 290,-758 290,-746 290,-746 290,-740 296,-734 302,-734 302,-734 485,-734 485,-734 491,-734 497,-740 497,-746 497,-746 497,-758 497,-758 497,-764 491,-770 485,-770"/>
<text text-anchor="middle" x="393.5" y="-748.3" font-family="Times,serif" font-size="14.00">加载并验证build.zig.zon清单</text>
</g>
<!-- handle_btrfs_workaround&#45;&gt;load_manifest -->
<g id="edge6" class="edge">
<title>handle_btrfs_workaround&#45;&gt;load_manifest</title>
<path fill="none" stroke="black" d="M394.26,-806.81C394.14,-798.79 394.01,-789.05 393.88,-780.07"/>
<polygon fill="black" stroke="black" points="397.38,-779.98 393.74,-770.03 390.38,-780.08 397.38,-779.98"/>
</g>
<!-- apply_filter -->
<g id="node7" class="node">
<title>apply_filter</title>
<path fill="none" stroke="black" d="M461,-697C461,-697 326,-697 326,-697 320,-697 314,-691 314,-685 314,-685 314,-673 314,-673 314,-667 320,-661 326,-661 326,-661 461,-661 461,-661 467,-661 473,-667 473,-673 473,-673 473,-685 473,-685 473,-691 467,-697 461,-697"/>
<text text-anchor="middle" x="393.5" y="-675.3" font-family="Times,serif" font-size="14.00">应用过滤规则删除文件</text>
</g>
<!-- load_manifest&#45;&gt;apply_filter -->
<g id="edge7" class="edge">
<title>load_manifest&#45;&gt;apply_filter</title>
<path fill="none" stroke="black" d="M393.5,-733.81C393.5,-725.79 393.5,-716.05 393.5,-707.07"/>
<polygon fill="black" stroke="black" points="397,-707.03 393.5,-697.03 390,-707.03 397,-707.03"/>
</g>
<!-- compute_hash -->
<g id="node8" class="node">
<title>compute_hash</title>
<path fill="none" stroke="black" d="M425.5,-624C425.5,-624 361.5,-624 361.5,-624 355.5,-624 349.5,-618 349.5,-612 349.5,-612 349.5,-600 349.5,-600 349.5,-594 355.5,-588 361.5,-588 361.5,-588 425.5,-588 425.5,-588 431.5,-588 437.5,-594 437.5,-600 437.5,-600 437.5,-612 437.5,-612 437.5,-618 431.5,-624 425.5,-624"/>
<text text-anchor="middle" x="393.5" y="-602.3" font-family="Times,serif" font-size="14.00">计算包哈希</text>
</g>
<!-- apply_filter&#45;&gt;compute_hash -->
<g id="edge8" class="edge">
<title>apply_filter&#45;&gt;compute_hash</title>
<path fill="none" stroke="black" d="M393.5,-660.81C393.5,-652.79 393.5,-643.05 393.5,-634.07"/>
<polygon fill="black" stroke="black" points="397,-634.03 393.5,-624.03 390,-634.03 397,-634.03"/>
</g>
<!-- rename_temp_to_cache -->
<g id="node9" class="node">
<title>rename_temp_to_cache</title>
<path fill="none" stroke="black" d="M482.5,-551C482.5,-551 304.5,-551 304.5,-551 298.5,-551 292.5,-545 292.5,-539 292.5,-539 292.5,-527 292.5,-527 292.5,-521 298.5,-515 304.5,-515 304.5,-515 482.5,-515 482.5,-515 488.5,-515 494.5,-521 494.5,-527 494.5,-527 494.5,-539 494.5,-539 494.5,-545 488.5,-551 482.5,-551"/>
<text text-anchor="middle" x="393.5" y="-529.3" font-family="Times,serif" font-size="14.00">将临时目录重命名为缓存目录</text>
</g>
<!-- compute_hash&#45;&gt;rename_temp_to_cache -->
<g id="edge9" class="edge">
<title>compute_hash&#45;&gt;rename_temp_to_cache</title>
<path fill="none" stroke="black" d="M393.5,-587.81C393.5,-579.79 393.5,-570.05 393.5,-561.07"/>
<polygon fill="black" stroke="black" points="397,-561.03 393.5,-551.03 390,-561.03 397,-561.03"/>
</g>
<!-- check_rename_success -->
<g id="node10" class="node">
<title>check_rename_success</title>
<path fill="none" stroke="black" d="M381.72,-475.73C381.72,-475.73 311.77,-462.27 311.77,-462.27 305.88,-461.13 305.88,-458.87 311.77,-457.73 311.77,-457.73 381.72,-444.27 381.72,-444.27 387.61,-443.13 399.39,-443.13 405.28,-444.27 405.28,-444.27 475.23,-457.73 475.23,-457.73 481.12,-458.87 481.12,-461.13 475.23,-462.27 475.23,-462.27 405.28,-475.73 405.28,-475.73 399.39,-476.87 387.61,-476.87 381.72,-475.73"/>
<text text-anchor="middle" x="393.5" y="-456.3" font-family="Times,serif" font-size="14.00">重命名成功？</text>
</g>
<!-- rename_temp_to_cache&#45;&gt;check_rename_success -->
<g id="edge10" class="edge">
<title>rename_temp_to_cache&#45;&gt;check_rename_success</title>
<path fill="none" stroke="black" d="M393.5,-514.81C393.5,-506.79 393.5,-497.05 393.5,-488.07"/>
<polygon fill="black" stroke="black" points="397,-488.03 393.5,-478.03 390,-488.03 397,-488.03"/>
</g>
<!-- validate_hash -->
<g id="node11" class="node">
<title>validate_hash</title>
<path fill="none" stroke="black" d="M417,-391C417,-391 310,-391 310,-391 304,-391 298,-385 298,-379 298,-379 298,-367 298,-367 298,-361 304,-355 310,-355 310,-355 417,-355 417,-355 423,-355 429,-361 429,-367 429,-367 429,-379 429,-379 429,-385 423,-391 417,-391"/>
<text text-anchor="middle" x="363.5" y="-369.3" font-family="Times,serif" font-size="14.00">验证哈希是否匹配</text>
</g>
<!-- check_rename_success&#45;&gt;validate_hash -->
<g id="edge11" class="edge">
<title>check_rename_success&#45;&gt;validate_hash</title>
<path fill="none" stroke="black" d="M387.86,-443.01C383.65,-431.09 377.81,-414.54 372.9,-400.64"/>
<polygon fill="black" stroke="black" points="376.16,-399.35 369.53,-391.08 369.56,-401.68 376.16,-399.35"/>
<text text-anchor="middle" x="388" y="-412.8" font-family="Times,serif" font-size="14.00">是</text>
</g>
<!-- check_rename_success&#45;&gt;error_fetch_failed -->
<g id="edge12" class="edge">
<title>check_rename_success&#45;&gt;error_fetch_failed</title>
<path fill="none" stroke="black" d="M413.84,-445.91C434.19,-432.8 465.91,-412.37 490.34,-396.64"/>
<polygon fill="black" stroke="black" points="492.47,-399.43 498.98,-391.07 488.68,-393.55 492.47,-399.43"/>
<text text-anchor="middle" x="475" y="-412.8" font-family="Times,serif" font-size="14.00">否</text>
</g>
<!-- check_hash_match -->
<g id="node12" class="node">
<title>check_hash_match</title>
<path fill="none" stroke="black" d="M284.79,-301.39C284.79,-301.39 227.44,-288.61 227.44,-288.61 221.58,-287.31 221.58,-284.69 227.44,-283.39 227.44,-283.39 284.79,-270.61 284.79,-270.61 290.64,-269.31 302.36,-269.31 308.21,-270.61 308.21,-270.61 365.56,-283.39 365.56,-283.39 371.42,-284.69 371.42,-287.31 365.56,-288.61 365.56,-288.61 308.21,-301.39 308.21,-301.39 302.36,-302.69 290.64,-302.69 284.79,-301.39"/>
<text text-anchor="middle" x="296.5" y="-282.3" font-family="Times,serif" font-size="14.00">哈希匹配？</text>
</g>
<!-- validate_hash&#45;&gt;check_hash_match -->
<g id="edge13" class="edge">
<title>validate_hash&#45;&gt;check_hash_match</title>
<path fill="none" stroke="black" d="M349.94,-354.8C339.75,-341.86 325.67,-324.01 314.53,-309.87"/>
<polygon fill="black" stroke="black" points="316.97,-307.31 308.03,-301.63 311.47,-311.65 316.97,-307.31"/>
</g>
<!-- error_missing_hash -->
<g id="node19" class="node">
<title>error_missing_hash</title>
<path fill="none" stroke="black" d="M512,-250C512,-250 377,-250 377,-250 371,-250 365,-244 365,-238 365,-238 365,-226 365,-226 365,-220 371,-214 377,-214 377,-214 512,-214 512,-214 518,-214 524,-220 524,-226 524,-226 524,-238 524,-238 524,-244 518,-250 512,-250"/>
<text text-anchor="middle" x="444.5" y="-228.3" font-family="Times,serif" font-size="14.00">报告缺少哈希字段错误</text>
</g>
<!-- validate_hash&#45;&gt;error_missing_hash -->
<g id="edge21" class="edge">
<title>validate_hash&#45;&gt;error_missing_hash</title>
<path fill="none" stroke="black" d="M373.43,-354.96C387.4,-330.99 412.96,-287.12 429.32,-259.05"/>
<polygon fill="black" stroke="black" points="432.48,-260.59 434.49,-250.18 426.43,-257.06 432.48,-260.59"/>
<text text-anchor="middle" x="464" y="-325.8" font-family="Times,serif" font-size="14.00">无远程哈希且需要报错</text>
</g>
<!-- handle_hash_mismatch -->
<g id="node13" class="node">
<title>handle_hash_mismatch</title>
<path fill="none" stroke="black" d="M133,-196C133,-196 12,-196 12,-196 6,-196 0,-190 0,-184 0,-184 0,-172 0,-172 0,-166 6,-160 12,-160 12,-160 133,-160 133,-160 139,-160 145,-166 145,-172 145,-172 145,-184 145,-184 145,-190 139,-196 133,-196"/>
<text text-anchor="middle" x="72.5" y="-174.3" font-family="Times,serif" font-size="14.00">报告哈希不匹配错误</text>
</g>
<!-- check_hash_match&#45;&gt;handle_hash_mismatch -->
<g id="edge15" class="edge">
<title>check_hash_match&#45;&gt;handle_hash_mismatch</title>
<path fill="none" stroke="black" d="M271.67,-273.25C234.59,-255.7 164.13,-222.36 117.74,-200.41"/>
<polygon fill="black" stroke="black" points="119.05,-197.16 108.51,-196.04 116.05,-203.48 119.05,-197.16"/>
<text text-anchor="middle" x="226" y="-228.3" font-family="Times,serif" font-size="14.00">否</text>
</g>
<!-- check_recursive -->
<g id="node14" class="node">
<title>check_recursive</title>
<path fill="none" stroke="black" d="M284.61,-194.39C284.61,-194.39 175.34,-179.61 175.34,-179.61 169.39,-178.8 169.39,-177.2 175.34,-176.39 175.34,-176.39 284.61,-161.61 284.61,-161.61 290.55,-160.8 302.45,-160.8 308.39,-161.61 308.39,-161.61 417.66,-176.39 417.66,-176.39 423.61,-177.2 423.61,-178.8 417.66,-179.61 417.66,-179.61 308.39,-194.39 308.39,-194.39 302.45,-195.2 290.55,-195.2 284.61,-194.39"/>
<text text-anchor="middle" x="296.5" y="-174.3" font-family="Times,serif" font-size="14.00">需要递归获取依赖？</text>
</g>
<!-- check_hash_match&#45;&gt;check_recursive -->
<g id="edge14" class="edge">
<title>check_hash_match&#45;&gt;check_recursive</title>
<path fill="none" stroke="black" d="M296.5,-267.97C296.5,-251.38 296.5,-225.88 296.5,-206.43"/>
<polygon fill="black" stroke="black" points="300,-206.34 296.5,-196.34 293,-206.34 300,-206.34"/>
<text text-anchor="middle" x="304" y="-228.3" font-family="Times,serif" font-size="14.00">是</text>
</g>
<!-- error_hash_mismatch -->
<g id="node18" class="node">
<title>error_hash_mismatch</title>
<path fill="none" stroke="black" d="M172.5,-109C172.5,-109 94.5,-109 94.5,-109 88.5,-109 82.5,-103 82.5,-97 82.5,-97 82.5,-85 82.5,-85 82.5,-79 88.5,-73 94.5,-73 94.5,-73 172.5,-73 172.5,-73 178.5,-73 184.5,-79 184.5,-85 184.5,-85 184.5,-97 184.5,-97 184.5,-103 178.5,-109 172.5,-109"/>
<text text-anchor="middle" x="133.5" y="-87.3" font-family="Times,serif" font-size="14.00">返回哈希错误</text>
</g>
<!-- handle_hash_mismatch&#45;&gt;error_hash_mismatch -->
<g id="edge19" class="edge">
<title>handle_hash_mismatch&#45;&gt;error_hash_mismatch</title>
<path fill="none" stroke="black" d="M84.84,-159.8C93.53,-147.7 105.29,-131.3 115.08,-117.67"/>
<polygon fill="black" stroke="black" points="118.19,-119.34 121.17,-109.18 112.5,-115.26 118.19,-119.34"/>
</g>
<!-- queue_deps_jobs -->
<g id="node15" class="node">
<title>queue_deps_jobs</title>
<path fill="none" stroke="black" d="M342,-109C342,-109 221,-109 221,-109 215,-109 209,-103 209,-97 209,-97 209,-85 209,-85 209,-79 215,-73 221,-73 221,-73 342,-73 342,-73 348,-73 354,-79 354,-85 354,-85 354,-97 354,-97 354,-103 348,-109 342,-109"/>
<text text-anchor="middle" x="281.5" y="-87.3" font-family="Times,serif" font-size="14.00">为依赖项排队新任务</text>
</g>
<!-- check_recursive&#45;&gt;queue_deps_jobs -->
<g id="edge16" class="edge">
<title>check_recursive&#45;&gt;queue_deps_jobs</title>
<path fill="none" stroke="black" d="M293.54,-160.21C291.47,-148.52 288.68,-132.69 286.3,-119.22"/>
<polygon fill="black" stroke="black" points="289.69,-118.29 284.51,-109.05 282.8,-119.51 289.69,-118.29"/>
<text text-anchor="middle" x="298" y="-130.8" font-family="Times,serif" font-size="14.00">是</text>
</g>
<!-- end -->
<g id="node16" class="node">
<title>end</title>
<path fill="none" stroke="black" d="M377.5,-36C377.5,-36 347.5,-36 347.5,-36 341.5,-36 335.5,-30 335.5,-24 335.5,-24 335.5,-12 335.5,-12 335.5,-6 341.5,0 347.5,0 347.5,0 377.5,0 377.5,0 383.5,0 389.5,-6 389.5,-12 389.5,-12 389.5,-24 389.5,-24 389.5,-30 383.5,-36 377.5,-36"/>
<text text-anchor="middle" x="362.5" y="-14.3" font-family="Times,serif" font-size="14.00">结束</text>
</g>
<!-- check_recursive&#45;&gt;end -->
<g id="edge17" class="edge">
<title>check_recursive&#45;&gt;end</title>
<path fill="none" stroke="black" d="M317.26,-162.7C333,-150.51 353.41,-131.41 362.5,-109 370.55,-89.15 369.98,-64.75 367.71,-46.36"/>
<polygon fill="black" stroke="black" points="371.15,-45.7 366.23,-36.32 364.22,-46.72 371.15,-45.7"/>
<text text-anchor="middle" x="377" y="-87.3" font-family="Times,serif" font-size="14.00">否</text>
</g>
<!-- queue_deps_jobs&#45;&gt;end -->
<g id="edge18" class="edge">
<title>queue_deps_jobs&#45;&gt;end</title>
<path fill="none" stroke="black" d="M301.11,-72.81C311.36,-63.83 324.06,-52.69 335.25,-42.89"/>
<polygon fill="black" stroke="black" points="337.86,-45.25 343.07,-36.03 333.25,-39.99 337.86,-45.25"/>
</g>
<!-- error_hash_mismatch&#45;&gt;end -->
<g id="edge20" class="edge">
<title>error_hash_mismatch&#45;&gt;end</title>
<path fill="none" stroke="black" d="M184.61,-74.15C227.44,-60.87 287.56,-42.23 325.77,-30.39"/>
<polygon fill="black" stroke="black" points="326.95,-33.69 335.46,-27.38 324.88,-27 326.95,-33.69"/>
</g>
<!-- error_missing_hash&#45;&gt;end -->
<g id="edge22" class="edge">
<title>error_missing_hash&#45;&gt;end</title>
<path fill="none" stroke="black" d="M444.92,-213.73C444.83,-199.14 443.65,-177.83 438.5,-160 426.01,-116.8 398.97,-71.91 380.75,-44.71"/>
<polygon fill="black" stroke="black" points="383.47,-42.48 374.94,-36.19 377.68,-46.42 383.47,-42.48"/>
</g>
</g>
</svg>
