<?xml version="1.0" encoding="UTF-8" standalone="no"?>
<!DOCTYPE svg PUBLIC "-//W3C//DTD SVG 1.1//EN"
 "http://www.w3.org/Graphics/SVG/1.1/DTD/svg11.dtd">
<!-- Generated by graphviz version 2.43.0 (0)
 -->
<!-- Title: flowchart Pages: 1 -->
<svg width="1334pt" height="638pt"
 viewBox="0.00 0.00 1333.64 638.00" xmlns="http://www.w3.org/2000/svg" xmlns:xlink="http://www.w3.org/1999/xlink">
<g id="graph0" class="graph" transform="scale(1 1) rotate(0) translate(4 634)">
<title>flowchart</title>
<polygon fill="white" stroke="transparent" points="-4,4 -4,-634 1329.64,-634 1329.64,4 -4,4"/>
<g id="clust1" class="cluster">
<title>cluster_recursion</title>
<polygon fill="none" stroke="black" points="123.64,-211 123.64,-393 341.64,-393 341.64,-211 123.64,-211"/>
<text text-anchor="middle" x="232.64" y="-377.8" font-family="Times,serif" font-size="14.00">递归处理</text>
</g>
<!-- start -->
<g id="node1" class="node">
<title>start</title>
<path fill="none" stroke="black" d="M929.64,-630C929.64,-630 725.64,-630 725.64,-630 719.64,-630 713.64,-624 713.64,-618 713.64,-618 713.64,-606 713.64,-606 713.64,-600 719.64,-594 725.64,-594 725.64,-594 929.64,-594 929.64,-594 935.64,-594 941.64,-600 941.64,-606 941.64,-606 941.64,-618 941.64,-618 941.64,-624 935.64,-630 929.64,-630"/>
<text text-anchor="middle" x="827.64" y="-608.3" font-family="Arial" font-size="14.00">开始 typeHasOnePossibleValue(ty)</text>
</g>
<!-- switch_ty -->
<g id="node2" class="node">
<title>switch_ty</title>
<path fill="none" stroke="black" d="M881.14,-557C881.14,-557 774.14,-557 774.14,-557 768.14,-557 762.14,-551 762.14,-545 762.14,-545 762.14,-533 762.14,-533 762.14,-527 768.14,-521 774.14,-521 774.14,-521 881.14,-521 881.14,-521 887.14,-521 893.14,-527 893.14,-533 893.14,-533 893.14,-545 893.14,-545 893.14,-551 887.14,-557 881.14,-557"/>
<text text-anchor="middle" x="827.64" y="-535.3" font-family="Arial" font-size="14.00">switch(ty.toIntern())</text>
</g>
<!-- start&#45;&gt;switch_ty -->
<g id="edge1" class="edge">
<title>start&#45;&gt;switch_ty</title>
<path fill="none" stroke="black" d="M827.64,-593.81C827.64,-585.79 827.64,-576.05 827.64,-567.07"/>
<polygon fill="black" stroke="black" points="831.14,-567.03 827.64,-557.03 824.14,-567.03 831.14,-567.03"/>
</g>
<!-- basic_types -->
<g id="node3" class="node">
<title>basic_types</title>
<path fill="none" stroke="black" d="M1148.14,-287C1148.14,-287 993.14,-287 993.14,-287 987.14,-287 981.14,-281 981.14,-275 981.14,-275 981.14,-201 981.14,-201 981.14,-195 987.14,-189 993.14,-189 993.14,-189 1148.14,-189 1148.14,-189 1154.14,-189 1160.14,-195 1160.14,-201 1160.14,-201 1160.14,-275 1160.14,-275 1160.14,-281 1154.14,-287 1148.14,-287"/>
<text text-anchor="middle" x="1070.64" y="-271.8" font-family="Arial" font-size="14.00">基本类型</text>
<text text-anchor="middle" x="1070.64" y="-256.8" font-family="Arial" font-size="14.00">(u0/i0返回0)</text>
<text text-anchor="middle" x="1070.64" y="-241.8" font-family="Arial" font-size="14.00">(其他数值类型返回null)</text>
<text text-anchor="middle" x="1070.64" y="-226.8" font-family="Arial" font-size="14.00">(void返回Value.void)</text>
<text text-anchor="middle" x="1070.64" y="-211.8" font-family="Arial" font-size="14.00">(noreturn返回unreachable)</text>
<text text-anchor="middle" x="1070.64" y="-196.8" font-family="Arial" font-size="14.00">(...)</text>
</g>
<!-- switch_ty&#45;&gt;basic_types -->
<g id="edge2" class="edge">
<title>switch_ty&#45;&gt;basic_types</title>
<path fill="none" stroke="black" d="M841.76,-520.63C876.82,-477.49 969.1,-363.95 1025.19,-294.92"/>
<polygon fill="black" stroke="black" points="1027.92,-297.11 1031.51,-287.15 1022.49,-292.7 1027.92,-297.11"/>
<text text-anchor="middle" x="980.64" y="-404.8" font-family="Arial" font-size="14.00">匹配基本类型</text>
</g>
<!-- complex_types -->
<g id="node4" class="node">
<title>complex_types</title>
<path fill="none" stroke="black" d="M663.64,-470C663.64,-470 585.64,-470 585.64,-470 579.64,-470 573.64,-464 573.64,-458 573.64,-458 573.64,-446 573.64,-446 573.64,-440 579.64,-434 585.64,-434 585.64,-434 663.64,-434 663.64,-434 669.64,-434 675.64,-440 675.64,-446 675.64,-446 675.64,-458 675.64,-458 675.64,-464 669.64,-470 663.64,-470"/>
<text text-anchor="middle" x="624.64" y="-448.3" font-family="Arial" font-size="14.00">复合类型处理</text>
</g>
<!-- switch_ty&#45;&gt;complex_types -->
<g id="edge3" class="edge">
<title>switch_ty&#45;&gt;complex_types</title>
<path fill="none" stroke="black" d="M786.56,-520.8C754.26,-507.27 709.13,-488.38 674.72,-473.97"/>
<polygon fill="black" stroke="black" points="675.89,-470.66 665.32,-470.03 673.19,-477.12 675.89,-470.66"/>
<text text-anchor="middle" x="766.64" y="-491.8" font-family="Arial" font-size="14.00">其他类型</text>
</g>
<!-- return_value -->
<g id="node10" class="node">
<title>return_value</title>
<path fill="none" stroke="black" d="M802.64,-123C802.64,-123 738.64,-123 738.64,-123 732.64,-123 726.64,-117 726.64,-111 726.64,-111 726.64,-99 726.64,-99 726.64,-93 732.64,-87 738.64,-87 738.64,-87 802.64,-87 802.64,-87 808.64,-87 814.64,-93 814.64,-99 814.64,-99 814.64,-111 814.64,-111 814.64,-117 808.64,-123 802.64,-123"/>
<text text-anchor="middle" x="770.64" y="-101.3" font-family="Arial" font-size="14.00">返回聚合值</text>
</g>
<!-- basic_types&#45;&gt;return_value -->
<g id="edge4" class="edge">
<title>basic_types&#45;&gt;return_value</title>
<path fill="none" stroke="black" d="M1086.78,-188.87C1089.36,-171.88 1088.09,-153.83 1076.64,-141 1068.37,-131.73 910.68,-117.46 824.99,-110.35"/>
<polygon fill="black" stroke="black" points="825.17,-106.85 814.91,-109.51 824.59,-113.82 825.17,-106.85"/>
<text text-anchor="middle" x="1130.64" y="-152.3" font-family="Arial" font-size="14.00">可确定唯一值</text>
</g>
<!-- return_null -->
<g id="node11" class="node">
<title>return_null</title>
<path fill="none" stroke="black" d="M580.64,-123C580.64,-123 538.64,-123 538.64,-123 532.64,-123 526.64,-117 526.64,-111 526.64,-111 526.64,-99 526.64,-99 526.64,-93 532.64,-87 538.64,-87 538.64,-87 580.64,-87 580.64,-87 586.64,-87 592.64,-93 592.64,-99 592.64,-99 592.64,-111 592.64,-111 592.64,-117 586.64,-123 580.64,-123"/>
<text text-anchor="middle" x="559.64" y="-101.3" font-family="Arial" font-size="14.00">返回null</text>
</g>
<!-- basic_types&#45;&gt;return_null -->
<g id="edge5" class="edge">
<title>basic_types&#45;&gt;return_null</title>
<path fill="none" stroke="black" d="M981.05,-206.01C961.01,-199.78 939.73,-193.71 919.64,-189 868.42,-176.99 846.67,-199.81 802.64,-171 789.44,-162.36 796.84,-149.66 783.64,-141 768.83,-131.28 664.01,-117.92 603.15,-110.84"/>
<polygon fill="black" stroke="black" points="603.39,-107.35 593.05,-109.68 602.59,-114.3 603.39,-107.35"/>
<text text-anchor="middle" x="831.64" y="-152.3" font-family="Arial" font-size="14.00">多值类型</text>
</g>
<!-- unreachable_node -->
<g id="node12" class="node">
<title>unreachable_node</title>
<path fill="none" stroke="black" d="M1089.14,-123C1089.14,-123 1022.14,-123 1022.14,-123 1016.14,-123 1010.14,-117 1010.14,-111 1010.14,-111 1010.14,-99 1010.14,-99 1010.14,-93 1016.14,-87 1022.14,-87 1022.14,-87 1089.14,-87 1089.14,-87 1095.14,-87 1101.14,-93 1101.14,-99 1101.14,-99 1101.14,-111 1101.14,-111 1101.14,-117 1095.14,-123 1089.14,-123"/>
<text text-anchor="middle" x="1055.64" y="-101.3" font-family="Arial" font-size="14.00">unreachable</text>
</g>
<!-- basic_types&#45;&gt;unreachable_node -->
<g id="edge6" class="edge">
<title>basic_types&#45;&gt;unreachable_node</title>
<path fill="none" stroke="black" d="M1160.22,-210.31C1200.28,-193.71 1233.83,-170.01 1210.64,-141 1198.2,-125.44 1150.47,-116.3 1111.22,-111.28"/>
<polygon fill="black" stroke="black" points="1111.54,-107.8 1101.19,-110.07 1110.69,-114.74 1111.54,-107.8"/>
<text text-anchor="middle" x="1271.64" y="-159.8" font-family="Arial" font-size="14.00">特殊类型</text>
<text text-anchor="middle" x="1271.64" y="-144.8" font-family="Arial" font-size="14.00">(null/undefined等)</text>
</g>
<!-- array_vector -->
<g id="node5" class="node">
<title>array_vector</title>
<path fill="none" stroke="black" d="M300.14,-362C300.14,-362 165.14,-362 165.14,-362 159.14,-362 153.14,-356 153.14,-350 153.14,-350 153.14,-336 153.14,-336 153.14,-330 159.14,-324 165.14,-324 165.14,-324 300.14,-324 300.14,-324 306.14,-324 312.14,-330 312.14,-336 312.14,-336 312.14,-350 312.14,-350 312.14,-356 306.14,-362 300.14,-362"/>
<text text-anchor="middle" x="232.64" y="-346.8" font-family="Arial" font-size="14.00">数组/向量类型</text>
<text text-anchor="middle" x="232.64" y="-331.8" font-family="Arial" font-size="14.00">检查子类型是否唯一值</text>
</g>
<!-- complex_types&#45;&gt;array_vector -->
<g id="edge7" class="edge">
<title>complex_types&#45;&gt;array_vector</title>
<path fill="none" stroke="black" d="M573.47,-437.15C549.79,-430.73 521.28,-422.99 495.64,-416 432.46,-398.78 360.77,-379.15 308.21,-364.74"/>
<polygon fill="black" stroke="black" points="308.86,-361.29 298.29,-362.02 307.01,-368.04 308.86,-361.29"/>
<text text-anchor="middle" x="526.14" y="-404.8" font-family="Arial" font-size="14.00">数组/向量</text>
</g>
<!-- struct_type -->
<g id="node6" class="node">
<title>struct_type</title>
<path fill="none" stroke="black" d="M321.64,-257C321.64,-257 143.64,-257 143.64,-257 137.64,-257 131.64,-251 131.64,-245 131.64,-245 131.64,-231 131.64,-231 131.64,-225 137.64,-219 143.64,-219 143.64,-219 321.64,-219 321.64,-219 327.64,-219 333.64,-225 333.64,-231 333.64,-231 333.64,-245 333.64,-245 333.64,-251 327.64,-257 321.64,-257"/>
<text text-anchor="middle" x="232.64" y="-241.8" font-family="Arial" font-size="14.00">结构体类型</text>
<text text-anchor="middle" x="232.64" y="-226.8" font-family="Arial" font-size="14.00">检查所有字段类型是否唯一值</text>
</g>
<!-- complex_types&#45;&gt;struct_type -->
<g id="edge8" class="edge">
<title>complex_types&#45;&gt;struct_type</title>
<path fill="none" stroke="black" d="M573.44,-449.13C447.92,-444.01 132.8,-427.8 101.64,-393 81.19,-370.15 87,-350.95 101.64,-324 117.11,-295.53 146.68,-275.12 173.81,-261.45"/>
<polygon fill="black" stroke="black" points="175.41,-264.56 182.9,-257.07 172.37,-258.26 175.41,-264.56"/>
<text text-anchor="middle" x="123.14" y="-339.3" font-family="Arial" font-size="14.00">结构体</text>
</g>
<!-- tuple_type -->
<g id="node7" class="node">
<title>tuple_type</title>
<path fill="none" stroke="black" d="M898.14,-257C898.14,-257 791.14,-257 791.14,-257 785.14,-257 779.14,-251 779.14,-245 779.14,-245 779.14,-231 779.14,-231 779.14,-225 785.14,-219 791.14,-219 791.14,-219 898.14,-219 898.14,-219 904.14,-219 910.14,-225 910.14,-231 910.14,-231 910.14,-245 910.14,-245 910.14,-251 904.14,-257 898.14,-257"/>
<text text-anchor="middle" x="844.64" y="-241.8" font-family="Arial" font-size="14.00">元组类型</text>
<text text-anchor="middle" x="844.64" y="-226.8" font-family="Arial" font-size="14.00">所有字段必须有值</text>
</g>
<!-- complex_types&#45;&gt;tuple_type -->
<g id="edge9" class="edge">
<title>complex_types&#45;&gt;tuple_type</title>
<path fill="none" stroke="black" d="M649.79,-433.77C665.28,-422.76 685.24,-407.8 701.64,-393 747.9,-351.27 796.06,-296.7 823.02,-264.98"/>
<polygon fill="black" stroke="black" points="825.94,-266.95 829.72,-257.05 820.59,-262.43 825.94,-266.95"/>
<text text-anchor="middle" x="783.14" y="-339.3" font-family="Arial" font-size="14.00">元组</text>
</g>
<!-- union_type -->
<g id="node8" class="node">
<title>union_type</title>
<path fill="none" stroke="black" d="M610.14,-257C610.14,-257 489.14,-257 489.14,-257 483.14,-257 477.14,-251 477.14,-245 477.14,-245 477.14,-231 477.14,-231 477.14,-225 483.14,-219 489.14,-219 489.14,-219 610.14,-219 610.14,-219 616.14,-219 622.14,-225 622.14,-231 622.14,-231 622.14,-245 622.14,-245 622.14,-251 616.14,-257 610.14,-257"/>
<text text-anchor="middle" x="549.64" y="-241.8" font-family="Arial" font-size="14.00">联合类型</text>
<text text-anchor="middle" x="549.64" y="-226.8" font-family="Arial" font-size="14.00">检查标签和字段类型</text>
</g>
<!-- complex_types&#45;&gt;union_type -->
<g id="edge10" class="edge">
<title>complex_types&#45;&gt;union_type</title>
<path fill="none" stroke="black" d="M618.51,-433.65C605.52,-396.95 575.18,-311.2 559.47,-266.78"/>
<polygon fill="black" stroke="black" points="562.71,-265.45 556.08,-257.19 556.11,-267.78 562.71,-265.45"/>
<text text-anchor="middle" x="618.14" y="-339.3" font-family="Arial" font-size="14.00">联合</text>
</g>
<!-- enum_type -->
<g id="node9" class="node">
<title>enum_type</title>
<path fill="none" stroke="black" d="M749.14,-257C749.14,-257 652.14,-257 652.14,-257 646.14,-257 640.14,-251 640.14,-245 640.14,-245 640.14,-231 640.14,-231 640.14,-225 646.14,-219 652.14,-219 652.14,-219 749.14,-219 749.14,-219 755.14,-219 761.14,-225 761.14,-231 761.14,-231 761.14,-245 761.14,-245 761.14,-251 755.14,-257 749.14,-257"/>
<text text-anchor="middle" x="700.64" y="-241.8" font-family="Arial" font-size="14.00">枚举类型</text>
<text text-anchor="middle" x="700.64" y="-226.8" font-family="Arial" font-size="14.00">根据tag模式处理</text>
</g>
<!-- complex_types&#45;&gt;enum_type -->
<g id="edge11" class="edge">
<title>complex_types&#45;&gt;enum_type</title>
<path fill="none" stroke="black" d="M630.86,-433.65C644.02,-396.95 674.76,-311.2 690.69,-266.78"/>
<polygon fill="black" stroke="black" points="694.04,-267.78 694.12,-257.19 687.45,-265.42 694.04,-267.78"/>
<text text-anchor="middle" x="683.14" y="-339.3" font-family="Arial" font-size="14.00">枚举</text>
</g>
<!-- array_vector&#45;&gt;struct_type -->
<g id="edge25" class="edge">
<title>array_vector&#45;&gt;struct_type</title>
<path fill="none" stroke="gray" stroke-dasharray="1,5" d="M227.33,-323.59C225.73,-307.99 225.47,-285.37 226.53,-267.44"/>
<polygon fill="gray" stroke="gray" points="230.04,-267.5 227.34,-257.25 223.06,-266.95 230.04,-267.5"/>
</g>
<!-- array_vector&#45;&gt;return_value -->
<g id="edge12" class="edge">
<title>array_vector&#45;&gt;return_value</title>
<path fill="none" stroke="black" d="M284.31,-323.88C304.25,-315.03 326.17,-302.83 342.64,-287 398.47,-233.36 369.13,-177.04 437.64,-141 440.7,-139.39 622.88,-120.87 716.45,-111.44"/>
<polygon fill="black" stroke="black" points="716.98,-114.9 726.58,-110.42 716.28,-107.94 716.98,-114.9"/>
<text text-anchor="middle" x="427.64" y="-234.3" font-family="Arial" font-size="14.00">子类型唯一</text>
</g>
<!-- array_vector&#45;&gt;return_null -->
<g id="edge13" class="edge">
<title>array_vector&#45;&gt;return_null</title>
<path fill="none" stroke="black" d="M153.03,-329.21C105.58,-319.84 51.73,-305.54 36.64,-287 -4.37,-236.59 -15.77,-188.44 28.64,-141 61.66,-105.73 395.27,-104.73 516.18,-105.54"/>
<polygon fill="black" stroke="black" points="516.51,-109.05 526.53,-105.62 516.56,-102.05 516.51,-109.05"/>
<text text-anchor="middle" x="79.64" y="-234.3" font-family="Arial" font-size="14.00">子类型不唯一</text>
</g>
<!-- struct_type&#45;&gt;array_vector -->
<g id="edge26" class="edge">
<title>struct_type&#45;&gt;array_vector</title>
<path fill="none" stroke="gray" stroke-dasharray="1,5" d="M237.94,-257.25C239.55,-272.81 239.82,-295.42 238.76,-313.38"/>
<polygon fill="gray" stroke="gray" points="235.25,-313.34 237.96,-323.59 242.23,-313.89 235.25,-313.34"/>
</g>
<!-- struct_type&#45;&gt;return_value -->
<g id="edge14" class="edge">
<title>struct_type&#45;&gt;return_value</title>
<path fill="none" stroke="black" d="M238.13,-218.69C246.06,-193.52 261.27,-150.28 274.64,-141 304.54,-120.25 565.36,-125.82 601.64,-123 640.14,-120.01 683.48,-115.63 716.62,-112.06"/>
<polygon fill="black" stroke="black" points="717,-115.54 726.57,-110.99 716.25,-108.58 717,-115.54"/>
<text text-anchor="middle" x="332.14" y="-152.3" font-family="Arial" font-size="14.00">所有字段类型唯一</text>
</g>
<!-- struct_type&#45;&gt;return_null -->
<g id="edge15" class="edge">
<title>struct_type&#45;&gt;return_null</title>
<path fill="none" stroke="black" d="M177.37,-218.95C121.09,-200.45 41.76,-173.97 39.64,-171 31.89,-160.15 30.54,-150.74 39.64,-141 71.88,-106.52 397.16,-105 516.25,-105.61"/>
<polygon fill="black" stroke="black" points="516.44,-109.11 526.46,-105.67 516.48,-102.11 516.44,-109.11"/>
<text text-anchor="middle" x="82.64" y="-152.3" font-family="Arial" font-size="14.00">存在多值字段</text>
</g>
<!-- tuple_type&#45;&gt;return_value -->
<g id="edge16" class="edge">
<title>tuple_type&#45;&gt;return_value</title>
<path fill="none" stroke="black" d="M907.36,-218.86C955,-201.95 1007.89,-174.37 979.64,-141 960.18,-118 880.05,-110.1 824.87,-107.4"/>
<polygon fill="black" stroke="black" points="825.02,-103.9 814.87,-106.95 824.7,-110.9 825.02,-103.9"/>
<text text-anchor="middle" x="1029.64" y="-152.3" font-family="Arial" font-size="14.00">所有字段有值</text>
</g>
<!-- tuple_type&#45;&gt;return_null -->
<g id="edge17" class="edge">
<title>tuple_type&#45;&gt;return_null</title>
<path fill="none" stroke="black" d="M821.57,-218.82C807.56,-208.63 788.92,-196.51 770.64,-189 734.12,-174 717.09,-191.99 683.64,-171 669.41,-162.07 674.27,-150.83 660.64,-141 643.55,-128.66 621.74,-120.38 602.77,-114.99"/>
<polygon fill="black" stroke="black" points="603.42,-111.54 592.86,-112.36 601.62,-118.31 603.42,-111.54"/>
<text text-anchor="middle" x="733.64" y="-152.3" font-family="Arial" font-size="14.00">存在未定义字段</text>
</g>
<!-- union_type&#45;&gt;return_value -->
<g id="edge18" class="edge">
<title>union_type&#45;&gt;return_value</title>
<path fill="none" stroke="black" d="M514.48,-218.99C488.03,-204.63 455.1,-184.71 447.64,-171 441.27,-159.29 438.74,-150.92 447.64,-141 449.87,-138.52 624.8,-120.63 716.26,-111.43"/>
<polygon fill="black" stroke="black" points="716.85,-114.89 726.45,-110.41 716.15,-107.93 716.85,-114.89"/>
<text text-anchor="middle" x="497.64" y="-152.3" font-family="Arial" font-size="14.00">标签和字段唯一</text>
</g>
<!-- union_type&#45;&gt;return_null -->
<g id="edge19" class="edge">
<title>union_type&#45;&gt;return_null</title>
<path fill="none" stroke="black" d="M523.96,-218.79C507.32,-208.04 484.69,-195.33 462.64,-189 427.78,-178.99 161.58,-197.35 136.64,-171 127.48,-161.32 127.61,-150.81 136.64,-141 162.01,-113.45 413.78,-107.58 516.42,-106.34"/>
<polygon fill="black" stroke="black" points="516.5,-109.84 526.46,-106.22 516.42,-102.84 516.5,-109.84"/>
<text text-anchor="middle" x="194.14" y="-152.3" font-family="Arial" font-size="14.00">标签或字段不唯一</text>
</g>
<!-- enum_type&#45;&gt;return_value -->
<g id="edge20" class="edge">
<title>enum_type&#45;&gt;return_value</title>
<path fill="none" stroke="black" d="M721.97,-218.92C735.19,-208.64 752.96,-196.37 770.64,-189 809.9,-172.63 837.54,-203.78 864.64,-171 873.14,-160.72 872.25,-151.95 864.64,-141 855.26,-127.5 840.02,-119.2 824.51,-114.09"/>
<polygon fill="black" stroke="black" points="825.45,-110.72 814.87,-111.31 823.51,-117.45 825.45,-110.72"/>
<text text-anchor="middle" x="923.14" y="-152.3" font-family="Arial" font-size="14.00">tag模式允许单值</text>
</g>
<!-- enum_type&#45;&gt;return_null -->
<g id="edge21" class="edge">
<title>enum_type&#45;&gt;return_null</title>
<path fill="none" stroke="black" d="M678.89,-218.82C665.89,-208.75 648.64,-196.75 631.64,-189 602.03,-175.49 580.83,-196.54 560.64,-171 552.39,-160.56 551.53,-145.93 553,-133.2"/>
<polygon fill="black" stroke="black" points="556.49,-133.52 554.68,-123.09 549.59,-132.38 556.49,-133.52"/>
<text text-anchor="middle" x="610.64" y="-152.3" font-family="Arial" font-size="14.00">存在多个可能值</text>
</g>
<!-- end -->
<g id="node13" class="node">
<title>end</title>
<path fill="none" stroke="black" d="M785.64,-36C785.64,-36 755.64,-36 755.64,-36 749.64,-36 743.64,-30 743.64,-24 743.64,-24 743.64,-12 743.64,-12 743.64,-6 749.64,0 755.64,0 755.64,0 785.64,0 785.64,0 791.64,0 797.64,-6 797.64,-12 797.64,-12 797.64,-24 797.64,-24 797.64,-30 791.64,-36 785.64,-36"/>
<text text-anchor="middle" x="770.64" y="-14.3" font-family="Arial" font-size="14.00">结束</text>
</g>
<!-- return_value&#45;&gt;end -->
<g id="edge22" class="edge">
<title>return_value&#45;&gt;end</title>
<path fill="none" stroke="black" d="M770.64,-86.8C770.64,-75.16 770.64,-59.55 770.64,-46.24"/>
<polygon fill="black" stroke="black" points="774.14,-46.18 770.64,-36.18 767.14,-46.18 774.14,-46.18"/>
</g>
<!-- return_null&#45;&gt;end -->
<g id="edge23" class="edge">
<title>return_null&#45;&gt;end</title>
<path fill="none" stroke="black" d="M593.08,-90.53C631.51,-75.05 694.38,-49.72 734.08,-33.73"/>
<polygon fill="black" stroke="black" points="735.44,-36.96 743.4,-29.97 732.82,-30.46 735.44,-36.96"/>
</g>
<!-- unreachable_node&#45;&gt;end -->
<g id="edge24" class="edge">
<title>unreachable_node&#45;&gt;end</title>
<path fill="none" stroke="black" d="M1009.85,-90.34C953.65,-73.58 859.44,-45.48 807.61,-30.03"/>
<polygon fill="black" stroke="black" points="808.42,-26.61 797.83,-27.11 806.42,-33.32 808.42,-26.61"/>
<text text-anchor="middle" x="958.64" y="-57.8" font-family="Arial" font-size="14.00">终止流程</text>
</g>
</g>
</svg>
