<?xml version="1.0" encoding="UTF-8" standalone="no"?>
<!DOCTYPE svg PUBLIC "-//W3C//DTD SVG 1.1//EN"
 "http://www.w3.org/Graphics/SVG/1.1/DTD/svg11.dtd">
<!-- Generated by graphviz version 2.43.0 (0)
 -->
<!-- Title: flowchart Pages: 1 -->
<svg width="525pt" height="912pt"
 viewBox="0.00 0.00 525.00 912.00" xmlns="http://www.w3.org/2000/svg" xmlns:xlink="http://www.w3.org/1999/xlink">
<g id="graph0" class="graph" transform="scale(1 1) rotate(0) translate(4 908)">
<title>flowchart</title>
<polygon fill="white" stroke="transparent" points="-4,4 -4,-908 521,-908 521,4 -4,4"/>
<!-- start -->
<g id="node1" class="node">
<title>start</title>
<polygon fill="none" stroke="black" points="315.5,-904 142.5,-904 142.5,-868 315.5,-868 315.5,-904"/>
<text text-anchor="middle" x="229" y="-883.5" font-family="Courier,monospace" font-size="10.00">Start validateErrSetSwitch</text>
</g>
<!-- get_context -->
<g id="node2" class="node">
<title>get_context</title>
<polygon fill="none" stroke="black" points="328.5,-831 129.5,-831 129.5,-795 328.5,-795 328.5,-831"/>
<text text-anchor="middle" x="229" y="-810.5" font-family="Courier,monospace" font-size="10.00">获取上下文变量 (gpa, pt, zcu, ip)</text>
</g>
<!-- start&#45;&gt;get_context -->
<g id="edge1" class="edge">
<title>start&#45;&gt;get_context</title>
<path fill="none" stroke="black" d="M229,-867.81C229,-859.79 229,-850.05 229,-841.07"/>
<polygon fill="black" stroke="black" points="232.5,-841.03 229,-831.03 225.5,-841.03 232.5,-841.03"/>
</g>
<!-- src_handling -->
<g id="node3" class="node">
<title>src_handling</title>
<polygon fill="none" stroke="black" points="314,-758 144,-758 144,-722 314,-722 314,-758"/>
<text text-anchor="middle" x="229" y="-737.5" font-family="Courier,monospace" font-size="10.00">处理 src_node_offset 和 src</text>
</g>
<!-- get_context&#45;&gt;src_handling -->
<g id="edge2" class="edge">
<title>get_context&#45;&gt;src_handling</title>
<path fill="none" stroke="black" d="M229,-794.81C229,-786.79 229,-777.05 229,-768.07"/>
<polygon fill="black" stroke="black" points="232.5,-768.03 229,-758.03 225.5,-768.03 232.5,-768.03"/>
</g>
<!-- scalar_cases -->
<g id="node4" class="node">
<title>scalar_cases</title>
<polygon fill="none" stroke="black" points="311.5,-685 146.5,-685 146.5,-649 311.5,-649 311.5,-685"/>
<text text-anchor="middle" x="229" y="-664.5" font-family="Courier,monospace" font-size="10.00">处理标量案例 (scalar_cases)</text>
</g>
<!-- src_handling&#45;&gt;scalar_cases -->
<g id="edge3" class="edge">
<title>src_handling&#45;&gt;scalar_cases</title>
<path fill="none" stroke="black" d="M229,-721.81C229,-713.79 229,-704.05 229,-695.07"/>
<polygon fill="black" stroke="black" points="232.5,-695.03 229,-685.03 225.5,-695.03 232.5,-695.03"/>
</g>
<!-- multi_cases -->
<g id="node5" class="node">
<title>multi_cases</title>
<polygon fill="none" stroke="black" points="303.5,-612 154.5,-612 154.5,-576 303.5,-576 303.5,-612"/>
<text text-anchor="middle" x="229" y="-591.5" font-family="Courier,monospace" font-size="10.00">处理多案例 (multi_cases)</text>
</g>
<!-- scalar_cases&#45;&gt;multi_cases -->
<g id="edge4" class="edge">
<title>scalar_cases&#45;&gt;multi_cases</title>
<path fill="none" stroke="black" d="M229,-648.81C229,-640.79 229,-631.05 229,-622.07"/>
<polygon fill="black" stroke="black" points="232.5,-622.03 229,-612.03 225.5,-622.03 232.5,-622.03"/>
</g>
<!-- resolve_error_set -->
<g id="node6" class="node">
<title>resolve_error_set</title>
<polygon fill="none" stroke="black" points="355.5,-539 102.5,-539 102.5,-503 355.5,-503 355.5,-539"/>
<text text-anchor="middle" x="229" y="-518.5" font-family="Courier,monospace" font-size="10.00">解析错误集类型 (resolveInferredErrorSetTy)</text>
</g>
<!-- multi_cases&#45;&gt;resolve_error_set -->
<g id="edge5" class="edge">
<title>multi_cases&#45;&gt;resolve_error_set</title>
<path fill="none" stroke="black" d="M229,-575.81C229,-567.79 229,-558.05 229,-549.07"/>
<polygon fill="black" stroke="black" points="232.5,-549.03 229,-539.03 225.5,-549.03 232.5,-549.03"/>
</g>
<!-- switch_anyerror -->
<g id="node7" class="node">
<title>switch_anyerror</title>
<polygon fill="none" stroke="black" points="264.5,-402 91.5,-402 91.5,-366 264.5,-366 264.5,-402"/>
<text text-anchor="middle" x="178" y="-381.5" font-family="Courier,monospace" font-size="10.00">Switch case: anyerror_type</text>
</g>
<!-- resolve_error_set&#45;&gt;switch_anyerror -->
<g id="edge6" class="edge">
<title>resolve_error_set&#45;&gt;switch_anyerror</title>
<path fill="none" stroke="black" d="M191.64,-502.9C184.96,-498.09 178.89,-492.17 175,-485 162.87,-462.68 165.58,-433.21 170.13,-412.06"/>
<polygon fill="black" stroke="black" points="173.59,-412.66 172.54,-402.12 166.78,-411.02 173.59,-412.66"/>
<text text-anchor="middle" x="214.5" y="-477" font-family="Courier,monospace" font-size="10.00">anyerror_type</text>
</g>
<!-- else_validation -->
<g id="node11" class="node">
<title>else_validation</title>
<polygon fill="none" stroke="black" points="332,-456 228,-456 228,-420 332,-420 332,-456"/>
<text text-anchor="middle" x="280" y="-435.5" font-family="Courier,monospace" font-size="10.00">验证错误集覆盖情况</text>
</g>
<!-- resolve_error_set&#45;&gt;else_validation -->
<g id="edge10" class="edge">
<title>resolve_error_set&#45;&gt;else_validation</title>
<path fill="none" stroke="black" d="M244.64,-502.84C249.24,-497.36 254.09,-491.12 258,-485 261.91,-478.89 265.57,-471.97 268.74,-465.4"/>
<polygon fill="black" stroke="black" points="272,-466.68 273.01,-456.14 265.65,-463.75 272,-466.68"/>
<text text-anchor="middle" x="299.5" y="-477" font-family="Courier,monospace" font-size="10.00">其他错误集类型</text>
</g>
<!-- check_else -->
<g id="node8" class="node">
<title>check_else</title>
<polygon fill="none" stroke="black" points="238,-192 118,-192 118,-156 238,-156 238,-192"/>
<text text-anchor="middle" x="178" y="-171.5" font-family="Courier,monospace" font-size="10.00">检查是否有 else 分支</text>
</g>
<!-- switch_anyerror&#45;&gt;check_else -->
<g id="edge7" class="edge">
<title>switch_anyerror&#45;&gt;check_else</title>
<path fill="none" stroke="black" d="M178,-365.98C178,-330.02 178,-246.06 178,-202.43"/>
<polygon fill="black" stroke="black" points="181.5,-202.26 178,-192.26 174.5,-202.26 181.5,-202.26"/>
</g>
<!-- fail_no_else -->
<g id="node9" class="node">
<title>fail_no_else</title>
<polygon fill="none" stroke="black" points="122,-109 0,-109 0,-73 122,-73 122,-109"/>
<text text-anchor="middle" x="61" y="-88.5" font-family="Courier,monospace" font-size="10.00">报错: 缺少 else 分支</text>
</g>
<!-- check_else&#45;&gt;fail_no_else -->
<g id="edge8" class="edge">
<title>check_else&#45;&gt;fail_no_else</title>
<path fill="none" stroke="black" d="M153.19,-155.82C135.97,-143.9 112.84,-127.89 94.06,-114.89"/>
<polygon fill="black" stroke="black" points="95.99,-111.97 85.78,-109.15 92.01,-117.72 95.99,-111.97"/>
<text text-anchor="middle" x="147" y="-130" font-family="Courier,monospace" font-size="10.00">无 else</text>
</g>
<!-- return_anyerror -->
<g id="node10" class="node">
<title>return_anyerror</title>
<polygon fill="none" stroke="black" points="259.5,-109 140.5,-109 140.5,-73 259.5,-73 259.5,-109"/>
<text text-anchor="middle" x="200" y="-88.5" font-family="Courier,monospace" font-size="10.00">返回 Type.anyerror</text>
</g>
<!-- check_else&#45;&gt;return_anyerror -->
<g id="edge9" class="edge">
<title>check_else&#45;&gt;return_anyerror</title>
<path fill="none" stroke="black" d="M182.67,-155.82C185.58,-145.08 189.4,-131.03 192.71,-118.84"/>
<polygon fill="black" stroke="black" points="196.1,-119.72 195.34,-109.15 189.34,-117.89 196.1,-119.72"/>
<text text-anchor="middle" x="211" y="-130" font-family="Courier,monospace" font-size="10.00">有 else</text>
</g>
<!-- end -->
<g id="node17" class="node">
<title>end</title>
<polygon fill="none" stroke="black" points="320,-36 210,-36 210,0 320,0 320,-36"/>
<text text-anchor="middle" x="265" y="-15.5" font-family="Courier,monospace" font-size="10.00">返回 null 或错误集</text>
</g>
<!-- fail_no_else&#45;&gt;end -->
<g id="edge19" class="edge">
<title>fail_no_else&#45;&gt;end</title>
<path fill="none" stroke="black" d="M109.86,-72.99C138.79,-62.92 175.64,-50.1 206.16,-39.48"/>
<polygon fill="black" stroke="black" points="207.53,-42.71 215.83,-36.11 205.23,-36.1 207.53,-42.71"/>
</g>
<!-- return_anyerror&#45;&gt;end -->
<g id="edge18" class="edge">
<title>return_anyerror&#45;&gt;end</title>
<path fill="none" stroke="black" d="M215.73,-72.81C223.8,-64 233.76,-53.13 242.61,-43.46"/>
<polygon fill="black" stroke="black" points="245.24,-45.77 249.41,-36.03 240.08,-41.04 245.24,-45.77"/>
</g>
<!-- check_error_coverage -->
<g id="node12" class="node">
<title>check_error_coverage</title>
<polygon fill="none" stroke="black" points="337,-348 223,-348 223,-312 337,-312 337,-348"/>
<text text-anchor="middle" x="280" y="-327.5" font-family="Courier,monospace" font-size="10.00">遍历错误名称检查覆盖</text>
</g>
<!-- else_validation&#45;&gt;check_error_coverage -->
<g id="edge11" class="edge">
<title>else_validation&#45;&gt;check_error_coverage</title>
<path fill="none" stroke="black" d="M280,-419.97C280,-403.38 280,-377.88 280,-358.43"/>
<polygon fill="black" stroke="black" points="283.5,-358.34 280,-348.34 276.5,-358.34 283.5,-358.34"/>
</g>
<!-- generate_errors -->
<g id="node13" class="node">
<title>generate_errors</title>
<polygon fill="none" stroke="black" points="321,-265 217,-265 217,-229 321,-229 321,-265"/>
<text text-anchor="middle" x="269" y="-244.5" font-family="Courier,monospace" font-size="10.00">生成未处理错误提示</text>
</g>
<!-- check_error_coverage&#45;&gt;generate_errors -->
<g id="edge12" class="edge">
<title>check_error_coverage&#45;&gt;generate_errors</title>
<path fill="none" stroke="black" d="M276.86,-311.94C275.87,-306.25 274.82,-299.86 274,-294 273.14,-287.88 272.35,-281.29 271.66,-275.06"/>
<polygon fill="black" stroke="black" points="275.14,-274.65 270.6,-265.07 268.18,-275.38 275.14,-274.65"/>
<text text-anchor="middle" x="308.5" y="-286" font-family="Courier,monospace" font-size="10.00">存在未覆盖错误</text>
</g>
<!-- handle_else_case -->
<g id="node14" class="node">
<title>handle_else_case</title>
<polygon fill="none" stroke="black" points="413,-192 293,-192 293,-156 413,-156 413,-192"/>
<text text-anchor="middle" x="353" y="-171.5" font-family="Courier,monospace" font-size="10.00">验证 else 分支合理性</text>
</g>
<!-- check_error_coverage&#45;&gt;handle_else_case -->
<g id="edge14" class="edge">
<title>check_error_coverage&#45;&gt;handle_else_case</title>
<path fill="none" stroke="black" d="M324.24,-311.86C331.58,-307.14 338.31,-301.25 343,-294 360.63,-266.73 360.43,-228.28 357.62,-202.54"/>
<polygon fill="black" stroke="black" points="361.05,-201.83 356.3,-192.36 354.11,-202.73 361.05,-201.83"/>
<text text-anchor="middle" x="379" y="-244.5" font-family="Courier,monospace" font-size="10.00">全部覆盖</text>
</g>
<!-- generate_errors&#45;&gt;handle_else_case -->
<g id="edge13" class="edge">
<title>generate_errors&#45;&gt;handle_else_case</title>
<path fill="none" stroke="black" d="M289.33,-228.81C300.06,-219.74 313.39,-208.48 325.08,-198.6"/>
<polygon fill="black" stroke="black" points="327.48,-201.16 332.85,-192.03 322.96,-195.81 327.48,-201.16"/>
</g>
<!-- fail_unreachable_else -->
<g id="node15" class="node">
<title>fail_unreachable_else</title>
<polygon fill="none" stroke="black" points="384.5,-109 277.5,-109 277.5,-73 384.5,-73 384.5,-109"/>
<text text-anchor="middle" x="331" y="-88.5" font-family="Courier,monospace" font-size="10.00">报错: else 不可达</text>
</g>
<!-- handle_else_case&#45;&gt;fail_unreachable_else -->
<g id="edge15" class="edge">
<title>handle_else_case&#45;&gt;fail_unreachable_else</title>
<path fill="none" stroke="black" d="M348.33,-155.82C345.42,-145.08 341.6,-131.03 338.29,-118.84"/>
<polygon fill="black" stroke="black" points="341.66,-117.89 335.66,-109.15 334.9,-119.72 341.66,-117.89"/>
<text text-anchor="middle" x="378" y="-130" font-family="Courier,monospace" font-size="10.00">else 分支无效</text>
</g>
<!-- build_error_set -->
<g id="node16" class="node">
<title>build_error_set</title>
<polygon fill="none" stroke="black" points="517,-109 403,-109 403,-73 517,-73 517,-109"/>
<text text-anchor="middle" x="460" y="-88.5" font-family="Courier,monospace" font-size="10.00">构建并返回错误集类型</text>
</g>
<!-- handle_else_case&#45;&gt;build_error_set -->
<g id="edge16" class="edge">
<title>handle_else_case&#45;&gt;build_error_set</title>
<path fill="none" stroke="black" d="M389.13,-155.84C398.58,-150.67 408.49,-144.6 417,-138 424.99,-131.8 432.83,-124.07 439.57,-116.73"/>
<polygon fill="black" stroke="black" points="442.4,-118.81 446.42,-109.01 437.16,-114.17 442.4,-118.81"/>
<text text-anchor="middle" x="463" y="-130" font-family="Courier,monospace" font-size="10.00">else 分支合法</text>
</g>
<!-- fail_unreachable_else&#45;&gt;end -->
<g id="edge20" class="edge">
<title>fail_unreachable_else&#45;&gt;end</title>
<path fill="none" stroke="black" d="M315.02,-72.81C306.84,-64 296.72,-53.13 287.74,-43.46"/>
<polygon fill="black" stroke="black" points="290.2,-40.97 280.83,-36.03 285.07,-45.74 290.2,-40.97"/>
</g>
<!-- build_error_set&#45;&gt;end -->
<g id="edge17" class="edge">
<title>build_error_set&#45;&gt;end</title>
<path fill="none" stroke="black" d="M413.29,-72.99C385.76,-62.97 350.72,-50.21 321.62,-39.62"/>
<polygon fill="black" stroke="black" points="322.6,-36.25 312,-36.11 320.2,-42.82 322.6,-36.25"/>
</g>
</g>
</svg>
