<?xml version="1.0" encoding="UTF-8" standalone="no"?>
<!DOCTYPE svg PUBLIC "-//W3C//DTD SVG 1.1//EN"
 "http://www.w3.org/Graphics/SVG/1.1/DTD/svg11.dtd">
<!-- Generated by graphviz version 2.43.0 (0)
 -->
<!-- Title: zirTypeInfo Pages: 1 -->
<svg width="1771pt" height="592pt"
 viewBox="0.00 0.00 1770.50 592.00" xmlns="http://www.w3.org/2000/svg" xmlns:xlink="http://www.w3.org/1999/xlink">
<g id="graph0" class="graph" transform="scale(1 1) rotate(0) translate(4 588)">
<title>zirTypeInfo</title>
<polygon fill="white" stroke="transparent" points="-4,4 -4,-588 1766.5,-588 1766.5,4 -4,4"/>
<!-- start -->
<g id="node1" class="node">
<title>start</title>
<path fill="none" stroke="black" d="M940,-584C940,-584 910,-584 910,-584 904,-584 898,-578 898,-572 898,-572 898,-560 898,-560 898,-554 904,-548 910,-548 910,-548 940,-548 940,-548 946,-548 952,-554 952,-560 952,-560 952,-572 952,-572 952,-578 946,-584 940,-584"/>
<text text-anchor="middle" x="925" y="-562.3" font-family="Times,serif" font-size="14.00">开始</text>
</g>
<!-- init -->
<g id="node2" class="node">
<title>init</title>
<path fill="none" stroke="black" d="M979.5,-511C979.5,-511 870.5,-511 870.5,-511 864.5,-511 858.5,-505 858.5,-499 858.5,-499 858.5,-485 858.5,-485 858.5,-479 864.5,-473 870.5,-473 870.5,-473 979.5,-473 979.5,-473 985.5,-473 991.5,-479 991.5,-485 991.5,-485 991.5,-499 991.5,-499 991.5,-505 985.5,-511 979.5,-511"/>
<text text-anchor="middle" x="925" y="-495.8" font-family="Times,serif" font-size="14.00">初始化变量</text>
<text text-anchor="middle" x="925" y="-480.8" font-family="Times,serif" font-size="14.00">(pt, zcu, gpa, ip)</text>
</g>
<!-- start&#45;&gt;init -->
<g id="edge1" class="edge">
<title>start&#45;&gt;init</title>
<path fill="none" stroke="black" d="M925,-547.94C925,-539.99 925,-530.31 925,-521.31"/>
<polygon fill="black" stroke="black" points="928.5,-521.2 925,-511.2 921.5,-521.2 928.5,-521.2"/>
</g>
<!-- resolve_type -->
<g id="node3" class="node">
<title>resolve_type</title>
<path fill="none" stroke="black" d="M985.5,-436C985.5,-436 864.5,-436 864.5,-436 858.5,-436 852.5,-430 852.5,-424 852.5,-424 852.5,-410 852.5,-410 852.5,-404 858.5,-398 864.5,-398 864.5,-398 985.5,-398 985.5,-398 991.5,-398 997.5,-404 997.5,-410 997.5,-410 997.5,-424 997.5,-424 997.5,-430 991.5,-436 985.5,-436"/>
<text text-anchor="middle" x="925" y="-420.8" font-family="Times,serif" font-size="14.00">解析类型 ty</text>
<text text-anchor="middle" x="925" y="-405.8" font-family="Times,serif" font-size="14.00">sema.resolveType</text>
</g>
<!-- init&#45;&gt;resolve_type -->
<g id="edge2" class="edge">
<title>init&#45;&gt;resolve_type</title>
<path fill="none" stroke="black" d="M925,-472.96C925,-464.88 925,-455.18 925,-446.18"/>
<polygon fill="black" stroke="black" points="928.5,-446.09 925,-436.09 921.5,-446.09 928.5,-446.09"/>
</g>
<!-- get_type_info -->
<g id="node4" class="node">
<title>get_type_info</title>
<path fill="none" stroke="black" d="M1050,-361C1050,-361 800,-361 800,-361 794,-361 788,-355 788,-349 788,-349 788,-337 788,-337 788,-331 794,-325 800,-325 800,-325 1050,-325 1050,-325 1056,-325 1062,-331 1062,-337 1062,-337 1062,-349 1062,-349 1062,-355 1056,-361 1050,-361"/>
<text text-anchor="middle" x="925" y="-339.3" font-family="Times,serif" font-size="14.00">获取 type_info_ty 和 type_info_tag_ty</text>
</g>
<!-- resolve_type&#45;&gt;get_type_info -->
<g id="edge3" class="edge">
<title>resolve_type&#45;&gt;get_type_info</title>
<path fill="none" stroke="black" d="M925,-397.83C925,-389.89 925,-380.41 925,-371.63"/>
<polygon fill="black" stroke="black" points="928.5,-371.42 925,-361.42 921.5,-371.42 928.5,-371.42"/>
</g>
<!-- check_decl -->
<g id="node5" class="node">
<title>check_decl</title>
<path fill="none" stroke="black" d="M983,-288C983,-288 867,-288 867,-288 861,-288 855,-282 855,-276 855,-276 855,-262 855,-262 855,-256 861,-250 867,-250 867,-250 983,-250 983,-250 989,-250 995,-256 995,-262 995,-262 995,-276 995,-276 995,-282 989,-288 983,-288"/>
<text text-anchor="middle" x="925" y="-272.8" font-family="Times,serif" font-size="14.00">检查 typeDeclInst</text>
<text text-anchor="middle" x="925" y="-257.8" font-family="Times,serif" font-size="14.00">声明依赖</text>
</g>
<!-- get_type_info&#45;&gt;check_decl -->
<g id="edge4" class="edge">
<title>get_type_info&#45;&gt;check_decl</title>
<path fill="none" stroke="black" d="M925,-324.94C925,-316.99 925,-307.31 925,-298.31"/>
<polygon fill="black" stroke="black" points="928.5,-298.2 925,-288.2 921.5,-298.2 928.5,-298.2"/>
</g>
<!-- switch_tag -->
<g id="node6" class="node">
<title>switch_tag</title>
<path fill="none" stroke="black" d="M913.05,-211.89C913.05,-211.89 743.9,-196.11 743.9,-196.11 737.93,-195.56 737.93,-194.44 743.9,-193.89 743.9,-193.89 913.05,-178.11 913.05,-178.11 919.03,-177.56 930.97,-177.56 936.95,-178.11 936.95,-178.11 1106.1,-193.89 1106.1,-193.89 1112.07,-194.44 1112.07,-195.56 1106.1,-196.11 1106.1,-196.11 936.95,-211.89 936.95,-211.89 930.97,-212.44 919.03,-212.44 913.05,-211.89"/>
<text text-anchor="middle" x="925" y="-191.3" font-family="Times,serif" font-size="14.00">switch (ty.zigTypeTag(zcu))</text>
</g>
<!-- check_decl&#45;&gt;switch_tag -->
<g id="edge5" class="edge">
<title>check_decl&#45;&gt;switch_tag</title>
<path fill="none" stroke="black" d="M925,-249.83C925,-241.89 925,-232.41 925,-223.63"/>
<polygon fill="black" stroke="black" points="928.5,-223.42 925,-213.42 921.5,-223.42 928.5,-223.42"/>
</g>
<!-- basic_types -->
<g id="node7" class="node">
<title>basic_types</title>
<path fill="none" stroke="black" d="M236,-126C236,-126 12,-126 12,-126 6,-126 0,-120 0,-114 0,-114 0,-85 0,-85 0,-79 6,-73 12,-73 12,-73 236,-73 236,-73 242,-73 248,-79 248,-85 248,-85 248,-114 248,-114 248,-120 242,-126 236,-126"/>
<text text-anchor="middle" x="124" y="-110.8" font-family="Times,serif" font-size="14.00">处理基本类型</text>
<text text-anchor="middle" x="124" y="-95.8" font-family="Times,serif" font-size="14.00">(type, void, bool 等)</text>
<text text-anchor="middle" x="124" y="-80.8" font-family="Times,serif" font-size="14.00">直接返回 unionInitFromEnumTag</text>
</g>
<!-- switch_tag&#45;&gt;basic_types -->
<g id="edge6" class="edge">
<title>switch_tag&#45;&gt;basic_types</title>
<path fill="none" stroke="black" d="M816.48,-187.05C728.58,-180.99 601.63,-171.25 491,-159 389.77,-147.79 362.25,-143.49 258.19,-126.18"/>
<polygon fill="black" stroke="black" points="258.65,-122.7 248.21,-124.52 257.5,-129.61 258.65,-122.7"/>
<text text-anchor="middle" x="520" y="-147.8" font-family="Times,serif" font-size="14.00">基本类型</text>
</g>
<!-- fn_type -->
<g id="node8" class="node">
<title>fn_type</title>
<path fill="none" stroke="black" d="M427.5,-126C427.5,-126 278.5,-126 278.5,-126 272.5,-126 266.5,-120 266.5,-114 266.5,-114 266.5,-85 266.5,-85 266.5,-79 272.5,-73 278.5,-73 278.5,-73 427.5,-73 427.5,-73 433.5,-73 439.5,-79 439.5,-85 439.5,-85 439.5,-114 439.5,-114 439.5,-120 433.5,-126 427.5,-126"/>
<text text-anchor="middle" x="353" y="-110.8" font-family="Times,serif" font-size="14.00">处理函数类型</text>
<text text-anchor="middle" x="353" y="-95.8" font-family="Times,serif" font-size="14.00">(.fn)</text>
<text text-anchor="middle" x="353" y="-80.8" font-family="Times,serif" font-size="14.00">构造参数列表和返回类型</text>
</g>
<!-- switch_tag&#45;&gt;fn_type -->
<g id="edge7" class="edge">
<title>switch_tag&#45;&gt;fn_type</title>
<path fill="none" stroke="black" d="M839.79,-184.89C746.38,-174.22 592.03,-154.54 449.96,-126.1"/>
<polygon fill="black" stroke="black" points="450.25,-122.59 439.76,-124.03 448.86,-129.45 450.25,-122.59"/>
<text text-anchor="middle" x="641.5" y="-147.8" font-family="Times,serif" font-size="14.00">.fn</text>
</g>
<!-- int_type -->
<g id="node9" class="node">
<title>int_type</title>
<path fill="none" stroke="black" d="M624,-126C624,-126 470,-126 470,-126 464,-126 458,-120 458,-114 458,-114 458,-85 458,-85 458,-79 464,-73 470,-73 470,-73 624,-73 624,-73 630,-73 636,-79 636,-85 636,-85 636,-114 636,-114 636,-120 630,-126 624,-126"/>
<text text-anchor="middle" x="547" y="-110.8" font-family="Times,serif" font-size="14.00">处理整数类型</text>
<text text-anchor="middle" x="547" y="-95.8" font-family="Times,serif" font-size="14.00">(.int)</text>
<text text-anchor="middle" x="547" y="-80.8" font-family="Times,serif" font-size="14.00">构造 signedness 和 bits</text>
</g>
<!-- switch_tag&#45;&gt;int_type -->
<g id="edge8" class="edge">
<title>switch_tag&#45;&gt;int_type</title>
<path fill="none" stroke="black" d="M873.33,-181.74C819.17,-168.83 731.36,-147.71 646.04,-126.25"/>
<polygon fill="black" stroke="black" points="646.74,-122.82 636.18,-123.77 645.03,-129.6 646.74,-122.82"/>
<text text-anchor="middle" x="788.5" y="-147.8" font-family="Times,serif" font-size="14.00">.int</text>
</g>
<!-- float_type -->
<g id="node10" class="node">
<title>float_type</title>
<path fill="none" stroke="black" d="M744,-126C744,-126 666,-126 666,-126 660,-126 654,-120 654,-114 654,-114 654,-85 654,-85 654,-79 660,-73 666,-73 666,-73 744,-73 744,-73 750,-73 756,-79 756,-85 756,-85 756,-114 756,-114 756,-120 750,-126 744,-126"/>
<text text-anchor="middle" x="705" y="-110.8" font-family="Times,serif" font-size="14.00">处理浮点类型</text>
<text text-anchor="middle" x="705" y="-95.8" font-family="Times,serif" font-size="14.00">(.float)</text>
<text text-anchor="middle" x="705" y="-80.8" font-family="Times,serif" font-size="14.00">构造 bits</text>
</g>
<!-- switch_tag&#45;&gt;float_type -->
<g id="edge9" class="edge">
<title>switch_tag&#45;&gt;float_type</title>
<path fill="none" stroke="black" d="M892.06,-180C858.7,-165.82 806.33,-143.57 765.48,-126.2"/>
<polygon fill="black" stroke="black" points="766.73,-122.93 756.16,-122.24 763.99,-129.38 766.73,-122.93"/>
<text text-anchor="middle" x="860.5" y="-147.8" font-family="Times,serif" font-size="14.00">.float</text>
</g>
<!-- pointer_type -->
<g id="node11" class="node">
<title>pointer_type</title>
<path fill="none" stroke="black" d="M935.5,-126C935.5,-126 786.5,-126 786.5,-126 780.5,-126 774.5,-120 774.5,-114 774.5,-114 774.5,-85 774.5,-85 774.5,-79 780.5,-73 786.5,-73 786.5,-73 935.5,-73 935.5,-73 941.5,-73 947.5,-79 947.5,-85 947.5,-85 947.5,-114 947.5,-114 947.5,-120 941.5,-126 935.5,-126"/>
<text text-anchor="middle" x="861" y="-110.8" font-family="Times,serif" font-size="14.00">处理指针类型</text>
<text text-anchor="middle" x="861" y="-95.8" font-family="Times,serif" font-size="14.00">(.pointer)</text>
<text text-anchor="middle" x="861" y="-80.8" font-family="Times,serif" font-size="14.00">构造对齐、子类型等信息</text>
</g>
<!-- switch_tag&#45;&gt;pointer_type -->
<g id="edge10" class="edge">
<title>switch_tag&#45;&gt;pointer_type</title>
<path fill="none" stroke="black" d="M913.85,-177.71C905.71,-165.82 894.38,-149.26 884.29,-134.53"/>
<polygon fill="black" stroke="black" points="887.07,-132.39 878.53,-126.11 881.29,-136.34 887.07,-132.39"/>
<text text-anchor="middle" x="929.5" y="-147.8" font-family="Times,serif" font-size="14.00">.pointer</text>
</g>
<!-- array_type -->
<g id="node12" class="node">
<title>array_type</title>
<path fill="none" stroke="black" d="M1098.5,-126C1098.5,-126 977.5,-126 977.5,-126 971.5,-126 965.5,-120 965.5,-114 965.5,-114 965.5,-85 965.5,-85 965.5,-79 971.5,-73 977.5,-73 977.5,-73 1098.5,-73 1098.5,-73 1104.5,-73 1110.5,-79 1110.5,-85 1110.5,-85 1110.5,-114 1110.5,-114 1110.5,-120 1104.5,-126 1098.5,-126"/>
<text text-anchor="middle" x="1038" y="-110.8" font-family="Times,serif" font-size="14.00">处理数组类型</text>
<text text-anchor="middle" x="1038" y="-95.8" font-family="Times,serif" font-size="14.00">(.array)</text>
<text text-anchor="middle" x="1038" y="-80.8" font-family="Times,serif" font-size="14.00">构造长度和元素类型</text>
</g>
<!-- switch_tag&#45;&gt;array_type -->
<g id="edge11" class="edge">
<title>switch_tag&#45;&gt;array_type</title>
<path fill="none" stroke="black" d="M943.66,-178.56C958.69,-166.12 980.33,-148.22 999.09,-132.69"/>
<polygon fill="black" stroke="black" points="1001.46,-135.28 1006.93,-126.21 996.99,-129.89 1001.46,-135.28"/>
<text text-anchor="middle" x="1006.5" y="-147.8" font-family="Times,serif" font-size="14.00">.array</text>
</g>
<!-- struct_type -->
<g id="node13" class="node">
<title>struct_type</title>
<path fill="none" stroke="black" d="M1233,-126C1233,-126 1141,-126 1141,-126 1135,-126 1129,-120 1129,-114 1129,-114 1129,-85 1129,-85 1129,-79 1135,-73 1141,-73 1141,-73 1233,-73 1233,-73 1239,-73 1245,-79 1245,-85 1245,-85 1245,-114 1245,-114 1245,-120 1239,-126 1233,-126"/>
<text text-anchor="middle" x="1187" y="-110.8" font-family="Times,serif" font-size="14.00">处理结构体类型</text>
<text text-anchor="middle" x="1187" y="-95.8" font-family="Times,serif" font-size="14.00">(.struct)</text>
<text text-anchor="middle" x="1187" y="-80.8" font-family="Times,serif" font-size="14.00">解析字段和布局</text>
</g>
<!-- switch_tag&#45;&gt;struct_type -->
<g id="edge12" class="edge">
<title>switch_tag&#45;&gt;struct_type</title>
<path fill="none" stroke="black" d="M966.81,-180.8C986.64,-174.42 1010.61,-166.53 1032,-159 1060.76,-148.88 1092.28,-137.11 1119.34,-126.79"/>
<polygon fill="black" stroke="black" points="1120.62,-130.04 1128.71,-123.2 1118.12,-123.51 1120.62,-130.04"/>
<text text-anchor="middle" x="1095" y="-147.8" font-family="Times,serif" font-size="14.00">.struct</text>
</g>
<!-- enum_type -->
<g id="node14" class="node">
<title>enum_type</title>
<path fill="none" stroke="black" d="M1367,-126C1367,-126 1275,-126 1275,-126 1269,-126 1263,-120 1263,-114 1263,-114 1263,-85 1263,-85 1263,-79 1269,-73 1275,-73 1275,-73 1367,-73 1367,-73 1373,-73 1379,-79 1379,-85 1379,-85 1379,-114 1379,-114 1379,-120 1373,-126 1367,-126"/>
<text text-anchor="middle" x="1321" y="-110.8" font-family="Times,serif" font-size="14.00">处理枚举类型</text>
<text text-anchor="middle" x="1321" y="-95.8" font-family="Times,serif" font-size="14.00">(.enum)</text>
<text text-anchor="middle" x="1321" y="-80.8" font-family="Times,serif" font-size="14.00">构造标签和字段</text>
</g>
<!-- switch_tag&#45;&gt;enum_type -->
<g id="edge13" class="edge">
<title>switch_tag&#45;&gt;enum_type</title>
<path fill="none" stroke="black" d="M996.01,-183.6C1061.13,-173.1 1160.1,-154.7 1253.12,-126.14"/>
<polygon fill="black" stroke="black" points="1254.17,-129.47 1262.68,-123.16 1252.09,-122.79 1254.17,-129.47"/>
<text text-anchor="middle" x="1206.5" y="-147.8" font-family="Times,serif" font-size="14.00">.enum</text>
</g>
<!-- error_set -->
<g id="node15" class="node">
<title>error_set</title>
<path fill="none" stroke="black" d="M1487,-126C1487,-126 1409,-126 1409,-126 1403,-126 1397,-120 1397,-114 1397,-114 1397,-85 1397,-85 1397,-79 1403,-73 1409,-73 1409,-73 1487,-73 1487,-73 1493,-73 1499,-79 1499,-85 1499,-85 1499,-114 1499,-114 1499,-120 1493,-126 1487,-126"/>
<text text-anchor="middle" x="1448" y="-110.8" font-family="Times,serif" font-size="14.00">处理错误集</text>
<text text-anchor="middle" x="1448" y="-95.8" font-family="Times,serif" font-size="14.00">(.error_set)</text>
<text text-anchor="middle" x="1448" y="-80.8" font-family="Times,serif" font-size="14.00">构造错误列表</text>
</g>
<!-- switch_tag&#45;&gt;error_set -->
<g id="edge14" class="edge">
<title>switch_tag&#45;&gt;error_set</title>
<path fill="none" stroke="black" d="M1038.11,-187.51C1130.76,-179.88 1264.7,-163.52 1386.95,-126.09"/>
<polygon fill="black" stroke="black" points="1388.35,-129.32 1396.86,-123 1386.27,-122.63 1388.35,-129.32"/>
<text text-anchor="middle" x="1349" y="-147.8" font-family="Times,serif" font-size="14.00">.error_set</text>
</g>
<!-- other_types -->
<g id="node16" class="node">
<title>other_types</title>
<path fill="none" stroke="black" d="M1750.5,-118.5C1750.5,-118.5 1529.5,-118.5 1529.5,-118.5 1523.5,-118.5 1517.5,-112.5 1517.5,-106.5 1517.5,-106.5 1517.5,-92.5 1517.5,-92.5 1517.5,-86.5 1523.5,-80.5 1529.5,-80.5 1529.5,-80.5 1750.5,-80.5 1750.5,-80.5 1756.5,-80.5 1762.5,-86.5 1762.5,-92.5 1762.5,-92.5 1762.5,-106.5 1762.5,-106.5 1762.5,-112.5 1756.5,-118.5 1750.5,-118.5"/>
<text text-anchor="middle" x="1640" y="-103.3" font-family="Times,serif" font-size="14.00">其他类型处理分支</text>
<text text-anchor="middle" x="1640" y="-88.3" font-family="Times,serif" font-size="14.00">(union, optional, error_union 等)</text>
</g>
<!-- switch_tag&#45;&gt;other_types -->
<g id="edge15" class="edge">
<title>switch_tag&#45;&gt;other_types</title>
<path fill="none" stroke="black" d="M1057.58,-189.35C1150.49,-184.79 1277.34,-175.93 1388,-159 1448.14,-149.8 1515.2,-133.96 1565.01,-121.08"/>
<polygon fill="black" stroke="black" points="1565.94,-124.45 1574.74,-118.54 1564.18,-117.68 1565.94,-124.45"/>
<text text-anchor="middle" x="1493" y="-147.8" font-family="Times,serif" font-size="14.00">其他类型</text>
</g>
<!-- return -->
<g id="node17" class="node">
<title>return</title>
<ellipse fill="none" stroke="black" cx="949" cy="-18" rx="113.18" ry="18"/>
<text text-anchor="middle" x="949" y="-14.3" font-family="Times,serif" font-size="14.00">返回 Air.internedToRef</text>
</g>
<!-- basic_types&#45;&gt;return -->
<g id="edge16" class="edge">
<title>basic_types&#45;&gt;return</title>
<path fill="none" stroke="black" d="M248.17,-74.24C251.14,-73.81 254.09,-73.39 257,-73 457.84,-46 693.43,-31.17 831.44,-24.17"/>
<polygon fill="black" stroke="black" points="831.81,-27.66 841.62,-23.66 831.46,-20.67 831.81,-27.66"/>
</g>
<!-- fn_type&#45;&gt;return -->
<g id="edge17" class="edge">
<title>fn_type&#45;&gt;return</title>
<path fill="none" stroke="black" d="M439.73,-74.83C442.85,-74.18 445.95,-73.57 449,-73 580.68,-48.55 734.07,-34.01 835.88,-26.29"/>
<polygon fill="black" stroke="black" points="836.16,-29.78 845.87,-25.54 835.64,-22.79 836.16,-29.78"/>
</g>
<!-- int_type&#45;&gt;return -->
<g id="edge18" class="edge">
<title>int_type&#45;&gt;return</title>
<path fill="none" stroke="black" d="M636.13,-74.99C639.12,-74.3 642.08,-73.64 645,-73 717.43,-57.17 800.32,-42.68 861.24,-32.71"/>
<polygon fill="black" stroke="black" points="861.89,-36.15 871.2,-31.09 860.77,-29.24 861.89,-36.15"/>
</g>
<!-- float_type&#45;&gt;return -->
<g id="edge19" class="edge">
<title>float_type&#45;&gt;return</title>
<path fill="none" stroke="black" d="M756.23,-76.26C759.18,-75.13 762.12,-74.03 765,-73 803.68,-59.16 847.82,-46.11 883.17,-36.31"/>
<polygon fill="black" stroke="black" points="884.19,-39.67 892.9,-33.64 882.33,-32.92 884.19,-39.67"/>
</g>
<!-- pointer_type&#45;&gt;return -->
<g id="edge20" class="edge">
<title>pointer_type&#45;&gt;return</title>
<path fill="none" stroke="black" d="M889.33,-72.91C900.06,-63.21 912.22,-52.23 922.75,-42.71"/>
<polygon fill="black" stroke="black" points="925.36,-45.07 930.43,-35.77 920.67,-39.88 925.36,-45.07"/>
</g>
<!-- array_type&#45;&gt;return -->
<g id="edge21" class="edge">
<title>array_type&#45;&gt;return</title>
<path fill="none" stroke="black" d="M1009.35,-72.91C998.39,-63.12 985.96,-52.01 975.24,-42.43"/>
<polygon fill="black" stroke="black" points="977.57,-39.82 967.78,-35.77 972.9,-45.04 977.57,-39.82"/>
</g>
<!-- struct_type&#45;&gt;return -->
<g id="edge22" class="edge">
<title>struct_type&#45;&gt;return</title>
<path fill="none" stroke="black" d="M1128.83,-76.46C1125.51,-75.28 1122.22,-74.11 1119,-73 1082.67,-60.43 1041.59,-47.35 1008.92,-37.21"/>
<polygon fill="black" stroke="black" points="1009.65,-33.77 999.06,-34.16 1007.58,-40.46 1009.65,-33.77"/>
</g>
<!-- enum_type&#45;&gt;return -->
<g id="edge23" class="edge">
<title>enum_type&#45;&gt;return</title>
<path fill="none" stroke="black" d="M1262.75,-75.59C1259.81,-74.67 1256.88,-73.8 1254,-73 1185.01,-53.95 1105.32,-40.11 1044.7,-31.22"/>
<polygon fill="black" stroke="black" points="1045.16,-27.74 1034.76,-29.78 1044.15,-34.67 1045.16,-27.74"/>
</g>
<!-- error_set&#45;&gt;return -->
<g id="edge24" class="edge">
<title>error_set&#45;&gt;return</title>
<path fill="none" stroke="black" d="M1396.95,-75.69C1393.95,-74.7 1390.95,-73.79 1388,-73 1281.24,-44.35 1155.73,-30.85 1066.32,-24.52"/>
<polygon fill="black" stroke="black" points="1066.36,-21.01 1056.15,-23.82 1065.88,-27.99 1066.36,-21.01"/>
</g>
<!-- other_types&#45;&gt;return -->
<g id="edge25" class="edge">
<title>other_types&#45;&gt;return</title>
<path fill="none" stroke="black" d="M1552.5,-80.44C1537.69,-77.72 1522.43,-75.12 1508,-73 1353.84,-50.41 1174.32,-34.98 1061.17,-26.57"/>
<polygon fill="black" stroke="black" points="1061.34,-23.08 1051.11,-25.83 1060.83,-30.06 1061.34,-23.08"/>
</g>
</g>
</svg>
