<?xml version="1.0" encoding="UTF-8" standalone="no"?>
<!DOCTYPE svg PUBLIC "-//W3C//DTD SVG 1.1//EN"
 "http://www.w3.org/Graphics/SVG/1.1/DTD/svg11.dtd">
<!-- Generated by graphviz version 2.43.0 (0)
 -->
<!-- Title: flowchart Pages: 1 -->
<svg width="3689pt" height="677pt"
 viewBox="0.00 0.00 3688.50 677.48" xmlns="http://www.w3.org/2000/svg" xmlns:xlink="http://www.w3.org/1999/xlink">
<g id="graph0" class="graph" transform="scale(1 1) rotate(0) translate(4 673.48)">
<title>flowchart</title>
<polygon fill="white" stroke="transparent" points="-4,4 -4,-673.48 3684.5,-673.48 3684.5,4 -4,4"/>
<!-- start -->
<g id="node1" class="node">
<title>start</title>
<path fill="none" stroke="black" d="M1837,-669.48C1837,-669.48 1699,-669.48 1699,-669.48 1693,-669.48 1687,-663.48 1687,-657.48 1687,-657.48 1687,-645.48 1687,-645.48 1687,-639.48 1693,-633.48 1699,-633.48 1699,-633.48 1837,-633.48 1837,-633.48 1843,-633.48 1849,-639.48 1849,-645.48 1849,-645.48 1849,-657.48 1849,-657.48 1849,-663.48 1843,-669.48 1837,-669.48"/>
<text text-anchor="middle" x="1768" y="-647.78" font-family="Helvetica,sans-Serif" font-size="14.00">开始: zirReify函数入口</text>
</g>
<!-- init -->
<g id="node2" class="node">
<title>init</title>
<path fill="none" stroke="black" d="M1825.5,-596.48C1825.5,-596.48 1710.5,-596.48 1710.5,-596.48 1704.5,-596.48 1698.5,-590.48 1698.5,-584.48 1698.5,-584.48 1698.5,-555.48 1698.5,-555.48 1698.5,-549.48 1704.5,-543.48 1710.5,-543.48 1710.5,-543.48 1825.5,-543.48 1825.5,-543.48 1831.5,-543.48 1837.5,-549.48 1837.5,-555.48 1837.5,-555.48 1837.5,-584.48 1837.5,-584.48 1837.5,-590.48 1831.5,-596.48 1825.5,-596.48"/>
<text text-anchor="middle" x="1768" y="-581.28" font-family="Helvetica,sans-Serif" font-size="14.00">初始化操作</text>
<text text-anchor="middle" x="1768" y="-566.28" font-family="Helvetica,sans-Serif" font-size="14.00">获取pt/zcu/gpa/ip</text>
<text text-anchor="middle" x="1768" y="-551.28" font-family="Helvetica,sans-Serif" font-size="14.00">解析extended参数</text>
</g>
<!-- start&#45;&gt;init -->
<g id="edge1" class="edge">
<title>start&#45;&gt;init</title>
<path fill="none" stroke="black" d="M1768,-633.23C1768,-625.47 1768,-615.99 1768,-606.8"/>
<polygon fill="black" stroke="black" points="1771.5,-606.66 1768,-596.66 1764.5,-606.66 1771.5,-606.66"/>
</g>
<!-- resolve_operand -->
<g id="node3" class="node">
<title>resolve_operand</title>
<path fill="none" stroke="black" d="M1864,-506.48C1864,-506.48 1672,-506.48 1672,-506.48 1666,-506.48 1660,-500.48 1660,-494.48 1660,-494.48 1660,-480.48 1660,-480.48 1660,-474.48 1666,-468.48 1672,-468.48 1672,-468.48 1864,-468.48 1864,-468.48 1870,-468.48 1876,-474.48 1876,-480.48 1876,-480.48 1876,-494.48 1876,-494.48 1876,-500.48 1870,-506.48 1864,-506.48"/>
<text text-anchor="middle" x="1768" y="-491.28" font-family="Helvetica,sans-Serif" font-size="14.00">解析操作数uncasted_operand</text>
<text text-anchor="middle" x="1768" y="-476.28" font-family="Helvetica,sans-Serif" font-size="14.00">获取type_info_ty</text>
</g>
<!-- init&#45;&gt;resolve_operand -->
<g id="edge2" class="edge">
<title>init&#45;&gt;resolve_operand</title>
<path fill="none" stroke="black" d="M1768,-543.07C1768,-534.79 1768,-525.59 1768,-517.13"/>
<polygon fill="black" stroke="black" points="1771.5,-516.95 1768,-506.95 1764.5,-516.95 1771.5,-516.95"/>
</g>
<!-- check_undef -->
<g id="node4" class="node">
<title>check_undef</title>
<path fill="none" stroke="black" d="M1874.5,-431.48C1874.5,-431.48 1661.5,-431.48 1661.5,-431.48 1655.5,-431.48 1649.5,-425.48 1649.5,-419.48 1649.5,-419.48 1649.5,-407.48 1649.5,-407.48 1649.5,-401.48 1655.5,-395.48 1661.5,-395.48 1661.5,-395.48 1874.5,-395.48 1874.5,-395.48 1880.5,-395.48 1886.5,-401.48 1886.5,-407.48 1886.5,-407.48 1886.5,-419.48 1886.5,-419.48 1886.5,-425.48 1880.5,-431.48 1874.5,-431.48"/>
<text text-anchor="middle" x="1768" y="-409.78" font-family="Helvetica,sans-Serif" font-size="14.00">检查操作数是否未定义(anyUndef)</text>
</g>
<!-- resolve_operand&#45;&gt;check_undef -->
<g id="edge3" class="edge">
<title>resolve_operand&#45;&gt;check_undef</title>
<path fill="none" stroke="black" d="M1768,-468.31C1768,-460.37 1768,-450.89 1768,-442.11"/>
<polygon fill="black" stroke="black" points="1771.5,-441.9 1768,-431.9 1764.5,-441.9 1771.5,-441.9"/>
</g>
<!-- error_undef -->
<g id="node5" class="node">
<title>error_undef</title>
<ellipse fill="none" stroke="black" cx="1714" cy="-317.61" rx="108.79" ry="26.74"/>
<text text-anchor="middle" x="1714" y="-321.41" font-family="Helvetica,sans-Serif" font-size="14.00">返回编译错误</text>
<text text-anchor="middle" x="1714" y="-306.41" font-family="Helvetica,sans-Serif" font-size="14.00">failWithUseOfUndef</text>
</g>
<!-- check_undef&#45;&gt;error_undef -->
<g id="edge4" class="edge">
<title>check_undef&#45;&gt;error_undef</title>
<path fill="none" stroke="black" d="M1758.1,-395.26C1751.4,-383.63 1742.33,-367.85 1734.15,-353.64"/>
<polygon fill="black" stroke="black" points="1736.96,-351.5 1728.94,-344.58 1730.89,-354.99 1736.96,-351.5"/>
<text text-anchor="middle" x="1791" y="-366.28" font-family="Helvetica,sans-Serif" font-size="14.00">检测到未定义</text>
</g>
<!-- get_tag -->
<g id="node6" class="node">
<title>get_tag</title>
<path fill="none" stroke="black" d="M2009,-336.61C2009,-336.61 1853,-336.61 1853,-336.61 1847,-336.61 1841,-330.61 1841,-324.61 1841,-324.61 1841,-310.61 1841,-310.61 1841,-304.61 1847,-298.61 1853,-298.61 1853,-298.61 2009,-298.61 2009,-298.61 2015,-298.61 2021,-304.61 2021,-310.61 2021,-310.61 2021,-324.61 2021,-324.61 2021,-330.61 2015,-336.61 2009,-336.61"/>
<text text-anchor="middle" x="1931" y="-321.41" font-family="Helvetica,sans-Serif" font-size="14.00">获取union_val.tag</text>
<text text-anchor="middle" x="1931" y="-306.41" font-family="Helvetica,sans-Serif" font-size="14.00">确定类型分类(tag_index)</text>
</g>
<!-- check_undef&#45;&gt;get_tag -->
<g id="edge5" class="edge">
<title>check_undef&#45;&gt;get_tag</title>
<path fill="none" stroke="black" d="M1803.97,-395.36C1815.01,-389.87 1827.11,-383.63 1838,-377.48 1857.27,-366.6 1878.14,-353.52 1895.22,-342.45"/>
<polygon fill="black" stroke="black" points="1897.31,-345.26 1903.77,-336.87 1893.48,-339.4 1897.31,-345.26"/>
<text text-anchor="middle" x="1876.5" y="-366.28" font-family="Helvetica,sans-Serif" font-size="14.00">正常</text>
</g>
<!-- main_switch -->
<g id="node7" class="node">
<title>main_switch</title>
<path fill="none" stroke="black" d="M1919.22,-251.44C1919.22,-251.44 1747.78,-218.04 1747.78,-218.04 1741.89,-216.89 1741.89,-214.59 1747.78,-213.44 1747.78,-213.44 1919.22,-180.04 1919.22,-180.04 1925.11,-178.89 1936.89,-178.89 1942.78,-180.04 1942.78,-180.04 2114.22,-213.44 2114.22,-213.44 2120.11,-214.59 2120.11,-216.89 2114.22,-218.04 2114.22,-218.04 1942.78,-251.44 1942.78,-251.44 1936.89,-252.59 1925.11,-252.59 1919.22,-251.44"/>
<text text-anchor="middle" x="1931" y="-219.54" font-family="Helvetica,sans-Serif" font-size="14.00">主类型分派</text>
<text text-anchor="middle" x="1931" y="-204.54" font-family="Helvetica,sans-Serif" font-size="14.00">switch (std.builtin.TypeId)</text>
</g>
<!-- get_tag&#45;&gt;main_switch -->
<g id="edge6" class="edge">
<title>get_tag&#45;&gt;main_switch</title>
<path fill="none" stroke="black" d="M1931,-298.29C1931,-288.61 1931,-276.24 1931,-264.08"/>
<polygon fill="black" stroke="black" points="1934.5,-263.97 1931,-253.97 1927.5,-263.97 1934.5,-263.97"/>
</g>
<!-- type_type -->
<g id="node8" class="node">
<title>type_type</title>
<path fill="none" stroke="black" d="M106,-118.87C106,-118.87 12,-118.87 12,-118.87 6,-118.87 0,-112.87 0,-106.87 0,-106.87 0,-92.87 0,-92.87 0,-86.87 6,-80.87 12,-80.87 12,-80.87 106,-80.87 106,-80.87 112,-80.87 118,-86.87 118,-92.87 118,-92.87 118,-106.87 118,-106.87 118,-112.87 112,-118.87 106,-118.87"/>
<text text-anchor="middle" x="59" y="-103.67" font-family="Helvetica,sans-Serif" font-size="14.00">处理.type类型</text>
<text text-anchor="middle" x="59" y="-88.67" font-family="Helvetica,sans-Serif" font-size="14.00">返回.type_type</text>
</g>
<!-- main_switch&#45;&gt;type_type -->
<g id="edge7" class="edge">
<title>main_switch&#45;&gt;type_type</title>
<path fill="none" stroke="black" d="M1753.3,-212.37C1389.92,-206.92 572.76,-191.48 295,-159.74 219.4,-151.1 200.16,-147.68 127,-126.74 122.39,-125.42 117.64,-123.92 112.91,-122.33"/>
<polygon fill="black" stroke="black" points="113.85,-118.95 103.26,-118.94 111.54,-125.55 113.85,-118.95"/>
<text text-anchor="middle" x="313" y="-148.54" font-family="Helvetica,sans-Serif" font-size="14.00">.type</text>
</g>
<!-- void_type -->
<g id="node9" class="node">
<title>void_type</title>
<path fill="none" stroke="black" d="M240,-118.87C240,-118.87 148,-118.87 148,-118.87 142,-118.87 136,-112.87 136,-106.87 136,-106.87 136,-92.87 136,-92.87 136,-86.87 142,-80.87 148,-80.87 148,-80.87 240,-80.87 240,-80.87 246,-80.87 252,-86.87 252,-92.87 252,-92.87 252,-106.87 252,-106.87 252,-112.87 246,-118.87 240,-118.87"/>
<text text-anchor="middle" x="194" y="-103.67" font-family="Helvetica,sans-Serif" font-size="14.00">处理.void类型</text>
<text text-anchor="middle" x="194" y="-88.67" font-family="Helvetica,sans-Serif" font-size="14.00">返回.void_type</text>
</g>
<!-- main_switch&#45;&gt;void_type -->
<g id="edge8" class="edge">
<title>main_switch&#45;&gt;void_type</title>
<path fill="none" stroke="black" d="M1757.43,-211.54C1420.63,-204.79 689.55,-187.43 439,-159.74 359.03,-150.9 338.42,-148.66 261,-126.74 256.37,-125.43 251.61,-123.93 246.87,-122.32"/>
<polygon fill="black" stroke="black" points="247.81,-118.94 237.21,-118.9 245.47,-125.53 247.81,-118.94"/>
<text text-anchor="middle" x="456" y="-148.54" font-family="Helvetica,sans-Serif" font-size="14.00">.void</text>
</g>
<!-- bool_type -->
<g id="node10" class="node">
<title>bool_type</title>
<path fill="none" stroke="black" d="M374,-118.87C374,-118.87 282,-118.87 282,-118.87 276,-118.87 270,-112.87 270,-106.87 270,-106.87 270,-92.87 270,-92.87 270,-86.87 276,-80.87 282,-80.87 282,-80.87 374,-80.87 374,-80.87 380,-80.87 386,-86.87 386,-92.87 386,-92.87 386,-106.87 386,-106.87 386,-112.87 380,-118.87 374,-118.87"/>
<text text-anchor="middle" x="328" y="-103.67" font-family="Helvetica,sans-Serif" font-size="14.00">处理.bool类型</text>
<text text-anchor="middle" x="328" y="-88.67" font-family="Helvetica,sans-Serif" font-size="14.00">返回.bool_type</text>
</g>
<!-- main_switch&#45;&gt;bool_type -->
<g id="edge9" class="edge">
<title>main_switch&#45;&gt;bool_type</title>
<path fill="none" stroke="black" d="M1750.09,-212.99C1497.16,-209.2 1023.7,-197.28 622,-159.74 520.49,-150.25 493.62,-152.6 395,-126.74 390.08,-125.45 385.02,-123.91 379.99,-122.24"/>
<polygon fill="black" stroke="black" points="381.02,-118.89 370.42,-118.89 378.7,-125.5 381.02,-118.89"/>
<text text-anchor="middle" x="639" y="-148.54" font-family="Helvetica,sans-Serif" font-size="14.00">.bool</text>
</g>
<!-- noreturn_type -->
<g id="node11" class="node">
<title>noreturn_type</title>
<path fill="none" stroke="black" d="M538,-118.87C538,-118.87 416,-118.87 416,-118.87 410,-118.87 404,-112.87 404,-106.87 404,-106.87 404,-92.87 404,-92.87 404,-86.87 410,-80.87 416,-80.87 416,-80.87 538,-80.87 538,-80.87 544,-80.87 550,-86.87 550,-92.87 550,-92.87 550,-106.87 550,-106.87 550,-112.87 544,-118.87 538,-118.87"/>
<text text-anchor="middle" x="477" y="-103.67" font-family="Helvetica,sans-Serif" font-size="14.00">处理.noreturn类型</text>
<text text-anchor="middle" x="477" y="-88.67" font-family="Helvetica,sans-Serif" font-size="14.00">返回.noreturn_type</text>
</g>
<!-- main_switch&#45;&gt;noreturn_type -->
<g id="edge10" class="edge">
<title>main_switch&#45;&gt;noreturn_type</title>
<path fill="none" stroke="black" d="M1763.82,-210.3C1546.84,-203.65 1156.6,-188.67 824,-159.74 705.76,-149.45 674.96,-152.03 559,-126.74 552.53,-125.33 545.85,-123.63 539.21,-121.79"/>
<polygon fill="black" stroke="black" points="540.13,-118.41 529.55,-119 538.19,-125.14 540.13,-118.41"/>
<text text-anchor="middle" x="856" y="-148.54" font-family="Helvetica,sans-Serif" font-size="14.00">.noreturn</text>
</g>
<!-- comptime_types -->
<g id="node12" class="node">
<title>comptime_types</title>
<path fill="none" stroke="black" d="M806,-118.87C806,-118.87 580,-118.87 580,-118.87 574,-118.87 568,-112.87 568,-106.87 568,-106.87 568,-92.87 568,-92.87 568,-86.87 574,-80.87 580,-80.87 580,-80.87 806,-80.87 806,-80.87 812,-80.87 818,-86.87 818,-92.87 818,-92.87 818,-106.87 818,-106.87 818,-112.87 812,-118.87 806,-118.87"/>
<text text-anchor="middle" x="693" y="-103.67" font-family="Helvetica,sans-Serif" font-size="14.00">处理comptime_float/comptime_int</text>
<text text-anchor="middle" x="693" y="-88.67" font-family="Helvetica,sans-Serif" font-size="14.00">返回对应类型</text>
</g>
<!-- main_switch&#45;&gt;comptime_types -->
<g id="edge11" class="edge">
<title>main_switch&#45;&gt;comptime_types</title>
<path fill="none" stroke="black" d="M1753.94,-212.19C1562.23,-207.64 1247.79,-194.98 979,-159.74 909.89,-150.68 832.52,-134.37 775.69,-121.21"/>
<polygon fill="black" stroke="black" points="776.22,-117.74 765.68,-118.88 774.63,-124.56 776.22,-117.74"/>
<text text-anchor="middle" x="1023" y="-148.54" font-family="Helvetica,sans-Serif" font-size="14.00">.comptime_*</text>
</g>
<!-- undefined_type -->
<g id="node13" class="node">
<title>undefined_type</title>
<path fill="none" stroke="black" d="M982,-118.87C982,-118.87 848,-118.87 848,-118.87 842,-118.87 836,-112.87 836,-106.87 836,-106.87 836,-92.87 836,-92.87 836,-86.87 842,-80.87 848,-80.87 848,-80.87 982,-80.87 982,-80.87 988,-80.87 994,-86.87 994,-92.87 994,-92.87 994,-106.87 994,-106.87 994,-112.87 988,-118.87 982,-118.87"/>
<text text-anchor="middle" x="915" y="-103.67" font-family="Helvetica,sans-Serif" font-size="14.00">处理.undefined类型</text>
<text text-anchor="middle" x="915" y="-88.67" font-family="Helvetica,sans-Serif" font-size="14.00">返回.undefined_type</text>
</g>
<!-- main_switch&#45;&gt;undefined_type -->
<g id="edge12" class="edge">
<title>main_switch&#45;&gt;undefined_type</title>
<path fill="none" stroke="black" d="M1759.36,-211.16C1598.31,-205.84 1351.14,-192.6 1139,-159.74 1084.7,-151.33 1024.53,-135.12 980.24,-121.84"/>
<polygon fill="black" stroke="black" points="981.06,-118.43 970.48,-118.88 979.03,-125.13 981.06,-118.43"/>
<text text-anchor="middle" x="1177" y="-148.54" font-family="Helvetica,sans-Serif" font-size="14.00">.undefined</text>
</g>
<!-- null_type -->
<g id="node14" class="node">
<title>null_type</title>
<path fill="none" stroke="black" d="M1113.5,-118.87C1113.5,-118.87 1024.5,-118.87 1024.5,-118.87 1018.5,-118.87 1012.5,-112.87 1012.5,-106.87 1012.5,-106.87 1012.5,-92.87 1012.5,-92.87 1012.5,-86.87 1018.5,-80.87 1024.5,-80.87 1024.5,-80.87 1113.5,-80.87 1113.5,-80.87 1119.5,-80.87 1125.5,-86.87 1125.5,-92.87 1125.5,-92.87 1125.5,-106.87 1125.5,-106.87 1125.5,-112.87 1119.5,-118.87 1113.5,-118.87"/>
<text text-anchor="middle" x="1069" y="-103.67" font-family="Helvetica,sans-Serif" font-size="14.00">处理.null类型</text>
<text text-anchor="middle" x="1069" y="-88.67" font-family="Helvetica,sans-Serif" font-size="14.00">返回.null_type</text>
</g>
<!-- main_switch&#45;&gt;null_type -->
<g id="edge13" class="edge">
<title>main_switch&#45;&gt;null_type</title>
<path fill="none" stroke="black" d="M1764.03,-210.19C1601.01,-202.53 1347.09,-181.94 1134,-126.74 1129.13,-125.48 1124.13,-123.95 1119.17,-122.27"/>
<polygon fill="black" stroke="black" points="1120.34,-118.96 1109.74,-118.88 1117.97,-125.55 1120.34,-118.96"/>
<text text-anchor="middle" x="1299.5" y="-148.54" font-family="Helvetica,sans-Serif" font-size="14.00">.null</text>
</g>
<!-- enum_literal -->
<g id="node15" class="node">
<title>enum_literal</title>
<path fill="none" stroke="black" d="M1304.5,-118.87C1304.5,-118.87 1155.5,-118.87 1155.5,-118.87 1149.5,-118.87 1143.5,-112.87 1143.5,-106.87 1143.5,-106.87 1143.5,-92.87 1143.5,-92.87 1143.5,-86.87 1149.5,-80.87 1155.5,-80.87 1155.5,-80.87 1304.5,-80.87 1304.5,-80.87 1310.5,-80.87 1316.5,-86.87 1316.5,-92.87 1316.5,-92.87 1316.5,-106.87 1316.5,-106.87 1316.5,-112.87 1310.5,-118.87 1304.5,-118.87"/>
<text text-anchor="middle" x="1230" y="-103.67" font-family="Helvetica,sans-Serif" font-size="14.00">处理.enum_literal</text>
<text text-anchor="middle" x="1230" y="-88.67" font-family="Helvetica,sans-Serif" font-size="14.00">返回.enum_literal_type</text>
</g>
<!-- main_switch&#45;&gt;enum_literal -->
<g id="edge14" class="edge">
<title>main_switch&#45;&gt;enum_literal</title>
<path fill="none" stroke="black" d="M1807.9,-201.7C1685.04,-187.56 1491.28,-162.15 1326,-126.74 1318.52,-125.14 1310.76,-123.32 1303.03,-121.4"/>
<polygon fill="black" stroke="black" points="1303.84,-117.99 1293.29,-118.93 1302.12,-124.78 1303.84,-117.99"/>
<text text-anchor="middle" x="1536.5" y="-148.54" font-family="Helvetica,sans-Serif" font-size="14.00">.enum_literal</text>
</g>
<!-- async_error -->
<g id="node16" class="node">
<title>async_error</title>
<ellipse fill="none" stroke="black" cx="1484" cy="-99.87" rx="149.4" ry="26.74"/>
<text text-anchor="middle" x="1484" y="-103.67" font-family="Helvetica,sans-Serif" font-size="14.00">处理async相关类型</text>
<text text-anchor="middle" x="1484" y="-88.67" font-family="Helvetica,sans-Serif" font-size="14.00">返回错误failWithUseOfAsync</text>
</g>
<!-- main_switch&#45;&gt;async_error -->
<g id="edge15" class="edge">
<title>main_switch&#45;&gt;async_error</title>
<path fill="none" stroke="black" d="M1837.42,-195.86C1790.3,-185.93 1732.41,-173.06 1681,-159.74 1642.62,-149.8 1600.47,-137.4 1565.04,-126.55"/>
<polygon fill="black" stroke="black" points="1565.82,-123.13 1555.23,-123.54 1563.76,-129.82 1565.82,-123.13"/>
<text text-anchor="middle" x="1742" y="-148.54" font-family="Helvetica,sans-Serif" font-size="14.00">.anyframe/.frame</text>
</g>
<!-- int_type -->
<g id="node17" class="node">
<title>int_type</title>
<path fill="none" stroke="black" d="M1774.5,-126.37C1774.5,-126.37 1663.5,-126.37 1663.5,-126.37 1657.5,-126.37 1651.5,-120.37 1651.5,-114.37 1651.5,-114.37 1651.5,-85.37 1651.5,-85.37 1651.5,-79.37 1657.5,-73.37 1663.5,-73.37 1663.5,-73.37 1774.5,-73.37 1774.5,-73.37 1780.5,-73.37 1786.5,-79.37 1786.5,-85.37 1786.5,-85.37 1786.5,-114.37 1786.5,-114.37 1786.5,-120.37 1780.5,-126.37 1774.5,-126.37"/>
<text text-anchor="middle" x="1719" y="-111.17" font-family="Helvetica,sans-Serif" font-size="14.00">处理int类型</text>
<text text-anchor="middle" x="1719" y="-96.17" font-family="Helvetica,sans-Serif" font-size="14.00">创建符号/位数类型</text>
<text text-anchor="middle" x="1719" y="-81.17" font-family="Helvetica,sans-Serif" font-size="14.00">返回对应类型</text>
</g>
<!-- main_switch&#45;&gt;int_type -->
<g id="edge16" class="edge">
<title>main_switch&#45;&gt;int_type</title>
<path fill="none" stroke="black" d="M1880.22,-187.47C1848.76,-170.57 1808.29,-148.83 1775.77,-131.36"/>
<polygon fill="black" stroke="black" points="1777.29,-128.2 1766.82,-126.56 1773.97,-134.37 1777.29,-128.2"/>
<text text-anchor="middle" x="1836.5" y="-148.54" font-family="Helvetica,sans-Serif" font-size="14.00">.int</text>
</g>
<!-- vector_type -->
<g id="node18" class="node">
<title>vector_type</title>
<path fill="none" stroke="black" d="M1927.5,-126.37C1927.5,-126.37 1816.5,-126.37 1816.5,-126.37 1810.5,-126.37 1804.5,-120.37 1804.5,-114.37 1804.5,-114.37 1804.5,-85.37 1804.5,-85.37 1804.5,-79.37 1810.5,-73.37 1816.5,-73.37 1816.5,-73.37 1927.5,-73.37 1927.5,-73.37 1933.5,-73.37 1939.5,-79.37 1939.5,-85.37 1939.5,-85.37 1939.5,-114.37 1939.5,-114.37 1939.5,-120.37 1933.5,-126.37 1927.5,-126.37"/>
<text text-anchor="middle" x="1872" y="-111.17" font-family="Helvetica,sans-Serif" font-size="14.00">处理vector类型</text>
<text text-anchor="middle" x="1872" y="-96.17" font-family="Helvetica,sans-Serif" font-size="14.00">解析长度/元素类型</text>
<text text-anchor="middle" x="1872" y="-81.17" font-family="Helvetica,sans-Serif" font-size="14.00">创建向量类型</text>
</g>
<!-- main_switch&#45;&gt;vector_type -->
<g id="edge17" class="edge">
<title>main_switch&#45;&gt;vector_type</title>
<path fill="none" stroke="black" d="M1913.46,-180.88C1906.05,-166.58 1897.42,-149.93 1889.96,-135.54"/>
<polygon fill="black" stroke="black" points="1892.97,-133.73 1885.26,-126.46 1886.75,-136.95 1892.97,-133.73"/>
<text text-anchor="middle" x="1926.5" y="-148.54" font-family="Helvetica,sans-Serif" font-size="14.00">.vector</text>
</g>
<!-- float_type -->
<g id="node19" class="node">
<title>float_type</title>
<path fill="none" stroke="black" d="M2104.5,-118.87C2104.5,-118.87 1969.5,-118.87 1969.5,-118.87 1963.5,-118.87 1957.5,-112.87 1957.5,-106.87 1957.5,-106.87 1957.5,-92.87 1957.5,-92.87 1957.5,-86.87 1963.5,-80.87 1969.5,-80.87 1969.5,-80.87 2104.5,-80.87 2104.5,-80.87 2110.5,-80.87 2116.5,-86.87 2116.5,-92.87 2116.5,-92.87 2116.5,-106.87 2116.5,-106.87 2116.5,-112.87 2110.5,-118.87 2104.5,-118.87"/>
<text text-anchor="middle" x="2037" y="-103.67" font-family="Helvetica,sans-Serif" font-size="14.00">处理float类型</text>
<text text-anchor="middle" x="2037" y="-88.67" font-family="Helvetica,sans-Serif" font-size="14.00">根据位数创建浮点类型</text>
</g>
<!-- main_switch&#45;&gt;float_type -->
<g id="edge18" class="edge">
<title>main_switch&#45;&gt;float_type</title>
<path fill="none" stroke="black" d="M1960.25,-183.32C1976.93,-165.4 1997.58,-143.22 2013.25,-126.38"/>
<polygon fill="black" stroke="black" points="2015.82,-128.76 2020.07,-119.05 2010.7,-123.99 2015.82,-128.76"/>
<text text-anchor="middle" x="2012" y="-148.54" font-family="Helvetica,sans-Serif" font-size="14.00">.float</text>
</g>
<!-- pointer_type -->
<g id="node20" class="node">
<title>pointer_type</title>
<path fill="none" stroke="black" d="M2245.5,-126.37C2245.5,-126.37 2146.5,-126.37 2146.5,-126.37 2140.5,-126.37 2134.5,-120.37 2134.5,-114.37 2134.5,-114.37 2134.5,-85.37 2134.5,-85.37 2134.5,-79.37 2140.5,-73.37 2146.5,-73.37 2146.5,-73.37 2245.5,-73.37 2245.5,-73.37 2251.5,-73.37 2257.5,-79.37 2257.5,-85.37 2257.5,-85.37 2257.5,-114.37 2257.5,-114.37 2257.5,-120.37 2251.5,-126.37 2245.5,-126.37"/>
<text text-anchor="middle" x="2196" y="-111.17" font-family="Helvetica,sans-Serif" font-size="14.00">处理pointer类型</text>
<text text-anchor="middle" x="2196" y="-96.17" font-family="Helvetica,sans-Serif" font-size="14.00">解析指针属性</text>
<text text-anchor="middle" x="2196" y="-81.17" font-family="Helvetica,sans-Serif" font-size="14.00">创建指针类型</text>
</g>
<!-- main_switch&#45;&gt;pointer_type -->
<g id="edge19" class="edge">
<title>main_switch&#45;&gt;pointer_type</title>
<path fill="none" stroke="black" d="M1990.47,-189.19C2030.9,-171.81 2084.53,-148.77 2126.87,-130.58"/>
<polygon fill="black" stroke="black" points="2128.46,-133.7 2136.27,-126.54 2125.7,-127.27 2128.46,-133.7"/>
<text text-anchor="middle" x="2115.5" y="-148.54" font-family="Helvetica,sans-Serif" font-size="14.00">.pointer</text>
</g>
<!-- array_type -->
<g id="node21" class="node">
<title>array_type</title>
<path fill="none" stroke="black" d="M2432,-126.37C2432,-126.37 2288,-126.37 2288,-126.37 2282,-126.37 2276,-120.37 2276,-114.37 2276,-114.37 2276,-85.37 2276,-85.37 2276,-79.37 2282,-73.37 2288,-73.37 2288,-73.37 2432,-73.37 2432,-73.37 2438,-73.37 2444,-79.37 2444,-85.37 2444,-85.37 2444,-114.37 2444,-114.37 2444,-120.37 2438,-126.37 2432,-126.37"/>
<text text-anchor="middle" x="2360" y="-111.17" font-family="Helvetica,sans-Serif" font-size="14.00">处理array类型</text>
<text text-anchor="middle" x="2360" y="-96.17" font-family="Helvetica,sans-Serif" font-size="14.00">解析长度/哨兵/元素类型</text>
<text text-anchor="middle" x="2360" y="-81.17" font-family="Helvetica,sans-Serif" font-size="14.00">创建数组类型</text>
</g>
<!-- main_switch&#45;&gt;array_type -->
<g id="edge20" class="edge">
<title>main_switch&#45;&gt;array_type</title>
<path fill="none" stroke="black" d="M2014.44,-193.91C2054.57,-183.79 2103.33,-171.33 2147,-159.74 2186.06,-149.37 2229.04,-137.57 2266.1,-127.27"/>
<polygon fill="black" stroke="black" points="2267.19,-130.6 2275.88,-124.54 2265.31,-123.85 2267.19,-130.6"/>
<text text-anchor="middle" x="2220.5" y="-148.54" font-family="Helvetica,sans-Serif" font-size="14.00">.array</text>
</g>
<!-- optional_type -->
<g id="node22" class="node">
<title>optional_type</title>
<path fill="none" stroke="black" d="M2579.5,-126.37C2579.5,-126.37 2474.5,-126.37 2474.5,-126.37 2468.5,-126.37 2462.5,-120.37 2462.5,-114.37 2462.5,-114.37 2462.5,-85.37 2462.5,-85.37 2462.5,-79.37 2468.5,-73.37 2474.5,-73.37 2474.5,-73.37 2579.5,-73.37 2579.5,-73.37 2585.5,-73.37 2591.5,-79.37 2591.5,-85.37 2591.5,-85.37 2591.5,-114.37 2591.5,-114.37 2591.5,-120.37 2585.5,-126.37 2579.5,-126.37"/>
<text text-anchor="middle" x="2527" y="-111.17" font-family="Helvetica,sans-Serif" font-size="14.00">处理optional类型</text>
<text text-anchor="middle" x="2527" y="-96.17" font-family="Helvetica,sans-Serif" font-size="14.00">解析子类型</text>
<text text-anchor="middle" x="2527" y="-81.17" font-family="Helvetica,sans-Serif" font-size="14.00">创建可选类型</text>
</g>
<!-- main_switch&#45;&gt;optional_type -->
<g id="edge21" class="edge">
<title>main_switch&#45;&gt;optional_type</title>
<path fill="none" stroke="black" d="M2048.81,-200.68C2153,-186.91 2308.95,-163.03 2452.35,-126.74"/>
<polygon fill="black" stroke="black" points="2453.4,-130.08 2462.22,-124.21 2451.66,-123.3 2453.4,-130.08"/>
<text text-anchor="middle" x="2399.5" y="-148.54" font-family="Helvetica,sans-Serif" font-size="14.00">.optional</text>
</g>
<!-- error_union -->
<g id="node23" class="node">
<title>error_union</title>
<path fill="none" stroke="black" d="M2750,-126.37C2750,-126.37 2622,-126.37 2622,-126.37 2616,-126.37 2610,-120.37 2610,-114.37 2610,-114.37 2610,-85.37 2610,-85.37 2610,-79.37 2616,-73.37 2622,-73.37 2622,-73.37 2750,-73.37 2750,-73.37 2756,-73.37 2762,-79.37 2762,-85.37 2762,-85.37 2762,-114.37 2762,-114.37 2762,-120.37 2756,-126.37 2750,-126.37"/>
<text text-anchor="middle" x="2686" y="-111.17" font-family="Helvetica,sans-Serif" font-size="14.00">处理error_union类型</text>
<text text-anchor="middle" x="2686" y="-96.17" font-family="Helvetica,sans-Serif" font-size="14.00">验证错误集类型</text>
<text text-anchor="middle" x="2686" y="-81.17" font-family="Helvetica,sans-Serif" font-size="14.00">创建错误联合</text>
</g>
<!-- main_switch&#45;&gt;error_union -->
<g id="edge22" class="edge">
<title>main_switch&#45;&gt;error_union</title>
<path fill="none" stroke="black" d="M2073.61,-205.53C2208.07,-194.66 2414.76,-172.3 2599.74,-126.96"/>
<polygon fill="black" stroke="black" points="2600.78,-130.31 2609.65,-124.5 2599.1,-123.51 2600.78,-130.31"/>
<text text-anchor="middle" x="2553" y="-148.54" font-family="Helvetica,sans-Serif" font-size="14.00">.error_union</text>
</g>
<!-- error_set -->
<g id="node24" class="node">
<title>error_set</title>
<path fill="none" stroke="black" d="M2902,-126.37C2902,-126.37 2792,-126.37 2792,-126.37 2786,-126.37 2780,-120.37 2780,-114.37 2780,-114.37 2780,-85.37 2780,-85.37 2780,-79.37 2786,-73.37 2792,-73.37 2792,-73.37 2902,-73.37 2902,-73.37 2908,-73.37 2914,-79.37 2914,-85.37 2914,-85.37 2914,-114.37 2914,-114.37 2914,-120.37 2908,-126.37 2902,-126.37"/>
<text text-anchor="middle" x="2847" y="-111.17" font-family="Helvetica,sans-Serif" font-size="14.00">处理error_set类型</text>
<text text-anchor="middle" x="2847" y="-96.17" font-family="Helvetica,sans-Serif" font-size="14.00">收集错误名称</text>
<text text-anchor="middle" x="2847" y="-81.17" font-family="Helvetica,sans-Serif" font-size="14.00">创建错误集</text>
</g>
<!-- main_switch&#45;&gt;error_set -->
<g id="edge23" class="edge">
<title>main_switch&#45;&gt;error_set</title>
<path fill="none" stroke="black" d="M2081.4,-206.98C2217.12,-198.89 2422.03,-183.93 2599,-159.74 2672.96,-149.63 2694.05,-146.88 2769.6,-127"/>
<polygon fill="black" stroke="black" points="2770.83,-130.29 2779.6,-124.35 2769.04,-123.53 2770.83,-130.29"/>
<text text-anchor="middle" x="2727" y="-148.54" font-family="Helvetica,sans-Serif" font-size="14.00">.error_set</text>
</g>
<!-- struct_type -->
<g id="node25" class="node">
<title>struct_type</title>
<path fill="none" stroke="black" d="M3060,-126.37C3060,-126.37 2944,-126.37 2944,-126.37 2938,-126.37 2932,-120.37 2932,-114.37 2932,-114.37 2932,-85.37 2932,-85.37 2932,-79.37 2938,-73.37 2944,-73.37 2944,-73.37 3060,-73.37 3060,-73.37 3066,-73.37 3072,-79.37 3072,-85.37 3072,-85.37 3072,-114.37 3072,-114.37 3072,-120.37 3066,-126.37 3060,-126.37"/>
<text text-anchor="middle" x="3002" y="-111.17" font-family="Helvetica,sans-Serif" font-size="14.00">处理struct类型</text>
<text text-anchor="middle" x="3002" y="-96.17" font-family="Helvetica,sans-Serif" font-size="14.00">解析布局/字段/声明</text>
<text text-anchor="middle" x="3002" y="-81.17" font-family="Helvetica,sans-Serif" font-size="14.00">创建结构体</text>
</g>
<!-- main_switch&#45;&gt;struct_type -->
<g id="edge24" class="edge">
<title>main_switch&#45;&gt;struct_type</title>
<path fill="none" stroke="black" d="M2099.21,-210.48C2267.95,-204.6 2534.94,-190.92 2764,-159.74 2832.44,-150.42 2851.64,-145.74 2922.1,-126.9"/>
<polygon fill="black" stroke="black" points="2923.16,-130.24 2931.91,-124.27 2921.35,-123.48 2923.16,-130.24"/>
<text text-anchor="middle" x="2875" y="-148.54" font-family="Helvetica,sans-Serif" font-size="14.00">.struct</text>
</g>
<!-- enum_type -->
<g id="node26" class="node">
<title>enum_type</title>
<path fill="none" stroke="black" d="M3213.5,-126.37C3213.5,-126.37 3102.5,-126.37 3102.5,-126.37 3096.5,-126.37 3090.5,-120.37 3090.5,-114.37 3090.5,-114.37 3090.5,-85.37 3090.5,-85.37 3090.5,-79.37 3096.5,-73.37 3102.5,-73.37 3102.5,-73.37 3213.5,-73.37 3213.5,-73.37 3219.5,-73.37 3225.5,-79.37 3225.5,-85.37 3225.5,-85.37 3225.5,-114.37 3225.5,-114.37 3225.5,-120.37 3219.5,-126.37 3213.5,-126.37"/>
<text text-anchor="middle" x="3158" y="-111.17" font-family="Helvetica,sans-Serif" font-size="14.00">处理enum类型</text>
<text text-anchor="middle" x="3158" y="-96.17" font-family="Helvetica,sans-Serif" font-size="14.00">解析标签类型/字段</text>
<text text-anchor="middle" x="3158" y="-81.17" font-family="Helvetica,sans-Serif" font-size="14.00">创建枚举</text>
</g>
<!-- main_switch&#45;&gt;enum_type -->
<g id="edge25" class="edge">
<title>main_switch&#45;&gt;enum_type</title>
<path fill="none" stroke="black" d="M2104.35,-211.49C2299.03,-206.31 2624.13,-193.09 2902,-159.74 2979.18,-150.48 3001,-147.26 3080.19,-126.83"/>
<polygon fill="black" stroke="black" points="3081.33,-130.15 3090.14,-124.25 3079.58,-123.37 3081.33,-130.15"/>
<text text-anchor="middle" x="3026.5" y="-148.54" font-family="Helvetica,sans-Serif" font-size="14.00">.enum</text>
</g>
<!-- opaque_type -->
<g id="node27" class="node">
<title>opaque_type</title>
<path fill="none" stroke="black" d="M3356.5,-118.87C3356.5,-118.87 3255.5,-118.87 3255.5,-118.87 3249.5,-118.87 3243.5,-112.87 3243.5,-106.87 3243.5,-106.87 3243.5,-92.87 3243.5,-92.87 3243.5,-86.87 3249.5,-80.87 3255.5,-80.87 3255.5,-80.87 3356.5,-80.87 3356.5,-80.87 3362.5,-80.87 3368.5,-86.87 3368.5,-92.87 3368.5,-92.87 3368.5,-106.87 3368.5,-106.87 3368.5,-112.87 3362.5,-118.87 3356.5,-118.87"/>
<text text-anchor="middle" x="3306" y="-103.67" font-family="Helvetica,sans-Serif" font-size="14.00">处理opaque类型</text>
<text text-anchor="middle" x="3306" y="-88.67" font-family="Helvetica,sans-Serif" font-size="14.00">创建不透明类型</text>
</g>
<!-- main_switch&#45;&gt;opaque_type -->
<g id="edge26" class="edge">
<title>main_switch&#45;&gt;opaque_type</title>
<path fill="none" stroke="black" d="M2112.8,-213.1C2335.21,-209.42 2722.89,-197.6 3053,-159.74 3134.67,-150.37 3155.65,-148.22 3235,-126.74 3239.94,-125.4 3245.02,-123.87 3250.09,-122.24"/>
<polygon fill="black" stroke="black" points="3251.4,-125.49 3259.77,-119 3249.18,-118.85 3251.4,-125.49"/>
<text text-anchor="middle" x="3188.5" y="-148.54" font-family="Helvetica,sans-Serif" font-size="14.00">.opaque</text>
</g>
<!-- union_type -->
<g id="node28" class="node">
<title>union_type</title>
<path fill="none" stroke="black" d="M3515,-126.37C3515,-126.37 3399,-126.37 3399,-126.37 3393,-126.37 3387,-120.37 3387,-114.37 3387,-114.37 3387,-85.37 3387,-85.37 3387,-79.37 3393,-73.37 3399,-73.37 3399,-73.37 3515,-73.37 3515,-73.37 3521,-73.37 3527,-79.37 3527,-85.37 3527,-85.37 3527,-114.37 3527,-114.37 3527,-120.37 3521,-126.37 3515,-126.37"/>
<text text-anchor="middle" x="3457" y="-111.17" font-family="Helvetica,sans-Serif" font-size="14.00">处理union类型</text>
<text text-anchor="middle" x="3457" y="-96.17" font-family="Helvetica,sans-Serif" font-size="14.00">解析布局/标签/字段</text>
<text text-anchor="middle" x="3457" y="-81.17" font-family="Helvetica,sans-Serif" font-size="14.00">创建联合体</text>
</g>
<!-- main_switch&#45;&gt;union_type -->
<g id="edge27" class="edge">
<title>main_switch&#45;&gt;union_type</title>
<path fill="none" stroke="black" d="M2101.59,-210.95C2401.06,-203.73 3009.64,-186.28 3221,-159.74 3288.71,-151.24 3307.54,-145.69 3377.21,-126.88"/>
<polygon fill="black" stroke="black" points="3378.16,-130.25 3386.91,-124.26 3376.34,-123.49 3378.16,-130.25"/>
<text text-anchor="middle" x="3330" y="-148.54" font-family="Helvetica,sans-Serif" font-size="14.00">.union</text>
</g>
<!-- func_type -->
<g id="node29" class="node">
<title>func_type</title>
<path fill="none" stroke="black" d="M3668.5,-126.37C3668.5,-126.37 3557.5,-126.37 3557.5,-126.37 3551.5,-126.37 3545.5,-120.37 3545.5,-114.37 3545.5,-114.37 3545.5,-85.37 3545.5,-85.37 3545.5,-79.37 3551.5,-73.37 3557.5,-73.37 3557.5,-73.37 3668.5,-73.37 3668.5,-73.37 3674.5,-73.37 3680.5,-79.37 3680.5,-85.37 3680.5,-85.37 3680.5,-114.37 3680.5,-114.37 3680.5,-120.37 3674.5,-126.37 3668.5,-126.37"/>
<text text-anchor="middle" x="3613" y="-111.17" font-family="Helvetica,sans-Serif" font-size="14.00">处理fn类型</text>
<text text-anchor="middle" x="3613" y="-96.17" font-family="Helvetica,sans-Serif" font-size="14.00">解析调用约定/参数</text>
<text text-anchor="middle" x="3613" y="-81.17" font-family="Helvetica,sans-Serif" font-size="14.00">创建函数类型</text>
</g>
<!-- main_switch&#45;&gt;func_type -->
<g id="edge28" class="edge">
<title>main_switch&#45;&gt;func_type</title>
<path fill="none" stroke="black" d="M2102.71,-211.18C2426.95,-203.96 3118.14,-186 3356,-159.74 3433.68,-151.16 3455.56,-147.38 3535.14,-126.84"/>
<polygon fill="black" stroke="black" points="3536.33,-130.15 3545.14,-124.26 3534.58,-123.37 3536.33,-130.15"/>
<text text-anchor="middle" x="3467.5" y="-148.54" font-family="Helvetica,sans-Serif" font-size="14.00">.fn</text>
</g>
<!-- end -->
<g id="node30" class="node">
<title>end</title>
<ellipse fill="none" stroke="black" cx="1954" cy="-18" rx="78.79" ry="18"/>
<text text-anchor="middle" x="1954" y="-14.3" font-family="Helvetica,sans-Serif" font-size="14.00">返回Air.Inst.Ref</text>
</g>
<!-- type_type&#45;&gt;end -->
<g id="edge29" class="edge">
<title>type_type&#45;&gt;end</title>
<path fill="none" stroke="black" d="M100.46,-80.75C109.08,-77.65 118.22,-74.84 127,-73 292.5,-38.29 338.02,-60.27 507,-54 1021.42,-34.92 1639.11,-23.96 1865.4,-20.35"/>
<polygon fill="black" stroke="black" points="1865.61,-23.85 1875.55,-20.19 1865.5,-16.85 1865.61,-23.85"/>
</g>
<!-- void_type&#45;&gt;end -->
<g id="edge30" class="edge">
<title>void_type&#45;&gt;end</title>
<path fill="none" stroke="black" d="M235.22,-80.75C243.61,-77.69 252.48,-74.9 261,-73 378.41,-46.82 410.84,-59.7 531,-54 1035.76,-30.05 1642.05,-22.03 1865.63,-19.77"/>
<polygon fill="black" stroke="black" points="1865.7,-23.27 1875.67,-19.67 1865.63,-16.27 1865.7,-23.27"/>
</g>
<!-- bool_type&#45;&gt;end -->
<g id="edge31" class="edge">
<title>bool_type&#45;&gt;end</title>
<path fill="none" stroke="black" d="M368.85,-80.82C377.34,-77.71 386.35,-74.88 395,-73 531.61,-43.25 569.33,-60.19 709,-54 1142.63,-34.79 1661.71,-24.19 1865.62,-20.5"/>
<polygon fill="black" stroke="black" points="1865.74,-24 1875.67,-20.32 1865.61,-17 1865.74,-24"/>
</g>
<!-- noreturn_type&#45;&gt;end -->
<g id="edge32" class="edge">
<title>noreturn_type&#45;&gt;end</title>
<path fill="none" stroke="black" d="M527.22,-80.74C537.61,-77.64 548.56,-74.83 559,-73 755.28,-38.5 807.87,-61.9 1007,-54 1323.61,-41.44 1699.82,-27.97 1866.76,-22.07"/>
<polygon fill="black" stroke="black" points="1867.1,-25.56 1876.97,-21.7 1866.85,-18.56 1867.1,-25.56"/>
</g>
<!-- comptime_types&#45;&gt;end -->
<g id="edge33" class="edge">
<title>comptime_types&#45;&gt;end</title>
<path fill="none" stroke="black" d="M776.7,-80.81C793.3,-77.76 810.65,-74.96 827,-73 1211.58,-26.9 1674.44,-19.8 1865.21,-18.95"/>
<polygon fill="black" stroke="black" points="1865.47,-22.45 1875.46,-18.91 1865.44,-15.45 1865.47,-22.45"/>
</g>
<!-- undefined_type&#45;&gt;end -->
<g id="edge34" class="edge">
<title>undefined_type&#45;&gt;end</title>
<path fill="none" stroke="black" d="M969.96,-80.78C980.82,-77.76 992.19,-74.97 1003,-73 1113.93,-52.76 1143.46,-61.05 1256,-54 1476.11,-40.22 1735.54,-28.36 1867.48,-22.65"/>
<polygon fill="black" stroke="black" points="1867.69,-26.14 1877.53,-22.21 1867.39,-19.15 1867.69,-26.14"/>
</g>
<!-- null_type&#45;&gt;end -->
<g id="edge35" class="edge">
<title>null_type&#45;&gt;end</title>
<path fill="none" stroke="black" d="M1108.6,-80.84C1116.84,-77.74 1125.59,-74.9 1134,-73 1271.35,-41.96 1684.41,-26.68 1866.34,-21.31"/>
<polygon fill="black" stroke="black" points="1866.52,-24.81 1876.41,-21.02 1866.31,-17.81 1866.52,-24.81"/>
</g>
<!-- enum_literal&#45;&gt;end -->
<g id="edge36" class="edge">
<title>enum_literal&#45;&gt;end</title>
<path fill="none" stroke="black" d="M1290.32,-80.87C1302.07,-77.86 1314.36,-75.05 1326,-73 1517.04,-39.32 1744.62,-26.39 1866.54,-21.62"/>
<polygon fill="black" stroke="black" points="1866.71,-25.12 1876.57,-21.24 1866.45,-18.13 1866.71,-25.12"/>
</g>
<!-- async_error&#45;&gt;end -->
<g id="edge37" class="edge">
<title>async_error&#45;&gt;end</title>
<path fill="none" stroke="black" stroke-dasharray="5,2" d="M1589.77,-80.9C1679.15,-65.71 1804.72,-44.37 1882.64,-31.13"/>
<polygon fill="black" stroke="black" points="1883.56,-34.52 1892.84,-29.39 1882.39,-27.62 1883.56,-34.52"/>
</g>
<!-- int_type&#45;&gt;end -->
<g id="edge38" class="edge">
<title>int_type&#45;&gt;end</title>
<path fill="none" stroke="black" d="M1786.54,-75.88C1789.4,-74.9 1792.23,-73.94 1795,-73 1830.74,-60.85 1871,-47.17 1902.07,-36.63"/>
<polygon fill="black" stroke="black" points="1903.47,-39.85 1911.82,-33.32 1901.22,-33.22 1903.47,-39.85"/>
</g>
<!-- vector_type&#45;&gt;end -->
<g id="edge39" class="edge">
<title>vector_type&#45;&gt;end</title>
<path fill="none" stroke="black" d="M1898.4,-73.16C1908.3,-63.52 1919.5,-52.6 1929.25,-43.11"/>
<polygon fill="black" stroke="black" points="1931.98,-45.33 1936.7,-35.85 1927.1,-40.32 1931.98,-45.33"/>
</g>
<!-- float_type&#45;&gt;end -->
<g id="edge40" class="edge">
<title>float_type&#45;&gt;end</title>
<path fill="none" stroke="black" d="M2018.17,-80.75C2006.52,-69.54 1991.44,-55.03 1978.83,-42.89"/>
<polygon fill="black" stroke="black" points="1980.98,-40.1 1971.34,-35.69 1976.12,-45.15 1980.98,-40.1"/>
</g>
<!-- pointer_type&#45;&gt;end -->
<g id="edge41" class="edge">
<title>pointer_type&#45;&gt;end</title>
<path fill="none" stroke="black" d="M2134.48,-76.27C2131.28,-75.15 2128.11,-74.06 2125,-73 2086.5,-59.91 2042.78,-46.13 2009.18,-35.76"/>
<polygon fill="black" stroke="black" points="2010.13,-32.39 1999.54,-32.79 2008.07,-39.08 2010.13,-32.39"/>
</g>
<!-- array_type&#45;&gt;end -->
<g id="edge42" class="edge">
<title>array_type&#45;&gt;end</title>
<path fill="none" stroke="black" d="M2275.8,-75.27C2272.5,-74.48 2269.22,-73.72 2266,-73 2185.41,-54.98 2091.98,-39.52 2028.52,-29.81"/>
<polygon fill="black" stroke="black" points="2029.01,-26.35 2018.6,-28.3 2027.96,-33.27 2029.01,-26.35"/>
</g>
<!-- optional_type&#45;&gt;end -->
<g id="edge43" class="edge">
<title>optional_type&#45;&gt;end</title>
<path fill="none" stroke="black" d="M2462.27,-75.3C2459.16,-74.46 2456.05,-73.69 2453,-73 2310.84,-40.9 2141.43,-27.7 2041.07,-22.4"/>
<polygon fill="black" stroke="black" points="2041.14,-18.9 2030.98,-21.88 2040.78,-25.89 2041.14,-18.9"/>
</g>
<!-- error_union&#45;&gt;end -->
<g id="edge44" class="edge">
<title>error_union&#45;&gt;end</title>
<path fill="none" stroke="black" d="M2609.74,-74.82C2606.8,-74.16 2603.88,-73.55 2601,-73 2403.95,-35.24 2168.13,-23.88 2042.72,-20.47"/>
<polygon fill="black" stroke="black" points="2042.5,-16.96 2032.41,-20.2 2042.31,-23.96 2042.5,-16.96"/>
</g>
<!-- error_set&#45;&gt;end -->
<g id="edge45" class="edge">
<title>error_set&#45;&gt;end</title>
<path fill="none" stroke="black" d="M2779.7,-74.96C2776.78,-74.24 2773.87,-73.58 2771,-73 2633.48,-45.24 2222.29,-28.18 2041.23,-21.83"/>
<polygon fill="black" stroke="black" points="2041.33,-18.33 2031.21,-21.48 2041.08,-25.33 2041.33,-18.33"/>
</g>
<!-- struct_type&#45;&gt;end -->
<g id="edge46" class="edge">
<title>struct_type&#45;&gt;end</title>
<path fill="none" stroke="black" d="M2931.6,-74.85C2928.71,-74.17 2925.83,-73.55 2923,-73 2799.69,-49.05 2766.4,-61.42 2641,-54 2425.1,-41.23 2170.87,-29.01 2040.58,-22.96"/>
<polygon fill="black" stroke="black" points="2040.42,-19.44 2030.27,-22.48 2040.1,-26.44 2040.42,-19.44"/>
</g>
<!-- enum_type&#45;&gt;end -->
<g id="edge47" class="edge">
<title>enum_type&#45;&gt;end</title>
<path fill="none" stroke="black" d="M3090.25,-74.98C3087.14,-74.24 3084.05,-73.57 3081,-73 2882.52,-35.65 2272.57,-23.43 2042.8,-20.1"/>
<polygon fill="black" stroke="black" points="2042.53,-16.59 2032.48,-19.95 2042.43,-23.59 2042.53,-16.59"/>
</g>
<!-- opaque_type&#45;&gt;end -->
<g id="edge48" class="edge">
<title>opaque_type&#45;&gt;end</title>
<path fill="none" stroke="black" d="M3262.25,-80.74C3253.37,-77.68 3243.99,-74.89 3235,-73 3109.04,-46.48 3074.56,-60.49 2946,-54 2612.3,-37.15 2215.05,-25.75 2041.92,-21.21"/>
<polygon fill="black" stroke="black" points="2041.93,-17.7 2031.84,-20.94 2041.75,-24.7 2041.93,-17.7"/>
</g>
<!-- union_type&#45;&gt;end -->
<g id="edge49" class="edge">
<title>union_type&#45;&gt;end</title>
<path fill="none" stroke="black" d="M3386.61,-74.78C3383.72,-74.12 3380.84,-73.52 3378,-73 3199.89,-40.3 3151.94,-61.34 2971,-54 2627.23,-40.06 2217.95,-27.07 2041.77,-21.66"/>
<polygon fill="black" stroke="black" points="2041.62,-18.15 2031.52,-21.34 2041.41,-25.15 2041.62,-18.15"/>
</g>
<!-- func_type&#45;&gt;end -->
<g id="edge50" class="edge">
<title>func_type&#45;&gt;end</title>
<path fill="none" stroke="black" d="M3545.25,-74.97C3542.14,-74.23 3539.05,-73.57 3536,-73 3350.13,-38.33 3299.94,-61.08 3111,-54 2711.98,-39.05 2235.37,-26.22 2041.99,-21.23"/>
<polygon fill="black" stroke="black" points="2041.97,-17.73 2031.88,-20.97 2041.79,-24.72 2041.97,-17.73"/>
</g>
</g>
</svg>
