<?xml version="1.0" encoding="UTF-8" standalone="no"?>
<!DOCTYPE svg PUBLIC "-//W3C//DTD SVG 1.1//EN"
 "http://www.w3.org/Graphics/SVG/1.1/DTD/svg11.dtd">
<!-- Generated by graphviz version 2.43.0 (0)
 -->
<!-- Title: flowchart Pages: 1 -->
<svg width="771pt" height="944pt"
 viewBox="0.00 0.00 770.50 944.00" xmlns="http://www.w3.org/2000/svg" xmlns:xlink="http://www.w3.org/1999/xlink">
<g id="graph0" class="graph" transform="scale(1 1) rotate(0) translate(4 940)">
<title>flowchart</title>
<polygon fill="white" stroke="transparent" points="-4,4 -4,-940 766.5,-940 766.5,4 -4,4"/>
<!-- start -->
<g id="node1" class="node">
<title>start</title>
<polygon fill="none" stroke="black" points="209.5,-936 54.5,-936 54.5,-900 209.5,-900 209.5,-936"/>
<text text-anchor="middle" x="132" y="-915.5" font-family="Courier,monospace" font-size="10.00">Start coerceEnumToUnion</text>
</g>
<!-- check_tag_ty -->
<g id="node2" class="node">
<title>check_tag_ty</title>
<polygon fill="none" stroke="black" points="236.5,-863 27.5,-863 27.5,-827 236.5,-827 236.5,-863"/>
<text text-anchor="middle" x="132" y="-842.5" font-family="Courier,monospace" font-size="10.00">Check if union_ty has a tag type</text>
</g>
<!-- start&#45;&gt;check_tag_ty -->
<g id="edge1" class="edge">
<title>start&#45;&gt;check_tag_ty</title>
<path fill="none" stroke="black" d="M132,-899.81C132,-891.79 132,-882.05 132,-873.07"/>
<polygon fill="black" stroke="black" points="135.5,-873.03 132,-863.03 128.5,-873.03 135.5,-873.03"/>
</g>
<!-- err_no_tag -->
<g id="node3" class="node">
<title>err_no_tag</title>
<polygon fill="none" stroke="black" points="192,-726 0,-726 0,-690 192,-690 192,-726"/>
<text text-anchor="middle" x="96" y="-705.5" font-family="Courier,monospace" font-size="10.00">生成错误：无法将枚举转换为无标签联合</text>
</g>
<!-- check_tag_ty&#45;&gt;err_no_tag -->
<g id="edge2" class="edge">
<title>check_tag_ty&#45;&gt;err_no_tag</title>
<path fill="none" stroke="black" d="M122.59,-826.93C119.82,-821.35 117,-815.03 115,-809 107.08,-785.11 102.1,-756.86 99.23,-736.48"/>
<polygon fill="black" stroke="black" points="102.67,-735.79 97.88,-726.34 95.73,-736.71 102.67,-735.79"/>
<text text-anchor="middle" x="138" y="-801" font-family="Courier,monospace" font-size="10.00">无tag_ty</text>
</g>
<!-- coerce_enum -->
<g id="node4" class="node">
<title>coerce_enum</title>
<polygon fill="none" stroke="black" points="282.5,-780 127.5,-780 127.5,-744 282.5,-744 282.5,-780"/>
<text text-anchor="middle" x="205" y="-759.5" font-family="Courier,monospace" font-size="10.00">尝试将inst强制转换为tag_ty</text>
</g>
<!-- check_tag_ty&#45;&gt;coerce_enum -->
<g id="edge3" class="edge">
<title>check_tag_ty&#45;&gt;coerce_enum</title>
<path fill="none" stroke="black" d="M147.48,-826.82C157.74,-815.44 171.36,-800.33 182.77,-787.66"/>
<polygon fill="black" stroke="black" points="185.45,-789.92 189.54,-780.15 180.25,-785.24 185.45,-789.92"/>
<text text-anchor="middle" x="196" y="-801" font-family="Courier,monospace" font-size="10.00">有tag_ty</text>
</g>
<!-- end -->
<g id="node21" class="node">
<title>end</title>
<polygon fill="none" stroke="black" points="454,-36 400,-36 400,0 454,0 454,-36"/>
<text text-anchor="middle" x="427" y="-15.5" font-family="Courier,monospace" font-size="10.00">End</text>
</g>
<!-- err_no_tag&#45;&gt;end -->
<g id="edge20" class="edge">
<title>err_no_tag&#45;&gt;end</title>
<path fill="none" stroke="black" d="M93.86,-689.97C91.8,-672.08 89,-643.11 89,-618 89,-618 89,-618 89,-90 89,-29.07 302.03,-20.13 389.85,-19.04"/>
<polygon fill="black" stroke="black" points="389.95,-22.54 399.91,-18.94 389.88,-15.54 389.95,-22.54"/>
</g>
<!-- resolve_val -->
<g id="node5" class="node">
<title>resolve_val</title>
<polygon fill="none" stroke="black" points="282.5,-672 159.5,-672 159.5,-636 282.5,-636 282.5,-672"/>
<text text-anchor="middle" x="221" y="-651.5" font-family="Courier,monospace" font-size="10.00">尝试解析enum_tag的值</text>
</g>
<!-- coerce_enum&#45;&gt;resolve_val -->
<g id="edge4" class="edge">
<title>coerce_enum&#45;&gt;resolve_val</title>
<path fill="none" stroke="black" d="M207.57,-743.97C210.08,-727.38 213.92,-701.88 216.86,-682.43"/>
<polygon fill="black" stroke="black" points="220.35,-682.75 218.38,-672.34 213.43,-681.71 220.35,-682.75"/>
</g>
<!-- val_exists -->
<g id="node6" class="node">
<title>val_exists</title>
<polygon fill="none" stroke="black" points="274.5,-599 199.5,-599 199.5,-563 274.5,-563 274.5,-599"/>
<text text-anchor="middle" x="237" y="-578.5" font-family="Courier,monospace" font-size="10.00">值是否存在？</text>
</g>
<!-- resolve_val&#45;&gt;val_exists -->
<g id="edge5" class="edge">
<title>resolve_val&#45;&gt;val_exists</title>
<path fill="none" stroke="black" d="M224.87,-635.81C226.68,-627.79 228.88,-618.05 230.9,-609.07"/>
<polygon fill="black" stroke="black" points="234.38,-609.55 233.16,-599.03 227.55,-608.01 234.38,-609.55"/>
</g>
<!-- find_field_index -->
<g id="node7" class="node">
<title>find_field_index</title>
<polygon fill="none" stroke="black" points="304,-462 170,-462 170,-426 304,-426 304,-462"/>
<text text-anchor="middle" x="237" y="-441.5" font-family="Courier,monospace" font-size="10.00">查找联合中对应的字段索引</text>
</g>
<!-- val_exists&#45;&gt;find_field_index -->
<g id="edge6" class="edge">
<title>val_exists&#45;&gt;find_field_index</title>
<path fill="none" stroke="black" d="M237,-562.9C237,-540.1 237,-499.48 237,-472.39"/>
<polygon fill="black" stroke="black" points="240.5,-472.39 237,-462.39 233.5,-472.39 240.5,-472.39"/>
<text text-anchor="middle" x="247" y="-537" font-family="Courier,monospace" font-size="10.00">存在</text>
</g>
<!-- require_runtime_block -->
<g id="node13" class="node">
<title>require_runtime_block</title>
<polygon fill="none" stroke="black" points="348.5,-516 273.5,-516 273.5,-480 348.5,-480 348.5,-516"/>
<text text-anchor="middle" x="311" y="-495.5" font-family="Courier,monospace" font-size="10.00">需要运行时块</text>
</g>
<!-- val_exists&#45;&gt;require_runtime_block -->
<g id="edge7" class="edge">
<title>val_exists&#45;&gt;require_runtime_block</title>
<path fill="none" stroke="black" d="M252.69,-562.82C263.09,-551.44 276.9,-536.33 288.47,-523.66"/>
<polygon fill="black" stroke="black" points="291.17,-525.9 295.33,-516.15 286,-521.18 291.17,-525.9"/>
<text text-anchor="middle" x="293" y="-537" font-family="Courier,monospace" font-size="10.00">不存在</text>
</g>
<!-- check_noreturn -->
<g id="node8" class="node">
<title>check_noreturn</title>
<polygon fill="none" stroke="black" points="308.5,-325 165.5,-325 165.5,-289 308.5,-289 308.5,-325"/>
<text text-anchor="middle" x="237" y="-304.5" font-family="Courier,monospace" font-size="10.00">字段类型是否为noreturn？</text>
</g>
<!-- find_field_index&#45;&gt;check_noreturn -->
<g id="edge8" class="edge">
<title>find_field_index&#45;&gt;check_noreturn</title>
<path fill="none" stroke="black" d="M237,-425.9C237,-403.1 237,-362.48 237,-335.39"/>
<polygon fill="black" stroke="black" points="240.5,-335.39 237,-325.39 233.5,-335.39 240.5,-335.39"/>
<text text-anchor="middle" x="257" y="-387.5" font-family="Courier,monospace" font-size="10.00">找到索引</text>
</g>
<!-- err_noreturn -->
<g id="node9" class="node">
<title>err_noreturn</title>
<polygon fill="none" stroke="black" points="286,-163 104,-163 104,-127 286,-127 286,-163"/>
<text text-anchor="middle" x="195" y="-142.5" font-family="Courier,monospace" font-size="10.00">生成错误：无法初始化noreturn字段</text>
</g>
<!-- check_noreturn&#45;&gt;err_noreturn -->
<g id="edge9" class="edge">
<title>check_noreturn&#45;&gt;err_noreturn</title>
<path fill="none" stroke="black" d="M232.51,-288.88C225.25,-261.23 210.89,-206.54 202.2,-173.42"/>
<polygon fill="black" stroke="black" points="205.51,-172.27 199.59,-163.48 198.74,-174.05 205.51,-172.27"/>
<text text-anchor="middle" x="232" y="-250.5" font-family="Courier,monospace" font-size="10.00">是</text>
</g>
<!-- check_one_possible_value -->
<g id="node10" class="node">
<title>check_one_possible_value</title>
<polygon fill="none" stroke="black" points="376,-217 242,-217 242,-181 376,-181 376,-217"/>
<text text-anchor="middle" x="309" y="-196.5" font-family="Courier,monospace" font-size="10.00">字段是否有唯一可能的值？</text>
</g>
<!-- check_noreturn&#45;&gt;check_one_possible_value -->
<g id="edge10" class="edge">
<title>check_noreturn&#45;&gt;check_one_possible_value</title>
<path fill="none" stroke="black" d="M248.57,-288.97C260.15,-271.92 278.12,-245.46 291.46,-225.82"/>
<polygon fill="black" stroke="black" points="294.5,-227.58 297.22,-217.34 288.71,-223.65 294.5,-227.58"/>
<text text-anchor="middle" x="288" y="-250.5" font-family="Courier,monospace" font-size="10.00">否</text>
</g>
<!-- err_noreturn&#45;&gt;end -->
<g id="edge21" class="edge">
<title>err_noreturn&#45;&gt;end</title>
<path fill="none" stroke="black" d="M161.78,-126.9C155.43,-122.02 149.64,-116.06 146,-109 138.68,-94.77 135.81,-85.34 146,-73 176.55,-36.03 320.87,-24.11 389.96,-20.48"/>
<polygon fill="black" stroke="black" points="390.17,-23.98 399.98,-19.99 389.82,-16.98 390.17,-23.98"/>
</g>
<!-- err_need_init -->
<g id="node11" class="node">
<title>err_need_init</title>
<polygon fill="none" stroke="black" points="289,-109 155,-109 155,-73 289,-73 289,-109"/>
<text text-anchor="middle" x="222" y="-88.5" font-family="Courier,monospace" font-size="10.00">生成错误：必须初始化字段</text>
</g>
<!-- check_one_possible_value&#45;&gt;err_need_init -->
<g id="edge11" class="edge">
<title>check_one_possible_value&#45;&gt;err_need_init</title>
<path fill="none" stroke="black" d="M307.36,-180.78C305.1,-165.21 299.71,-142.44 287,-127 283.19,-122.37 278.6,-118.27 273.65,-114.65"/>
<polygon fill="black" stroke="black" points="275.33,-111.56 265.04,-109.01 271.49,-117.42 275.33,-111.56"/>
<text text-anchor="middle" x="308" y="-142.5" font-family="Courier,monospace" font-size="10.00">否</text>
</g>
<!-- return_opv -->
<g id="node12" class="node">
<title>return_opv</title>
<polygon fill="none" stroke="black" points="420.5,-109 307.5,-109 307.5,-73 420.5,-73 420.5,-109"/>
<text text-anchor="middle" x="364" y="-88.5" font-family="Courier,monospace" font-size="10.00">返回联合值的Air引用</text>
</g>
<!-- check_one_possible_value&#45;&gt;return_opv -->
<g id="edge12" class="edge">
<title>check_one_possible_value&#45;&gt;return_opv</title>
<path fill="none" stroke="black" d="M317.84,-180.97C326.6,-164.07 340.17,-137.94 350.32,-118.36"/>
<polygon fill="black" stroke="black" points="353.5,-119.83 355,-109.34 347.29,-116.6 353.5,-119.83"/>
<text text-anchor="middle" x="349" y="-142.5" font-family="Courier,monospace" font-size="10.00">是</text>
</g>
<!-- err_need_init&#45;&gt;end -->
<g id="edge22" class="edge">
<title>err_need_init&#45;&gt;end</title>
<path fill="none" stroke="black" d="M271.1,-72.99C307.71,-60.32 356.92,-43.27 390.18,-31.75"/>
<polygon fill="black" stroke="black" points="391.66,-34.94 399.96,-28.36 389.37,-28.33 391.66,-34.94"/>
</g>
<!-- return_opv&#45;&gt;end -->
<g id="edge26" class="edge">
<title>return_opv&#45;&gt;end</title>
<path fill="none" stroke="black" d="M379.25,-72.81C386.99,-64.09 396.53,-53.34 405.04,-43.75"/>
<polygon fill="black" stroke="black" points="407.87,-45.83 411.89,-36.03 402.63,-41.19 407.87,-45.83"/>
</g>
<!-- check_nonexhaustive -->
<g id="node14" class="node">
<title>check_nonexhaustive</title>
<polygon fill="none" stroke="black" points="516,-408 376,-408 376,-372 516,-372 516,-408"/>
<text text-anchor="middle" x="446" y="-387.5" font-family="Courier,monospace" font-size="10.00">tag_ty是否为非穷举枚举？</text>
</g>
<!-- require_runtime_block&#45;&gt;check_nonexhaustive -->
<g id="edge13" class="edge">
<title>require_runtime_block&#45;&gt;check_nonexhaustive</title>
<path fill="none" stroke="black" d="M332.69,-479.97C355.19,-462.3 390.55,-434.54 415.78,-414.73"/>
<polygon fill="black" stroke="black" points="418.21,-417.27 423.92,-408.34 413.89,-411.76 418.21,-417.27"/>
</g>
<!-- err_nonexhaustive -->
<g id="node15" class="node">
<title>err_nonexhaustive</title>
<polygon fill="none" stroke="black" points="527.5,-271 364.5,-271 364.5,-235 527.5,-235 527.5,-271"/>
<text text-anchor="middle" x="446" y="-250.5" font-family="Courier,monospace" font-size="10.00">生成错误：运行时转换非穷举枚举</text>
</g>
<!-- check_nonexhaustive&#45;&gt;err_nonexhaustive -->
<g id="edge14" class="edge">
<title>check_nonexhaustive&#45;&gt;err_nonexhaustive</title>
<path fill="none" stroke="black" d="M446,-371.9C446,-349.1 446,-308.48 446,-281.39"/>
<polygon fill="black" stroke="black" points="449.5,-281.39 446,-271.39 442.5,-281.39 449.5,-281.39"/>
<text text-anchor="middle" x="451" y="-346" font-family="Courier,monospace" font-size="10.00">是</text>
</g>
<!-- check_noreturn_fields -->
<g id="node16" class="node">
<title>check_noreturn_fields</title>
<polygon fill="none" stroke="black" points="627,-325 475,-325 475,-289 627,-289 627,-325"/>
<text text-anchor="middle" x="551" y="-304.5" font-family="Courier,monospace" font-size="10.00">检查联合是否有noreturn字段</text>
</g>
<!-- check_nonexhaustive&#45;&gt;check_noreturn_fields -->
<g id="edge15" class="edge">
<title>check_nonexhaustive&#45;&gt;check_noreturn_fields</title>
<path fill="none" stroke="black" d="M468.27,-371.82C483.44,-360.12 503.73,-344.47 520.41,-331.6"/>
<polygon fill="black" stroke="black" points="522.98,-334.03 528.76,-325.15 518.71,-328.49 522.98,-334.03"/>
<text text-anchor="middle" x="509" y="-346" font-family="Courier,monospace" font-size="10.00">否</text>
</g>
<!-- err_nonexhaustive&#45;&gt;end -->
<g id="edge23" class="edge">
<title>err_nonexhaustive&#45;&gt;end</title>
<path fill="none" stroke="black" d="M444.6,-234.87C441.34,-194.81 433.18,-94.75 429.22,-46.23"/>
<polygon fill="black" stroke="black" points="432.7,-45.84 428.4,-36.16 425.72,-46.41 432.7,-45.84"/>
</g>
<!-- err_has_noreturn -->
<g id="node17" class="node">
<title>err_has_noreturn</title>
<polygon fill="none" stroke="black" points="635,-163 463,-163 463,-127 635,-127 635,-163"/>
<text text-anchor="middle" x="549" y="-142.5" font-family="Courier,monospace" font-size="10.00">生成错误：联合包含noreturn字段</text>
</g>
<!-- check_noreturn_fields&#45;&gt;err_has_noreturn -->
<g id="edge16" class="edge">
<title>check_noreturn_fields&#45;&gt;err_has_noreturn</title>
<path fill="none" stroke="black" d="M550.79,-288.88C550.44,-261.35 549.76,-207.01 549.35,-173.85"/>
<polygon fill="black" stroke="black" points="552.84,-173.44 549.22,-163.48 545.84,-173.53 552.84,-173.44"/>
<text text-anchor="middle" x="584" y="-250.5" font-family="Courier,monospace" font-size="10.00">存在noreturn</text>
</g>
<!-- check_zero_bit_fields -->
<g id="node18" class="node">
<title>check_zero_bit_fields</title>
<polygon fill="none" stroke="black" points="720,-217 596,-217 596,-181 720,-181 720,-217"/>
<text text-anchor="middle" x="658" y="-196.5" font-family="Courier,monospace" font-size="10.00">联合是否全零比特字段？</text>
</g>
<!-- check_noreturn_fields&#45;&gt;check_zero_bit_fields -->
<g id="edge17" class="edge">
<title>check_noreturn_fields&#45;&gt;check_zero_bit_fields</title>
<path fill="none" stroke="black" d="M597.75,-288.88C606.86,-284.07 615.81,-278.15 623,-271 635.35,-258.72 644.05,-241.19 649.69,-226.63"/>
<polygon fill="black" stroke="black" points="653.02,-227.71 653.11,-217.12 646.43,-225.34 653.02,-227.71"/>
<text text-anchor="middle" x="675" y="-250.5" font-family="Courier,monospace" font-size="10.00">无noreturn</text>
</g>
<!-- err_has_noreturn&#45;&gt;end -->
<g id="edge24" class="edge">
<title>err_has_noreturn&#45;&gt;end</title>
<path fill="none" stroke="black" d="M527.5,-126.89C521.01,-121.4 514.02,-115.15 508,-109 485.9,-86.43 484.36,-77.27 463,-54 459.71,-50.42 456.14,-46.73 452.58,-43.16"/>
<polygon fill="black" stroke="black" points="454.93,-40.57 445.35,-36.06 450.03,-45.56 454.93,-40.57"/>
</g>
<!-- return_bitcast -->
<g id="node19" class="node">
<title>return_bitcast</title>
<polygon fill="none" stroke="black" points="601.5,-109 516.5,-109 516.5,-73 601.5,-73 601.5,-109"/>
<text text-anchor="middle" x="559" y="-88.5" font-family="Courier,monospace" font-size="10.00">返回位转换结果</text>
</g>
<!-- check_zero_bit_fields&#45;&gt;return_bitcast -->
<g id="edge18" class="edge">
<title>check_zero_bit_fields&#45;&gt;return_bitcast</title>
<path fill="none" stroke="black" d="M656.64,-180.88C654.57,-165.16 649.31,-142.1 636,-127 631.9,-122.35 622.13,-116.96 610.88,-111.82"/>
<polygon fill="black" stroke="black" points="612.18,-108.57 601.61,-107.78 609.38,-114.99 612.18,-108.57"/>
<text text-anchor="middle" x="658" y="-142.5" font-family="Courier,monospace" font-size="10.00">是</text>
</g>
<!-- err_non_void_fields -->
<g id="node20" class="node">
<title>err_non_void_fields</title>
<polygon fill="none" stroke="black" points="762.5,-109 619.5,-109 619.5,-73 762.5,-73 762.5,-109"/>
<text text-anchor="middle" x="691" y="-88.5" font-family="Courier,monospace" font-size="10.00">生成错误：联合存在非空字段</text>
</g>
<!-- check_zero_bit_fields&#45;&gt;err_non_void_fields -->
<g id="edge19" class="edge">
<title>check_zero_bit_fields&#45;&gt;err_non_void_fields</title>
<path fill="none" stroke="black" d="M663.38,-180.91C665.18,-175.22 667.18,-168.84 669,-163 673.52,-148.52 678.53,-132.36 682.62,-119.12"/>
<polygon fill="black" stroke="black" points="686.07,-119.81 685.68,-109.22 679.39,-117.74 686.07,-119.81"/>
<text text-anchor="middle" x="684" y="-142.5" font-family="Courier,monospace" font-size="10.00">否</text>
</g>
<!-- return_bitcast&#45;&gt;end -->
<g id="edge27" class="edge">
<title>return_bitcast&#45;&gt;end</title>
<path fill="none" stroke="black" d="M533.59,-72.99C523.87,-66.74 512.58,-59.78 502,-54 489.64,-47.25 475.75,-40.54 463.31,-34.82"/>
<polygon fill="black" stroke="black" points="464.69,-31.6 454.14,-30.66 461.8,-37.98 464.69,-31.6"/>
</g>
<!-- err_non_void_fields&#45;&gt;end -->
<g id="edge25" class="edge">
<title>err_non_void_fields&#45;&gt;end</title>
<path fill="none" stroke="black" d="M627.77,-72.99C576.61,-59.24 506.34,-40.34 463.94,-28.93"/>
<polygon fill="black" stroke="black" points="464.61,-25.49 454.04,-26.27 462.79,-32.25 464.61,-25.49"/>
</g>
</g>
</svg>
