<?xml version="1.0" encoding="UTF-8" standalone="no"?>
<!DOCTYPE svg PUBLIC "-//W3C//DTD SVG 1.1//EN"
 "http://www.w3.org/Graphics/SVG/1.1/DTD/svg11.dtd">
<!-- Generated by graphviz version 2.43.0 (0)
 -->
<!-- Title: flowchart Pages: 1 -->
<svg width="574pt" height="668pt"
 viewBox="0.00 0.00 574.00 668.00" xmlns="http://www.w3.org/2000/svg" xmlns:xlink="http://www.w3.org/1999/xlink">
<g id="graph0" class="graph" transform="scale(1 1) rotate(0) translate(4 664)">
<title>flowchart</title>
<polygon fill="white" stroke="transparent" points="-4,4 -4,-664 570,-664 570,4 -4,4"/>
<!-- start -->
<g id="node1" class="node">
<title>start</title>
<polygon fill="none" stroke="black" points="516.5,-660 331.5,-660 331.5,-624 516.5,-624 516.5,-660"/>
<text text-anchor="middle" x="424" y="-639.5" font-family="Courier,monospace" font-size="10.00">开始: 初始化跟踪信息，解析指令数据</text>
</g>
<!-- resolve_operand -->
<g id="node2" class="node">
<title>resolve_operand</title>
<polygon fill="none" stroke="black" points="471.5,-587 376.5,-587 376.5,-551 471.5,-551 471.5,-587"/>
<text text-anchor="middle" x="424" y="-566.5" font-family="Courier,monospace" font-size="10.00">解析操作数和类型</text>
</g>
<!-- start&#45;&gt;resolve_operand -->
<g id="edge1" class="edge">
<title>start&#45;&gt;resolve_operand</title>
<path fill="none" stroke="black" d="M424,-623.81C424,-615.79 424,-606.05 424,-597.07"/>
<polygon fill="black" stroke="black" points="427.5,-597.03 424,-587.03 420.5,-597.03 427.5,-597.03"/>
</g>
<!-- check_continue -->
<g id="node3" class="node">
<title>check_continue</title>
<polygon fill="none" stroke="black" points="403,-514 231,-514 231,-478 403,-478 403,-514"/>
<text text-anchor="middle" x="317" y="-493.5" font-family="Courier,monospace" font-size="10.00">检查是否有continue和运行时情况</text>
</g>
<!-- resolve_operand&#45;&gt;check_continue -->
<g id="edge2" class="edge">
<title>resolve_operand&#45;&gt;check_continue</title>
<path fill="none" stroke="black" d="M398.37,-550.99C384.31,-541.67 366.69,-529.97 351.45,-519.86"/>
<polygon fill="black" stroke="black" points="353.06,-516.73 342.79,-514.11 349.19,-522.56 353.06,-516.73"/>
</g>
<!-- end -->
<g id="node9" class="node">
<title>end</title>
<polygon fill="none" stroke="black" points="265.5,-36 180.5,-36 180.5,0 265.5,0 265.5,-36"/>
<text text-anchor="middle" x="223" y="-15.5" font-family="Courier,monospace" font-size="10.00">返回结果或错误</text>
</g>
<!-- resolve_operand&#45;&gt;end -->
<g id="edge14" class="edge">
<title>resolve_operand&#45;&gt;end</title>
<path fill="none" stroke="red" stroke-dasharray="5,2" d="M458.36,-550.86C477.3,-538.76 497,-520.51 497,-497 497,-497 497,-497 497,-90 497,-44.79 355.47,-27.89 275.84,-21.96"/>
<polygon fill="red" stroke="red" points="275.73,-18.45 265.51,-21.23 275.24,-25.43 275.73,-18.45"/>
<text text-anchor="middle" x="531.5" y="-296" font-family="Courier,monospace" font-size="10.00">操作数类型错误</text>
</g>
<!-- handle_union_errset -->
<g id="node4" class="node">
<title>handle_union_errset</title>
<polygon fill="none" stroke="black" points="247,-431 117,-431 117,-395 247,-395 247,-431"/>
<text text-anchor="middle" x="182" y="-410.5" font-family="Courier,monospace" font-size="10.00">处理联合体/错误集合类型</text>
</g>
<!-- check_continue&#45;&gt;handle_union_errset -->
<g id="edge3" class="edge">
<title>check_continue&#45;&gt;handle_union_errset</title>
<path fill="none" stroke="black" d="M230.93,-482.97C217.19,-477.76 204.17,-470.4 194,-460 189.04,-454.93 186.05,-448.07 184.28,-441.2"/>
<polygon fill="black" stroke="black" points="187.72,-440.53 182.46,-431.34 180.83,-441.81 187.72,-440.53"/>
<text text-anchor="middle" x="231.5" y="-452" font-family="Courier,monospace" font-size="10.00">联合体/错误集合</text>
</g>
<!-- process_cases -->
<g id="node5" class="node">
<title>process_cases</title>
<polygon fill="none" stroke="black" points="311.5,-358 112.5,-358 112.5,-322 311.5,-322 311.5,-358"/>
<text text-anchor="middle" x="212" y="-337.5" font-family="Courier,monospace" font-size="10.00">处理各种case类型（枚举/整数/布尔等）</text>
</g>
<!-- check_continue&#45;&gt;process_cases -->
<g id="edge4" class="edge">
<title>check_continue&#45;&gt;process_cases</title>
<path fill="none" stroke="black" d="M307.53,-477.92C296.08,-457.65 275.85,-423.06 256,-395 249.05,-385.17 240.85,-374.83 233.43,-365.85"/>
<polygon fill="black" stroke="black" points="235.99,-363.46 226.89,-358.04 230.63,-367.95 235.99,-363.46"/>
<text text-anchor="middle" x="299" y="-410.5" font-family="Courier,monospace" font-size="10.00">其他类型</text>
</g>
<!-- check_continue&#45;&gt;end -->
<g id="edge15" class="edge">
<title>check_continue&#45;&gt;end</title>
<path fill="none" stroke="red" stroke-dasharray="5,2" d="M328.89,-477.86C338.7,-462.03 351,-437.49 351,-414 351,-414 351,-414 351,-90 351,-53.53 310.78,-35.64 275.43,-26.95"/>
<polygon fill="red" stroke="red" points="276.15,-23.53 265.62,-24.74 274.61,-30.36 276.15,-23.53"/>
<text text-anchor="middle" x="410" y="-254.5" font-family="Courier,monospace" font-size="10.00">comptime&#45;only类型错误</text>
</g>
<!-- handle_union_errset&#45;&gt;process_cases -->
<g id="edge5" class="edge">
<title>handle_union_errset&#45;&gt;process_cases</title>
<path fill="none" stroke="black" d="M189.26,-394.81C192.73,-386.62 196.95,-376.62 200.81,-367.48"/>
<polygon fill="black" stroke="black" points="204.14,-368.6 204.8,-358.03 197.69,-365.88 204.14,-368.6"/>
</g>
<!-- validate_cases -->
<g id="node6" class="node">
<title>validate_cases</title>
<polygon fill="none" stroke="black" points="249.5,-275 70.5,-275 70.5,-239 249.5,-239 249.5,-275"/>
<text text-anchor="middle" x="160" y="-254.5" font-family="Courier,monospace" font-size="10.00">验证case合法性（重复/遗漏/范围）</text>
</g>
<!-- process_cases&#45;&gt;validate_cases -->
<g id="edge6" class="edge">
<title>process_cases&#45;&gt;validate_cases</title>
<path fill="none" stroke="black" d="M113.19,-321.86C105.43,-317.19 98.48,-311.33 93,-304 86.27,-295 90.21,-287.15 98.84,-280.6"/>
<polygon fill="black" stroke="black" points="100.87,-283.46 107.48,-275.18 97.15,-277.53 100.87,-283.46"/>
<text text-anchor="middle" x="113" y="-296" font-family="Courier,monospace" font-size="10.00">枚举类型</text>
</g>
<!-- process_cases&#45;&gt;validate_cases -->
<g id="edge7" class="edge">
<title>process_cases&#45;&gt;validate_cases</title>
<path fill="none" stroke="black" d="M173,-321.94C166.18,-317.15 160,-311.22 156,-304 152.84,-298.29 152.09,-291.57 152.54,-285.05"/>
<polygon fill="black" stroke="black" points="156,-285.56 154.06,-275.14 149.08,-284.5 156,-285.56"/>
<text text-anchor="middle" x="176" y="-296" font-family="Courier,monospace" font-size="10.00">整数类型</text>
</g>
<!-- process_cases&#45;&gt;validate_cases -->
<g id="edge8" class="edge">
<title>process_cases&#45;&gt;validate_cases</title>
<path fill="none" stroke="black" d="M208.12,-321.98C205.56,-312.91 201.63,-301.84 196,-293 193.68,-289.36 190.91,-285.82 187.96,-282.48"/>
<polygon fill="black" stroke="black" points="190.29,-279.86 180.84,-275.08 185.25,-284.71 190.29,-279.86"/>
<text text-anchor="middle" x="222" y="-296" font-family="Courier,monospace" font-size="10.00">布尔类型</text>
</g>
<!-- process_cases&#45;&gt;validate_cases -->
<g id="edge9" class="edge">
<title>process_cases&#45;&gt;validate_cases</title>
<path fill="none" stroke="black" d="M236.69,-321.79C245.83,-313.26 252.54,-302.72 246,-293 242.98,-288.52 239.28,-284.61 235.13,-281.2"/>
<polygon fill="black" stroke="black" points="236.84,-278.12 226.65,-275.24 232.82,-283.85 236.84,-278.12"/>
<text text-anchor="middle" x="268" y="-296" font-family="Courier,monospace" font-size="10.00">其他类型</text>
</g>
<!-- generate_air -->
<g id="node7" class="node">
<title>generate_air</title>
<polygon fill="none" stroke="black" points="132,-192 0,-192 0,-156 132,-156 132,-192"/>
<text text-anchor="middle" x="66" y="-171.5" font-family="Courier,monospace" font-size="10.00">生成中间代码（Air指令）</text>
</g>
<!-- validate_cases&#45;&gt;generate_air -->
<g id="edge10" class="edge">
<title>validate_cases&#45;&gt;generate_air</title>
<path fill="none" stroke="black" d="M130.35,-238.89C122.12,-233.6 113.42,-227.45 106,-221 98.88,-214.82 91.87,-207.36 85.75,-200.27"/>
<polygon fill="black" stroke="black" points="88.13,-197.65 79.03,-192.21 82.75,-202.14 88.13,-197.65"/>
<text text-anchor="middle" x="126" y="-213" font-family="Courier,monospace" font-size="10.00">验证通过</text>
</g>
<!-- validate_cases&#45;&gt;end -->
<g id="edge11" class="edge">
<title>validate_cases&#45;&gt;end</title>
<path fill="none" stroke="black" stroke-dasharray="5,2" d="M157.43,-238.93C154.25,-213.88 150.46,-165.91 161,-127 169.31,-96.32 188.52,-65.27 203.37,-44.38"/>
<polygon fill="black" stroke="black" points="206.36,-46.22 209.42,-36.08 200.7,-42.1 206.36,-46.22"/>
<text text-anchor="middle" x="181" y="-130" font-family="Courier,monospace" font-size="10.00">发现错误</text>
</g>
<!-- validate_cases&#45;&gt;end -->
<g id="edge16" class="edge">
<title>validate_cases&#45;&gt;end</title>
<path fill="none" stroke="red" stroke-dasharray="5,2" d="M166.95,-238.66C175.88,-215.88 191.35,-174.48 201,-138 209.24,-106.86 215.5,-70.34 219.2,-46.05"/>
<polygon fill="red" stroke="red" points="222.66,-46.53 220.67,-36.13 215.74,-45.51 222.66,-46.53"/>
<text text-anchor="middle" x="260.5" y="-130" font-family="Courier,monospace" font-size="10.00">缺少else分支/重复case</text>
</g>
<!-- handle_merges -->
<g id="node8" class="node">
<title>handle_merges</title>
<polygon fill="none" stroke="black" points="125.5,-109 40.5,-109 40.5,-73 125.5,-73 125.5,-109"/>
<text text-anchor="middle" x="83" y="-88.5" font-family="Courier,monospace" font-size="10.00">处理代码块合并</text>
</g>
<!-- generate_air&#45;&gt;handle_merges -->
<g id="edge12" class="edge">
<title>generate_air&#45;&gt;handle_merges</title>
<path fill="none" stroke="black" d="M69.61,-155.82C71.84,-145.19 74.75,-131.31 77.29,-119.2"/>
<polygon fill="black" stroke="black" points="80.77,-119.66 79.4,-109.15 73.92,-118.22 80.77,-119.66"/>
</g>
<!-- handle_merges&#45;&gt;end -->
<g id="edge13" class="edge">
<title>handle_merges&#45;&gt;end</title>
<path fill="none" stroke="black" d="M111.55,-72.94C122.24,-66.76 134.56,-59.85 146,-54 155.02,-49.39 164.77,-44.72 174.21,-40.36"/>
<polygon fill="black" stroke="black" points="175.85,-43.45 183.49,-36.11 172.94,-37.08 175.85,-43.45"/>
</g>
</g>
</svg>
