<?xml version="1.0" encoding="UTF-8" standalone="no"?>
<!DOCTYPE svg PUBLIC "-//W3C//DTD SVG 1.1//EN"
 "http://www.w3.org/Graphics/SVG/1.1/DTD/svg11.dtd">
<!-- Generated by graphviz version 2.43.0 (0)
 -->
<!-- Title: flowchart Pages: 1 -->
<svg width="561pt" height="1171pt"
 viewBox="0.00 0.00 561.28 1171.00" xmlns="http://www.w3.org/2000/svg" xmlns:xlink="http://www.w3.org/1999/xlink">
<g id="graph0" class="graph" transform="scale(1 1) rotate(0) translate(4 1167)">
<title>flowchart</title>
<polygon fill="white" stroke="transparent" points="-4,4 -4,-1167 557.28,-1167 557.28,4 -4,4"/>
<!-- start -->
<g id="node1" class="node">
<title>start</title>
<path fill="none" stroke="black" d="M317.28,-1163C317.28,-1163 287.28,-1163 287.28,-1163 281.28,-1163 275.28,-1157 275.28,-1151 275.28,-1151 275.28,-1139 275.28,-1139 275.28,-1133 281.28,-1127 287.28,-1127 287.28,-1127 317.28,-1127 317.28,-1127 323.28,-1127 329.28,-1133 329.28,-1139 329.28,-1139 329.28,-1151 329.28,-1151 329.28,-1157 323.28,-1163 317.28,-1163"/>
<text text-anchor="middle" x="302.28" y="-1141.3" font-family="Arial" font-size="14.00">开始</text>
</g>
<!-- init_vars -->
<g id="node2" class="node">
<title>init_vars</title>
<path fill="none" stroke="black" d="M397.78,-1090C397.78,-1090 206.78,-1090 206.78,-1090 200.78,-1090 194.78,-1084 194.78,-1078 194.78,-1078 194.78,-1066 194.78,-1066 194.78,-1060 200.78,-1054 206.78,-1054 206.78,-1054 397.78,-1054 397.78,-1054 403.78,-1054 409.78,-1060 409.78,-1066 409.78,-1066 409.78,-1078 409.78,-1078 409.78,-1084 403.78,-1090 397.78,-1090"/>
<text text-anchor="middle" x="302.28" y="-1068.3" font-family="Arial" font-size="14.00">初始化types, values, names数组</text>
</g>
<!-- start&#45;&gt;init_vars -->
<g id="edge1" class="edge">
<title>start&#45;&gt;init_vars</title>
<path fill="none" stroke="black" d="M302.28,-1126.81C302.28,-1118.79 302.28,-1109.05 302.28,-1100.07"/>
<polygon fill="black" stroke="black" points="305.78,-1100.03 302.28,-1090.03 298.78,-1100.03 305.78,-1100.03"/>
</g>
<!-- loop_start -->
<g id="node3" class="node">
<title>loop_start</title>
<path fill="none" stroke="black" d="M355.78,-1017C355.78,-1017 248.78,-1017 248.78,-1017 242.78,-1017 236.78,-1011 236.78,-1005 236.78,-1005 236.78,-993 236.78,-993 236.78,-987 242.78,-981 248.78,-981 248.78,-981 355.78,-981 355.78,-981 361.78,-981 367.78,-987 367.78,-993 367.78,-993 367.78,-1005 367.78,-1005 367.78,-1011 361.78,-1017 355.78,-1017"/>
<text text-anchor="middle" x="302.28" y="-995.3" font-family="Arial" font-size="14.00">循环处理每个字段</text>
</g>
<!-- init_vars&#45;&gt;loop_start -->
<g id="edge2" class="edge">
<title>init_vars&#45;&gt;loop_start</title>
<path fill="none" stroke="black" d="M302.28,-1053.81C302.28,-1045.79 302.28,-1036.05 302.28,-1027.07"/>
<polygon fill="black" stroke="black" points="305.78,-1027.03 302.28,-1017.03 298.78,-1027.03 305.78,-1027.03"/>
</g>
<!-- extract_field -->
<g id="node4" class="node">
<title>extract_field</title>
<path fill="none" stroke="black" d="M323.28,-944C323.28,-944 159.28,-944 159.28,-944 153.28,-944 147.28,-938 147.28,-932 147.28,-932 147.28,-920 147.28,-920 147.28,-914 153.28,-908 159.28,-908 159.28,-908 323.28,-908 323.28,-908 329.28,-908 335.28,-914 335.28,-920 335.28,-920 335.28,-932 335.28,-932 335.28,-938 329.28,-944 323.28,-944"/>
<text text-anchor="middle" x="241.28" y="-922.3" font-family="Arial" font-size="14.00">提取字段名和初始化表达式</text>
</g>
<!-- loop_start&#45;&gt;extract_field -->
<g id="edge3" class="edge">
<title>loop_start&#45;&gt;extract_field</title>
<path fill="none" stroke="black" d="M287.51,-980.81C280.02,-972.09 270.78,-961.34 262.54,-951.75"/>
<polygon fill="black" stroke="black" points="265.08,-949.33 255.91,-944.03 259.77,-953.89 265.08,-949.33"/>
</g>
<!-- resolve_type_value -->
<g id="node5" class="node">
<title>resolve_type_value</title>
<path fill="none" stroke="black" d="M294.78,-871C294.78,-871 187.78,-871 187.78,-871 181.78,-871 175.78,-865 175.78,-859 175.78,-859 175.78,-847 175.78,-847 175.78,-841 181.78,-835 187.78,-835 187.78,-835 294.78,-835 294.78,-835 300.78,-835 306.78,-841 306.78,-847 306.78,-847 306.78,-859 306.78,-859 306.78,-865 300.78,-871 294.78,-871"/>
<text text-anchor="middle" x="241.28" y="-849.3" font-family="Arial" font-size="14.00">解析字段类型和值</text>
</g>
<!-- extract_field&#45;&gt;resolve_type_value -->
<g id="edge4" class="edge">
<title>extract_field&#45;&gt;resolve_type_value</title>
<path fill="none" stroke="black" d="M241.28,-907.81C241.28,-899.79 241.28,-890.05 241.28,-881.07"/>
<polygon fill="black" stroke="black" points="244.78,-881.03 241.28,-871.03 237.78,-881.03 244.78,-881.03"/>
</g>
<!-- check_opaque -->
<g id="node6" class="node">
<title>check_opaque</title>
<path fill="none" stroke="black" d="M309.78,-784C309.78,-784 172.78,-784 172.78,-784 166.78,-784 160.78,-778 160.78,-772 160.78,-772 160.78,-760 160.78,-760 160.78,-754 166.78,-748 172.78,-748 172.78,-748 309.78,-748 309.78,-748 315.78,-748 321.78,-754 321.78,-760 321.78,-760 321.78,-772 321.78,-772 321.78,-778 315.78,-784 309.78,-784"/>
<text text-anchor="middle" x="241.28" y="-762.3" font-family="Arial" font-size="14.00">检查是否为opaque类型</text>
</g>
<!-- resolve_type_value&#45;&gt;check_opaque -->
<g id="edge5" class="edge">
<title>resolve_type_value&#45;&gt;check_opaque</title>
<path fill="none" stroke="black" d="M241.28,-834.8C241.28,-823.16 241.28,-807.55 241.28,-794.24"/>
<polygon fill="black" stroke="black" points="244.78,-794.18 241.28,-784.18 237.78,-794.18 244.78,-794.18"/>
</g>
<!-- opaque_error -->
<g id="node7" class="node">
<title>opaque_error</title>
<path fill="none" stroke="black" d="M121.39,-641.39C121.39,-641.39 12.11,-626.61 12.11,-626.61 6.17,-625.8 6.17,-624.2 12.11,-623.39 12.11,-623.39 121.39,-608.61 121.39,-608.61 127.33,-607.8 139.22,-607.8 145.17,-608.61 145.17,-608.61 254.44,-623.39 254.44,-623.39 260.39,-624.2 260.39,-625.8 254.44,-626.61 254.44,-626.61 145.17,-641.39 145.17,-641.39 139.22,-642.2 127.33,-642.2 121.39,-641.39"/>
<text text-anchor="middle" x="133.28" y="-621.3" font-family="Arial" font-size="14.00">生成错误消息并返回</text>
</g>
<!-- check_opaque&#45;&gt;opaque_error -->
<g id="edge6" class="edge">
<title>check_opaque&#45;&gt;opaque_error</title>
<path fill="none" stroke="black" d="M209.35,-747.87C190.13,-736.01 166.66,-718.49 152.28,-697 143.57,-683.99 138.84,-667.14 136.28,-653.11"/>
<polygon fill="black" stroke="black" points="139.71,-652.4 134.72,-643.06 132.8,-653.47 139.71,-652.4"/>
<text text-anchor="middle" x="191.78" y="-718.8" font-family="Arial" font-size="14.00">是</text>
</g>
<!-- record_runtime -->
<g id="node8" class="node">
<title>record_runtime</title>
<path fill="none" stroke="black" d="M322.78,-697C322.78,-697 173.78,-697 173.78,-697 167.78,-697 161.78,-691 161.78,-685 161.78,-685 161.78,-673 161.78,-673 161.78,-667 167.78,-661 173.78,-661 173.78,-661 322.78,-661 322.78,-661 328.78,-661 334.78,-667 334.78,-673 334.78,-673 334.78,-685 334.78,-685 334.78,-691 328.78,-697 322.78,-697"/>
<text text-anchor="middle" x="248.28" y="-675.3" font-family="Arial" font-size="14.00">记录运行时索引（如有）</text>
</g>
<!-- check_opaque&#45;&gt;record_runtime -->
<g id="edge7" class="edge">
<title>check_opaque&#45;&gt;record_runtime</title>
<path fill="none" stroke="black" d="M242.69,-747.8C243.65,-736.16 244.94,-720.55 246.03,-707.24"/>
<polygon fill="black" stroke="black" points="249.53,-707.43 246.86,-697.18 242.55,-706.85 249.53,-707.43"/>
<text text-anchor="middle" x="252.78" y="-718.8" font-family="Arial" font-size="14.00">否</text>
</g>
<!-- end -->
<g id="node19" class="node">
<title>end</title>
<path fill="none" stroke="black" d="M263.28,-36C263.28,-36 233.28,-36 233.28,-36 227.28,-36 221.28,-30 221.28,-24 221.28,-24 221.28,-12 221.28,-12 221.28,-6 227.28,0 233.28,0 233.28,0 263.28,0 263.28,0 269.28,0 275.28,-6 275.28,-12 275.28,-12 275.28,-24 275.28,-24 275.28,-30 269.28,-36 263.28,-36"/>
<text text-anchor="middle" x="248.28" y="-14.3" font-family="Arial" font-size="14.00">结束</text>
</g>
<!-- opaque_error&#45;&gt;end -->
<g id="edge22" class="edge">
<title>opaque_error&#45;&gt;end</title>
<path fill="none" stroke="red" stroke-dasharray="5,2" d="M133.28,-606.75C133.28,-587.62 133.28,-555.86 133.28,-528.5 133.28,-528.5 133.28,-528.5 133.28,-90 133.28,-52.79 177.41,-34.43 211,-25.85"/>
<polygon fill="red" stroke="red" points="212.09,-29.19 221.02,-23.49 210.49,-22.38 212.09,-29.19"/>
</g>
<!-- loop_end -->
<g id="node9" class="node">
<title>loop_end</title>
<path fill="none" stroke="black" d="M399.78,-589C399.78,-589 278.78,-589 278.78,-589 272.78,-589 266.78,-583 266.78,-577 266.78,-577 266.78,-565 266.78,-565 266.78,-559 272.78,-553 278.78,-553 278.78,-553 399.78,-553 399.78,-553 405.78,-553 411.78,-559 411.78,-565 411.78,-565 411.78,-577 411.78,-577 411.78,-583 405.78,-589 399.78,-589"/>
<text text-anchor="middle" x="339.28" y="-567.3" font-family="Arial" font-size="14.00">完成所有字段处理？</text>
</g>
<!-- record_runtime&#45;&gt;loop_end -->
<g id="edge8" class="edge">
<title>record_runtime&#45;&gt;loop_end</title>
<path fill="none" stroke="black" d="M262.9,-660.97C277.74,-643.69 300.87,-616.74 317.79,-597.03"/>
<polygon fill="black" stroke="black" points="320.53,-599.21 324.39,-589.34 315.22,-594.65 320.53,-599.21"/>
</g>
<!-- loop_end&#45;&gt;loop_start -->
<g id="edge9" class="edge">
<title>loop_end&#45;&gt;loop_start</title>
<path fill="none" stroke="black" d="M345.71,-589.36C352.82,-610.13 363.28,-646.11 363.28,-678 363.28,-927 363.28,-927 363.28,-927 363.28,-945.75 350.89,-962.02 337.28,-974.23"/>
<polygon fill="black" stroke="black" points="334.66,-971.86 329.21,-980.95 339.14,-977.24 334.66,-971.86"/>
<text text-anchor="middle" x="392.28" y="-805.8" font-family="Arial" font-size="14.00">继续循环</text>
</g>
<!-- compute_hash -->
<g id="node10" class="node">
<title>compute_hash</title>
<path fill="none" stroke="black" d="M385.28,-502C385.28,-502 293.28,-502 293.28,-502 287.28,-502 281.28,-496 281.28,-490 281.28,-490 281.28,-478 281.28,-478 281.28,-472 287.28,-466 293.28,-466 293.28,-466 385.28,-466 385.28,-466 391.28,-466 397.28,-472 397.28,-478 397.28,-478 397.28,-490 397.28,-490 397.28,-496 391.28,-502 385.28,-502"/>
<text text-anchor="middle" x="339.28" y="-480.3" font-family="Arial" font-size="14.00">计算类型哈希值</text>
</g>
<!-- loop_end&#45;&gt;compute_hash -->
<g id="edge10" class="edge">
<title>loop_end&#45;&gt;compute_hash</title>
<path fill="none" stroke="black" d="M339.28,-552.8C339.28,-541.16 339.28,-525.55 339.28,-512.24"/>
<polygon fill="black" stroke="black" points="342.78,-512.18 339.28,-502.18 335.78,-512.18 342.78,-512.18"/>
<text text-anchor="middle" x="368.28" y="-523.8" font-family="Arial" font-size="14.00">循环结束</text>
</g>
<!-- get_struct_type -->
<g id="node11" class="node">
<title>get_struct_type</title>
<path fill="none" stroke="black" d="M401.78,-429C401.78,-429 276.78,-429 276.78,-429 270.78,-429 264.78,-423 264.78,-417 264.78,-417 264.78,-405 264.78,-405 264.78,-399 270.78,-393 276.78,-393 276.78,-393 401.78,-393 401.78,-393 407.78,-393 413.78,-399 413.78,-405 413.78,-405 413.78,-417 413.78,-417 413.78,-423 407.78,-429 401.78,-429"/>
<text text-anchor="middle" x="339.28" y="-407.3" font-family="Arial" font-size="14.00">创建/获取结构体类型</text>
</g>
<!-- compute_hash&#45;&gt;get_struct_type -->
<g id="edge11" class="edge">
<title>compute_hash&#45;&gt;get_struct_type</title>
<path fill="none" stroke="black" d="M339.28,-465.81C339.28,-457.79 339.28,-448.05 339.28,-439.07"/>
<polygon fill="black" stroke="black" points="342.78,-439.03 339.28,-429.03 335.78,-439.03 342.78,-439.03"/>
</g>
<!-- new_type -->
<g id="node12" class="node">
<title>new_type</title>
<path fill="none" stroke="black" d="M420.78,-342C420.78,-342 185.78,-342 185.78,-342 179.78,-342 173.78,-336 173.78,-330 173.78,-330 173.78,-318 173.78,-318 173.78,-312 179.78,-306 185.78,-306 185.78,-306 420.78,-306 420.78,-306 426.78,-306 432.78,-312 432.78,-318 432.78,-318 432.78,-330 432.78,-330 432.78,-336 426.78,-342 420.78,-342"/>
<text text-anchor="middle" x="303.28" y="-320.3" font-family="Arial" font-size="14.00">新建类型：设置字段信息、命名空间等</text>
</g>
<!-- get_struct_type&#45;&gt;new_type -->
<g id="edge12" class="edge">
<title>get_struct_type&#45;&gt;new_type</title>
<path fill="none" stroke="black" d="M331.99,-392.8C326.97,-380.93 320.19,-364.93 314.48,-351.45"/>
<polygon fill="black" stroke="black" points="317.67,-350.02 310.55,-342.18 311.23,-352.75 317.67,-350.02"/>
<text text-anchor="middle" x="353.28" y="-363.8" font-family="Arial" font-size="14.00">新建类型</text>
</g>
<!-- existing_type -->
<g id="node13" class="node">
<title>existing_type</title>
<path fill="none" stroke="black" d="M541.28,-342C541.28,-342 463.28,-342 463.28,-342 457.28,-342 451.28,-336 451.28,-330 451.28,-330 451.28,-318 451.28,-318 451.28,-312 457.28,-306 463.28,-306 463.28,-306 541.28,-306 541.28,-306 547.28,-306 553.28,-312 553.28,-318 553.28,-318 553.28,-330 553.28,-330 553.28,-336 547.28,-342 541.28,-342"/>
<text text-anchor="middle" x="502.28" y="-320.3" font-family="Arial" font-size="14.00">使用现有类型</text>
</g>
<!-- get_struct_type&#45;&gt;existing_type -->
<g id="edge13" class="edge">
<title>get_struct_type&#45;&gt;existing_type</title>
<path fill="none" stroke="black" d="M372.26,-392.8C397.75,-379.51 433.2,-361.02 460.65,-346.71"/>
<polygon fill="black" stroke="black" points="462.37,-349.76 469.62,-342.03 459.13,-343.55 462.37,-349.76"/>
<text text-anchor="middle" x="459.28" y="-363.8" font-family="Arial" font-size="14.00">已有类型</text>
</g>
<!-- check_runtime -->
<g id="node14" class="node">
<title>check_runtime</title>
<path fill="none" stroke="black" d="M332.41,-267.22C332.41,-267.22 235.83,-252.78 235.83,-252.78 229.89,-251.89 229.89,-250.11 235.83,-249.22 235.83,-249.22 332.41,-234.78 332.41,-234.78 338.34,-233.89 350.21,-233.89 356.15,-234.78 356.15,-234.78 452.73,-249.22 452.73,-249.22 458.66,-250.11 458.66,-251.89 452.73,-252.78 452.73,-252.78 356.15,-267.22 356.15,-267.22 350.21,-268.11 338.34,-268.11 332.41,-267.22"/>
<text text-anchor="middle" x="344.28" y="-247.3" font-family="Arial" font-size="14.00">存在运行时索引？</text>
</g>
<!-- new_type&#45;&gt;check_runtime -->
<g id="edge14" class="edge">
<title>new_type&#45;&gt;check_runtime</title>
<path fill="none" stroke="black" d="M313.2,-305.81C318.23,-297.1 324.43,-286.37 329.96,-276.79"/>
<polygon fill="black" stroke="black" points="333.04,-278.47 335.01,-268.06 326.97,-274.97 333.04,-278.47"/>
</g>
<!-- existing_type&#45;&gt;check_runtime -->
<g id="edge15" class="edge">
<title>existing_type&#45;&gt;check_runtime</title>
<path fill="none" stroke="black" d="M464.43,-305.99C439.5,-294.79 406.98,-280.18 382.06,-268.98"/>
<polygon fill="black" stroke="black" points="383.47,-265.77 372.91,-264.87 380.6,-272.16 383.47,-265.77"/>
</g>
<!-- handle_runtime -->
<g id="node15" class="node">
<title>handle_runtime</title>
<path fill="none" stroke="black" d="M322.78,-182C322.78,-182 173.78,-182 173.78,-182 167.78,-182 161.78,-176 161.78,-170 161.78,-170 161.78,-158 161.78,-158 161.78,-152 167.78,-146 173.78,-146 173.78,-146 322.78,-146 322.78,-146 328.78,-146 334.78,-152 334.78,-158 334.78,-158 334.78,-170 334.78,-170 334.78,-176 328.78,-182 322.78,-182"/>
<text text-anchor="middle" x="248.28" y="-160.3" font-family="Arial" font-size="14.00">处理运行时分配和初始化</text>
</g>
<!-- check_runtime&#45;&gt;handle_runtime -->
<g id="edge16" class="edge">
<title>check_runtime&#45;&gt;handle_runtime</title>
<path fill="none" stroke="black" d="M327.56,-235.19C313.24,-222.52 292.36,-204.03 275.62,-189.21"/>
<polygon fill="black" stroke="black" points="277.59,-186.28 267.78,-182.27 272.95,-191.52 277.59,-186.28"/>
<text text-anchor="middle" x="309.78" y="-203.8" font-family="Arial" font-size="14.00">是</text>
</g>
<!-- handle_const -->
<g id="node17" class="node">
<title>handle_const</title>
<path fill="none" stroke="black" d="M443.28,-182C443.28,-182 365.28,-182 365.28,-182 359.28,-182 353.28,-176 353.28,-170 353.28,-170 353.28,-158 353.28,-158 353.28,-152 359.28,-146 365.28,-146 365.28,-146 443.28,-146 443.28,-146 449.28,-146 455.28,-152 455.28,-158 455.28,-158 455.28,-170 455.28,-170 455.28,-176 449.28,-182 443.28,-182"/>
<text text-anchor="middle" x="404.28" y="-160.3" font-family="Arial" font-size="14.00">处理常量聚合</text>
</g>
<!-- check_runtime&#45;&gt;handle_const -->
<g id="edge17" class="edge">
<title>check_runtime&#45;&gt;handle_const</title>
<path fill="none" stroke="black" d="M355.28,-234.41C363.91,-222.19 376.1,-204.91 386.16,-190.66"/>
<polygon fill="black" stroke="black" points="389.2,-192.43 392.1,-182.25 383.48,-188.4 389.2,-192.43"/>
<text text-anchor="middle" x="384.78" y="-203.8" font-family="Arial" font-size="14.00">否</text>
</g>
<!-- return_ref -->
<g id="node16" class="node">
<title>return_ref</title>
<path fill="none" stroke="black" d="M287.28,-109C287.28,-109 209.28,-109 209.28,-109 203.28,-109 197.28,-103 197.28,-97 197.28,-97 197.28,-85 197.28,-85 197.28,-79 203.28,-73 209.28,-73 209.28,-73 287.28,-73 287.28,-73 293.28,-73 299.28,-79 299.28,-85 299.28,-85 299.28,-97 299.28,-97 299.28,-103 293.28,-109 287.28,-109"/>
<text text-anchor="middle" x="248.28" y="-87.3" font-family="Arial" font-size="14.00">返回指针常量</text>
</g>
<!-- handle_runtime&#45;&gt;return_ref -->
<g id="edge18" class="edge">
<title>handle_runtime&#45;&gt;return_ref</title>
<path fill="none" stroke="black" d="M248.28,-145.81C248.28,-137.79 248.28,-128.05 248.28,-119.07"/>
<polygon fill="black" stroke="black" points="251.78,-119.03 248.28,-109.03 244.78,-119.03 251.78,-119.03"/>
</g>
<!-- return_ref&#45;&gt;end -->
<g id="edge19" class="edge">
<title>return_ref&#45;&gt;end</title>
<path fill="none" stroke="black" d="M248.28,-72.81C248.28,-64.79 248.28,-55.05 248.28,-46.07"/>
<polygon fill="black" stroke="black" points="251.78,-46.03 248.28,-36.03 244.78,-46.03 251.78,-46.03"/>
</g>
<!-- return_const -->
<g id="node18" class="node">
<title>return_const</title>
<path fill="none" stroke="black" d="M435.28,-109C435.28,-109 343.28,-109 343.28,-109 337.28,-109 331.28,-103 331.28,-97 331.28,-97 331.28,-85 331.28,-85 331.28,-79 337.28,-73 343.28,-73 343.28,-73 435.28,-73 435.28,-73 441.28,-73 447.28,-79 447.28,-85 447.28,-85 447.28,-97 447.28,-97 447.28,-103 441.28,-109 435.28,-109"/>
<text text-anchor="middle" x="389.28" y="-87.3" font-family="Arial" font-size="14.00">返回结构体常量</text>
</g>
<!-- handle_const&#45;&gt;return_const -->
<g id="edge20" class="edge">
<title>handle_const&#45;&gt;return_const</title>
<path fill="none" stroke="black" d="M400.65,-145.81C398.95,-137.79 396.89,-128.05 395,-119.07"/>
<polygon fill="black" stroke="black" points="398.37,-118.09 392.88,-109.03 391.52,-119.54 398.37,-118.09"/>
</g>
<!-- return_const&#45;&gt;end -->
<g id="edge21" class="edge">
<title>return_const&#45;&gt;end</title>
<path fill="none" stroke="black" d="M355.5,-72.99C334.12,-62.22 306.48,-48.31 284.61,-37.3"/>
<polygon fill="black" stroke="black" points="286.14,-34.15 275.63,-32.78 282.99,-40.4 286.14,-34.15"/>
</g>
</g>
</svg>
