<?xml version="1.0" encoding="UTF-8" standalone="no"?>
<!DOCTYPE svg PUBLIC "-//W3C//DTD SVG 1.1//EN"
 "http://www.w3.org/Graphics/SVG/1.1/DTD/svg11.dtd">
<!-- Generated by graphviz version 2.43.0 (0)
 -->
<!-- Title: flowchart Pages: 1 -->
<svg width="602pt" height="957pt"
 viewBox="0.00 0.00 602.45 957.00" xmlns="http://www.w3.org/2000/svg" xmlns:xlink="http://www.w3.org/1999/xlink">
<g id="graph0" class="graph" transform="scale(1 1) rotate(0) translate(4 953)">
<title>flowchart</title>
<polygon fill="white" stroke="transparent" points="-4,4 -4,-953 598.45,-953 598.45,4 -4,4"/>
<!-- start -->
<g id="node1" class="node">
<title>start</title>
<polygon fill="none" stroke="black" points="477,-949 348,-949 348,-913 477,-913 477,-949"/>
<text text-anchor="middle" x="412.5" y="-934.4" font-family="Courier,monospace" font-size="12.00">开始函数</text>
<text text-anchor="middle" x="412.5" y="-921.4" font-family="Courier,monospace" font-size="12.00">初始化跟踪(tracy)</text>
</g>
<!-- parse_inst -->
<g id="node2" class="node">
<title>parse_inst</title>
<polygon fill="none" stroke="black" points="520.5,-876 304.5,-876 304.5,-840 520.5,-840 520.5,-876"/>
<text text-anchor="middle" x="412.5" y="-861.4" font-family="Courier,monospace" font-size="12.00">解析指令数据</text>
<text text-anchor="middle" x="412.5" y="-848.4" font-family="Courier,monospace" font-size="12.00">获取操作数值(raw_operand_val)</text>
</g>
<!-- start&#45;&gt;parse_inst -->
<g id="edge1" class="edge">
<title>start&#45;&gt;parse_inst</title>
<path fill="none" stroke="black" d="M412.5,-912.81C412.5,-904.79 412.5,-895.05 412.5,-886.07"/>
<polygon fill="black" stroke="black" points="416,-886.03 412.5,-876.03 409,-886.03 416,-886.03"/>
</g>
<!-- handle_cases -->
<g id="node3" class="node">
<title>handle_cases</title>
<polygon fill="none" stroke="black" points="493,-803 332,-803 332,-767 493,-767 493,-803"/>
<text text-anchor="middle" x="412.5" y="-788.4" font-family="Courier,monospace" font-size="12.00">处理标量case和多个case</text>
<text text-anchor="middle" x="412.5" y="-775.4" font-family="Courier,monospace" font-size="12.00">构建case_vals列表</text>
</g>
<!-- parse_inst&#45;&gt;handle_cases -->
<g id="edge2" class="edge">
<title>parse_inst&#45;&gt;handle_cases</title>
<path fill="none" stroke="black" d="M412.5,-839.81C412.5,-831.79 412.5,-822.05 412.5,-813.07"/>
<polygon fill="black" stroke="black" points="416,-813.03 412.5,-803.03 409,-813.03 416,-813.03"/>
</g>
<!-- check_operand_type -->
<g id="node4" class="node">
<title>check_operand_type</title>
<polygon fill="none" stroke="black" points="412.5,-730 230.6,-712 412.5,-694 594.4,-712 412.5,-730"/>
<text text-anchor="middle" x="412.5" y="-708.9" font-family="Courier,monospace" font-size="12.00">检查操作数类型是否为错误联合类型</text>
</g>
<!-- handle_cases&#45;&gt;check_operand_type -->
<g id="edge3" class="edge">
<title>handle_cases&#45;&gt;check_operand_type</title>
<path fill="none" stroke="black" d="M412.5,-766.81C412.5,-758.79 412.5,-749.05 412.5,-740.07"/>
<polygon fill="black" stroke="black" points="416,-740.03 412.5,-730.03 409,-740.03 416,-740.03"/>
</g>
<!-- validate_err_set -->
<g id="node5" class="node">
<title>validate_err_set</title>
<polygon fill="none" stroke="black" points="405,-647 310,-647 310,-611 405,-611 405,-647"/>
<text text-anchor="middle" x="357.5" y="-632.4" font-family="Courier,monospace" font-size="12.00">验证错误集合</text>
<text text-anchor="middle" x="357.5" y="-619.4" font-family="Courier,monospace" font-size="12.00">处理else分支</text>
</g>
<!-- check_operand_type&#45;&gt;validate_err_set -->
<g id="edge5" class="edge">
<title>check_operand_type&#45;&gt;validate_err_set</title>
<path fill="none" stroke="black" d="M401.48,-694.99C397.39,-689.03 392.72,-682.22 388.5,-676 384.03,-669.43 379.23,-662.32 374.76,-655.69"/>
<polygon fill="black" stroke="black" points="377.44,-653.4 368.95,-647.06 371.63,-657.31 377.44,-653.4"/>
<text text-anchor="middle" x="408.5" y="-668" font-family="Courier,monospace" font-size="10.00">类型正确</text>
</g>
<!-- error_exit -->
<g id="node14" class="node">
<title>error_exit</title>
<polygon fill="none" stroke="black" points="503,-593 414,-593 414,-557 503,-557 503,-593"/>
<text text-anchor="middle" x="458.5" y="-578.4" font-family="Courier,monospace" font-size="12.00">返回类型错误</text>
<text text-anchor="middle" x="458.5" y="-565.4" font-family="Courier,monospace" font-size="12.00">(fail路径)</text>
</g>
<!-- check_operand_type&#45;&gt;error_exit -->
<g id="edge4" class="edge">
<title>check_operand_type&#45;&gt;error_exit</title>
<path fill="none" stroke="black" d="M420.62,-694.46C423.31,-688.69 426.19,-682.13 428.5,-676 437.64,-651.73 445.93,-623.36 451.47,-603.05"/>
<polygon fill="black" stroke="black" points="454.9,-603.79 454.11,-593.22 448.13,-601.97 454.9,-603.79"/>
<text text-anchor="middle" x="452.5" y="-668" font-family="Courier,monospace" font-size="10.00">类型不符</text>
</g>
<!-- resolve_const_value -->
<g id="node6" class="node">
<title>resolve_const_value</title>
<polygon fill="none" stroke="black" points="257.5,-539 138.46,-521 257.5,-503 376.54,-521 257.5,-539"/>
<text text-anchor="middle" x="257.5" y="-517.9" font-family="Courier,monospace" font-size="12.00">尝试解析编译时已知值</text>
</g>
<!-- validate_err_set&#45;&gt;resolve_const_value -->
<g id="edge6" class="edge">
<title>validate_err_set&#45;&gt;resolve_const_value</title>
<path fill="none" stroke="black" d="M341.43,-610.97C324.37,-592.89 297.34,-564.23 278.58,-544.34"/>
<polygon fill="black" stroke="black" points="281,-541.8 271.59,-536.93 275.9,-546.61 281,-541.8"/>
</g>
<!-- handle_payload -->
<g id="node7" class="node">
<title>handle_payload</title>
<polygon fill="none" stroke="black" points="153,-402 0,-402 0,-366 153,-366 153,-402"/>
<text text-anchor="middle" x="76.5" y="-387.4" font-family="Courier,monospace" font-size="12.00">处理非错误payload分支</text>
<text text-anchor="middle" x="76.5" y="-374.4" font-family="Courier,monospace" font-size="12.00">生成正常代码路径</text>
</g>
<!-- resolve_const_value&#45;&gt;handle_payload -->
<g id="edge7" class="edge">
<title>resolve_const_value&#45;&gt;handle_payload</title>
<path fill="none" stroke="black" d="M224.81,-507.75C210.9,-501.84 194.84,-494.06 181.5,-485 149.41,-463.22 117.91,-431.43 97.92,-409.57"/>
<polygon fill="black" stroke="black" points="100.39,-407.09 91.09,-402.01 95.19,-411.78 100.39,-407.09"/>
<text text-anchor="middle" x="217.5" y="-477" font-family="Courier,monospace" font-size="10.00">是payload分支</text>
</g>
<!-- handle_error -->
<g id="node8" class="node">
<title>handle_error</title>
<polygon fill="none" stroke="black" points="302,-456 213,-456 213,-420 302,-420 302,-456"/>
<text text-anchor="middle" x="257.5" y="-441.4" font-family="Courier,monospace" font-size="12.00">处理错误值</text>
<text text-anchor="middle" x="257.5" y="-428.4" font-family="Courier,monospace" font-size="12.00">捕获错误信息</text>
</g>
<!-- resolve_const_value&#45;&gt;handle_error -->
<g id="edge8" class="edge">
<title>resolve_const_value&#45;&gt;handle_error</title>
<path fill="none" stroke="black" d="M257.5,-502.82C257.5,-492.19 257.5,-478.31 257.5,-466.2"/>
<polygon fill="black" stroke="black" points="261,-466.15 257.5,-456.15 254,-466.15 261,-466.15"/>
<text text-anchor="middle" x="282" y="-477" font-family="Courier,monospace" font-size="10.00">是错误分支</text>
</g>
<!-- resolve_block -->
<g id="node13" class="node">
<title>resolve_block</title>
<polygon fill="none" stroke="black" points="376,-36 263,-36 263,0 376,0 376,-36"/>
<text text-anchor="middle" x="319.5" y="-21.4" font-family="Courier,monospace" font-size="12.00">解析块结果</text>
<text text-anchor="middle" x="319.5" y="-8.4" font-family="Courier,monospace" font-size="12.00">返回最终指令引用</text>
</g>
<!-- handle_payload&#45;&gt;resolve_block -->
<g id="edge9" class="edge">
<title>handle_payload&#45;&gt;resolve_block</title>
<path fill="none" stroke="black" d="M67.8,-365.91C59.26,-347.53 47.5,-317.2 47.5,-289.5 47.5,-289.5 47.5,-289.5 47.5,-90 47.5,-47.7 172.2,-30.13 252.73,-23.2"/>
<polygon fill="black" stroke="black" points="253.13,-26.68 262.81,-22.36 252.56,-19.7 253.13,-26.68"/>
<text text-anchor="middle" x="96.5" y="-203" font-family="Courier,monospace" font-size="10.00">直接返回正常代码路径</text>
</g>
<!-- check_empty_cases -->
<g id="node9" class="node">
<title>check_empty_cases</title>
<polygon fill="none" stroke="black" points="257.5,-348 75.6,-330 257.5,-312 439.4,-330 257.5,-348"/>
<text text-anchor="middle" x="257.5" y="-326.9" font-family="Courier,monospace" font-size="12.00">是否无case且else处理空错误集合</text>
</g>
<!-- handle_error&#45;&gt;check_empty_cases -->
<g id="edge10" class="edge">
<title>handle_error&#45;&gt;check_empty_cases</title>
<path fill="none" stroke="black" d="M257.5,-419.97C257.5,-403.38 257.5,-377.88 257.5,-358.43"/>
<polygon fill="black" stroke="black" points="261,-358.34 257.5,-348.34 254,-358.34 261,-358.34"/>
</g>
<!-- comptime_check -->
<g id="node10" class="node">
<title>comptime_check</title>
<polygon fill="none" stroke="black" points="281,-265 180,-265 180,-229 281,-229 281,-265"/>
<text text-anchor="middle" x="230.5" y="-250.4" font-family="Courier,monospace" font-size="12.00">编译时检查</text>
<text text-anchor="middle" x="230.5" y="-237.4" font-family="Courier,monospace" font-size="12.00">强制解析常量值</text>
</g>
<!-- check_empty_cases&#45;&gt;comptime_check -->
<g id="edge12" class="edge">
<title>check_empty_cases&#45;&gt;comptime_check</title>
<path fill="none" stroke="black" d="M251.91,-312.22C248.31,-301.43 243.56,-287.17 239.45,-274.84"/>
<polygon fill="black" stroke="black" points="242.66,-273.42 236.18,-265.04 236.02,-275.63 242.66,-273.42"/>
<text text-anchor="middle" x="261.5" y="-286" font-family="Courier,monospace" font-size="10.00">不满足</text>
</g>
<!-- check_empty_cases&#45;&gt;resolve_block -->
<g id="edge11" class="edge">
<title>check_empty_cases&#45;&gt;resolve_block</title>
<path fill="none" stroke="black" d="M290.76,-315.19C316.39,-302.07 347.5,-279.64 347.5,-248 347.5,-248 347.5,-248 347.5,-90 347.5,-74.33 341.52,-57.98 335.09,-44.93"/>
<polygon fill="black" stroke="black" points="338.17,-43.27 330.41,-36.06 331.98,-46.54 338.17,-43.27"/>
<text text-anchor="middle" x="367.5" y="-161.5" font-family="Courier,monospace" font-size="10.00">满足条件</text>
</g>
<!-- build_cond -->
<g id="node11" class="node">
<title>build_cond</title>
<polygon fill="none" stroke="black" points="311.5,-182 117.5,-182 117.5,-146 311.5,-146 311.5,-182"/>
<text text-anchor="middle" x="214.5" y="-167.4" font-family="Courier,monospace" font-size="12.00">构建条件表达式(cond)</text>
<text text-anchor="middle" x="214.5" y="-154.4" font-family="Courier,monospace" font-size="12.00">根据payload_is_ref选择操作</text>
</g>
<!-- comptime_check&#45;&gt;build_cond -->
<g id="edge13" class="edge">
<title>comptime_check&#45;&gt;build_cond</title>
<path fill="none" stroke="black" d="M227.11,-228.82C225.01,-218.19 222.26,-204.31 219.87,-192.2"/>
<polygon fill="black" stroke="black" points="223.26,-191.29 217.89,-182.15 216.39,-192.64 223.26,-191.29"/>
</g>
<!-- create_cond_br -->
<g id="node12" class="node">
<title>create_cond_br</title>
<polygon fill="none" stroke="black" points="313.5,-109 149.5,-109 149.5,-73 313.5,-73 313.5,-109"/>
<text text-anchor="middle" x="231.5" y="-94.4" font-family="Courier,monospace" font-size="12.00">生成cond_br指令</text>
<text text-anchor="middle" x="231.5" y="-81.4" font-family="Courier,monospace" font-size="12.00">合并true/false分支代码</text>
</g>
<!-- build_cond&#45;&gt;create_cond_br -->
<g id="edge14" class="edge">
<title>build_cond&#45;&gt;create_cond_br</title>
<path fill="none" stroke="black" d="M218.62,-145.81C220.56,-137.7 222.92,-127.84 225.09,-118.78"/>
<polygon fill="black" stroke="black" points="228.5,-119.57 227.42,-109.03 221.69,-117.94 228.5,-119.57"/>
</g>
<!-- create_cond_br&#45;&gt;resolve_block -->
<g id="edge15" class="edge">
<title>create_cond_br&#45;&gt;resolve_block</title>
<path fill="none" stroke="black" d="M252.8,-72.81C264.15,-63.66 278.28,-52.26 290.6,-42.32"/>
<polygon fill="black" stroke="black" points="292.81,-45.03 298.39,-36.03 288.41,-39.58 292.81,-45.03"/>
</g>
<!-- error_exit&#45;&gt;resolve_block -->
</g>
</svg>
