<?xml version="1.0" encoding="UTF-8" standalone="no"?>
<!DOCTYPE svg PUBLIC "-//W3C//DTD SVG 1.1//EN"
 "http://www.w3.org/Graphics/SVG/1.1/DTD/svg11.dtd">
<!-- Generated by graphviz version 2.43.0 (0)
 -->
<!-- Title: flowchart Pages: 1 -->
<svg width="576pt" height="1241pt"
 viewBox="0.00 0.00 575.50 1241.00" xmlns="http://www.w3.org/2000/svg" xmlns:xlink="http://www.w3.org/1999/xlink">
<g id="graph0" class="graph" transform="scale(1 1) rotate(0) translate(4 1237)">
<title>flowchart</title>
<polygon fill="white" stroke="transparent" points="-4,4 -4,-1237 571.5,-1237 571.5,4 -4,4"/>
<!-- start -->
<g id="node1" class="node">
<title>start</title>
<path fill="none" stroke="black" d="M464.5,-1233C464.5,-1233 346.5,-1233 346.5,-1233 340.5,-1233 334.5,-1227 334.5,-1221 334.5,-1221 334.5,-1209 334.5,-1209 334.5,-1203 340.5,-1197 346.5,-1197 346.5,-1197 464.5,-1197 464.5,-1197 470.5,-1197 476.5,-1203 476.5,-1209 476.5,-1209 476.5,-1221 476.5,-1221 476.5,-1227 470.5,-1233 464.5,-1233"/>
<text text-anchor="middle" x="405.5" y="-1211.3" font-family="Helvetica,sans-Serif" font-size="14.00">Start fieldCallBind</text>
</g>
<!-- check_ptr_type -->
<g id="node2" class="node">
<title>check_ptr_type</title>
<path fill="none" stroke="black" d="M496.5,-1160C496.5,-1160 314.5,-1160 314.5,-1160 308.5,-1160 302.5,-1154 302.5,-1148 302.5,-1148 302.5,-1134 302.5,-1134 302.5,-1128 308.5,-1122 314.5,-1122 314.5,-1122 496.5,-1122 496.5,-1122 502.5,-1122 508.5,-1128 508.5,-1134 508.5,-1134 508.5,-1148 508.5,-1148 508.5,-1154 502.5,-1160 496.5,-1160"/>
<text text-anchor="middle" x="405.5" y="-1144.8" font-family="Helvetica,sans-Serif" font-size="14.00">Check raw_ptr_ty is pointer</text>
<text text-anchor="middle" x="405.5" y="-1129.8" font-family="Helvetica,sans-Serif" font-size="14.00">and ptrSize is .one or .c</text>
</g>
<!-- start&#45;&gt;check_ptr_type -->
<g id="edge1" class="edge">
<title>start&#45;&gt;check_ptr_type</title>
<path fill="none" stroke="black" d="M405.5,-1196.94C405.5,-1188.99 405.5,-1179.31 405.5,-1170.31"/>
<polygon fill="black" stroke="black" points="409,-1170.2 405.5,-1160.2 402,-1170.2 409,-1170.2"/>
</g>
<!-- check_inner_ty -->
<g id="node3" class="node">
<title>check_inner_ty</title>
<path fill="none" stroke="black" d="M374,-1071C374,-1071 297,-1071 297,-1071 291,-1071 285,-1065 285,-1059 285,-1059 285,-1047 285,-1047 285,-1041 291,-1035 297,-1035 297,-1035 374,-1035 374,-1035 380,-1035 386,-1041 386,-1047 386,-1047 386,-1059 386,-1059 386,-1065 380,-1071 374,-1071"/>
<text text-anchor="middle" x="335.5" y="-1049.3" font-family="Helvetica,sans-Serif" font-size="14.00">Get inner_ty</text>
</g>
<!-- check_ptr_type&#45;&gt;check_inner_ty -->
<g id="edge2" class="edge">
<title>check_ptr_type&#45;&gt;check_inner_ty</title>
<path fill="none" stroke="black" d="M382.11,-1121.78C376,-1116.42 369.67,-1110.29 364.5,-1104 358.55,-1096.76 353.08,-1088.14 348.53,-1080.12"/>
<polygon fill="black" stroke="black" points="351.48,-1078.22 343.64,-1071.09 345.32,-1081.55 351.48,-1078.22"/>
<text text-anchor="middle" x="408.5" y="-1092.8" font-family="Helvetica,sans-Serif" font-size="14.00">Valid pointer</text>
</g>
<!-- return_error -->
<g id="node18" class="node">
<title>return_error</title>
<path fill="none" stroke="black" d="M457.5,-36C457.5,-36 381.5,-36 381.5,-36 375.5,-36 369.5,-30 369.5,-24 369.5,-24 369.5,-12 369.5,-12 369.5,-6 375.5,0 381.5,0 381.5,0 457.5,0 457.5,0 463.5,0 469.5,-6 469.5,-12 469.5,-12 469.5,-24 469.5,-24 469.5,-30 463.5,-36 457.5,-36"/>
<text text-anchor="middle" x="419.5" y="-14.3" font-family="Helvetica,sans-Serif" font-size="14.00">Return error</text>
</g>
<!-- check_ptr_type&#45;&gt;return_error -->
<g id="edge3" class="edge">
<title>check_ptr_type&#45;&gt;return_error</title>
<path fill="none" stroke="black" d="M435.55,-1121.62C441.89,-1116.57 448.01,-1110.64 452.5,-1104 465.44,-1084.89 466.5,-1077.08 466.5,-1054 466.5,-1054 466.5,-1054 466.5,-90 466.5,-72.78 456.77,-56.53 446.16,-43.94"/>
<polygon fill="black" stroke="black" points="448.47,-41.27 439.16,-36.21 443.28,-45.97 448.47,-41.27"/>
<text text-anchor="middle" x="517" y="-583.3" font-family="Helvetica,sans-Serif" font-size="14.00">Invalid pointer</text>
</g>
<!-- is_double_ptr -->
<g id="node4" class="node">
<title>is_double_ptr</title>
<path fill="none" stroke="black" d="M275.58,-996.58C275.58,-996.58 148.43,-981.42 148.43,-981.42 142.47,-980.71 142.47,-979.29 148.43,-978.58 148.43,-978.58 275.58,-963.42 275.58,-963.42 281.54,-962.71 293.46,-962.71 299.42,-963.42 299.42,-963.42 426.57,-978.58 426.57,-978.58 432.53,-979.29 432.53,-980.71 426.57,-981.42 426.57,-981.42 299.42,-996.58 299.42,-996.58 293.46,-997.29 281.54,-997.29 275.58,-996.58"/>
<text text-anchor="middle" x="287.5" y="-976.3" font-family="Helvetica,sans-Serif" font-size="14.00">Is inner_ty a pointer?</text>
</g>
<!-- check_inner_ty&#45;&gt;is_double_ptr -->
<g id="edge4" class="edge">
<title>check_inner_ty&#45;&gt;is_double_ptr</title>
<path fill="none" stroke="black" d="M323.88,-1034.81C317.93,-1026.01 310.59,-1015.15 304.06,-1005.49"/>
<polygon fill="black" stroke="black" points="306.85,-1003.38 298.35,-997.06 301.06,-1007.3 306.85,-1003.38"/>
</g>
<!-- get_concrete_ty -->
<g id="node5" class="node">
<title>get_concrete_ty</title>
<path fill="none" stroke="black" d="M267,-911C267,-911 12,-911 12,-911 6,-911 0,-905 0,-899 0,-899 0,-887 0,-887 0,-881 6,-875 12,-875 12,-875 267,-875 267,-875 273,-875 279,-881 279,-887 279,-887 279,-899 279,-899 279,-905 273,-911 267,-911"/>
<text text-anchor="middle" x="139.5" y="-889.3" font-family="Helvetica,sans-Serif" font-size="14.00">Set concrete_ty to inner_ty.childType()</text>
</g>
<!-- is_double_ptr&#45;&gt;get_concrete_ty -->
<g id="edge5" class="edge">
<title>is_double_ptr&#45;&gt;get_concrete_ty</title>
<path fill="none" stroke="black" d="M262.73,-964.77C239.59,-951.48 204.69,-931.44 177.94,-916.07"/>
<polygon fill="black" stroke="black" points="179.62,-913 169.2,-911.06 176.13,-919.07 179.62,-913"/>
<text text-anchor="middle" x="234" y="-932.8" font-family="Helvetica,sans-Serif" font-size="14.00">Yes</text>
</g>
<!-- set_ptr_ty -->
<g id="node6" class="node">
<title>set_ptr_ty</title>
<path fill="none" stroke="black" d="M241,-838C241,-838 102,-838 102,-838 96,-838 90,-832 90,-826 90,-826 90,-814 90,-814 90,-808 96,-802 102,-802 102,-802 241,-802 241,-802 247,-802 253,-808 253,-814 253,-814 253,-826 253,-826 253,-832 247,-838 241,-838"/>
<text text-anchor="middle" x="171.5" y="-816.3" font-family="Helvetica,sans-Serif" font-size="14.00">Set ptr_ty to inner_ty</text>
</g>
<!-- is_double_ptr&#45;&gt;set_ptr_ty -->
<g id="edge6" class="edge">
<title>is_double_ptr&#45;&gt;set_ptr_ty</title>
<path fill="none" stroke="black" d="M292.6,-962.36C298.25,-940.46 304.49,-901.64 287.5,-875 278.37,-860.67 264.33,-850.09 249.15,-842.28"/>
<polygon fill="black" stroke="black" points="250.64,-839.12 240.1,-838.01 247.64,-845.44 250.64,-839.12"/>
<text text-anchor="middle" x="308" y="-889.3" font-family="Helvetica,sans-Serif" font-size="14.00">No</text>
</g>
<!-- get_concrete_ty&#45;&gt;set_ptr_ty -->
<g id="edge7" class="edge">
<title>get_concrete_ty&#45;&gt;set_ptr_ty</title>
<path fill="none" stroke="black" d="M147.25,-874.81C150.98,-866.53 155.54,-856.41 159.69,-847.19"/>
<polygon fill="black" stroke="black" points="162.91,-848.58 163.83,-838.03 156.53,-845.71 162.91,-848.58"/>
</g>
<!-- analyze_load -->
<g id="node7" class="node">
<title>analyze_load</title>
<path fill="none" stroke="black" d="M214.5,-751C214.5,-751 32.5,-751 32.5,-751 26.5,-751 20.5,-745 20.5,-739 20.5,-739 20.5,-727 20.5,-727 20.5,-721 26.5,-715 32.5,-715 32.5,-715 214.5,-715 214.5,-715 220.5,-715 226.5,-721 226.5,-727 226.5,-727 226.5,-739 226.5,-739 226.5,-745 220.5,-751 214.5,-751"/>
<text text-anchor="middle" x="123.5" y="-729.3" font-family="Helvetica,sans-Serif" font-size="14.00">Analyze load for double ptr</text>
</g>
<!-- set_ptr_ty&#45;&gt;analyze_load -->
<g id="edge8" class="edge">
<title>set_ptr_ty&#45;&gt;analyze_load</title>
<path fill="none" stroke="black" d="M161.79,-801.8C155.02,-789.82 145.87,-773.62 138.21,-760.06"/>
<polygon fill="black" stroke="black" points="141.16,-758.16 133.2,-751.18 135.07,-761.6 141.16,-758.16"/>
<text text-anchor="middle" x="187.5" y="-772.8" font-family="Helvetica,sans-Serif" font-size="14.00">Double ptr</text>
</g>
<!-- handle_struct -->
<g id="node8" class="node">
<title>handle_struct</title>
<path fill="none" stroke="black" d="M276.5,-678C276.5,-678 114.5,-678 114.5,-678 108.5,-678 102.5,-672 102.5,-666 102.5,-666 102.5,-654 102.5,-654 102.5,-648 108.5,-642 114.5,-642 114.5,-642 276.5,-642 276.5,-642 282.5,-642 288.5,-648 288.5,-654 288.5,-654 288.5,-666 288.5,-666 288.5,-672 282.5,-678 276.5,-678"/>
<text text-anchor="middle" x="195.5" y="-656.3" font-family="Helvetica,sans-Serif" font-size="14.00">Handle struct/tuple case</text>
</g>
<!-- set_ptr_ty&#45;&gt;handle_struct -->
<g id="edge9" class="edge">
<title>set_ptr_ty&#45;&gt;handle_struct</title>
<path fill="none" stroke="black" d="M209.16,-801.92C216.51,-797.07 223.48,-791.12 228.5,-784 237.15,-771.75 233.94,-765.91 235.5,-751 237.17,-735.09 240.51,-730.19 235.5,-715 232.1,-704.7 225.89,-694.75 219.36,-686.27"/>
<polygon fill="black" stroke="black" points="221.87,-683.81 212.82,-678.31 216.47,-688.26 221.87,-683.81"/>
<text text-anchor="middle" x="272.5" y="-729.3" font-family="Helvetica,sans-Serif" font-size="14.00">Single ptr</text>
</g>
<!-- analyze_load&#45;&gt;handle_struct -->
<g id="edge10" class="edge">
<title>analyze_load&#45;&gt;handle_struct</title>
<path fill="none" stroke="black" d="M140.93,-714.81C149.95,-705.92 161.11,-694.91 170.99,-685.17"/>
<polygon fill="black" stroke="black" points="173.57,-687.54 178.23,-678.03 168.65,-682.56 173.57,-687.54"/>
</g>
<!-- check_field_exists -->
<g id="node9" class="node">
<title>check_field_exists</title>
<path fill="none" stroke="black" d="M284,-605C284,-605 107,-605 107,-605 101,-605 95,-599 95,-593 95,-593 95,-581 95,-581 95,-575 101,-569 107,-569 107,-569 284,-569 284,-569 290,-569 296,-575 296,-581 296,-581 296,-593 296,-593 296,-599 290,-605 284,-605"/>
<text text-anchor="middle" x="195.5" y="-583.3" font-family="Helvetica,sans-Serif" font-size="14.00">Check field exists in struct</text>
</g>
<!-- handle_struct&#45;&gt;check_field_exists -->
<g id="edge11" class="edge">
<title>handle_struct&#45;&gt;check_field_exists</title>
<path fill="none" stroke="black" d="M195.5,-641.81C195.5,-633.79 195.5,-624.05 195.5,-615.07"/>
<polygon fill="black" stroke="black" points="199,-615.03 195.5,-605.03 192,-615.03 199,-615.03"/>
</g>
<!-- return_field -->
<g id="node10" class="node">
<title>return_field</title>
<path fill="none" stroke="black" d="M177.5,-518C177.5,-518 41.5,-518 41.5,-518 35.5,-518 29.5,-512 29.5,-506 29.5,-506 29.5,-494 29.5,-494 29.5,-488 35.5,-482 41.5,-482 41.5,-482 177.5,-482 177.5,-482 183.5,-482 189.5,-488 189.5,-494 189.5,-494 189.5,-506 189.5,-506 189.5,-512 183.5,-518 177.5,-518"/>
<text text-anchor="middle" x="109.5" y="-496.3" font-family="Helvetica,sans-Serif" font-size="14.00">Return resolved field</text>
</g>
<!-- check_field_exists&#45;&gt;return_field -->
<g id="edge12" class="edge">
<title>check_field_exists&#45;&gt;return_field</title>
<path fill="none" stroke="black" d="M166.84,-568.98C159.15,-563.72 151.14,-557.58 144.5,-551 137.31,-543.88 130.62,-535.12 125.05,-526.93"/>
<polygon fill="black" stroke="black" points="127.87,-524.84 119.48,-518.37 122,-528.66 127.87,-524.84"/>
<text text-anchor="middle" x="166" y="-539.8" font-family="Helvetica,sans-Serif" font-size="14.00">Found</text>
</g>
<!-- handle_union -->
<g id="node11" class="node">
<title>handle_union</title>
<path fill="none" stroke="black" d="M341,-518C341,-518 220,-518 220,-518 214,-518 208,-512 208,-506 208,-506 208,-494 208,-494 208,-488 214,-482 220,-482 220,-482 341,-482 341,-482 347,-482 353,-488 353,-494 353,-494 353,-506 353,-506 353,-512 347,-518 341,-518"/>
<text text-anchor="middle" x="280.5" y="-496.3" font-family="Helvetica,sans-Serif" font-size="14.00">Handle union case</text>
</g>
<!-- check_field_exists&#45;&gt;handle_union -->
<g id="edge13" class="edge">
<title>check_field_exists&#45;&gt;handle_union</title>
<path fill="none" stroke="black" d="M191.44,-568.84C189.98,-558.47 190.05,-545.47 196.5,-536 199.67,-531.35 203.58,-527.31 207.97,-523.81"/>
<polygon fill="black" stroke="black" points="210.07,-526.62 216.33,-518.08 206.1,-520.85 210.07,-526.62"/>
<text text-anchor="middle" x="231.5" y="-539.8" font-family="Helvetica,sans-Serif" font-size="14.00">Not found</text>
</g>
<!-- handle_union&#45;&gt;check_field_exists -->
<g id="edge14" class="edge">
<title>handle_union&#45;&gt;check_field_exists</title>
<path fill="none" stroke="black" d="M279.18,-518.38C277.59,-528.84 274.1,-541.84 266.5,-551 262.62,-555.67 257.96,-559.78 252.91,-563.37"/>
<polygon fill="black" stroke="black" points="250.69,-560.63 244.11,-568.94 254.43,-566.55 250.69,-560.63"/>
</g>
<!-- handle_type -->
<g id="node12" class="node">
<title>handle_type</title>
<path fill="none" stroke="black" d="M338.5,-431C338.5,-431 222.5,-431 222.5,-431 216.5,-431 210.5,-425 210.5,-419 210.5,-419 210.5,-405 210.5,-405 210.5,-399 216.5,-393 222.5,-393 222.5,-393 338.5,-393 338.5,-393 344.5,-393 350.5,-399 350.5,-405 350.5,-405 350.5,-419 350.5,-419 350.5,-425 344.5,-431 338.5,-431"/>
<text text-anchor="middle" x="280.5" y="-415.8" font-family="Helvetica,sans-Serif" font-size="14.00">Handle type case</text>
<text text-anchor="middle" x="280.5" y="-400.8" font-family="Helvetica,sans-Serif" font-size="14.00">(load namespace)</text>
</g>
<!-- handle_union&#45;&gt;handle_type -->
<g id="edge15" class="edge">
<title>handle_union&#45;&gt;handle_type</title>
<path fill="none" stroke="black" d="M280.5,-481.6C280.5,-470.06 280.5,-454.65 280.5,-441.36"/>
<polygon fill="black" stroke="black" points="284,-441.27 280.5,-431.27 277,-441.27 284,-441.27"/>
<text text-anchor="middle" x="314.5" y="-452.8" font-family="Helvetica,sans-Serif" font-size="14.00">Not union</text>
</g>
<!-- check_namespace -->
<g id="node13" class="node">
<title>check_namespace</title>
<path fill="none" stroke="black" d="M368.5,-356C368.5,-356 192.5,-356 192.5,-356 186.5,-356 180.5,-350 180.5,-344 180.5,-344 180.5,-332 180.5,-332 180.5,-326 186.5,-320 192.5,-320 192.5,-320 368.5,-320 368.5,-320 374.5,-320 380.5,-326 380.5,-332 380.5,-332 380.5,-344 380.5,-344 380.5,-350 374.5,-356 368.5,-356"/>
<text text-anchor="middle" x="280.5" y="-334.3" font-family="Helvetica,sans-Serif" font-size="14.00">Check namespace for decl</text>
</g>
<!-- handle_type&#45;&gt;check_namespace -->
<g id="edge16" class="edge">
<title>handle_type&#45;&gt;check_namespace</title>
<path fill="none" stroke="black" d="M280.5,-392.83C280.5,-384.89 280.5,-375.41 280.5,-366.63"/>
<polygon fill="black" stroke="black" points="284,-366.42 280.5,-356.42 277,-366.42 284,-366.42"/>
</g>
<!-- check_method_params -->
<g id="node14" class="node">
<title>check_method_params</title>
<path fill="none" stroke="black" d="M316.5,-269C316.5,-269 138.5,-269 138.5,-269 132.5,-269 126.5,-263 126.5,-257 126.5,-257 126.5,-245 126.5,-245 126.5,-239 132.5,-233 138.5,-233 138.5,-233 316.5,-233 316.5,-233 322.5,-233 328.5,-239 328.5,-245 328.5,-245 328.5,-257 328.5,-257 328.5,-263 322.5,-269 316.5,-269"/>
<text text-anchor="middle" x="227.5" y="-247.3" font-family="Helvetica,sans-Serif" font-size="14.00">Check method parameters</text>
</g>
<!-- check_namespace&#45;&gt;check_method_params -->
<g id="edge17" class="edge">
<title>check_namespace&#45;&gt;check_method_params</title>
<path fill="none" stroke="black" d="M269.77,-319.8C262.23,-307.7 252.01,-291.3 243.5,-277.67"/>
<polygon fill="black" stroke="black" points="246.47,-275.81 238.21,-269.18 240.53,-279.51 246.47,-275.81"/>
<text text-anchor="middle" x="295.5" y="-290.8" font-family="Helvetica,sans-Serif" font-size="14.00">Found decl</text>
</g>
<!-- build_error -->
<g id="node16" class="node">
<title>build_error</title>
<path fill="none" stroke="black" d="M426.5,-182C426.5,-182 294.5,-182 294.5,-182 288.5,-182 282.5,-176 282.5,-170 282.5,-170 282.5,-158 282.5,-158 282.5,-152 288.5,-146 294.5,-146 294.5,-146 426.5,-146 426.5,-146 432.5,-146 438.5,-152 438.5,-158 438.5,-158 438.5,-170 438.5,-170 438.5,-176 432.5,-182 426.5,-182"/>
<text text-anchor="middle" x="360.5" y="-160.3" font-family="Helvetica,sans-Serif" font-size="14.00">Build error message</text>
</g>
<!-- check_namespace&#45;&gt;build_error -->
<g id="edge18" class="edge">
<title>check_namespace&#45;&gt;build_error</title>
<path fill="none" stroke="black" d="M318.68,-319.89C325.91,-315.06 332.7,-309.13 337.5,-302 359.71,-269.05 362.86,-221.76 362.28,-192.24"/>
<polygon fill="black" stroke="black" points="365.78,-192.1 361.93,-182.23 358.78,-192.35 365.78,-192.1"/>
<text text-anchor="middle" x="394.5" y="-247.3" font-family="Helvetica,sans-Serif" font-size="14.00">Not found</text>
</g>
<!-- return_method -->
<g id="node15" class="node">
<title>return_method</title>
<path fill="none" stroke="black" d="M208,-182C208,-182 55,-182 55,-182 49,-182 43,-176 43,-170 43,-170 43,-158 43,-158 43,-152 49,-146 55,-146 55,-146 208,-146 208,-146 214,-146 220,-152 220,-158 220,-158 220,-170 220,-170 220,-176 214,-182 208,-182"/>
<text text-anchor="middle" x="131.5" y="-160.3" font-family="Helvetica,sans-Serif" font-size="14.00">Return method binding</text>
</g>
<!-- check_method_params&#45;&gt;return_method -->
<g id="edge19" class="edge">
<title>check_method_params&#45;&gt;return_method</title>
<path fill="none" stroke="black" d="M152.77,-232.93C144.87,-228.31 137.8,-222.44 132.5,-215 127.88,-208.51 126.44,-200.25 126.5,-192.32"/>
<polygon fill="black" stroke="black" points="130,-192.5 127.3,-182.26 123.02,-191.95 130,-192.5"/>
<text text-anchor="middle" x="178" y="-203.8" font-family="Helvetica,sans-Serif" font-size="14.00">Valid params</text>
</g>
<!-- check_method_params&#45;&gt;build_error -->
<g id="edge20" class="edge">
<title>check_method_params&#45;&gt;build_error</title>
<path fill="none" stroke="black" d="M230.15,-232.55C232.64,-221.81 237.42,-208.51 246.5,-200 254.17,-192.81 263.28,-187.1 272.97,-182.56"/>
<polygon fill="black" stroke="black" points="274.56,-185.69 282.39,-178.56 271.82,-179.24 274.56,-185.69"/>
<text text-anchor="middle" x="298.5" y="-203.8" font-family="Helvetica,sans-Serif" font-size="14.00">Invalid params</text>
</g>
<!-- error_notes -->
<g id="node17" class="node">
<title>error_notes</title>
<path fill="none" stroke="black" d="M422.5,-109C422.5,-109 322.5,-109 322.5,-109 316.5,-109 310.5,-103 310.5,-97 310.5,-97 310.5,-85 310.5,-85 310.5,-79 316.5,-73 322.5,-73 322.5,-73 422.5,-73 422.5,-73 428.5,-73 434.5,-79 434.5,-85 434.5,-85 434.5,-97 434.5,-97 434.5,-103 428.5,-109 422.5,-109"/>
<text text-anchor="middle" x="372.5" y="-87.3" font-family="Helvetica,sans-Serif" font-size="14.00">Add error notes</text>
</g>
<!-- build_error&#45;&gt;error_notes -->
<g id="edge21" class="edge">
<title>build_error&#45;&gt;error_notes</title>
<path fill="none" stroke="black" d="M363.4,-145.81C364.76,-137.79 366.41,-128.05 367.92,-119.07"/>
<polygon fill="black" stroke="black" points="371.41,-119.47 369.62,-109.03 364.5,-118.31 371.41,-119.47"/>
</g>
<!-- error_notes&#45;&gt;return_error -->
<g id="edge22" class="edge">
<title>error_notes&#45;&gt;return_error</title>
<path fill="none" stroke="black" d="M383.88,-72.81C389.48,-64.35 396.34,-53.98 402.55,-44.61"/>
<polygon fill="black" stroke="black" points="405.63,-46.3 408.23,-36.03 399.79,-42.44 405.63,-46.3"/>
</g>
</g>
</svg>
