<?xml version="1.0" encoding="UTF-8" standalone="no"?>
<!DOCTYPE svg PUBLIC "-//W3C//DTD SVG 1.1//EN"
 "http://www.w3.org/Graphics/SVG/1.1/DTD/svg11.dtd">
<!-- Generated by graphviz version 2.43.0 (0)
 -->
<!-- Title: flowchart Pages: 1 -->
<svg width="482pt" height="994pt"
 viewBox="0.00 0.00 481.52 994.00" xmlns="http://www.w3.org/2000/svg" xmlns:xlink="http://www.w3.org/1999/xlink">
<g id="graph0" class="graph" transform="scale(1 1) rotate(0) translate(4 990)">
<title>flowchart</title>
<polygon fill="white" stroke="transparent" points="-4,4 -4,-990 477.52,-990 477.52,4 -4,4"/>
<!-- start -->
<g id="node1" class="node">
<title>start</title>
<path fill="none" stroke="black" d="M202.52,-986C202.52,-986 93.52,-986 93.52,-986 87.52,-986 81.52,-980 81.52,-974 81.52,-974 81.52,-962 81.52,-962 81.52,-956 87.52,-950 93.52,-950 93.52,-950 202.52,-950 202.52,-950 208.52,-950 214.52,-956 214.52,-962 214.52,-962 214.52,-974 214.52,-974 214.52,-980 208.52,-986 202.52,-986"/>
<text text-anchor="middle" x="148.02" y="-964.3" font-family="Arial" font-size="14.00">开始 finishStructInit</text>
</g>
<!-- check_type -->
<g id="node2" class="node">
<title>check_type</title>
<path fill="none" stroke="black" d="M201.52,-913C201.52,-913 94.52,-913 94.52,-913 88.52,-913 82.52,-907 82.52,-901 82.52,-901 82.52,-889 82.52,-889 82.52,-883 88.52,-877 94.52,-877 94.52,-877 201.52,-877 201.52,-877 207.52,-877 213.52,-883 213.52,-889 213.52,-889 213.52,-901 213.52,-901 213.52,-907 207.52,-913 201.52,-913"/>
<text text-anchor="middle" x="148.02" y="-891.3" font-family="Arial" font-size="14.00">检查 struct_ty 类型</text>
</g>
<!-- start&#45;&gt;check_type -->
<g id="edge1" class="edge">
<title>start&#45;&gt;check_type</title>
<path fill="none" stroke="black" d="M148.02,-949.81C148.02,-941.79 148.02,-932.05 148.02,-923.07"/>
<polygon fill="black" stroke="black" points="151.52,-923.03 148.02,-913.03 144.52,-923.03 151.52,-923.03"/>
</g>
<!-- tuple_type -->
<g id="node3" class="node">
<title>tuple_type</title>
<path fill="none" stroke="black" d="M139.02,-772C139.02,-772 61.02,-772 61.02,-772 55.02,-772 49.02,-766 49.02,-760 49.02,-760 49.02,-748 49.02,-748 49.02,-742 55.02,-736 61.02,-736 61.02,-736 139.02,-736 139.02,-736 145.02,-736 151.02,-742 151.02,-748 151.02,-748 151.02,-760 151.02,-760 151.02,-766 145.02,-772 139.02,-772"/>
<text text-anchor="middle" x="100.02" y="-750.3" font-family="Arial" font-size="14.00">处理元组类型</text>
</g>
<!-- check_type&#45;&gt;tuple_type -->
<g id="edge2" class="edge">
<title>check_type&#45;&gt;tuple_type</title>
<path fill="none" stroke="black" d="M117.37,-876.89C111.22,-871.95 105.56,-865.98 102.02,-859 89.93,-835.2 91.14,-804.21 94.31,-782.27"/>
<polygon fill="black" stroke="black" points="97.78,-782.74 95.98,-772.3 90.88,-781.58 97.78,-782.74"/>
<text text-anchor="middle" x="133.52" y="-847.8" font-family="Arial" font-size="14.00">tuple_type</text>
</g>
<!-- struct_type -->
<g id="node4" class="node">
<title>struct_type</title>
<path fill="none" stroke="black" d="M240.02,-826C240.02,-826 148.02,-826 148.02,-826 142.02,-826 136.02,-820 136.02,-814 136.02,-814 136.02,-802 136.02,-802 136.02,-796 142.02,-790 148.02,-790 148.02,-790 240.02,-790 240.02,-790 246.02,-790 252.02,-796 252.02,-802 252.02,-802 252.02,-814 252.02,-814 252.02,-820 246.02,-826 240.02,-826"/>
<text text-anchor="middle" x="194.02" y="-804.3" font-family="Arial" font-size="14.00">处理结构体类型</text>
</g>
<!-- check_type&#45;&gt;struct_type -->
<g id="edge3" class="edge">
<title>check_type&#45;&gt;struct_type</title>
<path fill="none" stroke="black" d="M158.75,-876.71C162.13,-871.11 165.81,-864.84 169.02,-859 173.16,-851.46 177.42,-843.15 181.24,-835.51"/>
<polygon fill="black" stroke="black" points="184.5,-836.81 185.78,-826.29 178.22,-833.72 184.5,-836.81"/>
<text text-anchor="middle" x="209.52" y="-847.8" font-family="Arial" font-size="14.00">struct_type</text>
</g>
<!-- check_missing_fields -->
<g id="node6" class="node">
<title>check_missing_fields</title>
<path fill="none" stroke="black" d="M141.02,-645C141.02,-645 63.02,-645 63.02,-645 57.02,-645 51.02,-639 51.02,-633 51.02,-633 51.02,-621 51.02,-621 51.02,-615 57.02,-609 63.02,-609 63.02,-609 141.02,-609 141.02,-609 147.02,-609 153.02,-615 153.02,-621 153.02,-621 153.02,-633 153.02,-633 153.02,-639 147.02,-645 141.02,-645"/>
<text text-anchor="middle" x="102.02" y="-623.3" font-family="Arial" font-size="14.00">检查缺失字段</text>
</g>
<!-- tuple_type&#45;&gt;check_missing_fields -->
<g id="edge4" class="edge">
<title>tuple_type&#45;&gt;check_missing_fields</title>
<path fill="none" stroke="black" d="M100.29,-735.88C100.62,-715.15 101.19,-679.95 101.58,-655.42"/>
<polygon fill="black" stroke="black" points="105.08,-655.37 101.74,-645.31 98.08,-655.26 105.08,-655.37"/>
</g>
<!-- resolve_fields -->
<g id="node5" class="node">
<title>resolve_fields</title>
<path fill="none" stroke="black" d="M264.52,-718C264.52,-718 129.52,-718 129.52,-718 123.52,-718 117.52,-712 117.52,-706 117.52,-706 117.52,-694 117.52,-694 117.52,-688 123.52,-682 129.52,-682 129.52,-682 264.52,-682 264.52,-682 270.52,-682 276.52,-688 276.52,-694 276.52,-694 276.52,-706 276.52,-706 276.52,-712 270.52,-718 264.52,-718"/>
<text text-anchor="middle" x="197.02" y="-696.3" font-family="Arial" font-size="14.00">解析结构体字段初始化</text>
</g>
<!-- struct_type&#45;&gt;resolve_fields -->
<g id="edge5" class="edge">
<title>struct_type&#45;&gt;resolve_fields</title>
<path fill="none" stroke="black" d="M194.5,-789.97C194.97,-773.38 195.69,-747.88 196.24,-728.43"/>
<polygon fill="black" stroke="black" points="199.74,-728.44 196.53,-718.34 192.75,-728.24 199.74,-728.44"/>
</g>
<!-- resolve_fields&#45;&gt;check_missing_fields -->
<g id="edge6" class="edge">
<title>resolve_fields&#45;&gt;check_missing_fields</title>
<path fill="none" stroke="black" d="M174.02,-681.81C161.65,-672.57 146.23,-661.04 132.84,-651.03"/>
<polygon fill="black" stroke="black" points="134.91,-648.21 124.8,-645.03 130.72,-653.82 134.91,-648.21"/>
</g>
<!-- collect_errors -->
<g id="node7" class="node">
<title>collect_errors</title>
<path fill="none" stroke="black" d="M92.02,-504C92.02,-504 14.02,-504 14.02,-504 8.02,-504 2.02,-498 2.02,-492 2.02,-492 2.02,-480 2.02,-480 2.02,-474 8.02,-468 14.02,-468 14.02,-468 92.02,-468 92.02,-468 98.02,-468 104.02,-474 104.02,-480 104.02,-480 104.02,-492 104.02,-492 104.02,-498 98.02,-504 92.02,-504"/>
<text text-anchor="middle" x="53.02" y="-482.3" font-family="Arial" font-size="14.00">收集错误信息</text>
</g>
<!-- check_missing_fields&#45;&gt;collect_errors -->
<g id="edge7" class="edge">
<title>check_missing_fields&#45;&gt;collect_errors</title>
<path fill="none" stroke="black" d="M70.23,-608.62C64.13,-603.75 58.55,-597.88 55.02,-591 42.81,-567.26 44.03,-536.26 47.25,-514.3"/>
<polygon fill="black" stroke="black" points="50.72,-514.76 48.93,-504.32 43.82,-513.6 50.72,-514.76"/>
<text text-anchor="middle" x="91.02" y="-579.8" font-family="Arial" font-size="14.00">有缺失字段</text>
</g>
<!-- check_runtime -->
<g id="node8" class="node">
<title>check_runtime</title>
<path fill="none" stroke="black" d="M200.02,-558C200.02,-558 108.02,-558 108.02,-558 102.02,-558 96.02,-552 96.02,-546 96.02,-546 96.02,-534 96.02,-534 96.02,-528 102.02,-522 108.02,-522 108.02,-522 200.02,-522 200.02,-522 206.02,-522 212.02,-528 212.02,-534 212.02,-534 212.02,-546 212.02,-546 212.02,-552 206.02,-558 200.02,-558"/>
<text text-anchor="middle" x="154.02" y="-536.3" font-family="Arial" font-size="14.00">检查运行时字段</text>
</g>
<!-- check_missing_fields&#45;&gt;check_runtime -->
<g id="edge9" class="edge">
<title>check_missing_fields&#45;&gt;check_runtime</title>
<path fill="none" stroke="black" d="M117.71,-608.88C122.32,-603.39 127.15,-597.15 131.02,-591 135.6,-583.72 139.8,-575.38 143.32,-567.62"/>
<polygon fill="black" stroke="black" points="146.63,-568.8 147.4,-558.24 140.21,-566.01 146.63,-568.8"/>
<text text-anchor="middle" x="161.52" y="-579.8" font-family="Arial" font-size="14.00">无缺失</text>
</g>
<!-- error_handling -->
<g id="node17" class="node">
<title>error_handling</title>
<path fill="none" stroke="black" d="M56.42,-373.93C56.42,-373.93 11.58,-362.07 11.58,-362.07 5.78,-360.53 5.78,-357.47 11.58,-355.93 11.58,-355.93 56.42,-344.07 56.42,-344.07 62.22,-342.53 73.82,-342.53 79.62,-344.07 79.62,-344.07 124.45,-355.93 124.45,-355.93 130.25,-357.47 130.25,-360.53 124.45,-362.07 124.45,-362.07 79.62,-373.93 79.62,-373.93 73.82,-375.47 62.22,-375.47 56.42,-373.93"/>
<text text-anchor="middle" x="68.02" y="-355.3" font-family="Arial" font-size="14.00">错误处理</text>
</g>
<!-- collect_errors&#45;&gt;error_handling -->
<g id="edge8" class="edge">
<title>collect_errors&#45;&gt;error_handling</title>
<path fill="none" stroke="black" d="M55.07,-467.88C57.59,-446.91 61.88,-411.16 64.83,-386.6"/>
<polygon fill="black" stroke="black" points="68.32,-386.86 66.04,-376.51 61.37,-386.03 68.32,-386.86"/>
</g>
<!-- handle_comptime -->
<g id="node9" class="node">
<title>handle_comptime</title>
<path fill="none" stroke="black" d="M221.52,-450C221.52,-450 86.52,-450 86.52,-450 80.52,-450 74.52,-444 74.52,-438 74.52,-438 74.52,-426 74.52,-426 74.52,-420 80.52,-414 86.52,-414 86.52,-414 221.52,-414 221.52,-414 227.52,-414 233.52,-420 233.52,-426 233.52,-426 233.52,-438 233.52,-438 233.52,-444 227.52,-450 221.52,-450"/>
<text text-anchor="middle" x="154.02" y="-428.3" font-family="Arial" font-size="14.00">处理仅编译时类型错误</text>
</g>
<!-- check_runtime&#45;&gt;handle_comptime -->
<g id="edge10" class="edge">
<title>check_runtime&#45;&gt;handle_comptime</title>
<path fill="none" stroke="black" d="M154.02,-521.97C154.02,-505.38 154.02,-479.88 154.02,-460.43"/>
<polygon fill="black" stroke="black" points="157.52,-460.34 154.02,-450.34 150.52,-460.34 157.52,-460.34"/>
<text text-anchor="middle" x="190.02" y="-482.3" font-family="Arial" font-size="14.00">需要编译时</text>
</g>
<!-- runtime_validation -->
<g id="node10" class="node">
<title>runtime_validation</title>
<path fill="none" stroke="black" d="M341.02,-450C341.02,-450 263.02,-450 263.02,-450 257.02,-450 251.02,-444 251.02,-438 251.02,-438 251.02,-426 251.02,-426 251.02,-420 257.02,-414 263.02,-414 263.02,-414 341.02,-414 341.02,-414 347.02,-414 353.02,-420 353.02,-426 353.02,-426 353.02,-438 353.02,-438 353.02,-444 347.02,-450 341.02,-450"/>
<text text-anchor="middle" x="302.02" y="-428.3" font-family="Arial" font-size="14.00">验证运行时值</text>
</g>
<!-- check_runtime&#45;&gt;runtime_validation -->
<g id="edge11" class="edge">
<title>check_runtime&#45;&gt;runtime_validation</title>
<path fill="none" stroke="black" d="M198.04,-521.86C208.9,-516.8 220.22,-510.77 230.02,-504 248.9,-490.94 267.28,-472.7 280.75,-457.97"/>
<polygon fill="black" stroke="black" points="283.63,-459.99 287.69,-450.21 278.41,-455.33 283.63,-459.99"/>
<text text-anchor="middle" x="305.02" y="-482.3" font-family="Arial" font-size="14.00">允许运行时</text>
</g>
<!-- handle_comptime&#45;&gt;error_handling -->
<g id="edge12" class="edge">
<title>handle_comptime&#45;&gt;error_handling</title>
<path fill="none" stroke="black" d="M133.2,-413.81C120.72,-403.51 104.81,-390.38 91.83,-379.66"/>
<polygon fill="black" stroke="black" points="93.73,-376.69 83.79,-373.03 89.28,-382.09 93.73,-376.69"/>
</g>
<!-- is_ref_check -->
<g id="node11" class="node">
<title>is_ref_check</title>
<path fill="none" stroke="black" d="M346.52,-377C346.52,-377 257.52,-377 257.52,-377 251.52,-377 245.52,-371 245.52,-365 245.52,-365 245.52,-353 245.52,-353 245.52,-347 251.52,-341 257.52,-341 257.52,-341 346.52,-341 346.52,-341 352.52,-341 358.52,-347 358.52,-353 358.52,-353 358.52,-365 358.52,-365 358.52,-371 352.52,-377 346.52,-377"/>
<text text-anchor="middle" x="302.02" y="-355.3" font-family="Arial" font-size="14.00">检查 is_ref 标志</text>
</g>
<!-- runtime_validation&#45;&gt;is_ref_check -->
<g id="edge13" class="edge">
<title>runtime_validation&#45;&gt;is_ref_check</title>
<path fill="none" stroke="black" d="M302.02,-413.81C302.02,-405.79 302.02,-396.05 302.02,-387.07"/>
<polygon fill="black" stroke="black" points="305.52,-387.03 302.02,-377.03 298.52,-387.03 305.52,-387.03"/>
</g>
<!-- alloc_memory -->
<g id="node12" class="node">
<title>alloc_memory</title>
<path fill="none" stroke="black" d="M312.52,-290C312.52,-290 177.52,-290 177.52,-290 171.52,-290 165.52,-284 165.52,-278 165.52,-278 165.52,-266 165.52,-266 165.52,-260 171.52,-254 177.52,-254 177.52,-254 312.52,-254 312.52,-254 318.52,-254 324.52,-260 324.52,-266 324.52,-266 324.52,-278 324.52,-278 324.52,-284 318.52,-290 312.52,-290"/>
<text text-anchor="middle" x="245.02" y="-268.3" font-family="Arial" font-size="14.00">分配内存并初始化指针</text>
</g>
<!-- is_ref_check&#45;&gt;alloc_memory -->
<g id="edge14" class="edge">
<title>is_ref_check&#45;&gt;alloc_memory</title>
<path fill="none" stroke="black" d="M290.48,-340.8C282.37,-328.7 271.38,-312.3 262.23,-298.67"/>
<polygon fill="black" stroke="black" points="265.01,-296.53 256.54,-290.18 259.2,-300.43 265.01,-296.53"/>
<text text-anchor="middle" x="288.02" y="-311.8" font-family="Arial" font-size="14.00">true</text>
</g>
<!-- handle_runtime -->
<g id="node15" class="node">
<title>handle_runtime</title>
<path fill="none" stroke="black" d="M461.52,-290C461.52,-290 354.52,-290 354.52,-290 348.52,-290 342.52,-284 342.52,-278 342.52,-278 342.52,-266 342.52,-266 342.52,-260 348.52,-254 354.52,-254 354.52,-254 461.52,-254 461.52,-254 467.52,-254 473.52,-260 473.52,-266 473.52,-266 473.52,-278 473.52,-278 473.52,-284 467.52,-290 461.52,-290"/>
<text text-anchor="middle" x="408.02" y="-268.3" font-family="Arial" font-size="14.00">处理运行时初始化</text>
</g>
<!-- is_ref_check&#45;&gt;handle_runtime -->
<g id="edge18" class="edge">
<title>is_ref_check&#45;&gt;handle_runtime</title>
<path fill="none" stroke="black" d="M323.47,-340.8C339.27,-328.13 360.96,-310.73 378.42,-296.74"/>
<polygon fill="black" stroke="black" points="380.99,-299.16 386.6,-290.18 376.61,-293.7 380.99,-299.16"/>
<text text-anchor="middle" x="375.52" y="-311.8" font-family="Arial" font-size="14.00">false</text>
</g>
<!-- store_fields -->
<g id="node13" class="node">
<title>store_fields</title>
<path fill="none" stroke="black" d="M345.02,-217C345.02,-217 281.02,-217 281.02,-217 275.02,-217 269.02,-211 269.02,-205 269.02,-205 269.02,-193 269.02,-193 269.02,-187 275.02,-181 281.02,-181 281.02,-181 345.02,-181 345.02,-181 351.02,-181 357.02,-187 357.02,-193 357.02,-193 357.02,-205 357.02,-205 357.02,-211 351.02,-217 345.02,-217"/>
<text text-anchor="middle" x="313.02" y="-195.3" font-family="Arial" font-size="14.00">存储字段值</text>
</g>
<!-- alloc_memory&#45;&gt;store_fields -->
<g id="edge15" class="edge">
<title>alloc_memory&#45;&gt;store_fields</title>
<path fill="none" stroke="black" d="M261.48,-253.81C269.91,-245 280.33,-234.13 289.59,-224.46"/>
<polygon fill="black" stroke="black" points="292.32,-226.67 296.71,-217.03 287.26,-221.83 292.32,-226.67"/>
</g>
<!-- return_ref -->
<g id="node14" class="node">
<title>return_ref</title>
<path fill="none" stroke="black" d="M343.02,-109C343.02,-109 293.02,-109 293.02,-109 287.02,-109 281.02,-103 281.02,-97 281.02,-97 281.02,-85 281.02,-85 281.02,-79 287.02,-73 293.02,-73 293.02,-73 343.02,-73 343.02,-73 349.02,-73 355.02,-79 355.02,-85 355.02,-85 355.02,-97 355.02,-97 355.02,-103 349.02,-109 343.02,-109"/>
<text text-anchor="middle" x="318.02" y="-87.3" font-family="Arial" font-size="14.00">返回引用</text>
</g>
<!-- store_fields&#45;&gt;return_ref -->
<g id="edge16" class="edge">
<title>store_fields&#45;&gt;return_ref</title>
<path fill="none" stroke="black" d="M313.82,-180.97C314.6,-164.38 315.81,-138.88 316.72,-119.43"/>
<polygon fill="black" stroke="black" points="320.22,-119.49 317.2,-109.34 313.23,-119.16 320.22,-119.49"/>
</g>
<!-- end_ok -->
<g id="node19" class="node">
<title>end_ok</title>
<ellipse fill="none" stroke="black" cx="353.02" cy="-18" rx="48.19" ry="18"/>
<text text-anchor="middle" x="353.02" y="-14.3" font-family="Arial" font-size="14.00">返回成功</text>
</g>
<!-- return_ref&#45;&gt;end_ok -->
<g id="edge17" class="edge">
<title>return_ref&#45;&gt;end_ok</title>
<path fill="none" stroke="black" d="M326.49,-72.81C330.57,-64.53 335.56,-54.41 340.11,-45.19"/>
<polygon fill="black" stroke="black" points="343.34,-46.55 344.62,-36.03 337.06,-43.45 343.34,-46.55"/>
</g>
<!-- return_result -->
<g id="node16" class="node">
<title>return_result</title>
<path fill="none" stroke="black" d="M417.02,-163C417.02,-163 367.02,-163 367.02,-163 361.02,-163 355.02,-157 355.02,-151 355.02,-151 355.02,-139 355.02,-139 355.02,-133 361.02,-127 367.02,-127 367.02,-127 417.02,-127 417.02,-127 423.02,-127 429.02,-133 429.02,-139 429.02,-139 429.02,-151 429.02,-151 429.02,-157 423.02,-163 417.02,-163"/>
<text text-anchor="middle" x="392.02" y="-141.3" font-family="Arial" font-size="14.00">返回结果</text>
</g>
<!-- handle_runtime&#45;&gt;return_result -->
<g id="edge19" class="edge">
<title>handle_runtime&#45;&gt;return_result</title>
<path fill="none" stroke="black" d="M405.83,-253.88C403.17,-233.15 398.67,-197.95 395.53,-173.42"/>
<polygon fill="black" stroke="black" points="398.98,-172.79 394.23,-163.31 392.03,-173.68 398.98,-172.79"/>
</g>
<!-- return_result&#45;&gt;end_ok -->
<g id="edge20" class="edge">
<title>return_result&#45;&gt;end_ok</title>
<path fill="none" stroke="black" d="M386.68,-126.88C380.14,-105.94 369,-70.24 361.34,-45.68"/>
<polygon fill="black" stroke="black" points="364.61,-44.42 358.29,-35.91 357.93,-46.5 364.61,-44.42"/>
</g>
<!-- end_error -->
<g id="node18" class="node">
<title>end_error</title>
<ellipse fill="none" stroke="black" cx="68.02" cy="-272" rx="48.19" ry="18"/>
<text text-anchor="middle" x="68.02" y="-268.3" font-family="Arial" font-size="14.00">返回错误</text>
</g>
<!-- error_handling&#45;&gt;end_error -->
<g id="edge21" class="edge">
<title>error_handling&#45;&gt;end_error</title>
<path fill="none" stroke="black" d="M68.02,-340.8C68.02,-329.16 68.02,-313.55 68.02,-300.24"/>
<polygon fill="black" stroke="black" points="71.52,-300.18 68.02,-290.18 64.52,-300.18 71.52,-300.18"/>
</g>
</g>
</svg>
