<?xml version="1.0" encoding="UTF-8" standalone="no"?>
<!DOCTYPE svg PUBLIC "-//W3C//DTD SVG 1.1//EN"
 "http://www.w3.org/Graphics/SVG/1.1/DTD/svg11.dtd">
<!-- Generated by graphviz version 2.43.0 (0)
 -->
<!-- Title: flowchart Pages: 1 -->
<svg width="716pt" height="750pt"
 viewBox="0.00 0.00 715.55 750.00" xmlns="http://www.w3.org/2000/svg" xmlns:xlink="http://www.w3.org/1999/xlink">
<g id="graph0" class="graph" transform="scale(1 1) rotate(0) translate(4 746)">
<title>flowchart</title>
<polygon fill="white" stroke="transparent" points="-4,4 -4,-746 711.55,-746 711.55,4 -4,4"/>
<!-- start -->
<g id="node1" class="node">
<title>start</title>
<polygon fill="none" stroke="black" points="313.51,-742 146.51,-742 146.51,-706 313.51,-706 313.51,-742"/>
<text text-anchor="middle" x="230.01" y="-721.5" font-family="Courier,monospace" font-size="10.00">开始 resolveSwitchComptime</text>
</g>
<!-- resolve_val -->
<g id="node2" class="node">
<title>resolve_val</title>
<polygon fill="none" stroke="black" points="310.51,-669 149.51,-669 149.51,-633 310.51,-633 310.51,-669"/>
<text text-anchor="middle" x="230.01" y="-648.5" font-family="Courier,monospace" font-size="10.00">解析 resolved_operand_val</text>
</g>
<!-- start&#45;&gt;resolve_val -->
<g id="edge1" class="edge">
<title>start&#45;&gt;resolve_val</title>
<path fill="none" stroke="black" d="M230.01,-705.81C230.01,-697.79 230.01,-688.05 230.01,-679.07"/>
<polygon fill="black" stroke="black" points="233.51,-679.03 230.01,-669.03 226.51,-679.03 233.51,-679.03"/>
</g>
<!-- scalar_loop -->
<g id="node3" class="node">
<title>scalar_loop</title>
<polygon fill="none" stroke="black" points="331.51,-596 128.51,-596 128.51,-560 331.51,-560 331.51,-596"/>
<text text-anchor="middle" x="230.01" y="-575.5" font-family="Courier,monospace" font-size="10.00">循环 scalar_i &lt; scalar_cases_len</text>
</g>
<!-- resolve_val&#45;&gt;scalar_loop -->
<g id="edge2" class="edge">
<title>resolve_val&#45;&gt;scalar_loop</title>
<path fill="none" stroke="black" d="M230.01,-632.81C230.01,-624.79 230.01,-615.05 230.01,-606.07"/>
<polygon fill="black" stroke="black" points="233.51,-606.03 230.01,-596.03 226.51,-606.03 233.51,-606.03"/>
</g>
<!-- check_scalar -->
<g id="node4" class="node">
<title>check_scalar</title>
<polygon fill="none" stroke="black" points="154.01,-502 -0.01,-484 154.01,-466 308.03,-484 154.01,-502"/>
<text text-anchor="middle" x="154.01" y="-481.5" font-family="Courier,monospace" font-size="10.00">检查 operand_val == item_val?</text>
</g>
<!-- scalar_loop&#45;&gt;check_scalar -->
<g id="edge3" class="edge">
<title>scalar_loop&#45;&gt;check_scalar</title>
<path fill="none" stroke="black" d="M229.33,-559.76C228.06,-547.58 224.69,-531.45 216.01,-520 211.02,-513.42 204.42,-507.89 197.38,-503.31"/>
<polygon fill="black" stroke="black" points="198.71,-500.04 188.31,-498.02 195.18,-506.09 198.71,-500.04"/>
</g>
<!-- multi_loop -->
<g id="node6" class="node">
<title>multi_loop</title>
<polygon fill="none" stroke="black" points="522.51,-502 331.51,-502 331.51,-466 522.51,-466 522.51,-502"/>
<text text-anchor="middle" x="427.01" y="-481.5" font-family="Courier,monospace" font-size="10.00">循环 multi_i &lt; multi_cases_len</text>
</g>
<!-- scalar_loop&#45;&gt;multi_loop -->
<g id="edge6" class="edge">
<title>scalar_loop&#45;&gt;multi_loop</title>
<path fill="none" stroke="black" d="M266.6,-559.91C298.85,-544.85 345.97,-522.85 380.8,-506.58"/>
<polygon fill="black" stroke="black" points="382.7,-509.56 390.28,-502.15 379.74,-503.21 382.7,-509.56"/>
<text text-anchor="middle" x="435.51" y="-528.5" font-family="Courier,monospace" font-size="10.00">scalar_i &gt;= scalar_cases_len</text>
</g>
<!-- check_scalar&#45;&gt;scalar_loop -->
<g id="edge5" class="edge">
<title>check_scalar&#45;&gt;scalar_loop</title>
<path fill="none" stroke="black" d="M148.26,-501.57C145.12,-513.73 143.28,-530.12 151.01,-542 153.95,-546.52 157.63,-550.46 161.77,-553.9"/>
<polygon fill="black" stroke="black" points="160.06,-556.97 170.24,-559.9 164.1,-551.26 160.06,-556.97"/>
<text text-anchor="middle" x="181.51" y="-534" font-family="Courier,monospace" font-size="10.00">否</text>
<text text-anchor="middle" x="181.51" y="-523" font-family="Courier,monospace" font-size="10.00">scalar_i++</text>
</g>
<!-- handle_scalar_match -->
<g id="node5" class="node">
<title>handle_scalar_match</title>
<polygon fill="none" stroke="black" points="188.51,-365 27.51,-365 27.51,-329 188.51,-329 188.51,-365"/>
<text text-anchor="middle" x="108.01" y="-350" font-family="Courier,monospace" font-size="10.00">处理 scalar 匹配</text>
<text text-anchor="middle" x="108.01" y="-339" font-family="Courier,monospace" font-size="10.00">返回 resolveProngComptime</text>
</g>
<!-- check_scalar&#45;&gt;handle_scalar_match -->
<g id="edge4" class="edge">
<title>check_scalar&#45;&gt;handle_scalar_match</title>
<path fill="none" stroke="black" d="M148.37,-466.45C140.59,-443.6 126.45,-402.12 117.15,-374.82"/>
<polygon fill="black" stroke="black" points="120.38,-373.45 113.84,-365.11 113.76,-375.71 120.38,-373.45"/>
<text text-anchor="middle" x="147.01" y="-440" font-family="Courier,monospace" font-size="10.00">是</text>
</g>
<!-- end -->
<g id="node17" class="node">
<title>end</title>
<polygon fill="none" stroke="black" points="389.01,-36 335.01,-36 335.01,0 389.01,0 389.01,-36"/>
<text text-anchor="middle" x="362.01" y="-15.5" font-family="Courier,monospace" font-size="10.00">结束</text>
</g>
<!-- handle_scalar_match&#45;&gt;end -->
<g id="edge21" class="edge">
<title>handle_scalar_match&#45;&gt;end</title>
<path fill="none" stroke="black" d="M105.78,-328.86C103.42,-309.15 100.01,-275.8 100.01,-247 100.01,-247 100.01,-247 100.01,-90 100.01,-43.96 252.64,-26.84 324.91,-21.31"/>
<polygon fill="black" stroke="black" points="325.24,-24.8 334.96,-20.58 324.73,-17.82 325.24,-24.8"/>
</g>
<!-- items_loop -->
<g id="node7" class="node">
<title>items_loop</title>
<polygon fill="none" stroke="black" points="477.51,-419 406.51,-419 406.51,-383 477.51,-383 477.51,-419"/>
<text text-anchor="middle" x="442.01" y="-398.5" font-family="Courier,monospace" font-size="10.00">遍历 items</text>
</g>
<!-- multi_loop&#45;&gt;items_loop -->
<g id="edge7" class="edge">
<title>multi_loop&#45;&gt;items_loop</title>
<path fill="none" stroke="black" d="M430.19,-465.82C432.16,-455.19 434.73,-441.31 436.97,-429.2"/>
<polygon fill="black" stroke="black" points="440.46,-429.62 438.84,-419.15 433.57,-428.35 440.46,-429.62"/>
</g>
<!-- check_err_set -->
<g id="node13" class="node">
<title>check_err_set</title>
<polygon fill="none" stroke="black" points="229.01,-311 154.16,-293 229.01,-275 303.86,-293 229.01,-311"/>
<text text-anchor="middle" x="229.01" y="-290.5" font-family="Courier,monospace" font-size="10.00">err_set 为真?</text>
</g>
<!-- multi_loop&#45;&gt;check_err_set -->
<g id="edge16" class="edge">
<title>multi_loop&#45;&gt;check_err_set</title>
<path fill="none" stroke="black" d="M351.7,-465.89C306.6,-454.04 255.33,-437.17 241.01,-419 218.97,-391.04 220.17,-347.88 223.92,-320.29"/>
<polygon fill="black" stroke="black" points="227.41,-320.62 225.51,-310.2 220.5,-319.54 227.41,-320.62"/>
<text text-anchor="middle" x="319.51" y="-398.5" font-family="Courier,monospace" font-size="10.00">multi_i &gt;= multi_cases_len</text>
</g>
<!-- check_multi_item -->
<g id="node8" class="node">
<title>check_multi_item</title>
<polygon fill="none" stroke="black" points="403.01,-311 322.51,-293 403.01,-275 483.52,-293 403.01,-311"/>
<text text-anchor="middle" x="403.01" y="-290.5" font-family="Courier,monospace" font-size="10.00">检查 item 匹配?</text>
</g>
<!-- items_loop&#45;&gt;check_multi_item -->
<g id="edge8" class="edge">
<title>items_loop&#45;&gt;check_multi_item</title>
<path fill="none" stroke="black" d="M441.05,-382.72C439.72,-367.94 436.55,-346.35 429.01,-329 427.16,-324.75 424.71,-320.52 422.05,-316.56"/>
<polygon fill="black" stroke="black" points="424.78,-314.37 416.04,-308.39 419.14,-318.52 424.78,-314.37"/>
</g>
<!-- ranges_loop -->
<g id="node10" class="node">
<title>ranges_loop</title>
<polygon fill="none" stroke="black" points="662.51,-311 501.51,-311 501.51,-275 662.51,-275 662.51,-311"/>
<text text-anchor="middle" x="582.01" y="-290.5" font-family="Courier,monospace" font-size="10.00">循环 range_i &lt; ranges_len</text>
</g>
<!-- items_loop&#45;&gt;ranges_loop -->
<g id="edge11" class="edge">
<title>items_loop&#45;&gt;ranges_loop</title>
<path fill="none" stroke="black" d="M449.26,-382.83C456.8,-366.87 470.03,-343.43 488.01,-329 494.55,-323.75 501.96,-319.24 509.67,-315.37"/>
<polygon fill="black" stroke="black" points="511.24,-318.51 518.84,-311.12 508.29,-312.15 511.24,-318.51"/>
<text text-anchor="middle" x="527.51" y="-344.5" font-family="Courier,monospace" font-size="10.00">所有items处理完</text>
</g>
<!-- check_multi_item&#45;&gt;items_loop -->
<g id="edge10" class="edge">
<title>check_multi_item&#45;&gt;items_loop</title>
<path fill="none" stroke="black" d="M386.18,-307.59C380.2,-313.47 374.17,-320.86 371.01,-329 365.22,-343.92 362.56,-351.41 371.01,-365 374.45,-370.53 385.09,-376.77 397.11,-382.43"/>
<polygon fill="black" stroke="black" points="395.93,-385.73 406.48,-386.62 398.79,-379.34 395.93,-385.73"/>
<text text-anchor="middle" x="398.01" y="-350" font-family="Courier,monospace" font-size="10.00">否</text>
<text text-anchor="middle" x="398.01" y="-339" font-family="Courier,monospace" font-size="10.00">下一个item</text>
</g>
<!-- handle_multi_item_match -->
<g id="node9" class="node">
<title>handle_multi_item_match</title>
<polygon fill="none" stroke="black" points="512.51,-163 351.51,-163 351.51,-127 512.51,-127 512.51,-163"/>
<text text-anchor="middle" x="432.01" y="-148" font-family="Courier,monospace" font-size="10.00">处理 multi item 匹配</text>
<text text-anchor="middle" x="432.01" y="-137" font-family="Courier,monospace" font-size="10.00">返回 resolveProngComptime</text>
</g>
<!-- check_multi_item&#45;&gt;handle_multi_item_match -->
<g id="edge9" class="edge">
<title>check_multi_item&#45;&gt;handle_multi_item_match</title>
<path fill="none" stroke="black" d="M406.28,-275.54C411.24,-250.59 420.7,-202.93 426.67,-172.9"/>
<polygon fill="black" stroke="black" points="430.1,-173.57 428.62,-163.08 423.24,-172.21 430.1,-173.57"/>
<text text-anchor="middle" x="418.01" y="-243.5" font-family="Courier,monospace" font-size="10.00">是</text>
</g>
<!-- handle_multi_item_match&#45;&gt;end -->
<g id="edge22" class="edge">
<title>handle_multi_item_match&#45;&gt;end</title>
<path fill="none" stroke="black" d="M433.78,-126.93C434.56,-111.89 433.77,-89.81 425.01,-73 418.54,-60.58 407.9,-49.8 397.19,-41.22"/>
<polygon fill="black" stroke="black" points="399.14,-38.31 389.05,-35.09 394.93,-43.9 399.14,-38.31"/>
</g>
<!-- ranges_loop&#45;&gt;multi_loop -->
<g id="edge15" class="edge">
<title>ranges_loop&#45;&gt;multi_loop</title>
<path fill="none" stroke="black" d="M581.49,-311.2C580.34,-326.33 576.91,-348.46 567.01,-365 542.39,-406.14 498.19,-439.76 466.02,-460.44"/>
<polygon fill="black" stroke="black" points="463.9,-457.64 457.29,-465.93 467.62,-463.57 463.9,-457.64"/>
<text text-anchor="middle" x="596.51" y="-404" font-family="Courier,monospace" font-size="10.00">所有ranges处理完</text>
<text text-anchor="middle" x="596.51" y="-393" font-family="Courier,monospace" font-size="10.00">multi_i++</text>
</g>
<!-- check_range -->
<g id="node11" class="node">
<title>check_range</title>
<polygon fill="none" stroke="black" points="576.01,-217 444.44,-199 576.01,-181 707.58,-199 576.01,-217"/>
<text text-anchor="middle" x="576.01" y="-196.5" font-family="Courier,monospace" font-size="10.00">检查 operand_val 在范围内?</text>
</g>
<!-- ranges_loop&#45;&gt;check_range -->
<g id="edge12" class="edge">
<title>ranges_loop&#45;&gt;check_range</title>
<path fill="none" stroke="black" d="M574.28,-274.9C572.13,-269.31 570.09,-263 569.01,-257 567.22,-247.06 567.95,-236.05 569.48,-226.39"/>
<polygon fill="black" stroke="black" points="572.92,-227.02 571.37,-216.54 566.05,-225.7 572.92,-227.02"/>
</g>
<!-- check_range&#45;&gt;ranges_loop -->
<g id="edge14" class="edge">
<title>check_range&#45;&gt;ranges_loop</title>
<path fill="none" stroke="black" d="M577.11,-216.92C577.98,-230.26 579.22,-249.14 580.23,-264.62"/>
<polygon fill="black" stroke="black" points="576.74,-264.94 580.88,-274.7 583.72,-264.49 576.74,-264.94"/>
<text text-anchor="middle" x="606.51" y="-249" font-family="Courier,monospace" font-size="10.00">否</text>
<text text-anchor="middle" x="606.51" y="-238" font-family="Courier,monospace" font-size="10.00">range_i++</text>
</g>
<!-- handle_range_match -->
<g id="node12" class="node">
<title>handle_range_match</title>
<polygon fill="none" stroke="black" points="642.51,-109 481.51,-109 481.51,-73 642.51,-73 642.51,-109"/>
<text text-anchor="middle" x="562.01" y="-94" font-family="Courier,monospace" font-size="10.00">处理 range 匹配</text>
<text text-anchor="middle" x="562.01" y="-83" font-family="Courier,monospace" font-size="10.00">返回 resolveProngComptime</text>
</g>
<!-- check_range&#45;&gt;handle_range_match -->
<g id="edge13" class="edge">
<title>check_range&#45;&gt;handle_range_match</title>
<path fill="none" stroke="black" d="M573.76,-180.97C571.57,-164.38 568.2,-138.88 565.63,-119.43"/>
<polygon fill="black" stroke="black" points="569.08,-118.8 564.3,-109.34 562.14,-119.71 569.08,-118.8"/>
<text text-anchor="middle" x="576.01" y="-142.5" font-family="Courier,monospace" font-size="10.00">是</text>
</g>
<!-- handle_range_match&#45;&gt;end -->
<g id="edge23" class="edge">
<title>handle_range_match&#45;&gt;end</title>
<path fill="none" stroke="black" d="M514.11,-72.99C478.71,-60.43 431.23,-43.57 398.79,-32.06"/>
<polygon fill="black" stroke="black" points="399.83,-28.71 389.24,-28.66 397.49,-35.31 399.83,-28.71"/>
</g>
<!-- check_empty_enum -->
<g id="node14" class="node">
<title>check_empty_enum</title>
<polygon fill="none" stroke="black" points="298.01,-217 208.19,-199 298.01,-181 387.83,-199 298.01,-217"/>
<text text-anchor="middle" x="298.01" y="-196.5" font-family="Courier,monospace" font-size="10.00">empty_enum 为真?</text>
</g>
<!-- check_err_set&#45;&gt;check_empty_enum -->
<g id="edge17" class="edge">
<title>check_err_set&#45;&gt;check_empty_enum</title>
<path fill="none" stroke="black" d="M240.1,-277.22C251,-262.69 267.8,-240.28 280.51,-223.34"/>
<polygon fill="black" stroke="black" points="283.52,-225.15 286.72,-215.05 277.92,-220.95 283.52,-225.15"/>
<text text-anchor="middle" x="277.01" y="-243.5" font-family="Courier,monospace" font-size="10.00">是</text>
</g>
<!-- handle_special_prong -->
<g id="node16" class="node">
<title>handle_special_prong</title>
<polygon fill="none" stroke="black" points="289.51,-109 128.51,-109 128.51,-73 289.51,-73 289.51,-109"/>
<text text-anchor="middle" x="209.01" y="-94" font-family="Courier,monospace" font-size="10.00">处理 special prong</text>
<text text-anchor="middle" x="209.01" y="-83" font-family="Courier,monospace" font-size="10.00">返回 resolveProngComptime</text>
</g>
<!-- check_err_set&#45;&gt;handle_special_prong -->
<g id="edge18" class="edge">
<title>check_err_set&#45;&gt;handle_special_prong</title>
<path fill="none" stroke="black" d="M218.4,-277.39C208.58,-262.89 194.67,-239.62 189.01,-217 180.67,-183.64 189.99,-144.37 198.51,-118.88"/>
<polygon fill="black" stroke="black" points="201.9,-119.77 201.93,-109.17 195.3,-117.44 201.9,-119.77"/>
<text text-anchor="middle" x="194.01" y="-196.5" font-family="Courier,monospace" font-size="10.00">否</text>
</g>
<!-- return_void -->
<g id="node15" class="node">
<title>return_void</title>
<polygon fill="none" stroke="black" points="416.01,-109 308.01,-109 308.01,-73 416.01,-73 416.01,-109"/>
<text text-anchor="middle" x="362.01" y="-88.5" font-family="Courier,monospace" font-size="10.00">返回 .void_value</text>
</g>
<!-- check_empty_enum&#45;&gt;return_void -->
<g id="edge19" class="edge">
<title>check_empty_enum&#45;&gt;return_void</title>
<path fill="none" stroke="black" d="M304.52,-182.2C310.91,-167.42 321.35,-144.99 333.01,-127 335.17,-123.67 337.6,-120.29 340.11,-117.02"/>
<polygon fill="black" stroke="black" points="342.88,-119.17 346.42,-109.19 337.42,-114.79 342.88,-119.17"/>
<text text-anchor="middle" x="338.01" y="-142.5" font-family="Courier,monospace" font-size="10.00">是</text>
</g>
<!-- check_empty_enum&#45;&gt;handle_special_prong -->
<g id="edge20" class="edge">
<title>check_empty_enum&#45;&gt;handle_special_prong</title>
<path fill="none" stroke="black" d="M285.64,-183.26C271.22,-166.09 247.16,-137.43 229.84,-116.81"/>
<polygon fill="black" stroke="black" points="232.45,-114.48 223.34,-109.07 227.09,-118.98 232.45,-114.48"/>
<text text-anchor="middle" x="272.01" y="-142.5" font-family="Courier,monospace" font-size="10.00">否</text>
</g>
<!-- return_void&#45;&gt;end -->
<g id="edge24" class="edge">
<title>return_void&#45;&gt;end</title>
<path fill="none" stroke="black" d="M362.01,-72.81C362.01,-64.79 362.01,-55.05 362.01,-46.07"/>
<polygon fill="black" stroke="black" points="365.51,-46.03 362.01,-36.03 358.51,-46.03 365.51,-46.03"/>
</g>
<!-- handle_special_prong&#45;&gt;end -->
<g id="edge25" class="edge">
<title>handle_special_prong&#45;&gt;end</title>
<path fill="none" stroke="black" d="M245.66,-72.99C269.85,-61.77 301.43,-47.12 325.58,-35.91"/>
<polygon fill="black" stroke="black" points="327.17,-39.03 334.77,-31.64 324.22,-32.68 327.17,-39.03"/>
</g>
</g>
</svg>
