<?xml version="1.0" encoding="UTF-8" standalone="no"?>
<!DOCTYPE svg PUBLIC "-//W3C//DTD SVG 1.1//EN"
 "http://www.w3.org/Graphics/SVG/1.1/DTD/svg11.dtd">
<!-- Generated by graphviz version 2.43.0 (0)
 -->
<!-- Title: flowchart Pages: 1 -->
<svg width="648pt" height="894pt"
 viewBox="0.00 0.00 648.00 894.00" xmlns="http://www.w3.org/2000/svg" xmlns:xlink="http://www.w3.org/1999/xlink">
<g id="graph0" class="graph" transform="scale(1 1) rotate(0) translate(4 890)">
<title>flowchart</title>
<polygon fill="white" stroke="transparent" points="-4,4 -4,-890 644,-890 644,4 -4,4"/>
<!-- start -->
<g id="node1" class="node">
<title>start</title>
<polygon fill="none" stroke="black" points="522.5,-886 354.5,-886 354.5,-850 522.5,-850 522.5,-886"/>
<text text-anchor="middle" x="438.5" y="-864.9" font-family="Courier,monospace" font-size="12.00">analyzeArithmetic开始</text>
</g>
<!-- check_pointer -->
<g id="node2" class="node">
<title>check_pointer</title>
<polygon fill="none" stroke="black" points="529.5,-813 347.5,-813 347.5,-777 529.5,-777 529.5,-813"/>
<text text-anchor="middle" x="438.5" y="-791.9" font-family="Courier,monospace" font-size="12.00">检查lhs和rhs是否为指针类型</text>
</g>
<!-- start&#45;&gt;check_pointer -->
<g id="edge1" class="edge">
<title>start&#45;&gt;check_pointer</title>
<path fill="none" stroke="black" d="M438.5,-849.81C438.5,-841.79 438.5,-832.05 438.5,-823.07"/>
<polygon fill="black" stroke="black" points="442,-823.03 438.5,-813.03 435,-823.03 442,-823.03"/>
</g>
<!-- pointer_case -->
<g id="node3" class="node">
<title>pointer_case</title>
<polygon fill="none" stroke="black" points="457,-676 368,-676 368,-640 457,-640 457,-676"/>
<text text-anchor="middle" x="412.5" y="-654.9" font-family="Courier,monospace" font-size="12.00">处理指针运算</text>
</g>
<!-- check_pointer&#45;&gt;pointer_case -->
<g id="edge2" class="edge">
<title>check_pointer&#45;&gt;pointer_case</title>
<path fill="none" stroke="black" d="M435.21,-776.9C430.82,-754.1 422.99,-713.48 417.77,-686.39"/>
<polygon fill="black" stroke="black" points="421.18,-685.54 415.85,-676.39 414.3,-686.87 421.18,-685.54"/>
<text text-anchor="middle" x="435.5" y="-751" font-family="Courier,monospace" font-size="10.00">是</text>
</g>
<!-- non_pointer_case -->
<g id="node4" class="node">
<title>non_pointer_case</title>
<polygon fill="none" stroke="black" points="569,-730 456,-730 456,-694 569,-694 569,-730"/>
<text text-anchor="middle" x="512.5" y="-708.9" font-family="Courier,monospace" font-size="12.00">处理常规算术运算</text>
</g>
<!-- check_pointer&#45;&gt;non_pointer_case -->
<g id="edge13" class="edge">
<title>check_pointer&#45;&gt;non_pointer_case</title>
<path fill="none" stroke="black" d="M454.19,-776.82C464.59,-765.44 478.4,-750.33 489.97,-737.66"/>
<polygon fill="black" stroke="black" points="492.67,-739.9 496.83,-730.15 487.5,-735.18 492.67,-739.9"/>
<text text-anchor="middle" x="484.5" y="-751" font-family="Courier,monospace" font-size="10.00">否</text>
</g>
<!-- check_pointer_size -->
<g id="node5" class="node">
<title>check_pointer_size</title>
<polygon fill="none" stroke="black" points="436.5,-549 274.5,-549 274.5,-513 436.5,-513 436.5,-549"/>
<text text-anchor="middle" x="355.5" y="-527.9" font-family="Courier,monospace" font-size="12.00">检查指针类型是否为slice</text>
</g>
<!-- pointer_case&#45;&gt;check_pointer_size -->
<g id="edge3" class="edge">
<title>pointer_case&#45;&gt;check_pointer_size</title>
<path fill="none" stroke="black" d="M404.69,-639.88C395.11,-618.87 378.76,-583 367.56,-558.44"/>
<polygon fill="black" stroke="black" points="370.73,-556.96 363.39,-549.31 364.36,-559.86 370.73,-556.96"/>
</g>
<!-- resolve_peer_types -->
<g id="node11" class="node">
<title>resolve_peer_types</title>
<polygon fill="none" stroke="black" points="566,-622 465,-622 465,-586 566,-586 566,-622"/>
<text text-anchor="middle" x="515.5" y="-600.9" font-family="Courier,monospace" font-size="12.00">解析操作数类型</text>
</g>
<!-- non_pointer_case&#45;&gt;resolve_peer_types -->
<g id="edge14" class="edge">
<title>non_pointer_case&#45;&gt;resolve_peer_types</title>
<path fill="none" stroke="black" d="M512.98,-693.97C513.45,-677.38 514.17,-651.88 514.72,-632.43"/>
<polygon fill="black" stroke="black" points="518.22,-632.44 515.01,-622.34 511.23,-632.24 518.22,-632.44"/>
</g>
<!-- check_zir_tag_sub -->
<g id="node6" class="node">
<title>check_zir_tag_sub</title>
<polygon fill="none" stroke="black" points="332,-466 197,-466 197,-430 332,-430 332,-466"/>
<text text-anchor="middle" x="264.5" y="-444.9" font-family="Courier,monospace" font-size="12.00">zir_tag是否为sub?</text>
</g>
<!-- check_pointer_size&#45;&gt;check_zir_tag_sub -->
<g id="edge5" class="edge">
<title>check_pointer_size&#45;&gt;check_zir_tag_sub</title>
<path fill="none" stroke="black" d="M317.35,-512.95C308.58,-507.96 299.72,-501.94 292.5,-495 286.66,-489.39 281.57,-482.31 277.38,-475.39"/>
<polygon fill="black" stroke="black" points="280.19,-473.24 272.26,-466.22 274.08,-476.66 280.19,-473.24"/>
<text text-anchor="middle" x="322.5" y="-487" font-family="Courier,monospace" font-size="10.00">是slice指针</text>
</g>
<!-- error_handling -->
<g id="node19" class="node">
<title>error_handling</title>
<polygon fill="none" stroke="black" points="388.33,-109 294.74,-109 270.67,-73 364.26,-73 388.33,-109"/>
<text text-anchor="middle" x="329.5" y="-87.9" font-family="Courier,monospace" font-size="12.00">返回错误</text>
</g>
<!-- check_pointer_size&#45;&gt;error_handling -->
<g id="edge4" class="edge">
<title>check_pointer_size&#45;&gt;error_handling</title>
<path fill="none" stroke="black" d="M359.22,-512.71C362.42,-496.37 366.5,-471.14 366.5,-449 366.5,-449 366.5,-449 366.5,-173 366.5,-153.41 357.44,-133.37 348.28,-118.12"/>
<polygon fill="black" stroke="black" points="350.98,-115.85 342.65,-109.3 345.08,-119.61 350.98,-115.85"/>
<text text-anchor="middle" x="425" y="-321" font-family="Courier,monospace" font-size="10.00">非slice指针且非sub操作</text>
</g>
<!-- check_elem_type -->
<g id="node7" class="node">
<title>check_elem_type</title>
<polygon fill="none" stroke="black" points="338,-383 177,-383 177,-347 338,-347 338,-383"/>
<text text-anchor="middle" x="257.5" y="-361.9" font-family="Courier,monospace" font-size="12.00">检查指针元素类型是否相同</text>
</g>
<!-- check_zir_tag_sub&#45;&gt;check_elem_type -->
<g id="edge6" class="edge">
<title>check_zir_tag_sub&#45;&gt;check_elem_type</title>
<path fill="none" stroke="black" d="M263.02,-429.82C262.1,-419.19 260.9,-405.31 259.85,-393.2"/>
<polygon fill="black" stroke="black" points="263.33,-392.81 258.98,-383.15 256.36,-393.42 263.33,-392.81"/>
<text text-anchor="middle" x="284.5" y="-404" font-family="Courier,monospace" font-size="10.00">是sub操作</text>
</g>
<!-- check_elem_size -->
<g id="node8" class="node">
<title>check_elem_size</title>
<polygon fill="none" stroke="black" points="264.5,-300 132.5,-300 132.5,-264 264.5,-264 264.5,-300"/>
<text text-anchor="middle" x="198.5" y="-278.9" font-family="Courier,monospace" font-size="12.00">检查元素大小是否为0</text>
</g>
<!-- check_elem_type&#45;&gt;check_elem_size -->
<g id="edge8" class="edge">
<title>check_elem_type&#45;&gt;check_elem_size</title>
<path fill="none" stroke="black" d="M235.87,-346.82C230.07,-341.52 224.13,-335.39 219.5,-329 215.21,-323.08 211.48,-316.14 208.41,-309.47"/>
<polygon fill="black" stroke="black" points="211.54,-307.87 204.4,-300.05 205.1,-310.62 211.54,-307.87"/>
<text text-anchor="middle" x="249" y="-321" font-family="Courier,monospace" font-size="10.00">元素类型相同</text>
</g>
<!-- check_elem_type&#45;&gt;error_handling -->
<g id="edge7" class="edge">
<title>check_elem_type&#45;&gt;error_handling</title>
<path fill="none" stroke="black" d="M269.69,-346.9C273.06,-341.41 276.37,-335.16 278.5,-329 295.92,-278.62 282.35,-262.13 293.5,-210 300.29,-178.25 311.66,-142.74 319.81,-119.04"/>
<polygon fill="black" stroke="black" points="323.2,-119.94 323.19,-109.35 316.59,-117.64 323.2,-119.94"/>
<text text-anchor="middle" x="323" y="-225.5" font-family="Courier,monospace" font-size="10.00">元素类型不同</text>
</g>
<!-- runtime_src_check -->
<g id="node9" class="node">
<title>runtime_src_check</title>
<polygon fill="none" stroke="black" points="173,-192 0,-192 0,-156 173,-156 173,-192"/>
<text text-anchor="middle" x="86.5" y="-170.9" font-family="Courier,monospace" font-size="12.00">尝试解析指针值，检查基地址</text>
</g>
<!-- check_elem_size&#45;&gt;runtime_src_check -->
<g id="edge10" class="edge">
<title>check_elem_size&#45;&gt;runtime_src_check</title>
<path fill="none" stroke="black" d="M161.92,-263.9C153.08,-258.84 144.02,-252.8 136.5,-246 122.29,-233.14 109.86,-215.54 100.95,-201.08"/>
<polygon fill="black" stroke="black" points="103.74,-198.92 95.62,-192.11 97.72,-202.5 103.74,-198.92"/>
<text text-anchor="middle" x="166" y="-225.5" font-family="Courier,monospace" font-size="10.00">元素大小有效</text>
</g>
<!-- check_elem_size&#45;&gt;error_handling -->
<g id="edge9" class="edge">
<title>check_elem_size&#45;&gt;error_handling</title>
<path fill="none" stroke="black" d="M197.75,-263.97C197.48,-238.23 200.34,-188.96 223.5,-156 238.09,-135.24 261.76,-120.02 283.03,-109.64"/>
<polygon fill="black" stroke="black" points="284.68,-112.73 292.28,-105.35 281.74,-106.38 284.68,-112.73"/>
<text text-anchor="middle" x="251" y="-171.5" font-family="Courier,monospace" font-size="10.00">元素大小为0</text>
</g>
<!-- return_pointer_result -->
<g id="node10" class="node">
<title>return_pointer_result</title>
<polygon fill="none" stroke="black" points="130,-109 17,-109 17,-73 130,-73 130,-109"/>
<text text-anchor="middle" x="73.5" y="-87.9" font-family="Courier,monospace" font-size="12.00">生成指针运算结果</text>
</g>
<!-- runtime_src_check&#45;&gt;return_pointer_result -->
<g id="edge11" class="edge">
<title>runtime_src_check&#45;&gt;return_pointer_result</title>
<path fill="none" stroke="black" d="M79.44,-155.83C77.46,-150.24 75.56,-143.94 74.5,-138 73.42,-131.95 72.91,-125.39 72.7,-119.17"/>
<polygon fill="black" stroke="black" points="76.2,-119.14 72.63,-109.16 69.2,-119.19 76.2,-119.14"/>
<text text-anchor="middle" x="99" y="-130" font-family="Courier,monospace" font-size="10.00">基地址相同</text>
</g>
<!-- runtime_src_check&#45;&gt;error_handling -->
<g id="edge12" class="edge">
<title>runtime_src_check&#45;&gt;error_handling</title>
<path fill="none" stroke="black" d="M104.22,-155.84C115.47,-145.92 130.81,-134.04 146.5,-127 187.24,-108.73 237.24,-99.99 274.68,-95.81"/>
<polygon fill="black" stroke="black" points="275.31,-99.26 284.89,-94.75 274.58,-92.3 275.31,-99.26"/>
<text text-anchor="middle" x="171" y="-130" font-family="Courier,monospace" font-size="10.00">基地址不同</text>
</g>
<!-- coerce_operands -->
<g id="node12" class="node">
<title>coerce_operands</title>
<polygon fill="none" stroke="black" points="580,-549 455,-549 455,-513 580,-513 580,-549"/>
<text text-anchor="middle" x="517.5" y="-527.9" font-family="Courier,monospace" font-size="12.00">强制转换操作数类型</text>
</g>
<!-- resolve_peer_types&#45;&gt;coerce_operands -->
<g id="edge15" class="edge">
<title>resolve_peer_types&#45;&gt;coerce_operands</title>
<path fill="none" stroke="black" d="M515.98,-585.81C516.21,-577.79 516.48,-568.05 516.74,-559.07"/>
<polygon fill="black" stroke="black" points="520.24,-559.12 517.02,-549.03 513.24,-558.93 520.24,-559.12"/>
</g>
<!-- check_scalar_type -->
<g id="node13" class="node">
<title>check_scalar_type</title>
<polygon fill="none" stroke="black" points="607.5,-466 427.5,-466 427.5,-430 607.5,-430 607.5,-466"/>
<text text-anchor="middle" x="517.5" y="-444.9" font-family="Courier,monospace" font-size="12.00">检查标量类型（int/float）</text>
</g>
<!-- coerce_operands&#45;&gt;check_scalar_type -->
<g id="edge16" class="edge">
<title>coerce_operands&#45;&gt;check_scalar_type</title>
<path fill="none" stroke="black" d="M517.5,-512.82C517.5,-502.19 517.5,-488.31 517.5,-476.2"/>
<polygon fill="black" stroke="black" points="521,-476.15 517.5,-466.15 514,-476.15 521,-476.15"/>
</g>
<!-- check_comptime_values -->
<g id="node14" class="node">
<title>check_comptime_values</title>
<polygon fill="none" stroke="black" points="586,-383 449,-383 449,-347 586,-347 586,-383"/>
<text text-anchor="middle" x="517.5" y="-361.9" font-family="Courier,monospace" font-size="12.00">检查编译时值是否存在</text>
</g>
<!-- check_scalar_type&#45;&gt;check_comptime_values -->
<g id="edge17" class="edge">
<title>check_scalar_type&#45;&gt;check_comptime_values</title>
<path fill="none" stroke="black" d="M517.5,-429.82C517.5,-419.19 517.5,-405.31 517.5,-393.2"/>
<polygon fill="black" stroke="black" points="521,-393.15 517.5,-383.15 514,-393.15 521,-393.15"/>
</g>
<!-- handle_comptime_arith -->
<g id="node15" class="node">
<title>handle_comptime_arith</title>
<polygon fill="none" stroke="black" points="640,-246 515,-246 515,-210 640,-210 640,-246"/>
<text text-anchor="middle" x="577.5" y="-224.9" font-family="Courier,monospace" font-size="12.00">执行编译时算术运算</text>
</g>
<!-- check_comptime_values&#45;&gt;handle_comptime_arith -->
<g id="edge18" class="edge">
<title>check_comptime_values&#45;&gt;handle_comptime_arith</title>
<path fill="none" stroke="black" d="M539.14,-346.81C544.51,-341.6 549.79,-335.51 553.5,-329 566.29,-306.54 572.29,-277.5 575.09,-256.51"/>
<polygon fill="black" stroke="black" points="578.59,-256.68 576.28,-246.34 571.64,-255.87 578.59,-256.68"/>
<text text-anchor="middle" x="588" y="-321" font-family="Courier,monospace" font-size="10.00">存在编译时值</text>
</g>
<!-- handle_runtime_arith -->
<g id="node16" class="node">
<title>handle_runtime_arith</title>
<polygon fill="none" stroke="black" points="543,-300 418,-300 418,-264 543,-264 543,-300"/>
<text text-anchor="middle" x="480.5" y="-278.9" font-family="Courier,monospace" font-size="12.00">生成运行时算术指令</text>
</g>
<!-- check_comptime_values&#45;&gt;handle_runtime_arith -->
<g id="edge19" class="edge">
<title>check_comptime_values&#45;&gt;handle_runtime_arith</title>
<path fill="none" stroke="black" d="M509.65,-346.82C504.7,-335.98 498.2,-321.74 492.59,-309.47"/>
<polygon fill="black" stroke="black" points="495.67,-307.79 488.34,-300.15 489.31,-310.7 495.67,-307.79"/>
<text text-anchor="middle" x="525" y="-321" font-family="Courier,monospace" font-size="10.00">无编译时值</text>
</g>
<!-- return_result -->
<g id="node18" class="node">
<title>return_result</title>
<polygon fill="none" stroke="black" points="509,-36 444,-36 444,0 509,0 509,-36"/>
<text text-anchor="middle" x="476.5" y="-14.9" font-family="Courier,monospace" font-size="12.00">返回结果</text>
</g>
<!-- handle_comptime_arith&#45;&gt;return_result -->
<g id="edge20" class="edge">
<title>handle_comptime_arith&#45;&gt;return_result</title>
<path fill="none" stroke="black" d="M576.66,-209.98C574.5,-180.14 566.79,-117.32 539.5,-73 532.28,-61.27 521.66,-50.77 511.19,-42.22"/>
<polygon fill="black" stroke="black" points="513.32,-39.44 503.27,-36.07 509.02,-44.96 513.32,-39.44"/>
</g>
<!-- check_safety -->
<g id="node17" class="node">
<title>check_safety</title>
<polygon fill="none" stroke="black" points="545,-192 408,-192 408,-156 545,-156 545,-192"/>
<text text-anchor="middle" x="476.5" y="-170.9" font-family="Courier,monospace" font-size="12.00">安全检查（溢出检查）</text>
</g>
<!-- handle_runtime_arith&#45;&gt;check_safety -->
<g id="edge21" class="edge">
<title>handle_runtime_arith&#45;&gt;check_safety</title>
<path fill="none" stroke="black" d="M479.86,-263.97C479.23,-247.38 478.27,-221.88 477.54,-202.43"/>
<polygon fill="black" stroke="black" points="481.03,-202.2 477.15,-192.34 474.03,-202.47 481.03,-202.2"/>
</g>
<!-- check_safety&#45;&gt;return_result -->
<g id="edge22" class="edge">
<title>check_safety&#45;&gt;return_result</title>
<path fill="none" stroke="black" d="M476.5,-155.93C476.5,-129.45 476.5,-78.22 476.5,-46.49"/>
<polygon fill="black" stroke="black" points="480,-46.15 476.5,-36.15 473,-46.15 480,-46.15"/>
<text text-anchor="middle" x="506" y="-88.5" font-family="Courier,monospace" font-size="10.00">安全检查通过</text>
</g>
<!-- check_safety&#45;&gt;error_handling -->
<g id="edge23" class="edge">
<title>check_safety&#45;&gt;error_handling</title>
<path fill="none" stroke="black" d="M438.97,-155.97C427.45,-150.49 414.84,-144.22 403.5,-138 390.37,-130.8 376.33,-122.29 364.05,-114.56"/>
<polygon fill="black" stroke="black" points="365.77,-111.51 355.46,-109.1 362.02,-117.42 365.77,-111.51"/>
<text text-anchor="middle" x="433" y="-130" font-family="Courier,monospace" font-size="10.00">安全检查失败</text>
</g>
<!-- error_handling&#45;&gt;return_result -->
</g>
</svg>
