<?xml version="1.0" encoding="UTF-8" standalone="no"?>
<!DOCTYPE svg PUBLIC "-//W3C//DTD SVG 1.1//EN"
 "http://www.w3.org/Graphics/SVG/1.1/DTD/svg11.dtd">
<!-- Generated by graphviz version 2.43.0 (0)
 -->
<!-- Title: flowchart Pages: 1 -->
<svg width="855pt" height="1220pt"
 viewBox="0.00 0.00 854.50 1220.00" xmlns="http://www.w3.org/2000/svg" xmlns:xlink="http://www.w3.org/1999/xlink">
<g id="graph0" class="graph" transform="scale(1 1) rotate(0) translate(4 1216)">
<title>flowchart</title>
<polygon fill="white" stroke="transparent" points="-4,4 -4,-1216 850.5,-1216 850.5,4 -4,4"/>
<g id="clust1" class="cluster">
<title>cluster_struct</title>
<polygon fill="none" stroke="black" points="68.5,-8 68.5,-410 414.5,-410 414.5,-8 68.5,-8"/>
<text text-anchor="middle" x="241.5" y="-394.8" font-family="Times,serif" font-size="14.00">Struct Initialization</text>
</g>
<g id="clust2" class="cluster">
<title>cluster_union</title>
<polygon fill="none" stroke="black" points="431.5,-91 431.5,-754 708.5,-754 708.5,-91 431.5,-91"/>
<text text-anchor="middle" x="570" y="-738.8" font-family="Times,serif" font-size="14.00">Union Initialization</text>
</g>
<!-- start -->
<g id="node1" class="node">
<title>start</title>
<ellipse fill="none" stroke="black" cx="181.5" cy="-1194" rx="77.23" ry="18"/>
<text text-anchor="middle" x="181.5" y="-1191.5" font-family="Courier,monospace" font-size="10.00">Start zirStructInit</text>
</g>
<!-- resolve_type -->
<g id="node2" class="node">
<title>resolve_type</title>
<polygon fill="none" stroke="black" points="262,-1139 101,-1139 101,-1103 262,-1103 262,-1139"/>
<text text-anchor="middle" x="181.5" y="-1118.5" font-family="Courier,monospace" font-size="10.00">Resolve first field type</text>
</g>
<!-- start&#45;&gt;resolve_type -->
<g id="edge1" class="edge">
<title>start&#45;&gt;resolve_type</title>
<path fill="none" stroke="black" d="M181.5,-1175.81C181.5,-1167.79 181.5,-1158.05 181.5,-1149.07"/>
<polygon fill="black" stroke="black" points="185,-1149.03 181.5,-1139.03 178,-1149.03 185,-1149.03"/>
</g>
<!-- check_type_known -->
<g id="node3" class="node">
<title>check_type_known</title>
<polygon fill="none" stroke="black" points="181.5,-1066 112.31,-1048 181.5,-1030 250.69,-1048 181.5,-1066"/>
<text text-anchor="middle" x="181.5" y="-1045.5" font-family="Courier,monospace" font-size="10.00">Type known?</text>
</g>
<!-- resolve_type&#45;&gt;check_type_known -->
<g id="edge2" class="edge">
<title>resolve_type&#45;&gt;check_type_known</title>
<path fill="none" stroke="black" d="M181.5,-1102.81C181.5,-1094.79 181.5,-1085.05 181.5,-1076.07"/>
<polygon fill="black" stroke="black" points="185,-1076.03 181.5,-1066.03 178,-1076.03 185,-1076.03"/>
</g>
<!-- anon_struct -->
<g id="node4" class="node">
<title>anon_struct</title>
<polygon fill="none" stroke="black" points="155,-983 0,-983 0,-947 155,-947 155,-983"/>
<text text-anchor="middle" x="77.5" y="-968" font-family="Courier,monospace" font-size="10.00">Handle anon struct init</text>
<text text-anchor="middle" x="77.5" y="-957" font-family="Courier,monospace" font-size="10.00">(structInitAnon)</text>
</g>
<!-- check_type_known&#45;&gt;anon_struct -->
<g id="edge3" class="edge">
<title>check_type_known:w&#45;&gt;anon_struct</title>
<path fill="none" stroke="black" d="M111.5,-1048C87.34,-1048 80.02,-1017.24 77.97,-993.4"/>
<polygon fill="black" stroke="black" points="81.47,-993.16 77.38,-983.39 74.48,-993.58 81.47,-993.16"/>
<text text-anchor="middle" x="88" y="-1004" font-family="Courier,monospace" font-size="10.00">No</text>
</g>
<!-- get_resolved_ty -->
<g id="node5" class="node">
<title>get_resolved_ty</title>
<polygon fill="none" stroke="black" points="366,-983 187,-983 187,-947 366,-947 366,-983"/>
<text text-anchor="middle" x="276.5" y="-962.5" font-family="Courier,monospace" font-size="10.00">Get resolved_ty (base type)</text>
</g>
<!-- check_type_known&#45;&gt;get_resolved_ty -->
<g id="edge4" class="edge">
<title>check_type_known:e&#45;&gt;get_resolved_ty</title>
<path fill="none" stroke="black" d="M251.5,-1048C274.84,-1048 278.96,-1017.24 278.66,-993.4"/>
<polygon fill="black" stroke="black" points="282.16,-993.25 278.28,-983.39 275.16,-993.52 282.16,-993.25"/>
<text text-anchor="middle" x="288" y="-1004" font-family="Courier,monospace" font-size="10.00">Yes</text>
</g>
<!-- end -->
<g id="node10" class="node">
<title>end</title>
<ellipse fill="none" stroke="black" cx="350.5" cy="-34" rx="55.85" ry="18"/>
<text text-anchor="middle" x="350.5" y="-31.5" font-family="Courier,monospace" font-size="10.00">Return result</text>
</g>
<!-- anon_struct&#45;&gt;end -->
<g id="edge12" class="edge">
<title>anon_struct&#45;&gt;end</title>
<path fill="none" stroke="black" d="M66.2,-946.99C58.06,-933.08 48.5,-912.57 48.5,-893 48.5,-893 48.5,-893 48.5,-116 48.5,-95.41 68.46,-98.83 87.5,-91 106.38,-83.24 222.22,-59.95 293.72,-45.96"/>
<polygon fill="black" stroke="black" points="294.79,-49.32 303.93,-43.97 293.45,-42.45 294.79,-49.32"/>
</g>
<!-- check_struct -->
<g id="node6" class="node">
<title>check_struct</title>
<polygon fill="none" stroke="black" points="287.5,-910 163.42,-892 287.5,-874 411.58,-892 287.5,-910"/>
<text text-anchor="middle" x="287.5" y="-889.5" font-family="Courier,monospace" font-size="10.00">resolved_ty is struct?</text>
</g>
<!-- get_resolved_ty&#45;&gt;check_struct -->
<g id="edge5" class="edge">
<title>get_resolved_ty&#45;&gt;check_struct</title>
<path fill="none" stroke="black" d="M279.16,-946.81C280.41,-938.79 281.92,-929.05 283.31,-920.07"/>
<polygon fill="black" stroke="black" points="286.79,-920.45 284.86,-910.03 279.87,-919.38 286.79,-920.45"/>
</g>
<!-- handle_struct -->
<g id="node7" class="node">
<title>handle_struct</title>
<polygon fill="none" stroke="black" points="380,-379 195,-379 195,-343 380,-343 380,-379"/>
<text text-anchor="middle" x="287.5" y="-358.5" font-family="Courier,monospace" font-size="10.00">Handle struct initialization</text>
</g>
<!-- check_struct&#45;&gt;handle_struct -->
<g id="edge6" class="edge">
<title>check_struct:s&#45;&gt;handle_struct</title>
<path fill="none" stroke="black" d="M287.5,-874C287.5,-845.56 287.5,-838.44 287.5,-810 287.5,-810 287.5,-810 287.5,-475 287.5,-445.7 287.5,-412.13 287.5,-389.24"/>
<polygon fill="black" stroke="black" points="291,-389.23 287.5,-379.23 284,-389.23 291,-389.23"/>
<text text-anchor="middle" x="297" y="-629.5" font-family="Courier,monospace" font-size="10.00">Yes</text>
</g>
<!-- check_union -->
<g id="node8" class="node">
<title>check_union</title>
<polygon fill="none" stroke="black" points="531.5,-827 412.41,-809 531.5,-791 650.59,-809 531.5,-827"/>
<text text-anchor="middle" x="531.5" y="-806.5" font-family="Courier,monospace" font-size="10.00">resolved_ty is union?</text>
</g>
<!-- check_struct&#45;&gt;check_union -->
<g id="edge7" class="edge">
<title>check_struct:ne&#45;&gt;check_union</title>
<path fill="none" stroke="black" d="M303.5,-909C320.48,-925.98 388.96,-916.17 411.54,-908 453.12,-892.96 490.77,-856.81 512.39,-832.88"/>
<polygon fill="black" stroke="black" points="515.1,-835.09 519.09,-825.28 509.85,-830.47 515.1,-835.09"/>
<text text-anchor="middle" x="506" y="-848" font-family="Courier,monospace" font-size="10.00">No</text>
</g>
<!-- handle_struct&#45;&gt;end -->
<g id="edge8" class="edge">
<title>handle_struct&#45;&gt;end</title>
<path fill="none" stroke="black" d="M355.46,-342.93C381.69,-331.91 405.5,-314.26 405.5,-286.5 405.5,-286.5 405.5,-286.5 405.5,-116 405.5,-93.85 391.25,-73.27 377.26,-58.39"/>
<polygon fill="black" stroke="black" points="379.59,-55.77 370.05,-51.16 374.63,-60.71 379.59,-55.77"/>
</g>
<!-- struct_start -->
<g id="node11" class="node">
<title>struct_start</title>
<polygon fill="none" stroke="black" points="299,-306 156,-306 156,-265 299,-265 299,-306"/>
<text text-anchor="middle" x="227.5" y="-294" font-family="Courier,monospace" font-size="10.00">Allocate found_fields</text>
<text text-anchor="middle" x="227.5" y="-283" font-family="Courier,monospace" font-size="10.00">field_inits</text>
<text text-anchor="middle" x="227.5" y="-272" font-family="Courier,monospace" font-size="10.00">field_assign_idxs</text>
</g>
<!-- handle_struct&#45;&gt;struct_start -->
<g id="edge13" class="edge">
<title>handle_struct&#45;&gt;struct_start</title>
<path fill="none" stroke="black" d="M273.58,-342.95C266.55,-334.34 257.85,-323.67 249.9,-313.94"/>
<polygon fill="black" stroke="black" points="252.5,-311.59 243.46,-306.05 247.07,-316.01 252.5,-311.59"/>
</g>
<!-- handle_union -->
<g id="node9" class="node">
<title>handle_union</title>
<polygon fill="none" stroke="black" points="621,-723 442,-723 442,-687 621,-687 621,-723"/>
<text text-anchor="middle" x="531.5" y="-702.5" font-family="Courier,monospace" font-size="10.00">Handle union initialization</text>
</g>
<!-- check_union&#45;&gt;handle_union -->
<g id="edge9" class="edge">
<title>check_union:s&#45;&gt;handle_union</title>
<path fill="none" stroke="black" d="M531.5,-791C531.5,-771.75 531.5,-750.05 531.5,-733.4"/>
<polygon fill="black" stroke="black" points="535,-733.26 531.5,-723.26 528,-733.26 535,-733.26"/>
<text text-anchor="middle" x="541" y="-765" font-family="Courier,monospace" font-size="10.00">Yes</text>
</g>
<!-- check_union&#45;&gt;end -->
<g id="edge10" class="edge">
<title>check_union:ne&#45;&gt;end</title>
<path fill="none" stroke="black" d="M547.5,-826C563.69,-842.19 629.47,-833.96 650.55,-825 718.79,-795.99 767.5,-780.16 767.5,-706 767.5,-706 767.5,-706 767.5,-116 767.5,-45.49 534.82,-35.12 417.08,-34.39"/>
<polygon fill="black" stroke="black" points="416.75,-30.89 406.74,-34.35 416.72,-37.89 416.75,-30.89"/>
<text text-anchor="middle" x="807" y="-432" font-family="Courier,monospace" font-size="10.00">其他类型</text>
<text text-anchor="middle" x="807" y="-421" font-family="Courier,monospace" font-size="10.00">(unreachable)</text>
</g>
<!-- handle_union&#45;&gt;end -->
<g id="edge11" class="edge">
<title>handle_union&#45;&gt;end</title>
<path fill="none" stroke="black" d="M458.58,-686.9C433.45,-676.33 411.5,-659.51 411.5,-633 411.5,-633 411.5,-633 411.5,-428 411.5,-344.92 434.5,-325.58 434.5,-242.5 434.5,-242.5 434.5,-242.5 434.5,-116 434.5,-89.11 411.92,-68.33 390.18,-54.56"/>
<polygon fill="black" stroke="black" points="391.68,-51.38 381.3,-49.26 388.1,-57.39 391.68,-51.38"/>
</g>
<!-- check_fields_len -->
<g id="node16" class="node">
<title>check_fields_len</title>
<polygon fill="none" stroke="black" points="533.5,-650 439.36,-632 533.5,-614 627.64,-632 533.5,-650"/>
<text text-anchor="middle" x="533.5" y="-629.5" font-family="Courier,monospace" font-size="10.00">fields_len == 1?</text>
</g>
<!-- handle_union&#45;&gt;check_fields_len -->
<g id="edge21" class="edge">
<title>handle_union&#45;&gt;check_fields_len</title>
<path fill="none" stroke="black" d="M531.98,-686.81C532.21,-678.79 532.48,-669.05 532.74,-660.07"/>
<polygon fill="black" stroke="black" points="536.24,-660.12 533.02,-650.03 529.24,-659.93 536.24,-660.12"/>
</g>
<!-- loop_fields -->
<g id="node12" class="node">
<title>loop_fields</title>
<polygon fill="none" stroke="black" points="252,-218 121,-218 121,-182 252,-182 252,-218"/>
<text text-anchor="middle" x="186.5" y="-197.5" font-family="Courier,monospace" font-size="10.00">Loop through fields</text>
</g>
<!-- struct_start&#45;&gt;loop_fields -->
<g id="edge14" class="edge">
<title>struct_start&#45;&gt;loop_fields</title>
<path fill="none" stroke="black" d="M217.78,-264.71C212.29,-253.52 205.35,-239.39 199.41,-227.29"/>
<polygon fill="black" stroke="black" points="202.45,-225.54 194.9,-218.1 196.16,-228.62 202.45,-225.54"/>
</g>
<!-- check_packed -->
<g id="node13" class="node">
<title>check_packed</title>
<polygon fill="none" stroke="black" points="160.5,-135 96.3,-117 160.5,-99 224.7,-117 160.5,-135"/>
<text text-anchor="middle" x="160.5" y="-114.5" font-family="Courier,monospace" font-size="10.00">Is packed?</text>
</g>
<!-- loop_fields&#45;&gt;check_packed -->
<g id="edge15" class="edge">
<title>loop_fields&#45;&gt;check_packed</title>
<path fill="none" stroke="black" d="M186.37,-181.58C185.86,-172.82 184.57,-162.14 181.5,-153 180.13,-148.92 178.22,-144.8 176.12,-140.9"/>
<polygon fill="black" stroke="black" points="179.12,-139.1 171,-132.29 173.1,-142.68 179.12,-139.1"/>
</g>
<!-- finish_struct -->
<g id="node15" class="node">
<title>finish_struct</title>
<polygon fill="none" stroke="black" points="386,-135 243,-135 243,-99 386,-99 386,-135"/>
<text text-anchor="middle" x="314.5" y="-114.5" font-family="Courier,monospace" font-size="10.00">Call finishStructInit</text>
</g>
<!-- loop_fields&#45;&gt;finish_struct -->
<g id="edge19" class="edge">
<title>loop_fields&#45;&gt;finish_struct</title>
<path fill="none" stroke="black" d="M213.65,-181.82C232.65,-169.79 258.24,-153.6 278.88,-140.54"/>
<polygon fill="black" stroke="black" points="280.82,-143.46 287.39,-135.15 277.07,-137.54 280.82,-143.46"/>
<text text-anchor="middle" x="282" y="-156" font-family="Courier,monospace" font-size="10.00">Loop end</text>
</g>
<!-- check_packed&#45;&gt;loop_fields -->
<g id="edge17" class="edge">
<title>check_packed:w&#45;&gt;loop_fields</title>
<path fill="none" stroke="black" d="M95.5,-117C74.57,-117 86.16,-147.09 98.5,-164 102.32,-169.23 107.04,-173.68 112.3,-177.46"/>
<polygon fill="black" stroke="black" points="110.63,-180.54 120.96,-182.88 114.34,-174.61 110.63,-180.54"/>
<text text-anchor="middle" x="138" y="-156" font-family="Courier,monospace" font-size="10.00">Continue loop</text>
</g>
<!-- validate_default -->
<g id="node14" class="node">
<title>validate_default</title>
<polygon fill="none" stroke="black" points="251,-52 102,-52 102,-16 251,-16 251,-52"/>
<text text-anchor="middle" x="176.5" y="-31.5" font-family="Courier,monospace" font-size="10.00">Validate default value</text>
</g>
<!-- check_packed&#45;&gt;validate_default -->
<g id="edge16" class="edge">
<title>check_packed:e&#45;&gt;validate_default</title>
<path fill="none" stroke="black" d="M225.5,-117C233.51,-117 227.24,-106.53 224.5,-99 219.26,-84.61 209.63,-70.75 200.36,-59.63"/>
<polygon fill="black" stroke="black" points="202.96,-57.28 193.75,-52.04 197.68,-61.88 202.96,-57.28"/>
<text text-anchor="middle" x="221" y="-73" font-family="Courier,monospace" font-size="10.00">No</text>
</g>
<!-- validate_default&#45;&gt;loop_fields -->
<g id="edge18" class="edge">
<title>validate_default&#45;&gt;loop_fields</title>
<path fill="none" stroke="black" d="M131.21,-52.2C114.36,-61.08 97.03,-73.74 87.5,-91 83.56,-98.14 83.89,-157.69 88.5,-164 94.5,-172.2 102.59,-178.49 111.57,-183.31"/>
<polygon fill="black" stroke="black" points="110.26,-186.56 120.8,-187.66 113.24,-180.23 110.26,-186.56"/>
</g>
<!-- finish_struct&#45;&gt;end -->
<g id="edge20" class="edge">
<title>finish_struct&#45;&gt;end</title>
<path fill="none" stroke="black" d="M322.13,-98.82C326.99,-87.9 333.37,-73.55 338.84,-61.22"/>
<polygon fill="black" stroke="black" points="342.14,-62.44 343,-51.88 335.74,-59.59 342.14,-62.44"/>
</g>
<!-- error_fields -->
<g id="node17" class="node">
<title>error_fields</title>
<polygon fill="none" stroke="black" points="700,-567 563,-567 563,-531 700,-531 700,-567"/>
<text text-anchor="middle" x="631.5" y="-546.5" font-family="Courier,monospace" font-size="10.00">Fail: union需要1个字段</text>
</g>
<!-- check_fields_len&#45;&gt;error_fields -->
<g id="edge22" class="edge">
<title>check_fields_len:s&#45;&gt;error_fields</title>
<path fill="none" stroke="black" d="M533.5,-614C533.5,-591.22 562.09,-607.93 581.5,-596 591.15,-590.07 600.59,-582.12 608.62,-574.5"/>
<polygon fill="black" stroke="black" points="611.49,-576.59 616.15,-567.07 606.57,-571.6 611.49,-576.59"/>
<text text-anchor="middle" x="603" y="-588" font-family="Courier,monospace" font-size="10.00">No</text>
</g>
<!-- resolve_field -->
<g id="node18" class="node">
<title>resolve_field</title>
<polygon fill="none" stroke="black" points="545,-567 454,-567 454,-531 545,-531 545,-567"/>
<text text-anchor="middle" x="499.5" y="-546.5" font-family="Courier,monospace" font-size="10.00">解析字段名/类型</text>
</g>
<!-- check_fields_len&#45;&gt;resolve_field -->
<g id="edge23" class="edge">
<title>check_fields_len:n&#45;&gt;resolve_field</title>
<path fill="none" stroke="black" d="M533.5,-651C533.5,-661.45 620.22,-657.43 627.57,-650 638.83,-638.63 637.26,-626.73 627.57,-614 609.4,-590.12 589.52,-609.06 562.5,-596 550.09,-590 537.59,-581.5 527.03,-573.43"/>
<polygon fill="black" stroke="black" points="529.04,-570.56 519.02,-567.12 524.7,-576.06 529.04,-570.56"/>
<text text-anchor="middle" x="572" y="-588" font-family="Courier,monospace" font-size="10.00">Yes</text>
</g>
<!-- error_fields&#45;&gt;end -->
<g id="edge32" class="edge">
<title>error_fields&#45;&gt;end</title>
<path fill="none" stroke="black" d="M684.23,-530.94C707.43,-519.82 729.5,-502.53 729.5,-477 729.5,-477 729.5,-477 729.5,-116 729.5,-52.77 525.24,-38.73 416.63,-35.72"/>
<polygon fill="black" stroke="black" points="416.51,-32.22 406.42,-35.47 416.33,-39.22 416.51,-32.22"/>
</g>
<!-- check_noreturn -->
<g id="node19" class="node">
<title>check_noreturn</title>
<polygon fill="none" stroke="black" points="538.5,-494 439.37,-476 538.5,-458 637.63,-476 538.5,-494"/>
<text text-anchor="middle" x="538.5" y="-473.5" font-family="Courier,monospace" font-size="10.00">字段类型是noreturn?</text>
</g>
<!-- resolve_field&#45;&gt;check_noreturn -->
<g id="edge24" class="edge">
<title>resolve_field&#45;&gt;check_noreturn</title>
<path fill="none" stroke="black" d="M508.94,-530.81C513.79,-521.98 519.79,-511.06 525.11,-501.38"/>
<polygon fill="black" stroke="black" points="528.2,-503.03 529.94,-492.58 522.06,-499.66 528.2,-503.03"/>
</g>
<!-- error_noreturn -->
<g id="node20" class="node">
<title>error_noreturn</title>
<polygon fill="none" stroke="black" points="608,-379 439,-379 439,-343 608,-343 608,-379"/>
<text text-anchor="middle" x="523.5" y="-358.5" font-family="Courier,monospace" font-size="10.00">Fail: 不能初始化noreturn字段</text>
</g>
<!-- check_noreturn&#45;&gt;error_noreturn -->
<g id="edge25" class="edge">
<title>check_noreturn:s&#45;&gt;error_noreturn</title>
<path fill="none" stroke="black" d="M538.5,-458C538.5,-434.52 534.06,-408.18 530.02,-389.04"/>
<polygon fill="black" stroke="black" points="533.42,-388.22 527.84,-379.22 526.59,-389.74 533.42,-388.22"/>
<text text-anchor="middle" x="547" y="-426.5" font-family="Courier,monospace" font-size="10.00">Yes</text>
</g>
<!-- handle_value -->
<g id="node21" class="node">
<title>handle_value</title>
<polygon fill="none" stroke="black" points="701,-379 626,-379 626,-343 701,-343 701,-379"/>
<text text-anchor="middle" x="663.5" y="-358.5" font-family="Courier,monospace" font-size="10.00">处理初始化值</text>
</g>
<!-- check_noreturn&#45;&gt;handle_value -->
<g id="edge26" class="edge">
<title>check_noreturn:n&#45;&gt;handle_value</title>
<path fill="none" stroke="black" d="M538.5,-495C538.5,-506.01 629.1,-501.04 637.57,-494 667.77,-468.89 669.48,-419.81 667.1,-389.08"/>
<polygon fill="black" stroke="black" points="670.58,-388.67 666.13,-379.05 663.61,-389.34 670.58,-388.67"/>
<text text-anchor="middle" x="674" y="-426.5" font-family="Courier,monospace" font-size="10.00">No</text>
</g>
<!-- error_noreturn&#45;&gt;end -->
<g id="edge33" class="edge">
<title>error_noreturn&#45;&gt;end</title>
<path fill="none" stroke="black" d="M502.76,-342.95C488.64,-329.33 472.5,-308.87 472.5,-286.5 472.5,-286.5 472.5,-286.5 472.5,-116 472.5,-92.94 465.89,-85.14 448.5,-70 436.65,-59.68 421.55,-52.34 406.76,-47.13"/>
<polygon fill="black" stroke="black" points="407.73,-43.77 397.13,-44.01 405.57,-50.43 407.73,-43.77"/>
</g>
<!-- check_comptime -->
<g id="node22" class="node">
<title>check_comptime</title>
<polygon fill="none" stroke="black" points="616.5,-303.5 532.34,-285.5 616.5,-267.5 700.66,-285.5 616.5,-303.5"/>
<text text-anchor="middle" x="616.5" y="-283" font-family="Courier,monospace" font-size="10.00">是否是编译时常量?</text>
</g>
<!-- handle_value&#45;&gt;check_comptime -->
<g id="edge27" class="edge">
<title>handle_value&#45;&gt;check_comptime</title>
<path fill="none" stroke="black" d="M652.6,-342.95C646.33,-333.15 638.36,-320.68 631.5,-309.96"/>
<polygon fill="black" stroke="black" points="634.4,-308 626.07,-301.46 628.51,-311.77 634.4,-308"/>
</g>
<!-- runtime_init -->
<g id="node23" class="node">
<title>runtime_init</title>
<polygon fill="none" stroke="black" points="673,-218 578,-218 578,-182 673,-182 673,-218"/>
<text text-anchor="middle" x="625.5" y="-197.5" font-family="Courier,monospace" font-size="10.00">运行时初始化流程</text>
</g>
<!-- check_comptime&#45;&gt;runtime_init -->
<g id="edge28" class="edge">
<title>check_comptime:s&#45;&gt;runtime_init</title>
<path fill="none" stroke="black" d="M616.5,-266.5C616.5,-253.85 618.17,-239.94 620.07,-228.21"/>
<polygon fill="black" stroke="black" points="623.55,-228.61 621.84,-218.15 616.66,-227.39 623.55,-228.61"/>
<text text-anchor="middle" x="625" y="-239" font-family="Courier,monospace" font-size="10.00">No</text>
</g>
<!-- return_result -->
<g id="node24" class="node">
<title>return_result</title>
<polygon fill="none" stroke="black" points="586,-135 501,-135 501,-99 586,-99 586,-135"/>
<text text-anchor="middle" x="543.5" y="-114.5" font-family="Courier,monospace" font-size="10.00">返回联合体结果</text>
</g>
<!-- check_comptime&#45;&gt;return_result -->
<g id="edge29" class="edge">
<title>check_comptime:n&#45;&gt;return_result</title>
<path fill="none" stroke="black" d="M616.5,-304.5C616.5,-313.84 694.01,-310.15 700.58,-303.5 711.83,-292.12 710.52,-280.04 700.58,-267.5 675.9,-236.33 651.1,-259.93 613.5,-247 584.35,-236.97 568.02,-243.36 550.5,-218 535.94,-196.93 535.81,-167.05 538.32,-145.44"/>
<polygon fill="black" stroke="black" points="541.83,-145.67 539.77,-135.28 534.9,-144.69 541.83,-145.67"/>
<text text-anchor="middle" x="560" y="-197.5" font-family="Courier,monospace" font-size="10.00">Yes</text>
</g>
<!-- runtime_init&#45;&gt;return_result -->
<g id="edge30" class="edge">
<title>runtime_init&#45;&gt;return_result</title>
<path fill="none" stroke="black" d="M608.11,-181.82C596.48,-170.33 581,-155.04 568.11,-142.31"/>
<polygon fill="black" stroke="black" points="570.44,-139.69 560.87,-135.15 565.52,-144.67 570.44,-139.69"/>
</g>
<!-- return_result&#45;&gt;end -->
<g id="edge31" class="edge">
<title>return_result&#45;&gt;end</title>
<path fill="none" stroke="black" d="M526.4,-98.93C515.74,-89.17 501.27,-77.42 486.5,-70 462.76,-58.07 434.58,-49.96 410.05,-44.57"/>
<polygon fill="black" stroke="black" points="410.64,-41.12 400.14,-42.5 409.21,-47.97 410.64,-41.12"/>
</g>
</g>
</svg>
