<?xml version="1.0" encoding="UTF-8" standalone="no"?>
<!DOCTYPE svg PUBLIC "-//W3C//DTD SVG 1.1//EN"
 "http://www.w3.org/Graphics/SVG/1.1/DTD/svg11.dtd">
<!-- Generated by graphviz version 2.43.0 (0)
 -->
<!-- Title: flowchart Pages: 1 -->
<svg width="986pt" height="1067pt"
 viewBox="0.00 0.00 986.00 1067.00" xmlns="http://www.w3.org/2000/svg" xmlns:xlink="http://www.w3.org/1999/xlink">
<g id="graph0" class="graph" transform="scale(1 1) rotate(0) translate(4 1063)">
<title>flowchart</title>
<polygon fill="white" stroke="transparent" points="-4,4 -4,-1063 982,-1063 982,4 -4,4"/>
<!-- start -->
<g id="node1" class="node">
<title>start</title>
<path fill="none" stroke="black" d="M237.5,-1059C237.5,-1059 112.5,-1059 112.5,-1059 106.5,-1059 100.5,-1053 100.5,-1047 100.5,-1047 100.5,-1035 100.5,-1035 100.5,-1029 106.5,-1023 112.5,-1023 112.5,-1023 237.5,-1023 237.5,-1023 243.5,-1023 249.5,-1029 249.5,-1035 249.5,-1035 249.5,-1047 249.5,-1047 249.5,-1053 243.5,-1059 237.5,-1059"/>
<text text-anchor="middle" x="175" y="-1037.3" font-family="Helvetica,sans-Serif" font-size="14.00">Start: unionFieldPtr</text>
</g>
<!-- assert_union_ty -->
<g id="node2" class="node">
<title>assert_union_ty</title>
<path fill="none" stroke="black" d="M255,-986C255,-986 95,-986 95,-986 89,-986 83,-980 83,-974 83,-974 83,-962 83,-962 83,-956 89,-950 95,-950 95,-950 255,-950 255,-950 261,-950 267,-956 267,-962 267,-962 267,-974 267,-974 267,-980 261,-986 255,-986"/>
<text text-anchor="middle" x="175" y="-964.3" font-family="Helvetica,sans-Serif" font-size="14.00">Assert union_ty is union</text>
</g>
<!-- start&#45;&gt;assert_union_ty -->
<g id="edge1" class="edge">
<title>start&#45;&gt;assert_union_ty</title>
<path fill="none" stroke="black" d="M175,-1022.81C175,-1014.79 175,-1005.05 175,-996.07"/>
<polygon fill="black" stroke="black" points="178.5,-996.03 175,-986.03 171.5,-996.03 178.5,-996.03"/>
</g>
<!-- get_union_ptr_info -->
<g id="node3" class="node">
<title>get_union_ptr_info</title>
<path fill="none" stroke="black" d="M251.5,-913C251.5,-913 98.5,-913 98.5,-913 92.5,-913 86.5,-907 86.5,-901 86.5,-901 86.5,-889 86.5,-889 86.5,-883 92.5,-877 98.5,-877 98.5,-877 251.5,-877 251.5,-877 257.5,-877 263.5,-883 263.5,-889 263.5,-889 263.5,-901 263.5,-901 263.5,-907 257.5,-913 251.5,-913"/>
<text text-anchor="middle" x="175" y="-891.3" font-family="Helvetica,sans-Serif" font-size="14.00">Get union_ptr type info</text>
</g>
<!-- assert_union_ty&#45;&gt;get_union_ptr_info -->
<g id="edge2" class="edge">
<title>assert_union_ty&#45;&gt;get_union_ptr_info</title>
<path fill="none" stroke="black" d="M175,-949.81C175,-941.79 175,-932.05 175,-923.07"/>
<polygon fill="black" stroke="black" points="178.5,-923.03 175,-913.03 171.5,-923.03 178.5,-923.03"/>
</g>
<!-- resolve_fields -->
<g id="node4" class="node">
<title>resolve_fields</title>
<path fill="none" stroke="black" d="M251,-840C251,-840 99,-840 99,-840 93,-840 87,-834 87,-828 87,-828 87,-816 87,-816 87,-810 93,-804 99,-804 99,-804 251,-804 251,-804 257,-804 263,-810 263,-816 263,-816 263,-828 263,-828 263,-834 257,-840 251,-840"/>
<text text-anchor="middle" x="175" y="-818.3" font-family="Helvetica,sans-Serif" font-size="14.00">Resolve union_ty fields</text>
</g>
<!-- get_union_ptr_info&#45;&gt;resolve_fields -->
<g id="edge3" class="edge">
<title>get_union_ptr_info&#45;&gt;resolve_fields</title>
<path fill="none" stroke="black" d="M175,-876.81C175,-868.79 175,-859.05 175,-850.07"/>
<polygon fill="black" stroke="black" points="178.5,-850.03 175,-840.03 171.5,-850.03 178.5,-850.03"/>
</g>
<!-- get_field_index -->
<g id="node5" class="node">
<title>get_field_index</title>
<path fill="none" stroke="black" d="M292.5,-767C292.5,-767 57.5,-767 57.5,-767 51.5,-767 45.5,-761 45.5,-755 45.5,-755 45.5,-743 45.5,-743 45.5,-737 51.5,-731 57.5,-731 57.5,-731 292.5,-731 292.5,-731 298.5,-731 304.5,-737 304.5,-743 304.5,-743 304.5,-755 304.5,-755 304.5,-761 298.5,-767 292.5,-767"/>
<text text-anchor="middle" x="175" y="-745.3" font-family="Helvetica,sans-Serif" font-size="14.00">Get field_index via unionFieldIndex</text>
</g>
<!-- resolve_fields&#45;&gt;get_field_index -->
<g id="edge4" class="edge">
<title>resolve_fields&#45;&gt;get_field_index</title>
<path fill="none" stroke="black" d="M175,-803.81C175,-795.79 175,-786.05 175,-777.07"/>
<polygon fill="black" stroke="black" points="178.5,-777.03 175,-767.03 171.5,-777.03 178.5,-777.03"/>
</g>
<!-- check_initializing_noreturn -->
<g id="node6" class="node">
<title>check_initializing_noreturn</title>
<path fill="none" stroke="black" d="M308,-694C308,-694 42,-694 42,-694 36,-694 30,-688 30,-682 30,-682 30,-670 30,-670 30,-664 36,-658 42,-658 42,-658 308,-658 308,-658 314,-658 320,-664 320,-670 320,-670 320,-682 320,-682 320,-688 314,-694 308,-694"/>
<text text-anchor="middle" x="175" y="-672.3" font-family="Helvetica,sans-Serif" font-size="14.00">if (initializing &amp;&amp; field_ty == .noreturn)</text>
</g>
<!-- get_field_index&#45;&gt;check_initializing_noreturn -->
<g id="edge5" class="edge">
<title>get_field_index&#45;&gt;check_initializing_noreturn</title>
<path fill="none" stroke="black" d="M175,-730.81C175,-722.79 175,-713.05 175,-704.07"/>
<polygon fill="black" stroke="black" points="178.5,-704.03 175,-694.03 171.5,-704.03 178.5,-704.03"/>
</g>
<!-- create_error_msg -->
<g id="node7" class="node">
<title>create_error_msg</title>
<path fill="none" stroke="black" d="M154,-553C154,-553 12,-553 12,-553 6,-553 0,-547 0,-541 0,-541 0,-512 0,-512 0,-506 6,-500 12,-500 12,-500 154,-500 154,-500 160,-500 166,-506 166,-512 166,-512 166,-541 166,-541 166,-547 160,-553 154,-553"/>
<text text-anchor="middle" x="83" y="-537.8" font-family="Helvetica,sans-Serif" font-size="14.00">Create error message</text>
<text text-anchor="middle" x="83" y="-522.8" font-family="Helvetica,sans-Serif" font-size="14.00">Add notes</text>
<text text-anchor="middle" x="83" y="-507.8" font-family="Helvetica,sans-Serif" font-size="14.00">Return error</text>
</g>
<!-- check_initializing_noreturn&#45;&gt;create_error_msg -->
<g id="edge6" class="edge">
<title>check_initializing_noreturn&#45;&gt;create_error_msg</title>
<path fill="none" stroke="black" d="M164.27,-657.79C149.64,-634.34 123.13,-591.84 104.37,-561.76"/>
<polygon fill="black" stroke="black" points="107.32,-559.88 99.06,-553.25 101.38,-563.59 107.32,-559.88"/>
<text text-anchor="middle" x="163.5" y="-628.8" font-family="Helvetica,sans-Serif" font-size="14.00">Yes</text>
</g>
<!-- resolve_union_ptr_val -->
<g id="node8" class="node">
<title>resolve_union_ptr_val</title>
<path fill="none" stroke="black" d="M462,-607C462,-607 226,-607 226,-607 220,-607 214,-601 214,-595 214,-595 214,-583 214,-583 214,-577 220,-571 226,-571 226,-571 462,-571 462,-571 468,-571 474,-577 474,-583 474,-583 474,-595 474,-595 474,-601 468,-607 462,-607"/>
<text text-anchor="middle" x="344" y="-585.3" font-family="Helvetica,sans-Serif" font-size="14.00">Try resolveDefinedValue(union_ptr)</text>
</g>
<!-- check_initializing_noreturn&#45;&gt;resolve_union_ptr_val -->
<g id="edge7" class="edge">
<title>check_initializing_noreturn&#45;&gt;resolve_union_ptr_val</title>
<path fill="none" stroke="black" d="M209.2,-657.8C235.74,-644.45 272.7,-625.86 301.21,-611.52"/>
<polygon fill="black" stroke="black" points="302.78,-614.65 310.14,-607.03 299.63,-608.4 302.78,-614.65"/>
<text text-anchor="middle" x="279.5" y="-628.8" font-family="Helvetica,sans-Serif" font-size="14.00">No</text>
</g>
<!-- end_error -->
<g id="node22" class="node">
<title>end_error</title>
<ellipse fill="none" stroke="black" cx="266" cy="-18" rx="52.79" ry="18"/>
<text text-anchor="middle" x="266" y="-14.3" font-family="Helvetica,sans-Serif" font-size="14.00">Error Exit</text>
</g>
<!-- create_error_msg&#45;&gt;end_error -->
<g id="edge23" class="edge">
<title>create_error_msg&#45;&gt;end_error</title>
<path fill="none" stroke="black" d="M66.56,-499.67C55.15,-479.27 42,-449.64 42,-421.5 42,-421.5 42,-421.5 42,-91 42,-56.27 140.8,-35.92 207.17,-26.16"/>
<polygon fill="black" stroke="black" points="207.71,-29.62 217.12,-24.74 206.72,-22.69 207.71,-29.62"/>
<text text-anchor="middle" x="92" y="-264.3" font-family="Helvetica,sans-Serif" font-size="14.00">Exit error path</text>
</g>
<!-- handle_auto_layout -->
<g id="node9" class="node">
<title>handle_auto_layout</title>
<path fill="none" stroke="black" d="M678.5,-482C678.5,-482 505.5,-482 505.5,-482 499.5,-482 493.5,-476 493.5,-470 493.5,-470 493.5,-458 493.5,-458 493.5,-452 499.5,-446 505.5,-446 505.5,-446 678.5,-446 678.5,-446 684.5,-446 690.5,-452 690.5,-458 690.5,-458 690.5,-470 690.5,-470 690.5,-476 684.5,-482 678.5,-482"/>
<text text-anchor="middle" x="592" y="-460.3" font-family="Helvetica,sans-Serif" font-size="14.00">if (union_layout == .auto)</text>
</g>
<!-- resolve_union_ptr_val&#45;&gt;handle_auto_layout -->
<g id="edge8" class="edge">
<title>resolve_union_ptr_val&#45;&gt;handle_auto_layout</title>
<path fill="none" stroke="black" d="M378.48,-570.9C422.87,-548.88 500.03,-510.62 548.43,-486.61"/>
<polygon fill="black" stroke="black" points="550.01,-489.73 557.41,-482.16 546.9,-483.46 550.01,-489.73"/>
<text text-anchor="middle" x="546.5" y="-522.8" font-family="Helvetica,sans-Serif" font-size="14.00">Success</text>
</g>
<!-- safety_check -->
<g id="node17" class="node">
<title>safety_check</title>
<path fill="none" stroke="black" d="M489,-395C489,-395 199,-395 199,-395 193,-395 187,-389 187,-383 187,-383 187,-371 187,-371 187,-365 193,-359 199,-359 199,-359 489,-359 489,-359 495,-359 501,-365 501,-371 501,-371 501,-383 501,-383 501,-389 495,-395 489,-395"/>
<text text-anchor="middle" x="344" y="-373.3" font-family="Helvetica,sans-Serif" font-size="14.00">if (wantSafety &amp;&amp; auto layout &amp;&amp; has_tag)</text>
</g>
<!-- resolve_union_ptr_val&#45;&gt;safety_check -->
<g id="edge9" class="edge">
<title>resolve_union_ptr_val&#45;&gt;safety_check</title>
<path fill="none" stroke="black" d="M344,-570.81C344,-534.42 344,-449.32 344,-405.36"/>
<polygon fill="black" stroke="black" points="347.5,-405.13 344,-395.13 340.5,-405.13 347.5,-405.13"/>
<text text-anchor="middle" x="367" y="-460.3" font-family="Helvetica,sans-Serif" font-size="14.00">Failure</text>
</g>
<!-- handle_initializing_auto -->
<g id="node10" class="node">
<title>handle_initializing_auto</title>
<path fill="none" stroke="black" d="M635.5,-395C635.5,-395 548.5,-395 548.5,-395 542.5,-395 536.5,-389 536.5,-383 536.5,-383 536.5,-371 536.5,-371 536.5,-365 542.5,-359 548.5,-359 548.5,-359 635.5,-359 635.5,-359 641.5,-359 647.5,-365 647.5,-371 647.5,-371 647.5,-383 647.5,-383 647.5,-389 641.5,-395 635.5,-395"/>
<text text-anchor="middle" x="592" y="-373.3" font-family="Helvetica,sans-Serif" font-size="14.00">if (initializing)</text>
</g>
<!-- handle_auto_layout&#45;&gt;handle_initializing_auto -->
<g id="edge10" class="edge">
<title>handle_auto_layout&#45;&gt;handle_initializing_auto</title>
<path fill="none" stroke="black" d="M592,-445.8C592,-434.16 592,-418.55 592,-405.24"/>
<polygon fill="black" stroke="black" points="595.5,-405.18 592,-395.18 588.5,-405.18 595.5,-405.18"/>
<text text-anchor="middle" x="610" y="-416.8" font-family="Helvetica,sans-Serif" font-size="14.00">.auto</text>
</g>
<!-- handle_packed_extern -->
<g id="node15" class="node">
<title>handle_packed_extern</title>
<path fill="none" stroke="black" d="M966,-341C966,-341 766,-341 766,-341 760,-341 754,-335 754,-329 754,-329 754,-317 754,-317 754,-311 760,-305 766,-305 766,-305 966,-305 966,-305 972,-305 978,-311 978,-317 978,-317 978,-329 978,-329 978,-335 972,-341 966,-341"/>
<text text-anchor="middle" x="866" y="-319.3" font-family="Helvetica,sans-Serif" font-size="14.00">Handle .packed/.extern layout</text>
</g>
<!-- handle_auto_layout&#45;&gt;handle_packed_extern -->
<g id="edge11" class="edge">
<title>handle_auto_layout&#45;&gt;handle_packed_extern</title>
<path fill="none" stroke="black" d="M625.6,-445.96C675.31,-420.74 768.45,-373.49 823.05,-345.79"/>
<polygon fill="black" stroke="black" points="824.79,-348.83 832.13,-341.18 821.63,-342.59 824.79,-348.83"/>
<text text-anchor="middle" x="742" y="-416.8" font-family="Helvetica,sans-Serif" font-size="14.00">.packed/.extern</text>
</g>
<!-- store_new_union_val -->
<g id="node11" class="node">
<title>store_new_union_val</title>
<path fill="none" stroke="black" d="M642.5,-287C642.5,-287 495.5,-287 495.5,-287 489.5,-287 483.5,-281 483.5,-275 483.5,-275 483.5,-261 483.5,-261 483.5,-255 489.5,-249 495.5,-249 495.5,-249 642.5,-249 642.5,-249 648.5,-249 654.5,-255 654.5,-261 654.5,-261 654.5,-275 654.5,-275 654.5,-281 648.5,-287 642.5,-287"/>
<text text-anchor="middle" x="569" y="-271.8" font-family="Helvetica,sans-Serif" font-size="14.00">Store new union value</text>
<text text-anchor="middle" x="569" y="-256.8" font-family="Helvetica,sans-Serif" font-size="14.00">to initialize tag</text>
</g>
<!-- handle_initializing_auto&#45;&gt;store_new_union_val -->
<g id="edge12" class="edge">
<title>handle_initializing_auto&#45;&gt;store_new_union_val</title>
<path fill="none" stroke="black" d="M588.3,-358.81C584.73,-342.18 579.25,-316.7 575.04,-297.12"/>
<polygon fill="black" stroke="black" points="578.44,-296.26 572.92,-287.22 571.6,-297.74 578.44,-296.26"/>
<text text-anchor="middle" x="594.5" y="-319.3" font-family="Helvetica,sans-Serif" font-size="14.00">Yes</text>
</g>
<!-- check_undef -->
<g id="node12" class="node">
<title>check_undef</title>
<path fill="none" stroke="black" d="M865,-286C865,-286 685,-286 685,-286 679,-286 673,-280 673,-274 673,-274 673,-262 673,-262 673,-256 679,-250 685,-250 685,-250 865,-250 865,-250 871,-250 877,-256 877,-262 877,-262 877,-274 877,-274 877,-280 871,-286 865,-286"/>
<text text-anchor="middle" x="775" y="-264.3" font-family="Helvetica,sans-Serif" font-size="14.00">Check if union_val is undef</text>
</g>
<!-- handle_initializing_auto&#45;&gt;check_undef -->
<g id="edge13" class="edge">
<title>handle_initializing_auto&#45;&gt;check_undef</title>
<path fill="none" stroke="black" d="M621.4,-358.81C652.75,-340.48 702.51,-311.38 736.86,-291.3"/>
<polygon fill="black" stroke="black" points="738.8,-294.22 745.67,-286.15 735.27,-288.17 738.8,-294.22"/>
<text text-anchor="middle" x="719.5" y="-319.3" font-family="Helvetica,sans-Serif" font-size="14.00">No</text>
</g>
<!-- check_tag_match -->
<g id="node13" class="node">
<title>check_tag_match</title>
<path fill="none" stroke="black" d="M864.5,-198C864.5,-198 679.5,-198 679.5,-198 673.5,-198 667.5,-192 667.5,-186 667.5,-186 667.5,-174 667.5,-174 667.5,-168 673.5,-162 679.5,-162 679.5,-162 864.5,-162 864.5,-162 870.5,-162 876.5,-168 876.5,-174 876.5,-174 876.5,-186 876.5,-186 876.5,-192 870.5,-198 864.5,-198"/>
<text text-anchor="middle" x="772" y="-176.3" font-family="Helvetica,sans-Serif" font-size="14.00">Check if active tag matches</text>
</g>
<!-- check_undef&#45;&gt;check_tag_match -->
<g id="edge14" class="edge">
<title>check_undef&#45;&gt;check_tag_match</title>
<path fill="none" stroke="black" d="M774.39,-249.6C773.98,-237.75 773.42,-221.82 772.95,-208.29"/>
<polygon fill="black" stroke="black" points="776.44,-207.96 772.6,-198.08 769.45,-208.2 776.44,-207.96"/>
<text text-anchor="middle" x="808" y="-219.8" font-family="Helvetica,sans-Serif" font-size="14.00">Not undef</text>
</g>
<!-- tag_mismatch_error -->
<g id="node14" class="node">
<title>tag_mismatch_error</title>
<path fill="none" stroke="black" d="M748.5,-111C748.5,-111 573.5,-111 573.5,-111 567.5,-111 561.5,-105 561.5,-99 561.5,-99 561.5,-85 561.5,-85 561.5,-79 567.5,-73 573.5,-73 573.5,-73 748.5,-73 748.5,-73 754.5,-73 760.5,-79 760.5,-85 760.5,-85 760.5,-99 760.5,-99 760.5,-105 754.5,-111 748.5,-111"/>
<text text-anchor="middle" x="661" y="-95.8" font-family="Helvetica,sans-Serif" font-size="14.00">Create tag mismatch error</text>
<text text-anchor="middle" x="661" y="-80.8" font-family="Helvetica,sans-Serif" font-size="14.00">Return error</text>
</g>
<!-- check_tag_match&#45;&gt;tag_mismatch_error -->
<g id="edge15" class="edge">
<title>check_tag_match&#45;&gt;tag_mismatch_error</title>
<path fill="none" stroke="black" d="M749.8,-161.8C733.35,-149.05 710.68,-131.49 692.37,-117.31"/>
<polygon fill="black" stroke="black" points="694.35,-114.41 684.31,-111.06 690.07,-119.95 694.35,-114.41"/>
<text text-anchor="middle" x="759.5" y="-132.8" font-family="Helvetica,sans-Serif" font-size="14.00">Mismatch</text>
</g>
<!-- return_field_ptr_val -->
<g id="node16" class="node">
<title>return_field_ptr_val</title>
<path fill="none" stroke="black" d="M917.5,-110C917.5,-110 790.5,-110 790.5,-110 784.5,-110 778.5,-104 778.5,-98 778.5,-98 778.5,-86 778.5,-86 778.5,-80 784.5,-74 790.5,-74 790.5,-74 917.5,-74 917.5,-74 923.5,-74 929.5,-80 929.5,-86 929.5,-86 929.5,-98 929.5,-98 929.5,-104 923.5,-110 917.5,-110"/>
<text text-anchor="middle" x="854" y="-88.3" font-family="Helvetica,sans-Serif" font-size="14.00">Return field_ptr_val</text>
</g>
<!-- check_tag_match&#45;&gt;return_field_ptr_val -->
<g id="edge16" class="edge">
<title>check_tag_match&#45;&gt;return_field_ptr_val</title>
<path fill="none" stroke="black" d="M788.59,-161.6C800.68,-148.92 817.21,-131.59 830.62,-117.52"/>
<polygon fill="black" stroke="black" points="833.34,-119.74 837.71,-110.08 828.28,-114.91 833.34,-119.74"/>
<text text-anchor="middle" x="838.5" y="-132.8" font-family="Helvetica,sans-Serif" font-size="14.00">Match</text>
</g>
<!-- tag_mismatch_error&#45;&gt;end_error -->
<g id="edge24" class="edge">
<title>tag_mismatch_error&#45;&gt;end_error</title>
<path fill="none" stroke="black" d="M562.09,-72.97C486,-59.1 383.66,-40.45 321.38,-29.1"/>
<polygon fill="black" stroke="black" points="321.83,-25.62 311.37,-27.27 320.58,-32.51 321.83,-25.62"/>
</g>
<!-- handle_packed_extern&#45;&gt;return_field_ptr_val -->
<g id="edge17" class="edge">
<title>handle_packed_extern&#45;&gt;return_field_ptr_val</title>
<path fill="none" stroke="black" d="M878.07,-304.97C881.3,-299.49 884.35,-293.22 886,-287 900.26,-233.31 897.97,-216.25 886,-162 882.71,-147.1 875.87,-131.59 869.36,-119.06"/>
<polygon fill="black" stroke="black" points="872.35,-117.24 864.5,-110.12 866.2,-120.58 872.35,-117.24"/>
</g>
<!-- end_ok -->
<g id="node23" class="node">
<title>end_ok</title>
<ellipse fill="none" stroke="black" cx="639" cy="-18" rx="63.09" ry="18"/>
<text text-anchor="middle" x="639" y="-14.3" font-family="Helvetica,sans-Serif" font-size="14.00">Normal Exit</text>
</g>
<!-- return_field_ptr_val&#45;&gt;end_ok -->
<g id="edge26" class="edge">
<title>return_field_ptr_val&#45;&gt;end_ok</title>
<path fill="none" stroke="black" d="M803.05,-73.94C768.24,-62.28 722.37,-46.92 687.99,-35.4"/>
<polygon fill="black" stroke="black" points="688.75,-31.97 678.16,-32.11 686.53,-38.61 688.75,-31.97"/>
</g>
<!-- add_safety_check -->
<g id="node18" class="node">
<title>add_safety_check</title>
<path fill="none" stroke="black" d="M453,-287C453,-287 341,-287 341,-287 335,-287 329,-281 329,-275 329,-275 329,-261 329,-261 329,-255 335,-249 341,-249 341,-249 453,-249 453,-249 459,-249 465,-255 465,-261 465,-261 465,-275 465,-275 465,-281 459,-287 453,-287"/>
<text text-anchor="middle" x="397" y="-271.8" font-family="Helvetica,sans-Serif" font-size="14.00">Add safety check</text>
<text text-anchor="middle" x="397" y="-256.8" font-family="Helvetica,sans-Serif" font-size="14.00">for union tag</text>
</g>
<!-- safety_check&#45;&gt;add_safety_check -->
<g id="edge18" class="edge">
<title>safety_check&#45;&gt;add_safety_check</title>
<path fill="none" stroke="black" d="M352.52,-358.81C360.86,-341.95 373.72,-316 383.47,-296.31"/>
<polygon fill="black" stroke="black" points="386.67,-297.74 387.97,-287.22 380.4,-294.63 386.67,-297.74"/>
<text text-anchor="middle" x="432" y="-319.3" font-family="Helvetica,sans-Serif" font-size="14.00">Conditions met</text>
</g>
<!-- check_noreturn_field -->
<g id="node19" class="node">
<title>check_noreturn_field</title>
<path fill="none" stroke="black" d="M409,-198C409,-198 245,-198 245,-198 239,-198 233,-192 233,-186 233,-186 233,-174 233,-174 233,-168 239,-162 245,-162 245,-162 409,-162 409,-162 415,-162 421,-168 421,-174 421,-174 421,-186 421,-186 421,-192 415,-198 409,-198"/>
<text text-anchor="middle" x="327" y="-176.3" font-family="Helvetica,sans-Serif" font-size="14.00">if (field_ty == .noreturn)</text>
</g>
<!-- safety_check&#45;&gt;check_noreturn_field -->
<g id="edge19" class="edge">
<title>safety_check&#45;&gt;check_noreturn_field</title>
<path fill="none" stroke="black" d="M284.23,-358.89C249.22,-345.45 207.9,-322.87 187,-287 178.5,-272.41 178.04,-263.32 187,-249 200.67,-227.16 223.58,-212.16 246.94,-201.93"/>
<polygon fill="black" stroke="black" points="248.34,-205.14 256.25,-198.1 245.67,-198.67 248.34,-205.14"/>
<text text-anchor="middle" x="253.5" y="-264.3" font-family="Helvetica,sans-Serif" font-size="14.00">Conditions not met</text>
</g>
<!-- add_safety_check&#45;&gt;check_noreturn_field -->
<g id="edge20" class="edge">
<title>add_safety_check&#45;&gt;check_noreturn_field</title>
<path fill="none" stroke="black" d="M382.15,-248.76C372.05,-236.35 358.55,-219.76 347.43,-206.1"/>
<polygon fill="black" stroke="black" points="349.9,-203.59 340.87,-198.04 344.47,-208.01 349.9,-203.59"/>
</g>
<!-- add_unreachable -->
<g id="node20" class="node">
<title>add_unreachable</title>
<path fill="none" stroke="black" d="M354.5,-111C354.5,-111 177.5,-111 177.5,-111 171.5,-111 165.5,-105 165.5,-99 165.5,-99 165.5,-85 165.5,-85 165.5,-79 171.5,-73 177.5,-73 177.5,-73 354.5,-73 354.5,-73 360.5,-73 366.5,-79 366.5,-85 366.5,-85 366.5,-99 366.5,-99 366.5,-105 360.5,-111 354.5,-111"/>
<text text-anchor="middle" x="266" y="-95.8" font-family="Helvetica,sans-Serif" font-size="14.00">Add unreachable op</text>
<text text-anchor="middle" x="266" y="-80.8" font-family="Helvetica,sans-Serif" font-size="14.00">Return .unreachable_value</text>
</g>
<!-- check_noreturn_field&#45;&gt;add_unreachable -->
<g id="edge21" class="edge">
<title>check_noreturn_field&#45;&gt;add_unreachable</title>
<path fill="none" stroke="black" d="M314.66,-161.6C306.15,-149.6 294.67,-133.42 285,-119.79"/>
<polygon fill="black" stroke="black" points="287.6,-117.4 278.96,-111.27 281.89,-121.45 287.6,-117.4"/>
<text text-anchor="middle" x="313.5" y="-132.8" font-family="Helvetica,sans-Serif" font-size="14.00">Yes</text>
</g>
<!-- return_struct_field_ptr -->
<g id="node21" class="node">
<title>return_struct_field_ptr</title>
<path fill="none" stroke="black" d="M531,-110C531,-110 397,-110 397,-110 391,-110 385,-104 385,-98 385,-98 385,-86 385,-86 385,-80 391,-74 397,-74 397,-74 531,-74 531,-74 537,-74 543,-80 543,-86 543,-86 543,-98 543,-98 543,-104 537,-110 531,-110"/>
<text text-anchor="middle" x="464" y="-88.3" font-family="Helvetica,sans-Serif" font-size="14.00">Return structFieldPtr</text>
</g>
<!-- check_noreturn_field&#45;&gt;return_struct_field_ptr -->
<g id="edge22" class="edge">
<title>check_noreturn_field&#45;&gt;return_struct_field_ptr</title>
<path fill="none" stroke="black" d="M354.39,-161.8C375.58,-148.5 405.1,-129.98 428.16,-115.5"/>
<polygon fill="black" stroke="black" points="430.04,-118.45 436.65,-110.17 426.32,-112.52 430.04,-118.45"/>
<text text-anchor="middle" x="413.5" y="-132.8" font-family="Helvetica,sans-Serif" font-size="14.00">No</text>
</g>
<!-- add_unreachable&#45;&gt;end_error -->
<g id="edge25" class="edge">
<title>add_unreachable&#45;&gt;end_error</title>
<path fill="none" stroke="black" d="M266,-72.83C266,-64.89 266,-55.41 266,-46.63"/>
<polygon fill="black" stroke="black" points="269.5,-46.42 266,-36.42 262.5,-46.42 269.5,-46.42"/>
</g>
<!-- return_struct_field_ptr&#45;&gt;end_ok -->
<g id="edge27" class="edge">
<title>return_struct_field_ptr&#45;&gt;end_ok</title>
<path fill="none" stroke="black" d="M505.47,-73.94C532.51,-62.81 567.73,-48.32 595.22,-37.01"/>
<polygon fill="black" stroke="black" points="596.67,-40.2 604.59,-33.16 594.01,-33.73 596.67,-40.2"/>
</g>
</g>
</svg>
