<?xml version="1.0" encoding="UTF-8" standalone="no"?>
<!DOCTYPE svg PUBLIC "-//W3C//DTD SVG 1.1//EN"
 "http://www.w3.org/Graphics/SVG/1.1/DTD/svg11.dtd">
<!-- Generated by graphviz version 2.43.0 (0)
 -->
<!-- Title: flowchart Pages: 1 -->
<svg width="529pt" height="1341pt"
 viewBox="0.00 0.00 528.76 1341.38" xmlns="http://www.w3.org/2000/svg" xmlns:xlink="http://www.w3.org/1999/xlink">
<g id="graph0" class="graph" transform="scale(1 1) rotate(0) translate(4 1337.38)">
<title>flowchart</title>
<polygon fill="white" stroke="transparent" points="-4,4 -4,-1337.38 524.76,-1337.38 524.76,4 -4,4"/>
<!-- start -->
<g id="node1" class="node">
<title>start</title>
<polygon fill="none" stroke="black" points="136.76,-1333.38 4.76,-1333.38 4.76,-1297.38 136.76,-1297.38 136.76,-1333.38"/>
<text text-anchor="middle" x="70.76" y="-1312.88" font-family="Courier,monospace" font-size="10.00">开始: zirArrayInit()</text>
</g>
<!-- resolve_type -->
<g id="node2" class="node">
<title>resolve_type</title>
<polygon fill="none" stroke="black" points="131.76,-1260.38 9.76,-1260.38 9.76,-1224.38 131.76,-1224.38 131.76,-1260.38"/>
<text text-anchor="middle" x="70.76" y="-1239.88" font-family="Courier,monospace" font-size="10.00">解析参数类型 args[0]</text>
</g>
<!-- start&#45;&gt;resolve_type -->
<g id="edge1" class="edge">
<title>start&#45;&gt;resolve_type</title>
<path fill="none" stroke="black" d="M70.76,-1297.2C70.76,-1289.17 70.76,-1279.43 70.76,-1270.45"/>
<polygon fill="black" stroke="black" points="74.26,-1270.41 70.76,-1260.41 67.26,-1270.41 74.26,-1270.41"/>
</g>
<!-- check_type_known -->
<g id="node3" class="node">
<title>check_type_known</title>
<polygon fill="none" stroke="black" points="70.76,-1187.38 0.24,-1169.38 70.76,-1151.38 141.29,-1169.38 70.76,-1187.38"/>
<text text-anchor="middle" x="70.76" y="-1166.88" font-family="Courier,monospace" font-size="10.00">类型是否已知？</text>
</g>
<!-- resolve_type&#45;&gt;check_type_known -->
<g id="edge2" class="edge">
<title>resolve_type&#45;&gt;check_type_known</title>
<path fill="none" stroke="black" d="M70.76,-1224.2C70.76,-1216.17 70.76,-1206.43 70.76,-1197.45"/>
<polygon fill="black" stroke="black" points="74.26,-1197.41 70.76,-1187.41 67.26,-1197.41 74.26,-1197.41"/>
</g>
<!-- anon_array -->
<g id="node4" class="node">
<title>anon_array</title>
<polygon fill="none" stroke="black" points="140.26,-43.19 9.26,-43.19 9.26,-7.19 140.26,-7.19 140.26,-43.19"/>
<text text-anchor="middle" x="74.76" y="-28.19" font-family="Courier,monospace" font-size="10.00">调用 arrayInitAnon()</text>
<text text-anchor="middle" x="74.76" y="-17.19" font-family="Courier,monospace" font-size="10.00">返回匿名数组</text>
</g>
<!-- check_type_known&#45;&gt;anon_array -->
<g id="edge3" class="edge">
<title>check_type_known&#45;&gt;anon_array</title>
<path fill="none" stroke="black" d="M65.7,-1152.43C61.01,-1136.23 54.76,-1110.32 54.76,-1087.38 54.76,-1087.38 54.76,-1087.38 54.76,-104.38 54.76,-86.85 59.54,-67.78 64.43,-52.86"/>
<polygon fill="black" stroke="black" points="67.78,-53.86 67.77,-43.26 61.17,-51.56 67.78,-53.86"/>
<text text-anchor="middle" x="59.76" y="-605.88" font-family="Courier,monospace" font-size="10.00">否</text>
</g>
<!-- get_array_type -->
<g id="node5" class="node">
<title>get_array_type</title>
<polygon fill="none" stroke="black" points="269.76,-1104.38 115.76,-1104.38 115.76,-1068.38 269.76,-1068.38 269.76,-1104.38"/>
<text text-anchor="middle" x="192.76" y="-1083.88" font-family="Courier,monospace" font-size="10.00">获取数组/元组类型 array_ty</text>
</g>
<!-- check_type_known&#45;&gt;get_array_type -->
<g id="edge4" class="edge">
<title>check_type_known&#45;&gt;get_array_type</title>
<path fill="none" stroke="black" d="M89.29,-1156.08C107.53,-1143.97 135.84,-1125.18 158.23,-1110.31"/>
<polygon fill="black" stroke="black" points="160.41,-1113.07 166.8,-1104.62 156.54,-1107.23 160.41,-1113.07"/>
<text text-anchor="middle" x="143.76" y="-1125.38" font-family="Courier,monospace" font-size="10.00">是</text>
</g>
<!-- end -->
<g id="node26" class="node">
<title>end</title>
<ellipse fill="none" stroke="black" cx="313.76" cy="-25.19" rx="21.35" ry="21.35"/>
<ellipse fill="none" stroke="black" cx="313.76" cy="-25.19" rx="25.39" ry="25.39"/>
<text text-anchor="middle" x="313.76" y="-22.69" font-family="Courier,monospace" font-size="10.00">结束</text>
</g>
<!-- anon_array&#45;&gt;end -->
<!-- check_tuple -->
<g id="node6" class="node">
<title>check_tuple</title>
<polygon fill="none" stroke="black" points="225.76,-1031.38 163.39,-1013.38 225.76,-995.38 288.14,-1013.38 225.76,-1031.38"/>
<text text-anchor="middle" x="225.76" y="-1010.88" font-family="Courier,monospace" font-size="10.00">是否是元组？</text>
</g>
<!-- get_array_type&#45;&gt;check_tuple -->
<g id="edge5" class="edge">
<title>get_array_type&#45;&gt;check_tuple</title>
<path fill="none" stroke="black" d="M200.75,-1068.2C204.87,-1059.33 209.97,-1048.37 214.48,-1038.66"/>
<polygon fill="black" stroke="black" points="217.7,-1040.03 218.74,-1029.48 211.35,-1037.08 217.7,-1040.03"/>
</g>
<!-- handle_sentinel -->
<g id="node7" class="node">
<title>handle_sentinel</title>
<polygon fill="none" stroke="black" points="297.26,-948.38 154.26,-948.38 154.26,-912.38 297.26,-912.38 297.26,-948.38"/>
<text text-anchor="middle" x="225.76" y="-927.88" font-family="Courier,monospace" font-size="10.00">处理哨兵值 sentinel_val</text>
</g>
<!-- check_tuple&#45;&gt;handle_sentinel -->
<g id="edge6" class="edge">
<title>check_tuple&#45;&gt;handle_sentinel</title>
<path fill="none" stroke="black" d="M225.76,-995.21C225.76,-984.57 225.76,-970.69 225.76,-958.59"/>
<polygon fill="black" stroke="black" points="229.26,-958.54 225.76,-948.54 222.26,-958.54 229.26,-958.54"/>
<text text-anchor="middle" x="230.76" y="-969.38" font-family="Courier,monospace" font-size="10.00">否</text>
</g>
<!-- handle_missing_field -->
<g id="node11" class="node">
<title>handle_missing_field</title>
<polygon fill="none" stroke="black" points="337.26,-626.38 242.26,-626.38 242.26,-590.38 337.26,-590.38 337.26,-626.38"/>
<text text-anchor="middle" x="289.76" y="-611.38" font-family="Courier,monospace" font-size="10.00">处理缺失字段</text>
<text text-anchor="middle" x="289.76" y="-600.38" font-family="Courier,monospace" font-size="10.00">设置默认值或错误</text>
</g>
<!-- check_tuple&#45;&gt;handle_missing_field -->
<g id="edge7" class="edge">
<title>check_tuple&#45;&gt;handle_missing_field</title>
<path fill="none" stroke="black" d="M260.91,-1005.39C297.89,-995.75 350.76,-974.44 350.76,-931.38 350.76,-931.38 350.76,-931.38 350.76,-690.38 350.76,-668.2 335.98,-648.22 320.97,-633.66"/>
<polygon fill="black" stroke="black" points="322.92,-630.71 313.17,-626.56 318.2,-635.88 322.92,-630.71"/>
<text text-anchor="middle" x="355.76" y="-813.38" font-family="Courier,monospace" font-size="10.00">是</text>
</g>
<!-- alloc_resolved_args -->
<g id="node8" class="node">
<title>alloc_resolved_args</title>
<polygon fill="none" stroke="black" points="298.26,-875.38 153.26,-875.38 153.26,-839.38 298.26,-839.38 298.26,-875.38"/>
<text text-anchor="middle" x="225.76" y="-854.88" font-family="Courier,monospace" font-size="10.00">分配 resolved_args 数组</text>
</g>
<!-- handle_sentinel&#45;&gt;alloc_resolved_args -->
<g id="edge8" class="edge">
<title>handle_sentinel&#45;&gt;alloc_resolved_args</title>
<path fill="none" stroke="black" d="M225.76,-912.2C225.76,-904.17 225.76,-894.43 225.76,-885.45"/>
<polygon fill="black" stroke="black" points="229.26,-885.41 225.76,-875.41 222.26,-885.41 229.26,-885.41"/>
</g>
<!-- loop_start -->
<g id="node9" class="node">
<title>loop_start</title>
<polygon fill="none" stroke="black" points="286.76,-792.38 164.76,-792.38 164.76,-756.38 286.76,-756.38 286.76,-792.38"/>
<text text-anchor="middle" x="225.76" y="-771.88" font-family="Courier,monospace" font-size="10.00">遍历元素 (i from 0)</text>
</g>
<!-- alloc_resolved_args&#45;&gt;loop_start -->
<g id="edge9" class="edge">
<title>alloc_resolved_args&#45;&gt;loop_start</title>
<path fill="none" stroke="black" d="M225.76,-839.21C225.76,-828.57 225.76,-814.69 225.76,-802.59"/>
<polygon fill="black" stroke="black" points="229.26,-802.54 225.76,-792.54 222.26,-802.54 229.26,-802.54"/>
</g>
<!-- check_element_count -->
<g id="node10" class="node">
<title>check_element_count</title>
<polygon fill="none" stroke="black" points="225.76,-709.38 129.12,-691.38 225.76,-673.38 322.4,-691.38 225.76,-709.38"/>
<text text-anchor="middle" x="225.76" y="-688.88" font-family="Courier,monospace" font-size="10.00">i+1 &gt;= args.len？</text>
</g>
<!-- loop_start&#45;&gt;check_element_count -->
<g id="edge10" class="edge">
<title>loop_start&#45;&gt;check_element_count</title>
<path fill="none" stroke="black" d="M225.76,-756.21C225.76,-745.57 225.76,-731.69 225.76,-719.59"/>
<polygon fill="black" stroke="black" points="229.26,-719.54 225.76,-709.54 222.26,-719.54 229.26,-719.54"/>
</g>
<!-- check_errors -->
<g id="node15" class="node">
<title>check_errors</title>
<polygon fill="none" stroke="black" points="432.76,-709.38 378.54,-691.38 432.76,-673.38 486.99,-691.38 432.76,-709.38"/>
<text text-anchor="middle" x="432.76" y="-688.88" font-family="Courier,monospace" font-size="10.00">存在错误？</text>
</g>
<!-- loop_start&#45;&gt;check_errors -->
<g id="edge17" class="edge">
<title>loop_start&#45;&gt;check_errors</title>
<path fill="none" stroke="black" d="M269.41,-756.3C308.33,-741.07 364.46,-719.11 399.76,-705.3"/>
<polygon fill="black" stroke="black" points="401.09,-708.54 409.13,-701.63 398.54,-702.02 401.09,-708.54"/>
<text text-anchor="middle" x="360.76" y="-730.38" font-family="Courier,monospace" font-size="10.00">循环结束</text>
</g>
<!-- check_element_count&#45;&gt;handle_missing_field -->
<g id="edge11" class="edge">
<title>check_element_count&#45;&gt;handle_missing_field</title>
<path fill="none" stroke="black" d="M237.5,-675.53C246.59,-664.03 259.37,-647.85 270.02,-634.37"/>
<polygon fill="black" stroke="black" points="272.87,-636.4 276.33,-626.39 267.38,-632.07 272.87,-636.4"/>
<text text-anchor="middle" x="265.76" y="-647.38" font-family="Courier,monospace" font-size="10.00">是</text>
</g>
<!-- resolve_element -->
<g id="node13" class="node">
<title>resolve_element</title>
<polygon fill="none" stroke="black" points="224.26,-626.38 159.26,-626.38 159.26,-590.38 224.26,-590.38 224.26,-626.38"/>
<text text-anchor="middle" x="191.76" y="-611.38" font-family="Courier,monospace" font-size="10.00">解析元素值</text>
<text text-anchor="middle" x="191.76" y="-600.38" font-family="Courier,monospace" font-size="10.00">并类型检查</text>
</g>
<!-- check_element_count&#45;&gt;resolve_element -->
<g id="edge12" class="edge">
<title>check_element_count&#45;&gt;resolve_element</title>
<path fill="none" stroke="black" d="M218.25,-674.44C215.5,-668.49 212.42,-661.66 209.76,-655.38 207.13,-649.17 204.41,-642.42 201.91,-636.06"/>
<polygon fill="black" stroke="black" points="205.09,-634.57 198.2,-626.51 198.56,-637.1 205.09,-634.57"/>
<text text-anchor="middle" x="214.76" y="-647.38" font-family="Courier,monospace" font-size="10.00">否</text>
</g>
<!-- check_comptime_field -->
<g id="node12" class="node">
<title>check_comptime_field</title>
<polygon fill="none" stroke="black" points="233.26,-518.38 148.26,-518.38 148.26,-482.38 233.26,-482.38 233.26,-518.38"/>
<text text-anchor="middle" x="190.76" y="-503.38" font-family="Courier,monospace" font-size="10.00">处理编译时字段</text>
<text text-anchor="middle" x="190.76" y="-492.38" font-family="Courier,monospace" font-size="10.00">验证字段值</text>
</g>
<!-- handle_missing_field&#45;&gt;check_comptime_field -->
<g id="edge13" class="edge">
<title>handle_missing_field&#45;&gt;check_comptime_field</title>
<path fill="none" stroke="black" d="M273.86,-590.35C257.64,-572.99 232.33,-545.89 213.9,-526.15"/>
<polygon fill="black" stroke="black" points="216.34,-523.64 206.96,-518.72 211.23,-528.42 216.34,-523.64"/>
</g>
<!-- next_element -->
<g id="node14" class="node">
<title>next_element</title>
<polygon fill="none" stroke="black" points="162.76,-435.38 108.76,-435.38 108.76,-399.38 162.76,-399.38 162.76,-435.38"/>
<text text-anchor="middle" x="135.76" y="-414.88" font-family="Courier,monospace" font-size="10.00">i++</text>
</g>
<!-- check_comptime_field&#45;&gt;next_element -->
<g id="edge15" class="edge">
<title>check_comptime_field&#45;&gt;next_element</title>
<path fill="none" stroke="black" d="M179.1,-482.21C171.59,-471.14 161.69,-456.56 153.24,-444.13"/>
<polygon fill="black" stroke="black" points="155.92,-441.84 147.41,-435.54 150.13,-445.78 155.92,-441.84"/>
</g>
<!-- resolve_element&#45;&gt;check_comptime_field -->
<g id="edge14" class="edge">
<title>resolve_element&#45;&gt;check_comptime_field</title>
<path fill="none" stroke="black" d="M191.6,-590.35C191.44,-573.76 191.2,-548.27 191.02,-528.81"/>
<polygon fill="black" stroke="black" points="194.52,-528.69 190.93,-518.72 187.52,-528.76 194.52,-528.69"/>
</g>
<!-- next_element&#45;&gt;loop_start -->
<g id="edge16" class="edge">
<title>next_element&#45;&gt;loop_start</title>
<path fill="none" stroke="black" d="M123.52,-435.48C113.43,-451.27 100.76,-475.79 100.76,-499.38 100.76,-692.38 100.76,-692.38 100.76,-692.38 100.76,-722.72 127.01,-742.26 155.45,-754.53"/>
<polygon fill="black" stroke="black" points="154.14,-757.78 164.73,-758.26 156.76,-751.28 154.14,-757.78"/>
<text text-anchor="middle" x="120.76" y="-605.88" font-family="Courier,monospace" font-size="10.00">继续循环</text>
</g>
<!-- add_error_notes -->
<g id="node16" class="node">
<title>add_error_notes</title>
<polygon fill="none" stroke="black" points="520.76,-572.38 416.76,-572.38 416.76,-536.38 520.76,-536.38 520.76,-572.38"/>
<text text-anchor="middle" x="468.76" y="-551.88" font-family="Courier,monospace" font-size="10.00">添加错误信息并返回</text>
</g>
<!-- check_errors&#45;&gt;add_error_notes -->
<g id="edge18" class="edge">
<title>check_errors&#45;&gt;add_error_notes</title>
<path fill="none" stroke="black" d="M436.96,-674.63C442.98,-652.06 454.15,-610.19 461.52,-582.56"/>
<polygon fill="black" stroke="black" points="464.94,-583.3 464.14,-572.73 458.18,-581.49 464.94,-583.3"/>
<text text-anchor="middle" x="448.76" y="-647.38" font-family="Courier,monospace" font-size="10.00">是</text>
</g>
<!-- check_runtime_index -->
<g id="node17" class="node">
<title>check_runtime_index</title>
<polygon fill="none" stroke="black" points="440.26,-626.38 355.26,-626.38 355.26,-590.38 440.26,-590.38 440.26,-626.38"/>
<text text-anchor="middle" x="397.76" y="-605.88" font-family="Courier,monospace" font-size="10.00">检查运行时索引</text>
</g>
<!-- check_errors&#45;&gt;check_runtime_index -->
<g id="edge19" class="edge">
<title>check_errors&#45;&gt;check_runtime_index</title>
<path fill="none" stroke="black" d="M426.18,-675.15C421.41,-664.12 414.85,-648.93 409.23,-635.93"/>
<polygon fill="black" stroke="black" points="412.34,-634.31 405.16,-626.51 405.92,-637.08 412.34,-634.31"/>
<text text-anchor="middle" x="421.76" y="-647.38" font-family="Courier,monospace" font-size="10.00">否</text>
</g>
<!-- add_error_notes&#45;&gt;end -->
<g id="edge30" class="edge">
<title>add_error_notes&#45;&gt;end</title>
<path fill="none" stroke="black" d="M468.76,-536.15C468.76,-517.39 468.76,-486.51 468.76,-459.88 468.76,-459.88 468.76,-459.88 468.76,-104.38 468.76,-51.12 394.89,-34.13 349.14,-28.72"/>
<polygon fill="black" stroke="black" points="349.32,-25.22 339.01,-27.65 348.59,-32.18 349.32,-25.22"/>
</g>
<!-- all_comptime -->
<g id="node18" class="node">
<title>all_comptime</title>
<polygon fill="none" stroke="black" points="345.76,-518.38 250.95,-500.38 345.76,-482.38 440.57,-500.38 345.76,-518.38"/>
<text text-anchor="middle" x="345.76" y="-497.88" font-family="Courier,monospace" font-size="10.00">所有元素编译时已知？</text>
</g>
<!-- check_runtime_index&#45;&gt;all_comptime -->
<g id="edge20" class="edge">
<title>check_runtime_index&#45;&gt;all_comptime</title>
<path fill="none" stroke="black" d="M389.41,-590.35C380.87,-572.95 367.53,-545.76 357.84,-526.01"/>
<polygon fill="black" stroke="black" points="360.96,-524.43 353.42,-516.99 354.68,-527.51 360.96,-524.43"/>
</g>
<!-- create_const_array -->
<g id="node19" class="node">
<title>create_const_array</title>
<polygon fill="none" stroke="black" points="253.26,-43.19 178.26,-43.19 178.26,-7.19 253.26,-7.19 253.26,-43.19"/>
<text text-anchor="middle" x="215.76" y="-28.19" font-family="Courier,monospace" font-size="10.00">创建常量数组</text>
<text text-anchor="middle" x="215.76" y="-17.19" font-family="Courier,monospace" font-size="10.00">返回结果</text>
</g>
<!-- all_comptime&#45;&gt;create_const_array -->
<g id="edge21" class="edge">
<title>all_comptime&#45;&gt;create_const_array</title>
<path fill="none" stroke="black" d="M301.02,-490.76C263.42,-480.6 215.76,-459.6 215.76,-418.38 215.76,-418.38 215.76,-418.38 215.76,-104.38 215.76,-87.45 215.76,-68.46 215.76,-53.43"/>
<polygon fill="black" stroke="black" points="219.26,-53.28 215.76,-43.28 212.26,-53.28 219.26,-53.28"/>
<text text-anchor="middle" x="220.76" y="-258.88" font-family="Courier,monospace" font-size="10.00">是</text>
</g>
<!-- require_runtime_block -->
<g id="node20" class="node">
<title>require_runtime_block</title>
<polygon fill="none" stroke="black" points="383.26,-435.38 308.26,-435.38 308.26,-399.38 383.26,-399.38 383.26,-435.38"/>
<text text-anchor="middle" x="345.76" y="-414.88" font-family="Courier,monospace" font-size="10.00">需要运行时块</text>
</g>
<!-- all_comptime&#45;&gt;require_runtime_block -->
<g id="edge22" class="edge">
<title>all_comptime&#45;&gt;require_runtime_block</title>
<path fill="none" stroke="black" d="M345.76,-482.21C345.76,-471.57 345.76,-457.69 345.76,-445.59"/>
<polygon fill="black" stroke="black" points="349.26,-445.54 345.76,-435.54 342.26,-445.54 349.26,-445.54"/>
<text text-anchor="middle" x="350.76" y="-456.38" font-family="Courier,monospace" font-size="10.00">否</text>
</g>
<!-- create_const_array&#45;&gt;end -->
<!-- check_is_ref -->
<g id="node21" class="node">
<title>check_is_ref</title>
<polygon fill="none" stroke="black" points="345.76,-362.38 296.53,-344.38 345.76,-326.38 395,-344.38 345.76,-362.38"/>
<text text-anchor="middle" x="345.76" y="-341.88" font-family="Courier,monospace" font-size="10.00">is_ref?</text>
</g>
<!-- require_runtime_block&#45;&gt;check_is_ref -->
<g id="edge23" class="edge">
<title>require_runtime_block&#45;&gt;check_is_ref</title>
<path fill="none" stroke="black" d="M345.76,-399.2C345.76,-391.17 345.76,-381.43 345.76,-372.45"/>
<polygon fill="black" stroke="black" points="349.26,-372.41 345.76,-362.41 342.26,-372.41 349.26,-372.41"/>
</g>
<!-- alloc_memory -->
<g id="node22" class="node">
<title>alloc_memory</title>
<polygon fill="none" stroke="black" points="353.76,-279.38 297.76,-279.38 297.76,-243.38 353.76,-243.38 353.76,-279.38"/>
<text text-anchor="middle" x="325.76" y="-264.38" font-family="Courier,monospace" font-size="10.00">分配内存</text>
<text text-anchor="middle" x="325.76" y="-253.38" font-family="Courier,monospace" font-size="10.00">生成指针</text>
</g>
<!-- check_is_ref&#45;&gt;alloc_memory -->
<g id="edge24" class="edge">
<title>check_is_ref&#45;&gt;alloc_memory</title>
<path fill="none" stroke="black" d="M341.91,-327.77C339.25,-316.99 335.64,-302.38 332.51,-289.7"/>
<polygon fill="black" stroke="black" points="335.82,-288.51 330.02,-279.64 329.02,-290.18 335.82,-288.51"/>
<text text-anchor="middle" x="341.76" y="-300.38" font-family="Courier,monospace" font-size="10.00">是</text>
</g>
<!-- create_aggregate -->
<g id="node25" class="node">
<title>create_aggregate</title>
<polygon fill="none" stroke="black" points="440.26,-123.38 355.26,-123.38 355.26,-87.38 440.26,-87.38 440.26,-123.38"/>
<text text-anchor="middle" x="397.76" y="-108.38" font-family="Courier,monospace" font-size="10.00">创建聚合初始化</text>
<text text-anchor="middle" x="397.76" y="-97.38" font-family="Courier,monospace" font-size="10.00">返回数组值</text>
</g>
<!-- check_is_ref&#45;&gt;create_aggregate -->
<g id="edge25" class="edge">
<title>check_is_ref&#45;&gt;create_aggregate</title>
<path fill="none" stroke="black" d="M350.15,-327.93C353.74,-315.01 358.86,-296.06 362.76,-279.38 374.72,-228.23 386.36,-168 392.74,-133.79"/>
<polygon fill="black" stroke="black" points="396.24,-134.12 394.63,-123.65 389.36,-132.84 396.24,-134.12"/>
<text text-anchor="middle" x="381.76" y="-217.38" font-family="Courier,monospace" font-size="10.00">否</text>
</g>
<!-- store_elements -->
<g id="node23" class="node">
<title>store_elements</title>
<polygon fill="none" stroke="black" points="358.76,-196.38 254.76,-196.38 254.76,-160.38 358.76,-160.38 358.76,-196.38"/>
<text text-anchor="middle" x="306.76" y="-175.88" font-family="Courier,monospace" font-size="10.00">遍历存储元素到内存</text>
</g>
<!-- alloc_memory&#45;&gt;store_elements -->
<g id="edge26" class="edge">
<title>alloc_memory&#45;&gt;store_elements</title>
<path fill="none" stroke="black" d="M321.73,-243.21C319.24,-232.57 315.98,-218.69 313.14,-206.59"/>
<polygon fill="black" stroke="black" points="316.48,-205.47 310.79,-196.54 309.66,-207.07 316.48,-205.47"/>
</g>
<!-- make_ptr_const -->
<g id="node24" class="node">
<title>make_ptr_const</title>
<polygon fill="none" stroke="black" points="319.26,-123.38 244.26,-123.38 244.26,-87.38 319.26,-87.38 319.26,-123.38"/>
<text text-anchor="middle" x="281.76" y="-102.88" font-family="Courier,monospace" font-size="10.00">返回指针常量</text>
</g>
<!-- store_elements&#45;&gt;make_ptr_const -->
<g id="edge27" class="edge">
<title>store_elements&#45;&gt;make_ptr_const</title>
<path fill="none" stroke="black" d="M300.71,-160.2C297.82,-152 294.31,-142.01 291.09,-132.87"/>
<polygon fill="black" stroke="black" points="294.38,-131.68 287.76,-123.41 287.78,-134.01 294.38,-131.68"/>
</g>
<!-- make_ptr_const&#45;&gt;create_aggregate -->
<!-- make_ptr_const&#45;&gt;end -->
<g id="edge28" class="edge">
<title>make_ptr_const&#45;&gt;end</title>
<path fill="none" stroke="black" d="M288.86,-87.03C292.32,-78.59 296.58,-68.18 300.6,-58.36"/>
<polygon fill="black" stroke="black" points="303.94,-59.42 304.49,-48.84 297.46,-56.77 303.94,-59.42"/>
</g>
<!-- create_aggregate&#45;&gt;end -->
<g id="edge29" class="edge">
<title>create_aggregate&#45;&gt;end</title>
<path fill="none" stroke="black" d="M379.12,-87.03C367.43,-76.15 352.21,-61.98 339.39,-50.05"/>
<polygon fill="black" stroke="black" points="341.48,-47.21 331.78,-42.96 336.71,-52.34 341.48,-47.21"/>
</g>
</g>
</svg>
