<?xml version="1.0" encoding="UTF-8" standalone="no"?>
<!DOCTYPE svg PUBLIC "-//W3C//DTD SVG 1.1//EN"
 "http://www.w3.org/Graphics/SVG/1.1/DTD/svg11.dtd">
<!-- Generated by graphviz version 2.43.0 (0)
 -->
<!-- Title: flowchart Pages: 1 -->
<svg width="731pt" height="878pt"
 viewBox="0.00 0.00 731.31 878.00" xmlns="http://www.w3.org/2000/svg" xmlns:xlink="http://www.w3.org/1999/xlink">
<g id="graph0" class="graph" transform="scale(1 1) rotate(0) translate(4 874)">
<title>flowchart</title>
<polygon fill="white" stroke="transparent" points="-4,4 -4,-874 727.31,-874 727.31,4 -4,4"/>
<!-- start -->
<g id="node1" class="node">
<title>start</title>
<path fill="none" stroke="black" d="M261.65,-870C261.65,-870 154.65,-870 154.65,-870 148.65,-870 142.65,-864 142.65,-858 142.65,-858 142.65,-846 142.65,-846 142.65,-840 148.65,-834 154.65,-834 154.65,-834 261.65,-834 261.65,-834 267.65,-834 273.65,-840 273.65,-846 273.65,-846 273.65,-858 273.65,-858 273.65,-864 267.65,-870 261.65,-870"/>
<text text-anchor="middle" x="208.15" y="-848.3" font-family="Arial" font-size="14.00">开始: zirPtrFromInt</text>
</g>
<!-- get_context -->
<g id="node2" class="node">
<title>get_context</title>
<path fill="none" stroke="black" d="M308.15,-797C308.15,-797 108.15,-797 108.15,-797 102.15,-797 96.15,-791 96.15,-785 96.15,-785 96.15,-773 96.15,-773 96.15,-767 102.15,-761 108.15,-761 108.15,-761 308.15,-761 308.15,-761 314.15,-761 320.15,-767 320.15,-773 320.15,-773 320.15,-785 320.15,-785 320.15,-791 314.15,-797 308.15,-797"/>
<text text-anchor="middle" x="208.15" y="-775.3" font-family="Arial" font-size="14.00">获取上下文(pt, zcu, inst_data, src)</text>
</g>
<!-- start&#45;&gt;get_context -->
<g id="edge1" class="edge">
<title>start&#45;&gt;get_context</title>
<path fill="none" stroke="black" d="M208.15,-833.81C208.15,-825.79 208.15,-816.05 208.15,-807.07"/>
<polygon fill="black" stroke="black" points="211.65,-807.03 208.15,-797.03 204.65,-807.03 211.65,-807.03"/>
</g>
<!-- parse_operands -->
<g id="node3" class="node">
<title>parse_operands</title>
<path fill="none" stroke="black" d="M270.65,-724C270.65,-724 145.65,-724 145.65,-724 139.65,-724 133.65,-718 133.65,-712 133.65,-712 133.65,-700 133.65,-700 133.65,-694 139.65,-688 145.65,-688 145.65,-688 270.65,-688 270.65,-688 276.65,-688 282.65,-694 282.65,-700 282.65,-700 282.65,-712 282.65,-712 282.65,-718 276.65,-724 270.65,-724"/>
<text text-anchor="middle" x="208.15" y="-702.3" font-family="Arial" font-size="14.00">解析操作数(extra.rhs)</text>
</g>
<!-- get_context&#45;&gt;parse_operands -->
<g id="edge2" class="edge">
<title>get_context&#45;&gt;parse_operands</title>
<path fill="none" stroke="black" d="M208.15,-760.81C208.15,-752.79 208.15,-743.05 208.15,-734.07"/>
<polygon fill="black" stroke="black" points="211.65,-734.03 208.15,-724.03 204.65,-734.03 211.65,-734.03"/>
</g>
<!-- resolve_types -->
<g id="node4" class="node">
<title>resolve_types</title>
<path fill="none" stroke="black" d="M273.65,-651C273.65,-651 142.65,-651 142.65,-651 136.65,-651 130.65,-645 130.65,-639 130.65,-639 130.65,-627 130.65,-627 130.65,-621 136.65,-615 142.65,-615 142.65,-615 273.65,-615 273.65,-615 279.65,-615 285.65,-621 285.65,-627 285.65,-627 285.65,-639 285.65,-639 285.65,-645 279.65,-651 273.65,-651"/>
<text text-anchor="middle" x="208.15" y="-629.3" font-family="Arial" font-size="14.00">解析目标类型(dest_ty)</text>
</g>
<!-- parse_operands&#45;&gt;resolve_types -->
<g id="edge3" class="edge">
<title>parse_operands&#45;&gt;resolve_types</title>
<path fill="none" stroke="black" d="M208.15,-687.81C208.15,-679.79 208.15,-670.05 208.15,-661.07"/>
<polygon fill="black" stroke="black" points="211.65,-661.03 208.15,-651.03 204.65,-661.03 211.65,-661.03"/>
</g>
<!-- check_vector -->
<g id="node5" class="node">
<title>check_vector</title>
<path fill="none" stroke="black" d="M300.15,-578C300.15,-578 116.15,-578 116.15,-578 110.15,-578 104.15,-572 104.15,-566 104.15,-566 104.15,-554 104.15,-554 104.15,-548 110.15,-542 116.15,-542 116.15,-542 300.15,-542 300.15,-542 306.15,-542 312.15,-548 312.15,-554 312.15,-554 312.15,-566 312.15,-566 312.15,-572 306.15,-578 300.15,-578"/>
<text text-anchor="middle" x="208.15" y="-556.3" font-family="Arial" font-size="14.00">检查是否是向量类型(is_vector)</text>
</g>
<!-- resolve_types&#45;&gt;check_vector -->
<g id="edge4" class="edge">
<title>resolve_types&#45;&gt;check_vector</title>
<path fill="none" stroke="black" d="M208.15,-614.81C208.15,-606.79 208.15,-597.05 208.15,-588.07"/>
<polygon fill="black" stroke="black" points="211.65,-588.03 208.15,-578.03 204.65,-588.03 211.65,-588.03"/>
</g>
<!-- handle_slice_error -->
<g id="node6" class="node">
<title>handle_slice_error</title>
<path fill="none" stroke="black" d="M282.65,-505C282.65,-505 133.65,-505 133.65,-505 127.65,-505 121.65,-499 121.65,-493 121.65,-493 121.65,-481 121.65,-481 121.65,-475 127.65,-469 133.65,-469 133.65,-469 282.65,-469 282.65,-469 288.65,-469 294.65,-475 294.65,-481 294.65,-481 294.65,-493 294.65,-493 294.65,-499 288.65,-505 282.65,-505"/>
<text text-anchor="middle" x="208.15" y="-483.3" font-family="Arial" font-size="14.00">检查目标类型是否为切片</text>
</g>
<!-- check_vector&#45;&gt;handle_slice_error -->
<g id="edge5" class="edge">
<title>check_vector&#45;&gt;handle_slice_error</title>
<path fill="none" stroke="black" d="M208.15,-541.81C208.15,-533.79 208.15,-524.05 208.15,-515.07"/>
<polygon fill="black" stroke="black" points="211.65,-515.03 208.15,-505.03 204.65,-515.03 211.65,-515.03"/>
</g>
<!-- slice_error -->
<g id="node7" class="node">
<title>slice_error</title>
<path fill="none" stroke="black" d="M134.24,-362.53C134.24,-362.53 11.76,-347.47 11.76,-347.47 5.81,-346.73 5.81,-345.27 11.76,-344.53 11.76,-344.53 134.24,-329.47 134.24,-329.47 140.19,-328.73 152.1,-328.73 158.06,-329.47 158.06,-329.47 280.53,-344.53 280.53,-344.53 286.48,-345.27 286.48,-346.73 280.53,-347.47 280.53,-347.47 158.06,-362.53 158.06,-362.53 152.1,-363.27 140.19,-363.27 134.24,-362.53"/>
<text text-anchor="middle" x="146.15" y="-342.3" font-family="Arial" font-size="14.00">生成切片类型错误消息</text>
</g>
<!-- handle_slice_error&#45;&gt;slice_error -->
<g id="edge6" class="edge">
<title>handle_slice_error&#45;&gt;slice_error</title>
<path fill="none" stroke="black" d="M200.54,-468.96C189.78,-444.83 170.03,-400.55 157.52,-372.5"/>
<polygon fill="black" stroke="black" points="160.7,-371.03 153.43,-363.32 154.3,-373.88 160.7,-371.03"/>
<text text-anchor="middle" x="214.65" y="-439.8" font-family="Arial" font-size="14.00">是切片</text>
</g>
<!-- resolve_value -->
<g id="node8" class="node">
<title>resolve_value</title>
<path fill="none" stroke="black" d="M391.65,-418C391.65,-418 242.65,-418 242.65,-418 236.65,-418 230.65,-412 230.65,-406 230.65,-406 230.65,-394 230.65,-394 230.65,-388 236.65,-382 242.65,-382 242.65,-382 391.65,-382 391.65,-382 397.65,-382 403.65,-388 403.65,-394 403.65,-394 403.65,-406 403.65,-406 403.65,-412 397.65,-418 391.65,-418"/>
<text text-anchor="middle" x="317.15" y="-396.3" font-family="Arial" font-size="14.00">尝试解析操作数值为常量</text>
</g>
<!-- handle_slice_error&#45;&gt;resolve_value -->
<g id="edge8" class="edge">
<title>handle_slice_error&#45;&gt;resolve_value</title>
<path fill="none" stroke="black" d="M230.2,-468.8C246.6,-456.01 269.16,-438.42 287.19,-424.36"/>
<polygon fill="black" stroke="black" points="289.39,-427.08 295.12,-418.18 285.08,-421.56 289.39,-427.08"/>
<text text-anchor="middle" x="299.15" y="-439.8" font-family="Arial" font-size="14.00">不是切片</text>
</g>
<!-- end -->
<g id="node15" class="node">
<title>end</title>
<path fill="none" stroke="black" d="M413.15,-36C413.15,-36 363.15,-36 363.15,-36 357.15,-36 351.15,-30 351.15,-24 351.15,-24 351.15,-12 351.15,-12 351.15,-6 357.15,0 363.15,0 363.15,0 413.15,0 413.15,0 419.15,0 425.15,-6 425.15,-12 425.15,-12 425.15,-24 425.15,-24 425.15,-30 419.15,-36 413.15,-36"/>
<text text-anchor="middle" x="388.15" y="-14.3" font-family="Arial" font-size="14.00">返回结果</text>
</g>
<!-- slice_error&#45;&gt;end -->
<g id="edge7" class="edge">
<title>slice_error&#45;&gt;end</title>
<path fill="none" stroke="black" d="M145.58,-327.74C144.99,-308.26 144.15,-275.6 144.15,-247.5 144.15,-247.5 144.15,-247.5 144.15,-91 144.15,-50.38 270.13,-30.96 341.05,-23.25"/>
<polygon fill="black" stroke="black" points="341.51,-26.72 351.09,-22.19 340.78,-19.75 341.51,-26.72"/>
<text text-anchor="middle" x="173.15" y="-198.3" font-family="Arial" font-size="14.00">返回错误</text>
</g>
<!-- const_value -->
<g id="node9" class="node">
<title>const_value</title>
<path fill="none" stroke="black" d="M377.65,-310C377.65,-310 256.65,-310 256.65,-310 250.65,-310 244.65,-304 244.65,-298 244.65,-298 244.65,-284 244.65,-284 244.65,-278 250.65,-272 256.65,-272 256.65,-272 377.65,-272 377.65,-272 383.65,-272 389.65,-278 389.65,-284 389.65,-284 389.65,-298 389.65,-298 389.65,-304 383.65,-310 377.65,-310"/>
<text text-anchor="middle" x="317.15" y="-294.8" font-family="Arial" font-size="14.00">处理常量值</text>
<text text-anchor="middle" x="317.15" y="-279.8" font-family="Arial" font-size="14.00">生成指针或向量指针</text>
</g>
<!-- resolve_value&#45;&gt;const_value -->
<g id="edge9" class="edge">
<title>resolve_value&#45;&gt;const_value</title>
<path fill="none" stroke="black" d="M317.15,-381.81C317.15,-365.26 317.15,-339.94 317.15,-320.39"/>
<polygon fill="black" stroke="black" points="320.65,-320.22 317.15,-310.22 313.65,-320.22 320.65,-320.22"/>
<text text-anchor="middle" x="346.15" y="-342.3" font-family="Arial" font-size="14.00">有常量值</text>
</g>
<!-- check_comptime -->
<g id="node12" class="node">
<title>check_comptime</title>
<path fill="none" stroke="black" d="M559.65,-309C559.65,-309 420.65,-309 420.65,-309 414.65,-309 408.65,-303 408.65,-297 408.65,-297 408.65,-285 408.65,-285 408.65,-279 414.65,-273 420.65,-273 420.65,-273 559.65,-273 559.65,-273 565.65,-273 571.65,-279 571.65,-285 571.65,-285 571.65,-297 571.65,-297 571.65,-303 565.65,-309 559.65,-309"/>
<text text-anchor="middle" x="490.15" y="-287.3" font-family="Arial" font-size="14.00">检查comptime&#45;only类型</text>
</g>
<!-- resolve_value&#45;&gt;check_comptime -->
<g id="edge10" class="edge">
<title>resolve_value&#45;&gt;check_comptime</title>
<path fill="none" stroke="black" d="M348.27,-381.92C358.21,-376.34 369.21,-370.02 379.15,-364 405.39,-348.1 434.47,-329.19 456.28,-314.74"/>
<polygon fill="black" stroke="black" points="458.47,-317.49 464.86,-309.04 454.59,-311.66 458.47,-317.49"/>
<text text-anchor="middle" x="464.15" y="-342.3" font-family="Arial" font-size="14.00">无常量值</text>
</g>
<!-- handle_vector -->
<g id="node11" class="node">
<title>handle_vector</title>
<path fill="none" stroke="black" d="M339.65,-221C339.65,-221 232.65,-221 232.65,-221 226.65,-221 220.65,-215 220.65,-209 220.65,-209 220.65,-195 220.65,-195 220.65,-189 226.65,-183 232.65,-183 232.65,-183 339.65,-183 339.65,-183 345.65,-183 351.65,-189 351.65,-195 351.65,-195 351.65,-209 351.65,-209 351.65,-215 345.65,-221 339.65,-221"/>
<text text-anchor="middle" x="286.15" y="-205.8" font-family="Arial" font-size="14.00">向量处理</text>
<text text-anchor="middle" x="286.15" y="-190.8" font-family="Arial" font-size="14.00">逐个元素生成指针</text>
</g>
<!-- const_value&#45;&gt;handle_vector -->
<g id="edge12" class="edge">
<title>const_value&#45;&gt;handle_vector</title>
<path fill="none" stroke="black" d="M310.72,-271.97C306.48,-260.08 300.84,-244.25 296.04,-230.76"/>
<polygon fill="black" stroke="black" points="299.21,-229.25 292.56,-221 292.62,-231.6 299.21,-229.25"/>
<text text-anchor="middle" x="318.65" y="-242.8" font-family="Arial" font-size="14.00">向量</text>
</g>
<!-- finalize -->
<g id="node14" class="node">
<title>finalize</title>
<path fill="none" stroke="black" d="M451.15,-111C451.15,-111 325.15,-111 325.15,-111 319.15,-111 313.15,-105 313.15,-99 313.15,-99 313.15,-85 313.15,-85 313.15,-79 319.15,-73 325.15,-73 325.15,-73 451.15,-73 451.15,-73 457.15,-73 463.15,-79 463.15,-85 463.15,-85 463.15,-99 463.15,-99 463.15,-105 457.15,-111 451.15,-111"/>
<text text-anchor="middle" x="388.15" y="-95.8" font-family="Arial" font-size="14.00">生成最终结果</text>
<text text-anchor="middle" x="388.15" y="-80.8" font-family="Arial" font-size="14.00">(bitcast或聚合初始化)</text>
</g>
<!-- const_value&#45;&gt;finalize -->
<g id="edge11" class="edge">
<title>const_value&#45;&gt;finalize</title>
<path fill="none" stroke="black" d="M330.84,-271.9C340.36,-258.49 352.65,-239.44 360.15,-221 373.48,-188.22 380.95,-148.01 384.76,-121.51"/>
<polygon fill="black" stroke="black" points="388.25,-121.77 386.13,-111.39 381.32,-120.83 388.25,-121.77"/>
<text text-anchor="middle" x="387.65" y="-198.3" font-family="Arial" font-size="14.00">标量</text>
</g>
<!-- runtime_check -->
<g id="node10" class="node">
<title>runtime_check</title>
<path fill="none" stroke="black" d="M577.15,-221C577.15,-221 447.15,-221 447.15,-221 441.15,-221 435.15,-215 435.15,-209 435.15,-209 435.15,-195 435.15,-195 435.15,-189 441.15,-183 447.15,-183 447.15,-183 577.15,-183 577.15,-183 583.15,-183 589.15,-189 589.15,-195 589.15,-195 589.15,-209 589.15,-209 589.15,-215 583.15,-221 577.15,-221"/>
<text text-anchor="middle" x="512.15" y="-205.8" font-family="Arial" font-size="14.00">运行安全检查</text>
<text text-anchor="middle" x="512.15" y="-190.8" font-family="Arial" font-size="14.00">(非零检查、对齐检查)</text>
</g>
<!-- runtime_check&#45;&gt;finalize -->
<g id="edge17" class="edge">
<title>runtime_check&#45;&gt;finalize</title>
<path fill="none" stroke="black" d="M489.59,-182.89C482.66,-177.23 475.04,-170.91 468.15,-165 450.28,-149.66 430.61,-131.98 415.25,-117.97"/>
<polygon fill="black" stroke="black" points="417.38,-115.18 407.64,-111.01 412.66,-120.35 417.38,-115.18"/>
</g>
<!-- handle_vector&#45;&gt;finalize -->
<g id="edge13" class="edge">
<title>handle_vector&#45;&gt;finalize</title>
<path fill="none" stroke="black" d="M303.45,-182.68C320.11,-165.04 345.45,-138.21 364.07,-118.49"/>
<polygon fill="black" stroke="black" points="366.78,-120.72 371.1,-111.05 361.69,-115.92 366.78,-120.72"/>
</g>
<!-- check_comptime&#45;&gt;runtime_check -->
<g id="edge16" class="edge">
<title>check_comptime&#45;&gt;runtime_check</title>
<path fill="none" stroke="black" d="M488.35,-272.68C487.83,-262.66 488.08,-249.91 491.15,-239 491.98,-236.03 493.12,-233.05 494.44,-230.15"/>
<polygon fill="black" stroke="black" points="497.56,-231.72 499.11,-221.24 491.36,-228.47 497.56,-231.72"/>
<text text-anchor="middle" x="543.15" y="-242.8" font-family="Arial" font-size="14.00">非comptime&#45;only</text>
</g>
<!-- comptime_error -->
<g id="node13" class="node">
<title>comptime_error</title>
<path fill="none" stroke="black" d="M588.27,-163.27C588.27,-163.27 488.69,-148.73 488.69,-148.73 482.75,-147.87 482.75,-146.13 488.69,-145.27 488.69,-145.27 588.27,-130.73 588.27,-130.73 594.21,-129.87 606.08,-129.87 612.02,-130.73 612.02,-130.73 711.61,-145.27 711.61,-145.27 717.54,-146.13 717.54,-147.87 711.61,-148.73 711.61,-148.73 612.02,-163.27 612.02,-163.27 606.08,-164.13 594.21,-164.13 588.27,-163.27"/>
<text text-anchor="middle" x="600.15" y="-143.3" font-family="Arial" font-size="14.00">生成comptime错误</text>
</g>
<!-- check_comptime&#45;&gt;comptime_error -->
<g id="edge14" class="edge">
<title>check_comptime&#45;&gt;comptime_error</title>
<path fill="none" stroke="black" d="M571.87,-273.01C580.8,-268.17 588.9,-261.96 595.15,-254 612.71,-231.63 610.91,-197.7 606.71,-174.28"/>
<polygon fill="black" stroke="black" points="610.11,-173.44 604.68,-164.34 603.25,-174.84 610.11,-173.44"/>
<text text-anchor="middle" x="662.15" y="-242.8" font-family="Arial" font-size="14.00">comptime&#45;only类型</text>
</g>
<!-- comptime_error&#45;&gt;end -->
<g id="edge15" class="edge">
<title>comptime_error&#45;&gt;end</title>
<path fill="none" stroke="black" d="M577.05,-132.17C540.51,-110.27 469.01,-67.44 425.22,-41.21"/>
<polygon fill="black" stroke="black" points="426.96,-38.17 416.58,-36.04 423.36,-44.18 426.96,-38.17"/>
<text text-anchor="middle" x="569.15" y="-88.3" font-family="Arial" font-size="14.00">返回错误</text>
</g>
<!-- finalize&#45;&gt;end -->
<g id="edge18" class="edge">
<title>finalize&#45;&gt;end</title>
<path fill="none" stroke="black" d="M388.15,-72.83C388.15,-64.89 388.15,-55.41 388.15,-46.63"/>
<polygon fill="black" stroke="black" points="391.65,-46.42 388.15,-36.42 384.65,-46.42 391.65,-46.42"/>
</g>
</g>
</svg>
