<?xml version="1.0" encoding="UTF-8" standalone="no"?>
<!DOCTYPE svg PUBLIC "-//W3C//DTD SVG 1.1//EN"
 "http://www.w3.org/Graphics/SVG/1.1/DTD/svg11.dtd">
<!-- Generated by graphviz version 2.43.0 (0)
 -->
<!-- Title: fieldPtr_flowchart Pages: 1 -->
<svg width="1166pt" height="763pt"
 viewBox="0.00 0.00 1166.00 763.00" xmlns="http://www.w3.org/2000/svg" xmlns:xlink="http://www.w3.org/1999/xlink">
<g id="graph0" class="graph" transform="scale(1 1) rotate(0) translate(4 759)">
<title>fieldPtr_flowchart</title>
<polygon fill="white" stroke="transparent" points="-4,4 -4,-759 1162,-759 1162,4 -4,4"/>
<!-- start -->
<g id="node1" class="node">
<title>start</title>
<polygon fill="none" stroke="black" points="543.5,-755 408.5,-755 408.5,-719 543.5,-719 543.5,-755"/>
<text text-anchor="middle" x="476" y="-734.5" font-family="Courier,monospace" font-size="10.00">开始: fieldPtr函数入口</text>
</g>
<!-- check_ptr_type -->
<g id="node2" class="node">
<title>check_ptr_type</title>
<polygon fill="none" stroke="black" points="567,-682 385,-682 385,-646 567,-646 567,-682"/>
<text text-anchor="middle" x="476" y="-661.5" font-family="Courier,monospace" font-size="10.00">检查object_ptr_ty是否为指针类型</text>
</g>
<!-- start&#45;&gt;check_ptr_type -->
<g id="edge1" class="edge">
<title>start&#45;&gt;check_ptr_type</title>
<path fill="none" stroke="black" d="M476,-718.81C476,-710.79 476,-701.05 476,-692.07"/>
<polygon fill="black" stroke="black" points="479.5,-692.03 476,-682.03 472.5,-692.03 479.5,-692.03"/>
</g>
<!-- error_ptr_expected -->
<g id="node3" class="node">
<title>error_ptr_expected</title>
<polygon fill="none" stroke="black" points="356,-545 230,-545 230,-509 356,-509 356,-545"/>
<text text-anchor="middle" x="293" y="-524.5" font-family="Courier,monospace" font-size="10.00">返回错误: 期望指针类型</text>
</g>
<!-- check_ptr_type&#45;&gt;error_ptr_expected -->
<g id="edge2" class="edge">
<title>check_ptr_type&#45;&gt;error_ptr_expected</title>
<path fill="none" stroke="black" d="M452.82,-645.9C420.32,-621.93 361.11,-578.24 324.6,-551.31"/>
<polygon fill="black" stroke="black" points="326.4,-548.29 316.28,-545.17 322.25,-553.92 326.4,-548.29"/>
<text text-anchor="middle" x="451.5" y="-620" font-family="Courier,monospace" font-size="10.00">非指针类型</text>
</g>
<!-- get_inner_ty -->
<g id="node4" class="node">
<title>get_inner_ty</title>
<polygon fill="none" stroke="black" points="777,-599 541,-599 541,-563 777,-563 777,-599"/>
<text text-anchor="middle" x="659" y="-578.5" font-family="Courier,monospace" font-size="10.00">获取inner_ty（如果是单指针则取childType）</text>
</g>
<!-- check_ptr_type&#45;&gt;get_inner_ty -->
<g id="edge3" class="edge">
<title>check_ptr_type&#45;&gt;get_inner_ty</title>
<path fill="none" stroke="black" d="M514.81,-645.82C542.93,-633.38 581.11,-616.47 611.13,-603.19"/>
<polygon fill="black" stroke="black" points="612.83,-606.26 620.56,-599.01 610,-599.86 612.83,-606.26"/>
<text text-anchor="middle" x="602.5" y="-620" font-family="Courier,monospace" font-size="10.00">是指针类型</text>
</g>
<!-- end -->
<g id="node30" class="node">
<title>end</title>
<ellipse fill="none" stroke="black" cx="549" cy="-18" rx="50.07" ry="18"/>
<text text-anchor="middle" x="549" y="-15.5" font-family="Courier,monospace" font-size="10.00">返回结果或错误</text>
</g>
<!-- error_ptr_expected&#45;&gt;end -->
<g id="edge34" class="edge">
<title>error_ptr_expected&#45;&gt;end</title>
<path fill="none" stroke="black" d="M229.78,-518.73C143.65,-507.04 0,-480.36 0,-432.5 0,-432.5 0,-432.5 0,-90 0,-41.13 346.61,-25.1 489.01,-20.57"/>
<polygon fill="black" stroke="black" points="489.42,-24.06 499.31,-20.25 489.21,-17.06 489.42,-24.06"/>
</g>
<!-- switch_type -->
<g id="node5" class="node">
<title>switch_type</title>
<polygon fill="none" stroke="black" points="805.5,-491 672.5,-491 672.5,-455 805.5,-455 805.5,-491"/>
<text text-anchor="middle" x="739" y="-470.5" font-family="Courier,monospace" font-size="10.00">根据inner_ty的类型分支</text>
</g>
<!-- get_inner_ty&#45;&gt;switch_type -->
<g id="edge4" class="edge">
<title>get_inner_ty&#45;&gt;switch_type</title>
<path fill="none" stroke="black" d="M671.85,-562.97C684.78,-545.84 704.87,-519.22 719.71,-499.56"/>
<polygon fill="black" stroke="black" points="722.68,-501.43 725.91,-491.34 717.09,-497.21 722.68,-501.43"/>
</g>
<!-- array_case -->
<g id="node6" class="node">
<title>array_case</title>
<polygon fill="none" stroke="black" points="383.5,-408 272.5,-408 272.5,-372 383.5,-372 383.5,-408"/>
<text text-anchor="middle" x="328" y="-387.5" font-family="Courier,monospace" font-size="10.00">数组类型（.array）</text>
</g>
<!-- switch_type&#45;&gt;array_case -->
<g id="edge5" class="edge">
<title>switch_type&#45;&gt;array_case</title>
<path fill="none" stroke="black" d="M672.05,-458.81C595.21,-443.66 469.98,-418.98 393.67,-403.94"/>
<polygon fill="black" stroke="black" points="394.19,-400.48 383.7,-401.98 392.84,-407.35 394.19,-400.48"/>
<text text-anchor="middle" x="576.5" y="-429" font-family="Courier,monospace" font-size="10.00">.array</text>
</g>
<!-- pointer_case -->
<g id="node12" class="node">
<title>pointer_case</title>
<polygon fill="none" stroke="black" points="619,-408 457,-408 457,-372 619,-372 619,-408"/>
<text text-anchor="middle" x="538" y="-387.5" font-family="Courier,monospace" font-size="10.00">指针类型（.pointer）且是切片</text>
</g>
<!-- switch_type&#45;&gt;pointer_case -->
<g id="edge11" class="edge">
<title>switch_type&#45;&gt;pointer_case</title>
<path fill="none" stroke="black" d="M693.01,-454.88C678.27,-449.29 661.91,-442.98 647,-437 627.19,-429.05 605.49,-419.98 586.71,-412"/>
<polygon fill="black" stroke="black" points="588.04,-408.76 577.47,-408.06 585.29,-415.2 588.04,-408.76"/>
<text text-anchor="middle" x="691" y="-429" font-family="Courier,monospace" font-size="10.00">.pointer且是切片</text>
</g>
<!-- type_case -->
<g id="node17" class="node">
<title>type_case</title>
<polygon fill="none" stroke="black" points="782,-408 696,-408 696,-372 782,-372 782,-408"/>
<text text-anchor="middle" x="739" y="-387.5" font-family="Courier,monospace" font-size="10.00">类型（.type）</text>
</g>
<!-- switch_type&#45;&gt;type_case -->
<g id="edge16" class="edge">
<title>switch_type&#45;&gt;type_case</title>
<path fill="none" stroke="black" d="M739,-454.82C739,-444.19 739,-430.31 739,-418.2"/>
<polygon fill="black" stroke="black" points="742.5,-418.15 739,-408.15 735.5,-418.15 742.5,-418.15"/>
<text text-anchor="middle" x="754.5" y="-429" font-family="Courier,monospace" font-size="10.00">.type</text>
</g>
<!-- struct_case -->
<g id="node24" class="node">
<title>struct_case</title>
<polygon fill="none" stroke="black" points="916.5,-408 809.5,-408 809.5,-372 916.5,-372 916.5,-408"/>
<text text-anchor="middle" x="863" y="-387.5" font-family="Courier,monospace" font-size="10.00">结构体（.struct）</text>
</g>
<!-- switch_type&#45;&gt;struct_case -->
<g id="edge26" class="edge">
<title>switch_type&#45;&gt;struct_case</title>
<path fill="none" stroke="black" d="M765.3,-454.82C783.63,-442.85 808.27,-426.75 828.23,-413.71"/>
<polygon fill="black" stroke="black" points="830.28,-416.55 836.74,-408.15 826.45,-410.69 830.28,-416.55"/>
<text text-anchor="middle" x="829.5" y="-429" font-family="Courier,monospace" font-size="10.00">.struct</text>
</g>
<!-- union_case -->
<g id="node25" class="node">
<title>union_case</title>
<polygon fill="none" stroke="black" points="1038.5,-408 937.5,-408 937.5,-372 1038.5,-372 1038.5,-408"/>
<text text-anchor="middle" x="988" y="-387.5" font-family="Courier,monospace" font-size="10.00">联合体（.union）</text>
</g>
<!-- switch_type&#45;&gt;union_case -->
<g id="edge29" class="edge">
<title>switch_type&#45;&gt;union_case</title>
<path fill="none" stroke="black" d="M797.26,-454.92C815.77,-449.36 836.29,-443.06 855,-437 879.81,-428.97 907.06,-419.64 930.4,-411.49"/>
<polygon fill="black" stroke="black" points="931.86,-414.68 940.14,-408.07 929.54,-408.08 931.86,-414.68"/>
<text text-anchor="middle" x="905.5" y="-429" font-family="Courier,monospace" font-size="10.00">.union</text>
</g>
<!-- default_case -->
<g id="node28" class="node">
<title>default_case</title>
<polygon fill="none" stroke="black" points="1111,-354 1055,-354 1055,-318 1111,-318 1111,-354"/>
<text text-anchor="middle" x="1083" y="-333.5" font-family="Courier,monospace" font-size="10.00">其他类型</text>
</g>
<!-- switch_type&#45;&gt;default_case -->
<g id="edge32" class="edge">
<title>switch_type&#45;&gt;default_case</title>
<path fill="none" stroke="black" d="M805.79,-465.28C885.11,-456.1 1011.32,-437.35 1048,-408 1061.77,-396.98 1070.53,-379.15 1075.85,-364.12"/>
<polygon fill="black" stroke="black" points="1079.28,-364.87 1078.99,-354.28 1072.61,-362.74 1079.28,-364.87"/>
<text text-anchor="middle" x="1029" y="-429" font-family="Courier,monospace" font-size="10.00">其他类型</text>
</g>
<!-- check_len -->
<g id="node7" class="node">
<title>check_len</title>
<polygon fill="none" stroke="black" points="270.5,-300 145.5,-300 145.5,-264 270.5,-264 270.5,-300"/>
<text text-anchor="middle" x="208" y="-279.5" font-family="Courier,monospace" font-size="10.00">检查字段名是否为&quot;len&quot;</text>
</g>
<!-- array_case&#45;&gt;check_len -->
<g id="edge6" class="edge">
<title>array_case&#45;&gt;check_len</title>
<path fill="none" stroke="black" d="M308.72,-371.97C288.81,-354.38 257.56,-326.78 235.16,-306.99"/>
<polygon fill="black" stroke="black" points="237.44,-304.34 227.63,-300.34 232.81,-309.58 237.44,-304.34"/>
</g>
<!-- return_len -->
<g id="node8" class="node">
<title>return_len</title>
<polygon fill="none" stroke="black" points="103.5,-217 28.5,-217 28.5,-181 103.5,-181 103.5,-217"/>
<text text-anchor="middle" x="66" y="-196.5" font-family="Courier,monospace" font-size="10.00">返回数组长度</text>
</g>
<!-- check_len&#45;&gt;return_len -->
<g id="edge7" class="edge">
<title>check_len&#45;&gt;return_len</title>
<path fill="none" stroke="black" d="M177.89,-263.82C156.61,-251.69 127.91,-235.31 104.9,-222.19"/>
<polygon fill="black" stroke="black" points="106.49,-219.07 96.07,-217.15 103.02,-225.15 106.49,-219.07"/>
<text text-anchor="middle" x="166" y="-238" font-family="Courier,monospace" font-size="10.00">是&quot;len&quot;</text>
</g>
<!-- check_ptr_field -->
<g id="node9" class="node">
<title>check_ptr_field</title>
<polygon fill="none" stroke="black" points="294.5,-217 121.5,-217 121.5,-181 294.5,-181 294.5,-217"/>
<text text-anchor="middle" x="208" y="-196.5" font-family="Courier,monospace" font-size="10.00">检查字段名是否为&quot;ptr&quot;且是单指针</text>
</g>
<!-- check_len&#45;&gt;check_ptr_field -->
<g id="edge8" class="edge">
<title>check_len&#45;&gt;check_ptr_field</title>
<path fill="none" stroke="black" d="M208,-263.82C208,-253.19 208,-239.31 208,-227.2"/>
<polygon fill="black" stroke="black" points="211.5,-227.15 208,-217.15 204.5,-227.15 211.5,-227.15"/>
<text text-anchor="middle" x="233" y="-238" font-family="Courier,monospace" font-size="10.00">不是&quot;len&quot;</text>
</g>
<!-- create_ptr_type -->
<g id="node10" class="node">
<title>create_ptr_type</title>
<polygon fill="none" stroke="black" points="265,-109 151,-109 151,-73 265,-73 265,-109"/>
<text text-anchor="middle" x="208" y="-88.5" font-family="Courier,monospace" font-size="10.00">构造新指针类型并返回</text>
</g>
<!-- check_ptr_field&#45;&gt;create_ptr_type -->
<g id="edge9" class="edge">
<title>check_ptr_field&#45;&gt;create_ptr_type</title>
<path fill="none" stroke="black" d="M208,-180.97C208,-164.38 208,-138.88 208,-119.43"/>
<polygon fill="black" stroke="black" points="211.5,-119.34 208,-109.34 204.5,-119.34 211.5,-119.34"/>
<text text-anchor="middle" x="247.5" y="-142.5" font-family="Courier,monospace" font-size="10.00">是&quot;ptr&quot;且单指针</text>
</g>
<!-- array_error -->
<g id="node11" class="node">
<title>array_error</title>
<polygon fill="none" stroke="black" points="479,-109 363,-109 363,-73 479,-73 479,-109"/>
<text text-anchor="middle" x="421" y="-88.5" font-family="Courier,monospace" font-size="10.00">返回错误: 无效字段名</text>
</g>
<!-- check_ptr_field&#45;&gt;array_error -->
<g id="edge10" class="edge">
<title>check_ptr_field&#45;&gt;array_error</title>
<path fill="none" stroke="black" d="M251.02,-180.83C263.99,-175.39 278.18,-169.18 291,-163 322.46,-147.82 357.13,-128.77 382.75,-114.22"/>
<polygon fill="black" stroke="black" points="384.81,-117.07 391.75,-109.08 381.34,-110.99 384.81,-117.07"/>
<text text-anchor="middle" x="380" y="-142.5" font-family="Courier,monospace" font-size="10.00">其他情况</text>
</g>
<!-- array_error&#45;&gt;end -->
<g id="edge35" class="edge">
<title>array_error&#45;&gt;end</title>
<path fill="none" stroke="black" d="M451.66,-72.99C470.43,-62.58 494.51,-49.22 514.02,-38.4"/>
<polygon fill="black" stroke="black" points="515.87,-41.38 522.91,-33.47 512.47,-35.26 515.87,-41.38"/>
</g>
<!-- check_slice_ptr -->
<g id="node13" class="node">
<title>check_slice_ptr</title>
<polygon fill="none" stroke="black" points="554.5,-300 409.5,-300 409.5,-264 554.5,-264 554.5,-300"/>
<text text-anchor="middle" x="482" y="-279.5" font-family="Courier,monospace" font-size="10.00">检查字段名是&quot;ptr&quot;或&quot;len&quot;</text>
</g>
<!-- pointer_case&#45;&gt;check_slice_ptr -->
<g id="edge12" class="edge">
<title>pointer_case&#45;&gt;check_slice_ptr</title>
<path fill="none" stroke="black" d="M529,-371.97C520.08,-355.07 506.27,-328.94 495.92,-309.36"/>
<polygon fill="black" stroke="black" points="498.93,-307.55 491.16,-300.34 492.74,-310.82 498.93,-307.55"/>
</g>
<!-- create_slice_ptr -->
<g id="node14" class="node">
<title>create_slice_ptr</title>
<polygon fill="none" stroke="black" points="407.5,-217 312.5,-217 312.5,-181 407.5,-181 407.5,-217"/>
<text text-anchor="middle" x="360" y="-196.5" font-family="Courier,monospace" font-size="10.00">生成切片指针字段</text>
</g>
<!-- check_slice_ptr&#45;&gt;create_slice_ptr -->
<g id="edge13" class="edge">
<title>check_slice_ptr&#45;&gt;create_slice_ptr</title>
<path fill="none" stroke="black" d="M456.13,-263.82C438.09,-251.85 413.84,-235.75 394.21,-222.71"/>
<polygon fill="black" stroke="black" points="396.1,-219.77 385.84,-217.15 392.23,-225.6 396.1,-219.77"/>
<text text-anchor="middle" x="444.5" y="-238" font-family="Courier,monospace" font-size="10.00">&quot;ptr&quot;</text>
</g>
<!-- create_slice_len -->
<g id="node15" class="node">
<title>create_slice_len</title>
<polygon fill="none" stroke="black" points="520.5,-217 425.5,-217 425.5,-181 520.5,-181 520.5,-217"/>
<text text-anchor="middle" x="473" y="-196.5" font-family="Courier,monospace" font-size="10.00">生成切片长度字段</text>
</g>
<!-- check_slice_ptr&#45;&gt;create_slice_len -->
<g id="edge14" class="edge">
<title>check_slice_ptr&#45;&gt;create_slice_len</title>
<path fill="none" stroke="black" d="M480.09,-263.82C478.91,-253.19 477.37,-239.31 476.02,-227.2"/>
<polygon fill="black" stroke="black" points="479.49,-226.71 474.91,-217.15 472.53,-227.48 479.49,-226.71"/>
<text text-anchor="middle" x="494.5" y="-238" font-family="Courier,monospace" font-size="10.00">&quot;len&quot;</text>
</g>
<!-- slice_error -->
<g id="node16" class="node">
<title>slice_error</title>
<polygon fill="none" stroke="black" points="607,-163 491,-163 491,-127 607,-127 607,-163"/>
<text text-anchor="middle" x="549" y="-142.5" font-family="Courier,monospace" font-size="10.00">返回错误: 无效字段名</text>
</g>
<!-- check_slice_ptr&#45;&gt;slice_error -->
<g id="edge15" class="edge">
<title>check_slice_ptr&#45;&gt;slice_error</title>
<path fill="none" stroke="black" d="M499.24,-263.96C504.32,-258.48 509.67,-252.21 514,-246 529.39,-223.93 538.62,-194.43 543.71,-173.2"/>
<polygon fill="black" stroke="black" points="547.17,-173.74 545.94,-163.22 540.34,-172.21 547.17,-173.74"/>
<text text-anchor="middle" x="545.5" y="-238" font-family="Courier,monospace" font-size="10.00">其他字段名</text>
</g>
<!-- slice_error&#45;&gt;end -->
<g id="edge36" class="edge">
<title>slice_error&#45;&gt;end</title>
<path fill="none" stroke="black" d="M549,-126.88C549,-106.15 549,-70.95 549,-46.42"/>
<polygon fill="black" stroke="black" points="552.5,-46.31 549,-36.31 545.5,-46.31 552.5,-46.31"/>
</g>
<!-- resolve_type_value -->
<g id="node18" class="node">
<title>resolve_type_value</title>
<polygon fill="none" stroke="black" points="771.5,-300 706.5,-300 706.5,-264 771.5,-264 771.5,-300"/>
<text text-anchor="middle" x="739" y="-279.5" font-family="Courier,monospace" font-size="10.00">解析类型值</text>
</g>
<!-- type_case&#45;&gt;resolve_type_value -->
<g id="edge17" class="edge">
<title>type_case&#45;&gt;resolve_type_value</title>
<path fill="none" stroke="black" d="M739,-371.97C739,-355.38 739,-329.88 739,-310.43"/>
<polygon fill="black" stroke="black" points="742.5,-310.34 739,-300.34 735.5,-310.34 742.5,-310.34"/>
</g>
<!-- handle_error_set -->
<g id="node19" class="node">
<title>handle_error_set</title>
<polygon fill="none" stroke="black" points="672.5,-217 577.5,-217 577.5,-181 672.5,-181 672.5,-217"/>
<text text-anchor="middle" x="625" y="-196.5" font-family="Courier,monospace" font-size="10.00">处理错误集合类型</text>
</g>
<!-- resolve_type_value&#45;&gt;handle_error_set -->
<g id="edge18" class="edge">
<title>resolve_type_value&#45;&gt;handle_error_set</title>
<path fill="none" stroke="black" d="M714.82,-263.82C698.2,-252.01 675.92,-236.18 657.71,-223.24"/>
<polygon fill="black" stroke="black" points="659.32,-220.09 649.14,-217.15 655.27,-225.8 659.32,-220.09"/>
<text text-anchor="middle" x="708" y="-238" font-family="Courier,monospace" font-size="10.00">错误集合</text>
</g>
<!-- handle_union -->
<g id="node20" class="node">
<title>handle_union</title>
<polygon fill="none" stroke="black" points="775.5,-217 690.5,-217 690.5,-181 775.5,-181 775.5,-217"/>
<text text-anchor="middle" x="733" y="-196.5" font-family="Courier,monospace" font-size="10.00">处理联合体类型</text>
</g>
<!-- resolve_type_value&#45;&gt;handle_union -->
<g id="edge19" class="edge">
<title>resolve_type_value&#45;&gt;handle_union</title>
<path fill="none" stroke="black" d="M737.73,-263.82C736.94,-253.19 735.91,-239.31 735.02,-227.2"/>
<polygon fill="black" stroke="black" points="738.5,-226.87 734.27,-217.15 731.52,-227.38 738.5,-226.87"/>
<text text-anchor="middle" x="751" y="-238" font-family="Courier,monospace" font-size="10.00">联合体</text>
</g>
<!-- handle_enum -->
<g id="node21" class="node">
<title>handle_enum</title>
<polygon fill="none" stroke="black" points="868.5,-217 793.5,-217 793.5,-181 868.5,-181 868.5,-217"/>
<text text-anchor="middle" x="831" y="-196.5" font-family="Courier,monospace" font-size="10.00">处理枚举类型</text>
</g>
<!-- resolve_type_value&#45;&gt;handle_enum -->
<g id="edge20" class="edge">
<title>resolve_type_value&#45;&gt;handle_enum</title>
<path fill="none" stroke="black" d="M758.51,-263.82C771.68,-252.22 789.25,-236.75 803.8,-223.95"/>
<polygon fill="black" stroke="black" points="806.32,-226.39 811.52,-217.15 801.7,-221.13 806.32,-226.39"/>
<text text-anchor="middle" x="800" y="-238" font-family="Courier,monospace" font-size="10.00">枚举</text>
</g>
<!-- handle_struct -->
<g id="node22" class="node">
<title>handle_struct</title>
<polygon fill="none" stroke="black" points="1013.5,-217 886.5,-217 886.5,-181 1013.5,-181 1013.5,-217"/>
<text text-anchor="middle" x="950" y="-196.5" font-family="Courier,monospace" font-size="10.00">处理结构体/opaque类型</text>
</g>
<!-- resolve_type_value&#45;&gt;handle_struct -->
<g id="edge21" class="edge">
<title>resolve_type_value&#45;&gt;handle_struct</title>
<path fill="none" stroke="black" d="M771.51,-268.52C804.65,-255.8 856.64,-235.84 895.98,-220.74"/>
<polygon fill="black" stroke="black" points="897.61,-223.86 905.69,-217.01 895.1,-217.32 897.61,-223.86"/>
<text text-anchor="middle" x="893" y="-238" font-family="Courier,monospace" font-size="10.00">结构体/opaque</text>
</g>
<!-- type_error -->
<g id="node23" class="node">
<title>type_error</title>
<polygon fill="none" stroke="black" points="791,-109 675,-109 675,-73 791,-73 791,-109"/>
<text text-anchor="middle" x="733" y="-88.5" font-family="Courier,monospace" font-size="10.00">返回错误: 类型无成员</text>
</g>
<!-- handle_error_set&#45;&gt;type_error -->
<g id="edge22" class="edge">
<title>handle_error_set&#45;&gt;type_error</title>
<path fill="none" stroke="black" d="M635.85,-180.94C646.07,-165.7 662.39,-143.33 680,-127 684.62,-122.72 689.81,-118.61 695.09,-114.8"/>
<polygon fill="black" stroke="black" points="697.14,-117.64 703.4,-109.09 693.18,-111.87 697.14,-117.64"/>
<text text-anchor="middle" x="704.5" y="-142.5" font-family="Courier,monospace" font-size="10.00">字段不存在</text>
</g>
<!-- handle_union&#45;&gt;type_error -->
<g id="edge23" class="edge">
<title>handle_union&#45;&gt;type_error</title>
<path fill="none" stroke="black" d="M733,-180.97C733,-164.38 733,-138.88 733,-119.43"/>
<polygon fill="black" stroke="black" points="736.5,-119.34 733,-109.34 729.5,-119.34 736.5,-119.34"/>
<text text-anchor="middle" x="757.5" y="-142.5" font-family="Courier,monospace" font-size="10.00">字段不存在</text>
</g>
<!-- handle_enum&#45;&gt;type_error -->
<g id="edge24" class="edge">
<title>handle_enum&#45;&gt;type_error</title>
<path fill="none" stroke="black" d="M822.76,-180.81C814.83,-165.48 801.74,-143.04 786,-127 781.79,-122.71 776.98,-118.67 772.01,-114.95"/>
<polygon fill="black" stroke="black" points="773.76,-111.91 763.56,-109.03 769.74,-117.64 773.76,-111.91"/>
<text text-anchor="middle" x="836.5" y="-142.5" font-family="Courier,monospace" font-size="10.00">字段不存在</text>
</g>
<!-- handle_struct&#45;&gt;type_error -->
<g id="edge25" class="edge">
<title>handle_struct&#45;&gt;type_error</title>
<path fill="none" stroke="black" d="M934.03,-180.89C918.04,-164.74 891.98,-140.96 865,-127 845.28,-116.79 822.32,-109.37 801.13,-104.06"/>
<polygon fill="black" stroke="black" points="801.75,-100.61 791.21,-101.69 800.13,-107.42 801.75,-100.61"/>
<text text-anchor="middle" x="937.5" y="-142.5" font-family="Courier,monospace" font-size="10.00">字段不存在</text>
</g>
<!-- type_error&#45;&gt;end -->
<g id="edge37" class="edge">
<title>type_error&#45;&gt;end</title>
<path fill="none" stroke="black" d="M688.93,-72.99C659.32,-61.57 620.51,-46.6 591.28,-35.32"/>
<polygon fill="black" stroke="black" points="592.35,-31.98 581.76,-31.64 589.83,-38.51 592.35,-31.98"/>
</g>
<!-- get_struct_field -->
<g id="node26" class="node">
<title>get_struct_field</title>
<polygon fill="none" stroke="black" points="930,-300 810,-300 810,-264 930,-264 930,-300"/>
<text text-anchor="middle" x="870" y="-279.5" font-family="Courier,monospace" font-size="10.00">调用structFieldPtr</text>
</g>
<!-- struct_case&#45;&gt;get_struct_field -->
<g id="edge27" class="edge">
<title>struct_case&#45;&gt;get_struct_field</title>
<path fill="none" stroke="black" d="M864.12,-371.97C865.22,-355.38 866.9,-329.88 868.19,-310.43"/>
<polygon fill="black" stroke="black" points="871.69,-310.55 868.85,-300.34 864.7,-310.09 871.69,-310.55"/>
</g>
<!-- get_union_field -->
<g id="node27" class="node">
<title>get_union_field</title>
<polygon fill="none" stroke="black" points="1063,-300 949,-300 949,-264 1063,-264 1063,-300"/>
<text text-anchor="middle" x="1006" y="-279.5" font-family="Courier,monospace" font-size="10.00">调用unionFieldPtr</text>
</g>
<!-- union_case&#45;&gt;get_union_field -->
<g id="edge30" class="edge">
<title>union_case&#45;&gt;get_union_field</title>
<path fill="none" stroke="black" d="M990.89,-371.97C993.71,-355.38 998.04,-329.88 1001.34,-310.43"/>
<polygon fill="black" stroke="black" points="1004.83,-310.79 1003.06,-300.34 997.93,-309.61 1004.83,-310.79"/>
</g>
<!-- invalid_access -->
<g id="node29" class="node">
<title>invalid_access</title>
<polygon fill="none" stroke="black" points="1158,-217 1032,-217 1032,-181 1158,-181 1158,-217"/>
<text text-anchor="middle" x="1095" y="-196.5" font-family="Courier,monospace" font-size="10.00">返回错误: 无效字段访问</text>
</g>
<!-- get_struct_field&#45;&gt;invalid_access -->
<g id="edge28" class="edge">
<title>get_struct_field&#45;&gt;invalid_access</title>
<path fill="none" stroke="black" d="M910.07,-263.94C931.79,-254.92 959.19,-243.9 984,-235 998.28,-229.88 1013.72,-224.75 1028.43,-220.06"/>
<polygon fill="black" stroke="black" points="1029.48,-223.4 1037.96,-217.05 1027.37,-216.72 1029.48,-223.4"/>
<text text-anchor="middle" x="1004" y="-238" font-family="Courier,monospace" font-size="10.00">检查失败</text>
</g>
<!-- get_union_field&#45;&gt;invalid_access -->
<g id="edge31" class="edge">
<title>get_union_field&#45;&gt;invalid_access</title>
<path fill="none" stroke="black" d="M1015.48,-263.97C1021.2,-254.69 1029.09,-243.42 1038,-235 1042.65,-230.6 1047.95,-226.48 1053.39,-222.71"/>
<polygon fill="black" stroke="black" points="1055.53,-225.49 1061.99,-217.1 1051.7,-219.63 1055.53,-225.49"/>
<text text-anchor="middle" x="1058" y="-238" font-family="Courier,monospace" font-size="10.00">检查失败</text>
</g>
<!-- default_case&#45;&gt;invalid_access -->
<g id="edge33" class="edge">
<title>default_case&#45;&gt;invalid_access</title>
<path fill="none" stroke="black" d="M1084.52,-317.9C1086.55,-295.1 1090.16,-254.48 1092.57,-227.39"/>
<polygon fill="black" stroke="black" points="1096.06,-227.66 1093.45,-217.39 1089.08,-227.04 1096.06,-227.66"/>
</g>
<!-- invalid_access&#45;&gt;end -->
<g id="edge38" class="edge">
<title>invalid_access&#45;&gt;end</title>
<path fill="none" stroke="black" d="M1067.58,-180.92C1041.98,-165.46 1002.36,-142.75 966,-127 842.12,-73.33 685.59,-41.65 604.06,-27.63"/>
<polygon fill="black" stroke="black" points="604.46,-24.15 594.02,-25.93 603.29,-31.05 604.46,-24.15"/>
</g>
</g>
</svg>
