<?xml version="1.0" encoding="UTF-8" standalone="no"?>
<!DOCTYPE svg PUBLIC "-//W3C//DTD SVG 1.1//EN"
 "http://www.w3.org/Graphics/SVG/1.1/DTD/svg11.dtd">
<!-- Generated by graphviz version 2.43.0 (0)
 -->
<!-- Title: analyzeSlice Pages: 1 -->
<svg width="795pt" height="1246pt"
 viewBox="0.00 0.00 795.00 1246.00" xmlns="http://www.w3.org/2000/svg" xmlns:xlink="http://www.w3.org/1999/xlink">
<g id="graph0" class="graph" transform="scale(1 1) rotate(0) translate(4 1242)">
<title>analyzeSlice</title>
<polygon fill="white" stroke="transparent" points="-4,4 -4,-1242 791,-1242 791,4 -4,4"/>
<!-- start -->
<g id="node1" class="node">
<title>start</title>
<ellipse fill="none" stroke="black" cx="522.5" cy="-1220" rx="73.67" ry="18"/>
<text text-anchor="middle" x="522.5" y="-1217.5" font-family="Courier,monospace" font-size="10.00">Start analyzeSlice</text>
</g>
<!-- check_ptr_ptr_type -->
<g id="node2" class="node">
<title>check_ptr_ptr_type</title>
<polygon fill="none" stroke="black" points="618,-1165 427,-1165 427,-1129 618,-1129 618,-1165"/>
<text text-anchor="middle" x="522.5" y="-1144.5" font-family="Courier,monospace" font-size="10.00">Check ptr_ptr is pointer type</text>
</g>
<!-- start&#45;&gt;check_ptr_ptr_type -->
<g id="edge1" class="edge">
<title>start&#45;&gt;check_ptr_ptr_type</title>
<path fill="none" stroke="black" d="M522.5,-1201.81C522.5,-1193.79 522.5,-1184.05 522.5,-1175.07"/>
<polygon fill="black" stroke="black" points="526,-1175.03 522.5,-1165.03 519,-1175.03 526,-1175.03"/>
</g>
<!-- ptr_ptr_child_ty_switch -->
<g id="node3" class="node">
<title>ptr_ptr_child_ty_switch</title>
<polygon fill="none" stroke="black" points="376.5,-1082 182.56,-1064 376.5,-1046 570.44,-1064 376.5,-1082"/>
<text text-anchor="middle" x="376.5" y="-1061.5" font-family="Courier,monospace" font-size="10.00">Switch ptr_ptr_child_ty.zigTypeTag()</text>
</g>
<!-- check_ptr_ptr_type&#45;&gt;ptr_ptr_child_ty_switch -->
<g id="edge2" class="edge">
<title>check_ptr_ptr_type&#45;&gt;ptr_ptr_child_ty_switch</title>
<path fill="none" stroke="black" d="M491.54,-1128.82C468.23,-1115.89 436.25,-1098.15 411.93,-1084.66"/>
<polygon fill="black" stroke="black" points="413.46,-1081.5 403.01,-1079.71 410.06,-1087.62 413.46,-1081.5"/>
<text text-anchor="middle" x="497" y="-1103" font-family="Courier,monospace" font-size="10.00">Valid pointer</text>
</g>
<!-- error_exit -->
<g id="node18" class="node">
<title>error_exit</title>
<ellipse fill="none" stroke="black" cx="471.5" cy="-476" rx="52.28" ry="18"/>
<text text-anchor="middle" x="471.5" y="-473.5" font-family="Courier,monospace" font-size="10.00">Return error</text>
</g>
<!-- check_ptr_ptr_type&#45;&gt;error_exit -->
<g id="edge3" class="edge">
<title>check_ptr_ptr_type&#45;&gt;error_exit</title>
<path fill="none" stroke="black" d="M576.7,-1128.99C604.88,-1116.42 633.5,-1096.01 633.5,-1065 633.5,-1065 633.5,-1065 633.5,-558 633.5,-510.83 577.89,-491.13 531.83,-482.9"/>
<polygon fill="black" stroke="black" points="532.3,-479.43 521.87,-481.27 531.17,-486.34 532.3,-479.43"/>
<text text-anchor="middle" x="667" y="-806.5" font-family="Courier,monospace" font-size="10.00">Not pointer</text>
</g>
<!-- handle_array -->
<g id="node4" class="node">
<title>handle_array</title>
<polygon fill="none" stroke="black" points="131,-945 0,-945 0,-904 131,-904 131,-945"/>
<text text-anchor="middle" x="65.5" y="-933" font-family="Courier,monospace" font-size="10.00">Handle .array case:</text>
<text text-anchor="middle" x="65.5" y="-922" font-family="Courier,monospace" font-size="10.00">&#45; Get sentinel</text>
<text text-anchor="middle" x="65.5" y="-911" font-family="Courier,monospace" font-size="10.00">&#45; Set elem_ty</text>
</g>
<!-- ptr_ptr_child_ty_switch&#45;&gt;handle_array -->
<g id="edge4" class="edge">
<title>ptr_ptr_child_ty_switch&#45;&gt;handle_array</title>
<path fill="none" stroke="black" d="M339.47,-1049.36C306.4,-1036.95 256.8,-1017.75 214.5,-999 179.76,-983.6 141.32,-964.59 112.18,-949.75"/>
<polygon fill="black" stroke="black" points="113.56,-946.53 103.06,-945.1 110.38,-952.76 113.56,-946.53"/>
<text text-anchor="middle" x="303" y="-1020" font-family="Courier,monospace" font-size="10.00">.array</text>
</g>
<!-- handle_pointer -->
<g id="node5" class="node">
<title>handle_pointer</title>
<polygon fill="none" stroke="black" points="367,-999 224,-999 224,-963 367,-963 367,-999"/>
<text text-anchor="middle" x="295.5" y="-984" font-family="Courier,monospace" font-size="10.00">Handle .pointer case:</text>
<text text-anchor="middle" x="295.5" y="-973" font-family="Courier,monospace" font-size="10.00">Switch ptrSize</text>
</g>
<!-- ptr_ptr_child_ty_switch&#45;&gt;handle_pointer -->
<g id="edge5" class="edge">
<title>ptr_ptr_child_ty_switch&#45;&gt;handle_pointer</title>
<path fill="none" stroke="black" d="M360.88,-1047.38C349.35,-1035.85 333.43,-1019.93 320.19,-1006.69"/>
<polygon fill="black" stroke="black" points="322.3,-1003.85 312.75,-999.25 317.35,-1008.8 322.3,-1003.85"/>
<text text-anchor="middle" x="366" y="-1020" font-family="Courier,monospace" font-size="10.00">.pointer</text>
</g>
<!-- handle_else -->
<g id="node9" class="node">
<title>handle_else</title>
<polygon fill="none" stroke="black" points="611,-827 444,-827 444,-791 611,-791 611,-827"/>
<text text-anchor="middle" x="527.5" y="-812" font-family="Courier,monospace" font-size="10.00">Return error:</text>
<text text-anchor="middle" x="527.5" y="-801" font-family="Courier,monospace" font-size="10.00">&#39;slice of non&#45;array type&#39;</text>
</g>
<!-- ptr_ptr_child_ty_switch&#45;&gt;handle_else -->
<g id="edge6" class="edge">
<title>ptr_ptr_child_ty_switch&#45;&gt;handle_else</title>
<path fill="none" stroke="black" d="M391.84,-1047.42C419.64,-1018.28 478.33,-952.47 509.5,-886 516.68,-870.69 521.14,-852.26 523.82,-837.38"/>
<polygon fill="black" stroke="black" points="527.31,-837.7 525.47,-827.27 520.4,-836.57 527.31,-837.7"/>
<text text-anchor="middle" x="474" y="-978.5" font-family="Courier,monospace" font-size="10.00">else</text>
</g>
<!-- coerce_ptr -->
<g id="node11" class="node">
<title>coerce_ptr</title>
<polygon fill="none" stroke="black" points="266,-494 75,-494 75,-458 266,-458 266,-494"/>
<text text-anchor="middle" x="170.5" y="-473.5" font-family="Courier,monospace" font-size="10.00">Coerce ptr to compatible type</text>
</g>
<!-- handle_array&#45;&gt;coerce_ptr -->
<g id="edge19" class="edge">
<title>handle_array&#45;&gt;coerce_ptr</title>
<path fill="none" stroke="black" d="M67.73,-903.85C70.1,-881.24 73.5,-842.99 73.5,-810 73.5,-810 73.5,-810 73.5,-558 73.5,-531.66 94.84,-512.21 117.49,-498.98"/>
<polygon fill="black" stroke="black" points="119.44,-501.9 126.54,-494.04 116.09,-495.76 119.44,-501.9"/>
</g>
<!-- ptrSize_one -->
<g id="node6" class="node">
<title>ptrSize_one</title>
<polygon fill="none" stroke="black" points="500,-886 345,-886 345,-845 500,-845 500,-886"/>
<text text-anchor="middle" x="422.5" y="-874" font-family="Courier,monospace" font-size="10.00">Case .one:</text>
<text text-anchor="middle" x="422.5" y="-863" font-family="Courier,monospace" font-size="10.00">&#45; Load ptr</text>
<text text-anchor="middle" x="422.5" y="-852" font-family="Courier,monospace" font-size="10.00">&#45; Check double_child_ty</text>
</g>
<!-- handle_pointer&#45;&gt;ptrSize_one -->
<g id="edge7" class="edge">
<title>handle_pointer&#45;&gt;ptrSize_one</title>
<path fill="none" stroke="black" d="M317.17,-962.84C324.07,-957.25 331.68,-950.95 338.5,-945 357.63,-928.31 378.49,-908.83 394.63,-893.45"/>
<polygon fill="black" stroke="black" points="397.34,-895.7 402.15,-886.26 392.5,-890.64 397.34,-895.7"/>
<text text-anchor="middle" x="395" y="-922" font-family="Courier,monospace" font-size="10.00">.one</text>
</g>
<!-- ptrSize_many_c -->
<g id="node7" class="node">
<title>ptrSize_many_c</title>
<polygon fill="none" stroke="black" points="327,-886 202,-886 202,-845 327,-845 327,-886"/>
<text text-anchor="middle" x="264.5" y="-874" font-family="Courier,monospace" font-size="10.00">Case .many/.c:</text>
<text text-anchor="middle" x="264.5" y="-863" font-family="Courier,monospace" font-size="10.00">&#45; Load ptr</text>
<text text-anchor="middle" x="264.5" y="-852" font-family="Courier,monospace" font-size="10.00">&#45; Check C ptr null</text>
</g>
<!-- handle_pointer&#45;&gt;ptrSize_many_c -->
<g id="edge8" class="edge">
<title>handle_pointer&#45;&gt;ptrSize_many_c</title>
<path fill="none" stroke="black" d="M290.79,-962.76C285.96,-945.07 278.35,-917.2 272.56,-896"/>
<polygon fill="black" stroke="black" points="275.89,-894.92 269.88,-886.19 269.14,-896.76 275.89,-894.92"/>
<text text-anchor="middle" x="310" y="-922" font-family="Courier,monospace" font-size="10.00">.many/.c</text>
</g>
<!-- ptrSize_slice -->
<g id="node8" class="node">
<title>ptrSize_slice</title>
<polygon fill="none" stroke="black" points="210,-719 97,-719 97,-678 210,-678 210,-719"/>
<text text-anchor="middle" x="153.5" y="-707" font-family="Courier,monospace" font-size="10.00">Case .slice:</text>
<text text-anchor="middle" x="153.5" y="-696" font-family="Courier,monospace" font-size="10.00">&#45; Load ptr</text>
<text text-anchor="middle" x="153.5" y="-685" font-family="Courier,monospace" font-size="10.00">&#45; Use slice info</text>
</g>
<!-- handle_pointer&#45;&gt;ptrSize_slice -->
<g id="edge9" class="edge">
<title>handle_pointer&#45;&gt;ptrSize_slice</title>
<path fill="none" stroke="black" d="M249.72,-962.91C217.03,-948.03 175.46,-922.97 155.5,-886 128.71,-836.39 137.44,-767.98 145.76,-729.3"/>
<polygon fill="black" stroke="black" points="149.25,-729.75 148.07,-719.22 142.43,-728.19 149.25,-729.75"/>
<text text-anchor="middle" x="174" y="-863" font-family="Courier,monospace" font-size="10.00">.slice</text>
</g>
<!-- check_double_child_ty -->
<g id="node19" class="node">
<title>check_double_child_ty</title>
<polygon fill="none" stroke="black" points="441,-773 298,-773 298,-737 441,-737 441,-773"/>
<text text-anchor="middle" x="369.5" y="-752.5" font-family="Courier,monospace" font-size="10.00">check_double_child_ty</text>
</g>
<!-- ptrSize_one&#45;&gt;check_double_child_ty -->
<g id="edge10" class="edge">
<title>ptrSize_one&#45;&gt;check_double_child_ty</title>
<path fill="none" stroke="black" d="M344.81,-846.26C328,-840.72 313.69,-834.17 308.5,-827 299.12,-814.04 300.48,-804.85 308.5,-791 311.01,-786.67 314.27,-782.83 317.99,-779.44"/>
<polygon fill="black" stroke="black" points="320.42,-781.98 326.16,-773.07 316.12,-776.46 320.42,-781.98"/>
<text text-anchor="middle" x="372" y="-806.5" font-family="Courier,monospace" font-size="10.00">Check double_child_ty</text>
</g>
<!-- check_c_ptr_null -->
<g id="node22" class="node">
<title>check_c_ptr_null</title>
<polygon fill="none" stroke="black" points="298,-577 185,-577 185,-541 298,-541 298,-577"/>
<text text-anchor="middle" x="241.5" y="-556.5" font-family="Courier,monospace" font-size="10.00">check_c_ptr_null</text>
</g>
<!-- ptrSize_many_c&#45;&gt;check_c_ptr_null -->
<g id="edge15" class="edge">
<title>ptrSize_many_c&#45;&gt;check_c_ptr_null</title>
<path fill="none" stroke="black" d="M260.39,-844.85C254.79,-817 245.06,-764.38 241.5,-719 237.88,-672.97 238.99,-619.2 240.2,-587.47"/>
<polygon fill="black" stroke="black" points="243.7,-587.35 240.62,-577.21 236.71,-587.06 243.7,-587.35"/>
<text text-anchor="middle" x="308" y="-696" font-family="Courier,monospace" font-size="10.00">Check if C ptr is null</text>
</g>
<!-- ptrSize_slice&#45;&gt;coerce_ptr -->
<g id="edge18" class="edge">
<title>ptrSize_slice&#45;&gt;coerce_ptr</title>
<path fill="none" stroke="black" d="M155.01,-677.93C158.05,-638.5 164.92,-549.4 168.4,-504.28"/>
<polygon fill="black" stroke="black" points="171.91,-504.31 169.18,-494.07 164.93,-503.77 171.91,-504.31"/>
</g>
<!-- handle_else&#45;&gt;error_exit -->
<g id="edge20" class="edge">
<title>handle_else&#45;&gt;error_exit</title>
<path fill="none" stroke="black" d="M526.47,-790.72C525.28,-769.32 523.5,-731.73 523.5,-699.5 523.5,-699.5 523.5,-699.5 523.5,-558 523.5,-536.63 520.87,-530.1 509.5,-512 506.84,-507.76 503.53,-503.71 499.98,-499.96"/>
<polygon fill="black" stroke="black" points="502.13,-497.16 492.5,-492.73 497.26,-502.2 502.13,-497.16"/>
</g>
<!-- check_slice_ty -->
<g id="node10" class="node">
<title>check_slice_ty</title>
<polygon fill="none" stroke="black" points="787,-1238 614,-1238 614,-1202 787,-1202 787,-1238"/>
<text text-anchor="middle" x="700.5" y="-1217.5" font-family="Courier,monospace" font-size="10.00">Check if slice_ty is slice</text>
</g>
<!-- process_start_end -->
<g id="node12" class="node">
<title>process_start_end</title>
<polygon fill="none" stroke="black" points="254,-421 87,-421 87,-380 254,-380 254,-421"/>
<text text-anchor="middle" x="170.5" y="-409" font-family="Courier,monospace" font-size="10.00">Process start/end indexes</text>
<text text-anchor="middle" x="170.5" y="-398" font-family="Courier,monospace" font-size="10.00">&#45; Coerce types</text>
<text text-anchor="middle" x="170.5" y="-387" font-family="Courier,monospace" font-size="10.00">&#45; Arithmetic checks</text>
</g>
<!-- coerce_ptr&#45;&gt;process_start_end -->
<g id="edge21" class="edge">
<title>coerce_ptr&#45;&gt;process_start_end</title>
<path fill="none" stroke="black" d="M170.5,-457.95C170.5,-450.03 170.5,-440.37 170.5,-431.29"/>
<polygon fill="black" stroke="black" points="174,-431.05 170.5,-421.05 167,-431.05 174,-431.05"/>
</g>
<!-- check_start_lte_end -->
<g id="node13" class="node">
<title>check_start_lte_end</title>
<polygon fill="none" stroke="black" points="170.5,-343 66.38,-325 170.5,-307 274.62,-325 170.5,-343"/>
<text text-anchor="middle" x="170.5" y="-322.5" font-family="Courier,monospace" font-size="10.00">Check start &lt;= end</text>
</g>
<!-- process_start_end&#45;&gt;check_start_lte_end -->
<g id="edge22" class="edge">
<title>process_start_end&#45;&gt;check_start_lte_end</title>
<path fill="none" stroke="black" d="M170.5,-379.8C170.5,-371.7 170.5,-362.18 170.5,-353.41"/>
<polygon fill="black" stroke="black" points="174,-353.25 170.5,-343.25 167,-353.25 174,-353.25"/>
</g>
<!-- handle_sentinel -->
<g id="node14" class="node">
<title>handle_sentinel</title>
<polygon fill="none" stroke="black" points="346,-260 197,-260 197,-224 346,-224 346,-260"/>
<text text-anchor="middle" x="271.5" y="-239.5" font-family="Courier,monospace" font-size="10.00">Handle sentinel checks</text>
</g>
<!-- check_start_lte_end&#45;&gt;handle_sentinel -->
<g id="edge24" class="edge">
<title>check_start_lte_end&#45;&gt;handle_sentinel</title>
<path fill="none" stroke="black" d="M188.09,-309.89C202.96,-297.97 224.55,-280.65 242.05,-266.62"/>
<polygon fill="black" stroke="black" points="244.65,-269.02 250.26,-260.04 240.27,-263.56 244.65,-269.02"/>
<text text-anchor="middle" x="243" y="-281" font-family="Courier,monospace" font-size="10.00">False</text>
</g>
<!-- runtime_safety_checks -->
<g id="node15" class="node">
<title>runtime_safety_checks</title>
<polygon fill="none" stroke="black" points="241,-187 92,-187 92,-146 241,-146 241,-187"/>
<text text-anchor="middle" x="166.5" y="-175" font-family="Courier,monospace" font-size="10.00">Runtime safety checks:</text>
<text text-anchor="middle" x="166.5" y="-164" font-family="Courier,monospace" font-size="10.00">&#45; Non&#45;null C ptr</text>
<text text-anchor="middle" x="166.5" y="-153" font-family="Courier,monospace" font-size="10.00">&#45; Bounds checks</text>
</g>
<!-- check_start_lte_end&#45;&gt;runtime_safety_checks -->
<g id="edge23" class="edge">
<title>check_start_lte_end&#45;&gt;runtime_safety_checks</title>
<path fill="none" stroke="black" d="M167.82,-307.21C165.91,-294.33 163.5,-276.09 162.5,-260 161.51,-244.03 161.93,-239.99 162.5,-224 162.81,-215.27 163.39,-205.79 164.01,-197.13"/>
<polygon fill="black" stroke="black" points="167.5,-197.33 164.77,-187.09 160.52,-196.8 167.5,-197.33"/>
<text text-anchor="middle" x="175" y="-239.5" font-family="Courier,monospace" font-size="10.00">True</text>
</g>
<!-- handle_sentinel&#45;&gt;runtime_safety_checks -->
<g id="edge25" class="edge">
<title>handle_sentinel&#45;&gt;runtime_safety_checks</title>
<path fill="none" stroke="black" d="M247.15,-223.95C233.98,-214.74 217.46,-203.17 202.8,-192.91"/>
<polygon fill="black" stroke="black" points="204.63,-189.92 194.43,-187.05 200.62,-195.65 204.63,-189.92"/>
</g>
<!-- generate_result -->
<g id="node16" class="node">
<title>generate_result</title>
<polygon fill="none" stroke="black" points="235,-109 98,-109 98,-73 235,-73 235,-109"/>
<text text-anchor="middle" x="166.5" y="-94" font-family="Courier,monospace" font-size="10.00">Generate return type</text>
<text text-anchor="middle" x="166.5" y="-83" font-family="Courier,monospace" font-size="10.00">and result</text>
</g>
<!-- runtime_safety_checks&#45;&gt;generate_result -->
<g id="edge26" class="edge">
<title>runtime_safety_checks&#45;&gt;generate_result</title>
<path fill="none" stroke="black" d="M166.5,-145.8C166.5,-137.7 166.5,-128.18 166.5,-119.41"/>
<polygon fill="black" stroke="black" points="170,-119.25 166.5,-109.25 163,-119.25 170,-119.25"/>
</g>
<!-- return_result -->
<g id="node17" class="node">
<title>return_result</title>
<ellipse fill="none" stroke="black" cx="166.5" cy="-18" rx="55.85" ry="18"/>
<text text-anchor="middle" x="166.5" y="-15.5" font-family="Courier,monospace" font-size="10.00">Return result</text>
</g>
<!-- generate_result&#45;&gt;return_result -->
<g id="edge27" class="edge">
<title>generate_result&#45;&gt;return_result</title>
<path fill="none" stroke="black" d="M166.5,-72.81C166.5,-64.79 166.5,-55.05 166.5,-46.07"/>
<polygon fill="black" stroke="black" points="170,-46.03 166.5,-36.03 163,-46.03 170,-46.03"/>
</g>
<!-- handle_single_item_ptr -->
<g id="node20" class="node">
<title>handle_single_item_ptr</title>
<polygon fill="none" stroke="black" points="472,-660 323,-660 323,-624 472,-624 472,-660"/>
<text text-anchor="middle" x="397.5" y="-639.5" font-family="Courier,monospace" font-size="10.00">handle_single_item_ptr</text>
</g>
<!-- check_double_child_ty&#45;&gt;handle_single_item_ptr -->
<g id="edge11" class="edge">
<title>check_double_child_ty&#45;&gt;handle_single_item_ptr</title>
<path fill="none" stroke="black" d="M373.88,-736.66C378.37,-718.82 385.45,-690.78 390.68,-670.03"/>
<polygon fill="black" stroke="black" points="394.1,-670.77 393.16,-660.22 387.32,-669.06 394.1,-670.77"/>
<text text-anchor="middle" x="415" y="-696" font-family="Courier,monospace" font-size="10.00">Not array</text>
</g>
<!-- check_start_end_bounds -->
<g id="node21" class="node">
<title>check_start_end_bounds</title>
<polygon fill="none" stroke="black" points="472,-577 323,-577 323,-541 472,-541 472,-577"/>
<text text-anchor="middle" x="397.5" y="-556.5" font-family="Courier,monospace" font-size="10.00">check_start_end_bounds</text>
</g>
<!-- handle_single_item_ptr&#45;&gt;check_start_end_bounds -->
<g id="edge12" class="edge">
<title>handle_single_item_ptr&#45;&gt;check_start_end_bounds</title>
<path fill="none" stroke="black" d="M397.5,-623.82C397.5,-613.19 397.5,-599.31 397.5,-587.2"/>
<polygon fill="black" stroke="black" points="401,-587.15 397.5,-577.15 394,-587.15 401,-587.15"/>
<text text-anchor="middle" x="452" y="-598" font-family="Courier,monospace" font-size="10.00">Validate start/end</text>
</g>
<!-- check_start_end_bounds&#45;&gt;coerce_ptr -->
<g id="edge14" class="edge">
<title>check_start_end_bounds&#45;&gt;coerce_ptr</title>
<path fill="none" stroke="black" d="M363.1,-540.92C343.58,-531.63 318.51,-520.35 295.5,-512 280.41,-506.52 264.05,-501.38 248.28,-496.82"/>
<polygon fill="black" stroke="black" points="249.13,-493.42 238.56,-494.05 247.22,-500.15 249.13,-493.42"/>
<text text-anchor="middle" x="358" y="-515" font-family="Courier,monospace" font-size="10.00">Valid bounds</text>
</g>
<!-- check_start_end_bounds&#45;&gt;error_exit -->
<g id="edge13" class="edge">
<title>check_start_end_bounds&#45;&gt;error_exit</title>
<path fill="none" stroke="black" d="M405.52,-540.74C410.26,-531.61 416.84,-520.55 424.5,-512 428.87,-507.13 434.01,-502.49 439.25,-498.29"/>
<polygon fill="black" stroke="black" points="441.63,-500.88 447.49,-492.06 437.41,-495.3 441.63,-500.88"/>
<text text-anchor="middle" x="467" y="-515" font-family="Courier,monospace" font-size="10.00">Invalid bounds</text>
</g>
<!-- check_c_ptr_null&#45;&gt;coerce_ptr -->
<g id="edge17" class="edge">
<title>check_c_ptr_null&#45;&gt;coerce_ptr</title>
<path fill="none" stroke="black" d="M209.64,-540.86C202.33,-535.84 195.08,-529.83 189.5,-523 184.87,-517.34 181.23,-510.39 178.42,-503.62"/>
<polygon fill="black" stroke="black" points="181.63,-502.2 174.89,-494.02 175.06,-504.61 181.63,-502.2"/>
<text text-anchor="middle" x="205" y="-515" font-family="Courier,monospace" font-size="10.00">Valid</text>
</g>
<!-- check_c_ptr_null&#45;&gt;error_exit -->
<g id="edge16" class="edge">
<title>check_c_ptr_null&#45;&gt;error_exit</title>
<path fill="none" stroke="black" d="M236.94,-540.76C235.5,-531.18 235.75,-519.68 242.5,-512 263.85,-487.68 348.86,-480.1 409.05,-477.83"/>
<polygon fill="black" stroke="black" points="409.36,-481.32 419.23,-477.49 409.12,-474.33 409.36,-481.32"/>
<text text-anchor="middle" x="267" y="-515" font-family="Courier,monospace" font-size="10.00">Null ptr</text>
</g>
</g>
</svg>
