<?xml version="1.0" encoding="UTF-8" standalone="no"?>
<!DOCTYPE svg PUBLIC "-//W3C//DTD SVG 1.1//EN"
 "http://www.w3.org/Graphics/SVG/1.1/DTD/svg11.dtd">
<!-- Generated by graphviz version 2.43.0 (0)
 -->
<!-- Title: flowchart Pages: 1 -->
<svg width="1072pt" height="1063pt"
 viewBox="0.00 0.00 1072.00 1063.00" xmlns="http://www.w3.org/2000/svg" xmlns:xlink="http://www.w3.org/1999/xlink">
<g id="graph0" class="graph" transform="scale(1 1) rotate(0) translate(4 1059)">
<title>flowchart</title>
<polygon fill="white" stroke="transparent" points="-4,4 -4,-1059 1068,-1059 1068,4 -4,4"/>
<!-- start -->
<g id="node1" class="node">
<title>start</title>
<polygon fill="#f0f0f0" stroke="black" points="1064,-1055 805,-1055 805,-1019 1064,-1019 1064,-1055"/>
<text text-anchor="middle" x="934.5" y="-1033.3" font-family="Courier,monospace" font-size="14.00">开始: zirFieldParentPtr函数入口</text>
</g>
<!-- parse_params -->
<g id="node2" class="node">
<title>parse_params</title>
<polygon fill="#f0f0f0" stroke="black" points="998,-982 871,-982 871,-944 998,-944 998,-982"/>
<text text-anchor="middle" x="934.5" y="-966.8" font-family="Courier,monospace" font-size="14.00">解析参数</text>
<text text-anchor="middle" x="934.5" y="-951.8" font-family="Courier,monospace" font-size="14.00">提取Zir指令数据</text>
</g>
<!-- start&#45;&gt;parse_params -->
<g id="edge1" class="edge">
<title>start&#45;&gt;parse_params</title>
<path fill="none" stroke="black" d="M934.5,-1018.94C934.5,-1010.99 934.5,-1001.31 934.5,-992.31"/>
<polygon fill="black" stroke="black" points="938,-992.2 934.5,-982.2 931,-992.2 938,-992.2"/>
</g>
<!-- check_ptr_type -->
<g id="node3" class="node">
<title>check_ptr_type</title>
<polygon fill="#f0f0f0" stroke="black" points="1010.5,-907 858.5,-907 858.5,-869 1010.5,-869 1010.5,-907"/>
<text text-anchor="middle" x="934.5" y="-891.8" font-family="Courier,monospace" font-size="14.00">检查parent_ptr_ty</text>
<text text-anchor="middle" x="934.5" y="-876.8" font-family="Courier,monospace" font-size="14.00">是否为单指针</text>
</g>
<!-- parse_params&#45;&gt;check_ptr_type -->
<g id="edge2" class="edge">
<title>parse_params&#45;&gt;check_ptr_type</title>
<path fill="none" stroke="black" d="M934.5,-943.96C934.5,-935.88 934.5,-926.18 934.5,-917.18"/>
<polygon fill="black" stroke="black" points="938,-917.09 934.5,-907.09 931,-917.09 938,-917.09"/>
</g>
<!-- verify_parent_type -->
<g id="node4" class="node">
<title>verify_parent_type</title>
<polygon fill="#f0f0f0" stroke="black" points="960.5,-818 802.5,-818 802.5,-780 960.5,-780 960.5,-818"/>
<text text-anchor="middle" x="881.5" y="-802.8" font-family="Courier,monospace" font-size="14.00">验证parent_ty</text>
<text text-anchor="middle" x="881.5" y="-787.8" font-family="Courier,monospace" font-size="14.00">是否为struct/union</text>
</g>
<!-- check_ptr_type&#45;&gt;verify_parent_type -->
<g id="edge3" class="edge">
<title>check_ptr_type&#45;&gt;verify_parent_type</title>
<path fill="none" stroke="black" d="M923.52,-868.97C916.06,-856.73 906.06,-840.32 897.69,-826.58"/>
<polygon fill="black" stroke="black" points="900.66,-824.72 892.47,-818 894.68,-828.36 900.66,-824.72"/>
<text text-anchor="middle" x="939.5" y="-839.8" font-family="Courier,monospace" font-size="14.00">是单指针</text>
</g>
<!-- error_return -->
<g id="node17" class="node">
<title>error_return</title>
<polygon fill="#ffdddd" stroke="black" points="877.5,-109 803.5,-109 803.5,-73 877.5,-73 877.5,-109"/>
<text text-anchor="middle" x="840.5" y="-87.3" font-family="Courier,monospace" font-size="14.00">返回错误</text>
</g>
<!-- check_ptr_type&#45;&gt;error_return -->
<g id="edge4" class="edge">
<title>check_ptr_type&#45;&gt;error_return</title>
<path fill="none" stroke="black" d="M957.44,-868.85C962.98,-863.58 968.46,-857.47 972.5,-851 985.08,-830.85 988.5,-823.76 988.5,-800 988.5,-800 988.5,-800 988.5,-178 988.5,-130.58 931,-108.86 887.68,-99.23"/>
<polygon fill="black" stroke="black" points="888.35,-95.79 877.85,-97.19 886.93,-102.65 888.35,-95.79"/>
<text text-anchor="middle" x="1017.5" y="-499.8" font-family="Courier,monospace" font-size="14.00">非单指针</text>
</g>
<!-- resolve_field_name -->
<g id="node5" class="node">
<title>resolve_field_name</title>
<polygon fill="#f0f0f0" stroke="black" points="852.5,-729 716.5,-729 716.5,-691 852.5,-691 852.5,-729"/>
<text text-anchor="middle" x="784.5" y="-713.8" font-family="Courier,monospace" font-size="14.00">解析字段名</text>
<text text-anchor="middle" x="784.5" y="-698.8" font-family="Courier,monospace" font-size="14.00">获取field_index</text>
</g>
<!-- verify_parent_type&#45;&gt;resolve_field_name -->
<g id="edge5" class="edge">
<title>verify_parent_type&#45;&gt;resolve_field_name</title>
<path fill="none" stroke="black" d="M809.14,-779.88C801.18,-775.22 793.98,-769.36 788.5,-762 783.71,-755.56 781.8,-747.31 781.34,-739.33"/>
<polygon fill="black" stroke="black" points="784.84,-739.21 781.44,-729.17 777.84,-739.13 784.84,-739.21"/>
<text text-anchor="middle" x="838.5" y="-750.8" font-family="Courier,monospace" font-size="14.00">struct/union</text>
</g>
<!-- verify_parent_type&#45;&gt;error_return -->
<g id="edge6" class="edge">
<title>verify_parent_type&#45;&gt;error_return</title>
<path fill="none" stroke="black" d="M888.49,-779.97C894.6,-762.59 902.5,-735.39 902.5,-711 902.5,-711 902.5,-711 902.5,-178 902.5,-153.96 886.36,-132.06 870.55,-116.38"/>
<polygon fill="black" stroke="black" points="872.57,-113.48 862.88,-109.2 867.79,-118.59 872.57,-113.48"/>
<text text-anchor="middle" x="931.5" y="-455.3" font-family="Courier,monospace" font-size="14.00">其他类型</text>
</g>
<!-- check_comptime_field -->
<g id="node6" class="node">
<title>check_comptime_field</title>
<polygon fill="#f0f0f0" stroke="black" points="863.5,-654 695.5,-654 695.5,-618 863.5,-618 863.5,-654"/>
<text text-anchor="middle" x="779.5" y="-632.3" font-family="Courier,monospace" font-size="14.00">检查是否comptime字段</text>
</g>
<!-- resolve_field_name&#45;&gt;check_comptime_field -->
<g id="edge7" class="edge">
<title>resolve_field_name&#45;&gt;check_comptime_field</title>
<path fill="none" stroke="black" d="M783.24,-690.83C782.69,-682.89 782.03,-673.41 781.42,-664.63"/>
<polygon fill="black" stroke="black" points="784.89,-664.15 780.71,-654.42 777.91,-664.64 784.89,-664.15"/>
</g>
<!-- process_field_ptr -->
<g id="node7" class="node">
<title>process_field_ptr</title>
<polygon fill="#f0f0f0" stroke="black" points="632.5,-567 484.5,-567 484.5,-529 632.5,-529 632.5,-567"/>
<text text-anchor="middle" x="558.5" y="-551.8" font-family="Courier,monospace" font-size="14.00">处理field_ptr类型</text>
<text text-anchor="middle" x="558.5" y="-536.8" font-family="Courier,monospace" font-size="14.00">获取指针信息</text>
</g>
<!-- check_comptime_field&#45;&gt;process_field_ptr -->
<g id="edge8" class="edge">
<title>check_comptime_field&#45;&gt;process_field_ptr</title>
<path fill="none" stroke="black" d="M732.03,-617.85C716.81,-612.26 699.91,-605.96 684.5,-600 660.42,-590.7 633.92,-580.03 611.46,-570.87"/>
<polygon fill="black" stroke="black" points="612.68,-567.59 602.1,-567.04 610.03,-574.07 612.68,-567.59"/>
<text text-anchor="middle" x="725" y="-588.8" font-family="Courier,monospace" font-size="14.00">非comptime</text>
</g>
<!-- check_comptime_field&#45;&gt;error_return -->
<g id="edge9" class="edge">
<title>check_comptime_field&#45;&gt;error_return</title>
<path fill="none" stroke="black" d="M779.5,-617.87C779.5,-600.51 779.5,-572.89 779.5,-549 779.5,-549 779.5,-549 779.5,-178 779.5,-154.09 795.38,-132.19 810.94,-116.47"/>
<polygon fill="black" stroke="black" points="813.66,-118.71 818.48,-109.27 808.83,-113.65 813.66,-118.71"/>
<text text-anchor="middle" x="827" y="-366.3" font-family="Courier,monospace" font-size="14.00">comptime字段</text>
</g>
<!-- container_layout -->
<g id="node8" class="node">
<title>container_layout</title>
<polygon fill="#f0f0f0" stroke="black" points="279,-478 106,-478 106,-440 279,-440 279,-478"/>
<text text-anchor="middle" x="192.5" y="-462.8" font-family="Courier,monospace" font-size="14.00">根据容器布局类型处理:</text>
<text text-anchor="middle" x="192.5" y="-447.8" font-family="Courier,monospace" font-size="14.00">&#45;auto/extern/packed</text>
</g>
<!-- process_field_ptr&#45;&gt;container_layout -->
<g id="edge10" class="edge">
<title>process_field_ptr&#45;&gt;container_layout</title>
<path fill="none" stroke="black" d="M484.43,-529.39C424.75,-515.21 340.77,-495.24 278.19,-480.37"/>
<polygon fill="black" stroke="black" points="278.88,-476.94 268.34,-478.03 277.26,-483.75 278.88,-476.94"/>
</g>
<!-- generate_ptr_types -->
<g id="node9" class="node">
<title>generate_ptr_types</title>
<polygon fill="#f0f0f0" stroke="black" points="368.5,-389 166.5,-389 166.5,-351 368.5,-351 368.5,-389"/>
<text text-anchor="middle" x="267.5" y="-373.8" font-family="Courier,monospace" font-size="14.00">生成actual_field_ptr_ty</text>
<text text-anchor="middle" x="267.5" y="-358.8" font-family="Courier,monospace" font-size="14.00">和actual_parent_ptr_ty</text>
</g>
<!-- container_layout&#45;&gt;generate_ptr_types -->
<g id="edge11" class="edge">
<title>container_layout&#45;&gt;generate_ptr_types</title>
<path fill="none" stroke="black" d="M208.04,-439.97C218.8,-427.49 233.28,-410.69 245.26,-396.79"/>
<polygon fill="black" stroke="black" points="248.1,-398.86 251.98,-389 242.8,-394.29 248.1,-398.86"/>
<text text-anchor="middle" x="264.5" y="-410.8" font-family="Courier,monospace" font-size="14.00">auto布局</text>
</g>
<!-- handle_extern_struct -->
<g id="node11" class="node">
<title>handle_extern_struct</title>
<polygon fill="#f0f0f0" stroke="black" points="292,-198 155,-198 155,-160 292,-160 292,-198"/>
<text text-anchor="middle" x="223.5" y="-182.8" font-family="Courier,monospace" font-size="14.00">处理extern结构体</text>
<text text-anchor="middle" x="223.5" y="-167.8" font-family="Courier,monospace" font-size="14.00">计算字节偏移</text>
</g>
<!-- container_layout&#45;&gt;handle_extern_struct -->
<g id="edge12" class="edge">
<title>container_layout&#45;&gt;handle_extern_struct</title>
<path fill="none" stroke="black" d="M177.67,-439.88C144.6,-397.13 71.59,-288.2 122.5,-216 126.08,-210.92 134.67,-206.04 145.41,-201.6"/>
<polygon fill="black" stroke="black" points="146.79,-204.82 154.88,-197.98 144.29,-198.28 146.79,-204.82"/>
<text text-anchor="middle" x="156" y="-321.8" font-family="Courier,monospace" font-size="14.00">extern布局</text>
</g>
<!-- handle_packed_struct -->
<g id="node12" class="node">
<title>handle_packed_struct</title>
<polygon fill="#f0f0f0" stroke="black" points="137,-198 0,-198 0,-160 137,-160 137,-198"/>
<text text-anchor="middle" x="68.5" y="-182.8" font-family="Courier,monospace" font-size="14.00">处理packed结构体</text>
<text text-anchor="middle" x="68.5" y="-167.8" font-family="Courier,monospace" font-size="14.00">计算位偏移</text>
</g>
<!-- container_layout&#45;&gt;handle_packed_struct -->
<g id="edge13" class="edge">
<title>container_layout&#45;&gt;handle_packed_struct</title>
<path fill="none" stroke="black" d="M151.2,-439.85C111.75,-419.98 54.66,-384.01 29.5,-333 9.08,-291.61 32.39,-238.48 50.74,-206.95"/>
<polygon fill="black" stroke="black" points="53.81,-208.65 55.99,-198.28 47.82,-205.03 53.81,-208.65"/>
<text text-anchor="middle" x="69" y="-321.8" font-family="Courier,monospace" font-size="14.00">packed布局</text>
</g>
<!-- resolve_value -->
<g id="node10" class="node">
<title>resolve_value</title>
<polygon fill="#f0f0f0" stroke="black" points="445.5,-300 269.5,-300 269.5,-264 445.5,-264 445.5,-300"/>
<text text-anchor="middle" x="357.5" y="-278.3" font-family="Courier,monospace" font-size="14.00">尝试解析field_ptr的值</text>
</g>
<!-- generate_ptr_types&#45;&gt;resolve_value -->
<g id="edge14" class="edge">
<title>generate_ptr_types&#45;&gt;resolve_value</title>
<path fill="none" stroke="black" d="M286.59,-350.76C299.94,-338 317.92,-320.82 332.44,-306.95"/>
<polygon fill="black" stroke="black" points="334.85,-309.48 339.67,-300.04 330.02,-304.42 334.85,-309.48"/>
</g>
<!-- resolve_value&#45;&gt;handle_extern_struct -->
<g id="edge15" class="edge">
<title>resolve_value&#45;&gt;handle_extern_struct</title>
<path fill="none" stroke="black" d="M310.18,-263.93C300.38,-259.07 290.59,-253.12 282.5,-246 270.65,-235.58 273.68,-228.06 263.5,-216 260.35,-212.27 256.82,-208.56 253.2,-205.03"/>
<polygon fill="black" stroke="black" points="255.42,-202.31 245.72,-198.05 250.64,-207.43 255.42,-202.31"/>
<text text-anchor="middle" x="343" y="-234.8" font-family="Courier,monospace" font-size="14.00">值存在</text>
<text text-anchor="middle" x="343" y="-219.8" font-family="Courier,monospace" font-size="14.00">且为extern结构体</text>
</g>
<!-- resolve_value&#45;&gt;handle_packed_struct -->
<g id="edge16" class="edge">
<title>resolve_value&#45;&gt;handle_packed_struct</title>
<path fill="none" stroke="black" d="M269.4,-278.81C227.93,-274.87 178.83,-265.85 138.5,-246 119.46,-236.63 102.07,-220.3 89.39,-206.23"/>
<polygon fill="black" stroke="black" points="91.69,-203.54 82.49,-198.28 86.4,-208.13 91.69,-203.54"/>
<text text-anchor="middle" x="199" y="-234.8" font-family="Courier,monospace" font-size="14.00">值存在</text>
<text text-anchor="middle" x="199" y="-219.8" font-family="Courier,monospace" font-size="14.00">且为packed结构体</text>
</g>
<!-- handle_union -->
<g id="node13" class="node">
<title>handle_union</title>
<polygon fill="#f0f0f0" stroke="black" points="425,-198 310,-198 310,-160 425,-160 425,-198"/>
<text text-anchor="middle" x="367.5" y="-182.8" font-family="Courier,monospace" font-size="14.00">处理union类型</text>
<text text-anchor="middle" x="367.5" y="-167.8" font-family="Courier,monospace" font-size="14.00">指针强制转换</text>
</g>
<!-- resolve_value&#45;&gt;handle_union -->
<g id="edge17" class="edge">
<title>resolve_value&#45;&gt;handle_union</title>
<path fill="none" stroke="black" d="M391.64,-263.82C398.02,-258.97 403.83,-253.05 407.5,-246 413.66,-234.17 412.92,-228.18 407.5,-216 405.88,-212.36 403.69,-208.93 401.16,-205.75"/>
<polygon fill="black" stroke="black" points="403.68,-203.32 394.32,-198.36 398.54,-208.07 403.68,-203.32"/>
<text text-anchor="middle" x="446.5" y="-234.8" font-family="Courier,monospace" font-size="14.00">值存在</text>
<text text-anchor="middle" x="446.5" y="-219.8" font-family="Courier,monospace" font-size="14.00">且为union</text>
</g>
<!-- check_ptr_base -->
<g id="node14" class="node">
<title>check_ptr_base</title>
<polygon fill="#f0f0f0" stroke="black" points="751,-197 578,-197 578,-161 751,-161 751,-197"/>
<text text-anchor="middle" x="664.5" y="-175.3" font-family="Courier,monospace" font-size="14.00">验证指针是否基于父结构</text>
</g>
<!-- resolve_value&#45;&gt;check_ptr_base -->
<g id="edge18" class="edge">
<title>resolve_value&#45;&gt;check_ptr_base</title>
<path fill="none" stroke="black" d="M445.67,-273.67C482.38,-268.65 524.9,-260.19 561.5,-246 588.24,-235.63 615.42,-217.84 635.15,-203.34"/>
<polygon fill="black" stroke="black" points="637.49,-205.96 643.39,-197.16 633.29,-200.36 637.49,-205.96"/>
<text text-anchor="middle" x="659.5" y="-234.8" font-family="Courier,monospace" font-size="14.00">值存在</text>
<text text-anchor="middle" x="659.5" y="-219.8" font-family="Courier,monospace" font-size="14.00">基础指针验证</text>
</g>
<!-- runtime_inst -->
<g id="node15" class="node">
<title>runtime_inst</title>
<polygon fill="#f0f0f0" stroke="black" points="559.5,-197 443.5,-197 443.5,-161 559.5,-161 559.5,-197"/>
<text text-anchor="middle" x="501.5" y="-175.3" font-family="Courier,monospace" font-size="14.00">生成运行时指令</text>
</g>
<!-- resolve_value&#45;&gt;runtime_inst -->
<g id="edge19" class="edge">
<title>resolve_value&#45;&gt;runtime_inst</title>
<path fill="none" stroke="black" d="M445.54,-270.28C460.44,-264.97 474.58,-257.24 485.5,-246 495.42,-235.79 499.54,-220.53 501.13,-207.26"/>
<polygon fill="black" stroke="black" points="504.62,-207.41 501.92,-197.17 497.65,-206.87 504.62,-207.41"/>
<text text-anchor="middle" x="528.5" y="-227.3" font-family="Courier,monospace" font-size="14.00">值不存在</text>
</g>
<!-- ptr_cast -->
<g id="node16" class="node">
<title>ptr_cast</title>
<polygon fill="#f0f0f0" stroke="black" points="449.5,-109 285.5,-109 285.5,-73 449.5,-73 449.5,-109"/>
<text text-anchor="middle" x="367.5" y="-87.3" font-family="Courier,monospace" font-size="14.00">执行ptrCastFull操作</text>
</g>
<!-- handle_extern_struct&#45;&gt;ptr_cast -->
<g id="edge20" class="edge">
<title>handle_extern_struct&#45;&gt;ptr_cast</title>
<path fill="none" stroke="black" d="M253.69,-159.97C275.92,-146.69 306.29,-128.56 330.07,-114.36"/>
<polygon fill="black" stroke="black" points="332.03,-117.26 338.82,-109.13 328.44,-111.25 332.03,-117.26"/>
</g>
<!-- handle_packed_struct&#45;&gt;ptr_cast -->
<g id="edge21" class="edge">
<title>handle_packed_struct&#45;&gt;ptr_cast</title>
<path fill="none" stroke="black" d="M131.18,-159.97C180.06,-145.91 247.9,-126.4 298.36,-111.89"/>
<polygon fill="black" stroke="black" points="299.57,-115.18 308.21,-109.05 297.63,-108.45 299.57,-115.18"/>
</g>
<!-- handle_union&#45;&gt;ptr_cast -->
<g id="edge22" class="edge">
<title>handle_union&#45;&gt;ptr_cast</title>
<path fill="none" stroke="black" d="M367.5,-159.76C367.5,-147.93 367.5,-132.32 367.5,-119.05"/>
<polygon fill="black" stroke="black" points="371,-119.04 367.5,-109.04 364,-119.04 371,-119.04"/>
</g>
<!-- check_ptr_base&#45;&gt;ptr_cast -->
<g id="edge23" class="edge">
<title>check_ptr_base&#45;&gt;ptr_cast</title>
<path fill="none" stroke="black" d="M605.47,-160.91C556.68,-146.78 487.34,-126.7 436.09,-111.86"/>
<polygon fill="black" stroke="black" points="437,-108.48 426.42,-109.06 435.05,-115.2 437,-108.48"/>
<text text-anchor="middle" x="562.5" y="-130.8" font-family="Courier,monospace" font-size="14.00">验证通过</text>
</g>
<!-- check_ptr_base&#45;&gt;error_return -->
<g id="edge24" class="edge">
<title>check_ptr_base&#45;&gt;error_return</title>
<path fill="none" stroke="black" d="M674.88,-160.93C682.55,-149.69 693.99,-135.54 707.5,-127 733.36,-110.65 766.65,-101.9 793.46,-97.24"/>
<polygon fill="black" stroke="black" points="794.06,-100.68 803.38,-95.64 792.95,-93.77 794.06,-100.68"/>
<text text-anchor="middle" x="736.5" y="-130.8" font-family="Courier,monospace" font-size="14.00">验证失败</text>
</g>
<!-- runtime_inst&#45;&gt;ptr_cast -->
<g id="edge25" class="edge">
<title>runtime_inst&#45;&gt;ptr_cast</title>
<path fill="none" stroke="black" d="M474.71,-160.8C454.07,-147.56 425.37,-129.14 402.85,-114.69"/>
<polygon fill="black" stroke="black" points="404.55,-111.62 394.25,-109.17 400.77,-117.51 404.55,-111.62"/>
</g>
<!-- success_return -->
<g id="node18" class="node">
<title>success_return</title>
<polygon fill="#ddffdd" stroke="black" points="404.5,-36 330.5,-36 330.5,0 404.5,0 404.5,-36"/>
<text text-anchor="middle" x="367.5" y="-14.3" font-family="Courier,monospace" font-size="14.00">返回结果</text>
</g>
<!-- ptr_cast&#45;&gt;success_return -->
<g id="edge26" class="edge">
<title>ptr_cast&#45;&gt;success_return</title>
<path fill="none" stroke="black" d="M367.5,-72.81C367.5,-64.79 367.5,-55.05 367.5,-46.07"/>
<polygon fill="black" stroke="black" points="371,-46.03 367.5,-36.03 364,-46.03 371,-46.03"/>
</g>
</g>
</svg>
