<?xml version="1.0" encoding="UTF-8" standalone="no"?>
<!DOCTYPE svg PUBLIC "-//W3C//DTD SVG 1.1//EN"
 "http://www.w3.org/Graphics/SVG/1.1/DTD/svg11.dtd">
<!-- Generated by graphviz version 2.43.0 (0)
 -->
<!-- Title: flowchart Pages: 1 -->
<svg width="648pt" height="2079pt"
 viewBox="0.00 0.00 647.50 2079.00" xmlns="http://www.w3.org/2000/svg" xmlns:xlink="http://www.w3.org/1999/xlink">
<g id="graph0" class="graph" transform="scale(1 1) rotate(0) translate(4 2075)">
<title>flowchart</title>
<polygon fill="white" stroke="transparent" points="-4,4 -4,-2075 643.5,-2075 643.5,4 -4,4"/>
<!-- start -->
<g id="node1" class="node">
<title>start</title>
<path fill="none" stroke="black" d="M586.5,-2071C586.5,-2071 491.5,-2071 491.5,-2071 485.5,-2071 479.5,-2065 479.5,-2059 479.5,-2059 479.5,-2047 479.5,-2047 479.5,-2041 485.5,-2035 491.5,-2035 491.5,-2035 586.5,-2035 586.5,-2035 592.5,-2035 598.5,-2041 598.5,-2047 598.5,-2047 598.5,-2059 598.5,-2059 598.5,-2065 592.5,-2071 586.5,-2071"/>
<text text-anchor="middle" x="539" y="-2049.3" font-family="Helvetica,sans-Serif" font-size="14.00">开始 reifyEnum</text>
</g>
<!-- init_vars -->
<g id="node2" class="node">
<title>init_vars</title>
<path fill="none" stroke="black" d="M627.5,-1998C627.5,-1998 450.5,-1998 450.5,-1998 444.5,-1998 438.5,-1992 438.5,-1986 438.5,-1986 438.5,-1974 438.5,-1974 438.5,-1968 444.5,-1962 450.5,-1962 450.5,-1962 627.5,-1962 627.5,-1962 633.5,-1962 639.5,-1968 639.5,-1974 639.5,-1974 639.5,-1986 639.5,-1986 639.5,-1992 633.5,-1998 627.5,-1998"/>
<text text-anchor="middle" x="539" y="-1976.3" font-family="Helvetica,sans-Serif" font-size="14.00">初始化变量: pt, zcu, gpa, ip</text>
</g>
<!-- start&#45;&gt;init_vars -->
<g id="edge1" class="edge">
<title>start&#45;&gt;init_vars</title>
<path fill="none" stroke="black" d="M539,-2034.81C539,-2026.79 539,-2017.05 539,-2008.07"/>
<polygon fill="black" stroke="black" points="542.5,-2008.03 539,-1998.03 535.5,-2008.03 542.5,-2008.03"/>
</g>
<!-- calc_fields_len -->
<g id="node3" class="node">
<title>calc_fields_len</title>
<path fill="none" stroke="black" d="M581,-1925C581,-1925 335,-1925 335,-1925 329,-1925 323,-1919 323,-1913 323,-1913 323,-1901 323,-1901 323,-1895 329,-1889 335,-1889 335,-1889 581,-1889 581,-1889 587,-1889 593,-1895 593,-1901 593,-1901 593,-1913 593,-1913 593,-1919 587,-1925 581,-1925"/>
<text text-anchor="middle" x="458" y="-1903.3" font-family="Helvetica,sans-Serif" font-size="14.00">计算 fields_len = arrayLen(fields_val)</text>
</g>
<!-- init_vars&#45;&gt;calc_fields_len -->
<g id="edge2" class="edge">
<title>init_vars&#45;&gt;calc_fields_len</title>
<path fill="none" stroke="black" d="M519.39,-1961.81C509.14,-1952.83 496.44,-1941.69 485.25,-1931.89"/>
<polygon fill="black" stroke="black" points="487.25,-1928.99 477.43,-1925.03 482.64,-1934.25 487.25,-1928.99"/>
</g>
<!-- error_handling -->
<g id="node30" class="node">
<title>error_handling</title>
<path fill="none" stroke="black" d="M329.22,-120.73C329.22,-120.73 259.27,-107.27 259.27,-107.27 253.38,-106.13 253.38,-103.87 259.27,-102.73 259.27,-102.73 329.22,-89.27 329.22,-89.27 335.11,-88.13 346.89,-88.13 352.78,-89.27 352.78,-89.27 422.73,-102.73 422.73,-102.73 428.62,-103.87 428.62,-106.13 422.73,-107.27 422.73,-107.27 352.78,-120.73 352.78,-120.73 346.89,-121.87 335.11,-121.87 329.22,-120.73"/>
<text text-anchor="middle" x="341" y="-101.3" font-family="Helvetica,sans-Serif" font-size="14.00">错误处理路径</text>
</g>
<!-- init_vars&#45;&gt;error_handling -->
<g id="edge36" class="edge">
<title>init_vars&#45;&gt;error_handling</title>
<path fill="none" stroke="red" stroke-dasharray="5,2" d="M579.52,-1961.85C600.18,-1950.13 621,-1932.29 621,-1908 621,-1908 621,-1908 621,-191 621,-157.96 595.8,-155.25 566,-141 524.73,-121.26 474.79,-112.22 432.46,-108.23"/>
<polygon fill="red" stroke="red" points="432.7,-104.74 422.43,-107.37 432.1,-111.71 432.7,-104.74"/>
</g>
<!-- init_hasher -->
<g id="node4" class="node">
<title>init_hasher</title>
<path fill="none" stroke="black" d="M502.5,-1852C502.5,-1852 361.5,-1852 361.5,-1852 355.5,-1852 349.5,-1846 349.5,-1840 349.5,-1840 349.5,-1828 349.5,-1828 349.5,-1822 355.5,-1816 361.5,-1816 361.5,-1816 502.5,-1816 502.5,-1816 508.5,-1816 514.5,-1822 514.5,-1828 514.5,-1828 514.5,-1840 514.5,-1840 514.5,-1846 508.5,-1852 502.5,-1852"/>
<text text-anchor="middle" x="432" y="-1830.3" font-family="Helvetica,sans-Serif" font-size="14.00">初始化 Wyhash 哈希器</text>
</g>
<!-- calc_fields_len&#45;&gt;init_hasher -->
<g id="edge3" class="edge">
<title>calc_fields_len&#45;&gt;init_hasher</title>
<path fill="none" stroke="black" d="M451.71,-1888.81C448.7,-1880.62 445.05,-1870.62 441.7,-1861.48"/>
<polygon fill="black" stroke="black" points="444.96,-1860.22 438.24,-1852.03 438.39,-1862.62 444.96,-1860.22"/>
</g>
<!-- calc_fields_len&#45;&gt;error_handling -->
<g id="edge37" class="edge">
<title>calc_fields_len&#45;&gt;error_handling</title>
<path fill="none" stroke="red" stroke-dasharray="5,2" d="M535.74,-1888.98C561.16,-1878.49 583,-1861.7 583,-1835 583,-1835 583,-1835 583,-191 583,-161.69 565.47,-155.5 540,-141 507.11,-122.29 466.61,-113.13 430.75,-108.8"/>
<polygon fill="red" stroke="red" points="431.1,-105.32 420.77,-107.7 430.33,-112.27 431.1,-105.32"/>
</g>
<!-- hash_core_params -->
<g id="node5" class="node">
<title>hash_core_params</title>
<path fill="none" stroke="black" d="M541.5,-1779C541.5,-1779 234.5,-1779 234.5,-1779 228.5,-1779 222.5,-1773 222.5,-1767 222.5,-1767 222.5,-1755 222.5,-1755 222.5,-1749 228.5,-1743 234.5,-1743 234.5,-1743 541.5,-1743 541.5,-1743 547.5,-1743 553.5,-1749 553.5,-1755 553.5,-1755 553.5,-1767 553.5,-1767 553.5,-1773 547.5,-1779 541.5,-1779"/>
<text text-anchor="middle" x="388" y="-1757.3" font-family="Helvetica,sans-Serif" font-size="14.00">哈希核心参数: tag_ty, is_exhaustive, fields_len</text>
</g>
<!-- init_hasher&#45;&gt;hash_core_params -->
<g id="edge4" class="edge">
<title>init_hasher&#45;&gt;hash_core_params</title>
<path fill="none" stroke="black" d="M421.35,-1815.81C416.11,-1807.35 409.68,-1796.98 403.87,-1787.61"/>
<polygon fill="black" stroke="black" points="406.8,-1785.69 398.55,-1779.03 400.85,-1789.37 406.8,-1785.69"/>
</g>
<!-- loop1_start -->
<g id="node6" class="node">
<title>loop1_start</title>
<path fill="none" stroke="black" d="M467,-1706C467,-1706 303,-1706 303,-1706 297,-1706 291,-1700 291,-1694 291,-1694 291,-1682 291,-1682 291,-1676 297,-1670 303,-1670 303,-1670 467,-1670 467,-1670 473,-1670 479,-1676 479,-1682 479,-1682 479,-1694 479,-1694 479,-1700 473,-1706 467,-1706"/>
<text text-anchor="middle" x="385" y="-1684.3" font-family="Helvetica,sans-Serif" font-size="14.00">遍历所有字段 (第一次循环)</text>
</g>
<!-- hash_core_params&#45;&gt;loop1_start -->
<g id="edge5" class="edge">
<title>hash_core_params&#45;&gt;loop1_start</title>
<path fill="none" stroke="black" d="M387.27,-1742.81C386.93,-1734.79 386.52,-1725.05 386.14,-1716.07"/>
<polygon fill="black" stroke="black" points="389.64,-1715.87 385.72,-1706.03 382.64,-1716.17 389.64,-1715.87"/>
</g>
<!-- get_field_info -->
<g id="node7" class="node">
<title>get_field_info</title>
<path fill="none" stroke="black" d="M428.5,-1633C428.5,-1633 341.5,-1633 341.5,-1633 335.5,-1633 329.5,-1627 329.5,-1621 329.5,-1621 329.5,-1609 329.5,-1609 329.5,-1603 335.5,-1597 341.5,-1597 341.5,-1597 428.5,-1597 428.5,-1597 434.5,-1597 440.5,-1603 440.5,-1609 440.5,-1609 440.5,-1621 440.5,-1621 440.5,-1627 434.5,-1633 428.5,-1633"/>
<text text-anchor="middle" x="385" y="-1611.3" font-family="Helvetica,sans-Serif" font-size="14.00">获取 field_info</text>
</g>
<!-- loop1_start&#45;&gt;get_field_info -->
<g id="edge6" class="edge">
<title>loop1_start&#45;&gt;get_field_info</title>
<path fill="none" stroke="black" d="M385,-1669.81C385,-1661.79 385,-1652.05 385,-1643.07"/>
<polygon fill="black" stroke="black" points="388.5,-1643.03 385,-1633.03 381.5,-1643.03 388.5,-1643.03"/>
</g>
<!-- get_field_name_val -->
<g id="node8" class="node">
<title>get_field_name_val</title>
<path fill="none" stroke="black" d="M540.5,-1560C540.5,-1560 413.5,-1560 413.5,-1560 407.5,-1560 401.5,-1554 401.5,-1548 401.5,-1548 401.5,-1536 401.5,-1536 401.5,-1530 407.5,-1524 413.5,-1524 413.5,-1524 540.5,-1524 540.5,-1524 546.5,-1524 552.5,-1530 552.5,-1536 552.5,-1536 552.5,-1548 552.5,-1548 552.5,-1554 546.5,-1560 540.5,-1560"/>
<text text-anchor="middle" x="477" y="-1538.3" font-family="Helvetica,sans-Serif" font-size="14.00">获取 field_name_val</text>
</g>
<!-- get_field_info&#45;&gt;get_field_name_val -->
<g id="edge7" class="edge">
<title>get_field_info&#45;&gt;get_field_name_val</title>
<path fill="none" stroke="black" d="M407.27,-1596.81C419.14,-1587.66 433.9,-1576.26 446.79,-1566.32"/>
<polygon fill="black" stroke="black" points="449.16,-1568.91 454.93,-1560.03 444.88,-1563.37 449.16,-1568.91"/>
</g>
<!-- get_field_info&#45;&gt;error_handling -->
<g id="edge38" class="edge">
<title>get_field_info&#45;&gt;error_handling</title>
<path fill="none" stroke="red" stroke-dasharray="5,2" d="M380.46,-1596.92C377.07,-1582.62 373,-1561.63 373,-1543 373,-1543 373,-1543 373,-1418 373,-1210 498,-1175 498,-967 498,-967 498,-967 498,-191 498,-146.29 448.14,-124.97 404.62,-114.89"/>
<polygon fill="red" stroke="red" points="405.1,-111.41 394.59,-112.73 403.63,-118.26 405.1,-111.41"/>
</g>
<!-- resolve_field_value -->
<g id="node9" class="node">
<title>resolve_field_value</title>
<path fill="none" stroke="black" d="M539.5,-1473C539.5,-1473 414.5,-1473 414.5,-1473 408.5,-1473 402.5,-1467 402.5,-1461 402.5,-1461 402.5,-1449 402.5,-1449 402.5,-1443 408.5,-1437 414.5,-1437 414.5,-1437 539.5,-1437 539.5,-1437 545.5,-1437 551.5,-1443 551.5,-1449 551.5,-1449 551.5,-1461 551.5,-1461 551.5,-1467 545.5,-1473 539.5,-1473"/>
<text text-anchor="middle" x="477" y="-1451.3" font-family="Helvetica,sans-Serif" font-size="14.00">解析 field_value_val</text>
</g>
<!-- get_field_name_val&#45;&gt;resolve_field_value -->
<g id="edge8" class="edge">
<title>get_field_name_val&#45;&gt;resolve_field_value</title>
<path fill="none" stroke="black" d="M477,-1523.8C477,-1512.16 477,-1496.55 477,-1483.24"/>
<polygon fill="black" stroke="black" points="480.5,-1483.18 477,-1473.18 473.5,-1483.18 480.5,-1483.18"/>
</g>
<!-- hash_field_data -->
<g id="node10" class="node">
<title>hash_field_data</title>
<path fill="none" stroke="black" d="M505,-1400C505,-1400 413,-1400 413,-1400 407,-1400 401,-1394 401,-1388 401,-1388 401,-1376 401,-1376 401,-1370 407,-1364 413,-1364 413,-1364 505,-1364 505,-1364 511,-1364 517,-1370 517,-1376 517,-1376 517,-1388 517,-1388 517,-1394 511,-1400 505,-1400"/>
<text text-anchor="middle" x="459" y="-1378.3" font-family="Helvetica,sans-Serif" font-size="14.00">哈希字段名和值</text>
</g>
<!-- resolve_field_value&#45;&gt;hash_field_data -->
<g id="edge9" class="edge">
<title>resolve_field_value&#45;&gt;hash_field_data</title>
<path fill="none" stroke="black" d="M472.64,-1436.81C470.59,-1428.7 468.09,-1418.84 465.79,-1409.78"/>
<polygon fill="black" stroke="black" points="469.17,-1408.86 463.32,-1400.03 462.38,-1410.58 469.17,-1408.86"/>
</g>
<!-- resolve_field_value&#45;&gt;error_handling -->
<g id="edge39" class="edge">
<title>resolve_field_value&#45;&gt;error_handling</title>
<path fill="none" stroke="red" stroke-dasharray="5,2" d="M508.21,-1436.85C526.09,-1424.53 545,-1406.04 545,-1383 545,-1383 545,-1383 545,-191 545,-137.18 483.75,-116.82 428.38,-109.41"/>
<polygon fill="red" stroke="red" points="428.47,-105.9 418.12,-108.17 427.63,-112.85 428.47,-105.9"/>
</g>
<!-- loop1_end -->
<g id="node11" class="node">
<title>loop1_end</title>
<path fill="none" stroke="black" d="M332,-1327C332,-1327 268,-1327 268,-1327 262,-1327 256,-1321 256,-1315 256,-1315 256,-1303 256,-1303 256,-1297 262,-1291 268,-1291 268,-1291 332,-1291 332,-1291 338,-1291 344,-1297 344,-1303 344,-1303 344,-1315 344,-1315 344,-1321 338,-1327 332,-1327"/>
<text text-anchor="middle" x="300" y="-1305.3" font-family="Helvetica,sans-Serif" font-size="14.00">循环结束？</text>
</g>
<!-- hash_field_data&#45;&gt;loop1_end -->
<g id="edge10" class="edge">
<title>hash_field_data&#45;&gt;loop1_end</title>
<path fill="none" stroke="black" d="M420.92,-1363.99C398.95,-1354.19 371.14,-1341.77 347.72,-1331.31"/>
<polygon fill="black" stroke="black" points="348.88,-1328 338.32,-1327.11 346.03,-1334.39 348.88,-1328"/>
</g>
<!-- loop1_end&#45;&gt;loop1_start -->
<g id="edge11" class="edge">
<title>loop1_end&#45;&gt;loop1_start</title>
<path fill="none" stroke="black" d="M300,-1327.22C300,-1341.59 300,-1362.63 300,-1381 300,-1616 300,-1616 300,-1616 300,-1637.15 315.69,-1653.23 333.59,-1664.7"/>
<polygon fill="black" stroke="black" points="332.11,-1667.89 342.5,-1669.96 335.67,-1661.86 332.11,-1667.89"/>
<text text-anchor="middle" x="329" y="-1494.8" font-family="Helvetica,sans-Serif" font-size="14.00">继续循环</text>
</g>
<!-- tracked_inst -->
<g id="node12" class="node">
<title>tracked_inst</title>
<path fill="none" stroke="black" d="M371,-1254C371,-1254 203,-1254 203,-1254 197,-1254 191,-1248 191,-1242 191,-1242 191,-1230 191,-1230 191,-1224 197,-1218 203,-1218 203,-1218 371,-1218 371,-1218 377,-1218 383,-1224 383,-1230 383,-1230 383,-1242 383,-1242 383,-1248 377,-1254 371,-1254"/>
<text text-anchor="middle" x="287" y="-1232.3" font-family="Helvetica,sans-Serif" font-size="14.00">跟踪 ZIR 指令 tracked_inst</text>
</g>
<!-- loop1_end&#45;&gt;tracked_inst -->
<g id="edge12" class="edge">
<title>loop1_end&#45;&gt;tracked_inst</title>
<path fill="none" stroke="black" d="M296.85,-1290.81C295.38,-1282.79 293.6,-1273.05 291.96,-1264.07"/>
<polygon fill="black" stroke="black" points="295.36,-1263.23 290.12,-1254.03 288.48,-1264.5 295.36,-1263.23"/>
</g>
<!-- get_enum_type -->
<g id="node13" class="node">
<title>get_enum_type</title>
<path fill="none" stroke="black" d="M391,-1181C391,-1181 159,-1181 159,-1181 153,-1181 147,-1175 147,-1169 147,-1169 147,-1157 147,-1157 147,-1151 153,-1145 159,-1145 159,-1145 391,-1145 391,-1145 397,-1145 403,-1151 403,-1157 403,-1157 403,-1169 403,-1169 403,-1175 397,-1181 391,-1181"/>
<text text-anchor="middle" x="275" y="-1159.3" font-family="Helvetica,sans-Serif" font-size="14.00">尝试获取枚举类型 ip.getEnumType()</text>
</g>
<!-- tracked_inst&#45;&gt;get_enum_type -->
<g id="edge13" class="edge">
<title>tracked_inst&#45;&gt;get_enum_type</title>
<path fill="none" stroke="black" d="M284.1,-1217.81C282.74,-1209.79 281.09,-1200.05 279.58,-1191.07"/>
<polygon fill="black" stroke="black" points="283,-1190.31 277.88,-1181.03 276.09,-1191.47 283,-1190.31"/>
</g>
<!-- check_existing -->
<g id="node14" class="node">
<title>check_existing</title>
<path fill="none" stroke="black" d="M328.5,-1108C328.5,-1108 221.5,-1108 221.5,-1108 215.5,-1108 209.5,-1102 209.5,-1096 209.5,-1096 209.5,-1084 209.5,-1084 209.5,-1078 215.5,-1072 221.5,-1072 221.5,-1072 328.5,-1072 328.5,-1072 334.5,-1072 340.5,-1078 340.5,-1084 340.5,-1084 340.5,-1096 340.5,-1096 340.5,-1102 334.5,-1108 328.5,-1108"/>
<text text-anchor="middle" x="275" y="-1086.3" font-family="Helvetica,sans-Serif" font-size="14.00">是否已存在类型？</text>
</g>
<!-- get_enum_type&#45;&gt;check_existing -->
<g id="edge14" class="edge">
<title>get_enum_type&#45;&gt;check_existing</title>
<path fill="none" stroke="black" d="M275,-1144.81C275,-1136.79 275,-1127.05 275,-1118.07"/>
<polygon fill="black" stroke="black" points="278.5,-1118.03 275,-1108.03 271.5,-1118.03 278.5,-1118.03"/>
</g>
<!-- get_enum_type&#45;&gt;error_handling -->
<g id="edge40" class="edge">
<title>get_enum_type&#45;&gt;error_handling</title>
<path fill="none" stroke="red" stroke-dasharray="5,2" d="M146.76,-1151.45C75.07,-1141.87 0,-1123.98 0,-1091 0,-1091 0,-1091 0,-191 0,-165.74 6.06,-155.12 27,-141 28.28,-140.14 182.59,-123.23 274.38,-113.23"/>
<polygon fill="red" stroke="red" points="274.87,-116.7 284.43,-112.14 274.11,-109.74 274.87,-116.7"/>
</g>
<!-- return_existing -->
<g id="node15" class="node">
<title>return_existing</title>
<path fill="none" stroke="black" d="M457.5,-1021C457.5,-1021 350.5,-1021 350.5,-1021 344.5,-1021 338.5,-1015 338.5,-1009 338.5,-1009 338.5,-997 338.5,-997 338.5,-991 344.5,-985 350.5,-985 350.5,-985 457.5,-985 457.5,-985 463.5,-985 469.5,-991 469.5,-997 469.5,-997 469.5,-1009 469.5,-1009 469.5,-1015 463.5,-1021 457.5,-1021"/>
<text text-anchor="middle" x="404" y="-999.3" font-family="Helvetica,sans-Serif" font-size="14.00">返回现有类型引用</text>
</g>
<!-- check_existing&#45;&gt;return_existing -->
<g id="edge15" class="edge">
<title>check_existing&#45;&gt;return_existing</title>
<path fill="none" stroke="black" d="M301.11,-1071.8C320.78,-1058.84 347.94,-1040.94 369.41,-1026.79"/>
<polygon fill="black" stroke="black" points="371.51,-1029.6 377.93,-1021.18 367.66,-1023.75 371.51,-1029.6"/>
<text text-anchor="middle" x="355.5" y="-1042.8" font-family="Helvetica,sans-Serif" font-size="14.00">是</text>
</g>
<!-- create_wip_ty -->
<g id="node16" class="node">
<title>create_wip_ty</title>
<path fill="none" stroke="black" d="M308.5,-1021C308.5,-1021 225.5,-1021 225.5,-1021 219.5,-1021 213.5,-1015 213.5,-1009 213.5,-1009 213.5,-997 213.5,-997 213.5,-991 219.5,-985 225.5,-985 225.5,-985 308.5,-985 308.5,-985 314.5,-985 320.5,-991 320.5,-997 320.5,-997 320.5,-1009 320.5,-1009 320.5,-1015 314.5,-1021 308.5,-1021"/>
<text text-anchor="middle" x="267" y="-999.3" font-family="Helvetica,sans-Serif" font-size="14.00">创建 WIP 类型</text>
</g>
<!-- check_existing&#45;&gt;create_wip_ty -->
<g id="edge16" class="edge">
<title>check_existing&#45;&gt;create_wip_ty</title>
<path fill="none" stroke="black" d="M273.38,-1071.8C272.29,-1060.16 270.82,-1044.55 269.56,-1031.24"/>
<polygon fill="black" stroke="black" points="273.04,-1030.8 268.62,-1021.18 266.07,-1031.46 273.04,-1030.8"/>
<text text-anchor="middle" x="279.5" y="-1042.8" font-family="Helvetica,sans-Serif" font-size="14.00">否</text>
</g>
<!-- check_tag_type -->
<g id="node17" class="node">
<title>check_tag_type</title>
<path fill="none" stroke="black" d="M371.5,-948C371.5,-948 200.5,-948 200.5,-948 194.5,-948 188.5,-942 188.5,-936 188.5,-936 188.5,-924 188.5,-924 188.5,-918 194.5,-912 200.5,-912 200.5,-912 371.5,-912 371.5,-912 377.5,-912 383.5,-918 383.5,-924 383.5,-924 383.5,-936 383.5,-936 383.5,-942 377.5,-948 371.5,-948"/>
<text text-anchor="middle" x="286" y="-926.3" font-family="Helvetica,sans-Serif" font-size="14.00">检查 tag_ty 是否为整数类型</text>
</g>
<!-- create_wip_ty&#45;&gt;check_tag_type -->
<g id="edge17" class="edge">
<title>create_wip_ty&#45;&gt;check_tag_type</title>
<path fill="none" stroke="black" d="M271.6,-984.81C273.77,-976.7 276.41,-966.84 278.83,-957.78"/>
<polygon fill="black" stroke="black" points="282.24,-958.59 281.44,-948.03 275.48,-956.78 282.24,-958.59"/>
</g>
<!-- set_typename -->
<g id="node18" class="node">
<title>set_typename</title>
<path fill="none" stroke="black" d="M339.5,-861C339.5,-861 232.5,-861 232.5,-861 226.5,-861 220.5,-855 220.5,-849 220.5,-849 220.5,-837 220.5,-837 220.5,-831 226.5,-825 232.5,-825 232.5,-825 339.5,-825 339.5,-825 345.5,-825 351.5,-831 351.5,-837 351.5,-837 351.5,-849 351.5,-849 351.5,-855 345.5,-861 339.5,-861"/>
<text text-anchor="middle" x="286" y="-839.3" font-family="Helvetica,sans-Serif" font-size="14.00">设置枚举类型名称</text>
</g>
<!-- check_tag_type&#45;&gt;set_typename -->
<g id="edge19" class="edge">
<title>check_tag_type&#45;&gt;set_typename</title>
<path fill="none" stroke="black" d="M286,-911.8C286,-900.16 286,-884.55 286,-871.24"/>
<polygon fill="black" stroke="black" points="289.5,-871.18 286,-861.18 282.5,-871.18 289.5,-871.18"/>
<text text-anchor="middle" x="315" y="-882.8" font-family="Helvetica,sans-Serif" font-size="14.00">通过检查</text>
</g>
<!-- check_tag_type&#45;&gt;error_handling -->
<g id="edge18" class="edge">
<title>check_tag_type&#45;&gt;error_handling</title>
<path fill="none" stroke="black" d="M337.74,-911.92C367.08,-898.63 398,-876.83 398,-844 398,-844 398,-844 398,-191 398,-166.11 380.93,-143.01 365.48,-127.19"/>
<polygon fill="black" stroke="black" points="367.72,-124.49 358.1,-120.04 362.84,-129.51 367.72,-124.49"/>
<text text-anchor="middle" x="434" y="-545.3" font-family="Helvetica,sans-Serif" font-size="14.00">非整数类型</text>
</g>
<!-- create_namespace -->
<g id="node19" class="node">
<title>create_namespace</title>
<path fill="none" stroke="black" d="M332,-788C332,-788 240,-788 240,-788 234,-788 228,-782 228,-776 228,-776 228,-764 228,-764 228,-758 234,-752 240,-752 240,-752 332,-752 332,-752 338,-752 344,-758 344,-764 344,-764 344,-776 344,-776 344,-782 338,-788 332,-788"/>
<text text-anchor="middle" x="286" y="-766.3" font-family="Helvetica,sans-Serif" font-size="14.00">创建新命名空间</text>
</g>
<!-- set_typename&#45;&gt;create_namespace -->
<g id="edge20" class="edge">
<title>set_typename&#45;&gt;create_namespace</title>
<path fill="none" stroke="black" d="M286,-824.81C286,-816.79 286,-807.05 286,-798.07"/>
<polygon fill="black" stroke="black" points="289.5,-798.03 286,-788.03 282.5,-798.03 289.5,-798.03"/>
</g>
<!-- prepare_wip_ty -->
<g id="node20" class="node">
<title>prepare_wip_ty</title>
<path fill="none" stroke="black" d="M312,-715C312,-715 144,-715 144,-715 138,-715 132,-709 132,-703 132,-703 132,-689 132,-689 132,-683 138,-677 144,-677 144,-677 312,-677 312,-677 318,-677 324,-683 324,-689 324,-689 324,-703 324,-703 324,-709 318,-715 312,-715"/>
<text text-anchor="middle" x="228" y="-699.8" font-family="Helvetica,sans-Serif" font-size="14.00">准备 WIP 类型</text>
<text text-anchor="middle" x="228" y="-684.8" font-family="Helvetica,sans-Serif" font-size="14.00">设置 tag_ty 和 namespace</text>
</g>
<!-- create_namespace&#45;&gt;prepare_wip_ty -->
<g id="edge21" class="edge">
<title>create_namespace&#45;&gt;prepare_wip_ty</title>
<path fill="none" stroke="black" d="M272.25,-751.94C265.36,-743.38 256.86,-732.83 249.16,-723.27"/>
<polygon fill="black" stroke="black" points="251.66,-720.79 242.66,-715.2 246.21,-725.18 251.66,-720.79"/>
</g>
<!-- create_namespace&#45;&gt;error_handling -->
<g id="edge41" class="edge">
<title>create_namespace&#45;&gt;error_handling</title>
<path fill="none" stroke="red" stroke-dasharray="5,2" d="M315.53,-751.85C333.1,-739.22 352,-720.23 352,-697 352,-697 352,-697 352,-585 352,-517.57 360,-500.93 360,-433.5 360,-433.5 360,-433.5 360,-191 360,-170.71 354.78,-148.35 349.82,-131.65"/>
<polygon fill="red" stroke="red" points="353.14,-130.55 346.8,-122.06 346.46,-132.65 353.14,-130.55"/>
</g>
<!-- loop2_start -->
<g id="node21" class="node">
<title>loop2_start</title>
<path fill="none" stroke="black" d="M310,-640C310,-640 146,-640 146,-640 140,-640 134,-634 134,-628 134,-628 134,-616 134,-616 134,-610 140,-604 146,-604 146,-604 310,-604 310,-604 316,-604 322,-610 322,-616 322,-616 322,-628 322,-628 322,-634 316,-640 310,-640"/>
<text text-anchor="middle" x="228" y="-618.3" font-family="Helvetica,sans-Serif" font-size="14.00">遍历所有字段 (第二次循环)</text>
</g>
<!-- prepare_wip_ty&#45;&gt;loop2_start -->
<g id="edge22" class="edge">
<title>prepare_wip_ty&#45;&gt;loop2_start</title>
<path fill="none" stroke="black" d="M228,-676.83C228,-668.89 228,-659.41 228,-650.63"/>
<polygon fill="black" stroke="black" points="231.5,-650.42 228,-640.42 224.5,-650.42 231.5,-650.42"/>
</g>
<!-- validate_field_value -->
<g id="node22" class="node">
<title>validate_field_value</title>
<path fill="none" stroke="black" d="M311.5,-567C311.5,-567 144.5,-567 144.5,-567 138.5,-567 132.5,-561 132.5,-555 132.5,-555 132.5,-543 132.5,-543 132.5,-537 138.5,-531 144.5,-531 144.5,-531 311.5,-531 311.5,-531 317.5,-531 323.5,-537 323.5,-543 323.5,-543 323.5,-555 323.5,-555 323.5,-561 317.5,-567 311.5,-567"/>
<text text-anchor="middle" x="228" y="-545.3" font-family="Helvetica,sans-Serif" font-size="14.00">验证字段值是否符合 tag_ty</text>
</g>
<!-- loop2_start&#45;&gt;validate_field_value -->
<g id="edge23" class="edge">
<title>loop2_start&#45;&gt;validate_field_value</title>
<path fill="none" stroke="black" d="M228,-603.81C228,-595.79 228,-586.05 228,-577.07"/>
<polygon fill="black" stroke="black" points="231.5,-577.03 228,-567.03 224.5,-577.03 231.5,-577.03"/>
</g>
<!-- check_value_fit -->
<g id="node23" class="node">
<title>check_value_fit</title>
<path fill="none" stroke="black" d="M281.5,-494C281.5,-494 174.5,-494 174.5,-494 168.5,-494 162.5,-488 162.5,-482 162.5,-482 162.5,-470 162.5,-470 162.5,-464 168.5,-458 174.5,-458 174.5,-458 281.5,-458 281.5,-458 287.5,-458 293.5,-464 293.5,-470 293.5,-470 293.5,-482 293.5,-482 293.5,-488 287.5,-494 281.5,-494"/>
<text text-anchor="middle" x="228" y="-472.3" font-family="Helvetica,sans-Serif" font-size="14.00">值是否适配类型？</text>
</g>
<!-- validate_field_value&#45;&gt;check_value_fit -->
<g id="edge24" class="edge">
<title>validate_field_value&#45;&gt;check_value_fit</title>
<path fill="none" stroke="black" d="M228,-530.81C228,-522.79 228,-513.05 228,-504.07"/>
<polygon fill="black" stroke="black" points="231.5,-504.03 228,-494.03 224.5,-504.03 231.5,-504.03"/>
</g>
<!-- validate_field_value&#45;&gt;error_handling -->
<g id="edge42" class="edge">
<title>validate_field_value&#45;&gt;error_handling</title>
<path fill="none" stroke="red" stroke-dasharray="5,2" d="M277.48,-530.93C300.12,-519.67 322,-502.26 322,-477 322,-477 322,-477 322,-191 322,-170.71 327.22,-148.35 332.18,-131.65"/>
<polygon fill="red" stroke="red" points="335.54,-132.65 335.2,-122.06 328.86,-130.55 335.54,-132.65"/>
</g>
<!-- check_duplicates -->
<g id="node24" class="node">
<title>check_duplicates</title>
<path fill="none" stroke="black" d="M210.5,-407C210.5,-407 99.5,-407 99.5,-407 93.5,-407 87.5,-401 87.5,-395 87.5,-395 87.5,-383 87.5,-383 87.5,-377 93.5,-371 99.5,-371 99.5,-371 210.5,-371 210.5,-371 216.5,-371 222.5,-377 222.5,-383 222.5,-383 222.5,-395 222.5,-395 222.5,-401 216.5,-407 210.5,-407"/>
<text text-anchor="middle" x="155" y="-385.3" font-family="Helvetica,sans-Serif" font-size="14.00">检查字段名/值重复</text>
</g>
<!-- check_value_fit&#45;&gt;check_duplicates -->
<g id="edge26" class="edge">
<title>check_value_fit&#45;&gt;check_duplicates</title>
<path fill="none" stroke="black" d="M213.23,-457.8C202.64,-445.47 188.22,-428.68 176.38,-414.89"/>
<polygon fill="black" stroke="black" points="178.92,-412.48 169.75,-407.18 173.61,-417.04 178.92,-412.48"/>
<text text-anchor="middle" x="210.5" y="-428.8" font-family="Helvetica,sans-Serif" font-size="14.00">匹配</text>
</g>
<!-- check_value_fit&#45;&gt;error_handling -->
<g id="edge25" class="edge">
<title>check_value_fit&#45;&gt;error_handling</title>
<path fill="none" stroke="black" d="M228.71,-457.76C231.52,-406.19 245.05,-249.93 308,-141 310.7,-136.33 314.14,-131.79 317.77,-127.61"/>
<polygon fill="black" stroke="black" points="320.55,-129.76 324.85,-120.07 315.45,-124.96 320.55,-129.76"/>
<text text-anchor="middle" x="275.5" y="-298.3" font-family="Helvetica,sans-Serif" font-size="14.00">不匹配</text>
</g>
<!-- handle_conflict -->
<g id="node25" class="node">
<title>handle_conflict</title>
<path fill="none" stroke="black" d="M237,-266C237,-266 159,-266 159,-266 153,-266 147,-260 147,-254 147,-254 147,-240 147,-240 147,-234 153,-228 159,-228 159,-228 237,-228 237,-228 243,-228 249,-234 249,-240 249,-240 249,-254 249,-254 249,-260 243,-266 237,-266"/>
<text text-anchor="middle" x="198" y="-250.8" font-family="Helvetica,sans-Serif" font-size="14.00">处理字段冲突</text>
<text text-anchor="middle" x="198" y="-235.8" font-family="Helvetica,sans-Serif" font-size="14.00">生成错误信息</text>
</g>
<!-- check_duplicates&#45;&gt;handle_conflict -->
<g id="edge27" class="edge">
<title>check_duplicates&#45;&gt;handle_conflict</title>
<path fill="none" stroke="black" d="M160.27,-370.83C167.54,-347.16 180.73,-304.22 189.43,-275.9"/>
<polygon fill="black" stroke="black" points="192.82,-276.78 192.41,-266.19 186.13,-274.73 192.82,-276.78"/>
<text text-anchor="middle" x="200" y="-341.8" font-family="Helvetica,sans-Serif" font-size="14.00">存在冲突</text>
</g>
<!-- loop2_end -->
<g id="node26" class="node">
<title>loop2_end</title>
<path fill="none" stroke="black" d="M138,-320C138,-320 74,-320 74,-320 68,-320 62,-314 62,-308 62,-308 62,-296 62,-296 62,-290 68,-284 74,-284 74,-284 138,-284 138,-284 144,-284 150,-290 150,-296 150,-296 150,-308 150,-308 150,-314 144,-320 138,-320"/>
<text text-anchor="middle" x="106" y="-298.3" font-family="Helvetica,sans-Serif" font-size="14.00">循环结束？</text>
</g>
<!-- check_duplicates&#45;&gt;loop2_end -->
<g id="edge28" class="edge">
<title>check_duplicates&#45;&gt;loop2_end</title>
<path fill="none" stroke="black" d="M128.41,-370.9C122.45,-365.84 116.78,-359.8 113,-353 109.19,-346.15 107.19,-337.99 106.2,-330.27"/>
<polygon fill="black" stroke="black" points="109.68,-329.87 105.39,-320.18 102.7,-330.42 109.68,-329.87"/>
<text text-anchor="middle" x="134.5" y="-341.8" font-family="Helvetica,sans-Serif" font-size="14.00">无冲突</text>
</g>
<!-- handle_conflict&#45;&gt;error_handling -->
<g id="edge29" class="edge">
<title>handle_conflict&#45;&gt;error_handling</title>
<path fill="none" stroke="black" d="M207.3,-227.61C219.56,-204.87 242.99,-166.09 272,-141 280.79,-133.4 291.52,-126.94 301.87,-121.71"/>
<polygon fill="black" stroke="black" points="303.68,-124.73 311.21,-117.27 300.68,-118.41 303.68,-124.73"/>
</g>
<!-- loop2_end&#45;&gt;loop2_start -->
<g id="edge30" class="edge">
<title>loop2_end&#45;&gt;loop2_start</title>
<path fill="none" stroke="black" d="M89.83,-320.05C76.23,-336.22 59,-361.86 59,-388 59,-550 59,-550 59,-550 59,-584.33 89,-602.33 123.72,-611.67"/>
<polygon fill="black" stroke="black" points="123.07,-615.12 133.62,-614.09 124.73,-608.32 123.07,-615.12"/>
<text text-anchor="middle" x="88" y="-472.3" font-family="Helvetica,sans-Serif" font-size="14.00">继续循环</text>
</g>
<!-- check_exhaustive -->
<g id="node27" class="node">
<title>check_exhaustive</title>
<path fill="none" stroke="black" d="M174.5,-210C174.5,-210 39.5,-210 39.5,-210 33.5,-210 27.5,-204 27.5,-198 27.5,-198 27.5,-186 27.5,-186 27.5,-180 33.5,-174 39.5,-174 39.5,-174 174.5,-174 174.5,-174 180.5,-174 186.5,-180 186.5,-186 186.5,-186 186.5,-198 186.5,-198 186.5,-204 180.5,-210 174.5,-210"/>
<text text-anchor="middle" x="107" y="-188.3" font-family="Helvetica,sans-Serif" font-size="14.00">检查非穷尽枚举有效性</text>
</g>
<!-- loop2_end&#45;&gt;check_exhaustive -->
<g id="edge31" class="edge">
<title>loop2_end&#45;&gt;check_exhaustive</title>
<path fill="none" stroke="black" d="M106.16,-283.65C106.32,-266.56 106.56,-240.22 106.75,-220.32"/>
<polygon fill="black" stroke="black" points="110.25,-220.34 106.84,-210.31 103.25,-220.28 110.25,-220.34"/>
</g>
<!-- codegen_check -->
<g id="node28" class="node">
<title>codegen_check</title>
<path fill="none" stroke="black" d="M161.5,-123C161.5,-123 54.5,-123 54.5,-123 48.5,-123 42.5,-117 42.5,-111 42.5,-111 42.5,-99 42.5,-99 42.5,-93 48.5,-87 54.5,-87 54.5,-87 161.5,-87 161.5,-87 167.5,-87 173.5,-93 173.5,-99 173.5,-99 173.5,-111 173.5,-111 173.5,-117 167.5,-123 161.5,-123"/>
<text text-anchor="middle" x="108" y="-101.3" font-family="Helvetica,sans-Serif" font-size="14.00">代码生成条件检查</text>
</g>
<!-- check_exhaustive&#45;&gt;codegen_check -->
<g id="edge33" class="edge">
<title>check_exhaustive&#45;&gt;codegen_check</title>
<path fill="none" stroke="black" d="M52.21,-173.79C36.31,-165.69 25.29,-154.76 34,-141 36.87,-136.46 40.51,-132.5 44.62,-129.05"/>
<polygon fill="black" stroke="black" points="46.95,-131.68 53.04,-123.01 42.87,-126 46.95,-131.68"/>
<text text-anchor="middle" x="63" y="-144.8" font-family="Helvetica,sans-Serif" font-size="14.00">通过验证</text>
</g>
<!-- check_exhaustive&#45;&gt;error_handling -->
<g id="edge32" class="edge">
<title>check_exhaustive&#45;&gt;error_handling</title>
<path fill="none" stroke="black" d="M105.04,-173.9C104.8,-163.02 106.52,-149.43 115,-141 126.08,-129.97 209.05,-119.27 271.27,-112.66"/>
<polygon fill="black" stroke="black" points="271.88,-116.12 281.46,-111.6 271.15,-109.16 271.88,-116.12"/>
<text text-anchor="middle" x="179.5" y="-144.8" font-family="Helvetica,sans-Serif" font-size="14.00">非穷尽枚举验证失败</text>
</g>
<!-- return_result -->
<g id="node29" class="node">
<title>return_result</title>
<path fill="none" stroke="black" d="M234.5,-36C234.5,-36 157.5,-36 157.5,-36 151.5,-36 145.5,-30 145.5,-24 145.5,-24 145.5,-12 145.5,-12 145.5,-6 151.5,0 157.5,0 157.5,0 234.5,0 234.5,0 240.5,0 246.5,-6 246.5,-12 246.5,-12 246.5,-24 246.5,-24 246.5,-30 240.5,-36 234.5,-36"/>
<text text-anchor="middle" x="196" y="-14.3" font-family="Helvetica,sans-Serif" font-size="14.00">返回 Air 引用</text>
</g>
<!-- codegen_check&#45;&gt;return_result -->
<g id="edge34" class="edge">
<title>codegen_check&#45;&gt;return_result</title>
<path fill="none" stroke="black" d="M125.81,-86.8C138.69,-74.36 156.28,-57.36 170.63,-43.5"/>
<polygon fill="black" stroke="black" points="173.46,-45.64 178.22,-36.18 168.59,-40.61 173.46,-45.64"/>
</g>
<!-- error_handling&#45;&gt;return_result -->
<g id="edge35" class="edge">
<title>error_handling&#45;&gt;return_result</title>
<path fill="none" stroke="black" d="M318.98,-91.09C296.49,-77.91 261.12,-57.18 234.08,-41.32"/>
<polygon fill="black" stroke="black" points="235.66,-38.19 225.26,-36.15 232.12,-44.23 235.66,-38.19"/>
<text text-anchor="middle" x="328" y="-57.8" font-family="Helvetica,sans-Serif" font-size="14.00">错误处理后返回</text>
</g>
</g>
</svg>
