<?xml version="1.0" encoding="UTF-8" standalone="no"?>
<!DOCTYPE svg PUBLIC "-//W3C//DTD SVG 1.1//EN"
 "http://www.w3.org/Graphics/SVG/1.1/DTD/svg11.dtd">
<!-- Generated by graphviz version 2.43.0 (0)
 -->
<!-- Title: flowchart Pages: 1 -->
<svg width="737pt" height="865pt"
 viewBox="0.00 0.00 737.00 865.00" xmlns="http://www.w3.org/2000/svg" xmlns:xlink="http://www.w3.org/1999/xlink">
<g id="graph0" class="graph" transform="scale(1 1) rotate(0) translate(4 861)">
<title>flowchart</title>
<polygon fill="white" stroke="transparent" points="-4,4 -4,-861 733,-861 733,4 -4,4"/>
<!-- start -->
<g id="node1" class="node">
<title>start</title>
<path fill="none" stroke="black" d="M496,-857C496,-857 278,-857 278,-857 272,-857 266,-851 266,-845 266,-845 266,-833 266,-833 266,-827 272,-821 278,-821 278,-821 496,-821 496,-821 502,-821 508,-827 508,-833 508,-833 508,-845 508,-845 508,-851 502,-857 496,-857"/>
<text text-anchor="middle" x="387" y="-835.3" font-family="Helvetica,sans-Serif" font-size="14.00">Start resolveDeclaredEnumInner</text>
</g>
<!-- parse_tag_type -->
<g id="node2" class="node">
<title>parse_tag_type</title>
<path fill="none" stroke="black" d="M469,-784C469,-784 305,-784 305,-784 299,-784 293,-778 293,-772 293,-772 293,-760 293,-760 293,-754 299,-748 305,-748 305,-748 469,-748 469,-748 475,-748 481,-754 481,-760 481,-760 481,-772 481,-772 481,-778 475,-784 469,-784"/>
<text text-anchor="middle" x="387" y="-762.3" font-family="Helvetica,sans-Serif" font-size="14.00">解析tag_type_ref是否存在</text>
</g>
<!-- start&#45;&gt;parse_tag_type -->
<g id="edge1" class="edge">
<title>start&#45;&gt;parse_tag_type</title>
<path fill="none" stroke="black" d="M387,-820.81C387,-812.79 387,-803.05 387,-794.07"/>
<polygon fill="black" stroke="black" points="390.5,-794.03 387,-784.03 383.5,-794.03 390.5,-794.03"/>
</g>
<!-- resolve_type -->
<g id="node3" class="node">
<title>resolve_type</title>
<path fill="none" stroke="black" d="M391.5,-697C391.5,-697 242.5,-697 242.5,-697 236.5,-697 230.5,-691 230.5,-685 230.5,-685 230.5,-673 230.5,-673 230.5,-667 236.5,-661 242.5,-661 242.5,-661 391.5,-661 391.5,-661 397.5,-661 403.5,-667 403.5,-673 403.5,-673 403.5,-685 403.5,-685 403.5,-691 397.5,-697 391.5,-697"/>
<text text-anchor="middle" x="317" y="-675.3" font-family="Helvetica,sans-Serif" font-size="14.00">解析tag_type_ref的类型</text>
</g>
<!-- parse_tag_type&#45;&gt;resolve_type -->
<g id="edge2" class="edge">
<title>parse_tag_type&#45;&gt;resolve_type</title>
<path fill="none" stroke="black" d="M338.84,-747.79C331.44,-743.12 324.71,-737.27 320,-730 315.66,-723.3 314.05,-714.98 313.76,-707.06"/>
<polygon fill="black" stroke="black" points="317.26,-707.14 314.04,-697.05 310.27,-706.95 317.26,-707.14"/>
<text text-anchor="middle" x="377.5" y="-718.8" font-family="Helvetica,sans-Serif" font-size="14.00">tag_type_ref存在</text>
</g>
<!-- determine_int_type -->
<g id="node5" class="node">
<title>determine_int_type</title>
<path fill="none" stroke="black" d="M539,-643C539,-643 375,-643 375,-643 369,-643 363,-637 363,-631 363,-631 363,-619 363,-619 363,-613 369,-607 375,-607 375,-607 539,-607 539,-607 545,-607 551,-613 551,-619 551,-619 551,-631 551,-631 551,-637 545,-643 539,-643"/>
<text text-anchor="middle" x="457" y="-621.3" font-family="Helvetica,sans-Serif" font-size="14.00">根据字段数量确定整数类型</text>
</g>
<!-- parse_tag_type&#45;&gt;determine_int_type -->
<g id="edge3" class="edge">
<title>parse_tag_type&#45;&gt;determine_int_type</title>
<path fill="none" stroke="black" d="M417.51,-747.94C424.15,-742.94 430.52,-736.93 435,-730 449.91,-706.97 454.92,-675.61 456.51,-653.37"/>
<polygon fill="black" stroke="black" points="460.01,-653.43 457.03,-643.26 453.02,-653.06 460.01,-653.43"/>
<text text-anchor="middle" x="507.5" y="-718.8" font-family="Helvetica,sans-Serif" font-size="14.00">tag_type_ref不存在</text>
</g>
<!-- check_int_type -->
<g id="node4" class="node">
<title>check_int_type</title>
<path fill="none" stroke="black" d="M418,-589C418,-589 200,-589 200,-589 194,-589 188,-583 188,-577 188,-577 188,-565 188,-565 188,-559 194,-553 200,-553 200,-553 418,-553 418,-553 424,-553 430,-559 430,-565 430,-565 430,-577 430,-577 430,-583 424,-589 418,-589"/>
<text text-anchor="middle" x="309" y="-567.3" font-family="Helvetica,sans-Serif" font-size="14.00">检查类型是否为int或comptime_int</text>
</g>
<!-- resolve_type&#45;&gt;check_int_type -->
<g id="edge4" class="edge">
<title>resolve_type&#45;&gt;check_int_type</title>
<path fill="none" stroke="black" d="M315.71,-660.97C314.46,-644.38 312.54,-618.88 311.07,-599.43"/>
<polygon fill="black" stroke="black" points="314.55,-599.05 310.31,-589.34 307.57,-599.58 314.55,-599.05"/>
</g>
<!-- set_tag_type -->
<g id="node6" class="node">
<title>set_tag_type</title>
<path fill="none" stroke="black" d="M377.5,-502C377.5,-502 240.5,-502 240.5,-502 234.5,-502 228.5,-496 228.5,-490 228.5,-490 228.5,-478 228.5,-478 228.5,-472 234.5,-466 240.5,-466 240.5,-466 377.5,-466 377.5,-466 383.5,-466 389.5,-472 389.5,-478 389.5,-478 389.5,-490 389.5,-490 389.5,-496 383.5,-502 377.5,-502"/>
<text text-anchor="middle" x="309" y="-480.3" font-family="Helvetica,sans-Serif" font-size="14.00">设置wip_ty的标签类型</text>
</g>
<!-- check_int_type&#45;&gt;set_tag_type -->
<g id="edge5" class="edge">
<title>check_int_type&#45;&gt;set_tag_type</title>
<path fill="none" stroke="black" d="M309,-552.8C309,-541.16 309,-525.55 309,-512.24"/>
<polygon fill="black" stroke="black" points="312.5,-512.18 309,-502.18 305.5,-512.18 312.5,-512.18"/>
<text text-anchor="middle" x="345" y="-523.8" font-family="Helvetica,sans-Serif" font-size="14.00">是整数类型</text>
</g>
<!-- return_error -->
<g id="node18" class="node">
<title>return_error</title>
<path fill="none" stroke="black" d="M400.5,-109C400.5,-109 279.5,-109 279.5,-109 273.5,-109 267.5,-103 267.5,-97 267.5,-97 267.5,-85 267.5,-85 267.5,-79 273.5,-73 279.5,-73 279.5,-73 400.5,-73 400.5,-73 406.5,-73 412.5,-79 412.5,-85 412.5,-85 412.5,-97 412.5,-97 412.5,-103 406.5,-109 400.5,-109"/>
<text text-anchor="middle" x="340" y="-87.3" font-family="Helvetica,sans-Serif" font-size="14.00">生成错误信息并返回</text>
</g>
<!-- check_int_type&#45;&gt;return_error -->
<g id="edge6" class="edge">
<title>check_int_type&#45;&gt;return_error</title>
<path fill="none" stroke="black" d="M364.42,-552.97C394.66,-539.87 426,-518.27 426,-485 426,-485 426,-485 426,-177 426,-150.31 404.79,-129.17 383.44,-114.65"/>
<polygon fill="black" stroke="black" points="385.29,-111.67 374.98,-109.21 381.5,-117.56 385.29,-111.67"/>
<text text-anchor="middle" x="462" y="-334.3" font-family="Helvetica,sans-Serif" font-size="14.00">非整数类型</text>
</g>
<!-- determine_int_type&#45;&gt;set_tag_type -->
<g id="edge7" class="edge">
<title>determine_int_type&#45;&gt;set_tag_type</title>
<path fill="none" stroke="black" d="M456.27,-606.97C454.83,-591.55 450.7,-568.87 439,-553 423.32,-531.73 399.01,-516.54 375.62,-505.98"/>
<polygon fill="black" stroke="black" points="376.96,-502.75 366.39,-502.02 374.2,-509.18 376.96,-502.75"/>
</g>
<!-- init_loop -->
<g id="node7" class="node">
<title>init_loop</title>
<path fill="none" stroke="black" d="M316,-429C316,-429 224,-429 224,-429 218,-429 212,-423 212,-417 212,-417 212,-405 212,-405 212,-399 218,-393 224,-393 224,-393 316,-393 316,-393 322,-393 328,-399 328,-405 328,-405 328,-417 328,-417 328,-423 322,-429 316,-429"/>
<text text-anchor="middle" x="270" y="-407.3" font-family="Helvetica,sans-Serif" font-size="14.00">初始化循环变量</text>
</g>
<!-- set_tag_type&#45;&gt;init_loop -->
<g id="edge8" class="edge">
<title>set_tag_type&#45;&gt;init_loop</title>
<path fill="none" stroke="black" d="M299.56,-465.81C294.96,-457.44 289.33,-447.2 284.23,-437.9"/>
<polygon fill="black" stroke="black" points="287.24,-436.11 279.35,-429.03 281.1,-439.48 287.24,-436.11"/>
</g>
<!-- loop_condition -->
<g id="node8" class="node">
<title>loop_condition</title>
<path fill="none" stroke="black" d="M334,-356C334,-356 158,-356 158,-356 152,-356 146,-350 146,-344 146,-344 146,-332 146,-332 146,-326 152,-320 158,-320 158,-320 334,-320 334,-320 340,-320 346,-326 346,-332 346,-332 346,-344 346,-344 346,-350 340,-356 334,-356"/>
<text text-anchor="middle" x="246" y="-334.3" font-family="Helvetica,sans-Serif" font-size="14.00">遍历所有字段 (0..fields_len)</text>
</g>
<!-- init_loop&#45;&gt;loop_condition -->
<g id="edge9" class="edge">
<title>init_loop&#45;&gt;loop_condition</title>
<path fill="none" stroke="black" d="M264.19,-392.81C261.45,-384.7 258.11,-374.84 255.05,-365.78"/>
<polygon fill="black" stroke="black" points="258.27,-364.38 251.76,-356.03 251.64,-366.62 258.27,-364.38"/>
</g>
<!-- handle_has_tag -->
<g id="node9" class="node">
<title>handle_has_tag</title>
<path fill="none" stroke="black" d="M158,-269C158,-269 66,-269 66,-269 60,-269 54,-263 54,-257 54,-257 54,-245 54,-245 54,-239 60,-233 66,-233 66,-233 158,-233 158,-233 164,-233 170,-239 170,-245 170,-245 170,-257 170,-257 170,-263 164,-269 158,-269"/>
<text text-anchor="middle" x="112" y="-247.3" font-family="Helvetica,sans-Serif" font-size="14.00">处理显式标签值</text>
</g>
<!-- loop_condition&#45;&gt;handle_has_tag -->
<g id="edge10" class="edge">
<title>loop_condition&#45;&gt;handle_has_tag</title>
<path fill="none" stroke="black" d="M203.47,-319.95C192.25,-314.78 180.39,-308.68 170,-302 158.35,-294.51 146.58,-284.84 136.72,-276"/>
<polygon fill="black" stroke="black" points="138.99,-273.33 129.25,-269.15 134.25,-278.49 138.99,-273.33"/>
<text text-anchor="middle" x="206" y="-290.8" font-family="Helvetica,sans-Serif" font-size="14.00">有显式标签</text>
</g>
<!-- handle_auto_tag -->
<g id="node11" class="node">
<title>handle_auto_tag</title>
<path fill="none" stroke="black" d="M292,-269C292,-269 200,-269 200,-269 194,-269 188,-263 188,-257 188,-257 188,-245 188,-245 188,-239 194,-233 200,-233 200,-233 292,-233 292,-233 298,-233 304,-239 304,-245 304,-245 304,-257 304,-257 304,-263 298,-269 292,-269"/>
<text text-anchor="middle" x="246" y="-247.3" font-family="Helvetica,sans-Serif" font-size="14.00">自动生成标签值</text>
</g>
<!-- loop_condition&#45;&gt;handle_auto_tag -->
<g id="edge11" class="edge">
<title>loop_condition&#45;&gt;handle_auto_tag</title>
<path fill="none" stroke="black" d="M246,-319.8C246,-308.16 246,-292.55 246,-279.24"/>
<polygon fill="black" stroke="black" points="249.5,-279.18 246,-269.18 242.5,-279.18 249.5,-279.18"/>
<text text-anchor="middle" x="282" y="-290.8" font-family="Helvetica,sans-Serif" font-size="14.00">无显式标签</text>
</g>
<!-- check_nonexhaustive -->
<g id="node15" class="node">
<title>check_nonexhaustive</title>
<path fill="none" stroke="black" d="M587.5,-196C587.5,-196 466.5,-196 466.5,-196 460.5,-196 454.5,-190 454.5,-184 454.5,-184 454.5,-172 454.5,-172 454.5,-166 460.5,-160 466.5,-160 466.5,-160 587.5,-160 587.5,-160 593.5,-160 599.5,-166 599.5,-172 599.5,-172 599.5,-184 599.5,-184 599.5,-190 593.5,-196 587.5,-196"/>
<text text-anchor="middle" x="527" y="-174.3" font-family="Helvetica,sans-Serif" font-size="14.00">检查非穷举枚举条件</text>
</g>
<!-- loop_condition&#45;&gt;check_nonexhaustive -->
<g id="edge20" class="edge">
<title>loop_condition&#45;&gt;check_nonexhaustive</title>
<path fill="none" stroke="black" d="M285.06,-320C297.04,-314.52 310.18,-308.24 322,-302 383.24,-269.65 451.75,-227.21 492.03,-201.58"/>
<polygon fill="black" stroke="black" points="494.12,-204.4 500.67,-196.06 490.36,-198.49 494.12,-204.4"/>
<text text-anchor="middle" x="470" y="-247.3" font-family="Helvetica,sans-Serif" font-size="14.00">循环结束</text>
</g>
<!-- check_tag_overflow -->
<g id="node10" class="node">
<title>check_tag_overflow</title>
<path fill="none" stroke="black" d="M187.5,-196C187.5,-196 66.5,-196 66.5,-196 60.5,-196 54.5,-190 54.5,-184 54.5,-184 54.5,-172 54.5,-172 54.5,-166 60.5,-160 66.5,-160 66.5,-160 187.5,-160 187.5,-160 193.5,-160 199.5,-166 199.5,-172 199.5,-172 199.5,-184 199.5,-184 199.5,-190 193.5,-196 187.5,-196"/>
<text text-anchor="middle" x="127" y="-174.3" font-family="Helvetica,sans-Serif" font-size="14.00">检查标签值是否溢出</text>
</g>
<!-- handle_has_tag&#45;&gt;check_tag_overflow -->
<g id="edge12" class="edge">
<title>handle_has_tag&#45;&gt;check_tag_overflow</title>
<path fill="none" stroke="black" d="M115.63,-232.81C117.33,-224.79 119.38,-215.05 121.28,-206.07"/>
<polygon fill="black" stroke="black" points="124.76,-206.54 123.4,-196.03 117.91,-205.09 124.76,-206.54"/>
</g>
<!-- handle_conflict -->
<g id="node13" class="node">
<title>handle_conflict</title>
<path fill="none" stroke="black" d="M182.5,-109C182.5,-109 71.5,-109 71.5,-109 65.5,-109 59.5,-103 59.5,-97 59.5,-97 59.5,-85 59.5,-85 59.5,-79 65.5,-73 71.5,-73 71.5,-73 182.5,-73 182.5,-73 188.5,-73 194.5,-79 194.5,-85 194.5,-85 194.5,-97 194.5,-97 194.5,-103 188.5,-109 182.5,-109"/>
<text text-anchor="middle" x="127" y="-87.3" font-family="Helvetica,sans-Serif" font-size="14.00">处理字段名/值冲突</text>
</g>
<!-- check_tag_overflow&#45;&gt;handle_conflict -->
<g id="edge13" class="edge">
<title>check_tag_overflow&#45;&gt;handle_conflict</title>
<path fill="none" stroke="black" d="M127,-159.8C127,-148.16 127,-132.55 127,-119.24"/>
<polygon fill="black" stroke="black" points="130.5,-119.18 127,-109.18 123.5,-119.18 130.5,-119.18"/>
<text text-anchor="middle" x="148.5" y="-130.8" font-family="Helvetica,sans-Serif" font-size="14.00">未溢出</text>
</g>
<!-- check_tag_overflow&#45;&gt;return_error -->
<g id="edge14" class="edge">
<title>check_tag_overflow&#45;&gt;return_error</title>
<path fill="none" stroke="black" d="M150.44,-159.96C166.1,-149.24 187.5,-135.81 208,-127 223.66,-120.27 240.93,-114.56 257.68,-109.82"/>
<polygon fill="black" stroke="black" points="258.74,-113.16 267.46,-107.15 256.89,-106.41 258.74,-113.16"/>
<text text-anchor="middle" x="222.5" y="-130.8" font-family="Helvetica,sans-Serif" font-size="14.00">溢出</text>
</g>
<!-- check_auto_overflow -->
<g id="node12" class="node">
<title>check_auto_overflow</title>
<path fill="none" stroke="black" d="M364.5,-196C364.5,-196 229.5,-196 229.5,-196 223.5,-196 217.5,-190 217.5,-184 217.5,-184 217.5,-172 217.5,-172 217.5,-166 223.5,-160 229.5,-160 229.5,-160 364.5,-160 364.5,-160 370.5,-160 376.5,-166 376.5,-172 376.5,-172 376.5,-184 376.5,-184 376.5,-190 370.5,-196 364.5,-196"/>
<text text-anchor="middle" x="297" y="-174.3" font-family="Helvetica,sans-Serif" font-size="14.00">检查自动生成是否溢出</text>
</g>
<!-- handle_auto_tag&#45;&gt;check_auto_overflow -->
<g id="edge15" class="edge">
<title>handle_auto_tag&#45;&gt;check_auto_overflow</title>
<path fill="none" stroke="black" d="M258.35,-232.81C264.48,-224.27 272.02,-213.77 278.81,-204.32"/>
<polygon fill="black" stroke="black" points="281.78,-206.19 284.77,-196.03 276.09,-202.11 281.78,-206.19"/>
</g>
<!-- check_auto_overflow&#45;&gt;handle_conflict -->
<g id="edge16" class="edge">
<title>check_auto_overflow&#45;&gt;handle_conflict</title>
<path fill="none" stroke="black" d="M281.33,-159.6C270.84,-148.87 256.21,-135.58 241,-127 229.65,-120.6 216.98,-115.23 204.34,-110.77"/>
<polygon fill="black" stroke="black" points="205.29,-107.4 194.7,-107.54 203.07,-114.04 205.29,-107.4"/>
<text text-anchor="middle" x="283.5" y="-130.8" font-family="Helvetica,sans-Serif" font-size="14.00">未溢出</text>
</g>
<!-- check_auto_overflow&#45;&gt;return_error -->
<g id="edge17" class="edge">
<title>check_auto_overflow&#45;&gt;return_error</title>
<path fill="none" stroke="black" d="M305.83,-159.93C308.76,-154.23 312.03,-147.85 315,-142 318.89,-134.33 323.08,-125.98 326.9,-118.34"/>
<polygon fill="black" stroke="black" points="330.15,-119.66 331.49,-109.15 323.89,-116.53 330.15,-119.66"/>
<text text-anchor="middle" x="336.5" y="-130.8" font-family="Helvetica,sans-Serif" font-size="14.00">溢出</text>
</g>
<!-- next_field -->
<g id="node14" class="node">
<title>next_field</title>
<path fill="none" stroke="black" d="M104,-36C104,-36 12,-36 12,-36 6,-36 0,-30 0,-24 0,-24 0,-12 0,-12 0,-6 6,0 12,0 12,0 104,0 104,0 110,0 116,-6 116,-12 116,-12 116,-24 116,-24 116,-30 110,-36 104,-36"/>
<text text-anchor="middle" x="58" y="-14.3" font-family="Helvetica,sans-Serif" font-size="14.00">处理下一个字段</text>
</g>
<!-- handle_conflict&#45;&gt;next_field -->
<g id="edge18" class="edge">
<title>handle_conflict&#45;&gt;next_field</title>
<path fill="none" stroke="black" d="M110.3,-72.81C101.74,-64 91.16,-53.13 81.77,-43.46"/>
<polygon fill="black" stroke="black" points="84.03,-40.76 74.55,-36.03 79.01,-45.64 84.03,-40.76"/>
</g>
<!-- next_field&#45;&gt;loop_condition -->
<g id="edge19" class="edge">
<title>next_field&#45;&gt;loop_condition</title>
<path fill="none" stroke="black" d="M45.35,-36.13C36.41,-49.94 26,-70.26 26,-90 26,-252 26,-252 26,-252 26,-280.31 90.21,-302.84 149.25,-317.57"/>
<polygon fill="black" stroke="black" points="148.51,-321 159.05,-319.96 150.16,-314.19 148.51,-321"/>
</g>
<!-- error_nonexhaustive -->
<g id="node16" class="node">
<title>error_nonexhaustive</title>
<path fill="none" stroke="black" d="M717,-109C717,-109 539,-109 539,-109 533,-109 527,-103 527,-97 527,-97 527,-85 527,-85 527,-79 533,-73 539,-73 539,-73 717,-73 717,-73 723,-73 729,-79 729,-85 729,-85 729,-97 729,-97 729,-103 723,-109 717,-109"/>
<text text-anchor="middle" x="628" y="-87.3" font-family="Helvetica,sans-Serif" font-size="14.00">报错：非穷举枚举覆盖所有值</text>
</g>
<!-- check_nonexhaustive&#45;&gt;error_nonexhaustive -->
<g id="edge21" class="edge">
<title>check_nonexhaustive&#45;&gt;error_nonexhaustive</title>
<path fill="none" stroke="black" d="M547.44,-159.8C562.5,-147.13 583.16,-129.73 599.79,-115.74"/>
<polygon fill="black" stroke="black" points="602.19,-118.29 607.59,-109.18 597.69,-112.94 602.19,-118.29"/>
<text text-anchor="middle" x="619" y="-130.8" font-family="Helvetica,sans-Serif" font-size="14.00">条件不满足</text>
</g>
<!-- end -->
<g id="node17" class="node">
<title>end</title>
<path fill="none" stroke="black" d="M466,-36C466,-36 436,-36 436,-36 430,-36 424,-30 424,-24 424,-24 424,-12 424,-12 424,-6 430,0 436,0 436,0 466,0 466,0 472,0 478,-6 478,-12 478,-12 478,-24 478,-24 478,-30 472,-36 466,-36"/>
<text text-anchor="middle" x="451" y="-14.3" font-family="Helvetica,sans-Serif" font-size="14.00">结束</text>
</g>
<!-- check_nonexhaustive&#45;&gt;end -->
<g id="edge22" class="edge">
<title>check_nonexhaustive&#45;&gt;end</title>
<path fill="none" stroke="black" d="M503.28,-159.9C488.16,-147.58 469.65,-129.55 460,-109 450.8,-89.39 448.9,-64.79 449.1,-46.26"/>
<polygon fill="black" stroke="black" points="452.61,-46.25 449.43,-36.14 445.61,-46.02 452.61,-46.25"/>
<text text-anchor="middle" x="489" y="-87.3" font-family="Helvetica,sans-Serif" font-size="14.00">条件满足</text>
</g>
<!-- error_nonexhaustive&#45;&gt;end -->
<g id="edge23" class="edge">
<title>error_nonexhaustive&#45;&gt;end</title>
<path fill="none" stroke="black" d="M585.6,-72.99C555.78,-61.03 516.26,-45.18 487.77,-33.75"/>
<polygon fill="black" stroke="black" points="488.77,-30.38 478.19,-29.9 486.16,-36.88 488.77,-30.38"/>
</g>
<!-- return_error&#45;&gt;end -->
<g id="edge24" class="edge">
<title>return_error&#45;&gt;end</title>
<path fill="none" stroke="black" d="M366.59,-72.99C381.31,-63.58 399.79,-51.76 415.71,-41.57"/>
<polygon fill="black" stroke="black" points="417.71,-44.45 424.24,-36.11 413.93,-38.55 417.71,-44.45"/>
</g>
</g>
</svg>
