<?xml version="1.0" encoding="UTF-8" standalone="no"?>
<!DOCTYPE svg PUBLIC "-//W3C//DTD SVG 1.1//EN"
 "http://www.w3.org/Graphics/SVG/1.1/DTD/svg11.dtd">
<!-- Generated by graphviz version 2.43.0 (0)
 -->
<!-- Title: reifyUnion_flowchart Pages: 1 -->
<svg width="669pt" height="1002pt"
 viewBox="0.00 0.00 668.50 1002.00" xmlns="http://www.w3.org/2000/svg" xmlns:xlink="http://www.w3.org/1999/xlink">
<g id="graph0" class="graph" transform="scale(1 1) rotate(0) translate(4 998)">
<title>reifyUnion_flowchart</title>
<polygon fill="white" stroke="transparent" points="-4,4 -4,-998 664.5,-998 664.5,4 -4,4"/>
<!-- start -->
<g id="node1" class="node">
<title>start</title>
<path fill="none" stroke="black" d="M537,-994C537,-994 436,-994 436,-994 430,-994 424,-988 424,-982 424,-982 424,-970 424,-970 424,-964 430,-958 436,-958 436,-958 537,-958 537,-958 543,-958 549,-964 549,-970 549,-970 549,-982 549,-982 549,-988 543,-994 537,-994"/>
<text text-anchor="middle" x="486.5" y="-972.3" font-family="Times,serif" font-size="14.00">开始 reifyUnion</text>
</g>
<!-- init_vars -->
<g id="node2" class="node">
<title>init_vars</title>
<path fill="none" stroke="black" d="M541,-921C541,-921 432,-921 432,-921 426,-921 420,-915 420,-909 420,-909 420,-895 420,-895 420,-889 426,-883 432,-883 432,-883 541,-883 541,-883 547,-883 553,-889 553,-895 553,-895 553,-909 553,-909 553,-915 547,-921 541,-921"/>
<text text-anchor="middle" x="486.5" y="-905.8" font-family="Times,serif" font-size="14.00">初始化变量</text>
<text text-anchor="middle" x="486.5" y="-890.8" font-family="Times,serif" font-size="14.00">(pt, zcu, gpa, ip)</text>
</g>
<!-- start&#45;&gt;init_vars -->
<g id="edge1" class="edge">
<title>start&#45;&gt;init_vars</title>
<path fill="none" stroke="black" d="M486.5,-957.94C486.5,-949.99 486.5,-940.31 486.5,-931.31"/>
<polygon fill="black" stroke="black" points="490,-931.2 486.5,-921.2 483,-931.2 490,-931.2"/>
</g>
<!-- calc_fields_len -->
<g id="node3" class="node">
<title>calc_fields_len</title>
<path fill="none" stroke="black" d="M532.5,-846C532.5,-846 440.5,-846 440.5,-846 434.5,-846 428.5,-840 428.5,-834 428.5,-834 428.5,-822 428.5,-822 428.5,-816 434.5,-810 440.5,-810 440.5,-810 532.5,-810 532.5,-810 538.5,-810 544.5,-816 544.5,-822 544.5,-822 544.5,-834 544.5,-834 544.5,-840 538.5,-846 532.5,-846"/>
<text text-anchor="middle" x="486.5" y="-824.3" font-family="Times,serif" font-size="14.00">计算 fields_len</text>
</g>
<!-- init_vars&#45;&gt;calc_fields_len -->
<g id="edge2" class="edge">
<title>init_vars&#45;&gt;calc_fields_len</title>
<path fill="none" stroke="black" d="M486.5,-882.83C486.5,-874.89 486.5,-865.41 486.5,-856.63"/>
<polygon fill="black" stroke="black" points="490,-856.42 486.5,-846.42 483,-856.42 490,-856.42"/>
</g>
<!-- init_hasher -->
<g id="node4" class="node">
<title>init_hasher</title>
<path fill="none" stroke="black" d="M525.5,-773C525.5,-773 447.5,-773 447.5,-773 441.5,-773 435.5,-767 435.5,-761 435.5,-761 435.5,-749 435.5,-749 435.5,-743 441.5,-737 447.5,-737 447.5,-737 525.5,-737 525.5,-737 531.5,-737 537.5,-743 537.5,-749 537.5,-749 537.5,-761 537.5,-761 537.5,-767 531.5,-773 525.5,-773"/>
<text text-anchor="middle" x="486.5" y="-751.3" font-family="Times,serif" font-size="14.00">初始化哈希器</text>
</g>
<!-- calc_fields_len&#45;&gt;init_hasher -->
<g id="edge3" class="edge">
<title>calc_fields_len&#45;&gt;init_hasher</title>
<path fill="none" stroke="black" d="M486.5,-809.81C486.5,-801.79 486.5,-792.05 486.5,-783.07"/>
<polygon fill="black" stroke="black" points="490,-783.03 486.5,-773.03 483,-783.03 490,-783.03"/>
</g>
<!-- process_fields -->
<g id="node5" class="node">
<title>process_fields</title>
<path fill="none" stroke="black" d="M573,-700C573,-700 400,-700 400,-700 394,-700 388,-694 388,-688 388,-688 388,-644 388,-644 388,-638 394,-632 400,-632 400,-632 573,-632 573,-632 579,-632 585,-638 585,-644 585,-644 585,-688 585,-688 585,-694 579,-700 573,-700"/>
<text text-anchor="middle" x="486.5" y="-684.8" font-family="Times,serif" font-size="14.00">遍历每个字段:</text>
<text text-anchor="middle" x="486.5" y="-669.8" font-family="Times,serif" font-size="14.00">&#45; 获取字段名、类型、对齐值</text>
<text text-anchor="middle" x="486.5" y="-654.8" font-family="Times,serif" font-size="14.00">&#45; 更新哈希</text>
<text text-anchor="middle" x="486.5" y="-639.8" font-family="Times,serif" font-size="14.00">&#45; 检查对齐值是否非零</text>
</g>
<!-- init_hasher&#45;&gt;process_fields -->
<g id="edge4" class="edge">
<title>init_hasher&#45;&gt;process_fields</title>
<path fill="none" stroke="black" d="M486.5,-736.81C486.5,-729.1 486.5,-719.63 486.5,-710.17"/>
<polygon fill="black" stroke="black" points="490,-710 486.5,-700 483,-710 490,-710"/>
</g>
<!-- check_any_aligns -->
<g id="node6" class="node">
<title>check_any_aligns</title>
<path fill="none" stroke="black" d="M359.55,-593.94C359.55,-593.94 181.02,-578.06 181.02,-578.06 175.05,-577.53 175.05,-576.47 181.02,-575.94 181.02,-575.94 359.55,-560.06 359.55,-560.06 365.52,-559.53 377.48,-559.53 383.45,-560.06 383.45,-560.06 561.98,-575.94 561.98,-575.94 567.95,-576.47 567.95,-577.53 561.98,-578.06 561.98,-578.06 383.45,-593.94 383.45,-593.94 377.48,-594.47 365.52,-594.47 359.55,-593.94"/>
<text text-anchor="middle" x="371.5" y="-573.3" font-family="Times,serif" font-size="14.00">any_aligns = 存在非零对齐值?</text>
</g>
<!-- process_fields&#45;&gt;check_any_aligns -->
<g id="edge5" class="edge">
<title>process_fields&#45;&gt;check_any_aligns</title>
<path fill="none" stroke="black" d="M442.7,-631.86C428.32,-620.99 412.74,-609.2 399.83,-599.43"/>
<polygon fill="black" stroke="black" points="401.85,-596.58 391.77,-593.33 397.63,-602.16 401.85,-596.58"/>
</g>
<!-- error_handling -->
<g id="node15" class="node">
<title>error_handling</title>
<path fill="none" stroke="red" d="M385.62,-104.51C385.62,-104.51 385.62,-109.49 385.62,-109.49 385.62,-111.97 383.27,-115.27 380.92,-116.08 380.92,-116.08 359.79,-123.38 359.79,-123.38 357.44,-124.19 352.6,-125 350.12,-125 350.12,-125 316.88,-125 316.88,-125 314.4,-125 309.56,-124.19 307.21,-123.38 307.21,-123.38 286.08,-116.08 286.08,-116.08 283.73,-115.27 281.38,-111.97 281.38,-109.49 281.38,-109.49 281.38,-104.51 281.38,-104.51 281.38,-102.03 283.73,-98.73 286.08,-97.92 286.08,-97.92 307.21,-90.62 307.21,-90.62 309.56,-89.81 314.4,-89 316.88,-89 316.88,-89 350.12,-89 350.12,-89 352.6,-89 357.44,-89.81 359.79,-90.62 359.79,-90.62 380.92,-97.92 380.92,-97.92 383.27,-98.73 385.62,-102.03 385.62,-104.51"/>
<text text-anchor="middle" x="333.5" y="-103.3" font-family="Times,serif" font-size="14.00">错误处理</text>
</g>
<!-- process_fields&#45;&gt;error_handling -->
<g id="edge15" class="edge">
<title>process_fields&#45;&gt;error_handling</title>
<path fill="none" stroke="black" d="M567.62,-631.99C586.65,-618.75 601.5,-601.03 601.5,-578 601.5,-578 601.5,-578 601.5,-213.5 601.5,-168.52 469.12,-134.65 390.44,-118.5"/>
<polygon fill="black" stroke="black" points="390.68,-114.97 380.18,-116.43 389.29,-121.84 390.68,-114.97"/>
<text text-anchor="middle" x="631" y="-408.5" font-family="Times,serif" font-size="10.00">字段处理错误</text>
</g>
<!-- get_wip_type -->
<g id="node7" class="node">
<title>get_wip_type</title>
<path fill="none" stroke="black" d="M504,-512C504,-512 289,-512 289,-512 283,-512 277,-506 277,-500 277,-500 277,-488 277,-488 277,-482 283,-476 289,-476 289,-476 504,-476 504,-476 510,-476 516,-482 516,-488 516,-488 516,-500 516,-500 516,-506 510,-512 504,-512"/>
<text text-anchor="middle" x="396.5" y="-490.3" font-family="Times,serif" font-size="14.00">尝试获取现有类型或创建 WIP 类型</text>
</g>
<!-- check_any_aligns&#45;&gt;get_wip_type -->
<g id="edge6" class="edge">
<title>check_any_aligns&#45;&gt;get_wip_type</title>
<path fill="none" stroke="black" d="M376.68,-559.22C380.01,-548.43 384.41,-534.17 388.22,-521.84"/>
<polygon fill="black" stroke="black" points="391.64,-522.63 391.24,-512.04 384.95,-520.56 391.64,-522.63"/>
<text text-anchor="middle" x="396" y="-533" font-family="Times,serif" font-size="10.00">是/否</text>
</g>
<!-- existing_type -->
<g id="node8" class="node">
<title>existing_type</title>
<path fill="none" stroke="black" d="M549,-429C549,-429 442,-429 442,-429 436,-429 430,-423 430,-417 430,-417 430,-405 430,-405 430,-399 436,-393 442,-393 442,-393 549,-393 549,-393 555,-393 561,-399 561,-405 561,-405 561,-417 561,-417 561,-423 555,-429 549,-429"/>
<text text-anchor="middle" x="495.5" y="-407.3" font-family="Times,serif" font-size="14.00">返回现有类型引用</text>
</g>
<!-- get_wip_type&#45;&gt;existing_type -->
<g id="edge7" class="edge">
<title>get_wip_type&#45;&gt;existing_type</title>
<path fill="none" stroke="black" d="M417.5,-475.82C431.8,-464.12 450.93,-448.47 466.66,-435.6"/>
<polygon fill="black" stroke="black" points="469.01,-438.19 474.53,-429.15 464.58,-432.78 469.01,-438.19"/>
<text text-anchor="middle" x="461.5" y="-450" font-family="Times,serif" font-size="10.00">存在</text>
</g>
<!-- handle_tag_type -->
<g id="node9" class="node">
<title>handle_tag_type</title>
<path fill="none" stroke="black" d="M267.72,-426.73C267.72,-426.73 197.77,-413.27 197.77,-413.27 191.88,-412.13 191.88,-409.87 197.77,-408.73 197.77,-408.73 267.72,-395.27 267.72,-395.27 273.61,-394.13 285.39,-394.13 291.28,-395.27 291.28,-395.27 361.23,-408.73 361.23,-408.73 367.12,-409.87 367.12,-412.13 361.23,-413.27 361.23,-413.27 291.28,-426.73 291.28,-426.73 285.39,-427.87 273.61,-427.87 267.72,-426.73"/>
<text text-anchor="middle" x="279.5" y="-407.3" font-family="Times,serif" font-size="14.00">处理标签类型</text>
</g>
<!-- get_wip_type&#45;&gt;handle_tag_type -->
<g id="edge8" class="edge">
<title>get_wip_type&#45;&gt;handle_tag_type</title>
<path fill="none" stroke="black" d="M370.76,-475.85C362.36,-470.21 353.01,-463.87 344.5,-458 331.99,-449.36 318.23,-439.66 306.61,-431.4"/>
<polygon fill="black" stroke="black" points="308.37,-428.35 298.19,-425.4 304.31,-434.05 308.37,-428.35"/>
<text text-anchor="middle" x="366" y="-450" font-family="Times,serif" font-size="10.00">创建 WIP</text>
</g>
<!-- get_wip_type&#45;&gt;error_handling -->
<g id="edge16" class="edge">
<title>get_wip_type&#45;&gt;error_handling</title>
<path fill="none" stroke="black" d="M398.16,-475.95C399.62,-459.57 401.5,-434.12 401.5,-412 401.5,-412 401.5,-412 401.5,-213.5 401.5,-181.95 379.75,-152.34 360.85,-132.57"/>
<polygon fill="black" stroke="black" points="363.07,-129.84 353.53,-125.24 358.12,-134.79 363.07,-129.84"/>
<text text-anchor="middle" x="421.5" y="-309.5" font-family="Times,serif" font-size="10.00">创建失败</text>
</g>
<!-- explicit_tag -->
<g id="node10" class="node">
<title>explicit_tag</title>
<path fill="none" stroke="black" d="M216.5,-346C216.5,-346 86.5,-346 86.5,-346 80.5,-346 74.5,-340 74.5,-334 74.5,-334 74.5,-290 74.5,-290 74.5,-284 80.5,-278 86.5,-278 86.5,-278 216.5,-278 216.5,-278 222.5,-278 228.5,-284 228.5,-290 228.5,-290 228.5,-334 228.5,-334 228.5,-340 222.5,-346 216.5,-346"/>
<text text-anchor="middle" x="151.5" y="-330.8" font-family="Times,serif" font-size="14.00">显式标签类型验证:</text>
<text text-anchor="middle" x="151.5" y="-315.8" font-family="Times,serif" font-size="14.00">&#45; 检查是否为枚举类型</text>
<text text-anchor="middle" x="151.5" y="-300.8" font-family="Times,serif" font-size="14.00">&#45; 确保字段对应枚举项</text>
<text text-anchor="middle" x="151.5" y="-285.8" font-family="Times,serif" font-size="14.00">&#45; 检查重复项</text>
</g>
<!-- handle_tag_type&#45;&gt;explicit_tag -->
<g id="edge9" class="edge">
<title>handle_tag_type&#45;&gt;explicit_tag</title>
<path fill="none" stroke="black" d="M261.43,-396.31C246.28,-384.83 223.88,-367.85 203.24,-352.21"/>
<polygon fill="black" stroke="black" points="205.22,-349.32 195.14,-346.07 200.99,-354.9 205.22,-349.32"/>
<text text-anchor="middle" x="255" y="-367" font-family="Times,serif" font-size="10.00">有显式标签</text>
</g>
<!-- generate_tag -->
<g id="node11" class="node">
<title>generate_tag</title>
<path fill="none" stroke="black" d="M346,-338.5C346,-338.5 259,-338.5 259,-338.5 253,-338.5 247,-332.5 247,-326.5 247,-326.5 247,-297.5 247,-297.5 247,-291.5 253,-285.5 259,-285.5 259,-285.5 346,-285.5 346,-285.5 352,-285.5 358,-291.5 358,-297.5 358,-297.5 358,-326.5 358,-326.5 358,-332.5 352,-338.5 346,-338.5"/>
<text text-anchor="middle" x="302.5" y="-323.3" font-family="Times,serif" font-size="14.00">生成标签类型:</text>
<text text-anchor="middle" x="302.5" y="-308.3" font-family="Times,serif" font-size="14.00">&#45; 收集字段名</text>
<text text-anchor="middle" x="302.5" y="-293.3" font-family="Times,serif" font-size="14.00">&#45; 创建枚举类型</text>
</g>
<!-- handle_tag_type&#45;&gt;generate_tag -->
<g id="edge10" class="edge">
<title>handle_tag_type&#45;&gt;generate_tag</title>
<path fill="none" stroke="black" d="M283.4,-393.55C286.32,-381.22 290.43,-363.89 294.09,-348.47"/>
<polygon fill="black" stroke="black" points="297.51,-349.22 296.41,-338.68 290.7,-347.6 297.51,-349.22"/>
<text text-anchor="middle" x="314" y="-367" font-family="Times,serif" font-size="10.00">无显式标签</text>
</g>
<!-- check_field_types -->
<g id="node12" class="node">
<title>check_field_types</title>
<path fill="none" stroke="black" d="M209,-241C209,-241 12,-241 12,-241 6,-241 0,-235 0,-229 0,-229 0,-200 0,-200 0,-194 6,-188 12,-188 12,-188 209,-188 209,-188 215,-188 221,-194 221,-200 221,-200 221,-229 221,-229 221,-235 215,-241 209,-241"/>
<text text-anchor="middle" x="110.5" y="-225.8" font-family="Times,serif" font-size="14.00">检查每个字段类型:</text>
<text text-anchor="middle" x="110.5" y="-210.8" font-family="Times,serif" font-size="14.00">&#45; 不允许 opaque 类型</text>
<text text-anchor="middle" x="110.5" y="-195.8" font-family="Times,serif" font-size="14.00">&#45; 符合 extern/packed 布局要求</text>
</g>
<!-- explicit_tag&#45;&gt;check_field_types -->
<g id="edge11" class="edge">
<title>explicit_tag&#45;&gt;check_field_types</title>
<path fill="none" stroke="black" d="M137.28,-277.87C133.47,-269 129.35,-259.4 125.5,-250.44"/>
<polygon fill="black" stroke="black" points="128.63,-248.85 121.47,-241.05 122.2,-251.61 128.63,-248.85"/>
</g>
<!-- explicit_tag&#45;&gt;error_handling -->
<g id="edge17" class="edge">
<title>explicit_tag&#45;&gt;error_handling</title>
<path fill="none" stroke="black" d="M191.47,-277.95C204.15,-266.74 217.88,-253.8 229.5,-241 249.15,-219.34 250.61,-211.13 268.5,-188 282.82,-169.49 299.47,-149.01 312.34,-133.41"/>
<polygon fill="black" stroke="black" points="315.38,-135.22 319.06,-125.29 309.98,-130.76 315.38,-135.22"/>
<text text-anchor="middle" x="288.5" y="-212" font-family="Times,serif" font-size="10.00">验证失败</text>
</g>
<!-- generate_tag&#45;&gt;check_field_types -->
<g id="edge12" class="edge">
<title>generate_tag&#45;&gt;check_field_types</title>
<path fill="none" stroke="black" d="M252.14,-285.36C247.2,-282.86 242.25,-280.38 237.5,-278 216.15,-267.33 192.72,-255.76 171.86,-245.51"/>
<polygon fill="black" stroke="black" points="173.3,-242.32 162.78,-241.05 170.22,-248.6 173.3,-242.32"/>
</g>
<!-- generate_tag&#45;&gt;error_handling -->
<g id="edge18" class="edge">
<title>generate_tag&#45;&gt;error_handling</title>
<path fill="none" stroke="black" d="M306.43,-285.29C312.31,-246.78 323.35,-174.47 329.35,-135.15"/>
<polygon fill="black" stroke="black" points="332.82,-135.63 330.87,-125.21 325.9,-134.57 332.82,-135.63"/>
<text text-anchor="middle" x="340.5" y="-212" font-family="Times,serif" font-size="10.00">生成失败</text>
</g>
<!-- setup_union -->
<g id="node13" class="node">
<title>setup_union</title>
<path fill="none" stroke="black" d="M166,-141C166,-141 55,-141 55,-141 49,-141 43,-135 43,-129 43,-129 43,-85 43,-85 43,-79 49,-73 55,-73 55,-73 166,-73 166,-73 172,-73 178,-79 178,-85 178,-85 178,-129 178,-129 178,-135 172,-141 166,-141"/>
<text text-anchor="middle" x="110.5" y="-125.8" font-family="Times,serif" font-size="14.00">设置联合类型信息:</text>
<text text-anchor="middle" x="110.5" y="-110.8" font-family="Times,serif" font-size="14.00">&#45; 字段类型/对齐</text>
<text text-anchor="middle" x="110.5" y="-95.8" font-family="Times,serif" font-size="14.00">&#45; 标签类型</text>
<text text-anchor="middle" x="110.5" y="-80.8" font-family="Times,serif" font-size="14.00">&#45; 完成类型构建</text>
</g>
<!-- check_field_types&#45;&gt;setup_union -->
<g id="edge13" class="edge">
<title>check_field_types&#45;&gt;setup_union</title>
<path fill="none" stroke="black" d="M110.5,-187.96C110.5,-177 110.5,-163.89 110.5,-151.48"/>
<polygon fill="black" stroke="black" points="114,-151.29 110.5,-141.29 107,-151.29 114,-151.29"/>
<text text-anchor="middle" x="140" y="-162" font-family="Times,serif" font-size="10.00">所有字段有效</text>
</g>
<!-- check_field_types&#45;&gt;error_handling -->
<g id="edge19" class="edge">
<title>check_field_types&#45;&gt;error_handling</title>
<path fill="none" stroke="black" d="M150.95,-187.94C167,-178.29 185.82,-167.58 203.5,-159 230.94,-145.68 262.8,-133.14 288.12,-123.82"/>
<polygon fill="black" stroke="black" points="289.62,-127 297.82,-120.29 287.23,-120.42 289.62,-127"/>
<text text-anchor="middle" x="223.5" y="-162" font-family="Times,serif" font-size="10.00">类型无效</text>
</g>
<!-- return_result -->
<g id="node14" class="node">
<title>return_result</title>
<path fill="none" stroke="black" d="M150,-36C150,-36 71,-36 71,-36 65,-36 59,-30 59,-24 59,-24 59,-12 59,-12 59,-6 65,0 71,0 71,0 150,0 150,0 156,0 162,-6 162,-12 162,-12 162,-24 162,-24 162,-30 156,-36 150,-36"/>
<text text-anchor="middle" x="110.5" y="-14.3" font-family="Times,serif" font-size="14.00">返回 Air 引用</text>
</g>
<!-- setup_union&#45;&gt;return_result -->
<g id="edge14" class="edge">
<title>setup_union&#45;&gt;return_result</title>
<path fill="none" stroke="black" d="M110.5,-72.61C110.5,-63.85 110.5,-54.51 110.5,-46.12"/>
<polygon fill="black" stroke="black" points="114,-46.12 110.5,-36.12 107,-46.12 114,-46.12"/>
</g>
</g>
</svg>
