<?xml version="1.0" encoding="UTF-8" standalone="no"?>
<!DOCTYPE svg PUBLIC "-//W3C//DTD SVG 1.1//EN"
 "http://www.w3.org/Graphics/SVG/1.1/DTD/svg11.dtd">
<!-- Generated by graphviz version 2.43.0 (0)
 -->
<!-- Title: analyzeMinMax Pages: 1 -->
<svg width="756pt" height="1056pt"
 viewBox="0.00 0.00 756.00 1056.00" xmlns="http://www.w3.org/2000/svg" xmlns:xlink="http://www.w3.org/1999/xlink">
<g id="graph0" class="graph" transform="scale(1 1) rotate(0) translate(4 1052)">
<title>analyzeMinMax</title>
<polygon fill="white" stroke="transparent" points="-4,4 -4,-1052 752,-1052 752,4 -4,4"/>
<!-- start -->
<g id="node1" class="node">
<title>start</title>
<path fill="none" stroke="black" d="M272.5,-1048C272.5,-1048 152.5,-1048 152.5,-1048 146.5,-1048 140.5,-1042 140.5,-1036 140.5,-1036 140.5,-1024 140.5,-1024 140.5,-1018 146.5,-1012 152.5,-1012 152.5,-1012 272.5,-1012 272.5,-1012 278.5,-1012 284.5,-1018 284.5,-1024 284.5,-1024 284.5,-1036 284.5,-1036 284.5,-1042 278.5,-1048 272.5,-1048"/>
<text text-anchor="middle" x="212.5" y="-1026.3" font-family="Arial" font-size="14.00">Start analyzeMinMax</text>
</g>
<!-- check_operands_len -->
<g id="node2" class="node">
<title>check_operands_len</title>
<path fill="none" stroke="black" d="M280.5,-975C280.5,-975 144.5,-975 144.5,-975 138.5,-975 132.5,-969 132.5,-963 132.5,-963 132.5,-951 132.5,-951 132.5,-945 138.5,-939 144.5,-939 144.5,-939 280.5,-939 280.5,-939 286.5,-939 292.5,-945 292.5,-951 292.5,-951 292.5,-963 292.5,-963 292.5,-969 286.5,-975 280.5,-975"/>
<text text-anchor="middle" x="212.5" y="-953.3" font-family="Arial" font-size="14.00">Check operands.len &gt; 0</text>
</g>
<!-- start&#45;&gt;check_operands_len -->
<g id="edge1" class="edge">
<title>start&#45;&gt;check_operands_len</title>
<path fill="none" stroke="black" d="M212.5,-1011.81C212.5,-1003.79 212.5,-994.05 212.5,-985.07"/>
<polygon fill="black" stroke="black" points="216,-985.03 212.5,-975.03 209,-985.03 216,-985.03"/>
</g>
<!-- return_single_operand -->
<g id="node3" class="node">
<title>return_single_operand</title>
<path fill="none" stroke="black" d="M193,-834C193,-834 12,-834 12,-834 6,-834 0,-828 0,-822 0,-822 0,-810 0,-810 0,-804 6,-798 12,-798 12,-798 193,-798 193,-798 199,-798 205,-804 205,-810 205,-810 205,-822 205,-822 205,-828 199,-834 193,-834"/>
<text text-anchor="middle" x="102.5" y="-812.3" font-family="Arial" font-size="14.00">Return operands[0] (if len == 1)</text>
</g>
<!-- check_operands_len&#45;&gt;return_single_operand -->
<g id="edge2" class="edge">
<title>check_operands_len&#45;&gt;return_single_operand</title>
<path fill="none" stroke="black" d="M176.04,-938.85C167.95,-933.89 159.88,-927.91 153.5,-921 132.91,-898.71 118.88,-866.56 110.82,-843.93"/>
<polygon fill="black" stroke="black" points="114.07,-842.61 107.54,-834.26 107.44,-844.86 114.07,-842.61"/>
<text text-anchor="middle" x="208.5" y="-909.8" font-family="Arial" font-size="14.00">operands.len == 1</text>
</g>
<!-- select_opFunc -->
<g id="node4" class="node">
<title>select_opFunc</title>
<path fill="none" stroke="black" d="M408.5,-888C408.5,-888 264.5,-888 264.5,-888 258.5,-888 252.5,-882 252.5,-876 252.5,-876 252.5,-864 252.5,-864 252.5,-858 258.5,-852 264.5,-852 264.5,-852 408.5,-852 408.5,-852 414.5,-852 420.5,-858 420.5,-864 420.5,-864 420.5,-876 420.5,-876 420.5,-882 414.5,-888 408.5,-888"/>
<text text-anchor="middle" x="336.5" y="-866.3" font-family="Arial" font-size="14.00">Select opFunc (min/max)</text>
</g>
<!-- check_operands_len&#45;&gt;select_opFunc -->
<g id="edge3" class="edge">
<title>check_operands_len&#45;&gt;select_opFunc</title>
<path fill="none" stroke="black" d="M237.59,-938.8C256.42,-925.9 282.38,-908.1 302.98,-893.98"/>
<polygon fill="black" stroke="black" points="305.17,-896.72 311.44,-888.18 301.22,-890.94 305.17,-896.72"/>
<text text-anchor="middle" x="333.5" y="-909.8" font-family="Arial" font-size="14.00">operands.len &gt; 1</text>
</g>
<!-- return_result -->
<g id="node20" class="node">
<title>return_result</title>
<path fill="none" stroke="black" d="M229.5,-196C229.5,-196 159.5,-196 159.5,-196 153.5,-196 147.5,-190 147.5,-184 147.5,-184 147.5,-172 147.5,-172 147.5,-166 153.5,-160 159.5,-160 159.5,-160 229.5,-160 229.5,-160 235.5,-160 241.5,-166 241.5,-172 241.5,-172 241.5,-184 241.5,-184 241.5,-190 235.5,-196 229.5,-196"/>
<text text-anchor="middle" x="194.5" y="-174.3" font-family="Arial" font-size="14.00">Return result</text>
</g>
<!-- return_single_operand&#45;&gt;return_result -->
<g id="edge24" class="edge">
<title>return_single_operand&#45;&gt;return_result</title>
<path fill="none" stroke="black" d="M98.79,-797.86C94.06,-774.5 86.5,-731.29 86.5,-694 86.5,-694 86.5,-694 86.5,-285 86.5,-247.86 119.44,-219.41 148.93,-201.38"/>
<polygon fill="black" stroke="black" points="151.07,-204.19 157.94,-196.13 147.54,-198.15 151.07,-204.19"/>
</g>
<!-- init_vars -->
<g id="node5" class="node">
<title>init_vars</title>
<path fill="none" stroke="black" d="M414,-780C414,-780 311,-780 311,-780 305,-780 299,-774 299,-768 299,-768 299,-724 299,-724 299,-718 305,-712 311,-712 311,-712 414,-712 414,-712 420,-712 426,-718 426,-724 426,-724 426,-768 426,-768 426,-774 420,-780 414,-780"/>
<text text-anchor="middle" x="362.5" y="-764.8" font-family="Arial" font-size="14.00">Initialize variables:</text>
<text text-anchor="middle" x="362.5" y="-749.8" font-family="Arial" font-size="14.00">&#45; runtime_known</text>
<text text-anchor="middle" x="362.5" y="-734.8" font-family="Arial" font-size="14.00">&#45; cur_minmax</text>
<text text-anchor="middle" x="362.5" y="-719.8" font-family="Arial" font-size="14.00">&#45; bounds_status</text>
</g>
<!-- select_opFunc&#45;&gt;init_vars -->
<g id="edge4" class="edge">
<title>select_opFunc&#45;&gt;init_vars</title>
<path fill="none" stroke="black" d="M340.17,-851.78C343.58,-835.79 348.79,-811.32 353.33,-790.04"/>
<polygon fill="black" stroke="black" points="356.76,-790.73 355.42,-780.22 349.91,-789.27 356.76,-790.73"/>
</g>
<!-- loop_operands -->
<g id="node6" class="node">
<title>loop_operands</title>
<path fill="none" stroke="black" d="M455,-675C455,-675 342,-675 342,-675 336,-675 330,-669 330,-663 330,-663 330,-651 330,-651 330,-645 336,-639 342,-639 342,-639 455,-639 455,-639 461,-639 467,-645 467,-651 467,-651 467,-663 467,-663 467,-669 461,-675 455,-675"/>
<text text-anchor="middle" x="398.5" y="-653.3" font-family="Arial" font-size="14.00">Loop over operands</text>
</g>
<!-- init_vars&#45;&gt;loop_operands -->
<g id="edge5" class="edge">
<title>init_vars&#45;&gt;loop_operands</title>
<path fill="none" stroke="black" d="M376.32,-711.61C380.02,-702.66 383.98,-693.1 387.51,-684.57"/>
<polygon fill="black" stroke="black" points="390.82,-685.7 391.41,-675.12 384.36,-683.03 390.82,-685.7"/>
</g>
<!-- resolve_value -->
<g id="node7" class="node">
<title>resolve_value</title>
<path fill="none" stroke="black" d="M628,-588C628,-588 497,-588 497,-588 491,-588 485,-582 485,-576 485,-576 485,-564 485,-564 485,-558 491,-552 497,-552 497,-552 628,-552 628,-552 634,-552 640,-558 640,-564 640,-564 640,-576 640,-576 640,-582 634,-588 628,-588"/>
<text text-anchor="middle" x="562.5" y="-566.3" font-family="Arial" font-size="14.00">Resolve operand value</text>
</g>
<!-- loop_operands&#45;&gt;resolve_value -->
<g id="edge6" class="edge">
<title>loop_operands&#45;&gt;resolve_value</title>
<path fill="none" stroke="black" d="M431.69,-638.8C457.34,-625.51 493,-607.02 520.61,-592.71"/>
<polygon fill="black" stroke="black" points="522.37,-595.74 529.64,-588.03 519.15,-589.52 522.37,-595.74"/>
<text text-anchor="middle" x="543" y="-609.8" font-family="Arial" font-size="14.00">For each operand</text>
</g>
<!-- runtime_idx_check -->
<g id="node16" class="node">
<title>runtime_idx_check</title>
<path fill="none" stroke="black" d="M387.5,-588C387.5,-588 233.5,-588 233.5,-588 227.5,-588 221.5,-582 221.5,-576 221.5,-576 221.5,-564 221.5,-564 221.5,-558 227.5,-552 233.5,-552 233.5,-552 387.5,-552 387.5,-552 393.5,-552 399.5,-558 399.5,-564 399.5,-564 399.5,-576 399.5,-576 399.5,-582 393.5,-588 387.5,-588"/>
<text text-anchor="middle" x="310.5" y="-566.3" font-family="Arial" font-size="14.00">Check if runtime_idx exists</text>
</g>
<!-- loop_operands&#45;&gt;runtime_idx_check -->
<g id="edge17" class="edge">
<title>loop_operands&#45;&gt;runtime_idx_check</title>
<path fill="none" stroke="black" d="M380.69,-638.8C367.81,-626.36 350.22,-609.36 335.87,-595.5"/>
<polygon fill="black" stroke="black" points="337.91,-592.61 328.28,-588.18 333.04,-597.64 337.91,-592.61"/>
<text text-anchor="middle" x="388" y="-609.8" font-family="Arial" font-size="14.00">Loop end</text>
</g>
<!-- update_runtime_known -->
<g id="node8" class="node">
<title>update_runtime_known</title>
<path fill="none" stroke="black" d="M694,-501C694,-501 475,-501 475,-501 469,-501 463,-495 463,-489 463,-489 463,-477 463,-477 463,-471 469,-465 475,-465 475,-465 694,-465 694,-465 700,-465 706,-471 706,-477 706,-477 706,-489 706,-489 706,-495 700,-501 694,-501"/>
<text text-anchor="middle" x="584.5" y="-479.3" font-family="Arial" font-size="14.00">Mark operand as compile&#45;time known</text>
</g>
<!-- resolve_value&#45;&gt;update_runtime_known -->
<g id="edge7" class="edge">
<title>resolve_value&#45;&gt;update_runtime_known</title>
<path fill="none" stroke="black" d="M566.95,-551.8C569.96,-540.16 574.01,-524.55 577.45,-511.24"/>
<polygon fill="black" stroke="black" points="580.94,-511.73 580.05,-501.18 574.16,-509.98 580.94,-511.73"/>
<text text-anchor="middle" x="641" y="-522.8" font-family="Arial" font-size="14.00">If compile&#45;time known</text>
</g>
<!-- check_bounds_status -->
<g id="node9" class="node">
<title>check_bounds_status</title>
<path fill="none" stroke="black" d="M675.5,-393C675.5,-393 493.5,-393 493.5,-393 487.5,-393 481.5,-387 481.5,-381 481.5,-381 481.5,-367 481.5,-367 481.5,-361 487.5,-355 493.5,-355 493.5,-355 675.5,-355 675.5,-355 681.5,-355 687.5,-361 687.5,-367 687.5,-367 687.5,-381 687.5,-381 687.5,-387 681.5,-393 675.5,-393"/>
<text text-anchor="middle" x="584.5" y="-377.8" font-family="Arial" font-size="14.00">Check bounds_status</text>
<text text-anchor="middle" x="584.5" y="-362.8" font-family="Arial" font-size="14.00">(unknown/defined/non_integral)</text>
</g>
<!-- update_runtime_known&#45;&gt;check_bounds_status -->
<g id="edge8" class="edge">
<title>update_runtime_known&#45;&gt;check_bounds_status</title>
<path fill="none" stroke="black" d="M584.5,-464.81C584.5,-448.26 584.5,-422.94 584.5,-403.39"/>
<polygon fill="black" stroke="black" points="588,-403.22 584.5,-393.22 581,-403.22 588,-403.22"/>
</g>
<!-- handle_scalar_bounds -->
<g id="node10" class="node">
<title>handle_scalar_bounds</title>
<path fill="none" stroke="black" d="M603,-250C603,-250 466,-250 466,-250 460,-250 454,-244 454,-238 454,-238 454,-226 454,-226 454,-220 460,-214 466,-214 466,-214 603,-214 603,-214 609,-214 615,-220 615,-226 615,-226 615,-238 615,-238 615,-244 609,-250 603,-250"/>
<text text-anchor="middle" x="534.5" y="-228.3" font-family="Arial" font-size="14.00">Calculate scalar bounds</text>
</g>
<!-- check_bounds_status&#45;&gt;handle_scalar_bounds -->
<g id="edge9" class="edge">
<title>check_bounds_status&#45;&gt;handle_scalar_bounds</title>
<path fill="none" stroke="black" d="M551.54,-354.69C545.51,-349.76 540.01,-343.86 536.5,-337 524.33,-313.24 525.55,-282.25 528.75,-260.29"/>
<polygon fill="black" stroke="black" points="532.22,-260.76 530.43,-250.31 525.32,-259.59 532.22,-260.76"/>
<text text-anchor="middle" x="588" y="-325.8" font-family="Arial" font-size="14.00">unknown/defined</text>
</g>
<!-- handle_vector -->
<g id="node13" class="node">
<title>handle_vector</title>
<path fill="none" stroke="black" d="M736,-304C736,-304 595,-304 595,-304 589,-304 583,-298 583,-292 583,-292 583,-280 583,-280 583,-274 589,-268 595,-268 595,-268 736,-268 736,-268 742,-268 748,-274 748,-280 748,-280 748,-292 748,-292 748,-298 742,-304 736,-304"/>
<text text-anchor="middle" x="665.5" y="-282.3" font-family="Arial" font-size="14.00">Process vector elements</text>
</g>
<!-- check_bounds_status&#45;&gt;handle_vector -->
<g id="edge11" class="edge">
<title>check_bounds_status&#45;&gt;handle_vector</title>
<path fill="none" stroke="black" d="M622.08,-354.81C629.86,-349.82 637.5,-343.86 643.5,-337 649.36,-330.3 653.88,-321.8 657.25,-313.71"/>
<polygon fill="black" stroke="black" points="660.59,-314.79 660.82,-304.2 654.03,-312.33 660.59,-314.79"/>
<text text-anchor="middle" x="690" y="-325.8" font-family="Arial" font-size="14.00">non_integral</text>
</g>
<!-- update_cur_minmax -->
<g id="node11" class="node">
<title>update_cur_minmax</title>
<path fill="none" stroke="black" d="M631.5,-36C631.5,-36 435.5,-36 435.5,-36 429.5,-36 423.5,-30 423.5,-24 423.5,-24 423.5,-12 423.5,-12 423.5,-6 429.5,0 435.5,0 435.5,0 631.5,0 631.5,0 637.5,0 643.5,-6 643.5,-12 643.5,-12 643.5,-24 643.5,-24 643.5,-30 637.5,-36 631.5,-36"/>
<text text-anchor="middle" x="533.5" y="-14.3" font-family="Arial" font-size="14.00">Update cur_minmax with operand</text>
</g>
<!-- handle_scalar_bounds&#45;&gt;update_cur_minmax -->
<g id="edge10" class="edge">
<title>handle_scalar_bounds&#45;&gt;update_cur_minmax</title>
<path fill="none" stroke="black" d="M534.42,-213.65C534.24,-176.83 533.84,-90.64 533.63,-46.34"/>
<polygon fill="black" stroke="black" points="537.13,-46.27 533.58,-36.29 530.13,-46.31 537.13,-46.27"/>
</g>
<!-- update_cur_minmax&#45;&gt;loop_operands -->
<g id="edge16" class="edge">
<title>update_cur_minmax&#45;&gt;loop_operands</title>
<path fill="none" stroke="black" d="M479.94,-36.06C456.62,-47.15 434.5,-64.41 434.5,-90 434.5,-571 434.5,-571 434.5,-571 434.5,-592.03 425.04,-613.84 415.82,-630.1"/>
<polygon fill="black" stroke="black" points="412.63,-628.61 410.49,-638.98 418.63,-632.21 412.63,-628.61"/>
<text text-anchor="middle" x="475.5" y="-325.8" font-family="Arial" font-size="14.00">Next operand</text>
</g>
<!-- check_simd_op -->
<g id="node12" class="node">
<title>check_simd_op</title>
<path fill="none" stroke="black" d="M703,-196C703,-196 574,-196 574,-196 568,-196 562,-190 562,-184 562,-184 562,-172 562,-172 562,-166 568,-160 574,-160 574,-160 703,-160 703,-160 709,-160 715,-166 715,-172 715,-172 715,-184 715,-184 715,-190 709,-196 703,-196"/>
<text text-anchor="middle" x="638.5" y="-174.3" font-family="Arial" font-size="14.00">Check SIMD operands</text>
</g>
<!-- check_simd_op&#45;&gt;handle_vector -->
<g id="edge13" class="edge">
<title>check_simd_op&#45;&gt;handle_vector</title>
<path fill="none" stroke="black" d="M634.14,-196.22C631.24,-210.97 629.04,-232.53 635.5,-250 636.73,-253.33 638.44,-256.55 640.41,-259.61"/>
<polygon fill="black" stroke="black" points="637.72,-261.86 646.54,-267.74 643.31,-257.64 637.72,-261.86"/>
<text text-anchor="middle" x="682.5" y="-228.3" font-family="Arial" font-size="14.00">Vector detected</text>
</g>
<!-- handle_scalar -->
<g id="node14" class="node">
<title>handle_scalar</title>
<path fill="none" stroke="black" d="M694,-109C694,-109 577,-109 577,-109 571,-109 565,-103 565,-97 565,-97 565,-85 565,-85 565,-79 571,-73 577,-73 577,-73 694,-73 694,-73 700,-73 706,-79 706,-85 706,-85 706,-97 706,-97 706,-103 700,-109 694,-109"/>
<text text-anchor="middle" x="635.5" y="-87.3" font-family="Arial" font-size="14.00">Process scalar value</text>
</g>
<!-- check_simd_op&#45;&gt;handle_scalar -->
<g id="edge14" class="edge">
<title>check_simd_op&#45;&gt;handle_scalar</title>
<path fill="none" stroke="black" d="M637.89,-159.8C637.48,-148.16 636.93,-132.55 636.46,-119.24"/>
<polygon fill="black" stroke="black" points="639.96,-119.05 636.11,-109.18 632.96,-119.29 639.96,-119.05"/>
<text text-anchor="middle" x="683.5" y="-130.8" font-family="Arial" font-size="14.00">Scalar detected</text>
</g>
<!-- handle_vector&#45;&gt;check_simd_op -->
<g id="edge12" class="edge">
<title>handle_vector&#45;&gt;check_simd_op</title>
<path fill="none" stroke="black" d="M715.07,-267.93C722.41,-263.25 729.01,-257.37 733.5,-250 741.83,-236.34 742.65,-227.12 733.5,-214 730.3,-209.4 726.42,-205.41 722.08,-201.94"/>
<polygon fill="black" stroke="black" points="724.05,-199.04 713.83,-196.24 720.07,-204.8 724.05,-199.04"/>
</g>
<!-- handle_scalar&#45;&gt;update_cur_minmax -->
<g id="edge15" class="edge">
<title>handle_scalar&#45;&gt;update_cur_minmax</title>
<path fill="none" stroke="black" d="M611.07,-72.99C597.67,-63.67 580.87,-51.97 566.34,-41.86"/>
<polygon fill="black" stroke="black" points="568.29,-38.95 558.09,-36.11 564.29,-44.7 568.29,-38.95"/>
</g>
<!-- refine_type -->
<g id="node15" class="node">
<title>refine_type</title>
<path fill="none" stroke="black" d="M281.5,-447C281.5,-447 113.5,-447 113.5,-447 107.5,-447 101.5,-441 101.5,-435 101.5,-435 101.5,-423 101.5,-423 101.5,-417 107.5,-411 113.5,-411 113.5,-411 281.5,-411 281.5,-411 287.5,-411 293.5,-417 293.5,-423 293.5,-423 293.5,-435 293.5,-435 293.5,-441 287.5,-447 281.5,-447"/>
<text text-anchor="middle" x="197.5" y="-425.3" font-family="Arial" font-size="14.00">Refine type based on bounds</text>
</g>
<!-- refine_type&#45;&gt;return_result -->
<g id="edge23" class="edge">
<title>refine_type&#45;&gt;return_result</title>
<path fill="none" stroke="black" d="M197.29,-410.89C196.78,-368.42 195.45,-257.92 194.83,-206.31"/>
<polygon fill="black" stroke="black" points="198.33,-206.19 194.71,-196.23 191.33,-206.28 198.33,-206.19"/>
</g>
<!-- runtime_idx_check&#45;&gt;refine_type -->
<g id="edge18" class="edge">
<title>runtime_idx_check&#45;&gt;refine_type</title>
<path fill="none" stroke="black" d="M236.92,-551.8C228.41,-547.2 220.61,-541.38 214.5,-534 196.87,-512.71 194.13,-480.33 194.84,-457.36"/>
<polygon fill="black" stroke="black" points="198.34,-457.42 195.4,-447.24 191.36,-457.03 198.34,-457.42"/>
<text text-anchor="middle" x="260.5" y="-522.8" font-family="Arial" font-size="14.00">No runtime_idx</text>
</g>
<!-- require_runtime_block -->
<g id="node17" class="node">
<title>require_runtime_block</title>
<path fill="none" stroke="black" d="M373,-501C373,-501 248,-501 248,-501 242,-501 236,-495 236,-489 236,-489 236,-477 236,-477 236,-471 242,-465 248,-465 248,-465 373,-465 373,-465 379,-465 385,-471 385,-477 385,-477 385,-489 385,-489 385,-495 379,-501 373,-501"/>
<text text-anchor="middle" x="310.5" y="-479.3" font-family="Arial" font-size="14.00">Require runtime block</text>
</g>
<!-- runtime_idx_check&#45;&gt;require_runtime_block -->
<g id="edge19" class="edge">
<title>runtime_idx_check&#45;&gt;require_runtime_block</title>
<path fill="none" stroke="black" d="M310.5,-551.8C310.5,-540.16 310.5,-524.55 310.5,-511.24"/>
<polygon fill="black" stroke="black" points="314,-511.18 310.5,-501.18 307,-511.18 314,-511.18"/>
<text text-anchor="middle" x="365" y="-522.8" font-family="Arial" font-size="14.00">runtime_idx exists</text>
</g>
<!-- handle_runtime_operands -->
<g id="node18" class="node">
<title>handle_runtime_operands</title>
<path fill="none" stroke="black" d="M386,-392C386,-392 235,-392 235,-392 229,-392 223,-386 223,-380 223,-380 223,-368 223,-368 223,-362 229,-356 235,-356 235,-356 386,-356 386,-356 392,-356 398,-362 398,-368 398,-368 398,-380 398,-380 398,-386 392,-392 386,-392"/>
<text text-anchor="middle" x="310.5" y="-370.3" font-family="Arial" font-size="14.00">Process runtime operands</text>
</g>
<!-- require_runtime_block&#45;&gt;handle_runtime_operands -->
<g id="edge20" class="edge">
<title>require_runtime_block&#45;&gt;handle_runtime_operands</title>
<path fill="none" stroke="black" d="M310.5,-464.81C310.5,-447.96 310.5,-422.02 310.5,-402.34"/>
<polygon fill="black" stroke="black" points="314,-402.15 310.5,-392.15 307,-402.15 314,-402.15"/>
</g>
<!-- final_refinement -->
<g id="node19" class="node">
<title>final_refinement</title>
<path fill="none" stroke="black" d="M358,-304C358,-304 239,-304 239,-304 233,-304 227,-298 227,-292 227,-292 227,-280 227,-280 227,-274 233,-268 239,-268 239,-268 358,-268 358,-268 364,-268 370,-274 370,-280 370,-280 370,-292 370,-292 370,-298 364,-304 358,-304"/>
<text text-anchor="middle" x="298.5" y="-282.3" font-family="Arial" font-size="14.00">Final type refinement</text>
</g>
<!-- handle_runtime_operands&#45;&gt;final_refinement -->
<g id="edge21" class="edge">
<title>handle_runtime_operands&#45;&gt;final_refinement</title>
<path fill="none" stroke="black" d="M308.07,-355.6C306.42,-343.75 304.2,-327.82 302.31,-314.29"/>
<polygon fill="black" stroke="black" points="305.73,-313.5 300.88,-304.08 298.8,-314.47 305.73,-313.5"/>
</g>
<!-- final_refinement&#45;&gt;return_result -->
<g id="edge22" class="edge">
<title>final_refinement&#45;&gt;return_result</title>
<path fill="none" stroke="black" d="M281.79,-267.97C264.68,-250.53 237.93,-223.26 218.55,-203.51"/>
<polygon fill="black" stroke="black" points="221.02,-201.03 211.51,-196.34 216.02,-205.93 221.02,-201.03"/>
</g>
</g>
</svg>
