<?xml version="1.0" encoding="UTF-8" standalone="no"?>
<!DOCTYPE svg PUBLIC "-//W3C//DTD SVG 1.1//EN"
 "http://www.w3.org/Graphics/SVG/1.1/DTD/svg11.dtd">
<!-- Generated by graphviz version 2.43.0 (0)
 -->
<!-- Title: flowchart Pages: 1 -->
<svg width="1621pt" height="766pt"
 viewBox="0.00 0.00 1621.00 766.00" xmlns="http://www.w3.org/2000/svg" xmlns:xlink="http://www.w3.org/1999/xlink">
<g id="graph0" class="graph" transform="scale(1 1) rotate(0) translate(4 762)">
<title>flowchart</title>
<polygon fill="white" stroke="transparent" points="-4,4 -4,-762 1617,-762 1617,4 -4,4"/>
<!-- start -->
<g id="node1" class="node">
<title>start</title>
<polygon fill="none" stroke="black" points="958.5,-758 821.5,-758 821.5,-722 958.5,-722 958.5,-758"/>
<text text-anchor="middle" x="890" y="-736.9" font-family="Courier,monospace" font-size="12.00">Start fieldVal()</text>
</g>
<!-- check_pointer -->
<g id="node2" class="node">
<title>check_pointer</title>
<polygon fill="none" stroke="black" points="1033.5,-685 746.5,-685 746.5,-649 1033.5,-649 1033.5,-685"/>
<text text-anchor="middle" x="890" y="-663.9" font-family="Courier,monospace" font-size="12.00">Check if object_ty is single pointer</text>
</g>
<!-- start&#45;&gt;check_pointer -->
<g id="edge1" class="edge">
<title>start&#45;&gt;check_pointer</title>
<path fill="none" stroke="black" d="M890,-721.81C890,-713.79 890,-704.05 890,-695.07"/>
<polygon fill="black" stroke="black" points="893.5,-695.03 890,-685.03 886.5,-695.03 893.5,-695.03"/>
</g>
<!-- inner_ty -->
<g id="node3" class="node">
<title>inner_ty</title>
<polygon fill="none" stroke="black" points="1056,-612 724,-612 724,-576 1056,-576 1056,-612"/>
<text text-anchor="middle" x="890" y="-590.9" font-family="Courier,monospace" font-size="12.00">inner_ty = pointer_child_type or object_ty</text>
</g>
<!-- check_pointer&#45;&gt;inner_ty -->
<g id="edge2" class="edge">
<title>check_pointer&#45;&gt;inner_ty</title>
<path fill="none" stroke="black" d="M890,-648.81C890,-640.79 890,-631.05 890,-622.07"/>
<polygon fill="black" stroke="black" points="893.5,-622.03 890,-612.03 886.5,-622.03 893.5,-622.03"/>
</g>
<!-- zig_type_tag -->
<g id="node4" class="node">
<title>zig_type_tag</title>
<polygon fill="none" stroke="black" points="890,-539 692.26,-521 890,-503 1087.74,-521 890,-539"/>
<text text-anchor="middle" x="890" y="-517.9" font-family="Courier,monospace" font-size="12.00">Switch inner_ty.zigTypeTag()</text>
</g>
<!-- inner_ty&#45;&gt;zig_type_tag -->
<g id="edge3" class="edge">
<title>inner_ty&#45;&gt;zig_type_tag</title>
<path fill="none" stroke="black" d="M890,-575.81C890,-567.79 890,-558.05 890,-549.07"/>
<polygon fill="black" stroke="black" points="893.5,-549.03 890,-539.03 886.5,-549.03 893.5,-549.03"/>
</g>
<!-- array_case -->
<g id="node5" class="node">
<title>array_case</title>
<polygon fill="none" stroke="black" points="695.5,-456 596.5,-456 596.5,-420 695.5,-420 695.5,-456"/>
<text text-anchor="middle" x="646" y="-434.9" font-family="Courier,monospace" font-size="12.00">Case .array</text>
</g>
<!-- zig_type_tag&#45;&gt;array_case -->
<g id="edge4" class="edge">
<title>zig_type_tag&#45;&gt;array_case</title>
<path fill="none" stroke="black" d="M849.71,-506.62C810.36,-493.56 750.04,-473.54 705.23,-458.66"/>
<polygon fill="black" stroke="black" points="706.23,-455.31 695.63,-455.48 704.02,-461.95 706.23,-455.31"/>
<text text-anchor="middle" x="800.5" y="-477" font-family="Courier,monospace" font-size="10.00">.array</text>
</g>
<!-- pointer_case -->
<g id="node11" class="node">
<title>pointer_case</title>
<polygon fill="none" stroke="black" points="1299,-456 1185,-456 1185,-420 1299,-420 1299,-456"/>
<text text-anchor="middle" x="1242" y="-434.9" font-family="Courier,monospace" font-size="12.00">Case .pointer</text>
</g>
<!-- zig_type_tag&#45;&gt;pointer_case -->
<g id="edge11" class="edge">
<title>zig_type_tag&#45;&gt;pointer_case</title>
<path fill="none" stroke="black" d="M994.87,-512.54C1040.98,-507.47 1095.36,-499.02 1143,-485 1163.1,-479.09 1184.29,-469.7 1201.9,-460.95"/>
<polygon fill="black" stroke="black" points="1203.95,-463.83 1211.28,-456.18 1200.78,-457.59 1203.95,-463.83"/>
<text text-anchor="middle" x="1195.5" y="-477" font-family="Courier,monospace" font-size="10.00">.pointer</text>
</g>
<!-- type_case -->
<g id="node16" class="node">
<title>type_case</title>
<polygon fill="none" stroke="black" points="936,-456 844,-456 844,-420 936,-420 936,-456"/>
<text text-anchor="middle" x="890" y="-434.9" font-family="Courier,monospace" font-size="12.00">Case .type</text>
</g>
<!-- zig_type_tag&#45;&gt;type_case -->
<g id="edge17" class="edge">
<title>zig_type_tag&#45;&gt;type_case</title>
<path fill="none" stroke="black" d="M890,-502.82C890,-492.19 890,-478.31 890,-466.2"/>
<polygon fill="black" stroke="black" points="893.5,-466.15 890,-456.15 886.5,-466.15 893.5,-466.15"/>
<text text-anchor="middle" x="905.5" y="-477" font-family="Courier,monospace" font-size="10.00">.type</text>
</g>
<!-- struct_case -->
<g id="node19" class="node">
<title>struct_case</title>
<polygon fill="none" stroke="black" points="292.5,-192 185.5,-192 185.5,-156 292.5,-156 292.5,-192"/>
<text text-anchor="middle" x="239" y="-170.9" font-family="Courier,monospace" font-size="12.00">Case .struct</text>
</g>
<!-- zig_type_tag&#45;&gt;struct_case -->
<g id="edge24" class="edge">
<title>zig_type_tag&#45;&gt;struct_case</title>
<path fill="none" stroke="black" d="M716.11,-518.81C487.07,-514.87 113,-499.23 113,-439 113,-439 113,-439 113,-281 113,-241.54 149.63,-213.82 183.38,-196.65"/>
<polygon fill="black" stroke="black" points="185.33,-199.6 192.8,-192.08 182.27,-193.3 185.33,-199.6"/>
<text text-anchor="middle" x="134.5" y="-362.5" font-family="Courier,monospace" font-size="10.00">.struct</text>
</g>
<!-- union_case -->
<g id="node20" class="node">
<title>union_case</title>
<polygon fill="none" stroke="black" points="1093.5,-192 994.5,-192 994.5,-156 1093.5,-156 1093.5,-192"/>
<text text-anchor="middle" x="1044" y="-170.9" font-family="Courier,monospace" font-size="12.00">Case .union</text>
</g>
<!-- zig_type_tag&#45;&gt;union_case -->
<g id="edge26" class="edge">
<title>zig_type_tag&#45;&gt;union_case</title>
<path fill="none" stroke="black" d="M963.01,-509.61C1033.29,-497.5 1129,-474.49 1129,-439 1129,-439 1129,-439 1129,-281 1129,-247.03 1102.1,-217.73 1078.56,-198.6"/>
<polygon fill="black" stroke="black" points="1080.47,-195.65 1070.43,-192.27 1076.17,-201.17 1080.47,-195.65"/>
<text text-anchor="middle" x="1147.5" y="-362.5" font-family="Courier,monospace" font-size="10.00">.union</text>
</g>
<!-- check_len -->
<g id="node6" class="node">
<title>check_len</title>
<polygon fill="none" stroke="black" points="516,-383 370.73,-365 516,-347 661.27,-365 516,-383"/>
<text text-anchor="middle" x="516" y="-361.9" font-family="Courier,monospace" font-size="12.00">field_name == &#39;len&#39;?</text>
</g>
<!-- array_case&#45;&gt;check_len -->
<g id="edge5" class="edge">
<title>array_case&#45;&gt;check_len</title>
<path fill="none" stroke="black" d="M614.86,-419.99C595.45,-409.39 570.45,-395.74 550.44,-384.81"/>
<polygon fill="black" stroke="black" points="552.1,-381.73 541.64,-380.01 548.74,-387.87 552.1,-381.73"/>
</g>
<!-- return_array_len -->
<g id="node7" class="node">
<title>return_array_len</title>
<polygon fill="none" stroke="black" points="353,-300 141,-300 141,-264 353,-264 353,-300"/>
<text text-anchor="middle" x="247" y="-278.9" font-family="Courier,monospace" font-size="12.00">Return arrayLen() as usize</text>
</g>
<!-- check_len&#45;&gt;return_array_len -->
<g id="edge6" class="edge">
<title>check_len&#45;&gt;return_array_len</title>
<path fill="none" stroke="black" d="M475.73,-351.87C432.77,-338.94 364.03,-318.24 313.12,-302.91"/>
<polygon fill="black" stroke="black" points="314.09,-299.55 303.5,-300.01 312.07,-306.25 314.09,-299.55"/>
<text text-anchor="middle" x="406.5" y="-321" font-family="Courier,monospace" font-size="10.00">Yes</text>
</g>
<!-- check_ptr -->
<g id="node8" class="node">
<title>check_ptr</title>
<polygon fill="none" stroke="black" points="516,-300 370.73,-282 516,-264 661.27,-282 516,-300"/>
<text text-anchor="middle" x="516" y="-278.9" font-family="Courier,monospace" font-size="12.00">field_name == &#39;ptr&#39;?</text>
</g>
<!-- check_len&#45;&gt;check_ptr -->
<g id="edge7" class="edge">
<title>check_len&#45;&gt;check_ptr</title>
<path fill="none" stroke="black" d="M516,-346.82C516,-336.19 516,-322.31 516,-310.2"/>
<polygon fill="black" stroke="black" points="519.5,-310.15 516,-300.15 512.5,-310.15 519.5,-310.15"/>
<text text-anchor="middle" x="522.5" y="-321" font-family="Courier,monospace" font-size="10.00">No</text>
</g>
<!-- handle_ptr -->
<g id="node9" class="node">
<title>handle_ptr</title>
<polygon fill="none" stroke="black" points="595.5,-192 436.5,-192 436.5,-156 595.5,-156 595.5,-192"/>
<text text-anchor="middle" x="516" y="-177.4" font-family="Courier,monospace" font-size="12.00">Create pointer type</text>
<text text-anchor="middle" x="516" y="-164.4" font-family="Courier,monospace" font-size="12.00">and coerce object</text>
</g>
<!-- check_ptr&#45;&gt;handle_ptr -->
<g id="edge8" class="edge">
<title>check_ptr&#45;&gt;handle_ptr</title>
<path fill="none" stroke="black" d="M516,-263.97C516,-247.38 516,-221.88 516,-202.43"/>
<polygon fill="black" stroke="black" points="519.5,-202.34 516,-192.34 512.5,-202.34 519.5,-202.34"/>
<text text-anchor="middle" x="525.5" y="-225.5" font-family="Courier,monospace" font-size="10.00">Yes</text>
</g>
<!-- array_fail -->
<g id="node10" class="node">
<title>array_fail</title>
<polygon fill="none" stroke="black" points="795.5,-192 636.5,-192 636.5,-156 795.5,-156 795.5,-192"/>
<text text-anchor="middle" x="716" y="-170.9" font-family="Courier,monospace" font-size="12.00">Fail: Invalid field</text>
</g>
<!-- check_ptr&#45;&gt;array_fail -->
<g id="edge9" class="edge">
<title>check_ptr&#45;&gt;array_fail</title>
<path fill="none" stroke="black" d="M542.15,-267.14C575.94,-249.23 635.15,-217.85 674.96,-196.75"/>
<polygon fill="black" stroke="black" points="676.7,-199.79 683.89,-192.02 673.42,-193.61 676.7,-199.79"/>
<text text-anchor="middle" x="651.5" y="-225.5" font-family="Courier,monospace" font-size="10.00">No</text>
</g>
<!-- error_handling -->
<g id="node23" class="node">
<title>error_handling</title>
<polygon fill="none" stroke="black" points="981,-109 799,-109 799,-73 981,-73 981,-109"/>
<text text-anchor="middle" x="890" y="-87.9" font-family="Courier,monospace" font-size="12.00">Generate compile error</text>
</g>
<!-- array_fail&#45;&gt;error_handling -->
<g id="edge10" class="edge">
<title>array_fail&#45;&gt;error_handling</title>
<path fill="none" stroke="black" d="M752.9,-155.82C779.52,-143.43 815.63,-126.62 844.11,-113.36"/>
<polygon fill="black" stroke="black" points="845.86,-116.41 853.45,-109.01 842.91,-110.06 845.86,-116.41"/>
</g>
<!-- is_slice -->
<g id="node12" class="node">
<title>is_slice</title>
<polygon fill="none" stroke="black" points="1331,-383 1205.78,-365 1331,-347 1456.22,-365 1331,-383"/>
<text text-anchor="middle" x="1331" y="-361.9" font-family="Courier,monospace" font-size="12.00">Is slice pointer?</text>
</g>
<!-- pointer_case&#45;&gt;is_slice -->
<g id="edge12" class="edge">
<title>pointer_case&#45;&gt;is_slice</title>
<path fill="none" stroke="black" d="M1263.54,-419.81C1275.87,-409.98 1291.42,-397.57 1304.49,-387.15"/>
<polygon fill="black" stroke="black" points="1307.03,-389.6 1312.66,-380.63 1302.66,-384.13 1307.03,-389.6"/>
</g>
<!-- slice_ptr -->
<g id="node13" class="node">
<title>slice_ptr</title>
<polygon fill="none" stroke="black" points="1294.5,-300 1157.5,-300 1157.5,-264 1294.5,-264 1294.5,-300"/>
<text text-anchor="middle" x="1226" y="-278.9" font-family="Courier,monospace" font-size="12.00">Return slice.ptr</text>
</g>
<!-- is_slice&#45;&gt;slice_ptr -->
<g id="edge13" class="edge">
<title>is_slice&#45;&gt;slice_ptr</title>
<path fill="none" stroke="black" d="M1268.25,-356.01C1252.32,-350.86 1236.93,-342.51 1227,-329 1223.09,-323.68 1221.6,-317 1221.37,-310.39"/>
<polygon fill="black" stroke="black" points="1224.88,-310.43 1221.9,-300.27 1217.89,-310.07 1224.88,-310.43"/>
<text text-anchor="middle" x="1284.5" y="-321" font-family="Courier,monospace" font-size="10.00">field_name == &#39;ptr&#39;</text>
</g>
<!-- slice_len -->
<g id="node14" class="node">
<title>slice_len</title>
<polygon fill="none" stroke="black" points="1449.5,-300 1312.5,-300 1312.5,-264 1449.5,-264 1449.5,-300"/>
<text text-anchor="middle" x="1381" y="-278.9" font-family="Courier,monospace" font-size="12.00">Return slice.len</text>
</g>
<!-- is_slice&#45;&gt;slice_len -->
<g id="edge14" class="edge">
<title>is_slice&#45;&gt;slice_len</title>
<path fill="none" stroke="black" d="M1337.67,-347.77C1341.65,-338.74 1347.07,-327.45 1353,-318 1355.02,-314.78 1357.29,-311.51 1359.64,-308.33"/>
<polygon fill="black" stroke="black" points="1362.57,-310.27 1365.93,-300.22 1357.04,-305.98 1362.57,-310.27"/>
<text text-anchor="middle" x="1410.5" y="-321" font-family="Courier,monospace" font-size="10.00">field_name == &#39;len&#39;</text>
</g>
<!-- pointer_fail -->
<g id="node15" class="node">
<title>pointer_fail</title>
<polygon fill="none" stroke="black" points="1414.5,-246 1255.5,-246 1255.5,-210 1414.5,-210 1414.5,-246"/>
<text text-anchor="middle" x="1335" y="-224.9" font-family="Courier,monospace" font-size="12.00">Fail: Invalid field</text>
</g>
<!-- is_slice&#45;&gt;pointer_fail -->
<g id="edge15" class="edge">
<title>is_slice&#45;&gt;pointer_fail</title>
<path fill="none" stroke="black" d="M1392.27,-355.81C1424.11,-350.16 1458.36,-341.41 1468,-329 1479,-314.84 1500.92,-310.8 1459,-264 1449.63,-253.54 1437.4,-246.11 1424.28,-240.84"/>
<polygon fill="black" stroke="black" points="1425.19,-237.45 1414.6,-237.38 1422.84,-244.04 1425.19,-237.45"/>
<text text-anchor="middle" x="1484.5" y="-321" font-family="Courier,monospace" font-size="10.00">No</text>
</g>
<!-- pointer_fail&#45;&gt;error_handling -->
<g id="edge16" class="edge">
<title>pointer_fail&#45;&gt;error_handling</title>
<path fill="none" stroke="black" d="M1296.34,-209.96C1245.52,-188.11 1153.04,-150.28 1071,-127 1045.47,-119.75 1017.5,-113.53 991.33,-108.43"/>
<polygon fill="black" stroke="black" points="991.88,-104.97 981.4,-106.53 990.57,-111.85 991.88,-104.97"/>
</g>
<!-- resolve_type -->
<g id="node17" class="node">
<title>resolve_type</title>
<polygon fill="none" stroke="black" points="966,-383 814,-383 814,-347 966,-347 966,-383"/>
<text text-anchor="middle" x="890" y="-361.9" font-family="Courier,monospace" font-size="12.00">Resolve child_type</text>
</g>
<!-- type_case&#45;&gt;resolve_type -->
<g id="edge18" class="edge">
<title>type_case&#45;&gt;resolve_type</title>
<path fill="none" stroke="black" d="M890,-419.81C890,-411.79 890,-402.05 890,-393.07"/>
<polygon fill="black" stroke="black" points="893.5,-393.03 890,-383.03 886.5,-393.03 893.5,-393.03"/>
</g>
<!-- switch_child_type -->
<g id="node18" class="node">
<title>switch_child_type</title>
<polygon fill="none" stroke="black" points="890,-300 679.14,-282 890,-264 1100.86,-282 890,-300"/>
<text text-anchor="middle" x="890" y="-278.9" font-family="Courier,monospace" font-size="12.00">Switch child_type.zigTypeTag()</text>
</g>
<!-- resolve_type&#45;&gt;switch_child_type -->
<g id="edge19" class="edge">
<title>resolve_type&#45;&gt;switch_child_type</title>
<path fill="none" stroke="black" d="M890,-346.82C890,-336.19 890,-322.31 890,-310.2"/>
<polygon fill="black" stroke="black" points="893.5,-310.15 890,-300.15 886.5,-310.15 893.5,-310.15"/>
</g>
<!-- switch_child_type&#45;&gt;struct_case -->
<g id="edge20" class="edge">
<title>switch_child_type&#45;&gt;struct_case</title>
<path fill="none" stroke="black" d="M853.92,-266.98C809.51,-250.38 731.42,-223.3 662,-210 559.56,-190.37 531.95,-200.67 428,-192 386.29,-188.52 339.42,-184.31 302.8,-180.95"/>
<polygon fill="black" stroke="black" points="303.03,-177.45 292.75,-180.02 302.39,-184.42 303.03,-177.45"/>
<text text-anchor="middle" x="814.5" y="-225.5" font-family="Courier,monospace" font-size="10.00">.struct</text>
</g>
<!-- switch_child_type&#45;&gt;union_case -->
<g id="edge21" class="edge">
<title>switch_child_type&#45;&gt;union_case</title>
<path fill="none" stroke="black" d="M912.06,-265.81C937.88,-248.05 980.88,-218.45 1010.74,-197.89"/>
<polygon fill="black" stroke="black" points="1012.92,-200.64 1019.17,-192.09 1008.95,-194.88 1012.92,-200.64"/>
<text text-anchor="middle" x="1007.5" y="-225.5" font-family="Courier,monospace" font-size="10.00">.union</text>
</g>
<!-- default_case -->
<g id="node21" class="node">
<title>default_case</title>
<polygon fill="none" stroke="black" points="943.5,-192 836.5,-192 836.5,-156 943.5,-156 943.5,-192"/>
<text text-anchor="middle" x="890" y="-170.9" font-family="Courier,monospace" font-size="12.00">Default case</text>
</g>
<!-- switch_child_type&#45;&gt;default_case -->
<g id="edge22" class="edge">
<title>switch_child_type&#45;&gt;default_case</title>
<path fill="none" stroke="black" d="M890,-263.97C890,-247.38 890,-221.88 890,-202.43"/>
<polygon fill="black" stroke="black" points="893.5,-202.34 890,-192.34 886.5,-202.34 893.5,-202.34"/>
<text text-anchor="middle" x="910" y="-225.5" font-family="Courier,monospace" font-size="10.00">其他类型</text>
</g>
<!-- struct_case&#45;&gt;check_pointer -->
<g id="edge25" class="edge">
<title>struct_case&#45;&gt;check_pointer</title>
<path fill="none" stroke="black" d="M185.36,-176.06C114.9,-180.63 0,-200.43 0,-281 0,-595 0,-595 0,-595 0,-631.47 481.18,-652.7 735.93,-661.38"/>
<polygon fill="black" stroke="black" points="735.9,-664.88 746.02,-661.72 736.14,-657.88 735.9,-664.88"/>
<text text-anchor="middle" x="42.5" y="-435.5" font-family="Courier,monospace" font-size="10.00">is_pointer_to?</text>
</g>
<!-- struct_case&#45;&gt;error_handling -->
<g id="edge29" class="edge">
<title>struct_case&#45;&gt;error_handling</title>
<path fill="none" stroke="black" d="M292.55,-166.34C401.08,-152.83 648.51,-122.05 788.53,-104.63"/>
<polygon fill="black" stroke="black" points="789.34,-108.05 798.84,-103.34 788.48,-101.1 789.34,-108.05"/>
<text text-anchor="middle" x="648.5" y="-130" font-family="Courier,monospace" font-size="10.00">Field not found</text>
</g>
<!-- union_case&#45;&gt;check_pointer -->
<g id="edge27" class="edge">
<title>union_case&#45;&gt;check_pointer</title>
<path fill="none" stroke="black" d="M1093.52,-175.44C1216.88,-177.86 1528,-192.72 1528,-281 1528,-595 1528,-595 1528,-595 1528,-643.55 1232.39,-658.9 1043.61,-663.76"/>
<polygon fill="black" stroke="black" points="1043.49,-660.26 1033.58,-664.01 1043.66,-667.26 1043.49,-660.26"/>
<text text-anchor="middle" x="1570.5" y="-435.5" font-family="Courier,monospace" font-size="10.00">is_pointer_to?</text>
</g>
<!-- union_case&#45;&gt;error_handling -->
<g id="edge30" class="edge">
<title>union_case&#45;&gt;error_handling</title>
<path fill="none" stroke="black" d="M1011.34,-155.82C987.99,-143.54 956.38,-126.91 931.27,-113.71"/>
<polygon fill="black" stroke="black" points="932.83,-110.57 922.35,-109.01 929.57,-116.77 932.83,-110.57"/>
<text text-anchor="middle" x="1021.5" y="-130" font-family="Courier,monospace" font-size="10.00">Field not found</text>
</g>
<!-- default_case&#45;&gt;error_handling -->
<g id="edge23" class="edge">
<title>default_case&#45;&gt;error_handling</title>
<path fill="none" stroke="black" d="M890,-155.82C890,-145.19 890,-131.31 890,-119.2"/>
<polygon fill="black" stroke="black" points="893.5,-119.15 890,-109.15 886.5,-119.15 893.5,-119.15"/>
</g>
<!-- final_fail -->
<g id="node22" class="node">
<title>final_fail</title>
<ellipse fill="none" stroke="black" cx="890" cy="-18" rx="130.51" ry="18"/>
<text text-anchor="middle" x="890" y="-14.9" font-family="Courier,monospace" font-size="12.00">Fail: Invalid field access</text>
</g>
<!-- error_handling&#45;&gt;final_fail -->
<g id="edge28" class="edge">
<title>error_handling&#45;&gt;final_fail</title>
<path fill="none" stroke="black" d="M890,-72.81C890,-64.79 890,-55.05 890,-46.07"/>
<polygon fill="black" stroke="black" points="893.5,-46.03 890,-36.03 886.5,-46.03 893.5,-46.03"/>
</g>
</g>
</svg>
