<?xml version="1.0" encoding="UTF-8" standalone="no"?>
<!DOCTYPE svg PUBLIC "-//W3C//DTD SVG 1.1//EN"
 "http://www.w3.org/Graphics/SVG/1.1/DTD/svg11.dtd">
<!-- Generated by graphviz version 2.43.0 (0)
 -->
<!-- Title: flowchart Pages: 1 -->
<svg width="1573pt" height="1215pt"
 viewBox="0.00 0.00 1573.00 1215.00" xmlns="http://www.w3.org/2000/svg" xmlns:xlink="http://www.w3.org/1999/xlink">
<g id="graph0" class="graph" transform="scale(1 1) rotate(0) translate(4 1211)">
<title>flowchart</title>
<polygon fill="white" stroke="transparent" points="-4,4 -4,-1211 1569,-1211 1569,4 -4,4"/>
<g id="clust1" class="cluster">
<title>cluster_operations</title>
<polygon fill="none" stroke="black" points="8,-221 8,-545 1557,-545 1557,-221 8,-221"/>
<text text-anchor="middle" x="782.5" y="-529.8" font-family="Times,serif" font-size="14.00">处理具体算术操作</text>
</g>
<!-- start -->
<g id="node1" class="node">
<title>start</title>
<polygon fill="none" stroke="black" points="808,-1207 634,-1207 634,-1171 808,-1171 808,-1207"/>
<text text-anchor="middle" x="721" y="-1186.5" font-family="Courier,monospace" font-size="10.00">开始: zirOverflowArithmetic</text>
</g>
<!-- parse_extra -->
<g id="node2" class="node">
<title>parse_extra</title>
<polygon fill="none" stroke="black" points="800,-1134 642,-1134 642,-1098 800,-1098 800,-1134"/>
<text text-anchor="middle" x="721" y="-1119" font-family="Courier,monospace" font-size="10.00">解析extra数据</text>
<text text-anchor="middle" x="721" y="-1108" font-family="Courier,monospace" font-size="10.00">获取src、lhs_src、rhs_src</text>
</g>
<!-- start&#45;&gt;parse_extra -->
<g id="edge1" class="edge">
<title>start&#45;&gt;parse_extra</title>
<path fill="none" stroke="black" d="M721,-1170.81C721,-1162.79 721,-1153.05 721,-1144.07"/>
<polygon fill="black" stroke="black" points="724.5,-1144.03 721,-1134.03 717.5,-1144.03 724.5,-1144.03"/>
</g>
<!-- resolve_operands -->
<g id="node3" class="node">
<title>resolve_operands</title>
<polygon fill="none" stroke="black" points="806,-1061 636,-1061 636,-1025 806,-1025 806,-1061"/>
<text text-anchor="middle" x="721" y="-1046" font-family="Courier,monospace" font-size="10.00">解析操作数</text>
<text text-anchor="middle" x="721" y="-1035" font-family="Courier,monospace" font-size="10.00">uncasted_lhs和uncasted_rhs</text>
</g>
<!-- parse_extra&#45;&gt;resolve_operands -->
<g id="edge2" class="edge">
<title>parse_extra&#45;&gt;resolve_operands</title>
<path fill="none" stroke="black" d="M721,-1097.81C721,-1089.79 721,-1080.05 721,-1071.07"/>
<polygon fill="black" stroke="black" points="724.5,-1071.03 721,-1061.03 717.5,-1071.03 724.5,-1071.03"/>
</g>
<!-- check_types -->
<g id="node4" class="node">
<title>check_types</title>
<polygon fill="none" stroke="black" points="832,-988 610,-988 610,-947 832,-947 832,-988"/>
<text text-anchor="middle" x="721" y="-976" font-family="Courier,monospace" font-size="10.00">检查类型</text>
<text text-anchor="middle" x="721" y="-965" font-family="Courier,monospace" font-size="10.00">lhs_ty和rhs_ty</text>
<text text-anchor="middle" x="721" y="-954" font-family="Courier,monospace" font-size="10.00">调用checkVectorizableBinaryOperands</text>
</g>
<!-- resolve_operands&#45;&gt;check_types -->
<g id="edge3" class="edge">
<title>resolve_operands&#45;&gt;check_types</title>
<path fill="none" stroke="black" d="M721,-1024.95C721,-1017.03 721,-1007.37 721,-998.29"/>
<polygon fill="black" stroke="black" points="724.5,-998.05 721,-988.05 717.5,-998.05 724.5,-998.05"/>
</g>
<!-- determine_dest_ty -->
<g id="node5" class="node">
<title>determine_dest_ty</title>
<polygon fill="none" stroke="black" points="789.5,-910 652.5,-910 652.5,-874 789.5,-874 789.5,-910"/>
<text text-anchor="middle" x="721" y="-895" font-family="Courier,monospace" font-size="10.00">根据zir_tag确定目标类型</text>
<text text-anchor="middle" x="721" y="-884" font-family="Courier,monospace" font-size="10.00">dest_ty和rhs_dest_ty</text>
</g>
<!-- check_types&#45;&gt;determine_dest_ty -->
<g id="edge4" class="edge">
<title>check_types&#45;&gt;determine_dest_ty</title>
<path fill="none" stroke="black" d="M721,-946.8C721,-938.7 721,-929.18 721,-920.41"/>
<polygon fill="black" stroke="black" points="724.5,-920.25 721,-910.25 717.5,-920.25 724.5,-920.25"/>
</g>
<!-- coerce_operands -->
<g id="node6" class="node">
<title>coerce_operands</title>
<polygon fill="none" stroke="black" points="763.5,-837 678.5,-837 678.5,-801 763.5,-801 763.5,-837"/>
<text text-anchor="middle" x="721" y="-822" font-family="Courier,monospace" font-size="10.00">强制转换操作数</text>
<text text-anchor="middle" x="721" y="-811" font-family="Courier,monospace" font-size="10.00">lhs和rhs</text>
</g>
<!-- determine_dest_ty&#45;&gt;coerce_operands -->
<g id="edge5" class="edge">
<title>determine_dest_ty&#45;&gt;coerce_operands</title>
<path fill="none" stroke="black" d="M721,-873.81C721,-865.79 721,-856.05 721,-847.07"/>
<polygon fill="black" stroke="black" points="724.5,-847.03 721,-837.03 717.5,-847.03 724.5,-847.03"/>
</g>
<!-- check_scalar_type -->
<g id="node7" class="node">
<title>check_scalar_type</title>
<polygon fill="none" stroke="black" points="794,-764 648,-764 648,-728 794,-728 794,-764"/>
<text text-anchor="middle" x="721" y="-743.5" font-family="Courier,monospace" font-size="10.00">检查dest_ty是否为整数类型</text>
</g>
<!-- coerce_operands&#45;&gt;check_scalar_type -->
<g id="edge6" class="edge">
<title>coerce_operands&#45;&gt;check_scalar_type</title>
<path fill="none" stroke="black" d="M721,-800.81C721,-792.79 721,-783.05 721,-774.07"/>
<polygon fill="black" stroke="black" points="724.5,-774.03 721,-764.03 717.5,-774.03 724.5,-774.03"/>
</g>
<!-- resolve_values -->
<g id="node8" class="node">
<title>resolve_values</title>
<polygon fill="none" stroke="black" points="705.5,-681 584.5,-681 584.5,-645 705.5,-645 705.5,-681"/>
<text text-anchor="middle" x="645" y="-660.5" font-family="Courier,monospace" font-size="10.00">尝试解析lhs和rhs的值</text>
</g>
<!-- check_scalar_type&#45;&gt;resolve_values -->
<g id="edge7" class="edge">
<title>check_scalar_type&#45;&gt;resolve_values</title>
<path fill="none" stroke="black" d="M704.88,-727.82C694.2,-716.44 680.02,-701.33 668.14,-688.66"/>
<polygon fill="black" stroke="black" points="670.49,-686.05 661.09,-681.15 665.38,-690.84 670.49,-686.05"/>
<text text-anchor="middle" x="697" y="-702" font-family="Courier,monospace" font-size="10.00">成功</text>
</g>
<!-- fail -->
<g id="node10" class="node">
<title>fail</title>
<polygon fill="none" stroke="red" points="798.5,-681 723.5,-681 723.5,-645 798.5,-645 798.5,-681"/>
<text text-anchor="middle" x="761" y="-660.5" font-family="Courier,monospace" font-size="10.00">返回类型错误</text>
</g>
<!-- check_scalar_type&#45;&gt;fail -->
<g id="edge8" class="edge">
<title>check_scalar_type&#45;&gt;fail</title>
<path fill="none" stroke="black" d="M729.48,-727.82C734.84,-716.98 741.87,-702.74 747.93,-690.47"/>
<polygon fill="black" stroke="black" points="751.24,-691.67 752.53,-681.15 744.96,-688.57 751.24,-691.67"/>
<text text-anchor="middle" x="767.5" y="-702" font-family="Courier,monospace" font-size="10.00">类型不匹配</text>
</g>
<!-- handle_zir_tag -->
<g id="node9" class="node">
<title>handle_zir_tag</title>
<polygon fill="none" stroke="black" points="703.5,-608 586.5,-608 586.5,-572 703.5,-572 703.5,-608"/>
<text text-anchor="middle" x="645" y="-587.5" font-family="Courier,monospace" font-size="10.00">根据zir_tag分支处理</text>
</g>
<!-- resolve_values&#45;&gt;handle_zir_tag -->
<g id="edge9" class="edge">
<title>resolve_values&#45;&gt;handle_zir_tag</title>
<path fill="none" stroke="black" d="M645,-644.81C645,-636.79 645,-627.05 645,-618.07"/>
<polygon fill="black" stroke="black" points="648.5,-618.03 645,-608.03 641.5,-618.03 648.5,-618.03"/>
</g>
<!-- handle_add -->
<g id="node11" class="node">
<title>handle_add</title>
<polygon fill="none" stroke="black" points="219,-514 59.99,-496 219,-478 378.01,-496 219,-514"/>
<text text-anchor="middle" x="219" y="-493.5" font-family="Courier,monospace" font-size="10.00">zir_tag == add_with_overflow?</text>
</g>
<!-- handle_zir_tag&#45;&gt;handle_add -->
<g id="edge26" class="edge">
<title>handle_zir_tag&#45;&gt;handle_add</title>
<path fill="none" stroke="black" d="M586.49,-580.89C533.96,-573.16 454.9,-560.44 387,-545 346.66,-535.83 301.62,-522.8 268.33,-512.64"/>
<polygon fill="black" stroke="black" points="268.99,-509.17 258.4,-509.58 266.93,-515.87 268.99,-509.17"/>
</g>
<!-- handle_sub -->
<g id="node12" class="node">
<title>handle_sub</title>
<polygon fill="none" stroke="black" points="891,-514 731.99,-496 891,-478 1050.01,-496 891,-514"/>
<text text-anchor="middle" x="891" y="-493.5" font-family="Courier,monospace" font-size="10.00">zir_tag == sub_with_overflow?</text>
</g>
<!-- handle_zir_tag&#45;&gt;handle_sub -->
<g id="edge27" class="edge">
<title>handle_zir_tag&#45;&gt;handle_sub</title>
<path fill="none" stroke="black" d="M690.69,-571.91C735.13,-555.29 802.21,-530.21 846.3,-513.72"/>
<polygon fill="black" stroke="black" points="847.75,-516.91 855.89,-510.13 845.3,-510.35 847.75,-516.91"/>
</g>
<!-- handle_mul -->
<g id="node13" class="node">
<title>handle_mul</title>
<polygon fill="none" stroke="black" points="1227,-514 1067.99,-496 1227,-478 1386.01,-496 1227,-514"/>
<text text-anchor="middle" x="1227" y="-493.5" font-family="Courier,monospace" font-size="10.00">zir_tag == mul_with_overflow?</text>
</g>
<!-- handle_zir_tag&#45;&gt;handle_mul -->
<g id="edge28" class="edge">
<title>handle_zir_tag&#45;&gt;handle_mul</title>
<path fill="none" stroke="black" d="M703.75,-585.95C784.43,-581.04 933.77,-569.36 1059,-545 1100.29,-536.97 1146.13,-523.56 1179.49,-512.95"/>
<polygon fill="black" stroke="black" points="1180.97,-516.15 1189.42,-509.76 1178.83,-509.48 1180.97,-516.15"/>
</g>
<!-- handle_shl -->
<g id="node14" class="node">
<title>handle_shl</title>
<polygon fill="none" stroke="black" points="555,-514 395.99,-496 555,-478 714.01,-496 555,-514"/>
<text text-anchor="middle" x="555" y="-493.5" font-family="Courier,monospace" font-size="10.00">zir_tag == shl_with_overflow?</text>
</g>
<!-- handle_zir_tag&#45;&gt;handle_shl -->
<g id="edge29" class="edge">
<title>handle_zir_tag&#45;&gt;handle_shl</title>
<path fill="none" stroke="black" d="M628.07,-571.7C613.72,-557.02 593.02,-535.87 577.32,-519.81"/>
<polygon fill="black" stroke="black" points="579.55,-517.09 570.06,-512.39 574.55,-521.99 579.55,-517.09"/>
</g>
<!-- add_check_zero_lhs -->
<g id="node15" class="node">
<title>add_check_zero_lhs</title>
<polygon fill="none" stroke="black" points="219,-431 144.82,-413 219,-395 293.18,-413 219,-431"/>
<text text-anchor="middle" x="219" y="-410.5" font-family="Courier,monospace" font-size="10.00">检查lhs是否为0</text>
</g>
<!-- handle_add&#45;&gt;add_check_zero_lhs -->
<g id="edge10" class="edge">
<title>handle_add&#45;&gt;add_check_zero_lhs</title>
<path fill="none" stroke="black" d="M219,-477.82C219,-467.19 219,-453.31 219,-441.2"/>
<polygon fill="black" stroke="black" points="222.5,-441.15 219,-431.15 215.5,-441.15 222.5,-441.15"/>
<text text-anchor="middle" x="224" y="-452" font-family="Courier,monospace" font-size="10.00">是</text>
</g>
<!-- sub_check_zero_rhs -->
<g id="node20" class="node">
<title>sub_check_zero_rhs</title>
<polygon fill="none" stroke="black" points="891,-431 816.82,-413 891,-395 965.18,-413 891,-431"/>
<text text-anchor="middle" x="891" y="-410.5" font-family="Courier,monospace" font-size="10.00">检查rhs是否为0</text>
</g>
<!-- handle_sub&#45;&gt;sub_check_zero_rhs -->
<g id="edge15" class="edge">
<title>handle_sub&#45;&gt;sub_check_zero_rhs</title>
<path fill="none" stroke="black" d="M891,-477.82C891,-467.19 891,-453.31 891,-441.2"/>
<polygon fill="black" stroke="black" points="894.5,-441.15 891,-431.15 887.5,-441.15 894.5,-441.15"/>
<text text-anchor="middle" x="896" y="-452" font-family="Courier,monospace" font-size="10.00">是</text>
</g>
<!-- mul_check_zero_one -->
<g id="node23" class="node">
<title>mul_check_zero_one</title>
<polygon fill="none" stroke="black" points="1227,-431 1135.35,-413 1227,-395 1318.65,-413 1227,-431"/>
<text text-anchor="middle" x="1227" y="-410.5" font-family="Courier,monospace" font-size="10.00">检查lhs或rhs为0/1</text>
</g>
<!-- handle_mul&#45;&gt;mul_check_zero_one -->
<g id="edge18" class="edge">
<title>handle_mul&#45;&gt;mul_check_zero_one</title>
<path fill="none" stroke="black" d="M1227,-477.82C1227,-467.19 1227,-453.31 1227,-441.2"/>
<polygon fill="black" stroke="black" points="1230.5,-441.15 1227,-431.15 1223.5,-441.15 1230.5,-441.15"/>
<text text-anchor="middle" x="1232" y="-452" font-family="Courier,monospace" font-size="10.00">是</text>
</g>
<!-- shl_check_zero_lhs -->
<g id="node26" class="node">
<title>shl_check_zero_lhs</title>
<polygon fill="none" stroke="black" points="555,-431 480.82,-413 555,-395 629.18,-413 555,-431"/>
<text text-anchor="middle" x="555" y="-410.5" font-family="Courier,monospace" font-size="10.00">检查lhs是否为0</text>
</g>
<!-- handle_shl&#45;&gt;shl_check_zero_lhs -->
<g id="edge21" class="edge">
<title>handle_shl&#45;&gt;shl_check_zero_lhs</title>
<path fill="none" stroke="black" d="M555,-477.82C555,-467.19 555,-453.31 555,-441.2"/>
<polygon fill="black" stroke="black" points="558.5,-441.15 555,-431.15 551.5,-441.15 558.5,-441.15"/>
<text text-anchor="middle" x="560" y="-452" font-family="Courier,monospace" font-size="10.00">是</text>
</g>
<!-- add_handle_zero_lhs -->
<g id="node16" class="node">
<title>add_handle_zero_lhs</title>
<polygon fill="none" stroke="black" points="431,-348 348.67,-330 431,-312 513.33,-330 431,-348"/>
<text text-anchor="middle" x="431" y="-327.5" font-family="Courier,monospace" font-size="10.00">返回rhs和0溢出位</text>
</g>
<!-- add_check_zero_lhs&#45;&gt;add_handle_zero_lhs -->
<g id="edge11" class="edge">
<title>add_check_zero_lhs&#45;&gt;add_handle_zero_lhs</title>
<path fill="none" stroke="black" d="M246.28,-401.58C283.63,-387.31 350.85,-361.62 393.08,-345.49"/>
<polygon fill="black" stroke="black" points="394.38,-348.74 402.47,-341.9 391.88,-342.2 394.38,-348.74"/>
<text text-anchor="middle" x="342" y="-369" font-family="Courier,monospace" font-size="10.00">是</text>
</g>
<!-- add_check_zero_rhs -->
<g id="node17" class="node">
<title>add_check_zero_rhs</title>
<polygon fill="none" stroke="black" points="90,-348 15.82,-330 90,-312 164.18,-330 90,-348"/>
<text text-anchor="middle" x="90" y="-327.5" font-family="Courier,monospace" font-size="10.00">检查rhs是否为0</text>
</g>
<!-- add_check_zero_lhs&#45;&gt;add_check_zero_rhs -->
<g id="edge12" class="edge">
<title>add_check_zero_lhs&#45;&gt;add_check_zero_rhs</title>
<path fill="none" stroke="black" d="M199.41,-399.7C177.81,-386.14 142.89,-364.21 118.32,-348.78"/>
<polygon fill="black" stroke="black" points="120.11,-345.77 109.78,-343.42 116.38,-351.7 120.11,-345.77"/>
<text text-anchor="middle" x="168" y="-369" font-family="Courier,monospace" font-size="10.00">否</text>
</g>
<!-- construct_result -->
<g id="node31" class="node">
<title>construct_result</title>
<polygon fill="none" stroke="black" points="926.5,-192 803.5,-192 803.5,-156 926.5,-156 926.5,-192"/>
<text text-anchor="middle" x="865" y="-171.5" font-family="Courier,monospace" font-size="10.00">构造结果元组tuple_ty</text>
</g>
<!-- add_handle_zero_lhs&#45;&gt;construct_result -->
<g id="edge30" class="edge">
<title>add_handle_zero_lhs&#45;&gt;construct_result</title>
<path fill="none" stroke="black" d="M472.63,-321.04C488.39,-318.1 506.51,-314.8 523,-312 657.79,-289.13 719.19,-349.08 827,-265 846.48,-249.81 856.09,-222.78 860.76,-202.3"/>
<polygon fill="black" stroke="black" points="864.23,-202.77 862.78,-192.28 857.37,-201.39 864.23,-202.77"/>
</g>
<!-- add_handle_zero_rhs -->
<g id="node18" class="node">
<title>add_handle_zero_rhs</title>
<polygon fill="none" stroke="black" points="98,-265 15.67,-247 98,-229 180.33,-247 98,-265"/>
<text text-anchor="middle" x="98" y="-244.5" font-family="Courier,monospace" font-size="10.00">返回lhs和0溢出位</text>
</g>
<!-- add_check_zero_rhs&#45;&gt;add_handle_zero_rhs -->
<g id="edge13" class="edge">
<title>add_check_zero_rhs&#45;&gt;add_handle_zero_rhs</title>
<path fill="none" stroke="black" d="M91.66,-312.22C92.72,-301.46 94.12,-287.27 95.34,-274.96"/>
<polygon fill="black" stroke="black" points="98.84,-275.06 96.34,-264.76 91.88,-274.37 98.84,-275.06"/>
<text text-anchor="middle" x="100" y="-286" font-family="Courier,monospace" font-size="10.00">是</text>
</g>
<!-- add_handle_normal -->
<g id="node19" class="node">
<title>add_handle_normal</title>
<polygon fill="none" stroke="black" points="303,-265 198.21,-247 303,-229 407.79,-247 303,-265"/>
<text text-anchor="middle" x="303" y="-244.5" font-family="Courier,monospace" font-size="10.00">调用addWithOverflow</text>
</g>
<!-- add_check_zero_rhs&#45;&gt;add_handle_normal -->
<g id="edge14" class="edge">
<title>add_check_zero_rhs&#45;&gt;add_handle_normal</title>
<path fill="none" stroke="black" d="M117.41,-318.58C154.21,-304.58 219.86,-279.62 262.4,-263.44"/>
<polygon fill="black" stroke="black" points="263.79,-266.65 271.9,-259.83 261.31,-260.11 263.79,-266.65"/>
<text text-anchor="middle" x="215" y="-286" font-family="Courier,monospace" font-size="10.00">否</text>
</g>
<!-- add_handle_zero_rhs&#45;&gt;construct_result -->
<g id="edge31" class="edge">
<title>add_handle_zero_rhs&#45;&gt;construct_result</title>
<path fill="none" stroke="black" d="M129.24,-235.75C146.64,-230.47 168.81,-224.43 189,-221 406.99,-184.02 669.31,-176.55 793.33,-175.18"/>
<polygon fill="black" stroke="black" points="793.5,-178.68 803.46,-175.08 793.43,-171.68 793.5,-178.68"/>
</g>
<!-- add_handle_normal&#45;&gt;construct_result -->
<g id="edge32" class="edge">
<title>add_handle_normal&#45;&gt;construct_result</title>
<path fill="none" stroke="black" d="M343.68,-235.9C365.34,-230.83 392.49,-224.93 417,-221 549,-199.82 704.52,-186.41 793.26,-179.84"/>
<polygon fill="black" stroke="black" points="793.76,-183.32 803.48,-179.09 793.25,-176.33 793.76,-183.32"/>
</g>
<!-- sub_handle_zero_rhs -->
<g id="node21" class="node">
<title>sub_handle_zero_rhs</title>
<polygon fill="none" stroke="black" points="777,-348 694.67,-330 777,-312 859.33,-330 777,-348"/>
<text text-anchor="middle" x="777" y="-327.5" font-family="Courier,monospace" font-size="10.00">返回lhs和0溢出位</text>
</g>
<!-- sub_check_zero_rhs&#45;&gt;sub_handle_zero_rhs -->
<g id="edge16" class="edge">
<title>sub_check_zero_rhs&#45;&gt;sub_handle_zero_rhs</title>
<path fill="none" stroke="black" d="M872.94,-399.17C854.29,-385.91 824.98,-365.09 803.66,-349.95"/>
<polygon fill="black" stroke="black" points="805.54,-346.98 795.36,-344.04 801.48,-352.69 805.54,-346.98"/>
<text text-anchor="middle" x="845" y="-369" font-family="Courier,monospace" font-size="10.00">是</text>
</g>
<!-- sub_handle_normal -->
<g id="node22" class="node">
<title>sub_handle_normal</title>
<polygon fill="none" stroke="black" points="982,-348 877.21,-330 982,-312 1086.79,-330 982,-348"/>
<text text-anchor="middle" x="982" y="-327.5" font-family="Courier,monospace" font-size="10.00">调用subWithOverflow</text>
</g>
<!-- sub_check_zero_rhs&#45;&gt;sub_handle_normal -->
<g id="edge17" class="edge">
<title>sub_check_zero_rhs&#45;&gt;sub_handle_normal</title>
<path fill="none" stroke="black" d="M906.03,-398.62C920.17,-386.04 941.58,-366.98 958.07,-352.3"/>
<polygon fill="black" stroke="black" points="960.58,-354.75 965.72,-345.49 955.92,-349.52 960.58,-354.75"/>
<text text-anchor="middle" x="946" y="-369" font-family="Courier,monospace" font-size="10.00">否</text>
</g>
<!-- sub_handle_zero_rhs&#45;&gt;construct_result -->
<g id="edge33" class="edge">
<title>sub_handle_zero_rhs&#45;&gt;construct_result</title>
<path fill="none" stroke="black" d="M822.06,-321.74C852.46,-315.82 888.67,-306.41 898,-294 920.43,-264.16 911.78,-244.7 898,-210 896.62,-206.54 894.73,-203.22 892.53,-200.1"/>
<polygon fill="black" stroke="black" points="895.21,-197.85 886.17,-192.34 889.8,-202.29 895.21,-197.85"/>
</g>
<!-- sub_handle_normal&#45;&gt;construct_result -->
<g id="edge34" class="edge">
<title>sub_handle_normal&#45;&gt;construct_result</title>
<path fill="none" stroke="black" d="M975.91,-312.88C965.86,-288.09 943.72,-240.3 912,-210 907.76,-205.95 903.04,-201.95 898.28,-198.18"/>
<polygon fill="black" stroke="black" points="900.38,-195.37 890.31,-192.09 896.13,-200.94 900.38,-195.37"/>
</g>
<!-- mul_handle_special -->
<g id="node24" class="node">
<title>mul_handle_special</title>
<polygon fill="none" stroke="black" points="1441,-348 1332.55,-330 1441,-312 1549.45,-330 1441,-348"/>
<text text-anchor="middle" x="1441" y="-327.5" font-family="Courier,monospace" font-size="10.00">返回对应操作数和0溢出位</text>
</g>
<!-- mul_check_zero_one&#45;&gt;mul_handle_special -->
<g id="edge19" class="edge">
<title>mul_check_zero_one&#45;&gt;mul_handle_special</title>
<path fill="none" stroke="black" d="M1256.76,-400.74C1294.15,-386.58 1358.51,-362.22 1400.4,-346.37"/>
<polygon fill="black" stroke="black" points="1401.65,-349.64 1409.76,-342.82 1399.17,-343.09 1401.65,-349.64"/>
<text text-anchor="middle" x="1351" y="-369" font-family="Courier,monospace" font-size="10.00">是</text>
</g>
<!-- mul_handle_normal -->
<g id="node25" class="node">
<title>mul_handle_normal</title>
<polygon fill="none" stroke="black" points="1210,-348 1105.21,-330 1210,-312 1314.79,-330 1210,-348"/>
<text text-anchor="middle" x="1210" y="-327.5" font-family="Courier,monospace" font-size="10.00">调用mulWithOverflow</text>
</g>
<!-- mul_check_zero_one&#45;&gt;mul_handle_normal -->
<g id="edge20" class="edge">
<title>mul_check_zero_one&#45;&gt;mul_handle_normal</title>
<path fill="none" stroke="black" d="M1223.56,-395.61C1221.27,-384.7 1218.21,-370.13 1215.58,-357.58"/>
<polygon fill="black" stroke="black" points="1218.97,-356.71 1213.49,-347.65 1212.12,-358.15 1218.97,-356.71"/>
<text text-anchor="middle" x="1224" y="-369" font-family="Courier,monospace" font-size="10.00">否</text>
</g>
<!-- mul_handle_special&#45;&gt;construct_result -->
<g id="edge35" class="edge">
<title>mul_handle_special&#45;&gt;construct_result</title>
<path fill="none" stroke="black" d="M1401.41,-318.41C1305.39,-292.74 1059.05,-226.88 936.48,-194.11"/>
<polygon fill="black" stroke="black" points="937.36,-190.72 926.8,-191.52 935.55,-197.49 937.36,-190.72"/>
</g>
<!-- mul_handle_normal&#45;&gt;construct_result -->
<g id="edge36" class="edge">
<title>mul_handle_normal&#45;&gt;construct_result</title>
<path fill="none" stroke="black" d="M1182.35,-316.66C1123.66,-290.46 986.04,-229.03 912.81,-196.34"/>
<polygon fill="black" stroke="black" points="913.91,-193 903.35,-192.12 911.05,-199.39 913.91,-193"/>
</g>
<!-- shl_handle_zero_lhs -->
<g id="node27" class="node">
<title>shl_handle_zero_lhs</title>
<polygon fill="none" stroke="black" points="604,-348 531.65,-330 604,-312 676.35,-330 604,-348"/>
<text text-anchor="middle" x="604" y="-327.5" font-family="Courier,monospace" font-size="10.00">返回0和0溢出位</text>
</g>
<!-- shl_check_zero_lhs&#45;&gt;shl_handle_zero_lhs -->
<g id="edge22" class="edge">
<title>shl_check_zero_lhs&#45;&gt;shl_handle_zero_lhs</title>
<path fill="none" stroke="black" d="M563.99,-397.14C571.13,-385.34 581.25,-368.61 589.53,-354.92"/>
<polygon fill="black" stroke="black" points="592.72,-356.4 594.9,-346.04 586.73,-352.78 592.72,-356.4"/>
<text text-anchor="middle" x="587" y="-369" font-family="Courier,monospace" font-size="10.00">是</text>
</g>
<!-- shl_check_zero_rhs -->
<g id="node28" class="node">
<title>shl_check_zero_rhs</title>
<polygon fill="none" stroke="black" points="256,-348 181.82,-330 256,-312 330.18,-330 256,-348"/>
<text text-anchor="middle" x="256" y="-327.5" font-family="Courier,monospace" font-size="10.00">检查rhs是否为0</text>
</g>
<!-- shl_check_zero_lhs&#45;&gt;shl_check_zero_rhs -->
<g id="edge23" class="edge">
<title>shl_check_zero_lhs&#45;&gt;shl_check_zero_rhs</title>
<path fill="none" stroke="black" d="M521.86,-403.02C467.53,-388.3 359.54,-359.05 299.25,-342.72"/>
<polygon fill="black" stroke="black" points="299.86,-339.25 289.29,-340.02 298.03,-346.01 299.86,-339.25"/>
<text text-anchor="middle" x="428" y="-369" font-family="Courier,monospace" font-size="10.00">否</text>
</g>
<!-- shl_handle_zero_lhs&#45;&gt;construct_result -->
<g id="edge37" class="edge">
<title>shl_handle_zero_lhs&#45;&gt;construct_result</title>
<path fill="none" stroke="black" d="M639.78,-320.76C654.09,-317.68 670.77,-314.36 686,-312 724.41,-306.05 833.36,-322.31 860,-294 882.76,-269.8 878.92,-229.1 872.91,-202.15"/>
<polygon fill="black" stroke="black" points="876.25,-201.08 870.45,-192.21 869.45,-202.76 876.25,-201.08"/>
</g>
<!-- shl_handle_zero_rhs -->
<g id="node29" class="node">
<title>shl_handle_zero_rhs</title>
<polygon fill="none" stroke="black" points="508,-265 425.67,-247 508,-229 590.33,-247 508,-265"/>
<text text-anchor="middle" x="508" y="-244.5" font-family="Courier,monospace" font-size="10.00">返回lhs和0溢出位</text>
</g>
<!-- shl_check_zero_rhs&#45;&gt;shl_handle_zero_rhs -->
<g id="edge24" class="edge">
<title>shl_check_zero_rhs&#45;&gt;shl_handle_zero_rhs</title>
<path fill="none" stroke="black" d="M286.4,-319.23C331.44,-304.75 416.02,-277.57 466.65,-261.29"/>
<polygon fill="black" stroke="black" points="467.86,-264.58 476.31,-258.19 465.71,-257.92 467.86,-264.58"/>
<text text-anchor="middle" x="402" y="-286" font-family="Courier,monospace" font-size="10.00">是</text>
</g>
<!-- shl_handle_normal -->
<g id="node30" class="node">
<title>shl_handle_normal</title>
<polygon fill="none" stroke="black" points="713,-265 608.21,-247 713,-229 817.79,-247 713,-265"/>
<text text-anchor="middle" x="713" y="-244.5" font-family="Courier,monospace" font-size="10.00">调用shlWithOverflow</text>
</g>
<!-- shl_check_zero_rhs&#45;&gt;shl_handle_normal -->
<g id="edge25" class="edge">
<title>shl_check_zero_rhs&#45;&gt;shl_handle_normal</title>
<path fill="none" stroke="black" d="M294.01,-321.06C308.4,-318.12 324.94,-314.82 340,-312 449.64,-291.5 577.9,-270.05 651.86,-257.92"/>
<polygon fill="black" stroke="black" points="652.63,-261.34 661.93,-256.27 651.5,-254.43 652.63,-261.34"/>
<text text-anchor="middle" x="498" y="-286" font-family="Courier,monospace" font-size="10.00">否</text>
</g>
<!-- shl_handle_zero_rhs&#45;&gt;construct_result -->
<g id="edge38" class="edge">
<title>shl_handle_zero_rhs&#45;&gt;construct_result</title>
<path fill="none" stroke="black" d="M541.09,-236.08C558.26,-231.14 579.65,-225.32 599,-221 664.31,-206.42 739.53,-193.79 793.27,-185.47"/>
<polygon fill="black" stroke="black" points="794.04,-188.9 803.39,-183.92 792.98,-181.98 794.04,-188.9"/>
</g>
<!-- shl_handle_normal&#45;&gt;construct_result -->
<g id="edge39" class="edge">
<title>shl_handle_normal&#45;&gt;construct_result</title>
<path fill="none" stroke="black" d="M739.82,-233.47C761.76,-223.22 793.28,-208.5 819.2,-196.4"/>
<polygon fill="black" stroke="black" points="820.89,-199.47 828.46,-192.07 817.92,-193.13 820.89,-199.47"/>
</g>
<!-- check_inst_none -->
<g id="node32" class="node">
<title>check_inst_none</title>
<polygon fill="none" stroke="black" points="865,-119 745.91,-101 865,-83 984.09,-101 865,-119"/>
<text text-anchor="middle" x="865" y="-98.5" font-family="Courier,monospace" font-size="10.00">result.inst == .none?</text>
</g>
<!-- construct_result&#45;&gt;check_inst_none -->
<g id="edge40" class="edge">
<title>construct_result&#45;&gt;check_inst_none</title>
<path fill="none" stroke="black" d="M865,-155.81C865,-147.79 865,-138.05 865,-129.07"/>
<polygon fill="black" stroke="black" points="868.5,-129.03 865,-119.03 861.5,-129.03 868.5,-129.03"/>
</g>
<!-- return_interned -->
<g id="node33" class="node">
<title>return_interned</title>
<polygon fill="none" stroke="black" points="849,-36 711,-36 711,0 849,0 849,-36"/>
<text text-anchor="middle" x="780" y="-15.5" font-family="Courier,monospace" font-size="10.00">返回Air.internedToRef</text>
</g>
<!-- check_inst_none&#45;&gt;return_interned -->
<g id="edge41" class="edge">
<title>check_inst_none&#45;&gt;return_interned</title>
<path fill="none" stroke="black" d="M849.41,-85.14C837.12,-73.43 819.72,-56.85 805.42,-43.22"/>
<polygon fill="black" stroke="black" points="807.5,-40.37 797.84,-36 802.67,-45.44 807.5,-40.37"/>
<text text-anchor="middle" x="832" y="-57" font-family="Courier,monospace" font-size="10.00">是</text>
</g>
<!-- return_aggregate -->
<g id="node34" class="node">
<title>return_aggregate</title>
<polygon fill="none" stroke="black" points="1035,-36 867,-36 867,0 1035,0 1035,-36"/>
<text text-anchor="middle" x="951" y="-15.5" font-family="Courier,monospace" font-size="10.00">返回block.addAggregateInit</text>
</g>
<!-- check_inst_none&#45;&gt;return_aggregate -->
<g id="edge42" class="edge">
<title>check_inst_none&#45;&gt;return_aggregate</title>
<path fill="none" stroke="black" d="M880.77,-85.14C893.21,-73.43 910.81,-56.85 925.28,-43.22"/>
<polygon fill="black" stroke="black" points="928.07,-45.41 932.95,-36 923.27,-40.31 928.07,-45.41"/>
<text text-anchor="middle" x="918" y="-57" font-family="Courier,monospace" font-size="10.00">否</text>
</g>
</g>
</svg>
