<?xml version="1.0" encoding="UTF-8" standalone="no"?>
<!DOCTYPE svg PUBLIC "-//W3C//DTD SVG 1.1//EN"
 "http://www.w3.org/Graphics/SVG/1.1/DTD/svg11.dtd">
<!-- Generated by graphviz version 2.43.0 (0)
 -->
<!-- Title: intCast_flowchart Pages: 1 -->
<svg width="821pt" height="954pt"
 viewBox="0.00 0.00 820.50 954.00" xmlns="http://www.w3.org/2000/svg" xmlns:xlink="http://www.w3.org/1999/xlink">
<g id="graph0" class="graph" transform="scale(1 1) rotate(0) translate(4 950)">
<title>intCast_flowchart</title>
<polygon fill="white" stroke="transparent" points="-4,4 -4,-950 816.5,-950 816.5,4 -4,4"/>
<!-- start -->
<g id="node1" class="node">
<title>start</title>
<polygon fill="none" stroke="black" points="122,-946 44,-946 44,-910 122,-910 122,-946"/>
<text text-anchor="middle" x="83" y="-925.5" font-family="Courier,monospace" font-size="10.00">开始intCast</text>
</g>
<!-- check_comptime_known -->
<g id="node2" class="node">
<title>check_comptime_known</title>
<polygon fill="none" stroke="black" points="156,-873 10,-873 10,-837 156,-837 156,-873"/>
<text text-anchor="middle" x="83" y="-852.5" font-family="Courier,monospace" font-size="10.00">检查operand是否编译时已知</text>
</g>
<!-- start&#45;&gt;check_comptime_known -->
<g id="edge1" class="edge">
<title>start&#45;&gt;check_comptime_known</title>
<path fill="none" stroke="black" d="M83,-909.81C83,-901.79 83,-892.05 83,-883.07"/>
<polygon fill="black" stroke="black" points="86.5,-883.03 83,-873.03 79.5,-883.03 86.5,-883.03"/>
</g>
<!-- coerce -->
<g id="node3" class="node">
<title>coerce</title>
<polygon fill="none" stroke="black" points="134,-790 0,-790 0,-754 134,-754 134,-790"/>
<text text-anchor="middle" x="67" y="-769.5" font-family="Courier,monospace" font-size="10.00">执行sema.coerce()返回</text>
</g>
<!-- check_comptime_known&#45;&gt;coerce -->
<g id="edge2" class="edge">
<title>check_comptime_known&#45;&gt;coerce</title>
<path fill="none" stroke="black" d="M79.61,-836.82C77.51,-826.19 74.76,-812.31 72.37,-800.2"/>
<polygon fill="black" stroke="black" points="75.76,-799.29 70.39,-790.15 68.89,-800.64 75.76,-799.29"/>
<text text-anchor="middle" x="81" y="-811" font-family="Courier,monospace" font-size="10.00">是</text>
</g>
<!-- check_dest_comptime_int -->
<g id="node4" class="node">
<title>check_dest_comptime_int</title>
<polygon fill="none" stroke="black" points="295.5,-790 152.5,-790 152.5,-754 295.5,-754 295.5,-790"/>
<text text-anchor="middle" x="224" y="-769.5" font-family="Courier,monospace" font-size="10.00">目标类型是comptime_int?</text>
</g>
<!-- check_comptime_known&#45;&gt;check_dest_comptime_int -->
<g id="edge3" class="edge">
<title>check_comptime_known&#45;&gt;check_dest_comptime_int</title>
<path fill="none" stroke="black" d="M112.9,-836.82C134.03,-824.69 162.53,-808.31 185.37,-795.19"/>
<polygon fill="black" stroke="black" points="187.21,-798.17 194.14,-790.15 183.73,-792.1 187.21,-798.17"/>
<text text-anchor="middle" x="167" y="-811" font-family="Courier,monospace" font-size="10.00">否</text>
</g>
<!-- fail_comptime_int -->
<g id="node5" class="node">
<title>fail_comptime_int</title>
<polygon fill="none" stroke="black" points="280,-653 72,-653 72,-617 280,-617 280,-653"/>
<text text-anchor="middle" x="176" y="-632.5" font-family="Courier,monospace" font-size="10.00">报错: 无法转换运行时值到comptime_int</text>
</g>
<!-- check_dest_comptime_int&#45;&gt;fail_comptime_int -->
<g id="edge4" class="edge">
<title>check_dest_comptime_int&#45;&gt;fail_comptime_int</title>
<path fill="none" stroke="black" d="M217.92,-753.9C209.78,-731 195.24,-690.12 185.61,-663.03"/>
<polygon fill="black" stroke="black" points="188.83,-661.64 182.18,-653.39 182.23,-663.98 188.83,-661.64"/>
<text text-anchor="middle" x="216" y="-728" font-family="Courier,monospace" font-size="10.00">是</text>
</g>
<!-- check_vectorizable -->
<g id="node6" class="node">
<title>check_vectorizable</title>
<polygon fill="none" stroke="black" points="331.5,-707 236.5,-707 236.5,-671 331.5,-671 331.5,-707"/>
<text text-anchor="middle" x="284" y="-686.5" font-family="Courier,monospace" font-size="10.00">检查向量化操作数</text>
</g>
<!-- check_dest_comptime_int&#45;&gt;check_vectorizable -->
<g id="edge5" class="edge">
<title>check_dest_comptime_int&#45;&gt;check_vectorizable</title>
<path fill="none" stroke="black" d="M236.72,-753.82C245,-742.65 255.93,-727.9 265.2,-715.38"/>
<polygon fill="black" stroke="black" points="268.15,-717.27 271.29,-707.15 262.53,-713.11 268.15,-717.27"/>
<text text-anchor="middle" x="263" y="-728" font-family="Courier,monospace" font-size="10.00">否</text>
</g>
<!-- end -->
<g id="node18" class="node">
<title>end</title>
<polygon fill="none" stroke="black" points="409,-36 353,-36 353,0 409,0 409,-36"/>
<text text-anchor="middle" x="381" y="-15.5" font-family="Courier,monospace" font-size="10.00">返回结果</text>
</g>
<!-- fail_comptime_int&#45;&gt;end -->
<g id="edge23" class="edge">
<title>fail_comptime_int&#45;&gt;end</title>
<path fill="none" stroke="black" d="M176,-616.77C176,-598.01 176,-567.12 176,-540.5 176,-540.5 176,-540.5 176,-90 176,-55.09 283.49,-33.51 342.8,-24.26"/>
<polygon fill="black" stroke="black" points="343.56,-27.68 352.93,-22.73 342.51,-20.76 343.56,-27.68"/>
</g>
<!-- check_one_possible_value -->
<g id="node7" class="node">
<title>check_one_possible_value</title>
<polygon fill="none" stroke="black" points="369.5,-599 220.5,-599 220.5,-563 369.5,-563 369.5,-599"/>
<text text-anchor="middle" x="295" y="-578.5" font-family="Courier,monospace" font-size="10.00">目标类型是否只有一个可能值?</text>
</g>
<!-- check_vectorizable&#45;&gt;check_one_possible_value -->
<g id="edge6" class="edge">
<title>check_vectorizable&#45;&gt;check_one_possible_value</title>
<path fill="none" stroke="black" d="M285.77,-670.97C287.49,-654.38 290.13,-628.88 292.15,-609.43"/>
<polygon fill="black" stroke="black" points="295.65,-609.65 293.2,-599.34 288.69,-608.93 295.65,-609.65"/>
</g>
<!-- handle_opv -->
<g id="node8" class="node">
<title>handle_opv</title>
<polygon fill="none" stroke="black" points="315,-462 191,-462 191,-426 315,-426 315,-462"/>
<text text-anchor="middle" x="253" y="-447" font-family="Courier,monospace" font-size="10.00">生成零值检查和安全检查</text>
<text text-anchor="middle" x="253" y="-436" font-family="Courier,monospace" font-size="10.00">返回opv值</text>
</g>
<!-- check_one_possible_value&#45;&gt;handle_opv -->
<g id="edge7" class="edge">
<title>check_one_possible_value&#45;&gt;handle_opv</title>
<path fill="none" stroke="black" d="M288.85,-562.97C284.29,-550.13 278.01,-532.04 273,-516 268.48,-501.53 263.86,-485.27 260.21,-471.96"/>
<polygon fill="black" stroke="black" points="263.5,-470.74 257.5,-462.01 256.75,-472.58 263.5,-470.74"/>
<text text-anchor="middle" x="288" y="-537" font-family="Courier,monospace" font-size="10.00">是</text>
</g>
<!-- require_runtime_block -->
<g id="node9" class="node">
<title>require_runtime_block</title>
<polygon fill="none" stroke="black" points="377.5,-516 282.5,-516 282.5,-480 377.5,-480 377.5,-516"/>
<text text-anchor="middle" x="330" y="-495.5" font-family="Courier,monospace" font-size="10.00">要求运行时block</text>
</g>
<!-- check_one_possible_value&#45;&gt;require_runtime_block -->
<g id="edge8" class="edge">
<title>check_one_possible_value&#45;&gt;require_runtime_block</title>
<path fill="none" stroke="black" d="M302.42,-562.82C307.11,-551.98 313.26,-537.74 318.56,-525.47"/>
<polygon fill="black" stroke="black" points="321.83,-526.72 322.59,-516.15 315.41,-523.94 321.83,-526.72"/>
<text text-anchor="middle" x="319" y="-537" font-family="Courier,monospace" font-size="10.00">否</text>
</g>
<!-- handle_opv&#45;&gt;end -->
<g id="edge9" class="edge">
<title>handle_opv&#45;&gt;end</title>
<path fill="none" stroke="black" d="M242.31,-425.8C232.02,-407.56 218,-377.58 218,-349.5 218,-349.5 218,-349.5 218,-90 218,-35.79 294.71,-22.55 342.88,-19.57"/>
<polygon fill="black" stroke="black" points="343.17,-23.06 352.98,-19.07 342.82,-16.07 343.17,-23.06"/>
</g>
<!-- backend_supports_safety -->
<g id="node10" class="node">
<title>backend_supports_safety</title>
<polygon fill="none" stroke="black" points="390,-408 270,-408 270,-372 390,-372 390,-408"/>
<text text-anchor="middle" x="330" y="-387.5" font-family="Courier,monospace" font-size="10.00">后端支持安全检查指令?</text>
</g>
<!-- require_runtime_block&#45;&gt;backend_supports_safety -->
<g id="edge10" class="edge">
<title>require_runtime_block&#45;&gt;backend_supports_safety</title>
<path fill="none" stroke="black" d="M330,-479.97C330,-463.38 330,-437.88 330,-418.43"/>
<polygon fill="black" stroke="black" points="333.5,-418.34 330,-408.34 326.5,-418.34 333.5,-418.34"/>
</g>
<!-- add_safe_intcast -->
<g id="node11" class="node">
<title>add_safe_intcast</title>
<polygon fill="none" stroke="black" points="387.5,-271 240.5,-271 240.5,-235 387.5,-235 387.5,-271"/>
<text text-anchor="middle" x="314" y="-250.5" font-family="Courier,monospace" font-size="10.00">添加intcast_safe指令返回</text>
</g>
<!-- backend_supports_safety&#45;&gt;add_safe_intcast -->
<g id="edge11" class="edge">
<title>backend_supports_safety&#45;&gt;add_safe_intcast</title>
<path fill="none" stroke="black" d="M327.97,-371.9C325.27,-349.1 320.46,-308.48 317.25,-281.39"/>
<polygon fill="black" stroke="black" points="320.71,-280.9 316.06,-271.39 313.76,-281.73 320.71,-280.9"/>
<text text-anchor="middle" x="330" y="-346" font-family="Courier,monospace" font-size="10.00">是</text>
</g>
<!-- check_range_shrinkage -->
<g id="node12" class="node">
<title>check_range_shrinkage</title>
<polygon fill="none" stroke="black" points="466.5,-325 365.5,-325 365.5,-289 466.5,-289 466.5,-325"/>
<text text-anchor="middle" x="416" y="-304.5" font-family="Courier,monospace" font-size="10.00">目标范围是否缩小?</text>
</g>
<!-- backend_supports_safety&#45;&gt;check_range_shrinkage -->
<g id="edge12" class="edge">
<title>backend_supports_safety&#45;&gt;check_range_shrinkage</title>
<path fill="none" stroke="black" d="M348.24,-371.82C360.44,-360.33 376.67,-345.04 390.19,-332.31"/>
<polygon fill="black" stroke="black" points="392.91,-334.56 397.79,-325.15 388.11,-329.46 392.91,-334.56"/>
<text text-anchor="middle" x="383" y="-346" font-family="Courier,monospace" font-size="10.00">否</text>
</g>
<!-- add_safe_intcast&#45;&gt;end -->
<g id="edge21" class="edge">
<title>add_safe_intcast&#45;&gt;end</title>
<path fill="none" stroke="black" d="M302.57,-234.85C281.78,-201.28 242.76,-125.61 275,-73 289.73,-48.96 318.89,-35.21 342.9,-27.6"/>
<polygon fill="black" stroke="black" points="344.2,-30.87 352.82,-24.71 342.24,-24.15 344.2,-30.87"/>
</g>
<!-- check_sign_loss -->
<g id="node13" class="node">
<title>check_sign_loss</title>
<polygon fill="none" stroke="black" points="495.5,-217 306.5,-217 306.5,-181 495.5,-181 495.5,-217"/>
<text text-anchor="middle" x="401" y="-196.5" font-family="Courier,monospace" font-size="10.00">是否符号丢失?(signed&#45;&gt;unsigned)</text>
</g>
<!-- check_range_shrinkage&#45;&gt;check_sign_loss -->
<g id="edge15" class="edge">
<title>check_range_shrinkage&#45;&gt;check_sign_loss</title>
<path fill="none" stroke="black" d="M413.59,-288.97C411.24,-272.38 407.63,-246.88 404.88,-227.43"/>
<polygon fill="black" stroke="black" points="408.32,-226.75 403.45,-217.34 401.39,-227.73 408.32,-226.75"/>
<text text-anchor="middle" x="415" y="-250.5" font-family="Courier,monospace" font-size="10.00">否</text>
</g>
<!-- handle_range_shrinkage_signed -->
<g id="node14" class="node">
<title>handle_range_shrinkage_signed</title>
<polygon fill="none" stroke="black" points="618.5,-163 429.5,-163 429.5,-127 618.5,-127 618.5,-163"/>
<text text-anchor="middle" x="524" y="-148" font-family="Courier,monospace" font-size="10.00">生成有符号范围检查</text>
<text text-anchor="middle" x="524" y="-137" font-family="Courier,monospace" font-size="10.00">添加cast_truncated_data安全检查</text>
</g>
<!-- check_range_shrinkage&#45;&gt;handle_range_shrinkage_signed -->
<g id="edge13" class="edge">
<title>check_range_shrinkage&#45;&gt;handle_range_shrinkage_signed</title>
<path fill="none" stroke="black" d="M439.12,-288.75C459.39,-272.43 488.18,-246.15 505,-217 512.78,-203.53 517.46,-186.78 520.22,-172.94"/>
<polygon fill="black" stroke="black" points="523.68,-173.48 521.99,-163.02 516.79,-172.25 523.68,-173.48"/>
<text text-anchor="middle" x="521.5" y="-250.5" font-family="Courier,monospace" font-size="10.00">是且源有符号</text>
</g>
<!-- handle_range_shrinkage_unsigned -->
<g id="node15" class="node">
<title>handle_range_shrinkage_unsigned</title>
<polygon fill="none" stroke="black" points="812.5,-163 623.5,-163 623.5,-127 812.5,-127 812.5,-163"/>
<text text-anchor="middle" x="718" y="-148" font-family="Courier,monospace" font-size="10.00">生成无符号范围检查</text>
<text text-anchor="middle" x="718" y="-137" font-family="Courier,monospace" font-size="10.00">添加cast_truncated_data安全检查</text>
</g>
<!-- check_range_shrinkage&#45;&gt;handle_range_shrinkage_unsigned -->
<g id="edge14" class="edge">
<title>check_range_shrinkage&#45;&gt;handle_range_shrinkage_unsigned</title>
<path fill="none" stroke="black" d="M466.6,-298.4C493.74,-293.07 527.22,-284.43 555,-271 609.23,-244.78 662.85,-198.74 693.07,-170.45"/>
<polygon fill="black" stroke="black" points="695.74,-172.74 700.59,-163.32 690.93,-167.66 695.74,-172.74"/>
<text text-anchor="middle" x="642.5" y="-250.5" font-family="Courier,monospace" font-size="10.00">是且源无符号</text>
</g>
<!-- handle_sign_loss -->
<g id="node16" class="node">
<title>handle_sign_loss</title>
<polygon fill="none" stroke="black" points="478.5,-109 283.5,-109 283.5,-73 478.5,-73 478.5,-109"/>
<text text-anchor="middle" x="381" y="-94" font-family="Courier,monospace" font-size="10.00">生成非负检查</text>
<text text-anchor="middle" x="381" y="-83" font-family="Courier,monospace" font-size="10.00">添加negative_to_unsigned安全检查</text>
</g>
<!-- check_sign_loss&#45;&gt;handle_sign_loss -->
<g id="edge18" class="edge">
<title>check_sign_loss&#45;&gt;handle_sign_loss</title>
<path fill="none" stroke="black" d="M389.58,-180.89C386.52,-175.41 383.61,-169.15 382,-163 378.31,-148.88 377.82,-132.64 378.36,-119.26"/>
<polygon fill="black" stroke="black" points="381.85,-119.43 378.97,-109.24 374.86,-119 381.85,-119.43"/>
<text text-anchor="middle" x="387" y="-142.5" font-family="Courier,monospace" font-size="10.00">是</text>
</g>
<!-- add_normal_intcast -->
<g id="node17" class="node">
<title>add_normal_intcast</title>
<polygon fill="none" stroke="black" points="633.5,-109 496.5,-109 496.5,-73 633.5,-73 633.5,-109"/>
<text text-anchor="middle" x="565" y="-88.5" font-family="Courier,monospace" font-size="10.00">添加普通intcast指令返回</text>
</g>
<!-- check_sign_loss&#45;&gt;add_normal_intcast -->
<g id="edge19" class="edge">
<title>check_sign_loss&#45;&gt;add_normal_intcast</title>
<path fill="none" stroke="black" d="M399.23,-180.74C398.6,-164.71 400.42,-141.23 414,-127 414.72,-126.25 449.83,-118.09 486.01,-109.84"/>
<polygon fill="black" stroke="black" points="487.24,-113.15 496.21,-107.52 485.69,-106.32 487.24,-113.15"/>
<text text-anchor="middle" x="419" y="-142.5" font-family="Courier,monospace" font-size="10.00">否</text>
</g>
<!-- handle_range_shrinkage_signed&#45;&gt;end -->
<g id="edge16" class="edge">
<title>handle_range_shrinkage_signed&#45;&gt;end</title>
<path fill="none" stroke="black" d="M618.62,-129.23C628.08,-124.21 636.55,-117.62 643,-109 652.59,-96.19 653.11,-85.4 643,-73 615.22,-38.91 485.18,-25.71 419.36,-21.14"/>
<polygon fill="black" stroke="black" points="419.59,-17.65 409.38,-20.48 419.12,-24.63 419.59,-17.65"/>
</g>
<!-- handle_range_shrinkage_unsigned&#45;&gt;end -->
<g id="edge17" class="edge">
<title>handle_range_shrinkage_unsigned&#45;&gt;end</title>
<path fill="none" stroke="black" d="M707.87,-126.91C693.47,-104.61 664.69,-66.91 628,-54 557.2,-29.09 469.08,-21.87 419.52,-19.8"/>
<polygon fill="black" stroke="black" points="419.38,-16.29 409.26,-19.42 419.12,-23.29 419.38,-16.29"/>
</g>
<!-- handle_sign_loss&#45;&gt;end -->
<g id="edge20" class="edge">
<title>handle_sign_loss&#45;&gt;end</title>
<path fill="none" stroke="black" d="M381,-72.81C381,-64.79 381,-55.05 381,-46.07"/>
<polygon fill="black" stroke="black" points="384.5,-46.03 381,-36.03 377.5,-46.03 384.5,-46.03"/>
</g>
<!-- add_normal_intcast&#45;&gt;end -->
<g id="edge22" class="edge">
<title>add_normal_intcast&#45;&gt;end</title>
<path fill="none" stroke="black" d="M520.93,-72.99C489.79,-60.98 448.48,-45.04 418.84,-33.6"/>
<polygon fill="black" stroke="black" points="419.85,-30.24 409.26,-29.9 417.33,-36.77 419.85,-30.24"/>
</g>
</g>
</svg>
