<?xml version="1.0" encoding="UTF-8" standalone="no"?>
<!DOCTYPE svg PUBLIC "-//W3C//DTD SVG 1.1//EN"
 "http://www.w3.org/Graphics/SVG/1.1/DTD/svg11.dtd">
<!-- Generated by graphviz version 2.43.0 (0)
 -->
<!-- Title: transStmt_flowchart Pages: 1 -->
<svg width="1927pt" height="319pt"
 viewBox="0.00 0.00 1927.00 319.00" xmlns="http://www.w3.org/2000/svg" xmlns:xlink="http://www.w3.org/1999/xlink">
<g id="graph0" class="graph" transform="scale(1 1) rotate(0) translate(4 315)">
<title>transStmt_flowchart</title>
<polygon fill="white" stroke="transparent" points="-4,4 -4,-315 1923,-315 1923,4 -4,4"/>
<g id="clust1" class="cluster">
<title>cluster_main_cases</title>
<polygon fill="none" stroke="black" points="8,-65 8,-248 1074,-248 1074,-65 8,-65"/>
<text text-anchor="middle" x="541" y="-232.8" font-family="Times,serif" font-size="14.00">主要分支处理</text>
</g>
<g id="clust2" class="cluster">
<title>cluster_other_cases</title>
<polygon fill="none" stroke="black" points="1082,-65 1082,-140 1780,-140 1780,-65 1082,-65"/>
<text text-anchor="middle" x="1431" y="-124.8" font-family="Times,serif" font-size="14.00">其他分支示例</text>
</g>
<!-- start -->
<g id="node1" class="node">
<title>start</title>
<path fill="none" stroke="black" d="M830,-311C830,-311 750,-311 750,-311 744,-311 738,-305 738,-299 738,-299 738,-287 738,-287 738,-281 744,-275 750,-275 750,-275 830,-275 830,-275 836,-275 842,-281 842,-287 842,-287 842,-299 842,-299 842,-305 836,-311 830,-311"/>
<text text-anchor="middle" x="790" y="-289.3" font-family="Arial" font-size="14.00">transStmt开始</text>
</g>
<!-- switch_node -->
<g id="node2" class="node">
<title>switch_node</title>
<path fill="none" stroke="black" d="M778.37,-214.03C778.37,-214.03 731.08,-201.97 731.08,-201.97 725.26,-200.48 725.26,-197.52 731.08,-196.03 731.08,-196.03 778.37,-183.97 778.37,-183.97 784.19,-182.48 795.81,-182.48 801.63,-183.97 801.63,-183.97 848.92,-196.03 848.92,-196.03 854.74,-197.52 854.74,-200.48 848.92,-201.97 848.92,-201.97 801.63,-214.03 801.63,-214.03 795.81,-215.52 784.19,-215.52 778.37,-214.03"/>
<text text-anchor="middle" x="790" y="-195.3" font-family="Arial" font-size="14.00">switch(sc)</text>
</g>
<!-- start&#45;&gt;switch_node -->
<g id="edge1" class="edge">
<title>start&#45;&gt;switch_node</title>
<path fill="none" stroke="black" d="M790,-274.7C790,-261.46 790,-242.95 790,-227.66"/>
<polygon fill="black" stroke="black" points="793.5,-227.23 790,-217.23 786.5,-227.23 793.5,-227.23"/>
</g>
<!-- error_node -->
<g id="node4" class="node">
<title>error_node</title>
<path fill="none" stroke="red" d="M1736,-36C1736,-36 1686,-36 1686,-36 1680,-36 1674,-30 1674,-24 1674,-24 1674,-12 1674,-12 1674,-6 1680,0 1686,0 1686,0 1736,0 1736,0 1742,0 1748,-6 1748,-12 1748,-12 1748,-24 1748,-24 1748,-30 1742,-36 1736,-36"/>
<text text-anchor="middle" x="1711" y="-14.3" font-family="Arial" font-size="14.00">返回错误</text>
</g>
<!-- switch_node&#45;&gt;error_node -->
<g id="edge13" class="edge">
<title>switch_node&#45;&gt;error_node</title>
<path fill="none" stroke="black" d="M857.7,-198.18C1077.16,-198.42 1756.68,-196.47 1789,-163 1802.92,-148.58 1854.11,-183.48 1784,-65 1777.62,-54.22 1767.63,-45.58 1757.05,-38.83"/>
<polygon fill="black" stroke="black" points="1758.5,-35.62 1748.11,-33.59 1754.97,-41.66 1758.5,-35.62"/>
<text text-anchor="middle" x="1869" y="-87.3" font-family="Arial" font-size="14.00">其他未处理分支</text>
</g>
<!-- binary_op -->
<g id="node5" class="node">
<title>binary_op</title>
<path fill="none" stroke="black" d="M535,-109C535,-109 389,-109 389,-109 383,-109 377,-103 377,-97 377,-97 377,-85 377,-85 377,-79 383,-73 389,-73 389,-73 535,-73 535,-73 541,-73 547,-79 547,-85 547,-85 547,-97 547,-97 547,-103 541,-109 535,-109"/>
<text text-anchor="middle" x="462" y="-87.3" font-family="Arial" font-size="14.00">调用 transBinaryOperator</text>
</g>
<!-- switch_node&#45;&gt;binary_op -->
<g id="edge2" class="edge">
<title>switch_node&#45;&gt;binary_op</title>
<path fill="none" stroke="black" d="M730.14,-196.17C636.88,-192.7 465.58,-183.57 447,-163 436.12,-150.96 439.99,-133.06 446.51,-118.25"/>
<polygon fill="black" stroke="black" points="449.76,-119.57 451.06,-109.06 443.49,-116.47 449.76,-119.57"/>
<text text-anchor="middle" x="512" y="-151.8" font-family="Arial" font-size="14.00">.BinaryOperatorClass</text>
</g>
<!-- compound_stmt -->
<g id="node6" class="node">
<title>compound_stmt</title>
<path fill="none" stroke="black" d="M726.5,-109C726.5,-109 577.5,-109 577.5,-109 571.5,-109 565.5,-103 565.5,-97 565.5,-97 565.5,-85 565.5,-85 565.5,-79 571.5,-73 577.5,-73 577.5,-73 726.5,-73 726.5,-73 732.5,-73 738.5,-79 738.5,-85 738.5,-85 738.5,-97 738.5,-97 738.5,-103 732.5,-109 726.5,-109"/>
<text text-anchor="middle" x="652" y="-87.3" font-family="Arial" font-size="14.00">调用 transCompoundStmt</text>
</g>
<!-- switch_node&#45;&gt;compound_stmt -->
<g id="edge3" class="edge">
<title>switch_node&#45;&gt;compound_stmt</title>
<path fill="none" stroke="black" d="M730.74,-196.05C677.25,-192.9 604.24,-184.64 586,-163 571.89,-146.26 589.16,-128.2 609.56,-114.49"/>
<polygon fill="black" stroke="black" points="611.52,-117.39 618.1,-109.08 607.78,-111.47 611.52,-117.39"/>
<text text-anchor="middle" x="652.5" y="-151.8" font-family="Arial" font-size="14.00">.CompoundStmtClass</text>
</g>
<!-- return_stmt -->
<g id="node7" class="node">
<title>return_stmt</title>
<path fill="none" stroke="black" d="M891.5,-109C891.5,-109 768.5,-109 768.5,-109 762.5,-109 756.5,-103 756.5,-97 756.5,-97 756.5,-85 756.5,-85 756.5,-79 762.5,-73 768.5,-73 768.5,-73 891.5,-73 891.5,-73 897.5,-73 903.5,-79 903.5,-85 903.5,-85 903.5,-97 903.5,-97 903.5,-103 897.5,-109 891.5,-109"/>
<text text-anchor="middle" x="830" y="-87.3" font-family="Arial" font-size="14.00">调用 transReturnStmt</text>
</g>
<!-- switch_node&#45;&gt;return_stmt -->
<g id="edge4" class="edge">
<title>switch_node&#45;&gt;return_stmt</title>
<path fill="none" stroke="black" d="M760.43,-188.51C738.36,-179.78 713.92,-165.53 726,-148 731.67,-139.78 737.98,-144.29 747,-140 762.93,-132.42 779.9,-122.89 794.32,-114.32"/>
<polygon fill="black" stroke="black" points="796.17,-117.29 802.93,-109.13 792.56,-111.29 796.17,-117.29"/>
<text text-anchor="middle" x="779.5" y="-151.8" font-family="Arial" font-size="14.00">.ReturnStmtClass</text>
</g>
<!-- null_stmt -->
<g id="node8" class="node">
<title>null_stmt</title>
<path fill="none" stroke="black" d="M129.5,-109C129.5,-109 28.5,-109 28.5,-109 22.5,-109 16.5,-103 16.5,-97 16.5,-97 16.5,-85 16.5,-85 16.5,-79 22.5,-73 28.5,-73 28.5,-73 129.5,-73 129.5,-73 135.5,-73 141.5,-79 141.5,-85 141.5,-85 141.5,-97 141.5,-97 141.5,-103 135.5,-109 129.5,-109"/>
<text text-anchor="middle" x="79" y="-87.3" font-family="Arial" font-size="14.00">返回 empty_block</text>
</g>
<!-- switch_node&#45;&gt;null_stmt -->
<g id="edge5" class="edge">
<title>switch_node&#45;&gt;null_stmt</title>
<path fill="none" stroke="black" d="M727.91,-196.81C562.73,-193.37 123.37,-182.44 99,-163 85.99,-152.62 81.03,-134.47 79.31,-119.12"/>
<polygon fill="black" stroke="black" points="82.79,-118.79 78.57,-109.07 75.81,-119.3 82.79,-118.79"/>
<text text-anchor="middle" x="144" y="-151.8" font-family="Arial" font-size="14.00">.NullStmtClass</text>
</g>
<!-- continue_stmt -->
<g id="node9" class="node">
<title>continue_stmt</title>
<path fill="none" stroke="black" d="M246.5,-109C246.5,-109 171.5,-109 171.5,-109 165.5,-109 159.5,-103 159.5,-97 159.5,-97 159.5,-85 159.5,-85 159.5,-79 165.5,-73 171.5,-73 171.5,-73 246.5,-73 246.5,-73 252.5,-73 258.5,-79 258.5,-85 258.5,-85 258.5,-97 258.5,-97 258.5,-103 252.5,-109 246.5,-109"/>
<text text-anchor="middle" x="209" y="-87.3" font-family="Arial" font-size="14.00">返回 continue</text>
</g>
<!-- switch_node&#45;&gt;continue_stmt -->
<g id="edge6" class="edge">
<title>switch_node&#45;&gt;continue_stmt</title>
<path fill="none" stroke="black" d="M728.81,-196.6C581.5,-192.95 217.93,-182.03 200,-163 189.13,-151.47 191.33,-133.8 196.27,-118.97"/>
<polygon fill="black" stroke="black" points="199.68,-119.86 200,-109.27 193.14,-117.35 199.68,-119.86"/>
<text text-anchor="middle" x="260.5" y="-151.8" font-family="Arial" font-size="14.00">.ContinueStmtClass</text>
</g>
<!-- break_stmt -->
<g id="node10" class="node">
<title>break_stmt</title>
<path fill="none" stroke="black" d="M347,-109C347,-109 289,-109 289,-109 283,-109 277,-103 277,-97 277,-97 277,-85 277,-85 277,-79 283,-73 289,-73 289,-73 347,-73 347,-73 353,-73 359,-79 359,-85 359,-85 359,-97 359,-97 359,-103 353,-109 347,-109"/>
<text text-anchor="middle" x="318" y="-87.3" font-family="Arial" font-size="14.00">返回 break</text>
</g>
<!-- switch_node&#45;&gt;break_stmt -->
<g id="edge7" class="edge">
<title>switch_node&#45;&gt;break_stmt</title>
<path fill="none" stroke="black" d="M726.18,-197.19C607.92,-195.1 364.08,-187.81 335,-163 322.66,-152.48 318.41,-134.74 317.24,-119.62"/>
<polygon fill="black" stroke="black" points="320.73,-119.09 316.87,-109.22 313.73,-119.34 320.73,-119.09"/>
<text text-anchor="middle" x="386" y="-151.8" font-family="Arial" font-size="14.00">.BreakStmtClass</text>
</g>
<!-- error_case -->
<g id="node11" class="node">
<title>error_case</title>
<path fill="none" stroke="orange" d="M1026,-109C1026,-109 962,-109 962,-109 956,-109 950,-103 950,-97 950,-97 950,-85 950,-85 950,-79 956,-73 962,-73 962,-73 1026,-73 1026,-73 1032,-73 1038,-79 1038,-85 1038,-85 1038,-97 1038,-97 1038,-103 1032,-109 1026,-109"/>
<text text-anchor="middle" x="994" y="-87.3" font-family="Arial" font-size="14.00">未实现分支</text>
</g>
<!-- switch_node&#45;&gt;error_case -->
<g id="edge8" class="edge">
<title>switch_node&#45;&gt;error_case</title>
<path fill="none" stroke="black" d="M810.2,-185.87C829.06,-174.92 858.24,-158.88 885,-148 896.59,-143.28 900.52,-144.98 912,-140 928.42,-132.89 945.65,-123.18 960.05,-114.36"/>
<polygon fill="black" stroke="black" points="961.99,-117.28 968.62,-109.01 958.29,-111.34 961.99,-117.28"/>
<text text-anchor="middle" x="990.5" y="-151.8" font-family="Arial" font-size="14.00">.CaseStmtClass/.DefaultStmtClass</text>
</g>
<!-- paren_expr -->
<g id="node12" class="node">
<title>paren_expr</title>
<path fill="none" stroke="black" d="M1620,-109C1620,-109 1380,-109 1380,-109 1374,-109 1368,-103 1368,-97 1368,-97 1368,-85 1368,-85 1368,-79 1374,-73 1380,-73 1380,-73 1620,-73 1620,-73 1626,-73 1632,-79 1632,-85 1632,-85 1632,-97 1632,-97 1632,-103 1626,-109 1620,-109"/>
<text text-anchor="middle" x="1500" y="-87.3" font-family="Arial" font-size="14.00">调用 transExpr → maybeSuppressResult</text>
</g>
<!-- switch_node&#45;&gt;paren_expr -->
<g id="edge9" class="edge">
<title>switch_node&#45;&gt;paren_expr</title>
<path fill="none" stroke="black" d="M849.71,-196.22C967.57,-192.35 1226.2,-181.94 1313,-163 1363.14,-152.06 1417.72,-130.09 1454.89,-113.47"/>
<polygon fill="black" stroke="black" points="1456.76,-116.46 1464.42,-109.15 1453.87,-110.09 1456.76,-116.46"/>
<text text-anchor="middle" x="1417" y="-151.8" font-family="Arial" font-size="14.00">.ParenExprClass</text>
</g>
<!-- if_stmt -->
<g id="node13" class="node">
<title>if_stmt</title>
<path fill="none" stroke="black" d="M1192,-109C1192,-109 1102,-109 1102,-109 1096,-109 1090,-103 1090,-97 1090,-97 1090,-85 1090,-85 1090,-79 1096,-73 1102,-73 1102,-73 1192,-73 1192,-73 1198,-73 1204,-79 1204,-85 1204,-85 1204,-97 1204,-97 1204,-103 1198,-109 1192,-109"/>
<text text-anchor="middle" x="1147" y="-87.3" font-family="Arial" font-size="14.00">调用 transIfStmt</text>
</g>
<!-- switch_node&#45;&gt;if_stmt -->
<g id="edge10" class="edge">
<title>switch_node&#45;&gt;if_stmt</title>
<path fill="none" stroke="black" d="M852.06,-196.77C929.3,-194.24 1055.94,-186.52 1096,-163 1113.34,-152.82 1126.39,-134.16 1134.95,-118.52"/>
<polygon fill="black" stroke="black" points="1138.24,-119.77 1139.7,-109.28 1132.02,-116.58 1138.24,-119.77"/>
<text text-anchor="middle" x="1152" y="-151.8" font-family="Arial" font-size="14.00">.IfStmtClass</text>
</g>
<!-- for_loop -->
<g id="node14" class="node">
<title>for_loop</title>
<path fill="none" stroke="black" d="M1338,-109C1338,-109 1234,-109 1234,-109 1228,-109 1222,-103 1222,-97 1222,-97 1222,-85 1222,-85 1222,-79 1228,-73 1234,-73 1234,-73 1338,-73 1338,-73 1344,-73 1350,-79 1350,-85 1350,-85 1350,-97 1350,-97 1350,-103 1344,-109 1338,-109"/>
<text text-anchor="middle" x="1286" y="-87.3" font-family="Arial" font-size="14.00">调用 transForLoop</text>
</g>
<!-- switch_node&#45;&gt;for_loop -->
<g id="edge11" class="edge">
<title>switch_node&#45;&gt;for_loop</title>
<path fill="none" stroke="black" d="M852.22,-196.82C949.43,-194.26 1132.5,-186.42 1193,-163 1219.45,-152.76 1244.71,-132.57 1262.21,-116.33"/>
<polygon fill="black" stroke="black" points="1264.87,-118.64 1269.68,-109.2 1260.03,-113.57 1264.87,-118.64"/>
<text text-anchor="middle" x="1265.5" y="-151.8" font-family="Arial" font-size="14.00">.ForStmtClass</text>
</g>
<!-- unsupported -->
<g id="node15" class="node">
<title>unsupported</title>
<path fill="none" stroke="orange" d="M1759.5,-109C1759.5,-109 1662.5,-109 1662.5,-109 1656.5,-109 1650.5,-103 1650.5,-97 1650.5,-97 1650.5,-85 1650.5,-85 1650.5,-79 1656.5,-73 1662.5,-73 1662.5,-73 1759.5,-73 1759.5,-73 1765.5,-73 1771.5,-79 1771.5,-85 1771.5,-85 1771.5,-97 1771.5,-97 1771.5,-103 1765.5,-109 1759.5,-109"/>
<text text-anchor="middle" x="1711" y="-87.3" font-family="Arial" font-size="14.00">返回 TODO 错误</text>
</g>
<!-- switch_node&#45;&gt;unsupported -->
<g id="edge12" class="edge">
<title>switch_node&#45;&gt;unsupported</title>
<path fill="none" stroke="black" d="M851.26,-196.58C970.83,-193.43 1243.59,-184.37 1472,-163 1547.47,-155.94 1570.28,-167.28 1641,-140 1656.08,-134.18 1671.09,-124.54 1683.32,-115.41"/>
<polygon fill="black" stroke="black" points="1685.54,-118.12 1691.31,-109.23 1681.26,-112.58 1685.54,-118.12"/>
<text text-anchor="middle" x="1701" y="-151.8" font-family="Arial" font-size="14.00">GCCAsmStmt/.GotoStmt等</text>
</g>
<!-- end_node -->
<g id="node3" class="node">
<title>end_node</title>
<path fill="none" stroke="black" d="M678.5,-36C678.5,-36 625.5,-36 625.5,-36 619.5,-36 613.5,-30 613.5,-24 613.5,-24 613.5,-12 613.5,-12 613.5,-6 619.5,0 625.5,0 625.5,0 678.5,0 678.5,0 684.5,0 690.5,-6 690.5,-12 690.5,-12 690.5,-24 690.5,-24 690.5,-30 684.5,-36 678.5,-36"/>
<text text-anchor="middle" x="652" y="-14.3" font-family="Arial" font-size="14.00">返回/结束</text>
</g>
<!-- binary_op&#45;&gt;end_node -->
<g id="edge14" class="edge">
<title>binary_op&#45;&gt;end_node</title>
<path fill="none" stroke="black" d="M507.51,-72.99C536.51,-62.16 574.04,-48.13 603.59,-37.09"/>
<polygon fill="black" stroke="black" points="605.13,-40.25 613.28,-33.47 602.68,-33.69 605.13,-40.25"/>
</g>
<!-- compound_stmt&#45;&gt;end_node -->
<g id="edge15" class="edge">
<title>compound_stmt&#45;&gt;end_node</title>
<path fill="none" stroke="black" d="M652,-72.81C652,-64.79 652,-55.05 652,-46.07"/>
<polygon fill="black" stroke="black" points="655.5,-46.03 652,-36.03 648.5,-46.03 655.5,-46.03"/>
</g>
<!-- return_stmt&#45;&gt;end_node -->
<g id="edge16" class="edge">
<title>return_stmt&#45;&gt;end_node</title>
<path fill="none" stroke="black" d="M787.36,-72.99C761.05,-62.5 727.24,-49.01 699.99,-38.14"/>
<polygon fill="black" stroke="black" points="701.23,-34.87 690.65,-34.41 698.64,-41.37 701.23,-34.87"/>
</g>
<!-- null_stmt&#45;&gt;end_node -->
<g id="edge17" class="edge">
<title>null_stmt&#45;&gt;end_node</title>
<path fill="none" stroke="black" d="M122.06,-72.93C131.17,-69.86 140.81,-67.01 150,-65 313.47,-29.31 512.75,-21.27 603.19,-19.49"/>
<polygon fill="black" stroke="black" points="603.47,-22.98 613.41,-19.31 603.35,-15.99 603.47,-22.98"/>
</g>
<!-- continue_stmt&#45;&gt;end_node -->
<g id="edge18" class="edge">
<title>continue_stmt&#45;&gt;end_node</title>
<path fill="none" stroke="black" d="M244.94,-72.88C252.43,-69.86 260.37,-67.03 268,-65 385.66,-33.7 529.3,-23.66 603.08,-20.47"/>
<polygon fill="black" stroke="black" points="603.6,-23.95 613.45,-20.05 603.32,-16.96 603.6,-23.95"/>
</g>
<!-- break_stmt&#45;&gt;end_node -->
<g id="edge19" class="edge">
<title>break_stmt&#45;&gt;end_node</title>
<path fill="none" stroke="black" d="M348.59,-72.89C354.87,-69.9 361.53,-67.09 368,-65 448.1,-39.15 545.8,-27.4 603.23,-22.39"/>
<polygon fill="black" stroke="black" points="603.8,-25.85 613.47,-21.53 603.21,-18.88 603.8,-25.85"/>
</g>
<!-- error_case&#45;&gt;error_node -->
<g id="edge20" class="edge">
<title>error_case&#45;&gt;error_node</title>
<path fill="none" stroke="black" d="M1038.03,-74.94C1050.79,-71.12 1064.83,-67.41 1078,-65 1294.35,-25.43 1558.14,-19.6 1663.87,-18.95"/>
<polygon fill="black" stroke="black" points="1663.92,-22.45 1673.9,-18.9 1663.88,-15.45 1663.92,-22.45"/>
</g>
<!-- paren_expr&#45;&gt;end_node -->
<g id="edge21" class="edge">
<title>paren_expr&#45;&gt;end_node</title>
<path fill="none" stroke="black" d="M1412.6,-72.95C1394.91,-69.94 1376.4,-67.1 1359,-65 1112.99,-35.28 816.33,-23.85 701.1,-20.33"/>
<polygon fill="black" stroke="black" points="700.94,-16.82 690.84,-20.02 700.73,-23.82 700.94,-16.82"/>
</g>
<!-- if_stmt&#45;&gt;end_node -->
<g id="edge22" class="edge">
<title>if_stmt&#45;&gt;end_node</title>
<path fill="none" stroke="black" d="M1104.79,-72.9C1096.04,-69.87 1086.81,-67.04 1078,-65 943.8,-33.92 780.84,-23.73 700.95,-20.48"/>
<polygon fill="black" stroke="black" points="700.83,-16.97 690.7,-20.08 700.56,-23.96 700.83,-16.97"/>
</g>
<!-- for_loop&#45;&gt;end_node -->
<g id="edge23" class="edge">
<title>for_loop&#45;&gt;end_node</title>
<path fill="none" stroke="black" d="M1241.71,-72.88C1232.35,-69.81 1222.44,-66.97 1213,-65 1026.56,-26.06 798.84,-19.75 700.76,-18.96"/>
<polygon fill="black" stroke="black" points="700.58,-15.46 690.56,-18.89 700.54,-22.46 700.58,-15.46"/>
</g>
<!-- unsupported&#45;&gt;error_node -->
<g id="edge24" class="edge">
<title>unsupported&#45;&gt;error_node</title>
<path fill="none" stroke="black" d="M1711,-72.81C1711,-64.79 1711,-55.05 1711,-46.07"/>
<polygon fill="black" stroke="black" points="1714.5,-46.03 1711,-36.03 1707.5,-46.03 1714.5,-46.03"/>
</g>
</g>
</svg>
