<?xml version="1.0" encoding="UTF-8" standalone="no"?>
<!DOCTYPE svg PUBLIC "-//W3C//DTD SVG 1.1//EN"
 "http://www.w3.org/Graphics/SVG/1.1/DTD/svg11.dtd">
<!-- Generated by graphviz version 2.43.0 (0)
 -->
<!-- Title: transBinaryOperator Pages: 1 -->
<svg width="786pt" height="783pt"
 viewBox="0.00 0.00 785.50 783.00" xmlns="http://www.w3.org/2000/svg" xmlns:xlink="http://www.w3.org/1999/xlink">
<g id="graph0" class="graph" transform="scale(1 1) rotate(0) translate(4 779)">
<title>transBinaryOperator</title>
<polygon fill="white" stroke="transparent" points="-4,4 -4,-779 781.5,-779 781.5,4 -4,4"/>
<!-- start -->
<g id="node1" class="node">
<title>start</title>
<polygon fill="none" stroke="black" points="404,-775 234,-775 234,-739 404,-739 404,-775"/>
<text text-anchor="middle" x="319" y="-754.5" font-family="Courier,monospace" font-size="10.00">开始处理transBinaryOperator</text>
</g>
<!-- get_op -->
<g id="node2" class="node">
<title>get_op</title>
<polygon fill="none" stroke="black" points="378.5,-702 259.5,-702 259.5,-666 378.5,-666 378.5,-702"/>
<text text-anchor="middle" x="319" y="-681.5" font-family="Courier,monospace" font-size="10.00">获取操作符op和类型qt</text>
</g>
<!-- start&#45;&gt;get_op -->
<g id="edge1" class="edge">
<title>start&#45;&gt;get_op</title>
<path fill="none" stroke="black" d="M319,-738.81C319,-730.79 319,-721.05 319,-712.07"/>
<polygon fill="black" stroke="black" points="322.5,-712.03 319,-702.03 315.5,-712.03 322.5,-712.03"/>
</g>
<!-- switch_op -->
<g id="node3" class="node">
<title>switch_op</title>
<polygon fill="none" stroke="black" points="319,-629 254.8,-611 319,-593 383.2,-611 319,-629"/>
<text text-anchor="middle" x="319" y="-608.5" font-family="Courier,monospace" font-size="10.00">switch(op)</text>
</g>
<!-- get_op&#45;&gt;switch_op -->
<g id="edge2" class="edge">
<title>get_op&#45;&gt;switch_op</title>
<path fill="none" stroke="black" d="M319,-665.81C319,-657.79 319,-648.05 319,-639.07"/>
<polygon fill="black" stroke="black" points="322.5,-639.03 319,-629.03 315.5,-639.03 322.5,-639.03"/>
</g>
<!-- assign -->
<g id="node4" class="node">
<title>assign</title>
<polygon fill="none" stroke="black" points="162,-492 0,-492 0,-456 162,-456 162,-492"/>
<text text-anchor="middle" x="81" y="-471.5" font-family="Courier,monospace" font-size="10.00">调用transCreateNodeAssign</text>
</g>
<!-- switch_op&#45;&gt;assign -->
<g id="edge3" class="edge">
<title>switch_op&#45;&gt;assign</title>
<path fill="none" stroke="black" d="M271.11,-606.4C221.46,-601.79 148.06,-592.25 126,-575 103.11,-557.1 91.52,-525 85.89,-501.99"/>
<polygon fill="black" stroke="black" points="89.29,-501.15 83.7,-492.15 82.45,-502.67 89.29,-501.15"/>
<text text-anchor="middle" x="144.5" y="-567" font-family="Courier,monospace" font-size="10.00">Assign</text>
</g>
<!-- comma -->
<g id="node5" class="node">
<title>comma</title>
<polygon fill="none" stroke="black" points="221,-384 119,-384 119,-343 221,-343 221,-384"/>
<text text-anchor="middle" x="170" y="-372" font-family="Courier,monospace" font-size="10.00">创建block_scope</text>
<text text-anchor="middle" x="170" y="-361" font-family="Courier,monospace" font-size="10.00">处理LHS和RHS</text>
<text text-anchor="middle" x="170" y="-350" font-family="Courier,monospace" font-size="10.00">构建break节点</text>
</g>
<!-- switch_op&#45;&gt;comma -->
<g id="edge4" class="edge">
<title>switch_op&#45;&gt;comma</title>
<path fill="none" stroke="black" d="M281.21,-603.59C249.94,-595.96 208,-579.72 191,-546 166.37,-497.15 165.4,-431.74 167.38,-394.25"/>
<polygon fill="black" stroke="black" points="170.89,-394.22 168.04,-384.01 163.91,-393.77 170.89,-394.22"/>
<text text-anchor="middle" x="206.5" y="-525.5" font-family="Courier,monospace" font-size="10.00">Comma</text>
</g>
<!-- div_signed -->
<g id="node6" class="node">
<title>div_signed</title>
<polygon fill="none" stroke="black" points="280,-271 190,-271 190,-235 280,-235 280,-271"/>
<text text-anchor="middle" x="235" y="-250.5" font-family="Courier,monospace" font-size="10.00">生成@divTrunc</text>
</g>
<!-- switch_op&#45;&gt;div_signed -->
<g id="edge5" class="edge">
<title>switch_op&#45;&gt;div_signed</title>
<path fill="none" stroke="black" d="M295.44,-599.4C270.9,-586.56 236,-562.42 236,-529 236,-529 236,-529 236,-362.5 236,-334.94 235.67,-303.45 235.39,-281.52"/>
<polygon fill="black" stroke="black" points="238.89,-281.24 235.26,-271.29 231.89,-281.33 238.89,-281.24"/>
<text text-anchor="middle" x="260.5" y="-477" font-family="Courier,monospace" font-size="10.00">Div</text>
<text text-anchor="middle" x="260.5" y="-466" font-family="Courier,monospace" font-size="10.00">且符号整数</text>
</g>
<!-- rem_signed -->
<g id="node7" class="node">
<title>rem_signed</title>
<polygon fill="none" stroke="black" points="362,-163 236,-163 236,-127 362,-127 362,-163"/>
<text text-anchor="middle" x="299" y="-142.5" font-family="Courier,monospace" font-size="10.00">生成signedRemainder</text>
</g>
<!-- switch_op&#45;&gt;rem_signed -->
<g id="edge6" class="edge">
<title>switch_op&#45;&gt;rem_signed</title>
<path fill="none" stroke="black" d="M313.09,-594.42C307.51,-578.3 300,-552.26 300,-529 300,-529 300,-529 300,-252 300,-225.24 299.68,-194.67 299.4,-173.26"/>
<polygon fill="black" stroke="black" points="302.9,-173.21 299.26,-163.26 295.9,-173.3 302.9,-173.21"/>
<text text-anchor="middle" x="324.5" y="-423" font-family="Courier,monospace" font-size="10.00">Rem</text>
<text text-anchor="middle" x="324.5" y="-412" font-family="Courier,monospace" font-size="10.00">且符号整数</text>
</g>
<!-- shift_ops -->
<g id="node8" class="node">
<title>shift_ops</title>
<polygon fill="none" stroke="black" points="483,-492 315,-492 315,-456 483,-456 483,-492"/>
<text text-anchor="middle" x="399" y="-471.5" font-family="Courier,monospace" font-size="10.00">调用transCreateNodeShiftOp</text>
</g>
<!-- switch_op&#45;&gt;shift_ops -->
<g id="edge7" class="edge">
<title>switch_op&#45;&gt;shift_ops</title>
<path fill="none" stroke="black" d="M327.71,-595.3C341.1,-572.7 366.93,-529.12 383.54,-501.09"/>
<polygon fill="black" stroke="black" points="386.7,-502.61 388.79,-492.23 380.68,-499.04 386.7,-502.61"/>
<text text-anchor="middle" x="367.5" y="-567" font-family="Courier,monospace" font-size="10.00">Shl/Shr</text>
</g>
<!-- bool_ops -->
<g id="node9" class="node">
<title>bool_ops</title>
<polygon fill="none" stroke="black" points="597,-438 405,-438 405,-402 597,-402 597,-438"/>
<text text-anchor="middle" x="501" y="-417.5" font-family="Courier,monospace" font-size="10.00">调用transCreateNodeBoolInfixOp</text>
</g>
<!-- switch_op&#45;&gt;bool_ops -->
<g id="edge8" class="edge">
<title>switch_op&#45;&gt;bool_ops</title>
<path fill="none" stroke="black" d="M344.45,-600.05C382.32,-583.76 452.51,-547.55 485,-492 492.78,-478.7 496.78,-461.97 498.83,-448.08"/>
<polygon fill="black" stroke="black" points="502.31,-448.48 500.05,-438.13 495.36,-447.63 502.31,-448.48"/>
<text text-anchor="middle" x="496.5" y="-525.5" font-family="Courier,monospace" font-size="10.00">LAnd/LOr</text>
</g>
<!-- ptr_arith -->
<g id="node10" class="node">
<title>ptr_arith</title>
<polygon fill="none" stroke="black" points="683.5,-381.5 450.5,-381.5 450.5,-345.5 683.5,-345.5 683.5,-381.5"/>
<text text-anchor="middle" x="567" y="-366.5" font-family="Courier,monospace" font-size="10.00">处理指针算术运算</text>
<text text-anchor="middle" x="567" y="-355.5" font-family="Courier,monospace" font-size="10.00">transCreatePointerArithmeticSignedOp</text>
</g>
<!-- switch_op&#45;&gt;ptr_arith -->
<g id="edge9" class="edge">
<title>switch_op&#45;&gt;ptr_arith</title>
<path fill="none" stroke="black" d="M361.06,-604.73C405.24,-597.51 475.12,-581.18 525,-546 574.03,-511.42 587.03,-494.92 606,-438 611.06,-422.82 612.27,-416.72 606,-402 603.98,-397.26 601.04,-392.83 597.66,-388.79"/>
<polygon fill="black" stroke="black" points="600.18,-386.37 590.75,-381.54 595.11,-391.2 600.18,-386.37"/>
<text text-anchor="middle" x="593.5" y="-531" font-family="Courier,monospace" font-size="10.00">Add/Sub</text>
<text text-anchor="middle" x="593.5" y="-520" font-family="Courier,monospace" font-size="10.00">且指针类型</text>
</g>
<!-- default_ops -->
<g id="node11" class="node">
<title>default_ops</title>
<polygon fill="none" stroke="black" points="777.5,-546 692.5,-546 692.5,-510 777.5,-510 777.5,-546"/>
<text text-anchor="middle" x="735" y="-531" font-family="Courier,monospace" font-size="10.00">设置op_id</text>
<text text-anchor="middle" x="735" y="-520" font-family="Courier,monospace" font-size="10.00">匹配基本操作符</text>
</g>
<!-- switch_op&#45;&gt;default_ops -->
<g id="edge10" class="edge">
<title>switch_op&#45;&gt;default_ops</title>
<path fill="none" stroke="black" d="M377.94,-609.47C443.02,-607.52 550.32,-600.3 639,-575 658.79,-569.35 679.54,-559.91 696.65,-551.05"/>
<polygon fill="black" stroke="black" points="698.57,-553.99 705.76,-546.21 695.29,-547.81 698.57,-553.99"/>
<text text-anchor="middle" x="690" y="-567" font-family="Courier,monospace" font-size="10.00">其他操作</text>
</g>
<!-- return_node -->
<g id="node16" class="node">
<title>return_node</title>
<ellipse fill="none" stroke="black" cx="377" cy="-18" rx="44.3" ry="18"/>
<text text-anchor="middle" x="377" y="-15.5" font-family="Courier,monospace" font-size="10.00">返回最终节点</text>
</g>
<!-- assign&#45;&gt;return_node -->
<g id="edge11" class="edge">
<title>assign&#45;&gt;return_node</title>
<path fill="none" stroke="black" d="M84.09,-455.78C87.65,-434.43 93,-396.91 93,-364.5 93,-364.5 93,-364.5 93,-90 93,-43.09 240.68,-26.91 323.05,-21.54"/>
<polygon fill="black" stroke="black" points="323.48,-25.02 333.25,-20.91 323.05,-18.03 323.48,-25.02"/>
</g>
<!-- comma&#45;&gt;return_node -->
<g id="edge12" class="edge">
<title>comma&#45;&gt;return_node</title>
<path fill="none" stroke="black" d="M170.87,-342.9C171.75,-321.18 173,-285.09 173,-254 173,-254 173,-254 173,-90 173,-57.74 265.14,-36.77 325.57,-26.49"/>
<polygon fill="black" stroke="black" points="326.42,-29.9 335.72,-24.81 325.28,-22.99 326.42,-29.9"/>
</g>
<!-- div_signed&#45;&gt;return_node -->
<g id="edge13" class="edge">
<title>div_signed&#45;&gt;return_node</title>
<path fill="none" stroke="black" d="M230.41,-234.74C224.7,-209.58 217.65,-162 235,-127 256.32,-84.01 303.84,-53.5 338.05,-36.1"/>
<polygon fill="black" stroke="black" points="339.88,-39.1 347.31,-31.55 336.79,-32.82 339.88,-39.1"/>
</g>
<!-- rem_signed&#45;&gt;return_node -->
<g id="edge14" class="edge">
<title>rem_signed&#45;&gt;return_node</title>
<path fill="none" stroke="black" d="M309.68,-126.88C323,-105.54 345.88,-68.87 361.22,-44.29"/>
<polygon fill="black" stroke="black" points="364.37,-45.85 366.7,-35.51 358.43,-42.15 364.37,-45.85"/>
</g>
<!-- shift_ops&#45;&gt;return_node -->
<g id="edge15" class="edge">
<title>shift_ops&#45;&gt;return_node</title>
<path fill="none" stroke="black" d="M393.33,-455.93C386.82,-434.74 377,-397.37 377,-364.5 377,-364.5 377,-364.5 377,-90 377,-75.65 377,-59.67 377,-46.51"/>
<polygon fill="black" stroke="black" points="380.5,-46.22 377,-36.22 373.5,-46.22 380.5,-46.22"/>
</g>
<!-- bool_ops&#45;&gt;return_node -->
<g id="edge16" class="edge">
<title>bool_ops&#45;&gt;return_node</title>
<path fill="none" stroke="black" d="M462.34,-401.94C454.45,-397.06 446.81,-391.09 441,-384 418.38,-356.38 415,-343.7 415,-308 415,-308 415,-308 415,-90 415,-73.19 406.62,-56.5 397.72,-43.54"/>
<polygon fill="black" stroke="black" points="400.33,-41.18 391.58,-35.2 394.69,-45.33 400.33,-41.18"/>
</g>
<!-- ptr_arith&#45;&gt;return_node -->
<g id="edge17" class="edge">
<title>ptr_arith&#45;&gt;return_node</title>
<path fill="none" stroke="black" d="M528.72,-345.45C495.6,-327.79 453,-296.76 453,-254 453,-254 453,-254 453,-90 453,-66.67 433.64,-48.8 414.46,-36.83"/>
<polygon fill="black" stroke="black" points="416.13,-33.75 405.73,-31.74 412.61,-39.8 416.13,-33.75"/>
</g>
<!-- handle_operands -->
<g id="node12" class="node">
<title>handle_operands</title>
<polygon fill="none" stroke="black" points="769.5,-438 668.5,-438 668.5,-402 769.5,-402 769.5,-438"/>
<text text-anchor="middle" x="719" y="-423" font-family="Courier,monospace" font-size="10.00">转换LHS/RHS</text>
<text text-anchor="middle" x="719" y="-412" font-family="Courier,monospace" font-size="10.00">处理布尔/指针转换</text>
</g>
<!-- default_ops&#45;&gt;handle_operands -->
<g id="edge18" class="edge">
<title>default_ops&#45;&gt;handle_operands</title>
<path fill="none" stroke="black" d="M732.43,-509.97C729.92,-493.38 726.08,-467.88 723.14,-448.43"/>
<polygon fill="black" stroke="black" points="726.57,-447.71 721.62,-438.34 719.65,-448.75 726.57,-447.71"/>
</g>
<!-- build_infix -->
<g id="node13" class="node">
<title>build_infix</title>
<polygon fill="none" stroke="black" points="739.5,-325 644.5,-325 644.5,-289 739.5,-289 739.5,-325"/>
<text text-anchor="middle" x="692" y="-304.5" font-family="Courier,monospace" font-size="10.00">构建中缀操作节点</text>
</g>
<!-- handle_operands&#45;&gt;build_infix -->
<g id="edge19" class="edge">
<title>handle_operands&#45;&gt;build_infix</title>
<path fill="none" stroke="black" d="M714.78,-401.66C710.44,-383.82 703.62,-355.78 698.58,-335.03"/>
<polygon fill="black" stroke="black" points="701.95,-334.11 696.19,-325.22 695.15,-335.77 701.95,-334.11"/>
</g>
<!-- check_ptr_diff -->
<g id="node14" class="node">
<title>check_ptr_diff</title>
<polygon fill="none" stroke="black" points="641,-217 526.23,-199 641,-181 755.77,-199 641,-217"/>
<text text-anchor="middle" x="641" y="-196.5" font-family="Courier,monospace" font-size="10.00">检查isPointerDiffExpr</text>
</g>
<!-- build_infix&#45;&gt;check_ptr_diff -->
<g id="edge20" class="edge">
<title>build_infix&#45;&gt;check_ptr_diff</title>
<path fill="none" stroke="black" d="M683.81,-288.97C675.48,-271.67 662.5,-244.69 653.01,-224.97"/>
<polygon fill="black" stroke="black" points="656.16,-223.44 648.67,-215.95 649.85,-226.48 656.16,-223.44"/>
</g>
<!-- ptr_diff_handling -->
<g id="node15" class="node">
<title>ptr_diff_handling</title>
<polygon fill="none" stroke="black" points="605,-109 481,-109 481,-73 605,-73 605,-109"/>
<text text-anchor="middle" x="543" y="-88.5" font-family="Courier,monospace" font-size="10.00">生成指针差运算特殊处理</text>
</g>
<!-- check_ptr_diff&#45;&gt;ptr_diff_handling -->
<g id="edge21" class="edge">
<title>check_ptr_diff&#45;&gt;ptr_diff_handling</title>
<path fill="none" stroke="black" d="M626.96,-182.81C611,-165.55 584.73,-137.13 565.82,-116.68"/>
<polygon fill="black" stroke="black" points="568.33,-114.24 558.97,-109.27 563.19,-118.99 568.33,-114.24"/>
<text text-anchor="middle" x="612" y="-142.5" font-family="Courier,monospace" font-size="10.00">是</text>
</g>
<!-- check_ptr_diff&#45;&gt;return_node -->
<g id="edge22" class="edge">
<title>check_ptr_diff&#45;&gt;return_node</title>
<path fill="none" stroke="black" d="M642.59,-181.23C644.12,-154.48 642.88,-102.21 614,-73 588.6,-47.31 491.16,-31.83 429.41,-24.39"/>
<polygon fill="black" stroke="black" points="429.78,-20.91 419.44,-23.22 428.97,-27.86 429.78,-20.91"/>
<text text-anchor="middle" x="640" y="-88.5" font-family="Courier,monospace" font-size="10.00">否</text>
</g>
<!-- ptr_diff_handling&#45;&gt;return_node -->
<g id="edge23" class="edge">
<title>ptr_diff_handling&#45;&gt;return_node</title>
<path fill="none" stroke="black" d="M508.43,-72.99C495.52,-66.8 480.68,-59.89 467,-54 451.34,-47.26 433.91,-40.34 418.6,-34.46"/>
<polygon fill="black" stroke="black" points="419.47,-31.05 408.88,-30.76 416.98,-37.59 419.47,-31.05"/>
</g>
</g>
</svg>
