<?xml version="1.0" encoding="UTF-8" standalone="no"?>
<!DOCTYPE svg PUBLIC "-//W3C//DTD SVG 1.1//EN"
 "http://www.w3.org/Graphics/SVG/1.1/DTD/svg11.dtd">
<!-- Generated by graphviz version 2.43.0 (0)
 -->
<!-- Title: flowchart Pages: 1 -->
<svg width="964pt" height="1448pt"
 viewBox="0.00 0.00 963.50 1448.00" xmlns="http://www.w3.org/2000/svg" xmlns:xlink="http://www.w3.org/1999/xlink">
<g id="graph0" class="graph" transform="scale(1 1) rotate(0) translate(4 1444)">
<title>flowchart</title>
<polygon fill="white" stroke="transparent" points="-4,4 -4,-1444 959.5,-1444 959.5,4 -4,4"/>
<!-- start -->
<g id="node1" class="node">
<title>start</title>
<path fill="none" stroke="black" d="M191,-1440C191,-1440 84,-1440 84,-1440 78,-1440 72,-1434 72,-1428 72,-1428 72,-1416 72,-1416 72,-1410 78,-1404 84,-1404 84,-1404 191,-1404 191,-1404 197,-1404 203,-1410 203,-1416 203,-1416 203,-1428 203,-1428 203,-1434 197,-1440 191,-1440"/>
<text text-anchor="middle" x="137.5" y="-1418.3" font-family="Helvetica,sans-Serif" font-size="14.00">Start visitFnDecl</text>
</g>
<!-- check_sym_table -->
<g id="node2" class="node">
<title>check_sym_table</title>
<path fill="none" stroke="black" d="M263,-1367C263,-1367 12,-1367 12,-1367 6,-1367 0,-1361 0,-1355 0,-1355 0,-1343 0,-1343 0,-1337 6,-1331 12,-1331 12,-1331 263,-1331 263,-1331 269,-1331 275,-1337 275,-1343 275,-1343 275,-1355 275,-1355 275,-1361 269,-1367 263,-1367"/>
<text text-anchor="middle" x="137.5" y="-1345.3" font-family="Helvetica,sans-Serif" font-size="14.00">Check if fn_name exists in sym_table</text>
</g>
<!-- start&#45;&gt;check_sym_table -->
<g id="edge1" class="edge">
<title>start&#45;&gt;check_sym_table</title>
<path fill="none" stroke="black" d="M137.5,-1403.81C137.5,-1395.79 137.5,-1386.05 137.5,-1377.07"/>
<polygon fill="black" stroke="black" points="141,-1377.03 137.5,-1367.03 134,-1377.03 141,-1377.03"/>
</g>
<!-- return_if_exists -->
<g id="node3" class="node">
<title>return_if_exists</title>
<path fill="none" stroke="black" d="M124.5,-1280C124.5,-1280 86.5,-1280 86.5,-1280 80.5,-1280 74.5,-1274 74.5,-1268 74.5,-1268 74.5,-1256 74.5,-1256 74.5,-1250 80.5,-1244 86.5,-1244 86.5,-1244 124.5,-1244 124.5,-1244 130.5,-1244 136.5,-1250 136.5,-1256 136.5,-1256 136.5,-1268 136.5,-1268 136.5,-1274 130.5,-1280 124.5,-1280"/>
<text text-anchor="middle" x="105.5" y="-1258.3" font-family="Helvetica,sans-Serif" font-size="14.00">Return</text>
</g>
<!-- check_sym_table&#45;&gt;return_if_exists -->
<g id="edge2" class="edge">
<title>check_sym_table&#45;&gt;return_if_exists</title>
<path fill="none" stroke="black" d="M131.02,-1330.8C126.6,-1319.05 120.65,-1303.24 115.61,-1289.84"/>
<polygon fill="black" stroke="black" points="118.76,-1288.3 111.97,-1280.18 112.21,-1290.77 118.76,-1288.3"/>
<text text-anchor="middle" x="144.5" y="-1301.8" font-family="Helvetica,sans-Serif" font-size="14.00">Exists</text>
</g>
<!-- check_is_definition -->
<g id="node4" class="node">
<title>check_is_definition</title>
<path fill="none" stroke="black" d="M396,-1280C396,-1280 167,-1280 167,-1280 161,-1280 155,-1274 155,-1268 155,-1268 155,-1256 155,-1256 155,-1250 161,-1244 167,-1244 167,-1244 396,-1244 396,-1244 402,-1244 408,-1250 408,-1256 408,-1256 408,-1268 408,-1268 408,-1274 402,-1280 396,-1280"/>
<text text-anchor="middle" x="281.5" y="-1258.3" font-family="Helvetica,sans-Serif" font-size="14.00">Check if declaration is a definition</text>
</g>
<!-- check_sym_table&#45;&gt;check_is_definition -->
<g id="edge3" class="edge">
<title>check_sym_table&#45;&gt;check_is_definition</title>
<path fill="none" stroke="black" d="M166.64,-1330.8C188.79,-1317.72 219.46,-1299.62 243.53,-1285.41"/>
<polygon fill="black" stroke="black" points="245.57,-1288.27 252.4,-1280.18 242.01,-1282.24 245.57,-1288.27"/>
<text text-anchor="middle" x="253.5" y="-1301.8" font-family="Helvetica,sans-Serif" font-size="14.00">Not exists</text>
</g>
<!-- recurse_on_definition -->
<g id="node5" class="node">
<title>recurse_on_definition</title>
<path fill="none" stroke="black" d="M286,-1137C286,-1137 111,-1137 111,-1137 105,-1137 99,-1131 99,-1125 99,-1125 99,-1113 99,-1113 99,-1107 105,-1101 111,-1101 111,-1101 286,-1101 286,-1101 292,-1101 298,-1107 298,-1113 298,-1113 298,-1125 298,-1125 298,-1131 292,-1137 286,-1137"/>
<text text-anchor="middle" x="198.5" y="-1115.3" font-family="Helvetica,sans-Serif" font-size="14.00">Recursively visit definition</text>
</g>
<!-- check_is_definition&#45;&gt;recurse_on_definition -->
<g id="edge4" class="edge">
<title>check_is_definition&#45;&gt;recurse_on_definition</title>
<path fill="none" stroke="black" d="M238.49,-1243.87C230.86,-1239.1 223.7,-1233.2 218.5,-1226 201.94,-1203.06 197.96,-1170.28 197.48,-1147.26"/>
<polygon fill="black" stroke="black" points="200.98,-1147.14 197.48,-1137.14 193.98,-1147.14 200.98,-1147.14"/>
<text text-anchor="middle" x="267" y="-1214.8" font-family="Helvetica,sans-Serif" font-size="14.00">Has definition</text>
</g>
<!-- collect_decl_info -->
<g id="node6" class="node">
<title>collect_decl_info</title>
<path fill="none" stroke="black" d="M485.5,-1193C485.5,-1193 261.5,-1193 261.5,-1193 255.5,-1193 249.5,-1187 249.5,-1181 249.5,-1181 249.5,-1167 249.5,-1167 249.5,-1161 255.5,-1155 261.5,-1155 261.5,-1155 485.5,-1155 485.5,-1155 491.5,-1155 497.5,-1161 497.5,-1167 497.5,-1167 497.5,-1181 497.5,-1181 497.5,-1187 491.5,-1193 485.5,-1193"/>
<text text-anchor="middle" x="373.5" y="-1177.8" font-family="Helvetica,sans-Serif" font-size="14.00">Collect fn_decl info:</text>
<text text-anchor="middle" x="373.5" y="-1162.8" font-family="Helvetica,sans-Serif" font-size="14.00">location, has_body, storage_class</text>
</g>
<!-- check_is_definition&#45;&gt;collect_decl_info -->
<g id="edge5" class="edge">
<title>check_is_definition&#45;&gt;collect_decl_info</title>
<path fill="none" stroke="black" d="M300.12,-1243.6C313.44,-1231.14 331.58,-1214.18 346.5,-1200.24"/>
<polygon fill="black" stroke="black" points="349.04,-1202.65 353.96,-1193.27 344.26,-1197.54 349.04,-1202.65"/>
<text text-anchor="middle" x="378" y="-1214.8" font-family="Helvetica,sans-Serif" font-size="14.00">No definition</text>
</g>
<!-- end -->
<g id="node23" class="node">
<title>end</title>
<path fill="none" stroke="black" d="M412.5,-36C412.5,-36 382.5,-36 382.5,-36 376.5,-36 370.5,-30 370.5,-24 370.5,-24 370.5,-12 370.5,-12 370.5,-6 376.5,0 382.5,0 382.5,0 412.5,0 412.5,0 418.5,0 424.5,-6 424.5,-12 424.5,-12 424.5,-24 424.5,-24 424.5,-30 418.5,-36 412.5,-36"/>
<text text-anchor="middle" x="397.5" y="-14.3" font-family="Helvetica,sans-Serif" font-size="14.00">End</text>
</g>
<!-- recurse_on_definition&#45;&gt;end -->
<g id="edge6" class="edge">
<title>recurse_on_definition&#45;&gt;end</title>
<path fill="none" stroke="black" d="M188.69,-1100.88C179.61,-1083.4 167.5,-1055.18 167.5,-1029 167.5,-1029 167.5,-1029 167.5,-90 167.5,-50.22 294.73,-30.34 359.93,-22.76"/>
<polygon fill="black" stroke="black" points="360.66,-26.2 370.21,-21.61 359.89,-19.24 360.66,-26.2"/>
</g>
<!-- build_decl_ctx -->
<g id="node7" class="node">
<title>build_decl_ctx</title>
<path fill="none" stroke="black" d="M441.5,-1083C441.5,-1083 307.5,-1083 307.5,-1083 301.5,-1083 295.5,-1077 295.5,-1071 295.5,-1071 295.5,-1059 295.5,-1059 295.5,-1053 301.5,-1047 307.5,-1047 307.5,-1047 441.5,-1047 441.5,-1047 447.5,-1047 453.5,-1053 453.5,-1059 453.5,-1059 453.5,-1071 453.5,-1071 453.5,-1077 447.5,-1083 441.5,-1083"/>
<text text-anchor="middle" x="374.5" y="-1061.3" font-family="Helvetica,sans-Serif" font-size="14.00">Build FnDeclContext</text>
</g>
<!-- collect_decl_info&#45;&gt;build_decl_ctx -->
<g id="edge7" class="edge">
<title>collect_decl_info&#45;&gt;build_decl_ctx</title>
<path fill="none" stroke="black" d="M373.67,-1154.85C373.83,-1137.95 374.07,-1112.52 374.25,-1093.19"/>
<polygon fill="black" stroke="black" points="377.75,-1093.21 374.34,-1083.18 370.75,-1093.14 377.75,-1093.21"/>
</g>
<!-- process_fn_type -->
<g id="node8" class="node">
<title>process_fn_type</title>
<path fill="none" stroke="black" d="M472.5,-1010C472.5,-1010 286.5,-1010 286.5,-1010 280.5,-1010 274.5,-1004 274.5,-998 274.5,-998 274.5,-986 274.5,-986 274.5,-980 280.5,-974 286.5,-974 286.5,-974 472.5,-974 472.5,-974 478.5,-974 484.5,-980 484.5,-986 484.5,-986 484.5,-998 484.5,-998 484.5,-1004 478.5,-1010 472.5,-1010"/>
<text text-anchor="middle" x="379.5" y="-988.3" font-family="Helvetica,sans-Serif" font-size="14.00">Process function type (loop)</text>
</g>
<!-- build_decl_ctx&#45;&gt;process_fn_type -->
<g id="edge8" class="edge">
<title>build_decl_ctx&#45;&gt;process_fn_type</title>
<path fill="none" stroke="black" d="M375.71,-1046.81C376.28,-1038.79 376.96,-1029.05 377.59,-1020.07"/>
<polygon fill="black" stroke="black" points="381.09,-1020.25 378.3,-1010.03 374.11,-1019.76 381.09,-1020.25"/>
</g>
<!-- resolve_fn_proto -->
<g id="node9" class="node">
<title>resolve_fn_proto</title>
<path fill="none" stroke="black" d="M469.5,-923C469.5,-923 293.5,-923 293.5,-923 287.5,-923 281.5,-917 281.5,-911 281.5,-911 281.5,-899 281.5,-899 281.5,-893 287.5,-887 293.5,-887 293.5,-887 469.5,-887 469.5,-887 475.5,-887 481.5,-893 481.5,-899 481.5,-899 481.5,-911 481.5,-911 481.5,-917 475.5,-923 469.5,-923"/>
<text text-anchor="middle" x="381.5" y="-901.3" font-family="Helvetica,sans-Serif" font-size="14.00">Resolve FunctionProtoType</text>
</g>
<!-- process_fn_type&#45;&gt;resolve_fn_proto -->
<g id="edge9" class="edge">
<title>process_fn_type&#45;&gt;resolve_fn_proto</title>
<path fill="none" stroke="black" d="M379.9,-973.8C380.18,-962.16 380.55,-946.55 380.86,-933.24"/>
<polygon fill="black" stroke="black" points="384.36,-933.26 381.1,-923.18 377.36,-933.09 384.36,-933.26"/>
<text text-anchor="middle" x="429" y="-944.8" font-family="Helvetica,sans-Serif" font-size="14.00">FunctionProto</text>
</g>
<!-- resolve_fn_no_proto -->
<g id="node10" class="node">
<title>resolve_fn_no_proto</title>
<path fill="none" stroke="black" d="M807,-836C807,-836 612,-836 612,-836 606,-836 600,-830 600,-824 600,-824 600,-812 600,-812 600,-806 606,-800 612,-800 612,-800 807,-800 807,-800 813,-800 819,-806 819,-812 819,-812 819,-824 819,-824 819,-830 813,-836 807,-836"/>
<text text-anchor="middle" x="709.5" y="-814.3" font-family="Helvetica,sans-Serif" font-size="14.00">Resolve FunctionNoProtoType</text>
</g>
<!-- process_fn_type&#45;&gt;resolve_fn_no_proto -->
<g id="edge10" class="edge">
<title>process_fn_type&#45;&gt;resolve_fn_no_proto</title>
<path fill="none" stroke="black" d="M435.35,-973.94C450.27,-968.76 466.2,-962.67 480.5,-956 553.37,-922.02 632.68,-871.15 676.21,-841.91"/>
<polygon fill="black" stroke="black" points="678.36,-844.68 684.68,-836.18 674.44,-838.88 678.36,-844.68"/>
<text text-anchor="middle" x="660.5" y="-901.3" font-family="Helvetica,sans-Serif" font-size="14.00">FunctionNoProto</text>
</g>
<!-- failDecl -->
<g id="node24" class="node">
<title>failDecl</title>
<path fill="none" stroke="black" d="M251.5,-923C251.5,-923 207.5,-923 207.5,-923 201.5,-923 195.5,-917 195.5,-911 195.5,-911 195.5,-899 195.5,-899 195.5,-893 201.5,-887 207.5,-887 207.5,-887 251.5,-887 251.5,-887 257.5,-887 263.5,-893 263.5,-899 263.5,-899 263.5,-911 263.5,-911 263.5,-917 257.5,-923 251.5,-923"/>
<text text-anchor="middle" x="229.5" y="-901.3" font-family="Helvetica,sans-Serif" font-size="14.00">failDecl</text>
</g>
<!-- process_fn_type&#45;&gt;failDecl -->
<g id="edge11" class="edge">
<title>process_fn_type&#45;&gt;failDecl</title>
<path fill="none" stroke="black" d="M278.1,-973.99C267.7,-969.34 257.89,-963.45 249.5,-956 242.67,-949.93 238.14,-941.2 235.15,-932.74"/>
<polygon fill="black" stroke="black" points="238.49,-931.69 232.3,-923.09 231.78,-933.67 238.49,-931.69"/>
<text text-anchor="middle" x="313" y="-944.8" font-family="Helvetica,sans-Serif" font-size="14.00">Unsupported type</text>
</g>
<!-- handle_variadic -->
<g id="node11" class="node">
<title>handle_variadic</title>
<path fill="none" stroke="black" d="M569.5,-836C569.5,-836 383.5,-836 383.5,-836 377.5,-836 371.5,-830 371.5,-824 371.5,-824 371.5,-812 371.5,-812 371.5,-806 377.5,-800 383.5,-800 383.5,-800 569.5,-800 569.5,-800 575.5,-800 581.5,-806 581.5,-812 581.5,-812 581.5,-824 581.5,-824 581.5,-830 575.5,-836 569.5,-836"/>
<text text-anchor="middle" x="476.5" y="-814.3" font-family="Helvetica,sans-Serif" font-size="14.00">Demote to extern if variadic</text>
</g>
<!-- resolve_fn_proto&#45;&gt;handle_variadic -->
<g id="edge12" class="edge">
<title>resolve_fn_proto&#45;&gt;handle_variadic</title>
<path fill="none" stroke="black" d="M400.72,-886.8C414.76,-874.24 433.97,-857.05 449.54,-843.12"/>
<polygon fill="black" stroke="black" points="452.19,-845.45 457.3,-836.18 447.52,-840.24 452.19,-845.45"/>
<text text-anchor="middle" x="463" y="-857.8" font-family="Helvetica,sans-Serif" font-size="14.00">Variadic</text>
</g>
<!-- create_proto_node -->
<g id="node12" class="node">
<title>create_proto_node</title>
<path fill="none" stroke="black" d="M536,-763C536,-763 417,-763 417,-763 411,-763 405,-757 405,-751 405,-751 405,-739 405,-739 405,-733 411,-727 417,-727 417,-727 536,-727 536,-727 542,-727 548,-733 548,-739 548,-739 548,-751 548,-751 548,-757 542,-763 536,-763"/>
<text text-anchor="middle" x="476.5" y="-741.3" font-family="Helvetica,sans-Serif" font-size="14.00">Create proto_node</text>
</g>
<!-- resolve_fn_proto&#45;&gt;create_proto_node -->
<g id="edge14" class="edge">
<title>resolve_fn_proto&#45;&gt;create_proto_node</title>
<path fill="none" stroke="black" d="M342.77,-886.91C303.8,-867.3 252.89,-833.52 278.5,-800 293.04,-780.97 346.91,-767.03 394.8,-758.09"/>
<polygon fill="black" stroke="black" points="395.69,-761.48 404.91,-756.26 394.44,-754.6 395.69,-761.48"/>
<text text-anchor="middle" x="320.5" y="-814.3" font-family="Helvetica,sans-Serif" font-size="14.00">Not variadic</text>
</g>
<!-- demote_to_extern -->
<g id="node17" class="node">
<title>demote_to_extern</title>
<path fill="none" stroke="black" d="M580.5,-255C580.5,-255 398.5,-255 398.5,-255 392.5,-255 386.5,-249 386.5,-243 386.5,-243 386.5,-231 386.5,-231 386.5,-225 392.5,-219 398.5,-219 398.5,-219 580.5,-219 580.5,-219 586.5,-219 592.5,-225 592.5,-231 592.5,-231 592.5,-243 592.5,-243 592.5,-249 586.5,-255 580.5,-255"/>
<text text-anchor="middle" x="489.5" y="-233.3" font-family="Helvetica,sans-Serif" font-size="14.00">Demote to extern and warn</text>
</g>
<!-- resolve_fn_proto&#45;&gt;demote_to_extern -->
<g id="edge30" class="edge">
<title>resolve_fn_proto&#45;&gt;demote_to_extern</title>
<path fill="none" stroke="red" stroke-dasharray="5,2" d="M281.35,-888.16C245.37,-876.27 213.5,-855.45 213.5,-819 213.5,-819 213.5,-819 213.5,-323 213.5,-287.07 300,-264.73 376.15,-252.03"/>
<polygon fill="red" stroke="red" points="377.03,-255.43 386.34,-250.37 375.9,-248.52 377.03,-255.43"/>
<text text-anchor="middle" x="275" y="-581.3" font-family="Helvetica,sans-Serif" font-size="14.00">UnsupportedType</text>
</g>
<!-- resolve_fn_no_proto&#45;&gt;create_proto_node -->
<g id="edge15" class="edge">
<title>resolve_fn_no_proto&#45;&gt;create_proto_node</title>
<path fill="none" stroke="black" d="M653.69,-799.99C620.22,-789.79 577.47,-776.77 542.35,-766.07"/>
<polygon fill="black" stroke="black" points="543.25,-762.68 532.66,-763.11 541.21,-769.38 543.25,-762.68"/>
</g>
<!-- resolve_fn_no_proto&#45;&gt;demote_to_extern -->
<g id="edge31" class="edge">
<title>resolve_fn_no_proto&#45;&gt;demote_to_extern</title>
<path fill="none" stroke="red" stroke-dasharray="5,2" d="M785.3,-799.95C810.61,-789.43 832.5,-772.63 832.5,-746 832.5,-746 832.5,-746 832.5,-323 832.5,-223.2 717.66,-266.28 618.5,-255 613.37,-254.42 608.13,-253.8 602.84,-253.17"/>
<polygon fill="red" stroke="red" points="602.96,-249.66 592.61,-251.92 602.12,-256.6 602.96,-249.66"/>
<text text-anchor="middle" x="894" y="-537.8" font-family="Helvetica,sans-Serif" font-size="14.00">UnsupportedType</text>
</g>
<!-- handle_variadic&#45;&gt;create_proto_node -->
<g id="edge13" class="edge">
<title>handle_variadic&#45;&gt;create_proto_node</title>
<path fill="none" stroke="black" d="M476.5,-799.81C476.5,-791.79 476.5,-782.05 476.5,-773.07"/>
<polygon fill="black" stroke="black" points="480,-773.03 476.5,-763.03 473,-773.03 480,-773.03"/>
</g>
<!-- check_has_body -->
<g id="node13" class="node">
<title>check_has_body</title>
<path fill="none" stroke="black" d="M536,-690C536,-690 417,-690 417,-690 411,-690 405,-684 405,-678 405,-678 405,-666 405,-666 405,-660 411,-654 417,-654 417,-654 536,-654 536,-654 542,-654 548,-660 548,-666 548,-666 548,-678 548,-678 548,-684 542,-690 536,-690"/>
<text text-anchor="middle" x="476.5" y="-668.3" font-family="Helvetica,sans-Serif" font-size="14.00">Check if has_body</text>
</g>
<!-- create_proto_node&#45;&gt;check_has_body -->
<g id="edge16" class="edge">
<title>create_proto_node&#45;&gt;check_has_body</title>
<path fill="none" stroke="black" d="M476.5,-726.81C476.5,-718.79 476.5,-709.05 476.5,-700.07"/>
<polygon fill="black" stroke="black" points="480,-700.03 476.5,-690.03 473,-700.03 480,-700.03"/>
</g>
<!-- add_extern_decl -->
<g id="node14" class="node">
<title>add_extern_decl</title>
<path fill="none" stroke="black" d="M480.5,-182C480.5,-182 314.5,-182 314.5,-182 308.5,-182 302.5,-176 302.5,-170 302.5,-170 302.5,-158 302.5,-158 302.5,-152 308.5,-146 314.5,-146 314.5,-146 480.5,-146 480.5,-146 486.5,-146 492.5,-152 492.5,-158 492.5,-158 492.5,-170 492.5,-170 492.5,-176 486.5,-182 480.5,-182"/>
<text text-anchor="middle" x="397.5" y="-160.3" font-family="Helvetica,sans-Serif" font-size="14.00">Add top&#45;level extern decl</text>
</g>
<!-- check_has_body&#45;&gt;add_extern_decl -->
<g id="edge17" class="edge">
<title>check_has_body&#45;&gt;add_extern_decl</title>
<path fill="none" stroke="black" d="M446.53,-653.92C428.21,-641.95 405.82,-624.32 392.5,-603 356.86,-545.94 358.5,-522.77 358.5,-455.5 358.5,-455.5 358.5,-455.5 358.5,-236 358.5,-219.55 366.65,-203.3 375.49,-190.51"/>
<polygon fill="black" stroke="black" points="378.48,-192.36 381.64,-182.25 372.86,-188.19 378.48,-192.36"/>
<text text-anchor="middle" x="387.5" y="-407.3" font-family="Helvetica,sans-Serif" font-size="14.00">No body</text>
</g>
<!-- process_params -->
<g id="node15" class="node">
<title>process_params</title>
<path fill="none" stroke="black" d="M543.5,-603C543.5,-603 413.5,-603 413.5,-603 407.5,-603 401.5,-597 401.5,-591 401.5,-591 401.5,-579 401.5,-579 401.5,-573 407.5,-567 413.5,-567 413.5,-567 543.5,-567 543.5,-567 549.5,-567 555.5,-573 555.5,-579 555.5,-579 555.5,-591 555.5,-591 555.5,-597 549.5,-603 543.5,-603"/>
<text text-anchor="middle" x="478.5" y="-581.3" font-family="Helvetica,sans-Serif" font-size="14.00">Process parameters</text>
</g>
<!-- check_has_body&#45;&gt;process_params -->
<g id="edge18" class="edge">
<title>check_has_body&#45;&gt;process_params</title>
<path fill="none" stroke="black" d="M476.9,-653.8C477.18,-642.16 477.55,-626.55 477.86,-613.24"/>
<polygon fill="black" stroke="black" points="481.36,-613.26 478.1,-603.18 474.36,-613.09 481.36,-613.26"/>
<text text-anchor="middle" x="511.5" y="-624.8" font-family="Helvetica,sans-Serif" font-size="14.00">Has body</text>
</g>
<!-- add_extern_decl&#45;&gt;end -->
<g id="edge28" class="edge">
<title>add_extern_decl&#45;&gt;end</title>
<path fill="none" stroke="black" d="M397.5,-145.92C397.5,-121.34 397.5,-75.75 397.5,-46.43"/>
<polygon fill="black" stroke="black" points="401,-46.06 397.5,-36.06 394,-46.06 401,-46.06"/>
</g>
<!-- check_param_name -->
<g id="node16" class="node">
<title>check_param_name</title>
<path fill="none" stroke="black" d="M564.5,-516C564.5,-516 398.5,-516 398.5,-516 392.5,-516 386.5,-510 386.5,-504 386.5,-504 386.5,-492 386.5,-492 386.5,-486 392.5,-480 398.5,-480 398.5,-480 564.5,-480 564.5,-480 570.5,-480 576.5,-486 576.5,-492 576.5,-492 576.5,-504 576.5,-504 576.5,-510 570.5,-516 564.5,-516"/>
<text text-anchor="middle" x="481.5" y="-494.3" font-family="Helvetica,sans-Serif" font-size="14.00">Parameter has no name?</text>
</g>
<!-- process_params&#45;&gt;check_param_name -->
<g id="edge19" class="edge">
<title>process_params&#45;&gt;check_param_name</title>
<path fill="none" stroke="black" d="M479.11,-566.8C479.52,-555.16 480.07,-539.55 480.54,-526.24"/>
<polygon fill="black" stroke="black" points="484.04,-526.29 480.89,-516.18 477.04,-526.05 484.04,-526.29"/>
</g>
<!-- check_param_name&#45;&gt;demote_to_extern -->
<g id="edge20" class="edge">
<title>check_param_name&#45;&gt;demote_to_extern</title>
<path fill="none" stroke="black" d="M475.66,-479.92C471.33,-466.31 465.8,-446.68 463.5,-429 454.55,-360.18 448.41,-338.8 470.5,-273 471.48,-270.08 472.7,-267.11 474.03,-264.21"/>
<polygon fill="black" stroke="black" points="477.17,-265.76 478.59,-255.26 470.93,-262.59 477.17,-265.76"/>
<text text-anchor="middle" x="489" y="-363.8" font-family="Helvetica,sans-Serif" font-size="14.00">No name</text>
</g>
<!-- handle_param_const -->
<g id="node18" class="node">
<title>handle_param_const</title>
<path fill="none" stroke="black" d="M698.5,-429C698.5,-429 484.5,-429 484.5,-429 478.5,-429 472.5,-423 472.5,-417 472.5,-417 472.5,-405 472.5,-405 472.5,-399 478.5,-393 484.5,-393 484.5,-393 698.5,-393 698.5,-393 704.5,-393 710.5,-399 710.5,-405 710.5,-405 710.5,-417 710.5,-417 710.5,-423 704.5,-429 698.5,-429"/>
<text text-anchor="middle" x="591.5" y="-407.3" font-family="Helvetica,sans-Serif" font-size="14.00">Handle const/non&#45;const params</text>
</g>
<!-- check_param_name&#45;&gt;handle_param_const -->
<g id="edge21" class="edge">
<title>check_param_name&#45;&gt;handle_param_const</title>
<path fill="none" stroke="black" d="M503.76,-479.8C520.31,-467.01 543.08,-449.42 561.27,-435.36"/>
<polygon fill="black" stroke="black" points="563.5,-438.06 569.27,-429.18 559.22,-432.52 563.5,-438.06"/>
<text text-anchor="middle" x="578.5" y="-450.8" font-family="Helvetica,sans-Serif" font-size="14.00">Has name</text>
</g>
<!-- demote_to_extern&#45;&gt;add_extern_decl -->
<g id="edge22" class="edge">
<title>demote_to_extern&#45;&gt;add_extern_decl</title>
<path fill="none" stroke="black" d="M467.23,-218.81C455.36,-209.66 440.6,-198.26 427.71,-188.32"/>
<polygon fill="black" stroke="black" points="429.62,-185.37 419.57,-182.03 425.34,-190.91 429.62,-185.37"/>
</g>
<!-- trans_compound_stmt -->
<g id="node19" class="node">
<title>trans_compound_stmt</title>
<path fill="none" stroke="black" d="M695,-342C695,-342 486,-342 486,-342 480,-342 474,-336 474,-330 474,-330 474,-318 474,-318 474,-312 480,-306 486,-306 486,-306 695,-306 695,-306 701,-306 707,-312 707,-318 707,-318 707,-330 707,-330 707,-336 701,-342 695,-342"/>
<text text-anchor="middle" x="590.5" y="-320.3" font-family="Helvetica,sans-Serif" font-size="14.00">Translate compound statement</text>
</g>
<!-- handle_param_const&#45;&gt;trans_compound_stmt -->
<g id="edge23" class="edge">
<title>handle_param_const&#45;&gt;trans_compound_stmt</title>
<path fill="none" stroke="black" d="M591.3,-392.8C591.16,-381.16 590.98,-365.55 590.82,-352.24"/>
<polygon fill="black" stroke="black" points="594.32,-352.13 590.7,-342.18 587.32,-352.22 594.32,-352.13"/>
</g>
<!-- trans_compound_stmt&#45;&gt;demote_to_extern -->
<g id="edge25" class="edge">
<title>trans_compound_stmt&#45;&gt;demote_to_extern</title>
<path fill="none" stroke="black" d="M498.73,-305.92C490.91,-301.26 483.93,-295.39 478.5,-288 473.56,-281.28 473.72,-272.77 475.9,-264.68"/>
<polygon fill="black" stroke="black" points="479.23,-265.77 479.37,-255.18 472.65,-263.37 479.23,-265.77"/>
<text text-anchor="middle" x="495.5" y="-276.8" font-family="Helvetica,sans-Serif" font-size="14.00">Error</text>
</g>
<!-- trans_compound_stmt&#45;&gt;demote_to_extern -->
<g id="edge32" class="edge">
<title>trans_compound_stmt&#45;&gt;demote_to_extern</title>
<path fill="none" stroke="red" stroke-dasharray="5,2" d="M560.4,-305.82C552.02,-300.53 543.14,-294.39 535.5,-288 526.59,-280.54 517.72,-271.42 510.19,-263.02"/>
<polygon fill="red" stroke="red" points="512.63,-260.49 503.42,-255.26 507.36,-265.1 512.63,-260.49"/>
<text text-anchor="middle" x="637" y="-276.8" font-family="Helvetica,sans-Serif" font-size="14.00">UnsupportedTranslation/Type</text>
</g>
<!-- add_return_stmt -->
<g id="node20" class="node">
<title>add_return_stmt</title>
<path fill="none" stroke="black" d="M850,-255C850,-255 639,-255 639,-255 633,-255 627,-249 627,-243 627,-243 627,-231 627,-231 627,-225 633,-219 639,-219 639,-219 850,-219 850,-219 856,-219 862,-225 862,-231 862,-231 862,-243 862,-243 862,-249 856,-255 850,-255"/>
<text text-anchor="middle" x="744.5" y="-233.3" font-family="Helvetica,sans-Serif" font-size="14.00">Add return statement if needed</text>
</g>
<!-- trans_compound_stmt&#45;&gt;add_return_stmt -->
<g id="edge24" class="edge">
<title>trans_compound_stmt&#45;&gt;add_return_stmt</title>
<path fill="none" stroke="black" d="M699.42,-305.93C717.29,-301.12 732.08,-295.19 738.5,-288 743.99,-281.86 746.25,-273.46 746.91,-265.31"/>
<polygon fill="black" stroke="black" points="750.41,-265.33 747.03,-255.29 743.41,-265.25 750.41,-265.33"/>
<text text-anchor="middle" x="774" y="-276.8" font-family="Helvetica,sans-Serif" font-size="14.00">Success</text>
</g>
<!-- complete_body -->
<g id="node21" class="node">
<title>complete_body</title>
<path fill="none" stroke="black" d="M780,-182C780,-182 621,-182 621,-182 615,-182 609,-176 609,-170 609,-170 609,-158 609,-158 609,-152 615,-146 621,-146 621,-146 780,-146 780,-146 786,-146 792,-152 792,-158 792,-158 792,-170 792,-170 792,-176 786,-182 780,-182"/>
<text text-anchor="middle" x="700.5" y="-160.3" font-family="Helvetica,sans-Serif" font-size="14.00">Complete function body</text>
</g>
<!-- add_return_stmt&#45;&gt;complete_body -->
<g id="edge26" class="edge">
<title>add_return_stmt&#45;&gt;complete_body</title>
<path fill="none" stroke="black" d="M733.85,-218.81C728.61,-210.35 722.18,-199.98 716.37,-190.61"/>
<polygon fill="black" stroke="black" points="719.3,-188.69 711.05,-182.03 713.35,-192.37 719.3,-188.69"/>
</g>
<!-- add_top_decl -->
<g id="node22" class="node">
<title>add_top_decl</title>
<path fill="none" stroke="black" d="M693.5,-109C693.5,-109 527.5,-109 527.5,-109 521.5,-109 515.5,-103 515.5,-97 515.5,-97 515.5,-85 515.5,-85 515.5,-79 521.5,-73 527.5,-73 527.5,-73 693.5,-73 693.5,-73 699.5,-73 705.5,-79 705.5,-85 705.5,-85 705.5,-97 705.5,-97 705.5,-103 699.5,-109 693.5,-109"/>
<text text-anchor="middle" x="610.5" y="-87.3" font-family="Helvetica,sans-Serif" font-size="14.00">Add top&#45;level declaration</text>
</g>
<!-- complete_body&#45;&gt;add_top_decl -->
<g id="edge27" class="edge">
<title>complete_body&#45;&gt;add_top_decl</title>
<path fill="none" stroke="black" d="M678.71,-145.81C667.11,-136.66 652.66,-125.26 640.06,-115.32"/>
<polygon fill="black" stroke="black" points="642.1,-112.47 632.09,-109.03 637.77,-117.97 642.1,-112.47"/>
</g>
<!-- add_top_decl&#45;&gt;end -->
<g id="edge29" class="edge">
<title>add_top_decl&#45;&gt;end</title>
<path fill="none" stroke="black" d="M559.48,-72.99C520.95,-60.15 468.97,-42.82 434.4,-31.3"/>
<polygon fill="black" stroke="black" points="435.29,-27.91 424.7,-28.07 433.08,-34.55 435.29,-27.91"/>
</g>
</g>
</svg>
