<?xml version="1.0" encoding="UTF-8" standalone="no"?>
<!DOCTYPE svg PUBLIC "-//W3C//DTD SVG 1.1//EN"
 "http://www.w3.org/Graphics/SVG/1.1/DTD/svg11.dtd">
<!-- Generated by graphviz version 2.43.0 (0)
 -->
<!-- Title: hasRuntimeBitsInner Pages: 1 -->
<svg width="1981pt" height="743pt"
 viewBox="0.00 0.00 1980.74 742.60" xmlns="http://www.w3.org/2000/svg" xmlns:xlink="http://www.w3.org/1999/xlink">
<g id="graph0" class="graph" transform="scale(1 1) rotate(0) translate(4 738.6)">
<title>hasRuntimeBitsInner</title>
<polygon fill="white" stroke="transparent" points="-4,4 -4,-738.6 1976.74,-738.6 1976.74,4 -4,4"/>
<!-- start -->
<g id="node1" class="node">
<title>start</title>
<ellipse fill="#c0ffc0" stroke="black" cx="895.74" cy="-716.6" rx="129.18" ry="18"/>
<text text-anchor="middle" x="895.74" y="-712.9" font-family="Arial" font-size="14.00">Start: hasRuntimeBitsInner(...)</text>
</g>
<!-- switch_ty_intern -->
<g id="node5" class="node">
<title>switch_ty_intern</title>
<polygon fill="#f0f0f0" stroke="black" points="959.74,-661.6 831.74,-661.6 831.74,-625.6 959.74,-625.6 959.74,-661.6"/>
<text text-anchor="middle" x="895.74" y="-639.9" font-family="Arial" font-size="14.00">Switch ty.toIntern()</text>
</g>
<!-- start&#45;&gt;switch_ty_intern -->
<g id="edge1" class="edge">
<title>start&#45;&gt;switch_ty_intern</title>
<path fill="none" stroke="black" d="M895.74,-698.41C895.74,-690.39 895.74,-680.65 895.74,-671.67"/>
<polygon fill="black" stroke="black" points="899.24,-671.63 895.74,-661.63 892.24,-671.63 899.24,-671.63"/>
</g>
<!-- end_true -->
<g id="node2" class="node">
<title>end_true</title>
<ellipse fill="#ffc0c0" stroke="black" cx="998.74" cy="-58.6" rx="54.69" ry="18"/>
<text text-anchor="middle" x="998.74" y="-54.9" font-family="Arial" font-size="14.00">Return true</text>
</g>
<!-- end -->
<g id="node25" class="node">
<title>end</title>
<ellipse fill="#f0f0f0" stroke="black" cx="815.74" cy="-1.8" rx="1.8" ry="1.8"/>
</g>
<!-- end_true&#45;&gt;end -->
<g id="edge45" class="edge">
<title>end_true&#45;&gt;end</title>
<path fill="none" stroke="black" d="M959.49,-45.84C917.11,-33.15 852.25,-13.73 826.67,-6.07"/>
<polygon fill="black" stroke="black" points="827.62,-2.7 817.03,-3.19 825.61,-9.41 827.62,-2.7"/>
</g>
<!-- end_false -->
<g id="node3" class="node">
<title>end_false</title>
<ellipse fill="#ffc0c0" stroke="black" cx="794.74" cy="-145.6" rx="57.69" ry="18"/>
<text text-anchor="middle" x="794.74" y="-141.9" font-family="Arial" font-size="14.00">Return false</text>
</g>
<!-- end_false&#45;&gt;end -->
<g id="edge46" class="edge">
<title>end_false&#45;&gt;end</title>
<path fill="none" stroke="black" d="M797.28,-127.5C801.63,-98.08 810.43,-38.68 814.09,-13.98"/>
<polygon fill="black" stroke="black" points="817.59,-14.19 815.6,-3.79 810.67,-13.17 817.59,-14.19"/>
</g>
<!-- error_needed -->
<g id="node4" class="node">
<title>error_needed</title>
<ellipse fill="#ffc0c0" stroke="black" cx="74.74" cy="-199.6" rx="74.99" ry="18"/>
<text text-anchor="middle" x="74.74" y="-195.9" font-family="Arial" font-size="14.00">Error: NeedLazy</text>
</g>
<!-- error_needed&#45;&gt;end -->
<g id="edge47" class="edge">
<title>error_needed&#45;&gt;end</title>
<path fill="none" stroke="black" d="M123.08,-185.83C273.12,-146.18 725.59,-26.62 804.08,-5.88"/>
<polygon fill="black" stroke="black" points="805.45,-9.14 814.22,-3.2 803.66,-2.37 805.45,-9.14"/>
</g>
<!-- case_empty_tuple -->
<g id="node6" class="node">
<title>case_empty_tuple</title>
<polygon fill="#f0f0f0" stroke="black" points="217.24,-520.6 128.24,-520.6 128.24,-484.6 217.24,-484.6 217.24,-520.6"/>
<text text-anchor="middle" x="172.74" y="-498.9" font-family="Arial" font-size="14.00">Return false</text>
</g>
<!-- switch_ty_intern&#45;&gt;case_empty_tuple -->
<g id="edge2" class="edge">
<title>switch_ty_intern&#45;&gt;case_empty_tuple</title>
<path fill="none" stroke="black" d="M831.53,-633.62C713.38,-616.49 453.69,-576.1 227.15,-520.54"/>
<polygon fill="black" stroke="black" points="227.96,-517.13 217.41,-518.13 226.28,-523.93 227.96,-517.13"/>
<text text-anchor="middle" x="716.74" y="-596.4" font-family="Arial" font-size="14.00">.empty_tuple_type</text>
</g>
<!-- switch_ip_key -->
<g id="node7" class="node">
<title>switch_ip_key</title>
<polygon fill="#f0f0f0" stroke="black" points="1255.74,-574.6 1091.74,-574.6 1091.74,-538.6 1255.74,-538.6 1255.74,-574.6"/>
<text text-anchor="middle" x="1173.74" y="-552.9" font-family="Arial" font-size="14.00">Switch ip.indexToKey(...)</text>
</g>
<!-- switch_ty_intern&#45;&gt;switch_ip_key -->
<g id="edge4" class="edge">
<title>switch_ty_intern&#45;&gt;switch_ip_key</title>
<path fill="none" stroke="black" d="M951.67,-625.5C996.91,-611.67 1060.7,-592.16 1108.31,-577.61"/>
<polygon fill="black" stroke="black" points="1109.37,-580.94 1117.91,-574.67 1107.32,-574.25 1109.37,-580.94"/>
<text text-anchor="middle" x="1126.24" y="-596.4" font-family="Arial" font-size="14.00">else → ip.indexToKey(...)</text>
</g>
<!-- case_empty_tuple&#45;&gt;end_false -->
<g id="edge3" class="edge">
<title>case_empty_tuple&#45;&gt;end_false</title>
<path fill="none" stroke="black" d="M170.64,-484.37C168.27,-463.42 164.74,-426.97 164.74,-395.6 164.74,-395.6 164.74,-395.6 164.74,-252.6 164.74,-210.71 188.97,-199.72 226.74,-181.6 270.16,-160.77 611.76,-167.61 659.74,-163.6 683.94,-161.58 710.47,-158.44 733.56,-155.41"/>
<polygon fill="black" stroke="black" points="734.12,-158.86 743.56,-154.07 733.19,-151.92 734.12,-158.86"/>
</g>
<!-- switch_ip_key&#45;&gt;end_true -->
<g id="edge38" class="edge">
<title>switch_ip_key&#45;&gt;end_true</title>
<path fill="none" stroke="black" d="M1255.95,-555.24C1372.26,-553.77 1578.45,-547.33 1647.74,-520.6 1695.6,-502.14 1738.74,-500.9 1738.74,-449.6 1738.74,-449.6 1738.74,-449.6 1738.74,-144.6 1738.74,-100.39 1695.11,-107.24 1652.74,-94.6 1543.92,-62.12 1206.75,-59.02 1063.83,-59.22"/>
<polygon fill="black" stroke="black" points="1063.46,-55.72 1053.47,-59.24 1063.48,-62.72 1063.46,-55.72"/>
<text text-anchor="middle" x="1848.24" y="-293.4" font-family="Arial" font-size="14.00">.anyframe_type,.error_union_type,...</text>
</g>
<!-- switch_ip_key&#45;&gt;end_true -->
<g id="edge40" class="edge">
<title>switch_ip_key&#45;&gt;end_true</title>
<path fill="none" stroke="black" d="M1255.76,-554.76C1317.36,-552.07 1403.07,-543.88 1474.74,-520.6 1521.3,-505.48 1542.05,-506.26 1570.74,-466.6 1608.41,-414.54 1647.04,-239.77 1619.74,-181.6 1586.35,-110.44 1542.55,-111.37 1465.74,-94.6 1324.63,-63.79 1154.47,-58.89 1063.54,-58.77"/>
<polygon fill="black" stroke="black" points="1063.38,-55.27 1053.39,-58.78 1063.39,-62.27 1063.38,-55.27"/>
<text text-anchor="middle" x="1665.74" y="-293.4" font-family="Arial" font-size="14.00">.opaque_type</text>
</g>
<!-- switch_ip_key&#45;&gt;end_false -->
<g id="edge39" class="edge">
<title>switch_ip_key&#45;&gt;end_false</title>
<path fill="none" stroke="black" d="M1091.36,-554.81C863.35,-551.55 240.74,-534.83 240.74,-449.6 240.74,-449.6 240.74,-449.6 240.74,-252.6 240.74,-157.41 565.27,-175.22 659.74,-163.6 683.33,-160.7 709.22,-157.45 731.97,-154.58"/>
<polygon fill="black" stroke="black" points="732.7,-158.02 742.18,-153.29 731.82,-151.07 732.7,-158.02"/>
<text text-anchor="middle" x="272.24" y="-336.9" font-family="Arial" font-size="14.00">.func_type</text>
</g>
<!-- case_int_type -->
<g id="node8" class="node">
<title>case_int_type</title>
<polygon fill="#f0f0f0" stroke="black" points="1237.24,-271.6 1110.24,-271.6 1110.24,-235.6 1237.24,-235.6 1237.24,-271.6"/>
<text text-anchor="middle" x="1173.74" y="-249.9" font-family="Arial" font-size="14.00">int_type.bits != 0 ?</text>
</g>
<!-- switch_ip_key&#45;&gt;case_int_type -->
<g id="edge5" class="edge">
<title>switch_ip_key&#45;&gt;case_int_type</title>
<path fill="none" stroke="black" d="M1173.74,-538.55C1173.74,-488.69 1173.74,-342.8 1173.74,-281.85"/>
<polygon fill="black" stroke="black" points="1177.24,-281.83 1173.74,-271.83 1170.24,-281.83 1177.24,-281.83"/>
<text text-anchor="middle" x="1199.74" y="-390.9" font-family="Arial" font-size="14.00">.int_type</text>
</g>
<!-- case_ptr_type -->
<g id="node9" class="node">
<title>case_ptr_type</title>
<polygon fill="#f0f0f0" stroke="black" points="763.24,-466.6 602.24,-466.6 602.24,-430.6 763.24,-430.6 763.24,-466.6"/>
<text text-anchor="middle" x="682.74" y="-444.9" font-family="Arial" font-size="14.00">ignore_comptime_only?</text>
</g>
<!-- switch_ip_key&#45;&gt;case_ptr_type -->
<g id="edge8" class="edge">
<title>switch_ip_key&#45;&gt;case_ptr_type</title>
<path fill="none" stroke="black" d="M1091.72,-556C1019.31,-554.36 911.6,-546.99 821.74,-520.6 784.25,-509.59 744.89,-488.46 717.67,-472.1"/>
<polygon fill="black" stroke="black" points="719.28,-468.98 708.92,-466.75 715.63,-474.95 719.28,-468.98"/>
<text text-anchor="middle" x="848.24" y="-498.9" font-family="Arial" font-size="14.00">.ptr_type</text>
</g>
<!-- case_array_type -->
<g id="node13" class="node">
<title>case_array_type</title>
<polygon fill="#f0f0f0" stroke="black" points="943.24,-358.6 764.24,-358.6 764.24,-322.6 943.24,-322.6 943.24,-358.6"/>
<text text-anchor="middle" x="853.74" y="-336.9" font-family="Arial" font-size="14.00">len &gt; 0 &amp;&amp; check child type</text>
</g>
<!-- switch_ip_key&#45;&gt;case_array_type -->
<g id="edge18" class="edge">
<title>switch_ip_key&#45;&gt;case_array_type</title>
<path fill="none" stroke="black" d="M1091.56,-541.03C1072.35,-535.98 1052.37,-529.31 1034.74,-520.6 961.47,-484.4 899.61,-407.09 870.91,-366.96"/>
<polygon fill="black" stroke="black" points="873.75,-364.92 865.13,-358.75 868.03,-368.95 873.75,-364.92"/>
<text text-anchor="middle" x="989.74" y="-444.9" font-family="Arial" font-size="14.00">.array_type</text>
</g>
<!-- case_struct_type -->
<g id="node15" class="node">
<title>case_struct_type</title>
<polygon fill="#f0f0f0" stroke="black" points="1343.24,-466.6 1216.24,-466.6 1216.24,-430.6 1343.24,-430.6 1343.24,-466.6"/>
<text text-anchor="middle" x="1279.74" y="-444.9" font-family="Arial" font-size="14.00">Check struct fields</text>
</g>
<!-- switch_ip_key&#45;&gt;case_struct_type -->
<g id="edge23" class="edge">
<title>switch_ip_key&#45;&gt;case_struct_type</title>
<path fill="none" stroke="black" d="M1190.77,-538.57C1208.21,-521.13 1235.48,-493.86 1255.24,-474.11"/>
<polygon fill="black" stroke="black" points="1257.81,-476.49 1262.4,-466.94 1252.86,-471.54 1257.81,-476.49"/>
<text text-anchor="middle" x="1276.74" y="-498.9" font-family="Arial" font-size="14.00">.struct_type</text>
</g>
<!-- case_union_type -->
<g id="node19" class="node">
<title>case_union_type</title>
<polygon fill="#f0f0f0" stroke="black" points="1561.74,-466.6 1379.74,-466.6 1379.74,-430.6 1561.74,-430.6 1561.74,-466.6"/>
<text text-anchor="middle" x="1470.74" y="-444.9" font-family="Arial" font-size="14.00">Check union fields and tags</text>
</g>
<!-- switch_ip_key&#45;&gt;case_union_type -->
<g id="edge30" class="edge">
<title>switch_ip_key&#45;&gt;case_union_type</title>
<path fill="none" stroke="black" d="M1254.12,-538.58C1274.45,-533.51 1296.08,-527.46 1315.74,-520.6 1355.25,-506.82 1398.4,-486.61 1429.11,-471.27"/>
<polygon fill="black" stroke="black" points="1430.87,-474.3 1438.22,-466.68 1427.72,-468.05 1430.87,-474.3"/>
<text text-anchor="middle" x="1435.74" y="-498.9" font-family="Arial" font-size="14.00">.union_type</text>
</g>
<!-- check_enum_tag -->
<g id="node23" class="node">
<title>check_enum_tag</title>
<polygon fill="#f0f0f0" stroke="black" points="1092.24,-271.6 947.24,-271.6 947.24,-235.6 1092.24,-235.6 1092.24,-271.6"/>
<text text-anchor="middle" x="1019.74" y="-249.9" font-family="Arial" font-size="14.00">Check enum tag type</text>
</g>
<!-- switch_ip_key&#45;&gt;check_enum_tag -->
<g id="edge41" class="edge">
<title>switch_ip_key&#45;&gt;check_enum_tag</title>
<path fill="none" stroke="black" d="M1164.45,-538.52C1149.96,-511.79 1121.21,-458.39 1097.74,-412.6 1074.2,-366.66 1047.81,-312.64 1032.55,-281.15"/>
<polygon fill="black" stroke="black" points="1035.51,-279.23 1028,-271.75 1029.21,-282.28 1035.51,-279.23"/>
<text text-anchor="middle" x="1133.74" y="-390.9" font-family="Arial" font-size="14.00">.enum_type</text>
</g>
<!-- unreachable -->
<g id="node24" class="node">
<title>unreachable</title>
<ellipse fill="#ffc0c0" stroke="black" cx="1892.74" cy="-394.6" rx="59.29" ry="18"/>
<text text-anchor="middle" x="1892.74" y="-390.9" font-family="Arial" font-size="14.00">unreachable</text>
</g>
<!-- switch_ip_key&#45;&gt;unreachable -->
<g id="edge44" class="edge">
<title>switch_ip_key&#45;&gt;unreachable</title>
<path fill="none" stroke="black" d="M1255.85,-553.62C1404.74,-549.58 1708.12,-539.18 1752.74,-520.6 1804.43,-499.07 1849.81,-450.12 1874.06,-420.26"/>
<polygon fill="black" stroke="black" points="1876.84,-422.39 1880.33,-412.39 1871.36,-418.03 1876.84,-422.39"/>
<text text-anchor="middle" x="1886.24" y="-498.9" font-family="Arial" font-size="14.00">values/memoization types</text>
</g>
<!-- case_int_type&#45;&gt;end_true -->
<g id="edge6" class="edge">
<title>case_int_type&#45;&gt;end_true</title>
<path fill="none" stroke="black" d="M1109.88,-236.56C1079.14,-228.59 1048.33,-220.13 1045.74,-217.6 1010.14,-182.78 1001.22,-122.3 999.16,-87.13"/>
<polygon fill="black" stroke="black" points="1002.66,-86.92 998.72,-77.08 995.66,-87.23 1002.66,-86.92"/>
<text text-anchor="middle" x="1024.24" y="-141.9" font-family="Arial" font-size="14.00">Yes</text>
</g>
<!-- case_int_type&#45;&gt;end_false -->
<g id="edge7" class="edge">
<title>case_int_type&#45;&gt;end_false</title>
<path fill="none" stroke="black" d="M1110.18,-237.38C1107.33,-236.77 1104.51,-236.17 1101.74,-235.6 1056.66,-226.31 1041.58,-236.8 999.74,-217.6 976.78,-207.06 978.58,-192.42 955.74,-181.6 919.28,-164.31 906.16,-172.24 866.74,-163.6 860.96,-162.33 854.92,-160.97 848.91,-159.59"/>
<polygon fill="black" stroke="black" points="849.39,-156.11 838.86,-157.25 847.81,-162.93 849.39,-156.11"/>
<text text-anchor="middle" x="1008.74" y="-195.9" font-family="Arial" font-size="14.00">No</text>
</g>
<!-- case_ptr_type&#45;&gt;end_true -->
<g id="edge9" class="edge">
<title>case_ptr_type&#45;&gt;end_true</title>
<path fill="none" stroke="black" d="M682.74,-430.34C682.74,-409.36 682.74,-372.88 682.74,-341.6 682.74,-341.6 682.74,-341.6 682.74,-144.6 682.74,-92.78 843.18,-71.65 935.42,-63.79"/>
<polygon fill="black" stroke="black" points="935.82,-67.27 945.5,-62.96 935.24,-60.29 935.82,-67.27"/>
<text text-anchor="middle" x="694.24" y="-249.9" font-family="Arial" font-size="14.00">Yes</text>
</g>
<!-- switch_strat_ptr -->
<g id="node10" class="node">
<title>switch_strat_ptr</title>
<polygon fill="#f0f0f0" stroke="black" points="470.74,-358.6 384.74,-358.6 384.74,-322.6 470.74,-322.6 470.74,-358.6"/>
<text text-anchor="middle" x="427.74" y="-336.9" font-family="Arial" font-size="14.00">Switch strat</text>
</g>
<!-- case_ptr_type&#45;&gt;switch_strat_ptr -->
<g id="edge10" class="edge">
<title>case_ptr_type&#45;&gt;switch_strat_ptr</title>
<path fill="none" stroke="black" d="M641.77,-430.57C597.29,-412.08 526.21,-382.53 478.29,-362.61"/>
<polygon fill="black" stroke="black" points="479.61,-359.37 469.03,-358.76 476.93,-365.83 479.61,-359.37"/>
<text text-anchor="middle" x="602.74" y="-390.9" font-family="Arial" font-size="14.00">No</text>
</g>
<!-- switch_strat_ptr&#45;&gt;error_needed -->
<g id="edge17" class="edge">
<title>switch_strat_ptr&#45;&gt;error_needed</title>
<path fill="none" stroke="black" d="M384.46,-322.56C317.78,-296.3 190.45,-246.16 121.65,-219.07"/>
<polygon fill="black" stroke="black" points="122.52,-215.65 111.94,-215.25 119.96,-222.17 122.52,-215.65"/>
<text text-anchor="middle" x="352.74" y="-293.4" font-family="Arial" font-size="14.00">.lazy</text>
</g>
<!-- sema_ptr -->
<g id="node11" class="node">
<title>sema_ptr</title>
<polygon fill="#f0f0f0" stroke="black" points="452.24,-271.6 269.24,-271.6 269.24,-235.6 452.24,-235.6 452.24,-271.6"/>
<text text-anchor="middle" x="360.74" y="-249.9" font-family="Arial" font-size="14.00">Check comptimeOnlySema</text>
</g>
<!-- switch_strat_ptr&#45;&gt;sema_ptr -->
<g id="edge11" class="edge">
<title>switch_strat_ptr&#45;&gt;sema_ptr</title>
<path fill="none" stroke="black" d="M414.18,-322.4C404.56,-310.19 391.48,-293.59 380.67,-279.88"/>
<polygon fill="black" stroke="black" points="383.22,-277.46 374.28,-271.78 377.72,-281.8 383.22,-277.46"/>
<text text-anchor="middle" x="417.74" y="-293.4" font-family="Arial" font-size="14.00">.sema</text>
</g>
<!-- eager_ptr -->
<g id="node12" class="node">
<title>eager_ptr</title>
<polygon fill="#f0f0f0" stroke="black" points="647.24,-271.6 470.24,-271.6 470.24,-235.6 647.24,-235.6 647.24,-271.6"/>
<text text-anchor="middle" x="558.74" y="-249.9" font-family="Arial" font-size="14.00">Check comptimeOnly(zcu)</text>
</g>
<!-- switch_strat_ptr&#45;&gt;eager_ptr -->
<g id="edge14" class="edge">
<title>switch_strat_ptr&#45;&gt;eager_ptr</title>
<path fill="none" stroke="black" d="M454.25,-322.4C474.23,-309.44 501.81,-291.54 523.62,-277.39"/>
<polygon fill="black" stroke="black" points="525.79,-280.15 532.27,-271.78 521.98,-274.28 525.79,-280.15"/>
<text text-anchor="middle" x="521.24" y="-293.4" font-family="Arial" font-size="14.00">.eager</text>
</g>
<!-- sema_ptr&#45;&gt;end_true -->
<g id="edge12" class="edge">
<title>sema_ptr&#45;&gt;end_true</title>
<path fill="none" stroke="black" d="M386.57,-235.46C425.12,-210.24 500.41,-162.35 567.74,-127.6 600.47,-110.71 608.1,-103.85 643.74,-94.6 742.73,-68.91 861.72,-61.8 933.72,-59.99"/>
<polygon fill="black" stroke="black" points="934.08,-63.48 944,-59.76 933.92,-56.48 934.08,-63.48"/>
<text text-anchor="middle" x="582.24" y="-141.9" font-family="Arial" font-size="14.00">false</text>
</g>
<!-- sema_ptr&#45;&gt;end_false -->
<g id="edge13" class="edge">
<title>sema_ptr&#45;&gt;end_false</title>
<path fill="none" stroke="black" d="M430.47,-235.57C516.81,-214.48 662.04,-179.01 740.51,-159.85"/>
<polygon fill="black" stroke="black" points="741.78,-163.14 750.66,-157.37 740.12,-156.34 741.78,-163.14"/>
<text text-anchor="middle" x="654.74" y="-195.9" font-family="Arial" font-size="14.00">true</text>
</g>
<!-- eager_ptr&#45;&gt;end_true -->
<g id="edge15" class="edge">
<title>eager_ptr&#45;&gt;end_true</title>
<path fill="none" stroke="black" d="M564.45,-235.59C576.99,-201.34 610.57,-124.72 668.74,-94.6 713.56,-71.4 851.59,-63.56 934.26,-60.92"/>
<polygon fill="black" stroke="black" points="934.41,-64.42 944.3,-60.62 934.2,-57.42 934.41,-64.42"/>
<text text-anchor="middle" x="641.24" y="-141.9" font-family="Arial" font-size="14.00">false</text>
</g>
<!-- eager_ptr&#45;&gt;end_false -->
<g id="edge16" class="edge">
<title>eager_ptr&#45;&gt;end_false</title>
<path fill="none" stroke="black" d="M647.33,-237.13C691.51,-229.14 736.51,-220.47 740.74,-217.6 756.46,-206.94 752.3,-196.75 763.74,-181.6 766.38,-178.1 769.29,-174.52 772.23,-171.05"/>
<polygon fill="black" stroke="black" points="775.11,-173.07 779.05,-163.24 769.84,-168.47 775.11,-173.07"/>
<text text-anchor="middle" x="775.74" y="-195.9" font-family="Arial" font-size="14.00">true</text>
</g>
<!-- case_array_type&#45;&gt;end_false -->
<g id="edge22" class="edge">
<title>case_array_type&#45;&gt;end_false</title>
<path fill="none" stroke="black" d="M809.61,-322.54C787.69,-311.55 763.28,-294.9 750.74,-271.6 743.16,-257.51 742.26,-249.16 750.74,-235.6 760.44,-220.1 777.3,-232.61 787.74,-217.6 796.48,-205.04 798.42,-188.08 798.08,-173.88"/>
<polygon fill="black" stroke="black" points="801.56,-173.44 797.46,-163.68 794.58,-173.87 801.56,-173.44"/>
<text text-anchor="middle" x="759.74" y="-249.9" font-family="Arial" font-size="14.00">No</text>
</g>
<!-- check_child_array -->
<g id="node14" class="node">
<title>check_child_array</title>
<polygon fill="#f0f0f0" stroke="black" points="929.24,-271.6 778.24,-271.6 778.24,-235.6 929.24,-235.6 929.24,-271.6"/>
<text text-anchor="middle" x="853.74" y="-249.9" font-family="Arial" font-size="14.00">Recursive call on child</text>
</g>
<!-- case_array_type&#45;&gt;check_child_array -->
<g id="edge19" class="edge">
<title>case_array_type&#45;&gt;check_child_array</title>
<path fill="none" stroke="black" d="M853.74,-322.4C853.74,-310.76 853.74,-295.15 853.74,-281.84"/>
<polygon fill="black" stroke="black" points="857.24,-281.78 853.74,-271.78 850.24,-281.78 857.24,-281.78"/>
<text text-anchor="middle" x="865.24" y="-293.4" font-family="Arial" font-size="14.00">Yes</text>
</g>
<!-- check_child_array&#45;&gt;end_true -->
<g id="edge20" class="edge">
<title>check_child_array&#45;&gt;end_true</title>
<path fill="none" stroke="black" d="M865.52,-235.31C875.38,-220.89 889.87,-199.83 902.74,-181.6 919.82,-157.42 923.56,-150.96 941.74,-127.6 953.23,-112.84 966.64,-96.79 977.57,-83.99"/>
<polygon fill="black" stroke="black" points="980.49,-85.96 984.35,-76.09 975.18,-81.4 980.49,-85.96"/>
<text text-anchor="middle" x="953.74" y="-141.9" font-family="Arial" font-size="14.00">true</text>
</g>
<!-- check_child_array&#45;&gt;end_false -->
<g id="edge21" class="edge">
<title>check_child_array&#45;&gt;end_false</title>
<path fill="none" stroke="black" d="M844.91,-235.54C837.36,-221.08 826.09,-199.84 815.74,-181.6 814.01,-178.55 812.17,-175.37 810.31,-172.22"/>
<polygon fill="black" stroke="black" points="813.29,-170.39 805.17,-163.59 807.28,-173.97 813.29,-170.39"/>
<text text-anchor="middle" x="850.24" y="-195.9" font-family="Arial" font-size="14.00">false</text>
</g>
<!-- resolve_fields -->
<g id="node16" class="node">
<title>resolve_fields</title>
<polygon fill="#f0f0f0" stroke="black" points="1340.24,-358.6 1241.24,-358.6 1241.24,-322.6 1340.24,-322.6 1340.24,-358.6"/>
<text text-anchor="middle" x="1290.74" y="-336.9" font-family="Arial" font-size="14.00">resolve_fields</text>
</g>
<!-- case_struct_type&#45;&gt;resolve_fields -->
<g id="edge24" class="edge">
<title>case_struct_type&#45;&gt;resolve_fields</title>
<path fill="none" stroke="black" d="M1281.51,-430.57C1283.23,-413.98 1285.88,-388.48 1287.9,-369.03"/>
<polygon fill="black" stroke="black" points="1291.39,-369.25 1288.94,-358.94 1284.43,-368.53 1291.39,-369.25"/>
<text text-anchor="middle" x="1329.24" y="-390.9" font-family="Arial" font-size="14.00">Resolve fields</text>
</g>
<!-- loop_fields -->
<g id="node17" class="node">
<title>loop_fields</title>
<polygon fill="#f0f0f0" stroke="black" points="1386.24,-271.6 1255.24,-271.6 1255.24,-235.6 1386.24,-235.6 1386.24,-271.6"/>
<text text-anchor="middle" x="1320.74" y="-249.9" font-family="Arial" font-size="14.00">Loop through fields</text>
</g>
<!-- resolve_fields&#45;&gt;loop_fields -->
<g id="edge25" class="edge">
<title>resolve_fields&#45;&gt;loop_fields</title>
<path fill="none" stroke="black" d="M1296.81,-322.4C1300.96,-310.65 1306.54,-294.84 1311.27,-281.44"/>
<polygon fill="black" stroke="black" points="1314.65,-282.37 1314.68,-271.78 1308.05,-280.04 1314.65,-282.37"/>
</g>
<!-- loop_fields&#45;&gt;end_false -->
<g id="edge29" class="edge">
<title>loop_fields&#45;&gt;end_false</title>
<path fill="none" stroke="black" d="M1255.06,-237.06C1252.26,-236.54 1249.48,-236.05 1246.74,-235.6 1166.97,-222.52 1140.44,-248.52 1065.74,-217.6 1042.4,-207.94 1045.01,-191.46 1021.74,-181.6 957.88,-154.55 935.05,-175.59 866.74,-163.6 860.6,-162.52 854.2,-161.24 847.85,-159.87"/>
<polygon fill="black" stroke="black" points="848.5,-156.43 837.98,-157.67 846.98,-163.26 848.5,-156.43"/>
<text text-anchor="middle" x="1118.24" y="-195.9" font-family="Arial" font-size="14.00">All fields checked</text>
</g>
<!-- field_has_bits -->
<g id="node18" class="node">
<title>field_has_bits</title>
<polygon fill="#f0f0f0" stroke="black" points="1377.24,-163.6 1264.24,-163.6 1264.24,-127.6 1377.24,-127.6 1377.24,-163.6"/>
<text text-anchor="middle" x="1320.74" y="-141.9" font-family="Arial" font-size="14.00">Check field type</text>
</g>
<!-- loop_fields&#45;&gt;field_has_bits -->
<g id="edge26" class="edge">
<title>loop_fields&#45;&gt;field_has_bits</title>
<path fill="none" stroke="black" d="M1320.74,-235.57C1320.74,-218.98 1320.74,-193.48 1320.74,-174.03"/>
<polygon fill="black" stroke="black" points="1324.24,-173.94 1320.74,-163.94 1317.24,-173.94 1324.24,-173.94"/>
<text text-anchor="middle" x="1349.24" y="-195.9" font-family="Arial" font-size="14.00">Next field</text>
</g>
<!-- field_has_bits&#45;&gt;end_true -->
<g id="edge27" class="edge">
<title>field_has_bits&#45;&gt;end_true</title>
<path fill="none" stroke="black" d="M1263.92,-129.6C1203.33,-113.61 1108.24,-88.51 1049.91,-73.11"/>
<polygon fill="black" stroke="black" points="1050.74,-69.7 1040.17,-70.54 1048.95,-76.47 1050.74,-69.7"/>
<text text-anchor="middle" x="1190.74" y="-98.4" font-family="Arial" font-size="14.00">true</text>
</g>
<!-- field_has_bits&#45;&gt;loop_fields -->
<g id="edge28" class="edge">
<title>field_has_bits&#45;&gt;loop_fields</title>
<path fill="none" stroke="black" d="M1361.4,-163.62C1368.35,-168.4 1374.64,-174.33 1378.74,-181.6 1386.61,-195.53 1386.61,-203.67 1378.74,-217.6 1376.31,-221.92 1373.1,-225.76 1369.44,-229.17"/>
<polygon fill="black" stroke="black" points="1367.04,-226.61 1361.4,-235.58 1371.41,-232.08 1367.04,-226.61"/>
<text text-anchor="middle" x="1398.24" y="-195.9" font-family="Arial" font-size="14.00">false</text>
</g>
<!-- check_tag_type -->
<g id="node20" class="node">
<title>check_tag_type</title>
<polygon fill="#f0f0f0" stroke="black" points="1544.24,-358.6 1433.24,-358.6 1433.24,-322.6 1544.24,-322.6 1544.24,-358.6"/>
<text text-anchor="middle" x="1488.74" y="-336.9" font-family="Arial" font-size="14.00">check_tag_type</text>
</g>
<!-- case_union_type&#45;&gt;check_tag_type -->
<g id="edge31" class="edge">
<title>case_union_type&#45;&gt;check_tag_type</title>
<path fill="none" stroke="black" d="M1473.64,-430.57C1476.45,-413.98 1480.78,-388.48 1484.09,-369.03"/>
<polygon fill="black" stroke="black" points="1487.58,-369.39 1485.8,-358.94 1480.67,-368.21 1487.58,-369.39"/>
<text text-anchor="middle" x="1527.24" y="-390.9" font-family="Arial" font-size="14.00">Check tag type</text>
</g>
<!-- check_tag_type&#45;&gt;end_true -->
<g id="edge32" class="edge">
<title>check_tag_type&#45;&gt;end_true</title>
<path fill="none" stroke="black" d="M1527.03,-322.46C1547.27,-311.16 1570.25,-294.25 1581.74,-271.6 1613.36,-209.31 1576.41,-167.03 1518.74,-127.6 1445.99,-77.86 1185.86,-64.46 1063.39,-60.88"/>
<polygon fill="black" stroke="black" points="1063.13,-57.38 1053.04,-60.6 1062.93,-64.37 1063.13,-57.38"/>
<text text-anchor="middle" x="1603.74" y="-195.9" font-family="Arial" font-size="14.00">true</text>
</g>
<!-- loop_union_fields -->
<g id="node21" class="node">
<title>loop_union_fields</title>
<polygon fill="#f0f0f0" stroke="black" points="1572.74,-271.6 1404.74,-271.6 1404.74,-235.6 1572.74,-235.6 1572.74,-271.6"/>
<text text-anchor="middle" x="1488.74" y="-249.9" font-family="Arial" font-size="14.00">Loop through union fields</text>
</g>
<!-- check_tag_type&#45;&gt;loop_union_fields -->
<g id="edge33" class="edge">
<title>check_tag_type&#45;&gt;loop_union_fields</title>
<path fill="none" stroke="black" d="M1488.74,-322.4C1488.74,-310.76 1488.74,-295.15 1488.74,-281.84"/>
<polygon fill="black" stroke="black" points="1492.24,-281.78 1488.74,-271.78 1485.24,-281.78 1492.24,-281.78"/>
<text text-anchor="middle" x="1503.24" y="-293.4" font-family="Arial" font-size="14.00">false</text>
</g>
<!-- loop_union_fields&#45;&gt;end_false -->
<g id="edge37" class="edge">
<title>loop_union_fields&#45;&gt;end_false</title>
<path fill="none" stroke="black" d="M1404.64,-236.9C1401.64,-236.45 1398.67,-236.01 1395.74,-235.6 1314.37,-224.2 1287.13,-250.28 1211.74,-217.6 1189.49,-207.96 1193.17,-190.82 1170.74,-181.6 1108.15,-155.88 933.7,-173.41 866.74,-163.6 860.41,-162.67 853.8,-161.46 847.28,-160.11"/>
<polygon fill="black" stroke="black" points="847.67,-156.61 837.15,-157.9 846.17,-163.45 847.67,-156.61"/>
<text text-anchor="middle" x="1264.24" y="-195.9" font-family="Arial" font-size="14.00">All fields checked</text>
</g>
<!-- check_union_field -->
<g id="node22" class="node">
<title>check_union_field</title>
<polygon fill="#f0f0f0" stroke="black" points="1509.24,-163.6 1396.24,-163.6 1396.24,-127.6 1509.24,-127.6 1509.24,-163.6"/>
<text text-anchor="middle" x="1452.74" y="-141.9" font-family="Arial" font-size="14.00">Check field type</text>
</g>
<!-- loop_union_fields&#45;&gt;check_union_field -->
<g id="edge34" class="edge">
<title>loop_union_fields&#45;&gt;check_union_field</title>
<path fill="none" stroke="black" d="M1490.17,-235.55C1490.76,-220.72 1490,-198.94 1482.74,-181.6 1481.3,-178.15 1479.38,-174.79 1477.21,-171.61"/>
<polygon fill="black" stroke="black" points="1479.93,-169.4 1471.03,-163.64 1474.4,-173.69 1479.93,-169.4"/>
<text text-anchor="middle" x="1518.24" y="-195.9" font-family="Arial" font-size="14.00">Next field</text>
</g>
<!-- check_union_field&#45;&gt;end_true -->
<g id="edge35" class="edge">
<title>check_union_field&#45;&gt;end_true</title>
<path fill="none" stroke="black" d="M1395.92,-129.69C1392.82,-128.96 1389.75,-128.26 1386.74,-127.6 1270.89,-102.09 1133.9,-79.93 1057.61,-68.29"/>
<polygon fill="black" stroke="black" points="1058.12,-64.83 1047.7,-66.79 1057.07,-71.75 1058.12,-64.83"/>
<text text-anchor="middle" x="1302.74" y="-98.4" font-family="Arial" font-size="14.00">true</text>
</g>
<!-- check_union_field&#45;&gt;loop_union_fields -->
<g id="edge36" class="edge">
<title>check_union_field&#45;&gt;loop_union_fields</title>
<path fill="none" stroke="black" d="M1447.88,-163.75C1444.59,-178.66 1442.1,-200.47 1449.74,-217.6 1451.41,-221.33 1453.68,-224.82 1456.31,-228.05"/>
<polygon fill="black" stroke="black" points="1453.97,-230.67 1463.4,-235.51 1459.05,-225.85 1453.97,-230.67"/>
<text text-anchor="middle" x="1464.24" y="-195.9" font-family="Arial" font-size="14.00">false</text>
</g>
<!-- check_enum_tag&#45;&gt;end_true -->
<g id="edge42" class="edge">
<title>check_enum_tag&#45;&gt;end_true</title>
<path fill="none" stroke="black" d="M993.35,-235.25C987.84,-230.26 982.79,-224.32 979.74,-217.6 960.27,-174.69 975.18,-118.83 987.3,-86.32"/>
<polygon fill="black" stroke="black" points="990.7,-87.22 991.09,-76.63 984.18,-84.67 990.7,-87.22"/>
<text text-anchor="middle" x="985.74" y="-141.9" font-family="Arial" font-size="14.00">true</text>
</g>
<!-- check_enum_tag&#45;&gt;end_false -->
<g id="edge43" class="edge">
<title>check_enum_tag&#45;&gt;end_false</title>
<path fill="none" stroke="black" d="M965.15,-235.51C951.05,-230.4 936.09,-224.33 922.74,-217.6 896.99,-204.61 893.85,-195.8 868.74,-181.6 858.41,-175.75 846.94,-170 836.18,-164.89"/>
<polygon fill="black" stroke="black" points="837.49,-161.64 826.95,-160.59 834.53,-167.99 837.49,-161.64"/>
<text text-anchor="middle" x="937.24" y="-195.9" font-family="Arial" font-size="14.00">false</text>
</g>
<!-- unreachable&#45;&gt;end -->
<g id="edge48" class="edge">
<title>unreachable&#45;&gt;end</title>
<path fill="none" stroke="black" d="M1918.06,-377.98C1941.49,-361.36 1972.74,-332.71 1972.74,-298.1 1972.74,-298.1 1972.74,-298.1 1972.74,-57.6 1972.74,2.91 949.78,-1.92 827.62,-2.72"/>
<polygon fill="black" stroke="black" points="827.3,0.78 817.32,-2.79 827.35,-6.22 827.3,0.78"/>
</g>
</g>
</svg>
