<?xml version="1.0" encoding="UTF-8" standalone="no"?>
<!DOCTYPE svg PUBLIC "-//W3C//DTD SVG 1.1//EN"
 "http://www.w3.org/Graphics/SVG/1.1/DTD/svg11.dtd">
<!-- Generated by graphviz version 2.43.0 (0)
 -->
<!-- Title: readFromMemory_flowchart Pages: 1 -->
<svg width="2157pt" height="404pt"
 viewBox="0.00 0.00 2157.00 404.00" xmlns="http://www.w3.org/2000/svg" xmlns:xlink="http://www.w3.org/1999/xlink">
<g id="graph0" class="graph" transform="scale(1 1) rotate(0) translate(4 400)">
<title>readFromMemory_flowchart</title>
<polygon fill="white" stroke="transparent" points="-4,4 -4,-400 2153,-400 2153,4 -4,4"/>
<!-- start -->
<g id="node1" class="node">
<title>start</title>
<path fill="none" stroke="black" d="M1099.5,-396C1099.5,-396 793.5,-396 793.5,-396 787.5,-396 781.5,-390 781.5,-384 781.5,-384 781.5,-372 781.5,-372 781.5,-366 787.5,-360 793.5,-360 793.5,-360 1099.5,-360 1099.5,-360 1105.5,-360 1111.5,-366 1111.5,-372 1111.5,-372 1111.5,-384 1111.5,-384 1111.5,-390 1105.5,-396 1099.5,-396"/>
<text text-anchor="middle" x="946.5" y="-374.3" font-family="Times,serif" font-size="14.00">开始: readFromMemory(ty, pt, buffer, arena)</text>
</g>
<!-- check_ty -->
<g id="node2" class="node">
<title>check_ty</title>
<path fill="none" stroke="black" d="M934.57,-321.71C934.57,-321.71 792.2,-306.29 792.2,-306.29 786.23,-305.65 786.23,-304.35 792.2,-303.71 792.2,-303.71 934.57,-288.29 934.57,-288.29 940.53,-287.65 952.47,-287.65 958.43,-288.29 958.43,-288.29 1100.8,-303.71 1100.8,-303.71 1106.77,-304.35 1106.77,-305.65 1100.8,-306.29 1100.8,-306.29 958.43,-321.71 958.43,-321.71 952.47,-322.35 940.53,-322.35 934.57,-321.71"/>
<text text-anchor="middle" x="946.5" y="-301.3" font-family="Times,serif" font-size="14.00">检查 ty.zigTypeTag(zcu)</text>
</g>
<!-- start&#45;&gt;check_ty -->
<g id="edge1" class="edge">
<title>start&#45;&gt;check_ty</title>
<path fill="none" stroke="black" d="M946.5,-359.81C946.5,-351.79 946.5,-342.05 946.5,-333.07"/>
<polygon fill="black" stroke="black" points="950,-333.03 946.5,-323.03 943,-333.03 950,-333.03"/>
</g>
<!-- void_case -->
<g id="node3" class="node">
<title>void_case</title>
<path fill="none" stroke="black" d="M1374.5,-171.5C1374.5,-171.5 1276.5,-171.5 1276.5,-171.5 1270.5,-171.5 1264.5,-165.5 1264.5,-159.5 1264.5,-159.5 1264.5,-147.5 1264.5,-147.5 1264.5,-141.5 1270.5,-135.5 1276.5,-135.5 1276.5,-135.5 1374.5,-135.5 1374.5,-135.5 1380.5,-135.5 1386.5,-141.5 1386.5,-147.5 1386.5,-147.5 1386.5,-159.5 1386.5,-159.5 1386.5,-165.5 1380.5,-171.5 1374.5,-171.5"/>
<text text-anchor="middle" x="1325.5" y="-149.8" font-family="Times,serif" font-size="14.00">返回 Value.void</text>
</g>
<!-- check_ty&#45;&gt;void_case -->
<g id="edge2" class="edge">
<title>check_ty&#45;&gt;void_case</title>
<path fill="none" stroke="black" d="M1060.02,-299.29C1159.13,-292.51 1292.19,-276.01 1325.5,-236 1337.79,-221.23 1337.04,-199.19 1333.63,-181.76"/>
<polygon fill="black" stroke="black" points="1336.94,-180.54 1331.25,-171.6 1330.12,-182.14 1336.94,-180.54"/>
<text text-anchor="middle" x="1314" y="-257.8" font-family="Times,serif" font-size="14.00">.void</text>
</g>
<!-- bool_case -->
<g id="node4" class="node">
<title>bool_case</title>
<path fill="none" stroke="black" d="M1990.5,-180C1990.5,-180 1880.5,-180 1880.5,-180 1874.5,-180 1868.5,-174 1868.5,-168 1868.5,-168 1868.5,-139 1868.5,-139 1868.5,-133 1874.5,-127 1880.5,-127 1880.5,-127 1990.5,-127 1990.5,-127 1996.5,-127 2002.5,-133 2002.5,-139 2002.5,-139 2002.5,-168 2002.5,-168 2002.5,-174 1996.5,-180 1990.5,-180"/>
<text text-anchor="middle" x="1935.5" y="-164.8" font-family="Times,serif" font-size="14.00">检查 buffer[0]</text>
<text text-anchor="middle" x="1935.5" y="-149.8" font-family="Times,serif" font-size="14.00">0 → Value.false</text>
<text text-anchor="middle" x="1935.5" y="-134.8" font-family="Times,serif" font-size="14.00">非0 → Value.true</text>
</g>
<!-- check_ty&#45;&gt;bool_case -->
<g id="edge3" class="edge">
<title>check_ty&#45;&gt;bool_case</title>
<path fill="none" stroke="black" d="M1083.81,-301.87C1192.76,-298.54 1348.62,-290.12 1483.5,-269 1644.2,-243.83 1680.95,-220.46 1838.5,-180 1845.02,-178.33 1851.77,-176.58 1858.55,-174.81"/>
<polygon fill="black" stroke="black" points="1859.68,-178.14 1868.47,-172.23 1857.91,-171.36 1859.68,-178.14"/>
<text text-anchor="middle" x="1579" y="-257.8" font-family="Times,serif" font-size="14.00">.bool</text>
</g>
<!-- int_enum_case -->
<g id="node5" class="node">
<title>int_enum_case</title>
<path fill="none" stroke="black" d="M137,-180C137,-180 12,-180 12,-180 6,-180 0,-174 0,-168 0,-168 0,-139 0,-139 0,-133 6,-127 12,-127 12,-127 137,-127 137,-127 143,-127 149,-133 149,-139 149,-139 149,-168 149,-168 149,-174 143,-180 137,-180"/>
<text text-anchor="middle" x="74.5" y="-164.8" font-family="Times,serif" font-size="14.00">处理 int/enum:</text>
<text text-anchor="middle" x="74.5" y="-149.8" font-family="Times,serif" font-size="14.00">判断 bits ≤64?</text>
<text text-anchor="middle" x="74.5" y="-134.8" font-family="Times,serif" font-size="14.00">快速路径/大整数路径</text>
</g>
<!-- check_ty&#45;&gt;int_enum_case -->
<g id="edge4" class="edge">
<title>check_ty&#45;&gt;int_enum_case</title>
<path fill="none" stroke="black" d="M809.17,-301.86C656.64,-298.48 420.42,-289.96 333.5,-269 258.88,-251.01 178.95,-212.37 127.93,-184.97"/>
<polygon fill="black" stroke="black" points="129.52,-181.85 119.06,-180.16 126.19,-188 129.52,-181.85"/>
<text text-anchor="middle" x="374.5" y="-257.8" font-family="Times,serif" font-size="14.00">.int / .enum</text>
</g>
<!-- float_case -->
<g id="node6" class="node">
<title>float_case</title>
<path fill="none" stroke="black" d="M315,-171.5C315,-171.5 166,-171.5 166,-171.5 160,-171.5 154,-165.5 154,-159.5 154,-159.5 154,-147.5 154,-147.5 154,-141.5 160,-135.5 166,-135.5 166,-135.5 315,-135.5 315,-135.5 321,-135.5 327,-141.5 327,-147.5 327,-147.5 327,-159.5 327,-159.5 327,-165.5 321,-171.5 315,-171.5"/>
<text text-anchor="middle" x="240.5" y="-149.8" font-family="Times,serif" font-size="14.00">读取浮点数并构造 Value</text>
</g>
<!-- check_ty&#45;&gt;float_case -->
<g id="edge5" class="edge">
<title>check_ty&#45;&gt;float_case</title>
<path fill="none" stroke="black" d="M819.91,-300.69C698.91,-296.48 525.56,-287.42 460.5,-269 389.53,-248.91 315.02,-204.43 273.5,-177.2"/>
<polygon fill="black" stroke="black" points="275.42,-174.28 265.15,-171.67 271.55,-180.11 275.42,-174.28"/>
<text text-anchor="middle" x="479" y="-257.8" font-family="Times,serif" font-size="14.00">.float</text>
</g>
<!-- array_case -->
<g id="node7" class="node">
<title>array_case</title>
<path fill="none" stroke="black" d="M451,-171.5C451,-171.5 344,-171.5 344,-171.5 338,-171.5 332,-165.5 332,-159.5 332,-159.5 332,-147.5 332,-147.5 332,-141.5 338,-135.5 344,-135.5 344,-135.5 451,-135.5 451,-135.5 457,-135.5 463,-141.5 463,-147.5 463,-147.5 463,-159.5 463,-159.5 463,-165.5 457,-171.5 451,-171.5"/>
<text text-anchor="middle" x="397.5" y="-149.8" font-family="Times,serif" font-size="14.00">递归处理数组元素</text>
</g>
<!-- check_ty&#45;&gt;array_case -->
<g id="edge6" class="edge">
<title>check_ty&#45;&gt;array_case</title>
<path fill="none" stroke="black" d="M809.63,-301.79C707.24,-298.42 576.78,-289.99 527.5,-269 481.61,-249.45 440.62,-207.18 417.44,-179.83"/>
<polygon fill="black" stroke="black" points="419.91,-177.32 410.83,-171.86 414.52,-181.79 419.91,-177.32"/>
<text text-anchor="middle" x="549" y="-257.8" font-family="Times,serif" font-size="14.00">.array</text>
</g>
<!-- vector_case -->
<g id="node8" class="node">
<title>vector_case</title>
<path fill="none" stroke="black" d="M685,-171.5C685,-171.5 480,-171.5 480,-171.5 474,-171.5 468,-165.5 468,-159.5 468,-159.5 468,-147.5 468,-147.5 468,-141.5 474,-135.5 480,-135.5 480,-135.5 685,-135.5 685,-135.5 691,-135.5 697,-141.5 697,-147.5 697,-147.5 697,-159.5 697,-159.5 697,-165.5 691,-171.5 685,-171.5"/>
<text text-anchor="middle" x="582.5" y="-149.8" font-family="Times,serif" font-size="14.00">调用 readFromPackedMemory</text>
</g>
<!-- check_ty&#45;&gt;vector_case -->
<g id="edge7" class="edge">
<title>check_ty&#45;&gt;vector_case</title>
<path fill="none" stroke="black" d="M824.47,-300.19C725.5,-295.81 599.81,-286.8 583.5,-269 562.25,-245.81 566.89,-207.56 573.52,-181.71"/>
<polygon fill="black" stroke="black" points="576.97,-182.38 576.32,-171.81 570.24,-180.48 576.97,-182.38"/>
<text text-anchor="middle" x="608.5" y="-257.8" font-family="Times,serif" font-size="14.00">.vector</text>
</g>
<!-- struct_case -->
<g id="node9" class="node">
<title>struct_case</title>
<path fill="none" stroke="black" d="M1304,-236C1304,-236 1119,-236 1119,-236 1113,-236 1107,-230 1107,-224 1107,-224 1107,-210 1107,-210 1107,-204 1113,-198 1119,-198 1119,-198 1304,-198 1304,-198 1310,-198 1316,-204 1316,-210 1316,-210 1316,-224 1316,-224 1316,-230 1310,-236 1304,-236"/>
<text text-anchor="middle" x="1211.5" y="-220.8" font-family="Times,serif" font-size="14.00">处理结构体:</text>
<text text-anchor="middle" x="1211.5" y="-205.8" font-family="Times,serif" font-size="14.00">判断 layout (extern/packed)</text>
</g>
<!-- check_ty&#45;&gt;struct_case -->
<g id="edge8" class="edge">
<title>check_ty&#45;&gt;struct_case</title>
<path fill="none" stroke="black" d="M985.89,-291.22C1028.06,-277.53 1095.68,-255.59 1145.91,-239.29"/>
<polygon fill="black" stroke="black" points="1147.28,-242.52 1155.71,-236.11 1145.12,-235.86 1147.28,-242.52"/>
<text text-anchor="middle" x="1118.5" y="-257.8" font-family="Times,serif" font-size="14.00">.struct</text>
</g>
<!-- error_set_case -->
<g id="node10" class="node">
<title>error_set_case</title>
<path fill="none" stroke="black" d="M790,-109C790,-109 599,-109 599,-109 593,-109 587,-103 587,-97 587,-97 587,-85 587,-85 587,-79 593,-73 599,-73 599,-73 790,-73 790,-73 796,-73 802,-79 802,-85 802,-85 802,-97 802,-97 802,-103 796,-109 790,-109"/>
<text text-anchor="middle" x="694.5" y="-87.3" font-family="Times,serif" font-size="14.00">读取错误码并构造 error Value</text>
</g>
<!-- check_ty&#45;&gt;error_set_case -->
<g id="edge9" class="edge">
<title>check_ty&#45;&gt;error_set_case</title>
<path fill="none" stroke="black" d="M863.78,-295.94C787.39,-286.59 682,-268.17 656.5,-236 646.01,-222.76 647.2,-212.1 656.5,-198 667.68,-181.05 687.32,-196.95 698.5,-180 710.29,-162.12 707.98,-137.46 703.47,-118.8"/>
<polygon fill="black" stroke="black" points="706.84,-117.84 700.82,-109.12 700.09,-119.69 706.84,-117.84"/>
<text text-anchor="middle" x="691.5" y="-213.3" font-family="Times,serif" font-size="14.00">.error_set</text>
</g>
<!-- union_case -->
<g id="node11" class="node">
<title>union_case</title>
<path fill="none" stroke="black" d="M1563.5,-236C1563.5,-236 1485.5,-236 1485.5,-236 1479.5,-236 1473.5,-230 1473.5,-224 1473.5,-224 1473.5,-210 1473.5,-210 1473.5,-204 1479.5,-198 1485.5,-198 1485.5,-198 1563.5,-198 1563.5,-198 1569.5,-198 1575.5,-204 1575.5,-210 1575.5,-210 1575.5,-224 1575.5,-224 1575.5,-230 1569.5,-236 1563.5,-236"/>
<text text-anchor="middle" x="1524.5" y="-220.8" font-family="Times,serif" font-size="14.00">处理联合体:</text>
<text text-anchor="middle" x="1524.5" y="-205.8" font-family="Times,serif" font-size="14.00">判断容器布局</text>
</g>
<!-- check_ty&#45;&gt;union_case -->
<g id="edge10" class="edge">
<title>check_ty&#45;&gt;union_case</title>
<path fill="none" stroke="black" d="M1087.62,-302.22C1173.91,-298.79 1286.06,-290.12 1383.5,-269 1414.43,-262.3 1447.78,-250.46 1474.28,-239.87"/>
<polygon fill="black" stroke="black" points="1475.76,-243.05 1483.71,-236.04 1473.13,-236.56 1475.76,-243.05"/>
<text text-anchor="middle" x="1457" y="-257.8" font-family="Times,serif" font-size="14.00">.union</text>
</g>
<!-- pointer_case -->
<g id="node12" class="node">
<title>pointer_case</title>
<path fill="none" stroke="black" d="M913.5,-235C913.5,-235 747.5,-235 747.5,-235 741.5,-235 735.5,-229 735.5,-223 735.5,-223 735.5,-211 735.5,-211 735.5,-205 741.5,-199 747.5,-199 747.5,-199 913.5,-199 913.5,-199 919.5,-199 925.5,-205 925.5,-211 925.5,-211 925.5,-223 925.5,-223 925.5,-229 919.5,-235 913.5,-235"/>
<text text-anchor="middle" x="830.5" y="-213.3" font-family="Times,serif" font-size="14.00">读取 usize 构造指针 Value</text>
</g>
<!-- check_ty&#45;&gt;pointer_case -->
<g id="edge11" class="edge">
<title>check_ty&#45;&gt;pointer_case</title>
<path fill="none" stroke="black" d="M926.29,-289.02C908.49,-275.82 882.28,-256.39 861.78,-241.19"/>
<polygon fill="black" stroke="black" points="863.78,-238.31 853.66,-235.17 859.61,-243.94 863.78,-238.31"/>
<text text-anchor="middle" x="927" y="-257.8" font-family="Times,serif" font-size="14.00">.pointer</text>
</g>
<!-- optional_case -->
<g id="node13" class="node">
<title>optional_case</title>
<path fill="none" stroke="black" d="M1077,-235C1077,-235 956,-235 956,-235 950,-235 944,-229 944,-223 944,-223 944,-211 944,-211 944,-205 950,-199 956,-199 956,-199 1077,-199 1077,-199 1083,-199 1089,-205 1089,-211 1089,-211 1089,-223 1089,-223 1089,-229 1083,-235 1077,-235"/>
<text text-anchor="middle" x="1016.5" y="-213.3" font-family="Times,serif" font-size="14.00">递归处理可选子类型</text>
</g>
<!-- check_ty&#45;&gt;optional_case -->
<g id="edge12" class="edge">
<title>check_ty&#45;&gt;optional_case</title>
<path fill="none" stroke="black" d="M959.34,-288.23C969.57,-275.66 984.08,-257.82 995.93,-243.27"/>
<polygon fill="black" stroke="black" points="998.94,-245.11 1002.54,-235.15 993.51,-240.69 998.94,-245.11"/>
<text text-anchor="middle" x="1017" y="-257.8" font-family="Times,serif" font-size="14.00">.optional</text>
</g>
<!-- unimplemented -->
<g id="node14" class="node">
<title>unimplemented</title>
<path fill="none" stroke="red" d="M2137,-235C2137,-235 1958,-235 1958,-235 1952,-235 1946,-229 1946,-223 1946,-223 1946,-211 1946,-211 1946,-205 1952,-199 1958,-199 1958,-199 2137,-199 2137,-199 2143,-199 2149,-205 2149,-211 2149,-211 2149,-223 2149,-223 2149,-229 2143,-235 2137,-235"/>
<text text-anchor="middle" x="2047.5" y="-213.3" font-family="Times,serif" font-size="14.00">返回 error.Unimplemented</text>
</g>
<!-- check_ty&#45;&gt;unimplemented -->
<g id="edge13" class="edge">
<title>check_ty&#45;&gt;unimplemented</title>
<path fill="none" stroke="black" d="M1087.48,-302.26C1304.03,-298.96 1708.49,-290.12 1851.5,-269 1896.68,-262.33 1946.47,-249.3 1984.56,-238.08"/>
<polygon fill="black" stroke="black" points="1985.9,-241.33 1994.48,-235.12 1983.9,-234.62 1985.9,-241.33"/>
<text text-anchor="middle" x="1950.5" y="-257.8" font-family="Times,serif" font-size="14.00">其他类型</text>
</g>
<!-- end -->
<g id="node20" class="node">
<title>end</title>
<path fill="none" stroke="black" d="M922,-36C922,-36 815,-36 815,-36 809,-36 803,-30 803,-24 803,-24 803,-12 803,-12 803,-6 809,0 815,0 815,0 922,0 922,0 928,0 934,-6 934,-12 934,-12 934,-24 934,-24 934,-30 928,-36 922,-36"/>
<text text-anchor="middle" x="868.5" y="-14.3" font-family="Times,serif" font-size="14.00">返回构造的 Value</text>
</g>
<!-- void_case&#45;&gt;end -->
<g id="edge19" class="edge">
<title>void_case&#45;&gt;end</title>
<path fill="none" stroke="black" d="M1321.69,-135.42C1316.58,-116.84 1305.6,-87.81 1284.5,-73 1231.13,-35.55 1048.94,-24.07 944.22,-20.55"/>
<polygon fill="black" stroke="black" points="944.13,-17.05 934.02,-20.23 943.9,-24.05 944.13,-17.05"/>
</g>
<!-- bool_case&#45;&gt;end -->
<g id="edge20" class="edge">
<title>bool_case&#45;&gt;end</title>
<path fill="none" stroke="black" d="M2001.27,-126.74C2007.69,-121.77 2013.35,-115.9 2017.5,-109 2025.75,-95.29 2028.54,-84.58 2017.5,-73 1980.43,-34.14 1194.16,-22.46 944.13,-19.72"/>
<polygon fill="black" stroke="black" points="944.08,-16.22 934.04,-19.61 944,-23.22 944.08,-16.22"/>
</g>
<!-- int_enum_case&#45;&gt;end -->
<g id="edge21" class="edge">
<title>int_enum_case&#45;&gt;end</title>
<path fill="none" stroke="black" d="M149.11,-126.91C204.35,-108.99 281.78,-86.01 351.5,-73 506.74,-44.03 691.32,-29.43 792.59,-23.1"/>
<polygon fill="black" stroke="black" points="792.96,-26.58 802.72,-22.47 792.53,-19.59 792.96,-26.58"/>
</g>
<!-- float_case&#45;&gt;end -->
<g id="edge22" class="edge">
<title>float_case&#45;&gt;end</title>
<path fill="none" stroke="black" d="M282.18,-135.45C327.73,-117.44 403.19,-89.44 470.5,-73 580.93,-46.03 712.12,-31.51 792.84,-24.52"/>
<polygon fill="black" stroke="black" points="793.25,-28 802.92,-23.67 792.66,-21.03 793.25,-28"/>
</g>
<!-- array_case&#45;&gt;end -->
<g id="edge23" class="edge">
<title>array_case&#45;&gt;end</title>
<path fill="none" stroke="black" d="M425.68,-135.47C464.33,-112.97 536.62,-73.86 603.5,-54 665.67,-35.54 738.93,-26.8 792.65,-22.68"/>
<polygon fill="black" stroke="black" points="793.06,-26.16 802.78,-21.93 792.55,-19.17 793.06,-26.16"/>
</g>
<!-- vector_case&#45;&gt;end -->
<g id="edge24" class="edge">
<title>vector_case&#45;&gt;end</title>
<path fill="none" stroke="black" d="M575.18,-135.18C568.98,-117.49 563.18,-90.23 577.5,-73 604.38,-40.67 715.81,-27.61 792.71,-22.39"/>
<polygon fill="black" stroke="black" points="793.1,-25.87 802.85,-21.73 792.64,-18.89 793.1,-25.87"/>
</g>
<!-- struct_case_extern -->
<g id="node16" class="node">
<title>struct_case_extern</title>
<path fill="none" stroke="black" d="M1016,-109C1016,-109 909,-109 909,-109 903,-109 897,-103 897,-97 897,-97 897,-85 897,-85 897,-79 903,-73 909,-73 909,-73 1016,-73 1016,-73 1022,-73 1028,-79 1028,-85 1028,-85 1028,-97 1028,-97 1028,-103 1022,-109 1016,-109"/>
<text text-anchor="middle" x="962.5" y="-87.3" font-family="Times,serif" font-size="14.00">递归处理每个字段</text>
</g>
<!-- struct_case&#45;&gt;struct_case_extern -->
<g id="edge14" class="edge">
<title>struct_case&#45;&gt;struct_case_extern</title>
<path fill="none" stroke="black" d="M1161.79,-197.99C1147.93,-192.58 1132.99,-186.38 1119.5,-180 1077.08,-159.93 1030.4,-133.12 999.06,-114.39"/>
<polygon fill="black" stroke="black" points="1000.62,-111.25 990.24,-109.09 997.01,-117.25 1000.62,-111.25"/>
<text text-anchor="middle" x="1145.5" y="-149.8" font-family="Times,serif" font-size="14.00">.extern</text>
</g>
<!-- struct_case_packed -->
<g id="node17" class="node">
<title>struct_case_packed</title>
<path fill="none" stroke="black" d="M1263,-109C1263,-109 1058,-109 1058,-109 1052,-109 1046,-103 1046,-97 1046,-97 1046,-85 1046,-85 1046,-79 1052,-73 1058,-73 1058,-73 1263,-73 1263,-73 1269,-73 1275,-79 1275,-85 1275,-85 1275,-97 1275,-97 1275,-103 1269,-109 1263,-109"/>
<text text-anchor="middle" x="1160.5" y="-87.3" font-family="Times,serif" font-size="14.00">调用 readFromPackedMemory</text>
</g>
<!-- struct_case&#45;&gt;struct_case_packed -->
<g id="edge15" class="edge">
<title>struct_case&#45;&gt;struct_case_packed</title>
<path fill="none" stroke="black" d="M1204.08,-197.97C1195.53,-177.16 1181.37,-142.75 1171.52,-118.8"/>
<polygon fill="black" stroke="black" points="1174.64,-117.17 1167.6,-109.25 1168.16,-119.83 1174.64,-117.17"/>
<text text-anchor="middle" x="1223" y="-149.8" font-family="Times,serif" font-size="14.00">.packed</text>
</g>
<!-- error_set_case&#45;&gt;end -->
<g id="edge27" class="edge">
<title>error_set_case&#45;&gt;end</title>
<path fill="none" stroke="black" d="M736.18,-72.99C760.53,-63.06 791.46,-50.43 817.3,-39.89"/>
<polygon fill="black" stroke="black" points="818.62,-43.13 826.56,-36.11 815.98,-36.65 818.62,-43.13"/>
</g>
<!-- ill_defined -->
<g id="node15" class="node">
<title>ill_defined</title>
<path fill="none" stroke="red" d="M1996.5,-109C1996.5,-109 1754.5,-109 1754.5,-109 1748.5,-109 1742.5,-103 1742.5,-97 1742.5,-97 1742.5,-85 1742.5,-85 1742.5,-79 1748.5,-73 1754.5,-73 1754.5,-73 1996.5,-73 1996.5,-73 2002.5,-73 2008.5,-79 2008.5,-85 2008.5,-85 2008.5,-97 2008.5,-97 2008.5,-103 2002.5,-109 1996.5,-109"/>
<text text-anchor="middle" x="1875.5" y="-87.3" font-family="Times,serif" font-size="14.00">返回 error.IllDefinedMemoryLayout</text>
</g>
<!-- union_case&#45;&gt;ill_defined -->
<g id="edge16" class="edge">
<title>union_case&#45;&gt;ill_defined</title>
<path fill="none" stroke="black" d="M1575.74,-205.39C1603.75,-199.06 1638.88,-190.27 1669.5,-180 1726.63,-160.84 1790.06,-132.64 1831.24,-113.36"/>
<polygon fill="black" stroke="black" points="1832.89,-116.45 1840.45,-109.03 1829.91,-110.12 1832.89,-116.45"/>
<text text-anchor="middle" x="1816" y="-149.8" font-family="Times,serif" font-size="14.00">.auto</text>
</g>
<!-- union_extern -->
<g id="node18" class="node">
<title>union_extern</title>
<path fill="none" stroke="black" d="M1712,-109C1712,-109 1591,-109 1591,-109 1585,-109 1579,-103 1579,-97 1579,-97 1579,-85 1579,-85 1579,-79 1585,-73 1591,-73 1591,-73 1712,-73 1712,-73 1718,-73 1724,-79 1724,-85 1724,-85 1724,-97 1724,-97 1724,-103 1718,-109 1712,-109"/>
<text text-anchor="middle" x="1651.5" y="-87.3" font-family="Times,serif" font-size="14.00">构造字节数组 Value</text>
</g>
<!-- union_case&#45;&gt;union_extern -->
<g id="edge17" class="edge">
<title>union_case&#45;&gt;union_extern</title>
<path fill="none" stroke="black" d="M1542.97,-197.97C1565.04,-176.42 1602.06,-140.27 1626.63,-116.28"/>
<polygon fill="black" stroke="black" points="1629.12,-118.74 1633.83,-109.25 1624.23,-113.73 1629.12,-118.74"/>
<text text-anchor="middle" x="1639.5" y="-149.8" font-family="Times,serif" font-size="14.00">.extern</text>
</g>
<!-- union_packed -->
<g id="node19" class="node">
<title>union_packed</title>
<path fill="none" stroke="black" d="M1549,-109C1549,-109 1344,-109 1344,-109 1338,-109 1332,-103 1332,-97 1332,-97 1332,-85 1332,-85 1332,-79 1338,-73 1344,-73 1344,-73 1549,-73 1549,-73 1555,-73 1561,-79 1561,-85 1561,-85 1561,-97 1561,-97 1561,-103 1555,-109 1549,-109"/>
<text text-anchor="middle" x="1446.5" y="-87.3" font-family="Times,serif" font-size="14.00">调用 readFromPackedMemory</text>
</g>
<!-- union_case&#45;&gt;union_packed -->
<g id="edge18" class="edge">
<title>union_case&#45;&gt;union_packed</title>
<path fill="none" stroke="black" d="M1513.16,-197.97C1499.9,-176.88 1477.84,-141.82 1462.76,-117.85"/>
<polygon fill="black" stroke="black" points="1465.64,-115.85 1457.35,-109.25 1459.71,-119.58 1465.64,-115.85"/>
<text text-anchor="middle" x="1528" y="-149.8" font-family="Times,serif" font-size="14.00">.packed</text>
</g>
<!-- pointer_case&#45;&gt;end -->
<g id="edge30" class="edge">
<title>pointer_case&#45;&gt;end</title>
<path fill="none" stroke="black" d="M831.73,-198.7C834.15,-168.78 840.56,-105.6 854.5,-54 855.25,-51.22 856.16,-48.35 857.15,-45.52"/>
<polygon fill="black" stroke="black" points="860.42,-46.76 860.7,-36.17 853.88,-44.28 860.42,-46.76"/>
</g>
<!-- optional_case&#45;&gt;end -->
<g id="edge31" class="edge">
<title>optional_case&#45;&gt;end</title>
<path fill="none" stroke="black" d="M986.16,-198.85C956.57,-180.49 912.59,-148.59 888.5,-109 876.9,-89.94 872,-64.94 869.95,-46.14"/>
<polygon fill="black" stroke="black" points="873.43,-45.78 869.06,-36.13 866.46,-46.4 873.43,-45.78"/>
</g>
<!-- error_path -->
<g id="node21" class="node">
<title>error_path</title>
<ellipse fill="none" stroke="red" cx="2008.5" cy="-18" rx="48.19" ry="18"/>
<text text-anchor="middle" x="2008.5" y="-14.3" font-family="Times,serif" font-size="14.00">错误路径</text>
</g>
<!-- unimplemented&#45;&gt;error_path -->
<g id="edge33" class="edge">
<title>unimplemented&#45;&gt;error_path</title>
<path fill="none" stroke="black" d="M2047.89,-198.92C2048.09,-171.74 2046.72,-117.21 2034.5,-73 2031.85,-63.43 2027.56,-53.48 2023.23,-44.78"/>
<polygon fill="black" stroke="black" points="2026.31,-43.13 2018.58,-35.89 2020.11,-46.37 2026.31,-43.13"/>
</g>
<!-- ill_defined&#45;&gt;error_path -->
<g id="edge32" class="edge">
<title>ill_defined&#45;&gt;error_path</title>
<path fill="none" stroke="black" d="M1907.36,-72.99C1927.08,-62.46 1952.45,-48.92 1972.85,-38.03"/>
<polygon fill="black" stroke="black" points="1974.66,-41.03 1981.83,-33.24 1971.36,-34.86 1974.66,-41.03"/>
</g>
<!-- struct_case_extern&#45;&gt;end -->
<g id="edge25" class="edge">
<title>struct_case_extern&#45;&gt;end</title>
<path fill="none" stroke="black" d="M939.75,-72.81C927.62,-63.66 912.53,-52.26 899.37,-42.32"/>
<polygon fill="black" stroke="black" points="901.13,-39.26 891.05,-36.03 896.92,-44.85 901.13,-39.26"/>
</g>
<!-- struct_case_packed&#45;&gt;end -->
<g id="edge26" class="edge">
<title>struct_case_packed&#45;&gt;end</title>
<path fill="none" stroke="black" d="M1090.56,-72.99C1046.39,-62.25 989.33,-48.38 944.12,-37.39"/>
<polygon fill="black" stroke="black" points="944.91,-33.98 934.36,-35.02 943.25,-40.78 944.91,-33.98"/>
</g>
<!-- union_extern&#45;&gt;end -->
<g id="edge28" class="edge">
<title>union_extern&#45;&gt;end</title>
<path fill="none" stroke="black" d="M1578.72,-74.27C1575.95,-73.82 1573.2,-73.39 1570.5,-73 1344.04,-40.33 1073.44,-26.57 944.32,-21.53"/>
<polygon fill="black" stroke="black" points="944.27,-18.02 934.15,-21.14 944.01,-25.02 944.27,-18.02"/>
</g>
<!-- union_packed&#45;&gt;end -->
<g id="edge29" class="edge">
<title>union_packed&#45;&gt;end</title>
<path fill="none" stroke="black" d="M1394.31,-72.95C1371.04,-65.99 1343.14,-58.53 1317.5,-54 1187.58,-31.03 1033.84,-23.14 944.14,-20.42"/>
<polygon fill="black" stroke="black" points="944.16,-16.92 934.06,-20.13 943.96,-23.92 944.16,-16.92"/>
</g>
</g>
</svg>
