<?xml version="1.0" encoding="UTF-8" standalone="no"?>
<!DOCTYPE svg PUBLIC "-//W3C//DTD SVG 1.1//EN"
 "http://www.w3.org/Graphics/SVG/1.1/DTD/svg11.dtd">
<!-- Generated by graphviz version 2.43.0 (0)
 -->
<!-- Title: writeToMemory Pages: 1 -->
<svg width="2873pt" height="692pt"
 viewBox="0.00 0.00 2873.24 692.00" xmlns="http://www.w3.org/2000/svg" xmlns:xlink="http://www.w3.org/1999/xlink">
<g id="graph0" class="graph" transform="scale(1 1) rotate(0) translate(4 688)">
<title>writeToMemory</title>
<polygon fill="white" stroke="transparent" points="-4,4 -4,-688 2869.24,-688 2869.24,4 -4,4"/>
<g id="clust1" class="cluster">
<title>cluster_main</title>
<polygon fill="none" stroke="black" points="25.24,-101 25.24,-589 1917.24,-589 1917.24,-101 25.24,-101"/>
<text text-anchor="middle" x="971.24" y="-573.8" font-family="Arial" font-size="14.00">Main Logic</text>
</g>
<g id="clust2" class="cluster">
<title>cluster_struct</title>
<polygon fill="none" stroke="black" points="2521.24,-101 2521.24,-155 2857.24,-155 2857.24,-101 2521.24,-101"/>
</g>
<!-- start -->
<g id="node1" class="node">
<title>start</title>
<ellipse fill="#c0ffc0" stroke="black" cx="638.24" cy="-666" rx="92.08" ry="18"/>
<text text-anchor="middle" x="638.24" y="-662.3" font-family="Arial" font-size="14.00">Start writeToMemory</text>
</g>
<!-- is_undef -->
<g id="node4" class="node">
<title>is_undef</title>
<polygon fill="#f0f0f0" stroke="black" points="638.24,-535 526.81,-517 638.24,-499 749.68,-517 638.24,-535"/>
<text text-anchor="middle" x="638.24" y="-513.3" font-family="Arial" font-size="14.00">val.isUndef(zcu)?</text>
</g>
<!-- start&#45;&gt;is_undef -->
<g id="edge1" class="edge">
<title>start&#45;&gt;is_undef</title>
<path fill="none" stroke="black" d="M638.24,-647.85C638.24,-622.62 638.24,-575.26 638.24,-545.24"/>
<polygon fill="black" stroke="black" points="641.74,-545.04 638.24,-535.04 634.74,-545.04 641.74,-545.04"/>
</g>
<!-- end -->
<g id="node2" class="node">
<title>end</title>
<ellipse fill="#ffc0c0" stroke="black" cx="1118.24" cy="-18" rx="37.09" ry="18"/>
<text text-anchor="middle" x="1118.24" y="-14.3" font-family="Arial" font-size="14.00">Return</text>
</g>
<!-- error -->
<g id="node3" class="node">
<title>error</title>
<ellipse fill="#ffc0c0" stroke="black" cx="2252.24" cy="-128" rx="59.29" ry="18"/>
<text text-anchor="middle" x="2252.24" y="-124.3" font-family="Arial" font-size="14.00">Error Return</text>
<text text-anchor="middle" x="2153.1" y="-164.8" font-family="Arial" font-size="14.00">Multiple error</text>
<text text-anchor="middle" x="2153.1" y="-149.8" font-family="Arial" font-size="14.00">return points</text>
</g>
<!-- handle_undef -->
<g id="node5" class="node">
<title>handle_undef</title>
<polygon fill="#f0f0f0" stroke="black" points="432.74,-412 277.74,-412 277.74,-374 432.74,-374 432.74,-412"/>
<text text-anchor="middle" x="355.24" y="-396.8" font-family="Arial" font-size="14.00">@memset(buffer, 0xaa</text>
<text text-anchor="middle" x="355.24" y="-381.8" font-family="Arial" font-size="14.00">Return</text>
</g>
<!-- is_undef&#45;&gt;handle_undef -->
<g id="edge2" class="edge">
<title>is_undef&#45;&gt;handle_undef</title>
<path fill="none" stroke="black" d="M609.55,-503.63C561.93,-483.1 465.95,-441.72 406.48,-416.09"/>
<polygon fill="black" stroke="black" points="407.83,-412.86 397.26,-412.11 405.06,-419.29 407.83,-412.86"/>
<text text-anchor="middle" x="524.74" y="-451.8" font-family="Arial" font-size="14.00">Yes</text>
</g>
<!-- type_switch -->
<g id="node6" class="node">
<title>type_switch</title>
<polygon fill="#f0f0f0" stroke="black" points="971.41,-393 906.83,-411 777.66,-411 713.08,-393 777.66,-375 906.83,-375 971.41,-393"/>
<text text-anchor="middle" x="842.24" y="-389.3" font-family="Arial" font-size="14.00">Switch ty.zigTypeTag(zcu)</text>
</g>
<!-- is_undef&#45;&gt;type_switch -->
<g id="edge3" class="edge">
<title>is_undef&#45;&gt;type_switch</title>
<path fill="none" stroke="black" d="M660.85,-502.48C695.65,-481.67 762.69,-441.57 804.81,-416.39"/>
<polygon fill="black" stroke="black" points="806.86,-419.24 813.65,-411.1 803.27,-413.23 806.86,-419.24"/>
<text text-anchor="middle" x="755.24" y="-451.8" font-family="Arial" font-size="14.00">No</text>
</g>
<!-- handle_undef&#45;&gt;end -->
<g id="edge4" class="edge">
<title>handle_undef&#45;&gt;end</title>
<path fill="none" stroke="black" d="M277.45,-386.94C155.87,-376.07 -58.1,-343.25 15.24,-249 148.39,-77.9 877.97,-30.66 1071.24,-21.07"/>
<polygon fill="black" stroke="black" points="1071.54,-24.56 1081.36,-20.58 1071.2,-17.57 1071.54,-24.56"/>
</g>
<!-- void -->
<g id="node7" class="node">
<title>void</title>
<polygon fill="#f0f0f0" stroke="black" points="716.74,-287 613.74,-287 613.74,-249 716.74,-249 716.74,-287"/>
<text text-anchor="middle" x="665.24" y="-271.8" font-family="Arial" font-size="14.00">Case: void</text>
<text text-anchor="middle" x="665.24" y="-256.8" font-family="Arial" font-size="14.00">(No operation)</text>
</g>
<!-- type_switch&#45;&gt;void -->
<g id="edge5" class="edge">
<title>type_switch&#45;&gt;void</title>
<path fill="none" stroke="black" d="M817.63,-374.9C786.98,-353.6 734.44,-317.09 699.78,-293"/>
<polygon fill="black" stroke="black" points="701.58,-289.99 691.37,-287.16 697.59,-295.74 701.58,-289.99"/>
</g>
<!-- bool -->
<g id="node8" class="node">
<title>bool</title>
<polygon fill="#f0f0f0" stroke="black" points="931.74,-287 752.74,-287 752.74,-249 931.74,-249 931.74,-287"/>
<text text-anchor="middle" x="842.24" y="-271.8" font-family="Arial" font-size="14.00">Case: bool</text>
<text text-anchor="middle" x="842.24" y="-256.8" font-family="Arial" font-size="14.00">buffer[0] = @intFromBool()</text>
</g>
<!-- type_switch&#45;&gt;bool -->
<g id="edge6" class="edge">
<title>type_switch&#45;&gt;bool</title>
<path fill="none" stroke="black" d="M842.24,-374.9C842.24,-354.86 842.24,-321.37 842.24,-297.41"/>
<polygon fill="black" stroke="black" points="845.74,-297.16 842.24,-287.16 838.74,-297.16 845.74,-297.16"/>
</g>
<!-- int_enum -->
<g id="node9" class="node">
<title>int_enum</title>
<polygon fill="#f0f0f0" stroke="black" points="1307.74,-287 1122.74,-287 1122.74,-249 1307.74,-249 1307.74,-287"/>
<text text-anchor="middle" x="1215.24" y="-271.8" font-family="Arial" font-size="14.00">Case: int/enum/error/pointer</text>
<text text-anchor="middle" x="1215.24" y="-256.8" font-family="Arial" font-size="14.00">Handle integer types</text>
</g>
<!-- type_switch&#45;&gt;int_enum -->
<g id="edge7" class="edge">
<title>type_switch&#45;&gt;int_enum</title>
<path fill="none" stroke="black" d="M894.11,-374.9C961.25,-352.76 1078.26,-314.17 1150.97,-290.19"/>
<polygon fill="black" stroke="black" points="1152.09,-293.51 1160.49,-287.06 1149.89,-286.86 1152.09,-293.51"/>
</g>
<!-- float -->
<g id="node10" class="node">
<title>float</title>
<polygon fill="#f0f0f0" stroke="black" points="1086.74,-287 967.74,-287 967.74,-249 1086.74,-249 1086.74,-287"/>
<text text-anchor="middle" x="1027.24" y="-271.8" font-family="Arial" font-size="14.00">Case: float</text>
<text text-anchor="middle" x="1027.24" y="-256.8" font-family="Arial" font-size="14.00">Write IEEE bytes</text>
</g>
<!-- type_switch&#45;&gt;float -->
<g id="edge8" class="edge">
<title>type_switch&#45;&gt;float</title>
<path fill="none" stroke="black" d="M867.97,-374.9C900,-353.6 954.92,-317.09 991.15,-293"/>
<polygon fill="black" stroke="black" points="993.54,-295.61 999.93,-287.16 989.67,-289.78 993.54,-295.61"/>
</g>
<!-- array -->
<g id="node11" class="node">
<title>array</title>
<polygon fill="#f0f0f0" stroke="black" points="1504.74,-287 1343.74,-287 1343.74,-249 1504.74,-249 1504.74,-287"/>
<text text-anchor="middle" x="1424.24" y="-271.8" font-family="Arial" font-size="14.00">Case: array</text>
<text text-anchor="middle" x="1424.24" y="-256.8" font-family="Arial" font-size="14.00">Recursive element write</text>
</g>
<!-- type_switch&#45;&gt;array -->
<g id="edge9" class="edge">
<title>type_switch&#45;&gt;array</title>
<path fill="none" stroke="black" d="M913.9,-376.86C1019.74,-354.49 1217.8,-312.63 1333.6,-288.16"/>
<polygon fill="black" stroke="black" points="1334.45,-291.56 1343.51,-286.06 1333,-284.71 1334.45,-291.56"/>
</g>
<!-- vector -->
<g id="node12" class="node">
<title>vector</title>
<polygon fill="#f0f0f0" stroke="black" points="577.24,-287 395.24,-287 395.24,-249 577.24,-249 577.24,-287"/>
<text text-anchor="middle" x="486.24" y="-271.8" font-family="Arial" font-size="14.00">Case: vector</text>
<text text-anchor="middle" x="486.24" y="-256.8" font-family="Arial" font-size="14.00">Call writeToPackedMemory</text>
</g>
<!-- type_switch&#45;&gt;vector -->
<g id="edge10" class="edge">
<title>type_switch&#45;&gt;vector</title>
<path fill="none" stroke="black" d="M792.74,-374.9C728.79,-352.8 617.44,-314.33 548.01,-290.34"/>
<polygon fill="black" stroke="black" points="549.1,-287.01 538.5,-287.06 546.81,-293.63 549.1,-287.01"/>
</g>
<!-- struct -->
<g id="node13" class="node">
<title>struct</title>
<polygon fill="#f0f0f0" stroke="black" points="176.74,-287 33.74,-287 33.74,-249 176.74,-249 176.74,-287"/>
<text text-anchor="middle" x="105.24" y="-271.8" font-family="Arial" font-size="14.00">Case: struct</text>
<text text-anchor="middle" x="105.24" y="-256.8" font-family="Arial" font-size="14.00">Handle struct layouts</text>
</g>
<!-- type_switch&#45;&gt;struct -->
<g id="edge11" class="edge">
<title>type_switch&#45;&gt;struct</title>
<path fill="none" stroke="black" d="M760.63,-379.73C637.76,-361.04 398.06,-323.73 195.24,-287 192.54,-286.51 189.8,-286.01 187.03,-285.49"/>
<polygon fill="black" stroke="black" points="187.4,-282 176.92,-283.58 186.1,-288.88 187.4,-282"/>
</g>
<!-- union -->
<g id="node14" class="node">
<title>union</title>
<polygon fill="#f0f0f0" stroke="black" points="1908.74,-287 1765.74,-287 1765.74,-249 1908.74,-249 1908.74,-287"/>
<text text-anchor="middle" x="1837.24" y="-271.8" font-family="Arial" font-size="14.00">Case: union</text>
<text text-anchor="middle" x="1837.24" y="-256.8" font-family="Arial" font-size="14.00">Handle union layouts</text>
</g>
<!-- type_switch&#45;&gt;union -->
<g id="edge12" class="edge">
<title>type_switch&#45;&gt;union</title>
<path fill="none" stroke="black" d="M967.49,-391.88C1176.89,-390.43 1588.63,-381.87 1726.24,-338 1756.21,-328.45 1786.26,-309.01 1807.53,-293.2"/>
<polygon fill="black" stroke="black" points="1809.67,-295.96 1815.51,-287.12 1805.43,-290.39 1809.67,-295.96"/>
</g>
<!-- optional -->
<g id="node15" class="node">
<title>optional</title>
<polygon fill="#f0f0f0" stroke="black" points="359.24,-287 213.24,-287 213.24,-249 359.24,-249 359.24,-287"/>
<text text-anchor="middle" x="286.24" y="-271.8" font-family="Arial" font-size="14.00">Case: optional</text>
<text text-anchor="middle" x="286.24" y="-256.8" font-family="Arial" font-size="14.00">Handle optional value</text>
</g>
<!-- type_switch&#45;&gt;optional -->
<g id="edge13" class="edge">
<title>type_switch&#45;&gt;optional</title>
<path fill="none" stroke="black" d="M772.11,-376.48C669.48,-353.78 478.75,-311.59 369.27,-287.37"/>
<polygon fill="black" stroke="black" points="369.78,-283.9 359.26,-285.15 368.27,-290.73 369.78,-283.9"/>
</g>
<!-- default -->
<g id="node16" class="node">
<title>default</title>
<polygon fill="#f0f0f0" stroke="black" points="1729.74,-287 1540.74,-287 1540.74,-249 1729.74,-249 1729.74,-287"/>
<text text-anchor="middle" x="1635.24" y="-271.8" font-family="Arial" font-size="14.00">Default case</text>
<text text-anchor="middle" x="1635.24" y="-256.8" font-family="Arial" font-size="14.00">Return Unimplemented error</text>
</g>
<!-- type_switch&#45;&gt;default -->
<g id="edge14" class="edge">
<title>type_switch&#45;&gt;default</title>
<path fill="none" stroke="black" d="M923.51,-379.64C1051.22,-360.18 1306.7,-321.09 1523.24,-287 1525.62,-286.63 1528.03,-286.25 1530.46,-285.86"/>
<polygon fill="black" stroke="black" points="1531.21,-289.29 1540.54,-284.26 1530.11,-282.37 1531.21,-289.29"/>
<text text-anchor="middle" x="1291.74" y="-326.8" font-family="Arial" font-size="14.00">else</text>
</g>
<!-- void&#45;&gt;end -->
<g id="edge15" class="edge">
<title>void&#45;&gt;end</title>
<path fill="none" stroke="black" d="M697.05,-248.75C751.07,-217.85 864.35,-153.46 961.24,-101 1003.58,-78.08 1052.85,-52.53 1084.74,-36.13"/>
<polygon fill="black" stroke="black" points="1086.35,-39.24 1093.65,-31.56 1083.15,-33.01 1086.35,-39.24"/>
</g>
<!-- bool&#45;&gt;end -->
<g id="edge16" class="edge">
<title>bool&#45;&gt;end</title>
<path fill="none" stroke="black" d="M862.54,-248.76C912.15,-204.18 1039.46,-89.79 1093.45,-41.28"/>
<polygon fill="black" stroke="black" points="1096.06,-43.64 1101.16,-34.35 1091.38,-38.43 1096.06,-43.64"/>
</g>
<!-- handle_bigint -->
<g id="node17" class="node">
<title>handle_bigint</title>
<polygon fill="#f0f0f0" stroke="black" points="1405.74,-147 1244.74,-147 1244.74,-109 1405.74,-109 1405.74,-147"/>
<text text-anchor="middle" x="1325.24" y="-131.8" font-family="Arial" font-size="14.00">Convert to BigInt</text>
<text text-anchor="middle" x="1325.24" y="-116.8" font-family="Arial" font-size="14.00">Write two&#39;s complement</text>
</g>
<!-- int_enum&#45;&gt;handle_bigint -->
<g id="edge17" class="edge">
<title>int_enum&#45;&gt;handle_bigint</title>
<path fill="none" stroke="black" d="M1229.62,-248.96C1248.73,-224.99 1282.61,-182.49 1304.49,-155.04"/>
<polygon fill="black" stroke="black" points="1307.36,-157.05 1310.86,-147.05 1301.89,-152.68 1307.36,-157.05"/>
<text text-anchor="middle" x="1323.24" y="-201.8" font-family="Arial" font-size="14.00">Handle integer</text>
<text text-anchor="middle" x="1323.24" y="-186.8" font-family="Arial" font-size="14.00">convert/write</text>
</g>
<!-- float&#45;&gt;end -->
<g id="edge19" class="edge">
<title>float&#45;&gt;end</title>
<path fill="none" stroke="black" d="M1030.83,-248.86C1037.27,-217.85 1052.13,-152.94 1073.24,-101 1081.32,-81.13 1093.04,-59.94 1102.5,-44.07"/>
<polygon fill="black" stroke="black" points="1105.56,-45.77 1107.76,-35.4 1099.58,-42.14 1105.56,-45.77"/>
</g>
<!-- array&#45;&gt;end -->
<g id="edge22" class="edge">
<title>array&#45;&gt;end</title>
<path fill="none" stroke="black" d="M1353.7,-248.99C1277.41,-227.94 1163.17,-191.36 1137.24,-155 1114.44,-123.02 1113.12,-75.87 1115.07,-46.32"/>
<polygon fill="black" stroke="black" points="1118.57,-46.55 1115.91,-36.29 1111.59,-45.97 1118.57,-46.55"/>
<text text-anchor="middle" x="1182.24" y="-124.3" font-family="Arial" font-size="14.00">Loop complete</text>
</g>
<!-- recursive_call -->
<g id="node18" class="node">
<title>recursive_call</title>
<polygon fill="#f0f0f0" stroke="black" points="1908.74,-146 1715.74,-146 1711.74,-142 1711.74,-110 1904.74,-110 1908.74,-114 1908.74,-146"/>
<polyline fill="none" stroke="black" points="1904.74,-142 1711.74,-142 "/>
<polyline fill="none" stroke="black" points="1904.74,-142 1904.74,-110 "/>
<polyline fill="none" stroke="black" points="1904.74,-142 1908.74,-146 "/>
<text text-anchor="middle" x="1810.24" y="-124.3" font-family="Arial" font-size="14.00">Recursive writeToMemory call</text>
</g>
<!-- array&#45;&gt;recursive_call -->
<g id="edge20" class="edge">
<title>array&#45;&gt;recursive_call</title>
<path fill="none" stroke="black" d="M1438.53,-248.71C1454.88,-229.17 1483.51,-198.85 1515.24,-183 1572.81,-154.25 1643.54,-140.67 1701.31,-134.32"/>
<polygon fill="black" stroke="black" points="1701.99,-137.77 1711.57,-133.25 1701.26,-130.81 1701.99,-137.77"/>
<text text-anchor="middle" x="1568.24" y="-194.3" font-family="Arial" font-size="14.00">For each element</text>
</g>
<!-- vector&#45;&gt;end -->
<g id="edge23" class="edge">
<title>vector&#45;&gt;end</title>
<path fill="none" stroke="black" d="M502.87,-248.85C535.77,-214.13 613.07,-138.46 694.24,-101 821.94,-42.08 990.15,-25.48 1070.94,-20.81"/>
<polygon fill="black" stroke="black" points="1071.48,-24.29 1081.28,-20.26 1071.1,-17.3 1071.48,-24.29"/>
<text text-anchor="middle" x="774.24" y="-124.3" font-family="Arial" font-size="14.00">via writeToPackedMemory</text>
</g>
<!-- struct_layout -->
<g id="node19" class="node">
<title>struct_layout</title>
<polygon fill="#f0f0f0" stroke="black" points="2728.24,-286 2615.97,-268 2728.24,-250 2840.52,-268 2728.24,-286"/>
<text text-anchor="middle" x="2728.24" y="-264.3" font-family="Arial" font-size="14.00">struct_type.layout</text>
</g>
<!-- struct&#45;&gt;struct_layout -->
<g id="edge24" class="edge">
<title>struct&#45;&gt;struct_layout</title>
<path fill="none" stroke="black" d="M176.78,-284.29C183,-285.35 189.22,-286.27 195.24,-287 725.41,-350.84 2066.53,-336.37 2598.24,-287 2619.62,-285.02 2642.84,-281.92 2663.67,-278.8"/>
<polygon fill="black" stroke="black" points="2664.33,-282.25 2673.68,-277.28 2663.27,-275.33 2664.33,-282.25"/>
<text text-anchor="middle" x="1533.24" y="-326.8" font-family="Arial" font-size="14.00">Handle layout</text>
</g>
<!-- union_layout -->
<g id="node22" class="node">
<title>union_layout</title>
<polygon fill="#f0f0f0" stroke="black" points="2157.24,-684 2053.51,-666 2157.24,-648 2260.97,-666 2157.24,-684"/>
<text text-anchor="middle" x="2157.24" y="-662.3" font-family="Arial" font-size="14.00">containerLayout</text>
</g>
<!-- union&#45;&gt;union_layout -->
<g id="edge32" class="edge">
<title>union&#45;&gt;union_layout</title>
<path fill="none" stroke="black" d="M1840.61,-287.2C1851.4,-340.65 1889.88,-499.01 1981.24,-589 2014.77,-622.02 2064.93,-641.74 2103.14,-652.79"/>
<polygon fill="black" stroke="black" points="2102.51,-656.25 2113.08,-655.55 2104.38,-649.5 2102.51,-656.25"/>
<text text-anchor="middle" x="1944.74" y="-451.8" font-family="Arial" font-size="14.00">containerLayout</text>
</g>
<!-- check_optional -->
<g id="node29" class="node">
<title>check_optional</title>
<polygon fill="#f0f0f0" stroke="black" points="2482.24,-286 2384.04,-268 2482.24,-250 2580.44,-268 2482.24,-286"/>
<text text-anchor="middle" x="2482.24" y="-264.3" font-family="Arial" font-size="14.00">check_optional</text>
</g>
<!-- optional&#45;&gt;check_optional -->
<g id="edge43" class="edge">
<title>optional&#45;&gt;check_optional</title>
<path fill="none" stroke="black" d="M359.57,-284.44C365.53,-285.43 371.48,-286.31 377.24,-287 672.92,-322.53 1419.09,-337.52 1716.74,-328 2001.85,-318.88 2073.64,-317.57 2357.24,-287 2378.25,-284.74 2401.13,-281.49 2421.5,-278.32"/>
<polygon fill="black" stroke="black" points="2422.26,-281.74 2431.59,-276.72 2421.17,-274.83 2422.26,-281.74"/>
<text text-anchor="middle" x="1661.24" y="-326.8" font-family="Arial" font-size="14.00">isPtrLikeOptional?</text>
</g>
<!-- default&#45;&gt;error -->
<g id="edge48" class="edge">
<title>default&#45;&gt;error</title>
<path fill="none" stroke="black" d="M1715.91,-248.96C1842.93,-220.55 2086.38,-166.1 2196.14,-141.55"/>
<polygon fill="black" stroke="black" points="2197.02,-144.94 2206.02,-139.34 2195.5,-138.11 2197.02,-144.94"/>
</g>
<!-- handle_bigint&#45;&gt;end -->
<g id="edge18" class="edge">
<title>handle_bigint&#45;&gt;end</title>
<path fill="none" stroke="black" d="M1290.6,-108.92C1251.98,-88.77 1189.95,-56.41 1151.78,-36.5"/>
<polygon fill="black" stroke="black" points="1153.11,-33.24 1142.62,-31.72 1149.87,-39.45 1153.11,-33.24"/>
</g>
<!-- recursive_call&#45;&gt;end -->
<g id="edge47" class="edge">
<title>recursive_call&#45;&gt;end</title>
<path fill="none" stroke="black" d="M1711.46,-111.58C1559.16,-87.81 1273.09,-43.17 1163,-25.98"/>
<polygon fill="black" stroke="black" points="1163.32,-22.49 1152.9,-24.41 1162.24,-29.41 1163.32,-22.49"/>
</g>
<!-- recursive_call&#45;&gt;array -->
<g id="edge21" class="edge">
<title>recursive_call&#45;&gt;array</title>
<path fill="none" stroke="black" d="M1777.36,-146.04C1741.08,-164.36 1680.61,-193.48 1626.24,-213 1590.02,-226.01 1549.15,-237.5 1513.69,-246.51"/>
<polygon fill="black" stroke="black" points="1512.69,-243.15 1503.85,-248.98 1514.4,-249.94 1512.69,-243.15"/>
<text text-anchor="middle" x="1738.74" y="-194.3" font-family="Arial" font-size="14.00">Next element</text>
</g>
<!-- struct_extern -->
<g id="node20" class="node">
<title>struct_extern</title>
<polygon fill="#f0f0f0" stroke="black" points="2849.24,-147 2747.24,-147 2747.24,-109 2849.24,-109 2849.24,-147"/>
<text text-anchor="middle" x="2798.24" y="-131.8" font-family="Arial" font-size="14.00">For each field:</text>
<text text-anchor="middle" x="2798.24" y="-116.8" font-family="Arial" font-size="14.00">Write at offset</text>
</g>
<!-- recursive_call&#45;&gt;struct_extern -->
<g id="edge29" class="edge">
<title>recursive_call&#45;&gt;struct_extern</title>
<path fill="none" stroke="black" d="M1892.1,-146.06C2007.48,-169.47 2224.66,-206 2410.74,-194.5 2553.11,-185.71 2590.97,-190.04 2729.24,-155 2734.26,-153.73 2739.4,-152.19 2744.51,-150.5"/>
<polygon fill="black" stroke="black" points="2745.96,-153.7 2754.24,-147.1 2743.64,-147.1 2745.96,-153.7"/>
<text text-anchor="middle" x="2382.24" y="-194.3" font-family="Arial" font-size="14.00">Next field</text>
</g>
<!-- struct_layout&#45;&gt;error -->
<g id="edge27" class="edge">
<title>struct_layout&#45;&gt;error</title>
<path fill="none" stroke="black" d="M2701.14,-254.3C2660.68,-235.86 2581.69,-201.82 2511.24,-183 2432.17,-161.88 2408.76,-174.39 2329.24,-155 2318.86,-152.47 2307.87,-149.16 2297.55,-145.75"/>
<polygon fill="black" stroke="black" points="2298.5,-142.37 2287.9,-142.47 2296.25,-149 2298.5,-142.37"/>
<text text-anchor="middle" x="2614.74" y="-194.3" font-family="Arial" font-size="14.00">auto</text>
</g>
<!-- struct_layout&#45;&gt;struct_extern -->
<g id="edge25" class="edge">
<title>struct_layout&#45;&gt;struct_extern</title>
<path fill="none" stroke="black" d="M2736.27,-251.17C2748.02,-228.02 2770.04,-184.6 2784.42,-156.25"/>
<polygon fill="black" stroke="black" points="2787.58,-157.76 2788.98,-147.26 2781.33,-154.6 2787.58,-157.76"/>
<text text-anchor="middle" x="2788.24" y="-194.3" font-family="Arial" font-size="14.00">extern</text>
</g>
<!-- struct_packed -->
<g id="node21" class="node">
<title>struct_packed</title>
<polygon fill="#f0f0f0" stroke="black" points="2711.24,-146 2529.24,-146 2529.24,-110 2711.24,-110 2711.24,-146"/>
<text text-anchor="middle" x="2620.24" y="-124.3" font-family="Arial" font-size="14.00">Call writeToPackedMemory</text>
</g>
<!-- struct_layout&#45;&gt;struct_packed -->
<g id="edge26" class="edge">
<title>struct_layout&#45;&gt;struct_packed</title>
<path fill="none" stroke="black" d="M2716.27,-251.7C2697.78,-228.07 2662.07,-182.44 2639.79,-153.98"/>
<polygon fill="black" stroke="black" points="2642.54,-151.81 2633.62,-146.09 2637.02,-156.12 2642.54,-151.81"/>
<text text-anchor="middle" x="2705.24" y="-194.3" font-family="Arial" font-size="14.00">packed</text>
</g>
<!-- struct_extern&#45;&gt;end -->
<g id="edge30" class="edge">
<title>struct_extern&#45;&gt;end</title>
<path fill="none" stroke="black" d="M2756.53,-108.96C2747.67,-105.79 2738.26,-102.9 2729.24,-101 2497.96,-52.32 2434.28,-84.24 2198.24,-72 1798.67,-51.28 1315.83,-28.33 1165.33,-21.22"/>
<polygon fill="black" stroke="black" points="1165.23,-17.71 1155.08,-20.73 1164.9,-24.7 1165.23,-17.71"/>
</g>
<!-- struct_extern&#45;&gt;recursive_call -->
<g id="edge28" class="edge">
<title>struct_extern&#45;&gt;recursive_call</title>
<path fill="none" stroke="black" d="M2782.98,-147.13C2767.23,-165.21 2740.83,-191.12 2711.24,-202 2495.17,-281.46 2422.42,-223.94 2193.24,-202 2088.08,-191.93 1968.87,-166.66 1891.77,-148.45"/>
<polygon fill="black" stroke="black" points="1892.19,-144.95 1881.65,-146.04 1890.57,-151.76 1892.19,-144.95"/>
</g>
<!-- struct_packed&#45;&gt;end -->
<g id="edge31" class="edge">
<title>struct_packed&#45;&gt;end</title>
<path fill="none" stroke="black" d="M2556.01,-109.99C2541.38,-106.58 2525.84,-103.34 2511.24,-101 2359.31,-76.64 2319.77,-82.33 2166.24,-72 1780.17,-46.02 1313.3,-26.67 1165.48,-20.83"/>
<polygon fill="black" stroke="black" points="1165.53,-17.33 1155.4,-20.43 1165.25,-24.32 1165.53,-17.33"/>
</g>
<!-- union_layout&#45;&gt;error -->
<g id="edge35" class="edge">
<title>union_layout&#45;&gt;error</title>
<path fill="none" stroke="black" d="M2191.53,-653.89C2222.23,-642.29 2266.43,-621.23 2293.24,-589 2346.37,-525.15 2339.73,-493.96 2353.24,-412 2369.62,-312.66 2303.91,-202.27 2270.57,-153.94"/>
<polygon fill="black" stroke="black" points="2273.36,-151.83 2264.74,-145.66 2267.63,-155.85 2273.36,-151.83"/>
<text text-anchor="middle" x="2368.74" y="-389.3" font-family="Arial" font-size="14.00">auto</text>
</g>
<!-- union_extern -->
<g id="node23" class="node">
<title>union_extern</title>
<polygon fill="#f0f0f0" stroke="black" points="2093.74,-535 1998.74,-535 1998.74,-499 2093.74,-499 2093.74,-535"/>
<text text-anchor="middle" x="2046.24" y="-513.3" font-family="Arial" font-size="14.00">union_extern</text>
</g>
<!-- union_layout&#45;&gt;union_extern -->
<g id="edge33" class="edge">
<title>union_layout&#45;&gt;union_extern</title>
<path fill="none" stroke="black" d="M2145.78,-649.82C2126.75,-624.61 2088.41,-573.85 2065.27,-543.2"/>
<polygon fill="black" stroke="black" points="2067.99,-540.99 2059.17,-535.12 2062.41,-545.21 2067.99,-540.99"/>
<text text-anchor="middle" x="2133.24" y="-600.8" font-family="Arial" font-size="14.00">extern</text>
</g>
<!-- union_packed -->
<g id="node24" class="node">
<title>union_packed</title>
<polygon fill="#f0f0f0" stroke="black" points="2274.74,-535 2173.74,-535 2173.74,-499 2274.74,-499 2274.74,-535"/>
<text text-anchor="middle" x="2224.24" y="-513.3" font-family="Arial" font-size="14.00">union_packed</text>
</g>
<!-- union_layout&#45;&gt;union_packed -->
<g id="edge34" class="edge">
<title>union_layout&#45;&gt;union_packed</title>
<path fill="none" stroke="black" d="M2164.54,-648.99C2175.99,-623.88 2198.28,-574.96 2212.15,-544.53"/>
<polygon fill="black" stroke="black" points="2215.37,-545.9 2216.33,-535.35 2209,-543 2215.37,-545.9"/>
<text text-anchor="middle" x="2208.24" y="-600.8" font-family="Arial" font-size="14.00">packed</text>
</g>
<!-- union_tag_check -->
<g id="node25" class="node">
<title>union_tag_check</title>
<polygon fill="#f0f0f0" stroke="black" points="2034.24,-411 1924.98,-393 2034.24,-375 2143.5,-393 2034.24,-411"/>
<text text-anchor="middle" x="2034.24" y="-389.3" font-family="Arial" font-size="14.00">union_tag_check</text>
</g>
<!-- union_extern&#45;&gt;union_tag_check -->
<g id="edge36" class="edge">
<title>union_extern&#45;&gt;union_tag_check</title>
<path fill="none" stroke="black" d="M2044.55,-498.78C2042.56,-478.5 2039.22,-444.58 2036.88,-420.85"/>
<polygon fill="black" stroke="black" points="2040.35,-420.35 2035.89,-410.74 2033.39,-421.04 2040.35,-420.35"/>
<text text-anchor="middle" x="2067.74" y="-451.8" font-family="Arial" font-size="14.00">Has tag?</text>
</g>
<!-- writeToPackedMemory -->
<g id="node28" class="node">
<title>writeToPackedMemory</title>
<polygon fill="#f0f0f0" stroke="black" points="2334.74,-411 2183.74,-411 2179.74,-407 2179.74,-375 2330.74,-375 2334.74,-379 2334.74,-411"/>
<polyline fill="none" stroke="black" points="2330.74,-407 2179.74,-407 "/>
<polyline fill="none" stroke="black" points="2330.74,-407 2330.74,-375 "/>
<polyline fill="none" stroke="black" points="2330.74,-407 2334.74,-411 "/>
<text text-anchor="middle" x="2257.24" y="-389.3" font-family="Arial" font-size="14.00">writeToPackedMemory</text>
</g>
<!-- union_packed&#45;&gt;writeToPackedMemory -->
<g id="edge41" class="edge">
<title>union_packed&#45;&gt;writeToPackedMemory</title>
<path fill="none" stroke="black" d="M2228.9,-498.78C2234.38,-478.52 2243.54,-444.66 2249.96,-420.93"/>
<polygon fill="black" stroke="black" points="2253.38,-421.7 2252.61,-411.13 2246.62,-419.87 2253.38,-421.7"/>
<text text-anchor="middle" x="2253.24" y="-451.8" font-family="Arial" font-size="14.00">Call</text>
</g>
<!-- write_active_field -->
<g id="node26" class="node">
<title>write_active_field</title>
<polygon fill="#f0f0f0" stroke="black" points="2200.24,-286 2080.24,-286 2080.24,-250 2200.24,-250 2200.24,-286"/>
<text text-anchor="middle" x="2140.24" y="-264.3" font-family="Arial" font-size="14.00">write_active_field</text>
</g>
<!-- union_tag_check&#45;&gt;write_active_field -->
<g id="edge37" class="edge">
<title>union_tag_check&#45;&gt;write_active_field</title>
<path fill="none" stroke="black" d="M2047.24,-376.92C2065.1,-356.19 2097.45,-318.66 2118.89,-293.78"/>
<polygon fill="black" stroke="black" points="2121.56,-296.04 2125.44,-286.18 2116.26,-291.47 2121.56,-296.04"/>
<text text-anchor="middle" x="2104.74" y="-326.8" font-family="Arial" font-size="14.00">Yes</text>
</g>
<!-- write_backing -->
<g id="node27" class="node">
<title>write_backing</title>
<polygon fill="#f0f0f0" stroke="black" points="2043.74,-286 1944.74,-286 1944.74,-250 2043.74,-250 2043.74,-286"/>
<text text-anchor="middle" x="1994.24" y="-264.3" font-family="Arial" font-size="14.00">write_backing</text>
</g>
<!-- union_tag_check&#45;&gt;write_backing -->
<g id="edge38" class="edge">
<title>union_tag_check&#45;&gt;write_backing</title>
<path fill="none" stroke="black" d="M2028.93,-375.67C2022.31,-355.31 2010.91,-320.24 2002.99,-295.9"/>
<polygon fill="black" stroke="black" points="2006.26,-294.62 1999.84,-286.19 1999.6,-296.79 2006.26,-294.62"/>
<text text-anchor="middle" x="2025.24" y="-326.8" font-family="Arial" font-size="14.00">No</text>
</g>
<!-- write_active_field&#45;&gt;recursive_call -->
<g id="edge39" class="edge">
<title>write_active_field&#45;&gt;recursive_call</title>
<path fill="none" stroke="black" d="M2099.45,-249.94C2038.96,-224.65 1925.62,-177.25 1860.23,-149.9"/>
<polygon fill="black" stroke="black" points="1861.52,-146.65 1850.95,-146.02 1858.82,-153.11 1861.52,-146.65"/>
</g>
<!-- write_backing&#45;&gt;recursive_call -->
<g id="edge40" class="edge">
<title>write_backing&#45;&gt;recursive_call</title>
<path fill="none" stroke="black" d="M1971.31,-249.8C1938.58,-225.25 1878.36,-180.09 1841.55,-152.48"/>
<polygon fill="black" stroke="black" points="1843.27,-149.4 1833.17,-146.2 1839.07,-155 1843.27,-149.4"/>
</g>
<!-- writeToPackedMemory&#45;&gt;end -->
<g id="edge42" class="edge">
<title>writeToPackedMemory&#45;&gt;end</title>
<path fill="none" stroke="black" d="M2256.9,-374.56C2255.44,-345.41 2248.65,-286.3 2218.24,-249 2126.31,-136.23 2065.87,-141.92 1926.24,-101 1781.72,-58.64 1315.76,-29.88 1165.46,-21.51"/>
<polygon fill="black" stroke="black" points="1165.37,-18 1155.19,-20.95 1164.98,-24.99 1165.37,-18"/>
</g>
<!-- check_optional&#45;&gt;error -->
<g id="edge44" class="edge">
<title>check_optional&#45;&gt;error</title>
<path fill="none" stroke="black" d="M2471.13,-251.74C2455.22,-230.26 2426.34,-192.66 2412.24,-183 2380.13,-160.99 2366.13,-167.45 2329.24,-155 2319.72,-151.79 2309.53,-148.35 2299.79,-145.06"/>
<polygon fill="black" stroke="black" points="2300.83,-141.71 2290.23,-141.83 2298.59,-148.35 2300.83,-141.71"/>
<text text-anchor="middle" x="2448.24" y="-194.3" font-family="Arial" font-size="14.00">No</text>
</g>
<!-- write_optional -->
<g id="node30" class="node">
<title>write_optional</title>
<polygon fill="#f0f0f0" stroke="black" points="2493.24,-146 2347.24,-146 2347.24,-110 2493.24,-110 2493.24,-146"/>
<text text-anchor="middle" x="2420.24" y="-124.3" font-family="Arial" font-size="14.00">Write some/null value</text>
</g>
<!-- check_optional&#45;&gt;write_optional -->
<g id="edge45" class="edge">
<title>check_optional&#45;&gt;write_optional</title>
<path fill="none" stroke="black" d="M2483.02,-250.05C2483.16,-232.44 2481.47,-204.52 2471.24,-183 2466.02,-172.01 2457.72,-161.78 2449.32,-153.25"/>
<polygon fill="black" stroke="black" points="2451.63,-150.62 2441.99,-146.22 2446.78,-155.67 2451.63,-150.62"/>
<text text-anchor="middle" x="2490.74" y="-194.3" font-family="Arial" font-size="14.00">Yes</text>
</g>
<!-- write_optional&#45;&gt;recursive_call -->
<g id="edge46" class="edge">
<title>write_optional&#45;&gt;recursive_call</title>
<path fill="none" stroke="black" d="M2401.27,-146.2C2380.9,-164.37 2346.66,-191.11 2311.24,-202 2151.34,-251.15 1952.38,-186.36 1860.75,-149.85"/>
<polygon fill="black" stroke="black" points="1862.01,-146.59 1851.43,-146.09 1859.39,-153.08 1862.01,-146.59"/>
</g>
</g>
</svg>
