<?xml version="1.0" encoding="UTF-8" standalone="no"?>
<!DOCTYPE svg PUBLIC "-//W3C//DTD SVG 1.1//EN"
 "http://www.w3.org/Graphics/SVG/1.1/DTD/svg11.dtd">
<!-- Generated by graphviz version 2.43.0 (0)
 -->
<!-- Title: writeToPackedMemory Pages: 1 -->
<svg width="1989pt" height="627pt"
 viewBox="0.00 0.00 1989.00 627.00" xmlns="http://www.w3.org/2000/svg" xmlns:xlink="http://www.w3.org/1999/xlink">
<g id="graph0" class="graph" transform="scale(1 1) rotate(0) translate(4 623)">
<title>writeToPackedMemory</title>
<polygon fill="white" stroke="transparent" points="-4,4 -4,-623 1985,-623 1985,4 -4,4"/>
<g id="clust1" class="cluster">
<title>cluster_int</title>
<polygon fill="none" stroke="black" points="177,-65 177,-291 709,-291 709,-65 177,-65"/>
</g>
<g id="clust2" class="cluster">
<title>cluster_vector</title>
<polygon fill="none" stroke="black" points="1821,-65 1821,-378 1973,-378 1973,-65 1821,-65"/>
</g>
<!-- start -->
<g id="node1" class="node">
<title>start</title>
<ellipse fill="none" stroke="black" cx="503" cy="-601" rx="120.78" ry="18"/>
<text text-anchor="middle" x="503" y="-597.3" font-family="Arial" font-size="14.00">开始 writeToPackedMemory</text>
</g>
<!-- check_undef -->
<g id="node3" class="node">
<title>check_undef</title>
<polygon fill="none" stroke="black" points="563.5,-546 442.5,-546 442.5,-510 563.5,-510 563.5,-546"/>
<text text-anchor="middle" x="503" y="-524.3" font-family="Arial" font-size="14.00">val.isUndef(zcu)?</text>
</g>
<!-- start&#45;&gt;check_undef -->
<g id="edge1" class="edge">
<title>start&#45;&gt;check_undef</title>
<path fill="none" stroke="black" d="M503,-582.81C503,-574.79 503,-565.05 503,-556.07"/>
<polygon fill="black" stroke="black" points="506.5,-556.03 503,-546.03 499.5,-556.03 506.5,-556.03"/>
</g>
<!-- end -->
<g id="node2" class="node">
<title>end</title>
<ellipse fill="none" stroke="black" cx="851" cy="-18" rx="29.5" ry="18"/>
<text text-anchor="middle" x="851" y="-14.3" font-family="Arial" font-size="14.00">返回</text>
</g>
<!-- handle_undef -->
<g id="node4" class="node">
<title>handle_undef</title>
<polygon fill="none" stroke="black" points="439,-459 329,-459 329,-421 439,-421 439,-459"/>
<text text-anchor="middle" x="384" y="-443.8" font-family="Arial" font-size="14.00">写入0到缓冲区</text>
<text text-anchor="middle" x="384" y="-428.8" font-family="Arial" font-size="14.00">根据bit_size</text>
</g>
<!-- check_undef&#45;&gt;handle_undef -->
<g id="edge2" class="edge">
<title>check_undef&#45;&gt;handle_undef</title>
<path fill="none" stroke="black" d="M479.2,-509.8C461.4,-496.94 436.83,-479.18 417.11,-464.93"/>
<polygon fill="black" stroke="black" points="419.14,-462.08 408.98,-459.06 415.04,-467.75 419.14,-462.08"/>
<text text-anchor="middle" x="461.5" y="-480.8" font-family="Arial" font-size="14.00">是</text>
</g>
<!-- type_switch -->
<g id="node5" class="node">
<title>type_switch</title>
<polygon fill="none" stroke="black" points="1005,-458 857.87,-440 1005,-422 1152.13,-440 1005,-458"/>
<text text-anchor="middle" x="1005" y="-436.3" font-family="Arial" font-size="14.00">切换 ty.zigTypeTag(zcu)</text>
</g>
<!-- check_undef&#45;&gt;type_switch -->
<g id="edge4" class="edge">
<title>check_undef&#45;&gt;type_switch</title>
<path fill="none" stroke="black" d="M563.55,-516.63C657.62,-500.51 838.27,-469.56 936.8,-452.68"/>
<polygon fill="black" stroke="black" points="937.68,-456.08 946.95,-450.94 936.5,-449.18 937.68,-456.08"/>
<text text-anchor="middle" x="791.5" y="-480.8" font-family="Arial" font-size="14.00">否</text>
</g>
<!-- handle_undef&#45;&gt;end -->
<g id="edge3" class="edge">
<title>handle_undef&#45;&gt;end</title>
<path fill="none" stroke="black" d="M328.98,-438.02C222.8,-434.64 0,-419.61 0,-353 0,-353 0,-353 0,-90 0,-48.72 644.14,-25.53 811.6,-20.19"/>
<polygon fill="black" stroke="black" points="811.82,-23.69 821.71,-19.88 811.6,-16.69 811.82,-23.69"/>
</g>
<!-- bool -->
<g id="node6" class="node">
<title>bool</title>
<polygon fill="none" stroke="black" points="480,-370 426,-370 426,-334 480,-334 480,-370"/>
<text text-anchor="middle" x="453" y="-348.3" font-family="Arial" font-size="14.00">bool</text>
</g>
<!-- type_switch&#45;&gt;bool -->
<g id="edge5" class="edge">
<title>type_switch&#45;&gt;bool</title>
<path fill="none" stroke="black" d="M867.84,-438.71C781.53,-435.82 668.45,-427.03 571,-403 542.52,-395.98 512.08,-382.93 489.25,-371.92"/>
<polygon fill="black" stroke="black" points="490.79,-368.78 480.27,-367.51 487.7,-375.06 490.79,-368.78"/>
<text text-anchor="middle" x="586" y="-391.8" font-family="Arial" font-size="14.00">.bool</text>
</g>
<!-- int_enum -->
<g id="node7" class="node">
<title>int_enum</title>
<polygon fill="none" stroke="black" points="647.5,-283 574.5,-283 574.5,-247 647.5,-247 647.5,-283"/>
<text text-anchor="middle" x="611" y="-261.3" font-family="Arial" font-size="14.00">int_enum</text>
</g>
<!-- type_switch&#45;&gt;int_enum -->
<g id="edge6" class="edge">
<title>type_switch&#45;&gt;int_enum</title>
<path fill="none" stroke="black" d="M919.49,-432.39C832.48,-424.15 705.03,-407.44 666,-378 638.49,-357.25 623.93,-319.04 616.85,-293.08"/>
<polygon fill="black" stroke="black" points="620.18,-291.97 614.34,-283.13 613.39,-293.68 620.18,-291.97"/>
<text text-anchor="middle" x="696.5" y="-348.3" font-family="Arial" font-size="14.00">.int/.enum</text>
</g>
<!-- float -->
<g id="node8" class="node">
<title>float</title>
<polygon fill="none" stroke="black" points="799,-370 745,-370 745,-334 799,-334 799,-370"/>
<text text-anchor="middle" x="772" y="-348.3" font-family="Arial" font-size="14.00">float</text>
</g>
<!-- type_switch&#45;&gt;float -->
<g id="edge7" class="edge">
<title>type_switch&#45;&gt;float</title>
<path fill="none" stroke="black" d="M962.61,-427.13C924.84,-416.04 868.37,-398.19 821,-378 816.84,-376.22 812.53,-374.25 808.29,-372.21"/>
<polygon fill="black" stroke="black" points="809.67,-368.99 799.15,-367.69 806.57,-375.26 809.67,-368.99"/>
<text text-anchor="middle" x="900" y="-391.8" font-family="Arial" font-size="14.00">.float</text>
</g>
<!-- vector -->
<g id="node9" class="node">
<title>vector</title>
<polygon fill="none" stroke="black" points="1887,-370 1833,-370 1833,-334 1887,-334 1887,-370"/>
<text text-anchor="middle" x="1860" y="-348.3" font-family="Arial" font-size="14.00">vector</text>
</g>
<!-- type_switch&#45;&gt;vector -->
<g id="edge8" class="edge">
<title>type_switch&#45;&gt;vector</title>
<path fill="none" stroke="black" d="M1096.12,-433.13C1188.82,-426.86 1336.57,-416.03 1464,-403 1596.12,-389.49 1752.38,-368.18 1822.57,-358.33"/>
<polygon fill="black" stroke="black" points="1823.27,-361.76 1832.69,-356.9 1822.3,-354.83 1823.27,-361.76"/>
<text text-anchor="middle" x="1614.5" y="-391.8" font-family="Arial" font-size="14.00">.vector</text>
</g>
<!-- struct_node -->
<g id="node10" class="node">
<title>struct_node</title>
<polygon fill="none" stroke="black" points="925.5,-370 838.5,-370 838.5,-334 925.5,-334 925.5,-370"/>
<text text-anchor="middle" x="882" y="-348.3" font-family="Arial" font-size="14.00">struct_node</text>
</g>
<!-- type_switch&#45;&gt;struct_node -->
<g id="edge9" class="edge">
<title>type_switch&#45;&gt;struct_node</title>
<path fill="none" stroke="black" d="M984.13,-424.41C965.14,-411.13 936.77,-391.29 914.75,-375.9"/>
<polygon fill="black" stroke="black" points="916.55,-372.89 906.35,-370.03 912.54,-378.63 916.55,-372.89"/>
<text text-anchor="middle" x="968.5" y="-391.8" font-family="Arial" font-size="14.00">.struct</text>
</g>
<!-- union_node -->
<g id="node11" class="node">
<title>union_node</title>
<polygon fill="none" stroke="black" points="1048.5,-370 961.5,-370 961.5,-334 1048.5,-334 1048.5,-370"/>
<text text-anchor="middle" x="1005" y="-348.3" font-family="Arial" font-size="14.00">union_node</text>
</g>
<!-- type_switch&#45;&gt;union_node -->
<g id="edge10" class="edge">
<title>type_switch&#45;&gt;union_node</title>
<path fill="none" stroke="black" d="M1005,-421.6C1005,-409.75 1005,-393.82 1005,-380.29"/>
<polygon fill="black" stroke="black" points="1008.5,-380.08 1005,-370.08 1001.5,-380.08 1008.5,-380.08"/>
<text text-anchor="middle" x="1023.5" y="-391.8" font-family="Arial" font-size="14.00">.union</text>
</g>
<!-- pointer -->
<g id="node12" class="node">
<title>pointer</title>
<polygon fill="none" stroke="black" points="1173,-283 1115,-283 1115,-247 1173,-247 1173,-283"/>
<text text-anchor="middle" x="1144" y="-261.3" font-family="Arial" font-size="14.00">pointer</text>
</g>
<!-- type_switch&#45;&gt;pointer -->
<g id="edge11" class="edge">
<title>type_switch&#45;&gt;pointer</title>
<path fill="none" stroke="black" d="M1026.31,-424.49C1034.51,-418.38 1043.66,-410.85 1051,-403 1083.59,-368.13 1113.02,-320.86 1129.69,-291.95"/>
<polygon fill="black" stroke="black" points="1132.74,-293.67 1134.64,-283.24 1126.65,-290.21 1132.74,-293.67"/>
<text text-anchor="middle" x="1125" y="-348.3" font-family="Arial" font-size="14.00">.pointer</text>
</g>
<!-- optional -->
<g id="node13" class="node">
<title>optional</title>
<polygon fill="none" stroke="black" points="1367,-283 1303,-283 1303,-247 1367,-247 1367,-283"/>
<text text-anchor="middle" x="1335" y="-261.3" font-family="Arial" font-size="14.00">optional</text>
</g>
<!-- type_switch&#45;&gt;optional -->
<g id="edge12" class="edge">
<title>type_switch&#45;&gt;optional</title>
<path fill="none" stroke="black" d="M1041.74,-426.37C1073.05,-415.11 1118.88,-397.44 1157,-378 1210.07,-350.93 1267.8,-312.87 1302.69,-288.82"/>
<polygon fill="black" stroke="black" points="1304.83,-291.6 1311.06,-283.03 1300.84,-285.85 1304.83,-291.6"/>
<text text-anchor="middle" x="1258" y="-348.3" font-family="Arial" font-size="14.00">.optional</text>
</g>
<!-- void -->
<g id="node14" class="node">
<title>void</title>
<polygon fill="none" stroke="black" points="1381,-370 1327,-370 1327,-334 1381,-334 1381,-370"/>
<text text-anchor="middle" x="1354" y="-348.3" font-family="Arial" font-size="14.00">void</text>
</g>
<!-- type_switch&#45;&gt;void -->
<g id="edge13" class="edge">
<title>type_switch&#45;&gt;void</title>
<path fill="none" stroke="black" d="M1105.37,-434.28C1155.05,-429.68 1215.29,-420.66 1267,-403 1286.02,-396.51 1305.56,-385.71 1321.3,-375.81"/>
<polygon fill="black" stroke="black" points="1323.59,-378.49 1330.09,-370.12 1319.79,-372.62 1323.59,-378.49"/>
<text text-anchor="middle" x="1313.5" y="-391.8" font-family="Arial" font-size="14.00">.void</text>
</g>
<!-- panic -->
<g id="node15" class="node">
<title>panic</title>
<polygon fill="none" stroke="black" points="1590.56,-344.54 1590.56,-359.46 1539.85,-370 1468.15,-370 1417.44,-359.46 1417.44,-344.54 1468.15,-334 1539.85,-334 1590.56,-344.54"/>
<text text-anchor="middle" x="1504" y="-348.3" font-family="Arial" font-size="14.00">@panic(&quot;TODO&quot;)</text>
</g>
<!-- type_switch&#45;&gt;panic -->
<g id="edge14" class="edge">
<title>type_switch&#45;&gt;panic</title>
<path fill="none" stroke="black" d="M1098.72,-433.43C1165.61,-428.34 1257.44,-419.08 1337,-403 1375.58,-395.2 1418.06,-382.42 1450.52,-371.74"/>
<polygon fill="black" stroke="black" points="1451.87,-374.98 1460.26,-368.5 1449.66,-368.33 1451.87,-374.98"/>
<text text-anchor="middle" x="1426" y="-391.8" font-family="Arial" font-size="14.00">其他类型</text>
</g>
<!-- bool_calculation -->
<g id="node16" class="node">
<title>bool_calculation</title>
<polygon fill="none" stroke="black" points="168.5,-283 55.5,-283 55.5,-247 168.5,-247 168.5,-283"/>
<text text-anchor="middle" x="112" y="-261.3" font-family="Arial" font-size="14.00">bool_calculation</text>
</g>
<!-- bool&#45;&gt;bool_calculation -->
<g id="edge15" class="edge">
<title>bool&#45;&gt;bool_calculation</title>
<path fill="none" stroke="black" d="M425.84,-346.91C375.19,-338.92 263.19,-319.47 172,-291 167.94,-289.73 163.78,-288.3 159.62,-286.77"/>
<polygon fill="black" stroke="black" points="160.61,-283.4 150.02,-283.08 158.1,-289.93 160.61,-283.4"/>
<text text-anchor="middle" x="306" y="-304.8" font-family="Arial" font-size="14.00">计算字节位置</text>
</g>
<!-- int_storage -->
<g id="node17" class="node">
<title>int_storage</title>
<polygon fill="none" stroke="black" points="550.5,-196 467.5,-196 467.5,-160 550.5,-160 550.5,-196"/>
<text text-anchor="middle" x="509" y="-174.3" font-family="Arial" font-size="14.00">int_storage</text>
</g>
<!-- int_enum&#45;&gt;int_storage -->
<g id="edge17" class="edge">
<title>int_enum&#45;&gt;int_storage</title>
<path fill="none" stroke="black" d="M590.36,-246.8C575.15,-234.13 554.28,-216.73 537.49,-202.74"/>
<polygon fill="black" stroke="black" points="539.53,-199.89 529.61,-196.18 535.05,-205.27 539.53,-199.89"/>
<text text-anchor="middle" x="609" y="-217.8" font-family="Arial" font-size="14.00">匹配存储类型</text>
</g>
<!-- float_switch -->
<g id="node22" class="node">
<title>float_switch</title>
<polygon fill="none" stroke="black" points="804.5,-283 717.5,-283 717.5,-247 804.5,-247 804.5,-283"/>
<text text-anchor="middle" x="761" y="-261.3" font-family="Arial" font-size="14.00">float_switch</text>
</g>
<!-- float&#45;&gt;float_switch -->
<g id="edge26" class="edge">
<title>float&#45;&gt;float_switch</title>
<path fill="none" stroke="black" d="M769.77,-333.8C768.27,-322.16 766.25,-306.55 764.52,-293.24"/>
<polygon fill="black" stroke="black" points="767.98,-292.64 763.22,-283.18 761.04,-293.54 767.98,-292.64"/>
<text text-anchor="middle" x="803" y="-304.8" font-family="Arial" font-size="14.00">根据bit大小</text>
</g>
<!-- elem_loop -->
<g id="node23" class="node">
<title>elem_loop</title>
<polygon fill="none" stroke="black" points="1909,-283 1829,-283 1829,-247 1909,-247 1909,-283"/>
<text text-anchor="middle" x="1869" y="-261.3" font-family="Arial" font-size="14.00">elem_loop</text>
</g>
<!-- vector&#45;&gt;elem_loop -->
<g id="edge28" class="edge">
<title>vector&#45;&gt;elem_loop</title>
<path fill="none" stroke="black" d="M1861.82,-333.8C1863.05,-322.16 1864.71,-306.55 1866.12,-293.24"/>
<polygon fill="black" stroke="black" points="1869.61,-293.49 1867.18,-283.18 1862.65,-292.75 1869.61,-293.49"/>
<text text-anchor="middle" x="1908" y="-304.8" font-family="Arial" font-size="14.00">遍历每个元素</text>
</g>
<!-- struct_loop -->
<g id="node26" class="node">
<title>struct_loop</title>
<polygon fill="none" stroke="black" points="923.5,-283 840.5,-283 840.5,-247 923.5,-247 923.5,-283"/>
<text text-anchor="middle" x="882" y="-261.3" font-family="Arial" font-size="14.00">struct_loop</text>
</g>
<!-- struct_node&#45;&gt;struct_loop -->
<g id="edge32" class="edge">
<title>struct_node&#45;&gt;struct_loop</title>
<path fill="none" stroke="black" d="M882,-333.8C882,-322.16 882,-306.55 882,-293.24"/>
<polygon fill="black" stroke="black" points="885.5,-293.18 882,-283.18 878.5,-293.18 885.5,-293.18"/>
<text text-anchor="middle" x="911" y="-304.8" font-family="Arial" font-size="14.00">遍历字段</text>
</g>
<!-- union_layout -->
<g id="node28" class="node">
<title>union_layout</title>
<polygon fill="none" stroke="black" points="1052.5,-283 959.5,-283 959.5,-247 1052.5,-247 1052.5,-283"/>
<text text-anchor="middle" x="1006" y="-261.3" font-family="Arial" font-size="14.00">union_layout</text>
</g>
<!-- union_node&#45;&gt;union_layout -->
<g id="edge35" class="edge">
<title>union_node&#45;&gt;union_layout</title>
<path fill="none" stroke="black" d="M1005.2,-333.8C1005.34,-322.16 1005.52,-306.55 1005.68,-293.24"/>
<polygon fill="black" stroke="black" points="1009.18,-293.22 1005.8,-283.18 1002.18,-293.13 1009.18,-293.22"/>
<text text-anchor="middle" x="1034" y="-304.8" font-family="Arial" font-size="14.00">检查布局</text>
</g>
<!-- check_addr_tag -->
<g id="node32" class="node">
<title>check_addr_tag</title>
<polygon fill="none" stroke="black" points="1269.5,-196 1156.5,-196 1156.5,-160 1269.5,-160 1269.5,-196"/>
<text text-anchor="middle" x="1213" y="-174.3" font-family="Arial" font-size="14.00">check_addr_tag</text>
</g>
<!-- pointer&#45;&gt;check_addr_tag -->
<g id="edge41" class="edge">
<title>pointer&#45;&gt;check_addr_tag</title>
<path fill="none" stroke="black" d="M1157.96,-246.8C1167.88,-234.59 1181.35,-217.99 1192.48,-204.28"/>
<polygon fill="black" stroke="black" points="1195.47,-206.15 1199.06,-196.18 1190.04,-201.73 1195.47,-206.15"/>
<text text-anchor="middle" x="1225" y="-217.8" font-family="Arial" font-size="14.00">检查地址标签</text>
</g>
<!-- check_opt_val -->
<g id="node35" class="node">
<title>check_opt_val</title>
<polygon fill="none" stroke="black" points="1614.5,-196 1511.5,-196 1511.5,-160 1614.5,-160 1614.5,-196"/>
<text text-anchor="middle" x="1563" y="-174.3" font-family="Arial" font-size="14.00">check_opt_val</text>
</g>
<!-- optional&#45;&gt;check_opt_val -->
<g id="edge45" class="edge">
<title>optional&#45;&gt;check_opt_val</title>
<path fill="none" stroke="black" d="M1367.18,-252C1403.66,-238.4 1463.77,-215.99 1507.78,-199.59"/>
<polygon fill="black" stroke="black" points="1509.05,-202.85 1517.2,-196.08 1506.6,-196.29 1509.05,-202.85"/>
<text text-anchor="middle" x="1505" y="-217.8" font-family="Arial" font-size="14.00">检查是否有值</text>
</g>
<!-- void&#45;&gt;end -->
<g id="edge50" class="edge">
<title>void&#45;&gt;end</title>
<path fill="none" stroke="black" d="M1381.34,-339.77C1387.11,-337.65 1393.21,-335.61 1399,-334 1480.62,-311.39 1774,-350.69 1774,-266 1774,-266 1774,-266 1774,-90 1774,-70.15 1755.82,-71.3 1737,-65 1656.15,-37.93 1052.39,-23.28 890.72,-19.81"/>
<polygon fill="black" stroke="black" points="890.36,-16.3 880.29,-19.59 890.21,-23.3 890.36,-16.3"/>
</g>
<!-- bool_calculation&#45;&gt;end -->
<g id="edge16" class="edge">
<title>bool_calculation&#45;&gt;end</title>
<path fill="none" stroke="black" d="M110.9,-246.98C109.4,-207.7 111.85,-110.58 168,-65 218.02,-24.39 673.37,-19.57 811.48,-19.05"/>
<polygon fill="black" stroke="black" points="811.62,-22.55 821.61,-19.02 811.6,-15.55 811.62,-22.55"/>
</g>
<!-- write_u64_i64 -->
<g id="node18" class="node">
<title>write_u64_i64</title>
<polygon fill="none" stroke="black" points="430.5,-109 329.5,-109 329.5,-73 430.5,-73 430.5,-109"/>
<text text-anchor="middle" x="380" y="-87.3" font-family="Arial" font-size="14.00">write_u64_i64</text>
</g>
<!-- int_storage&#45;&gt;write_u64_i64 -->
<g id="edge18" class="edge">
<title>int_storage&#45;&gt;write_u64_i64</title>
<path fill="none" stroke="black" d="M482.59,-159.98C473.8,-154.29 463.96,-147.89 455,-142 441.61,-133.2 426.94,-123.44 414.15,-114.9"/>
<polygon fill="black" stroke="black" points="415.89,-111.85 405.63,-109.21 412,-117.67 415.89,-111.85"/>
<text text-anchor="middle" x="477.5" y="-130.8" font-family="Arial" font-size="14.00">u64/i64</text>
</g>
<!-- write_bigint -->
<g id="node19" class="node">
<title>write_bigint</title>
<polygon fill="none" stroke="black" points="551.5,-109 466.5,-109 466.5,-73 551.5,-73 551.5,-109"/>
<text text-anchor="middle" x="509" y="-87.3" font-family="Arial" font-size="14.00">write_bigint</text>
</g>
<!-- int_storage&#45;&gt;write_bigint -->
<g id="edge19" class="edge">
<title>int_storage&#45;&gt;write_bigint</title>
<path fill="none" stroke="black" d="M509,-159.8C509,-148.16 509,-132.55 509,-119.24"/>
<polygon fill="black" stroke="black" points="512.5,-119.18 509,-109.18 505.5,-119.18 512.5,-119.18"/>
<text text-anchor="middle" x="529" y="-130.8" font-family="Arial" font-size="14.00">big_int</text>
</g>
<!-- write_lazy_align -->
<g id="node20" class="node">
<title>write_lazy_align</title>
<polygon fill="none" stroke="black" points="700.5,-109 587.5,-109 587.5,-73 700.5,-73 700.5,-109"/>
<text text-anchor="middle" x="644" y="-87.3" font-family="Arial" font-size="14.00">write_lazy_align</text>
</g>
<!-- int_storage&#45;&gt;write_lazy_align -->
<g id="edge20" class="edge">
<title>int_storage&#45;&gt;write_lazy_align</title>
<path fill="none" stroke="black" d="M536.32,-159.8C557,-146.78 585.58,-128.78 608.11,-114.6"/>
<polygon fill="black" stroke="black" points="610.12,-117.47 616.72,-109.18 606.39,-111.54 610.12,-117.47"/>
<text text-anchor="middle" x="614.5" y="-130.8" font-family="Arial" font-size="14.00">lazy_align</text>
</g>
<!-- write_lazy_size -->
<g id="node21" class="node">
<title>write_lazy_size</title>
<polygon fill="none" stroke="black" points="293,-109 185,-109 185,-73 293,-73 293,-109"/>
<text text-anchor="middle" x="239" y="-87.3" font-family="Arial" font-size="14.00">write_lazy_size</text>
</g>
<!-- int_storage&#45;&gt;write_lazy_size -->
<g id="edge21" class="edge">
<title>int_storage&#45;&gt;write_lazy_size</title>
<path fill="none" stroke="black" d="M467.28,-167.98C439.25,-161.57 401.61,-152.3 369,-142 342.25,-133.55 313.05,-122.49 289.11,-112.92"/>
<polygon fill="black" stroke="black" points="290.12,-109.55 279.53,-109.06 287.5,-116.04 290.12,-109.55"/>
<text text-anchor="middle" x="397" y="-130.8" font-family="Arial" font-size="14.00">lazy_size</text>
</g>
<!-- write_u64_i64&#45;&gt;end -->
<g id="edge22" class="edge">
<title>write_u64_i64&#45;&gt;end</title>
<path fill="none" stroke="black" d="M422.22,-72.94C430.96,-69.91 440.19,-67.07 449,-65 579.68,-34.29 739.27,-23.8 811.79,-20.45"/>
<polygon fill="black" stroke="black" points="812.01,-23.94 821.84,-20.01 811.7,-16.95 812.01,-23.94"/>
</g>
<!-- write_bigint&#45;&gt;end -->
<g id="edge23" class="edge">
<title>write_bigint&#45;&gt;end</title>
<path fill="none" stroke="black" d="M546.93,-72.91C554.47,-69.96 562.4,-67.15 570,-65 654.68,-41.05 757.48,-28.17 812.24,-22.54"/>
<polygon fill="black" stroke="black" points="812.61,-26.02 822.21,-21.54 811.92,-19.05 812.61,-26.02"/>
</g>
<!-- write_lazy_align&#45;&gt;end -->
<g id="edge24" class="edge">
<title>write_lazy_align&#45;&gt;end</title>
<path fill="none" stroke="black" d="M681.23,-72.83C695.67,-66.5 712.45,-59.52 728,-54 756.69,-43.82 789.93,-34.5 814.62,-28.05"/>
<polygon fill="black" stroke="black" points="815.49,-31.44 824.3,-25.55 813.74,-24.66 815.49,-31.44"/>
</g>
<!-- write_lazy_size&#45;&gt;end -->
<g id="edge25" class="edge">
<title>write_lazy_size&#45;&gt;end</title>
<path fill="none" stroke="black" d="M283.3,-72.9C292.66,-69.83 302.56,-66.99 312,-65 495.91,-26.27 721.65,-19.98 811.45,-19.08"/>
<polygon fill="black" stroke="black" points="811.74,-22.58 821.71,-19 811.69,-15.58 811.74,-22.58"/>
</g>
<!-- float_switch&#45;&gt;end -->
<g id="edge27" class="edge">
<title>float_switch&#45;&gt;end</title>
<path fill="none" stroke="black" d="M767.33,-246.77C782.83,-204.59 822.76,-95.88 841.29,-45.44"/>
<polygon fill="black" stroke="black" points="844.63,-46.48 844.8,-35.88 838.06,-44.06 844.63,-46.48"/>
</g>
<!-- reverse_order -->
<g id="node24" class="node">
<title>reverse_order</title>
<polygon fill="none" stroke="black" points="1930.5,-196 1829.5,-196 1829.5,-160 1930.5,-160 1930.5,-196"/>
<text text-anchor="middle" x="1880" y="-174.3" font-family="Arial" font-size="14.00">reverse_order</text>
</g>
<!-- elem_loop&#45;&gt;reverse_order -->
<g id="edge29" class="edge">
<title>elem_loop&#45;&gt;reverse_order</title>
<path fill="none" stroke="black" d="M1871.23,-246.8C1872.73,-235.16 1874.75,-219.55 1876.48,-206.24"/>
<polygon fill="black" stroke="black" points="1879.96,-206.54 1877.78,-196.18 1873.02,-205.64 1879.96,-206.54"/>
<text text-anchor="middle" x="1925" y="-217.8" font-family="Arial" font-size="14.00">大端序反转索引</text>
</g>
<!-- recursive_write -->
<g id="node25" class="node">
<title>recursive_write</title>
<polygon fill="none" stroke="black" points="1936.5,-109 1829.5,-109 1829.5,-73 1936.5,-73 1936.5,-109"/>
<text text-anchor="middle" x="1883" y="-87.3" font-family="Arial" font-size="14.00">recursive_write</text>
</g>
<!-- reverse_order&#45;&gt;recursive_write -->
<g id="edge30" class="edge">
<title>reverse_order&#45;&gt;recursive_write</title>
<path fill="none" stroke="black" d="M1880.61,-159.8C1881.02,-148.16 1881.57,-132.55 1882.04,-119.24"/>
<polygon fill="black" stroke="black" points="1885.54,-119.29 1882.39,-109.18 1878.54,-119.05 1885.54,-119.29"/>
<text text-anchor="middle" x="1924" y="-130.8" font-family="Arial" font-size="14.00">递归写入元素</text>
</g>
<!-- recursive_write&#45;&gt;end -->
<g id="edge31" class="edge">
<title>recursive_write&#45;&gt;end</title>
<path fill="none" stroke="black" d="M1852.04,-72.9C1837.34,-65.66 1819.24,-57.99 1802,-54 1712.38,-33.25 1058.87,-22.11 890.49,-19.57"/>
<polygon fill="black" stroke="black" points="890.38,-16.07 880.33,-19.42 890.28,-23.07 890.38,-16.07"/>
</g>
<!-- field_write -->
<g id="node27" class="node">
<title>field_write</title>
<polygon fill="none" stroke="black" points="895.5,-196 818.5,-196 818.5,-160 895.5,-160 895.5,-196"/>
<text text-anchor="middle" x="857" y="-174.3" font-family="Arial" font-size="14.00">field_write</text>
</g>
<!-- struct_loop&#45;&gt;field_write -->
<g id="edge33" class="edge">
<title>struct_loop&#45;&gt;field_write</title>
<path fill="none" stroke="black" d="M876.94,-246.8C873.48,-235.05 868.83,-219.24 864.89,-205.84"/>
<polygon fill="black" stroke="black" points="868.23,-204.78 862.05,-196.18 861.52,-206.76 868.23,-204.78"/>
<text text-anchor="middle" x="920" y="-217.8" font-family="Arial" font-size="14.00">递归写入字段值</text>
</g>
<!-- field_write&#45;&gt;end -->
<g id="edge34" class="edge">
<title>field_write&#45;&gt;end</title>
<path fill="none" stroke="black" d="M856.35,-159.79C855.31,-132.48 853.28,-78.99 852.04,-46.38"/>
<polygon fill="black" stroke="black" points="855.53,-46.05 851.65,-36.19 848.53,-46.31 855.53,-46.05"/>
</g>
<!-- union_tag -->
<g id="node29" class="node">
<title>union_tag</title>
<polygon fill="none" stroke="black" points="1044,-196 968,-196 968,-160 1044,-160 1044,-196"/>
<text text-anchor="middle" x="1006" y="-174.3" font-family="Arial" font-size="14.00">union_tag</text>
</g>
<!-- union_layout&#45;&gt;union_tag -->
<g id="edge36" class="edge">
<title>union_layout&#45;&gt;union_tag</title>
<path fill="none" stroke="black" d="M1006,-246.8C1006,-235.16 1006,-219.55 1006,-206.24"/>
<polygon fill="black" stroke="black" points="1009.5,-206.18 1006,-196.18 1002.5,-206.18 1009.5,-206.18"/>
<text text-anchor="middle" x="1028" y="-217.8" font-family="Arial" font-size="14.00">packed</text>
</g>
<!-- field_write_union -->
<g id="node30" class="node">
<title>field_write_union</title>
<polygon fill="none" stroke="black" points="1003,-109 885,-109 885,-73 1003,-73 1003,-109"/>
<text text-anchor="middle" x="944" y="-87.3" font-family="Arial" font-size="14.00">field_write_union</text>
</g>
<!-- union_tag&#45;&gt;field_write_union -->
<g id="edge37" class="edge">
<title>union_tag&#45;&gt;field_write_union</title>
<path fill="none" stroke="black" d="M993.25,-159.95C989.02,-154.25 984.29,-147.87 980,-142 974.16,-134.01 967.83,-125.27 962.14,-117.35"/>
<polygon fill="black" stroke="black" points="964.94,-115.25 956.27,-109.17 959.26,-119.33 964.94,-115.25"/>
<text text-anchor="middle" x="1004" y="-130.8" font-family="Arial" font-size="14.00">存在tag</text>
</g>
<!-- backing_type -->
<g id="node31" class="node">
<title>backing_type</title>
<polygon fill="none" stroke="black" points="1135,-109 1039,-109 1039,-73 1135,-73 1135,-109"/>
<text text-anchor="middle" x="1087" y="-87.3" font-family="Arial" font-size="14.00">backing_type</text>
</g>
<!-- union_tag&#45;&gt;backing_type -->
<g id="edge38" class="edge">
<title>union_tag&#45;&gt;backing_type</title>
<path fill="none" stroke="black" d="M1022.39,-159.8C1034.25,-147.36 1050.44,-130.36 1063.65,-116.5"/>
<polygon fill="black" stroke="black" points="1066.27,-118.83 1070.63,-109.18 1061.2,-114 1066.27,-118.83"/>
<text text-anchor="middle" x="1068" y="-130.8" font-family="Arial" font-size="14.00">无tag</text>
</g>
<!-- field_write_union&#45;&gt;end -->
<g id="edge39" class="edge">
<title>field_write_union&#45;&gt;end</title>
<path fill="none" stroke="black" d="M921.49,-72.81C908.04,-62.55 890.91,-49.47 876.91,-38.78"/>
<polygon fill="black" stroke="black" points="878.73,-35.76 868.65,-32.48 874.48,-41.33 878.73,-35.76"/>
</g>
<!-- backing_type&#45;&gt;end -->
<g id="edge40" class="edge">
<title>backing_type&#45;&gt;end</title>
<path fill="none" stroke="black" d="M1043.9,-72.98C1036.32,-70.19 1028.46,-67.42 1021,-65 975.66,-50.32 922.51,-36.46 887.87,-27.87"/>
<polygon fill="black" stroke="black" points="888.28,-24.37 877.74,-25.37 886.61,-31.16 888.28,-24.37"/>
</g>
<!-- write_usize -->
<g id="node33" class="node">
<title>write_usize</title>
<polygon fill="none" stroke="black" points="1255,-109 1171,-109 1171,-73 1255,-73 1255,-109"/>
<text text-anchor="middle" x="1213" y="-87.3" font-family="Arial" font-size="14.00">write_usize</text>
</g>
<!-- check_addr_tag&#45;&gt;write_usize -->
<g id="edge42" class="edge">
<title>check_addr_tag&#45;&gt;write_usize</title>
<path fill="none" stroke="black" d="M1213,-159.8C1213,-148.16 1213,-132.55 1213,-119.24"/>
<polygon fill="black" stroke="black" points="1216.5,-119.18 1213,-109.18 1209.5,-119.18 1216.5,-119.18"/>
<text text-anchor="middle" x="1234.5" y="-130.8" font-family="Arial" font-size="14.00">int类型</text>
</g>
<!-- error_ref -->
<g id="node34" class="node">
<title>error_ref</title>
<polygon fill="none" stroke="black" points="1486.5,-109 1291.5,-109 1291.5,-73 1486.5,-73 1486.5,-109"/>
<text text-anchor="middle" x="1389" y="-87.3" font-family="Arial" font-size="14.00">返回 ReinterpretDeclRef 错误</text>
</g>
<!-- check_addr_tag&#45;&gt;error_ref -->
<g id="edge43" class="edge">
<title>check_addr_tag&#45;&gt;error_ref</title>
<path fill="none" stroke="black" d="M1248.62,-159.8C1276.26,-146.45 1314.75,-127.86 1344.43,-113.52"/>
<polygon fill="black" stroke="black" points="1346.25,-116.53 1353.74,-109.03 1343.21,-110.23 1346.25,-116.53"/>
<text text-anchor="middle" x="1340" y="-130.8" font-family="Arial" font-size="14.00">非int类型</text>
</g>
<!-- write_usize&#45;&gt;end -->
<g id="edge44" class="edge">
<title>write_usize&#45;&gt;end</title>
<path fill="none" stroke="black" d="M1176.05,-72.96C1168.54,-69.96 1160.61,-67.13 1153,-65 1060.93,-39.22 948.77,-26.94 890.47,-21.93"/>
<polygon fill="black" stroke="black" points="890.48,-18.42 880.23,-21.07 889.9,-25.39 890.48,-18.42"/>
</g>
<!-- error_ref&#45;&gt;end -->
<g id="edge51" class="edge">
<title>error_ref&#45;&gt;end</title>
<path fill="none" stroke="red" stroke-dasharray="5,2" d="M1315.58,-72.98C1301.5,-70.05 1286.83,-67.24 1273,-65 1133.1,-42.36 965.27,-27.78 890.4,-21.92"/>
<polygon fill="red" stroke="red" points="890.29,-18.4 880.05,-21.12 889.75,-25.38 890.29,-18.4"/>
</g>
<!-- write_child -->
<g id="node36" class="node">
<title>write_child</title>
<polygon fill="none" stroke="black" points="1603,-109 1523,-109 1523,-73 1603,-73 1603,-109"/>
<text text-anchor="middle" x="1563" y="-87.3" font-family="Arial" font-size="14.00">write_child</text>
</g>
<!-- check_opt_val&#45;&gt;write_child -->
<g id="edge46" class="edge">
<title>check_opt_val&#45;&gt;write_child</title>
<path fill="none" stroke="black" d="M1563,-159.8C1563,-148.16 1563,-132.55 1563,-119.24"/>
<polygon fill="black" stroke="black" points="1566.5,-119.18 1563,-109.18 1559.5,-119.18 1566.5,-119.18"/>
<text text-anchor="middle" x="1577.5" y="-130.8" font-family="Arial" font-size="14.00">有值</text>
</g>
<!-- write_zero -->
<g id="node37" class="node">
<title>write_zero</title>
<polygon fill="none" stroke="black" points="1718.5,-109 1639.5,-109 1639.5,-73 1718.5,-73 1718.5,-109"/>
<text text-anchor="middle" x="1679" y="-87.3" font-family="Arial" font-size="14.00">write_zero</text>
</g>
<!-- check_opt_val&#45;&gt;write_zero -->
<g id="edge47" class="edge">
<title>check_opt_val&#45;&gt;write_zero</title>
<path fill="none" stroke="black" d="M1586.47,-159.8C1604.01,-146.95 1628.15,-129.26 1647.38,-115.17"/>
<polygon fill="black" stroke="black" points="1649.56,-117.91 1655.56,-109.18 1645.43,-112.26 1649.56,-117.91"/>
<text text-anchor="middle" x="1641.5" y="-130.8" font-family="Arial" font-size="14.00">无值</text>
</g>
<!-- write_child&#45;&gt;end -->
<g id="edge48" class="edge">
<title>write_child&#45;&gt;end</title>
<path fill="none" stroke="black" d="M1528.69,-72.97C1521.06,-69.82 1512.88,-66.92 1505,-65 1387.33,-36.38 1013.39,-23.56 890.54,-20.04"/>
<polygon fill="black" stroke="black" points="890.54,-16.54 880.45,-19.76 890.34,-23.54 890.54,-16.54"/>
</g>
<!-- write_zero&#45;&gt;end -->
<g id="edge49" class="edge">
<title>write_zero&#45;&gt;end</title>
<path fill="none" stroke="black" d="M1644.69,-72.99C1637.05,-69.84 1628.88,-66.93 1621,-65 1556.94,-49.28 1538.82,-58.3 1473,-54 1252.76,-39.62 988.41,-25.93 890.22,-20.96"/>
<polygon fill="black" stroke="black" points="890.32,-17.46 880.16,-20.45 889.97,-24.45 890.32,-17.46"/>
</g>
</g>
</svg>
