<?xml version="1.0" encoding="UTF-8" standalone="no"?>
<!DOCTYPE svg PUBLIC "-//W3C//DTD SVG 1.1//EN"
 "http://www.w3.org/Graphics/SVG/1.1/DTD/svg11.dtd">
<!-- Generated by graphviz version 2.43.0 (0)
 -->
<!-- Title: readFromPackedMemory Pages: 1 -->
<svg width="2075pt" height="614pt"
 viewBox="0.00 0.00 2074.94 613.55" xmlns="http://www.w3.org/2000/svg" xmlns:xlink="http://www.w3.org/1999/xlink">
<g id="graph0" class="graph" transform="scale(1 1) rotate(0) translate(4 609.55)">
<title>readFromPackedMemory</title>
<polygon fill="white" stroke="transparent" points="-4,4 -4,-609.55 2070.94,-609.55 2070.94,4 -4,4"/>
<g id="clust1" class="cluster">
<title>cluster_switch</title>
<polygon fill="none" stroke="black" points="192.5,-378.55 192.5,-542.55 1985.5,-542.55 1985.5,-378.55 192.5,-378.55"/>
<text text-anchor="middle" x="1089" y="-527.35" font-family="Arial" font-size="14.00">Switch on ty.zigTypeTag(zcu)</text>
</g>
<!-- start -->
<g id="node1" class="node">
<title>start</title>
<ellipse fill="none" stroke="black" cx="1161.5" cy="-587.55" rx="131.88" ry="18"/>
<text text-anchor="middle" x="1161.5" y="-583.85" font-family="Arial" font-size="14.00">Start readFromPackedMemory</text>
</g>
<!-- switch_ty_tag -->
<g id="node4" class="node">
<title>switch_ty_tag</title>
<polygon fill="none" stroke="black" points="1161.5,-511.55 1055.59,-493.55 1161.5,-475.55 1267.41,-493.55 1161.5,-511.55"/>
<text text-anchor="middle" x="1161.5" y="-489.85" font-family="Arial" font-size="14.00">Type Tag Switch</text>
</g>
<!-- start&#45;&gt;switch_ty_tag -->
<g id="edge1" class="edge">
<title>start&#45;&gt;switch_ty_tag</title>
<path fill="none" stroke="black" d="M1161.5,-569.24C1161.5,-556.01 1161.5,-537.5 1161.5,-522.21"/>
<polygon fill="black" stroke="black" points="1165,-521.78 1161.5,-511.78 1158,-521.78 1165,-521.78"/>
</g>
<!-- end -->
<g id="node2" class="node">
<title>end</title>
<ellipse fill="none" stroke="black" cx="1164.5" cy="-18" rx="61.99" ry="18"/>
<text text-anchor="middle" x="1164.5" y="-14.3" font-family="Arial" font-size="14.00">Return Value</text>
</g>
<!-- error -->
<g id="node3" class="node">
<title>error</title>
<polygon fill="none" stroke="black" points="652.31,-203.27 585.41,-246.32 451.59,-246.32 384.69,-203.27 451.59,-160.22 585.41,-160.22 652.31,-203.27"/>
<text text-anchor="middle" x="518.5" y="-214.57" font-family="Arial" font-size="14.00">Error Handling:</text>
<text text-anchor="middle" x="518.5" y="-199.57" font-family="Arial" font-size="14.00">IllDefinedMemoryLayout</text>
<text text-anchor="middle" x="518.5" y="-184.57" font-family="Arial" font-size="14.00">OutOfMemory</text>
</g>
<!-- error&#45;&gt;end -->
<g id="edge50" class="edge">
<title>error&#45;&gt;end</title>
<path fill="none" stroke="black" stroke-dasharray="5,2" d="M547.03,-160.11C573.46,-124.93 616.21,-76.96 666.5,-54 704.31,-36.74 965.02,-25.7 1093.39,-21.24"/>
<polygon fill="black" stroke="black" points="1093.65,-24.74 1103.53,-20.9 1093.41,-17.74 1093.65,-24.74"/>
</g>
<!-- void -->
<g id="node5" class="node">
<title>void</title>
<polygon fill="none" stroke="black" points="1049,-423.55 926,-423.55 926,-387.55 1049,-387.55 1049,-423.55"/>
<text text-anchor="middle" x="987.5" y="-401.85" font-family="Arial" font-size="14.00">Return Value.void</text>
</g>
<!-- switch_ty_tag&#45;&gt;void -->
<g id="edge2" class="edge">
<title>switch_ty_tag&#45;&gt;void</title>
<path fill="none" stroke="black" d="M1135.83,-479.86C1108.26,-466.24 1063.99,-444.35 1030.97,-428.04"/>
<polygon fill="black" stroke="black" points="1032.5,-424.89 1021.98,-423.59 1029.4,-431.16 1032.5,-424.89"/>
<text text-anchor="middle" x="1102" y="-446.35" font-family="Arial" font-size="14.00">void</text>
</g>
<!-- bool -->
<g id="node6" class="node">
<title>bool</title>
<polygon fill="none" stroke="black" points="1419,-424.55 1274,-424.55 1274,-386.55 1419,-386.55 1419,-424.55"/>
<text text-anchor="middle" x="1346.5" y="-409.35" font-family="Arial" font-size="14.00">Get byte from buffer</text>
<text text-anchor="middle" x="1346.5" y="-394.35" font-family="Arial" font-size="14.00">based on endianness</text>
</g>
<!-- switch_ty_tag&#45;&gt;bool -->
<g id="edge3" class="edge">
<title>switch_ty_tag&#45;&gt;bool</title>
<path fill="none" stroke="black" d="M1188.4,-480.04C1217.19,-466.66 1263.46,-445.15 1298.52,-428.85"/>
<polygon fill="black" stroke="black" points="1300.04,-432.01 1307.63,-424.62 1297.09,-425.66 1300.04,-432.01"/>
<text text-anchor="middle" x="1277.5" y="-446.35" font-family="Arial" font-size="14.00">bool</text>
</g>
<!-- int -->
<g id="node7" class="node">
<title>int</title>
<polygon fill="none" stroke="black" points="798.5,-423.55 689.24,-405.55 798.5,-387.55 907.76,-405.55 798.5,-423.55"/>
<text text-anchor="middle" x="798.5" y="-401.85" font-family="Arial" font-size="14.00">Check bits &lt;= 64</text>
</g>
<!-- switch_ty_tag&#45;&gt;int -->
<g id="edge4" class="edge">
<title>switch_ty_tag&#45;&gt;int</title>
<path fill="none" stroke="black" d="M1119.5,-482.6C1052.93,-466.83 923.3,-436.12 850.8,-418.94"/>
<polygon fill="black" stroke="black" points="851.5,-415.51 840.96,-416.61 849.88,-422.32 851.5,-415.51"/>
<text text-anchor="middle" x="1020" y="-446.35" font-family="Arial" font-size="14.00">int</text>
</g>
<!-- enum -->
<g id="node8" class="node">
<title>enum</title>
<polygon fill="none" stroke="black" points="671,-424.55 538,-424.55 538,-386.55 671,-386.55 671,-424.55"/>
<text text-anchor="middle" x="604.5" y="-409.35" font-family="Arial" font-size="14.00">Read underlying int</text>
<text text-anchor="middle" x="604.5" y="-394.35" font-family="Arial" font-size="14.00">via recursive call</text>
</g>
<!-- switch_ty_tag&#45;&gt;enum -->
<g id="edge5" class="edge">
<title>switch_ty_tag&#45;&gt;enum</title>
<path fill="none" stroke="black" d="M1100.84,-485.79C1011.21,-475.4 838,-453.8 680.99,-424.55"/>
<polygon fill="black" stroke="black" points="681.63,-421.11 671.15,-422.7 680.34,-427.99 681.63,-421.11"/>
<text text-anchor="middle" x="895" y="-446.35" font-family="Arial" font-size="14.00">enum</text>
</g>
<!-- float -->
<g id="node9" class="node">
<title>float</title>
<polygon fill="none" stroke="black" points="1563.5,-424.55 1437.5,-424.55 1437.5,-386.55 1563.5,-386.55 1563.5,-424.55"/>
<text text-anchor="middle" x="1500.5" y="-409.35" font-family="Arial" font-size="14.00">Read packed float</text>
<text text-anchor="middle" x="1500.5" y="-394.35" font-family="Arial" font-size="14.00">based on bit&#45;width</text>
</g>
<!-- switch_ty_tag&#45;&gt;float -->
<g id="edge6" class="edge">
<title>switch_ty_tag&#45;&gt;float</title>
<path fill="none" stroke="black" d="M1201.72,-482.35C1257.22,-468.27 1358.24,-442.64 1427.32,-425.11"/>
<polygon fill="black" stroke="black" points="1428.44,-428.44 1437.27,-422.59 1426.72,-421.66 1428.44,-428.44"/>
<text text-anchor="middle" x="1363.5" y="-446.35" font-family="Arial" font-size="14.00">float</text>
</g>
<!-- vector -->
<g id="node10" class="node">
<title>vector</title>
<polygon fill="none" stroke="black" points="374.5,-424.55 200.5,-424.55 200.5,-386.55 374.5,-386.55 374.5,-424.55"/>
<text text-anchor="middle" x="287.5" y="-409.35" font-family="Arial" font-size="14.00">Iterate elements</text>
<text text-anchor="middle" x="287.5" y="-394.35" font-family="Arial" font-size="14.00">reverse order if big&#45;endian</text>
</g>
<!-- switch_ty_tag&#45;&gt;vector -->
<g id="edge7" class="edge">
<title>switch_ty_tag&#45;&gt;vector</title>
<path fill="none" stroke="black" d="M1076.48,-489.94C964.56,-485.92 761.82,-476.58 589.5,-457.55 500.49,-447.72 476.47,-440.91 384.62,-424.74"/>
<polygon fill="black" stroke="black" points="385.06,-421.26 374.6,-422.98 383.85,-428.16 385.06,-421.26"/>
<text text-anchor="middle" x="608" y="-446.35" font-family="Arial" font-size="14.00">vector</text>
</g>
<!-- struct -->
<g id="node11" class="node">
<title>struct</title>
<polygon fill="none" stroke="black" points="520,-423.55 393,-423.55 393,-387.55 520,-387.55 520,-423.55"/>
<text text-anchor="middle" x="456.5" y="-401.85" font-family="Arial" font-size="14.00">Iterate struct fields</text>
</g>
<!-- switch_ty_tag&#45;&gt;struct -->
<g id="edge8" class="edge">
<title>switch_ty_tag&#45;&gt;struct</title>
<path fill="none" stroke="black" d="M1083.84,-488.74C965.71,-481.96 733.91,-464.72 530.02,-424.76"/>
<polygon fill="black" stroke="black" points="530.52,-421.29 520.03,-422.78 529.16,-428.16 530.52,-421.29"/>
<text text-anchor="middle" x="752.5" y="-446.35" font-family="Arial" font-size="14.00">struct</text>
</g>
<!-- union -->
<g id="node12" class="node">
<title>union</title>
<polygon fill="none" stroke="black" points="1709.5,-424.55 1581.5,-424.55 1581.5,-386.55 1709.5,-386.55 1709.5,-424.55"/>
<text text-anchor="middle" x="1645.5" y="-409.35" font-family="Arial" font-size="14.00">Read backing type</text>
<text text-anchor="middle" x="1645.5" y="-394.35" font-family="Arial" font-size="14.00">via recursive call</text>
</g>
<!-- switch_ty_tag&#45;&gt;union -->
<g id="edge9" class="edge">
<title>switch_ty_tag&#45;&gt;union</title>
<path fill="none" stroke="black" d="M1216.95,-484.89C1294.23,-473.87 1438.85,-452.05 1571.53,-424.68"/>
<polygon fill="black" stroke="black" points="1572.39,-428.07 1581.47,-422.61 1570.96,-421.22 1572.39,-428.07"/>
<text text-anchor="middle" x="1488.5" y="-446.35" font-family="Arial" font-size="14.00">union</text>
</g>
<!-- pointer -->
<g id="node13" class="node">
<title>pointer</title>
<polygon fill="none" stroke="black" points="1843.5,-424.55 1727.5,-424.55 1727.5,-386.55 1843.5,-386.55 1843.5,-424.55"/>
<text text-anchor="middle" x="1785.5" y="-409.35" font-family="Arial" font-size="14.00">Read usize</text>
<text text-anchor="middle" x="1785.5" y="-394.35" font-family="Arial" font-size="14.00">via recursive call</text>
</g>
<!-- switch_ty_tag&#45;&gt;pointer -->
<g id="edge10" class="edge">
<title>switch_ty_tag&#45;&gt;pointer</title>
<path fill="none" stroke="black" d="M1233.83,-487.8C1338.79,-480.02 1539.33,-461.75 1717.67,-424.61"/>
<polygon fill="black" stroke="black" points="1718.42,-428.02 1727.49,-422.54 1716.98,-421.17 1718.42,-428.02"/>
<text text-anchor="middle" x="1633.5" y="-446.35" font-family="Arial" font-size="14.00">pointer</text>
</g>
<!-- optional -->
<g id="node14" class="node">
<title>optional</title>
<polygon fill="none" stroke="black" points="1977.5,-424.55 1861.5,-424.55 1861.5,-386.55 1977.5,-386.55 1977.5,-424.55"/>
<text text-anchor="middle" x="1919.5" y="-409.35" font-family="Arial" font-size="14.00">Read child type</text>
<text text-anchor="middle" x="1919.5" y="-394.35" font-family="Arial" font-size="14.00">via recursive call</text>
</g>
<!-- switch_ty_tag&#45;&gt;optional -->
<g id="edge11" class="edge">
<title>switch_ty_tag&#45;&gt;optional</title>
<path fill="none" stroke="black" d="M1242.65,-489.28C1341.24,-484.75 1512.5,-475.06 1658.5,-457.55 1742.2,-447.51 1765.41,-443.54 1851.52,-424.68"/>
<polygon fill="black" stroke="black" points="1852.46,-428.06 1861.48,-422.49 1850.96,-421.22 1852.46,-428.06"/>
<text text-anchor="middle" x="1786.5" y="-446.35" font-family="Arial" font-size="14.00">optional</text>
</g>
<!-- todo -->
<g id="node15" class="node">
<title>todo</title>
<polygon fill="none" stroke="black" points="1255.54,-398.09 1255.54,-413 1200.45,-423.55 1122.55,-423.55 1067.46,-413 1067.46,-398.09 1122.55,-387.55 1200.45,-387.55 1255.54,-398.09"/>
<text text-anchor="middle" x="1161.5" y="-401.85" font-family="Arial" font-size="14.00">@panic(&quot;TODO...&quot;)</text>
</g>
<!-- switch_ty_tag&#45;&gt;todo -->
<g id="edge12" class="edge">
<title>switch_ty_tag&#45;&gt;todo</title>
<path fill="none" stroke="black" d="M1161.5,-475.15C1161.5,-463.29 1161.5,-447.37 1161.5,-433.84"/>
<polygon fill="black" stroke="black" points="1165,-433.63 1161.5,-423.63 1158,-433.63 1165,-433.63"/>
<text text-anchor="middle" x="1174" y="-446.35" font-family="Arial" font-size="14.00">else</text>
</g>
<!-- void&#45;&gt;end -->
<g id="edge13" class="edge">
<title>void&#45;&gt;end</title>
<path fill="none" stroke="black" d="M1029.58,-387.47C1070.49,-369.5 1126.5,-340.68 1126.5,-317.55 1126.5,-317.55 1126.5,-317.55 1126.5,-90 1126.5,-73.3 1134.77,-56.73 1143.6,-43.8"/>
<polygon fill="black" stroke="black" points="1146.61,-45.61 1149.7,-35.48 1140.96,-41.47 1146.61,-45.61"/>
</g>
<!-- check_bit -->
<g id="node16" class="node">
<title>check_bit</title>
<polygon fill="none" stroke="black" points="1346.5,-221.27 1192.16,-203.27 1346.5,-185.27 1500.84,-203.27 1346.5,-221.27"/>
<text text-anchor="middle" x="1346.5" y="-199.57" font-family="Arial" font-size="14.00">Check bit (bit_offset % 8)</text>
</g>
<!-- bool&#45;&gt;check_bit -->
<g id="edge14" class="edge">
<title>bool&#45;&gt;check_bit</title>
<path fill="none" stroke="black" d="M1346.5,-386.42C1346.5,-351.16 1346.5,-273.13 1346.5,-231.57"/>
<polygon fill="black" stroke="black" points="1350,-231.36 1346.5,-221.36 1343,-231.36 1350,-231.36"/>
</g>
<!-- fast_path -->
<g id="node19" class="node">
<title>fast_path</title>
<polygon fill="none" stroke="black" points="1080,-335.55 935,-335.55 935,-297.55 1080,-297.55 1080,-335.55"/>
<text text-anchor="middle" x="1007.5" y="-320.35" font-family="Arial" font-size="14.00">Read u64/i64</text>
<text text-anchor="middle" x="1007.5" y="-305.35" font-family="Arial" font-size="14.00">via readVarPackedInt</text>
</g>
<!-- int&#45;&gt;fast_path -->
<g id="edge19" class="edge">
<title>int&#45;&gt;fast_path</title>
<path fill="none" stroke="black" d="M828,-392.27C860.81,-378.61 914.48,-356.27 954.6,-339.57"/>
<polygon fill="black" stroke="black" points="956.08,-342.74 963.97,-335.67 953.39,-336.28 956.08,-342.74"/>
<text text-anchor="middle" x="927" y="-357.35" font-family="Arial" font-size="14.00">Yes</text>
</g>
<!-- slow_path -->
<g id="node20" class="node">
<title>slow_path</title>
<polygon fill="none" stroke="black" points="897.5,-335.55 773.5,-335.55 773.5,-297.55 897.5,-297.55 897.5,-335.55"/>
<text text-anchor="middle" x="835.5" y="-320.35" font-family="Arial" font-size="14.00">Alloc limbs_buffer</text>
<text text-anchor="middle" x="835.5" y="-305.35" font-family="Arial" font-size="14.00">Construct BigInt</text>
</g>
<!-- int&#45;&gt;slow_path -->
<g id="edge20" class="edge">
<title>int&#45;&gt;slow_path</title>
<path fill="none" stroke="black" d="M805.29,-388.59C810.44,-376.47 817.65,-359.52 823.74,-345.2"/>
<polygon fill="black" stroke="black" points="827.04,-346.39 827.73,-335.81 820.6,-343.65 827.04,-346.39"/>
<text text-anchor="middle" x="827.5" y="-357.35" font-family="Arial" font-size="14.00">No</text>
</g>
<!-- enum&#45;&gt;error -->
<g id="edge48" class="edge">
<title>enum&#45;&gt;error</title>
<path fill="none" stroke="black" d="M578.06,-386.28C562.35,-373.89 543.58,-356.07 533.5,-335.55 521.59,-311.3 517.46,-281.58 516.48,-256.55"/>
<polygon fill="black" stroke="black" points="519.97,-256.42 516.24,-246.5 512.98,-256.58 519.97,-256.42"/>
<text text-anchor="middle" x="579" y="-312.85" font-family="Arial" font-size="14.00">Possible errors</text>
</g>
<!-- get_coerced -->
<g id="node24" class="node">
<title>get_coerced</title>
<polygon fill="none" stroke="black" points="755.5,-334.55 633.5,-334.55 633.5,-298.55 755.5,-298.55 755.5,-334.55"/>
<text text-anchor="middle" x="694.5" y="-312.85" font-family="Arial" font-size="14.00">pt.getCoerced(...)</text>
</g>
<!-- enum&#45;&gt;get_coerced -->
<g id="edge26" class="edge">
<title>enum&#45;&gt;get_coerced</title>
<path fill="none" stroke="black" d="M623.15,-386.52C636.56,-373.55 654.81,-355.92 669.49,-341.73"/>
<polygon fill="black" stroke="black" points="672.04,-344.13 676.79,-334.66 667.17,-339.1 672.04,-344.13"/>
</g>
<!-- intern_float -->
<g id="node25" class="node">
<title>intern_float</title>
<polygon fill="none" stroke="black" points="1534.5,-334.55 1448.5,-334.55 1448.5,-298.55 1534.5,-298.55 1534.5,-334.55"/>
<text text-anchor="middle" x="1491.5" y="-312.85" font-family="Arial" font-size="14.00">pt.intern(...)</text>
</g>
<!-- float&#45;&gt;intern_float -->
<g id="edge28" class="edge">
<title>float&#45;&gt;intern_float</title>
<path fill="none" stroke="black" d="M1498.64,-386.52C1497.39,-374.5 1495.73,-358.48 1494.33,-344.91"/>
<polygon fill="black" stroke="black" points="1497.78,-344.25 1493.27,-334.66 1490.82,-344.97 1497.78,-344.25"/>
</g>
<!-- recursive_vector_elements -->
<g id="node26" class="node">
<title>recursive_vector_elements</title>
<polygon fill="none" stroke="black" points="235,-335.55 0,-335.55 0,-297.55 235,-297.55 235,-335.55"/>
<text text-anchor="middle" x="117.5" y="-320.35" font-family="Arial" font-size="14.00">Recursive readFromPackedMemory</text>
<text text-anchor="middle" x="117.5" y="-305.35" font-family="Arial" font-size="14.00">for each element</text>
</g>
<!-- vector&#45;&gt;recursive_vector_elements -->
<g id="edge30" class="edge">
<title>vector&#45;&gt;recursive_vector_elements</title>
<path fill="none" stroke="black" d="M252.28,-386.52C226.06,-373.11 190.1,-354.7 161.91,-340.28"/>
<polygon fill="black" stroke="black" points="163.18,-336.99 152.68,-335.55 159.99,-343.22 163.18,-336.99"/>
</g>
<!-- recursive_struct_fields -->
<g id="node28" class="node">
<title>recursive_struct_fields</title>
<polygon fill="none" stroke="black" points="488,-335.55 253,-335.55 253,-297.55 488,-297.55 488,-335.55"/>
<text text-anchor="middle" x="370.5" y="-320.35" font-family="Arial" font-size="14.00">Recursive readFromPackedMemory</text>
<text text-anchor="middle" x="370.5" y="-305.35" font-family="Arial" font-size="14.00">for each field</text>
</g>
<!-- struct&#45;&gt;recursive_struct_fields -->
<g id="edge33" class="edge">
<title>struct&#45;&gt;recursive_struct_fields</title>
<path fill="none" stroke="black" d="M439.51,-387.36C426.92,-374.62 409.57,-357.07 395.41,-342.75"/>
<polygon fill="black" stroke="black" points="397.86,-340.25 388.34,-335.6 392.88,-345.17 397.86,-340.25"/>
</g>
<!-- intern_union -->
<g id="node29" class="node">
<title>intern_union</title>
<polygon fill="none" stroke="black" points="1674,-334.55 1553,-334.55 1553,-298.55 1674,-298.55 1674,-334.55"/>
<text text-anchor="middle" x="1613.5" y="-312.85" font-family="Arial" font-size="14.00">pt.internUnion(...)</text>
</g>
<!-- union&#45;&gt;intern_union -->
<g id="edge35" class="edge">
<title>union&#45;&gt;intern_union</title>
<path fill="none" stroke="black" d="M1638.87,-386.52C1634.36,-374.27 1628.32,-357.85 1623.27,-344.1"/>
<polygon fill="black" stroke="black" points="1626.53,-342.84 1619.8,-334.66 1619.96,-345.26 1626.53,-342.84"/>
</g>
<!-- intern_ptr -->
<g id="node30" class="node">
<title>intern_ptr</title>
<polygon fill="none" stroke="black" points="1786.5,-334.55 1692.5,-334.55 1692.5,-298.55 1786.5,-298.55 1786.5,-334.55"/>
<text text-anchor="middle" x="1739.5" y="-312.85" font-family="Arial" font-size="14.00">pt.intern(.ptr)</text>
</g>
<!-- pointer&#45;&gt;intern_ptr -->
<g id="edge37" class="edge">
<title>pointer&#45;&gt;intern_ptr</title>
<path fill="none" stroke="black" d="M1775.97,-386.52C1769.43,-374.15 1760.64,-357.53 1753.33,-343.7"/>
<polygon fill="black" stroke="black" points="1756.32,-341.87 1748.55,-334.66 1750.13,-345.14 1756.32,-341.87"/>
</g>
<!-- check_zero -->
<g id="node31" class="node">
<title>check_zero</title>
<polygon fill="none" stroke="black" points="1935.5,-334.55 1804.12,-316.55 1935.5,-298.55 2066.88,-316.55 1935.5,-334.55"/>
<text text-anchor="middle" x="1935.5" y="-312.85" font-family="Arial" font-size="14.00">Check child_val == 0</text>
</g>
<!-- optional&#45;&gt;check_zero -->
<g id="edge39" class="edge">
<title>optional&#45;&gt;check_zero</title>
<path fill="none" stroke="black" d="M1922.82,-386.52C1925.06,-374.31 1928.07,-357.95 1930.59,-344.24"/>
<polygon fill="black" stroke="black" points="1934.04,-344.84 1932.41,-334.37 1927.16,-343.57 1934.04,-344.84"/>
</g>
<!-- todo&#45;&gt;end -->
<g id="edge49" class="edge">
<title>todo&#45;&gt;end</title>
<path fill="none" stroke="black" d="M1162.45,-387.22C1163.33,-369.67 1164.5,-341.73 1164.5,-317.55 1164.5,-317.55 1164.5,-317.55 1164.5,-90 1164.5,-75.65 1164.5,-59.67 1164.5,-46.51"/>
<polygon fill="black" stroke="black" points="1168,-46.22 1164.5,-36.22 1161,-46.22 1168,-46.22"/>
</g>
<!-- return_false -->
<g id="node17" class="node">
<title>return_false</title>
<polygon fill="none" stroke="black" points="1320,-109 1193,-109 1193,-73 1320,-73 1320,-109"/>
<text text-anchor="middle" x="1256.5" y="-87.3" font-family="Arial" font-size="14.00">Return Value.false</text>
</g>
<!-- check_bit&#45;&gt;return_false -->
<g id="edge15" class="edge">
<title>check_bit&#45;&gt;return_false</title>
<path fill="none" stroke="black" d="M1333.61,-186.47C1318.84,-168.39 1294.47,-138.52 1277.07,-117.21"/>
<polygon fill="black" stroke="black" points="1279.59,-114.76 1270.56,-109.22 1274.17,-119.18 1279.59,-114.76"/>
<text text-anchor="middle" x="1299.5" y="-130.8" font-family="Arial" font-size="14.00">0</text>
</g>
<!-- return_true -->
<g id="node18" class="node">
<title>return_true</title>
<polygon fill="none" stroke="black" points="1460.5,-109 1338.5,-109 1338.5,-73 1460.5,-73 1460.5,-109"/>
<text text-anchor="middle" x="1399.5" y="-87.3" font-family="Arial" font-size="14.00">Return Value.true</text>
</g>
<!-- check_bit&#45;&gt;return_true -->
<g id="edge16" class="edge">
<title>check_bit&#45;&gt;return_true</title>
<path fill="none" stroke="black" d="M1354.32,-186C1362.91,-168.13 1376.83,-139.17 1386.95,-118.12"/>
<polygon fill="black" stroke="black" points="1390.12,-119.59 1391.3,-109.06 1383.81,-116.56 1390.12,-119.59"/>
<text text-anchor="middle" x="1385.5" y="-130.8" font-family="Arial" font-size="14.00">1</text>
</g>
<!-- return_false&#45;&gt;end -->
<g id="edge17" class="edge">
<title>return_false&#45;&gt;end</title>
<path fill="none" stroke="black" d="M1234.23,-72.81C1222.01,-63.39 1206.73,-51.59 1193.58,-41.44"/>
<polygon fill="black" stroke="black" points="1195.36,-38.39 1185.3,-35.06 1191.08,-43.94 1195.36,-38.39"/>
</g>
<!-- return_true&#45;&gt;end -->
<g id="edge18" class="edge">
<title>return_true&#45;&gt;end</title>
<path fill="none" stroke="black" d="M1343.21,-72.99C1304.45,-61.28 1253.35,-45.84 1215.72,-34.48"/>
<polygon fill="black" stroke="black" points="1216.56,-31.07 1205.98,-31.53 1214.54,-37.77 1216.56,-31.07"/>
</g>
<!-- pt_int_value -->
<g id="node21" class="node">
<title>pt_int_value</title>
<polygon fill="none" stroke="black" points="1098,-221.27 981,-221.27 981,-185.27 1098,-185.27 1098,-221.27"/>
<text text-anchor="middle" x="1039.5" y="-199.57" font-family="Arial" font-size="14.00">pt.intValue(ty, ...)</text>
</g>
<!-- fast_path&#45;&gt;pt_int_value -->
<g id="edge21" class="edge">
<title>fast_path&#45;&gt;pt_int_value</title>
<path fill="none" stroke="black" d="M1012.78,-297.17C1017.95,-279.22 1025.87,-251.68 1031.74,-231.25"/>
<polygon fill="black" stroke="black" points="1035.12,-232.15 1034.52,-221.58 1028.4,-230.22 1035.12,-232.15"/>
</g>
<!-- slow_path&#45;&gt;error -->
<g id="edge45" class="edge">
<title>slow_path&#45;&gt;error</title>
<path fill="none" stroke="black" d="M784.22,-297.55C738.33,-281.44 669.88,-257.41 613.95,-237.78"/>
<polygon fill="black" stroke="black" points="614.97,-234.43 604.37,-234.42 612.65,-241.03 614.97,-234.43"/>
<text text-anchor="middle" x="758.5" y="-268.35" font-family="Arial" font-size="14.00">Alloc failure</text>
</g>
<!-- bigint_init -->
<g id="node22" class="node">
<title>bigint_init</title>
<polygon fill="none" stroke="black" points="962.5,-221.27 708.5,-221.27 708.5,-185.27 962.5,-185.27 962.5,-221.27"/>
<text text-anchor="middle" x="835.5" y="-199.57" font-family="Arial" font-size="14.00">bigint.readPackedTwosComplement(...)</text>
</g>
<!-- slow_path&#45;&gt;bigint_init -->
<g id="edge23" class="edge">
<title>slow_path&#45;&gt;bigint_init</title>
<path fill="none" stroke="black" d="M835.5,-297.17C835.5,-279.38 835.5,-252.19 835.5,-231.81"/>
<polygon fill="black" stroke="black" points="839,-231.58 835.5,-221.58 832,-231.58 839,-231.58"/>
</g>
<!-- pt_int_value&#45;&gt;end -->
<g id="edge22" class="edge">
<title>pt_int_value&#45;&gt;end</title>
<path fill="none" stroke="black" d="M1044.7,-185.05C1054.28,-155.55 1077.02,-94.63 1112.5,-54 1117.02,-48.82 1122.48,-44.07 1128.13,-39.85"/>
<polygon fill="black" stroke="black" points="1130.25,-42.63 1136.47,-34.05 1126.26,-36.89 1130.25,-42.63"/>
</g>
<!-- pt_int_value_big -->
<g id="node23" class="node">
<title>pt_int_value_big</title>
<polygon fill="none" stroke="black" points="1000,-109 875,-109 875,-73 1000,-73 1000,-109"/>
<text text-anchor="middle" x="937.5" y="-87.3" font-family="Arial" font-size="14.00">pt.intValue_big(...)</text>
</g>
<!-- bigint_init&#45;&gt;pt_int_value_big -->
<g id="edge24" class="edge">
<title>bigint_init&#45;&gt;pt_int_value_big</title>
<path fill="none" stroke="black" d="M851.44,-185.04C868.43,-166.67 895.48,-137.42 914.72,-116.63"/>
<polygon fill="black" stroke="black" points="917.45,-118.83 921.67,-109.11 912.31,-114.07 917.45,-118.83"/>
</g>
<!-- pt_int_value_big&#45;&gt;end -->
<g id="edge25" class="edge">
<title>pt_int_value_big&#45;&gt;end</title>
<path fill="none" stroke="black" d="M991.87,-72.99C1029.04,-61.37 1077.94,-46.07 1114.21,-34.73"/>
<polygon fill="black" stroke="black" points="1115.58,-37.97 1124.08,-31.64 1113.49,-31.29 1115.58,-37.97"/>
</g>
<!-- get_coerced&#45;&gt;end -->
<g id="edge27" class="edge">
<title>get_coerced&#45;&gt;end</title>
<path fill="none" stroke="black" d="M689.88,-298.53C682.66,-268.09 672.17,-203.46 699.5,-160 744.05,-89.15 787.32,-100.1 866.5,-73 942.96,-46.83 1035.02,-32.62 1096.39,-25.44"/>
<polygon fill="black" stroke="black" points="1096.81,-28.92 1106.35,-24.31 1096.02,-21.96 1096.81,-28.92"/>
</g>
<!-- intern_float&#45;&gt;end -->
<g id="edge29" class="edge">
<title>intern_float&#45;&gt;end</title>
<path fill="none" stroke="black" d="M1497.25,-298.49C1501.59,-284.67 1507.18,-264.6 1509.5,-246.55 1519.57,-168.04 1532.15,-121.38 1469.5,-73 1433.6,-45.28 1312.6,-30.65 1234.22,-23.89"/>
<polygon fill="black" stroke="black" points="1234.19,-20.37 1223.94,-23.02 1233.61,-27.35 1234.19,-20.37"/>
</g>
<!-- recursive_vector_elements&#45;&gt;error -->
<g id="edge46" class="edge">
<title>recursive_vector_elements&#45;&gt;error</title>
<path fill="none" stroke="black" d="M186.9,-297.51C238.91,-283.87 311.79,-264.48 375.5,-246.55 389.37,-242.64 403.97,-238.44 418.32,-234.25"/>
<polygon fill="black" stroke="black" points="419.59,-237.52 428.21,-231.36 417.63,-230.81 419.59,-237.52"/>
<text text-anchor="middle" x="351" y="-268.35" font-family="Arial" font-size="14.00">Possible errors</text>
</g>
<!-- intern_aggregate -->
<g id="node27" class="node">
<title>intern_aggregate</title>
<polygon fill="none" stroke="black" points="367,-221.27 228,-221.27 228,-185.27 367,-185.27 367,-221.27"/>
<text text-anchor="middle" x="297.5" y="-199.57" font-family="Arial" font-size="14.00">pt.intern(.aggregate)</text>
</g>
<!-- recursive_vector_elements&#45;&gt;intern_aggregate -->
<g id="edge31" class="edge">
<title>recursive_vector_elements&#45;&gt;intern_aggregate</title>
<path fill="none" stroke="black" d="M146.82,-297.42C178.1,-278.09 227.67,-247.44 261.34,-226.63"/>
<polygon fill="black" stroke="black" points="263.3,-229.53 269.96,-221.3 259.62,-223.58 263.3,-229.53"/>
</g>
<!-- intern_aggregate&#45;&gt;end -->
<g id="edge32" class="edge">
<title>intern_aggregate&#45;&gt;end</title>
<path fill="none" stroke="black" d="M327.1,-185.23C341.51,-177.19 359.21,-167.7 375.5,-160 468.33,-116.14 492.05,-105.33 589.5,-73 621.32,-62.44 629.41,-59.41 662.5,-54 814.26,-29.18 994.66,-21.94 1092.56,-19.85"/>
<polygon fill="black" stroke="black" points="1092.71,-23.34 1102.64,-19.64 1092.57,-16.35 1092.71,-23.34"/>
</g>
<!-- recursive_struct_fields&#45;&gt;error -->
<g id="edge47" class="edge">
<title>recursive_struct_fields&#45;&gt;error</title>
<path fill="none" stroke="black" d="M441.86,-297.49C452.8,-292.77 463.45,-286.88 472.5,-279.55 480.8,-272.83 487.99,-264.19 494.06,-255.17"/>
<polygon fill="black" stroke="black" points="497.18,-256.78 499.53,-246.45 491.25,-253.06 497.18,-256.78"/>
</g>
<!-- recursive_struct_fields&#45;&gt;intern_aggregate -->
<g id="edge34" class="edge">
<title>recursive_struct_fields&#45;&gt;intern_aggregate</title>
<path fill="none" stroke="black" d="M358.45,-297.17C346.45,-278.89 327.94,-250.67 314.47,-230.13"/>
<polygon fill="black" stroke="black" points="317.26,-228.02 308.85,-221.58 311.41,-231.86 317.26,-228.02"/>
</g>
<!-- intern_union&#45;&gt;end -->
<g id="edge36" class="edge">
<title>intern_union&#45;&gt;end</title>
<path fill="none" stroke="black" d="M1610.51,-298.51C1601.84,-254.3 1572.53,-135.08 1499.5,-73 1460.7,-40.02 1321.49,-26.95 1235.21,-21.95"/>
<polygon fill="black" stroke="black" points="1235.4,-18.45 1225.22,-21.39 1235.01,-25.44 1235.4,-18.45"/>
</g>
<!-- intern_ptr&#45;&gt;end -->
<g id="edge38" class="edge">
<title>intern_ptr&#45;&gt;end</title>
<path fill="none" stroke="black" d="M1729.25,-298.48C1702.15,-254.71 1624.11,-137.42 1529.5,-73 1482.87,-41.25 1327.6,-27.63 1235.27,-22.22"/>
<polygon fill="black" stroke="black" points="1235.35,-18.72 1225.16,-21.64 1234.95,-25.7 1235.35,-18.72"/>
</g>
<!-- return_none -->
<g id="node32" class="node">
<title>return_none</title>
<polygon fill="none" stroke="black" points="1861,-221.27 1766,-221.27 1766,-185.27 1861,-185.27 1861,-221.27"/>
<text text-anchor="middle" x="1813.5" y="-199.57" font-family="Arial" font-size="14.00">Return .none</text>
</g>
<!-- check_zero&#45;&gt;return_none -->
<g id="edge40" class="edge">
<title>check_zero&#45;&gt;return_none</title>
<path fill="none" stroke="black" d="M1919.05,-300.54C1898.74,-282.02 1863.95,-250.29 1839.9,-228.35"/>
<polygon fill="black" stroke="black" points="1842.24,-225.75 1832.49,-221.6 1837.52,-230.92 1842.24,-225.75"/>
<text text-anchor="middle" x="1903" y="-268.35" font-family="Arial" font-size="14.00">EQ</text>
</g>
<!-- return_child -->
<g id="node33" class="node">
<title>return_child</title>
<polygon fill="none" stroke="black" points="1992,-221.27 1879,-221.27 1879,-185.27 1992,-185.27 1992,-221.27"/>
<text text-anchor="middle" x="1935.5" y="-199.57" font-family="Arial" font-size="14.00">Return child_val</text>
</g>
<!-- check_zero&#45;&gt;return_child -->
<g id="edge41" class="edge">
<title>check_zero&#45;&gt;return_child</title>
<path fill="none" stroke="black" d="M1935.5,-298.16C1935.5,-280.36 1935.5,-252.43 1935.5,-231.66"/>
<polygon fill="black" stroke="black" points="1939,-231.54 1935.5,-221.54 1932,-231.54 1939,-231.54"/>
<text text-anchor="middle" x="1945.5" y="-268.35" font-family="Arial" font-size="14.00">GT</text>
</g>
<!-- intern_opt -->
<g id="node34" class="node">
<title>intern_opt</title>
<polygon fill="none" stroke="black" points="1862,-109 1765,-109 1765,-73 1862,-73 1862,-109"/>
<text text-anchor="middle" x="1813.5" y="-87.3" font-family="Arial" font-size="14.00">pt.intern(.opt)</text>
</g>
<!-- return_none&#45;&gt;intern_opt -->
<g id="edge42" class="edge">
<title>return_none&#45;&gt;intern_opt</title>
<path fill="none" stroke="black" d="M1813.5,-185.04C1813.5,-167.4 1813.5,-139.73 1813.5,-119.14"/>
<polygon fill="black" stroke="black" points="1817,-119.11 1813.5,-109.11 1810,-119.11 1817,-119.11"/>
</g>
<!-- return_child&#45;&gt;intern_opt -->
<g id="edge43" class="edge">
<title>return_child&#45;&gt;intern_opt</title>
<path fill="none" stroke="black" d="M1916.44,-185.04C1895.94,-166.51 1863.18,-136.91 1840.14,-116.08"/>
<polygon fill="black" stroke="black" points="1842.19,-113.22 1832.43,-109.11 1837.5,-118.41 1842.19,-113.22"/>
</g>
<!-- intern_opt&#45;&gt;end -->
<g id="edge44" class="edge">
<title>intern_opt&#45;&gt;end</title>
<path fill="none" stroke="black" d="M1766.05,-72.93C1744.49,-65.89 1718.5,-58.36 1694.5,-54 1532.67,-24.58 1339.04,-19.16 1236.5,-18.59"/>
<polygon fill="black" stroke="black" points="1236.28,-15.09 1226.26,-18.54 1236.25,-22.09 1236.28,-15.09"/>
</g>
</g>
</svg>
