<?xml version="1.0" encoding="UTF-8" standalone="no"?>
<!DOCTYPE svg PUBLIC "-//W3C//DTD SVG 1.1//EN"
 "http://www.w3.org/Graphics/SVG/1.1/DTD/svg11.dtd">
<!-- Generated by graphviz version 2.43.0 (0)
 -->
<!-- Title: resolveReferencesInner Pages: 1 -->
<svg width="631pt" height="752pt"
 viewBox="0.00 0.00 631.50 752.00" xmlns="http://www.w3.org/2000/svg" xmlns:xlink="http://www.w3.org/1999/xlink">
<g id="graph0" class="graph" transform="scale(1 1) rotate(0) translate(4 748)">
<title>resolveReferencesInner</title>
<polygon fill="white" stroke="transparent" points="-4,4 -4,-748 627.5,-748 627.5,4 -4,4"/>
<!-- start -->
<g id="node1" class="node">
<title>start</title>
<ellipse fill="none" stroke="black" cx="232" cy="-726" rx="29.5" ry="18"/>
<text text-anchor="middle" x="232" y="-722.3" font-family="Times,serif" font-size="14.00">开始</text>
</g>
<!-- init -->
<g id="node3" class="node">
<title>init</title>
<polygon fill="none" stroke="black" points="464,-671 0,-671 0,-635 464,-635 464,-671"/>
<text text-anchor="middle" x="232" y="-649.3" font-family="Times,serif" font-size="14.00">初始化数据结构：result, checked_types, type_queue, unit_queue</text>
</g>
<!-- start&#45;&gt;init -->
<g id="edge1" class="edge">
<title>start&#45;&gt;init</title>
<path fill="none" stroke="black" d="M232,-707.81C232,-699.79 232,-690.05 232,-681.07"/>
<polygon fill="black" stroke="black" points="235.5,-681.03 232,-671.03 228.5,-681.03 235.5,-681.03"/>
</g>
<!-- end -->
<g id="node2" class="node">
<title>end</title>
<ellipse fill="none" stroke="black" cx="574" cy="-18" rx="29.5" ry="18"/>
<text text-anchor="middle" x="574" y="-14.3" font-family="Times,serif" font-size="14.00">结束</text>
</g>
<!-- process_roots -->
<g id="node4" class="node">
<title>process_roots</title>
<polygon fill="none" stroke="black" points="347,-598 117,-598 117,-545 347,-545 347,-598"/>
<text text-anchor="middle" x="232" y="-582.8" font-family="Times,serif" font-size="14.00">处理分析根模块</text>
<text text-anchor="middle" x="232" y="-567.8" font-family="Times,serif" font-size="14.00">解析路径，获取文件，提取根类型</text>
<text text-anchor="middle" x="232" y="-552.8" font-family="Times,serif" font-size="14.00">加入type_queue</text>
</g>
<!-- init&#45;&gt;process_roots -->
<g id="edge2" class="edge">
<title>init&#45;&gt;process_roots</title>
<path fill="none" stroke="black" d="M232,-634.75C232,-626.99 232,-617.51 232,-608.32"/>
<polygon fill="black" stroke="black" points="235.5,-608.18 232,-598.18 228.5,-608.18 235.5,-608.18"/>
</g>
<!-- while_loop -->
<g id="node5" class="node">
<title>while_loop</title>
<polygon fill="none" stroke="black" points="276,-508 188,-508 188,-472 276,-472 276,-508"/>
<text text-anchor="middle" x="232" y="-486.3" font-family="Times,serif" font-size="14.00">进入主循环</text>
</g>
<!-- process_roots&#45;&gt;while_loop -->
<g id="edge3" class="edge">
<title>process_roots&#45;&gt;while_loop</title>
<path fill="none" stroke="black" d="M232,-544.91C232,-536.48 232,-527.08 232,-518.52"/>
<polygon fill="black" stroke="black" points="235.5,-518.26 232,-508.26 228.5,-518.26 235.5,-518.26"/>
</g>
<!-- check_type_queue -->
<g id="node6" class="node">
<title>check_type_queue</title>
<polygon fill="none" stroke="black" points="232,-435 75.99,-417 232,-399 388.01,-417 232,-435"/>
<text text-anchor="middle" x="232" y="-413.3" font-family="Times,serif" font-size="14.00">type_queue有元素吗？</text>
</g>
<!-- while_loop&#45;&gt;check_type_queue -->
<g id="edge4" class="edge">
<title>while_loop&#45;&gt;check_type_queue</title>
<path fill="none" stroke="black" d="M232,-471.81C232,-463.79 232,-454.05 232,-445.07"/>
<polygon fill="black" stroke="black" points="235.5,-445.03 232,-435.03 228.5,-445.03 235.5,-445.03"/>
</g>
<!-- process_type -->
<g id="node7" class="node">
<title>process_type</title>
<polygon fill="none" stroke="black" points="298.5,-348 89.5,-348 89.5,-265 298.5,-265 298.5,-348"/>
<text text-anchor="middle" x="194" y="-332.8" font-family="Times,serif" font-size="14.00">弹出type_queue元素</text>
<text text-anchor="middle" x="194" y="-317.8" font-family="Times,serif" font-size="14.00">检查类型</text>
<text text-anchor="middle" x="194" y="-302.8" font-family="Times,serif" font-size="14.00">根据类型特性加入unit_queue</text>
<text text-anchor="middle" x="194" y="-287.8" font-family="Times,serif" font-size="14.00">处理联合的标签类型</text>
<text text-anchor="middle" x="194" y="-272.8" font-family="Times,serif" font-size="14.00">队列声明、测试、导出声明等</text>
</g>
<!-- check_type_queue&#45;&gt;process_type -->
<g id="edge5" class="edge">
<title>check_type_queue&#45;&gt;process_type</title>
<path fill="none" stroke="black" d="M210.7,-401.18C204.47,-395.64 198.41,-388.77 195,-381 191.9,-373.93 190.21,-366.1 189.43,-358.26"/>
<polygon fill="black" stroke="black" points="192.91,-357.82 188.9,-348.01 185.92,-358.18 192.91,-357.82"/>
<text text-anchor="middle" x="202.5" y="-369.8" font-family="Times,serif" font-size="14.00">是</text>
</g>
<!-- check_unit_queue -->
<g id="node8" class="node">
<title>check_unit_queue</title>
<polygon fill="none" stroke="black" points="470,-324.5 316.5,-306.5 470,-288.5 623.5,-306.5 470,-324.5"/>
<text text-anchor="middle" x="470" y="-302.8" font-family="Times,serif" font-size="14.00">unit_queue有元素吗？</text>
</g>
<!-- check_type_queue&#45;&gt;check_unit_queue -->
<g id="edge7" class="edge">
<title>check_type_queue&#45;&gt;check_unit_queue</title>
<path fill="none" stroke="black" d="M262.14,-402.26C304.97,-382.73 383.48,-346.94 430.79,-325.38"/>
<polygon fill="black" stroke="black" points="432.45,-328.46 440.1,-321.13 429.55,-322.09 432.45,-328.46"/>
<text text-anchor="middle" x="344.5" y="-369.8" font-family="Times,serif" font-size="14.00">否</text>
</g>
<!-- process_type&#45;&gt;check_type_queue -->
<g id="edge6" class="edge">
<title>process_type&#45;&gt;check_type_queue</title>
<path fill="none" stroke="black" d="M208.21,-348.09C213.1,-362.03 218.43,-377.26 222.81,-389.75"/>
<polygon fill="black" stroke="black" points="219.62,-391.24 226.23,-399.52 226.23,-388.93 219.62,-391.24"/>
<text text-anchor="middle" x="249" y="-369.8" font-family="Times,serif" font-size="14.00">继续循环</text>
</g>
<!-- process_unit -->
<g id="node9" class="node">
<title>process_unit</title>
<polygon fill="none" stroke="black" points="518.5,-214 345.5,-214 345.5,-146 518.5,-146 518.5,-214"/>
<text text-anchor="middle" x="432" y="-198.8" font-family="Times,serif" font-size="14.00">弹出unit_queue元素</text>
<text text-anchor="middle" x="432" y="-183.8" font-family="Times,serif" font-size="14.00">记录到result</text>
<text text-anchor="middle" x="432" y="-168.8" font-family="Times,serif" font-size="14.00">处理配对单元</text>
<text text-anchor="middle" x="432" y="-153.8" font-family="Times,serif" font-size="14.00">处理引用表和类型引用表</text>
</g>
<!-- check_unit_queue&#45;&gt;process_unit -->
<g id="edge8" class="edge">
<title>check_unit_queue&#45;&gt;process_unit</title>
<path fill="none" stroke="black" d="M456.68,-289.8C448.12,-278.65 437.74,-262.89 433,-247 430.84,-239.75 429.73,-231.84 429.27,-224.1"/>
<polygon fill="black" stroke="black" points="432.76,-224 429,-214.1 425.77,-224.19 432.76,-224"/>
<text text-anchor="middle" x="440.5" y="-235.8" font-family="Times,serif" font-size="14.00">是</text>
</g>
<!-- break_loop -->
<g id="node10" class="node">
<title>break_loop</title>
<polygon fill="none" stroke="black" points="611,-198 537,-198 537,-162 611,-162 611,-198"/>
<text text-anchor="middle" x="574" y="-176.3" font-family="Times,serif" font-size="14.00">循环结束</text>
</g>
<!-- check_unit_queue&#45;&gt;break_loop -->
<g id="edge10" class="edge">
<title>check_unit_queue&#45;&gt;break_loop</title>
<path fill="none" stroke="black" d="M482.96,-289.98C500.48,-269.02 531.91,-231.38 552.87,-206.3"/>
<polygon fill="black" stroke="black" points="555.81,-208.23 559.54,-198.31 550.44,-203.75 555.81,-208.23"/>
<text text-anchor="middle" x="539.5" y="-235.8" font-family="Times,serif" font-size="14.00">否</text>
</g>
<!-- process_unit&#45;&gt;check_unit_queue -->
<g id="edge9" class="edge">
<title>process_unit&#45;&gt;check_unit_queue</title>
<path fill="none" stroke="black" d="M442.48,-214.18C444.33,-220.11 446.23,-226.23 448,-232 452.76,-247.53 457.98,-264.94 462.13,-278.91"/>
<polygon fill="black" stroke="black" points="458.88,-280.25 465.08,-288.84 465.59,-278.26 458.88,-280.25"/>
<text text-anchor="middle" x="482" y="-235.8" font-family="Times,serif" font-size="14.00">继续循环</text>
</g>
<!-- return_result -->
<g id="node11" class="node">
<title>return_result</title>
<polygon fill="none" stroke="black" points="617.5,-109 530.5,-109 530.5,-73 617.5,-73 617.5,-109"/>
<text text-anchor="middle" x="574" y="-87.3" font-family="Times,serif" font-size="14.00">返回result</text>
</g>
<!-- break_loop&#45;&gt;return_result -->
<g id="edge11" class="edge">
<title>break_loop&#45;&gt;return_result</title>
<path fill="none" stroke="black" d="M574,-161.81C574,-149.66 574,-133.11 574,-119.18"/>
<polygon fill="black" stroke="black" points="577.5,-119.15 574,-109.15 570.5,-119.15 577.5,-119.15"/>
</g>
<!-- return_result&#45;&gt;end -->
<g id="edge12" class="edge">
<title>return_result&#45;&gt;end</title>
<path fill="none" stroke="black" d="M574,-72.81C574,-64.79 574,-55.05 574,-46.07"/>
<polygon fill="black" stroke="black" points="577.5,-46.03 574,-36.03 570.5,-46.03 577.5,-46.03"/>
</g>
</g>
</svg>
