<?xml version="1.0" encoding="UTF-8" standalone="no"?>
<!DOCTYPE svg PUBLIC "-//W3C//DTD SVG 1.1//EN"
 "http://www.w3.org/Graphics/SVG/1.1/DTD/svg11.dtd">
<!-- Generated by graphviz version 2.43.0 (0)
 -->
<!-- Title: populateTestFunctions Pages: 1 -->
<svg width="684pt" height="1145pt"
 viewBox="0.00 0.00 684.00 1145.00" xmlns="http://www.w3.org/2000/svg" xmlns:xlink="http://www.w3.org/1999/xlink">
<g id="graph0" class="graph" transform="scale(1 1) rotate(0) translate(4 1141)">
<title>populateTestFunctions</title>
<polygon fill="white" stroke="transparent" points="-4,4 -4,-1141 680,-1141 680,4 -4,4"/>
<!-- start -->
<g id="node1" class="node">
<title>start</title>
<path fill="none" stroke="black" d="M131,-1137C131,-1137 101,-1137 101,-1137 95,-1137 89,-1131 89,-1125 89,-1125 89,-1113 89,-1113 89,-1107 95,-1101 101,-1101 101,-1101 131,-1101 131,-1101 137,-1101 143,-1107 143,-1113 143,-1113 143,-1125 143,-1125 143,-1131 137,-1137 131,-1137"/>
<text text-anchor="middle" x="116" y="-1115.3" font-family="Times,serif" font-size="14.00">开始</text>
</g>
<!-- init_vars -->
<g id="node3" class="node">
<title>init_vars</title>
<path fill="none" stroke="black" d="M205,-1064C205,-1064 27,-1064 27,-1064 21,-1064 15,-1058 15,-1052 15,-1052 15,-1038 15,-1038 15,-1032 21,-1026 27,-1026 27,-1026 205,-1026 205,-1026 211,-1026 217,-1032 217,-1038 217,-1038 217,-1052 217,-1052 217,-1058 211,-1064 205,-1064"/>
<text text-anchor="middle" x="116" y="-1048.8" font-family="Times,serif" font-size="14.00">初始化变量</text>
<text text-anchor="middle" x="116" y="-1033.8" font-family="Times,serif" font-size="14.00">(zcu, gpa, ip, builtin_mod)</text>
</g>
<!-- start&#45;&gt;init_vars -->
<g id="edge1" class="edge">
<title>start&#45;&gt;init_vars</title>
<path fill="none" stroke="black" d="M116,-1100.94C116,-1092.99 116,-1083.31 116,-1074.31"/>
<polygon fill="black" stroke="black" points="119.5,-1074.2 116,-1064.2 112.5,-1074.2 119.5,-1074.2"/>
</g>
<!-- end -->
<g id="node2" class="node">
<title>end</title>
<path fill="none" stroke="black" d="M151,-36C151,-36 121,-36 121,-36 115,-36 109,-30 109,-24 109,-24 109,-12 109,-12 109,-6 115,0 121,0 121,0 151,0 151,0 157,0 163,-6 163,-12 163,-12 163,-24 163,-24 163,-30 157,-36 151,-36"/>
<text text-anchor="middle" x="136" y="-14.3" font-family="Times,serif" font-size="14.00">结束</text>
</g>
<!-- import_pkg -->
<g id="node4" class="node">
<title>import_pkg</title>
<path fill="none" stroke="black" d="M187,-989C187,-989 45,-989 45,-989 39,-989 33,-983 33,-977 33,-977 33,-963 33,-963 33,-957 39,-951 45,-951 45,-951 187,-951 187,-951 193,-951 199,-957 199,-963 199,-963 199,-977 199,-977 199,-983 193,-989 187,-989"/>
<text text-anchor="middle" x="116" y="-973.8" font-family="Times,serif" font-size="14.00">导入内置模块</text>
<text text-anchor="middle" x="116" y="-958.8" font-family="Times,serif" font-size="14.00">获取builtin_file_index</text>
</g>
<!-- init_vars&#45;&gt;import_pkg -->
<g id="edge2" class="edge">
<title>init_vars&#45;&gt;import_pkg</title>
<path fill="none" stroke="black" d="M116,-1025.96C116,-1017.88 116,-1008.18 116,-999.18"/>
<polygon fill="black" stroke="black" points="119.5,-999.09 116,-989.09 112.5,-999.09 119.5,-999.09"/>
</g>
<!-- ensure_analyzed -->
<g id="node5" class="node">
<title>ensure_analyzed</title>
<path fill="none" stroke="black" d="M169.5,-914C169.5,-914 62.5,-914 62.5,-914 56.5,-914 50.5,-908 50.5,-902 50.5,-902 50.5,-890 50.5,-890 50.5,-884 56.5,-878 62.5,-878 62.5,-878 169.5,-878 169.5,-878 175.5,-878 181.5,-884 181.5,-890 181.5,-890 181.5,-902 181.5,-902 181.5,-908 175.5,-914 169.5,-914"/>
<text text-anchor="middle" x="116" y="-892.3" font-family="Times,serif" font-size="14.00">确保文件分析完成</text>
</g>
<!-- import_pkg&#45;&gt;ensure_analyzed -->
<g id="edge3" class="edge">
<title>import_pkg&#45;&gt;ensure_analyzed</title>
<path fill="none" stroke="black" d="M116,-950.83C116,-942.89 116,-933.41 116,-924.63"/>
<polygon fill="black" stroke="black" points="119.5,-924.42 116,-914.42 112.5,-924.42 119.5,-924.42"/>
</g>
<!-- handle_analysis_error -->
<g id="node6" class="node">
<title>handle_analysis_error</title>
<path fill="none" stroke="black" d="M156,-771C156,-771 12,-771 12,-771 6,-771 0,-765 0,-759 0,-759 0,-745 0,-745 0,-739 6,-733 12,-733 12,-733 156,-733 156,-733 162,-733 168,-739 168,-745 168,-745 168,-759 168,-759 168,-765 162,-771 156,-771"/>
<text text-anchor="middle" x="84" y="-755.8" font-family="Times,serif" font-size="14.00">处理错误</text>
<text text-anchor="middle" x="84" y="-740.8" font-family="Times,serif" font-size="14.00">OutOfMemory → 返回</text>
</g>
<!-- ensure_analyzed&#45;&gt;handle_analysis_error -->
<g id="edge4" class="edge">
<title>ensure_analyzed&#45;&gt;handle_analysis_error</title>
<path fill="none" stroke="black" d="M112.14,-877.87C106.72,-853.83 96.8,-809.78 90.3,-780.95"/>
<polygon fill="black" stroke="black" points="93.69,-780.07 88.08,-771.08 86.86,-781.61 93.69,-780.07"/>
<text text-anchor="middle" x="122.5" y="-848.8" font-family="Times,serif" font-size="14.00">错误</text>
</g>
<!-- get_root_type -->
<g id="node7" class="node">
<title>get_root_type</title>
<path fill="none" stroke="black" d="M275,-827C275,-827 133,-827 133,-827 127,-827 121,-821 121,-815 121,-815 121,-801 121,-801 121,-795 127,-789 133,-789 133,-789 275,-789 275,-789 281,-789 287,-795 287,-801 287,-801 287,-815 287,-815 287,-821 281,-827 275,-827"/>
<text text-anchor="middle" x="204" y="-811.8" font-family="Times,serif" font-size="14.00">获取builtin_root_type</text>
<text text-anchor="middle" x="204" y="-796.8" font-family="Times,serif" font-size="14.00">和builtin_namespace</text>
</g>
<!-- ensure_analyzed&#45;&gt;get_root_type -->
<g id="edge5" class="edge">
<title>ensure_analyzed&#45;&gt;get_root_type</title>
<path fill="none" stroke="black" d="M133.81,-877.6C146.44,-865.26 163.59,-848.49 177.78,-834.63"/>
<polygon fill="black" stroke="black" points="180.6,-836.76 185.31,-827.27 175.71,-831.75 180.6,-836.76"/>
<text text-anchor="middle" x="180.5" y="-848.8" font-family="Times,serif" font-size="14.00">成功</text>
</g>
<!-- handle_analysis_error&#45;&gt;end -->
<g id="edge6" class="edge">
<title>handle_analysis_error&#45;&gt;end</title>
<path fill="none" stroke="black" d="M80.14,-732.82C76.63,-714.71 72,-686.06 72,-661 72,-661 72,-661 72,-91 72,-71.1 85.82,-54.15 100.62,-41.7"/>
<polygon fill="black" stroke="black" points="103.14,-44.18 108.86,-35.26 98.82,-38.66 103.14,-44.18"/>
</g>
<!-- find_nav_index -->
<g id="node8" class="node">
<title>find_nav_index</title>
<path fill="none" stroke="black" d="M251,-715C251,-715 159,-715 159,-715 153,-715 147,-709 147,-703 147,-703 147,-691 147,-691 147,-685 153,-679 159,-679 159,-679 251,-679 251,-679 257,-679 263,-685 263,-691 263,-691 263,-703 263,-703 263,-709 257,-715 251,-715"/>
<text text-anchor="middle" x="205" y="-693.3" font-family="Times,serif" font-size="14.00">查找nav_index</text>
</g>
<!-- get_root_type&#45;&gt;find_nav_index -->
<g id="edge7" class="edge">
<title>get_root_type&#45;&gt;find_nav_index</title>
<path fill="none" stroke="black" d="M204.17,-788.51C204.33,-771.19 204.57,-745.08 204.75,-725.35"/>
<polygon fill="black" stroke="black" points="208.25,-725.17 204.84,-715.14 201.25,-725.11 208.25,-725.17"/>
</g>
<!-- ensure_nav_update -->
<g id="node9" class="node">
<title>ensure_nav_update</title>
<path fill="none" stroke="black" d="M303.5,-642C303.5,-642 112.5,-642 112.5,-642 106.5,-642 100.5,-636 100.5,-630 100.5,-630 100.5,-618 100.5,-618 100.5,-612 106.5,-606 112.5,-606 112.5,-606 303.5,-606 303.5,-606 309.5,-606 315.5,-612 315.5,-618 315.5,-618 315.5,-630 315.5,-630 315.5,-636 309.5,-642 303.5,-642"/>
<text text-anchor="middle" x="208" y="-620.3" font-family="Times,serif" font-size="14.00">调用ensureNavValUpToDate</text>
</g>
<!-- find_nav_index&#45;&gt;ensure_nav_update -->
<g id="edge8" class="edge">
<title>find_nav_index&#45;&gt;ensure_nav_update</title>
<path fill="none" stroke="black" d="M205.73,-678.81C206.07,-670.79 206.48,-661.05 206.86,-652.07"/>
<polygon fill="black" stroke="black" points="210.36,-652.17 207.28,-642.03 203.36,-651.87 210.36,-652.17"/>
</g>
<!-- handle_nav_error -->
<g id="node10" class="node">
<title>handle_nav_error</title>
<path fill="none" stroke="black" d="M235,-501C235,-501 107,-501 107,-501 101,-501 95,-495 95,-489 95,-489 95,-475 95,-475 95,-469 101,-463 107,-463 107,-463 235,-463 235,-463 241,-463 247,-469 247,-475 247,-475 247,-489 247,-489 247,-495 241,-501 235,-501"/>
<text text-anchor="middle" x="171" y="-485.8" font-family="Times,serif" font-size="14.00">处理错误</text>
<text text-anchor="middle" x="171" y="-470.8" font-family="Times,serif" font-size="14.00">AnalysisFail → 返回</text>
</g>
<!-- ensure_nav_update&#45;&gt;handle_nav_error -->
<g id="edge9" class="edge">
<title>ensure_nav_update&#45;&gt;handle_nav_error</title>
<path fill="none" stroke="black" d="M203.46,-605.83C197.21,-582.16 185.86,-539.22 178.37,-510.9"/>
<polygon fill="black" stroke="black" points="181.75,-509.97 175.81,-501.19 174.98,-511.76 181.75,-509.97"/>
<text text-anchor="middle" x="213.5" y="-576.8" font-family="Times,serif" font-size="14.00">错误</text>
</g>
<!-- get_test_vals -->
<g id="node11" class="node">
<title>get_test_vals</title>
<path fill="none" stroke="black" d="M417.5,-555C417.5,-555 228.5,-555 228.5,-555 222.5,-555 216.5,-549 216.5,-543 216.5,-543 216.5,-531 216.5,-531 216.5,-525 222.5,-519 228.5,-519 228.5,-519 417.5,-519 417.5,-519 423.5,-519 429.5,-525 429.5,-531 429.5,-531 429.5,-543 429.5,-543 429.5,-549 423.5,-555 417.5,-555"/>
<text text-anchor="middle" x="323" y="-533.3" font-family="Times,serif" font-size="14.00">获取test_fns_val和test_fn_ty</text>
</g>
<!-- ensure_nav_update&#45;&gt;get_test_vals -->
<g id="edge10" class="edge">
<title>ensure_nav_update&#45;&gt;get_test_vals</title>
<path fill="none" stroke="black" d="M231.27,-605.8C248.65,-592.95 272.59,-575.26 291.66,-561.17"/>
<polygon fill="black" stroke="black" points="293.8,-563.93 299.76,-555.18 289.64,-558.3 293.8,-563.93"/>
<text text-anchor="middle" x="286.5" y="-576.8" font-family="Times,serif" font-size="14.00">成功</text>
</g>
<!-- handle_nav_error&#45;&gt;end -->
<g id="edge11" class="edge">
<title>handle_nav_error&#45;&gt;end</title>
<path fill="none" stroke="black" d="M148.98,-462.71C131.5,-446.04 110,-419.69 110,-391 110,-391 110,-391 110,-91 110,-75.17 115.63,-58.49 121.65,-45.17"/>
<polygon fill="black" stroke="black" points="124.82,-46.65 126.02,-36.13 118.51,-43.61 124.82,-46.65"/>
</g>
<!-- create_test_fn_vals -->
<g id="node12" class="node">
<title>create_test_fn_vals</title>
<path fill="none" stroke="black" d="M421,-445C421,-445 287,-445 287,-445 281,-445 275,-439 275,-433 275,-433 275,-421 275,-421 275,-415 281,-409 287,-409 287,-409 421,-409 421,-409 427,-409 433,-415 433,-421 433,-421 433,-433 433,-433 433,-439 427,-445 421,-445"/>
<text text-anchor="middle" x="354" y="-423.3" font-family="Times,serif" font-size="14.00">创建test_fn_vals数组</text>
</g>
<!-- get_test_vals&#45;&gt;create_test_fn_vals -->
<g id="edge12" class="edge">
<title>get_test_vals&#45;&gt;create_test_fn_vals</title>
<path fill="none" stroke="black" d="M327.98,-518.65C332.91,-501.49 340.52,-474.97 346.24,-455.04"/>
<polygon fill="black" stroke="black" points="349.64,-455.89 349.03,-445.31 342.91,-453.96 349.64,-455.89"/>
</g>
<!-- loop_start -->
<g id="node13" class="node">
<title>loop_start</title>
<path fill="none" stroke="black" d="M384.08,-370.66C384.08,-370.66 248.06,-355.34 248.06,-355.34 242.1,-354.67 242.1,-353.33 248.06,-352.66 248.06,-352.66 384.08,-337.34 384.08,-337.34 390.04,-336.67 401.96,-336.67 407.92,-337.34 407.92,-337.34 543.94,-352.66 543.94,-352.66 549.9,-353.33 549.9,-354.67 543.94,-355.34 543.94,-355.34 407.92,-370.66 407.92,-370.66 401.96,-371.33 390.04,-371.33 384.08,-370.66"/>
<text text-anchor="middle" x="396" y="-350.3" font-family="Times,serif" font-size="14.00">遍历每个test_functions</text>
</g>
<!-- create_test_fn_vals&#45;&gt;loop_start -->
<g id="edge13" class="edge">
<title>create_test_fn_vals&#45;&gt;loop_start</title>
<path fill="none" stroke="black" d="M364.17,-408.81C369.32,-400.1 375.67,-389.37 381.34,-379.79"/>
<polygon fill="black" stroke="black" points="384.42,-381.44 386.5,-371.06 378.4,-377.88 384.42,-381.44"/>
</g>
<!-- check_analysis_fail -->
<g id="node14" class="node">
<title>check_analysis_fail</title>
<path fill="none" stroke="black" d="M430.13,-283.22C430.13,-283.22 333.55,-268.78 333.55,-268.78 327.61,-267.89 327.61,-266.11 333.55,-265.22 333.55,-265.22 430.13,-250.78 430.13,-250.78 436.07,-249.89 447.93,-249.89 453.87,-250.78 453.87,-250.78 550.45,-265.22 550.45,-265.22 556.39,-266.11 556.39,-267.89 550.45,-268.78 550.45,-268.78 453.87,-283.22 453.87,-283.22 447.93,-284.11 436.07,-284.11 430.13,-283.22"/>
<text text-anchor="middle" x="442" y="-263.3" font-family="Times,serif" font-size="14.00">检查分析是否失败</text>
</g>
<!-- loop_start&#45;&gt;check_analysis_fail -->
<g id="edge14" class="edge">
<title>loop_start&#45;&gt;check_analysis_fail</title>
<path fill="none" stroke="black" d="M405.29,-337.04C408.71,-331.1 412.58,-324.27 416,-318 420.44,-309.85 425.17,-300.87 429.35,-292.8"/>
<polygon fill="black" stroke="black" points="432.49,-294.34 433.96,-283.85 426.27,-291.13 432.49,-294.34"/>
<text text-anchor="middle" x="466" y="-306.8" font-family="Times,serif" font-size="14.00">遍历每个元素</text>
</g>
<!-- create_array -->
<g id="node18" class="node">
<title>create_array</title>
<path fill="none" stroke="black" d="M291.5,-285C291.5,-285 184.5,-285 184.5,-285 178.5,-285 172.5,-279 172.5,-273 172.5,-273 172.5,-261 172.5,-261 172.5,-255 178.5,-249 184.5,-249 184.5,-249 291.5,-249 291.5,-249 297.5,-249 303.5,-255 303.5,-261 303.5,-261 303.5,-273 303.5,-273 303.5,-279 297.5,-285 291.5,-285"/>
<text text-anchor="middle" x="238" y="-263.3" font-family="Times,serif" font-size="14.00">创建数组类型和值</text>
</g>
<!-- loop_start&#45;&gt;create_array -->
<g id="edge20" class="edge">
<title>loop_start&#45;&gt;create_array</title>
<path fill="none" stroke="black" d="M369.55,-338.77C344.74,-325.42 307.27,-305.27 278.66,-289.87"/>
<polygon fill="black" stroke="black" points="280.17,-286.71 269.71,-285.06 276.86,-292.88 280.17,-286.71"/>
<text text-anchor="middle" x="355" y="-306.8" font-family="Times,serif" font-size="14.00">遍历完成</text>
</g>
<!-- check_analysis_fail&#45;&gt;end -->
<g id="edge15" class="edge">
<title>check_analysis_fail&#45;&gt;end</title>
<path fill="none" stroke="black" d="M428.22,-250.99C416.31,-237.63 399,-217.27 386,-198 350.63,-145.57 367.16,-112.79 318,-73 275.91,-38.93 212.87,-26.35 173.11,-21.71"/>
<polygon fill="black" stroke="black" points="173.36,-18.21 163.05,-20.64 172.62,-25.17 173.36,-18.21"/>
<text text-anchor="middle" x="368.5" y="-132.8" font-family="Times,serif" font-size="14.00">是</text>
</g>
<!-- create_name_decl -->
<g id="node15" class="node">
<title>create_name_decl</title>
<path fill="none" stroke="black" d="M555.5,-198C555.5,-198 406.5,-198 406.5,-198 400.5,-198 394.5,-192 394.5,-186 394.5,-186 394.5,-174 394.5,-174 394.5,-168 400.5,-162 406.5,-162 406.5,-162 555.5,-162 555.5,-162 561.5,-162 567.5,-168 567.5,-174 567.5,-174 567.5,-186 567.5,-186 567.5,-192 561.5,-198 555.5,-198"/>
<text text-anchor="middle" x="481" y="-176.3" font-family="Times,serif" font-size="14.00">创建测试名称的匿名声明</text>
</g>
<!-- check_analysis_fail&#45;&gt;create_name_decl -->
<g id="edge16" class="edge">
<title>check_analysis_fail&#45;&gt;create_name_decl</title>
<path fill="none" stroke="black" d="M449.34,-250.01C454.86,-237.98 462.55,-221.22 468.96,-207.23"/>
<polygon fill="black" stroke="black" points="472.17,-208.63 473.16,-198.08 465.81,-205.71 472.17,-208.63"/>
<text text-anchor="middle" x="470.5" y="-219.8" font-family="Times,serif" font-size="14.00">否</text>
</g>
<!-- build_fields -->
<g id="node16" class="node">
<title>build_fields</title>
<path fill="none" stroke="black" d="M551.5,-110C551.5,-110 436.5,-110 436.5,-110 430.5,-110 424.5,-104 424.5,-98 424.5,-98 424.5,-86 424.5,-86 424.5,-80 430.5,-74 436.5,-74 436.5,-74 551.5,-74 551.5,-74 557.5,-74 563.5,-80 563.5,-86 563.5,-86 563.5,-98 563.5,-98 563.5,-104 557.5,-110 551.5,-110"/>
<text text-anchor="middle" x="494" y="-88.3" font-family="Times,serif" font-size="14.00">构建test_fn_fields</text>
</g>
<!-- create_name_decl&#45;&gt;build_fields -->
<g id="edge17" class="edge">
<title>create_name_decl&#45;&gt;build_fields</title>
<path fill="none" stroke="black" d="M483.63,-161.6C485.42,-149.75 487.83,-133.82 489.87,-120.29"/>
<polygon fill="black" stroke="black" points="493.38,-120.49 491.42,-110.08 486.46,-119.45 493.38,-120.49"/>
</g>
<!-- fill_test_val -->
<g id="node17" class="node">
<title>fill_test_val</title>
<path fill="none" stroke="black" d="M625,-36C625,-36 527,-36 527,-36 521,-36 515,-30 515,-24 515,-24 515,-12 515,-12 515,-6 521,0 527,0 527,0 625,0 625,0 631,0 637,-6 637,-12 637,-12 637,-24 637,-24 637,-30 631,-36 625,-36"/>
<text text-anchor="middle" x="576" y="-14.3" font-family="Times,serif" font-size="14.00">填充test_fn_val</text>
</g>
<!-- build_fields&#45;&gt;fill_test_val -->
<g id="edge18" class="edge">
<title>build_fields&#45;&gt;fill_test_val</title>
<path fill="none" stroke="black" d="M513.43,-73.94C523.98,-64.68 537.18,-53.09 548.74,-42.94"/>
<polygon fill="black" stroke="black" points="551.22,-45.42 556.42,-36.19 546.6,-40.16 551.22,-45.42"/>
</g>
<!-- fill_test_val&#45;&gt;loop_start -->
<g id="edge19" class="edge">
<title>fill_test_val&#45;&gt;loop_start</title>
<path fill="none" stroke="black" d="M586.75,-36.03C594.64,-50.19 604,-71.15 604,-91 604,-268 604,-268 604,-268 604,-314.44 559.02,-336.07 510.89,-345.92"/>
<polygon fill="black" stroke="black" points="510.1,-342.51 500.91,-347.79 511.39,-349.39 510.1,-342.51"/>
<text text-anchor="middle" x="640" y="-176.3" font-family="Times,serif" font-size="14.00">继续下一个</text>
</g>
<!-- update_init -->
<g id="node19" class="node">
<title>update_init</title>
<path fill="none" stroke="black" d="M326,-198C326,-198 150,-198 150,-198 144,-198 138,-192 138,-186 138,-186 138,-174 138,-174 138,-168 144,-162 150,-162 150,-162 326,-162 326,-162 332,-162 338,-168 338,-174 338,-174 338,-186 338,-186 338,-192 332,-198 326,-198"/>
<text text-anchor="middle" x="238" y="-176.3" font-family="Times,serif" font-size="14.00">更新test_fns_val的初始化值</text>
</g>
<!-- create_array&#45;&gt;update_init -->
<g id="edge21" class="edge">
<title>create_array&#45;&gt;update_init</title>
<path fill="none" stroke="black" d="M238,-248.8C238,-237.16 238,-221.55 238,-208.24"/>
<polygon fill="black" stroke="black" points="241.5,-208.18 238,-198.18 234.5,-208.18 241.5,-208.18"/>
</g>
<!-- codegen -->
<g id="node20" class="node">
<title>codegen</title>
<path fill="none" stroke="black" d="M297.5,-111C297.5,-111 154.5,-111 154.5,-111 148.5,-111 142.5,-105 142.5,-99 142.5,-99 142.5,-85 142.5,-85 142.5,-79 148.5,-73 154.5,-73 154.5,-73 297.5,-73 297.5,-73 303.5,-73 309.5,-79 309.5,-85 309.5,-85 309.5,-99 309.5,-99 309.5,-105 303.5,-111 297.5,-111"/>
<text text-anchor="middle" x="226" y="-95.8" font-family="Times,serif" font-size="14.00">代码生成阶段</text>
<text text-anchor="middle" x="226" y="-80.8" font-family="Times,serif" font-size="14.00">调用linkerUpdateNav</text>
</g>
<!-- update_init&#45;&gt;codegen -->
<g id="edge22" class="edge">
<title>update_init&#45;&gt;codegen</title>
<path fill="none" stroke="black" d="M235.57,-161.6C233.96,-150.06 231.81,-134.65 229.96,-121.36"/>
<polygon fill="black" stroke="black" points="233.4,-120.69 228.55,-111.27 226.46,-121.66 233.4,-120.69"/>
</g>
<!-- codegen&#45;&gt;end -->
<g id="edge23" class="edge">
<title>codegen&#45;&gt;end</title>
<path fill="none" stroke="black" d="M203.29,-72.83C191.87,-63.69 177.88,-52.5 165.62,-42.7"/>
<polygon fill="black" stroke="black" points="167.46,-39.69 157.46,-36.17 163.09,-45.15 167.46,-39.69"/>
</g>
</g>
</svg>
