<?xml version="1.0" encoding="UTF-8" standalone="no"?>
<!DOCTYPE svg PUBLIC "-//W3C//DTD SVG 1.1//EN"
 "http://www.w3.org/Graphics/SVG/1.1/DTD/svg11.dtd">
<!-- Generated by graphviz version 2.43.0 (0)
 -->
<!-- Title: flowchart Pages: 1 -->
<svg width="2155pt" height="455pt"
 viewBox="0.00 0.00 2155.00 455.00" xmlns="http://www.w3.org/2000/svg" xmlns:xlink="http://www.w3.org/1999/xlink">
<g id="graph0" class="graph" transform="scale(1 1) rotate(0) translate(4 451)">
<title>flowchart</title>
<polygon fill="white" stroke="transparent" points="-4,4 -4,-451 2151,-451 2151,4 -4,4"/>
<g id="clust1" class="cluster">
<title>cluster_windows</title>
<polygon fill="lightgrey" stroke="lightgrey" points="8,-65 8,-301 986,-301 986,-65 8,-65"/>
<text text-anchor="middle" x="497" y="-285.8" font-family="Times,serif" font-size="14.00">Windows 事件处理</text>
</g>
<g id="clust2" class="cluster">
<title>cluster_other_os</title>
<polygon fill="lightgrey" stroke="lightgrey" points="994,-67.5 994,-301 2139,-301 2139,-67.5 994,-67.5"/>
<text text-anchor="middle" x="1566.5" y="-285.8" font-family="Times,serif" font-size="14.00">其他操作系统事件处理</text>
</g>
<!-- start -->
<g id="node1" class="node">
<title>start</title>
<polygon fill="none" stroke="black" points="1166,-447 1004,-447 1004,-411 1166,-411 1166,-447"/>
<text text-anchor="middle" x="1085" y="-426.5" font-family="Courier,monospace" font-size="10.00">handleEventGeneric() 入口</text>
</g>
<!-- os_check -->
<g id="node2" class="node">
<title>os_check</title>
<polygon fill="none" stroke="black" points="1177,-374 993,-374 993,-338 1177,-338 1177,-374"/>
<text text-anchor="middle" x="1085" y="-353.5" font-family="Courier,monospace" font-size="10.00">检查操作系统类型 builtin.os.tag</text>
</g>
<!-- start&#45;&gt;os_check -->
<g id="edge1" class="edge">
<title>start&#45;&gt;os_check</title>
<path fill="none" stroke="black" d="M1085,-410.81C1085,-402.79 1085,-393.05 1085,-384.07"/>
<polygon fill="black" stroke="black" points="1088.5,-384.03 1085,-374.03 1081.5,-384.03 1088.5,-384.03"/>
</g>
<!-- windows_branch -->
<g id="node3" class="node">
<title>windows_branch</title>
<polygon fill="none" stroke="black" points="864,-270 780,-270 780,-234 864,-234 864,-270"/>
<text text-anchor="middle" x="822" y="-249.5" font-family="Courier,monospace" font-size="10.00">Windows 分支</text>
</g>
<!-- os_check&#45;&gt;windows_branch -->
<g id="edge2" class="edge">
<title>os_check&#45;&gt;windows_branch</title>
<path fill="none" stroke="black" d="M1040.98,-337.93C994.92,-320.06 922.65,-292.03 873.85,-273.11"/>
<polygon fill="black" stroke="black" points="875.01,-269.8 864.42,-269.45 872.48,-276.33 875.01,-269.8"/>
<text text-anchor="middle" x="1016.5" y="-312" font-family="Courier,monospace" font-size="10.00">.windows</text>
</g>
<!-- other_os_branch -->
<g id="node4" class="node">
<title>other_os_branch</title>
<polygon fill="none" stroke="black" points="1305.5,-270 1210.5,-270 1210.5,-234 1305.5,-234 1305.5,-270"/>
<text text-anchor="middle" x="1258" y="-249.5" font-family="Courier,monospace" font-size="10.00">其他操作系统分支</text>
</g>
<!-- os_check&#45;&gt;other_os_branch -->
<g id="edge3" class="edge">
<title>os_check&#45;&gt;other_os_branch</title>
<path fill="none" stroke="black" d="M1113.96,-337.93C1143.15,-320.72 1188.34,-294.07 1220.31,-275.22"/>
<polygon fill="black" stroke="black" points="1222.11,-278.22 1228.95,-270.13 1218.56,-272.19 1222.11,-278.22"/>
<text text-anchor="middle" x="1171" y="-312" font-family="Courier,monospace" font-size="10.00">其他</text>
</g>
<!-- event_switch_win -->
<g id="node5" class="node">
<title>event_switch_win</title>
<polygon fill="none" stroke="black" points="607.5,-197 512.5,-197 512.5,-161 607.5,-161 607.5,-197"/>
<text text-anchor="middle" x="560" y="-176.5" font-family="Courier,monospace" font-size="10.00">switch(event)</text>
</g>
<!-- windows_branch&#45;&gt;event_switch_win -->
<g id="edge4" class="edge">
<title>windows_branch&#45;&gt;event_switch_win</title>
<path fill="none" stroke="black" d="M779.91,-239.59C735.92,-227.67 666.63,-208.9 617.59,-195.61"/>
<polygon fill="black" stroke="black" points="618.33,-192.18 607.76,-192.94 616.5,-198.94 618.33,-192.18"/>
</g>
<!-- event_switch_other -->
<g id="node6" class="node">
<title>event_switch_other</title>
<polygon fill="none" stroke="black" points="1590.5,-197 1495.5,-197 1495.5,-161 1590.5,-161 1590.5,-197"/>
<text text-anchor="middle" x="1543" y="-176.5" font-family="Courier,monospace" font-size="10.00">switch(event)</text>
</g>
<!-- other_os_branch&#45;&gt;event_switch_other -->
<g id="edge12" class="edge">
<title>other_os_branch&#45;&gt;event_switch_other</title>
<path fill="none" stroke="black" d="M1305.7,-239.12C1355.13,-226.8 1432.39,-207.55 1485.24,-194.39"/>
<polygon fill="black" stroke="black" points="1486.28,-197.74 1495.14,-191.92 1484.59,-190.94 1486.28,-197.74"/>
</g>
<!-- winsize_win -->
<g id="node8" class="node">
<title>winsize_win</title>
<polygon fill="none" stroke="black" points="195.5,-111.5 16.5,-111.5 16.5,-75.5 195.5,-75.5 195.5,-111.5"/>
<text text-anchor="middle" x="106" y="-96.5" font-family="Courier,monospace" font-size="10.00">检查 Event 是否有 winsize 字段</text>
<text text-anchor="middle" x="106" y="-85.5" font-family="Courier,monospace" font-size="10.00">如果有则转发事件</text>
</g>
<!-- event_switch_win&#45;&gt;winsize_win -->
<g id="edge5" class="edge">
<title>event_switch_win&#45;&gt;winsize_win</title>
<path fill="none" stroke="black" d="M512.49,-172.91C461.28,-167.08 377.51,-156.56 306,-143 263.63,-134.96 216.74,-123.72 179.03,-114.09"/>
<polygon fill="black" stroke="black" points="179.7,-110.65 169.15,-111.54 177.96,-117.42 179.7,-110.65"/>
<text text-anchor="middle" x="330.5" y="-135" font-family="Courier,monospace" font-size="10.00">.winsize</text>
</g>
<!-- key_press_win -->
<g id="node9" class="node">
<title>key_press_win</title>
<polygon fill="none" stroke="black" points="348,-114 214,-114 214,-73 348,-73 348,-114"/>
<text text-anchor="middle" x="281" y="-102" font-family="Courier,monospace" font-size="10.00">检查 F3+Shift 组合键</text>
<text text-anchor="middle" x="281" y="-91" font-family="Courier,monospace" font-size="10.00">如果符合条件设置能力标志</text>
<text text-anchor="middle" x="281" y="-80" font-family="Courier,monospace" font-size="10.00">否则缓存文本并转发事件</text>
</g>
<!-- event_switch_win&#45;&gt;key_press_win -->
<g id="edge6" class="edge">
<title>event_switch_win&#45;&gt;key_press_win</title>
<path fill="none" stroke="black" d="M512.33,-171.5C476.93,-165.93 427.74,-156.63 386,-143 366.17,-136.52 345.14,-127.32 327.15,-118.66"/>
<polygon fill="black" stroke="black" points="328.57,-115.46 318.05,-114.2 325.49,-121.74 328.57,-115.46"/>
<text text-anchor="middle" x="416.5" y="-135" font-family="Courier,monospace" font-size="10.00">.key_press</text>
</g>
<!-- key_release_win -->
<g id="node10" class="node">
<title>key_release_win</title>
<polygon fill="none" stroke="black" points="470,-111.5 366,-111.5 366,-75.5 470,-75.5 470,-111.5"/>
<text text-anchor="middle" x="418" y="-91" font-family="Courier,monospace" font-size="10.00">缓存文本并转发事件</text>
</g>
<!-- event_switch_win&#45;&gt;key_release_win -->
<g id="edge7" class="edge">
<title>event_switch_win&#45;&gt;key_release_win</title>
<path fill="none" stroke="black" d="M512.04,-165.36C496.01,-159.9 478.53,-152.54 464,-143 454.29,-136.63 445.15,-127.83 437.61,-119.48"/>
<polygon fill="black" stroke="black" points="440.09,-116.99 430.91,-111.7 434.78,-121.56 440.09,-116.99"/>
<text text-anchor="middle" x="500.5" y="-135" font-family="Courier,monospace" font-size="10.00">.key_release</text>
</g>
<!-- cap_da1_win -->
<g id="node11" class="node">
<title>cap_da1_win</title>
<polygon fill="none" stroke="black" points="563.5,-111.5 488.5,-111.5 488.5,-75.5 563.5,-75.5 563.5,-111.5"/>
<text text-anchor="middle" x="526" y="-96.5" font-family="Courier,monospace" font-size="10.00">唤醒查询线程</text>
<text text-anchor="middle" x="526" y="-85.5" font-family="Courier,monospace" font-size="10.00">标记查询完成</text>
</g>
<!-- event_switch_win&#45;&gt;cap_da1_win -->
<g id="edge8" class="edge">
<title>event_switch_win&#45;&gt;cap_da1_win</title>
<path fill="none" stroke="black" d="M552.96,-160.7C548.31,-149.28 542.12,-134.09 536.85,-121.14"/>
<polygon fill="black" stroke="black" points="540.05,-119.72 533.04,-111.78 533.57,-122.36 540.05,-119.72"/>
<text text-anchor="middle" x="569.5" y="-135" font-family="Courier,monospace" font-size="10.00">.cap_da1</text>
</g>
<!-- mouse_win -->
<g id="node12" class="node">
<title>mouse_win</title>
<polygon fill="none" stroke="black" points="705,-111.5 581,-111.5 581,-75.5 705,-75.5 705,-111.5"/>
<text text-anchor="middle" x="643" y="-91" font-family="Courier,monospace" font-size="10.00">转换鼠标坐标并转发事件</text>
</g>
<!-- event_switch_win&#45;&gt;mouse_win -->
<g id="edge9" class="edge">
<title>event_switch_win&#45;&gt;mouse_win</title>
<path fill="none" stroke="black" d="M579.22,-160.84C585.32,-155.25 592.03,-148.95 598,-143 605.57,-135.46 613.58,-127 620.71,-119.28"/>
<polygon fill="black" stroke="black" points="623.32,-121.61 627.49,-111.87 618.16,-116.88 623.32,-121.61"/>
<text text-anchor="middle" x="626.5" y="-135" font-family="Courier,monospace" font-size="10.00">.mouse</text>
</g>
<!-- focus_in_win -->
<g id="node13" class="node">
<title>focus_in_win</title>
<polygon fill="none" stroke="black" points="838.5,-111.5 723.5,-111.5 723.5,-75.5 838.5,-75.5 838.5,-111.5"/>
<text text-anchor="middle" x="781" y="-91" font-family="Courier,monospace" font-size="10.00">转发 focus_in 事件</text>
</g>
<!-- event_switch_win&#45;&gt;focus_in_win -->
<g id="edge10" class="edge">
<title>event_switch_win&#45;&gt;focus_in_win</title>
<path fill="none" stroke="black" d="M605.26,-160.9C640.26,-147.67 688.89,-129.3 726.11,-115.24"/>
<polygon fill="black" stroke="black" points="727.69,-118.38 735.8,-111.58 725.21,-111.84 727.69,-118.38"/>
<text text-anchor="middle" x="704.5" y="-135" font-family="Courier,monospace" font-size="10.00">.focus_in</text>
</g>
<!-- focus_out_win -->
<g id="node14" class="node">
<title>focus_out_win</title>
<polygon fill="none" stroke="black" points="977.5,-111.5 856.5,-111.5 856.5,-75.5 977.5,-75.5 977.5,-111.5"/>
<text text-anchor="middle" x="917" y="-91" font-family="Courier,monospace" font-size="10.00">转发 focus_out 事件</text>
</g>
<!-- event_switch_win&#45;&gt;focus_out_win -->
<g id="edge11" class="edge">
<title>event_switch_win&#45;&gt;focus_out_win</title>
<path fill="none" stroke="black" d="M607.59,-169.3C643.09,-162.62 692.72,-152.9 736,-143 783.19,-132.21 796.8,-127.94 847,-114.26"/>
<polygon fill="black" stroke="black" points="848.08,-117.59 856.81,-111.59 846.24,-110.84 848.08,-117.59"/>
<text text-anchor="middle" x="810.5" y="-135" font-family="Courier,monospace" font-size="10.00">.focus_out</text>
</g>
<!-- key_press_other -->
<g id="node15" class="node">
<title>key_press_other</title>
<polygon fill="none" stroke="black" points="1173.5,-111.5 1002.5,-111.5 1002.5,-75.5 1173.5,-75.5 1173.5,-111.5"/>
<text text-anchor="middle" x="1088" y="-91" font-family="Courier,monospace" font-size="10.00">同Windows的key_press处理逻辑</text>
</g>
<!-- event_switch_other&#45;&gt;key_press_other -->
<g id="edge13" class="edge">
<title>event_switch_other&#45;&gt;key_press_other</title>
<path fill="none" stroke="black" d="M1495.1,-170.71C1451.47,-163.95 1385.3,-153.39 1328,-143 1263.33,-131.27 1247.41,-127.05 1183,-114 1182.26,-113.85 1181.51,-113.7 1180.76,-113.55"/>
<polygon fill="black" stroke="black" points="1181.39,-110.1 1170.89,-111.54 1180,-116.96 1181.39,-110.1"/>
<text text-anchor="middle" x="1358.5" y="-135" font-family="Courier,monospace" font-size="10.00">.key_press</text>
</g>
<!-- key_release_other -->
<g id="node16" class="node">
<title>key_release_other</title>
<polygon fill="none" stroke="black" points="1374.5,-111.5 1191.5,-111.5 1191.5,-75.5 1374.5,-75.5 1374.5,-111.5"/>
<text text-anchor="middle" x="1283" y="-91" font-family="Courier,monospace" font-size="10.00">同Windows的key_release处理逻辑</text>
</g>
<!-- event_switch_other&#45;&gt;key_release_other -->
<g id="edge14" class="edge">
<title>event_switch_other&#45;&gt;key_release_other</title>
<path fill="none" stroke="black" d="M1495.5,-164.39C1473.92,-158.08 1448.11,-150.37 1425,-143 1397.27,-134.16 1366.7,-123.79 1341.05,-114.92"/>
<polygon fill="black" stroke="black" points="1342.07,-111.57 1331.47,-111.6 1339.77,-118.19 1342.07,-111.57"/>
<text text-anchor="middle" x="1461.5" y="-135" font-family="Courier,monospace" font-size="10.00">.key_release</text>
</g>
<!-- mouse_other -->
<g id="node17" class="node">
<title>mouse_other</title>
<polygon fill="none" stroke="black" points="1539.5,-111.5 1392.5,-111.5 1392.5,-75.5 1539.5,-75.5 1539.5,-111.5"/>
<text text-anchor="middle" x="1466" y="-91" font-family="Courier,monospace" font-size="10.00">同Windows的mouse处理逻辑</text>
</g>
<!-- event_switch_other&#45;&gt;mouse_other -->
<g id="edge15" class="edge">
<title>event_switch_other&#45;&gt;mouse_other</title>
<path fill="none" stroke="black" d="M1527.05,-160.7C1516,-148.72 1501.13,-132.59 1488.83,-119.26"/>
<polygon fill="black" stroke="black" points="1491.29,-116.76 1481.93,-111.78 1486.14,-121.5 1491.29,-116.76"/>
<text text-anchor="middle" x="1527.5" y="-135" font-family="Courier,monospace" font-size="10.00">.mouse</text>
</g>
<!-- paste_events -->
<g id="node18" class="node">
<title>paste_events</title>
<polygon fill="none" stroke="black" points="1686.5,-111.5 1557.5,-111.5 1557.5,-75.5 1686.5,-75.5 1686.5,-111.5"/>
<text text-anchor="middle" x="1622" y="-96.5" font-family="Courier,monospace" font-size="10.00">处理粘贴开始/结束/内容</text>
<text text-anchor="middle" x="1622" y="-85.5" font-family="Courier,monospace" font-size="10.00">根据allocator释放内存</text>
</g>
<!-- event_switch_other&#45;&gt;paste_events -->
<g id="edge16" class="edge">
<title>event_switch_other&#45;&gt;paste_events</title>
<path fill="none" stroke="black" d="M1559.37,-160.7C1570.7,-148.72 1585.96,-132.59 1598.58,-119.26"/>
<polygon fill="black" stroke="black" points="1601.32,-121.45 1605.65,-111.78 1596.24,-116.64 1601.32,-121.45"/>
<text text-anchor="middle" x="1613.5" y="-135" font-family="Courier,monospace" font-size="10.00">粘贴相关事件</text>
</g>
<!-- color_events -->
<g id="node19" class="node">
<title>color_events</title>
<polygon fill="none" stroke="black" points="1829,-111.5 1705,-111.5 1705,-75.5 1829,-75.5 1829,-111.5"/>
<text text-anchor="middle" x="1767" y="-91" font-family="Courier,monospace" font-size="10.00">转发颜色报告和主题事件</text>
</g>
<!-- event_switch_other&#45;&gt;color_events -->
<g id="edge17" class="edge">
<title>event_switch_other&#45;&gt;color_events</title>
<path fill="none" stroke="black" d="M1590.58,-162.65C1608.37,-156.74 1628.69,-149.78 1647,-143 1670.22,-134.41 1695.69,-124.23 1717.16,-115.42"/>
<polygon fill="black" stroke="black" points="1718.5,-118.65 1726.41,-111.6 1715.83,-112.18 1718.5,-118.65"/>
<text text-anchor="middle" x="1715.5" y="-135" font-family="Courier,monospace" font-size="10.00">颜色报告/主题事件</text>
</g>
<!-- capability_events -->
<g id="node20" class="node">
<title>capability_events</title>
<polygon fill="none" stroke="black" points="1978.5,-111.5 1847.5,-111.5 1847.5,-75.5 1978.5,-75.5 1978.5,-111.5"/>
<text text-anchor="middle" x="1913" y="-96.5" font-family="Courier,monospace" font-size="10.00">设置kitty键盘/图形</text>
<text text-anchor="middle" x="1913" y="-85.5" font-family="Courier,monospace" font-size="10.00">RGB/Unicode等能力标志</text>
</g>
<!-- event_switch_other&#45;&gt;capability_events -->
<g id="edge18" class="edge">
<title>event_switch_other&#45;&gt;capability_events</title>
<path fill="none" stroke="black" d="M1590.83,-172.49C1635.48,-166.84 1703.77,-156.92 1762,-143 1793.74,-135.41 1828.46,-124.45 1856.59,-114.87"/>
<polygon fill="black" stroke="black" points="1857.94,-118.11 1866.25,-111.55 1855.66,-111.49 1857.94,-118.11"/>
<text text-anchor="middle" x="1828.5" y="-135" font-family="Courier,monospace" font-size="10.00">能力检测事件</text>
</g>
<!-- winsize_other -->
<g id="node21" class="node">
<title>winsize_other</title>
<polygon fill="none" stroke="black" points="2131,-111.5 1997,-111.5 1997,-75.5 2131,-75.5 2131,-111.5"/>
<text text-anchor="middle" x="2064" y="-96.5" font-family="Courier,monospace" font-size="10.00">标记带内调整大小</text>
<text text-anchor="middle" x="2064" y="-85.5" font-family="Courier,monospace" font-size="10.00">重置信号处理器并转发事件</text>
</g>
<!-- event_switch_other&#45;&gt;winsize_other -->
<g id="edge19" class="edge">
<title>event_switch_other&#45;&gt;winsize_other</title>
<path fill="none" stroke="black" d="M1590.53,-174.53C1653.07,-169.57 1766.28,-159.21 1862,-143 1918.66,-133.41 1932.17,-127.59 1988,-114 1988.1,-113.97 1988.21,-113.95 1988.31,-113.92"/>
<polygon fill="black" stroke="black" points="1989.24,-117.3 1998.12,-111.51 1987.57,-110.5 1989.24,-117.3"/>
<text text-anchor="middle" x="1940.5" y="-135" font-family="Courier,monospace" font-size="10.00">.winsize</text>
</g>
<!-- end -->
<g id="node7" class="node">
<title>end</title>
<polygon fill="none" stroke="black" points="1030,-36 974,-36 974,0 1030,0 1030,-36"/>
<text text-anchor="middle" x="1002" y="-15.5" font-family="Courier,monospace" font-size="10.00">流程结束</text>
</g>
<!-- winsize_win&#45;&gt;end -->
<g id="edge20" class="edge">
<title>winsize_win&#45;&gt;end</title>
<path fill="none" stroke="black" d="M159.22,-75.47C173.91,-71.39 189.95,-67.49 205,-65 353.75,-40.34 825.38,-24.37 963.59,-20.13"/>
<polygon fill="black" stroke="black" points="963.81,-23.63 973.7,-19.82 963.6,-16.63 963.81,-23.63"/>
</g>
<!-- key_press_win&#45;&gt;end -->
<g id="edge21" class="edge">
<title>key_press_win&#45;&gt;end</title>
<path fill="none" stroke="black" d="M328.66,-73C337.93,-69.85 347.67,-66.98 357,-65 473.99,-40.16 843.05,-24.8 963.54,-20.35"/>
<polygon fill="black" stroke="black" points="963.89,-23.84 973.75,-19.98 963.63,-16.85 963.89,-23.84"/>
</g>
<!-- key_release_win&#45;&gt;end -->
<g id="edge22" class="edge">
<title>key_release_win&#45;&gt;end</title>
<path fill="none" stroke="black" d="M451.06,-75.43C460.22,-71.37 470.31,-67.5 480,-65 571.66,-41.33 859.24,-25.75 963.64,-20.74"/>
<polygon fill="black" stroke="black" points="963.91,-24.23 973.74,-20.26 963.58,-17.24 963.91,-24.23"/>
</g>
<!-- cap_da1_win&#45;&gt;end -->
<g id="edge23" class="edge">
<title>cap_da1_win&#45;&gt;end</title>
<path fill="none" stroke="black" d="M550.35,-75.3C557.09,-71.29 564.59,-67.48 572,-65 644.26,-40.84 872.23,-26.07 963.58,-20.99"/>
<polygon fill="black" stroke="black" points="963.98,-24.48 973.77,-20.44 963.6,-17.49 963.98,-24.48"/>
</g>
<!-- mouse_win&#45;&gt;end -->
<g id="edge24" class="edge">
<title>mouse_win&#45;&gt;end</title>
<path fill="none" stroke="black" d="M683.26,-75.45C693.48,-71.59 704.53,-67.81 715,-65 802.46,-41.56 908.31,-28.38 963.81,-22.59"/>
<polygon fill="black" stroke="black" points="964.3,-26.06 973.89,-21.56 963.59,-19.1 964.3,-26.06"/>
</g>
<!-- focus_in_win&#45;&gt;end -->
<g id="edge25" class="edge">
<title>focus_in_win&#45;&gt;end</title>
<path fill="none" stroke="black" d="M820.78,-75.41C829.68,-71.81 839.11,-68.14 848,-65 887.17,-51.15 932.87,-37.85 964.25,-29.15"/>
<polygon fill="black" stroke="black" points="965.2,-32.52 973.91,-26.49 963.34,-25.77 965.2,-32.52"/>
</g>
<!-- focus_out_win&#45;&gt;end -->
<g id="edge26" class="edge">
<title>focus_out_win&#45;&gt;end</title>
<path fill="none" stroke="black" d="M936.71,-75.45C947.9,-65.78 962.07,-53.53 974.35,-42.91"/>
<polygon fill="black" stroke="black" points="976.82,-45.4 982.1,-36.21 972.24,-40.1 976.82,-45.4"/>
</g>
<!-- key_press_other&#45;&gt;end -->
<g id="edge27" class="edge">
<title>key_press_other&#45;&gt;end</title>
<path fill="none" stroke="black" d="M1068.05,-75.45C1056.74,-65.78 1042.4,-53.53 1029.97,-42.91"/>
<polygon fill="black" stroke="black" points="1032.01,-40.05 1022.14,-36.21 1027.46,-45.37 1032.01,-40.05"/>
</g>
<!-- key_release_other&#45;&gt;end -->
<g id="edge28" class="edge">
<title>key_release_other&#45;&gt;end</title>
<path fill="none" stroke="black" d="M1221.7,-75.44C1208.93,-71.94 1195.53,-68.32 1183,-65 1133.72,-51.96 1076.7,-37.59 1040.04,-28.44"/>
<polygon fill="black" stroke="black" points="1040.81,-25.02 1030.26,-26 1039.12,-31.82 1040.81,-25.02"/>
</g>
<!-- mouse_other&#45;&gt;end -->
<g id="edge29" class="edge">
<title>mouse_other&#45;&gt;end</title>
<path fill="none" stroke="black" d="M1420.5,-75.41C1408.74,-71.5 1396.01,-67.71 1384,-65 1260.04,-37.06 1109.37,-25.24 1040.14,-21.02"/>
<polygon fill="black" stroke="black" points="1040.32,-17.52 1030.13,-20.42 1039.91,-24.51 1040.32,-17.52"/>
</g>
<!-- paste_events&#45;&gt;end -->
<g id="edge30" class="edge">
<title>paste_events&#45;&gt;end</title>
<path fill="none" stroke="black" d="M1582.83,-75.48C1572.05,-71.42 1560.23,-67.54 1549,-65 1361.63,-22.69 1130.23,-18.49 1040.27,-18.62"/>
<polygon fill="black" stroke="black" points="1040.01,-15.12 1030.02,-18.65 1040.03,-22.12 1040.01,-15.12"/>
</g>
<!-- color_events&#45;&gt;end -->
<g id="edge31" class="edge">
<title>color_events&#45;&gt;end</title>
<path fill="none" stroke="black" d="M1729.34,-75.48C1718.75,-71.37 1707.1,-67.46 1696,-65 1569.41,-36.98 1166.87,-23.6 1040.4,-20.02"/>
<polygon fill="black" stroke="black" points="1040.16,-16.51 1030.06,-19.73 1039.96,-23.5 1040.16,-16.51"/>
</g>
<!-- capability_events&#45;&gt;end -->
<g id="edge32" class="edge">
<title>capability_events&#45;&gt;end</title>
<path fill="none" stroke="black" d="M1873.16,-75.43C1861.97,-71.32 1849.68,-67.42 1838,-65 1754.74,-47.73 1731.9,-58.75 1647,-54 1416.89,-41.13 1140.56,-26.37 1040.52,-21.05"/>
<polygon fill="black" stroke="black" points="1040.47,-17.54 1030.29,-20.5 1040.09,-24.53 1040.47,-17.54"/>
</g>
<!-- winsize_other&#45;&gt;end -->
<g id="edge33" class="edge">
<title>winsize_other&#45;&gt;end</title>
<path fill="none" stroke="black" d="M2024.02,-75.49C2012.58,-71.33 1999.97,-67.39 1988,-65 1801.75,-27.84 1198.83,-20.55 1040.42,-19.26"/>
<polygon fill="black" stroke="black" points="1040.24,-15.75 1030.21,-19.18 1040.18,-22.75 1040.24,-15.75"/>
</g>
</g>
</svg>
