<?xml version="1.0" encoding="UTF-8" standalone="no"?>
<!DOCTYPE svg PUBLIC "-//W3C//DTD SVG 1.1//EN"
 "http://www.w3.org/Graphics/SVG/1.1/DTD/svg11.dtd">
<!-- Generated by graphviz version 2.43.0 (0)
 -->
<!-- Title: parseMouseFlow Pages: 1 -->
<svg width="428pt" height="920pt"
 viewBox="0.00 0.00 427.50 920.00" xmlns="http://www.w3.org/2000/svg" xmlns:xlink="http://www.w3.org/1999/xlink">
<g id="graph0" class="graph" transform="scale(1 1) rotate(0) translate(4 916)">
<title>parseMouseFlow</title>
<polygon fill="white" stroke="transparent" points="-4,4 -4,-916 423.5,-916 423.5,4 -4,4"/>
<!-- start -->
<g id="node1" class="node">
<title>start</title>
<ellipse fill="none" stroke="black" cx="351.5" cy="-894" rx="29.5" ry="18"/>
<text text-anchor="middle" x="351.5" y="-890.3" font-family="Arial" font-size="14.00">开始</text>
</g>
<!-- check_input_len -->
<g id="node2" class="node">
<title>check_input_len</title>
<polygon fill="none" stroke="black" points="417,-839 286,-839 286,-803 417,-803 417,-839"/>
<text text-anchor="middle" x="351.5" y="-817.3" font-family="Arial" font-size="14.00">检查 input.len &gt;= 4</text>
</g>
<!-- start&#45;&gt;check_input_len -->
<g id="edge1" class="edge">
<title>start&#45;&gt;check_input_len</title>
<path fill="none" stroke="black" d="M351.5,-875.81C351.5,-867.79 351.5,-858.05 351.5,-849.07"/>
<polygon fill="black" stroke="black" points="355,-849.03 351.5,-839.03 348,-849.03 355,-849.03"/>
</g>
<!-- check_input_2 -->
<g id="node3" class="node">
<title>check_input_2</title>
<polygon fill="none" stroke="black" points="405,-766 298,-766 298,-730 405,-730 405,-766"/>
<text text-anchor="middle" x="351.5" y="-744.3" font-family="Arial" font-size="14.00">input[2] == &#39;&lt;&#39;?</text>
</g>
<!-- check_input_len&#45;&gt;check_input_2 -->
<g id="edge2" class="edge">
<title>check_input_len&#45;&gt;check_input_2</title>
<path fill="none" stroke="black" d="M351.5,-802.81C351.5,-794.79 351.5,-785.05 351.5,-776.07"/>
<polygon fill="black" stroke="black" points="355,-776.03 351.5,-766.03 348,-776.03 355,-776.03"/>
</g>
<!-- find_delim1 -->
<g id="node4" class="node">
<title>find_delim1</title>
<polygon fill="none" stroke="black" points="376,-679 221,-679 221,-643 376,-643 376,-679"/>
<text text-anchor="middle" x="298.5" y="-657.3" font-family="Arial" font-size="14.00">查找第一个&#39;;&#39;(位置 &gt;3)</text>
</g>
<!-- check_input_2&#45;&gt;find_delim1 -->
<g id="edge4" class="edge">
<title>check_input_2&#45;&gt;find_delim1</title>
<path fill="none" stroke="black" d="M340.77,-729.8C333.23,-717.7 323.01,-701.3 314.5,-687.67"/>
<polygon fill="black" stroke="black" points="317.47,-685.81 309.21,-679.18 311.53,-689.51 317.47,-685.81"/>
<text text-anchor="middle" x="335" y="-700.8" font-family="Times,serif" font-size="14.00">是</text>
</g>
<!-- return_null -->
<g id="node12" class="node">
<title>return_null</title>
<ellipse fill="none" stroke="black" cx="260.5" cy="-312" rx="71.49" ry="18"/>
<text text-anchor="middle" x="260.5" y="-308.3" font-family="Arial" font-size="14.00">返回 null_event</text>
</g>
<!-- check_input_2&#45;&gt;return_null -->
<g id="edge3" class="edge">
<title>check_input_2&#45;&gt;return_null</title>
<path fill="none" stroke="black" d="M370.34,-729.71C385.57,-713.77 404.5,-688.61 404.5,-662 404.5,-662 404.5,-662 404.5,-399 404.5,-359.71 364.49,-337.94 326.65,-326.14"/>
<polygon fill="black" stroke="black" points="327.17,-322.65 316.59,-323.22 325.21,-329.37 327.17,-322.65"/>
<text text-anchor="middle" x="412" y="-526.8" font-family="Times,serif" font-size="14.00">否</text>
</g>
<!-- parse_button_mask -->
<g id="node5" class="node">
<title>parse_button_mask</title>
<polygon fill="none" stroke="black" points="299.5,-592 173.5,-592 173.5,-556 299.5,-556 299.5,-592"/>
<text text-anchor="middle" x="236.5" y="-570.3" font-family="Arial" font-size="14.00">解析 button_mask</text>
</g>
<!-- find_delim1&#45;&gt;parse_button_mask -->
<g id="edge6" class="edge">
<title>find_delim1&#45;&gt;parse_button_mask</title>
<path fill="none" stroke="black" d="M255.28,-642.86C248.21,-638.13 241.79,-632.25 237.5,-625 233.54,-618.32 232.23,-610.22 232.19,-602.49"/>
<polygon fill="black" stroke="black" points="235.69,-602.55 232.81,-592.36 228.71,-602.13 235.69,-602.55"/>
<text text-anchor="middle" x="278.5" y="-613.8" font-family="Times,serif" font-size="14.00">找到 delim1</text>
</g>
<!-- find_delim1&#45;&gt;return_null -->
<g id="edge5" class="edge">
<title>find_delim1&#45;&gt;return_null</title>
<path fill="none" stroke="black" d="M310.15,-642.94C320.34,-626.35 333.5,-600.06 333.5,-575 333.5,-575 333.5,-575 333.5,-399 333.5,-372.78 313.54,-350.47 294.49,-335.14"/>
<polygon fill="black" stroke="black" points="296.52,-332.29 286.44,-329.01 292.28,-337.86 296.52,-332.29"/>
<text text-anchor="middle" x="355" y="-483.3" font-family="Times,serif" font-size="14.00">未找到</text>
</g>
<!-- find_delim2 -->
<g id="node6" class="node">
<title>find_delim2</title>
<polygon fill="none" stroke="black" points="232,-505 29,-505 29,-469 232,-469 232,-505"/>
<text text-anchor="middle" x="130.5" y="-483.3" font-family="Arial" font-size="14.00">查找第二个&#39;;&#39;(位置 &gt;delim1+1)</text>
</g>
<!-- parse_button_mask&#45;&gt;find_delim2 -->
<g id="edge7" class="edge">
<title>parse_button_mask&#45;&gt;find_delim2</title>
<path fill="none" stroke="black" d="M215.05,-555.8C199.24,-543.13 177.56,-525.73 160.1,-511.74"/>
<polygon fill="black" stroke="black" points="161.91,-508.7 151.92,-505.18 157.53,-514.16 161.91,-508.7"/>
</g>
<!-- parse_button_mask&#45;&gt;return_null -->
<g id="edge14" class="edge">
<title>parse_button_mask&#45;&gt;return_null</title>
<path fill="none" stroke="black" d="M238.07,-555.94C242.14,-511.87 253.03,-393.91 257.98,-340.25"/>
<polygon fill="black" stroke="black" points="261.49,-340.4 258.92,-330.12 254.52,-339.76 261.49,-340.4"/>
<text text-anchor="middle" x="277.5" y="-439.8" font-family="Times,serif" font-size="14.00">解析失败</text>
</g>
<!-- parse_px_py -->
<g id="node7" class="node">
<title>parse_px_py</title>
<polygon fill="none" stroke="black" points="141.5,-418 43.5,-418 43.5,-382 141.5,-382 141.5,-418"/>
<text text-anchor="middle" x="92.5" y="-396.3" font-family="Arial" font-size="14.00">解析 px 和 py</text>
</g>
<!-- find_delim2&#45;&gt;parse_px_py -->
<g id="edge9" class="edge">
<title>find_delim2&#45;&gt;parse_px_py</title>
<path fill="none" stroke="black" d="M106.52,-468.66C101.28,-463.6 96.43,-457.63 93.5,-451 90.44,-444.09 89.35,-436.11 89.24,-428.57"/>
<polygon fill="black" stroke="black" points="92.74,-428.5 89.63,-418.38 85.75,-428.24 92.74,-428.5"/>
<text text-anchor="middle" x="134.5" y="-439.8" font-family="Times,serif" font-size="14.00">找到 delim2</text>
</g>
<!-- find_delim2&#45;&gt;return_null -->
<g id="edge8" class="edge">
<title>find_delim2&#45;&gt;return_null</title>
<path fill="none" stroke="black" d="M157.35,-468.81C163.92,-463.68 170.48,-457.63 175.5,-451 195.47,-424.61 186.54,-410.42 203.5,-382 212.97,-366.13 225.95,-350.11 237.12,-337.51"/>
<polygon fill="black" stroke="black" points="240.03,-339.51 244.16,-329.76 234.84,-334.81 240.03,-339.51"/>
<text text-anchor="middle" x="225" y="-396.3" font-family="Times,serif" font-size="14.00">未找到</text>
</g>
<!-- decode_mask -->
<g id="node8" class="node">
<title>decode_mask</title>
<polygon fill="none" stroke="black" points="167,-331 0,-331 0,-293 167,-293 167,-331"/>
<text text-anchor="middle" x="83.5" y="-315.8" font-family="Arial" font-size="14.00">解码 button_mask</text>
<text text-anchor="middle" x="83.5" y="-300.8" font-family="Arial" font-size="14.00">(按钮、motion、修饰键)</text>
</g>
<!-- parse_px_py&#45;&gt;decode_mask -->
<g id="edge10" class="edge">
<title>parse_px_py&#45;&gt;decode_mask</title>
<path fill="none" stroke="black" d="M90.68,-381.6C89.47,-370.06 87.86,-354.65 86.47,-341.36"/>
<polygon fill="black" stroke="black" points="89.93,-340.85 85.41,-331.27 82.97,-341.58 89.93,-340.85"/>
</g>
<!-- parse_px_py&#45;&gt;return_null -->
<g id="edge15" class="edge">
<title>parse_px_py&#45;&gt;return_null</title>
<path fill="none" stroke="black" d="M97.05,-381.79C100.8,-370.86 107.21,-357.27 117.5,-349 124.11,-343.69 162.21,-334.23 197.42,-326.34"/>
<polygon fill="black" stroke="black" points="198.24,-329.74 207.24,-324.16 196.72,-322.9 198.24,-329.74"/>
<text text-anchor="middle" x="146.5" y="-352.8" font-family="Times,serif" font-size="14.00">解析失败</text>
</g>
<!-- determine_type -->
<g id="node9" class="node">
<title>determine_type</title>
<polygon fill="none" stroke="black" points="134.5,-256 32.5,-256 32.5,-220 134.5,-220 134.5,-256"/>
<text text-anchor="middle" x="83.5" y="-234.3" font-family="Arial" font-size="14.00">确定事件类型</text>
</g>
<!-- decode_mask&#45;&gt;determine_type -->
<g id="edge11" class="edge">
<title>decode_mask&#45;&gt;determine_type</title>
<path fill="none" stroke="black" d="M83.5,-292.83C83.5,-284.89 83.5,-275.41 83.5,-266.63"/>
<polygon fill="black" stroke="black" points="87,-266.42 83.5,-256.42 80,-266.42 87,-266.42"/>
</g>
<!-- build_mouse -->
<g id="node10" class="node">
<title>build_mouse</title>
<polygon fill="none" stroke="black" points="151.5,-109 15.5,-109 15.5,-73 151.5,-73 151.5,-109"/>
<text text-anchor="middle" x="83.5" y="-87.3" font-family="Arial" font-size="14.00">构造 Mouse 结构体</text>
</g>
<!-- determine_type&#45;&gt;build_mouse -->
<g id="edge12" class="edge">
<title>determine_type&#45;&gt;build_mouse</title>
<path fill="none" stroke="black" d="M83.5,-219.8C83.5,-194.94 83.5,-148.74 83.5,-119.23"/>
<polygon fill="black" stroke="black" points="87,-119.18 83.5,-109.18 80,-119.18 87,-119.18"/>
<text text-anchor="middle" x="114" y="-190.8" font-family="Times,serif" font-size="14.00">判断:</text>
<text text-anchor="middle" x="114" y="-175.8" font-family="Times,serif" font-size="14.00">&#45; drag</text>
<text text-anchor="middle" x="114" y="-160.8" font-family="Times,serif" font-size="14.00">&#45; motion</text>
<text text-anchor="middle" x="114" y="-145.8" font-family="Times,serif" font-size="14.00">&#45; release</text>
<text text-anchor="middle" x="114" y="-130.8" font-family="Times,serif" font-size="14.00">&#45; press</text>
</g>
<!-- return_success -->
<g id="node11" class="node">
<title>return_success</title>
<ellipse fill="none" stroke="black" cx="83.5" cy="-18" rx="66.09" ry="18"/>
<text text-anchor="middle" x="83.5" y="-14.3" font-family="Arial" font-size="14.00">返回成功事件</text>
</g>
<!-- build_mouse&#45;&gt;return_success -->
<g id="edge13" class="edge">
<title>build_mouse&#45;&gt;return_success</title>
<path fill="none" stroke="black" d="M83.5,-72.81C83.5,-64.79 83.5,-55.05 83.5,-46.07"/>
<polygon fill="black" stroke="black" points="87,-46.03 83.5,-36.03 80,-46.03 87,-46.03"/>
</g>
</g>
</svg>
