<?xml version="1.0" encoding="UTF-8" standalone="no"?>
<!DOCTYPE svg PUBLIC "-//W3C//DTD SVG 1.1//EN"
 "http://www.w3.org/Graphics/SVG/1.1/DTD/svg11.dtd">
<!-- Generated by graphviz version 2.43.0 (0)
 -->
<!-- Title: ParserFlowchart Pages: 1 -->
<svg width="1833pt" height="385pt"
 viewBox="0.00 0.00 1833.00 385.00" xmlns="http://www.w3.org/2000/svg" xmlns:xlink="http://www.w3.org/1999/xlink">
<g id="graph0" class="graph" transform="scale(1 1) rotate(0) translate(4 381)">
<title>ParserFlowchart</title>
<polygon fill="white" stroke="transparent" points="-4,4 -4,-381 1829,-381 1829,4 -4,4"/>
<!-- start -->
<g id="node1" class="node">
<title>start</title>
<ellipse fill="none" stroke="black" cx="414" cy="-359" rx="29.5" ry="18"/>
<text text-anchor="middle" x="414" y="-355.3" font-family="Times,serif" font-size="14.00">开始</text>
</g>
<!-- check_escape -->
<g id="node2" class="node">
<title>check_escape</title>
<polygon fill="none" stroke="black" points="414,-304 169.51,-286 414,-268 658.49,-286 414,-304"/>
<text text-anchor="middle" x="414" y="-282.3" font-family="Times,serif" font-size="14.00">input[0] == 0x1b 且 input.len &gt; 1?</text>
</g>
<!-- start&#45;&gt;check_escape -->
<g id="edge1" class="edge">
<title>start&#45;&gt;check_escape</title>
<path fill="none" stroke="black" d="M414,-340.81C414,-332.79 414,-323.05 414,-314.07"/>
<polygon fill="black" stroke="black" points="417.5,-314.03 414,-304.03 410.5,-314.03 417.5,-314.03"/>
</g>
<!-- parse_ground -->
<g id="node3" class="node">
<title>parse_ground</title>
<polygon fill="none" stroke="black" points="338,-163 0,-163 0,-127 338,-127 338,-163"/>
<text text-anchor="middle" x="169" y="-141.3" font-family="Times,serif" font-size="14.00">调用 parseGround(input, self.grapheme_data)</text>
</g>
<!-- check_escape&#45;&gt;parse_ground -->
<g id="edge2" class="edge">
<title>check_escape&#45;&gt;parse_ground</title>
<path fill="none" stroke="black" d="M387.31,-269.86C344,-245.28 258.19,-196.6 208.02,-168.14"/>
<polygon fill="black" stroke="black" points="209.51,-164.96 199.08,-163.07 206.05,-171.05 209.51,-164.96"/>
<text text-anchor="middle" x="360.5" y="-238.8" font-family="Times,serif" font-size="14.00">否</text>
</g>
<!-- switch_input1 -->
<g id="node4" class="node">
<title>switch_input1</title>
<polygon fill="none" stroke="black" points="811,-217 683.47,-199 811,-181 938.53,-199 811,-217"/>
<text text-anchor="middle" x="811" y="-195.3" font-family="Times,serif" font-size="14.00">根据 input[1] 分支</text>
</g>
<!-- check_escape&#45;&gt;switch_input1 -->
<g id="edge3" class="edge">
<title>check_escape&#45;&gt;switch_input1</title>
<path fill="none" stroke="black" d="M473.43,-272.27C548.84,-256.13 678.05,-228.46 752.84,-212.45"/>
<polygon fill="black" stroke="black" points="753.98,-215.79 763.02,-210.27 752.51,-208.94 753.98,-215.79"/>
<text text-anchor="middle" x="643.5" y="-238.8" font-family="Times,serif" font-size="14.00">是</text>
</g>
<!-- return_result -->
<g id="node13" class="node">
<title>return_result</title>
<ellipse fill="none" stroke="black" cx="811" cy="-18" rx="61.99" ry="18"/>
<text text-anchor="middle" x="811" y="-14.3" font-family="Times,serif" font-size="14.00">返回 Result</text>
</g>
<!-- parse_ground&#45;&gt;return_result -->
<g id="edge20" class="edge">
<title>parse_ground&#45;&gt;return_result</title>
<path fill="none" stroke="black" d="M123.95,-126.96C116.78,-122.24 110.31,-116.33 106,-109 97.89,-95.21 95.13,-84.74 106,-73 148.41,-27.22 568.26,-20.1 739.18,-19.1"/>
<polygon fill="black" stroke="black" points="739.35,-22.6 749.33,-19.05 739.32,-15.6 739.35,-22.6"/>
</g>
<!-- case_0x4F -->
<g id="node5" class="node">
<title>case_0x4F</title>
<polygon fill="none" stroke="black" points="278.5,-109 115.5,-109 115.5,-73 278.5,-73 278.5,-109"/>
<text text-anchor="middle" x="197" y="-87.3" font-family="Times,serif" font-size="14.00">调用 parseSs3(input)</text>
</g>
<!-- switch_input1&#45;&gt;case_0x4F -->
<g id="edge4" class="edge">
<title>switch_input1&#45;&gt;case_0x4F</title>
<path fill="none" stroke="black" d="M718.19,-194.04C646.97,-189.73 546.51,-180.89 460,-163 408.38,-152.33 397.82,-141 347,-127 327.06,-121.51 305.48,-116.14 285.06,-111.32"/>
<polygon fill="black" stroke="black" points="285.68,-107.87 275.15,-109 284.09,-114.69 285.68,-107.87"/>
<text text-anchor="middle" x="478.5" y="-141.3" font-family="Times,serif" font-size="14.00">0x4F</text>
</g>
<!-- case_0x50 -->
<g id="node6" class="node">
<title>case_0x50</title>
<polygon fill="none" stroke="black" points="477.5,-109 296.5,-109 296.5,-73 477.5,-73 477.5,-109"/>
<text text-anchor="middle" x="387" y="-87.3" font-family="Times,serif" font-size="14.00">调用 skipUntilST(input)</text>
</g>
<!-- switch_input1&#45;&gt;case_0x50 -->
<g id="edge5" class="edge">
<title>switch_input1&#45;&gt;case_0x50</title>
<path fill="none" stroke="black" d="M754.51,-188.94C717.48,-182.62 668.11,-173.46 625,-163 564.24,-148.26 495.95,-127.44 448.15,-112.15"/>
<polygon fill="black" stroke="black" points="449.17,-108.8 438.58,-109.08 447.03,-115.47 449.17,-108.8"/>
<text text-anchor="middle" x="643" y="-141.3" font-family="Times,serif" font-size="14.00">0x50</text>
</g>
<!-- case_0x58 -->
<g id="node7" class="node">
<title>case_0x58</title>
<polygon fill="none" stroke="black" points="676.5,-109 495.5,-109 495.5,-73 676.5,-73 676.5,-109"/>
<text text-anchor="middle" x="586" y="-87.3" font-family="Times,serif" font-size="14.00">调用 skipUntilST(input)</text>
</g>
<!-- switch_input1&#45;&gt;case_0x58 -->
<g id="edge6" class="edge">
<title>switch_input1&#45;&gt;case_0x58</title>
<path fill="none" stroke="black" d="M782.96,-184.79C745.02,-166.91 676.87,-134.81 631.53,-113.45"/>
<polygon fill="black" stroke="black" points="632.76,-110.16 622.22,-109.06 629.78,-116.49 632.76,-110.16"/>
<text text-anchor="middle" x="749" y="-141.3" font-family="Times,serif" font-size="14.00">0x58</text>
</g>
<!-- case_0x5B -->
<g id="node8" class="node">
<title>case_0x5B</title>
<polygon fill="none" stroke="black" points="927.5,-109 694.5,-109 694.5,-73 927.5,-73 927.5,-109"/>
<text text-anchor="middle" x="811" y="-87.3" font-family="Times,serif" font-size="14.00">调用 parseCsi(input, &amp;self.buf)</text>
</g>
<!-- switch_input1&#45;&gt;case_0x5B -->
<g id="edge7" class="edge">
<title>switch_input1&#45;&gt;case_0x5B</title>
<path fill="none" stroke="black" d="M811,-180.97C811,-164.38 811,-138.88 811,-119.43"/>
<polygon fill="black" stroke="black" points="814.5,-119.34 811,-109.34 807.5,-119.34 814.5,-119.34"/>
<text text-anchor="middle" x="829.5" y="-141.3" font-family="Times,serif" font-size="14.00">0x5B</text>
</g>
<!-- case_0x5D -->
<g id="node9" class="node">
<title>case_0x5D</title>
<polygon fill="none" stroke="black" points="1226,-109 946,-109 946,-73 1226,-73 1226,-109"/>
<text text-anchor="middle" x="1086" y="-87.3" font-family="Times,serif" font-size="14.00">调用 parseOsc(input, paste_allocator)</text>
</g>
<!-- switch_input1&#45;&gt;case_0x5D -->
<g id="edge8" class="edge">
<title>switch_input1&#45;&gt;case_0x5D</title>
<path fill="none" stroke="black" d="M843.35,-185.53C889.79,-167.63 975.92,-134.43 1032.08,-112.78"/>
<polygon fill="black" stroke="black" points="1033.44,-116.01 1041.51,-109.15 1030.92,-109.48 1033.44,-116.01"/>
<text text-anchor="middle" x="1008" y="-141.3" font-family="Times,serif" font-size="14.00">0x5D</text>
</g>
<!-- case_0x5E -->
<g id="node10" class="node">
<title>case_0x5E</title>
<polygon fill="none" stroke="black" points="1425.5,-109 1244.5,-109 1244.5,-73 1425.5,-73 1425.5,-109"/>
<text text-anchor="middle" x="1335" y="-87.3" font-family="Times,serif" font-size="14.00">调用 skipUntilST(input)</text>
</g>
<!-- switch_input1&#45;&gt;case_0x5E -->
<g id="edge9" class="edge">
<title>switch_input1&#45;&gt;case_0x5E</title>
<path fill="none" stroke="black" d="M871.9,-189.51C916.18,-183.04 977.49,-173.49 1031,-163 1108.84,-147.74 1197.03,-126.72 1258.3,-111.52"/>
<polygon fill="black" stroke="black" points="1259.42,-114.85 1268.28,-109.04 1257.73,-108.05 1259.42,-114.85"/>
<text text-anchor="middle" x="1206.5" y="-141.3" font-family="Times,serif" font-size="14.00">0x5E</text>
</g>
<!-- case_0x5F -->
<g id="node11" class="node">
<title>case_0x5F</title>
<polygon fill="none" stroke="black" points="1606.5,-109 1443.5,-109 1443.5,-73 1606.5,-73 1606.5,-109"/>
<text text-anchor="middle" x="1525" y="-87.3" font-family="Times,serif" font-size="14.00">调用 parseApc(input)</text>
</g>
<!-- switch_input1&#45;&gt;case_0x5F -->
<g id="edge10" class="edge">
<title>switch_input1&#45;&gt;case_0x5F</title>
<path fill="none" stroke="black" d="M904.88,-194.22C989.92,-189.83 1118.45,-180.78 1229,-163 1307.71,-150.34 1396.44,-127.95 1456.05,-111.69"/>
<polygon fill="black" stroke="black" points="1457.01,-115.05 1465.73,-109.03 1455.16,-108.3 1457.01,-115.05"/>
<text text-anchor="middle" x="1408.5" y="-141.3" font-family="Times,serif" font-size="14.00">0x5F</text>
</g>
<!-- default_case -->
<g id="node12" class="node">
<title>default_case</title>
<polygon fill="none" stroke="black" points="1825,-109 1625,-109 1625,-73 1825,-73 1825,-109"/>
<text text-anchor="middle" x="1725" y="-87.3" font-family="Times,serif" font-size="14.00">生成 Alt+&lt;char&gt; Key 事件</text>
</g>
<!-- switch_input1&#45;&gt;default_case -->
<g id="edge11" class="edge">
<title>switch_input1&#45;&gt;default_case</title>
<path fill="none" stroke="black" d="M929.06,-197.65C1054.27,-195.82 1257.56,-188.62 1431,-163 1509.94,-151.34 1598.75,-128.5 1657.9,-111.87"/>
<polygon fill="black" stroke="black" points="1659.2,-115.14 1667.86,-109.05 1657.29,-108.41 1659.2,-115.14"/>
<text text-anchor="middle" x="1613.5" y="-141.3" font-family="Times,serif" font-size="14.00">其他</text>
</g>
<!-- case_0x4F&#45;&gt;return_result -->
<g id="edge12" class="edge">
<title>case_0x4F&#45;&gt;return_result</title>
<path fill="none" stroke="black" d="M278.87,-74.23C281.61,-73.8 284.33,-73.39 287,-73 449.3,-49.35 641.37,-32.34 741.84,-24.26"/>
<polygon fill="black" stroke="black" points="742.17,-27.75 751.86,-23.47 741.62,-20.77 742.17,-27.75"/>
</g>
<!-- case_0x50&#45;&gt;return_result -->
<g id="edge13" class="edge">
<title>case_0x50&#45;&gt;return_result</title>
<path fill="none" stroke="black" d="M477.75,-74.56C480.87,-74.03 483.96,-73.51 487,-73 578.01,-57.68 683.44,-40.15 748.69,-29.32"/>
<polygon fill="black" stroke="black" points="749.51,-32.74 758.8,-27.65 748.37,-25.83 749.51,-32.74"/>
</g>
<!-- case_0x58&#45;&gt;return_result -->
<g id="edge14" class="edge">
<title>case_0x58&#45;&gt;return_result</title>
<path fill="none" stroke="black" d="M639.89,-72.99C676.61,-61.41 724.89,-46.17 760.8,-34.84"/>
<polygon fill="black" stroke="black" points="762.1,-38.1 770.58,-31.75 759.99,-31.43 762.1,-38.1"/>
</g>
<!-- case_0x5B&#45;&gt;return_result -->
<g id="edge15" class="edge">
<title>case_0x5B&#45;&gt;return_result</title>
<path fill="none" stroke="black" d="M811,-72.81C811,-64.79 811,-55.05 811,-46.07"/>
<polygon fill="black" stroke="black" points="814.5,-46.03 811,-36.03 807.5,-46.03 814.5,-46.03"/>
</g>
<!-- case_0x5D&#45;&gt;return_result -->
<g id="edge16" class="edge">
<title>case_0x5D&#45;&gt;return_result</title>
<path fill="none" stroke="black" d="M1020.13,-72.99C972.86,-60.79 909.91,-44.54 865.47,-33.06"/>
<polygon fill="black" stroke="black" points="866.28,-29.66 855.72,-30.55 864.53,-36.43 866.28,-29.66"/>
</g>
<!-- case_0x5E&#45;&gt;return_result -->
<g id="edge17" class="edge">
<title>case_0x5E&#45;&gt;return_result</title>
<path fill="none" stroke="black" d="M1244.28,-74.41C1241.15,-73.92 1238.05,-73.45 1235,-73 1108.88,-54.26 961.04,-36.35 877.46,-26.59"/>
<polygon fill="black" stroke="black" points="877.68,-23.1 867.34,-25.42 876.87,-30.05 877.68,-23.1"/>
</g>
<!-- case_0x5F&#45;&gt;return_result -->
<g id="edge18" class="edge">
<title>case_0x5F&#45;&gt;return_result</title>
<path fill="none" stroke="black" d="M1443.14,-74.18C1440.4,-73.76 1437.68,-73.37 1435,-73 1235.27,-45.56 997.54,-29.54 881.62,-22.8"/>
<polygon fill="black" stroke="black" points="881.65,-19.29 871.46,-22.21 881.24,-26.28 881.65,-19.29"/>
</g>
<!-- default_case&#45;&gt;return_result -->
<g id="edge19" class="edge">
<title>default_case&#45;&gt;return_result</title>
<path fill="none" stroke="black" d="M1624.96,-74.05C1621.94,-73.68 1618.95,-73.33 1616,-73 1345.73,-42.92 1022.42,-27.41 881.95,-21.67"/>
<polygon fill="black" stroke="black" points="881.89,-18.16 871.75,-21.25 881.6,-25.15 881.89,-18.16"/>
</g>
</g>
</svg>
