<?xml version="1.0" encoding="UTF-8" standalone="no"?>
<!DOCTYPE svg PUBLIC "-//W3C//DTD SVG 1.1//EN"
 "http://www.w3.org/Graphics/SVG/1.1/DTD/svg11.dtd">
<!-- Generated by graphviz version 2.43.0 (0)
 -->
<!-- Title: flowchart Pages: 1 -->
<svg width="764pt" height="1562pt"
 viewBox="0.00 0.00 763.92 1562.00" xmlns="http://www.w3.org/2000/svg" xmlns:xlink="http://www.w3.org/1999/xlink">
<g id="graph0" class="graph" transform="scale(1 1) rotate(0) translate(4 1558)">
<title>flowchart</title>
<!-- start -->
<g id="node1" class="node">
<title>start</title>
<ellipse fill="none" stroke="black" cx="147.98" cy="-1536" rx="140.28" ry="18"/>
<text text-anchor="middle" x="147.98" y="-1532.3" font-family="Helvetica,sans-Serif" font-size="14.00">开始 enableDetectedFeatures</text>
</g>
<!-- win_os -->
<g id="node3" class="node">
<title>win_os</title>
<polygon fill="none" stroke="black" points="147.98,-1481 0.02,-1463 147.98,-1445 295.95,-1463 147.98,-1481"/>
<text text-anchor="middle" x="147.98" y="-1459.3" font-family="Helvetica,sans-Serif" font-size="14.00">操作系统是 Windows?</text>
</g>
<!-- start&#45;&gt;win_os -->
<g id="edge1" class="edge">
<title>start&#45;&gt;win_os</title>
<path fill="none" stroke="black" d="M147.98,-1517.81C147.98,-1509.79 147.98,-1500.05 147.98,-1491.07"/>
<polygon fill="black" stroke="black" points="151.48,-1491.03 147.98,-1481.03 144.48,-1491.03 151.48,-1491.03"/>
</g>
<!-- end -->
<g id="node2" class="node">
<title>end</title>
<ellipse fill="none" stroke="black" cx="233.98" cy="-18" rx="29.5" ry="18"/>
<text text-anchor="middle" x="233.98" y="-14.3" font-family="Helvetica,sans-Serif" font-size="14.00">结束</text>
</g>
<!-- set_win_sgr -->
<g id="node4" class="node">
<title>set_win_sgr</title>
<polygon fill="none" stroke="black" points="213.48,-1340 44.48,-1340 44.48,-1304 213.48,-1304 213.48,-1340"/>
<text text-anchor="middle" x="128.98" y="-1318.3" font-family="Helvetica,sans-Serif" font-size="14.00">设置 self.sgr = .legacy</text>
</g>
<!-- win_os&#45;&gt;set_win_sgr -->
<g id="edge2" class="edge">
<title>win_os&#45;&gt;set_win_sgr</title>
<path fill="none" stroke="black" d="M145.69,-1445.23C142.47,-1421.67 136.57,-1378.49 132.71,-1350.27"/>
<polygon fill="black" stroke="black" points="136.17,-1349.7 131.34,-1340.26 129.23,-1350.64 136.17,-1349.7"/>
<text text-anchor="middle" x="151.48" y="-1415.8" font-family="Helvetica,sans-Serif" font-size="14.00">是</text>
</g>
<!-- check_termux -->
<g id="node5" class="node">
<title>check_termux</title>
<polygon fill="none" stroke="black" points="383.98,-1394 156.92,-1376 383.98,-1358 611.05,-1376 383.98,-1394"/>
<text text-anchor="middle" x="383.98" y="-1372.3" font-family="Helvetica,sans-Serif" font-size="14.00">环境变量 TERMUX_VERSION 存在?</text>
</g>
<!-- win_os&#45;&gt;check_termux -->
<g id="edge4" class="edge">
<title>win_os&#45;&gt;check_termux</title>
<path fill="none" stroke="black" d="M183.32,-1449.27C223.81,-1434.69 290.4,-1410.71 335.67,-1394.4"/>
<polygon fill="black" stroke="black" points="337.05,-1397.63 345.27,-1390.94 334.67,-1391.04 337.05,-1397.63"/>
<text text-anchor="middle" x="287.48" y="-1415.8" font-family="Helvetica,sans-Serif" font-size="14.00">否</text>
</g>
<!-- set_win_sgr&#45;&gt;end -->
<g id="edge3" class="edge">
<title>set_win_sgr&#45;&gt;end</title>
<path fill="none" stroke="black" d="M128.98,-1303.94C128.98,-1286.02 128.98,-1257.03 128.98,-1232 128.98,-1232 128.98,-1232 128.98,-90 128.98,-56.29 166.58,-37.5 196.78,-27.85"/>
<polygon fill="black" stroke="black" points="198.08,-31.11 206.67,-24.91 196.09,-24.4 198.08,-31.11"/>
</g>
<!-- set_termux_sgr -->
<g id="node6" class="node">
<title>set_termux_sgr</title>
<polygon fill="none" stroke="black" points="450.48,-1286 281.48,-1286 281.48,-1250 450.48,-1250 450.48,-1286"/>
<text text-anchor="middle" x="365.98" y="-1264.3" font-family="Helvetica,sans-Serif" font-size="14.00">设置 self.sgr = .legacy</text>
</g>
<!-- check_termux&#45;&gt;set_termux_sgr -->
<g id="edge5" class="edge">
<title>check_termux&#45;&gt;set_termux_sgr</title>
<path fill="none" stroke="black" d="M381.09,-1357.97C378.27,-1341.38 373.95,-1315.88 370.64,-1296.43"/>
<polygon fill="black" stroke="black" points="374.05,-1295.61 368.93,-1286.34 367.15,-1296.79 374.05,-1295.61"/>
<text text-anchor="middle" x="384.48" y="-1318.3" font-family="Helvetica,sans-Serif" font-size="14.00">是</text>
</g>
<!-- check_vhs -->
<g id="node7" class="node">
<title>check_vhs</title>
<polygon fill="none" stroke="black" points="468.98,-1213 273.42,-1195 468.98,-1177 664.55,-1195 468.98,-1213"/>
<text text-anchor="middle" x="468.98" y="-1191.3" font-family="Helvetica,sans-Serif" font-size="14.00">环境变量 VHS_RECORD 存在?</text>
</g>
<!-- check_termux&#45;&gt;check_vhs -->
<g id="edge6" class="edge">
<title>check_termux&#45;&gt;check_vhs</title>
<path fill="none" stroke="black" d="M402.65,-1359.45C420.73,-1343.19 447.23,-1315.9 459.98,-1286 468.48,-1266.08 470.44,-1241.5 470.43,-1223.06"/>
<polygon fill="black" stroke="black" points="473.93,-1222.93 470.24,-1213 466.93,-1223.06 473.93,-1222.93"/>
<text text-anchor="middle" x="475.48" y="-1264.3" font-family="Helvetica,sans-Serif" font-size="14.00">否</text>
</g>
<!-- set_termux_sgr&#45;&gt;check_vhs -->
<g id="edge7" class="edge">
<title>set_termux_sgr&#45;&gt;check_vhs</title>
<path fill="none" stroke="black" d="M390.66,-1249.99C404.98,-1240.12 423.16,-1227.59 438.39,-1217.09"/>
<polygon fill="black" stroke="black" points="440.72,-1219.73 446.97,-1211.18 436.75,-1213.97 440.72,-1219.73"/>
</g>
<!-- set_vhs_caps -->
<g id="node8" class="node">
<title>set_vhs_caps</title>
<polygon fill="none" stroke="black" points="459.98,-1126 191.98,-1126 191.98,-1073 459.98,-1073 459.98,-1126"/>
<text text-anchor="middle" x="325.98" y="-1110.8" font-family="Helvetica,sans-Serif" font-size="14.00">设置 self.caps.unicode = .wcwidth</text>
<text text-anchor="middle" x="325.98" y="-1095.8" font-family="Helvetica,sans-Serif" font-size="14.00">设置 self.caps.kitty_keyboard = false</text>
<text text-anchor="middle" x="325.98" y="-1080.8" font-family="Helvetica,sans-Serif" font-size="14.00">设置 self.sgr = .legacy</text>
</g>
<!-- check_vhs&#45;&gt;set_vhs_caps -->
<g id="edge8" class="edge">
<title>check_vhs&#45;&gt;set_vhs_caps</title>
<path fill="none" stroke="black" d="M446.01,-1178.98C426.52,-1166.23 397.91,-1147.53 373.52,-1131.58"/>
<polygon fill="black" stroke="black" points="375.37,-1128.61 365.09,-1126.07 371.54,-1134.47 375.37,-1128.61"/>
<text text-anchor="middle" x="421.48" y="-1147.8" font-family="Helvetica,sans-Serif" font-size="14.00">是</text>
</g>
<!-- check_term_program -->
<g id="node9" class="node">
<title>check_term_program</title>
<polygon fill="none" stroke="black" points="467.98,-1036 201.37,-1018 467.98,-1000 734.6,-1018 467.98,-1036"/>
<text text-anchor="middle" x="467.98" y="-1014.3" font-family="Helvetica,sans-Serif" font-size="14.00">环境变量 TERM_PROGRAM == &#39;vscode&#39;?</text>
</g>
<!-- check_vhs&#45;&gt;check_term_program -->
<g id="edge9" class="edge">
<title>check_vhs&#45;&gt;check_term_program</title>
<path fill="none" stroke="black" d="M469.08,-1176.77C469.2,-1153.3 469.33,-1109.97 468.98,-1073 468.9,-1064.3 468.75,-1054.81 468.59,-1046.24"/>
<polygon fill="black" stroke="black" points="472.08,-1045.95 468.38,-1036.02 465.08,-1046.09 472.08,-1045.95"/>
<text text-anchor="middle" x="476.48" y="-1095.8" font-family="Helvetica,sans-Serif" font-size="14.00">否</text>
</g>
<!-- set_vhs_caps&#45;&gt;check_term_program -->
<g id="edge10" class="edge">
<title>set_vhs_caps&#45;&gt;check_term_program</title>
<path fill="none" stroke="black" d="M371.7,-1072.91C391.12,-1062.04 413.44,-1049.54 431.7,-1039.31"/>
<polygon fill="black" stroke="black" points="433.56,-1042.29 440.57,-1034.35 430.14,-1036.18 433.56,-1042.29"/>
</g>
<!-- set_term_program_sgr -->
<g id="node10" class="node">
<title>set_term_program_sgr</title>
<polygon fill="none" stroke="black" points="462.48,-949 293.48,-949 293.48,-913 462.48,-913 462.48,-949"/>
<text text-anchor="middle" x="377.98" y="-927.3" font-family="Helvetica,sans-Serif" font-size="14.00">设置 self.sgr = .legacy</text>
</g>
<!-- check_term_program&#45;&gt;set_term_program_sgr -->
<g id="edge11" class="edge">
<title>check_term_program&#45;&gt;set_term_program_sgr</title>
<path fill="none" stroke="black" d="M451.06,-1001.01C437.7,-988.4 418.85,-970.6 403.64,-956.23"/>
<polygon fill="black" stroke="black" points="405.75,-953.4 396.07,-949.08 400.94,-958.49 405.75,-953.4"/>
<text text-anchor="middle" x="435.48" y="-970.8" font-family="Helvetica,sans-Serif" font-size="14.00">是</text>
</g>
<!-- check_force_legacy -->
<g id="node11" class="node">
<title>check_force_legacy</title>
<polygon fill="none" stroke="black" points="470.98,-876 186.11,-858 470.98,-840 755.86,-858 470.98,-876"/>
<text text-anchor="middle" x="470.98" y="-854.3" font-family="Helvetica,sans-Serif" font-size="14.00">环境变量 VAXIS_FORCE_LEGACY_SGR 存在?</text>
</g>
<!-- check_term_program&#45;&gt;check_force_legacy -->
<g id="edge12" class="edge">
<title>check_term_program&#45;&gt;check_force_legacy</title>
<path fill="none" stroke="black" d="M469.26,-999.97C470.23,-986.22 471.47,-966.38 471.98,-949 472.45,-933.01 472.13,-929 471.98,-913 471.9,-904.3 471.75,-894.81 471.59,-886.24"/>
<polygon fill="black" stroke="black" points="475.08,-885.95 471.38,-876.02 468.08,-886.09 475.08,-885.95"/>
<text text-anchor="middle" x="479.48" y="-927.3" font-family="Helvetica,sans-Serif" font-size="14.00">否</text>
</g>
<!-- set_term_program_sgr&#45;&gt;check_force_legacy -->
<g id="edge13" class="edge">
<title>set_term_program_sgr&#45;&gt;check_force_legacy</title>
<path fill="none" stroke="black" d="M400.5,-912.81C413.05,-903.23 428.82,-891.19 442.25,-880.93"/>
<polygon fill="black" stroke="black" points="444.44,-883.67 450.27,-874.82 440.2,-878.1 444.44,-883.67"/>
</g>
<!-- set_force_legacy_sgr -->
<g id="node12" class="node">
<title>set_force_legacy_sgr</title>
<polygon fill="none" stroke="black" points="468.48,-789 299.48,-789 299.48,-753 468.48,-753 468.48,-789"/>
<text text-anchor="middle" x="383.98" y="-767.3" font-family="Helvetica,sans-Serif" font-size="14.00">设置 self.sgr = .legacy</text>
</g>
<!-- check_force_legacy&#45;&gt;set_force_legacy_sgr -->
<g id="edge14" class="edge">
<title>check_force_legacy&#45;&gt;set_force_legacy_sgr</title>
<path fill="none" stroke="black" d="M454.62,-841.01C441.71,-828.4 423.49,-810.6 408.79,-796.23"/>
<polygon fill="black" stroke="black" points="411.07,-793.57 401.47,-789.08 406.18,-798.57 411.07,-793.57"/>
<text text-anchor="middle" x="439.48" y="-810.8" font-family="Helvetica,sans-Serif" font-size="14.00">是</text>
</g>
<!-- check_force_wcwidth -->
<g id="node13" class="node">
<title>check_force_wcwidth</title>
<polygon fill="none" stroke="black" points="469.98,-716 203.37,-698 469.98,-680 736.6,-698 469.98,-716"/>
<text text-anchor="middle" x="469.98" y="-694.3" font-family="Helvetica,sans-Serif" font-size="14.00">环境变量 VAXIS_FORCE_WCWIDTH 存在?</text>
</g>
<!-- check_force_legacy&#45;&gt;check_force_wcwidth -->
<g id="edge15" class="edge">
<title>check_force_legacy&#45;&gt;check_force_wcwidth</title>
<path fill="none" stroke="black" d="M473.59,-840.06C476.42,-819.48 480.24,-783.68 477.98,-753 477.33,-744.13 476.08,-734.51 474.76,-725.87"/>
<polygon fill="black" stroke="black" points="478.21,-725.26 473.15,-715.95 471.3,-726.38 478.21,-725.26"/>
<text text-anchor="middle" x="485.48" y="-767.3" font-family="Helvetica,sans-Serif" font-size="14.00">否</text>
</g>
<!-- set_force_legacy_sgr&#45;&gt;check_force_wcwidth -->
<g id="edge16" class="edge">
<title>set_force_legacy_sgr&#45;&gt;check_force_wcwidth</title>
<path fill="none" stroke="black" d="M404.8,-752.81C416.3,-743.32 430.72,-731.42 443.06,-721.23"/>
<polygon fill="black" stroke="black" points="445.34,-723.88 450.83,-714.82 440.89,-718.48 445.34,-723.88"/>
</g>
<!-- set_force_wcwidth -->
<g id="node14" class="node">
<title>set_force_wcwidth</title>
<polygon fill="none" stroke="black" points="465.98,-629 215.98,-629 215.98,-593 465.98,-593 465.98,-629"/>
<text text-anchor="middle" x="340.98" y="-607.3" font-family="Helvetica,sans-Serif" font-size="14.00">设置 self.caps.unicode = .wcwidth</text>
</g>
<!-- check_force_wcwidth&#45;&gt;set_force_wcwidth -->
<g id="edge17" class="edge">
<title>check_force_wcwidth&#45;&gt;set_force_wcwidth</title>
<path fill="none" stroke="black" d="M446.32,-681.41C426.55,-668.38 398.07,-649.61 375.7,-634.88"/>
<polygon fill="black" stroke="black" points="377.43,-631.83 367.16,-629.25 373.58,-637.67 377.43,-631.83"/>
<text text-anchor="middle" x="420.48" y="-650.8" font-family="Helvetica,sans-Serif" font-size="14.00">是</text>
</g>
<!-- check_force_unicode -->
<g id="node15" class="node">
<title>check_force_unicode</title>
<polygon fill="none" stroke="black" points="465.98,-556 203.23,-538 465.98,-520 728.74,-538 465.98,-556"/>
<text text-anchor="middle" x="465.98" y="-534.3" font-family="Helvetica,sans-Serif" font-size="14.00">环境变量 VAXIS_FORCE_UNICODE 存在?</text>
</g>
<!-- check_force_wcwidth&#45;&gt;check_force_unicode -->
<g id="edge18" class="edge">
<title>check_force_wcwidth&#45;&gt;check_force_unicode</title>
<path fill="none" stroke="black" d="M472.16,-680.04C474.48,-659.44 477.52,-623.63 474.98,-593 474.25,-584.11 472.84,-574.48 471.36,-565.85"/>
<polygon fill="black" stroke="black" points="474.79,-565.14 469.55,-555.93 467.9,-566.4 474.79,-565.14"/>
<text text-anchor="middle" x="482.48" y="-607.3" font-family="Helvetica,sans-Serif" font-size="14.00">否</text>
</g>
<!-- set_force_wcwidth&#45;&gt;check_force_unicode -->
<g id="edge19" class="edge">
<title>set_force_wcwidth&#45;&gt;check_force_unicode</title>
<path fill="none" stroke="black" d="M370.92,-592.99C388.8,-582.84 411.61,-569.89 430.4,-559.21"/>
<polygon fill="black" stroke="black" points="432.3,-562.16 439.26,-554.18 428.84,-556.07 432.3,-562.16"/>
</g>
<!-- set_force_unicode -->
<g id="node16" class="node">
<title>set_force_unicode</title>
<polygon fill="none" stroke="black" points="456.98,-469 208.98,-469 208.98,-433 456.98,-433 456.98,-469"/>
<text text-anchor="middle" x="332.98" y="-447.3" font-family="Helvetica,sans-Serif" font-size="14.00">设置 self.caps.unicode = .unicode</text>
</g>
<!-- check_force_unicode&#45;&gt;set_force_unicode -->
<g id="edge20" class="edge">
<title>check_force_unicode&#45;&gt;set_force_unicode</title>
<path fill="none" stroke="black" d="M441.9,-521.61C421.32,-508.46 391.45,-489.36 368.19,-474.5"/>
<polygon fill="black" stroke="black" points="369.94,-471.47 359.63,-469.03 366.17,-477.36 369.94,-471.47"/>
<text text-anchor="middle" x="414.48" y="-490.8" font-family="Helvetica,sans-Serif" font-size="14.00">是</text>
</g>
<!-- check_kitty_keyboard -->
<g id="node17" class="node">
<title>check_kitty_keyboard</title>
<polygon fill="none" stroke="black" points="446.98,-396 242.04,-378 446.98,-360 651.93,-378 446.98,-396"/>
<text text-anchor="middle" x="446.98" y="-374.3" font-family="Helvetica,sans-Serif" font-size="14.00">self.caps.kitty_keyboard 为真?</text>
</g>
<!-- check_force_unicode&#45;&gt;check_kitty_keyboard -->
<g id="edge21" class="edge">
<title>check_force_unicode&#45;&gt;check_kitty_keyboard</title>
<path fill="none" stroke="black" d="M467.73,-519.92C469.46,-499.19 471.15,-463.26 465.98,-433 464.4,-423.71 461.38,-413.88 458.2,-405.2"/>
<polygon fill="black" stroke="black" points="461.37,-403.69 454.48,-395.63 454.84,-406.22 461.37,-403.69"/>
<text text-anchor="middle" x="476.48" y="-447.3" font-family="Helvetica,sans-Serif" font-size="14.00">否</text>
</g>
<!-- set_force_unicode&#45;&gt;check_kitty_keyboard -->
<g id="edge22" class="edge">
<title>set_force_unicode&#45;&gt;check_kitty_keyboard</title>
<path fill="none" stroke="black" d="M360.29,-432.99C376.56,-422.86 397.3,-409.94 414.42,-399.28"/>
<polygon fill="black" stroke="black" points="416.36,-402.2 423,-393.94 412.66,-396.26 416.36,-402.2"/>
</g>
<!-- enable_kitty -->
<g id="node18" class="node">
<title>enable_kitty</title>
<polygon fill="none" stroke="black" points="419.98,-309 199.98,-309 199.98,-273 419.98,-273 419.98,-309"/>
<text text-anchor="middle" x="309.98" y="-287.3" font-family="Helvetica,sans-Serif" font-size="14.00">调用 enableKittyKeyboard(tty)</text>
</g>
<!-- check_kitty_keyboard&#45;&gt;enable_kitty -->
<g id="edge23" class="edge">
<title>check_kitty_keyboard&#45;&gt;enable_kitty</title>
<path fill="none" stroke="black" d="M422.81,-362C401.6,-348.84 370.46,-329.52 346.26,-314.51"/>
<polygon fill="black" stroke="black" points="348.03,-311.49 337.69,-309.19 344.34,-317.44 348.03,-311.49"/>
<text text-anchor="middle" x="393.48" y="-330.8" font-family="Helvetica,sans-Serif" font-size="14.00">是</text>
</g>
<!-- check_unicode_mode -->
<g id="node19" class="node">
<title>check_unicode_mode</title>
<polygon fill="none" stroke="black" points="384.98,-236 156.98,-198 384.98,-160 612.98,-198 384.98,-236"/>
<text text-anchor="middle" x="384.98" y="-201.8" font-family="Helvetica,sans-Serif" font-size="14.00">self.caps.unicode == .unicode</text>
<text text-anchor="middle" x="384.98" y="-186.8" font-family="Helvetica,sans-Serif" font-size="14.00">且 !self.caps.explicit_width?</text>
</g>
<!-- check_kitty_keyboard&#45;&gt;check_unicode_mode -->
<g id="edge24" class="edge">
<title>check_kitty_keyboard&#45;&gt;check_unicode_mode</title>
<path fill="none" stroke="black" d="M445.94,-359.94C444.23,-338.92 439.84,-302.39 428.98,-273 424.98,-262.16 419.38,-251.11 413.51,-240.97"/>
<polygon fill="black" stroke="black" points="416.47,-239.1 408.32,-232.33 410.46,-242.7 416.47,-239.1"/>
<text text-anchor="middle" x="445.48" y="-287.3" font-family="Helvetica,sans-Serif" font-size="14.00">否</text>
</g>
<!-- enable_kitty&#45;&gt;check_unicode_mode -->
<g id="edge25" class="edge">
<title>enable_kitty&#45;&gt;check_unicode_mode</title>
<path fill="none" stroke="black" d="M324.09,-272.88C331.81,-263.51 341.74,-251.47 351.33,-239.84"/>
<polygon fill="black" stroke="black" points="354.22,-241.83 357.88,-231.89 348.82,-237.38 354.22,-241.83"/>
</g>
<!-- check_unicode_mode&#45;&gt;end -->
<g id="edge27" class="edge">
<title>check_unicode_mode&#45;&gt;end</title>
<path fill="none" stroke="black" d="M317.43,-171.14C289.77,-157.03 260.26,-136.68 242.98,-109 231.33,-90.31 229.74,-65.09 230.69,-46.1"/>
<polygon fill="black" stroke="black" points="234.19,-46.24 231.46,-36 227.21,-45.71 234.19,-46.24"/>
<text text-anchor="middle" x="250.48" y="-87.3" font-family="Helvetica,sans-Serif" font-size="14.00">否</text>
</g>
<!-- write_unicode_seq -->
<g id="node20" class="node">
<title>write_unicode_seq</title>
<polygon fill="none" stroke="black" points="502.98,-109 266.98,-109 266.98,-73 502.98,-73 502.98,-109"/>
<text text-anchor="middle" x="384.98" y="-87.3" font-family="Helvetica,sans-Serif" font-size="14.00">tty.writeAll(ctlseqs.unicode_set)</text>
</g>
<!-- check_unicode_mode&#45;&gt;write_unicode_seq -->
<g id="edge26" class="edge">
<title>check_unicode_mode&#45;&gt;write_unicode_seq</title>
<path fill="none" stroke="black" d="M384.98,-159.98C384.98,-146.56 384.98,-131.65 384.98,-119.22"/>
<polygon fill="black" stroke="black" points="388.48,-119.04 384.98,-109.04 381.48,-119.04 388.48,-119.04"/>
<text text-anchor="middle" x="392.48" y="-130.8" font-family="Helvetica,sans-Serif" font-size="14.00">是</text>
</g>
<!-- write_unicode_seq&#45;&gt;end -->
<g id="edge28" class="edge">
<title>write_unicode_seq&#45;&gt;end</title>
<path fill="none" stroke="black" d="M348.82,-72.99C323.55,-61.11 290.14,-45.4 265.87,-33.99"/>
<polygon fill="black" stroke="black" points="267.27,-30.78 256.73,-29.69 264.29,-37.12 267.27,-30.78"/>
</g>
</g>
</svg>
