<?xml version="1.0" encoding="UTF-8" standalone="no"?>
<!DOCTYPE svg PUBLIC "-//W3C//DTD SVG 1.1//EN"
 "http://www.w3.org/Graphics/SVG/1.1/DTD/svg11.dtd">
<!-- Generated by graphviz version 2.43.0 (0)
 -->
<!-- Title: render_flow Pages: 1 -->
<svg width="615pt" height="1403pt"
 viewBox="0.00 0.00 615.00 1403.00" xmlns="http://www.w3.org/2000/svg" xmlns:xlink="http://www.w3.org/1999/xlink">
<g id="graph0" class="graph" transform="scale(1 1) rotate(0) translate(4 1399)">
<title>render_flow</title>
<polygon fill="white" stroke="transparent" points="-4,4 -4,-1399 611,-1399 611,4 -4,4"/>
<!-- start -->
<g id="node1" class="node">
<title>start</title>
<path fill="none" stroke="black" d="M408,-1395C408,-1395 310,-1395 310,-1395 304,-1395 298,-1389 298,-1383 298,-1383 298,-1371 298,-1371 298,-1365 304,-1359 310,-1359 310,-1359 408,-1359 408,-1359 414,-1359 420,-1365 420,-1371 420,-1371 420,-1383 420,-1383 420,-1389 414,-1395 408,-1395"/>
<text text-anchor="middle" x="359" y="-1373.3" font-family="Times,serif" font-size="14.00">开始render函数</text>
</g>
<!-- assert_check -->
<g id="node2" class="node">
<title>assert_check</title>
<path fill="none" stroke="black" d="M433.5,-1322C433.5,-1322 284.5,-1322 284.5,-1322 278.5,-1322 272.5,-1316 272.5,-1310 272.5,-1310 272.5,-1298 272.5,-1298 272.5,-1292 278.5,-1286 284.5,-1286 284.5,-1286 433.5,-1286 433.5,-1286 439.5,-1286 445.5,-1292 445.5,-1298 445.5,-1298 445.5,-1310 445.5,-1310 445.5,-1316 439.5,-1322 433.5,-1322"/>
<text text-anchor="middle" x="359" y="-1300.3" font-family="Times,serif" font-size="14.00">检查缓冲区长度和一致性</text>
</g>
<!-- start&#45;&gt;assert_check -->
<g id="edge1" class="edge">
<title>start&#45;&gt;assert_check</title>
<path fill="none" stroke="black" d="M359,-1358.81C359,-1350.79 359,-1341.05 359,-1332.07"/>
<polygon fill="black" stroke="black" points="362.5,-1332.03 359,-1322.03 355.5,-1332.03 362.5,-1332.03"/>
</g>
<!-- sync_setup -->
<g id="node3" class="node">
<title>sync_setup</title>
<path fill="none" stroke="black" d="M412.5,-1249C412.5,-1249 305.5,-1249 305.5,-1249 299.5,-1249 293.5,-1243 293.5,-1237 293.5,-1237 293.5,-1225 293.5,-1225 293.5,-1219 299.5,-1213 305.5,-1213 305.5,-1213 412.5,-1213 412.5,-1213 418.5,-1213 424.5,-1219 424.5,-1225 424.5,-1225 424.5,-1237 424.5,-1237 424.5,-1243 418.5,-1249 412.5,-1249"/>
<text text-anchor="middle" x="359" y="-1227.3" font-family="Times,serif" font-size="14.00">设置同步控制序列</text>
</g>
<!-- assert_check&#45;&gt;sync_setup -->
<g id="edge2" class="edge">
<title>assert_check&#45;&gt;sync_setup</title>
<path fill="none" stroke="black" d="M359,-1285.81C359,-1277.79 359,-1268.05 359,-1259.07"/>
<polygon fill="black" stroke="black" points="362.5,-1259.03 359,-1249.03 355.5,-1259.03 362.5,-1259.03"/>
</g>
<!-- hide_cursor -->
<g id="node4" class="node">
<title>hide_cursor</title>
<path fill="none" stroke="black" d="M384,-1176C384,-1176 334,-1176 334,-1176 328,-1176 322,-1170 322,-1164 322,-1164 322,-1152 322,-1152 322,-1146 328,-1140 334,-1140 334,-1140 384,-1140 384,-1140 390,-1140 396,-1146 396,-1152 396,-1152 396,-1164 396,-1164 396,-1170 390,-1176 384,-1176"/>
<text text-anchor="middle" x="359" y="-1154.3" font-family="Times,serif" font-size="14.00">隐藏光标</text>
</g>
<!-- sync_setup&#45;&gt;hide_cursor -->
<g id="edge3" class="edge">
<title>sync_setup&#45;&gt;hide_cursor</title>
<path fill="none" stroke="black" d="M359,-1212.81C359,-1204.79 359,-1195.05 359,-1186.07"/>
<polygon fill="black" stroke="black" points="362.5,-1186.03 359,-1176.03 355.5,-1186.03 362.5,-1186.03"/>
</g>
<!-- cursor_home -->
<g id="node5" class="node">
<title>cursor_home</title>
<path fill="none" stroke="black" d="M375.5,-1070C375.5,-1070 254.5,-1070 254.5,-1070 248.5,-1070 242.5,-1064 242.5,-1058 242.5,-1058 242.5,-1046 242.5,-1046 242.5,-1040 248.5,-1034 254.5,-1034 254.5,-1034 375.5,-1034 375.5,-1034 381.5,-1034 387.5,-1040 387.5,-1046 387.5,-1046 387.5,-1058 387.5,-1058 387.5,-1064 381.5,-1070 375.5,-1070"/>
<text text-anchor="middle" x="315" y="-1048.3" font-family="Times,serif" font-size="14.00">移动光标到起始位置</text>
</g>
<!-- hide_cursor&#45;&gt;cursor_home -->
<g id="edge4" class="edge">
<title>hide_cursor&#45;&gt;cursor_home</title>
<path fill="none" stroke="black" d="M321.96,-1145.45C311.03,-1140.13 300.31,-1132.56 294,-1122 286.12,-1108.81 290.62,-1092.42 297.44,-1078.92"/>
<polygon fill="black" stroke="black" points="300.54,-1080.54 302.41,-1070.11 294.44,-1077.1 300.54,-1080.54"/>
<text text-anchor="middle" x="345" y="-1110.8" font-family="Times,serif" font-size="14.00">alt_screen为真</text>
</g>
<!-- write_ri -->
<g id="node22" class="node">
<title>write_ri</title>
<ellipse fill="black" stroke="black" cx="417" cy="-1088.5" rx="0" ry="0"/>
</g>
<!-- hide_cursor&#45;&gt;write_ri -->
<g id="edge5" class="edge">
<title>hide_cursor&#45;&gt;write_ri</title>
<path fill="none" stroke="black" d="M382.19,-1139.9C388.44,-1134.61 394.89,-1128.46 400,-1122 405.66,-1114.85 410.25,-1105.53 413.23,-1098.62"/>
<polygon fill="black" stroke="black" points="416.59,-1099.65 416.98,-1089.06 410.07,-1097.09 416.59,-1099.65"/>
<text text-anchor="middle" x="461" y="-1110.8" font-family="Times,serif" font-size="14.00">alt_screen为假</text>
</g>
<!-- init_vars -->
<g id="node6" class="node">
<title>init_vars</title>
<path fill="none" stroke="black" d="M470,-964C470,-964 246,-964 246,-964 240,-964 234,-958 234,-952 234,-952 234,-940 234,-940 234,-934 240,-928 246,-928 246,-928 470,-928 470,-928 476,-928 482,-934 482,-940 482,-940 482,-952 482,-952 482,-958 476,-964 470,-964"/>
<text text-anchor="middle" x="358" y="-942.3" font-family="Times,serif" font-size="14.00">初始化变量(reposition, row, col等)</text>
</g>
<!-- cursor_home&#45;&gt;init_vars -->
<g id="edge8" class="edge">
<title>cursor_home&#45;&gt;init_vars</title>
<path fill="none" stroke="black" d="M322.1,-1033.83C328.89,-1017.42 339.21,-992.45 347.05,-973.49"/>
<polygon fill="black" stroke="black" points="350.3,-974.78 350.89,-964.2 343.83,-972.1 350.3,-974.78"/>
</g>
<!-- clear_images -->
<g id="node7" class="node">
<title>clear_images</title>
<path fill="none" stroke="black" d="M425.5,-877C425.5,-877 290.5,-877 290.5,-877 284.5,-877 278.5,-871 278.5,-865 278.5,-865 278.5,-853 278.5,-853 278.5,-847 284.5,-841 290.5,-841 290.5,-841 425.5,-841 425.5,-841 431.5,-841 437.5,-847 437.5,-853 437.5,-853 437.5,-865 437.5,-865 437.5,-871 431.5,-877 425.5,-877"/>
<text text-anchor="middle" x="358" y="-855.3" font-family="Times,serif" font-size="14.00">清除图像（如果支持）</text>
</g>
<!-- init_vars&#45;&gt;clear_images -->
<g id="edge9" class="edge">
<title>init_vars&#45;&gt;clear_images</title>
<path fill="none" stroke="black" d="M358,-927.8C358,-916.16 358,-900.55 358,-887.24"/>
<polygon fill="black" stroke="black" points="361.5,-887.18 358,-877.18 354.5,-887.18 361.5,-887.18"/>
<text text-anchor="middle" x="410.5" y="-898.8" font-family="Times,serif" font-size="14.00">支持kitty图形时</text>
</g>
<!-- loop_start -->
<g id="node8" class="node">
<title>loop_start</title>
<path fill="none" stroke="black" d="M432.5,-804C432.5,-804 283.5,-804 283.5,-804 277.5,-804 271.5,-798 271.5,-792 271.5,-792 271.5,-780 271.5,-780 271.5,-774 277.5,-768 283.5,-768 283.5,-768 432.5,-768 432.5,-768 438.5,-768 444.5,-774 444.5,-780 444.5,-780 444.5,-792 444.5,-792 444.5,-798 438.5,-804 432.5,-804"/>
<text text-anchor="middle" x="358" y="-782.3" font-family="Times,serif" font-size="14.00">开始循环遍历屏幕缓冲区</text>
</g>
<!-- clear_images&#45;&gt;loop_start -->
<g id="edge10" class="edge">
<title>clear_images&#45;&gt;loop_start</title>
<path fill="none" stroke="black" d="M358,-840.81C358,-832.79 358,-823.05 358,-814.07"/>
<polygon fill="black" stroke="black" points="361.5,-814.03 358,-804.03 354.5,-814.03 361.5,-814.03"/>
</g>
<!-- calc_width -->
<g id="node9" class="node">
<title>calc_width</title>
<path fill="none" stroke="black" d="M301,-717C301,-717 211,-717 211,-717 205,-717 199,-711 199,-705 199,-705 199,-693 199,-693 199,-687 205,-681 211,-681 211,-681 301,-681 301,-681 307,-681 313,-687 313,-693 313,-693 313,-705 313,-705 313,-711 307,-717 301,-717"/>
<text text-anchor="middle" x="256" y="-695.3" font-family="Times,serif" font-size="14.00">计算字符宽度w</text>
</g>
<!-- loop_start&#45;&gt;calc_width -->
<g id="edge11" class="edge">
<title>loop_start&#45;&gt;calc_width</title>
<path fill="none" stroke="black" d="M337.36,-767.8C322.15,-755.13 301.28,-737.73 284.49,-723.74"/>
<polygon fill="black" stroke="black" points="286.53,-720.89 276.61,-717.18 282.05,-726.27 286.53,-720.89"/>
</g>
<!-- loop_end -->
<g id="node18" class="node">
<title>loop_end</title>
<path fill="none" stroke="black" d="M396,-717C396,-717 346,-717 346,-717 340,-717 334,-711 334,-705 334,-705 334,-693 334,-693 334,-687 340,-681 346,-681 346,-681 396,-681 396,-681 402,-681 408,-687 408,-693 408,-693 408,-705 408,-705 408,-711 402,-717 396,-717"/>
<text text-anchor="middle" x="371" y="-695.3" font-family="Times,serif" font-size="14.00">循环结束</text>
</g>
<!-- loop_start&#45;&gt;loop_end -->
<g id="edge25" class="edge">
<title>loop_start&#45;&gt;loop_end</title>
<path fill="none" stroke="black" d="M357.04,-767.75C356.82,-758.05 357.09,-745.77 359,-735 359.48,-732.31 360.13,-729.54 360.88,-726.8"/>
<polygon fill="black" stroke="black" points="364.25,-727.76 363.93,-717.17 357.57,-725.64 364.25,-727.76"/>
<text text-anchor="middle" x="423.5" y="-738.8" font-family="Times,serif" font-size="14.00">所有单元格处理完毕</text>
</g>
<!-- handle_position -->
<g id="node10" class="node">
<title>handle_position</title>
<path fill="none" stroke="black" d="M294.5,-644C294.5,-644 187.5,-644 187.5,-644 181.5,-644 175.5,-638 175.5,-632 175.5,-632 175.5,-618 175.5,-618 175.5,-612 181.5,-606 187.5,-606 187.5,-606 294.5,-606 294.5,-606 300.5,-606 306.5,-612 306.5,-618 306.5,-618 306.5,-632 306.5,-632 306.5,-638 300.5,-644 294.5,-644"/>
<text text-anchor="middle" x="241" y="-628.8" font-family="Times,serif" font-size="14.00">处理列和行的位置</text>
<text text-anchor="middle" x="241" y="-613.8" font-family="Times,serif" font-size="14.00">检查是否需要换行</text>
</g>
<!-- calc_width&#45;&gt;handle_position -->
<g id="edge12" class="edge">
<title>calc_width&#45;&gt;handle_position</title>
<path fill="none" stroke="black" d="M252.45,-680.94C250.77,-672.9 248.73,-663.1 246.84,-654.02"/>
<polygon fill="black" stroke="black" points="250.26,-653.28 244.79,-644.2 243.4,-654.7 250.26,-653.28"/>
</g>
<!-- check_cell_changes -->
<g id="node11" class="node">
<title>check_cell_changes</title>
<path fill="none" stroke="black" d="M298.5,-569C298.5,-569 177.5,-569 177.5,-569 171.5,-569 165.5,-563 165.5,-557 165.5,-557 165.5,-543 165.5,-543 165.5,-537 171.5,-531 177.5,-531 177.5,-531 298.5,-531 298.5,-531 304.5,-531 310.5,-537 310.5,-543 310.5,-543 310.5,-557 310.5,-557 310.5,-563 304.5,-569 298.5,-569"/>
<text text-anchor="middle" x="238" y="-553.8" font-family="Times,serif" font-size="14.00">检查单元格是否变化</text>
<text text-anchor="middle" x="238" y="-538.8" font-family="Times,serif" font-size="14.00">或需要刷新</text>
</g>
<!-- handle_position&#45;&gt;check_cell_changes -->
<g id="edge13" class="edge">
<title>handle_position&#45;&gt;check_cell_changes</title>
<path fill="none" stroke="black" d="M240.26,-605.96C239.93,-597.88 239.53,-588.18 239.16,-579.18"/>
<polygon fill="black" stroke="black" points="242.65,-578.94 238.74,-569.09 235.66,-579.23 242.65,-578.94"/>
</g>
<!-- update_last_cell -->
<g id="node12" class="node">
<title>update_last_cell</title>
<path fill="none" stroke="black" d="M298.5,-480C298.5,-480 149.5,-480 149.5,-480 143.5,-480 137.5,-474 137.5,-468 137.5,-468 137.5,-456 137.5,-456 137.5,-450 143.5,-444 149.5,-444 149.5,-444 298.5,-444 298.5,-444 304.5,-444 310.5,-450 310.5,-456 310.5,-456 310.5,-468 310.5,-468 310.5,-474 304.5,-480 298.5,-480"/>
<text text-anchor="middle" x="224" y="-458.3" font-family="Times,serif" font-size="14.00">更新last_buf中的单元格</text>
</g>
<!-- check_cell_changes&#45;&gt;update_last_cell -->
<g id="edge16" class="edge">
<title>check_cell_changes&#45;&gt;update_last_cell</title>
<path fill="none" stroke="black" d="M235.03,-530.76C233.11,-518.93 230.56,-503.32 228.4,-490.05"/>
<polygon fill="black" stroke="black" points="231.84,-489.35 226.77,-480.04 224.93,-490.47 231.84,-489.35"/>
<text text-anchor="middle" x="261" y="-501.8" font-family="Times,serif" font-size="14.00">需要更新</text>
</g>
<!-- skip_cell -->
<g id="node24" class="node">
<title>skip_cell</title>
<path fill="none" stroke="black" d="M340.29,-157.39C340.29,-157.39 282.94,-144.61 282.94,-144.61 277.08,-143.31 277.08,-140.69 282.94,-139.39 282.94,-139.39 340.29,-126.61 340.29,-126.61 346.14,-125.31 357.86,-125.31 363.71,-126.61 363.71,-126.61 421.06,-139.39 421.06,-139.39 426.92,-140.69 426.92,-143.31 421.06,-144.61 421.06,-144.61 363.71,-157.39 363.71,-157.39 357.86,-158.69 346.14,-158.69 340.29,-157.39"/>
<text text-anchor="middle" x="352" y="-138.3" font-family="Times,serif" font-size="14.00">跳过单元格</text>
</g>
<!-- check_cell_changes&#45;&gt;skip_cell -->
<g id="edge14" class="edge">
<title>check_cell_changes&#45;&gt;skip_cell</title>
<path fill="none" stroke="black" d="M292.66,-530.9C321.92,-517.4 352,-495.6 352,-463 352,-463 352,-463 352,-214 352,-199.65 352,-183.67 352,-170.51"/>
<polygon fill="black" stroke="black" points="355.5,-170.22 352,-160.22 348.5,-170.22 355.5,-170.22"/>
<text text-anchor="middle" x="416.5" y="-327.8" font-family="Times,serif" font-size="14.00">无变化且不需要刷新</text>
</g>
<!-- reposition_cursor -->
<g id="node13" class="node">
<title>reposition_cursor</title>
<path fill="none" stroke="black" d="M176,-393C176,-393 12,-393 12,-393 6,-393 0,-387 0,-381 0,-381 0,-369 0,-369 0,-363 6,-357 12,-357 12,-357 176,-357 176,-357 182,-357 188,-363 188,-369 188,-369 188,-381 188,-381 188,-387 182,-393 176,-393"/>
<text text-anchor="middle" x="94" y="-371.3" font-family="Times,serif" font-size="14.00">重新定位光标（如果需要）</text>
</g>
<!-- update_last_cell&#45;&gt;reposition_cursor -->
<g id="edge17" class="edge">
<title>update_last_cell&#45;&gt;reposition_cursor</title>
<path fill="none" stroke="black" d="M154.77,-443.9C143.77,-439.25 133.06,-433.38 124,-426 116.28,-419.71 110.06,-410.87 105.33,-402.36"/>
<polygon fill="black" stroke="black" points="108.43,-400.74 100.78,-393.41 102.19,-403.91 108.43,-400.74"/>
<text text-anchor="middle" x="167" y="-414.8" font-family="Times,serif" font-size="14.00">需要重新定位</text>
</g>
<!-- handle_image -->
<g id="node14" class="node">
<title>handle_image</title>
<path fill="none" stroke="black" d="M240,-306C240,-306 162,-306 162,-306 156,-306 150,-300 150,-294 150,-294 150,-282 150,-282 150,-276 156,-270 162,-270 162,-270 240,-270 240,-270 246,-270 252,-276 252,-282 252,-282 252,-294 252,-294 252,-300 246,-306 240,-306"/>
<text text-anchor="middle" x="201" y="-284.3" font-family="Times,serif" font-size="14.00">处理图像输出</text>
</g>
<!-- update_last_cell&#45;&gt;handle_image -->
<g id="edge19" class="edge">
<title>update_last_cell&#45;&gt;handle_image</title>
<path fill="none" stroke="black" d="M221.71,-443.88C217.72,-414 209.44,-352.11 204.65,-316.27"/>
<polygon fill="black" stroke="black" points="208.07,-315.5 203.28,-306.05 201.14,-316.43 208.07,-315.5"/>
<text text-anchor="middle" x="265" y="-371.3" font-family="Times,serif" font-size="14.00">不需要重新定位</text>
</g>
<!-- reposition_cursor&#45;&gt;handle_image -->
<g id="edge18" class="edge">
<title>reposition_cursor&#45;&gt;handle_image</title>
<path fill="none" stroke="black" d="M115.65,-356.8C131.61,-344.13 153.5,-326.73 171.12,-312.74"/>
<polygon fill="black" stroke="black" points="173.73,-315.14 179.38,-306.18 169.37,-309.66 173.73,-315.14"/>
</g>
<!-- update_styles -->
<g id="node15" class="node">
<title>update_styles</title>
<path fill="none" stroke="black" d="M311.5,-233C311.5,-233 90.5,-233 90.5,-233 84.5,-233 78.5,-227 78.5,-221 78.5,-221 78.5,-209 78.5,-209 78.5,-203 84.5,-197 90.5,-197 90.5,-197 311.5,-197 311.5,-197 317.5,-197 323.5,-203 323.5,-209 323.5,-209 323.5,-221 323.5,-221 323.5,-227 317.5,-233 311.5,-233"/>
<text text-anchor="middle" x="201" y="-211.3" font-family="Times,serif" font-size="14.00">更新样式（前景、背景、下划线等）</text>
</g>
<!-- handle_image&#45;&gt;update_styles -->
<g id="edge20" class="edge">
<title>handle_image&#45;&gt;update_styles</title>
<path fill="none" stroke="black" d="M201,-269.81C201,-261.79 201,-252.05 201,-243.07"/>
<polygon fill="black" stroke="black" points="204.5,-243.03 201,-233.03 197.5,-243.03 204.5,-243.03"/>
</g>
<!-- handle_link -->
<g id="node16" class="node">
<title>handle_link</title>
<path fill="none" stroke="black" d="M237,-160C237,-160 173,-160 173,-160 167,-160 161,-154 161,-148 161,-148 161,-136 161,-136 161,-130 167,-124 173,-124 173,-124 237,-124 237,-124 243,-124 249,-130 249,-136 249,-136 249,-148 249,-148 249,-154 243,-160 237,-160"/>
<text text-anchor="middle" x="205" y="-138.3" font-family="Times,serif" font-size="14.00">处理超链接</text>
</g>
<!-- update_styles&#45;&gt;handle_link -->
<g id="edge21" class="edge">
<title>update_styles&#45;&gt;handle_link</title>
<path fill="none" stroke="black" d="M201.97,-196.81C202.42,-188.79 202.97,-179.05 203.47,-170.07"/>
<polygon fill="black" stroke="black" points="206.97,-170.21 204.04,-160.03 199.98,-169.82 206.97,-170.21"/>
</g>
<!-- write_char -->
<g id="node17" class="node">
<title>write_char</title>
<path fill="none" stroke="black" d="M287.5,-73C287.5,-73 152.5,-73 152.5,-73 146.5,-73 140.5,-67 140.5,-61 140.5,-61 140.5,-49 140.5,-49 140.5,-43 146.5,-37 152.5,-37 152.5,-37 287.5,-37 287.5,-37 293.5,-37 299.5,-43 299.5,-49 299.5,-49 299.5,-61 299.5,-61 299.5,-67 293.5,-73 287.5,-73"/>
<text text-anchor="middle" x="220" y="-51.3" font-family="Times,serif" font-size="14.00">写入字符（考虑宽度）</text>
</g>
<!-- handle_link&#45;&gt;write_char -->
<g id="edge22" class="edge">
<title>handle_link&#45;&gt;write_char</title>
<path fill="none" stroke="black" d="M208.04,-123.8C210.09,-112.16 212.84,-96.55 215.19,-83.24"/>
<polygon fill="black" stroke="black" points="218.68,-83.63 216.97,-73.18 211.78,-82.41 218.68,-83.63"/>
</g>
<!-- loop_end_step -->
<g id="node25" class="node">
<title>loop_end_step</title>
<ellipse fill="black" stroke="black" cx="405" cy="0" rx="0" ry="0"/>
</g>
<!-- write_char&#45;&gt;loop_end_step -->
<g id="edge23" class="edge">
<title>write_char&#45;&gt;loop_end_step</title>
<path fill="none" stroke="black" d="M265.88,-36.92C284.13,-30.49 305.4,-23.42 325,-18 349.66,-11.18 379.24,-5.54 394.6,-2.8"/>
<polygon fill="black" stroke="black" points="395.61,-6.17 404.87,-1.02 394.42,0.73 395.61,-6.17"/>
</g>
<!-- show_cursor -->
<g id="node19" class="node">
<title>show_cursor</title>
<path fill="none" stroke="black" d="M458.5,-643C458.5,-643 337.5,-643 337.5,-643 331.5,-643 325.5,-637 325.5,-631 325.5,-631 325.5,-619 325.5,-619 325.5,-613 331.5,-607 337.5,-607 337.5,-607 458.5,-607 458.5,-607 464.5,-607 470.5,-613 470.5,-619 470.5,-619 470.5,-631 470.5,-631 470.5,-637 464.5,-643 458.5,-643"/>
<text text-anchor="middle" x="398" y="-621.3" font-family="Times,serif" font-size="14.00">显示光标并更新状态</text>
</g>
<!-- loop_end&#45;&gt;show_cursor -->
<g id="edge26" class="edge">
<title>loop_end&#45;&gt;show_cursor</title>
<path fill="none" stroke="black" d="M377.4,-680.94C380.55,-672.54 384.42,-662.23 387.95,-652.81"/>
<polygon fill="black" stroke="black" points="391.23,-654.03 391.46,-643.44 384.67,-651.58 391.23,-654.03"/>
</g>
<!-- update_shapes -->
<g id="node20" class="node">
<title>update_shapes</title>
<path fill="none" stroke="black" d="M461.5,-568C461.5,-568 340.5,-568 340.5,-568 334.5,-568 328.5,-562 328.5,-556 328.5,-556 328.5,-544 328.5,-544 328.5,-538 334.5,-532 340.5,-532 340.5,-532 461.5,-532 461.5,-532 467.5,-532 473.5,-538 473.5,-544 473.5,-544 473.5,-556 473.5,-556 473.5,-562 467.5,-568 461.5,-568"/>
<text text-anchor="middle" x="401" y="-546.3" font-family="Times,serif" font-size="14.00">更新鼠标和光标形状</text>
</g>
<!-- show_cursor&#45;&gt;update_shapes -->
<g id="edge27" class="edge">
<title>show_cursor&#45;&gt;update_shapes</title>
<path fill="none" stroke="black" d="M398.71,-606.7C399.06,-598.25 399.48,-587.87 399.88,-578.37"/>
<polygon fill="black" stroke="black" points="403.38,-578.31 400.29,-568.18 396.39,-578.02 403.38,-578.31"/>
</g>
<!-- end -->
<g id="node21" class="node">
<title>end</title>
<path fill="none" stroke="black" d="M422,-480C422,-480 392,-480 392,-480 386,-480 380,-474 380,-468 380,-468 380,-456 380,-456 380,-450 386,-444 392,-444 392,-444 422,-444 422,-444 428,-444 434,-450 434,-456 434,-456 434,-468 434,-468 434,-474 428,-480 422,-480"/>
<text text-anchor="middle" x="407" y="-458.3" font-family="Times,serif" font-size="14.00">结束</text>
</g>
<!-- update_shapes&#45;&gt;end -->
<g id="edge28" class="edge">
<title>update_shapes&#45;&gt;end</title>
<path fill="none" stroke="black" d="M402.21,-531.6C403.04,-519.75 404.15,-503.82 405.1,-490.29"/>
<polygon fill="black" stroke="black" points="408.6,-490.3 405.81,-480.08 401.62,-489.82 408.6,-490.3"/>
</g>
<!-- cursor_home_alt -->
<g id="node23" class="node">
<title>cursor_home_alt</title>
<ellipse fill="black" stroke="black" cx="402" cy="-1015.5" rx="0" ry="0"/>
</g>
<!-- write_ri&#45;&gt;cursor_home_alt -->
<g id="edge6" class="edge">
<title>write_ri&#45;&gt;cursor_home_alt</title>
<path fill="none" stroke="black" d="M416.99,-1087.95C416.64,-1086.29 408.14,-1045.45 404.09,-1026.05"/>
<polygon fill="black" stroke="black" points="407.48,-1025.13 402.01,-1016.05 400.62,-1026.55 407.48,-1025.13"/>
</g>
<!-- cursor_home_alt&#45;&gt;init_vars -->
<g id="edge7" class="edge">
<title>cursor_home_alt&#45;&gt;init_vars</title>
<path fill="none" stroke="black" d="M401.97,-1014.95C401.2,-1013.76 386.7,-991.35 374.56,-972.59"/>
<polygon fill="black" stroke="black" points="377.4,-970.54 369.03,-964.04 371.52,-974.34 377.4,-970.54"/>
<text text-anchor="middle" x="435" y="-985.8" font-family="Times,serif" font-size="14.00">回车和RI处理</text>
</g>
<!-- skip_cell&#45;&gt;loop_end_step -->
<g id="edge15" class="edge">
<title>skip_cell&#45;&gt;loop_end_step</title>
<path fill="none" stroke="black" d="M346.58,-125.04C340.3,-103.56 332.65,-64.85 348,-37 358.07,-18.73 381.75,-8.45 395.21,-3.89"/>
<polygon fill="black" stroke="black" points="396.28,-7.22 404.88,-1.03 394.3,-0.51 396.28,-7.22"/>
<text text-anchor="middle" x="405.5" y="-51.3" font-family="Times,serif" font-size="14.00">继续下一个单元格</text>
</g>
<!-- reposition_cursor_skip -->
<g id="node26" class="node">
<title>reposition_cursor_skip</title>
<ellipse fill="black" stroke="black" cx="472" cy="-55" rx="0" ry="0"/>
</g>
<!-- skip_cell&#45;&gt;reposition_cursor_skip -->
<g id="edge29" class="edge">
<title>skip_cell&#45;&gt;reposition_cursor_skip</title>
<path fill="none" stroke="black" d="M367.22,-127.26C379.7,-116.47 398.16,-101.55 416,-91 433.48,-80.66 441.75,-85.18 458,-73 461.1,-70.68 463.93,-67.53 466.23,-64.58"/>
<polygon fill="black" stroke="black" points="469.24,-66.38 471.93,-56.13 463.44,-62.46 469.24,-66.38"/>
<text text-anchor="middle" x="452" y="-94.8" font-family="Times,serif" font-size="14.00">关闭超链接</text>
</g>
<!-- loop_end_step&#45;&gt;loop_start -->
<g id="edge24" class="edge">
<title>loop_end_step&#45;&gt;loop_start</title>
<path fill="none" stroke="black" d="M405.07,-1C408.01,-1.13 502,-5.64 502,-54 502,-700 502,-700 502,-700 502,-723.08 504.4,-733.76 488,-750 478.54,-759.37 466.85,-766.3 454.39,-771.42"/>
<polygon fill="black" stroke="black" points="452.9,-768.24 444.74,-774.99 455.33,-774.8 452.9,-768.24"/>
<text text-anchor="middle" x="554.5" y="-371.3" font-family="Times,serif" font-size="14.00">i递增，继续循环</text>
</g>
<!-- reposition_cursor_skip&#45;&gt;loop_end_step -->
<g id="edge30" class="edge">
<title>reposition_cursor_skip&#45;&gt;loop_end_step</title>
<path fill="none" stroke="black" d="M471.92,-53.88C471.15,-52.71 464.78,-43.18 458,-37 443.99,-24.22 425.13,-12.5 414.1,-6.09"/>
<polygon fill="black" stroke="black" points="415.53,-2.88 405.09,-1.05 412.11,-8.99 415.53,-2.88"/>
</g>
</g>
</svg>
