<?xml version="1.0" encoding="UTF-8" standalone="no"?>
<!DOCTYPE svg PUBLIC "-//W3C//DTD SVG 1.1//EN"
 "http://www.w3.org/Graphics/SVG/1.1/DTD/svg11.dtd">
<!-- Generated by graphviz version 2.43.0 (0)
 -->
<!-- Title: flowchart Pages: 1 -->
<svg width="891pt" height="1108pt"
 viewBox="0.00 0.00 891.45 1108.00" xmlns="http://www.w3.org/2000/svg" xmlns:xlink="http://www.w3.org/1999/xlink">
<g id="graph0" class="graph" transform="scale(1 1) rotate(0) translate(4 1104)">
<title>flowchart</title>
<polygon fill="white" stroke="transparent" points="-4,4 -4,-1104 887.45,-1104 887.45,4 -4,4"/>
<!-- start -->
<g id="node1" class="node">
<title>start</title>
<polygon fill="none" stroke="black" points="571.62,-1100 517.62,-1100 517.62,-1064 571.62,-1064 571.62,-1100"/>
<text text-anchor="middle" x="544.62" y="-1078.3" font-family="Arial" font-size="14.00">开始</text>
</g>
<!-- convert -->
<g id="node2" class="node">
<title>convert</title>
<polygon fill="none" stroke="black" points="663.62,-1027 425.62,-1027 425.62,-991 663.62,-991 663.62,-1027"/>
<text text-anchor="middle" x="544.62" y="-1005.3" font-family="Arial" font-size="14.00">类型转换: 将ptr转换为SplitView指针</text>
</g>
<!-- start&#45;&gt;convert -->
<g id="edge1" class="edge">
<title>start&#45;&gt;convert</title>
<path fill="none" stroke="black" d="M544.62,-1063.81C544.62,-1055.79 544.62,-1046.05 544.62,-1037.07"/>
<polygon fill="black" stroke="black" points="548.12,-1037.03 544.62,-1027.03 541.12,-1037.03 548.12,-1037.03"/>
</g>
<!-- set_width -->
<g id="node3" class="node">
<title>set_width</title>
<polygon fill="none" stroke="black" points="649.12,-954 440.12,-954 440.12,-918 649.12,-918 649.12,-954"/>
<text text-anchor="middle" x="544.62" y="-932.3" font-family="Arial" font-size="14.00">设置self.width和last_max_width</text>
</g>
<!-- convert&#45;&gt;set_width -->
<g id="edge2" class="edge">
<title>convert&#45;&gt;set_width</title>
<path fill="none" stroke="black" d="M544.62,-990.81C544.62,-982.79 544.62,-973.05 544.62,-964.07"/>
<polygon fill="black" stroke="black" points="548.12,-964.03 544.62,-954.03 541.12,-964.03 548.12,-964.03"/>
</g>
<!-- calc_sizes -->
<g id="node4" class="node">
<title>calc_sizes</title>
<polygon fill="none" stroke="black" points="711.62,-881 377.62,-881 377.62,-845 711.62,-845 711.62,-881"/>
<text text-anchor="middle" x="544.62" y="-859.3" font-family="Arial" font-size="14.00">计算constrained_min/max和unconstrained_min/max</text>
</g>
<!-- set_width&#45;&gt;calc_sizes -->
<g id="edge3" class="edge">
<title>set_width&#45;&gt;calc_sizes</title>
<path fill="none" stroke="black" d="M544.62,-917.81C544.62,-909.79 544.62,-900.05 544.62,-891.07"/>
<polygon fill="black" stroke="black" points="548.12,-891.03 544.62,-881.03 541.12,-891.03 548.12,-891.03"/>
</g>
<!-- init_children -->
<g id="node5" class="node">
<title>init_children</title>
<polygon fill="none" stroke="black" points="612.12,-808 477.12,-808 477.12,-772 612.12,-772 612.12,-808"/>
<text text-anchor="middle" x="544.62" y="-786.3" font-family="Arial" font-size="14.00">初始化children数组</text>
</g>
<!-- calc_sizes&#45;&gt;init_children -->
<g id="edge4" class="edge">
<title>calc_sizes&#45;&gt;init_children</title>
<path fill="none" stroke="black" d="M544.62,-844.81C544.62,-836.79 544.62,-827.05 544.62,-818.07"/>
<polygon fill="black" stroke="black" points="548.12,-818.03 544.62,-808.03 541.12,-818.03 548.12,-818.03"/>
</g>
<!-- check_constrain -->
<g id="node6" class="node">
<title>check_constrain</title>
<polygon fill="none" stroke="black" points="544.62,-735 429.83,-717 544.62,-699 659.41,-717 544.62,-735"/>
<text text-anchor="middle" x="544.62" y="-713.3" font-family="Arial" font-size="14.00">检查self.constrain</text>
</g>
<!-- init_children&#45;&gt;check_constrain -->
<g id="edge5" class="edge">
<title>init_children&#45;&gt;check_constrain</title>
<path fill="none" stroke="black" d="M544.62,-771.81C544.62,-763.79 544.62,-754.05 544.62,-745.07"/>
<polygon fill="black" stroke="black" points="548.12,-745.03 544.62,-735.03 541.12,-745.03 548.12,-745.03"/>
</g>
<!-- lhs_branch -->
<g id="node7" class="node">
<title>lhs_branch</title>
<polygon fill="none" stroke="black" points="536.12,-648 441.12,-648 441.12,-612 536.12,-612 536.12,-648"/>
<text text-anchor="middle" x="488.62" y="-626.3" font-family="Arial" font-size="14.00">处理.lhs分支</text>
</g>
<!-- check_constrain&#45;&gt;lhs_branch -->
<g id="edge6" class="edge">
<title>check_constrain&#45;&gt;lhs_branch</title>
<path fill="none" stroke="black" d="M534.35,-700.41C526.29,-688.19 514.92,-670.91 505.52,-656.66"/>
<polygon fill="black" stroke="black" points="508.41,-654.67 499.98,-648.25 502.56,-658.52 508.41,-654.67"/>
<text text-anchor="middle" x="532.62" y="-669.8" font-family="Times,serif" font-size="14.00">.lhs</text>
</g>
<!-- rhs_branch -->
<g id="node8" class="node">
<title>rhs_branch</title>
<polygon fill="none" stroke="black" points="686.62,-648 590.62,-648 590.62,-612 686.62,-612 686.62,-648"/>
<text text-anchor="middle" x="638.62" y="-626.3" font-family="Arial" font-size="14.00">处理.rhs分支</text>
</g>
<!-- check_constrain&#45;&gt;rhs_branch -->
<g id="edge7" class="edge">
<title>check_constrain&#45;&gt;rhs_branch</title>
<path fill="none" stroke="black" d="M560.99,-701.19C575.01,-688.52 595.45,-670.03 611.84,-655.21"/>
<polygon fill="black" stroke="black" points="614.45,-657.57 619.52,-648.27 609.75,-652.38 614.45,-657.57"/>
<text text-anchor="middle" x="610.62" y="-669.8" font-family="Times,serif" font-size="14.00">.rhs</text>
</g>
<!-- lhs_constrained -->
<g id="node9" class="node">
<title>lhs_constrained</title>
<polygon fill="none" stroke="black" points="275.62,-575 91.96,-557 275.62,-539 459.28,-557 275.62,-575"/>
<text text-anchor="middle" x="275.62" y="-553.3" font-family="Arial" font-size="14.00">检查constrained区域尺寸有效</text>
</g>
<!-- lhs_branch&#45;&gt;lhs_constrained -->
<g id="edge8" class="edge">
<title>lhs_branch&#45;&gt;lhs_constrained</title>
<path fill="none" stroke="black" d="M441.08,-613.15C406.45,-601.61 359.68,-586.02 324.69,-574.36"/>
<polygon fill="black" stroke="black" points="325.75,-571.02 315.16,-571.18 323.54,-577.66 325.75,-571.02"/>
</g>
<!-- rhs_unconstrained -->
<g id="node13" class="node">
<title>rhs_unconstrained</title>
<polygon fill="none" stroke="black" points="674.62,-575 476.88,-557 674.62,-539 872.36,-557 674.62,-575"/>
<text text-anchor="middle" x="674.62" y="-553.3" font-family="Arial" font-size="14.00">检查unconstrained区域尺寸有效</text>
</g>
<!-- rhs_branch&#45;&gt;rhs_unconstrained -->
<g id="edge15" class="edge">
<title>rhs_branch&#45;&gt;rhs_unconstrained</title>
<path fill="none" stroke="black" d="M647.33,-611.81C651.64,-603.32 656.93,-592.9 661.69,-583.49"/>
<polygon fill="black" stroke="black" points="664.83,-585.04 666.23,-574.54 658.59,-581.88 664.83,-585.04"/>
</g>
<!-- lhs_draw_constrained -->
<g id="node10" class="node">
<title>lhs_draw_constrained</title>
<polygon fill="none" stroke="black" points="303.62,-488 31.62,-488 31.62,-452 303.62,-452 303.62,-488"/>
<text text-anchor="middle" x="167.62" y="-466.3" font-family="Arial" font-size="14.00">调用lhs.draw生成surface并添加到children</text>
</g>
<!-- lhs_constrained&#45;&gt;lhs_draw_constrained -->
<g id="edge9" class="edge">
<title>lhs_constrained&#45;&gt;lhs_draw_constrained</title>
<path fill="none" stroke="black" d="M256.31,-540.8C239.93,-527.91 216.15,-509.2 197.34,-494.39"/>
<polygon fill="black" stroke="black" points="199.38,-491.54 189.36,-488.11 195.05,-497.04 199.38,-491.54"/>
<text text-anchor="middle" x="243.12" y="-509.8" font-family="Times,serif" font-size="14.00">有效</text>
</g>
<!-- lhs_unconstrained -->
<g id="node11" class="node">
<title>lhs_unconstrained</title>
<polygon fill="none" stroke="black" points="197.62,-415 -0.12,-397 197.62,-379 395.36,-397 197.62,-415"/>
<text text-anchor="middle" x="197.62" y="-393.3" font-family="Arial" font-size="14.00">检查unconstrained区域尺寸有效</text>
</g>
<!-- lhs_constrained&#45;&gt;lhs_unconstrained -->
<g id="edge10" class="edge">
<title>lhs_constrained&#45;&gt;lhs_unconstrained</title>
<path fill="none" stroke="black" d="M289.5,-540.22C306.43,-518.95 330.7,-480.47 312.62,-452 301.13,-433.92 281.82,-421.79 262.26,-413.69"/>
<polygon fill="black" stroke="black" points="263.26,-410.33 252.67,-410.03 260.77,-416.87 263.26,-410.33"/>
<text text-anchor="middle" x="334.12" y="-466.3" font-family="Times,serif" font-size="14.00">无效</text>
</g>
<!-- lhs_draw_constrained&#45;&gt;lhs_unconstrained -->
<g id="edge11" class="edge">
<title>lhs_draw_constrained&#45;&gt;lhs_unconstrained</title>
<path fill="none" stroke="black" d="M174.88,-451.81C178.43,-443.41 182.78,-433.11 186.72,-423.79"/>
<polygon fill="black" stroke="black" points="189.96,-425.11 190.63,-414.54 183.51,-422.39 189.96,-425.11"/>
</g>
<!-- lhs_draw_unconstrained -->
<g id="node12" class="node">
<title>lhs_draw_unconstrained</title>
<polygon fill="none" stroke="black" points="310.62,-328 36.62,-328 36.62,-292 310.62,-292 310.62,-328"/>
<text text-anchor="middle" x="173.62" y="-306.3" font-family="Arial" font-size="14.00">调用rhs.draw生成surface并添加到children</text>
</g>
<!-- lhs_unconstrained&#45;&gt;lhs_draw_unconstrained -->
<g id="edge12" class="edge">
<title>lhs_unconstrained&#45;&gt;lhs_draw_unconstrained</title>
<path fill="none" stroke="black" d="M192.88,-379.21C189.55,-367.41 185.02,-351.38 181.19,-337.82"/>
<polygon fill="black" stroke="black" points="184.52,-336.72 178.43,-328.05 177.78,-338.62 184.52,-336.72"/>
<text text-anchor="middle" x="202.12" y="-349.8" font-family="Times,serif" font-size="14.00">有效</text>
</g>
<!-- create_surface -->
<g id="node17" class="node">
<title>create_surface</title>
<polygon fill="none" stroke="black" points="490.62,-255 386.62,-255 386.62,-219 490.62,-219 490.62,-255"/>
<text text-anchor="middle" x="438.62" y="-233.3" font-family="Arial" font-size="14.00">创建主surface</text>
</g>
<!-- lhs_unconstrained&#45;&gt;create_surface -->
<g id="edge13" class="edge">
<title>lhs_unconstrained&#45;&gt;create_surface</title>
<path fill="none" stroke="black" d="M228.63,-381.71C254.19,-369.24 290.79,-349.78 319.62,-328 337.67,-314.36 338.04,-306.25 355.62,-292 369.55,-280.71 385.92,-269.65 400.42,-260.51"/>
<polygon fill="black" stroke="black" points="402.51,-263.33 409.16,-255.08 398.82,-257.38 402.51,-263.33"/>
<text text-anchor="middle" x="370.12" y="-306.3" font-family="Times,serif" font-size="14.00">无效</text>
</g>
<!-- lhs_draw_unconstrained&#45;&gt;create_surface -->
<g id="edge14" class="edge">
<title>lhs_draw_unconstrained&#45;&gt;create_surface</title>
<path fill="none" stroke="black" d="M237.09,-291.99C279.34,-280.68 334.57,-265.88 376.52,-254.64"/>
<polygon fill="black" stroke="black" points="377.59,-257.97 386.34,-252.01 375.78,-251.21 377.59,-257.97"/>
</g>
<!-- rhs_draw_unconstrained -->
<g id="node14" class="node">
<title>rhs_draw_unconstrained</title>
<polygon fill="none" stroke="black" points="682.62,-488 410.62,-488 410.62,-452 682.62,-452 682.62,-488"/>
<text text-anchor="middle" x="546.62" y="-466.3" font-family="Arial" font-size="14.00">调用lhs.draw生成surface并添加到children</text>
</g>
<!-- rhs_unconstrained&#45;&gt;rhs_draw_unconstrained -->
<g id="edge16" class="edge">
<title>rhs_unconstrained&#45;&gt;rhs_draw_unconstrained</title>
<path fill="none" stroke="black" d="M652.03,-541C632.39,-527.96 603.63,-508.86 581.11,-493.9"/>
<polygon fill="black" stroke="black" points="582.77,-490.81 572.51,-488.19 578.9,-496.64 582.77,-490.81"/>
<text text-anchor="middle" x="632.12" y="-509.8" font-family="Times,serif" font-size="14.00">有效</text>
</g>
<!-- rhs_constrained -->
<g id="node15" class="node">
<title>rhs_constrained</title>
<polygon fill="none" stroke="black" points="699.62,-415 515.96,-397 699.62,-379 883.28,-397 699.62,-415"/>
<text text-anchor="middle" x="699.62" y="-393.3" font-family="Arial" font-size="14.00">检查constrained区域尺寸有效</text>
</g>
<!-- rhs_unconstrained&#45;&gt;rhs_constrained -->
<g id="edge17" class="edge">
<title>rhs_unconstrained&#45;&gt;rhs_constrained</title>
<path fill="none" stroke="black" d="M679.55,-539.39C683.41,-525.71 688.63,-505.76 691.62,-488 695.15,-467.02 697.19,-443.01 698.32,-425.07"/>
<polygon fill="black" stroke="black" points="701.82,-425.21 698.9,-415.02 694.83,-424.8 701.82,-425.21"/>
<text text-anchor="middle" x="710.12" y="-466.3" font-family="Times,serif" font-size="14.00">无效</text>
</g>
<!-- rhs_draw_unconstrained&#45;&gt;rhs_constrained -->
<g id="edge18" class="edge">
<title>rhs_draw_unconstrained&#45;&gt;rhs_constrained</title>
<path fill="none" stroke="black" d="M583.27,-451.99C606.37,-441.27 636.2,-427.43 659.87,-416.45"/>
<polygon fill="black" stroke="black" points="661.34,-419.62 668.94,-412.24 658.39,-413.27 661.34,-419.62"/>
</g>
<!-- rhs_draw_constrained -->
<g id="node16" class="node">
<title>rhs_draw_constrained</title>
<polygon fill="none" stroke="black" points="667.62,-328 393.62,-328 393.62,-292 667.62,-292 667.62,-328"/>
<text text-anchor="middle" x="530.62" y="-306.3" font-family="Arial" font-size="14.00">调用rhs.draw生成surface并添加到children</text>
</g>
<!-- rhs_constrained&#45;&gt;rhs_draw_constrained -->
<g id="edge19" class="edge">
<title>rhs_constrained&#45;&gt;rhs_draw_constrained</title>
<path fill="none" stroke="black" d="M670.95,-381.58C644.32,-368.19 604.31,-348.06 573.81,-332.72"/>
<polygon fill="black" stroke="black" points="575.19,-329.5 564.68,-328.13 572.04,-335.75 575.19,-329.5"/>
<text text-anchor="middle" x="639.12" y="-349.8" font-family="Times,serif" font-size="14.00">有效</text>
</g>
<!-- rhs_constrained&#45;&gt;create_surface -->
<g id="edge20" class="edge">
<title>rhs_constrained&#45;&gt;create_surface</title>
<path fill="none" stroke="black" d="M700.99,-379.03C701.86,-356.04 699.7,-315.21 676.62,-292 652.31,-267.56 562.78,-252.38 500.74,-244.55"/>
<polygon fill="black" stroke="black" points="501,-241.06 490.65,-243.31 500.15,-248.01 501,-241.06"/>
<text text-anchor="middle" x="710.12" y="-306.3" font-family="Times,serif" font-size="14.00">无效</text>
</g>
<!-- rhs_draw_constrained&#45;&gt;create_surface -->
<g id="edge21" class="edge">
<title>rhs_draw_constrained&#45;&gt;create_surface</title>
<path fill="none" stroke="black" d="M508.35,-291.81C496.48,-282.66 481.72,-271.26 468.83,-261.32"/>
<polygon fill="black" stroke="black" points="470.74,-258.37 460.68,-255.03 466.46,-263.91 470.74,-258.37"/>
</g>
<!-- draw_separator -->
<g id="node18" class="node">
<title>draw_separator</title>
<polygon fill="none" stroke="black" points="504.12,-182 373.12,-182 373.12,-146 504.12,-146 504.12,-182"/>
<text text-anchor="middle" x="438.62" y="-160.3" font-family="Arial" font-size="14.00">循环绘制分隔线&#39;│&#39;</text>
</g>
<!-- create_surface&#45;&gt;draw_separator -->
<g id="edge22" class="edge">
<title>create_surface&#45;&gt;draw_separator</title>
<path fill="none" stroke="black" d="M438.62,-218.81C438.62,-210.79 438.62,-201.05 438.62,-192.07"/>
<polygon fill="black" stroke="black" points="442.12,-192.03 438.62,-182.03 435.12,-192.03 442.12,-192.03"/>
</g>
<!-- return_surface -->
<g id="node19" class="node">
<title>return_surface</title>
<polygon fill="none" stroke="black" points="483.12,-109 394.12,-109 394.12,-73 483.12,-73 483.12,-109"/>
<text text-anchor="middle" x="438.62" y="-87.3" font-family="Arial" font-size="14.00">返回surface</text>
</g>
<!-- draw_separator&#45;&gt;return_surface -->
<g id="edge23" class="edge">
<title>draw_separator&#45;&gt;return_surface</title>
<path fill="none" stroke="black" d="M438.62,-145.81C438.62,-137.79 438.62,-128.05 438.62,-119.07"/>
<polygon fill="black" stroke="black" points="442.12,-119.03 438.62,-109.03 435.12,-119.03 442.12,-119.03"/>
</g>
<!-- end -->
<g id="node20" class="node">
<title>end</title>
<polygon fill="none" stroke="black" points="465.62,-36 411.62,-36 411.62,0 465.62,0 465.62,-36"/>
<text text-anchor="middle" x="438.62" y="-14.3" font-family="Arial" font-size="14.00">结束</text>
</g>
<!-- return_surface&#45;&gt;end -->
<g id="edge24" class="edge">
<title>return_surface&#45;&gt;end</title>
<path fill="none" stroke="black" d="M438.62,-72.81C438.62,-64.79 438.62,-55.05 438.62,-46.07"/>
<polygon fill="black" stroke="black" points="442.12,-46.03 438.62,-36.03 435.12,-46.03 442.12,-46.03"/>
</g>
</g>
</svg>
