<?xml version="1.0" encoding="UTF-8" standalone="no"?>
<!DOCTYPE svg PUBLIC "-//W3C//DTD SVG 1.1//EN"
 "http://www.w3.org/Graphics/SVG/1.1/DTD/svg11.dtd">
<!-- Generated by graphviz version 2.43.0 (0)
 -->
<!-- Title: G Pages: 1 -->
<svg width="1462pt" height="932pt"
 viewBox="0.00 0.00 1462.22 932.00" xmlns="http://www.w3.org/2000/svg" xmlns:xlink="http://www.w3.org/1999/xlink">
<g id="graph0" class="graph" transform="scale(1 1) rotate(0) translate(4 928)">
<title>G</title>
<polygon fill="white" stroke="transparent" points="-4,4 -4,-928 1458.22,-928 1458.22,4 -4,4"/>
<!-- start -->
<g id="node1" class="node">
<title>start</title>
<polygon fill="none" stroke="black" points="197.66,-924 35.66,-924 35.66,-888 197.66,-888 197.66,-924"/>
<text text-anchor="middle" x="116.66" y="-902.9" font-family="Courier,monospace" font-size="12.00">开始处理handleCapture</text>
</g>
<!-- event_switch -->
<g id="node2" class="node">
<title>event_switch</title>
<polygon fill="none" stroke="black" points="116.66,-851 39.19,-833 116.66,-815 194.12,-833 116.66,-851"/>
<text text-anchor="middle" x="116.66" y="-829.9" font-family="Courier,monospace" font-size="12.00">检查事件类型</text>
</g>
<!-- start&#45;&gt;event_switch -->
<g id="edge1" class="edge">
<title>start&#45;&gt;event_switch</title>
<path fill="none" stroke="black" d="M116.66,-887.81C116.66,-879.79 116.66,-870.05 116.66,-861.07"/>
<polygon fill="black" stroke="black" points="120.16,-861.03 116.66,-851.03 113.16,-861.03 120.16,-861.03"/>
</g>
<!-- mouse_event -->
<g id="node3" class="node">
<title>mouse_event</title>
<polygon fill="none" stroke="black" points="116.66,-768 -0.16,-750 116.66,-732 233.47,-750 116.66,-768"/>
<text text-anchor="middle" x="116.66" y="-746.9" font-family="Courier,monospace" font-size="12.00">事件是.mouse类型？</text>
</g>
<!-- event_switch&#45;&gt;mouse_event -->
<g id="edge2" class="edge">
<title>event_switch&#45;&gt;mouse_event</title>
<path fill="none" stroke="black" d="M116.66,-814.82C116.66,-804.19 116.66,-790.31 116.66,-778.2"/>
<polygon fill="black" stroke="black" points="120.16,-778.15 116.66,-768.15 113.16,-778.15 120.16,-778.15"/>
<text text-anchor="middle" x="121.66" y="-789" font-family="Courier,monospace" font-size="10.00">是</text>
</g>
<!-- process_vertical_thumb -->
<g id="node4" class="node">
<title>process_vertical_thumb</title>
<polygon fill="none" stroke="black" points="460.16,-685 347.16,-685 347.16,-649 460.16,-649 460.16,-685"/>
<text text-anchor="middle" x="403.66" y="-663.9" font-family="Courier,monospace" font-size="12.00">处理垂直滑块拖动</text>
</g>
<!-- mouse_event&#45;&gt;process_vertical_thumb -->
<g id="edge3" class="edge">
<title>mouse_event&#45;&gt;process_vertical_thumb</title>
<path fill="none" stroke="black" d="M155.66,-737.99C202.22,-724.85 280.82,-702.67 337.06,-686.8"/>
<polygon fill="black" stroke="black" points="338.26,-690.09 346.94,-684.01 336.36,-683.36 338.26,-690.09"/>
<text text-anchor="middle" x="282.66" y="-706" font-family="Courier,monospace" font-size="10.00">是</text>
</g>
<!-- end -->
<g id="node22" class="node">
<title>end</title>
<polygon fill="none" stroke="black" points="632.16,-36 567.16,-36 567.16,0 632.16,0 632.16,-36"/>
<text text-anchor="middle" x="599.66" y="-14.9" font-family="Courier,monospace" font-size="12.00">处理结束</text>
</g>
<!-- mouse_event&#45;&gt;end -->
<g id="edge4" class="edge">
<title>mouse_event&#45;&gt;end</title>
<path fill="none" stroke="black" d="M111.51,-732.74C106.83,-716.52 100.66,-690.79 100.66,-668 100.66,-668 100.66,-668 100.66,-90 100.66,-44.09 436.07,-25.73 556.91,-20.61"/>
<polygon fill="black" stroke="black" points="557.07,-24.11 566.92,-20.2 556.78,-17.11 557.07,-24.11"/>
<text text-anchor="middle" x="105.66" y="-384" font-family="Courier,monospace" font-size="10.00">否</text>
</g>
<!-- check_vertical_dragging -->
<g id="node5" class="node">
<title>check_vertical_dragging</title>
<polygon fill="none" stroke="black" points="403.66,-529 179.68,-511 403.66,-493 627.63,-511 403.66,-529"/>
<text text-anchor="middle" x="403.66" y="-507.9" font-family="Courier,monospace" font-size="12.00">self.is_dragging_vertical_thumb?</text>
</g>
<!-- process_vertical_thumb&#45;&gt;check_vertical_dragging -->
<g id="edge5" class="edge">
<title>process_vertical_thumb&#45;&gt;check_vertical_dragging</title>
<path fill="none" stroke="black" d="M403.66,-648.93C403.66,-622.45 403.66,-571.22 403.66,-539.49"/>
<polygon fill="black" stroke="black" points="407.16,-539.15 403.66,-529.15 400.16,-539.15 407.16,-539.15"/>
</g>
<!-- process_horizontal_thumb -->
<g id="node14" class="node">
<title>process_horizontal_thumb</title>
<polygon fill="none" stroke="black" points="793.16,-602 680.16,-602 680.16,-566 793.16,-566 793.16,-602"/>
<text text-anchor="middle" x="736.66" y="-580.9" font-family="Courier,monospace" font-size="12.00">处理水平滑块拖动</text>
</g>
<!-- process_vertical_thumb&#45;&gt;process_horizontal_thumb -->
<g id="edge17" class="edge">
<title>process_vertical_thumb&#45;&gt;process_horizontal_thumb</title>
<path fill="none" stroke="black" d="M460.52,-652.17C518.59,-638.04 608.69,-616.13 670.05,-601.2"/>
<polygon fill="black" stroke="black" points="671.14,-604.54 680.02,-598.78 669.48,-597.74 671.14,-604.54"/>
<text text-anchor="middle" x="620.16" y="-623" font-family="Courier,monospace" font-size="10.00">垂直处理完成</text>
</g>
<!-- mouse_release_vertical -->
<g id="node6" class="node">
<title>mouse_release_vertical</title>
<polygon fill="none" stroke="black" points="597.66,-446 413.03,-428 597.66,-410 782.28,-428 597.66,-446"/>
<text text-anchor="middle" x="597.66" y="-424.9" font-family="Courier,monospace" font-size="12.00">mouse.type是.release且左键？</text>
</g>
<!-- check_vertical_dragging&#45;&gt;mouse_release_vertical -->
<g id="edge6" class="edge">
<title>check_vertical_dragging&#45;&gt;mouse_release_vertical</title>
<path fill="none" stroke="black" d="M437.89,-495.71C470.51,-482.09 519.71,-461.55 554.89,-446.86"/>
<polygon fill="black" stroke="black" points="556.53,-449.96 564.41,-442.88 553.83,-443.5 556.53,-449.96"/>
<text text-anchor="middle" x="517.66" y="-467" font-family="Courier,monospace" font-size="10.00">是</text>
</g>
<!-- mouse_drag_vertical -->
<g id="node11" class="node">
<title>mouse_drag_vertical</title>
<polygon fill="none" stroke="black" points="261.66,-446 128.26,-428 261.66,-410 395.05,-428 261.66,-446"/>
<text text-anchor="middle" x="261.66" y="-424.9" font-family="Courier,monospace" font-size="12.00">mouse.type是.drag？</text>
</g>
<!-- check_vertical_dragging&#45;&gt;mouse_drag_vertical -->
<g id="edge7" class="edge">
<title>check_vertical_dragging&#45;&gt;mouse_drag_vertical</title>
<path fill="none" stroke="black" d="M377.28,-494.95C353.99,-481.67 319.94,-462.24 294.81,-447.91"/>
<polygon fill="black" stroke="black" points="296.42,-444.8 286,-442.88 292.95,-450.88 296.42,-444.8"/>
<text text-anchor="middle" x="346.66" y="-467" font-family="Courier,monospace" font-size="10.00">否</text>
</g>
<!-- stop_vertical_drag -->
<g id="node7" class="node">
<title>stop_vertical_drag</title>
<polygon fill="none" stroke="black" points="659.16,-363 536.16,-363 536.16,-327 659.16,-327 659.16,-363"/>
<text text-anchor="middle" x="597.66" y="-348.4" font-family="Courier,monospace" font-size="12.00">停止垂直拖动</text>
<text text-anchor="middle" x="597.66" y="-335.4" font-family="Courier,monospace" font-size="12.00">设置redraw=true</text>
</g>
<!-- mouse_release_vertical&#45;&gt;stop_vertical_drag -->
<g id="edge8" class="edge">
<title>mouse_release_vertical&#45;&gt;stop_vertical_drag</title>
<path fill="none" stroke="black" d="M597.66,-409.82C597.66,-399.19 597.66,-385.31 597.66,-373.2"/>
<polygon fill="black" stroke="black" points="601.16,-373.15 597.66,-363.15 594.16,-373.15 601.16,-373.15"/>
<text text-anchor="middle" x="602.66" y="-384" font-family="Courier,monospace" font-size="10.00">是</text>
</g>
<!-- check_hover_vertical -->
<g id="node8" class="node">
<title>check_hover_vertical</title>
<polygon fill="none" stroke="black" points="759.66,-290 651.01,-272 759.66,-254 868.3,-272 759.66,-290"/>
<text text-anchor="middle" x="759.66" y="-268.9" font-family="Courier,monospace" font-size="12.00">鼠标在垂直滑块上？</text>
</g>
<!-- stop_vertical_drag&#45;&gt;check_hover_vertical -->
<g id="edge9" class="edge">
<title>stop_vertical_drag&#45;&gt;check_hover_vertical</title>
<path fill="none" stroke="black" d="M636.46,-326.99C662.36,-315.64 696.24,-300.8 721.91,-289.54"/>
<polygon fill="black" stroke="black" points="723.56,-292.64 731.32,-285.42 720.75,-286.23 723.56,-292.64"/>
</g>
<!-- unset_hover_vertical -->
<g id="node9" class="node">
<title>unset_hover_vertical</title>
<polygon fill="none" stroke="black" points="869.16,-182 746.16,-182 746.16,-146 869.16,-146 869.16,-182"/>
<text text-anchor="middle" x="807.66" y="-167.4" font-family="Courier,monospace" font-size="12.00">取消悬停状态</text>
<text text-anchor="middle" x="807.66" y="-154.4" font-family="Courier,monospace" font-size="12.00">设置redraw=true</text>
</g>
<!-- check_hover_vertical&#45;&gt;unset_hover_vertical -->
<g id="edge10" class="edge">
<title>check_hover_vertical&#45;&gt;unset_hover_vertical</title>
<path fill="none" stroke="black" d="M766.95,-254.9C774.56,-238.08 786.64,-211.41 795.67,-191.48"/>
<polygon fill="black" stroke="black" points="798.88,-192.86 799.82,-182.31 792.5,-189.97 798.88,-192.86"/>
<text text-anchor="middle" x="795.66" y="-215.5" font-family="Courier,monospace" font-size="10.00">否</text>
</g>
<!-- consume_event -->
<g id="node10" class="node">
<title>consume_event</title>
<polygon fill="none" stroke="black" points="837.66,-109 661.66,-109 661.66,-73 837.66,-73 837.66,-109"/>
<text text-anchor="middle" x="749.66" y="-87.9" font-family="Courier,monospace" font-size="12.00">调用ctx.consumeEvent()</text>
</g>
<!-- check_hover_vertical&#45;&gt;consume_event -->
<g id="edge12" class="edge">
<title>check_hover_vertical&#45;&gt;consume_event</title>
<path fill="none" stroke="black" d="M751.02,-255.35C739.09,-231.8 719.86,-185.79 727.66,-146 729.45,-136.86 732.79,-127.32 736.34,-118.84"/>
<polygon fill="black" stroke="black" points="739.65,-120.02 740.52,-109.46 733.25,-117.17 739.65,-120.02"/>
<text text-anchor="middle" x="732.66" y="-161.5" font-family="Courier,monospace" font-size="10.00">是</text>
</g>
<!-- unset_hover_vertical&#45;&gt;consume_event -->
<g id="edge11" class="edge">
<title>unset_hover_vertical&#45;&gt;consume_event</title>
<path fill="none" stroke="black" d="M793.62,-145.81C786.56,-137.18 777.88,-126.56 770.11,-117.03"/>
<polygon fill="black" stroke="black" points="772.6,-114.56 763.57,-109.03 767.18,-118.99 772.6,-114.56"/>
</g>
<!-- consume_event&#45;&gt;end -->
<g id="edge13" class="edge">
<title>consume_event&#45;&gt;end</title>
<path fill="none" stroke="black" d="M707.87,-72.99C686.3,-63.27 660.21,-50.99 639,-40.59"/>
<polygon fill="black" stroke="black" points="640.46,-37.4 629.94,-36.11 637.36,-43.68 640.46,-37.4"/>
</g>
<!-- consume_event&#45;&gt;end -->
<g id="edge26" class="edge">
<title>consume_event&#45;&gt;end</title>
<path fill="none" stroke="black" d="M719.59,-72.99C697.1,-61.79 666.23,-47.18 641.38,-35.98"/>
<polygon fill="black" stroke="black" points="642.74,-32.75 632.18,-31.87 639.88,-39.14 642.74,-32.75"/>
</g>
<!-- process_vertical_drag -->
<g id="node12" class="node">
<title>process_vertical_drag</title>
<polygon fill="none" stroke="black" points="441.66,-363 235.66,-363 235.66,-327 441.66,-327 441.66,-363"/>
<text text-anchor="middle" x="338.66" y="-348.4" font-family="Courier,monospace" font-size="12.00">计算新滑块位置</text>
<text text-anchor="middle" x="338.66" y="-335.4" font-family="Courier,monospace" font-size="12.00">更新scroll_view.scroll.top</text>
</g>
<!-- mouse_drag_vertical&#45;&gt;process_vertical_drag -->
<g id="edge14" class="edge">
<title>mouse_drag_vertical&#45;&gt;process_vertical_drag</title>
<path fill="none" stroke="black" d="M276.14,-411.76C287.14,-400.2 302.49,-384.05 315.23,-370.65"/>
<polygon fill="black" stroke="black" points="318.02,-372.79 322.37,-363.13 312.95,-367.97 318.02,-372.79"/>
<text text-anchor="middle" x="310.66" y="-384" font-family="Courier,monospace" font-size="10.00">是</text>
</g>
<!-- consume_and_redraw -->
<g id="node13" class="node">
<title>consume_and_redraw</title>
<polygon fill="none" stroke="black" points="702.66,-236 496.66,-236 496.66,-200 702.66,-200 702.66,-236"/>
<text text-anchor="middle" x="599.66" y="-214.9" font-family="Courier,monospace" font-size="12.00">调用ctx.consumeAndRedraw()</text>
</g>
<!-- process_vertical_drag&#45;&gt;consume_and_redraw -->
<g id="edge15" class="edge">
<title>process_vertical_drag&#45;&gt;consume_and_redraw</title>
<path fill="none" stroke="black" d="M374.4,-326.88C421.32,-304.41 503.7,-264.96 554.77,-240.5"/>
<polygon fill="black" stroke="black" points="556.42,-243.59 563.93,-236.11 553.4,-237.27 556.42,-243.59"/>
</g>
<!-- consume_and_redraw&#45;&gt;end -->
<g id="edge16" class="edge">
<title>consume_and_redraw&#45;&gt;end</title>
<path fill="none" stroke="black" d="M595.64,-199.78C592.29,-165.31 592.02,-87.65 594.83,-46.22"/>
<polygon fill="black" stroke="black" points="598.34,-46.29 595.66,-36.04 591.36,-45.73 598.34,-46.29"/>
</g>
<!-- consume_and_redraw&#45;&gt;end -->
<g id="edge29" class="edge">
<title>consume_and_redraw&#45;&gt;end</title>
<path fill="none" stroke="black" d="M603.67,-199.78C607.02,-165.31 607.3,-87.65 604.48,-46.22"/>
<polygon fill="black" stroke="black" points="607.95,-45.73 603.65,-36.04 600.98,-46.29 607.95,-45.73"/>
</g>
<!-- check_horizontal_dragging -->
<g id="node15" class="node">
<title>check_horizontal_dragging</title>
<polygon fill="none" stroke="black" points="933.66,-529 697.07,-511 933.66,-493 1170.25,-511 933.66,-529"/>
<text text-anchor="middle" x="933.66" y="-507.9" font-family="Courier,monospace" font-size="12.00">self.is_dragging_horizontal_thumb?</text>
</g>
<!-- process_horizontal_thumb&#45;&gt;check_horizontal_dragging -->
<g id="edge18" class="edge">
<title>process_horizontal_thumb&#45;&gt;check_horizontal_dragging</title>
<path fill="none" stroke="black" d="M783.84,-565.99C814.35,-555 853.97,-540.72 884.8,-529.61"/>
<polygon fill="black" stroke="black" points="886.25,-532.8 894.48,-526.12 883.88,-526.22 886.25,-532.8"/>
</g>
<!-- mouse_release_horizontal -->
<g id="node16" class="node">
<title>mouse_release_horizontal</title>
<polygon fill="none" stroke="black" points="1269.66,-446 1085.03,-428 1269.66,-410 1454.28,-428 1269.66,-446"/>
<text text-anchor="middle" x="1269.66" y="-424.9" font-family="Courier,monospace" font-size="12.00">mouse.type是.release且左键？</text>
</g>
<!-- check_horizontal_dragging&#45;&gt;mouse_release_horizontal -->
<g id="edge19" class="edge">
<title>check_horizontal_dragging&#45;&gt;mouse_release_horizontal</title>
<path fill="none" stroke="black" d="M987.27,-497.08C1047.86,-482.47 1146.24,-458.75 1209.43,-443.52"/>
<polygon fill="black" stroke="black" points="1210.36,-446.9 1219.26,-441.15 1208.71,-440.09 1210.36,-446.9"/>
<text text-anchor="middle" x="1126.66" y="-467" font-family="Courier,monospace" font-size="10.00">是</text>
</g>
<!-- mouse_drag_horizontal -->
<g id="node20" class="node">
<title>mouse_drag_horizontal</title>
<polygon fill="none" stroke="black" points="933.66,-446 800.26,-428 933.66,-410 1067.05,-428 933.66,-446"/>
<text text-anchor="middle" x="933.66" y="-424.9" font-family="Courier,monospace" font-size="12.00">mouse.type是.drag？</text>
</g>
<!-- check_horizontal_dragging&#45;&gt;mouse_drag_horizontal -->
<g id="edge20" class="edge">
<title>check_horizontal_dragging&#45;&gt;mouse_drag_horizontal</title>
<path fill="none" stroke="black" d="M933.66,-492.82C933.66,-482.19 933.66,-468.31 933.66,-456.2"/>
<polygon fill="black" stroke="black" points="937.16,-456.15 933.66,-446.15 930.16,-456.15 937.16,-456.15"/>
<text text-anchor="middle" x="938.66" y="-467" font-family="Courier,monospace" font-size="10.00">否</text>
</g>
<!-- stop_horizontal_drag -->
<g id="node17" class="node">
<title>stop_horizontal_drag</title>
<polygon fill="none" stroke="black" points="1180.16,-363 1057.16,-363 1057.16,-327 1180.16,-327 1180.16,-363"/>
<text text-anchor="middle" x="1118.66" y="-348.4" font-family="Courier,monospace" font-size="12.00">停止水平拖动</text>
<text text-anchor="middle" x="1118.66" y="-335.4" font-family="Courier,monospace" font-size="12.00">设置redraw=true</text>
</g>
<!-- mouse_release_horizontal&#45;&gt;stop_horizontal_drag -->
<g id="edge21" class="edge">
<title>mouse_release_horizontal&#45;&gt;stop_horizontal_drag</title>
<path fill="none" stroke="black" d="M1242.66,-412.52C1219.52,-400.1 1185.83,-382.03 1159.4,-367.86"/>
<polygon fill="black" stroke="black" points="1160.85,-364.66 1150.39,-363.02 1157.55,-370.83 1160.85,-364.66"/>
<text text-anchor="middle" x="1207.66" y="-384" font-family="Courier,monospace" font-size="10.00">是</text>
</g>
<!-- check_hover_horizontal -->
<g id="node18" class="node">
<title>check_hover_horizontal</title>
<polygon fill="none" stroke="black" points="1046.66,-290 938.01,-272 1046.66,-254 1155.3,-272 1046.66,-290"/>
<text text-anchor="middle" x="1046.66" y="-268.9" font-family="Courier,monospace" font-size="12.00">鼠标在水平滑块上？</text>
</g>
<!-- stop_horizontal_drag&#45;&gt;check_hover_horizontal -->
<g id="edge22" class="edge">
<title>stop_horizontal_drag&#45;&gt;check_hover_horizontal</title>
<path fill="none" stroke="black" d="M1101.23,-326.81C1091.45,-317.17 1079.15,-305.04 1068.71,-294.75"/>
<polygon fill="black" stroke="black" points="1071.07,-292.16 1061.49,-287.63 1066.16,-297.14 1071.07,-292.16"/>
</g>
<!-- check_hover_horizontal&#45;&gt;consume_event -->
<g id="edge25" class="edge">
<title>check_hover_horizontal&#45;&gt;consume_event</title>
<path fill="none" stroke="black" d="M1048.33,-254.14C1049.99,-227.26 1048.92,-174.82 1019.66,-146 995.44,-122.15 914.82,-108.14 847.93,-100.39"/>
<polygon fill="black" stroke="black" points="848.07,-96.88 837.74,-99.24 847.29,-103.84 848.07,-96.88"/>
<text text-anchor="middle" x="1045.66" y="-161.5" font-family="Courier,monospace" font-size="10.00">是</text>
</g>
<!-- unset_hover_horizontal -->
<g id="node19" class="node">
<title>unset_hover_horizontal</title>
<polygon fill="none" stroke="black" points="1010.16,-182 887.16,-182 887.16,-146 1010.16,-146 1010.16,-182"/>
<text text-anchor="middle" x="948.66" y="-167.4" font-family="Courier,monospace" font-size="12.00">取消悬停状态</text>
<text text-anchor="middle" x="948.66" y="-154.4" font-family="Courier,monospace" font-size="12.00">设置redraw=true</text>
</g>
<!-- check_hover_horizontal&#45;&gt;unset_hover_horizontal -->
<g id="edge23" class="edge">
<title>check_hover_horizontal&#45;&gt;unset_hover_horizontal</title>
<path fill="none" stroke="black" d="M1032.62,-255.81C1016.66,-238.55 990.38,-210.13 971.47,-189.68"/>
<polygon fill="black" stroke="black" points="973.98,-187.24 964.62,-182.27 968.84,-191.99 973.98,-187.24"/>
<text text-anchor="middle" x="1016.66" y="-215.5" font-family="Courier,monospace" font-size="10.00">否</text>
</g>
<!-- unset_hover_horizontal&#45;&gt;consume_event -->
<g id="edge24" class="edge">
<title>unset_hover_horizontal&#45;&gt;consume_event</title>
<path fill="none" stroke="black" d="M900.99,-145.99C872.77,-135.92 836.83,-123.1 807.06,-112.48"/>
<polygon fill="black" stroke="black" points="808.22,-109.18 797.62,-109.11 805.87,-115.77 808.22,-109.18"/>
</g>
<!-- process_horizontal_drag -->
<g id="node21" class="node">
<title>process_horizontal_drag</title>
<polygon fill="none" stroke="black" points="1025.16,-363 812.16,-363 812.16,-327 1025.16,-327 1025.16,-363"/>
<text text-anchor="middle" x="918.66" y="-348.4" font-family="Courier,monospace" font-size="12.00">计算新滑块位置</text>
<text text-anchor="middle" x="918.66" y="-335.4" font-family="Courier,monospace" font-size="12.00">更新scroll_view.scroll.left</text>
</g>
<!-- mouse_drag_horizontal&#45;&gt;process_horizontal_drag -->
<g id="edge27" class="edge">
<title>mouse_drag_horizontal&#45;&gt;process_horizontal_drag</title>
<path fill="none" stroke="black" d="M930.55,-410.22C928.57,-399.54 925.96,-385.46 923.69,-373.21"/>
<polygon fill="black" stroke="black" points="927.07,-372.24 921.81,-363.04 920.19,-373.51 927.07,-372.24"/>
<text text-anchor="middle" x="931.66" y="-384" font-family="Courier,monospace" font-size="10.00">是</text>
</g>
<!-- process_horizontal_drag&#45;&gt;consume_and_redraw -->
<g id="edge28" class="edge">
<title>process_horizontal_drag&#45;&gt;consume_and_redraw</title>
<path fill="none" stroke="black" d="M812.15,-332.34C746.2,-323.41 669.03,-309.32 641.66,-290 626.39,-279.23 615.78,-261 609.04,-245.71"/>
<polygon fill="black" stroke="black" points="612.18,-244.14 605.16,-236.2 605.7,-246.78 612.18,-244.14"/>
</g>
</g>
</svg>
