<?xml version="1.0" encoding="UTF-8" standalone="no"?>
<!DOCTYPE svg PUBLIC "-//W3C//DTD SVG 1.1//EN"
 "http://www.w3.org/Graphics/SVG/1.1/DTD/svg11.dtd">
<!-- Generated by graphviz version 2.43.0 (0)
 -->
<!-- Title: handleEvent Pages: 1 -->
<svg width="678pt" height="694pt"
 viewBox="0.00 0.00 677.50 694.00" xmlns="http://www.w3.org/2000/svg" xmlns:xlink="http://www.w3.org/1999/xlink">
<g id="graph0" class="graph" transform="scale(1 1) rotate(0) translate(4 690)">
<title>handleEvent</title>
<polygon fill="white" stroke="transparent" points="-4,4 -4,-690 673.5,-690 673.5,4 -4,4"/>
<!-- start -->
<g id="node1" class="node">
<title>start</title>
<ellipse fill="none" stroke="black" cx="461.5" cy="-668" rx="66.09" ry="18"/>
<text text-anchor="middle" x="461.5" y="-664.3" font-family="Times,serif" font-size="14.00">开始处理事件</text>
</g>
<!-- event_switch -->
<g id="node2" class="node">
<title>event_switch</title>
<polygon fill="none" stroke="black" points="461.5,-613 367.99,-595 461.5,-577 555.01,-595 461.5,-613"/>
<text text-anchor="middle" x="461.5" y="-591.3" font-family="Times,serif" font-size="14.00">事件类型判断</text>
</g>
<!-- start&#45;&gt;event_switch -->
<g id="edge1" class="edge">
<title>start&#45;&gt;event_switch</title>
<path fill="none" stroke="black" d="M461.5,-649.81C461.5,-641.79 461.5,-632.05 461.5,-623.07"/>
<polygon fill="black" stroke="black" points="465,-623.03 461.5,-613.03 458,-623.03 465,-623.03"/>
</g>
<!-- mouse_event -->
<g id="node3" class="node">
<title>mouse_event</title>
<polygon fill="none" stroke="black" points="248.5,-526 180.46,-508 248.5,-490 316.54,-508 248.5,-526"/>
<text text-anchor="middle" x="248.5" y="-504.3" font-family="Times,serif" font-size="14.00">鼠标事件</text>
</g>
<!-- event_switch&#45;&gt;mouse_event -->
<g id="edge2" class="edge">
<title>event_switch&#45;&gt;mouse_event</title>
<path fill="none" stroke="black" d="M432.33,-582.36C393.62,-566.91 325.33,-539.66 283.77,-523.08"/>
<polygon fill="black" stroke="black" points="284.9,-519.76 274.32,-519.3 282.31,-526.26 284.9,-519.76"/>
<text text-anchor="middle" x="394.5" y="-547.8" font-family="Times,serif" font-size="14.00">.mouse</text>
</g>
<!-- key_press -->
<g id="node8" class="node">
<title>key_press</title>
<polygon fill="none" stroke="black" points="461.5,-526 393.46,-508 461.5,-490 529.54,-508 461.5,-526"/>
<text text-anchor="middle" x="461.5" y="-504.3" font-family="Times,serif" font-size="14.00">按键事件</text>
</g>
<!-- event_switch&#45;&gt;key_press -->
<g id="edge3" class="edge">
<title>event_switch&#45;&gt;key_press</title>
<path fill="none" stroke="black" d="M461.5,-576.8C461.5,-565.16 461.5,-549.55 461.5,-536.24"/>
<polygon fill="black" stroke="black" points="465,-536.18 461.5,-526.18 458,-536.18 465,-536.18"/>
<text text-anchor="middle" x="499.5" y="-547.8" font-family="Times,serif" font-size="14.00">.key_press</text>
</g>
<!-- other_event -->
<g id="node15" class="node">
<title>other_event</title>
<polygon fill="none" stroke="black" points="669.5,-472 595.5,-472 595.5,-434 669.5,-434 669.5,-472"/>
<text text-anchor="middle" x="632.5" y="-456.8" font-family="Times,serif" font-size="14.00">其他事件</text>
<text text-anchor="middle" x="632.5" y="-441.8" font-family="Times,serif" font-size="14.00">忽略</text>
</g>
<!-- event_switch&#45;&gt;other_event -->
<g id="edge4" class="edge">
<title>event_switch&#45;&gt;other_event</title>
<path fill="none" stroke="black" d="M494.8,-583.25C509.89,-577.45 527.46,-569.34 541.5,-559 571.3,-537.06 598.06,-503.71 614.73,-480.51"/>
<polygon fill="black" stroke="black" points="617.71,-482.35 620.6,-472.15 611.99,-478.32 617.71,-482.35"/>
<text text-anchor="middle" x="572" y="-547.8" font-family="Times,serif" font-size="14.00">其他</text>
</g>
<!-- wheel_up -->
<g id="node4" class="node">
<title>wheel_up</title>
<polygon fill="none" stroke="black" points="171.5,-329 90.73,-311 171.5,-293 252.27,-311 171.5,-329"/>
<text text-anchor="middle" x="171.5" y="-307.3" font-family="Times,serif" font-size="14.00">滚轮向上？</text>
</g>
<!-- mouse_event&#45;&gt;wheel_up -->
<g id="edge5" class="edge">
<title>mouse_event&#45;&gt;wheel_up</title>
<path fill="none" stroke="black" d="M239,-492.42C227.94,-474.9 209.75,-444.31 198.5,-416 188.36,-390.49 180.96,-359.95 176.5,-338.59"/>
<polygon fill="black" stroke="black" points="179.89,-337.72 174.49,-328.61 173.03,-339.11 179.89,-337.72"/>
<text text-anchor="middle" x="248" y="-394.3" font-family="Times,serif" font-size="14.00">mouse.button</text>
</g>
<!-- linesUp -->
<g id="node5" class="node">
<title>linesUp</title>
<polygon fill="none" stroke="black" points="155,-167 0,-167 0,-129 155,-129 155,-167"/>
<text text-anchor="middle" x="77.5" y="-151.8" font-family="Times,serif" font-size="14.00">self.scroll.linesUp()</text>
<text text-anchor="middle" x="77.5" y="-136.8" font-family="Times,serif" font-size="14.00">触发重绘</text>
</g>
<!-- wheel_up&#45;&gt;linesUp -->
<g id="edge6" class="edge">
<title>wheel_up&#45;&gt;linesUp</title>
<path fill="none" stroke="black" d="M157.38,-296.13C141.28,-279.6 115.17,-250.49 99.5,-221 92.22,-207.3 86.96,-190.81 83.41,-177.08"/>
<polygon fill="black" stroke="black" points="86.78,-176.11 81.03,-167.21 79.97,-177.75 86.78,-176.11"/>
<text text-anchor="middle" x="146" y="-253.3" font-family="Times,serif" font-size="14.00">是</text>
</g>
<!-- wheel_down -->
<g id="node6" class="node">
<title>wheel_down</title>
<polygon fill="none" stroke="black" points="189.5,-221 108.73,-203 189.5,-185 270.27,-203 189.5,-221"/>
<text text-anchor="middle" x="189.5" y="-199.3" font-family="Times,serif" font-size="14.00">滚轮向下？</text>
</g>
<!-- wheel_up&#45;&gt;wheel_down -->
<g id="edge7" class="edge">
<title>wheel_up&#45;&gt;wheel_down</title>
<path fill="none" stroke="black" d="M174.31,-293.44C177.18,-276.56 181.67,-250.12 185.02,-230.36"/>
<polygon fill="black" stroke="black" points="188.48,-230.89 186.71,-220.45 181.58,-229.72 188.48,-230.89"/>
<text text-anchor="middle" x="191" y="-253.3" font-family="Times,serif" font-size="14.00">否</text>
</g>
<!-- end -->
<g id="node16" class="node">
<title>end</title>
<ellipse fill="none" stroke="black" cx="374.5" cy="-18" rx="29.5" ry="18"/>
<text text-anchor="middle" x="374.5" y="-14.3" font-family="Times,serif" font-size="14.00">结束</text>
</g>
<!-- linesUp&#45;&gt;end -->
<g id="edge10" class="edge">
<title>linesUp&#45;&gt;end</title>
<path fill="none" stroke="black" d="M76.21,-128.83C76.07,-111.99 78.74,-87.42 93.5,-73 127.3,-39.98 266.03,-26.21 335.08,-21.32"/>
<polygon fill="black" stroke="black" points="335.41,-24.81 345.14,-20.64 334.93,-17.82 335.41,-24.81"/>
</g>
<!-- linesDown -->
<g id="node7" class="node">
<title>linesDown</title>
<polygon fill="none" stroke="black" points="276.5,-111 102.5,-111 102.5,-73 276.5,-73 276.5,-111"/>
<text text-anchor="middle" x="189.5" y="-95.8" font-family="Times,serif" font-size="14.00">self.scroll.linesDown()</text>
<text text-anchor="middle" x="189.5" y="-80.8" font-family="Times,serif" font-size="14.00">触发重绘</text>
</g>
<!-- wheel_down&#45;&gt;linesDown -->
<g id="edge8" class="edge">
<title>wheel_down&#45;&gt;linesDown</title>
<path fill="none" stroke="black" d="M189.5,-184.97C189.5,-168.02 189.5,-141.69 189.5,-121.54"/>
<polygon fill="black" stroke="black" points="193,-121.37 189.5,-111.37 186,-121.37 193,-121.37"/>
<text text-anchor="middle" x="197" y="-144.3" font-family="Times,serif" font-size="14.00">是</text>
</g>
<!-- wheel_down&#45;&gt;end -->
<g id="edge9" class="edge">
<title>wheel_down&#45;&gt;end</title>
<path fill="none" stroke="black" d="M204.66,-188.01C223.74,-170.31 257.43,-138.79 285.5,-111 309.13,-87.61 335.54,-60.13 353.41,-41.34"/>
<polygon fill="black" stroke="black" points="356.17,-43.51 360.51,-33.85 351.09,-38.7 356.17,-43.51"/>
<text text-anchor="middle" x="331" y="-88.3" font-family="Times,serif" font-size="14.00">否</text>
</g>
<!-- linesDown&#45;&gt;end -->
<g id="edge11" class="edge">
<title>linesDown&#45;&gt;end</title>
<path fill="none" stroke="black" d="M236.18,-72.83C268.88,-60.11 311.8,-43.4 341.1,-32"/>
<polygon fill="black" stroke="black" points="342.43,-35.24 350.48,-28.35 339.89,-28.71 342.43,-35.24"/>
</g>
<!-- key_j_n_down -->
<g id="node9" class="node">
<title>key_j_n_down</title>
<polygon fill="none" stroke="black" points="461.5,-416 306.32,-398 461.5,-380 616.68,-398 461.5,-416"/>
<text text-anchor="middle" x="461.5" y="-394.3" font-family="Times,serif" font-size="14.00">&#39;j&#39; / Ctrl+&#39;n&#39; / 下箭头？</text>
</g>
<!-- key_press&#45;&gt;key_j_n_down -->
<g id="edge12" class="edge">
<title>key_press&#45;&gt;key_j_n_down</title>
<path fill="none" stroke="black" d="M461.5,-489.65C461.5,-472.56 461.5,-446.22 461.5,-426.32"/>
<polygon fill="black" stroke="black" points="465,-426.31 461.5,-416.31 458,-426.31 465,-426.31"/>
</g>
<!-- nextItem -->
<g id="node10" class="node">
<title>nextItem</title>
<polygon fill="none" stroke="black" points="362.5,-275 238.5,-275 238.5,-239 362.5,-239 362.5,-275"/>
<text text-anchor="middle" x="300.5" y="-253.3" font-family="Times,serif" font-size="14.00">调用 nextItem()</text>
</g>
<!-- key_j_n_down&#45;&gt;nextItem -->
<g id="edge13" class="edge">
<title>key_j_n_down&#45;&gt;nextItem</title>
<path fill="none" stroke="black" d="M396.71,-387.39C361.61,-378.51 321.11,-361.51 299.5,-329 291.07,-316.32 291.01,-299.35 293.2,-285.18"/>
<polygon fill="black" stroke="black" points="296.71,-285.49 295.22,-275 289.84,-284.13 296.71,-285.49"/>
<text text-anchor="middle" x="341" y="-350.8" font-family="Times,serif" font-size="14.00">是</text>
</g>
<!-- key_k_p_up -->
<g id="node11" class="node">
<title>key_k_p_up</title>
<polygon fill="none" stroke="black" points="467.5,-329 308.47,-311 467.5,-293 626.53,-311 467.5,-329"/>
<text text-anchor="middle" x="467.5" y="-307.3" font-family="Times,serif" font-size="14.00">&#39;k&#39; / Ctrl+&#39;p&#39; / 上箭头？</text>
</g>
<!-- key_j_n_down&#45;&gt;key_k_p_up -->
<g id="edge14" class="edge">
<title>key_j_n_down&#45;&gt;key_k_p_up</title>
<path fill="none" stroke="black" d="M462.71,-379.8C463.54,-368.09 464.65,-352.34 465.6,-338.97"/>
<polygon fill="black" stroke="black" points="469.1,-339.11 466.31,-328.89 462.11,-338.61 469.1,-339.11"/>
<text text-anchor="middle" x="473" y="-350.8" font-family="Times,serif" font-size="14.00">否</text>
</g>
<!-- nextItem&#45;&gt;end -->
<g id="edge19" class="edge">
<title>nextItem&#45;&gt;end</title>
<path fill="none" stroke="black" d="M305.82,-238.96C318.57,-198.13 350.92,-94.51 366.23,-45.48"/>
<polygon fill="black" stroke="black" points="369.59,-46.48 369.23,-35.89 362.9,-44.39 369.59,-46.48"/>
</g>
<!-- prevItem -->
<g id="node12" class="node">
<title>prevItem</title>
<polygon fill="none" stroke="black" points="496,-166 371,-166 371,-130 496,-130 496,-166"/>
<text text-anchor="middle" x="433.5" y="-144.3" font-family="Times,serif" font-size="14.00">调用 prevItem()</text>
</g>
<!-- key_k_p_up&#45;&gt;prevItem -->
<g id="edge15" class="edge">
<title>key_k_p_up&#45;&gt;prevItem</title>
<path fill="none" stroke="black" d="M463.99,-293.38C458.14,-265.68 446.35,-209.84 439.27,-176.3"/>
<polygon fill="black" stroke="black" points="442.64,-175.32 437.15,-166.26 435.79,-176.77 442.64,-175.32"/>
<text text-anchor="middle" x="468" y="-253.3" font-family="Times,serif" font-size="14.00">是</text>
</g>
<!-- key_esc -->
<g id="node13" class="node">
<title>key_esc</title>
<polygon fill="none" stroke="black" points="535.5,-221 461.93,-203 535.5,-185 609.07,-203 535.5,-221"/>
<text text-anchor="middle" x="535.5" y="-199.3" font-family="Times,serif" font-size="14.00">ESC 键？</text>
</g>
<!-- key_k_p_up&#45;&gt;key_esc -->
<g id="edge16" class="edge">
<title>key_k_p_up&#45;&gt;key_esc</title>
<path fill="none" stroke="black" d="M477.83,-293.9C489.17,-276.22 507.49,-247.67 520.43,-227.49"/>
<polygon fill="black" stroke="black" points="523.5,-229.19 525.96,-218.88 517.61,-225.41 523.5,-229.19"/>
<text text-anchor="middle" x="520" y="-253.3" font-family="Times,serif" font-size="14.00">否</text>
</g>
<!-- prevItem&#45;&gt;end -->
<g id="edge20" class="edge">
<title>prevItem&#45;&gt;end</title>
<path fill="none" stroke="black" d="M422.76,-129.68C419.31,-123.84 415.58,-117.22 412.5,-111 401.82,-89.44 391.52,-64.12 384.34,-45.51"/>
<polygon fill="black" stroke="black" points="387.52,-44.03 380.69,-35.92 380.98,-46.52 387.52,-44.03"/>
</g>
<!-- ensureScroll -->
<g id="node14" class="node">
<title>ensureScroll</title>
<polygon fill="none" stroke="black" points="523.5,-111 421.5,-111 421.5,-73 523.5,-73 523.5,-111"/>
<text text-anchor="middle" x="472.5" y="-95.8" font-family="Times,serif" font-size="14.00">确保滚动位置</text>
<text text-anchor="middle" x="472.5" y="-80.8" font-family="Times,serif" font-size="14.00">触发重绘</text>
</g>
<!-- key_esc&#45;&gt;ensureScroll -->
<g id="edge17" class="edge">
<title>key_esc&#45;&gt;ensureScroll</title>
<path fill="none" stroke="black" d="M529.82,-186.28C524,-171.07 514.17,-147.62 502.5,-129 500.48,-125.78 498.2,-122.53 495.82,-119.38"/>
<polygon fill="black" stroke="black" points="498.36,-116.96 489.39,-111.32 492.89,-121.32 498.36,-116.96"/>
<text text-anchor="middle" x="528" y="-144.3" font-family="Times,serif" font-size="14.00">是</text>
</g>
<!-- key_esc&#45;&gt;end -->
<g id="edge18" class="edge">
<title>key_esc&#45;&gt;end</title>
<path fill="none" stroke="black" d="M540.73,-186.02C548.35,-159.35 558.94,-105.5 532.5,-73 503.7,-37.59 450.55,-25.31 413.91,-21.1"/>
<polygon fill="black" stroke="black" points="413.87,-17.58 403.58,-20.08 413.18,-24.55 413.87,-17.58"/>
<text text-anchor="middle" x="555" y="-88.3" font-family="Times,serif" font-size="14.00">否</text>
</g>
<!-- ensureScroll&#45;&gt;end -->
<g id="edge21" class="edge">
<title>ensureScroll&#45;&gt;end</title>
<path fill="none" stroke="black" d="M447.77,-72.83C433.46,-62.31 415.44,-49.08 400.86,-38.37"/>
<polygon fill="black" stroke="black" points="402.86,-35.49 392.72,-32.39 398.71,-41.13 402.86,-35.49"/>
</g>
<!-- other_event&#45;&gt;end -->
<g id="edge22" class="edge">
<title>other_event&#45;&gt;end</title>
<path fill="none" stroke="black" d="M639.22,-433.78C645.69,-414.59 654.5,-383.34 654.5,-355.5 654.5,-355.5 654.5,-355.5 654.5,-91 654.5,-41.92 491.12,-25.81 413.96,-20.94"/>
<polygon fill="black" stroke="black" points="413.86,-17.43 403.67,-20.32 413.45,-24.41 413.86,-17.43"/>
</g>
</g>
</svg>
