<?xml version="1.0" encoding="UTF-8" standalone="no"?>
<!DOCTYPE svg PUBLIC "-//W3C//DTD SVG 1.1//EN"
 "http://www.w3.org/Graphics/SVG/1.1/DTD/svg11.dtd">
<!-- Generated by graphviz version 2.43.0 (0)
 -->
<!-- Title: nextItemFlowchart Pages: 1 -->
<svg width="609pt" height="696pt"
 viewBox="0.00 0.00 609.04 696.00" xmlns="http://www.w3.org/2000/svg" xmlns:xlink="http://www.w3.org/1999/xlink">
<g id="graph0" class="graph" transform="scale(1 1) rotate(0) translate(4 692)">
<title>nextItemFlowchart</title>
<polygon fill="#f0f0f0" stroke="transparent" points="-4,4 -4,-692 605.04,-692 605.04,4 -4,4"/>
<!-- start -->
<g id="node1" class="node">
<title>start</title>
<ellipse fill="#c0ffc0" stroke="black" cx="136.04" cy="-670" rx="65.79" ry="18"/>
<text text-anchor="middle" x="136.04" y="-666.3" font-family="Arial" font-size="14.00">开始 nextItem</text>
</g>
<!-- check_item_count -->
<g id="node2" class="node">
<title>check_item_count</title>
<path fill="#e0e0e0" stroke="black" d="M124.14,-613.43C124.14,-613.43 11.86,-598.57 11.86,-598.57 5.91,-597.79 5.91,-596.21 11.86,-595.43 11.86,-595.43 124.14,-580.57 124.14,-580.57 130.09,-579.79 141.98,-579.79 147.93,-580.57 147.93,-580.57 260.21,-595.43 260.21,-595.43 266.16,-596.21 266.16,-597.79 260.21,-598.57 260.21,-598.57 147.93,-613.43 147.93,-613.43 141.98,-614.21 130.09,-614.21 124.14,-613.43"/>
<text text-anchor="middle" x="136.04" y="-593.3" font-family="Arial" font-size="14.00">self.item_count 存在?</text>
</g>
<!-- start&#45;&gt;check_item_count -->
<g id="edge1" class="edge">
<title>start&#45;&gt;check_item_count</title>
<path fill="none" stroke="black" d="M136.04,-651.81C136.04,-643.79 136.04,-634.05 136.04,-625.07"/>
<polygon fill="black" stroke="black" points="139.54,-625.03 136.04,-615.03 132.54,-625.03 139.54,-625.03"/>
</g>
<!-- handle_count -->
<g id="node3" class="node">
<title>handle_count</title>
<path fill="#e0e0e0" stroke="black" d="M168.54,-328.5C168.54,-328.5 47.54,-328.5 47.54,-328.5 41.54,-328.5 35.54,-322.5 35.54,-316.5 35.54,-316.5 35.54,-287.5 35.54,-287.5 35.54,-281.5 41.54,-275.5 47.54,-275.5 47.54,-275.5 168.54,-275.5 168.54,-275.5 174.54,-275.5 180.54,-281.5 180.54,-287.5 180.54,-287.5 180.54,-316.5 180.54,-316.5 180.54,-322.5 174.54,-328.5 168.54,-328.5"/>
<text text-anchor="middle" x="108.04" y="-313.3" font-family="Arial" font-size="14.00">检查光标是否在末尾</text>
<text text-anchor="middle" x="108.04" y="-298.3" font-family="Arial" font-size="14.00">是 &#45;&gt; 消耗事件</text>
<text text-anchor="middle" x="108.04" y="-283.3" font-family="Arial" font-size="14.00">否 &#45;&gt; 光标加1</text>
</g>
<!-- check_item_count&#45;&gt;handle_count -->
<g id="edge2" class="edge">
<title>check_item_count&#45;&gt;handle_count</title>
<path fill="none" stroke="black" d="M134.41,-578.98C129.96,-532.45 117.53,-402.37 111.46,-338.84"/>
<polygon fill="black" stroke="black" points="114.91,-338.13 110.47,-328.51 107.94,-338.79 114.91,-338.13"/>
<text text-anchor="middle" x="132.54" y="-462.8" font-family="Arial" font-size="14.00">是</text>
</g>
<!-- check_children_type -->
<g id="node4" class="node">
<title>check_children_type</title>
<path fill="#e0e0e0" stroke="black" d="M288.13,-526.47C288.13,-526.47 172.01,-511.53 172.01,-511.53 166.06,-510.77 166.06,-509.23 172.01,-508.47 172.01,-508.47 288.13,-493.53 288.13,-493.53 294.08,-492.77 305.99,-492.77 311.94,-493.53 311.94,-493.53 428.06,-508.47 428.06,-508.47 434.01,-509.23 434.01,-510.77 428.06,-511.53 428.06,-511.53 311.94,-526.47 311.94,-526.47 305.99,-527.23 294.08,-527.23 288.13,-526.47"/>
<text text-anchor="middle" x="300.04" y="-506.3" font-family="Arial" font-size="14.00">检查 self.children 类型</text>
</g>
<!-- check_item_count&#45;&gt;check_children_type -->
<g id="edge3" class="edge">
<title>check_item_count&#45;&gt;check_children_type</title>
<path fill="none" stroke="black" d="M162.38,-582.34C190.12,-567.97 233.94,-545.26 264.67,-529.33"/>
<polygon fill="black" stroke="black" points="266.48,-532.33 273.75,-524.62 263.26,-526.12 266.48,-532.33"/>
<text text-anchor="middle" x="235.54" y="-549.8" font-family="Arial" font-size="14.00">否</text>
</g>
<!-- reset_scroll -->
<g id="node9" class="node">
<title>reset_scroll</title>
<path fill="#e0e0e0" stroke="black" d="M264.04,-217C264.04,-217 214.04,-217 214.04,-217 208.04,-217 202.04,-211 202.04,-205 202.04,-205 202.04,-193 202.04,-193 202.04,-187 208.04,-181 214.04,-181 214.04,-181 264.04,-181 264.04,-181 270.04,-181 276.04,-187 276.04,-193 276.04,-193 276.04,-205 276.04,-205 276.04,-211 270.04,-217 264.04,-217"/>
<text text-anchor="middle" x="239.04" y="-195.3" font-family="Arial" font-size="14.00">重置滚动</text>
</g>
<!-- handle_count&#45;&gt;reset_scroll -->
<g id="edge4" class="edge">
<title>handle_count&#45;&gt;reset_scroll</title>
<path fill="none" stroke="black" d="M128.32,-275.46C139.64,-262.28 154.56,-246.59 170.04,-235 177.06,-229.73 185,-224.87 192.93,-220.56"/>
<polygon fill="black" stroke="black" points="194.58,-223.65 201.83,-215.92 191.34,-217.44 194.58,-223.65"/>
<text text-anchor="middle" x="213.04" y="-238.8" font-family="Arial" font-size="14.00">光标未在末尾</text>
</g>
<!-- end -->
<g id="node11" class="node">
<title>end</title>
<ellipse fill="#ffc0c0" stroke="black" cx="299.04" cy="-18" rx="29.5" ry="18"/>
<text text-anchor="middle" x="299.04" y="-14.3" font-family="Arial" font-size="14.00">结束</text>
</g>
<!-- handle_count&#45;&gt;end -->
<g id="edge5" class="edge">
<title>handle_count&#45;&gt;end</title>
<path fill="none" stroke="black" d="M107.73,-275.39C108.54,-229.29 116.7,-131.69 168.04,-73 191.79,-45.83 231.34,-32.07 260.78,-25.27"/>
<polygon fill="black" stroke="black" points="261.68,-28.66 270.73,-23.14 260.22,-21.81 261.68,-28.66"/>
<text text-anchor="middle" x="172.04" y="-141.3" font-family="Arial" font-size="14.00">光标在末尾</text>
</g>
<!-- handle_slice -->
<g id="node5" class="node">
<title>handle_slice</title>
<path fill="#e0e0e0" stroke="black" d="M589.04,-336C589.04,-336 431.04,-336 431.04,-336 425.04,-336 419.04,-330 419.04,-324 419.04,-324 419.04,-280 419.04,-280 419.04,-274 425.04,-268 431.04,-268 431.04,-268 589.04,-268 589.04,-268 595.04,-268 601.04,-274 601.04,-280 601.04,-280 601.04,-324 601.04,-324 601.04,-330 595.04,-336 589.04,-336"/>
<text text-anchor="middle" x="510.04" y="-320.8" font-family="Arial" font-size="14.00">设置item_count为slice长度</text>
<text text-anchor="middle" x="510.04" y="-305.8" font-family="Arial" font-size="14.00">检查光标是否在末尾</text>
<text text-anchor="middle" x="510.04" y="-290.8" font-family="Arial" font-size="14.00">是 &#45;&gt; 消耗事件</text>
<text text-anchor="middle" x="510.04" y="-275.8" font-family="Arial" font-size="14.00">否 &#45;&gt; 光标加1</text>
</g>
<!-- check_children_type&#45;&gt;handle_slice -->
<g id="edge6" class="edge">
<title>check_children_type&#45;&gt;handle_slice</title>
<path fill="none" stroke="black" d="M321.25,-494.33C329.96,-488.18 340.08,-480.88 349.04,-474 367.31,-459.96 372.5,-457.05 389.04,-441 420.67,-410.3 453.45,-372.48 476.9,-344.2"/>
<polygon fill="black" stroke="black" points="479.9,-346.06 483.56,-336.12 474.5,-341.61 479.9,-346.06"/>
<text text-anchor="middle" x="466.54" y="-403.3" font-family="Arial" font-size="14.00">.slice</text>
</g>
<!-- handle_builder -->
<g id="node6" class="node">
<title>handle_builder</title>
<path fill="#e0e0e0" stroke="black" d="M367.54,-441C367.54,-441 232.54,-441 232.54,-441 226.54,-441 220.54,-435 220.54,-429 220.54,-429 220.54,-385 220.54,-385 220.54,-379 226.54,-373 232.54,-373 232.54,-373 367.54,-373 367.54,-373 373.54,-373 379.54,-379 379.54,-385 379.54,-385 379.54,-429 379.54,-429 379.54,-435 373.54,-441 367.54,-441"/>
<text text-anchor="middle" x="300.04" y="-425.8" font-family="Arial" font-size="14.00">保存当前光标</text>
<text text-anchor="middle" x="300.04" y="-410.8" font-family="Arial" font-size="14.00">光标加1</text>
<text text-anchor="middle" x="300.04" y="-395.8" font-family="Arial" font-size="14.00">循环检查item存在性</text>
<text text-anchor="middle" x="300.04" y="-380.8" font-family="Arial" font-size="14.00">直到找到有效项或回退</text>
</g>
<!-- check_children_type&#45;&gt;handle_builder -->
<g id="edge7" class="edge">
<title>check_children_type&#45;&gt;handle_builder</title>
<path fill="none" stroke="black" d="M300.04,-491.87C300.04,-480.73 300.04,-465.66 300.04,-451.38"/>
<polygon fill="black" stroke="black" points="303.54,-451.18 300.04,-441.18 296.54,-451.18 303.54,-451.18"/>
<text text-anchor="middle" x="322.54" y="-462.8" font-family="Arial" font-size="14.00">.builder</text>
</g>
<!-- handle_slice&#45;&gt;reset_scroll -->
<g id="edge8" class="edge">
<title>handle_slice&#45;&gt;reset_scroll</title>
<path fill="none" stroke="black" d="M421.3,-267.93C376.1,-251.08 322.98,-231.29 285.79,-217.42"/>
<polygon fill="black" stroke="black" points="286.81,-214.07 276.21,-213.86 284.36,-220.63 286.81,-214.07"/>
<text text-anchor="middle" x="409.04" y="-238.8" font-family="Arial" font-size="14.00">光标未在末尾</text>
</g>
<!-- handle_slice&#45;&gt;end -->
<g id="edge9" class="edge">
<title>handle_slice&#45;&gt;end</title>
<path fill="none" stroke="black" d="M485.21,-267.82C442.06,-210.15 354.25,-92.8 316.71,-42.62"/>
<polygon fill="black" stroke="black" points="319.51,-40.52 310.71,-34.61 313.9,-44.71 319.51,-40.52"/>
<text text-anchor="middle" x="440.04" y="-141.3" font-family="Arial" font-size="14.00">光标在末尾</text>
</g>
<!-- check_cursor_change -->
<g id="node7" class="node">
<title>check_cursor_change</title>
<path fill="#e0e0e0" stroke="black" d="M288.22,-317.9C288.22,-317.9 210.64,-304.1 210.64,-304.1 204.73,-303.05 204.73,-300.95 210.64,-299.9 210.64,-299.9 288.22,-286.1 288.22,-286.1 294.13,-285.05 305.94,-285.05 311.85,-286.1 311.85,-286.1 389.44,-299.9 389.44,-299.9 395.34,-300.95 395.34,-303.05 389.44,-304.1 389.44,-304.1 311.85,-317.9 311.85,-317.9 305.94,-318.95 294.13,-318.95 288.22,-317.9"/>
<text text-anchor="middle" x="300.04" y="-298.3" font-family="Arial" font-size="14.00">光标是否变化?</text>
</g>
<!-- handle_builder&#45;&gt;check_cursor_change -->
<g id="edge10" class="edge">
<title>handle_builder&#45;&gt;check_cursor_change</title>
<path fill="none" stroke="black" d="M300.04,-372.84C300.04,-359.15 300.04,-343.47 300.04,-330.44"/>
<polygon fill="black" stroke="black" points="303.54,-330.22 300.04,-320.22 296.54,-330.22 303.54,-330.22"/>
</g>
<!-- no_change -->
<g id="node8" class="node">
<title>no_change</title>
<path fill="#e0e0e0" stroke="black" d="M336.04,-163C336.04,-163 286.04,-163 286.04,-163 280.04,-163 274.04,-157 274.04,-151 274.04,-151 274.04,-139 274.04,-139 274.04,-133 280.04,-127 286.04,-127 286.04,-127 336.04,-127 336.04,-127 342.04,-127 348.04,-133 348.04,-139 348.04,-139 348.04,-151 348.04,-151 348.04,-157 342.04,-163 336.04,-163"/>
<text text-anchor="middle" x="311.04" y="-141.3" font-family="Arial" font-size="14.00">消耗事件</text>
</g>
<!-- check_cursor_change&#45;&gt;no_change -->
<g id="edge11" class="edge">
<title>check_cursor_change&#45;&gt;no_change</title>
<path fill="none" stroke="black" d="M301.23,-284.12C303.12,-257.47 306.82,-205.41 309.09,-173.37"/>
<polygon fill="black" stroke="black" points="312.59,-173.56 309.81,-163.34 305.61,-173.06 312.59,-173.56"/>
<text text-anchor="middle" x="311.54" y="-238.8" font-family="Arial" font-size="14.00">是</text>
</g>
<!-- check_cursor_change&#45;&gt;reset_scroll -->
<g id="edge12" class="edge">
<title>check_cursor_change&#45;&gt;reset_scroll</title>
<path fill="none" stroke="black" d="M290.5,-285.22C280.89,-269.29 265.88,-244.44 254.54,-225.68"/>
<polygon fill="black" stroke="black" points="257.48,-223.77 249.31,-217.02 251.49,-227.39 257.48,-223.77"/>
<text text-anchor="middle" x="274.54" y="-238.8" font-family="Arial" font-size="14.00">否</text>
</g>
<!-- no_change&#45;&gt;end -->
<g id="edge13" class="edge">
<title>no_change&#45;&gt;end</title>
<path fill="none" stroke="black" d="M309.39,-126.88C307.4,-106.15 304.02,-70.95 301.67,-46.42"/>
<polygon fill="black" stroke="black" points="305.14,-45.93 300.7,-36.31 298.17,-46.6 305.14,-45.93"/>
</g>
<!-- consume_redraw -->
<g id="node10" class="node">
<title>consume_redraw</title>
<path fill="#e0e0e0" stroke="black" d="M281.04,-109C281.04,-109 189.04,-109 189.04,-109 183.04,-109 177.04,-103 177.04,-97 177.04,-97 177.04,-85 177.04,-85 177.04,-79 183.04,-73 189.04,-73 189.04,-73 281.04,-73 281.04,-73 287.04,-73 293.04,-79 293.04,-85 293.04,-85 293.04,-97 293.04,-97 293.04,-103 287.04,-109 281.04,-109"/>
<text text-anchor="middle" x="235.04" y="-87.3" font-family="Arial" font-size="14.00">消耗事件并重绘</text>
</g>
<!-- reset_scroll&#45;&gt;consume_redraw -->
<g id="edge14" class="edge">
<title>reset_scroll&#45;&gt;consume_redraw</title>
<path fill="none" stroke="black" d="M238.39,-180.97C237.77,-164.38 236.8,-138.88 236.07,-119.43"/>
<polygon fill="black" stroke="black" points="239.56,-119.2 235.69,-109.34 232.57,-119.47 239.56,-119.2"/>
</g>
<!-- consume_redraw&#45;&gt;end -->
<g id="edge15" class="edge">
<title>consume_redraw&#45;&gt;end</title>
<path fill="none" stroke="black" d="M250.53,-72.81C258.93,-63.49 269.43,-51.84 278.51,-41.77"/>
<polygon fill="black" stroke="black" points="281.33,-43.87 285.42,-34.1 276.13,-39.19 281.33,-43.87"/>
</g>
</g>
</svg>
