<?xml version="1.0" encoding="UTF-8" standalone="no"?>
<!DOCTYPE svg PUBLIC "-//W3C//DTD SVG 1.1//EN"
 "http://www.w3.org/Graphics/SVG/1.1/DTD/svg11.dtd">
<!-- Generated by graphviz version 2.43.0 (0)
 -->
<!-- Title: drawBuilder Pages: 1 -->
<svg width="822pt" height="1602pt"
 viewBox="0.00 0.00 822.00 1602.00" xmlns="http://www.w3.org/2000/svg" xmlns:xlink="http://www.w3.org/1999/xlink">
<g id="graph0" class="graph" transform="scale(1 1) rotate(0) translate(4 1598)">
<title>drawBuilder</title>
<polygon fill="white" stroke="transparent" points="-4,4 -4,-1598 818,-1598 818,4 -4,4"/>
<!-- start -->
<g id="node1" class="node">
<title>start</title>
<path fill="none" stroke="black" d="M239,-1594C239,-1594 209,-1594 209,-1594 203,-1594 197,-1588 197,-1582 197,-1582 197,-1570 197,-1570 197,-1564 203,-1558 209,-1558 209,-1558 239,-1558 239,-1558 245,-1558 251,-1564 251,-1570 251,-1570 251,-1582 251,-1582 251,-1588 245,-1594 239,-1594"/>
<text text-anchor="middle" x="224" y="-1572.3" font-family="Times,serif" font-size="14.00">开始</text>
</g>
<!-- init_surface -->
<g id="node2" class="node">
<title>init_surface</title>
<path fill="none" stroke="black" d="M293.5,-1521C293.5,-1521 154.5,-1521 154.5,-1521 148.5,-1521 142.5,-1515 142.5,-1509 142.5,-1509 142.5,-1497 142.5,-1497 142.5,-1491 148.5,-1485 154.5,-1485 154.5,-1485 293.5,-1485 293.5,-1485 299.5,-1485 305.5,-1491 305.5,-1497 305.5,-1497 305.5,-1509 305.5,-1509 305.5,-1515 299.5,-1521 293.5,-1521"/>
<text text-anchor="middle" x="224" y="-1499.3" font-family="Times,serif" font-size="14.00">初始化 surface 结构体</text>
</g>
<!-- start&#45;&gt;init_surface -->
<g id="edge1" class="edge">
<title>start&#45;&gt;init_surface</title>
<path fill="none" stroke="black" d="M224,-1557.81C224,-1549.79 224,-1540.05 224,-1531.07"/>
<polygon fill="black" stroke="black" points="227.5,-1531.03 224,-1521.03 220.5,-1531.03 227.5,-1531.03"/>
</g>
<!-- set_scroll_state -->
<g id="node3" class="node">
<title>set_scroll_state</title>
<path fill="none" stroke="black" d="M350.5,-1448C350.5,-1448 97.5,-1448 97.5,-1448 91.5,-1448 85.5,-1442 85.5,-1436 85.5,-1436 85.5,-1424 85.5,-1424 85.5,-1418 91.5,-1412 97.5,-1412 97.5,-1412 350.5,-1412 350.5,-1412 356.5,-1412 362.5,-1418 362.5,-1424 362.5,-1424 362.5,-1436 362.5,-1436 362.5,-1442 356.5,-1448 350.5,-1448"/>
<text text-anchor="middle" x="224" y="-1426.3" font-family="Times,serif" font-size="14.00">设置滚动状态 has_more_vertical=true</text>
</g>
<!-- init_surface&#45;&gt;set_scroll_state -->
<g id="edge2" class="edge">
<title>init_surface&#45;&gt;set_scroll_state</title>
<path fill="none" stroke="black" d="M224,-1484.81C224,-1476.79 224,-1467.05 224,-1458.07"/>
<polygon fill="black" stroke="black" points="227.5,-1458.03 224,-1448.03 220.5,-1458.03 227.5,-1458.03"/>
</g>
<!-- init_child_list -->
<g id="node4" class="node">
<title>init_child_list</title>
<path fill="none" stroke="black" d="M304,-1375C304,-1375 144,-1375 144,-1375 138,-1375 132,-1369 132,-1363 132,-1363 132,-1351 132,-1351 132,-1345 138,-1339 144,-1339 144,-1339 304,-1339 304,-1339 310,-1339 316,-1345 316,-1351 316,-1351 316,-1363 316,-1363 316,-1369 310,-1375 304,-1375"/>
<text text-anchor="middle" x="224" y="-1353.3" font-family="Times,serif" font-size="14.00">创建子部件列表 child_list</text>
</g>
<!-- set_scroll_state&#45;&gt;init_child_list -->
<g id="edge3" class="edge">
<title>set_scroll_state&#45;&gt;init_child_list</title>
<path fill="none" stroke="black" d="M224,-1411.81C224,-1403.79 224,-1394.05 224,-1385.07"/>
<polygon fill="black" stroke="black" points="227.5,-1385.03 224,-1375.03 220.5,-1385.03 227.5,-1385.03"/>
</g>
<!-- calc_accumulated_height -->
<g id="node5" class="node">
<title>calc_accumulated_height</title>
<path fill="none" stroke="black" d="M436,-1302C436,-1302 12,-1302 12,-1302 6,-1302 0,-1296 0,-1290 0,-1290 0,-1278 0,-1278 0,-1272 6,-1266 12,-1266 12,-1266 436,-1266 436,-1266 442,-1266 448,-1272 448,-1278 448,-1278 448,-1290 448,-1290 448,-1296 442,-1302 436,-1302"/>
<text text-anchor="middle" x="224" y="-1280.3" font-family="Times,serif" font-size="14.00">计算 accumulated_height = &#45;(vertical_offset + pending_lines)</text>
</g>
<!-- init_child_list&#45;&gt;calc_accumulated_height -->
<g id="edge4" class="edge">
<title>init_child_list&#45;&gt;calc_accumulated_height</title>
<path fill="none" stroke="black" d="M224,-1338.81C224,-1330.79 224,-1321.05 224,-1312.07"/>
<polygon fill="black" stroke="black" points="227.5,-1312.03 224,-1302.03 220.5,-1312.03 227.5,-1312.03"/>
</g>
<!-- reset_pending_lines -->
<g id="node6" class="node">
<title>reset_pending_lines</title>
<path fill="none" stroke="black" d="M296,-1229C296,-1229 152,-1229 152,-1229 146,-1229 140,-1223 140,-1217 140,-1217 140,-1205 140,-1205 140,-1199 146,-1193 152,-1193 152,-1193 296,-1193 296,-1193 302,-1193 308,-1199 308,-1205 308,-1205 308,-1217 308,-1217 308,-1223 302,-1229 296,-1229"/>
<text text-anchor="middle" x="224" y="-1207.3" font-family="Times,serif" font-size="14.00">重置 pending_lines=0</text>
</g>
<!-- calc_accumulated_height&#45;&gt;reset_pending_lines -->
<g id="edge5" class="edge">
<title>calc_accumulated_height&#45;&gt;reset_pending_lines</title>
<path fill="none" stroke="black" d="M224,-1265.81C224,-1257.79 224,-1248.05 224,-1239.07"/>
<polygon fill="black" stroke="black" points="227.5,-1239.03 224,-1229.03 220.5,-1239.03 227.5,-1239.03"/>
</g>
<!-- handle_initial_offset -->
<g id="node7" class="node">
<title>handle_initial_offset</title>
<path fill="none" stroke="black" d="M386,-1156C386,-1156 62,-1156 62,-1156 56,-1156 50,-1150 50,-1144 50,-1144 50,-1132 50,-1132 50,-1126 56,-1120 62,-1120 62,-1120 386,-1120 386,-1120 392,-1120 398,-1126 398,-1132 398,-1132 398,-1144 398,-1144 398,-1150 392,-1156 386,-1156"/>
<text text-anchor="middle" x="224" y="-1134.3" font-family="Times,serif" font-size="14.00">处理初始偏移 (accumulated_height&gt;0 且 top=0)</text>
</g>
<!-- reset_pending_lines&#45;&gt;handle_initial_offset -->
<g id="edge6" class="edge">
<title>reset_pending_lines&#45;&gt;handle_initial_offset</title>
<path fill="none" stroke="black" d="M224,-1192.81C224,-1184.79 224,-1175.05 224,-1166.07"/>
<polygon fill="black" stroke="black" points="227.5,-1166.03 224,-1156.03 220.5,-1166.03 227.5,-1166.03"/>
</g>
<!-- insert_initial_children -->
<g id="node8" class="node">
<title>insert_initial_children</title>
<path fill="none" stroke="black" d="M194.5,-1069C194.5,-1069 73.5,-1069 73.5,-1069 67.5,-1069 61.5,-1063 61.5,-1057 61.5,-1057 61.5,-1045 61.5,-1045 61.5,-1039 67.5,-1033 73.5,-1033 73.5,-1033 194.5,-1033 194.5,-1033 200.5,-1033 206.5,-1039 206.5,-1045 206.5,-1045 206.5,-1057 206.5,-1057 206.5,-1063 200.5,-1069 194.5,-1069"/>
<text text-anchor="middle" x="134" y="-1047.3" font-family="Times,serif" font-size="14.00">向上插入可见子部件</text>
</g>
<!-- handle_initial_offset&#45;&gt;insert_initial_children -->
<g id="edge7" class="edge">
<title>handle_initial_offset&#45;&gt;insert_initial_children</title>
<path fill="none" stroke="black" d="M154.78,-1119.76C147.04,-1115.17 140.12,-1109.36 135,-1102 130.45,-1095.46 129.03,-1087.18 129.09,-1079.25"/>
<polygon fill="black" stroke="black" points="132.58,-1079.45 129.87,-1069.21 125.6,-1078.91 132.58,-1079.45"/>
<text text-anchor="middle" x="217.5" y="-1090.8" font-family="Times,serif" font-size="14.00">accumulated_height&gt;0</text>
</g>
<!-- setup_loop -->
<g id="node9" class="node">
<title>setup_loop</title>
<path fill="none" stroke="black" d="M403.5,-996C403.5,-996 224.5,-996 224.5,-996 218.5,-996 212.5,-990 212.5,-984 212.5,-984 212.5,-972 212.5,-972 212.5,-966 218.5,-960 224.5,-960 224.5,-960 403.5,-960 403.5,-960 409.5,-960 415.5,-966 415.5,-972 415.5,-972 415.5,-984 415.5,-984 415.5,-990 409.5,-996 403.5,-996"/>
<text text-anchor="middle" x="314" y="-974.3" font-family="Times,serif" font-size="14.00">初始化循环变量 i=scroll.top</text>
</g>
<!-- handle_initial_offset&#45;&gt;setup_loop -->
<g id="edge9" class="edge">
<title>handle_initial_offset&#45;&gt;setup_loop</title>
<path fill="none" stroke="black" d="M279.31,-1119.96C287.31,-1115.3 294.64,-1109.41 300,-1102 320.04,-1074.3 320.58,-1033.53 318.12,-1006.63"/>
<polygon fill="black" stroke="black" points="321.56,-1005.92 316.97,-996.37 314.6,-1006.7 321.56,-1005.92"/>
<text text-anchor="middle" x="333.5" y="-1047.3" font-family="Times,serif" font-size="14.00">否则</text>
</g>
<!-- insert_initial_children&#45;&gt;setup_loop -->
<g id="edge8" class="edge">
<title>insert_initial_children&#45;&gt;setup_loop</title>
<path fill="none" stroke="black" d="M177.11,-1032.99C202.31,-1023.06 234.31,-1010.43 261.03,-999.89"/>
<polygon fill="black" stroke="black" points="262.6,-1003.04 270.61,-996.11 260.03,-996.53 262.6,-1003.04"/>
</g>
<!-- return -->
<g id="node21" class="node">
<title>return</title>
<path fill="none" stroke="black" d="M437.5,-36C437.5,-36 360.5,-36 360.5,-36 354.5,-36 348.5,-30 348.5,-24 348.5,-24 348.5,-12 348.5,-12 348.5,-6 354.5,0 360.5,0 360.5,0 437.5,0 437.5,0 443.5,0 449.5,-6 449.5,-12 449.5,-12 449.5,-24 449.5,-24 449.5,-30 443.5,-36 437.5,-36"/>
<text text-anchor="middle" x="399" y="-14.3" font-family="Times,serif" font-size="14.00">返回 surface</text>
</g>
<!-- insert_initial_children&#45;&gt;return -->
<g id="edge25" class="edge">
<title>insert_initial_children&#45;&gt;return</title>
<path fill="none" stroke="red" d="M125.94,-1032.91C120.02,-1018.78 113,-998.02 113,-979 113,-979 113,-979 113,-90 113,-44.02 254.01,-27.61 338,-21.91"/>
<polygon fill="red" stroke="red" points="338.44,-25.39 348.2,-21.25 337.99,-18.4 338.44,-25.39"/>
<text text-anchor="middle" x="166" y="-509.8" font-family="Times,serif" font-size="14.00">Allocator.Error</text>
</g>
<!-- loop_condition -->
<g id="node10" class="node">
<title>loop_condition</title>
<path fill="none" stroke="black" d="M412,-923C412,-923 248,-923 248,-923 242,-923 236,-917 236,-911 236,-911 236,-899 236,-899 236,-893 242,-887 248,-887 248,-887 412,-887 412,-887 418,-887 424,-893 424,-899 424,-899 424,-911 424,-911 424,-917 418,-923 412,-923"/>
<text text-anchor="middle" x="330" y="-901.3" font-family="Times,serif" font-size="14.00">遍历子部件 (itemAtIdx(i))</text>
</g>
<!-- setup_loop&#45;&gt;loop_condition -->
<g id="edge10" class="edge">
<title>setup_loop&#45;&gt;loop_condition</title>
<path fill="none" stroke="black" d="M317.87,-959.81C319.68,-951.79 321.88,-942.05 323.9,-933.07"/>
<polygon fill="black" stroke="black" points="327.38,-933.55 326.16,-923.03 320.55,-932.01 327.38,-933.55"/>
</g>
<!-- draw_child -->
<g id="node11" class="node">
<title>draw_child</title>
<path fill="none" stroke="black" d="M605,-836C605,-836 417,-836 417,-836 411,-836 405,-830 405,-824 405,-824 405,-812 405,-812 405,-806 411,-800 417,-800 417,-800 605,-800 605,-800 611,-800 617,-806 617,-812 617,-812 617,-824 617,-824 617,-830 611,-836 605,-836"/>
<text text-anchor="middle" x="511" y="-814.3" font-family="Times,serif" font-size="14.00">绘制子部件并添加到 child_list</text>
</g>
<!-- loop_condition&#45;&gt;draw_child -->
<g id="edge11" class="edge">
<title>loop_condition&#45;&gt;draw_child</title>
<path fill="none" stroke="black" d="M366.63,-886.8C395.18,-873.39 434.98,-854.7 465.56,-840.34"/>
<polygon fill="black" stroke="black" points="467.17,-843.45 474.74,-836.03 464.2,-837.11 467.17,-843.45"/>
<text text-anchor="middle" x="467" y="-857.8" font-family="Times,serif" font-size="14.00">存在子部件</text>
</g>
<!-- post_loop -->
<g id="node15" class="node">
<title>post_loop</title>
<path fill="none" stroke="black" d="M394,-488C394,-488 194,-488 194,-488 188,-488 182,-482 182,-476 182,-476 182,-464 182,-464 182,-458 188,-452 194,-452 194,-452 394,-452 394,-452 400,-452 406,-458 406,-464 406,-464 406,-476 406,-476 406,-482 400,-488 394,-488"/>
<text text-anchor="middle" x="294" y="-466.3" font-family="Times,serif" font-size="14.00">设置 has_more_vertical=false</text>
</g>
<!-- loop_condition&#45;&gt;post_loop -->
<g id="edge17" class="edge">
<title>loop_condition&#45;&gt;post_loop</title>
<path fill="none" stroke="black" d="M289.29,-886.95C263.12,-872.99 234,-850.39 234,-819 234,-819 234,-819 234,-556 234,-532.41 249.62,-510.76 264.92,-495.22"/>
<polygon fill="black" stroke="black" points="267.55,-497.54 272.34,-488.09 262.7,-492.5 267.55,-497.54"/>
<text text-anchor="middle" x="277" y="-683.8" font-family="Times,serif" font-size="14.00">无更多子部件</text>
</g>
<!-- update_accumulated_height -->
<g id="node12" class="node">
<title>update_accumulated_height</title>
<path fill="none" stroke="black" d="M647,-749C647,-749 375,-749 375,-749 369,-749 363,-743 363,-737 363,-737 363,-725 363,-725 363,-719 369,-713 375,-713 375,-713 647,-713 647,-713 653,-713 659,-719 659,-725 659,-725 659,-737 659,-737 659,-743 653,-749 647,-749"/>
<text text-anchor="middle" x="511" y="-727.3" font-family="Times,serif" font-size="14.00">更新 accumulated_height += 子部件高度</text>
</g>
<!-- draw_child&#45;&gt;update_accumulated_height -->
<g id="edge12" class="edge">
<title>draw_child&#45;&gt;update_accumulated_height</title>
<path fill="none" stroke="black" d="M511,-799.8C511,-788.16 511,-772.55 511,-759.24"/>
<polygon fill="black" stroke="black" points="514.5,-759.18 511,-749.18 507.5,-759.18 514.5,-759.18"/>
</g>
<!-- draw_child&#45;&gt;return -->
<g id="edge24" class="edge">
<title>draw_child&#45;&gt;return</title>
<path fill="none" stroke="red" d="M617.28,-808.68C663.81,-798.61 708,-777.16 708,-732 708,-732 708,-732 708,-90 708,-39.58 549.77,-24.96 459.77,-20.73"/>
<polygon fill="red" stroke="red" points="459.82,-17.23 449.68,-20.28 459.52,-24.22 459.82,-17.23"/>
<text text-anchor="middle" x="761" y="-393.3" font-family="Times,serif" font-size="14.00">Allocator.Error</text>
</g>
<!-- check_visibility -->
<g id="node13" class="node">
<title>check_visibility</title>
<path fill="none" stroke="black" d="M452,-662C452,-662 274,-662 274,-662 268,-662 262,-656 262,-650 262,-650 262,-638 262,-638 262,-632 268,-626 274,-626 274,-626 452,-626 452,-626 458,-626 464,-632 464,-638 464,-638 464,-650 464,-650 464,-656 458,-662 452,-662"/>
<text text-anchor="middle" x="363" y="-640.3" font-family="Times,serif" font-size="14.00">检查是否填满屏幕或需要光标</text>
</g>
<!-- update_accumulated_height&#45;&gt;check_visibility -->
<g id="edge13" class="edge">
<title>update_accumulated_height&#45;&gt;check_visibility</title>
<path fill="none" stroke="black" d="M481.05,-712.8C458.11,-699.62 426.28,-681.34 401.45,-667.08"/>
<polygon fill="black" stroke="black" points="403.07,-663.98 392.65,-662.03 399.58,-670.05 403.07,-663.98"/>
</g>
<!-- check_visibility&#45;&gt;loop_condition -->
<g id="edge14" class="edge">
<title>check_visibility&#45;&gt;loop_condition</title>
<path fill="none" stroke="black" d="M360.71,-662.04C358.87,-675.79 356.24,-695.64 354,-713 346.47,-771.37 337.94,-839.83 333.35,-876.86"/>
<polygon fill="black" stroke="black" points="329.87,-876.52 332.11,-886.87 336.82,-877.38 329.87,-876.52"/>
<text text-anchor="middle" x="376" y="-770.8" font-family="Times,serif" font-size="14.00">继续循环</text>
</g>
<!-- break_loop -->
<g id="node14" class="node">
<title>break_loop</title>
<path fill="none" stroke="black" d="M324,-575C324,-575 274,-575 274,-575 268,-575 262,-569 262,-563 262,-563 262,-551 262,-551 262,-545 268,-539 274,-539 274,-539 324,-539 324,-539 330,-539 336,-545 336,-551 336,-551 336,-563 336,-563 336,-569 330,-575 324,-575"/>
<text text-anchor="middle" x="299" y="-553.3" font-family="Times,serif" font-size="14.00">跳出循环</text>
</g>
<!-- check_visibility&#45;&gt;break_loop -->
<g id="edge15" class="edge">
<title>check_visibility&#45;&gt;break_loop</title>
<path fill="none" stroke="black" d="M303.23,-625.9C295.63,-621.28 288.83,-615.42 284,-608 279.43,-600.98 280.12,-592.51 282.86,-584.56"/>
<polygon fill="black" stroke="black" points="286.14,-585.8 287.01,-575.24 279.74,-582.95 286.14,-585.8"/>
<text text-anchor="middle" x="489" y="-596.8" font-family="Times,serif" font-size="14.00">accumulated_height &gt;= max_height 或 wants_cursor 满足</text>
</g>
<!-- break_loop&#45;&gt;post_loop -->
<g id="edge16" class="edge">
<title>break_loop&#45;&gt;post_loop</title>
<path fill="none" stroke="black" d="M297.99,-538.8C297.3,-527.16 296.39,-511.55 295.6,-498.24"/>
<polygon fill="black" stroke="black" points="299.09,-497.95 295.01,-488.18 292.1,-498.36 299.09,-497.95"/>
</g>
<!-- check_remaining_space -->
<g id="node16" class="node">
<title>check_remaining_space</title>
<path fill="none" stroke="black" d="M376,-415C376,-415 212,-415 212,-415 206,-415 200,-409 200,-403 200,-403 200,-391 200,-391 200,-385 206,-379 212,-379 212,-379 376,-379 376,-379 382,-379 388,-385 388,-391 388,-391 388,-403 388,-403 388,-409 382,-415 376,-415"/>
<text text-anchor="middle" x="294" y="-393.3" font-family="Times,serif" font-size="14.00">检查剩余空间并补充子部件</text>
</g>
<!-- post_loop&#45;&gt;check_remaining_space -->
<g id="edge18" class="edge">
<title>post_loop&#45;&gt;check_remaining_space</title>
<path fill="none" stroke="black" d="M294,-451.81C294,-443.79 294,-434.05 294,-425.07"/>
<polygon fill="black" stroke="black" points="297.5,-425.03 294,-415.03 290.5,-425.03 297.5,-425.03"/>
</g>
<!-- handle_cursor -->
<g id="node17" class="node">
<title>handle_cursor</title>
<path fill="none" stroke="black" d="M366.5,-342C366.5,-342 217.5,-342 217.5,-342 211.5,-342 205.5,-336 205.5,-330 205.5,-330 205.5,-318 205.5,-318 205.5,-312 211.5,-306 217.5,-306 217.5,-306 366.5,-306 366.5,-306 372.5,-306 378.5,-312 378.5,-318 378.5,-318 378.5,-330 378.5,-330 378.5,-336 372.5,-342 366.5,-342"/>
<text text-anchor="middle" x="292" y="-320.3" font-family="Times,serif" font-size="14.00">处理光标绘制和位置调整</text>
</g>
<!-- check_remaining_space&#45;&gt;handle_cursor -->
<g id="edge19" class="edge">
<title>check_remaining_space&#45;&gt;handle_cursor</title>
<path fill="none" stroke="black" d="M293.52,-378.81C293.29,-370.79 293.02,-361.05 292.76,-352.07"/>
<polygon fill="black" stroke="black" points="296.26,-351.93 292.48,-342.03 289.26,-352.12 296.26,-351.93"/>
</g>
<!-- check_remaining_space&#45;&gt;return -->
<g id="edge26" class="edge">
<title>check_remaining_space&#45;&gt;return</title>
<path fill="none" stroke="red" d="M388.11,-381.34C416.37,-371.19 440,-354.03 440,-325 440,-325 440,-325 440,-90 440,-73.19 431.27,-56.77 421.87,-43.97"/>
<polygon fill="red" stroke="red" points="424.61,-41.8 415.68,-36.11 419.11,-46.13 424.61,-41.8"/>
<text text-anchor="middle" x="493" y="-203.8" font-family="Times,serif" font-size="14.00">Allocator.Error</text>
</g>
<!-- reset_horizontal_scroll -->
<g id="node18" class="node">
<title>reset_horizontal_scroll</title>
<path fill="none" stroke="black" d="M343.5,-269C343.5,-269 236.5,-269 236.5,-269 230.5,-269 224.5,-263 224.5,-257 224.5,-257 224.5,-245 224.5,-245 224.5,-239 230.5,-233 236.5,-233 236.5,-233 343.5,-233 343.5,-233 349.5,-233 355.5,-239 355.5,-245 355.5,-245 355.5,-257 355.5,-257 355.5,-263 349.5,-269 343.5,-269"/>
<text text-anchor="middle" x="290" y="-247.3" font-family="Times,serif" font-size="14.00">更新水平滚动状态</text>
</g>
<!-- handle_cursor&#45;&gt;reset_horizontal_scroll -->
<g id="edge20" class="edge">
<title>handle_cursor&#45;&gt;reset_horizontal_scroll</title>
<path fill="none" stroke="black" d="M291.52,-305.81C291.29,-297.79 291.02,-288.05 290.76,-279.07"/>
<polygon fill="black" stroke="black" points="294.26,-278.93 290.48,-269.03 287.26,-279.12 294.26,-278.93"/>
</g>
<!-- filter_visible_children -->
<g id="node19" class="node">
<title>filter_visible_children</title>
<path fill="none" stroke="black" d="M389.5,-182C389.5,-182 188.5,-182 188.5,-182 182.5,-182 176.5,-176 176.5,-170 176.5,-170 176.5,-158 176.5,-158 176.5,-152 182.5,-146 188.5,-146 188.5,-146 389.5,-146 389.5,-146 395.5,-146 401.5,-152 401.5,-158 401.5,-158 401.5,-170 401.5,-170 401.5,-176 395.5,-182 389.5,-182"/>
<text text-anchor="middle" x="289" y="-160.3" font-family="Times,serif" font-size="14.00">过滤可见子部件范围 (start&#45;end)</text>
</g>
<!-- reset_horizontal_scroll&#45;&gt;filter_visible_children -->
<g id="edge21" class="edge">
<title>reset_horizontal_scroll&#45;&gt;filter_visible_children</title>
<path fill="none" stroke="black" d="M289.8,-232.8C289.66,-221.16 289.48,-205.55 289.32,-192.24"/>
<polygon fill="black" stroke="black" points="292.82,-192.13 289.2,-182.18 285.82,-192.22 292.82,-192.13"/>
</g>
<!-- update_surface -->
<g id="node20" class="node">
<title>update_surface</title>
<path fill="none" stroke="black" d="M400,-109C400,-109 158,-109 158,-109 152,-109 146,-103 146,-97 146,-97 146,-85 146,-85 146,-79 152,-73 158,-73 158,-73 400,-73 400,-73 406,-73 412,-79 412,-85 412,-85 412,-97 412,-97 412,-103 406,-109 400,-109"/>
<text text-anchor="middle" x="279" y="-87.3" font-family="Times,serif" font-size="14.00">更新 surface.children 和 last_height</text>
</g>
<!-- filter_visible_children&#45;&gt;update_surface -->
<g id="edge22" class="edge">
<title>filter_visible_children&#45;&gt;update_surface</title>
<path fill="none" stroke="black" d="M286.58,-145.81C285.45,-137.79 284.08,-128.05 282.81,-119.07"/>
<polygon fill="black" stroke="black" points="286.26,-118.44 281.4,-109.03 279.33,-119.42 286.26,-118.44"/>
</g>
<!-- update_surface&#45;&gt;return -->
<g id="edge23" class="edge">
<title>update_surface&#45;&gt;return</title>
<path fill="none" stroke="black" d="M307.74,-72.99C323.8,-63.49 344.01,-51.54 361.32,-41.29"/>
<polygon fill="black" stroke="black" points="363.25,-44.22 370.08,-36.11 359.69,-38.19 363.25,-44.22"/>
</g>
</g>
</svg>
