<?xml version="1.0" encoding="UTF-8" standalone="no"?>
<!DOCTYPE svg PUBLIC "-//W3C//DTD SVG 1.1//EN"
 "http://www.w3.org/Graphics/SVG/1.1/DTD/svg11.dtd">
<!-- Generated by graphviz version 2.43.0 (0)
 -->
<!-- Title: parseReader Pages: 1 -->
<svg width="1478pt" height="1153pt"
 viewBox="0.00 0.00 1478.33 1153.00" xmlns="http://www.w3.org/2000/svg" xmlns:xlink="http://www.w3.org/1999/xlink">
<g id="graph0" class="graph" transform="scale(1 1) rotate(0) translate(4 1149)">
<title>parseReader</title>
<polygon fill="white" stroke="transparent" points="-4,4 -4,-1149 1474.33,-1149 1474.33,4 -4,4"/>
<!-- start -->
<g id="node1" class="node">
<title>start</title>
<path fill="none" stroke="black" d="M1401,-1145C1401,-1145 1298,-1145 1298,-1145 1292,-1145 1286,-1139 1286,-1133 1286,-1133 1286,-1119 1286,-1119 1286,-1113 1292,-1107 1298,-1107 1298,-1107 1401,-1107 1401,-1107 1407,-1107 1413,-1113 1413,-1119 1413,-1119 1413,-1133 1413,-1133 1413,-1139 1407,-1145 1401,-1145"/>
<text text-anchor="middle" x="1349.5" y="-1129.8" font-family="Arial" font-size="14.00">parseReader 入口</text>
<text text-anchor="middle" x="1349.5" y="-1114.8" font-family="Arial" font-size="14.00">清空缓冲区</text>
</g>
<!-- loop -->
<g id="node2" class="node">
<title>loop</title>
<path fill="none" stroke="black" d="M1374.5,-1034C1374.5,-1034 1324.5,-1034 1324.5,-1034 1318.5,-1034 1312.5,-1028 1312.5,-1022 1312.5,-1022 1312.5,-1010 1312.5,-1010 1312.5,-1004 1318.5,-998 1324.5,-998 1324.5,-998 1374.5,-998 1374.5,-998 1380.5,-998 1386.5,-1004 1386.5,-1010 1386.5,-1010 1386.5,-1022 1386.5,-1022 1386.5,-1028 1380.5,-1034 1374.5,-1034"/>
<text text-anchor="middle" x="1349.5" y="-1012.3" font-family="Arial" font-size="14.00">循环开始</text>
</g>
<!-- start&#45;&gt;loop -->
<g id="edge1" class="edge">
<title>start&#45;&gt;loop</title>
<path fill="none" stroke="black" d="M1349.5,-1106.68C1349.5,-1089.62 1349.5,-1063.96 1349.5,-1044.45"/>
<polygon fill="black" stroke="black" points="1353,-1044.34 1349.5,-1034.34 1346,-1044.34 1353,-1044.34"/>
</g>
<!-- check_pending -->
<g id="node3" class="node">
<title>check_pending</title>
<path fill="none" stroke="black" d="M1328,-925C1328,-925 1185,-925 1185,-925 1179,-925 1173,-919 1173,-913 1173,-913 1173,-899 1173,-899 1173,-893 1179,-887 1185,-887 1185,-887 1328,-887 1328,-887 1334,-887 1340,-893 1340,-899 1340,-899 1340,-913 1340,-913 1340,-919 1334,-925 1328,-925"/>
<text text-anchor="middle" x="1256.5" y="-909.8" font-family="Arial" font-size="14.00">检查 pending_byte</text>
<text text-anchor="middle" x="1256.5" y="-894.8" font-family="Arial" font-size="14.00">是否存在未处理的字节?</text>
</g>
<!-- loop&#45;&gt;check_pending -->
<g id="edge2" class="edge">
<title>loop&#45;&gt;check_pending</title>
<path fill="none" stroke="black" d="M1334.56,-997.65C1319.49,-980.14 1296.04,-952.91 1278.77,-932.86"/>
<polygon fill="black" stroke="black" points="1281.2,-930.32 1272.03,-925.03 1275.9,-934.89 1281.2,-930.32"/>
</g>
<!-- read_byte -->
<g id="node4" class="node">
<title>read_byte</title>
<path fill="none" stroke="black" d="M1154.5,-800C1154.5,-800 1030.5,-800 1030.5,-800 1024.5,-800 1018.5,-794 1018.5,-788 1018.5,-788 1018.5,-776 1018.5,-776 1018.5,-770 1024.5,-764 1030.5,-764 1030.5,-764 1154.5,-764 1154.5,-764 1160.5,-764 1166.5,-770 1166.5,-776 1166.5,-776 1166.5,-788 1166.5,-788 1166.5,-794 1160.5,-800 1154.5,-800"/>
<text text-anchor="middle" x="1092.5" y="-778.3" font-family="Arial" font-size="14.00">从 reader 读取新字节</text>
</g>
<!-- check_pending&#45;&gt;read_byte -->
<g id="edge3" class="edge">
<title>check_pending&#45;&gt;read_byte</title>
<path fill="none" stroke="black" d="M1232.3,-887C1203.43,-865.52 1155.1,-829.57 1123.52,-806.07"/>
<polygon fill="black" stroke="black" points="1125.59,-803.25 1115.47,-800.09 1121.41,-808.87 1125.59,-803.25"/>
<text text-anchor="middle" x="1187" y="-839.8" font-family="Arial" font-size="14.00">否</text>
</g>
<!-- pending_handled -->
<g id="node17" class="node">
<title>pending_handled</title>
<path fill="none" stroke="black" d="M1324.5,-800C1324.5,-800 1214.5,-800 1214.5,-800 1208.5,-800 1202.5,-794 1202.5,-788 1202.5,-788 1202.5,-776 1202.5,-776 1202.5,-770 1208.5,-764 1214.5,-764 1214.5,-764 1324.5,-764 1324.5,-764 1330.5,-764 1336.5,-770 1336.5,-776 1336.5,-776 1336.5,-788 1336.5,-788 1336.5,-794 1330.5,-800 1324.5,-800"/>
<text text-anchor="middle" x="1269.5" y="-778.3" font-family="Arial" font-size="14.00">pending_byte = null</text>
</g>
<!-- check_pending&#45;&gt;pending_handled -->
<g id="edge4" class="edge">
<title>check_pending&#45;&gt;pending_handled</title>
<path fill="none" stroke="black" d="M1258.42,-887C1260.57,-866.77 1264.1,-833.69 1266.59,-810.28"/>
<polygon fill="black" stroke="black" points="1270.08,-810.6 1267.66,-800.29 1263.12,-809.86 1270.08,-810.6"/>
<text text-anchor="middle" x="1271" y="-839.8" font-family="Arial" font-size="14.00">是</text>
</g>
<!-- process_byte -->
<g id="node5" class="node">
<title>process_byte</title>
<path fill="none" stroke="black" d="M1187.5,-677C1187.5,-677 1109.5,-677 1109.5,-677 1103.5,-677 1097.5,-671 1097.5,-665 1097.5,-665 1097.5,-653 1097.5,-653 1097.5,-647 1103.5,-641 1109.5,-641 1109.5,-641 1187.5,-641 1187.5,-641 1193.5,-641 1199.5,-647 1199.5,-653 1199.5,-653 1199.5,-665 1199.5,-665 1199.5,-671 1193.5,-677 1187.5,-677"/>
<text text-anchor="middle" x="1148.5" y="-655.3" font-family="Arial" font-size="14.00">处理当前字节</text>
</g>
<!-- read_byte&#45;&gt;process_byte -->
<g id="edge6" class="edge">
<title>read_byte&#45;&gt;process_byte</title>
<path fill="none" stroke="black" d="M1100.4,-763.92C1109.73,-743.77 1125.35,-710.03 1136.25,-686.48"/>
<polygon fill="black" stroke="black" points="1139.43,-687.93 1140.45,-677.38 1133.08,-684.99 1139.43,-687.93"/>
</g>
<!-- esc_case -->
<g id="node6" class="node">
<title>esc_case</title>
<path fill="none" stroke="black" d="M1206.5,-568C1206.5,-568 1090.5,-568 1090.5,-568 1084.5,-568 1078.5,-562 1078.5,-556 1078.5,-556 1078.5,-544 1078.5,-544 1078.5,-538 1084.5,-532 1090.5,-532 1090.5,-532 1206.5,-532 1206.5,-532 1212.5,-532 1218.5,-538 1218.5,-544 1218.5,-544 1218.5,-556 1218.5,-556 1218.5,-562 1212.5,-568 1206.5,-568"/>
<text text-anchor="middle" x="1148.5" y="-546.3" font-family="Arial" font-size="14.00">字节是 0x1b (ESC)?</text>
</g>
<!-- process_byte&#45;&gt;esc_case -->
<g id="edge7" class="edge">
<title>process_byte&#45;&gt;esc_case</title>
<path fill="none" stroke="black" d="M1148.5,-640.81C1148.5,-623.96 1148.5,-598.02 1148.5,-578.34"/>
<polygon fill="black" stroke="black" points="1152,-578.15 1148.5,-568.15 1145,-578.15 1152,-578.15"/>
</g>
<!-- handle_esc -->
<g id="node7" class="node">
<title>handle_esc</title>
<path fill="none" stroke="black" d="M1023.5,-444C1023.5,-444 931.5,-444 931.5,-444 925.5,-444 919.5,-438 919.5,-432 919.5,-432 919.5,-420 919.5,-420 919.5,-414 925.5,-408 931.5,-408 931.5,-408 1023.5,-408 1023.5,-408 1029.5,-408 1035.5,-414 1035.5,-420 1035.5,-420 1035.5,-432 1035.5,-432 1035.5,-438 1029.5,-444 1023.5,-444"/>
<text text-anchor="middle" x="977.5" y="-422.3" font-family="Arial" font-size="14.00">读取下一个字节</text>
</g>
<!-- esc_case&#45;&gt;handle_esc -->
<g id="edge8" class="edge">
<title>esc_case&#45;&gt;handle_esc</title>
<path fill="none" stroke="black" d="M1124.36,-531.78C1094.45,-510.43 1043.34,-473.98 1010,-450.19"/>
<polygon fill="black" stroke="black" points="1011.69,-447.09 1001.51,-444.13 1007.62,-452.79 1011.69,-447.09"/>
<text text-anchor="middle" x="1081" y="-484.8" font-family="Arial" font-size="14.00">是</text>
</g>
<!-- c0_control -->
<g id="node15" class="node">
<title>c0_control</title>
<path fill="none" stroke="black" d="M1272.5,-371C1272.5,-371 1168.5,-371 1168.5,-371 1162.5,-371 1156.5,-365 1156.5,-359 1156.5,-359 1156.5,-347 1156.5,-347 1156.5,-341 1162.5,-335 1168.5,-335 1168.5,-335 1272.5,-335 1272.5,-335 1278.5,-335 1284.5,-341 1284.5,-347 1284.5,-347 1284.5,-359 1284.5,-359 1284.5,-365 1278.5,-371 1272.5,-371"/>
<text text-anchor="middle" x="1220.5" y="-349.3" font-family="Arial" font-size="14.00">返回 .c0 控制字符</text>
</g>
<!-- esc_case&#45;&gt;c0_control -->
<g id="edge9" class="edge">
<title>esc_case&#45;&gt;c0_control</title>
<path fill="none" stroke="black" d="M1142.82,-531.93C1139.06,-517.99 1135.62,-497.9 1140.5,-481 1151.75,-442.03 1178.89,-403.5 1198.44,-379.28"/>
<polygon fill="black" stroke="black" points="1201.34,-381.27 1205.01,-371.33 1195.94,-376.82 1201.34,-381.27"/>
<text text-anchor="middle" x="1202.5" y="-484.8" font-family="Arial" font-size="14.00">字节是 C0 控制字符</text>
</g>
<!-- ground -->
<g id="node16" class="node">
<title>ground</title>
<path fill="none" stroke="black" d="M1411.5,-445C1411.5,-445 1249.5,-445 1249.5,-445 1243.5,-445 1237.5,-439 1237.5,-433 1237.5,-433 1237.5,-419 1237.5,-419 1237.5,-413 1243.5,-407 1249.5,-407 1249.5,-407 1411.5,-407 1411.5,-407 1417.5,-407 1423.5,-413 1423.5,-419 1423.5,-419 1423.5,-433 1423.5,-433 1423.5,-439 1417.5,-445 1411.5,-445"/>
<text text-anchor="middle" x="1330.5" y="-429.8" font-family="Arial" font-size="14.00">追加到缓冲区</text>
<text text-anchor="middle" x="1330.5" y="-414.8" font-family="Arial" font-size="14.00">调用 parseGround(buffered)</text>
</g>
<!-- esc_case&#45;&gt;ground -->
<g id="edge10" class="edge">
<title>esc_case&#45;&gt;ground</title>
<path fill="none" stroke="black" d="M1204.13,-531.95C1226.95,-523.35 1252.81,-511.43 1273.5,-496 1289.08,-484.39 1303.04,-467.65 1313.24,-453.58"/>
<polygon fill="black" stroke="black" points="1316.22,-455.42 1319.09,-445.22 1310.49,-451.41 1316.22,-455.42"/>
<text text-anchor="middle" x="1318.5" y="-484.8" font-family="Arial" font-size="14.00">其他情况</text>
</g>
<!-- esc_subcases -->
<g id="node8" class="node">
<title>esc_subcases</title>
<path fill="none" stroke="black" d="M848,-299C848,-299 699,-299 699,-299 693,-299 687,-293 687,-287 687,-287 687,-275 687,-275 687,-269 693,-263 699,-263 699,-263 848,-263 848,-263 854,-263 860,-269 860,-275 860,-275 860,-287 860,-287 860,-293 854,-299 848,-299"/>
<text text-anchor="middle" x="773.5" y="-277.3" font-family="Arial" font-size="14.00">根据下一个字节的值分支</text>
</g>
<!-- handle_esc&#45;&gt;esc_subcases -->
<g id="edge11" class="edge">
<title>handle_esc&#45;&gt;esc_subcases</title>
<path fill="none" stroke="black" d="M952.89,-407.75C916.19,-382.02 847.05,-333.55 806.15,-304.89"/>
<polygon fill="black" stroke="black" points="808.07,-301.96 797.88,-299.09 804.06,-307.69 808.07,-301.96"/>
</g>
<!-- ss2 -->
<g id="node9" class="node">
<title>ss2</title>
<path fill="none" stroke="black" d="M119,-161C119,-161 12,-161 12,-161 6,-161 0,-155 0,-149 0,-149 0,-135 0,-135 0,-129 6,-123 12,-123 12,-123 119,-123 119,-123 125,-123 131,-129 131,-135 131,-135 131,-149 131,-149 131,-155 125,-161 119,-161"/>
<text text-anchor="middle" x="65.5" y="-145.8" font-family="Arial" font-size="14.00">返回 .ss2</text>
<text text-anchor="middle" x="65.5" y="-130.8" font-family="Arial" font-size="14.00">并读取第三个字节</text>
</g>
<!-- esc_subcases&#45;&gt;ss2 -->
<g id="edge12" class="edge">
<title>esc_subcases&#45;&gt;ss2</title>
<path fill="none" stroke="black" d="M686.91,-272.52C603.51,-264.44 474.08,-249.61 363.5,-227 281.94,-210.33 189.99,-183.08 130.08,-164.16"/>
<polygon fill="black" stroke="black" points="130.97,-160.77 120.38,-161.08 128.85,-167.44 130.97,-160.77"/>
<text text-anchor="middle" x="379" y="-208.3" font-family="Arial" font-size="14.00">0x4E</text>
</g>
<!-- ss3 -->
<g id="node10" class="node">
<title>ss3</title>
<path fill="none" stroke="black" d="M286,-161C286,-161 179,-161 179,-161 173,-161 167,-155 167,-149 167,-149 167,-135 167,-135 167,-129 173,-123 179,-123 179,-123 286,-123 286,-123 292,-123 298,-129 298,-135 298,-135 298,-149 298,-149 298,-155 292,-161 286,-161"/>
<text text-anchor="middle" x="232.5" y="-145.8" font-family="Arial" font-size="14.00">返回 .ss3</text>
<text text-anchor="middle" x="232.5" y="-130.8" font-family="Arial" font-size="14.00">并读取第三个字节</text>
</g>
<!-- esc_subcases&#45;&gt;ss3 -->
<g id="edge13" class="edge">
<title>esc_subcases&#45;&gt;ss3</title>
<path fill="none" stroke="black" d="M686.87,-264.68C635.36,-255.04 568.89,-241.67 510.5,-227 436.35,-208.37 352.5,-182.34 296.46,-164.21"/>
<polygon fill="black" stroke="black" points="297.26,-160.79 286.67,-161.03 295.1,-167.45 297.26,-160.79"/>
<text text-anchor="middle" x="526" y="-208.3" font-family="Arial" font-size="14.00">0x4F</text>
</g>
<!-- csi -->
<g id="node11" class="node">
<title>csi</title>
<path fill="none" stroke="black" d="M471,-160C471,-160 346,-160 346,-160 340,-160 334,-154 334,-148 334,-148 334,-136 334,-136 334,-130 340,-124 346,-124 346,-124 471,-124 471,-124 477,-124 483,-130 483,-136 483,-136 483,-148 483,-148 483,-154 477,-160 471,-160"/>
<text text-anchor="middle" x="408.5" y="-138.3" font-family="Arial" font-size="14.00">调用 parseCsi(reader)</text>
</g>
<!-- esc_subcases&#45;&gt;csi -->
<g id="edge14" class="edge">
<title>esc_subcases&#45;&gt;csi</title>
<path fill="none" stroke="black" d="M726.76,-262.94C698.56,-252.61 661.94,-239.13 629.5,-227 572.37,-205.63 507.1,-180.77 462.39,-163.67"/>
<polygon fill="black" stroke="black" points="463.48,-160.34 452.89,-160.03 460.98,-166.87 463.48,-160.34"/>
<text text-anchor="middle" x="645" y="-208.3" font-family="Arial" font-size="14.00">0x5B</text>
</g>
<!-- osc -->
<g id="node12" class="node">
<title>osc</title>
<path fill="none" stroke="black" d="M662,-160C662,-160 531,-160 531,-160 525,-160 519,-154 519,-148 519,-148 519,-136 519,-136 519,-130 525,-124 531,-124 531,-124 662,-124 662,-124 668,-124 674,-130 674,-136 674,-136 674,-148 674,-148 674,-154 668,-160 662,-160"/>
<text text-anchor="middle" x="596.5" y="-138.3" font-family="Arial" font-size="14.00">调用 parseOsc(reader)</text>
</g>
<!-- esc_subcases&#45;&gt;osc -->
<g id="edge15" class="edge">
<title>esc_subcases&#45;&gt;osc</title>
<path fill="none" stroke="black" d="M751.44,-262.93C719.95,-238.56 662.03,-193.72 626.62,-166.31"/>
<polygon fill="black" stroke="black" points="628.61,-163.43 618.56,-160.07 624.32,-168.96 628.61,-163.43"/>
<text text-anchor="middle" x="717.5" y="-208.3" font-family="Arial" font-size="14.00">0x5D</text>
</g>
<!-- apc -->
<g id="node13" class="node">
<title>apc</title>
<path fill="none" stroke="black" d="M851,-160C851,-160 722,-160 722,-160 716,-160 710,-154 710,-148 710,-148 710,-136 710,-136 710,-130 716,-124 722,-124 722,-124 851,-124 851,-124 857,-124 863,-130 863,-136 863,-136 863,-148 863,-148 863,-154 857,-160 851,-160"/>
<text text-anchor="middle" x="786.5" y="-138.3" font-family="Arial" font-size="14.00">调用 parseApc(reader)</text>
</g>
<!-- esc_subcases&#45;&gt;apc -->
<g id="edge16" class="edge">
<title>esc_subcases&#45;&gt;apc</title>
<path fill="none" stroke="black" d="M770.67,-262.73C768.37,-245.87 766.04,-219.53 769.5,-197 770.9,-187.92 773.54,-178.28 776.33,-169.69"/>
<polygon fill="black" stroke="black" points="779.65,-170.78 779.61,-160.19 773.04,-168.5 779.65,-170.78"/>
<text text-anchor="middle" x="785" y="-208.3" font-family="Arial" font-size="14.00">0x5F</text>
</g>
<!-- esc_other -->
<g id="node14" class="node">
<title>esc_other</title>
<path fill="none" stroke="black" d="M989.5,-161C989.5,-161 911.5,-161 911.5,-161 905.5,-161 899.5,-155 899.5,-149 899.5,-149 899.5,-135 899.5,-135 899.5,-129 905.5,-123 911.5,-123 911.5,-123 989.5,-123 989.5,-123 995.5,-123 1001.5,-129 1001.5,-135 1001.5,-135 1001.5,-149 1001.5,-149 1001.5,-155 995.5,-161 989.5,-161"/>
<text text-anchor="middle" x="950.5" y="-145.8" font-family="Arial" font-size="14.00">追加到缓冲区</text>
<text text-anchor="middle" x="950.5" y="-130.8" font-family="Arial" font-size="14.00">返回 .escape</text>
</g>
<!-- esc_subcases&#45;&gt;esc_other -->
<g id="edge17" class="edge">
<title>esc_subcases&#45;&gt;esc_other</title>
<path fill="none" stroke="black" d="M784.27,-262.92C796.41,-244.74 817.6,-216.02 841.5,-197 857.26,-184.46 876.41,-173.77 894.23,-165.29"/>
<polygon fill="black" stroke="black" points="895.79,-168.42 903.4,-161.06 892.86,-162.06 895.79,-168.42"/>
<text text-anchor="middle" x="873.5" y="-208.3" font-family="Arial" font-size="14.00">0x20&#45;0x2F</text>
</g>
<!-- esc_subcases&#45;&gt;esc_other -->
<g id="edge18" class="edge">
<title>esc_subcases&#45;&gt;esc_other</title>
<path fill="none" stroke="black" d="M847.18,-262.9C869.54,-254.9 892.83,-243.39 910.5,-227 926.71,-211.96 937.02,-188.99 943.11,-170.87"/>
<polygon fill="black" stroke="black" points="946.51,-171.7 946.14,-161.11 939.83,-169.62 946.51,-171.7"/>
<text text-anchor="middle" x="953" y="-208.3" font-family="Arial" font-size="14.00">其他值</text>
</g>
<!-- skip -->
<g id="node18" class="node">
<title>skip</title>
<polygon fill="none" stroke="grey" stroke-dasharray="5,2" points="1201.5,-160 1037.5,-160 1037.5,-124 1201.5,-124 1201.5,-160"/>
<text text-anchor="middle" x="1119.5" y="-138.3" font-family="Arial" font-size="14.00">调用 skipUntilST(reader)</text>
</g>
<!-- esc_subcases&#45;&gt;skip -->
<g id="edge19" class="edge">
<title>esc_subcases&#45;&gt;skip</title>
<path fill="none" stroke="grey" d="M860.24,-264.36C898.87,-255.82 944.37,-243.56 983.5,-227 1021.78,-210.8 1061.83,-184.8 1088.46,-166.01"/>
<polygon fill="grey" stroke="grey" points="1090.52,-168.85 1096.62,-160.19 1086.45,-163.15 1090.52,-168.85"/>
<text text-anchor="middle" x="1087" y="-215.8" font-family="Arial" font-size="14.00">0x50/0x58/0x5E</text>
<text text-anchor="middle" x="1087" y="-200.8" font-family="Arial" font-size="14.00">跳过直到 ST</text>
</g>
<!-- end -->
<g id="node19" class="node">
<title>end</title>
<ellipse fill="none" stroke="black" cx="715.5" cy="-18" rx="48.19" ry="18"/>
<text text-anchor="middle" x="715.5" y="-14.3" font-family="Arial" font-size="14.00">函数返回</text>
</g>
<!-- ss2&#45;&gt;end -->
<g id="edge20" class="edge">
<title>ss2&#45;&gt;end</title>
<path fill="none" stroke="black" d="M131.16,-126.57C137.02,-125.34 142.86,-124.14 148.5,-123 337.25,-84.97 562.54,-45.36 662.84,-28.03"/>
<polygon fill="black" stroke="black" points="663.47,-31.47 672.73,-26.32 662.28,-24.57 663.47,-31.47"/>
<text text-anchor="middle" x="427" y="-75.8" font-family="Arial" font-size="14.00">返回</text>
</g>
<!-- ss3&#45;&gt;end -->
<g id="edge21" class="edge">
<title>ss3&#45;&gt;end</title>
<path fill="none" stroke="black" d="M298.14,-124.42C396.39,-99.6 579.46,-53.36 666.76,-31.31"/>
<polygon fill="black" stroke="black" points="667.83,-34.65 676.67,-28.81 666.11,-27.86 667.83,-34.65"/>
<text text-anchor="middle" x="518" y="-75.8" font-family="Arial" font-size="14.00">返回</text>
</g>
<!-- csi&#45;&gt;end -->
<g id="edge22" class="edge">
<title>csi&#45;&gt;end</title>
<path fill="none" stroke="black" d="M451.51,-123.91C510.48,-100.47 615.72,-58.65 673.92,-35.52"/>
<polygon fill="black" stroke="black" points="675.54,-38.65 683.54,-31.7 672.95,-32.14 675.54,-38.65"/>
<text text-anchor="middle" x="595" y="-75.8" font-family="Arial" font-size="14.00">返回</text>
</g>
<!-- osc&#45;&gt;end -->
<g id="edge23" class="edge">
<title>osc&#45;&gt;end</title>
<path fill="none" stroke="black" d="M613.3,-123.78C633.99,-102.56 669.26,-66.41 692.47,-42.61"/>
<polygon fill="black" stroke="black" points="695.07,-44.96 699.55,-35.35 690.06,-40.07 695.07,-44.96"/>
<text text-anchor="middle" x="678" y="-75.8" font-family="Arial" font-size="14.00">返回</text>
</g>
<!-- apc&#45;&gt;end -->
<g id="edge24" class="edge">
<title>apc&#45;&gt;end</title>
<path fill="none" stroke="black" d="M776.48,-123.78C764.46,-103.14 744.22,-68.36 730.38,-44.57"/>
<polygon fill="black" stroke="black" points="733.3,-42.62 725.24,-35.74 727.25,-46.15 733.3,-42.62"/>
<text text-anchor="middle" x="768" y="-75.8" font-family="Arial" font-size="14.00">返回</text>
</g>
<!-- esc_other&#45;&gt;end -->
<g id="edge25" class="edge">
<title>esc_other&#45;&gt;end</title>
<path fill="none" stroke="black" d="M915.82,-123C871.84,-100.16 796.36,-60.98 751.67,-37.78"/>
<polygon fill="black" stroke="black" points="753.11,-34.58 742.63,-33.08 749.89,-40.8 753.11,-34.58"/>
<text text-anchor="middle" x="855" y="-75.8" font-family="Arial" font-size="14.00">返回</text>
</g>
<!-- c0_control&#45;&gt;end -->
<g id="edge26" class="edge">
<title>c0_control&#45;&gt;end</title>
<path fill="none" stroke="black" d="M1226.86,-334.96C1241.15,-293.39 1270.74,-185.61 1219.5,-123 1163.56,-54.64 893.34,-29.84 773.24,-22.09"/>
<polygon fill="black" stroke="black" points="773.33,-18.59 763.13,-21.45 772.89,-25.57 773.33,-18.59"/>
<text text-anchor="middle" x="1262" y="-208.3" font-family="Arial" font-size="14.00">返回</text>
</g>
<!-- ground&#45;&gt;loop -->
<g id="edge29" class="edge">
<title>ground&#45;&gt;loop</title>
<path fill="none" stroke="blue" stroke-dasharray="5,2" d="M1347.58,-445.24C1366.84,-467.79 1395.5,-508.2 1395.5,-549 1395.5,-907 1395.5,-907 1395.5,-907 1395.5,-937 1380.29,-968.21 1367.36,-989.32"/>
<polygon fill="blue" stroke="blue" points="1364.26,-987.68 1361.83,-997.99 1370.16,-991.44 1364.26,-987.68"/>
<text text-anchor="middle" x="1428" y="-716.8" font-family="Arial" font-size="14.00">继续循环?</text>
</g>
<!-- ground&#45;&gt;end -->
<g id="edge27" class="edge">
<title>ground&#45;&gt;end</title>
<path fill="none" stroke="black" d="M1331.35,-406.93C1332.78,-355.99 1330.01,-209.32 1257.5,-123 1228.92,-88.97 1213.6,-86.21 1171.5,-72 1034.39,-25.73 862.4,-18.43 773.97,-18.1"/>
<polygon fill="black" stroke="black" points="773.87,-14.6 763.86,-18.09 773.86,-21.6 773.87,-14.6"/>
<text text-anchor="middle" x="1324" y="-208.3" font-family="Arial" font-size="14.00">返回</text>
</g>
<!-- pending_handled&#45;&gt;process_byte -->
<g id="edge5" class="edge">
<title>pending_handled&#45;&gt;process_byte</title>
<path fill="none" stroke="black" d="M1252.42,-763.92C1231.73,-743.23 1196.72,-708.22 1173.11,-684.61"/>
<polygon fill="black" stroke="black" points="1175.43,-681.98 1165.88,-677.38 1170.48,-686.93 1175.43,-681.98"/>
</g>
<!-- end&#45;&gt;loop -->
</g>
</svg>
