<?xml version="1.0" encoding="UTF-8" standalone="no"?>
<!DOCTYPE svg PUBLIC "-//W3C//DTD SVG 1.1//EN"
 "http://www.w3.org/Graphics/SVG/1.1/DTD/svg11.dtd">
<!-- Generated by graphviz version 2.43.0 (0)
 -->
<!-- Title: ParamIteratorFlow Pages: 1 -->
<svg width="840pt" height="764pt"
 viewBox="0.00 0.00 839.63 763.91" xmlns="http://www.w3.org/2000/svg" xmlns:xlink="http://www.w3.org/1999/xlink">
<g id="graph0" class="graph" transform="scale(1 1) rotate(0) translate(4 759.91)">
<title>ParamIteratorFlow</title>
<polygon fill="white" stroke="transparent" points="-4,4 -4,-759.91 835.63,-759.91 835.63,4 -4,4"/>
<!-- start -->
<g id="node1" class="node">
<title>start</title>
<path fill="none" stroke="black" d="M520.97,-755.91C520.97,-755.91 230.97,-755.91 230.97,-755.91 224.97,-755.91 218.97,-749.91 218.97,-743.91 218.97,-743.91 218.97,-729.91 218.97,-729.91 218.97,-723.91 224.97,-717.91 230.97,-717.91 230.97,-717.91 520.97,-717.91 520.97,-717.91 526.97,-717.91 532.97,-723.91 532.97,-729.91 532.97,-729.91 532.97,-743.91 532.97,-743.91 532.97,-749.91 526.97,-755.91 520.97,-755.91"/>
<text text-anchor="middle" x="375.97" y="-740.71" font-family="Arial" font-size="14.00">ParamIterator初始化</text>
<text text-anchor="middle" x="375.97" y="-725.71" font-family="Arial" font-size="14.00">(bytes, idx=0, next_is_sub=false, is_empty=false)</text>
</g>
<!-- next_start -->
<g id="node2" class="node">
<title>next_start</title>
<path fill="none" stroke="black" d="M405.47,-680.91C405.47,-680.91 346.47,-680.91 346.47,-680.91 340.47,-680.91 334.47,-674.91 334.47,-668.91 334.47,-668.91 334.47,-656.91 334.47,-656.91 334.47,-650.91 340.47,-644.91 346.47,-644.91 346.47,-644.91 405.47,-644.91 405.47,-644.91 411.47,-644.91 417.47,-650.91 417.47,-656.91 417.47,-656.91 417.47,-668.91 417.47,-668.91 417.47,-674.91 411.47,-680.91 405.47,-680.91"/>
<text text-anchor="middle" x="375.97" y="-659.21" font-family="Arial" font-size="14.00">调用 next()</text>
</g>
<!-- start&#45;&gt;next_start -->
<g id="edge1" class="edge">
<title>start&#45;&gt;next_start</title>
<path fill="none" stroke="black" d="M375.97,-717.74C375.97,-709.8 375.97,-700.32 375.97,-691.54"/>
<polygon fill="black" stroke="black" points="379.47,-691.32 375.97,-681.32 372.47,-691.32 379.47,-691.32"/>
</g>
<!-- reset_state -->
<g id="node3" class="node">
<title>reset_state</title>
<path fill="none" stroke="black" d="M430.47,-607.91C430.47,-607.91 321.47,-607.91 321.47,-607.91 315.47,-607.91 309.47,-601.91 309.47,-595.91 309.47,-595.91 309.47,-566.91 309.47,-566.91 309.47,-560.91 315.47,-554.91 321.47,-554.91 321.47,-554.91 430.47,-554.91 430.47,-554.91 436.47,-554.91 442.47,-560.91 442.47,-566.91 442.47,-566.91 442.47,-595.91 442.47,-595.91 442.47,-601.91 436.47,-607.91 430.47,-607.91"/>
<text text-anchor="middle" x="375.97" y="-592.71" font-family="Arial" font-size="14.00">重置状态:</text>
<text text-anchor="middle" x="375.97" y="-577.71" font-family="Arial" font-size="14.00">next_is_sub = false</text>
<text text-anchor="middle" x="375.97" y="-562.71" font-family="Arial" font-size="14.00">is_empty = false</text>
</g>
<!-- next_start&#45;&gt;reset_state -->
<g id="edge2" class="edge">
<title>next_start&#45;&gt;reset_state</title>
<path fill="none" stroke="black" d="M375.97,-644.66C375.97,-636.89 375.97,-627.42 375.97,-618.23"/>
<polygon fill="black" stroke="black" points="379.47,-618.08 375.97,-608.08 372.47,-618.08 379.47,-618.08"/>
</g>
<!-- check_idx -->
<g id="node4" class="node">
<title>check_idx</title>
<path fill="none" stroke="black" d="M364.15,-481.82C364.15,-481.82 285.73,-467.99 285.73,-467.99 279.82,-466.95 279.82,-464.86 285.73,-463.82 285.73,-463.82 364.15,-449.99 364.15,-449.99 370.06,-448.95 381.87,-448.95 387.78,-449.99 387.78,-449.99 466.2,-463.82 466.2,-463.82 472.11,-464.86 472.11,-466.95 466.2,-467.99 466.2,-467.99 387.78,-481.82 387.78,-481.82 381.87,-482.86 370.06,-482.86 364.15,-481.82"/>
<text text-anchor="middle" x="375.97" y="-462.21" font-family="Arial" font-size="14.00">idx &lt; bytes.len?</text>
</g>
<!-- reset_state&#45;&gt;check_idx -->
<g id="edge3" class="edge">
<title>reset_state&#45;&gt;check_idx</title>
<path fill="none" stroke="black" d="M375.97,-554.65C375.97,-536.61 375.97,-512.54 375.97,-494.17"/>
<polygon fill="black" stroke="black" points="379.47,-494.1 375.97,-484.1 372.47,-494.1 379.47,-494.1"/>
</g>
<!-- process_char -->
<g id="node5" class="node">
<title>process_char</title>
<path fill="none" stroke="black" d="M293.47,-368.04C293.47,-368.04 132.47,-368.04 132.47,-368.04 126.47,-368.04 120.47,-362.04 120.47,-356.04 120.47,-356.04 120.47,-344.04 120.47,-344.04 120.47,-338.04 126.47,-332.04 132.47,-332.04 132.47,-332.04 293.47,-332.04 293.47,-332.04 299.47,-332.04 305.47,-338.04 305.47,-344.04 305.47,-344.04 305.47,-356.04 305.47,-356.04 305.47,-362.04 299.47,-368.04 293.47,-368.04"/>
<text text-anchor="middle" x="212.97" y="-346.34" font-family="Arial" font-size="14.00">读取当前字节 b = bytes[idx]</text>
</g>
<!-- check_idx&#45;&gt;process_char -->
<g id="edge4" class="edge">
<title>check_idx&#45;&gt;process_char</title>
<path fill="none" stroke="black" d="M356.3,-451.17C328.94,-432.06 279.03,-397.19 245.92,-374.06"/>
<polygon fill="black" stroke="black" points="247.68,-371.02 237.48,-368.16 243.67,-376.76 247.68,-371.02"/>
<text text-anchor="middle" x="302.47" y="-398.71" font-family="Arial" font-size="14.00">是</text>
</g>
<!-- end_of_loop -->
<g id="node12" class="node">
<title>end_of_loop</title>
<ellipse fill="none" stroke="black" cx="375.97" cy="-350.04" rx="52.15" ry="26.74"/>
<text text-anchor="middle" x="375.97" y="-353.84" font-family="Arial" font-size="14.00">循环结束</text>
<text text-anchor="middle" x="375.97" y="-338.84" font-family="Arial" font-size="14.00">返回 null</text>
</g>
<!-- check_idx&#45;&gt;end_of_loop -->
<g id="edge5" class="edge">
<title>check_idx&#45;&gt;end_of_loop</title>
<path fill="none" stroke="black" d="M375.97,-447.61C375.97,-431.61 375.97,-407.32 375.97,-387.1"/>
<polygon fill="black" stroke="black" points="379.47,-386.97 375.97,-376.97 372.47,-386.97 379.47,-386.97"/>
<text text-anchor="middle" x="383.47" y="-398.71" font-family="Arial" font-size="14.00">否</text>
</g>
<!-- is_digit -->
<g id="node6" class="node">
<title>is_digit</title>
<path fill="none" stroke="black" d="M239.06,-270.69C239.06,-270.69 117.42,-255.64 117.42,-255.64 111.47,-254.9 111.47,-253.43 117.42,-252.69 117.42,-252.69 239.06,-237.64 239.06,-237.64 245.01,-236.9 256.92,-236.9 262.87,-237.64 262.87,-237.64 384.51,-252.69 384.51,-252.69 390.46,-253.43 390.46,-254.9 384.51,-255.64 384.51,-255.64 262.87,-270.69 262.87,-270.69 256.92,-271.43 245.01,-271.43 239.06,-270.69"/>
<text text-anchor="middle" x="250.97" y="-250.47" font-family="Arial" font-size="14.00">b 是 0x30&#45;0x39 (数字)?</text>
</g>
<!-- process_char&#45;&gt;is_digit -->
<g id="edge6" class="edge">
<title>process_char&#45;&gt;is_digit</title>
<path fill="none" stroke="black" d="M219.94,-331.82C225.68,-317.62 233.93,-297.25 240.48,-281.08"/>
<polygon fill="black" stroke="black" points="243.79,-282.23 244.29,-271.65 237.3,-279.6 243.79,-282.23"/>
</g>
<!-- update_val -->
<g id="node7" class="node">
<title>update_val</title>
<path fill="none" stroke="black" d="M524.47,-185.17C524.47,-185.17 375.47,-185.17 375.47,-185.17 369.47,-185.17 363.47,-179.17 363.47,-173.17 363.47,-173.17 363.47,-159.17 363.47,-159.17 363.47,-153.17 369.47,-147.17 375.47,-147.17 375.47,-147.17 524.47,-147.17 524.47,-147.17 530.47,-147.17 536.47,-153.17 536.47,-159.17 536.47,-159.17 536.47,-173.17 536.47,-173.17 536.47,-179.17 530.47,-185.17 524.47,-185.17"/>
<text text-anchor="middle" x="449.97" y="-169.97" font-family="Arial" font-size="14.00">val = val * 10 + (b &#45; 0x30)</text>
<text text-anchor="middle" x="449.97" y="-154.97" font-family="Arial" font-size="14.00">检查是否是最后一个字符</text>
</g>
<!-- is_digit&#45;&gt;update_val -->
<g id="edge7" class="edge">
<title>is_digit&#45;&gt;update_val</title>
<path fill="none" stroke="black" d="M281.62,-239.92C312.75,-226.47 361.5,-205.4 398.55,-189.39"/>
<polygon fill="black" stroke="black" points="400.39,-192.4 408.18,-185.22 397.61,-185.98 400.39,-192.4"/>
<text text-anchor="middle" x="370.47" y="-206.97" font-family="Arial" font-size="14.00">是</text>
</g>
<!-- is_separator -->
<g id="node9" class="node">
<title>is_separator</title>
<path fill="none" stroke="black" d="M239.21,-181.74C239.21,-181.74 175.58,-168.59 175.58,-168.59 169.7,-167.38 169.7,-164.95 175.58,-163.74 175.58,-163.74 239.21,-150.59 239.21,-150.59 245.09,-149.38 256.84,-149.38 262.72,-150.59 262.72,-150.59 326.35,-163.74 326.35,-163.74 332.23,-164.95 332.23,-167.38 326.35,-168.59 326.35,-168.59 262.72,-181.74 262.72,-181.74 256.84,-182.95 245.09,-182.95 239.21,-181.74"/>
<text text-anchor="middle" x="250.97" y="-162.47" font-family="Arial" font-size="14.00">b 是 &#39;:&#39; 或 &#39;;&#39;?</text>
</g>
<!-- is_digit&#45;&gt;is_separator -->
<g id="edge8" class="edge">
<title>is_digit&#45;&gt;is_separator</title>
<path fill="none" stroke="black" d="M250.97,-235.76C250.97,-223.91 250.97,-207.98 250.97,-194.46"/>
<polygon fill="black" stroke="black" points="254.47,-194.25 250.97,-184.25 247.47,-194.25 254.47,-194.25"/>
<text text-anchor="middle" x="258.47" y="-206.97" font-family="Arial" font-size="14.00">否</text>
</g>
<!-- update_val&#45;&gt;check_idx -->
<g id="edge10" class="edge">
<title>update_val&#45;&gt;check_idx</title>
<path fill="none" stroke="black" d="M452.02,-185.2C455.57,-222.29 460.41,-309.35 436.97,-376.91 428.38,-401.66 410.76,-425.83 396.65,-442.56"/>
<polygon fill="black" stroke="black" points="393.98,-440.29 390.07,-450.14 399.26,-444.88 393.98,-440.29"/>
<text text-anchor="middle" x="496.97" y="-293.97" font-family="Arial" font-size="14.00">否则继续循环</text>
</g>
<!-- last_char -->
<g id="node8" class="node">
<title>last_char</title>
<ellipse fill="none" stroke="black" cx="449.97" cy="-48.08" rx="42.49" ry="18"/>
<text text-anchor="middle" x="449.97" y="-44.38" font-family="Arial" font-size="14.00">返回 val</text>
</g>
<!-- update_val&#45;&gt;last_char -->
<g id="edge9" class="edge">
<title>update_val&#45;&gt;last_char</title>
<path fill="none" stroke="black" d="M449.97,-147.03C449.97,-128.15 449.97,-98.37 449.97,-76.6"/>
<polygon fill="black" stroke="black" points="453.47,-76.34 449.97,-66.34 446.47,-76.34 453.47,-76.34"/>
<text text-anchor="middle" x="499.97" y="-117.97" font-family="Arial" font-size="14.00">是最后一个字符</text>
</g>
<!-- set_flags -->
<g id="node10" class="node">
<title>set_flags</title>
<ellipse fill="none" stroke="black" cx="115.97" cy="-48.08" rx="115.93" ry="48.17"/>
<text text-anchor="middle" x="115.97" y="-66.88" font-family="Arial" font-size="14.00">设置:</text>
<text text-anchor="middle" x="115.97" y="-51.88" font-family="Arial" font-size="14.00">next_is_sub = (b == &#39;:&#39;)</text>
<text text-anchor="middle" x="115.97" y="-36.88" font-family="Arial" font-size="14.00">is_empty = (idx == start)</text>
<text text-anchor="middle" x="115.97" y="-21.88" font-family="Arial" font-size="14.00">返回 val</text>
</g>
<!-- is_separator&#45;&gt;set_flags -->
<g id="edge11" class="edge">
<title>is_separator&#45;&gt;set_flags</title>
<path fill="none" stroke="black" d="M234.95,-151.39C219.7,-138.29 195.83,-117.76 173.46,-98.52"/>
<polygon fill="black" stroke="black" points="175.49,-95.65 165.63,-91.79 170.93,-100.96 175.49,-95.65"/>
<text text-anchor="middle" x="215.47" y="-117.97" font-family="Arial" font-size="14.00">是</text>
</g>
<!-- invalid_char -->
<g id="node11" class="node">
<title>invalid_char</title>
<ellipse fill="none" stroke="black" cx="294.97" cy="-48.08" rx="44.69" ry="18"/>
<text text-anchor="middle" x="294.97" y="-44.38" font-family="Arial" font-size="14.00">返回 null</text>
</g>
<!-- is_separator&#45;&gt;invalid_char -->
<g id="edge12" class="edge">
<title>is_separator&#45;&gt;invalid_char</title>
<path fill="none" stroke="black" d="M257.08,-149.03C264.28,-130.03 276.34,-98.22 284.92,-75.59"/>
<polygon fill="black" stroke="black" points="288.2,-76.81 288.47,-66.22 281.65,-74.33 288.2,-76.81"/>
<text text-anchor="middle" x="277.47" y="-117.97" font-family="Arial" font-size="14.00">否</text>
</g>
<!-- hasAtLeast_start -->
<g id="node13" class="node">
<title>hasAtLeast_start</title>
<path fill="none" stroke="black" d="M713.97,-754.91C713.97,-754.91 605.97,-754.91 605.97,-754.91 599.97,-754.91 593.97,-748.91 593.97,-742.91 593.97,-742.91 593.97,-730.91 593.97,-730.91 593.97,-724.91 599.97,-718.91 605.97,-718.91 605.97,-718.91 713.97,-718.91 713.97,-718.91 719.97,-718.91 725.97,-724.91 725.97,-730.91 725.97,-730.91 725.97,-742.91 725.97,-742.91 725.97,-748.91 719.97,-754.91 713.97,-754.91"/>
<text text-anchor="middle" x="659.97" y="-733.21" font-family="Arial" font-size="14.00">调用 hasAtLeast(n)</text>
</g>
<!-- save_idx -->
<g id="node14" class="node">
<title>save_idx</title>
<path fill="none" stroke="black" d="M718.47,-680.91C718.47,-680.91 601.47,-680.91 601.47,-680.91 595.47,-680.91 589.47,-674.91 589.47,-668.91 589.47,-668.91 589.47,-656.91 589.47,-656.91 589.47,-650.91 595.47,-644.91 601.47,-644.91 601.47,-644.91 718.47,-644.91 718.47,-644.91 724.47,-644.91 730.47,-650.91 730.47,-656.91 730.47,-656.91 730.47,-668.91 730.47,-668.91 730.47,-674.91 724.47,-680.91 718.47,-680.91"/>
<text text-anchor="middle" x="659.97" y="-659.21" font-family="Arial" font-size="14.00">保存当前 idx 到 start</text>
</g>
<!-- hasAtLeast_start&#45;&gt;save_idx -->
<g id="edge13" class="edge">
<title>hasAtLeast_start&#45;&gt;save_idx</title>
<path fill="none" stroke="black" d="M659.97,-718.84C659.97,-710.71 659.97,-700.78 659.97,-691.61"/>
<polygon fill="black" stroke="black" points="663.47,-691.35 659.97,-681.35 656.47,-691.35 663.47,-691.35"/>
</g>
<!-- temp_next -->
<g id="node15" class="node">
<title>temp_next</title>
<path fill="none" stroke="black" d="M689.47,-599.41C689.47,-599.41 630.47,-599.41 630.47,-599.41 624.47,-599.41 618.47,-593.41 618.47,-587.41 618.47,-587.41 618.47,-575.41 618.47,-575.41 618.47,-569.41 624.47,-563.41 630.47,-563.41 630.47,-563.41 689.47,-563.41 689.47,-563.41 695.47,-563.41 701.47,-569.41 701.47,-575.41 701.47,-575.41 701.47,-587.41 701.47,-587.41 701.47,-593.41 695.47,-599.41 689.47,-599.41"/>
<text text-anchor="middle" x="659.97" y="-577.71" font-family="Arial" font-size="14.00">调用 next()</text>
</g>
<!-- save_idx&#45;&gt;temp_next -->
<g id="edge14" class="edge">
<title>save_idx&#45;&gt;temp_next</title>
<path fill="none" stroke="black" d="M659.97,-644.66C659.97,-634.45 659.97,-621.28 659.97,-609.7"/>
<polygon fill="black" stroke="black" points="663.47,-609.62 659.97,-599.62 656.47,-609.62 663.47,-609.62"/>
</g>
<!-- count_check -->
<g id="node16" class="node">
<title>count_check</title>
<path fill="none" stroke="black" d="M568.05,-498.91C568.05,-498.91 506.88,-470.9 506.88,-470.9 501.42,-468.4 501.42,-463.41 506.88,-460.91 506.88,-460.91 568.05,-432.9 568.05,-432.9 573.51,-430.4 584.42,-430.4 589.88,-432.9 589.88,-432.9 651.05,-460.91 651.05,-460.91 656.51,-463.41 656.51,-468.4 651.05,-470.9 651.05,-470.9 589.88,-498.91 589.88,-498.91 584.42,-501.41 573.51,-501.41 568.05,-498.91"/>
<text text-anchor="middle" x="578.97" y="-469.71" font-family="Arial" font-size="14.00">计数 i += 1</text>
<text text-anchor="middle" x="578.97" y="-454.71" font-family="Arial" font-size="14.00">i &gt;= n?</text>
</g>
<!-- temp_next&#45;&gt;count_check -->
<g id="edge15" class="edge">
<title>temp_next&#45;&gt;count_check</title>
<path fill="none" stroke="black" d="M618.26,-567.69C603.55,-560.99 588.55,-551.11 579.97,-536.91 575.35,-529.27 573.3,-520.26 572.72,-511.3"/>
<polygon fill="black" stroke="black" points="576.22,-511.23 572.64,-501.26 569.22,-511.29 576.22,-511.23"/>
<text text-anchor="middle" x="608.97" y="-525.71" font-family="Arial" font-size="14.00">成功获取</text>
</g>
<!-- restore_fail -->
<g id="node18" class="node">
<title>restore_fail</title>
<ellipse fill="none" stroke="black" cx="755.97" cy="-465.91" rx="75.82" ry="26.74"/>
<text text-anchor="middle" x="755.97" y="-469.71" font-family="Arial" font-size="14.00">恢复 idx = start</text>
<text text-anchor="middle" x="755.97" y="-454.71" font-family="Arial" font-size="14.00">返回 false</text>
</g>
<!-- temp_next&#45;&gt;restore_fail -->
<g id="edge18" class="edge">
<title>temp_next&#45;&gt;restore_fail</title>
<path fill="none" stroke="black" d="M681.57,-563.29C690.53,-555.69 700.73,-546.33 708.97,-536.91 718.56,-525.93 727.8,-512.89 735.52,-501.07"/>
<polygon fill="black" stroke="black" points="738.67,-502.63 741.1,-492.31 732.77,-498.86 738.67,-502.63"/>
<text text-anchor="middle" x="762.97" y="-525.71" font-family="Arial" font-size="14.00">无法获取更多</text>
</g>
<!-- count_check&#45;&gt;temp_next -->
<g id="edge17" class="edge">
<title>count_check&#45;&gt;temp_next</title>
<path fill="none" stroke="black" d="M609.31,-490.32C619.47,-499.33 630.17,-510.27 637.97,-521.91 644.35,-531.44 649.21,-543.08 652.72,-553.46"/>
<polygon fill="black" stroke="black" points="649.47,-554.79 655.79,-563.29 656.16,-552.7 649.47,-554.79"/>
<text text-anchor="middle" x="675.97" y="-525.71" font-family="Arial" font-size="14.00">继续循环</text>
</g>
<!-- restore_idx -->
<g id="node17" class="node">
<title>restore_idx</title>
<ellipse fill="none" stroke="black" cx="578.97" cy="-350.04" rx="75.82" ry="26.74"/>
<text text-anchor="middle" x="578.97" y="-353.84" font-family="Arial" font-size="14.00">恢复 idx = start</text>
<text text-anchor="middle" x="578.97" y="-338.84" font-family="Arial" font-size="14.00">返回 true</text>
</g>
<!-- count_check&#45;&gt;restore_idx -->
<g id="edge16" class="edge">
<title>count_check&#45;&gt;restore_idx</title>
<path fill="none" stroke="black" d="M578.97,-427.62C578.97,-414.75 578.97,-400.35 578.97,-387.54"/>
<polygon fill="black" stroke="black" points="582.47,-387.23 578.97,-377.23 575.47,-387.23 582.47,-387.23"/>
<text text-anchor="middle" x="596.47" y="-398.71" font-family="Arial" font-size="14.00">i &gt;= n</text>
</g>
</g>
</svg>
