<?xml version="1.0" encoding="UTF-8" standalone="no"?>
<!DOCTYPE svg PUBLIC "-//W3C//DTD SVG 1.1//EN"
 "http://www.w3.org/Graphics/SVG/1.1/DTD/svg11.dtd">
<!-- Generated by graphviz version 2.43.0 (0)
 -->
<!-- Title: parseGround Pages: 1 -->
<svg width="1088pt" height="1460pt"
 viewBox="0.00 0.00 1087.88 1459.74" xmlns="http://www.w3.org/2000/svg" xmlns:xlink="http://www.w3.org/1999/xlink">
<g id="graph0" class="graph" transform="scale(1 1) rotate(0) translate(4 1455.74)">
<title>parseGround</title>
<polygon fill="white" stroke="transparent" points="-4,4 -4,-1455.74 1083.88,-1455.74 1083.88,4 -4,4"/>
<!-- start -->
<g id="node1" class="node">
<title>start</title>
<polygon fill="none" stroke="black" points="487.39,-1451.74 344.39,-1451.74 344.39,-1415.74 487.39,-1415.74 487.39,-1451.74"/>
<text text-anchor="middle" x="415.89" y="-1430.04" font-family="Courier,monospace" font-size="14.00">开始 parseGround</text>
</g>
<!-- declare_buf -->
<g id="node2" class="node">
<title>declare_buf</title>
<polygon fill="none" stroke="black" points="482.89,-1378.74 348.89,-1378.74 348.89,-1342.74 482.89,-1342.74 482.89,-1378.74"/>
<text text-anchor="middle" x="415.89" y="-1357.04" font-family="Courier,monospace" font-size="14.00">声明 buf: [1]u8</text>
</g>
<!-- start&#45;&gt;declare_buf -->
<g id="edge1" class="edge">
<title>start&#45;&gt;declare_buf</title>
<path fill="none" stroke="black" d="M415.89,-1415.55C415.89,-1407.53 415.89,-1397.79 415.89,-1388.81"/>
<polygon fill="black" stroke="black" points="419.39,-1388.77 415.89,-1378.77 412.39,-1388.77 419.39,-1388.77"/>
</g>
<!-- assert_check -->
<g id="node3" class="node">
<title>assert_check</title>
<polygon fill="none" stroke="black" points="547.89,-1305.74 283.89,-1305.74 283.89,-1269.74 547.89,-1269.74 547.89,-1305.74"/>
<text text-anchor="middle" x="415.89" y="-1284.04" font-family="Courier,monospace" font-size="14.00">assert(self.buf.items.len &gt; 0)</text>
</g>
<!-- declare_buf&#45;&gt;assert_check -->
<g id="edge2" class="edge">
<title>declare_buf&#45;&gt;assert_check</title>
<path fill="none" stroke="black" d="M415.89,-1342.55C415.89,-1334.53 415.89,-1324.79 415.89,-1315.81"/>
<polygon fill="black" stroke="black" points="419.39,-1315.77 415.89,-1305.77 412.39,-1315.77 419.39,-1315.77"/>
</g>
<!-- get_len -->
<g id="node4" class="node">
<title>get_len</title>
<polygon fill="none" stroke="black" points="527.89,-1232.74 303.89,-1232.74 303.89,-1196.74 527.89,-1196.74 527.89,-1232.74"/>
<text text-anchor="middle" x="415.89" y="-1211.04" font-family="Courier,monospace" font-size="14.00">获取第一个字节的UTF8长度 len</text>
</g>
<!-- assert_check&#45;&gt;get_len -->
<g id="edge3" class="edge">
<title>assert_check&#45;&gt;get_len</title>
<path fill="none" stroke="black" d="M415.89,-1269.55C415.89,-1261.53 415.89,-1251.79 415.89,-1242.81"/>
<polygon fill="black" stroke="black" points="419.39,-1242.77 415.89,-1232.77 412.39,-1242.77 419.39,-1242.77"/>
</g>
<!-- init_i -->
<g id="node5" class="node">
<title>init_i</title>
<polygon fill="none" stroke="black" points="444.89,-1159.74 386.89,-1159.74 386.89,-1123.74 444.89,-1123.74 444.89,-1159.74"/>
<text text-anchor="middle" x="415.89" y="-1138.04" font-family="Courier,monospace" font-size="14.00">i = 1</text>
</g>
<!-- get_len&#45;&gt;init_i -->
<g id="edge4" class="edge">
<title>get_len&#45;&gt;init_i</title>
<path fill="none" stroke="black" d="M415.89,-1196.55C415.89,-1188.53 415.89,-1178.79 415.89,-1169.81"/>
<polygon fill="black" stroke="black" points="419.39,-1169.77 415.89,-1159.77 412.39,-1169.77 419.39,-1169.77"/>
</g>
<!-- loop_i -->
<g id="node6" class="node">
<title>loop_i</title>
<polygon fill="none" stroke="black" points="415.89,-1086.74 339.81,-1068.74 415.89,-1050.74 491.97,-1068.74 415.89,-1086.74"/>
<text text-anchor="middle" x="415.89" y="-1065.04" font-family="Courier,monospace" font-size="14.00">i &lt; len?</text>
</g>
<!-- init_i&#45;&gt;loop_i -->
<g id="edge5" class="edge">
<title>init_i&#45;&gt;loop_i</title>
<path fill="none" stroke="black" d="M415.89,-1123.55C415.89,-1115.53 415.89,-1105.79 415.89,-1096.81"/>
<polygon fill="black" stroke="black" points="419.39,-1096.77 415.89,-1086.77 412.39,-1096.77 419.39,-1096.77"/>
</g>
<!-- read_byte_initial -->
<g id="node7" class="node">
<title>read_byte_initial</title>
<polygon fill="none" stroke="black" points="361.39,-999.74 242.39,-999.74 242.39,-963.74 361.39,-963.74 361.39,-999.74"/>
<text text-anchor="middle" x="301.89" y="-978.04" font-family="Courier,monospace" font-size="14.00">读取字节到 buf</text>
</g>
<!-- loop_i&#45;&gt;read_byte_initial -->
<g id="edge6" class="edge">
<title>loop_i&#45;&gt;read_byte_initial</title>
<path fill="none" stroke="black" d="M398.58,-1054.83C381.2,-1041.87 354.06,-1021.64 332.95,-1005.9"/>
<polygon fill="black" stroke="black" points="335.01,-1003.06 324.9,-999.89 330.82,-1008.68 335.01,-1003.06"/>
<text text-anchor="middle" x="373.39" y="-1021.54" font-family="Courier,monospace" font-size="14.00">是</text>
</g>
<!-- main_loop -->
<g id="node11" class="node">
<title>main_loop</title>
<polygon fill="none" stroke="black" points="526.39,-999.74 467.39,-999.74 467.39,-963.74 526.39,-963.74 526.39,-999.74"/>
<text text-anchor="middle" x="496.89" y="-978.04" font-family="Courier,monospace" font-size="14.00">主循环</text>
</g>
<!-- loop_i&#45;&gt;main_loop -->
<g id="edge12" class="edge">
<title>loop_i&#45;&gt;main_loop</title>
<path fill="none" stroke="black" d="M429.27,-1053.7C441.21,-1041.18 458.96,-1022.54 473.29,-1007.51"/>
<polygon fill="black" stroke="black" points="476.05,-1009.68 480.42,-1000.03 470.98,-1004.86 476.05,-1009.68"/>
<text text-anchor="middle" x="469.39" y="-1021.54" font-family="Courier,monospace" font-size="14.00">否</text>
</g>
<!-- check_read_initial -->
<g id="node8" class="node">
<title>check_read_initial</title>
<polygon fill="none" stroke="black" points="194.89,-926.74 103.9,-908.74 194.89,-890.74 285.89,-908.74 194.89,-926.74"/>
<text text-anchor="middle" x="194.89" y="-905.04" font-family="Courier,monospace" font-size="14.00">read == 0?</text>
</g>
<!-- read_byte_initial&#45;&gt;check_read_initial -->
<g id="edge7" class="edge">
<title>read_byte_initial&#45;&gt;check_read_initial</title>
<path fill="none" stroke="black" d="M276.26,-963.73C260.41,-953.21 240.01,-939.68 223.61,-928.8"/>
<polygon fill="black" stroke="black" points="225.23,-925.67 214.96,-923.06 221.36,-931.5 225.23,-925.67"/>
</g>
<!-- append_initial -->
<g id="node9" class="node">
<title>append_initial</title>
<polygon fill="none" stroke="black" points="387.89,-839.74 181.89,-839.74 181.89,-803.74 387.89,-803.74 387.89,-839.74"/>
<text text-anchor="middle" x="284.89" y="-818.04" font-family="Courier,monospace" font-size="14.00">self.buf.append(buf[0])</text>
</g>
<!-- check_read_initial&#45;&gt;append_initial -->
<g id="edge9" class="edge">
<title>check_read_initial&#45;&gt;append_initial</title>
<path fill="none" stroke="black" d="M210.16,-893.32C223.61,-880.62 243.46,-861.87 259.33,-846.88"/>
<polygon fill="black" stroke="black" points="261.89,-849.28 266.75,-839.87 257.08,-844.19 261.89,-849.28"/>
<text text-anchor="middle" x="253.39" y="-861.54" font-family="Courier,monospace" font-size="14.00">否</text>
</g>
<!-- eof_error_initial -->
<g id="node27" class="node">
<title>eof_error_initial</title>
<ellipse fill="none" stroke="black" cx="81.89" cy="-821.74" rx="81.79" ry="18"/>
<text text-anchor="middle" x="81.89" y="-818.04" font-family="Courier,monospace" font-size="14.00">返回 error.EOF</text>
</g>
<!-- check_read_initial&#45;&gt;eof_error_initial -->
<g id="edge8" class="edge">
<title>check_read_initial&#45;&gt;eof_error_initial</title>
<path fill="none" stroke="black" d="M168.91,-895.74C156.84,-889.62 142.61,-881.61 130.89,-872.74 121.1,-865.33 111.4,-855.97 103.25,-847.37"/>
<polygon fill="black" stroke="black" points="105.59,-844.74 96.24,-839.75 100.44,-849.48 105.59,-844.74"/>
<text text-anchor="middle" x="138.39" y="-861.54" font-family="Courier,monospace" font-size="14.00">是</text>
</g>
<!-- check_read_initial&#45;&gt;eof_error_initial -->
<g id="edge31" class="edge">
<title>check_read_initial&#45;&gt;eof_error_initial</title>
<path fill="none" stroke="black" d="M182.58,-893.02C173.22,-882.4 159.65,-868.16 145.89,-857.74 139,-852.52 131.23,-847.6 123.54,-843.18"/>
<polygon fill="black" stroke="black" points="125.06,-840.02 114.61,-838.24 121.67,-846.14 125.06,-840.02"/>
<text text-anchor="middle" x="170.39" y="-861.54" font-family="Courier,monospace" font-size="14.00">是</text>
</g>
<!-- increment_i -->
<g id="node10" class="node">
<title>increment_i</title>
<polygon fill="none" stroke="black" points="398.89,-766.74 332.89,-766.74 332.89,-730.74 398.89,-730.74 398.89,-766.74"/>
<text text-anchor="middle" x="365.89" y="-745.04" font-family="Courier,monospace" font-size="14.00">i += 1</text>
</g>
<!-- append_initial&#45;&gt;increment_i -->
<g id="edge10" class="edge">
<title>append_initial&#45;&gt;increment_i</title>
<path fill="none" stroke="black" d="M304.5,-803.55C314.75,-794.57 327.45,-783.43 338.64,-773.63"/>
<polygon fill="black" stroke="black" points="341.25,-775.99 346.47,-766.77 336.64,-770.73 341.25,-775.99"/>
</g>
<!-- increment_i&#45;&gt;loop_i -->
<g id="edge11" class="edge">
<title>increment_i&#45;&gt;loop_i</title>
<path fill="none" stroke="black" d="M387.1,-766.98C400.72,-780.1 415.89,-799.48 415.89,-820.74 415.89,-982.74 415.89,-982.74 415.89,-982.74 415.89,-1001.99 415.89,-1023.69 415.89,-1040.34"/>
<polygon fill="black" stroke="black" points="412.39,-1040.48 415.89,-1050.48 419.39,-1040.48 412.39,-1040.48"/>
</g>
<!-- check_reader_state -->
<g id="node12" class="node">
<title>check_reader_state</title>
<polygon fill="none" stroke="black" points="764.89,-926.74 545.04,-908.74 764.89,-890.74 984.75,-908.74 764.89,-926.74"/>
<text text-anchor="middle" x="764.89" y="-905.04" font-family="Courier,monospace" font-size="14.00">reader.start == reader.end?</text>
</g>
<!-- main_loop&#45;&gt;check_reader_state -->
<g id="edge13" class="edge">
<title>main_loop&#45;&gt;check_reader_state</title>
<path fill="none" stroke="black" d="M526.6,-972.87C569.67,-961.46 650.35,-940.08 705.81,-925.39"/>
<polygon fill="black" stroke="black" points="706.75,-928.77 715.52,-922.82 704.95,-922 706.75,-928.77"/>
</g>
<!-- return_print -->
<g id="node13" class="node">
<title>return_print</title>
<ellipse fill="none" stroke="black" cx="988.89" cy="-565.87" rx="90.98" ry="18"/>
<text text-anchor="middle" x="988.89" y="-562.17" font-family="Courier,monospace" font-size="14.00">返回 .print 事件</text>
</g>
<!-- check_reader_state&#45;&gt;return_print -->
<g id="edge14" class="edge">
<title>check_reader_state&#45;&gt;return_print</title>
<path fill="none" stroke="black" d="M830.28,-896.04C896.4,-882.29 988.89,-856.95 988.89,-822.74 988.89,-822.74 988.89,-822.74 988.89,-660.74 988.89,-638.4 988.89,-613.06 988.89,-594.35"/>
<polygon fill="black" stroke="black" points="992.39,-594.17 988.89,-584.17 985.39,-594.17 992.39,-594.17"/>
<text text-anchor="middle" x="996.39" y="-745.04" font-family="Courier,monospace" font-size="14.00">是</text>
</g>
<!-- read_byte_main -->
<g id="node14" class="node">
<title>read_byte_main</title>
<polygon fill="none" stroke="black" points="824.39,-839.74 705.39,-839.74 705.39,-803.74 824.39,-803.74 824.39,-839.74"/>
<text text-anchor="middle" x="764.89" y="-818.04" font-family="Courier,monospace" font-size="14.00">读取字节到 buf</text>
</g>
<!-- check_reader_state&#45;&gt;read_byte_main -->
<g id="edge15" class="edge">
<title>check_reader_state&#45;&gt;read_byte_main</title>
<path fill="none" stroke="black" d="M764.89,-890.54C764.89,-878.9 764.89,-863.29 764.89,-849.98"/>
<polygon fill="black" stroke="black" points="768.39,-849.92 764.89,-839.92 761.39,-849.92 768.39,-849.92"/>
<text text-anchor="middle" x="772.39" y="-861.54" font-family="Courier,monospace" font-size="14.00">否</text>
</g>
<!-- return_print&#45;&gt;main_loop -->
<!-- check_read_main -->
<g id="node15" class="node">
<title>check_read_main</title>
<polygon fill="none" stroke="black" points="764.89,-766.74 696.86,-748.74 764.89,-730.74 832.93,-748.74 764.89,-766.74"/>
<text text-anchor="middle" x="764.89" y="-745.04" font-family="Courier,monospace" font-size="14.00">n == 0?</text>
</g>
<!-- read_byte_main&#45;&gt;check_read_main -->
<g id="edge16" class="edge">
<title>read_byte_main&#45;&gt;check_read_main</title>
<path fill="none" stroke="black" d="M764.89,-803.55C764.89,-795.53 764.89,-785.79 764.89,-776.81"/>
<polygon fill="black" stroke="black" points="768.39,-776.77 764.89,-766.77 761.39,-776.77 768.39,-776.77"/>
</g>
<!-- eof_error_main -->
<g id="node16" class="node">
<title>eof_error_main</title>
<ellipse fill="none" stroke="black" cx="878.89" cy="-661.74" rx="81.79" ry="18"/>
<text text-anchor="middle" x="878.89" y="-658.04" font-family="Courier,monospace" font-size="14.00">返回 error.EOF</text>
</g>
<!-- check_read_main&#45;&gt;eof_error_main -->
<g id="edge17" class="edge">
<title>check_read_main&#45;&gt;eof_error_main</title>
<path fill="none" stroke="black" d="M782.21,-734.83C799.8,-721.71 827.42,-701.12 848.64,-685.3"/>
<polygon fill="black" stroke="black" points="850.78,-688.06 856.71,-679.28 846.6,-682.45 850.78,-688.06"/>
<text text-anchor="middle" x="836.39" y="-701.54" font-family="Courier,monospace" font-size="14.00">是</text>
</g>
<!-- check_control_char -->
<g id="node17" class="node">
<title>check_control_char</title>
<polygon fill="none" stroke="black" points="651.89,-679.74 525.21,-661.74 651.89,-643.74 778.58,-661.74 651.89,-679.74"/>
<text text-anchor="middle" x="651.89" y="-658.04" font-family="Courier,monospace" font-size="14.00">b 在 0x00&#45;0x1f?</text>
</g>
<!-- check_read_main&#45;&gt;check_control_char -->
<g id="edge18" class="edge">
<title>check_read_main&#45;&gt;check_control_char</title>
<path fill="none" stroke="black" d="M747.73,-734.83C729.53,-721.14 700.5,-699.31 679.16,-683.25"/>
<polygon fill="black" stroke="black" points="681.21,-680.41 671.11,-677.2 677,-686.01 681.21,-680.41"/>
<text text-anchor="middle" x="723.39" y="-701.54" font-family="Courier,monospace" font-size="14.00">否</text>
</g>
<!-- eof_error_main&#45;&gt;return_print -->
<!-- handle_control -->
<g id="node18" class="node">
<title>handle_control</title>
<ellipse fill="none" stroke="black" cx="588.89" cy="-565.87" rx="106.55" ry="26.74"/>
<text text-anchor="middle" x="588.89" y="-569.67" font-family="Courier,monospace" font-size="14.00">设置 pending_byte</text>
<text text-anchor="middle" x="588.89" y="-554.67" font-family="Courier,monospace" font-size="14.00">返回 .print</text>
</g>
<!-- check_control_char&#45;&gt;handle_control -->
<g id="edge19" class="edge">
<title>check_control_char&#45;&gt;handle_control</title>
<path fill="none" stroke="black" d="M641.21,-644.82C633.16,-632.84 621.85,-615.97 611.8,-601"/>
<polygon fill="black" stroke="black" points="614.54,-598.8 606.06,-592.45 608.73,-602.7 614.54,-598.8"/>
<text text-anchor="middle" x="635.39" y="-614.54" font-family="Courier,monospace" font-size="14.00">是</text>
</g>
<!-- append_main -->
<g id="node19" class="node">
<title>append_main</title>
<polygon fill="none" stroke="black" points="878.39,-583.87 713.39,-583.87 713.39,-547.87 878.39,-547.87 878.39,-583.87"/>
<text text-anchor="middle" x="795.89" y="-562.17" font-family="Courier,monospace" font-size="14.00">self.buf.append(b)</text>
</g>
<!-- check_control_char&#45;&gt;append_main -->
<g id="edge20" class="edge">
<title>check_control_char&#45;&gt;append_main</title>
<path fill="none" stroke="black" d="M673.45,-646.69C696.67,-631.55 733.96,-607.24 761.3,-589.42"/>
<polygon fill="black" stroke="black" points="763.32,-592.28 769.79,-583.89 759.5,-586.42 763.32,-592.28"/>
<text text-anchor="middle" x="736.39" y="-614.54" font-family="Courier,monospace" font-size="14.00">否</text>
</g>
<!-- handle_control&#45;&gt;main_loop -->
<!-- get_new_len -->
<g id="node20" class="node">
<title>get_new_len</title>
<polygon fill="none" stroke="black" points="784.39,-502 589.39,-502 589.39,-466 784.39,-466 784.39,-502"/>
<text text-anchor="middle" x="686.89" y="-480.3" font-family="Courier,monospace" font-size="14.00">获取新字节的UTF8长度 len</text>
</g>
<!-- append_main&#45;&gt;get_new_len -->
<g id="edge21" class="edge">
<title>append_main&#45;&gt;get_new_len</title>
<path fill="none" stroke="black" d="M772.51,-547.74C756.7,-536.15 735.65,-520.73 718.37,-508.07"/>
<polygon fill="black" stroke="black" points="720.37,-505.19 710.24,-502.11 716.23,-510.84 720.37,-505.19"/>
</g>
<!-- init_new_i -->
<g id="node21" class="node">
<title>init_new_i</title>
<polygon fill="none" stroke="black" points="573.89,-429 515.89,-429 515.89,-393 573.89,-393 573.89,-429"/>
<text text-anchor="middle" x="544.89" y="-407.3" font-family="Courier,monospace" font-size="14.00">i = 1</text>
</g>
<!-- get_new_len&#45;&gt;init_new_i -->
<g id="edge22" class="edge">
<title>get_new_len&#45;&gt;init_new_i</title>
<path fill="none" stroke="black" d="M652.88,-465.99C631.92,-455.51 604.98,-442.05 583.26,-431.18"/>
<polygon fill="black" stroke="black" points="584.81,-428.05 574.3,-426.7 581.68,-434.31 584.81,-428.05"/>
</g>
<!-- loop_new_i -->
<g id="node22" class="node">
<title>loop_new_i</title>
<polygon fill="none" stroke="black" points="465.89,-356 389.81,-338 465.89,-320 541.97,-338 465.89,-356"/>
<text text-anchor="middle" x="465.89" y="-334.3" font-family="Courier,monospace" font-size="14.00">i &lt; len?</text>
</g>
<!-- init_new_i&#45;&gt;loop_new_i -->
<g id="edge23" class="edge">
<title>init_new_i&#45;&gt;loop_new_i</title>
<path fill="none" stroke="black" d="M525.77,-392.81C514.56,-382.74 500.35,-369.96 488.58,-359.39"/>
<polygon fill="black" stroke="black" points="490.67,-356.56 480.89,-352.48 485.99,-361.76 490.67,-356.56"/>
</g>
<!-- loop_new_i&#45;&gt;main_loop -->
<g id="edge30" class="edge">
<title>loop_new_i&#45;&gt;main_loop</title>
<path fill="none" stroke="black" d="M461.56,-355.22C458.12,-369.53 453.89,-391 453.89,-410 453.89,-909.74 453.89,-909.74 453.89,-909.74 453.89,-926.64 462.92,-942.96 472.7,-955.69"/>
<polygon fill="black" stroke="black" points="470.09,-958.02 479.15,-963.5 475.49,-953.56 470.09,-958.02"/>
<text text-anchor="middle" x="461.39" y="-658.04" font-family="Courier,monospace" font-size="14.00">否</text>
</g>
<!-- read_byte_new -->
<g id="node23" class="node">
<title>read_byte_new</title>
<polygon fill="none" stroke="black" points="475.39,-269 356.39,-269 356.39,-233 475.39,-233 475.39,-269"/>
<text text-anchor="middle" x="415.89" y="-247.3" font-family="Courier,monospace" font-size="14.00">读取字节到 buf</text>
</g>
<!-- loop_new_i&#45;&gt;read_byte_new -->
<g id="edge24" class="edge">
<title>loop_new_i&#45;&gt;read_byte_new</title>
<path fill="none" stroke="black" d="M456.95,-321.8C449.81,-309.66 439.63,-292.36 431.2,-278.02"/>
<polygon fill="black" stroke="black" points="434.04,-275.95 425.96,-269.11 428.01,-279.5 434.04,-275.95"/>
<text text-anchor="middle" x="451.39" y="-290.8" font-family="Courier,monospace" font-size="14.00">是</text>
</g>
<!-- check_read_new -->
<g id="node24" class="node">
<title>check_read_new</title>
<polygon fill="none" stroke="black" points="388.89,-196 297.9,-178 388.89,-160 479.89,-178 388.89,-196"/>
<text text-anchor="middle" x="388.89" y="-174.3" font-family="Courier,monospace" font-size="14.00">read == 0?</text>
</g>
<!-- read_byte_new&#45;&gt;check_read_new -->
<g id="edge25" class="edge">
<title>read_byte_new&#45;&gt;check_read_new</title>
<path fill="none" stroke="black" d="M409.36,-232.81C406.15,-224.37 402.22,-214.03 398.66,-204.68"/>
<polygon fill="black" stroke="black" points="401.82,-203.16 395,-195.06 395.28,-205.65 401.82,-203.16"/>
</g>
<!-- append_new -->
<g id="node25" class="node">
<title>append_new</title>
<polygon fill="none" stroke="black" points="304.89,-109 98.89,-109 98.89,-73 304.89,-73 304.89,-109"/>
<text text-anchor="middle" x="201.89" y="-87.3" font-family="Courier,monospace" font-size="14.00">self.buf.append(buf[0])</text>
</g>
<!-- check_read_new&#45;&gt;append_new -->
<g id="edge27" class="edge">
<title>check_read_new&#45;&gt;append_new</title>
<path fill="none" stroke="black" d="M362.5,-165C333.02,-151.6 284.72,-129.65 248.78,-113.31"/>
<polygon fill="black" stroke="black" points="250.01,-110.03 239.46,-109.08 247.12,-116.4 250.01,-110.03"/>
<text text-anchor="middle" x="314.39" y="-130.8" font-family="Courier,monospace" font-size="14.00">否</text>
</g>
<!-- eof_error_new -->
<g id="node28" class="node">
<title>eof_error_new</title>
<ellipse fill="none" stroke="black" cx="404.89" cy="-91" rx="81.79" ry="18"/>
<text text-anchor="middle" x="404.89" y="-87.3" font-family="Courier,monospace" font-size="14.00">返回 error.EOF</text>
</g>
<!-- check_read_new&#45;&gt;eof_error_new -->
<g id="edge26" class="edge">
<title>check_read_new&#45;&gt;eof_error_new</title>
<path fill="none" stroke="black" d="M380.07,-161.46C375.57,-151.48 371.82,-138.31 375.89,-127 377.17,-123.45 378.99,-120.01 381.09,-116.75"/>
<polygon fill="black" stroke="black" points="383.97,-118.74 387.16,-108.64 378.37,-114.54 383.97,-118.74"/>
<text text-anchor="middle" x="383.39" y="-130.8" font-family="Courier,monospace" font-size="14.00">是</text>
</g>
<!-- check_read_new&#45;&gt;eof_error_new -->
<g id="edge33" class="edge">
<title>check_read_new&#45;&gt;eof_error_new</title>
<path fill="none" stroke="black" d="M392.05,-160.21C394.25,-148.52 397.23,-132.69 399.77,-119.22"/>
<polygon fill="black" stroke="black" points="403.27,-119.52 401.68,-109.05 396.39,-118.23 403.27,-119.52"/>
<text text-anchor="middle" x="405.39" y="-130.8" font-family="Courier,monospace" font-size="14.00">是</text>
</g>
<!-- increment_new_i -->
<g id="node26" class="node">
<title>increment_new_i</title>
<polygon fill="none" stroke="black" points="390.89,-36 324.89,-36 324.89,0 390.89,0 390.89,-36"/>
<text text-anchor="middle" x="357.89" y="-14.3" font-family="Courier,monospace" font-size="14.00">i += 1</text>
</g>
<!-- append_new&#45;&gt;increment_new_i -->
<g id="edge28" class="edge">
<title>append_new&#45;&gt;increment_new_i</title>
<path fill="none" stroke="black" d="M239.26,-72.99C262.26,-62.53 291.79,-49.08 315.64,-38.23"/>
<polygon fill="black" stroke="black" points="317.16,-41.39 324.81,-34.06 314.26,-35.02 317.16,-41.39"/>
</g>
<!-- increment_new_i&#45;&gt;loop_new_i -->
<g id="edge29" class="edge">
<title>increment_new_i&#45;&gt;loop_new_i</title>
<path fill="none" stroke="black" d="M391.19,-19.82C437.27,-22.93 514.89,-36.15 514.89,-90 514.89,-252 514.89,-252 514.89,-252 514.89,-275.93 500.13,-299.2 486.81,-315.32"/>
<polygon fill="black" stroke="black" points="484,-313.23 480.07,-323.07 489.27,-317.83 484,-313.23"/>
</g>
</g>
</svg>
