<?xml version="1.0" encoding="UTF-8" standalone="no"?>
<!DOCTYPE svg PUBLIC "-//W3C//DTD SVG 1.1//EN"
 "http://www.w3.org/Graphics/SVG/1.1/DTD/svg11.dtd">
<!-- Generated by graphviz version 2.43.0 (0)
 -->
<!-- Title: G Pages: 1 -->
<svg width="1093pt" height="1221pt"
 viewBox="0.00 0.00 1093.12 1221.00" xmlns="http://www.w3.org/2000/svg" xmlns:xlink="http://www.w3.org/1999/xlink">
<g id="graph0" class="graph" transform="scale(1 1) rotate(0) translate(4 1217)">
<title>G</title>
<polygon fill="white" stroke="transparent" points="-4,4 -4,-1217 1089.12,-1217 1089.12,4 -4,4"/>
<!-- start -->
<g id="node1" class="node">
<title>start</title>
<polygon fill="none" stroke="black" points="387,-1213 286,-1213 286,-1177 387,-1177 387,-1213"/>
<text text-anchor="middle" x="336.5" y="-1191.3" font-family="Arial" font-size="14.00">开始child函数</text>
</g>
<!-- init_child -->
<g id="node2" class="node">
<title>init_child</title>
<polygon fill="none" stroke="black" points="404,-1140 269,-1140 269,-1104 404,-1104 404,-1140"/>
<text text-anchor="middle" x="336.5" y="-1118.3" font-family="Arial" font-size="14.00">初始化子窗口result</text>
</g>
<!-- start&#45;&gt;init_child -->
<g id="edge1" class="edge">
<title>start&#45;&gt;init_child</title>
<path fill="none" stroke="black" d="M336.5,-1176.81C336.5,-1168.79 336.5,-1159.05 336.5,-1150.07"/>
<polygon fill="black" stroke="black" points="340,-1150.03 336.5,-1140.03 333,-1150.03 340,-1150.03"/>
</g>
<!-- get_glyphs -->
<g id="node3" class="node">
<title>get_glyphs</title>
<polygon fill="none" stroke="black" points="457,-1067 216,-1067 216,-1031 457,-1031 457,-1067"/>
<text text-anchor="middle" x="336.5" y="-1045.3" font-family="Arial" font-size="14.00">根据opts.border.glyphs获取边框字符</text>
</g>
<!-- init_child&#45;&gt;get_glyphs -->
<g id="edge2" class="edge">
<title>init_child&#45;&gt;get_glyphs</title>
<path fill="none" stroke="black" d="M336.5,-1103.81C336.5,-1095.79 336.5,-1086.05 336.5,-1077.07"/>
<polygon fill="black" stroke="black" points="340,-1077.03 336.5,-1067.03 333,-1077.03 340,-1077.03"/>
</g>
<!-- determine_loc -->
<g id="node4" class="node">
<title>determine_loc</title>
<polygon fill="none" stroke="black" points="413,-994 260,-994 260,-956 413,-956 413,-994"/>
<text text-anchor="middle" x="336.5" y="-978.8" font-family="Arial" font-size="14.00">确定边框位置(loc)</text>
<text text-anchor="middle" x="336.5" y="-963.8" font-family="Arial" font-size="14.00">根据opts.border.where</text>
</g>
<!-- get_glyphs&#45;&gt;determine_loc -->
<g id="edge3" class="edge">
<title>get_glyphs&#45;&gt;determine_loc</title>
<path fill="none" stroke="black" d="M336.5,-1030.94C336.5,-1022.99 336.5,-1013.31 336.5,-1004.31"/>
<polygon fill="black" stroke="black" points="340,-1004.2 336.5,-994.2 333,-1004.2 340,-1004.2"/>
</g>
<!-- draw_top -->
<g id="node5" class="node">
<title>draw_top</title>
<polygon fill="none" stroke="black" points="161,-905 0,-905 0,-867 161,-867 161,-905"/>
<text text-anchor="middle" x="80.5" y="-889.8" font-family="Arial" font-size="14.00">绘制顶部边框</text>
<text text-anchor="middle" x="80.5" y="-874.8" font-family="Arial" font-size="14.00">循环写入horizontal字符</text>
</g>
<!-- determine_loc&#45;&gt;draw_top -->
<g id="edge4" class="edge">
<title>determine_loc&#45;&gt;draw_top</title>
<path fill="none" stroke="black" d="M259.7,-960.84C233.22,-955.2 203.66,-947.65 177.5,-938 157.43,-930.6 136.29,-919.86 118.88,-910.15"/>
<polygon fill="black" stroke="black" points="120.57,-907.08 110.14,-905.19 117.11,-913.17 120.57,-907.08"/>
<text text-anchor="middle" x="223" y="-926.8" font-family="Times,serif" font-size="14.00">loc.top=true</text>
</g>
<!-- draw_bottom -->
<g id="node6" class="node">
<title>draw_bottom</title>
<polygon fill="none" stroke="black" points="340,-905 179,-905 179,-867 340,-867 340,-905"/>
<text text-anchor="middle" x="259.5" y="-889.8" font-family="Arial" font-size="14.00">绘制底部边框</text>
<text text-anchor="middle" x="259.5" y="-874.8" font-family="Arial" font-size="14.00">循环写入horizontal字符</text>
</g>
<!-- determine_loc&#45;&gt;draw_bottom -->
<g id="edge5" class="edge">
<title>determine_loc&#45;&gt;draw_bottom</title>
<path fill="none" stroke="black" d="M303.01,-955.91C295.6,-950.82 288.26,-944.79 282.5,-938 276.78,-931.26 272.23,-922.87 268.72,-914.85"/>
<polygon fill="black" stroke="black" points="271.91,-913.39 264.97,-905.39 265.41,-915.97 271.91,-913.39"/>
<text text-anchor="middle" x="341.5" y="-926.8" font-family="Times,serif" font-size="14.00">loc.bottom=true</text>
</g>
<!-- draw_left -->
<g id="node7" class="node">
<title>draw_left</title>
<polygon fill="none" stroke="black" points="503,-905 358,-905 358,-867 503,-867 503,-905"/>
<text text-anchor="middle" x="430.5" y="-889.8" font-family="Arial" font-size="14.00">绘制左边框</text>
<text text-anchor="middle" x="430.5" y="-874.8" font-family="Arial" font-size="14.00">循环写入vertical字符</text>
</g>
<!-- determine_loc&#45;&gt;draw_left -->
<g id="edge6" class="edge">
<title>determine_loc&#45;&gt;draw_left</title>
<path fill="none" stroke="black" d="M376.33,-955.89C384.91,-950.87 393.49,-944.87 400.5,-938 407.43,-931.21 413.33,-922.48 418.01,-914.18"/>
<polygon fill="black" stroke="black" points="421.23,-915.59 422.78,-905.11 415.03,-912.33 421.23,-915.59"/>
<text text-anchor="middle" x="457" y="-926.8" font-family="Times,serif" font-size="14.00">loc.left=true</text>
</g>
<!-- draw_right -->
<g id="node8" class="node">
<title>draw_right</title>
<polygon fill="none" stroke="black" points="666,-905 521,-905 521,-867 666,-867 666,-905"/>
<text text-anchor="middle" x="593.5" y="-889.8" font-family="Arial" font-size="14.00">绘制右边框</text>
<text text-anchor="middle" x="593.5" y="-874.8" font-family="Arial" font-size="14.00">循环写入vertical字符</text>
</g>
<!-- determine_loc&#45;&gt;draw_right -->
<g id="edge7" class="edge">
<title>determine_loc&#45;&gt;draw_right</title>
<path fill="none" stroke="black" d="M413.33,-963.14C443.05,-957.55 476.96,-949.44 506.5,-938 524.65,-930.97 543.45,-920.43 558.9,-910.75"/>
<polygon fill="black" stroke="black" points="561.06,-913.53 567.59,-905.18 557.28,-907.63 561.06,-913.53"/>
<text text-anchor="middle" x="588" y="-926.8" font-family="Times,serif" font-size="14.00">loc.right=true</text>
</g>
<!-- corners -->
<g id="node9" class="node">
<title>corners</title>
<polygon fill="none" stroke="black" points="458,-743 327,-743 327,-707 458,-707 458,-743"/>
<text text-anchor="middle" x="392.5" y="-721.3" font-family="Arial" font-size="14.00">绘制四个角落字符</text>
</g>
<!-- draw_top&#45;&gt;corners -->
<g id="edge8" class="edge">
<title>draw_top&#45;&gt;corners</title>
<path fill="none" stroke="black" d="M60.96,-866.95C43.04,-848.14 21.41,-818.09 36.5,-794 65.7,-747.37 221.13,-732.72 316.71,-728.11"/>
<polygon fill="black" stroke="black" points="317.08,-731.6 326.91,-727.65 316.76,-724.6 317.08,-731.6"/>
</g>
<!-- check_top -->
<g id="node13" class="node">
<title>check_top</title>
<polygon fill="none" stroke="black" points="104.5,-830 45.85,-812 104.5,-794 163.15,-812 104.5,-830"/>
<text text-anchor="middle" x="104.5" y="-808.3" font-family="Arial" font-size="14.00">loc.top?</text>
</g>
<!-- draw_top&#45;&gt;check_top -->
<g id="edge15" class="edge">
<title>draw_top&#45;&gt;check_top</title>
<path fill="none" stroke="black" d="M86.56,-866.83C89.45,-858.14 92.97,-847.6 96.11,-838.16"/>
<polygon fill="black" stroke="black" points="99.5,-839.07 99.34,-828.48 92.86,-836.86 99.5,-839.07"/>
</g>
<!-- draw_bottom&#45;&gt;corners -->
<g id="edge9" class="edge">
<title>draw_bottom&#45;&gt;corners</title>
<path fill="none" stroke="black" d="M237.83,-866.86C217.95,-847.98 193.93,-817.88 210.5,-794 234.42,-759.53 278.06,-742.5 316.61,-734.11"/>
<polygon fill="black" stroke="black" points="317.69,-737.46 326.81,-732.06 316.31,-730.6 317.69,-737.46"/>
</g>
<!-- check_bottom -->
<g id="node14" class="node">
<title>check_bottom</title>
<polygon fill="none" stroke="black" points="299.5,-830 219.57,-812 299.5,-794 379.43,-812 299.5,-830"/>
<text text-anchor="middle" x="299.5" y="-808.3" font-family="Arial" font-size="14.00">loc.bottom?</text>
</g>
<!-- draw_bottom&#45;&gt;check_bottom -->
<g id="edge18" class="edge">
<title>draw_bottom&#45;&gt;check_bottom</title>
<path fill="none" stroke="black" d="M269.59,-866.83C274.57,-857.87 280.65,-846.93 286.02,-837.26"/>
<polygon fill="black" stroke="black" points="289.1,-838.92 290.9,-828.48 282.98,-835.52 289.1,-838.92"/>
</g>
<!-- draw_left&#45;&gt;corners -->
<g id="edge10" class="edge">
<title>draw_left&#45;&gt;corners</title>
<path fill="none" stroke="black" d="M426.14,-866.76C419.49,-838.91 406.75,-785.62 399,-753.19"/>
<polygon fill="black" stroke="black" points="402.31,-751.98 396.58,-743.06 395.5,-753.6 402.31,-751.98"/>
</g>
<!-- check_left -->
<g id="node15" class="node">
<title>check_left</title>
<polygon fill="none" stroke="black" points="493.5,-830 435.69,-812 493.5,-794 551.31,-812 493.5,-830"/>
<text text-anchor="middle" x="493.5" y="-808.3" font-family="Arial" font-size="14.00">loc.left?</text>
</g>
<!-- draw_left&#45;&gt;check_left -->
<g id="edge21" class="edge">
<title>draw_left&#45;&gt;check_left</title>
<path fill="none" stroke="black" d="M446.4,-866.83C455.03,-856.97 465.74,-844.72 474.78,-834.4"/>
<polygon fill="black" stroke="black" points="477.63,-836.45 481.59,-826.62 472.37,-831.84 477.63,-836.45"/>
</g>
<!-- draw_right&#45;&gt;corners -->
<g id="edge11" class="edge">
<title>draw_right&#45;&gt;corners</title>
<path fill="none" stroke="black" d="M590.99,-866.91C587.37,-846.95 578.99,-814.89 560.5,-794 536.69,-767.09 500.69,-750.66 468.12,-740.71"/>
<polygon fill="black" stroke="black" points="468.72,-737.24 458.14,-737.83 466.78,-743.97 468.72,-737.24"/>
</g>
<!-- check_right -->
<g id="node16" class="node">
<title>check_right</title>
<polygon fill="none" stroke="black" points="672.5,-830 607.48,-812 672.5,-794 737.52,-812 672.5,-830"/>
<text text-anchor="middle" x="672.5" y="-808.3" font-family="Arial" font-size="14.00">loc.right?</text>
</g>
<!-- draw_right&#45;&gt;check_right -->
<g id="edge24" class="edge">
<title>draw_right&#45;&gt;check_right</title>
<path fill="none" stroke="black" d="M613.44,-866.83C624.73,-856.54 638.87,-843.65 650.48,-833.06"/>
<polygon fill="black" stroke="black" points="653.02,-835.49 658.06,-826.16 648.31,-830.31 653.02,-835.49"/>
</g>
<!-- adjust_offset -->
<g id="node10" class="node">
<title>adjust_offset</title>
<polygon fill="none" stroke="black" points="835.5,-186 673.5,-186 673.5,-148 835.5,-148 835.5,-186"/>
<text text-anchor="middle" x="754.5" y="-170.8" font-family="Arial" font-size="14.00">计算偏移量</text>
<text text-anchor="middle" x="754.5" y="-155.8" font-family="Arial" font-size="14.00">x_off/y_off/h_delt/w_delt</text>
</g>
<!-- corners&#45;&gt;adjust_offset -->
<g id="edge12" class="edge">
<title>corners&#45;&gt;adjust_offset</title>
<path fill="none" stroke="black" d="M387.96,-706.92C384.57,-692.62 380.5,-671.63 380.5,-653 380.5,-653 380.5,-653 380.5,-240 380.5,-182.61 552.45,-169.95 663.16,-167.74"/>
<polygon fill="black" stroke="black" points="663.41,-171.23 673.35,-167.56 663.29,-164.24 663.41,-171.23"/>
</g>
<!-- check_top_left -->
<g id="node17" class="node">
<title>check_top_left</title>
<polygon fill="none" stroke="black" points="736.5,-670 618.7,-652 736.5,-634 854.3,-652 736.5,-670"/>
<text text-anchor="middle" x="736.5" y="-648.3" font-family="Arial" font-size="14.00">loc.top &amp;&amp; loc.left?</text>
</g>
<!-- corners&#45;&gt;check_top_left -->
<g id="edge27" class="edge">
<title>corners&#45;&gt;check_top_left</title>
<path fill="none" stroke="black" d="M458.01,-710.48C521.91,-697.29 618.12,-677.43 679.09,-664.85"/>
<polygon fill="black" stroke="black" points="679.84,-668.27 688.93,-662.82 678.43,-661.41 679.84,-668.27"/>
</g>
<!-- final_child -->
<g id="node11" class="node">
<title>final_child</title>
<polygon fill="none" stroke="black" points="856.5,-111 652.5,-111 652.5,-73 856.5,-73 856.5,-111"/>
<text text-anchor="middle" x="754.5" y="-95.8" font-family="Arial" font-size="14.00">调整子窗口尺寸</text>
<text text-anchor="middle" x="754.5" y="-80.8" font-family="Arial" font-size="14.00">initChild(x_off,y_off,w_ch,h_ch)</text>
</g>
<!-- adjust_offset&#45;&gt;final_child -->
<g id="edge13" class="edge">
<title>adjust_offset&#45;&gt;final_child</title>
<path fill="none" stroke="black" d="M754.5,-147.96C754.5,-139.88 754.5,-130.18 754.5,-121.18"/>
<polygon fill="black" stroke="black" points="758,-121.09 754.5,-111.09 751,-121.09 758,-121.09"/>
</g>
<!-- end -->
<g id="node12" class="node">
<title>end</title>
<polygon fill="none" stroke="black" points="793.5,-36 715.5,-36 715.5,0 793.5,0 793.5,-36"/>
<text text-anchor="middle" x="754.5" y="-14.3" font-family="Arial" font-size="14.00">返回result</text>
</g>
<!-- final_child&#45;&gt;end -->
<g id="edge14" class="edge">
<title>final_child&#45;&gt;end</title>
<path fill="none" stroke="black" d="M754.5,-72.83C754.5,-64.89 754.5,-55.41 754.5,-46.63"/>
<polygon fill="black" stroke="black" points="758,-46.42 754.5,-36.42 751,-46.42 758,-46.42"/>
</g>
<!-- check_top&#45;&gt;corners -->
<g id="edge16" class="edge">
<title>check_top&#45;&gt;corners</title>
<path fill="none" stroke="black" d="M105.04,-794.08C106.35,-782.99 109.96,-769.09 119.5,-761 148.42,-736.48 246.39,-728.91 316.69,-726.7"/>
<polygon fill="black" stroke="black" points="316.96,-730.19 326.85,-726.41 316.76,-723.19 316.96,-730.19"/>
<text text-anchor="middle" x="127" y="-764.8" font-family="Times,serif" font-size="14.00">否</text>
</g>
<!-- check_top&#45;&gt;corners -->
<g id="edge17" class="edge">
<title>check_top&#45;&gt;corners</title>
<path fill="none" stroke="black" d="M116.35,-797.13C127.14,-785.49 144.14,-769.45 162.5,-761 210.87,-738.74 270.41,-730.13 316.8,-727.01"/>
<polygon fill="black" stroke="black" points="317.01,-730.5 326.79,-726.4 316.59,-723.51 317.01,-730.5"/>
<text text-anchor="middle" x="170" y="-764.8" font-family="Times,serif" font-size="14.00">是</text>
</g>
<!-- check_bottom&#45;&gt;corners -->
<g id="edge19" class="edge">
<title>check_bottom&#45;&gt;corners</title>
<path fill="none" stroke="black" d="M306.71,-795.14C312.12,-784.53 320.33,-770.76 330.5,-761 335.18,-756.51 340.55,-752.38 346.13,-748.67"/>
<polygon fill="black" stroke="black" points="348.34,-751.42 355,-743.17 344.65,-745.47 348.34,-751.42"/>
<text text-anchor="middle" x="338" y="-764.8" font-family="Times,serif" font-size="14.00">否</text>
</g>
<!-- check_bottom&#45;&gt;corners -->
<g id="edge20" class="edge">
<title>check_bottom&#45;&gt;corners</title>
<path fill="none" stroke="black" d="M317.97,-798.04C326.6,-791.71 336.85,-783.79 345.5,-776 354.09,-768.26 362.91,-759.21 370.57,-750.95"/>
<polygon fill="black" stroke="black" points="373.35,-753.09 377.5,-743.34 368.17,-748.38 373.35,-753.09"/>
<text text-anchor="middle" x="367" y="-764.8" font-family="Times,serif" font-size="14.00">是</text>
</g>
<!-- check_left&#45;&gt;corners -->
<g id="edge22" class="edge">
<title>check_left&#45;&gt;corners</title>
<path fill="none" stroke="black" d="M477.47,-798.55C469.06,-791.94 458.64,-783.64 449.5,-776 439.48,-767.63 428.66,-758.23 419.17,-749.87"/>
<polygon fill="black" stroke="black" points="421.37,-747.14 411.56,-743.13 416.73,-752.38 421.37,-747.14"/>
<text text-anchor="middle" x="457" y="-764.8" font-family="Times,serif" font-size="14.00">否</text>
</g>
<!-- check_left&#45;&gt;corners -->
<g id="edge23" class="edge">
<title>check_left&#45;&gt;corners</title>
<path fill="none" stroke="black" d="M487.37,-795.4C482.5,-784.62 474.79,-770.56 464.5,-761 459.25,-756.12 453.2,-751.79 446.87,-747.98"/>
<polygon fill="black" stroke="black" points="448.57,-744.92 438.13,-743.11 445.16,-751.03 448.57,-744.92"/>
<text text-anchor="middle" x="484" y="-764.8" font-family="Times,serif" font-size="14.00">是</text>
</g>
<!-- check_right&#45;&gt;corners -->
<g id="edge25" class="edge">
<title>check_right&#45;&gt;corners</title>
<path fill="none" stroke="black" d="M656.57,-798.25C641.29,-786.69 617.12,-770.12 593.5,-761 553.61,-745.6 506.65,-736.95 468.15,-732.09"/>
<polygon fill="black" stroke="black" points="468.39,-728.6 458.05,-730.88 467.56,-735.55 468.39,-728.6"/>
<text text-anchor="middle" x="630" y="-764.8" font-family="Times,serif" font-size="14.00">否</text>
</g>
<!-- check_right&#45;&gt;corners -->
<g id="edge26" class="edge">
<title>check_right&#45;&gt;corners</title>
<path fill="none" stroke="black" d="M666.97,-795.28C662.09,-783.85 653.82,-769.03 641.5,-761 613.66,-742.85 530.84,-733.91 468.3,-729.64"/>
<polygon fill="black" stroke="black" points="468.26,-726.13 458.05,-728.97 467.8,-733.12 468.26,-726.13"/>
<text text-anchor="middle" x="663" y="-764.8" font-family="Times,serif" font-size="14.00">是</text>
</g>
<!-- check_top_right -->
<g id="node18" class="node">
<title>check_top_right</title>
<polygon fill="none" stroke="black" points="736.5,-583 610.65,-565 736.5,-547 862.35,-565 736.5,-583"/>
<text text-anchor="middle" x="736.5" y="-561.3" font-family="Arial" font-size="14.00">loc.top &amp;&amp; loc.right?</text>
</g>
<!-- check_top_left&#45;&gt;check_top_right -->
<g id="edge29" class="edge">
<title>check_top_left&#45;&gt;check_top_right</title>
<path fill="none" stroke="black" d="M736.5,-633.8C736.5,-622.16 736.5,-606.55 736.5,-593.24"/>
<polygon fill="black" stroke="black" points="740,-593.18 736.5,-583.18 733,-593.18 740,-593.18"/>
<text text-anchor="middle" x="744" y="-604.8" font-family="Times,serif" font-size="14.00">否</text>
</g>
<!-- write_tl -->
<g id="node21" class="node">
<title>write_tl</title>
<polygon fill="none" stroke="black" points="978.5,-529 871.76,-511 978.5,-493 1085.24,-511 978.5,-529"/>
<text text-anchor="middle" x="978.5" y="-507.3" font-family="Arial" font-size="14.00">写入左上角字符</text>
</g>
<!-- check_top_left&#45;&gt;write_tl -->
<g id="edge28" class="edge">
<title>check_top_left&#45;&gt;write_tl</title>
<path fill="none" stroke="black" d="M764.42,-638.14C792.08,-625.11 835.42,-603.96 871.5,-583 899.29,-566.86 929.7,-546.39 950.98,-531.58"/>
<polygon fill="black" stroke="black" points="953.04,-534.41 959.22,-525.8 949.03,-528.67 953.04,-534.41"/>
<text text-anchor="middle" x="845" y="-604.8" font-family="Times,serif" font-size="14.00">是</text>
</g>
<!-- check_bottom_left -->
<g id="node19" class="node">
<title>check_bottom_left</title>
<polygon fill="none" stroke="black" points="683.5,-475 543.58,-457 683.5,-439 823.42,-457 683.5,-475"/>
<text text-anchor="middle" x="683.5" y="-453.3" font-family="Arial" font-size="14.00">loc.bottom &amp;&amp; loc.left?</text>
</g>
<!-- check_top_right&#45;&gt;check_bottom_left -->
<g id="edge31" class="edge">
<title>check_top_right&#45;&gt;check_bottom_left</title>
<path fill="none" stroke="black" d="M728.45,-547.9C719.89,-530.78 706.23,-503.46 696.21,-483.42"/>
<polygon fill="black" stroke="black" points="699.23,-481.63 691.63,-474.25 692.97,-484.76 699.23,-481.63"/>
<text text-anchor="middle" x="725" y="-507.3" font-family="Times,serif" font-size="14.00">否</text>
</g>
<!-- write_tr -->
<g id="node22" class="node">
<title>write_tr</title>
<polygon fill="none" stroke="black" points="856.5,-421 749.76,-403 856.5,-385 963.24,-403 856.5,-421"/>
<text text-anchor="middle" x="856.5" y="-399.3" font-family="Arial" font-size="14.00">写入右上角字符</text>
</g>
<!-- check_top_right&#45;&gt;write_tr -->
<g id="edge30" class="edge">
<title>check_top_right&#45;&gt;write_tr</title>
<path fill="none" stroke="black" d="M756.94,-549.9C778.54,-534.01 812.24,-506.29 832.5,-475 841.23,-461.51 847.13,-444.51 850.89,-430.53"/>
<polygon fill="black" stroke="black" points="854.36,-431.08 853.36,-420.53 847.56,-429.4 854.36,-431.08"/>
<text text-anchor="middle" x="826" y="-507.3" font-family="Times,serif" font-size="14.00">是</text>
</g>
<!-- check_bottom_right -->
<g id="node20" class="node">
<title>check_bottom_right</title>
<polygon fill="none" stroke="black" points="555.5,-367 408.37,-349 555.5,-331 702.63,-349 555.5,-367"/>
<text text-anchor="middle" x="555.5" y="-345.3" font-family="Arial" font-size="14.00">loc.bottom &amp;&amp; loc.right?</text>
</g>
<!-- check_bottom_left&#45;&gt;check_bottom_right -->
<g id="edge33" class="edge">
<title>check_bottom_left&#45;&gt;check_bottom_right</title>
<path fill="none" stroke="black" d="M665.7,-441.26C643.85,-423.17 606.63,-392.34 581.56,-371.58"/>
<polygon fill="black" stroke="black" points="583.49,-368.64 573.56,-364.96 579.03,-374.03 583.49,-368.64"/>
<text text-anchor="middle" x="645" y="-399.3" font-family="Times,serif" font-size="14.00">否</text>
</g>
<!-- write_bl -->
<g id="node23" class="node">
<title>write_bl</title>
<polygon fill="none" stroke="black" points="731.5,-313 624.76,-295 731.5,-277 838.24,-295 731.5,-313"/>
<text text-anchor="middle" x="731.5" y="-291.3" font-family="Arial" font-size="14.00">写入左下角字符</text>
</g>
<!-- check_bottom_left&#45;&gt;write_bl -->
<g id="edge32" class="edge">
<title>check_bottom_left&#45;&gt;write_bl</title>
<path fill="none" stroke="black" d="M688.81,-439.64C694.55,-421.82 703.91,-392.46 711.5,-367 715.89,-352.28 720.55,-335.77 724.27,-322.38"/>
<polygon fill="black" stroke="black" points="727.74,-322.97 727.03,-312.4 721,-321.1 727.74,-322.97"/>
<text text-anchor="middle" x="713" y="-399.3" font-family="Times,serif" font-size="14.00">是</text>
</g>
<!-- check_bottom_right&#45;&gt;adjust_offset -->
<g id="edge35" class="edge">
<title>check_bottom_right&#45;&gt;adjust_offset</title>
<path fill="none" stroke="black" d="M543.64,-332.42C525.76,-306.9 496.61,-255.75 522.5,-223 540.21,-200.6 606.21,-186.37 663.32,-178.01"/>
<polygon fill="black" stroke="black" points="664.08,-181.44 673.49,-176.57 663.1,-174.5 664.08,-181.44"/>
<text text-anchor="middle" x="530" y="-237.3" font-family="Times,serif" font-size="14.00">否</text>
</g>
<!-- write_br -->
<g id="node24" class="node">
<title>write_br</title>
<polygon fill="none" stroke="black" points="653.5,-259 546.76,-241 653.5,-223 760.24,-241 653.5,-259"/>
<text text-anchor="middle" x="653.5" y="-237.3" font-family="Arial" font-size="14.00">写入右下角字符</text>
</g>
<!-- check_bottom_right&#45;&gt;write_br -->
<g id="edge34" class="edge">
<title>check_bottom_right&#45;&gt;write_br</title>
<path fill="none" stroke="black" d="M563.28,-331.69C571.16,-316.35 584.45,-293.35 600.5,-277 606.37,-271.02 613.41,-265.51 620.43,-260.72"/>
<polygon fill="black" stroke="black" points="622.71,-263.41 629.2,-255.05 618.91,-257.54 622.71,-263.41"/>
<text text-anchor="middle" x="608" y="-291.3" font-family="Times,serif" font-size="14.00">是</text>
</g>
<!-- write_tl&#45;&gt;adjust_offset -->
<g id="edge36" class="edge">
<title>write_tl&#45;&gt;adjust_offset</title>
<path fill="none" stroke="black" d="M978.5,-492.74C978.5,-471.76 978.5,-435.28 978.5,-404 978.5,-404 978.5,-404 978.5,-240 978.5,-210.58 907.58,-191.47 845.55,-180.39"/>
<polygon fill="black" stroke="black" points="846.14,-176.94 835.69,-178.68 844.94,-183.83 846.14,-176.94"/>
</g>
<!-- write_tr&#45;&gt;adjust_offset -->
<g id="edge37" class="edge">
<title>write_tr&#45;&gt;adjust_offset</title>
<path fill="none" stroke="black" d="M857.33,-385.09C857.91,-360.36 856.65,-313.31 841.5,-277 827.96,-244.56 801.8,-213.86 781.69,-193.36"/>
<polygon fill="black" stroke="black" points="784.14,-190.86 774.58,-186.28 779.2,-195.82 784.14,-190.86"/>
</g>
<!-- write_bl&#45;&gt;adjust_offset -->
<g id="edge38" class="edge">
<title>write_bl&#45;&gt;adjust_offset</title>
<path fill="none" stroke="black" d="M752.22,-280.34C759.05,-274.64 765.83,-267.38 769.5,-259 778.33,-238.86 773.37,-214.15 766.88,-195.56"/>
<polygon fill="black" stroke="black" points="770.13,-194.28 763.3,-186.19 763.6,-196.78 770.13,-194.28"/>
</g>
<!-- write_br&#45;&gt;adjust_offset -->
<g id="edge39" class="edge">
<title>write_br&#45;&gt;adjust_offset</title>
<path fill="none" stroke="black" d="M672.97,-226.12C686.42,-216.53 704.66,-203.53 720.47,-192.26"/>
<polygon fill="black" stroke="black" points="722.85,-194.86 728.96,-186.2 718.79,-189.16 722.85,-194.86"/>
</g>
</g>
</svg>
