<?xml version="1.0" encoding="UTF-8" standalone="no"?>
<!DOCTYPE svg PUBLIC "-//W3C//DTD SVG 1.1//EN"
 "http://www.w3.org/Graphics/SVG/1.1/DTD/svg11.dtd">
<!-- Generated by graphviz version 2.43.0 (0)
 -->
<!-- Title: flowchart Pages: 1 -->
<svg width="313pt" height="1191pt"
 viewBox="0.00 0.00 313.00 1191.00" xmlns="http://www.w3.org/2000/svg" xmlns:xlink="http://www.w3.org/1999/xlink">
<g id="graph0" class="graph" transform="scale(1 1) rotate(0) translate(4 1187)">
<title>flowchart</title>
<polygon fill="white" stroke="transparent" points="-4,4 -4,-1187 309,-1187 309,4 -4,4"/>
<g id="clust1" class="cluster">
<title>cluster_range_conditions</title>
<polygon fill="none" stroke="black" stroke-dasharray="5,2" points="121,-8 121,-155 297,-155 297,-8 121,-8"/>
<text text-anchor="middle" x="209" y="-139.8" font-family="Times,serif" font-size="14.00">范围测试条件判断</text>
</g>
<!-- start -->
<g id="node1" class="node">
<title>start</title>
<ellipse fill="none" stroke="black" cx="145" cy="-1165" rx="118.08" ry="18"/>
<text text-anchor="middle" x="145" y="-1161.3" font-family="Helvetica,sans-Serif" font-size="14.00">开始 testBitSet(a, b, len)</text>
</g>
<!-- check_capacity -->
<g id="node2" class="node">
<title>check_capacity</title>
<path fill="none" stroke="black" d="M278,-1111C278,-1111 12,-1111 12,-1111 6,-1111 0,-1105 0,-1099 0,-1099 0,-1087 0,-1087 0,-1081 6,-1075 12,-1075 12,-1075 278,-1075 278,-1075 284,-1075 290,-1081 290,-1087 290,-1087 290,-1099 290,-1099 290,-1105 284,-1111 278,-1111"/>
<text text-anchor="middle" x="145" y="-1089.3" font-family="Helvetica,sans-Serif" font-size="14.00">检查 a.capacity() 和 b.capacity() 等于 len</text>
</g>
<!-- start&#45;&gt;check_capacity -->
<g id="edge1" class="edge">
<title>start&#45;&gt;check_capacity</title>
<path fill="none" stroke="black" d="M145,-1146.7C145,-1138.98 145,-1129.71 145,-1121.11"/>
<polygon fill="black" stroke="black" points="148.5,-1121.1 145,-1111.1 141.5,-1121.1 148.5,-1121.1"/>
</g>
<!-- set_bits -->
<g id="node3" class="node">
<title>set_bits</title>
<path fill="none" stroke="black" d="M214.5,-1039C214.5,-1039 75.5,-1039 75.5,-1039 69.5,-1039 63.5,-1033 63.5,-1027 63.5,-1027 63.5,-998 63.5,-998 63.5,-992 69.5,-986 75.5,-986 75.5,-986 214.5,-986 214.5,-986 220.5,-986 226.5,-992 226.5,-998 226.5,-998 226.5,-1027 226.5,-1027 226.5,-1033 220.5,-1039 214.5,-1039"/>
<text text-anchor="middle" x="145" y="-1023.8" font-family="Helvetica,sans-Serif" font-size="14.00">循环设置 a 和 b 的位值</text>
<text text-anchor="middle" x="145" y="-1008.8" font-family="Helvetica,sans-Serif" font-size="14.00">a[i] = (i&amp;1==0)</text>
<text text-anchor="middle" x="145" y="-993.8" font-family="Helvetica,sans-Serif" font-size="14.00">b[i] = (i&amp;2==0)</text>
</g>
<!-- check_capacity&#45;&gt;set_bits -->
<g id="edge2" class="edge">
<title>check_capacity&#45;&gt;set_bits</title>
<path fill="none" stroke="black" d="M145,-1074.97C145,-1067.45 145,-1058.31 145,-1049.4"/>
<polygon fill="black" stroke="black" points="148.5,-1049.16 145,-1039.16 141.5,-1049.16 148.5,-1049.16"/>
</g>
<!-- check_count -->
<g id="node4" class="node">
<title>check_count</title>
<path fill="none" stroke="black" d="M261.5,-950C261.5,-950 28.5,-950 28.5,-950 22.5,-950 16.5,-944 16.5,-938 16.5,-938 16.5,-926 16.5,-926 16.5,-920 22.5,-914 28.5,-914 28.5,-914 261.5,-914 261.5,-914 267.5,-914 273.5,-920 273.5,-926 273.5,-926 273.5,-938 273.5,-938 273.5,-944 267.5,-950 261.5,-950"/>
<text text-anchor="middle" x="145" y="-928.3" font-family="Helvetica,sans-Serif" font-size="14.00">验证 a.count() 和 b.count() 符合预期</text>
</g>
<!-- set_bits&#45;&gt;check_count -->
<g id="edge3" class="edge">
<title>set_bits&#45;&gt;check_count</title>
<path fill="none" stroke="black" d="M145,-985.8C145,-977.71 145,-968.76 145,-960.55"/>
<polygon fill="black" stroke="black" points="148.5,-960.33 145,-950.33 141.5,-960.33 148.5,-960.33"/>
</g>
<!-- iterator_forward -->
<g id="node5" class="node">
<title>iterator_forward</title>
<path fill="none" stroke="black" d="M212,-878C212,-878 78,-878 78,-878 72,-878 66,-872 66,-866 66,-866 66,-852 66,-852 66,-846 72,-840 78,-840 78,-840 212,-840 212,-840 218,-840 224,-846 224,-852 224,-852 224,-866 224,-866 224,-872 218,-878 212,-878"/>
<text text-anchor="middle" x="145" y="-862.8" font-family="Helvetica,sans-Serif" font-size="14.00">正向迭代器测试</text>
<text text-anchor="middle" x="145" y="-847.8" font-family="Helvetica,sans-Serif" font-size="14.00">a 的偶数位按顺序迭代</text>
</g>
<!-- check_count&#45;&gt;iterator_forward -->
<g id="edge4" class="edge">
<title>check_count&#45;&gt;iterator_forward</title>
<path fill="none" stroke="black" d="M145,-913.81C145,-906.11 145,-896.82 145,-888.15"/>
<polygon fill="black" stroke="black" points="148.5,-888.02 145,-878.02 141.5,-888.02 148.5,-888.02"/>
</g>
<!-- toggle_all -->
<g id="node6" class="node">
<title>toggle_all</title>
<path fill="none" stroke="black" d="M212.5,-804C212.5,-804 77.5,-804 77.5,-804 71.5,-804 65.5,-798 65.5,-792 65.5,-792 65.5,-778 65.5,-778 65.5,-772 71.5,-766 77.5,-766 77.5,-766 212.5,-766 212.5,-766 218.5,-766 224.5,-772 224.5,-778 224.5,-778 224.5,-792 224.5,-792 224.5,-798 218.5,-804 212.5,-804"/>
<text text-anchor="middle" x="145" y="-788.8" font-family="Helvetica,sans-Serif" font-size="14.00">a.toggleAll()</text>
<text text-anchor="middle" x="145" y="-773.8" font-family="Helvetica,sans-Serif" font-size="14.00">验证迭代器显示奇数位</text>
</g>
<!-- iterator_forward&#45;&gt;toggle_all -->
<g id="edge5" class="edge">
<title>iterator_forward&#45;&gt;toggle_all</title>
<path fill="none" stroke="black" d="M145,-839.83C145,-832.13 145,-822.97 145,-814.42"/>
<polygon fill="black" stroke="black" points="148.5,-814.41 145,-804.41 141.5,-814.41 148.5,-814.41"/>
</g>
<!-- iterator_unset -->
<g id="node7" class="node">
<title>iterator_unset</title>
<path fill="none" stroke="black" d="M226.5,-730C226.5,-730 63.5,-730 63.5,-730 57.5,-730 51.5,-724 51.5,-718 51.5,-718 51.5,-706 51.5,-706 51.5,-700 57.5,-694 63.5,-694 63.5,-694 226.5,-694 226.5,-694 232.5,-694 238.5,-700 238.5,-706 238.5,-706 238.5,-718 238.5,-718 238.5,-724 232.5,-730 226.5,-730"/>
<text text-anchor="middle" x="145" y="-708.3" font-family="Helvetica,sans-Serif" font-size="14.00">b 的反向未设置位迭代测试</text>
</g>
<!-- toggle_all&#45;&gt;iterator_unset -->
<g id="edge6" class="edge">
<title>toggle_all&#45;&gt;iterator_unset</title>
<path fill="none" stroke="black" d="M145,-765.72C145,-757.97 145,-748.79 145,-740.27"/>
<polygon fill="black" stroke="black" points="148.5,-740 145,-730 141.5,-740 148.5,-740"/>
</g>
<!-- check_bits -->
<g id="node8" class="node">
<title>check_bits</title>
<path fill="none" stroke="black" d="M198.5,-658C198.5,-658 91.5,-658 91.5,-658 85.5,-658 79.5,-652 79.5,-646 79.5,-646 79.5,-617 79.5,-617 79.5,-611 85.5,-605 91.5,-605 91.5,-605 198.5,-605 198.5,-605 204.5,-605 210.5,-611 210.5,-617 210.5,-617 210.5,-646 210.5,-646 210.5,-652 204.5,-658 198.5,-658"/>
<text text-anchor="middle" x="145" y="-642.8" font-family="Helvetica,sans-Serif" font-size="14.00">验证所有位的状态</text>
<text text-anchor="middle" x="145" y="-627.8" font-family="Helvetica,sans-Serif" font-size="14.00">a[i] = (i&amp;1!=0)</text>
<text text-anchor="middle" x="145" y="-612.8" font-family="Helvetica,sans-Serif" font-size="14.00">b[i] = (i&amp;2==0)</text>
</g>
<!-- iterator_unset&#45;&gt;check_bits -->
<g id="edge7" class="edge">
<title>iterator_unset&#45;&gt;check_bits</title>
<path fill="none" stroke="black" d="M145,-693.97C145,-686.45 145,-677.31 145,-668.4"/>
<polygon fill="black" stroke="black" points="148.5,-668.16 145,-658.16 141.5,-668.16 148.5,-668.16"/>
</g>
<!-- union_operation -->
<g id="node9" class="node">
<title>union_operation</title>
<path fill="none" stroke="black" d="M188,-569C188,-569 102,-569 102,-569 96,-569 90,-563 90,-557 90,-557 90,-543 90,-543 90,-537 96,-531 102,-531 102,-531 188,-531 188,-531 194,-531 200,-537 200,-543 200,-543 200,-557 200,-557 200,-563 194,-569 188,-569"/>
<text text-anchor="middle" x="145" y="-553.8" font-family="Helvetica,sans-Serif" font-size="14.00">a.setUnion(b)</text>
<text text-anchor="middle" x="145" y="-538.8" font-family="Helvetica,sans-Serif" font-size="14.00">验证并集结果</text>
</g>
<!-- check_bits&#45;&gt;union_operation -->
<g id="edge8" class="edge">
<title>check_bits&#45;&gt;union_operation</title>
<path fill="none" stroke="black" d="M145,-604.91C145,-596.74 145,-587.65 145,-579.3"/>
<polygon fill="black" stroke="black" points="148.5,-579.24 145,-569.24 141.5,-579.24 148.5,-579.24"/>
</g>
<!-- toggle_set -->
<g id="node10" class="node">
<title>toggle_set</title>
<path fill="none" stroke="black" d="M190.5,-495C190.5,-495 99.5,-495 99.5,-495 93.5,-495 87.5,-489 87.5,-483 87.5,-483 87.5,-469 87.5,-469 87.5,-463 93.5,-457 99.5,-457 99.5,-457 190.5,-457 190.5,-457 196.5,-457 202.5,-463 202.5,-469 202.5,-469 202.5,-483 202.5,-483 202.5,-489 196.5,-495 190.5,-495"/>
<text text-anchor="middle" x="145" y="-479.8" font-family="Helvetica,sans-Serif" font-size="14.00">a.toggleSet(b)</text>
<text text-anchor="middle" x="145" y="-464.8" font-family="Helvetica,sans-Serif" font-size="14.00">验证异或结果</text>
</g>
<!-- union_operation&#45;&gt;toggle_set -->
<g id="edge9" class="edge">
<title>union_operation&#45;&gt;toggle_set</title>
<path fill="none" stroke="black" d="M145,-530.83C145,-523.13 145,-513.97 145,-505.42"/>
<polygon fill="black" stroke="black" points="148.5,-505.41 145,-495.41 141.5,-505.41 148.5,-505.41"/>
</g>
<!-- intersection -->
<g id="node11" class="node">
<title>intersection</title>
<path fill="none" stroke="black" d="M209,-421C209,-421 81,-421 81,-421 75,-421 69,-415 69,-409 69,-409 69,-395 69,-395 69,-389 75,-383 81,-383 81,-383 209,-383 209,-383 215,-383 221,-389 221,-395 221,-395 221,-409 221,-409 221,-415 215,-421 209,-421"/>
<text text-anchor="middle" x="145" y="-405.8" font-family="Helvetica,sans-Serif" font-size="14.00">a.setIntersection(b)</text>
<text text-anchor="middle" x="145" y="-390.8" font-family="Helvetica,sans-Serif" font-size="14.00">验证交集结果</text>
</g>
<!-- toggle_set&#45;&gt;intersection -->
<g id="edge10" class="edge">
<title>toggle_set&#45;&gt;intersection</title>
<path fill="none" stroke="black" d="M145,-456.83C145,-449.13 145,-439.97 145,-431.42"/>
<polygon fill="black" stroke="black" points="148.5,-431.41 145,-421.41 141.5,-431.41 148.5,-431.41"/>
</g>
<!-- self_toggle -->
<g id="node12" class="node">
<title>self_toggle</title>
<path fill="none" stroke="black" d="M190,-347C190,-347 100,-347 100,-347 94,-347 88,-341 88,-335 88,-335 88,-321 88,-321 88,-315 94,-309 100,-309 100,-309 190,-309 190,-309 196,-309 202,-315 202,-321 202,-321 202,-335 202,-335 202,-341 196,-347 190,-347"/>
<text text-anchor="middle" x="145" y="-331.8" font-family="Helvetica,sans-Serif" font-size="14.00">a.toggleSet(a)</text>
<text text-anchor="middle" x="145" y="-316.8" font-family="Helvetica,sans-Serif" font-size="14.00">验证全部取消</text>
</g>
<!-- intersection&#45;&gt;self_toggle -->
<g id="edge11" class="edge">
<title>intersection&#45;&gt;self_toggle</title>
<path fill="none" stroke="black" d="M145,-382.83C145,-375.13 145,-365.97 145,-357.42"/>
<polygon fill="black" stroke="black" points="148.5,-357.41 145,-347.41 141.5,-357.41 148.5,-357.41"/>
</g>
<!-- test_bits -->
<g id="node13" class="node">
<title>test_bits</title>
<path fill="none" stroke="black" d="M255,-273C255,-273 35,-273 35,-273 29,-273 23,-267 23,-261 23,-261 23,-249 23,-249 23,-243 29,-237 35,-237 35,-237 255,-237 255,-237 261,-237 267,-243 267,-249 267,-249 267,-261 267,-261 267,-267 261,-273 255,-273"/>
<text text-anchor="middle" x="145" y="-251.3" font-family="Helvetica,sans-Serif" font-size="14.00">测试 test_bits 数组的设置/切换操作</text>
</g>
<!-- self_toggle&#45;&gt;test_bits -->
<g id="edge12" class="edge">
<title>self_toggle&#45;&gt;test_bits</title>
<path fill="none" stroke="black" d="M145,-308.72C145,-300.97 145,-291.79 145,-283.27"/>
<polygon fill="black" stroke="black" points="148.5,-283 145,-273 141.5,-283 148.5,-283"/>
</g>
<!-- range_tests -->
<g id="node14" class="node">
<title>range_tests</title>
<path fill="none" stroke="black" d="M198.5,-201C198.5,-201 91.5,-201 91.5,-201 85.5,-201 79.5,-195 79.5,-189 79.5,-189 79.5,-175 79.5,-175 79.5,-169 85.5,-163 91.5,-163 91.5,-163 198.5,-163 198.5,-163 204.5,-163 210.5,-169 210.5,-175 210.5,-175 210.5,-189 210.5,-189 210.5,-195 204.5,-201 198.5,-201"/>
<text text-anchor="middle" x="145" y="-185.8" font-family="Helvetica,sans-Serif" font-size="14.00">测试范围设置操作</text>
<text text-anchor="middle" x="145" y="-170.8" font-family="Helvetica,sans-Serif" font-size="14.00">(包括边界条件)</text>
</g>
<!-- test_bits&#45;&gt;range_tests -->
<g id="edge13" class="edge">
<title>test_bits&#45;&gt;range_tests</title>
<path fill="none" stroke="black" d="M145,-236.81C145,-229.11 145,-219.82 145,-211.15"/>
<polygon fill="black" stroke="black" points="148.5,-211.02 145,-201.02 141.5,-211.02 148.5,-211.02"/>
</g>
<!-- end -->
<g id="node15" class="node">
<title>end</title>
<ellipse fill="none" stroke="black" cx="82" cy="-106" rx="29.5" ry="18"/>
<text text-anchor="middle" x="82" y="-102.3" font-family="Helvetica,sans-Serif" font-size="14.00">结束</text>
</g>
<!-- range_tests&#45;&gt;end -->
<g id="edge14" class="edge">
<title>range_tests&#45;&gt;end</title>
<path fill="none" stroke="black" d="M124.66,-162.99C122,-160.38 119.38,-157.68 117,-155 110.53,-147.72 104.07,-139.27 98.49,-131.52"/>
<polygon fill="black" stroke="black" points="101.23,-129.32 92.62,-123.15 95.5,-133.35 101.23,-129.32"/>
</g>
<!-- range_if_len_ge1 -->
<g id="node16" class="node">
<title>range_if_len_ge1</title>
<path fill="none" stroke="black" d="M197.29,-121.36C197.29,-121.36 140.77,-108.64 140.77,-108.64 134.92,-107.32 134.92,-104.68 140.77,-103.36 140.77,-103.36 197.29,-90.64 197.29,-90.64 203.15,-89.32 214.85,-89.32 220.71,-90.64 220.71,-90.64 277.23,-103.36 277.23,-103.36 283.08,-104.68 283.08,-107.32 277.23,-108.64 277.23,-108.64 220.71,-121.36 220.71,-121.36 214.85,-122.68 203.15,-122.68 197.29,-121.36"/>
<text text-anchor="middle" x="209" y="-102.3" font-family="Helvetica,sans-Serif" font-size="14.00">len &gt;= 1?</text>
</g>
<!-- range_tests&#45;&gt;range_if_len_ge1 -->
<!-- range_if_len_ge4 -->
<g id="node17" class="node">
<title>range_if_len_ge4</title>
<path fill="none" stroke="black" d="M197.29,-49.36C197.29,-49.36 140.77,-36.64 140.77,-36.64 134.92,-35.32 134.92,-32.68 140.77,-31.36 140.77,-31.36 197.29,-18.64 197.29,-18.64 203.15,-17.32 214.85,-17.32 220.71,-18.64 220.71,-18.64 277.23,-31.36 277.23,-31.36 283.08,-32.68 283.08,-35.32 277.23,-36.64 277.23,-36.64 220.71,-49.36 220.71,-49.36 214.85,-50.68 203.15,-50.68 197.29,-49.36"/>
<text text-anchor="middle" x="209" y="-30.3" font-family="Helvetica,sans-Serif" font-size="14.00">len &gt;= 4?</text>
</g>
<!-- range_if_len_ge1&#45;&gt;range_if_len_ge4 -->
</g>
</svg>
