<?xml version="1.0" encoding="UTF-8" standalone="no"?>
<!DOCTYPE svg PUBLIC "-//W3C//DTD SVG 1.1//EN"
 "http://www.w3.org/Graphics/SVG/1.1/DTD/svg11.dtd">
<!-- Generated by graphviz version 2.43.0 (0)
 -->
<!-- Title: buildWasmBinary Pages: 1 -->
<svg width="959pt" height="903pt"
 viewBox="0.00 0.00 959.10 903.00" xmlns="http://www.w3.org/2000/svg" xmlns:xlink="http://www.w3.org/1999/xlink">
<g id="graph0" class="graph" transform="scale(1 1) rotate(0) translate(4 899)">
<title>buildWasmBinary</title>
<polygon fill="white" stroke="transparent" points="-4,4 -4,-899 955.1,-899 955.1,4 -4,4"/>
<!-- start -->
<g id="node1" class="node">
<title>start</title>
<ellipse fill="none" stroke="black" cx="624.1" cy="-877" rx="29.5" ry="18"/>
<text text-anchor="middle" x="624.1" y="-873.3" font-family="Times,serif" font-size="14.00">开始</text>
</g>
<!-- build_argv -->
<g id="node2" class="node">
<title>build_argv</title>
<path fill="none" stroke="black" d="M694.1,-822C694.1,-822 554.1,-822 554.1,-822 548.1,-822 542.1,-816 542.1,-810 542.1,-810 542.1,-798 542.1,-798 542.1,-792 548.1,-786 554.1,-786 554.1,-786 694.1,-786 694.1,-786 700.1,-786 706.1,-792 706.1,-798 706.1,-798 706.1,-810 706.1,-810 706.1,-816 700.1,-822 694.1,-822"/>
<text text-anchor="middle" x="624.1" y="-800.3" font-family="Times,serif" font-size="14.00">构建命令行参数 (argv)</text>
</g>
<!-- start&#45;&gt;build_argv -->
<g id="edge1" class="edge">
<title>start&#45;&gt;build_argv</title>
<path fill="none" stroke="black" d="M624.1,-858.81C624.1,-850.79 624.1,-841.05 624.1,-832.07"/>
<polygon fill="black" stroke="black" points="627.6,-832.03 624.1,-822.03 620.6,-832.03 627.6,-832.03"/>
</g>
<!-- spawn_child -->
<g id="node3" class="node">
<title>spawn_child</title>
<path fill="none" stroke="black" d="M711.1,-749C711.1,-749 537.1,-749 537.1,-749 531.1,-749 525.1,-743 525.1,-737 525.1,-737 525.1,-725 525.1,-725 525.1,-719 531.1,-713 537.1,-713 537.1,-713 711.1,-713 711.1,-713 717.1,-713 723.1,-719 723.1,-725 723.1,-725 723.1,-737 723.1,-737 723.1,-743 717.1,-749 711.1,-749"/>
<text text-anchor="middle" x="624.1" y="-727.3" font-family="Times,serif" font-size="14.00">启动子进程 (child.spawn())</text>
</g>
<!-- build_argv&#45;&gt;spawn_child -->
<g id="edge2" class="edge">
<title>build_argv&#45;&gt;spawn_child</title>
<path fill="none" stroke="black" d="M624.1,-785.81C624.1,-777.79 624.1,-768.05 624.1,-759.07"/>
<polygon fill="black" stroke="black" points="627.6,-759.03 624.1,-749.03 620.6,-759.03 627.6,-759.03"/>
</g>
<!-- init_poller -->
<g id="node4" class="node">
<title>init_poller</title>
<path fill="none" stroke="black" d="M691.1,-676C691.1,-676 557.1,-676 557.1,-676 551.1,-676 545.1,-670 545.1,-664 545.1,-664 545.1,-652 545.1,-652 545.1,-646 551.1,-640 557.1,-640 557.1,-640 691.1,-640 691.1,-640 697.1,-640 703.1,-646 703.1,-652 703.1,-652 703.1,-664 703.1,-664 703.1,-670 697.1,-676 691.1,-676"/>
<text text-anchor="middle" x="624.1" y="-654.3" font-family="Times,serif" font-size="14.00">初始化轮询器 (poller)</text>
</g>
<!-- spawn_child&#45;&gt;init_poller -->
<g id="edge3" class="edge">
<title>spawn_child&#45;&gt;init_poller</title>
<path fill="none" stroke="black" d="M624.1,-712.81C624.1,-704.79 624.1,-695.05 624.1,-686.07"/>
<polygon fill="black" stroke="black" points="627.6,-686.03 624.1,-676.03 620.6,-686.03 627.6,-686.03"/>
</g>
<!-- send_messages -->
<g id="node5" class="node">
<title>send_messages</title>
<path fill="none" stroke="black" d="M706.1,-603C706.1,-603 542.1,-603 542.1,-603 536.1,-603 530.1,-597 530.1,-591 530.1,-591 530.1,-579 530.1,-579 530.1,-573 536.1,-567 542.1,-567 542.1,-567 706.1,-567 706.1,-567 712.1,-567 718.1,-573 718.1,-579 718.1,-579 718.1,-591 718.1,-591 718.1,-597 712.1,-603 706.1,-603"/>
<text text-anchor="middle" x="624.1" y="-581.3" font-family="Times,serif" font-size="14.00">发送消息 (update 和 exit)</text>
</g>
<!-- init_poller&#45;&gt;send_messages -->
<g id="edge4" class="edge">
<title>init_poller&#45;&gt;send_messages</title>
<path fill="none" stroke="black" d="M624.1,-639.81C624.1,-631.79 624.1,-622.05 624.1,-613.07"/>
<polygon fill="black" stroke="black" points="627.6,-613.03 624.1,-603.03 620.6,-613.03 627.6,-613.03"/>
</g>
<!-- process_stdout -->
<g id="node6" class="node">
<title>process_stdout</title>
<path fill="none" stroke="black" d="M690.1,-530C690.1,-530 558.1,-530 558.1,-530 552.1,-530 546.1,-524 546.1,-518 546.1,-518 546.1,-506 546.1,-506 546.1,-500 552.1,-494 558.1,-494 558.1,-494 690.1,-494 690.1,-494 696.1,-494 702.1,-500 702.1,-506 702.1,-506 702.1,-518 702.1,-518 702.1,-524 696.1,-530 690.1,-530"/>
<text text-anchor="middle" x="624.1" y="-508.3" font-family="Times,serif" font-size="14.00">处理 stdout 消息循环</text>
</g>
<!-- send_messages&#45;&gt;process_stdout -->
<g id="edge5" class="edge">
<title>send_messages&#45;&gt;process_stdout</title>
<path fill="none" stroke="black" d="M624.1,-566.81C624.1,-558.79 624.1,-549.05 624.1,-540.07"/>
<polygon fill="black" stroke="black" points="627.6,-540.03 624.1,-530.03 620.6,-540.03 627.6,-540.03"/>
</g>
<!-- read_header -->
<g id="node7" class="node">
<title>read_header</title>
<path fill="none" stroke="black" d="M528.6,-443C528.6,-443 397.6,-443 397.6,-443 391.6,-443 385.6,-437 385.6,-431 385.6,-431 385.6,-419 385.6,-419 385.6,-413 391.6,-407 397.6,-407 397.6,-407 528.6,-407 528.6,-407 534.6,-407 540.6,-413 540.6,-419 540.6,-419 540.6,-431 540.6,-431 540.6,-437 534.6,-443 528.6,-443"/>
<text text-anchor="middle" x="463.1" y="-421.3" font-family="Times,serif" font-size="14.00">读取消息头 (Header)</text>
</g>
<!-- process_stdout&#45;&gt;read_header -->
<g id="edge6" class="edge">
<title>process_stdout&#45;&gt;read_header</title>
<path fill="none" stroke="black" d="M591.52,-493.8C566.34,-480.51 531.33,-462.02 504.22,-447.71"/>
<polygon fill="black" stroke="black" points="505.83,-444.6 495.36,-443.03 502.57,-450.79 505.83,-444.6"/>
</g>
<!-- process_stderr -->
<g id="node13" class="node">
<title>process_stderr</title>
<path fill="none" stroke="black" d="M790.1,-443C790.1,-443 688.1,-443 688.1,-443 682.1,-443 676.1,-437 676.1,-431 676.1,-431 676.1,-419 676.1,-419 676.1,-413 682.1,-407 688.1,-407 688.1,-407 790.1,-407 790.1,-407 796.1,-407 802.1,-413 802.1,-419 802.1,-419 802.1,-431 802.1,-431 802.1,-437 796.1,-443 790.1,-443"/>
<text text-anchor="middle" x="739.1" y="-421.3" font-family="Times,serif" font-size="14.00">处理 stderr 输出</text>
</g>
<!-- process_stdout&#45;&gt;process_stderr -->
<g id="edge16" class="edge">
<title>process_stdout&#45;&gt;process_stderr</title>
<path fill="none" stroke="black" d="M647.37,-493.8C664.75,-480.95 688.69,-463.26 707.76,-449.17"/>
<polygon fill="black" stroke="black" points="709.9,-451.93 715.86,-443.18 705.74,-446.3 709.9,-451.93"/>
<text text-anchor="middle" x="718.1" y="-464.8" font-family="Times,serif" font-size="14.00">轮询结束</text>
</g>
<!-- check_tag -->
<g id="node8" class="node">
<title>check_tag</title>
<path fill="none" stroke="black" d="M285.24,-368.14C285.24,-368.14 194.17,-353.86 194.17,-353.86 188.24,-352.93 188.24,-351.07 194.17,-350.14 194.17,-350.14 285.24,-335.86 285.24,-335.86 291.17,-334.93 303.03,-334.93 308.95,-335.86 308.95,-335.86 400.03,-350.14 400.03,-350.14 405.96,-351.07 405.96,-352.93 400.03,-353.86 400.03,-353.86 308.95,-368.14 308.95,-368.14 303.03,-369.07 291.17,-369.07 285.24,-368.14"/>
<text text-anchor="middle" x="297.1" y="-348.3" font-family="Times,serif" font-size="14.00">检查 header.tag</text>
</g>
<!-- read_header&#45;&gt;check_tag -->
<g id="edge7" class="edge">
<title>read_header&#45;&gt;check_tag</title>
<path fill="none" stroke="black" d="M423.34,-406.99C396.77,-395.63 362,-380.76 335.68,-369.5"/>
<polygon fill="black" stroke="black" points="336.97,-366.25 326.4,-365.53 334.22,-372.68 336.97,-366.25"/>
</g>
<!-- handle_zig_version -->
<g id="node9" class="node">
<title>handle_zig_version</title>
<path fill="none" stroke="black" d="M144.6,-283C144.6,-283 63.6,-283 63.6,-283 57.6,-283 51.6,-277 51.6,-271 51.6,-271 51.6,-259 51.6,-259 51.6,-253 57.6,-247 63.6,-247 63.6,-247 144.6,-247 144.6,-247 150.6,-247 156.6,-253 156.6,-259 156.6,-259 156.6,-271 156.6,-271 156.6,-277 150.6,-283 144.6,-283"/>
<text text-anchor="middle" x="104.1" y="-261.3" font-family="Times,serif" font-size="14.00">验证 Zig 版本</text>
</g>
<!-- check_tag&#45;&gt;handle_zig_version -->
<g id="edge8" class="edge">
<title>check_tag&#45;&gt;handle_zig_version</title>
<path fill="none" stroke="black" d="M264.73,-338.93C247.75,-332.43 226.67,-324.1 208.1,-316 187.84,-307.16 165.72,-296.65 147.11,-287.55"/>
<polygon fill="black" stroke="black" points="148.52,-284.35 138,-283.08 145.43,-290.63 148.52,-284.35"/>
<text text-anchor="middle" x="250.6" y="-304.8" font-family="Times,serif" font-size="14.00">.zig_version</text>
</g>
<!-- handle_error_bundle -->
<g id="node10" class="node">
<title>handle_error_bundle</title>
<path fill="none" stroke="black" d="M407.1,-283C407.1,-283 187.1,-283 187.1,-283 181.1,-283 175.1,-277 175.1,-271 175.1,-271 175.1,-259 175.1,-259 175.1,-253 181.1,-247 187.1,-247 187.1,-247 407.1,-247 407.1,-247 413.1,-247 419.1,-253 419.1,-259 419.1,-259 419.1,-271 419.1,-271 419.1,-277 413.1,-283 407.1,-283"/>
<text text-anchor="middle" x="297.1" y="-261.3" font-family="Times,serif" font-size="14.00">记录错误包 (result_error_bundle)</text>
</g>
<!-- check_tag&#45;&gt;handle_error_bundle -->
<g id="edge9" class="edge">
<title>check_tag&#45;&gt;handle_error_bundle</title>
<path fill="none" stroke="black" d="M297.1,-333.8C297.1,-322.16 297.1,-306.55 297.1,-293.24"/>
<polygon fill="black" stroke="black" points="300.6,-293.18 297.1,-283.18 293.6,-293.18 300.6,-293.18"/>
<text text-anchor="middle" x="345.6" y="-304.8" font-family="Times,serif" font-size="14.00">.error_bundle</text>
</g>
<!-- handle_emit_digest -->
<g id="node11" class="node">
<title>handle_emit_digest</title>
<path fill="none" stroke="black" d="M584.6,-283C584.6,-283 449.6,-283 449.6,-283 443.6,-283 437.6,-277 437.6,-271 437.6,-271 437.6,-259 437.6,-259 437.6,-253 443.6,-247 449.6,-247 449.6,-247 584.6,-247 584.6,-247 590.6,-247 596.6,-253 596.6,-259 596.6,-259 596.6,-271 596.6,-271 596.6,-277 590.6,-283 584.6,-283"/>
<text text-anchor="middle" x="517.1" y="-261.3" font-family="Times,serif" font-size="14.00">处理生成摘要 (result)</text>
</g>
<!-- check_tag&#45;&gt;handle_emit_digest -->
<g id="edge10" class="edge">
<title>check_tag&#45;&gt;handle_emit_digest</title>
<path fill="none" stroke="black" d="M332.36,-339.4C351.85,-332.83 376.44,-324.29 398.1,-316 421.62,-307 447.42,-296.26 468.96,-287.05"/>
<polygon fill="black" stroke="black" points="470.42,-290.24 478.23,-283.07 467.66,-283.8 470.42,-290.24"/>
<text text-anchor="middle" x="479.1" y="-304.8" font-family="Times,serif" font-size="14.00">.emit_digest</text>
</g>
<!-- discard_body -->
<g id="node12" class="node">
<title>discard_body</title>
<path fill="none" stroke="black" d="M357.6,-210C357.6,-210 236.6,-210 236.6,-210 230.6,-210 224.6,-204 224.6,-198 224.6,-198 224.6,-186 224.6,-186 224.6,-180 230.6,-174 236.6,-174 236.6,-174 357.6,-174 357.6,-174 363.6,-174 369.6,-180 369.6,-186 369.6,-186 369.6,-198 369.6,-198 369.6,-204 363.6,-210 357.6,-210"/>
<text text-anchor="middle" x="297.1" y="-188.3" font-family="Times,serif" font-size="14.00">丢弃已处理的消息体</text>
</g>
<!-- check_tag&#45;&gt;discard_body -->
<g id="edge11" class="edge">
<title>check_tag&#45;&gt;discard_body</title>
<path fill="none" stroke="black" d="M210.86,-347.52C107.42,-340.2 -45.24,-317.48 13.1,-247 38.24,-216.63 139.49,-203.2 213.96,-197.35"/>
<polygon fill="black" stroke="black" points="214.57,-200.82 224.28,-196.58 214.05,-193.84 214.57,-200.82"/>
<text text-anchor="middle" x="27.6" y="-261.3" font-family="Times,serif" font-size="14.00">其他</text>
</g>
<!-- handle_zig_version&#45;&gt;discard_body -->
<g id="edge12" class="edge">
<title>handle_zig_version&#45;&gt;discard_body</title>
<path fill="none" stroke="black" d="M150.33,-246.99C177.58,-236.97 212.25,-224.21 241.06,-213.62"/>
<polygon fill="black" stroke="black" points="242.4,-216.85 250.58,-210.11 239.99,-210.28 242.4,-216.85"/>
</g>
<!-- handle_error_bundle&#45;&gt;discard_body -->
<g id="edge13" class="edge">
<title>handle_error_bundle&#45;&gt;discard_body</title>
<path fill="none" stroke="black" d="M297.1,-246.81C297.1,-238.79 297.1,-229.05 297.1,-220.07"/>
<polygon fill="black" stroke="black" points="300.6,-220.03 297.1,-210.03 293.6,-220.03 300.6,-220.03"/>
</g>
<!-- handle_emit_digest&#45;&gt;discard_body -->
<g id="edge14" class="edge">
<title>handle_emit_digest&#45;&gt;discard_body</title>
<path fill="none" stroke="black" d="M464.4,-246.99C432.93,-236.84 392.78,-223.88 359.7,-213.2"/>
<polygon fill="black" stroke="black" points="360.72,-209.85 350.13,-210.11 358.57,-216.52 360.72,-209.85"/>
</g>
<!-- discard_body&#45;&gt;process_stdout -->
<g id="edge15" class="edge">
<title>discard_body&#45;&gt;process_stdout</title>
<path fill="none" stroke="black" d="M369.67,-194.36C466.01,-198.17 624.1,-212.3 624.1,-264 624.1,-426 624.1,-426 624.1,-426 624.1,-445.25 624.1,-466.95 624.1,-483.6"/>
<polygon fill="black" stroke="black" points="620.6,-483.74 624.1,-493.74 627.6,-483.74 620.6,-483.74"/>
<text text-anchor="middle" x="653.1" y="-348.3" font-family="Times,serif" font-size="14.00">继续轮询</text>
</g>
<!-- close_stdin -->
<g id="node14" class="node">
<title>close_stdin</title>
<path fill="none" stroke="black" d="M816.1,-370C816.1,-370 712.1,-370 712.1,-370 706.1,-370 700.1,-364 700.1,-358 700.1,-358 700.1,-346 700.1,-346 700.1,-340 706.1,-334 712.1,-334 712.1,-334 816.1,-334 816.1,-334 822.1,-334 828.1,-340 828.1,-346 828.1,-346 828.1,-358 828.1,-358 828.1,-364 822.1,-370 816.1,-370"/>
<text text-anchor="middle" x="764.1" y="-348.3" font-family="Times,serif" font-size="14.00">关闭子进程 stdin</text>
</g>
<!-- process_stderr&#45;&gt;close_stdin -->
<g id="edge17" class="edge">
<title>process_stderr&#45;&gt;close_stdin</title>
<path fill="none" stroke="black" d="M745.15,-406.81C748.04,-398.62 751.56,-388.62 754.77,-379.48"/>
<polygon fill="black" stroke="black" points="758.08,-380.62 758.1,-370.03 751.48,-378.3 758.08,-380.62"/>
</g>
<!-- wait_child -->
<g id="node15" class="node">
<title>wait_child</title>
<path fill="none" stroke="black" d="M858.1,-283C858.1,-283 670.1,-283 670.1,-283 664.1,-283 658.1,-277 658.1,-271 658.1,-271 658.1,-259 658.1,-259 658.1,-253 664.1,-247 670.1,-247 670.1,-247 858.1,-247 858.1,-247 864.1,-247 870.1,-253 870.1,-259 870.1,-259 870.1,-271 870.1,-271 870.1,-277 864.1,-283 858.1,-283"/>
<text text-anchor="middle" x="764.1" y="-261.3" font-family="Times,serif" font-size="14.00">等待子进程结束 (child.wait())</text>
</g>
<!-- close_stdin&#45;&gt;wait_child -->
<g id="edge18" class="edge">
<title>close_stdin&#45;&gt;wait_child</title>
<path fill="none" stroke="black" d="M764.1,-333.8C764.1,-322.16 764.1,-306.55 764.1,-293.24"/>
<polygon fill="black" stroke="black" points="767.6,-293.18 764.1,-283.18 760.6,-293.18 767.6,-293.18"/>
</g>
<!-- check_exit_code -->
<g id="node16" class="node">
<title>check_exit_code</title>
<path fill="none" stroke="black" d="M752.39,-207.39C752.39,-207.39 695.04,-194.61 695.04,-194.61 689.18,-193.31 689.18,-190.69 695.04,-189.39 695.04,-189.39 752.39,-176.61 752.39,-176.61 758.24,-175.31 769.96,-175.31 775.81,-176.61 775.81,-176.61 833.16,-189.39 833.16,-189.39 839.01,-190.69 839.01,-193.31 833.16,-194.61 833.16,-194.61 775.81,-207.39 775.81,-207.39 769.96,-208.69 758.24,-208.69 752.39,-207.39"/>
<text text-anchor="middle" x="764.1" y="-188.3" font-family="Times,serif" font-size="14.00">检查退出码</text>
</g>
<!-- wait_child&#45;&gt;check_exit_code -->
<g id="edge19" class="edge">
<title>wait_child&#45;&gt;check_exit_code</title>
<path fill="none" stroke="black" d="M764.1,-246.81C764.1,-238.79 764.1,-229.05 764.1,-220.07"/>
<polygon fill="black" stroke="black" points="767.6,-220.03 764.1,-210.03 760.6,-220.03 767.6,-220.03"/>
</g>
<!-- check_errors -->
<g id="node17" class="node">
<title>check_errors</title>
<path fill="none" stroke="black" d="M686.39,-120.39C686.39,-120.39 629.04,-107.61 629.04,-107.61 623.18,-106.31 623.18,-103.69 629.04,-102.39 629.04,-102.39 686.39,-89.61 686.39,-89.61 692.24,-88.31 703.96,-88.31 709.81,-89.61 709.81,-89.61 767.16,-102.39 767.16,-102.39 773.01,-103.69 773.01,-106.31 767.16,-107.61 767.16,-107.61 709.81,-120.39 709.81,-120.39 703.96,-121.69 692.24,-121.69 686.39,-120.39"/>
<text text-anchor="middle" x="698.1" y="-101.3" font-family="Times,serif" font-size="14.00">检查错误包</text>
</g>
<!-- check_exit_code&#45;&gt;check_errors -->
<g id="edge20" class="edge">
<title>check_exit_code&#45;&gt;check_errors</title>
<path fill="none" stroke="black" d="M749.18,-176.96C742.98,-170.79 735.89,-163.3 730.1,-156 723.71,-147.93 717.43,-138.55 712.15,-130.11"/>
<polygon fill="black" stroke="black" points="715.05,-128.14 706.86,-121.42 709.08,-131.78 715.05,-128.14"/>
<text text-anchor="middle" x="765.6" y="-144.8" font-family="Times,serif" font-size="14.00">退出码为 0</text>
</g>
<!-- handle_errors -->
<g id="node19" class="node">
<title>handle_errors</title>
<ellipse fill="none" stroke="black" cx="815.1" cy="-18" rx="75.29" ry="18"/>
<text text-anchor="middle" x="815.1" y="-14.3" font-family="Times,serif" font-size="14.00">记录并返回错误</text>
</g>
<!-- check_exit_code&#45;&gt;handle_errors -->
<g id="edge21" class="edge">
<title>check_exit_code&#45;&gt;handle_errors</title>
<path fill="none" stroke="black" d="M782.67,-178.02C789.64,-172.14 796.88,-164.57 801.1,-156 818.33,-121 819.28,-74.97 817.71,-46.18"/>
<polygon fill="black" stroke="black" points="821.19,-45.78 817.01,-36.05 814.21,-46.27 821.19,-45.78"/>
<text text-anchor="middle" x="884.6" y="-101.3" font-family="Times,serif" font-size="14.00">非零退出码/意外终止</text>
</g>
<!-- return_result -->
<g id="node18" class="node">
<title>return_result</title>
<ellipse fill="none" stroke="black" cx="655.1" cy="-18" rx="66.09" ry="18"/>
<text text-anchor="middle" x="655.1" y="-14.3" font-family="Times,serif" font-size="14.00">返回结果路径</text>
</g>
<!-- check_errors&#45;&gt;return_result -->
<g id="edge22" class="edge">
<title>check_errors&#45;&gt;return_result</title>
<path fill="none" stroke="black" d="M679.02,-91.12C671.87,-85.25 664.43,-77.67 660.1,-69 656.62,-62.02 654.96,-53.82 654.27,-46.11"/>
<polygon fill="black" stroke="black" points="657.76,-45.89 653.86,-36.04 650.77,-46.17 657.76,-45.89"/>
<text text-anchor="middle" x="681.6" y="-57.8" font-family="Times,serif" font-size="14.00">无错误</text>
</g>
<!-- check_errors&#45;&gt;handle_errors -->
<g id="edge23" class="edge">
<title>check_errors&#45;&gt;handle_errors</title>
<path fill="none" stroke="black" d="M704.7,-88.19C709.93,-77.31 718.17,-63.22 729.1,-54 737.77,-46.68 748.17,-40.74 758.7,-35.97"/>
<polygon fill="black" stroke="black" points="760.08,-39.19 767.94,-32.08 757.37,-32.74 760.08,-39.19"/>
<text text-anchor="middle" x="765.1" y="-57.8" font-family="Times,serif" font-size="14.00">存在错误包</text>
</g>
</g>
</svg>
