<?xml version="1.0" encoding="UTF-8" standalone="no"?>
<!DOCTYPE svg PUBLIC "-//W3C//DTD SVG 1.1//EN"
 "http://www.w3.org/Graphics/SVG/1.1/DTD/svg11.dtd">
<!-- Generated by graphviz version 2.43.0 (0)
 -->
<!-- Title: getZigArgs Pages: 1 -->
<svg width="754pt" height="1943pt"
 viewBox="0.00 0.00 754.00 1943.00" xmlns="http://www.w3.org/2000/svg" xmlns:xlink="http://www.w3.org/1999/xlink">
<g id="graph0" class="graph" transform="scale(1 1) rotate(0) translate(4 1939)">
<title>getZigArgs</title>
<polygon fill="white" stroke="transparent" points="-4,4 -4,-1939 750,-1939 750,4 -4,4"/>
<g id="clust1" class="cluster">
<title>cluster_loops</title>
<polygon fill="none" stroke="black" points="13,-1180 13,-1332 367,-1332 367,-1180 13,-1180"/>
<text text-anchor="middle" x="190" y="-1316.8" font-family="Arial" font-size="14.00">循环处理</text>
</g>
<g id="clust2" class="cluster">
<title>cluster_conditions</title>
<polygon fill="none" stroke="black" points="8,-1645 8,-1722 738,-1722 738,-1645 8,-1645"/>
<text text-anchor="middle" x="373" y="-1706.8" font-family="Arial" font-size="14.00">条件分支</text>
</g>
<!-- start -->
<g id="node1" class="node">
<title>start</title>
<ellipse fill="none" stroke="black" cx="109" cy="-1917" rx="29.5" ry="18"/>
<text text-anchor="middle" x="109" y="-1913.3" font-family="Arial" font-size="14.00">开始</text>
</g>
<!-- init_args -->
<g id="node3" class="node">
<title>init_args</title>
<path fill="none" stroke="black" d="M157,-1862C157,-1862 61,-1862 61,-1862 55,-1862 49,-1856 49,-1850 49,-1850 49,-1836 49,-1836 49,-1830 55,-1824 61,-1824 61,-1824 157,-1824 157,-1824 163,-1824 169,-1830 169,-1836 169,-1836 169,-1850 169,-1850 169,-1856 163,-1862 157,-1862"/>
<text text-anchor="middle" x="109" y="-1846.8" font-family="Arial" font-size="14.00">初始化参数列表</text>
<text text-anchor="middle" x="109" y="-1831.8" font-family="Arial" font-size="14.00">添加zig_exe路径</text>
</g>
<!-- start&#45;&gt;init_args -->
<g id="edge1" class="edge">
<title>start&#45;&gt;init_args</title>
<path fill="none" stroke="black" d="M109,-1898.94C109,-1890.99 109,-1881.31 109,-1872.31"/>
<polygon fill="black" stroke="black" points="112.5,-1872.2 109,-1862.2 105.5,-1872.2 112.5,-1872.2"/>
</g>
<!-- end -->
<g id="node2" class="node">
<title>end</title>
<ellipse fill="none" stroke="black" cx="496" cy="-1597" rx="66.09" ry="18"/>
<text text-anchor="middle" x="496" y="-1593.3" font-family="Arial" font-size="14.00">返回参数列表</text>
</g>
<!-- add_cmd -->
<g id="node4" class="node">
<title>add_cmd</title>
<path fill="none" stroke="black" d="M193.5,-1787C193.5,-1787 24.5,-1787 24.5,-1787 18.5,-1787 12.5,-1781 12.5,-1775 12.5,-1775 12.5,-1761 12.5,-1761 12.5,-1755 18.5,-1749 24.5,-1749 24.5,-1749 193.5,-1749 193.5,-1749 199.5,-1749 205.5,-1755 205.5,-1761 205.5,-1761 205.5,-1775 205.5,-1775 205.5,-1781 199.5,-1787 193.5,-1787"/>
<text text-anchor="middle" x="109" y="-1771.8" font-family="Arial" font-size="14.00">根据编译类型</text>
<text text-anchor="middle" x="109" y="-1756.8" font-family="Arial" font-size="14.00">添加build&#45;lib/exe/obj/test命令</text>
</g>
<!-- init_args&#45;&gt;add_cmd -->
<g id="edge2" class="edge">
<title>init_args&#45;&gt;add_cmd</title>
<path fill="none" stroke="black" d="M109,-1823.96C109,-1815.88 109,-1806.18 109,-1797.18"/>
<polygon fill="black" stroke="black" points="112.5,-1797.09 109,-1787.09 105.5,-1797.09 112.5,-1797.09"/>
</g>
<!-- handle_flags -->
<g id="node5" class="node">
<title>handle_flags</title>
<path fill="none" stroke="black" d="M190,-1691C190,-1691 28,-1691 28,-1691 22,-1691 16,-1685 16,-1679 16,-1679 16,-1665 16,-1665 16,-1659 22,-1653 28,-1653 28,-1653 190,-1653 190,-1653 196,-1653 202,-1659 202,-1665 202,-1665 202,-1679 202,-1679 202,-1685 196,-1691 190,-1691"/>
<text text-anchor="middle" x="109" y="-1675.8" font-family="Arial" font-size="14.00">处理编译标志</text>
<text text-anchor="middle" x="109" y="-1660.8" font-family="Arial" font-size="14.00">(allow&#45;so&#45;scripts, llvm, lld等)</text>
</g>
<!-- add_cmd&#45;&gt;handle_flags -->
<g id="edge3" class="edge">
<title>add_cmd&#45;&gt;handle_flags</title>
<path fill="none" stroke="black" d="M109,-1748.88C109,-1735.35 109,-1716.62 109,-1701.15"/>
<polygon fill="black" stroke="black" points="112.5,-1701.07 109,-1691.07 105.5,-1701.07 112.5,-1701.07"/>
</g>
<!-- handle_flags&#45;&gt;handle_flags -->
<g id="edge30" class="edge">
<title>handle_flags&#45;&gt;handle_flags</title>
<path fill="none" stroke="black" stroke-dasharray="5,2" d="M202.19,-1677.36C210.67,-1676.25 216,-1674.46 216,-1672 216,-1670.77 214.67,-1669.71 212.27,-1668.81"/>
<polygon fill="black" stroke="black" points="212.7,-1665.32 202.19,-1666.64 211.22,-1672.17 212.7,-1665.32"/>
<text text-anchor="middle" x="305" y="-1668.3" font-family="Arial" font-size="14.00">根据b.reference_trace等标志</text>
</g>
<!-- ofmt_entry -->
<g id="node6" class="node">
<title>ofmt_entry</title>
<path fill="none" stroke="black" d="M166,-1616C166,-1616 52,-1616 52,-1616 46,-1616 40,-1610 40,-1604 40,-1604 40,-1590 40,-1590 40,-1584 46,-1578 52,-1578 52,-1578 166,-1578 166,-1578 172,-1578 178,-1584 178,-1590 178,-1590 178,-1604 178,-1604 178,-1610 172,-1616 166,-1616"/>
<text text-anchor="middle" x="109" y="-1600.8" font-family="Arial" font-size="14.00">设置目标格式(ofmt)</text>
<text text-anchor="middle" x="109" y="-1585.8" font-family="Arial" font-size="14.00">处理入口点(entry)</text>
</g>
<!-- handle_flags&#45;&gt;ofmt_entry -->
<g id="edge4" class="edge">
<title>handle_flags&#45;&gt;ofmt_entry</title>
<path fill="none" stroke="black" d="M109,-1652.96C109,-1644.88 109,-1635.18 109,-1626.18"/>
<polygon fill="black" stroke="black" points="112.5,-1626.09 109,-1616.09 105.5,-1626.09 112.5,-1626.09"/>
</g>
<!-- force_symbols -->
<g id="node7" class="node">
<title>force_symbols</title>
<path fill="none" stroke="black" d="M169.5,-1541C169.5,-1541 48.5,-1541 48.5,-1541 42.5,-1541 36.5,-1535 36.5,-1529 36.5,-1529 36.5,-1517 36.5,-1517 36.5,-1511 42.5,-1505 48.5,-1505 48.5,-1505 169.5,-1505 169.5,-1505 175.5,-1505 181.5,-1511 181.5,-1517 181.5,-1517 181.5,-1529 181.5,-1529 181.5,-1535 175.5,-1541 169.5,-1541"/>
<text text-anchor="middle" x="109" y="-1519.3" font-family="Arial" font-size="14.00">处理强制未定义符号</text>
</g>
<!-- ofmt_entry&#45;&gt;force_symbols -->
<g id="edge5" class="edge">
<title>ofmt_entry&#45;&gt;force_symbols</title>
<path fill="none" stroke="black" d="M109,-1577.83C109,-1569.89 109,-1560.41 109,-1551.63"/>
<polygon fill="black" stroke="black" points="112.5,-1551.42 109,-1541.42 105.5,-1551.42 112.5,-1551.42"/>
</g>
<!-- stack_size -->
<g id="node8" class="node">
<title>stack_size</title>
<path fill="none" stroke="black" d="M143,-1468C143,-1468 79,-1468 79,-1468 73,-1468 67,-1462 67,-1456 67,-1456 67,-1444 67,-1444 67,-1438 73,-1432 79,-1432 79,-1432 143,-1432 143,-1432 149,-1432 155,-1438 155,-1444 155,-1444 155,-1456 155,-1456 155,-1462 149,-1468 143,-1468"/>
<text text-anchor="middle" x="111" y="-1446.3" font-family="Arial" font-size="14.00">设置栈大小</text>
</g>
<!-- force_symbols&#45;&gt;stack_size -->
<g id="edge6" class="edge">
<title>force_symbols&#45;&gt;stack_size</title>
<path fill="none" stroke="black" d="M109.48,-1504.81C109.71,-1496.79 109.98,-1487.05 110.24,-1478.07"/>
<polygon fill="black" stroke="black" points="113.74,-1478.12 110.52,-1468.03 106.74,-1477.93 113.74,-1478.12"/>
</g>
<!-- fuzz_flag -->
<g id="node9" class="node">
<title>fuzz_flag</title>
<path fill="none" stroke="black" d="M178,-1395C178,-1395 58,-1395 58,-1395 52,-1395 46,-1389 46,-1383 46,-1383 46,-1371 46,-1371 46,-1365 52,-1359 58,-1359 58,-1359 178,-1359 178,-1359 184,-1359 190,-1365 190,-1371 190,-1371 190,-1383 190,-1383 190,-1389 184,-1395 178,-1395"/>
<text text-anchor="middle" x="118" y="-1373.3" font-family="Arial" font-size="14.00">添加模糊测试(&#45;ffuzz)</text>
</g>
<!-- stack_size&#45;&gt;fuzz_flag -->
<g id="edge7" class="edge">
<title>stack_size&#45;&gt;fuzz_flag</title>
<path fill="none" stroke="black" d="M112.69,-1431.81C113.49,-1423.79 114.45,-1414.05 115.33,-1405.07"/>
<polygon fill="black" stroke="black" points="118.82,-1405.32 116.32,-1395.03 111.86,-1404.64 118.82,-1405.32"/>
</g>
<!-- system_libs -->
<g id="node10" class="node">
<title>system_libs</title>
<path fill="none" stroke="black" d="M213.5,-1301C213.5,-1301 32.5,-1301 32.5,-1301 26.5,-1301 20.5,-1295 20.5,-1289 20.5,-1289 20.5,-1275 20.5,-1275 20.5,-1269 26.5,-1263 32.5,-1263 32.5,-1263 213.5,-1263 213.5,-1263 219.5,-1263 225.5,-1269 225.5,-1275 225.5,-1275 225.5,-1289 225.5,-1289 225.5,-1295 219.5,-1301 213.5,-1301"/>
<text text-anchor="middle" x="123" y="-1285.8" font-family="Arial" font-size="14.00">遍历系统库和框架依赖</text>
<text text-anchor="middle" x="123" y="-1270.8" font-family="Arial" font-size="14.00">处理静态库/动态库/C源文件等</text>
</g>
<!-- fuzz_flag&#45;&gt;system_libs -->
<g id="edge8" class="edge">
<title>fuzz_flag&#45;&gt;system_libs</title>
<path fill="none" stroke="black" d="M118.92,-1358.94C119.63,-1345.65 120.64,-1326.9 121.48,-1311.36"/>
<polygon fill="black" stroke="black" points="124.98,-1311.39 122.02,-1301.22 117.99,-1311.02 124.98,-1311.39"/>
</g>
<!-- system_libs&#45;&gt;system_libs -->
<g id="edge28" class="edge">
<title>system_libs&#45;&gt;system_libs</title>
<path fill="none" stroke="black" stroke-dasharray="5,2" d="M225.63,-1287.22C234.18,-1286.09 239.5,-1284.36 239.5,-1282 239.5,-1280.82 238.17,-1279.8 235.77,-1278.93"/>
<polygon fill="black" stroke="black" points="236.14,-1275.43 225.63,-1276.78 234.69,-1282.28 236.14,-1275.43"/>
<text text-anchor="middle" x="297" y="-1278.3" font-family="Arial" font-size="14.00">遍历所有依赖模块</text>
</g>
<!-- module_deps -->
<g id="node11" class="node">
<title>module_deps</title>
<path fill="none" stroke="black" d="M181.5,-1226C181.5,-1226 54.5,-1226 54.5,-1226 48.5,-1226 42.5,-1220 42.5,-1214 42.5,-1214 42.5,-1200 42.5,-1200 42.5,-1194 48.5,-1188 54.5,-1188 54.5,-1188 181.5,-1188 181.5,-1188 187.5,-1188 193.5,-1194 193.5,-1200 193.5,-1200 193.5,-1214 193.5,-1214 193.5,-1220 187.5,-1226 181.5,-1226"/>
<text text-anchor="middle" x="118" y="-1210.8" font-family="Arial" font-size="14.00">处理模块依赖</text>
<text text-anchor="middle" x="118" y="-1195.8" font-family="Arial" font-size="14.00">动态库rpath/框架参数</text>
</g>
<!-- system_libs&#45;&gt;module_deps -->
<g id="edge9" class="edge">
<title>system_libs&#45;&gt;module_deps</title>
<path fill="none" stroke="black" d="M121.76,-1262.96C121.21,-1254.88 120.55,-1245.18 119.93,-1236.18"/>
<polygon fill="black" stroke="black" points="123.41,-1235.83 119.24,-1226.09 116.43,-1236.31 123.41,-1235.83"/>
</g>
<!-- module_deps&#45;&gt;module_deps -->
<g id="edge29" class="edge">
<title>module_deps&#45;&gt;module_deps</title>
<path fill="none" stroke="black" stroke-dasharray="5,2" d="M193.74,-1212.68C202.1,-1211.6 207.5,-1209.71 207.5,-1207 207.5,-1205.65 206.15,-1204.5 203.76,-1203.55"/>
<polygon fill="black" stroke="black" points="204.26,-1200.08 193.74,-1201.32 202.74,-1206.91 204.26,-1200.08"/>
<text text-anchor="middle" x="281" y="-1203.3" font-family="Arial" font-size="14.00">遍历模块的import_table</text>
</g>
<!-- linker_flags -->
<g id="node12" class="node">
<title>linker_flags</title>
<path fill="none" stroke="black" d="M175.5,-1151C175.5,-1151 60.5,-1151 60.5,-1151 54.5,-1151 48.5,-1145 48.5,-1139 48.5,-1139 48.5,-1125 48.5,-1125 48.5,-1119 54.5,-1113 60.5,-1113 60.5,-1113 175.5,-1113 175.5,-1113 181.5,-1113 187.5,-1119 187.5,-1125 187.5,-1125 187.5,-1139 187.5,-1139 187.5,-1145 181.5,-1151 175.5,-1151"/>
<text text-anchor="middle" x="118" y="-1135.8" font-family="Arial" font-size="14.00">添加链接器参数</text>
<text text-anchor="middle" x="118" y="-1120.8" font-family="Arial" font-size="14.00">(libc, libcpp, 框架等)</text>
</g>
<!-- module_deps&#45;&gt;linker_flags -->
<g id="edge10" class="edge">
<title>module_deps&#45;&gt;linker_flags</title>
<path fill="none" stroke="black" d="M118,-1187.96C118,-1179.88 118,-1170.18 118,-1161.18"/>
<polygon fill="black" stroke="black" points="121.5,-1161.09 118,-1151.09 114.5,-1161.09 121.5,-1161.09"/>
</g>
<!-- windows_specific -->
<g id="node13" class="node">
<title>windows_specific</title>
<path fill="none" stroke="black" d="M184,-1076C184,-1076 52,-1076 52,-1076 46,-1076 40,-1070 40,-1064 40,-1064 40,-1050 40,-1050 40,-1044 46,-1038 52,-1038 52,-1038 184,-1038 184,-1038 190,-1038 196,-1044 196,-1050 196,-1050 196,-1064 196,-1064 196,-1070 190,-1076 184,-1076"/>
<text text-anchor="middle" x="118" y="-1060.8" font-family="Arial" font-size="14.00">处理Windows选项</text>
<text text-anchor="middle" x="118" y="-1045.8" font-family="Arial" font-size="14.00">(manifest, image&#45;base)</text>
</g>
<!-- linker_flags&#45;&gt;windows_specific -->
<g id="edge11" class="edge">
<title>linker_flags&#45;&gt;windows_specific</title>
<path fill="none" stroke="black" d="M118,-1112.96C118,-1104.88 118,-1095.18 118,-1086.18"/>
<polygon fill="black" stroke="black" points="121.5,-1086.09 118,-1076.09 114.5,-1086.09 121.5,-1086.09"/>
</g>
<!-- test_params -->
<g id="node14" class="node">
<title>test_params</title>
<path fill="none" stroke="black" d="M157,-1001C157,-1001 79,-1001 79,-1001 73,-1001 67,-995 67,-989 67,-989 67,-975 67,-975 67,-969 73,-963 79,-963 79,-963 157,-963 157,-963 163,-963 169,-969 169,-975 169,-975 169,-989 169,-989 169,-995 163,-1001 157,-1001"/>
<text text-anchor="middle" x="118" y="-985.8" font-family="Arial" font-size="14.00">添加测试参数</text>
<text text-anchor="middle" x="118" y="-970.8" font-family="Arial" font-size="14.00">(filter, runner)</text>
</g>
<!-- windows_specific&#45;&gt;test_params -->
<g id="edge12" class="edge">
<title>windows_specific&#45;&gt;test_params</title>
<path fill="none" stroke="black" d="M118,-1037.96C118,-1029.88 118,-1020.18 118,-1011.18"/>
<polygon fill="black" stroke="black" points="121.5,-1011.09 118,-1001.09 114.5,-1011.09 121.5,-1011.09"/>
</g>
<!-- debug_flags -->
<g id="node15" class="node">
<title>debug_flags</title>
<path fill="none" stroke="black" d="M178.5,-926C178.5,-926 57.5,-926 57.5,-926 51.5,-926 45.5,-920 45.5,-914 45.5,-914 45.5,-902 45.5,-902 45.5,-896 51.5,-890 57.5,-890 57.5,-890 178.5,-890 178.5,-890 184.5,-890 190.5,-896 190.5,-902 190.5,-902 190.5,-914 190.5,-914 190.5,-920 184.5,-926 178.5,-926"/>
<text text-anchor="middle" x="118" y="-904.3" font-family="Arial" font-size="14.00">处理调试和日志选项</text>
</g>
<!-- test_params&#45;&gt;debug_flags -->
<g id="edge13" class="edge">
<title>test_params&#45;&gt;debug_flags</title>
<path fill="none" stroke="black" d="M118,-962.83C118,-954.89 118,-945.41 118,-936.63"/>
<polygon fill="black" stroke="black" points="121.5,-936.42 118,-926.42 114.5,-936.42 121.5,-936.42"/>
</g>
<!-- output_files -->
<g id="node16" class="node">
<title>output_files</title>
<path fill="none" stroke="black" d="M171.5,-853C171.5,-853 64.5,-853 64.5,-853 58.5,-853 52.5,-847 52.5,-841 52.5,-841 52.5,-827 52.5,-827 52.5,-821 58.5,-815 64.5,-815 64.5,-815 171.5,-815 171.5,-815 177.5,-815 183.5,-821 183.5,-827 183.5,-827 183.5,-841 183.5,-841 183.5,-847 177.5,-853 171.5,-853"/>
<text text-anchor="middle" x="118" y="-837.8" font-family="Arial" font-size="14.00">设置输出文件选项</text>
<text text-anchor="middle" x="118" y="-822.8" font-family="Arial" font-size="14.00">(asm, docs, bin等)</text>
</g>
<!-- debug_flags&#45;&gt;output_files -->
<g id="edge14" class="edge">
<title>debug_flags&#45;&gt;output_files</title>
<path fill="none" stroke="black" d="M118,-889.94C118,-881.99 118,-872.31 118,-863.31"/>
<polygon fill="black" stroke="black" points="121.5,-863.2 118,-853.2 114.5,-863.2 121.5,-863.2"/>
</g>
<!-- linker_options -->
<g id="node17" class="node">
<title>linker_options</title>
<path fill="none" stroke="black" d="M181,-778C181,-778 55,-778 55,-778 49,-778 43,-772 43,-766 43,-766 43,-752 43,-752 43,-746 49,-740 55,-740 55,-740 181,-740 181,-740 187,-740 193,-746 193,-752 193,-752 193,-766 193,-766 193,-772 187,-778 181,-778"/>
<text text-anchor="middle" x="118" y="-762.8" font-family="Arial" font-size="14.00">处理链接器选项</text>
<text text-anchor="middle" x="118" y="-747.8" font-family="Arial" font-size="14.00">(压缩调试节/GC节等)</text>
</g>
<!-- output_files&#45;&gt;linker_options -->
<g id="edge15" class="edge">
<title>output_files&#45;&gt;linker_options</title>
<path fill="none" stroke="black" d="M118,-814.96C118,-806.88 118,-797.18 118,-788.18"/>
<polygon fill="black" stroke="black" points="121.5,-788.09 118,-778.09 114.5,-788.09 121.5,-788.09"/>
</g>
<!-- libc_cache -->
<g id="node18" class="node">
<title>libc_cache</title>
<path fill="none" stroke="black" d="M188.5,-703C188.5,-703 47.5,-703 47.5,-703 41.5,-703 35.5,-697 35.5,-691 35.5,-691 35.5,-679 35.5,-679 35.5,-673 41.5,-667 47.5,-667 47.5,-667 188.5,-667 188.5,-667 194.5,-667 200.5,-673 200.5,-679 200.5,-679 200.5,-691 200.5,-691 200.5,-697 194.5,-703 188.5,-703"/>
<text text-anchor="middle" x="118" y="-681.3" font-family="Arial" font-size="14.00">处理libc文件和缓存目录</text>
</g>
<!-- linker_options&#45;&gt;libc_cache -->
<g id="edge16" class="edge">
<title>linker_options&#45;&gt;libc_cache</title>
<path fill="none" stroke="black" d="M118,-739.83C118,-731.89 118,-722.41 118,-713.63"/>
<polygon fill="black" stroke="black" points="121.5,-713.42 118,-703.42 114.5,-713.42 121.5,-713.42"/>
</g>
<!-- dynamic_lib -->
<g id="node19" class="node">
<title>dynamic_lib</title>
<path fill="none" stroke="black" d="M180.5,-630C180.5,-630 55.5,-630 55.5,-630 49.5,-630 43.5,-624 43.5,-618 43.5,-618 43.5,-606 43.5,-606 43.5,-600 49.5,-594 55.5,-594 55.5,-594 180.5,-594 180.5,-594 186.5,-594 192.5,-600 192.5,-606 192.5,-606 192.5,-618 192.5,-618 192.5,-624 186.5,-630 180.5,-630"/>
<text text-anchor="middle" x="118" y="-608.3" font-family="Arial" font-size="14.00">动态库版本/安装名称</text>
</g>
<!-- libc_cache&#45;&gt;dynamic_lib -->
<g id="edge17" class="edge">
<title>libc_cache&#45;&gt;dynamic_lib</title>
<path fill="none" stroke="black" d="M118,-666.81C118,-658.79 118,-649.05 118,-640.07"/>
<polygon fill="black" stroke="black" points="121.5,-640.03 118,-630.03 114.5,-640.03 121.5,-640.03"/>
</g>
<!-- macos_flags -->
<g id="node20" class="node">
<title>macos_flags</title>
<path fill="none" stroke="black" d="M185.5,-557C185.5,-557 50.5,-557 50.5,-557 44.5,-557 38.5,-551 38.5,-545 38.5,-545 38.5,-531 38.5,-531 38.5,-525 44.5,-519 50.5,-519 50.5,-519 185.5,-519 185.5,-519 191.5,-519 197.5,-525 197.5,-531 197.5,-531 197.5,-545 197.5,-545 197.5,-551 191.5,-557 185.5,-557"/>
<text text-anchor="middle" x="118" y="-541.8" font-family="Arial" font-size="14.00">处理macOS特有选项</text>
<text text-anchor="middle" x="118" y="-526.8" font-family="Arial" font-size="14.00">(entitlements/pagezero)</text>
</g>
<!-- dynamic_lib&#45;&gt;macos_flags -->
<g id="edge18" class="edge">
<title>dynamic_lib&#45;&gt;macos_flags</title>
<path fill="none" stroke="black" d="M118,-593.94C118,-585.99 118,-576.31 118,-567.31"/>
<polygon fill="black" stroke="black" points="121.5,-567.2 118,-557.2 114.5,-567.2 121.5,-567.2"/>
</g>
<!-- runtime_flags -->
<g id="node21" class="node">
<title>runtime_flags</title>
<path fill="none" stroke="black" d="M178.5,-482C178.5,-482 57.5,-482 57.5,-482 51.5,-482 45.5,-476 45.5,-470 45.5,-470 45.5,-456 45.5,-456 45.5,-450 51.5,-444 57.5,-444 57.5,-444 178.5,-444 178.5,-444 184.5,-444 190.5,-450 190.5,-456 190.5,-456 190.5,-470 190.5,-470 190.5,-476 184.5,-482 178.5,-482"/>
<text text-anchor="middle" x="118" y="-466.8" font-family="Arial" font-size="14.00">添加运行时选项</text>
<text text-anchor="middle" x="118" y="-451.8" font-family="Arial" font-size="14.00">(compiler&#45;rt/ubsan等)</text>
</g>
<!-- macos_flags&#45;&gt;runtime_flags -->
<g id="edge19" class="edge">
<title>macos_flags&#45;&gt;runtime_flags</title>
<path fill="none" stroke="black" d="M118,-518.96C118,-510.88 118,-501.18 118,-492.18"/>
<polygon fill="black" stroke="black" points="121.5,-492.09 118,-482.09 114.5,-492.09 121.5,-492.09"/>
</g>
<!-- wasi_link -->
<g id="node22" class="node">
<title>wasi_link</title>
<path fill="none" stroke="black" d="M175.5,-407C175.5,-407 62.5,-407 62.5,-407 56.5,-407 50.5,-401 50.5,-395 50.5,-395 50.5,-381 50.5,-381 50.5,-375 56.5,-369 62.5,-369 62.5,-369 175.5,-369 175.5,-369 181.5,-369 187.5,-375 187.5,-381 187.5,-381 187.5,-395 187.5,-395 187.5,-401 181.5,-407 175.5,-407"/>
<text text-anchor="middle" x="119" y="-391.8" font-family="Arial" font-size="14.00">处理WASI执行模型</text>
<text text-anchor="middle" x="119" y="-376.8" font-family="Arial" font-size="14.00">链接脚本</text>
</g>
<!-- runtime_flags&#45;&gt;wasi_link -->
<g id="edge20" class="edge">
<title>runtime_flags&#45;&gt;wasi_link</title>
<path fill="none" stroke="black" d="M118.25,-443.96C118.36,-435.88 118.49,-426.18 118.61,-417.18"/>
<polygon fill="black" stroke="black" points="122.11,-417.14 118.75,-407.09 115.12,-417.04 122.11,-417.14"/>
</g>
<!-- test_cmds -->
<g id="node23" class="node">
<title>test_cmds</title>
<path fill="none" stroke="black" d="M176.5,-332C176.5,-332 69.5,-332 69.5,-332 63.5,-332 57.5,-326 57.5,-320 57.5,-320 57.5,-308 57.5,-308 57.5,-302 63.5,-296 69.5,-296 69.5,-296 176.5,-296 176.5,-296 182.5,-296 188.5,-302 188.5,-308 188.5,-308 188.5,-320 188.5,-320 188.5,-326 182.5,-332 176.5,-332"/>
<text text-anchor="middle" x="123" y="-310.3" font-family="Arial" font-size="14.00">处理测试命令参数</text>
</g>
<!-- wasi_link&#45;&gt;test_cmds -->
<g id="edge21" class="edge">
<title>wasi_link&#45;&gt;test_cmds</title>
<path fill="none" stroke="black" d="M120.01,-368.83C120.45,-360.89 120.98,-351.41 121.47,-342.63"/>
<polygon fill="black" stroke="black" points="124.97,-342.6 122.03,-332.42 117.98,-342.21 124.97,-342.6"/>
</g>
<!-- sysroot_search -->
<g id="node24" class="node">
<title>sysroot_search</title>
<path fill="none" stroke="black" d="M186.5,-259C186.5,-259 89.5,-259 89.5,-259 83.5,-259 77.5,-253 77.5,-247 77.5,-247 77.5,-233 77.5,-233 77.5,-227 83.5,-221 89.5,-221 89.5,-221 186.5,-221 186.5,-221 192.5,-221 198.5,-227 198.5,-233 198.5,-233 198.5,-247 198.5,-247 198.5,-253 192.5,-259 186.5,-259"/>
<text text-anchor="middle" x="138" y="-243.8" font-family="Arial" font-size="14.00">处理系统根目录</text>
<text text-anchor="middle" x="138" y="-228.8" font-family="Arial" font-size="14.00">和搜索路径(&#45;I/&#45;L)</text>
</g>
<!-- test_cmds&#45;&gt;sysroot_search -->
<g id="edge22" class="edge">
<title>test_cmds&#45;&gt;sysroot_search</title>
<path fill="none" stroke="black" d="M126.55,-295.94C128.23,-287.9 130.27,-278.1 132.16,-269.02"/>
<polygon fill="black" stroke="black" points="135.6,-269.7 134.21,-259.2 128.74,-268.28 135.6,-269.7"/>
</g>
<!-- build_id -->
<g id="node25" class="node">
<title>build_id</title>
<path fill="none" stroke="black" d="M268.5,-184C268.5,-184 129.5,-184 129.5,-184 123.5,-184 117.5,-178 117.5,-172 117.5,-172 117.5,-160 117.5,-160 117.5,-154 123.5,-148 129.5,-148 129.5,-148 268.5,-148 268.5,-148 274.5,-148 280.5,-154 280.5,-160 280.5,-160 280.5,-172 280.5,-172 280.5,-178 274.5,-184 268.5,-184"/>
<text text-anchor="middle" x="199" y="-162.3" font-family="Arial" font-size="14.00">处理构建ID和Zig库目录</text>
</g>
<!-- sysroot_search&#45;&gt;build_id -->
<g id="edge23" class="edge">
<title>sysroot_search&#45;&gt;build_id</title>
<path fill="none" stroke="black" d="M153.39,-220.83C160.71,-212.2 169.58,-201.73 177.54,-192.33"/>
<polygon fill="black" stroke="black" points="180.45,-194.31 184.24,-184.42 175.11,-189.79 180.45,-194.31"/>
</g>
<!-- pie_lto -->
<g id="node26" class="node">
<title>pie_lto</title>
<path fill="none" stroke="black" d="M356,-111C356,-111 208,-111 208,-111 202,-111 196,-105 196,-99 196,-99 196,-87 196,-87 196,-81 202,-75 208,-75 208,-75 356,-75 356,-75 362,-75 368,-81 368,-87 368,-87 368,-99 368,-99 368,-105 362,-111 356,-111"/>
<text text-anchor="middle" x="282" y="-89.3" font-family="Arial" font-size="14.00">添加PIE/LTO/覆盖率选项</text>
</g>
<!-- build_id&#45;&gt;pie_lto -->
<g id="edge24" class="edge">
<title>build_id&#45;&gt;pie_lto</title>
<path fill="none" stroke="black" d="M219.09,-147.81C229.69,-138.74 242.87,-127.48 254.41,-117.6"/>
<polygon fill="black" stroke="black" points="256.77,-120.19 262.09,-111.03 252.22,-114.87 256.77,-120.19"/>
</g>
<!-- subsystem_error -->
<g id="node27" class="node">
<title>subsystem_error</title>
<path fill="none" stroke="black" d="M382,-38C382,-38 290,-38 290,-38 284,-38 278,-32 278,-26 278,-26 278,-12 278,-12 278,-6 284,0 290,0 290,0 382,0 382,0 388,0 394,-6 394,-12 394,-12 394,-26 394,-26 394,-32 388,-38 382,-38"/>
<text text-anchor="middle" x="336" y="-22.8" font-family="Arial" font-size="14.00">处理子系统选项</text>
<text text-anchor="middle" x="336" y="-7.8" font-family="Arial" font-size="14.00">错误限制</text>
</g>
<!-- pie_lto&#45;&gt;subsystem_error -->
<g id="edge25" class="edge">
<title>pie_lto&#45;&gt;subsystem_error</title>
<path fill="none" stroke="black" d="M294.8,-74.94C301.21,-66.38 309.13,-55.83 316.3,-46.27"/>
<polygon fill="black" stroke="black" points="319.15,-48.3 322.35,-38.2 313.55,-44.1 319.15,-48.3"/>
</g>
<!-- arg_length -->
<g id="node28" class="node">
<title>arg_length</title>
<path fill="none" stroke="black" d="M568,-1691C568,-1691 424,-1691 424,-1691 418,-1691 412,-1685 412,-1679 412,-1679 412,-1665 412,-1665 412,-1659 418,-1653 424,-1653 424,-1653 568,-1653 568,-1653 574,-1653 580,-1659 580,-1665 580,-1665 580,-1679 580,-1679 580,-1685 574,-1691 568,-1691"/>
<text text-anchor="middle" x="496" y="-1675.8" font-family="Arial" font-size="14.00">检查参数长度</text>
<text text-anchor="middle" x="496" y="-1660.8" font-family="Arial" font-size="14.00">生成响应文件(如果需要)</text>
</g>
<!-- subsystem_error&#45;&gt;arg_length -->
<g id="edge26" class="edge">
<title>subsystem_error&#45;&gt;arg_length</title>
<path fill="none" stroke="black" d="M359.84,-38.05C374.31,-51.2 390,-70.44 390,-92 390,-1598 390,-1598 390,-1598 390,-1620.77 406.8,-1636.98 427.02,-1648.25"/>
<polygon fill="black" stroke="black" points="425.69,-1651.49 436.18,-1652.93 428.87,-1645.26 425.69,-1651.49"/>
</g>
<!-- arg_length&#45;&gt;end -->
<g id="edge27" class="edge">
<title>arg_length&#45;&gt;end</title>
<path fill="none" stroke="black" d="M496,-1652.96C496,-1644.7 496,-1634.74 496,-1625.57"/>
<polygon fill="black" stroke="black" points="499.5,-1625.33 496,-1615.33 492.5,-1625.33 499.5,-1625.33"/>
</g>
<!-- arg_length&#45;&gt;arg_length -->
<g id="edge31" class="edge">
<title>arg_length&#45;&gt;arg_length</title>
<path fill="none" stroke="black" stroke-dasharray="5,2" d="M580.33,-1677.5C588.69,-1676.4 594,-1674.57 594,-1672 594,-1670.72 592.67,-1669.62 590.3,-1668.7"/>
<polygon fill="black" stroke="black" points="590.85,-1665.24 580.33,-1666.5 589.34,-1672.07 590.85,-1665.24"/>
<text text-anchor="middle" x="660" y="-1668.3" font-family="Arial" font-size="14.00">args_length &gt;=30KB?</text>
</g>
</g>
</svg>
