<?xml version="1.0" encoding="UTF-8" standalone="no"?>
<!DOCTYPE svg PUBLIC "-//W3C//DTD SVG 1.1//EN"
 "http://www.w3.org/Graphics/SVG/1.1/DTD/svg11.dtd">
<!-- Generated by graphviz version 2.43.0 (0)
 -->
<!-- Title: flowchart Pages: 1 -->
<svg width="346pt" height="1165pt"
 viewBox="0.00 0.00 346.14 1165.00" xmlns="http://www.w3.org/2000/svg" xmlns:xlink="http://www.w3.org/1999/xlink">
<g id="graph0" class="graph" transform="scale(1 1) rotate(0) translate(4 1161)">
<title>flowchart</title>
<polygon fill="white" stroke="transparent" points="-4,4 -4,-1161 342.14,-1161 342.14,4 -4,4"/>
<!-- start -->
<g id="node1" class="node">
<title>start</title>
<ellipse fill="none" stroke="black" cx="112.64" cy="-1139" rx="29.5" ry="18"/>
<text text-anchor="middle" x="112.64" y="-1135.3" font-family="Arial" font-size="14.00">开始</text>
</g>
<!-- check_name -->
<g id="node2" class="node">
<title>check_name</title>
<path fill="none" stroke="black" d="M204.64,-1084C204.64,-1084 20.64,-1084 20.64,-1084 14.64,-1084 8.64,-1078 8.64,-1072 8.64,-1072 8.64,-1060 8.64,-1060 8.64,-1054 14.64,-1048 20.64,-1048 20.64,-1048 204.64,-1048 204.64,-1048 210.64,-1048 216.64,-1054 216.64,-1060 216.64,-1060 216.64,-1072 216.64,-1072 216.64,-1078 210.64,-1084 204.64,-1084"/>
<text text-anchor="middle" x="112.64" y="-1062.3" font-family="Arial" font-size="14.00">检查name是否包含路径分隔符</text>
</g>
<!-- start&#45;&gt;check_name -->
<g id="edge1" class="edge">
<title>start&#45;&gt;check_name</title>
<path fill="none" stroke="black" d="M112.64,-1120.81C112.64,-1112.79 112.64,-1103.05 112.64,-1094.07"/>
<polygon fill="black" stroke="black" points="116.14,-1094.03 112.64,-1084.03 109.14,-1094.03 116.14,-1094.03"/>
</g>
<!-- panic_invalid_name -->
<g id="node3" class="node">
<title>panic_invalid_name</title>
<path fill="none" stroke="black" d="M127.64,-941C127.64,-941 17.64,-941 17.64,-941 11.64,-941 5.64,-935 5.64,-929 5.64,-929 5.64,-917 5.64,-917 5.64,-911 11.64,-905 17.64,-905 17.64,-905 127.64,-905 127.64,-905 133.64,-905 139.64,-911 139.64,-917 139.64,-917 139.64,-929 139.64,-929 139.64,-935 133.64,-941 127.64,-941"/>
<text text-anchor="middle" x="72.64" y="-919.3" font-family="Arial" font-size="14.00">panic: 无效的name</text>
</g>
<!-- check_name&#45;&gt;panic_invalid_name -->
<g id="edge2" class="edge">
<title>check_name&#45;&gt;panic_invalid_name</title>
<path fill="none" stroke="black" d="M97.25,-1047.9C93.18,-1042.51 89.2,-1036.31 86.64,-1030 76.38,-1004.69 73.29,-973.45 72.52,-951.47"/>
<polygon fill="black" stroke="black" points="76.01,-951.11 72.3,-941.19 69.01,-951.26 76.01,-951.11"/>
<text text-anchor="middle" x="112.14" y="-1018.8" font-family="Arial" font-size="14.00">包含/或\</text>
</g>
<!-- adjust_name -->
<g id="node4" class="node">
<title>adjust_name</title>
<path fill="none" stroke="black" d="M245.64,-997C245.64,-997 117.64,-997 117.64,-997 111.64,-997 105.64,-991 105.64,-985 105.64,-985 105.64,-971 105.64,-971 105.64,-965 111.64,-959 117.64,-959 117.64,-959 245.64,-959 245.64,-959 251.64,-959 257.64,-965 257.64,-971 257.64,-971 257.64,-985 257.64,-985 257.64,-991 251.64,-997 245.64,-997"/>
<text text-anchor="middle" x="181.64" y="-981.8" font-family="Arial" font-size="14.00">调整name_adjusted</text>
<text text-anchor="middle" x="181.64" y="-966.8" font-family="Arial" font-size="14.00">（处理test名称重复）</text>
</g>
<!-- check_name&#45;&gt;adjust_name -->
<g id="edge3" class="edge">
<title>check_name&#45;&gt;adjust_name</title>
<path fill="none" stroke="black" d="M126.61,-1047.6C136.32,-1035.48 149.46,-1019.11 160.46,-1005.4"/>
<polygon fill="black" stroke="black" points="163.46,-1007.26 166.99,-997.27 158,-1002.88 163.46,-1007.26"/>
<text text-anchor="middle" x="173.14" y="-1018.8" font-family="Arial" font-size="14.00">不包含</text>
</g>
<!-- end -->
<g id="node16" class="node">
<title>end</title>
<ellipse fill="none" stroke="black" cx="78.64" cy="-18" rx="78.79" ry="18"/>
<text text-anchor="middle" x="78.64" y="-14.3" font-family="Arial" font-size="14.00">返回compile对象</text>
</g>
<!-- panic_invalid_name&#45;&gt;end -->
<g id="edge19" class="edge">
<title>panic_invalid_name&#45;&gt;end</title>
<path fill="none" stroke="black" stroke-dasharray="5,2" d="M70.81,-904.96C69.05,-887.06 66.64,-858.09 66.64,-833 66.64,-833 66.64,-833 66.64,-90 66.64,-75.3 69.17,-59.13 71.91,-45.94"/>
<polygon fill="black" stroke="black" points="75.35,-46.6 74.11,-36.08 68.52,-45.08 75.35,-46.6"/>
</g>
<!-- resolve_target -->
<g id="node5" class="node">
<title>resolve_target</title>
<path fill="none" stroke="black" d="M236.14,-887C236.14,-887 129.14,-887 129.14,-887 123.14,-887 117.14,-881 117.14,-875 117.14,-875 117.14,-863 117.14,-863 117.14,-857 123.14,-851 129.14,-851 129.14,-851 236.14,-851 236.14,-851 242.14,-851 248.14,-857 248.14,-863 248.14,-863 248.14,-875 248.14,-875 248.14,-881 242.14,-887 236.14,-887"/>
<text text-anchor="middle" x="182.64" y="-865.3" font-family="Arial" font-size="14.00">解析目标平台信息</text>
</g>
<!-- adjust_name&#45;&gt;resolve_target -->
<g id="edge4" class="edge">
<title>adjust_name&#45;&gt;resolve_target</title>
<path fill="none" stroke="black" d="M181.81,-958.85C181.97,-941.95 182.21,-916.52 182.39,-897.19"/>
<polygon fill="black" stroke="black" points="185.89,-897.21 182.48,-887.18 178.89,-897.14 185.89,-897.21"/>
</g>
<!-- generate_step_name -->
<g id="node6" class="node">
<title>generate_step_name</title>
<path fill="none" stroke="black" d="M227.14,-814C227.14,-814 138.14,-814 138.14,-814 132.14,-814 126.14,-808 126.14,-802 126.14,-802 126.14,-790 126.14,-790 126.14,-784 132.14,-778 138.14,-778 138.14,-778 227.14,-778 227.14,-778 233.14,-778 239.14,-784 239.14,-790 239.14,-790 239.14,-802 239.14,-802 239.14,-808 233.14,-814 227.14,-814"/>
<text text-anchor="middle" x="182.64" y="-792.3" font-family="Arial" font-size="14.00">生成step_name</text>
</g>
<!-- resolve_target&#45;&gt;generate_step_name -->
<g id="edge5" class="edge">
<title>resolve_target&#45;&gt;generate_step_name</title>
<path fill="none" stroke="black" d="M182.64,-850.81C182.64,-842.79 182.64,-833.05 182.64,-824.07"/>
<polygon fill="black" stroke="black" points="186.14,-824.03 182.64,-814.03 179.14,-824.03 186.14,-824.03"/>
</g>
<!-- generate_out_filename -->
<g id="node7" class="node">
<title>generate_out_filename</title>
<path fill="none" stroke="black" d="M232.14,-741C232.14,-741 133.14,-741 133.14,-741 127.14,-741 121.14,-735 121.14,-729 121.14,-729 121.14,-717 121.14,-717 121.14,-711 127.14,-705 133.14,-705 133.14,-705 232.14,-705 232.14,-705 238.14,-705 244.14,-711 244.14,-717 244.14,-717 244.14,-729 244.14,-729 244.14,-735 238.14,-741 232.14,-741"/>
<text text-anchor="middle" x="182.64" y="-719.3" font-family="Arial" font-size="14.00">生成out_filename</text>
</g>
<!-- generate_step_name&#45;&gt;generate_out_filename -->
<g id="edge6" class="edge">
<title>generate_step_name&#45;&gt;generate_out_filename</title>
<path fill="none" stroke="black" d="M182.64,-777.81C182.64,-769.79 182.64,-760.05 182.64,-751.07"/>
<polygon fill="black" stroke="black" points="186.14,-751.03 182.64,-741.03 179.14,-751.03 186.14,-751.03"/>
</g>
<!-- create_compile -->
<g id="node8" class="node">
<title>create_compile</title>
<path fill="none" stroke="black" d="M260.64,-668C260.64,-668 106.64,-668 106.64,-668 100.64,-668 94.64,-662 94.64,-656 94.64,-656 94.64,-644 94.64,-644 94.64,-638 100.64,-632 106.64,-632 106.64,-632 260.64,-632 260.64,-632 266.64,-632 272.64,-638 272.64,-644 272.64,-644 272.64,-656 272.64,-656 272.64,-662 266.64,-668 260.64,-668"/>
<text text-anchor="middle" x="183.64" y="-646.3" font-family="Arial" font-size="14.00">创建并初始化compile对象</text>
</g>
<!-- generate_out_filename&#45;&gt;create_compile -->
<g id="edge7" class="edge">
<title>generate_out_filename&#45;&gt;create_compile</title>
<path fill="none" stroke="black" d="M182.89,-704.81C183,-696.79 183.14,-687.05 183.26,-678.07"/>
<polygon fill="black" stroke="black" points="186.76,-678.08 183.4,-668.03 179.76,-677.98 186.76,-678.08"/>
</g>
<!-- check_zig_lib -->
<g id="node9" class="node">
<title>check_zig_lib</title>
<path fill="none" stroke="black" d="M235.64,-595C235.64,-595 131.64,-595 131.64,-595 125.64,-595 119.64,-589 119.64,-583 119.64,-583 119.64,-571 119.64,-571 119.64,-565 125.64,-559 131.64,-559 131.64,-559 235.64,-559 235.64,-559 241.64,-559 247.64,-565 247.64,-571 247.64,-571 247.64,-583 247.64,-583 247.64,-589 241.64,-595 235.64,-595"/>
<text text-anchor="middle" x="183.64" y="-573.3" font-family="Arial" font-size="14.00">是否有zig_lib_dir?</text>
</g>
<!-- create_compile&#45;&gt;check_zig_lib -->
<g id="edge8" class="edge">
<title>create_compile&#45;&gt;check_zig_lib</title>
<path fill="none" stroke="black" d="M183.64,-631.81C183.64,-623.79 183.64,-614.05 183.64,-605.07"/>
<polygon fill="black" stroke="black" points="187.14,-605.03 183.64,-595.03 180.14,-605.03 187.14,-605.03"/>
</g>
<!-- add_zig_lib -->
<g id="node10" class="node">
<title>add_zig_lib</title>
<path fill="none" stroke="black" d="M213.64,-508C213.64,-508 131.64,-508 131.64,-508 125.64,-508 119.64,-502 119.64,-496 119.64,-496 119.64,-482 119.64,-482 119.64,-476 125.64,-470 131.64,-470 131.64,-470 213.64,-470 213.64,-470 219.64,-470 225.64,-476 225.64,-482 225.64,-482 225.64,-496 225.64,-496 225.64,-502 219.64,-508 213.64,-508"/>
<text text-anchor="middle" x="172.64" y="-492.8" font-family="Arial" font-size="14.00">设置zig_lib_dir</text>
<text text-anchor="middle" x="172.64" y="-477.8" font-family="Arial" font-size="14.00">并添加依赖</text>
</g>
<!-- check_zig_lib&#45;&gt;add_zig_lib -->
<g id="edge9" class="edge">
<title>check_zig_lib&#45;&gt;add_zig_lib</title>
<path fill="none" stroke="black" d="M181.42,-558.6C179.94,-547.06 177.97,-531.65 176.27,-518.36"/>
<polygon fill="black" stroke="black" points="179.72,-517.74 174.98,-508.27 172.78,-518.63 179.72,-517.74"/>
<text text-anchor="middle" x="186.14" y="-529.8" font-family="Arial" font-size="14.00">是</text>
</g>
<!-- check_test_runner -->
<g id="node11" class="node">
<title>check_test_runner</title>
<path fill="none" stroke="black" d="M306.14,-433C306.14,-433 195.14,-433 195.14,-433 189.14,-433 183.14,-427 183.14,-421 183.14,-421 183.14,-409 183.14,-409 183.14,-403 189.14,-397 195.14,-397 195.14,-397 306.14,-397 306.14,-397 312.14,-397 318.14,-403 318.14,-409 318.14,-409 318.14,-421 318.14,-421 318.14,-427 312.14,-433 306.14,-433"/>
<text text-anchor="middle" x="250.64" y="-411.3" font-family="Arial" font-size="14.00">是否有test_runner?</text>
</g>
<!-- check_zig_lib&#45;&gt;check_test_runner -->
<g id="edge10" class="edge">
<title>check_zig_lib&#45;&gt;check_test_runner</title>
<path fill="none" stroke="black" d="M200.03,-559C211.55,-546.05 226.33,-527.24 234.64,-508 243.55,-487.38 247.51,-462.12 249.26,-443.3"/>
<polygon fill="black" stroke="black" points="252.75,-443.54 250.04,-433.3 245.77,-443 252.75,-443.54"/>
<text text-anchor="middle" x="252.14" y="-485.3" font-family="Arial" font-size="14.00">否</text>
</g>
<!-- add_zig_lib&#45;&gt;check_test_runner -->
<g id="edge11" class="edge">
<title>add_zig_lib&#45;&gt;check_test_runner</title>
<path fill="none" stroke="black" d="M192.33,-469.83C202.13,-460.78 214.12,-449.72 224.66,-439.98"/>
<polygon fill="black" stroke="black" points="227.07,-442.53 232.04,-433.17 222.32,-437.38 227.07,-442.53"/>
</g>
<!-- add_test_runner -->
<g id="node12" class="node">
<title>add_test_runner</title>
<path fill="none" stroke="black" d="M216.14,-346C216.14,-346 127.14,-346 127.14,-346 121.14,-346 115.14,-340 115.14,-334 115.14,-334 115.14,-320 115.14,-320 115.14,-314 121.14,-308 127.14,-308 127.14,-308 216.14,-308 216.14,-308 222.14,-308 228.14,-314 228.14,-320 228.14,-320 228.14,-334 228.14,-334 228.14,-340 222.14,-346 216.14,-346"/>
<text text-anchor="middle" x="171.64" y="-330.8" font-family="Arial" font-size="14.00">设置test_runner</text>
<text text-anchor="middle" x="171.64" y="-315.8" font-family="Arial" font-size="14.00">并添加依赖</text>
</g>
<!-- check_test_runner&#45;&gt;add_test_runner -->
<g id="edge12" class="edge">
<title>check_test_runner&#45;&gt;add_test_runner</title>
<path fill="none" stroke="black" d="M234.66,-396.6C223.42,-384.37 208.21,-367.8 195.54,-354.01"/>
<polygon fill="black" stroke="black" points="197.77,-351.26 188.42,-346.27 192.61,-356 197.77,-351.26"/>
<text text-anchor="middle" x="225.14" y="-367.8" font-family="Arial" font-size="14.00">是</text>
</g>
<!-- check_manifest -->
<g id="node13" class="node">
<title>check_manifest</title>
<path fill="none" stroke="black" d="M326.14,-271C326.14,-271 189.14,-271 189.14,-271 183.14,-271 177.14,-265 177.14,-259 177.14,-259 177.14,-247 177.14,-247 177.14,-241 183.14,-235 189.14,-235 189.14,-235 326.14,-235 326.14,-235 332.14,-235 338.14,-241 338.14,-247 338.14,-247 338.14,-259 338.14,-259 338.14,-265 332.14,-271 326.14,-271"/>
<text text-anchor="middle" x="257.64" y="-249.3" font-family="Arial" font-size="14.00">目标平台是COFF格式?</text>
</g>
<!-- check_test_runner&#45;&gt;check_manifest -->
<g id="edge13" class="edge">
<title>check_test_runner&#45;&gt;check_manifest</title>
<path fill="none" stroke="black" d="M251.39,-396.88C252.6,-369.35 254.97,-315.01 256.42,-281.85"/>
<polygon fill="black" stroke="black" points="259.94,-281.63 256.88,-271.48 252.94,-281.32 259.94,-281.63"/>
<text text-anchor="middle" x="262.14" y="-323.3" font-family="Arial" font-size="14.00">否</text>
</g>
<!-- add_test_runner&#45;&gt;check_manifest -->
<g id="edge14" class="edge">
<title>add_test_runner&#45;&gt;check_manifest</title>
<path fill="none" stroke="black" d="M193.34,-307.83C204.26,-298.69 217.63,-287.5 229.34,-277.7"/>
<polygon fill="black" stroke="black" points="231.71,-280.27 237.13,-271.17 227.22,-274.91 231.71,-280.27"/>
</g>
<!-- add_manifest -->
<g id="node14" class="node">
<title>add_manifest</title>
<path fill="none" stroke="black" d="M222.64,-184C222.64,-184 106.64,-184 106.64,-184 100.64,-184 94.64,-178 94.64,-172 94.64,-172 94.64,-158 94.64,-158 94.64,-152 100.64,-146 106.64,-146 106.64,-146 222.64,-146 222.64,-146 228.64,-146 234.64,-152 234.64,-158 234.64,-158 234.64,-172 234.64,-172 234.64,-178 228.64,-184 222.64,-184"/>
<text text-anchor="middle" x="164.64" y="-168.8" font-family="Arial" font-size="14.00">设置win32_manifest</text>
<text text-anchor="middle" x="164.64" y="-153.8" font-family="Arial" font-size="14.00">并添加依赖</text>
</g>
<!-- check_manifest&#45;&gt;add_manifest -->
<g id="edge15" class="edge">
<title>check_manifest&#45;&gt;add_manifest</title>
<path fill="none" stroke="black" d="M238.82,-234.6C225.35,-222.14 207.01,-205.18 191.94,-191.24"/>
<polygon fill="black" stroke="black" points="194.12,-188.49 184.4,-184.27 189.36,-193.63 194.12,-188.49"/>
<text text-anchor="middle" x="226.14" y="-205.8" font-family="Arial" font-size="14.00">是</text>
</g>
<!-- handle_lib_kind -->
<g id="node15" class="node">
<title>handle_lib_kind</title>
<path fill="none" stroke="black" d="M218.14,-109C218.14,-109 111.14,-109 111.14,-109 105.14,-109 99.14,-103 99.14,-97 99.14,-97 99.14,-85 99.14,-85 99.14,-79 105.14,-73 111.14,-73 111.14,-73 218.14,-73 218.14,-73 224.14,-73 230.14,-79 230.14,-85 230.14,-85 230.14,-97 230.14,-97 230.14,-103 224.14,-109 218.14,-109"/>
<text text-anchor="middle" x="164.64" y="-87.3" font-family="Arial" font-size="14.00">处理库类型文件名</text>
</g>
<!-- check_manifest&#45;&gt;handle_lib_kind -->
<g id="edge16" class="edge">
<title>check_manifest&#45;&gt;handle_lib_kind</title>
<path fill="none" stroke="black" d="M259.46,-234.81C260.95,-212.6 260.56,-173.51 243.64,-146 235.8,-133.24 223.67,-122.76 211.26,-114.55"/>
<polygon fill="black" stroke="black" points="213.01,-111.52 202.67,-109.23 209.33,-117.47 213.01,-111.52"/>
<text text-anchor="middle" x="264.14" y="-161.3" font-family="Arial" font-size="14.00">否</text>
</g>
<!-- add_manifest&#45;&gt;handle_lib_kind -->
<g id="edge17" class="edge">
<title>add_manifest&#45;&gt;handle_lib_kind</title>
<path fill="none" stroke="black" d="M164.64,-145.83C164.64,-137.89 164.64,-128.41 164.64,-119.63"/>
<polygon fill="black" stroke="black" points="168.14,-119.42 164.64,-109.42 161.14,-119.42 168.14,-119.42"/>
</g>
<!-- handle_lib_kind&#45;&gt;end -->
<g id="edge18" class="edge">
<title>handle_lib_kind&#45;&gt;end</title>
<path fill="none" stroke="black" d="M143.82,-72.81C132.68,-63.61 118.79,-52.15 106.7,-42.17"/>
<polygon fill="black" stroke="black" points="108.62,-39.21 98.68,-35.54 104.16,-44.61 108.62,-39.21"/>
</g>
</g>
</svg>
