<?xml version="1.0" encoding="UTF-8" standalone="no"?>
<!DOCTYPE svg PUBLIC "-//W3C//DTD SVG 1.1//EN"
 "http://www.w3.org/Graphics/SVG/1.1/DTD/svg11.dtd">
<!-- Generated by graphviz version 2.43.0 (0)
 -->
<!-- Title: HuffmanEncoderGenerate Pages: 1 -->
<svg width="562pt" height="1604pt"
 viewBox="0.00 0.00 561.50 1604.00" xmlns="http://www.w3.org/2000/svg" xmlns:xlink="http://www.w3.org/1999/xlink">
<g id="graph0" class="graph" transform="scale(1 1) rotate(0) translate(4 1600)">
<title>HuffmanEncoderGenerate</title>
<polygon fill="white" stroke="transparent" points="-4,4 -4,-1600 557.5,-1600 557.5,4 -4,4"/>
<g id="clust1" class="cluster">
<title>cluster_bitCounts</title>
<polygon fill="none" stroke="black" points="263.5,-554 263.5,-1154 545.5,-1154 545.5,-554 263.5,-554"/>
<text text-anchor="middle" x="404.5" y="-1138.8" font-family="Times,serif" font-size="14.00">bitCounts 函数</text>
</g>
<g id="clust2" class="cluster">
<title>cluster_assignEncoding</title>
<polygon fill="none" stroke="black" points="146.5,-8 146.5,-462 488.5,-462 488.5,-8 146.5,-8"/>
<text text-anchor="middle" x="317.5" y="-446.8" font-family="Times,serif" font-size="14.00">assignEncodingAndSize 函数</text>
</g>
<!-- start -->
<g id="node1" class="node">
<title>start</title>
<path fill="none" stroke="black" d="M276,-1596C276,-1596 75,-1596 75,-1596 69,-1596 63,-1590 63,-1584 63,-1584 63,-1572 63,-1572 63,-1566 69,-1560 75,-1560 75,-1560 276,-1560 276,-1560 282,-1560 288,-1566 288,-1572 288,-1572 288,-1584 288,-1584 288,-1590 282,-1596 276,-1596"/>
<text text-anchor="middle" x="175.5" y="-1574.3" font-family="Times,serif" font-size="14.00">开始 generate(freq, max_bits)</text>
</g>
<!-- init_list -->
<g id="node2" class="node">
<title>init_list</title>
<path fill="none" stroke="black" d="M286.5,-1523C286.5,-1523 64.5,-1523 64.5,-1523 58.5,-1523 52.5,-1517 52.5,-1511 52.5,-1511 52.5,-1499 52.5,-1499 52.5,-1493 58.5,-1487 64.5,-1487 64.5,-1487 286.5,-1487 286.5,-1487 292.5,-1487 298.5,-1493 298.5,-1499 298.5,-1499 298.5,-1511 298.5,-1511 298.5,-1517 292.5,-1523 286.5,-1523"/>
<text text-anchor="middle" x="175.5" y="-1501.3" font-family="Times,serif" font-size="14.00">初始化 list 为 freq_cache 的子切片</text>
</g>
<!-- start&#45;&gt;init_list -->
<g id="edge1" class="edge">
<title>start&#45;&gt;init_list</title>
<path fill="none" stroke="black" d="M175.5,-1559.81C175.5,-1551.79 175.5,-1542.05 175.5,-1533.07"/>
<polygon fill="black" stroke="black" points="179,-1533.03 175.5,-1523.03 172,-1533.03 179,-1533.03"/>
</g>
<!-- count_non_zero -->
<g id="node3" class="node">
<title>count_non_zero</title>
<path fill="none" stroke="black" d="M250.5,-1450C250.5,-1450 100.5,-1450 100.5,-1450 94.5,-1450 88.5,-1444 88.5,-1438 88.5,-1438 88.5,-1426 88.5,-1426 88.5,-1420 94.5,-1414 100.5,-1414 100.5,-1414 250.5,-1414 250.5,-1414 256.5,-1414 262.5,-1420 262.5,-1426 262.5,-1426 262.5,-1438 262.5,-1438 262.5,-1444 256.5,-1450 250.5,-1450"/>
<text text-anchor="middle" x="175.5" y="-1428.3" font-family="Times,serif" font-size="14.00">统计非零频率节点 count</text>
</g>
<!-- init_list&#45;&gt;count_non_zero -->
<g id="edge2" class="edge">
<title>init_list&#45;&gt;count_non_zero</title>
<path fill="none" stroke="black" d="M175.5,-1486.81C175.5,-1478.79 175.5,-1469.05 175.5,-1460.07"/>
<polygon fill="black" stroke="black" points="179,-1460.03 175.5,-1450.03 172,-1460.03 179,-1460.03"/>
</g>
<!-- handle_small_cases -->
<g id="node4" class="node">
<title>handle_small_cases</title>
<path fill="none" stroke="black" d="M163.7,-1374.82C163.7,-1374.82 89.94,-1361.18 89.94,-1361.18 84.04,-1360.09 84.04,-1357.91 89.94,-1356.82 89.94,-1356.82 163.7,-1343.18 163.7,-1343.18 169.6,-1342.09 181.4,-1342.09 187.3,-1343.18 187.3,-1343.18 261.06,-1356.82 261.06,-1356.82 266.96,-1357.91 266.96,-1360.09 261.06,-1361.18 261.06,-1361.18 187.3,-1374.82 187.3,-1374.82 181.4,-1375.91 169.6,-1375.91 163.7,-1374.82"/>
<text text-anchor="middle" x="175.5" y="-1355.3" font-family="Times,serif" font-size="14.00">count &lt;= 2?</text>
</g>
<!-- count_non_zero&#45;&gt;handle_small_cases -->
<g id="edge3" class="edge">
<title>count_non_zero&#45;&gt;handle_small_cases</title>
<path fill="none" stroke="black" d="M175.5,-1413.81C175.5,-1405.79 175.5,-1396.05 175.5,-1387.07"/>
<polygon fill="black" stroke="black" points="179,-1387.03 175.5,-1377.03 172,-1387.03 179,-1387.03"/>
</g>
<!-- assign_simple_codes -->
<g id="node5" class="node">
<title>assign_simple_codes</title>
<path fill="none" stroke="black" d="M165,-1290C165,-1290 12,-1290 12,-1290 6,-1290 0,-1284 0,-1278 0,-1278 0,-1266 0,-1266 0,-1260 6,-1254 12,-1254 12,-1254 165,-1254 165,-1254 171,-1254 177,-1260 177,-1266 177,-1266 177,-1278 177,-1278 177,-1284 171,-1290 165,-1290"/>
<text text-anchor="middle" x="88.5" y="-1268.3" font-family="Times,serif" font-size="14.00">为每个节点分配 1 位编码</text>
</g>
<!-- handle_small_cases&#45;&gt;assign_simple_codes -->
<g id="edge4" class="edge">
<title>handle_small_cases&#45;&gt;assign_simple_codes</title>
<path fill="none" stroke="black" d="M160.74,-1343.58C147.74,-1330.88 128.55,-1312.13 113.21,-1297.14"/>
<polygon fill="black" stroke="black" points="115.63,-1294.62 106.03,-1290.13 110.74,-1299.62 115.63,-1294.62"/>
<text text-anchor="middle" x="145" y="-1311.8" font-family="Times,serif" font-size="14.00">是</text>
</g>
<!-- sort_by_freq -->
<g id="node6" class="node">
<title>sort_by_freq</title>
<path fill="none" stroke="black" d="M320,-1290C320,-1290 207,-1290 207,-1290 201,-1290 195,-1284 195,-1278 195,-1278 195,-1266 195,-1266 195,-1260 201,-1254 207,-1254 207,-1254 320,-1254 320,-1254 326,-1254 332,-1260 332,-1266 332,-1266 332,-1278 332,-1278 332,-1284 326,-1290 320,-1290"/>
<text text-anchor="middle" x="263.5" y="-1268.3" font-family="Times,serif" font-size="14.00">按频率排序得到 lfs</text>
</g>
<!-- handle_small_cases&#45;&gt;sort_by_freq -->
<g id="edge5" class="edge">
<title>handle_small_cases&#45;&gt;sort_by_freq</title>
<path fill="none" stroke="black" d="M190.43,-1343.58C203.58,-1330.88 222.99,-1312.13 238.51,-1297.14"/>
<polygon fill="black" stroke="black" points="241,-1299.6 245.76,-1290.13 236.14,-1294.56 241,-1299.6"/>
<text text-anchor="middle" x="232" y="-1311.8" font-family="Times,serif" font-size="14.00">否</text>
</g>
<!-- end -->
<g id="node9" class="node">
<title>end</title>
<path fill="none" stroke="black" d="M126.5,-125C126.5,-125 96.5,-125 96.5,-125 90.5,-125 84.5,-119 84.5,-113 84.5,-113 84.5,-101 84.5,-101 84.5,-95 90.5,-89 96.5,-89 96.5,-89 126.5,-89 126.5,-89 132.5,-89 138.5,-95 138.5,-101 138.5,-101 138.5,-113 138.5,-113 138.5,-119 132.5,-125 126.5,-125"/>
<text text-anchor="middle" x="111.5" y="-103.3" font-family="Times,serif" font-size="14.00">结束</text>
</g>
<!-- assign_simple_codes&#45;&gt;end -->
<g id="edge6" class="edge">
<title>assign_simple_codes&#45;&gt;end</title>
<path fill="none" stroke="black" d="M88.5,-1253.78C88.5,-1239.41 88.5,-1218.37 88.5,-1200 88.5,-1200 88.5,-1200 88.5,-179 88.5,-163.72 93.38,-147.45 98.65,-134.34"/>
<polygon fill="black" stroke="black" points="101.93,-135.58 102.67,-125.01 95.5,-132.8 101.93,-135.58"/>
</g>
<!-- compute_bit_counts -->
<g id="node7" class="node">
<title>compute_bit_counts</title>
<path fill="none" stroke="black" d="M348.5,-1217C348.5,-1217 178.5,-1217 178.5,-1217 172.5,-1217 166.5,-1211 166.5,-1205 166.5,-1205 166.5,-1193 166.5,-1193 166.5,-1187 172.5,-1181 178.5,-1181 178.5,-1181 348.5,-1181 348.5,-1181 354.5,-1181 360.5,-1187 360.5,-1193 360.5,-1193 360.5,-1205 360.5,-1205 360.5,-1211 354.5,-1217 348.5,-1217"/>
<text text-anchor="middle" x="263.5" y="-1195.3" font-family="Times,serif" font-size="14.00">调用 bitCounts 计算位分布</text>
</g>
<!-- sort_by_freq&#45;&gt;compute_bit_counts -->
<g id="edge7" class="edge">
<title>sort_by_freq&#45;&gt;compute_bit_counts</title>
<path fill="none" stroke="black" d="M263.5,-1253.81C263.5,-1245.79 263.5,-1236.05 263.5,-1227.07"/>
<polygon fill="black" stroke="black" points="267,-1227.03 263.5,-1217.03 260,-1227.03 267,-1227.03"/>
</g>
<!-- assign_encoding -->
<g id="node8" class="node">
<title>assign_encoding</title>
<path fill="none" stroke="black" d="M400,-525C400,-525 143,-525 143,-525 137,-525 131,-519 131,-513 131,-513 131,-501 131,-501 131,-495 137,-489 143,-489 143,-489 400,-489 400,-489 406,-489 412,-495 412,-501 412,-501 412,-513 412,-513 412,-519 406,-525 400,-525"/>
<text text-anchor="middle" x="271.5" y="-503.3" font-family="Times,serif" font-size="14.00">调用 assignEncodingAndSize 分配编码</text>
</g>
<!-- compute_bit_counts&#45;&gt;assign_encoding -->
<g id="edge8" class="edge">
<title>compute_bit_counts&#45;&gt;assign_encoding</title>
<path fill="none" stroke="black" d="M257.5,-1180.95C251.61,-1162.66 243.5,-1132.64 243.5,-1106 243.5,-1106 243.5,-1106 243.5,-579 243.5,-563.33 249.48,-546.98 255.91,-533.93"/>
<polygon fill="black" stroke="black" points="259.02,-535.54 260.59,-525.06 252.83,-532.27 259.02,-535.54"/>
</g>
<!-- bc_start -->
<g id="node10" class="node">
<title>bc_start</title>
<path fill="none" stroke="black" d="M493.5,-1123C493.5,-1123 293.5,-1123 293.5,-1123 287.5,-1123 281.5,-1117 281.5,-1111 281.5,-1111 281.5,-1099 281.5,-1099 281.5,-1093 287.5,-1087 293.5,-1087 293.5,-1087 493.5,-1087 493.5,-1087 499.5,-1087 505.5,-1093 505.5,-1099 505.5,-1099 505.5,-1111 505.5,-1111 505.5,-1117 499.5,-1123 493.5,-1123"/>
<text text-anchor="middle" x="393.5" y="-1101.3" font-family="Times,serif" font-size="14.00">开始 bitCounts(list, max_bits)</text>
</g>
<!-- compute_bit_counts&#45;&gt;bc_start -->
<g id="edge18" class="edge">
<title>compute_bit_counts&#45;&gt;bc_start</title>
<path fill="none" stroke="black" d="M287.65,-1180.91C308.22,-1166.35 337.98,-1145.29 360.71,-1129.21"/>
<polygon fill="black" stroke="black" points="362.9,-1131.94 369.04,-1123.31 358.86,-1126.23 362.9,-1131.94"/>
</g>
<!-- assign_encoding&#45;&gt;end -->
<g id="edge9" class="edge">
<title>assign_encoding&#45;&gt;end</title>
<path fill="none" stroke="black" d="M185.31,-488.95C169.53,-482.61 154.34,-473.92 142.5,-462 126.65,-446.04 126.5,-436.49 126.5,-414 126.5,-414 126.5,-414 126.5,-179 126.5,-164.19 123.34,-148.01 119.91,-134.84"/>
<polygon fill="black" stroke="black" points="123.23,-133.7 117.17,-125 116.49,-135.58 123.23,-133.7"/>
</g>
<!-- ae_start -->
<g id="node18" class="node">
<title>ae_start</title>
<path fill="none" stroke="black" d="M469,-431C469,-431 166,-431 166,-431 160,-431 154,-425 154,-419 154,-419 154,-407 154,-407 154,-401 160,-395 166,-395 166,-395 469,-395 469,-395 475,-395 481,-401 481,-407 481,-407 481,-419 481,-419 481,-425 475,-431 469,-431"/>
<text text-anchor="middle" x="317.5" y="-409.3" font-family="Times,serif" font-size="14.00">开始 assignEncodingAndSize(bit_count, list)</text>
</g>
<!-- assign_encoding&#45;&gt;ae_start -->
<g id="edge27" class="edge">
<title>assign_encoding&#45;&gt;ae_start</title>
<path fill="none" stroke="black" d="M280.15,-488.7C286.96,-475.07 296.57,-455.86 304.33,-440.34"/>
<polygon fill="black" stroke="black" points="307.54,-441.74 308.89,-431.23 301.28,-438.61 307.54,-441.74"/>
</g>
<!-- validate_max_bits -->
<g id="node11" class="node">
<title>validate_max_bits</title>
<path fill="none" stroke="black" d="M463.5,-1050C463.5,-1050 335.5,-1050 335.5,-1050 329.5,-1050 323.5,-1044 323.5,-1038 323.5,-1038 323.5,-1026 323.5,-1026 323.5,-1020 329.5,-1014 335.5,-1014 335.5,-1014 463.5,-1014 463.5,-1014 469.5,-1014 475.5,-1020 475.5,-1026 475.5,-1026 475.5,-1038 475.5,-1038 475.5,-1044 469.5,-1050 463.5,-1050"/>
<text text-anchor="middle" x="399.5" y="-1028.3" font-family="Times,serif" font-size="14.00">断言 max_bits &lt; 16</text>
</g>
<!-- bc_start&#45;&gt;validate_max_bits -->
<g id="edge10" class="edge">
<title>bc_start&#45;&gt;validate_max_bits</title>
<path fill="none" stroke="black" d="M394.95,-1086.81C395.63,-1078.79 396.45,-1069.05 397.21,-1060.07"/>
<polygon fill="black" stroke="black" points="400.71,-1060.29 398.06,-1050.03 393.73,-1059.7 400.71,-1060.29"/>
</g>
<!-- init_levels -->
<g id="node12" class="node">
<title>init_levels</title>
<path fill="none" stroke="black" d="M523.5,-977C523.5,-977 283.5,-977 283.5,-977 277.5,-977 271.5,-971 271.5,-965 271.5,-965 271.5,-953 271.5,-953 271.5,-947 277.5,-941 283.5,-941 283.5,-941 523.5,-941 523.5,-941 529.5,-941 535.5,-947 535.5,-953 535.5,-953 535.5,-965 535.5,-965 535.5,-971 529.5,-977 523.5,-977"/>
<text text-anchor="middle" x="403.5" y="-955.3" font-family="Times,serif" font-size="14.00">初始化层级信息 levels 和 leaf_counts</text>
</g>
<!-- validate_max_bits&#45;&gt;init_levels -->
<g id="edge11" class="edge">
<title>validate_max_bits&#45;&gt;init_levels</title>
<path fill="none" stroke="black" d="M400.47,-1013.81C400.92,-1005.79 401.47,-996.05 401.97,-987.07"/>
<polygon fill="black" stroke="black" points="405.47,-987.21 402.54,-977.03 398.48,-986.82 405.47,-987.21"/>
</g>
<!-- process_levels -->
<g id="node13" class="node">
<title>process_levels</title>
<path fill="none" stroke="black" d="M457,-904C457,-904 350,-904 350,-904 344,-904 338,-898 338,-892 338,-892 338,-880 338,-880 338,-874 344,-868 350,-868 350,-868 457,-868 457,-868 463,-868 469,-874 469,-880 469,-880 469,-892 469,-892 469,-898 463,-904 457,-904"/>
<text text-anchor="middle" x="403.5" y="-882.3" font-family="Times,serif" font-size="14.00">循环处理每个层级</text>
</g>
<!-- init_levels&#45;&gt;process_levels -->
<g id="edge12" class="edge">
<title>init_levels&#45;&gt;process_levels</title>
<path fill="none" stroke="black" d="M403.5,-940.81C403.5,-932.79 403.5,-923.05 403.5,-914.07"/>
<polygon fill="black" stroke="black" points="407,-914.03 403.5,-904.03 400,-914.03 407,-914.03"/>
</g>
<!-- update_leaf_counts -->
<g id="node14" class="node">
<title>update_leaf_counts</title>
<path fill="none" stroke="black" d="M461.5,-831C461.5,-831 297.5,-831 297.5,-831 291.5,-831 285.5,-825 285.5,-819 285.5,-819 285.5,-807 285.5,-807 285.5,-801 291.5,-795 297.5,-795 297.5,-795 461.5,-795 461.5,-795 467.5,-795 473.5,-801 473.5,-807 473.5,-807 473.5,-819 473.5,-819 473.5,-825 467.5,-831 461.5,-831"/>
<text text-anchor="middle" x="379.5" y="-809.3" font-family="Times,serif" font-size="14.00">更新层级频率和叶节点计数</text>
</g>
<!-- process_levels&#45;&gt;update_leaf_counts -->
<g id="edge13" class="edge">
<title>process_levels&#45;&gt;update_leaf_counts</title>
<path fill="none" stroke="black" d="M397.69,-867.81C394.95,-859.7 391.61,-849.84 388.55,-840.78"/>
<polygon fill="black" stroke="black" points="391.77,-839.38 385.26,-831.03 385.14,-841.62 391.77,-839.38"/>
</g>
<!-- check_completion -->
<g id="node15" class="node">
<title>check_completion</title>
<path fill="none" stroke="black" d="M392.61,-756.39C392.61,-756.39 283.34,-741.61 283.34,-741.61 277.39,-740.8 277.39,-739.2 283.34,-738.39 283.34,-738.39 392.61,-723.61 392.61,-723.61 398.55,-722.8 410.45,-722.8 416.39,-723.61 416.39,-723.61 525.66,-738.39 525.66,-738.39 531.61,-739.2 531.61,-740.8 525.66,-741.61 525.66,-741.61 416.39,-756.39 416.39,-756.39 410.45,-757.2 398.55,-757.2 392.61,-756.39"/>
<text text-anchor="middle" x="404.5" y="-736.3" font-family="Times,serif" font-size="14.00">完成所有层级处理？</text>
</g>
<!-- update_leaf_counts&#45;&gt;check_completion -->
<g id="edge14" class="edge">
<title>update_leaf_counts&#45;&gt;check_completion</title>
<path fill="none" stroke="black" d="M385.55,-794.81C388.48,-786.49 392.06,-776.33 395.32,-767.08"/>
<polygon fill="black" stroke="black" points="398.66,-768.13 398.68,-757.54 392.05,-765.81 398.66,-768.13"/>
</g>
<!-- check_completion&#45;&gt;process_levels -->
<g id="edge15" class="edge">
<title>check_completion&#45;&gt;process_levels</title>
<path fill="none" stroke="black" d="M435.76,-753.79C452.91,-762.62 472.64,-776.18 482.5,-795 489.93,-809.17 489.97,-816.85 482.5,-831 475.7,-843.89 464.28,-854.28 452.22,-862.38"/>
<polygon fill="black" stroke="black" points="450.02,-859.63 443.37,-867.87 453.71,-865.57 450.02,-859.63"/>
<text text-anchor="middle" x="495" y="-809.3" font-family="Times,serif" font-size="14.00">否</text>
</g>
<!-- calculate_bit_count -->
<g id="node16" class="node">
<title>calculate_bit_count</title>
<path fill="none" stroke="black" d="M465.5,-671C465.5,-671 303.5,-671 303.5,-671 297.5,-671 291.5,-665 291.5,-659 291.5,-659 291.5,-647 291.5,-647 291.5,-641 297.5,-635 303.5,-635 303.5,-635 465.5,-635 465.5,-635 471.5,-635 477.5,-641 477.5,-647 477.5,-647 477.5,-659 477.5,-659 477.5,-665 471.5,-671 465.5,-671"/>
<text text-anchor="middle" x="384.5" y="-649.3" font-family="Times,serif" font-size="14.00">计算最终位分布 bit_count</text>
</g>
<!-- check_completion&#45;&gt;calculate_bit_count -->
<g id="edge16" class="edge">
<title>check_completion&#45;&gt;calculate_bit_count</title>
<path fill="none" stroke="black" d="M400.55,-722.21C397.77,-710.41 394,-694.38 390.81,-680.82"/>
<polygon fill="black" stroke="black" points="394.21,-679.98 388.51,-671.05 387.4,-681.59 394.21,-679.98"/>
<text text-anchor="middle" x="403" y="-692.8" font-family="Times,serif" font-size="14.00">是</text>
</g>
<!-- bc_end -->
<g id="node17" class="node">
<title>bc_end</title>
<path fill="none" stroke="black" d="M402,-598C402,-598 311,-598 311,-598 305,-598 299,-592 299,-586 299,-586 299,-574 299,-574 299,-568 305,-562 311,-562 311,-562 402,-562 402,-562 408,-562 414,-568 414,-574 414,-574 414,-586 414,-586 414,-592 408,-598 402,-598"/>
<text text-anchor="middle" x="356.5" y="-576.3" font-family="Times,serif" font-size="14.00">返回 bit_count</text>
</g>
<!-- calculate_bit_count&#45;&gt;bc_end -->
<g id="edge17" class="edge">
<title>calculate_bit_count&#45;&gt;bc_end</title>
<path fill="none" stroke="black" d="M377.72,-634.81C374.49,-626.62 370.55,-616.62 366.94,-607.48"/>
<polygon fill="black" stroke="black" points="370.14,-606.05 363.22,-598.03 363.63,-608.62 370.14,-606.05"/>
</g>
<!-- bc_end&#45;&gt;assign_encoding -->
<g id="edge19" class="edge">
<title>bc_end&#45;&gt;assign_encoding</title>
<path fill="none" stroke="black" d="M335.92,-561.81C325.07,-552.74 311.58,-541.48 299.75,-531.6"/>
<polygon fill="black" stroke="black" points="301.81,-528.75 291.89,-525.03 297.32,-534.13 301.81,-528.75"/>
</g>
<!-- init_code -->
<g id="node19" class="node">
<title>init_code</title>
<path fill="none" stroke="black" d="M367.5,-358C367.5,-358 265.5,-358 265.5,-358 259.5,-358 253.5,-352 253.5,-346 253.5,-346 253.5,-334 253.5,-334 253.5,-328 259.5,-322 265.5,-322 265.5,-322 367.5,-322 367.5,-322 373.5,-322 379.5,-328 379.5,-334 379.5,-334 379.5,-346 379.5,-346 379.5,-352 373.5,-358 367.5,-358"/>
<text text-anchor="middle" x="316.5" y="-336.3" font-family="Times,serif" font-size="14.00">初始化 code = 0</text>
</g>
<!-- ae_start&#45;&gt;init_code -->
<g id="edge20" class="edge">
<title>ae_start&#45;&gt;init_code</title>
<path fill="none" stroke="black" d="M317.26,-394.81C317.14,-386.79 317.01,-377.05 316.88,-368.07"/>
<polygon fill="black" stroke="black" points="320.38,-367.98 316.74,-358.03 313.38,-368.08 320.38,-367.98"/>
</g>
<!-- loop_bits -->
<g id="node20" class="node">
<title>loop_bits</title>
<path fill="none" stroke="black" d="M357,-285C357,-285 266,-285 266,-285 260,-285 254,-279 254,-273 254,-273 254,-261 254,-261 254,-255 260,-249 266,-249 266,-249 357,-249 357,-249 363,-249 369,-255 369,-261 369,-261 369,-273 369,-273 369,-279 363,-285 357,-285"/>
<text text-anchor="middle" x="311.5" y="-263.3" font-family="Times,serif" font-size="14.00">遍历每个位长 n</text>
</g>
<!-- init_code&#45;&gt;loop_bits -->
<g id="edge21" class="edge">
<title>init_code&#45;&gt;loop_bits</title>
<path fill="none" stroke="black" d="M315.29,-321.81C314.72,-313.79 314.04,-304.05 313.41,-295.07"/>
<polygon fill="black" stroke="black" points="316.89,-294.76 312.7,-285.03 309.91,-295.25 316.89,-294.76"/>
</g>
<!-- reverse_code -->
<g id="node21" class="node">
<title>reverse_code</title>
<path fill="none" stroke="black" d="M363,-198C363,-198 256,-198 256,-198 250,-198 244,-192 244,-186 244,-186 244,-174 244,-174 244,-168 250,-162 256,-162 256,-162 363,-162 363,-162 369,-162 375,-168 375,-174 375,-174 375,-186 375,-186 375,-192 369,-198 363,-198"/>
<text text-anchor="middle" x="309.5" y="-176.3" font-family="Times,serif" font-size="14.00">反转位序生成编码</text>
</g>
<!-- loop_bits&#45;&gt;reverse_code -->
<g id="edge22" class="edge">
<title>loop_bits&#45;&gt;reverse_code</title>
<path fill="none" stroke="black" d="M310.98,-248.91C310.82,-243.21 310.64,-236.83 310.5,-231 310.32,-223.65 310.15,-215.7 310,-208.34"/>
<polygon fill="black" stroke="black" points="313.5,-208.06 309.81,-198.13 306.5,-208.19 313.5,-208.06"/>
<text text-anchor="middle" x="353.5" y="-219.8" font-family="Times,serif" font-size="14.00">处理每个位长</text>
</g>
<!-- ae_end -->
<g id="node24" class="node">
<title>ae_end</title>
<path fill="none" stroke="black" d="M207.5,-198C207.5,-198 177.5,-198 177.5,-198 171.5,-198 165.5,-192 165.5,-186 165.5,-186 165.5,-174 165.5,-174 165.5,-168 171.5,-162 177.5,-162 177.5,-162 207.5,-162 207.5,-162 213.5,-162 219.5,-168 219.5,-174 219.5,-174 219.5,-186 219.5,-186 219.5,-192 213.5,-198 207.5,-198"/>
<text text-anchor="middle" x="192.5" y="-176.3" font-family="Times,serif" font-size="14.00">结束</text>
</g>
<!-- loop_bits&#45;&gt;ae_end -->
<g id="edge26" class="edge">
<title>loop_bits&#45;&gt;ae_end</title>
<path fill="none" stroke="black" d="M253.98,-251.31C241.66,-246.29 229.4,-239.67 219.5,-231 212.28,-224.67 206.64,-215.92 202.43,-207.51"/>
<polygon fill="black" stroke="black" points="205.58,-205.98 198.28,-198.31 199.2,-208.86 205.58,-205.98"/>
<text text-anchor="middle" x="262.5" y="-219.8" font-family="Times,serif" font-size="14.00">完成所有位长</text>
</g>
<!-- sort_by_literal -->
<g id="node22" class="node">
<title>sort_by_literal</title>
<path fill="none" stroke="black" d="M370,-125C370,-125 249,-125 249,-125 243,-125 237,-119 237,-113 237,-113 237,-101 237,-101 237,-95 243,-89 249,-89 249,-89 370,-89 370,-89 376,-89 382,-95 382,-101 382,-101 382,-113 382,-113 382,-119 376,-125 370,-125"/>
<text text-anchor="middle" x="309.5" y="-103.3" font-family="Times,serif" font-size="14.00">按字面值排序当前块</text>
</g>
<!-- reverse_code&#45;&gt;sort_by_literal -->
<g id="edge23" class="edge">
<title>reverse_code&#45;&gt;sort_by_literal</title>
<path fill="none" stroke="black" d="M309.5,-161.81C309.5,-153.79 309.5,-144.05 309.5,-135.07"/>
<polygon fill="black" stroke="black" points="313,-135.03 309.5,-125.03 306,-135.03 313,-135.03"/>
</g>
<!-- assign_codes -->
<g id="node23" class="node">
<title>assign_codes</title>
<path fill="none" stroke="black" d="M416,-52C416,-52 295,-52 295,-52 289,-52 283,-46 283,-40 283,-40 283,-28 283,-28 283,-22 289,-16 295,-16 295,-16 416,-16 416,-16 422,-16 428,-22 428,-28 428,-28 428,-40 428,-40 428,-46 422,-52 416,-52"/>
<text text-anchor="middle" x="355.5" y="-30.3" font-family="Times,serif" font-size="14.00">分配编码给每个节点</text>
</g>
<!-- sort_by_literal&#45;&gt;assign_codes -->
<g id="edge24" class="edge">
<title>sort_by_literal&#45;&gt;assign_codes</title>
<path fill="none" stroke="black" d="M320.64,-88.81C326.12,-80.35 332.83,-69.98 338.91,-60.61"/>
<polygon fill="black" stroke="black" points="341.97,-62.32 344.47,-52.03 336.09,-58.52 341.97,-62.32"/>
</g>
<!-- assign_codes&#45;&gt;loop_bits -->
<g id="edge25" class="edge">
<title>assign_codes&#45;&gt;loop_bits</title>
<path fill="none" stroke="black" d="M370.53,-52.19C378.33,-62.2 387.12,-75.5 391.5,-89 441.95,-244.54 402.86,-221.5 396.5,-231 391.78,-238.05 385.35,-243.69 378.12,-248.18"/>
<polygon fill="black" stroke="black" points="376.45,-245.11 369.33,-252.96 379.79,-251.26 376.45,-245.11"/>
</g>
<!-- ae_end&#45;&gt;end -->
<g id="edge28" class="edge">
<title>ae_end&#45;&gt;end</title>
<path fill="none" stroke="black" d="M172.89,-161.81C162.64,-152.83 149.94,-141.69 138.75,-131.89"/>
<polygon fill="black" stroke="black" points="140.75,-128.99 130.93,-125.03 136.14,-134.25 140.75,-128.99"/>
</g>
</g>
</svg>
