<?xml version="1.0" encoding="UTF-8" standalone="no"?>
<!DOCTYPE svg PUBLIC "-//W3C//DTD SVG 1.1//EN"
 "http://www.w3.org/Graphics/SVG/1.1/DTD/svg11.dtd">
<!-- Generated by graphviz version 2.43.0 (0)
 -->
<!-- Title: DeflateFlow Pages: 1 -->
<svg width="634pt" height="392pt"
 viewBox="0.00 0.00 633.50 392.00" xmlns="http://www.w3.org/2000/svg" xmlns:xlink="http://www.w3.org/1999/xlink">
<g id="graph0" class="graph" transform="scale(1 1) rotate(0) translate(4 388)">
<title>DeflateFlow</title>
<polygon fill="white" stroke="transparent" points="-4,4 -4,-388 629.5,-388 629.5,4 -4,4"/>
<!-- compress -->
<g id="node1" class="node">
<title>compress</title>
<path fill="none" stroke="black" d="M128.5,-297C128.5,-297 57.5,-297 57.5,-297 51.5,-297 45.5,-291 45.5,-285 45.5,-285 45.5,-273 45.5,-273 45.5,-267 51.5,-261 57.5,-261 57.5,-261 128.5,-261 128.5,-261 134.5,-261 140.5,-267 140.5,-273 140.5,-273 140.5,-285 140.5,-285 140.5,-291 134.5,-297 128.5,-297"/>
<text text-anchor="middle" x="93" y="-275.3" font-family="Times,serif" font-size="14.00">compress()</text>
</g>
<!-- tokenize -->
<g id="node2" class="node">
<title>tokenize</title>
<path fill="none" stroke="black" d="M327,-210C327,-210 199,-210 199,-210 193,-210 187,-204 187,-198 187,-198 187,-186 187,-186 187,-180 193,-174 199,-174 199,-174 327,-174 327,-174 333,-174 339,-180 339,-186 339,-186 339,-198 339,-198 339,-204 333,-210 327,-210"/>
<text text-anchor="middle" x="263" y="-188.3" font-family="Times,serif" font-size="14.00">tokenize(flush_opt)</text>
</g>
<!-- compress&#45;&gt;tokenize -->
<g id="edge2" class="edge">
<title>compress&#45;&gt;tokenize</title>
<path fill="none" stroke="black" d="M140.52,-268.56C162.03,-263.05 187.22,-254.8 208,-243 219.75,-236.33 231.08,-226.75 240.38,-217.76"/>
<polygon fill="black" stroke="black" points="243.11,-219.98 247.68,-210.42 238.14,-215.05 243.11,-219.98"/>
<text text-anchor="middle" x="296.5" y="-231.8" font-family="Times,serif" font-size="14.00">调用tokenize(.none)</text>
</g>
<!-- slide -->
<g id="node7" class="node">
<title>slide</title>
<path fill="none" stroke="black" d="M151.5,-210C151.5,-210 114.5,-210 114.5,-210 108.5,-210 102.5,-204 102.5,-198 102.5,-198 102.5,-186 102.5,-186 102.5,-180 108.5,-174 114.5,-174 114.5,-174 151.5,-174 151.5,-174 157.5,-174 163.5,-180 163.5,-186 163.5,-186 163.5,-198 163.5,-198 163.5,-204 157.5,-210 151.5,-210"/>
<text text-anchor="middle" x="133" y="-188.3" font-family="Times,serif" font-size="14.00">slide()</text>
</g>
<!-- compress&#45;&gt;slide -->
<g id="edge8" class="edge">
<title>compress&#45;&gt;slide</title>
<path fill="none" stroke="black" d="M65.77,-260.8C54.46,-251.43 45.52,-239.44 53,-228 55.56,-224.09 74.18,-215.84 92.81,-208.33"/>
<polygon fill="black" stroke="black" points="94.17,-211.56 102.18,-204.61 91.59,-205.05 94.17,-211.56"/>
<text text-anchor="middle" x="82" y="-231.8" font-family="Times,serif" font-size="14.00">窗口滑动</text>
</g>
<!-- tokenize&#45;&gt;tokenize -->
<g id="edge14" class="edge">
<title>tokenize&#45;&gt;tokenize</title>
<path fill="none" stroke="black" stroke-dasharray="5,2" d="M339.35,-199.03C349.93,-197.87 357,-195.53 357,-192 357,-189.74 354.1,-187.97 349.23,-186.68"/>
<polygon fill="black" stroke="black" points="349.8,-183.23 339.35,-184.97 348.61,-190.12 349.8,-183.23"/>
<text text-anchor="middle" x="414.5" y="-188.3" font-family="Times,serif" font-size="14.00">循环处理窗口数据</text>
</g>
<!-- flushTokens -->
<g id="node3" class="node">
<title>flushTokens</title>
<path fill="none" stroke="black" d="M164,-123C164,-123 12,-123 12,-123 6,-123 0,-117 0,-111 0,-111 0,-99 0,-99 0,-93 6,-87 12,-87 12,-87 164,-87 164,-87 170,-87 176,-93 176,-99 176,-99 176,-111 176,-111 176,-117 170,-123 164,-123"/>
<text text-anchor="middle" x="88" y="-101.3" font-family="Times,serif" font-size="14.00">flushTokens(flush_opt)</text>
</g>
<!-- tokenize&#45;&gt;flushTokens -->
<g id="edge6" class="edge">
<title>tokenize&#45;&gt;flushTokens</title>
<path fill="none" stroke="black" d="M186.59,-176.4C181.66,-175.56 176.76,-174.75 172,-174 141.02,-169.12 52.72,-179.55 32,-156 23.62,-146.47 29.71,-136.96 40.49,-128.83"/>
<polygon fill="black" stroke="black" points="42.62,-131.61 49.02,-123.17 38.75,-125.78 42.62,-131.61"/>
<text text-anchor="middle" x="82" y="-144.8" font-family="Times,serif" font-size="14.00">需要刷新令牌时</text>
</g>
<!-- tokenize&#45;&gt;flushTokens -->
<g id="edge12" class="edge">
<title>tokenize&#45;&gt;flushTokens</title>
<path fill="none" stroke="black" d="M198.49,-173.91C183.82,-168.99 168.57,-163.02 155,-156 147.13,-151.93 131.54,-140.38 117.37,-129.4"/>
<polygon fill="black" stroke="black" points="119.3,-126.47 109.27,-123.07 114.99,-131.98 119.3,-126.47"/>
<text text-anchor="middle" x="205" y="-144.8" font-family="Times,serif" font-size="14.00">处理完成后刷新</text>
</g>
<!-- findMatch -->
<g id="node4" class="node">
<title>findMatch</title>
<path fill="none" stroke="black" d="M509.5,-123C509.5,-123 434.5,-123 434.5,-123 428.5,-123 422.5,-117 422.5,-111 422.5,-111 422.5,-99 422.5,-99 422.5,-93 428.5,-87 434.5,-87 434.5,-87 509.5,-87 509.5,-87 515.5,-87 521.5,-93 521.5,-99 521.5,-99 521.5,-111 521.5,-111 521.5,-117 515.5,-123 509.5,-123"/>
<text text-anchor="middle" x="472" y="-101.3" font-family="Times,serif" font-size="14.00">findMatch()</text>
</g>
<!-- tokenize&#45;&gt;findMatch -->
<g id="edge3" class="edge">
<title>tokenize&#45;&gt;findMatch</title>
<path fill="none" stroke="black" d="M305.04,-173.9C338.28,-160.39 384.82,-141.46 420.32,-127.02"/>
<polygon fill="black" stroke="black" points="422.08,-130.08 430.02,-123.07 419.44,-123.6 422.08,-130.08"/>
<text text-anchor="middle" x="409" y="-144.8" font-family="Times,serif" font-size="14.00">寻找匹配</text>
</g>
<!-- flushTokens&#45;&gt;compress -->
<g id="edge7" class="edge">
<title>flushTokens&#45;&gt;compress</title>
<path fill="none" stroke="black" d="M48.95,-123.18C40.41,-128.12 31.87,-134.07 25,-141 2.68,-163.5 -6.51,-181.33 7,-210 15.92,-228.91 33.01,-244.12 49.63,-255.31"/>
<polygon fill="black" stroke="black" points="47.92,-258.37 58.23,-260.8 51.69,-252.47 47.92,-258.37"/>
<text text-anchor="middle" x="50" y="-188.3" font-family="Times,serif" font-size="14.00">继续处理数据</text>
</g>
<!-- finish -->
<g id="node9" class="node">
<title>finish</title>
<path fill="none" stroke="black" d="M264,-36C264,-36 222,-36 222,-36 216,-36 210,-30 210,-24 210,-24 210,-12 210,-12 210,-6 216,0 222,0 222,0 264,0 264,0 270,0 276,-6 276,-12 276,-12 276,-24 276,-24 276,-30 270,-36 264,-36"/>
<text text-anchor="middle" x="243" y="-14.3" font-family="Times,serif" font-size="14.00">finish()</text>
</g>
<!-- flushTokens&#45;&gt;finish -->
<g id="edge13" class="edge">
<title>flushTokens&#45;&gt;finish</title>
<path fill="none" stroke="black" d="M119.37,-86.8C143.5,-73.56 177.02,-55.18 203.07,-40.9"/>
<polygon fill="black" stroke="black" points="204.86,-43.91 211.94,-36.03 201.49,-37.77 204.86,-43.91"/>
<text text-anchor="middle" x="204" y="-57.8" font-family="Times,serif" font-size="14.00">写入页脚</text>
</g>
<!-- findMatch&#45;&gt;findMatch -->
<g id="edge15" class="edge">
<title>findMatch&#45;&gt;findMatch</title>
<path fill="none" stroke="black" stroke-dasharray="5,2" d="M521.75,-112.6C532.07,-111.8 539.5,-109.27 539.5,-105 539.5,-102.33 536.6,-100.34 531.9,-99.03"/>
<polygon fill="black" stroke="black" points="532.17,-95.53 521.75,-97.4 531.06,-102.44 532.17,-95.53"/>
<text text-anchor="middle" x="582.5" y="-101.3" font-family="Times,serif" font-size="14.00">链式回溯匹配</text>
</g>
<!-- addMatch -->
<g id="node5" class="node">
<title>addMatch</title>
<path fill="none" stroke="black" d="M401,-36C401,-36 327,-36 327,-36 321,-36 315,-30 315,-24 315,-24 315,-12 315,-12 315,-6 321,0 327,0 327,0 401,0 401,0 407,0 413,-6 413,-12 413,-12 413,-24 413,-24 413,-30 407,-36 401,-36"/>
<text text-anchor="middle" x="364" y="-14.3" font-family="Times,serif" font-size="14.00">addMatch()</text>
</g>
<!-- findMatch&#45;&gt;addMatch -->
<g id="edge4" class="edge">
<title>findMatch&#45;&gt;addMatch</title>
<path fill="none" stroke="black" d="M434.76,-86.97C425.27,-81.83 415.39,-75.75 407,-69 398.07,-61.82 389.56,-52.62 382.5,-44.07"/>
<polygon fill="black" stroke="black" points="385.17,-41.81 376.2,-36.16 379.69,-46.17 385.17,-41.81"/>
<text text-anchor="middle" x="443" y="-57.8" font-family="Times,serif" font-size="14.00">找到匹配时</text>
</g>
<!-- addPrevLiteral -->
<g id="node6" class="node">
<title>addPrevLiteral</title>
<path fill="none" stroke="black" d="M553,-36C553,-36 443,-36 443,-36 437,-36 431,-30 431,-24 431,-24 431,-12 431,-12 431,-6 437,0 443,0 443,0 553,0 553,0 559,0 565,-6 565,-12 565,-12 565,-24 565,-24 565,-30 559,-36 553,-36"/>
<text text-anchor="middle" x="498" y="-14.3" font-family="Times,serif" font-size="14.00">addPrevLiteral()</text>
</g>
<!-- findMatch&#45;&gt;addPrevLiteral -->
<g id="edge5" class="edge">
<title>findMatch&#45;&gt;addPrevLiteral</title>
<path fill="none" stroke="black" d="M477.26,-86.8C480.86,-75.05 485.69,-59.24 489.79,-45.84"/>
<polygon fill="black" stroke="black" points="493.17,-46.76 492.75,-36.18 486.47,-44.71 493.17,-46.76"/>
<text text-anchor="middle" x="529" y="-57.8" font-family="Times,serif" font-size="14.00">无更好匹配时</text>
</g>
<!-- slide&#45;&gt;compress -->
<g id="edge9" class="edge">
<title>slide&#45;&gt;compress</title>
<path fill="none" stroke="black" d="M125.72,-210.24C121.55,-219.93 116.14,-232.21 111,-243 109.66,-245.81 108.23,-248.73 106.78,-251.62"/>
<polygon fill="black" stroke="black" points="103.6,-250.16 102.18,-260.66 109.84,-253.33 103.6,-250.16"/>
<text text-anchor="middle" x="161" y="-231.8" font-family="Times,serif" font-size="14.00">继续填充窗口</text>
</g>
<!-- flush -->
<g id="node8" class="node">
<title>flush</title>
<path fill="none" stroke="black" d="M423,-297C423,-297 385,-297 385,-297 379,-297 373,-291 373,-285 373,-285 373,-273 373,-273 373,-267 379,-261 385,-261 385,-261 423,-261 423,-261 429,-261 435,-267 435,-273 435,-273 435,-285 435,-285 435,-291 429,-297 423,-297"/>
<text text-anchor="middle" x="404" y="-275.3" font-family="Times,serif" font-size="14.00">flush()</text>
</g>
<!-- flush&#45;&gt;tokenize -->
<g id="edge10" class="edge">
<title>flush&#45;&gt;tokenize</title>
<path fill="none" stroke="black" d="M400.42,-260.95C397.29,-250.1 391.69,-236.52 382,-228 372.43,-219.59 360.92,-213.19 348.89,-208.33"/>
<polygon fill="black" stroke="black" points="349.75,-204.92 339.15,-204.76 347.33,-211.49 349.75,-204.92"/>
<text text-anchor="middle" x="461.5" y="-231.8" font-family="Times,serif" font-size="14.00">调用tokenize(.flush)</text>
</g>
<!-- finish&#45;&gt;tokenize -->
<g id="edge11" class="edge">
<title>finish&#45;&gt;tokenize</title>
<path fill="none" stroke="black" d="M244.98,-36.05C248.45,-65.88 255.65,-127.76 259.82,-163.64"/>
<polygon fill="black" stroke="black" points="256.38,-164.35 261.01,-173.88 263.33,-163.54 256.38,-164.35"/>
<text text-anchor="middle" x="321.5" y="-101.3" font-family="Times,serif" font-size="14.00">调用tokenize(.final)</text>
</g>
<!-- init -->
<g id="node10" class="node">
<title>init</title>
<path fill="none" stroke="black" d="M108,-384C108,-384 78,-384 78,-384 72,-384 66,-378 66,-372 66,-372 66,-360 66,-360 66,-354 72,-348 78,-348 78,-348 108,-348 108,-348 114,-348 120,-354 120,-360 120,-360 120,-372 120,-372 120,-378 114,-384 108,-384"/>
<text text-anchor="middle" x="93" y="-362.3" font-family="Times,serif" font-size="14.00">init()</text>
</g>
<!-- init&#45;&gt;compress -->
<g id="edge1" class="edge">
<title>init&#45;&gt;compress</title>
<path fill="none" stroke="black" d="M93,-347.8C93,-336.16 93,-320.55 93,-307.24"/>
<polygon fill="black" stroke="black" points="96.5,-307.18 93,-297.18 89.5,-307.18 96.5,-307.18"/>
<text text-anchor="middle" x="164.5" y="-318.8" font-family="Times,serif" font-size="14.00">初始化后进入压缩流程</text>
</g>
</g>
</svg>
