<?xml version="1.0" encoding="UTF-8" standalone="no"?>
<!DOCTYPE svg PUBLIC "-//W3C//DTD SVG 1.1//EN"
 "http://www.w3.org/Graphics/SVG/1.1/DTD/svg11.dtd">
<!-- Generated by graphviz version 2.43.0 (0)
 -->
<!-- Title: InflateFlow Pages: 1 -->
<svg width="1432pt" height="459pt"
 viewBox="0.00 0.00 1431.63 458.74" xmlns="http://www.w3.org/2000/svg" xmlns:xlink="http://www.w3.org/1999/xlink">
<g id="graph0" class="graph" transform="scale(1 1) rotate(0) translate(4 454.74)">
<title>InflateFlow</title>
<polygon fill="white" stroke="transparent" points="-4,4 -4,-454.74 1427.63,-454.74 1427.63,4 -4,4"/>
<g id="clust1" class="cluster">
<title>cluster_block_type</title>
<polygon fill="none" stroke="black" points="574,-183.74 574,-387.74 1404,-387.74 1404,-183.74 574,-183.74"/>
<text text-anchor="middle" x="989" y="-372.54" font-family="Times,serif" font-size="14.00">块类型处理</text>
</g>
<!-- start -->
<g id="node1" class="node">
<title>start</title>
<ellipse fill="none" stroke="black" cx="106" cy="-432.74" rx="29.5" ry="18"/>
<text text-anchor="middle" x="106" y="-429.04" font-family="Times,serif" font-size="14.00">开始</text>
</g>
<!-- protocol_header -->
<g id="node2" class="node">
<title>protocol_header</title>
<path fill="none" stroke="black" d="M200,-356.74C200,-356.74 12,-356.74 12,-356.74 6,-356.74 0,-350.74 0,-344.74 0,-344.74 0,-330.74 0,-330.74 0,-324.74 6,-318.74 12,-318.74 12,-318.74 200,-318.74 200,-318.74 206,-318.74 212,-324.74 212,-330.74 212,-330.74 212,-344.74 212,-344.74 212,-350.74 206,-356.74 200,-356.74"/>
<text text-anchor="middle" x="106" y="-341.54" font-family="Times,serif" font-size="14.00">protocol_header</text>
<text text-anchor="middle" x="106" y="-326.54" font-family="Times,serif" font-size="14.00">调用 container.parseHeader</text>
</g>
<!-- start&#45;&gt;protocol_header -->
<g id="edge1" class="edge">
<title>start&#45;&gt;protocol_header</title>
<path fill="none" stroke="black" d="M106,-414.68C106,-401.39 106,-382.64 106,-367.1"/>
<polygon fill="black" stroke="black" points="109.5,-366.96 106,-356.96 102.5,-366.96 109.5,-366.96"/>
</g>
<!-- block_header -->
<g id="node3" class="node">
<title>block_header</title>
<path fill="none" stroke="black" d="M457.5,-248.74C457.5,-248.74 294.5,-248.74 294.5,-248.74 288.5,-248.74 282.5,-242.74 282.5,-236.74 282.5,-236.74 282.5,-222.74 282.5,-222.74 282.5,-216.74 288.5,-210.74 294.5,-210.74 294.5,-210.74 457.5,-210.74 457.5,-210.74 463.5,-210.74 469.5,-216.74 469.5,-222.74 469.5,-222.74 469.5,-236.74 469.5,-236.74 469.5,-242.74 463.5,-248.74 457.5,-248.74"/>
<text text-anchor="middle" x="376" y="-233.54" font-family="Times,serif" font-size="14.00">block_header</text>
<text text-anchor="middle" x="376" y="-218.54" font-family="Times,serif" font-size="14.00">读取 bfinal 和 block_type</text>
</g>
<!-- protocol_header&#45;&gt;block_header -->
<g id="edge2" class="edge">
<title>protocol_header&#45;&gt;block_header</title>
<path fill="none" stroke="black" d="M117.43,-318.68C125.62,-307.32 137.71,-293.4 152,-285.74 199.91,-260.04 220.27,-280.99 273,-267.74 289.25,-263.65 306.53,-257.99 322.2,-252.33"/>
<polygon fill="black" stroke="black" points="323.56,-255.56 331.73,-248.81 321.13,-248.99 323.56,-255.56"/>
<text text-anchor="middle" x="166.5" y="-289.54" font-family="Times,serif" font-size="14.00">成功</text>
</g>
<!-- error_node -->
<g id="node7" class="node">
<title>error_node</title>
<path fill="none" stroke="black" d="M361.4,-137.67C361.4,-137.67 316.57,-125.81 316.57,-125.81 310.77,-124.27 310.77,-121.21 316.57,-119.67 316.57,-119.67 361.4,-107.81 361.4,-107.81 367.2,-106.27 378.8,-106.27 384.6,-107.81 384.6,-107.81 429.43,-119.67 429.43,-119.67 435.23,-121.21 435.23,-124.27 429.43,-125.81 429.43,-125.81 384.6,-137.67 384.6,-137.67 378.8,-139.21 367.2,-139.21 361.4,-137.67"/>
<text text-anchor="middle" x="373" y="-119.04" font-family="Times,serif" font-size="14.00">错误处理</text>
</g>
<!-- protocol_header&#45;&gt;error_node -->
<g id="edge3" class="edge">
<title>protocol_header&#45;&gt;error_node</title>
<path fill="none" stroke="black" d="M93.17,-318.43C72.99,-287.18 39.35,-223.12 72,-183.74 104.91,-144.05 249.55,-151.37 300,-140.74 309.55,-138.73 319.76,-136.44 329.43,-134.2"/>
<polygon fill="black" stroke="black" points="330.32,-137.59 339.27,-131.91 328.73,-130.77 330.32,-137.59"/>
<text text-anchor="middle" x="101" y="-226.04" font-family="Times,serif" font-size="14.00">解析错误</text>
</g>
<!-- block_processing -->
<g id="node4" class="node">
<title>block_processing</title>
<path fill="none" stroke="black" d="M702,-356.74C702,-356.74 638,-356.74 638,-356.74 632,-356.74 626,-350.74 626,-344.74 626,-344.74 626,-330.74 626,-330.74 626,-324.74 632,-318.74 638,-318.74 638,-318.74 702,-318.74 702,-318.74 708,-318.74 714,-324.74 714,-330.74 714,-330.74 714,-344.74 714,-344.74 714,-350.74 708,-356.74 702,-356.74"/>
<text text-anchor="middle" x="670" y="-341.54" font-family="Times,serif" font-size="14.00">block</text>
<text text-anchor="middle" x="670" y="-326.54" font-family="Times,serif" font-size="14.00">处理块内容</text>
</g>
<!-- block_header&#45;&gt;block_processing -->
<g id="edge4" class="edge">
<title>block_header&#45;&gt;block_processing</title>
<path fill="none" stroke="black" d="M385.83,-248.89C395.72,-265.27 412.57,-288.61 434,-300.74 464.17,-317.82 555.72,-327.95 615.52,-332.92"/>
<polygon fill="black" stroke="black" points="615.32,-336.42 625.57,-333.73 615.88,-329.44 615.32,-336.42"/>
<text text-anchor="middle" x="463" y="-289.54" font-family="Times,serif" font-size="14.00">读取成功</text>
</g>
<!-- block_header&#45;&gt;error_node -->
<g id="edge5" class="edge">
<title>block_header&#45;&gt;error_node</title>
<path fill="none" stroke="black" d="M374.75,-210.42C374.08,-199.73 373.33,-185.98 373,-173.74 372.8,-166.39 372.73,-158.44 372.73,-151.08"/>
<polygon fill="black" stroke="black" points="376.23,-150.88 372.77,-140.87 369.23,-150.85 376.23,-150.88"/>
<text text-anchor="middle" x="432.5" y="-162.54" font-family="Times,serif" font-size="14.00">读取失败/无效类型</text>
</g>
<!-- block_processing&#45;&gt;block_header -->
<g id="edge6" class="edge">
<title>block_processing&#45;&gt;block_header</title>
<path fill="none" stroke="black" d="M625.78,-335.83C530.23,-333.42 311.3,-325.25 289,-300.74 272.85,-282.99 292.66,-266.04 317.44,-253.26"/>
<polygon fill="black" stroke="black" points="319.26,-256.27 326.73,-248.75 316.2,-249.97 319.26,-256.27"/>
<text text-anchor="middle" x="350" y="-289.54" font-family="Times,serif" font-size="14.00">未结束且 bfinal=0</text>
</g>
<!-- protocol_footer -->
<g id="node5" class="node">
<title>protocol_footer</title>
<path fill="none" stroke="black" d="M252.5,-248.74C252.5,-248.74 151.5,-248.74 151.5,-248.74 145.5,-248.74 139.5,-242.74 139.5,-236.74 139.5,-236.74 139.5,-222.74 139.5,-222.74 139.5,-216.74 145.5,-210.74 151.5,-210.74 151.5,-210.74 252.5,-210.74 252.5,-210.74 258.5,-210.74 264.5,-216.74 264.5,-222.74 264.5,-222.74 264.5,-236.74 264.5,-236.74 264.5,-242.74 258.5,-248.74 252.5,-248.74"/>
<text text-anchor="middle" x="202" y="-233.54" font-family="Times,serif" font-size="14.00">protocol_footer</text>
<text text-anchor="middle" x="202" y="-218.54" font-family="Times,serif" font-size="14.00">处理尾部</text>
</g>
<!-- block_processing&#45;&gt;protocol_footer -->
<g id="edge7" class="edge">
<title>block_processing&#45;&gt;protocol_footer</title>
<path fill="none" stroke="black" d="M625.9,-336.11C518.43,-334.18 249.52,-326.77 219,-300.74 207.13,-290.62 202.79,-273.74 201.46,-259.1"/>
<polygon fill="black" stroke="black" points="204.95,-258.77 200.96,-248.96 197.96,-259.12 204.95,-258.77"/>
<text text-anchor="middle" x="249.5" y="-289.54" font-family="Times,serif" font-size="14.00">bfinal=1</text>
</g>
<!-- block_processing&#45;&gt;error_node -->
<g id="edge8" class="edge">
<title>block_processing&#45;&gt;error_node</title>
<path fill="none" stroke="black" d="M625.86,-328.54C590.58,-319.64 542.6,-301.87 515,-267.74 483.87,-229.24 525.62,-195.09 492,-158.74 477.17,-142.7 455.41,-133.88 434.54,-129.07"/>
<polygon fill="black" stroke="black" points="435.22,-125.64 424.72,-127.08 433.82,-132.5 435.22,-125.64"/>
<text text-anchor="middle" x="544" y="-226.04" font-family="Times,serif" font-size="14.00">处理失败</text>
</g>
<!-- stored_block -->
<g id="node8" class="node">
<title>stored_block</title>
<path fill="none" stroke="black" d="M898,-248.74C898,-248.74 788,-248.74 788,-248.74 782,-248.74 776,-242.74 776,-236.74 776,-236.74 776,-222.74 776,-222.74 776,-216.74 782,-210.74 788,-210.74 788,-210.74 898,-210.74 898,-210.74 904,-210.74 910,-216.74 910,-222.74 910,-222.74 910,-236.74 910,-236.74 910,-242.74 904,-248.74 898,-248.74"/>
<text text-anchor="middle" x="843" y="-233.54" font-family="Times,serif" font-size="14.00">存储块 (type=0)</text>
<text text-anchor="middle" x="843" y="-218.54" font-family="Times,serif" font-size="14.00">调用 storedBlock</text>
</g>
<!-- block_processing&#45;&gt;stored_block -->
<g id="edge9" class="edge">
<title>block_processing&#45;&gt;stored_block</title>
<path fill="none" stroke="black" d="M699.74,-318.52C728.79,-300.72 773.14,-273.54 804.79,-254.15"/>
<polygon fill="black" stroke="black" points="806.66,-257.11 813.36,-248.9 803,-251.14 806.66,-257.11"/>
<text text-anchor="middle" x="777.5" y="-289.54" font-family="Times,serif" font-size="14.00">type=0</text>
</g>
<!-- fixed_block -->
<g id="node9" class="node">
<title>fixed_block</title>
<path fill="none" stroke="black" d="M1043.5,-248.74C1043.5,-248.74 940.5,-248.74 940.5,-248.74 934.5,-248.74 928.5,-242.74 928.5,-236.74 928.5,-236.74 928.5,-222.74 928.5,-222.74 928.5,-216.74 934.5,-210.74 940.5,-210.74 940.5,-210.74 1043.5,-210.74 1043.5,-210.74 1049.5,-210.74 1055.5,-216.74 1055.5,-222.74 1055.5,-222.74 1055.5,-236.74 1055.5,-236.74 1055.5,-242.74 1049.5,-248.74 1043.5,-248.74"/>
<text text-anchor="middle" x="992" y="-233.54" font-family="Times,serif" font-size="14.00">固定块 (type=1)</text>
<text text-anchor="middle" x="992" y="-218.54" font-family="Times,serif" font-size="14.00">调用 fixedBlock</text>
</g>
<!-- block_processing&#45;&gt;fixed_block -->
<g id="edge10" class="edge">
<title>block_processing&#45;&gt;fixed_block</title>
<path fill="none" stroke="black" d="M714.13,-327.57C764.65,-316.38 849.4,-295.46 919,-267.74 929.41,-263.59 940.33,-258.49 950.47,-253.41"/>
<polygon fill="black" stroke="black" points="952.2,-256.46 959.51,-248.79 949.01,-250.23 952.2,-256.46"/>
<text text-anchor="middle" x="891.5" y="-289.54" font-family="Times,serif" font-size="14.00">type=1</text>
</g>
<!-- dynamic_block -->
<g id="node10" class="node">
<title>dynamic_block</title>
<path fill="none" stroke="black" d="M1384,-248.74C1384,-248.74 1086,-248.74 1086,-248.74 1080,-248.74 1074,-242.74 1074,-236.74 1074,-236.74 1074,-222.74 1074,-222.74 1074,-216.74 1080,-210.74 1086,-210.74 1086,-210.74 1384,-210.74 1384,-210.74 1390,-210.74 1396,-216.74 1396,-222.74 1396,-222.74 1396,-236.74 1396,-236.74 1396,-242.74 1390,-248.74 1384,-248.74"/>
<text text-anchor="middle" x="1235" y="-233.54" font-family="Times,serif" font-size="14.00">动态块 (type=2)</text>
<text text-anchor="middle" x="1235" y="-218.54" font-family="Times,serif" font-size="14.00">调用 dynamicBlockHeader 和 dynamicBlock</text>
</g>
<!-- block_processing&#45;&gt;dynamic_block -->
<g id="edge11" class="edge">
<title>block_processing&#45;&gt;dynamic_block</title>
<path fill="none" stroke="black" d="M714.33,-331.47C764.79,-325.23 849.62,-313.98 922,-300.74 1000.51,-286.38 1089.22,-266.15 1152.1,-251.13"/>
<polygon fill="black" stroke="black" points="1153.06,-254.51 1161.97,-248.77 1151.43,-247.7 1153.06,-254.51"/>
<text text-anchor="middle" x="1016.5" y="-289.54" font-family="Times,serif" font-size="14.00">type=2</text>
</g>
<!-- invalid_block -->
<g id="node11" class="node">
<title>invalid_block</title>
<path fill="none" stroke="black" d="M658.98,-262.98C658.98,-262.98 593.02,-234.5 593.02,-234.5 587.51,-232.12 587.51,-227.36 593.02,-224.98 593.02,-224.98 658.98,-196.5 658.98,-196.5 664.49,-194.12 675.51,-194.12 681.02,-196.5 681.02,-196.5 746.98,-224.98 746.98,-224.98 752.49,-227.36 752.49,-232.12 746.98,-234.5 746.98,-234.5 681.02,-262.98 681.02,-262.98 675.51,-265.36 664.49,-265.36 658.98,-262.98"/>
<text text-anchor="middle" x="670" y="-233.54" font-family="Times,serif" font-size="14.00">无效块类型</text>
<text text-anchor="middle" x="670" y="-218.54" font-family="Times,serif" font-size="14.00">返回错误</text>
</g>
<!-- block_processing&#45;&gt;invalid_block -->
<g id="edge12" class="edge">
<title>block_processing&#45;&gt;invalid_block</title>
<path fill="none" stroke="black" d="M670,-318.28C670,-307.11 670,-292.31 670,-278.07"/>
<polygon fill="black" stroke="black" points="673.5,-277.86 670,-267.86 666.5,-277.86 673.5,-277.86"/>
<text text-anchor="middle" x="684.5" y="-289.54" font-family="Times,serif" font-size="14.00">其他</text>
</g>
<!-- end -->
<g id="node6" class="node">
<title>end</title>
<ellipse fill="none" stroke="black" cx="217" cy="-26.87" rx="31.64" ry="26.74"/>
<text text-anchor="middle" x="217" y="-30.67" font-family="Times,serif" font-size="14.00">end</text>
<text text-anchor="middle" x="217" y="-15.67" font-family="Times,serif" font-size="14.00">结束</text>
</g>
<!-- protocol_footer&#45;&gt;end -->
<g id="edge18" class="edge">
<title>protocol_footer&#45;&gt;end</title>
<path fill="none" stroke="black" d="M203.02,-210.66C204.41,-186.5 207.07,-142.38 210,-104.74 211.03,-91.48 212.31,-76.96 213.5,-64.13"/>
<polygon fill="black" stroke="black" points="217.02,-64.11 214.46,-53.83 210.05,-63.46 217.02,-64.11"/>
<text text-anchor="middle" x="253" y="-119.04" font-family="Times,serif" font-size="14.00">尾部解析成功</text>
</g>
<!-- protocol_footer&#45;&gt;error_node -->
<g id="edge19" class="edge">
<title>protocol_footer&#45;&gt;error_node</title>
<path fill="none" stroke="black" d="M229.5,-210.46C251.38,-196.07 282.88,-175.69 311,-158.74 321.29,-152.54 332.71,-146 342.92,-140.27"/>
<polygon fill="black" stroke="black" points="344.85,-143.2 351.88,-135.27 341.44,-137.09 344.85,-143.2"/>
<text text-anchor="middle" x="340" y="-162.54" font-family="Times,serif" font-size="14.00">解析失败</text>
</g>
<!-- error_node&#45;&gt;end -->
<g id="edge20" class="edge">
<title>error_node&#45;&gt;end</title>
<path fill="none" stroke="black" d="M353.24,-109.85C327.65,-94.45 282.61,-67.35 251.36,-48.55"/>
<polygon fill="black" stroke="black" points="252.91,-45.4 242.54,-43.24 249.3,-51.39 252.91,-45.4"/>
<text text-anchor="middle" x="343" y="-75.54" font-family="Times,serif" font-size="14.00">终止流程</text>
</g>
<!-- block_processing_continue -->
<g id="node12" class="node">
<title>block_processing_continue</title>
<ellipse fill="black" stroke="black" cx="992" cy="-122.74" rx="0" ry="0"/>
</g>
<!-- stored_block&#45;&gt;block_processing_continue -->
<g id="edge13" class="edge">
<title>stored_block&#45;&gt;block_processing_continue</title>
<path fill="none" stroke="black" d="M868.61,-210.69C902.85,-186.56 961.75,-145.06 983.56,-129.69"/>
<polygon fill="black" stroke="black" points="985.78,-132.4 991.94,-123.78 981.75,-126.68 985.78,-132.4"/>
<text text-anchor="middle" x="953.5" y="-162.54" font-family="Times,serif" font-size="14.00">完成</text>
</g>
<!-- fixed_block&#45;&gt;block_processing_continue -->
<g id="edge14" class="edge">
<title>fixed_block&#45;&gt;block_processing_continue</title>
<path fill="none" stroke="black" d="M992,-210.45C992,-188.25 992,-151.6 992,-133.91"/>
<polygon fill="black" stroke="black" points="995.5,-133.9 992,-123.9 988.5,-133.9 995.5,-133.9"/>
<text text-anchor="middle" x="1006.5" y="-162.54" font-family="Times,serif" font-size="14.00">完成</text>
</g>
<!-- dynamic_block&#45;&gt;block_processing_continue -->
<g id="edge15" class="edge">
<title>dynamic_block&#45;&gt;block_processing_continue</title>
<path fill="none" stroke="black" d="M1193.23,-210.69C1134.99,-185.52 1032.99,-141.45 1001.52,-127.85"/>
<polygon fill="black" stroke="black" points="1002.66,-124.54 992.1,-123.78 999.89,-130.96 1002.66,-124.54"/>
<text text-anchor="middle" x="1120.5" y="-162.54" font-family="Times,serif" font-size="14.00">完成</text>
</g>
<!-- invalid_block&#45;&gt;error_node -->
<g id="edge16" class="edge">
<title>invalid_block&#45;&gt;error_node</title>
<path fill="none" stroke="black" d="M631.74,-208.24C601.95,-192.94 559.22,-172.4 520,-158.74 487.76,-147.51 450.3,-138.65 421.27,-132.66"/>
<polygon fill="black" stroke="black" points="421.87,-129.21 411.37,-130.66 420.48,-136.07 421.87,-129.21"/>
</g>
<!-- block_processing_continue&#45;&gt;block_processing -->
<g id="edge17" class="edge">
<title>block_processing_continue&#45;&gt;block_processing</title>
<path fill="none" stroke="black" stroke-dasharray="5,2" d="M992.06,-123.74C997.49,-123.59 1344.79,-114.15 1405,-183.74 1429.43,-211.97 1430.13,-240.14 1405,-267.74 1359.33,-317.9 886.45,-332.29 724.25,-335.76"/>
<polygon fill="black" stroke="black" points="723.95,-332.27 714.02,-335.98 724.09,-339.27 723.95,-332.27"/>
</g>
</g>
</svg>
