<?xml version="1.0" encoding="UTF-8" standalone="no"?>
<!DOCTYPE svg PUBLIC "-//W3C//DTD SVG 1.1//EN"
 "http://www.w3.org/Graphics/SVG/1.1/DTD/svg11.dtd">
<!-- Generated by graphviz version 2.43.0 (0)
 -->
<!-- Title: square_flowchart Pages: 1 -->
<svg width="235pt" height="1064pt"
 viewBox="0.00 0.00 235.00 1064.00" xmlns="http://www.w3.org/2000/svg" xmlns:xlink="http://www.w3.org/1999/xlink">
<g id="graph0" class="graph" transform="scale(1 1) rotate(0) translate(4 1060)">
<title>square_flowchart</title>
<polygon fill="white" stroke="transparent" points="-4,4 -4,-1060 231,-1060 231,4 -4,4"/>
<!-- start -->
<g id="node1" class="node">
<title>start</title>
<path fill="none" stroke="black" d="M128.5,-1056C128.5,-1056 98.5,-1056 98.5,-1056 92.5,-1056 86.5,-1050 86.5,-1044 86.5,-1044 86.5,-1032 86.5,-1032 86.5,-1026 92.5,-1020 98.5,-1020 98.5,-1020 128.5,-1020 128.5,-1020 134.5,-1020 140.5,-1026 140.5,-1032 140.5,-1032 140.5,-1044 140.5,-1044 140.5,-1050 134.5,-1056 128.5,-1056"/>
<text text-anchor="middle" x="113.5" y="-1034.3" font-family="Times,serif" font-size="14.00">开始</text>
</g>
<!-- init_vars -->
<g id="node2" class="node">
<title>init_vars</title>
<path fill="none" stroke="black" d="M203,-984C203,-984 24,-984 24,-984 18,-984 12,-978 12,-972 12,-972 12,-958 12,-958 12,-952 18,-946 24,-946 24,-946 203,-946 203,-946 209,-946 215,-952 215,-958 215,-958 215,-972 215,-972 215,-978 209,-984 203,-984"/>
<text text-anchor="middle" x="113.5" y="-968.8" font-family="Times,serif" font-size="14.00">初始化变量</text>
<text text-anchor="middle" x="113.5" y="-953.8" font-family="Times,serif" font-size="14.00">x1, x2, x3, x4为arg1的元素</text>
</g>
<!-- start&#45;&gt;init_vars -->
<g id="edge1" class="edge">
<title>start&#45;&gt;init_vars</title>
<path fill="none" stroke="black" d="M113.5,-1019.81C113.5,-1012.11 113.5,-1002.82 113.5,-994.15"/>
<polygon fill="black" stroke="black" points="117,-994.02 113.5,-984.02 110,-994.02 117,-994.02"/>
</g>
<!-- mul_initial -->
<g id="node3" class="node">
<title>mul_initial</title>
<path fill="none" stroke="black" d="M215,-910C215,-910 12,-910 12,-910 6,-910 0,-904 0,-898 0,-898 0,-884 0,-884 0,-878 6,-872 12,-872 12,-872 215,-872 215,-872 221,-872 227,-878 227,-884 227,-884 227,-898 227,-898 227,-904 221,-910 215,-910"/>
<text text-anchor="middle" x="113.5" y="-894.8" font-family="Times,serif" font-size="14.00">执行初始乘法</text>
<text text-anchor="middle" x="113.5" y="-879.8" font-family="Times,serif" font-size="14.00">mulxU64计算x4与各元素的乘积</text>
</g>
<!-- init_vars&#45;&gt;mul_initial -->
<g id="edge2" class="edge">
<title>init_vars&#45;&gt;mul_initial</title>
<path fill="none" stroke="black" d="M113.5,-945.83C113.5,-938.13 113.5,-928.97 113.5,-920.42"/>
<polygon fill="black" stroke="black" points="117,-920.41 113.5,-910.41 110,-920.41 117,-920.41"/>
</g>
<!-- add_carries1 -->
<g id="node4" class="node">
<title>add_carries1</title>
<path fill="none" stroke="black" d="M203.5,-836C203.5,-836 23.5,-836 23.5,-836 17.5,-836 11.5,-830 11.5,-824 11.5,-824 11.5,-810 11.5,-810 11.5,-804 17.5,-798 23.5,-798 23.5,-798 203.5,-798 203.5,-798 209.5,-798 215.5,-804 215.5,-810 215.5,-810 215.5,-824 215.5,-824 215.5,-830 209.5,-836 203.5,-836"/>
<text text-anchor="middle" x="113.5" y="-820.8" font-family="Times,serif" font-size="14.00">处理进位累加</text>
<text text-anchor="middle" x="113.5" y="-805.8" font-family="Times,serif" font-size="14.00">addcarryxU64累加中间结果</text>
</g>
<!-- mul_initial&#45;&gt;add_carries1 -->
<g id="edge3" class="edge">
<title>mul_initial&#45;&gt;add_carries1</title>
<path fill="none" stroke="black" d="M113.5,-871.83C113.5,-864.13 113.5,-854.97 113.5,-846.42"/>
<polygon fill="black" stroke="black" points="117,-846.41 113.5,-836.41 110,-846.41 117,-846.41"/>
</g>
<!-- mod_reduction1 -->
<g id="node5" class="node">
<title>mod_reduction1</title>
<path fill="none" stroke="black" d="M209.5,-762C209.5,-762 17.5,-762 17.5,-762 11.5,-762 5.5,-756 5.5,-750 5.5,-750 5.5,-736 5.5,-736 5.5,-730 11.5,-724 17.5,-724 17.5,-724 209.5,-724 209.5,-724 215.5,-724 221.5,-730 221.5,-736 221.5,-736 221.5,-750 221.5,-750 221.5,-756 215.5,-762 209.5,-762"/>
<text text-anchor="middle" x="113.5" y="-746.8" font-family="Times,serif" font-size="14.00">第一次模约减</text>
<text text-anchor="middle" x="113.5" y="-731.8" font-family="Times,serif" font-size="14.00">乘以0xffffffff00000001等常数</text>
</g>
<!-- add_carries1&#45;&gt;mod_reduction1 -->
<g id="edge4" class="edge">
<title>add_carries1&#45;&gt;mod_reduction1</title>
<path fill="none" stroke="black" d="M113.5,-797.83C113.5,-790.13 113.5,-780.97 113.5,-772.42"/>
<polygon fill="black" stroke="black" points="117,-772.41 113.5,-762.41 110,-772.41 117,-772.41"/>
</g>
<!-- process_x1 -->
<g id="node6" class="node">
<title>process_x1</title>
<path fill="none" stroke="black" d="M175.5,-688C175.5,-688 51.5,-688 51.5,-688 45.5,-688 39.5,-682 39.5,-676 39.5,-676 39.5,-664 39.5,-664 39.5,-658 45.5,-652 51.5,-652 51.5,-652 175.5,-652 175.5,-652 181.5,-652 187.5,-658 187.5,-664 187.5,-664 187.5,-676 187.5,-676 187.5,-682 181.5,-688 175.5,-688"/>
<text text-anchor="middle" x="113.5" y="-666.3" font-family="Times,serif" font-size="14.00">处理x1的乘法与累加</text>
</g>
<!-- mod_reduction1&#45;&gt;process_x1 -->
<g id="edge5" class="edge">
<title>mod_reduction1&#45;&gt;process_x1</title>
<path fill="none" stroke="black" d="M113.5,-723.72C113.5,-715.97 113.5,-706.79 113.5,-698.27"/>
<polygon fill="black" stroke="black" points="117,-698 113.5,-688 110,-698 117,-698"/>
</g>
<!-- mod_reduction2 -->
<g id="node7" class="node">
<title>mod_reduction2</title>
<path fill="none" stroke="black" d="M152.5,-616C152.5,-616 74.5,-616 74.5,-616 68.5,-616 62.5,-610 62.5,-604 62.5,-604 62.5,-592 62.5,-592 62.5,-586 68.5,-580 74.5,-580 74.5,-580 152.5,-580 152.5,-580 158.5,-580 164.5,-586 164.5,-592 164.5,-592 164.5,-604 164.5,-604 164.5,-610 158.5,-616 152.5,-616"/>
<text text-anchor="middle" x="113.5" y="-594.3" font-family="Times,serif" font-size="14.00">第二次模约减</text>
</g>
<!-- process_x1&#45;&gt;mod_reduction2 -->
<g id="edge6" class="edge">
<title>process_x1&#45;&gt;mod_reduction2</title>
<path fill="none" stroke="black" d="M113.5,-651.7C113.5,-643.98 113.5,-634.71 113.5,-626.11"/>
<polygon fill="black" stroke="black" points="117,-626.1 113.5,-616.1 110,-626.1 117,-626.1"/>
</g>
<!-- process_x2 -->
<g id="node8" class="node">
<title>process_x2</title>
<path fill="none" stroke="black" d="M175.5,-544C175.5,-544 51.5,-544 51.5,-544 45.5,-544 39.5,-538 39.5,-532 39.5,-532 39.5,-520 39.5,-520 39.5,-514 45.5,-508 51.5,-508 51.5,-508 175.5,-508 175.5,-508 181.5,-508 187.5,-514 187.5,-520 187.5,-520 187.5,-532 187.5,-532 187.5,-538 181.5,-544 175.5,-544"/>
<text text-anchor="middle" x="113.5" y="-522.3" font-family="Times,serif" font-size="14.00">处理x2的乘法与累加</text>
</g>
<!-- mod_reduction2&#45;&gt;process_x2 -->
<g id="edge7" class="edge">
<title>mod_reduction2&#45;&gt;process_x2</title>
<path fill="none" stroke="black" d="M113.5,-579.7C113.5,-571.98 113.5,-562.71 113.5,-554.11"/>
<polygon fill="black" stroke="black" points="117,-554.1 113.5,-544.1 110,-554.1 117,-554.1"/>
</g>
<!-- mod_reduction3 -->
<g id="node9" class="node">
<title>mod_reduction3</title>
<path fill="none" stroke="black" d="M152.5,-472C152.5,-472 74.5,-472 74.5,-472 68.5,-472 62.5,-466 62.5,-460 62.5,-460 62.5,-448 62.5,-448 62.5,-442 68.5,-436 74.5,-436 74.5,-436 152.5,-436 152.5,-436 158.5,-436 164.5,-442 164.5,-448 164.5,-448 164.5,-460 164.5,-460 164.5,-466 158.5,-472 152.5,-472"/>
<text text-anchor="middle" x="113.5" y="-450.3" font-family="Times,serif" font-size="14.00">第三次模约减</text>
</g>
<!-- process_x2&#45;&gt;mod_reduction3 -->
<g id="edge8" class="edge">
<title>process_x2&#45;&gt;mod_reduction3</title>
<path fill="none" stroke="black" d="M113.5,-507.7C113.5,-499.98 113.5,-490.71 113.5,-482.11"/>
<polygon fill="black" stroke="black" points="117,-482.1 113.5,-472.1 110,-482.1 117,-482.1"/>
</g>
<!-- process_x3 -->
<g id="node10" class="node">
<title>process_x3</title>
<path fill="none" stroke="black" d="M175.5,-400C175.5,-400 51.5,-400 51.5,-400 45.5,-400 39.5,-394 39.5,-388 39.5,-388 39.5,-376 39.5,-376 39.5,-370 45.5,-364 51.5,-364 51.5,-364 175.5,-364 175.5,-364 181.5,-364 187.5,-370 187.5,-376 187.5,-376 187.5,-388 187.5,-388 187.5,-394 181.5,-400 175.5,-400"/>
<text text-anchor="middle" x="113.5" y="-378.3" font-family="Times,serif" font-size="14.00">处理x3的乘法与累加</text>
</g>
<!-- mod_reduction3&#45;&gt;process_x3 -->
<g id="edge9" class="edge">
<title>mod_reduction3&#45;&gt;process_x3</title>
<path fill="none" stroke="black" d="M113.5,-435.7C113.5,-427.98 113.5,-418.71 113.5,-410.11"/>
<polygon fill="black" stroke="black" points="117,-410.1 113.5,-400.1 110,-410.1 117,-410.1"/>
</g>
<!-- mod_reduction4 -->
<g id="node11" class="node">
<title>mod_reduction4</title>
<path fill="none" stroke="black" d="M152.5,-328C152.5,-328 74.5,-328 74.5,-328 68.5,-328 62.5,-322 62.5,-316 62.5,-316 62.5,-304 62.5,-304 62.5,-298 68.5,-292 74.5,-292 74.5,-292 152.5,-292 152.5,-292 158.5,-292 164.5,-298 164.5,-304 164.5,-304 164.5,-316 164.5,-316 164.5,-322 158.5,-328 152.5,-328"/>
<text text-anchor="middle" x="113.5" y="-306.3" font-family="Times,serif" font-size="14.00">第四次模约减</text>
</g>
<!-- process_x3&#45;&gt;mod_reduction4 -->
<g id="edge10" class="edge">
<title>process_x3&#45;&gt;mod_reduction4</title>
<path fill="none" stroke="black" d="M113.5,-363.7C113.5,-355.98 113.5,-346.71 113.5,-338.11"/>
<polygon fill="black" stroke="black" points="117,-338.1 113.5,-328.1 110,-338.1 117,-338.1"/>
</g>
<!-- final_sub -->
<g id="node12" class="node">
<title>final_sub</title>
<path fill="none" stroke="black" d="M203,-256C203,-256 24,-256 24,-256 18,-256 12,-250 12,-244 12,-244 12,-230 12,-230 12,-224 18,-218 24,-218 24,-218 203,-218 203,-218 209,-218 215,-224 215,-230 215,-230 215,-244 215,-244 215,-250 209,-256 203,-256"/>
<text text-anchor="middle" x="113.5" y="-240.8" font-family="Times,serif" font-size="14.00">最终减法调整</text>
<text text-anchor="middle" x="113.5" y="-225.8" font-family="Times,serif" font-size="14.00">subborrowxU64检查模范围</text>
</g>
<!-- mod_reduction4&#45;&gt;final_sub -->
<g id="edge11" class="edge">
<title>mod_reduction4&#45;&gt;final_sub</title>
<path fill="none" stroke="black" d="M113.5,-291.81C113.5,-284.11 113.5,-274.82 113.5,-266.15"/>
<polygon fill="black" stroke="black" points="117,-266.02 113.5,-256.02 110,-266.02 117,-266.02"/>
</g>
<!-- cmov_adj -->
<g id="node13" class="node">
<title>cmov_adj</title>
<path fill="none" stroke="black" d="M191,-182C191,-182 36,-182 36,-182 30,-182 24,-176 24,-170 24,-170 24,-156 24,-156 24,-150 30,-144 36,-144 36,-144 191,-144 191,-144 197,-144 203,-150 203,-156 203,-156 203,-170 203,-170 203,-176 197,-182 191,-182"/>
<text text-anchor="middle" x="113.5" y="-166.8" font-family="Times,serif" font-size="14.00">条件移动调整结果</text>
<text text-anchor="middle" x="113.5" y="-151.8" font-family="Times,serif" font-size="14.00">cmovznzU64选择正确值</text>
</g>
<!-- final_sub&#45;&gt;cmov_adj -->
<g id="edge12" class="edge">
<title>final_sub&#45;&gt;cmov_adj</title>
<path fill="none" stroke="black" d="M113.5,-217.83C113.5,-210.13 113.5,-200.97 113.5,-192.42"/>
<polygon fill="black" stroke="black" points="117,-192.41 113.5,-182.41 110,-192.41 117,-192.41"/>
</g>
<!-- store_result -->
<g id="node14" class="node">
<title>store_result</title>
<path fill="none" stroke="black" d="M161.5,-108C161.5,-108 65.5,-108 65.5,-108 59.5,-108 53.5,-102 53.5,-96 53.5,-96 53.5,-84 53.5,-84 53.5,-78 59.5,-72 65.5,-72 65.5,-72 161.5,-72 161.5,-72 167.5,-72 173.5,-78 173.5,-84 173.5,-84 173.5,-96 173.5,-96 173.5,-102 167.5,-108 161.5,-108"/>
<text text-anchor="middle" x="113.5" y="-86.3" font-family="Times,serif" font-size="14.00">存储结果到out1</text>
</g>
<!-- cmov_adj&#45;&gt;store_result -->
<g id="edge13" class="edge">
<title>cmov_adj&#45;&gt;store_result</title>
<path fill="none" stroke="black" d="M113.5,-143.72C113.5,-135.97 113.5,-126.79 113.5,-118.27"/>
<polygon fill="black" stroke="black" points="117,-118 113.5,-108 110,-118 117,-118"/>
</g>
<!-- end -->
<g id="node15" class="node">
<title>end</title>
<path fill="none" stroke="black" d="M128.5,-36C128.5,-36 98.5,-36 98.5,-36 92.5,-36 86.5,-30 86.5,-24 86.5,-24 86.5,-12 86.5,-12 86.5,-6 92.5,0 98.5,0 98.5,0 128.5,0 128.5,0 134.5,0 140.5,-6 140.5,-12 140.5,-12 140.5,-24 140.5,-24 140.5,-30 134.5,-36 128.5,-36"/>
<text text-anchor="middle" x="113.5" y="-14.3" font-family="Times,serif" font-size="14.00">结束</text>
</g>
<!-- store_result&#45;&gt;end -->
<g id="edge14" class="edge">
<title>store_result&#45;&gt;end</title>
<path fill="none" stroke="black" d="M113.5,-71.7C113.5,-63.98 113.5,-54.71 113.5,-46.11"/>
<polygon fill="black" stroke="black" points="117,-46.1 113.5,-36.1 110,-46.1 117,-46.1"/>
</g>
</g>
</svg>
