<?xml version="1.0" encoding="UTF-8" standalone="no"?>
<!DOCTYPE svg PUBLIC "-//W3C//DTD SVG 1.1//EN"
 "http://www.w3.org/Graphics/SVG/1.1/DTD/svg11.dtd">
<!-- Generated by graphviz version 2.43.0 (0)
 -->
<!-- Title: parse_flow Pages: 1 -->
<svg width="366pt" height="1893pt"
 viewBox="0.00 0.00 365.50 1893.00" xmlns="http://www.w3.org/2000/svg" xmlns:xlink="http://www.w3.org/1999/xlink">
<g id="graph0" class="graph" transform="scale(1 1) rotate(0) translate(4 1889)">
<title>parse_flow</title>
<polygon fill="white" stroke="transparent" points="-4,4 -4,-1889 361.5,-1889 361.5,4 -4,4"/>
<!-- start -->
<g id="node1" class="node">
<title>start</title>
<polygon fill="none" stroke="black" points="187.5,-1885 112.5,-1885 112.5,-1849 187.5,-1849 187.5,-1885"/>
<text text-anchor="middle" x="150" y="-1864.5" font-family="Courier,monospace" font-size="10.00">开始解析证书</text>
</g>
<!-- parse_cert -->
<g id="node2" class="node">
<title>parse_cert</title>
<polygon fill="none" stroke="black" points="201,-1812 99,-1812 99,-1776 201,-1776 201,-1812"/>
<text text-anchor="middle" x="150" y="-1791.5" font-family="Courier,monospace" font-size="10.00">解析cert.buffer</text>
</g>
<!-- start&#45;&gt;parse_cert -->
<g id="edge27" class="edge">
<title>start&#45;&gt;parse_cert</title>
<path fill="none" stroke="black" d="M150,-1848.81C150,-1840.79 150,-1831.05 150,-1822.07"/>
<polygon fill="black" stroke="black" points="153.5,-1822.03 150,-1812.03 146.5,-1822.03 153.5,-1822.03"/>
</g>
<!-- parse_tbs -->
<g id="node3" class="node">
<title>parse_tbs</title>
<polygon fill="none" stroke="black" points="185.5,-1729 114.5,-1729 114.5,-1693 185.5,-1693 185.5,-1729"/>
<text text-anchor="middle" x="150" y="-1708.5" font-family="Courier,monospace" font-size="10.00">parse_tbs</text>
</g>
<!-- parse_cert&#45;&gt;parse_tbs -->
<g id="edge1" class="edge">
<title>parse_cert&#45;&gt;parse_tbs</title>
<path fill="none" stroke="black" d="M150,-1775.82C150,-1765.19 150,-1751.31 150,-1739.2"/>
<polygon fill="black" stroke="black" points="153.5,-1739.15 150,-1729.15 146.5,-1739.15 153.5,-1739.15"/>
<text text-anchor="middle" x="205" y="-1750" font-family="Courier,monospace" font-size="10.00">解析tbs_certificate</text>
</g>
<!-- parse_version -->
<g id="node4" class="node">
<title>parse_version</title>
<polygon fill="none" stroke="black" points="197.5,-1646 102.5,-1646 102.5,-1610 197.5,-1610 197.5,-1646"/>
<text text-anchor="middle" x="150" y="-1625.5" font-family="Courier,monospace" font-size="10.00">parse_version</text>
</g>
<!-- parse_tbs&#45;&gt;parse_version -->
<g id="edge2" class="edge">
<title>parse_tbs&#45;&gt;parse_version</title>
<path fill="none" stroke="black" d="M150,-1692.82C150,-1682.19 150,-1668.31 150,-1656.2"/>
<polygon fill="black" stroke="black" points="153.5,-1656.15 150,-1646.15 146.5,-1656.15 153.5,-1656.15"/>
<text text-anchor="middle" x="196" y="-1667" font-family="Courier,monospace" font-size="10.00">解析version_elem</text>
</g>
<!-- check_version_tag -->
<g id="node5" class="node">
<title>check_version_tag</title>
<polygon fill="none" stroke="black" points="150,-1563 2.8,-1545 150,-1527 297.2,-1545 150,-1563"/>
<text text-anchor="middle" x="150" y="-1542.5" font-family="Courier,monospace" font-size="10.00">version_elem标识符是否为0xA0?</text>
</g>
<!-- parse_version&#45;&gt;check_version_tag -->
<g id="edge3" class="edge">
<title>parse_version&#45;&gt;check_version_tag</title>
<path fill="none" stroke="black" d="M150,-1609.82C150,-1599.19 150,-1585.31 150,-1573.2"/>
<polygon fill="black" stroke="black" points="153.5,-1573.15 150,-1563.15 146.5,-1573.15 153.5,-1573.15"/>
<text text-anchor="middle" x="195.5" y="-1584" font-family="Courier,monospace" font-size="10.00">检查version标识符</text>
</g>
<!-- parse_serial_number -->
<g id="node6" class="node">
<title>parse_serial_number</title>
<polygon fill="none" stroke="black" points="114,-1480 0,-1480 0,-1444 114,-1444 114,-1480"/>
<text text-anchor="middle" x="57" y="-1459.5" font-family="Courier,monospace" font-size="10.00">解析serial_number</text>
</g>
<!-- check_version_tag&#45;&gt;parse_serial_number -->
<g id="edge4" class="edge">
<title>check_version_tag&#45;&gt;parse_serial_number</title>
<path fill="none" stroke="black" d="M132.51,-1528.76C118.98,-1516.98 99.99,-1500.44 84.44,-1486.9"/>
<polygon fill="black" stroke="black" points="86.51,-1484.06 76.67,-1480.13 81.91,-1489.34 86.51,-1484.06"/>
<text text-anchor="middle" x="115" y="-1501" font-family="Courier,monospace" font-size="10.00">是</text>
</g>
<!-- use_version_elem -->
<g id="node7" class="node">
<title>use_version_elem</title>
<polygon fill="none" stroke="black" points="357.5,-1480 132.5,-1480 132.5,-1444 357.5,-1444 357.5,-1480"/>
<text text-anchor="middle" x="245" y="-1459.5" font-family="Courier,monospace" font-size="10.00">直接使用version_elem作为serial_number</text>
</g>
<!-- check_version_tag&#45;&gt;use_version_elem -->
<g id="edge5" class="edge">
<title>check_version_tag&#45;&gt;use_version_elem</title>
<path fill="none" stroke="black" d="M167.87,-1528.76C181.69,-1516.98 201.09,-1500.44 216.97,-1486.9"/>
<polygon fill="black" stroke="black" points="219.57,-1489.28 224.91,-1480.13 215.03,-1483.95 219.57,-1489.28"/>
<text text-anchor="middle" x="208" y="-1501" font-family="Courier,monospace" font-size="10.00">否</text>
</g>
<!-- parse_tbs_signature -->
<g id="node8" class="node">
<title>parse_tbs_signature</title>
<polygon fill="none" stroke="black" points="207,-1407 93,-1407 93,-1371 207,-1371 207,-1407"/>
<text text-anchor="middle" x="150" y="-1386.5" font-family="Courier,monospace" font-size="10.00">解析tbs_signature</text>
</g>
<!-- parse_serial_number&#45;&gt;parse_tbs_signature -->
<g id="edge6" class="edge">
<title>parse_serial_number&#45;&gt;parse_tbs_signature</title>
<path fill="none" stroke="black" d="M79.51,-1443.81C91.51,-1434.66 106.43,-1423.26 119.46,-1413.32"/>
<polygon fill="black" stroke="black" points="121.87,-1415.88 127.69,-1407.03 117.62,-1410.32 121.87,-1415.88"/>
</g>
<!-- use_version_elem&#45;&gt;parse_tbs_signature -->
<g id="edge7" class="edge">
<title>use_version_elem&#45;&gt;parse_tbs_signature</title>
<path fill="none" stroke="black" d="M222,-1443.81C209.63,-1434.57 194.21,-1423.04 180.82,-1413.03"/>
<polygon fill="black" stroke="black" points="182.89,-1410.21 172.79,-1407.03 178.7,-1415.82 182.89,-1410.21"/>
</g>
<!-- parse_issuer -->
<g id="node9" class="node">
<title>parse_issuer</title>
<polygon fill="none" stroke="black" points="194.5,-1324 105.5,-1324 105.5,-1288 194.5,-1288 194.5,-1324"/>
<text text-anchor="middle" x="150" y="-1303.5" font-family="Courier,monospace" font-size="10.00">parse_issuer</text>
</g>
<!-- parse_tbs_signature&#45;&gt;parse_issuer -->
<g id="edge8" class="edge">
<title>parse_tbs_signature&#45;&gt;parse_issuer</title>
<path fill="none" stroke="black" d="M150,-1370.82C150,-1360.19 150,-1346.31 150,-1334.2"/>
<polygon fill="black" stroke="black" points="153.5,-1334.15 150,-1324.15 146.5,-1334.15 153.5,-1334.15"/>
<text text-anchor="middle" x="178" y="-1345" font-family="Courier,monospace" font-size="10.00">解析issuer</text>
</g>
<!-- parse_validity -->
<g id="node10" class="node">
<title>parse_validity</title>
<polygon fill="none" stroke="black" points="200.5,-1241 99.5,-1241 99.5,-1205 200.5,-1205 200.5,-1241"/>
<text text-anchor="middle" x="150" y="-1220.5" font-family="Courier,monospace" font-size="10.00">parse_validity</text>
</g>
<!-- parse_issuer&#45;&gt;parse_validity -->
<g id="edge9" class="edge">
<title>parse_issuer&#45;&gt;parse_validity</title>
<path fill="none" stroke="black" d="M150,-1287.82C150,-1277.19 150,-1263.31 150,-1251.2"/>
<polygon fill="black" stroke="black" points="153.5,-1251.15 150,-1241.15 146.5,-1251.15 153.5,-1251.15"/>
<text text-anchor="middle" x="184" y="-1262" font-family="Courier,monospace" font-size="10.00">解析validity</text>
</g>
<!-- parse_not_before -->
<g id="node11" class="node">
<title>parse_not_before</title>
<polygon fill="none" stroke="black" points="206.5,-1158 93.5,-1158 93.5,-1122 206.5,-1122 206.5,-1158"/>
<text text-anchor="middle" x="150" y="-1137.5" font-family="Courier,monospace" font-size="10.00">parse_not_before</text>
</g>
<!-- parse_validity&#45;&gt;parse_not_before -->
<g id="edge10" class="edge">
<title>parse_validity&#45;&gt;parse_not_before</title>
<path fill="none" stroke="black" d="M150,-1204.82C150,-1194.19 150,-1180.31 150,-1168.2"/>
<polygon fill="black" stroke="black" points="153.5,-1168.15 150,-1158.15 146.5,-1168.15 153.5,-1168.15"/>
<text text-anchor="middle" x="190" y="-1179" font-family="Courier,monospace" font-size="10.00">解析not_before</text>
</g>
<!-- parse_not_after -->
<g id="node12" class="node">
<title>parse_not_after</title>
<polygon fill="none" stroke="black" points="203.5,-1075 96.5,-1075 96.5,-1039 203.5,-1039 203.5,-1075"/>
<text text-anchor="middle" x="150" y="-1054.5" font-family="Courier,monospace" font-size="10.00">parse_not_after</text>
</g>
<!-- parse_not_before&#45;&gt;parse_not_after -->
<g id="edge11" class="edge">
<title>parse_not_before&#45;&gt;parse_not_after</title>
<path fill="none" stroke="black" d="M150,-1121.82C150,-1111.19 150,-1097.31 150,-1085.2"/>
<polygon fill="black" stroke="black" points="153.5,-1085.15 150,-1075.15 146.5,-1085.15 153.5,-1085.15"/>
<text text-anchor="middle" x="187" y="-1096" font-family="Courier,monospace" font-size="10.00">解析not_after</text>
</g>
<!-- parse_subject -->
<g id="node13" class="node">
<title>parse_subject</title>
<polygon fill="none" stroke="black" points="197.5,-992 102.5,-992 102.5,-956 197.5,-956 197.5,-992"/>
<text text-anchor="middle" x="150" y="-971.5" font-family="Courier,monospace" font-size="10.00">parse_subject</text>
</g>
<!-- parse_not_after&#45;&gt;parse_subject -->
<g id="edge12" class="edge">
<title>parse_not_after&#45;&gt;parse_subject</title>
<path fill="none" stroke="black" d="M150,-1038.82C150,-1028.19 150,-1014.31 150,-1002.2"/>
<polygon fill="black" stroke="black" points="153.5,-1002.15 150,-992.15 146.5,-1002.15 153.5,-1002.15"/>
<text text-anchor="middle" x="181" y="-1013" font-family="Courier,monospace" font-size="10.00">解析subject</text>
</g>
<!-- process_subject -->
<g id="node14" class="node">
<title>process_subject</title>
<polygon fill="none" stroke="black" points="213,-909 91,-909 87,-905 87,-873 209,-873 213,-877 213,-909"/>
<polyline fill="none" stroke="black" points="209,-905 87,-905 "/>
<polyline fill="none" stroke="black" points="209,-905 209,-873 "/>
<polyline fill="none" stroke="black" points="209,-905 213,-909 "/>
<text text-anchor="middle" x="150" y="-894" font-family="Courier,monospace" font-size="10.00">三层嵌套循环处理</text>
<text text-anchor="middle" x="150" y="-883" font-family="Courier,monospace" font-size="10.00">RDN/ATAV/ty&#45;val结构</text>
</g>
<!-- parse_subject&#45;&gt;process_subject -->
<g id="edge13" class="edge">
<title>parse_subject&#45;&gt;process_subject</title>
<path fill="none" stroke="black" d="M150,-955.82C150,-945.19 150,-931.31 150,-919.2"/>
<polygon fill="black" stroke="black" points="153.5,-919.15 150,-909.15 146.5,-919.15 153.5,-919.15"/>
<text text-anchor="middle" x="191" y="-930" font-family="Courier,monospace" font-size="10.00">处理subject层级</text>
</g>
<!-- extract_common_name -->
<g id="node15" class="node">
<title>extract_common_name</title>
<polygon fill="none" stroke="black" points="215.5,-826 84.5,-826 84.5,-790 215.5,-790 215.5,-826"/>
<text text-anchor="middle" x="150" y="-805.5" font-family="Courier,monospace" font-size="10.00">extract_common_name</text>
</g>
<!-- process_subject&#45;&gt;extract_common_name -->
<g id="edge14" class="edge">
<title>process_subject&#45;&gt;extract_common_name</title>
<path fill="none" stroke="black" d="M150,-872.82C150,-862.19 150,-848.31 150,-836.2"/>
<polygon fill="black" stroke="black" points="153.5,-836.15 150,-826.15 146.5,-836.15 153.5,-836.15"/>
<text text-anchor="middle" x="193" y="-847" font-family="Courier,monospace" font-size="10.00">提取common_name</text>
</g>
<!-- parse_pub_key_info -->
<g id="node16" class="node">
<title>parse_pub_key_info</title>
<polygon fill="none" stroke="black" points="204,-753 96,-753 96,-717 204,-717 204,-753"/>
<text text-anchor="middle" x="150" y="-732.5" font-family="Courier,monospace" font-size="10.00">解析pub_key_info</text>
</g>
<!-- extract_common_name&#45;&gt;parse_pub_key_info -->
<g id="edge15" class="edge">
<title>extract_common_name&#45;&gt;parse_pub_key_info</title>
<path fill="none" stroke="black" d="M150,-789.81C150,-781.79 150,-772.05 150,-763.07"/>
<polygon fill="black" stroke="black" points="153.5,-763.03 150,-753.03 146.5,-763.03 153.5,-763.03"/>
</g>
<!-- parse_pub_key_algo -->
<g id="node17" class="node">
<title>parse_pub_key_algo</title>
<polygon fill="none" stroke="black" points="150,-670 70.83,-652 150,-634 229.17,-652 150,-670"/>
<text text-anchor="middle" x="150" y="-649.5" font-family="Courier,monospace" font-size="10.00">处理公钥算法分支</text>
</g>
<!-- parse_pub_key_info&#45;&gt;parse_pub_key_algo -->
<g id="edge16" class="edge">
<title>parse_pub_key_info&#45;&gt;parse_pub_key_algo</title>
<path fill="none" stroke="black" d="M150,-716.82C150,-706.19 150,-692.31 150,-680.2"/>
<polygon fill="black" stroke="black" points="153.5,-680.15 150,-670.15 146.5,-680.15 153.5,-680.15"/>
<text text-anchor="middle" x="170" y="-691" font-family="Courier,monospace" font-size="10.00">解析算法</text>
</g>
<!-- parse_ec_params -->
<g id="node18" class="node">
<title>parse_ec_params</title>
<polygon fill="none" stroke="black" points="201,-587 99,-587 99,-551 201,-551 201,-587"/>
<text text-anchor="middle" x="150" y="-572" font-family="Courier,monospace" font-size="10.00">解析EC参数</text>
<text text-anchor="middle" x="150" y="-561" font-family="Courier,monospace" font-size="10.00">获取named_curve</text>
</g>
<!-- parse_pub_key_algo&#45;&gt;parse_ec_params -->
<g id="edge17" class="edge">
<title>parse_pub_key_algo&#45;&gt;parse_ec_params</title>
<path fill="none" stroke="black" d="M150,-633.82C150,-623.19 150,-609.31 150,-597.2"/>
<polygon fill="black" stroke="black" points="153.5,-597.15 150,-587.15 146.5,-597.15 153.5,-597.15"/>
<text text-anchor="middle" x="210.5" y="-608" font-family="Courier,monospace" font-size="10.00">X9_62_id_ecPublicKey</text>
</g>
<!-- parse_pub_key -->
<g id="node19" class="node">
<title>parse_pub_key</title>
<polygon fill="none" stroke="black" points="197.5,-504 102.5,-504 102.5,-468 197.5,-468 197.5,-504"/>
<text text-anchor="middle" x="150" y="-483.5" font-family="Courier,monospace" font-size="10.00">parse_pub_key</text>
</g>
<!-- parse_ec_params&#45;&gt;parse_pub_key -->
<g id="edge18" class="edge">
<title>parse_ec_params&#45;&gt;parse_pub_key</title>
<path fill="none" stroke="black" d="M150,-550.82C150,-540.19 150,-526.31 150,-514.2"/>
<polygon fill="black" stroke="black" points="153.5,-514.15 150,-504.15 146.5,-514.15 153.5,-514.15"/>
<text text-anchor="middle" x="179.5" y="-525" font-family="Courier,monospace" font-size="10.00">解析公钥数据</text>
</g>
<!-- parse_sig_algo -->
<g id="node20" class="node">
<title>parse_sig_algo</title>
<polygon fill="none" stroke="black" points="187.5,-431 112.5,-431 112.5,-395 187.5,-395 187.5,-431"/>
<text text-anchor="middle" x="150" y="-410.5" font-family="Courier,monospace" font-size="10.00">解析签名算法</text>
</g>
<!-- parse_pub_key&#45;&gt;parse_sig_algo -->
<g id="edge19" class="edge">
<title>parse_pub_key&#45;&gt;parse_sig_algo</title>
<path fill="none" stroke="black" d="M150,-467.81C150,-459.79 150,-450.05 150,-441.07"/>
<polygon fill="black" stroke="black" points="153.5,-441.03 150,-431.03 146.5,-441.03 153.5,-441.03"/>
</g>
<!-- parse_signature -->
<g id="node21" class="node">
<title>parse_signature</title>
<polygon fill="none" stroke="black" points="203.5,-348 96.5,-348 96.5,-312 203.5,-312 203.5,-348"/>
<text text-anchor="middle" x="150" y="-327.5" font-family="Courier,monospace" font-size="10.00">parse_signature</text>
</g>
<!-- parse_sig_algo&#45;&gt;parse_signature -->
<g id="edge20" class="edge">
<title>parse_sig_algo&#45;&gt;parse_signature</title>
<path fill="none" stroke="black" d="M150,-394.82C150,-384.19 150,-370.31 150,-358.2"/>
<polygon fill="black" stroke="black" points="153.5,-358.15 150,-348.15 146.5,-358.15 153.5,-358.15"/>
<text text-anchor="middle" x="174.5" y="-369" font-family="Courier,monospace" font-size="10.00">解析签名值</text>
</g>
<!-- check_extensions -->
<g id="node22" class="node">
<title>check_extensions</title>
<polygon fill="none" stroke="black" points="150,-275 61.51,-257 150,-239 238.49,-257 150,-275"/>
<text text-anchor="middle" x="150" y="-254.5" font-family="Courier,monospace" font-size="10.00">version是否为v1?</text>
</g>
<!-- parse_signature&#45;&gt;check_extensions -->
<g id="edge21" class="edge">
<title>parse_signature&#45;&gt;check_extensions</title>
<path fill="none" stroke="black" d="M150,-311.81C150,-303.79 150,-294.05 150,-285.07"/>
<polygon fill="black" stroke="black" points="153.5,-285.03 150,-275.03 146.5,-285.03 153.5,-285.03"/>
</g>
<!-- skip_extensions -->
<g id="node23" class="node">
<title>skip_extensions</title>
<polygon fill="none" stroke="black" points="127.5,-192 52.5,-192 52.5,-156 127.5,-156 127.5,-192"/>
<text text-anchor="middle" x="90" y="-171.5" font-family="Courier,monospace" font-size="10.00">跳过扩展处理</text>
</g>
<!-- check_extensions&#45;&gt;skip_extensions -->
<g id="edge22" class="edge">
<title>check_extensions&#45;&gt;skip_extensions</title>
<path fill="none" stroke="black" d="M139,-241.14C130.56,-229.75 118.72,-213.77 108.79,-200.37"/>
<polygon fill="black" stroke="black" points="111.36,-197.96 102.6,-192 105.74,-202.12 111.36,-197.96"/>
<text text-anchor="middle" x="129" y="-213" font-family="Courier,monospace" font-size="10.00">是</text>
</g>
<!-- process_extensions -->
<g id="node24" class="node">
<title>process_extensions</title>
<polygon fill="none" stroke="black" points="278,-192 150,-192 146,-188 146,-156 274,-156 278,-160 278,-192"/>
<polyline fill="none" stroke="black" points="274,-188 146,-188 "/>
<polyline fill="none" stroke="black" points="274,-188 274,-156 "/>
<polyline fill="none" stroke="black" points="274,-188 278,-192 "/>
<text text-anchor="middle" x="212" y="-177" font-family="Courier,monospace" font-size="10.00">遍历扩展</text>
<text text-anchor="middle" x="212" y="-166" font-family="Courier,monospace" font-size="10.00">匹配subject_alt_name</text>
</g>
<!-- check_extensions&#45;&gt;process_extensions -->
<g id="edge23" class="edge">
<title>check_extensions&#45;&gt;process_extensions</title>
<path fill="none" stroke="black" d="M161.37,-241.14C170.17,-229.65 182.56,-213.46 192.88,-199.98"/>
<polygon fill="black" stroke="black" points="195.68,-202.07 198.98,-192 190.13,-197.82 195.68,-202.07"/>
<text text-anchor="middle" x="190" y="-213" font-family="Courier,monospace" font-size="10.00">否</text>
</g>
<!-- collect_results -->
<g id="node25" class="node">
<title>collect_results</title>
<polygon fill="none" stroke="black" points="200.5,-119 99.5,-119 99.5,-83 200.5,-83 200.5,-119"/>
<text text-anchor="middle" x="150" y="-98.5" font-family="Courier,monospace" font-size="10.00">组装Parsed结构体</text>
</g>
<!-- skip_extensions&#45;&gt;collect_results -->
<g id="edge25" class="edge">
<title>skip_extensions&#45;&gt;collect_results</title>
<path fill="none" stroke="black" d="M104.52,-155.81C111.89,-147.09 120.98,-136.34 129.09,-126.75"/>
<polygon fill="black" stroke="black" points="131.83,-128.93 135.61,-119.03 126.48,-124.41 131.83,-128.93"/>
</g>
<!-- process_extensions&#45;&gt;collect_results -->
<g id="edge24" class="edge">
<title>process_extensions&#45;&gt;collect_results</title>
<path fill="none" stroke="black" d="M196.99,-155.81C189.38,-147.09 179.99,-136.34 171.61,-126.75"/>
<polygon fill="black" stroke="black" points="174.08,-124.26 164.87,-119.03 168.81,-128.86 174.08,-124.26"/>
</g>
<!-- end -->
<g id="node26" class="node">
<title>end</title>
<polygon fill="none" stroke="black" points="177,-36 123,-36 123,0 177,0 177,-36"/>
<text text-anchor="middle" x="150" y="-15.5" font-family="Courier,monospace" font-size="10.00">end</text>
</g>
<!-- collect_results&#45;&gt;end -->
<g id="edge26" class="edge">
<title>collect_results&#45;&gt;end</title>
<path fill="none" stroke="black" d="M150,-82.82C150,-72.19 150,-58.31 150,-46.2"/>
<polygon fill="black" stroke="black" points="153.5,-46.15 150,-36.15 146.5,-46.15 153.5,-46.15"/>
<text text-anchor="middle" x="170" y="-57" font-family="Courier,monospace" font-size="10.00">返回结果</text>
</g>
</g>
</svg>
