<?xml version="1.0" encoding="UTF-8" standalone="no"?>
<!DOCTYPE svg PUBLIC "-//W3C//DTD SVG 1.1//EN"
 "http://www.w3.org/Graphics/SVG/1.1/DTD/svg11.dtd">
<!-- Generated by graphviz version 2.43.0 (0)
 -->
<!-- Title: flowchart Pages: 1 -->
<svg width="398pt" height="1398pt"
 viewBox="0.00 0.00 398.00 1398.00" xmlns="http://www.w3.org/2000/svg" xmlns:xlink="http://www.w3.org/1999/xlink">
<g id="graph0" class="graph" transform="scale(1 1) rotate(0) translate(4 1394)">
<title>flowchart</title>
<polygon fill="white" stroke="transparent" points="-4,4 -4,-1394 394,-1394 394,4 -4,4"/>
<g id="clust1" class="cluster">
<title>cluster_x6</title>
<polygon fill="none" stroke="black" stroke-dasharray="5,2" points="8,-8 8,-1251.5 212,-1251.5 212,-8 8,-8"/>
<text text-anchor="middle" x="110" y="-1236.3" font-family="Times,serif" font-size="14.00">处理x6的细节</text>
</g>
<!-- start -->
<g id="node1" class="node">
<title>start</title>
<ellipse fill="none" stroke="black" cx="226" cy="-1372" rx="29.5" ry="18"/>
<text text-anchor="middle" x="226" y="-1368.3" font-family="Helvetica,sans-Serif" font-size="14.00">开始</text>
</g>
<!-- process_x6 -->
<g id="node3" class="node">
<title>process_x6</title>
<path fill="none" stroke="black" d="M290,-1318C290,-1318 162,-1318 162,-1318 156,-1318 150,-1312 150,-1306 150,-1306 150,-1277 150,-1277 150,-1271 156,-1265 162,-1265 162,-1265 290,-1265 290,-1265 296,-1265 302,-1271 302,-1277 302,-1277 302,-1306 302,-1306 302,-1312 296,-1318 290,-1318"/>
<text text-anchor="middle" x="226" y="-1302.8" font-family="Helvetica,sans-Serif" font-size="14.00">处理arg1[0] (x6)</text>
<text text-anchor="middle" x="226" y="-1287.8" font-family="Helvetica,sans-Serif" font-size="14.00">提取x7&#45;x20</text>
<text text-anchor="middle" x="226" y="-1272.8" font-family="Helvetica,sans-Serif" font-size="14.00">存入out1[0]&#45;out1[7]</text>
</g>
<!-- start&#45;&gt;process_x6 -->
<g id="edge1" class="edge">
<title>start&#45;&gt;process_x6</title>
<path fill="none" stroke="black" d="M226,-1353.97C226,-1346.45 226,-1337.31 226,-1328.4"/>
<polygon fill="black" stroke="black" points="229.5,-1328.16 226,-1318.16 222.5,-1328.16 229.5,-1328.16"/>
</g>
<!-- end -->
<g id="node2" class="node">
<title>end</title>
<ellipse fill="none" stroke="black" cx="305" cy="-765" rx="29.5" ry="18"/>
<text text-anchor="middle" x="305" y="-761.3" font-family="Helvetica,sans-Serif" font-size="14.00">结束</text>
</g>
<!-- process_x5 -->
<g id="node4" class="node">
<title>process_x5</title>
<path fill="none" stroke="black" d="M371.5,-1229C371.5,-1229 234.5,-1229 234.5,-1229 228.5,-1229 222.5,-1223 222.5,-1217 222.5,-1217 222.5,-1188 222.5,-1188 222.5,-1182 228.5,-1176 234.5,-1176 234.5,-1176 371.5,-1176 371.5,-1176 377.5,-1176 383.5,-1182 383.5,-1188 383.5,-1188 383.5,-1217 383.5,-1217 383.5,-1223 377.5,-1229 371.5,-1229"/>
<text text-anchor="middle" x="303" y="-1213.8" font-family="Helvetica,sans-Serif" font-size="14.00">处理arg1[1] (x5)</text>
<text text-anchor="middle" x="303" y="-1198.8" font-family="Helvetica,sans-Serif" font-size="14.00">提取x21&#45;x34</text>
<text text-anchor="middle" x="303" y="-1183.8" font-family="Helvetica,sans-Serif" font-size="14.00">存入out1[8]&#45;out1[15]</text>
</g>
<!-- process_x6&#45;&gt;process_x5 -->
<g id="edge2" class="edge">
<title>process_x6&#45;&gt;process_x5</title>
<path fill="none" stroke="black" d="M248.69,-1264.87C256.45,-1256.1 265.25,-1246.15 273.47,-1236.86"/>
<polygon fill="black" stroke="black" points="276.2,-1239.06 280.21,-1229.25 270.96,-1234.42 276.2,-1239.06"/>
</g>
<!-- x6_start -->
<g id="node9" class="node">
<title>x6_start</title>
<polygon fill="none" stroke="black" points="191,-1220.5 91,-1220.5 91,-1184.5 197,-1184.5 197,-1214.5 191,-1220.5"/>
<polyline fill="none" stroke="black" points="191,-1220.5 191,-1214.5 "/>
<polyline fill="none" stroke="black" points="197,-1214.5 191,-1214.5 "/>
<text text-anchor="middle" x="144" y="-1198.8" font-family="Helvetica,sans-Serif" font-size="14.00">x6 = arg1[0]</text>
</g>
<!-- process_x6&#45;&gt;x6_start -->
<!-- process_x4 -->
<g id="node5" class="node">
<title>process_x4</title>
<path fill="none" stroke="black" d="M378,-1140C378,-1140 232,-1140 232,-1140 226,-1140 220,-1134 220,-1128 220,-1128 220,-1099 220,-1099 220,-1093 226,-1087 232,-1087 232,-1087 378,-1087 378,-1087 384,-1087 390,-1093 390,-1099 390,-1099 390,-1128 390,-1128 390,-1134 384,-1140 378,-1140"/>
<text text-anchor="middle" x="305" y="-1124.8" font-family="Helvetica,sans-Serif" font-size="14.00">处理arg1[2] (x4)</text>
<text text-anchor="middle" x="305" y="-1109.8" font-family="Helvetica,sans-Serif" font-size="14.00">提取x35&#45;x48</text>
<text text-anchor="middle" x="305" y="-1094.8" font-family="Helvetica,sans-Serif" font-size="14.00">存入out1[16]&#45;out1[23]</text>
</g>
<!-- process_x5&#45;&gt;process_x4 -->
<g id="edge3" class="edge">
<title>process_x5&#45;&gt;process_x4</title>
<path fill="none" stroke="black" d="M303.59,-1175.87C303.77,-1167.89 303.98,-1158.93 304.18,-1150.38"/>
<polygon fill="black" stroke="black" points="307.68,-1150.33 304.41,-1140.25 300.68,-1150.17 307.68,-1150.33"/>
</g>
<!-- process_x3 -->
<g id="node6" class="node">
<title>process_x3</title>
<path fill="none" stroke="black" d="M378,-1051C378,-1051 232,-1051 232,-1051 226,-1051 220,-1045 220,-1039 220,-1039 220,-1010 220,-1010 220,-1004 226,-998 232,-998 232,-998 378,-998 378,-998 384,-998 390,-1004 390,-1010 390,-1010 390,-1039 390,-1039 390,-1045 384,-1051 378,-1051"/>
<text text-anchor="middle" x="305" y="-1035.8" font-family="Helvetica,sans-Serif" font-size="14.00">处理arg1[3] (x3)</text>
<text text-anchor="middle" x="305" y="-1020.8" font-family="Helvetica,sans-Serif" font-size="14.00">提取x49&#45;x62</text>
<text text-anchor="middle" x="305" y="-1005.8" font-family="Helvetica,sans-Serif" font-size="14.00">存入out1[24]&#45;out1[31]</text>
</g>
<!-- process_x4&#45;&gt;process_x3 -->
<g id="edge4" class="edge">
<title>process_x4&#45;&gt;process_x3</title>
<path fill="none" stroke="black" d="M305,-1086.87C305,-1078.89 305,-1069.93 305,-1061.38"/>
<polygon fill="black" stroke="black" points="308.5,-1061.25 305,-1051.25 301.5,-1061.25 308.5,-1061.25"/>
</g>
<!-- process_x2 -->
<g id="node7" class="node">
<title>process_x2</title>
<path fill="none" stroke="black" d="M378,-962C378,-962 232,-962 232,-962 226,-962 220,-956 220,-950 220,-950 220,-921 220,-921 220,-915 226,-909 232,-909 232,-909 378,-909 378,-909 384,-909 390,-915 390,-921 390,-921 390,-950 390,-950 390,-956 384,-962 378,-962"/>
<text text-anchor="middle" x="305" y="-946.8" font-family="Helvetica,sans-Serif" font-size="14.00">处理arg1[4] (x2)</text>
<text text-anchor="middle" x="305" y="-931.8" font-family="Helvetica,sans-Serif" font-size="14.00">提取x63&#45;x76</text>
<text text-anchor="middle" x="305" y="-916.8" font-family="Helvetica,sans-Serif" font-size="14.00">存入out1[32]&#45;out1[39]</text>
</g>
<!-- process_x3&#45;&gt;process_x2 -->
<g id="edge5" class="edge">
<title>process_x3&#45;&gt;process_x2</title>
<path fill="none" stroke="black" d="M305,-997.87C305,-989.89 305,-980.93 305,-972.38"/>
<polygon fill="black" stroke="black" points="308.5,-972.25 305,-962.25 301.5,-972.25 308.5,-972.25"/>
</g>
<!-- process_x1 -->
<g id="node8" class="node">
<title>process_x1</title>
<path fill="none" stroke="black" d="M378,-873C378,-873 232,-873 232,-873 226,-873 220,-867 220,-861 220,-861 220,-832 220,-832 220,-826 226,-820 232,-820 232,-820 378,-820 378,-820 384,-820 390,-826 390,-832 390,-832 390,-861 390,-861 390,-867 384,-873 378,-873"/>
<text text-anchor="middle" x="305" y="-857.8" font-family="Helvetica,sans-Serif" font-size="14.00">处理arg1[5] (x1)</text>
<text text-anchor="middle" x="305" y="-842.8" font-family="Helvetica,sans-Serif" font-size="14.00">提取x77&#45;x90</text>
<text text-anchor="middle" x="305" y="-827.8" font-family="Helvetica,sans-Serif" font-size="14.00">存入out1[40]&#45;out1[47]</text>
</g>
<!-- process_x2&#45;&gt;process_x1 -->
<g id="edge6" class="edge">
<title>process_x2&#45;&gt;process_x1</title>
<path fill="none" stroke="black" d="M305,-908.87C305,-900.89 305,-891.93 305,-883.38"/>
<polygon fill="black" stroke="black" points="308.5,-883.25 305,-873.25 301.5,-883.25 308.5,-883.25"/>
</g>
<!-- process_x1&#45;&gt;end -->
<g id="edge7" class="edge">
<title>process_x1&#45;&gt;end</title>
<path fill="none" stroke="black" d="M305,-819.91C305,-811.48 305,-802.08 305,-793.52"/>
<polygon fill="black" stroke="black" points="308.5,-793.26 305,-783.26 301.5,-793.26 308.5,-793.26"/>
</g>
<!-- extract_0 -->
<g id="node10" class="node">
<title>extract_0</title>
<path fill="none" stroke="black" d="M189,-1132.5C189,-1132.5 87,-1132.5 87,-1132.5 81,-1132.5 75,-1126.5 75,-1120.5 75,-1120.5 75,-1106.5 75,-1106.5 75,-1100.5 81,-1094.5 87,-1094.5 87,-1094.5 189,-1094.5 189,-1094.5 195,-1094.5 201,-1100.5 201,-1106.5 201,-1106.5 201,-1120.5 201,-1120.5 201,-1126.5 195,-1132.5 189,-1132.5"/>
<text text-anchor="middle" x="138" y="-1117.3" font-family="Helvetica,sans-Serif" font-size="14.00">x7 = x6 &amp; 0xFF</text>
<text text-anchor="middle" x="138" y="-1102.3" font-family="Helvetica,sans-Serif" font-size="14.00">out1[0] = x7</text>
</g>
<!-- x6_start&#45;&gt;extract_0 -->
<g id="edge8" class="edge">
<title>x6_start&#45;&gt;extract_0</title>
<path fill="none" stroke="black" d="M142.81,-1184.31C142,-1172.51 140.9,-1156.57 139.96,-1142.9"/>
<polygon fill="black" stroke="black" points="143.42,-1142.29 139.24,-1132.55 136.44,-1142.77 143.42,-1142.29"/>
</g>
<!-- shift_8 -->
<g id="node11" class="node">
<title>shift_8</title>
<path fill="none" stroke="black" d="M169,-1042.5C169,-1042.5 79,-1042.5 79,-1042.5 73,-1042.5 67,-1036.5 67,-1030.5 67,-1030.5 67,-1018.5 67,-1018.5 67,-1012.5 73,-1006.5 79,-1006.5 79,-1006.5 169,-1006.5 169,-1006.5 175,-1006.5 181,-1012.5 181,-1018.5 181,-1018.5 181,-1030.5 181,-1030.5 181,-1036.5 175,-1042.5 169,-1042.5"/>
<text text-anchor="middle" x="124" y="-1020.8" font-family="Helvetica,sans-Serif" font-size="14.00">x8 = x6 &gt;&gt; 8</text>
</g>
<!-- extract_0&#45;&gt;shift_8 -->
<g id="edge9" class="edge">
<title>extract_0&#45;&gt;shift_8</title>
<path fill="none" stroke="black" d="M135.1,-1094.47C133.17,-1082.46 130.59,-1066.43 128.4,-1052.86"/>
<polygon fill="black" stroke="black" points="131.8,-1051.93 126.75,-1042.62 124.89,-1053.04 131.8,-1051.93"/>
</g>
<!-- extract_1 -->
<g id="node12" class="node">
<title>extract_1</title>
<path fill="none" stroke="black" d="M175,-954.5C175,-954.5 73,-954.5 73,-954.5 67,-954.5 61,-948.5 61,-942.5 61,-942.5 61,-928.5 61,-928.5 61,-922.5 67,-916.5 73,-916.5 73,-916.5 175,-916.5 175,-916.5 181,-916.5 187,-922.5 187,-928.5 187,-928.5 187,-942.5 187,-942.5 187,-948.5 181,-954.5 175,-954.5"/>
<text text-anchor="middle" x="124" y="-939.3" font-family="Helvetica,sans-Serif" font-size="14.00">x9 = x8 &amp; 0xFF</text>
<text text-anchor="middle" x="124" y="-924.3" font-family="Helvetica,sans-Serif" font-size="14.00">out1[1] = x9</text>
</g>
<!-- shift_8&#45;&gt;extract_1 -->
<g id="edge10" class="edge">
<title>shift_8&#45;&gt;extract_1</title>
<path fill="none" stroke="black" d="M124,-1006.31C124,-994.51 124,-978.57 124,-964.9"/>
<polygon fill="black" stroke="black" points="127.5,-964.55 124,-954.55 120.5,-964.55 127.5,-964.55"/>
</g>
<!-- shift_16 -->
<g id="node13" class="node">
<title>shift_16</title>
<path fill="none" stroke="black" d="M166.5,-864.5C166.5,-864.5 67.5,-864.5 67.5,-864.5 61.5,-864.5 55.5,-858.5 55.5,-852.5 55.5,-852.5 55.5,-840.5 55.5,-840.5 55.5,-834.5 61.5,-828.5 67.5,-828.5 67.5,-828.5 166.5,-828.5 166.5,-828.5 172.5,-828.5 178.5,-834.5 178.5,-840.5 178.5,-840.5 178.5,-852.5 178.5,-852.5 178.5,-858.5 172.5,-864.5 166.5,-864.5"/>
<text text-anchor="middle" x="117" y="-842.8" font-family="Helvetica,sans-Serif" font-size="14.00">x10 = x8 &gt;&gt; 8</text>
</g>
<!-- extract_1&#45;&gt;shift_16 -->
<g id="edge11" class="edge">
<title>extract_1&#45;&gt;shift_16</title>
<path fill="none" stroke="black" d="M122.55,-916.47C121.58,-904.46 120.29,-888.43 119.2,-874.86"/>
<polygon fill="black" stroke="black" points="122.67,-874.3 118.38,-864.62 115.69,-874.86 122.67,-874.3"/>
</g>
<!-- extract_2 -->
<g id="node14" class="node">
<title>extract_2</title>
<path fill="none" stroke="black" d="M177,-784C177,-784 57,-784 57,-784 51,-784 45,-778 45,-772 45,-772 45,-758 45,-758 45,-752 51,-746 57,-746 57,-746 177,-746 177,-746 183,-746 189,-752 189,-758 189,-758 189,-772 189,-772 189,-778 183,-784 177,-784"/>
<text text-anchor="middle" x="117" y="-768.8" font-family="Helvetica,sans-Serif" font-size="14.00">x11 = x10 &amp; 0xFF</text>
<text text-anchor="middle" x="117" y="-753.8" font-family="Helvetica,sans-Serif" font-size="14.00">out1[2] = x11</text>
</g>
<!-- shift_16&#45;&gt;extract_2 -->
<g id="edge12" class="edge">
<title>shift_16&#45;&gt;extract_2</title>
<path fill="none" stroke="black" d="M117,-828.25C117,-818.35 117,-805.68 117,-794.35"/>
<polygon fill="black" stroke="black" points="120.5,-794.04 117,-784.04 113.5,-794.04 120.5,-794.04"/>
</g>
<!-- shift_24 -->
<g id="node15" class="node">
<title>shift_24</title>
<path fill="none" stroke="black" d="M167,-710C167,-710 59,-710 59,-710 53,-710 47,-704 47,-698 47,-698 47,-686 47,-686 47,-680 53,-674 59,-674 59,-674 167,-674 167,-674 173,-674 179,-680 179,-686 179,-686 179,-698 179,-698 179,-704 173,-710 167,-710"/>
<text text-anchor="middle" x="113" y="-688.3" font-family="Helvetica,sans-Serif" font-size="14.00">x12 = x10 &gt;&gt; 8</text>
</g>
<!-- extract_2&#45;&gt;shift_24 -->
<g id="edge13" class="edge">
<title>extract_2&#45;&gt;shift_24</title>
<path fill="none" stroke="black" d="M115.97,-745.72C115.53,-737.89 115,-728.59 114.52,-719.99"/>
<polygon fill="black" stroke="black" points="118.01,-719.79 113.96,-710 111.03,-720.18 118.01,-719.79"/>
</g>
<!-- extract_3 -->
<g id="node16" class="node">
<title>extract_3</title>
<path fill="none" stroke="black" d="M173,-638C173,-638 53,-638 53,-638 47,-638 41,-632 41,-626 41,-626 41,-612 41,-612 41,-606 47,-600 53,-600 53,-600 173,-600 173,-600 179,-600 185,-606 185,-612 185,-612 185,-626 185,-626 185,-632 179,-638 173,-638"/>
<text text-anchor="middle" x="113" y="-622.8" font-family="Helvetica,sans-Serif" font-size="14.00">x13 = x12 &amp; 0xFF</text>
<text text-anchor="middle" x="113" y="-607.8" font-family="Helvetica,sans-Serif" font-size="14.00">out1[3] = x13</text>
</g>
<!-- shift_24&#45;&gt;extract_3 -->
<g id="edge14" class="edge">
<title>shift_24&#45;&gt;extract_3</title>
<path fill="none" stroke="black" d="M113,-673.81C113,-666.11 113,-656.82 113,-648.15"/>
<polygon fill="black" stroke="black" points="116.5,-648.02 113,-638.02 109.5,-648.02 116.5,-648.02"/>
</g>
<!-- shift_32 -->
<g id="node17" class="node">
<title>shift_32</title>
<path fill="none" stroke="black" d="M165,-564C165,-564 57,-564 57,-564 51,-564 45,-558 45,-552 45,-552 45,-540 45,-540 45,-534 51,-528 57,-528 57,-528 165,-528 165,-528 171,-528 177,-534 177,-540 177,-540 177,-552 177,-552 177,-558 171,-564 165,-564"/>
<text text-anchor="middle" x="111" y="-542.3" font-family="Helvetica,sans-Serif" font-size="14.00">x14 = x12 &gt;&gt; 8</text>
</g>
<!-- extract_3&#45;&gt;shift_32 -->
<g id="edge15" class="edge">
<title>extract_3&#45;&gt;shift_32</title>
<path fill="none" stroke="black" d="M112.48,-599.72C112.27,-591.97 112.01,-582.79 111.77,-574.27"/>
<polygon fill="black" stroke="black" points="115.26,-573.9 111.48,-564 108.26,-574.1 115.26,-573.9"/>
</g>
<!-- extract_4 -->
<g id="node18" class="node">
<title>extract_4</title>
<path fill="none" stroke="black" d="M171,-492C171,-492 51,-492 51,-492 45,-492 39,-486 39,-480 39,-480 39,-466 39,-466 39,-460 45,-454 51,-454 51,-454 171,-454 171,-454 177,-454 183,-460 183,-466 183,-466 183,-480 183,-480 183,-486 177,-492 171,-492"/>
<text text-anchor="middle" x="111" y="-476.8" font-family="Helvetica,sans-Serif" font-size="14.00">x15 = x14 &amp; 0xFF</text>
<text text-anchor="middle" x="111" y="-461.8" font-family="Helvetica,sans-Serif" font-size="14.00">out1[4] = x15</text>
</g>
<!-- shift_32&#45;&gt;extract_4 -->
<g id="edge16" class="edge">
<title>shift_32&#45;&gt;extract_4</title>
<path fill="none" stroke="black" d="M111,-527.81C111,-520.11 111,-510.82 111,-502.15"/>
<polygon fill="black" stroke="black" points="114.5,-502.02 111,-492.02 107.5,-502.02 114.5,-502.02"/>
</g>
<!-- shift_40 -->
<g id="node19" class="node">
<title>shift_40</title>
<path fill="none" stroke="black" d="M164,-418C164,-418 56,-418 56,-418 50,-418 44,-412 44,-406 44,-406 44,-394 44,-394 44,-388 50,-382 56,-382 56,-382 164,-382 164,-382 170,-382 176,-388 176,-394 176,-394 176,-406 176,-406 176,-412 170,-418 164,-418"/>
<text text-anchor="middle" x="110" y="-396.3" font-family="Helvetica,sans-Serif" font-size="14.00">x16 = x14 &gt;&gt; 8</text>
</g>
<!-- extract_4&#45;&gt;shift_40 -->
<g id="edge17" class="edge">
<title>extract_4&#45;&gt;shift_40</title>
<path fill="none" stroke="black" d="M110.74,-453.72C110.63,-445.97 110.5,-436.79 110.38,-428.27"/>
<polygon fill="black" stroke="black" points="113.88,-427.95 110.24,-418 106.88,-428.05 113.88,-427.95"/>
</g>
<!-- extract_5 -->
<g id="node20" class="node">
<title>extract_5</title>
<path fill="none" stroke="black" d="M170,-346C170,-346 50,-346 50,-346 44,-346 38,-340 38,-334 38,-334 38,-320 38,-320 38,-314 44,-308 50,-308 50,-308 170,-308 170,-308 176,-308 182,-314 182,-320 182,-320 182,-334 182,-334 182,-340 176,-346 170,-346"/>
<text text-anchor="middle" x="110" y="-330.8" font-family="Helvetica,sans-Serif" font-size="14.00">x17 = x16 &amp; 0xFF</text>
<text text-anchor="middle" x="110" y="-315.8" font-family="Helvetica,sans-Serif" font-size="14.00">out1[5] = x17</text>
</g>
<!-- shift_40&#45;&gt;extract_5 -->
<g id="edge18" class="edge">
<title>shift_40&#45;&gt;extract_5</title>
<path fill="none" stroke="black" d="M110,-381.81C110,-374.11 110,-364.82 110,-356.15"/>
<polygon fill="black" stroke="black" points="113.5,-356.02 110,-346.02 106.5,-356.02 113.5,-356.02"/>
</g>
<!-- shift_48 -->
<g id="node21" class="node">
<title>shift_48</title>
<path fill="none" stroke="black" d="M164,-272C164,-272 56,-272 56,-272 50,-272 44,-266 44,-260 44,-260 44,-248 44,-248 44,-242 50,-236 56,-236 56,-236 164,-236 164,-236 170,-236 176,-242 176,-248 176,-248 176,-260 176,-260 176,-266 170,-272 164,-272"/>
<text text-anchor="middle" x="110" y="-250.3" font-family="Helvetica,sans-Serif" font-size="14.00">x18 = x16 &gt;&gt; 8</text>
</g>
<!-- extract_5&#45;&gt;shift_48 -->
<g id="edge19" class="edge">
<title>extract_5&#45;&gt;shift_48</title>
<path fill="none" stroke="black" d="M110,-307.72C110,-299.97 110,-290.79 110,-282.27"/>
<polygon fill="black" stroke="black" points="113.5,-282 110,-272 106.5,-282 113.5,-282"/>
</g>
<!-- extract_6 -->
<g id="node22" class="node">
<title>extract_6</title>
<path fill="none" stroke="black" d="M170,-200C170,-200 50,-200 50,-200 44,-200 38,-194 38,-188 38,-188 38,-174 38,-174 38,-168 44,-162 50,-162 50,-162 170,-162 170,-162 176,-162 182,-168 182,-174 182,-174 182,-188 182,-188 182,-194 176,-200 170,-200"/>
<text text-anchor="middle" x="110" y="-184.8" font-family="Helvetica,sans-Serif" font-size="14.00">x19 = x18 &amp; 0xFF</text>
<text text-anchor="middle" x="110" y="-169.8" font-family="Helvetica,sans-Serif" font-size="14.00">out1[6] = x19</text>
</g>
<!-- shift_48&#45;&gt;extract_6 -->
<g id="edge20" class="edge">
<title>shift_48&#45;&gt;extract_6</title>
<path fill="none" stroke="black" d="M110,-235.81C110,-228.11 110,-218.82 110,-210.15"/>
<polygon fill="black" stroke="black" points="113.5,-210.02 110,-200.02 106.5,-210.02 113.5,-210.02"/>
</g>
<!-- shift_56 -->
<g id="node23" class="node">
<title>shift_56</title>
<path fill="none" stroke="black" d="M164,-126C164,-126 56,-126 56,-126 50,-126 44,-120 44,-114 44,-114 44,-102 44,-102 44,-96 50,-90 56,-90 56,-90 164,-90 164,-90 170,-90 176,-96 176,-102 176,-102 176,-114 176,-114 176,-120 170,-126 164,-126"/>
<text text-anchor="middle" x="110" y="-104.3" font-family="Helvetica,sans-Serif" font-size="14.00">x20 = x18 &gt;&gt; 8</text>
</g>
<!-- extract_6&#45;&gt;shift_56 -->
<g id="edge21" class="edge">
<title>extract_6&#45;&gt;shift_56</title>
<path fill="none" stroke="black" d="M110,-161.72C110,-153.97 110,-144.79 110,-136.27"/>
<polygon fill="black" stroke="black" points="113.5,-136 110,-126 106.5,-136 113.5,-136"/>
</g>
<!-- extract_7 -->
<g id="node24" class="node">
<title>extract_7</title>
<path fill="none" stroke="black" d="M192,-54C192,-54 28,-54 28,-54 22,-54 16,-48 16,-42 16,-42 16,-28 16,-28 16,-22 22,-16 28,-16 28,-16 192,-16 192,-16 198,-16 204,-22 204,-28 204,-28 204,-42 204,-42 204,-48 198,-54 192,-54"/>
<text text-anchor="middle" x="110" y="-38.8" font-family="Helvetica,sans-Serif" font-size="14.00">x20_trunc = x20 &amp; 0xFF</text>
<text text-anchor="middle" x="110" y="-23.8" font-family="Helvetica,sans-Serif" font-size="14.00">out1[7] = x20_trunc</text>
</g>
<!-- shift_56&#45;&gt;extract_7 -->
<g id="edge22" class="edge">
<title>shift_56&#45;&gt;extract_7</title>
<path fill="none" stroke="black" d="M110,-89.81C110,-82.11 110,-72.82 110,-64.15"/>
<polygon fill="black" stroke="black" points="113.5,-64.02 110,-54.02 106.5,-64.02 113.5,-64.02"/>
</g>
</g>
</svg>
