<?xml version="1.0" encoding="UTF-8" standalone="no"?>
<!DOCTYPE svg PUBLIC "-//W3C//DTD SVG 1.1//EN"
 "http://www.w3.org/Graphics/SVG/1.1/DTD/svg11.dtd">
<!-- Generated by graphviz version 2.43.0 (0)
 -->
<!-- Title: flowchart Pages: 1 -->
<svg width="369pt" height="1696pt"
 viewBox="0.00 0.00 369.00 1696.00" xmlns="http://www.w3.org/2000/svg" xmlns:xlink="http://www.w3.org/1999/xlink">
<g id="graph0" class="graph" transform="scale(1 1) rotate(0) translate(4 1692)">
<title>flowchart</title>
<polygon fill="white" stroke="transparent" points="-4,4 -4,-1692 365,-1692 365,4 -4,4"/>
<g id="clust1" class="cluster">
<title>cluster_benchmarks</title>
<polygon fill="lightgrey" stroke="lightgrey" points="116,-79 116,-906 270,-906 270,-79 116,-79"/>
<text text-anchor="middle" x="193" y="-890.8" font-family="Times,serif" font-size="14.00">运行基准测试</text>
</g>
<!-- start -->
<g id="node1" class="node">
<title>start</title>
<path fill="none" stroke="black" d="M287,-1688C287,-1688 257,-1688 257,-1688 251,-1688 245,-1682 245,-1676 245,-1676 245,-1664 245,-1664 245,-1658 251,-1652 257,-1652 257,-1652 287,-1652 287,-1652 293,-1652 299,-1658 299,-1664 299,-1664 299,-1676 299,-1676 299,-1682 293,-1688 287,-1688"/>
<text text-anchor="middle" x="272" y="-1666.3" font-family="Arial" font-size="14.00">开始</text>
</g>
<!-- init_arena -->
<g id="node2" class="node">
<title>init_arena</title>
<path fill="none" stroke="black" d="M335.5,-1615C335.5,-1615 208.5,-1615 208.5,-1615 202.5,-1615 196.5,-1609 196.5,-1603 196.5,-1603 196.5,-1591 196.5,-1591 196.5,-1585 202.5,-1579 208.5,-1579 208.5,-1579 335.5,-1579 335.5,-1579 341.5,-1579 347.5,-1585 347.5,-1591 347.5,-1591 347.5,-1603 347.5,-1603 347.5,-1609 341.5,-1615 335.5,-1615"/>
<text text-anchor="middle" x="272" y="-1593.3" font-family="Arial" font-size="14.00">初始化 ArenaAllocator</text>
</g>
<!-- start&#45;&gt;init_arena -->
<g id="edge1" class="edge">
<title>start&#45;&gt;init_arena</title>
<path fill="none" stroke="black" d="M272,-1651.81C272,-1643.79 272,-1634.05 272,-1625.07"/>
<polygon fill="black" stroke="black" points="275.5,-1625.03 272,-1615.03 268.5,-1625.03 275.5,-1625.03"/>
</g>
<!-- get_args -->
<g id="node3" class="node">
<title>get_args</title>
<path fill="none" stroke="black" d="M318,-1542C318,-1542 226,-1542 226,-1542 220,-1542 214,-1536 214,-1530 214,-1530 214,-1518 214,-1518 214,-1512 220,-1506 226,-1506 226,-1506 318,-1506 318,-1506 324,-1506 330,-1512 330,-1518 330,-1518 330,-1530 330,-1530 330,-1536 324,-1542 318,-1542"/>
<text text-anchor="middle" x="272" y="-1520.3" font-family="Arial" font-size="14.00">解析命令行参数</text>
</g>
<!-- init_arena&#45;&gt;get_args -->
<g id="edge2" class="edge">
<title>init_arena&#45;&gt;get_args</title>
<path fill="none" stroke="black" d="M272,-1578.81C272,-1570.79 272,-1561.05 272,-1552.07"/>
<polygon fill="black" stroke="black" points="275.5,-1552.03 272,-1542.03 268.5,-1552.03 275.5,-1552.03"/>
</g>
<!-- args_loop -->
<g id="node4" class="node">
<title>args_loop</title>
<path fill="none" stroke="black" d="M311,-1469C311,-1469 233,-1469 233,-1469 227,-1469 221,-1463 221,-1457 221,-1457 221,-1443 221,-1443 221,-1437 227,-1431 233,-1431 233,-1431 311,-1431 311,-1431 317,-1431 323,-1437 323,-1443 323,-1443 323,-1457 323,-1457 323,-1463 317,-1469 311,-1469"/>
<text text-anchor="middle" x="272" y="-1453.8" font-family="Arial" font-size="14.00">i=1</text>
<text text-anchor="middle" x="272" y="-1438.8" font-family="Arial" font-size="14.00">循环处理参数</text>
</g>
<!-- get_args&#45;&gt;args_loop -->
<g id="edge3" class="edge">
<title>get_args&#45;&gt;args_loop</title>
<path fill="none" stroke="black" d="M272,-1505.94C272,-1497.99 272,-1488.31 272,-1479.31"/>
<polygon fill="black" stroke="black" points="275.5,-1479.2 272,-1469.2 268.5,-1479.2 275.5,-1479.2"/>
</g>
<!-- args_loop&#45;&gt;args_loop -->
<g id="edge17" class="edge">
<title>args_loop&#45;&gt;args_loop</title>
<path fill="none" stroke="black" stroke-dasharray="1,5" d="M323.15,-1456.49C333.55,-1455.79 341,-1453.62 341,-1450 341,-1447.74 338.09,-1446.04 333.37,-1444.92"/>
<polygon fill="black" stroke="black" points="333.54,-1441.41 323.15,-1443.51 332.58,-1448.34 333.54,-1441.41"/>
<text text-anchor="middle" x="351" y="-1446.3" font-family="Arial" font-size="14.00">i++</text>
</g>
<!-- check_mode -->
<g id="node5" class="node">
<title>check_mode</title>
<path fill="none" stroke="black" d="M232,-1394C232,-1394 142,-1394 142,-1394 136,-1394 130,-1388 130,-1382 130,-1382 130,-1370 130,-1370 130,-1364 136,-1358 142,-1358 142,-1358 232,-1358 232,-1358 238,-1358 244,-1364 244,-1370 244,-1370 244,-1382 244,-1382 244,-1388 238,-1394 232,-1394"/>
<text text-anchor="middle" x="187" y="-1372.3" font-family="Arial" font-size="14.00">参数是 &#45;&#45;mode?</text>
</g>
<!-- args_loop&#45;&gt;check_mode -->
<g id="edge4" class="edge">
<title>args_loop&#45;&gt;check_mode</title>
<path fill="none" stroke="black" d="M250.55,-1430.83C239.76,-1421.69 226.55,-1410.5 214.98,-1400.7"/>
<polygon fill="black" stroke="black" points="217.16,-1397.96 207.27,-1394.17 212.64,-1403.31 217.16,-1397.96"/>
</g>
<!-- print_mode -->
<g id="node6" class="node">
<title>print_mode</title>
<path fill="none" stroke="black" d="M104,-1307C104,-1307 12,-1307 12,-1307 6,-1307 0,-1301 0,-1295 0,-1295 0,-1283 0,-1283 0,-1277 6,-1271 12,-1271 12,-1271 104,-1271 104,-1271 110,-1271 116,-1277 116,-1283 116,-1283 116,-1295 116,-1295 116,-1301 110,-1307 104,-1307"/>
<text text-anchor="middle" x="58" y="-1285.3" font-family="Arial" font-size="14.00">输出模式并退出</text>
</g>
<!-- check_mode&#45;&gt;print_mode -->
<g id="edge5" class="edge">
<title>check_mode&#45;&gt;print_mode</title>
<path fill="none" stroke="black" d="M160.89,-1357.8C141.22,-1344.84 114.06,-1326.94 92.59,-1312.79"/>
<polygon fill="black" stroke="black" points="94.34,-1309.75 84.07,-1307.18 90.49,-1315.6 94.34,-1309.75"/>
<text text-anchor="middle" x="137.5" y="-1328.8" font-family="Arial" font-size="14.00">是</text>
</g>
<!-- check_seed -->
<g id="node7" class="node">
<title>check_seed</title>
<path fill="none" stroke="black" d="M231.5,-1307C231.5,-1307 146.5,-1307 146.5,-1307 140.5,-1307 134.5,-1301 134.5,-1295 134.5,-1295 134.5,-1283 134.5,-1283 134.5,-1277 140.5,-1271 146.5,-1271 146.5,-1271 231.5,-1271 231.5,-1271 237.5,-1271 243.5,-1277 243.5,-1283 243.5,-1283 243.5,-1295 243.5,-1295 243.5,-1301 237.5,-1307 231.5,-1307"/>
<text text-anchor="middle" x="189" y="-1285.3" font-family="Arial" font-size="14.00">参数是 &#45;&#45;seed?</text>
</g>
<!-- check_mode&#45;&gt;check_seed -->
<g id="edge6" class="edge">
<title>check_mode&#45;&gt;check_seed</title>
<path fill="none" stroke="black" d="M187.4,-1357.8C187.68,-1346.16 188.05,-1330.55 188.36,-1317.24"/>
<polygon fill="black" stroke="black" points="191.86,-1317.26 188.6,-1307.18 184.86,-1317.09 191.86,-1317.26"/>
<text text-anchor="middle" x="195.5" y="-1328.8" font-family="Arial" font-size="14.00">否</text>
</g>
<!-- end -->
<g id="node26" class="node">
<title>end</title>
<path fill="none" stroke="black" d="M167,-36C167,-36 117,-36 117,-36 111,-36 105,-30 105,-24 105,-24 105,-12 105,-12 105,-6 111,0 117,0 117,0 167,0 167,0 173,0 179,-6 179,-12 179,-12 179,-24 179,-24 179,-30 173,-36 167,-36"/>
<text text-anchor="middle" x="142" y="-14.3" font-family="Arial" font-size="14.00">退出程序</text>
</g>
<!-- print_mode&#45;&gt;end -->
<g id="edge30" class="edge">
<title>print_mode&#45;&gt;end</title>
<path fill="none" stroke="black" d="M58,-1270.87C58,-1253.51 58,-1225.89 58,-1202 58,-1202 58,-1202 58,-105 58,-78.1 79.29,-56.49 100.44,-41.66"/>
<polygon fill="black" stroke="black" points="102.4,-44.55 108.8,-36.11 98.53,-38.72 102.4,-44.55"/>
</g>
<!-- parse_seed -->
<g id="node8" class="node">
<title>parse_seed</title>
<path fill="none" stroke="black" d="M305,-1220C305,-1220 227,-1220 227,-1220 221,-1220 215,-1214 215,-1208 215,-1208 215,-1194 215,-1194 215,-1188 221,-1182 227,-1182 227,-1182 305,-1182 305,-1182 311,-1182 317,-1188 317,-1194 317,-1194 317,-1208 317,-1208 317,-1214 311,-1220 305,-1220"/>
<text text-anchor="middle" x="266" y="-1204.8" font-family="Arial" font-size="14.00">解析种子值</text>
<text text-anchor="middle" x="266" y="-1189.8" font-family="Arial" font-size="14.00">初始化 PRNG</text>
</g>
<!-- check_seed&#45;&gt;parse_seed -->
<g id="edge7" class="edge">
<title>check_seed&#45;&gt;parse_seed</title>
<path fill="none" stroke="black" d="M204.58,-1270.6C215.53,-1258.37 230.36,-1241.8 242.71,-1228.01"/>
<polygon fill="black" stroke="black" points="245.58,-1230.05 249.64,-1220.27 240.37,-1225.38 245.58,-1230.05"/>
<text text-anchor="middle" x="239.5" y="-1241.8" font-family="Arial" font-size="14.00">是</text>
</g>
<!-- check_filter -->
<g id="node9" class="node">
<title>check_filter</title>
<path fill="none" stroke="black" d="M184.5,-1219C184.5,-1219 103.5,-1219 103.5,-1219 97.5,-1219 91.5,-1213 91.5,-1207 91.5,-1207 91.5,-1195 91.5,-1195 91.5,-1189 97.5,-1183 103.5,-1183 103.5,-1183 184.5,-1183 184.5,-1183 190.5,-1183 196.5,-1189 196.5,-1195 196.5,-1195 196.5,-1207 196.5,-1207 196.5,-1213 190.5,-1219 184.5,-1219"/>
<text text-anchor="middle" x="144" y="-1197.3" font-family="Arial" font-size="14.00">参数是 &#45;&#45;filter?</text>
</g>
<!-- check_seed&#45;&gt;check_filter -->
<g id="edge8" class="edge">
<title>check_seed&#45;&gt;check_filter</title>
<path fill="none" stroke="black" d="M179.89,-1270.6C173.51,-1258.39 164.86,-1241.87 157.65,-1228.09"/>
<polygon fill="black" stroke="black" points="160.68,-1226.32 152.94,-1219.08 154.47,-1229.57 160.68,-1226.32"/>
<text text-anchor="middle" x="177.5" y="-1241.8" font-family="Arial" font-size="14.00">否</text>
</g>
<!-- parse_seed&#45;&gt;args_loop -->
<g id="edge9" class="edge">
<title>parse_seed&#45;&gt;args_loop</title>
<path fill="none" stroke="black" d="M266.44,-1220.19C267.48,-1262.86 270.07,-1369.64 271.32,-1420.81"/>
<polygon fill="black" stroke="black" points="267.82,-1420.93 271.56,-1430.84 274.81,-1420.76 267.82,-1420.93"/>
</g>
<!-- set_filter -->
<g id="node10" class="node">
<title>set_filter</title>
<path fill="none" stroke="black" d="M329,-1131C329,-1131 251,-1131 251,-1131 245,-1131 239,-1125 239,-1119 239,-1119 239,-1107 239,-1107 239,-1101 245,-1095 251,-1095 251,-1095 329,-1095 329,-1095 335,-1095 341,-1101 341,-1107 341,-1107 341,-1119 341,-1119 341,-1125 335,-1131 329,-1131"/>
<text text-anchor="middle" x="290" y="-1109.3" font-family="Arial" font-size="14.00">设置过滤器值</text>
</g>
<!-- check_filter&#45;&gt;set_filter -->
<g id="edge10" class="edge">
<title>check_filter&#45;&gt;set_filter</title>
<path fill="none" stroke="black" d="M173.19,-1182.8C195.87,-1169.44 227.5,-1150.81 252.13,-1136.31"/>
<polygon fill="black" stroke="black" points="254.02,-1139.26 260.86,-1131.17 250.46,-1133.23 254.02,-1139.26"/>
<text text-anchor="middle" x="237.5" y="-1152.8" font-family="Arial" font-size="14.00">是</text>
</g>
<!-- check_help -->
<g id="node11" class="node">
<title>check_help</title>
<path fill="none" stroke="black" d="M184.5,-1131C184.5,-1131 103.5,-1131 103.5,-1131 97.5,-1131 91.5,-1125 91.5,-1119 91.5,-1119 91.5,-1107 91.5,-1107 91.5,-1101 97.5,-1095 103.5,-1095 103.5,-1095 184.5,-1095 184.5,-1095 190.5,-1095 196.5,-1101 196.5,-1107 196.5,-1107 196.5,-1119 196.5,-1119 196.5,-1125 190.5,-1131 184.5,-1131"/>
<text text-anchor="middle" x="144" y="-1109.3" font-family="Arial" font-size="14.00">参数是 &#45;&#45;help?</text>
</g>
<!-- check_filter&#45;&gt;check_help -->
<g id="edge11" class="edge">
<title>check_filter&#45;&gt;check_help</title>
<path fill="none" stroke="black" d="M144,-1182.6C144,-1170.75 144,-1154.82 144,-1141.29"/>
<polygon fill="black" stroke="black" points="147.5,-1141.08 144,-1131.08 140.5,-1141.08 147.5,-1141.08"/>
<text text-anchor="middle" x="151.5" y="-1152.8" font-family="Arial" font-size="14.00">否</text>
</g>
<!-- set_filter&#45;&gt;args_loop -->
<g id="edge12" class="edge">
<title>set_filter&#45;&gt;args_loop</title>
<path fill="none" stroke="black" d="M309.24,-1131.08C325.1,-1147.13 345,-1172.71 345,-1200 345,-1377 345,-1377 345,-1377 345,-1396.86 331.14,-1413.08 315.5,-1425.07"/>
<polygon fill="black" stroke="black" points="313.34,-1422.3 307.22,-1430.94 317.4,-1428.01 313.34,-1422.3"/>
</g>
<!-- call_usage -->
<g id="node12" class="node">
<title>call_usage</title>
<path fill="none" stroke="black" d="M292,-1043C292,-1043 200,-1043 200,-1043 194,-1043 188,-1037 188,-1031 188,-1031 188,-1019 188,-1019 188,-1013 194,-1007 200,-1007 200,-1007 292,-1007 292,-1007 298,-1007 304,-1013 304,-1019 304,-1019 304,-1031 304,-1031 304,-1037 298,-1043 292,-1043"/>
<text text-anchor="middle" x="246" y="-1021.3" font-family="Arial" font-size="14.00">显示帮助并退出</text>
</g>
<!-- check_help&#45;&gt;call_usage -->
<g id="edge13" class="edge">
<title>check_help&#45;&gt;call_usage</title>
<path fill="none" stroke="black" d="M175.62,-1094.88C184.21,-1089.63 193.27,-1083.5 201,-1077 210.13,-1069.32 219.07,-1059.75 226.54,-1050.99"/>
<polygon fill="black" stroke="black" points="229.27,-1053.18 232.95,-1043.24 223.88,-1048.72 229.27,-1053.18"/>
<text text-anchor="middle" x="222.5" y="-1065.8" font-family="Arial" font-size="14.00">是</text>
</g>
<!-- invalid_arg -->
<g id="node13" class="node">
<title>invalid_arg</title>
<path fill="none" stroke="black" d="M158,-1044C158,-1044 108,-1044 108,-1044 102,-1044 96,-1038 96,-1032 96,-1032 96,-1018 96,-1018 96,-1012 102,-1006 108,-1006 108,-1006 158,-1006 158,-1006 164,-1006 170,-1012 170,-1018 170,-1018 170,-1032 170,-1032 170,-1038 164,-1044 158,-1044"/>
<text text-anchor="middle" x="133" y="-1028.8" font-family="Arial" font-size="14.00">显示帮助</text>
<text text-anchor="middle" x="133" y="-1013.8" font-family="Arial" font-size="14.00">退出(1)</text>
</g>
<!-- check_help&#45;&gt;invalid_arg -->
<g id="edge14" class="edge">
<title>check_help&#45;&gt;invalid_arg</title>
<path fill="none" stroke="black" d="M141.77,-1094.6C140.3,-1083.06 138.33,-1067.65 136.63,-1054.36"/>
<polygon fill="black" stroke="black" points="140.08,-1053.74 135.34,-1044.27 133.13,-1054.63 140.08,-1053.74"/>
<text text-anchor="middle" x="168" y="-1065.8" font-family="Arial" font-size="14.00">其他参数</text>
</g>
<!-- end_args -->
<g id="node14" class="node">
<title>end_args</title>
<path fill="none" stroke="black" d="M232,-969C232,-969 154,-969 154,-969 148,-969 142,-963 142,-957 142,-957 142,-945 142,-945 142,-939 148,-933 154,-933 154,-933 232,-933 232,-933 238,-933 244,-939 244,-945 244,-945 244,-957 244,-957 244,-963 238,-969 232,-969"/>
<text text-anchor="middle" x="193" y="-947.3" font-family="Arial" font-size="14.00">参数处理完成</text>
</g>
<!-- call_usage&#45;&gt;end_args -->
<g id="edge15" class="edge">
<title>call_usage&#45;&gt;end_args</title>
<path fill="none" stroke="black" d="M233.44,-1006.94C227,-998.19 219.02,-987.35 211.86,-977.63"/>
<polygon fill="black" stroke="black" points="214.59,-975.42 205.84,-969.44 208.95,-979.57 214.59,-975.42"/>
</g>
<!-- call_usage&#45;&gt;end -->
<g id="edge31" class="edge">
<title>call_usage&#45;&gt;end</title>
<path fill="none" stroke="black" d="M263.9,-1006.83C276.08,-993.24 290,-973.1 290,-952 290,-952 290,-952 290,-105 290,-78.7 280.71,-70.2 260,-54 239.69,-38.12 212.32,-29.43 189.05,-24.69"/>
<polygon fill="black" stroke="black" points="189.49,-21.21 179.02,-22.83 188.22,-28.09 189.49,-21.21"/>
</g>
<!-- invalid_arg&#45;&gt;end_args -->
<g id="edge16" class="edge">
<title>invalid_arg&#45;&gt;end_args</title>
<path fill="none" stroke="black" d="M148.14,-1005.83C155.34,-997.2 164.06,-986.73 171.89,-977.33"/>
<polygon fill="black" stroke="black" points="174.77,-979.34 178.49,-969.42 169.39,-974.86 174.77,-979.34"/>
</g>
<!-- invalid_arg&#45;&gt;end -->
<g id="edge32" class="edge">
<title>invalid_arg&#45;&gt;end</title>
<path fill="none" stroke="black" d="M117.52,-1005.76C107.38,-991.93 96,-971.96 96,-952 96,-952 96,-952 96,-105 96,-82.51 108.39,-60.2 120.3,-43.94"/>
<polygon fill="black" stroke="black" points="123.08,-46.08 126.43,-36.02 117.54,-41.8 123.08,-46.08"/>
</g>
<!-- hashes -->
<g id="node15" class="node">
<title>hashes</title>
<path fill="none" stroke="black" d="M232,-875C232,-875 154,-875 154,-875 148,-875 142,-869 142,-863 142,-863 142,-849 142,-849 142,-843 148,-837 154,-837 154,-837 232,-837 232,-837 238,-837 244,-843 244,-849 244,-849 244,-863 244,-863 244,-869 238,-875 232,-875"/>
<text text-anchor="middle" x="193" y="-859.8" font-family="Arial" font-size="14.00">遍历哈希算法</text>
<text text-anchor="middle" x="193" y="-844.8" font-family="Arial" font-size="14.00">计算吞吐量</text>
</g>
<!-- end_args&#45;&gt;hashes -->
<g id="edge18" class="edge">
<title>end_args&#45;&gt;hashes</title>
<path fill="none" stroke="black" d="M193,-932.94C193,-919.65 193,-900.9 193,-885.36"/>
<polygon fill="black" stroke="black" points="196.5,-885.22 193,-875.22 189.5,-885.22 196.5,-885.22"/>
</g>
<!-- macs -->
<g id="node16" class="node">
<title>macs</title>
<path fill="none" stroke="black" d="M236.5,-800C236.5,-800 149.5,-800 149.5,-800 143.5,-800 137.5,-794 137.5,-788 137.5,-788 137.5,-774 137.5,-774 137.5,-768 143.5,-762 149.5,-762 149.5,-762 236.5,-762 236.5,-762 242.5,-762 248.5,-768 248.5,-774 248.5,-774 248.5,-788 248.5,-788 248.5,-794 242.5,-800 236.5,-800"/>
<text text-anchor="middle" x="193" y="-784.8" font-family="Arial" font-size="14.00">遍历 MAC 算法</text>
<text text-anchor="middle" x="193" y="-769.8" font-family="Arial" font-size="14.00">计算吞吐量</text>
</g>
<!-- hashes&#45;&gt;macs -->
<g id="edge19" class="edge">
<title>hashes&#45;&gt;macs</title>
<path fill="none" stroke="black" d="M193,-836.96C193,-828.88 193,-819.18 193,-810.18"/>
<polygon fill="black" stroke="black" points="196.5,-810.09 193,-800.09 189.5,-810.09 196.5,-810.09"/>
</g>
<!-- exchanges -->
<g id="node17" class="node">
<title>exchanges</title>
<path fill="none" stroke="black" d="M232,-725C232,-725 154,-725 154,-725 148,-725 142,-719 142,-713 142,-713 142,-699 142,-699 142,-693 148,-687 154,-687 154,-687 232,-687 232,-687 238,-687 244,-693 244,-699 244,-699 244,-713 244,-713 244,-719 238,-725 232,-725"/>
<text text-anchor="middle" x="193" y="-709.8" font-family="Arial" font-size="14.00">遍历密钥交换</text>
<text text-anchor="middle" x="193" y="-694.8" font-family="Arial" font-size="14.00">计算每秒次数</text>
</g>
<!-- macs&#45;&gt;exchanges -->
<g id="edge20" class="edge">
<title>macs&#45;&gt;exchanges</title>
<path fill="none" stroke="black" d="M193,-761.96C193,-753.88 193,-744.18 193,-735.18"/>
<polygon fill="black" stroke="black" points="196.5,-735.09 193,-725.09 189.5,-735.09 196.5,-735.09"/>
</g>
<!-- signatures -->
<g id="node18" class="node">
<title>signatures</title>
<path fill="none" stroke="black" d="M232,-650C232,-650 154,-650 154,-650 148,-650 142,-644 142,-638 142,-638 142,-624 142,-624 142,-618 148,-612 154,-612 154,-612 232,-612 232,-612 238,-612 244,-618 244,-624 244,-624 244,-638 244,-638 244,-644 238,-650 232,-650"/>
<text text-anchor="middle" x="193" y="-634.8" font-family="Arial" font-size="14.00">遍历签名算法</text>
<text text-anchor="middle" x="193" y="-619.8" font-family="Arial" font-size="14.00">计算每秒次数</text>
</g>
<!-- exchanges&#45;&gt;signatures -->
<g id="edge21" class="edge">
<title>exchanges&#45;&gt;signatures</title>
<path fill="none" stroke="black" d="M193,-686.96C193,-678.88 193,-669.18 193,-660.18"/>
<polygon fill="black" stroke="black" points="196.5,-660.09 193,-650.09 189.5,-660.09 196.5,-660.09"/>
</g>
<!-- verifications -->
<g id="node19" class="node">
<title>verifications</title>
<path fill="none" stroke="black" d="M232,-575C232,-575 154,-575 154,-575 148,-575 142,-569 142,-563 142,-563 142,-549 142,-549 142,-543 148,-537 154,-537 154,-537 232,-537 232,-537 238,-537 244,-543 244,-549 244,-549 244,-563 244,-563 244,-569 238,-575 232,-575"/>
<text text-anchor="middle" x="193" y="-559.8" font-family="Arial" font-size="14.00">遍历签名验证</text>
<text text-anchor="middle" x="193" y="-544.8" font-family="Arial" font-size="14.00">计算每秒次数</text>
</g>
<!-- signatures&#45;&gt;verifications -->
<g id="edge22" class="edge">
<title>signatures&#45;&gt;verifications</title>
<path fill="none" stroke="black" d="M193,-611.96C193,-603.88 193,-594.18 193,-585.18"/>
<polygon fill="black" stroke="black" points="196.5,-585.09 193,-575.09 189.5,-585.09 196.5,-585.09"/>
</g>
<!-- batch_verifications -->
<g id="node20" class="node">
<title>batch_verifications</title>
<path fill="none" stroke="black" d="M232,-500C232,-500 154,-500 154,-500 148,-500 142,-494 142,-488 142,-488 142,-474 142,-474 142,-468 148,-462 154,-462 154,-462 232,-462 232,-462 238,-462 244,-468 244,-474 244,-474 244,-488 244,-488 244,-494 238,-500 232,-500"/>
<text text-anchor="middle" x="193" y="-484.8" font-family="Arial" font-size="14.00">批量签名验证</text>
<text text-anchor="middle" x="193" y="-469.8" font-family="Arial" font-size="14.00">计算每秒次数</text>
</g>
<!-- verifications&#45;&gt;batch_verifications -->
<g id="edge23" class="edge">
<title>verifications&#45;&gt;batch_verifications</title>
<path fill="none" stroke="black" d="M193,-536.96C193,-528.88 193,-519.18 193,-510.18"/>
<polygon fill="black" stroke="black" points="196.5,-510.09 193,-500.09 189.5,-510.09 196.5,-510.09"/>
</g>
<!-- aeads -->
<g id="node21" class="node">
<title>aeads</title>
<path fill="none" stroke="black" d="M239.5,-425C239.5,-425 146.5,-425 146.5,-425 140.5,-425 134.5,-419 134.5,-413 134.5,-413 134.5,-399 134.5,-399 134.5,-393 140.5,-387 146.5,-387 146.5,-387 239.5,-387 239.5,-387 245.5,-387 251.5,-393 251.5,-399 251.5,-399 251.5,-413 251.5,-413 251.5,-419 245.5,-425 239.5,-425"/>
<text text-anchor="middle" x="193" y="-409.8" font-family="Arial" font-size="14.00">遍历 AEAD 算法</text>
<text text-anchor="middle" x="193" y="-394.8" font-family="Arial" font-size="14.00">计算吞吐量</text>
</g>
<!-- batch_verifications&#45;&gt;aeads -->
<g id="edge24" class="edge">
<title>batch_verifications&#45;&gt;aeads</title>
<path fill="none" stroke="black" d="M193,-461.96C193,-453.88 193,-444.18 193,-435.18"/>
<polygon fill="black" stroke="black" points="196.5,-435.09 193,-425.09 189.5,-435.09 196.5,-435.09"/>
</g>
<!-- aes -->
<g id="node22" class="node">
<title>aes</title>
<path fill="none" stroke="black" d="M234.5,-350C234.5,-350 151.5,-350 151.5,-350 145.5,-350 139.5,-344 139.5,-338 139.5,-338 139.5,-324 139.5,-324 139.5,-318 145.5,-312 151.5,-312 151.5,-312 234.5,-312 234.5,-312 240.5,-312 246.5,-318 246.5,-324 246.5,-324 246.5,-338 246.5,-338 246.5,-344 240.5,-350 234.5,-350"/>
<text text-anchor="middle" x="193" y="-334.8" font-family="Arial" font-size="14.00">遍历 AES 算法</text>
<text text-anchor="middle" x="193" y="-319.8" font-family="Arial" font-size="14.00">计算每秒操作</text>
</g>
<!-- aeads&#45;&gt;aes -->
<g id="edge25" class="edge">
<title>aeads&#45;&gt;aes</title>
<path fill="none" stroke="black" d="M193,-386.96C193,-378.88 193,-369.18 193,-360.18"/>
<polygon fill="black" stroke="black" points="196.5,-360.09 193,-350.09 189.5,-360.09 196.5,-360.09"/>
</g>
<!-- aes8 -->
<g id="node23" class="node">
<title>aes8</title>
<path fill="none" stroke="black" d="M240.5,-275C240.5,-275 145.5,-275 145.5,-275 139.5,-275 133.5,-269 133.5,-263 133.5,-263 133.5,-249 133.5,-249 133.5,-243 139.5,-237 145.5,-237 145.5,-237 240.5,-237 240.5,-237 246.5,-237 252.5,-243 252.5,-249 252.5,-249 252.5,-263 252.5,-263 252.5,-269 246.5,-275 240.5,-275"/>
<text text-anchor="middle" x="193" y="-259.8" font-family="Arial" font-size="14.00">遍历 AES&#45;8 算法</text>
<text text-anchor="middle" x="193" y="-244.8" font-family="Arial" font-size="14.00">计算每秒操作</text>
</g>
<!-- aes&#45;&gt;aes8 -->
<g id="edge26" class="edge">
<title>aes&#45;&gt;aes8</title>
<path fill="none" stroke="black" d="M193,-311.96C193,-303.88 193,-294.18 193,-285.18"/>
<polygon fill="black" stroke="black" points="196.5,-285.09 193,-275.09 189.5,-285.09 196.5,-285.09"/>
</g>
<!-- pwhashes -->
<g id="node24" class="node">
<title>pwhashes</title>
<path fill="none" stroke="black" d="M232,-200C232,-200 154,-200 154,-200 148,-200 142,-194 142,-188 142,-188 142,-174 142,-174 142,-168 148,-162 154,-162 154,-162 232,-162 232,-162 238,-162 244,-168 244,-174 244,-174 244,-188 244,-188 244,-194 238,-200 232,-200"/>
<text text-anchor="middle" x="193" y="-184.8" font-family="Arial" font-size="14.00">遍历密码哈希</text>
<text text-anchor="middle" x="193" y="-169.8" font-family="Arial" font-size="14.00">计算秒/操作</text>
</g>
<!-- aes8&#45;&gt;pwhashes -->
<g id="edge27" class="edge">
<title>aes8&#45;&gt;pwhashes</title>
<path fill="none" stroke="black" d="M193,-236.96C193,-228.88 193,-219.18 193,-210.18"/>
<polygon fill="black" stroke="black" points="196.5,-210.09 193,-200.09 189.5,-210.09 196.5,-210.09"/>
</g>
<!-- kems -->
<g id="node25" class="node">
<title>kems</title>
<path fill="none" stroke="black" d="M250,-125C250,-125 136,-125 136,-125 130,-125 124,-119 124,-113 124,-113 124,-99 124,-99 124,-93 130,-87 136,-87 136,-87 250,-87 250,-87 256,-87 262,-93 262,-99 262,-99 262,-113 262,-113 262,-119 256,-125 250,-125"/>
<text text-anchor="middle" x="193" y="-109.8" font-family="Arial" font-size="14.00">遍历 KEM 算法</text>
<text text-anchor="middle" x="193" y="-94.8" font-family="Arial" font-size="14.00">封装/解封/密钥生成</text>
</g>
<!-- pwhashes&#45;&gt;kems -->
<g id="edge28" class="edge">
<title>pwhashes&#45;&gt;kems</title>
<path fill="none" stroke="black" d="M193,-161.96C193,-153.88 193,-144.18 193,-135.18"/>
<polygon fill="black" stroke="black" points="196.5,-135.09 193,-125.09 189.5,-135.09 196.5,-135.09"/>
</g>
<!-- kems&#45;&gt;end -->
<g id="edge29" class="edge">
<title>kems&#45;&gt;end</title>
<path fill="none" stroke="black" d="M182.18,-86.76C174.96,-74.58 165.36,-58.38 157.35,-44.88"/>
<polygon fill="black" stroke="black" points="160.22,-42.86 152.11,-36.04 154.2,-46.43 160.22,-42.86"/>
<text text-anchor="middle" x="213" y="-57.8" font-family="Arial" font-size="14.00">所有测试完成</text>
</g>
</g>
</svg>
