<?xml version="1.0" encoding="UTF-8" standalone="no"?>
<!DOCTYPE svg PUBLIC "-//W3C//DTD SVG 1.1//EN"
 "http://www.w3.org/Graphics/SVG/1.1/DTD/svg11.dtd">
<!-- Generated by graphviz version 2.43.0 (0)
 -->
<!-- Title: flowchart Pages: 1 -->
<svg width="201pt" height="1066pt"
 viewBox="0.00 0.00 201.00 1066.00" xmlns="http://www.w3.org/2000/svg" xmlns:xlink="http://www.w3.org/1999/xlink">
<g id="graph0" class="graph" transform="scale(1 1) rotate(0) translate(4 1062)">
<title>flowchart</title>
<polygon fill="white" stroke="transparent" points="-4,4 -4,-1062 197,-1062 197,4 -4,4"/>
<!-- start -->
<g id="node1" class="node">
<title>start</title>
<path fill="none" stroke="black" d="M108,-1058C108,-1058 78,-1058 78,-1058 72,-1058 66,-1052 66,-1046 66,-1046 66,-1034 66,-1034 66,-1028 72,-1022 78,-1022 78,-1022 108,-1022 108,-1022 114,-1022 120,-1028 120,-1034 120,-1034 120,-1046 120,-1046 120,-1052 114,-1058 108,-1058"/>
<text text-anchor="middle" x="93" y="-1036.3" font-family="Arial" font-size="14.00">开始</text>
</g>
<!-- init -->
<g id="node2" class="node">
<title>init</title>
<path fill="none" stroke="black" d="M146.5,-985C146.5,-985 39.5,-985 39.5,-985 33.5,-985 27.5,-979 27.5,-973 27.5,-973 27.5,-961 27.5,-961 27.5,-955 33.5,-949 39.5,-949 39.5,-949 146.5,-949 146.5,-949 152.5,-949 158.5,-955 158.5,-961 158.5,-961 158.5,-973 158.5,-973 158.5,-979 152.5,-985 146.5,-985"/>
<text text-anchor="middle" x="93" y="-963.3" font-family="Arial" font-size="14.00">初始化x1 = arg1[0]</text>
</g>
<!-- start&#45;&gt;init -->
<g id="edge1" class="edge">
<title>start&#45;&gt;init</title>
<path fill="none" stroke="black" d="M93,-1021.81C93,-1013.79 93,-1004.05 93,-995.07"/>
<polygon fill="black" stroke="black" points="96.5,-995.03 93,-985.03 89.5,-995.03 96.5,-995.03"/>
</g>
<!-- process_element_0 -->
<g id="node3" class="node">
<title>process_element_0</title>
<path fill="none" stroke="black" d="M155,-912C155,-912 31,-912 31,-912 25,-912 19,-906 19,-900 19,-900 19,-871 19,-871 19,-865 25,-859 31,-859 31,-859 155,-859 155,-859 161,-859 167,-865 167,-871 167,-871 167,-900 167,-900 167,-906 161,-912 155,-912"/>
<text text-anchor="middle" x="93" y="-896.8" font-family="Arial" font-size="14.00">处理arg1[0]</text>
<text text-anchor="middle" x="93" y="-881.8" font-family="Arial" font-size="14.00">&#45; mulxU64计算x2&#45;x14</text>
<text text-anchor="middle" x="93" y="-866.8" font-family="Arial" font-size="14.00">&#45; 进位链加法x15&#45;x38</text>
</g>
<!-- init&#45;&gt;process_element_0 -->
<g id="edge2" class="edge">
<title>init&#45;&gt;process_element_0</title>
<path fill="none" stroke="black" d="M93,-948.75C93,-940.99 93,-931.51 93,-922.32"/>
<polygon fill="black" stroke="black" points="96.5,-922.18 93,-912.18 89.5,-922.18 96.5,-922.18"/>
</g>
<!-- process_element_1 -->
<g id="node4" class="node">
<title>process_element_1</title>
<path fill="none" stroke="black" d="M158.5,-808C158.5,-808 27.5,-808 27.5,-808 21.5,-808 15.5,-802 15.5,-796 15.5,-796 15.5,-767 15.5,-767 15.5,-761 21.5,-755 27.5,-755 27.5,-755 158.5,-755 158.5,-755 164.5,-755 170.5,-761 170.5,-767 170.5,-767 170.5,-796 170.5,-796 170.5,-802 164.5,-808 158.5,-808"/>
<text text-anchor="middle" x="93" y="-792.8" font-family="Arial" font-size="14.00">处理arg1[1]</text>
<text text-anchor="middle" x="93" y="-777.8" font-family="Arial" font-size="14.00">&#45; mulxU64计算x52&#45;x64</text>
<text text-anchor="middle" x="93" y="-762.8" font-family="Arial" font-size="14.00">&#45; 进位链加法x66&#45;x88</text>
</g>
<!-- process_element_0&#45;&gt;process_element_1 -->
<g id="edge3" class="edge">
<title>process_element_0&#45;&gt;process_element_1</title>
<path fill="none" stroke="black" d="M93,-858.76C93,-846.56 93,-831.78 93,-818.49"/>
<polygon fill="black" stroke="black" points="96.5,-818.23 93,-808.23 89.5,-818.23 96.5,-818.23"/>
<text text-anchor="middle" x="135.5" y="-829.8" font-family="Arial" font-size="14.00">处理完arg1[0]</text>
</g>
<!-- process_element_2 -->
<g id="node5" class="node">
<title>process_element_2</title>
<path fill="none" stroke="black" d="M166,-704C166,-704 20,-704 20,-704 14,-704 8,-698 8,-692 8,-692 8,-663 8,-663 8,-657 14,-651 20,-651 20,-651 166,-651 166,-651 172,-651 178,-657 178,-663 178,-663 178,-692 178,-692 178,-698 172,-704 166,-704"/>
<text text-anchor="middle" x="93" y="-688.8" font-family="Arial" font-size="14.00">处理arg1[2]</text>
<text text-anchor="middle" x="93" y="-673.8" font-family="Arial" font-size="14.00">&#45; mulxU64计算x102&#45;x114</text>
<text text-anchor="middle" x="93" y="-658.8" font-family="Arial" font-size="14.00">&#45; 进位链加法x116&#45;x138</text>
</g>
<!-- process_element_1&#45;&gt;process_element_2 -->
<g id="edge4" class="edge">
<title>process_element_1&#45;&gt;process_element_2</title>
<path fill="none" stroke="black" d="M93,-754.76C93,-742.56 93,-727.78 93,-714.49"/>
<polygon fill="black" stroke="black" points="96.5,-714.23 93,-704.23 89.5,-714.23 96.5,-714.23"/>
<text text-anchor="middle" x="135.5" y="-725.8" font-family="Arial" font-size="14.00">处理完arg1[1]</text>
</g>
<!-- process_element_3 -->
<g id="node6" class="node">
<title>process_element_3</title>
<path fill="none" stroke="black" d="M166,-600C166,-600 20,-600 20,-600 14,-600 8,-594 8,-588 8,-588 8,-559 8,-559 8,-553 14,-547 20,-547 20,-547 166,-547 166,-547 172,-547 178,-553 178,-559 178,-559 178,-588 178,-588 178,-594 172,-600 166,-600"/>
<text text-anchor="middle" x="93" y="-584.8" font-family="Arial" font-size="14.00">处理arg1[3]</text>
<text text-anchor="middle" x="93" y="-569.8" font-family="Arial" font-size="14.00">&#45; mulxU64计算x152&#45;x164</text>
<text text-anchor="middle" x="93" y="-554.8" font-family="Arial" font-size="14.00">&#45; 进位链加法x166&#45;x188</text>
</g>
<!-- process_element_2&#45;&gt;process_element_3 -->
<g id="edge5" class="edge">
<title>process_element_2&#45;&gt;process_element_3</title>
<path fill="none" stroke="black" d="M93,-650.76C93,-638.56 93,-623.78 93,-610.49"/>
<polygon fill="black" stroke="black" points="96.5,-610.23 93,-600.23 89.5,-610.23 96.5,-610.23"/>
<text text-anchor="middle" x="135.5" y="-621.8" font-family="Arial" font-size="14.00">处理完arg1[2]</text>
</g>
<!-- process_element_4 -->
<g id="node7" class="node">
<title>process_element_4</title>
<path fill="none" stroke="black" d="M166,-496C166,-496 20,-496 20,-496 14,-496 8,-490 8,-484 8,-484 8,-455 8,-455 8,-449 14,-443 20,-443 20,-443 166,-443 166,-443 172,-443 178,-449 178,-455 178,-455 178,-484 178,-484 178,-490 172,-496 166,-496"/>
<text text-anchor="middle" x="93" y="-480.8" font-family="Arial" font-size="14.00">处理arg1[4]</text>
<text text-anchor="middle" x="93" y="-465.8" font-family="Arial" font-size="14.00">&#45; mulxU64计算x202&#45;x214</text>
<text text-anchor="middle" x="93" y="-450.8" font-family="Arial" font-size="14.00">&#45; 进位链加法x216&#45;x238</text>
</g>
<!-- process_element_3&#45;&gt;process_element_4 -->
<g id="edge6" class="edge">
<title>process_element_3&#45;&gt;process_element_4</title>
<path fill="none" stroke="black" d="M93,-546.76C93,-534.56 93,-519.78 93,-506.49"/>
<polygon fill="black" stroke="black" points="96.5,-506.23 93,-496.23 89.5,-506.23 96.5,-506.23"/>
<text text-anchor="middle" x="135.5" y="-517.8" font-family="Arial" font-size="14.00">处理完arg1[3]</text>
</g>
<!-- process_element_5 -->
<g id="node8" class="node">
<title>process_element_5</title>
<path fill="none" stroke="black" d="M166,-392C166,-392 20,-392 20,-392 14,-392 8,-386 8,-380 8,-380 8,-351 8,-351 8,-345 14,-339 20,-339 20,-339 166,-339 166,-339 172,-339 178,-345 178,-351 178,-351 178,-380 178,-380 178,-386 172,-392 166,-392"/>
<text text-anchor="middle" x="93" y="-376.8" font-family="Arial" font-size="14.00">处理arg1[5]</text>
<text text-anchor="middle" x="93" y="-361.8" font-family="Arial" font-size="14.00">&#45; mulxU64计算x252&#45;x264</text>
<text text-anchor="middle" x="93" y="-346.8" font-family="Arial" font-size="14.00">&#45; 进位链加法x266&#45;x288</text>
</g>
<!-- process_element_4&#45;&gt;process_element_5 -->
<g id="edge7" class="edge">
<title>process_element_4&#45;&gt;process_element_5</title>
<path fill="none" stroke="black" d="M93,-442.76C93,-430.56 93,-415.78 93,-402.49"/>
<polygon fill="black" stroke="black" points="96.5,-402.23 93,-392.23 89.5,-402.23 96.5,-402.23"/>
<text text-anchor="middle" x="135.5" y="-413.8" font-family="Arial" font-size="14.00">处理完arg1[4]</text>
</g>
<!-- subtract_modulus -->
<g id="node9" class="node">
<title>subtract_modulus</title>
<path fill="none" stroke="black" d="M174,-288C174,-288 12,-288 12,-288 6,-288 0,-282 0,-276 0,-276 0,-247 0,-247 0,-241 6,-235 12,-235 12,-235 174,-235 174,-235 180,-235 186,-241 186,-247 186,-247 186,-276 186,-276 186,-282 180,-288 174,-288"/>
<text text-anchor="middle" x="93" y="-272.8" font-family="Arial" font-size="14.00">模数减法调整</text>
<text text-anchor="middle" x="93" y="-257.8" font-family="Arial" font-size="14.00">&#45; subborrowxU64 x290&#45;x300</text>
<text text-anchor="middle" x="93" y="-242.8" font-family="Arial" font-size="14.00">&#45; 计算借位x303</text>
</g>
<!-- process_element_5&#45;&gt;subtract_modulus -->
<g id="edge8" class="edge">
<title>process_element_5&#45;&gt;subtract_modulus</title>
<path fill="none" stroke="black" d="M93,-338.76C93,-326.56 93,-311.78 93,-298.49"/>
<polygon fill="black" stroke="black" points="96.5,-298.23 93,-288.23 89.5,-298.23 96.5,-298.23"/>
<text text-anchor="middle" x="143" y="-309.8" font-family="Arial" font-size="14.00">处理完所有元素</text>
</g>
<!-- cmov_operations -->
<g id="node10" class="node">
<title>cmov_operations</title>
<path fill="none" stroke="black" d="M166,-184C166,-184 20,-184 20,-184 14,-184 8,-178 8,-172 8,-172 8,-158 8,-158 8,-152 14,-146 20,-146 20,-146 166,-146 166,-146 172,-146 178,-152 178,-158 178,-158 178,-172 178,-172 178,-178 172,-184 166,-184"/>
<text text-anchor="middle" x="93" y="-168.8" font-family="Arial" font-size="14.00">条件选择结果</text>
<text text-anchor="middle" x="93" y="-153.8" font-family="Arial" font-size="14.00">&#45; cmovznzU64 x304&#45;x309</text>
</g>
<!-- subtract_modulus&#45;&gt;cmov_operations -->
<g id="edge9" class="edge">
<title>subtract_modulus&#45;&gt;cmov_operations</title>
<path fill="none" stroke="black" d="M93,-234.68C93,-222.13 93,-207.01 93,-194.17"/>
<polygon fill="black" stroke="black" points="96.5,-194.01 93,-184.01 89.5,-194.01 96.5,-194.01"/>
<text text-anchor="middle" x="122" y="-205.8" font-family="Arial" font-size="14.00">借位判断</text>
</g>
<!-- store_result -->
<g id="node11" class="node">
<title>store_result</title>
<path fill="none" stroke="black" d="M151.5,-109C151.5,-109 34.5,-109 34.5,-109 28.5,-109 22.5,-103 22.5,-97 22.5,-97 22.5,-85 22.5,-85 22.5,-79 28.5,-73 34.5,-73 34.5,-73 151.5,-73 151.5,-73 157.5,-73 163.5,-79 163.5,-85 163.5,-85 163.5,-97 163.5,-97 163.5,-103 157.5,-109 151.5,-109"/>
<text text-anchor="middle" x="93" y="-87.3" font-family="Arial" font-size="14.00">存储结果到out1[0&#45;5]</text>
</g>
<!-- cmov_operations&#45;&gt;store_result -->
<g id="edge10" class="edge">
<title>cmov_operations&#45;&gt;store_result</title>
<path fill="none" stroke="black" d="M93,-145.83C93,-137.89 93,-128.41 93,-119.63"/>
<polygon fill="black" stroke="black" points="96.5,-119.42 93,-109.42 89.5,-119.42 96.5,-119.42"/>
</g>
<!-- end -->
<g id="node12" class="node">
<title>end</title>
<path fill="none" stroke="black" d="M108,-36C108,-36 78,-36 78,-36 72,-36 66,-30 66,-24 66,-24 66,-12 66,-12 66,-6 72,0 78,0 78,0 108,0 108,0 114,0 120,-6 120,-12 120,-12 120,-24 120,-24 120,-30 114,-36 108,-36"/>
<text text-anchor="middle" x="93" y="-14.3" font-family="Arial" font-size="14.00">结束</text>
</g>
<!-- store_result&#45;&gt;end -->
<g id="edge11" class="edge">
<title>store_result&#45;&gt;end</title>
<path fill="none" stroke="black" d="M93,-72.81C93,-64.79 93,-55.05 93,-46.07"/>
<polygon fill="black" stroke="black" points="96.5,-46.03 93,-36.03 89.5,-46.03 96.5,-46.03"/>
</g>
</g>
</svg>
