<?xml version="1.0" encoding="UTF-8" standalone="no"?>
<!DOCTYPE svg PUBLIC "-//W3C//DTD SVG 1.1//EN"
 "http://www.w3.org/Graphics/SVG/1.1/DTD/svg11.dtd">
<!-- Generated by graphviz version 2.43.0 (0)
 -->
<!-- Title: flowchart Pages: 1 -->
<svg width="475pt" height="1000pt"
 viewBox="0.00 0.00 474.50 1000.00" xmlns="http://www.w3.org/2000/svg" xmlns:xlink="http://www.w3.org/1999/xlink">
<g id="graph0" class="graph" transform="scale(1 1) rotate(0) translate(4 996)">
<title>flowchart</title>
<polygon fill="white" stroke="transparent" points="-4,4 -4,-996 470.5,-996 470.5,4 -4,4"/>
<g id="clust1" class="cluster">
<title>cluster_arg1_0</title>
<polygon fill="none" stroke="black" stroke-dasharray="5,2" points="240.5,-665.5 240.5,-984 458.5,-984 458.5,-665.5 240.5,-665.5"/>
<text text-anchor="middle" x="349.5" y="-968.8" font-family="Times,serif" font-size="14.00">处理arg1[0]的详细步骤</text>
</g>
<!-- start -->
<g id="node1" class="node">
<title>start</title>
<path fill="none" stroke="black" d="M131.5,-953C131.5,-953 101.5,-953 101.5,-953 95.5,-953 89.5,-947 89.5,-941 89.5,-941 89.5,-929 89.5,-929 89.5,-923 95.5,-917 101.5,-917 101.5,-917 131.5,-917 131.5,-917 137.5,-917 143.5,-923 143.5,-929 143.5,-929 143.5,-941 143.5,-941 143.5,-947 137.5,-953 131.5,-953"/>
<text text-anchor="middle" x="116.5" y="-931.3" font-family="Helvetica,sans-Serif" font-size="14.00">开始</text>
</g>
<!-- init -->
<g id="node2" class="node">
<title>init</title>
<path fill="none" stroke="black" d="M221,-881C221,-881 12,-881 12,-881 6,-881 0,-875 0,-869 0,-869 0,-855 0,-855 0,-849 6,-843 12,-843 12,-843 221,-843 221,-843 227,-843 233,-849 233,-855 233,-855 233,-869 233,-869 233,-875 227,-881 221,-881"/>
<text text-anchor="middle" x="116.5" y="-865.8" font-family="Helvetica,sans-Serif" font-size="14.00">初始化</text>
<text text-anchor="middle" x="116.5" y="-850.8" font-family="Helvetica,sans-Serif" font-size="14.00">设置运行时安全检查为Debug模式</text>
</g>
<!-- start&#45;&gt;init -->
<g id="edge1" class="edge">
<title>start&#45;&gt;init</title>
<path fill="none" stroke="black" d="M116.5,-916.81C116.5,-909.11 116.5,-899.82 116.5,-891.15"/>
<polygon fill="black" stroke="black" points="120,-891.02 116.5,-881.02 113,-891.02 120,-891.02"/>
</g>
<!-- process_arg1_0 -->
<g id="node3" class="node">
<title>process_arg1_0</title>
<path fill="none" stroke="black" d="M195.5,-807C195.5,-807 37.5,-807 37.5,-807 31.5,-807 25.5,-801 25.5,-795 25.5,-795 25.5,-766 25.5,-766 25.5,-760 31.5,-754 37.5,-754 37.5,-754 195.5,-754 195.5,-754 201.5,-754 207.5,-760 207.5,-766 207.5,-766 207.5,-795 207.5,-795 207.5,-801 201.5,-807 195.5,-807"/>
<text text-anchor="middle" x="116.5" y="-791.8" font-family="Helvetica,sans-Serif" font-size="14.00">处理arg1[0]</text>
<text text-anchor="middle" x="116.5" y="-776.8" font-family="Helvetica,sans-Serif" font-size="14.00">&#45; mulxU64乘法</text>
<text text-anchor="middle" x="116.5" y="-761.8" font-family="Helvetica,sans-Serif" font-size="14.00">&#45; addcarryxU64处理进位</text>
</g>
<!-- init&#45;&gt;process_arg1_0 -->
<g id="edge2" class="edge">
<title>init&#45;&gt;process_arg1_0</title>
<path fill="none" stroke="black" d="M116.5,-842.96C116.5,-835.32 116.5,-826.14 116.5,-817.23"/>
<polygon fill="black" stroke="black" points="120,-817 116.5,-807 113,-817 120,-817"/>
</g>
<!-- process_arg1_1 -->
<g id="node4" class="node">
<title>process_arg1_1</title>
<path fill="none" stroke="black" d="M195.5,-718C195.5,-718 37.5,-718 37.5,-718 31.5,-718 25.5,-712 25.5,-706 25.5,-706 25.5,-677 25.5,-677 25.5,-671 31.5,-665 37.5,-665 37.5,-665 195.5,-665 195.5,-665 201.5,-665 207.5,-671 207.5,-677 207.5,-677 207.5,-706 207.5,-706 207.5,-712 201.5,-718 195.5,-718"/>
<text text-anchor="middle" x="116.5" y="-702.8" font-family="Helvetica,sans-Serif" font-size="14.00">处理arg1[1]</text>
<text text-anchor="middle" x="116.5" y="-687.8" font-family="Helvetica,sans-Serif" font-size="14.00">&#45; mulxU64乘法</text>
<text text-anchor="middle" x="116.5" y="-672.8" font-family="Helvetica,sans-Serif" font-size="14.00">&#45; addcarryxU64处理进位</text>
</g>
<!-- process_arg1_0&#45;&gt;process_arg1_1 -->
<g id="edge3" class="edge">
<title>process_arg1_0&#45;&gt;process_arg1_1</title>
<path fill="none" stroke="black" d="M116.5,-753.87C116.5,-745.89 116.5,-736.93 116.5,-728.38"/>
<polygon fill="black" stroke="black" points="120,-728.25 116.5,-718.25 113,-728.25 120,-728.25"/>
</g>
<!-- process_arg1_2 -->
<g id="node5" class="node">
<title>process_arg1_2</title>
<path fill="none" stroke="black" d="M195.5,-629C195.5,-629 37.5,-629 37.5,-629 31.5,-629 25.5,-623 25.5,-617 25.5,-617 25.5,-588 25.5,-588 25.5,-582 31.5,-576 37.5,-576 37.5,-576 195.5,-576 195.5,-576 201.5,-576 207.5,-582 207.5,-588 207.5,-588 207.5,-617 207.5,-617 207.5,-623 201.5,-629 195.5,-629"/>
<text text-anchor="middle" x="116.5" y="-613.8" font-family="Helvetica,sans-Serif" font-size="14.00">处理arg1[2]</text>
<text text-anchor="middle" x="116.5" y="-598.8" font-family="Helvetica,sans-Serif" font-size="14.00">&#45; mulxU64乘法</text>
<text text-anchor="middle" x="116.5" y="-583.8" font-family="Helvetica,sans-Serif" font-size="14.00">&#45; addcarryxU64处理进位</text>
</g>
<!-- process_arg1_1&#45;&gt;process_arg1_2 -->
<g id="edge4" class="edge">
<title>process_arg1_1&#45;&gt;process_arg1_2</title>
<path fill="none" stroke="black" d="M116.5,-664.87C116.5,-656.89 116.5,-647.93 116.5,-639.38"/>
<polygon fill="black" stroke="black" points="120,-639.25 116.5,-629.25 113,-639.25 120,-639.25"/>
</g>
<!-- process_arg1_3 -->
<g id="node6" class="node">
<title>process_arg1_3</title>
<path fill="none" stroke="black" d="M195.5,-540C195.5,-540 37.5,-540 37.5,-540 31.5,-540 25.5,-534 25.5,-528 25.5,-528 25.5,-499 25.5,-499 25.5,-493 31.5,-487 37.5,-487 37.5,-487 195.5,-487 195.5,-487 201.5,-487 207.5,-493 207.5,-499 207.5,-499 207.5,-528 207.5,-528 207.5,-534 201.5,-540 195.5,-540"/>
<text text-anchor="middle" x="116.5" y="-524.8" font-family="Helvetica,sans-Serif" font-size="14.00">处理arg1[3]</text>
<text text-anchor="middle" x="116.5" y="-509.8" font-family="Helvetica,sans-Serif" font-size="14.00">&#45; mulxU64乘法</text>
<text text-anchor="middle" x="116.5" y="-494.8" font-family="Helvetica,sans-Serif" font-size="14.00">&#45; addcarryxU64处理进位</text>
</g>
<!-- process_arg1_2&#45;&gt;process_arg1_3 -->
<g id="edge5" class="edge">
<title>process_arg1_2&#45;&gt;process_arg1_3</title>
<path fill="none" stroke="black" d="M116.5,-575.87C116.5,-567.89 116.5,-558.93 116.5,-550.38"/>
<polygon fill="black" stroke="black" points="120,-550.25 116.5,-540.25 113,-550.25 120,-550.25"/>
</g>
<!-- process_arg1_4 -->
<g id="node7" class="node">
<title>process_arg1_4</title>
<path fill="none" stroke="black" d="M195.5,-451C195.5,-451 37.5,-451 37.5,-451 31.5,-451 25.5,-445 25.5,-439 25.5,-439 25.5,-410 25.5,-410 25.5,-404 31.5,-398 37.5,-398 37.5,-398 195.5,-398 195.5,-398 201.5,-398 207.5,-404 207.5,-410 207.5,-410 207.5,-439 207.5,-439 207.5,-445 201.5,-451 195.5,-451"/>
<text text-anchor="middle" x="116.5" y="-435.8" font-family="Helvetica,sans-Serif" font-size="14.00">处理arg1[4]</text>
<text text-anchor="middle" x="116.5" y="-420.8" font-family="Helvetica,sans-Serif" font-size="14.00">&#45; mulxU64乘法</text>
<text text-anchor="middle" x="116.5" y="-405.8" font-family="Helvetica,sans-Serif" font-size="14.00">&#45; addcarryxU64处理进位</text>
</g>
<!-- process_arg1_3&#45;&gt;process_arg1_4 -->
<g id="edge6" class="edge">
<title>process_arg1_3&#45;&gt;process_arg1_4</title>
<path fill="none" stroke="black" d="M116.5,-486.87C116.5,-478.89 116.5,-469.93 116.5,-461.38"/>
<polygon fill="black" stroke="black" points="120,-461.25 116.5,-451.25 113,-461.25 120,-461.25"/>
</g>
<!-- process_arg1_5 -->
<g id="node8" class="node">
<title>process_arg1_5</title>
<path fill="none" stroke="black" d="M195.5,-362C195.5,-362 37.5,-362 37.5,-362 31.5,-362 25.5,-356 25.5,-350 25.5,-350 25.5,-321 25.5,-321 25.5,-315 31.5,-309 37.5,-309 37.5,-309 195.5,-309 195.5,-309 201.5,-309 207.5,-315 207.5,-321 207.5,-321 207.5,-350 207.5,-350 207.5,-356 201.5,-362 195.5,-362"/>
<text text-anchor="middle" x="116.5" y="-346.8" font-family="Helvetica,sans-Serif" font-size="14.00">处理arg1[5]</text>
<text text-anchor="middle" x="116.5" y="-331.8" font-family="Helvetica,sans-Serif" font-size="14.00">&#45; mulxU64乘法</text>
<text text-anchor="middle" x="116.5" y="-316.8" font-family="Helvetica,sans-Serif" font-size="14.00">&#45; addcarryxU64处理进位</text>
</g>
<!-- process_arg1_4&#45;&gt;process_arg1_5 -->
<g id="edge7" class="edge">
<title>process_arg1_4&#45;&gt;process_arg1_5</title>
<path fill="none" stroke="black" d="M116.5,-397.87C116.5,-389.89 116.5,-380.93 116.5,-372.38"/>
<polygon fill="black" stroke="black" points="120,-372.25 116.5,-362.25 113,-372.25 120,-372.25"/>
</g>
<!-- subtract_borrow -->
<g id="node9" class="node">
<title>subtract_borrow</title>
<path fill="none" stroke="black" d="M201,-273C201,-273 32,-273 32,-273 26,-273 20,-267 20,-261 20,-261 20,-232 20,-232 20,-226 26,-220 32,-220 32,-220 201,-220 201,-220 207,-220 213,-226 213,-232 213,-232 213,-261 213,-261 213,-267 207,-273 201,-273"/>
<text text-anchor="middle" x="116.5" y="-257.8" font-family="Helvetica,sans-Serif" font-size="14.00">减法处理</text>
<text text-anchor="middle" x="116.5" y="-242.8" font-family="Helvetica,sans-Serif" font-size="14.00">&#45; subborrowxU64逐位减法</text>
<text text-anchor="middle" x="116.5" y="-227.8" font-family="Helvetica,sans-Serif" font-size="14.00">&#45; 处理借位</text>
</g>
<!-- process_arg1_5&#45;&gt;subtract_borrow -->
<g id="edge8" class="edge">
<title>process_arg1_5&#45;&gt;subtract_borrow</title>
<path fill="none" stroke="black" d="M116.5,-308.87C116.5,-300.89 116.5,-291.93 116.5,-283.38"/>
<polygon fill="black" stroke="black" points="120,-283.25 116.5,-273.25 113,-283.25 120,-283.25"/>
</g>
<!-- conditional_select -->
<g id="node10" class="node">
<title>conditional_select</title>
<path fill="none" stroke="black" d="M219.5,-184C219.5,-184 13.5,-184 13.5,-184 7.5,-184 1.5,-178 1.5,-172 1.5,-172 1.5,-158 1.5,-158 1.5,-152 7.5,-146 13.5,-146 13.5,-146 219.5,-146 219.5,-146 225.5,-146 231.5,-152 231.5,-158 231.5,-158 231.5,-172 231.5,-172 231.5,-178 225.5,-184 219.5,-184"/>
<text text-anchor="middle" x="116.5" y="-168.8" font-family="Helvetica,sans-Serif" font-size="14.00">条件选择</text>
<text text-anchor="middle" x="116.5" y="-153.8" font-family="Helvetica,sans-Serif" font-size="14.00">&#45; cmovznzU64根据借位选择结果</text>
</g>
<!-- subtract_borrow&#45;&gt;conditional_select -->
<g id="edge9" class="edge">
<title>subtract_borrow&#45;&gt;conditional_select</title>
<path fill="none" stroke="black" d="M116.5,-219.91C116.5,-211.74 116.5,-202.65 116.5,-194.3"/>
<polygon fill="black" stroke="black" points="120,-194.24 116.5,-184.24 113,-194.24 120,-194.24"/>
</g>
<!-- output -->
<g id="node11" class="node">
<title>output</title>
<path fill="none" stroke="black" d="M164,-110C164,-110 69,-110 69,-110 63,-110 57,-104 57,-98 57,-98 57,-84 57,-84 57,-78 63,-72 69,-72 69,-72 164,-72 164,-72 170,-72 176,-78 176,-84 176,-84 176,-98 176,-98 176,-104 170,-110 164,-110"/>
<text text-anchor="middle" x="116.5" y="-94.8" font-family="Helvetica,sans-Serif" font-size="14.00">输出结果</text>
<text text-anchor="middle" x="116.5" y="-79.8" font-family="Helvetica,sans-Serif" font-size="14.00">存储到out1数组</text>
</g>
<!-- conditional_select&#45;&gt;output -->
<g id="edge10" class="edge">
<title>conditional_select&#45;&gt;output</title>
<path fill="none" stroke="black" d="M116.5,-145.83C116.5,-138.13 116.5,-128.97 116.5,-120.42"/>
<polygon fill="black" stroke="black" points="120,-120.41 116.5,-110.41 113,-120.41 120,-120.41"/>
</g>
<!-- end -->
<g id="node12" class="node">
<title>end</title>
<path fill="none" stroke="black" d="M131.5,-36C131.5,-36 101.5,-36 101.5,-36 95.5,-36 89.5,-30 89.5,-24 89.5,-24 89.5,-12 89.5,-12 89.5,-6 95.5,0 101.5,0 101.5,0 131.5,0 131.5,0 137.5,0 143.5,-6 143.5,-12 143.5,-12 143.5,-24 143.5,-24 143.5,-30 137.5,-36 131.5,-36"/>
<text text-anchor="middle" x="116.5" y="-14.3" font-family="Helvetica,sans-Serif" font-size="14.00">结束</text>
</g>
<!-- output&#45;&gt;end -->
<g id="edge11" class="edge">
<title>output&#45;&gt;end</title>
<path fill="none" stroke="black" d="M116.5,-71.72C116.5,-63.97 116.5,-54.79 116.5,-46.27"/>
<polygon fill="black" stroke="black" points="120,-46 116.5,-36 113,-46 120,-46"/>
</g>
<!-- mul1 -->
<g id="node13" class="node">
<title>mul1</title>
<path fill="none" stroke="black" d="M413.5,-953C413.5,-953 285.5,-953 285.5,-953 279.5,-953 273.5,-947 273.5,-941 273.5,-941 273.5,-929 273.5,-929 273.5,-923 279.5,-917 285.5,-917 285.5,-917 413.5,-917 413.5,-917 419.5,-917 425.5,-923 425.5,-929 425.5,-929 425.5,-941 425.5,-941 425.5,-947 419.5,-953 413.5,-953"/>
<text text-anchor="middle" x="349.5" y="-931.3" font-family="Helvetica,sans-Serif" font-size="14.00">mulxU64计算x2, x3</text>
</g>
<!-- addcarry1 -->
<g id="node14" class="node">
<title>addcarry1</title>
<path fill="none" stroke="black" d="M433.5,-880C433.5,-880 265.5,-880 265.5,-880 259.5,-880 253.5,-874 253.5,-868 253.5,-868 253.5,-856 253.5,-856 253.5,-850 259.5,-844 265.5,-844 265.5,-844 433.5,-844 433.5,-844 439.5,-844 445.5,-850 445.5,-856 445.5,-856 445.5,-868 445.5,-868 445.5,-874 439.5,-880 433.5,-880"/>
<text text-anchor="middle" x="349.5" y="-858.3" font-family="Helvetica,sans-Serif" font-size="14.00">addcarryxU64处理x4&#45;x17</text>
</g>
<!-- mul1&#45;&gt;addcarry1 -->
<g id="edge12" class="edge">
<title>mul1&#45;&gt;addcarry1</title>
<path fill="none" stroke="black" d="M349.5,-916.81C349.5,-908.79 349.5,-899.05 349.5,-890.07"/>
<polygon fill="black" stroke="black" points="353,-890.03 349.5,-880.03 346,-890.03 353,-890.03"/>
</g>
<!-- addcarry2 -->
<g id="node15" class="node">
<title>addcarry2</title>
<path fill="none" stroke="black" d="M438,-798.5C438,-798.5 261,-798.5 261,-798.5 255,-798.5 249,-792.5 249,-786.5 249,-786.5 249,-774.5 249,-774.5 249,-768.5 255,-762.5 261,-762.5 261,-762.5 438,-762.5 438,-762.5 444,-762.5 450,-768.5 450,-774.5 450,-774.5 450,-786.5 450,-786.5 450,-792.5 444,-798.5 438,-798.5"/>
<text text-anchor="middle" x="349.5" y="-776.8" font-family="Helvetica,sans-Serif" font-size="14.00">addcarryxU64处理x18&#45;x25</text>
</g>
<!-- addcarry1&#45;&gt;addcarry2 -->
<g id="edge13" class="edge">
<title>addcarry1&#45;&gt;addcarry2</title>
<path fill="none" stroke="black" d="M349.5,-843.75C349.5,-833.54 349.5,-820.38 349.5,-808.79"/>
<polygon fill="black" stroke="black" points="353,-808.72 349.5,-798.72 346,-808.72 353,-808.72"/>
</g>
<!-- addcarry3 -->
<g id="node16" class="node">
<title>addcarry3</title>
<path fill="none" stroke="black" d="M438,-709.5C438,-709.5 261,-709.5 261,-709.5 255,-709.5 249,-703.5 249,-697.5 249,-697.5 249,-685.5 249,-685.5 249,-679.5 255,-673.5 261,-673.5 261,-673.5 438,-673.5 438,-673.5 444,-673.5 450,-679.5 450,-685.5 450,-685.5 450,-697.5 450,-697.5 450,-703.5 444,-709.5 438,-709.5"/>
<text text-anchor="middle" x="349.5" y="-687.8" font-family="Helvetica,sans-Serif" font-size="14.00">addcarryxU64处理x26&#45;x39</text>
</g>
<!-- addcarry2&#45;&gt;addcarry3 -->
<g id="edge14" class="edge">
<title>addcarry2&#45;&gt;addcarry3</title>
<path fill="none" stroke="black" d="M349.5,-762.31C349.5,-750.16 349.5,-733.61 349.5,-719.68"/>
<polygon fill="black" stroke="black" points="353,-719.65 349.5,-709.65 346,-719.65 353,-719.65"/>
</g>
</g>
</svg>
