<?xml version="1.0" encoding="UTF-8" standalone="no"?>
<!DOCTYPE svg PUBLIC "-//W3C//DTD SVG 1.1//EN"
 "http://www.w3.org/Graphics/SVG/1.1/DTD/svg11.dtd">
<!-- Generated by graphviz version 2.43.0 (0)
 -->
<!-- Title: divstep_flow Pages: 1 -->
<svg width="211pt" height="846pt"
 viewBox="0.00 0.00 211.00 846.00" xmlns="http://www.w3.org/2000/svg" xmlns:xlink="http://www.w3.org/1999/xlink">
<g id="graph0" class="graph" transform="scale(1 1) rotate(0) translate(4 842)">
<title>divstep_flow</title>
<polygon fill="white" stroke="transparent" points="-4,4 -4,-842 207,-842 207,4 -4,4"/>
<!-- start -->
<g id="node1" class="node">
<title>start</title>
<ellipse fill="none" stroke="black" cx="101.5" cy="-820" rx="27" ry="18"/>
<text text-anchor="middle" x="101.5" y="-817.5" font-family="Courier,monospace" font-size="10.00">开始</text>
</g>
<!-- step1 -->
<g id="node3" class="node">
<title>step1</title>
<polygon fill="none" stroke="black" points="203,-766 0,-766 0,-725 203,-725 203,-766"/>
<text text-anchor="middle" x="101.5" y="-754" font-family="Courier,monospace" font-size="10.00">计算初始条件</text>
<text text-anchor="middle" x="101.5" y="-743" font-family="Courier,monospace" font-size="10.00">x1 = ~arg1 + 1</text>
<text text-anchor="middle" x="101.5" y="-732" font-family="Courier,monospace" font-size="10.00">x3 = (x1 &gt;&gt; 63) &amp; (arg3[0] &amp; 1)</text>
</g>
<!-- start&#45;&gt;step1 -->
<g id="edge1" class="edge">
<title>start&#45;&gt;step1</title>
<path fill="none" stroke="black" d="M101.5,-801.82C101.5,-794.2 101.5,-785 101.5,-776.32"/>
<polygon fill="black" stroke="black" points="105,-776.12 101.5,-766.12 98,-776.12 105,-776.12"/>
</g>
<!-- end -->
<g id="node2" class="node">
<title>end</title>
<ellipse fill="none" stroke="black" cx="101.5" cy="-18" rx="27" ry="18"/>
<text text-anchor="middle" x="101.5" y="-15.5" font-family="Courier,monospace" font-size="10.00">结束</text>
</g>
<!-- step2 -->
<g id="node4" class="node">
<title>step2</title>
<polygon fill="none" stroke="black" points="177.5,-689 25.5,-689 25.5,-648 177.5,-648 177.5,-689"/>
<text text-anchor="middle" x="101.5" y="-677" font-family="Courier,monospace" font-size="10.00">根据 x3 选择变量:</text>
<text text-anchor="middle" x="101.5" y="-666" font-family="Courier,monospace" font-size="10.00">&#45; x6 = arg1 或 x4</text>
<text text-anchor="middle" x="101.5" y="-655" font-family="Courier,monospace" font-size="10.00">&#45; x7&#45;x11 = arg2 或 arg3</text>
</g>
<!-- step1&#45;&gt;step2 -->
<g id="edge2" class="edge">
<title>step1&#45;&gt;step2</title>
<path fill="none" stroke="black" d="M101.5,-724.79C101.5,-716.96 101.5,-707.77 101.5,-699.16"/>
<polygon fill="black" stroke="black" points="105,-699.07 101.5,-689.07 98,-699.07 105,-699.07"/>
</g>
<!-- step3 -->
<g id="node5" class="node">
<title>step3</title>
<polygon fill="none" stroke="black" points="167,-612 36,-612 36,-576 167,-576 167,-612"/>
<text text-anchor="middle" x="101.5" y="-597" font-family="Courier,monospace" font-size="10.00">计算 arg2 的补码:</text>
<text text-anchor="middle" x="101.5" y="-586" font-family="Courier,monospace" font-size="10.00">x12&#45;x20 = ~arg2 + 1</text>
</g>
<!-- step2&#45;&gt;step3 -->
<g id="edge3" class="edge">
<title>step2&#45;&gt;step3</title>
<path fill="none" stroke="black" d="M95.41,-647.69C94.74,-639.91 94.58,-630.84 94.93,-622.45"/>
<polygon fill="black" stroke="black" points="98.43,-622.54 95.65,-612.32 91.45,-622.05 98.43,-622.54"/>
</g>
<!-- step2&#45;&gt;step3 -->
<g id="edge12" class="edge">
<title>step2&#45;&gt;step3</title>
<path fill="none" stroke="black" stroke-dasharray="5,2" d="M107.59,-647.69C108.26,-639.91 108.42,-630.84 108.07,-622.45"/>
<polygon fill="black" stroke="black" points="111.55,-622.05 107.35,-612.32 104.57,-622.54 111.55,-622.05"/>
<text text-anchor="middle" x="88.25" y="-633.05" font-family="Courier,monospace" font-size="10.00">条件移动</text>
</g>
<!-- step4 -->
<g id="node6" class="node">
<title>step4</title>
<polygon fill="none" stroke="black" points="167.5,-540 35.5,-540 35.5,-504 167.5,-504 167.5,-540"/>
<text text-anchor="middle" x="101.5" y="-525" font-family="Courier,monospace" font-size="10.00">根据 x3 选择 x22&#45;x26:</text>
<text text-anchor="middle" x="101.5" y="-514" font-family="Courier,monospace" font-size="10.00">arg3 或其补码</text>
</g>
<!-- step3&#45;&gt;step4 -->
<g id="edge4" class="edge">
<title>step3&#45;&gt;step4</title>
<path fill="none" stroke="black" d="M101.5,-575.7C101.5,-567.98 101.5,-558.71 101.5,-550.11"/>
<polygon fill="black" stroke="black" points="105,-550.1 101.5,-540.1 98,-550.1 105,-550.1"/>
</g>
<!-- step5 -->
<g id="node7" class="node">
<title>step5</title>
<polygon fill="none" stroke="black" points="152,-468 51,-468 51,-432 152,-432 152,-468"/>
<text text-anchor="middle" x="101.5" y="-453" font-family="Courier,monospace" font-size="10.00">处理 arg4/arg5:</text>
<text text-anchor="middle" x="101.5" y="-442" font-family="Courier,monospace" font-size="10.00">翻倍并模减调整</text>
</g>
<!-- step4&#45;&gt;step5 -->
<g id="edge5" class="edge">
<title>step4&#45;&gt;step5</title>
<path fill="none" stroke="black" d="M95.58,-503.7C94.79,-495.98 94.56,-486.71 94.9,-478.11"/>
<polygon fill="black" stroke="black" points="98.4,-478.32 95.6,-468.1 91.42,-477.84 98.4,-478.32"/>
</g>
<!-- step4&#45;&gt;step5 -->
<g id="edge13" class="edge">
<title>step4&#45;&gt;step5</title>
<path fill="none" stroke="black" stroke-dasharray="5,2" d="M107.42,-503.7C108.21,-495.98 108.44,-486.71 108.1,-478.11"/>
<polygon fill="black" stroke="black" points="111.58,-477.84 107.4,-468.1 104.6,-478.32 111.58,-477.84"/>
<text text-anchor="middle" x="88.25" y="-488.89" font-family="Courier,monospace" font-size="10.00">条件选择</text>
</g>
<!-- step6 -->
<g id="node8" class="node">
<title>step6</title>
<polygon fill="none" stroke="black" points="153,-396 50,-396 50,-360 153,-360 153,-396"/>
<text text-anchor="middle" x="101.5" y="-381" font-family="Courier,monospace" font-size="10.00">计算 arg4 的补码</text>
<text text-anchor="middle" x="101.5" y="-370" font-family="Courier,monospace" font-size="10.00">并选择到 x70&#45;x73</text>
</g>
<!-- step5&#45;&gt;step6 -->
<g id="edge6" class="edge">
<title>step5&#45;&gt;step6</title>
<path fill="none" stroke="black" d="M101.5,-431.7C101.5,-423.98 101.5,-414.71 101.5,-406.11"/>
<polygon fill="black" stroke="black" points="105,-406.1 101.5,-396.1 98,-406.1 105,-406.1"/>
</g>
<!-- step7 -->
<g id="node9" class="node">
<title>step7</title>
<polygon fill="none" stroke="black" points="158,-324 45,-324 45,-288 158,-288 158,-324"/>
<text text-anchor="middle" x="101.5" y="-309" font-family="Courier,monospace" font-size="10.00">根据 x74 选择清零</text>
<text text-anchor="middle" x="101.5" y="-298" font-family="Courier,monospace" font-size="10.00">x75&#45;x79 或保留原值</text>
</g>
<!-- step6&#45;&gt;step7 -->
<g id="edge7" class="edge">
<title>step6&#45;&gt;step7</title>
<path fill="none" stroke="black" d="M101.5,-359.7C101.5,-351.98 101.5,-342.71 101.5,-334.11"/>
<polygon fill="black" stroke="black" points="105,-334.1 101.5,-324.1 98,-334.1 105,-334.1"/>
</g>
<!-- step8 -->
<g id="node10" class="node">
<title>step8</title>
<polygon fill="none" stroke="black" points="134,-252 69,-252 69,-216 134,-216 134,-252"/>
<text text-anchor="middle" x="101.5" y="-237" font-family="Courier,monospace" font-size="10.00">加法运算并</text>
<text text-anchor="middle" x="101.5" y="-226" font-family="Courier,monospace" font-size="10.00">模减调整</text>
</g>
<!-- step7&#45;&gt;step8 -->
<g id="edge8" class="edge">
<title>step7&#45;&gt;step8</title>
<path fill="none" stroke="black" d="M95.58,-287.7C94.79,-279.98 94.56,-270.71 94.9,-262.11"/>
<polygon fill="black" stroke="black" points="98.4,-262.32 95.6,-252.1 91.42,-261.84 98.4,-262.32"/>
</g>
<!-- step7&#45;&gt;step8 -->
<g id="edge14" class="edge">
<title>step7&#45;&gt;step8</title>
<path fill="none" stroke="black" stroke-dasharray="5,2" d="M107.42,-287.7C108.21,-279.98 108.44,-270.71 108.1,-262.11"/>
<polygon fill="black" stroke="black" points="111.58,-261.84 107.4,-252.1 104.6,-262.32 111.58,-261.84"/>
<text text-anchor="middle" x="88.25" y="-272.89" font-family="Courier,monospace" font-size="10.00">条件清零</text>
</g>
<!-- step9 -->
<g id="node11" class="node">
<title>step9</title>
<polygon fill="none" stroke="black" points="146,-180 57,-180 57,-144 146,-144 146,-180"/>
<text text-anchor="middle" x="101.5" y="-165" font-family="Courier,monospace" font-size="10.00">根据 x48/x111</text>
<text text-anchor="middle" x="101.5" y="-154" font-family="Courier,monospace" font-size="10.00">选择最终结果</text>
</g>
<!-- step8&#45;&gt;step9 -->
<g id="edge9" class="edge">
<title>step8&#45;&gt;step9</title>
<path fill="none" stroke="black" d="M101.5,-215.7C101.5,-207.98 101.5,-198.71 101.5,-190.11"/>
<polygon fill="black" stroke="black" points="105,-190.1 101.5,-180.1 98,-190.1 105,-190.1"/>
</g>
<!-- step10 -->
<g id="node12" class="node">
<title>step10</title>
<polygon fill="none" stroke="black" points="144,-108 59,-108 59,-72 144,-72 144,-108"/>
<text text-anchor="middle" x="101.5" y="-93" font-family="Courier,monospace" font-size="10.00">计算 x112</text>
<text text-anchor="middle" x="101.5" y="-82" font-family="Courier,monospace" font-size="10.00">并赋值输出参数</text>
</g>
<!-- step9&#45;&gt;step10 -->
<g id="edge10" class="edge">
<title>step9&#45;&gt;step10</title>
<path fill="none" stroke="black" d="M95.58,-143.7C94.79,-135.98 94.56,-126.71 94.9,-118.11"/>
<polygon fill="black" stroke="black" points="98.4,-118.32 95.6,-108.1 91.42,-117.84 98.4,-118.32"/>
</g>
<!-- step9&#45;&gt;step10 -->
<g id="edge15" class="edge">
<title>step9&#45;&gt;step10</title>
<path fill="none" stroke="black" stroke-dasharray="5,2" d="M107.42,-143.7C108.21,-135.98 108.44,-126.71 108.1,-118.11"/>
<polygon fill="black" stroke="black" points="111.58,-117.84 107.4,-108.1 104.6,-118.32 111.58,-117.84"/>
<text text-anchor="middle" x="78.75" y="-128.89" font-family="Courier,monospace" font-size="10.00">条件选择结果</text>
</g>
<!-- step10&#45;&gt;end -->
<g id="edge11" class="edge">
<title>step10&#45;&gt;end</title>
<path fill="none" stroke="black" d="M101.5,-71.7C101.5,-63.98 101.5,-54.71 101.5,-46.11"/>
<polygon fill="black" stroke="black" points="105,-46.1 101.5,-36.1 98,-46.1 105,-46.1"/>
</g>
</g>
</svg>
