<?xml version="1.0" encoding="UTF-8" standalone="no"?>
<!DOCTYPE svg PUBLIC "-//W3C//DTD SVG 1.1//EN"
 "http://www.w3.org/Graphics/SVG/1.1/DTD/svg11.dtd">
<!-- Generated by graphviz version 2.43.0 (0)
 -->
<!-- Title: flowchart Pages: 1 -->
<svg width="369pt" height="1010pt"
 viewBox="0.00 0.00 368.50 1010.00" xmlns="http://www.w3.org/2000/svg" xmlns:xlink="http://www.w3.org/1999/xlink">
<g id="graph0" class="graph" transform="scale(1 1) rotate(0) translate(4 1006)">
<title>flowchart</title>
<polygon fill="white" stroke="transparent" points="-4,4 -4,-1006 364.5,-1006 364.5,4 -4,4"/>
<g id="clust1" class="cluster">
<title>cluster_init</title>
<polygon fill="none" stroke="black" points="8,-787 8,-939 300,-939 300,-787 8,-787"/>
<text text-anchor="middle" x="154" y="-923.8" font-family="Times,serif" font-size="14.00">初始化</text>
</g>
<g id="clust2" class="cluster">
<title>cluster_chain1</title>
<polygon fill="none" stroke="black" points="66,-516 66,-608 278,-608 278,-516 66,-516"/>
<text text-anchor="middle" x="172" y="-592.8" font-family="Times,serif" font-size="14.00">进位/借位操作链</text>
</g>
<g id="clust3" class="cluster">
<title>cluster_arg4_arg5</title>
<polygon fill="none" stroke="black" points="58,-405 58,-497 286,-497 286,-405 58,-405"/>
<text text-anchor="middle" x="172" y="-481.8" font-family="Times,serif" font-size="14.00">处理 arg4/arg5</text>
</g>
<g id="clust4" class="cluster">
<title>cluster_final_ops</title>
<polygon fill="none" stroke="black" points="58,-159 58,-386 286,-386 286,-159 58,-159"/>
<text text-anchor="middle" x="172" y="-370.8" font-family="Times,serif" font-size="14.00">最终运算</text>
</g>
<g id="clust5" class="cluster">
<title>cluster_output</title>
<polygon fill="none" stroke="black" points="95,-65 95,-140 249,-140 249,-65 95,-65"/>
<text text-anchor="middle" x="172" y="-124.8" font-family="Times,serif" font-size="14.00">输出结果</text>
</g>
<!-- start -->
<g id="node1" class="node">
<title>start</title>
<ellipse fill="none" stroke="black" cx="154" cy="-984" rx="29.5" ry="18"/>
<text text-anchor="middle" x="154" y="-980.3" font-family="Arial" font-size="14.00">开始</text>
</g>
<!-- init1 -->
<g id="node3" class="node">
<title>init1</title>
<path fill="none" stroke="black" d="M242,-908C242,-908 66,-908 66,-908 60,-908 54,-902 54,-896 54,-896 54,-882 54,-882 54,-876 60,-870 66,-870 66,-870 242,-870 242,-870 248,-870 254,-876 254,-882 254,-882 254,-896 254,-896 254,-902 248,-908 242,-908"/>
<text text-anchor="middle" x="154" y="-892.8" font-family="Arial" font-size="14.00">计算 x1 = (~arg1) + 1</text>
<text text-anchor="middle" x="154" y="-877.8" font-family="Arial" font-size="14.00">x3 = (x1 &gt;&gt; 63) &amp; (arg3[0] &amp; 1)</text>
</g>
<!-- start&#45;&gt;init1 -->
<g id="edge1" class="edge">
<title>start&#45;&gt;init1</title>
<path fill="none" stroke="black" d="M154,-965.94C154,-952.65 154,-933.9 154,-918.36"/>
<polygon fill="black" stroke="black" points="157.5,-918.22 154,-908.22 150.5,-918.22 157.5,-918.22"/>
</g>
<!-- end -->
<g id="node2" class="node">
<title>end</title>
<ellipse fill="none" stroke="black" cx="172" cy="-18" rx="29.5" ry="18"/>
<text text-anchor="middle" x="172" y="-14.3" font-family="Arial" font-size="14.00">结束</text>
</g>
<!-- init2 -->
<g id="node4" class="node">
<title>init2</title>
<path fill="none" stroke="black" d="M280,-833C280,-833 28,-833 28,-833 22,-833 16,-827 16,-821 16,-821 16,-807 16,-807 16,-801 22,-795 28,-795 28,-795 280,-795 280,-795 286,-795 292,-801 292,-807 292,-807 292,-821 292,-821 292,-827 286,-833 280,-833"/>
<text text-anchor="middle" x="154" y="-817.8" font-family="Arial" font-size="14.00">计算 x4 = (~arg1) + 1</text>
<text text-anchor="middle" x="154" y="-802.8" font-family="Arial" font-size="14.00">cmovznzU64 根据 x3 选择 x6&#45;x13, x28&#45;x34</text>
</g>
<!-- init1&#45;&gt;init2 -->
<g id="edge2" class="edge">
<title>init1&#45;&gt;init2</title>
<path fill="none" stroke="black" d="M154,-869.96C154,-861.88 154,-852.18 154,-843.18"/>
<polygon fill="black" stroke="black" points="157.5,-843.09 154,-833.09 150.5,-843.09 157.5,-843.09"/>
</g>
<!-- chain1 -->
<g id="node5" class="node">
<title>chain1</title>
<path fill="none" stroke="black" d="M258,-577C258,-577 86,-577 86,-577 80,-577 74,-571 74,-565 74,-565 74,-536 74,-536 74,-530 80,-524 86,-524 86,-524 258,-524 258,-524 264,-524 270,-530 270,-536 270,-536 270,-565 270,-565 270,-571 264,-577 258,-577"/>
<text text-anchor="middle" x="172" y="-561.8" font-family="Arial" font-size="14.00">计算 x14&#45;x26（取反进位链）</text>
<text text-anchor="middle" x="172" y="-546.8" font-family="Arial" font-size="14.00">计算 x41&#45;x51（加倍进位链）</text>
<text text-anchor="middle" x="172" y="-531.8" font-family="Arial" font-size="14.00">计算 x53&#45;x63（模减借位链）</text>
</g>
<!-- init2&#45;&gt;chain1 -->
<g id="edge3" class="edge">
<title>init2&#45;&gt;chain1</title>
<path fill="none" stroke="black" d="M129.96,-794.84C119.23,-785.22 107.73,-772.41 102,-758 81.79,-707.21 83.31,-686.37 102,-635 108.82,-616.25 121.9,-598.78 134.93,-584.71"/>
<polygon fill="black" stroke="black" points="137.69,-586.89 142.12,-577.26 132.66,-582.03 137.69,-586.89"/>
</g>
<!-- x3_condition -->
<g id="node11" class="node">
<title>x3_condition</title>
<path fill="none" stroke="black" d="M184.26,-755.5C184.26,-755.5 123.11,-742.5 123.11,-742.5 117.24,-741.25 117.24,-738.75 123.11,-737.5 123.11,-737.5 184.26,-724.5 184.26,-724.5 190.13,-723.25 201.87,-723.25 207.74,-724.5 207.74,-724.5 268.89,-737.5 268.89,-737.5 274.76,-738.75 274.76,-741.25 268.89,-742.5 268.89,-742.5 207.74,-755.5 207.74,-755.5 201.87,-756.75 190.13,-756.75 184.26,-755.5"/>
<text text-anchor="middle" x="196" y="-736.3" font-family="Arial" font-size="14.00">x3 条件分支</text>
</g>
<!-- init2&#45;&gt;x3_condition -->
<g id="edge10" class="edge">
<title>init2&#45;&gt;x3_condition</title>
<path fill="none" stroke="black" stroke-dasharray="1,5" d="M164.6,-794.83C169.83,-785.87 176.21,-774.93 181.85,-765.26"/>
<polygon fill="black" stroke="black" points="184.96,-766.88 186.97,-756.48 178.91,-763.35 184.96,-766.88"/>
</g>
<!-- arg4_arg5 -->
<g id="node6" class="node">
<title>arg4_arg5</title>
<path fill="none" stroke="black" d="M266,-466C266,-466 78,-466 78,-466 72,-466 66,-460 66,-454 66,-454 66,-425 66,-425 66,-419 72,-413 78,-413 78,-413 266,-413 266,-413 272,-413 278,-419 278,-425 278,-425 278,-454 278,-454 278,-460 272,-466 266,-466"/>
<text text-anchor="middle" x="172" y="-450.8" font-family="Arial" font-size="14.00">计算 x73&#45;x83（arg4 反向借位）</text>
<text text-anchor="middle" x="172" y="-435.8" font-family="Arial" font-size="14.00">通过 x85 调整得到 x86&#45;x96</text>
<text text-anchor="middle" x="172" y="-420.8" font-family="Arial" font-size="14.00">cmovznzU64 选择 x98&#45;x103</text>
</g>
<!-- chain1&#45;&gt;arg4_arg5 -->
<g id="edge4" class="edge">
<title>chain1&#45;&gt;arg4_arg5</title>
<path fill="none" stroke="black" d="M172,-523.94C172,-509.83 172,-492.08 172,-476.57"/>
<polygon fill="black" stroke="black" points="175.5,-476.27 172,-466.27 168.5,-476.27 175.5,-476.27"/>
</g>
<!-- final1 -->
<g id="node7" class="node">
<title>final1</title>
<path fill="none" stroke="black" d="M265,-355C265,-355 79,-355 79,-355 73,-355 67,-349 67,-343 67,-343 67,-329 67,-329 67,-323 73,-317 79,-317 79,-317 265,-317 265,-317 271,-317 277,-323 277,-329 277,-329 277,-343 277,-343 277,-349 271,-355 265,-355"/>
<text text-anchor="middle" x="172" y="-339.8" font-family="Arial" font-size="14.00">根据 x104 选择 x105&#45;x111</text>
<text text-anchor="middle" x="172" y="-324.8" font-family="Arial" font-size="14.00">计算 x112&#45;x124（加法进位链）</text>
</g>
<!-- arg4_arg5&#45;&gt;final1 -->
<g id="edge5" class="edge">
<title>arg4_arg5&#45;&gt;final1</title>
<path fill="none" stroke="black" d="M172,-412.89C172,-398.43 172,-380.32 172,-365.42"/>
<polygon fill="black" stroke="black" points="175.5,-365.24 172,-355.24 168.5,-365.24 175.5,-365.24"/>
</g>
<!-- final2 -->
<g id="node8" class="node">
<title>final2</title>
<path fill="none" stroke="black" d="M265.5,-280C265.5,-280 78.5,-280 78.5,-280 72.5,-280 66.5,-274 66.5,-268 66.5,-268 66.5,-254 66.5,-254 66.5,-248 72.5,-242 78.5,-242 78.5,-242 265.5,-242 265.5,-242 271.5,-242 277.5,-248 277.5,-254 277.5,-254 277.5,-268 277.5,-268 277.5,-274 271.5,-280 265.5,-280"/>
<text text-anchor="middle" x="172" y="-264.8" font-family="Arial" font-size="14.00">计算 x132&#45;x142（加法进位链）</text>
<text text-anchor="middle" x="172" y="-249.8" font-family="Arial" font-size="14.00">计算 x144&#45;x154（模减借位链）</text>
</g>
<!-- final1&#45;&gt;final2 -->
<g id="edge6" class="edge">
<title>final1&#45;&gt;final2</title>
<path fill="none" stroke="black" d="M172,-316.96C172,-308.88 172,-299.18 172,-290.18"/>
<polygon fill="black" stroke="black" points="175.5,-290.09 172,-280.09 168.5,-290.09 175.5,-290.09"/>
</g>
<!-- final3 -->
<g id="node9" class="node">
<title>final3</title>
<path fill="none" stroke="black" d="M237,-205C237,-205 107,-205 107,-205 101,-205 95,-199 95,-193 95,-193 95,-179 95,-179 95,-173 101,-167 107,-167 107,-167 237,-167 237,-167 243,-167 249,-173 249,-179 249,-179 249,-193 249,-193 249,-199 243,-205 237,-205"/>
<text text-anchor="middle" x="172" y="-189.8" font-family="Arial" font-size="14.00">计算 x158 = x6 + 1</text>
<text text-anchor="middle" x="172" y="-174.8" font-family="Arial" font-size="14.00">位操作生成 x160&#45;x166</text>
</g>
<!-- final2&#45;&gt;final3 -->
<g id="edge7" class="edge">
<title>final2&#45;&gt;final3</title>
<path fill="none" stroke="black" d="M172,-241.96C172,-233.88 172,-224.18 172,-215.18"/>
<polygon fill="black" stroke="black" points="175.5,-215.09 172,-205.09 168.5,-215.09 175.5,-215.09"/>
</g>
<!-- output -->
<g id="node10" class="node">
<title>output</title>
<path fill="none" stroke="black" d="M228.5,-109C228.5,-109 115.5,-109 115.5,-109 109.5,-109 103.5,-103 103.5,-97 103.5,-97 103.5,-85 103.5,-85 103.5,-79 109.5,-73 115.5,-73 115.5,-73 228.5,-73 228.5,-73 234.5,-73 240.5,-79 240.5,-85 240.5,-85 240.5,-97 240.5,-97 240.5,-103 234.5,-109 228.5,-109"/>
<text text-anchor="middle" x="172" y="-87.3" font-family="Arial" font-size="14.00">设置 out1&#45;out5 的值</text>
</g>
<!-- final3&#45;&gt;output -->
<g id="edge8" class="edge">
<title>final3&#45;&gt;output</title>
<path fill="none" stroke="black" d="M172,-166.63C172,-153.17 172,-134.67 172,-119.46"/>
<polygon fill="black" stroke="black" points="175.5,-119.08 172,-109.08 168.5,-119.08 175.5,-119.08"/>
</g>
<!-- output&#45;&gt;end -->
<g id="edge9" class="edge">
<title>output&#45;&gt;end</title>
<path fill="none" stroke="black" d="M172,-72.81C172,-64.79 172,-55.05 172,-46.07"/>
<polygon fill="black" stroke="black" points="175.5,-46.03 172,-36.03 168.5,-46.03 175.5,-46.03"/>
</g>
<!-- init2_yes -->
<g id="node12" class="node">
<title>init2_yes</title>
<path fill="none" stroke="black" d="M221,-671C221,-671 123,-671 123,-671 117,-671 111,-665 111,-659 111,-659 111,-647 111,-647 111,-641 117,-635 123,-635 123,-635 221,-635 221,-635 227,-635 233,-641 233,-647 233,-647 233,-659 233,-659 233,-665 227,-671 221,-671"/>
<text text-anchor="middle" x="172" y="-649.3" font-family="Arial" font-size="14.00">选择 arg1 相关值</text>
</g>
<!-- x3_condition&#45;&gt;init2_yes -->
<g id="edge11" class="edge">
<title>x3_condition&#45;&gt;init2_yes</title>
<path fill="none" stroke="black" d="M191.37,-722.61C188.05,-710.85 183.5,-694.73 179.64,-681.07"/>
<polygon fill="black" stroke="black" points="182.95,-679.89 176.86,-671.21 176.21,-681.79 182.95,-679.89"/>
<text text-anchor="middle" x="214" y="-692.8" font-family="Arial" font-size="14.00">条件成立</text>
</g>
<!-- init2_no -->
<g id="node13" class="node">
<title>init2_no</title>
<path fill="none" stroke="black" d="M348.5,-671C348.5,-671 263.5,-671 263.5,-671 257.5,-671 251.5,-665 251.5,-659 251.5,-659 251.5,-647 251.5,-647 251.5,-641 257.5,-635 263.5,-635 263.5,-635 348.5,-635 348.5,-635 354.5,-635 360.5,-641 360.5,-647 360.5,-647 360.5,-659 360.5,-659 360.5,-665 354.5,-671 348.5,-671"/>
<text text-anchor="middle" x="306" y="-649.3" font-family="Arial" font-size="14.00">选择 x4 相关值</text>
</g>
<!-- x3_condition&#45;&gt;init2_no -->
<g id="edge12" class="edge">
<title>x3_condition&#45;&gt;init2_no</title>
<path fill="none" stroke="black" d="M215.7,-726.16C225.31,-719.73 236.93,-711.69 247,-704 257.78,-695.77 269.23,-686.25 279.16,-677.74"/>
<polygon fill="black" stroke="black" points="281.47,-680.37 286.74,-671.18 276.89,-675.07 281.47,-680.37"/>
<text text-anchor="middle" x="301" y="-692.8" font-family="Arial" font-size="14.00">条件不成立</text>
</g>
<!-- init2_yes&#45;&gt;chain1 -->
<!-- init2_no&#45;&gt;chain1 -->
</g>
</svg>
