<?xml version="1.0" encoding="UTF-8" standalone="no"?>
<!DOCTYPE svg PUBLIC "-//W3C//DTD SVG 1.1//EN"
 "http://www.w3.org/Graphics/SVG/1.1/DTD/svg11.dtd">
<!-- Generated by graphviz version 2.43.0 (0)
 -->
<!-- Title: BlockVecFlowchart Pages: 1 -->
<svg width="529pt" height="1345pt"
 viewBox="0.00 0.00 529.00 1345.00" xmlns="http://www.w3.org/2000/svg" xmlns:xlink="http://www.w3.org/1999/xlink">
<g id="graph0" class="graph" transform="scale(1 1) rotate(0) translate(4 1341)">
<title>BlockVecFlowchart</title>
<polygon fill="white" stroke="transparent" points="-4,4 -4,-1341 525,-1341 525,4 -4,4"/>
<g id="clust1" class="cluster">
<title>cluster_methods</title>
<polygon fill="none" stroke="black" points="15,-66 15,-789 277,-789 277,-66 15,-66"/>
<text text-anchor="middle" x="146" y="-773.8" font-family="Times,serif" font-size="14.00">Methods</text>
</g>
<!-- start -->
<g id="node1" class="node">
<title>start</title>
<path fill="none" stroke="black" d="M336.5,-1337C336.5,-1337 61.5,-1337 61.5,-1337 55.5,-1337 49.5,-1331 49.5,-1325 49.5,-1325 49.5,-1313 49.5,-1313 49.5,-1307 55.5,-1301 61.5,-1301 61.5,-1301 336.5,-1301 336.5,-1301 342.5,-1301 348.5,-1307 348.5,-1313 348.5,-1313 348.5,-1325 348.5,-1325 348.5,-1331 342.5,-1337 336.5,-1337"/>
<text text-anchor="middle" x="199" y="-1315.3" font-family="Times,serif" font-size="14.00">Start BlockVec(comptime blocks_count)</text>
</g>
<!-- define_struct -->
<g id="node2" class="node">
<title>define_struct</title>
<path fill="none" stroke="black" d="M242,-1265C242,-1265 156,-1265 156,-1265 150,-1265 144,-1259 144,-1253 144,-1253 144,-1241 144,-1241 144,-1235 150,-1229 156,-1229 156,-1229 242,-1229 242,-1229 248,-1229 254,-1235 254,-1241 254,-1241 254,-1253 254,-1253 254,-1259 248,-1265 242,-1265"/>
<text text-anchor="middle" x="199" y="-1243.3" font-family="Times,serif" font-size="14.00">Define struct</text>
</g>
<!-- start&#45;&gt;define_struct -->
<g id="edge1" class="edge">
<title>start&#45;&gt;define_struct</title>
<path fill="none" stroke="black" d="M199,-1300.7C199,-1292.98 199,-1283.71 199,-1275.11"/>
<polygon fill="black" stroke="black" points="202.5,-1275.1 199,-1265.1 195.5,-1275.1 202.5,-1275.1"/>
</g>
<!-- native_vector_size -->
<g id="node3" class="node">
<title>native_vector_size</title>
<path fill="none" stroke="black" d="M312.5,-1193C312.5,-1193 85.5,-1193 85.5,-1193 79.5,-1193 73.5,-1187 73.5,-1181 73.5,-1181 73.5,-1169 73.5,-1169 73.5,-1163 79.5,-1157 85.5,-1157 85.5,-1157 312.5,-1157 312.5,-1157 318.5,-1157 324.5,-1163 324.5,-1169 324.5,-1169 324.5,-1181 324.5,-1181 324.5,-1187 318.5,-1193 312.5,-1193"/>
<text text-anchor="middle" x="199" y="-1171.3" font-family="Times,serif" font-size="14.00">pub const native_vector_size = 1</text>
</g>
<!-- define_struct&#45;&gt;native_vector_size -->
<g id="edge2" class="edge">
<title>define_struct&#45;&gt;native_vector_size</title>
<path fill="none" stroke="black" d="M199,-1228.7C199,-1220.98 199,-1211.71 199,-1203.11"/>
<polygon fill="black" stroke="black" points="202.5,-1203.1 199,-1193.1 195.5,-1203.1 202.5,-1203.1"/>
</g>
<!-- native_word_size -->
<g id="node4" class="node">
<title>native_word_size</title>
<path fill="none" stroke="black" d="M386,-1121C386,-1121 12,-1121 12,-1121 6,-1121 0,-1115 0,-1109 0,-1109 0,-1097 0,-1097 0,-1091 6,-1085 12,-1085 12,-1085 386,-1085 386,-1085 392,-1085 398,-1091 398,-1097 398,-1097 398,-1109 398,-1109 398,-1115 392,-1121 386,-1121"/>
<text text-anchor="middle" x="199" y="-1099.3" font-family="Times,serif" font-size="14.00">pub const native_word_size = native_vector_size * 16</text>
</g>
<!-- native_vector_size&#45;&gt;native_word_size -->
<g id="edge3" class="edge">
<title>native_vector_size&#45;&gt;native_word_size</title>
<path fill="none" stroke="black" d="M199,-1156.7C199,-1148.98 199,-1139.71 199,-1131.11"/>
<polygon fill="black" stroke="black" points="202.5,-1131.1 199,-1121.1 195.5,-1131.1 202.5,-1131.1"/>
</g>
<!-- native_words -->
<g id="node5" class="node">
<title>native_words</title>
<path fill="none" stroke="black" d="M320,-1049C320,-1049 78,-1049 78,-1049 72,-1049 66,-1043 66,-1037 66,-1037 66,-1025 66,-1025 66,-1019 72,-1013 78,-1013 78,-1013 320,-1013 320,-1013 326,-1013 332,-1019 332,-1025 332,-1025 332,-1037 332,-1037 332,-1043 326,-1049 320,-1049"/>
<text text-anchor="middle" x="199" y="-1027.3" font-family="Times,serif" font-size="14.00">const native_words = blocks_count</text>
</g>
<!-- native_word_size&#45;&gt;native_words -->
<g id="edge4" class="edge">
<title>native_word_size&#45;&gt;native_words</title>
<path fill="none" stroke="black" d="M199,-1084.7C199,-1076.98 199,-1067.71 199,-1059.11"/>
<polygon fill="black" stroke="black" points="202.5,-1059.1 199,-1049.1 195.5,-1059.1 202.5,-1059.1"/>
</g>
<!-- repr -->
<g id="node6" class="node">
<title>repr</title>
<path fill="none" stroke="black" d="M287,-977C287,-977 111,-977 111,-977 105,-977 99,-971 99,-965 99,-965 99,-953 99,-953 99,-947 105,-941 111,-941 111,-941 287,-941 287,-941 293,-941 299,-947 299,-953 299,-953 299,-965 299,-965 299,-971 293,-977 287,-977"/>
<text text-anchor="middle" x="199" y="-955.3" font-family="Times,serif" font-size="14.00">repr: [native_words]Block</text>
</g>
<!-- native_words&#45;&gt;repr -->
<g id="edge5" class="edge">
<title>native_words&#45;&gt;repr</title>
<path fill="none" stroke="black" d="M199,-1012.7C199,-1004.98 199,-995.71 199,-987.11"/>
<polygon fill="black" stroke="black" points="202.5,-987.1 199,-977.1 195.5,-987.1 202.5,-987.1"/>
</g>
<!-- block_length -->
<g id="node7" class="node">
<title>block_length</title>
<path fill="none" stroke="black" d="M350.5,-905C350.5,-905 47.5,-905 47.5,-905 41.5,-905 35.5,-899 35.5,-893 35.5,-893 35.5,-881 35.5,-881 35.5,-875 41.5,-869 47.5,-869 47.5,-869 350.5,-869 350.5,-869 356.5,-869 362.5,-875 362.5,-881 362.5,-881 362.5,-893 362.5,-893 362.5,-899 356.5,-905 350.5,-905"/>
<text text-anchor="middle" x="199" y="-883.3" font-family="Times,serif" font-size="14.00">pub const block_length = blocks_count * 16</text>
</g>
<!-- repr&#45;&gt;block_length -->
<g id="edge6" class="edge">
<title>repr&#45;&gt;block_length</title>
<path fill="none" stroke="black" d="M199,-940.7C199,-932.98 199,-923.71 199,-915.11"/>
<polygon fill="black" stroke="black" points="202.5,-915.1 199,-905.1 195.5,-915.1 202.5,-915.1"/>
</g>
<!-- methods -->
<g id="node8" class="node">
<title>methods</title>
<ellipse fill="none" stroke="black" cx="199" cy="-815" rx="51.19" ry="18"/>
<text text-anchor="middle" x="199" y="-811.3" font-family="Times,serif" font-size="14.00">Methods</text>
</g>
<!-- block_length&#45;&gt;methods -->
<g id="edge7" class="edge">
<title>block_length&#45;&gt;methods</title>
<path fill="none" stroke="black" d="M199,-868.7C199,-860.98 199,-851.71 199,-843.11"/>
<polygon fill="black" stroke="black" points="202.5,-843.1 199,-833.1 195.5,-843.1 202.5,-843.1"/>
</g>
<!-- fromBytes -->
<g id="node9" class="node">
<title>fromBytes</title>
<path fill="none" stroke="black" d="M257,-758C257,-758 141,-758 141,-758 135,-758 129,-752 129,-746 129,-746 129,-734 129,-734 129,-728 135,-722 141,-722 141,-722 257,-722 257,-722 263,-722 269,-728 269,-734 269,-734 269,-746 269,-746 269,-752 263,-758 257,-758"/>
<text text-anchor="middle" x="199" y="-736.3" font-family="Times,serif" font-size="14.00">fromBytes(bytes)</text>
</g>
<!-- methods&#45;&gt;fromBytes -->
<g id="edge17" class="edge">
<title>methods&#45;&gt;fromBytes</title>
<path fill="none" stroke="black" d="M199,-796.7C199,-788.25 199,-777.87 199,-768.37"/>
<polygon fill="black" stroke="black" points="202.5,-768.18 199,-758.18 195.5,-768.18 202.5,-768.18"/>
</g>
<!-- toBytes -->
<g id="node10" class="node">
<title>toBytes</title>
<path fill="none" stroke="black" d="M231,-686C231,-686 173,-686 173,-686 167,-686 161,-680 161,-674 161,-674 161,-662 161,-662 161,-656 167,-650 173,-650 173,-650 231,-650 231,-650 237,-650 243,-656 243,-662 243,-662 243,-674 243,-674 243,-680 237,-686 231,-686"/>
<text text-anchor="middle" x="202" y="-664.3" font-family="Times,serif" font-size="14.00">toBytes()</text>
</g>
<!-- fromBytes&#45;&gt;toBytes -->
<!-- loop_logic -->
<g id="node19" class="node">
<title>loop_logic</title>
<path fill="none" stroke="black" d="M468,-38C468,-38 232,-38 232,-38 226,-38 220,-32 220,-26 220,-26 220,-12 220,-12 220,-6 226,0 232,0 232,0 468,0 468,0 474,0 480,-6 480,-12 480,-12 480,-26 480,-26 480,-32 474,-38 468,-38"/>
<text text-anchor="middle" x="350" y="-22.8" font-family="Times,serif" font-size="14.00">For each block in 0..native_words:</text>
<text text-anchor="middle" x="350" y="-7.8" font-family="Times,serif" font-size="14.00">&#45; Apply operation to repr[i]</text>
</g>
<!-- fromBytes&#45;&gt;loop_logic -->
<g id="edge18" class="edge">
<title>fromBytes&#45;&gt;loop_logic</title>
<path fill="none" stroke="black" stroke-dasharray="5,2" d="M269.27,-737.85C364.01,-732.14 521,-706.21 521,-597 521,-597 521,-597 521,-163 521,-113 501.87,-98.65 464,-66 452.71,-56.26 439.08,-48.41 425.25,-42.15"/>
<polygon fill="black" stroke="black" points="426.23,-38.76 415.66,-38.06 423.48,-45.2 426.23,-38.76"/>
</g>
<!-- xorBytes -->
<g id="node11" class="node">
<title>xorBytes</title>
<path fill="none" stroke="black" d="M255,-614C255,-614 149,-614 149,-614 143,-614 137,-608 137,-602 137,-602 137,-590 137,-590 137,-584 143,-578 149,-578 149,-578 255,-578 255,-578 261,-578 267,-584 267,-590 267,-590 267,-602 267,-602 267,-608 261,-614 255,-614"/>
<text text-anchor="middle" x="202" y="-592.3" font-family="Times,serif" font-size="14.00">xorBytes(bytes)</text>
</g>
<!-- toBytes&#45;&gt;xorBytes -->
<!-- toBytes&#45;&gt;loop_logic -->
<g id="edge19" class="edge">
<title>toBytes&#45;&gt;loop_logic</title>
<path fill="none" stroke="black" stroke-dasharray="5,2" d="M243.16,-664.73C321.21,-657.98 483,-631.18 483,-525 483,-525 483,-525 483,-163 483,-114.08 465.16,-101.01 431,-66 422.44,-57.23 411.85,-49.62 401.18,-43.25"/>
<polygon fill="black" stroke="black" points="402.67,-40.08 392.25,-38.2 399.23,-46.17 402.67,-40.08"/>
</g>
<!-- encrypt -->
<g id="node12" class="node">
<title>encrypt</title>
<path fill="none" stroke="black" d="M257,-542C257,-542 95,-542 95,-542 89,-542 83,-536 83,-530 83,-530 83,-518 83,-518 83,-512 89,-506 95,-506 95,-506 257,-506 257,-506 263,-506 269,-512 269,-518 269,-518 269,-530 269,-530 269,-536 263,-542 257,-542"/>
<text text-anchor="middle" x="176" y="-520.3" font-family="Times,serif" font-size="14.00">encrypt(round_key_vec)</text>
</g>
<!-- xorBytes&#45;&gt;encrypt -->
<!-- xorBytes&#45;&gt;loop_logic -->
<g id="edge20" class="edge">
<title>xorBytes&#45;&gt;loop_logic</title>
<path fill="none" stroke="black" stroke-dasharray="5,2" d="M267.12,-585.56C339.1,-571.01 445,-535.58 445,-453 445,-453 445,-453 445,-163 445,-115.84 429.86,-104.05 402,-66 396.41,-58.36 389.35,-51.07 382.25,-44.65"/>
<polygon fill="black" stroke="black" points="384.45,-41.93 374.6,-38.03 379.87,-47.22 384.45,-41.93"/>
</g>
<!-- encryptLast -->
<g id="node13" class="node">
<title>encryptLast</title>
<path fill="none" stroke="black" d="M256.5,-470C256.5,-470 63.5,-470 63.5,-470 57.5,-470 51.5,-464 51.5,-458 51.5,-458 51.5,-446 51.5,-446 51.5,-440 57.5,-434 63.5,-434 63.5,-434 256.5,-434 256.5,-434 262.5,-434 268.5,-440 268.5,-446 268.5,-446 268.5,-458 268.5,-458 268.5,-464 262.5,-470 256.5,-470"/>
<text text-anchor="middle" x="160" y="-448.3" font-family="Times,serif" font-size="14.00">encryptLast(round_key_vec)</text>
</g>
<!-- encrypt&#45;&gt;encryptLast -->
<!-- encrypt&#45;&gt;loop_logic -->
<g id="edge21" class="edge">
<title>encrypt&#45;&gt;loop_logic</title>
<path fill="none" stroke="black" stroke-dasharray="5,2" d="M263.66,-505.98C329.01,-487.62 407,-451.02 407,-381 407,-381 407,-381 407,-163 407,-120.02 384.51,-74.61 367.78,-46.78"/>
<polygon fill="black" stroke="black" points="370.61,-44.7 362.37,-38.04 364.66,-48.39 370.61,-44.7"/>
</g>
<!-- decrypt -->
<g id="node14" class="node">
<title>decrypt</title>
<path fill="none" stroke="black" d="M255.5,-398C255.5,-398 64.5,-398 64.5,-398 58.5,-398 52.5,-392 52.5,-386 52.5,-386 52.5,-374 52.5,-374 52.5,-368 58.5,-362 64.5,-362 64.5,-362 255.5,-362 255.5,-362 261.5,-362 267.5,-368 267.5,-374 267.5,-374 267.5,-386 267.5,-386 267.5,-392 261.5,-398 255.5,-398"/>
<text text-anchor="middle" x="160" y="-376.3" font-family="Times,serif" font-size="14.00">decrypt(inv_round_key_vec)</text>
</g>
<!-- encryptLast&#45;&gt;decrypt -->
<!-- encryptLast&#45;&gt;loop_logic -->
<g id="edge22" class="edge">
<title>encryptLast&#45;&gt;loop_logic</title>
<path fill="none" stroke="black" stroke-dasharray="5,2" d="M231.63,-433.98C292.13,-414.83 369,-377.1 369,-309 369,-309 369,-309 369,-163 369,-123.03 361.61,-77.31 356.05,-48.55"/>
<polygon fill="black" stroke="black" points="359.42,-47.53 354.03,-38.41 352.55,-48.9 359.42,-47.53"/>
</g>
<!-- decryptLast -->
<g id="node15" class="node">
<title>decryptLast</title>
<path fill="none" stroke="black" d="M256.5,-326C256.5,-326 35.5,-326 35.5,-326 29.5,-326 23.5,-320 23.5,-314 23.5,-314 23.5,-302 23.5,-302 23.5,-296 29.5,-290 35.5,-290 35.5,-290 256.5,-290 256.5,-290 262.5,-290 268.5,-296 268.5,-302 268.5,-302 268.5,-314 268.5,-314 268.5,-320 262.5,-326 256.5,-326"/>
<text text-anchor="middle" x="146" y="-304.3" font-family="Times,serif" font-size="14.00">decryptLast(inv_round_key_vec)</text>
</g>
<!-- decrypt&#45;&gt;decryptLast -->
<!-- decrypt&#45;&gt;loop_logic -->
<g id="edge23" class="edge">
<title>decrypt&#45;&gt;loop_logic</title>
<path fill="none" stroke="black" stroke-dasharray="5,2" d="M216.06,-361.93C237.16,-353.54 260.31,-341.76 278,-326 312.37,-295.37 331,-283.04 331,-237 331,-237 331,-237 331,-163 331,-123.03 338.39,-77.31 343.95,-48.55"/>
<polygon fill="black" stroke="black" points="347.45,-48.9 345.97,-38.41 340.58,-47.53 347.45,-48.9"/>
</g>
<!-- xorBlocks -->
<g id="node16" class="node">
<title>xorBlocks</title>
<path fill="none" stroke="black" d="M221,-254C221,-254 71,-254 71,-254 65,-254 59,-248 59,-242 59,-242 59,-230 59,-230 59,-224 65,-218 71,-218 71,-218 221,-218 221,-218 227,-218 233,-224 233,-230 233,-230 233,-242 233,-242 233,-248 227,-254 221,-254"/>
<text text-anchor="middle" x="146" y="-232.3" font-family="Times,serif" font-size="14.00">xorBlocks(block_vec2)</text>
</g>
<!-- decryptLast&#45;&gt;xorBlocks -->
<!-- decryptLast&#45;&gt;loop_logic -->
<g id="edge24" class="edge">
<title>decryptLast&#45;&gt;loop_logic</title>
<path fill="none" stroke="black" stroke-dasharray="5,2" d="M191.52,-289.8C209.19,-281.26 228.4,-269.42 242,-254 301.52,-186.54 273.8,-144.91 317,-66 320.63,-59.36 325.07,-52.56 329.49,-46.28"/>
<polygon fill="black" stroke="black" points="332.38,-48.27 335.44,-38.12 326.72,-44.14 332.38,-48.27"/>
</g>
<!-- andBlocks -->
<g id="node17" class="node">
<title>andBlocks</title>
<path fill="none" stroke="black" d="M215.5,-182C215.5,-182 62.5,-182 62.5,-182 56.5,-182 50.5,-176 50.5,-170 50.5,-170 50.5,-158 50.5,-158 50.5,-152 56.5,-146 62.5,-146 62.5,-146 215.5,-146 215.5,-146 221.5,-146 227.5,-152 227.5,-158 227.5,-158 227.5,-170 227.5,-170 227.5,-176 221.5,-182 215.5,-182"/>
<text text-anchor="middle" x="139" y="-160.3" font-family="Times,serif" font-size="14.00">andBlocks(block_vec2)</text>
</g>
<!-- xorBlocks&#45;&gt;andBlocks -->
<!-- xorBlocks&#45;&gt;loop_logic -->
<g id="edge25" class="edge">
<title>xorBlocks&#45;&gt;loop_logic</title>
<path fill="none" stroke="black" stroke-dasharray="5,2" d="M188.93,-217.78C205.84,-209.18 224.23,-197.3 237,-182 272.13,-139.9 244.88,-108.92 279,-66 285.86,-57.37 294.79,-49.85 304,-43.53"/>
<polygon fill="black" stroke="black" points="305.97,-46.42 312.48,-38.06 302.18,-40.54 305.97,-46.42"/>
</g>
<!-- orBlocks -->
<g id="node18" class="node">
<title>orBlocks</title>
<path fill="none" stroke="black" d="M177,-110C177,-110 35,-110 35,-110 29,-110 23,-104 23,-98 23,-98 23,-86 23,-86 23,-80 29,-74 35,-74 35,-74 177,-74 177,-74 183,-74 189,-80 189,-86 189,-86 189,-98 189,-98 189,-104 183,-110 177,-110"/>
<text text-anchor="middle" x="106" y="-88.3" font-family="Times,serif" font-size="14.00">orBlocks(block_vec2)</text>
</g>
<!-- andBlocks&#45;&gt;orBlocks -->
<!-- andBlocks&#45;&gt;loop_logic -->
<g id="edge26" class="edge">
<title>andBlocks&#45;&gt;loop_logic</title>
<path fill="none" stroke="black" stroke-dasharray="5,2" d="M158.69,-145.89C170.3,-135.65 185.18,-122.29 198,-110 217.74,-91.08 218.4,-81.4 241,-66 254.71,-56.66 270.61,-48.64 285.96,-42.03"/>
<polygon fill="black" stroke="black" points="287.53,-45.17 295.42,-38.1 284.84,-38.7 287.53,-45.17"/>
</g>
<!-- orBlocks&#45;&gt;loop_logic -->
<g id="edge27" class="edge">
<title>orBlocks&#45;&gt;loop_logic</title>
<path fill="none" stroke="black" stroke-dasharray="5,2" d="M164.44,-73.99C198.47,-64.09 241.64,-51.53 277.77,-41.02"/>
<polygon fill="black" stroke="black" points="279.14,-44.26 287.77,-38.11 277.19,-37.54 279.14,-44.26"/>
</g>
</g>
</svg>
