<?xml version="1.0" encoding="UTF-8" standalone="no"?>
<!DOCTYPE svg PUBLIC "-//W3C//DTD SVG 1.1//EN"
 "http://www.w3.org/Graphics/SVG/1.1/DTD/svg11.dtd">
<!-- Generated by graphviz version 2.43.0 (0)
 -->
<!-- Title: ModulusFlow Pages: 1 -->
<svg width="1081pt" height="597pt"
 viewBox="0.00 0.00 1081.00 596.50" xmlns="http://www.w3.org/2000/svg" xmlns:xlink="http://www.w3.org/1999/xlink">
<g id="graph0" class="graph" transform="scale(1 1) rotate(0) translate(4 592.5)">
<title>ModulusFlow</title>
<polygon fill="white" stroke="transparent" points="-4,4 -4,-592.5 1077,-592.5 1077,4 -4,4"/>
<g id="clust1" class="cluster">
<title>cluster_creation</title>
<polygon fill="none" stroke="black" points="301.5,-8 301.5,-204 432.5,-204 432.5,-8 301.5,-8"/>
<text text-anchor="middle" x="367" y="-188.8" font-family="Times,serif" font-size="14.00">模数创建与初始化</text>
</g>
<g id="clust2" class="cluster">
<title>cluster_operations</title>
<polygon fill="none" stroke="black" points="440.5,-112 440.5,-322.5 833.5,-322.5 833.5,-112 440.5,-112"/>
<text text-anchor="middle" x="637" y="-307.3" font-family="Times,serif" font-size="14.00">字段元素运算</text>
</g>
<g id="clust3" class="cluster">
<title>cluster_pow_internal</title>
<polygon fill="none" stroke="black" points="583.5,-341.5 583.5,-508.5 917.5,-508.5 917.5,-341.5 583.5,-341.5"/>
<text text-anchor="middle" x="750.5" y="-493.3" font-family="Times,serif" font-size="14.00">幂运算内部处理</text>
</g>
<!-- start -->
<g id="node1" class="node">
<title>start</title>
<ellipse fill="none" stroke="black" cx="197.5" cy="-368.5" rx="106.68" ry="18"/>
<text text-anchor="middle" x="197.5" y="-364.8" font-family="Times,serif" font-size="14.00">开始创建Modulus实例</text>
</g>
<!-- fromUint -->
<g id="node3" class="node">
<title>fromUint</title>
<path fill="none" stroke="black" d="M419,-299C419,-299 306,-299 306,-299 300,-299 294,-293 294,-287 294,-287 294,-243 294,-243 294,-237 300,-231 306,-231 306,-231 419,-231 419,-231 425,-231 431,-237 431,-243 431,-243 431,-287 431,-287 431,-293 425,-299 419,-299"/>
<text text-anchor="middle" x="362.5" y="-283.8" font-family="Times,serif" font-size="14.00">fromUint:</text>
<text text-anchor="middle" x="362.5" y="-268.8" font-family="Times,serif" font-size="14.00">&#45; 验证模数奇偶性</text>
<text text-anchor="middle" x="362.5" y="-253.8" font-family="Times,serif" font-size="14.00">&#45; 计算m0inv</text>
<text text-anchor="middle" x="362.5" y="-238.8" font-family="Times,serif" font-size="14.00">&#45; 调用computeRR</text>
</g>
<!-- start&#45;&gt;fromUint -->
<g id="edge1" class="edge">
<title>start&#45;&gt;fromUint</title>
<path fill="none" stroke="black" d="M224.38,-350.97C244.81,-338.4 273.75,-320.59 299.87,-304.53"/>
<polygon fill="black" stroke="black" points="301.92,-307.37 308.61,-299.15 298.25,-301.41 301.92,-307.37"/>
</g>
<!-- fromPrimitive -->
<g id="node4" class="node">
<title>fromPrimitive</title>
<path fill="none" stroke="black" d="M246,-291.5C246,-291.5 149,-291.5 149,-291.5 143,-291.5 137,-285.5 137,-279.5 137,-279.5 137,-250.5 137,-250.5 137,-244.5 143,-238.5 149,-238.5 149,-238.5 246,-238.5 246,-238.5 252,-238.5 258,-244.5 258,-250.5 258,-250.5 258,-279.5 258,-279.5 258,-285.5 252,-291.5 246,-291.5"/>
<text text-anchor="middle" x="197.5" y="-276.3" font-family="Times,serif" font-size="14.00">fromPrimitive:</text>
<text text-anchor="middle" x="197.5" y="-261.3" font-family="Times,serif" font-size="14.00">&#45; 类型检查</text>
<text text-anchor="middle" x="197.5" y="-246.3" font-family="Times,serif" font-size="14.00">&#45; 调用fromUint</text>
</g>
<!-- start&#45;&gt;fromPrimitive -->
<g id="edge2" class="edge">
<title>start&#45;&gt;fromPrimitive</title>
<path fill="none" stroke="black" d="M197.5,-350.28C197.5,-337.11 197.5,-318.47 197.5,-302.07"/>
<polygon fill="black" stroke="black" points="201,-301.7 197.5,-291.7 194,-301.7 201,-301.7"/>
</g>
<!-- fromBytes -->
<g id="node5" class="node">
<title>fromBytes</title>
<path fill="none" stroke="black" d="M107,-291.5C107,-291.5 12,-291.5 12,-291.5 6,-291.5 0,-285.5 0,-279.5 0,-279.5 0,-250.5 0,-250.5 0,-244.5 6,-238.5 12,-238.5 12,-238.5 107,-238.5 107,-238.5 113,-238.5 119,-244.5 119,-250.5 119,-250.5 119,-279.5 119,-279.5 119,-285.5 113,-291.5 107,-291.5"/>
<text text-anchor="middle" x="59.5" y="-276.3" font-family="Times,serif" font-size="14.00">fromBytes:</text>
<text text-anchor="middle" x="59.5" y="-261.3" font-family="Times,serif" font-size="14.00">&#45; 字节转换</text>
<text text-anchor="middle" x="59.5" y="-246.3" font-family="Times,serif" font-size="14.00">&#45; 调用fromUint</text>
</g>
<!-- start&#45;&gt;fromBytes -->
<g id="edge3" class="edge">
<title>start&#45;&gt;fromBytes</title>
<path fill="none" stroke="black" d="M170.06,-350.94C156.93,-342.75 141.14,-332.49 127.5,-322.5 117.14,-314.91 106.3,-306.25 96.38,-298.03"/>
<polygon fill="black" stroke="black" points="98.57,-295.3 88.66,-291.56 94.08,-300.66 98.57,-295.3"/>
</g>
<!-- end -->
<g id="node2" class="node">
<title>end</title>
<ellipse fill="none" stroke="black" cx="986.5" cy="-451" rx="29.5" ry="18"/>
<text text-anchor="middle" x="986.5" y="-447.3" font-family="Times,serif" font-size="14.00">结束</text>
</g>
<!-- computeRR -->
<g id="node6" class="node">
<title>computeRR</title>
<path fill="none" stroke="black" d="M404.5,-173C404.5,-173 324.5,-173 324.5,-173 318.5,-173 312.5,-167 312.5,-161 312.5,-161 312.5,-132 312.5,-132 312.5,-126 318.5,-120 324.5,-120 324.5,-120 404.5,-120 404.5,-120 410.5,-120 416.5,-126 416.5,-132 416.5,-132 416.5,-161 416.5,-161 416.5,-167 410.5,-173 404.5,-173"/>
<text text-anchor="middle" x="364.5" y="-157.8" font-family="Times,serif" font-size="14.00">computeRR:</text>
<text text-anchor="middle" x="364.5" y="-142.8" font-family="Times,serif" font-size="14.00">&#45; 初始化rr</text>
<text text-anchor="middle" x="364.5" y="-127.8" font-family="Times,serif" font-size="14.00">&#45; 循环shiftIn</text>
</g>
<!-- fromUint&#45;&gt;computeRR -->
<g id="edge4" class="edge">
<title>fromUint&#45;&gt;computeRR</title>
<path fill="none" stroke="black" d="M363.07,-230.93C363.32,-216.06 363.62,-198.48 363.89,-183.31"/>
<polygon fill="black" stroke="black" points="367.39,-183.31 364.06,-173.25 360.39,-183.19 367.39,-183.31"/>
</g>
<!-- fromPrimitive&#45;&gt;fromUint -->
<g id="edge6" class="edge">
<title>fromPrimitive&#45;&gt;fromUint</title>
<path fill="none" stroke="black" d="M258.09,-265C266.69,-265 275.28,-265 283.88,-265"/>
<polygon fill="black" stroke="black" points="283.98,-268.5 293.98,-265 283.98,-261.5 283.98,-268.5"/>
</g>
<!-- fromBytes&#45;&gt;fromUint -->
<g id="edge7" class="edge">
<title>fromBytes&#45;&gt;fromUint</title>
<path fill="none" stroke="black" d="M81.1,-291.5C95.11,-306.51 114.76,-323.87 136.5,-332 161.68,-341.42 231.69,-339.53 257.5,-332 276.94,-326.32 296.22,-315.83 312.84,-304.81"/>
<polygon fill="black" stroke="black" points="315.01,-307.56 321.28,-299.02 311.05,-301.79 315.01,-307.56"/>
</g>
<!-- shiftIn -->
<g id="node7" class="node">
<title>shiftIn</title>
<path fill="none" stroke="black" d="M410,-69C410,-69 323,-69 323,-69 317,-69 311,-63 311,-57 311,-57 311,-28 311,-28 311,-22 317,-16 323,-16 323,-16 410,-16 410,-16 416,-16 422,-22 422,-28 422,-28 422,-57 422,-57 422,-63 416,-69 410,-69"/>
<text text-anchor="middle" x="366.5" y="-53.8" font-family="Times,serif" font-size="14.00">shiftIn:</text>
<text text-anchor="middle" x="366.5" y="-38.8" font-family="Times,serif" font-size="14.00">&#45; 处理进位借位</text>
<text text-anchor="middle" x="366.5" y="-23.8" font-family="Times,serif" font-size="14.00">&#45; 条件移动数据</text>
</g>
<!-- computeRR&#45;&gt;shiftIn -->
<g id="edge5" class="edge">
<title>computeRR&#45;&gt;shiftIn</title>
<path fill="none" stroke="black" d="M365,-119.76C365.24,-107.56 365.53,-92.78 365.79,-79.49"/>
<polygon fill="black" stroke="black" points="369.3,-79.3 366,-69.23 362.3,-79.16 369.3,-79.3"/>
<text text-anchor="middle" x="395.5" y="-90.8" font-family="Times,serif" font-size="14.00">循环调用</text>
</g>
<!-- add -->
<g id="node8" class="node">
<title>add</title>
<path fill="none" stroke="black" d="M932,-588.5C932,-588.5 845,-588.5 845,-588.5 839,-588.5 833,-582.5 833,-576.5 833,-576.5 833,-547.5 833,-547.5 833,-541.5 839,-535.5 845,-535.5 845,-535.5 932,-535.5 932,-535.5 938,-535.5 944,-541.5 944,-547.5 944,-547.5 944,-576.5 944,-576.5 944,-582.5 938,-588.5 932,-588.5"/>
<text text-anchor="middle" x="888.5" y="-573.3" font-family="Times,serif" font-size="14.00">add:</text>
<text text-anchor="middle" x="888.5" y="-558.3" font-family="Times,serif" font-size="14.00">&#45; 加法溢出处理</text>
<text text-anchor="middle" x="888.5" y="-543.3" font-family="Times,serif" font-size="14.00">&#45; 条件减法</text>
</g>
<!-- add&#45;&gt;end -->
<g id="edge8" class="edge">
<title>add&#45;&gt;end</title>
<path fill="none" stroke="black" d="M911.48,-535.44C928.06,-517 950.24,-492.33 966.18,-474.6"/>
<polygon fill="black" stroke="black" points="968.94,-476.77 973.02,-466.99 963.73,-472.09 968.94,-476.77"/>
</g>
<!-- sub -->
<g id="node9" class="node">
<title>sub</title>
<path fill="none" stroke="black" d="M1061,-588.5C1061,-588.5 974,-588.5 974,-588.5 968,-588.5 962,-582.5 962,-576.5 962,-576.5 962,-547.5 962,-547.5 962,-541.5 968,-535.5 974,-535.5 974,-535.5 1061,-535.5 1061,-535.5 1067,-535.5 1073,-541.5 1073,-547.5 1073,-547.5 1073,-576.5 1073,-576.5 1073,-582.5 1067,-588.5 1061,-588.5"/>
<text text-anchor="middle" x="1017.5" y="-573.3" font-family="Times,serif" font-size="14.00">sub:</text>
<text text-anchor="middle" x="1017.5" y="-558.3" font-family="Times,serif" font-size="14.00">&#45; 减法借位处理</text>
<text text-anchor="middle" x="1017.5" y="-543.3" font-family="Times,serif" font-size="14.00">&#45; 条件加法</text>
</g>
<!-- sub&#45;&gt;end -->
<g id="edge9" class="edge">
<title>sub&#45;&gt;end</title>
<path fill="none" stroke="black" d="M1010.23,-535.44C1005.4,-518.46 999.07,-496.18 994.16,-478.92"/>
<polygon fill="black" stroke="black" points="997.41,-477.58 991.31,-468.91 990.68,-479.49 997.41,-477.58"/>
</g>
<!-- mul -->
<g id="node10" class="node">
<title>mul</title>
<path fill="none" stroke="black" d="M446.5,-588.5C446.5,-588.5 296.5,-588.5 296.5,-588.5 290.5,-588.5 284.5,-582.5 284.5,-576.5 284.5,-576.5 284.5,-547.5 284.5,-547.5 284.5,-541.5 290.5,-535.5 296.5,-535.5 296.5,-535.5 446.5,-535.5 446.5,-535.5 452.5,-535.5 458.5,-541.5 458.5,-547.5 458.5,-547.5 458.5,-576.5 458.5,-576.5 458.5,-582.5 452.5,-588.5 446.5,-588.5"/>
<text text-anchor="middle" x="371.5" y="-573.3" font-family="Times,serif" font-size="14.00">mul:</text>
<text text-anchor="middle" x="371.5" y="-558.3" font-family="Times,serif" font-size="14.00">&#45; 判断Montgomery形式</text>
<text text-anchor="middle" x="371.5" y="-543.3" font-family="Times,serif" font-size="14.00">&#45; 调用montgomeryMul</text>
</g>
<!-- montgomeryMul -->
<g id="node13" class="node">
<title>montgomeryMul</title>
<path fill="none" stroke="black" d="M616,-291.5C616,-291.5 461,-291.5 461,-291.5 455,-291.5 449,-285.5 449,-279.5 449,-279.5 449,-250.5 449,-250.5 449,-244.5 455,-238.5 461,-238.5 461,-238.5 616,-238.5 616,-238.5 622,-238.5 628,-244.5 628,-250.5 628,-250.5 628,-279.5 628,-279.5 628,-285.5 622,-291.5 616,-291.5"/>
<text text-anchor="middle" x="538.5" y="-276.3" font-family="Times,serif" font-size="14.00">montgomeryMul:</text>
<text text-anchor="middle" x="538.5" y="-261.3" font-family="Times,serif" font-size="14.00">&#45; 调用montgomeryLoop</text>
<text text-anchor="middle" x="538.5" y="-246.3" font-family="Times,serif" font-size="14.00">&#45; 条件减法</text>
</g>
<!-- mul&#45;&gt;montgomeryMul -->
<g id="edge10" class="edge">
<title>mul&#45;&gt;montgomeryMul</title>
<path fill="none" stroke="black" d="M374.11,-535.38C377.8,-506.99 386.24,-460.48 404.5,-424.5 429.3,-375.62 471.94,-328.87 502.46,-298.97"/>
<polygon fill="black" stroke="black" points="505.18,-301.21 509.94,-291.75 500.32,-296.18 505.18,-301.21"/>
</g>
<!-- toMontgomery -->
<g id="node19" class="node">
<title>toMontgomery</title>
<path fill="none" stroke="black" d="M523.5,-469C523.5,-469 425.5,-469 425.5,-469 419.5,-469 413.5,-463 413.5,-457 413.5,-457 413.5,-445 413.5,-445 413.5,-439 419.5,-433 425.5,-433 425.5,-433 523.5,-433 523.5,-433 529.5,-433 535.5,-439 535.5,-445 535.5,-445 535.5,-457 535.5,-457 535.5,-463 529.5,-469 523.5,-469"/>
<text text-anchor="middle" x="474.5" y="-447.3" font-family="Times,serif" font-size="14.00">toMontgomery</text>
</g>
<!-- mul&#45;&gt;toMontgomery -->
<g id="edge11" class="edge">
<title>mul&#45;&gt;toMontgomery</title>
<path fill="none" stroke="black" d="M395.65,-535.44C412.36,-517.76 434.47,-494.36 451.03,-476.84"/>
<polygon fill="black" stroke="black" points="453.88,-478.92 458.21,-469.24 448.79,-474.11 453.88,-478.92"/>
</g>
<!-- fromMontgomery -->
<g id="node20" class="node">
<title>fromMontgomery</title>
<path fill="none" stroke="black" d="M345.5,-469C345.5,-469 227.5,-469 227.5,-469 221.5,-469 215.5,-463 215.5,-457 215.5,-457 215.5,-445 215.5,-445 215.5,-439 221.5,-433 227.5,-433 227.5,-433 345.5,-433 345.5,-433 351.5,-433 357.5,-439 357.5,-445 357.5,-445 357.5,-457 357.5,-457 357.5,-463 351.5,-469 345.5,-469"/>
<text text-anchor="middle" x="286.5" y="-447.3" font-family="Times,serif" font-size="14.00">fromMontgomery</text>
</g>
<!-- mul&#45;&gt;fromMontgomery -->
<g id="edge12" class="edge">
<title>mul&#45;&gt;fromMontgomery</title>
<path fill="none" stroke="black" d="M351.57,-535.44C337.91,-517.92 319.86,-494.78 306.24,-477.31"/>
<polygon fill="black" stroke="black" points="308.86,-474.98 299.95,-469.24 303.34,-479.28 308.86,-474.98"/>
</g>
<!-- sq -->
<g id="node11" class="node">
<title>sq</title>
<path fill="none" stroke="black" d="M638.5,-588.5C638.5,-588.5 488.5,-588.5 488.5,-588.5 482.5,-588.5 476.5,-582.5 476.5,-576.5 476.5,-576.5 476.5,-547.5 476.5,-547.5 476.5,-541.5 482.5,-535.5 488.5,-535.5 488.5,-535.5 638.5,-535.5 638.5,-535.5 644.5,-535.5 650.5,-541.5 650.5,-547.5 650.5,-547.5 650.5,-576.5 650.5,-576.5 650.5,-582.5 644.5,-588.5 638.5,-588.5"/>
<text text-anchor="middle" x="563.5" y="-573.3" font-family="Times,serif" font-size="14.00">sq:</text>
<text text-anchor="middle" x="563.5" y="-558.3" font-family="Times,serif" font-size="14.00">&#45; Montgomery形式转换</text>
<text text-anchor="middle" x="563.5" y="-543.3" font-family="Times,serif" font-size="14.00">&#45; 调用montgomerySq</text>
</g>
<!-- montgomerySq -->
<g id="node14" class="node">
<title>montgomerySq</title>
<path fill="none" stroke="black" d="M813,-291.5C813,-291.5 658,-291.5 658,-291.5 652,-291.5 646,-285.5 646,-279.5 646,-279.5 646,-250.5 646,-250.5 646,-244.5 652,-238.5 658,-238.5 658,-238.5 813,-238.5 813,-238.5 819,-238.5 825,-244.5 825,-250.5 825,-250.5 825,-279.5 825,-279.5 825,-285.5 819,-291.5 813,-291.5"/>
<text text-anchor="middle" x="735.5" y="-276.3" font-family="Times,serif" font-size="14.00">montgomerySq:</text>
<text text-anchor="middle" x="735.5" y="-261.3" font-family="Times,serif" font-size="14.00">&#45; 调用montgomeryLoop</text>
<text text-anchor="middle" x="735.5" y="-246.3" font-family="Times,serif" font-size="14.00">&#45; 条件减法</text>
</g>
<!-- sq&#45;&gt;montgomerySq -->
<g id="edge13" class="edge">
<title>sq&#45;&gt;montgomerySq</title>
<path fill="none" stroke="black" d="M557.07,-535.46C547.5,-490.92 535.02,-398.39 579.5,-341.5 596.21,-320.13 612.73,-333.56 637.5,-322.5 653.99,-315.14 671.28,-305.78 686.66,-296.8"/>
<polygon fill="black" stroke="black" points="688.66,-299.69 695.48,-291.58 685.09,-293.66 688.66,-299.69"/>
</g>
<!-- sq&#45;&gt;toMontgomery -->
<g id="edge14" class="edge">
<title>sq&#45;&gt;toMontgomery</title>
<path fill="none" stroke="black" d="M542.63,-535.44C528.33,-517.92 509.43,-494.78 495.17,-477.31"/>
<polygon fill="black" stroke="black" points="497.62,-474.78 488.58,-469.24 492.19,-479.2 497.62,-474.78"/>
</g>
<!-- pow -->
<g id="node12" class="node">
<title>pow</title>
<path fill="none" stroke="black" d="M803,-588.5C803,-588.5 702,-588.5 702,-588.5 696,-588.5 690,-582.5 690,-576.5 690,-576.5 690,-547.5 690,-547.5 690,-541.5 696,-535.5 702,-535.5 702,-535.5 803,-535.5 803,-535.5 809,-535.5 815,-541.5 815,-547.5 815,-547.5 815,-576.5 815,-576.5 815,-582.5 809,-588.5 803,-588.5"/>
<text text-anchor="middle" x="752.5" y="-573.3" font-family="Times,serif" font-size="14.00">pow:</text>
<text text-anchor="middle" x="752.5" y="-558.3" font-family="Times,serif" font-size="14.00">&#45; 处理指数编码</text>
<text text-anchor="middle" x="752.5" y="-543.3" font-family="Times,serif" font-size="14.00">&#45; 调用内部幂函数</text>
</g>
<!-- powInternal -->
<g id="node16" class="node">
<title>powInternal</title>
<path fill="none" stroke="black" d="M876,-477.5C876,-477.5 629,-477.5 629,-477.5 623,-477.5 617,-471.5 617,-465.5 617,-465.5 617,-436.5 617,-436.5 617,-430.5 623,-424.5 629,-424.5 629,-424.5 876,-424.5 876,-424.5 882,-424.5 888,-430.5 888,-436.5 888,-436.5 888,-465.5 888,-465.5 888,-471.5 882,-477.5 876,-477.5"/>
<text text-anchor="middle" x="752.5" y="-462.3" font-family="Times,serif" font-size="14.00">powWithEncodedExponentInternal:</text>
<text text-anchor="middle" x="752.5" y="-447.3" font-family="Times,serif" font-size="14.00">&#45; 公开指数预计算表</text>
<text text-anchor="middle" x="752.5" y="-432.3" font-family="Times,serif" font-size="14.00">&#45; 秘密指数条件拷贝</text>
</g>
<!-- pow&#45;&gt;powInternal -->
<g id="edge15" class="edge">
<title>pow&#45;&gt;powInternal</title>
<path fill="none" stroke="black" d="M752.5,-535.44C752.5,-521.33 752.5,-503.58 752.5,-488.07"/>
<polygon fill="black" stroke="black" points="756,-487.77 752.5,-477.77 749,-487.77 756,-487.77"/>
</g>
<!-- montgomeryLoop -->
<g id="node15" class="node">
<title>montgomeryLoop</title>
<path fill="none" stroke="black" d="M599.5,-173C599.5,-173 477.5,-173 477.5,-173 471.5,-173 465.5,-167 465.5,-161 465.5,-161 465.5,-132 465.5,-132 465.5,-126 471.5,-120 477.5,-120 477.5,-120 599.5,-120 599.5,-120 605.5,-120 611.5,-126 611.5,-132 611.5,-132 611.5,-161 611.5,-161 611.5,-167 605.5,-173 599.5,-173"/>
<text text-anchor="middle" x="538.5" y="-157.8" font-family="Times,serif" font-size="14.00">montgomeryLoop:</text>
<text text-anchor="middle" x="538.5" y="-142.8" font-family="Times,serif" font-size="14.00">&#45; 宽乘法处理</text>
<text text-anchor="middle" x="538.5" y="-127.8" font-family="Times,serif" font-size="14.00">&#45; 累加进位</text>
</g>
<!-- montgomeryMul&#45;&gt;montgomeryLoop -->
<g id="edge21" class="edge">
<title>montgomeryMul&#45;&gt;montgomeryLoop</title>
<path fill="none" stroke="black" d="M538.5,-238.43C538.5,-222.2 538.5,-200.95 538.5,-183.08"/>
<polygon fill="black" stroke="black" points="542,-183.01 538.5,-173.01 535,-183.01 542,-183.01"/>
</g>
<!-- montgomerySq&#45;&gt;montgomeryLoop -->
<g id="edge22" class="edge">
<title>montgomerySq&#45;&gt;montgomeryLoop</title>
<path fill="none" stroke="black" d="M692.27,-238.43C662.24,-220.68 622.09,-196.93 590.35,-178.16"/>
<polygon fill="black" stroke="black" points="592.02,-175.08 581.63,-173.01 588.46,-181.11 592.02,-175.08"/>
</g>
<!-- montgomeryLoop&#45;&gt;shiftIn -->
<g id="edge23" class="edge">
<title>montgomeryLoop&#45;&gt;shiftIn</title>
<path fill="none" stroke="black" stroke-dasharray="1,5" d="M495.1,-119.76C471.79,-105.94 442.89,-88.8 418.4,-74.28"/>
<polygon fill="black" stroke="black" points="419.98,-71.14 409.59,-69.05 416.41,-77.17 419.98,-71.14"/>
</g>
<!-- processBit -->
<g id="node17" class="node">
<title>processBit</title>
<path fill="none" stroke="black" d="M897,-387.5C897,-387.5 796,-387.5 796,-387.5 790,-387.5 784,-381.5 784,-375.5 784,-375.5 784,-361.5 784,-361.5 784,-355.5 790,-349.5 796,-349.5 796,-349.5 897,-349.5 897,-349.5 903,-349.5 909,-355.5 909,-361.5 909,-361.5 909,-375.5 909,-375.5 909,-381.5 903,-387.5 897,-387.5"/>
<text text-anchor="middle" x="846.5" y="-372.3" font-family="Times,serif" font-size="14.00">按位处理指数:</text>
<text text-anchor="middle" x="846.5" y="-357.3" font-family="Times,serif" font-size="14.00">&#45; 平方与乘法步骤</text>
</g>
<!-- powInternal&#45;&gt;processBit -->
<g id="edge16" class="edge">
<title>powInternal&#45;&gt;processBit</title>
<path fill="none" stroke="black" d="M782.5,-424.31C793.74,-414.68 806.48,-403.77 817.62,-394.23"/>
<polygon fill="black" stroke="black" points="820.08,-396.73 825.4,-387.57 815.53,-391.41 820.08,-396.73"/>
</g>
<!-- precomputeTable -->
<g id="node18" class="node">
<title>precomputeTable</title>
<path fill="none" stroke="black" d="M753.5,-387.5C753.5,-387.5 603.5,-387.5 603.5,-387.5 597.5,-387.5 591.5,-381.5 591.5,-375.5 591.5,-375.5 591.5,-361.5 591.5,-361.5 591.5,-355.5 597.5,-349.5 603.5,-349.5 603.5,-349.5 753.5,-349.5 753.5,-349.5 759.5,-349.5 765.5,-355.5 765.5,-361.5 765.5,-361.5 765.5,-375.5 765.5,-375.5 765.5,-381.5 759.5,-387.5 753.5,-387.5"/>
<text text-anchor="middle" x="678.5" y="-372.3" font-family="Times,serif" font-size="14.00">预计算表生成:</text>
<text text-anchor="middle" x="678.5" y="-357.3" font-family="Times,serif" font-size="14.00">&#45; 连续Montgomery乘法</text>
</g>
<!-- powInternal&#45;&gt;precomputeTable -->
<g id="edge17" class="edge">
<title>powInternal&#45;&gt;precomputeTable</title>
<path fill="none" stroke="black" d="M728.68,-424.09C720.23,-414.89 710.72,-404.55 702.28,-395.37"/>
<polygon fill="black" stroke="black" points="704.82,-392.96 695.48,-387.97 699.67,-397.7 704.82,-392.96"/>
</g>
<!-- processBit&#45;&gt;montgomeryMul -->
<g id="edge18" class="edge">
<title>processBit&#45;&gt;montgomeryMul</title>
<path fill="none" stroke="black" d="M800.85,-349.4C792.2,-346.43 783.14,-343.64 774.5,-341.5 714.82,-326.76 695.69,-342.32 637.5,-322.5 619.16,-316.26 600.38,-306.53 584.17,-296.89"/>
<polygon fill="black" stroke="black" points="585.8,-293.79 575.44,-291.57 582.16,-299.77 585.8,-293.79"/>
</g>
<!-- processBit&#45;&gt;montgomerySq -->
<g id="edge19" class="edge">
<title>processBit&#45;&gt;montgomerySq</title>
<path fill="none" stroke="black" d="M826.66,-349.35C811.27,-335.28 789.54,-315.42 771.16,-298.61"/>
<polygon fill="black" stroke="black" points="773.25,-295.78 763.51,-291.61 768.53,-300.95 773.25,-295.78"/>
</g>
<!-- precomputeTable&#45;&gt;montgomeryMul -->
<g id="edge20" class="edge">
<title>precomputeTable&#45;&gt;montgomeryMul</title>
<path fill="none" stroke="black" d="M653.47,-349.35C633.63,-334.97 605.43,-314.53 581.93,-297.48"/>
<polygon fill="black" stroke="black" points="583.98,-294.65 573.83,-291.61 579.87,-300.32 583.98,-294.65"/>
</g>
</g>
</svg>
