<?xml version="1.0" encoding="UTF-8" standalone="no"?>
<!DOCTYPE svg PUBLIC "-//W3C//DTD SVG 1.1//EN"
 "http://www.w3.org/Graphics/SVG/1.1/DTD/svg11.dtd">
<!-- Generated by graphviz version 2.43.0 (0)
 -->
<!-- Title: KeySchedule Pages: 1 -->
<svg width="688pt" height="504pt"
 viewBox="0.00 0.00 688.00 504.00" xmlns="http://www.w3.org/2000/svg" xmlns:xlink="http://www.w3.org/1999/xlink">
<g id="graph0" class="graph" transform="scale(1 1) rotate(0) translate(4 500)">
<title>KeySchedule</title>
<polygon fill="white" stroke="transparent" points="-4,4 -4,-500 684,-500 684,4 -4,4"/>
<g id="clust1" class="cluster">
<title>cluster_invert</title>
<polygon fill="none" stroke="black" points="438,-253 438,-488 672,-488 672,-253 438,-253"/>
<text text-anchor="middle" x="555" y="-472.8" font-family="Arial" font-size="14.00">invert 方法逻辑</text>
</g>
<!-- start -->
<g id="node1" class="node">
<title>start</title>
<ellipse fill="none" stroke="black" cx="201" cy="-439" rx="102.08" ry="18"/>
<text text-anchor="middle" x="201" y="-435.3" font-family="Arial" font-size="14.00">KeySchedule 函数入口</text>
</g>
<!-- check_rounds -->
<g id="node2" class="node">
<title>check_rounds</title>
<polygon fill="none" stroke="black" points="201,-384 27.06,-366 201,-348 374.94,-366 201,-384"/>
<text text-anchor="middle" x="201" y="-362.3" font-family="Arial" font-size="14.00">检查Aes.rounds == 10 或 14</text>
</g>
<!-- start&#45;&gt;check_rounds -->
<g id="edge1" class="edge">
<title>start&#45;&gt;check_rounds</title>
<path fill="none" stroke="black" d="M201,-420.81C201,-412.79 201,-403.05 201,-394.07"/>
<polygon fill="black" stroke="black" points="204.5,-394.03 201,-384.03 197.5,-394.03 204.5,-394.03"/>
</g>
<!-- expand128 -->
<g id="node3" class="node">
<title>expand128</title>
<polygon fill="none" stroke="black" points="206,-297 0,-297 0,-261 206,-261 206,-297"/>
<text text-anchor="middle" x="103" y="-275.3" font-family="Arial" font-size="14.00">调用expand128生成128位密钥</text>
</g>
<!-- check_rounds&#45;&gt;expand128 -->
<g id="edge2" class="edge">
<title>check_rounds&#45;&gt;expand128</title>
<path fill="none" stroke="black" d="M183.48,-349.8C168.81,-337.08 147.62,-318.7 130.66,-303.99"/>
<polygon fill="black" stroke="black" points="132.57,-301.02 122.73,-297.11 127.99,-306.31 132.57,-301.02"/>
<text text-anchor="middle" x="212" y="-318.8" font-family="Arial" font-size="14.00">Aes.rounds == 10</text>
</g>
<!-- expand256 -->
<g id="node4" class="node">
<title>expand256</title>
<polygon fill="none" stroke="black" points="430,-297 224,-297 224,-261 430,-261 430,-297"/>
<text text-anchor="middle" x="327" y="-275.3" font-family="Arial" font-size="14.00">调用expand256生成256位密钥</text>
</g>
<!-- check_rounds&#45;&gt;expand256 -->
<g id="edge3" class="edge">
<title>check_rounds&#45;&gt;expand256</title>
<path fill="none" stroke="black" d="M232.51,-351.08C244.61,-345.21 258.32,-337.9 270,-330 281.07,-322.51 292.33,-313.09 301.89,-304.46"/>
<polygon fill="black" stroke="black" points="304.5,-306.8 309.47,-297.45 299.75,-301.66 304.5,-306.8"/>
<text text-anchor="middle" x="343" y="-318.8" font-family="Arial" font-size="14.00">Aes.rounds == 14</text>
</g>
<!-- drc128_call -->
<g id="node5" class="node">
<title>drc128_call</title>
<polygon fill="none" stroke="black" points="205,-210 101,-210 101,-174 205,-174 205,-210"/>
<text text-anchor="middle" x="153" y="-188.3" font-family="Arial" font-size="14.00">drc128 轮函数</text>
</g>
<!-- expand128&#45;&gt;drc128_call -->
<g id="edge4" class="edge">
<title>expand128&#45;&gt;drc128_call</title>
<path fill="none" stroke="black" d="M113.12,-260.8C120.17,-248.82 129.7,-232.62 137.67,-219.06"/>
<polygon fill="black" stroke="black" points="140.84,-220.57 142.9,-210.18 134.81,-217.02 140.84,-220.57"/>
<text text-anchor="middle" x="183" y="-231.8" font-family="Arial" font-size="14.00">循环处理rcs数组</text>
</g>
<!-- drc256_call -->
<g id="node6" class="node">
<title>drc256_call</title>
<polygon fill="none" stroke="black" points="328,-210 224,-210 224,-174 328,-174 328,-210"/>
<text text-anchor="middle" x="276" y="-188.3" font-family="Arial" font-size="14.00">drc256 轮函数</text>
</g>
<!-- expand256&#45;&gt;drc256_call -->
<g id="edge5" class="edge">
<title>expand256&#45;&gt;drc256_call</title>
<path fill="none" stroke="black" d="M316.68,-260.8C309.49,-248.82 299.77,-232.62 291.63,-219.06"/>
<polygon fill="black" stroke="black" points="294.45,-216.95 286.31,-210.18 288.45,-220.55 294.45,-216.95"/>
<text text-anchor="middle" x="371.5" y="-231.8" font-family="Arial" font-size="14.00">双重循环处理rcs数组</text>
</g>
<!-- end -->
<g id="node8" class="node">
<title>end</title>
<ellipse fill="none" stroke="black" cx="214" cy="-105" rx="103.18" ry="18"/>
<text text-anchor="middle" x="214" y="-101.3" font-family="Arial" font-size="14.00">返回生成的密钥结构体</text>
</g>
<!-- drc128_call&#45;&gt;end -->
<g id="edge6" class="edge">
<title>drc128_call&#45;&gt;end</title>
<path fill="none" stroke="black" d="M153.28,-173.57C154.18,-163.35 156.66,-150.6 163,-141 166.07,-136.35 169.99,-132.15 174.29,-128.4"/>
<polygon fill="black" stroke="black" points="176.58,-131.05 182.33,-122.16 172.29,-125.52 176.58,-131.05"/>
<text text-anchor="middle" x="206.5" y="-144.8" font-family="Arial" font-size="14.00">生成11轮密钥</text>
</g>
<!-- drc256_call&#45;&gt;end -->
<g id="edge7" class="edge">
<title>drc256_call&#45;&gt;end</title>
<path fill="none" stroke="black" d="M268.61,-173.54C263.97,-163.55 257.47,-151.05 250,-141 247.23,-137.28 244.06,-133.59 240.77,-130.09"/>
<polygon fill="black" stroke="black" points="243.03,-127.4 233.5,-122.77 238.06,-132.33 243.03,-127.4"/>
<text text-anchor="middle" x="303.5" y="-144.8" font-family="Arial" font-size="14.00">生成15轮密钥</text>
</g>
<!-- invert_method -->
<g id="node7" class="node">
<title>invert_method</title>
<polygon fill="none" stroke="black" points="290.5,-36 137.5,-36 137.5,0 290.5,0 290.5,-36"/>
<text text-anchor="middle" x="214" y="-14.3" font-family="Arial" font-size="14.00">invert 方法反转轮密钥</text>
</g>
<!-- invert_method&#45;&gt;end -->
<g id="edge8" class="edge">
<title>invert_method&#45;&gt;end</title>
<path fill="none" stroke="black" d="M225.47,-36.1C228.54,-41.58 231.43,-47.83 233,-54 234.99,-61.85 233.42,-70.15 230.49,-77.69"/>
<polygon fill="black" stroke="black" points="227.32,-76.19 226.21,-86.73 233.65,-79.19 227.32,-76.19"/>
<text text-anchor="middle" x="284" y="-57.8" font-family="Arial" font-size="14.00">反转轮密钥顺序</text>
</g>
<!-- end&#45;&gt;invert_method -->
<g id="edge11" class="edge">
<title>end&#45;&gt;invert_method</title>
<path fill="none" stroke="black" stroke-dasharray="5,2" d="M186.06,-87.61C174.49,-78.56 165,-66.61 171,-54 172.86,-50.09 175.39,-46.47 178.31,-43.16"/>
<polygon fill="black" stroke="black" points="180.93,-45.5 185.66,-36.02 176.05,-40.48 180.93,-45.5"/>
<text text-anchor="middle" x="200" y="-57.8" font-family="Arial" font-size="14.00">可选调用</text>
</g>
<!-- invert_entry -->
<g id="node9" class="node">
<title>invert_entry</title>
<polygon fill="none" stroke="black" points="649,-457 461,-457 461,-421 649,-421 649,-457"/>
<text text-anchor="middle" x="555" y="-435.3" font-family="Arial" font-size="14.00">取最后一轮密钥作为第一轮</text>
</g>
<!-- aesimc_loop -->
<g id="node10" class="node">
<title>aesimc_loop</title>
<polygon fill="none" stroke="black" points="663.5,-384 446.5,-384 446.5,-348 663.5,-348 663.5,-384"/>
<text text-anchor="middle" x="555" y="-362.3" font-family="Arial" font-size="14.00">循环应用aesimc指令逆向中间轮</text>
</g>
<!-- invert_entry&#45;&gt;aesimc_loop -->
<g id="edge9" class="edge">
<title>invert_entry&#45;&gt;aesimc_loop</title>
<path fill="none" stroke="black" d="M555,-420.81C555,-412.79 555,-403.05 555,-394.07"/>
<polygon fill="black" stroke="black" points="558.5,-394.03 555,-384.03 551.5,-394.03 558.5,-394.03"/>
</g>
<!-- invert_exit -->
<g id="node11" class="node">
<title>invert_exit</title>
<polygon fill="none" stroke="black" points="649,-297 461,-297 461,-261 649,-261 649,-297"/>
<text text-anchor="middle" x="555" y="-275.3" font-family="Arial" font-size="14.00">取第一轮密钥作为最后一轮</text>
</g>
<!-- aesimc_loop&#45;&gt;invert_exit -->
<g id="edge10" class="edge">
<title>aesimc_loop&#45;&gt;invert_exit</title>
<path fill="none" stroke="black" d="M555,-347.8C555,-336.16 555,-320.55 555,-307.24"/>
<polygon fill="black" stroke="black" points="558.5,-307.18 555,-297.18 551.5,-307.18 558.5,-307.18"/>
</g>
</g>
</svg>
