<?xml version="1.0" encoding="UTF-8" standalone="no"?>
<!DOCTYPE svg PUBLIC "-//W3C//DTD SVG 1.1//EN"
 "http://www.w3.org/Graphics/SVG/1.1/DTD/svg11.dtd">
<!-- Generated by graphviz version 2.43.0 (0)
 -->
<!-- Title: unwindFrameDwarf Pages: 1 -->
<svg width="926pt" height="1279pt"
 viewBox="0.00 0.00 926.49 1279.00" xmlns="http://www.w3.org/2000/svg" xmlns:xlink="http://www.w3.org/1999/xlink">
<g id="graph0" class="graph" transform="scale(1 1) rotate(0) translate(4 1275)">
<title>unwindFrameDwarf</title>
<polygon fill="white" stroke="transparent" points="-4,4 -4,-1275 922.49,-1275 922.49,4 -4,4"/>
<!-- start -->
<g id="node1" class="node">
<title>start</title>
<path fill="none" stroke="black" d="M476.26,-1271C476.26,-1271 446.26,-1271 446.26,-1271 440.26,-1271 434.26,-1265 434.26,-1259 434.26,-1259 434.26,-1247 434.26,-1247 434.26,-1241 440.26,-1235 446.26,-1235 446.26,-1235 476.26,-1235 476.26,-1235 482.26,-1235 488.26,-1241 488.26,-1247 488.26,-1247 488.26,-1259 488.26,-1259 488.26,-1265 482.26,-1271 476.26,-1271"/>
<text text-anchor="middle" x="461.26" y="-1249.3" font-family="Times,serif" font-size="14.00">开始</text>
</g>
<!-- check_unwind -->
<g id="node2" class="node">
<title>check_unwind</title>
<path fill="none" stroke="black" d="M537.76,-1198C537.76,-1198 384.76,-1198 384.76,-1198 378.76,-1198 372.76,-1192 372.76,-1186 372.76,-1186 372.76,-1174 372.76,-1174 372.76,-1168 378.76,-1162 384.76,-1162 384.76,-1162 537.76,-1162 537.76,-1162 543.76,-1162 549.76,-1168 549.76,-1174 549.76,-1174 549.76,-1186 549.76,-1186 549.76,-1192 543.76,-1198 537.76,-1198"/>
<text text-anchor="middle" x="461.26" y="-1176.3" font-family="Times,serif" font-size="14.00">检查是否支持unwinding</text>
</g>
<!-- start&#45;&gt;check_unwind -->
<g id="edge1" class="edge">
<title>start&#45;&gt;check_unwind</title>
<path fill="none" stroke="black" d="M461.26,-1234.81C461.26,-1226.79 461.26,-1217.05 461.26,-1208.07"/>
<polygon fill="black" stroke="black" points="464.76,-1208.03 461.26,-1198.03 457.76,-1208.03 464.76,-1208.03"/>
</g>
<!-- check_pc -->
<g id="node3" class="node">
<title>check_pc</title>
<path fill="none" stroke="black" d="M347.76,-1111C347.76,-1111 200.76,-1111 200.76,-1111 194.76,-1111 188.76,-1105 188.76,-1099 188.76,-1099 188.76,-1087 188.76,-1087 188.76,-1081 194.76,-1075 200.76,-1075 200.76,-1075 347.76,-1075 347.76,-1075 353.76,-1075 359.76,-1081 359.76,-1087 359.76,-1087 359.76,-1099 359.76,-1099 359.76,-1105 353.76,-1111 347.76,-1111"/>
<text text-anchor="middle" x="274.26" y="-1089.3" font-family="Times,serif" font-size="14.00">检查context.pc是否为0</text>
</g>
<!-- check_unwind&#45;&gt;check_pc -->
<g id="edge3" class="edge">
<title>check_unwind&#45;&gt;check_pc</title>
<path fill="none" stroke="black" d="M423.41,-1161.8C393.92,-1148.39 352.8,-1129.7 321.2,-1115.34"/>
<polygon fill="black" stroke="black" points="322.28,-1111.98 311.72,-1111.03 319.38,-1118.35 322.28,-1111.98"/>
<text text-anchor="middle" x="393.76" y="-1132.8" font-family="Times,serif" font-size="14.00">支持</text>
</g>
<!-- error_unsupported -->
<g id="node18" class="node">
<title>error_unsupported</title>
<path fill="none" stroke="black" d="M636.28,-1110.2C636.28,-1110.2 389.77,-1093.8 389.77,-1093.8 383.78,-1093.4 383.78,-1092.6 389.77,-1092.2 389.77,-1092.2 636.28,-1075.8 636.28,-1075.8 642.27,-1075.4 654.24,-1075.4 660.23,-1075.8 660.23,-1075.8 906.75,-1092.2 906.75,-1092.2 912.73,-1092.6 912.73,-1093.4 906.75,-1093.8 906.75,-1093.8 660.23,-1110.2 660.23,-1110.2 654.24,-1110.6 642.27,-1110.6 636.28,-1110.2"/>
<text text-anchor="middle" x="648.26" y="-1089.3" font-family="Times,serif" font-size="14.00">返回错误: UnsupportedCpuArchitecture</text>
</g>
<!-- check_unwind&#45;&gt;error_unsupported -->
<g id="edge2" class="edge">
<title>check_unwind&#45;&gt;error_unsupported</title>
<path fill="none" stroke="black" d="M499.1,-1161.8C530.18,-1147.67 574.17,-1127.68 606.32,-1113.06"/>
<polygon fill="black" stroke="black" points="607.81,-1116.23 615.47,-1108.9 604.92,-1109.85 607.81,-1116.23"/>
<text text-anchor="middle" x="587.76" y="-1132.8" font-family="Times,serif" font-size="14.00">不支持</text>
</g>
<!-- explicit_fde -->
<g id="node4" class="node">
<title>explicit_fde</title>
<path fill="none" stroke="black" d="M267.76,-1024C267.76,-1024 96.76,-1024 96.76,-1024 90.76,-1024 84.76,-1018 84.76,-1012 84.76,-1012 84.76,-1000 84.76,-1000 84.76,-994 90.76,-988 96.76,-988 96.76,-988 267.76,-988 267.76,-988 273.76,-988 279.76,-994 279.76,-1000 279.76,-1000 279.76,-1012 279.76,-1012 279.76,-1018 273.76,-1024 267.76,-1024"/>
<text text-anchor="middle" x="182.26" y="-1002.3" font-family="Times,serif" font-size="14.00">是否有explicit_fde_offset?</text>
</g>
<!-- check_pc&#45;&gt;explicit_fde -->
<g id="edge5" class="edge">
<title>check_pc&#45;&gt;explicit_fde</title>
<path fill="none" stroke="black" d="M255.64,-1074.8C242.05,-1062.24 223.44,-1045.05 208.36,-1031.12"/>
<polygon fill="black" stroke="black" points="210.57,-1028.39 200.85,-1024.18 205.82,-1033.53 210.57,-1028.39"/>
<text text-anchor="middle" x="253.26" y="-1045.8" font-family="Times,serif" font-size="14.00">pc≠0</text>
</g>
<!-- return_zero -->
<g id="node21" class="node">
<title>return_zero</title>
<path fill="none" stroke="black" d="M340.26,-1024C340.26,-1024 310.26,-1024 310.26,-1024 304.26,-1024 298.26,-1018 298.26,-1012 298.26,-1012 298.26,-1000 298.26,-1000 298.26,-994 304.26,-988 310.26,-988 310.26,-988 340.26,-988 340.26,-988 346.26,-988 352.26,-994 352.26,-1000 352.26,-1000 352.26,-1012 352.26,-1012 352.26,-1018 346.26,-1024 340.26,-1024"/>
<text text-anchor="middle" x="325.26" y="-1002.3" font-family="Times,serif" font-size="14.00">返回0</text>
</g>
<!-- check_pc&#45;&gt;return_zero -->
<g id="edge4" class="edge">
<title>check_pc&#45;&gt;return_zero</title>
<path fill="none" stroke="black" d="M284.58,-1074.8C291.77,-1062.82 301.49,-1046.62 309.62,-1033.06"/>
<polygon fill="black" stroke="black" points="312.81,-1034.55 314.95,-1024.18 306.81,-1030.95 312.81,-1034.55"/>
<text text-anchor="middle" x="322.26" y="-1045.8" font-family="Times,serif" font-size="14.00">pc=0</text>
</g>
<!-- read_fde_cie -->
<g id="node5" class="node">
<title>read_fde_cie</title>
<path fill="none" stroke="black" d="M254.26,-763C254.26,-763 58.26,-763 58.26,-763 52.26,-763 46.26,-757 46.26,-751 46.26,-751 46.26,-739 46.26,-739 46.26,-733 52.26,-727 58.26,-727 58.26,-727 254.26,-727 254.26,-727 260.26,-727 266.26,-733 266.26,-739 266.26,-739 266.26,-751 266.26,-751 266.26,-757 260.26,-763 254.26,-763"/>
<text text-anchor="middle" x="156.26" y="-741.3" font-family="Times,serif" font-size="14.00">从指定FDE偏移读取FDE和CIE</text>
</g>
<!-- explicit_fde&#45;&gt;read_fde_cie -->
<g id="edge6" class="edge">
<title>explicit_fde&#45;&gt;read_fde_cie</title>
<path fill="none" stroke="black" d="M180.51,-987.6C176.08,-943.46 164.37,-826.83 159.01,-773.42"/>
<polygon fill="black" stroke="black" points="162.48,-772.92 158,-763.32 155.51,-773.62 162.48,-772.92"/>
<text text-anchor="middle" x="184.76" y="-871.8" font-family="Times,serif" font-size="14.00">存在</text>
</g>
<!-- eh_frame_hdr -->
<g id="node6" class="node">
<title>eh_frame_hdr</title>
<path fill="none" stroke="black" d="M464.26,-937C464.26,-937 298.26,-937 298.26,-937 292.26,-937 286.26,-931 286.26,-925 286.26,-925 286.26,-913 286.26,-913 286.26,-907 292.26,-901 298.26,-901 298.26,-901 464.26,-901 464.26,-901 470.26,-901 476.26,-907 476.26,-913 476.26,-913 476.26,-925 476.26,-925 476.26,-931 470.26,-937 464.26,-937"/>
<text text-anchor="middle" x="381.26" y="-915.3" font-family="Times,serif" font-size="14.00">尝试从.eh_frame_hdr查找</text>
</g>
<!-- explicit_fde&#45;&gt;eh_frame_hdr -->
<g id="edge7" class="edge">
<title>explicit_fde&#45;&gt;eh_frame_hdr</title>
<path fill="none" stroke="black" d="M222.53,-987.8C254.19,-974.27 298.43,-955.38 332.17,-940.97"/>
<polygon fill="black" stroke="black" points="333.56,-944.18 341.39,-937.03 330.81,-937.74 333.56,-944.18"/>
<text text-anchor="middle" x="315.76" y="-958.8" font-family="Times,serif" font-size="14.00">不存在</text>
</g>
<!-- parse_cie_fde -->
<g id="node9" class="node">
<title>parse_cie_fde</title>
<path fill="none" stroke="black" d="M435.76,-676C435.76,-676 342.76,-676 342.76,-676 336.76,-676 330.76,-670 330.76,-664 330.76,-664 330.76,-652 330.76,-652 330.76,-646 336.76,-640 342.76,-640 342.76,-640 435.76,-640 435.76,-640 441.76,-640 447.76,-646 447.76,-652 447.76,-652 447.76,-664 447.76,-664 447.76,-670 441.76,-676 435.76,-676"/>
<text text-anchor="middle" x="389.26" y="-654.3" font-family="Times,serif" font-size="14.00">解析CIE和FDE</text>
</g>
<!-- read_fde_cie&#45;&gt;parse_cie_fde -->
<g id="edge9" class="edge">
<title>read_fde_cie&#45;&gt;parse_cie_fde</title>
<path fill="none" stroke="black" d="M188.84,-726.98C199.02,-721.45 210.21,-715.15 220.26,-709 230.35,-702.82 231.41,-698.73 242.26,-694 272.69,-680.73 284.38,-683.74 320.84,-675.96"/>
<polygon fill="black" stroke="black" points="321.69,-679.35 330.67,-673.73 320.14,-672.53 321.69,-679.35"/>
<text text-anchor="middle" x="256.76" y="-697.8" font-family="Times,serif" font-size="14.00">成功</text>
</g>
<!-- error_missing_fde -->
<g id="node19" class="node">
<title>error_missing_fde</title>
<path fill="none" stroke="black" d="M144.34,-674.62C144.34,-674.62 12.16,-659.38 12.16,-659.38 6.2,-658.69 6.2,-657.31 12.16,-656.62 12.16,-656.62 144.34,-641.38 144.34,-641.38 150.3,-640.69 162.22,-640.69 168.18,-641.38 168.18,-641.38 300.35,-656.62 300.35,-656.62 306.31,-657.31 306.31,-658.69 300.35,-659.38 300.35,-659.38 168.18,-674.62 168.18,-674.62 162.22,-675.31 150.3,-675.31 144.34,-674.62"/>
<text text-anchor="middle" x="156.26" y="-654.3" font-family="Times,serif" font-size="14.00">返回错误: MissingFDE</text>
</g>
<!-- read_fde_cie&#45;&gt;error_missing_fde -->
<g id="edge8" class="edge">
<title>read_fde_cie&#45;&gt;error_missing_fde</title>
<path fill="none" stroke="black" d="M156.26,-726.8C156.26,-715.16 156.26,-699.55 156.26,-686.24"/>
<polygon fill="black" stroke="black" points="159.76,-686.18 156.26,-676.18 152.76,-686.18 159.76,-686.18"/>
<text text-anchor="middle" x="186.76" y="-697.8" font-family="Times,serif" font-size="14.00">FDE无效</text>
</g>
<!-- scan_cie_fde -->
<g id="node7" class="node">
<title>scan_cie_fde</title>
<path fill="none" stroke="black" d="M377.76,-850C377.76,-850 222.76,-850 222.76,-850 216.76,-850 210.76,-844 210.76,-838 210.76,-838 210.76,-826 210.76,-826 210.76,-820 216.76,-814 222.76,-814 222.76,-814 377.76,-814 377.76,-814 383.76,-814 389.76,-820 389.76,-826 389.76,-826 389.76,-838 389.76,-838 389.76,-844 383.76,-850 377.76,-850"/>
<text text-anchor="middle" x="300.26" y="-828.3" font-family="Times,serif" font-size="14.00">扫描并构建CIE/FDE列表</text>
</g>
<!-- eh_frame_hdr&#45;&gt;scan_cie_fde -->
<g id="edge10" class="edge">
<title>eh_frame_hdr&#45;&gt;scan_cie_fde</title>
<path fill="none" stroke="black" d="M363.67,-900.69C358.05,-895.1 351.85,-888.83 346.26,-883 338.54,-874.96 330.25,-866.04 322.87,-857.99"/>
<polygon fill="black" stroke="black" points="325.16,-855.31 315.84,-850.29 320,-860.03 325.16,-855.31"/>
<text text-anchor="middle" x="375.26" y="-871.8" font-family="Times,serif" font-size="14.00">查找失败</text>
</g>
<!-- eh_frame_hdr&#45;&gt;parse_cie_fde -->
<g id="edge11" class="edge">
<title>eh_frame_hdr&#45;&gt;parse_cie_fde</title>
<path fill="none" stroke="black" d="M395.36,-900.84C398.98,-895.46 402.38,-889.27 404.26,-883 406.17,-876.61 404.33,-874.67 404.26,-868 403.37,-790.65 412.87,-770.32 400.26,-694 399.81,-691.32 399.21,-688.57 398.52,-685.84"/>
<polygon fill="black" stroke="black" points="401.88,-684.84 395.72,-676.21 395.16,-686.79 401.88,-684.84"/>
<text text-anchor="middle" x="436.26" y="-784.8" font-family="Times,serif" font-size="14.00">查找成功</text>
</g>
<!-- error_other -->
<g id="node20" class="node">
<title>error_other</title>
<path fill="none" stroke="black" d="M304.47,-353.73C304.47,-353.73 234.53,-340.27 234.53,-340.27 228.64,-339.13 228.64,-336.87 234.53,-335.73 234.53,-335.73 304.47,-322.27 304.47,-322.27 310.36,-321.13 322.15,-321.13 328.04,-322.27 328.04,-322.27 397.98,-335.73 397.98,-335.73 403.87,-336.87 403.87,-339.13 397.98,-340.27 397.98,-340.27 328.04,-353.73 328.04,-353.73 322.15,-354.87 310.36,-354.87 304.47,-353.73"/>
<text text-anchor="middle" x="316.26" y="-334.3" font-family="Times,serif" font-size="14.00">返回其他错误</text>
</g>
<!-- eh_frame_hdr&#45;&gt;error_other -->
<g id="edge12" class="edge">
<title>eh_frame_hdr&#45;&gt;error_other</title>
<path fill="none" stroke="black" d="M432.21,-900.94C461.39,-887.61 492.26,-865.77 492.26,-833 492.26,-833 492.26,-833 492.26,-424 492.26,-393.8 472.08,-389.65 446.26,-374 425.71,-361.54 400.71,-353.45 378.14,-348.22"/>
<polygon fill="black" stroke="black" points="378.81,-344.79 368.3,-346.08 377.33,-351.63 378.81,-344.79"/>
<text text-anchor="middle" x="521.26" y="-610.8" font-family="Times,serif" font-size="14.00">其他错误</text>
</g>
<!-- binary_search -->
<g id="node8" class="node">
<title>binary_search</title>
<path fill="none" stroke="black" d="M377.76,-763C377.76,-763 296.76,-763 296.76,-763 290.76,-763 284.76,-757 284.76,-751 284.76,-751 284.76,-739 284.76,-739 284.76,-733 290.76,-727 296.76,-727 296.76,-727 377.76,-727 377.76,-727 383.76,-727 389.76,-733 389.76,-739 389.76,-739 389.76,-751 389.76,-751 389.76,-757 383.76,-763 377.76,-763"/>
<text text-anchor="middle" x="337.26" y="-741.3" font-family="Times,serif" font-size="14.00">二分查找FDE</text>
</g>
<!-- scan_cie_fde&#45;&gt;binary_search -->
<g id="edge13" class="edge">
<title>scan_cie_fde&#45;&gt;binary_search</title>
<path fill="none" stroke="black" d="M307.74,-813.8C312.91,-801.93 319.88,-785.93 325.74,-772.45"/>
<polygon fill="black" stroke="black" points="329,-773.74 329.78,-763.18 322.58,-770.95 329,-773.74"/>
</g>
<!-- binary_search&#45;&gt;parse_cie_fde -->
<g id="edge15" class="edge">
<title>binary_search&#45;&gt;parse_cie_fde</title>
<path fill="none" stroke="black" d="M347.78,-726.8C355.11,-714.82 365.02,-698.62 373.32,-685.06"/>
<polygon fill="black" stroke="black" points="376.52,-686.53 378.75,-676.18 370.55,-682.88 376.52,-686.53"/>
<text text-anchor="middle" x="381.76" y="-697.8" font-family="Times,serif" font-size="14.00">找到</text>
</g>
<!-- binary_search&#45;&gt;error_missing_fde -->
<g id="edge14" class="edge">
<title>binary_search&#45;&gt;error_missing_fde</title>
<path fill="none" stroke="black" d="M319.88,-726.85C308.13,-716.09 291.79,-702.66 275.26,-694 257.95,-684.94 237.97,-677.91 219.39,-672.6"/>
<polygon fill="black" stroke="black" points="220.09,-669.16 209.52,-669.91 218.25,-675.92 220.09,-669.16"/>
<text text-anchor="middle" x="319.76" y="-697.8" font-family="Times,serif" font-size="14.00">未找到</text>
</g>
<!-- setup_expr -->
<g id="node10" class="node">
<title>setup_expr</title>
<path fill="none" stroke="black" d="M448.76,-589C448.76,-589 327.76,-589 327.76,-589 321.76,-589 315.76,-583 315.76,-577 315.76,-577 315.76,-565 315.76,-565 315.76,-559 321.76,-553 327.76,-553 327.76,-553 448.76,-553 448.76,-553 454.76,-553 460.76,-559 460.76,-565 460.76,-565 460.76,-577 460.76,-577 460.76,-583 454.76,-589 448.76,-589"/>
<text text-anchor="middle" x="388.26" y="-567.3" font-family="Times,serif" font-size="14.00">初始化表达式上下文</text>
</g>
<!-- parse_cie_fde&#45;&gt;setup_expr -->
<g id="edge16" class="edge">
<title>parse_cie_fde&#45;&gt;setup_expr</title>
<path fill="none" stroke="black" d="M389.05,-639.8C388.92,-628.16 388.73,-612.55 388.58,-599.24"/>
<polygon fill="black" stroke="black" points="392.08,-599.13 388.46,-589.18 385.08,-599.22 392.08,-599.13"/>
</g>
<!-- run_vm -->
<g id="node11" class="node">
<title>run_vm</title>
<path fill="none" stroke="black" d="M452.76,-516C452.76,-516 317.76,-516 317.76,-516 311.76,-516 305.76,-510 305.76,-504 305.76,-504 305.76,-492 305.76,-492 305.76,-486 311.76,-480 317.76,-480 317.76,-480 452.76,-480 452.76,-480 458.76,-480 464.76,-486 464.76,-492 464.76,-492 464.76,-504 464.76,-504 464.76,-510 458.76,-516 452.76,-516"/>
<text text-anchor="middle" x="385.26" y="-494.3" font-family="Times,serif" font-size="14.00">运行虚拟机到本机代码</text>
</g>
<!-- setup_expr&#45;&gt;run_vm -->
<g id="edge17" class="edge">
<title>setup_expr&#45;&gt;run_vm</title>
<path fill="none" stroke="black" d="M387.53,-552.81C387.19,-544.79 386.78,-535.05 386.4,-526.07"/>
<polygon fill="black" stroke="black" points="389.9,-525.87 385.98,-516.03 382.9,-526.17 389.9,-525.87"/>
</g>
<!-- resolve_cfa -->
<g id="node12" class="node">
<title>resolve_cfa</title>
<path fill="none" stroke="black" d="M452.26,-443C452.26,-443 374.26,-443 374.26,-443 368.26,-443 362.26,-437 362.26,-431 362.26,-431 362.26,-419 362.26,-419 362.26,-413 368.26,-407 374.26,-407 374.26,-407 452.26,-407 452.26,-407 458.26,-407 464.26,-413 464.26,-419 464.26,-419 464.26,-431 464.26,-431 464.26,-437 458.26,-443 452.26,-443"/>
<text text-anchor="middle" x="413.26" y="-421.3" font-family="Times,serif" font-size="14.00">解析CFA规则</text>
</g>
<!-- run_vm&#45;&gt;resolve_cfa -->
<g id="edge18" class="edge">
<title>run_vm&#45;&gt;resolve_cfa</title>
<path fill="none" stroke="black" d="M392.03,-479.81C395.27,-471.62 399.21,-461.62 402.81,-452.48"/>
<polygon fill="black" stroke="black" points="406.13,-453.62 406.54,-443.03 399.62,-451.05 406.13,-453.62"/>
</g>
<!-- run_vm&#45;&gt;error_other -->
<g id="edge25" class="edge">
<title>run_vm&#45;&gt;error_other</title>
<path fill="none" stroke="black" d="M337.62,-479.94C321.2,-471.49 304.59,-459.49 295.26,-443 281.26,-418.29 291.74,-385.62 302.29,-363.54"/>
<polygon fill="black" stroke="black" points="305.48,-364.99 306.9,-354.49 299.24,-361.81 305.48,-364.99"/>
<text text-anchor="middle" x="324.26" y="-421.3" font-family="Times,serif" font-size="14.00">运行失败</text>
</g>
<!-- update_registers -->
<g id="node13" class="node">
<title>update_registers</title>
<path fill="none" stroke="black" d="M532.26,-356C532.26,-356 440.26,-356 440.26,-356 434.26,-356 428.26,-350 428.26,-344 428.26,-344 428.26,-332 428.26,-332 428.26,-326 434.26,-320 440.26,-320 440.26,-320 532.26,-320 532.26,-320 538.26,-320 544.26,-326 544.26,-332 544.26,-332 544.26,-344 544.26,-344 544.26,-350 538.26,-356 532.26,-356"/>
<text text-anchor="middle" x="486.26" y="-334.3" font-family="Times,serif" font-size="14.00">准备寄存器更新</text>
</g>
<!-- resolve_cfa&#45;&gt;update_registers -->
<g id="edge19" class="edge">
<title>resolve_cfa&#45;&gt;update_registers</title>
<path fill="none" stroke="black" d="M428.03,-406.8C438.62,-394.47 453.04,-377.68 464.88,-363.89"/>
<polygon fill="black" stroke="black" points="467.65,-366.04 471.51,-356.18 462.34,-361.48 467.65,-366.04"/>
</g>
<!-- resolve_cfa&#45;&gt;error_other -->
<g id="edge24" class="edge">
<title>resolve_cfa&#45;&gt;error_other</title>
<path fill="none" stroke="black" d="M381.14,-406.94C372.63,-401.73 363.74,-395.61 356.26,-389 347.42,-381.19 339.03,-371.27 332.25,-362.32"/>
<polygon fill="black" stroke="black" points="335,-360.15 326.27,-354.15 329.35,-364.29 335,-360.15"/>
<text text-anchor="middle" x="399.26" y="-377.8" font-family="Times,serif" font-size="14.00">CFA规则无效</text>
</g>
<!-- copy_updates -->
<g id="node14" class="node">
<title>copy_updates</title>
<path fill="none" stroke="black" d="M532.26,-269C532.26,-269 440.26,-269 440.26,-269 434.26,-269 428.26,-263 428.26,-257 428.26,-257 428.26,-245 428.26,-245 428.26,-239 434.26,-233 440.26,-233 440.26,-233 532.26,-233 532.26,-233 538.26,-233 544.26,-239 544.26,-245 544.26,-245 544.26,-257 544.26,-257 544.26,-263 538.26,-269 532.26,-269"/>
<text text-anchor="middle" x="486.26" y="-247.3" font-family="Times,serif" font-size="14.00">应用寄存器更新</text>
</g>
<!-- update_registers&#45;&gt;copy_updates -->
<g id="edge20" class="edge">
<title>update_registers&#45;&gt;copy_updates</title>
<path fill="none" stroke="black" d="M486.26,-319.8C486.26,-308.16 486.26,-292.55 486.26,-279.24"/>
<polygon fill="black" stroke="black" points="489.76,-279.18 486.26,-269.18 482.76,-279.18 489.76,-279.18"/>
<text text-anchor="middle" x="515.26" y="-290.8" font-family="Times,serif" font-size="14.00">准备更新</text>
</g>
<!-- handle_return -->
<g id="node15" class="node">
<title>handle_return</title>
<path fill="none" stroke="black" d="M525.26,-182C525.26,-182 447.26,-182 447.26,-182 441.26,-182 435.26,-176 435.26,-170 435.26,-170 435.26,-158 435.26,-158 435.26,-152 441.26,-146 447.26,-146 447.26,-146 525.26,-146 525.26,-146 531.26,-146 537.26,-152 537.26,-158 537.26,-158 537.26,-170 537.26,-170 537.26,-176 531.26,-182 525.26,-182"/>
<text text-anchor="middle" x="486.26" y="-160.3" font-family="Times,serif" font-size="14.00">处理返回地址</text>
</g>
<!-- copy_updates&#45;&gt;handle_return -->
<g id="edge21" class="edge">
<title>copy_updates&#45;&gt;handle_return</title>
<path fill="none" stroke="black" d="M486.26,-232.8C486.26,-221.16 486.26,-205.55 486.26,-192.24"/>
<polygon fill="black" stroke="black" points="489.76,-192.18 486.26,-182.18 482.76,-192.18 489.76,-192.18"/>
<text text-anchor="middle" x="515.26" y="-203.8" font-family="Times,serif" font-size="14.00">循环应用</text>
</g>
<!-- adjust_pc -->
<g id="node16" class="node">
<title>adjust_pc</title>
<path fill="none" stroke="black" d="M514.26,-109C514.26,-109 458.26,-109 458.26,-109 452.26,-109 446.26,-103 446.26,-97 446.26,-97 446.26,-85 446.26,-85 446.26,-79 452.26,-73 458.26,-73 458.26,-73 514.26,-73 514.26,-73 520.26,-73 526.26,-79 526.26,-85 526.26,-85 526.26,-97 526.26,-97 526.26,-103 520.26,-109 514.26,-109"/>
<text text-anchor="middle" x="486.26" y="-87.3" font-family="Times,serif" font-size="14.00">调整PC值</text>
</g>
<!-- handle_return&#45;&gt;adjust_pc -->
<g id="edge22" class="edge">
<title>handle_return&#45;&gt;adjust_pc</title>
<path fill="none" stroke="black" d="M486.26,-145.81C486.26,-137.79 486.26,-128.05 486.26,-119.07"/>
<polygon fill="black" stroke="black" points="489.76,-119.03 486.26,-109.03 482.76,-119.03 489.76,-119.03"/>
</g>
<!-- return_ra -->
<g id="node17" class="node">
<title>return_ra</title>
<path fill="none" stroke="black" d="M551.26,-36C551.26,-36 421.26,-36 421.26,-36 415.26,-36 409.26,-30 409.26,-24 409.26,-24 409.26,-12 409.26,-12 409.26,-6 415.26,0 421.26,0 421.26,0 551.26,0 551.26,0 557.26,0 563.26,-6 563.26,-12 563.26,-12 563.26,-24 563.26,-24 563.26,-30 557.26,-36 551.26,-36"/>
<text text-anchor="middle" x="486.26" y="-14.3" font-family="Times,serif" font-size="14.00">返回return_address</text>
</g>
<!-- adjust_pc&#45;&gt;return_ra -->
<g id="edge23" class="edge">
<title>adjust_pc&#45;&gt;return_ra</title>
<path fill="none" stroke="black" d="M486.26,-72.81C486.26,-64.79 486.26,-55.05 486.26,-46.07"/>
<polygon fill="black" stroke="black" points="489.76,-46.03 486.26,-36.03 482.76,-46.03 489.76,-46.03"/>
</g>
</g>
</svg>
