<?xml version="1.0" encoding="UTF-8" standalone="no"?>
<!DOCTYPE svg PUBLIC "-//W3C//DTD SVG 1.1//EN"
 "http://www.w3.org/Graphics/SVG/1.1/DTD/svg11.dtd">
<!-- Generated by graphviz version 2.43.0 (0)
 -->
<!-- Title: flowchart Pages: 1 -->
<svg width="910pt" height="919pt"
 viewBox="0.00 0.00 910.00 919.00" xmlns="http://www.w3.org/2000/svg" xmlns:xlink="http://www.w3.org/1999/xlink">
<g id="graph0" class="graph" transform="scale(1 1) rotate(0) translate(4 915)">
<title>flowchart</title>
<polygon fill="white" stroke="transparent" points="-4,4 -4,-915 906,-915 906,4 -4,4"/>
<!-- start -->
<g id="node1" class="node">
<title>start</title>
<polygon fill="none" stroke="black" points="308.5,-911 147.5,-911 147.5,-875 308.5,-875 308.5,-911"/>
<text text-anchor="middle" x="228" y="-889.9" font-family="Courier,monospace" font-size="12.00">开始: resolveWindows</text>
</g>
<!-- check_paths_empty -->
<g id="node2" class="node">
<title>check_paths_empty</title>
<polygon fill="none" stroke="black" points="228,-838 102.78,-820 228,-802 353.22,-820 228,-838"/>
<text text-anchor="middle" x="228" y="-816.9" font-family="Courier,monospace" font-size="12.00">断言 paths.len &gt; 0</text>
</g>
<!-- start&#45;&gt;check_paths_empty -->
<g id="edge1" class="edge">
<title>start&#45;&gt;check_paths_empty</title>
<path fill="none" stroke="black" d="M228,-874.81C228,-866.79 228,-857.05 228,-848.07"/>
<polygon fill="black" stroke="black" points="231.5,-848.03 228,-838.03 224.5,-848.03 231.5,-848.03"/>
</g>
<!-- parse_initial_loop -->
<g id="node3" class="node">
<title>parse_initial_loop</title>
<polygon fill="none" stroke="black" points="350.5,-755 105.5,-755 105.5,-719 350.5,-719 350.5,-755"/>
<text text-anchor="middle" x="228" y="-740.4" font-family="Courier,monospace" font-size="12.00">遍历 paths 解析磁盘标识符和绝对路径</text>
<text text-anchor="middle" x="228" y="-727.4" font-family="Courier,monospace" font-size="12.00">(确定 drive_kind 和 first_index)</text>
</g>
<!-- check_paths_empty&#45;&gt;parse_initial_loop -->
<g id="edge2" class="edge">
<title>check_paths_empty&#45;&gt;parse_initial_loop</title>
<path fill="none" stroke="black" d="M228,-801.82C228,-791.19 228,-777.31 228,-765.2"/>
<polygon fill="black" stroke="black" points="231.5,-765.15 228,-755.15 224.5,-765.15 231.5,-765.15"/>
<text text-anchor="middle" x="237.5" y="-776" font-family="Courier,monospace" font-size="10.00">Yes</text>
</g>
<!-- check_drive_kind -->
<g id="node4" class="node">
<title>check_drive_kind</title>
<polygon fill="none" stroke="black" points="228,-682 89.66,-664 228,-646 366.34,-664 228,-682"/>
<text text-anchor="middle" x="228" y="-660.9" font-family="Courier,monospace" font-size="12.00">drive_kind != None?</text>
</g>
<!-- parse_initial_loop&#45;&gt;check_drive_kind -->
<g id="edge3" class="edge">
<title>parse_initial_loop&#45;&gt;check_drive_kind</title>
<path fill="none" stroke="black" d="M228,-718.81C228,-710.79 228,-701.05 228,-692.07"/>
<polygon fill="black" stroke="black" points="231.5,-692.03 228,-682.03 224.5,-692.03 231.5,-692.03"/>
</g>
<!-- second_loop -->
<g id="node5" class="node">
<title>second_loop</title>
<polygon fill="none" stroke="black" points="510.5,-599 243.5,-599 243.5,-563 510.5,-563 510.5,-599"/>
<text text-anchor="middle" x="377" y="-584.4" font-family="Courier,monospace" font-size="12.00">再次遍历 paths 验证磁盘标识符</text>
<text text-anchor="middle" x="377" y="-571.4" font-family="Courier,monospace" font-size="12.00">(更新 first_index 和 have_abs_path)</text>
</g>
<!-- check_drive_kind&#45;&gt;second_loop -->
<g id="edge4" class="edge">
<title>check_drive_kind&#45;&gt;second_loop</title>
<path fill="none" stroke="black" d="M253.28,-649.26C276.08,-636.86 310.01,-618.42 336.58,-603.97"/>
<polygon fill="black" stroke="black" points="338.52,-606.9 345.64,-599.05 335.18,-600.75 338.52,-606.9"/>
<text text-anchor="middle" x="321.5" y="-620" font-family="Courier,monospace" font-size="10.00">Yes</text>
</g>
<!-- init_result -->
<g id="node6" class="node">
<title>init_result</title>
<polygon fill="none" stroke="black" points="359,-526 89,-526 89,-490 359,-490 359,-526"/>
<text text-anchor="middle" x="224" y="-511.4" font-family="Courier,monospace" font-size="12.00">初始化 result 数组</text>
<text text-anchor="middle" x="224" y="-498.4" font-family="Courier,monospace" font-size="12.00">添加磁盘标识符 (C: 或 \\server\share)</text>
</g>
<!-- check_drive_kind&#45;&gt;init_result -->
<g id="edge5" class="edge">
<title>check_drive_kind&#45;&gt;init_result</title>
<path fill="none" stroke="black" d="M225.66,-646.2C223.98,-633.31 221.88,-615.07 221,-599 220.13,-583.02 220.56,-578.99 221,-563 221.24,-554.29 221.7,-544.8 222.19,-536.23"/>
<polygon fill="black" stroke="black" points="225.7,-536.21 222.81,-526.01 218.71,-535.78 225.7,-536.21"/>
<text text-anchor="middle" x="227.5" y="-578.5" font-family="Courier,monospace" font-size="10.00">No</text>
</g>
<!-- second_loop&#45;&gt;init_result -->
<g id="edge6" class="edge">
<title>second_loop&#45;&gt;init_result</title>
<path fill="none" stroke="black" d="M340.35,-562.99C319.31,-553.23 292.69,-540.88 270.22,-530.45"/>
<polygon fill="black" stroke="black" points="271.42,-527.15 260.88,-526.11 268.48,-533.5 271.42,-527.15"/>
</g>
<!-- process_components -->
<g id="node7" class="node">
<title>process_components</title>
<polygon fill="none" stroke="black" points="322.5,-453 125.5,-453 125.5,-417 322.5,-417 322.5,-453"/>
<text text-anchor="middle" x="224" y="-438.4" font-family="Courier,monospace" font-size="12.00">遍历 paths[first_index..]</text>
<text text-anchor="middle" x="224" y="-425.4" font-family="Courier,monospace" font-size="12.00">分割组件并处理 . 和 ..</text>
</g>
<!-- init_result&#45;&gt;process_components -->
<g id="edge7" class="edge">
<title>init_result&#45;&gt;process_components</title>
<path fill="none" stroke="black" d="M224,-489.81C224,-481.79 224,-472.05 224,-463.07"/>
<polygon fill="black" stroke="black" points="227.5,-463.03 224,-453.03 220.5,-463.03 227.5,-463.03"/>
</g>
<!-- check_component -->
<g id="node8" class="node">
<title>check_component</title>
<polygon fill="none" stroke="black" points="224,-364 145.8,-346 224,-328 302.2,-346 224,-364"/>
<text text-anchor="middle" x="224" y="-342.9" font-family="Courier,monospace" font-size="12.00">组件是 &#39;.&#39;?</text>
</g>
<!-- process_components&#45;&gt;check_component -->
<g id="edge8" class="edge">
<title>process_components&#45;&gt;check_component</title>
<path fill="none" stroke="black" d="M224,-416.81C224,-404.66 224,-388.11 224,-374.18"/>
<polygon fill="black" stroke="black" points="227.5,-374.15 224,-364.15 220.5,-374.15 227.5,-374.15"/>
</g>
<!-- check_result_len -->
<g id="node12" class="node">
<title>check_result_len</title>
<polygon fill="none" stroke="black" points="630,-380 358,-346 630,-312 902,-346 630,-380"/>
<text text-anchor="middle" x="630" y="-349.4" font-family="Courier,monospace" font-size="12.00">disk_designator_len !=0 &amp;&amp;</text>
<text text-anchor="middle" x="630" y="-336.4" font-family="Courier,monospace" font-size="12.00">result.len == disk_designator_len?</text>
</g>
<!-- process_components&#45;&gt;check_result_len -->
<g id="edge15" class="edge">
<title>process_components&#45;&gt;check_result_len</title>
<path fill="none" stroke="black" d="M303.73,-416.92C366.24,-403.52 453.85,-384.75 522.55,-370.03"/>
<polygon fill="black" stroke="black" points="523.49,-373.4 532.54,-367.88 522.03,-366.56 523.49,-373.4"/>
</g>
<!-- handle_dot -->
<g id="node9" class="node">
<title>handle_dot</title>
<polygon fill="none" stroke="black" points="239,-265 185,-265 185,-229 239,-229 239,-265"/>
<text text-anchor="middle" x="212" y="-243.9" font-family="Courier,monospace" font-size="12.00">跳过</text>
</g>
<!-- check_component&#45;&gt;handle_dot -->
<g id="edge9" class="edge">
<title>check_component&#45;&gt;handle_dot</title>
<path fill="none" stroke="black" d="M221.91,-328.1C220.1,-313.45 217.44,-291.98 215.33,-274.95"/>
<polygon fill="black" stroke="black" points="218.81,-274.52 214.11,-265.03 211.86,-275.38 218.81,-274.52"/>
<text text-anchor="middle" x="227.5" y="-286" font-family="Courier,monospace" font-size="10.00">Yes</text>
</g>
<!-- handle_dotdot -->
<g id="node10" class="node">
<title>handle_dotdot</title>
<polygon fill="none" stroke="black" points="164,-265 0,-265 0,-229 164,-229 164,-265"/>
<text text-anchor="middle" x="82" y="-250.4" font-family="Courier,monospace" font-size="12.00">向上回退路径</text>
<text text-anchor="middle" x="82" y="-237.4" font-family="Courier,monospace" font-size="12.00">或增加 negative_count</text>
</g>
<!-- check_component&#45;&gt;handle_dotdot -->
<g id="edge10" class="edge">
<title>check_component&#45;&gt;handle_dotdot</title>
<path fill="none" stroke="black" d="M205.14,-332.12C182.24,-316.47 143.2,-289.81 115.21,-270.69"/>
<polygon fill="black" stroke="black" points="117.15,-267.77 106.91,-265.02 113.2,-273.55 117.15,-267.77"/>
<text text-anchor="middle" x="163" y="-286" font-family="Courier,monospace" font-size="10.00">是 ..</text>
</g>
<!-- add_component -->
<g id="node11" class="node">
<title>add_component</title>
<polygon fill="none" stroke="black" points="387,-265 259,-265 259,-229 387,-229 387,-265"/>
<text text-anchor="middle" x="323" y="-243.9" font-family="Courier,monospace" font-size="12.00">添加组件到 result</text>
</g>
<!-- check_component&#45;&gt;add_component -->
<g id="edge13" class="edge">
<title>check_component&#45;&gt;add_component</title>
<path fill="none" stroke="black" d="M234.69,-330.39C244.64,-317.27 260.27,-297.85 276,-283 280.27,-278.97 284.99,-274.99 289.76,-271.22"/>
<polygon fill="black" stroke="black" points="291.91,-273.98 297.74,-265.14 287.67,-268.42 291.91,-273.98"/>
<text text-anchor="middle" x="296" y="-286" font-family="Courier,monospace" font-size="10.00">普通组件</text>
</g>
<!-- handle_dot&#45;&gt;process_components -->
<g id="edge11" class="edge">
<title>handle_dot&#45;&gt;process_components</title>
<path fill="none" stroke="black" d="M185,-259.76C162.27,-269.69 133.4,-282.39 133,-283 109.47,-319.17 115.15,-342.79 137,-380 144.83,-393.33 157.37,-403.83 170.53,-411.9"/>
<polygon fill="black" stroke="black" points="168.8,-414.94 179.22,-416.84 172.26,-408.85 168.8,-414.94"/>
</g>
<!-- handle_dotdot&#45;&gt;process_components -->
<g id="edge12" class="edge">
<title>handle_dotdot&#45;&gt;process_components</title>
<path fill="none" stroke="black" d="M81.89,-265.29C82.59,-292.46 87.55,-345.61 114,-380 124.79,-394.03 140.18,-404.64 156.04,-412.57"/>
<polygon fill="black" stroke="black" points="154.86,-415.89 165.4,-416.94 157.82,-409.54 154.86,-415.89"/>
</g>
<!-- add_component&#45;&gt;process_components -->
<g id="edge14" class="edge">
<title>add_component&#45;&gt;process_components</title>
<path fill="none" stroke="black" d="M326.02,-265.34C329.75,-292.11 333.12,-344.17 311,-380 302.8,-393.28 290,-403.8 276.71,-411.89"/>
<polygon fill="black" stroke="black" points="274.92,-408.88 267.96,-416.87 278.38,-414.97 274.92,-408.88"/>
</g>
<!-- add_final_slash -->
<g id="node13" class="node">
<title>add_final_slash</title>
<polygon fill="none" stroke="black" points="734,-265 632,-265 632,-229 734,-229 734,-265"/>
<text text-anchor="middle" x="683" y="-243.9" font-family="Courier,monospace" font-size="12.00">添加 &#39;\&#39; 结尾</text>
</g>
<!-- check_result_len&#45;&gt;add_final_slash -->
<g id="edge16" class="edge">
<title>check_result_len&#45;&gt;add_final_slash</title>
<path fill="none" stroke="black" d="M646.92,-314.04C653.96,-301.14 662.06,-286.33 668.79,-274"/>
<polygon fill="black" stroke="black" points="671.91,-275.59 673.64,-265.13 665.77,-272.23 671.91,-275.59"/>
<text text-anchor="middle" x="671.5" y="-286" font-family="Courier,monospace" font-size="10.00">Yes</text>
</g>
<!-- check_negative_count -->
<g id="node14" class="node">
<title>check_negative_count</title>
<polygon fill="none" stroke="black" points="613,-192 474.66,-174 613,-156 751.34,-174 613,-192"/>
<text text-anchor="middle" x="613" y="-170.9" font-family="Courier,monospace" font-size="12.00">negative_count &gt; 0?</text>
</g>
<!-- check_result_len&#45;&gt;check_negative_count -->
<g id="edge18" class="edge">
<title>check_result_len&#45;&gt;check_negative_count</title>
<path fill="none" stroke="black" d="M620.1,-313.03C616.11,-298.53 611.98,-281.06 610,-265 608.05,-249.12 609.56,-244.99 610,-229 610.24,-220.29 610.7,-210.8 611.19,-202.23"/>
<polygon fill="black" stroke="black" points="614.7,-202.21 611.81,-192.01 607.71,-201.78 614.7,-202.21"/>
<text text-anchor="middle" x="616.5" y="-244.5" font-family="Courier,monospace" font-size="10.00">No</text>
</g>
<!-- add_final_slash&#45;&gt;check_negative_count -->
<g id="edge17" class="edge">
<title>add_final_slash&#45;&gt;check_negative_count</title>
<path fill="none" stroke="black" d="M666.05,-228.81C656.77,-219.39 645.15,-207.61 635.15,-197.47"/>
<polygon fill="black" stroke="black" points="637.4,-194.76 627.89,-190.1 632.42,-199.68 637.4,-194.76"/>
</g>
<!-- build_negative_path -->
<g id="node15" class="node">
<title>build_negative_path</title>
<polygon fill="none" stroke="black" points="774,-109 628,-109 628,-73 774,-73 774,-109"/>
<text text-anchor="middle" x="701" y="-87.9" font-family="Courier,monospace" font-size="12.00">构造包含 &#39;..&#39; 的路径</text>
</g>
<!-- check_negative_count&#45;&gt;build_negative_path -->
<g id="edge19" class="edge">
<title>check_negative_count&#45;&gt;build_negative_path</title>
<path fill="none" stroke="black" d="M629.55,-157.76C642.24,-146.09 659.99,-129.74 674.63,-116.27"/>
<polygon fill="black" stroke="black" points="677.4,-118.48 682.39,-109.13 672.66,-113.33 677.4,-118.48"/>
<text text-anchor="middle" x="671.5" y="-130" font-family="Courier,monospace" font-size="10.00">Yes</text>
</g>
<!-- return_result -->
<g id="node16" class="node">
<title>return_result</title>
<polygon fill="none" stroke="black" points="653.5,-36 564.5,-36 564.5,0 653.5,0 653.5,-36"/>
<text text-anchor="middle" x="609" y="-14.9" font-family="Courier,monospace" font-size="12.00">返回最终路径</text>
</g>
<!-- check_negative_count&#45;&gt;return_result -->
<g id="edge20" class="edge">
<title>check_negative_count&#45;&gt;return_result</title>
<path fill="none" stroke="black" d="M610.66,-156.2C608.98,-143.31 606.88,-125.07 606,-109 605.13,-93.02 605.56,-88.99 606,-73 606.24,-64.29 606.7,-54.8 607.19,-46.23"/>
<polygon fill="black" stroke="black" points="610.7,-46.21 607.81,-36.01 603.71,-45.78 610.7,-46.21"/>
<text text-anchor="middle" x="612.5" y="-88.5" font-family="Courier,monospace" font-size="10.00">No</text>
</g>
<!-- build_negative_path&#45;&gt;return_result -->
<g id="edge21" class="edge">
<title>build_negative_path&#45;&gt;return_result</title>
<path fill="none" stroke="black" d="M678.73,-72.81C666.86,-63.66 652.1,-52.26 639.21,-42.32"/>
<polygon fill="black" stroke="black" points="641.12,-39.37 631.07,-36.03 636.84,-44.91 641.12,-39.37"/>
</g>
</g>
</svg>
