<?xml version="1.0" encoding="UTF-8" standalone="no"?>
<!DOCTYPE svg PUBLIC "-//W3C//DTD SVG 1.1//EN"
 "http://www.w3.org/Graphics/SVG/1.1/DTD/svg11.dtd">
<!-- Generated by graphviz version 2.43.0 (0)
 -->
<!-- Title: SbrkAllocatorFlow Pages: 1 -->
<svg width="1155pt" height="736pt"
 viewBox="0.00 0.00 1154.50 736.00" xmlns="http://www.w3.org/2000/svg" xmlns:xlink="http://www.w3.org/1999/xlink">
<g id="graph0" class="graph" transform="scale(1 1) rotate(0) translate(4 732)">
<title>SbrkAllocatorFlow</title>
<polygon fill="white" stroke="transparent" points="-4,4 -4,-732 1150.5,-732 1150.5,4 -4,4"/>
<!-- start_alloc -->
<g id="node1" class="node">
<title>start_alloc</title>
<path fill="none" stroke="black" d="M452.5,-728C452.5,-728 398.5,-728 398.5,-728 392.5,-728 386.5,-722 386.5,-716 386.5,-716 386.5,-704 386.5,-704 386.5,-698 392.5,-692 398.5,-692 398.5,-692 452.5,-692 452.5,-692 458.5,-692 464.5,-698 464.5,-704 464.5,-704 464.5,-716 464.5,-716 464.5,-722 458.5,-728 452.5,-728"/>
<text text-anchor="middle" x="425.5" y="-706.3" font-family="Times,serif" font-size="14.00">alloc开始</text>
</g>
<!-- check_len -->
<g id="node2" class="node">
<title>check_len</title>
<path fill="none" stroke="black" d="M395.5,-655C395.5,-655 227.5,-655 227.5,-655 221.5,-655 215.5,-649 215.5,-643 215.5,-643 215.5,-629 215.5,-629 215.5,-623 221.5,-617 227.5,-617 227.5,-617 395.5,-617 395.5,-617 401.5,-617 407.5,-623 407.5,-629 407.5,-629 407.5,-643 407.5,-643 407.5,-649 401.5,-655 395.5,-655"/>
<text text-anchor="middle" x="311.5" y="-639.8" font-family="Times,serif" font-size="14.00">计算actual_len和slot_size</text>
<text text-anchor="middle" x="311.5" y="-624.8" font-family="Times,serif" font-size="14.00">确定class</text>
</g>
<!-- start_alloc&#45;&gt;check_len -->
<g id="edge1" class="edge">
<title>start_alloc&#45;&gt;check_len</title>
<path fill="none" stroke="black" d="M398.48,-691.94C383.71,-682.6 365.17,-670.9 349.01,-660.69"/>
<polygon fill="black" stroke="black" points="350.64,-657.58 340.32,-655.2 346.9,-663.5 350.64,-657.58"/>
</g>
<!-- lock -->
<g id="node23" class="node">
<title>lock</title>
<ellipse fill="none" stroke="black" cx="472.5" cy="-636" rx="38.19" ry="18"/>
<text text-anchor="middle" x="472.5" y="-632.3" font-family="Times,serif" font-size="14.00">获取锁</text>
</g>
<!-- start_alloc&#45;&gt;lock -->
<!-- class_condition -->
<g id="node3" class="node">
<title>class_condition</title>
<path fill="none" stroke="black" d="M277.56,-563.81C277.56,-563.81 120.29,-548.19 120.29,-548.19 114.32,-547.59 114.32,-546.41 120.29,-545.81 120.29,-545.81 277.56,-530.19 277.56,-530.19 283.53,-529.59 295.47,-529.59 301.44,-530.19 301.44,-530.19 458.71,-545.81 458.71,-545.81 464.68,-546.41 464.68,-547.59 458.71,-548.19 458.71,-548.19 301.44,-563.81 301.44,-563.81 295.47,-564.41 283.53,-564.41 277.56,-563.81"/>
<text text-anchor="middle" x="289.5" y="-543.3" font-family="Times,serif" font-size="14.00">class &lt; size_class_count?</text>
</g>
<!-- check_len&#45;&gt;class_condition -->
<g id="edge2" class="edge">
<title>check_len&#45;&gt;class_condition</title>
<path fill="none" stroke="black" d="M306.94,-616.97C303.85,-604.76 299.72,-588.4 296.25,-574.69"/>
<polygon fill="black" stroke="black" points="299.6,-573.66 293.75,-564.82 292.81,-575.38 299.6,-573.66"/>
</g>
<!-- check_frees -->
<g id="node4" class="node">
<title>check_frees</title>
<path fill="none" stroke="black" d="M351.5,-477C351.5,-477 163.5,-477 163.5,-477 157.5,-477 151.5,-471 151.5,-465 151.5,-465 151.5,-453 151.5,-453 151.5,-447 157.5,-441 163.5,-441 163.5,-441 351.5,-441 351.5,-441 357.5,-441 363.5,-447 363.5,-453 363.5,-453 363.5,-465 363.5,-465 363.5,-471 357.5,-477 351.5,-477"/>
<text text-anchor="middle" x="257.5" y="-455.3" font-family="Times,serif" font-size="14.00">检查frees[class]是否有空闲块</text>
</g>
<!-- class_condition&#45;&gt;check_frees -->
<g id="edge3" class="edge">
<title>class_condition&#45;&gt;check_frees</title>
<path fill="none" stroke="black" d="M283.33,-529.42C278.83,-517.32 272.63,-500.67 267.44,-486.71"/>
<polygon fill="black" stroke="black" points="270.64,-485.27 263.87,-477.12 264.08,-487.71 270.64,-485.27"/>
<text text-anchor="middle" x="283" y="-498.8" font-family="Times,serif" font-size="14.00">是</text>
</g>
<!-- alloc_bigpages -->
<g id="node9" class="node">
<title>alloc_bigpages</title>
<path fill="none" stroke="black" d="M478,-423C478,-423 357,-423 357,-423 351,-423 345,-417 345,-411 345,-411 345,-397 345,-397 345,-391 351,-385 357,-385 357,-385 478,-385 478,-385 484,-385 490,-391 490,-397 490,-397 490,-411 490,-411 490,-417 484,-423 478,-423"/>
<text text-anchor="middle" x="417.5" y="-407.8" font-family="Times,serif" font-size="14.00">计算需要的大页数量</text>
<text text-anchor="middle" x="417.5" y="-392.8" font-family="Times,serif" font-size="14.00">调用allocBigPages</text>
</g>
<!-- class_condition&#45;&gt;alloc_bigpages -->
<g id="edge11" class="edge">
<title>class_condition&#45;&gt;alloc_bigpages</title>
<path fill="none" stroke="black" d="M311.25,-530.94C329.03,-517.95 354.13,-498.03 372.5,-477 384.43,-463.34 395.29,-446.18 403.35,-432.03"/>
<polygon fill="black" stroke="black" points="406.43,-433.69 408.22,-423.24 400.31,-430.29 406.43,-433.69"/>
<text text-anchor="middle" x="363" y="-498.8" font-family="Times,serif" font-size="14.00">否</text>
</g>
<!-- free_exists -->
<g id="node5" class="node">
<title>free_exists</title>
<path fill="none" stroke="black" d="M129,-313C129,-313 12,-313 12,-313 6,-313 0,-307 0,-301 0,-301 0,-287 0,-287 0,-281 6,-275 12,-275 12,-275 129,-275 129,-275 135,-275 141,-281 141,-287 141,-287 141,-301 141,-301 141,-307 135,-313 129,-313"/>
<text text-anchor="middle" x="70.5" y="-297.8" font-family="Times,serif" font-size="14.00">从frees[class]取块</text>
<text text-anchor="middle" x="70.5" y="-282.8" font-family="Times,serif" font-size="14.00">更新链表</text>
</g>
<!-- check_frees&#45;&gt;free_exists -->
<g id="edge4" class="edge">
<title>check_frees&#45;&gt;free_exists</title>
<path fill="none" stroke="black" d="M228.07,-440.85C200.47,-424 158.87,-396.58 127.5,-367 112.99,-353.32 99.06,-335.83 88.6,-321.51"/>
<polygon fill="black" stroke="black" points="91.22,-319.16 82.56,-313.07 85.53,-323.24 91.22,-319.16"/>
<text text-anchor="middle" x="206" y="-400.3" font-family="Times,serif" font-size="14.00">有</text>
</g>
<!-- check_next_addr -->
<g id="node6" class="node">
<title>check_next_addr</title>
<path fill="none" stroke="black" d="M366,-367C366,-367 149,-367 149,-367 143,-367 137,-361 137,-355 137,-355 137,-343 137,-343 137,-337 143,-331 149,-331 149,-331 366,-331 366,-331 372,-331 378,-337 378,-343 378,-343 378,-355 378,-355 378,-361 372,-367 366,-367"/>
<text text-anchor="middle" x="257.5" y="-345.3" font-family="Times,serif" font-size="14.00">检查next_addrs[class]是否页对齐</text>
</g>
<!-- check_frees&#45;&gt;check_next_addr -->
<g id="edge6" class="edge">
<title>check_frees&#45;&gt;check_next_addr</title>
<path fill="none" stroke="black" d="M257.5,-440.65C257.5,-423.56 257.5,-397.22 257.5,-377.32"/>
<polygon fill="black" stroke="black" points="261,-377.31 257.5,-367.31 254,-377.31 261,-377.31"/>
<text text-anchor="middle" x="265" y="-400.3" font-family="Times,serif" font-size="14.00">无</text>
</g>
<!-- return_addr -->
<g id="node10" class="node">
<title>return_addr</title>
<path fill="none" stroke="black" d="M408.5,-182C408.5,-182 330.5,-182 330.5,-182 324.5,-182 318.5,-176 318.5,-170 318.5,-170 318.5,-158 318.5,-158 318.5,-152 324.5,-146 330.5,-146 330.5,-146 408.5,-146 408.5,-146 414.5,-146 420.5,-152 420.5,-158 420.5,-158 420.5,-170 420.5,-170 420.5,-176 414.5,-182 408.5,-182"/>
<text text-anchor="middle" x="369.5" y="-160.3" font-family="Times,serif" font-size="14.00">返回分配地址</text>
</g>
<!-- free_exists&#45;&gt;return_addr -->
<g id="edge5" class="edge">
<title>free_exists&#45;&gt;return_addr</title>
<path fill="none" stroke="black" d="M62.44,-274.68C56.57,-258.21 51.66,-234.31 64.5,-219 94.92,-182.72 227.8,-170.8 307.8,-166.89"/>
<polygon fill="black" stroke="black" points="308.41,-170.37 318.24,-166.42 308.09,-163.38 308.41,-170.37"/>
</g>
<!-- alloc_new_page -->
<g id="node7" class="node">
<title>alloc_new_page</title>
<path fill="none" stroke="black" d="M263,-257C263,-257 86,-257 86,-257 80,-257 74,-251 74,-245 74,-245 74,-231 74,-231 74,-225 80,-219 86,-219 86,-219 263,-219 263,-219 269,-219 275,-225 275,-231 275,-231 275,-245 275,-245 275,-251 269,-257 263,-257"/>
<text text-anchor="middle" x="174.5" y="-241.8" font-family="Times,serif" font-size="14.00">通过allocBigPages分配新页</text>
<text text-anchor="middle" x="174.5" y="-226.8" font-family="Times,serif" font-size="14.00">更新next_addrs</text>
</g>
<!-- check_next_addr&#45;&gt;alloc_new_page -->
<g id="edge7" class="edge">
<title>check_next_addr&#45;&gt;alloc_new_page</title>
<path fill="none" stroke="black" d="M244.53,-330.97C231.15,-313.39 210.09,-285.74 194.56,-265.34"/>
<polygon fill="black" stroke="black" points="197.33,-263.2 188.49,-257.37 191.76,-267.44 197.33,-263.2"/>
<text text-anchor="middle" x="246" y="-290.3" font-family="Times,serif" font-size="14.00">对齐</text>
</g>
<!-- use_next_addr -->
<g id="node8" class="node">
<title>use_next_addr</title>
<path fill="none" stroke="black" d="M433.5,-257C433.5,-257 305.5,-257 305.5,-257 299.5,-257 293.5,-251 293.5,-245 293.5,-245 293.5,-231 293.5,-231 293.5,-225 299.5,-219 305.5,-219 305.5,-219 433.5,-219 433.5,-219 439.5,-219 445.5,-225 445.5,-231 445.5,-231 445.5,-245 445.5,-245 445.5,-251 439.5,-257 433.5,-257"/>
<text text-anchor="middle" x="369.5" y="-241.8" font-family="Times,serif" font-size="14.00">直接使用next_addrs</text>
<text text-anchor="middle" x="369.5" y="-226.8" font-family="Times,serif" font-size="14.00">并递增指针</text>
</g>
<!-- check_next_addr&#45;&gt;use_next_addr -->
<g id="edge9" class="edge">
<title>check_next_addr&#45;&gt;use_next_addr</title>
<path fill="none" stroke="black" d="M275,-330.97C293.3,-313.16 322.24,-285 343.27,-264.53"/>
<polygon fill="black" stroke="black" points="345.9,-266.85 350.63,-257.37 341.02,-261.83 345.9,-266.85"/>
<text text-anchor="middle" x="352" y="-290.3" font-family="Times,serif" font-size="14.00">未对齐</text>
</g>
<!-- alloc_new_page&#45;&gt;return_addr -->
<g id="edge8" class="edge">
<title>alloc_new_page&#45;&gt;return_addr</title>
<path fill="none" stroke="black" d="M223.46,-218.92C250.92,-208.78 285.29,-196.09 313.79,-185.57"/>
<polygon fill="black" stroke="black" points="315.04,-188.84 323.21,-182.09 312.62,-182.27 315.04,-188.84"/>
</g>
<!-- use_next_addr&#45;&gt;return_addr -->
<g id="edge10" class="edge">
<title>use_next_addr&#45;&gt;return_addr</title>
<path fill="none" stroke="black" d="M369.5,-218.83C369.5,-210.89 369.5,-201.41 369.5,-192.63"/>
<polygon fill="black" stroke="black" points="373,-192.42 369.5,-182.42 366,-192.42 373,-192.42"/>
</g>
<!-- alloc_bigpages&#45;&gt;return_addr -->
<g id="edge12" class="edge">
<title>alloc_bigpages&#45;&gt;return_addr</title>
<path fill="none" stroke="black" d="M428.78,-384.8C448.56,-350.31 484.7,-273.97 454.5,-219 447.25,-205.8 435.26,-195.37 422.53,-187.34"/>
<polygon fill="black" stroke="black" points="424.06,-184.18 413.66,-182.16 420.53,-190.23 424.06,-184.18"/>
</g>
<!-- end_alloc -->
<g id="node11" class="node">
<title>end_alloc</title>
<path fill="none" stroke="black" d="M462.5,-109C462.5,-109 408.5,-109 408.5,-109 402.5,-109 396.5,-103 396.5,-97 396.5,-97 396.5,-85 396.5,-85 396.5,-79 402.5,-73 408.5,-73 408.5,-73 462.5,-73 462.5,-73 468.5,-73 474.5,-79 474.5,-85 474.5,-85 474.5,-97 474.5,-97 474.5,-103 468.5,-109 462.5,-109"/>
<text text-anchor="middle" x="435.5" y="-87.3" font-family="Times,serif" font-size="14.00">alloc结束</text>
</g>
<!-- return_addr&#45;&gt;end_alloc -->
<g id="edge13" class="edge">
<title>return_addr&#45;&gt;end_alloc</title>
<path fill="none" stroke="black" d="M385.48,-145.81C393.66,-137 403.78,-126.13 412.76,-116.46"/>
<polygon fill="black" stroke="black" points="415.43,-118.74 419.67,-109.03 410.3,-113.97 415.43,-118.74"/>
</g>
<!-- unlock -->
<g id="node24" class="node">
<title>unlock</title>
<ellipse fill="none" stroke="black" cx="490.5" cy="-18" rx="38.19" ry="18"/>
<text text-anchor="middle" x="490.5" y="-14.3" font-family="Times,serif" font-size="14.00">释放锁</text>
</g>
<!-- end_alloc&#45;&gt;unlock -->
<!-- start_allocBig -->
<g id="node12" class="node">
<title>start_allocBig</title>
<path fill="none" stroke="black" d="M1064.5,-728C1064.5,-728 944.5,-728 944.5,-728 938.5,-728 932.5,-722 932.5,-716 932.5,-716 932.5,-704 932.5,-704 932.5,-698 938.5,-692 944.5,-692 944.5,-692 1064.5,-692 1064.5,-692 1070.5,-692 1076.5,-698 1076.5,-704 1076.5,-704 1076.5,-716 1076.5,-716 1076.5,-722 1070.5,-728 1064.5,-728"/>
<text text-anchor="middle" x="1004.5" y="-706.3" font-family="Times,serif" font-size="14.00">allocBigPages开始</text>
</g>
<!-- check_big_frees -->
<g id="node13" class="node">
<title>check_big_frees</title>
<path fill="none" stroke="black" d="M1070.5,-654C1070.5,-654 938.5,-654 938.5,-654 932.5,-654 926.5,-648 926.5,-642 926.5,-642 926.5,-630 926.5,-630 926.5,-624 932.5,-618 938.5,-618 938.5,-618 1070.5,-618 1070.5,-618 1076.5,-618 1082.5,-624 1082.5,-630 1082.5,-630 1082.5,-642 1082.5,-642 1082.5,-648 1076.5,-654 1070.5,-654"/>
<text text-anchor="middle" x="1004.5" y="-632.3" font-family="Times,serif" font-size="14.00">检查big_frees[class]</text>
</g>
<!-- start_allocBig&#45;&gt;check_big_frees -->
<g id="edge14" class="edge">
<title>start_allocBig&#45;&gt;check_big_frees</title>
<path fill="none" stroke="black" d="M1004.5,-691.94C1004.5,-683.81 1004.5,-673.88 1004.5,-664.7"/>
<polygon fill="black" stroke="black" points="1008,-664.44 1004.5,-654.44 1001,-664.44 1008,-664.44"/>
</g>
<!-- take_big_free -->
<g id="node14" class="node">
<title>take_big_free</title>
<path fill="none" stroke="black" d="M982,-566C982,-566 881,-566 881,-566 875,-566 869,-560 869,-554 869,-554 869,-540 869,-540 869,-534 875,-528 881,-528 881,-528 982,-528 982,-528 988,-528 994,-534 994,-540 994,-540 994,-554 994,-554 994,-560 988,-566 982,-566"/>
<text text-anchor="middle" x="931.5" y="-550.8" font-family="Times,serif" font-size="14.00">从big_frees取块</text>
<text text-anchor="middle" x="931.5" y="-535.8" font-family="Times,serif" font-size="14.00">更新链表</text>
</g>
<!-- check_big_frees&#45;&gt;take_big_free -->
<g id="edge15" class="edge">
<title>check_big_frees&#45;&gt;take_big_free</title>
<path fill="none" stroke="black" d="M990.08,-617.81C979.59,-605.31 965.2,-588.16 953.31,-573.99"/>
<polygon fill="black" stroke="black" points="955.76,-571.46 946.65,-566.05 950.39,-575.96 955.76,-571.46"/>
<text text-anchor="middle" x="994" y="-587.8" font-family="Times,serif" font-size="14.00">有空闲</text>
</g>
<!-- call_sbrk -->
<g id="node15" class="node">
<title>call_sbrk</title>
<path fill="none" stroke="black" d="M1134.5,-565C1134.5,-565 1024.5,-565 1024.5,-565 1018.5,-565 1012.5,-559 1012.5,-553 1012.5,-553 1012.5,-541 1012.5,-541 1012.5,-535 1018.5,-529 1024.5,-529 1024.5,-529 1134.5,-529 1134.5,-529 1140.5,-529 1146.5,-535 1146.5,-541 1146.5,-541 1146.5,-553 1146.5,-553 1146.5,-559 1140.5,-565 1134.5,-565"/>
<text text-anchor="middle" x="1079.5" y="-543.3" font-family="Times,serif" font-size="14.00">调用sbrk分配内存</text>
</g>
<!-- check_big_frees&#45;&gt;call_sbrk -->
<g id="edge17" class="edge">
<title>check_big_frees&#45;&gt;call_sbrk</title>
<path fill="none" stroke="black" d="M1019.32,-617.81C1030.41,-604.94 1045.75,-587.15 1058.16,-572.75"/>
<polygon fill="black" stroke="black" points="1060.83,-575.01 1064.71,-565.15 1055.53,-570.44 1060.83,-575.01"/>
<text text-anchor="middle" x="1068" y="-587.8" font-family="Times,serif" font-size="14.00">无空闲</text>
</g>
<!-- end_allocBig -->
<g id="node16" class="node">
<title>end_allocBig</title>
<path fill="none" stroke="black" d="M1030.5,-477C1030.5,-477 980.5,-477 980.5,-477 974.5,-477 968.5,-471 968.5,-465 968.5,-465 968.5,-453 968.5,-453 968.5,-447 974.5,-441 980.5,-441 980.5,-441 1030.5,-441 1030.5,-441 1036.5,-441 1042.5,-447 1042.5,-453 1042.5,-453 1042.5,-465 1042.5,-465 1042.5,-471 1036.5,-477 1030.5,-477"/>
<text text-anchor="middle" x="1005.5" y="-455.3" font-family="Times,serif" font-size="14.00">返回地址</text>
</g>
<!-- take_big_free&#45;&gt;end_allocBig -->
<g id="edge16" class="edge">
<title>take_big_free&#45;&gt;end_allocBig</title>
<path fill="none" stroke="black" d="M947.19,-527.76C957.97,-515.23 972.42,-498.45 984.23,-484.72"/>
<polygon fill="black" stroke="black" points="986.97,-486.91 990.84,-477.04 981.66,-482.34 986.97,-486.91"/>
</g>
<!-- call_sbrk&#45;&gt;end_allocBig -->
<g id="edge18" class="edge">
<title>call_sbrk&#45;&gt;end_allocBig</title>
<path fill="none" stroke="black" d="M1064.52,-528.6C1053.72,-516.04 1038.98,-498.91 1026.93,-484.91"/>
<polygon fill="black" stroke="black" points="1029.38,-482.38 1020.2,-477.08 1024.07,-486.95 1029.38,-482.38"/>
</g>
<!-- start_free -->
<g id="node17" class="node">
<title>start_free</title>
<path fill="none" stroke="black" d="M582.5,-728C582.5,-728 532.5,-728 532.5,-728 526.5,-728 520.5,-722 520.5,-716 520.5,-716 520.5,-704 520.5,-704 520.5,-698 526.5,-692 532.5,-692 532.5,-692 582.5,-692 582.5,-692 588.5,-692 594.5,-698 594.5,-704 594.5,-704 594.5,-716 594.5,-716 594.5,-722 588.5,-728 582.5,-728"/>
<text text-anchor="middle" x="557.5" y="-706.3" font-family="Times,serif" font-size="14.00">free开始</text>
</g>
<!-- calc_actual_len -->
<g id="node18" class="node">
<title>calc_actual_len</title>
<path fill="none" stroke="black" d="M713.5,-654C713.5,-654 545.5,-654 545.5,-654 539.5,-654 533.5,-648 533.5,-642 533.5,-642 533.5,-630 533.5,-630 533.5,-624 539.5,-618 545.5,-618 545.5,-618 713.5,-618 713.5,-618 719.5,-618 725.5,-624 725.5,-630 725.5,-630 725.5,-642 725.5,-642 725.5,-648 719.5,-654 713.5,-654"/>
<text text-anchor="middle" x="629.5" y="-632.3" font-family="Times,serif" font-size="14.00">计算actual_len和slot_size</text>
</g>
<!-- start_free&#45;&gt;calc_actual_len -->
<g id="edge19" class="edge">
<title>start_free&#45;&gt;calc_actual_len</title>
<path fill="none" stroke="black" d="M574.56,-691.94C583.58,-682.92 594.8,-671.7 604.76,-661.74"/>
<polygon fill="black" stroke="black" points="607.46,-663.99 612.06,-654.44 602.51,-659.04 607.46,-663.99"/>
</g>
<!-- start_free&#45;&gt;lock -->
<!-- free_class_cond -->
<g id="node19" class="node">
<title>free_class_cond</title>
<path fill="none" stroke="black" d="M657.56,-563.81C657.56,-563.81 500.29,-548.19 500.29,-548.19 494.32,-547.59 494.32,-546.41 500.29,-545.81 500.29,-545.81 657.56,-530.19 657.56,-530.19 663.53,-529.59 675.47,-529.59 681.44,-530.19 681.44,-530.19 838.71,-545.81 838.71,-545.81 844.68,-546.41 844.68,-547.59 838.71,-548.19 838.71,-548.19 681.44,-563.81 681.44,-563.81 675.47,-564.41 663.53,-564.41 657.56,-563.81"/>
<text text-anchor="middle" x="669.5" y="-543.3" font-family="Times,serif" font-size="14.00">class &lt; size_class_count?</text>
</g>
<!-- calc_actual_len&#45;&gt;free_class_cond -->
<g id="edge20" class="edge">
<title>calc_actual_len&#45;&gt;free_class_cond</title>
<path fill="none" stroke="black" d="M637.4,-617.81C643.21,-605.18 651.2,-587.8 657.76,-573.54"/>
<polygon fill="black" stroke="black" points="661.02,-574.82 662.02,-564.27 654.66,-571.89 661.02,-574.82"/>
</g>
<!-- add_to_frees -->
<g id="node20" class="node">
<title>add_to_frees</title>
<path fill="none" stroke="black" d="M586.5,-477C586.5,-477 458.5,-477 458.5,-477 452.5,-477 446.5,-471 446.5,-465 446.5,-465 446.5,-453 446.5,-453 446.5,-447 452.5,-441 458.5,-441 458.5,-441 586.5,-441 586.5,-441 592.5,-441 598.5,-447 598.5,-453 598.5,-453 598.5,-465 598.5,-465 598.5,-471 592.5,-477 586.5,-477"/>
<text text-anchor="middle" x="522.5" y="-455.3" font-family="Times,serif" font-size="14.00">将地址加入frees链表</text>
</g>
<!-- free_class_cond&#45;&gt;add_to_frees -->
<g id="edge21" class="edge">
<title>free_class_cond&#45;&gt;add_to_frees</title>
<path fill="none" stroke="black" d="M644.56,-531.41C621.45,-517.89 586.75,-497.59 560.25,-482.09"/>
<polygon fill="black" stroke="black" points="562,-479.06 551.61,-477.03 558.47,-485.1 562,-479.06"/>
<text text-anchor="middle" x="613" y="-498.8" font-family="Times,serif" font-size="14.00">是</text>
</g>
<!-- add_to_big_frees -->
<g id="node21" class="node">
<title>add_to_big_frees</title>
<path fill="none" stroke="black" d="M786.5,-477C786.5,-477 628.5,-477 628.5,-477 622.5,-477 616.5,-471 616.5,-465 616.5,-465 616.5,-453 616.5,-453 616.5,-447 622.5,-441 628.5,-441 628.5,-441 786.5,-441 786.5,-441 792.5,-441 798.5,-447 798.5,-453 798.5,-453 798.5,-465 798.5,-465 798.5,-471 792.5,-477 786.5,-477"/>
<text text-anchor="middle" x="707.5" y="-455.3" font-family="Times,serif" font-size="14.00">将地址加入big_frees链表</text>
</g>
<!-- free_class_cond&#45;&gt;add_to_big_frees -->
<g id="edge22" class="edge">
<title>free_class_cond&#45;&gt;add_to_big_frees</title>
<path fill="none" stroke="black" d="M676.83,-529.42C682.22,-517.2 689.67,-500.35 695.88,-486.3"/>
<polygon fill="black" stroke="black" points="699.1,-487.68 699.94,-477.12 692.69,-484.85 699.1,-487.68"/>
<text text-anchor="middle" x="700" y="-498.8" font-family="Times,serif" font-size="14.00">否</text>
</g>
<!-- end_free -->
<g id="node22" class="node">
<title>end_free</title>
<path fill="none" stroke="black" d="M563.5,-367C563.5,-367 513.5,-367 513.5,-367 507.5,-367 501.5,-361 501.5,-355 501.5,-355 501.5,-343 501.5,-343 501.5,-337 507.5,-331 513.5,-331 513.5,-331 563.5,-331 563.5,-331 569.5,-331 575.5,-337 575.5,-343 575.5,-343 575.5,-355 575.5,-355 575.5,-361 569.5,-367 563.5,-367"/>
<text text-anchor="middle" x="538.5" y="-345.3" font-family="Times,serif" font-size="14.00">free结束</text>
</g>
<!-- add_to_frees&#45;&gt;end_free -->
<g id="edge23" class="edge">
<title>add_to_frees&#45;&gt;end_free</title>
<path fill="none" stroke="black" d="M525.07,-440.65C527.6,-423.56 531.51,-397.22 534.45,-377.32"/>
<polygon fill="black" stroke="black" points="537.93,-377.71 535.94,-367.31 531.01,-376.69 537.93,-377.71"/>
</g>
<!-- add_to_big_frees&#45;&gt;end_free -->
<g id="edge24" class="edge">
<title>add_to_big_frees&#45;&gt;end_free</title>
<path fill="none" stroke="black" d="M680.72,-440.89C651.8,-422.4 605.59,-392.87 573.73,-372.51"/>
<polygon fill="black" stroke="black" points="575.46,-369.47 565.15,-367.03 571.69,-375.37 575.46,-369.47"/>
</g>
<!-- end_free&#45;&gt;unlock -->
</g>
</svg>
