<?xml version="1.0" encoding="UTF-8" standalone="no"?>
<!DOCTYPE svg PUBLIC "-//W3C//DTD SVG 1.1//EN"
 "http://www.w3.org/Graphics/SVG/1.1/DTD/svg11.dtd">
<!-- Generated by graphviz version 2.43.0 (0)
 -->
<!-- Title: MultiArrayList Pages: 1 -->
<svg width="1209pt" height="734pt"
 viewBox="0.00 0.00 1209.00 734.00" xmlns="http://www.w3.org/2000/svg" xmlns:xlink="http://www.w3.org/1999/xlink">
<g id="graph0" class="graph" transform="scale(1 1) rotate(0) translate(4 730)">
<title>MultiArrayList</title>
<polygon fill="white" stroke="transparent" points="-4,4 -4,-730 1205,-730 1205,4 -4,4"/>
<!-- start -->
<g id="node1" class="node">
<title>start</title>
<path fill="none" stroke="black" d="M695,-726C695,-726 603,-726 603,-726 597,-726 591,-720 591,-714 591,-714 591,-702 591,-702 591,-696 597,-690 603,-690 603,-690 695,-690 695,-690 701,-690 707,-696 707,-702 707,-702 707,-714 707,-714 707,-720 701,-726 695,-726"/>
<text text-anchor="middle" x="649" y="-704.3" font-family="Arial" font-size="14.00">MultiArrayList(T)</text>
</g>
<!-- init -->
<g id="node2" class="node">
<title>init</title>
<path fill="none" stroke="black" d="M717,-653C717,-653 581,-653 581,-653 575,-653 569,-647 569,-641 569,-641 569,-627 569,-627 569,-621 575,-615 581,-615 581,-615 717,-615 717,-615 723,-615 729,-621 729,-627 729,-627 729,-641 729,-641 729,-647 723,-653 717,-653"/>
<text text-anchor="middle" x="649" y="-637.8" font-family="Arial" font-size="14.00">初始化结构体</text>
<text text-anchor="middle" x="649" y="-622.8" font-family="Arial" font-size="14.00">包含bytes, len, capacity</text>
</g>
<!-- start&#45;&gt;init -->
<g id="edge1" class="edge">
<title>start&#45;&gt;init</title>
<path fill="none" stroke="black" d="M649,-689.94C649,-681.99 649,-672.31 649,-663.31"/>
<polygon fill="black" stroke="black" points="652.5,-663.2 649,-653.2 645.5,-663.2 652.5,-663.2"/>
</g>
<!-- deinit -->
<g id="node3" class="node">
<title>deinit</title>
<path fill="none" stroke="black" d="M62,-564C62,-564 12,-564 12,-564 6,-564 0,-558 0,-552 0,-552 0,-538 0,-538 0,-532 6,-526 12,-526 12,-526 62,-526 62,-526 68,-526 74,-532 74,-538 74,-538 74,-552 74,-552 74,-558 68,-564 62,-564"/>
<text text-anchor="middle" x="37" y="-548.8" font-family="Arial" font-size="14.00">deinit</text>
<text text-anchor="middle" x="37" y="-533.8" font-family="Arial" font-size="14.00">释放内存</text>
</g>
<!-- init&#45;&gt;deinit -->
<g id="edge2" class="edge">
<title>init&#45;&gt;deinit</title>
<path fill="none" stroke="black" d="M568.87,-631.13C407.29,-626.98 56.11,-615.84 38,-597 32.3,-591.08 30.61,-582.74 30.76,-574.53"/>
<polygon fill="black" stroke="black" points="34.26,-574.67 31.77,-564.37 27.29,-573.98 34.26,-574.67"/>
<text text-anchor="middle" x="88" y="-585.8" font-family="Times,serif" font-size="14.00">释放内存时调用</text>
</g>
<!-- append -->
<g id="node4" class="node">
<title>append</title>
<path fill="none" stroke="black" d="M313.5,-564C313.5,-564 192.5,-564 192.5,-564 186.5,-564 180.5,-558 180.5,-552 180.5,-552 180.5,-538 180.5,-538 180.5,-532 186.5,-526 192.5,-526 192.5,-526 313.5,-526 313.5,-526 319.5,-526 325.5,-532 325.5,-538 325.5,-538 325.5,-552 325.5,-552 325.5,-558 319.5,-564 313.5,-564"/>
<text text-anchor="middle" x="253" y="-548.8" font-family="Arial" font-size="14.00">append</text>
<text text-anchor="middle" x="253" y="-533.8" font-family="Arial" font-size="14.00">确保容量后添加元素</text>
</g>
<!-- init&#45;&gt;append -->
<g id="edge3" class="edge">
<title>init&#45;&gt;append</title>
<path fill="none" stroke="black" d="M568.74,-617.04C538.67,-610.94 504.23,-603.81 473,-597 427.53,-587.08 376.92,-575.39 335.72,-565.71"/>
<polygon fill="black" stroke="black" points="336.26,-562.24 325.73,-563.36 334.66,-569.06 336.26,-562.24"/>
<text text-anchor="middle" x="502" y="-585.8" font-family="Times,serif" font-size="14.00">添加元素</text>
</g>
<!-- insert -->
<g id="node5" class="node">
<title>insert</title>
<path fill="none" stroke="black" d="M723.5,-564C723.5,-564 574.5,-564 574.5,-564 568.5,-564 562.5,-558 562.5,-552 562.5,-552 562.5,-538 562.5,-538 562.5,-532 568.5,-526 574.5,-526 574.5,-526 723.5,-526 723.5,-526 729.5,-526 735.5,-532 735.5,-538 735.5,-538 735.5,-552 735.5,-552 735.5,-558 729.5,-564 723.5,-564"/>
<text text-anchor="middle" x="649" y="-548.8" font-family="Arial" font-size="14.00">insert</text>
<text text-anchor="middle" x="649" y="-533.8" font-family="Arial" font-size="14.00">插入元素并移动后续元素</text>
</g>
<!-- init&#45;&gt;insert -->
<g id="edge4" class="edge">
<title>init&#45;&gt;insert</title>
<path fill="none" stroke="black" d="M649,-614.97C649,-603.19 649,-587.56 649,-574.16"/>
<polygon fill="black" stroke="black" points="652.5,-574 649,-564 645.5,-574 652.5,-574"/>
<text text-anchor="middle" x="678" y="-585.8" font-family="Times,serif" font-size="14.00">插入元素</text>
</g>
<!-- remove -->
<g id="node6" class="node">
<title>remove</title>
<path fill="none" stroke="black" d="M532,-564C532,-564 356,-564 356,-564 350,-564 344,-558 344,-552 344,-552 344,-538 344,-538 344,-532 350,-526 356,-526 356,-526 532,-526 532,-526 538,-526 544,-532 544,-538 544,-538 544,-552 544,-552 544,-558 538,-564 532,-564"/>
<text text-anchor="middle" x="444" y="-548.8" font-family="Arial" font-size="14.00">swapRemove/orderedRemove</text>
<text text-anchor="middle" x="444" y="-533.8" font-family="Arial" font-size="14.00">删除元素</text>
</g>
<!-- init&#45;&gt;remove -->
<g id="edge5" class="edge">
<title>init&#45;&gt;remove</title>
<path fill="none" stroke="black" d="M606.52,-614.97C574.36,-601.33 530.03,-582.51 495.79,-567.98"/>
<polygon fill="black" stroke="black" points="496.99,-564.69 486.42,-564 494.26,-571.13 496.99,-564.69"/>
<text text-anchor="middle" x="588" y="-585.8" font-family="Times,serif" font-size="14.00">删除元素</text>
</g>
<!-- sort -->
<g id="node7" class="node">
<title>sort</title>
<path fill="none" stroke="black" d="M1162.5,-212C1162.5,-212 1067.5,-212 1067.5,-212 1061.5,-212 1055.5,-206 1055.5,-200 1055.5,-200 1055.5,-186 1055.5,-186 1055.5,-180 1061.5,-174 1067.5,-174 1067.5,-174 1162.5,-174 1162.5,-174 1168.5,-174 1174.5,-180 1174.5,-186 1174.5,-186 1174.5,-200 1174.5,-200 1174.5,-206 1168.5,-212 1162.5,-212"/>
<text text-anchor="middle" x="1115" y="-196.8" font-family="Arial" font-size="14.00">sort/sortUnstable</text>
<text text-anchor="middle" x="1115" y="-181.8" font-family="Arial" font-size="14.00">排序元素</text>
</g>
<!-- init&#45;&gt;sort -->
<g id="edge6" class="edge">
<title>init&#45;&gt;sort</title>
<path fill="none" stroke="black" d="M729.08,-632.25C801.72,-629.83 911.17,-621.85 1003,-597 1055.8,-582.71 1115,-600.7 1115,-546 1115,-546 1115,-546 1115,-281 1115,-261.55 1115,-239.65 1115,-222.69"/>
<polygon fill="black" stroke="black" points="1118.5,-222.33 1115,-212.33 1111.5,-222.33 1118.5,-222.33"/>
<text text-anchor="middle" x="1129.5" y="-409.8" font-family="Times,serif" font-size="14.00">排序</text>
</g>
<!-- slice -->
<g id="node8" class="node">
<title>slice</title>
<path fill="none" stroke="black" d="M993.5,-564C993.5,-564 886.5,-564 886.5,-564 880.5,-564 874.5,-558 874.5,-552 874.5,-552 874.5,-538 874.5,-538 874.5,-532 880.5,-526 886.5,-526 886.5,-526 993.5,-526 993.5,-526 999.5,-526 1005.5,-532 1005.5,-538 1005.5,-538 1005.5,-552 1005.5,-552 1005.5,-558 999.5,-564 993.5,-564"/>
<text text-anchor="middle" x="940" y="-548.8" font-family="Arial" font-size="14.00">slice</text>
<text text-anchor="middle" x="940" y="-533.8" font-family="Arial" font-size="14.00">获取字段指针切片</text>
</g>
<!-- init&#45;&gt;slice -->
<g id="edge7" class="edge">
<title>init&#45;&gt;slice</title>
<path fill="none" stroke="black" d="M729.23,-615.49C751.93,-610.07 776.55,-603.73 799,-597 827.52,-588.45 858.71,-577.36 884.48,-567.7"/>
<polygon fill="black" stroke="black" points="885.95,-570.89 894.07,-564.08 883.48,-564.34 885.95,-570.89"/>
<text text-anchor="middle" x="872" y="-585.8" font-family="Times,serif" font-size="14.00">获取切片</text>
</g>
<!-- clone -->
<g id="node9" class="node">
<title>clone</title>
<path fill="none" stroke="black" d="M672,-212C672,-212 622,-212 622,-212 616,-212 610,-206 610,-200 610,-200 610,-186 610,-186 610,-180 616,-174 622,-174 622,-174 672,-174 672,-174 678,-174 684,-180 684,-186 684,-186 684,-200 684,-200 684,-206 678,-212 672,-212"/>
<text text-anchor="middle" x="647" y="-196.8" font-family="Arial" font-size="14.00">clone</text>
<text text-anchor="middle" x="647" y="-181.8" font-family="Arial" font-size="14.00">复制列表</text>
</g>
<!-- init&#45;&gt;clone -->
<g id="edge8" class="edge">
<title>init&#45;&gt;clone</title>
<path fill="none" stroke="black" d="M729.24,-630.92C842.07,-625.78 1034,-607.93 1034,-546 1034,-546 1034,-546 1034,-281 1034,-212.09 797.49,-197.75 694.26,-194.78"/>
<polygon fill="black" stroke="black" points="694.2,-191.27 684.11,-194.51 694.01,-198.27 694.2,-191.27"/>
<text text-anchor="middle" x="1063" y="-409.8" font-family="Times,serif" font-size="14.00">克隆列表</text>
</g>
<!-- resize -->
<g id="node10" class="node">
<title>resize</title>
<path fill="none" stroke="black" d="M844,-564C844,-564 766,-564 766,-564 760,-564 754,-558 754,-552 754,-552 754,-538 754,-538 754,-532 760,-526 766,-526 766,-526 844,-526 844,-526 850,-526 856,-532 856,-538 856,-538 856,-552 856,-552 856,-558 850,-564 844,-564"/>
<text text-anchor="middle" x="805" y="-548.8" font-family="Arial" font-size="14.00">resize</text>
<text text-anchor="middle" x="805" y="-533.8" font-family="Arial" font-size="14.00">调整列表长度</text>
</g>
<!-- init&#45;&gt;resize -->
<g id="edge9" class="edge">
<title>init&#45;&gt;resize</title>
<path fill="none" stroke="black" d="M681.32,-614.97C705.27,-601.62 738.09,-583.31 763.91,-568.92"/>
<polygon fill="black" stroke="black" points="765.69,-571.93 772.72,-564 762.28,-565.82 765.69,-571.93"/>
<text text-anchor="middle" x="766" y="-585.8" font-family="Times,serif" font-size="14.00">调整长度</text>
</g>
<!-- set_capacity -->
<g id="node11" class="node">
<title>set_capacity</title>
<path fill="none" stroke="black" d="M599.5,-301C599.5,-301 464.5,-301 464.5,-301 458.5,-301 452.5,-295 452.5,-289 452.5,-289 452.5,-275 452.5,-275 452.5,-269 458.5,-263 464.5,-263 464.5,-263 599.5,-263 599.5,-263 605.5,-263 611.5,-269 611.5,-275 611.5,-275 611.5,-289 611.5,-289 611.5,-295 605.5,-301 599.5,-301"/>
<text text-anchor="middle" x="532" y="-285.8" font-family="Arial" font-size="14.00">setCapacity</text>
<text text-anchor="middle" x="532" y="-270.8" font-family="Arial" font-size="14.00">设置新容量并复制数据</text>
</g>
<!-- init&#45;&gt;set_capacity -->
<g id="edge10" class="edge">
<title>init&#45;&gt;set_capacity</title>
<path fill="none" stroke="black" d="M568.87,-627.09C428.3,-615.63 152,-587.8 152,-546 152,-546 152,-546 152,-369 152,-309.8 329.65,-291.35 442.01,-285.6"/>
<polygon fill="black" stroke="black" points="442.52,-289.08 452.34,-285.1 442.18,-282.09 442.52,-289.08"/>
<text text-anchor="middle" x="188" y="-453.3" font-family="Times,serif" font-size="14.00">容量不足时</text>
</g>
<!-- ensureTotalCapacity -->
<g id="node12" class="node">
<title>ensureTotalCapacity</title>
<path fill="none" stroke="black" d="M653.5,-388C653.5,-388 538.5,-388 538.5,-388 532.5,-388 526.5,-382 526.5,-376 526.5,-376 526.5,-364 526.5,-364 526.5,-358 532.5,-352 538.5,-352 538.5,-352 653.5,-352 653.5,-352 659.5,-352 665.5,-358 665.5,-364 665.5,-364 665.5,-376 665.5,-376 665.5,-382 659.5,-388 653.5,-388"/>
<text text-anchor="middle" x="596" y="-366.3" font-family="Arial" font-size="14.00">ensureTotalCapacity</text>
</g>
<!-- append&#45;&gt;ensureTotalCapacity -->
<g id="edge11" class="edge">
<title>append&#45;&gt;ensureTotalCapacity</title>
<path fill="none" stroke="black" d="M252.27,-525.97C252.35,-502.51 256.25,-461.82 280,-439 313.26,-407.04 434.11,-388.08 516.34,-378.61"/>
<polygon fill="black" stroke="black" points="516.88,-382.07 526.42,-377.48 516.09,-375.12 516.88,-382.07"/>
<text text-anchor="middle" x="309" y="-453.3" font-family="Times,serif" font-size="14.00">检查容量</text>
</g>
<!-- ensureUnusedCapacity -->
<g id="node13" class="node">
<title>ensureUnusedCapacity</title>
<path fill="none" stroke="black" d="M662.5,-475C662.5,-475 529.5,-475 529.5,-475 523.5,-475 517.5,-469 517.5,-463 517.5,-463 517.5,-451 517.5,-451 517.5,-445 523.5,-439 529.5,-439 529.5,-439 662.5,-439 662.5,-439 668.5,-439 674.5,-445 674.5,-451 674.5,-451 674.5,-463 674.5,-463 674.5,-469 668.5,-475 662.5,-475"/>
<text text-anchor="middle" x="596" y="-453.3" font-family="Arial" font-size="14.00">ensureUnusedCapacity</text>
</g>
<!-- insert&#45;&gt;ensureUnusedCapacity -->
<g id="edge14" class="edge">
<title>insert&#45;&gt;ensureUnusedCapacity</title>
<path fill="none" stroke="black" d="M637.76,-525.76C630.25,-513.58 620.27,-497.38 611.95,-483.88"/>
<polygon fill="black" stroke="black" points="614.73,-481.72 606.5,-475.04 608.77,-485.39 614.73,-481.72"/>
<text text-anchor="middle" x="655" y="-496.8" font-family="Times,serif" font-size="14.00">检查容量</text>
</g>
<!-- insertAssumeCapacity -->
<g id="node14" class="node">
<title>insertAssumeCapacity</title>
<path fill="none" stroke="black" d="M487,-475C487,-475 359,-475 359,-475 353,-475 347,-469 347,-463 347,-463 347,-451 347,-451 347,-445 353,-439 359,-439 359,-439 487,-439 487,-439 493,-439 499,-445 499,-451 499,-451 499,-463 499,-463 499,-469 493,-475 487,-475"/>
<text text-anchor="middle" x="423" y="-453.3" font-family="Arial" font-size="14.00">insertAssumeCapacity</text>
</g>
<!-- insert&#45;&gt;insertAssumeCapacity -->
<g id="edge16" class="edge">
<title>insert&#45;&gt;insertAssumeCapacity</title>
<path fill="none" stroke="black" d="M601.62,-525.97C565.35,-512.17 515.27,-493.11 477.36,-478.69"/>
<polygon fill="black" stroke="black" points="478.6,-475.41 468.01,-475.13 476.11,-481.95 478.6,-475.41"/>
<text text-anchor="middle" x="579" y="-496.8" font-family="Times,serif" font-size="14.00">执行插入</text>
</g>
<!-- sortInternal -->
<g id="node15" class="node">
<title>sortInternal</title>
<path fill="none" stroke="black" d="M1145,-123C1145,-123 1085,-123 1085,-123 1079,-123 1073,-117 1073,-111 1073,-111 1073,-99 1073,-99 1073,-93 1079,-87 1085,-87 1085,-87 1145,-87 1145,-87 1151,-87 1157,-93 1157,-99 1157,-99 1157,-111 1157,-111 1157,-117 1151,-123 1145,-123"/>
<text text-anchor="middle" x="1115" y="-101.3" font-family="Arial" font-size="14.00">sortInternal</text>
</g>
<!-- sort&#45;&gt;sortInternal -->
<g id="edge17" class="edge">
<title>sort&#45;&gt;sortInternal</title>
<path fill="none" stroke="black" d="M1115,-173.76C1115,-161.93 1115,-146.32 1115,-133.05"/>
<polygon fill="black" stroke="black" points="1118.5,-133.04 1115,-123.04 1111.5,-133.04 1118.5,-133.04"/>
<text text-anchor="middle" x="1158" y="-144.8" font-family="Times,serif" font-size="14.00">调用排序逻辑</text>
</g>
<!-- items -->
<g id="node17" class="node">
<title>items</title>
<path fill="none" stroke="black" d="M949,-475C949,-475 919,-475 919,-475 913,-475 907,-469 907,-463 907,-463 907,-451 907,-451 907,-445 913,-439 919,-439 919,-439 949,-439 949,-439 955,-439 961,-445 961,-451 961,-451 961,-463 961,-463 961,-469 955,-475 949,-475"/>
<text text-anchor="middle" x="934" y="-453.3" font-family="Arial" font-size="14.00">items</text>
</g>
<!-- slice&#45;&gt;items -->
<g id="edge19" class="edge">
<title>slice&#45;&gt;items</title>
<path fill="none" stroke="black" d="M936.36,-525.76C935.39,-520.09 934.48,-513.81 934,-508 933.39,-500.68 933.19,-492.73 933.19,-485.37"/>
<polygon fill="black" stroke="black" points="936.69,-485.19 933.3,-475.15 929.69,-485.11 936.69,-485.19"/>
<text text-anchor="middle" x="977" y="-496.8" font-family="Times,serif" font-size="14.00">获取字段数组</text>
</g>
<!-- clone&#45;&gt;ensureTotalCapacity -->
<g id="edge21" class="edge">
<title>clone&#45;&gt;ensureTotalCapacity</title>
<path fill="none" stroke="black" d="M649.08,-212.33C651.4,-240.17 652.59,-294.09 633,-334 631.21,-337.65 628.87,-341.11 626.24,-344.34"/>
<polygon fill="black" stroke="black" points="623.49,-342.16 619.23,-351.86 628.61,-346.93 623.49,-342.16"/>
<text text-anchor="middle" x="686" y="-278.3" font-family="Times,serif" font-size="14.00">分配新内存</text>
</g>
<!-- copy_data -->
<g id="node19" class="node">
<title>copy_data</title>
<path fill="none" stroke="black" d="M674.5,-123C674.5,-123 619.5,-123 619.5,-123 613.5,-123 607.5,-117 607.5,-111 607.5,-111 607.5,-99 607.5,-99 607.5,-93 613.5,-87 619.5,-87 619.5,-87 674.5,-87 674.5,-87 680.5,-87 686.5,-93 686.5,-99 686.5,-99 686.5,-111 686.5,-111 686.5,-117 680.5,-123 674.5,-123"/>
<text text-anchor="middle" x="647" y="-101.3" font-family="Arial" font-size="14.00">copy_data</text>
</g>
<!-- clone&#45;&gt;copy_data -->
<g id="edge22" class="edge">
<title>clone&#45;&gt;copy_data</title>
<path fill="none" stroke="black" d="M647,-173.76C647,-161.93 647,-146.32 647,-133.05"/>
<polygon fill="black" stroke="black" points="650.5,-133.04 647,-123.04 643.5,-133.04 650.5,-133.04"/>
<text text-anchor="middle" x="704.5" y="-144.8" font-family="Times,serif" font-size="14.00">复制所有字段数据</text>
</g>
<!-- resize&#45;&gt;ensureTotalCapacity -->
<g id="edge23" class="edge">
<title>resize&#45;&gt;ensureTotalCapacity</title>
<path fill="none" stroke="black" d="M780.71,-525.92C763.23,-512.53 739.42,-493.47 720,-475 690.13,-446.59 690.15,-431.81 658,-406 652.3,-401.43 645.93,-397.1 639.49,-393.14"/>
<polygon fill="black" stroke="black" points="641.14,-390.05 630.74,-388 637.59,-396.09 641.14,-390.05"/>
<text text-anchor="middle" x="749" y="-453.3" font-family="Times,serif" font-size="14.00">容量调整</text>
</g>
<!-- update_length -->
<g id="node20" class="node">
<title>update_length</title>
<path fill="none" stroke="black" d="M877,-475C877,-475 799,-475 799,-475 793,-475 787,-469 787,-463 787,-463 787,-451 787,-451 787,-445 793,-439 799,-439 799,-439 877,-439 877,-439 883,-439 889,-445 889,-451 889,-451 889,-463 889,-463 889,-469 883,-475 877,-475"/>
<text text-anchor="middle" x="838" y="-453.3" font-family="Arial" font-size="14.00">update_length</text>
</g>
<!-- resize&#45;&gt;update_length -->
<g id="edge24" class="edge">
<title>resize&#45;&gt;update_length</title>
<path fill="none" stroke="black" d="M812,-525.76C816.58,-513.82 822.65,-498.01 827.77,-484.66"/>
<polygon fill="black" stroke="black" points="831.15,-485.63 831.46,-475.04 824.61,-483.12 831.15,-485.63"/>
<text text-anchor="middle" x="861" y="-496.8" font-family="Times,serif" font-size="14.00">设置新长度</text>
</g>
<!-- set_capacity&#45;&gt;clone -->
<g id="edge13" class="edge">
<title>set_capacity&#45;&gt;clone</title>
<path fill="none" stroke="black" d="M544.4,-262.87C552.27,-252.32 563.17,-239.31 575,-230 582.74,-223.9 591.68,-218.44 600.57,-213.71"/>
<polygon fill="black" stroke="black" points="602.42,-216.7 609.76,-209.06 599.26,-210.45 602.42,-216.7"/>
<text text-anchor="middle" x="604" y="-233.8" font-family="Times,serif" font-size="14.00">复制数据</text>
</g>
<!-- ensureTotalCapacity&#45;&gt;set_capacity -->
<g id="edge12" class="edge">
<title>ensureTotalCapacity&#45;&gt;set_capacity</title>
<path fill="none" stroke="black" d="M576.85,-351.7C571.41,-346.3 565.69,-340.15 561,-334 555.41,-326.66 550.14,-318.14 545.67,-310.18"/>
<polygon fill="black" stroke="black" points="548.66,-308.33 540.82,-301.2 542.5,-311.66 548.66,-308.33"/>
<text text-anchor="middle" x="597" y="-322.8" font-family="Times,serif" font-size="14.00">需要扩容时</text>
</g>
<!-- ensureUnusedCapacity&#45;&gt;ensureTotalCapacity -->
<g id="edge15" class="edge">
<title>ensureUnusedCapacity&#45;&gt;ensureTotalCapacity</title>
<path fill="none" stroke="black" d="M596,-438.8C596,-427.16 596,-411.55 596,-398.24"/>
<polygon fill="black" stroke="black" points="599.5,-398.18 596,-388.18 592.5,-398.18 599.5,-398.18"/>
<text text-anchor="middle" x="625" y="-409.8" font-family="Times,serif" font-size="14.00">容量不足</text>
</g>
<!-- swap_elements -->
<g id="node16" class="node">
<title>swap_elements</title>
<path fill="none" stroke="black" d="M1158.5,-36C1158.5,-36 1071.5,-36 1071.5,-36 1065.5,-36 1059.5,-30 1059.5,-24 1059.5,-24 1059.5,-12 1059.5,-12 1059.5,-6 1065.5,0 1071.5,0 1071.5,0 1158.5,0 1158.5,0 1164.5,0 1170.5,-6 1170.5,-12 1170.5,-12 1170.5,-24 1170.5,-24 1170.5,-30 1164.5,-36 1158.5,-36"/>
<text text-anchor="middle" x="1115" y="-14.3" font-family="Arial" font-size="14.00">swap_elements</text>
</g>
<!-- sortInternal&#45;&gt;swap_elements -->
<g id="edge18" class="edge">
<title>sortInternal&#45;&gt;swap_elements</title>
<path fill="none" stroke="black" d="M1115,-86.8C1115,-75.16 1115,-59.55 1115,-46.24"/>
<polygon fill="black" stroke="black" points="1118.5,-46.18 1115,-36.18 1111.5,-46.18 1118.5,-46.18"/>
<text text-anchor="middle" x="1158" y="-57.8" font-family="Times,serif" font-size="14.00">交换元素位置</text>
</g>
<!-- field_pointers -->
<g id="node18" class="node">
<title>field_pointers</title>
<path fill="none" stroke="black" d="M970.5,-388C970.5,-388 897.5,-388 897.5,-388 891.5,-388 885.5,-382 885.5,-376 885.5,-376 885.5,-364 885.5,-364 885.5,-358 891.5,-352 897.5,-352 897.5,-352 970.5,-352 970.5,-352 976.5,-352 982.5,-358 982.5,-364 982.5,-364 982.5,-376 982.5,-376 982.5,-382 976.5,-388 970.5,-388"/>
<text text-anchor="middle" x="934" y="-366.3" font-family="Arial" font-size="14.00">field_pointers</text>
</g>
<!-- items&#45;&gt;field_pointers -->
<g id="edge20" class="edge">
<title>items&#45;&gt;field_pointers</title>
<path fill="none" stroke="black" d="M934,-438.8C934,-427.16 934,-411.55 934,-398.24"/>
<polygon fill="black" stroke="black" points="937.5,-398.18 934,-388.18 930.5,-398.18 937.5,-398.18"/>
<text text-anchor="middle" x="963" y="-409.8" font-family="Times,serif" font-size="14.00">指针转换</text>
</g>
</g>
</svg>
