<?xml version="1.0" encoding="UTF-8" standalone="no"?>
<!DOCTYPE svg PUBLIC "-//W3C//DTD SVG 1.1//EN"
 "http://www.w3.org/Graphics/SVG/1.1/DTD/svg11.dtd">
<!-- Generated by graphviz version 2.43.0 (0)
 -->
<!-- Title: GetDynamicSymbolFlowchart Pages: 1 -->
<svg width="895pt" height="309pt"
 viewBox="0.00 0.00 894.51 308.92" xmlns="http://www.w3.org/2000/svg" xmlns:xlink="http://www.w3.org/1999/xlink">
<g id="graph0" class="graph" transform="scale(1 1) rotate(0) translate(4 304.92)">
<title>GetDynamicSymbolFlowchart</title>
<polygon fill="white" stroke="transparent" points="-4,4 -4,-304.92 890.51,-304.92 890.51,4 -4,4"/>
<!-- start -->
<g id="node1" class="node">
<title>start</title>
<ellipse fill="none" stroke="black" cx="455.5" cy="-282.92" rx="76.55" ry="18"/>
<text text-anchor="middle" x="455.5" y="-280.42" font-family="Arial" font-size="10.00">开始 getDynamicSymbol()</text>
</g>
<!-- switch_arch -->
<g id="node2" class="node">
<title>switch_arch</title>
<path fill="none" stroke="black" d="M443.69,-225.79C443.69,-225.79 367.51,-212.05 367.51,-212.05 361.61,-210.99 361.61,-208.86 367.51,-207.79 367.51,-207.79 443.69,-194.05 443.69,-194.05 449.6,-192.99 461.4,-192.99 467.31,-194.05 467.31,-194.05 543.49,-207.79 543.49,-207.79 549.39,-208.86 549.39,-210.99 543.49,-212.05 543.49,-212.05 467.31,-225.79 467.31,-225.79 461.4,-226.86 449.6,-226.86 443.69,-225.79"/>
<text text-anchor="middle" x="455.5" y="-207.42" font-family="Arial" font-size="10.00">switch (builtin.cpu.arch)</text>
</g>
<!-- start&#45;&gt;switch_arch -->
<g id="edge1" class="edge">
<title>start&#45;&gt;switch_arch</title>
<path fill="none" stroke="black" d="M455.5,-264.73C455.5,-256.71 455.5,-246.97 455.5,-237.99"/>
<polygon fill="black" stroke="black" points="459,-237.95 455.5,-227.95 452,-237.95 459,-237.95"/>
</g>
<!-- return_x86 -->
<g id="node3" class="node">
<title>return_x86</title>
<path fill="none" stroke="black" d="M79,-144.92C79,-144.92 12,-144.92 12,-144.92 6,-144.92 0,-138.92 0,-132.92 0,-132.92 0,-115.92 0,-115.92 0,-109.92 6,-103.92 12,-103.92 12,-103.92 79,-103.92 79,-103.92 85,-103.92 91,-109.92 91,-115.92 91,-115.92 91,-132.92 91,-132.92 91,-138.92 85,-144.92 79,-144.92"/>
<text text-anchor="middle" x="45.5" y="-132.92" font-family="Arial" font-size="10.00">x86:</text>
<text text-anchor="middle" x="45.5" y="-121.92" font-family="Arial" font-size="10.00">嵌入x86特定汇编</text>
<text text-anchor="middle" x="45.5" y="-110.92" font-family="Arial" font-size="10.00">设置返回指针</text>
</g>
<!-- switch_arch&#45;&gt;return_x86 -->
<g id="edge2" class="edge">
<title>switch_arch&#45;&gt;return_x86</title>
<path fill="none" stroke="black" d="M399.98,-201.9C331.46,-192.58 211.41,-174.12 101.24,-145.2"/>
<polygon fill="black" stroke="black" points="101.85,-141.74 91.29,-142.55 100.05,-148.51 101.85,-141.74"/>
<text text-anchor="middle" x="236" y="-165.92" font-family="Arial" font-size="10.00">.x86</text>
</g>
<!-- return_x64 -->
<g id="node4" class="node">
<title>return_x64</title>
<path fill="none" stroke="black" d="M208,-144.92C208,-144.92 121,-144.92 121,-144.92 115,-144.92 109,-138.92 109,-132.92 109,-132.92 109,-115.92 109,-115.92 109,-109.92 115,-103.92 121,-103.92 121,-103.92 208,-103.92 208,-103.92 214,-103.92 220,-109.92 220,-115.92 220,-115.92 220,-132.92 220,-132.92 220,-138.92 214,-144.92 208,-144.92"/>
<text text-anchor="middle" x="164.5" y="-132.92" font-family="Arial" font-size="10.00">x86_64:</text>
<text text-anchor="middle" x="164.5" y="-121.92" font-family="Arial" font-size="10.00">嵌入x64 RIP相对寻址</text>
<text text-anchor="middle" x="164.5" y="-110.92" font-family="Arial" font-size="10.00">设置返回指针</text>
</g>
<!-- switch_arch&#45;&gt;return_x64 -->
<g id="edge3" class="edge">
<title>switch_arch&#45;&gt;return_x64</title>
<path fill="none" stroke="black" d="M418.07,-198.63C374.96,-186.71 301.73,-166.3 229.98,-145.33"/>
<polygon fill="black" stroke="black" points="230.91,-141.96 220.33,-142.51 228.94,-148.68 230.91,-141.96"/>
<text text-anchor="middle" x="346" y="-165.92" font-family="Arial" font-size="10.00">.x86_64</text>
</g>
<!-- return_arm -->
<g id="node5" class="node">
<title>return_arm</title>
<path fill="none" stroke="black" d="M369,-144.92C369,-144.92 250,-144.92 250,-144.92 244,-144.92 238,-138.92 238,-132.92 238,-132.92 238,-115.92 238,-115.92 238,-109.92 244,-103.92 250,-103.92 250,-103.92 369,-103.92 369,-103.92 375,-103.92 381,-109.92 381,-115.92 381,-115.92 381,-132.92 381,-132.92 381,-138.92 375,-144.92 369,-144.92"/>
<text text-anchor="middle" x="309.5" y="-132.92" font-family="Arial" font-size="10.00">ARM系列:</text>
<text text-anchor="middle" x="309.5" y="-121.92" font-family="Arial" font-size="10.00">LDR+ADD指令绕过偏移限制</text>
<text text-anchor="middle" x="309.5" y="-110.92" font-family="Arial" font-size="10.00">设置返回指针</text>
</g>
<!-- switch_arch&#45;&gt;return_arm -->
<g id="edge4" class="edge">
<title>switch_arch&#45;&gt;return_arm</title>
<path fill="none" stroke="black" d="M430.46,-196.36C417.78,-189.87 402.2,-181.69 388.5,-173.92 375.55,-166.57 361.63,-158.2 349.15,-150.5"/>
<polygon fill="black" stroke="black" points="350.69,-147.34 340.35,-145.04 347,-153.29 350.69,-147.34"/>
<text text-anchor="middle" x="420" y="-165.92" font-family="Arial" font-size="10.00">.arm/.thumb等</text>
</g>
<!-- return_aarch64 -->
<g id="node6" class="node">
<title>return_aarch64</title>
<path fill="none" stroke="black" d="M499.5,-144.92C499.5,-144.92 411.5,-144.92 411.5,-144.92 405.5,-144.92 399.5,-138.92 399.5,-132.92 399.5,-132.92 399.5,-115.92 399.5,-115.92 399.5,-109.92 405.5,-103.92 411.5,-103.92 411.5,-103.92 499.5,-103.92 499.5,-103.92 505.5,-103.92 511.5,-109.92 511.5,-115.92 511.5,-115.92 511.5,-132.92 511.5,-132.92 511.5,-138.92 505.5,-144.92 499.5,-144.92"/>
<text text-anchor="middle" x="455.5" y="-132.92" font-family="Arial" font-size="10.00">AArch64:</text>
<text text-anchor="middle" x="455.5" y="-121.92" font-family="Arial" font-size="10.00">ADRP+ADD指令组合</text>
<text text-anchor="middle" x="455.5" y="-110.92" font-family="Arial" font-size="10.00">设置返回指针</text>
</g>
<!-- switch_arch&#45;&gt;return_aarch64 -->
<g id="edge5" class="edge">
<title>switch_arch&#45;&gt;return_aarch64</title>
<path fill="none" stroke="black" d="M455.5,-191.62C455.5,-181.13 455.5,-167.45 455.5,-155.26"/>
<polygon fill="black" stroke="black" points="459,-155.04 455.5,-145.04 452,-155.04 459,-155.04"/>
<text text-anchor="middle" x="474.5" y="-165.92" font-family="Arial" font-size="10.00">.aarch64</text>
</g>
<!-- return_csky -->
<g id="node7" class="node">
<title>return_csky</title>
<path fill="none" stroke="black" d="M653.5,-144.92C653.5,-144.92 541.5,-144.92 541.5,-144.92 535.5,-144.92 529.5,-138.92 529.5,-132.92 529.5,-132.92 529.5,-115.92 529.5,-115.92 529.5,-109.92 535.5,-103.92 541.5,-103.92 541.5,-103.92 653.5,-103.92 653.5,-103.92 659.5,-103.92 665.5,-109.92 665.5,-115.92 665.5,-115.92 665.5,-132.92 665.5,-132.92 665.5,-138.92 659.5,-144.92 653.5,-144.92"/>
<text text-anchor="middle" x="597.5" y="-132.92" font-family="Arial" font-size="10.00">CSKY:</text>
<text text-anchor="middle" x="597.5" y="-121.92" font-family="Arial" font-size="10.00">通过gb寄存器获取GOT首项</text>
<text text-anchor="middle" x="597.5" y="-110.92" font-family="Arial" font-size="10.00">设置返回指针</text>
</g>
<!-- switch_arch&#45;&gt;return_csky -->
<g id="edge6" class="edge">
<title>switch_arch&#45;&gt;return_csky</title>
<path fill="none" stroke="black" d="M477.69,-195.88C498.41,-183.69 529.89,-165.18 555.38,-150.19"/>
<polygon fill="black" stroke="black" points="557.27,-153.14 564.12,-145.05 553.72,-147.1 557.27,-153.14"/>
<text text-anchor="middle" x="544" y="-165.92" font-family="Arial" font-size="10.00">.csky</text>
</g>
<!-- other_arch -->
<g id="node8" class="node">
<title>other_arch</title>
<path fill="none" stroke="black" d="M763.5,-142.42C763.5,-142.42 695.5,-142.42 695.5,-142.42 689.5,-142.42 683.5,-136.42 683.5,-130.42 683.5,-130.42 683.5,-118.42 683.5,-118.42 683.5,-112.42 689.5,-106.42 695.5,-106.42 695.5,-106.42 763.5,-106.42 763.5,-106.42 769.5,-106.42 775.5,-112.42 775.5,-118.42 775.5,-118.42 775.5,-130.42 775.5,-130.42 775.5,-136.42 769.5,-142.42 763.5,-142.42"/>
<text text-anchor="middle" x="729.5" y="-127.42" font-family="Arial" font-size="10.00">其他架构分支</text>
<text text-anchor="middle" x="729.5" y="-116.42" font-family="Arial" font-size="10.00">(共15个处理分支)</text>
</g>
<!-- switch_arch&#45;&gt;other_arch -->
<g id="edge7" class="edge">
<title>switch_arch&#45;&gt;other_arch</title>
<path fill="none" stroke="black" d="M493.29,-198.58C535.13,-186.97 604.75,-167.2 673.64,-145.13"/>
<polygon fill="black" stroke="black" points="674.91,-148.39 683.35,-142 672.76,-141.73 674.91,-148.39"/>
<text text-anchor="middle" x="645" y="-165.92" font-family="Arial" font-size="10.00">其他支持架构</text>
</g>
<!-- compile_error -->
<g id="node9" class="node">
<title>compile_error</title>
<path fill="none" stroke="black" d="M886.51,-19.8C886.51,-19.8 886.51,-26.13 886.51,-26.13 886.51,-29.29 883.49,-33.38 880.46,-34.31 880.46,-34.31 848.62,-44.03 848.62,-44.03 845.6,-44.96 839.41,-45.88 836.24,-45.88 836.24,-45.88 786.76,-45.88 786.76,-45.88 783.59,-45.88 777.4,-44.96 774.38,-44.03 774.38,-44.03 742.54,-34.31 742.54,-34.31 739.51,-33.38 736.49,-29.29 736.49,-26.13 736.49,-26.13 736.49,-19.8 736.49,-19.8 736.49,-16.63 739.51,-12.54 742.54,-11.62 742.54,-11.62 774.38,-1.89 774.38,-1.89 777.4,-0.96 783.59,-0.04 786.76,-0.04 786.76,-0.04 836.24,-0.04 836.24,-0.04 839.41,-0.04 845.6,-0.96 848.62,-1.89 848.62,-1.89 880.46,-11.62 880.46,-11.62 883.49,-12.54 886.51,-16.63 886.51,-19.8"/>
<text text-anchor="middle" x="811.5" y="-25.96" font-family="Arial" font-size="10.00">@compileError</text>
<text text-anchor="middle" x="811.5" y="-14.96" font-family="Arial" font-size="10.00">(PIE不支持此目标)</text>
</g>
<!-- switch_arch&#45;&gt;compile_error -->
<g id="edge8" class="edge">
<title>switch_arch&#45;&gt;compile_error</title>
<path fill="none" stroke="black" d="M525.87,-204.59C611.73,-197.77 749.76,-181.35 784.5,-144.92 806.92,-121.42 812.28,-83.57 812.92,-56.47"/>
<polygon fill="black" stroke="black" points="816.42,-56.32 812.95,-46.31 809.42,-56.29 816.42,-56.32"/>
<text text-anchor="middle" x="816" y="-121.92" font-family="Arial" font-size="10.00">else</text>
</g>
<!-- return_result -->
<g id="node10" class="node">
<title>return_result</title>
<ellipse fill="none" stroke="black" cx="401.5" cy="-22.96" rx="57.2" ry="18"/>
<text text-anchor="middle" x="401.5" y="-20.46" font-family="Arial" font-size="10.00">返回[*]elf.Dyn指针</text>
</g>
<!-- return_x86&#45;&gt;return_result -->
<g id="edge9" class="edge">
<title>return_x86&#45;&gt;return_result</title>
<path fill="none" stroke="black" d="M91.07,-106.65C93.91,-105.7 96.74,-104.78 99.5,-103.92 185.32,-77.12 286.63,-51.5 347.38,-36.77"/>
<polygon fill="black" stroke="black" points="348.24,-40.16 357.14,-34.41 346.6,-33.36 348.24,-40.16"/>
</g>
<!-- return_x64&#45;&gt;return_result -->
<g id="edge10" class="edge">
<title>return_x64&#45;&gt;return_result</title>
<path fill="none" stroke="black" d="M211.04,-103.89C254.06,-85.84 317.45,-59.23 359.1,-41.75"/>
<polygon fill="black" stroke="black" points="360.55,-44.94 368.42,-37.84 357.84,-38.49 360.55,-44.94"/>
</g>
<!-- return_arm&#45;&gt;return_result -->
<g id="edge11" class="edge">
<title>return_arm&#45;&gt;return_result</title>
<path fill="none" stroke="black" d="M327.68,-103.77C342.48,-87.77 363.44,-65.1 379.25,-48.02"/>
<polygon fill="black" stroke="black" points="381.89,-50.32 386.11,-40.6 376.75,-45.56 381.89,-50.32"/>
</g>
<!-- return_aarch64&#45;&gt;return_result -->
<g id="edge12" class="edge">
<title>return_aarch64&#45;&gt;return_result</title>
<path fill="none" stroke="black" d="M444.83,-103.77C436.43,-88.3 424.65,-66.59 415.49,-49.72"/>
<polygon fill="black" stroke="black" points="418.56,-48.04 410.71,-40.92 412.4,-51.38 418.56,-48.04"/>
</g>
<!-- return_csky&#45;&gt;return_result -->
<g id="edge13" class="edge">
<title>return_csky&#45;&gt;return_result</title>
<path fill="none" stroke="black" d="M558.78,-103.77C524.21,-86.23 473.87,-60.69 439.52,-43.25"/>
<polygon fill="black" stroke="black" points="440.78,-39.97 430.28,-38.57 437.61,-46.21 440.78,-39.97"/>
</g>
<!-- other_arch&#45;&gt;return_result -->
<g id="edge14" class="edge">
<title>other_arch&#45;&gt;return_result</title>
<path fill="none" stroke="black" d="M683.35,-106.85C680.36,-105.84 677.39,-104.86 674.5,-103.92 597.97,-79.17 508.32,-53.55 453.22,-38.18"/>
<polygon fill="black" stroke="black" points="453.92,-34.74 443.35,-35.43 452.04,-41.49 453.92,-34.74"/>
<text text-anchor="middle" x="645" y="-77.92" font-family="Arial" font-size="10.00">每个架构对应</text>
<text text-anchor="middle" x="645" y="-66.92" font-family="Arial" font-size="10.00">特定汇编实现</text>
</g>
</g>
</svg>
