<?xml version="1.0" encoding="UTF-8" standalone="no"?>
<!DOCTYPE svg PUBLIC "-//W3C//DTD SVG 1.1//EN"
 "http://www.w3.org/Graphics/SVG/1.1/DTD/svg11.dtd">
<!-- Generated by graphviz version 2.43.0 (0)
 -->
<!-- Title: PriorityQueue Pages: 1 -->
<svg width="1917pt" height="534pt"
 viewBox="0.00 0.00 1917.00 534.00" xmlns="http://www.w3.org/2000/svg" xmlns:xlink="http://www.w3.org/1999/xlink">
<g id="graph0" class="graph" transform="scale(1 1) rotate(0) translate(4 530)">
<title>PriorityQueue</title>
<polygon fill="white" stroke="transparent" points="-4,4 -4,-530 1913,-530 1913,4 -4,4"/>
<g id="clust1" class="cluster">
<title>cluster_memory</title>
<polygon fill="none" stroke="black" points="350,-8 350,-351 1032,-351 1032,-8 350,-8"/>
<text text-anchor="middle" x="691" y="-335.8" font-family="Times,serif" font-size="14.00">Memory Management</text>
</g>
<g id="clust2" class="cluster">
<title>cluster_core</title>
<polygon fill="none" stroke="black" points="1040,-189 1040,-518 1775,-518 1775,-189 1040,-189"/>
<text text-anchor="middle" x="1407.5" y="-502.8" font-family="Times,serif" font-size="14.00">Core Operations</text>
</g>
<g id="clust3" class="cluster">
<title>cluster_init</title>
<polygon fill="none" stroke="black" points="8,-8 8,-156 342,-156 342,-8 8,-8"/>
<text text-anchor="middle" x="175" y="-140.8" font-family="Times,serif" font-size="14.00">Initialization</text>
</g>
<!-- init -->
<g id="node1" class="node">
<title>init</title>
<polygon fill="lightblue" stroke="black" points="248,-125 74,-125 74,-89 248,-89 248,-125"/>
<text text-anchor="middle" x="161" y="-103.3" font-family="Times,serif" font-size="14.00">init(allocator, context)</text>
</g>
<!-- fromOwnedSlice -->
<g id="node3" class="node">
<title>fromOwnedSlice</title>
<polygon fill="lightblue" stroke="black" points="333.5,-52 16.5,-52 16.5,-16 333.5,-16 333.5,-52"/>
<text text-anchor="middle" x="175" y="-30.3" font-family="Times,serif" font-size="14.00">fromOwnedSlice(allocator, items, context)</text>
</g>
<!-- init&#45;&gt;fromOwnedSlice -->
<g id="edge1" class="edge">
<title>init&#45;&gt;fromOwnedSlice</title>
<path fill="none" stroke="black" stroke-dasharray="1,5" d="M164.39,-88.81C165.97,-80.79 167.89,-71.05 169.66,-62.07"/>
<polygon fill="black" stroke="black" points="173.14,-62.52 171.64,-52.03 166.27,-61.16 173.14,-62.52"/>
</g>
<!-- deinit -->
<g id="node2" class="node">
<title>deinit</title>
<polygon fill="lightblue" stroke="black" points="334,-125 266,-125 266,-89 334,-89 334,-125"/>
<text text-anchor="middle" x="300" y="-103.3" font-family="Times,serif" font-size="14.00">deinit()</text>
</g>
<!-- allocatedSlice -->
<g id="node20" class="node">
<title>allocatedSlice</title>
<polygon fill="lightblue" stroke="black" points="561,-52 435,-52 435,-16 561,-16 561,-52"/>
<text text-anchor="middle" x="498" y="-30.3" font-family="Times,serif" font-size="14.00">allocatedSlice()</text>
</g>
<!-- deinit&#45;&gt;allocatedSlice -->
<g id="edge2" class="edge">
<title>deinit&#45;&gt;allocatedSlice</title>
<path fill="none" stroke="black" d="M334.15,-93.33C338.14,-91.86 342.16,-90.39 346,-89 376.85,-77.82 411.31,-65.56 439.61,-55.55"/>
<polygon fill="black" stroke="black" points="441.08,-58.74 449.34,-52.11 438.75,-52.14 441.08,-58.74"/>
</g>
<!-- ensureTotalCapacity -->
<g id="node4" class="node">
<title>ensureTotalCapacity</title>
<polygon fill="lightblue" stroke="black" points="995.5,-233 726.5,-233 726.5,-197 995.5,-197 995.5,-233"/>
<text text-anchor="middle" x="861" y="-211.3" font-family="Times,serif" font-size="14.00">ensureTotalCapacity(new_capacity)</text>
</g>
<!-- ensureTotalCapacityPrecise -->
<g id="node5" class="node">
<title>ensureTotalCapacityPrecise</title>
<polygon fill="lightblue" stroke="black" points="964.5,-125 643.5,-125 643.5,-89 964.5,-89 964.5,-125"/>
<text text-anchor="middle" x="804" y="-103.3" font-family="Times,serif" font-size="14.00">ensureTotalCapacityPrecise(new_capacity)</text>
</g>
<!-- ensureTotalCapacity&#45;&gt;ensureTotalCapacityPrecise -->
<g id="edge5" class="edge">
<title>ensureTotalCapacity&#45;&gt;ensureTotalCapacityPrecise</title>
<path fill="none" stroke="black" d="M851.84,-196.97C842.76,-180.07 828.7,-153.94 818.17,-134.36"/>
<polygon fill="black" stroke="black" points="821.14,-132.49 813.32,-125.34 814.98,-135.81 821.14,-132.49"/>
<text text-anchor="middle" x="874.5" y="-167.8" font-family="Times,serif" font-size="14.00">if needed</text>
</g>
<!-- ensureTotalCapacityPrecise&#45;&gt;allocatedSlice -->
<g id="edge16" class="edge">
<title>ensureTotalCapacityPrecise&#45;&gt;allocatedSlice</title>
<path fill="none" stroke="black" d="M730.71,-88.99C682.32,-77.77 619.18,-63.12 570.88,-51.91"/>
<polygon fill="black" stroke="black" points="571.65,-48.5 561.12,-49.65 570.07,-55.32 571.65,-48.5"/>
</g>
<!-- ensureUnusedCapacity -->
<g id="node6" class="node">
<title>ensureUnusedCapacity</title>
<polygon fill="lightblue" stroke="black" points="1023.5,-320 712.5,-320 712.5,-284 1023.5,-284 1023.5,-320"/>
<text text-anchor="middle" x="868" y="-298.3" font-family="Times,serif" font-size="14.00">ensureUnusedCapacity(additional_count)</text>
</g>
<!-- ensureUnusedCapacity&#45;&gt;ensureTotalCapacity -->
<g id="edge4" class="edge">
<title>ensureUnusedCapacity&#45;&gt;ensureTotalCapacity</title>
<path fill="none" stroke="black" d="M866.58,-283.8C865.63,-272.16 864.34,-256.55 863.24,-243.24"/>
<polygon fill="black" stroke="black" points="866.72,-242.85 862.41,-233.18 859.75,-243.43 866.72,-242.85"/>
</g>
<!-- shrinkAndFree -->
<g id="node7" class="node">
<title>shrinkAndFree</title>
<polygon fill="lightblue" stroke="black" points="612,-125 384,-125 384,-89 612,-89 612,-125"/>
<text text-anchor="middle" x="498" y="-103.3" font-family="Times,serif" font-size="14.00">shrinkAndFree(new_capacity)</text>
</g>
<!-- shrinkAndFree&#45;&gt;allocatedSlice -->
<g id="edge17" class="edge">
<title>shrinkAndFree&#45;&gt;allocatedSlice</title>
<path fill="none" stroke="black" d="M498,-88.81C498,-80.79 498,-71.05 498,-62.07"/>
<polygon fill="black" stroke="black" points="501.5,-62.03 498,-52.03 494.5,-62.03 501.5,-62.03"/>
</g>
<!-- clearRetainingCapacity -->
<g id="node8" class="node">
<title>clearRetainingCapacity</title>
<polygon fill="lightblue" stroke="black" points="694,-320 500,-320 500,-284 694,-284 694,-320"/>
<text text-anchor="middle" x="597" y="-298.3" font-family="Times,serif" font-size="14.00">clearRetainingCapacity()</text>
</g>
<!-- clearAndFree -->
<g id="node9" class="node">
<title>clearAndFree</title>
<polygon fill="lightblue" stroke="black" points="481.5,-320 358.5,-320 358.5,-284 481.5,-284 481.5,-320"/>
<text text-anchor="middle" x="420" y="-298.3" font-family="Times,serif" font-size="14.00">clearAndFree()</text>
</g>
<!-- add -->
<g id="node10" class="node">
<title>add</title>
<polygon fill="lightblue" stroke="black" points="1136,-414 1048,-414 1048,-378 1136,-378 1136,-414"/>
<text text-anchor="middle" x="1092" y="-392.3" font-family="Times,serif" font-size="14.00">add(elem)</text>
</g>
<!-- add&#45;&gt;ensureUnusedCapacity -->
<g id="edge3" class="edge">
<title>add&#45;&gt;ensureUnusedCapacity</title>
<path fill="none" stroke="black" d="M1050.39,-377.91C1013.26,-362.66 958.77,-340.28 919.02,-323.96"/>
<polygon fill="black" stroke="black" points="920.34,-320.71 909.76,-320.15 917.68,-327.19 920.34,-320.71"/>
</g>
<!-- addUnchecked -->
<g id="node11" class="node">
<title>addUnchecked</title>
<polygon fill="lightblue" stroke="black" points="1214.5,-320 1047.5,-320 1047.5,-284 1214.5,-284 1214.5,-320"/>
<text text-anchor="middle" x="1131" y="-298.3" font-family="Times,serif" font-size="14.00">addUnchecked(elem)</text>
</g>
<!-- add&#45;&gt;addUnchecked -->
<g id="edge6" class="edge">
<title>add&#45;&gt;addUnchecked</title>
<path fill="none" stroke="black" d="M1099.34,-377.7C1105.06,-364.2 1113.1,-345.23 1119.65,-329.78"/>
<polygon fill="black" stroke="black" points="1123.02,-330.8 1123.7,-320.23 1116.57,-328.07 1123.02,-330.8"/>
</g>
<!-- siftUp -->
<g id="node12" class="node">
<title>siftUp</title>
<polygon fill="lightblue" stroke="black" points="1326,-233 1174,-233 1174,-197 1326,-197 1326,-233"/>
<text text-anchor="middle" x="1250" y="-211.3" font-family="Times,serif" font-size="14.00">siftUp(start_index)</text>
</g>
<!-- addUnchecked&#45;&gt;siftUp -->
<g id="edge7" class="edge">
<title>addUnchecked&#45;&gt;siftUp</title>
<path fill="none" stroke="black" d="M1081.59,-283.78C1064.65,-275.17 1052.33,-263.85 1063,-251 1076.21,-235.09 1121.23,-226.37 1163.79,-221.61"/>
<polygon fill="black" stroke="black" points="1164.38,-225.07 1173.96,-220.54 1163.65,-218.11 1164.38,-225.07"/>
</g>
<!-- compareFn -->
<g id="node22" class="node">
<title>compareFn</title>
<polygon fill="lightblue" stroke="black" points="1422.5,-125 1325.5,-125 1325.5,-89 1422.5,-89 1422.5,-125"/>
<text text-anchor="middle" x="1374" y="-103.3" font-family="Times,serif" font-size="14.00">compareFn</text>
</g>
<!-- siftUp&#45;&gt;compareFn -->
<g id="edge18" class="edge">
<title>siftUp&#45;&gt;compareFn</title>
<path fill="none" stroke="black" d="M1269.92,-196.97C1290.5,-179.38 1322.78,-151.78 1345.94,-131.99"/>
<polygon fill="black" stroke="black" points="1348.39,-134.5 1353.71,-125.34 1343.84,-129.18 1348.39,-134.5"/>
</g>
<!-- addSlice -->
<g id="node13" class="node">
<title>addSlice</title>
<polygon fill="lightblue" stroke="black" points="1282,-414 1154,-414 1154,-378 1282,-378 1282,-414"/>
<text text-anchor="middle" x="1218" y="-392.3" font-family="Times,serif" font-size="14.00">addSlice(items)</text>
</g>
<!-- addSlice&#45;&gt;addUnchecked -->
<g id="edge8" class="edge">
<title>addSlice&#45;&gt;addUnchecked</title>
<path fill="none" stroke="black" d="M1201.64,-377.7C1188.27,-363.56 1169.21,-343.41 1154.26,-327.59"/>
<polygon fill="black" stroke="black" points="1156.7,-325.09 1147.29,-320.23 1151.62,-329.9 1156.7,-325.09"/>
</g>
<!-- peek -->
<g id="node14" class="node">
<title>peek</title>
<polygon fill="lightblue" stroke="black" points="1735.5,-487 1674.5,-487 1674.5,-451 1735.5,-451 1735.5,-487"/>
<text text-anchor="middle" x="1705" y="-465.3" font-family="Times,serif" font-size="14.00">peek()</text>
</g>
<!-- removeOrNull -->
<g id="node15" class="node">
<title>removeOrNull</title>
<polygon fill="lightblue" stroke="black" points="1625,-487 1497,-487 1497,-451 1625,-451 1625,-487"/>
<text text-anchor="middle" x="1561" y="-465.3" font-family="Times,serif" font-size="14.00">removeOrNull()</text>
</g>
<!-- remove -->
<g id="node16" class="node">
<title>remove</title>
<polygon fill="lightblue" stroke="black" points="1601,-414 1521,-414 1521,-378 1601,-378 1601,-414"/>
<text text-anchor="middle" x="1561" y="-392.3" font-family="Times,serif" font-size="14.00">remove()</text>
</g>
<!-- removeOrNull&#45;&gt;remove -->
<g id="edge9" class="edge">
<title>removeOrNull&#45;&gt;remove</title>
<path fill="none" stroke="black" d="M1561,-450.81C1561,-442.79 1561,-433.05 1561,-424.07"/>
<polygon fill="black" stroke="black" points="1564.5,-424.03 1561,-414.03 1557.5,-424.03 1564.5,-424.03"/>
</g>
<!-- removeIndex -->
<g id="node17" class="node">
<title>removeIndex</title>
<polygon fill="lightblue" stroke="black" points="1640.5,-320 1481.5,-320 1481.5,-284 1640.5,-284 1640.5,-320"/>
<text text-anchor="middle" x="1561" y="-298.3" font-family="Times,serif" font-size="14.00">removeIndex(index)</text>
</g>
<!-- remove&#45;&gt;removeIndex -->
<g id="edge10" class="edge">
<title>remove&#45;&gt;removeIndex</title>
<path fill="none" stroke="black" d="M1561,-377.7C1561,-364.46 1561,-345.95 1561,-330.66"/>
<polygon fill="black" stroke="black" points="1564.5,-330.23 1561,-320.23 1557.5,-330.23 1564.5,-330.23"/>
</g>
<!-- removeIndex&#45;&gt;siftUp -->
<g id="edge12" class="edge">
<title>removeIndex&#45;&gt;siftUp</title>
<path fill="none" stroke="black" d="M1481.2,-286.14C1462.55,-281.1 1443.13,-274.51 1426,-266 1416.36,-261.21 1416.72,-255.62 1407,-251 1385.04,-240.56 1359.86,-233.17 1336.19,-227.97"/>
<polygon fill="black" stroke="black" points="1336.65,-224.49 1326.15,-225.87 1335.22,-231.34 1336.65,-224.49"/>
<text text-anchor="middle" x="1480.5" y="-254.8" font-family="Times,serif" font-size="14.00">if last &lt; parent</text>
</g>
<!-- siftDown -->
<g id="node18" class="node">
<title>siftDown</title>
<polygon fill="lightblue" stroke="black" points="1588.5,-233 1407.5,-233 1407.5,-197 1588.5,-197 1588.5,-233"/>
<text text-anchor="middle" x="1498" y="-211.3" font-family="Times,serif" font-size="14.00">siftDown(target_index)</text>
</g>
<!-- removeIndex&#45;&gt;siftDown -->
<g id="edge11" class="edge">
<title>removeIndex&#45;&gt;siftDown</title>
<path fill="none" stroke="black" d="M1555.6,-283.78C1551.91,-273.63 1546.36,-260.89 1539,-251 1536.15,-247.16 1532.8,-243.47 1529.28,-240"/>
<polygon fill="black" stroke="black" points="1531.62,-237.41 1521.87,-233.26 1526.91,-242.58 1531.62,-237.41"/>
<text text-anchor="middle" x="1596" y="-254.8" font-family="Times,serif" font-size="14.00">if index == 0</text>
</g>
<!-- removeIndex&#45;&gt;siftDown -->
<g id="edge13" class="edge">
<title>removeIndex&#45;&gt;siftDown</title>
<path fill="none" stroke="black" d="M1628.77,-283.95C1647.13,-276 1659.21,-265.12 1648,-251 1640.8,-241.93 1621.3,-234.99 1598.64,-229.77"/>
<polygon fill="black" stroke="black" points="1599.28,-226.33 1588.77,-227.65 1597.81,-233.17 1599.28,-226.33"/>
<text text-anchor="middle" x="1696.5" y="-254.8" font-family="Times,serif" font-size="14.00">default case</text>
</g>
<!-- siftDown&#45;&gt;compareFn -->
<g id="edge19" class="edge">
<title>siftDown&#45;&gt;compareFn</title>
<path fill="none" stroke="black" d="M1478.08,-196.97C1457.5,-179.38 1425.22,-151.78 1402.06,-131.99"/>
<polygon fill="black" stroke="black" points="1404.16,-129.18 1394.29,-125.34 1399.61,-134.5 1404.16,-129.18"/>
</g>
<!-- update -->
<g id="node19" class="node">
<title>update</title>
<polygon fill="lightblue" stroke="black" points="1423.5,-320 1232.5,-320 1232.5,-284 1423.5,-284 1423.5,-320"/>
<text text-anchor="middle" x="1328" y="-298.3" font-family="Times,serif" font-size="14.00">update(elem, new_elem)</text>
</g>
<!-- update&#45;&gt;siftUp -->
<g id="edge14" class="edge">
<title>update&#45;&gt;siftUp</title>
<path fill="none" stroke="black" d="M1232.46,-285.36C1229.27,-284.9 1226.11,-284.44 1223,-284 1189.98,-279.33 1096.12,-290.96 1074,-266 1043.18,-231.23 1105.05,-219.87 1163.75,-216.52"/>
<polygon fill="black" stroke="black" points="1164.07,-220.01 1173.88,-216.02 1163.72,-213.02 1164.07,-220.01"/>
<text text-anchor="middle" x="1151.5" y="-254.8" font-family="Times,serif" font-size="14.00">new_elem &lt; old_elem</text>
</g>
<!-- update&#45;&gt;siftDown -->
<g id="edge15" class="edge">
<title>update&#45;&gt;siftDown</title>
<path fill="none" stroke="black" d="M1271.42,-283.79C1253.27,-275.4 1240.51,-264.24 1252,-251 1257,-245.24 1331.62,-235.15 1397.37,-227.29"/>
<polygon fill="black" stroke="black" points="1397.9,-230.75 1407.42,-226.09 1397.07,-223.8 1397.9,-230.75"/>
<text text-anchor="middle" x="1329.5" y="-254.8" font-family="Times,serif" font-size="14.00">new_elem &gt; old_elem</text>
</g>
<!-- Iterator -->
<g id="node21" class="node">
<title>Iterator</title>
<polygon fill="lightblue" stroke="black" points="1887,-487 1815,-487 1815,-451 1887,-451 1887,-487"/>
<text text-anchor="middle" x="1851" y="-465.3" font-family="Times,serif" font-size="14.00">Iterator</text>
</g>
<!-- next -->
<g id="node23" class="node">
<title>next</title>
<polygon fill="lightblue" stroke="black" points="1909,-414 1855,-414 1855,-378 1909,-378 1909,-414"/>
<text text-anchor="middle" x="1882" y="-392.3" font-family="Times,serif" font-size="14.00">next</text>
</g>
<!-- Iterator&#45;&gt;next -->
<g id="edge20" class="edge">
<title>Iterator&#45;&gt;next</title>
<path fill="none" stroke="black" d="M1858.5,-450.81C1862.08,-442.62 1866.45,-432.62 1870.44,-423.48"/>
<polygon fill="black" stroke="black" points="1873.77,-424.59 1874.56,-414.03 1867.36,-421.79 1873.77,-424.59"/>
</g>
<!-- reset -->
<g id="node24" class="node">
<title>reset</title>
<polygon fill="lightblue" stroke="black" points="1837,-414 1783,-414 1783,-378 1837,-378 1837,-414"/>
<text text-anchor="middle" x="1810" y="-392.3" font-family="Times,serif" font-size="14.00">reset</text>
</g>
<!-- Iterator&#45;&gt;reset -->
<g id="edge21" class="edge">
<title>Iterator&#45;&gt;reset</title>
<path fill="none" stroke="black" d="M1841.08,-450.81C1836.24,-442.44 1830.33,-432.2 1824.96,-422.9"/>
<polygon fill="black" stroke="black" points="1827.87,-420.94 1819.83,-414.03 1821.8,-424.44 1827.87,-420.94"/>
</g>
</g>
</svg>
