<?xml version="1.0" encoding="UTF-8" standalone="no"?>
<!DOCTYPE svg PUBLIC "-//W3C//DTD SVG 1.1//EN"
 "http://www.w3.org/Graphics/SVG/1.1/DTD/svg11.dtd">
<!-- Generated by graphviz version 2.43.0 (0)
 -->
<!-- Title: flowchart Pages: 1 -->
<svg width="536pt" height="867pt"
 viewBox="0.00 0.00 536.00 867.00" xmlns="http://www.w3.org/2000/svg" xmlns:xlink="http://www.w3.org/1999/xlink">
<g id="graph0" class="graph" transform="scale(1 1) rotate(0) translate(4 863)">
<title>flowchart</title>
<polygon fill="white" stroke="transparent" points="-4,4 -4,-863 532,-863 532,4 -4,4"/>
<g id="clust1" class="cluster">
<title>cluster_main</title>
<polygon fill="none" stroke="black" points="8,-8 8,-851 520,-851 520,-8 8,-8"/>
<text text-anchor="middle" x="264" y="-835.8" font-family="Times,serif" font-size="14.00">处理内联汇编渲染流程</text>
</g>
<!-- start -->
<g id="node1" class="node">
<title>start</title>
<path fill="none" stroke="black" d="M395.5,-820C395.5,-820 294.5,-820 294.5,-820 288.5,-820 282.5,-814 282.5,-808 282.5,-808 282.5,-796 282.5,-796 282.5,-790 288.5,-784 294.5,-784 294.5,-784 395.5,-784 395.5,-784 401.5,-784 407.5,-790 407.5,-796 407.5,-796 407.5,-808 407.5,-808 407.5,-814 401.5,-820 395.5,-820"/>
<text text-anchor="middle" x="345" y="-798.3" font-family="Helvetica,sans-Serif" font-size="14.00">开始 renderAsm</text>
</g>
<!-- check_volatile -->
<g id="node3" class="node">
<title>check_volatile</title>
<path fill="none" stroke="black" d="M421,-733C421,-733 269,-733 269,-733 263,-733 257,-727 257,-721 257,-721 257,-709 257,-709 257,-703 263,-697 269,-697 269,-697 421,-697 421,-697 427,-697 433,-703 433,-709 433,-709 433,-721 433,-721 433,-727 427,-733 421,-733"/>
<text text-anchor="middle" x="345" y="-711.3" font-family="Helvetica,sans-Serif" font-size="14.00">volatile_token是否存在?</text>
</g>
<!-- start&#45;&gt;check_volatile -->
<g id="edge1" class="edge">
<title>start&#45;&gt;check_volatile</title>
<path fill="none" stroke="black" d="M345,-783.8C345,-772.16 345,-756.55 345,-743.24"/>
<polygon fill="black" stroke="black" points="348.5,-743.18 345,-733.18 341.5,-743.18 348.5,-743.18"/>
<text text-anchor="middle" x="392" y="-754.8" font-family="Helvetica,sans-Serif" font-size="14.00">渲染&#39;asm&#39;标记</text>
</g>
<!-- end -->
<g id="node2" class="node">
<title>end</title>
<ellipse fill="none" stroke="black" cx="247" cy="-34" rx="29.5" ry="18"/>
<text text-anchor="middle" x="247" y="-30.3" font-family="Helvetica,sans-Serif" font-size="14.00">结束</text>
</g>
<!-- volatile_yes -->
<g id="node4" class="node">
<title>volatile_yes</title>
<path fill="none" stroke="black" d="M334,-646C334,-646 206,-646 206,-646 200,-646 194,-640 194,-634 194,-634 194,-622 194,-622 194,-616 200,-610 206,-610 206,-610 334,-610 334,-610 340,-610 346,-616 346,-622 346,-622 346,-634 346,-634 346,-640 340,-646 334,-646"/>
<text text-anchor="middle" x="270" y="-624.3" font-family="Helvetica,sans-Serif" font-size="14.00">渲染volatile和左括号</text>
</g>
<!-- check_volatile&#45;&gt;volatile_yes -->
<g id="edge2" class="edge">
<title>check_volatile&#45;&gt;volatile_yes</title>
<path fill="none" stroke="black" d="M329.82,-696.8C318.95,-684.47 304.13,-667.68 291.96,-653.89"/>
<polygon fill="black" stroke="black" points="294.4,-651.36 285.15,-646.18 289.15,-655.99 294.4,-651.36"/>
<text text-anchor="middle" x="318.5" y="-667.8" font-family="Helvetica,sans-Serif" font-size="14.00">是</text>
</g>
<!-- volatile_no -->
<g id="node5" class="node">
<title>volatile_no</title>
<path fill="none" stroke="black" d="M468,-646C468,-646 376,-646 376,-646 370,-646 364,-640 364,-634 364,-634 364,-622 364,-622 364,-616 370,-610 376,-610 376,-610 468,-610 468,-610 474,-610 480,-616 480,-622 480,-622 480,-634 480,-634 480,-640 474,-646 468,-646"/>
<text text-anchor="middle" x="422" y="-624.3" font-family="Helvetica,sans-Serif" font-size="14.00">直接渲染左括号</text>
</g>
<!-- check_volatile&#45;&gt;volatile_no -->
<g id="edge3" class="edge">
<title>check_volatile&#45;&gt;volatile_no</title>
<path fill="none" stroke="black" d="M360.58,-696.8C371.75,-684.47 386.96,-667.68 399.45,-653.89"/>
<polygon fill="black" stroke="black" points="402.32,-655.94 406.44,-646.18 397.13,-651.24 402.32,-655.94"/>
<text text-anchor="middle" x="395.5" y="-667.8" font-family="Helvetica,sans-Serif" font-size="14.00">否</text>
</g>
<!-- check_empty_items -->
<g id="node6" class="node">
<title>check_empty_items</title>
<path fill="none" stroke="black" d="M442,-573C442,-573 236,-573 236,-573 230,-573 224,-567 224,-561 224,-561 224,-549 224,-549 224,-543 230,-537 236,-537 236,-537 442,-537 442,-537 448,-537 454,-543 454,-549 454,-549 454,-561 454,-561 454,-567 448,-573 442,-573"/>
<text text-anchor="middle" x="339" y="-551.3" font-family="Helvetica,sans-Serif" font-size="14.00">asm_node.ast.items.len == 0?</text>
</g>
<!-- volatile_yes&#45;&gt;check_empty_items -->
<g id="edge4" class="edge">
<title>volatile_yes&#45;&gt;check_empty_items</title>
<path fill="none" stroke="black" d="M286.7,-609.81C295.26,-601 305.84,-590.13 315.23,-580.46"/>
<polygon fill="black" stroke="black" points="317.99,-582.64 322.45,-573.03 312.97,-577.76 317.99,-582.64"/>
</g>
<!-- volatile_no&#45;&gt;check_empty_items -->
<g id="edge5" class="edge">
<title>volatile_no&#45;&gt;check_empty_items</title>
<path fill="none" stroke="black" d="M401.91,-609.81C391.31,-600.74 378.13,-589.48 366.59,-579.6"/>
<polygon fill="black" stroke="black" points="368.78,-576.87 358.91,-573.03 364.23,-582.19 368.78,-576.87"/>
</g>
<!-- empty_handling -->
<g id="node7" class="node">
<title>empty_handling</title>
<path fill="none" stroke="black" d="M310,-432C310,-432 260,-432 260,-432 254,-432 248,-426 248,-420 248,-420 248,-408 248,-408 248,-402 254,-396 260,-396 260,-396 310,-396 310,-396 316,-396 322,-402 322,-408 322,-408 322,-420 322,-420 322,-426 316,-432 310,-432"/>
<text text-anchor="middle" x="285" y="-410.3" font-family="Helvetica,sans-Serif" font-size="14.00">处理空项</text>
</g>
<!-- check_empty_items&#45;&gt;empty_handling -->
<g id="edge6" class="edge">
<title>check_empty_items&#45;&gt;empty_handling</title>
<path fill="none" stroke="black" d="M332.38,-536.96C323.15,-513.2 306.32,-469.88 295.4,-441.78"/>
<polygon fill="black" stroke="black" points="298.56,-440.24 291.68,-432.18 292.03,-442.77 298.56,-440.24"/>
<text text-anchor="middle" x="332.5" y="-507.8" font-family="Helvetica,sans-Serif" font-size="14.00">是</text>
</g>
<!-- non_empty_handling -->
<g id="node8" class="node">
<title>non_empty_handling</title>
<path fill="none" stroke="black" d="M424,-486C424,-486 360,-486 360,-486 354,-486 348,-480 348,-474 348,-474 348,-462 348,-462 348,-456 354,-450 360,-450 360,-450 424,-450 424,-450 430,-450 436,-456 436,-462 436,-462 436,-474 436,-474 436,-480 430,-486 424,-486"/>
<text text-anchor="middle" x="392" y="-464.3" font-family="Helvetica,sans-Serif" font-size="14.00">处理非空项</text>
</g>
<!-- check_empty_items&#45;&gt;non_empty_handling -->
<g id="edge7" class="edge">
<title>check_empty_items&#45;&gt;non_empty_handling</title>
<path fill="none" stroke="black" d="M349.73,-536.8C357.27,-524.7 367.49,-508.3 376,-494.67"/>
<polygon fill="black" stroke="black" points="378.97,-496.51 381.29,-486.18 373.03,-492.81 378.97,-496.51"/>
<text text-anchor="middle" x="375.5" y="-507.8" font-family="Helvetica,sans-Serif" font-size="14.00">否</text>
</g>
<!-- check_first_clobber -->
<g id="node9" class="node">
<title>check_first_clobber</title>
<path fill="none" stroke="black" d="M318.5,-302C318.5,-302 175.5,-302 175.5,-302 169.5,-302 163.5,-296 163.5,-290 163.5,-290 163.5,-278 163.5,-278 163.5,-272 169.5,-266 175.5,-266 175.5,-266 318.5,-266 318.5,-266 324.5,-266 330.5,-272 330.5,-278 330.5,-278 330.5,-290 330.5,-290 330.5,-296 324.5,-302 318.5,-302"/>
<text text-anchor="middle" x="247" y="-280.3" font-family="Helvetica,sans-Serif" font-size="14.00">first_clobber是否存在?</text>
</g>
<!-- empty_handling&#45;&gt;check_first_clobber -->
<g id="edge8" class="edge">
<title>empty_handling&#45;&gt;check_first_clobber</title>
<path fill="none" stroke="black" d="M279.88,-395.74C273.5,-374.27 262.55,-337.36 255.05,-312.1"/>
<polygon fill="black" stroke="black" points="258.37,-310.99 252.17,-302.4 251.66,-312.98 258.37,-310.99"/>
</g>
<!-- process_outputs -->
<g id="node14" class="node">
<title>process_outputs</title>
<path fill="none" stroke="black" d="M478,-378C478,-378 336,-378 336,-378 330,-378 324,-372 324,-366 324,-366 324,-352 324,-352 324,-346 330,-340 336,-340 336,-340 478,-340 478,-340 484,-340 490,-346 490,-352 490,-352 490,-366 490,-366 490,-372 484,-378 478,-378"/>
<text text-anchor="middle" x="407" y="-362.8" font-family="Helvetica,sans-Serif" font-size="14.00">处理输出部分(outputs)</text>
<text text-anchor="middle" x="407" y="-347.8" font-family="Helvetica,sans-Serif" font-size="14.00">循环渲染每个输出项</text>
</g>
<!-- non_empty_handling&#45;&gt;process_outputs -->
<g id="edge15" class="edge">
<title>non_empty_handling&#45;&gt;process_outputs</title>
<path fill="none" stroke="black" d="M394.41,-449.81C396.73,-433.26 400.28,-407.94 403.02,-388.39"/>
<polygon fill="black" stroke="black" points="406.52,-388.61 404.45,-378.22 399.59,-387.64 406.52,-388.61"/>
</g>
<!-- clobber_case -->
<g id="node10" class="node">
<title>clobber_case</title>
<path fill="none" stroke="black" d="M137.5,-214C137.5,-214 28.5,-214 28.5,-214 22.5,-214 16.5,-208 16.5,-202 16.5,-202 16.5,-188 16.5,-188 16.5,-182 22.5,-176 28.5,-176 28.5,-176 137.5,-176 137.5,-176 143.5,-176 149.5,-182 149.5,-188 149.5,-188 149.5,-202 149.5,-202 149.5,-208 143.5,-214 137.5,-214"/>
<text text-anchor="middle" x="83" y="-198.8" font-family="Helvetica,sans-Serif" font-size="14.00">渲染模板和三冒号</text>
<text text-anchor="middle" x="83" y="-183.8" font-family="Helvetica,sans-Serif" font-size="14.00">循环处理clobbers</text>
</g>
<!-- check_first_clobber&#45;&gt;clobber_case -->
<g id="edge9" class="edge">
<title>check_first_clobber&#45;&gt;clobber_case</title>
<path fill="none" stroke="black" d="M214.6,-265.81C189.27,-252.38 153.83,-233.57 126.11,-218.87"/>
<polygon fill="black" stroke="black" points="127.5,-215.65 117.03,-214.05 124.22,-221.83 127.5,-215.65"/>
<text text-anchor="middle" x="181.5" y="-235.8" font-family="Helvetica,sans-Serif" font-size="14.00">是</text>
</g>
<!-- no_clobber_case -->
<g id="node11" class="node">
<title>no_clobber_case</title>
<path fill="none" stroke="black" d="M314.5,-213C314.5,-213 179.5,-213 179.5,-213 173.5,-213 167.5,-207 167.5,-201 167.5,-201 167.5,-189 167.5,-189 167.5,-183 173.5,-177 179.5,-177 179.5,-177 314.5,-177 314.5,-177 320.5,-177 326.5,-183 326.5,-189 326.5,-189 326.5,-201 326.5,-201 326.5,-207 320.5,-213 314.5,-213"/>
<text text-anchor="middle" x="247" y="-191.3" font-family="Helvetica,sans-Serif" font-size="14.00">直接渲染模板和右括号</text>
</g>
<!-- check_first_clobber&#45;&gt;no_clobber_case -->
<g id="edge10" class="edge">
<title>check_first_clobber&#45;&gt;no_clobber_case</title>
<path fill="none" stroke="black" d="M247,-265.81C247,-253.66 247,-237.11 247,-223.18"/>
<polygon fill="black" stroke="black" points="250.5,-223.15 247,-213.15 243.5,-223.15 250.5,-223.15"/>
<text text-anchor="middle" x="254.5" y="-235.8" font-family="Helvetica,sans-Serif" font-size="14.00">否</text>
</g>
<!-- end_clobber -->
<g id="node12" class="node">
<title>end_clobber</title>
<path fill="none" stroke="black" d="M169.5,-125C169.5,-125 92.5,-125 92.5,-125 86.5,-125 80.5,-119 80.5,-113 80.5,-113 80.5,-101 80.5,-101 80.5,-95 86.5,-89 92.5,-89 92.5,-89 169.5,-89 169.5,-89 175.5,-89 181.5,-95 181.5,-101 181.5,-101 181.5,-113 181.5,-113 181.5,-119 175.5,-125 169.5,-125"/>
<text text-anchor="middle" x="131" y="-103.3" font-family="Helvetica,sans-Serif" font-size="14.00">end_clobber</text>
</g>
<!-- clobber_case&#45;&gt;end_clobber -->
<g id="edge11" class="edge">
<title>clobber_case&#45;&gt;end_clobber</title>
<path fill="none" stroke="black" d="M93.18,-175.76C99.98,-163.58 109.02,-147.38 116.56,-133.88"/>
<polygon fill="black" stroke="black" points="119.67,-135.48 121.49,-125.04 113.56,-132.07 119.67,-135.48"/>
<text text-anchor="middle" x="168.5" y="-146.8" font-family="Helvetica,sans-Serif" font-size="14.00">遇到右括号时结束</text>
</g>
<!-- end_empty -->
<g id="node13" class="node">
<title>end_empty</title>
<path fill="none" stroke="black" d="M282,-125C282,-125 212,-125 212,-125 206,-125 200,-119 200,-113 200,-113 200,-101 200,-101 200,-95 206,-89 212,-89 212,-89 282,-89 282,-89 288,-89 294,-95 294,-101 294,-101 294,-113 294,-113 294,-119 288,-125 282,-125"/>
<text text-anchor="middle" x="247" y="-103.3" font-family="Helvetica,sans-Serif" font-size="14.00">end_empty</text>
</g>
<!-- no_clobber_case&#45;&gt;end_empty -->
<g id="edge12" class="edge">
<title>no_clobber_case&#45;&gt;end_empty</title>
<path fill="none" stroke="black" d="M247,-176.6C247,-164.75 247,-148.82 247,-135.29"/>
<polygon fill="black" stroke="black" points="250.5,-135.08 247,-125.08 243.5,-135.08 250.5,-135.08"/>
<text text-anchor="middle" x="283" y="-146.8" font-family="Helvetica,sans-Serif" font-size="14.00">渲染右括号</text>
</g>
<!-- end_clobber&#45;&gt;end -->
<g id="edge13" class="edge">
<title>end_clobber&#45;&gt;end</title>
<path fill="none" stroke="black" d="M152.93,-88.99C170.75,-77.32 195.91,-61.96 215.81,-50.6"/>
<polygon fill="black" stroke="black" points="217.53,-53.65 224.53,-45.69 214.1,-47.55 217.53,-53.65"/>
</g>
<!-- end_clobber&#45;&gt;end -->
<!-- end_empty&#45;&gt;end -->
<g id="edge14" class="edge">
<title>end_empty&#45;&gt;end</title>
<path fill="none" stroke="black" d="M241.12,-88.81C240.28,-80.79 240.05,-71.05 240.42,-62.07"/>
<polygon fill="black" stroke="black" points="243.92,-62.25 241.14,-52.03 236.94,-61.75 243.92,-62.25"/>
</g>
<!-- end_empty&#45;&gt;end -->
<!-- process_inputs -->
<g id="node15" class="node">
<title>process_inputs</title>
<path fill="none" stroke="black" d="M493,-303C493,-303 361,-303 361,-303 355,-303 349,-297 349,-291 349,-291 349,-277 349,-277 349,-271 355,-265 361,-265 361,-265 493,-265 493,-265 499,-265 505,-271 505,-277 505,-277 505,-291 505,-291 505,-297 499,-303 493,-303"/>
<text text-anchor="middle" x="427" y="-287.8" font-family="Helvetica,sans-Serif" font-size="14.00">处理输入部分(inputs)</text>
<text text-anchor="middle" x="427" y="-272.8" font-family="Helvetica,sans-Serif" font-size="14.00">循环渲染每个输入项</text>
</g>
<!-- process_outputs&#45;&gt;process_inputs -->
<g id="edge16" class="edge">
<title>process_outputs&#45;&gt;process_inputs</title>
<path fill="none" stroke="black" d="M411.94,-339.96C414.18,-331.8 416.87,-321.97 419.36,-312.89"/>
<polygon fill="black" stroke="black" points="422.78,-313.66 422.04,-303.09 416.03,-311.81 422.78,-313.66"/>
</g>
<!-- process_clobbers -->
<g id="node16" class="node">
<title>process_clobbers</title>
<path fill="none" stroke="black" d="M500,-214C500,-214 356,-214 356,-214 350,-214 344,-208 344,-202 344,-202 344,-188 344,-188 344,-182 350,-176 356,-176 356,-176 500,-176 500,-176 506,-176 512,-182 512,-188 512,-188 512,-202 512,-202 512,-208 506,-214 500,-214"/>
<text text-anchor="middle" x="428" y="-198.8" font-family="Helvetica,sans-Serif" font-size="14.00">处理clobbers部分</text>
<text text-anchor="middle" x="428" y="-183.8" font-family="Helvetica,sans-Serif" font-size="14.00">循环渲染每个clobber项</text>
</g>
<!-- process_inputs&#45;&gt;process_clobbers -->
<g id="edge17" class="edge">
<title>process_inputs&#45;&gt;process_clobbers</title>
<path fill="none" stroke="black" d="M427.21,-264.97C427.34,-253.19 427.52,-237.56 427.68,-224.16"/>
<polygon fill="black" stroke="black" points="431.18,-224.04 427.79,-214 424.18,-223.96 431.18,-224.04"/>
</g>
<!-- end_non_empty -->
<g id="node17" class="node">
<title>end_non_empty</title>
<path fill="none" stroke="black" d="M453.5,-125C453.5,-125 350.5,-125 350.5,-125 344.5,-125 338.5,-119 338.5,-113 338.5,-113 338.5,-101 338.5,-101 338.5,-95 344.5,-89 350.5,-89 350.5,-89 453.5,-89 453.5,-89 459.5,-89 465.5,-95 465.5,-101 465.5,-101 465.5,-113 465.5,-113 465.5,-119 459.5,-125 453.5,-125"/>
<text text-anchor="middle" x="402" y="-103.3" font-family="Helvetica,sans-Serif" font-size="14.00">end_non_empty</text>
</g>
<!-- process_clobbers&#45;&gt;end_non_empty -->
<g id="edge18" class="edge">
<title>process_clobbers&#45;&gt;end_non_empty</title>
<path fill="none" stroke="black" d="M422.49,-175.76C418.87,-163.82 414.09,-148.01 410.06,-134.66"/>
<polygon fill="black" stroke="black" points="413.4,-133.6 407.15,-125.04 406.7,-135.63 413.4,-133.6"/>
<text text-anchor="middle" x="452" y="-146.8" font-family="Helvetica,sans-Serif" font-size="14.00">渲染右括号</text>
</g>
<!-- end_non_empty&#45;&gt;end -->
<g id="edge19" class="edge">
<title>end_non_empty&#45;&gt;end</title>
<path fill="none" stroke="black" d="M364.87,-88.99C338.78,-77.04 304.22,-61.21 279.27,-49.78"/>
<polygon fill="black" stroke="black" points="280.44,-46.47 269.89,-45.49 277.52,-52.83 280.44,-46.47"/>
</g>
</g>
</svg>
