<?xml version="1.0" encoding="UTF-8" standalone="no"?>
<!DOCTYPE svg PUBLIC "-//W3C//DTD SVG 1.1//EN"
 "http://www.w3.org/Graphics/SVG/1.1/DTD/svg11.dtd">
<!-- Generated by graphviz version 2.43.0 (0)
 -->
<!-- Title: flowchart Pages: 1 -->
<svg width="817pt" height="543pt"
 viewBox="0.00 0.00 816.65 543.00" xmlns="http://www.w3.org/2000/svg" xmlns:xlink="http://www.w3.org/1999/xlink">
<g id="graph0" class="graph" transform="scale(1 1) rotate(0) translate(4 539)">
<title>flowchart</title>
<polygon fill="white" stroke="transparent" points="-4,4 -4,-539 812.65,-539 812.65,4 -4,4"/>
<!-- start -->
<g id="node1" class="node">
<title>start</title>
<path fill="none" stroke="black" d="M691.65,-535C691.65,-535 467.65,-535 467.65,-535 461.65,-535 455.65,-529 455.65,-523 455.65,-523 455.65,-511 455.65,-511 455.65,-505 461.65,-499 467.65,-499 467.65,-499 691.65,-499 691.65,-499 697.65,-499 703.65,-505 703.65,-511 703.65,-511 703.65,-523 703.65,-523 703.65,-529 697.65,-535 691.65,-535"/>
<text text-anchor="middle" x="579.65" y="-513.3" font-family="Helvetica,sans-Serif" font-size="14.00">Start: nodeImpliesComptimeOnly</text>
</g>
<!-- loop -->
<g id="node2" class="node">
<title>loop</title>
<path fill="none" stroke="black" d="M636.65,-462C636.65,-462 522.65,-462 522.65,-462 516.65,-462 510.65,-456 510.65,-450 510.65,-450 510.65,-438 510.65,-438 510.65,-432 516.65,-426 522.65,-426 522.65,-426 636.65,-426 636.65,-426 642.65,-426 648.65,-432 648.65,-438 648.65,-438 648.65,-450 648.65,-450 648.65,-456 642.65,-462 636.65,-462"/>
<text text-anchor="middle" x="579.65" y="-440.3" font-family="Helvetica,sans-Serif" font-size="14.00">Loop: while (true)</text>
</g>
<!-- start&#45;&gt;loop -->
<g id="edge1" class="edge">
<title>start&#45;&gt;loop</title>
<path fill="none" stroke="black" d="M579.65,-498.81C579.65,-490.79 579.65,-481.05 579.65,-472.07"/>
<polygon fill="black" stroke="black" points="583.15,-472.03 579.65,-462.03 576.15,-472.03 583.15,-472.03"/>
</g>
<!-- switch_node -->
<g id="node3" class="node">
<title>switch_node</title>
<path fill="none" stroke="black" d="M406.65,-389C406.65,-389 218.65,-389 218.65,-389 212.65,-389 206.65,-383 206.65,-377 206.65,-377 206.65,-365 206.65,-365 206.65,-359 212.65,-353 218.65,-353 218.65,-353 406.65,-353 406.65,-353 412.65,-353 418.65,-359 418.65,-365 418.65,-365 418.65,-377 418.65,-377 418.65,-383 412.65,-389 406.65,-389"/>
<text text-anchor="middle" x="312.65" y="-367.3" font-family="Helvetica,sans-Serif" font-size="14.00">Switch (tree.nodeTag(node))</text>
</g>
<!-- loop&#45;&gt;switch_node -->
<g id="edge2" class="edge">
<title>loop&#45;&gt;switch_node</title>
<path fill="none" stroke="black" d="M515.7,-425.99C476.93,-415.68 427.31,-402.49 386.82,-391.72"/>
<polygon fill="black" stroke="black" points="387.57,-388.3 377,-389.11 385.77,-395.07 387.57,-388.3"/>
</g>
<!-- return_true -->
<g id="node4" class="node">
<title>return_true</title>
<ellipse fill="none" stroke="black" cx="228.65" cy="-18" rx="61.99" ry="18"/>
<text text-anchor="middle" x="228.65" y="-14.3" font-family="Helvetica,sans-Serif" font-size="14.00">Return true</text>
</g>
<!-- switch_node&#45;&gt;return_true -->
<g id="edge4" class="edge">
<title>switch_node&#45;&gt;return_true</title>
<path fill="none" stroke="black" d="M387.98,-352.76C395.67,-348.17 402.52,-342.35 407.65,-335 431.5,-300.8 535.75,-240.47 363.65,-54 353.62,-43.13 322.41,-34.66 292.52,-28.78"/>
<polygon fill="black" stroke="black" points="292.94,-25.3 282.47,-26.89 291.65,-32.18 292.94,-25.3"/>
<text text-anchor="middle" x="518.15" y="-219.8" font-family="Helvetica,sans-Serif" font-size="14.00">.fn_proto_simple</text>
<text text-anchor="middle" x="518.15" y="-204.8" font-family="Helvetica,sans-Serif" font-size="14.00">.fn_proto_multi</text>
<text text-anchor="middle" x="518.15" y="-189.8" font-family="Helvetica,sans-Serif" font-size="14.00">.fn_proto_one</text>
<text text-anchor="middle" x="518.15" y="-174.8" font-family="Helvetica,sans-Serif" font-size="14.00">.fn_proto</text>
</g>
<!-- return_false -->
<g id="node5" class="node">
<title>return_false</title>
<ellipse fill="none" stroke="black" cx="70.65" cy="-18" rx="64.99" ry="18"/>
<text text-anchor="middle" x="70.65" y="-14.3" font-family="Helvetica,sans-Serif" font-size="14.00">Return false</text>
</g>
<!-- switch_node&#45;&gt;return_false -->
<g id="edge3" class="edge">
<title>switch_node&#45;&gt;return_false</title>
<path fill="none" stroke="black" d="M206.61,-358.78C174.55,-353.54 139.65,-345.95 108.65,-335 67.37,-320.42 48.05,-322.65 22.65,-287 -30.81,-211.99 24.93,-95.89 54.6,-44.71"/>
<polygon fill="black" stroke="black" points="57.71,-46.33 59.8,-35.94 51.69,-42.76 57.71,-46.33"/>
<text text-anchor="middle" x="61.65" y="-204.8" font-family="Helvetica,sans-Serif" font-size="14.00">All .xxx cases</text>
<text text-anchor="middle" x="61.65" y="-189.8" font-family="Helvetica,sans-Serif" font-size="14.00">with return false</text>
</g>
<!-- handle_forward -->
<g id="node6" class="node">
<title>handle_forward</title>
<path fill="none" stroke="black" d="M735.15,-287C735.15,-287 554.15,-287 554.15,-287 548.15,-287 542.15,-281 542.15,-275 542.15,-275 542.15,-261 542.15,-261 542.15,-255 548.15,-249 554.15,-249 554.15,-249 735.15,-249 735.15,-249 741.15,-249 747.15,-255 747.15,-261 747.15,-261 747.15,-275 747.15,-275 747.15,-281 741.15,-287 735.15,-287"/>
<text text-anchor="middle" x="644.65" y="-271.8" font-family="Helvetica,sans-Serif" font-size="14.00">Update node to LHS</text>
<text text-anchor="middle" x="644.65" y="-256.8" font-family="Helvetica,sans-Serif" font-size="14.00">(node = tree.nodeData(...))</text>
</g>
<!-- switch_node&#45;&gt;handle_forward -->
<g id="edge5" class="edge">
<title>switch_node&#45;&gt;handle_forward</title>
<path fill="none" stroke="black" d="M396.75,-352.92C409.4,-348.28 421.81,-342.42 432.65,-335 446.51,-325.51 441.35,-313.82 455.65,-305 478.47,-290.93 505.55,-282.15 531.98,-276.72"/>
<polygon fill="black" stroke="black" points="532.9,-280.1 542.07,-274.79 531.59,-273.23 532.9,-280.1"/>
<text text-anchor="middle" x="589.65" y="-323.8" font-family="Helvetica,sans-Serif" font-size="14.00">.try/.await/.comptime/.nosuspend</text>
<text text-anchor="middle" x="589.65" y="-308.8" font-family="Helvetica,sans-Serif" font-size="14.00">.grouped_expression/.unwrap_optional</text>
</g>
<!-- handle_identifier -->
<g id="node7" class="node">
<title>handle_identifier</title>
<path fill="none" stroke="black" d="M181.15,-286C181.15,-286 44.15,-286 44.15,-286 38.15,-286 32.15,-280 32.15,-274 32.15,-274 32.15,-262 32.15,-262 32.15,-256 38.15,-250 44.15,-250 44.15,-250 181.15,-250 181.15,-250 187.15,-250 193.15,-256 193.15,-262 193.15,-262 193.15,-274 193.15,-274 193.15,-280 187.15,-286 181.15,-286"/>
<text text-anchor="middle" x="112.65" y="-264.3" font-family="Helvetica,sans-Serif" font-size="14.00">Check identifier type</text>
</g>
<!-- switch_node&#45;&gt;handle_identifier -->
<g id="edge7" class="edge">
<title>switch_node&#45;&gt;handle_identifier</title>
<path fill="none" stroke="black" d="M206.47,-360.23C171.7,-354.92 138.84,-346.91 126.65,-335 116.47,-325.05 112.8,-309.68 111.75,-296.27"/>
<polygon fill="black" stroke="black" points="115.24,-295.95 111.4,-286.08 108.25,-296.19 115.24,-295.95"/>
<text text-anchor="middle" x="160.15" y="-316.3" font-family="Helvetica,sans-Serif" font-size="14.00">.identifier</text>
</g>
<!-- unreachable -->
<g id="node9" class="node">
<title>unreachable</title>
<ellipse fill="none" stroke="black" stroke-dasharray="5,2" cx="277.65" cy="-268" rx="66.09" ry="18"/>
<text text-anchor="middle" x="277.65" y="-264.3" font-family="Helvetica,sans-Serif" font-size="14.00">unreachable</text>
</g>
<!-- switch_node&#45;&gt;unreachable -->
<g id="edge11" class="edge">
<title>switch_node&#45;&gt;unreachable</title>
<path fill="none" stroke="black" stroke-dasharray="5,2" d="M223.82,-352.9C216.01,-348.25 209.03,-342.39 203.65,-335 195.79,-324.23 196.58,-316.3 203.65,-305 208.54,-297.17 215.69,-291 223.62,-286.15"/>
<polygon fill="black" stroke="black" points="225.33,-289.21 232.48,-281.39 222.02,-283.04 225.33,-289.21"/>
<text text-anchor="middle" x="305.65" y="-323.8" font-family="Helvetica,sans-Serif" font-size="14.00">Unreachable cases</text>
<text text-anchor="middle" x="305.65" y="-308.8" font-family="Helvetica,sans-Serif" font-size="14.00">(.root, .usingnamespace, etc)</text>
</g>
<!-- handle_forward&#45;&gt;loop -->
<g id="edge6" class="edge">
<title>handle_forward&#45;&gt;loop</title>
<path fill="none" stroke="black" d="M704.83,-287.1C712.28,-291.78 718.92,-297.65 723.65,-305 730.86,-316.21 729.61,-323.07 723.65,-335 703.91,-374.47 662.13,-403.26 628.63,-421.14"/>
<polygon fill="black" stroke="black" points="626.7,-418.2 619.43,-425.9 629.92,-424.42 626.7,-418.2"/>
<text text-anchor="middle" x="760.15" y="-367.3" font-family="Helvetica,sans-Serif" font-size="14.00">Continue loop</text>
</g>
<!-- ident_primitive_check -->
<g id="node8" class="node">
<title>ident_primitive_check</title>
<path fill="none" stroke="black" d="M308.15,-153C308.15,-153 43.15,-153 43.15,-153 37.15,-153 31.15,-147 31.15,-141 31.15,-141 31.15,-129 31.15,-129 31.15,-123 37.15,-117 43.15,-117 43.15,-117 308.15,-117 308.15,-117 314.15,-117 320.15,-123 320.15,-129 320.15,-129 320.15,-141 320.15,-141 320.15,-147 314.15,-153 308.15,-153"/>
<text text-anchor="middle" x="175.65" y="-131.3" font-family="Helvetica,sans-Serif" font-size="14.00">Check primitive_instrs.get(ident_bytes)</text>
</g>
<!-- handle_identifier&#45;&gt;ident_primitive_check -->
<g id="edge8" class="edge">
<title>handle_identifier&#45;&gt;ident_primitive_check</title>
<path fill="none" stroke="black" d="M120.88,-249.87C131.59,-227.61 150.4,-188.51 162.94,-162.43"/>
<polygon fill="black" stroke="black" points="166.23,-163.66 167.41,-153.13 159.92,-160.63 166.23,-163.66"/>
</g>
<!-- ident_primitive_check&#45;&gt;return_true -->
<g id="edge9" class="edge">
<title>ident_primitive_check&#45;&gt;return_true</title>
<path fill="none" stroke="black" d="M186.68,-116.86C190.07,-111.27 193.69,-104.97 196.65,-99 205.21,-81.74 213.26,-61.6 219.14,-45.85"/>
<polygon fill="black" stroke="black" points="222.52,-46.79 222.67,-36.2 215.95,-44.38 222.52,-46.79"/>
<text text-anchor="middle" x="287.15" y="-87.8" font-family="Helvetica,sans-Serif" font-size="14.00">comptime_float_type</text>
<text text-anchor="middle" x="287.15" y="-72.8" font-family="Helvetica,sans-Serif" font-size="14.00">comptime_int_type</text>
<text text-anchor="middle" x="287.15" y="-57.8" font-family="Helvetica,sans-Serif" font-size="14.00">type_type</text>
</g>
<!-- ident_primitive_check&#45;&gt;return_false -->
<g id="edge10" class="edge">
<title>ident_primitive_check&#45;&gt;return_false</title>
<path fill="none" stroke="black" d="M100.4,-117C92.06,-112.37 84.48,-106.48 78.65,-99 67.24,-84.37 65.52,-63.37 66.51,-46.56"/>
<polygon fill="black" stroke="black" points="70.03,-46.5 67.47,-36.22 63.06,-45.86 70.03,-46.5"/>
<text text-anchor="middle" x="135.65" y="-80.3" font-family="Helvetica,sans-Serif" font-size="14.00">Other primitives</text>
<text text-anchor="middle" x="135.65" y="-65.3" font-family="Helvetica,sans-Serif" font-size="14.00">or no match</text>
</g>
</g>
</svg>
