<?xml version="1.0" encoding="UTF-8" standalone="no"?>
<!DOCTYPE svg PUBLIC "-//W3C//DTD SVG 1.1//EN"
 "http://www.w3.org/Graphics/SVG/1.1/DTD/svg11.dtd">
<!-- Generated by graphviz version 2.43.0 (0)
 -->
<!-- Title: flowchart Pages: 1 -->
<svg width="822pt" height="1209pt"
 viewBox="0.00 0.00 821.50 1209.00" xmlns="http://www.w3.org/2000/svg" xmlns:xlink="http://www.w3.org/1999/xlink">
<g id="graph0" class="graph" transform="scale(1 1) rotate(0) translate(4 1205)">
<title>flowchart</title>
<polygon fill="white" stroke="transparent" points="-4,4 -4,-1205 817.5,-1205 817.5,4 -4,4"/>
<!-- start -->
<g id="node1" class="node">
<title>start</title>
<path fill="none" stroke="black" d="M725.5,-1201C725.5,-1201 595.5,-1201 595.5,-1201 589.5,-1201 583.5,-1195 583.5,-1189 583.5,-1189 583.5,-1177 583.5,-1177 583.5,-1171 589.5,-1165 595.5,-1165 595.5,-1165 725.5,-1165 725.5,-1165 731.5,-1165 737.5,-1171 737.5,-1177 737.5,-1177 737.5,-1189 737.5,-1189 737.5,-1195 731.5,-1201 725.5,-1201"/>
<text text-anchor="middle" x="660.5" y="-1179.3" font-family="Helvetica,sans-Serif" font-size="14.00">开始 unionDeclInner</text>
</g>
<!-- reserve_inst -->
<g id="node2" class="node">
<title>reserve_inst</title>
<path fill="none" stroke="black" d="M731.5,-1128C731.5,-1128 589.5,-1128 589.5,-1128 583.5,-1128 577.5,-1122 577.5,-1116 577.5,-1116 577.5,-1104 577.5,-1104 577.5,-1098 583.5,-1092 589.5,-1092 589.5,-1092 731.5,-1092 731.5,-1092 737.5,-1092 743.5,-1098 743.5,-1104 743.5,-1104 743.5,-1116 743.5,-1116 743.5,-1122 737.5,-1128 731.5,-1128"/>
<text text-anchor="middle" x="660.5" y="-1106.3" font-family="Helvetica,sans-Serif" font-size="14.00">保留指令索引 decl_inst</text>
</g>
<!-- start&#45;&gt;reserve_inst -->
<g id="edge1" class="edge">
<title>start&#45;&gt;reserve_inst</title>
<path fill="none" stroke="black" d="M660.5,-1164.81C660.5,-1156.79 660.5,-1147.05 660.5,-1138.07"/>
<polygon fill="black" stroke="black" points="664,-1138.03 660.5,-1128.03 657,-1138.03 664,-1138.03"/>
</g>
<!-- init_namespace -->
<g id="node3" class="node">
<title>init_namespace</title>
<path fill="none" stroke="black" d="M719.5,-1055C719.5,-1055 601.5,-1055 601.5,-1055 595.5,-1055 589.5,-1049 589.5,-1043 589.5,-1043 589.5,-1031 589.5,-1031 589.5,-1025 595.5,-1019 601.5,-1019 601.5,-1019 719.5,-1019 719.5,-1019 725.5,-1019 731.5,-1025 731.5,-1031 731.5,-1031 731.5,-1043 731.5,-1043 731.5,-1049 725.5,-1055 719.5,-1055"/>
<text text-anchor="middle" x="660.5" y="-1033.3" font-family="Helvetica,sans-Serif" font-size="14.00">初始化 namespace</text>
</g>
<!-- reserve_inst&#45;&gt;init_namespace -->
<g id="edge2" class="edge">
<title>reserve_inst&#45;&gt;init_namespace</title>
<path fill="none" stroke="black" d="M660.5,-1091.81C660.5,-1083.79 660.5,-1074.05 660.5,-1065.07"/>
<polygon fill="black" stroke="black" points="664,-1065.03 660.5,-1055.03 657,-1065.03 664,-1065.03"/>
</g>
<!-- advance_cursor -->
<g id="node4" class="node">
<title>advance_cursor</title>
<path fill="none" stroke="black" d="M721,-982C721,-982 600,-982 600,-982 594,-982 588,-976 588,-970 588,-970 588,-958 588,-958 588,-952 594,-946 600,-946 600,-946 721,-946 721,-946 727,-946 733,-952 733,-958 733,-958 733,-970 733,-970 733,-976 727,-982 721,-982"/>
<text text-anchor="middle" x="660.5" y="-960.3" font-family="Helvetica,sans-Serif" font-size="14.00">移动源码光标到节点</text>
</g>
<!-- init_namespace&#45;&gt;advance_cursor -->
<g id="edge3" class="edge">
<title>init_namespace&#45;&gt;advance_cursor</title>
<path fill="none" stroke="black" d="M660.5,-1018.81C660.5,-1010.79 660.5,-1001.05 660.5,-992.07"/>
<polygon fill="black" stroke="black" points="664,-992.03 660.5,-982.03 657,-992.03 664,-992.03"/>
</g>
<!-- init_block_scope -->
<g id="node5" class="node">
<title>init_block_scope</title>
<path fill="none" stroke="black" d="M721.5,-909C721.5,-909 599.5,-909 599.5,-909 593.5,-909 587.5,-903 587.5,-897 587.5,-897 587.5,-885 587.5,-885 587.5,-879 593.5,-873 599.5,-873 599.5,-873 721.5,-873 721.5,-873 727.5,-873 733.5,-879 733.5,-885 733.5,-885 733.5,-897 733.5,-897 733.5,-903 727.5,-909 721.5,-909"/>
<text text-anchor="middle" x="660.5" y="-887.3" font-family="Helvetica,sans-Serif" font-size="14.00">初始化 block_scope</text>
</g>
<!-- advance_cursor&#45;&gt;init_block_scope -->
<g id="edge4" class="edge">
<title>advance_cursor&#45;&gt;init_block_scope</title>
<path fill="none" stroke="black" d="M660.5,-945.81C660.5,-937.79 660.5,-928.05 660.5,-919.07"/>
<polygon fill="black" stroke="black" points="664,-919.03 660.5,-909.03 657,-919.03 664,-919.03"/>
</g>
<!-- scan_container -->
<g id="node6" class="node">
<title>scan_container</title>
<path fill="none" stroke="black" d="M787,-836C787,-836 534,-836 534,-836 528,-836 522,-830 522,-824 522,-824 522,-812 522,-812 522,-806 528,-800 534,-800 534,-800 787,-800 787,-800 793,-800 799,-806 799,-812 799,-812 799,-824 799,-824 799,-830 793,-836 787,-836"/>
<text text-anchor="middle" x="660.5" y="-814.3" font-family="Helvetica,sans-Serif" font-size="14.00">扫描容器成员 decl_count 和 field_count</text>
</g>
<!-- init_block_scope&#45;&gt;scan_container -->
<g id="edge5" class="edge">
<title>init_block_scope&#45;&gt;scan_container</title>
<path fill="none" stroke="black" d="M660.5,-872.81C660.5,-864.79 660.5,-855.05 660.5,-846.07"/>
<polygon fill="black" stroke="black" points="664,-846.03 660.5,-836.03 657,-846.03 664,-846.03"/>
</g>
<!-- check_layout_error -->
<g id="node7" class="node">
<title>check_layout_error</title>
<path fill="none" stroke="black" d="M756.5,-763C756.5,-763 564.5,-763 564.5,-763 558.5,-763 552.5,-757 552.5,-751 552.5,-751 552.5,-739 552.5,-739 552.5,-733 558.5,-727 564.5,-727 564.5,-727 756.5,-727 756.5,-727 762.5,-727 768.5,-733 768.5,-739 768.5,-739 768.5,-751 768.5,-751 768.5,-757 762.5,-763 756.5,-763"/>
<text text-anchor="middle" x="660.5" y="-741.3" font-family="Helvetica,sans-Serif" font-size="14.00">检查布局是否支持枚举标签类型</text>
</g>
<!-- scan_container&#45;&gt;check_layout_error -->
<g id="edge6" class="edge">
<title>scan_container&#45;&gt;check_layout_error</title>
<path fill="none" stroke="black" d="M660.5,-799.81C660.5,-791.79 660.5,-782.05 660.5,-773.07"/>
<polygon fill="black" stroke="black" points="664,-773.03 660.5,-763.03 657,-773.03 664,-773.03"/>
</g>
<!-- handle_arg_inst -->
<g id="node8" class="node">
<title>handle_arg_inst</title>
<path fill="none" stroke="black" d="M617.5,-676C617.5,-676 481.5,-676 481.5,-676 475.5,-676 469.5,-670 469.5,-664 469.5,-664 469.5,-652 469.5,-652 469.5,-646 475.5,-640 481.5,-640 481.5,-640 617.5,-640 617.5,-640 623.5,-640 629.5,-646 629.5,-652 629.5,-652 629.5,-664 629.5,-664 629.5,-670 623.5,-676 617.5,-676"/>
<text text-anchor="middle" x="549.5" y="-654.3" font-family="Helvetica,sans-Serif" font-size="14.00">处理参数节点 arg_inst</text>
</g>
<!-- check_layout_error&#45;&gt;handle_arg_inst -->
<g id="edge7" class="edge">
<title>check_layout_error&#45;&gt;handle_arg_inst</title>
<path fill="none" stroke="black" d="M630.19,-726.9C621.34,-721.52 611.83,-715.32 603.5,-709 593.16,-701.16 582.53,-691.67 573.46,-683.07"/>
<polygon fill="black" stroke="black" points="575.88,-680.54 566.25,-676.12 571.02,-685.58 575.88,-680.54"/>
<text text-anchor="middle" x="625" y="-697.8" font-family="Helvetica,sans-Serif" font-size="14.00">无错误</text>
</g>
<!-- error_return -->
<g id="node20" class="node">
<title>error_return</title>
<path fill="none" stroke="black" d="M601.9,-192.93C601.9,-192.93 557.07,-181.07 557.07,-181.07 551.27,-179.53 551.27,-176.47 557.07,-174.93 557.07,-174.93 601.9,-163.07 601.9,-163.07 607.7,-161.53 619.3,-161.53 625.1,-163.07 625.1,-163.07 669.93,-174.93 669.93,-174.93 675.73,-176.47 675.73,-179.53 669.93,-181.07 669.93,-181.07 625.1,-192.93 625.1,-192.93 619.3,-194.47 607.7,-194.47 601.9,-192.93"/>
<text text-anchor="middle" x="613.5" y="-174.3" font-family="Helvetica,sans-Serif" font-size="14.00">返回错误</text>
</g>
<!-- check_layout_error&#45;&gt;error_return -->
<g id="edge8" class="edge">
<title>check_layout_error&#45;&gt;error_return</title>
<path fill="none" stroke="black" d="M700.51,-726.99C726.48,-712.98 755.5,-690.32 755.5,-659 755.5,-659 755.5,-659 755.5,-250 755.5,-210.45 710.88,-192.93 671.66,-185.17"/>
<polygon fill="black" stroke="black" points="672.04,-181.68 661.57,-183.35 670.8,-188.57 672.04,-181.68"/>
<text text-anchor="middle" x="784.5" y="-464.8" font-family="Helvetica,sans-Serif" font-size="14.00">布局错误</text>
</g>
<!-- check_layout_error&#45;&gt;error_return -->
<g id="edge22" class="edge">
<title>check_layout_error&#45;&gt;error_return</title>
<path fill="none" stroke="black" d="M660.5,-726.74C660.5,-709.57 660.5,-682.46 660.5,-659 660.5,-659 660.5,-659 660.5,-250 660.5,-230.66 648.22,-212.54 636.22,-199.45"/>
<polygon fill="black" stroke="black" points="638.39,-196.67 628.89,-191.98 633.39,-201.57 638.39,-196.67"/>
<text text-anchor="middle" x="696.5" y="-464.8" font-family="Helvetica,sans-Serif" font-size="14.00">检测到错误</text>
</g>
<!-- init_wip_members -->
<g id="node9" class="node">
<title>init_wip_members</title>
<path fill="none" stroke="black" d="M601,-603C601,-603 466,-603 466,-603 460,-603 454,-597 454,-591 454,-591 454,-579 454,-579 454,-573 460,-567 466,-567 466,-567 601,-567 601,-567 607,-567 613,-573 613,-579 613,-579 613,-591 613,-591 613,-597 607,-603 601,-603"/>
<text text-anchor="middle" x="533.5" y="-581.3" font-family="Helvetica,sans-Serif" font-size="14.00">初始化 wip_members</text>
</g>
<!-- handle_arg_inst&#45;&gt;init_wip_members -->
<g id="edge9" class="edge">
<title>handle_arg_inst&#45;&gt;init_wip_members</title>
<path fill="none" stroke="black" d="M545.63,-639.81C543.82,-631.79 541.62,-622.05 539.6,-613.07"/>
<polygon fill="black" stroke="black" points="542.95,-612.01 537.34,-603.03 536.12,-613.55 542.95,-612.01"/>
</g>
<!-- hash_layout_info -->
<g id="node10" class="node">
<title>hash_layout_info</title>
<path fill="none" stroke="black" d="M528,-530C528,-530 407,-530 407,-530 401,-530 395,-524 395,-518 395,-518 395,-506 395,-506 395,-500 401,-494 407,-494 407,-494 528,-494 528,-494 534,-494 540,-500 540,-506 540,-506 540,-518 540,-518 540,-524 534,-530 528,-530"/>
<text text-anchor="middle" x="467.5" y="-508.3" font-family="Helvetica,sans-Serif" font-size="14.00">哈希布局和参数信息</text>
</g>
<!-- init_wip_members&#45;&gt;hash_layout_info -->
<g id="edge10" class="edge">
<title>init_wip_members&#45;&gt;hash_layout_info</title>
<path fill="none" stroke="black" d="M517.52,-566.81C509.34,-558 499.22,-547.13 490.24,-537.46"/>
<polygon fill="black" stroke="black" points="492.7,-534.97 483.33,-530.03 487.57,-539.74 492.7,-534.97"/>
</g>
<!-- process_members -->
<g id="node11" class="node">
<title>process_members</title>
<path fill="none" stroke="black" d="M430,-443C430,-443 323,-443 323,-443 317,-443 311,-437 311,-431 311,-431 311,-419 311,-419 311,-413 317,-407 323,-407 323,-407 430,-407 430,-407 436,-407 442,-413 442,-419 442,-419 442,-431 442,-431 442,-437 436,-443 430,-443"/>
<text text-anchor="middle" x="376.5" y="-421.3" font-family="Helvetica,sans-Serif" font-size="14.00">遍历所有成员节点</text>
</g>
<!-- hash_layout_info&#45;&gt;process_members -->
<g id="edge11" class="edge">
<title>hash_layout_info&#45;&gt;process_members</title>
<path fill="none" stroke="black" d="M449.08,-493.8C435.64,-481.24 417.24,-464.05 402.32,-450.12"/>
<polygon fill="black" stroke="black" points="404.58,-447.44 394.89,-443.18 399.81,-452.56 404.58,-447.44"/>
</g>
<!-- check_member_type -->
<g id="node12" class="node">
<title>check_member_type</title>
<path fill="none" stroke="black" d="M444,-356C444,-356 309,-356 309,-356 303,-356 297,-350 297,-344 297,-344 297,-332 297,-332 297,-326 303,-320 309,-320 309,-320 444,-320 444,-320 450,-320 456,-326 456,-332 456,-332 456,-344 456,-344 456,-350 450,-356 444,-356"/>
<text text-anchor="middle" x="376.5" y="-334.3" font-family="Helvetica,sans-Serif" font-size="14.00">检查成员类型是否存在</text>
</g>
<!-- process_members&#45;&gt;check_member_type -->
<g id="edge12" class="edge">
<title>process_members&#45;&gt;check_member_type</title>
<path fill="none" stroke="black" d="M376.5,-406.8C376.5,-395.16 376.5,-379.55 376.5,-366.24"/>
<polygon fill="black" stroke="black" points="380,-366.18 376.5,-356.18 373,-366.18 380,-366.18"/>
<text text-anchor="middle" x="405.5" y="-377.8" font-family="Helvetica,sans-Serif" font-size="14.00">每个成员</text>
</g>
<!-- final_fields_hash -->
<g id="node15" class="node">
<title>final_fields_hash</title>
<path fill="none" stroke="black" d="M251,-356C251,-356 92,-356 92,-356 86,-356 80,-350 80,-344 80,-344 80,-332 80,-332 80,-326 86,-320 92,-320 92,-320 251,-320 251,-320 257,-320 263,-326 263,-332 263,-332 263,-344 263,-344 263,-350 257,-356 251,-356"/>
<text text-anchor="middle" x="171.5" y="-334.3" font-family="Helvetica,sans-Serif" font-size="14.00">计算字段哈希 fields_hash</text>
</g>
<!-- process_members&#45;&gt;final_fields_hash -->
<g id="edge17" class="edge">
<title>process_members&#45;&gt;final_fields_hash</title>
<path fill="none" stroke="black" d="M310.96,-407.79C293.3,-402.6 274.41,-396.28 257.5,-389 239.73,-381.35 221.04,-370.83 205.65,-361.4"/>
<polygon fill="black" stroke="black" points="207.33,-358.33 196.99,-356.01 203.63,-364.27 207.33,-358.33"/>
<text text-anchor="middle" x="315" y="-377.8" font-family="Helvetica,sans-Serif" font-size="14.00">所有成员处理完毕</text>
</g>
<!-- check_align -->
<g id="node13" class="node">
<title>check_align</title>
<path fill="none" stroke="black" d="M336.5,-269C336.5,-269 244.5,-269 244.5,-269 238.5,-269 232.5,-263 232.5,-257 232.5,-257 232.5,-245 232.5,-245 232.5,-239 238.5,-233 244.5,-233 244.5,-233 336.5,-233 336.5,-233 342.5,-233 348.5,-239 348.5,-245 348.5,-245 348.5,-257 348.5,-257 348.5,-263 342.5,-269 336.5,-269"/>
<text text-anchor="middle" x="290.5" y="-247.3" font-family="Helvetica,sans-Serif" font-size="14.00">处理对齐表达式</text>
</g>
<!-- check_member_type&#45;&gt;check_align -->
<g id="edge13" class="edge">
<title>check_member_type&#45;&gt;check_align</title>
<path fill="none" stroke="black" d="M317.56,-319.94C309.44,-315.3 302.01,-309.42 296.5,-302 291.71,-295.56 289.59,-287.31 288.83,-279.38"/>
<polygon fill="black" stroke="black" points="292.33,-279.19 288.52,-269.31 285.33,-279.41 292.33,-279.19"/>
<text text-anchor="middle" x="325.5" y="-290.8" font-family="Helvetica,sans-Serif" font-size="14.00">存在类型</text>
</g>
<!-- error_missing_type -->
<g id="node21" class="node">
<title>error_missing_type</title>
<path fill="none" stroke="black" d="M487.61,-267.39C487.61,-267.39 378.34,-252.61 378.34,-252.61 372.39,-251.8 372.39,-250.2 378.34,-249.39 378.34,-249.39 487.61,-234.61 487.61,-234.61 493.55,-233.8 505.45,-233.8 511.39,-234.61 511.39,-234.61 620.66,-249.39 620.66,-249.39 626.61,-250.2 626.61,-251.8 620.66,-252.61 620.66,-252.61 511.39,-267.39 511.39,-267.39 505.45,-268.2 493.55,-268.2 487.61,-267.39"/>
<text text-anchor="middle" x="499.5" y="-247.3" font-family="Helvetica,sans-Serif" font-size="14.00">报错：字段缺少类型</text>
</g>
<!-- check_member_type&#45;&gt;error_missing_type -->
<g id="edge14" class="edge">
<title>check_member_type&#45;&gt;error_missing_type</title>
<path fill="none" stroke="black" d="M372.06,-319.57C370.46,-309.09 370.51,-296.08 377.5,-287 386.45,-275.36 399.01,-267.41 412.68,-262.02"/>
<polygon fill="black" stroke="black" points="414,-265.27 422.3,-258.68 411.71,-258.65 414,-265.27"/>
<text text-anchor="middle" x="427.5" y="-290.8" font-family="Helvetica,sans-Serif" font-size="14.00">无类型且无参数</text>
</g>
<!-- check_member_type&#45;&gt;error_missing_type -->
<g id="edge23" class="edge">
<title>check_member_type&#45;&gt;error_missing_type</title>
<path fill="none" stroke="black" d="M449.58,-319.91C459.75,-315.28 469.45,-309.42 477.5,-302 484.31,-295.72 489.13,-286.94 492.49,-278.49"/>
<polygon fill="black" stroke="black" points="495.84,-279.49 495.78,-268.9 489.22,-277.22 495.84,-279.49"/>
<text text-anchor="middle" x="523.5" y="-290.8" font-family="Helvetica,sans-Serif" font-size="14.00">条件不满足</text>
</g>
<!-- check_value -->
<g id="node14" class="node">
<title>check_value</title>
<path fill="none" stroke="black" d="M354.5,-196C354.5,-196 276.5,-196 276.5,-196 270.5,-196 264.5,-190 264.5,-184 264.5,-184 264.5,-172 264.5,-172 264.5,-166 270.5,-160 276.5,-160 276.5,-160 354.5,-160 354.5,-160 360.5,-160 366.5,-166 366.5,-172 366.5,-172 366.5,-184 366.5,-184 366.5,-190 360.5,-196 354.5,-196"/>
<text text-anchor="middle" x="315.5" y="-174.3" font-family="Helvetica,sans-Serif" font-size="14.00">处理值表达式</text>
</g>
<!-- check_align&#45;&gt;check_value -->
<g id="edge15" class="edge">
<title>check_align&#45;&gt;check_value</title>
<path fill="none" stroke="black" d="M296.55,-232.81C299.44,-224.62 302.96,-214.62 306.17,-205.48"/>
<polygon fill="black" stroke="black" points="309.48,-206.62 309.5,-196.03 302.88,-204.3 309.48,-206.62"/>
</g>
<!-- next_member -->
<g id="node22" class="node">
<title>next_member</title>
<path fill="none" stroke="black" d="M368,-109C368,-109 279,-109 279,-109 273,-109 267,-103 267,-97 267,-97 267,-85 267,-85 267,-79 273,-73 279,-73 279,-73 368,-73 368,-73 374,-73 380,-79 380,-85 380,-85 380,-97 380,-97 380,-103 374,-109 368,-109"/>
<text text-anchor="middle" x="323.5" y="-87.3" font-family="Helvetica,sans-Serif" font-size="14.00">next_member</text>
</g>
<!-- check_value&#45;&gt;next_member -->
<g id="edge16" class="edge">
<title>check_value&#45;&gt;next_member</title>
<path fill="none" stroke="black" d="M317.12,-159.8C318.21,-148.16 319.68,-132.55 320.94,-119.24"/>
<polygon fill="black" stroke="black" points="324.43,-119.46 321.88,-109.18 317.46,-118.8 324.43,-119.46"/>
<text text-anchor="middle" x="369.5" y="-130.8" font-family="Helvetica,sans-Serif" font-size="14.00">继续下一个成员</text>
</g>
<!-- handle_block_scope -->
<g id="node16" class="node">
<title>handle_block_scope</title>
<path fill="none" stroke="black" d="M202,-269C202,-269 47,-269 47,-269 41,-269 35,-263 35,-257 35,-257 35,-245 35,-245 35,-239 41,-233 47,-233 47,-233 202,-233 202,-233 208,-233 214,-239 214,-245 214,-245 214,-257 214,-257 214,-263 208,-269 202,-269"/>
<text text-anchor="middle" x="124.5" y="-247.3" font-family="Helvetica,sans-Serif" font-size="14.00">处理 block_scope 的指令</text>
</g>
<!-- final_fields_hash&#45;&gt;handle_block_scope -->
<g id="edge18" class="edge">
<title>final_fields_hash&#45;&gt;handle_block_scope</title>
<path fill="none" stroke="black" d="M161.99,-319.8C155.36,-307.82 146.41,-291.62 138.91,-278.06"/>
<polygon fill="black" stroke="black" points="141.9,-276.23 134,-269.18 135.77,-279.62 141.9,-276.23"/>
</g>
<!-- set_union_inst -->
<g id="node17" class="node">
<title>set_union_inst</title>
<path fill="none" stroke="black" d="M178,-196C178,-196 71,-196 71,-196 65,-196 59,-190 59,-184 59,-184 59,-172 59,-172 59,-166 65,-160 71,-160 71,-160 178,-160 178,-160 184,-160 190,-166 190,-172 190,-172 190,-184 190,-184 190,-190 184,-196 178,-196"/>
<text text-anchor="middle" x="124.5" y="-174.3" font-family="Helvetica,sans-Serif" font-size="14.00">设置联合指令信息</text>
</g>
<!-- handle_block_scope&#45;&gt;set_union_inst -->
<g id="edge19" class="edge">
<title>handle_block_scope&#45;&gt;set_union_inst</title>
<path fill="none" stroke="black" d="M124.5,-232.81C124.5,-224.79 124.5,-215.05 124.5,-206.07"/>
<polygon fill="black" stroke="black" points="128,-206.03 124.5,-196.03 121,-206.03 128,-206.03"/>
</g>
<!-- append_data -->
<g id="node18" class="node">
<title>append_data</title>
<path fill="none" stroke="black" d="M237,-109C237,-109 12,-109 12,-109 6,-109 0,-103 0,-97 0,-97 0,-85 0,-85 0,-79 6,-73 12,-73 12,-73 237,-73 237,-73 243,-73 249,-79 249,-85 249,-85 249,-97 249,-97 249,-103 243,-109 237,-109"/>
<text text-anchor="middle" x="124.5" y="-87.3" font-family="Helvetica,sans-Serif" font-size="14.00">将数据追加到 astgen.extra 和 body</text>
</g>
<!-- set_union_inst&#45;&gt;append_data -->
<g id="edge20" class="edge">
<title>set_union_inst&#45;&gt;append_data</title>
<path fill="none" stroke="black" d="M124.5,-159.8C124.5,-148.16 124.5,-132.55 124.5,-119.24"/>
<polygon fill="black" stroke="black" points="128,-119.18 124.5,-109.18 121,-119.18 128,-119.18"/>
</g>
<!-- return -->
<g id="node19" class="node">
<title>return</title>
<path fill="none" stroke="black" d="M379.5,-36C379.5,-36 243.5,-36 243.5,-36 237.5,-36 231.5,-30 231.5,-24 231.5,-24 231.5,-12 231.5,-12 231.5,-6 237.5,0 243.5,0 243.5,0 379.5,0 379.5,0 385.5,0 391.5,-6 391.5,-12 391.5,-12 391.5,-24 391.5,-24 391.5,-30 385.5,-36 379.5,-36"/>
<text text-anchor="middle" x="311.5" y="-14.3" font-family="Helvetica,sans-Serif" font-size="14.00">返回 decl_inst.toRef()</text>
</g>
<!-- append_data&#45;&gt;return -->
<g id="edge21" class="edge">
<title>append_data&#45;&gt;return</title>
<path fill="none" stroke="black" d="M169.29,-72.99C195.58,-63.01 229,-50.32 256.83,-39.76"/>
<polygon fill="black" stroke="black" points="258.32,-42.94 266.43,-36.11 255.84,-36.39 258.32,-42.94"/>
</g>
<!-- error_return&#45;&gt;return -->
<g id="edge25" class="edge">
<title>error_return&#45;&gt;return</title>
<path fill="none" stroke="black" stroke-dasharray="5,2" d="M591.78,-165.64C541.89,-139.54 418.42,-74.94 353.27,-40.86"/>
<polygon fill="black" stroke="black" points="354.58,-37.59 344.1,-36.06 351.34,-43.79 354.58,-37.59"/>
<text text-anchor="middle" x="511.5" y="-87.3" font-family="Helvetica,sans-Serif" font-size="14.00">错误返回</text>
</g>
<!-- error_missing_type&#45;&gt;error_return -->
<g id="edge24" class="edge">
<title>error_missing_type&#45;&gt;error_return</title>
<path fill="none" stroke="black" d="M522.02,-235.97C540.25,-224.62 566.02,-208.57 585.57,-196.4"/>
<polygon fill="black" stroke="black" points="587.42,-199.36 594.06,-191.11 583.72,-193.42 587.42,-199.36"/>
</g>
</g>
</svg>
