<?xml version="1.0" encoding="UTF-8" standalone="no"?>
<!DOCTYPE svg PUBLIC "-//W3C//DTD SVG 1.1//EN"
 "http://www.w3.org/Graphics/SVG/1.1/DTD/svg11.dtd">
<!-- Generated by graphviz version 2.43.0 (0)
 -->
<!-- Title: glibcVerFromSoFile Pages: 1 -->
<svg width="738pt" height="1199pt"
 viewBox="0.00 0.00 738.44 1199.00" xmlns="http://www.w3.org/2000/svg" xmlns:xlink="http://www.w3.org/1999/xlink">
<g id="graph0" class="graph" transform="scale(1 1) rotate(0) translate(4 1195)">
<title>glibcVerFromSoFile</title>
<polygon fill="white" stroke="transparent" points="-4,4 -4,-1195 734.44,-1195 734.44,4 -4,4"/>
<!-- start -->
<g id="node1" class="node">
<title>start</title>
<ellipse fill="none" stroke="black" cx="540.5" cy="-1173" rx="27" ry="18"/>
<text text-anchor="middle" x="540.5" y="-1170.5" font-family="Courier,monospace" font-size="10.00">开始</text>
</g>
<!-- read_elf_header -->
<g id="node2" class="node">
<title>read_elf_header</title>
<polygon fill="none" stroke="black" points="613,-1118 468,-1118 468,-1082 613,-1082 613,-1118"/>
<text text-anchor="middle" x="540.5" y="-1097.5" font-family="Courier,monospace" font-size="10.00">读取ELF头部信息到hdr_buf</text>
</g>
<!-- start&#45;&gt;read_elf_header -->
<g id="edge1" class="edge">
<title>start&#45;&gt;read_elf_header</title>
<path fill="none" stroke="black" d="M540.5,-1154.81C540.5,-1146.79 540.5,-1137.05 540.5,-1128.07"/>
<polygon fill="black" stroke="black" points="544,-1128.03 540.5,-1118.03 537,-1128.03 544,-1128.03"/>
</g>
<!-- check_magic -->
<g id="node3" class="node">
<title>check_magic</title>
<polygon fill="none" stroke="black" points="540.5,-1045 438.87,-1027 540.5,-1009 642.13,-1027 540.5,-1045"/>
<text text-anchor="middle" x="540.5" y="-1024.5" font-family="Courier,monospace" font-size="10.00">验证ELF魔数是否正确？</text>
</g>
<!-- read_elf_header&#45;&gt;check_magic -->
<g id="edge2" class="edge">
<title>read_elf_header&#45;&gt;check_magic</title>
<path fill="none" stroke="black" d="M540.5,-1081.81C540.5,-1073.79 540.5,-1064.05 540.5,-1055.07"/>
<polygon fill="black" stroke="black" points="544,-1055.03 540.5,-1045.03 537,-1055.03 544,-1055.03"/>
</g>
<!-- check_endian -->
<g id="node4" class="node">
<title>check_endian</title>
<polygon fill="none" stroke="black" points="437.5,-962 334.04,-944 437.5,-926 540.96,-944 437.5,-962"/>
<text text-anchor="middle" x="437.5" y="-941.5" font-family="Courier,monospace" font-size="10.00">解析字节序并验证有效性</text>
</g>
<!-- check_magic&#45;&gt;check_endian -->
<g id="edge3" class="edge">
<title>check_magic&#45;&gt;check_endian</title>
<path fill="none" stroke="black" d="M522.56,-1011.89C506.16,-999 481.73,-979.79 463.26,-965.26"/>
<polygon fill="black" stroke="black" points="465.26,-962.38 455.24,-958.95 460.93,-967.88 465.26,-962.38"/>
<text text-anchor="middle" x="505.5" y="-983" font-family="Courier,monospace" font-size="10.00">有效</text>
</g>
<!-- error_magic -->
<g id="node19" class="node">
<title>error_magic</title>
<ellipse fill="none" stroke="black" cx="644.5" cy="-944" rx="85.89" ry="18"/>
<text text-anchor="middle" x="644.5" y="-941.5" font-family="Courier,monospace" font-size="10.00">返回错误InvalidElfMagic</text>
</g>
<!-- check_magic&#45;&gt;error_magic -->
<g id="edge4" class="edge">
<title>check_magic&#45;&gt;error_magic</title>
<path fill="none" stroke="black" d="M558.62,-1011.89C574.26,-999.71 597.15,-981.88 615.37,-967.69"/>
<polygon fill="black" stroke="black" points="617.63,-970.36 623.37,-961.46 613.33,-964.84 617.63,-970.36"/>
<text text-anchor="middle" x="609.5" y="-983" font-family="Courier,monospace" font-size="10.00">无效</text>
</g>
<!-- check_class -->
<g id="node5" class="node">
<title>check_class</title>
<polygon fill="none" stroke="black" points="331.5,-879 225.55,-861 331.5,-843 437.45,-861 331.5,-879"/>
<text text-anchor="middle" x="331.5" y="-858.5" font-family="Courier,monospace" font-size="10.00">确定ELF是32位还是64位</text>
</g>
<!-- check_endian&#45;&gt;check_class -->
<g id="edge5" class="edge">
<title>check_endian&#45;&gt;check_class</title>
<path fill="none" stroke="black" d="M419.04,-928.89C402.09,-915.94 376.8,-896.61 357.75,-882.06"/>
<polygon fill="black" stroke="black" points="359.82,-879.24 349.75,-875.95 355.57,-884.8 359.82,-879.24"/>
<text text-anchor="middle" x="401.5" y="-900" font-family="Courier,monospace" font-size="10.00">有效</text>
</g>
<!-- error_endian -->
<g id="node20" class="node">
<title>error_endian</title>
<ellipse fill="none" stroke="black" cx="544.5" cy="-861" rx="89.45" ry="18"/>
<text text-anchor="middle" x="544.5" y="-858.5" font-family="Courier,monospace" font-size="10.00">返回错误InvalidElfEndian</text>
</g>
<!-- check_endian&#45;&gt;error_endian -->
<g id="edge6" class="edge">
<title>check_endian&#45;&gt;error_endian</title>
<path fill="none" stroke="black" d="M456.14,-928.89C472.13,-916.78 495.48,-899.11 514.17,-884.96"/>
<polygon fill="black" stroke="black" points="516.52,-887.57 522.38,-878.75 512.29,-881.99 516.52,-887.57"/>
<text text-anchor="middle" x="507.5" y="-900" font-family="Courier,monospace" font-size="10.00">无效</text>
</g>
<!-- get_shstrndx -->
<g id="node6" class="node">
<title>get_shstrndx</title>
<polygon fill="none" stroke="black" points="313,-796 180,-796 180,-760 313,-760 313,-796"/>
<text text-anchor="middle" x="246.5" y="-775.5" font-family="Courier,monospace" font-size="10.00">获取节头表索引shstrndx</text>
</g>
<!-- check_class&#45;&gt;get_shstrndx -->
<g id="edge7" class="edge">
<title>check_class&#45;&gt;get_shstrndx</title>
<path fill="none" stroke="black" d="M316.3,-845.52C304.06,-833.85 286.56,-817.17 272.15,-803.44"/>
<polygon fill="black" stroke="black" points="274.17,-800.53 264.51,-796.17 269.34,-805.6 274.17,-800.53"/>
<text text-anchor="middle" x="334" y="-817" font-family="Courier,monospace" font-size="10.00">ELFCLASS32/64</text>
</g>
<!-- error_class -->
<g id="node21" class="node">
<title>error_class</title>
<ellipse fill="none" stroke="black" cx="416.5" cy="-778" rx="85.89" ry="18"/>
<text text-anchor="middle" x="416.5" y="-775.5" font-family="Courier,monospace" font-size="10.00">返回错误InvalidElfClass</text>
</g>
<!-- check_class&#45;&gt;error_class -->
<g id="edge8" class="edge">
<title>check_class&#45;&gt;error_class</title>
<path fill="none" stroke="black" d="M351.5,-846.25C359.87,-840.13 369.49,-832.6 377.5,-825 384.27,-818.58 391.05,-811.05 397.02,-803.97"/>
<polygon fill="black" stroke="black" points="399.96,-805.9 403.6,-795.95 394.55,-801.46 399.96,-805.9"/>
<text text-anchor="middle" x="398.5" y="-817" font-family="Courier,monospace" font-size="10.00">无效</text>
</g>
<!-- read_shstrtab -->
<g id="node7" class="node">
<title>read_shstrtab</title>
<polygon fill="none" stroke="black" points="326.5,-723 166.5,-723 166.5,-687 326.5,-687 326.5,-723"/>
<text text-anchor="middle" x="246.5" y="-702.5" font-family="Courier,monospace" font-size="10.00">读取字符串表节头信息到sh_buf</text>
</g>
<!-- get_shstrndx&#45;&gt;read_shstrtab -->
<g id="edge9" class="edge">
<title>get_shstrndx&#45;&gt;read_shstrtab</title>
<path fill="none" stroke="black" d="M246.5,-759.81C246.5,-751.79 246.5,-742.05 246.5,-733.07"/>
<polygon fill="black" stroke="black" points="250,-733.03 246.5,-723.03 243,-733.03 250,-733.03"/>
</g>
<!-- parse_shstrtab -->
<g id="node8" class="node">
<title>parse_shstrtab</title>
<polygon fill="none" stroke="black" points="308.5,-650 184.5,-650 184.5,-614 308.5,-614 308.5,-650"/>
<text text-anchor="middle" x="246.5" y="-629.5" font-family="Courier,monospace" font-size="10.00">解析字符串表偏移和大小</text>
</g>
<!-- read_shstrtab&#45;&gt;parse_shstrtab -->
<g id="edge10" class="edge">
<title>read_shstrtab&#45;&gt;parse_shstrtab</title>
<path fill="none" stroke="black" d="M246.5,-686.81C246.5,-678.79 246.5,-669.05 246.5,-660.07"/>
<polygon fill="black" stroke="black" points="250,-660.03 246.5,-650.03 243,-660.03 250,-660.03"/>
</g>
<!-- init_loop -->
<g id="node9" class="node">
<title>init_loop</title>
<polygon fill="none" stroke="black" points="307,-577 186,-577 186,-541 307,-541 307,-577"/>
<text text-anchor="middle" x="246.5" y="-556.5" font-family="Courier,monospace" font-size="10.00">初始化循环变量sh_i=0</text>
</g>
<!-- parse_shstrtab&#45;&gt;init_loop -->
<g id="edge11" class="edge">
<title>parse_shstrtab&#45;&gt;init_loop</title>
<path fill="none" stroke="black" d="M246.5,-613.81C246.5,-605.79 246.5,-596.05 246.5,-587.07"/>
<polygon fill="black" stroke="black" points="250,-587.03 246.5,-577.03 243,-587.03 250,-587.03"/>
</g>
<!-- loop_condition -->
<g id="node10" class="node">
<title>loop_condition</title>
<polygon fill="none" stroke="black" points="246.5,-504 167.33,-486 246.5,-468 325.67,-486 246.5,-504"/>
<text text-anchor="middle" x="246.5" y="-483.5" font-family="Courier,monospace" font-size="10.00">sh_i &lt; shnum?</text>
</g>
<!-- init_loop&#45;&gt;loop_condition -->
<g id="edge12" class="edge">
<title>init_loop&#45;&gt;loop_condition</title>
<path fill="none" stroke="black" d="M246.5,-540.81C246.5,-532.79 246.5,-523.05 246.5,-514.07"/>
<polygon fill="black" stroke="black" points="250,-514.03 246.5,-504.03 243,-514.03 250,-514.03"/>
</g>
<!-- read_section_header -->
<g id="node11" class="node">
<title>read_section_header</title>
<polygon fill="none" stroke="black" points="121,-421 0,-421 0,-385 121,-385 121,-421"/>
<text text-anchor="middle" x="60.5" y="-400.5" font-family="Courier,monospace" font-size="10.00">读取节头信息到sh_buf</text>
</g>
<!-- loop_condition&#45;&gt;read_section_header -->
<g id="edge13" class="edge">
<title>loop_condition&#45;&gt;read_section_header</title>
<path fill="none" stroke="black" d="M220.64,-473.74C191.87,-461.21 144.74,-440.68 109.04,-425.14"/>
<polygon fill="black" stroke="black" points="110.33,-421.88 99.76,-421.1 107.53,-428.3 110.33,-421.88"/>
<text text-anchor="middle" x="170.5" y="-442" font-family="Courier,monospace" font-size="10.00">是</text>
</g>
<!-- error_dynstr -->
<g id="node22" class="node">
<title>error_dynstr</title>
<ellipse fill="none" stroke="black" cx="246.5" cy="-403" rx="107.27" ry="18"/>
<text text-anchor="middle" x="246.5" y="-400.5" font-family="Courier,monospace" font-size="10.00">返回错误InvalidGnuLibCVersion</text>
</g>
<!-- loop_condition&#45;&gt;error_dynstr -->
<g id="edge14" class="edge">
<title>loop_condition&#45;&gt;error_dynstr</title>
<path fill="none" stroke="black" d="M246.5,-467.82C246.5,-457.19 246.5,-443.31 246.5,-431.2"/>
<polygon fill="black" stroke="black" points="250,-431.15 246.5,-421.15 243,-431.15 250,-431.15"/>
<text text-anchor="middle" x="251.5" y="-442" font-family="Courier,monospace" font-size="10.00">否</text>
</g>
<!-- check_section_name -->
<g id="node12" class="node">
<title>check_section_name</title>
<polygon fill="none" stroke="black" points="164.5,-348 42.91,-330 164.5,-312 286.09,-330 164.5,-348"/>
<text text-anchor="middle" x="164.5" y="-327.5" font-family="Courier,monospace" font-size="10.00">检查节名称是否为.dynstr？</text>
</g>
<!-- read_section_header&#45;&gt;check_section_name -->
<g id="edge15" class="edge">
<title>read_section_header&#45;&gt;check_section_name</title>
<path fill="none" stroke="black" d="M85.41,-384.99C100.52,-374.68 119.86,-361.47 135.64,-350.7"/>
<polygon fill="black" stroke="black" points="137.7,-353.53 143.98,-345.01 133.75,-347.75 137.7,-353.53"/>
</g>
<!-- found_dynstr -->
<g id="node13" class="node">
<title>found_dynstr</title>
<polygon fill="none" stroke="black" points="237.5,-265 91.5,-265 91.5,-229 237.5,-229 237.5,-265"/>
<text text-anchor="middle" x="164.5" y="-244.5" font-family="Courier,monospace" font-size="10.00">记录.dynstr节的偏移和大小</text>
</g>
<!-- check_section_name&#45;&gt;found_dynstr -->
<g id="edge16" class="edge">
<title>check_section_name&#45;&gt;found_dynstr</title>
<path fill="none" stroke="black" d="M164.5,-311.82C164.5,-301.19 164.5,-287.31 164.5,-275.2"/>
<polygon fill="black" stroke="black" points="168,-275.15 164.5,-265.15 161,-275.15 168,-275.15"/>
<text text-anchor="middle" x="174.5" y="-286" font-family="Courier,monospace" font-size="10.00">匹配</text>
</g>
<!-- loop_increment -->
<g id="node14" class="node">
<title>loop_increment</title>
<polygon fill="none" stroke="black" points="423,-265 298,-265 298,-229 423,-229 423,-265"/>
<text text-anchor="middle" x="360.5" y="-250" font-family="Courier,monospace" font-size="10.00">sh_i += 1</text>
<text text-anchor="middle" x="360.5" y="-239" font-family="Courier,monospace" font-size="10.00">shoff += shentsize</text>
</g>
<!-- check_section_name&#45;&gt;loop_increment -->
<g id="edge17" class="edge">
<title>check_section_name&#45;&gt;loop_increment</title>
<path fill="none" stroke="black" d="M195.12,-316.34C225.76,-303.68 273.43,-283.98 309.73,-268.98"/>
<polygon fill="black" stroke="black" points="311.27,-272.13 319.17,-265.08 308.59,-265.66 311.27,-272.13"/>
<text text-anchor="middle" x="289.5" y="-286" font-family="Courier,monospace" font-size="10.00">不匹配</text>
</g>
<!-- read_dynstr -->
<g id="node15" class="node">
<title>read_dynstr</title>
<polygon fill="none" stroke="black" points="232,-192 97,-192 97,-156 232,-156 232,-192"/>
<text text-anchor="middle" x="164.5" y="-171.5" font-family="Courier,monospace" font-size="10.00">读取.dynstr节内容到buf</text>
</g>
<!-- found_dynstr&#45;&gt;read_dynstr -->
<g id="edge19" class="edge">
<title>found_dynstr&#45;&gt;read_dynstr</title>
<path fill="none" stroke="black" d="M164.5,-228.81C164.5,-220.79 164.5,-211.05 164.5,-202.07"/>
<polygon fill="black" stroke="black" points="168,-202.03 164.5,-192.03 161,-202.03 168,-202.03"/>
</g>
<!-- loop_increment&#45;&gt;loop_condition -->
<g id="edge18" class="edge">
<title>loop_increment&#45;&gt;loop_condition</title>
<path fill="none" stroke="black" d="M366.16,-265.21C375.87,-298.1 391.97,-371.08 362.5,-421 347.21,-446.91 317.26,-463.05 291.63,-472.64"/>
<polygon fill="black" stroke="black" points="290.33,-469.38 282.05,-476 292.65,-475.99 290.33,-469.38"/>
</g>
<!-- parse_versions -->
<g id="node16" class="node">
<title>parse_versions</title>
<polygon fill="none" stroke="black" points="248.5,-119 80.5,-119 80.5,-83 248.5,-83 248.5,-119"/>
<text text-anchor="middle" x="164.5" y="-98.5" font-family="Courier,monospace" font-size="10.00">遍历字符串，解析GLIBC_2.*版本</text>
</g>
<!-- read_dynstr&#45;&gt;parse_versions -->
<g id="edge20" class="edge">
<title>read_dynstr&#45;&gt;parse_versions</title>
<path fill="none" stroke="black" d="M164.5,-155.81C164.5,-147.79 164.5,-138.05 164.5,-129.07"/>
<polygon fill="black" stroke="black" points="168,-129.03 164.5,-119.03 161,-129.03 168,-129.03"/>
</g>
<!-- update_max_ver -->
<g id="node17" class="node">
<title>update_max_ver</title>
<polygon fill="none" stroke="black" points="148,-36 21,-36 21,0 148,0 148,-36"/>
<text text-anchor="middle" x="84.5" y="-15.5" font-family="Courier,monospace" font-size="10.00">更新最大版本号max_ver</text>
</g>
<!-- parse_versions&#45;&gt;update_max_ver -->
<g id="edge21" class="edge">
<title>parse_versions&#45;&gt;update_max_ver</title>
<path fill="none" stroke="black" d="M88.39,-82.87C80.62,-78.26 73.69,-72.41 68.5,-65 64.46,-59.23 64.75,-52.34 66.97,-45.68"/>
<polygon fill="black" stroke="black" points="70.32,-46.77 71.33,-36.23 63.96,-43.84 70.32,-46.77"/>
<text text-anchor="middle" x="105.5" y="-57" font-family="Courier,monospace" font-size="10.00">找到GLIBC_2.*</text>
</g>
<!-- return_ver -->
<g id="node18" class="node">
<title>return_ver</title>
<ellipse fill="none" stroke="black" cx="227.5" cy="-18" rx="45.83" ry="18"/>
<text text-anchor="middle" x="227.5" y="-15.5" font-family="Courier,monospace" font-size="10.00">返回max_ver</text>
</g>
<!-- parse_versions&#45;&gt;return_ver -->
<g id="edge23" class="edge">
<title>parse_versions&#45;&gt;return_ver</title>
<path fill="none" stroke="black" d="M188.24,-82.64C194.36,-77.43 200.6,-71.38 205.5,-65 209.99,-59.15 213.89,-52.24 217.11,-45.57"/>
<polygon fill="black" stroke="black" points="220.44,-46.69 221.32,-36.14 214.05,-43.84 220.44,-46.69"/>
<text text-anchor="middle" x="232.5" y="-57" font-family="Courier,monospace" font-size="10.00">遍历完成</text>
</g>
<!-- update_max_ver&#45;&gt;parse_versions -->
<g id="edge22" class="edge">
<title>update_max_ver&#45;&gt;parse_versions</title>
<path fill="none" stroke="black" d="M120.08,-36C128.14,-41 136.18,-47.03 142.5,-54 147.54,-59.55 151.65,-66.46 154.89,-73.22"/>
<polygon fill="black" stroke="black" points="151.87,-75.05 159.04,-82.85 158.3,-72.28 151.87,-75.05"/>
<text text-anchor="middle" x="170.5" y="-57" font-family="Courier,monospace" font-size="10.00">继续遍历</text>
</g>
</g>
</svg>
