<?xml version="1.0" encoding="UTF-8" standalone="no"?>
<!DOCTYPE svg PUBLIC "-//W3C//DTD SVG 1.1//EN"
 "http://www.w3.org/Graphics/SVG/1.1/DTD/svg11.dtd">
<!-- Generated by graphviz version 2.43.0 (0)
 -->
<!-- Title: expr_flowchart Pages: 1 -->
<svg width="2554pt" height="420pt"
 viewBox="0.00 0.00 2554.00 420.00" xmlns="http://www.w3.org/2000/svg" xmlns:xlink="http://www.w3.org/1999/xlink">
<g id="graph0" class="graph" transform="scale(1 1) rotate(0) translate(4 416)">
<title>expr_flowchart</title>
<polygon fill="white" stroke="transparent" points="-4,4 -4,-416 2550,-416 2550,4 -4,4"/>
<!-- start -->
<g id="node1" class="node">
<title>start</title>
<ellipse fill="none" stroke="black" cx="1135" cy="-394" rx="133.78" ry="18"/>
<text text-anchor="middle" x="1135" y="-390.3" font-family="Arial" font-size="14.00">Start expr(zg, node, dest_node)</text>
</g>
<!-- switch_node -->
<g id="node2" class="node">
<title>switch_node</title>
<polygon fill="none" stroke="black" points="1135,-339 971.28,-321 1135,-303 1298.72,-321 1135,-339"/>
<text text-anchor="middle" x="1135" y="-317.3" font-family="Arial" font-size="14.00">Switch tree.nodeTag(node)</text>
</g>
<!-- start&#45;&gt;switch_node -->
<g id="edge1" class="edge">
<title>start&#45;&gt;switch_node</title>
<path fill="none" stroke="black" d="M1135,-375.81C1135,-367.79 1135,-358.05 1135,-349.07"/>
<polygon fill="black" stroke="black" points="1138.5,-349.03 1135,-339.03 1131.5,-349.03 1138.5,-349.03"/>
</g>
<!-- error_operators -->
<g id="node3" class="node">
<title>error_operators</title>
<polygon fill="none" stroke="black" points="152,-196 0,-196 0,-158 152,-158 152,-196"/>
<text text-anchor="middle" x="76" y="-180.8" font-family="Arial" font-size="14.00">Call zg.addErrorTok()</text>
<text text-anchor="middle" x="76" y="-165.8" font-family="Arial" font-size="14.00">(Operator not allowed)</text>
</g>
<!-- switch_node&#45;&gt;error_operators -->
<g id="edge2" class="edge">
<title>switch_node&#45;&gt;error_operators</title>
<path fill="none" stroke="black" d="M975.95,-320.47C723.79,-320.28 253.48,-315.72 183,-285 144.27,-268.12 111.97,-230.22 93.31,-204.37"/>
<polygon fill="black" stroke="black" points="96.13,-202.29 87.52,-196.12 90.4,-206.31 96.13,-202.29"/>
<text text-anchor="middle" x="228.5" y="-273.8" font-family="Arial" font-size="14.00">Operator types</text>
</g>
<!-- error_types -->
<g id="node4" class="node">
<title>error_types</title>
<polygon fill="none" stroke="black" points="312.5,-196 157.5,-196 157.5,-158 312.5,-158 312.5,-196"/>
<text text-anchor="middle" x="235" y="-180.8" font-family="Arial" font-size="14.00">Call zg.addErrorNode()</text>
<text text-anchor="middle" x="235" y="-165.8" font-family="Arial" font-size="14.00">(Types not allowed)</text>
</g>
<!-- switch_node&#45;&gt;error_types -->
<g id="edge3" class="edge">
<title>switch_node&#45;&gt;error_types</title>
<path fill="none" stroke="black" d="M999.91,-317.8C769.99,-313.56 324.44,-303.08 295,-285 266.61,-267.56 250.51,-231.48 242.28,-206.05"/>
<polygon fill="black" stroke="black" points="245.56,-204.79 239.32,-196.22 238.86,-206.81 245.56,-204.79"/>
<text text-anchor="middle" x="348" y="-273.8" font-family="Arial" font-size="14.00">Type declarations</text>
</g>
<!-- error_control_flow -->
<g id="node5" class="node">
<title>error_control_flow</title>
<polygon fill="none" stroke="black" points="486.5,-196 317.5,-196 317.5,-158 486.5,-158 486.5,-196"/>
<text text-anchor="middle" x="402" y="-180.8" font-family="Arial" font-size="14.00">Call zg.addErrorNode()</text>
<text text-anchor="middle" x="402" y="-165.8" font-family="Arial" font-size="14.00">(Control flow not allowed)</text>
</g>
<!-- switch_node&#45;&gt;error_control_flow -->
<g id="edge4" class="edge">
<title>switch_node&#45;&gt;error_control_flow</title>
<path fill="none" stroke="black" d="M999.52,-317.87C796.84,-314.06 436.02,-304.55 415,-285 393.99,-265.46 393.48,-230.95 396.46,-206.41"/>
<polygon fill="black" stroke="black" points="399.96,-206.65 397.95,-196.25 393.03,-205.63 399.96,-206.65"/>
<text text-anchor="middle" x="451" y="-273.8" font-family="Arial" font-size="14.00">Control flow</text>
</g>
<!-- error_keyword -->
<g id="node6" class="node">
<title>error_keyword</title>
<polygon fill="none" stroke="black" points="535,-140 371,-140 371,-102 535,-102 535,-140"/>
<text text-anchor="middle" x="453" y="-124.8" font-family="Arial" font-size="14.00">Call zg.addErrorNode()</text>
<text text-anchor="middle" x="453" y="-109.8" font-family="Arial" font-size="14.00">(&#39;comptime&#39; not allowed)</text>
</g>
<!-- switch_node&#45;&gt;error_keyword -->
<g id="edge5" class="edge">
<title>switch_node&#45;&gt;error_keyword</title>
<path fill="none" stroke="black" d="M1020.04,-315.64C894.76,-310.24 702.6,-299.9 631,-285 588.06,-276.07 571.34,-280.5 538,-252 501.87,-221.11 514.89,-196.49 487,-158 484.5,-154.55 481.7,-151.09 478.8,-147.76"/>
<polygon fill="black" stroke="black" points="481.29,-145.29 471.97,-140.25 476.11,-150 481.29,-145.29"/>
<text text-anchor="middle" x="570" y="-229.3" font-family="Arial" font-size="14.00">.comptime</text>
</g>
<!-- error_asm -->
<g id="node7" class="node">
<title>error_asm</title>
<polygon fill="none" stroke="black" points="679.5,-196 516.5,-196 516.5,-158 679.5,-158 679.5,-196"/>
<text text-anchor="middle" x="598" y="-180.8" font-family="Arial" font-size="14.00">Call zg.addErrorNode()</text>
<text text-anchor="middle" x="598" y="-165.8" font-family="Arial" font-size="14.00">(Inline ASM not allowed)</text>
</g>
<!-- switch_node&#45;&gt;error_asm -->
<g id="edge6" class="edge">
<title>switch_node&#45;&gt;error_asm</title>
<path fill="none" stroke="black" d="M1005.04,-317.26C871.39,-313.39 678.79,-304.5 650,-285 623.36,-266.96 609.89,-231.27 603.42,-206.08"/>
<polygon fill="black" stroke="black" points="606.75,-204.94 601.06,-196.01 599.94,-206.54 606.75,-204.94"/>
<text text-anchor="middle" x="665.5" y="-273.8" font-family="Arial" font-size="14.00">.asm</text>
</g>
<!-- error_builtin -->
<g id="node8" class="node">
<title>error_builtin</title>
<polygon fill="none" stroke="black" points="756.5,-140 591.5,-140 591.5,-102 756.5,-102 756.5,-140"/>
<text text-anchor="middle" x="674" y="-124.8" font-family="Arial" font-size="14.00">Call zg.addErrorNode()</text>
<text text-anchor="middle" x="674" y="-109.8" font-family="Arial" font-size="14.00">(Builtin calls not allowed)</text>
</g>
<!-- switch_node&#45;&gt;error_builtin -->
<g id="edge7" class="edge">
<title>switch_node&#45;&gt;error_builtin</title>
<path fill="none" stroke="black" d="M1012.19,-316.46C903.3,-310.5 755.7,-294.57 717,-252 703.29,-236.92 688.66,-183.73 680.49,-150.24"/>
<polygon fill="black" stroke="black" points="683.8,-149.05 678.07,-140.13 676.99,-150.67 683.8,-149.05"/>
<text text-anchor="middle" x="751" y="-229.3" font-family="Arial" font-size="14.00">Builtin calls</text>
</g>
<!-- error_field_access -->
<g id="node9" class="node">
<title>error_field_access</title>
<polygon fill="none" stroke="black" points="883.5,-196 710.5,-196 710.5,-158 883.5,-158 883.5,-196"/>
<text text-anchor="middle" x="797" y="-180.8" font-family="Arial" font-size="14.00">Call zg.addErrorNode()</text>
<text text-anchor="middle" x="797" y="-165.8" font-family="Arial" font-size="14.00">(Field access not allowed)</text>
</g>
<!-- switch_node&#45;&gt;error_field_access -->
<g id="edge8" class="edge">
<title>switch_node&#45;&gt;error_field_access</title>
<path fill="none" stroke="black" d="M1024.22,-315.11C934.76,-310.05 821.29,-300.63 806,-285 786.13,-264.68 786.73,-230.62 790.47,-206.39"/>
<polygon fill="black" stroke="black" points="793.95,-206.82 792.28,-196.35 787.06,-205.57 793.95,-206.82"/>
<text text-anchor="middle" x="845.5" y="-273.8" font-family="Arial" font-size="14.00">.field_access</text>
</g>
<!-- error_slice -->
<g id="node10" class="node">
<title>error_slice</title>
<polygon fill="none" stroke="black" points="968.5,-140 813.5,-140 813.5,-102 968.5,-102 968.5,-140"/>
<text text-anchor="middle" x="891" y="-124.8" font-family="Arial" font-size="14.00">Call zg.addErrorNode()</text>
<text text-anchor="middle" x="891" y="-109.8" font-family="Arial" font-size="14.00">(Slice not allowed)</text>
</g>
<!-- switch_node&#45;&gt;error_slice -->
<g id="edge9" class="edge">
<title>switch_node&#45;&gt;error_slice</title>
<path fill="none" stroke="black" d="M1071.28,-309.92C1009.55,-298.75 922.22,-278.7 901,-252 888.93,-236.81 888.54,-183.66 889.6,-150.21"/>
<polygon fill="black" stroke="black" points="893.1,-150.24 889.98,-140.11 886.11,-149.97 893.1,-150.24"/>
<text text-anchor="middle" x="946.5" y="-229.3" font-family="Arial" font-size="14.00">Slice operators</text>
</g>
<!-- error_pointers -->
<g id="node11" class="node">
<title>error_pointers</title>
<polygon fill="none" stroke="black" points="1070.5,-196 923.5,-196 923.5,-158 1070.5,-158 1070.5,-196"/>
<text text-anchor="middle" x="997" y="-180.8" font-family="Arial" font-size="14.00">Call zg.addErrorTok()</text>
<text text-anchor="middle" x="997" y="-165.8" font-family="Arial" font-size="14.00">(Pointers not allowed)</text>
</g>
<!-- switch_node&#45;&gt;error_pointers -->
<g id="edge10" class="edge">
<title>switch_node&#45;&gt;error_pointers</title>
<path fill="none" stroke="black" d="M1062.6,-310.93C1046.33,-305.7 1030.49,-297.58 1019,-285 999.7,-263.87 995.51,-230.48 995.32,-206.62"/>
<polygon fill="black" stroke="black" points="998.82,-206.45 995.47,-196.4 991.82,-206.35 998.82,-206.45"/>
<text text-anchor="middle" x="1070" y="-273.8" font-family="Arial" font-size="14.00">Deref/AddressOf</text>
</g>
<!-- error_blocks -->
<g id="node12" class="node">
<title>error_blocks</title>
<polygon fill="none" stroke="black" points="1190.5,-140 1025.5,-140 1025.5,-102 1190.5,-102 1190.5,-140"/>
<text text-anchor="middle" x="1108" y="-124.8" font-family="Arial" font-size="14.00">Handle block statements</text>
<text text-anchor="middle" x="1108" y="-109.8" font-family="Arial" font-size="14.00">(Check if empty)</text>
</g>
<!-- switch_node&#45;&gt;error_blocks -->
<g id="edge11" class="edge">
<title>switch_node&#45;&gt;error_blocks</title>
<path fill="none" stroke="black" d="M1132.83,-303.23C1130.92,-293.01 1127.4,-280.03 1121,-270 1114.39,-259.63 1105.14,-263.17 1100,-252 1085,-219.39 1091.68,-177.25 1098.92,-149.92"/>
<polygon fill="black" stroke="black" points="1102.3,-150.8 1101.67,-140.23 1095.57,-148.89 1102.3,-150.8"/>
<text text-anchor="middle" x="1152" y="-229.3" font-family="Arial" font-size="14.00">Block statements</text>
</g>
<!-- handle_grouped_expr -->
<g id="node13" class="node">
<title>handle_grouped_expr</title>
<polygon fill="none" stroke="black" points="1413.5,-140 1208.5,-140 1208.5,-102 1413.5,-102 1413.5,-140"/>
<text text-anchor="middle" x="1311" y="-124.8" font-family="Arial" font-size="14.00">Report error</text>
<text text-anchor="middle" x="1311" y="-109.8" font-family="Arial" font-size="14.00">Recursive call expr(child_node)</text>
</g>
<!-- switch_node&#45;&gt;handle_grouped_expr -->
<g id="edge12" class="edge">
<title>switch_node&#45;&gt;handle_grouped_expr</title>
<path fill="none" stroke="black" d="M1151.67,-304.54C1165.97,-291.06 1186.9,-270.78 1204,-252 1218.67,-235.88 1221.17,-230.85 1235,-214 1253.24,-191.78 1274.03,-166.62 1289.25,-148.24"/>
<polygon fill="black" stroke="black" points="1292.14,-150.24 1295.83,-140.3 1286.75,-145.77 1292.14,-150.24"/>
<text text-anchor="middle" x="1298.5" y="-229.3" font-family="Arial" font-size="14.00">.grouped_expression</text>
</g>
<!-- handle_negation -->
<g id="node14" class="node">
<title>handle_negation</title>
<polygon fill="none" stroke="black" points="1520.5,-252 1371.5,-252 1371.5,-214 1520.5,-214 1520.5,-252"/>
<text text-anchor="middle" x="1446" y="-236.8" font-family="Arial" font-size="14.00">Handle negation</text>
<text text-anchor="middle" x="1446" y="-221.8" font-family="Arial" font-size="14.00">Check child node type</text>
</g>
<!-- switch_node&#45;&gt;handle_negation -->
<g id="edge13" class="edge">
<title>switch_node&#45;&gt;handle_negation</title>
<path fill="none" stroke="black" d="M1179.23,-307.77C1229.11,-293.98 1311.07,-271.31 1371,-254.74"/>
<polygon fill="black" stroke="black" points="1372.09,-258.07 1380.79,-252.03 1370.22,-251.32 1372.09,-258.07"/>
<text text-anchor="middle" x="1338" y="-273.8" font-family="Arial" font-size="14.00">.negation</text>
</g>
<!-- handle_number_literal -->
<g id="node15" class="node">
<title>handle_number_literal</title>
<polygon fill="none" stroke="black" points="1696,-139 1542,-139 1542,-103 1696,-103 1696,-139"/>
<text text-anchor="middle" x="1619" y="-117.3" font-family="Arial" font-size="14.00">Call zg.numberLiteral()</text>
</g>
<!-- switch_node&#45;&gt;handle_number_literal -->
<g id="edge14" class="edge">
<title>switch_node&#45;&gt;handle_number_literal</title>
<path fill="none" stroke="black" d="M1224.98,-312.87C1325.44,-303.48 1480.31,-284.24 1529,-252 1530.31,-251.13 1575.66,-185.19 1601.47,-147.57"/>
<polygon fill="black" stroke="black" points="1604.5,-149.34 1607.27,-139.12 1598.73,-145.38 1604.5,-149.34"/>
<text text-anchor="middle" x="1600.5" y="-229.3" font-family="Arial" font-size="14.00">.number_literal</text>
</g>
<!-- handle_char_literal -->
<g id="node16" class="node">
<title>handle_char_literal</title>
<polygon fill="none" stroke="black" points="1745,-195 1611,-195 1611,-159 1745,-159 1745,-195"/>
<text text-anchor="middle" x="1678" y="-173.3" font-family="Arial" font-size="14.00">Call zg.charLiteral()</text>
</g>
<!-- switch_node&#45;&gt;handle_char_literal -->
<g id="edge15" class="edge">
<title>switch_node&#45;&gt;handle_char_literal</title>
<path fill="none" stroke="black" d="M1283.24,-319.28C1368.18,-316.09 1476.21,-307.32 1570,-285 1607.82,-276 1624.03,-279.99 1651,-252 1663.26,-239.28 1670.02,-220.55 1673.71,-205.12"/>
<polygon fill="black" stroke="black" points="1677.19,-205.58 1675.81,-195.08 1670.34,-204.15 1677.19,-205.58"/>
<text text-anchor="middle" x="1663" y="-273.8" font-family="Arial" font-size="14.00">.char_literal</text>
</g>
<!-- handle_identifier -->
<g id="node17" class="node">
<title>handle_identifier</title>
<polygon fill="none" stroke="black" points="1825,-251 1703,-251 1703,-215 1825,-215 1825,-251"/>
<text text-anchor="middle" x="1764" y="-229.3" font-family="Arial" font-size="14.00">Call zg.identifier()</text>
</g>
<!-- switch_node&#45;&gt;handle_identifier -->
<g id="edge16" class="edge">
<title>switch_node&#45;&gt;handle_identifier</title>
<path fill="none" stroke="black" d="M1289.31,-319.94C1458.34,-318.5 1710.32,-311.81 1746,-285 1753.64,-279.26 1758.05,-270.03 1760.59,-260.99"/>
<polygon fill="black" stroke="black" points="1764.04,-261.57 1762.74,-251.06 1757.2,-260.09 1764.04,-261.57"/>
<text text-anchor="middle" x="1785.5" y="-273.8" font-family="Arial" font-size="14.00">.identifier</text>
</g>
<!-- handle_enum_literal -->
<g id="node18" class="node">
<title>handle_enum_literal</title>
<polygon fill="none" stroke="black" points="1988.5,-251 1843.5,-251 1843.5,-215 1988.5,-215 1988.5,-251"/>
<text text-anchor="middle" x="1916" y="-229.3" font-family="Arial" font-size="14.00">Set enum literal node</text>
</g>
<!-- switch_node&#45;&gt;handle_enum_literal -->
<g id="edge17" class="edge">
<title>switch_node&#45;&gt;handle_enum_literal</title>
<path fill="none" stroke="black" d="M1286.52,-319.64C1456.4,-317.93 1720.7,-310.98 1817,-285 1839.78,-278.86 1863.34,-266.98 1881.76,-256.23"/>
<polygon fill="black" stroke="black" points="1883.58,-259.22 1890.36,-251.08 1879.98,-253.22 1883.58,-259.22"/>
<text text-anchor="middle" x="1894.5" y="-273.8" font-family="Arial" font-size="14.00">.enum_literal</text>
</g>
<!-- handle_string_literal -->
<g id="node19" class="node">
<title>handle_string_literal</title>
<polygon fill="none" stroke="black" points="2149.5,-251 2006.5,-251 2006.5,-215 2149.5,-215 2149.5,-251"/>
<text text-anchor="middle" x="2078" y="-229.3" font-family="Arial" font-size="14.00">Set string literal node</text>
</g>
<!-- switch_node&#45;&gt;handle_string_literal -->
<g id="edge18" class="edge">
<title>switch_node&#45;&gt;handle_string_literal</title>
<path fill="none" stroke="black" d="M1280.53,-318.97C1476.99,-316.66 1816.45,-309.19 1938,-285 1970.09,-278.61 2004.64,-266.09 2031.39,-255.05"/>
<polygon fill="black" stroke="black" points="2033.01,-258.17 2040.87,-251.07 2030.3,-251.72 2033.01,-258.17"/>
<text text-anchor="middle" x="2029.5" y="-273.8" font-family="Arial" font-size="14.00">String literals</text>
</g>
<!-- handle_array_init -->
<g id="node20" class="node">
<title>handle_array_init</title>
<polygon fill="none" stroke="black" points="2352.5,-252 2167.5,-252 2167.5,-214 2352.5,-214 2352.5,-252"/>
<text text-anchor="middle" x="2260" y="-236.8" font-family="Arial" font-size="14.00">Process array initialization</text>
<text text-anchor="middle" x="2260" y="-221.8" font-family="Arial" font-size="14.00">Recursive calls on elements</text>
</g>
<!-- switch_node&#45;&gt;handle_array_init -->
<g id="edge19" class="edge">
<title>switch_node&#45;&gt;handle_array_init</title>
<path fill="none" stroke="black" d="M1277.95,-318.66C1501.64,-315.9 1924.2,-307.76 2073,-285 2114.96,-278.58 2160.97,-266.11 2196.85,-255.1"/>
<polygon fill="black" stroke="black" points="2198.18,-258.35 2206.69,-252.04 2196.11,-251.67 2198.18,-258.35"/>
<text text-anchor="middle" x="2179" y="-273.8" font-family="Arial" font-size="14.00">Array init dot</text>
</g>
<!-- handle_struct_init -->
<g id="node21" class="node">
<title>handle_struct_init</title>
<polygon fill="none" stroke="black" points="2546,-252 2370,-252 2370,-214 2546,-214 2546,-252"/>
<text text-anchor="middle" x="2458" y="-236.8" font-family="Arial" font-size="14.00">Process struct initialization</text>
<text text-anchor="middle" x="2458" y="-221.8" font-family="Arial" font-size="14.00">Check field names</text>
</g>
<!-- switch_node&#45;&gt;handle_struct_init -->
<g id="edge20" class="edge">
<title>switch_node&#45;&gt;handle_struct_init</title>
<path fill="none" stroke="black" d="M1276.88,-318.6C1528.37,-315.58 2042.66,-306.88 2221,-285 2274.71,-278.41 2334.25,-265.58 2380.21,-254.43"/>
<polygon fill="black" stroke="black" points="2381.22,-257.79 2390.1,-252.01 2379.56,-250.99 2381.22,-257.79"/>
<text text-anchor="middle" x="2346.5" y="-273.8" font-family="Arial" font-size="14.00">Struct init dot</text>
</g>
<!-- end -->
<g id="node22" class="node">
<title>end</title>
<ellipse fill="none" stroke="black" cx="1116" cy="-18" rx="37.09" ry="18"/>
<text text-anchor="middle" x="1116" y="-14.3" font-family="Arial" font-size="14.00">Return</text>
</g>
<!-- error_operators&#45;&gt;end -->
<g id="edge21" class="edge">
<title>error_operators&#45;&gt;end</title>
<path fill="none" stroke="black" d="M102.8,-157.9C146.33,-129.63 236.12,-75.94 321,-54 463.54,-17.15 919.79,-17.4 1068.59,-18.52"/>
<polygon fill="black" stroke="black" points="1068.73,-22.02 1078.76,-18.6 1068.79,-15.02 1068.73,-22.02"/>
</g>
<!-- error_types&#45;&gt;end -->
<g id="edge22" class="edge">
<title>error_types&#45;&gt;end</title>
<path fill="none" stroke="black" d="M248.8,-157.73C271.38,-129.47 319.22,-76.12 374,-54 438.15,-28.1 916.03,-21.03 1069.03,-19.42"/>
<polygon fill="black" stroke="black" points="1069.09,-22.92 1079.05,-19.32 1069.02,-15.92 1069.09,-22.92"/>
</g>
<!-- error_control_flow&#45;&gt;end -->
<g id="edge23" class="edge">
<title>error_control_flow&#45;&gt;end</title>
<path fill="none" stroke="black" d="M375.18,-157.64C369.84,-152.6 364.96,-146.66 362,-140 355.13,-124.57 352.33,-115.84 362,-102 397.51,-51.17 432.27,-66.54 493,-54 602.9,-31.3 942.94,-22.42 1068.65,-19.86"/>
<polygon fill="black" stroke="black" points="1068.81,-23.35 1078.74,-19.66 1068.67,-16.36 1068.81,-23.35"/>
</g>
<!-- error_keyword&#45;&gt;end -->
<g id="edge24" class="edge">
<title>error_keyword&#45;&gt;end</title>
<path fill="none" stroke="black" d="M472.55,-101.75C490.79,-85.97 519.55,-64.15 549,-54 644.49,-21.08 950.13,-18.43 1068.52,-18.69"/>
<polygon fill="black" stroke="black" points="1068.71,-22.19 1078.72,-18.72 1068.73,-15.19 1068.71,-22.19"/>
</g>
<!-- error_asm&#45;&gt;end -->
<g id="edge25" class="edge">
<title>error_asm&#45;&gt;end</title>
<path fill="none" stroke="black" d="M586.7,-157.69C578.42,-141.68 570.44,-118.46 582,-102 618.11,-50.57 653.63,-67.51 715,-54 840.64,-26.34 992.95,-20.36 1068.6,-19.19"/>
<polygon fill="black" stroke="black" points="1068.8,-22.68 1078.75,-19.05 1068.7,-15.68 1068.8,-22.68"/>
</g>
<!-- error_builtin&#45;&gt;end -->
<g id="edge26" class="edge">
<title>error_builtin&#45;&gt;end</title>
<path fill="none" stroke="black" d="M694.25,-101.72C712.79,-86.16 741.72,-64.67 771,-54 824.53,-34.5 987.46,-24.71 1068.79,-20.92"/>
<polygon fill="black" stroke="black" points="1069.4,-24.4 1079.23,-20.45 1069.08,-17.4 1069.4,-24.4"/>
</g>
<!-- error_field_access&#45;&gt;end -->
<g id="edge27" class="edge">
<title>error_field_access&#45;&gt;end</title>
<path fill="none" stroke="black" d="M793.73,-157.95C791.84,-141.66 791.84,-117.88 804,-102 836.27,-59.83 991.71,-34.61 1070.3,-24.36"/>
<polygon fill="black" stroke="black" points="1070.93,-27.8 1080.4,-23.06 1070.04,-20.86 1070.93,-27.8"/>
</g>
<!-- error_slice&#45;&gt;end -->
<g id="edge28" class="edge">
<title>error_slice&#45;&gt;end</title>
<path fill="none" stroke="black" d="M911.53,-101.88C929.32,-87.06 956.32,-66.55 983,-54 1010.94,-40.85 1044.6,-32.06 1071.06,-26.57"/>
<polygon fill="black" stroke="black" points="1072.06,-29.94 1081.19,-24.56 1070.7,-23.07 1072.06,-29.94"/>
</g>
<!-- error_pointers&#45;&gt;end -->
<g id="edge29" class="edge">
<title>error_pointers&#45;&gt;end</title>
<path fill="none" stroke="black" d="M998.83,-157.93C1002.48,-131.4 1013.1,-82.01 1043,-54 1052.55,-45.05 1064.81,-37.98 1076.55,-32.61"/>
<polygon fill="black" stroke="black" points="1077.96,-35.81 1085.78,-28.66 1075.21,-29.38 1077.96,-35.81"/>
</g>
<!-- error_blocks&#45;&gt;end -->
<g id="edge30" class="edge">
<title>error_blocks&#45;&gt;end</title>
<path fill="none" stroke="black" d="M1067.72,-101.97C1061.01,-97.12 1054.95,-91.18 1051,-84 1044.56,-72.32 1044.16,-65.45 1051,-54 1056.63,-44.58 1065.76,-37.54 1075.43,-32.35"/>
<polygon fill="black" stroke="black" points="1077.23,-35.37 1084.77,-27.92 1074.23,-29.05 1077.23,-35.37"/>
<text text-anchor="middle" x="1105.5" y="-65.3" font-family="Arial" font-size="14.00">Non&#45;empty blocks</text>
</g>
<!-- error_blocks&#45;&gt;end -->
<g id="edge31" class="edge">
<title>error_blocks&#45;&gt;end</title>
<path fill="none" stroke="black" d="M1144.02,-102C1150.45,-97.08 1156.28,-91.1 1160,-84 1166.19,-72.19 1165.79,-66.01 1160,-54 1157.16,-48.12 1152.8,-42.91 1147.9,-38.44"/>
<polygon fill="black" stroke="black" points="1149.9,-35.56 1139.92,-32.02 1145.52,-41.02 1149.9,-35.56"/>
<text text-anchor="middle" x="1212" y="-72.8" font-family="Arial" font-size="14.00">Empty blocks</text>
<text text-anchor="middle" x="1212" y="-57.8" font-family="Arial" font-size="14.00">(add error note)</text>
</g>
<!-- handle_grouped_expr&#45;&gt;end -->
<g id="edge32" class="edge">
<title>handle_grouped_expr&#45;&gt;end</title>
<path fill="none" stroke="black" d="M1302.38,-101.79C1294.3,-86.7 1280.8,-65.86 1263,-54 1233.19,-34.13 1193.35,-25.5 1162.67,-21.77"/>
<polygon fill="black" stroke="black" points="1162.96,-18.28 1152.64,-20.69 1162.21,-25.24 1162.96,-18.28"/>
</g>
<!-- handle_negation&#45;&gt;handle_number_literal -->
<g id="edge33" class="edge">
<title>handle_negation&#45;&gt;handle_number_literal</title>
<path fill="none" stroke="black" d="M1452.82,-213.78C1460.42,-194.41 1472.84,-165.53 1482,-158 1486.76,-154.09 1508.78,-147.73 1533.82,-141.43"/>
<polygon fill="black" stroke="black" points="1534.67,-144.82 1543.54,-139.02 1532.99,-138.03 1534.67,-144.82"/>
<text text-anchor="middle" x="1524.5" y="-173.3" font-family="Arial" font-size="14.00">Number literal</text>
</g>
<!-- handle_negation&#45;&gt;end -->
<g id="edge34" class="edge">
<title>handle_negation&#45;&gt;end</title>
<path fill="none" stroke="black" d="M1447.9,-213.69C1449.71,-186.16 1448.94,-133.92 1422,-102 1388.56,-62.38 1238.62,-36.12 1161.76,-25.02"/>
<polygon fill="black" stroke="black" points="1161.81,-21.49 1151.42,-23.55 1160.83,-28.42 1161.81,-21.49"/>
<text text-anchor="middle" x="1478" y="-117.3" font-family="Arial" font-size="14.00">Other cases</text>
</g>
<!-- handle_number_literal&#45;&gt;end -->
<g id="edge35" class="edge">
<title>handle_number_literal&#45;&gt;end</title>
<path fill="none" stroke="black" d="M1587.05,-103C1556.39,-87.52 1508.33,-65.39 1464,-54 1359.05,-27.04 1231.31,-20.66 1163.56,-19.27"/>
<polygon fill="black" stroke="black" points="1163.27,-15.76 1153.21,-19.09 1163.15,-22.76 1163.27,-15.76"/>
</g>
<!-- handle_char_literal&#45;&gt;end -->
<g id="edge36" class="edge">
<title>handle_char_literal&#45;&gt;end</title>
<path fill="none" stroke="black" d="M1694.53,-158.63C1698.78,-153.1 1702.78,-146.67 1705,-140 1710.34,-123.98 1715.34,-115.35 1705,-102 1652.71,-34.51 1603.15,-68.41 1519,-54 1391.4,-32.15 1238.62,-23.62 1163.07,-20.56"/>
<polygon fill="black" stroke="black" points="1163.06,-17.05 1152.93,-20.16 1162.79,-24.05 1163.06,-17.05"/>
</g>
<!-- handle_identifier&#45;&gt;end -->
<g id="edge37" class="edge">
<title>handle_identifier&#45;&gt;end</title>
<path fill="none" stroke="black" d="M1763.45,-214.67C1761.63,-187.01 1754.05,-132.87 1723,-102 1686.61,-65.82 1667.73,-66.65 1618,-54 1532.79,-32.31 1271.2,-23.09 1163.3,-20.14"/>
<polygon fill="black" stroke="black" points="1163.13,-16.64 1153.04,-19.87 1162.94,-23.63 1163.13,-16.64"/>
</g>
<!-- handle_enum_literal&#45;&gt;end -->
<g id="edge38" class="edge">
<title>handle_enum_literal&#45;&gt;end</title>
<path fill="none" stroke="black" d="M1900.57,-214.78C1865.12,-176.69 1773.24,-86.12 1674,-54 1579.54,-23.43 1279.71,-19.37 1163.07,-18.97"/>
<polygon fill="black" stroke="black" points="1163.03,-15.47 1153.02,-18.94 1163.01,-22.47 1163.03,-15.47"/>
</g>
<!-- handle_string_literal&#45;&gt;end -->
<g id="edge39" class="edge">
<title>handle_string_literal&#45;&gt;end</title>
<path fill="none" stroke="black" d="M2052.67,-214.73C1996.28,-177.34 1854.86,-89.44 1722,-54 1616.88,-25.96 1287.1,-20.38 1163.45,-19.27"/>
<polygon fill="black" stroke="black" points="1163.2,-15.77 1153.17,-19.19 1163.14,-22.77 1163.2,-15.77"/>
</g>
<!-- handle_array_init&#45;&gt;end -->
<g id="edge40" class="edge">
<title>handle_array_init&#45;&gt;end</title>
<path fill="none" stroke="black" d="M2223.11,-213.93C2144,-176.19 1951.23,-89.56 1779,-54 1661.12,-29.66 1294.33,-21.74 1163.2,-19.65"/>
<polygon fill="black" stroke="black" points="1163.13,-16.15 1153.08,-19.49 1163.02,-23.15 1163.13,-16.15"/>
<text text-anchor="middle" x="2115" y="-117.3" font-family="Arial" font-size="14.00">Process all elements</text>
</g>
<!-- handle_struct_init&#45;&gt;end -->
<g id="edge41" class="edge">
<title>handle_struct_init&#45;&gt;end</title>
<path fill="none" stroke="black" d="M2427.34,-213.82C2377.64,-185.23 2275.59,-130.12 2182,-102 1987,-43.41 1343.37,-24.28 1163.23,-20.01"/>
<polygon fill="black" stroke="black" points="1163.1,-16.51 1153.02,-19.77 1162.94,-23.51 1163.1,-16.51"/>
<text text-anchor="middle" x="2334.5" y="-124.8" font-family="Arial" font-size="14.00">Check duplicates</text>
<text text-anchor="middle" x="2334.5" y="-109.8" font-family="Arial" font-size="14.00">Process fields</text>
</g>
</g>
</svg>
