<?xml version="1.0" encoding="UTF-8" standalone="no"?>
<!DOCTYPE svg PUBLIC "-//W3C//DTD SVG 1.1//EN"
 "http://www.w3.org/Graphics/SVG/1.1/DTD/svg11.dtd">
<!-- Generated by graphviz version 2.43.0 (0)
 -->
<!-- Title: renderErrorFlow Pages: 1 -->
<svg width="1290pt" height="300pt"
 viewBox="0.00 0.00 1290.00 300.00" xmlns="http://www.w3.org/2000/svg" xmlns:xlink="http://www.w3.org/1999/xlink">
<g id="graph0" class="graph" transform="scale(1 1) rotate(0) translate(4 296)">
<title>renderErrorFlow</title>
<polygon fill="white" stroke="transparent" points="-4,4 -4,-296 1286,-296 1286,4 -4,4"/>
<g id="clust1" class="cluster">
<title>cluster_errors</title>
<polygon fill="none" stroke="black" stroke-dasharray="5,2" points="8,-65 8,-142 1274,-142 1274,-65 8,-65"/>
<text text-anchor="middle" x="641" y="-126.8" font-family="Times,serif" font-size="14.00">错误处理分支</text>
</g>
<!-- start -->
<g id="node1" class="node">
<title>start</title>
<path fill="none" stroke="black" d="M731.5,-292C731.5,-292 638.5,-292 638.5,-292 632.5,-292 626.5,-286 626.5,-280 626.5,-280 626.5,-268 626.5,-268 626.5,-262 632.5,-256 638.5,-256 638.5,-256 731.5,-256 731.5,-256 737.5,-256 743.5,-262 743.5,-268 743.5,-268 743.5,-280 743.5,-280 743.5,-286 737.5,-292 731.5,-292"/>
<text text-anchor="middle" x="685" y="-270.3" font-family="Arial" font-size="14.00">开始 renderError</text>
</g>
<!-- switch_node -->
<g id="node2" class="node">
<title>switch_node</title>
<path fill="none" stroke="black" d="M673.09,-217.53C673.09,-217.53 551.46,-202.47 551.46,-202.47 545.5,-201.74 545.5,-200.26 551.46,-199.53 551.46,-199.53 673.09,-184.47 673.09,-184.47 679.05,-183.74 690.95,-183.74 696.91,-184.47 696.91,-184.47 818.54,-199.53 818.54,-199.53 824.5,-200.26 824.5,-201.74 818.54,-202.47 818.54,-202.47 696.91,-217.53 696.91,-217.53 690.95,-218.26 679.05,-218.26 673.09,-217.53"/>
<text text-anchor="middle" x="685" y="-197.3" font-family="Arial" font-size="14.00">switch (parse_error.tag)</text>
</g>
<!-- start&#45;&gt;switch_node -->
<g id="edge1" class="edge">
<title>start&#45;&gt;switch_node</title>
<path fill="none" stroke="black" d="M685,-255.81C685,-247.79 685,-238.05 685,-229.07"/>
<polygon fill="black" stroke="black" points="688.5,-229.03 685,-219.03 681.5,-229.03 688.5,-229.03"/>
</g>
<!-- case_asterisk -->
<g id="node4" class="node">
<title>case_asterisk</title>
<path fill="none" stroke="black" d="M198.5,-111C198.5,-111 27.5,-111 27.5,-111 21.5,-111 15.5,-105 15.5,-99 15.5,-99 15.5,-85 15.5,-85 15.5,-79 21.5,-73 27.5,-73 27.5,-73 198.5,-73 198.5,-73 204.5,-73 210.5,-79 210.5,-85 210.5,-85 210.5,-99 210.5,-99 210.5,-105 204.5,-111 198.5,-111"/>
<text text-anchor="middle" x="113" y="-95.8" font-family="Arial" font-size="14.00">处理 .asterisk_after_ptr_deref</text>
<text text-anchor="middle" x="113" y="-80.8" font-family="Arial" font-size="14.00">返回：&#39;.*&#39; cannot...</text>
</g>
<!-- switch_node&#45;&gt;case_asterisk -->
<g id="edge2" class="edge">
<title>switch_node&#45;&gt;case_asterisk</title>
<path fill="none" stroke="black" d="M579.5,-196.02C472.52,-191.16 314.63,-181.47 256,-165 217.61,-154.21 177.33,-132.9 149.35,-116.25"/>
<polygon fill="black" stroke="black" points="151.08,-113.21 140.71,-111.03 147.45,-119.2 151.08,-113.21"/>
<text text-anchor="middle" x="329.5" y="-153.8" font-family="Arial" font-size="14.00">.asterisk_after_ptr_deref</text>
</g>
<!-- case_chained -->
<g id="node5" class="node">
<title>case_chained</title>
<path fill="none" stroke="black" d="M458,-111C458,-111 240,-111 240,-111 234,-111 228,-105 228,-99 228,-99 228,-85 228,-85 228,-79 234,-73 240,-73 240,-73 458,-73 458,-73 464,-73 470,-79 470,-85 470,-85 470,-99 470,-99 470,-105 464,-111 458,-111"/>
<text text-anchor="middle" x="349" y="-95.8" font-family="Arial" font-size="14.00">处理 .chained_comparison_operators</text>
<text text-anchor="middle" x="349" y="-80.8" font-family="Arial" font-size="14.00">返回：comparison...</text>
</g>
<!-- switch_node&#45;&gt;case_chained -->
<g id="edge3" class="edge">
<title>switch_node&#45;&gt;case_chained</title>
<path fill="none" stroke="black" d="M598.67,-193.66C536.44,-188.06 458.45,-178.66 429,-165 405.98,-154.32 384.88,-134.72 370.13,-118.66"/>
<polygon fill="black" stroke="black" points="372.68,-116.26 363.42,-111.11 367.45,-120.91 372.68,-116.26"/>
<text text-anchor="middle" x="526" y="-153.8" font-family="Arial" font-size="14.00">.chained_comparison_operators</text>
</g>
<!-- case_decl -->
<g id="node6" class="node">
<title>case_decl</title>
<path fill="none" stroke="black" d="M691.5,-111C691.5,-111 500.5,-111 500.5,-111 494.5,-111 488.5,-105 488.5,-99 488.5,-99 488.5,-85 488.5,-85 488.5,-79 494.5,-73 500.5,-73 500.5,-73 691.5,-73 691.5,-73 697.5,-73 703.5,-79 703.5,-85 703.5,-85 703.5,-99 703.5,-99 703.5,-105 697.5,-111 691.5,-111"/>
<text text-anchor="middle" x="596" y="-95.8" font-family="Arial" font-size="14.00">处理 .decl_between_fields</text>
<text text-anchor="middle" x="596" y="-80.8" font-family="Arial" font-size="14.00">返回：declarations not allowed...</text>
</g>
<!-- switch_node&#45;&gt;case_decl -->
<g id="edge4" class="edge">
<title>switch_node&#45;&gt;case_decl</title>
<path fill="none" stroke="black" d="M661.95,-185.64C653.78,-179.86 644.92,-172.74 638,-165 626.17,-151.76 616.03,-134.68 608.68,-120.47"/>
<polygon fill="black" stroke="black" points="611.64,-118.57 604.05,-111.18 605.38,-121.69 611.64,-118.57"/>
<text text-anchor="middle" x="701.5" y="-153.8" font-family="Arial" font-size="14.00">.decl_between_fields</text>
</g>
<!-- case_expected_block -->
<g id="node7" class="node">
<title>case_expected_block</title>
<path fill="none" stroke="black" d="M868.5,-111C868.5,-111 733.5,-111 733.5,-111 727.5,-111 721.5,-105 721.5,-99 721.5,-99 721.5,-85 721.5,-85 721.5,-79 727.5,-73 733.5,-73 733.5,-73 868.5,-73 868.5,-73 874.5,-73 880.5,-79 880.5,-85 880.5,-85 880.5,-99 880.5,-99 880.5,-105 874.5,-111 868.5,-111"/>
<text text-anchor="middle" x="801" y="-95.8" font-family="Arial" font-size="14.00">处理 .expected_block</text>
<text text-anchor="middle" x="801" y="-80.8" font-family="Arial" font-size="14.00">格式化返回预期块信息</text>
</g>
<!-- switch_node&#45;&gt;case_expected_block -->
<g id="edge5" class="edge">
<title>switch_node&#45;&gt;case_expected_block</title>
<path fill="none" stroke="black" d="M726.91,-187.99C740.27,-182.61 754.34,-175.13 765,-165 777.68,-152.96 786.56,-135.48 792.33,-120.77"/>
<polygon fill="black" stroke="black" points="795.71,-121.72 795.84,-111.12 789.13,-119.33 795.71,-121.72"/>
<text text-anchor="middle" x="826" y="-153.8" font-family="Arial" font-size="14.00">.expected_block</text>
</g>
<!-- case_varargs -->
<g id="node8" class="node">
<title>case_varargs</title>
<path fill="none" stroke="black" d="M1087.5,-111C1087.5,-111 910.5,-111 910.5,-111 904.5,-111 898.5,-105 898.5,-99 898.5,-99 898.5,-85 898.5,-85 898.5,-79 904.5,-73 910.5,-73 910.5,-73 1087.5,-73 1087.5,-73 1093.5,-73 1099.5,-79 1099.5,-85 1099.5,-85 1099.5,-99 1099.5,-99 1099.5,-105 1093.5,-111 1087.5,-111"/>
<text text-anchor="middle" x="999" y="-95.8" font-family="Arial" font-size="14.00">处理 .varargs_nonfinal</text>
<text text-anchor="middle" x="999" y="-80.8" font-family="Arial" font-size="14.00">返回：parameter after varargs</text>
</g>
<!-- switch_node&#45;&gt;case_varargs -->
<g id="edge6" class="edge">
<title>switch_node&#45;&gt;case_varargs</title>
<path fill="none" stroke="black" d="M762.73,-192.51C798.89,-187.39 842,-178.9 879,-165 910.46,-153.18 942.96,-133.11 966.19,-117.16"/>
<polygon fill="black" stroke="black" points="968.42,-119.87 974.61,-111.27 964.41,-114.13 968.42,-119.87"/>
<text text-anchor="middle" x="962" y="-153.8" font-family="Arial" font-size="14.00">.varargs_nonfinal</text>
</g>
<!-- case_expected_token -->
<g id="node9" class="node">
<title>case_expected_token</title>
<path fill="none" stroke="black" d="M1254,-111C1254,-111 1130,-111 1130,-111 1124,-111 1118,-105 1118,-99 1118,-99 1118,-85 1118,-85 1118,-79 1124,-73 1130,-73 1130,-73 1254,-73 1254,-73 1260,-73 1266,-79 1266,-85 1266,-85 1266,-99 1266,-99 1266,-105 1260,-111 1254,-111"/>
<text text-anchor="middle" x="1192" y="-95.8" font-family="Arial" font-size="14.00">处理 .expected_token</text>
<text text-anchor="middle" x="1192" y="-80.8" font-family="Arial" font-size="14.00">根据token生成消息</text>
</g>
<!-- switch_node&#45;&gt;case_expected_token -->
<g id="edge7" class="edge">
<title>switch_node&#45;&gt;case_expected_token</title>
<path fill="none" stroke="black" d="M774.53,-194.08C841.84,-188.78 936.16,-179.57 1018,-165 1059.07,-157.69 1070.42,-157.88 1109,-142 1125.53,-135.2 1142.72,-125.54 1157.14,-116.59"/>
<polygon fill="black" stroke="black" points="1159.15,-119.46 1165.72,-111.15 1155.4,-113.55 1159.15,-119.46"/>
<text text-anchor="middle" x="1136" y="-153.8" font-family="Arial" font-size="14.00">.expected_token</text>
</g>
<!-- end_node -->
<g id="node3" class="node">
<title>end_node</title>
<ellipse fill="none" stroke="black" cx="698" cy="-18" rx="94.48" ry="18"/>
<text text-anchor="middle" x="698" y="-14.3" font-family="Arial" font-size="14.00">返回错误信息并结束</text>
</g>
<!-- case_asterisk&#45;&gt;end_node -->
<g id="edge8" class="edge">
<title>case_asterisk&#45;&gt;end_node</title>
<path fill="none" stroke="black" d="M180.27,-72.95C193.06,-69.96 206.39,-67.14 219,-65 349.06,-42.92 500.93,-30.58 598.21,-24.36"/>
<polygon fill="black" stroke="black" points="598.57,-27.85 608.33,-23.72 598.13,-20.86 598.57,-27.85"/>
</g>
<!-- case_chained&#45;&gt;end_node -->
<g id="edge9" class="edge">
<title>case_chained&#45;&gt;end_node</title>
<path fill="none" stroke="black" d="M436.62,-72.92C495.26,-60.83 571.47,-45.1 626.46,-33.76"/>
<polygon fill="black" stroke="black" points="627.38,-37.14 636.47,-31.69 625.97,-30.29 627.38,-37.14"/>
</g>
<!-- case_decl&#45;&gt;end_node -->
<g id="edge10" class="edge">
<title>case_decl&#45;&gt;end_node</title>
<path fill="none" stroke="black" d="M621.74,-72.83C635.13,-63.38 651.63,-51.73 665.85,-41.69"/>
<polygon fill="black" stroke="black" points="668.22,-44.31 674.37,-35.68 664.18,-38.59 668.22,-44.31"/>
</g>
<!-- case_expected_block&#45;&gt;end_node -->
<g id="edge11" class="edge">
<title>case_expected_block&#45;&gt;end_node</title>
<path fill="none" stroke="black" d="M775.01,-72.83C761.26,-63.22 744.26,-51.34 729.74,-41.19"/>
<polygon fill="black" stroke="black" points="731.72,-38.3 721.52,-35.44 727.71,-44.04 731.72,-38.3"/>
</g>
<!-- case_varargs&#45;&gt;end_node -->
<g id="edge12" class="edge">
<title>case_varargs&#45;&gt;end_node</title>
<path fill="none" stroke="black" d="M923.43,-72.92C874.5,-61.22 811.37,-46.12 764.37,-34.88"/>
<polygon fill="black" stroke="black" points="765.14,-31.46 754.6,-32.54 763.51,-38.27 765.14,-31.46"/>
</g>
<!-- case_expected_token&#45;&gt;end_node -->
<g id="edge13" class="edge">
<title>case_expected_token&#45;&gt;end_node</title>
<path fill="none" stroke="black" d="M1139.71,-72.95C1129.61,-69.94 1119.05,-67.12 1109,-65 1003.68,-42.82 880.77,-30.85 796.99,-24.73"/>
<polygon fill="black" stroke="black" points="797.2,-21.23 786.97,-24.01 796.7,-28.22 797.2,-21.23"/>
</g>
</g>
</svg>
