<?xml version="1.0" encoding="UTF-8" standalone="no"?>
<!DOCTYPE svg PUBLIC "-//W3C//DTD SVG 1.1//EN"
 "http://www.w3.org/Graphics/SVG/1.1/DTD/svg11.dtd">
<!-- Generated by graphviz version 2.43.0 (0)
 -->
<!-- Title: RenderArrayInitFlow Pages: 1 -->
<svg width="434pt" height="1111pt"
 viewBox="0.00 0.00 434.00 1111.00" xmlns="http://www.w3.org/2000/svg" xmlns:xlink="http://www.w3.org/1999/xlink">
<g id="graph0" class="graph" transform="scale(1 1) rotate(0) translate(4 1107)">
<title>RenderArrayInitFlow</title>
<polygon fill="white" stroke="transparent" points="-4,4 -4,-1107 430,-1107 430,4 -4,4"/>
<!-- start -->
<g id="node1" class="node">
<title>start</title>
<polygon fill="none" stroke="black" points="237,-1103 135,-1103 135,-1067 237,-1067 237,-1103"/>
<text text-anchor="middle" x="186" y="-1082.5" font-family="Arial" font-size="10.00">开始 renderArrayInit</text>
</g>
<!-- check_type_expr -->
<g id="node2" class="node">
<title>check_type_expr</title>
<polygon fill="none" stroke="black" points="277,-1030 95,-1030 95,-994 277,-994 277,-1030"/>
<text text-anchor="middle" x="186" y="-1009.5" font-family="Arial" font-size="10.00">检查 array_init.ast.type_expr 是否存在</text>
</g>
<!-- start&#45;&gt;check_type_expr -->
<g id="edge1" class="edge">
<title>start&#45;&gt;check_type_expr</title>
<path fill="none" stroke="black" d="M186,-1066.81C186,-1058.79 186,-1049.05 186,-1040.07"/>
<polygon fill="black" stroke="black" points="189.5,-1040.03 186,-1030.03 182.5,-1040.03 189.5,-1040.03"/>
</g>
<!-- render_type_expr -->
<g id="node3" class="node">
<title>render_type_expr</title>
<polygon fill="none" stroke="black" points="166,-949 66,-949 66,-913 166,-913 166,-949"/>
<text text-anchor="middle" x="116" y="-928.5" font-family="Arial" font-size="10.00">渲染类型表达式 (T)</text>
</g>
<!-- check_type_expr&#45;&gt;render_type_expr -->
<g id="edge2" class="edge">
<title>check_type_expr&#45;&gt;render_type_expr</title>
<path fill="none" stroke="black" d="M170.81,-993.86C161.18,-982.99 148.56,-968.75 137.86,-956.67"/>
<polygon fill="black" stroke="black" points="140.41,-954.27 131.16,-949.11 135.17,-958.91 140.41,-954.27"/>
<text text-anchor="middle" x="162.5" y="-969.6" font-family="Arial" font-size="8.00">存在</text>
</g>
<!-- render_dot_lbrace -->
<g id="node4" class="node">
<title>render_dot_lbrace</title>
<polygon fill="none" stroke="black" points="328,-949 184,-949 184,-913 328,-913 328,-949"/>
<text text-anchor="middle" x="256" y="-928.5" font-family="Arial" font-size="10.00">渲染 &#39;.&#39; 和左括号前一个 token</text>
</g>
<!-- check_type_expr&#45;&gt;render_dot_lbrace -->
<g id="edge3" class="edge">
<title>check_type_expr&#45;&gt;render_dot_lbrace</title>
<path fill="none" stroke="black" d="M201.19,-993.86C210.82,-982.99 223.44,-968.75 234.14,-956.67"/>
<polygon fill="black" stroke="black" points="236.83,-958.91 240.84,-949.11 231.59,-954.27 236.83,-958.91"/>
<text text-anchor="middle" x="235.5" y="-969.6" font-family="Arial" font-size="8.00">不存在</text>
</g>
<!-- check_empty_elements -->
<g id="node5" class="node">
<title>check_empty_elements</title>
<polygon fill="none" stroke="black" points="240,-876 130,-876 130,-840 240,-840 240,-876"/>
<text text-anchor="middle" x="185" y="-855.5" font-family="Arial" font-size="10.00">检查元素数量是否为0</text>
</g>
<!-- render_type_expr&#45;&gt;check_empty_elements -->
<g id="edge4" class="edge">
<title>render_type_expr&#45;&gt;check_empty_elements</title>
<path fill="none" stroke="black" d="M132.7,-912.81C141.26,-904 151.84,-893.13 161.23,-883.46"/>
<polygon fill="black" stroke="black" points="163.99,-885.64 168.45,-876.03 158.97,-880.76 163.99,-885.64"/>
</g>
<!-- render_dot_lbrace&#45;&gt;check_empty_elements -->
<g id="edge5" class="edge">
<title>render_dot_lbrace&#45;&gt;check_empty_elements</title>
<path fill="none" stroke="black" d="M238.81,-912.81C229.92,-903.92 218.91,-892.91 209.17,-883.17"/>
<polygon fill="black" stroke="black" points="211.57,-880.63 202.03,-876.03 206.63,-885.57 211.57,-880.63"/>
</g>
<!-- handle_empty_array -->
<g id="node6" class="node">
<title>handle_empty_array</title>
<polygon fill="none" stroke="black" points="114,-741 0,-741 0,-705 114,-705 114,-741"/>
<text text-anchor="middle" x="57" y="-726" font-family="Arial" font-size="10.00">缩进渲染左括号</text>
<text text-anchor="middle" x="57" y="-715" font-family="Arial" font-size="10.00">直接渲染右括号并返回</text>
</g>
<!-- check_empty_elements&#45;&gt;handle_empty_array -->
<g id="edge6" class="edge">
<title>check_empty_elements&#45;&gt;handle_empty_array</title>
<path fill="none" stroke="black" d="M168.53,-839.88C146.16,-816.64 106.04,-774.96 80.51,-748.43"/>
<polygon fill="black" stroke="black" points="82.86,-745.83 73.41,-741.05 77.82,-750.68 82.86,-745.83"/>
<text text-anchor="middle" x="155.5" y="-815.6" font-family="Arial" font-size="8.00">是</text>
</g>
<!-- handle_single_element -->
<g id="node7" class="node">
<title>handle_single_element</title>
<polygon fill="none" stroke="black" points="227.5,-795 142.5,-795 142.5,-759 227.5,-759 227.5,-795"/>
<text text-anchor="middle" x="185" y="-774.5" font-family="Arial" font-size="10.00">处理单元素数组</text>
</g>
<!-- check_empty_elements&#45;&gt;handle_single_element -->
<g id="edge7" class="edge">
<title>check_empty_elements&#45;&gt;handle_single_element</title>
<path fill="none" stroke="black" d="M185,-839.86C185,-829.71 185,-816.63 185,-805.12"/>
<polygon fill="black" stroke="black" points="188.5,-805.11 185,-795.11 181.5,-805.11 188.5,-805.11"/>
<text text-anchor="middle" x="206.5" y="-815.6" font-family="Arial" font-size="8.00">元素数量=1</text>
</g>
<!-- check_trailing_comments -->
<g id="node10" class="node">
<title>check_trailing_comments</title>
<polygon fill="none" stroke="black" points="426,-606 238,-606 238,-570 426,-570 426,-606"/>
<text text-anchor="middle" x="332" y="-585.5" font-family="Arial" font-size="10.00">检查是否存在注释/多行字符串/尾随逗号</text>
</g>
<!-- check_empty_elements&#45;&gt;check_trailing_comments -->
<g id="edge8" class="edge">
<title>check_empty_elements&#45;&gt;check_trailing_comments</title>
<path fill="none" stroke="black" d="M212.97,-839.92C219.83,-834.78 226.71,-828.71 232,-822 283.23,-757.08 313.12,-661.96 325.41,-615.93"/>
<polygon fill="black" stroke="black" points="328.83,-616.67 327.96,-606.11 322.06,-614.91 328.83,-616.67"/>
<text text-anchor="middle" x="316.5" y="-721.1" font-family="Arial" font-size="8.00">元素数量&gt;1</text>
</g>
<!-- end -->
<g id="node18" class="node">
<title>end</title>
<polygon fill="none" stroke="black" points="77,-36 23,-36 23,0 77,0 77,-36"/>
<text text-anchor="middle" x="50" y="-15.5" font-family="Arial" font-size="10.00">结束</text>
</g>
<!-- handle_empty_array&#45;&gt;end -->
<g id="edge9" class="edge">
<title>handle_empty_array&#45;&gt;end</title>
<path fill="none" stroke="black" d="M51.3,-704.83C45.7,-686.42 38,-656.22 38,-629.5 38,-629.5 38,-629.5 38,-90 38,-75.3 40.53,-59.13 43.27,-45.94"/>
<polygon fill="black" stroke="black" points="46.71,-46.6 45.46,-36.08 39.87,-45.08 46.71,-46.6"/>
</g>
<!-- check_special_single_element -->
<g id="node8" class="node">
<title>check_special_single_element</title>
<polygon fill="none" stroke="black" points="266.5,-687 103.5,-687 103.5,-651 266.5,-651 266.5,-687"/>
<text text-anchor="middle" x="185" y="-666.5" font-family="Arial" font-size="10.00">检查是否单行字符串且无后续内容</text>
</g>
<!-- handle_single_element&#45;&gt;check_special_single_element -->
<g id="edge10" class="edge">
<title>handle_single_element&#45;&gt;check_special_single_element</title>
<path fill="none" stroke="black" d="M185,-758.97C185,-742.38 185,-716.88 185,-697.43"/>
<polygon fill="black" stroke="black" points="188.5,-697.34 185,-687.34 181.5,-697.34 188.5,-697.34"/>
</g>
<!-- render_single_line_single_element -->
<g id="node9" class="node">
<title>render_single_line_single_element</title>
<polygon fill="none" stroke="black" points="219.5,-606 66.5,-606 66.5,-570 219.5,-570 219.5,-606"/>
<text text-anchor="middle" x="143" y="-585.5" font-family="Arial" font-size="10.00">单行渲染左括号、元素、右括号</text>
</g>
<!-- check_special_single_element&#45;&gt;render_single_line_single_element -->
<g id="edge11" class="edge">
<title>check_special_single_element&#45;&gt;render_single_line_single_element</title>
<path fill="none" stroke="black" d="M175.89,-650.86C170.33,-640.4 163.11,-626.83 156.86,-615.06"/>
<polygon fill="black" stroke="black" points="159.88,-613.3 152.1,-606.11 153.7,-616.58 159.88,-613.3"/>
<text text-anchor="middle" x="183" y="-626.6" font-family="Arial" font-size="8.00">满足条件</text>
</g>
<!-- check_special_single_element&#45;&gt;check_trailing_comments -->
<g id="edge12" class="edge">
<title>check_special_single_element&#45;&gt;check_trailing_comments</title>
<path fill="none" stroke="black" d="M216.9,-650.86C238.66,-639.16 267.69,-623.56 291.15,-610.95"/>
<polygon fill="black" stroke="black" points="293.01,-613.93 300.17,-606.11 289.7,-607.76 293.01,-613.93"/>
<text text-anchor="middle" x="274.5" y="-626.6" font-family="Arial" font-size="8.00">不满足</text>
</g>
<!-- render_single_line -->
<g id="node11" class="node">
<title>render_single_line</title>
<polygon fill="none" stroke="black" points="262.5,-471 99.5,-471 99.5,-435 262.5,-435 262.5,-471"/>
<text text-anchor="middle" x="181" y="-450.5" font-family="Arial" font-size="10.00">单行渲染所有元素（无尾随逗号）</text>
</g>
<!-- check_trailing_comments&#45;&gt;render_single_line -->
<g id="edge13" class="edge">
<title>check_trailing_comments&#45;&gt;render_single_line</title>
<path fill="none" stroke="black" d="M252.51,-569.97C242.13,-565.35 232.26,-559.47 224,-552 203.3,-533.28 192.09,-502.79 186.36,-480.78"/>
<polygon fill="black" stroke="black" points="189.76,-479.96 184.03,-471.05 182.95,-481.59 189.76,-479.96"/>
<text text-anchor="middle" x="276" y="-545.6" font-family="Arial" font-size="8.00">无注释/多行字符串/尾随逗号</text>
</g>
<!-- prepare_multi_line -->
<g id="node12" class="node">
<title>prepare_multi_line</title>
<polygon fill="none" stroke="black" points="374.5,-525 289.5,-525 289.5,-489 374.5,-489 374.5,-525"/>
<text text-anchor="middle" x="332" y="-510" font-family="Arial" font-size="10.00">准备多行渲染</text>
<text text-anchor="middle" x="332" y="-499" font-family="Arial" font-size="10.00">计算列宽和分块</text>
</g>
<!-- check_trailing_comments&#45;&gt;prepare_multi_line -->
<g id="edge14" class="edge">
<title>check_trailing_comments&#45;&gt;prepare_multi_line</title>
<path fill="none" stroke="black" d="M332,-569.86C332,-559.71 332,-546.63 332,-535.12"/>
<polygon fill="black" stroke="black" points="335.5,-535.11 332,-525.11 328.5,-535.11 335.5,-535.11"/>
<text text-anchor="middle" x="353" y="-545.6" font-family="Arial" font-size="8.00">存在注释等</text>
</g>
<!-- render_rbrace -->
<g id="node17" class="node">
<title>render_rbrace</title>
<polygon fill="none" stroke="black" points="223.5,-109 128.5,-109 128.5,-73 223.5,-73 223.5,-109"/>
<text text-anchor="middle" x="176" y="-88.5" font-family="Arial" font-size="10.00">渲染右括号并返回</text>
</g>
<!-- render_single_line&#45;&gt;render_rbrace -->
<g id="edge15" class="edge">
<title>render_single_line&#45;&gt;render_rbrace</title>
<path fill="none" stroke="black" d="M179.47,-434.95C178,-417.05 176,-388.07 176,-363 176,-363 176,-363 176,-171 176,-153.89 176,-134.7 176,-119.52"/>
<polygon fill="black" stroke="black" points="179.5,-119.26 176,-109.26 172.5,-119.26 179.5,-119.26"/>
</g>
<!-- process_section -->
<g id="node13" class="node">
<title>process_section</title>
<polygon fill="none" stroke="black" points="384,-417 280,-417 280,-381 384,-381 384,-417"/>
<text text-anchor="middle" x="332" y="-402" font-family="Arial" font-size="10.00">处理当前分块表达式</text>
<text text-anchor="middle" x="332" y="-391" font-family="Arial" font-size="10.00">计算列宽和换行</text>
</g>
<!-- prepare_multi_line&#45;&gt;process_section -->
<g id="edge16" class="edge">
<title>prepare_multi_line&#45;&gt;process_section</title>
<path fill="none" stroke="black" d="M332,-488.97C332,-472.38 332,-446.88 332,-427.43"/>
<polygon fill="black" stroke="black" points="335.5,-427.34 332,-417.34 328.5,-427.34 335.5,-427.34"/>
</g>
<!-- render_elements_columns -->
<g id="node14" class="node">
<title>render_elements_columns</title>
<polygon fill="none" stroke="black" points="308,-344 204,-344 204,-308 308,-308 308,-344"/>
<text text-anchor="middle" x="256" y="-323.5" font-family="Arial" font-size="10.00">按列对齐渲染表达式</text>
</g>
<!-- process_section&#45;&gt;render_elements_columns -->
<g id="edge17" class="edge">
<title>process_section&#45;&gt;render_elements_columns</title>
<path fill="none" stroke="black" d="M313.6,-380.81C303.99,-371.83 292.07,-360.69 281.57,-350.89"/>
<polygon fill="black" stroke="black" points="283.92,-348.3 274.23,-344.03 279.15,-353.41 283.92,-348.3"/>
</g>
<!-- handle_comma_newline -->
<g id="node15" class="node">
<title>handle_comma_newline</title>
<polygon fill="none" stroke="black" points="298.5,-263 213.5,-263 213.5,-227 298.5,-227 298.5,-263"/>
<text text-anchor="middle" x="256" y="-242.5" font-family="Arial" font-size="10.00">处理逗号和换行</text>
</g>
<!-- render_elements_columns&#45;&gt;handle_comma_newline -->
<g id="edge18" class="edge">
<title>render_elements_columns&#45;&gt;handle_comma_newline</title>
<path fill="none" stroke="black" d="M256,-307.86C256,-297.71 256,-284.63 256,-273.12"/>
<polygon fill="black" stroke="black" points="259.5,-273.11 256,-263.11 252.5,-273.11 259.5,-273.11"/>
</g>
<!-- loop_condition -->
<g id="node16" class="node">
<title>loop_condition</title>
<polygon fill="none" stroke="black" points="308,-190 204,-190 204,-154 308,-154 308,-190"/>
<text text-anchor="middle" x="256" y="-169.5" font-family="Arial" font-size="10.00">还有未处理的元素？</text>
</g>
<!-- handle_comma_newline&#45;&gt;loop_condition -->
<g id="edge19" class="edge">
<title>handle_comma_newline&#45;&gt;loop_condition</title>
<path fill="none" stroke="black" d="M256,-226.81C256,-218.79 256,-209.05 256,-200.07"/>
<polygon fill="black" stroke="black" points="259.5,-200.03 256,-190.03 252.5,-200.03 259.5,-200.03"/>
</g>
<!-- loop_condition&#45;&gt;process_section -->
<g id="edge20" class="edge">
<title>loop_condition&#45;&gt;process_section</title>
<path fill="none" stroke="black" d="M278.11,-190.16C288.92,-199.79 301.05,-212.72 308,-227 330.73,-273.7 333.69,-335.51 333.22,-370.59"/>
<polygon fill="black" stroke="black" points="329.71,-370.9 332.97,-380.99 336.71,-371.07 329.71,-370.9"/>
<text text-anchor="middle" x="331.5" y="-283.6" font-family="Arial" font-size="8.00">是</text>
</g>
<!-- loop_condition&#45;&gt;render_rbrace -->
<g id="edge21" class="edge">
<title>loop_condition&#45;&gt;render_rbrace</title>
<path fill="none" stroke="black" d="M238.64,-153.86C227.53,-142.88 212.94,-128.48 200.64,-116.33"/>
<polygon fill="black" stroke="black" points="202.9,-113.64 193.32,-109.11 197.98,-118.63 202.9,-113.64"/>
<text text-anchor="middle" x="222.5" y="-129.6" font-family="Arial" font-size="8.00">否</text>
</g>
<!-- render_rbrace&#45;&gt;end -->
<g id="edge22" class="edge">
<title>render_rbrace&#45;&gt;end</title>
<path fill="none" stroke="black" d="M145.82,-72.99C127.93,-62.91 105.13,-50.07 86.26,-39.43"/>
<polygon fill="black" stroke="black" points="87.79,-36.27 77.36,-34.41 84.35,-42.37 87.79,-36.27"/>
</g>
</g>
</svg>
