<?xml version="1.0" encoding="UTF-8" standalone="no"?>
<!DOCTYPE svg PUBLIC "-//W3C//DTD SVG 1.1//EN"
 "http://www.w3.org/Graphics/SVG/1.1/DTD/svg11.dtd">
<!-- Generated by graphviz version 2.43.0 (0)
 -->
<!-- Title: flowchart Pages: 1 -->
<svg width="452pt" height="811pt"
 viewBox="0.00 0.00 451.50 811.00" xmlns="http://www.w3.org/2000/svg" xmlns:xlink="http://www.w3.org/1999/xlink">
<g id="graph0" class="graph" transform="scale(1 1) rotate(0) translate(4 807)">
<title>flowchart</title>
<polygon fill="white" stroke="transparent" points="-4,4 -4,-807 447.5,-807 447.5,4 -4,4"/>
<!-- start -->
<g id="node1" class="node">
<title>start</title>
<ellipse fill="none" stroke="black" cx="188.5" cy="-785" rx="80.79" ry="18"/>
<text text-anchor="middle" x="188.5" y="-782.5" font-family="Courier,monospace" font-size="10.00">Start structInitExpr</text>
</g>
<!-- check_type_expr_none -->
<g id="node2" class="node">
<title>check_type_expr_none</title>
<polygon fill="none" stroke="black" points="302,-730 75,-730 75,-694 302,-694 302,-730"/>
<text text-anchor="middle" x="188.5" y="-709.5" font-family="Courier,monospace" font-size="10.00">struct_init.ast.type_expr == .none?</text>
</g>
<!-- start&#45;&gt;check_type_expr_none -->
<g id="edge1" class="edge">
<title>start&#45;&gt;check_type_expr_none</title>
<path fill="none" stroke="black" d="M188.5,-766.81C188.5,-758.79 188.5,-749.05 188.5,-740.07"/>
<polygon fill="black" stroke="black" points="192,-740.03 188.5,-730.03 185,-740.03 192,-740.03"/>
</g>
<!-- handle_anon_empty -->
<g id="node3" class="node">
<title>handle_anon_empty</title>
<polygon fill="none" stroke="black" points="203,-593 108,-593 108,-557 203,-557 203,-593"/>
<text text-anchor="middle" x="155.5" y="-578" font-family="Courier,monospace" font-size="10.00">处理匿名空初始化</text>
<text text-anchor="middle" x="155.5" y="-567" font-family="Courier,monospace" font-size="10.00">根据ri.rl分支</text>
</g>
<!-- check_type_expr_none&#45;&gt;handle_anon_empty -->
<g id="edge2" class="edge">
<title>check_type_expr_none&#45;&gt;handle_anon_empty</title>
<path fill="none" stroke="black" d="M184.32,-693.9C178.75,-671.1 168.82,-630.48 162.19,-603.39"/>
<polygon fill="black" stroke="black" points="165.52,-602.27 159.75,-593.39 158.72,-603.93 165.52,-602.27"/>
<text text-anchor="middle" x="189" y="-668" font-family="Courier,monospace" font-size="10.00">Yes</text>
</g>
<!-- check_array_type -->
<g id="node4" class="node">
<title>check_array_type</title>
<polygon fill="none" stroke="black" points="363,-647 202,-647 202,-611 363,-611 363,-647"/>
<text text-anchor="middle" x="282.5" y="-632" font-family="Courier,monospace" font-size="10.00">尝试解析为数组类型</text>
<text text-anchor="middle" x="282.5" y="-621" font-family="Courier,monospace" font-size="10.00">(is_inferred_array_len?)</text>
</g>
<!-- check_type_expr_none&#45;&gt;check_array_type -->
<g id="edge3" class="edge">
<title>check_type_expr_none&#45;&gt;check_array_type</title>
<path fill="none" stroke="black" d="M208.43,-693.82C221.89,-682.22 239.85,-666.75 254.71,-653.95"/>
<polygon fill="black" stroke="black" points="257.3,-656.33 262.59,-647.15 252.73,-651.03 257.3,-656.33"/>
<text text-anchor="middle" x="247" y="-668" font-family="Courier,monospace" font-size="10.00">No</text>
</g>
<!-- check_ri_rl -->
<g id="node11" class="node">
<title>check_ri_rl</title>
<polygon fill="none" stroke="black" points="235,-192 130,-192 130,-156 235,-156 235,-192"/>
<text text-anchor="middle" x="182.5" y="-171.5" font-family="Courier,monospace" font-size="10.00">根据ri.rl分支处理</text>
</g>
<!-- handle_anon_empty&#45;&gt;check_ri_rl -->
<g id="edge4" class="edge">
<title>handle_anon_empty&#45;&gt;check_ri_rl</title>
<path fill="none" stroke="black" d="M153.73,-556.79C151.96,-538.05 149.5,-507.18 149.5,-480.5 149.5,-480.5 149.5,-480.5 149.5,-281 149.5,-252.88 160.22,-222.38 169.44,-201.35"/>
<polygon fill="black" stroke="black" points="172.68,-202.67 173.66,-192.12 166.32,-199.76 172.68,-202.67"/>
</g>
<!-- handle_array_empty -->
<g id="node5" class="node">
<title>handle_array_empty</title>
<polygon fill="none" stroke="black" points="440,-456 345,-456 345,-420 440,-420 440,-456"/>
<text text-anchor="middle" x="392.5" y="-435.5" font-family="Courier,monospace" font-size="10.00">生成空数组初始化</text>
</g>
<!-- check_array_type&#45;&gt;handle_array_empty -->
<g id="edge5" class="edge">
<title>check_array_type&#45;&gt;handle_array_empty</title>
<path fill="none" stroke="black" d="M320.06,-610.88C347.2,-596.17 381.6,-572.08 396.5,-539 406.87,-515.96 404.17,-486.83 399.9,-465.96"/>
<polygon fill="black" stroke="black" points="403.3,-465.12 397.66,-456.16 396.48,-466.68 403.3,-465.12"/>
<text text-anchor="middle" x="423.5" y="-518.5" font-family="Courier,monospace" font-size="10.00">推断长度</text>
</g>
<!-- check_fields_empty -->
<g id="node6" class="node">
<title>check_fields_empty</title>
<polygon fill="none" stroke="black" points="387,-539 178,-539 178,-503 387,-503 387,-539"/>
<text text-anchor="middle" x="282.5" y="-518.5" font-family="Courier,monospace" font-size="10.00">struct_init.ast.fields.len == 0?</text>
</g>
<!-- check_array_type&#45;&gt;check_fields_empty -->
<g id="edge6" class="edge">
<title>check_array_type&#45;&gt;check_fields_empty</title>
<path fill="none" stroke="black" d="M282.5,-610.97C282.5,-594.38 282.5,-568.88 282.5,-549.43"/>
<polygon fill="black" stroke="black" points="286,-549.34 282.5,-539.34 279,-549.34 286,-549.34"/>
<text text-anchor="middle" x="307" y="-572.5" font-family="Courier,monospace" font-size="10.00">非推断长度</text>
</g>
<!-- end -->
<g id="node15" class="node">
<title>end</title>
<ellipse fill="none" stroke="black" cx="258.5" cy="-18" rx="52.28" ry="18"/>
<text text-anchor="middle" x="258.5" y="-15.5" font-family="Courier,monospace" font-size="10.00">Return/Error</text>
</g>
<!-- handle_array_empty&#45;&gt;end -->
<g id="edge18" class="edge">
<title>handle_array_empty&#45;&gt;end</title>
<path fill="none" stroke="black" d="M392.5,-419.78C392.5,-405.41 392.5,-384.37 392.5,-366 392.5,-366 392.5,-366 392.5,-90 392.5,-53.54 353.29,-35.75 317.29,-27.1"/>
<polygon fill="black" stroke="black" points="317.77,-23.62 307.26,-24.89 316.27,-30.46 317.77,-23.62"/>
</g>
<!-- check_fields_empty&#45;&gt;handle_array_empty -->
<g id="edge7" class="edge">
<title>check_fields_empty&#45;&gt;handle_array_empty</title>
<path fill="none" stroke="black" d="M305.83,-502.82C321.87,-491.01 343.37,-475.18 360.94,-462.24"/>
<polygon fill="black" stroke="black" points="363.23,-464.9 369.21,-456.15 359.08,-459.26 363.23,-464.9"/>
<text text-anchor="middle" x="353" y="-477" font-family="Courier,monospace" font-size="10.00">Yes</text>
</g>
<!-- check_duplicate_names -->
<g id="node7" class="node">
<title>check_duplicate_names</title>
<polygon fill="none" stroke="black" points="325,-456 240,-456 240,-420 325,-420 325,-456"/>
<text text-anchor="middle" x="282.5" y="-435.5" font-family="Courier,monospace" font-size="10.00">检查字段名重复</text>
</g>
<!-- check_fields_empty&#45;&gt;check_duplicate_names -->
<g id="edge8" class="edge">
<title>check_fields_empty&#45;&gt;check_duplicate_names</title>
<path fill="none" stroke="black" d="M282.5,-502.82C282.5,-492.19 282.5,-478.31 282.5,-466.2"/>
<polygon fill="black" stroke="black" points="286,-466.15 282.5,-456.15 279,-466.15 286,-466.15"/>
<text text-anchor="middle" x="289" y="-477" font-family="Courier,monospace" font-size="10.00">No</text>
</g>
<!-- any_duplicate -->
<g id="node8" class="node">
<title>any_duplicate</title>
<polygon fill="none" stroke="black" points="328,-383 237,-383 237,-347 328,-347 328,-383"/>
<text text-anchor="middle" x="282.5" y="-362.5" font-family="Courier,monospace" font-size="10.00">发现重复字段名?</text>
</g>
<!-- check_duplicate_names&#45;&gt;any_duplicate -->
<g id="edge9" class="edge">
<title>check_duplicate_names&#45;&gt;any_duplicate</title>
<path fill="none" stroke="black" d="M282.5,-419.81C282.5,-411.79 282.5,-402.05 282.5,-393.07"/>
<polygon fill="black" stroke="black" points="286,-393.03 282.5,-383.03 279,-393.03 286,-393.03"/>
</g>
<!-- report_duplicates -->
<g id="node9" class="node">
<title>report_duplicates</title>
<polygon fill="none" stroke="black" points="377,-246 282,-246 282,-210 377,-210 377,-246"/>
<text text-anchor="middle" x="329.5" y="-225.5" font-family="Courier,monospace" font-size="10.00">生成重复字段错误</text>
</g>
<!-- any_duplicate&#45;&gt;report_duplicates -->
<g id="edge10" class="edge">
<title>any_duplicate&#45;&gt;report_duplicates</title>
<path fill="none" stroke="black" d="M290.83,-346.9C296.81,-334.17 304.81,-316.25 310.5,-300 315.49,-285.75 319.93,-269.5 323.26,-256.14"/>
<polygon fill="black" stroke="black" points="326.73,-256.69 325.68,-246.15 319.92,-255.04 326.73,-256.69"/>
<text text-anchor="middle" x="312" y="-321" font-family="Courier,monospace" font-size="10.00">Yes</text>
</g>
<!-- handle_typed_init -->
<g id="node10" class="node">
<title>handle_typed_init</title>
<polygon fill="none" stroke="black" points="301.5,-300 177.5,-300 177.5,-264 301.5,-264 301.5,-300"/>
<text text-anchor="middle" x="239.5" y="-279.5" font-family="Courier,monospace" font-size="10.00">处理带类型表达式初始化</text>
</g>
<!-- any_duplicate&#45;&gt;handle_typed_init -->
<g id="edge11" class="edge">
<title>any_duplicate&#45;&gt;handle_typed_init</title>
<path fill="none" stroke="black" d="M273.38,-346.82C267.57,-335.87 259.92,-321.46 253.36,-309.11"/>
<polygon fill="black" stroke="black" points="256.39,-307.34 248.61,-300.15 250.2,-310.63 256.39,-307.34"/>
<text text-anchor="middle" x="270" y="-321" font-family="Courier,monospace" font-size="10.00">No</text>
</g>
<!-- report_duplicates&#45;&gt;end -->
<g id="edge17" class="edge">
<title>report_duplicates&#45;&gt;end</title>
<path fill="none" stroke="black" d="M333.87,-209.71C340.43,-179.98 349.81,-118.05 327.5,-73 320.59,-59.05 308.17,-47.62 295.75,-38.92"/>
<polygon fill="black" stroke="black" points="297.51,-35.89 287.23,-33.35 293.68,-41.75 297.51,-35.89"/>
</g>
<!-- handle_typed_init&#45;&gt;check_ri_rl -->
<g id="edge12" class="edge">
<title>handle_typed_init&#45;&gt;check_ri_rl</title>
<path fill="none" stroke="black" d="M230.34,-263.97C221.26,-247.07 207.2,-220.94 196.67,-201.36"/>
<polygon fill="black" stroke="black" points="199.64,-199.49 191.82,-192.34 193.48,-202.81 199.64,-199.49"/>
</g>
<!-- handle_discard -->
<g id="node12" class="node">
<title>handle_discard</title>
<polygon fill="none" stroke="black" points="245,-109 170,-109 170,-73 245,-73 245,-109"/>
<text text-anchor="middle" x="207.5" y="-88.5" font-family="Courier,monospace" font-size="10.00">丢弃模式处理</text>
</g>
<!-- check_ri_rl&#45;&gt;handle_discard -->
<g id="edge13" class="edge">
<title>check_ri_rl&#45;&gt;handle_discard</title>
<path fill="none" stroke="black" d="M187.8,-155.82C191.12,-145.08 195.46,-131.03 199.22,-118.84"/>
<polygon fill="black" stroke="black" points="202.6,-119.74 202.21,-109.15 195.91,-117.68 202.6,-119.74"/>
<text text-anchor="middle" x="217" y="-130" font-family="Courier,monospace" font-size="10.00">discard</text>
</g>
<!-- handle_ref -->
<g id="node13" class="node">
<title>handle_ref</title>
<polygon fill="none" stroke="black" points="318.5,-109 262.5,-109 262.5,-73 318.5,-73 318.5,-109"/>
<text text-anchor="middle" x="290.5" y="-88.5" font-family="Courier,monospace" font-size="10.00">生成引用</text>
</g>
<!-- check_ri_rl&#45;&gt;handle_ref -->
<g id="edge14" class="edge">
<title>check_ri_rl&#45;&gt;handle_ref</title>
<path fill="none" stroke="black" d="M214.85,-156C224.07,-150.66 233.93,-144.46 242.5,-138 251.07,-131.54 259.75,-123.7 267.33,-116.34"/>
<polygon fill="black" stroke="black" points="269.87,-118.74 274.49,-109.2 264.93,-113.78 269.87,-118.74"/>
<text text-anchor="middle" x="264" y="-130" font-family="Courier,monospace" font-size="10.00">ref</text>
</g>
<!-- handle_ptr -->
<g id="node14" class="node">
<title>handle_ptr</title>
<polygon fill="none" stroke="black" points="75,-109 0,-109 0,-73 75,-73 75,-109"/>
<text text-anchor="middle" x="37.5" y="-88.5" font-family="Courier,monospace" font-size="10.00">处理指针存储</text>
</g>
<!-- check_ri_rl&#45;&gt;handle_ptr -->
<g id="edge15" class="edge">
<title>check_ri_rl&#45;&gt;handle_ptr</title>
<path fill="none" stroke="black" d="M129.82,-161.05C112.58,-155.68 93.92,-148.18 78.5,-138 70.11,-132.46 62.35,-124.78 55.9,-117.29"/>
<polygon fill="black" stroke="black" points="58.46,-114.89 49.43,-109.34 53.02,-119.31 58.46,-114.89"/>
<text text-anchor="middle" x="88" y="-130" font-family="Courier,monospace" font-size="10.00">ptr</text>
</g>
<!-- check_ri_rl&#45;&gt;end -->
<g id="edge16" class="edge">
<title>check_ri_rl&#45;&gt;end</title>
<path fill="none" stroke="black" d="M159.02,-155.69C134.55,-135.48 102.27,-101.24 121.5,-73 139,-47.29 170.81,-33.82 199.37,-26.76"/>
<polygon fill="black" stroke="black" points="200.32,-30.14 209.31,-24.53 198.79,-23.31 200.32,-30.14"/>
<text text-anchor="middle" x="141.5" y="-88.5" font-family="Courier,monospace" font-size="10.00">其他分支</text>
</g>
<!-- handle_discard&#45;&gt;end -->
<g id="edge19" class="edge">
<title>handle_discard&#45;&gt;end</title>
<path fill="none" stroke="black" d="M219.85,-72.81C226.08,-64.14 233.75,-53.46 240.61,-43.91"/>
<polygon fill="black" stroke="black" points="243.63,-45.7 246.62,-35.54 237.94,-41.62 243.63,-45.7"/>
</g>
<!-- handle_ref&#45;&gt;end -->
<g id="edge20" class="edge">
<title>handle_ref&#45;&gt;end</title>
<path fill="none" stroke="black" d="M282.75,-72.81C279.02,-64.53 274.46,-54.41 270.31,-45.19"/>
<polygon fill="black" stroke="black" points="273.47,-43.71 266.17,-36.03 267.09,-46.58 273.47,-43.71"/>
</g>
<!-- handle_ptr&#45;&gt;end -->
<g id="edge21" class="edge">
<title>handle_ptr&#45;&gt;end</title>
<path fill="none" stroke="black" d="M61.95,-72.85C72.49,-66.13 85.19,-58.88 97.5,-54 130.49,-40.93 169.32,-32.3 200.58,-26.89"/>
<polygon fill="black" stroke="black" points="201.16,-30.34 210.45,-25.24 200.01,-23.44 201.16,-30.34"/>
</g>
</g>
</svg>
