<?xml version="1.0" encoding="UTF-8" standalone="no"?>
<!DOCTYPE svg PUBLIC "-//W3C//DTD SVG 1.1//EN"
 "http://www.w3.org/Graphics/SVG/1.1/DTD/svg11.dtd">
<!-- Generated by graphviz version 2.43.0 (0)
 -->
<!-- Title: flowchart Pages: 1 -->
<svg width="702pt" height="1023pt"
 viewBox="0.00 0.00 702.35 1023.00" xmlns="http://www.w3.org/2000/svg" xmlns:xlink="http://www.w3.org/1999/xlink">
<g id="graph0" class="graph" transform="scale(1 1) rotate(0) translate(4 1019)">
<title>flowchart</title>
<polygon fill="white" stroke="transparent" points="-4,4 -4,-1019 698.35,-1019 698.35,4 -4,4"/>
<!-- start -->
<g id="node1" class="node">
<title>start</title>
<polygon fill="none" stroke="black" points="406.35,-1015 296.35,-1015 296.35,-979 406.35,-979 406.35,-1015"/>
<text text-anchor="middle" x="351.35" y="-994.5" font-family="Courier,monospace" font-size="10.00">开始处理whileExpr</text>
</g>
<!-- check_label -->
<g id="node2" class="node">
<title>check_label</title>
<polygon fill="none" stroke="black" points="408.35,-942 294.35,-942 294.35,-906 408.35,-906 408.35,-942"/>
<text text-anchor="middle" x="351.35" y="-921.5" font-family="Courier,monospace" font-size="10.00">检查循环标签是否存在</text>
</g>
<!-- start&#45;&gt;check_label -->
<g id="edge1" class="edge">
<title>start&#45;&gt;check_label</title>
<path fill="none" stroke="black" d="M351.35,-978.81C351.35,-970.79 351.35,-961.05 351.35,-952.07"/>
<polygon fill="black" stroke="black" points="354.85,-952.03 351.35,-942.03 347.85,-952.03 354.85,-952.03"/>
</g>
<!-- check_inline -->
<g id="node3" class="node">
<title>check_inline</title>
<polygon fill="none" stroke="black" points="403.35,-869 299.35,-869 299.35,-833 403.35,-833 403.35,-869"/>
<text text-anchor="middle" x="351.35" y="-854" font-family="Courier,monospace" font-size="10.00">检查内联关键字</text>
<text text-anchor="middle" x="351.35" y="-843" font-family="Courier,monospace" font-size="10.00">处理comptime冲突</text>
</g>
<!-- check_label&#45;&gt;check_inline -->
<g id="edge2" class="edge">
<title>check_label&#45;&gt;check_inline</title>
<path fill="none" stroke="black" d="M351.35,-905.81C351.35,-897.79 351.35,-888.05 351.35,-879.07"/>
<polygon fill="black" stroke="black" points="354.85,-879.03 351.35,-869.03 347.85,-879.03 354.85,-879.03"/>
</g>
<!-- create_loop_block -->
<g id="node4" class="node">
<title>create_loop_block</title>
<polygon fill="none" stroke="black" points="441.35,-796 261.35,-796 261.35,-760 441.35,-760 441.35,-796"/>
<text text-anchor="middle" x="351.35" y="-781" font-family="Courier,monospace" font-size="10.00">创建loop_block</text>
<text text-anchor="middle" x="351.35" y="-770" font-family="Courier,monospace" font-size="10.00">(Zir指令: loop/block_inline)</text>
</g>
<!-- check_inline&#45;&gt;create_loop_block -->
<g id="edge3" class="edge">
<title>check_inline&#45;&gt;create_loop_block</title>
<path fill="none" stroke="black" d="M351.35,-832.81C351.35,-824.79 351.35,-815.05 351.35,-806.07"/>
<polygon fill="black" stroke="black" points="354.85,-806.03 351.35,-796.03 347.85,-806.03 354.85,-806.03"/>
</g>
<!-- handle_cond -->
<g id="node5" class="node">
<title>handle_cond</title>
<polygon fill="none" stroke="black" points="393.85,-723 308.85,-723 308.85,-687 393.85,-687 393.85,-723"/>
<text text-anchor="middle" x="351.35" y="-702.5" font-family="Courier,monospace" font-size="10.00">处理条件表达式</text>
</g>
<!-- create_loop_block&#45;&gt;handle_cond -->
<g id="edge4" class="edge">
<title>create_loop_block&#45;&gt;handle_cond</title>
<path fill="none" stroke="black" d="M351.35,-759.81C351.35,-751.79 351.35,-742.05 351.35,-733.07"/>
<polygon fill="black" stroke="black" points="354.85,-733.03 351.35,-723.03 347.85,-733.03 354.85,-733.03"/>
</g>
<!-- cond_payload_check -->
<g id="node6" class="node">
<title>cond_payload_check</title>
<polygon fill="none" stroke="black" points="351.35,-650 234.75,-632 351.35,-614 467.95,-632 351.35,-650"/>
<text text-anchor="middle" x="351.35" y="-629.5" font-family="Courier,monospace" font-size="10.00">条件是否有错误或有效负载?</text>
</g>
<!-- handle_cond&#45;&gt;cond_payload_check -->
<g id="edge5" class="edge">
<title>handle_cond&#45;&gt;cond_payload_check</title>
<path fill="none" stroke="black" d="M351.35,-686.81C351.35,-678.79 351.35,-669.05 351.35,-660.07"/>
<polygon fill="black" stroke="black" points="354.85,-660.03 351.35,-650.03 347.85,-660.03 354.85,-660.03"/>
</g>
<!-- gen_cond_inst -->
<g id="node7" class="node">
<title>gen_cond_inst</title>
<polygon fill="none" stroke="black" points="436.35,-567 266.35,-567 266.35,-531 436.35,-531 436.35,-567"/>
<text text-anchor="middle" x="351.35" y="-552" font-family="Courier,monospace" font-size="10.00">生成条件指令</text>
<text text-anchor="middle" x="351.35" y="-541" font-family="Courier,monospace" font-size="10.00">(is_non_err/is_non_null等)</text>
</g>
<!-- cond_payload_check&#45;&gt;gen_cond_inst -->
<g id="edge6" class="edge">
<title>cond_payload_check&#45;&gt;gen_cond_inst</title>
<path fill="none" stroke="black" d="M341.83,-615.06C337.71,-606.31 334.26,-595.2 336.35,-585 336.91,-582.3 337.68,-579.55 338.58,-576.84"/>
<polygon fill="black" stroke="black" points="341.91,-577.94 342.28,-567.35 335.39,-575.4 341.91,-577.94"/>
<text text-anchor="middle" x="341.35" y="-588" font-family="Courier,monospace" font-size="10.00">是</text>
</g>
<!-- cond_payload_check&#45;&gt;gen_cond_inst -->
<g id="edge7" class="edge">
<title>cond_payload_check&#45;&gt;gen_cond_inst</title>
<path fill="none" stroke="black" d="M351.35,-613.82C351.35,-603.19 351.35,-589.31 351.35,-577.2"/>
<polygon fill="black" stroke="black" points="354.85,-577.15 351.35,-567.15 347.85,-577.15 354.85,-577.15"/>
<text text-anchor="middle" x="356.35" y="-588" font-family="Courier,monospace" font-size="10.00">否</text>
</g>
<!-- create_condbr -->
<g id="node8" class="node">
<title>create_condbr</title>
<polygon fill="none" stroke="black" points="425.85,-494 276.85,-494 276.85,-458 425.85,-458 425.85,-494"/>
<text text-anchor="middle" x="351.35" y="-479" font-family="Courier,monospace" font-size="10.00">创建条件分支指令</text>
<text text-anchor="middle" x="351.35" y="-468" font-family="Courier,monospace" font-size="10.00">(condbr/condbr_inline)</text>
</g>
<!-- gen_cond_inst&#45;&gt;create_condbr -->
<g id="edge8" class="edge">
<title>gen_cond_inst&#45;&gt;create_condbr</title>
<path fill="none" stroke="black" d="M351.35,-530.81C351.35,-522.79 351.35,-513.05 351.35,-504.07"/>
<polygon fill="black" stroke="black" points="354.85,-504.03 351.35,-494.03 347.85,-504.03 354.85,-504.03"/>
</g>
<!-- then_scope -->
<g id="node9" class="node">
<title>then_scope</title>
<polygon fill="none" stroke="black" points="343.35,-411 247.35,-411 247.35,-375 343.35,-375 343.35,-411"/>
<text text-anchor="middle" x="295.35" y="-390.5" font-family="Courier,monospace" font-size="10.00">进入then_scope</text>
</g>
<!-- create_condbr&#45;&gt;then_scope -->
<g id="edge9" class="edge">
<title>create_condbr&#45;&gt;then_scope</title>
<path fill="none" stroke="black" d="M339.48,-457.82C331.75,-446.65 321.55,-431.9 312.9,-419.38"/>
<polygon fill="black" stroke="black" points="315.78,-417.39 307.21,-411.15 310.02,-421.37 315.78,-417.39"/>
<text text-anchor="middle" x="347.35" y="-432" font-family="Courier,monospace" font-size="10.00">条件为真</text>
</g>
<!-- else_scope -->
<g id="node15" class="node">
<title>else_scope</title>
<polygon fill="none" stroke="black" points="458.35,-411 362.35,-411 362.35,-375 458.35,-375 458.35,-411"/>
<text text-anchor="middle" x="410.35" y="-390.5" font-family="Courier,monospace" font-size="10.00">进入else_scope</text>
</g>
<!-- create_condbr&#45;&gt;else_scope -->
<g id="edge10" class="edge">
<title>create_condbr&#45;&gt;else_scope</title>
<path fill="none" stroke="black" d="M363.86,-457.82C372,-446.65 382.75,-431.9 391.86,-419.38"/>
<polygon fill="black" stroke="black" points="394.8,-421.3 397.86,-411.15 389.14,-417.18 394.8,-421.3"/>
<text text-anchor="middle" x="405.35" y="-432" font-family="Courier,monospace" font-size="10.00">条件为假</text>
</g>
<!-- handle_payload -->
<g id="node10" class="node">
<title>handle_payload</title>
<polygon fill="none" stroke="black" points="281.85,-338 158.85,-338 158.85,-302 281.85,-302 281.85,-338"/>
<text text-anchor="middle" x="220.35" y="-323" font-family="Courier,monospace" font-size="10.00">处理有效负载</text>
<text text-anchor="middle" x="220.35" y="-312" font-family="Courier,monospace" font-size="10.00">创建局部变量/dbg_var</text>
</g>
<!-- then_scope&#45;&gt;handle_payload -->
<g id="edge11" class="edge">
<title>then_scope&#45;&gt;handle_payload</title>
<path fill="none" stroke="black" d="M277.2,-374.81C267.8,-365.92 256.17,-354.91 245.89,-345.17"/>
<polygon fill="black" stroke="black" points="248.01,-342.36 238.34,-338.03 243.2,-347.45 248.01,-342.36"/>
</g>
<!-- handle_cont -->
<g id="node11" class="node">
<title>handle_cont</title>
<polygon fill="none" stroke="black" points="224.35,-265 104.35,-265 104.35,-229 224.35,-229 224.35,-265"/>
<text text-anchor="middle" x="164.35" y="-250" font-family="Courier,monospace" font-size="10.00">处理continue块</text>
<text text-anchor="middle" x="164.35" y="-239" font-family="Courier,monospace" font-size="10.00">生成continue_block</text>
</g>
<!-- handle_payload&#45;&gt;handle_cont -->
<g id="edge12" class="edge">
<title>handle_payload&#45;&gt;handle_cont</title>
<path fill="none" stroke="black" d="M206.8,-301.81C199.99,-293.18 191.61,-282.56 184.1,-273.03"/>
<polygon fill="black" stroke="black" points="186.72,-270.71 177.78,-265.03 181.23,-275.05 186.72,-270.71"/>
</g>
<!-- process_then -->
<g id="node12" class="node">
<title>process_then</title>
<polygon fill="none" stroke="black" points="199.85,-192 100.85,-192 100.85,-156 199.85,-156 199.85,-192"/>
<text text-anchor="middle" x="150.35" y="-171.5" font-family="Courier,monospace" font-size="10.00">处理then分支代码</text>
</g>
<!-- handle_cont&#45;&gt;process_then -->
<g id="edge13" class="edge">
<title>handle_cont&#45;&gt;process_then</title>
<path fill="none" stroke="black" d="M160.96,-228.81C159.38,-220.79 157.46,-211.05 155.69,-202.07"/>
<polygon fill="black" stroke="black" points="159.08,-201.16 153.71,-192.03 152.21,-202.52 159.08,-201.16"/>
</g>
<!-- check_cont_noreturn -->
<g id="node13" class="node">
<title>check_cont_noreturn</title>
<polygon fill="none" stroke="black" points="147.35,-119 0.15,-101 147.35,-83 294.56,-101 147.35,-119"/>
<text text-anchor="middle" x="147.35" y="-98.5" font-family="Courier,monospace" font-size="10.00">continue块是否以noreturn结尾?</text>
</g>
<!-- process_then&#45;&gt;check_cont_noreturn -->
<g id="edge14" class="edge">
<title>process_then&#45;&gt;check_cont_noreturn</title>
<path fill="none" stroke="black" d="M149.63,-155.81C149.29,-147.79 148.87,-138.05 148.5,-129.07"/>
<polygon fill="black" stroke="black" points="151.99,-128.87 148.07,-119.03 145,-129.17 151.99,-128.87"/>
</g>
<!-- add_break_cont -->
<g id="node14" class="node">
<title>add_break_cont</title>
<polygon fill="none" stroke="black" points="490.35,-119 330.35,-119 330.35,-83 490.35,-83 490.35,-119"/>
<text text-anchor="middle" x="410.35" y="-98.5" font-family="Courier,monospace" font-size="10.00">添加break到continue_block</text>
</g>
<!-- check_cont_noreturn&#45;&gt;add_break_cont -->
<g id="edge15" class="edge">
<title>check_cont_noreturn&#45;&gt;add_break_cont</title>
<path fill="none" stroke="black" d="M294.61,-101C303.29,-101 311.88,-101 320.22,-101"/>
<polygon fill="black" stroke="black" points="320.25,-104.5 330.25,-101 320.25,-97.5 320.25,-104.5"/>
<text text-anchor="middle" x="312.53" y="-107" font-family="Courier,monospace" font-size="10.00">否</text>
</g>
<!-- end -->
<g id="node20" class="node">
<title>end</title>
<polygon fill="none" stroke="black" points="401.35,-36 345.35,-36 345.35,0 401.35,0 401.35,-36"/>
<text text-anchor="middle" x="373.35" y="-15.5" font-family="Courier,monospace" font-size="10.00">返回结果</text>
</g>
<!-- check_cont_noreturn&#45;&gt;end -->
<g id="edge16" class="edge">
<title>check_cont_noreturn&#45;&gt;end</title>
<path fill="none" stroke="black" d="M182.91,-87.25C224.54,-72.33 293.2,-47.73 335.71,-32.49"/>
<polygon fill="black" stroke="black" points="336.91,-35.78 345.14,-29.11 334.54,-29.19 336.91,-35.78"/>
<text text-anchor="middle" x="279.35" y="-57" font-family="Courier,monospace" font-size="10.00">是</text>
</g>
<!-- add_break_cont&#45;&gt;else_scope -->
<!-- process_else -->
<g id="node16" class="node">
<title>process_else</title>
<polygon fill="none" stroke="black" points="555.85,-338 456.85,-338 456.85,-302 555.85,-302 555.85,-338"/>
<text text-anchor="middle" x="506.35" y="-317.5" font-family="Courier,monospace" font-size="10.00">处理else分支代码</text>
</g>
<!-- else_scope&#45;&gt;process_else -->
<g id="edge18" class="edge">
<title>else_scope&#45;&gt;process_else</title>
<path fill="none" stroke="black" d="M433.59,-374.81C446.09,-365.57 461.67,-354.04 475.21,-344.03"/>
<polygon fill="black" stroke="black" points="477.37,-346.79 483.33,-338.03 473.21,-341.16 477.37,-346.79"/>
</g>
<!-- check_label_used -->
<g id="node17" class="node">
<title>check_label_used</title>
<polygon fill="none" stroke="black" points="587.35,-265 463.35,-265 463.35,-229 587.35,-229 587.35,-265"/>
<text text-anchor="middle" x="525.35" y="-244.5" font-family="Courier,monospace" font-size="10.00">检查循环标签是否被使用</text>
</g>
<!-- process_else&#45;&gt;check_label_used -->
<g id="edge19" class="edge">
<title>process_else&#45;&gt;check_label_used</title>
<path fill="none" stroke="black" d="M510.95,-301.81C513.12,-293.7 515.76,-283.84 518.19,-274.78"/>
<polygon fill="black" stroke="black" points="521.59,-275.59 520.79,-265.03 514.83,-273.78 521.59,-275.59"/>
</g>
<!-- set_condbr_payload -->
<g id="node18" class="node">
<title>set_condbr_payload</title>
<polygon fill="none" stroke="black" points="639.85,-192 522.85,-192 522.85,-156 639.85,-156 639.85,-192"/>
<text text-anchor="middle" x="581.35" y="-171.5" font-family="Courier,monospace" font-size="10.00">设置条件分支payload</text>
</g>
<!-- check_label_used&#45;&gt;set_condbr_payload -->
<g id="edge20" class="edge">
<title>check_label_used&#45;&gt;set_condbr_payload</title>
<path fill="none" stroke="black" d="M538.91,-228.81C545.72,-220.18 554.1,-209.56 561.61,-200.03"/>
<polygon fill="black" stroke="black" points="564.48,-202.05 567.92,-192.03 558.98,-197.71 564.48,-202.05"/>
</g>
<!-- final_result -->
<g id="node19" class="node">
<title>final_result</title>
<polygon fill="none" stroke="black" points="694.35,-119 508.35,-119 508.35,-83 694.35,-83 694.35,-119"/>
<text text-anchor="middle" x="601.35" y="-104" font-family="Courier,monospace" font-size="10.00">生成最终结果</text>
<text text-anchor="middle" x="601.35" y="-93" font-family="Courier,monospace" font-size="10.00">处理rvalue/ensure_result_used</text>
</g>
<!-- set_condbr_payload&#45;&gt;final_result -->
<g id="edge21" class="edge">
<title>set_condbr_payload&#45;&gt;final_result</title>
<path fill="none" stroke="black" d="M586.19,-155.81C588.48,-147.7 591.26,-137.84 593.81,-128.78"/>
<polygon fill="black" stroke="black" points="597.21,-129.6 596.55,-119.03 590.47,-127.71 597.21,-129.6"/>
</g>
<!-- final_result&#45;&gt;end -->
<g id="edge22" class="edge">
<title>final_result&#45;&gt;end</title>
<path fill="none" stroke="black" d="M553.28,-82.92C511.06,-67.92 450.47,-46.4 411.51,-32.56"/>
<polygon fill="black" stroke="black" points="412.2,-29.09 401.61,-29.04 409.86,-35.68 412.2,-29.09"/>
</g>
</g>
</svg>
