<?xml version="1.0" encoding="UTF-8" standalone="no"?>
<!DOCTYPE svg PUBLIC "-//W3C//DTD SVG 1.1//EN"
 "http://www.w3.org/Graphics/SVG/1.1/DTD/svg11.dtd">
<!-- Generated by graphviz version 2.43.0 (0)
 -->
<!-- Title: flowchart Pages: 1 -->
<svg width="737pt" height="1222pt"
 viewBox="0.00 0.00 736.50 1222.00" xmlns="http://www.w3.org/2000/svg" xmlns:xlink="http://www.w3.org/1999/xlink">
<g id="graph0" class="graph" transform="scale(1 1) rotate(0) translate(4 1218)">
<title>flowchart</title>
<polygon fill="white" stroke="transparent" points="-4,4 -4,-1218 732.5,-1218 732.5,4 -4,4"/>
<!-- start -->
<g id="node1" class="node">
<title>start</title>
<polygon fill="none" stroke="black" points="344,-1214 222,-1214 222,-1178 344,-1178 344,-1214"/>
<text text-anchor="middle" x="283" y="-1192.9" font-family="Courier,monospace" font-size="12.00">Start callExpr</text>
</g>
<!-- get_callee -->
<g id="node2" class="node">
<title>get_callee</title>
<polygon fill="none" stroke="black" points="434,-1141 132,-1141 132,-1105 434,-1105 434,-1141"/>
<text text-anchor="middle" x="283" y="-1119.9" font-family="Courier,monospace" font-size="12.00">Get callee expression via calleeExpr()</text>
</g>
<!-- start&#45;&gt;get_callee -->
<g id="edge1" class="edge">
<title>start&#45;&gt;get_callee</title>
<path fill="none" stroke="black" d="M283,-1177.81C283,-1169.79 283,-1160.05 283,-1151.07"/>
<polygon fill="black" stroke="black" points="286.5,-1151.03 283,-1141.03 279.5,-1151.03 286.5,-1151.03"/>
</g>
<!-- determine_modifier -->
<g id="node3" class="node">
<title>determine_modifier</title>
<polygon fill="none" stroke="black" points="374,-1068 192,-1068 192,-1032 374,-1032 374,-1068"/>
<text text-anchor="middle" x="283" y="-1046.9" font-family="Courier,monospace" font-size="12.00">Determine CallModifier</text>
</g>
<!-- get_callee&#45;&gt;determine_modifier -->
<g id="edge2" class="edge">
<title>get_callee&#45;&gt;determine_modifier</title>
<path fill="none" stroke="black" d="M283,-1104.81C283,-1096.79 283,-1087.05 283,-1078.07"/>
<polygon fill="black" stroke="black" points="286.5,-1078.03 283,-1068.03 279.5,-1078.03 286.5,-1078.03"/>
</g>
<!-- async_check -->
<g id="node4" class="node">
<title>async_check</title>
<polygon fill="none" stroke="black" points="283,-995 144.66,-977 283,-959 421.34,-977 283,-995"/>
<text text-anchor="middle" x="283" y="-973.9" font-family="Courier,monospace" font-size="12.00">async_token exists?</text>
</g>
<!-- determine_modifier&#45;&gt;async_check -->
<g id="edge3" class="edge">
<title>determine_modifier&#45;&gt;async_check</title>
<path fill="none" stroke="black" d="M283,-1031.81C283,-1023.79 283,-1014.05 283,-1005.07"/>
<polygon fill="black" stroke="black" points="286.5,-1005.03 283,-995.03 279.5,-1005.03 286.5,-1005.03"/>
</g>
<!-- modifier_async -->
<g id="node5" class="node">
<title>modifier_async</title>
<polygon fill="none" stroke="black" points="223.5,-856 64.5,-856 64.5,-820 223.5,-820 223.5,-856"/>
<text text-anchor="middle" x="144" y="-834.9" font-family="Courier,monospace" font-size="12.00">Modifier: .async_kw</text>
</g>
<!-- async_check&#45;&gt;modifier_async -->
<g id="edge4" class="edge">
<title>async_check:w&#45;&gt;modifier_async</title>
<path fill="none" stroke="black" d="M143,-977C98.94,-977 118.7,-905.78 133.33,-865.66"/>
<polygon fill="black" stroke="black" points="136.64,-866.79 136.89,-856.2 130.09,-864.32 136.64,-866.79"/>
<text text-anchor="middle" x="128.5" y="-931.4" font-family="Courier,monospace" font-size="12.00">Yes</text>
</g>
<!-- nosuspend_check -->
<g id="node6" class="node">
<title>nosuspend_check</title>
<polygon fill="none" stroke="black" points="422,-910 231.19,-892 422,-874 612.81,-892 422,-910"/>
<text text-anchor="middle" x="422" y="-888.9" font-family="Courier,monospace" font-size="12.00">gz.nosuspend_node != .none?</text>
</g>
<!-- async_check&#45;&gt;nosuspend_check -->
<g id="edge5" class="edge">
<title>async_check:e&#45;&gt;nosuspend_check</title>
<path fill="none" stroke="black" d="M423,-977C446.46,-977 440.04,-943.84 432.04,-919.19"/>
<polygon fill="black" stroke="black" points="435.29,-917.9 428.71,-909.6 428.68,-920.19 435.29,-917.9"/>
<text text-anchor="middle" x="445" y="-931.4" font-family="Courier,monospace" font-size="12.00">No</text>
</g>
<!-- emit_dbg_stmt -->
<g id="node9" class="node">
<title>emit_dbg_stmt</title>
<polygon fill="none" stroke="black" points="387,-729 115,-729 115,-693 387,-693 387,-729"/>
<text text-anchor="middle" x="251" y="-707.9" font-family="Courier,monospace" font-size="12.00">Emit debug statement (emitDbgStmt)</text>
</g>
<!-- modifier_async&#45;&gt;emit_dbg_stmt -->
<g id="edge8" class="edge">
<title>modifier_async&#45;&gt;emit_dbg_stmt</title>
<path fill="none" stroke="black" d="M145.02,-819.97C146.7,-804.54 151.17,-781.85 163,-766 172.67,-753.04 186.46,-742.5 200.26,-734.3"/>
<polygon fill="black" stroke="black" points="202.27,-737.18 209.28,-729.24 198.85,-731.07 202.27,-737.18"/>
</g>
<!-- modifier_no_async -->
<g id="node7" class="node">
<title>modifier_no_async</title>
<polygon fill="none" stroke="black" points="330.5,-802 171.5,-802 171.5,-766 330.5,-766 330.5,-802"/>
<text text-anchor="middle" x="251" y="-780.9" font-family="Courier,monospace" font-size="12.00">Modifier: .no_async</text>
</g>
<!-- nosuspend_check&#45;&gt;modifier_no_async -->
<g id="edge6" class="edge">
<title>nosuspend_check:w&#45;&gt;modifier_no_async</title>
<path fill="none" stroke="black" d="M230,-892C221.84,-892 234.19,-843.5 243.13,-811.81"/>
<polygon fill="black" stroke="black" points="246.49,-812.77 245.88,-802.19 239.76,-810.84 246.49,-812.77"/>
<text text-anchor="middle" x="251.5" y="-834.9" font-family="Courier,monospace" font-size="12.00">Yes</text>
</g>
<!-- modifier_auto -->
<g id="node8" class="node">
<title>modifier_auto</title>
<polygon fill="none" stroke="black" points="577.5,-802 448.5,-802 448.5,-766 577.5,-766 577.5,-802"/>
<text text-anchor="middle" x="513" y="-780.9" font-family="Courier,monospace" font-size="12.00">Modifier: .auto</text>
</g>
<!-- nosuspend_check&#45;&gt;modifier_auto -->
<g id="edge7" class="edge">
<title>nosuspend_check:e&#45;&gt;modifier_auto</title>
<path fill="none" stroke="black" d="M614,-892C659.84,-892 591.8,-839.43 547,-807.99"/>
<polygon fill="black" stroke="black" points="548.87,-805.03 538.66,-802.19 544.88,-810.77 548.87,-805.03"/>
<text text-anchor="middle" x="614" y="-834.9" font-family="Courier,monospace" font-size="12.00">No</text>
</g>
<!-- modifier_no_async&#45;&gt;emit_dbg_stmt -->
<g id="edge9" class="edge">
<title>modifier_no_async&#45;&gt;emit_dbg_stmt</title>
<path fill="none" stroke="black" d="M251,-765.81C251,-757.79 251,-748.05 251,-739.07"/>
<polygon fill="black" stroke="black" points="254.5,-739.03 251,-729.03 247.5,-739.03 254.5,-739.03"/>
</g>
<!-- modifier_auto&#45;&gt;emit_dbg_stmt -->
<g id="edge10" class="edge">
<title>modifier_auto&#45;&gt;emit_dbg_stmt</title>
<path fill="none" stroke="black" d="M450.24,-765.99C412.28,-755.71 363.72,-742.55 324.04,-731.79"/>
<polygon fill="black" stroke="black" points="324.72,-728.35 314.15,-729.11 322.89,-735.11 324.72,-728.35"/>
</g>
<!-- validate_callee -->
<g id="node10" class="node">
<title>validate_callee</title>
<polygon fill="none" stroke="black" points="390.5,-656 111.5,-656 111.5,-620 390.5,-620 390.5,-656"/>
<text text-anchor="middle" x="251" y="-634.9" font-family="Courier,monospace" font-size="12.00">Validate callee type (direct/field)</text>
</g>
<!-- emit_dbg_stmt&#45;&gt;validate_callee -->
<g id="edge11" class="edge">
<title>emit_dbg_stmt&#45;&gt;validate_callee</title>
<path fill="none" stroke="black" d="M251,-692.81C251,-684.79 251,-675.05 251,-666.07"/>
<polygon fill="black" stroke="black" points="254.5,-666.03 251,-656.03 247.5,-666.03 254.5,-666.03"/>
</g>
<!-- create_call_inst -->
<g id="node11" class="node">
<title>create_call_inst</title>
<polygon fill="none" stroke="black" points="375.5,-583 126.5,-583 126.5,-547 375.5,-547 375.5,-583"/>
<text text-anchor="middle" x="251" y="-561.9" font-family="Courier,monospace" font-size="12.00">Create call_index and call_inst</text>
</g>
<!-- validate_callee&#45;&gt;create_call_inst -->
<g id="edge12" class="edge">
<title>validate_callee&#45;&gt;create_call_inst</title>
<path fill="none" stroke="black" d="M251,-619.81C251,-611.79 251,-602.05 251,-593.07"/>
<polygon fill="black" stroke="black" points="254.5,-593.03 251,-583.03 247.5,-593.03 254.5,-593.03"/>
</g>
<!-- init_scratch -->
<g id="node12" class="node">
<title>init_scratch</title>
<polygon fill="none" stroke="black" points="349.5,-510 152.5,-510 152.5,-474 349.5,-474 349.5,-510"/>
<text text-anchor="middle" x="251" y="-488.9" font-family="Courier,monospace" font-size="12.00">Initialize scratch space</text>
</g>
<!-- create_call_inst&#45;&gt;init_scratch -->
<g id="edge13" class="edge">
<title>create_call_inst&#45;&gt;init_scratch</title>
<path fill="none" stroke="black" d="M251,-546.81C251,-538.79 251,-529.05 251,-520.07"/>
<polygon fill="black" stroke="black" points="254.5,-520.03 251,-510.03 247.5,-520.03 254.5,-520.03"/>
</g>
<!-- loop_params -->
<g id="node13" class="node">
<title>loop_params</title>
<polygon fill="none" stroke="black" points="251,-437 53.26,-419 251,-401 448.74,-419 251,-437"/>
<text text-anchor="middle" x="251" y="-415.9" font-family="Courier,monospace" font-size="12.00">Loop through call.ast.params</text>
</g>
<!-- init_scratch&#45;&gt;loop_params -->
<g id="edge14" class="edge">
<title>init_scratch&#45;&gt;loop_params</title>
<path fill="none" stroke="black" d="M251,-473.81C251,-465.79 251,-456.05 251,-447.07"/>
<polygon fill="black" stroke="black" points="254.5,-447.03 251,-437.03 247.5,-447.03 254.5,-447.03"/>
</g>
<!-- process_param -->
<g id="node14" class="node">
<title>process_param</title>
<polygon fill="none" stroke="black" points="215,-352 33,-352 33,-316 215,-316 215,-352"/>
<text text-anchor="middle" x="124" y="-330.9" font-family="Courier,monospace" font-size="12.00">Process parameter node</text>
</g>
<!-- loop_params&#45;&gt;process_param -->
<g id="edge15" class="edge">
<title>loop_params&#45;&gt;process_param</title>
<path fill="none" stroke="black" d="M170.65,-408.24C155.62,-402.93 141.4,-394.95 131,-383 126.12,-377.39 123.77,-369.93 122.79,-362.57"/>
<polygon fill="black" stroke="black" points="126.28,-362.21 122.2,-352.43 119.29,-362.62 126.28,-362.21"/>
<text text-anchor="middle" x="184" y="-373.4" font-family="Courier,monospace" font-size="12.00">For each param</text>
</g>
<!-- determine_propagate_error -->
<g id="node16" class="node">
<title>determine_propagate_error</title>
<polygon fill="none" stroke="black" points="594.5,-352 345.5,-352 345.5,-316 594.5,-316 594.5,-352"/>
<text text-anchor="middle" x="470" y="-330.9" font-family="Courier,monospace" font-size="12.00">Determine propagate_error_trace</text>
</g>
<!-- loop_params&#45;&gt;determine_propagate_error -->
<g id="edge18" class="edge">
<title>loop_params&#45;&gt;determine_propagate_error</title>
<path fill="none" stroke="black" d="M287.66,-404.11C322.53,-390.89 375.44,-370.84 415.3,-355.73"/>
<polygon fill="black" stroke="black" points="416.76,-358.92 424.87,-352.1 414.28,-352.37 416.76,-358.92"/>
<text text-anchor="middle" x="388.5" y="-373.4" font-family="Courier,monospace" font-size="12.00">Done</text>
</g>
<!-- append_body -->
<g id="node15" class="node">
<title>append_body</title>
<polygon fill="none" stroke="black" points="264,-279 0,-279 0,-243 264,-243 264,-279"/>
<text text-anchor="middle" x="132" y="-257.9" font-family="Courier,monospace" font-size="12.00">Append parameter body with fixups</text>
</g>
<!-- process_param&#45;&gt;append_body -->
<g id="edge16" class="edge">
<title>process_param&#45;&gt;append_body</title>
<path fill="none" stroke="black" d="M125.94,-315.81C126.84,-307.79 127.94,-298.05 128.95,-289.07"/>
<polygon fill="black" stroke="black" points="132.44,-289.36 130.08,-279.03 125.48,-288.57 132.44,-289.36"/>
</g>
<!-- append_body&#45;&gt;loop_params -->
<g id="edge17" class="edge">
<title>append_body&#45;&gt;loop_params</title>
<path fill="none" stroke="black" d="M176.09,-279.06C193.3,-287.75 211.79,-299.92 224,-316 240.47,-337.69 246.92,-368.59 249.43,-390.68"/>
<polygon fill="black" stroke="black" points="245.95,-391.12 250.37,-400.75 252.92,-390.46 245.95,-391.12"/>
<text text-anchor="middle" x="279" y="-330.9" font-family="Courier,monospace" font-size="12.00">Next param</text>
</g>
<!-- callee_type_check -->
<g id="node17" class="node">
<title>callee_type_check</title>
<polygon fill="none" stroke="black" points="470,-279 285.38,-261 470,-243 654.62,-261 470,-279"/>
<text text-anchor="middle" x="470" y="-257.9" font-family="Courier,monospace" font-size="12.00">callee is direct or field?</text>
</g>
<!-- determine_propagate_error&#45;&gt;callee_type_check -->
<g id="edge19" class="edge">
<title>determine_propagate_error&#45;&gt;callee_type_check</title>
<path fill="none" stroke="black" d="M470,-315.81C470,-307.79 470,-298.05 470,-289.07"/>
<polygon fill="black" stroke="black" points="473.5,-289.03 470,-279.03 466.5,-289.03 473.5,-289.03"/>
</g>
<!-- direct_case -->
<g id="node18" class="node">
<title>direct_case</title>
<polygon fill="none" stroke="black" points="423,-194 181,-194 181,-158 423,-158 423,-194"/>
<text text-anchor="middle" x="302" y="-172.9" font-family="Courier,monospace" font-size="12.00">Generate .call ZIR instruction</text>
</g>
<!-- callee_type_check&#45;&gt;direct_case -->
<g id="edge20" class="edge">
<title>callee_type_check&#45;&gt;direct_case</title>
<path fill="none" stroke="black" d="M441.12,-245.73C414.85,-232.75 375.7,-213.41 345.62,-198.55"/>
<polygon fill="black" stroke="black" points="347.11,-195.38 336.6,-194.09 344.01,-201.66 347.11,-195.38"/>
<text text-anchor="middle" x="419" y="-215.4" font-family="Courier,monospace" font-size="12.00">direct</text>
</g>
<!-- field_case -->
<g id="node19" class="node">
<title>field_case</title>
<polygon fill="none" stroke="black" points="728.5,-194 441.5,-194 441.5,-158 728.5,-158 728.5,-194"/>
<text text-anchor="middle" x="585" y="-172.9" font-family="Courier,monospace" font-size="12.00">Generate .field_call ZIR instruction</text>
</g>
<!-- callee_type_check&#45;&gt;field_case -->
<g id="edge21" class="edge">
<title>callee_type_check&#45;&gt;field_case</title>
<path fill="none" stroke="black" d="M490.83,-244.97C508.16,-232.46 533.12,-214.45 552.98,-200.11"/>
<polygon fill="black" stroke="black" points="555.09,-202.9 561.15,-194.21 550.99,-197.23 555.09,-202.9"/>
<text text-anchor="middle" x="553" y="-215.4" font-family="Courier,monospace" font-size="12.00">field</text>
</g>
<!-- return_result -->
<g id="node20" class="node">
<title>return_result</title>
<polygon fill="none" stroke="black" points="549,-121 337,-121 337,-85 549,-85 549,-121"/>
<text text-anchor="middle" x="443" y="-99.9" font-family="Courier,monospace" font-size="12.00">Return result via rvalue()</text>
</g>
<!-- direct_case&#45;&gt;return_result -->
<g id="edge22" class="edge">
<title>direct_case&#45;&gt;return_result</title>
<path fill="none" stroke="black" d="M335.77,-157.99C354.99,-148.32 379.26,-136.1 399.85,-125.73"/>
<polygon fill="black" stroke="black" points="401.66,-128.74 409.01,-121.11 398.51,-122.49 401.66,-128.74"/>
</g>
<!-- field_case&#45;&gt;return_result -->
<g id="edge23" class="edge">
<title>field_case&#45;&gt;return_result</title>
<path fill="none" stroke="black" d="M550.99,-157.99C531.55,-148.27 506.97,-135.99 486.18,-125.59"/>
<polygon fill="black" stroke="black" points="487.74,-122.46 477.23,-121.11 484.61,-128.72 487.74,-122.46"/>
</g>
<!-- end -->
<g id="node21" class="node">
<title>end</title>
<polygon fill="none" stroke="black" points="470,-36 416,-36 416,0 470,0 470,-36"/>
<text text-anchor="middle" x="443" y="-14.9" font-family="Courier,monospace" font-size="12.00">end</text>
</g>
<!-- return_result&#45;&gt;end -->
<g id="edge24" class="edge">
<title>return_result&#45;&gt;end</title>
<path fill="none" stroke="black" d="M443,-84.8C443,-73.67 443,-58.94 443,-46.24"/>
<polygon fill="black" stroke="black" points="446.5,-46.18 443,-36.18 439.5,-46.18 446.5,-46.18"/>
<text text-anchor="middle" x="454.5" y="-57.4" font-family="Courier,monospace" font-size="12.00">End</text>
</g>
</g>
</svg>
