<?xml version="1.0" encoding="UTF-8" standalone="no"?>
<!DOCTYPE svg PUBLIC "-//W3C//DTD SVG 1.1//EN"
 "http://www.w3.org/Graphics/SVG/1.1/DTD/svg11.dtd">
<!-- Generated by graphviz version 2.43.0 (0)
 -->
<!-- Title: flowchart Pages: 1 -->
<svg width="1560pt" height="366pt"
 viewBox="0.00 0.00 1559.50 366.00" xmlns="http://www.w3.org/2000/svg" xmlns:xlink="http://www.w3.org/1999/xlink">
<g id="graph0" class="graph" transform="scale(1 1) rotate(0) translate(4 362)">
<title>flowchart</title>
<polygon fill="white" stroke="transparent" points="-4,4 -4,-362 1555.5,-362 1555.5,4 -4,4"/>
<!-- start -->
<g id="node1" class="node">
<title>start</title>
<path fill="none" stroke="black" d="M832,-358C832,-358 652,-358 652,-358 646,-358 640,-352 640,-346 640,-346 640,-334 640,-334 640,-328 646,-322 652,-322 652,-322 832,-322 832,-322 838,-322 844,-328 844,-334 844,-334 844,-346 844,-346 844,-352 838,-358 832,-358"/>
<text text-anchor="middle" x="742" y="-336.3" font-family="Helvetica,sans-Serif" font-size="14.00">Start: lastToken(tree, node)</text>
</g>
<!-- loop -->
<g id="node2" class="node">
<title>loop</title>
<path fill="none" stroke="black" d="M799,-285C799,-285 685,-285 685,-285 679,-285 673,-279 673,-273 673,-273 673,-261 673,-261 673,-255 679,-249 685,-249 685,-249 799,-249 799,-249 805,-249 811,-255 811,-261 811,-261 811,-273 811,-273 811,-279 805,-285 799,-285"/>
<text text-anchor="middle" x="742" y="-263.3" font-family="Helvetica,sans-Serif" font-size="14.00">Loop: while (true)</text>
</g>
<!-- start&#45;&gt;loop -->
<g id="edge1" class="edge">
<title>start&#45;&gt;loop</title>
<path fill="none" stroke="black" d="M742,-321.81C742,-313.79 742,-304.05 742,-295.07"/>
<polygon fill="black" stroke="black" points="745.5,-295.03 742,-285.03 738.5,-295.03 745.5,-295.03"/>
</g>
<!-- switch -->
<g id="node3" class="node">
<title>switch</title>
<path fill="none" stroke="black" d="M818,-212C818,-212 666,-212 666,-212 660,-212 654,-206 654,-200 654,-200 654,-188 654,-188 654,-182 660,-176 666,-176 666,-176 818,-176 818,-176 824,-176 830,-182 830,-188 830,-188 830,-200 830,-200 830,-206 824,-212 818,-212"/>
<text text-anchor="middle" x="742" y="-190.3" font-family="Helvetica,sans-Serif" font-size="14.00">Switch tree.nodeTag(n)</text>
</g>
<!-- loop&#45;&gt;switch -->
<g id="edge2" class="edge">
<title>loop&#45;&gt;switch</title>
<path fill="none" stroke="black" d="M742,-248.81C742,-240.79 742,-231.05 742,-222.07"/>
<polygon fill="black" stroke="black" points="745.5,-222.03 742,-212.03 738.5,-222.03 745.5,-222.03"/>
</g>
<!-- root -->
<g id="node4" class="node">
<title>root</title>
<path fill="none" stroke="black" d="M813.5,-125C813.5,-125 676.5,-125 676.5,-125 670.5,-125 664.5,-119 664.5,-113 664.5,-113 664.5,-99 664.5,-99 664.5,-93 670.5,-87 676.5,-87 676.5,-87 813.5,-87 813.5,-87 819.5,-87 825.5,-93 825.5,-99 825.5,-99 825.5,-113 825.5,-113 825.5,-119 819.5,-125 813.5,-125"/>
<text text-anchor="middle" x="745" y="-109.8" font-family="Helvetica,sans-Serif" font-size="14.00">Case .root</text>
<text text-anchor="middle" x="745" y="-94.8" font-family="Helvetica,sans-Serif" font-size="14.00">Return tokens.len &#45; 1</text>
</g>
<!-- switch&#45;&gt;root -->
<g id="edge3" class="edge">
<title>switch&#45;&gt;root</title>
<path fill="none" stroke="black" d="M742.19,-175.87C742.34,-166.22 742.59,-153.93 743,-143 743.09,-140.57 743.2,-138.05 743.32,-135.53"/>
<polygon fill="black" stroke="black" points="746.83,-135.48 743.86,-125.31 739.84,-135.11 746.83,-135.48"/>
<text text-anchor="middle" x="759" y="-146.8" font-family="Helvetica,sans-Serif" font-size="14.00">.root</text>
</g>
<!-- usingnamespace_group -->
<g id="node5" class="node">
<title>usingnamespace_group</title>
<path fill="none" stroke="black" d="M1342,-125C1342,-125 1082,-125 1082,-125 1076,-125 1070,-119 1070,-113 1070,-113 1070,-99 1070,-99 1070,-93 1076,-87 1082,-87 1082,-87 1342,-87 1342,-87 1348,-87 1354,-93 1354,-99 1354,-99 1354,-113 1354,-113 1354,-119 1348,-125 1342,-125"/>
<text text-anchor="middle" x="1212" y="-109.8" font-family="Helvetica,sans-Serif" font-size="14.00">Cases: .usingnamespace, .bool_not, ...</text>
<text text-anchor="middle" x="1212" y="-94.8" font-family="Helvetica,sans-Serif" font-size="14.00">n = nodeData(n).node</text>
</g>
<!-- switch&#45;&gt;usingnamespace_group -->
<g id="edge5" class="edge">
<title>switch&#45;&gt;usingnamespace_group</title>
<path fill="none" stroke="black" d="M830.36,-179.89C864.25,-174.17 903.13,-166.75 938,-158 958.86,-152.76 963.09,-148.03 984,-143 1010.03,-136.74 1037.99,-131.3 1065.12,-126.67"/>
<polygon fill="black" stroke="black" points="1065.78,-130.11 1075.07,-125.01 1064.63,-123.21 1065.78,-130.11"/>
<text text-anchor="middle" x="1090.5" y="-146.8" font-family="Helvetica,sans-Serif" font-size="14.00">.usingnamespace, .bool_not,...</text>
</g>
<!-- catch_group -->
<g id="node6" class="node">
<title>catch_group</title>
<path fill="none" stroke="black" d="M634,-125C634,-125 392,-125 392,-125 386,-125 380,-119 380,-113 380,-113 380,-99 380,-99 380,-93 386,-87 392,-87 392,-87 634,-87 634,-87 640,-87 646,-93 646,-99 646,-99 646,-113 646,-113 646,-119 640,-125 634,-125"/>
<text text-anchor="middle" x="513" y="-109.8" font-family="Helvetica,sans-Serif" font-size="14.00">Cases: .catch, .equal_equal, ...</text>
<text text-anchor="middle" x="513" y="-94.8" font-family="Helvetica,sans-Serif" font-size="14.00">n = nodeData(n).node_and_node[1]</text>
</g>
<!-- switch&#45;&gt;catch_group -->
<g id="edge7" class="edge">
<title>switch&#45;&gt;catch_group</title>
<path fill="none" stroke="black" d="M653.91,-180.65C629.93,-175.45 604.4,-168.16 582,-158 567.23,-151.3 552.54,-141.07 540.54,-131.53"/>
<polygon fill="black" stroke="black" points="542.64,-128.73 532.69,-125.09 538.2,-134.14 542.64,-128.73"/>
<text text-anchor="middle" x="660.5" y="-146.8" font-family="Helvetica,sans-Serif" font-size="14.00">.catch, .equal_equal,...</text>
</g>
<!-- test_decl_group -->
<g id="node7" class="node">
<title>test_decl_group</title>
<path fill="none" stroke="black" d="M1040,-125C1040,-125 856,-125 856,-125 850,-125 844,-119 844,-113 844,-113 844,-99 844,-99 844,-93 850,-87 856,-87 856,-87 1040,-87 1040,-87 1046,-87 1052,-93 1052,-99 1052,-99 1052,-113 1052,-113 1052,-119 1046,-125 1040,-125"/>
<text text-anchor="middle" x="948" y="-109.8" font-family="Helvetica,sans-Serif" font-size="14.00">Cases: .test_decl, .errdefer</text>
<text text-anchor="middle" x="948" y="-94.8" font-family="Helvetica,sans-Serif" font-size="14.00">n = opt_token_and_node[1]</text>
</g>
<!-- switch&#45;&gt;test_decl_group -->
<g id="edge9" class="edge">
<title>switch&#45;&gt;test_decl_group</title>
<path fill="none" stroke="black" d="M757.03,-175.76C767.47,-164.82 782.3,-151.22 798,-143 809.34,-137.06 821.68,-132.09 834.25,-127.92"/>
<polygon fill="black" stroke="black" points="835.4,-131.23 843.89,-124.89 833.3,-124.55 835.4,-131.23"/>
<text text-anchor="middle" x="866" y="-146.8" font-family="Helvetica,sans-Serif" font-size="14.00">.test_decl, .errdefer</text>
</g>
<!-- return_group -->
<g id="node8" class="node">
<title>return_group</title>
<path fill="none" stroke="black" d="M152,-125C152,-125 12,-125 12,-125 6,-125 0,-119 0,-113 0,-113 0,-99 0,-99 0,-93 6,-87 12,-87 12,-87 152,-87 152,-87 158,-87 164,-93 164,-99 164,-99 164,-113 164,-113 164,-119 158,-125 152,-125"/>
<text text-anchor="middle" x="82" y="-109.8" font-family="Helvetica,sans-Serif" font-size="14.00">Case .return</text>
<text text-anchor="middle" x="82" y="-94.8" font-family="Helvetica,sans-Serif" font-size="14.00">Handle optional node</text>
</g>
<!-- switch&#45;&gt;return_group -->
<g id="edge11" class="edge">
<title>switch&#45;&gt;return_group</title>
<path fill="none" stroke="black" d="M653.62,-188.61C569.56,-183.71 439.71,-174.24 328,-158 274.1,-150.16 214.26,-137.84 167.09,-127.27"/>
<polygon fill="black" stroke="black" points="167.75,-123.83 157.22,-125.04 166.21,-130.66 167.75,-123.83"/>
<text text-anchor="middle" x="351.5" y="-146.8" font-family="Helvetica,sans-Serif" font-size="14.00">.return</text>
</g>
<!-- call_group -->
<g id="node9" class="node">
<title>call_group</title>
<path fill="none" stroke="black" d="M1539.5,-125C1539.5,-125 1384.5,-125 1384.5,-125 1378.5,-125 1372.5,-119 1372.5,-113 1372.5,-113 1372.5,-99 1372.5,-99 1372.5,-93 1378.5,-87 1384.5,-87 1384.5,-87 1539.5,-87 1539.5,-87 1545.5,-87 1551.5,-93 1551.5,-99 1551.5,-99 1551.5,-113 1551.5,-113 1551.5,-119 1545.5,-125 1539.5,-125"/>
<text text-anchor="middle" x="1462" y="-109.8" font-family="Helvetica,sans-Serif" font-size="14.00">Cases: .call, .async_call</text>
<text text-anchor="middle" x="1462" y="-94.8" font-family="Helvetica,sans-Serif" font-size="14.00">Process parameters</text>
</g>
<!-- switch&#45;&gt;call_group -->
<g id="edge14" class="edge">
<title>switch&#45;&gt;call_group</title>
<path fill="none" stroke="black" d="M830.31,-189.33C922.97,-184.77 1072.7,-175.37 1201,-158 1258.48,-150.22 1322.39,-137.79 1372.59,-127.16"/>
<polygon fill="black" stroke="black" points="1373.39,-130.56 1382.44,-125.05 1371.93,-123.72 1373.39,-130.56"/>
<text text-anchor="middle" x="1344" y="-146.8" font-family="Helvetica,sans-Serif" font-size="14.00">.call, .async_call</text>
</g>
<!-- other_cases -->
<g id="node11" class="node">
<title>other_cases</title>
<path fill="none" stroke="black" d="M349.5,-124C349.5,-124 194.5,-124 194.5,-124 188.5,-124 182.5,-118 182.5,-112 182.5,-112 182.5,-100 182.5,-100 182.5,-94 188.5,-88 194.5,-88 194.5,-88 349.5,-88 349.5,-88 355.5,-88 361.5,-94 361.5,-100 361.5,-100 361.5,-112 361.5,-112 361.5,-118 355.5,-124 349.5,-124"/>
<text text-anchor="middle" x="272" y="-102.3" font-family="Helvetica,sans-Serif" font-size="14.00">Other cases handling...</text>
</g>
<!-- switch&#45;&gt;other_cases -->
<g id="edge16" class="edge">
<title>switch&#45;&gt;other_cases</title>
<path fill="none" stroke="black" d="M653.74,-187.66C591.3,-182.76 505.89,-173.79 432,-158 396.37,-150.39 357.39,-138.05 326.83,-127.42"/>
<polygon fill="black" stroke="black" points="327.82,-124.06 317.22,-124.04 325.49,-130.66 327.82,-124.06"/>
<text text-anchor="middle" x="493" y="-146.8" font-family="Helvetica,sans-Serif" font-size="14.00">Other node types</text>
</g>
<!-- return_token -->
<g id="node10" class="node">
<title>return_token</title>
<ellipse fill="none" stroke="black" cx="272" cy="-18" rx="128.88" ry="18"/>
<text text-anchor="middle" x="272" y="-14.3" font-family="Helvetica,sans-Serif" font-size="14.00">Return token + end_offset</text>
</g>
<!-- root&#45;&gt;return_token -->
<g id="edge4" class="edge">
<title>root&#45;&gt;return_token</title>
<path fill="none" stroke="black" d="M664.06,-88.73C661,-88.14 657.98,-87.56 655,-87 554.18,-67.97 438.13,-47.58 360.44,-34.14"/>
<polygon fill="black" stroke="black" points="360.66,-30.63 350.21,-32.38 359.47,-37.53 360.66,-30.63"/>
</g>
<!-- usingnamespace_group&#45;&gt;loop -->
<g id="edge6" class="edge">
<title>usingnamespace_group&#45;&gt;loop</title>
<path fill="none" stroke="black" d="M1211.07,-125.4C1209.55,-136.32 1205.84,-149.62 1197,-158 1143.53,-208.71 937.13,-241.8 821.55,-256.77"/>
<polygon fill="black" stroke="black" points="820.82,-253.34 811.34,-258.08 821.7,-260.28 820.82,-253.34"/>
</g>
<!-- catch_group&#45;&gt;loop -->
<g id="edge8" class="edge">
<title>catch_group&#45;&gt;loop</title>
<path fill="none" stroke="black" d="M525.26,-125.35C532.77,-135.72 543.02,-148.47 554,-158 596.38,-194.77 653.14,-225.33 693.17,-244.45"/>
<polygon fill="black" stroke="black" points="691.92,-247.73 702.46,-248.83 694.9,-241.4 691.92,-247.73"/>
</g>
<!-- test_decl_group&#45;&gt;loop -->
<g id="edge10" class="edge">
<title>test_decl_group&#45;&gt;loop</title>
<path fill="none" stroke="black" d="M946.49,-125.05C944.82,-135.57 941.33,-148.58 934,-158 901.37,-199.96 847.58,-228.2 805.22,-245.24"/>
<polygon fill="black" stroke="black" points="803.86,-242.01 795.82,-248.91 806.41,-248.53 803.86,-242.01"/>
</g>
<!-- return_group&#45;&gt;loop -->
<g id="edge12" class="edge">
<title>return_group&#45;&gt;loop</title>
<path fill="none" stroke="black" d="M109.35,-125.14C147.27,-149.33 218.77,-191.45 286,-212 414.05,-251.13 570.35,-262.16 662.72,-265.12"/>
<polygon fill="black" stroke="black" points="662.74,-268.62 672.84,-265.42 662.95,-261.62 662.74,-268.62"/>
<text text-anchor="middle" x="349" y="-190.3" font-family="Helvetica,sans-Serif" font-size="14.00">Has optional node</text>
</g>
<!-- return_group&#45;&gt;return_token -->
<g id="edge13" class="edge">
<title>return_group&#45;&gt;return_token</title>
<path fill="none" stroke="black" d="M102.13,-86.8C115.02,-75.96 132.56,-62.67 150,-54 164.08,-47 179.79,-41.18 195.13,-36.43"/>
<polygon fill="black" stroke="black" points="196.55,-39.66 205.14,-33.46 194.55,-32.95 196.55,-39.66"/>
<text text-anchor="middle" x="209" y="-57.8" font-family="Helvetica,sans-Serif" font-size="14.00">No optional node</text>
</g>
<!-- call_group&#45;&gt;loop -->
<g id="edge15" class="edge">
<title>call_group&#45;&gt;loop</title>
<path fill="none" stroke="black" d="M1446.25,-125.02C1435.46,-136.22 1420.22,-149.96 1404,-158 1302.7,-208.19 974.25,-244.38 821.48,-258.93"/>
<polygon fill="black" stroke="black" points="820.86,-255.47 811.24,-259.89 821.52,-262.44 820.86,-255.47"/>
<text text-anchor="middle" x="1440" y="-190.3" font-family="Helvetica,sans-Serif" font-size="14.00">Update n and end_offset</text>
</g>
<!-- other_cases&#45;&gt;loop -->
<g id="edge18" class="edge">
<title>other_cases&#45;&gt;loop</title>
<path fill="none" stroke="black" d="M305.09,-124.19C325.14,-134.4 351.33,-147.39 375,-158 433.59,-184.27 447.76,-192.69 509,-212 559.55,-227.94 617.61,-241.4 663.13,-250.9"/>
<polygon fill="black" stroke="black" points="662.44,-254.34 672.94,-252.93 663.85,-247.48 662.44,-254.34"/>
<text text-anchor="middle" x="541" y="-190.3" font-family="Helvetica,sans-Serif" font-size="14.00">Update n</text>
</g>
<!-- other_cases&#45;&gt;return_token -->
<g id="edge17" class="edge">
<title>other_cases&#45;&gt;return_token</title>
<path fill="none" stroke="black" d="M272,-87.6C272,-75.75 272,-59.82 272,-46.29"/>
<polygon fill="black" stroke="black" points="275.5,-46.08 272,-36.08 268.5,-46.08 275.5,-46.08"/>
<text text-anchor="middle" x="316" y="-57.8" font-family="Helvetica,sans-Serif" font-size="14.00">Direct return</text>
</g>
</g>
</svg>
