<?xml version="1.0" encoding="UTF-8" standalone="no"?>
<!DOCTYPE svg PUBLIC "-//W3C//DTD SVG 1.1//EN"
 "http://www.w3.org/Graphics/SVG/1.1/DTD/svg11.dtd">
<!-- Generated by graphviz version 2.43.0 (0)
 -->
<!-- Title: SerializerFlow Pages: 1 -->
<svg width="1587pt" height="759pt"
 viewBox="0.00 0.00 1587.00 759.00" xmlns="http://www.w3.org/2000/svg" xmlns:xlink="http://www.w3.org/1999/xlink">
<g id="graph0" class="graph" transform="scale(1 1) rotate(0) translate(4 755)">
<title>SerializerFlow</title>
<polygon fill="white" stroke="transparent" points="-4,4 -4,-755 1583,-755 1583,4 -4,4"/>
<!-- start -->
<g id="node1" class="node">
<title>start</title>
<ellipse fill="pink" stroke="black" cx="583.5" cy="-733" rx="100.18" ry="18"/>
<text text-anchor="middle" x="583.5" y="-729.3" font-family="Times,serif" font-size="14.00">Start Serializer.init</text>
</g>
<!-- init -->
<g id="node2" class="node">
<title>init</title>
<path fill="lightblue" stroke="black" d="M664,-678C664,-678 503,-678 503,-678 497,-678 491,-672 491,-666 491,-666 491,-652 491,-652 491,-646 497,-640 503,-640 503,-640 664,-640 664,-640 670,-640 676,-646 676,-652 676,-652 676,-666 676,-666 676,-672 670,-678 664,-678"/>
<text text-anchor="middle" x="583.5" y="-662.8" font-family="Times,serif" font-size="14.00">Initialize Serializer</text>
<text text-anchor="middle" x="583.5" y="-647.8" font-family="Times,serif" font-size="14.00">with writer and options</text>
</g>
<!-- start&#45;&gt;init -->
<g id="edge1" class="edge">
<title>start&#45;&gt;init</title>
<path fill="none" stroke="black" d="M583.5,-714.94C583.5,-706.99 583.5,-697.31 583.5,-688.31"/>
<polygon fill="black" stroke="black" points="587,-688.2 583.5,-678.2 580,-688.2 587,-688.2"/>
</g>
<!-- value -->
<g id="node3" class="node">
<title>value</title>
<path fill="lightblue" stroke="black" d="M604,-603C604,-603 563,-603 563,-603 557,-603 551,-597 551,-591 551,-591 551,-579 551,-579 551,-573 557,-567 563,-567 563,-567 604,-567 604,-567 610,-567 616,-573 616,-579 616,-579 616,-591 616,-591 616,-597 610,-603 604,-603"/>
<text text-anchor="middle" x="583.5" y="-581.3" font-family="Times,serif" font-size="14.00">value()</text>
</g>
<!-- init&#45;&gt;value -->
<g id="edge2" class="edge">
<title>init&#45;&gt;value</title>
<path fill="none" stroke="black" d="M583.5,-639.83C583.5,-631.89 583.5,-622.41 583.5,-613.63"/>
<polygon fill="black" stroke="black" points="587,-613.42 583.5,-603.42 580,-613.42 587,-613.42"/>
</g>
<!-- type_check -->
<g id="node4" class="node">
<title>type_check</title>
<path fill="lightblue" stroke="black" d="M571.61,-528.37C571.61,-528.37 464.01,-513.63 464.01,-513.63 458.07,-512.81 458.07,-511.19 464.01,-510.37 464.01,-510.37 571.61,-495.63 571.61,-495.63 577.56,-494.81 589.44,-494.81 595.39,-495.63 595.39,-495.63 702.99,-510.37 702.99,-510.37 708.93,-511.19 708.93,-512.81 702.99,-513.63 702.99,-513.63 595.39,-528.37 595.39,-528.37 589.44,-529.19 577.56,-529.19 571.61,-528.37"/>
<text text-anchor="middle" x="583.5" y="-508.3" font-family="Times,serif" font-size="14.00">Check Type of val</text>
</g>
<!-- value&#45;&gt;type_check -->
<g id="edge3" class="edge">
<title>value&#45;&gt;type_check</title>
<path fill="none" stroke="black" d="M583.5,-566.81C583.5,-558.79 583.5,-549.05 583.5,-540.07"/>
<polygon fill="black" stroke="black" points="587,-540.03 583.5,-530.03 580,-540.03 587,-540.03"/>
</g>
<!-- handle_int -->
<g id="node5" class="node">
<title>handle_int</title>
<path fill="lightblue" stroke="black" d="M113,-387C113,-387 12,-387 12,-387 6,-387 0,-381 0,-375 0,-375 0,-361 0,-361 0,-355 6,-349 12,-349 12,-349 113,-349 113,-349 119,-349 125,-355 125,-361 125,-361 125,-375 125,-375 125,-381 119,-387 113,-387"/>
<text text-anchor="middle" x="62.5" y="-371.8" font-family="Times,serif" font-size="14.00">int()</text>
<text text-anchor="middle" x="62.5" y="-356.8" font-family="Times,serif" font-size="14.00">Format integer</text>
</g>
<!-- type_check&#45;&gt;handle_int -->
<g id="edge4" class="edge">
<title>type_check&#45;&gt;handle_int</title>
<path fill="none" stroke="black" d="M453.04,-511.84C299.73,-511.43 62.54,-505.88 34.5,-476 14.23,-454.39 28.56,-419.97 43.15,-396.02"/>
<polygon fill="black" stroke="black" points="46.23,-397.71 48.69,-387.4 40.34,-393.93 46.23,-397.71"/>
<text text-anchor="middle" x="95" y="-464.8" font-family="Times,serif" font-size="14.00">int/comptime_int</text>
</g>
<!-- handle_float -->
<g id="node6" class="node">
<title>handle_float</title>
<path fill="lightblue" stroke="black" d="M211.5,-275C211.5,-275 131.5,-275 131.5,-275 125.5,-275 119.5,-269 119.5,-263 119.5,-263 119.5,-249 119.5,-249 119.5,-243 125.5,-237 131.5,-237 131.5,-237 211.5,-237 211.5,-237 217.5,-237 223.5,-243 223.5,-249 223.5,-249 223.5,-263 223.5,-263 223.5,-269 217.5,-275 211.5,-275"/>
<text text-anchor="middle" x="171.5" y="-259.8" font-family="Times,serif" font-size="14.00">float()</text>
<text text-anchor="middle" x="171.5" y="-244.8" font-family="Times,serif" font-size="14.00">Format float</text>
</g>
<!-- type_check&#45;&gt;handle_float -->
<g id="edge5" class="edge">
<title>type_check&#45;&gt;handle_float</title>
<path fill="none" stroke="black" d="M480.65,-508.02C375.06,-502.55 221.02,-487.03 183.5,-443 145.84,-398.8 155.08,-325.16 163.98,-285.08"/>
<polygon fill="black" stroke="black" points="167.42,-285.72 166.32,-275.19 160.61,-284.11 167.42,-285.72"/>
<text text-anchor="middle" x="256" y="-420.3" font-family="Times,serif" font-size="14.00">float/comptime_float</text>
</g>
<!-- handle_bool_null -->
<g id="node7" class="node">
<title>handle_bool_null</title>
<path fill="lightblue" stroke="black" d="M327.5,-163C327.5,-163 217.5,-163 217.5,-163 211.5,-163 205.5,-157 205.5,-151 205.5,-151 205.5,-139 205.5,-139 205.5,-133 211.5,-127 217.5,-127 217.5,-127 327.5,-127 327.5,-127 333.5,-127 339.5,-133 339.5,-139 339.5,-139 339.5,-151 339.5,-151 339.5,-157 333.5,-163 327.5,-163"/>
<text text-anchor="middle" x="272.5" y="-141.3" font-family="Times,serif" font-size="14.00">Format bool/null</text>
</g>
<!-- type_check&#45;&gt;handle_bool_null -->
<g id="edge6" class="edge">
<title>type_check&#45;&gt;handle_bool_null</title>
<path fill="none" stroke="black" d="M501.07,-505.27C449.1,-500.23 387.9,-491.26 366.5,-476 337.36,-455.21 357.29,-426.27 328.5,-405 294.99,-380.24 262.98,-419.17 236.5,-387 209.92,-354.72 245.86,-228.57 263.61,-172.78"/>
<polygon fill="black" stroke="black" points="266.96,-173.82 266.7,-163.23 260.29,-171.67 266.96,-173.82"/>
<text text-anchor="middle" x="267.5" y="-364.3" font-family="Times,serif" font-size="14.00">bool/null</text>
</g>
<!-- handle_enum -->
<g id="node8" class="node">
<title>handle_enum</title>
<path fill="lightblue" stroke="black" d="M409,-387C409,-387 320,-387 320,-387 314,-387 308,-381 308,-375 308,-375 308,-361 308,-361 308,-355 314,-349 320,-349 320,-349 409,-349 409,-349 415,-349 421,-355 421,-361 421,-361 421,-375 421,-375 421,-381 415,-387 409,-387"/>
<text text-anchor="middle" x="364.5" y="-371.8" font-family="Times,serif" font-size="14.00">ident()</text>
<text text-anchor="middle" x="364.5" y="-356.8" font-family="Times,serif" font-size="14.00">Format enum</text>
</g>
<!-- type_check&#45;&gt;handle_enum -->
<g id="edge7" class="edge">
<title>type_check&#45;&gt;handle_enum</title>
<path fill="none" stroke="black" d="M495.92,-505.96C448.65,-501.35 396.72,-492.59 380.5,-476 360.48,-455.53 358.63,-421.5 360.41,-397.31"/>
<polygon fill="black" stroke="black" points="363.9,-397.59 361.39,-387.3 356.93,-396.91 363.9,-397.59"/>
<text text-anchor="middle" x="447.5" y="-464.8" font-family="Times,serif" font-size="14.00">enum/enum_literal</text>
</g>
<!-- handle_pointer -->
<g id="node9" class="node">
<title>handle_pointer</title>
<path fill="lightblue" stroke="black" d="M688.5,-442C688.5,-442 560.5,-442 560.5,-442 554.5,-442 548.5,-436 548.5,-430 548.5,-430 548.5,-418 548.5,-418 548.5,-412 554.5,-406 560.5,-406 560.5,-406 688.5,-406 688.5,-406 694.5,-406 700.5,-412 700.5,-418 700.5,-418 700.5,-430 700.5,-430 700.5,-436 694.5,-442 688.5,-442"/>
<text text-anchor="middle" x="624.5" y="-420.3" font-family="Times,serif" font-size="14.00">Check pointer type</text>
</g>
<!-- type_check&#45;&gt;handle_pointer -->
<g id="edge8" class="edge">
<title>type_check&#45;&gt;handle_pointer</title>
<path fill="none" stroke="black" d="M591.92,-495.06C595,-489.11 598.47,-482.28 601.5,-476 605.34,-468.04 609.36,-459.29 612.94,-451.33"/>
<polygon fill="black" stroke="black" points="616.18,-452.66 617.05,-442.1 609.78,-449.81 616.18,-452.66"/>
<text text-anchor="middle" x="634.5" y="-464.8" font-family="Times,serif" font-size="14.00">pointer</text>
</g>
<!-- handle_array -->
<g id="node10" class="node">
<title>handle_array</title>
<path fill="lightblue" stroke="black" d="M833.5,-331C833.5,-331 719.5,-331 719.5,-331 713.5,-331 707.5,-325 707.5,-319 707.5,-319 707.5,-305 707.5,-305 707.5,-299 713.5,-293 719.5,-293 719.5,-293 833.5,-293 833.5,-293 839.5,-293 845.5,-299 845.5,-305 845.5,-305 845.5,-319 845.5,-319 845.5,-325 839.5,-331 833.5,-331"/>
<text text-anchor="middle" x="776.5" y="-315.8" font-family="Times,serif" font-size="14.00">Begin Tuple</text>
<text text-anchor="middle" x="776.5" y="-300.8" font-family="Times,serif" font-size="14.00">Loop array items</text>
</g>
<!-- type_check&#45;&gt;handle_array -->
<g id="edge9" class="edge">
<title>type_check&#45;&gt;handle_array</title>
<path fill="none" stroke="black" d="M631.75,-500.51C686.42,-485.71 772.68,-452.81 809.5,-387 817.75,-372.26 815.62,-364.74 809.5,-349 808.2,-345.66 806.43,-342.44 804.38,-339.39"/>
<polygon fill="black" stroke="black" points="806.95,-337 798.02,-331.31 801.45,-341.33 806.95,-337"/>
<text text-anchor="middle" x="817" y="-420.3" font-family="Times,serif" font-size="14.00">array</text>
</g>
<!-- handle_struct -->
<g id="node11" class="node">
<title>handle_struct</title>
<path fill="lightblue" stroke="black" d="M1005.5,-443C1005.5,-443 879.5,-443 879.5,-443 873.5,-443 867.5,-437 867.5,-431 867.5,-431 867.5,-417 867.5,-417 867.5,-411 873.5,-405 879.5,-405 879.5,-405 1005.5,-405 1005.5,-405 1011.5,-405 1017.5,-411 1017.5,-417 1017.5,-417 1017.5,-431 1017.5,-431 1017.5,-437 1011.5,-443 1005.5,-443"/>
<text text-anchor="middle" x="942.5" y="-427.8" font-family="Times,serif" font-size="14.00">Check struct fields</text>
<text text-anchor="middle" x="942.5" y="-412.8" font-family="Times,serif" font-size="14.00">Begin Struct</text>
</g>
<!-- type_check&#45;&gt;handle_struct -->
<g id="edge10" class="edge">
<title>type_check&#45;&gt;handle_struct</title>
<path fill="none" stroke="black" d="M662.74,-504.8C710.3,-499.77 771.62,-490.98 824.5,-476 849.66,-468.87 876.5,-457.59 898.22,-447.44"/>
<polygon fill="black" stroke="black" points="899.98,-450.48 907.51,-443.03 896.97,-444.16 899.98,-450.48"/>
<text text-anchor="middle" x="886" y="-464.8" font-family="Times,serif" font-size="14.00">struct</text>
</g>
<!-- handle_union -->
<g id="node12" class="node">
<title>handle_union</title>
<path fill="lightblue" stroke="black" d="M1253.5,-442C1253.5,-442 1047.5,-442 1047.5,-442 1041.5,-442 1035.5,-436 1035.5,-430 1035.5,-430 1035.5,-418 1035.5,-418 1035.5,-412 1041.5,-406 1047.5,-406 1047.5,-406 1253.5,-406 1253.5,-406 1259.5,-406 1265.5,-412 1265.5,-418 1265.5,-418 1265.5,-430 1265.5,-430 1265.5,-436 1259.5,-442 1253.5,-442"/>
<text text-anchor="middle" x="1150.5" y="-420.3" font-family="Times,serif" font-size="14.00">Handle union tag and payload</text>
</g>
<!-- type_check&#45;&gt;handle_union -->
<g id="edge11" class="edge">
<title>type_check&#45;&gt;handle_union</title>
<path fill="none" stroke="black" d="M663.01,-504.85C729.62,-499.13 827.1,-489.47 911.5,-476 964.68,-467.51 1023.89,-454.9 1070.06,-444.35"/>
<polygon fill="black" stroke="black" points="1071.05,-447.71 1080.01,-442.06 1069.48,-440.89 1071.05,-447.71"/>
<text text-anchor="middle" x="1011.5" y="-464.8" font-family="Times,serif" font-size="14.00">union</text>
</g>
<!-- handle_optional -->
<g id="node13" class="node">
<title>handle_optional</title>
<path fill="lightblue" stroke="black" d="M518.5,-443C518.5,-443 420.5,-443 420.5,-443 414.5,-443 408.5,-437 408.5,-431 408.5,-431 408.5,-417 408.5,-417 408.5,-411 414.5,-405 420.5,-405 420.5,-405 518.5,-405 518.5,-405 524.5,-405 530.5,-411 530.5,-417 530.5,-417 530.5,-431 530.5,-431 530.5,-437 524.5,-443 518.5,-443"/>
<text text-anchor="middle" x="469.5" y="-427.8" font-family="Times,serif" font-size="14.00">Check optional</text>
<text text-anchor="middle" x="469.5" y="-412.8" font-family="Times,serif" font-size="14.00">value or null</text>
</g>
<!-- type_check&#45;&gt;handle_optional -->
<g id="edge12" class="edge">
<title>type_check&#45;&gt;handle_optional</title>
<path fill="none" stroke="black" d="M564.81,-496.45C551.87,-486.41 534.2,-472.81 518.5,-461 513.35,-457.13 507.87,-453.06 502.51,-449.1"/>
<polygon fill="black" stroke="black" points="504.38,-446.13 494.25,-443.02 500.23,-451.77 504.38,-446.13"/>
<text text-anchor="middle" x="567.5" y="-464.8" font-family="Times,serif" font-size="14.00">optional</text>
</g>
<!-- handle_vector -->
<g id="node14" class="node">
<title>handle_vector</title>
<path fill="lightblue" stroke="black" d="M1417,-443C1417,-443 1296,-443 1296,-443 1290,-443 1284,-437 1284,-431 1284,-431 1284,-417 1284,-417 1284,-411 1290,-405 1296,-405 1296,-405 1417,-405 1417,-405 1423,-405 1429,-411 1429,-417 1429,-417 1429,-431 1429,-431 1429,-437 1423,-443 1417,-443"/>
<text text-anchor="middle" x="1356.5" y="-427.8" font-family="Times,serif" font-size="14.00">Begin Tuple</text>
<text text-anchor="middle" x="1356.5" y="-412.8" font-family="Times,serif" font-size="14.00">Loop vector items</text>
</g>
<!-- type_check&#45;&gt;handle_vector -->
<g id="edge13" class="edge">
<title>type_check&#45;&gt;handle_vector</title>
<path fill="none" stroke="black" d="M675.51,-506.55C806.52,-499.19 1054.29,-481.49 1273.59,-443.08"/>
<polygon fill="black" stroke="black" points="1274.44,-446.49 1283.68,-441.3 1273.23,-439.59 1274.44,-446.49"/>
<text text-anchor="middle" x="1166.5" y="-464.8" font-family="Times,serif" font-size="14.00">vector</text>
</g>
<!-- end_value -->
<g id="node15" class="node">
<title>end_value</title>
<ellipse fill="pink" stroke="black" cx="449.5" cy="-18" rx="63.89" ry="18"/>
<text text-anchor="middle" x="449.5" y="-14.3" font-family="Times,serif" font-size="14.00">End value()</text>
</g>
<!-- handle_int&#45;&gt;end_value -->
<g id="edge35" class="edge">
<title>handle_int&#45;&gt;end_value</title>
<path fill="none" stroke="black" d="M67.86,-348.89C73.78,-327.23 82.5,-289.8 82.5,-257 82.5,-257 82.5,-257 82.5,-90 82.5,-30.9 268.25,-19.96 375.45,-18.56"/>
<polygon fill="black" stroke="black" points="375.61,-22.06 385.57,-18.45 375.54,-15.06 375.61,-22.06"/>
</g>
<!-- handle_float&#45;&gt;end_value -->
<g id="edge36" class="edge">
<title>handle_float&#45;&gt;end_value</title>
<path fill="none" stroke="black" d="M170.45,-236.56C169.88,-209.83 172.49,-159.93 196.5,-127 240.12,-67.17 323.7,-40.2 382.83,-28.23"/>
<polygon fill="black" stroke="black" points="383.68,-31.63 392.84,-26.3 382.36,-24.76 383.68,-31.63"/>
</g>
<!-- handle_bool_null&#45;&gt;end_value -->
<g id="edge37" class="edge">
<title>handle_bool_null&#45;&gt;end_value</title>
<path fill="none" stroke="black" d="M284.21,-126.79C298.62,-106.78 324.86,-73.95 354.5,-54 366.7,-45.79 381.08,-39.2 394.91,-34.06"/>
<polygon fill="black" stroke="black" points="396.09,-37.36 404.35,-30.73 393.76,-30.75 396.09,-37.36"/>
</g>
<!-- handle_enum&#45;&gt;end_value -->
<g id="edge38" class="edge">
<title>handle_enum&#45;&gt;end_value</title>
<path fill="none" stroke="black" d="M365.57,-348.71C366.76,-326.89 368.5,-289.3 368.5,-257 368.5,-257 368.5,-257 368.5,-90 368.5,-67.3 386.72,-50.16 405.87,-38.41"/>
<polygon fill="black" stroke="black" points="407.72,-41.39 414.68,-33.4 404.26,-35.31 407.72,-41.39"/>
</g>
<!-- handle_pointer&#45;&gt;handle_array -->
<g id="edge14" class="edge">
<title>handle_pointer&#45;&gt;handle_array</title>
<path fill="none" stroke="black" d="M679.79,-405.94C690.71,-400.96 701.55,-394.72 710.5,-387 725.45,-374.11 720.65,-363.98 733.5,-349 736.82,-345.13 740.59,-341.33 744.47,-337.74"/>
<polygon fill="black" stroke="black" points="746.8,-340.36 752.01,-331.13 742.18,-335.1 746.8,-340.36"/>
<text text-anchor="middle" x="771.5" y="-364.3" font-family="Times,serif" font-size="14.00">slice/array</text>
</g>
<!-- handle_value -->
<g id="node16" class="node">
<title>handle_value</title>
<path fill="lightblue" stroke="black" d="M677,-330C677,-330 462,-330 462,-330 456,-330 450,-324 450,-318 450,-318 450,-306 450,-306 450,-300 456,-294 462,-294 462,-294 677,-294 677,-294 683,-294 689,-300 689,-306 689,-306 689,-318 689,-318 689,-324 683,-330 677,-330"/>
<text text-anchor="middle" x="569.5" y="-308.3" font-family="Times,serif" font-size="14.00">Recursive valueArbitraryDepth</text>
</g>
<!-- handle_pointer&#45;&gt;handle_value -->
<g id="edge15" class="edge">
<title>handle_pointer&#45;&gt;handle_value</title>
<path fill="none" stroke="black" d="M591.99,-405.96C585.1,-400.8 578.66,-394.48 574.5,-387 566.65,-372.87 565.3,-354.8 565.96,-340.06"/>
<polygon fill="black" stroke="black" points="569.45,-340.25 566.73,-330.02 562.47,-339.72 569.45,-340.25"/>
<text text-anchor="middle" x="642.5" y="-364.3" font-family="Times,serif" font-size="14.00">single item pointer</text>
</g>
<!-- loop_array -->
<g id="node17" class="node">
<title>loop_array</title>
<path fill="lightblue" stroke="black" d="M693.5,-218C693.5,-218 517.5,-218 517.5,-218 511.5,-218 505.5,-212 505.5,-206 505.5,-206 505.5,-194 505.5,-194 505.5,-188 511.5,-182 517.5,-182 517.5,-182 693.5,-182 693.5,-182 699.5,-182 705.5,-188 705.5,-194 705.5,-194 705.5,-206 705.5,-206 705.5,-212 699.5,-218 693.5,-218"/>
<text text-anchor="middle" x="605.5" y="-196.3" font-family="Times,serif" font-size="14.00">fieldArbitraryDepth(item)</text>
</g>
<!-- handle_array&#45;&gt;loop_array -->
<g id="edge16" class="edge">
<title>handle_array&#45;&gt;loop_array</title>
<path fill="none" stroke="black" d="M748.26,-292.84C718.78,-273.87 672.49,-244.09 640.66,-223.62"/>
<polygon fill="black" stroke="black" points="642.39,-220.57 632.09,-218.1 638.61,-226.46 642.39,-220.57"/>
<text text-anchor="middle" x="764" y="-252.3" font-family="Times,serif" font-size="14.00">for each item</text>
</g>
<!-- check_fields -->
<g id="node19" class="node">
<title>check_fields</title>
<path fill="lightblue" stroke="black" d="M1009.5,-330C1009.5,-330 875.5,-330 875.5,-330 869.5,-330 863.5,-324 863.5,-318 863.5,-318 863.5,-306 863.5,-306 863.5,-300 869.5,-294 875.5,-294 875.5,-294 1009.5,-294 1009.5,-294 1015.5,-294 1021.5,-300 1021.5,-306 1021.5,-306 1021.5,-318 1021.5,-318 1021.5,-324 1015.5,-330 1009.5,-330"/>
<text text-anchor="middle" x="942.5" y="-308.3" font-family="Times,serif" font-size="14.00">Check default fields</text>
</g>
<!-- handle_struct&#45;&gt;check_fields -->
<g id="edge20" class="edge">
<title>handle_struct&#45;&gt;check_fields</title>
<path fill="none" stroke="black" d="M942.5,-404.84C942.5,-387.25 942.5,-360.36 942.5,-340.22"/>
<polygon fill="black" stroke="black" points="946,-340.1 942.5,-330.1 939,-340.1 946,-340.1"/>
<text text-anchor="middle" x="984" y="-364.3" font-family="Times,serif" font-size="14.00">inline fields</text>
</g>
<!-- write_tag -->
<g id="node22" class="node">
<title>write_tag</title>
<path fill="lightblue" stroke="black" d="M1209.5,-330C1209.5,-330 1103.5,-330 1103.5,-330 1097.5,-330 1091.5,-324 1091.5,-318 1091.5,-318 1091.5,-306 1091.5,-306 1091.5,-300 1097.5,-294 1103.5,-294 1103.5,-294 1209.5,-294 1209.5,-294 1215.5,-294 1221.5,-300 1221.5,-306 1221.5,-306 1221.5,-318 1221.5,-318 1221.5,-324 1215.5,-330 1209.5,-330"/>
<text text-anchor="middle" x="1156.5" y="-308.3" font-family="Times,serif" font-size="14.00">Write .tagName</text>
</g>
<!-- handle_union&#45;&gt;write_tag -->
<g id="edge25" class="edge">
<title>handle_union&#45;&gt;write_tag</title>
<path fill="none" stroke="black" d="M1151.44,-405.81C1152.4,-388.21 1153.9,-360.61 1155.02,-340.07"/>
<polygon fill="black" stroke="black" points="1158.52,-340.24 1155.57,-330.07 1151.53,-339.86 1158.52,-340.24"/>
<text text-anchor="middle" x="1166.5" y="-364.3" font-family="Times,serif" font-size="14.00">tag</text>
</g>
<!-- handle_optional&#45;&gt;end_value -->
<g id="edge29" class="edge">
<title>handle_optional&#45;&gt;end_value</title>
<path fill="none" stroke="black" d="M460.47,-404.58C446.57,-374.48 421.5,-312.5 421.5,-257 421.5,-257 421.5,-257 421.5,-90 421.5,-74.22 427.56,-57.76 434.04,-44.66"/>
<polygon fill="black" stroke="black" points="437.16,-46.25 438.75,-35.78 430.98,-42.97 437.16,-46.25"/>
<text text-anchor="middle" x="435.5" y="-196.3" font-family="Times,serif" font-size="14.00">null</text>
</g>
<!-- handle_optional&#45;&gt;handle_value -->
<g id="edge30" class="edge">
<title>handle_optional&#45;&gt;handle_value</title>
<path fill="none" stroke="black" d="M467.77,-404.91C467.2,-388.59 468.95,-364.79 481.5,-349 485.71,-343.7 490.83,-339.18 496.45,-335.32"/>
<polygon fill="black" stroke="black" points="498.28,-338.3 505.01,-330.12 494.65,-332.32 498.28,-338.3"/>
<text text-anchor="middle" x="522" y="-364.3" font-family="Times,serif" font-size="14.00">inner value</text>
</g>
<!-- loop_vector -->
<g id="node25" class="node">
<title>loop_vector</title>
<path fill="lightblue" stroke="black" d="M1455,-330C1455,-330 1254,-330 1254,-330 1248,-330 1242,-324 1242,-318 1242,-318 1242,-306 1242,-306 1242,-300 1248,-294 1254,-294 1254,-294 1455,-294 1455,-294 1461,-294 1467,-300 1467,-306 1467,-306 1467,-318 1467,-318 1467,-324 1461,-330 1455,-330"/>
<text text-anchor="middle" x="1354.5" y="-308.3" font-family="Times,serif" font-size="14.00">fieldArbitraryDepth(element)</text>
</g>
<!-- handle_vector&#45;&gt;loop_vector -->
<g id="edge31" class="edge">
<title>handle_vector&#45;&gt;loop_vector</title>
<path fill="none" stroke="black" d="M1356.17,-404.84C1355.85,-387.25 1355.36,-360.36 1354.99,-340.22"/>
<polygon fill="black" stroke="black" points="1358.49,-340.04 1354.81,-330.1 1351.49,-340.17 1358.49,-340.04"/>
<text text-anchor="middle" x="1417" y="-364.3" font-family="Times,serif" font-size="14.00">for each element</text>
</g>
<!-- handle_value&#45;&gt;end_value -->
<g id="edge39" class="edge">
<title>handle_value&#45;&gt;end_value</title>
<path fill="none" stroke="black" d="M552.08,-293.95C535.36,-276.6 510.62,-248.18 496.5,-219 468.53,-161.21 456.66,-85.81 452.07,-46.14"/>
<polygon fill="black" stroke="black" points="455.55,-45.73 450.99,-36.17 448.59,-46.49 455.55,-45.73"/>
</g>
<!-- loop_array&#45;&gt;loop_array -->
<g id="edge17" class="edge">
<title>loop_array&#45;&gt;loop_array</title>
<path fill="none" stroke="black" d="M705.79,-208.45C716.57,-206.83 723.5,-204.01 723.5,-200 723.5,-197.43 720.65,-195.35 715.78,-193.76"/>
<polygon fill="black" stroke="black" points="716.31,-190.3 705.79,-191.55 714.79,-197.13 716.31,-190.3"/>
<text text-anchor="middle" x="758" y="-196.3" font-family="Times,serif" font-size="14.00">next item</text>
</g>
<!-- end_array -->
<g id="node18" class="node">
<title>end_array</title>
<path fill="lightblue" stroke="black" d="M626.5,-109C626.5,-109 526.5,-109 526.5,-109 520.5,-109 514.5,-103 514.5,-97 514.5,-97 514.5,-85 514.5,-85 514.5,-79 520.5,-73 526.5,-73 526.5,-73 626.5,-73 626.5,-73 632.5,-73 638.5,-79 638.5,-85 638.5,-85 638.5,-97 638.5,-97 638.5,-103 632.5,-109 626.5,-109"/>
<text text-anchor="middle" x="576.5" y="-87.3" font-family="Times,serif" font-size="14.00">container.end()</text>
</g>
<!-- loop_array&#45;&gt;end_array -->
<g id="edge18" class="edge">
<title>loop_array&#45;&gt;end_array</title>
<path fill="none" stroke="black" d="M600.84,-181.81C596.25,-164.88 589.18,-138.78 583.84,-119.07"/>
<polygon fill="black" stroke="black" points="587.14,-117.88 581.15,-109.15 580.39,-119.72 587.14,-117.88"/>
<text text-anchor="middle" x="631" y="-141.3" font-family="Times,serif" font-size="14.00">end items</text>
</g>
<!-- end_array&#45;&gt;end_value -->
<g id="edge19" class="edge">
<title>end_array&#45;&gt;end_value</title>
<path fill="none" stroke="black" d="M546.08,-72.99C528.04,-62.91 505.07,-50.07 486.05,-39.43"/>
<polygon fill="black" stroke="black" points="487.51,-36.24 477.07,-34.41 484.09,-42.35 487.51,-36.24"/>
</g>
<!-- loop_struct -->
<g id="node20" class="node">
<title>loop_struct</title>
<path fill="lightblue" stroke="black" d="M996.5,-218C996.5,-218 822.5,-218 822.5,-218 816.5,-218 810.5,-212 810.5,-206 810.5,-206 810.5,-194 810.5,-194 810.5,-188 816.5,-182 822.5,-182 822.5,-182 996.5,-182 996.5,-182 1002.5,-182 1008.5,-188 1008.5,-194 1008.5,-194 1008.5,-206 1008.5,-206 1008.5,-212 1002.5,-218 996.5,-218"/>
<text text-anchor="middle" x="909.5" y="-196.3" font-family="Times,serif" font-size="14.00">fieldArbitraryDepth(field)</text>
</g>
<!-- check_fields&#45;&gt;loop_struct -->
<g id="edge21" class="edge">
<title>check_fields&#45;&gt;loop_struct</title>
<path fill="none" stroke="black" d="M937.34,-293.81C932.04,-276.13 923.71,-248.35 917.54,-227.79"/>
<polygon fill="black" stroke="black" points="920.85,-226.64 914.62,-218.07 914.14,-228.65 920.85,-226.64"/>
<text text-anchor="middle" x="970.5" y="-252.3" font-family="Times,serif" font-size="14.00">valid fields</text>
</g>
<!-- loop_struct&#45;&gt;loop_struct -->
<g id="edge22" class="edge">
<title>loop_struct&#45;&gt;loop_struct</title>
<path fill="none" stroke="black" d="M1008.51,-208.52C1019.44,-206.9 1026.5,-204.06 1026.5,-200 1026.5,-197.4 1023.6,-195.3 1018.65,-193.7"/>
<polygon fill="black" stroke="black" points="1019.03,-190.2 1008.51,-191.48 1017.53,-197.04 1019.03,-190.2"/>
<text text-anchor="middle" x="1060" y="-196.3" font-family="Times,serif" font-size="14.00">next field</text>
</g>
<!-- end_struct -->
<g id="node21" class="node">
<title>end_struct</title>
<path fill="lightblue" stroke="black" d="M840.5,-109C840.5,-109 740.5,-109 740.5,-109 734.5,-109 728.5,-103 728.5,-97 728.5,-97 728.5,-85 728.5,-85 728.5,-79 734.5,-73 740.5,-73 740.5,-73 840.5,-73 840.5,-73 846.5,-73 852.5,-79 852.5,-85 852.5,-85 852.5,-97 852.5,-97 852.5,-103 846.5,-109 840.5,-109"/>
<text text-anchor="middle" x="790.5" y="-87.3" font-family="Times,serif" font-size="14.00">container.end()</text>
</g>
<!-- loop_struct&#45;&gt;end_struct -->
<g id="edge23" class="edge">
<title>loop_struct&#45;&gt;end_struct</title>
<path fill="none" stroke="black" d="M890.38,-181.81C870.52,-163.95 839.28,-135.86 817.03,-115.86"/>
<polygon fill="black" stroke="black" points="819.35,-113.23 809.57,-109.15 814.67,-118.44 819.35,-113.23"/>
<text text-anchor="middle" x="903.5" y="-141.3" font-family="Times,serif" font-size="14.00">end fields</text>
</g>
<!-- end_struct&#45;&gt;end_value -->
<g id="edge24" class="edge">
<title>end_struct&#45;&gt;end_value</title>
<path fill="none" stroke="black" d="M728.35,-77.06C665.94,-64.06 570.44,-44.18 508.99,-31.39"/>
<polygon fill="black" stroke="black" points="509.55,-27.93 499.05,-29.32 508.13,-34.78 509.55,-27.93"/>
</g>
<!-- handle_payload -->
<g id="node23" class="node">
<title>handle_payload</title>
<path fill="lightblue" stroke="black" d="M1215.5,-219C1215.5,-219 1123.5,-219 1123.5,-219 1117.5,-219 1111.5,-213 1111.5,-207 1111.5,-207 1111.5,-193 1111.5,-193 1111.5,-187 1117.5,-181 1123.5,-181 1123.5,-181 1215.5,-181 1215.5,-181 1221.5,-181 1227.5,-187 1227.5,-193 1227.5,-193 1227.5,-207 1227.5,-207 1227.5,-213 1221.5,-219 1215.5,-219"/>
<text text-anchor="middle" x="1169.5" y="-203.8" font-family="Times,serif" font-size="14.00">Begin Struct</text>
<text text-anchor="middle" x="1169.5" y="-188.8" font-family="Times,serif" font-size="14.00">Write payload</text>
</g>
<!-- write_tag&#45;&gt;handle_payload -->
<g id="edge26" class="edge">
<title>write_tag&#45;&gt;handle_payload</title>
<path fill="none" stroke="black" d="M1158.53,-293.81C1160.57,-276.52 1163.76,-249.57 1166.17,-229.16"/>
<polygon fill="black" stroke="black" points="1169.66,-229.51 1167.35,-219.16 1162.7,-228.68 1169.66,-229.51"/>
<text text-anchor="middle" x="1211.5" y="-252.3" font-family="Times,serif" font-size="14.00">with payload</text>
</g>
<!-- end_union -->
<g id="node24" class="node">
<title>end_union</title>
<path fill="lightblue" stroke="black" d="M984,-109C984,-109 919,-109 919,-109 913,-109 907,-103 907,-97 907,-97 907,-85 907,-85 907,-79 913,-73 919,-73 919,-73 984,-73 984,-73 990,-73 996,-79 996,-85 996,-85 996,-97 996,-97 996,-103 990,-109 984,-109"/>
<text text-anchor="middle" x="951.5" y="-87.3" font-family="Times,serif" font-size="14.00">end_union</text>
</g>
<!-- handle_payload&#45;&gt;end_union -->
<g id="edge27" class="edge">
<title>handle_payload&#45;&gt;end_union</title>
<path fill="none" stroke="black" d="M1132.52,-180.85C1094.54,-162.21 1035.45,-133.2 995.19,-113.44"/>
<polygon fill="black" stroke="black" points="996.66,-110.27 986.14,-109 993.57,-116.55 996.66,-110.27"/>
<text text-anchor="middle" x="1147.5" y="-141.3" font-family="Times,serif" font-size="14.00">container.end()</text>
</g>
<!-- end_union&#45;&gt;end_value -->
<g id="edge28" class="edge">
<title>end_union&#45;&gt;end_value</title>
<path fill="none" stroke="black" d="M906.72,-81.03C892.31,-78.28 876.26,-75.36 861.5,-73 740.93,-53.73 599.69,-36.33 517.82,-26.76"/>
<polygon fill="black" stroke="black" points="517.98,-23.25 507.65,-25.57 517.17,-30.21 517.98,-23.25"/>
</g>
<!-- loop_vector&#45;&gt;loop_vector -->
<g id="edge32" class="edge">
<title>loop_vector&#45;&gt;loop_vector</title>
<path fill="none" stroke="black" d="M1467.26,-320.49C1478.12,-318.77 1485,-315.94 1485,-312 1485,-309.48 1482.18,-307.41 1477.29,-305.8"/>
<polygon fill="black" stroke="black" points="1477.79,-302.32 1467.26,-303.51 1476.23,-309.14 1477.79,-302.32"/>
<text text-anchor="middle" x="1532" y="-308.3" font-family="Times,serif" font-size="14.00">next element</text>
</g>
<!-- end_vector -->
<g id="node26" class="node">
<title>end_vector</title>
<path fill="lightblue" stroke="black" d="M1347.5,-163C1347.5,-163 1247.5,-163 1247.5,-163 1241.5,-163 1235.5,-157 1235.5,-151 1235.5,-151 1235.5,-139 1235.5,-139 1235.5,-133 1241.5,-127 1247.5,-127 1247.5,-127 1347.5,-127 1347.5,-127 1353.5,-127 1359.5,-133 1359.5,-139 1359.5,-139 1359.5,-151 1359.5,-151 1359.5,-157 1353.5,-163 1347.5,-163"/>
<text text-anchor="middle" x="1297.5" y="-141.3" font-family="Times,serif" font-size="14.00">container.end()</text>
</g>
<!-- loop_vector&#45;&gt;end_vector -->
<g id="edge33" class="edge">
<title>loop_vector&#45;&gt;end_vector</title>
<path fill="none" stroke="black" d="M1348.61,-293.96C1338.72,-265.31 1318.66,-207.25 1306.83,-173"/>
<polygon fill="black" stroke="black" points="1310.01,-171.5 1303.44,-163.19 1303.4,-173.79 1310.01,-171.5"/>
<text text-anchor="middle" x="1390" y="-252.3" font-family="Times,serif" font-size="14.00">end elements</text>
</g>
<!-- end_vector&#45;&gt;end_value -->
<g id="edge34" class="edge">
<title>end_vector&#45;&gt;end_value</title>
<path fill="none" stroke="black" d="M1237.97,-126.96C1179.13,-110.74 1086.3,-86.82 1004.5,-73 832.67,-43.97 628.08,-29.07 521.76,-22.78"/>
<polygon fill="black" stroke="black" points="521.66,-19.26 511.47,-22.18 521.25,-26.25 521.66,-19.26"/>
</g>
</g>
</svg>
